<svg width="800" height="297.88" version="1.1" viewBox="0 0 800 297.88" xml:space="preserve" xmlns="http://www.w3.org/2000/svg"><defs><clipPath id="clipPath16"><path d="m0 221h538.58v-221h-538.58z"/></clipPath></defs><g transform="matrix(1.3333 0 0 -1.3333 -74.956 393.44)"><g transform="matrix(2.9856 0 0 2.9856 -111.62 -142.31)"><g clip-path="url(#clipPath16)"><g transform="translate(112.46 91.665)"><path d="m0 0h-3.693l-1.987 2.507h2.906l0.96-1.453 0.916 1.453h2.949zm5.101-11.503c-0.452-3.806-3.698-5.418-6.837-5.418-5.095 0-7.525 3.87-7.525 7.998 0 4.644 2.86 7.89 7.611 7.89 2.924 0 6.02-1.527 6.536-4.945l-3.418-0.236c-0.452 1.634-1.763 2.321-3.161 2.321-2.881 0-3.891-2.494-3.891-5.008 0-2.215 0.773-5.161 3.891-5.161 1.612 0 3.225 1.076 3.247 2.795z" fill="#000f37"/></g><g transform="translate(126.08 82.14)"><path d="m0 0c-0.107 1.118-0.924 1.914-2.064 1.914-1.354 0-2.042-0.645-2.386-1.914zm-4.472-2.408c0.194-1.376 0.946-2.386 2.408-2.386 0.989 0 1.612 0.344 2.085 1.183l3.183-0.216c-0.796-2.386-2.903-3.547-5.354-3.547-3.526 0-5.633 2.473-5.633 5.891 0 3.332 2.215 5.89 5.633 5.89 3.719 0 5.483-2.838 5.483-6.277v-0.538z" fill="#000f37"/></g><g transform="translate(133.54 79.001)"><path d="m0 0c0.193-1.44 0.946-1.85 2.365-1.85 0.688 0 1.591 0.152 1.591 1.033 0 2-6.622 0.387-6.622 4.838 0 2.623 2.387 3.525 4.644 3.525 2.451 0 4.751-1.053 4.88-3.783l-2.966-0.152c-0.065 1.183-1.033 1.614-1.957 1.614-0.602 0-1.548-0.108-1.548-0.947 0-1.698 6.794-0.365 6.794-4.773 0-2.881-2.601-3.74-5.031-3.74-2.365 0-5.16 1.053-5.16 3.999v0.129z" fill="#000f37"/></g><g transform="translate(153.06 86.225)"><path d="m0 0-4.3-4.214 4.601-6.923h-4.02l-2.795 4.73-1.032-1.031v-3.699h-3.161v15.179h3.161v-7.848l3.44 3.806z" fill="#000f37"/></g><g transform="translate(158.9 87.75)"><path d="m0 0h-2.3l1.444 3.001h3.546zm4.282-1.525-3.677-11.051c-0.193-0.602-0.581-1.827-1.053-2.408-0.818-1.032-2.086-1.096-4.064-1.096-0.344 0-0.752 0.043-0.838 0.043v2.493h1.053c1.269 0 1.591 0.667 1.591 1.398 0 0.452-0.15 0.774-0.451 1.591l-3.225 9.03h3.44l2.021-7.503 1.849 7.503z" fill="#000f37"/></g><g transform="translate(173.66 84.398)"><path d="m0 0c0.602 1.548 1.526 2.042 2.881 2.042 0.15 0 0.28 0 0.559-0.043v-2.881c-0.301 0.043-0.473 0.065-0.752 0.065-2.279 0-2.538-1.677-2.538-3.01v-5.483h-3.246v11.137h3.096z" fill="#000f37"/></g><g transform="translate(183.5 84.01)"><path d="m0 0c-1.914 0-2.559-1.634-2.559-3.289 0-1.612 0.602-3.375 2.516-3.375 1.957 0 2.516 1.827 2.516 3.482 0 1.591-0.602 3.182-2.473 3.182m-0.15-9.244c-3.483 0-5.655 2.408-5.655 5.826 0 3.612 2.344 5.955 5.955 5.955 3.419 0 5.569-2.515 5.569-5.848 0-3.439-2.408-5.933-5.869-5.933" fill="#000f37"/></g><g transform="translate(199.41 83.666)"><path d="m0 0-5.332-5.955h5.698v-2.623h-9.804v2.365l5.504 6.149h-4.881v2.623h8.815z" fill="#000f37"/></g><g transform="translate(208.23 75.088)"><path d="m0 0v6.235c0 1.032-0.043 2.472-1.655 2.472-1.871 0-1.935-1.806-1.935-2.924v-5.783h-3.139v15.179h3.139v-5.182c0.494 0.882 2.085 1.398 3.031 1.398 3.032 0 3.72-2.3 3.72-4.236v-7.159z" fill="#000f37"/></g><path d="m216.78 75.088h-3.16v15.179h3.16z" fill="#000f37"/><g transform="translate(225.73 80.42)"><path d="m0 0c-0.301-0.107-0.495-0.193-0.774-0.258-0.881-0.236-3.311-0.259-3.311-1.699 0-0.924 0.838-1.203 1.483-1.203 0.237 0 1.785 0.021 2.602 1.44zm3.142-5.332h-3.034l-0.021 1.01c-1.226-0.86-1.914-1.332-3.505-1.332-2.15 0-3.871 1.332-3.871 3.591 0 3.16 3.075 3.44 5.484 3.784 0.558 0.086 1.72 0.129 1.72 0.925 0 0.859-1.033 1.032-1.699 1.032-0.882 0-2-0.302-1.957-1.399h-2.924c0.15 2.774 2.236 3.85 4.752 3.85 1.85 0 3.935-0.302 4.752-2.236 0.345-0.839 0.301-2.129 0.301-3.033z" fill="#000f37"/></g><g transform="translate(233.51 79.001)"><path d="m0 0c0.193-1.44 0.946-1.85 2.365-1.85 0.688 0 1.591 0.152 1.591 1.033 0 2-6.622 0.387-6.622 4.838 0 2.623 2.387 3.525 4.644 3.525 2.451 0 4.751-1.053 4.88-3.783l-2.966-0.152c-0.065 1.183-1.033 1.614-1.957 1.614-0.602 0-1.548-0.108-1.548-0.947 0-1.698 6.794-0.365 6.794-4.773 0-2.881-2.601-3.74-5.031-3.74-2.365 0-5.16 1.053-5.16 3.999v0.129z" fill="#000f37"/></g><g transform="translate(71.208,146.5)"><path d="m0 0h-14.991v-7.454h30.244c-2.185 5.093-7.939 7.454-15.253 7.454m14.229-19.133h-29.22v7.428h31.178c0.015-0.292 0.022-0.586 0.02-0.886-0.026-2.764-0.687-4.895-1.978-6.542m-29.22-4.252v-7.415h27.237l-4.56 7.415zm0-11.667h29.853l4.594-7.468h-34.447z" fill="#000f37"/></g><g transform="translate(111.81 120.88)"><path d="m0 0h4.526c2.806 0 5.793 0.769 5.793 4.616 0 4.435-3.983 4.571-6.608 4.571h-3.711zm5.069 15.025c4.843 0 9.142-0.678 11.45-5.476 0.679-1.448 0.996-3.304 0.996-4.888 0-2.308-0.543-4.752-1.992-6.607-2.896-3.802-6.607-3.938-10.952-3.938h-4.571v-11.043h-7.241v31.952z" fill="#000f37"/></g><g transform="translate(142.86 122.74)"><path d="m0 0c-4.028 0-5.385-3.439-5.385-6.925 0-3.394 1.267-7.105 5.295-7.105 4.118 0 5.295 3.846 5.295 7.332 0 3.348-1.267 6.698-5.205 6.698m-0.316-19.461c-7.332 0-11.903 5.068-11.903 12.265 0 7.603 4.933 12.536 12.536 12.536 7.196 0 11.722-5.295 11.722-12.31 0-7.241-5.069-12.491-12.355-12.491" fill="#000f37"/></g><g transform="translate(172.5 103.96)"><path d="m0 0v13.125c0 2.172-0.09 5.204-3.485 5.204-3.937 0-4.073-3.802-4.073-6.155v-12.174h-6.608v31.952h6.608v-10.907c1.041 1.855 4.39 2.941 6.381 2.941 6.382 0 7.83-4.842 7.83-8.916v-15.07z" fill="#000f37"/></g><g transform="translate(194.67 122.74)"><path d="m0 0c-4.028 0-5.385-3.439-5.385-6.925 0-3.394 1.267-7.105 5.295-7.105 4.118 0 5.295 3.846 5.295 7.332 0 3.348-1.267 6.698-5.205 6.698m-0.316-19.461c-7.332 0-11.903 5.068-11.903 12.265 0 7.603 4.933 12.536 12.536 12.536 7.196 0 11.722-5.295 11.722-12.31 0-7.241-5.069-12.491-12.355-12.491" fill="#000f37"/></g><g transform="translate(220.64 122.51)"><path d="m0 0c-3.575 0-4.707-3.802-4.707-6.743 0-3.214 0.951-6.88 4.797-6.88 3.757 0 4.572 3.576 4.572 6.653 0 3.168-0.77 6.97-4.662 6.97m4.707-18.556v2.263c-1.358-2.127-3.802-2.851-6.201-2.851-6.652 0-10.002 6.11-10.002 12.083 0 6.382 3.214 12.538 10.319 12.538 2.127 0 3.983-0.77 5.612-2.128v10.047h6.744v-31.952z" fill="#000f37"/></g><g transform="translate(250.57 115.18)"><path d="m0 0c-0.634-0.226-1.041-0.407-1.63-0.543-1.855-0.498-6.969-0.543-6.969-3.575 0-1.946 1.764-2.534 3.122-2.534 0.498 0 3.757 0.045 5.477 3.032zm6.613-11.223-6.385-2e-3 -0.045 2.128c-2.58-1.809-4.03-2.806-7.379-2.806-4.526 0-8.148 2.806-8.148 7.559 0 6.654 6.474 7.242 11.543 7.966 1.177 0.182 3.621 0.272 3.621 1.946 0 1.811-2.173 2.173-3.575 2.173-1.856 0-4.21-0.634-4.119-2.941h-6.156c0.316 5.838 4.707 8.101 10.004 8.101 3.892 0 8.283-0.634 10.003-4.708 0.723-1.764 0.632-4.48 0.632-6.381z" fill="#000f37"/></g></g></g></g></svg>
