<svg version="1.1" viewBox="0 0 384.05 99.791" xml:space="preserve" xmlns="http://www.w3.org/2000/svg"><g transform="matrix(1.3333 0 0 -1.3333 -75.591 245.67)"><g transform="translate(56.693,149.2)"><path d="m0 0h29.854l4.593-7.467h-34.447zm0 11.667v-7.415h27.237l-4.56 7.415zm29.22 4.252h-29.22v7.428h31.178c0.015-0.291 0.023-0.585 0.02-0.886-0.026-2.764-0.687-4.895-1.978-6.542m-14.229 19.133h-14.991v-7.453h30.245c-2.185 5.092-7.94 7.453-15.254 7.453" fill="#ed2e38"/></g><g transform="translate(164.41 123.95)"><path d="m0 0h-3.351l-1.845-7.494-2.019 7.494h-3.436l3.22-9.018c0.172-0.494 0.452-1.052 0.452-1.589 0-0.365-0.172-0.901-0.472-1.138-0.302-0.237-0.967-0.28-1.333-0.28-0.278 0-0.557 0.022-0.836 0.022v-2.492c0.279 0 0.558-0.042 0.836-0.042 1.375 0 3.115-0.087 4.058 1.095 0.452 0.58 0.818 1.697 1.054 2.405zm-1.33 4.681h-3.786l-1.54-3.204h2.455zm27.889-15.815v2.362l5.497 6.14h-4.875v2.621h8.805v-2.555l-5.326-5.948h5.691v-2.62zm18.187 0v6.227c0 0.709 0.043 1.568-0.536 2.083-0.301 0.279-0.709 0.386-1.118 0.386-0.471 0-0.857-0.128-1.223-0.429-0.752-0.623-0.708-1.675-0.708-2.555v-5.712h-3.136v15.16h3.136v-5.175c0.493 0.88 2.082 1.396 3.027 1.396 0.731 0 1.61-0.194 2.212-0.623 1.288-0.923 1.501-2.169 1.501-3.651v-7.107zm8.503 0h-3.156v15.16h3.156zm23.812 3.414c0 2.792-2.748 3.286-4.895 3.736-0.58 0.13-1.889 0.28-1.889 1.074s0.945 0.901 1.545 0.901c0.602 0 1.288-0.214 1.675-0.708 0.171-0.214 0.236-0.644 0.279-0.901l2.963 0.15c-0.129 2.726-2.426 3.779-4.874 3.779-2.254 0-4.639-0.902-4.639-3.521 0-4.445 6.614-2.836 6.614-4.832 0-0.88-0.9-1.031-1.588-1.031-1.418 0-2.169 0.408-2.362 1.847l-3.006-0.107c0-0.365 0.02-0.666 0.107-1.03 0.558-2.299 2.92-3.093 5.045-3.093 2.427 0 5.025 0.859 5.025 3.736m-11.747 2.785c0 0.903 0.042 2.192-0.302 3.029-0.816 1.934-2.899 2.235-4.745 2.235-2.514 0-4.598-1.074-4.748-3.846h2.922c-0.044 1.095 1.073 1.396 1.954 1.396 0.665 0 1.696-0.171 1.696-1.03 0-0.795-1.16-0.838-1.718-0.923-2.406-0.344-5.477-0.624-5.477-3.782 0-2.254 1.718-3.587 3.866-3.587 1.589 0 2.278 0.473 3.501 1.333l0.022-1.009h3.031zm-3.137-2.576c-0.537-0.924-1.547-1.44-2.599-1.44-0.731 0-1.483 0.344-1.483 1.182 0 1.439 2.3 1.46 3.309 1.718 0.258 0.064 0.515 0.15 0.773 0.257zm-108.07 1.456-3.542 0.236c-0.022-1.718-1.632-2.79-3.242-2.79-0.86 0-1.676 0.278-2.341 0.815-1.288 1.074-1.546 2.77-1.546 4.338 0 2.512 1.009 5.002 3.887 5.002 1.18 0 2.233-0.45 2.833-1.525 0.13-0.257 0.258-0.515 0.323-0.794l3.414 0.236c-0.043 0.366-0.151 0.688-0.258 1.03-0.901 2.685-3.585 3.909-6.27 3.909-4.745 0-7.6-3.242-7.6-7.881 0-3.178 1.503-6.291 4.573-7.493 0.944-0.365 1.975-0.493 2.985-0.493 2.469 0 4.766 0.902 6.033 3.113 0.408 0.708 0.666 1.503 0.751 2.297m11.789-0.43v0.538c0 3.434-1.761 6.27-5.476 6.27-3.414 0-5.625-2.555-5.625-5.884 0-3.415 2.103-5.883 5.625-5.883 2.448 0 4.553 1.159 5.347 3.542l-3.178 0.215c-0.473-0.838-1.095-1.18-2.082-1.18-1.461 0-2.213 1.009-2.406 2.382zm-3.328 2.405h-4.446c0.344 1.267 1.031 1.912 2.385 1.912 1.137 0 1.953-0.794 2.061-1.912m14.429-3.628c0 2.792-2.749 3.286-4.896 3.736-0.58 0.129-1.89 0.28-1.89 1.074s0.945 0.901 1.546 0.901c0.602 0 1.288-0.214 1.675-0.708 0.172-0.215 0.236-0.644 0.279-0.902l2.964 0.151c-0.129 2.726-2.427 3.779-4.875 3.779-2.254 0-4.638-0.903-4.638-3.522 0-4.445 6.614-2.835 6.614-4.832 0-0.88-0.902-1.03-1.59-1.03-1.416 0-2.168 0.408-2.361 1.847l-3.006-0.107c0-0.366 0.021-0.666 0.107-1.031 0.558-2.299 2.92-3.092 5.046-3.092 2.426 0 5.025 0.859 5.025 3.736m12.624-3.414-4.594 6.914 4.294 4.208h-4.101l-3.435-3.8v7.837h-3.157v-15.159h3.157v3.693l1.03 1.031 2.792-4.724zm24.134 8.417v2.877c-0.192 0.022-0.364 0.042-0.558 0.042-1.502 0-2.34-0.643-2.877-2.038v1.824h-3.092v-11.122h3.243v3.628c0 0.559 0 1.138 0.021 1.697 0.043 1.803 0.301 3.156 2.513 3.156 0.257 0 0.493-0.021 0.75-0.064m12.025-2.813c0 3.328-2.147 5.841-5.561 5.841-3.608 0-5.948-2.341-5.948-5.949 0-3.414 2.169-5.818 5.646-5.818 3.458 0 5.863 2.491 5.863 5.926m-3.242 0.129c0-1.653-0.559-3.478-2.512-3.478-1.912 0-2.514 1.76-2.514 3.371 0 1.653 0.645 3.285 2.555 3.285 1.869 0 2.471-1.589 2.471-3.178m-73.792 10.749h-3.688l-1.982 2.504h2.901l0.958-1.452 0.914 1.452h2.945l-2.048-2.504" fill="#ed2e38"/></g><g transform="translate(180.95 141.72)"><path d="m0 0v31.854h-6.723v-10.016c-1.624 1.353-3.474 2.12-5.595 2.12-7.083 0-10.287-6.136-10.287-12.498 0-5.955 3.339-12.047 9.972-12.047 2.391 0 4.827 0.722 6.181 2.843v-2.256zm-6.497 11.551c0-3.069-0.812-6.633-4.557-6.633-3.835 0-4.783 3.655-4.783 6.858 0 2.933 1.128 6.723 4.692 6.723 3.881 0 4.648-3.79 4.648-6.948zm-19.846 1.448c0 1.895 0.091 4.603-0.632 6.364-1.715 4.062-6.093 4.694-9.974 4.694-5.281 0-9.659-2.257-9.975-8.079h6.139c-0.091 2.301 2.256 2.933 4.107 2.933 1.399 0 3.565-0.361 3.565-2.166 0-1.67-2.437-1.76-3.61-1.941-5.055-0.722-11.51-1.309-11.51-7.943 0-4.739 3.611-7.538 8.125-7.538 3.339 0 4.784 0.993 7.356 2.799l0.045-2.122 6.368 1e-3zm-6.589-5.416c-1.129-1.941-3.25-3.024-5.461-3.024-1.535 0-3.115 0.722-3.115 2.482 0 3.024 4.83 3.069 6.951 3.611 0.542 0.135 1.083 0.316 1.625 0.541zm44.478 18.271h-6.5874v6.0009h6.5874zm-6.587 0zm6.587-25.854h-6.5874v23.372h6.5874zm-6.587 0zm21.838-0.677c-7.31 0-11.867 5.054-11.867 12.228 0 7.58 4.918 12.498 12.498 12.498 7.174 0 11.686-5.279 11.686-12.273 0-7.219-5.053-12.453-12.317-12.453zm0.315 19.402c-4.015 0-5.369-3.429-5.369-6.904 0-3.384 1.264-7.083 5.279-7.083 4.106 0 5.279 3.835 5.279 7.309 0 3.339-1.263 6.678-5.189 6.678zm52.294-18.725v2.572c-1.309-2.121-4.242-3.159-6.633-3.159-1.399 0-2.888 0.226-4.151 0.948-3.474 1.94-3.655 5.82-3.655 9.385v13.626h6.633v-13.401c0-2.571 0.496-5.053 3.655-5.053 3.338 0 3.925 2.662 3.925 5.369 0 1.038 0.09 2.031 0.09 3.068v10.017h6.452v-23.372zm23.056 17.822c-4.648 0-5.189-2.842-5.28-6.632-0.045-1.173-0.045-2.392-0.045-3.565v-7.625h-6.813v23.372h6.498v-3.835c1.128 2.933 2.887 4.286 6.046 4.286 0.406 0 0.767-0.045 1.173-0.09v-6.046c-0.542 0.09-1.038 0.135-1.579 0.135zm18.137-17.822v13.761c0 2.256-0.857 4.467-3.474 4.467-0.993 0-1.94-0.406-2.662-1.083-1.579-1.534-1.354-3.835-1.354-5.865v-11.28h-6.677v23.372h6.497v-2.707c1.624 2.075 3.745 3.248 6.452 3.248 1.759 0 3.519-0.451 4.918-1.534 2.662-2.03 3.113-4.873 3.113-8.031v-14.348zm43.179 0h-6.6326v31.854h6.6326zm-6.632 0zm-98.344 32.859h-5.096l-2.3-3.41-2.209 3.41h-5.006l4.255-6.297h5.741zm2.751-32.859v5.502h-11.95l11.184 12.492v5.367h-18.49v-5.502h10.237l-11.545-12.898v-4.961zm90.878 0.012-6.361-1e-3 -0.045 2.119c-2.57-1.804-4.013-2.796-7.349-2.796-4.509 0-8.116 2.796-8.116 7.53 0 6.627 6.447 7.214 11.497 7.935 1.172 0.18 3.607 0.27 3.607 1.939 0 1.803-2.164 2.164-3.562 2.164-1.848 0-4.193-0.631-4.103-2.931h-6.131c0.315 5.816 4.689 8.071 9.964 8.071 3.877 0 8.25-0.632 9.964-4.689 0.721-1.759 0.631-4.464 0.631-6.358zm-6.587 11.18c-0.541-0.225-1.082-0.406-1.623-0.541-2.119-0.541-6.943-0.586-6.943-3.607 0-1.758 1.578-2.48 3.111-2.48 2.209 0 4.328 1.082 5.455 3.021zm4.502 21.703h-7.44l-3.027-6.295h4.823zm-203.7-17.931c1.445 1.852 1.987 4.291 1.987 6.595 0 1.581-0.316 3.433-0.993 4.878-2.304 4.788-6.595 5.466-11.428 5.466h-12.286v-31.89h7.227v11.021h4.562c0.084 0 0.166 1e-3 0.249 1e-3l6.648-11.022h8.002l-7.329 12.152c1.216 0.582 2.34 1.459 3.361 2.799zm-5.195 6.55c0-1.807-0.858-3.343-2.529-4.111-1.084-0.497-2.755-0.497-3.93-0.497-1.265 0-2.575 0.045-3.839 0.045v9.125h3.478c2.078 0 4.426 0.09 5.872-1.717 0.632-0.813 0.948-1.807 0.948-2.845" fill="#ed2e38"/></g></g></svg>
