<svg width="800" height="261.12" version="1.1" viewBox="0 0 800 261.12" xml:space="preserve" xmlns="http://www.w3.org/2000/svg"><defs><clipPath id="clipPath16"><path d="M 0,283.465 H 481.89 V 0 H 0 Z"/></clipPath></defs><g transform="matrix(1.3333 0 0 -1.3333 -75.591 382.39)"><g transform="matrix(2.099 0 0 2.099 -62.307 -99.957)"><g clip-path="url(#clipPath16)"><g transform="translate(56.693 149.2)"><path d="m0 0h29.853l4.594-7.467h-34.447zm0 11.667v-7.415h27.237l-4.56 7.415zm29.22 4.252h-29.22v7.428h31.178c0.015-0.291 0.023-0.585 0.02-0.886-0.026-2.764-0.687-4.895-1.978-6.542m-14.229 19.133h-14.991v-7.453h30.245c-2.185 5.092-7.94 7.453-15.254 7.453" fill="#ed2e38"/></g><g transform="translate(121.11 166)"><path d="m0 0c-1.438 1.799-3.774 1.709-5.84 1.709h-3.459v-9.086c1.258 0 2.56-0.045 3.819-0.045 1.168 0 2.829 0 3.907 0.494 1.663 0.765 2.516 2.295 2.516 4.094 0 1.034-0.314 2.023-0.943 2.834m2.768-12.145 7.289-12.101h-7.959l-6.612 10.976h-4.785v-10.976h-7.188v31.758h12.219c4.807 0 9.075-0.675 11.366-5.444 0.673-1.439 0.988-3.283 0.988-4.857 0-2.295-0.539-4.723-1.977-6.567-1.015-1.335-2.132-2.208-3.341-2.789" fill="#ed2e38"/></g><g transform="translate(147.6 152.9)"><path d="m0 0c-0.629-0.225-1.033-0.404-1.619-0.539-1.846-0.496-6.93-0.541-6.93-3.555 0-1.935 1.756-2.52 3.106-2.52 0.494 0 3.734 0.045 5.443 3.014zm6.576-11.158-6.349-2e-3 -0.043 2.115c-2.567-1.799-4.006-2.789-7.336-2.789-4.502 0-8.102 2.789-8.102 7.516 0 6.615 6.436 7.2 11.477 7.92 1.17 0.179 3.599 0.269 3.599 1.935 0 1.8-2.16 2.16-3.554 2.16-1.846 0-4.186-0.631-4.096-2.926h-6.121c0.316 5.805 4.681 8.057 9.947 8.057 3.869 0 8.236-0.631 9.945-4.682 0.721-1.754 0.629-4.455 0.629-6.344z" fill="#ed2e38"/></g><g transform="translate(169.38 160.19)"><path d="m0 0c-3.557 0-4.682-3.78-4.682-6.704 0-3.195 0.946-6.84 4.772-6.84 3.734 0 4.545 3.555 4.545 6.614 0 3.15-0.766 6.93-4.635 6.93m4.68-18.449v2.25c-1.352-2.115-3.782-2.835-6.166-2.835-6.616 0-9.944 6.074-9.944 12.014 0 6.345 3.194 12.464 10.258 12.464 2.115 0 3.961-0.764 5.58-2.114v9.989h6.705v-31.768z" fill="#ed2e38"/></g><path d="m191.7 141.74h-6.568v23.31h6.568zm0 25.784h-6.568v5.984h6.568z" fill="#ed2e38"/><g transform="translate(207.22 160.42)"><path d="m0 0c-4.004 0-5.354-3.42-5.354-6.885 0-3.375 1.26-7.065 5.264-7.065 4.096 0 5.266 3.825 5.266 7.29 0 3.33-1.26 6.66-5.176 6.66m-0.314-19.35c-7.29 0-11.834 5.039-11.834 12.195 0 7.559 4.904 12.464 12.462 12.464 7.157 0 11.657-5.264 11.657-12.239 0-7.2-5.041-12.42-12.285-12.42" fill="#ed2e38"/></g><g transform="translate(233.26 168.24)"><path d="m0 0h-5.729l-4.246 6.283h4.995l2.205-3.402 2.295 3.402h5.085zm6.59-8.547-11.16-12.465h11.925v-5.489h-20.519v4.95l11.519 12.869h-10.214v5.491h18.449z" fill="#ed2e38"/></g><g transform="translate(258.39 141.74)"><path d="m0 0v2.565c-1.303-2.115-4.229-3.15-6.613-3.15-7.289 0-7.785 5.895-7.785 10.305v13.59h6.615v-13.366c0-2.564 0.494-5.039 3.644-5.039 3.328 0 4.004 2.744 4.004 6.254v12.151h6.434v-23.31z" fill="#ed2e38"/></g><g transform="translate(275.76 161.22)"><path d="m0 0c1.26 3.239 3.195 4.274 6.031 4.274 0.315 0 0.584 0 1.172-0.089v-6.03c-0.633 0.09-0.992 0.135-1.578 0.135-4.77 0-5.309-3.51-5.309-6.3v-11.474h-6.795v23.309h6.479z" fill="#ed2e38"/></g><g transform="translate(299.47 141.74)"><path d="m0 0v13.725c0 2.249-0.855 4.454-3.465 4.454-3.15 0-4.004-2.789-4.004-5.264v-12.915h-6.66v23.31h6.479v-2.701c1.621 2.07 3.736 3.24 6.435 3.24 1.756 0 3.51-0.45 4.904-1.53 2.657-2.025 3.106-4.859 3.106-8.009v-14.31z" fill="#ed2e38"/></g><g transform="translate(323.31 168.25)"><path d="m0 0h-4.812l3.019 6.281h7.424zm1.32-15.35c-0.629-0.224-1.033-0.404-1.619-0.539-1.846-0.496-6.93-0.541-6.93-3.554 0-1.936 1.756-2.521 3.106-2.521 0.494 0 3.734 0.045 5.443 3.015zm6.571-11.159-6.344-0.045-0.045 2.115c-2.566-1.754-4.006-2.79-7.336-2.79-4.5 0-8.1 2.79-8.1 7.56 0 6.614 6.436 7.2 11.475 7.919 1.17 0.181 3.6 0.271 3.6 1.936 0 1.799-2.161 2.16-3.555 2.16-1.844 0-4.184-0.631-4.094-2.926h-6.121c0.316 5.805 4.68 8.055 9.945 8.055 3.87 0 8.235-0.629 9.946-4.68 0.718-1.754 0.629-4.454 0.629-6.344z" fill="#ed2e38"/></g><path d="m342.54 141.74h-6.615v31.769h6.615z" fill="#ed2e38"/><g transform="translate(122.8 120.15)"><path d="m0 0c-0.225 3.375-2.25 4.86-6.165 4.86-3.195 0-4.995-1.125-4.995-3.24 0-2.16 2.115-2.745 5.31-3.465l4.141-0.945c2.654-0.585 9.27-2.115 9.27-9.674 0-3.916-1.981-10.17-13.321-10.17-7.199 0-13.275 2.475-13.635 10.799l7.155 0.405c0.045-3.554 2.565-5.219 6.795-5.219 1.89 0 5.67 0.405 5.67 3.689 0 2.61-2.925 3.285-6.165 4.006l-2.25 0.494c-6.164 1.35-10.169 3.69-10.169 9.495 0 8.685 8.729 9.585 12.779 9.585 7.516 0 12.33-3.6 12.644-10.08z" fill="#ed2e38"/></g><g transform="translate(145.75 116.73)"><path d="m0 0c-4.049 0-4.77-3.825-4.77-7.02 0-3.149 0.856-6.524 4.725-6.524 3.736 0 4.68 4.094 4.68 7.109 0 2.97-1.08 6.435-4.635 6.435m-4.904 4.815v-2.791c1.711 2.295 3.689 3.375 6.57 3.375 6.209 0 9.674-5.084 9.674-12.239 0-6.165-3.33-12.239-10.08-12.239-2.61 0-4.184 0.81-5.985 2.609v-9.314h-6.613v30.599z" fill="#ed2e38"/></g><g transform="translate(171.63 116.92)"><path d="m0 0c-4.004 0-5.354-3.42-5.354-6.885 0-3.375 1.26-7.065 5.264-7.065 4.096 0 5.266 3.825 5.266 7.29 0 3.33-1.26 6.66-5.176 6.66m-0.314-19.35c-7.29 0-11.834 5.039-11.834 12.195 0 7.559 4.904 12.464 12.464 12.464 7.155 0 11.655-5.264 11.655-12.239 0-7.2-5.041-12.42-12.285-12.42" fill="#ed2e38"/></g><g transform="translate(193.36 117.72)"><path d="m0 0c1.26 3.239 3.195 4.274 6.029 4.274 0.315 0 0.586 0 1.17-0.089v-6.03c-0.631 0.09-0.99 0.135-1.574 0.135-4.77 0-5.311-3.51-5.311-6.3v-11.474h-6.794v23.309h6.48z" fill="#ed2e38"/></g><g transform="translate(211.54 116.51)"><path d="m0 0v-10.484c0-1.935 0.361-2.7 2.52-2.7 0.675 0 1.125 0.045 1.8 0.09v-5.13c-2.295-0.27-3.509-0.315-4.545-0.315-5.445 0-6.388 2.61-6.388 7.29v11.249h-3.33v5.041h3.33v6.885h6.613v-6.885h4.096v-5.041z" fill="#ed2e38"/></g></g></g></g></svg>
