<svg width="800" height="331.55" version="1.1" viewBox="0 0 800 331.55" xml:space="preserve" xmlns="http://www.w3.org/2000/svg"><defs><clipPath id="clipPath18"><path d="M 0,283.465 H 481.89 V 0 H 0 Z"/></clipPath></defs><g transform="matrix(1.3333 0 0 -1.3333 -75.591 421.79)"><g transform="matrix(1.7159 0 0 1.7159 -40.585 -48.452)" fill="#fff"><g clip-path="url(#clipPath18)" fill="#fff"><g transform="translate(56.693 154.18)"><path d="m0 0h49.754l7.656-12.446h-57.41zm0 19.444v-12.357h45.395l-7.601 12.357zm48.699 7.087h-48.699v12.38h51.962c0.025-0.486 0.037-0.976 0.033-1.477-0.043-4.607-1.145-8.158-3.296-10.903m-23.714 31.887h-24.985v-12.422h50.406c-3.642 8.488-13.232 12.422-25.421 12.422" fill="#fff"/></g><g transform="translate(149.84 166.11)"><path d="m0 0c-1.438 1.799-3.774 1.709-5.841 1.709h-3.459v-9.086c1.258 0 2.561-0.045 3.819-0.045 1.168 0 2.83 0 3.908 0.495 1.662 0.764 2.515 2.294 2.515 4.094 0 1.034-0.314 2.023-0.942 2.833m2.767-12.144 7.289-12.101h-7.959l-6.612 10.976h-4.785v-10.976h-7.187v31.757h12.219c4.806 0 9.074-0.675 11.366-5.443 0.673-1.44 0.987-3.283 0.987-4.858 0-2.294-0.538-4.723-1.976-6.567-1.015-1.335-2.133-2.208-3.342-2.788" fill="#fff"/></g><g transform="translate(176.33 153.01)"><path d="m0 0c-0.63-0.225-1.035-0.405-1.62-0.54-1.845-0.495-6.929-0.54-6.929-3.555 0-1.935 1.755-2.52 3.104-2.52 0.495 0 3.735 0.045 5.445 3.015zm6.576-11.159-6.349-1e-3 -0.045 2.115c-2.565-1.799-4.005-2.79-7.336-2.79-4.5 0-8.101 2.79-8.101 7.516 0 6.615 6.436 7.2 11.477 7.92 1.17 0.18 3.6 0.27 3.6 1.936 0 1.799-2.161 2.16-3.555 2.16-1.846 0-4.186-0.631-4.096-2.926h-6.12c0.315 5.805 4.68 8.056 9.946 8.056 3.87 0 8.236-0.631 9.946-4.681 0.72-1.755 0.629-4.455 0.629-6.345z" fill="#fff"/></g><g transform="translate(198.11 160.3)"><path d="m0 0c-3.555 0-4.68-3.78-4.68-6.705 0-3.194 0.945-6.839 4.77-6.839 3.735 0 4.545 3.554 4.545 6.614 0 3.15-0.765 6.93-4.635 6.93m4.68-18.449v2.25c-1.35-2.115-3.78-2.835-6.165-2.835-6.615 0-9.945 6.075-9.945 12.014 0 6.345 3.195 12.465 10.26 12.465 2.115 0 3.96-0.765 5.58-2.115v9.989h6.704v-31.768z" fill="#fff"/></g><path d="m220.43 141.85h-6.57v23.309h6.57zm0 25.784h-6.57v5.984h6.57z"/><g transform="translate(235.95 160.52)"><path d="m0 0c-4.005 0-5.354-3.42-5.354-6.885 0-3.375 1.259-7.065 5.264-7.065 4.095 0 5.265 3.825 5.265 7.29 0 3.33-1.26 6.66-5.175 6.66m-0.315-19.349c-7.289 0-11.834 5.039-11.834 12.194 0 7.56 4.904 12.465 12.463 12.465 7.156 0 11.656-5.265 11.656-12.24 0-7.199-5.041-12.419-12.285-12.419" fill="#fff"/></g><g transform="translate(271.91 158.68)"><path d="m0 0h4.5c2.789 0 5.76 0.765 5.76 4.59 0 4.41-3.961 4.545-6.571 4.545h-3.689zm5.039 14.939c4.815 0 9.09-0.674 11.385-5.444 0.676-1.44 0.99-3.285 0.99-4.86 0-2.295-0.541-4.725-1.98-6.57-2.879-3.779-6.571-3.915-10.889-3.915h-4.545v-10.979h-7.201v31.768z" fill="#fff"/></g><g transform="translate(298.95 161.34)"><path d="m0 0c1.26 3.24 3.195 4.274 6.029 4.274 0.315 0 0.586 0 1.17-0.089v-6.03c-0.631 0.09-0.99 0.135-1.574 0.135-4.77 0-5.311-3.51-5.311-6.3v-11.474h-6.794v23.309h6.48z" fill="#fff"/></g><g transform="translate(321.54 153.01)"><path d="m0 0c-0.629-0.225-1.035-0.405-1.619-0.54-1.846-0.495-6.93-0.54-6.93-3.555 0-1.935 1.754-2.52 3.106-2.52 0.494 0 3.734 0.045 5.443 3.015zm6.576-11.159-6.349-1e-3 -0.045 2.115c-2.565-1.799-4.004-2.79-7.336-2.79-4.5 0-8.1 2.79-8.1 7.516 0 6.615 6.436 7.2 11.477 7.92 1.17 0.18 3.599 0.27 3.599 1.936 0 1.799-2.16 2.16-3.554 2.16-1.846 0-4.186-0.631-4.096-2.926h-6.121c0.314 5.805 4.679 8.056 9.947 8.056 3.869 0 8.234-0.631 9.945-4.681 0.721-1.755 0.629-4.455 0.629-6.345z" fill="#fff"/></g><g transform="translate(343.28 160.34)"><path d="m0 0c-3.285 0-5.039-2.655-5.039-5.715 0-2.97 1.619-5.669 4.859-5.669 3.375 0 4.95 2.789 4.95 5.894 0 2.925-1.62 5.49-4.77 5.49m11.34 4.815v-20.429c0-1.755-0.09-3.6-0.764-5.22-1.801-4.274-6.525-5.31-10.711-5.31-4.994 0-9.808 1.665-10.304 7.38h7.019c0.631-1.62 2.16-2.16 3.781-2.16 4.049 0 4.455 2.43 4.455 5.85 0 0.315 0 0.63 0.045 0.945-1.441-1.98-4.185-2.88-6.525-2.88-6.301 0-9.856 5.175-9.856 11.07 0 5.804 3.42 11.384 9.766 11.384 3.106 0 4.949-1.26 6.705-3.69v3.06z" fill="#fff"/></g><g transform="translate(373.34 141.85)"><path d="m0 0v2.565c-1.305-2.115-4.23-3.15-6.615-3.15-7.289 0-7.785 5.895-7.785 10.305v13.589h6.615v-13.364c0-2.565 0.494-5.04 3.644-5.04 3.33 0 4.006 2.745 4.006 6.255v12.149h6.434v-23.309z" fill="#fff"/></g><g transform="translate(399.39 156.61)"><path d="m0 0c-0.225 2.34-1.936 4.005-4.32 4.005-2.834 0-4.276-1.35-4.994-4.005zm-9.359-5.04c0.404-2.879 1.978-4.995 5.039-4.995 2.07 0 3.375 0.721 4.365 2.475l6.66-0.45c-1.666-4.994-6.076-7.424-11.205-7.424-7.379 0-11.789 5.175-11.789 12.329 0 6.975 4.635 12.33 11.789 12.33 7.785 0 11.475-5.94 11.475-13.14v-1.125z" fill="#fff"/></g><path d="m140.6 99h-7.155v31.769h7.155z"/><g transform="translate(159.59 99)"><path d="m0 0v13.725c0 2.25-0.855 4.455-3.465 4.455-3.15 0-4.005-2.791-4.005-5.266v-12.914h-6.659v23.309h6.48v-2.7c1.619 2.071 3.734 3.241 6.434 3.241 1.755 0 3.51-0.452 4.905-1.531 2.655-2.025 3.105-4.86 3.105-8.009v-14.31z" fill="#fff"/></g><g transform="translate(178.85 117.27)"><path d="m0 0v-10.484c0-1.936 0.36-2.701 2.52-2.701 0.675 0 1.125 0.045 1.8 0.09v-5.13c-2.295-0.269-3.51-0.314-4.545-0.314-5.444 0-6.39 2.609-6.39 7.289v11.25h-3.329v5.039h3.329v6.885h6.615v-6.885h4.095v-5.039z" fill="#fff"/></g><g transform="translate(201.71 113.76)"><path d="m0 0c-0.225 2.34-1.935 4.004-4.32 4.004-2.835 0-4.275-1.35-4.994-4.004zm-9.359-5.04c0.404-2.88 1.98-4.995 5.039-4.995 2.07 0 3.375 0.721 4.365 2.474l6.66-0.449c-1.665-4.995-6.075-7.425-11.205-7.425-7.379 0-11.789 5.175-11.789 12.33 0 6.974 4.635 12.33 11.789 12.33 7.785 0 11.475-5.94 11.475-13.14v-1.125z" fill="#fff"/></g><g transform="translate(218.31 118.48)"><path d="m0 0c1.26 3.24 3.195 4.274 6.03 4.274 0.315 0 0.585 0 1.17-0.089v-6.031c-0.63 0.091-0.991 0.136-1.575 0.136-4.77 0-5.31-3.51-5.31-6.3v-11.474h-6.794v23.308h6.479z" fill="#fff"/></g><g transform="translate(242.03 99)"><path d="m0 0v13.725c0 2.25-0.855 4.455-3.464 4.455-3.151 0-4.005-2.791-4.005-5.266v-12.914h-6.66v23.309h6.479v-2.7c1.62 2.071 3.735 3.241 6.435 3.241 1.756 0 3.51-0.452 4.904-1.531 2.657-2.025 3.106-4.86 3.106-8.009v-14.31z" fill="#fff"/></g><g transform="translate(267.18 110.16)"><path d="m0 0c-0.631-0.226-1.035-0.406-1.621-0.541-1.844-0.494-6.93-0.539-6.93-3.555 0-1.934 1.756-2.519 3.106-2.519 0.496 0 3.734 0.045 5.445 3.014zm6.576-11.16h-6.349l-0.045 2.114c-2.565-1.799-4.006-2.79-7.336-2.79-4.5 0-8.102 2.79-8.102 7.517 0 6.614 6.436 7.2 11.477 7.92 1.17 0.18 3.601 0.27 3.601 1.935 0 1.8-2.162 2.16-3.556 2.16-1.844 0-4.186-0.63-4.096-2.925h-6.119c0.314 5.805 4.679 8.055 9.945 8.055 3.871 0 8.236-0.631 9.945-4.68 0.721-1.755 0.631-4.455 0.631-6.345z" fill="#fff"/></g><g transform="translate(286.58 117.27)"><path d="m0 0v-10.484c0-1.936 0.359-2.701 2.52-2.701 0.675 0 1.125 0.045 1.8 0.09v-5.13c-2.295-0.269-3.509-0.314-4.545-0.314-5.445 0-6.39 2.609-6.39 7.289v11.25h-3.33v5.039h3.33v6.885h6.615v-6.885h4.094v-5.039z" fill="#fff"/></g><path d="m300.98 99h-6.568v23.309h6.568zm0 25.784h-6.568v5.984h6.568z"/><g transform="translate(316.5 117.67)"><path d="m0 0c-4.004 0-5.354-3.42-5.354-6.885 0-3.375 1.26-7.064 5.264-7.064 4.096 0 5.266 3.825 5.266 7.29 0 3.329-1.26 6.659-5.176 6.659m-0.314-19.349c-7.29 0-11.834 5.04-11.834 12.195 0 7.559 4.904 12.465 12.462 12.465 7.157 0 11.657-5.266 11.657-12.241 0-7.199-5.041-12.419-12.285-12.419" fill="#fff"/></g><g transform="translate(346.02 99)"><path d="m0 0v13.725c0 2.25-0.855 4.455-3.465 4.455-3.15 0-4.004-2.791-4.004-5.266v-12.914h-6.66v23.309h6.479v-2.7c1.621 2.071 3.736 3.241 6.435 3.241 1.756 0 3.51-0.452 4.904-1.531 2.657-2.025 3.106-4.86 3.106-8.009v-14.31z" fill="#fff"/></g><g transform="translate(371.18 110.16)"><path d="m0 0c-0.631-0.226-1.035-0.406-1.621-0.541-1.844-0.494-6.93-0.539-6.93-3.555 0-1.934 1.756-2.519 3.106-2.519 0.496 0 3.734 0.045 5.445 3.014zm6.576-11.16h-6.349l-0.045 2.114c-2.565-1.799-4.006-2.79-7.336-2.79-4.5 0-8.102 2.79-8.102 7.517 0 6.614 6.436 7.2 11.477 7.92 1.17 0.18 3.601 0.27 3.601 1.935 0 1.8-2.162 2.16-3.556 2.16-1.844 0-4.186-0.63-4.096-2.925h-6.119c0.314 5.805 4.679 8.055 9.945 8.055 3.871 0 8.236-0.631 9.945-4.68 0.721-1.755 0.631-4.455 0.631-6.345z" fill="#fff"/></g><path d="m389.09 99h-6.615v31.769h6.615z"/><g transform="translate(142.88 73.335)"><path d="m0 0c-0.022-1.721-1.634-2.796-3.246-2.796-3.118 0-3.892 2.946-3.892 5.16 0 2.517 1.011 5.011 3.892 5.011 1.397 0 2.709-0.688 3.16-2.322l3.419 0.236c-0.517 3.419-3.613 4.944-6.537 4.944-4.751 0-7.611-3.247-7.611-7.889 0-4.129 2.43-7.998 7.526-7.998 3.139 0 6.385 1.612 6.837 5.418zm13.545 5.826h-8.815v-2.623h4.88l-5.504-6.148v-2.366h9.804v2.623h-5.697l5.332 5.956zm12.083-6.492v0.536c0 3.441-1.763 6.278-5.482 6.278-3.419 0-5.633-2.558-5.633-5.89 0-3.418 2.107-5.892 5.633-5.892 2.451 0 4.558 1.161 5.353 3.549l-3.182 0.215c-0.473-0.839-1.096-1.184-2.085-1.184-1.462 0-2.215 1.012-2.408 2.388zm-7.783 2.407c0.344 1.269 1.032 1.913 2.387 1.913 1.139 0 1.956-0.795 2.064-1.913zm16.426-2.773c-0.129-1.161-0.967-1.913-2.129-1.913-1.849 0-2.278 1.784-2.278 3.31 0 1.549 0.537 3.183 2.343 3.183 1.118 0 1.784-0.624 1.978-1.722l3.053 0.131c-0.15 2.772-2.623 4.191-4.966 4.191-3.591 0-5.698-2.451-5.698-5.933 0-3.418 1.956-5.849 5.504-5.849 2.73 0 4.687 1.376 5.267 4.451zm14.469-4.279v7.16c0 1.934-0.688 4.236-3.719 4.236-0.946 0-2.537-0.517-3.032-1.398v5.18h-3.139v-15.178h3.139v5.784c0 1.118 0.065 2.923 1.935 2.923 1.613 0 1.656-1.439 1.656-2.472v-6.235zm19.312 7.12c0.687 0.88 0.944 2.042 0.944 3.136 0 0.753-0.15 1.634-0.471 2.323-1.096 2.278-3.135 2.599-5.431 2.599h-5.838v-15.173h3.434v5.244h2.286l3.159-5.244h3.803l-3.483 5.783c0.578 0.277 1.112 0.694 1.597 1.332m-2.468 3.116c0-0.86-0.408-1.59-1.203-1.956-0.514-0.237-1.309-0.237-1.867-0.237-0.601 0-1.223 0.022-1.824 0.022v4.342h1.652c0.988 0 2.104 0.043 2.791-0.818 0.3-0.386 0.451-0.859 0.451-1.353m12.203-6.623c-0.817-1.419-2.365-1.442-2.602-1.442-0.645 0-1.483 0.281-1.483 1.204 0 1.442 2.429 1.462 3.311 1.7 0.279 0.063 0.473 0.15 0.774 0.257zm3.14 2.58c0 0.902 0.043 2.192-0.301 3.032-0.817 1.935-2.903 2.235-4.752 2.235-2.516 0-4.602-1.075-4.752-3.848h2.924c-0.043 1.096 1.075 1.397 1.957 1.397 0.666 0 1.699-0.172 1.699-1.031 0-0.797-1.162-0.84-1.72-0.926-2.409-0.344-5.484-0.623-5.484-3.783 0-2.259 1.72-3.592 3.871-3.592 1.591 0 2.279 0.474 3.505 1.333l0.021-1.011 3.034 1e-3zm12.576-6.193v15.178h-3.204v-4.771c-0.774 0.644-1.655 1.009-2.666 1.009-3.375 0-4.902-2.923-4.902-5.955 0-2.838 1.591-5.741 4.752-5.741 1.139 0 2.3 0.345 2.945 1.356v-1.076zm-3.096 5.504c0-1.462-0.387-3.161-2.172-3.161-1.827 0-2.279 1.741-2.279 3.269 0 1.397 0.538 3.204 2.236 3.204 1.849 0 2.215-1.807 2.215-3.312m8.449 5.633h-3.14v-11.137h3.14zm0 4.041h-3.14v-2.859h3.14zm13.137-9.566c0 3.332-2.15 5.847-5.569 5.847-3.612 0-5.954-2.342-5.954-5.955 0-3.419 2.17-5.827 5.653-5.827 3.462 0 5.87 2.494 5.87 5.935m-3.247 0.129c0-1.657-0.559-3.484-2.515-3.484-1.914 0-2.516 1.764-2.516 3.376 0 1.656 0.645 3.289 2.559 3.289 1.87 0 2.472-1.59 2.472-3.181" fill="#fff"/></g></g></g></g></svg>
