<svg width="800" height="314.44" version="1.1" viewBox="0 0 800 314.44" xmlns="http://www.w3.org/2000/svg">
 <path d="m672.88 243.75h-117.01v-120.11a55.724 55.724 0 1 1 111.04 9.0209 55.74 55.74 0 1 1 7.4384 111.08zm-95.464-21.54h96.794a34.201 34.201 0 1 0-18.627-63.305 10.778 10.778 0 0 1-14.844-14.797 34.122 34.122 0 0 0 3.1653-28.662 33.552 33.552 0 0 0-8.2138-13.342 34.154 34.154 0 0 0-56.627 13.342 34.628 34.628 0 0 0-1.7092 8.9735zm132.02 50.644a89.323 89.323 0 0 0 31.652-22.157 91.096 91.096 0 0 0 19.989-34.138 8.4196 8.4196 0 1 0-15.541-6.473 8.2138 8.2138 0 0 0-0.44314 1.3769 74.51 74.51 0 0 1-16.206 27.855 72.801 72.801 0 0 1-25.797 17.947 8.4052 8.4052 0 1 0 6.3305 15.573zm-168.8-171.65a72.801 72.801 0 0 1 19.799-30.402 74.384 74.384 0 0 1 26.635-15.7 8.4217 8.4217 0 1 0-4.5896-16.206l-0.74384 0.25322a90.969 90.969 0 0 0-32.713 19.276 89.53 89.53 0 0 0-24.325 37.302 8.4354 8.4354 0 0 0 5.2544 10.683 8.4038 8.4038 0 0 0 10.683-5.2068zm-38.458-0.85461c0.80715-3.5293 1.7883-7.0427 2.9278-10.445a109.8 109.8 0 0 1 30.069-46.482 111.05 111.05 0 0 1 51.072-26.667 8.4196 8.4196 0 1 0-3.1652-16.523l-0.44314 0.09496a127.97 127.97 0 0 0-58.794 30.703 126.31 126.31 0 0 0-34.643 53.54 122.44 122.44 0 0 0-3.371 12.044 8.4196 8.4196 0 0 0 6.3305 10.065 8.372 8.372 0 0 0 10.081-6.3305zm199.02 213.9a127.76 127.76 0 0 0 98.613-98.487 8.4214 8.4214 0 1 0-16.476-3.4976 111.12 111.12 0 0 1-27.158 52.416 111.91 111.91 0 0 1-58.462 33.124 8.4196 8.4196 0 0 0 1.7409 16.649 8.0555 8.0555 0 0 0 1.7409-0.20575zm-701.2-169.6h61.96v20.812h-38.426v20.496h35.387v20.48h-35.387v34.264h-23.533zm214.19 0h40.183c19.688 0 31.225 14.56 31.225 30.734 0 17.931-13.453 30.734-31.225 30.734h-16.808v34.58h-23.375zm37.983 41.306c6.0773 0 9.4957-5.6183 9.4957-11.221 0-5.2702-3.1653-10.081-9.4957-10.081h-14.576v21.303zm48.507-41.306h23.438v75.872h41.797v20.178h-65.267zm73.466 0h23.375v60.14c0 12.803 6.0773 17.283 14.244 17.283 8.9735 0 14.576-4.4788 14.576-17.283v-60.14h23.533v63.716c0 22.726-16.966 35.53-38.109 35.53-21.919 0-37.619-13.453-37.619-35.53zm113.51 67.879a10.002 10.002 0 0 0 9.9231 10.081c5.919 0 9.6066-3.371 9.6066-8.3246 0-7.201-9.4957-9.29-17.299-12.012-16.158-5.7608-25.132-13.279-25.132-29.769 0-16.966 14.576-31.067 32.666-31.067 21.287 0 31.368 13.611 32.65 31.383h-22.157c0-5.4442-3.3552-9.9231-9.9231-9.9231-5.1119 0-10.081 3.0387-10.081 9.29 0 7.201 8.7994 8.4829 16.966 10.873 17.139 5.1277 25.132 14.734 25.132 29.785 0 16.966-14.402 31.051-32.491 31.051-20.97 0-32.824-14.086-32.824-31.368zm-408.84-66.423h21.635l24.151 53.018 24.309-53.018h21.318v94.72h-23.091v-40.246l-15.019 40.278h-15.098l-15.019-40.595v40.595h-23.186z" fill="#fff" stop-color="#000000" stroke-width="1.4025" style="-inkscape-stroke:none;font-variation-settings:normal"/>
</svg>
