<svg width="800" height="278.55" version="1.1" viewBox="0 0 800 278.55" xml:space="preserve" xmlns="http://www.w3.org/2000/svg">
<linearGradient id="path2_1_" x1="199.95" x2="321.85" y1="-29.894" y2="125.56" gradientTransform="matrix(1.4025 0 0 -1.4025 0 280.51)" gradientUnits="userSpaceOnUse">
	<stop stop-color="#432C79" offset="0"/>
	<stop stop-color="#432C79" offset=".064298"/>
	<stop stop-color="#C30C2B" offset=".6917"/>
	<stop stop-color="#C30C2B" offset="1"/>
</linearGradient>
<path d="m687.36 216h-103.64v-106.45c1.2622-27.208 24.403-48.246 51.752-46.983 27.208 1.2622 48.246 24.403 46.983 51.752 0 1.122-0.14024 2.244-0.28049 3.2257 7.1527-0.84149 14.446-0.14025 21.318 2.1037 25.946 8.5552 39.971 36.465 31.556 62.27-6.5917 20.056-25.105 33.66-46.142 33.94zm-84.57-19.074h85.832c16.69-0.28049 30.013-14.165 29.733-30.855-0.2805-16.69-14.165-30.013-30.855-29.733-5.4697 0.14025-10.659 1.683-15.287 4.488-4.488 2.805-10.378 1.4025-13.183-3.0855-1.9635-3.0855-1.9635-7.0124 0-9.9577 8.6954-14.305 4.3477-32.958-9.9577-41.654-14.305-8.6954-32.958-4.3477-41.654 9.9577-2.6647 4.3477-4.2075 9.2564-4.488 14.305zm116.97 44.88c10.659-4.3477 20.336-11.08 28.19-19.635 7.9942-8.6954 14.025-19.074 17.671-30.294 1.2622-3.927-0.98174-8.1344-5.049-9.2564-3.927-1.122-7.9942 0.98174-9.2564 4.7685-2.9452 9.1162-7.8539 17.671-14.305 24.684-6.3112 6.8722-14.165 12.342-22.861 15.848-3.7867 1.8232-5.3295 6.1709-3.5062 9.9577 1.5427 3.366 5.4697 5.049 9.1162 3.927zm-149.65-152.17c3.5062-10.378 9.5369-19.635 17.531-26.928 6.8722-6.1709 14.866-10.939 23.562-13.885 3.927-1.122 6.3112-5.1892 5.3294-9.1162-1.122-3.927-5.1892-6.3112-9.1162-5.3295-0.2805 0.14025-0.561 0.14025-0.84149 0.2805-10.799 3.6465-20.617 9.3967-29.031 17.11-9.8174 8.9759-17.251 20.336-21.598 33.099-1.4025 3.927 0.70124 8.1344 4.6282 9.3967 0.8415 0.2805 1.5427 0.42075 2.3842 0.42075 3.2257 0 6.171-1.9635 7.1527-5.049zm-34.08-0.70124c0.70124-3.0855 1.5427-6.3112 2.5245-9.2564 5.1892-15.848 14.446-30.013 26.647-41.233 12.763-11.781 28.33-19.915 45.3-23.702 4.0672-0.70124 6.7319-4.6282 5.8904-8.6954s-4.6282-6.7319-8.6954-5.8904c-0.14025 0-0.2805 0-0.561 0.14025-19.495 4.3477-37.446 13.744-52.173 27.208-14.165 12.903-24.684 29.312-30.574 47.404-1.122 3.5062-2.1037 7.0124-2.9452 10.659-0.98174 4.0672 1.5427 7.9942 5.61 8.9759 0.56099 0.14025 1.122 0.14025 1.683 0.14025 3.5062 0 6.5917-2.3842 7.2929-5.7502zm176.43 189.48c22.861-4.7685 43.758-16.69 59.606-33.8 13.885-15.007 23.422-33.519 27.769-53.435 0.84149-4.0672-1.683-7.9942-5.7502-8.8357s-7.9942 1.683-8.8357 5.7502c-3.6465 17.391-12.061 33.379-24.123 46.422-11.36 12.202-25.666 21.458-41.514 26.507-3.366 1.122-6.8722 2.1037-10.378 2.805-4.0672 0.8415-6.5917 4.9087-5.7502 8.8357 0.70125 3.366 3.7867 5.8904 7.2929 5.8904 0.70124 0 1.122 0 1.683-0.14025zm-196.91-151.47c26.367 0 45.02 19.635 45.02 44.599s-18.653 44.459-45.02 44.459-45.02-19.635-45.02-44.599 18.513-44.459 45.02-44.459m0 69.704c14.726 0 24.263-11.08 24.263-25.245s-9.5369-25.245-24.263-25.245c-14.726 0-24.263 11.22-24.263 25.245s9.3967 25.245 24.263 25.245m-515.55 17.251h20.476v-32.958h32.678v32.958h20.336v-83.588h-20.336v32.958h-32.678v-32.958h-20.476zm88.076 0h20.476v-83.588h-20.476zm105.05-83.308h34.922c17.952 0 29.733 10.939 29.733 26.647 0 14.586-7.4332 22.861-19.775 25.946l22.58 30.995h-25.666l-21.318-31.135v31.135h-20.476zm36.885 36.184c4.6282 0 7.7137-4.7685 7.7137-9.6772s-3.6465-9.1162-8.2747-9.1162h-15.848v18.793zm129.03-36.184h29.172c24.684 0 43.758 18.092 43.758 41.654-0.14025 22.3-17.11 41.934-43.758 41.934h-29.172zm28.751 64.935c13.043 0 23.141-9.1162 23.141-23.281 0-12.903-8.6954-23.141-23.141-23.141h-8.2747v46.422zm52.874 18.653h20.476v-83.588h-20.476zm-125.24-83.588h-15.287l-34.922 83.588h22.019l4.0672-8.6954h32.958l4.2075 8.6954h22.159zm-17.671 56.099 9.9577-28.611 9.6772 28.47zm4.2075-63.813h13.744l9.6772-15.427h-17.11zm-160.73 25.666h-21.458v-18.232h63.673v18.092h-21.739v65.356h-20.617z" fill="url(#path2_1_)" stroke-width="1.4025"/>
</svg>
