<svg enable-background="new 0 0 841.89 595.275" version="1.1" viewBox="0 0 420.84 48.961" xml:space="preserve" xmlns="http://www.w3.org/2000/svg"><g transform="translate(-211.72 -274.28)"><path d="m218.74 299.6c3.867 0 7.015-3.147 7.015-7.013 0-3.871-3.147-7.018-7.015-7.018-3.87 0-7.017 3.146-7.017 7.018 0 3.866 3.147 7.013 7.017 7.013"/><path d="m218.74 322.1c3.867 0 7.015-3.146 7.015-7.013 0-3.869-3.147-7.02-7.015-7.02-3.87 0-7.017 3.15-7.017 7.02 0 3.867 3.147 7.013 7.017 7.013"/><path d="m263.82 306.04 7.145 14.618c0.109 0.219 0.218 0.494 0.218 0.77 0 0.823-0.659 1.593-1.593 1.593-0.824 0-1.209-0.329-1.539-0.935l-7.749-15.772h-13.573v15.059c0 0.935-0.66 1.648-1.648 1.648-0.936 0-1.65-0.714-1.65-1.648v-33.741c0-0.934 0.77-1.65 1.65-1.65h15.77c7.255 0 11.267 4.342 11.267 10.166 1e-3 5-2.912 8.903-8.298 9.892m-2.308-17.091h-14.782v14.398h14.782c4.561 0 7.31-3.022 7.31-7.201 0-4.174-2.749-7.197-7.31-7.197"/><path d="m317.56 320.77c0.111 0.221 0.22 0.494 0.22 0.77 0 0.824-0.603 1.483-1.592 1.483-0.825 0-1.265-0.494-1.485-1.043l-4.506-10.058h-18.905l-4.505 10.058c-0.22 0.549-0.66 1.043-1.484 1.043-0.988 0-1.595-0.659-1.595-1.483 0-0.275 0.111-0.549 0.222-0.77l15.276-34.126c0.33-0.715 0.769-1.098 1.539-1.098 0.769 0 1.209 0.383 1.538 1.098zm-8.626-11.761-8.189-18.848-8.188 18.848zm-6.266-31.874c0.273-0.329 0.769-0.66 1.319-0.66 0.824 0 1.375 0.66 1.375 1.265 0 0.494-0.112 0.714-0.441 1.099l-3.021 3.244c-0.494 0.549-0.825 0.768-1.319 0.768-0.77 0-1.375-0.603-1.375-1.263 0-0.385 0.165-0.714 0.44-1.045z"/><path d="m343.22 322.58h-10.442c-0.989 0-1.648-0.771-1.648-1.65v-33.3c0-0.934 0.715-1.65 1.648-1.65h10.442c11.1 0 18.245 8.078 18.245 18.3s-7.145 18.3-18.245 18.3m-0.22-33.633h-8.572v30.664h8.572c9.562 0 15.167-6.705 15.167-15.332 1e-3 -8.628-5.605-15.332-15.167-15.332"/><path d="m376.57 323.02c-0.934 0-1.649-0.715-1.649-1.65v-34.179c0-0.936 0.715-1.65 1.649-1.65s1.649 0.714 1.649 1.65v34.179c0 0.936-0.716 1.65-1.649 1.65"/><path d="m410.53 323.24c-10.989 0-18.465-8.737-18.465-18.958 0-10.222 7.476-18.96 18.465-18.96 10.991 0 18.356 8.739 18.356 18.96s-7.365 18.958-18.356 18.958m0-35.006c-9.453 0-15.167 7.638-15.167 16.048 0 8.407 5.715 16.046 15.167 16.046s15.058-7.639 15.058-16.046c0-8.409-5.606-16.048-15.058-16.048"/></g><g transform="translate(-211.72 -274.28)" fill="#eee809"><path d="m469.15 322.58h-10.058c-1.868 0-3.406-1.539-3.406-3.408v-29.84c0-1.867 1.538-3.35 3.406-3.35h10.058c11.155 0 18.243 8.076 18.243 18.298s-7.087 18.3-18.243 18.3m-0.331-30.39h-6.431v24.179h6.431c7.584 0 11.871-5 11.871-12.09 0-7.089-4.287-12.089-11.871-12.089"/><path d="m523.6 322.58h-20.606c-1.867 0-3.406-1.485-3.406-3.353v-29.895c0-1.868 1.539-3.351 3.406-3.351h19.784c1.756 0 3.185 1.318 3.185 3.078 0 1.758-1.429 3.132-3.185 3.132h-16.488v8.738h9.067c1.705 0 3.134 1.373 3.134 3.131 0 1.76-1.429 3.08-3.134 3.08h-9.067v9.23h17.311c1.76 0 3.188 1.373 3.188 3.133-2e-3 1.759-1.43 3.077-3.189 3.077"/><path d="m568.55 290-13.573 31.214c-0.495 1.1-1.647 1.813-2.857 1.813-1.265 0-2.361-0.658-2.856-1.813l-13.629-31.214c-0.167-0.385-0.275-0.825-0.275-1.263 0-1.65 1.372-3.189 3.075-3.189 1.21 0 2.419 0.66 2.913 1.814l10.717 25.555 10.825-25.555c0.494-1.098 1.596-1.814 2.804-1.814 1.761 0 3.133 1.429 3.133 3.133-2e-3 0.44-0.111 0.881-0.277 1.319"/><path d="m583.82 323.02c-1.867 0-3.407-1.539-3.407-3.408v-30.664c0-1.868 1.54-3.407 3.407-3.407 1.871 0 3.3 1.539 3.3 3.407v30.664c0 1.869-1.429 3.408-3.3 3.408m5.223-46.162c0 0.55-0.275 1.154-0.605 1.594l-2.471 3.352c-0.495 0.66-1.045 1.044-2.146 1.044-1.262 0-2.638-1.153-2.638-2.527 0-0.659 0.275-1.21 0.662-1.648l2.582-3.353c0.495-0.66 1.098-1.042 2.087-1.042 1.428-1e-3 2.529 0.986 2.529 2.58"/><path d="m629.37 323.02c-1.043 0-1.812-0.385-2.418-1.154l-18.957-23.96v21.981c0 1.758-1.432 3.133-3.188 3.133-1.704 0-3.132-1.43-3.132-3.133v-31.16c0-1.703 1.261-3.187 3.296-3.187 0.878 0 1.815 0.496 2.31 1.154l18.956 23.96v-21.927c0-1.703 1.265-3.187 3.133-3.187 1.87 0 3.188 1.484 3.188 3.187v31.16c0 1.704-1.318 3.133-3.188 3.133"/></g></svg>
