<svg version="1.1" viewBox="0 0 480.88 53.17" xml:space="preserve" xmlns="http://www.w3.org/2000/svg"><g transform="matrix(1.3333 0 0 -1.3333 -247.59 865.93)"><g transform="translate(405.49 625.92)"><path d="m0 0h-5.827v-5.127h5.827c1.877 0 2.718 1.261 2.718 2.522 0 1.232-0.841 2.605-2.718 2.605m-0.477-8.292h-5.35v-5.744c0-0.952-0.757-1.709-1.709-1.709s-1.709 0.757-1.709 1.709v15.465c0 0.952 0.757 1.709 1.709 1.709h7.059c4.651 0 6.64-2.578 6.64-5.743 0-3.166-1.989-5.687-6.64-5.687" fill="#a7a9ac"/></g><g transform="translate(422.13 610.17)"><path d="m0 0c-0.953 0-1.737 0.784-1.737 1.737v6.696l-5.94 8.124c-0.195 0.308-0.307 0.644-0.307 0.952 0 0.841 0.7 1.597 1.541 1.597 0.559 0 0.98-0.252 1.316-0.7l5.099-6.948 5.098 6.948c0.337 0.448 0.757 0.7 1.318 0.7 0.84 0 1.54-0.756 1.54-1.597 0-0.308-0.084-0.644-0.308-0.952l-5.939-8.124v-6.696c0-0.953-0.729-1.737-1.681-1.737" fill="#a7a9ac"/></g><g transform="translate(443.36 625.92)"><path d="m0 0h-5.967v-5.127h5.967c1.877 0 2.718 1.373 2.718 2.633 0 1.233-0.841 2.494-2.718 2.494m6.164-14.036c0-0.868-0.673-1.709-1.709-1.709-0.757 0-1.233 0.336-1.513 0.925l-3.278 6.752h-5.631v-5.968c0-0.952-0.757-1.709-1.709-1.709s-1.709 0.757-1.709 1.709v15.465c0 0.952 0.757 1.709 1.709 1.709h7.2c4.651 0 6.64-2.298 6.64-5.603 0-2.186-0.953-4.063-3.082-4.987l2.886-5.855c0.111-0.224 0.196-0.477 0.196-0.729" fill="#a7a9ac"/></g><g transform="translate(462.22 624.63)"><path d="m0 0-2.914-7.116h5.827zm4.146-10.114h-8.292l-1.597-3.418c-0.309-0.56-0.701-0.924-1.429-0.924-1.009 0-1.625 0.784-1.625 1.597 0 0.224 0.056 0.448 0.168 0.672l7.172 15.941c0.252 0.56 0.728 0.896 1.457 0.896 0.728 0 1.204-0.308 1.456-0.896l7.172-15.941c0.112-0.224 0.168-0.448 0.168-0.672 0-0.813-0.616-1.597-1.624-1.597-0.729 0-1.121 0.336-1.43 0.924z" fill="#a7a9ac"/></g><g transform="translate(492.79 610.17)"><path d="m0 0c-0.896 0-1.597 0.729-1.597 1.597v9.329l-4.762-10.03c-0.281-0.588-0.785-0.896-1.401-0.896-0.673 0-1.093 0.28-1.401 0.896l-4.818 10.03v-9.301c0-0.869-0.729-1.625-1.625-1.625-0.869 0-1.597 0.756-1.597 1.625v15.884c0 0.869 0.672 1.597 1.597 1.597 0.756 0 1.205-0.448 1.512-1.008l6.332-13.14 6.276 13.14c0.28 0.588 0.812 1.008 1.484 1.008 1.009 0 1.625-0.672 1.625-1.625v-15.884c0-0.868-0.672-1.597-1.625-1.597" fill="#a7a9ac"/></g><g transform="translate(504.83 633.71)"><path d="m0 0c0-0.28-0.14-0.588-0.308-0.813l-1.26-1.708c-0.252-0.336-0.533-0.533-1.093-0.533-0.645 0-1.345 0.589-1.345 1.289 0 0.336 0.14 0.617 0.336 0.841l1.317 1.709c0.252 0.336 0.56 0.532 1.065 0.532 0.728 0 1.288-0.504 1.288-1.317m-2.661-23.533c-0.952 0-1.737 0.784-1.737 1.737v15.632c0 0.953 0.785 1.738 1.737 1.738s1.681-0.785 1.681-1.738v-15.632c0-0.953-0.729-1.737-1.681-1.737" fill="#a7a9ac"/></g><g transform="translate(516.57 625.89)"><path d="m0 0h-3.277v-12.327h3.277c3.866 0 6.052 2.55 6.052 6.164s-2.186 6.163-6.052 6.163m0.168-15.492h-5.126c-0.953 0-1.737 0.784-1.737 1.737v15.212c0 0.953 0.784 1.709 1.737 1.709h5.126c5.687 0 9.302-4.118 9.302-9.329s-3.615-9.329-9.302-9.329" fill="#a7a9ac"/></g><g transform="translate(537.56 624.63)"><path d="m0 0-2.914-7.116h5.827zm4.146-10.114h-8.292l-1.597-3.418c-0.309-0.56-0.701-0.924-1.429-0.924-1.009 0-1.625 0.784-1.625 1.597 0 0.224 0.056 0.448 0.168 0.672l7.172 15.941c0.252 0.56 0.728 0.896 1.457 0.896 0.728 0 1.204-0.308 1.456-0.896l7.172-15.941c0.112-0.224 0.168-0.448 0.168-0.672 0-0.813-0.616-1.597-1.624-1.597-0.729 0-1.121 0.336-1.429 0.924z" fill="#a7a9ac"/></g><g transform="translate(191.68 629.73)"><path d="m0 0c3.298 0 5.981 2.681 5.981 5.979 0 3.299-2.683 5.982-5.981 5.982-3.3 0-5.983-2.683-5.983-5.982 0-3.298 2.683-5.979 5.983-5.979"/></g><g transform="translate(191.68 610.54)"><path d="m0 0c3.298 0 5.981 2.681 5.981 5.979 0 3.299-2.683 5.986-5.981 5.986-3.3 0-5.983-2.687-5.983-5.986 0-3.298 2.683-5.979 5.983-5.979"/></g><g transform="translate(230.12 624.23)"><path d="m0 0 6.093-12.464c0.092-0.188 0.185-0.423 0.185-0.655 0-0.703-0.561-1.36-1.358-1.36-0.703 0-1.031 0.283-1.312 0.797l-6.607 13.449h-11.574v-12.841c0-0.796-0.563-1.405-1.405-1.405-0.798 0-1.407 0.609-1.407 1.405v28.772c0 0.797 0.656 1.406 1.407 1.406h13.447c6.187 0 9.608-3.702 9.608-8.669 0-4.263-2.484-7.591-7.077-8.435m-1.968 14.574h-12.605v-12.276h12.605c3.889 0 6.233 2.578 6.233 6.137 0 3.561-2.344 6.139-6.233 6.139"/></g><g transform="translate(275.94 611.67)"><path d="m0 0c0.095-0.185 0.188-0.42 0.188-0.654 0-0.703-0.514-1.266-1.358-1.266-0.703 0-1.079 0.423-1.266 0.893l-3.842 8.573h-16.12l-3.842-8.573c-0.187-0.47-0.563-0.893-1.266-0.893-0.843 0-1.36 0.563-1.36 1.266 0 0.234 0.095 0.469 0.19 0.654l13.026 29.102c0.281 0.608 0.656 0.938 1.312 0.938s1.031-0.33 1.312-0.938zm-7.355 10.029-6.983 16.075-6.982-16.075zm-5.343 27.179c0.233 0.283 0.656 0.563 1.125 0.563 0.703 0 1.172-0.563 1.172-1.079 0-0.42-0.096-0.608-0.376-0.936l-2.577-2.765c-0.421-0.466-0.703-0.655-1.124-0.655-0.656 0-1.172 0.512-1.172 1.076 0 0.33 0.14 0.608 0.375 0.891z"/></g><g transform="translate(297.82 610.13)"><path d="m0 0h-8.904c-0.843 0-1.406 0.656-1.406 1.409v28.394c0 0.796 0.61 1.406 1.406 1.406h8.904c9.465 0 15.558-6.89 15.558-15.604 0-8.715-6.093-15.605-15.558-15.605m-0.187 28.679h-7.311v-26.147h7.311c8.153 0 12.933 5.715 12.933 13.073 0 7.357-4.78 13.074-12.933 13.074"/></g><g transform="translate(326.26 609.75)"><path d="m0 0c-0.797 0-1.407 0.609-1.407 1.406v29.147c0 0.797 0.61 1.407 1.407 1.407 0.796 0 1.406-0.61 1.406-1.407v-29.147c0-0.797-0.61-1.406-1.406-1.406"/></g><g transform="translate(355.22 609.57)"><path d="m0 0c-9.371 0-15.745 7.451-15.745 16.167 0 8.717 6.374 16.166 15.745 16.166 9.372 0 15.652-7.449 15.652-16.166 0-8.716-6.28-16.167-15.652-16.167m0 29.85c-8.06 0-12.933-6.514-12.933-13.683s4.873-13.684 12.933-13.684c8.061 0 12.841 6.515 12.841 13.684s-4.78 13.683-12.841 13.683"/></g></g></svg>
