<svg width="573.9pt" height="574.37pt" version="1.1" viewBox="0 0 573.9 574.37" xmlns="http://www.w3.org/2000/svg">
 <g transform="translate(-58.12,-58.86)">
  <path d="m565.92 58.86 0.1 269.37-27.58 8.13-0.16-168.85-15.55 16.59-7.68-50.06z"/>
  <path d="m417.57 61.84c5.2-1.11 10.83-0.6 15.48 2.1 8.68 4.82 14.37 13.41 18.95 21.95 11.48 22.82 16.4 48.29 18.76 73.54 1.86 21.12 2.16 42.36 1.08 63.53-1.25 24.4-4.51 48.92-12.46 72.11-3.87 10.92-8.57 21.75-15.69 30.98-4.98 6.04-11.5 11.83-19.69 12.36-9.03 0.59-16.99-5.32-22.3-12.11-10.43-13.34-16.33-29.59-20.36-45.87-6.43-25.28-8.63-51.44-8.95-77.46-0.2-29.73 2.15-59.71 9.88-88.53 3.76-14.18 9.07-28.28 18.11-40 4.32-5.74 10.11-10.75 17.19-12.6m1.79 78.6c-7.08 3.33-9.8 11.51-11.93 18.47-3.61 13.05-4.32 26.67-4.45 40.14 0.19 14.4 0.94 29.01 5.14 42.88 1.88 5.55 4.2 11.46 9.06 15.07 3.29 2.54 8.25 2.46 11.41-0.27 4.47-3.71 6.69-9.33 8.41-14.71 4.31-14.6 4.89-29.95 5-45.06-0.44-15.99-1.09-32.6-7.69-47.44-2.53-5.5-8.28-11.93-14.95-9.08z"/>
  <path d="m332.5 71.42c10.02-2 20.11-3.61 30.09-5.81 0.12 87.51 0.08 175.02 0.02 262.52-9.92 2.73-20.1 4.54-30.08 7.1 0.02-87.94 0.1-175.87-0.03-263.81z"/>
  <path d="m61.79 68c12.43-0.01 24.86 0.01 37.3-0.01 6.6-0.05 13.17 2.45 17.96 7.01 5.56 5.32 9.02 12.43 11.54 19.61 3.8 11.41 5.42 23.45 6.09 35.43 1.02 13.65 0.51 27.38-0.74 41-1.56 14.89-4.62 30.13-12.93 42.83 4.98 34.48 10.55 68.89 15.62 103.36 0.38-1.71 0.71-3.43 0.9-5.17 10.04-81.36 20.38-162.69 30.39-244.05 12.1-0.03 24.2-0.01 36.29-0.01 10.47 86.38 20.74 172.78 31.22 259.15-10.91 2.95-21.75 6.16-32.66 9.13-1.69-15.95-3.15-31.94-4.92-47.88-8.26 0.07-16.51 0.06-24.77 0-1.87 16.34-3.3 32.73-4.94 49.09-10.67-3.11-21.44-5.89-32.07-9.15-0.24-0.31-0.74-0.94-0.99-1.25-9.51 3.35-18.92 6.98-28.41 10.41l-14.18-112.7-0.6 105.91c-10.06 2.14-20.08 4.54-30.12 6.8 0.02-89.83-0.01-179.67 0.02-269.51m30.26 71.47c-0.1 20.9-0.03 41.8-0.04 62.71 3.13-0.25 6.17-1.73 7.74-4.55 4.53-7.31 4.89-16.27 5.24-24.62 0.02-9.26-0.07-19.04-4.34-27.49-1.6-3.42-4.93-5.53-8.6-6.05m86.25 83.18 13.68-0.03-6.53-76.75-7.15 76.78m-41.75 97.23c-0.18 2.15-0.35 4.31-0.58 6.46 0.47-0.1 1.41-0.31 1.87-0.42-0.27-2.05-0.63-4.08-1.29-6.04z"/>
  <path d="m240.3 68.05c11.92-0.11 23.85-0.04 35.78-0.05 8.75 0.06 16.25 5.82 21.27 12.58 8.38 11.79 13.41 25.58 17 39.5 5.08 20.26 7.46 41.13 8.23 61.98 1 21.66 0.11 43.42-2.46 64.96-2.6 19.8-6.52 39.74-15.08 57.92-4.06 8.17-8.74 16.57-16.53 21.76-3.67 2.44-8 3.96-12.43 3.94-11.92 0.06-23.85-0.03-35.77 0.04 0.06-87.54 0.08-175.09-0.01-262.63m30.69 77.24c0.03 35.95-0.01 71.9 0.02 107.85 5.3 0.08 9.93-3.29 12.59-7.68 5.08-8.19 6.58-17.93 7.78-27.32 0.8-8.97 1.28-17.99 0.83-26.99-0.75-12.46-1.56-25.54-7.62-36.74-2.63-5.11-7.66-9.1-13.6-9.12z"/>
  <path d="m599.34 83.5c10.89-3.8 21.79-7.61 32.65-11.51 0.01 3.55 0.06 7.11-0.09 10.66-1.42 0.35-2.82 0.7-4.22 1.06-0.03 3.46-0.06 6.93 0.03 10.39 1.43 0.32 2.85 0.66 4.29 1 0 3.59 0.02 7.18-0.08 10.77-10.84-3.83-21.65-7.72-32.53-11.41-0.07-3.65-0.05-7.31-0.05-10.96m10.68 5.38c3.54 1.17 7.16 2.09 10.75 3.08 0.01-2.03 0-4.07 0.02-6.1-3.62 0.92-7.17 2.04-10.77 3.02z"/>
  <path d="m599.32 200.28c10.87 0.12 21.75 0.08 32.63 0.02 0.07 3.45 0.05 6.9 0.05 10.35-4.19-0.01-8.37 0.04-12.56 0 0 3.23-0.01 6.47 0.03 9.72 4.16-0.05 8.32 0.01 12.48-0.06 0.07 3.56 0.05 7.13 0.05 10.69-10.9-0.04-21.8 0.09-32.69-0.07 0.05-3.54 0.04-7.09 0-10.63 3.67 0.07 7.35 0.05 11.03 0.03-0.01-3.23-0.02-6.45 0-9.67-3.68-0.01-7.36 0-11.03-0.01 0.04-3.46 0.05-6.91 0.01-10.37z"/>
  <path d="m599.27 336.94c10.85-3.892 21.823-7.7008 32.72-11.472 0.01 3.55 0.01 7.11 0 10.67-1.44 0.37-2.89 0.76-4.32 1.14-0.03 3.4-0.02 6.79-0.04 10.19 1.45 0.45 2.92 0.89 4.39 1.35-0.03 3.55-0.03 7.09-0.03 10.64-10.88-3.96-21.81-7.77-32.68-11.73m10.68-5.36c3.58 1.08 7.19 2.08 10.77 3.18 0.01-2.09 0.01-4.19-0.03-6.27-3.56 1.1-7.19 1.97-10.74 3.09z"/>
  <path d="m616.78 457.16c2.27-6.71 10.48-2.84 15.22-5.73-0.02 3.72 0.05 7.44-0.09 11.16-3.31 0.69-6.96-0.24-10.07 1.19-1.65 2.32-1.11 5.3-1.21 7.97 3.79 0.04 7.58 0.03 11.37 0.03v10.44c-10.87 0.04-21.74-0.09-32.61 0.06-0.06-6.1-0.1-12.2-0.01-18.3 0.23-3.26 0.6-7.02 3.22-9.32 4.42-3.12 11.23-2.27 14.18 2.5m-9.36 14.61h5.93s0.0116-3.3938 0.0174-5.0907c7e-3 -2.1431-0.83805-4.6967-3.4474-4.4193-2.1727 0.23097-2.5863 2.5767-2.5633 4.4239l0.0633 5.0861z"/>
  <path d="m604.46 579.38c5.02-2.88 12.68-2.05 15.85 3.19 2.37 4.26 1.83 9.31 1.93 14 3.25-0.02 6.5-0.01 9.76-0.01v10.66c-10.86 0.03-21.72-0.06-32.58 0.04-0.11-5.75-0.14-11.51-0.01-17.25 0.05-4.01 1.36-8.5 5.05-10.63m2.9351 12.807 0.0149 4.3829c2.19-0.02 4.38-0.01 6.58 0.02-0.0267-1.4645 1.6e-4 -2.9424-0.10766-4.4038-0.0157-2.1788-1.0412-4.0307-3.2061-4.0296-2.4551-0.0527-3.1872 2.0716-3.2811 4.0306z"/>
 </g>
 <path d="m0 294.01c170.27 0.04 340.54-0.0203 510.82 0.0197l-0.1 271.59c-10.32 2.74-20.16 7.47-30.85 8.68-5.07 0.6-9.29-2.66-13.31-5.22-4.67-3.09-9.29-6.28-13.8-9.6-4.53-3.15-5.15-10.28-10.85-11.99-4.46-1.94-8.83 0.87-12.4 3.3-3.02 2.33-6.99 1.97-10.56 1.87-14.46-0.95-28.87-4.81-41.43-12.15-3.95-1.84-4.1-7.72-8.69-8.62-10.07-2.61-20.51-3.91-30.92-3.41-5.24 0.27-10.64-0.44-15.74 1.12-5.52 2.87-8.29 9.5-14.34 11.54-5.95 1.12-12.04-0.01-18-0.43-4.67-0.3-7.71 4.02-11.94 5.02-6.83 0.25-11.15-7.12-17.96-7.15-3.44-0.45-7.78 0.86-10.25-2.3-2.84-3.45-5.15-7.56-9.21-9.76-7.54-4.24-16.49-3-24.68-2.02-7.66 0.1-15.85 1.37-22.98-2.16-3.38-5.49-10.52-4.23-15.97-5.26-5.82-1.29-8.52-7.31-10.98-12.12-3.48-6.99-6.35-15.49-13.83-19.18-6.14-2.8-12.27 1.11-18.11 2.71-5.11 1.16-8.36-3.95-12.9-5.03-8.65-1.26-17.14 1.82-25.79 1-5.79 5.73-10.98 13.29-19.48 15.03-4.24 1-7.22-2.53-9.71-5.32-2.22-2.67-5.77-3.32-8.91-4.33-4.32-1.2-8.65-2.72-13.2-2.61-6.03-0.28-11.87 2-17.92 1.31-9.35-0.4-17.13-6.25-25.98-8.48v-186.03" fill="#ce000c"/>
 <path d="m94.788 305.38c-5.3974 0.0276-10.789 0.9885-15.838 2.896-13.66 4.9636-24.509 16.054-30.772 29.019-0.86529 1.7923-1.6235 3.19-2.811 5.9443-4.9146 11.585-6.8378 24.494-4.4868 36.927 1.92 9.61 7.0195 19.069 15.5 24.379 7.7 4.92 17.991 5.9594 26.271 1.8794-8.67 11.72-17.47 23.4-27.48 34.04-3.42 3.31-7.8689 5.8308-9.8789 10.361 0.82 1.74 1.6592 3.6201 3.4292 4.6201 7.94 5.17 17.96 6.4701 27.18 4.8501 7.39-1.35 13.04-6.81 17.82-12.23 13.73-16.05 25.24-34.111 33.48-53.581 7.39-18.3 11.819-38.77 7.1894-58.32-2.48-10.96-9.2892-21.17-19.469-26.3-6.2438-3.015-13.193-4.5209-20.133-4.4854zm102.23 0.8833c-2.7333 0.0411-5.3873 0.5165-7.1748 2.8228-6.11 7.5-11.84 15.309-18.24 22.569-3.06 3.95-7.0401 7.1607-9.5801 11.511-1.26 2.06-1.2991 5.4904 1.1309 6.7104 4.03 2.02 8.0793 3.9897 12.029 6.1597-6.51 25.33-12.86 50.7-18.69 76.2-1.06 4.23-1.5 8.5706-2.02 12.891-0.42 3.77 2.2896 7.2694 5.8096 8.3994 6.27 2.16 13.051 1.9194 19.581 2.3394 3.35 0.48 6.8502-1.2887 8.2602-4.3887 2.8-5.73 3.8594-12.08 5.3394-18.23 3.77-16.65 7.4306-33.331 11.391-49.931 5.64-21.68 11.019-43.441 16.479-65.161 0.3-2.54-0.81975-5.079-2.7598-6.709-4.47-4.12-10.84-5.1903-16.72-5.0903-1.5262 0.015-3.1955-0.11695-4.8354-0.0923zm-104.92 29.673c1.7519 0.0435 3.481 0.49998 5.0186 1.4487 3.85 2.44 5.61 7.0499 6 11.42 0.46 9.69-0.60909 19.7-4.8091 28.55-1.69 3.82-3.9911 7.3103-6.1611 10.86 0.48-4.4-0.0897-9.7401-3.9097-12.58-1.6775-1.3834-3.8033-1.3698-5.8608-1.4971-1.1692 0.0623-2.0224-0.38841-2.9092-0.95215-4.2014-2.919-6.1275-8.4436-5.8096-13.44 0.72-7.87 3.8905-16 10.291-20.95 2.25-1.8562 5.2305-2.9318 8.1504-2.8594zm385.8 80.889c-5.05-0.07-7.45 4.961-9.52 8.751-4.92 9.88-9.3807 19.979-13.991 30.009-1.11 2.3-1.9494 4.8-3.6694 6.75-0.52-6.09 0.88976-12.1 0.73975-18.18-0.01-6.65 0.63988-13.32 0.10987-19.95-0.24-2.94-3.5098-3.7995-5.7598-4.7695-4.52-1.99-9.5904-2.6507-14.44-1.7607-3.37 1.92-4.2593 5.981-5.5693 9.331-6.39 18.49-12.431 37.11-17.561 56-0.42 2.41-1.9592 5.5403 0.3208 7.5102 4.08 2.68 9.2105 3.1804 13.98 3.1304 1.72-1.26 2.009-3.5409 2.729-5.4009 4.55-14.94 7.0604-30.439 12.19-45.209-1.05 12.65-1.7501 25.33-2.1401 38.02 0.14001 3-0.81013 6.59 1.6099 8.9399 3.56 2.82 8.4097 4.6206 12.91 3.0806 3.06-0.78 4.4402-3.8812 5.7202-6.4512 6.83-14.45 14.301-28.659 19.931-43.629-0.75 15.18-5.0505 29.979-6.0205 45.149 0.16001 1.45 0.71062 2.8202 1.1206 4.2202 4.44 1.53 9.4496 1.7901 13.89 0.12011 3.99-2.32 2.6395-7.5301 3.2095-11.31 2.65-17.22 3.1899-34.661 5.6499-51.901 0.21999-3.22 0.76104-7.11-1.919-9.52-1.6961-1.2634-3.6091-1.8311-5.6101-2.0529zm-65.243 1.7212c-0.25077-8e-3 -0.50357-5e-3 -0.75732 9e-3 -11.16 0.12-22.33-0.2092-33.47 0.3208-4.72 0.91999-5.2196 6.4493-6.3896 10.239-0.24 2.43-1.9697 5.7304 0.0703 7.6904 2 0.20001 4.0196 0.0596 6.0396 0.0395-0.87 3.87-1.6794 7.7703-2.9194 11.55-3.79-0.22-6.8112 3.0804-6.9712 6.7104l-1.749 9.8789c0.43999 1.86 2.6193 1.7399 4.0693 2.1299-0.94001 5.79-2.6091 11.411-4.1191 17.061-0.60999 2.64-0.93077 6.089 1.4692 7.979 4.21 2.16 9.1199 1.3603 13.67 1.5703 1.1-1.18 2.3805-2.3402 2.7305-3.9902 2.02-7.7 4.2998-15.35 5.7598-23.18 5.81 0.24999 11.64-0.16937 17.41-0.83936 3.94-1.98 2.7005-6.9902 3.4805-10.51 0.58001-2.59 1.7095-6.8708-2.0405-7.5308-4.67-0.31-9.3503-0.0691-14.03-0.0791 0.64-3.61 1.4407-7.1807 2.4507-10.701 4.52-0.04 9.0606 0.17014 13.581-0.10986 1.61 0.22 2.8491-0.98992 3.3091-2.4199 1.81-4.73 4.04-9.4894 3.52-14.689-1.6712-0.53374-3.3568-1.0761-5.1123-1.1294zm-185.09 18.618c-3.3681 9e-3 -6.6876 1.0402-9.2417 3.2505-6.87 5.21-9.2201 16.94-2.3701 23.09-1.848 6.7442-4.6204 13.31-5.684 20.244-0.11554 0.85593-0.21985 1.62-0.31736 2.375-0.15559 0.99742 0.40802 1.1422 1.2809 1.5366 1.9971 0.88934 4.18 1.6895 6.1106 0.17432 5.77-3.88 10.37-9.3094 14.78-14.629 5.7-7.38 11.84-16.18 10.27-26.02-1.7916-6.3328-8.3985-10.039-14.829-10.021z" fill="#fff"/>
 <path d="m329.71 305.4c-5.3974 0.0276-10.789 0.9885-15.838 2.896-13.66 4.9636-24.509 16.054-30.772 29.019-0.86529 1.7923-1.6235 3.19-2.811 5.9443-4.9146 11.585-6.8378 24.494-4.4868 36.927 1.92 9.61 7.0195 19.069 15.5 24.379 7.7 4.92 17.991 5.9594 26.271 1.8794-8.67 11.72-17.47 23.4-27.48 34.04-3.42 3.31-7.8689 5.8308-9.8789 10.361 0.82 1.74 1.6592 3.6201 3.4292 4.6201 7.94 5.17 17.96 6.4701 27.18 4.8501 7.39-1.35 13.04-6.81 17.82-12.23 13.73-16.05 25.24-34.111 33.48-53.581 7.39-18.3 11.819-38.77 7.1894-58.32-2.48-10.96-9.2892-21.17-19.469-26.3-6.2438-3.015-13.193-4.5209-20.133-4.4854zm-2.688 30.557c1.7519 0.0435 3.481 0.49998 5.0186 1.4487 3.85 2.44 5.61 7.0499 6 11.42 0.46 9.69-0.60909 19.7-4.8091 28.55-1.69 3.82-3.9911 7.3103-6.1611 10.86 0.48-4.4-0.0897-9.7401-3.9097-12.58-1.6775-1.3834-3.8033-1.3698-5.8608-1.4971-1.1692 0.0623-2.0224-0.38841-2.9092-0.95215-4.2014-2.919-6.1275-8.4436-5.8096-13.44 0.72-7.87 3.8905-16 10.291-20.95 2.25-1.8562 5.2305-2.9318 8.1504-2.8594z" fill="#fff"/>
</svg>
