<svg version="1.1" viewBox="0 0 14.208 9.4227" xml:space="preserve" xmlns="http://www.w3.org/2000/svg"><style type="text/css">
	.st0{fill-rule:evenodd;clip-rule:evenodd;}
	.st1{fill:none;stroke:#FFFFFF;stroke-width:0.0766;stroke-linecap:round;stroke-linejoin:round;stroke-miterlimit:2.6131;}
	.st2{fill:none;stroke:#FFFFFF;stroke-width:0.0704;stroke-linecap:round;stroke-linejoin:round;stroke-miterlimit:2.6131;}
	.st3{fill:none;stroke:#FFFFFF;stroke-width:0.0725;stroke-linecap:round;stroke-linejoin:round;stroke-miterlimit:2.6131;}
	.st4{fill:none;stroke:#FFFFFF;stroke-width:0.0542;stroke-linecap:round;stroke-linejoin:round;stroke-miterlimit:2.6131;}
	.st5{fill:none;stroke:#FFFFFF;stroke-width:0.0763;stroke-linecap:round;stroke-linejoin:round;stroke-miterlimit:2.6131;}
</style><path class="st1" d="m1.0894 4.9668c0-0.66 0.3-4.77 0.3-2.9 0 3.08 0.18 0.79 0.18-1.09 0-1.27-1.27 5.74-0.42 1.51 0.48-2.54 0.42-1.93 0 0.42-0.66 3.45 0 0.36 0-1.27 0-2.54-0.48 2.78-0.36 1.99l0.3-2.66c0.24-1.93 0 4.35 0 3.08 0-1.75-0.48-3.63 1.15-2.84 1.15 0.54-2.48 2.9-0.12 1.33 1.09-0.73 0.73-1.75-0.6-1.75-0.3 0 0.85 0.06 0.97 0.3 0.36 0.79 0.3 1.33-0.6 1.69-0.49 0.2-3.27-0.1-0.92-0.1 0.6 0 1.63-0.97 1.09-1.51-1.93-1.94 0.36 0.06 0.36 0.96 0 0.3-1.87 0.6-1.63 0.73l1.21 0.54c1.69 0.79 0.91 0.85-0.36-0.42l1.39 1.39" fill="none" stroke="#ee0017" stroke-linecap="round" stroke-linejoin="round" stroke-miterlimit="2.6131" stroke-width=".0766"/><path class="st1" d="m4.4894 1.0968c-1.39-0.18-2 2.66-0.79 3.26 1.51 0.73 2.36-1.81 1.87-2.78-1.57-3.14-3.68 3.57-0.66 2.06 0.66-0.3 1.15-2.36 0.24-2.78-2.24-1.09-2.36 2.78-1.09 2.78 0.54 0 0.66 0.3 1.33-0.12 0.97-0.67 0.48-2.6-0.6-2.6-2.48 0-1.51 4.17 0.6 2.78 2.36-1.57-1.39-3.87-1.39-2.18" fill="none" stroke="#ee0017" stroke-linecap="round" stroke-linejoin="round" stroke-miterlimit="2.6131" stroke-width=".0766"/><path class="st1" d="m5.6394 1.7368c-1.51-1.87-2.72 2.12-1.15 2.6 1.27 0.42 2.36-1.93 1.63-2.66-0.9-0.91-2.23-0.42-2.66 0.91-0.79 2.48 3.69 1.87 2.48-0.6-0.97-1.94-2.84-0.07-2.84 1.26 0 0.85 1.51 1.15 2.05 1.15 1.93 0 0.42-5.62-1.45-3.08-0.54 0.72-0.12 3.69 1.21 2.84 0.18-0.12 1.69-2.78 0.66-2.78" fill="none" stroke="#ee0017" stroke-linecap="round" stroke-linejoin="round" stroke-miterlimit="2.6131" stroke-width=".0766"/><path class="st1" d="m9.0194 1.8968c-0.84-1.75-2.17-0.42-1.81 1.09 0.18 0.73 0.12 1.21 0.97 1.21 0.42 0 0.54-0.66 0.54-0.42 0 1.21-2.18 0.18-2.18-1.09 0-0.73 1.27-1.87 1.69-1.03 0.67 1.39-0.41-1.51-0.96 0.18-0.12 0.48-0.54 1.87 0 2.12 0.85 0.42 1.09-0.07 1.21-0.73 0-0.24 0.36 1.57-0.6 0.97-0.97-0.67-1.76-2.48-0.37-3.39 1.03-0.66 1.09 1.81 1.09 0.97 0-1.15-1.27-0.18-1.45 0.18-1.93 3.26 2.36 1.57 1.81 1.57" fill="none" stroke="#ee0017" stroke-linecap="round" stroke-linejoin="round" stroke-miterlimit="2.6131" stroke-width=".0766"/><path class="st1" d="m8.8794 1.7168c0-2.12-3.44 2.36-0.3 2.36 0.18 0-1.21-0.18-1.21-2.48 0-0.6 3.08-0.79 0.91-0.79-1.21 0-0.97 1.69-0.97 2.6 0 0.85 1.75 1.09 1.99 0.3 0.6-1.93-2.06 2.18-2.06-1.51 0-1.87 0.66-0.67-0.24 0.24s0.85 1.75 1.4 1.93c0.3 0.06 2.18-2.42 0.18-0.85-1.09 0.85-1.63-1.74-1.15-2.23 0.12-0.12 0.97-0.42 1.39-0.24 0.18 0.06 0.12 1.15 0.12 1.03" fill="none" stroke="#ee0017" stroke-linecap="round" stroke-linejoin="round" stroke-miterlimit="2.6131" stroke-width=".0766"/><path class="st1" d="m9.7794 3.8168 0.06-3.08c0.79 2.48 0.79-3.02 0.42 0.54l-0.36 2.96v-0.6l0.3-2.66" fill="none" stroke="#ee0017" stroke-linecap="round" stroke-linejoin="round" stroke-miterlimit="2.6131" stroke-width=".0766"/><path class="st1" d="m13.269 0.7968-2.6 1.27c-2.24 1.09-4.83 1.87-1.09 0.06l0.24-0.12c1.09-0.48 4.83-0.97 1.99-0.06-0.12 0 1.21-1.75 0.54-0.66-1.21 1.93-2.42 0.3 0.79 1.87 2.06 1.03-3.38-1.27-1.87-0.79 0.73 0.24 2.42 1.57 2.9 1.57" fill="none" stroke="#ee0017" stroke-linecap="round" stroke-linejoin="round" stroke-miterlimit="2.6131" stroke-width=".0766"/><path class="st1" d="m10.759 0.5568-0.42 3.02c0 0.42 0.54-2.3 0.18-2.66-0.18-0.18-0.3 6.16-0.3 1.09 0-0.79 0.24-1.69 0.24-0.24 0 2.48-0.85 2.6 0 0.85 0.3-0.6 2.18-0.66 2.72-1.75 0.24-0.54-1.63 0.36-1.93 0.6-1.15 0.85 0.97 0.48 1.51 0.24 1.09-0.54-2.48 0.48-1.21 0.85 3.14 0.85 1.87 2.9 0.67 0.48-0.42-0.85-2.6-0.79-0.06 0.18 0.18 0.06 0.36 0.36 0.54 0.48 2.12 1.39-3.14-1.15-1.27-1.75 1.45-0.48 1.81-0.42 0.12-0.12-1.87 0.36 0.73 0.42 1.33-0.18 0.24-0.24-1.57 0.3-1.87 0.6-0.06 0.06-0.36-0.85-0.36-1.09 0-1.33-0.6 0.54-0.6 1.15l0.06 1.51c0 0.18 0.12 0.54 0.12 0.48" fill="none" stroke="#ee0017" stroke-linecap="round" stroke-linejoin="round" stroke-miterlimit="2.6131" stroke-width=".0766"/><path class="st1" d="m1.2094 2.7568c0.4 0.16 0.65 0.5 0.93 0.78 0.87 0.87 0.43 0.56-0.31-0.06-1.89-1.56 1.65 1.76 0.75 0.86-0.34-0.34-1.86-2.05-0.81-0.99 0.53 0.53 2.39 1.8 0.9 0.68-0.22-0.15-1.4-1.33-0.87-0.53 0.13 0.19 0.75 1.12 1 1.12" fill="none" stroke="#ee0017" stroke-linecap="round" stroke-linejoin="round" stroke-miterlimit="2.6131" stroke-width=".0766"/><line class="st1" x1="1.0294" x2="1.1194" y1="5.5468" y2="1.8568" fill="none" stroke="#ee0017" stroke-linecap="round" stroke-linejoin="round" stroke-miterlimit="2.6131" stroke-width=".0766"/><line class="st1" x1="7.3194" x2="12.299" y1="3.3868" y2="1.5668" fill="none" stroke="#ee0017" stroke-linecap="round" stroke-linejoin="round" stroke-miterlimit="2.6131" stroke-width=".0766"/><path class="st1" d="m7.4694 1.5068c0.53-0.84 1.03 0 1.29 0.4 0.32 0.47-0.05-0.47-0.37-0.63-0.44-0.22-0.81 0.05-0.78 0.05 0.5 0 1.24 0.98 1.24 0.34 0-0.34-0.69-1.03-0.98-0.61-0.47 0.71-1.11 2.4 0.34 2.4 1.24 0 0.4 0.9-0.63 0.4" fill="none" stroke="#ee0017" stroke-linecap="round" stroke-linejoin="round" stroke-miterlimit="2.6131" stroke-width=".0766"/><path class="st1" d="m1.0694 0.8068c0.73 0 1.6 0.02 1.43 0.87-0.13 0.68-1.22 0.62-1.41 1-0.13 0.26 0.75-0.27 0.86-0.47 0.15-0.26 0.41-1.28-0.17-1.28-2.62 0 1.47-0.47 0.66 0.96-0.17 0.3-1.02 0.98-0.77 1.34 0.08 0.14 1.71 1.29 0.92 1.1-0.37-0.09-1.37-0.94-1.52-1.26" fill="none" stroke="#ee0017" stroke-linecap="round" stroke-linejoin="round" stroke-miterlimit="2.6131" stroke-width=".0766"/><path class="st1" d="m5.3994 4.9968c-1.35-0.67-1.72 1.34-1.04 1.77 1.16 0.79 2.2-0.55 1.28-1.47-0.73-0.73-1.77-0.18-1.77 0.92 0 0.86 2.08 1.16 2.08-0.06 0-1.28-1.59-2.02-2.02-0.61-1.28 3.85 4.83-0.79 0.98-0.79-2.99 0 1.22 4.77 1.22 1.22 0-2.14-3.73-0.43-1.65 0.98 0.86 0.55 1.89-0.06 1.89-1.04 0-1.47-2.32-1.41-2.32 0.43 0 1.1 2.44 1.65 2.44 0 0-3.48-4.03-0.49-2.32 0.61 2.14 1.4 3.55-1.96 0.98-1.96-1.65 0-0.73 2.14 0.92 2.14 0.73 0 0.31-2.14-0.79-2.14-2.14 0-0.61 2.38 1.1 1.83 0.98-0.31-0.49-1.59-1.22-1.53-0.18 0-0.79 0.18-0.79 0.31v0.49" fill="none" stroke="#ffd000" stroke-linecap="round" stroke-linejoin="round" stroke-miterlimit="2.6131" stroke-width=".0766"/><path class="st1" d="m7.0194 7.1668 0.3-2.33c0.24-1.65-0.12 2.14-0.12 0.37 0-1.96 0.12 4.09 0.12 1.65v-0.98 0.37c0-3.18 2.57 2.2 1.96 0.24-0.12-0.43-0.12-2.32-0.12-1.71s0.06 2.26 0.06 0.73c0-1.77 0.18 2.08 0 0.12-0.18-2.08 0.06 1.59 0.06 0.43 0-2.57 0.86-0.43 0.37 0.61 0 0.06-0.06 0.12-0.06-0.49 0-0.18-0.06-1.47 0-0.73 0.18 1.83 0-1.71 0-0.31v0.73c0 2.02-0.98-0.37-1.53-0.92-0.74-0.72 0.18 0.93 0.48 1.24 1.04 1.04-2.93-2.02 0.12-0.24 2.87 1.65-0.79-0.73-0.79-0.12 0 1.1-0.49 0.37-0.67-0.37-0.06-0.25-0.31 1.77 0.37-0.31 0.12-0.37 1.65 1.95 2.08 1.1" fill="none" stroke="#ffd000" stroke-linecap="round" stroke-linejoin="round" stroke-miterlimit="2.6131" stroke-width=".0766"/><path class="st1" d="m10.529 4.8068c0 1.83 3.79 2.32 1.83 2.32h-1.47c-0.49 0-0.49-1.1-0.18-1.22 2.38-1.16-0.18 1.53-0.18-0.92 0-0.37 2.75-0.06 0.92-0.06-0.92 0-0.79 0.06-0.61 0.98 0.31 1.77-0.12-1.41-0.12-0.92l0.06 0.98c0.12 1.65-0.24 0-0.18-0.79s1.34-0.55 1.34-0.55c-4.22 0 5.13 0.24 0 0.24-0.18 0 0.73-0.06 0.12 0 2.08 0-0.37-0.18-0.92-0.18-0.37 0-0.61 0.86-0.61 1.22 0 0.24-0.37 0.06 1.34 0.06h0.43c0.92 0-1.83-0.06-1.53 0.98 0.06 0.31 0.49 0.37 0.79 0.37 2.32 0-1.41-0.18 1.59-0.18 0.55 0-7.21-0.18-1.83-0.18h1.83" fill="none" stroke="#ffd000" stroke-linecap="round" stroke-linejoin="round" stroke-miterlimit="2.6131" stroke-width=".0766"/><path class="st1" d="m0.74943 4.8368c3.36 0 3.06 0.49 0.98 1.71-1.71 1.04 2.81 0.31 1.34 0.37l-2.32 0.12c-0.12 0 4.58-2.08 1.89-2.08-3.48 0 0.18-0.12-1.16-0.12-0.49 0-1.1 0.18-0.18 0.18 2.2 0 2.08-0.31 1.04 1.28-0.43 0.62-1.16 0.31-1.59 0.74 0 0-0.49 0.06 0.24 0.06l1.83-0.06c-3.73 0 0.61-0.67 0.61-1.96" fill="none" stroke="#ffd000" stroke-linecap="round" stroke-linejoin="round" stroke-miterlimit="2.6131" stroke-width=".0766"/><path class="st2" d="m0.84943 5.0068c1.66 0 3.04 0.19 0.63 0.19-0.85 0-0.97 0.03 0.19 0.03 0.63 0 2.32-0.44 1.04 0.35l-1.89 1.09c-0.75 0.47 1.38 0.25 1.79 0.19 1.07-0.16-3.04 0.41-1.29-0.35 0.47-0.18 0.88-0.34 1.26-0.69 0.13-0.09 0.53-0.38 0.56-0.47 0-0.06 0.28-0.41 0.28-0.38" fill="none" stroke="#ffd000" stroke-linecap="round" stroke-linejoin="round" stroke-miterlimit="2.6131" stroke-width=".0704"/><path class="st2" d="m7.1994 7.2868 0.07-2.38c0.02-0.59 0.48-0.2 0.68 0.21 0.23 0.46 0.75 0.76 1.1 1.17 0.59 0.68 0.23-0.96 0.27-1.4 0.11-1.4 0.28 1.64 0.36 2.22 0.04 0.3-0.73-0.82-0.94-1.03-0.2-0.2-1.4-0.84-1.4-0.75-0.05 0.39 0.3 1.78 0 2.08-0.24 0.23-0.4-1.19-0.4-1.3 0-0.75 0.12-1.46 1.01-1.21 0.48 0.12 0.59 0.89 0.94 1.24 0.84 0.84 0.69-0.57 0.69-1.17 0-1.01 0.09 0.14 0.09 0.62 0 0.53 0.28 0 0.09-0.2" fill="none" stroke="#ffd000" stroke-linecap="round" stroke-linejoin="round" stroke-miterlimit="2.6131" stroke-width=".0704"/><path class="st2" d="m10.629 4.5168 0.11 1.87c0.08 1.41-0.53-3.39-0.13-0.85 0.03 0.19-0.05 1.28 0.13 1.28 0.45 0 3.23-0.16 1.68-0.16-0.29 0-1.73 0.35-1.73-0.19 0-0.96 1.63-0.13 1.63-0.61 0-0.29-1.71 0.32-1.84-0.59-0.11-0.72 0.67-0.48 1.2-0.48 0.35 0 2.32-0.27 1.15-0.27-0.8 0-2.03-0.19-2.03 0.72 0 0.61 0.69 0.53 1.12 0.53 0.08 0-0.11 0.16-0.13 0.16-0.21 0.05-0.83 0.05-0.88 0.24-0.13 0.43 0.37 0.48 0.64 0.48 2.21 0-0.05 0.16-1.12 0.16-1.76 0-0.03-0.16 0.83-0.16" fill="none" stroke="#ffd000" stroke-linecap="round" stroke-linejoin="round" stroke-miterlimit="2.6131" stroke-width=".0704"/><path class="st3" d="m9.9894 7.6168c-0.04 0.37-0.76 1.3-0.31 1.58 0.66 0.41 0.69-0.95 0.58-1.18-0.19-0.4-0.58 0-0.67 0.16-0.35 0.62 0.01 0.97 0.53 1.03 0.55 0.05 0.41-0.89 0.28-1.17-0.19-0.45-0.71 0.33-0.71 0.57 0 0.14-0.03 0.46 0.14 0.54 0.48 0.21 0.7-0.42 0.54-0.77-0.12-0.24 0.14-0.73-0.35-0.59-0.47 0.13-0.46 0.79-0.27 1.16 0.09 0.18 0.43 0.34 0.61 0.22 0.3-0.2 0.13-0.7 0.13-1.01" fill="none" stroke="#ffd000" stroke-linecap="round" stroke-linejoin="round" stroke-miterlimit="2.6131" stroke-width=".0725"/><path class="st4" d="m8.2094 8.3268c0.26-0.07 0.47-0.34 0.69-0.45 0.47-0.25-0.15 2.04 0.05 1.13l0.23-1.03c0.07-0.3-0.63 0.32-0.92 0.29-0.08-0.01 0.48-0.32 0.62-0.37 0.54-0.2 0.38 1.03 0.21 1.4-0.21 0.49 0.12-0.99 0.04-1.21-0.01-0.03-0.59 0.19-0.68 0.26-0.07 0.05 0.63-0.78 0.76-0.62 0.06 0.07-0.13 0.93 0 0.2l-0.12 0.71" fill="none" stroke="#ffd000" stroke-linecap="round" stroke-linejoin="round" stroke-miterlimit="2.6131" stroke-width=".0542"/><path class="st4" d="m11.559 7.8568-0.59 0.04c-0.16 0.01 1.26-0.02 0.72-0.08-0.53-0.04-0.8-0.03-0.8 0.5 0 0.36 1.19-0.28 0.95 0.57-0.1 0.33-0.56 0.24-0.86 0.3-0.09 0.01 0.69 0.13 0.69-0.35 0-0.44-0.59-0.24-0.69-0.43-0.27-0.55 0.05 0.64 0.06 0.09l0.01-0.47c0.01-0.29 0.69 0.07 0.96-0.06l0.02-0.01c0.13-0.06-0.99-0.11-1.03 0.01-0.18 0.67 0.31 0.17 0.63 0.42 0.24 0.18 0.04 0.62-0.19 0.62h-0.25c-0.05 0-0.52-0.06-0.35 0.11 0.09 0.09 0.53 0.01 0.65-0.02 0.23-0.06-0.75-0.1-0.63-0.09l0.63 0.09" fill="none" stroke="#ffd000" stroke-linecap="round" stroke-linejoin="round" stroke-miterlimit="2.6131" stroke-width=".0542"/><path class="st4" d="m12.149 8.9668c-0.09 0.1-0.13 0.19-0.16 0.32-0.06 0.24 0.25-0.04 0.25-0.31 0-0.23-0.11 0.04-0.13 0.14-0.06 0.26 0.14-0.1 0.14-0.3 0-0.09-0.25 0.26-0.27 0.3" fill="none" stroke="#ffd000" stroke-linecap="round" stroke-linejoin="round" stroke-miterlimit="2.6131" stroke-width=".0542"/><path class="st5" d="m13.059 7.7968c-0.25-0.07-0.55 0-0.55 0.33 0.03 0.82 1.26 0.1 0.76-0.29-0.25-0.19-0.62-0.07-0.71 0.22-0.12 0.42 0.47 0.64 0.66 0.26 0.13-0.27-0.02-0.47-0.29-0.42-0.3 0.05-0.73 0.46-0.26 0.63 0.4 0.14 0.59 0.09 0.72-0.34 0.04-0.15-0.03-0.21-0.14-0.27-0.29-0.16-0.11-0.09-0.03 0.01 0.13 0.17 0.21 0.36 0.15 0.57-0.09 0.3-0.2 0.98-0.64 0.64-0.41-0.31 0.3 0.17 0.39-0.13l0.18-0.63s0.09 0.61-0.19 0.81c-0.09 0.07-0.57-0.12-0.63-0.22-0.13-0.24 0.2 0.01 0.29 0.05 0.36 0.15 0.81-0.33 0.67-0.7-0.04-0.1-0.52-0.54-0.59-0.31" fill="none" stroke="#ffd000" stroke-linecap="round" stroke-linejoin="round" stroke-miterlimit="2.6131" stroke-width=".0763"/></svg>
