<svg width="211.5pt" height="199.33pt" version="1.1" viewBox="0 0 211.5 199.33" xmlns="http://www.w3.org/2000/svg">
 <defs>
  <linearGradient id="a" x1="105.85" x2="105.85" y1="-.43015" y2="198.61" gradientUnits="userSpaceOnUse">
   <stop stop-color="#ff8a00" offset="0"/>
   <stop stop-color="#ef6500" offset="1"/>
  </linearGradient>
 </defs>
 <g fill="url(#a)">
  <g transform="matrix(.34651 0 0 .34651 13.261 -13.493)">
   <path d="m237.49 39.75c33.67-2.89 68.01 1.97 99.42 14.46 35.61 14.06 67.33 37.75 90.96 67.86 30.11 38.01 46.7 86.44 46.14 134.94-0.14 43.37-13.9 86.55-38.84 122.04-23.38 33.51-56.4 60.21-94.09 75.99-41.77 17.65-89.09 21.62-133.27 11.52-25.93-5.87-50.73-16.61-72.8-31.43-29.15-19.55-53.48-46.23-70.16-77.12-17.72-32.62-26.66-69.9-25.83-107 0.75-44.32 15.73-88.22 42.18-123.78 28.16-38.25 69.19-66.83 114.89-79.82 13.5-3.91 27.4-6.42 41.4-7.66m-92.37 74.4c-30.06 23.45-52.56 56.64-62.58 93.47 18.84-18.84 37.74-37.62 56.62-56.41 4.37-4.77 12.56-5.01 17.17-0.46 7.54 7.47 15.08 14.95 22.58 22.48 22-21.76 43.83-43.69 65.82-65.45 6.21-6.33 17.38-6.42 23.71-0.22 32.93 32.66 65.67 65.51 98.66 98.09-14.06 14.72-29.01 28.61-43.04 43.35-3.19 4.35-2.58 10.89 1.34 14.6 13.89 13.89 27.87 27.7 41.74 41.61-31.27 31.05-62.46 62.17-93.7 93.24-3.23 3.12-6.18 6.88-10.56 8.43-6.29 2.53-13.97 0.8-18.6-4.15-21.81-21.63-43.52-43.38-65.36-64.98-7.55 7.5-15.07 15.04-22.65 22.51-4.58 4.51-12.73 4.27-17.06-0.47-18.95-18.84-37.9-37.67-56.81-56.55 6.81 24.55 18.95 47.6 35.32 67.13 24.61 29.6 58.94 50.98 96.4 59.91 41.76 10.13 87.09 4.82 125.23-15.04 37.33-19.15 67.58-51.69 83.8-90.39 19.37-45.45 18.54-98.97-2.27-143.78-15.45-33.8-41.68-62.5-73.85-81.07-31.22-18.15-67.98-26.56-103.98-23.74-35.45 2.5-70 15.94-97.93 37.89m150.26 67.41c-12.49 3.67-20.5 17.96-16.8 30.51 3.13 12.9 17.5 21.49 30.35 18.1 13.47-2.82 22.63-17.88 18.64-31.13-3.32-13.54-19-22.09-32.19-17.48z" fill="url(#a)"/>
  </g>
  <path d="m3.3841 177.37c-1.7054-8.75 2.2983-19.71 8.6734-20.43h28.285l-2.1317 10.96h-26.753l-0.72612 4.9005h19.938c2.7246-0.17 5.4092 2.4998 6.1953 6.4598 1.3989 8.74-2.5248 19.59-8.8999 20.07h-27.966l1.6121-11.04h26.926l1.0126-4.9403h-19.545c-2.7579 0.17-5.6357-1.9497-6.6217-5.9797z" stroke-width=".81619"/>
  <path d="m42.248 163.93c1.6587-4.39 5.0029-7.1 8.347-7.07l27.219 0.0102-1.6388 10.95-27.139 0.0798-0.75943 4.9005 27.213-0.0303-2.0451 10.58-26.553 3e-5 -0.88912 4.9403 27.069 0.0399-1.5788 11c-9.1064-0.16-18.213 0.0999-27.319-0.11012-3.3308-0.02-6.2353-4.64-6.0488-9.63 0.06965-1.524 0.22824-3.0259 0.43086-4.5168l2.4712-16.295c0.29445-1.6758 0.66686-3.3122 1.2215-4.848z" stroke-width=".81619"/>
  <path d="m79.427 163.74c1.8519-4.22 5.1028-7.0598 8.5202-6.8698 9.0398 0 18.08-0.02 27.119 0l-1.772 11.03h-27.139l-0.8327 4.9005h27.313l-1.6654 10.549h-27.326l-0.6595 4.9403c12.371 0.01 24.748 0.33 37.125 0l3.0644-20.39h-5.1228l1.2391-11.03h13.217l-4.5233 30.58c-0.72611 6.61-4.8963 11.96-9.3596 11.88h-36.686c-2.5181 0.13-5.0162-2.03-6.102-5.47-0.89473-2.5979-0.6914-5.3554-0.27516-8.1028l2.4155-16.358c0.33934-1.9627 0.7819-3.8714 1.4503-5.6594z" stroke-width=".81619"/>
  <path d="m132.6 168.4c0.86602-6.41 4.9296-11.57 9.3196-11.53h18c2.1717-0.02 4.6098-0.16023 6.3552 2.1198 2.2116 2.38 2.7979 6.84 2.1051 10.62l-4.39 29.72h-7.7941l2.3182-15.98h-20.411l-2.1983 15.98h-7.894l4.5898-30.93m7.2212 4.4002h20.298l0.77941-4.9005h-19.012c-1.9785-0.55-1.692 3.0605-2.0651 4.9005z" stroke-width=".81619"/>
  <path d="m167.62 156.87h10.219l8.7267 15.93 13.836-15.93h11.098l-21.996 26.48-2.6251 15.98h-7.6675l2.3316-15.98z" stroke-width=".81619"/>
 </g>
</svg>
