<svg width="1071.8pt" height="921.61pt" version="1.1" viewBox="0 0 1071.8 921.61" xmlns="http://www.w3.org/2000/svg">
 <path d="m896.85 502.97c13.16-0.87 26.36-0.53 39.54-0.58 14.82 0.38 29.72 0.91 44.36 3.48 8.32 1.66 17.51 3.73 23.18 10.62 7.32 8.78 8.88 20.65 9.75 31.66 0.61 12.11 0.25 24.37-2.24 36.27-1.98 8.76-6.07 18.09-14.48 22.36-10.16 4.78-21.55 5.7-32.55 6.91-26.7 1.82-53.54 1.84-80.23 0.04-11.08-1.14-22.48-2.14-32.76-6.76-9.17-4.39-13.54-14.57-15.42-24.01-2.88-15.11-2.45-30.61-1.64-45.9 0.32-9.12 5.11-18.02 12.74-23.09 5.96-4.16 13.1-6.14 20.14-7.61 9.76-1.95 19.69-2.82 29.61-3.39m6.5 15.37c-10.35 0.62-20.88 0.67-30.95 3.41-5.9 1.43-6.94 8.45-8.13 13.46-2.29 15.51-2.26 31.43 0.01 46.94 1.2 5 2.22 12.05 8.15 13.45 10.39 2.85 21.26 2.8 31.93 3.46 13.05 0.44 26.11 0.42 39.16 0 10.7-0.68 21.61-0.62 32.03-3.52 5.07-1.19 6.41-6.96 7.54-11.31 2.13-10.88 2.21-22.05 2.19-33.1-0.76-7.14 0.6-14.68-2.44-21.43-1.74-4.24-5.75-7.17-10.14-8.2-9.62-2.36-19.58-2.6-29.42-3.15-13.3-0.56-26.63-0.46-39.93-0.01z"/>
 <path d="m55.31 503.37c29.01 0.03 58.02 0 87.03 0.01 19.45 0.12 39.6-1.07 58.21 5.67 9.08 3.12 16.32 11.28 17.49 20.93 0.65 7.85 0.7 16.38-3.59 23.32-3.39 5.73-9.93 8.47-16.09 10.11 5.67 1.83 11.42 4.84 14.53 10.15 2.4 3.73 2.94 8.29 2.78 12.64-0.03 9.25-0.03 18.5 0.01 27.75-10 0.04-20 0.01-30 0.01 0-9.59 0.07-19.18-0.01-28.76 0.01-5.73-4.73-10.17-9.91-11.74-8.81-3.02-18.28-2.45-27.46-2.49h-63.21c0.01 14.33-0.02 28.67 0.02 43-9.95-0.01-19.9 0.03-29.84-0.02 0.07-36.86-0.01-73.72 0.04-110.58m29.78 15.61c0.01 12.14 0 24.27 0 36.41 22.06-0.01 44.11 0.01 66.17-0.01 8.73-0.29 17.55-0.54 26.12-2.41 3.77-0.92 7.91-2.31 10.06-5.78 2.74-4.06 2.46-9.29 1.93-13.93-0.64-4.33-2.27-9.34-6.69-11.13-7.42-2.71-15.47-2.73-23.27-3.13-24.77-0.05-49.55-0.02-74.32-0.02z"/>
 <path d="m342.18 503.37c12.12 0.04 24.24-0.01 36.36 0.02 26.61 36.88 53.27 73.72 79.95 110.55-10.75 0.06-21.5 0.04-32.25 0.01-5.18-7.37-10.47-14.67-15.71-21.98-32.91 0.01-65.81 0.03-98.71-0.01-5.24 7.32-10.44 14.68-15.67 22.01-10.78 0-21.57 0-32.36 0.01 26.04-36.93 52.27-73.73 78.39-110.61m-19.93 74.03c25.9-0.04 51.79 0.01 77.69-0.02-13.1-18.57-26.14-37.19-39.1-55.85-12.88 18.61-25.76 37.22-38.59 55.87z"/>
 <path d="m509.29 503.38c29.65 0.01 59.3 0 88.94 0 20.1-0.06 40.72-0.29 60.08 5.88 9.31 2.83 17.65 9.26 21.62 18.29 6.08 13.64 5.48 29.08 3.9 43.61-1.34 9.88-4 20.17-10.81 27.77-5.56 6.25-13.67 9.34-21.57 11.37-18.7 4.64-38.08 3.56-57.16 3.67h-84.98c-0.04-36.86 0-73.72-0.02-110.59m29.8 15.6c0 26.48 0.02 52.95-0.01 79.43 19.39-0.06 38.78-0.01 58.17-0.03 13.64-0.01 27.47-0.16 40.8-3.35 5.32-1.24 10.76-3.87 13.24-9.03 5.15-10.11 4.79-21.83 4.59-32.87-0.36-8.03-1.25-16.36-5.02-23.59-2.14-4.39-7.01-6.31-11.45-7.45-9.5-2.36-19.34-2.81-29.09-3.11-23.74-0.01-47.49-0.01-71.23 0z"/>
 <path d="m746.3 503.38c9.94 0 19.87 0.02 29.81-0.01-0.04 36.87-0.01 73.74-0.01 110.61-9.93-0.02-19.86 0.01-29.78-0.01-0.04-36.86-0.01-73.73-0.02-110.59z"/>
 <path d="m17.14 650.07c2.71-3.18 6.95-5.06 11.13-4.88 341.04 0.01 682.08 0 1023.1 0.01 7.86-0.21 14.74 7.3 13.82 15.12-0.37 6.63-6.17 12.45-12.81 12.74-341.73 0.01-683.45 0-1025.2 0.01-4.91-0.1-9.36-3.16-11.79-7.34-1.85-5.01-2.07-11.46 1.72-15.66z"/>
 <path d="m865.18 703.57c25.58-3.15 51.46-3.37 77.18-2 12.8 1.02 25.71 2.48 37.95 6.58 8.51 2.86 16.77 7.39 22.34 14.63 8.66 11.14 11.72 25.53 12.51 39.34 0.45 12.92 0.33 26.14-3.66 38.58-2.83 9.48-8.33 18.51-16.7 24.05-7.82 5.03-16.86 7.7-25.81 9.89-22.89 5.3-46.43 6.53-69.76 8.54-13.95 1.64-28.19 2.64-41.57 7.19-4.04 1.13-6.55 4.77-7.74 8.6-3.12 9.26-3.24 19.18-3.27 28.86 56-0.02 112 0.01 168.01-0.02 0 9.91-0.02 19.82 0.01 29.73-69.45 0.01-138.9-0.05-208.34 0.03-0.06-15.8-0.02-31.6-0.03-47.39 0.27-11.51 2.3-23.48 8.76-33.24 4.02-6.14 10.19-10.61 17.03-13.17 12.18-4.64 25.13-6.78 37.97-8.71 23.89-3.63 48.1-4.39 71.98-8 8.19-1.39 16.55-2.64 24.21-5.99 6.05-2.88 7.66-10.19 8.85-16.17 1.69-11.81 2.18-24.08-0.9-35.7-1.52-5.91-5.41-11.51-11.41-13.45-14.26-4.92-29.59-4.78-44.47-5.23-17.69 0.38-35.53 0.11-52.98 3.39-5.21 1.04-10.97 2.46-14.21 7.06-5.12 7.27-5.25 16.65-5.05 25.19 0.16 5.79 0.02 11.6 0.62 17.36-13.4 0.02-26.81 0.02-40.22 0 0.4-14.27-0.56-28.88 3.7-42.72 3.19-11.14 10.06-21.64 20.33-27.39 10.65-5.84 22.77-8.12 34.67-9.84z"/>
 <path d="m94.36 709.24c18.52-5.12 37.87-5.76 56.96-6.42 22.52-0.1 45.2 0.07 67.45 4 12.85 2.53 26.61 6.1 35.86 16.01 10.67 11.71 14.13 27.97 15.2 43.32 0.57 13.66 0.09 27.35 0.82 41 0 13.31 0.68 26.64-0.31 39.94 0.01 13.35-0.59 27.04-5.52 39.62-3.67 9.77-10.51 18.68-20.01 23.33-11.99 6.04-25.48 8.04-38.66 9.62-26.25 2.54-52.69 2.25-79 0.99-15.94-1.27-32.22-2.45-47.3-8.16-9.93-3.77-18.37-11.56-22.2-21.54-4.41-10.8-3.82-22.8-2.32-34.13 12.78 0.02 25.56 0 38.35 0.01-0.49 8.45-1.84 17.77 2.69 25.42 4.27 6.36 12.67 6.59 19.49 7.69 20.49 2.19 41.15 1.97 61.72 1.52 13.32-0.66 26.99-0.92 39.74-5.2 6.11-2 8.44-8.63 9.83-14.28 3.3-14.82 2.11-30.1 2.38-45.15-14.86 9.04-32.58 11.12-49.56 12.69-19.18 1.31-38.45 1.48-57.62 0.05-10.44-0.99-20.95-2.27-30.96-5.48-8.16-2.55-16.17-6.53-21.73-13.2-10.66-12.57-12.95-29.81-13.16-45.73 0.19-17.1 1.85-35.45 12.08-49.8 5.98-8.66 15.91-13.39 25.78-16.12m59.4 23.4c-7.26 0.29-14.54 0.04-21.77 0.8-8.61 0.76-17.45 1.43-25.53 4.74-4.94 2.03-7.35 7.28-8.63 12.14-2.68 10.73-2.49 21.94-1.68 32.9 0.8 6.56 1.99 13.56 6.28 18.84 3.93 3.93 9.69 5.04 14.92 6.17 18.63 3.26 37.63 2.49 56.44 2.3 13.3-0.46 26.72-0.91 39.76-3.78 5.16-0.99 10.19-3.93 12.25-8.98 4.76-11.21 3.62-23.76 2.64-35.59-1.02-7.3-2.21-15.26-7.29-20.95-4.34-3.75-10.27-4.57-15.67-5.75-17.09-2.79-34.47-2.88-51.72-2.84z"/>
 <path d="m389.7 713.66c14.45-6.95 30.69-8.63 46.47-9.99 25.02-1.41 50.17-1.24 75.13 1.07 14.13 1.77 28.98 3.48 41.35 11.08 9.62 5.91 15.83 16.38 17.68 27.38 1.66 8.02 0.62 16.22 0.75 24.33-13.47 0-26.95 0.01-40.42-0.01 1.08-7.52 2.94-15.46 0-22.82-1.94-5.04-7.08-7.94-12.14-8.98-12.85-3-26.13-2.9-39.24-3.2-18.69 0.39-37.57 0.21-55.99 3.96-5.25 1.07-10.82 3.18-13.76 7.96-3.4 5.24-4.39 11.65-4.62 17.78-0.04 11.52 0.03 23.05-0.03 34.58 14.21-8.89 31.27-11.32 47.65-12.91 18.91-1.54 37.93-1.37 56.86-0.14 12.4 1.12 24.94 2.58 36.73 6.82 7.73 2.72 15.1 7.1 20.12 13.71 7.87 10.21 10.92 23.25 11.87 35.88 0.63 15.9 0.5 32.35-5.42 47.38-3.76 9.68-10.64 18.47-20.16 22.99-12.27 5.87-25.94 7.83-39.32 9.29-27.54 2.39-55.32 2.42-82.85-0.09-14.96-1.76-30.45-4.06-43.59-11.91-11.61-7.31-17.74-20.57-20.59-33.55-2.89-12.83-2.93-26.05-2.87-39.14-0.53-15.3-0.94-30.63-0.03-45.92 0.35-17.7-0.53-36.08 6.3-52.8 3.82-9.6 10.65-18.27 20.12-22.75m74.94 98.97c-13.83 0.24-27.75 0.58-41.37 3.22-6.41 1.23-13.53 3.28-17.21 9.16-5.17 8.04-4.17 18.01-4.07 27.11 0.64 9.46 1.43 19.44 6.33 27.79 3.82 6.33 11.87 7.4 18.46 8.91 20.22 3.41 40.82 3.04 61.25 2.71 10.78-0.35 21.61-1.01 32.22-3.07 5.41-1.1 11.46-2.79 14.27-8.03 4.55-8.62 4.83-18.71 4.99-28.24-0.43-9.72-0.64-20.08-5.6-28.75-3.3-5.68-10.37-6.68-16.2-7.94-17.52-2.93-35.37-2.88-53.07-2.87z"/>
 <path d="m666.71 796.16c13.46 0.03 26.91 0.03 40.37 0.01 0.02 12.01 0.01 24.02 0 36.03-13.46-0.04-26.92-0.03-40.38 0-0.01-12.02-0.03-24.03 0.01-36.04z"/>
 <g transform="matrix(1.0385 0 0 1.0385 -77.462 485.57)">
  <path transform="matrix(1.017 0 0 1.017 921.12 31.677)" d="m-567.2-483.23c17.84-9 38.55-8.25 57.93-6.62 48.62 4.87 97.46 13.38 142.85 32.1 14.51 6.07 28.6 13.25 41.75 21.9 5-12.78 13.86-24.3 25.82-31.24 11.03-6.52 23.87-9.22 36.52-10.19 14.36-1.25 28.89-0.54 43.07 2.04 11.55 1.99 22.73 5.78 34.4 7.17 7.82 2.24 15.64 4.54 23.37 7.07 17.05 9.24 35.82 15.06 52.23 25.54 8.77 5.73 17.89 11.78 23.41 20.95 8.43 1.42 16.95 3.09 24.69 6.88 2.06 1.07 4.31 1.68 6.63 1.96 13.21 1.97 26.06 7.32 36.16 16.17 1.01-15.94 6.29-31.9 16.47-44.37 10.03-12.47 24.83-20.86 40.59-23.43 18.16-3.1 36.81 0.42 53.77 7.13 8.72 3.16 16.82 7.84 25.73 10.47 15.55 5.15 31.42 11.01 43.99 21.86 10.6 8.96 17.94 21.82 19.63 35.65 1.71 11.64-0.85 23.48-5.57 34.12-0.44 12.26 1.83 24.47 2.37 36.72 1.12 14.3 0.46 28.65 0.24 42.96-0.79 46.69-3.56 93.34-3.59 140.05-0.92 5.42-2.86 10.63-4.19 15.97-1.25 3.83-1.73 7.99-3.71 11.55-6.84 10.47-16.51 19.13-27.82 24.52-13.23 6.48-28.27 8.48-42.86 7.58-17.27-1.11-34.43-3.84-51.16-8.27-14.25-3.82-28.32-8.97-40.84-16.9-2.23 11.29-8.96 21.42-17.25 29.27-10.93 10.25-25.64 16.02-40.51 17.03-18.41 1.36-36.7-3.32-53.69-10.07-14.52-5.85-28.62-13.13-40.73-23.14-10.06 2.78-20.56 2.61-30.88 3.37-14.31 1.61-28.42 5.23-42.89 5.11-4.33 0.18-8.82-0.97-12.95 0.81-14.03 4.85-29.46 4.96-43.7 0.93-18.96-5.04-35.38-18.1-45.32-34.92-11.24-18.95-14.69-41.75-12.43-63.45 4.81-10.32 10.24-20.36 15.35-30.54 4.74-5.46 11.39-8.81 17.5-12.53 1.82-1.25 3.18-3.02 4.64-4.65-0.21-0.73-0.62-2.19-0.82-2.92-28.68 15.5-60.49 24.05-92.35 30.11 2.33 12.28 3.39 24.76 5.61 37.06 0.55 2.39 0.62 5.11 2.42 6.98 12 14.08 17.64 32.56 19.15 50.74 0.79 6.93 0.34 13.91 0.47 20.87-10.52 14.69-21.12 29.33-31.64 44.03-19.97 7.18-41.98 7.08-62.46 2.15-16.66-4.05-32.67-10.81-47.22-19.86-15.34-10.45-28.96-23.9-38.27-40.05-15.44 12.09-33.42 20.57-52.03 26.55-19.98 6.31-40.92 10.12-61.93 9.68-10.08 0.37-19.98-2.09-29.48-5.25-3.68-1.35-7.64-0.57-11.46-0.92-13.02-0.3-25.75-5.12-36.04-13.05-3.16-2.68-7.45-3.03-11.22-4.4-11.36-3.36-22.2-8.5-31.82-15.44-7.01-4.9-13.34-10.66-20.12-15.85-4.12-3.53-7.68-7.66-11.65-11.36-4.27-3.66-6.53-8.98-8.9-13.95-13-29.47-6.33-65.64 14.3-89.97-16.23-15.23-26.74-36.52-28.44-58.76-0.57-10.08-0.3-20.29 2.05-30.16 3.11-14.78 10.23-28.23 17.41-41.37 12.7-25.95 31.11-49.37 54.76-66.17 27.79-20.08 61.66-31.47 95.92-32.48 21.8-0.86 43.79 2.23 64.54 8.98 2.72-17.64 14-33.95 30.2-41.75"/>
  <path d="m362.84-412.77c1.729-3.7427 6.1836-4.6276 9.8654-5.2276 9.3975-1.2815 18.927-0.45767 28.335 0.39665 32.861 3.3359 65.65 8.5534 97.382 17.88 30.318 9.0416 60.362 21.867 84.222 43.133 8.1567 7.3431 15.398 15.703 21.368 24.918 4.8717-1.6273 8.8585-4.9835 12.215-8.7771 4.892-5.5429 12.032-9.0619 15.53-15.795 5.3598-12.723-0.40682-27.481 5.7768-39.99 2.6138-5.7362 9.2348-7.3329 14.9-8.1567 13.445-1.8205 27.206-1.3018 40.479 1.5154 10.74 2.2273 21.287 5.6141 32.251 6.6312 2.7765 0.30511 5.787 0.0509 8.1872 1.7595 19.446 11.564 42.472 16.72 60.016 31.498 4.77 3.7122 2.1866 10.476 1.7798 15.49 12.672 4.3835 26.281 4.3224 39.217 7.5363 4.4242 0.96619 7.9432 4.1394 12.306 5.2988 6.265 1.7086 13.008 1.4849 19.019 4.1496 5.37 2.4104 9.245 7.2007 12.205 12.154 4.7801 8.2991 7.6075 17.503 11.432 26.25 12.093 27.959 32.424 51.056 48.208 76.838 4.058 6.2447 9.3975 11.93 16.436 14.768 5.9599-5.5734 4.4445-14.178 4.5462-21.47 2.0951-24.287 5.014-48.9 1.0577-73.166-3.2749-19.599-8.4924-39.024-8.7364-59.009 0.11188-8.6856 0.86449-18.327 6.8142-25.202 4.9225-5.7565 13.089-6.8651 20.229-6.2345 13.73 1.2306 26.077 7.8618 38.556 13.171 10.547 3.9461 21.592 6.7329 31.579 12.072 3.7834 2.1968 8.4008 4.6479 9.4891 9.2653 0.9356 6.3159-4.231 11.198-5.1056 17.198-2.5833 14.829-0.041 29.861 1.0475 44.709 1.8104 17.605 0.7526 35.302 0.6103 52.958-1.1086 45.981-3.4275 91.941-3.6716 137.93-3.5495 8.0957-13.466 10.994-21.673 11.32-13.71 0.07119-27.359-2.1053-40.733-4.9429-11.869-2.746-23.779-6.1125-34.386-12.235-9.4179-5.4107-15.052-15.032-21.195-23.606-6.265-9.4992-14.015-17.87-20.9-26.901-11.655-14.91-23.199-30.105-37.478-42.635-3.9665 38.19-2.5019 76.899 3.875 114.75 0.4475 3.1427 1.8205 6.7125-0.29495 9.5704-3.9563 6.7939-12.733 8.0957-19.904 7.5465-15.551-1.4544-30.278-7.5872-43.906-14.93-11.615-6.2142-21.531-16.1-26.27-28.538-2.9088-7.2007-4.0478-14.961-4.5055-22.68-3.4478 0.51869-7.0786 1.668-9.1128 4.7191-5.3497 7.6584-4.5971 17.92-10.028 25.548-1.4035 2.1053-3.7631 3.3258-6.204 3.7936-5.8785 1.1696-11.899 0.92551-17.849 1.4035-12.917 0.80347-25.548 3.7834-38.394 5.1463-7.2109 0.80347-14.442-0.55938-21.643 0.04068-5.6141 0.74245-10.72 3.4783-16.263 4.5055-10.577 1.6781-21.917-3.1834-27.806-12.164-7.3431-10.71-8.472-24.318-7.5262-36.919 5.5124-4.7801 12.784-6.9668 18.053-12.062 5.1971-5.014 9.9264-10.516 14.106-16.395 4.1089-5.9904 8.0957-12.805 7.5363-20.351-0.65091-12.672-5.3192-24.643-7.8516-36.97-2.3392-11.838-7.0482-23.006-10.099-34.641-2.0443-7.2007-0.74244-14.707-1.0069-22.06-0.0407-3.5597-1.9019-7.0583-5.0649-8.7975-5.2175-3.0105-11.564-2.4816-17.28-1.4747 1.6883 14.747-3.3461 30.288-14.229 40.55-10.323 9.4687-23.077 15.795-35.892 21.195-33.685 13.557-69.841 19.67-105.81 23.26-2.6647 22.192 3.8851 43.896 6.6515 65.722 1.9222 13.771 3.3868 27.776 8.0957 40.936 2.5223 7.099 9.6925 11.157 12.408 18.154 4.77 10.628 4.6683 22.487 4.475 33.898-12.174 4.1597-25.426 3.2342-37.692-0.04068-10.242-2.746-20.097-6.9363-29.24-12.296-7.4956-4.831-14.147-10.964-19.7-17.92-3.3969-4.3733-6.6617-9.2246-7.3024-14.859-1.1391-9.1738 0.86449-18.531-1.2306-27.623-2.9901-13.873-7.8414-27.267-10.608-41.201-2.3087-11.32-3.2342-22.863-5.2175-34.234-0.98653-4.892-1.8408-10.201-5.3598-14.005-5.2276-5.8277-12.54-9.0619-18.561-13.913-6.6413-5.3395-12.591-11.472-18.927-17.158-6.1633 2.5121-13.374 3.4885-19.629 0.75262-7.0685-2.9698-12.154-9.0619-16.415-15.215-4.0885-5.9904-5.6039-13.456-10.333-19.039-4.9937-4.6886-12.103-5.9599-17.646-9.8349-13.12-8.3601-22.07-22.721-37.204-27.928-15.185-4.9734-31.335-8.4822-47.374-6.5498-8.533 1.2103-17.107 4.353-23.575 10.201-4.0682 3.7427-4.3733 9.7942-3.3054 14.879 1.8815 8.3398 6.9058 15.54 12.327 21.989 11.828 13.822 27.562 23.555 43.682 31.62 29.82 14.646 61.796 24.45 91.178 40.011 13.181 6.9363 25.569 15.357 36.858 25.06 4.3835 4.1089 9.1433 8.1771 11.849 13.659 3.102 8.0754 1.5256 17.066-1.0272 25.08-4.475 14.452-15.337 25.772-26.789 35.149-13.466 11.188-29.861 18.185-46.581 22.894-13.588 3.7427-27.664 5.9599-41.77 5.7463-9.9467 0.1017-18.754-5.5938-28.599-6.2142-5.3598-0.5187-10.964 0.90517-16.12-1.1086-4.9734-2.146-8.4517-6.6718-13.425-8.8483-9.4077-4.3021-19.954-5.5836-29.098-10.547-10.333-5.5938-18.419-14.32-28.071-20.9-4.2208-3.875-5.3497-10.079-5.9497-15.541-0.77296-11.625 3.58-23.473 11.706-31.823 32.129 10.14 60.616 28.884 92.348 40.031 16.588 5.909 34.071 9.6111 51.717 9.9162 6.4074-0.14239 13.059-0.5187 18.958-3.2546 3.4783-1.5459 6.4074-4.7394 6.7329-8.6449 0.5492-5.7565-2.9901-10.893-6.9261-14.717-8.0042-7.4448-17.992-12.174-27.654-17.046-30.359-15.591-63.667-24.48-93.833-40.509-7.638-4.0784-14.279-9.8044-22.121-13.537-12.205-6.3464-24.552-13.923-32.139-25.752-7.1092-10.76-8.3195-24.552-5.2886-36.868 2.4307-10.008 7.8109-18.887 12.55-27.908 4.7089-9.5094 10.069-18.734 16.568-27.135 19.466-25.497 49.53-42.248 81.191-46.652 37.977-5.3293 78.75 4.9835 107.89 30.379 11.025 9.7026 17.534 23.26 27.755 33.705 0.26443-14.035-0.67125-28.142-3.5495-41.892-2.1053-9.723-5.248-19.426-11.045-27.603 2.0443-1.2306 4.4954-2.4308 5.1564-4.953 2.6443-8.5025-2.2375-17.717 1.4035-26.057m101.07 54.321c-5.9599 7.4346-6.2854 17.544-6.1532 26.647 0.18307 13.313 2.207 26.514 2.7359 39.807 1.0069 14.696 1.0781 29.566 4.3123 44.008 17.239-3.997 34.875-8.3703 50.008-17.92 8.3601-5.248 15.5-13.771 15.693-24.084 0.49835-16.13-6.9668-31.386-15.968-44.343-9.8247-12.733-21.694-26.047-38.251-29.24-4.7496-1.5561-9.3467 1.7697-12.377 5.1259m275.97 45.076c-1.2408 1.8103-3.0206 3.6207-2.9189 5.9802 0.40682 19.538 1.8002 39.065 4.1902 58.47 1.5052 13.313 2.4613 26.728 5.1463 39.868 1.0374 4.6683 2.1765 9.428 4.7089 13.537 7.394 10.913 21.785 12.164 32.057 19.243 0.25426-32.535-0.89501-65.111-4.3936-97.464-2.2477-20.077-5.3293-40.112-10.364-59.691-10.415 5.0954-21.287 10.567-28.427 20.056m-383.44 72.322c8.2991 0.76279 18.236 3.5292 25.314-2.2985-1.2611-6.1226 0.0712-13.242-4.3428-18.287-5.5836 8.2788-15.49 12.225-20.972 20.585z" fill="#ee4097" stroke-width="1.017"/>
 </g>
</svg>
