<?xml version="1.0" encoding="UTF-8"?>
<!-- Created with Inkscape (http://www.inkscape.org/) -->
<svg id="svg2" width="567.09" height="99.791" version="1.1" viewBox="0 0 567.09 99.791" xml:space="preserve" xmlns="http://www.w3.org/2000/svg" xmlns:cc="http://creativecommons.org/ns#" xmlns:dc="http://purl.org/dc/elements/1.1/" xmlns:rdf="http://www.w3.org/1999/02/22-rdf-syntax-ns#"><metadata id="metadata8"><rdf:RDF><cc:Work rdf:about=""><dc:format>image/svg+xml</dc:format><dc:type rdf:resource="http://purl.org/dc/dcmitype/StillImage"/><dc:title/></cc:Work></rdf:RDF></metadata><defs id="defs6"><clipPath id="clipPath18"><path id="path16" d="M 0,220.989 H 538.583 V 0 H 0 Z"/></clipPath></defs><g id="g10" transform="matrix(1.3333 0 0 -1.3333 -74.956 195.32)"><g id="g12"><g id="g14" clip-path="url(#clipPath18)"><g id="g20" transform="translate(71.208 146.49)"><path id="path22" d="m0 0h-14.991v-7.454h30.244c-2.185 5.093-7.939 7.454-15.253 7.454m14.229-19.133h-29.22v7.428h31.178c0.015-0.292 0.022-0.586 0.02-0.886-0.026-2.764-0.687-4.895-1.978-6.542m-29.22-4.252v-7.415h27.237l-4.56 7.415zm0-11.667h29.853l4.594-7.468h-34.447z" fill="#00ab96"/></g><g id="g24" transform="translate(112.32 91.543)"><path id="path26" d="m0 0h-3.688l-1.982 2.504h2.9l0.958-1.451 0.915 1.451h2.945zm73.792-10.748c0-1.654-0.56-3.479-2.512-3.479-1.912 0-2.514 1.76-2.514 3.372 0 1.652 0.645 3.285 2.555 3.285 1.869 0 2.471-1.59 2.471-3.178m3.242-0.129c0 3.328-2.147 5.84-5.561 5.84-3.608 0-5.949-2.34-5.949-5.947 0-3.414 2.17-5.819 5.647-5.819 3.458 0 5.863 2.49 5.863 5.926m-12.025 2.813v2.876c-0.192 0.022-0.364 0.043-0.558 0.043-1.502 0-2.341-0.642-2.877-2.039v1.825h-3.092v-11.123h3.243v3.628c0 0.559 0 1.139 0.021 1.698 0.043 1.802 0.301 3.156 2.512 3.156 0.258 0 0.494-0.021 0.751-0.064m-24.134-8.418-4.594 6.916 4.294 4.207h-4.101l-3.435-3.801v7.838h-3.157v-15.16h3.157v3.695l1.03 1.029 2.792-4.724zm-12.624 3.414c0 2.793-2.749 3.287-4.897 3.736-0.579 0.129-1.889 0.281-1.889 1.074 0 0.795 0.945 0.903 1.546 0.903 0.602 0 1.288-0.215 1.675-0.709 0.172-0.215 0.236-0.645 0.279-0.903l2.964 0.151c-0.13 2.726-2.427 3.779-4.875 3.779-2.255 0-4.638-0.902-4.638-3.522 0-4.445 6.614-2.834 6.614-4.832 0-0.879-0.902-1.029-1.59-1.029-1.417 0-2.168 0.408-2.361 1.846l-3.006-0.106c0-0.367 0.021-0.666 0.107-1.031 0.558-2.299 2.92-3.092 5.046-3.092 2.426 0 5.025 0.86 5.025 3.735m-14.429 3.629h-4.446c0.344 1.267 1.031 1.912 2.385 1.912 1.137 0 1.953-0.793 2.061-1.912m3.327-2.405v0.537c0 3.436-1.76 6.27-5.475 6.27-3.414 0-5.626-2.555-5.626-5.883 0-3.414 2.104-5.883 5.626-5.883 2.448 0 4.553 1.158 5.347 3.541l-3.178 0.215c-0.473-0.838-1.095-1.18-2.082-1.18-1.461 0-2.213 1.01-2.406 2.383zm-11.788 0.43-3.542 0.236c-0.022-1.718-1.632-2.791-3.242-2.791-0.86 0-1.676 0.28-2.341 0.815-1.289 1.074-1.546 2.771-1.546 4.338 0 2.513 1.009 5.003 3.887 5.003 1.18 0 2.233-0.451 2.833-1.525 0.13-0.258 0.258-0.516 0.322-0.795l3.414 0.237c-0.042 0.365-0.15 0.689-0.257 1.031-0.901 2.683-3.585 3.908-6.27 3.908-4.745 0-7.6-3.242-7.6-7.881 0-3.178 1.503-6.291 4.572-7.494 0.945-0.363 1.976-0.492 2.986-0.492 2.468 0 4.766 0.902 6.033 3.113 0.408 0.707 0.666 1.502 0.751 2.297m108.07-1.457c-0.537-0.924-1.547-1.44-2.599-1.44-0.731 0-1.483 0.346-1.483 1.182 0 1.44 2.299 1.461 3.309 1.719 0.258 0.064 0.515 0.15 0.773 0.258zm3.137 2.576c0 0.904 0.042 2.193-0.302 3.029-0.816 1.934-2.899 2.235-4.745 2.235-2.514 0-4.598-1.074-4.749-3.846h2.923c-0.044 1.096 1.073 1.397 1.953 1.397 0.666 0 1.697-0.172 1.697-1.03 0-0.795-1.16-0.838-1.718-0.924-2.406-0.343-5.477-0.623-5.477-3.781 0-2.254 1.718-3.586 3.866-3.586 1.589 0 2.277 0.471 3.501 1.332l0.022-1.01h3.031zm11.746-2.785c0 2.793-2.747 3.287-4.894 3.736-0.58 0.131-1.89 0.281-1.89 1.074 0 0.795 0.946 0.903 1.546 0.903 0.602 0 1.287-0.215 1.674-0.709 0.172-0.215 0.237-0.645 0.279-0.901l2.963 0.151c-0.129 2.724-2.425 3.777-4.873 3.777-2.254 0-4.639-0.902-4.639-3.521 0-4.444 6.614-2.834 6.614-4.832 0-0.879-0.901-1.03-1.588-1.03-1.418 0-2.17 0.409-2.361 1.846l-3.007-0.105c0-0.366 0.02-0.666 0.107-1.032 0.558-2.298 2.92-3.091 5.046-3.091 2.426 0 5.023 0.857 5.023 3.734m-23.811-3.414h-3.156v15.16h3.156zm-8.503 0v6.228c0 0.709 0.043 1.567-0.536 2.082-0.301 0.28-0.709 0.387-1.118 0.387-0.471 0-0.857-0.129-1.223-0.43-0.752-0.623-0.708-1.673-0.708-2.554v-5.713h-3.136v15.16h3.136v-5.174c0.492 0.881 2.082 1.397 3.026 1.397 0.732 0 1.611-0.196 2.212-0.623 1.289-0.924 1.502-2.17 1.502-3.653v-7.107zm-18.187 0v2.363l5.497 6.141h-4.874v2.619h8.804v-2.555l-5.326-5.947h5.69v-2.621zm-27.889 15.816h-3.786l-1.54-3.205h2.455zm1.33-4.681h-3.351l-1.845-7.495-2.019 7.495h-3.435l3.219-9.018c0.172-0.494 0.451-1.053 0.451-1.59 0-0.365-0.171-0.9-0.471-1.137-0.302-0.238-0.967-0.279-1.333-0.279-0.279 0-0.557 0.02-0.836 0.02v-2.491c0.279 0 0.557-0.042 0.836-0.042 1.375 0 3.115-0.086 4.058 1.095 0.452 0.58 0.818 1.697 1.054 2.405z" fill="#00ab96"/></g><g id="g28" transform="translate(127.21 118.92)"><path id="path30" d="m0 0c1.447 1.848 1.983 4.288 1.983 6.585 0 1.587-0.317 3.435-0.991 4.875-2.301 4.786-6.585 5.472-11.406 5.472h-12.265v-31.872h7.215v11.009h4.799l6.633-11.009h7.998l-7.318 12.142c1.217 0.585 2.333 1.456 3.352 2.798m-5.184 6.545c0-1.804-0.861-3.342-2.524-4.112-1.082-0.487-2.756-0.487-3.925-0.487-1.261 0-2.567 0.049-3.831 0.049v9.115h3.473c2.073 0 4.422 0.082 5.857-1.729 0.634-0.806 0.95-1.793 0.95-2.836m33.399-11.744v1.125c0 7.236-3.703 13.188-11.507 13.188-7.187 0-11.831-5.368-11.831-12.37 0-7.184 4.425-12.366 11.831-12.366 5.144 0 9.565 2.42 11.241 7.443l-6.685 0.453c-0.991-1.765-2.307-2.483-4.386-2.483-3.067 0-4.644 2.117-5.049 5.01zm-16.347 5.058c0.719 2.667 2.173 4.021 5.01 4.021 2.398 0 4.116-1.671 4.338-4.021zm35.119 8.579v-3.062c-1.764 2.428-3.62 3.698-6.735 3.698-6.367 0-9.791-5.605-9.791-11.424 0-5.915 3.558-11.119 9.884-11.119 2.351 0 5.101 0.906 6.549 2.9-0.042-0.32-0.042-0.635-0.042-0.947 0-3.432-0.405-5.875-4.473-5.875-1.626 0-3.164 0.539-3.791 2.174h-7.05c0.502-5.729 5.329-7.408 10.339-7.408 4.203 0 8.948 1.041 10.751 5.328 0.681 1.615 0.767 3.463 0.767 5.234v20.501zm-0.184-10.34c0-3.115-1.58-5.91-4.965-5.91-3.25 0-4.874 2.699-4.874 5.684 0 3.066 1.757 5.73 5.057 5.73 3.153 0 4.782-2.565 4.782-5.504m17.734 10.34h-6.597v-23.385h6.597zm0 8.494h-6.597v-6.013h6.597zm25.604-31.88v14.358c0 3.166-0.437 6.002-3.112 8.039-1.385 1.077-3.155 1.53-4.93 1.53-2.692 0-4.822-1.175-6.436-3.25v2.709h-6.506v-23.386h6.681v12.955c0 2.481 0.864 5.273 4.014 5.273 2.619 0 3.483-2.195 3.483-4.456v-13.772zm18.457 7.578c-1.705-2.978-4.967-3.023-5.461-3.023-1.341 0-3.115 0.59-3.115 2.529 0 3.022 5.109 3.069 6.965 3.572 0.575 0.133 0.994 0.316 1.611 0.535zm6.602 5.424c0 1.896 0.101 4.607-0.63 6.371-1.716 4.067-6.1 4.689-9.99 4.689-5.267 0-9.657-2.252-9.964-8.076h6.137c-0.095 2.296 2.25 2.928 4.118 2.928 1.389 0 3.558-0.362 3.558-2.163 0-1.673-2.443-1.756-3.615-1.944-5.061-0.715-11.51-1.303-11.51-7.951 0-4.742 3.598-7.53 8.123-7.53 3.352 0 4.791 0.981 7.376 2.788l0.028-2.114h6.376z" fill="#00ab96"/></g><g id="g32" transform="translate(262.21 135.85)"><path id="path34" d="m0 0v-31.868h10.227c2.807 0 5.652 0.101 8.27 1.176 5.859 2.447 8.474 8.66 8.474 14.716 0 5.005-1.576 10.199-5.767 13.312-3.157 2.346-6.901 2.664-10.688 2.664zm7.132-5.96h1.923c2.074 0 4.748 0 6.596-1.002 2.976-1.574 3.707-5.676 3.707-8.705 0-10.063-5.152-10.289-10.111-10.289h-2.115zm39.16 5.96h-8.17l-10.827-31.868h7.983l2.035 6.77h10.189l2.075-6.77h8.035zm-7.311-19.272 3.291 12.274 3.48-12.274zm21.49-12.596h14.938c4.689 0 11.049 1.81 11.049 9.383 0 4.969-3.598 7.046-5.323 7.718 1.174 0.366 4.516 2.211 4.516 6.549 0 6.045-4.69 8.218-10.744 8.218h-14.436zm7.133 25.908h6.223c2.039 0 4.75-0.319 4.75-3.298 0-2.846-2.635-3.017-5.055-3.017h-5.918zm0-12.05h6.551c2.074 0 5.039-0.408 5.039-3.925 0-2.893-2.115-4.066-5.863-4.066h-5.727zm36.998 18.01v-31.868h7.232v11.018h4.557c4.328 0 8.035 0.136 10.912 3.925 1.444 1.843 1.983 4.287 1.983 6.578 0 1.59-0.309 3.432-0.996 4.878-2.284 4.786-6.579 5.469-11.403 5.469zm7.232-5.825h3.688c2.617 0 6.594-0.135 6.594-4.558 0-3.835-2.971-4.604-5.787-4.604h-4.495zm26.903-2.666h-6.504v-23.377h6.812v11.507c0 2.798 0.539 6.317 5.321 6.317 0.601 0 0.941-0.04 1.572-0.132v6.042c-0.568 0.095-0.844 0.095-1.166 0.095-2.848 0-4.77-1.036-6.035-4.286zm23.478-15.787c-1.73-2.983-4.978-3.03-5.459-3.03-1.361 0-3.113 0.588-3.113 2.527 0 3.031 5.096 3.068 6.945 3.563 0.592 0.14 0.991 0.319 1.627 0.544zm6.582 5.41c0 1.891 0.094 4.605-0.634 6.361-1.709 4.066-6.102 4.693-9.963 4.693-5.291 0-9.666-2.251-9.973-8.076h6.133c-0.1 2.299 2.244 2.934 4.115 2.934 1.373 0 3.551-0.356 3.551-2.164 0-1.674-2.438-1.757-3.613-1.939-5.057-0.726-11.5-1.31-11.5-7.943 0-4.747 3.615-7.534 8.117-7.534 3.347 0 4.787 0.978 7.361 2.787l0.039-2.119h6.371zm25.385-13v15.028c0 4.062-1.441 8.889-7.807 8.889-2 0-5.32-1.079-6.386-2.934v10.885h-6.567v-31.868h6.567v12.142c0 2.347 0.16 6.135 4.082 6.135 3.381 0 3.478-3.02 3.478-5.194v-13.083zm18.557 7.59c-1.731-2.983-4.979-3.03-5.477-3.03-1.345 0-3.115 0.588-3.115 2.527 0 3.031 5.111 3.068 6.961 3.563 0.596 0.14 0.994 0.319 1.631 0.544zm6.582 5.41c0 1.891 0.094 4.605-0.637 6.361-1.711 4.066-6.084 4.693-9.959 4.693-5.293 0-9.672-2.251-9.98-8.076h6.138c-0.101 2.299 2.244 2.934 4.112 2.934 1.379 0 3.554-0.356 3.554-2.164 0-1.674-2.437-1.757-3.615-1.939-5.055-0.726-11.496-1.31-11.496-7.943 0-4.747 3.615-7.534 8.111-7.534 3.346 0 4.793 0.978 7.364 2.787l0.039-2.119h6.373z" fill="#00ab96"/></g></g></g></g></svg>
