<?xml version="1.0" encoding="UTF-8" standalone="no"?>
<!-- Created with Inkscape (http://www.inkscape.org/) -->
<svg xmlns:dc="http://purl.org/dc/elements/1.1/" xmlns:cc="http://creativecommons.org/ns#" xmlns:rdf="http://www.w3.org/1999/02/22-rdf-syntax-ns#" xmlns:svg="http://www.w3.org/2000/svg" xmlns="http://www.w3.org/2000/svg" xmlns:sodipodi="http://sodipodi.sourceforge.net/DTD/sodipodi-0.dtd" xmlns:inkscape="http://www.inkscape.org/namespaces/inkscape" width="1000" height="478.1127" id="svg2" version="1.1" inkscape:version="0.48.2 r9819" sodipodi:docname="Regina.svg">
  <defs id="defs4">
    <inkscape:perspective sodipodi:type="inkscape:persp3d" inkscape:vp_x="0 : 526.18109 : 1" inkscape:vp_y="0 : 1000 : 0" inkscape:vp_z="744.09448 : 526.18109 : 1" inkscape:persp3d-origin="372.04724 : 350.78739 : 1" id="perspective3030"/>
    <clipPath id="clipPath4151" clipPathUnits="userSpaceOnUse">
      <path inkscape:connector-curvature="0" id="path4153" d="m 0,0 595.276,0 0,685.984 L 0,685.984 0,0 z"/>
    </clipPath>
  </defs>
  <sodipodi:namedview id="base" pagecolor="#ffffff" bordercolor="#666666" borderopacity="1.0" inkscape:pageopacity="0.0" inkscape:pageshadow="2" inkscape:zoom="0.49497475" inkscape:cx="597.21745" inkscape:cy="160.82823" inkscape:document-units="px" inkscape:current-layer="layer1" showgrid="false" fit-margin-left="0.5" fit-margin-bottom="0.5" fit-margin-top="0.5" fit-margin-right="0.5" inkscape:window-width="1920" inkscape:window-height="1028" inkscape:window-x="-8" inkscape:window-y="-8" inkscape:window-maximized="1"/>
  <metadata id="metadata7">
    <rdf:RDF>
      <cc:Work rdf:about="">
        <dc:format>image/svg+xml</dc:format>
        <dc:type rdf:resource="http://purl.org/dc/dcmitype/StillImage"/>
        <dc:title/>
      </cc:Work>
    </rdf:RDF>
  </metadata>
  <g inkscape:label="Layer 1" inkscape:groupmode="layer" id="layer1" transform="translate(-1228.1723,771.89211)">
    <g transform="matrix(13.26054,0,0,-13.26054,745.00336,194.72442)" id="g4370" style="fill:#45bb9e;fill-opacity:1">
      <g id="g4131" transform="translate(45.1864,72.8565)" style="fill:#45bb9e;fill-opacity:1">
        <path inkscape:connector-curvature="0" d="m 0,0 -8.712,0 0,-4.332 17.576,0 C 7.594,-1.372 4.251,0 0,0" style="fill:#45bb9e;fill-opacity:1;fill-rule:nonzero;stroke:none" id="path4133"/>
      </g>
      <g id="g4135" transform="translate(54.6045,65.5388)" style="fill:#45bb9e;fill-opacity:1">
        <path inkscape:connector-curvature="0" d="m 0,0 c 0.001,0.175 -0.003,0.346 -0.011,0.515 l -18.119,0 0,-4.317 16.981,0 C -0.4,-2.844 -0.015,-1.606 0,0" style="fill:#45bb9e;fill-opacity:1;fill-rule:nonzero;stroke:none" id="path4137"/>
      </g>
      <g id="g4139" transform="translate(36.4743,59.2664)" style="fill:#45bb9e;fill-opacity:1">
        <path inkscape:connector-curvature="0" d="m 0,0 0,-4.309 15.829,0 L 13.178,0 0,0 z" style="fill:#45bb9e;fill-opacity:1;fill-rule:nonzero;stroke:none" id="path4141"/>
      </g>
      <g id="g4143" transform="translate(36.4743,48.1472)" style="fill:#45bb9e;fill-opacity:1">
        <path inkscape:connector-curvature="0" d="M 0,0 20.018,0 17.349,4.339 0,4.339 0,0 z" style="fill:#45bb9e;fill-opacity:1;fill-rule:nonzero;stroke:none" id="path4145"/>
      </g>
      <g id="g4147" style="fill:#45bb9e;fill-opacity:1">
        <g id="g4149" clip-path="url(#clipPath4151)" style="fill:#45bb9e;fill-opacity:1">
          <g id="g4155" transform="translate(71.0746,53.3569)" style="fill:#45bb9e;fill-opacity:1">
            <path inkscape:connector-curvature="0" d="m 0,0 c 0.504,0.646 0.692,1.497 0.692,2.3 0,0.551 -0.11,1.197 -0.346,1.701 -0.802,1.67 -2.297,1.907 -3.981,1.907 l -4.279,0 0,-11.123 2.517,0 0,3.844 1.676,0 2.316,-3.844 2.787,0 -2.553,4.239 C -0.747,-0.773 -0.356,-0.468 0,0 m -1.81,2.284 c 0,-0.63 -0.299,-1.166 -0.881,-1.433 -0.377,-0.174 -0.959,-0.174 -1.368,-0.174 -0.441,0 -0.897,0.016 -1.338,0.016 l 0,3.183 1.212,0 c 0.723,0 1.542,0.031 2.045,-0.599 0.22,-0.284 0.33,-0.63 0.33,-0.993 m 11.751,-4.099 0,0.394 c 0,2.522 -1.293,4.602 -4.019,4.602 -2.506,0 -4.129,-1.875 -4.129,-4.318 0,-2.506 1.544,-4.318 4.129,-4.318 1.797,0 3.341,0.851 3.924,2.6 L 7.514,-2.697 C 7.167,-3.312 6.71,-3.564 5.985,-3.564 c -1.072,0 -1.623,0.741 -1.765,1.749 l 5.721,0 z m -5.705,1.766 c 0.252,0.929 0.756,1.402 1.749,1.402 0.835,0 1.434,-0.583 1.513,-1.402 l -3.262,0 z m 12.245,2.994 0,-1.072 c -0.614,0.851 -1.261,1.293 -2.348,1.293 -2.222,0 -3.42,-1.955 -3.42,-3.988 0,-2.064 1.245,-3.877 3.451,-3.877 0.82,0 1.781,0.316 2.286,1.009 -0.016,-0.11 -0.016,-0.221 -0.016,-0.331 0,-1.198 -0.142,-2.049 -1.56,-2.049 -0.568,0 -1.104,0.189 -1.324,0.757 l -2.459,0 c 0.174,-2.002 1.86,-2.585 3.609,-2.585 1.466,0 3.121,0.363 3.751,1.86 0.237,0.567 0.268,1.213 0.268,1.828 l 0,7.155 -2.238,0 z m -0.063,-3.609 c 0,-1.088 -0.551,-2.065 -1.733,-2.065 -1.135,0 -1.703,0.946 -1.703,1.986 0,1.072 0.615,2.002 1.766,2.002 1.103,0 1.67,-0.899 1.67,-1.923 m 6.162,3.609 -2.301,0 0,-8.164 2.301,0 0,8.164 z m 0,2.963 -2.301,0 0,-2.096 2.301,0 0,2.096 z m 9.63,-7.013 c 0,2.442 -1.576,4.286 -4.082,4.286 -2.648,0 -4.366,-1.717 -4.366,-4.365 0,-2.506 1.592,-4.271 4.145,-4.271 2.538,0 4.303,1.828 4.303,4.35 m -2.38,0.094 c 0,-1.213 -0.41,-2.553 -1.844,-2.553 -1.403,0 -1.844,1.292 -1.844,2.474 0,1.214 0.473,2.412 1.876,2.412 1.371,0 1.812,-1.167 1.812,-2.333 m 10.906,-4.208 0,5.012 c 0,1.103 -0.158,2.096 -1.088,2.805 -0.488,0.379 -1.103,0.536 -1.717,0.536 -0.946,0 -1.687,-0.41 -2.254,-1.135 l 0,0.946 -2.27,0 0,-8.164 2.333,0 0,4.523 c 0,0.867 0.299,1.844 1.403,1.844 0.914,0 1.213,-0.772 1.213,-1.56 l 0,-4.807 2.38,0 z" style="fill:#45bb9e;fill-opacity:1;fill-rule:nonzero;stroke:none" id="path4157"/>
          </g>
          <g id="g4159" transform="translate(83.7677,41.9461)" style="fill:#45bb9e;fill-opacity:1">
            <path inkscape:connector-curvature="0" d="M 0,0 -1.168,0 -1.812,-2.613 -2.516,0 -3.714,0 -2.591,-3.144 c 0.06,-0.172 0.157,-0.367 0.157,-0.554 0,-0.128 -0.059,-0.315 -0.164,-0.397 -0.105,-0.083 -0.337,-0.098 -0.465,-0.098 -0.097,0 -0.194,0.008 -0.291,0.008 l 0,-0.869 c 0.097,0 0.194,-0.015 0.291,-0.015 0.48,0 1.086,-0.03 1.415,0.382 0.158,0.202 0.285,0.592 0.368,0.839 L 0,0 z m -0.464,1.632 -1.32,0 -0.537,-1.117 0.856,0 1.001,1.117 z m 9.724,-5.514 0,0.823 1.917,2.141 -1.699,0 0,0.914 3.069,0 0,-0.891 -1.857,-2.074 1.985,0 0,-0.913 -3.415,0 z m 6.342,0 0,2.171 c 0,0.247 0.015,0.547 -0.187,0.726 -0.105,0.098 -0.247,0.135 -0.39,0.135 -0.164,0 -0.299,-0.045 -0.426,-0.15 -0.262,-0.217 -0.247,-0.584 -0.247,-0.891 l 0,-1.991 -1.094,0 0,5.286 1.094,0 0,-1.805 c 0.172,0.307 0.726,0.487 1.055,0.487 0.255,0 0.562,-0.067 0.771,-0.217 0.45,-0.322 0.524,-0.756 0.524,-1.273 l 0,-2.478 -1.1,0 z m 2.965,0 -1.1,0 0,5.286 1.1,0 0,-5.286 z m 8.302,1.19 c 0,0.974 -0.958,1.146 -1.706,1.303 -0.203,0.045 -0.659,0.097 -0.659,0.374 0,0.277 0.329,0.315 0.539,0.315 0.21,0 0.449,-0.075 0.583,-0.247 0.06,-0.075 0.083,-0.225 0.098,-0.315 l 1.033,0.053 c -0.045,0.95 -0.846,1.317 -1.7,1.317 -0.785,0 -1.617,-0.314 -1.617,-1.227 0,-1.55 2.306,-0.989 2.306,-1.685 0,-0.307 -0.314,-0.36 -0.554,-0.36 -0.494,0 -0.756,0.143 -0.823,0.644 l -1.048,-0.037 c 0,-0.127 0.007,-0.232 0.037,-0.359 0.195,-0.802 1.018,-1.078 1.759,-1.078 0.846,0 1.752,0.299 1.752,1.302 m -4.096,0.971 c 0,0.315 0.015,0.765 -0.105,1.057 -0.285,0.674 -1.011,0.779 -1.655,0.779 -0.876,0 -1.603,-0.375 -1.655,-1.341 l 1.019,0 c -0.015,0.382 0.374,0.487 0.681,0.487 0.232,0 0.592,-0.06 0.592,-0.36 0,-0.277 -0.405,-0.292 -0.599,-0.322 -0.839,-0.12 -1.91,-0.217 -1.91,-1.318 0,-0.786 0.599,-1.251 1.348,-1.251 0.554,0 0.794,0.165 1.221,0.465 l 0.007,-0.352 1.057,0 -0.001,2.156 z M 21.68,-2.619 c -0.188,-0.322 -0.54,-0.502 -0.907,-0.502 -0.254,0 -0.517,0.12 -0.517,0.412 0,0.502 0.802,0.509 1.154,0.599 0.09,0.023 0.18,0.053 0.27,0.09 l 0,-0.599 z m -37.682,0.508 -1.235,0.082 c -0.007,-0.599 -0.569,-0.973 -1.13,-0.973 -0.3,0 -0.584,0.097 -0.816,0.284 -0.45,0.375 -0.539,0.966 -0.539,1.513 0,0.876 0.351,1.744 1.355,1.744 0.411,0 0.778,-0.157 0.988,-0.532 0.045,-0.089 0.09,-0.179 0.112,-0.276 l 1.19,0.082 c -0.014,0.127 -0.052,0.24 -0.089,0.359 -0.315,0.936 -1.25,1.363 -2.186,1.363 -1.655,0 -2.651,-1.13 -2.651,-2.748 0,-1.108 0.525,-2.193 1.595,-2.613 0.329,-0.127 0.689,-0.171 1.041,-0.171 0.861,0 1.662,0.314 2.103,1.085 0.143,0.247 0.233,0.524 0.262,0.801 m 4.111,-0.15 0,0.187 c 0,1.198 -0.614,2.186 -1.91,2.186 -1.19,0 -1.961,-0.89 -1.961,-2.051 0,-1.191 0.734,-2.051 1.961,-2.051 0.854,0 1.588,0.404 1.865,1.235 l -1.108,0.075 c -0.165,-0.292 -0.382,-0.412 -0.726,-0.412 -0.51,0 -0.772,0.352 -0.839,0.831 l 2.718,0 z m -1.161,0.838 -1.55,0 c 0.12,0.442 0.36,0.667 0.832,0.667 0.396,0 0.681,-0.277 0.718,-0.667 m 5.031,-1.265 c 0,0.974 -0.958,1.146 -1.707,1.303 -0.202,0.045 -0.659,0.098 -0.659,0.374 0,0.277 0.33,0.315 0.539,0.315 0.21,0 0.449,-0.075 0.584,-0.247 0.06,-0.075 0.083,-0.225 0.098,-0.315 l 1.033,0.053 c -0.045,0.95 -0.846,1.317 -1.7,1.317 -0.786,0 -1.617,-0.314 -1.617,-1.227 0,-1.55 2.306,-0.989 2.306,-1.685 0,-0.307 -0.314,-0.36 -0.554,-0.36 -0.494,0 -0.756,0.143 -0.823,0.645 l -1.048,-0.038 c 0,-0.127 0.007,-0.232 0.037,-0.359 0.195,-0.802 1.018,-1.078 1.759,-1.078 0.846,0 1.752,0.299 1.752,1.302 m 4.402,-1.19 -1.602,2.411 1.497,1.467 -1.429,0 -1.198,-1.325 0,2.733 -1.101,0 0,-5.286 1.101,0 0,1.288 0.359,0.359 0.974,-1.647 1.399,0 z m 8.415,2.935 0,1.003 C 4.729,0.067 4.669,0.075 4.601,0.075 4.078,0.075 3.785,-0.15 3.598,-0.636 l 0,0.636 -1.078,0 0,-3.878 1.131,0 0,1.265 c 0,0.195 0,0.397 0.007,0.592 0.015,0.628 0.105,1.1 0.876,1.1 0.09,0 0.173,-0.007 0.262,-0.022 m 4.193,-0.981 c 0,1.16 -0.749,2.036 -1.939,2.036 -1.258,0 -2.074,-0.816 -2.074,-2.074 0,-1.19 0.756,-2.028 1.969,-2.028 1.205,0 2.044,0.868 2.044,2.066 m -1.131,0.045 c 0,-0.577 -0.195,-1.213 -0.876,-1.213 -0.666,0 -0.876,0.614 -0.876,1.175 0,0.577 0.225,1.146 0.891,1.146 0.652,0 0.861,-0.554 0.861,-1.108 m -25.729,3.748 -1.286,0 -0.691,0.873 1.011,0 0.334,-0.506 0.319,0.506 1.027,0 -0.714,-0.873 z" style="fill:#45bb9e;fill-opacity:1;fill-rule:nonzero;stroke:none" id="path4161"/>
          </g>
        </g>
      </g>
    </g>
  </g>
</svg>