<?xml version="1.0" encoding="UTF-8"?>
<svg id="svg90" width="1189pt" height="800.37pt" version="1.1" viewBox="0 0 1189 800.37" xmlns="http://www.w3.org/2000/svg" xmlns:cc="http://creativecommons.org/ns#" xmlns:dc="http://purl.org/dc/elements/1.1/" xmlns:rdf="http://www.w3.org/1999/02/22-rdf-syntax-ns#">
 <metadata id="metadata96">
  <rdf:RDF>
   <cc:Work rdf:about="">
    <dc:format>image/svg+xml</dc:format>
    <dc:type rdf:resource="http://purl.org/dc/dcmitype/StillImage"/>
    <dc:title/>
   </cc:Work>
  </rdf:RDF>
 </metadata>
 <path id="path4573" d="m800.37 400.18a400.19 400.18 0 0 1-400.19 400.19 400.19 400.18 0 0 1-400.19-400.19 400.19 400.18 0 0 1 400.19-400.18 400.19 400.18 0 0 1 400.19 400.18z" fill="#33101e"/>
 <path id="path19" d="m332.94 33.54c13.68-1.99 27.56-1.88 41.36-1.61-8 1.95-16.13 3.23-24.22 4.63-34.29 6.92-67.91 17.34-99.84 31.68-48.53 21.82-93.24 51.87-132.56 87.67 10.29-14.84 22.91-27.91 36.18-40.1 43.81-39.4 98.08-67.43 155.98-78.81 7.58-1.86 15.38-2.45 23.1-3.46z" fill="#ef4d5c"/>
 <path id="path23" d="m215.36 110.36c47.33-30.22 103.56-47.94 159.99-45.12-21.37 3.66-42.67 8.03-63.36 14.62-62.39 18.74-119.49 53.02-167.9 96.34 18.93-26.53 44.1-48.11 71.27-65.84z" fill="#ef4d5c"/>
 <path id="path31" d="m220.79 146.76c44.39-32.28 99.39-51.2 154.55-48.36-31.39 5.45-62.4 13.72-91.72 26.31-41.36 17.26-79.18 42.23-112.93 71.58 13.59-19.32 31.16-35.55 50.1-49.53z" fill="#ef4d5c"/>
 <path id="path37" d="m251.07 166.08c36.52-23.53 80.17-36.97 123.8-34.49-8.74 2.07-17.67 3.32-26.32 5.78-47.49 11.54-92.28 33.43-131.12 63.01-6.87 5.07-13.3 10.69-20.01 15.95 14.07-20.3 33.11-36.74 53.65-50.25z" fill="#ef4d5c"/>
 <path id="path41" d="m270.11 193.17c31-19.77 68.07-30.8 104.96-28.35-39.7 7.7-78.21 22.14-112.44 43.79-13.72 8.43-26.46 18.31-39.05 28.33 12.15-17.7 28.56-32.17 46.53-43.77z" fill="#ef4d5c"/>
 <path id="path43" d="m289.83 219.83c25.31-15.62 55.41-24.2 85.23-21.76-34.9 7.5-68.74 20.68-98.67 40.26-9.17 5.83-17.75 12.52-26.45 19.02 10.25-15.32 24.33-27.8 39.89-37.52z" fill="#ef4d5c"/>
 <path id="path45" d="m311.38 245.47c19.29-10.81 41.79-16.47 63.91-14.21-21.43 5.41-42.45 12.76-62.05 23.03-13.01 6.57-24.95 14.95-36.83 23.34 8.6-13.55 21.11-24.27 34.97-32.16z" fill="#ef4d5c"/>
 <path id="path47" d="m333.27 271.39c13.07-6 27.79-8.92 42.12-6.98-15.83 5.39-31.79 10.62-46.68 18.32-9.06 4.48-17.52 10.01-26.03 15.44 6.86-12.03 18.15-21.03 30.59-26.78z" fill="#ef4d5c"/>
 <path id="path4573-8" d="m509.96 400.18a109.77 109.77 0 0 1-109.77 109.77 109.77 109.77 0 0 1-109.77-109.77 109.77 109.77 0 0 1 109.77-109.77 109.77 109.77 0 0 1 109.77 109.77z" fill="#ef4d5c"/>
 <path id="path63" d="m302.69 505.88c13.41 8.85 27.4 16.95 42.38 22.87 9.89 4.2 20.21 7.21 30.29 10.9-15.08 1.93-30.55-1.28-44.11-7.98-11.62-5.76-22.08-14.44-28.56-25.79z" fill="#ef4d5c"/>
 <path id="path65" d="m276.38 526.36c12.26 8.73 24.69 17.33 38.2 24.07 19.21 9.85 39.69 17.18 60.67 22.2-16.03 2.02-32.34-0.91-47.42-6.4-20.53-7.8-39.5-21.2-51.45-39.87z" fill="#ef4d5c"/>
 <path id="path67" d="m250.04 546.82c12.86 9.67 25.82 19.3 39.91 27.15 26.4 15.11 55.33 25.59 85.03 31.95-34.84 2.88-70.04-9.22-97.58-30.35-10.48-8.15-20-17.66-27.36-28.75z" fill="#ef4d5c"/>
 <path id="path71" d="m223.55 567.07c12.59 10 25.31 19.88 39.01 28.32 34.31 21.68 72.9 36.19 112.7 43.85-36.22 2.37-72.63-8.12-103.29-27.2-18.74-11.77-35.81-26.67-48.42-44.97z" fill="#ef4d5c"/>
 <path id="path75" d="m197.44 587.77c11.79 9.5 23.53 19.1 36.16 27.49 34.95 23.84 74.15 41.49 115.28 51.48 8.57 2.4 17.38 3.72 26.06 5.65-51.59 2.98-103.12-16.14-143.05-48.37-12.95-10.55-24.96-22.45-34.45-36.25z" fill="#ef4d5c"/>
 <path id="path83" d="m170.66 607.69c28.07 24.4 58.86 45.86 92.33 62.2 29.42 14.67 60.83 25.14 92.94 32.05 6.47 1.18 12.94 2.38 19.39 3.69-32.37 1.7-64.91-4.2-95.06-15.88-30.87-11.97-59.45-29.83-83.61-52.47-9.57-9.01-18.47-18.8-25.99-29.59z" fill="#ef4d5c"/>
 <path id="path85" d="m144.4 628.21c47.78 42.44 103.74 76.34 165 95.19 21.47 6.81 43.5 11.76 65.76 15.21-32.81 2.13-65.73-3.78-96.76-14.24-35.18-12.35-68.1-31.19-96.34-55.55-13.93-12.14-27.05-25.42-37.66-40.61z" fill="#ef4d5c"/>
 <path id="path87" d="m117.64 648.07c61.27 55.91 136.15 97.89 217.38 116.02 13.19 3.62 26.84 5.02 40.14 8.11-15.42 0.16-30.92 0.21-46.2-2.2-11.9-0.98-23.47-3.97-35.1-6.48-44.8-11.45-87.04-32.59-123.32-61.24-19.78-15.75-38.3-33.47-52.9-54.21z" fill="#ef4d5c"/>
 <path id="path3" d="m388.13 2.3e-4 800.81 0.53 0.01 799.84h-800.82l2.4e-4 -799.31v-1.06" fill="#efd4ba"/>
 <path id="path21" d="m986.05 36.01 33.47-4.93c-2.5622 7.5578-3.38 10.4-6.42 14.96-5.11 7.95-9.94 16.08-15.07 24.02-2.44 3.79-6.75 5.89-11.17 6.17-6.64 0.79-13.24 1.91-19.85 2.86 4.97-14.95 12.72-28.71 19.04-43.08z" fill="#ef4d5c"/>
 <path id="path25" d="m998.64 78.77 32.68-4.76c0.09 19.31-0.18 38.62 0.09 57.94 0.15 8.79-1.01 17.59-3.45 26.03-3.44 12.44-9.87 23.72-16.06 34.95-2.49 4.56-5.37 9-6.8 14.04-1.27 4.18-1.2597 8.6-1.2397 12.94v65.19c-11.336 5.4156-19.119 5.2497-32.63 6.71v-70.88c0.12-5.48-0.43-11.21-3.33-16-7.9-12.4-17.12-24.47-21.01-38.89-3.39-11.72-2.29-24.02-2.38-36.04 0.02-14.62-0.01-29.23-0.05-43.84l32.74-4.75c0.03 17.85-0.04 35.71 0.02 53.57 0.13 7.64-0.34 15.44 1.7 22.9 1.63 6.59 4.86 12.62 8.56 18.26 6.74-11.89 11.55-25.29 11.22-39.11-0.4-19.42 0.01-38.84-0.06-58.26z" fill="#ef4d5c"/>
 <path id="path27" d="m604.48 92.41 27.45-4.05c-7.07 12.75-14.06 25.55-21.35 38.17-1.56 2.91-4.47 4.83-7.65 5.52-5.9 1.41-11.96 1.9-17.93 2.86-8.48-11.94-16.92-23.9-25.35-35.88l28.22-4.16c2.58 3.58 5.16 7.17 7.72 10.77 3.02-4.37 5.96-8.8 8.89-13.23z" fill="#ef4d5c"/>
 <path id="path29" d="m894.19 93.95 32.82-4.77v29.82c-0.21 12.43 0.73998 25.14-2.81 37.23-3.51 13.86-11.8 25.75-20.73 36.66 4.69 5.15 9.56 10.2 13.38 16.06 7.76 11.39 10.77 25.4 10.05 39.04l-0.03 48.76-33.27 5.75v-59.76c-0.85-9.53-6.0198-17.94-12.32-24.87-2.9372 2.9372-5.99 5.75-7.75 9.49-0.43344 3.75-0.50869 7.0595-0.59 11.52-0.09 22.03-0.04 44.07-0.06 66.1-10.32 1.4-22.57 2.81-32.9 4.19v-206.48l25.02-5.03c3.7582-1.007 7.88 2.36 7.67 6.24 0.1 26.36-0.03 52.74 0.06 79.1 10.17-12.07 20.28-25.69 21.22-42.07 0.56-15.65 0.09-31.32 0.24-46.98z" fill="#ef4d5c"/>
 <path id="path33" d="m765.04 111.1c12.56-5.51 27.58-6.46 40.15-0.49 7.51 3.52 13.15 10.37 15.7 18.2 3.87 11.41 2.44 23.63 2.6 35.46-8.2265 4.1168-18.117 6.5694-31.94 5.09-0.82-9.02-0.87-18.12-2.24-27.07-0.69-4.21-5.65-5.37-9.25-4.86-5.35 0.48-10.27 4.96-10.27 10.51-0.62 10-0.53 20.06 0.15 30.05 0.06 4.66 2.94 8.72 6.64 11.33 8.3 5.88 17.17 10.9 25.75 16.35 11.57 7.53 19.06 20.51 20.4 34.18 1.23 13.66 1 27.47-0.61 41.09-1.12 9.88-6.1982 19.15-12.81 26.33-4.2866 4.6547-10.491 7.2406-16.33 9.68-5.4086 2.2597-11.153 4.2297-17.01 4.46-6.7412 0.26508-14.068-0.22294-19.92-3.58-7.9817-4.5789-15.39-11.83-17.93-20.99-3.24-11.8-2.5-24.18-1.98-36.27l33.24-4.57c0.11 8.66-0.18 17.34 0.12 26 0.17 3.01 0.9 7.12 4.45 7.78 3.93 0.54 8.21-0.05 11.61-2.18 3.37-2.41 3.98-6.85 4.54-10.65 1.35-10.59 0.88-21.35-0.74-31.88-0.65-4.36-2.71-8.51-6.03-11.44-10.38-8.61-23.09-13.98-33.28-22.83-8.13-7.17-12.6-17.68-13.42-28.38-0.83-7.47-0.87-15.02-0.39-22.51 0.53-7.84 0.33-15.95 3.32-23.35 4.36-11.65 14.14-20.69 25.48-25.46z" fill="#ef4d5c"/>
 <path id="path35" d="m654.07 128.55 71.38-10.2-0.01 29.76-38.33 5.49-0.56 57.86 34-4.35 0.33 29.58-34.04 4.7-0.06 58.71 38.73-4.95v29.861l-71.44 8.8788v-205.34z" fill="#ef4d5c"/>
 <path id="path39" d="m595.87 133.79c10.31-1.87 21.64-0.26 30.08 6.26 6.5 5.04 12.09 12.29 12.59 20.78 0.67 10.46 0.21 20.97 0.09 31.45-10.75 1.44-21.47 3.03-32.21 4.55 0-7.98 0.11-15.96-0.02-23.94-0.18-2.69-0.13-6.15-2.83-7.64-5.6-3.09-13.41-0.7-16.3 5.02-2.66 5.14-2 11.12-2.08 16.71-0.12 37.99-0.02 75.98-0.06 113.96 0.14 4.52 0.16 9.83 3.63 13.22 2.97 2.09 6.94 0.86 10.14-0.08 4.46-1.34 7.15-5.87 7.4-10.34 0.5-8.2 0.06-16.41 0.17-24.62l32.43-5.48c0.03 12.44 2.04 25.12-1.08 37.36-3.07 13.47-14.806 22.833-25.96 29.88-5.5285 3.4928-12.373 4.8559-18.9 5.26-6.2362 0.38606-12.86-0.15747-18.54-2.76-7.0498-3.23-12.979-8.9773-17.62-15.19-2.149-2.877-4.4302-6.229-4.43-9.82l0.01-145.81c4e-4 -5.9036 3.7082-11.206 6.85-16.29 7.8909-12.77 22.22-20.1 36.64-22.48z" fill="#ef4d5c"/>
 <path id="path33-1" d="m1021.4 308.23c12.566-5.577 27.593-6.5386 40.168-0.49596 7.5134 3.5628 13.156 10.496 15.707 18.421 3.8718 11.549 2.4411 23.917 2.6012 35.891-8.2303 4.1669-18.126 6.6493-31.955 5.1519-0.8203-9.1298-0.8704-18.34-2.241-27.399-0.6903-4.2612-5.6526-5.4353-9.2542-4.9191-5.3525 0.48584-10.275 5.0204-10.275 10.638-0.6203 10.122-0.5303 20.304 0.15 30.416 0.06 4.7167 2.9414 8.8261 6.6431 11.468 8.3038 5.9515 17.178 11.033 25.762 16.549 11.575 7.6216 19.069 20.76 20.409 34.596 1.2305 13.826 1.0004 27.804-0.6103 41.59-1.1205 10-6.2011 19.383-12.816 26.65-4.2886 4.7113-10.496 7.3287-16.338 9.7978-5.4111 2.2872-11.158 4.2811-17.018 4.5143-6.7443 0.26831-14.075-0.22566-19.929-3.6236-7.9853-4.6346-15.397-11.974-17.938-21.245-3.2415-11.944-2.5011-24.474-1.9809-36.711l33.255-4.6256c0.11 8.7654-0.1801 17.551 0.12 26.316 0.1701 3.0466 0.9004 7.2066 4.4521 7.8747 3.9318 0.54657 8.2137-0.0506 11.615-2.2065 3.3715-2.4393 3.9818-6.9333 4.5421-10.78 1.3506-10.719 0.8804-21.61-0.7404-32.268-0.6503-4.413-2.7112-8.6135-6.0327-11.579-10.385-8.7148-23.101-14.15-33.295-23.108-8.1337-7.2572-12.606-17.895-13.426-28.725-0.8303-7.5609-0.8704-15.203-0.3901-22.784 0.5302-7.9354 0.3301-16.144 3.3215-23.634 4.362-11.792 14.146-20.942 25.492-25.77z" fill="#ef4d5c" stroke-width="1.0063"/>
 <path id="path53" d="m919.03 323.31 32.36-4.29v178.55l37.86-4.69v29.95l-70.24 8.65z" fill="#ef4d5c"/>
 <path id="path55" d="m864.63 330.44 31.44-4.21c0.74 4.55 1.34 9.2973 1.34 13.76-0.07 47.99 0.1 95.97-0.09 143.95-0.04 9.02 0.58 18.27-2.2 27-2.61 8.95-8.24 17.03-15.93 22.33-5.5 4.02-11.848 6.6523-18.31 8.56-3.4917 1.0309-7.1812 1.6072-10.82 1.49-6.9501-0.22388-14.13-0.91-20.44-4.17-8.64-4.01-14.93-12.16-17.43-21.26-2.01-6.45-1.79-13.28-1.75-19.95 0.02-53.39-0.01-106.78 0.02-160.17l32.8-4.38c0.02 50.86-0.04 101.72 0.03 152.58 0.22 6.6-0.54 13.31 0.92 19.81 0.58 2.55 1.91 5.48 4.78 6.03 4.73 0.76 10.34-0.48 13.25-4.59 2.16-2.93 2.37-6.72 2.41-10.22-0.03-55.52 0.01-111.04-0.02-166.56z" fill="#ef4d5c"/>
 <path id="path57" d="m741.84 346.44c9.84-1.09 20.07-3.11 29.75 0.03 8.57 2.58 15.96 8.92 19.56 17.15 2.55 5.41 3.25 11.45 3.22 17.38 0.03 15.32 0.04 30.64-0.03 45.97 0.03 5.99 0.15 12.11-1.59 17.91-4.4 15.5-17.97 27.89-33.76 30.96-6.08 1.13-12.26 1.6-18.38 2.44l-0.05 73.2c-1.105 1.914-5.45 3.24-8.62 3.54l-23.92 2.9 0.01-206.51c11.19-2.18 22.53-3.4 33.81-4.97m-0.98 30.48 0.44 71.07c4.47-0.59 9.08-0.69 13.36-2.22 4.71-1.79 7.25-6.91 7.02-11.77 0.05-16.38 0-32.76 0.03-49.13 0.1-3.55-0.96-7.95-4.81-9.08-5.33-1.04-10.73 0.59-16.04 1.13z" fill="#ef4d5c"/>
 <path id="path59" d="m635.62 359.57c11.44-5.34 25.62-5.46 36.53 1.24 9.41 5.56 15.34 16.2 15.48 27.08 0.43 18 0.18 36.01 0.2 54.02v118.03l-32.76 4.04v-169.99c0.28-3.48-1.85-7.1-5.44-7.72-5.95-0.88-11.4 4.84-10.96 10.7l0.02 167.98-29.92 5.41c-1.0705-0.61803-3.58-4.56-3.68-7.45v-157.98c-0.16-3.31 0.46-6.92-1.02-10-3.22-3.31-9.44-2.66-12.27 0.93-3.03 3.63-2.94 8.67-3.15 13.14l-0.08 163.27-32.68 3.97v-156.28c0.05-9.95-0.74976-20.35 3.2902-29.72 8.11-19.56 31.19-30.69 51.68-26.9 3.81 0.53 7.1 3.05 10.83 3.6 4.82-2.09 9.04-5.37 13.93-7.37z" fill="#ef4d5c"/>
 <path id="path61" d="m502.79 378.8 31.04-4.13v204.46l-28.15 3.53c-1.9254-0.5159-4.1397-2.3444-4.1397-6.76-0.12-62.65 0.08-125.31 0-187.96-0.01-3.1 0.58448-7.9877 1.2497-9.14z" fill="#ef4d5c"/>
 <path id="path69" d="m972.05 562.26c6.6366 0.33966 10.302 2.9675 12.69 4.91 5.06 3.94 7.97 10.34 7.9 16.73l0.01 127.15-16.4 1.88v-123.97c0-5.4731-2.49-9.52-7.31-9.86-3.3957-0.15788-6.3658 1.2192-8.0135 4.7262-0.76194 1.4401-0.7724 2.6221-0.79262 4.2517l-0.18385 14.822-0.01 111.83-17.55 1.97c0-41.58-0.02-83.16 0.01-124.75-0.14-2.31-0.13-4.92-1.72-6.76-1.85-1.97-4.85-2.38-7.37-1.83-2.93 0.78-4.79 3.5-5.86 6.17-1.92 4.92-1.28 10.3-1.38 15.47l-0.06 113.7-16.31 1.92-0.08-123.67c-0.3-7.19 2.65-14.03 6.47-19.95 5.74-6.74 14.58-11.11 23.53-10.57 4.2 0.35 7.6 3.02 11.38 4.58 3.76-1.8 6.82-4.76 10.63-6.49 3.4223-1.7678 6.0552-2.2991 10.42-2.26z" fill="#ef4d5c"/>
 <path id="path73" d="m849.21 581.17c6.21-4.34 13.87-7.04 21.51-6 10.69 0.89 19.89 10.92 19.21 21.77l0.01 125.78-16.36 1.86-0.03-56.16-19.3 2.35-0.35 56.05-16.58 2.01 0.12-123.94c0.04-9.18 4.37-18.22 11.77-23.72m6.52 16.5c-1.9 3.04-1.94 6.76-2 10.24 0.07 15.39 0.01 30.78 0.04 46.17l19.75-2.32c-0.04-17.28 0.04-34.55-0.02-51.82 0.29-3.91-2.76-7.42-6.55-8.05-4.55-1.04-8.95 2.02-11.22 5.78z" fill="#ef4d5c"/>
 <path id="path77" d="m766.77 589.72 14.42-1.73 0.01 146.89-16.25 1.87 0.02-121.1c-4.34 8.2-12.77 14.1-21.88 15.65v-15.86c10.81-5.12 19.15-14.74 23.68-25.72z" fill="#ef4d5c"/>
 <path id="path79" d="m686.35 601.39c4.1921-3.3484 9.5874-6.009 15.236-6.5889 1.0049-0.14029 1.8327-0.17396 2.7918-0.21492 7.9379-0.40841 16.424 3.4838 20.083 10.764 1.69 3.29 3.2203 5.2872 3.2203 10.59v28.08c-0.46 9.74-7.2403 17.43-13.82 23.95 3.78 2.81 8.12 5.25 10.59 9.42 2.51 4.04 3.1903 8.89 3.2303 13.56 0.07 9.36 0.11973 18.72-0.0903 28.08-0.15 6.2-2.3915 12.346-6.5 17.06-4.9121 5.6364-11.826 9.73-19.17 10.44-5.9629 0.57647-12.475-0.35469-17.59-3.9-4.1055-2.8453-6.36-7.51-7.94-12.07-1.86-5.33-1.2402-11.05-1.3702-16.57 0.07-7.28-0.28977-14.6 0.59023-21.84 1.25-8.81 8.26-14.97 13.44-21.65-4.4-4.77-10.56-8.42-12.52-14.96-1.6842-5.7221-1.5534-11.682-1.535-17.624l0.0247-7.9656c-0.28-10.38 2.6902-22.01 11.33-28.56m14.84 9.79c-4.3 0.57-7.23 4.43-8.74 8.21-0.72217 2.2378-0.9387 4.5501-0.98421 6.8832l0.0671 17.216c0.23973 3.8621 1.0247 7.6126 3.3579 10.77 1.3661 1.562 2.8269 3.397 4.3067 4.5467l2.4369 1.85c3.38-2.85 6.4656-7.2858 8.7556-11.056 0.72933-2.0439 0.78265-4.1698 0.81058-6.321v-23.628c-0.0872-1.4668 0.0545-2.3913-0.59496-4.0632-1.6077-3.4009-5.8844-4.7924-9.4157-4.408m0.16 67.25c-5 3.5078-7.76 8.1-9.07 13.59-1.39 5.87-1.1211 11.562-1.1211 17.92 0.03 5.45-0.32375 11.349 2.5711 16.29 1.0967 1.8718 3.0185 3.2065 5.25 3.17 3.2696-0.0535 7.0286-0.18366 9.23-3.18 3.9338-5.3543 3.6822-12.346 3.7022-18.476-0.28-6-0.11224-11.874-0.99224-17.834-0.93-5.24-4.96-9.21-9.57-11.48z" fill="#ef4d5c"/>
 <path id="path81" d="m606.64 618.62c5.37-10 17.07-15.64 28.19-15.26 6.18 0.19 11.46 3.93 15.74 8.07 3.53 3.54 4.77 8.66 4.75 13.53 0.04 31.99-0.04 63.98 0.03 95.96 0.15 6.23-0.1798 12.736-3.1 18.37-4.73 9.1261-14.686 15.734-25.01 15.37-4.4344-0.15644-9.1678-0.43959-13.05-2.92-7.8901-5.0411-12.08-14.64-11.54-23.79 0.08-4.45 0.05-8.89 0.02-13.33l16.47-1.95 0.1073 13.851c0.0229 2.9571 0.45777 6.4023 2.5427 8.4995 2.0347 2.0467 5.5323 3.4125 8.28 2.53 4.6299-1.4871 8.8614-6.7271 8.86-11.59l-0.01-35.22c-2.3056 2.3056-4.0548 4.4336-7.85 4.74-7.8 0.76-16.83-0.08-22.21-6.5-3.94-5.07-6.62-11.5-6.22-18 0.09-11 0.08-21.99 0.02-32.98-0.28-6.64 0.74-13.5 3.98-19.38m20.67 1.74c-5.11 1.79-8.14 7.28-8.12 12.54-0.15 12.03-0.16 24.07 0.04 36.1-0.1 4.06 2.13 8.15 5.99 9.69 4.14 1.95 8.99-0.34 11.62-3.7 2.07-2.53 2.09-5.95 2.14-9.04 0-11.34-0.21-22.67-0.01-34-0.08-3.11 0.21-6.58-1.8-9.18-2.2-3.03-6.54-3.25-9.86-2.41z" fill="#ef4d5c"/>
</svg>
