<?xml version="1.0" encoding="UTF-8" standalone="no"?>
<!-- Created with Inkscape (http://www.inkscape.org/) -->

<svg
   xmlns:dc="http://purl.org/dc/elements/1.1/"
   xmlns:cc="http://creativecommons.org/ns#"
   xmlns:rdf="http://www.w3.org/1999/02/22-rdf-syntax-ns#"
   xmlns:svg="http://www.w3.org/2000/svg"
   xmlns="http://www.w3.org/2000/svg"
   xmlns:sodipodi="http://sodipodi.sourceforge.net/DTD/sodipodi-0.dtd"
   xmlns:inkscape="http://www.inkscape.org/namespaces/inkscape"
   version="1.1"
   id="svg2"
   xml:space="preserve"
   width="246.36932"
   height="99.791245"
   viewBox="0 0 246.36932 99.791245"
   sodipodi:docname="Cesky rozhlas Dvojka.svg"
   inkscape:version="0.92.0 r15299"><metadata
     id="metadata8"><rdf:RDF><cc:Work
         rdf:about=""><dc:format>image/svg+xml</dc:format><dc:type
           rdf:resource="http://purl.org/dc/dcmitype/StillImage" /><dc:title></dc:title></cc:Work></rdf:RDF></metadata><defs
     id="defs6" /><sodipodi:namedview
     pagecolor="#ffffff"
     bordercolor="#666666"
     borderopacity="1"
     objecttolerance="10"
     gridtolerance="10"
     guidetolerance="10"
     inkscape:pageopacity="0"
     inkscape:pageshadow="2"
     inkscape:window-width="716"
     inkscape:window-height="480"
     id="namedview4"
     showgrid="false"
     fit-margin-top="0"
     fit-margin-left="0"
     fit-margin-right="0"
     fit-margin-bottom="0"
     inkscape:zoom="0.55251197"
     inkscape:cx="245.66934"
     inkscape:cy="43.098574"
     inkscape:window-x="0"
     inkscape:window-y="0"
     inkscape:window-maximized="0"
     inkscape:current-layer="g10" /><g
     id="g10"
     inkscape:groupmode="layer"
     inkscape:label="CRo-Dvojka-H-RGB"
     transform="matrix(1.3333333,0,0,-1.3333333,-75.590665,245.66933)"><g
       id="g12"
       transform="translate(240.095,154.797)"><path
         d="m 0,0 c 0,1.905 0.091,4.627 -0.635,6.396 -1.724,4.082 -6.123,4.717 -10.024,4.717 -5.307,0 -9.707,-2.268 -10.024,-8.119 h 6.168 c -0.09,2.313 2.268,2.948 4.128,2.948 1.406,0 3.583,-0.363 3.583,-2.177 0,-1.679 -2.449,-1.769 -3.628,-1.951 -5.081,-0.725 -11.567,-1.315 -11.567,-7.983 0,-4.762 3.629,-7.575 8.165,-7.575 3.356,0 4.808,0.998 7.393,2.813 l 0.045,-2.132 6.4,0.001 z m -6.622,-5.443 c -1.134,-1.95 -3.266,-3.039 -5.489,-3.039 -1.542,0 -3.129,0.726 -3.129,2.495 0,3.039 4.853,3.084 6.985,3.628 0.544,0.136 1.088,0.318 1.633,0.545 z m -118.064,24.268 c 3.795,0 7.544,-0.316 10.707,-2.666 4.201,-3.117 5.782,-8.312 5.782,-13.327 0,-6.054 -2.62,-12.288 -8.493,-14.728 -2.62,-1.084 -5.466,-1.174 -8.267,-1.174 h -10.256 v 31.895 z m -3.389,-25.977 h 2.124 c 4.969,0 10.119,0.226 10.119,10.3 0,3.027 -0.722,7.138 -3.704,8.719 -1.852,0.994 -4.518,0.994 -6.596,0.994 h -1.943 z m 35.871,-5.918 h -6.37 l -8.087,23.401 h 7.093 l 4.292,-14.501 3.885,14.501 h 7.047 z m 20.059,-0.678 c -7.319,0 -11.882,5.06 -11.882,12.243 0,7.59 4.925,12.514 12.514,12.514 7.183,0 11.701,-5.286 11.701,-12.288 0,-7.228 -5.06,-12.469 -12.333,-12.469 z m 0.316,19.426 c -4.021,0 -5.376,-3.433 -5.376,-6.912 0,-3.388 1.265,-7.093 5.286,-7.093 4.111,0 5.285,3.84 5.285,7.319 0,3.343 -1.264,6.686 -5.195,6.686 z m 22.137,7.229 h -6.5959 v 5.9182 h 6.5959 z m -6.596,0 z m 6.596,-2.576 v -24.124 c 0,-5.421 -3.027,-6.732 -7.861,-6.732 h -2.711 v 5.602 h 0.226 c 1.897,0 3.75,0.046 3.75,2.485 v 22.769 z m 27.061,0 -9.036,-8.854 9.668,-14.547 h -8.448 l -5.873,9.939 -2.168,-2.169 v -7.77 h -6.642 v 31.895 h 6.642 V 2.335 l 7.228,7.996 h 8.629"
         style="fill:#85248f;fill-opacity:1;fill-rule:nonzero;stroke:none"
         id="path14"
         inkscape:connector-curvature="0" /></g><g
       id="g16"
       transform="translate(56.693,149.2)"><path
         d="m 0,0 h 29.854 l 4.593,-7.467 H 0 Z M 0,11.667 V 4.252 h 27.237 l -4.56,7.415 z m 29.22,4.252 H 0 v 7.428 h 31.178 c 0.015,-0.291 0.023,-0.585 0.02,-0.886 -0.026,-2.764 -0.687,-4.895 -1.978,-6.542 M 14.991,35.052 H 0 v -7.453 h 30.245 c -2.185,5.092 -7.94,7.453 -15.254,7.453"
         style="fill:#85248f;fill-opacity:1;fill-rule:nonzero;stroke:none"
         id="path18"
         inkscape:connector-curvature="0" /></g><g
       id="g20"
       transform="translate(164.409,123.947)"><path
         d="M 0,0 H -3.351 L -5.196,-7.494 -7.215,0 h -3.436 l 3.22,-9.018 c 0.172,-0.494 0.452,-1.052 0.452,-1.589 0,-0.365 -0.172,-0.901 -0.472,-1.138 -0.302,-0.237 -0.967,-0.28 -1.333,-0.28 -0.278,0 -0.557,0.022 -0.836,0.022 v -2.492 c 0.279,0 0.558,-0.042 0.836,-0.042 1.375,0 3.115,-0.087 4.058,1.095 0.452,0.58 0.818,1.697 1.054,2.405 z m -1.33,4.681 h -3.786 l -1.54,-3.204 h 2.455 z m 27.889,-15.815 v 2.362 l 5.497,6.14 h -4.875 v 2.621 h 8.805 V -2.566 L 30.66,-8.514 h 5.691 v -2.62 z m 18.187,0 v 6.227 c 0,0.709 0.043,1.568 -0.536,2.083 -0.301,0.279 -0.709,0.386 -1.118,0.386 -0.471,0 -0.857,-0.128 -1.223,-0.429 -0.752,-0.623 -0.708,-1.675 -0.708,-2.555 v -5.712 h -3.136 v 15.16 h 3.136 v -5.175 c 0.493,0.88 2.082,1.396 3.027,1.396 0.731,0 1.61,-0.194 2.212,-0.623 1.288,-0.923 1.501,-2.169 1.501,-3.651 v -7.107 z m 8.503,0 h -3.156 v 15.16 h 3.156 z m 23.812,3.414 c 0,2.792 -2.748,3.286 -4.895,3.736 -0.58,0.13 -1.889,0.28 -1.889,1.074 0,0.794 0.945,0.901 1.545,0.901 0.602,0 1.288,-0.214 1.675,-0.708 0.171,-0.214 0.236,-0.644 0.279,-0.901 l 2.963,0.15 c -0.129,2.726 -2.426,3.779 -4.874,3.779 -2.254,0 -4.639,-0.902 -4.639,-3.521 0,-4.445 6.614,-2.836 6.614,-4.832 0,-0.88 -0.9,-1.031 -1.588,-1.031 -1.418,0 -2.169,0.408 -2.362,1.847 l -3.006,-0.107 c 0,-0.365 0.02,-0.666 0.107,-1.03 0.558,-2.299 2.92,-3.093 5.045,-3.093 2.427,0 5.025,0.859 5.025,3.736 m -11.747,2.785 c 0,0.903 0.042,2.192 -0.302,3.029 -0.816,1.934 -2.899,2.235 -4.745,2.235 -2.514,0 -4.598,-1.074 -4.748,-3.846 h 2.922 c -0.044,1.095 1.073,1.396 1.954,1.396 0.665,0 1.696,-0.171 1.696,-1.03 0,-0.795 -1.16,-0.838 -1.718,-0.923 -2.406,-0.344 -5.477,-0.624 -5.477,-3.782 0,-2.254 1.718,-3.587 3.866,-3.587 1.589,0 2.278,0.473 3.501,1.333 l 0.022,-1.009 h 3.031 z m -3.137,-2.576 c -0.537,-0.924 -1.547,-1.44 -2.599,-1.44 -0.731,0 -1.483,0.344 -1.483,1.182 0,1.439 2.3,1.46 3.309,1.718 0.258,0.064 0.515,0.15 0.773,0.257 z m -108.07,1.456 -3.542,0.236 c -0.022,-1.718 -1.632,-2.79 -3.242,-2.79 -0.86,0 -1.676,0.278 -2.341,0.815 -1.288,1.074 -1.546,2.77 -1.546,4.338 0,2.512 1.009,5.002 3.887,5.002 1.18,0 2.233,-0.45 2.833,-1.525 0.13,-0.257 0.258,-0.515 0.323,-0.794 l 3.414,0.236 c -0.043,0.366 -0.151,0.688 -0.258,1.03 -0.901,2.685 -3.585,3.909 -6.27,3.909 -4.745,0 -7.6,-3.242 -7.6,-7.881 0,-3.178 1.503,-6.291 4.573,-7.493 0.944,-0.365 1.975,-0.493 2.985,-0.493 2.469,0 4.766,0.902 6.033,3.113 0.408,0.708 0.666,1.503 0.751,2.297 m 11.789,-0.43 v 0.538 c 0,3.434 -1.761,6.27 -5.476,6.27 -3.414,0 -5.625,-2.555 -5.625,-5.884 0,-3.415 2.103,-5.883 5.625,-5.883 2.448,0 4.553,1.159 5.347,3.542 l -3.178,0.215 c -0.473,-0.838 -1.095,-1.18 -2.082,-1.18 -1.461,0 -2.213,1.009 -2.406,2.382 z m -3.328,2.405 h -4.446 c 0.344,1.267 1.031,1.912 2.385,1.912 1.137,0 1.953,-0.794 2.061,-1.912 m 14.429,-3.628 c 0,2.792 -2.749,3.286 -4.896,3.736 -0.58,0.129 -1.89,0.28 -1.89,1.074 0,0.794 0.945,0.901 1.546,0.901 0.602,0 1.288,-0.214 1.675,-0.708 0.172,-0.215 0.236,-0.644 0.279,-0.902 l 2.964,0.151 c -0.129,2.726 -2.427,3.779 -4.875,3.779 -2.254,0 -4.638,-0.903 -4.638,-3.522 0,-4.445 6.614,-2.835 6.614,-4.832 0,-0.88 -0.902,-1.03 -1.59,-1.03 -1.416,0 -2.168,0.408 -2.361,1.847 l -3.006,-0.107 c 0,-0.366 0.021,-0.666 0.107,-1.031 0.558,-2.299 2.92,-3.092 5.046,-3.092 2.426,0 5.025,0.859 5.025,3.736 m 12.624,-3.414 -4.594,6.914 4.294,4.208 h -4.101 l -3.435,-3.8 v 7.837 h -3.157 v -15.159 h 3.157 v 3.693 l 1.03,1.031 2.792,-4.724 z m 24.134,8.417 v 2.877 c -0.192,0.022 -0.364,0.042 -0.558,0.042 -1.502,0 -2.34,-0.643 -2.877,-2.038 V 0 H 7.228 v -11.122 h 3.243 v 3.628 c 0,0.559 0,1.138 0.021,1.697 0.043,1.803 0.301,3.156 2.513,3.156 0.257,0 0.493,-0.021 0.75,-0.064 M 25.78,-5.518 c 0,3.328 -2.147,5.841 -5.561,5.841 -3.608,0 -5.948,-2.341 -5.948,-5.949 0,-3.414 2.169,-5.818 5.646,-5.818 3.458,0 5.863,2.491 5.863,5.926 m -3.242,0.129 c 0,-1.653 -0.559,-3.478 -2.512,-3.478 -1.912,0 -2.514,1.76 -2.514,3.371 0,1.653 0.645,3.285 2.555,3.285 1.869,0 2.471,-1.589 2.471,-3.178 M -51.254,5.36 h -3.688 l -1.982,2.504 h 2.901 l 0.958,-1.452 0.914,1.452 h 2.945 L -51.254,5.36"
         style="fill:#85248f;fill-opacity:1;fill-rule:nonzero;stroke:none"
         id="path22"
         inkscape:connector-curvature="0" /></g></g></svg>