<svg height="99.791245" viewBox="0 0 479.06665 99.791245" width="479.06665" xmlns="http://www.w3.org/2000/svg"><g fill="#00ab96"><path d="m0 0h29.854l4.593-7.467h-34.447zm0 11.667v-7.415h27.237l-4.56 7.415zm29.22 4.252h-29.22v7.428h31.178c.015-.291.023-.585.02-.886-.026-2.764-.687-4.895-1.978-6.542m-14.229 19.133h-14.991v-7.453h30.245c-2.185 5.092-7.94 7.453-15.254 7.453" transform="matrix(1.3333333 0 0 -1.3333333 0 46.736002)"/><path d="m0 0h-11.526v12.114h-7.277v-31.912h7.277v13.786h11.526v-13.786h7.187v31.912h-7.187zm18.486 3.616h-6.509v-23.414h6.826v11.526c0 2.803.542 6.328 5.333 6.328.588 0 .949-.045 1.582-.135v6.057c-.587.09-.859.09-1.175.09-2.848 0-4.791-1.04-6.057-4.294zm22.692-15.82c-1.718-2.983-4.973-3.028-5.47-3.028-1.356 0-3.119.587-3.119 2.531 0 3.028 5.108 3.073 6.961 3.571.588.135.995.316 1.628.542zm6.601 5.425c0 1.899.091 4.611-.632 6.374-1.718 4.068-6.103 4.702-9.991 4.702-5.289 0-9.674-2.261-9.991-8.092h6.148c-.09 2.305 2.261 2.938 4.114 2.938 1.401 0 3.572-.361 3.572-2.17 0-1.672-2.442-1.763-3.617-1.944-5.063-.722-11.528-1.311-11.528-7.955 0-4.748 3.617-7.55 8.137-7.55 3.346 0 4.792.995 7.369 2.802l.045-2.124 6.378.001zm26.439-13.019v31.912h-6.735v-10.035c-1.627 1.356-3.481 2.125-5.605 2.125-7.096 0-10.306-6.148-10.306-12.521 0-5.966 3.345-12.068 9.99-12.068 2.395 0 4.836.723 6.192 2.847v-2.26zm-6.509 11.572c0-3.074-.814-6.645-4.565-6.645-3.842 0-4.791 3.661-4.791 6.871 0 2.938 1.13 6.734 4.7 6.734 3.888 0 4.656-3.796 4.656-6.96zm33.267-1.808v1.13c0 7.232-3.707 13.198-11.526 13.198-7.187 0-11.843-5.379-11.843-12.385 0-7.187 4.43-12.385 11.843-12.385 5.153 0 9.582 2.441 11.255 7.458l-6.69.452c-.994-1.762-2.305-2.486-4.384-2.486-3.074 0-4.656 2.125-5.063 5.018zm-16.363 5.062c.724 2.667 2.17 4.023 5.018 4.023 2.395 0 4.113-1.673 4.339-4.023zm34.533-5.831c-.271-2.441-2.034-4.023-4.475-4.023-3.887 0-4.791 3.752-4.791 6.961 0 3.255 1.13 6.69 4.927 6.69 2.35 0 3.751-1.311 4.158-3.616l6.419.271c-.317 5.831-5.515 8.814-10.442 8.814-7.548 0-11.978-5.153-11.978-12.475 0-7.187 4.114-12.295 11.572-12.295 5.74 0 9.853 2.893 11.074 9.357zm37.213 10.17 12.702 12.747h-9.266l-11.255-12.204v12.204h-7.142v-31.912h7.142v11.436l2.938 2.893 9.447-14.329h8.859zm21.425 4.249h-6.509v-23.414h6.825v11.526c0 2.803.543 6.328 5.334 6.328.587 0 .949-.045 1.582-.135v6.057c-.588.09-.859.09-1.175.09-2.848 0-4.792-1.04-6.057-4.294zm27.018 9.523h-7.456l-3.034-6.309h4.835zm-4.328-25.343c-1.717-2.983-4.972-3.028-5.469-3.028-1.356 0-3.119.587-3.119 2.531 0 3.028 5.108 3.073 6.961 3.571.588.135.994.316 1.627.542zm6.599 5.424c0 1.898.091 4.61-.632 6.373-1.718 4.068-6.102 4.701-9.99 4.701-5.288 0-9.672-2.26-9.989-8.091h6.147c-.09 2.305 2.26 2.938 4.114 2.938 1.401 0 3.57-.361 3.57-2.169 0-1.673-2.44-1.763-3.616-1.944-5.062-.723-11.526-1.311-11.526-7.955 0-4.791 3.616-7.594 8.136-7.594 3.345 0 4.792 1.04 7.368 2.803l.045-2.125 6.373.045zm11.391 18.894h-6.6444v-31.911h6.6444zm27.572-20.114c0 7.006-4.52 12.294-11.707 12.294-7.594 0-12.521-4.927-12.521-12.52 0-7.187 4.566-12.25 11.888-12.25 7.277 0 12.34 5.244 12.34 12.476zm-6.826.271c0-3.481-1.175-7.323-5.288-7.323-4.023 0-5.288 3.707-5.288 7.097 0 3.48 1.356 6.915 5.378 6.915 3.933 0 5.198-3.344 5.198-6.689zm29.245 11.345h-7.051l-3.887-14.509-4.294 14.509h-7.097l8.091-23.414h6.373zm23.731-13.65v1.13c0 7.232-3.707 13.198-11.526 13.198-7.187 0-11.843-5.379-11.843-12.385 0-7.187 4.43-12.385 11.843-12.385 5.152 0 9.582 2.441 11.254 7.458l-6.689.452c-.995-1.762-2.305-2.486-4.385-2.486-3.073 0-4.655 2.125-5.062 5.018zm-16.363 5.062c.723 2.667 2.17 4.023 5.017 4.023 2.396 0 4.114-1.673 4.34-4.023zm6.238 11.797 5.017 6.645h-7.458l-2.034-6.645z" transform="matrix(1.3333333 0 0 -1.3333333 89.485331 30.330669)"/><path d="m0 0h-3.351l-1.845-7.494-2.019 7.494h-3.436l3.22-9.018c.172-.494.452-1.052.452-1.589 0-.365-.172-.901-.472-1.138-.302-.237-.967-.28-1.333-.28-.278 0-.557.022-.836.022v-2.492c.279 0 .558-.042.836-.042 1.375 0 3.115-.087 4.058 1.095.452.58.818 1.697 1.054 2.405zm-1.33 4.681h-3.786l-1.54-3.204h2.455zm27.889-15.815v2.362l5.497 6.14h-4.875v2.621h8.805v-2.555l-5.326-5.948h5.691v-2.62zm18.187 0v6.227c0 .709.043 1.568-.536 2.083-.301.279-.709.386-1.118.386-.471 0-.857-.128-1.223-.429-.752-.623-.708-1.675-.708-2.555v-5.712h-3.136v15.16h3.136v-5.175c.493.88 2.082 1.396 3.027 1.396.731 0 1.61-.194 2.212-.623 1.288-.923 1.501-2.169 1.501-3.651v-7.107zm8.503 0h-3.156v15.16h3.156zm23.812 3.414c0 2.792-2.748 3.286-4.895 3.736-.58.13-1.889.28-1.889 1.074s.945.901 1.545.901c.602 0 1.288-.214 1.675-.708.171-.214.236-.644.279-.901l2.963.15c-.129 2.726-2.426 3.779-4.874 3.779-2.254 0-4.639-.902-4.639-3.521 0-4.445 6.614-2.836 6.614-4.832 0-.88-.9-1.031-1.588-1.031-1.418 0-2.169.408-2.362 1.847l-3.006-.107c0-.365.02-.666.107-1.03.558-2.299 2.92-3.093 5.045-3.093 2.427 0 5.025.859 5.025 3.736m-11.747 2.785c0 .903.042 2.192-.302 3.029-.816 1.934-2.899 2.235-4.746 2.235-2.513 0-4.597-1.074-4.747-3.846h2.922c-.044 1.095 1.073 1.396 1.954 1.396.665 0 1.696-.171 1.696-1.03 0-.795-1.16-.838-1.718-.923-2.406-.344-5.477-.624-5.477-3.782 0-2.254 1.718-3.587 3.866-3.587 1.589 0 2.278.473 3.501 1.333l.022-1.009h3.031zm-3.137-2.576c-.537-.924-1.547-1.44-2.599-1.44-.731 0-1.483.344-1.483 1.182 0 1.439 2.3 1.46 3.309 1.718.258.064.515.15.773.257zm-108.07 1.456-3.542.236c-.022-1.718-1.632-2.79-3.242-2.79-.86 0-1.676.278-2.341.815-1.288 1.074-1.546 2.77-1.546 4.338 0 2.512 1.009 5.002 3.887 5.002 1.18 0 2.233-.45 2.833-1.525.13-.257.258-.515.323-.794l3.414.236c-.043.366-.151.688-.258 1.03-.901 2.685-3.585 3.909-6.27 3.909-4.745 0-7.6-3.242-7.6-7.881 0-3.178 1.503-6.291 4.573-7.493.944-.365 1.975-.493 2.985-.493 2.469 0 4.766.902 6.033 3.113.408.708.666 1.503.751 2.297m11.789-.43v.538c0 3.434-1.761 6.27-5.476 6.27-3.414 0-5.625-2.555-5.625-5.884 0-3.415 2.103-5.883 5.625-5.883 2.448 0 4.553 1.159 5.347 3.542l-3.178.215c-.473-.838-1.095-1.18-2.082-1.18-1.461 0-2.213 1.009-2.406 2.382zm-3.328 2.405h-4.446c.344 1.267 1.031 1.912 2.385 1.912 1.137 0 1.953-.794 2.061-1.912m14.429-3.628c0 2.792-2.749 3.286-4.896 3.736-.58.129-1.89.28-1.89 1.074s.945.901 1.546.901c.602 0 1.288-.214 1.675-.708.172-.215.236-.644.279-.902l2.964.151c-.129 2.726-2.427 3.779-4.875 3.779-2.254 0-4.638-.903-4.638-3.522 0-4.445 6.614-2.835 6.614-4.832 0-.88-.902-1.03-1.59-1.03-1.416 0-2.168.408-2.361 1.847l-3.006-.107c0-.366.021-.666.107-1.031.558-2.299 2.92-3.092 5.046-3.092 2.426 0 5.025.859 5.025 3.736m12.624-3.414-4.594 6.914 4.294 4.208h-4.101l-3.435-3.8v7.837h-3.157v-15.159h3.157v3.693l1.03 1.031 2.792-4.724zm24.134 8.417v2.877c-.192.022-.364.042-.558.042-1.502 0-2.34-.643-2.877-2.038v1.824h-3.092v-11.122h3.243v3.628c0 .559 0 1.138.021 1.697.043 1.803.301 3.156 2.513 3.156.257 0 .493-.021.75-.064m12.025-2.813c0 3.328-2.147 5.841-5.561 5.841-3.608 0-5.948-2.341-5.948-5.949 0-3.414 2.169-5.818 5.646-5.818 3.458 0 5.863 2.491 5.863 5.926m-3.242.129c0-1.653-.559-3.478-2.512-3.478-1.912 0-2.514 1.76-2.514 3.371 0 1.653.645 3.285 2.555 3.285 1.869 0 2.471-1.589 2.471-3.178m-73.792 10.749h-3.688l-1.982 2.504h2.901l.958-1.452.914 1.452h2.945z" transform="matrix(1.3333333 0 0 -1.3333333 143.13733 80.406667)"/></g></svg>