<svg height="99.791" viewBox="0 0 396.66685 99.791002" width="396.66684" xmlns="http://www.w3.org/2000/svg"><g fill="#00ab96" transform="matrix(1.3333333 0 0 -1.3333333 -75.590665 245.66909)"><path d="m0 0h29.854l4.593-7.467h-34.447zm0 11.667v-7.415h27.237l-4.56 7.415zm29.22 4.252h-29.22v7.428h31.178c.015-.291.023-.585.02-.886-.026-2.764-.687-4.895-1.978-6.542m-14.229 19.133h-14.991v-7.453h30.245c-2.185 5.092-7.94 7.453-15.254 7.453" transform="matrix(.99999632 0 0 .99999632 56.693 149.19995)"/><path d="m0 0h-3.351l-1.845-7.494-2.019 7.494h-3.436l3.22-9.018c.172-.494.452-1.052.452-1.589 0-.365-.172-.901-.472-1.138-.302-.237-.967-.28-1.333-.28-.278 0-.557.022-.836.022v-2.492c.279 0 .558-.042.836-.042 1.375 0 3.115-.087 4.058 1.095.452.58.818 1.697 1.054 2.405zm-1.33 4.681h-3.786l-1.54-3.204h2.455zm27.889-15.815v2.362l5.497 6.14h-4.875v2.621h8.805v-2.555l-5.326-5.948h5.691v-2.62zm18.187 0v6.227c0 .709.043 1.568-.536 2.083-.301.279-.709.386-1.118.386-.471 0-.857-.128-1.223-.429-.752-.623-.708-1.675-.708-2.555v-5.712h-3.136v15.16h3.136v-5.175c.493.88 2.082 1.396 3.027 1.396.731 0 1.61-.194 2.212-.623 1.288-.923 1.501-2.169 1.501-3.651v-7.107zm8.503 0h-3.156v15.16h3.156zm23.812 3.414c0 2.792-2.748 3.286-4.895 3.736-.58.13-1.889.28-1.889 1.074s.945.901 1.545.901c.602 0 1.288-.214 1.675-.708.171-.214.236-.644.279-.901l2.963.15c-.129 2.726-2.426 3.779-4.874 3.779-2.254 0-4.639-.902-4.639-3.521 0-4.445 6.614-2.836 6.614-4.832 0-.88-.9-1.031-1.588-1.031-1.418 0-2.169.408-2.362 1.847l-3.006-.107c0-.365.02-.666.107-1.03.558-2.299 2.92-3.093 5.045-3.093 2.427 0 5.025.859 5.025 3.736m-11.747 2.785c0 .903.042 2.192-.302 3.029-.816 1.934-2.899 2.235-4.746 2.235-2.513 0-4.597-1.074-4.747-3.846h2.922c-.044 1.095 1.073 1.396 1.954 1.396.665 0 1.696-.171 1.696-1.03 0-.795-1.16-.838-1.718-.923-2.406-.344-5.477-.624-5.477-3.782 0-2.254 1.718-3.587 3.866-3.587 1.589 0 2.278.473 3.501 1.333l.022-1.009h3.031zm-3.137-2.576c-.537-.924-1.547-1.44-2.599-1.44-.731 0-1.483.344-1.483 1.182 0 1.439 2.3 1.46 3.309 1.718.258.064.515.15.773.257zm-108.07 1.456-3.542.236c-.022-1.718-1.632-2.79-3.242-2.79-.86 0-1.676.278-2.341.815-1.288 1.074-1.546 2.77-1.546 4.338 0 2.512 1.009 5.002 3.887 5.002 1.18 0 2.233-.45 2.833-1.525.13-.257.258-.515.323-.794l3.414.236c-.043.366-.151.688-.258 1.03-.901 2.685-3.585 3.909-6.27 3.909-4.745 0-7.6-3.242-7.6-7.881 0-3.178 1.503-6.291 4.573-7.493.944-.365 1.975-.493 2.985-.493 2.469 0 4.766.902 6.033 3.113.408.708.666 1.503.751 2.297m11.789-.43v.538c0 3.434-1.761 6.27-5.476 6.27-3.414 0-5.625-2.555-5.625-5.884 0-3.415 2.103-5.883 5.625-5.883 2.448 0 4.553 1.159 5.347 3.542l-3.178.215c-.473-.838-1.095-1.18-2.082-1.18-1.461 0-2.213 1.009-2.406 2.382zm-3.328 2.405h-4.446c.344 1.267 1.031 1.912 2.385 1.912 1.137 0 1.953-.794 2.061-1.912m14.429-3.628c0 2.792-2.749 3.286-4.896 3.736-.58.129-1.89.28-1.89 1.074s.945.901 1.546.901c.602 0 1.288-.214 1.675-.708.172-.215.236-.644.279-.902l2.964.151c-.129 2.726-2.427 3.779-4.875 3.779-2.254 0-4.638-.903-4.638-3.522 0-4.445 6.614-2.835 6.614-4.832 0-.88-.902-1.03-1.59-1.03-1.416 0-2.168.408-2.361 1.847l-3.006-.107c0-.366.021-.666.107-1.031.558-2.299 2.92-3.092 5.046-3.092 2.426 0 5.025.859 5.025 3.736m12.624-3.414-4.594 6.914 4.294 4.208h-4.101l-3.435-3.8v7.837h-3.157v-15.159h3.157v3.693l1.03 1.031 2.792-4.724zm24.134 8.417v2.877c-.192.022-.364.042-.558.042-1.502 0-2.34-.643-2.877-2.038v1.824h-3.092v-11.122h3.243v3.628c0 .559 0 1.138.021 1.697.043 1.803.301 3.156 2.513 3.156.257 0 .493-.021.75-.064m12.025-2.813c0 3.328-2.147 5.841-5.561 5.841-3.608 0-5.948-2.341-5.948-5.949 0-3.414 2.169-5.818 5.646-5.818 3.458 0 5.863 2.491 5.863 5.926m-3.242.129c0-1.653-.559-3.478-2.512-3.478-1.912 0-2.514 1.76-2.514 3.371 0 1.653.645 3.285 2.555 3.285 1.869 0 2.471-1.589 2.471-3.178m-73.792 10.749h-3.688l-1.982 2.504h2.901l.958-1.452.914 1.452h2.945z" transform="translate(164.046 123.947)"/><path d="m119.87672 160.88265 12.70192 12.74692h-9.26594l-11.25493-12.20392v12.20392h-7.14195v-31.91178h7.14195v11.43591l2.93798 2.89298 9.44694-14.32889h8.85894z"/><path d="m148.62431 149.31174c-1.71699-2.98299-4.97197-3.02799-5.46897-3.02799-1.35598 0-3.11897.587-3.11897 2.53099 0 3.02798 5.10797 3.07298 6.96095 3.57097.588.13498.99399.31601 1.62699.542zm6.59896 5.42396c0 1.89798.0909 4.60997-.632 6.37296-1.71799 4.06796-6.10196 4.70096-9.98994 4.70096-5.28796 0-9.67194-2.25999-9.98892-8.09094h6.14696c-.0899 2.30498 2.25997 2.93798 4.11396 2.93798 1.40099 0 3.56998-.36099 3.56998-2.169 0-1.67299-2.43998-1.76298-3.61598-1.94398-5.06197-.723-11.52592-1.31098-11.52592-7.95494 0-4.79097 3.61597-7.59395 8.13594-7.59395 3.34498 0 4.79197 1.03999 7.36796 2.80298l.045-2.125 6.37297.045z"/><path d="m164.28227 165.13162h-6.50895v-23.41383h6.82496v11.52591c0 2.80298.54299 6.32797 5.33396 6.32797.587 0 .94899-.0451 1.58199-.13498v6.05696c-.588.0899-.85899.0899-1.175.0899-2.84798 0-4.79196-1.03999-6.05696-4.29397z"/><path d="m179.4331 173.62957h-6.64437v-31.9108h6.64437zm27.5718-20.11387c0 7.00596-4.51996 12.29392-11.70692 12.29392-7.59395 0-12.52091-4.92697-12.52091-12.51992 0-7.18694 4.56597-12.24991 11.88792-12.24991 7.27695 0 12.33991 5.24396 12.33991 12.47591zm-6.82595.271c0-3.48097-1.17499-7.32295-5.28796-7.32295-4.02298 0-5.28796 3.70697-5.28796 7.09696 0 3.47997 1.35598 6.91495 5.37795 6.91495 3.93299 0 5.19797-3.34398 5.19797-6.68896zm29.24481 11.34492h-7.05094l-3.88698-14.5089-4.29397 14.5089h-7.09695l8.09093-23.41383h6.37297z"/><path d="m0 0h-3.351l-1.845-7.494-2.019 7.494h-3.436l3.22-9.018c.172-.494.452-1.052.452-1.589 0-.365-.172-.901-.472-1.138-.302-.237-.967-.28-1.333-.28-.278 0-.557.022-.836.022v-2.492c.279 0 .558-.042.836-.042 1.375 0 3.115-.087 4.058 1.095.452.58.818 1.697 1.054 2.405z" transform="matrix(2.1050919 0 0 2.1050919 253.11954 165.1323)"/><path d="m306.3324 149.31174c-1.71698-2.98299-4.97197-3.02799-5.46895-3.02799-1.356 0-3.11899.587-3.11899 2.53099 0 3.02798 5.10797 3.07298 6.96095 3.57097.58801.13498.99401.31601 1.62699.542zm6.59896 5.42396c0 1.89798.091 4.60997-.632 6.37296-1.71798 4.06796-6.10195 4.70096-9.98992 4.70096-5.28797 0-9.67194-2.25999-9.98893-8.09094h6.14695c-.0899 2.30498 2.25999 2.93798 4.11398 2.93798 1.40099 0 3.56997-.36099 3.56997-2.169 0-1.67299-2.43999-1.76298-3.61597-1.94398-5.06197-.723-11.52593-1.31098-11.52593-7.95494 0-4.79097 3.61597-7.59395 8.13595-7.59395 3.34498 0 4.79196 1.03999 7.36796 2.80298l.0451-2.125 6.37294.045z"/><path d="m321.99038 165.13162h-6.50896v-23.41383h6.82495v11.52591c0 2.80298.54301 6.32797 5.33396 6.32797.587 0 .94901-.0451 1.58199-.13498v6.05696c-.58798.0899-.85899.0899-1.17498.0899-2.84798 0-4.79198-1.03999-6.05696-4.29397z"/><path d="m0 0h-3.351l-1.845-7.494-2.019 7.494h-3.436l3.22-9.018c.172-.494.452-1.052.452-1.589 0-.365-.172-.901-.472-1.138-.302-.237-.967-.28-1.333-.28-.278 0-.557.022-.836.022v-2.492c.279 0 .558-.042.836-.042 1.375 0 3.115-.087 4.058 1.095.452.58.818 1.697 1.054 2.405z" transform="matrix(2.1050919 0 0 2.1050919 354.19314 165.1323)"/><path d="m294.83451 173.56979h-7.715l-6.677-23.145-6.768 23.145h-7.805l11.189-31.852h6.632z"/></g></svg>