<svg id="a" version="1.1" viewBox="0 0 246.29 99.783" xml:space="preserve" xmlns="http://www.w3.org/2000/svg"><g id="b" transform="matrix(1.3333 0 0 -1.3333 -75.591 245.67)"><g id="c" transform="translate(56.693,149.2)"><path id="d" d="m0 0h29.854l4.593-7.467h-34.447zm0 11.667v-7.415h27.237l-4.56 7.415zm29.22 4.252h-29.22v7.428h31.178c0.015-0.291 0.023-0.585 0.02-0.886-0.026-2.764-0.687-4.895-1.978-6.542m-14.229 19.133h-14.991v-7.453h30.245c-2.185 5.092-7.94 7.453-15.254 7.453" fill="#ab035c"/></g><g id="e" transform="translate(113.14 129.31)"><path id="f" d="m0 0h-3.686l-1.982 2.503h2.9l0.958-1.452 0.914 1.452h2.944zm73.765-10.745c0-1.653-0.56-3.478-2.512-3.478-1.91 0-2.513 1.761-2.513 3.37 0 1.653 0.646 3.284 2.555 3.284 1.868 0 2.47-1.588 2.47-3.176m3.24-0.129c0 3.326-2.147 5.838-5.559 5.838-3.607 0-5.946-2.34-5.946-5.946 0-3.414 2.169-5.817 5.646-5.817 3.455 0 5.859 2.49 5.859 5.925m-12.02 2.812v2.875c-0.192 0.022-0.364 0.042-0.558 0.042-1.502 0-2.34-0.642-2.875-2.038v1.825h-3.092v-11.119h3.242v3.627c0 0.559 0 1.139 0.022 1.697 0.043 1.802 0.3 3.155 2.511 3.155 0.257 0 0.493-0.022 0.75-0.064m-24.125-8.415-4.591 6.913 4.291 4.206h-4.099l-3.435-3.799v7.834h-3.155v-15.154h3.155v3.693l1.03 1.031 2.791-4.724zm-12.619 3.413c0 2.792-2.748 3.286-4.895 3.735-0.579 0.129-1.888 0.279-1.888 1.073 0 0.795 0.944 0.902 1.545 0.902 0.602 0 1.287-0.215 1.674-0.708 0.172-0.215 0.236-0.644 0.279-0.903l2.963 0.152c-0.129 2.724-2.426 3.777-4.873 3.777-2.254 0-4.636-0.901-4.636-3.52 0-4.443 6.611-2.835 6.611-4.831 0-0.88-0.901-1.029-1.589-1.029-1.416 0-2.168 0.407-2.361 1.847l-3.005-0.109c0-0.364 0.021-0.665 0.107-1.029 0.559-2.299 2.919-3.092 5.045-3.092 2.425 0 5.023 0.86 5.023 3.735m-14.424 3.627h-4.444c0.344 1.267 1.031 1.911 2.384 1.911 1.137 0 1.952-0.793 2.06-1.911m3.326-2.404v0.537c0 3.434-1.76 6.268-5.473 6.268-3.413 0-5.623-2.555-5.623-5.881 0-3.413 2.103-5.882 5.623-5.882 2.447 0 4.551 1.159 5.345 3.541l-3.177 0.216c-0.472-0.839-1.094-1.181-2.081-1.181-1.46 0-2.212 1.009-2.405 2.382zm-11.783 0.43-3.541 0.235c-0.022-1.717-1.632-2.789-3.241-2.789-0.859 0-1.675 0.278-2.34 0.816-1.288 1.074-1.546 2.768-1.546 4.336 0 2.51 1.009 5 3.886 5 1.18 0 2.232-0.451 2.832-1.524 0.13-0.258 0.258-0.516 0.323-0.794l3.412 0.235c-0.042 0.367-0.15 0.689-0.257 1.031-0.901 2.683-3.584 3.907-6.268 3.907-4.743 0-7.598-3.24-7.598-7.877 0-3.178 1.503-6.289 4.572-7.491 0.944-0.364 1.974-0.492 2.984-0.492 2.468 0 4.764 0.901 6.031 3.111 0.408 0.708 0.665 1.502 0.751 2.296m108.03-1.455c-0.535-0.924-1.545-1.441-2.598-1.441-0.73 0-1.482 0.346-1.482 1.183 0 1.438 2.298 1.459 3.306 1.717 0.258 0.064 0.516 0.149 0.774 0.258zm3.136 2.575c0 0.901 0.041 2.19-0.302 3.027-0.817 1.934-2.899 2.235-4.743 2.235-2.513 0-4.597-1.074-4.748-3.845h2.922c-0.043 1.095 1.073 1.396 1.953 1.396 0.666 0 1.698-0.171 1.698-1.031 0-0.795-1.16-0.838-1.719-0.923-2.404-0.343-5.475-0.623-5.475-3.779 0-2.254 1.717-3.586 3.866-3.586 1.587 0 2.275 0.473 3.5 1.332l0.021-1.009h3.029zm11.743-2.784c0 2.791-2.746 3.285-4.893 3.734-0.58 0.13-1.889 0.279-1.889 1.073s0.944 0.902 1.545 0.902c0.602 0 1.287-0.214 1.674-0.708 0.17-0.214 0.236-0.644 0.279-0.902l2.961 0.151c-0.129 2.725-2.423 3.777-4.871 3.777-2.254 0-4.636-0.901-4.636-3.519 0-4.444 6.609-2.834 6.609-4.83 0-0.88-0.899-1.032-1.588-1.032-1.416 0-2.168 0.409-2.359 1.847l-3.006-0.106c0-0.366 0.021-0.666 0.107-1.031 0.559-2.298 2.918-3.091 5.043-3.091 2.426 0 5.024 0.859 5.024 3.735m-23.803-3.413h-3.1543v15.154h3.1543zm-8.5 0v6.224c0 0.708 0.043 1.568-0.535 2.082-0.303 0.28-0.709 0.387-1.117 0.387-0.473 0-0.858-0.13-1.225-0.43-0.752-0.623-0.707-1.673-0.707-2.553v-5.71h-3.134v15.154h3.134v-5.174c0.492 0.881 2.08 1.397 3.025 1.397 0.733 0 1.612-0.195 2.211-0.623 1.289-0.923 1.502-2.168 1.502-3.65v-7.104zm-18.18 0v2.362l5.494 6.137h-4.872v2.62h8.801v-2.556l-5.324-5.944h5.689v-2.619zm-27.879 15.808h-3.784l-1.54-3.203h2.454zm1.33-4.678h-3.349l-1.845-7.492-2.019 7.492h-3.434l3.22-9.014c0.171-0.494 0.451-1.053 0.451-1.589 0-0.365-0.172-0.901-0.472-1.139-0.302-0.235-0.968-0.278-1.333-0.278-0.277 0-0.556 0.021-0.836 0.021v-2.491c0.28 0 0.559-0.043 0.836-0.043 1.375 0 3.113-0.086 4.057 1.096 0.452 0.579 0.818 1.695 1.052 2.403l3.672 11.034" fill="#ab035c"/></g><g id="g" transform="translate(104.9 173.62)"><path id="h" d="m0 0v-31.876h10.249c2.799 0 5.644 0.09 8.262 1.174 5.87 2.438 8.489 8.669 8.489 14.719 0 5.012-1.581 10.204-5.78 13.319-3.16 2.348-6.907 2.664-10.7 2.664zm7.134-5.96h1.941c2.077 0 4.741 0 6.592-0.993 2.98-1.58 3.702-5.689 3.702-8.714 0-10.069-5.147-10.294-10.113-10.294h-2.122zm35.713-10.204h-13.094v-5.1019h13.094zm-13.094 0zm38.332-15.712v31.876h-6.727v-10.023c-1.625 1.354-3.477 2.122-5.599 2.122-7.088 0-10.294-6.141-10.294-12.507 0-5.96 3.341-12.055 9.978-12.055 2.393 0 4.831 0.723 6.186 2.845v-2.258zm-6.501 11.558c0-3.07-0.813-6.637-4.56-6.637-3.838 0-4.786 3.658-4.786 6.863 0 2.935 1.128 6.728 4.695 6.728 3.883 0 4.651-3.793 4.651-6.954zm31.785-11.558v23.388h-6.456v-12.191c0-3.521-0.678-6.276-4.019-6.276-3.16 0-3.657 2.484-3.657 5.057v13.41h-6.637v-13.636c0-4.424 0.497-10.339 7.811-10.339 2.393 0 5.328 1.039 6.637 3.161v-2.574zm11.107 23.388h-6.502v-23.388h6.818v11.513c0 2.8 0.542 6.321 5.328 6.321 0.586 0 0.948-0.045 1.58-0.135v6.05c-0.587 0.09-0.858 0.09-1.174 0.09-2.845 0-4.786-1.038-6.05-4.289v3.838" fill="#ab035c"/></g><g id="i" transform="translate(104.9 173.62)"><path id="j" d="m0 0v-31.876h10.249c2.799 0 5.644 0.09 8.262 1.174 5.87 2.438 8.489 8.669 8.489 14.719 0 5.012-1.581 10.204-5.78 13.319-3.16 2.348-6.907 2.664-10.7 2.664zm7.134-5.96h1.941c2.077 0 4.741 0 6.592-0.993 2.98-1.58 3.702-5.689 3.702-8.714 0-10.069-5.147-10.294-10.113-10.294h-2.122zm35.713-10.204h-13.094v-5.1019h13.094zm-13.094 0zm38.332-15.712v31.876h-6.727v-10.023c-1.625 1.354-3.477 2.122-5.599 2.122-7.088 0-10.294-6.141-10.294-12.507 0-5.96 3.341-12.055 9.978-12.055 2.393 0 4.831 0.723 6.186 2.845v-2.258zm-6.501 11.558c0-3.07-0.813-6.637-4.56-6.637-3.838 0-4.786 3.658-4.786 6.863 0 2.935 1.128 6.728 4.695 6.728 3.883 0 4.651-3.793 4.651-6.954zm31.785-11.558v23.388h-6.456v-12.191c0-3.521-0.678-6.276-4.019-6.276-3.16 0-3.657 2.484-3.657 5.057v13.41h-6.637v-13.636c0-4.424 0.497-10.339 7.811-10.339 2.393 0 5.328 1.039 6.637 3.161v-2.574zm11.107 23.388h-6.502v-23.388h6.818v11.513c0 2.8 0.542 6.321 5.328 6.321 0.586 0 0.948-0.045 1.58-0.135v6.05c-0.587 0.09-0.858 0.09-1.174 0.09-2.845 0-4.786-1.038-6.05-4.289v3.838" fill="#ab035c"/></g></g></svg>
