<svg height="133.99963" viewBox="0 0 514.64747 133.99963" width="514.64746" xmlns="http://www.w3.org/2000/svg"><g fill="#fff" transform="matrix(1.3333333 0 0 -1.3333333 -75.590665 279.87772)"><path d="m0 0h29.854l4.593-7.467h-34.447zm0 11.667v-7.415h27.237l-4.56 7.415zm29.22 4.252h-29.22v7.428h31.178c.015-.291.023-.585.02-.886-.026-2.764-.687-4.895-1.978-6.542m-14.229 19.133h-14.991v-7.453h30.245c-2.185 5.092-7.94 7.453-15.254 7.453" transform="matrix(1.3427969 0 0 1.3427969 56.693 162.84058)"/><path d="m0 0h-3.351l-1.845-7.494-2.019 7.494h-3.436l3.22-9.018c.172-.494.452-1.052.452-1.589 0-.365-.172-.901-.472-1.138-.302-.237-.967-.28-1.333-.28-.278 0-.557.022-.836.022v-2.492c.279 0 .558-.042.836-.042 1.375 0 3.115-.087 4.058 1.095.452.58.818 1.697 1.054 2.405zm-1.33 4.681h-3.786l-1.54-3.204h2.455zm27.889-15.815v2.362l5.497 6.14h-4.875v2.621h8.805v-2.555l-5.326-5.948h5.691v-2.62zm18.187 0v6.227c0 .709.043 1.568-.536 2.083-.301.279-.709.386-1.118.386-.471 0-.857-.128-1.223-.429-.752-.623-.708-1.675-.708-2.555v-5.712h-3.136v15.16h3.136v-5.175c.493.88 2.082 1.396 3.027 1.396.731 0 1.61-.194 2.212-.623 1.288-.923 1.501-2.169 1.501-3.651v-7.107zm8.503 0h-3.156v15.16h3.156zm23.812 3.414c0 2.792-2.748 3.286-4.895 3.736-.58.13-1.889.28-1.889 1.074s.945.901 1.545.901c.602 0 1.288-.214 1.675-.708.171-.214.236-.644.279-.901l2.963.15c-.129 2.726-2.426 3.779-4.874 3.779-2.254 0-4.639-.902-4.639-3.521 0-4.445 6.614-2.836 6.614-4.832 0-.88-.9-1.031-1.588-1.031-1.418 0-2.169.408-2.362 1.847l-3.006-.107c0-.365.02-.666.107-1.03.558-2.299 2.92-3.093 5.045-3.093 2.427 0 5.025.859 5.025 3.736m-11.747 2.785c0 .903.042 2.192-.302 3.029-.816 1.934-2.899 2.235-4.745 2.235-2.514 0-4.598-1.074-4.748-3.846h2.922c-.044 1.095 1.073 1.396 1.954 1.396.665 0 1.696-.171 1.696-1.03 0-.795-1.16-.838-1.718-.923-2.406-.344-5.477-.624-5.477-3.782 0-2.254 1.718-3.587 3.866-3.587 1.589 0 2.278.473 3.501 1.333l.022-1.009h3.031zm-3.137-2.576c-.537-.924-1.547-1.44-2.599-1.44-.731 0-1.483.344-1.483 1.182 0 1.439 2.3 1.46 3.309 1.718.258.064.515.15.773.257zm-108.07 1.456-3.542.236c-.022-1.718-1.632-2.79-3.242-2.79-.86 0-1.676.278-2.341.815-1.288 1.074-1.546 2.77-1.546 4.338 0 2.512 1.009 5.002 3.887 5.002 1.18 0 2.233-.45 2.833-1.525.13-.257.258-.515.323-.794l3.414.236c-.043.366-.151.688-.258 1.03-.901 2.685-3.585 3.909-6.27 3.909-4.745 0-7.6-3.242-7.6-7.881 0-3.178 1.503-6.291 4.573-7.493.944-.365 1.975-.493 2.985-.493 2.469 0 4.766.902 6.033 3.113.408.708.666 1.503.751 2.297m11.789-.43v.538c0 3.434-1.761 6.27-5.476 6.27-3.414 0-5.625-2.555-5.625-5.884 0-3.415 2.103-5.883 5.625-5.883 2.448 0 4.553 1.159 5.347 3.542l-3.178.215c-.473-.838-1.095-1.18-2.082-1.18-1.461 0-2.213 1.009-2.406 2.382zm-3.328 2.405h-4.446c.344 1.267 1.031 1.912 2.385 1.912 1.137 0 1.953-.794 2.061-1.912m14.429-3.628c0 2.792-2.749 3.286-4.896 3.736-.58.129-1.89.28-1.89 1.074s.945.901 1.546.901c.602 0 1.288-.214 1.675-.708.172-.215.236-.644.279-.902l2.964.151c-.129 2.726-2.427 3.779-4.875 3.779-2.254 0-4.638-.903-4.638-3.522 0-4.445 6.614-2.835 6.614-4.832 0-.88-.902-1.03-1.59-1.03-1.416 0-2.168.408-2.361 1.847l-3.006-.107c0-.366.021-.666.107-1.031.558-2.299 2.92-3.092 5.046-3.092 2.426 0 5.025.859 5.025 3.736m12.624-3.414-4.594 6.914 4.294 4.208h-4.101l-3.435-3.8v7.837h-3.157v-15.159h3.157v3.693l1.03 1.031 2.792-4.724zm24.134 8.417v2.877c-.192.022-.364.042-.558.042-1.502 0-2.34-.643-2.877-2.038v1.824h-3.092v-11.122h3.243v3.628c0 .559 0 1.138.021 1.697.043 1.803.301 3.156 2.513 3.156.257 0 .493-.021.75-.064m12.025-2.813c0 3.328-2.147 5.841-5.561 5.841-3.608 0-5.948-2.341-5.948-5.949 0-3.414 2.169-5.818 5.646-5.818 3.458 0 5.863 2.491 5.863 5.926m-3.242.129c0-1.653-.559-3.478-2.512-3.478-1.912 0-2.514 1.76-2.514 3.371 0 1.653.645 3.285 2.555 3.285 1.869 0 2.471-1.589 2.471-3.178m-73.792 10.749h-3.688l-1.982 2.504h2.901l.958-1.452.914 1.452h2.945z" transform="matrix(1.3428032 0 0 1.3428032 201.33439 128.93082)"/><path d="m0 0v31.854h-6.723v-10.016c-1.624 1.353-3.474 2.12-5.595 2.12-7.083 0-10.287-6.136-10.287-12.498 0-5.955 3.339-12.047 9.972-12.047 2.391 0 4.827.722 6.181 2.843v-2.256zm-6.497 11.551c0-3.069-.812-6.633-4.557-6.633-3.835 0-4.783 3.655-4.783 6.858 0 2.933 1.128 6.723 4.692 6.723 3.881 0 4.648-3.79 4.648-6.948zm-19.846 1.448c0 1.895.091 4.603-.632 6.364-1.715 4.062-6.093 4.694-9.974 4.694-5.281 0-9.659-2.257-9.975-8.079h6.139c-.091 2.301 2.256 2.933 4.107 2.933 1.399 0 3.565-.361 3.565-2.166 0-1.67-2.437-1.76-3.61-1.941-5.055-.722-11.51-1.309-11.51-7.943 0-4.739 3.611-7.538 8.125-7.538 3.339 0 4.784.993 7.356 2.799l.045-2.122 6.368.001zm-6.589-5.416c-1.129-1.941-3.25-3.024-5.461-3.024-1.535 0-3.115.722-3.115 2.482 0 3.024 4.83 3.069 6.951 3.611.542.135 1.083.316 1.625.541zm44.478 18.271h-6.5874v6.0009h6.5874zm0-25.854h-6.5874v23.372h6.5874zm15.251-.677c-7.31 0-11.867 5.054-11.867 12.228 0 7.58 4.918 12.498 12.498 12.498 7.174 0 11.686-5.279 11.686-12.273 0-7.219-5.053-12.453-12.317-12.453zm.315 19.402c-4.015 0-5.369-3.429-5.369-6.904 0-3.384 1.264-7.083 5.279-7.083 4.106 0 5.279 3.835 5.279 7.309 0 3.339-1.263 6.678-5.189 6.678zm-80.462-3.761c1.445 1.852 1.987 4.291 1.987 6.595 0 1.581-.316 3.433-.993 4.878-2.304 4.788-6.595 5.466-11.428 5.466h-12.286v-31.89h7.227v11.021h4.562c.084 0 .166.001.249.001l6.648-11.022h8.002l-7.329 12.152c1.216.582 2.34 1.459 3.361 2.799zm-5.195 6.55c0-1.807-.858-3.343-2.529-4.111-1.084-.497-2.755-.497-3.93-.497-1.265 0-2.575.045-3.839.045v9.125h3.478c2.078 0 4.426.09 5.872-1.717.632-.813.948-1.807.948-2.845" transform="matrix(1.3427841 0 0 1.3427841 223.54663 152.79511)"/><path d="m-53.35 14.964c1.445 1.852 1.987 4.291 1.987 6.595 0 1.581-.316 3.433-.993 4.878-2.304 4.788-6.595 5.466-11.428 5.466h-12.286v-31.89h7.227v11.021h4.562c.084 0 .166.001.249.001l6.648-11.022h8.002l-7.329 12.152c1.216.582 2.34 1.459 3.361 2.799zm-5.195 6.55c0-1.807-.858-3.343-2.529-4.111-1.084-.497-2.755-.497-3.93-.497-1.265 0-2.575.045-3.839.045v9.125h3.478c2.078 0 4.426.09 5.872-1.717.632-.813.948-1.807.948-2.845" transform="matrix(1.3427929 0 0 1.3427929 400.57429 152.79518)"/><path d="m39.776 2.305v5.063h-4.114v6.915h-6.644v-6.915h-3.345v-5.063h3.345v-11.3c0-4.701.949-7.322 6.418-7.322 1.04 0 2.26.045 4.566.316v5.153c-.678-.045-1.13-.09-1.808-.09-2.17 0-2.532.768-2.532 2.712v10.531zm10.124 5.063h-6.509v-23.414h6.825v11.526c0 2.802.543 6.328 5.334 6.328.587 0 .948648-.045 1.581648-.136l.000352 6.057c-.588.091-.859.091-1.175.091-2.848 0-4.792-1.04-6.057-4.294z" transform="matrix(1.3409556 0 0 1.3409556 332.14535 174.31253)"/><path d="m58.945901-12.792v1.13c0 7.232-3.706 13.199-11.526 13.199-7.187 0-11.842-5.379-11.842-12.385 0-7.187 4.429-12.385 11.842-12.385 5.153 0 9.582 2.441 11.255 7.458l-6.69.452c-.994-1.763-2.305-2.486-4.384-2.486-3.074 0-4.656 2.125-5.063 5.017zm-16.362 5.063c.723 2.667 2.169 4.023 5.017 4.023 2.395 0 4.113-1.673 4.339-4.023z" transform="matrix(1.3409556 0 0 1.3409556 286.55598 183.04082)"/><path d="m25.78-5.518c0 3.328-2.147 5.841-5.561 5.841-3.608 0-5.948-2.341-5.948-5.949 0-3.414 2.169-5.818 5.646-5.818 3.458 0 5.863 2.491 5.863 5.926m-3.242.129c0-1.653-.559-3.478-2.512-3.478-1.912 0-2.514 1.76-2.514 3.371 0 1.653.645 3.285 2.555 3.285 1.869 0 2.471-1.589 2.471-3.178" transform="matrix(2.821598 0 0 2.821598 369.93782 184.17737)"/></g></svg>