<svg height="99.78318" viewBox="0 0 246.29066 99.783181" width="246.29066" xmlns="http://www.w3.org/2000/svg"><g fill="#00809e"><path d="m0 0h29.854l4.593-7.467h-34.447zm0 11.667v-7.415h27.237l-4.56 7.415zm29.22 4.252h-29.22v7.428h31.178c.015-.291.023-.585.02-.886-.026-2.764-.687-4.895-1.978-6.542m-14.229 19.133h-14.991v-7.453h30.245c-2.185 5.092-7.94 7.453-15.254 7.453" transform="matrix(1.3333333 0 0 -1.3333333 0 46.736002)"/><path d="m0 0h-3.686l-1.982 2.503h2.9l.958-1.452.914 1.452h2.944zm73.765-10.745c0-1.653-.56-3.478-2.512-3.478-1.91 0-2.513 1.761-2.513 3.37 0 1.653.646 3.284 2.555 3.284 1.868 0 2.47-1.588 2.47-3.176m3.24-.129c0 3.326-2.147 5.838-5.559 5.838-3.607 0-5.946-2.34-5.946-5.946 0-3.414 2.169-5.817 5.646-5.817 3.455 0 5.859 2.49 5.859 5.925m-12.02 2.812v2.875c-.192.022-.364.042-.558.042-1.502 0-2.34-.642-2.875-2.038v1.825h-3.092v-11.119h3.242v3.627c0 .559 0 1.139.022 1.697.043 1.802.3 3.155 2.511 3.155.257 0 .493-.022.75-.064m-24.125-8.415-4.591 6.913 4.291 4.206h-4.099l-3.435-3.799v7.834h-3.155v-15.154h3.155v3.693l1.03 1.031 2.791-4.724zm-12.619 3.413c0 2.792-2.748 3.286-4.895 3.735-.579.129-1.888.279-1.888 1.073 0 .795.944.902 1.545.902.602 0 1.287-.215 1.674-.708.172-.215.236-.644.279-.903l2.963.152c-.129 2.724-2.426 3.777-4.873 3.777-2.254 0-4.636-.901-4.636-3.52 0-4.443 6.611-2.835 6.611-4.831 0-.88-.901-1.029-1.589-1.029-1.416 0-2.168.407-2.361 1.847l-3.005-.109c0-.364.021-.665.107-1.029.559-2.299 2.919-3.092 5.045-3.092 2.425 0 5.023.86 5.023 3.735m-14.424 3.627h-4.444c.344 1.267 1.031 1.911 2.384 1.911 1.137 0 1.952-.793 2.06-1.911m3.326-2.404v.537c0 3.434-1.76 6.268-5.473 6.268-3.413 0-5.623-2.555-5.623-5.881 0-3.413 2.103-5.882 5.623-5.882 2.447 0 4.551 1.159 5.345 3.541l-3.177.216c-.472-.839-1.094-1.181-2.081-1.181-1.46 0-2.212 1.009-2.405 2.382zm-11.783.43-3.541.235c-.022-1.717-1.632-2.789-3.241-2.789-.859 0-1.675.278-2.34.816-1.288 1.074-1.546 2.768-1.546 4.336 0 2.51 1.009 5 3.886 5 1.18 0 2.232-.451 2.832-1.524.13-.258.258-.516.323-.794l3.412.235c-.042.367-.15.689-.257 1.031-.901 2.683-3.584 3.907-6.268 3.907-4.743 0-7.598-3.24-7.598-7.877 0-3.178 1.503-6.289 4.572-7.491.944-.364 1.974-.492 2.984-.492 2.468 0 4.764.901 6.031 3.111.408.708.665 1.502.751 2.296m108.028-1.455c-.535-.924-1.545-1.441-2.598-1.441-.73 0-1.482.346-1.482 1.183 0 1.438 2.298 1.459 3.306 1.717.258.064.516.149.774.258zm3.136 2.575c0 .901.041 2.19-.302 3.027-.817 1.934-2.899 2.235-4.743 2.235-2.513 0-4.597-1.074-4.748-3.845h2.922c-.043 1.095 1.073 1.396 1.953 1.396.666 0 1.698-.171 1.698-1.031 0-.795-1.16-.838-1.719-.923-2.404-.343-5.475-.623-5.475-3.779 0-2.254 1.717-3.586 3.866-3.586 1.587 0 2.275.473 3.5 1.332l.021-1.009h3.029zm11.743-2.784c0 2.791-2.746 3.285-4.893 3.734-.58.13-1.889.279-1.889 1.073s.944.902 1.545.902c.602 0 1.287-.214 1.674-.708.17-.214.236-.644.279-.902l2.961.151c-.129 2.725-2.423 3.777-4.871 3.777-2.254 0-4.636-.901-4.636-3.519 0-4.444 6.609-2.834 6.609-4.83 0-.88-.899-1.032-1.588-1.032-1.416 0-2.168.409-2.359 1.847l-3.006-.106c0-.366.021-.666.107-1.031.559-2.298 2.918-3.091 5.043-3.091 2.426 0 5.024.859 5.024 3.735m-23.803-3.413h-3.1543v15.154h3.1543zm-8.5 0v6.224c0 .708.043 1.568-.535 2.082-.303.28-.709.387-1.117.387-.473 0-.858-.13-1.225-.43-.752-.623-.707-1.673-.707-2.553v-5.71h-3.134v15.154h3.134v-5.174c.492.881 2.08 1.397 3.025 1.397.733 0 1.612-.195 2.211-.623 1.289-.923 1.502-2.168 1.502-3.65v-7.104zm-18.18 0v2.362l5.494 6.137h-4.872v2.62h8.801v-2.556l-5.324-5.944h5.689v-2.619zm-27.879 15.808h-3.784l-1.54-3.203h2.454zm1.33-4.678h-3.349l-1.845-7.492-2.019 7.492h-3.434l3.22-9.014c.171-.494.451-1.053.451-1.589 0-.365-.172-.901-.472-1.139-.302-.235-.968-.278-1.333-.278-.277 0-.556.021-.836.021v-2.491c.28 0 .559-.043.836-.043 1.375 0 3.113-.086 4.057 1.096.452.579.818 1.695 1.052 2.403z" transform="matrix(1.3333333 0 0 -1.3333333 75.267998 73.260001)"/><path d="m0 0v-22.234c0-2.436-.812-4.195-3.608-4.195-2.571 0-3.383 1.804-3.383 3.608v3.248h-6.99v-2.436c0-1.623.045-3.337.451-4.51 1.443-4.284 5.277-5.998 9.516-5.998 2.706 0 5.141.271 7.442 1.894 3.653 2.571 3.698 5.773 3.698 10.689v19.934zm25.572-24.264c-1.713-2.976-4.961-3.021-5.457-3.021-1.353 0-3.112.586-3.112 2.525 0 3.022 5.097 3.067 6.946 3.563.586.135.992.316 1.623.541zm6.587 5.414c0 1.894.091 4.6-.631 6.359-1.713 4.059-6.089 4.691-9.968 4.691-5.278 0-9.653-2.255-9.969-8.073h6.135c-.091 2.3 2.255 2.931 4.104 2.931 1.398 0 3.564-.361 3.564-2.165 0-1.669-2.436-1.759-3.609-1.939-5.052-.722-11.502-1.308-11.502-7.938 0-4.737 3.608-7.534 8.119-7.534 3.338 0 4.781.994 7.353 2.797l.044-2.12 6.364.001zm22.998 10.371h-18.491v-5.502h10.238l-11.546-12.899v-4.961h20.566v5.503h-11.952l11.185 12.492zm22.55 0h-18.491v-5.502h10.238l-11.546-12.899v-4.961h20.566v5.503h-11.952l11.185 12.492z" transform="matrix(1.3333333 0 0 -1.3333333 80.479998 14.157336)"/><path d="m0 0v-22.234c0-2.436-.812-4.195-3.608-4.195-2.571 0-3.383 1.804-3.383 3.608v3.248h-6.99v-2.436c0-1.623.045-3.337.451-4.51 1.443-4.284 5.277-5.998 9.516-5.998 2.706 0 5.141.271 7.442 1.894 3.653 2.571 3.698 5.773 3.698 10.689v19.934zm25.572-24.264c-1.713-2.976-4.961-3.021-5.457-3.021-1.353 0-3.112.586-3.112 2.525 0 3.022 5.097 3.067 6.946 3.563.586.135.992.316 1.623.541zm6.587 5.414c0 1.894.091 4.6-.631 6.359-1.713 4.059-6.089 4.691-9.968 4.691-5.278 0-9.653-2.255-9.969-8.073h6.135c-.091 2.3 2.255 2.931 4.104 2.931 1.398 0 3.564-.361 3.564-2.165 0-1.669-2.436-1.759-3.609-1.939-5.052-.722-11.502-1.308-11.502-7.938 0-4.737 3.608-7.534 8.119-7.534 3.338 0 4.781.994 7.353 2.797l.044-2.12 6.364.001zm22.998 10.371h-18.491v-5.502h10.238l-11.546-12.899v-4.961h20.566v5.503h-11.952l11.185 12.492zm22.55 0h-18.491v-5.502h10.238l-11.546-12.899v-4.961h20.566v5.503h-11.952l11.185 12.492z" transform="matrix(1.3333333 0 0 -1.3333333 80.479998 14.157336)"/></g></svg>