<?xml version="1.0" encoding="UTF-8" standalone="no"?>
<!-- Created with Inkscape (http://www.inkscape.org/) -->

<svg
   xmlns:dc="http://purl.org/dc/elements/1.1/"
   xmlns:cc="http://creativecommons.org/ns#"
   xmlns:rdf="http://www.w3.org/1999/02/22-rdf-syntax-ns#"
   xmlns:svg="http://www.w3.org/2000/svg"
   xmlns="http://www.w3.org/2000/svg"
   xmlns:sodipodi="http://sodipodi.sourceforge.net/DTD/sodipodi-0.dtd"
   xmlns:inkscape="http://www.inkscape.org/namespaces/inkscape"
   width="1066.6666"
   height="518.14417"
   id="svg3392"
   version="1.1"
   inkscape:version="0.92.0 r15299"
   sodipodi:docname="Cesky rozhlas D-dur.svg"
   viewBox="0 0 1000 485.76013">
  <defs
     id="defs3394" />
  <sodipodi:namedview
     id="base"
     pagecolor="#ffffff"
     bordercolor="#666666"
     borderopacity="1.0"
     inkscape:pageopacity="0.0"
     inkscape:pageshadow="2"
     inkscape:zoom="0.35"
     inkscape:cx="35.867946"
     inkscape:cy="56.12229"
     inkscape:document-units="px"
     inkscape:current-layer="layer1"
     showgrid="false"
     fit-margin-left="0.5"
     fit-margin-top="0.5"
     fit-margin-bottom="0.5"
     fit-margin-right="0.5"
     inkscape:window-width="1920"
     inkscape:window-height="1017"
     inkscape:window-x="-8"
     inkscape:window-y="-8"
     inkscape:window-maximized="1" />
  <metadata
     id="metadata3397">
    <rdf:RDF>
      <cc:Work
         rdf:about="">
        <dc:format>image/svg+xml</dc:format>
        <dc:type
           rdf:resource="http://purl.org/dc/dcmitype/StillImage" />
        <dc:title></dc:title>
      </cc:Work>
    </rdf:RDF>
  </metadata>
  <g
     inkscape:label="Layer 1"
     inkscape:groupmode="layer"
     id="layer1"
     transform="translate(125.15366,-102.72435)">
    <g
       transform="matrix(12.581658,0,0,-12.581658,-5383.7175,4480.5656)"
       id="g3451"
       style="fill:#ffffff;fill-opacity:1">
      <g
         transform="translate(417.9945,326.1005)"
         id="g3347"
         style="fill:#ffffff;fill-opacity:1">
        <path
           inkscape:connector-curvature="0"
           id="path3349"
           style="fill:#ffffff;fill-opacity:1;fill-rule:nonzero;stroke:none"
           d="m 0,0 h 18.579 l 2.858,-4.647 H 0 Z M 0,7.261 V 2.646 H 16.951 L 14.113,7.261 Z M 18.185,9.907 H 0 v 4.623 h 19.403 c 0.01,-0.182 0.014,-0.365 0.012,-0.552 -0.016,-1.72 -0.427,-3.046 -1.23,-4.071 M 9.33,21.814 H 0 v -4.639 h 18.822 c -1.36,3.17 -4.941,4.639 -9.492,4.639" />
      </g>
      <g
         transform="translate(449.4998,316.8129)"
         id="g3351"
         style="fill:#ffffff;fill-opacity:1">
        <path
           inkscape:connector-curvature="0"
           id="path3353"
           style="fill:#ffffff;fill-opacity:1;fill-rule:nonzero;stroke:none"
           d="m 0,0 h -1.376 l -0.74,0.935 h 1.082 l 0.358,-0.543 0.341,0.543 h 1.1 z m 27.544,-4.012 c 0,-0.618 -0.209,-1.299 -0.938,-1.299 -0.713,0 -0.938,0.658 -0.938,1.259 0,0.617 0.241,1.226 0.954,1.226 0.698,0 0.922,-0.593 0.922,-1.186 m 1.21,-0.048 c 0,1.242 -0.801,2.179 -2.075,2.179 -1.347,0 -2.221,-0.873 -2.221,-2.22 0,-1.274 0.81,-2.172 2.108,-2.172 1.291,0 2.188,0.93 2.188,2.213 m -4.488,1.049 v 1.074 c -0.072,0.008 -0.136,0.016 -0.209,0.016 -0.56,0 -0.873,-0.24 -1.073,-0.761 v 0.681 h -1.155 v -4.151 h 1.211 v 1.354 c 0,0.208 0,0.425 0.008,0.633 0.016,0.673 0.112,1.178 0.938,1.178 0.096,0 0.184,-0.008 0.28,-0.024 m -9.008,-3.141 -1.715,2.581 1.602,1.57 h -1.53 l -1.283,-1.418 v 2.925 h -1.178 v -5.658 h 1.178 v 1.378 l 0.385,0.385 1.042,-1.763 z m -4.712,1.274 c 0,1.042 -1.027,1.227 -1.828,1.394 -0.217,0.049 -0.705,0.105 -0.705,0.401 0,0.297 0.352,0.337 0.576,0.337 0.225,0 0.481,-0.08 0.626,-0.265 0.064,-0.08 0.088,-0.24 0.104,-0.337 l 1.106,0.057 c -0.048,1.017 -0.906,1.41 -1.819,1.41 -0.842,0 -1.731,-0.336 -1.731,-1.314 0,-1.659 2.468,-1.058 2.468,-1.804 0,-0.328 -0.336,-0.384 -0.593,-0.384 -0.529,0 -0.81,0.152 -0.882,0.689 l -1.122,-0.04 c 0,-0.136 0.008,-0.248 0.04,-0.384 0.209,-0.859 1.09,-1.155 1.884,-1.155 0.905,0 1.876,0.321 1.876,1.395 M 5.159,-3.524 H 3.5 c 0.129,0.473 0.385,0.714 0.89,0.714 0.425,0 0.729,-0.297 0.769,-0.714 m 1.242,-0.897 v 0.2 c 0,1.282 -0.657,2.34 -2.043,2.34 -1.275,0 -2.1,-0.953 -2.1,-2.196 0,-1.274 0.785,-2.196 2.1,-2.196 0.913,0 1.699,0.433 1.996,1.322 L 5.167,-4.87 C 4.991,-5.183 4.759,-5.311 4.39,-5.311 c -0.545,0 -0.826,0.377 -0.898,0.89 z m -4.4,0.16 -1.322,0.088 c -0.008,-0.641 -0.609,-1.042 -1.21,-1.042 -0.321,0 -0.626,0.104 -0.874,0.305 -0.481,0.401 -0.577,1.034 -0.577,1.619 0,0.937 0.377,1.867 1.451,1.867 0.441,0 0.833,-0.168 1.058,-0.569 0.048,-0.096 0.096,-0.192 0.12,-0.296 l 1.274,0.088 c -0.015,0.136 -0.056,0.257 -0.096,0.384 -0.336,1.002 -1.338,1.459 -2.34,1.459 -1.771,0 -2.837,-1.21 -2.837,-2.941 0,-1.187 0.561,-2.348 1.707,-2.797 0.352,-0.136 0.737,-0.184 1.114,-0.184 0.922,0 1.779,0.336 2.252,1.162 0.152,0.264 0.248,0.561 0.28,0.857 M 42.34,-4.804 c -0.2,-0.345 -0.577,-0.538 -0.97,-0.538 -0.273,0 -0.554,0.129 -0.554,0.441 0,0.538 0.859,0.545 1.235,0.641 0.096,0.024 0.193,0.056 0.289,0.097 z m 1.171,0.961 c 0,0.337 0.015,0.818 -0.113,1.131 -0.305,0.722 -1.082,0.834 -1.771,0.834 -0.938,0 -1.716,-0.401 -1.773,-1.436 h 1.091 c -0.016,0.409 0.401,0.521 0.73,0.521 0.248,0 0.634,-0.063 0.634,-0.384 0,-0.297 -0.434,-0.313 -0.642,-0.345 -0.898,-0.128 -2.045,-0.233 -2.045,-1.411 0,-0.842 0.642,-1.339 1.444,-1.339 0.593,0 0.849,0.176 1.307,0.497 l 0.008,-0.376 h 1.131 z m 4.385,-1.039 c 0,1.042 -1.026,1.226 -1.827,1.394 -0.217,0.049 -0.705,0.104 -0.705,0.401 0,0.296 0.352,0.336 0.577,0.336 0.224,0 0.48,-0.079 0.625,-0.264 0.063,-0.08 0.088,-0.24 0.104,-0.337 l 1.105,0.057 c -0.048,1.017 -0.905,1.41 -1.818,1.41 -0.842,0 -1.732,-0.336 -1.732,-1.314 0,-1.659 2.468,-1.058 2.468,-1.804 0,-0.328 -0.335,-0.385 -0.593,-0.385 -0.528,0 -0.809,0.153 -0.881,0.69 l -1.122,-0.04 c 0,-0.136 0.008,-0.249 0.04,-0.385 0.209,-0.858 1.09,-1.154 1.883,-1.154 0.906,0 1.876,0.321 1.876,1.395 M 39.008,-6.157 H 37.83 v 5.659 h 1.178 z m -3.174,0 v 2.324 c 0,0.265 0.016,0.586 -0.2,0.778 -0.113,0.104 -0.265,0.144 -0.417,0.144 -0.177,0 -0.32,-0.048 -0.458,-0.16 -0.28,-0.233 -0.264,-0.625 -0.264,-0.954 v -2.132 h -1.17 v 5.659 h 1.17 V -2.43 c 0.184,0.329 0.777,0.521 1.13,0.521 0.274,0 0.602,-0.072 0.826,-0.232 0.481,-0.345 0.561,-0.81 0.561,-1.363 v -2.653 z m -6.789,0 v 0.882 l 2.052,2.292 h -1.819 v 0.978 h 3.286 v -0.954 l -1.988,-2.22 H 32.7 v -0.978 z m -10.41,5.903 H 17.222 L 16.647,-1.45 h 0.916 z m 0.497,-1.747 h -1.251 l -0.689,-2.797 -0.754,2.797 h -1.282 l 1.202,-3.366 c 0.064,-0.184 0.169,-0.393 0.169,-0.593 0,-0.136 -0.065,-0.337 -0.177,-0.425 -0.112,-0.088 -0.361,-0.104 -0.497,-0.104 -0.104,0 -0.208,0.008 -0.312,0.008 v -0.93 c 0.104,0 0.208,-0.016 0.312,-0.016 0.513,0 1.162,-0.032 1.514,0.409 0.169,0.216 0.306,0.633 0.394,0.897 z" />
      </g>
      <g
         transform="translate(446.565,333.3595)"
         id="g3355"
         style="fill:#ffffff;fill-opacity:1">
        <path
           inkscape:connector-curvature="0"
           id="path3357"
           style="fill:#ffffff;fill-opacity:1;fill-rule:nonzero;stroke:none"
           d="m 0,0 v -11.903 h 3.827 c 1.045,0 2.108,0.034 3.085,0.439 2.192,0.91 3.17,3.237 3.17,5.496 0,1.871 -0.59,3.81 -2.158,4.973 C 6.744,-0.118 5.344,0 3.928,0 Z m 2.664,-2.225 h 0.725 c 0.775,0 1.77,0 2.461,-0.371 1.113,-0.59 1.383,-2.125 1.383,-3.254 0,-3.76 -1.922,-3.844 -3.777,-3.844 H 2.664 Z m 8.446,-5.716 h 4.889 v 1.905 H 11.11 Z m 14.314,-3.962 V 0 h -2.512 v -3.743 c -0.607,0.506 -1.299,0.793 -2.091,0.793 -2.647,0 -3.844,-2.293 -3.844,-4.67 0,-2.226 1.248,-4.502 3.726,-4.502 0.894,0 1.804,0.27 2.31,1.062 v -0.843 z m -2.428,4.316 c 0,-1.146 -0.304,-2.478 -1.703,-2.478 -1.433,0 -1.787,1.366 -1.787,2.563 0,1.095 0.421,2.512 1.753,2.512 1.45,0 1.737,-1.417 1.737,-2.597 m 11.869,-4.316 v 8.733 h -2.411 v -4.552 c 0,-1.315 -0.253,-2.343 -1.501,-2.343 -1.18,0 -1.365,0.927 -1.365,1.888 v 5.007 h -2.479 v -5.091 c 0,-1.652 0.186,-3.861 2.917,-3.861 0.894,0 1.99,0.388 2.478,1.18 v -0.961 z m 4.147,8.733 h -2.428 v -8.733 h 2.546 v 4.299 c 0,1.046 0.202,2.361 1.99,2.361 0.219,0 0.354,-0.017 0.59,-0.051 v 2.259 c -0.22,0.034 -0.321,0.034 -0.439,0.034 -1.062,0 -1.787,-0.388 -2.259,-1.602 z" />
      </g>
    </g>
  </g>
</svg>
