<?xml version="1.0" encoding="UTF-8" standalone="no"?>
<!-- Created with Inkscape (http://www.inkscape.org/) -->

<svg
   xmlns:dc="http://purl.org/dc/elements/1.1/"
   xmlns:cc="http://creativecommons.org/ns#"
   xmlns:rdf="http://www.w3.org/1999/02/22-rdf-syntax-ns#"
   xmlns:svg="http://www.w3.org/2000/svg"
   xmlns="http://www.w3.org/2000/svg"
   xmlns:sodipodi="http://sodipodi.sourceforge.net/DTD/sodipodi-0.dtd"
   xmlns:inkscape="http://www.inkscape.org/namespaces/inkscape"
   version="1.1"
   id="svg2"
   xml:space="preserve"
   width="524.65381"
   height="58.598801"
   viewBox="0 0 524.65383 58.598801"
   sodipodi:docname="Cesky rozhlas Region Praha a stredni Cechy.svg"
   inkscape:version="0.92.0 r15299"><metadata
     id="metadata8"><rdf:RDF><cc:Work
         rdf:about=""><dc:format>image/svg+xml</dc:format><dc:type
           rdf:resource="http://purl.org/dc/dcmitype/StillImage" /><dc:title></dc:title></cc:Work></rdf:RDF></metadata><defs
     id="defs6" /><sodipodi:namedview
     pagecolor="#ffffff"
     bordercolor="#666666"
     borderopacity="1"
     objecttolerance="10"
     gridtolerance="10"
     guidetolerance="10"
     inkscape:pageopacity="0"
     inkscape:pageshadow="2"
     inkscape:window-width="1920"
     inkscape:window-height="1017"
     id="namedview4"
     showgrid="false"
     fit-margin-top="0"
     fit-margin-left="0"
     fit-margin-right="0"
     fit-margin-bottom="0"
     inkscape:zoom="2.2100479"
     inkscape:cx="195.38542"
     inkscape:cy="47.555628"
     inkscape:window-x="-8"
     inkscape:window-y="-8"
     inkscape:window-maximized="1"
     inkscape:current-layer="g10" /><g
     id="g10"
     inkscape:groupmode="layer"
     inkscape:label="CRo-Region-H-RGB"
     transform="matrix(1.3333333,0,0,-1.3333333,-75.590665,204.47689)"><g
       id="g12"
       transform="matrix(0.58721393,0,0,0.58721393,56.693,132.77465)"><path
         d="m 0,0 h 29.854 l 4.593,-7.467 H 0 Z M 0,11.667 V 4.252 h 27.237 l -4.56,7.415 z m 29.22,4.252 H 0 v 7.428 h 31.178 c 0.015,-0.291 0.023,-0.585 0.02,-0.886 -0.026,-2.764 -0.687,-4.895 -1.978,-6.542 M 14.991,35.052 H 0 v -7.453 h 30.245 c -2.185,5.092 -7.94,7.453 -15.254,7.453"
         style="fill:#00ab96;fill-opacity:1;fill-rule:nonzero;stroke:none"
         id="path14"
         inkscape:connector-curvature="0" /></g><g
       id="g16"
       transform="matrix(0.58721393,0,0,0.58721393,98.338799,137.16349)"><path
         d="m 0,0 c 1.444,1.853 1.985,4.292 1.985,6.596 0,1.582 -0.316,3.434 -0.992,4.88 -2.302,4.79 -6.589,5.467 -11.417,5.467 h -12.274 v -31.899 h 7.22 v 11.025 h 4.806 l 6.641,-11.025 H 3.965 L -3.358,-2.8 C -2.143,-2.218 -1.02,-1.341 0,0 Z M -5.19,6.552 C -5.19,4.744 -6.047,3.208 -7.717,2.44 -8.8,1.942 -10.469,1.942 -11.642,1.942 c -1.264,0 -2.572,0.046 -3.836,0.046 v 9.127 h 3.474 c 2.076,0 4.423,0.09 5.867,-1.717 C -5.506,8.585 -5.19,7.59 -5.19,6.552 Z m 33.7,-11.756 v 1.13 c 0,7.232 -3.706,13.198 -11.526,13.198 -7.187,0 -11.842,-5.379 -11.842,-12.385 0,-7.186 4.429,-12.384 11.842,-12.384 5.153,0 9.583,2.44 11.255,7.458 l -6.69,0.452 c -0.994,-1.763 -2.305,-2.486 -4.384,-2.486 -3.074,0 -4.656,2.124 -5.062,5.017 z m -16.362,5.062 c 0.723,2.667 2.169,4.023 5.017,4.023 2.396,0 4.113,-1.672 4.339,-4.023 z m 35.12,8.588 V 5.373 c -1.763,2.44 -3.616,3.706 -6.735,3.706 -6.373,0 -9.808,-5.605 -9.808,-11.436 0,-5.921 3.571,-11.119 9.899,-11.119 2.35,0 5.107,0.904 6.554,2.893 -0.046,-0.316 -0.046,-0.633 -0.046,-0.949 0,-3.435 -0.406,-5.876 -4.474,-5.876 -1.628,0 -3.164,0.542 -3.797,2.169 H 31.81 c 0.497,-5.74 5.333,-7.412 10.35,-7.412 4.204,0 8.95,1.039 10.758,5.333 0.678,1.627 0.769,3.481 0.769,5.243 V 8.446 Z M 47.087,-1.905 c 0,-3.118 -1.582,-5.921 -4.972,-5.921 -3.254,0 -4.881,2.712 -4.881,5.695 0,3.074 1.762,5.741 5.062,5.741 3.164,0 4.791,-2.577 4.791,-5.515 z M 64.76,8.446 H 58.1608 V -14.968 H 64.76 Z m 0,8.498 H 58.1608 V 10.9324 H 64.76 Z M 92.377,-3.17 c 0,7.006 -4.52,12.294 -11.706,12.294 -7.594,0 -12.521,-4.927 -12.521,-12.52 0,-7.187 4.565,-12.249 11.888,-12.249 7.277,0 12.339,5.243 12.339,12.475 z m -6.825,0.271 c 0,-3.48 -1.175,-7.322 -5.288,-7.322 -4.023,0 -5.289,3.706 -5.289,7.096 0,3.48 1.356,6.916 5.379,6.916 3.933,0 5.198,-3.345 5.198,-6.69 z m 31.278,-12.068 v 14.373 c 0,3.164 -0.452,6.012 -3.119,8.046 -1.401,1.085 -3.164,1.537 -4.926,1.537 -2.712,0 -4.837,-1.176 -6.464,-3.255 v 2.712 h -6.509 v -23.413 h 6.69 v 12.972 c 0,2.486 0.859,5.288 4.023,5.288 2.621,0 3.48,-2.214 3.48,-4.474 v -13.786 h 6.825"
         style="fill:#00ab96;fill-opacity:1;fill-rule:nonzero;stroke:none"
         id="path18"
         inkscape:connector-curvature="0" /></g><g
       id="g20"
       transform="matrix(0.58721393,0,0,0.58721393,119.73218,117.94574)"><path
         d="M 0,0 H -3.351 L -5.196,-7.494 -7.215,0 h -3.436 l 3.22,-9.018 c 0.172,-0.494 0.452,-1.052 0.452,-1.589 0,-0.365 -0.172,-0.901 -0.472,-1.138 -0.302,-0.237 -0.967,-0.28 -1.333,-0.28 -0.278,0 -0.557,0.022 -0.836,0.022 v -2.492 c 0.279,0 0.558,-0.042 0.836,-0.042 1.375,0 3.115,-0.087 4.058,1.095 0.452,0.58 0.818,1.697 1.054,2.405 z m -1.33,4.681 h -3.786 l -1.54,-3.204 h 2.455 z m 27.889,-15.815 v 2.362 l 5.497,6.14 h -4.875 v 2.621 h 8.805 V -2.566 L 30.66,-8.514 h 5.691 v -2.62 z m 18.187,0 v 6.227 c 0,0.709 0.043,1.568 -0.536,2.083 -0.301,0.279 -0.709,0.386 -1.118,0.386 -0.471,0 -0.857,-0.128 -1.223,-0.429 -0.752,-0.623 -0.708,-1.675 -0.708,-2.555 v -5.712 h -3.136 v 15.16 h 3.136 v -5.175 c 0.493,0.88 2.082,1.396 3.027,1.396 0.731,0 1.61,-0.194 2.212,-0.623 1.288,-0.923 1.501,-2.169 1.501,-3.651 v -7.107 z m 8.503,0 h -3.156 v 15.16 h 3.156 z m 23.812,3.414 c 0,2.792 -2.748,3.286 -4.895,3.736 -0.58,0.13 -1.889,0.28 -1.889,1.074 0,0.794 0.945,0.901 1.545,0.901 0.602,0 1.288,-0.214 1.675,-0.708 0.171,-0.214 0.236,-0.644 0.279,-0.901 l 2.963,0.15 c -0.129,2.726 -2.426,3.779 -4.874,3.779 -2.254,0 -4.639,-0.902 -4.639,-3.521 0,-4.445 6.614,-2.836 6.614,-4.832 0,-0.88 -0.9,-1.031 -1.588,-1.031 -1.418,0 -2.169,0.408 -2.362,1.847 l -3.006,-0.107 c 0,-0.365 0.02,-0.666 0.107,-1.03 0.558,-2.299 2.92,-3.093 5.045,-3.093 2.427,0 5.025,0.859 5.025,3.736 m -11.747,2.785 c 0,0.903 0.042,2.192 -0.302,3.029 -0.816,1.934 -2.899,2.235 -4.746,2.235 -2.513,0 -4.597,-1.074 -4.747,-3.846 h 2.922 c -0.044,1.095 1.073,1.396 1.954,1.396 0.665,0 1.696,-0.171 1.696,-1.03 0,-0.795 -1.16,-0.838 -1.718,-0.923 -2.406,-0.344 -5.477,-0.624 -5.477,-3.782 0,-2.254 1.718,-3.587 3.866,-3.587 1.589,0 2.278,0.473 3.501,1.333 l 0.022,-1.009 h 3.031 z m -3.137,-2.576 c -0.537,-0.924 -1.547,-1.44 -2.599,-1.44 -0.731,0 -1.483,0.344 -1.483,1.182 0,1.439 2.3,1.46 3.309,1.718 0.258,0.064 0.515,0.15 0.773,0.257 z m -108.07,1.456 -3.542,0.236 c -0.022,-1.718 -1.632,-2.79 -3.242,-2.79 -0.86,0 -1.676,0.278 -2.341,0.815 -1.288,1.074 -1.546,2.77 -1.546,4.338 0,2.512 1.009,5.002 3.887,5.002 1.18,0 2.233,-0.45 2.833,-1.525 0.13,-0.257 0.258,-0.515 0.323,-0.794 l 3.414,0.236 c -0.043,0.366 -0.151,0.688 -0.258,1.03 -0.901,2.685 -3.585,3.909 -6.27,3.909 -4.745,0 -7.6,-3.242 -7.6,-7.881 0,-3.178 1.503,-6.291 4.573,-7.493 0.944,-0.365 1.975,-0.493 2.985,-0.493 2.469,0 4.766,0.902 6.033,3.113 0.408,0.708 0.666,1.503 0.751,2.297 m 11.789,-0.43 v 0.538 c 0,3.434 -1.761,6.27 -5.476,6.27 -3.414,0 -5.625,-2.555 -5.625,-5.884 0,-3.415 2.103,-5.883 5.625,-5.883 2.448,0 4.553,1.159 5.347,3.542 l -3.178,0.215 c -0.473,-0.838 -1.095,-1.18 -2.082,-1.18 -1.461,0 -2.213,1.009 -2.406,2.382 z m -3.328,2.405 h -4.446 c 0.344,1.267 1.031,1.912 2.385,1.912 1.137,0 1.953,-0.794 2.061,-1.912 m 14.429,-3.628 c 0,2.792 -2.749,3.286 -4.896,3.736 -0.58,0.129 -1.89,0.28 -1.89,1.074 0,0.794 0.945,0.901 1.546,0.901 0.602,0 1.288,-0.214 1.675,-0.708 0.172,-0.215 0.236,-0.644 0.279,-0.902 l 2.964,0.151 c -0.129,2.726 -2.427,3.779 -4.875,3.779 -2.254,0 -4.638,-0.903 -4.638,-3.522 0,-4.445 6.614,-2.835 6.614,-4.832 0,-0.88 -0.902,-1.03 -1.59,-1.03 -1.416,0 -2.168,0.408 -2.361,1.847 l -3.006,-0.107 c 0,-0.366 0.021,-0.666 0.107,-1.031 0.558,-2.299 2.92,-3.092 5.046,-3.092 2.426,0 5.025,0.859 5.025,3.736 m 12.624,-3.414 -4.594,6.914 4.294,4.208 h -4.101 l -3.435,-3.8 v 7.837 h -3.157 v -15.159 h 3.157 v 3.693 l 1.03,1.031 2.792,-4.724 z m 24.134,8.417 v 2.877 c -0.192,0.022 -0.364,0.042 -0.558,0.042 -1.502,0 -2.34,-0.643 -2.877,-2.038 V 0 H 7.228 v -11.122 h 3.243 v 3.628 c 0,0.559 0,1.138 0.021,1.697 0.043,1.803 0.301,3.156 2.513,3.156 0.257,0 0.493,-0.021 0.75,-0.064 M 25.78,-5.518 c 0,3.328 -2.147,5.841 -5.561,5.841 -3.608,0 -5.948,-2.341 -5.948,-5.949 0,-3.414 2.169,-5.818 5.646,-5.818 3.458,0 5.863,2.491 5.863,5.926 m -3.242,0.129 c 0,-1.653 -0.559,-3.478 -2.512,-3.478 -1.912,0 -2.514,1.76 -2.514,3.371 0,1.653 0.645,3.285 2.555,3.285 1.869,0 2.471,-1.589 2.471,-3.178 M -51.254,5.36 h -3.688 l -1.982,2.504 h 2.901 l 0.958,-1.452 0.914,1.452 h 2.945 L -51.254,5.36"
         style="fill:#00ab96;fill-opacity:1;fill-rule:nonzero;stroke:none"
         id="path22"
         inkscape:connector-curvature="0" /></g><path
       style="opacity:1;fill:#00ab96;fill-opacity:1;stroke:none;stroke-width:9.97375393;stroke-miterlimit:4;stroke-dasharray:none;stroke-opacity:1"
       d="m 176.693,138.87457 h 4.5 v -4.5 h -4.5 z"
       id="rect4511"
       inkscape:connector-curvature="0"
       sodipodi:nodetypes="ccccc" /><g
       transform="matrix(0.87559249,0,0,0.87559249,199.58723,92.130985)"
       id="g4596"
       style="fill:#00ab96;fill-opacity:1"><path
         d="m -9.8724313,41.359559 v 21.474608 h 8.100586 q 2.1386723,0 3.2666018,-0.205073 1.5820313,-0.263677 2.6513671,-1.010745 1.0693358,-0.73242 1.713867,-2.065432 0.6591803,-1.333005 0.6591803,-2.929688 0,-2.739255 -1.7431643,-4.64355 -1.7431643,-1.889648 -6.2988287,-1.889648 h -5.5078126 v -8.730472 z m 2.8417966,11.264647 h 5.5517581 q 2.7539064,0 3.9111332,1.025393 1.1572267,1.025393 1.1572267,2.885745 0,1.347653 -0.6884767,2.2998 -0.6738286,0.966795 -1.7871098,1.274415 -0.7177733,0.190433 -2.6513671,0.190433 h -5.4931644 z"
         style="font-style:normal;font-variant:normal;font-weight:normal;font-stretch:normal;font-size:medium;line-height:25px;font-family:Arial;-inkscape-font-specification:Arial;letter-spacing:0px;word-spacing:0px;fill:#00ab96;fill-opacity:1;stroke:none;stroke-width:0.75px;stroke-linecap:butt;stroke-linejoin:miter;stroke-opacity:1"
         id="path4505"
         inkscape:connector-curvature="0" /><path
         d="m 9.800421,41.359559 v 15.556643 h 2.373047 v -2.358398 q 0.908203,1.655273 1.669922,2.182613 0.776367,0.527347 1.699219,0.527347 1.333007,0 2.70996,-0.849607 l -0.908203,-2.44629 q -0.966797,0.57129 -1.933594,0.57129 -0.864257,0 -1.552734,-0.527348 -0.688477,-0.512692 -0.981445,-1.435545 -0.439453,-1.40625 -0.439453,-3.07617 v -8.144535 z"
         style="font-style:normal;font-variant:normal;font-weight:normal;font-stretch:normal;font-size:medium;line-height:25px;font-family:Arial;-inkscape-font-specification:Arial;letter-spacing:0px;word-spacing:0px;fill:#00ab96;fill-opacity:1;stroke:none;stroke-width:0.75px;stroke-linecap:butt;stroke-linejoin:miter;stroke-opacity:1"
         id="path4507"
         inkscape:connector-curvature="0" /><path
         d="m 30.000616,43.278501 q -1.464844,-1.245112 -2.827148,-1.757812 -1.347656,-0.512693 -2.90039,-0.512693 -2.563477,0 -3.940431,1.24512 -1.376953,1.25976 -1.376953,3.208005 0,1.14258 0.512696,2.08008 0.527344,0.952148 1.362305,1.523438 0.849609,0.57129 1.904296,0.864255 0.776368,0.20508 2.34375,0.395512 3.19336,0.380858 4.702149,0.908198 0.01465,0.541995 0.01465,0.688477 0,1.611331 -0.747071,2.270513 -1.010742,0.89355 -3.002929,0.89355 -1.860352,0 -2.753907,-0.659175 -0.878906,-0.644535 -1.30371,-2.299808 l -2.578125,0.351563 q 0.351562,1.655273 1.157226,2.666018 0.805664,1.025385 2.329101,1.56738 1.523438,0.556642 3.530274,0.556642 1.992187,0 3.237305,-0.46875 1.245117,-0.46875 1.831055,-1.186522 0.585937,-0.703125 0.820312,-1.787115 0.131836,-0.673823 0.131836,-2.431636 v -3.515625 q 0,-3.676762 0.161133,-4.658205 0.175781,-0.966795 0.673828,-1.860352 h -2.753907 q -0.410156,0.820312 -0.527343,1.918942 z m -0.219726,5.888678 q -1.435547,-0.585938 -4.306641,-0.996098 -1.625977,-0.234375 -2.299804,-0.52734 -0.673829,-0.292972 -1.04004,-0.864262 -0.36621,-0.556635 -0.36621,-1.245113 0,-1.054687 0.791015,-1.757812 0.805664,-0.703125 2.34375,-0.703125 1.523437,0 2.709961,0.659175 1.186524,0.67383 1.743164,1.831057 0.424805,0.893558 0.424805,2.636715 z"
         style="font-style:normal;font-variant:normal;font-weight:normal;font-stretch:normal;font-size:medium;line-height:25px;font-family:Arial;-inkscape-font-specification:Arial;letter-spacing:0px;word-spacing:0px;fill:#00ab96;fill-opacity:1;stroke:none;stroke-width:0.75px;stroke-linecap:butt;stroke-linejoin:miter;stroke-opacity:1"
         id="path4509"
         inkscape:connector-curvature="0" /><path
         d="m 36.548468,41.359559 v 21.474608 h 2.636719 v -7.705073 q 1.845704,2.13867 4.658204,2.13867 1.728515,0 3.002929,-0.688477 1.274414,-0.67383 1.816407,-1.875 0.55664,-1.20117 0.55664,-3.486331 v -9.858397 h -2.636719 v 9.858397 q 0,1.977541 -0.864258,2.871098 -0.849609,0.908198 -2.416992,0.908198 -1.171875,0 -2.211914,-0.615233 -1.025391,-0.600585 -1.464843,-1.640625 -0.439454,-1.04004 -0.439454,-2.87109 v -8.510745 z"
         style="font-style:normal;font-variant:normal;font-weight:normal;font-stretch:normal;font-size:medium;line-height:25px;font-family:Arial;-inkscape-font-specification:Arial;letter-spacing:0px;word-spacing:0px;fill:#00ab96;fill-opacity:1;stroke:none;stroke-width:0.75px;stroke-linecap:butt;stroke-linejoin:miter;stroke-opacity:1"
         id="path4511"
         inkscape:connector-curvature="0" /><path
         d="m 63.399055,43.278501 q -1.464844,-1.245112 -2.827149,-1.757812 -1.347656,-0.512693 -2.90039,-0.512693 -2.563477,0 -3.94043,1.24512 -1.376953,1.25976 -1.376953,3.208005 0,1.14258 0.512695,2.08008 0.527344,0.952148 1.362305,1.523438 0.849609,0.57129 1.904297,0.864255 0.776367,0.20508 2.34375,0.395512 3.193359,0.380858 4.702148,0.908198 0.01465,0.541995 0.01465,0.688477 0,1.611331 -0.747071,2.270513 -1.010742,0.89355 -3.00293,0.89355 -1.860351,0 -2.753906,-0.659175 -0.878906,-0.644535 -1.303711,-2.299808 l -2.578125,0.351563 q 0.351563,1.655273 1.157227,2.666018 0.805664,1.025385 2.329101,1.56738 1.523438,0.556642 3.530274,0.556642 1.992187,0 3.237305,-0.46875 1.245117,-0.46875 1.831055,-1.186522 0.585937,-0.703125 0.820312,-1.787115 0.131836,-0.673823 0.131836,-2.431636 v -3.515625 q 0,-3.676762 0.161133,-4.658205 0.175781,-0.966795 0.673828,-1.860352 H 63.9264 q -0.410157,0.820312 -0.527344,1.918942 z m -0.219727,5.888678 q -1.435547,-0.585938 -4.30664,-0.996098 -1.625977,-0.234375 -2.299805,-0.52734 -0.673828,-0.292972 -1.040039,-0.864262 -0.366211,-0.556635 -0.366211,-1.245113 0,-1.054687 0.791015,-1.757812 0.805665,-0.703125 2.343751,-0.703125 1.523437,0 2.70996,0.659175 1.186524,0.67383 1.743165,1.831057 0.424804,0.893558 0.424804,2.636715 z"
         style="font-style:normal;font-variant:normal;font-weight:normal;font-stretch:normal;font-size:medium;line-height:25px;font-family:Arial;-inkscape-font-specification:Arial;letter-spacing:0px;word-spacing:0px;fill:#00ab96;fill-opacity:1;stroke:none;stroke-width:0.75px;stroke-linecap:butt;stroke-linejoin:miter;stroke-opacity:1"
         id="path4513"
         inkscape:connector-curvature="0" /><path
         d="m 88.418587,43.278501 c -0.976563,-0.830075 -1.918946,-1.416012 -2.827149,-1.757812 -0.898437,-0.341795 -1.865234,-0.512693 -2.900391,-0.512693 -1.708984,0 -3.02246,0.41504 -3.940429,1.24512 -0.917969,0.83984 -1.376953,1.909175 -1.376953,3.208005 0,0.76172 0.170898,1.45508 0.512695,2.08008 0.351562,0.634765 0.805664,1.142578 1.362305,1.523438 0.566406,0.38086 1.201171,0.668945 1.904296,0.864255 0.517578,0.13672 1.298828,0.268557 2.34375,0.395512 2.128907,0.253905 3.69629,0.556638 4.702149,0.908198 0.0098,0.36133 0.01465,0.590822 0.01465,0.688477 0,1.074221 -0.249023,1.831058 -0.74707,2.270513 -0.673828,0.5957 -1.674805,0.89355 -3.00293,0.89355 -1.240235,0 -2.158203,-0.219725 -2.753906,-0.659175 -0.585937,-0.42969 -1.020508,-1.196293 -1.303712,-2.299808 l -2.578125,0.351563 c 0.234375,1.103515 0.620118,1.992188 1.157227,2.666018 0.537109,0.68359 1.313477,1.20605 2.329102,1.56738 1.015625,0.371095 2.192382,0.556316 3.530273,0.556316 1.328125,0 2.407227,-0.155924 3.237305,-0.468424 0.830079,-0.3125 1.44043,-0.708007 1.831055,-1.186522 0.390625,-0.46875 0.664063,-1.064455 0.820313,-1.787115 0.08789,-0.449215 0.131835,-1.259761 0.131835,-2.431636 v -3.515625 c 0,-2.451175 0.05371,-4.00391 0.161133,-4.658205 0.117188,-0.64453 0.341797,-1.264647 0.673828,-1.860352 h -2.753906 c -0.273437,0.546875 -0.449219,1.186522 -0.527344,1.918942 z m -0.219727,5.888678 c -0.957031,-0.390625 -2.392578,-0.722658 -4.306641,-0.996098 -1.083984,-0.15625 -1.850585,-0.33203 -2.299804,-0.52734 -0.449219,-0.195315 -0.795899,-0.483402 -1.040039,-0.864262 -0.244141,-0.37109 -0.366211,-0.786128 -0.366211,-1.245113 0,-0.703125 0.263672,-1.289062 0.791015,-1.757812 0.537109,-0.46875 1.318359,-0.703125 2.34375,-0.703125 1.015625,0 1.918946,0.219725 2.709961,0.659175 0.791016,0.44922 1.372071,1.059572 1.743164,1.831057 0.283203,0.595705 0.424805,1.47461 0.424805,2.636715 z"
         style="font-style:normal;font-variant:normal;font-weight:normal;font-stretch:normal;font-size:medium;line-height:25px;font-family:Arial;-inkscape-font-specification:Arial;letter-spacing:0px;word-spacing:0px;fill:#00ab96;fill-opacity:1;stroke:none;stroke-width:0.75px;stroke-linecap:butt;stroke-linejoin:miter;stroke-opacity:1"
         id="path4515"
         inkscape:connector-curvature="0"
         sodipodi:nodetypes="ccscscccccscscccccssccsscccccccccscsccsc" /><path
         d="m 102.23206,46.003116 2.60743,0.410153 q 0.21972,-1.56738 1.21582,-2.40234 1.01074,-0.83496 2.8125,-0.83496 1.8164,0 2.69531,0.73242 0.8789,0.747067 0.8789,1.743165 0,0.89355 -0.77636,1.40625 -0.54199,0.351562 -2.69531,0.89355 -2.9004,0.732427 -4.02833,1.259767 -1.11328,0.541995 -1.69921,1.479495 -0.57129,0.952148 -0.57129,2.094728 0,1.040033 0.46875,1.918943 0.4834,0.893557 1.30371,1.479495 0.61523,0.454095 1.66992,0.761715 1.06934,0.322267 2.28516,0.322267 1.83105,0 3.208,-0.527347 1.39161,-0.52734 2.05079,-1.435545 0.65917,-0.893558 0.9082,-2.402341 l -2.57813,-0.351562 q -0.17578,1.20117 -1.02539,1.875 -0.83496,0.673823 -2.37304,0.673823 -1.81641,0 -2.59278,-0.600585 -0.77636,-0.600585 -0.77636,-1.40625 0,-0.512693 0.32226,-0.922853 0.32227,-0.4248 1.01074,-0.703125 0.39551,-0.146483 2.3291,-0.673823 2.79786,-0.747075 3.89649,-1.230472 1.11328,-0.46875 1.74316,-1.376955 0.62989,-0.908198 0.62989,-2.255858 0,-1.318357 -0.77637,-2.490232 -0.76172,-1.157228 -2.21192,-1.801763 -1.45019,-0.62988 -3.28125,-0.62988 -3.03222,0 -4.6289,1.259768 -1.58203,1.259767 -2.02149,3.735352 z"
         style="font-style:normal;font-variant:normal;font-weight:normal;font-stretch:normal;font-size:medium;line-height:25px;font-family:Arial;-inkscape-font-specification:Arial;letter-spacing:0px;word-spacing:0px;fill:#00ab96;fill-opacity:1;stroke:none;stroke-width:0.75px;stroke-linecap:butt;stroke-linejoin:miter;stroke-opacity:1"
         id="path4517"
         inkscape:connector-curvature="0" /><path
         d="m 124.04359,43.717956 0.38086,-2.329102 q -1.11328,-0.234375 -1.99219,-0.234375 -1.43555,0 -2.22656,0.454102 -0.79102,0.454103 -1.11328,1.186523 -0.32227,0.747075 -0.32227,3.12012 v 8.950193 h -1.93359 v 2.050785 h 1.93359 v 3.85254 l 2.62207,1.582027 v -5.434567 h 2.65137 v -2.050785 h -2.65137 v -9.096676 q 0,-1.127932 0.13184,-1.4502 0.14648,-0.32226 0.4541,-0.512692 0.32226,-0.190433 0.9082,-0.190433 0.43945,0 1.15723,0.10254 z"
         style="font-style:normal;font-variant:normal;font-weight:normal;font-stretch:normal;font-size:medium;line-height:25px;font-family:Arial;-inkscape-font-specification:Arial;letter-spacing:0px;word-spacing:0px;fill:#00ab96;fill-opacity:1;stroke:none;stroke-width:0.75px;stroke-linecap:butt;stroke-linejoin:miter;stroke-opacity:1"
         id="path4519"
         inkscape:connector-curvature="0" /><path
         d="m 126.57777,41.359559 v 15.556643 h 2.37304 v -2.358398 q 0.90821,1.655273 1.66993,2.182613 0.77636,0.527347 1.69922,0.527347 1.333,0 2.70996,-0.849607 l -0.90821,-2.44629 q -0.96679,0.57129 -1.93359,0.57129 -0.86426,0 -1.55274,-0.527348 -0.68847,-0.512692 -0.98144,-1.435545 -0.43945,-1.40625 -0.43945,-3.07617 v -8.144535 z m 3.60351,19.101563 1.61133,2.490232 h 2.98828 l -3.2959,-4.101562 h -2.8125 l -3.16406,4.101562 h 3.01758 z"
         style="font-style:normal;font-variant:normal;font-weight:normal;font-stretch:normal;font-size:medium;line-height:25px;font-family:Arial;-inkscape-font-specification:Arial;letter-spacing:0px;word-spacing:0px;fill:#00ab96;fill-opacity:1;stroke:none;stroke-width:0.75px;stroke-linecap:butt;stroke-linejoin:miter;stroke-opacity:1"
         id="path4521"
         inkscape:connector-curvature="0" /><path
         d="m 147.27601,46.369326 2.72461,-0.336915 q -0.64453,-2.387692 -2.3877,-3.706057 -1.74316,-1.318358 -4.45312,-1.318358 -3.41309,0 -5.41992,2.094728 -1.99219,2.109375 -1.99219,5.903317 0,3.925785 2.02148,6.093751 2.02149,2.167972 5.24414,2.167972 3.12012,0 5.09766,-2.124022 1.97754,-2.124023 1.97754,-5.976563 0,-0.234375 -0.0146,-0.703125 h -11.60156 q 0.14649,-2.563478 1.4502,-3.925785 1.30371,-1.3623 3.25195,-1.3623 1.4502,0 2.47559,0.761715 1.02538,0.761722 1.62597,2.431642 z m -8.65722,4.262693 h 8.68652 q -0.17579,1.962892 -0.9961,2.944335 -1.25977,1.523438 -3.2666,1.523438 -1.8164,0 -3.06152,-1.215818 -1.23047,-1.215818 -1.3623,-3.251955 z"
         style="font-style:normal;font-variant:normal;font-weight:normal;font-stretch:normal;font-size:medium;line-height:25px;font-family:Arial;-inkscape-font-specification:Arial;letter-spacing:0px;word-spacing:0px;fill:#00ab96;fill-opacity:1;stroke:none;stroke-width:0.75px;stroke-linecap:butt;stroke-linejoin:miter;stroke-opacity:1"
         id="path4523"
         inkscape:connector-curvature="0" /><path
         d="m 163.41859,41.359559 v 1.962892 q -1.4795,-2.314455 -4.35059,-2.314455 -1.86035,0 -3.42773,1.025393 -1.55274,1.025392 -2.41699,2.856442 -0.84961,1.845705 -0.84961,4.233398 0,2.329102 0.77636,4.21875 0.77637,1.904303 2.3291,2.91504 1.55274,1.010745 3.47169,1.010745 1.40625,0 2.50488,-0.600585 1.09863,-0.585937 1.78711,-1.538085 v 7.705073 h 2.62207 V 41.359559 Z m -8.33496,7.76367 q 0,-2.988278 1.25977,-4.467773 1.25976,-1.479487 2.97363,-1.479487 1.72851,0 2.92968,1.40625 1.21582,1.420897 1.21582,4.321282 0,3.193365 -1.23046,4.687501 -1.23048,1.494142 -3.03223,1.494142 -1.75781,0 -2.94434,-1.435545 -1.17187,-1.435545 -1.17187,-4.52637 z"
         style="font-style:normal;font-variant:normal;font-weight:normal;font-stretch:normal;font-size:medium;line-height:25px;font-family:Arial;-inkscape-font-specification:Arial;letter-spacing:0px;word-spacing:0px;fill:#00ab96;fill-opacity:1;stroke:none;stroke-width:0.75px;stroke-linecap:butt;stroke-linejoin:miter;stroke-opacity:1"
         id="path4525"
         inkscape:connector-curvature="0" /><path
         d="m 170.02503,41.359559 v 15.556643 h 2.37305 v -2.211915 q 1.71387,2.563477 4.95117,2.563477 1.40625,0 2.57813,-0.5127 1.18652,-0.498045 1.77246,-1.318357 0.58594,-0.820313 0.82031,-1.948238 0.14648,-0.732428 0.14648,-2.563478 v -9.565432 h -2.63671 v 9.462892 q 0,1.61133 -0.30762,2.402341 -0.30761,0.805665 -1.09863,1.274415 -0.77637,0.483397 -1.83106,0.483397 -1.68457,0 -2.91504,-1.069335 -1.21582,-1.069335 -1.21582,-4.057613 v -8.496097 z"
         style="font-style:normal;font-variant:normal;font-weight:normal;font-stretch:normal;font-size:medium;line-height:25px;font-family:Arial;-inkscape-font-specification:Arial;letter-spacing:0px;word-spacing:0px;fill:#00ab96;fill-opacity:1;stroke:none;stroke-width:0.75px;stroke-linecap:butt;stroke-linejoin:miter;stroke-opacity:1"
         id="path4527"
         inkscape:connector-curvature="0" /><path
         d="m 187.64711,41.359559 v 15.556643 h 2.63671 V 41.359559 Z m -0.13184,17.490233 1.94824,4.101562 h 3.45703 l -3.22266,-4.101562 z"
         style="font-style:normal;font-variant:normal;font-weight:normal;font-stretch:normal;font-size:medium;line-height:25px;font-family:Arial;-inkscape-font-specification:Arial;letter-spacing:0px;word-spacing:0px;fill:#00ab96;fill-opacity:1;stroke:none;stroke-width:0.75px;stroke-linecap:butt;stroke-linejoin:miter;stroke-opacity:1"
         id="path4529"
         inkscape:connector-curvature="0" /><path
         d="m 219.02406,48.888854 2.8418,-0.717773 q -0.89356,-3.500977 -3.22266,-5.346675 -2.31445,-1.831057 -5.66895,-1.831057 -3.47168,0 -5.65429,1.40625 -2.16797,1.420897 -3.31055,4.101562 -1.12793,2.680665 -1.12793,5.756835 0,3.354496 1.27442,5.844728 1.28906,2.50488 3.64746,3.793943 2.37304,1.30371 5.21484,1.30371 3.22266,0 5.41992,-1.640625 2.19726,-1.640625 3.06153,-4.614255 l -2.79786,-0.659183 q -0.74707,2.34375 -2.16797,3.413093 -1.4209,1.069335 -3.57421,1.069335 -2.47559,0 -4.14552,-1.186523 -1.65527,-1.18653 -2.32909,-3.193365 -0.67383,-1.992187 -0.67383,-4.11621 0,-2.739255 0.79102,-4.79004 0.80565,-2.03613 2.49023,-3.046875 1.68457,-1.010738 3.64746,-1.010738 2.38769,0 4.04296,1.376948 1.65528,1.376955 2.24122,4.086915 z m -6.04981,16.787115 1.61133,2.490233 h 2.98828 l -3.2959,-4.101563 h -2.8125 l -3.16406,4.101563 h 3.01758 z"
         style="font-style:normal;font-variant:normal;font-weight:normal;font-stretch:normal;font-size:medium;line-height:25px;font-family:Arial;-inkscape-font-specification:Arial;letter-spacing:0px;word-spacing:0px;fill:#00ab96;fill-opacity:1;stroke:none;stroke-width:0.75px;stroke-linecap:butt;stroke-linejoin:miter;stroke-opacity:1"
         id="path4531"
         inkscape:connector-curvature="0" /><path
         d="m 235.69398,46.369326 2.72461,-0.336915 q -0.64453,-2.387692 -2.38769,-3.706057 -1.74317,-1.318358 -4.45313,-1.318358 -3.41308,0 -5.41993,2.094728 -1.99218,2.109375 -1.99218,5.903317 0,3.925785 2.02149,6.093751 2.02148,2.167972 5.24413,2.167972 3.12012,0 5.09766,-2.124022 1.97754,-2.124023 1.97754,-5.976563 0,-0.234375 -0.0146,-0.703125 h -11.60157 q 0.14649,-2.563478 1.4502,-3.925785 1.30371,-1.3623 3.25195,-1.3623 1.45019,0 2.47559,0.761715 1.02539,0.761722 1.62597,2.431642 z m -8.65723,4.262693 h 8.68653 q -0.17578,1.962892 -0.99609,2.944335 -1.25977,1.523438 -3.26661,1.523438 -1.81641,0 -3.06152,-1.215818 -1.23047,-1.215818 -1.36231,-3.251955 z"
         style="font-style:normal;font-variant:normal;font-weight:normal;font-stretch:normal;font-size:medium;line-height:25px;font-family:Arial;-inkscape-font-specification:Arial;letter-spacing:0px;word-spacing:0px;fill:#00ab96;fill-opacity:1;stroke:none;stroke-width:0.75px;stroke-linecap:butt;stroke-linejoin:miter;stroke-opacity:1"
         id="path4533"
         inkscape:connector-curvature="0" /><path
         d="m 251.89515,47.057804 2.59278,-0.336915 q -0.4248,-2.680665 -2.18262,-4.204103 -1.74316,-1.50879 -4.29199,-1.50879 -3.19336,0 -5.14161,2.08008 -1.93359,2.094728 -1.93359,5.99121 0,2.519528 0.83496,4.409183 0.83496,1.889648 2.53418,2.827148 1.71387,0.952147 3.72071,0.952147 2.53418,0 4.1455,-1.289062 1.61133,-1.274415 2.06543,-3.632813 l -2.56347,-0.395513 q -0.36621,1.567388 -1.30371,2.358406 -0.92286,0.79101 -2.24121,0.79101 -1.99219,0 -3.23731,-1.435545 -1.24512,-1.420898 -1.24512,-4.511716 0,-3.134767 1.20118,-4.555665 1.20117,-1.420897 3.13476,-1.420897 1.55274,0 2.59278,0.952147 1.04004,0.952148 1.31835,2.929688 z"
         style="font-style:normal;font-variant:normal;font-weight:normal;font-stretch:normal;font-size:medium;line-height:25px;font-family:Arial;-inkscape-font-specification:Arial;letter-spacing:0px;word-spacing:0px;fill:#00ab96;fill-opacity:1;stroke:none;stroke-width:0.75px;stroke-linecap:butt;stroke-linejoin:miter;stroke-opacity:1"
         id="path4535"
         inkscape:connector-curvature="0" /><path
         d="m 256.74378,41.359559 v 21.474608 h 2.63673 v -7.705073 q 1.8457,2.13867 4.6582,2.13867 1.72851,0 3.00293,-0.688477 1.27441,-0.67383 1.81641,-1.875 0.55664,-1.20117 0.55664,-3.486331 v -9.858397 h -2.63672 v 9.858397 q 0,1.977541 -0.86426,2.871098 -0.84961,0.908198 -2.41699,0.908198 -1.17188,0 -2.21192,-0.615233 -1.02539,-0.600585 -1.46484,-1.640625 -0.43945,-1.04004 -0.43945,-2.87109 v -8.510745 z"
         style="font-style:normal;font-variant:normal;font-weight:normal;font-stretch:normal;font-size:medium;line-height:25px;font-family:Arial;-inkscape-font-specification:Arial;letter-spacing:0px;word-spacing:0px;fill:#00ab96;fill-opacity:1;stroke:none;stroke-width:0.75px;stroke-linecap:butt;stroke-linejoin:miter;stroke-opacity:1"
         id="path4537"
         inkscape:connector-curvature="0" /><path
         d="m 273.32582,35.368349 -0.29297,2.475585 q 0.86426,-0.234375 1.50879,-0.234375 0.87891,0 1.40625,0.292972 0.52734,0.292965 0.86426,0.820313 0.24902,0.395505 0.80566,1.962885 0.0732,0.219727 0.23438,0.644535 l -5.90333,15.585938 h 2.8418 l 3.23731,-9.008791 q 0.62988,-1.71387 1.12793,-3.603517 0.4541,1.81641 1.08398,3.54492 l 3.32519,9.067388 h 2.63673 l -5.91798,-15.820313 q -0.95214,-2.563478 -1.47948,-3.530273 -0.70313,-1.30371 -1.61133,-1.904302 -0.90821,-0.615233 -2.16798,-0.615233 -0.76171,0 -1.69921,0.322268 z"
         style="font-style:normal;font-variant:normal;font-weight:normal;font-stretch:normal;font-size:medium;line-height:25px;font-family:Arial;-inkscape-font-specification:Arial;letter-spacing:0px;word-spacing:0px;fill:#00ab96;fill-opacity:1;stroke:none;stroke-width:0.75px;stroke-linecap:butt;stroke-linejoin:miter;stroke-opacity:1"
         id="path4539"
         inkscape:connector-curvature="0" /></g></g></svg>