<svg height="58.598801" viewBox="0 0 524.65383 58.598801" width="524.65381" xmlns="http://www.w3.org/2000/svg"><g fill="#00ab96" transform="matrix(1.3333333 0 0 -1.3333333 -75.590665 204.47689)"><path d="m0 0h29.854l4.593-7.467h-34.447zm0 11.667v-7.415h27.237l-4.56 7.415zm29.22 4.252h-29.22v7.428h31.178c.015-.291.023-.585.02-.886-.026-2.764-.687-4.895-1.978-6.542m-14.229 19.133h-14.991v-7.453h30.245c-2.185 5.092-7.94 7.453-15.254 7.453" transform="matrix(.58721393 0 0 .58721393 56.693 132.77465)"/><path d="m0 0c1.444 1.853 1.985 4.292 1.985 6.596 0 1.582-.316 3.434-.992 4.88-2.302 4.79-6.589 5.467-11.417 5.467h-12.274v-31.899h7.22v11.025h4.806l6.641-11.025h7.996l-7.323 12.156c1.215.582 2.338 1.459 3.358 2.8zm-5.19 6.552c0-1.808-.857-3.344-2.527-4.112-1.083-.498-2.752-.498-3.925-.498-1.264 0-2.572.046-3.836.046v9.127h3.474c2.076 0 4.423.09 5.867-1.717.631-.813.947-1.808.947-2.846zm33.7-11.756v1.13c0 7.232-3.706 13.198-11.526 13.198-7.187 0-11.842-5.379-11.842-12.385 0-7.186 4.429-12.384 11.842-12.384 5.153 0 9.583 2.44 11.255 7.458l-6.69.452c-.994-1.763-2.305-2.486-4.384-2.486-3.074 0-4.656 2.124-5.062 5.017zm-16.362 5.062c.723 2.667 2.169 4.023 5.017 4.023 2.396 0 4.113-1.672 4.339-4.023zm35.12 8.588v-3.073c-1.763 2.44-3.616 3.706-6.735 3.706-6.373 0-9.808-5.605-9.808-11.436 0-5.921 3.571-11.119 9.899-11.119 2.35 0 5.107.904 6.554 2.893-.046-.316-.046-.633-.046-.949 0-3.435-.406-5.876-4.474-5.876-1.628 0-3.164.542-3.797 2.169h-7.051c.497-5.74 5.333-7.412 10.35-7.412 4.204 0 8.95 1.039 10.758 5.333.678 1.627.769 3.481.769 5.243v20.521zm-.181-10.351c0-3.118-1.582-5.921-4.972-5.921-3.254 0-4.881 2.712-4.881 5.695 0 3.074 1.762 5.741 5.062 5.741 3.164 0 4.791-2.577 4.791-5.515zm17.673 10.351h-6.5992v-23.414h6.5992zm0 8.498h-6.5992v-6.0116h6.5992zm27.617-20.114c0 7.006-4.52 12.294-11.706 12.294-7.594 0-12.521-4.927-12.521-12.52 0-7.187 4.565-12.249 11.888-12.249 7.277 0 12.339 5.243 12.339 12.475zm-6.825.271c0-3.48-1.175-7.322-5.288-7.322-4.023 0-5.289 3.706-5.289 7.096 0 3.48 1.356 6.916 5.379 6.916 3.933 0 5.198-3.345 5.198-6.69zm31.278-12.068v14.373c0 3.164-.452 6.012-3.119 8.046-1.401 1.085-3.164 1.537-4.926 1.537-2.712 0-4.837-1.176-6.464-3.255v2.712h-6.509v-23.413h6.69v12.972c0 2.486.859 5.288 4.023 5.288 2.621 0 3.48-2.214 3.48-4.474v-13.786z" transform="matrix(.58721393 0 0 .58721393 98.338799 137.16349)"/><path d="m0 0h-3.351l-1.845-7.494-2.019 7.494h-3.436l3.22-9.018c.172-.494.452-1.052.452-1.589 0-.365-.172-.901-.472-1.138-.302-.237-.967-.28-1.333-.28-.278 0-.557.022-.836.022v-2.492c.279 0 .558-.042.836-.042 1.375 0 3.115-.087 4.058 1.095.452.58.818 1.697 1.054 2.405zm-1.33 4.681h-3.786l-1.54-3.204h2.455zm27.889-15.815v2.362l5.497 6.14h-4.875v2.621h8.805v-2.555l-5.326-5.948h5.691v-2.62zm18.187 0v6.227c0 .709.043 1.568-.536 2.083-.301.279-.709.386-1.118.386-.471 0-.857-.128-1.223-.429-.752-.623-.708-1.675-.708-2.555v-5.712h-3.136v15.16h3.136v-5.175c.493.88 2.082 1.396 3.027 1.396.731 0 1.61-.194 2.212-.623 1.288-.923 1.501-2.169 1.501-3.651v-7.107zm8.503 0h-3.156v15.16h3.156zm23.812 3.414c0 2.792-2.748 3.286-4.895 3.736-.58.13-1.889.28-1.889 1.074s.945.901 1.545.901c.602 0 1.288-.214 1.675-.708.171-.214.236-.644.279-.901l2.963.15c-.129 2.726-2.426 3.779-4.874 3.779-2.254 0-4.639-.902-4.639-3.521 0-4.445 6.614-2.836 6.614-4.832 0-.88-.9-1.031-1.588-1.031-1.418 0-2.169.408-2.362 1.847l-3.006-.107c0-.365.02-.666.107-1.03.558-2.299 2.92-3.093 5.045-3.093 2.427 0 5.025.859 5.025 3.736m-11.747 2.785c0 .903.042 2.192-.302 3.029-.816 1.934-2.899 2.235-4.746 2.235-2.513 0-4.597-1.074-4.747-3.846h2.922c-.044 1.095 1.073 1.396 1.954 1.396.665 0 1.696-.171 1.696-1.03 0-.795-1.16-.838-1.718-.923-2.406-.344-5.477-.624-5.477-3.782 0-2.254 1.718-3.587 3.866-3.587 1.589 0 2.278.473 3.501 1.333l.022-1.009h3.031zm-3.137-2.576c-.537-.924-1.547-1.44-2.599-1.44-.731 0-1.483.344-1.483 1.182 0 1.439 2.3 1.46 3.309 1.718.258.064.515.15.773.257zm-108.07 1.456-3.542.236c-.022-1.718-1.632-2.79-3.242-2.79-.86 0-1.676.278-2.341.815-1.288 1.074-1.546 2.77-1.546 4.338 0 2.512 1.009 5.002 3.887 5.002 1.18 0 2.233-.45 2.833-1.525.13-.257.258-.515.323-.794l3.414.236c-.043.366-.151.688-.258 1.03-.901 2.685-3.585 3.909-6.27 3.909-4.745 0-7.6-3.242-7.6-7.881 0-3.178 1.503-6.291 4.573-7.493.944-.365 1.975-.493 2.985-.493 2.469 0 4.766.902 6.033 3.113.408.708.666 1.503.751 2.297m11.789-.43v.538c0 3.434-1.761 6.27-5.476 6.27-3.414 0-5.625-2.555-5.625-5.884 0-3.415 2.103-5.883 5.625-5.883 2.448 0 4.553 1.159 5.347 3.542l-3.178.215c-.473-.838-1.095-1.18-2.082-1.18-1.461 0-2.213 1.009-2.406 2.382zm-3.328 2.405h-4.446c.344 1.267 1.031 1.912 2.385 1.912 1.137 0 1.953-.794 2.061-1.912m14.429-3.628c0 2.792-2.749 3.286-4.896 3.736-.58.129-1.89.28-1.89 1.074s.945.901 1.546.901c.602 0 1.288-.214 1.675-.708.172-.215.236-.644.279-.902l2.964.151c-.129 2.726-2.427 3.779-4.875 3.779-2.254 0-4.638-.903-4.638-3.522 0-4.445 6.614-2.835 6.614-4.832 0-.88-.902-1.03-1.59-1.03-1.416 0-2.168.408-2.361 1.847l-3.006-.107c0-.366.021-.666.107-1.031.558-2.299 2.92-3.092 5.046-3.092 2.426 0 5.025.859 5.025 3.736m12.624-3.414-4.594 6.914 4.294 4.208h-4.101l-3.435-3.8v7.837h-3.157v-15.159h3.157v3.693l1.03 1.031 2.792-4.724zm24.134 8.417v2.877c-.192.022-.364.042-.558.042-1.502 0-2.34-.643-2.877-2.038v1.824h-3.092v-11.122h3.243v3.628c0 .559 0 1.138.021 1.697.043 1.803.301 3.156 2.513 3.156.257 0 .493-.021.75-.064m12.025-2.813c0 3.328-2.147 5.841-5.561 5.841-3.608 0-5.948-2.341-5.948-5.949 0-3.414 2.169-5.818 5.646-5.818 3.458 0 5.863 2.491 5.863 5.926m-3.242.129c0-1.653-.559-3.478-2.512-3.478-1.912 0-2.514 1.76-2.514 3.371 0 1.653.645 3.285 2.555 3.285 1.869 0 2.471-1.589 2.471-3.178m-73.792 10.749h-3.688l-1.982 2.504h2.901l.958-1.452.914 1.452h2.945z" transform="matrix(.58721393 0 0 .58721393 119.73218 117.94574)"/><path d="m176.693 138.87457h4.5v-4.5h-4.5z"/><g transform="matrix(.87559249 0 0 .87559249 199.58723 92.130985)"><path d="m-9.8724313 41.359559v21.474608h8.100586q2.1386723 0 3.2666018-.205073 1.5820313-.263677 2.6513671-1.010745 1.0693358-.73242 1.713867-2.065432.6591803-1.333005.6591803-2.929688 0-2.739255-1.7431643-4.64355-1.7431643-1.889648-6.2988287-1.889648h-5.5078126v-8.730472zm2.8417966 11.264647h5.5517581q2.7539064 0 3.9111332 1.025393 1.1572267 1.025393 1.1572267 2.885745 0 1.347653-.6884767 2.2998-.6738286.966795-1.7871098 1.274415-.7177733.190433-2.6513671.190433h-5.4931644z"/><path d="m9.800421 41.359559v15.556643h2.373047v-2.358398q.908203 1.655273 1.669922 2.182613.776367.527347 1.699219.527347 1.333007 0 2.70996-.849607l-.908203-2.44629q-.966797.57129-1.933594.57129-.864257 0-1.552734-.527348-.688477-.512692-.981445-1.435545-.439453-1.40625-.439453-3.07617v-8.144535z"/><path d="m30.000616 43.278501q-1.464844-1.245112-2.827148-1.757812-1.347656-.512693-2.90039-.512693-2.563477 0-3.940431 1.24512-1.376953 1.25976-1.376953 3.208005 0 1.14258.512696 2.08008.527344.952148 1.362305 1.523438.849609.57129 1.904296.864255.776368.20508 2.34375.395512 3.19336.380858 4.702149.908198.01465.541995.01465.688477 0 1.611331-.747071 2.270513-1.010742.89355-3.002929.89355-1.860352 0-2.753907-.659175-.878906-.644535-1.30371-2.299808l-2.578125.351563q.351562 1.655273 1.157226 2.666018.805664 1.025385 2.329101 1.56738 1.523438.556642 3.530274.556642 1.992187 0 3.237305-.46875 1.245117-.46875 1.831055-1.186522.585937-.703125.820312-1.787115.131836-.673823.131836-2.431636v-3.515625q0-3.676762.161133-4.658205.175781-.966795.673828-1.860352h-2.753907q-.410156.820312-.527343 1.918942zm-.219726 5.888678q-1.435547-.585938-4.306641-.996098-1.625977-.234375-2.299804-.52734-.673829-.292972-1.04004-.864262-.36621-.556635-.36621-1.245113 0-1.054687.791015-1.757812.805664-.703125 2.34375-.703125 1.523437 0 2.709961.659175 1.186524.67383 1.743164 1.831057.424805.893558.424805 2.636715z"/><path d="m36.548468 41.359559v21.474608h2.636719v-7.705073q1.845704 2.13867 4.658204 2.13867 1.728515 0 3.002929-.688477 1.274414-.67383 1.816407-1.875.55664-1.20117.55664-3.486331v-9.858397h-2.636719v9.858397q0 1.977541-.864258 2.871098-.849609.908198-2.416992.908198-1.171875 0-2.211914-.615233-1.025391-.600585-1.464843-1.640625-.439454-1.04004-.439454-2.87109v-8.510745z"/><path d="m63.399055 43.278501q-1.464844-1.245112-2.827149-1.757812-1.347656-.512693-2.90039-.512693-2.563477 0-3.94043 1.24512-1.376953 1.25976-1.376953 3.208005 0 1.14258.512695 2.08008.527344.952148 1.362305 1.523438.849609.57129 1.904297.864255.776367.20508 2.34375.395512 3.193359.380858 4.702148.908198.01465.541995.01465.688477 0 1.611331-.747071 2.270513-1.010742.89355-3.00293.89355-1.860351 0-2.753906-.659175-.878906-.644535-1.303711-2.299808l-2.578125.351563q.351563 1.655273 1.157227 2.666018.805664 1.025385 2.329101 1.56738 1.523438.556642 3.530274.556642 1.992187 0 3.237305-.46875 1.245117-.46875 1.831055-1.186522.585937-.703125.820312-1.787115.131836-.673823.131836-2.431636v-3.515625q0-3.676762.161133-4.658205.175781-.966795.673828-1.860352h-2.753906q-.410157.820312-.527344 1.918942zm-.219727 5.888678q-1.435547-.585938-4.30664-.996098-1.625977-.234375-2.299805-.52734-.673828-.292972-1.040039-.864262-.366211-.556635-.366211-1.245113 0-1.054687.791015-1.757812.805665-.703125 2.343751-.703125 1.523437 0 2.70996.659175 1.186524.67383 1.743165 1.831057.424804.893558.424804 2.636715z"/><path d="m88.418587 43.278501c-.976563-.830075-1.918946-1.416012-2.827149-1.757812-.898437-.341795-1.865234-.512693-2.900391-.512693-1.708984 0-3.02246.41504-3.940429 1.24512-.917969.83984-1.376953 1.909175-1.376953 3.208005 0 .76172.170898 1.45508.512695 2.08008.351562.634765.805664 1.142578 1.362305 1.523438.566406.38086 1.201171.668945 1.904296.864255.517578.13672 1.298828.268557 2.34375.395512 2.128907.253905 3.69629.556638 4.702149.908198.0098.36133.01465.590822.01465.688477 0 1.074221-.249023 1.831058-.74707 2.270513-.673828.5957-1.674805.89355-3.00293.89355-1.240235 0-2.158203-.219725-2.753906-.659175-.585937-.42969-1.020508-1.196293-1.303712-2.299808l-2.578125.351563c.234375 1.103515.620118 1.992188 1.157227 2.666018.537109.68359 1.313477 1.20605 2.329102 1.56738 1.015625.371095 2.192382.556316 3.530273.556316 1.328125 0 2.407227-.155924 3.237305-.468424.830079-.3125 1.44043-.708007 1.831055-1.186522.390625-.46875.664063-1.064455.820313-1.787115.08789-.449215.131835-1.259761.131835-2.431636v-3.515625c0-2.451175.05371-4.00391.161133-4.658205.117188-.64453.341797-1.264647.673828-1.860352h-2.753906c-.273437.546875-.449219 1.186522-.527344 1.918942zm-.219727 5.888678c-.957031-.390625-2.392578-.722658-4.306641-.996098-1.083984-.15625-1.850585-.33203-2.299804-.52734-.449219-.195315-.795899-.483402-1.040039-.864262-.244141-.37109-.366211-.786128-.366211-1.245113 0-.703125.263672-1.289062.791015-1.757812.537109-.46875 1.318359-.703125 2.34375-.703125 1.015625 0 1.918946.219725 2.709961.659175.791016.44922 1.372071 1.059572 1.743164 1.831057.283203.595705.424805 1.47461.424805 2.636715z"/><path d="m102.23206 46.003116 2.60743.410153q.21972-1.56738 1.21582-2.40234 1.01074-.83496 2.8125-.83496 1.8164 0 2.69531.73242.8789.747067.8789 1.743165 0 .89355-.77636 1.40625-.54199.351562-2.69531.89355-2.9004.732427-4.02833 1.259767-1.11328.541995-1.69921 1.479495-.57129.952148-.57129 2.094728 0 1.040033.46875 1.918943.4834.893557 1.30371 1.479495.61523.454095 1.66992.761715 1.06934.322267 2.28516.322267 1.83105 0 3.208-.527347 1.39161-.52734 2.05079-1.435545.65917-.893558.9082-2.402341l-2.57813-.351562q-.17578 1.20117-1.02539 1.875-.83496.673823-2.37304.673823-1.81641 0-2.59278-.600585-.77636-.600585-.77636-1.40625 0-.512693.32226-.922853.32227-.4248 1.01074-.703125.39551-.146483 2.3291-.673823 2.79786-.747075 3.89649-1.230472 1.11328-.46875 1.74316-1.376955.62989-.908198.62989-2.255858 0-1.318357-.77637-2.490232-.76172-1.157228-2.21192-1.801763-1.45019-.62988-3.28125-.62988-3.03222 0-4.6289 1.259768-1.58203 1.259767-2.02149 3.735352z"/><path d="m124.04359 43.717956.38086-2.329102q-1.11328-.234375-1.99219-.234375-1.43555 0-2.22656.454102-.79102.454103-1.11328 1.186523-.32227.747075-.32227 3.12012v8.950193h-1.93359v2.050785h1.93359v3.85254l2.62207 1.582027v-5.434567h2.65137v-2.050785h-2.65137v-9.096676q0-1.127932.13184-1.4502.14648-.32226.4541-.512692.32226-.190433.9082-.190433.43945 0 1.15723.10254z"/><path d="m126.57777 41.359559v15.556643h2.37304v-2.358398q.90821 1.655273 1.66993 2.182613.77636.527347 1.69922.527347 1.333 0 2.70996-.849607l-.90821-2.44629q-.96679.57129-1.93359.57129-.86426 0-1.55274-.527348-.68847-.512692-.98144-1.435545-.43945-1.40625-.43945-3.07617v-8.144535zm3.60351 19.101563 1.61133 2.490232h2.98828l-3.2959-4.101562h-2.8125l-3.16406 4.101562h3.01758z"/><path d="m147.27601 46.369326 2.72461-.336915q-.64453-2.387692-2.3877-3.706057-1.74316-1.318358-4.45312-1.318358-3.41309 0-5.41992 2.094728-1.99219 2.109375-1.99219 5.903317 0 3.925785 2.02148 6.093751 2.02149 2.167972 5.24414 2.167972 3.12012 0 5.09766-2.124022 1.97754-2.124023 1.97754-5.976563 0-.234375-.0146-.703125h-11.60156q.14649-2.563478 1.4502-3.925785 1.30371-1.3623 3.25195-1.3623 1.4502 0 2.47559.761715 1.02538.761722 1.62597 2.431642zm-8.65722 4.262693h8.68652q-.17579 1.962892-.9961 2.944335-1.25977 1.523438-3.2666 1.523438-1.8164 0-3.06152-1.215818-1.23047-1.215818-1.3623-3.251955z"/><path d="m163.41859 41.359559v1.962892q-1.4795-2.314455-4.35059-2.314455-1.86035 0-3.42773 1.025393-1.55274 1.025392-2.41699 2.856442-.84961 1.845705-.84961 4.233398 0 2.329102.77636 4.21875.77637 1.904303 2.3291 2.91504 1.55274 1.010745 3.47169 1.010745 1.40625 0 2.50488-.600585 1.09863-.585937 1.78711-1.538085v7.705073h2.62207v-21.474608zm-8.33496 7.76367q0-2.988278 1.25977-4.467773 1.25976-1.479487 2.97363-1.479487 1.72851 0 2.92968 1.40625 1.21582 1.420897 1.21582 4.321282 0 3.193365-1.23046 4.687501-1.23048 1.494142-3.03223 1.494142-1.75781 0-2.94434-1.435545-1.17187-1.435545-1.17187-4.52637z"/><path d="m170.02503 41.359559v15.556643h2.37305v-2.211915q1.71387 2.563477 4.95117 2.563477 1.40625 0 2.57813-.5127 1.18652-.498045 1.77246-1.318357.58594-.820313.82031-1.948238.14648-.732428.14648-2.563478v-9.565432h-2.63671v9.462892q0 1.61133-.30762 2.402341-.30761.805665-1.09863 1.274415-.77637.483397-1.83106.483397-1.68457 0-2.91504-1.069335-1.21582-1.069335-1.21582-4.057613v-8.496097z"/><path d="m187.64711 41.359559v15.556643h2.63671v-15.556643zm-.13184 17.490233 1.94824 4.101562h3.45703l-3.22266-4.101562z"/><path d="m219.02406 48.888854 2.8418-.717773q-.89356-3.500977-3.22266-5.346675-2.31445-1.831057-5.66895-1.831057-3.47168 0-5.65429 1.40625-2.16797 1.420897-3.31055 4.101562-1.12793 2.680665-1.12793 5.756835 0 3.354496 1.27442 5.844728 1.28906 2.50488 3.64746 3.793943 2.37304 1.30371 5.21484 1.30371 3.22266 0 5.41992-1.640625 2.19726-1.640625 3.06153-4.614255l-2.79786-.659183q-.74707 2.34375-2.16797 3.413093-1.4209 1.069335-3.57421 1.069335-2.47559 0-4.14552-1.186523-1.65527-1.18653-2.32909-3.193365-.67383-1.992187-.67383-4.11621 0-2.739255.79102-4.79004.80565-2.03613 2.49023-3.046875 1.68457-1.010738 3.64746-1.010738 2.38769 0 4.04296 1.376948 1.65528 1.376955 2.24122 4.086915zm-6.04981 16.787115 1.61133 2.490233h2.98828l-3.2959-4.101563h-2.8125l-3.16406 4.101563h3.01758z"/><path d="m235.69398 46.369326 2.72461-.336915q-.64453-2.387692-2.38769-3.706057-1.74317-1.318358-4.45313-1.318358-3.41308 0-5.41993 2.094728-1.99218 2.109375-1.99218 5.903317 0 3.925785 2.02149 6.093751 2.02148 2.167972 5.24413 2.167972 3.12012 0 5.09766-2.124022 1.97754-2.124023 1.97754-5.976563 0-.234375-.0146-.703125h-11.60157q.14649-2.563478 1.4502-3.925785 1.30371-1.3623 3.25195-1.3623 1.45019 0 2.47559.761715 1.02539.761722 1.62597 2.431642zm-8.65723 4.262693h8.68653q-.17578 1.962892-.99609 2.944335-1.25977 1.523438-3.26661 1.523438-1.81641 0-3.06152-1.215818-1.23047-1.215818-1.36231-3.251955z"/><path d="m251.89515 47.057804 2.59278-.336915q-.4248-2.680665-2.18262-4.204103-1.74316-1.50879-4.29199-1.50879-3.19336 0-5.14161 2.08008-1.93359 2.094728-1.93359 5.99121 0 2.519528.83496 4.409183.83496 1.889648 2.53418 2.827148 1.71387.952147 3.72071.952147 2.53418 0 4.1455-1.289062 1.61133-1.274415 2.06543-3.632813l-2.56347-.395513q-.36621 1.567388-1.30371 2.358406-.92286.79101-2.24121.79101-1.99219 0-3.23731-1.435545-1.24512-1.420898-1.24512-4.511716 0-3.134767 1.20118-4.555665 1.20117-1.420897 3.13476-1.420897 1.55274 0 2.59278.952147 1.04004.952148 1.31835 2.929688z"/><path d="m256.74378 41.359559v21.474608h2.63673v-7.705073q1.8457 2.13867 4.6582 2.13867 1.72851 0 3.00293-.688477 1.27441-.67383 1.81641-1.875.55664-1.20117.55664-3.486331v-9.858397h-2.63672v9.858397q0 1.977541-.86426 2.871098-.84961.908198-2.41699.908198-1.17188 0-2.21192-.615233-1.02539-.600585-1.46484-1.640625-.43945-1.04004-.43945-2.87109v-8.510745z"/><path d="m273.32582 35.368349-.29297 2.475585q.86426-.234375 1.50879-.234375.87891 0 1.40625.292972.52734.292965.86426.820313.24902.395505.80566 1.962885.0732.219727.23438.644535l-5.90333 15.585938h2.8418l3.23731-9.008791q.62988-1.71387 1.12793-3.603517.4541 1.81641 1.08398 3.54492l3.32519 9.067388h2.63673l-5.91798-15.820313q-.95214-2.563478-1.47948-3.530273-.70313-1.30371-1.61133-1.904302-.90821-.615233-2.16798-.615233-.76171 0-1.69921.322268z"/></g></g></svg>