<svg width="800" height="324.04" version="1.1" viewBox="0 0 800 324.04" xml:space="preserve" xmlns="http://www.w3.org/2000/svg"><defs><clipPath id="clipPath18"><path d="M 0,283.465 H 481.89 V 0 H 0 Z"/></clipPath></defs><g transform="matrix(1.3333 0 0 -1.3333 -75.591 469.92)"><g transform="matrix(3.2472 0 0 3.2472 -127.4 -245.86)"><g clip-path="url(#clipPath18)"><g transform="translate(56.693 149.2)"><path d="m0 0h29.854l4.593-7.467h-34.447zm0 11.667v-7.415h27.237l-4.56 7.415zm29.22 4.252h-29.22v7.428h31.178c0.015-0.291 0.023-0.585 0.02-0.886-0.026-2.764-0.687-4.895-1.978-6.542m-14.229 19.133h-14.991v-7.453h30.245c-2.185 5.092-7.94 7.453-15.254 7.453" fill="#00ab96"/></g><g transform="translate(164.41 123.95)"><path d="m0 0h-3.351l-1.845-7.494-2.019 7.494h-3.436l3.22-9.019c0.172-0.494 0.452-1.051 0.452-1.588 0-0.366-0.172-0.901-0.472-1.138-0.302-0.237-0.967-0.28-1.333-0.28-0.278 0-0.557 0.022-0.836 0.022v-2.492c0.279 0 0.558-0.042 0.836-0.042 1.375 0 3.115-0.087 4.058 1.095 0.452 0.58 0.818 1.697 1.054 2.405zm-1.33 4.681h-3.786l-1.54-3.204h2.455zm27.889-15.815v2.362l5.497 6.14h-4.875v2.62h8.805v-2.554l-5.326-5.949h5.691v-2.619zm18.187 0v6.227c0 0.709 0.043 1.568-0.536 2.083-0.301 0.279-0.709 0.386-1.118 0.386-0.471 0-0.857-0.128-1.223-0.429-0.752-0.623-0.708-1.675-0.708-2.555v-5.712h-3.136v15.159h3.136v-5.174c0.493 0.879 2.082 1.396 3.027 1.396 0.731 0 1.61-0.194 2.212-0.623 1.288-0.923 1.501-2.169 1.501-3.651v-7.107zm8.503 0h-3.156v15.159h3.156zm23.812 3.413c0 2.792-2.748 3.286-4.895 3.737-0.58 0.13-1.889 0.28-1.889 1.074s0.945 0.901 1.545 0.901c0.602 0 1.288-0.215 1.675-0.708 0.171-0.215 0.236-0.644 0.279-0.901l2.963 0.149c-0.13 2.727-2.426 3.78-4.874 3.78-2.254 0-4.639-0.902-4.639-3.521 0-4.445 6.614-2.836 6.614-4.832 0-0.88-0.9-1.031-1.588-1.031-1.418 0-2.169 0.408-2.362 1.846l-3.006-0.106c0-0.365 0.02-0.666 0.107-1.03 0.558-2.299 2.92-3.093 5.045-3.093 2.427 0 5.025 0.858 5.025 3.735m-11.747 2.785c0 0.904 0.042 2.193-0.302 3.03-0.816 1.933-2.899 2.235-4.745 2.235-2.514 0-4.598-1.074-4.748-3.847h2.922c-0.044 1.096 1.073 1.397 1.954 1.397 0.665 0 1.696-0.171 1.696-1.03 0-0.795-1.16-0.838-1.718-0.923-2.406-0.344-5.477-0.624-5.477-3.782 0-2.254 1.718-3.587 3.866-3.587 1.589 0 2.278 0.472 3.501 1.333l0.022-1.009h3.031zm-3.137-2.576c-0.537-0.924-1.547-1.439-2.599-1.439-0.731 0-1.483 0.344-1.483 1.181 0 1.44 2.3 1.46 3.309 1.719 0.258 0.064 0.515 0.15 0.773 0.257zm-108.07 1.456-3.542 0.237c-0.022-1.718-1.632-2.79-3.242-2.79-0.86 0-1.676 0.278-2.341 0.815-1.288 1.073-1.546 2.77-1.546 4.338 0 2.512 1.009 5.002 3.887 5.002 1.18 0 2.233-0.45 2.833-1.525 0.13-0.257 0.258-0.515 0.323-0.794l3.414 0.236c-0.043 0.366-0.151 0.687-0.258 1.03-0.901 2.685-3.585 3.908-6.27 3.908-4.745 0-7.6-3.241-7.6-7.88 0-3.178 1.503-6.292 4.573-7.494 0.944-0.364 1.975-0.492 2.985-0.492 2.469 0 4.766 0.902 6.033 3.112 0.408 0.708 0.666 1.503 0.751 2.297m11.789-0.429v0.538c0 3.433-1.761 6.269-5.476 6.269-3.414 0-5.625-2.554-5.625-5.884 0-3.415 2.103-5.882 5.625-5.882 2.448 0 4.553 1.159 5.347 3.542l-3.178 0.215c-0.473-0.838-1.095-1.18-2.082-1.18-1.461 0-2.213 1.009-2.406 2.382zm-3.328 2.405h-4.446c0.344 1.267 1.031 1.912 2.385 1.912 1.137 0 1.953-0.794 2.061-1.912m14.429-3.628c0 2.792-2.749 3.286-4.896 3.735-0.58 0.129-1.89 0.281-1.89 1.075s0.945 0.901 1.546 0.901c0.602 0 1.288-0.214 1.675-0.708 0.172-0.215 0.236-0.645 0.279-0.902l2.964 0.151c-0.129 2.726-2.427 3.778-4.875 3.778-2.254 0-4.638-0.902-4.638-3.521 0-4.446 6.614-2.835 6.614-4.832 0-0.88-0.902-1.031-1.59-1.031-1.416 0-2.168 0.409-2.361 1.848l-3.006-0.107c0-0.366 0.021-0.666 0.107-1.032 0.558-2.298 2.92-3.091 5.046-3.091 2.426 0 5.025 0.859 5.025 3.736m12.624-3.414-4.594 6.914 4.294 4.208h-4.101l-3.435-3.8v7.837h-3.157v-15.159h3.157v3.692l1.03 1.032 2.792-4.724zm24.134 8.417v2.877c-0.192 0.021-0.364 0.042-0.558 0.042-1.502 0-2.34-0.644-2.877-2.038v1.824h-3.092v-11.122h3.243v3.628c0 0.558 0 1.138 0.021 1.697 0.043 1.803 0.301 3.155 2.513 3.155 0.257 0 0.493-0.02 0.75-0.063m12.025-2.814c0 3.329-2.147 5.841-5.561 5.841-3.608 0-5.948-2.341-5.948-5.948 0-3.414 2.169-5.818 5.646-5.818 3.458 0 5.863 2.491 5.863 5.925m-3.242 0.129c0-1.652-0.559-3.477-2.512-3.477-1.912 0-2.514 1.76-2.514 3.371 0 1.652 0.645 3.285 2.555 3.285 1.869 0 2.471-1.589 2.471-3.179m-73.792 10.749h-3.688l-1.982 2.504h2.901l0.958-1.451 0.914 1.451h2.945l-2.048-2.504" fill="#00ab96"/></g><g transform="translate(129.74 173.62)"><path d="m0 0v-5.604l-17.265-20.429h17.626v-5.876h-26.982v5.379l17.491 20.564h-16.542v5.966z" fill="#00ab96"/></g><path d="m139.76 141.71h-6.644v31.909h6.644z" fill="#00ab96"/><g transform="translate(144.36 168.33)"><path d="m0 0 2.034 6.644h7.457l-5.016-6.644zm6.146-26.621h-6.599v23.412h6.599z" fill="#00ab96"/></g><g transform="translate(168.9 141.71)"><path d="m0 0v13.785c0 2.26-0.859 4.474-3.48 4.474-3.164 0-4.022-2.802-4.022-5.288v-12.971h-6.69v23.412h6.508v-2.712c1.628 2.079 3.752 3.254 6.464 3.254 1.762 0 3.525-0.452 4.926-1.537 2.667-2.033 3.119-4.881 3.119-8.044v-14.373z" fill="#00ab96"/></g></g></g></g></svg>
