<?xml version="1.0" encoding="UTF-8" standalone="no"?>
<!-- Created with Inkscape (http://www.inkscape.org/) -->
<svg xmlns:dc="http://purl.org/dc/elements/1.1/" xmlns:cc="http://creativecommons.org/ns#" xmlns:rdf="http://www.w3.org/1999/02/22-rdf-syntax-ns#" xmlns:svg="http://www.w3.org/2000/svg" xmlns="http://www.w3.org/2000/svg" xmlns:sodipodi="http://sodipodi.sourceforge.net/DTD/sodipodi-0.dtd" xmlns:inkscape="http://www.inkscape.org/namespaces/inkscape" width="1000" height="485.76132" id="svg3560" version="1.1" inkscape:version="0.48.2 r9819" sodipodi:docname="Cr Vltava.svg">
  <defs id="defs3562"/>
  <sodipodi:namedview id="base" pagecolor="#ffffff" bordercolor="#666666" borderopacity="1.0" inkscape:pageopacity="0.0" inkscape:pageshadow="2" inkscape:zoom="0.35" inkscape:cx="136.99416" inkscape:cy="252.28136" inkscape:document-units="px" inkscape:current-layer="layer1" showgrid="false" fit-margin-left="0.5" fit-margin-top="0.5" fit-margin-bottom="0.5" fit-margin-right="0.5" inkscape:window-width="1920" inkscape:window-height="1028" inkscape:window-x="-8" inkscape:window-y="-8" inkscape:window-maximized="1"/>
  <metadata id="metadata3565">
    <rdf:RDF>
      <cc:Work rdf:about="">
        <dc:format>image/svg+xml</dc:format>
        <dc:type rdf:resource="http://purl.org/dc/dcmitype/StillImage"/>
        <dc:title/>
      </cc:Work>
    </rdf:RDF>
  </metadata>
  <g inkscape:label="Layer 1" inkscape:groupmode="layer" id="layer1" transform="translate(-238.00583,-298.88223)">
    <g id="g3721" transform="matrix(9.8077109,0,0,9.8077109,-2100.6901,-6906.5099)">
      <g id="g3177" transform="matrix(1.25,0,0,-1.25,238.5058,762.70077)">
        <path inkscape:connector-curvature="0" d="M 0,0 19.067,0 22,-4.769 0,-4.769 0,0 z m 0,7.451 0,-4.735 17.396,0 -2.913,4.735 -14.483,0 z m 18.662,2.716 -18.662,0 0,4.744 19.913,0 c 0.009,-0.186 0.014,-0.374 0.012,-0.566 -0.016,-1.765 -0.439,-3.126 -1.263,-4.178 m -9.087,12.22 -9.575,0 0,-4.761 19.317,0 c -1.396,3.253 -5.071,4.761 -9.742,4.761" style="fill:#fc9733;fill-opacity:1;fill-rule:nonzero;stroke:none" id="path3179"/>
      </g>
      <g id="g3181" transform="matrix(1.25,0,0,-1.25,278.92193,774.6154)">
        <path inkscape:connector-curvature="0" d="m 0,0 -1.413,0 -0.759,0.959 1.111,0 0.367,-0.556 0.351,0.556 1.128,0 L 0,0 z m 28.268,-4.118 c 0,-0.633 -0.215,-1.332 -0.963,-1.332 -0.732,0 -0.963,0.674 -0.963,1.291 0,0.633 0.248,1.258 0.979,1.258 0.716,0 0.947,-0.608 0.947,-1.217 m 1.242,-0.049 c 0,1.275 -0.823,2.237 -2.131,2.237 -1.382,0 -2.278,-0.897 -2.278,-2.279 0,-1.308 0.831,-2.229 2.163,-2.229 1.324,0 2.246,0.955 2.246,2.271 m -4.606,1.077 0,1.102 c -0.074,0.009 -0.14,0.017 -0.215,0.017 -0.575,0 -0.896,-0.247 -1.101,-0.781 l 0,0.699 -1.185,0 0,-4.261 1.242,0 0,1.39 c 0,0.214 0,0.436 0.009,0.65 0.016,0.691 0.115,1.209 0.962,1.209 0.099,0 0.189,-0.008 0.288,-0.025 m -9.246,-3.224 -1.759,2.649 1.644,1.612 -1.571,0 -1.316,-1.456 0,3.002 -1.209,0 0,-5.807 1.209,0 0,1.415 0.395,0.395 1.069,-1.81 1.538,0 z m -4.835,1.307 c 0,1.07 -1.054,1.26 -1.876,1.432 -0.222,0.049 -0.724,0.107 -0.724,0.411 0,0.305 0.362,0.346 0.592,0.346 0.231,0 0.493,-0.083 0.642,-0.272 0.066,-0.082 0.09,-0.246 0.107,-0.345 l 1.135,0.058 c -0.049,1.044 -0.93,1.447 -1.867,1.447 -0.864,0 -1.777,-0.345 -1.777,-1.349 0,-1.702 2.533,-1.086 2.533,-1.851 0,-0.337 -0.345,-0.394 -0.608,-0.394 -0.543,0 -0.831,0.156 -0.905,0.707 L 6.923,-4.858 c 0,-0.14 0.008,-0.255 0.041,-0.395 0.214,-0.881 1.119,-1.185 1.934,-1.185 0.929,0 1.925,0.33 1.925,1.431 m -5.528,1.391 -1.703,0 c 0.132,0.485 0.395,0.732 0.913,0.732 0.436,0 0.749,-0.304 0.79,-0.732 m 1.275,-0.922 0,0.206 c 0,1.316 -0.675,2.402 -2.098,2.402 -1.308,0 -2.155,-0.979 -2.155,-2.254 0,-1.308 0.806,-2.254 2.155,-2.254 0.938,0 1.744,0.445 2.048,1.357 L 5.303,-4.998 C 5.122,-5.319 4.884,-5.45 4.505,-5.45 c -0.559,0 -0.847,0.386 -0.921,0.912 l 2.986,0 z m -4.516,0.165 -1.357,0.09 c -0.008,-0.658 -0.625,-1.069 -1.242,-1.069 -0.329,0 -0.642,0.107 -0.897,0.313 -0.493,0.412 -0.592,1.061 -0.592,1.662 0,0.962 0.387,1.916 1.489,1.916 0.452,0 0.855,-0.173 1.085,-0.584 0.05,-0.099 0.099,-0.198 0.124,-0.304 l 1.308,0.09 c -0.016,0.14 -0.058,0.264 -0.099,0.395 -0.345,1.028 -1.373,1.497 -2.402,1.497 -1.817,0 -2.912,-1.242 -2.912,-3.019 0,-1.217 0.576,-2.41 1.753,-2.87 0.361,-0.14 0.756,-0.189 1.143,-0.189 0.946,0 1.826,0.345 2.311,1.192 0.157,0.272 0.255,0.576 0.288,0.88 m 41.398,-0.558 c -0.205,-0.354 -0.592,-0.552 -0.995,-0.552 -0.28,0 -0.568,0.133 -0.568,0.454 0,0.551 0.881,0.559 1.267,0.658 0.099,0.024 0.197,0.057 0.296,0.098 l 0,-0.658 z m 1.202,0.987 c 0,0.346 0.016,0.84 -0.116,1.16 -0.313,0.741 -1.111,0.857 -1.817,0.857 -0.963,0 -1.762,-0.412 -1.82,-1.474 l 1.12,0 c -0.016,0.42 0.411,0.535 0.749,0.535 0.255,0 0.65,-0.065 0.65,-0.395 0,-0.304 -0.445,-0.321 -0.659,-0.353 -0.921,-0.132 -2.098,-0.239 -2.098,-1.449 0,-0.863 0.658,-1.374 1.482,-1.374 0.608,0 0.872,0.181 1.341,0.511 l 0.008,-0.387 1.161,0 -10e-4,2.369 z m 4.5,-1.067 c 0,1.07 -1.052,1.259 -1.875,1.431 -0.222,0.05 -0.724,0.107 -0.724,0.412 0,0.304 0.362,0.345 0.592,0.345 0.231,0 0.494,-0.082 0.642,-0.271 0.065,-0.082 0.09,-0.247 0.107,-0.346 l 1.135,0.058 c -0.05,1.045 -0.929,1.448 -1.867,1.448 -0.864,0 -1.777,-0.346 -1.777,-1.349 0,-1.703 2.533,-1.086 2.533,-1.851 0,-0.337 -0.344,-0.395 -0.609,-0.395 -0.542,0 -0.831,0.156 -0.904,0.707 l -1.152,-0.04 c 0,-0.14 0.008,-0.256 0.041,-0.395 0.214,-0.881 1.119,-1.185 1.933,-1.185 0.93,0 1.925,0.329 1.925,1.431 m -9.122,-1.308 -1.209,0 0,5.807 1.209,0 0,-5.807 z m -3.257,0 0,2.386 c 0,0.271 0.017,0.6 -0.205,0.798 -0.116,0.107 -0.272,0.148 -0.428,0.148 -0.181,0 -0.329,-0.05 -0.469,-0.165 -0.289,-0.239 -0.271,-0.641 -0.271,-0.978 l 0,-2.189 -1.201,0 0,5.808 1.201,0 0,-1.983 c 0.188,0.338 0.797,0.535 1.159,0.535 0.281,0 0.617,-0.074 0.847,-0.239 0.494,-0.353 0.576,-0.83 0.576,-1.398 l 0,-2.723 -1.209,0 z m -6.967,0 0,0.906 2.106,2.351 -1.867,0 0,1.004 3.372,0 0,-0.979 -2.04,-2.278 2.18,0 0,-1.004 -3.751,0 z m -10.683,6.059 -1.451,0 -0.59,-1.228 0.941,0 1.1,1.228 z m 0.509,-1.793 -1.283,0 -0.707,-2.871 -0.774,2.871 -1.316,0 1.234,-3.455 c 0.066,-0.189 0.173,-0.403 0.173,-0.609 0,-0.139 -0.066,-0.345 -0.181,-0.436 -0.116,-0.09 -0.371,-0.107 -0.511,-0.107 -0.106,0 -0.213,0.008 -0.32,0.008 l 0,-0.954 c 0.107,0 0.214,-0.016 0.32,-0.016 0.527,0 1.193,-0.033 1.555,0.419 0.173,0.222 0.313,0.65 0.403,0.921 l 1.407,4.229 z" style="fill:#fc9733;fill-opacity:1;fill-rule:nonzero;stroke:none" id="path3183"/>
      </g>
      <path inkscape:connector-curvature="0" d="m 291.69718,753.38715 -3.18624,0 0,15.30375 3.18624,0 0,-15.30375 z m 12.13875,15.30375 0,-11.22875 -3.1,0 0,4.8125 c 0,0.49875 -0.0425,0.97625 -0.0425,1.47375 0,1.30125 -0.2825,2.58 -1.88625,2.58 -1.5175,0 -1.75625,-1.1925 -1.75625,-2.4275 l 0,-6.43875 -3.18625,0 0,6.54625 c 0,1.7125 0.0875,3.5775 1.75625,4.50875 0.60625,0.3475 1.3225,0.45625 1.99375,0.45625 1.14875,0 2.5575,-0.49875 3.18625,-1.5175 l 0,1.235 3.035,0 z m 11.9,-3.44625 c 0,-2.8175 -2.775,-3.31625 -4.9425,-3.77125 -0.585,-0.13 -1.9075,-0.2825 -1.9075,-1.08375 0,-0.8025 0.95375,-0.91125 1.56125,-0.91125 0.60625,0 1.3,0.2175 1.69125,0.715 0.1725,0.2175 0.2375,0.65125 0.28125,0.91125 l 2.99125,-0.1525 c -0.13,-2.7525 -2.45,-3.815 -4.92,-3.815 -2.27625,0 -4.6825,0.91125 -4.6825,3.555 0,4.4875 6.67625,2.86125 6.67625,4.8775 0,0.88875 -0.91,1.04 -1.60375,1.04 -1.43125,0 -2.19,-0.41125 -2.385,-1.86375 l -3.03375,0.10875 c 0,0.36875 0.0213,0.67125 0.1075,1.04 0.56375,2.32 2.94875,3.12125 5.09375,3.12125 2.45,0 5.0725,-0.86625 5.0725,-3.77125 m -34.68625,-11.8575 c 2.31375,0 4.36875,0.325 5.47125,2.6175 0.325,0.69125 0.47625,1.57875 0.47625,2.335 0,1.1025 -0.26,2.27125 -0.9525,3.1575 -1.38375,1.81625 -3.15625,1.88125 -5.2325,1.88125 l -2.18375,0 0,5.27625 -3.46,0 0,-15.2675 5.88125,0 z m -2.42125,7.18 2.1625,0 c 1.34,0 2.7675,-0.3675 2.7675,-2.20625 0,-2.11875 -1.9025,-2.18375 -3.1575,-2.18375 l -1.7725,0 0,4.39 z" style="fill:#fc9733;fill-opacity:1;fill-rule:nonzero;stroke:none" id="path3185"/>
    </g>
  </g>
</svg>