<?xml version="1.0" encoding="UTF-8" standalone="no"?>
<!-- Created with Inkscape (http://www.inkscape.org/) -->

<svg
   xmlns:dc="http://purl.org/dc/elements/1.1/"
   xmlns:cc="http://creativecommons.org/ns#"
   xmlns:rdf="http://www.w3.org/1999/02/22-rdf-syntax-ns#"
   xmlns:svg="http://www.w3.org/2000/svg"
   xmlns="http://www.w3.org/2000/svg"
   xmlns:sodipodi="http://sodipodi.sourceforge.net/DTD/sodipodi-0.dtd"
   xmlns:inkscape="http://www.inkscape.org/namespaces/inkscape"
   version="1.1"
   id="svg2"
   xml:space="preserve"
   width="247.23466"
   height="99.78318"
   viewBox="0 0 247.23467 99.783181"
   sodipodi:docname="Cesky rozhlas Vltava.svg"
   inkscape:version="0.92.0 r15299"><metadata
     id="metadata8"><rdf:RDF><cc:Work
         rdf:about=""><dc:format>image/svg+xml</dc:format><dc:type
           rdf:resource="http://purl.org/dc/dcmitype/StillImage" /><dc:title></dc:title></cc:Work></rdf:RDF></metadata><defs
     id="defs6" /><sodipodi:namedview
     pagecolor="#ffffff"
     bordercolor="#666666"
     borderopacity="1"
     objecttolerance="10"
     gridtolerance="10"
     guidetolerance="10"
     inkscape:pageopacity="0"
     inkscape:pageshadow="2"
     inkscape:window-width="716"
     inkscape:window-height="480"
     id="namedview4"
     showgrid="false"
     fit-margin-top="0"
     fit-margin-left="0"
     fit-margin-right="0"
     fit-margin-bottom="0"
     inkscape:zoom="0.54784285"
     inkscape:cx="245.66934"
     inkscape:cy="43.090515"
     inkscape:window-x="0"
     inkscape:window-y="0"
     inkscape:window-maximized="0"
     inkscape:current-layer="g10" /><g
     id="g10"
     inkscape:groupmode="layer"
     inkscape:label="CRo-Vltava-H-RGB"
     transform="matrix(1.3333333,0,0,-1.3333333,-75.590665,245.66933)"><g
       id="g12"
       transform="translate(56.693,149.2)"><path
         d="m 0,0 h 29.854 l 4.593,-7.467 H 0 Z M 0,11.667 V 4.252 h 27.237 l -4.56,7.415 z m 29.22,4.252 H 0 v 7.428 h 31.178 c 0.015,-0.291 0.023,-0.585 0.02,-0.886 -0.026,-2.764 -0.687,-4.895 -1.978,-6.542 M 14.991,35.052 H 0 v -7.453 h 30.245 c -2.185,5.092 -7.94,7.453 -15.254,7.453"
         style="fill:#00b8e0;fill-opacity:1;fill-rule:nonzero;stroke:none"
         id="path14"
         inkscape:connector-curvature="0" /></g><g
       id="g16"
       transform="translate(113.852,129.307)"><path
         d="m 0,0 h -3.686 l -1.982,2.503 h 2.9 l 0.958,-1.452 0.914,1.452 h 2.944 z m 73.765,-10.745 c 0,-1.653 -0.56,-3.478 -2.512,-3.478 -1.91,0 -2.513,1.761 -2.513,3.37 0,1.653 0.646,3.284 2.555,3.284 1.868,0 2.47,-1.588 2.47,-3.176 m 3.24,-0.129 c 0,3.326 -2.147,5.838 -5.559,5.838 -3.607,0 -5.946,-2.34 -5.946,-5.946 0,-3.414 2.169,-5.817 5.646,-5.817 3.455,0 5.859,2.49 5.859,5.925 m -12.02,2.812 v 2.875 c -0.192,0.022 -0.364,0.042 -0.558,0.042 -1.502,0 -2.34,-0.642 -2.875,-2.038 v 1.825 H 58.46 v -11.119 h 3.242 v 3.627 c 0,0.559 0,1.139 0.022,1.697 0.043,1.802 0.3,3.155 2.511,3.155 0.257,0 0.493,-0.022 0.75,-0.064 m -24.125,-8.415 -4.591,6.913 4.291,4.206 h -4.099 l -3.435,-3.799 v 7.834 h -3.155 v -15.154 h 3.155 v 3.693 l 1.03,1.031 2.791,-4.724 z m -12.619,3.413 c 0,2.792 -2.748,3.286 -4.895,3.735 -0.579,0.129 -1.888,0.279 -1.888,1.073 0,0.795 0.944,0.902 1.545,0.902 0.602,0 1.287,-0.215 1.674,-0.708 0.172,-0.215 0.236,-0.644 0.279,-0.903 l 2.963,0.152 c -0.129,2.724 -2.426,3.777 -4.873,3.777 -2.254,0 -4.636,-0.901 -4.636,-3.52 0,-4.443 6.611,-2.835 6.611,-4.831 0,-0.88 -0.901,-1.029 -1.589,-1.029 -1.416,0 -2.168,0.407 -2.361,1.847 l -3.005,-0.109 c 0,-0.364 0.021,-0.665 0.107,-1.029 0.559,-2.299 2.919,-3.092 5.045,-3.092 2.425,0 5.023,0.86 5.023,3.735 M 13.817,-9.437 H 9.373 c 0.344,1.267 1.031,1.911 2.384,1.911 1.137,0 1.952,-0.793 2.06,-1.911 m 3.326,-2.404 v 0.537 c 0,3.434 -1.76,6.268 -5.473,6.268 -3.413,0 -5.623,-2.555 -5.623,-5.881 0,-3.413 2.103,-5.882 5.623,-5.882 2.447,0 4.551,1.159 5.345,3.541 l -3.177,0.216 c -0.472,-0.839 -1.094,-1.181 -2.081,-1.181 -1.46,0 -2.212,1.009 -2.405,2.382 z m -11.783,0.43 -3.541,0.235 c -0.022,-1.717 -1.632,-2.789 -3.241,-2.789 -0.859,0 -1.675,0.278 -2.34,0.816 -1.288,1.074 -1.546,2.768 -1.546,4.336 0,2.51 1.009,5 3.886,5 1.18,0 2.232,-0.451 2.832,-1.524 0.13,-0.258 0.258,-0.516 0.323,-0.794 l 3.412,0.235 c -0.042,0.367 -0.15,0.689 -0.257,1.031 -0.901,2.683 -3.584,3.907 -6.268,3.907 -4.743,0 -7.598,-3.24 -7.598,-7.877 0,-3.178 1.503,-6.289 4.572,-7.491 0.944,-0.364 1.974,-0.492 2.984,-0.492 2.468,0 4.764,0.901 6.031,3.111 0.408,0.708 0.665,1.502 0.751,2.296 m 108.028,-1.455 c -0.535,-0.924 -1.545,-1.441 -2.598,-1.441 -0.73,0 -1.482,0.346 -1.482,1.183 0,1.438 2.298,1.459 3.306,1.717 0.258,0.064 0.516,0.149 0.774,0.258 z m 3.136,2.575 c 0,0.901 0.041,2.19 -0.302,3.027 -0.817,1.934 -2.899,2.235 -4.742,2.235 -2.514,0 -4.598,-1.074 -4.749,-3.845 h 2.922 c -0.043,1.095 1.073,1.396 1.953,1.396 0.667,0 1.698,-0.171 1.698,-1.031 0,-0.795 -1.16,-0.838 -1.719,-0.923 -2.404,-0.343 -5.475,-0.623 -5.475,-3.779 0,-2.254 1.717,-3.586 3.866,-3.586 1.588,0 2.275,0.473 3.5,1.332 l 0.021,-1.009 h 3.029 z m 11.743,-2.784 c 0,2.791 -2.746,3.285 -4.893,3.734 -0.58,0.13 -1.889,0.279 -1.889,1.073 0,0.794 0.944,0.902 1.545,0.902 0.602,0 1.287,-0.214 1.674,-0.708 0.17,-0.214 0.236,-0.644 0.279,-0.902 l 2.961,0.151 c -0.129,2.725 -2.423,3.777 -4.871,3.777 -2.254,0 -4.636,-0.901 -4.636,-3.519 0,-4.444 6.609,-2.834 6.609,-4.83 0,-0.88 -0.898,-1.032 -1.588,-1.032 -1.416,0 -2.168,0.409 -2.359,1.847 l -3.006,-0.106 c 0,-0.366 0.021,-0.666 0.107,-1.031 0.559,-2.298 2.918,-3.091 5.043,-3.091 2.426,0 5.024,0.859 5.024,3.735 m -23.803,-3.413 h -3.1543 v 15.154 h 3.1543 z m -8.5,0 v 6.224 c 0,0.708 0.043,1.568 -0.535,2.082 -0.303,0.28 -0.709,0.387 -1.117,0.387 -0.473,0 -0.858,-0.13 -1.225,-0.43 -0.752,-0.623 -0.707,-1.673 -0.707,-2.553 v -5.71 h -3.134 v 15.154 h 3.134 v -5.174 c 0.492,0.881 2.08,1.397 3.025,1.397 0.733,0 1.612,-0.195 2.211,-0.623 1.289,-0.923 1.502,-2.168 1.502,-3.65 v -7.104 z m -18.18,0 v 2.362 l 5.494,6.137 h -4.872 v 2.62 h 8.801 v -2.556 l -5.324,-5.944 h 5.689 v -2.619 z M 49.905,-0.68 h -3.784 l -1.54,-3.203 h 2.454 z m 1.33,-4.678 h -3.349 l -1.845,-7.492 -2.018,7.492 h -3.435 l 3.22,-9.014 c 0.172,-0.494 0.451,-1.053 0.451,-1.589 0,-0.365 -0.172,-0.901 -0.472,-1.139 -0.302,-0.235 -0.968,-0.278 -1.333,-0.278 -0.277,0 -0.556,0.021 -0.836,0.021 v -2.491 c 0.28,0 0.559,-0.043 0.836,-0.043 1.375,0 3.113,-0.086 4.057,1.096 0.452,0.579 0.818,1.695 1.053,2.403 l 3.671,11.034"
         style="fill:#00b8e0;fill-opacity:1;fill-rule:nonzero;stroke:none"
         id="path18"
         inkscape:connector-curvature="0" /></g><g
       id="g20"
       transform="translate(129.736,173.622)"><path
         d="M 0,0 H -7.715 L -14.392,-23.145 -21.16,0 h -7.805 l 11.189,-31.852 h 6.632 z M 2.481,-31.852 H 9.1131 V 0 H 2.481 Z m 6.632,0 z m 17.099,0.045 v 5.143 c -0.586,-0.045 -1.218,-0.09 -1.804,-0.09 -2.121,0 -2.527,0.722 -2.527,2.707 v 10.512 h 4.106 v 5.053 h -4.106 v 6.903 h -6.632 v -6.903 h -3.338 v -5.053 h 3.338 v -10.106 c 0,-0.406 -0.045,-0.767 -0.045,-1.173 0,-4.873 1.218,-7.309 6.452,-7.309 1.534,0 3.022,0.136 4.556,0.316 z m 47.914,23.325 h -7.038 l -3.88,-14.482 -4.286,14.482 h -7.084 l 8.076,-23.37 h 6.362 z m 22.16,-23.362 -6.368,-10e-4 -0.045,2.121 c -2.572,-1.805 -4.016,-2.798 -7.356,-2.798 -4.513,0 -8.123,2.798 -8.123,7.537 0,6.634 6.453,7.221 11.508,7.943 1.173,0.181 3.61,0.271 3.61,1.941 0,1.805 -2.166,2.166 -3.565,2.166 -1.85,0 -4.197,-0.632 -4.107,-2.934 h -6.138 c 0.316,5.822 4.694,8.079 9.974,8.079 3.882,0 8.259,-0.632 9.974,-4.694 0.722,-1.76 0.632,-4.468 0.632,-6.363 z m -6.593,11.192 c -0.542,-0.226 -1.083,-0.407 -1.625,-0.542 -2.121,-0.542 -6.95,-0.587 -6.95,-3.61 0,-1.761 1.58,-2.483 3.114,-2.483 2.212,0 4.333,1.084 5.461,3.024 z m -39.344,1.805 c 0,1.895 0.09,4.603 -0.632,6.363 -1.715,4.062 -6.093,4.694 -9.974,4.694 -5.28,0 -9.658,-2.257 -9.974,-8.079 h 6.138 c -0.09,2.302 2.256,2.934 4.107,2.934 1.399,0 3.565,-0.361 3.565,-2.166 0,-1.67 -2.437,-1.76 -3.61,-1.941 -5.055,-0.722 -11.509,-1.309 -11.509,-7.943 0,-4.739 3.611,-7.537 8.124,-7.537 3.339,0 4.784,0.993 7.356,2.798 l 0.045,-2.121 6.367,10e-4 z m -6.589,-5.416 c -1.129,-1.94 -3.25,-3.024 -5.461,-3.024 -1.535,0 -3.114,0.722 -3.114,2.483 0,3.023 4.829,3.068 6.95,3.61 0.541,0.135 1.083,0.316 1.625,0.542 v -3.611"
         style="fill:#00b8e0;fill-opacity:1;fill-rule:nonzero;stroke:none"
         id="path22"
         inkscape:connector-curvature="0" /></g></g></svg>