<svg width="812.41pt" height="369.18pt" version="1.1" viewBox="0 0 812.41 369.18" xmlns="http://www.w3.org/2000/svg">
 <g transform="translate(-34.695 -124.47)" fill="#00ab96">
  <g transform="matrix(3.587 0 0 -3.587 515.18 378.27)">
   <path d="m36.25 23.414h-6.509v-23.414h6.825v11.526c0 2.802 0.543 6.328 5.334 6.328 0.588 0 0.949-0.045 1.582-0.136v6.057c-0.588 0.091-0.859 0.091-1.175 0.091-2.848 0-4.791-1.04-6.057-4.294z" fill="#00ab96"/>
  </g>
  <g transform="matrix(3.5841 0 0 -3.5841 297.59 320.66)">
   <path d="m146.85-7.051c-0.271-2.441-2.034-4.023-4.475-4.023-3.887 0-4.791 3.752-4.791 6.961 0 3.254 1.13 6.689 4.927 6.689 2.35 0 3.752-1.31 4.158-3.616l6.419 0.272c-0.317 5.83-5.515 8.814-10.441 8.814-7.549 0-11.978-5.153-11.978-12.476 0-7.186 4.113-12.294 11.571-12.294 5.74 0 9.853 2.893 11.074 9.356l-6.464 0.317" fill="#00ab96"/>
  </g>
  <g transform="matrix(3.5816 0 0 -3.5816 9.0961 263.89)">
   <path d="m119.6 0v-31.911h6.599s-0.135 1.582-0.135 2.395c1.808-1.943 3.661-3.073 6.373-3.073 7.187 0 9.854 6.509 9.854 12.791 0 6.148-2.984 11.933-9.899 11.933-2.305 0-4.565-0.678-6.193-2.35v10.215zm16.001-19.798c0-3.028-0.814-7.232-4.656-7.232-3.977 0-4.791 3.707-4.791 6.961 0 3.255 1.04 6.735 4.927 6.735 3.571 0 4.52-3.526 4.52-6.464z" fill="#00ab96"/>
  </g>
  <path d="m610.69 343.19v-4.0488c0-25.912-13.279-47.288-41.297-47.288-25.751 0-42.43 19.273-42.43 44.375 0 25.747 15.869 44.372 42.43 44.372 18.463 0 34.336-8.7425 40.326-26.722l-23.97-1.6195c-3.5615 6.3168-8.2588 8.9073-15.708 8.9073-11.014 0-16.682-7.6102-18.137-17.976zm-58.625-18.137c2.5905-9.5558 7.7715-14.414 17.976-14.414 8.5848 0 14.737 5.9907 15.547 14.414z"/>
  <path d="m758.55 343.21v-4.0488c0-25.912-13.279-47.288-41.297-47.288-25.751 0-42.43 19.273-42.43 44.375 0 25.747 15.869 44.372 42.43 44.372 18.463 0 34.336-8.7425 40.326-26.722l-23.97-1.6195c-3.5615 6.3168-8.2588 8.9073-15.708 8.9073-11.014 0-16.682-7.6102-18.137-17.976zm-58.625-18.137c2.5905-9.5558 7.7715-14.414 17.976-14.414 8.5848 0 14.737 5.9907 15.547 14.414z"/>
  <path d="m421.46 294.37h-23.651v83.915l23.651-2.4e-4zm0-30.456-23.651 2.4e-4v21.545h23.651z"/>
  <path d="m308.67 263.91h25.87l-0.03 92.721h54v21.65h-79.84z"/>
 </g>
 <g transform="matrix(3.5857 0 0 -3.5857 485.62 317.05)">
  <path d="m0 0h-3.351l-1.845-7.494-2.019 7.494h-3.436l3.22-9.018c0.172-0.494 0.452-1.052 0.452-1.589 0-0.365-0.172-0.901-0.472-1.138-0.302-0.237-0.967-0.28-1.333-0.28-0.278 0-0.557 0.022-0.836 0.022v-2.492c0.279 0 0.558-0.042 0.836-0.042 1.375 0 3.115-0.087 4.058 1.095 0.452 0.58 0.818 1.697 1.054 2.405zm-1.33 4.681h-3.786l-1.54-3.204h2.455zm27.889-15.815v2.362l5.497 6.14h-4.875v2.621h8.805v-2.555l-5.326-5.948h5.691v-2.62zm18.187 0v6.227c0 0.709 0.043 1.568-0.536 2.083-0.301 0.279-0.709 0.386-1.118 0.386-0.471 0-0.857-0.128-1.223-0.429-0.752-0.623-0.708-1.675-0.708-2.555v-5.712h-3.136v15.16h3.136v-5.175c0.493 0.88 2.082 1.396 3.027 1.396 0.731 0 1.61-0.194 2.212-0.623 1.288-0.923 1.501-2.169 1.501-3.651v-7.107zm8.503 0h-3.156v15.16h3.156zm23.812 3.414c0 2.792-2.748 3.286-4.895 3.736-0.58 0.13-1.889 0.28-1.889 1.074s0.945 0.901 1.545 0.901c0.602 0 1.288-0.214 1.675-0.708 0.171-0.214 0.236-0.644 0.279-0.901l2.963 0.15c-0.129 2.726-2.426 3.779-4.874 3.779-2.254 0-4.639-0.902-4.639-3.521 0-4.445 6.614-2.836 6.614-4.832 0-0.88-0.9-1.031-1.588-1.031-1.418 0-2.169 0.408-2.362 1.847l-3.006-0.107c0-0.365 0.02-0.666 0.107-1.03 0.558-2.299 2.92-3.093 5.045-3.093 2.427 0 5.025 0.859 5.025 3.736m-11.747 2.785c0 0.903 0.042 2.192-0.302 3.029-0.816 1.934-2.899 2.235-4.746 2.235-2.513 0-4.597-1.074-4.747-3.846h2.922c-0.044 1.095 1.073 1.396 1.954 1.396 0.665 0 1.696-0.171 1.696-1.03 0-0.795-1.16-0.838-1.718-0.923-2.406-0.344-5.477-0.624-5.477-3.782 0-2.254 1.718-3.587 3.866-3.587 1.589 0 2.278 0.473 3.501 1.333l0.022-1.009h3.031zm-3.137-2.576c-0.537-0.924-1.547-1.44-2.599-1.44-0.731 0-1.483 0.344-1.483 1.182 0 1.439 2.3 1.46 3.309 1.718 0.258 0.064 0.515 0.15 0.773 0.257zm-108.07 1.456-3.542 0.236c-0.022-1.718-1.632-2.79-3.242-2.79-0.86 0-1.676 0.278-2.341 0.815-1.288 1.074-1.546 2.77-1.546 4.338 0 2.512 1.009 5.002 3.887 5.002 1.18 0 2.233-0.45 2.833-1.525 0.13-0.257 0.258-0.515 0.323-0.794l3.414 0.236c-0.043 0.366-0.151 0.688-0.258 1.03-0.901 2.685-3.585 3.909-6.27 3.909-4.745 0-7.6-3.242-7.6-7.881 0-3.178 1.503-6.291 4.573-7.493 0.944-0.365 1.975-0.493 2.985-0.493 2.469 0 4.766 0.902 6.033 3.113 0.408 0.708 0.666 1.503 0.751 2.297m11.789-0.43v0.538c0 3.434-1.761 6.27-5.476 6.27-3.414 0-5.625-2.555-5.625-5.884 0-3.415 2.103-5.883 5.625-5.883 2.448 0 4.553 1.159 5.347 3.542l-3.178 0.215c-0.473-0.838-1.095-1.18-2.082-1.18-1.461 0-2.213 1.009-2.406 2.382zm-3.328 2.405h-4.446c0.344 1.267 1.031 1.912 2.385 1.912 1.137 0 1.953-0.794 2.061-1.912m14.429-3.628c0 2.792-2.749 3.286-4.896 3.736-0.58 0.129-1.89 0.28-1.89 1.074s0.945 0.901 1.546 0.901c0.602 0 1.288-0.214 1.675-0.708 0.172-0.215 0.236-0.644 0.279-0.902l2.964 0.151c-0.129 2.726-2.427 3.779-4.875 3.779-2.254 0-4.638-0.903-4.638-3.522 0-4.445 6.614-2.835 6.614-4.832 0-0.88-0.902-1.03-1.59-1.03-1.416 0-2.168 0.408-2.361 1.847l-3.006-0.107c0-0.366 0.021-0.666 0.107-1.031 0.558-2.299 2.92-3.092 5.046-3.092 2.426 0 5.025 0.859 5.025 3.736m12.624-3.414-4.594 6.914 4.294 4.208h-4.101l-3.435-3.8v7.837h-3.157v-15.159h3.157v3.693l1.03 1.031 2.792-4.724zm24.134 8.417v2.877c-0.192 0.022-0.364 0.042-0.558 0.042-1.502 0-2.34-0.643-2.877-2.038v1.824h-3.092v-11.122h3.243v3.628c0 0.559 0 1.138 0.021 1.697 0.043 1.803 0.301 3.156 2.513 3.156 0.257 0 0.493-0.021 0.75-0.064m12.025-2.813c0 3.328-2.147 5.841-5.561 5.841-3.608 0-5.948-2.341-5.948-5.949 0-3.414 2.169-5.818 5.646-5.818 3.458 0 5.863 2.491 5.863 5.926m-3.242 0.129c0-1.653-0.559-3.478-2.512-3.478-1.912 0-2.514 1.76-2.514 3.371 0 1.653 0.645 3.285 2.555 3.285 1.869 0 2.471-1.589 2.471-3.178m-73.792 10.749h-3.688l-1.982 2.504h2.901l0.958-1.452 0.914 1.452h2.945l-2.048-2.504" fill="#00ab96"/>
 </g>
 <g transform="matrix(5.9653 0 0 -5.9653 0 209.09)">
  <path d="m0 0h29.854l4.593-7.467h-34.447zm0 11.667v-7.415h27.237l-4.56 7.415zm29.22 4.252h-29.22v7.428h31.178c0.015-0.291 0.023-0.585 0.02-0.886-0.026-2.764-0.687-4.895-1.978-6.542m-14.229 19.133h-14.991v-7.453h30.245c-2.185 5.092-7.94 7.453-15.254 7.453" fill="#00ab96"/>
 </g>
</svg>
