<svg height="99.791" viewBox="0 0 567.08667 99.790917" width="567.09" xmlns="http://www.w3.org/2000/svg"><g fill="#00ab96"><path d="m-.0018743 46.741h39.805l6.124 9.956h-45.929zm0-15.556v9.8867h36.316l-6.08-9.8867zm38.96-5.6693h-38.96v-9.904h41.571c.02.388.0307.78.0267 1.1813-.0347 3.6853-.916 6.5267-2.6373 8.7227m-18.972-25.511h-19.988v9.9373h40.327c-2.9133-6.7893-10.587-9.9373-20.339-9.9373" stroke-width="1.3333"/><g stroke-width="1.3333"><path d="m74.8 73.266h-4.9172l-2.6426-3.3386h3.8666l1.2773 1.9346 1.22-1.9346h3.9266zm98.387 14.33c0 2.2053-.74665 4.6386-3.3492 4.6386-2.5493 0-3.3519-2.3466-3.3519-4.4959 0-2.2026.85998-4.3799 3.4066-4.3799 2.4919 0 3.2946 2.1199 3.2946 4.2372m4.3226.172c0-4.4372-2.8626-7.7865-7.4145-7.7865-4.8106 0-7.9318 3.1199-7.9318 7.9291 0 4.5519 2.8933 7.7585 7.5291 7.7585 4.6106 0 7.8171-3.3199 7.8171-7.9011m-16.033-3.7506v-3.8346c-.256-.02933-.48533-.05733-.74399-.05733-2.0026 0-3.1212.85598-3.8359 2.7186v-2.4333h-4.1226v14.83h4.3239v-4.8372c0-.74531 0-1.5186.028-2.2639.0573-2.4026.40132-4.2079 3.3492-4.2079.34399 0 .65865.028 1.0013.08533m-32.178 11.224-6.1252-9.2211 5.7252-5.6092h-5.4679l-4.5799 5.0679v-10.45h-4.2092v20.213h4.2092v-4.9265l1.3733-1.372 3.7226 6.2985zm-16.832-4.5519c0-3.7239-3.6652-4.3826-6.5292-4.9812-.77198-.172-2.5186-.37466-2.5186-1.432 0-1.06 1.26-1.204 2.0613-1.204.80265 0 1.7173.28666 2.2333.94531.22933.28666.31466.85998.37199 1.204l3.9519-.20133c-.17333-3.6346-3.2359-5.0385-6.4998-5.0385-3.0066 0-6.1838 1.2026-6.1838 4.6959 0 5.9265 8.8185 3.7786 8.8185 6.4425 0 1.172-1.2026 1.372-2.12 1.372-1.8893 0-2.8906-.54399-3.1479-2.4613l-4.0079.14133c0 .48932.028.88798.14266 1.3746.74398 3.0653 3.8932 4.1226 6.7278 4.1226 3.2346 0 6.6998-1.1466 6.6998-4.9799m-19.238-4.8385h-5.9279c.45866-1.6893 1.3746-2.5493 3.1799-2.5493 1.516 0 2.6039 1.0573 2.7479 2.5493m4.4359 3.2066v-.71598c0-4.5812-2.3466-8.3598-7.2998-8.3598-4.5519 0-7.5011 3.4066-7.5011 7.8438 0 4.5519 2.8053 7.8438 7.5011 7.8438 3.2639 0 6.0705-1.544 7.1292-4.7212l-4.2372-.28666c-.63065 1.1173-1.46 1.5733-2.7759 1.5733-1.948 0-2.9506-1.3466-3.2079-3.1773zm-15.717-.57332-4.7225-.31466c-.02933 2.2906-2.1759 3.7212-4.3226 3.7212-1.1466 0-2.2346-.37332-3.1213-1.0866-1.7186-1.432-2.0613-3.6946-2.0613-5.7839 0-3.3506 1.3453-6.6705 5.1825-6.6705 1.5733 0 2.9773.60132 3.7772 2.0333.17333.34399.34399.68798.42932 1.06l4.5519-.31599c-.056-.48666-.2-.91864-.34266-1.3746-1.2013-3.5772-4.7799-5.2105-8.3598-5.2105-6.3265 0-10.133 4.3226-10.133 10.508 0 4.2372 2.004 8.3878 6.0958 9.9918 1.26.48399 2.6346.65598 3.9812.65598 3.2906 0 6.3545-1.2026 8.0438-4.1506.54399-.94264.88798-2.0026 1.0013-3.0626m144.09 1.9426c-.71598 1.232-2.0626 1.92-3.4652 1.92-.97464 0-1.9773-.46132-1.9773-1.576 0-1.92 3.0652-1.948 4.4119-2.2919.34399-.08533.68665-.2 1.0306-.34399zm4.1826-3.4346c0-1.2053.056-2.9239-.40266-4.0386-1.088-2.5786-3.8652-2.9799-6.3265-2.9799-3.3519 0-6.1305 1.432-6.3318 5.1279h3.8972c-.0587-1.4613 1.4306-1.8626 2.6039-1.8626.88798 0 2.2626.22933 2.2626 1.3733 0 1.06-1.5466 1.1173-2.2906 1.232-3.2079.45732-7.3025.83065-7.3025 5.0412 0 3.0053 2.2906 4.7812 5.1545 4.7812 2.1186 0 3.0359-.62798 4.6679-1.776l.0293 1.3466h4.0412zm15.661 3.7132c0-3.7239-3.6626-4.3826-6.5252-4.9812-.77331-.17466-2.5199-.37466-2.5199-1.432 0-1.06 1.2613-1.204 2.0613-1.204.80264 0 1.716.28666 2.2319.94531.22933.28666.31599.85998.37199 1.2013l3.9506-.20133c-.172-3.6319-3.2332-5.0359-6.4972-5.0359-3.0053 0-6.1852 1.2026-6.1852 4.6945 0 5.9252 8.8184 3.7786 8.8184 6.4425 0 1.172-1.2013 1.3733-2.1173 1.3733-1.8906 0-2.8933-.54532-3.1479-2.4613l-4.0092.14c0 .48799.0267.88798.14266 1.376.74399 3.0639 3.8932 4.1212 6.7278 4.1212 3.2346 0 6.6972-1.1426 6.6972-4.9785m-31.747 4.5519h-4.2079v-20.213h4.2079zm-11.337 0v-8.3038c0-.94531.0573-2.0893-.71465-2.7759-.40133-.37332-.94531-.51599-1.4906-.51599-.62799 0-1.1426.172-1.6306.57332-1.0026.83065-.94397 2.2306-.94397 3.4052v7.6171h-4.1812v-20.213h4.1812v6.8985c.65598-1.1746 2.7759-1.8626 4.0346-1.8626.97598 0 2.148.26133 2.9493.83065 1.7186 1.232 2.0026 2.8933 2.0026 4.8705v9.4758zm-24.249 0v-3.1506l7.3292-8.1878h-6.4985v-3.4919h11.738v3.4066l-7.1012 7.9291h7.5865v3.4946zm-37.184-21.087h-5.0479l-2.0533 4.2732h3.2732zm1.7733 6.2412h-4.4679l-2.4599 9.9931-2.6919-9.9931h-4.5799l4.2919 12.024c.22933.65865.60132 1.404.60132 2.1199 0 .48666-.22799 1.2-.62798 1.516-.40266.31733-1.2893.37199-1.7773.37199-.37199 0-.74265-.02667-1.1146-.02667v3.3212c.37199 0 .74265.056 1.1146.056 1.8333 0 4.1532.11466 5.4105-1.46.60265-.77331 1.0906-2.2626 1.4053-3.2066z"/><path d="m94.653 36.764c1.9293-2.4639 2.6439-5.7172 2.6439-8.7798 0-2.1159-.42266-4.5799-1.3213-6.4998-3.0679-6.3812-8.7798-7.2958-15.208-7.2958h-16.353v42.495h9.6198v-14.678h6.3985l8.8438 14.678h10.664l-9.7571-16.189c1.6226-.77998 3.1106-1.9413 4.4692-3.7306m-6.9118-8.7264c0 2.4053-1.148 4.4559-3.3652 5.4825-1.4426.64932-3.6746.64932-5.2332.64932-1.6813 0-3.4226-.06533-5.1079-.06533v-12.153h4.6306c2.7639 0 5.8959-.10933 7.8091 2.3053.84531 1.0746 1.2666 2.3906 1.2666 3.7812m44.531 15.658v-1.5c0-9.6478-4.9372-17.584-15.342-17.584-9.5824 0-15.774 7.1572-15.774 16.493 0 9.5784 5.8998 16.488 15.774 16.488 6.8585 0 12.753-3.2266 14.988-9.9238l-8.9131-.60398c-1.3213 2.3533-3.0759 3.3106-5.8478 3.3106-4.0892 0-6.1918-2.8226-6.7318-6.6798zm-21.795-6.7438c.95864-3.5559 2.8973-5.3612 6.6798-5.3612 3.1972 0 5.4879 2.2279 5.7839 5.3612zm46.824-11.438v4.0826c-2.3519-3.2373-4.8266-4.9305-8.9798-4.9305-8.4891 0-13.054 7.4731-13.054 15.232 0 7.8865 4.7439 14.825 13.178 14.825 3.1346 0 6.8012-1.208 8.7318-3.8666-.056.42666-.056.84664-.056 1.2626 0 4.5759-.53998 7.8331-5.9638 7.8331-2.1679 0-4.2186-.71865-5.0545-2.8986h-9.3998c.66931 7.6385 7.1052 9.8771 13.785 9.8771 5.6039 0 11.93-1.388 14.334-7.1038.90797-2.1533 1.0226-4.6172 1.0226-6.9785v-27.334zm-.24533 13.786c0 4.1532-2.1066 7.8798-6.6198 7.8798-4.3332 0-6.4985-3.5986-6.4985-7.5785 0-4.0879 2.3426-7.6398 6.7425-7.6398 4.2039 0 6.3758 3.4199 6.3758 7.3385m23.645-13.786h-8.7958v31.179h8.7958zm0-11.325h-8.7958v8.0171h8.7958zm34.138 42.506v-19.144c0-4.2212-.58265-8.0025-4.1492-10.718-1.8466-1.436-4.2066-2.0399-6.5732-2.0399-3.5892 0-6.4292 1.5666-8.5811 4.3332v-3.6119h-8.6744v31.181h8.9078v-17.273c0-3.3079 1.152-7.0305 5.3519-7.0305 3.4919 0 4.6439 2.9266 4.6439 5.9412v18.362zm24.609-10.104c-2.2733 3.9706-6.6225 4.0306-7.2812 4.0306-1.788 0-4.1532-.78665-4.1532-3.3719 0-4.0292 6.8118-4.0919 9.2864-4.7625.76665-.17733 1.3253-.42132 2.148-.71332zm8.8024-7.2318c0-2.5279.13467-6.1425-.83998-8.4945-2.2879-5.4225-8.1331-6.2518-13.32-6.2518-7.0225 0-12.876 3.0026-13.285 10.768h8.1825c-.12667-3.0613 2.9999-3.9039 5.4905-3.9039 1.852 0 4.7439.48266 4.7439 2.8839 0 2.2306-3.2572 2.3413-4.8199 2.5919-6.7478.95331-15.346 1.7373-15.346 10.601 0 6.3225 4.7972 10.04 10.83 10.04 4.4692 0 6.3878-1.308 9.8344-3.7172l.0373 2.8186h8.5011z"/><path d="m274.65 14.191v42.49h13.636c3.7426 0 7.5358-.13466 11.026-1.568 7.8118-3.2626 11.298-11.546 11.298-19.621 0-6.6732-2.1013-13.598-7.6891-17.749-4.2092-3.1279-9.2011-3.5519-14.25-3.5519zm9.5091 7.9465h2.5639c2.7653 0 6.3305 0 8.7944 1.336 3.9679 2.0986 4.9425 7.5678 4.9425 11.606 0 13.417-6.8692 13.718-13.481 13.718h-2.8199zm52.212-7.9465h-10.893l-14.436 42.49h10.644l2.7133-9.0264h13.585l2.7666 9.0264h10.713zm-9.7478 25.695 4.3879-16.365 4.6399 16.365zm28.653 16.794h19.917c6.2518 0 14.732-2.4133 14.732-12.51 0-6.6252-4.7972-9.3944-7.0972-10.29 1.5653-.48799 6.0212-2.9479 6.0212-8.7318 0-8.0598-6.2532-10.957-14.325-10.957h-19.248zm9.5104-34.543h8.2971c2.7186 0 6.3332.42532 6.3332 4.3972 0 3.7946-3.5132 4.0226-6.7398 4.0226h-7.8905zm0 16.066h8.7344c2.7653 0 6.7185.54399 6.7185 5.2332 0 3.8572-2.8199 5.4212-7.8171 5.4212h-7.6358zm49.329-24.013v42.49h9.6424v-14.69h6.0758c5.7705 0 10.713-.18133 14.549-5.2332 1.9253-2.4573 2.6439-5.7159 2.6439-8.7704 0-2.1199-.41199-4.5759-1.328-6.5038-3.0453-6.3812-8.7718-7.2918-15.204-7.2918zm9.6424 7.7665h4.9172c3.4892 0 8.7918.18 8.7918 6.0772 0 5.1132-3.9612 6.1385-7.7158 6.1385h-5.9932zm35.87 3.5546h-8.6718v31.169h9.0824v-15.342c0-3.7306.71865-8.4225 7.0945-8.4225.80131 0 1.2546.05333 2.096.176v-8.0558c-.75732-.12666-1.1253-.12666-1.5546-.12666-3.7972 0-6.3598 1.3813-8.0465 5.7145zm31.303 21.049c-2.3066 3.9772-6.6372 4.0399-7.2785 4.0399-1.8146 0-4.1506-.78398-4.1506-3.3692 0-4.0412 6.7945-4.0906 9.2598-4.7505.78931-.18666 1.3213-.42532 2.1693-.72532zm8.7758-7.2132c0-2.5213.12533-6.1398-.84531-8.4811-2.2786-5.4212-8.1358-6.2572-13.284-6.2572-7.0545 0-12.888 3.0013-13.297 10.768h8.1771c-.13333-3.0653 2.9919-3.9119 5.4865-3.9119 1.8306 0 4.7346.47466 4.7346 2.8853 0 2.2319-3.2506 2.3426-4.8172 2.5853-6.7425.96798-15.333 1.7466-15.333 10.59 0 6.3292 4.8199 10.045 10.822 10.045 4.4626 0 6.3825-1.304 9.8144-3.7159l.052 2.8253h8.4944zm33.846 17.333v-20.037c0-5.4159-1.9213-11.852-10.409-11.852-2.6666 0-7.0932 1.4386-8.5145 3.9119v-14.513h-8.7558v42.49h8.7558v-16.189c0-3.1293.21333-8.1798 5.4425-8.1798 4.5079 0 4.6372 4.0266 4.6372 6.9252v17.444zm24.742-10.12c-2.3079 3.9772-6.6385 4.0399-7.3025 4.0399-1.7933 0-4.1532-.78398-4.1532-3.3692 0-4.0412 6.8145-4.0906 9.2811-4.7505.79464-.18666 1.3253-.42532 2.1746-.72532zm8.7758-7.2132c0-2.5213.12533-6.1398-.84931-8.4811-2.2813-5.4212-8.1118-6.2572-13.278-6.2572-7.0572 0-12.896 3.0013-13.306 10.768h8.1838c-.13466-3.0653 2.9919-3.9119 5.4825-3.9119 1.8386 0 4.7386.47466 4.7386 2.8853 0 2.2319-3.2492 2.3426-4.8199 2.5853-6.7398.96798-15.328 1.7466-15.328 10.59 0 6.3292 4.8199 10.045 10.814 10.045 4.4612 0 6.3905-1.304 9.8184-3.7159l.052 2.8253h8.4971z"/></g></g></svg>