<svg height="216.99998" viewBox="0 0 633.02041 203.43749" width="675.22174" xmlns="http://www.w3.org/2000/svg"><g fill="#000f37" transform="translate(104.81787 -642.67808)"><path d="m195.14738 782.25069v-62.51474h-13.19226v19.65524c-3.19052-2.65279-6.82147-4.15843-10.9799-4.15843-13.90412 0-20.19297 12.03999-20.19297 24.52553 0 11.69175 6.55516 23.64467 19.5733 23.64467 4.69104 0 9.47426-1.41857 12.12705-5.58213v4.42986zm-12.75184-22.66652c0 6.01743-1.5927 13.01302-8.94165 13.01302-7.52819 0-9.3872-7.16971-9.3872-13.45857 0-5.75625 2.21237-13.19226 9.20796-13.19226 7.61525 0 9.12089 7.43601 9.12089 13.63781m-38.94688-2.84228c0-3.72313.17924-9.03895-1.23934-12.49066-3.36464-7.97374-11.95805-9.21307-19.57842-9.21307-10.36023 0-18.95364 4.42985-19.57331 15.8553h12.04511c-.17412-4.51692 4.42986-5.75626 8.0608-5.75626 2.74498 0 7.00071.70673 7.00071 4.25062 0 3.27758-4.78322 3.45682-7.08777 3.81019-9.9198 1.41857-22.5897 2.56573-22.5897 15.58899 0 9.30014 7.08777 14.79009 15.94748 14.79009 6.55516 0 9.3872-1.94607 14.43672-5.48995l.0871 4.16355 12.49578-.005zm-12.93108 10.62653c-2.21749 3.81019-6.38104 5.9355-10.71872 5.9355-3.01128 0-6.10961-1.41858-6.10961-4.87028 0-5.9355 9.47425-6.02256 13.63781-7.08777 1.06521-.26631 2.1253-.61967 3.19052-1.06522zm74.36012-47.63247h12.92596v11.77881h-12.92596zm0 16.64397h12.92596v45.87077h-12.92596zm42.85949 47.19717c-14.34453 0-23.28619-9.91469-23.28619-23.99292 0-14.87715 9.64838-24.53065 24.52553-24.53065 14.07824 0 22.93283 10.36023 22.93283 24.0851 0 14.17042-9.91469 24.43847-24.17217 24.43847m.61967-38.07628c-7.88156 0-10.53947 6.72928-10.53947 13.55075 0 6.64222 2.48379 13.89899 10.36023 13.89899 8.0608 0 10.36023-7.52307 10.36023-14.34454 0-6.55004-2.47867-13.1052-10.18099-13.1052m-157.912835 7.3848c2.837156-3.63607 3.90237-8.42441 3.90237-12.94644 0-3.10346-.619668-6.73441-1.951185-9.57157-4.522038-9.39744-12.941325-10.72895-22.425825-10.72895h-24.115828v62.58643h14.185781v-21.63203h8.951894.491637l13.043749 21.63203h15.706783l-14.385508-23.84952c2.386488-1.14203 4.593735-2.86276 6.596132-5.48995m-10.191229-12.85426c0 3.54388-1.684882 6.56028-4.967584 8.06592-2.125307.97303-5.408009.97303-7.712558.97303-2.478671 0-5.049524-.0871-7.533316-.0871v-17.90891h6.826587c4.076492 0 8.68559-.17412 11.522747 3.36977 1.239335 1.59782 1.864124 3.54388 1.864124 5.58725"/><path d="m0 0h19.067l2.933-4.769h-22zm0 7.451v-4.735h17.396l-2.913 4.735zm18.662 2.716h-18.662v4.744h19.913c.009-.186.014-.374.012-.566-.016-1.765-.439-3.126-1.263-4.178m-9.087 12.22h-9.575v-4.761h19.317c-1.396 3.253-5.071 4.761-9.742 4.761" transform="matrix(5.1212491 0 0 -5.1212491 -104.34912 757.79623)"/><path d="m0 0h-1.413l-.759.959h1.111l.367-.556.351.556h1.128zm28.268-4.118c0-.633-.215-1.332-.963-1.332-.732 0-.963.674-.963 1.291 0 .633.248 1.258.979 1.258.716 0 .947-.608.947-1.217m1.242-.049c0 1.275-.823 2.237-2.13 2.237-1.383 0-2.279-.897-2.279-2.279 0-1.308.831-2.229 2.163-2.229 1.324 0 2.246.955 2.246 2.271m-4.606 1.077v1.102c-.074.009-.14.017-.215.017-.575 0-.896-.247-1.101-.782v.7h-1.185v-4.261h1.242v1.39c0 .214 0 .436.009.65.016.691.115 1.209.962 1.209.099 0 .189-.008.288-.025m-9.246-3.224-1.759 2.649 1.644 1.612h-1.571l-1.316-1.456v3.002h-1.209v-5.807h1.209v1.415l.395.395 1.069-1.81zm-4.835 1.307c0 1.07-1.054 1.26-1.876 1.432-.222.049-.724.107-.724.411 0 .305.362.346.592.346.231 0 .493-.083.642-.272.066-.082.09-.246.107-.345l1.135.057c-.049 1.045-.93 1.448-1.867 1.448-.864 0-1.777-.345-1.777-1.349 0-1.703 2.533-1.086 2.533-1.851 0-.337-.345-.394-.608-.394-.543 0-.831.156-.905.707l-1.152-.041c0-.14.008-.255.041-.395.214-.881 1.119-1.185 1.934-1.185.929 0 1.925.33 1.925 1.431m-5.528 1.391h-1.703c.132.485.395.732.913.732.436 0 .749-.304.79-.732m1.275-.922v.206c0 1.316-.675 2.402-2.098 2.402-1.308 0-2.155-.979-2.155-2.254 0-1.308.806-2.254 2.155-2.254.938 0 1.744.445 2.048 1.357l-1.217.083c-.181-.321-.419-.452-.798-.452-.559 0-.847.386-.921.912zm-4.516.165-1.357.09c-.008-.658-.625-1.069-1.242-1.069-.329 0-.642.107-.897.313-.493.412-.592 1.061-.592 1.661 0 .963.387 1.917 1.489 1.917.452 0 .855-.173 1.085-.584.05-.099.099-.198.124-.304l1.308.09c-.016.14-.058.264-.099.395-.345 1.028-1.373 1.497-2.402 1.497-1.817 0-2.912-1.242-2.912-3.019 0-1.217.576-2.41 1.753-2.871.361-.139.756-.188 1.143-.188.946 0 1.826.345 2.311 1.192.157.271.255.576.288.88m41.398-.558c-.205-.354-.592-.552-.995-.552-.28 0-.568.133-.568.454 0 .551.881.559 1.267.658.099.024.197.057.296.098zm1.202.987c0 .346.016.84-.116 1.16-.313.741-1.111.857-1.817.857-.963 0-1.762-.412-1.82-1.474h1.12c-.016.42.411.535.749.535.255 0 .65-.065.65-.395 0-.304-.445-.321-.659-.353-.921-.132-2.098-.239-2.098-1.449 0-.863.658-1.374 1.482-1.374.608 0 .872.181 1.341.511l.008-.387h1.161zm4.5-1.067c0 1.07-1.052 1.259-1.875 1.431-.222.05-.724.107-.724.412 0 .304.362.345.592.345.231 0 .494-.082.642-.271.065-.082.09-.247.107-.346l1.135.058c-.05 1.045-.929 1.448-1.867 1.448-.864 0-1.777-.346-1.777-1.349 0-1.703 2.533-1.086 2.533-1.851 0-.337-.344-.395-.609-.395-.542 0-.831.156-.904.707l-1.152-.04c0-.14.009-.256.041-.395.214-.881 1.119-1.185 1.933-1.185.93 0 1.925.329 1.925 1.431m-9.122-1.308h-1.209v5.807h1.209zm-3.257 0v2.386c0 .271.017.6-.205.798-.116.107-.272.148-.428.148-.181 0-.329-.05-.469-.165-.289-.239-.271-.641-.271-.978v-2.189h-1.201v5.808h1.201v-1.983c.188.338.797.535 1.159.535.281 0 .617-.074.847-.239.494-.353.576-.83.576-1.398v-2.723zm-6.967 0v .906l2.106 2.351h-1.867v1.004h3.372v-.979l-2.04-2.278h2.18v-1.004zm-10.683 6.059h-1.451l-.59-1.228h.941zm.509-1.793h-1.283l-.707-2.871-.774 2.871h-1.316l1.234-3.455c.066-.189.173-.403.173-.609 0-.14-.066-.345-.181-.436-.116-.09-.371-.107-.511-.107-.106 0-.213.008-.32.008v-.954c.107 0 .214-.016.32-.016.527 0 1.193-.033 1.555.419.173.222.313.65.403.921z" transform="matrix(5.1212491 0 0 -5.1212491 61.235739 806.60992)"/><g transform="matrix(.93705328 0 0 .93705328 -115.07539 604.39337)"><path d="m448 123c9.01.03 18.02-.07 27.03.04 6.22.17 13 .85 17.9 5.12 6.09 5.32 7.69 14.18 6.26 21.85-1.18 7.44-6.97 14.04-14.36 15.79-7.08 1.63-14.39.71-21.58.96l-.01 22.99-15.23.01zm15.24 12.52.01 18.72c5.35039 0 10.79385.35891 15.94-1.02 6.71-2.35 7.22-13.4.73-16.33-3.54276-1.83336-11.13997-1.37-16.68-1.37z"/><path d="m590.24 123.01h14.01l-.13 22.16c5.83-5.78 15.67-7.37 22.81-3.15 5.38 3.27 6.85 10.05 6.98 15.91.2 10.61.04 21.22.08 31.83l-14.23-.01c-.09-10.27.12-20.54-.09-30.8-.01-3.66-2.64-7.62-6.69-7.24-4.85-.68-8.35 3.89-8.42 8.36-.71 9.87-.11 19.79-.32 29.68h-13.99z"/><path d="m546.03 142c7.27-3.56 15.89-3.19 23.58-1.34 6.24 1.64 10.91 7.43 10.97 13.93.4 11.71.06 23.44.17 35.16h-13.5v-4.28c-6.98 5.86-17.62 7.95-25.6 2.9-8.44-5.05-9.47-19.31-1.02-24.8 6.89-4.46 15.45-3.95 23.14-5.88 3.01-.56 3.41-4.88.71-6.16-4.76-2.48-13.54-1.65-14.03 4.99l-12.98-.01c.25-5.89 3.15-11.79 8.56-14.51m5.05 29.12c-2.89 1.93-2.39 6.85.89 8.12 5.39 2.18 11.79-.68 14.84-5.4l-.06-7.19c-5.12 1.86-11.05 1.34-15.67 4.47z"/><path d="m650.61 142.68c6.9-4.14 15.5-3.86 23.15-2.43 6.13 1.15 11.99 6.11 12.22 12.67l.01 36.84-12.94.01-.14-4.18c-3.18 1.97-6.29 4.31-10.03 5.07-6.03 1.26-12.96.4-17.64-3.9-7.13-6.45-6.27-20.44 3.14-24.35 6.17-2.98 13.16-3.09 19.78-4.34 1.57-.35 3.86-1.12 3.84-3.08.43-2.88-2.75-4.3-5.11-4.54-4.43-.85-10.32.8-10.84 6.03h-12.93c.44-5.39 2.69-10.9 7.49-13.8m6.35 28.31c-3.18 1.86-2.56 6.94.79 8.26 5.21 2.08 11.9-.52 14.58-5.41l.18-7.19c-5.07 1.84-10.93 1.33-15.55 4.34z"/><path d="m524.67 141.72c2.95-1.97 6.66-2.03 10.09-1.83l-.03 12.88c-3.65-.33-7.81-.46-10.73 2.12-2.86 2.46-3.51 6.48-3.51 10.06l.04 24.75-14.52.06v-49.01h13.75l-.11 7.27c1.31-2.35 2.68-4.83 5.02-6.3z"/></g></g></svg>