<svg height="99.791245" viewBox="0 0 246.36932 99.791245" width="246.36932" xmlns="http://www.w3.org/2000/svg"><g fill="#85248f"><path d="m0 0c0 1.905.091 4.627-.635 6.396-1.724 4.082-6.123 4.717-10.024 4.717-5.307 0-9.707-2.268-10.024-8.119h6.168c-.09 2.313 2.268 2.948 4.128 2.948 1.406 0 3.583-.363 3.583-2.177 0-1.679-2.449-1.769-3.628-1.951-5.081-.725-11.567-1.315-11.567-7.983 0-4.762 3.629-7.575 8.165-7.575 3.356 0 4.808.998 7.393 2.813l.045-2.132 6.4.001zm-6.622-5.443c-1.134-1.95-3.266-3.039-5.489-3.039-1.542 0-3.129.726-3.129 2.495 0 3.039 4.853 3.084 6.985 3.628.544.136 1.088.318 1.633.545zm-118.064 24.268c3.795 0 7.544-.316 10.707-2.666 4.201-3.117 5.782-8.312 5.782-13.327 0-6.054-2.62-12.288-8.493-14.728-2.62-1.084-5.466-1.174-8.267-1.174h-10.256v31.895zm-3.389-25.977h2.124c4.969 0 10.119.226 10.119 10.3 0 3.027-.722 7.138-3.704 8.719-1.852.994-4.518.994-6.596.994h-1.943zm35.871-5.918h-6.37l-8.087 23.401h7.093l4.292-14.501 3.885 14.501h7.047zm20.059-.678c-7.319 0-11.882 5.06-11.882 12.243 0 7.59 4.925 12.514 12.514 12.514 7.183 0 11.701-5.286 11.701-12.288 0-7.228-5.06-12.469-12.333-12.469zm.316 19.426c-4.021 0-5.376-3.433-5.376-6.912 0-3.388 1.265-7.093 5.286-7.093 4.111 0 5.285 3.84 5.285 7.319 0 3.343-1.264 6.686-5.195 6.686zm22.137 7.229h-6.5959v5.9182h6.5959zm0-2.576v-24.124c0-5.421-3.027-6.732-7.861-6.732h-2.711v5.602h.226c1.897 0 3.75.046 3.75 2.485v22.769zm27.061 0-9.036-8.854 9.668-14.547h-8.448l-5.873 9.939-2.168-2.169v-7.77h-6.642v31.895h6.642v-16.49l7.228 7.996z" transform="matrix(1.3333333 0 0 -1.3333333 244.535994 39.273335)"/><path d="m0 0h29.854l4.593-7.467h-34.447zm0 11.667v-7.415h27.237l-4.56 7.415zm29.22 4.252h-29.22v7.428h31.178c.015-.291.023-.585.02-.886-.026-2.764-.687-4.895-1.978-6.542m-14.229 19.133h-14.991v-7.453h30.245c-2.185 5.092-7.94 7.453-15.254 7.453" transform="matrix(1.3333333 0 0 -1.3333333 0 46.736002)"/><path d="m0 0h-3.351l-1.845-7.494-2.019 7.494h-3.436l3.22-9.018c.172-.494.452-1.052.452-1.589 0-.365-.172-.901-.472-1.138-.302-.237-.967-.28-1.333-.28-.278 0-.557.022-.836.022v-2.492c.279 0 .558-.042.836-.042 1.375 0 3.115-.087 4.058 1.095.452.58.818 1.697 1.054 2.405zm-1.33 4.681h-3.786l-1.54-3.204h2.455zm27.889-15.815v2.362l5.497 6.14h-4.875v2.621h8.805v-2.555l-5.326-5.948h5.691v-2.62zm18.187 0v6.227c0 .709.043 1.568-.536 2.083-.301.279-.709.386-1.118.386-.471 0-.857-.128-1.223-.429-.752-.623-.708-1.675-.708-2.555v-5.712h-3.136v15.16h3.136v-5.175c.493.88 2.082 1.396 3.027 1.396.731 0 1.61-.194 2.212-.623 1.288-.923 1.501-2.169 1.501-3.651v-7.107zm8.503 0h-3.156v15.16h3.156zm23.812 3.414c0 2.792-2.748 3.286-4.895 3.736-.58.13-1.889.28-1.889 1.074s.945.901 1.545.901c.602 0 1.288-.214 1.675-.708.171-.214.236-.644.279-.901l2.963.15c-.129 2.726-2.426 3.779-4.874 3.779-2.254 0-4.639-.902-4.639-3.521 0-4.445 6.614-2.836 6.614-4.832 0-.88-.9-1.031-1.588-1.031-1.418 0-2.169.408-2.362 1.847l-3.006-.107c0-.365.02-.666.107-1.03.558-2.299 2.92-3.093 5.045-3.093 2.427 0 5.025.859 5.025 3.736m-11.747 2.785c0 .903.042 2.192-.302 3.029-.816 1.934-2.899 2.235-4.745 2.235-2.514 0-4.598-1.074-4.748-3.846h2.922c-.044 1.095 1.073 1.396 1.954 1.396.665 0 1.696-.171 1.696-1.03 0-.795-1.16-.838-1.718-.923-2.406-.344-5.477-.624-5.477-3.782 0-2.254 1.718-3.587 3.866-3.587 1.589 0 2.278.473 3.501 1.333l.022-1.009h3.031zm-3.137-2.576c-.537-.924-1.547-1.44-2.599-1.44-.731 0-1.483.344-1.483 1.182 0 1.439 2.3 1.46 3.309 1.718.258.064.515.15.773.257zm-108.07 1.456-3.542.236c-.022-1.718-1.632-2.79-3.242-2.79-.86 0-1.676.278-2.341.815-1.288 1.074-1.546 2.77-1.546 4.338 0 2.512 1.009 5.002 3.887 5.002 1.18 0 2.233-.45 2.833-1.525.13-.257.258-.515.323-.794l3.414.236c-.043.366-.151.688-.258 1.03-.901 2.685-3.585 3.909-6.27 3.909-4.745 0-7.6-3.242-7.6-7.881 0-3.178 1.503-6.291 4.573-7.493.944-.365 1.975-.493 2.985-.493 2.469 0 4.766.902 6.033 3.113.408.708.666 1.503.751 2.297m11.789-.43v.538c0 3.434-1.761 6.27-5.476 6.27-3.414 0-5.625-2.555-5.625-5.884 0-3.415 2.103-5.883 5.625-5.883 2.448 0 4.553 1.159 5.347 3.542l-3.178.215c-.473-.838-1.095-1.18-2.082-1.18-1.461 0-2.213 1.009-2.406 2.382zm-3.328 2.405h-4.446c.344 1.267 1.031 1.912 2.385 1.912 1.137 0 1.953-.794 2.061-1.912m14.429-3.628c0 2.792-2.749 3.286-4.896 3.736-.58.129-1.89.28-1.89 1.074s.945.901 1.546.901c.602 0 1.288-.214 1.675-.708.172-.215.236-.644.279-.902l2.964.151c-.129 2.726-2.427 3.779-4.875 3.779-2.254 0-4.638-.903-4.638-3.522 0-4.445 6.614-2.835 6.614-4.832 0-.88-.902-1.03-1.59-1.03-1.416 0-2.168.408-2.361 1.847l-3.006-.107c0-.366.021-.666.107-1.031.558-2.299 2.92-3.092 5.046-3.092 2.426 0 5.025.859 5.025 3.736m12.624-3.414-4.594 6.914 4.294 4.208h-4.101l-3.435-3.8v7.837h-3.157v-15.159h3.157v3.693l1.03 1.031 2.792-4.724zm24.134 8.417v2.877c-.192.022-.364.042-.558.042-1.502 0-2.34-.643-2.877-2.038v1.824h-3.092v-11.122h3.243v3.628c0 .559 0 1.138.021 1.697.043 1.803.301 3.156 2.513 3.156.257 0 .493-.021.75-.064m12.025-2.813c0 3.328-2.147 5.841-5.561 5.841-3.608 0-5.948-2.341-5.948-5.949 0-3.414 2.169-5.818 5.646-5.818 3.458 0 5.863 2.491 5.863 5.926m-3.242.129c0-1.653-.559-3.478-2.512-3.478-1.912 0-2.514 1.76-2.514 3.371 0 1.653.645 3.285 2.555 3.285 1.869 0 2.471-1.589 2.471-3.178m-73.792 10.749h-3.688l-1.982 2.504h2.901l.958-1.452.914 1.452h2.945z" transform="matrix(1.3333333 0 0 -1.3333333 143.62133 80.406667)"/></g></svg>