<svg id="a" version="1.1" viewBox="0 0 524.65 58.599" xml:space="preserve" xmlns="http://www.w3.org/2000/svg"><g id="b" transform="matrix(1.3333 0 0 -1.3333 -75.591 204.48)"><g id="c" transform="matrix(.58721 0 0 .58721 56.693 132.77)"><path id="d" d="m0 0h29.854l4.593-7.467h-34.447zm0 11.667v-7.415h27.237l-4.56 7.415zm29.22 4.252h-29.22v7.428h31.178c0.015-0.291 0.023-0.585 0.02-0.886-0.026-2.764-0.687-4.895-1.978-6.542m-14.229 19.133h-14.991v-7.453h30.245c-2.185 5.092-7.94 7.453-15.254 7.453" fill="#00ab96"/></g><g id="e" transform="matrix(.58721 0 0 .58721 98.339 137.16)"><path id="f" d="m0 0c1.444 1.853 1.985 4.292 1.985 6.596 0 1.582-0.316 3.434-0.992 4.88-2.302 4.79-6.589 5.467-11.417 5.467h-12.274v-31.899h7.22v11.025h4.806l6.641-11.025h7.996l-7.323 12.156c1.215 0.582 2.338 1.459 3.358 2.8zm-5.19 6.552c0-1.808-0.857-3.344-2.527-4.112-1.083-0.498-2.752-0.498-3.925-0.498-1.264 0-2.572 0.046-3.836 0.046v9.127h3.474c2.076 0 4.423 0.09 5.867-1.717 0.631-0.813 0.947-1.808 0.947-2.846zm33.7-11.756v1.13c0 7.232-3.706 13.198-11.526 13.198-7.187 0-11.842-5.379-11.842-12.385 0-7.186 4.429-12.384 11.842-12.384 5.153 0 9.583 2.44 11.255 7.458l-6.69 0.452c-0.994-1.763-2.305-2.486-4.384-2.486-3.074 0-4.656 2.124-5.062 5.017zm-16.362 5.062c0.723 2.667 2.169 4.023 5.017 4.023 2.396 0 4.113-1.672 4.339-4.023zm35.12 8.588v-3.073c-1.763 2.44-3.616 3.706-6.735 3.706-6.373 0-9.808-5.605-9.808-11.436 0-5.921 3.571-11.119 9.899-11.119 2.35 0 5.107 0.904 6.554 2.893-0.046-0.316-0.046-0.633-0.046-0.949 0-3.435-0.406-5.876-4.474-5.876-1.628 0-3.164 0.542-3.797 2.169h-7.051c0.497-5.74 5.333-7.412 10.35-7.412 4.204 0 8.95 1.039 10.758 5.333 0.678 1.627 0.769 3.481 0.769 5.243v20.521zm-0.181-10.351c0-3.118-1.582-5.921-4.972-5.921-3.254 0-4.881 2.712-4.881 5.695 0 3.074 1.762 5.741 5.062 5.741 3.164 0 4.791-2.577 4.791-5.515zm17.673 10.351h-6.5992v-23.414h6.5992zm0 8.498h-6.5992v-6.0116h6.5992zm27.617-20.114c0 7.006-4.52 12.294-11.706 12.294-7.594 0-12.521-4.927-12.521-12.52 0-7.187 4.565-12.249 11.888-12.249 7.277 0 12.339 5.243 12.339 12.475zm-6.825 0.271c0-3.48-1.175-7.322-5.288-7.322-4.023 0-5.289 3.706-5.289 7.096 0 3.48 1.356 6.916 5.379 6.916 3.933 0 5.198-3.345 5.198-6.69zm31.278-12.068v14.373c0 3.164-0.452 6.012-3.119 8.046-1.401 1.085-3.164 1.537-4.926 1.537-2.712 0-4.837-1.176-6.464-3.255v2.712h-6.509v-23.413h6.69v12.972c0 2.486 0.859 5.288 4.023 5.288 2.621 0 3.48-2.214 3.48-4.474v-13.786h6.825" fill="#00ab96"/></g><g id="g" transform="matrix(.58721 0 0 .58721 119.73 117.95)"><path id="h" d="m0 0h-3.351l-1.845-7.494-2.019 7.494h-3.436l3.22-9.018c0.172-0.494 0.452-1.052 0.452-1.589 0-0.365-0.172-0.901-0.472-1.138-0.302-0.237-0.967-0.28-1.333-0.28-0.278 0-0.557 0.022-0.836 0.022v-2.492c0.279 0 0.558-0.042 0.836-0.042 1.375 0 3.115-0.087 4.058 1.095 0.452 0.58 0.818 1.697 1.054 2.405zm-1.33 4.681h-3.786l-1.54-3.204h2.455zm27.889-15.815v2.362l5.497 6.14h-4.875v2.621h8.805v-2.555l-5.326-5.948h5.691v-2.62zm18.187 0v6.227c0 0.709 0.043 1.568-0.536 2.083-0.301 0.279-0.709 0.386-1.118 0.386-0.471 0-0.857-0.128-1.223-0.429-0.752-0.623-0.708-1.675-0.708-2.555v-5.712h-3.136v15.16h3.136v-5.175c0.493 0.88 2.082 1.396 3.027 1.396 0.731 0 1.61-0.194 2.212-0.623 1.288-0.923 1.501-2.169 1.501-3.651v-7.107zm8.503 0h-3.156v15.16h3.156zm23.812 3.414c0 2.792-2.748 3.286-4.895 3.736-0.58 0.13-1.889 0.28-1.889 1.074s0.945 0.901 1.545 0.901c0.602 0 1.288-0.214 1.675-0.708 0.171-0.214 0.236-0.644 0.279-0.901l2.963 0.15c-0.129 2.726-2.426 3.779-4.874 3.779-2.254 0-4.639-0.902-4.639-3.521 0-4.445 6.614-2.836 6.614-4.832 0-0.88-0.9-1.031-1.588-1.031-1.418 0-2.169 0.408-2.362 1.847l-3.006-0.107c0-0.365 0.02-0.666 0.107-1.03 0.558-2.299 2.92-3.093 5.045-3.093 2.427 0 5.025 0.859 5.025 3.736m-11.747 2.785c0 0.903 0.042 2.192-0.302 3.029-0.816 1.934-2.899 2.235-4.746 2.235-2.513 0-4.597-1.074-4.747-3.846h2.922c-0.044 1.095 1.073 1.396 1.954 1.396 0.665 0 1.696-0.171 1.696-1.03 0-0.795-1.16-0.838-1.718-0.923-2.406-0.344-5.477-0.624-5.477-3.782 0-2.254 1.718-3.587 3.866-3.587 1.589 0 2.278 0.473 3.501 1.333l0.022-1.009h3.031zm-3.137-2.576c-0.537-0.924-1.547-1.44-2.599-1.44-0.731 0-1.483 0.344-1.483 1.182 0 1.439 2.3 1.46 3.309 1.718 0.258 0.064 0.515 0.15 0.773 0.257zm-108.07 1.456-3.542 0.236c-0.022-1.718-1.632-2.79-3.242-2.79-0.86 0-1.676 0.278-2.341 0.815-1.288 1.074-1.546 2.77-1.546 4.338 0 2.512 1.009 5.002 3.887 5.002 1.18 0 2.233-0.45 2.833-1.525 0.13-0.257 0.258-0.515 0.323-0.794l3.414 0.236c-0.043 0.366-0.151 0.688-0.258 1.03-0.901 2.685-3.585 3.909-6.27 3.909-4.745 0-7.6-3.242-7.6-7.881 0-3.178 1.503-6.291 4.573-7.493 0.944-0.365 1.975-0.493 2.985-0.493 2.469 0 4.766 0.902 6.033 3.113 0.408 0.708 0.666 1.503 0.751 2.297m11.789-0.43v0.538c0 3.434-1.761 6.27-5.476 6.27-3.414 0-5.625-2.555-5.625-5.884 0-3.415 2.103-5.883 5.625-5.883 2.448 0 4.553 1.159 5.347 3.542l-3.178 0.215c-0.473-0.838-1.095-1.18-2.082-1.18-1.461 0-2.213 1.009-2.406 2.382zm-3.328 2.405h-4.446c0.344 1.267 1.031 1.912 2.385 1.912 1.137 0 1.953-0.794 2.061-1.912m14.429-3.628c0 2.792-2.749 3.286-4.896 3.736-0.58 0.129-1.89 0.28-1.89 1.074s0.945 0.901 1.546 0.901c0.602 0 1.288-0.214 1.675-0.708 0.172-0.215 0.236-0.644 0.279-0.902l2.964 0.151c-0.129 2.726-2.427 3.779-4.875 3.779-2.254 0-4.638-0.903-4.638-3.522 0-4.445 6.614-2.835 6.614-4.832 0-0.88-0.902-1.03-1.59-1.03-1.416 0-2.168 0.408-2.361 1.847l-3.006-0.107c0-0.366 0.021-0.666 0.107-1.031 0.558-2.299 2.92-3.092 5.046-3.092 2.426 0 5.025 0.859 5.025 3.736m12.624-3.414-4.594 6.914 4.294 4.208h-4.101l-3.435-3.8v7.837h-3.157v-15.159h3.157v3.693l1.03 1.031 2.792-4.724zm24.134 8.417v2.877c-0.192 0.022-0.364 0.042-0.558 0.042-1.502 0-2.34-0.643-2.877-2.038v1.824h-3.092v-11.122h3.243v3.628c0 0.559 0 1.138 0.021 1.697 0.043 1.803 0.301 3.156 2.513 3.156 0.257 0 0.493-0.021 0.75-0.064m12.025-2.813c0 3.328-2.147 5.841-5.561 5.841-3.608 0-5.948-2.341-5.948-5.949 0-3.414 2.169-5.818 5.646-5.818 3.458 0 5.863 2.491 5.863 5.926m-3.242 0.129c0-1.653-0.559-3.478-2.512-3.478-1.912 0-2.514 1.76-2.514 3.371 0 1.653 0.645 3.285 2.555 3.285 1.869 0 2.471-1.589 2.471-3.178m-73.792 10.749h-3.688l-1.982 2.504h2.901l0.958-1.452 0.914 1.452h2.945l-2.048-2.504" fill="#00ab96"/></g><path id="i" d="m176.69 138.87h4.5v-4.5h-4.5z" fill="#00ab96"/><g id="j" transform="matrix(.87559 0 0 .87559 199.59 92.131)" fill="#00ab96"><path id="k" d="m-9.8724 41.36v21.475h8.1006q2.1387 0 3.2666-0.20507 1.582-0.26368 2.6514-1.0107 1.0693-0.73242 1.7139-2.0654 0.65918-1.333 0.65918-2.9297 0-2.7393-1.7432-4.6436-1.7432-1.8896-6.2988-1.8896h-5.5078v-8.7305zm2.8418 11.265h5.5518q2.7539 0 3.9111 1.0254t1.1572 2.8857q0 1.3477-0.68848 2.2998-0.67383 0.9668-1.7871 1.2744-0.71777 0.19043-2.6514 0.19043h-5.4932z"/><path id="l" d="m9.8004 41.36v15.557h2.373v-2.3584q0.9082 1.6553 1.6699 2.1826 0.77637 0.52735 1.6992 0.52735 1.333 0 2.71-0.84961l-0.9082-2.4463q-0.9668 0.57129-1.9336 0.57129-0.86426 0-1.5527-0.52735-0.68848-0.51269-0.98144-1.4355-0.43945-1.4062-0.43945-3.0762v-8.1445z"/><path id="m" d="m30.001 43.279q-1.4648-1.2451-2.8271-1.7578-1.3477-0.51269-2.9004-0.51269-2.5635 0-3.9404 1.2451-1.377 1.2598-1.377 3.208 0 1.1426 0.5127 2.0801 0.52734 0.95215 1.3623 1.5234 0.84961 0.57129 1.9043 0.86426 0.77637 0.20508 2.3438 0.39551 3.1934 0.38086 4.7021 0.9082 0.01465 0.542 0.01465 0.68848 0 1.6113-0.74707 2.2705-1.0107 0.89355-3.0029 0.89355-1.8604 0-2.7539-0.65918-0.87891-0.64454-1.3037-2.2998l-2.5781 0.35156q0.35156 1.6553 1.1572 2.666 0.80566 1.0254 2.3291 1.5674 1.5234 0.55664 3.5303 0.55664 1.9922 0 3.2373-0.46875t1.8311-1.1865q0.58594-0.70312 0.82031-1.7871 0.13184-0.67382 0.13184-2.4316v-3.5156q0-3.6768 0.16113-4.6582 0.17578-0.9668 0.67383-1.8604h-2.7539q-0.41016 0.82031-0.52734 1.9189zm-0.21973 5.8887q-1.4355-0.58594-4.3066-0.9961-1.626-0.23438-2.2998-0.52734-0.67383-0.29297-1.04-0.86426-0.36621-0.55664-0.36621-1.2451 0-1.0547 0.79102-1.7578 0.80566-0.70312 2.3438-0.70312 1.5234 0 2.71 0.65918 1.1865 0.67383 1.7432 1.8311 0.4248 0.89356 0.4248 2.6367z"/><path id="n" d="m36.548 41.36v21.475h2.6367v-7.7051q1.8457 2.1387 4.6582 2.1387 1.7285 0 3.0029-0.68848 1.2744-0.67383 1.8164-1.875 0.55664-1.2012 0.55664-3.4863v-9.8584h-2.6367v9.8584q0 1.9775-0.86426 2.8711-0.84961 0.9082-2.417 0.9082-1.1719 0-2.2119-0.61523-1.0254-0.60058-1.4648-1.6406-0.43945-1.04-0.43945-2.8711v-8.5107z"/><path id="o" d="m63.399 43.279q-1.4648-1.2451-2.8271-1.7578-1.3477-0.51269-2.9004-0.51269-2.5635 0-3.9404 1.2451-1.377 1.2598-1.377 3.208 0 1.1426 0.5127 2.0801 0.52734 0.95215 1.3623 1.5234 0.84961 0.57129 1.9043 0.86426 0.77637 0.20508 2.3438 0.39551 3.1934 0.38086 4.7021 0.9082 0.01465 0.542 0.01465 0.68848 0 1.6113-0.74707 2.2705-1.0107 0.89355-3.0029 0.89355-1.8604 0-2.7539-0.65918-0.87891-0.64454-1.3037-2.2998l-2.5781 0.35156q0.35156 1.6553 1.1572 2.666 0.80566 1.0254 2.3291 1.5674 1.5234 0.55664 3.5303 0.55664 1.9922 0 3.2373-0.46875t1.8311-1.1865q0.58594-0.70312 0.82031-1.7871 0.13184-0.67382 0.13184-2.4316v-3.5156q0-3.6768 0.16113-4.6582 0.17578-0.9668 0.67383-1.8604h-2.7539q-0.41016 0.82031-0.52734 1.9189zm-0.21973 5.8887q-1.4355-0.58594-4.3066-0.9961-1.626-0.23438-2.2998-0.52734-0.67383-0.29297-1.04-0.86426-0.36621-0.55664-0.36621-1.2451 0-1.0547 0.79102-1.7578 0.80566-0.70312 2.3438-0.70312 1.5234 0 2.71 0.65918 1.1865 0.67383 1.7432 1.8311 0.4248 0.89356 0.4248 2.6367z"/><path id="p" d="m88.419 43.279c-0.97656-0.83008-1.9189-1.416-2.8271-1.7578-0.89844-0.3418-1.8652-0.51269-2.9004-0.51269-1.709 0-3.0225 0.41504-3.9404 1.2451-0.91797 0.83984-1.377 1.9092-1.377 3.208 0 0.76172 0.1709 1.4551 0.5127 2.0801 0.35156 0.63476 0.80566 1.1426 1.3623 1.5234 0.56641 0.38086 1.2012 0.66894 1.9043 0.86426 0.51758 0.13672 1.2988 0.26856 2.3438 0.39551 2.1289 0.2539 3.6963 0.55664 4.7021 0.9082 0.0098 0.36133 0.01465 0.59082 0.01465 0.68848 0 1.0742-0.24902 1.8311-0.74707 2.2705-0.67383 0.5957-1.6748 0.89355-3.0029 0.89355-1.2402 0-2.1582-0.21972-2.7539-0.65918-0.58594-0.42969-1.0205-1.1963-1.3037-2.2998l-2.5781 0.35156c0.23438 1.1035 0.62012 1.9922 1.1572 2.666 0.53711 0.68359 1.3135 1.206 2.3291 1.5674 1.0156 0.3711 2.1924 0.55632 3.5303 0.55632 1.3281 0 2.4072-0.15592 3.2373-0.46842 0.83008-0.3125 1.4404-0.70801 1.8311-1.1865 0.39062-0.46875 0.66406-1.0645 0.82031-1.7871 0.08789-0.44922 0.13184-1.2598 0.13184-2.4316v-3.5156c0-2.4512 0.05371-4.0039 0.16113-4.6582 0.11719-0.64453 0.3418-1.2646 0.67383-1.8604h-2.7539c-0.27344 0.54688-0.44922 1.1865-0.52734 1.9189zm-0.21973 5.8887c-0.95703-0.39062-2.3926-0.72266-4.3066-0.9961-1.084-0.15625-1.8506-0.33203-2.2998-0.52734-0.44922-0.19532-0.7959-0.4834-1.04-0.86426-0.24414-0.37109-0.36621-0.78613-0.36621-1.2451 0-0.70312 0.26367-1.2891 0.79102-1.7578 0.53711-0.46875 1.3184-0.70312 2.3438-0.70312 1.0156 0 1.9189 0.21972 2.71 0.65918 0.79102 0.44922 1.3721 1.0596 1.7432 1.8311 0.2832 0.5957 0.4248 1.4746 0.4248 2.6367z"/><path id="q" d="m102.23 46.003 2.6074 0.41015q0.21972-1.5674 1.2158-2.4023 1.0107-0.83496 2.8125-0.83496 1.8164 0 2.6953 0.73242 0.8789 0.74707 0.8789 1.7432 0 0.89355-0.77636 1.4062-0.54199 0.35156-2.6953 0.89355-2.9004 0.73243-4.0283 1.2598-1.1133 0.542-1.6992 1.4795-0.57129 0.95215-0.57129 2.0947 0 1.04 0.46875 1.9189 0.4834 0.89356 1.3037 1.4795 0.61523 0.4541 1.6699 0.76172 1.0693 0.32227 2.2852 0.32227 1.831 0 3.208-0.52735 1.3916-0.52734 2.0508-1.4355 0.65917-0.89356 0.9082-2.4023l-2.5781-0.35156q-0.17578 1.2012-1.0254 1.875-0.83496 0.67382-2.373 0.67382-1.8164 0-2.5928-0.60058-0.77636-0.60058-0.77636-1.4062 0-0.51269 0.32226-0.92285 0.32227-0.4248 1.0107-0.70312 0.39551-0.14648 2.3291-0.67382 2.7979-0.74708 3.8965-1.2305 1.1133-0.46875 1.7432-1.377 0.62989-0.9082 0.62989-2.2559 0-1.3184-0.77637-2.4902-0.76172-1.1572-2.2119-1.8018-1.4502-0.62988-3.2812-0.62988-3.0322 0-4.6289 1.2598-1.582 1.2598-2.0215 3.7354z"/><path id="r" d="m124.04 43.718 0.38086-2.3291q-1.1133-0.23438-1.9922-0.23438-1.4356 0-2.2266 0.4541-0.79102 0.4541-1.1133 1.1865-0.32227 0.74708-0.32227 3.1201v8.9502h-1.9336v2.0508h1.9336v3.8525l2.6221 1.582v-5.4346h2.6514v-2.0508h-2.6514v-9.0967q0-1.1279 0.13184-1.4502 0.14648-0.32226 0.4541-0.51269 0.32226-0.19043 0.9082-0.19043 0.43945 0 1.1572 0.10254z"/><path id="s" d="m126.58 41.36v15.557h2.373v-2.3584q0.90821 1.6553 1.6699 2.1826 0.77636 0.52735 1.6992 0.52735 1.333 0 2.71-0.84961l-0.90821-2.4463q-0.96679 0.57129-1.9336 0.57129-0.86426 0-1.5527-0.52735-0.68847-0.51269-0.98144-1.4355-0.43945-1.4062-0.43945-3.0762v-8.1445zm3.6035 19.102 1.6113 2.4902h2.9883l-3.2959-4.1016h-2.8125l-3.1641 4.1016h3.0176z"/><path id="t" d="m147.28 46.369 2.7246-0.33692q-0.64453-2.3877-2.3877-3.7061-1.7432-1.3184-4.4531-1.3184-3.4131 0-5.4199 2.0947-1.9922 2.1094-1.9922 5.9033 0 3.9258 2.0215 6.0938t5.2441 2.168q3.1201 0 5.0977-2.124 1.9775-2.124 1.9775-5.9766 0-0.23438-0.0146-0.70312h-11.602q0.14649-2.5635 1.4502-3.9258 1.3037-1.3623 3.252-1.3623 1.4502 0 2.4756 0.76172t1.626 2.4316zm-8.6572 4.2627h8.6865q-0.17579 1.9629-0.9961 2.9443-1.2598 1.5234-3.2666 1.5234-1.8164 0-3.0615-1.2158-1.2305-1.2158-1.3623-3.252z"/><path id="u" d="m163.42 41.36v1.9629q-1.4795-2.3145-4.3506-2.3145-1.8604 0-3.4277 1.0254-1.5527 1.0254-2.417 2.8564-0.84961 1.8457-0.84961 4.2334 0 2.3291 0.77636 4.2188 0.77637 1.9043 2.3291 2.915 1.5527 1.0107 3.4717 1.0107 1.4062 0 2.5049-0.60058 1.0986-0.58594 1.7871-1.5381v7.7051h2.6221v-21.475zm-8.335 7.7637q0-2.9883 1.2598-4.4678t2.9736-1.4795q1.7285 0 2.9297 1.4062 1.2158 1.4209 1.2158 4.3213 0 3.1934-1.2305 4.6875t-3.0322 1.4941q-1.7578 0-2.9443-1.4355-1.1719-1.4355-1.1719-4.5264z"/><path id="v" d="m170.03 41.36v15.557h2.373v-2.2119q1.7139 2.5635 4.9512 2.5635 1.4062 0 2.5781-0.5127 1.1865-0.49804 1.7725-1.3184 0.58594-0.82031 0.82031-1.9482 0.14648-0.73243 0.14648-2.5635v-9.5654h-2.6367v9.4629q0 1.6113-0.30762 2.4023-0.30761 0.80566-1.0986 1.2744-0.77637 0.4834-1.8311 0.4834-1.6846 0-2.915-1.0693-1.2158-1.0693-1.2158-4.0576v-8.4961z"/><path id="w" d="m187.65 41.36v15.557h2.6367v-15.557zm-0.13184 17.49 1.9482 4.1016h3.457l-3.2227-4.1016z"/><path id="x" d="m219.02 48.889 2.8418-0.71777q-0.89356-3.501-3.2227-5.3467-2.3144-1.8311-5.669-1.8311-3.4717 0-5.6543 1.4062-2.168 1.4209-3.3106 4.1016-1.1279 2.6807-1.1279 5.7568 0 3.3545 1.2744 5.8447 1.2891 2.5049 3.6475 3.7939 2.373 1.3037 5.2148 1.3037 3.2227 0 5.4199-1.6406t3.0615-4.6143l-2.7979-0.65918q-0.74707 2.3438-2.168 3.4131-1.4209 1.0693-3.5742 1.0693-2.4756 0-4.1455-1.1865-1.6553-1.1865-2.3291-3.1934-0.67383-1.9922-0.67383-4.1162 0-2.7393 0.79102-4.79 0.80565-2.0361 2.4902-3.0469 1.6846-1.0107 3.6475-1.0107 2.3877 0 4.043 1.3769 1.6553 1.377 2.2412 4.0869zm-6.0498 16.787 1.6113 2.4902h2.9883l-3.2959-4.1016h-2.8125l-3.1641 4.1016h3.0176z"/><path id="y" d="m235.69 46.369 2.7246-0.33692q-0.64453-2.3877-2.3877-3.7061-1.7432-1.3184-4.4531-1.3184-3.4131 0-5.4199 2.0947-1.9922 2.1094-1.9922 5.9033 0 3.9258 2.0215 6.0938t5.2441 2.168q3.1201 0 5.0977-2.124 1.9775-2.124 1.9775-5.9766 0-0.23438-0.0146-0.70312h-11.602q0.14649-2.5635 1.4502-3.9258 1.3037-1.3623 3.252-1.3623 1.4502 0 2.4756 0.76172t1.626 2.4316zm-8.6572 4.2627h8.6865q-0.17578 1.9629-0.99609 2.9443-1.2598 1.5234-3.2666 1.5234-1.8164 0-3.0615-1.2158-1.2305-1.2158-1.3623-3.252z"/><path id="z" d="m251.9 47.058 2.5928-0.33692q-0.4248-2.6807-2.1826-4.2041-1.7432-1.5088-4.292-1.5088-3.1934 0-5.1416 2.0801-1.9336 2.0947-1.9336 5.9912 0 2.5195 0.83496 4.4092 0.83496 1.8896 2.5342 2.8271 1.7139 0.95215 3.7207 0.95215 2.5342 0 4.1455-1.2891 1.6113-1.2744 2.0654-3.6328l-2.5635-0.39551q-0.36621 1.5674-1.3037 2.3584-0.92286 0.79101-2.2412 0.79101-1.9922 0-3.2373-1.4355-1.2451-1.4209-1.2451-4.5117 0-3.1348 1.2012-4.5557t3.1348-1.4209q1.5527 0 2.5928 0.95215 1.04 0.95215 1.3184 2.9297z"/><path id="aa" d="m256.74 41.36v21.475h2.6367v-7.7051q1.8457 2.1387 4.6582 2.1387 1.7285 0 3.0029-0.68848 1.2744-0.67383 1.8164-1.875 0.55664-1.2012 0.55664-3.4863v-9.8584h-2.6367v9.8584q0 1.9775-0.86426 2.8711-0.84961 0.9082-2.417 0.9082-1.1719 0-2.2119-0.61523-1.0254-0.60058-1.4648-1.6406t-0.43945-2.8711v-8.5107z"/><path id="ab" d="m273.33 35.368-0.29297 2.4756q0.86426-0.23438 1.5088-0.23438 0.87891 0 1.4062 0.29297 0.52734 0.29296 0.86426 0.82031 0.24902 0.3955 0.80566 1.9629 0.0732 0.21973 0.23438 0.64454l-5.9033 15.586h2.8418l3.2373-9.0088q0.62988-1.7139 1.1279-3.6035 0.4541 1.8164 1.084 3.5449l3.3252 9.0674h2.6367l-5.918-15.82q-0.95214-2.5635-1.4795-3.5303-0.70313-1.3037-1.6113-1.9043-0.90821-0.61523-2.168-0.61523-0.76171 0-1.6992 0.32227z"/></g></g></svg>
