<?xml version="1.0" encoding="UTF-8" standalone="no"?>
<!-- Created with Inkscape (http://www.inkscape.org/) -->

<svg
   xmlns:dc="http://purl.org/dc/elements/1.1/"
   xmlns:cc="http://creativecommons.org/ns#"
   xmlns:rdf="http://www.w3.org/1999/02/22-rdf-syntax-ns#"
   xmlns:svg="http://www.w3.org/2000/svg"
   xmlns="http://www.w3.org/2000/svg"
   xmlns:sodipodi="http://sodipodi.sourceforge.net/DTD/sodipodi-0.dtd"
   xmlns:inkscape="http://www.inkscape.org/namespaces/inkscape"
   width="675.22174"
   height="216.99998"
   id="svg3560"
   version="1.1"
   inkscape:version="0.92.0 r15299"
   sodipodi:docname="Cesky rozhlas Radio Praha.svg"
   viewBox="0 0 633.02041 203.43749">
  <defs
     id="defs3562" />
  <sodipodi:namedview
     id="base"
     pagecolor="#ffffff"
     bordercolor="#666666"
     borderopacity="1.0"
     inkscape:pageopacity="0.0"
     inkscape:pageshadow="2"
     inkscape:zoom="1.979899"
     inkscape:cx="247.48939"
     inkscape:cy="153.07693"
     inkscape:document-units="px"
     inkscape:current-layer="layer1"
     showgrid="false"
     fit-margin-left="0.5"
     fit-margin-top="0.5"
     fit-margin-bottom="0.5"
     fit-margin-right="0.5"
     inkscape:window-width="1920"
     inkscape:window-height="1017"
     inkscape:window-x="-8"
     inkscape:window-y="-8"
     inkscape:window-maximized="1" />
  <metadata
     id="metadata3565">
    <rdf:RDF>
      <cc:Work
         rdf:about="">
        <dc:format>image/svg+xml</dc:format>
        <dc:type
           rdf:resource="http://purl.org/dc/dcmitype/StillImage" />
        <dc:title></dc:title>
      </cc:Work>
    </rdf:RDF>
  </metadata>
  <g
     inkscape:label="Layer 1"
     inkscape:groupmode="layer"
     id="layer1"
     transform="translate(104.81787,-642.67808)">
    <path
       inkscape:connector-curvature="0"
       d="m 195.14738,782.25069 v -62.51474 h -13.19226 v 19.65524 c -3.19052,-2.65279 -6.82147,-4.15843 -10.9799,-4.15843 -13.90412,0 -20.19297,12.03999 -20.19297,24.52553 0,11.69175 6.55516,23.64467 19.5733,23.64467 4.69104,0 9.47426,-1.41857 12.12705,-5.58213 v 4.42986 z m -12.75184,-22.66652 c 0,6.01743 -1.5927,13.01302 -8.94165,13.01302 -7.52819,0 -9.3872,-7.16971 -9.3872,-13.45857 0,-5.75625 2.21237,-13.19226 9.20796,-13.19226 7.61525,0 9.12089,7.43601 9.12089,13.63781 m -38.94688,-2.84228 c 0,-3.72313 0.17924,-9.03895 -1.23934,-12.49066 -3.36464,-7.97374 -11.95805,-9.21307 -19.57842,-9.21307 -10.36023,0 -18.95364,4.42985 -19.57331,15.8553 h 12.04511 c -0.17412,-4.51692 4.42986,-5.75626 8.0608,-5.75626 2.74498,0 7.00071,0.70673 7.00071,4.25062 0,3.27758 -4.78322,3.45682 -7.08777,3.81019 -9.9198,1.41857 -22.5897,2.56573 -22.5897,15.58899 0,9.30014 7.08777,14.79009 15.94748,14.79009 6.55516,0 9.3872,-1.94607 14.43672,-5.48995 l 0.0871,4.16355 12.49578,-0.005 z m -12.93108,10.62653 c -2.21749,3.81019 -6.38104,5.9355 -10.71872,5.9355 -3.01128,0 -6.10961,-1.41858 -6.10961,-4.87028 0,-5.9355 9.47425,-6.02256 13.63781,-7.08777 1.06521,-0.26631 2.1253,-0.61967 3.19052,-1.06522 z m 74.36012,-47.63247 h 12.92596 v 11.77881 H 204.8777 Z m 0,16.64397 h 12.92596 v 45.87077 H 204.8777 Z m 42.85949,47.19717 c -14.34453,0 -23.28619,-9.91469 -23.28619,-23.99292 0,-14.87715 9.64838,-24.53065 24.52553,-24.53065 14.07824,0 22.93283,10.36023 22.93283,24.0851 0,14.17042 -9.91469,24.43847 -24.17217,24.43847 m 0.61967,-38.07628 c -7.88156,0 -10.53947,6.72928 -10.53947,13.55075 0,6.64222 2.48379,13.89899 10.36023,13.89899 8.0608,0 10.36023,-7.52307 10.36023,-14.34454 0,-6.55004 -2.47867,-13.1052 -10.18099,-13.1052 m -157.912835,7.3848 c 2.837156,-3.63607 3.90237,-8.42441 3.90237,-12.94644 0,-3.10346 -0.619668,-6.73441 -1.951185,-9.57157 -4.522038,-9.39744 -12.941325,-10.72895 -22.425825,-10.72895 H 45.853557 v 62.58643 h 14.185781 v -21.63203 h 8.951894 0.491637 l 13.043749,21.63203 H 98.233401 L 83.847893,758.37556 c 2.386488,-1.14203 4.593735,-2.86276 6.596132,-5.48995 M 80.252796,740.03135 c 0,3.54388 -1.684882,6.56028 -4.967584,8.06592 -2.125307,0.97303 -5.408009,0.97303 -7.712558,0.97303 -2.478671,0 -5.049524,-0.0871 -7.533316,-0.0871 v -17.90891 h 6.826587 c 4.076492,0 8.68559,-0.17412 11.522747,3.36977 1.239335,1.59782 1.864124,3.54388 1.864124,5.58725"
       style="fill:#ffffff;fill-opacity:1;fill-rule:nonzero;stroke:none;stroke-width:5.12122059"
       id="path3189"
       sodipodi:nodetypes="ccccsssccccssscccsccsscsscccccssccccccccccccccsssccsssccscsccccccccccccsccscc" />
    <g
       style="fill:#ffffff;fill-opacity:1"
       transform="matrix(5.1212491,0,0,-5.1212491,-104.34912,757.79623)"
       id="g3191">
      <path
         id="path3193"
         style="fill:#ffffff;fill-opacity:1;fill-rule:nonzero;stroke:none"
         d="M 0,0 H 19.067 L 22,-4.769 H 0 Z M 0,7.451 V 2.716 h 17.396 l -2.913,4.735 z m 18.662,2.716 H 0 v 4.744 h 19.913 c 0.009,-0.186 0.014,-0.374 0.012,-0.566 -0.016,-1.765 -0.439,-3.126 -1.263,-4.178 M 9.575,22.387 H 0 v -4.761 h 19.317 c -1.396,3.253 -5.071,4.761 -9.742,4.761"
         inkscape:connector-curvature="0" />
    </g>
    <g
       style="fill:#ffffff;fill-opacity:1"
       transform="matrix(5.1212491,0,0,-5.1212491,61.235739,806.60992)"
       id="g3195">
      <path
         id="path3197"
         style="fill:#ffffff;fill-opacity:1;fill-rule:nonzero;stroke:none"
         d="m 0,0 h -1.413 l -0.759,0.959 h 1.111 l 0.367,-0.556 0.351,0.556 h 1.128 z m 28.268,-4.118 c 0,-0.633 -0.215,-1.332 -0.963,-1.332 -0.732,0 -0.963,0.674 -0.963,1.291 0,0.633 0.248,1.258 0.979,1.258 0.716,0 0.947,-0.608 0.947,-1.217 m 1.242,-0.049 c 0,1.275 -0.823,2.237 -2.13,2.237 -1.383,0 -2.279,-0.897 -2.279,-2.279 0,-1.308 0.831,-2.229 2.163,-2.229 1.324,0 2.246,0.955 2.246,2.271 m -4.606,1.077 v 1.102 c -0.074,0.009 -0.14,0.017 -0.215,0.017 -0.575,0 -0.896,-0.247 -1.101,-0.782 v 0.7 h -1.185 v -4.261 h 1.242 v 1.39 c 0,0.214 0,0.436 0.009,0.65 0.016,0.691 0.115,1.209 0.962,1.209 0.099,0 0.189,-0.008 0.288,-0.025 m -9.246,-3.224 -1.759,2.649 1.644,1.612 h -1.571 l -1.316,-1.456 v 3.002 h -1.209 v -5.807 h 1.209 v 1.415 l 0.395,0.395 1.069,-1.81 z m -4.835,1.307 c 0,1.07 -1.054,1.26 -1.876,1.432 -0.222,0.049 -0.724,0.107 -0.724,0.411 0,0.305 0.362,0.346 0.592,0.346 0.231,0 0.493,-0.083 0.642,-0.272 0.066,-0.082 0.09,-0.246 0.107,-0.345 l 1.135,0.057 c -0.049,1.045 -0.93,1.448 -1.867,1.448 -0.864,0 -1.777,-0.345 -1.777,-1.349 0,-1.703 2.533,-1.086 2.533,-1.851 0,-0.337 -0.345,-0.394 -0.608,-0.394 -0.543,0 -0.831,0.156 -0.905,0.707 L 6.923,-4.858 c 0,-0.14 0.008,-0.255 0.041,-0.395 0.214,-0.881 1.119,-1.185 1.934,-1.185 0.929,0 1.925,0.33 1.925,1.431 M 5.295,-3.616 H 3.592 c 0.132,0.485 0.395,0.732 0.913,0.732 0.436,0 0.749,-0.304 0.79,-0.732 M 6.57,-4.538 v 0.206 c 0,1.316 -0.675,2.402 -2.098,2.402 -1.308,0 -2.155,-0.979 -2.155,-2.254 0,-1.308 0.806,-2.254 2.155,-2.254 0.938,0 1.744,0.445 2.048,1.357 L 5.303,-4.998 C 5.122,-5.319 4.884,-5.45 4.505,-5.45 c -0.559,0 -0.847,0.386 -0.921,0.912 z m -4.516,0.165 -1.357,0.09 c -0.008,-0.658 -0.625,-1.069 -1.242,-1.069 -0.329,0 -0.642,0.107 -0.897,0.313 -0.493,0.412 -0.592,1.061 -0.592,1.661 0,0.963 0.387,1.917 1.489,1.917 0.452,0 0.855,-0.173 1.085,-0.584 0.05,-0.099 0.099,-0.198 0.124,-0.304 l 1.308,0.09 c -0.016,0.14 -0.058,0.264 -0.099,0.395 -0.345,1.028 -1.373,1.497 -2.402,1.497 -1.817,0 -2.912,-1.242 -2.912,-3.019 0,-1.217 0.576,-2.41 1.753,-2.871 0.361,-0.139 0.756,-0.188 1.143,-0.188 0.946,0 1.826,0.345 2.311,1.192 0.157,0.271 0.255,0.576 0.288,0.88 m 41.398,-0.558 c -0.205,-0.354 -0.592,-0.552 -0.995,-0.552 -0.28,0 -0.568,0.133 -0.568,0.454 0,0.551 0.881,0.559 1.267,0.658 0.099,0.024 0.197,0.057 0.296,0.098 z m 1.202,0.987 c 0,0.346 0.016,0.84 -0.116,1.16 -0.313,0.741 -1.111,0.857 -1.817,0.857 -0.963,0 -1.762,-0.412 -1.82,-1.474 h 1.12 c -0.016,0.42 0.411,0.535 0.749,0.535 0.255,0 0.65,-0.065 0.65,-0.395 0,-0.304 -0.445,-0.321 -0.659,-0.353 -0.921,-0.132 -2.098,-0.239 -2.098,-1.449 0,-0.863 0.658,-1.374 1.482,-1.374 0.608,0 0.872,0.181 1.341,0.511 l 0.008,-0.387 h 1.161 z m 4.5,-1.067 c 0,1.07 -1.052,1.259 -1.875,1.431 -0.222,0.05 -0.724,0.107 -0.724,0.412 0,0.304 0.362,0.345 0.592,0.345 0.231,0 0.494,-0.082 0.642,-0.271 0.065,-0.082 0.09,-0.247 0.107,-0.346 l 1.135,0.058 c -0.05,1.045 -0.929,1.448 -1.867,1.448 -0.864,0 -1.777,-0.346 -1.777,-1.349 0,-1.703 2.533,-1.086 2.533,-1.851 0,-0.337 -0.344,-0.395 -0.609,-0.395 -0.542,0 -0.831,0.156 -0.904,0.707 l -1.152,-0.04 c 0,-0.14 0.009,-0.256 0.041,-0.395 0.214,-0.881 1.119,-1.185 1.933,-1.185 0.93,0 1.925,0.329 1.925,1.431 m -9.122,-1.308 h -1.209 v 5.807 h 1.209 z m -3.257,0 v 2.386 c 0,0.271 0.017,0.6 -0.205,0.798 -0.116,0.107 -0.272,0.148 -0.428,0.148 -0.181,0 -0.329,-0.05 -0.469,-0.165 -0.289,-0.239 -0.271,-0.641 -0.271,-0.978 v -2.189 h -1.201 v 5.808 h 1.201 v -1.983 c 0.188,0.338 0.797,0.535 1.159,0.535 0.281,0 0.617,-0.074 0.847,-0.239 0.494,-0.353 0.576,-0.83 0.576,-1.398 v -2.723 z m -6.967,0 v 0.906 l 2.106,2.351 h -1.867 v 1.004 h 3.372 v -0.979 l -2.04,-2.278 h 2.18 V -6.319 Z M 19.125,-0.26 h -1.451 l -0.59,-1.228 h 0.941 z m 0.509,-1.793 h -1.283 l -0.707,-2.871 -0.774,2.871 h -1.316 l 1.234,-3.455 c 0.066,-0.189 0.173,-0.403 0.173,-0.609 0,-0.14 -0.066,-0.345 -0.181,-0.436 -0.116,-0.09 -0.371,-0.107 -0.511,-0.107 -0.106,0 -0.213,0.008 -0.32,0.008 v -0.954 c 0.107,0 0.214,-0.016 0.32,-0.016 0.527,0 1.193,-0.033 1.555,0.419 0.173,0.222 0.313,0.65 0.403,0.921 z"
         inkscape:connector-curvature="0" />
    </g>
    <g
       transform="matrix(0.93705328,0,0,0.93705328,-115.07539,604.39337)"
       id="#000f37ff"
       style="fill:#ffffff;fill-opacity:1">
      <path
         style="opacity:1;fill:#ffffff;fill-opacity:1"
         inkscape:connector-curvature="0"
         d="m 448,123 c 9.01,0.03 18.02,-0.07 27.03,0.04 6.22,0.17 13,0.85 17.9,5.12 6.09,5.32 7.69,14.18 6.26,21.85 -1.18,7.44 -6.97,14.04 -14.36,15.79 -7.08,1.63 -14.39,0.71 -21.58,0.96 l -0.01,22.99 -15.23,0.01 L 448,123 m 15.24,12.52 0.01,18.72 c 5.35039,0 10.79385,0.35891 15.94,-1.02 6.71,-2.35 7.22,-13.4 0.73,-16.33 -3.54276,-1.83336 -11.13997,-1.37 -16.68,-1.37 z"
         id="path2"
         sodipodi:nodetypes="cccccccccccccc" />
      <path
         style="opacity:1;fill:#ffffff;fill-opacity:1"
         inkscape:connector-curvature="0"
         d="m 590.24,123.01 h 14.01 l -0.13,22.16 c 5.83,-5.78 15.67,-7.37 22.81,-3.15 5.38,3.27 6.85,10.05 6.98,15.91 0.2,10.61 0.04,21.22 0.08,31.83 l -14.23,-0.01 c -0.09,-10.27 0.12,-20.54 -0.09,-30.8 -0.01,-3.66 -2.64,-7.62 -6.69,-7.24 -4.85,-0.68 -8.35,3.89 -8.42,8.36 -0.71,9.87 -0.11,19.79 -0.32,29.68 h -13.99 z"
         id="path4"
         sodipodi:nodetypes="ccccccccccccc" />
      <path
         style="opacity:1;fill:#ffffff;fill-opacity:1"
         inkscape:connector-curvature="0"
         d="m 546.03,142 c 7.27,-3.56 15.89,-3.19 23.58,-1.34 6.24,1.64 10.91,7.43 10.97,13.93 0.4,11.71 0.06,23.44 0.17,35.16 h -13.5 v -4.28 c -6.98,5.86 -17.62,7.95 -25.6,2.9 -8.44,-5.05 -9.47,-19.31 -1.02,-24.8 6.89,-4.46 15.45,-3.95 23.14,-5.88 3.01,-0.56 3.41,-4.88 0.71,-6.16 -4.76,-2.48 -13.54,-1.65 -14.03,4.99 l -12.98,-0.01 c 0.25,-5.89 3.15,-11.79 8.56,-14.51 m 5.05,29.12 c -2.89,1.93 -2.39,6.85 0.89,8.12 5.39,2.18 11.79,-0.68 14.84,-5.4 l -0.06,-7.19 c -5.12,1.86 -11.05,1.34 -15.67,4.47 z"
         id="path6"
         sodipodi:nodetypes="cccccccccccccccccc" />
      <path
         style="opacity:1;fill:#ffffff;fill-opacity:1"
         inkscape:connector-curvature="0"
         d="m 650.61,142.68 c 6.9,-4.14 15.5,-3.86 23.15,-2.43 6.13,1.15 11.99,6.11 12.22,12.67 l 0.01,36.84 -12.94,0.01 -0.14,-4.18 c -3.18,1.97 -6.29,4.31 -10.03,5.07 -6.03,1.26 -12.96,0.4 -17.64,-3.9 -7.13,-6.45 -6.27,-20.44 3.14,-24.35 6.17,-2.98 13.16,-3.09 19.78,-4.34 1.57,-0.35 3.86,-1.12 3.84,-3.08 0.43,-2.88 -2.75,-4.3 -5.11,-4.54 -4.43,-0.85 -10.32,0.8 -10.84,6.03 h -12.93 c 0.44,-5.39 2.69,-10.9 7.49,-13.8 m 6.35,28.31 c -3.18,1.86 -2.56,6.94 0.79,8.26 5.21,2.08 11.9,-0.52 14.58,-5.41 l 0.18,-7.19 c -5.07,1.84 -10.93,1.33 -15.55,4.34 z"
         id="path8"
         sodipodi:nodetypes="cccccccccccccccccccc" />
      <path
         style="opacity:1;fill:#ffffff;fill-opacity:1"
         inkscape:connector-curvature="0"
         d="m 524.67,141.72 c 2.95,-1.97 6.66,-2.03 10.09,-1.83 l -0.03,12.88 c -3.65,-0.33 -7.81,-0.46 -10.73,2.12 -2.86,2.46 -3.51,6.48 -3.51,10.06 l 0.04,24.75 -14.52,0.06 v -49.01 h 13.75 l -0.11,7.27 c 1.31,-2.35 2.68,-4.83 5.02,-6.3 z"
         id="path10"
         sodipodi:nodetypes="ccccccccccc" />
    </g>
  </g>
</svg>
