<?xml version="1.0" encoding="UTF-8" standalone="no"?>
<!-- Created with Inkscape (http://www.inkscape.org/) -->

<svg
   xmlns:dc="http://purl.org/dc/elements/1.1/"
   xmlns:cc="http://creativecommons.org/ns#"
   xmlns:rdf="http://www.w3.org/1999/02/22-rdf-syntax-ns#"
   xmlns:svg="http://www.w3.org/2000/svg"
   xmlns="http://www.w3.org/2000/svg"
   xmlns:sodipodi="http://sodipodi.sourceforge.net/DTD/sodipodi-0.dtd"
   xmlns:inkscape="http://www.inkscape.org/namespaces/inkscape"
   version="1.1"
   id="svg2"
   xml:space="preserve"
   width="554.48401"
   height="99.791245"
   viewBox="0 0 554.48401 99.791245"
   sodipodi:docname="Cesky rozhlas Budejovice.svg"
   inkscape:version="0.92.0 r15299"><metadata
     id="metadata8"><rdf:RDF><cc:Work
         rdf:about=""><dc:format>image/svg+xml</dc:format><dc:type
           rdf:resource="http://purl.org/dc/dcmitype/StillImage" /><dc:title></dc:title></cc:Work></rdf:RDF></metadata><defs
     id="defs6" /><sodipodi:namedview
     pagecolor="#ffffff"
     bordercolor="#666666"
     borderopacity="1"
     objecttolerance="10"
     gridtolerance="10"
     guidetolerance="10"
     inkscape:pageopacity="0"
     inkscape:pageshadow="2"
     inkscape:window-width="716"
     inkscape:window-height="480"
     id="namedview4"
     showgrid="false"
     fit-margin-top="0"
     fit-margin-left="0"
     fit-margin-right="0"
     fit-margin-bottom="0"
     inkscape:zoom="0.6244157"
     inkscape:cx="245.66934"
     inkscape:cy="43.098574"
     inkscape:window-x="0"
     inkscape:window-y="0"
     inkscape:window-maximized="0"
     inkscape:current-layer="g10" /><g
     id="g10"
     inkscape:groupmode="layer"
     inkscape:label="CRo-Ceske_Budejovice-H-RGB"
     transform="matrix(1.3333333,0,0,-1.3333333,-75.590665,245.66933)"><g
       id="g12"
       transform="translate(56.693,149.2)"><path
         d="m 0,0 h 29.854 l 4.593,-7.467 H 0 Z M 0,11.667 V 4.252 h 27.237 l -4.56,7.415 z m 29.22,4.252 H 0 v 7.428 h 31.178 c 0.015,-0.291 0.023,-0.585 0.02,-0.886 -0.026,-2.764 -0.687,-4.895 -1.978,-6.542 M 14.991,35.052 H 0 v -7.453 h 30.245 c -2.185,5.092 -7.94,7.453 -15.254,7.453"
         style="fill:#00ab96;fill-opacity:1;fill-rule:nonzero;stroke:none"
         id="path14"
         inkscape:connector-curvature="0" /></g><g
       id="g16"
       transform="translate(126.371,152.871)"><path
         d="m 0,0 c -0.045,-3.616 -3.435,-5.876 -6.825,-5.876 -6.554,0 -8.181,6.192 -8.181,10.848 0,5.288 2.124,10.532 8.181,10.532 2.938,0 5.695,-1.447 6.644,-4.882 l 7.187,0.497 c -1.085,7.187 -7.594,10.396 -13.741,10.396 -9.989,0 -16.001,-6.825 -16.001,-16.588 0,-8.679 5.108,-16.815 15.82,-16.815 6.6,0 13.425,3.39 14.374,11.391 z m 1.046,28.958 h -6.2 l -1.927,-3.056 -2.017,3.056 h -6.11 l 4.177,-5.272 h 7.765 z M 32.272,-1.401 v 1.13 c 0,7.232 -3.706,13.198 -11.526,13.198 -7.186,0 -11.842,-5.379 -11.842,-12.385 0,-7.186 4.43,-12.384 11.842,-12.384 5.153,0 9.583,2.44 11.255,7.458 l -6.689,0.452 c -0.995,-1.763 -2.306,-2.486 -4.385,-2.486 -3.073,0 -4.655,2.124 -5.062,5.017 z M 15.91,3.661 c 0.723,2.667 2.17,4.023 5.017,4.023 2.396,0 4.113,-1.672 4.339,-4.023 z m 18.306,-6.825 v -0.271 c 0,-6.193 5.876,-8.407 10.848,-8.407 5.107,0 10.577,1.808 10.577,7.864 0,9.266 -14.284,6.464 -14.284,10.035 0,1.763 1.989,1.989 3.255,1.989 1.943,0 3.977,-0.904 4.113,-3.39 l 6.238,0.316 c -0.272,5.74 -5.108,7.955 -10.261,7.955 -4.746,0 -9.763,-1.898 -9.763,-7.413 0,-9.356 13.922,-5.966 13.922,-10.17 0,-1.853 -1.899,-2.169 -3.345,-2.169 -2.983,0 -4.565,0.859 -4.972,3.887 z m 38.736,15.413 -7.232,-8 v 16.498 h -6.644 v -31.911 h 6.644 v 7.774 l 2.17,2.17 5.876,-9.944 h 8.452 l -9.673,14.554 9.04,8.859 z m 32.273,-13.65 v 1.13 c 0,7.232 -3.706,13.198 -11.526,13.198 -7.187,0 -11.842,-5.379 -11.842,-12.385 0,-7.186 4.429,-12.384 11.842,-12.384 5.153,0 9.583,2.44 11.255,7.458 l -6.69,0.452 c -0.994,-1.763 -2.305,-2.486 -4.384,-2.486 -3.074,0 -4.656,2.124 -5.062,5.017 z M 88.863,3.661 c 0.723,2.667 2.169,4.023 5.017,4.023 2.396,0 4.113,-1.672 4.339,-4.023 z m 6.237,11.797 5.018,6.645 H 92.66 l -2.034,-6.645 z m 26.894,-26.622 h 14.961 c 4.701,0 11.074,1.808 11.074,9.401 0,4.972 -3.616,7.051 -5.334,7.729 1.176,0.362 4.52,2.215 4.52,6.554 0,6.057 -4.7,8.227 -10.757,8.227 h -14.464 z m 7.141,25.944 h 6.238 c 2.034,0 4.746,-0.316 4.746,-3.299 0,-2.848 -2.622,-3.029 -5.062,-3.029 h -5.922 z m 0,-12.068 h 6.554 c 2.08,0 5.063,-0.407 5.063,-3.932 0,-2.893 -2.125,-4.068 -5.876,-4.068 h -5.741 z m 43.392,-13.876 v 23.413 h -6.464 V 0.045 c 0,-3.525 -0.678,-6.283 -4.022,-6.283 -3.164,0 -3.662,2.486 -3.662,5.063 v 13.424 h -6.644 v -13.65 c 0,-4.43 0.497,-10.351 7.82,-10.351 2.395,0 5.333,1.04 6.644,3.164 v -2.576 z m 26.442,0 v 31.911 h -6.735 V 10.712 c -1.627,1.356 -3.48,2.125 -5.605,2.125 -7.096,0 -10.305,-6.147 -10.305,-12.521 0,-5.966 3.345,-12.068 9.989,-12.068 2.395,0 4.836,0.723 6.192,2.848 v -2.26 z M 192.46,0.407 c 0,-3.074 -0.814,-6.645 -4.565,-6.645 -3.842,0 -4.791,3.662 -4.791,6.871 0,2.938 1.13,6.735 4.701,6.735 3.887,0 4.655,-3.797 4.655,-6.961 z m 33.267,-1.808 v 1.13 c 0,7.232 -3.706,13.198 -11.526,13.198 -7.187,0 -11.842,-5.379 -11.842,-12.385 0,-7.186 4.429,-12.384 11.842,-12.384 5.153,0 9.582,2.44 11.255,7.458 l -6.69,0.452 c -0.994,-1.763 -2.305,-2.486 -4.384,-2.486 -3.074,0 -4.656,2.124 -5.063,5.017 z m -16.362,5.062 c 0.723,2.667 2.169,4.023 5.017,4.023 2.395,0 4.113,-1.672 4.339,-4.023 z m -2.396,18.442 3.978,-6.645 h 6.373 l 4.294,6.645 h -5.108 l -2.305,-3.752 -2.215,3.752 z m 22.148,-7.277 h 6.5992 v 5.9212 h -6.5992 z m 6.599,0 z m -6.599,-2.577 v -22.781 c 0,-2.44 -1.853,-2.486 -3.752,-2.486 h -0.226 v -5.604 h 2.712 c 4.837,0 7.865,1.31 7.865,6.734 V 12.249 Z M 263.243,0.633 c 0,7.006 -4.52,12.294 -11.707,12.294 -7.594,0 -12.52,-4.927 -12.52,-12.52 0,-7.187 4.565,-12.249 11.887,-12.249 7.277,0 12.34,5.243 12.34,12.475 z m -6.825,0.271 c 0,-3.48 -1.176,-7.322 -5.289,-7.322 -4.023,0 -5.288,3.706 -5.288,7.096 0,3.48 1.356,6.916 5.379,6.916 3.932,0 5.198,-3.345 5.198,-6.69 z m 29.244,11.345 h -7.051 L 274.724,-2.26 270.43,12.249 h -7.097 l 8.091,-23.413 h 6.373 z m 9.221,0 h -6.5992 v -23.414 h 6.5992 z m 0,8.498 h -6.5992 v -6.0116 h 6.5992 z M 314.455,-2.17 c -0.272,-2.44 -2.034,-4.022 -4.475,-4.022 -3.887,0 -4.791,3.751 -4.791,6.96 0,3.255 1.13,6.69 4.926,6.69 2.351,0 3.752,-1.311 4.159,-3.616 l 6.418,0.271 c -0.316,5.831 -5.514,8.814 -10.441,8.814 -7.548,0 -11.978,-5.153 -11.978,-12.475 0,-7.187 4.113,-12.294 11.571,-12.294 5.741,0 9.854,2.892 11.074,9.356 z m 31.73,0.769 v 1.13 c 0,7.232 -3.707,13.198 -11.526,13.198 -7.187,0 -11.843,-5.379 -11.843,-12.385 0,-7.186 4.43,-12.384 11.843,-12.384 5.152,0 9.582,2.44 11.254,7.458 l -6.689,0.452 c -0.995,-1.763 -2.305,-2.486 -4.385,-2.486 -3.073,0 -4.655,2.124 -5.062,5.017 z m -16.363,5.062 c 0.723,2.667 2.17,4.023 5.017,4.023 2.396,0 4.114,-1.672 4.34,-4.023 h -9.357"
         style="fill:#00ab96;fill-opacity:1;fill-rule:nonzero;stroke:none"
         id="path18"
         inkscape:connector-curvature="0" /></g><g
       id="g20"
       transform="translate(164.046,123.947)"><path
         d="M 0,0 H -3.351 L -5.196,-7.494 -7.215,0 h -3.436 l 3.22,-9.018 c 0.172,-0.494 0.452,-1.052 0.452,-1.589 0,-0.365 -0.172,-0.901 -0.472,-1.138 -0.302,-0.237 -0.967,-0.28 -1.333,-0.28 -0.278,0 -0.557,0.022 -0.836,0.022 v -2.492 c 0.279,0 0.558,-0.042 0.836,-0.042 1.375,0 3.115,-0.087 4.058,1.095 0.452,0.58 0.818,1.697 1.054,2.405 z m -1.33,4.681 h -3.786 l -1.54,-3.204 h 2.455 z m 27.889,-15.815 v 2.362 l 5.497,6.14 h -4.875 v 2.621 h 8.805 V -2.566 L 30.66,-8.514 h 5.691 v -2.62 z m 18.187,0 v 6.227 c 0,0.709 0.043,1.568 -0.536,2.083 -0.301,0.279 -0.709,0.386 -1.118,0.386 -0.471,0 -0.857,-0.128 -1.223,-0.429 -0.752,-0.623 -0.708,-1.675 -0.708,-2.555 v -5.712 h -3.136 v 15.16 h 3.136 v -5.175 c 0.493,0.88 2.082,1.396 3.027,1.396 0.731,0 1.61,-0.194 2.212,-0.623 1.288,-0.923 1.501,-2.169 1.501,-3.651 v -7.107 z m 8.503,0 h -3.156 v 15.16 h 3.156 z m 23.812,3.414 c 0,2.792 -2.748,3.286 -4.895,3.736 -0.58,0.13 -1.889,0.28 -1.889,1.074 0,0.794 0.945,0.901 1.545,0.901 0.602,0 1.288,-0.214 1.675,-0.708 0.171,-0.214 0.236,-0.644 0.279,-0.901 l 2.963,0.15 c -0.129,2.726 -2.426,3.779 -4.874,3.779 -2.254,0 -4.639,-0.902 -4.639,-3.521 0,-4.445 6.614,-2.836 6.614,-4.832 0,-0.88 -0.9,-1.031 -1.588,-1.031 -1.418,0 -2.169,0.408 -2.362,1.847 l -3.006,-0.107 c 0,-0.365 0.02,-0.666 0.107,-1.03 0.558,-2.299 2.92,-3.093 5.045,-3.093 2.427,0 5.025,0.859 5.025,3.736 m -11.747,2.785 c 0,0.903 0.042,2.192 -0.302,3.029 -0.816,1.934 -2.899,2.235 -4.746,2.235 -2.513,0 -4.597,-1.074 -4.747,-3.846 h 2.922 c -0.044,1.095 1.073,1.396 1.954,1.396 0.665,0 1.696,-0.171 1.696,-1.03 0,-0.795 -1.16,-0.838 -1.718,-0.923 -2.406,-0.344 -5.477,-0.624 -5.477,-3.782 0,-2.254 1.718,-3.587 3.866,-3.587 1.589,0 2.278,0.473 3.501,1.333 l 0.022,-1.009 h 3.031 z m -3.137,-2.576 c -0.537,-0.924 -1.547,-1.44 -2.599,-1.44 -0.731,0 -1.483,0.344 -1.483,1.182 0,1.439 2.3,1.46 3.309,1.718 0.258,0.064 0.515,0.15 0.773,0.257 z m -108.07,1.456 -3.542,0.236 c -0.022,-1.718 -1.632,-2.79 -3.242,-2.79 -0.86,0 -1.676,0.278 -2.341,0.815 -1.288,1.074 -1.546,2.77 -1.546,4.338 0,2.512 1.009,5.002 3.887,5.002 1.18,0 2.233,-0.45 2.833,-1.525 0.13,-0.257 0.258,-0.515 0.323,-0.794 l 3.414,0.236 c -0.043,0.366 -0.151,0.688 -0.258,1.03 -0.901,2.685 -3.585,3.909 -6.27,3.909 -4.745,0 -7.6,-3.242 -7.6,-7.881 0,-3.178 1.503,-6.291 4.573,-7.493 0.944,-0.365 1.975,-0.493 2.985,-0.493 2.469,0 4.766,0.902 6.033,3.113 0.408,0.708 0.666,1.503 0.751,2.297 m 11.789,-0.43 v 0.538 c 0,3.434 -1.761,6.27 -5.476,6.27 -3.414,0 -5.625,-2.555 -5.625,-5.884 0,-3.415 2.103,-5.883 5.625,-5.883 2.448,0 4.553,1.159 5.347,3.542 l -3.178,0.215 c -0.473,-0.838 -1.095,-1.18 -2.082,-1.18 -1.461,0 -2.213,1.009 -2.406,2.382 z m -3.328,2.405 h -4.446 c 0.344,1.267 1.031,1.912 2.385,1.912 1.137,0 1.953,-0.794 2.061,-1.912 m 14.429,-3.628 c 0,2.792 -2.749,3.286 -4.896,3.736 -0.58,0.129 -1.89,0.28 -1.89,1.074 0,0.794 0.945,0.901 1.546,0.901 0.602,0 1.288,-0.214 1.675,-0.708 0.172,-0.215 0.236,-0.644 0.279,-0.902 l 2.964,0.151 c -0.129,2.726 -2.427,3.779 -4.875,3.779 -2.254,0 -4.638,-0.903 -4.638,-3.522 0,-4.445 6.614,-2.835 6.614,-4.832 0,-0.88 -0.902,-1.03 -1.59,-1.03 -1.416,0 -2.168,0.408 -2.361,1.847 l -3.006,-0.107 c 0,-0.366 0.021,-0.666 0.107,-1.031 0.558,-2.299 2.92,-3.092 5.046,-3.092 2.426,0 5.025,0.859 5.025,3.736 m 12.624,-3.414 -4.594,6.914 4.294,4.208 h -4.101 l -3.435,-3.8 v 7.837 h -3.157 v -15.159 h 3.157 v 3.693 l 1.03,1.031 2.792,-4.724 z m 24.134,8.417 v 2.877 c -0.192,0.022 -0.364,0.042 -0.558,0.042 -1.502,0 -2.34,-0.643 -2.877,-2.038 V 0 H 7.228 v -11.122 h 3.243 v 3.628 c 0,0.559 0,1.138 0.021,1.697 0.043,1.803 0.301,3.156 2.513,3.156 0.257,0 0.493,-0.021 0.75,-0.064 M 25.78,-5.518 c 0,3.328 -2.147,5.841 -5.561,5.841 -3.608,0 -5.948,-2.341 -5.948,-5.949 0,-3.414 2.169,-5.818 5.646,-5.818 3.458,0 5.863,2.491 5.863,5.926 m -3.242,0.129 c 0,-1.653 -0.559,-3.478 -2.512,-3.478 -1.912,0 -2.514,1.76 -2.514,3.371 0,1.653 0.645,3.285 2.555,3.285 1.869,0 2.471,-1.589 2.471,-3.178 M -51.254,5.36 h -3.688 l -1.982,2.504 h 2.901 l 0.958,-1.452 0.914,1.452 h 2.945 L -51.254,5.36"
         style="fill:#00ab96;fill-opacity:1;fill-rule:nonzero;stroke:none"
         id="path22"
         inkscape:connector-curvature="0" /></g></g></svg>