<svg id="a" version="1.1" viewBox="0 0 250.33 99.791" xml:space="preserve" xmlns="http://www.w3.org/2000/svg"><g id="b" transform="matrix(1.3333 0 0 -1.3333 -75.591 245.67)"><g id="c" transform="translate(56.693,149.2)"><path id="d" d="m0 0h29.854l4.593-7.467h-34.447zm0 11.667v-7.415h27.237l-4.56 7.415zm29.22 4.252h-29.22v7.428h31.178c0.015-0.291 0.023-0.585 0.02-0.886-0.026-2.764-0.687-4.895-1.978-6.542m-14.229 19.133h-14.991v-7.453h30.245c-2.185 5.092-7.94 7.453-15.254 7.453" fill="#00ab96"/></g><g id="e" transform="translate(127.61 156.67)"><path id="f" d="m0 0c1.444 1.853 1.985 4.292 1.985 6.596 0 1.582-0.316 3.434-0.992 4.88-2.302 4.79-6.589 5.467-11.417 5.467h-12.274v-31.899h7.22v11.025h4.806l6.641-11.025h7.996l-7.323 12.156c1.215 0.582 2.338 1.459 3.358 2.8zm-5.19 6.552c0-1.808-0.857-3.344-2.527-4.112-1.083-0.498-2.752-0.498-3.925-0.498-1.264 0-2.572 0.046-3.836 0.046v9.127h3.474c2.076 0 4.423 0.09 5.867-1.717 0.631-0.813 0.947-1.808 0.947-2.846zm33.7-11.756v1.13c0 7.232-3.706 13.198-11.526 13.198-7.187 0-11.842-5.379-11.842-12.385 0-7.186 4.429-12.384 11.842-12.384 5.153 0 9.583 2.44 11.255 7.458l-6.69 0.452c-0.994-1.763-2.305-2.486-4.384-2.486-3.074 0-4.656 2.124-5.062 5.017zm-16.362 5.062c0.723 2.667 2.169 4.023 5.017 4.023 2.396 0 4.113-1.672 4.339-4.023zm35.12 8.588v-3.073c-1.763 2.44-3.616 3.706-6.735 3.706-6.373 0-9.808-5.605-9.808-11.436 0-5.921 3.571-11.119 9.899-11.119 2.35 0 5.107 0.904 6.554 2.893-0.046-0.316-0.046-0.633-0.046-0.949 0-3.435-0.406-5.876-4.474-5.876-1.628 0-3.164 0.542-3.797 2.169h-7.051c0.497-5.74 5.333-7.412 10.35-7.412 4.204 0 8.95 1.039 10.758 5.333 0.678 1.627 0.769 3.481 0.769 5.243v20.521zm-0.181-10.351c0-3.118-1.582-5.921-4.972-5.921-3.254 0-4.881 2.712-4.881 5.695 0 3.074 1.762 5.741 5.062 5.741 3.164 0 4.791-2.577 4.791-5.515zm17.673 10.351h-6.5992v-23.414h6.5992zm0 8.498h-6.5992v-6.0116h6.5992zm27.617-20.114c0 7.006-4.52 12.294-11.706 12.294-7.594 0-12.521-4.927-12.521-12.52 0-7.187 4.565-12.249 11.888-12.249 7.277 0 12.339 5.243 12.339 12.475zm-6.825 0.271c0-3.48-1.175-7.322-5.288-7.322-4.023 0-5.289 3.706-5.289 7.096 0 3.48 1.356 6.916 5.379 6.916 3.933 0 5.198-3.345 5.198-6.69zm31.278-12.068v14.373c0 3.164-0.452 6.012-3.119 8.046-1.401 1.085-3.164 1.537-4.926 1.537-2.712 0-4.837-1.176-6.464-3.255v2.712h-6.509v-23.413h6.69v12.972c0 2.486 0.859 5.288 4.023 5.288 2.621 0 3.48-2.214 3.48-4.474v-13.786h6.825" fill="#00ab96"/></g><g id="g" transform="translate(164.05 123.95)"><path id="h" d="m0 0h-3.351l-1.845-7.494-2.019 7.494h-3.436l3.22-9.018c0.172-0.494 0.452-1.052 0.452-1.589 0-0.365-0.172-0.901-0.472-1.138-0.302-0.237-0.967-0.28-1.333-0.28-0.278 0-0.557 0.022-0.836 0.022v-2.492c0.279 0 0.558-0.042 0.836-0.042 1.375 0 3.115-0.087 4.058 1.095 0.452 0.58 0.818 1.697 1.054 2.405zm-1.33 4.681h-3.786l-1.54-3.204h2.455zm27.889-15.815v2.362l5.497 6.14h-4.875v2.621h8.805v-2.555l-5.326-5.948h5.691v-2.62zm18.187 0v6.227c0 0.709 0.043 1.568-0.536 2.083-0.301 0.279-0.709 0.386-1.118 0.386-0.471 0-0.857-0.128-1.223-0.429-0.752-0.623-0.708-1.675-0.708-2.555v-5.712h-3.136v15.16h3.136v-5.175c0.493 0.88 2.082 1.396 3.027 1.396 0.731 0 1.61-0.194 2.212-0.623 1.288-0.923 1.501-2.169 1.501-3.651v-7.107zm8.503 0h-3.156v15.16h3.156zm23.812 3.414c0 2.792-2.748 3.286-4.895 3.736-0.58 0.13-1.889 0.28-1.889 1.074s0.945 0.901 1.545 0.901c0.602 0 1.288-0.214 1.675-0.708 0.171-0.214 0.236-0.644 0.279-0.901l2.963 0.15c-0.129 2.726-2.426 3.779-4.874 3.779-2.254 0-4.639-0.902-4.639-3.521 0-4.445 6.614-2.836 6.614-4.832 0-0.88-0.9-1.031-1.588-1.031-1.418 0-2.169 0.408-2.362 1.847l-3.006-0.107c0-0.365 0.02-0.666 0.107-1.03 0.558-2.299 2.92-3.093 5.045-3.093 2.427 0 5.025 0.859 5.025 3.736m-11.747 2.785c0 0.903 0.042 2.192-0.302 3.029-0.816 1.934-2.899 2.235-4.746 2.235-2.513 0-4.597-1.074-4.747-3.846h2.922c-0.044 1.095 1.073 1.396 1.954 1.396 0.665 0 1.696-0.171 1.696-1.03 0-0.795-1.16-0.838-1.718-0.923-2.406-0.344-5.477-0.624-5.477-3.782 0-2.254 1.718-3.587 3.866-3.587 1.589 0 2.278 0.473 3.501 1.333l0.022-1.009h3.031zm-3.137-2.576c-0.537-0.924-1.547-1.44-2.599-1.44-0.731 0-1.483 0.344-1.483 1.182 0 1.439 2.3 1.46 3.309 1.718 0.258 0.064 0.515 0.15 0.773 0.257zm-108.07 1.456-3.542 0.236c-0.022-1.718-1.632-2.79-3.242-2.79-0.86 0-1.676 0.278-2.341 0.815-1.288 1.074-1.546 2.77-1.546 4.338 0 2.512 1.009 5.002 3.887 5.002 1.18 0 2.233-0.45 2.833-1.525 0.13-0.257 0.258-0.515 0.323-0.794l3.414 0.236c-0.043 0.366-0.151 0.688-0.258 1.03-0.901 2.685-3.585 3.909-6.27 3.909-4.745 0-7.6-3.242-7.6-7.881 0-3.178 1.503-6.291 4.573-7.493 0.944-0.365 1.975-0.493 2.985-0.493 2.469 0 4.766 0.902 6.033 3.113 0.408 0.708 0.666 1.503 0.751 2.297m11.789-0.43v0.538c0 3.434-1.761 6.27-5.476 6.27-3.414 0-5.625-2.555-5.625-5.884 0-3.415 2.103-5.883 5.625-5.883 2.448 0 4.553 1.159 5.347 3.542l-3.178 0.215c-0.473-0.838-1.095-1.18-2.082-1.18-1.461 0-2.213 1.009-2.406 2.382zm-3.328 2.405h-4.446c0.344 1.267 1.031 1.912 2.385 1.912 1.137 0 1.953-0.794 2.061-1.912m14.429-3.628c0 2.792-2.749 3.286-4.896 3.736-0.58 0.129-1.89 0.28-1.89 1.074s0.945 0.901 1.546 0.901c0.602 0 1.288-0.214 1.675-0.708 0.172-0.215 0.236-0.644 0.279-0.902l2.964 0.151c-0.129 2.726-2.427 3.779-4.875 3.779-2.254 0-4.638-0.903-4.638-3.522 0-4.445 6.614-2.835 6.614-4.832 0-0.88-0.902-1.03-1.59-1.03-1.416 0-2.168 0.408-2.361 1.847l-3.006-0.107c0-0.366 0.021-0.666 0.107-1.031 0.558-2.299 2.92-3.092 5.046-3.092 2.426 0 5.025 0.859 5.025 3.736m12.624-3.414-4.594 6.914 4.294 4.208h-4.101l-3.435-3.8v7.837h-3.157v-15.159h3.157v3.693l1.03 1.031 2.792-4.724zm24.134 8.417v2.877c-0.192 0.022-0.364 0.042-0.558 0.042-1.502 0-2.34-0.643-2.877-2.038v1.824h-3.092v-11.122h3.243v3.628c0 0.559 0 1.138 0.021 1.697 0.043 1.803 0.301 3.156 2.513 3.156 0.257 0 0.493-0.021 0.75-0.064m12.025-2.813c0 3.328-2.147 5.841-5.561 5.841-3.608 0-5.948-2.341-5.948-5.949 0-3.414 2.169-5.818 5.646-5.818 3.458 0 5.863 2.491 5.863 5.926m-3.242 0.129c0-1.653-0.559-3.478-2.512-3.478-1.912 0-2.514 1.76-2.514 3.371 0 1.653 0.645 3.285 2.555 3.285 1.869 0 2.471-1.589 2.471-3.178m-73.792 10.749h-3.688l-1.982 2.504h2.901l0.958-1.452 0.914 1.452h2.945l-2.048-2.504" fill="#00ab96"/></g></g></svg>
