<svg height="99.78318" viewBox="0 0 247.23467 99.783181" width="247.23466" xmlns="http://www.w3.org/2000/svg"><g fill="#00b8e0"><path d="m0 0h29.854l4.593-7.467h-34.447zm0 11.667v-7.415h27.237l-4.56 7.415zm29.22 4.252h-29.22v7.428h31.178c.015-.291.023-.585.02-.886-.026-2.764-.687-4.895-1.978-6.542m-14.229 19.133h-14.991v-7.453h30.245c-2.185 5.092-7.94 7.453-15.254 7.453" transform="matrix(1.3333333 0 0 -1.3333333 0 46.736002)"/><path d="m0 0h-3.686l-1.982 2.503h2.9l.958-1.452.914 1.452h2.944zm73.765-10.745c0-1.653-.56-3.478-2.512-3.478-1.91 0-2.513 1.761-2.513 3.37 0 1.653.646 3.284 2.555 3.284 1.868 0 2.47-1.588 2.47-3.176m3.24-.129c0 3.326-2.147 5.838-5.559 5.838-3.607 0-5.946-2.34-5.946-5.946 0-3.414 2.169-5.817 5.646-5.817 3.455 0 5.859 2.49 5.859 5.925m-12.02 2.812v2.875c-.192.022-.364.042-.558.042-1.502 0-2.34-.642-2.875-2.038v1.825h-3.092v-11.119h3.242v3.627c0 .559 0 1.139.022 1.697.043 1.802.3 3.155 2.511 3.155.257 0 .493-.022.75-.064m-24.125-8.415-4.591 6.913 4.291 4.206h-4.099l-3.435-3.799v7.834h-3.155v-15.154h3.155v3.693l1.03 1.031 2.791-4.724zm-12.619 3.413c0 2.792-2.748 3.286-4.895 3.735-.579.129-1.888.279-1.888 1.073 0 .795.944.902 1.545.902.602 0 1.287-.215 1.674-.708.172-.215.236-.644.279-.903l2.963.152c-.129 2.724-2.426 3.777-4.873 3.777-2.254 0-4.636-.901-4.636-3.52 0-4.443 6.611-2.835 6.611-4.831 0-.88-.901-1.029-1.589-1.029-1.416 0-2.168.407-2.361 1.847l-3.005-.109c0-.364.021-.665.107-1.029.559-2.299 2.919-3.092 5.045-3.092 2.425 0 5.023.86 5.023 3.735m-14.424 3.627h-4.444c.344 1.267 1.031 1.911 2.384 1.911 1.137 0 1.952-.793 2.06-1.911m3.326-2.404v.537c0 3.434-1.76 6.268-5.473 6.268-3.413 0-5.623-2.555-5.623-5.881 0-3.413 2.103-5.882 5.623-5.882 2.447 0 4.551 1.159 5.345 3.541l-3.177.216c-.472-.839-1.094-1.181-2.081-1.181-1.46 0-2.212 1.009-2.405 2.382zm-11.783.43-3.541.235c-.022-1.717-1.632-2.789-3.241-2.789-.859 0-1.675.278-2.34.816-1.288 1.074-1.546 2.768-1.546 4.336 0 2.51 1.009 5 3.886 5 1.18 0 2.232-.451 2.832-1.524.13-.258.258-.516.323-.794l3.412.235c-.042.367-.15.689-.257 1.031-.901 2.683-3.584 3.907-6.268 3.907-4.743 0-7.598-3.24-7.598-7.877 0-3.178 1.503-6.289 4.572-7.491.944-.364 1.974-.492 2.984-.492 2.468 0 4.764.901 6.031 3.111.408.708.665 1.502.751 2.296m108.028-1.455c-.535-.924-1.545-1.441-2.598-1.441-.73 0-1.482.346-1.482 1.183 0 1.438 2.298 1.459 3.306 1.717.258.064.516.149.774.258zm3.136 2.575c0 .901.041 2.19-.302 3.027-.817 1.934-2.899 2.235-4.742 2.235-2.514 0-4.598-1.074-4.749-3.845h2.922c-.043 1.095 1.073 1.396 1.953 1.396.667 0 1.698-.171 1.698-1.031 0-.795-1.16-.838-1.719-.923-2.404-.343-5.475-.623-5.475-3.779 0-2.254 1.717-3.586 3.866-3.586 1.588 0 2.275.473 3.5 1.332l.021-1.009h3.029zm11.743-2.784c0 2.791-2.746 3.285-4.893 3.734-.58.13-1.889.279-1.889 1.073s.944.902 1.545.902c.602 0 1.287-.214 1.674-.708.17-.214.236-.644.279-.902l2.961.151c-.129 2.725-2.423 3.777-4.871 3.777-2.254 0-4.636-.901-4.636-3.519 0-4.444 6.609-2.834 6.609-4.83 0-.88-.898-1.032-1.588-1.032-1.416 0-2.168.409-2.359 1.847l-3.006-.106c0-.366.021-.666.107-1.031.559-2.298 2.918-3.091 5.043-3.091 2.426 0 5.024.859 5.024 3.735m-23.803-3.413h-3.1543v15.154h3.1543zm-8.5 0v6.224c0 .708.043 1.568-.535 2.082-.303.28-.709.387-1.117.387-.473 0-.858-.13-1.225-.43-.752-.623-.707-1.673-.707-2.553v-5.71h-3.134v15.154h3.134v-5.174c.492.881 2.08 1.397 3.025 1.397.733 0 1.612-.195 2.211-.623 1.289-.923 1.502-2.168 1.502-3.65v-7.104zm-18.18 0v2.362l5.494 6.137h-4.872v2.62h8.801v-2.556l-5.324-5.944h5.689v-2.619zm-27.879 15.808h-3.784l-1.54-3.203h2.454zm1.33-4.678h-3.349l-1.845-7.492-2.018 7.492h-3.435l3.22-9.014c.172-.494.451-1.053.451-1.589 0-.365-.172-.901-.472-1.139-.302-.235-.968-.278-1.333-.278-.277 0-.556.021-.836.021v-2.491c.28 0 .559-.043.836-.043 1.375 0 3.113-.086 4.057 1.096.452.579.818 1.695 1.053 2.403z" transform="matrix(1.3333333 0 0 -1.3333333 76.211998 73.260001)"/><path d="m0 0h-7.715l-6.677-23.145-6.768 23.145h-7.805l11.189-31.852h6.632zm2.481-31.852h6.6321v31.852h-6.6321zm23.731.045v5.143c-.586-.045-1.218-.09-1.804-.09-2.121 0-2.527.722-2.527 2.707v10.512h4.106v5.053h-4.106v6.903h-6.632v-6.903h-3.338v-5.053h3.338v-10.106c0-.406-.045-.767-.045-1.173 0-4.873 1.218-7.309 6.452-7.309 1.534 0 3.022.136 4.556.316zm47.914 23.325h-7.038l-3.88-14.482-4.286 14.482h-7.084l8.076-23.37h6.362zm22.16-23.362-6.368-.001-.045 2.121c-2.572-1.805-4.016-2.798-7.356-2.798-4.513 0-8.123 2.798-8.123 7.537 0 6.634 6.453 7.221 11.508 7.943 1.173.181 3.61.271 3.61 1.941 0 1.805-2.166 2.166-3.565 2.166-1.85 0-4.197-.632-4.107-2.934h-6.138c.316 5.822 4.694 8.079 9.974 8.079 3.882 0 8.259-.632 9.974-4.694.722-1.76.632-4.468.632-6.363zm-6.593 11.192c-.542-.226-1.083-.407-1.625-.542-2.121-.542-6.95-.587-6.95-3.61 0-1.761 1.58-2.483 3.114-2.483 2.212 0 4.333 1.084 5.461 3.024zm-39.344 1.805c0 1.895.09 4.603-.632 6.363-1.715 4.062-6.093 4.694-9.974 4.694-5.28 0-9.658-2.257-9.974-8.079h6.138c-.09 2.302 2.256 2.934 4.107 2.934 1.399 0 3.565-.361 3.565-2.166 0-1.67-2.437-1.76-3.61-1.941-5.055-.722-11.509-1.309-11.509-7.943 0-4.739 3.611-7.537 8.124-7.537 3.339 0 4.784.993 7.356 2.798l.045-2.121 6.367.001zm-6.589-5.416c-1.129-1.94-3.25-3.024-5.461-3.024-1.535 0-3.114.722-3.114 2.483 0 3.023 4.829 3.068 6.95 3.61.541.135 1.083.316 1.625.542z" transform="matrix(1.3333333 0 0 -1.3333333 97.390664 14.173336)"/></g></svg>