<svg height="800.37006pt" viewBox="0 0 1188.9542 800.37004" width="1188.9542pt" xmlns="http://www.w3.org/2000/svg"><path d="m800.37002 400.185a400.18501 400.185 0 0 1 -400.18501 400.18502 400.18501 400.185 0 0 1 -400.18501-400.18502 400.18501 400.185 0 0 1 400.18501-400.185 400.18501 400.185 0 0 1 400.18501 400.185z" fill="#33101e"/><g fill="#ef4d5c"><path d="m332.9441 33.54022c13.68-1.99 27.56-1.88 41.36-1.61-8 1.95-16.13 3.23-24.22 4.63-34.29 6.92-67.91 17.34-99.84 31.68-48.53 21.82-93.24 51.87-132.56 87.67 10.29-14.84 22.91-27.91 36.18-40.1 43.81-39.4 98.08-67.43 155.98-78.81 7.58-1.86 15.38-2.45 23.1-3.46z"/><path d="m215.3641 110.36022c47.33-30.22 103.56-47.94 159.99-45.12-21.37 3.66-42.67 8.03-63.36 14.62-62.39 18.74-119.49 53.02-167.9 96.34 18.93-26.53 44.1-48.11 71.27-65.84z"/><path d="m220.7941 146.76022c44.39-32.28 99.39-51.2 154.55-48.36-31.39 5.45-62.4 13.72-91.72 26.31-41.36 17.26-79.18 42.23-112.93 71.58 13.59-19.32 31.16-35.55 50.1-49.53z"/><path d="m251.0741 166.08022c36.52-23.53 80.17-36.97 123.8-34.49-8.74 2.07-17.67 3.32-26.32 5.78-47.49 11.54-92.28 33.43-131.12 63.01-6.87 5.07-13.3 10.69-20.01 15.95 14.07-20.3 33.11-36.74 53.65-50.25z"/><path d="m270.1141 193.17022c31-19.77 68.07-30.8 104.96-28.35-39.7 7.7-78.21 22.14-112.44 43.79-13.72 8.43-26.46 18.31-39.05 28.33 12.15-17.7 28.56-32.17 46.53-43.77z"/><path d="m289.8341 219.83022c25.31-15.62 55.41-24.2 85.23-21.76-34.9 7.5-68.74 20.68-98.67 40.26-9.17 5.83-17.75 12.52-26.45 19.02 10.25-15.32 24.33-27.8 39.89-37.52z"/><path d="m311.3841 245.47022c19.29-10.81 41.79-16.47 63.91-14.21-21.43 5.41-42.45 12.76-62.05 23.03-13.01 6.57-24.95 14.95-36.83 23.34 8.6-13.55 21.11-24.27 34.97-32.16z"/><path d="m333.2741 271.39022c13.07-6 27.79-8.92 42.12-6.98-15.83 5.39-31.79 10.62-46.68 18.32-9.06 4.48-17.52 10.01-26.03 15.44 6.86-12.03 18.15-21.03 30.59-26.78z"/><path d="m509.955 400.185a109.77001 109.77 0 0 1 -109.76998 109.77 109.77001 109.77 0 0 1 -109.77-109.77 109.77001 109.77 0 0 1 109.77-109.77 109.77001 109.77 0 0 1 109.76998 109.77z"/><path d="m302.6941 505.88022c13.41 8.85 27.4 16.95 42.38 22.87 9.89 4.2 20.21 7.21 30.29 10.9-15.08 1.93-30.55-1.28-44.11-7.98-11.62-5.76-22.08-14.44-28.56-25.79z"/><path d="m276.3841 526.36022c12.26 8.73 24.69 17.33 38.2 24.07 19.21 9.85 39.69 17.18 60.67 22.2-16.03 2.02-32.34-.91-47.42-6.4-20.53-7.8-39.5-21.2-51.45-39.87z"/><path d="m250.0441 546.82022c12.86 9.67 25.82 19.3 39.91 27.15 26.4 15.11 55.33 25.59 85.03 31.95-34.84 2.88-70.04-9.22-97.58-30.35-10.48-8.15-20-17.66-27.36-28.75z"/><path d="m223.5541 567.07022c12.59 10 25.31 19.88 39.01 28.32 34.31 21.68 72.9 36.19 112.7 43.85-36.22 2.37-72.63-8.12-103.29-27.2-18.74-11.77-35.81-26.67-48.42-44.97z"/><path d="m197.4441 587.77022c11.79 9.5 23.53 19.1 36.16 27.49 34.95 23.84 74.15 41.49 115.28 51.48 8.57 2.4 17.38 3.72 26.06 5.65-51.59 2.98-103.12-16.14-143.05-48.37-12.95-10.55-24.96-22.45-34.45-36.25z"/><path d="m170.6641 607.69022c28.07 24.4 58.86 45.86 92.33 62.2 29.42 14.67 60.83 25.14 92.94 32.05 6.47 1.18 12.94 2.38 19.39 3.69-32.37 1.7-64.91-4.2-95.06-15.88-30.87-11.97-59.45-29.83-83.61-52.47-9.57-9.01-18.47-18.8-25.99-29.59z"/><path d="m144.4041 628.21022c47.78 42.44 103.74 76.34 165 95.19 21.47 6.81 43.5 11.76 65.76 15.21-32.81 2.13-65.73-3.78-96.76-14.24-35.18-12.35-68.1-31.19-96.34-55.55-13.93-12.14-27.05-25.42-37.66-40.61z"/><path d="m117.6441 648.07022c61.27 55.91 136.15 97.89 217.38 116.02 13.19 3.62 26.84 5.02 40.14 8.11-15.42.16-30.92.21-46.2-2.2-11.9-.98-23.47-3.97-35.1-6.48-44.8-11.45-87.04-32.59-123.32-61.24-19.78-15.75-38.3-33.47-52.9-54.21z"/></g><path d="m388.1341.00023 800.81.53.01 799.83979h-800.82024l.00024-799.30979v-1.06" fill="#efd4ba"/><g fill="#ef4d5c"><path d="m986.0541 36.01022 33.47-4.93c-2.5622 7.55783-3.38 10.4-6.42 14.96-5.11 7.95-9.94 16.08-15.07 24.02-2.44 3.79-6.75 5.89-11.17 6.17-6.64.79-13.24 1.91-19.85 2.86 4.97-14.95 12.72-28.71 19.04-43.08z"/><path d="m998.6441 78.77022 32.68-4.76c.09 19.31-.18 38.62.09 57.94.15 8.79-1.01 17.59-3.45 26.03-3.44 12.44-9.87 23.72-16.06 34.95-2.49 4.56-5.37 9-6.8 14.04-1.27 4.18-1.2597 8.6-1.2397 12.94v65.19c-11.3358 5.41561-19.1188 5.24974-32.6303 6.71v-70.88c.12-5.48-.43-11.21-3.33-16-7.9-12.4-17.12-24.47-21.01-38.89-3.39-11.72-2.29-24.02-2.38-36.04.02-14.62-.01-29.23-.05-43.84l32.74-4.75c.03 17.85-.04 35.71.02 53.57.13 7.64-.34 15.44 1.7 22.9 1.63 6.59 4.86 12.62 8.56 18.26 6.74-11.89 11.55-25.29 11.22-39.11-.4-19.42.01-38.84-.06-58.26z"/><path d="m604.4841 92.41022 27.45-4.05c-7.07 12.75-14.06 25.55-21.35 38.17-1.56 2.91-4.47 4.83-7.65 5.52-5.9 1.41-11.96 1.9-17.93 2.86-8.48-11.94-16.92-23.9-25.35-35.88l28.22-4.16c2.58 3.58 5.16 7.17 7.72 10.77 3.02-4.37 5.96-8.8 8.89-13.23z"/><path d="m894.1941 93.95022 32.82002-4.77v29.82c-.21 12.43.73998 25.14-2.81002 37.23-3.51 13.86-11.8 25.75-20.73 36.66 4.69 5.15 9.56 10.2 13.38 16.06 7.76 11.39 10.77 25.4 10.05 39.04l-.03 48.76-33.27023 5.75v-59.76c-.85-9.53-6.01977-17.94-12.31977-24.87-2.93715 2.93715-5.99 5.75-7.75 9.49-.43344 3.75-.50869 7.05951-.59 11.52-.09 22.03-.04 44.07-.06 66.1-10.32 1.4-22.56998 2.81-32.89998 4.19v-206.48l25.01998-5.03c3.75818-1.007 7.88 2.36 7.67 6.24.1 26.36-.03 52.74.06 79.1 10.17-12.07 20.28-25.69 21.22-42.07.56-15.65.09-31.32.24-46.98z"/><path d="m765.0441 111.10022c12.56-5.51 27.58-6.46 40.15-.49 7.51 3.52 13.15 10.37 15.7 18.2 3.87 11.41 2.44 23.63 2.6 35.46-8.22652 4.11682-18.11728 6.56939-31.94 5.09-.82-9.02-.87-18.12-2.24-27.07-.69-4.21-5.65-5.37-9.25-4.86-5.35.48-10.27 4.96-10.27 10.51-.62 10-.53 20.06.15 30.05.06 4.66 2.94 8.72 6.64 11.33 8.3 5.88 17.17 10.9 25.75 16.35 11.57 7.53 19.06 20.51 20.4 34.18 1.23 13.66 1 27.47-.61 41.09-1.12 9.88-6.19816 19.15042-12.81 26.33-4.28662 4.6547-10.49129 7.24058-16.33 9.68-5.40858 2.25972-11.15287 4.22968-17.01 4.46-6.74117.26508-14.06818-.22294-19.92-3.58-7.98169-4.57892-15.39-11.83-17.93-20.99-3.24-11.8-2.5-24.18-1.98-36.27l33.24-4.57c.11 8.66-.18 17.34.12 26 .17 3.01.9 7.12 4.45 7.78 3.93.54 8.21-.05 11.61-2.18 3.37-2.41 3.98-6.85 4.54-10.65 1.35-10.59.88-21.35-.74-31.88-.65-4.36-2.71-8.51-6.03-11.44-10.38-8.61-23.09-13.98-33.28-22.83-8.13-7.17-12.6-17.68-13.42-28.38-.83-7.47-.87-15.02-.39-22.51.53-7.84.33-15.95 3.32-23.35 4.36-11.65 14.14-20.69 25.48-25.46z"/><path d="m654.07412 128.55022 71.37998-10.2-.01 29.76-38.33 5.49-.56 57.86 34-4.35.33 29.58-34.04 4.7-.06 58.71 38.72977-4.95v29.86115l-71.43972 8.87885v-205.34z"/><path d="m595.8741 133.79022c10.31-1.87 21.64-.26 30.08 6.26 6.5 5.04 12.09 12.29 12.59 20.78.67 10.46.21 20.97.09 31.45-10.75 1.44-21.47 3.03-32.21 4.55 0-7.98.11-15.96-.02-23.94-.18-2.69-.13-6.15-2.83-7.64-5.6-3.09-13.41-.7-16.3 5.02-2.66 5.14-2 11.12-2.08 16.71-.12 37.99-.02 75.98-.06 113.96.14 4.52.16 9.83 3.63 13.22 2.97 2.09 6.94.86 10.14-.08 4.46-1.34 7.15-5.87 7.4-10.34.5-8.2.06-16.41.17-24.62l32.43-5.48c.03 12.44 2.04 25.12-1.08 37.36-3.07 13.47-14.80563 22.83288-25.96 29.88-5.52851 3.49281-12.37306 4.85594-18.9 5.26-6.23617.38606-12.85971-.15747-18.54-2.76-7.04985-3.23002-12.97934-8.9773-17.62-15.19-2.149-2.87698-4.43025-6.229-4.43-9.82l.01-145.81c.0004-5.9036 3.70815-11.2055 6.85-16.29 7.89091-12.76997 22.22-20.1 36.64-22.48z"/><path d="m1021.3831 308.23077c12.5657-5.57704 27.5926-6.5386 40.1684-.49596 7.5134 3.56282 13.156 10.49616 15.7072 18.42143 3.8718 11.54882 2.4411 23.91749 2.6012 35.89142-8.2303 4.16691-18.1256 6.64931-31.9547 5.15193-.8203-9.12975-.8704-18.34046-2.241-27.39935-.6903-4.26122-5.6526-5.43533-9.2542-4.91913-5.3525.48584-10.2747 5.02035-10.2747 10.63787-.6203 10.12167-.5303 20.30406.15 30.4156.06 4.7167 2.9414 8.82609 6.6431 11.46785 8.3038 5.95154 17.1779 11.0326 25.7618 16.54892 11.5753 7.6216 19.0687 20.75952 20.4094 34.59584 1.2305 13.82619 1.0004 27.80421-.6103 41.58992-1.1205 10.0002-6.2011 19.38341-12.8159 26.65034-4.2886 4.71133-10.4961 7.32867-16.3375 9.79777-5.4111 2.28721-11.158 4.28114-17.0178 4.51427-6.7443.26831-14.0747-.22566-19.9292-3.62356-7.9853-4.63462-15.397-11.97393-17.9382-21.24538-3.2415-11.94356-2.5011-24.47418-1.9809-36.71127l33.2553-4.6256c.11 8.76536-.1801 17.55096.12 26.31632.1701 3.04662.9004 7.20663 4.4521 7.87466 3.9318.54657 8.2137-.0506 11.6153-2.20652 3.3715-2.43933 3.9818-6.93334 4.5421-10.77958 1.3506-10.71884.8804-21.60975-.7404-32.26786-.6503-4.41305-2.7112-8.61354-6.0327-11.57919-10.3848-8.71475-23.1006-14.15008-33.2953-23.10776-8.1337-7.25722-12.6058-17.89509-13.4262-28.72527-.8303-7.56088-.8704-15.20274-.3901-22.78387.5302-7.93538.3301-16.14405 3.3215-23.63408 4.362-11.79174 14.1465-20.94173 25.4917-25.76976z" stroke-width="1.006296"/><path d="m919.0341 323.31022 32.36027-4.29v178.55l37.85973-4.69v29.95l-70.24 8.65z"/><path d="m864.6341 330.44022 31.44-4.21c.74 4.55 1.34 9.29732 1.34 13.76-.07 47.99.1 95.97-.09 143.95-.04 9.02.58 18.27-2.2 27-2.61 8.95-8.24 17.03-15.93 22.33-5.5 4.02-11.84836 6.65229-18.31 8.56-3.49171 1.03088-7.18118 1.60722-10.82 1.49-6.95007-.22388-14.13-.91-20.44-4.17-8.64-4.01-14.93-12.16-17.43-21.26-2.01-6.45-1.79-13.28-1.75-19.95.02-53.39-.01-106.78.02-160.17l32.8-4.38c.02 50.86-.04 101.72.03 152.58.22 6.6-.54 13.31.92 19.81.58 2.55 1.91 5.48 4.78 6.03 4.73.76 10.34-.48 13.25-4.59 2.16-2.93 2.37-6.72 2.41-10.22-.03-55.52.01-111.04-.02-166.56z"/><path d="m741.8441 346.44022c9.84-1.09 20.07-3.11 29.75.03 8.57 2.58 15.96 8.92 19.56 17.15 2.55 5.41 3.25 11.45 3.22 17.38.03 15.32.04 30.64-.03 45.97.03 5.99.15 12.11-1.59 17.91-4.4 15.5-17.97 27.89-33.76 30.96-6.08 1.13-12.26 1.6-18.38 2.44l-.05 73.2c-1.10503 1.91397-5.45 3.24-8.62 3.54l-23.92 2.9.01-206.51c11.19-2.18 22.53-3.4 33.81-4.97m-.98 30.48.44 71.07c4.47-.59 9.08-.69 13.36-2.22 4.71-1.79 7.25-6.91 7.02-11.77.05-16.38 0-32.76.03-49.13.1-3.55-.96-7.95-4.81-9.08-5.33-1.04-10.73.59-16.04 1.13z"/><path d="m635.6241 359.57022c11.44-5.34 25.62-5.46 36.53 1.24 9.41 5.56 15.34 16.2 15.48 27.08.43 18 .18 36.01.2 54.02v118.03l-32.76 4.04v-169.99c.28-3.48-1.85-7.1-5.44-7.72-5.95-.88-11.4 4.84-10.96 10.7l.02 167.98-29.92 5.41c-1.07046-.61803-3.58-4.56-3.68-7.45v-157.98c-.16-3.31.46-6.92-1.02-10-3.22-3.31-9.44-2.66-12.27.93-3.03 3.63-2.94 8.67-3.15 13.14l-.08 163.27-32.68024 3.97v-156.28c.05-9.95-.74976-20.35 3.29024-29.72 8.11-19.56 31.19-30.69 51.68-26.9 3.81.53 7.1 3.05 10.83 3.6 4.82-2.09 9.04-5.37 13.93-7.37z"/><path d="m502.7941 378.80022 31.04001-4.13v204.46l-28.15001 3.53c-1.92537-.5159-4.13974-2.34442-4.13974-6.76-.12-62.65.08-125.31 0-187.96-.01-3.1.58448-7.98773 1.24974-9.14z"/><path d="m972.0541 562.26022c6.6366.33966 10.3023 2.96753 12.69 4.91 5.06 3.94 7.97 10.34 7.9 16.73l.01 127.15-16.4 1.88v-123.97c0-5.47313-2.49-9.52-7.31-9.86-3.3957-.15788-6.36583 1.21919-8.01353 4.72615-.76194 1.44013-.7724 2.62207-.79262 4.25173l-.18385 14.82212-.01 111.83-17.55 1.97c0-41.58-.02-83.16.01-124.75-.14-2.31-.13-4.92-1.72-6.76-1.85-1.97-4.85-2.38-7.37-1.83-2.93.78-4.79 3.5-5.86 6.17-1.92 4.92-1.28 10.3-1.38 15.47l-.06 113.7-16.31 1.92-.08-123.67c-.3-7.19 2.65-14.03 6.47-19.95 5.74-6.74 14.58-11.11 23.53-10.57 4.2.35 7.6 3.02 11.38 4.58 3.76-1.8 6.82-4.76 10.63-6.49 3.4223-1.76778 6.0552-2.29913 10.42-2.26z"/><path d="m849.2141 581.17022c6.21-4.34 13.87-7.04 21.51-6 10.69.89 19.89 10.92 19.21 21.77l.01 125.78-16.36 1.86-.03-56.16-19.3 2.35-.35 56.05-16.58 2.01.12-123.94c.04-9.18 4.37-18.22 11.77-23.72m6.52 16.5c-1.9 3.04-1.94 6.76-2 10.24.07 15.39.01 30.78.04 46.17l19.75-2.32c-.04-17.28.04-34.55-.02-51.82.29-3.91-2.76-7.42-6.55-8.05-4.55-1.04-8.95 2.02-11.22 5.78z"/><path d="m766.7741 589.72022 14.42-1.73.01 146.89-16.25 1.87.02-121.1c-4.34 8.2-12.77023 14.1-21.88023 15.65v-15.86c10.81-5.12 19.15-14.74 23.68-25.72z"/><path d="m686.3541 601.39022c4.19207-3.34835 9.58741-6.00897 15.2355-6.58887 1.00491-.14029 1.83266-.17396 2.79178-.21492 7.93787-.40841 16.4238 3.48377 20.08272 10.76379 1.69 3.29 3.22027 5.28724 3.22027 10.59v28.08c-.46 9.74-7.24027 17.43-13.82027 23.95 3.78 2.81 8.12 5.25 10.59 9.42 2.51 4.04 3.19027 8.89 3.23027 13.56.07 9.36.11973 18.72-.0903 28.08-.15 6.2-2.39149 12.34569-6.5 17.06-4.91214 5.63644-11.82593 9.73-19.17 10.44-5.96288.57647-12.47455-.35469-17.59-3.9-4.10548-2.84534-6.36-7.51-7.94-12.07-1.86-5.33-1.24023-11.05-1.37023-16.57.07-7.28-.28977-14.6.59023-21.84 1.25-8.81 8.26-14.97 13.44-21.65-4.4-4.77-10.56-8.42-12.52-14.96-1.68419-5.7221-1.55342-11.68154-1.53496-17.62445l.0247-7.96555c-.28-10.38 2.69023-22.01 11.33023-28.56m14.84 9.79c-4.3.57-7.23 4.43-8.74 8.21-.72217 2.23778-.9387 4.55006-.98421 6.8832l.0671 17.21605c.23973 3.86212 1.02472 7.61263 3.35789 10.76982 1.36609 1.56205 2.82691 3.39703 4.3067 4.54672l2.43694 1.85005c3.38-2.85 6.46556-7.28584 8.75556-11.05584.72933-2.04388.78265-4.16977.81058-6.32103v-23.6278c-.0872-1.46685.0545-2.39127-.59496-4.06317-1.60771-3.40087-5.8844-4.79242-9.41566-4.408m.16 67.25c-5.00004 3.50776-7.76 8.1-9.07 13.59-1.39 5.87-1.12112 11.56157-1.12112 17.92.03 5.45-.32375 11.34913 2.57112 16.29 1.09671 1.87183 3.01848 3.20652 5.25 3.17 3.26956-.0535 7.02861-.18366 9.23-3.18 3.9338-5.35434 3.68224-12.34556 3.70224-18.47556-.28-6-.11224-11.87444-.99224-17.83444-.93-5.24-4.96-9.21-9.57-11.48z"/><path d="m606.6441 618.62022c5.37-10 17.07-15.64 28.19-15.26 6.18.19 11.46 3.93 15.74 8.07 3.53 3.54 4.77 8.66 4.75 13.53.04 31.99-.04 63.98.03 95.96.15 6.23-.1798 12.73574-3.1 18.37-4.72999 9.1261-14.68638 15.7342-25.01 15.37-4.43438-.15644-9.16776-.43959-13.05-2.92-7.89011-5.04109-12.08-14.64-11.54-23.79.08-4.45.05-8.89.02-13.33l16.47-1.95.1073 13.85054c.0229 2.95713.45777 6.40227 2.5427 8.49946 2.0347 2.04666 5.53229 3.41254 8.28 2.53 4.62991-1.48708 8.86138-6.72712 8.86-11.59l-.01-35.22c-2.30556 2.30556-4.0548 4.43355-7.85 4.74-7.8.76-16.83-.08-22.21-6.5-3.94-5.07-6.62-11.5-6.22-18 .09-11 .08-21.99.02-32.98-.28-6.64.74-13.5 3.98-19.38m20.67 1.74c-5.11 1.79-8.14 7.28-8.12 12.54-.15 12.03-.16 24.07.04 36.1-.1 4.06 2.13 8.15 5.99 9.69 4.14 1.95 8.99-.34 11.62-3.7 2.07-2.53 2.09-5.95 2.14-9.04 0-11.34-.21-22.67-.01-34-.08-3.11.21-6.58-1.8-9.18-2.2-3.03-6.54-3.25-9.86-2.41z"/></g></svg>