<svg id="a" width="675.22" height="217" version="1.1" viewBox="0 0 633.02 203.44" xmlns="http://www.w3.org/2000/svg">
 <g id="b" transform="translate(104.82 -642.68)" fill="#000f37">
  <path id="c" d="m195.15 782.25v-62.515h-13.192v19.655c-3.1905-2.6528-6.8215-4.1584-10.98-4.1584-13.904 0-20.193 12.04-20.193 24.526 0 11.692 6.5552 23.645 19.573 23.645 4.691 0 9.4743-1.4186 12.127-5.5821v4.4299zm-12.752-22.667c0 6.0174-1.5927 13.013-8.9416 13.013-7.5282 0-9.3872-7.1697-9.3872-13.459 0-5.7562 2.2124-13.192 9.208-13.192 7.6152 0 9.1209 7.436 9.1209 13.638m-38.947-2.8423c0-3.7231 0.17924-9.039-1.2393-12.491-3.3646-7.9737-11.958-9.2131-19.578-9.2131-10.36 0-18.954 4.4298-19.573 15.855h12.045c-0.17412-4.5169 4.4299-5.7563 8.0608-5.7563 2.745 0 7.0007 0.70673 7.0007 4.2506 0 3.2776-4.7832 3.4568-7.0878 3.8102-9.9198 1.4186-22.59 2.5657-22.59 15.589 0 9.3001 7.0878 14.79 15.947 14.79 6.5552 0 9.3872-1.9461 14.437-5.49l0.0871 4.1636 12.496-5e-3zm-12.931 10.627c-2.2175 3.8102-6.381 5.9355-10.719 5.9355-3.0113 0-6.1096-1.4186-6.1096-4.8703 0-5.9355 9.4742-6.0226 13.638-7.0878 1.0652-0.26631 2.1253-0.61967 3.1905-1.0652zm74.36-47.632h12.926v11.779h-12.926zm0 16.644h12.926v45.871h-12.926zm42.859 47.197c-14.345 0-23.286-9.9147-23.286-23.993 0-14.877 9.6484-24.531 24.526-24.531 14.078 0 22.933 10.36 22.933 24.085 0 14.17-9.9147 24.438-24.172 24.438m0.61967-38.076c-7.8816 0-10.539 6.7293-10.539 13.551 0 6.6422 2.4838 13.899 10.36 13.899 8.0608 0 10.36-7.5231 10.36-14.345 0-6.55-2.4787-13.105-10.181-13.105m-157.91 7.3848c2.8372-3.6361 3.9024-8.4244 3.9024-12.946 0-3.1035-0.61967-6.7344-1.9512-9.5716-4.522-9.3974-12.941-10.729-22.426-10.729h-24.116v62.586h14.186v-21.632h9.4435l13.044 21.632h15.707l-14.386-23.85c2.3865-1.142 4.5937-2.8628 6.5961-5.49m-10.191-12.854c0 3.5439-1.6849 6.5603-4.9676 8.0659-2.1253 0.97303-5.408 0.97303-7.7126 0.97303-2.4787 0-5.0495-0.0871-7.5333-0.0871v-17.909h6.8266c4.0765 0 8.6856-0.17412 11.523 3.3698 1.2393 1.5978 1.8641 3.5439 1.8641 5.5872"/>
  <g id="d" transform="matrix(5.1212 0 0 -5.1212 -104.35 757.8)">
   <path id="e" d="m0 0h19.067l2.933-4.769h-22zm0 7.451v-4.735h17.396l-2.913 4.735zm18.662 2.716h-18.662v4.744h19.913c9e-3 -0.186 0.014-0.374 0.012-0.566-0.016-1.765-0.439-3.126-1.263-4.178m-9.087 12.22h-9.575v-4.761h19.317c-1.396 3.253-5.071 4.761-9.742 4.761" fill="#000f37"/>
  </g>
  <g id="f" transform="matrix(5.1212 0 0 -5.1212 61.236 806.61)">
   <path id="g" d="m0 0h-1.413l-0.759 0.959h1.111l0.367-0.556 0.351 0.556h1.128zm28.268-4.118c0-0.633-0.215-1.332-0.963-1.332-0.732 0-0.963 0.674-0.963 1.291 0 0.633 0.248 1.258 0.979 1.258 0.716 0 0.947-0.608 0.947-1.217m1.242-0.049c0 1.275-0.823 2.237-2.13 2.237-1.383 0-2.279-0.897-2.279-2.279 0-1.308 0.831-2.229 2.163-2.229 1.324 0 2.246 0.955 2.246 2.271m-4.606 1.077v1.102c-0.074 9e-3 -0.14 0.017-0.215 0.017-0.575 0-0.896-0.247-1.101-0.782v0.7h-1.185v-4.261h1.242v1.39c0 0.214 0 0.436 9e-3 0.65 0.016 0.691 0.115 1.209 0.962 1.209 0.099 0 0.189-8e-3 0.288-0.025m-9.246-3.224-1.759 2.649 1.644 1.612h-1.571l-1.316-1.456v3.002h-1.209v-5.807h1.209v1.415l0.395 0.395 1.069-1.81zm-4.835 1.307c0 1.07-1.054 1.26-1.876 1.432-0.222 0.049-0.724 0.107-0.724 0.411 0 0.305 0.362 0.346 0.592 0.346 0.231 0 0.493-0.083 0.642-0.272 0.066-0.082 0.09-0.246 0.107-0.345l1.135 0.057c-0.049 1.045-0.93 1.448-1.867 1.448-0.864 0-1.777-0.345-1.777-1.349 0-1.703 2.533-1.086 2.533-1.851 0-0.337-0.345-0.394-0.608-0.394-0.543 0-0.831 0.156-0.905 0.707l-1.152-0.041c0-0.14 8e-3 -0.255 0.041-0.395 0.214-0.881 1.119-1.185 1.934-1.185 0.929 0 1.925 0.33 1.925 1.431m-5.528 1.391h-1.703c0.132 0.485 0.395 0.732 0.913 0.732 0.436 0 0.749-0.304 0.79-0.732m1.275-0.922v0.206c0 1.316-0.675 2.402-2.098 2.402-1.308 0-2.155-0.979-2.155-2.254 0-1.308 0.806-2.254 2.155-2.254 0.938 0 1.744 0.445 2.048 1.357l-1.217 0.083c-0.181-0.321-0.419-0.452-0.798-0.452-0.559 0-0.847 0.386-0.921 0.912zm-4.516 0.165-1.357 0.09c-8e-3 -0.658-0.625-1.069-1.242-1.069-0.329 0-0.642 0.107-0.897 0.313-0.493 0.412-0.592 1.061-0.592 1.661 0 0.963 0.387 1.917 1.489 1.917 0.452 0 0.855-0.173 1.085-0.584 0.05-0.099 0.099-0.198 0.124-0.304l1.308 0.09c-0.016 0.14-0.058 0.264-0.099 0.395-0.345 1.028-1.373 1.497-2.402 1.497-1.817 0-2.912-1.242-2.912-3.019 0-1.217 0.576-2.41 1.753-2.871 0.361-0.139 0.756-0.188 1.143-0.188 0.946 0 1.826 0.345 2.311 1.192 0.157 0.271 0.255 0.576 0.288 0.88m41.398-0.558c-0.205-0.354-0.592-0.552-0.995-0.552-0.28 0-0.568 0.133-0.568 0.454 0 0.551 0.881 0.559 1.267 0.658 0.099 0.024 0.197 0.057 0.296 0.098zm1.202 0.987c0 0.346 0.016 0.84-0.116 1.16-0.313 0.741-1.111 0.857-1.817 0.857-0.963 0-1.762-0.412-1.82-1.474h1.12c-0.016 0.42 0.411 0.535 0.749 0.535 0.255 0 0.65-0.065 0.65-0.395 0-0.304-0.445-0.321-0.659-0.353-0.921-0.132-2.098-0.239-2.098-1.449 0-0.863 0.658-1.374 1.482-1.374 0.608 0 0.872 0.181 1.341 0.511l8e-3 -0.387h1.161zm4.5-1.067c0 1.07-1.052 1.259-1.875 1.431-0.222 0.05-0.724 0.107-0.724 0.412 0 0.304 0.362 0.345 0.592 0.345 0.231 0 0.494-0.082 0.642-0.271 0.065-0.082 0.09-0.247 0.107-0.346l1.135 0.058c-0.05 1.045-0.929 1.448-1.867 1.448-0.864 0-1.777-0.346-1.777-1.349 0-1.703 2.533-1.086 2.533-1.851 0-0.337-0.344-0.395-0.609-0.395-0.542 0-0.831 0.156-0.904 0.707l-1.152-0.04c0-0.14 9e-3 -0.256 0.041-0.395 0.214-0.881 1.119-1.185 1.933-1.185 0.93 0 1.925 0.329 1.925 1.431m-9.122-1.308h-1.209v5.807h1.209zm-3.257 0v2.386c0 0.271 0.017 0.6-0.205 0.798-0.116 0.107-0.272 0.148-0.428 0.148-0.181 0-0.329-0.05-0.469-0.165-0.289-0.239-0.271-0.641-0.271-0.978v-2.189h-1.201v5.808h1.201v-1.983c0.188 0.338 0.797 0.535 1.159 0.535 0.281 0 0.617-0.074 0.847-0.239 0.494-0.353 0.576-0.83 0.576-1.398v-2.723zm-6.967 0v0.906l2.106 2.351h-1.867v1.004h3.372v-0.979l-2.04-2.278h2.18v-1.004zm-10.683 6.059h-1.451l-0.59-1.228h0.941zm0.509-1.793h-1.283l-0.707-2.871-0.774 2.871h-1.316l1.234-3.455c0.066-0.189 0.173-0.403 0.173-0.609 0-0.14-0.066-0.345-0.181-0.436-0.116-0.09-0.371-0.107-0.511-0.107-0.106 0-0.213 8e-3 -0.32 8e-3v-0.954c0.107 0 0.214-0.016 0.32-0.016 0.527 0 1.193-0.033 1.555 0.419 0.173 0.222 0.313 0.65 0.403 0.921z" fill="#000f37"/>
  </g>
  <g id="h" transform="matrix(.93705 0 0 .93705 -115.08 604.39)">
   <path id="i" d="m448 123c9.01 0.03 18.02-0.07 27.03 0.04 6.22 0.17 13 0.85 17.9 5.12 6.09 5.32 7.69 14.18 6.26 21.85-1.18 7.44-6.97 14.04-14.36 15.79-7.08 1.63-14.39 0.71-21.58 0.96l-0.01 22.99-15.23 0.01-0.01-66.76m15.24 12.52 0.01 18.72c5.3504 0 10.794 0.35891 15.94-1.02 6.71-2.35 7.22-13.4 0.73-16.33-3.5428-1.8334-11.14-1.37-16.68-1.37z"/>
   <path id="j" d="m590.24 123.01h14.01l-0.13 22.16c5.83-5.78 15.67-7.37 22.81-3.15 5.38 3.27 6.85 10.05 6.98 15.91 0.2 10.61 0.04 21.22 0.08 31.83l-14.23-0.01c-0.09-10.27 0.12-20.54-0.09-30.8-0.01-3.66-2.64-7.62-6.69-7.24-4.85-0.68-8.35 3.89-8.42 8.36-0.71 9.87-0.11 19.79-0.32 29.68h-13.99z"/>
   <path id="k" d="m546.03 142c7.27-3.56 15.89-3.19 23.58-1.34 6.24 1.64 10.91 7.43 10.97 13.93 0.4 11.71 0.06 23.44 0.17 35.16h-13.5v-4.28c-6.98 5.86-17.62 7.95-25.6 2.9-8.44-5.05-9.47-19.31-1.02-24.8 6.89-4.46 15.45-3.95 23.14-5.88 3.01-0.56 3.41-4.88 0.71-6.16-4.76-2.48-13.54-1.65-14.03 4.99l-12.98-0.01c0.25-5.89 3.15-11.79 8.56-14.51m5.05 29.12c-2.89 1.93-2.39 6.85 0.89 8.12 5.39 2.18 11.79-0.68 14.84-5.4l-0.06-7.19c-5.12 1.86-11.05 1.34-15.67 4.47z"/>
   <path id="l" d="m650.61 142.68c6.9-4.14 15.5-3.86 23.15-2.43 6.13 1.15 11.99 6.11 12.22 12.67l0.01 36.84-12.94 0.01-0.14-4.18c-3.18 1.97-6.29 4.31-10.03 5.07-6.03 1.26-12.96 0.4-17.64-3.9-7.13-6.45-6.27-20.44 3.14-24.35 6.17-2.98 13.16-3.09 19.78-4.34 1.57-0.35 3.86-1.12 3.84-3.08 0.43-2.88-2.75-4.3-5.11-4.54-4.43-0.85-10.32 0.8-10.84 6.03h-12.93c0.44-5.39 2.69-10.9 7.49-13.8m6.35 28.31c-3.18 1.86-2.56 6.94 0.79 8.26 5.21 2.08 11.9-0.52 14.58-5.41l0.18-7.19c-5.07 1.84-10.93 1.33-15.55 4.34z"/>
   <path id="m" d="m524.67 141.72c2.95-1.97 6.66-2.03 10.09-1.83l-0.03 12.88c-3.65-0.33-7.81-0.46-10.73 2.12-2.86 2.46-3.51 6.48-3.51 10.06l0.04 24.75-14.52 0.06v-49.01h13.75l-0.11 7.27c1.31-2.35 2.68-4.83 5.02-6.3z"/>
  </g>
 </g>
</svg>
