<svg enable-background="new 0 0 600 600" height="292.88599" viewBox="0 0 567.80902 292.88599" width="567.80902" xmlns="http://www.w3.org/2000/svg"><g transform="translate(-16.096 -153.557)"><path d="m201.665 234.661c4.533-2.987 10.782-4.481 18.751-4.481 7.251 0 13.047 1.317 17.396 3.946 3.6 2.175 5.691 5.206 6.306 9.059v-35.502c-.656-.199-1.283-.424-1.957-.608-6.884-1.808-14.313-2.713-22.288-2.713-18.482 0-32.703 4.169-42.668 12.497-9.963 8.337-15.67 19.571-17.119 33.701h33.428c.907-7.607 3.624-12.907 8.151-15.899z"/><path d="m244.118 310.898c-1.746 3.931-4.25 7.011-7.531 9.239-5.34 3.618-12.182 5.435-20.52 5.435-8.152 0-14.444-1.45-18.885-4.349-4.44-2.902-6.66-6.794-6.66-11.682 0-3.269 1.045-5.889 3.123-7.886 2.087-1.994 4.805-3.624 8.155-4.893 3.355-1.266 7.248-2.31 11.684-3.122 4.445-.824 9.018-1.675 13.725-2.587 5.836-1.164 11.458-2.508 16.907-3.976v-39.192c-.409 2.045-1.424 3.703-3.045 4.987-2.174 1.727-5.029 3.173-8.562 4.352-3.533 1.173-7.609 2.129-12.229 2.851-4.621.722-9.376 1.63-14.268 2.716-5.796 1.269-11.64 2.716-17.53 4.346-5.883 1.633-11.185 4.036-15.895 7.203-4.713 3.176-8.518 7.339-11.414 12.499-2.898 5.161-4.354 11.823-4.354 19.983 0 7.059 1.456 13.357 4.354 18.882 2.896 5.525 6.93 10.196 12.092 13.997 5.163 3.802 11.327 6.746 18.48 8.83 7.16 2.081 15.083 3.128 23.781 3.128 10.87 0 20.372-1.335 28.591-3.904v-36.857z"/><path d="m298.891 234.661c-4.533-2.987-10.782-4.481-18.753-4.481-7.247 0-13.045 1.317-17.394 3.946-3.602 2.175-5.692 5.206-6.309 9.059v-35.502c.659-.199 1.287-.424 1.961-.608 6.885-1.808 14.31-2.713 22.285-2.713 18.482 0 32.702 4.169 42.669 12.497 9.961 8.337 15.67 19.571 17.119 33.701h-33.427c-.907-7.607-3.626-12.907-8.151-15.899z"/><path d="m256.435 310.898c1.747 3.931 4.251 7.011 7.531 9.239 5.345 3.618 12.184 5.435 20.52 5.435 8.152 0 14.446-1.45 18.888-4.349 4.439-2.902 6.659-6.794 6.659-11.682 0-3.269-1.043-5.889-3.128-7.886-2.081-1.994-4.799-3.624-8.149-4.893-3.358-1.266-7.25-2.31-11.686-3.122-4.445-.824-9.017-1.675-13.724-2.587-5.841-1.164-11.457-2.508-16.91-3.976v-39.192c.414 2.045 1.424 3.703 3.047 4.987 2.174 1.727 5.03 3.173 8.562 4.352 3.531 1.173 7.611 2.129 12.231 2.851s9.376 1.63 14.268 2.716c5.794 1.269 11.637 2.716 17.526 4.346 5.886 1.633 11.188 4.036 15.898 7.203 4.713 3.176 8.514 7.339 11.414 12.499 2.899 5.161 4.352 11.823 4.352 19.983 0 7.059-1.453 13.357-4.352 18.882s-6.93 10.196-12.09 13.997c-5.164 3.802-11.327 6.746-18.482 8.83-7.16 2.081-15.082 3.128-23.78 3.128-10.87 0-20.372-1.335-28.594-3.904v-36.857z"/><path d="m394.367 234.661c-4.533-2.987-10.785-4.481-18.753-4.481-7.248 0-13.047 1.317-17.396 3.946-3.603 2.175-5.691 5.206-6.307 9.059v-35.502c.656-.199 1.284-.424 1.958-.608 6.885-1.808 14.31-2.713 22.287-2.713 18.482 0 32.702 4.169 42.666 12.497 9.964 8.337 15.673 19.571 17.123 33.701h-33.427c-.909-7.607-3.628-12.907-8.151-15.899z"/><path d="m351.911 310.898c1.744 3.931 4.25 7.011 7.531 9.239 5.342 3.618 12.184 5.435 20.518 5.435 8.157 0 14.446-1.45 18.888-4.349 4.439-2.902 6.659-6.794 6.659-11.682 0-3.269-1.043-5.889-3.128-7.886-2.084-1.994-4.803-3.624-8.151-4.893-3.353-1.266-7.248-2.31-11.685-3.122-4.445-.824-9.014-1.675-13.727-2.587-5.835-1.164-11.456-2.508-16.906-3.976v-39.192c.409 2.045 1.426 3.703 3.047 4.987 2.174 1.727 5.032 3.173 8.56 4.352 3.534 1.173 7.609 2.129 12.229 2.851s9.378 1.63 14.271 2.716c5.796 1.269 11.64 2.716 17.526 4.346 5.886 1.633 11.188 4.036 15.901 7.203 4.71 3.176 8.511 7.339 11.411 12.499 2.899 5.161 4.352 11.823 4.352 19.983 0 7.059-1.453 13.357-4.352 18.882s-6.927 10.196-12.09 13.997c-5.167 3.802-11.327 6.746-18.479 8.83-7.158 2.081-15.083 3.128-23.784 3.128-10.87 0-20.371-1.335-28.591-3.904z"/><path d="m16.213 244.457c5.591-6.947 13.632-10.475 24.186-10.475 6.883 0 12.546 2.042 16.986 6.121 4.439 4.075 7.292 9.194 8.564 15.351h36.144c-1.271-7.609-3.581-14.539-6.934-20.791-3.349-6.25-7.7-11.595-13.043-16.034-5.344-4.433-11.641-7.925-18.885-10.464-7.248-2.532-15.405-3.801-24.461-3.801-8.155 0-15.671 1.113-22.557 3.329z"/><path d="m67.85 298.389c-1.268 7.979-4.349 13.91-9.241 17.802-4.892 3.901-11.143 5.847-18.75 5.847-10.423 0-18.288-3.405-23.646-10.124v36.032c7.424 2.46 15.569 3.714 24.456 3.714 9.243 0 17.622-1.404 25.142-4.213 7.514-2.803 13.948-6.611 19.297-11.411 5.342-4.806 9.599-10.418 12.769-16.852 3.172-6.427 5.032-13.357 5.575-20.795z"/><path d="m496.662 244.457c5.597-6.947 13.636-10.475 24.187-10.475 6.885 0 12.548 2.042 16.987 6.121 4.439 4.075 7.291 9.194 8.563 15.351h36.143c-1.266-7.609-3.579-14.539-6.93-20.791-3.354-6.25-7.703-11.595-13.044-16.034-5.347-4.433-11.643-7.925-18.888-10.464-7.245-2.532-15.405-3.801-24.458-3.801-8.157 0-15.673 1.113-22.56 3.329z"/><path d="m548.3 298.389c-1.266 7.979-4.349 13.91-9.242 17.802-4.89 3.901-11.14 5.847-18.75 5.847-10.421 0-18.286-3.405-23.646-10.124v36.032c7.426 2.46 15.573 3.714 24.464 3.714 9.239 0 17.619-1.404 25.138-4.213 7.513-2.803 13.949-6.611 19.294-11.411 5.345-4.806 9.604-10.418 12.774-16.852 3.167-6.427 5.026-13.357 5.573-20.795z"/><path d="m447.388 153.55701h36.960999v33.150002h-36.960999z"/><path d="m447.388 208.16299h36.960999v139.41901h-36.960999z"/><path d="m111.689 153.557h36.962v194.025h-36.962z"/><path d="m16.096 381.716h7.676v6.918h.192c1.83-2.526 4.011-4.497 6.537-5.925 2.525-1.417 5.594-2.129 9.193-2.129 3.096 0 5.938.586 8.528 1.753 2.593 1.173 4.801 2.845 6.632 5.02 1.833 2.181 3.271 4.884 4.315 8.102 1.042 3.224 1.564 6.854 1.564 10.9 0 3.916-.49 7.471-1.469 10.668-.979 3.185-2.385 5.895-4.217 8.145-1.833 2.247-4.076 3.961-6.727 5.164-2.654 1.203-5.624 1.801-8.91 1.801-3.349 0-6.254-.538-8.719-1.612-2.463-1.071-4.708-2.935-6.727-5.591h-.192v21.513h-7.676zm22.745 43.971c2.335 0 4.389-.49 6.161-1.468 1.767-.981 3.235-2.325 4.405-4.027 1.168-1.708 2.038-3.727 2.605-6.064.572-2.343.854-4.896.854-7.678 0-2.716-.283-5.26-.854-7.627-.567-2.37-1.436-4.421-2.605-6.166-1.17-1.726-2.622-3.086-4.356-4.072-1.742-.978-3.778-1.465-6.116-1.465-2.651 0-4.973.505-6.964 1.513-1.991 1.014-3.62 2.403-4.882 4.169-1.263 1.772-2.209 3.826-2.844 6.166-.629 2.334-.943 4.833-.943 7.483 0 2.656.283 5.149.85 7.486s1.469 4.379 2.701 6.115c1.233 1.738 2.828 3.11 4.788 4.123 1.953 1.004 4.356 1.512 7.2 1.512z"/><path d="m78.453 389.866h.186c1.456-2.406 3.429-4.457 5.924-6.16 2.498-1.702 5.387-2.557 8.672-2.557.696 0 1.265.045 1.708.141.44.09.914.232 1.419.424v7.396h-.286c-.567-.193-1.086-.319-1.561-.382-.474-.063-1.092-.096-1.847-.096-1.898 0-3.701.352-5.405 1.044-1.705.698-3.223 1.675-4.548 2.938-1.328 1.263-2.368 2.827-3.128 4.692-.756 1.859-1.137 3.931-1.137 6.205v27.204h-7.677v-49h7.677v8.151z"/><path d="m142.228 431.182c-4.863 0-7.677-2.424-8.432-7.299h-.095c-.761.95-1.646 1.886-2.653 2.803-1.012.914-2.182 1.75-3.509 2.511-1.328.758-2.828 1.356-4.502 1.799-1.675.439-3.552.659-5.639.659-2.335 0-4.513-.268-6.534-.8-2.026-.541-3.78-1.381-5.26-2.511-1.489-1.143-2.654-2.557-3.509-4.265-.851-1.711-1.281-3.727-1.281-6.066 0-2.902.541-5.272 1.612-7.104 1.074-1.838 2.561-3.32 4.454-4.457 1.897-1.134 4.152-2.009 6.775-2.611 2.623-.593 5.45-1.152 8.483-1.651 1.706-.256 3.284-.524 4.74-.809 1.451-.28 2.699-.659 3.74-1.14 1.042-.469 1.849-1.104 2.421-1.889.565-.797.85-1.85.85-3.179 0-2.779-.949-4.908-2.841-6.394-1.896-1.486-4.615-2.232-8.154-2.232-3.976 0-6.981.872-9 2.614-2.021 1.735-3.098 4.469-3.223 8.196h-7.39c.059-2.34.504-4.535 1.325-6.59.82-2.051 2.038-3.805 3.646-5.257 1.612-1.456 3.636-2.608 6.067-3.462 2.432-.851 5.259-1.278 8.483-1.278 2.588 0 4.99.271 7.202.809 2.211.532 4.122 1.402 5.733 2.605 1.61 1.2 2.875 2.797 3.791 4.788.916 1.988 1.375 4.433 1.375 7.339v23.315c0 2.024.332 3.522.993 4.497.665.983 2.071 1.224 4.218.713h.286v5.591c-.507.19-1.075.364-1.705.529-.635.145-1.456.226-2.467.226zm-23.122-5.395c2.526 0 4.739-.427 6.635-1.287 1.895-.845 3.442-1.91 4.644-3.164 1.196-1.272 2.099-2.674 2.702-4.223.597-1.546.899-3.047.899-4.505v-8.334c-1.266.818-2.922 1.531-4.976 2.132-2.056.598-4.12 1.086-6.206 1.462-1.897.382-3.698.761-5.405 1.146-1.705.376-3.172.929-4.406 1.657-1.23.731-2.212 1.657-2.935 2.791-.728 1.14-1.089 2.596-1.089 4.361 0 1.645.296 2.987.898 4.027.598 1.04 1.375 1.847 2.322 2.412.95.571 2.021.965 3.223 1.188 1.199.222 2.432.337 3.694.337z"/><path d="m162.128 388.161h.189c1.77-2.334 3.901-4.19 6.397-5.549 2.496-1.356 5.545-2.033 9.143-2.033 5.12 0 9.146 1.344 12.086 4.03 2.935 2.683 4.404 6.584 4.404 11.7v34.407h-7.674v-33.74c0-3.221-.98-5.691-2.941-7.396-1.958-1.705-4.674-2.557-8.148-2.557-1.961 0-3.76.328-5.402.996-1.644.659-3.065 1.579-4.265 2.746-1.202 1.173-2.131 2.586-2.796 4.265-.663 1.675-.996 3.522-.996 5.543v30.142h-7.676v-67.765h7.676v25.211z"/><path d="m245.336 431.182c-4.868 0-7.679-2.424-8.436-7.299h-.093c-.758.95-1.645 1.886-2.656 2.803-1.009.914-2.179 1.75-3.504 2.511-1.33.758-2.829 1.356-4.502 1.799-1.674.439-3.555.659-5.641.659-2.334 0-4.514-.268-6.537-.8-2.023-.541-3.779-1.381-5.259-2.511-1.484-1.143-2.654-2.557-3.507-4.265-.854-1.711-1.278-3.727-1.278-6.066 0-2.902.537-5.272 1.612-7.104 1.074-1.838 2.556-3.32 4.448-4.457 1.898-1.134 4.158-2.009 6.778-2.611 2.623-.593 5.453-1.152 8.483-1.651 1.708-.256 3.284-.524 4.739-.809 1.454-.28 2.702-.659 3.743-1.14 1.044-.469 1.851-1.104 2.417-1.889.567-.797.852-1.85.852-3.179 0-2.779-.946-4.908-2.844-6.394-1.893-1.486-4.614-2.232-8.146-2.232-3.982 0-6.982.872-9.007 2.614-2.021 1.735-3.096 4.469-3.223 8.196h-7.391c.063-2.34.507-4.535 1.326-6.59.823-2.051 2.041-3.805 3.651-5.257 1.61-1.456 3.633-2.608 6.063-3.462 2.432-.851 5.26-1.278 8.48-1.278 2.593 0 4.994.271 7.203.809 2.212.532 4.122 1.402 5.737 2.605 1.609 1.2 2.871 2.797 3.79 4.788.914 1.988 1.373 4.433 1.373 7.339v23.315c0 2.024.332 3.522.995 4.497.66.983 2.069 1.224 4.22.713h.283v5.591c-.508.19-1.078.364-1.707.529-.631.145-1.456.226-2.462.226zm-23.123-5.395c2.523 0 4.739-.427 6.629-1.287 1.897-.845 3.445-1.91 4.647-3.164 1.2-1.272 2.101-2.674 2.701-4.223.6-1.546.901-3.047.901-4.505v-8.334c-1.268.818-2.925 1.531-4.976 2.132-2.054.598-4.122 1.086-6.209 1.462-1.892.382-3.692.761-5.402 1.146-1.702.376-3.173.929-4.403 1.657-1.233.731-2.213 1.657-2.938 2.791-.728 1.14-1.09 2.596-1.09 4.361 0 1.645.301 2.987.901 4.027.597 1.04 1.371 1.847 2.32 2.412.949.571 2.02.965 3.223 1.188 1.198.222 2.431.337 3.696.337z"/></g></svg>