<?xml version="1.0" encoding="UTF-8" standalone="no"?>
<svg
   xmlns:dc="http://purl.org/dc/elements/1.1/"
   xmlns:cc="http://creativecommons.org/ns#"
   xmlns:rdf="http://www.w3.org/1999/02/22-rdf-syntax-ns#"
   xmlns:svg="http://www.w3.org/2000/svg"
   xmlns="http://www.w3.org/2000/svg"
   xmlns:sodipodi="http://sodipodi.sourceforge.net/DTD/sodipodi-0.dtd"
   xmlns:inkscape="http://www.inkscape.org/namespaces/inkscape"
   width="768.78998pt"
   height="396.5pt"
   viewBox="0 0 768.78998 396.5"
   version="1.1"
   id="svg40"
   sodipodi:docname="Classic Praha.svg"
   inkscape:version="0.92.0 r15299">
  <metadata
     id="metadata46">
    <rdf:RDF>
      <cc:Work
         rdf:about="">
        <dc:format>image/svg+xml</dc:format>
        <dc:type
           rdf:resource="http://purl.org/dc/dcmitype/StillImage" />
        <dc:title></dc:title>
      </cc:Work>
    </rdf:RDF>
  </metadata>
  <defs
     id="defs44" />
  <sodipodi:namedview
     pagecolor="#ffffff"
     bordercolor="#666666"
     borderopacity="1"
     objecttolerance="10"
     gridtolerance="10"
     guidetolerance="10"
     inkscape:pageopacity="0"
     inkscape:pageshadow="2"
     inkscape:window-width="1920"
     inkscape:window-height="1017"
     id="namedview42"
     showgrid="false"
     fit-margin-top="0"
     fit-margin-left="0"
     fit-margin-right="0"
     fit-margin-bottom="0"
     inkscape:zoom="0.92911668"
     inkscape:cx="451.79047"
     inkscape:cy="285.61741"
     inkscape:window-x="-8"
     inkscape:window-y="-8"
     inkscape:window-maximized="1"
     inkscape:current-layer="svg40" />
  <path
     sodipodi:nodetypes="cccccccccccccccccccccccccscc"
     style="opacity:1;fill:#ffffff;stroke-width:0.99999994;fill-opacity:1"
     inkscape:connector-curvature="0"
     id="path35-6"
     d="m 265.50216,312.79939 c 8.64,-6.3 20.4,-6.43 30.36,-3.71 7.47,2 12.5,9.28 12.72,16.86 0.44,12.08 0.01,24.19 0.22,36.28 0.12,1.51 0.59,3.04 1.49,4.29 1.64,1.32 3.82,0.57 5.73,0.61 -0.02,2.63 -0.02,5.28 0.01,7.92 -4.44,1.1 -9.85,1.55 -13.58,-1.6 -2.23,-1.73 -3,-4.54 -3.7,-7.12 -4.53,5.44 -10.98,9.4 -18.12,10.03 -7.65,0.7 -16.41,-0.29 -22.01,-6.1 -4.66,-4.79 -5.17,-12.1 -3.78,-18.32 1.36,-5.78 6.41,-9.92 11.83,-11.81 7.74,-2.75 16.01,-3.37 24,-5.08 3.04,-0.71 6.58,-1.94 7.77,-5.13 1.52,-4.36 -0.34,-9.76 -4.39,-12.09 -3.91,-2.41 -8.72,-2.55 -13.15,-2.16 -3.87,0.36 -7.92,1.79 -10.31,5.02 -2.19,2.6 -2.53,6.11 -2.95,9.35 -3.41,0 -6.83,0.01 -10.24,-0.01 0.32,-6.5 2.66,-13.28 8.1,-17.23 m 10.27,33.39 c -3.54,0.9 -7.11,2.69 -9.01,5.95 -2.65,4.95 -1.44,12.55 4.24,14.78 9,3.52 20.85,0.67 25.77,-8.08 1.84133,-3.02504 2.32243,-6.38199 2.30553,-9.80796 l -0.0455,-9.23204 c -7.23,3.76 -15.48,4.38 -23.26,6.39 z" />
  <g
     id="#ffffffff"
     transform="translate(-74.75,-75)"
     style="fill:#ffffff;fill-opacity:1" />
  <path
     style="opacity:1;fill:#ffffff;fill-opacity:1"
     inkscape:connector-curvature="0"
     id="path3"
     d="m 129.25,0 50.51,0.01 -0.01,262.74 h -50.5 z"
     sodipodi:nodetypes="ccccc" />
  <path
     style="opacity:1;fill:#ffffff;fill-opacity:1"
     inkscape:connector-curvature="0"
     id="path5"
     d="M 583.74,0.01 634,0 v 45 l -50.26,-0.01 z"
     sodipodi:nodetypes="ccccc" />
  <path
     style="opacity:1;fill:#ffffff;fill-opacity:1"
     inkscape:connector-curvature="0"
     id="path7"
     d="m 0.25,73.09 c 10.34,-3.21 21.22,-4.65 32.04,-4.35 21.82,-0.24 44.13,6.97 60.34,21.86 13.35,12.3 21.15,29.65 24.05,47.39 H 67.52 c -2.24,-10.61 -8.82,-20.6 -18.65,-25.55 -9.5,-4.58 -20.71,-4.23 -30.66,-1.37 -7.12,2.05 -13.23,6.58 -17.97,12.2 z"
     sodipodi:nodetypes="ccccccccc" />
  <path
     style="opacity:1;fill:#ffffff;fill-opacity:1"
     inkscape:connector-curvature="0"
     id="path9"
     d="m 263,69.18 c 15.31,-1.11 30.99,-0.56 45.77,3.92 l 0.15,48.99 c -1.38,-9.68 -10.66,-15.39 -19.58,-17 -12.05,-2.22 -25.3,-1.96 -36.36,3.84 -8.21,4.34 -11.67,13.85 -12.67,22.57 H 194.84 C 196.27,115 203.27,98.7 215.76,87.57 228.47,75.66 246.01,70.66 263,69.18 Z"
     sodipodi:nodetypes="ccccccccc" />
  <path
     style="opacity:1;fill:#ffffff;fill-opacity:1"
     inkscape:connector-curvature="0"
     id="path11"
     d="m 325.25,73.12 c 14.64,-4.45 30.17,-5.06 45.34,-3.97 17.48,1.36 35.52,6.64 48.44,19.03 12.12,11.12 18.78,27.13 20.3,43.32 l -45.46,0.01 c -1.15,-8.43 -4.21,-17.69 -12.02,-22.17 -11.04,-6.17 -24.44,-6.44 -36.64,-4.35 -8.82,1.64 -18.76,6.96 -19.67,16.92 z"
     sodipodi:nodetypes="ccccccccc" />
  <path
     style="opacity:1;fill:#ffffff;fill-opacity:1"
     inkscape:connector-curvature="0"
     id="path13"
     d="m 454.48,73.11 c 11.91,-3.6 24.44,-4.69 36.84,-4.37 19.1,0.32 39.25,4.45 54.22,17.03 13.7,11.17 21.43,28.32 23.02,45.72 l -45.57,-0.04 c -0.95,-8.66 -4.39,-18.08 -12.49,-22.43 -10.73,-5.79 -23.61,-6.02 -35.39,-4.16 -9.14,1.49 -19.27,6.93 -20.56,17.06 z"
     sodipodi:nodetypes="ccccccccc" />
  <path
     style="opacity:1;fill:#ffffff;fill-opacity:1"
     inkscape:connector-curvature="0"
     id="path15"
     d="m 650.48,73.08 c 16.65,-5.13 34.58,-5.58 51.66,-2.53 18.63,3.64 36.56,13.19 48.31,28.33 8.85,11.26 14.18,25.03 16.42,39.11 L 717.73,138 c -2.16,-10.54 -8.68,-20.42 -18.34,-25.44 -8.38,-4.21 -18.22,-4.28 -27.25,-2.46 -8.48,1.72 -16.28,6.44 -21.67,13.22 z"
     sodipodi:nodetypes="ccccccccc" />
  <path
     style="opacity:1;fill:#ffffff;fill-opacity:1"
     inkscape:connector-curvature="0"
     id="path17"
     d="m 583.75,262.75 v -189 H 634 v 189 z"
     sodipodi:nodetypes="ccccc" />
  <path
     style="opacity:1;fill:#ffffff;fill-opacity:1"
     inkscape:connector-curvature="0"
     id="path19"
     d="m 303.51,135.06 c 2.79,-1.8 4.54,-4.78 5.37,-7.94 l -0.1,53.73 c -14.64,4.13 -29.65,6.65 -44.58,9.5 -8.29,1.87 -17.01,4.17 -23.46,10.02 -4.96,4.51 -5.55,12.27 -2.87,18.14 2.98,6.47 9.65,10.4 16.31,12.2 11.22,2.82 23.29,2.81 34.38,-0.6 8.83,-2.69 16.67,-8.9 20.21,-17.57 v 50.44 c -13.7,4.27 -28.19,5.5 -42.48,5.25 -18.45,-0.5 -37.4,-4.77 -52.7,-15.52 -12.63,-8.76 -21.46,-23.05 -22.81,-38.45 -1.05,-12.96 0.23,-26.99 7.98,-37.89 7.79,-11.79 20.91,-18.86 34.2,-22.67 14.62,-3.99 29.39,-7.49 44.37,-9.8 9.04,-1.68 18.47,-3.54 26.18,-8.84 z"
     sodipodi:nodetypes="ccccccccccccccccc" />
  <path
     style="opacity:1;fill:#ffffff;fill-opacity:1"
     inkscape:connector-curvature="0"
     id="path21"
     d="m 325.22,127.2 c 0.94,3.01 2.44,5.97 5.19,7.71 7.56,5.27 16.8,7.25 25.73,8.87 15.94,2.5 31.69,6.13 47.19,10.57 12.4,3.91 24.44,10.8 31.85,21.77 7.75,10.88 9.3,24.89 8.17,37.86 -1.25,15.35 -9.94,29.6 -22.43,38.45 -14.94,10.69 -33.52,15.06 -51.65,15.75 -14.81,0.45 -29.8,-0.86 -44.02,-5.18 l 0.05,-50.51 c 3.36,7.96 10.18,14.09 18.31,16.93 11.1,4.01 23.37,4.17 34.83,1.67 6.56,-1.63 13.34,-4.83 16.91,-10.87 3.49,-5.75 3.52,-14.05 -1.26,-19.11 -3.64,-3.78 -8.49,-6.09 -13.37,-7.83 -9.9,-3.38 -20.35,-4.52 -30.55,-6.67 -8.39,-1.54 -16.65,-3.64 -24.92,-5.73 z"
     sodipodi:nodetypes="cccccccccccccccccc" />
  <path
     style="opacity:1;fill:#ffffff;fill-opacity:1"
     inkscape:connector-curvature="0"
     id="path23"
     d="m 454.32,127.22 c 1.1,2.86 2.45,5.85 5.14,7.56 7,4.99 15.57,7.03 23.87,8.64 16.12,2.52 32.06,6.08 47.76,10.5 13.37,3.93 26.47,11.28 34.08,23.34 6.99,10.38 8.26,23.43 7.5,35.62 -0.97,15.65 -9.63,30.37 -22.35,39.41 -14.76,10.66 -33.16,15.08 -51.13,15.85 -15.03,0.55 -30.25,-0.77 -44.69,-5.14 l -0.04,-50.46 c 3.11,6.88 8.54,12.68 15.52,15.68 11.24,5.1 24.14,5.42 36.13,3.23 6.24,-1.3 12.53,-3.92 16.77,-8.83 4.34,-5.04 5.47,-12.73 2.48,-18.7 -2.49,-4.24 -6.84,-6.98 -11.21,-8.96 -9.49,-4.21 -19.89,-5.43 -29.97,-7.43 -9.99,-1.81 -19.9,-4.04 -29.7,-6.67 z"
     sodipodi:nodetypes="cccccccccccccccccc" />
  <path
     style="opacity:1;fill:#ffffff;fill-opacity:1"
     inkscape:connector-curvature="0"
     id="path25"
     d="m 70.1,196 h 48.44 c -1.16,16.38 -7.64,32.35 -18.53,44.68 -12.99,14.89 -31.9,23.87 -51.31,26.56 -16.18,2.13 -32.88,1.04 -48.45,-3.96 L 0.23,214.07 c 5.98,7.69 15.27,12.3 24.87,13.39 11.32,1.45 23.8,-0.29 32.83,-7.77 C 65.11,213.9 68.54,204.83 70.1,196 Z"
     sodipodi:nodetypes="ccccccccc" />
  <path
     style="opacity:1;fill:#ffffff;fill-opacity:1"
     inkscape:connector-curvature="0"
     id="path27"
     d="m 720.31,196 h 48.48 c -1.18,15.72 -7.12,31.11 -17.29,43.21 -12.95,15.71 -32.41,25.2 -52.38,28 -16.23,2.18 -33,1.08 -48.62,-3.93 l -0.04,-49.18 c 5.39,6.72 13.22,11.32 21.7,12.83 11.98,2.25 25.48,0.98 35.35,-6.74 7.56,-5.74 11.31,-15.07 12.8,-24.19 z"
     sodipodi:nodetypes="ccccccccc" />
  <path
     style="opacity:1;fill:#ffffff;fill-opacity:1"
     inkscape:connector-curvature="0"
     id="path29"
     d="m 187.25,283.25 c 3.58,0 7.17,0 10.75,0 -0.02,11.31 0.03,22.62 -0.03,33.94 3.89,-4.92 9.41,-8.81 15.73,-9.66 7.48,-0.91 16.06,-0.37 21.82,5.09 4.36,3.82 5.99,9.81 5.99,15.43 -0.02,15.73 -0.01,31.46 -0.01,47.2 -3.58,0 -7.17,0 -10.75,0 -0.01,-15.43 -0.01,-30.86 0.01,-46.29 0.2,-4.46 -2.16,-9.12 -6.31,-11.02 -7.01,-3.35 -16.19,-2.12 -21.72,3.48 -3.17,3.35 -4.91,8 -4.75,12.61 0.04,13.74 0.01,27.48 0.02,41.22 -3.58,0 -7.17,0 -10.75,0 0,-30.67 0,-61.33 0,-92 z" />
  <path
     style="opacity:1;fill:#ffffff;fill-opacity:1"
     inkscape:connector-curvature="0"
     id="path31"
     d="m 10.72,317.91 c 4.64,-6.58 12.39,-11.08 20.56,-10.69 8.54,-0.53 17.34,3.26 22.36,10.27 5.43,7.28 7.1,16.62 7.07,25.52 -0.23,7.77 -1.71,15.78 -6.04,22.38 -9.1,14.65 -33.52,16.22 -43.96,2.28 0.09,9.61 0.02,19.22 0.04,28.83 -3.58,0 -7.17,0 -10.75,0 0,-29.25 0,-58.5 0,-87.75 3.58,0 7.17,0 10.75,0 0,3.05 0.01,6.1 -0.03,9.16 m 15.05,-1.09 c -5.78,1.26 -10.59,5.59 -12.89,10.98 -3.47,7.89 -3.64,16.98 -1.53,25.26 1.45,5.6 5.01,10.9 10.42,13.33 6.55,2.83 15.02,2.62 20.47,-2.42 5.77,-5.25 7.36,-13.47 7.53,-20.94 0.03,-7.83 -1.37,-16.44 -7.1,-22.23 -4.35,-4.41 -11.07,-5.41 -16.9,-3.98 z" />
  <path
     style="opacity:1;fill:#ffffff;fill-opacity:1"
     inkscape:connector-curvature="0"
     id="path33"
     d="m 84.7,319.39 c 5.11,-7.91 14.73,-13.51 24.29,-10.84 0.01,3.48 -0.01,6.97 0.03,10.47 -8.37,-2.55 -18.27,1.55 -22.15,9.46 -1.7,3.22 -2.27,6.92 -2.14,10.54 0.04,12.08 0.02,24.15 0.02,36.23 -3.59,0 -7.17,0 -10.75,0 0,-22.17 0,-44.33 0,-66.5 3.58,0 7.16,0 10.75,0 0,3.55 0.03,7.09 -0.05,10.64 z" />
  <path
     sodipodi:nodetypes="cccccccccccccccccccccccccscc"
     style="opacity:1;fill:#ffffff;fill-opacity:1"
     inkscape:connector-curvature="0"
     id="path35"
     d="m 125.99,312.76 c 8.64,-6.3 20.4,-6.43 30.36,-3.71 7.47,2 12.5,9.28 12.72,16.86 0.44,12.08 0.01,24.19 0.22,36.28 0.12,1.51 0.59,3.04 1.49,4.29 1.64,1.32 3.82,0.57 5.73,0.61 -0.02,2.63 -0.02,5.28 0.01,7.92 -4.44,1.1 -9.85,1.55 -13.58,-1.6 -2.23,-1.73 -3,-4.54 -3.7,-7.12 -4.53,5.44 -10.98,9.4 -18.12,10.03 -7.65,0.7 -16.41,-0.29 -22.01,-6.1 -4.66,-4.79 -5.17,-12.1 -3.78,-18.32 1.36,-5.78 6.41,-9.92 11.83,-11.81 7.74,-2.75 16.01,-3.37 24,-5.08 3.04,-0.71 6.58,-1.94 7.77,-5.13 1.52,-4.36 -0.34,-9.76 -4.39,-12.09 -3.91,-2.41 -8.72,-2.55 -13.15,-2.16 -3.87,0.36 -7.92,1.79 -10.31,5.02 -2.19,2.6 -2.53,6.11 -2.95,9.35 -3.41,0 -6.83,0.01 -10.24,-0.01 0.32,-6.5 2.66,-13.28 8.1,-17.23 m 10.27,33.39 c -3.54,0.9 -7.11,2.69 -9.01,5.95 -2.65,4.95 -1.44,12.55 4.24,14.78 9,3.52 20.85,0.67 25.77,-8.08 1.84133,-3.02504 2.32243,-6.38199 2.30553,-9.80796 L 159.52,339.76 c -7.23,3.76 -15.48,4.38 -23.26,6.39 z" />
</svg>
