<?xml version="1.0" encoding="UTF-8" standalone="no"?>
<!-- Generator: Adobe Illustrator 19.2.1, SVG Export Plug-In . SVG Version: 6.00 Build 0)  -->

<svg
   xmlns:dc="http://purl.org/dc/elements/1.1/"
   xmlns:cc="http://creativecommons.org/ns#"
   xmlns:rdf="http://www.w3.org/1999/02/22-rdf-syntax-ns#"
   xmlns:svg="http://www.w3.org/2000/svg"
   xmlns="http://www.w3.org/2000/svg"
   xmlns:sodipodi="http://sodipodi.sourceforge.net/DTD/sodipodi-0.dtd"
   xmlns:inkscape="http://www.inkscape.org/namespaces/inkscape"
   version="1.1"
   id="Laag_1"
   x="0px"
   y="0px"
   viewBox="0 0 393.09999 89.156898"
   xml:space="preserve"
   sodipodi:docname="Classic FM - Dark.svg"
   inkscape:version="0.92.0 r15299"
   width="393.10001"
   height="89.156898"><metadata
     id="metadata29"><rdf:RDF><cc:Work
         rdf:about=""><dc:format>image/svg+xml</dc:format><dc:type
           rdf:resource="http://purl.org/dc/dcmitype/StillImage" /><dc:title></dc:title></cc:Work></rdf:RDF></metadata><defs
     id="defs27" /><sodipodi:namedview
     pagecolor="#ffffff"
     bordercolor="#666666"
     borderopacity="1"
     objecttolerance="10"
     gridtolerance="10"
     guidetolerance="10"
     inkscape:pageopacity="0"
     inkscape:pageshadow="2"
     inkscape:window-width="1920"
     inkscape:window-height="1017"
     id="namedview25"
     showgrid="false"
     inkscape:zoom="0.71053288"
     inkscape:cx="196.55001"
     inkscape:cy="44.616148"
     inkscape:window-x="-8"
     inkscape:window-y="-8"
     inkscape:window-maximized="1"
     inkscape:current-layer="Laag_1"
     fit-margin-top="0"
     fit-margin-left="0"
     fit-margin-right="0"
     fit-margin-bottom="0" /><style
     type="text/css"
     id="style2">
	.st0{fill:#EF4034;}
</style><g
     id="g22"
     transform="translate(-3.3,-2.2092516)"><path
       d="m 38,36.4 h -1.2 c -1.9,-7.8 -6.2,-11.6 -13,-11.6 -9,0 -14.7,7.3 -14.7,18.9 0,12.4 6,20.7 15.1,20.7 6.2,0 10.8,-3 13.8,-9.1 l 1,1 C 36.4,62.9 30.2,67 22.6,67 11.4,67 3.3,58.3 3.3,46.4 c 0,-13.2 8.6,-22.8 20.3,-22.8 2.8,0 4.7,0.3 8.6,1.4 1.2,0.3 1.6,0.4 2.2,0.4 1,0 1.7,-0.4 2.1,-1.3 h 1.1 z"
       id="path4"
       inkscape:connector-curvature="0" /><path
       d="M 80.7,66.5 H 51.6 V 65.2 H 52 c 3.2,0 4.1,-2 4.1,-8.1 V 33.4 l 0.1,-1.9 c 0,-4.3 -1.2,-6.1 -4,-6.1 H 51.6 V 24.1 H 66 v 1.3 h -0.4 c -3.2,0 -4.1,1.9 -4.1,8.1 V 57.4 60 c 0,3.6 0.8,4.4 3.9,4.5 l 2.3,0.1 h 6.4 c 4.9,0 6.1,-1.1 7.9,-7.3 h 1.3 z"
       id="path6"
       inkscape:connector-curvature="0" /><path
       d="m 124,58.8 c 1.6,5.1 2.4,6.2 4.6,6.3 l 1,0.1 0.6,0.1 v 1.2 h -14 v -1.2 c 2.2,0 3.4,-0.9 3.4,-2.5 0,-0.7 -0.1,-1.1 -0.8,-3.1 l -3.2,-10.2 h -12.9 l -2.7,8.4 c -0.7,2.3 -1,3.7 -1,4.6 0,1.8 0.9,2.6 3.2,2.7 v 1.2 H 91.9 v -1.2 c 2.8,-0.4 4.4,-1.9 5.5,-5.4 l 0.3,-1.2 11.1,-34.5 H 113 Z M 109.2,29.1 h -0.1 l -5.6,17.8 h 11.3 z"
       id="path8"
       inkscape:connector-curvature="0" /><path
       d="m 162.8,33.8 h -1.2 l -0.1,-0.6 c -0.8,-3.3 -1.6,-4.9 -3.3,-6.3 -1.5,-1.2 -3.4,-1.9 -5.3,-1.9 -4.1,0 -7.1,2.8 -7.1,6.6 0,2 1,4.3 2.5,5.9 1,0.9 2.1,1.8 3.3,2.7 0.9,0.6 2.4,1.6 4.5,3 3.2,2.1 4.7,3.4 6.1,5.1 1.7,2.2 2.6,4.6 2.6,7.2 0,6.5 -5,11.8 -11.2,11.8 -2.1,0 -3.3,-0.3 -6.5,-1.4 -1.6,-0.6 -2.2,-0.8 -2.5,-0.8 -0.7,0 -1.2,0.5 -1.5,1.6 h -1.2 V 55.3 h 1.2 l 0.1,0.8 c 0.5,3.9 1.3,5.4 3.6,7.2 1.6,1.4 3.7,2.2 5.8,2.2 4.7,0 7.9,-3 7.9,-7.5 0,-2.5 -0.9,-4.3 -3.3,-6.3 -1.4,-1.3 -2.9,-2.5 -4.6,-3.5 -2.5,-1.7 -4.2,-2.8 -5.1,-3.5 -1,-0.7 -1.9,-1.7 -2.8,-2.7 -1.7,-2.2 -2.5,-4.7 -2.5,-7.6 0,-6.4 4.4,-10.7 10.7,-10.7 2,0 3.2,0.2 5.5,1 1.4,0.5 1.8,0.6 2.3,0.6 0.5,0 0.8,-0.2 1,-0.9 0,-0.1 0.1,-0.1 0.1,-0.3 h 1 z"
       id="path10"
       inkscape:connector-curvature="0" /><path
       d="m 200.7,33.8 h -1.2 l -0.1,-0.6 c -0.8,-3.3 -1.6,-4.9 -3.3,-6.3 -1.5,-1.2 -3.4,-1.9 -5.3,-1.9 -4.1,0 -7.1,2.8 -7.1,6.6 0,2 1,4.3 2.5,5.9 1,0.9 2.1,1.8 3.3,2.7 0.9,0.6 2.4,1.6 4.5,3 3.2,2.1 4.7,3.4 6.1,5.1 1.7,2.2 2.6,4.6 2.6,7.2 0,6.5 -5,11.8 -11.2,11.8 -2.1,0 -3.3,-0.3 -6.5,-1.4 -1.6,-0.6 -2.2,-0.8 -2.5,-0.8 -0.7,0 -1.2,0.5 -1.5,1.6 h -1 V 55.3 h 1.2 l 0.1,0.8 c 0.5,3.9 1.3,5.4 3.6,7.2 1.6,1.4 3.7,2.2 5.8,2.2 4.7,0 7.9,-3 7.9,-7.5 0,-2.5 -0.9,-4.3 -3.3,-6.3 -1.4,-1.3 -2.9,-2.5 -4.6,-3.5 -2.5,-1.7 -4.2,-2.8 -5.1,-3.5 -1,-0.7 -1.9,-1.7 -2.8,-2.7 -1.7,-2.2 -2.5,-4.7 -2.5,-7.6 0,-6.4 4.4,-10.7 10.7,-10.7 2,0 3.2,0.2 5.5,1 1.4,0.5 1.8,0.6 2.3,0.6 0.5,0 0.8,-0.2 1,-0.9 0,-0.1 0.1,-0.1 0.1,-0.3 h 1 v 9.7 z"
       id="path12"
       inkscape:connector-curvature="0" /><path
       d="m 232.2,66.5 h -14.5 v -1.3 h 0.6 c 2.9,0 4.1,-1.9 4.1,-6.7 V 57.2 33.4 32.1 c 0,-4.8 -1.2,-6.7 -4.1,-6.7 h -0.6 v -1.3 h 14.5 v 1.3 h -0.5 c -2.9,0 -4.1,1.9 -4.1,6.7 v 1.3 23.8 1.3 c 0,4.8 1.1,6.7 4.1,6.7 h 0.5 z"
       id="path14"
       inkscape:connector-curvature="0" /><path
       d="m 394.1,25.4 c -3.2,0.3 -4.6,1.9 -4.6,5.6 0,0.2 0.1,0.5 0.1,0.7 l 1.6,26.3 c 0.4,5.1 1.6,6.9 5.2,7.3 v 1.3 H 382 v -1.3 c 2.6,-0.2 4,-1.8 4,-4.5 0,-0.7 -0.1,-1.7 -0.1,-2.8 l -1.5,-26.7 h -0.1 l -13.9,35.3 h -1.1 l -13.4,-35 h -0.1 l -2,26.1 c -0.1,0.4 -0.1,0.7 -0.1,1.1 0,4 1.4,5.9 4.9,6.6 v 1.3 H 346 v -1.3 c 3.7,-0.4 5,-2.5 5.4,-8.1 l 2.3,-28.9 c -1.6,-1.8 -3,-2.5 -5.4,-3 v -1.3 h 10.3 l 12.9,33.5 13.2,-33.5 h 9.5 v 1.3 z"
       id="path16"
       inkscape:connector-curvature="0" /><path
       d="m 280,36.4 h -1.2 c -1.9,-7.8 -6.2,-11.6 -13,-11.6 -9,0 -14.7,7.3 -14.7,18.9 0,12.4 6,20.7 15.1,20.7 6.2,0 10.8,-3 13.8,-9.1 l 1,1 c -2.6,6.6 -8.8,10.7 -16.4,10.7 -11.2,0 -19.3,-8.7 -19.3,-20.6 0,-13.2 8.6,-22.8 20.3,-22.8 2.8,0 4.7,0.3 8.6,1.4 1.2,0.3 1.6,0.4 2.2,0.4 1,0 1.7,-0.4 2.1,-1.3 h 1.1 z"
       id="path18"
       inkscape:connector-curvature="0" /><path
       class="st0"
       d="m 345.6,2.4 c -10.4,2.3 -16.9,12.1 -21,21.7 h -8.8 v 1.6 c 0,0 6.3,0 8.2,0 -5,12.5 -8.1,29.6 -11.6,42.9 -2.2,8.1 -4.1,14.3 -6.6,17.2 -2.2,2.6 -4.8,2.9 -5.9,2.4 1.9,-0.9 3.3,-2.9 3.3,-5.2 0,-3.2 -2.6,-5.7 -5.7,-5.7 -3.1,0 -6,2.6 -6,5.8 0,4.4 2.7,6.4 4.2,7.3 1.5,0.8 4.6,1.7 8.1,0 1.7,-0.8 6.3,-2.6 14,-16.1 5.6,-9.8 11.2,-25 17.2,-48.5 h 8.3 v -1.6 c 0,0 -7.6,0 -7.9,0 1.7,-6.7 3.3,-15.2 9.3,-19.3 2.1,-1.3 6.3,-1.5 7.7,1.8 0,0 0,0 0,0 -3.1,0.1 -5.7,2.7 -5.7,5.8 0,3.2 2.6,5.7 5.7,5.7 3.2,0 5.7,-2.5 5.7,-5.7 0.1,-2.3 -1,-5.4 -3.3,-7.4 -2,-2.1 -5.3,-3.4 -9.2,-2.7 z"
       id="path20"
       inkscape:connector-curvature="0"
       style="fill:#ef4034" /></g></svg>