<?xml version="1.0" encoding="UTF-8"?>
<!-- Created with Inkscape (http://www.inkscape.org/) -->
<svg id="svg4577" width="58.642mm" height="19.561mm" version="1.1" viewBox="0 0 58.642 19.561" xmlns="http://www.w3.org/2000/svg" xmlns:cc="http://creativecommons.org/ns#" xmlns:dc="http://purl.org/dc/elements/1.1/" xmlns:rdf="http://www.w3.org/1999/02/22-rdf-syntax-ns#" xmlns:xlink="http://www.w3.org/1999/xlink">
 <defs id="defs4571">
  <linearGradient id="b" x1="44.002" x2="43.541" y1="39.761" y2="19.35" gradientTransform="scale(.68549 1.4588)" gradientUnits="userSpaceOnUse" xlink:href="#a"/>
  <linearGradient id="a">
   <stop id="stop2" stop-color="#ed0f68" offset="0"/>
   <stop id="stop4" stop-color="#ef4123" offset="1"/>
  </linearGradient>
  <linearGradient id="c" x1="51.776" x2="51.175" y1="33.586" y2="4.9083" gradientTransform="scale(.71127 1.4059)" gradientUnits="userSpaceOnUse" xlink:href="#a"/>
  <linearGradient id="d" x1="25.192" x2="24.649" y1="39.481" y2="13.291" gradientTransform="scale(.71477 1.399)" gradientUnits="userSpaceOnUse" xlink:href="#a"/>
 </defs>
 <metadata id="metadata4574">
  <rdf:RDF>
   <cc:Work rdf:about="">
    <dc:format>image/svg+xml</dc:format>
    <dc:type rdf:resource="http://purl.org/dc/dcmitype/StillImage"/>
    <dc:title/>
   </cc:Work>
  </rdf:RDF>
 </metadata>
 <g id="layer1" transform="translate(46.33 -139.05)">
  <g id="g42" transform="matrix(.26458 0 0 .26458 -46.33 139.05)" fill-rule="evenodd">
   <path id="path10" d="m218.82 31.073c-0.398 0-0.769-0.052-1.112-0.157-0.343-0.103-0.642-0.27-0.895-0.502-0.253-0.23-0.451-0.528-0.596-0.894-0.145-0.367-0.217-0.816-0.217-1.348v-4.204c0-0.524 0.072-0.97 0.217-1.336s0.343-0.664 0.596-0.895 0.551-0.398 0.895-0.502c0.343-0.103 0.714-0.156 1.112-0.156 0.397 0 0.768 0.053 1.111 0.156s0.642 0.271 0.895 0.502 0.452 0.529 0.597 0.895c0.144 0.366 0.216 0.811 0.216 1.336v4.204c0 0.532-0.072 0.983-0.216 1.348-0.145 0.365-0.344 0.664-0.597 0.894-0.253 0.232-0.551 0.399-0.895 0.502-0.344 0.105-0.714 0.157-1.111 0.157zm-28.82-9.668c0-0.199 0.113-0.307 0.339-0.326h2.4c0.398 0 0.772 0.043 1.125 0.129 0.353 0.085 0.662 0.233 0.928 0.439 0.267 0.209 0.48 0.484 0.639 0.828 0.157 0.343 0.236 0.769 0.236 1.274 0 0.425-0.053 0.789-0.162 1.092-0.11 0.304-0.258 0.561-0.448 0.772-0.19 0.213-0.413 0.378-0.671 0.495-0.257 0.118-0.535 0.203-0.834 0.257l2.088 4.013c0.036 0.047 0.054 0.105 0.054 0.177 0 0.118-0.054 0.225-0.163 0.318-0.108 0.095-0.225 0.143-0.353 0.143-0.107 0-0.2-0.052-0.277-0.156-0.076-0.104-0.141-0.21-0.196-0.318l-2.088-4.068h-1.722v4.162c0 0.118-0.048 0.206-0.142 0.265-0.095 0.059-0.198 0.088-0.305 0.088-0.118 0-0.222-0.029-0.312-0.088s-0.135-0.147-0.135-0.265v-9.231zm7.515 9.586c-0.118 0-0.233-0.033-0.345-0.101-0.114-0.067-0.17-0.16-0.17-0.277 0-0.046 5e-3 -0.077 0.014-0.095l2.834-9.207c0.036-0.109 0.104-0.188 0.203-0.237 0.1-0.049 0.207-0.074 0.325-0.074 0.126 0 0.24 0.026 0.34 0.081 0.099 0.053 0.166 0.131 0.203 0.231l2.82 9.207c0 0.018 2e-3 0.032 7e-3 0.04 4e-3 0.01 7e-3 0.023 7e-3 0.041 0 0.108-0.058 0.201-0.176 0.278-0.118 0.076-0.24 0.115-0.366 0.115-0.173 0-0.285-0.077-0.34-0.231l-0.624-2.089h-3.756l-0.623 2.089c-0.018 0.081-0.061 0.14-0.129 0.177-0.068 0.033-0.144 0.052-0.224 0.052zm10.358 0h-2.4c-0.126 0-0.226-0.033-0.298-0.101-0.073-0.067-0.109-0.147-0.109-0.237v-9.247c0-0.091 0.036-0.167 0.109-0.231 0.072-0.064 0.171-0.096 0.298-0.096h2.4c0.398 0 0.769 0.053 1.112 0.157 0.343 0.103 0.645 0.27 0.902 0.502 0.257 0.231 0.458 0.529 0.602 0.895 0.145 0.366 0.217 0.811 0.217 1.335v4.122c0 0.533-0.072 0.983-0.217 1.348-0.144 0.367-0.345 0.664-0.602 0.896-0.259 0.23-0.558 0.396-0.902 0.501-0.344 0.104-0.714 0.156-1.112 0.156zm5.127-9.586c0-0.117 0.044-0.202 0.135-0.252 0.09-0.05 0.195-0.074 0.312-0.074 0.108 0 0.21 0.025 0.305 0.074 0.094 0.05 0.142 0.134 0.142 0.252v9.233c0 0.118-0.048 0.206-0.142 0.266-0.095 0.059-0.197 0.087-0.305 0.087-0.118 0-0.222-0.028-0.312-0.087-0.089-0.06-0.135-0.148-0.135-0.266zm7.745 2.563c0-0.704-0.169-1.225-0.509-1.559-0.34-0.335-0.811-0.502-1.417-0.502s-1.078 0.167-1.417 0.502c-0.34 0.334-0.509 0.854-0.509 1.559v4.204c0 0.714 0.169 1.238 0.509 1.573 0.339 0.335 0.81 0.502 1.417 0.502 0.605 0 1.077-0.167 1.417-0.502s0.509-0.859 0.509-1.573zm-12.872-2.061h-1.911v8.257h1.911c0.605 0 1.081-0.169 1.423-0.508 0.343-0.34 0.516-0.862 0.516-1.566v-4.122c0-0.704-0.171-1.225-0.516-1.559-0.342-0.335-0.818-0.502-1.423-0.502zm-5.858 5.992-1.64-5.464-1.655 5.464zm-11.12-5.992v3.796h1.844c0.605 0 1.095-0.147 1.471-0.441 0.375-0.294 0.563-0.784 0.563-1.471 0-0.678-0.189-1.162-0.563-1.451-0.375-0.29-0.866-0.434-1.471-0.434h-1.844z" fill="#ed0f68"/>
   <g id="g22">
    <path id="path12" d="m144.05 27.65c0.808-0.837 1.977-1.258 3.503-1.258 1.079 0 1.918 0.164 2.517 0.494 0.598 0.33 1.055 0.735 1.371 1.213 0.313 0.48 0.516 0.966 0.605 1.46s0.151 0.92 0.182 1.28c0.028 0.69 0.312 1.168 0.852 1.438 0.538 0.269 1.228 0.405 2.067 0.405 0.988 0 1.722-0.187 2.201-0.562 0.479-0.374 0.718-1.146 0.718-2.314 0-1.287-0.261-2.464-0.784-3.527-0.524-1.063-1.259-1.961-2.203-2.696-0.943-0.734-2.075-1.304-3.391-1.706-1.32-0.406-2.756-0.607-4.314-0.607-1.408 0-2.742 0.187-3.999 0.56-1.258 0.376-2.36 0.967-3.303 1.775-0.943 0.809-1.691 1.865-2.244 3.168-0.556 1.304-0.832 2.899-0.832 4.787v12.535c0 1.886 0.269 3.482 0.809 4.786 0.538 1.303 1.279 2.358 2.223 3.168 0.942 0.807 2.045 1.4 3.303 1.775s2.59 0.562 3.998 0.562c1.557 0 2.996-0.21 4.312-0.629 1.319-0.419 2.457-1.011 3.416-1.775 0.958-0.765 1.701-1.701 2.225-2.809 0.523-1.107 0.784-2.337 0.784-3.684 0-1.136-0.239-1.902-0.718-2.291-0.479-0.388-1.229-0.583-2.246-0.583-0.779 0-1.438 0.135-1.976 0.403-0.54 0.27-0.84 0.748-0.898 1.438-0.031 0.48-0.099 0.996-0.204 1.551s-0.307 1.07-0.605 1.551c-0.3 0.478-0.75 0.882-1.348 1.213-0.6 0.33-1.408 0.493-2.425 0.493-1.559 0-2.749-0.419-3.573-1.258-0.822-0.838-1.237-2.141-1.237-3.908v-12.537c0-1.771 0.404-3.072 1.214-3.911z"/>
    <path id="path14" d="m130.87 21.697c-0.615-0.285-1.282-0.427-2-0.427-0.748 0-1.422 0.142-2.021 0.427-0.601 0.285-0.898 0.741-0.898 1.37v18.063l-8.674-16.76c-0.359-0.658-0.688-1.191-0.988-1.595-0.3-0.405-0.605-0.719-0.92-0.944s-0.667-0.375-1.056-0.45c-0.391-0.073-0.854-0.112-1.392-0.112-0.75 0-1.425 0.151-2.023 0.449-0.599 0.301-0.898 0.765-0.898 1.392v29.16c0 0.599 0.299 1.057 0.898 1.369 0.598 0.316 1.273 0.474 2.023 0.474 0.719 0 1.383-0.159 1.999-0.474 0.613-0.312 0.92-0.77 0.92-1.369v-18.062l9.661 18.063c0.388 0.69 0.875 1.168 1.46 1.437 0.583 0.269 1.22 0.406 1.908 0.406 0.719 0 1.385-0.159 2-0.474 0.614-0.313 0.921-0.77 0.921-1.369v-29.205c1e-3 -0.628-0.307-1.084-0.92-1.369z"/>
    <path id="path16" d="m76.017 23.606c-0.959-0.808-2.083-1.399-3.369-1.775-1.289-0.374-2.667-0.561-4.134-0.561h-7.952c-0.78 0-1.4 0.179-1.865 0.54-0.465 0.359-0.697 0.779-0.697 1.258v29.25c0 0.48 0.232 0.898 0.697 1.257 0.464 0.36 1.085 0.541 1.865 0.541h7.952c1.467 0 2.846-0.188 4.134-0.563 1.287-0.375 2.41-0.965 3.369-1.775 0.958-0.808 1.707-1.865 2.247-3.168 0.538-1.303 0.809-2.897 0.809-4.785v-12.265c0-1.887-0.269-3.482-0.809-4.787-0.54-1.303-1.289-2.358-2.247-3.167zm-2.786 20.218c0 1.769-0.413 3.071-1.236 3.909-0.824 0.839-1.984 1.258-3.482 1.258h-4.673v-22.6h4.673c1.498 0 2.658 0.421 3.482 1.259s1.236 2.14 1.236 3.909z"/>
    <path id="path18" d="m98.032 22.978c-0.21-0.69-0.673-1.191-1.392-1.506-0.72-0.314-1.514-0.472-2.382-0.472-0.839 0-1.617 0.158-2.336 0.472-0.718 0.315-1.184 0.816-1.392 1.506l-8.673 28.261c-0.06 0.24-0.089 0.389-0.089 0.448 0 0.36 0.12 0.692 0.359 0.989 0.24 0.3 0.539 0.555 0.898 0.764 0.361 0.211 0.756 0.376 1.191 0.494 0.434 0.121 0.845 0.181 1.236 0.181 0.509 0 0.935-0.091 1.281-0.269 0.343-0.181 0.575-0.48 0.696-0.899l1.706-5.977h10.29l1.706 5.977c0.119 0.419 0.353 0.719 0.696 0.899 0.344 0.178 0.772 0.269 1.281 0.269 0.389 0 0.8-0.06 1.235-0.181 0.434-0.119 0.832-0.293 1.191-0.518 0.36-0.223 0.659-0.479 0.898-0.763 0.24-0.285 0.36-0.607 0.36-0.968 0-0.059-0.03-0.208-0.09-0.448zm-7.683 19.408 3.908-13.793 3.909 13.793z"/>
    <path id="path20" d="m181.8 39.535c0.697-0.075 1.327-0.329 1.872-0.755 0.54-0.423 0.974-1.044 1.292-1.844 0.313-0.789 0.463-1.85 0.463-3.244 0-1.813-0.31-3.518-0.923-5.065-0.614-1.546-1.458-2.897-2.51-4.018-1.054-1.121-2.295-2.002-3.689-2.621-1.397-0.619-2.874-0.934-4.39-0.934-1.636 0-3.203 0.35-4.659 1.039-1.45 0.683-2.728 1.633-3.803 2.822-1.067 1.184-1.919 2.579-2.531 4.143-0.613 1.567-0.922 3.237-0.922 4.964v6.958c0 1.993 0.329 3.821 0.982 5.434 0.654 1.615 1.579 3.027 2.749 4.189 1.171 1.166 2.58 2.079 4.184 2.717 1.603 0.637 3.395 0.96 5.325 0.96 1.42 0 2.732-0.173 3.902-0.517 1.167-0.341 2.175-0.771 2.993-1.274 0.826-0.513 1.476-1.058 1.93-1.627 0.483-0.608 0.73-1.191 0.73-1.733 0-0.566-0.206-1.188-0.614-1.853-0.561-0.915-1.286-1.107-1.795-1.107-0.442 0-0.892 0.162-1.331 0.483-0.362 0.262-0.799 0.557-1.303 0.88-0.489 0.311-1.091 0.596-1.784 0.85-0.676 0.246-1.536 0.37-2.554 0.37-2.29 0-4.172-0.683-5.596-2.03-1.417-1.342-2.136-3.206-2.136-5.545v-1.541h12.168v2e-3c0.666 0 1.32-0.035 1.95-0.103zm-2.168-4.801c-0.149 0.113-0.572 0.304-1.742 0.304h-10.209v-1.941c0-0.955 0.162-1.86 0.487-2.689 0.321-0.825 0.776-1.546 1.347-2.14 0.573-0.598 1.238-1.079 1.972-1.43 0.723-0.344 1.521-0.52 2.368-0.52 0.882 0 1.703 0.195 2.44 0.578 0.752 0.393 1.404 0.913 1.939 1.548 0.54 0.642 0.971 1.4 1.276 2.25 0.308 0.856 0.465 1.753 0.465 2.669 1e-3 0.962-0.214 1.272-0.343 1.371z"/>
   </g>
   <path id="path24" d="m5.258 11.994c0.015 1.429-1.134 2.603-2.565 2.619-0.196 2e-3 -0.384-0.018-0.569-0.057-0.053-0.017-0.105-0.028-0.157-0.041-1.083-0.3-1.881-1.289-1.894-2.466-0.015-1.432 1.133-2.604 2.564-2.618 0.164-3e-3 0.323 0.011 0.48 0.038 0.119 0.02 0.238 0.051 0.351 0.089 1.03 0.331 1.778 1.293 1.79 2.436z" fill="#ef4123"/>
   <path id="path26" d="m21.591 59.606c0.012 0.971-0.511 1.825-1.296 2.279-0.171 0.081-0.344 0.157-0.519 0.233-3.816 1.652-8 2.545-12.329 2.592-1.463 0.015-2.908-0.067-4.33-0.243-0.16-0.019-0.321-0.041-0.48-0.063-0.043-0.013-0.084-0.021-0.126-0.03-1.082-0.302-1.881-1.291-1.893-2.469-0.015-1.431 1.133-2.602 2.565-2.617 0.119-3e-3 0.237 5e-3 0.354 0.018 5e-3 4e-3 8e-3 4e-3 0.013 4e-3 1.253 0.164 2.537 0.247 3.843 0.231 3.7-0.039 7.204-0.821 10.346-2.189 0.13-0.056 0.26-0.115 0.388-0.172 0.261-0.091 0.543-0.144 0.835-0.148 0.165-1e-3 0.323 0.014 0.48 0.04 0.122 0.021 0.24 0.05 0.353 0.088 1.032 0.334 1.784 1.298 1.796 2.446z" fill="#ed0f68"/>
   <path id="path28" d="m33.034 23.659c0.015 1.436-1.137 2.611-2.574 2.627-0.195 2e-3 -0.386-0.018-0.569-0.056-0.055-0.016-0.107-0.028-0.159-0.041-0.57-0.158-1.06-0.505-1.401-0.971-0.033-0.051-0.066-0.099-0.1-0.148-3.8-5.604-10.21-9.573-17.657-10.505-0.095-0.01-0.19-0.025-0.282-0.045-0.051-0.015-0.104-0.028-0.157-0.04-1.082-0.3-1.88-1.288-1.893-2.467-0.015-1.43 1.133-2.603 2.566-2.618 0.038-1e-3 0.078 1e-3 0.118 2e-3h3e-3c0.149 0.017 0.296 0.035 0.446 0.054 6.254 0.805 12.047 3.418 16.653 7.569 1.694 1.526 3.166 3.206 4.405 5.005 0.101 0.148 0.2 0.296 0.298 0.446 0.191 0.355 0.298 0.758 0.303 1.188z" fill="#ef4123"/>
   <path id="path30" d="m37.082 36.631c0.079 7.455-2.988 14.486-8.634 19.797-0.289 0.268-0.581 0.535-0.88 0.794-0.165 0.142-0.332 0.284-0.501 0.424-0.4 0.261-0.877 0.414-1.388 0.419-0.197 2e-3 -0.389-0.019-0.571-0.057-0.054-0.015-0.107-0.027-0.159-0.04-1.083-0.3-1.886-1.292-1.899-2.475-9e-3 -0.791 0.337-1.5 0.887-1.983 0.023-0.018 0.046-0.039 0.07-0.059 4.919-4.186 7.975-10.167 7.904-16.768-0.018-1.735-0.252-3.422-0.68-5.042-0.026-0.108-0.056-0.216-0.087-0.324-0.033-0.159-0.05-0.322-0.052-0.491-0.016-1.435 1.136-2.61 2.57-2.626 0.165-1e-3 0.323 0.013 0.48 0.041 0.119 0.021 0.238 0.052 0.353 0.089 0.745 0.242 1.344 0.813 1.624 1.543 0.045 0.164 0.089 0.329 0.133 0.493 0.528 2.029 0.808 4.125 0.83 6.265z" fill="url(#b)"/>
   <path id="path32" d="m24.662 5.832c0.015 1.439-1.139 2.618-2.576 2.634-0.196 1e-3 -0.388-0.018-0.571-0.059-0.054-0.015-0.106-0.027-0.16-0.039-0.042-0.013-0.085-0.024-0.126-0.038-0.119-0.052-0.24-0.102-0.358-0.15 0 0-1e-3 0-1e-3 -2e-3 -4.766-1.981-10.099-3.066-15.717-3.006-0.711 8e-3 -1.418 0.035-2.12 0.077-0.169 0.011-0.338 0.023-0.505 0.035-0.162-3e-3 -0.319-0.022-0.473-0.054-0.051-0.015-0.104-0.028-0.158-0.039-1.084-0.304-1.884-1.295-1.897-2.474-0.014-1.313 0.952-2.41 2.215-2.596 0.138-0.01 0.278-0.019 0.416-0.025 0.818-0.054 1.641-0.085 2.466-0.093 6.214-0.066 12.231 1.097 17.708 3.363 0.171 0.07 0.34 0.142 0.508 0.213 0.796 0.439 1.338 1.28 1.349 2.253z" fill="#ef4123"/>
   <path id="path34" d="m46.738 36.528c0.03 2.89-0.303 5.734-1.001 8.504-0.035 0.14-0.071 0.282-0.109 0.424-0.353 0.997-1.3 1.718-2.42 1.729-0.194 3e-3 -0.386-0.016-0.57-0.057-0.054-0.015-0.105-0.026-0.157-0.039-1.083-0.301-1.884-1.292-1.896-2.471-2e-3 -0.168 0.013-0.335 0.041-0.493 0.035-0.124 0.066-0.246 0.097-0.371 0.577-2.307 0.872-4.708 0.845-7.171-0.106-10.026-5.492-18.928-13.801-24.672-0.132-0.091-0.266-0.181-0.4-0.273-0.572-0.472-0.942-1.185-0.95-1.985-0.015-1.442 1.141-2.624 2.583-2.639 0.165-2e-3 0.325 0.013 0.481 0.04 0.12 0.02 0.241 0.051 0.355 0.089 0.121 0.04 0.238 0.088 0.349 0.143 0.203 0.134 0.401 0.27 0.6 0.408 1e-3 1e-3 2e-3 2e-3 4e-3 3e-3 1.21 0.843 2.376 1.749 3.49 2.721 3.842 3.347 6.877 7.269 9.018 11.655 2.23 4.563 3.388 9.427 3.441 14.455z" fill="url(#c)"/>
   <path id="path36" d="m42.907 51.868c0.015 1.432-1.133 2.605-2.563 2.621-0.197 2e-3 -0.387-0.018-0.57-0.056-0.052-0.015-0.105-0.029-0.158-0.042-1.081-0.3-1.88-1.289-1.892-2.467-0.016-1.429 1.133-2.601 2.565-2.616 0.163-1e-3 0.323 0.012 0.477 0.038 0.121 0.019 0.24 0.05 0.353 0.087 1.027 0.334 1.775 1.296 1.788 2.435z" fill="#ed0f68"/>
   <path id="path38" d="m38.356 58.269c6e-3 0.597-0.189 1.149-0.525 1.592-0.097 0.111-0.197 0.223-0.297 0.334-0.845 0.936-1.744 1.837-2.697 2.703-7.695 6.997-17.964 10.916-28.916 11.032-0.818 8e-3 -1.633-5e-3 -2.443-0.038-0.159-8e-3 -0.316-0.016-0.477-0.022-1e-3 1e-3 -3e-3 1e-3 -5e-3 0-0.065-8e-3 -0.125-0.019-0.188-0.032-0.053-0.018-0.106-0.029-0.158-0.041-1.083-0.3-1.882-1.289-1.894-2.466-0.015-1.43 1.135-2.603 2.566-2.618 0.03-1e-3 0.063-1e-3 0.096 0 0.044 3e-3 0.088 5e-3 0.131 8e-3 5e-3 -1e-3 8e-3 1e-3 0.012 1e-3 0.762 0.035 1.53 0.048 2.304 0.039 11.27-0.12 21.298-4.814 27.835-12.052 0.083-0.089 0.164-0.181 0.246-0.274 0.462-0.448 1.089-0.728 1.783-0.735 0.163-2e-3 0.323 0.013 0.48 0.04 0.121 0.02 0.239 0.05 0.353 0.088 1.03 0.332 1.782 1.294 1.794 2.441z" fill="#ed0f68"/>
   <path id="path40" d="m27.055 36.84c0.055 5.135-2.138 9.968-6.177 13.609-2.451 2.21-5.409 3.815-8.637 4.728-0.11 0.031-0.22 0.061-0.331 0.09-0.165 0.034-0.334 0.053-0.509 0.054-0.2 3e-3 -0.396-0.019-0.583-0.058-0.054-0.016-0.108-0.029-0.163-0.043-1.109-0.305-1.928-1.32-1.941-2.53-0.012-1.193 0.764-2.21 1.843-2.56h1e-3c0.073-0.018 0.146-0.038 0.218-0.059 6.416-1.811 11.042-7.056 10.976-13.174-0.064-6.14-4.828-11.297-11.311-12.957-0.053-0.014-0.108-0.027-0.162-0.04-1.111-0.309-1.929-1.323-1.942-2.532-0.016-1.468 1.164-2.672 2.631-2.686 0.168-3e-3 0.332 0.013 0.491 0.04 0.122 0.028 0.241 0.059 0.361 0.092 3.263 0.841 6.267 2.385 8.773 4.552 4.114 3.552 6.408 8.339 6.462 13.474z" fill="url(#d)"/>
  </g>
 </g>
</svg>
