<svg height="74" viewBox="0 0 222 74" width="222" xmlns="http://www.w3.org/2000/svg" xmlns:xlink="http://www.w3.org/1999/xlink"><linearGradient id="a"><stop offset="0" stop-color="#ed0f68"/><stop offset="1" stop-color="#ef4123"/></linearGradient><linearGradient id="b" gradientTransform="scale(.68549281 1.4588045)" gradientUnits="userSpaceOnUse" x1="44.00192" x2="43.541443" xlink:href="#a" y1="39.761188" y2="19.349611"/><linearGradient id="c" gradientTransform="scale(.71127085 1.4059342)" gradientUnits="userSpaceOnUse" x1="51.775917" x2="51.175" xlink:href="#a" y1="33.586139" y2="4.908338"/><linearGradient id="d" gradientTransform="scale(.71477237 1.3990468)" gradientUnits="userSpaceOnUse" x1="25.192495" x2="24.649091" xlink:href="#a" y1="39.48081" y2="13.291049"/><g fill-rule="evenodd"><path d="m218.82 31.073c-.398 0-.769-.052-1.112-.157-.343-.103-.642-.27-.895-.502-.253-.23-.451-.528-.596-.894-.145-.367-.217-.816-.217-1.348v-4.204c0-.524.072-.97.217-1.336s.343-.664.596-.895.551-.398.895-.502c.343-.103.714-.156 1.112-.156.397 0 .768.053 1.111.156s.642.271.895.502.452.529.597.895c.144.366.216.811.216 1.336v4.204c0 .532-.072.983-.216 1.348-.145.365-.344.664-.597.894-.253.232-.551.399-.895.502-.344.105-.714.157-1.111.157zm-28.82-9.668c0-.199.113-.307.339-.326h2.4c.398 0 .772.043 1.125.129.353.085.662.233.928.439.267.209.48.484.639.828.157.343.236.769.236 1.274 0 .425-.053.789-.162 1.092-.11.304-.258.561-.448.772-.19.213-.413.378-.671.495-.257.118-.535.203-.834.257l2.088 4.013c.036.047.054.105.054.177 0 .118-.054.225-.163.318-.108.095-.225.143-.353.143-.107 0-.2-.052-.277-.156-.076-.104-.141-.21-.196-.318l-2.088-4.068h-1.722v4.162c0 .118-.048.206-.142.265-.095.059-.198.088-.305.088-.118 0-.222-.029-.312-.088s-.135-.147-.135-.265v-9.231zm7.515 9.586c-.118 0-.233-.033-.345-.101-.114-.067-.17-.16-.17-.277 0-.046.005-.077.014-.095l2.834-9.207c.036-.109.104-.188.203-.237.1-.049.207-.074.325-.074.126 0 .24.026.34.081.099.053.166.131.203.231l2.82 9.207c0 .018.002.032.007.04.004.01.007.023.007.041 0 .108-.058.201-.176.278-.118.076-.24.115-.366.115-.173 0-.285-.077-.34-.231l-.624-2.089h-3.756l-.623 2.089c-.018.081-.061.14-.129.177-.068.033-.144.052-.224.052zm10.358 0h-2.4c-.126 0-.226-.033-.298-.101-.073-.067-.109-.147-.109-.237v-9.247c0-.091.036-.167.109-.231.072-.064.171-.096.298-.096h2.4c.398 0 .769.053 1.112.157.343.103.645.27.902.502.257.231.458.529.602.895.145.366.217.811.217 1.335v4.122c0 .533-.072.983-.217 1.348-.144.367-.345.664-.602.896-.259.23-.558.396-.902.501-.344.104-.714.156-1.112.156zm5.127-9.586c0-.117.044-.202.135-.252.09-.05.195-.074.312-.074.108 0 .21.025.305.074.094.05.142.134.142.252v9.233c0 .118-.048.206-.142.266-.095.059-.197.087-.305.087-.118 0-.222-.028-.312-.087-.089-.06-.135-.148-.135-.266zm7.745 2.563c0-.704-.169-1.225-.509-1.559-.34-.335-.811-.502-1.417-.502s-1.078.167-1.417.502c-.34.334-.509.854-.509 1.559v4.204c0 .714.169 1.238.509 1.573.339.335.81.502 1.417.502.605 0 1.077-.167 1.417-.502s.509-.859.509-1.573zm-12.872-2.061h-1.911v8.257h1.911c.605 0 1.081-.169 1.423-.508.343-.34.516-.862.516-1.566v-4.122c0-.704-.171-1.225-.516-1.559-.342-.335-.818-.502-1.423-.502zm-5.858 5.992-1.64-5.464-1.655 5.464zm-11.12-5.992v3.796h1.844c.605 0 1.095-.147 1.471-.441.375-.294.563-.784.563-1.471 0-.678-.189-1.162-.563-1.451-.375-.29-.866-.434-1.471-.434h-1.844z" fill="#ed0f68"/><g><path d="m144.054 27.65c.808-.837 1.977-1.258 3.503-1.258 1.079 0 1.918.164 2.517.494.598.33 1.055.735 1.371 1.213.313.48.516.966.605 1.46s.151.92.182 1.28c.028.69.312 1.168.852 1.438.538.269 1.228.405 2.067.405.988 0 1.722-.187 2.201-.562.479-.374.718-1.146.718-2.314 0-1.287-.261-2.464-.784-3.527-.524-1.063-1.259-1.961-2.203-2.696-.943-.734-2.075-1.304-3.391-1.706-1.32-.406-2.756-.607-4.314-.607-1.408 0-2.742.187-3.999.56-1.258.376-2.36.967-3.303 1.775-.943.809-1.691 1.865-2.244 3.168-.556 1.304-.832 2.899-.832 4.787v12.535c0 1.886.269 3.482.809 4.786.538 1.303 1.279 2.358 2.223 3.168.942.807 2.045 1.4 3.303 1.775s2.59.562 3.998.562c1.557 0 2.996-.21 4.312-.629 1.319-.419 2.457-1.011 3.416-1.775.958-.765 1.701-1.701 2.225-2.809.523-1.107.784-2.337.784-3.684 0-1.136-.239-1.902-.718-2.291-.479-.388-1.229-.583-2.246-.583-.779 0-1.438.135-1.976.403-.54.27-.84.748-.898 1.438-.031.48-.099.996-.204 1.551s-.307 1.07-.605 1.551c-.3.478-.75.882-1.348 1.213-.6.33-1.408.493-2.425.493-1.559 0-2.749-.419-3.573-1.258-.822-.838-1.237-2.141-1.237-3.908v-12.537c0-1.771.404-3.072 1.214-3.911z"/><path d="m130.87 21.697c-.615-.285-1.282-.427-2-.427-.748 0-1.422.142-2.021.427-.601.285-.898.741-.898 1.37v18.063l-8.674-16.76c-.359-.658-.688-1.191-.988-1.595-.3-.405-.605-.719-.92-.944s-.667-.375-1.056-.45c-.391-.073-.854-.112-1.392-.112-.75 0-1.425.151-2.023.449-.599.301-.898.765-.898 1.392v29.16c0 .599.299 1.057.898 1.369.598.316 1.273.474 2.023.474.719 0 1.383-.159 1.999-.474.613-.312.92-.77.92-1.369v-18.062l9.661 18.063c.388.69.875 1.168 1.46 1.437.583.269 1.22.406 1.908.406.719 0 1.385-.159 2-.474.614-.313.921-.77.921-1.369v-29.205c.001-.628-.307-1.084-.92-1.369z"/><path d="m76.017 23.606c-.959-.808-2.083-1.399-3.369-1.775-1.289-.374-2.667-.561-4.134-.561h-7.952c-.78 0-1.4.179-1.865.54-.465.359-.697.779-.697 1.258v29.25c0 .48.232.898.697 1.257.464.36 1.085.541 1.865.541h7.952c1.467 0 2.846-.188 4.134-.563 1.287-.375 2.41-.965 3.369-1.775.958-.808 1.707-1.865 2.247-3.168.538-1.303.809-2.897.809-4.785v-12.265c0-1.887-.269-3.482-.809-4.787-.54-1.303-1.289-2.358-2.247-3.167zm-2.786 20.218c0 1.769-.413 3.071-1.236 3.909-.824.839-1.984 1.258-3.482 1.258h-4.673v-22.6h4.673c1.498 0 2.658.421 3.482 1.259s1.236 2.14 1.236 3.909z"/><path d="m98.032 22.978c-.21-.69-.673-1.191-1.392-1.506-.72-.314-1.514-.472-2.382-.472-.839 0-1.617.158-2.336.472-.718.315-1.184.816-1.392 1.506l-8.673 28.261c-.06.24-.089.389-.089.448 0 .36.12.692.359.989.24.3.539.555.898.764.361.211.756.376 1.191.494.434.121.845.181 1.236.181.509 0 .935-.091 1.281-.269.343-.181.575-.48.696-.899l1.706-5.977h10.29l1.706 5.977c.119.419.353.719.696.899.344.178.772.269 1.281.269.389 0 .8-.06 1.235-.181.434-.119.832-.293 1.191-.518.36-.223.659-.479.898-.763.24-.285.36-.607.36-.968 0-.059-.03-.208-.09-.448zm-7.683 19.408 3.908-13.793 3.909 13.793z"/><path d="m181.805 39.535c.697-.075 1.327-.329 1.872-.755.54-.423.974-1.044 1.292-1.844.313-.789.463-1.85.463-3.244 0-1.813-.31-3.518-.923-5.065-.614-1.546-1.458-2.897-2.51-4.018-1.054-1.121-2.295-2.002-3.689-2.621-1.397-.619-2.874-.934-4.39-.934-1.636 0-3.203.35-4.659 1.039-1.45.683-2.728 1.633-3.803 2.822-1.067 1.184-1.919 2.579-2.531 4.143-.613 1.567-.922 3.237-.922 4.964v6.958c0 1.993.329 3.821.982 5.434.654 1.615 1.579 3.027 2.749 4.189 1.171 1.166 2.58 2.079 4.184 2.717 1.603.637 3.395.96 5.325.96 1.42 0 2.732-.173 3.902-.517 1.167-.341 2.175-.771 2.993-1.274.826-.513 1.476-1.058 1.93-1.627.483-.608.73-1.191.73-1.733 0-.566-.206-1.188-.614-1.853-.561-.915-1.286-1.107-1.795-1.107-.442 0-.892.162-1.331.483-.362.262-.799.557-1.303.88-.489.311-1.091.596-1.784.85-.676.246-1.536.37-2.554.37-2.29 0-4.172-.683-5.596-2.03-1.417-1.342-2.136-3.206-2.136-5.545v-1.541h12.168v.002c.666 0 1.32-.035 1.95-.103zm-2.168-4.801c-.149.113-.572.304-1.742.304h-10.209v-1.941c0-.955.162-1.86.487-2.689.321-.825.776-1.546 1.347-2.14.573-.598 1.238-1.079 1.972-1.43.723-.344 1.521-.52 2.368-.52.882 0 1.703.195 2.44.578.752.393 1.404.913 1.939 1.548.54.642.971 1.4 1.276 2.25.308.856.465 1.753.465 2.669.001.962-.214 1.272-.343 1.371z"/></g><path d="m5.258 11.994c.015 1.429-1.134 2.603-2.565 2.619-.196.002-.384-.018-.569-.057-.053-.017-.105-.028-.157-.041-1.083-.3-1.881-1.289-1.894-2.466-.015-1.432 1.133-2.604 2.564-2.618.164-.003.323.011.48.038.119.02.238.051.351.089 1.03.331 1.778 1.293 1.79 2.436z" fill="#ef4123"/><path d="m21.591 59.606c.012.971-.511 1.825-1.296 2.279-.171.081-.344.157-.519.233-3.816 1.652-8 2.545-12.329 2.592-1.463.015-2.908-.067-4.33-.243-.16-.019-.321-.041-.48-.063-.043-.013-.084-.021-.126-.03-1.082-.302-1.881-1.291-1.893-2.469-.015-1.431 1.133-2.602 2.565-2.617.119-.003.237.005.354.018.005.004.008.004.013.004 1.253.164 2.537.247 3.843.231 3.7-.039 7.204-.821 10.346-2.189.13-.056.26-.115.388-.172.261-.091.543-.144.835-.148.165-.001.323.014.48.04.122.021.24.05.353.088 1.032.334 1.784 1.298 1.796 2.446z" fill="#ed0f68"/><path d="m33.034 23.659c.015 1.436-1.137 2.611-2.574 2.627-.195.002-.386-.018-.569-.056-.055-.016-.107-.028-.159-.041-.57-.158-1.06-.505-1.401-.971-.033-.051-.066-.099-.1-.148-3.8-5.604-10.21-9.573-17.657-10.505-.095-.01-.19-.025-.282-.045-.051-.015-.104-.028-.157-.04-1.082-.3-1.88-1.288-1.893-2.467-.015-1.43 1.133-2.603 2.566-2.618.038-.001.078.001.118.002h.003c.149.017.296.035.446.054 6.254.805 12.047 3.418 16.653 7.569 1.694 1.526 3.166 3.206 4.405 5.005.101.148.2.296.298.446.191.355.298.758.303 1.188z" fill="#ef4123"/><path d="m37.082 36.631c.079 7.455-2.988 14.486-8.634 19.797-.289.268-.581.535-.88.794-.165.142-.332.284-.501.424-.4.261-.877.414-1.388.419-.197.002-.389-.019-.571-.057-.054-.015-.107-.027-.159-.04-1.083-.3-1.886-1.292-1.899-2.475-.009-.791.337-1.5.887-1.983.023-.018.046-.039.07-.059 4.919-4.186 7.975-10.167 7.904-16.768-.018-1.735-.252-3.422-.68-5.042-.026-.108-.056-.216-.087-.324-.033-.159-.05-.322-.052-.491-.016-1.435 1.136-2.61 2.57-2.626.165-.001.323.013.48.041.119.021.238.052.353.089.745.242 1.344.813 1.624 1.543.045.164.089.329.133.493.528 2.029.808 4.125.83 6.265z" fill="url(#b)"/><path d="m24.662 5.832c.015 1.439-1.139 2.618-2.576 2.634-.196.001-.388-.018-.571-.059-.054-.015-.106-.027-.16-.039-.042-.013-.085-.024-.126-.038-.119-.052-.24-.102-.358-.15 0 0-.001 0-.001-.002-4.766-1.981-10.099-3.066-15.717-3.006-.711.008-1.418.035-2.12.077-.169.011-.338.023-.505.035-.162-.003-.319-.022-.473-.054-.051-.015-.104-.028-.158-.039-1.084-.304-1.884-1.295-1.897-2.474-.014-1.313.952-2.41 2.215-2.596.138-.01.278-.019.416-.025.818-.054 1.641-.085 2.466-.093 6.214-.066 12.231 1.097 17.708 3.363.171.07.34.142.508.213.796.439 1.338 1.28 1.349 2.253z" fill="#ef4123"/><path d="m46.738 36.528c.03 2.89-.303 5.734-1.001 8.504-.035.14-.071.282-.109.424-.353.997-1.3 1.718-2.42 1.729-.194.003-.386-.016-.57-.057-.054-.015-.105-.026-.157-.039-1.083-.301-1.884-1.292-1.896-2.471-.002-.168.013-.335.041-.493.035-.124.066-.246.097-.371.577-2.307.872-4.708.845-7.171-.106-10.026-5.492-18.928-13.801-24.672-.132-.091-.266-.181-.4-.273-.572-.472-.942-1.185-.95-1.985-.015-1.442 1.141-2.624 2.583-2.639.165-.002.325.013.481.04.12.02.241.051.355.089.121.04.238.088.349.143.203.134.401.27.6.408.001.001.002.002.004.003 1.21.843 2.376 1.749 3.49 2.721 3.842 3.347 6.877 7.269 9.018 11.655 2.23 4.563 3.388 9.427 3.441 14.455z" fill="url(#c)"/><path d="m42.907 51.868c.015 1.432-1.133 2.605-2.563 2.621-.197.002-.387-.018-.57-.056-.052-.015-.105-.029-.158-.042-1.081-.3-1.88-1.289-1.892-2.467-.016-1.429 1.133-2.601 2.565-2.616.163-.001.323.012.477.038.121.019.24.05.353.087 1.027.334 1.775 1.296 1.788 2.435z" fill="#ed0f68"/><path d="m38.356 58.269c.006.597-.189 1.149-.525 1.592-.097.111-.197.223-.297.334-.845.936-1.744 1.837-2.697 2.703-7.695 6.997-17.964 10.916-28.916 11.032-.818.008-1.633-.005-2.443-.038-.159-.008-.316-.016-.477-.022-.001.001-.003.001-.005 0-.065-.008-.125-.019-.188-.032-.053-.018-.106-.029-.158-.041-1.083-.3-1.882-1.289-1.894-2.466-.015-1.43 1.135-2.603 2.566-2.618.03-.001.063-.001.096 0 .044.003.088.005.131.008.005-.001.008.001.012.001.762.035 1.53.048 2.304.039 11.27-.12 21.298-4.814 27.835-12.052.083-.089.164-.181.246-.274.462-.448 1.089-.728 1.783-.735.163-.002.323.013.48.04.121.02.239.05.353.088 1.03.332 1.782 1.294 1.794 2.441z" fill="#ed0f68"/><path d="m27.055 36.84c.055 5.135-2.138 9.968-6.177 13.609-2.451 2.21-5.409 3.815-8.637 4.728-.11.031-.22.061-.331.09-.165.034-.334.053-.509.054-.2.003-.396-.019-.583-.058-.054-.016-.108-.029-.163-.043-1.109-.305-1.928-1.32-1.941-2.53-.012-1.193.764-2.21 1.843-2.56h.001c.073-.018.146-.038.218-.059 6.416-1.811 11.042-7.056 10.976-13.174-.064-6.14-4.828-11.297-11.311-12.957-.053-.014-.108-.027-.162-.04-1.111-.309-1.929-1.323-1.942-2.532-.016-1.468 1.164-2.672 2.631-2.686.168-.003.332.013.491.04.122.028.241.059.361.092 3.263.841 6.267 2.385 8.773 4.552 4.114 3.552 6.408 8.339 6.462 13.474z" fill="url(#d)"/></g></svg>