<svg width="1004.7pt" height="529.89pt" version="1.1" viewBox="0 0 1004.7 529.89" xmlns="http://www.w3.org/2000/svg">
 <g transform="translate(-18.396 -49.112)" fill="#bd1a1a">
  <path d="m393.46 55.65c19.35-5.35 39.56-6.84 59.57-6.49 18.06 0.1 36.36 3.21 52.72 11.08 16.81 8.1 31.33 21.48 39.52 38.37 7.84 15.79 8.62 33.79 10.45 51.01-11.56 12.95-27.33 21.67-44.1 25.79-21.63 5.49-44.83 4.77-66.11-1.91-10.64-3.31-20.91-8.65-28.42-17.04-0.57 8.59-1.08 17.5 1.44 25.84 6.43 10.55 17.88 16.63 28.88 21.41 22.23 8.7 46.95 11.8 70.47 7.22 13.87-2.57 27.17-8.36 38.16-17.24 0.4 13.92-3.96 27.9-12.25 39.09-10.39 14.4-25.9 24.13-41.93 31.17-22.76 10.13-48.32 12.06-72.89 9.98-17.13-1.48-34.37-5.2-49.67-13.28-19.26-10.22-34.96-27.82-40.9-49.01-5.05-18.76-6.59-38.29-6.28-57.66-0.29-19.42 3.09-39.23 12.25-56.51 10.1-19.58 27.75-35.61 49.09-41.82m63.9 35.83c-3.55 0.84-7.15 2.76-8.7 6.24-2.67 5.63-2.25 12.12-1.97 18.18 0.24 5.66 2.12 12.2 7.72 14.75 6.12 2.72 13.04 2.4 19.6 2.39 5.55-0.33 11.92-0.72 16.04-4.98 3.68-4.06 4.13-9.89 4.35-15.1 0.01-5.54 0.24-11.57-2.88-16.42-2.7-4.12-7.94-5.43-12.57-5.76-7.18-0.5-14.5-0.62-21.59 0.7z"/>
  <path d="m662.39 76.51c3.63-1.38 7.99-0.5 10.73 2.28 2.11 1.96 2.84 4.86 3.62 7.53 1.7 6.28 3.6 12.5 5.29 18.78 1.38 4.24-0.31 9.25-3.99 11.76-2.05 1.44-4.6 1.77-7 2.19-22 3.92-44.03 7.7-66.01 11.69-5.55 1.47-11.4-2.5-12.64-7.96-1.11-4.46-3.55-8.98-2.36-13.67 0.85-3.38 3.52-6.11 6.77-7.29 21.83-8.52 43.73-16.87 65.59-25.31z"/>
  <path d="m665.53 145.74c4.52-0.52 9.07-0.87 13.6-1.34 5.73-0.34 10.84 4.83 10.71 10.51 0 7.71 0.1 15.43-0.05 23.13-0.2 5.85-5.91 10.9-11.78 9.92-23.17-2.24-46.34-4.55-69.52-6.73-4.92-0.21-9.38-4.33-9.75-9.27-0.27-3.65-0.24-7.32-0.05-10.97 0.17-4.93 4.34-9.26 9.23-9.73 19.2-1.81 38.4-3.68 57.61-5.52z"/>
  <path d="m602.5 202.61c1.15-0.34 2.32-0.41 3.51-0.21 23.44 4.09 46.86 8.29 70.28 12.47 5.86 0.83 10.03 7.29 8.3 12.98-2.06 7.48-4.13 14.97-6.32 22.41-1.65 5.65-8.54 8.42-13.84 6.27-21.88-8.36-43.77-16.71-65.61-25.18-5.18-1.84-8.05-7.99-6.39-13.19 1.72-5.92 2.74-14.14 10.07-15.55z"/>
 </g>
 <path d="m923.26 284.5c11.98-6.43 25.98-7.39 39.32-7.29 13.21 0.76 26.56 2.35 39.14 6.61 0.16 4.79-2.26 9.5-4.67 13.61-3.44 5.29-8.65 10.75-15.43 10.67-11.22-1.4-22.74-3.63-33.97-1.23-7.96 1.39-9.24 15.39-0.92 17.19 11.02 3.24 22.78 2.94 33.74 6.51 7.81 2.28 15.67 6.47 19.84 13.76 3.86 6.45 4.63 14.17 4.3 21.54 0.49 11.25-3.59 23.23-12.66 30.33-9.69 7.61-22.36 9.91-34.36 10.58-17.29 0.71-34.91-1.14-51.34-6.72 0.69-7.26 2.48-14.68 6.73-20.73 2.13-2.97 5.7-5.65 9.56-4.64 11.85 2.82 24.14 3.22 36.25 2.28 2.99-0.44 6.23-1.15 8.45-3.36 3.53-4.34 3.1-12.4-2.66-14.65-9.96-4.06-21.02-3.14-31.41-5.37-8.81-1.59-18-5.43-22.93-13.31-5.38-9.04-5.32-20.11-4.11-30.23 1.42-10.56 7.64-20.48 17.13-25.55z" fill="#fff"/>
 <path d="m727.54 279.2c18.13-3.54 36.9-2 54.81 2.09 3.1 0.72 6.21 1.53 9.14 2.81-1.81 9.08-6.6 18.29-15 22.81-3.78 2.15-8.13 0.84-12.12 0.24-8.21-1.02-16.56-1.92-24.8-0.81-3.28 0.45-7.07 1.76-8.22 5.21-1.21 3.52-1.79 8.55 1.64 11.03 4.56 2.73 10.06 3.07 15.19 3.99 9.6 1.07 19.34 2.53 28.25 6.46 7.1 3.07 13.22 8.89 15.61 16.37 2.96 9 2.72 18.78 0.83 27.98-1.96 8.82-7.47 16.85-15.3 21.44-11.11 6.53-24.34 7.94-36.98 8.16-15.21-0.09-30.48-2.17-45.02-6.71 0.27-6.87 2.36-13.7 5.8-19.64 2.15-3.82 6.46-7.4 11.1-5.85 10.79 2.75 22.03 2.92 33.1 2.43 3.99-0.23 8.59-0.86 11.35-4.09 2.8-4.05 2.73-10.89-1.94-13.56-4.65-2.59-10.11-3.06-15.29-3.78-10.98-1.08-22.61-1.79-32.29-7.66-7.43-4.45-11.39-12.99-12.2-21.38-1.27-11.61-0.02-24.43 7.41-33.92 6.04-7.73 15.54-11.75 24.93-13.62z" fill="#fff"/>
 <path d="m344.76 282.03c9.61-3.56 20.23-3.53 30.25-1.96-0.01 11.32 0.09 22.64 0.04 33.96-10.75-1.95-22.19-2.78-32.71 0.7-4.84 1.57-10.02 5.48-9.64 11.13 0.07 26.62 0.05 53.24-0.03 79.87-12.31-0.04-24.62 0.05-36.92-0.02 0.09-41 0-81.99 0.04-122.98 12.33-0.15 24.66-0.01 36.99-0.13 0.05 3.09-0.03 6.18-0.15 9.27 3.24-4.14 7.06-8.04 12.13-9.84z" fill="#fff"/>
 <path d="m549.1 290.35c20.96-7.4 43.24-11.45 65.49-11.24 12.58 0.26 26.27 3.09 35.17 12.7 9.73 10.81 11.87 25.99 12.61 39.97 0.22 24.63 0.01 49.27 0.12 73.91-12.38 0.06-24.76 0.06-37.15 0.04-0.25-10.6 0.15-21.21-0.08-31.82-0.24-14.99 0.59-30.02-0.55-44.99-0.44-6.05-2.86-13.1-9.17-15.2-9.51-2.95-19.73-1.45-29.33 0.35-0.22 30.53-0.03 61.08-0.12 91.62-12.34 0.12-24.69 0-37.03 0.03 0.1-38.46-0.01-76.91 0.04-115.37z" fill="#fff"/>
 <path d="m15.103 293.87c10.64-10.71 26.43-13.86 41.01-13.87 12.78 0.32 26.39 0.47 37.74 7.15 9.02 5.47 14.31 15.29 16.53 25.36 2.41 9.94 2.99 20.25 2.72 30.45-5.61 6.78-14.35 10.05-22.66 12.17-17.54 4-35.93 2.98-53.46-0.52 0.36 4.88 1.2 9.77 3.36 14.21 0.49 1.73 2.37 2.26 3.83 2.95 5.11 1.96 10.59 2.75 16.01 3.29 13.82 0.88 27.86 0.36 41.32-3.14 3.42-0.89 6.61-2.47 9.67-4.21-0.35 8.9-1.39 18.75-7.46 25.75-7.29 6.59-17.07 9.48-26.48 11.47-16.94 2.98-34.75 2.59-51.13-2.93-9.43-3.02-16.48-11.02-20.11-20.01-5.61-13.94-6.37-29.22-5.86-44.07 0.5-15.59 3.8-32.41 14.97-44.05m29.87 17.76c-5.01 4.11-6.09 10.93-7.09 16.95 14.16 2.85 28.89 2.62 43.05-0.15-0.57-5.25-0.64-11.01-3.99-15.4-3.21-4.17-8.85-4.9-13.74-5.16-6.2-0.23-13.08-0.22-18.23 3.76z" fill="#fff"/>
 <path d="m175.64 281.87c14.12-2.84 28.65-2.25 42.93-1.29 13.15 1.17 26.29 3.08 38.96 6.88 0.24 9.5 0.07 19 0.11 28.5 0.06 12.57-4.35 25.67-14.03 34.07-10.69 9.31-25.14 12.93-38.99 13.8-7.68 0.39-15.37 0.21-23.03-0.44-0.35 3.18-1.27 7.64 2.47 9.23 8.72 4 18.69 3.02 28.01 4.17 12.28 0.27 25.12 1.56 35.97 7.79 7.09 3.97 12 11.27 13.23 19.28 1.26 10.54 0.22 21.96-5.81 31.01-5.01 7.63-13.24 12.44-21.7 15.35-9.43 3.02-19.32 4.39-29.19 4.82-5.33 0.17-10.68 0.75-15.98-0.08-11.94-1.48-24.16-3.41-34.95-9-3.65-1.49-4.86-5.5-6.44-8.74-3.14-6.8-4.43-14.39-3.63-21.84 21.59 6.79 44.63 10.61 67.21 7.47 3.93-0.78 8.24-1.49 11.26-4.35 2.54-2.29 2.79-6.97 0.3-9.37-3.42-2.27-7.71-2.31-11.65-2.75-15.97-1.15-32.33-0.37-47.86-4.88-6.34-1.77-12.61-5.68-14.88-12.16-3.61-10.77-1.37-23.22 5.85-32.02-7.88-4.38-12.47-12.92-13.65-21.65-1.79-12.53-1.65-26.56 6.02-37.26 6.86-9.51 18.29-14.34 29.47-16.54m2.77 33.01c-2.6 4.76-2.69 11.18 0.43 15.73 4.24 4.45 11.03 4.42 16.74 4.57 7.62 0.18 16.33-0.7 21.85-6.56 4.16-4.65 3.24-11.18 3.29-16.91-9.12-2.57-18.72-3.18-28.16-2.75-5.07 0.48-11.16 1.22-14.15 5.92z" fill="#fff"/>
 <path d="m416.57 293.87c10.64-10.71 26.43-13.86 41.01-13.87 12.78 0.32 26.39 0.47 37.74 7.15 9.02 5.47 14.31 15.29 16.53 25.36 2.41 9.94 2.99 20.25 2.72 30.45-5.61 6.78-14.35 10.05-22.66 12.17-17.54 4-35.93 2.98-53.46-0.52 0.36 4.88 1.2 9.77 3.36 14.21 0.49 1.73 2.37 2.26 3.83 2.95 5.11 1.96 10.59 2.75 16.01 3.29 13.82 0.88 27.86 0.36 41.32-3.14 3.42-0.89 6.61-2.47 9.67-4.21-0.35 8.9-1.39 18.75-7.46 25.75-7.29 6.59-17.07 9.48-26.48 11.47-16.94 2.98-34.75 2.59-51.13-2.93-9.43-3.02-16.48-11.02-20.11-20.01-5.61-13.94-6.37-29.22-5.86-44.07 0.5-15.59 3.8-32.41 14.97-44.05m29.87 17.76c-5.01 4.11-6.09 10.93-7.09 16.95 14.16 2.85 28.89 2.62 43.05-0.15-0.57-5.25-0.64-11.01-3.99-15.4-3.21-4.17-8.85-4.9-13.74-5.16-6.2-0.23-13.08-0.22-18.23 3.76z" fill="#fff"/>
 <path d="m833.28 282.72c12.31-0.22 24.63-0.07 36.95-0.05-0.07 41.01 0.04 82.02-0.04 123.03-12.3 0.04-24.6 0.04-36.9 0.04-0.04-41.01-0.12-82.01-0.01-123.02z" fill="#fff"/>
 <path d="m504.36 438.53c3.77 0.01 7.54-0.06 11.32-0.06-0.1 28.87-0.17 57.75 0.03 86.63-12.52 4.69-26.55 6.3-39.62 3.06-7.89-1.97-13.4-9.15-14.81-16.94-2.02-10.74-2.14-22.14 1.14-32.64 2.07-6.66 7.57-12.08 14.41-13.68 9.03-2.23 19.08-2.03 27.33 2.66 0.21-9.67-0.1-19.36 0.2-29.03m-29.93 42.53c-2.91 7.23-2.02 15.23-1.89 22.84 0.31 5.87 2.25 13.33 8.86 14.83 7.54 1.39 15.56 0.96 22.84-1.56-0.07-11.78 0.08-23.56-0.01-35.33 0.17-3.09-2.46-5.34-5.12-6.3-4.94-1.84-10.4-2.14-15.57-1.32-3.95 0.55-7.63 3.06-9.11 6.84z" fill="#fff"/>
 <path d="m559.64 440.84c3.42-1.14 7.33-0.97 10.62 0.55 1.49 3.47 2.25 8.75-1.23 11.25-2.95 0.94-6.24 0.93-9.2 0.06-2.26-0.98-2.39-3.71-2.33-5.82 0.01-2.12-0.21-5.03 2.14-6.04z" fill="#fff"/>
 <path d="m310.83 469.49c6.07-5.88 15.26-6.82 23.22-5.37-0.03 3.64-0.05 7.28 0.03 10.92-6.24-0.49-12.84-0.87-18.71 1.7-2.42 1.03-4.64 3.26-4.49 6.07-0.18 15.1-0.12 30.19-0.04 45.29-3.92 0.04-7.84 0.07-11.76-0.06 0.24-20.91-0.07-41.82 0.07-62.73 3.84-0.15 7.69-0.09 11.54-0.11 0.05 1.42 0.1 2.85 0.14 4.29z" fill="#fff"/>
 <path d="m369.82 466.96c9.93-3.25 20.85-4.01 31.28-2.82 5.1 0.62 10.43 2.48 13.72 6.66 3.55 4.52 4.25 10.49 4.5 16.06 0.1 12.7-0.08 25.41 0.1 38.12-10.46 3.96-21.8 5.21-32.92 4.76-5.64-0.43-11.92-1.43-15.94-5.8-4.26-4.95-4.19-11.87-4.02-18.01 0.16-5.6 2.43-11.63 7.5-14.55 5.61-3.18 12.32-3.17 18.6-3.22 5.12-0.12 10.21 0.7 15.15 1.99-0.05-4.1-0.02-8.51-2.37-12.06-2.49-3.33-7-3.98-10.86-4.24-7.55-0.22-15.27 0.32-22.44 2.87-0.71-3.27-1.65-6.49-2.3-9.76m9.9 35.34c-1.06 4.05-1.02 8.38-0.14 12.47 0.65 2.89 3.36 4.71 6.16 5.14 7.37 0.97 14.91 0.28 21.99-2.01 0.02-6.5 0.02-12.99 0.03-19.48-6.62-1.23-13.41-1.37-20.11-0.97-3.22 0.11-6.96 1.42-7.93 4.85z" fill="#fff"/>
 <path d="m636.26 463.74c8.89-0.31 19.19-0.19 25.9 6.59 6.58 7.05 7.2 17.4 7.34 26.56-0.25 8.87-0.87 18.82-7.07 25.78-5.99 6.5-15.5 7.41-23.82 7.2-7.88 0.07-16.73-1.8-21.73-8.44-5.37-7.3-5.79-16.83-5.97-25.55 0.28-8.81 1.03-18.61 7.28-25.43 4.64-4.87 11.59-6.41 18.07-6.71m-3.39 10.33c-6.84 1.26-8.9 8.85-9.27 14.82-0.23 7.94-0.96 16.25 1.85 23.85 1.34 3.91 5.11 6.41 9.1 6.93 5.12 0.75 10.68 0.87 15.48-1.39 4.59-2.21 6.05-7.66 6.62-12.31 0.65-7.28 0.8-14.71-0.54-21.91-0.71-4.12-3.09-8.33-7.35-9.56-5.13-1.49-10.67-1.35-15.89-0.43z" fill="#fff"/>
 <path d="m558.52 465.19c3.87 0.03 7.73 0.01 11.6 0.04 0.12 20.91 0.05 41.83 0.07 62.75-3.88 0.1-7.76 0.06-11.64 0.06-0.12-20.95-0.12-41.9-0.03-62.85z" fill="#fff"/>
</svg>
