<?xml version="1.0" encoding="UTF-8" standalone="no"?>
<svg
   xmlns:dc="http://purl.org/dc/elements/1.1/"
   xmlns:cc="http://creativecommons.org/ns#"
   xmlns:rdf="http://www.w3.org/1999/02/22-rdf-syntax-ns#"
   xmlns:svg="http://www.w3.org/2000/svg"
   xmlns="http://www.w3.org/2000/svg"
   xmlns:sodipodi="http://sodipodi.sourceforge.net/DTD/sodipodi-0.dtd"
   xmlns:inkscape="http://www.inkscape.org/namespaces/inkscape"
   width="330.60001pt"
   height="115.78381pt"
   viewBox="0 0 330.60001 115.78381"
   version="1.1"
   id="svg24"
   sodipodi:docname="Europa 2 - Dark.svg"
   inkscape:version="0.92.0 r15299">
  <metadata
     id="metadata30">
    <rdf:RDF>
      <cc:Work
         rdf:about="">
        <dc:format>image/svg+xml</dc:format>
        <dc:type
           rdf:resource="http://purl.org/dc/dcmitype/StillImage" />
        <dc:title></dc:title>
      </cc:Work>
    </rdf:RDF>
  </metadata>
  <defs
     id="defs28" />
  <sodipodi:namedview
     pagecolor="#ffffff"
     bordercolor="#666666"
     borderopacity="1"
     objecttolerance="10"
     gridtolerance="10"
     guidetolerance="10"
     inkscape:pageopacity="0"
     inkscape:pageshadow="2"
     inkscape:window-width="1920"
     inkscape:window-height="1017"
     id="namedview26"
     showgrid="false"
     fit-margin-top="0"
     fit-margin-left="0"
     fit-margin-right="0"
     fit-margin-bottom="0"
     inkscape:zoom="1.9555922"
     inkscape:cx="241.34468"
     inkscape:cy="40.561274"
     inkscape:window-x="-8"
     inkscape:window-y="-8"
     inkscape:window-maximized="1"
     inkscape:current-layer="svg24" />
  <g
     id="#005fa9ff"
     transform="translate(-84.16,-204.72619)" />
  <g
     id="#ffffffff"
     transform="translate(-84.16,-204.72619)" />
  <g
     id="#e10c08ff"
     transform="translate(-84.16,-204.72619)">
    <path
       d="m 369.73,217.43 c 0.69,-4.23 1.39,-8.45 2.1,-12.68 9.75,0.09 19.5,-0.18 29.24,0.13 6.18,0.03 11.27,5.96 10,12.1 -1.32,6.76 -1.42,15.15 -7.54,19.58 -8.19,4.56 -16.83,8.31 -24.98,12.98 -3.24,1.93 -4.01,5.9 -4.66,9.33 10.09,0.02 20.18,-0.01 30.26,0.01 -0.84,4.27 -1.72,8.53 -2.56,12.8 -11.15,0.04 -22.3,-0.03 -33.44,-0.09 -3.9,0.06 -8.04,-2.5 -8.48,-6.62 -0.24,-4.19 1.11,-8.27 1.61,-12.4 0.92,-6.59 6.27,-11.33 11.77,-14.42 6.97,-3.8 14.17,-7.18 21.19,-10.91 3.41,-1.8 2.86,-6.35 3.9,-9.54 -9.45,-0.61 -18.94,-0.09 -28.41,-0.27 z"
       id="path4"
       inkscape:connector-curvature="0"
       style="opacity:1;fill:#e10c08" />
    <path
       d="m 84.16,273.44 c 89.29,-0.02 178.59,0.03 267.88,-0.03 2.9,-0.28 5.16,1.85 7.58,3.07 -77.56,6.39 -155.11,13.02 -232.68,19.27 -14.41,-7.09 -28.51,-14.91 -42.78,-22.31 z"
       id="path6"
       inkscape:connector-curvature="0"
       style="opacity:1;fill:#e10c08" />
    <path
       d="m 246.35,296.08 c 56.11,-7.52 112.28,-14.66 168.41,-22.04 -1.04,1.25 -2.08,2.49 -3.11,3.74 -59.54,14.3 -119.11,28.49 -178.67,42.73 4.43,-8.16 9.01,-16.23 13.37,-24.43 z"
       id="path8"
       inkscape:connector-curvature="0"
       style="opacity:1;fill:#e10c08" />
  </g>
  <g
     id="#213f9fff"
     transform="translate(-84.16,-204.72619)">
    <path
       d="m 255.52,212.75 c 7.16,-2.17 15.99,0.36 19.63,7.22 2.92,4.87 1.92,10.73 0.91,16 -0.81,4.24 -1.16,8.59 -2.32,12.76 -3,9.81 -13.44,16.99 -23.72,15.52 -6.07,-0.72 -11.49,-5.31 -12.98,-11.27 -1.15,-3.99 -0.2,-8.13 0.46,-12.11 0.64,-3.66 1.13,-7.34 1.83,-10.99 1.56,-8.18 8.24,-14.94 16.19,-17.13 m 1.98,9.87 c -4.62,1.22 -8.05,5.49 -8.4,10.23 -0.6,5.42 -2.29,10.77 -2.15,16.24 1.09,6 9.16,6.32 13.04,2.82 4.63,-3.12 4.55,-9.15 5.44,-14.05 0.42,-3.59 1.68,-7.19 1.17,-10.81 -0.82,-3.96 -5.55,-5.64 -9.1,-4.43 z"
       id="path11"
       inkscape:connector-curvature="0"
       style="opacity:1;fill:#213f9f" />
    <path
       d="m 338.81,212.83 c 3.56,-0.46 7.17,-0.12 10.76,-0.2 0.42,17.06 0.82,34.13 1.23,51.19 -3.54,-0.01 -7.07,-0.01 -10.6,0 -0.05,-3.51 -0.09,-7.01 -0.09,-10.51 -4.89,0.01 -9.78,-0.01 -14.67,0.01 -1.59,3.5 -3.21,6.98 -4.81,10.48 -3.57,0.02 -7.13,0.02 -10.7,0.01 6.75,-14.52 13.54,-29.03 20.3,-43.55 1.58,-3.56 4.56,-6.83 8.58,-7.43 m -1.09,12.83 c -2.58,6 -5.25,11.96 -7.83,17.96 3.38,0 6.76,0 10.14,0.01 -0.06,-7.04 0.08,-14.08 -0.19,-21.12 -0.86,0.94 -1.67,1.95 -2.12,3.15 z"
       id="path13"
       inkscape:connector-curvature="0"
       style="opacity:1;fill:#213f9f" />
    <path
       d="m 122.66,218.42 c 0.39,-3.11 3.16,-5.82 6.37,-5.77 8.45,-0.08 16.9,0 25.35,-0.02 -0.6,3.35 -1.22,6.7 -1.84,10.06 -6.84,0.01 -13.68,-0.01 -20.52,0 -0.61,3.66 -1.22,7.32 -1.83,10.98 6.11,0.03 12.22,0.01 18.33,0.02 -0.62,3.37 -1.23,6.75 -1.85,10.12 -6.11,0.01 -12.22,0 -18.33,0.01 -0.6,3.31 -1.22,6.61 -1.82,9.92 8.14,0.03 16.27,0 24.41,0.01 -0.6,3.36 -1.22,6.71 -1.84,10.06 -8.73,-0.01 -17.46,0.04 -26.19,-0.01 -2.46,0.04 -5.22,-0.87 -6.39,-3.19 -1.07,-2.11 -0.49,-4.52 -0.18,-6.73 2.15,-11.82 4.2,-23.64 6.33,-35.46 z"
       id="path15"
       inkscape:connector-curvature="0"
       style="opacity:1;fill:#213f9f" />
    <path
       d="m 161.2,214.15 c 2.41,-2.2 5.89,-1.48 8.86,-1.6 -2.06,11.08 -3.9,22.19 -5.71,33.31 -0.82,3.09 0.53,6.83 3.7,7.95 5.62,2 12.12,-2.32 13.34,-7.97 1.72,-9.5 3.19,-19.07 5.14,-28.53 1.39,-4.63 6.84,-4.83 10.83,-4.51 -2.19,11.33 -3.8,22.77 -5.81,34.13 -2.3,11.58 -15.12,20.29 -26.7,16.9 -7.16,-1.91 -11.98,-9.54 -10.93,-16.83 1.08,-8.03 2.56,-16.01 4.11,-23.96 0.67,-3.05 0.51,-6.76 3.17,-8.89 z"
       id="path17"
       inkscape:connector-curvature="0"
       style="opacity:1;fill:#213f9f" />
    <path
       d="m 202.47,215.01 c 0.18,-1.69 1.87,-2.63 3.47,-2.37 7,0 14.01,-0.11 21.02,0.06 3.98,-0.05 7.77,3.15 7.77,7.26 -0.24,4.92 -1.53,9.74 -2.35,14.59 -0.91,4.84 -4.67,8.51 -8.92,10.66 2.78,6.37 5.58,12.73 8.34,19.1 -3.84,-0.24 -8.97,1.08 -11.52,-2.7 -3.07,-4.72 -4.69,-10.2 -7,-15.31 -2.1,-0.05 -4.19,-0.05 -6.29,-0.06 -1.28,5.86 -2.54,11.72 -3.83,17.57 -3.54,0.01 -7.08,0.01 -10.62,-0.01 3.33,-16.25 6.55,-32.54 9.93,-48.79 m 6.01,21.73 c 4.09,-0.29 8.98,1.07 12.4,-1.85 3.21,-3.54 2.74,-8.74 3.49,-13.15 -4.28,-0.08 -8.55,-0.04 -12.82,-0.06 -1.05,5.02 -2.05,10.04 -3.07,15.06 z"
       id="path19"
       inkscape:connector-curvature="0"
       style="opacity:1;fill:#213f9f" />
    <path
       d="m 287.71,215.44 c 0.15,-1.66 1.52,-3.06 3.28,-2.8 7,-0.03 14,-0.05 21,0.01 3.81,-0.16 7.91,2.36 8.33,6.39 0.43,4.44 -1.43,8.71 -2.21,13.02 -0.94,5.36 -4.37,10.35 -9.49,12.45 -5.08,2.46 -10.84,1.65 -16.28,1.74 -1.27,5.85 -2.56,11.7 -3.82,17.55 -3.47,0.02 -6.93,0.02 -10.4,0.01 3.2,-16.12 6.37,-32.25 9.59,-48.37 m 6.12,21.3 c 4.21,-0.29 9.4,1.14 12.74,-2.2 2.76,-3.62 2.58,-8.49 3.56,-12.76 -4.41,-0.16 -8.83,-0.07 -13.24,-0.09 -1.04,5.01 -2.05,10.03 -3.06,15.05 z"
       id="path21"
       inkscape:connector-curvature="0"
       style="opacity:1;fill:#213f9f" />
  </g>
</svg>
