<svg height="115.78381pt" viewBox="0 0 330.60001 115.78381" width="330.60001pt" xmlns="http://www.w3.org/2000/svg"><g fill="#e10c08" transform="translate(-84.16 -204.72619)"><path d="m369.73 217.43c.69-4.23 1.39-8.45 2.1-12.68 9.75.09 19.5-.18 29.24.13 6.18.03 11.27 5.96 10 12.1-1.32 6.76-1.42 15.15-7.54 19.58-8.19 4.56-16.83 8.31-24.98 12.98-3.24 1.93-4.01 5.9-4.66 9.33 10.09.02 20.18-.01 30.26.01-.84 4.27-1.72 8.53-2.56 12.8-11.15.04-22.3-.03-33.44-.09-3.9.06-8.04-2.5-8.48-6.62-.24-4.19 1.11-8.27 1.61-12.4.92-6.59 6.27-11.33 11.77-14.42 6.97-3.8 14.17-7.18 21.19-10.91 3.41-1.8 2.86-6.35 3.9-9.54-9.45-.61-18.94-.09-28.41-.27z"/><path d="m84.16 273.44c89.29-.02 178.59.03 267.88-.03 2.9-.28 5.16 1.85 7.58 3.07-77.56 6.39-155.11 13.02-232.68 19.27-14.41-7.09-28.51-14.91-42.78-22.31z"/><path d="m246.35 296.08c56.11-7.52 112.28-14.66 168.41-22.04-1.04 1.25-2.08 2.49-3.11 3.74-59.54 14.3-119.11 28.49-178.67 42.73 4.43-8.16 9.01-16.23 13.37-24.43z"/></g><g fill="#213f9f" transform="translate(-84.16 -204.72619)"><path d="m255.52 212.75c7.16-2.17 15.99.36 19.63 7.22 2.92 4.87 1.92 10.73.91 16-.81 4.24-1.16 8.59-2.32 12.76-3 9.81-13.44 16.99-23.72 15.52-6.07-.72-11.49-5.31-12.98-11.27-1.15-3.99-.2-8.13.46-12.11.64-3.66 1.13-7.34 1.83-10.99 1.56-8.18 8.24-14.94 16.19-17.13m1.98 9.87c-4.62 1.22-8.05 5.49-8.4 10.23-.6 5.42-2.29 10.77-2.15 16.24 1.09 6 9.16 6.32 13.04 2.82 4.63-3.12 4.55-9.15 5.44-14.05.42-3.59 1.68-7.19 1.17-10.81-.82-3.96-5.55-5.64-9.1-4.43z"/><path d="m338.81 212.83c3.56-.46 7.17-.12 10.76-.2.42 17.06.82 34.13 1.23 51.19-3.54-.01-7.07-.01-10.6 0-.05-3.51-.09-7.01-.09-10.51-4.89.01-9.78-.01-14.67.01-1.59 3.5-3.21 6.98-4.81 10.48-3.57.02-7.13.02-10.7.01 6.75-14.52 13.54-29.03 20.3-43.55 1.58-3.56 4.56-6.83 8.58-7.43m-1.09 12.83c-2.58 6-5.25 11.96-7.83 17.96 3.38 0 6.76 0 10.14.01-.06-7.04.08-14.08-.19-21.12-.86.94-1.67 1.95-2.12 3.15z"/><path d="m122.66 218.42c.39-3.11 3.16-5.82 6.37-5.77 8.45-.08 16.9 0 25.35-.02-.6 3.35-1.22 6.7-1.84 10.06-6.84.01-13.68-.01-20.52 0-.61 3.66-1.22 7.32-1.83 10.98 6.11.03 12.22.01 18.33.02-.62 3.37-1.23 6.75-1.85 10.12-6.11.01-12.22 0-18.33.01-.6 3.31-1.22 6.61-1.82 9.92 8.14.03 16.27 0 24.41.01-.6 3.36-1.22 6.71-1.84 10.06-8.73-.01-17.46.04-26.19-.01-2.46.04-5.22-.87-6.39-3.19-1.07-2.11-.49-4.52-.18-6.73 2.15-11.82 4.2-23.64 6.33-35.46z"/><path d="m161.2 214.15c2.41-2.2 5.89-1.48 8.86-1.6-2.06 11.08-3.9 22.19-5.71 33.31-.82 3.09.53 6.83 3.7 7.95 5.62 2 12.12-2.32 13.34-7.97 1.72-9.5 3.19-19.07 5.14-28.53 1.39-4.63 6.84-4.83 10.83-4.51-2.19 11.33-3.8 22.77-5.81 34.13-2.3 11.58-15.12 20.29-26.7 16.9-7.16-1.91-11.98-9.54-10.93-16.83 1.08-8.03 2.56-16.01 4.11-23.96.67-3.05.51-6.76 3.17-8.89z"/><path d="m202.47 215.01c.18-1.69 1.87-2.63 3.47-2.37 7 0 14.01-.11 21.02.06 3.98-.05 7.77 3.15 7.77 7.26-.24 4.92-1.53 9.74-2.35 14.59-.91 4.84-4.67 8.51-8.92 10.66 2.78 6.37 5.58 12.73 8.34 19.1-3.84-.24-8.97 1.08-11.52-2.7-3.07-4.72-4.69-10.2-7-15.31-2.1-.05-4.19-.05-6.29-.06-1.28 5.86-2.54 11.72-3.83 17.57-3.54.01-7.08.01-10.62-.01 3.33-16.25 6.55-32.54 9.93-48.79m6.01 21.73c4.09-.29 8.98 1.07 12.4-1.85 3.21-3.54 2.74-8.74 3.49-13.15-4.28-.08-8.55-.04-12.82-.06-1.05 5.02-2.05 10.04-3.07 15.06z"/><path d="m287.71 215.44c.15-1.66 1.52-3.06 3.28-2.8 7-.03 14-.05 21 .01 3.81-.16 7.91 2.36 8.33 6.39.43 4.44-1.43 8.71-2.21 13.02-.94 5.36-4.37 10.35-9.49 12.45-5.08 2.46-10.84 1.65-16.28 1.74-1.27 5.85-2.56 11.7-3.82 17.55-3.47.02-6.93.02-10.4.01 3.2-16.12 6.37-32.25 9.59-48.37m6.12 21.3c4.21-.29 9.4 1.14 12.74-2.2 2.76-3.62 2.58-8.49 3.56-12.76-4.41-.16-8.83-.07-13.24-.09-1.04 5.01-2.05 10.03-3.06 15.05z"/></g></svg>