<svg height="201.05043pt" viewBox="0 0 572.35999 201.05043" width="572.35999pt" xmlns="http://www.w3.org/2000/svg"><g fill="#dc002e" transform="translate(-200.63 -199.98957)"><path d="m698.39 200.01c16.19-.02 32.38 0 48.57-.02 6.63-.04 13.84 2.7 17.23 8.71 3.25 5.48 2.59 12.21 1.34 18.18-1.71 8.42-2.46 17.67-8.05 24.63-3.64 4.7-9.52 6.49-14.55 9.22-10.62 5.51-21.38 10.72-31.88 16.44-6.13 3.24-8.01 10.48-8.96 16.82 17.45.03 34.9-.01 52.36.02-1.51 7.39-2.99 14.79-4.44 22.2-19.01.01-38-.01-57 .01-5.45.07-11.4-2.13-14.13-7.12-2.9-5.27-1.14-11.41-.2-16.96 1.24-6.09 1.28-12.61 4.49-18.11 4.7-8.47 13.11-13.94 21.43-18.4 9.98-4.99 19.9-10.1 29.85-15.16 2.52-1.29 5.56-2.5 6.56-5.43 1.22052-3.55387 1.87726-7.27688 2.51955-10.98109.25291-2.26958-3.17748-2.08891-4.47955-2.08891-14.76.05-29.53.03-44.29.02 1.32-7.31 2.4-14.66 3.63-21.98z"/><path d="m200.63 319.3c155.43.04 310.86-.02 466.28.03 3.92.7 7.06 3.59 10.64 5.24-132.33 11.13-264.67 22.1-397 33.2-2.63.08-5.55 1.15-7.95-.41-23.97-12.73-48.01-25.33-71.97-38.06z"/><path d="m481.49 358.48c97.16-12.81 194.34-25.46 291.5-38.19-2.52 2.22-3.92 6.08-7.32 7.08-88.93 21.29-177.83 42.69-266.75 64-13.58 3.21-27.11 6.65-40.73 9.67 7.76-14.19 15.58-28.35 23.3-42.56z"/></g><g fill="#00559e"><path d="m298.67 13.28043c7.47-1.55 15.65-.82 22.29 3.14 6.75 3.92 11.52 10.99 12.71 18.7 1.28 7.68-1.14 15.28-2.12 22.84-1.59 8.17-1.78 16.84-5.73 24.35-5.18 10-14.73 17.72-25.69 20.41-8.72 2.11-18.56 1.03-25.83-4.5-7.82-5.69-11.68-15.76-10.5-25.26 1.34-9.38 3.02-18.72 4.49-28.09 2.34-15.46 15.22-28.36 30.38-31.59m3.15 17.31c-7.98 1.39-14.91 8.13-15.95 16.27-1.35 8.71-2.87 17.4-4.2 26.12-.98 5.46 2.69 11.17 8.1 12.46 7.75 1.82 15.85-2.76 19.74-9.4 1.85-3 2.27-6.57 2.82-9.97 1.16-7.36 2.4-14.7 3.59-22.05.79-3.73-.4-7.83-3.13-10.51-2.91-2.71-7.12-3.56-10.97-2.92z"/><path d="m67.15 21.71043c1.34-4.82 5.90797-8.16 11.21-8.16 14.44.03 28.89-.01 43.33.03-1.09 5.88-2.18 11.76-3.24 17.64-11.85.01-23.7-.01-35.55.01-.95 6.38-2.07 12.73-3.14 19.08 10.58.02 21.17 0 31.76.01-1.1 5.79-2.1 11.59-3.19 17.38-10.56 0-21.13-.01-31.7.01-1.08 5.76-2.12 11.52-3.14 17.3 14.06.01 28.13-.01 42.2.01-1.01 5.9-2.15 11.78-3.2 17.69-14.72-.02-29.44 0-44.15-.01-4.09-.01-8.77-.72-11.37-4.23-2.6-3.22-2.21-7.62-1.52-11.42 3.94-21.78 7.59-43.61 11.7-65.34z"/><path d="m128.92 13.56043c5.89 0 11.78 0 17.67.01-.18 22.15.3 44.29.24 66.44-.13 1.75.66 3.33 1.52 4.8 10.48-23.72 20.8-47.51 31.22-71.26 6.31.03 12.62.01 18.93.02-13.32 29.74-26.8 59.41-40.16 89.13-8.11-.48-17.82 1.97-24.29-4.38-5.38-4.92-4.77-12.7-4.9-19.32.17-21.82-.37-43.62-.23-65.44z"/><path d="m204.65 18.06043c.25-2.37 2.21852-4.47 4.75-4.47 11.98-.07 23.98 0 35.97-.04 4.56056 0 9.44 1.39 12.47 4.96 3.33 4.09 3.16 9.79 2.2 14.69-1.21 6.23-2.2 12.51-3.44 18.73-1.75 8.16-7.91 14.88-15.47 18.19 4.84 11.11 9.67 22.22 14.52 33.33-6.75-.44-15.62 2.01-20.1-4.66-5.36-8.26-8.03-17.92-12.22-26.79-3.56.01-7.11 0-10.66.03-2.14 10.22-4.5 20.4-6.56 30.64-6.17.08-12.34 0-18.51.05 5.64-28.23 11.38-56.44 17.05-84.66m15.93 11.37c-1.81 8.71-3.64 17.4-5.29 26.13 5.88-.29 11.97.79 17.68-.99 5.1-1.84 7.51-7.37 8.1-12.4.38-4.24 1.72-8.45 1.2-12.73-7.23.02-14.46.03-21.69-.01z"/><path d="m352.34 17.98043c.33-2.43 2.42806-4.39 5.01-4.39 11.99-.07 23.98.01 35.97-.04 5.04-.09 10.69 1.58 13.55 6.03 3.93 6.26 1.32 13.74-.19 20.33-1.64 5.99-2.16 12.45-5.46 17.87-3.31 5.68-8.7 10.05-14.89 12.25-8.28 3.15-17.3 2.1-25.95 1.94-2.24 10.24-4.47 20.48-6.65 30.73-6.03.02-12.06-.04-18.09.03 5.56-28.25 11.16-56.5 16.7-84.75m15.83 11.49c-1.76 8.69-3.46 17.4-5.25 26.09 7.3-.55 16.35 1.98 22.04-3.96 4.7-6.23 4.42-14.61 6-21.94-7.59-.43-15.19-.11-22.79-.19z"/><path d="m426.27 25.93043c2.78-6.12 8.27-11.29 15.14-12.15 3.09637-.27061 6.20611-.24875 9.31845-.24875h8.60155c.87 29.69 1.28 59.43875 2.28 89.11875-6.14.11-12.28.02-18.42.06-.46-6.15-.21-12.32-.27-18.48-8.4-.01-16.81 0-25.21 0-2.83 6.16-5.67 12.31-8.47 18.49-6.22-.03-12.44-.01-18.65-.02 11.95-25.56 23.77-51.19 35.68-76.77m13.17 9.15c-4.71 10.82-9.42 21.64-14.16 32.45 5.88.07 11.75.02 17.63.03-.17-12.19-.19-24.38-.38-36.57-1.45 1.02-2.46 2.46-3.09 4.09z"/></g></svg>