<svg id="a" width="649.79pt" height="372.83pt" version="1.1" viewBox="0 0 649.79 372.83" xmlns="http://www.w3.org/2000/svg">
 <g id="b" transform="translate(-50.01,-25.96)">
  <path id="c" d="m323.06 92.2c24.73-0.04 49.46 0.01 74.19-0.02 0 7.06-0.02 14.13 0.01 21.19-16.43-0.03-32.86 0.03-49.29-0.03-0.16 7.24-0.04 14.49-0.07 21.73 16.07 0.01 32.14-0.01 48.21 0.01-0.01 7.05-0.01 14.09 0 21.14-16.08 0-32.15-0.01-48.22 0 0 7.73 0.01 15.46 0 23.19 16.46 0.02 32.92-0.01 49.38 0.02-0.04 7.04-0.04 14.08 0 21.11-24.74 0.02-49.49 0.04-74.23-0.01 0.13-36.11 0.08-72.22 0.02-108.33z" fill="#fff"/>
 </g>
 <g id="d" transform="translate(-50.01,-25.96)" fill="#e2001a">
  <path id="e" d="m325.26 32.13c34.04-11.41 73.22-6.52 103.15 13.44l-0.05 6.87c-21.99-15.52-49.61-22.96-76.41-20.18-28.75 2.63-56.15 16.84-75.08 38.59-17.91 20.27-28.26 47.08-28.44 74.15-0.39 24.22 7.27 48.46 21.45 68.1 15.63 21.85 39.1 38 65.2 44.48 26.25 6.66 54.86 3.62 79.05-8.6 27.87-13.82 49.61-39.45 58.58-69.26 10.28-33.09 4.31-70.78-15.98-98.91l4.65-3.61c16.71 23.51 24.4 53.23 21.24 81.9-2.93 29.18-17.17 56.97-38.98 76.54-21.52 19.64-50.43 30.94-79.57 31.01-25.55 0.35-51.1-7.83-71.71-22.93-23.12-16.74-39.98-41.93-46.41-69.75-6.85-28.83-2.58-60.14 11.91-85.99 14.44-26.17 38.98-46.55 67.4-55.85z"/>
  <path id="f" d="m441.98 26.44 26.86-0.07-0.04 7.53-18.22-0.01v11.92l16.61-0.03 0.02 7.79-16.71-0.01c0.05 5.42 0.01 10.85 0.05 16.27l-8.49-0.03c0.02-14.45 0.17-28.91-0.08-43.36z"/>
  <path id="g" d="m474.33 26.17c1.74-0.03 3.81-0.19 4.87 1.52 5.24 6.53 10.29 13.22 15.54 19.74 5.22-6.68 10.38-13.41 15.68-20.02 1.01-1.62 3.07-1.21 4.69-1.45v43.84l-8.56 0.04-0.07-24.72-11.64 14.64-12.11-14.81 0.09 24.86-8.49 0.01z"/>
  <path id="h" d="m353.14 43.08c22.44-2.24 45.53 3.22 64.64 15.19 20.09 12.5 35.73 32.02 43.38 54.43 8.65 25.02 7.22 53.37-4.05 77.34-11.03 23.89-31.49 43.24-56 52.84-20.24 8.07-43.05 9.45-64.13 3.93-22.72-5.83-43.22-19.74-57.18-38.58-13.53-18.08-20.9-40.69-20.46-63.28 0.17-26.55 11.26-52.79 30.04-71.55 16.83-17.16 39.82-28.12 63.76-30.32"/>
 </g>
 <g id="i" transform="translate(-50.01,-25.96)" fill="#1a171b">
  <path id="j" d="m474.23 303.26c12.32-3.98 26.36-3.67 37.95 2.43 8.8 4.66 14.61 14.63 13.41 24.66l-16.97 0.01c-0.39-3.74-1.7-7.73-5.19-9.67-7.91-4.24-18.11-4.45-25.95 0.08-4.72 2.68-6.11 9.46-3.31 13.98 1.98 2.81 5.62 3.51 8.78 4.18 10.72 1.94 21.66 3.43 31.87 7.39 6.38 2.4 11.55 7.9 13.04 14.62 1.74 7.84 1.04 16.65-3.48 23.48-3.53 5.29-9.19 8.72-15.09 10.76-8.69 2.85-18.06 4.79-27.15 2.78-9.17-2.09-18.79-5.81-24.48-13.71-3.56-4.79-4.6-10.84-4.91-16.66h17.94c0.37 4.44 2.51 8.99 6.8 10.83 8.44 3.89 18.68 4.21 27.15 0.19 5.66-2.54 7.31-10.41 4.23-15.49-1.89-3.07-5.63-4.01-8.94-4.63-9.74-1.73-19.7-2.8-29.09-6.08-5.1-1.77-9.66-5.11-12.63-9.63-4.75-7.03-5.25-16.54-1.65-24.17 3.35-7.33 10.04-12.9 17.67-15.35z"/>
  <path id="k" d="m117.99 302.39 21.641 0.09 20.287 32.31 20.739-32.37h20.461l-30.08 44.48 33.133 49.7-20.606-0.13-23.587-37.12-23.852 37.24-21.176 0.02 33.918-49.71z"/>
  <path id="l" d="m214.79 302.39c13.42 0.01 26.84-0.04 40.26 0.05 8.76-0.05 17.56 3.51 23.58 9.92 11.91 12.39 12.03 34.07 0.34 46.64-5.82 6.43-14.42 9.86-23 10.22-7.61 0.23-15.23-0.08-22.84 0.11l0.08 27.12h-18.42v-94.06m18.3 16.74-0.05 33.33c7.97 0 15.94 0.1 23.91-0.06 10.29-1.58 15.25-14.17 11.84-23.25-1.77-4.99-6.14-9.47-11.62-9.9-8.01-0.77-16.07-0.39-24.08-0.12z"/>
  <path id="m" d="m298.19 302.72c13.25-0.69 26.54-0.19 39.81-0.27 8.64-0.31 17.45 2.85 23.56 9.04 10.33 10.09 12.07 27.8 3.58 39.54-3.21 4.7-7.95 8.05-12.92 10.68l23.67 34.77h-19.156l-22.894-31.52-17.35-0.13 0.04 31.65-18.4-0.0497 0.06-93.71m18.31 16.17-0.07 29.78c8.17 0.13 16.38 0.51 24.54-0.17 10.31-1.16 14.3-14.77 9.26-22.84-2.68-4.55-8.07-6.83-13.19-6.76-6.85-0.05-13.69 0.02-20.54-0.01z"/>
  <path id="n" d="m50.01 302.59 58.26-0.02-0.02 16.28-39.75-0.02-0.05 20.74 37.67 0.01-0.01 16.75-37.66 0.02 0.01 23.11h40.59v17.01h-59.03z"/>
  <path id="o" d="m385.46 396.48 0.02-93.94 58.32 0.05-0.04 16.25h-39.7l-0.03 20.73 37.57-0.03v16.85l-37.6-0.02-0.06 23.06 40.65 0.03-0.02 17.03z"/>
 </g>
 <g id="p" transform="translate(-50.01,-25.96)" fill="#707173">
  <path id="q" d="m611.58 302.57c3.62-1.11 7.92-0.78 10.31 2.53l33.77 42.95 33.98-43.5c2.18-3.47 6.68-2.43 10.13-2.76l0.03 94.62-18.65-0.01 0.11-53.54-21.16 27.14c-1.16 1.39-2.33 2.93-4.06 3.62-2.34 0.03-3.63-2.12-4.99-3.66l-21.28-27.18 0.12 53.64-18.3 0.05z"/>
  <path id="r" d="m541.83 302.55 57.77-0.05 0.05 16.36-39.34 0.05-0.04 25.65 35.81 0.03v16.74l-35.92 0.02 0.07 35.1h-18.4z"/>
 </g>
 <g id="s" transform="translate(-50.01 -25.992)" fill="#fff">
  <path id="t" d="m323.06 92.2c0.06 36.11 0.11 72.22-0.02 108.33 24.74 0.05 49.49 0.03 74.23 0.01-0.04-7.03-0.04-14.07 0-21.11-16.46-0.03-32.92 0-49.38-0.02 0.01-7.73 0-15.46 0-23.19 16.07-0.01 32.14 0 48.22 0-0.01-7.05-0.01-14.09 0-21.14-16.07-0.02-32.14 0-48.21-0.01 0.03-7.24-0.09-14.49 0.07-21.73 16.43 0.06 32.86 0 49.29 0.03-0.03-7.06-0.01-14.13-0.01-21.19-24.73 0.03-49.46-0.02-74.19 0.02z" fill="#fff"/>
 </g>
</svg>
