<svg height="372.82642pt" viewBox="0 0 649.79004 372.82642" width="649.79004pt" xmlns="http://www.w3.org/2000/svg"><g transform="translate(-50.01 -25.96)"><path d="m323.06 92.2c24.73-.04 49.46.01 74.19-.02 0 7.06-.02 14.13.01 21.19-16.43-.03-32.86.03-49.29-.03-.16 7.24-.04 14.49-.07 21.73 16.07.01 32.14-.01 48.21.01-.01 7.05-.01 14.09 0 21.14-16.08 0-32.15-.01-48.22 0 0 7.73.01 15.46 0 23.19 16.46.02 32.92-.01 49.38.02-.04 7.04-.04 14.08 0 21.11-24.74.02-49.49.04-74.23-.01.13-36.11.08-72.22.02-108.33z" fill="#fff"/><g fill="#e2001a"><path d="m325.26 32.13c34.04-11.41 73.22-6.52 103.15 13.44l-.05 6.87c-21.99-15.52-49.61-22.96-76.41-20.18-28.75 2.63-56.15 16.84-75.08 38.59-17.91 20.27-28.26 47.08-28.44 74.15-.39 24.22 7.27 48.46 21.45 68.1 15.63 21.85 39.1 38 65.2 44.48 26.25 6.66 54.86 3.62 79.05-8.6 27.87-13.82 49.61-39.45 58.58-69.26 10.28-33.09 4.31-70.78-15.98-98.91l4.65-3.61c16.71 23.51 24.4 53.23 21.24 81.9-2.93 29.18-17.17 56.97-38.98 76.54-21.52 19.64-50.43 30.94-79.57 31.01-25.55.35-51.1-7.83-71.71-22.93-23.12-16.74-39.98-41.93-46.41-69.75-6.85-28.83-2.58-60.14 11.91-85.99 14.44-26.17 38.98-46.55 67.4-55.85z"/><path d="m441.98 26.44 26.86-.07-.04 7.53-18.22-.01v11.92l16.61-.03.02 7.79-16.71-.01c.05 5.42.01 10.85.05 16.27l-8.49-.03c.02-14.45.17-28.91-.08-43.36z"/><path d="m474.32999 26.17c1.74-.03 3.81001-.19 4.87001 1.52 5.24 6.53 10.29 13.22 15.54 19.74 5.22-6.68 10.38-13.41 15.68-20.02 1.01-1.62 3.07-1.21 4.69-1.45v43.84l-8.56.04-.07-24.72-11.64 14.64-12.11-14.81.09 24.86-8.49001.01z"/><path d="m353.14 43.08c22.44-2.24 45.53 3.22 64.64 15.19 20.09 12.5 35.73 32.02 43.38 54.43 8.65 25.02 7.22 53.37-4.05 77.34-11.03 23.89-31.49 43.24-56 52.84-20.24 8.07-43.05 9.45-64.13 3.93-22.72-5.83-43.22-19.74-57.18-38.58-13.53-18.08-20.9-40.69-20.46-63.28.17-26.55 11.26-52.79 30.04-71.55 16.83-17.16 39.82-28.12 63.76-30.32"/></g><g fill="#1a171b"><path d="m474.23 303.26c12.32-3.98 26.36-3.67 37.95 2.43 8.8 4.66 14.61 14.63 13.41 24.66l-16.97.01c-.39-3.74-1.7-7.73-5.19-9.67-7.91-4.24-18.11-4.45-25.95.08-4.72 2.68-6.11 9.46-3.31 13.98 1.98 2.81 5.62 3.51 8.78 4.18 10.72 1.94 21.66 3.43 31.87 7.39 6.38 2.4 11.55 7.9 13.04 14.62 1.74 7.84 1.04 16.65-3.48 23.48-3.53 5.29-9.19 8.72-15.09 10.76-8.69 2.85-18.06 4.79-27.15 2.78-9.17-2.09-18.79-5.81-24.48-13.71-3.56-4.79-4.6-10.84-4.91-16.66h17.94c.37 4.44 2.51 8.99 6.8 10.83 8.44 3.89 18.68 4.21 27.15.19 5.66-2.54 7.31-10.41 4.23-15.49-1.89-3.07-5.63-4.01-8.94-4.63-9.74-1.73-19.7-2.8-29.09-6.08-5.1-1.77-9.66-5.11-12.63-9.63-4.75-7.03-5.25-16.54-1.65-24.17 3.35-7.33 10.04-12.9 17.67-15.35z"/><path d="m117.9921 302.39 21.64127.09 20.28663 32.31 20.73948-32.37001h20.46078l-30.08026 44.48001 33.13274 49.7-20.60579-.13-23.58695-37.12-23.85179 37.24-21.17611.02 33.9179-49.71z"/><path d="m214.79 302.39c13.42.01 26.84-.04 40.26.05 8.76-.05 17.56 3.51 23.58 9.92 11.91 12.39 12.03 34.07.34 46.64-5.82 6.43-14.42 9.86-23 10.22-7.61.23-15.23-.08-22.84.11l.08 27.12h-18.42zm18.3 16.74-.05 33.33c7.97 0 15.94.1 23.91-.06 10.29-1.58 15.25-14.17 11.84-23.25-1.77-4.99-6.14-9.47-11.62-9.9-8.01-.77-16.07-.39-24.08-.12z"/><path d="m298.19 302.72c13.25-.69 26.54-.19 39.81-.27 8.64-.31 17.45 2.85 23.56 9.04 10.33 10.09 12.07 27.8 3.58 39.54-3.21 4.7-7.95 8.05-12.92 10.68l23.67 34.76974h-19.15558l-22.89442-31.51974-17.35-.13.04 31.64974-18.4-.0497.06-93.71m18.31 16.17-.07 29.78c8.17.13 16.38.51 24.54-.17 10.31-1.16 14.3-14.77 9.26-22.84-2.68-4.55-8.07-6.83-13.19-6.76-6.85-.05-13.69.02-20.54-.01z"/><path d="m50.01 302.59 58.26-.02-.02 16.28-39.75-.02-.05 20.74 37.67.01-.01 16.75-37.66.02.01 23.11h40.59v17.01h-59.03z"/><path d="m385.46 396.48.02-93.94 58.32.05-.04 16.25h-39.7l-.03 20.73 37.57-.03v16.85l-37.6-.02-.06 23.06 40.65.03-.02 17.03z"/></g><path d="m611.58 302.57c3.62-1.11 7.92-.78 10.31 2.53l33.77 42.95 33.98-43.5c2.18-3.47 6.68-2.43 10.13-2.76l.03 94.62-18.65-.01.11-53.54-21.16 27.14c-1.16 1.39-2.33 2.93-4.06 3.62-2.34.03-3.63-2.12-4.99-3.66l-21.28-27.18.12 53.64-18.3.05z" fill="#707173"/><path d="m541.83 302.55 57.77-.05.05 16.36-39.34.05-.04 25.65 35.81.03v16.74l-35.92.02.07 35.1h-18.4z" fill="#707173"/></g><path d="m323.06 92.2c.06 36.11.11 72.22-.02 108.33 24.74.05 49.49.03 74.23.01-.04-7.03-.04-14.07 0-21.11-16.46-.03-32.92 0-49.38-.02.01-7.73 0-15.46 0-23.19 16.07-.01 32.14 0 48.22 0-.01-7.05-.01-14.09 0-21.14-16.07-.02-32.14 0-48.21-.01.03-7.24-.09-14.49.07-21.73 16.43.06 32.86 0 49.29.03-.03-7.06-.01-14.13-.01-21.19-24.73.03-49.46-.02-74.19.02z" fill="#fff" transform="matrix(1 0 0 1.0000034 -50.010006 -25.991814)"/></svg>