<?xml version="1.0" encoding="UTF-8" standalone="no"?>
<svg
   xmlns:dc="http://purl.org/dc/elements/1.1/"
   xmlns:cc="http://creativecommons.org/ns#"
   xmlns:rdf="http://www.w3.org/1999/02/22-rdf-syntax-ns#"
   xmlns:svg="http://www.w3.org/2000/svg"
   xmlns="http://www.w3.org/2000/svg"
   xmlns:sodipodi="http://sodipodi.sourceforge.net/DTD/sodipodi-0.dtd"
   xmlns:inkscape="http://www.inkscape.org/namespaces/inkscape"
   width="581.33459pt"
   height="368.85449pt"
   viewBox="0 0 581.33459 368.85449"
   version="1.1"
   id="svg27"
   sodipodi:docname="Frekvence 1.svg"
   inkscape:version="0.92.0 r15299">
  <metadata
     id="metadata33">
    <rdf:RDF>
      <cc:Work
         rdf:about="">
        <dc:format>image/svg+xml</dc:format>
        <dc:type
           rdf:resource="http://purl.org/dc/dcmitype/StillImage" />
        <dc:title></dc:title>
      </cc:Work>
    </rdf:RDF>
  </metadata>
  <defs
     id="defs31" />
  <sodipodi:namedview
     pagecolor="#ffffff"
     bordercolor="#666666"
     borderopacity="1"
     objecttolerance="10"
     gridtolerance="10"
     guidetolerance="10"
     inkscape:pageopacity="0"
     inkscape:pageshadow="2"
     inkscape:window-width="1920"
     inkscape:window-height="1017"
     id="namedview29"
     showgrid="false"
     fit-margin-top="0"
     fit-margin-left="0"
     fit-margin-right="0"
     fit-margin-bottom="0"
     inkscape:zoom="0.284"
     inkscape:cx="385.70873"
     inkscape:cy="244.10637"
     inkscape:window-x="-8"
     inkscape:window-y="-8"
     inkscape:window-maximized="1"
     inkscape:current-layer="svg27" />
  <g
     id="#ffffffff"
     transform="translate(-85.718455,-101.72528)" />
  <g
     id="#ffcc00ff"
     transform="translate(-85.718455,-101.72528)">
    <path
       d="m 524.13,102.19 c 25.46,-1.23 51.4,-0.34 76.08,6.62 15.48,4.52 30.88,11.93 41.2,24.72 8.78,10.67 12.58,24.76 12.19,38.43 -0.46,19.25 -7.3,37.71 -15.97,54.67 -16.27,30.8 -39.26,57.77 -65.66,80.36 -24.96,21.35 -54.49,38.05 -86.86,44.76 -51.67,11.4 -107.77,-2.9 -148.6,-36.3 -19.52,-15.89 -36.82,-35.89 -44.75,-60.15 -6.04,-18.2 -5.03,-38.73 3.59,-55.95 10.73,-21.9 30.45,-37.84 51.27,-49.67 29.79,-16.5 62.42,-27.22 95.4,-35.26 26.94,-6.43 54.43,-10.79 82.11,-12.23 m -3.73,11.38 c -38.03,2.09 -75.41,12.23 -110.1,27.75 -24.95,11.49 -49.64,26.63 -64.99,50.06 -11.02,16.47 -15.73,37.13 -12.23,56.7 3.79,22.71 16.73,42.94 32.93,58.89 20.44,20.31 48.01,33.91 76.96,35.46 21.01,1.28 42.15,-3.92 60.7,-13.72 15.69,-8.22 29.52,-19.59 41.92,-32.16 22.62,-23.1 41.39,-50.25 53.7,-80.21 7.41,-18.97 12.78,-40.01 7.94,-60.3 -3.17,-14.01 -13.16,-25.91 -25.91,-32.31 -18.71,-9.51 -40.29,-10.96 -60.92,-10.16 z"
       id="path3"
       inkscape:connector-curvature="0"
       style="opacity:1;fill:#ffcc00" />
  </g>
  <g
     id="#00349aff"
     transform="translate(-85.718455,-101.72528)"
     style="fill:#ffffff;fill-opacity:1">
    <path
       d="m 428.95,174.07 c 6.98,-3.12 15.5,-1.1 21.06,3.95 5.2,4.83 7.7,12.03 7.54,19.05 0.17,35 0.02,69.99 0.07,104.99 0.06,9.98 -7.39,20.4 -17.73,21.41 -8.86,0.67 -16.69,-6.22 -19.33,-14.31 -1.76,-4.86 -1.08,-10.12 -1.08,-15.17 0.03,-24.67 0,-49.34 0.02,-74.01 -3.87,1.5 -7.54,3.63 -11.62,4.48 -8.8,1.47 -17.71,-4.58 -20.42,-12.91 -3.07,-8.42 0.29,-19.41 8.82,-23.17 10.87,-4.81 21.78,-9.53 32.67,-14.31 z"
       id="path6"
       inkscape:connector-curvature="0"
       style="opacity:1;fill:#ffffff;fill-opacity:1" />
    <path
       d="m 85.79,380.03 c 0.07,-10.61 8.59,-20.51 19.31,-21.32 10.97,-0.24 21.96,0 32.93,-0.11 3.05,0.01 6.71,-0.01 8.75,2.67 2.38,3.21 2.38,8.19 -0.17,11.32 -1.84,2.2 -4.9,2.33 -7.54,2.38 -10.38,0.13 -20.77,-0.06 -31.15,0.06 -3.67,-0.25 -5.85,3.71 -5.76,6.95 -0.11,6.49 0.03,12.99 -0.04,19.5 7.31,0.04 14.63,0 21.95,0.01 2.77,0.07 5.99,0.23 7.9,2.54 3.71,4.26 2.11,13.05 -4.21,13.7 -8.53,0.35 -17.09,0.01 -25.63,0.15 -0.01,14.69 0.02,29.38 -0.01,44.07 0.04,2.82 -0.68,6.17 -3.43,7.58 -3.26,1.49 -7.48,1.45 -10.48,-0.67 -2.37,-1.83 -2.51,-5.09 -2.49,-7.83 0.09,-27 -0.07,-54.01 0.07,-81 z"
       id="path8"
       inkscape:connector-curvature="0"
       style="opacity:1;fill:#ffffff;fill-opacity:1" />
    <path
       d="m 268.52,366.03 c -0.21,-5.67 6.59,-8.93 11.42,-6.92 2.8,0.99 5.04,3.75 4.91,6.81 0.06,17.03 0.01,34.06 0.02,51.09 8.68,-7.36 17.41,-14.68 26.08,-22.06 1.7,-1.45 3.61,-2.89 5.95,-2.94 5,-0.72 9.42,4.12 9.35,8.92 -0.22,2.12 -1.62,3.79 -3.22,5.06 -5.76,4.82 -11.49,9.68 -17.25,14.51 6.28,11.95 12.56,23.9 18.88,35.83 1.67,2.74 2.75,6.04 1.62,9.21 -1.19,4.25 -6.38,5.73 -10.25,4.66 -2.46,-0.79 -4.11,-2.92 -5.23,-5.13 -5.92,-11.22 -11.89,-22.4 -17.84,-33.59 -2.69,2.26 -5.38,4.52 -8.08,6.77 -0.05,8.29 0.05,16.58 -0.03,24.87 0.17,4.16 -3.83,7.48 -7.82,7.41 -4.23,0.3 -8.75,-3.09 -8.52,-7.57 -0.02,-32.31 -0.03,-64.62 0.01,-96.93 z"
       id="path10"
       inkscape:connector-curvature="0"
       style="opacity:1;fill:#ffffff;fill-opacity:1" />
    <path
       d="m 142.74,398.03 c -0.38,-3.05 2.03,-6.2 5.21,-6.11 6.67,0.07 13.36,0.06 20.04,0.19 7.74,-0.22 14.8,5.17 17.96,12.02 2.36,5.23 2.76,11.21 2.04,16.84 -1.78,5.96 -10.7,7.33 -14.47,2.55 -3.31,-3.81 -0.01,-9.71 -3.51,-13.48 -2.79,-2.95 -7.29,-1.43 -10.87,-1.79 -0.05,18.25 0.03,36.5 -0.04,54.75 0.22,3.97 -3.35,7.26 -7.16,7.49 -4.44,0.64 -9.39,-2.81 -9.18,-7.55 -0.05,-21.63 -0.01,-43.27 -0.02,-64.91 z"
       id="path12"
       inkscape:connector-curvature="0"
       style="opacity:1;fill:#ffffff;fill-opacity:1" />
    <path
       d="m 200.35,406.4 c 5.97,-11.45 20.1,-17.72 32.57,-14.05 8.08,2.04 14.87,8.06 18.28,15.61 3.12,6.52 3.52,13.92 3.11,21.03 -0.15,4.26 -3.92,8.01 -8.22,7.93 -11.19,0.22 -22.38,0.02 -33.57,0.08 0.09,3.9 -0.74,8.29 1.83,11.62 4.49,6.55 14.77,7.42 20.68,2.35 2.25,-2.1 2.92,-5.79 6.05,-6.94 5.2,-2.35 12.24,2.1 11.62,7.96 -1.02,4.21 -3.7,7.9 -6.85,10.8 -11.22,10.43 -30.71,9.74 -41.29,-1.28 -5.81,-5.93 -8.67,-14.32 -8.45,-22.55 0.35,-10.9 -1.65,-22.7 4.24,-32.56 m 13.45,7.52 c -1.22,2 -1.21,4.41 -1.46,6.67 8.59,0.07 17.19,0.03 25.79,0.02 -0.2,-2.41 -0.25,-4.96 -1.64,-7.04 -4.67,-7.93 -18.3,-7.81 -22.69,0.35 z"
       id="path14"
       inkscape:connector-curvature="0"
       style="opacity:1;fill:#ffffff;fill-opacity:1" />
    <path
       d="m 333.68,396.67 c 2.07,-5.09 9.52,-6.39 13.48,-2.77 1.73,1.48 2.34,3.77 3.03,5.86 3.73,12.27 7.56,24.49 11.32,36.75 4.12,-13.03 7.94,-26.16 12.06,-39.19 1.82,-6.43 11.49,-7.3 15.01,-1.91 2.33,3.27 0.56,7.35 -0.43,10.76 -5.86,18.92 -11.65,37.85 -17.44,56.79 -0.82,2.7 -2.25,5.54 -4.99,6.71 -4.84,2.32 -11.52,0.03 -13,-5.37 -6.23,-19.75 -12.13,-39.61 -18.31,-59.37 -0.76,-2.64 -1.88,-5.56 -0.73,-8.26 z"
       id="path16"
       inkscape:connector-curvature="0"
       style="opacity:1;fill:#ffffff;fill-opacity:1" />
    <path
       d="m 408.53,398.57 c 8.97,-8.41 23.54,-9.5 33.86,-2.97 11.78,7.22 15.74,22.53 13.49,35.48 -1.07,3.76 -4.94,6.1 -8.75,5.9 -10.92,0.1 -21.85,-0.03 -32.77,0.05 0.1,3.91 -0.61,8.31 1.97,11.64 5.41,7.93 19.53,7.37 23.47,-1.71 3.74,-6.98 15.82,-2.66 14.82,5.01 -1.13,4.99 -4.6,9.21 -8.59,12.28 -13.11,10.38 -34.98,6.86 -43.46,-7.81 -6.04,-9.36 -4.33,-20.89 -4.58,-31.43 -0.33,-9.75 3.12,-19.88 10.54,-26.44 m 7.67,14.58 c -1.56,2.16 -1.74,4.88 -1.99,7.44 8.64,0.07 17.28,0.02 25.93,0.03 -0.13,-3.13 -0.71,-6.43 -2.95,-8.78 -5.38,-5.91 -16.51,-5.5 -20.99,1.31 z"
       id="path18"
       inkscape:connector-curvature="0"
       style="opacity:1;fill:#ffffff;fill-opacity:1" />
    <path
       d="m 486.47,392.71 c 6.08,-1.44 12.38,-0.65 18.57,-0.85 6.83,-0.24 13.78,2.68 18.01,8.12 3.56,4.51 4.89,10.38 4.83,16.04 -0.03,15.68 0.04,31.37 -0.03,47.05 0.12,6.03 -7.44,9.26 -12.34,6.53 -2.41,-1.23 -4.14,-3.82 -4.01,-6.57 -0.04,-15.69 0.03,-31.38 -0.02,-47.06 0.19,-3.29 -1.74,-7.45 -5.5,-7.41 -4.65,-0.1 -9.3,-0.16 -13.94,0.03 -3.53,0.25 -5.19,4.17 -5.03,7.29 -0.03,15.39 0.01,30.79 0,46.18 0.08,2.16 -0.39,4.45 -2.03,5.99 -4.15,4.67 -13.56,2.46 -14.28,-4.03 -0.22,-15.68 0,-31.37 -0.1,-47.06 -0.12,-5.38 0.7,-11.02 3.74,-15.58 2.8,-4.26 7.24,-7.32 12.13,-8.67 z"
       id="path20"
       inkscape:connector-curvature="0"
       style="opacity:1;fill:#ffffff;fill-opacity:1" />
    <path
       d="m 563.37,392.64 c 13.24,-4.19 29.75,1.62 35.23,14.91 2.78,6.09 -4.59,12.44 -10.44,10.21 -4.27,-1.18 -4.59,-6.73 -8.49,-8.47 -7.47,-4.66 -19.8,-0.73 -20.7,8.73 -0.13,8.68 -0.26,17.4 0.07,26.08 1.38,9.28 13.71,12.84 20.99,7.95 3.57,-1.88 3.98,-7.03 8.04,-8.21 5.43,-2.09 12.6,3.22 10.89,9.15 -2.83,8.1 -10.27,14.09 -18.45,16.22 -7.39,1.73 -15.49,1.21 -22.27,-2.37 -6.78,-3.45 -11.9,-9.8 -14.14,-17.04 -2.45,-7.69 -1.17,-15.86 -1.49,-23.78 -0.28,-6.73 0.41,-13.72 3.79,-19.68 3.55,-6.58 9.79,-11.62 16.97,-13.7 z"
       id="path22"
       inkscape:connector-curvature="0"
       style="opacity:1;fill:#ffffff;fill-opacity:1" />
    <path
       d="m 624.51,394.74 c 10.91,-6.09 25.85,-3.78 34.17,5.63 7.15,7.62 9.04,18.65 8.18,28.75 -0.26,3.03 -2.17,5.95 -5.02,7.15 -2.18,0.84 -4.57,0.7 -6.86,0.76 -9.99,-0.05 -19.97,0 -29.95,-0.04 0.07,3.8 -0.73,8.05 1.66,11.35 4.28,6.64 14.47,7.74 20.5,2.92 2.64,-2.17 3.29,-6.42 6.91,-7.43 5.16,-1.89 11.78,2.51 11.13,8.21 -1.06,4.31 -3.84,8.06 -7.11,10.98 -11.34,10.3 -30.88,9.4 -41.29,-1.81 -5.4,-5.65 -8.18,-13.49 -8.2,-21.25 0,-5.98 -0.05,-11.95 0.02,-17.93 0.2,-10.97 6.08,-21.99 15.86,-27.29 m 2.41,18.22 c -1.69,2.18 -1.89,5 -2.06,7.65 8.6,0.01 17.2,0.05 25.8,-0.02 -0.24,-2.26 -0.23,-4.66 -1.43,-6.66 -4.29,-7.92 -17.29,-8.32 -22.31,-0.97 z"
       id="path24"
       inkscape:connector-curvature="0"
       style="opacity:1;fill:#ffffff;fill-opacity:1" />
  </g>
</svg>
