<?xml version="1.0" encoding="UTF-8" standalone="no"?>
<svg
   xmlns:dc="http://purl.org/dc/elements/1.1/"
   xmlns:cc="http://creativecommons.org/ns#"
   xmlns:rdf="http://www.w3.org/1999/02/22-rdf-syntax-ns#"
   xmlns:svg="http://www.w3.org/2000/svg"
   xmlns="http://www.w3.org/2000/svg"
   xmlns:sodipodi="http://sodipodi.sourceforge.net/DTD/sodipodi-0.dtd"
   xmlns:inkscape="http://www.inkscape.org/namespaces/inkscape"
   id="9091bb2a-c404-4c26-bd77-3ae513a8f379"
   data-name="V√Ĺchoz√≠"
   viewBox="0 0 489.58412 195.00968"
   version="1.1"
   sodipodi:docname="Hitradio City 93,7 FM - Dark.svg"
   inkscape:version="0.92.0 r15299"
   width="489.58414"
   height="195.00967">
  <metadata
     id="metadata69">
    <rdf:RDF>
      <cc:Work
         rdf:about="">
        <dc:format>image/svg+xml</dc:format>
        <dc:type
           rdf:resource="http://purl.org/dc/dcmitype/StillImage" />
        <dc:title />
      </cc:Work>
    </rdf:RDF>
  </metadata>
  <sodipodi:namedview
     pagecolor="#ffffff"
     bordercolor="#666666"
     borderopacity="1"
     objecttolerance="10"
     gridtolerance="10"
     guidetolerance="10"
     inkscape:pageopacity="0"
     inkscape:pageshadow="2"
     inkscape:window-width="1920"
     inkscape:window-height="1017"
     id="namedview67"
     showgrid="false"
     inkscape:zoom="1.6588058"
     inkscape:cx="273.80567"
     inkscape:cy="80.535301"
     inkscape:window-x="-8"
     inkscape:window-y="-8"
     inkscape:window-maximized="1"
     inkscape:current-layer="9091bb2a-c404-4c26-bd77-3ae513a8f379"
     fit-margin-top="0"
     fit-margin-left="0"
     fit-margin-right="0"
     fit-margin-bottom="0" />
  <defs
     id="defs4">
    <style
       id="style2">.e0cc8bb2-6751-4b20-8652-c3f808f2c07e{fill:#005490;}.d74a769a-d9ed-4f26-b967-68ebfe21631c{fill:#ed1b34;}</style>
  </defs>
  <path
     inkscape:connector-curvature="0"
     class="e0cc8bb2-6751-4b20-8652-c3f808f2c07e"
     d="m 402.03699,114.36639 c 0,6.11225 -3.72682,12.00129 -16.02619,12.00129 -12.22377,0 -16.02547,-5.88904 -16.02547,-12.00129 V 86.48941 c 0,-6.11152 3.8017,-12.00056 16.02547,-12.00056 12.29937,0 16.02619,5.88904 16.02619,12.00056 v 4.0249 c 0,1.41628 -0.52201,2.08734 -1.93829,2.08734 h -7.08067 c -1.49116,0 -2.08734,-0.67106 -2.08734,-2.08734 v -2.83546 c 0,-2.68279 -1.93756,-3.80171 -4.77085,-3.80171 -2.90817,0 -4.77085,1.11819 -4.77085,3.80171 v 25.49229 c 0,2.68278 1.86341,3.8017 4.77085,3.8017 2.83547,0 4.77085,-1.11819 4.77085,-3.8017 v -3.87659 c 0,-1.49044 0.59618,-2.08662 2.08734,-2.08662 h 7.08067 c 1.41628,0 1.93829,0.59618 1.93829,2.08662 v 5.06894 z"
     id="path8"
     style="fill:#005490;fill-opacity:1;stroke-width:0.72704238" />
  <path
     inkscape:connector-curvature="0"
     class="e0cc8bb2-6751-4b20-8652-c3f808f2c07e"
     d="m 418.51032,82.24057 c 0,1.41628 -0.44713,2.01318 -1.93757,2.01318 h -7.08139 c -1.49116,0 -2.01245,-0.59617 -2.01245,-2.01318 v -6.26129 c 0,-1.49043 0.52129,-2.1615 2.01245,-2.1615 h 7.08139 c 1.49044,0 1.93757,0.67107 1.93757,2.1615 z m 0,41.44142 c 0,1.49116 -0.44713,2.08734 -1.93757,2.08734 h -7.08139 c -1.49116,0 -2.01245,-0.59618 -2.01245,-2.08734 V 90.58847 c 0,-1.49043 0.52129,-2.08661 2.01245,-2.08661 h 7.08139 c 1.49044,0 1.93757,0.59618 1.93757,2.08661 v 33.0957 z"
     id="path10"
     style="fill:#005490;fill-opacity:1;stroke-width:0.72704238" />
  <path
     inkscape:connector-curvature="0"
     class="e0cc8bb2-6751-4b20-8652-c3f808f2c07e"
     d="m 451.23304,75.08575 c 1.49117,0 2.08734,0.52201 2.08734,1.93756 v 5.44119 c 0,1.41628 -0.59617,2.01318 -2.08734,2.01318 h -7.67756 v 39.20722 c 0,1.49116 -0.52202,2.08733 -1.9383,2.08733 h -7.45364 c -1.49116,0 -2.01318,-0.59617 -2.01318,-2.08733 V 84.47695 h -7.751 c -1.49116,0 -2.08734,-0.59617 -2.08734,-2.01318 v -5.44118 c 0,-1.41555 0.59618,-1.93757 2.08734,-1.93757 h 26.83368 z"
     id="path12"
     style="fill:#005490;fill-opacity:1;stroke-width:0.72704238" />
  <path
     inkscape:connector-curvature="0"
     class="e0cc8bb2-6751-4b20-8652-c3f808f2c07e"
     d="m 471.0624,91.48346 a 45.486681,45.486681 0 0 1 0.96842,4.99406 41.429784,41.429784 0 0 1 1.19308,-4.99406 l 5.14309,-14.31183 c 0.44713,-1.19308 0.96915,-2.08661 2.38543,-2.08661 h 7.08067 c 1.49116,0 2.08733,0.74449 1.56532,2.08661 l -11.62832,29.59063 v 16.91973 c 0,1.49116 -0.52201,2.08734 -2.01245,2.08734 h -7.37948 c -1.49044,0 -2.01246,-0.59618 -2.01246,-2.08734 v -15.57616 l -11.70538,-30.9342 c -0.52201,-1.26723 0,-2.08661 1.49117,-2.08661 h 8.1247 c 1.49116,0 2.16222,0.81938 2.53446,2.08661 z"
     id="path14"
     style="fill:#005490;fill-opacity:1;stroke-width:0.72704238" />
  <path
     inkscape:connector-curvature="0"
     class="e0cc8bb2-6751-4b20-8652-c3f808f2c07e"
     d="M 11.415293,95.14557 H 21.934869 V 77.01604 c 0,-1.49189 0.596902,-2.08879 2.014635,-2.08879 h 7.460909 c 1.417733,0 1.939749,0.5969 1.939749,2.08879 v 46.55398 c 0,1.49189 -0.522016,2.0888 -1.939749,2.0888 h -7.461636 c -1.417733,0 -2.014635,-0.59691 -2.014635,-2.0888 v -19.0994 H 11.415293 v 19.0994 c 0,1.49189 -0.447858,2.0888 -1.9397494,2.0888 H 2.0146345 C 0.59690181,125.65882 0,125.06191 0,123.57002 V 77.01604 c 0,-1.49189 0.59690181,-2.08879 2.0146345,-2.08879 h 7.4609091 c 1.4918914,0 1.9397494,0.5969 1.9397494,2.08879 z"
     id="path16"
     style="fill:#005490;fill-opacity:1;stroke-width:0.72704238" />
  <path
     inkscape:connector-curvature="0"
     class="e0cc8bb2-6751-4b20-8652-c3f808f2c07e"
     d="m 51.47751,82.08935 c 0,1.41773 -0.447858,2.01463 -1.939749,2.01463 h -7.087936 c -1.491891,0 -2.014635,-0.59617 -2.014635,-2.01463 v -6.26638 c 0,-1.49262 0.522017,-2.16368 2.014635,-2.16368 h 7.087936 c 1.491891,0 1.939749,0.67106 1.939749,2.16368 z m 0,41.4814 c 0,1.49189 -0.447858,2.08879 -1.939749,2.08879 h -7.087936 c -1.491891,0 -2.014635,-0.5969 -2.014635,-2.08879 V 90.44524 c 0,-1.49189 0.522017,-2.08879 2.014635,-2.08879 h 7.087936 c 1.491891,0 1.939749,0.5969 1.939749,2.08879 z"
     id="path18"
     style="fill:#005490;fill-opacity:1;stroke-width:0.72704238" />
  <path
     inkscape:connector-curvature="0"
     class="e0cc8bb2-6751-4b20-8652-c3f808f2c07e"
     d="m 84.227862,74.92725 c 1.491891,0 2.088793,0.52202 2.088793,1.93975 v 5.44628 c 0,1.417 -0.596902,2.01463 -2.088793,2.01463 h -7.684111 v 39.24284 c 0,1.49189 -0.522016,2.08879 -1.939749,2.08879 h -7.460909 c -1.491891,0 -2.014635,-0.5969 -2.014635,-2.08879 V 84.32791 h -7.758269 c -1.492618,0 -2.08952,-0.5969 -2.08952,-2.01463 V 76.867 c 0,-1.41773 0.596902,-1.93975 2.08952,-1.93975 z"
     id="path20"
     style="fill:#005490;fill-opacity:1;stroke-width:0.72704238" />
  <path
     inkscape:connector-curvature="0"
     class="e0cc8bb2-6751-4b20-8652-c3f808f2c07e"
     d="m 92.806236,125.65954 c -1.417733,0 -2.014635,-0.5969 -2.014635,-2.08879 V 77.01604 c 0,-1.49189 0.596902,-2.08879 2.014635,-2.08879 h 13.951214 c 12.30955,0 16.63691,5.89341 16.63691,12.01147 v 7.75972 c 0,3.95366 -1.86487,7.83316 -6.49031,10.07172 l 6.19222,18.80059 c 0.44786,1.26796 -0.37297,2.08879 -1.93975,2.08879 h -7.83388 c -1.34285,0 -1.78998,-0.74594 -2.23784,-2.08879 l -5.2965,-16.85866 h -3.58141 v 16.86084 c 0,1.49189 -0.52202,2.08879 -1.93975,2.08879 h -7.460904 z m 9.400654,-41.33163 v 12.98061 h 4.55128 c 2.98088,0 5.37139,-1.1938 5.37139,-3.87949 v -5.22235 c 0,-2.76276 -2.3876,-3.8795 -5.37139,-3.8795 h -4.55128 z"
     id="path22"
     style="fill:#005490;fill-opacity:1;stroke-width:0.72704238" />
  <path
     inkscape:connector-curvature="0"
     class="e0cc8bb2-6751-4b20-8652-c3f808f2c07e"
     d="m 148.08835,74.92725 c 1.41774,0 2.16368,0.67179 2.53665,2.08879 l 11.56434,46.55398 c 0.37297,1.34285 -0.0727,2.0888 -1.49262,2.0888 h -7.53506 c -1.4919,0 -2.16368,-0.74595 -2.4625,-2.0888 l -1.71582,-7.90804 h -10.07172 l -1.71582,7.90804 c -0.29808,1.34285 -0.96987,2.0888 -2.46176,2.0888 h -6.86328 c -1.49189,0 -1.93975,-0.74595 -1.56678,-2.0888 l 11.56434,-46.55398 c 0.37297,-1.417 1.11892,-2.08879 2.61081,-2.08879 z m 1.49189,-4.99841 a 2.8550955,2.8550955 0 0 1 -2.6108,1.417 h -5.44628 c -1.1938,0 -1.71582,-0.52202 -1.1938,-2.01463 l 2.46176,-7.08721 a 2.7409498,2.7409498 0 0 1 2.76276,-2.08952 h 7.31114 c 1.49189,0 1.79071,0.89499 1.11892,2.08952 z m -3.65556,31.63288 c -0.74595,-3.8795 -1.78998,-12.68325 -1.86487,-13.35431 -0.0727,0.59617 -1.26869,9.84779 -2.01463,13.35431 l -1.04476,5.0733 h 5.89413 z"
     id="path24"
     style="fill:#005490;fill-opacity:1;stroke-width:0.72704238" />
  <path
     inkscape:connector-curvature="0"
     class="e0cc8bb2-6751-4b20-8652-c3f808f2c07e"
     d="m 168.60404,125.65954 c -1.26869,0 -1.79071,-0.67178 -1.79071,-2.08879 V 77.01604 c 0,-1.49189 0.5969,-2.08879 2.01464,-2.08879 h 14.623 c 12.31028,0 16.7118,5.89341 16.7118,12.01147 v 26.70863 c 0,6.11806 -4.40152,12.01147 -16.7118,12.01147 h -14.84621 z m 9.62386,-41.33163 v 31.93098 h 5.14818 c 2.98088,0 5.37139,-1.19381 5.37139,-4.02855 V 88.35645 c 0,-2.83546 -2.3876,-4.02854 -5.37139,-4.02854 z"
     id="path26"
     style="fill:#005490;fill-opacity:1;stroke-width:0.72704238" />
  <path
     inkscape:connector-curvature="0"
     class="e0cc8bb2-6751-4b20-8652-c3f808f2c07e"
     d="m 217.61542,82.08935 c 0,1.41773 -0.44713,2.01463 -1.93975,2.01463 h -7.08794 c -1.49189,0 -2.01463,-0.59617 -2.01463,-2.01463 v -6.26638 c 0,-1.49262 0.52201,-2.16368 2.01463,-2.16368 h 7.08794 c 1.49262,0 1.93975,0.67106 1.93975,2.16368 z m 0,41.4814 c 0,1.49189 -0.44713,2.08879 -1.93975,2.08879 h -7.08794 c -1.49189,0 -2.01463,-0.5969 -2.01463,-2.08879 V 90.44524 c 0,-1.49189 0.52201,-2.08879 2.01463,-2.08879 h 7.08794 c 1.49262,0 1.93975,0.5969 1.93975,2.08879 z"
     id="path28"
     style="fill:#005490;fill-opacity:1;stroke-width:0.72704238" />
  <path
     inkscape:connector-curvature="0"
     class="d74a769a-d9ed-4f26-b967-68ebfe21631c"
     d="m 347.08713,79.73082 a 34.905306,34.905306 0 0 0 -11.04305,-16.22613 30.111188,30.111188 0 0 0 -30.40273,-4.39061 33.174945,33.174945 0 0 0 -10.92817,7.46963 q -0.0196,0.0196 -0.0407,0.0371 c -0.0138,-0.0116 -0.0276,-0.024 -0.0407,-0.0371 a 33.174945,33.174945 0 0 0 -10.92818,-7.46963 30.111188,30.111188 0 0 0 -30.40346,4.39061 34.906033,34.906033 0 0 0 -11.04304,16.22613 39.584551,39.584551 0 0 0 -0.96479,21.1373 50.311334,50.311334 0 0 0 3.79371,10.48832 76.396161,76.396161 0 0 0 10.24766,15.85825 105.40952,105.40952 0 0 0 19.61924,17.80018 128.97151,128.97151 0 0 0 12.64254,8.05708 c 0,0 4.09325,2.65589 6.60445,3.08702 0.15704,0.0269 0.31409,0.0458 0.47331,0.0574 0.15849,-0.0116 0.31626,-0.0305 0.4733,-0.0574 2.51048,-0.43113 6.60446,-3.08702 6.60446,-3.08702 a 128.97732,128.97732 0 0 0 12.64254,-8.05708 105.41097,105.41097 0 0 0 19.61705,-17.80018 76.395434,76.395434 0 0 0 10.24694,-15.85534 50.299701,50.299701 0 0 0 3.79371,-10.48832 39.586732,39.586732 0 0 0 -0.96406,-21.14021 z m -12.19977,15.48673 a 25.591892,25.591892 0 0 1 -0.57655,3.08557 c -0.16285,0.64707 -0.35116,1.28759 -0.55909,1.92157 q -0.33153,1.01277 -0.72705,2.00446 c -0.277,0.70232 -0.57509,1.39665 -0.88699,2.0837 q -0.27918,0.61435 -0.57291,1.22071 -0.88626,1.82923 -1.89903,3.59449 a 62.934971,62.934971 0 0 1 -4.55129,6.84947 c -1.36029,1.78489 -2.81292,3.49925 -4.34117,5.14237 -1.3632,1.46572 -2.78748,2.87545 -4.25683,4.23502 q -2.26256,2.09388 -4.66034,4.03509 -2.44795,1.98991 -5.00423,3.84169 l -0.21812,0.15631 q -2.8391,2.05681 -5.78217,3.95948 -2.40723,1.55587 -4.94025,2.88636 a 2.3723394,2.3723394 0 0 1 -2.48576,0 q -2.53737,-1.3334 -4.94025,-2.88636 -2.94452,-1.9034 -5.78217,-3.95948 l -0.21811,-0.15631 q -2.55119,-1.85614 -5.00423,-3.84169 -2.39197,-1.94484 -4.65962,-4.03509 c -1.46935,-1.35957 -2.8929,-2.7693 -4.25683,-4.23502 -1.52679,-1.64312 -2.98088,-3.35748 -4.34117,-5.14237 a 62.934971,62.934971 0 0 1 -4.55129,-6.84947 q -1.01059,-1.76453 -1.89903,-3.59449 -0.29082,-0.60708 -0.57291,-1.22071 c -0.31263,-0.68778 -0.60999,-1.38138 -0.88699,-2.0837 q -0.39115,-0.99169 -0.72705,-2.00446 c -0.20793,-0.63398 -0.39623,-1.2745 -0.55909,-1.92157 a 25.591892,25.591892 0 0 1 -0.57655,-3.08557 26.01285,26.01285 0 0 1 -0.19412,-3.68901 25.671867,25.671867 0 0 1 0.33226,-3.67302 24.299938,24.299938 0 0 1 0.84701,-3.5247 23.226097,23.226097 0 0 1 1.24324,-3.08193 22.078824,22.078824 0 0 1 1.57768,-2.72351 q 0.44277,-0.6507 0.93425,-1.26578 a 18.667541,18.667541 0 0 1 2.05898,-2.19785 q 0.60345,-0.546 1.25706,-1.0324 a 16.623824,16.623824 0 0 1 3.60177,-2.03571 15.792815,15.792815 0 0 1 1.92521,-0.65434 15.491092,15.491092 0 0 1 2.21966,-0.41951 16.416617,16.416617 0 0 1 2.5621,-0.0938 16.927728,16.927728 0 0 1 2.57954,0.30608 16.18978,16.18978 0 0 1 2.45377,0.6856 15.994933,15.994933 0 0 1 1.91503,0.85355 17.97685,17.97685 0 0 1 1.78562,1.0782 q 0.22538,0.15414 0.44713,0.31481 a 12.677438,12.677438 0 0 1 3.46581,3.75009 21.720392,21.720392 0 0 1 2.15859,4.6996 7.305322,7.305322 0 0 0 14.09444,0 21.720392,21.720392 0 0 1 2.15859,-4.6996 12.678892,12.678892 0 0 1 3.46581,-3.75009 q 0.21811,-0.16067 0.44713,-0.31481 a 17.984121,17.984121 0 0 1 1.78562,-1.0782 15.994933,15.994933 0 0 1 1.91503,-0.85355 16.191961,16.191961 0 0 1 2.45377,-0.6856 16.927728,16.927728 0 0 1 2.57954,-0.30608 16.416617,16.416617 0 0 1 2.5621,0.0938 15.486003,15.486003 0 0 1 2.2153,0.41951 15.791361,15.791361 0 0 1 1.92521,0.65434 16.628914,16.628914 0 0 1 3.60176,2.03571 q 0.65434,0.48567 1.25706,1.0324 a 18.68499,18.68499 0 0 1 2.05898,2.19785 q 0.49149,0.61508 0.93425,1.26578 a 22.086094,22.086094 0 0 1 1.57841,2.72351 23.233367,23.233367 0 0 1 1.24325,3.08193 24.292668,24.292668 0 0 1 0.847,3.5247 25.664597,25.664597 0 0 1 0.33226,3.67302 26.01285,26.01285 0 0 1 -0.18903,3.68901 z"
     id="path56"
     style="fill:#ed1b34;fill-opacity:1;stroke-width:0.72704238" />
  <path
     inkscape:connector-curvature="0"
     class="e0cc8bb2-6751-4b20-8652-c3f808f2c07e"
     d="M 392.46403,47.85074 A 78.375171,78.375171 0 0 0 328.6297,0.04697394 5.2310701,5.2310701 0 1 0 327.49116,10.44368 a 67.90576,67.90576 0 0 1 55.3112,41.42251 5.2314364,5.2314364 0 0 0 9.66167,-4.01545 z"
     id="path58"
     style="fill:#005490;fill-opacity:1;stroke-width:0.72704238" />
  <path
     inkscape:connector-curvature="0"
     class="e0cc8bb2-6751-4b20-8652-c3f808f2c07e"
     d="M 332.30127,23.981937 A 55.332289,55.332289 0 0 1 367.30254,49.07508 5.2311159,5.2311159 0 1 1 358.3781,54.53517 44.870149,44.870149 0 0 0 329.99436,34.1867 5.2311348,5.2311348 0 0 1 332.30127,23.981937 Z"
     id="path60"
     style="fill:#005490;fill-opacity:1;stroke-width:0.72704238" />
  <path
     inkscape:connector-curvature="0"
     class="e0cc8bb2-6751-4b20-8652-c3f808f2c07e"
     d="m 209.60705,150.42552 a 73.040861,73.040861 0 0 0 59.49097,44.54952 4.8755463,4.8755463 0 0 0 1.06075,-9.69293 63.290495,63.290495 0 0 1 -51.5473,-38.60595 4.8769171,4.8769171 0 1 0 -9.00442,3.74936 z"
     id="path62"
     style="fill:#005490;fill-opacity:1;stroke-width:0.72704238" />
  <path
     inkscape:connector-curvature="0"
     class="e0cc8bb2-6751-4b20-8652-c3f808f2c07e"
     d="m 265.67728,172.67083 a 51.56839,51.56839 0 0 1 -32.62094,-23.38604 4.8755463,4.8755463 0 0 1 8.31737,-5.0893 41.818025,41.818025 0 0 0 26.45271,18.96417 4.8755463,4.8755463 0 0 1 -2.14914,9.51117 z"
     id="path64"
     style="fill:#005490;fill-opacity:1;stroke-width:0.72704238" />
  <g
     transform="matrix(0.54538647,0,0,0.54538647,-124.51514,-76.162531)"
     id="g4533"
     style="fill:#ed1b34;fill-opacity:1">
    <g
       id="#e9204cff"
       style="fill:#ed1b34;fill-opacity:1">
      <path
         sodipodi:nodetypes="ccccsccccccccscccsc"
         style="opacity:1;fill:#ed1b34;fill-opacity:1"
         inkscape:connector-curvature="0"
         id="path7"
         d="m 1003.37,414.39 c 4.28,-4.8 11.36,-5.57 17.41,-5.05 0.6488,2.19094 0.4,4.91 -0.62,6.81 -3.22,1.11 -7.5,0.1 -9.88,3.19 -0.7857,1.20945 -1.2283,2.55614 -1.3889,3.97238 L 1008.2,429.41 c 5.3688,0 6.57,-0.06 9.84,0.29 -0.55,2.15 -0.09,4.92 -1.52,6.66 l -9.01,0.15 -7.85,60.41 c -3.48465,0.49253 -5.24113,0.26775 -8.1,0 1.89,-20.14 4.75,-40.2 7.22,-60.29 -2.22,-0.03 -4.41,-0.19 -6.6,-0.42 l 0.33664,-3.60102 c 0.0611,-0.65391 0.22805,-1.28708 0.48201,-1.88872 0.14434,-0.47856 0.47571,-0.56295 0.87941,-0.71525 1.79632,-0.5946 3.78559,-0.49146 5.67194,-0.70501 l 0.5081,-5.10392 c 0.3524,-3.53883 0.9109,-7.05539 3.3119,-9.80608 z" />
      <path
         style="opacity:1;fill:#ed1b34;fill-opacity:1"
         inkscape:connector-curvature="0"
         id="path9"
         d="m 830.44,414.45 c 6.05,-4.65 14.41,-4.6 21.6,-3.33 5.61,0.91 10.74,5.89 10.02,11.88 -1.49,13.65 -3.27,27.26 -4.84,40.9 -0.38,4.36 -2.18,8.9 -5.98,11.36 -5.36,3.42 -12.13,3.58 -18.25,2.81 -4.87,-0.61 -10.12,-3.37 -11.35,-8.48 -0.52,-3.01 -0.54,-6.28 0.66,-9.12 2.61,-0.55 5.51,-0.69 8.1,0.06 0.27,2.86 -1.19,6.46 1.41,8.62 2.8,2.21 6.71,1.82 10.04,1.47 2.92,-0.4 5.67,-2.54 6.09,-5.58 1.02,-5.71 1.35,-11.53 2.48,-17.23 -4.96,3.8 -11.68,4.11 -17.55,2.66 -3.62,-0.85 -7.02,-3.3 -8.25,-6.9 -1.5,-4.12 -0.16,-8.49 0.2,-12.69 0.76,-5.69 0.73,-12.46 5.62,-16.43 m 9.02,4.2 c -3.67722,1.05256 -4.72767,4.34949 -5.20627,7.76521 l -1.14571,9.83965 c -0.22643,2.22619 -0.0531,4.37246 1.86198,5.86514 3.93,2.28 9.21,2.09 13.26,0.15 2.51341,-1.51396 3.18018,-4.11561 3.49158,-6.84733 l 1.17595,-9.83942 c 0.27108,-2.19067 0.23204,-4.34133 -1.49753,-5.93325 -3.45,-2.35 -8.09,-2.03 -11.94,-1 z"
         sodipodi:nodetypes="cccccccccccccccccccccccccc" />
      <path
         sodipodi:nodetypes="ccccccccccccccccssscsccccccc"
         style="opacity:1;fill:#ed1b34;fill-opacity:1"
         inkscape:connector-curvature="0"
         id="path11"
         d="m 876.27,415.29 c 4.83,-4.82 12.27,-5.13 18.68,-4.76 5.35,0.28 11.76,2.67 13.04,8.51 0.83,5.31 -0.63,10.68 -1.36,15.93 -0.6,3.84 -3.84,6.37 -7.27,7.67 3.42,1.33 6.28,4.5 5.96,8.38 -0.38,5.04 -1.13,10.05 -1.79,15.07 -0.59,4.09 -2.96,8.01 -6.72,9.89 -4.83,2.46 -10.44,2.66 -15.73,2.34 -4.38,-0.38 -9.25,-1.58 -11.97,-5.32 -2.86,-3.93 -2.13,-9.19 -0.93,-13.58 2.66997,-0.52016 4.77974,-0.42018 8.22,0.2 0.01,3.32 -1.64,8 2.03,10.02 3.81,1.79 8.54,1.63 12.45,0.21 4.7,-2.04 4.27,-7.79 4.92,-12.03 0.22,-3.28 1.86,-7.91 -1.72,-9.97 -1.68393,-0.85785 -3.47224,-1.19244 -5.30244,-1.21892 l -7.80801,-0.11298 c -0.15913,-0.002 -0.74702,-0.0169 -0.97911,-0.2483 -1.05212,-1.04882 0.014,-5.65583 1.70371,-6.74335 l 7.28214,-0.4349 c 2.25713,-0.1348 4.46212,-0.39639 6.42371,-1.71155 3,-2.08 2.88,-6.1 3.44,-9.32 0.36,-3.01 1.34,-7.18 -1.95,-8.94 -3.88,-1.76 -8.7,-1.7 -12.49,0.25 -3.47,1.84 -3.03,6.62975 -3.85,9.87975 -3.03516,0.67726 -5.49194,0.38613 -8.46,0 0.31,-4.84 0.54,-10.29975 4.18,-13.95975 z" />
      <path
         sodipodi:nodetypes="cccccccccssc"
         style="opacity:1;fill:#ed1b34;fill-opacity:1"
         inkscape:connector-curvature="0"
         id="path13"
         d="m 937.48349,411.1725 h 35.97676 v 0.35775 c 0.04,6.24 -3.57025,11.40975 -6.06025,16.84975 -6.86,14.12 -13.74,28.23 -20.6,42.34 -1.13,2.21 -1.98,4.62 -3.53,6.58 -3.08,0.84 -6.32,0.26 -9.44,-0.02 9.5,-19.49 18.96,-39 28.54,-58.45 -8.12,0.08 -16.23,0 -24.34,0.06 -1.5278,-0.004 -2.80243,0.0188 -3.70962,-0.36538 -0.47188,-0.19985 -0.5191,-0.3691 -0.51608,-0.68933 0.0317,-3.36191 1.45437,-6.68417 3.67919,-6.66279 z" />
      <path
         sodipodi:nodetypes="cccccccccccccccccccc"
         style="opacity:1;fill:#ed1b34;fill-opacity:1"
         inkscape:connector-curvature="0"
         id="path15"
         d="m 1025.5,429.5 c 3.2861,-0.79 5.2406,-0.54887 7.97,0.08 -0.12,0.95 -0.34,2.83 -0.46,3.78 5.41,-4.24 12.96,-6.6 19.55,-3.85 2.16,0.78 3.44,2.75 4.68,4.56 5.25,-4.51 12.7,-7.25 19.5,-4.86 4,1.32 6.55,5.62 5.91,9.77 l -4.5955,38.29975 c -1.6705,0.51549 -6.6158,0.44517 -8.7345,0.0602 1.3,-11.83 2.83,-23.63 4.18,-35.46 0.46,-2.19 -0.49,-4.9 -2.91,-5.34 -4.63,-0.93 -9.53,0.96 -12.99,3.99 -1.72,12.21 -3.01,24.49975 -4.54,36.74975 -2.91,0.49 -5.86,0.47025 -8.77,0.0703 1.36,-11.82 2.88,-23.63 4.29,-35.45 0.5,-2.25 -0.57,-5.04 -3.06,-5.39 -4.62,-0.9 -9.38,1.11 -12.91,3.99 -1.75,12.23 -3.05,24.53 -4.55,36.8 -2.92,0.48 -5.87,0.45 -8.79,0.04 z" />
      <path
         sodipodi:nodetypes="ccccc"
         style="opacity:1;fill:#ed1b34;fill-opacity:1"
         inkscape:connector-curvature="0"
         id="path17"
         d="m 914.1,466.67025 c 3.42906,-0.95568 5.18537,-0.37615 8.88,0 l -1.74,10.7295 c -3.3258,0.81435 -5.36109,0.29827 -8.53,0 z" />
    </g>
  </g>
</svg>
