<?xml version="1.0" encoding="UTF-8" standalone="no"?>
<svg
   xmlns:dc="http://purl.org/dc/elements/1.1/"
   xmlns:cc="http://creativecommons.org/ns#"
   xmlns:rdf="http://www.w3.org/1999/02/22-rdf-syntax-ns#"
   xmlns:svg="http://www.w3.org/2000/svg"
   xmlns="http://www.w3.org/2000/svg"
   xmlns:sodipodi="http://sodipodi.sourceforge.net/DTD/sodipodi-0.dtd"
   xmlns:inkscape="http://www.inkscape.org/namespaces/inkscape"
   id="cf7267ab-9798-441a-99eb-c9be161899bc"
   data-name="V√Ĺchoz√≠"
   viewBox="0 0 832.251 268.198"
   version="1.1"
   sodipodi:docname="Hitradio FM Plus - Dark.svg"
   inkscape:version="0.92.0 r15299">
  <metadata
     id="metadata73">
    <rdf:RDF>
      <cc:Work
         rdf:about="">
        <dc:format>image/svg+xml</dc:format>
        <dc:type
           rdf:resource="http://purl.org/dc/dcmitype/StillImage" />
        <dc:title></dc:title>
      </cc:Work>
    </rdf:RDF>
  </metadata>
  <sodipodi:namedview
     pagecolor="#ffffff"
     bordercolor="#666666"
     borderopacity="1"
     objecttolerance="10"
     gridtolerance="10"
     guidetolerance="10"
     inkscape:pageopacity="0"
     inkscape:pageshadow="2"
     inkscape:window-width="1920"
     inkscape:window-height="1017"
     id="namedview71"
     showgrid="false"
     inkscape:zoom="0.34124322"
     inkscape:cx="-60.074448"
     inkscape:cy="134.099"
     inkscape:window-x="-8"
     inkscape:window-y="-8"
     inkscape:window-maximized="1"
     inkscape:current-layer="cf7267ab-9798-441a-99eb-c9be161899bc" />
  <defs
     id="defs4">
    <style
       id="style2">.fadab590-22bf-4400-92d8-93c4806beaac{fill:#ed1b34;}.\32 173f6dc-bdff-4928-93af-840899b9aeab{fill:#005490;}</style>
  </defs>
  <path
     class="fadab590-22bf-4400-92d8-93c4806beaac"
     d="M675.68,385.089a48.01,48.01,0,0,0-15.189-22.318,41.416,41.416,0,0,0-41.817-6.039,45.63,45.63,0,0,0-15.031,10.274q-0.027.027-.056,0.051c-0.019-.016-0.038-0.033-0.056-0.051A45.63,45.63,0,0,0,588.5,356.732a41.416,41.416,0,0,0-41.818,6.039,48.011,48.011,0,0,0-15.189,22.318,54.446,54.446,0,0,0-1.327,29.073,69.2,69.2,0,0,0,5.218,14.426A105.078,105.078,0,0,0,549.479,450.4a144.984,144.984,0,0,0,26.985,24.483,177.392,177.392,0,0,0,17.389,11.082s5.63,3.653,9.084,4.246c0.216,0.037.432,0.063,0.651,0.079,0.218-.016.435-0.042,0.651-0.079,3.453-.593,9.084-4.246,9.084-4.246a177.4,177.4,0,0,0,17.389-11.082A144.986,144.986,0,0,0,657.694,450.4a105.077,105.077,0,0,0,14.094-21.808,69.184,69.184,0,0,0,5.218-14.426A54.449,54.449,0,0,0,675.68,385.089ZM658.9,406.39a35.2,35.2,0,0,1-.793,4.244c-0.224.89-.483,1.771-0.769,2.643q-0.456,1.393-1,2.757c-0.381.966-.791,1.921-1.22,2.866q-0.384.845-.788,1.679-1.219,2.516-2.612,4.944a86.563,86.563,0,0,1-6.26,9.421c-1.871,2.455-3.869,4.813-5.971,7.073-1.875,2.016-3.834,3.955-5.855,5.825q-3.112,2.88-6.41,5.55-3.367,2.737-6.883,5.284l-0.3.215q-3.905,2.829-7.953,5.446-3.311,2.14-6.795,3.97a3.263,3.263,0,0,1-3.419,0q-3.49-1.834-6.795-3.97-4.05-2.618-7.953-5.446l-0.3-.215q-3.509-2.553-6.883-5.284-3.29-2.675-6.409-5.55c-2.021-1.87-3.979-3.809-5.855-5.825-2.1-2.26-4.1-4.618-5.971-7.073a86.563,86.563,0,0,1-6.26-9.421q-1.39-2.427-2.612-4.944-0.4-.835-0.788-1.679c-0.43-.946-0.839-1.9-1.22-2.866q-0.538-1.364-1-2.757c-0.286-.872-0.545-1.753-0.769-2.643a35.2,35.2,0,0,1-.793-4.244,35.779,35.779,0,0,1-.267-5.074,35.31,35.31,0,0,1,.457-5.052,33.423,33.423,0,0,1,1.165-4.848,31.946,31.946,0,0,1,1.71-4.239,30.368,30.368,0,0,1,2.17-3.746q0.609-.895,1.285-1.741a25.676,25.676,0,0,1,2.832-3.023q0.83-.751,1.729-1.42a22.865,22.865,0,0,1,4.954-2.8,21.722,21.722,0,0,1,2.648-.9A21.307,21.307,0,0,1,570,372.97a22.58,22.58,0,0,1,3.524-.129,23.283,23.283,0,0,1,3.548.421,22.268,22.268,0,0,1,3.375.943,22,22,0,0,1,2.634,1.174,24.726,24.726,0,0,1,2.456,1.483q0.31,0.212.615,0.433a17.437,17.437,0,0,1,4.767,5.158,29.875,29.875,0,0,1,2.969,6.464,10.048,10.048,0,0,0,19.386,0,29.875,29.875,0,0,1,2.969-6.464,17.439,17.439,0,0,1,4.767-5.158q0.3-.221.615-0.433a24.736,24.736,0,0,1,2.456-1.483,22,22,0,0,1,2.634-1.174,22.271,22.271,0,0,1,3.375-.943,23.283,23.283,0,0,1,3.548-.421,22.58,22.58,0,0,1,3.524.129,21.3,21.3,0,0,1,3.047.577,21.72,21.72,0,0,1,2.648.9,22.872,22.872,0,0,1,4.954,2.8q0.9,0.668,1.729,1.42a25.7,25.7,0,0,1,2.832,3.023q0.676,0.846,1.285,1.741a30.378,30.378,0,0,1,2.171,3.746,31.956,31.956,0,0,1,1.71,4.239,33.413,33.413,0,0,1,1.165,4.848,35.3,35.3,0,0,1,.457,5.052A35.779,35.779,0,0,1,658.9,406.39Z"
     transform="translate(-198.284 -275.446)"
     id="path8"
     style="fill:#ed1b34;fill-opacity:1" />
  <path
     class="2173f6dc-bdff-4928-93af-840899b9aeab"
     d="M738.093,341.24a107.8,107.8,0,0,0-87.8-65.751,7.195,7.195,0,1,0-1.566,14.3,93.4,93.4,0,0,1,76.077,56.974A7.195,7.195,0,0,0,738.093,341.24Z"
     transform="translate(-198.284 -275.446)"
     id="path10"
     style="fill:#005490;fill-opacity:1" />
  <path
     class="2173f6dc-bdff-4928-93af-840899b9aeab"
     d="M655.343,308.41a76.106,76.106,0,0,1,48.142,34.514,7.195,7.195,0,1,1-12.275,7.51,61.716,61.716,0,0,0-39.04-27.988A7.195,7.195,0,0,1,655.343,308.41Z"
     transform="translate(-198.284 -275.446)"
     id="path12"
     style="fill:#005490;fill-opacity:1" />
  <path
     class="2173f6dc-bdff-4928-93af-840899b9aeab"
     d="M486.585,482.325A100.463,100.463,0,0,0,568.411,543.6a6.706,6.706,0,0,0,1.459-13.332,87.052,87.052,0,0,1-70.9-53.1A6.706,6.706,0,1,0,486.585,482.325Z"
     transform="translate(-198.284 -275.446)"
     id="path14"
     style="fill:#005490;fill-opacity:1" />
  <path
     class="2173f6dc-bdff-4928-93af-840899b9aeab"
     d="M563.706,512.922a70.929,70.929,0,0,1-44.868-32.166,6.706,6.706,0,0,1,11.44-7,57.518,57.518,0,0,0,36.384,26.084A6.706,6.706,0,0,1,563.706,512.922Z"
     transform="translate(-198.284 -275.446)"
     id="path16"
     style="fill:#005490;fill-opacity:1" />
  <path
     class="2173f6dc-bdff-4928-93af-840899b9aeab"
     d="M742.75,378.7c2.051,0,2.871.718,2.871,2.665v7.484c0,1.948-.82,2.769-2.871,2.769H723.681v14.66h17.736c1.948,0,2.871.615,2.871,2.666v7.382c0,2.051-.923,2.87-2.871,2.87H723.681v26.349c0,2.051-.615,2.871-2.666,2.871H710.763c-1.948,0-2.769-.82-2.769-2.871V381.569c0-2.051.82-2.87,2.769-2.87H742.75Z"
     transform="translate(-198.284 -275.446)"
     id="path18"
     style="fill:#005490;fill-opacity:1" />
  <path
     class="2173f6dc-bdff-4928-93af-840899b9aeab"
     d="M812.159,445.544c0,2.051-.718,2.871-2.666,2.871h-9.638c-2.05,0-2.768-.82-2.768-2.871V410.789c-0.82,3.075-1.948,7.074-2.563,9.124l-3.793,12.61a3.641,3.641,0,0,1-3.794,2.871h-8.3a3.734,3.734,0,0,1-3.691-2.871l-4.613-13.84c-0.615-1.948-1.436-5.127-2.051-7.689v34.55c0,2.051-.718,2.871-2.665,2.871h-9.125c-2.051,0-2.871-.82-2.871-2.871V381.569c0-2.051.82-2.87,2.871-2.87h10.867a2.389,2.389,0,0,1,2.563,1.947l10.56,27.887c0.615,1.641,2.051,6.869,2.563,8.817,0.718-2.769,1.641-6.049,2.563-8.715l10.047-28.194a2.541,2.541,0,0,1,2.769-1.742h11.072c1.948,0,2.666.819,2.666,2.87v63.975Z"
     transform="translate(-198.284 -275.446)"
     id="path20"
     style="fill:#005490;fill-opacity:1" />
  <path
     class="2173f6dc-bdff-4928-93af-840899b9aeab"
     d="M854.6,424.322v21.222c0,2.051-.615,2.871-2.666,2.871H841.686c-1.948,0-2.769-.82-2.769-2.871V381.569c0-2.051.82-2.87,2.769-2.87h19.172c16.917,0,22.863,8.1,22.863,16.506v12.61c0,8.407-5.946,16.507-22.863,16.507H854.6Zm0-32.705V411.4h6.254c4.1,0,7.382-1.538,7.382-5.229v-9.329c0-3.691-3.281-5.229-7.382-5.229H854.6Z"
     transform="translate(-198.284 -275.446)"
     id="path22"
     style="fill:#005490;fill-opacity:1" />
  <path
     class="2173f6dc-bdff-4928-93af-840899b9aeab"
     d="M907.2,435.5h16.2c1.948,0,2.871.718,2.871,2.666v7.483c0,2.051-.923,2.769-2.871,2.769H893.973c-1.743,0-2.461-.923-2.461-2.871V381.569c0-2.051.82-2.87,2.769-2.87h10.252c2.051,0,2.666.819,2.666,2.87V435.5Z"
     transform="translate(-198.284 -275.446)"
     id="path24"
     style="fill:#005490;fill-opacity:1" />
  <path
     class="2173f6dc-bdff-4928-93af-840899b9aeab"
     d="M946.978,430.986c0,3.793,3.179,5.331,7.177,5.331s7.279-1.538,7.279-5.331V381.569c0-2.051.718-2.87,2.768-2.87h10.253c1.948,0,2.666.819,2.666,2.87v51.159c0,8.407-6.049,16.507-22.966,16.507s-22.863-8.1-22.863-16.507V381.569c0-2.051.82-2.87,2.769-2.87h10.252c2.051,0,2.666.819,2.666,2.87v49.417Z"
     transform="translate(-198.284 -275.446)"
     id="path26"
     style="fill:#005490;fill-opacity:1" />
  <path
     class="2173f6dc-bdff-4928-93af-840899b9aeab"
     d="M1014.746,395.513c0-3.69-2.666-5.126-6.459-5.126s-6.459,1.436-6.459,5.126v2.666a4.979,4.979,0,0,0,2.974,4.921l15.48,6.972c5.844,2.665,10.253,7.177,10.253,14.354v8.3c0,8.407-5.64,16.507-22.453,16.507s-22.556-8.1-22.556-16.507v-7.381c0-2.051.82-2.974,2.769-2.974h9.945c1.947,0,2.665.923,2.665,2.974V431.5c0,3.793,2.974,5.229,7.074,5.229,4,0,7.177-1.436,7.177-5.229v-3.794c0-3.383-3.281-5.229-6.664-6.869l-13.738-6.664a14.768,14.768,0,0,1-8.1-12.918v-6.869c0-8.406,4.717-16.506,21.633-16.506,16.711,0,21.735,8.1,21.735,16.506V399c0,2.05-.718,2.87-2.769,2.87h-9.842c-2.051,0-2.666-.82-2.666-2.87v-3.486Z"
     transform="translate(-198.284 -275.446)"
     id="path28"
     style="fill:#005490;fill-opacity:1" />
  <path
     class="2173f6dc-bdff-4928-93af-840899b9aeab"
     d="M213.985,406.291h14.469V381.355c0-2.052.821-2.873,2.771-2.873h10.262c1.95,0,2.668.821,2.668,2.873v64.032c0,2.052-.718,2.873-2.668,2.873H231.224c-1.95,0-2.771-.821-2.771-2.873v-26.27H213.985v26.27c0,2.052-.616,2.873-2.668,2.873H201.055c-1.95,0-2.771-.821-2.771-2.873V381.355c0-2.052.821-2.873,2.771-2.873h10.262c2.052,0,2.668.821,2.668,2.873v24.936Z"
     transform="translate(-198.284 -275.446)"
     id="path30"
     style="fill:#005490;fill-opacity:1" />
  <path
     class="2173f6dc-bdff-4928-93af-840899b9aeab"
     d="M269.088,388.333c0,1.95-.616,2.771-2.668,2.771h-9.749c-2.052,0-2.771-.82-2.771-2.771v-8.619c0-2.053.718-2.976,2.771-2.976h9.749c2.052,0,2.668.923,2.668,2.976v8.619Zm0,57.055c0,2.052-.616,2.873-2.668,2.873h-9.749c-2.052,0-2.771-.821-2.771-2.873V399.826c0-2.052.718-2.873,2.771-2.873h9.749c2.052,0,2.668.821,2.668,2.873v45.562Z"
     transform="translate(-198.284 -275.446)"
     id="path32"
     style="fill:#005490;fill-opacity:1" />
  <path
     class="2173f6dc-bdff-4928-93af-840899b9aeab"
     d="M314.134,378.482c2.052,0,2.873.718,2.873,2.668v7.491c0,1.949-.821,2.771-2.873,2.771H303.565v53.976c0,2.052-.718,2.873-2.668,2.873H290.635c-2.052,0-2.771-.821-2.771-2.873V391.412H277.193c-2.053,0-2.874-.821-2.874-2.771V381.15c0-1.95.821-2.668,2.874-2.668h36.941Z"
     transform="translate(-198.284 -275.446)"
     id="path34"
     style="fill:#005490;fill-opacity:1" />
  <path
     class="2173f6dc-bdff-4928-93af-840899b9aeab"
     d="M325.933,448.261c-1.95,0-2.771-.821-2.771-2.873V381.355c0-2.052.821-2.873,2.771-2.873h19.189c16.931,0,22.883,8.106,22.883,16.521v10.673c0,5.438-2.565,10.774-8.927,13.853l8.517,25.859c0.616,1.744-.513,2.873-2.668,2.873H354.152c-1.847,0-2.462-1.026-3.078-2.873L343.789,422.2h-4.926v23.191c0,2.052-.718,2.873-2.668,2.873H325.933Zm12.93-56.849v17.854h6.26c4.1,0,7.388-1.642,7.388-5.336v-7.183c0-3.8-3.284-5.336-7.388-5.336h-6.26Z"
     transform="translate(-198.284 -275.446)"
     id="path36"
     style="fill:#005490;fill-opacity:1" />
  <path
     class="2173f6dc-bdff-4928-93af-840899b9aeab"
     d="M401.97,378.482c1.95,0,2.976.924,3.489,2.873l15.906,64.032c0.513,1.847-.1,2.873-2.053,2.873H408.948c-2.052,0-2.976-1.026-3.387-2.873l-2.36-10.877H389.348l-2.36,10.877c-0.41,1.847-1.334,2.873-3.386,2.873h-9.44c-2.052,0-2.668-1.026-2.155-2.873l15.906-64.032c0.513-1.949,1.539-2.873,3.591-2.873H401.97Zm2.052-6.875a3.927,3.927,0,0,1-3.591,1.949H392.94c-1.642,0-2.36-.718-1.642-2.771l3.386-9.748a3.77,3.77,0,0,1,3.8-2.874h10.056c2.052,0,2.463,1.231,1.539,2.874Zm-5.028,43.509c-1.026-5.336-2.462-17.445-2.565-18.368-0.1.82-1.745,13.545-2.771,18.368l-1.437,6.978h8.107Z"
     transform="translate(-198.284 -275.446)"
     id="path38"
     style="fill:#005490;fill-opacity:1" />
  <path
     class="2173f6dc-bdff-4928-93af-840899b9aeab"
     d="M430.188,448.261c-1.745,0-2.463-.924-2.463-2.873V381.355c0-2.052.821-2.873,2.771-2.873h20.113c16.932,0,22.986,8.106,22.986,16.521v36.736c0,8.415-6.054,16.521-22.986,16.521h-20.42Zm13.237-56.849v43.919h7.081c4.1,0,7.388-1.642,7.388-5.541V396.953c0-3.9-3.284-5.541-7.388-5.541h-7.081Z"
     transform="translate(-198.284 -275.446)"
     id="path40"
     style="fill:#005490;fill-opacity:1" />
  <path
     class="2173f6dc-bdff-4928-93af-840899b9aeab"
     d="M497.6,388.333c0,1.95-.615,2.771-2.668,2.771h-9.749c-2.052,0-2.771-.82-2.771-2.771v-8.619c0-2.053.718-2.976,2.771-2.976h9.749c2.053,0,2.668.923,2.668,2.976v8.619Zm0,57.055c0,2.052-.615,2.873-2.668,2.873h-9.749c-2.052,0-2.771-.821-2.771-2.873V399.826c0-2.052.718-2.873,2.771-2.873h9.749c2.053,0,2.668.821,2.668,2.873v45.562Z"
     transform="translate(-198.284 -275.446)"
     id="path42"
     style="fill:#005490;fill-opacity:1" />
  <path
     class="fadab590-22bf-4400-92d8-93c4806beaac"
     d="M659.542,504.156a0.809,0.809,0,0,1-.926.877h-2.729a0.641,0.641,0,0,1-.73-0.877l0.487-3.9a0.832,0.832,0,0,1,.926-0.877h2.778c0.585,0,.779.292,0.682,0.877Z"
     transform="translate(-198.284 -275.446)"
     id="path44"
     style="fill:#ed1b34;fill-opacity:1" />
  <path
     class="fadab590-22bf-4400-92d8-93c4806beaac"
     d="M669.044,504.156a0.809,0.809,0,0,1-.926.877h-2.729a0.641,0.641,0,0,1-.73-0.877l0.487-3.9a0.832,0.832,0,0,1,.926-0.877h2.778c0.585,0,.779.292,0.682,0.877Z"
     transform="translate(-198.284 -275.446)"
     id="path46"
     style="fill:#ed1b34;fill-opacity:1" />
  <path
     class="fadab590-22bf-4400-92d8-93c4806beaac"
     d="M678.546,504.156a0.809,0.809,0,0,1-.926.877h-2.729a0.641,0.641,0,0,1-.73-0.877l0.487-3.9a0.832,0.832,0,0,1,.926-0.877h2.778c0.585,0,.779.292,0.682,0.877Z"
     transform="translate(-198.284 -275.446)"
     id="path48"
     style="fill:#ed1b34;fill-opacity:1" />
  <path
     class="fadab590-22bf-4400-92d8-93c4806beaac"
     d="M693.6,505.033a0.666,0.666,0,0,1-.73-0.877l3.947-32.215a0.849,0.849,0,0,1,.975-0.878h2.632a0.682,0.682,0,0,1,.731.878l-2.193,17.886h1.023l6.921-8.09a2.025,2.025,0,0,1,1.462-.877h3.119c0.634,0,.731.487,0.341,0.926l-8.431,9.552,6.433,12.818a0.571,0.571,0,0,1-.585.877h-3.021a1.248,1.248,0,0,1-1.121-.877L699.6,493.142h-1.023l-1.365,11.015a0.848,0.848,0,0,1-.975.877H693.6Z"
     transform="translate(-198.284 -275.446)"
     id="path50"
     style="fill:#ed1b34;fill-opacity:1" />
  <path
     class="fadab590-22bf-4400-92d8-93c4806beaac"
     d="M719.382,498.161a5.627,5.627,0,0,0-.049.829c0,1.754.926,2.339,3.7,2.339h0.828a0.712,0.712,0,0,1,.779.926l-0.194,1.9a0.864,0.864,0,0,1-1.023.877h-1.511c-5.021,0-7.019-1.8-7.019-4.971,0-.391.049-0.78,0.1-1.268l1.755-14.28h-2.291c-0.634,0-.828-0.292-0.731-0.926l0.2-1.56a0.873,0.873,0,0,1,.975-0.877l2.193-.2h0.1l0.634-4.971a0.881,0.881,0,0,1,.975-0.926h2.632c0.633,0,.73.341,0.682,0.926l-0.585,4.971h4.191a0.661,0.661,0,0,1,.78.829l-0.2,1.852a0.864,0.864,0,0,1-1.023.877h-4.191Z"
     transform="translate(-198.284 -275.446)"
     id="path52"
     style="fill:#ed1b34;fill-opacity:1" />
  <path
     class="fadab590-22bf-4400-92d8-93c4806beaac"
     d="M745.453,493.044a0.806,0.806,0,0,1-.877.828H733.22l-0.633,4.874a7.67,7.67,0,0,0-.049.926c0,1.462.926,2.34,3.752,2.34,3.022,0,4.095-1.121,4.338-2.778l0.146-1.267a0.913,0.913,0,0,1,1.023-.878h2.242a0.652,0.652,0,0,1,.73.878l-0.146,1.12c-0.487,3.753-2.339,6.336-8.626,6.336-5.41,0-7.7-2.145-7.7-5.409a7.277,7.277,0,0,1,.049-0.927l1.511-12.184c0.487-3.851,2.632-6.434,8.821-6.434,5.313,0,7.6,2.193,7.6,5.41a8.38,8.38,0,0,1-.049.975Zm-11.843-2.437h8.09l0.438-3.558a5.751,5.751,0,0,0,.049-0.78c0-1.413-.926-2.388-3.753-2.388-3.021,0-4.143,1.218-4.337,2.924Z"
     transform="translate(-198.284 -275.446)"
     id="path54"
     style="fill:#ed1b34;fill-opacity:1" />
  <path
     class="fadab590-22bf-4400-92d8-93c4806beaac"
     d="M763.726,481.4l-0.243,2.145a0.944,0.944,0,0,1-1.024.878,12.787,12.787,0,0,0-6.726,2.826l-2.1,16.863a0.86,0.86,0,0,1-.975.926H750.03a0.673,0.673,0,0,1-.73-0.926l2.777-22.321A0.868,0.868,0,0,1,753,480.86h2.437a0.713,0.713,0,0,1,.779.926l-0.146,1.852a10.21,10.21,0,0,1,6.823-3.119C763.53,480.518,763.823,480.763,763.726,481.4Z"
     transform="translate(-198.284 -275.446)"
     id="path56"
     style="fill:#ed1b34;fill-opacity:1" />
  <path
     class="fadab590-22bf-4400-92d8-93c4806beaac"
     d="M781.611,493.044a0.806,0.806,0,0,1-.877.828H769.377l-0.633,4.874a7.67,7.67,0,0,0-.049.926c0,1.462.926,2.34,3.752,2.34,3.022,0,4.095-1.121,4.338-2.778l0.146-1.267a0.913,0.913,0,0,1,1.023-.878H780.2a0.652,0.652,0,0,1,.73.878l-0.146,1.12c-0.487,3.753-2.339,6.336-8.626,6.336-5.41,0-7.7-2.145-7.7-5.409a7.277,7.277,0,0,1,.049-0.927l1.511-12.184c0.487-3.851,2.632-6.434,8.821-6.434,5.313,0,7.6,2.193,7.6,5.41a8.38,8.38,0,0,1-.049.975Zm-11.843-2.437h8.09l0.438-3.558a5.751,5.751,0,0,0,.049-0.78c0-1.413-.926-2.388-3.753-2.388-3.021,0-4.143,1.218-4.337,2.924Zm7.407-13.7a1.37,1.37,0,0,1-1.12.536h-2.193c-0.487,0-.634-0.2-0.342-0.828l3.07-5.264a1.329,1.329,0,0,1,1.219-.829h2.876c0.633,0,.73.342,0.341,0.878Z"
     transform="translate(-198.284 -275.446)"
     id="path58"
     style="fill:#ed1b34;fill-opacity:1" />
  <path
     class="fadab590-22bf-4400-92d8-93c4806beaac"
     d="M801.3,482.955a11.172,11.172,0,0,1,6.921-2.485c3.46,0,5.458,2.047,5.458,4.825a5.731,5.731,0,0,1-.049.779l-2.193,18.033a0.881,0.881,0,0,1-.975.926h-2.583a0.713,0.713,0,0,1-.779-0.926l2.047-16.863a4.806,4.806,0,0,0,.049-0.73c0-1.316-.731-2.145-2.729-2.145a9.7,9.7,0,0,0-5.6,2.145l-2.145,17.594a0.882,0.882,0,0,1-.975.926h-2.632a0.7,0.7,0,0,1-.731-0.926l3.948-32.117a0.883,0.883,0,0,1,.975-0.927h2.632c0.634,0,.779.342,0.73,0.927Z"
     transform="translate(-198.284 -275.446)"
     id="path60"
     style="fill:#ed1b34;fill-opacity:1" />
  <path
     class="fadab590-22bf-4400-92d8-93c4806beaac"
     d="M831.606,481.4l-0.243,2.145a0.944,0.944,0,0,1-1.024.878,12.787,12.787,0,0,0-6.726,2.826l-2.1,16.863a0.86,0.86,0,0,1-.975.926H817.91a0.673,0.673,0,0,1-.73-0.926l2.777-22.321a0.868,0.868,0,0,1,.927-0.926h2.437a0.713,0.713,0,0,1,.779.926l-0.146,1.852a10.21,10.21,0,0,1,6.823-3.119C831.41,480.518,831.7,480.763,831.606,481.4Z"
     transform="translate(-198.284 -275.446)"
     id="path62"
     style="fill:#ed1b34;fill-opacity:1" />
  <path
     class="fadab590-22bf-4400-92d8-93c4806beaac"
     d="M837.745,505.423c-3.559,0-5.361-1.949-5.361-4.873a10.238,10.238,0,0,1,.049-1.121l1.608-13.11c0.438-3.46,2.339-5.849,6.481-5.849a9.994,9.994,0,0,1,6.726,2.583l0.244-1.315a0.9,0.9,0,0,1,.975-0.877H850.9a0.71,0.71,0,0,1,.731.975l-2.729,22.272a0.905,0.905,0,0,1-.975.926h-2.437c-0.536,0-.78-0.244-0.731-0.926l0.049-1.219A11.752,11.752,0,0,1,837.745,505.423Zm-0.927-6.726a3.979,3.979,0,0,0-.049.683c0,1.267.731,2.145,2.729,2.145a10.252,10.252,0,0,0,5.653-2.1l1.608-12.915a8.027,8.027,0,0,0-5.215-2.145,2.948,2.948,0,0,0-3.266,2.777Z"
     transform="translate(-198.284 -275.446)"
     id="path64"
     style="fill:#ed1b34;fill-opacity:1" />
  <path
     class="fadab590-22bf-4400-92d8-93c4806beaac"
     d="M858.5,508.493c-0.438,3.7-2.875,6.189-9.016,6.189H849a0.681,0.681,0,0,1-.78-0.877l0.244-1.9a0.913,0.913,0,0,1,1.023-.878h0.292c2.974,0,4.191-1.071,4.436-2.924l3.265-26.317a0.847,0.847,0,0,1,.927-0.926h2.632c0.633,0,.779.341,0.73,0.926Zm3.948-32.068a0.811,0.811,0,0,1-.926.877h-2.632a0.679,0.679,0,0,1-.78-0.877l0.536-4.435a0.906,0.906,0,0,1,.975-0.927h2.632c0.634,0,.829.293,0.731,0.927Z"
     transform="translate(-198.284 -275.446)"
     id="path66"
     style="fill:#ed1b34;fill-opacity:1" />
  <path
     class="fadab590-22bf-4400-92d8-93c4806beaac"
     d="M882.285,493.044a0.805,0.805,0,0,1-.877.828H870.053l-0.634,4.874a7.67,7.67,0,0,0-.049.926c0,1.462.926,2.34,3.753,2.34,3.021,0,4.094-1.121,4.338-2.778l0.146-1.267a0.913,0.913,0,0,1,1.023-.878h2.242a0.653,0.653,0,0,1,.731.878l-0.146,1.12c-0.487,3.753-2.34,6.336-8.626,6.336-5.41,0-7.7-2.145-7.7-5.409a7.277,7.277,0,0,1,.049-0.927L866.69,486.9c0.487-3.851,2.632-6.434,8.821-6.434,5.313,0,7.6,2.193,7.6,5.41a8.38,8.38,0,0,1-.049.975Zm-11.843-2.437h8.091l0.438-3.558a5.751,5.751,0,0,0,.049-0.78c0-1.413-.927-2.388-3.753-2.388-3.021,0-4.143,1.218-4.338,2.924Z"
     transform="translate(-198.284 -275.446)"
     id="path68"
     style="fill:#ed1b34;fill-opacity:1" />
</svg>
