<svg viewBox="0 0 743.054 268.198" xmlns="http://www.w3.org/2000/svg"><g transform="translate(-198.284 -275.446)"><path d="m675.68 385.089a48.01 48.01 0 0 0 -15.189-22.318 41.416 41.416 0 0 0 -41.817-6.039 45.63 45.63 0 0 0 -15.031 10.274q-.027.027-.056.051c-.019-.016-.038-.033-.056-.051a45.63 45.63 0 0 0 -15.031-10.274 41.416 41.416 0 0 0 -41.818 6.039 48.011 48.011 0 0 0 -15.189 22.318 54.446 54.446 0 0 0 -1.327 29.073 69.2 69.2 0 0 0 5.218 14.426 105.078 105.078 0 0 0 14.095 21.812 144.984 144.984 0 0 0 26.985 24.483 177.392 177.392 0 0 0 17.389 11.082s5.63 3.653 9.084 4.246c.216.037.432.063.651.079.218-.016.435-.042.651-.079 3.453-.593 9.084-4.246 9.084-4.246a177.4 177.4 0 0 0 17.389-11.082 144.986 144.986 0 0 0 26.982-24.483 105.077 105.077 0 0 0 14.094-21.808 69.184 69.184 0 0 0 5.218-14.426 54.449 54.449 0 0 0 -1.326-29.077zm-16.78 21.301a35.2 35.2 0 0 1 -.793 4.244c-.224.89-.483 1.771-.769 2.643q-.456 1.393-1 2.757c-.381.966-.791 1.921-1.22 2.866q-.384.845-.788 1.679-1.219 2.516-2.612 4.944a86.563 86.563 0 0 1 -6.26 9.421c-1.871 2.455-3.869 4.813-5.971 7.073-1.875 2.016-3.834 3.955-5.855 5.825q-3.112 2.88-6.41 5.55-3.367 2.737-6.883 5.284l-.3.215q-3.905 2.829-7.953 5.446-3.311 2.14-6.795 3.97a3.263 3.263 0 0 1 -3.419 0q-3.49-1.834-6.795-3.97-4.05-2.618-7.953-5.446l-.3-.215q-3.509-2.553-6.883-5.284-3.29-2.675-6.409-5.55c-2.021-1.87-3.979-3.809-5.855-5.825-2.1-2.26-4.1-4.618-5.971-7.073a86.563 86.563 0 0 1 -6.26-9.421q-1.39-2.427-2.612-4.944-.4-.835-.788-1.679c-.43-.946-.839-1.9-1.22-2.866q-.538-1.364-1-2.757c-.286-.872-.545-1.753-.769-2.643a35.2 35.2 0 0 1 -.793-4.244 35.779 35.779 0 0 1 -.267-5.074 35.31 35.31 0 0 1  .457-5.052 33.423 33.423 0 0 1 1.165-4.848 31.946 31.946 0 0 1 1.71-4.239 30.368 30.368 0 0 1 2.17-3.746q.609-.895 1.285-1.741a25.676 25.676 0 0 1 2.832-3.023q.83-.751 1.729-1.42a22.865 22.865 0 0 1 4.954-2.8 21.722 21.722 0 0 1 2.648-.9 21.307 21.307 0 0 1 3.053-.577 22.58 22.58 0 0 1 3.524-.129 23.283 23.283 0 0 1 3.548.421 22.268 22.268 0 0 1 3.375.943 22 22 0 0 1 2.634 1.174 24.726 24.726 0 0 1 2.456 1.483q.31.212.615.433a17.437 17.437 0 0 1 4.767 5.158 29.875 29.875 0 0 1 2.969 6.464 10.048 10.048 0 0 0 19.386 0 29.875 29.875 0 0 1 2.969-6.464 17.439 17.439 0 0 1 4.767-5.158q.3-.221.615-.433a24.736 24.736 0 0 1 2.456-1.483 22 22 0 0 1 2.634-1.174 22.271 22.271 0 0 1 3.375-.943 23.283 23.283 0 0 1 3.548-.421 22.58 22.58 0 0 1 3.524.129 21.3 21.3 0 0 1 3.047.577 21.72 21.72 0 0 1 2.648.9 22.872 22.872 0 0 1 4.954 2.8q.9.668 1.729 1.42a25.7 25.7 0 0 1 2.832 3.023q.676.846 1.285 1.741a30.378 30.378 0 0 1 2.171 3.746 31.956 31.956 0 0 1 1.71 4.239 33.413 33.413 0 0 1 1.165 4.848 35.3 35.3 0 0 1  .457 5.052 35.779 35.779 0 0 1 -.26 5.074z" fill="#ed1b34"/><g fill="#005490"><path d="m707.175 394.385c0-8.406 5.946-16.506 22.862-16.506s22.963 8.099 22.963 16.506v38.344c0 8.407-6.049 16.507-22.966 16.507s-22.862-8.1-22.862-16.507v-38.344zm30.142 1.743c0-3.793-3.281-5.331-7.279-5.331s-7.177 1.538-7.177 5.331v34.858c0 3.793 3.179 5.331 7.177 5.331s7.279-1.538 7.279-5.331z"/><path d="m765.613 448.415c-1.948 0-2.769-.82-2.769-2.871v-63.975c0-2.051.82-2.87 2.769-2.87h19.172c16.916 0 22.862 8.1 22.862 16.506v10.662c0 5.435-2.562 10.766-8.92 13.841l8.51 25.836c.615 1.743-.513 2.871-2.665 2.871h-10.765c-1.845 0-2.46-1.025-3.075-2.871l-7.279-23.17h-4.921v23.17c0 2.051-.718 2.871-2.666 2.871zm12.918-56.8v17.839h6.254c4.1 0 7.381-1.641 7.381-5.331v-7.177c0-3.794-3.28-5.331-7.381-5.331z"/><path d="m830.818 388.541c0 1.948-.615 2.769-2.665 2.769h-9.74c-2.051 0-2.768-.82-2.768-2.769v-8.612c0-2.05.717-2.973 2.768-2.973h9.74c2.05 0 2.665.923 2.665 2.973zm0 57c0 2.051-.615 2.871-2.665 2.871h-9.74c-2.051 0-2.768-.82-2.768-2.871v-45.518c0-2.05.717-2.87 2.768-2.87h9.74c2.05 0 2.665.82 2.665 2.87v45.521z"/><path d="m839.737 394.385c0-8.406 5.946-16.506 22.862-16.506s22.966 8.1 22.966 16.506v38.344c0 8.407-6.049 16.507-22.966 16.507s-22.862-8.1-22.862-16.507zm30.142 1.743c0-3.793-3.281-5.331-7.279-5.331s-7.177 1.538-7.177 5.331v34.858c0 3.793 3.179 5.331 7.177 5.331s7.279-1.538 7.279-5.331z"/><path d="m941.338 445.544c0 2.051-.615 2.871-2.666 2.871h-9.534a2.49 2.49 0 0 1 -2.666-1.743l-13.226-27.172a70.61 70.61 0 0 1 -3.383-8.3v34.345c0 2.051-.718 2.871-2.769 2.871h-8.816c-2.051 0-2.871-.82-2.871-2.871v-63.976c0-2.051.82-2.87 2.871-2.87h9.534a2.4 2.4 0 0 1 2.563 1.537l13.738 28.194a58.275 58.275 0 0 1 2.87 7.177v-34.038c0-2.051.82-2.87 2.769-2.87h8.919c2.051 0 2.666.819 2.666 2.87v63.975z"/><path d="m213.985 406.291h14.469v-24.936c0-2.052.821-2.873 2.771-2.873h10.262c1.95 0 2.668.821 2.668 2.873v64.032c0 2.052-.718 2.873-2.668 2.873h-10.263c-1.95 0-2.771-.821-2.771-2.873v-26.27h-14.468v26.27c0 2.052-.616 2.873-2.668 2.873h-10.262c-1.95 0-2.771-.821-2.771-2.873v-64.032c0-2.052.821-2.873 2.771-2.873h10.262c2.052 0 2.668.821 2.668 2.873z"/><path d="m269.088 388.333c0 1.95-.616 2.771-2.668 2.771h-9.749c-2.052 0-2.771-.82-2.771-2.771v-8.619c0-2.053.718-2.976 2.771-2.976h9.749c2.052 0 2.668.923 2.668 2.976zm0 57.055c0 2.052-.616 2.873-2.668 2.873h-9.749c-2.052 0-2.771-.821-2.771-2.873v-45.562c0-2.052.718-2.873 2.771-2.873h9.749c2.052 0 2.668.821 2.668 2.873z"/><path d="m314.134 378.482c2.052 0 2.873.718 2.873 2.668v7.491c0 1.949-.821 2.771-2.873 2.771h-10.569v53.976c0 2.052-.718 2.873-2.668 2.873h-10.262c-2.052 0-2.771-.821-2.771-2.873v-53.976h-10.671c-2.053 0-2.874-.821-2.874-2.771v-7.491c0-1.95.821-2.668 2.874-2.668z"/><path d="m325.933 448.261c-1.95 0-2.771-.821-2.771-2.873v-64.033c0-2.052.821-2.873 2.771-2.873h19.189c16.931 0 22.883 8.106 22.883 16.521v10.673c0 5.438-2.565 10.774-8.927 13.853l8.517 25.859c.616 1.744-.513 2.873-2.668 2.873h-10.775c-1.847 0-2.462-1.026-3.078-2.873l-7.285-23.188h-4.926v23.191c0 2.052-.718 2.873-2.668 2.873h-10.262zm12.93-56.849v17.854h6.26c4.1 0 7.388-1.642 7.388-5.336v-7.183c0-3.8-3.284-5.336-7.388-5.336h-6.26z"/><path d="m401.97 378.482c1.95 0 2.976.924 3.489 2.873l15.906 64.032c.513 1.847-.1 2.873-2.053 2.873h-10.364c-2.052 0-2.976-1.026-3.387-2.873l-2.36-10.877h-13.853l-2.36 10.877c-.41 1.847-1.334 2.873-3.386 2.873h-9.44c-2.052 0-2.668-1.026-2.155-2.873l15.906-64.032c.513-1.949 1.539-2.873 3.591-2.873zm2.052-6.875a3.927 3.927 0 0 1 -3.591 1.949h-7.491c-1.642 0-2.36-.718-1.642-2.771l3.386-9.748a3.77 3.77 0 0 1 3.8-2.874h10.056c2.052 0 2.463 1.231 1.539 2.874zm-5.028 43.509c-1.026-5.336-2.462-17.445-2.565-18.368-.1.82-1.745 13.545-2.771 18.368l-1.437 6.978h8.107z"/><path d="m430.188 448.261c-1.745 0-2.463-.924-2.463-2.873v-64.033c0-2.052.821-2.873 2.771-2.873h20.113c16.932 0 22.986 8.106 22.986 16.521v36.736c0 8.415-6.054 16.521-22.986 16.521h-20.42zm13.237-56.849v43.919h7.081c4.1 0 7.388-1.642 7.388-5.541v-32.837c0-3.9-3.284-5.541-7.388-5.541z"/><path d="m497.6 388.333c0 1.95-.615 2.771-2.668 2.771h-9.749c-2.052 0-2.771-.82-2.771-2.771v-8.619c0-2.053.718-2.976 2.771-2.976h9.749c2.053 0 2.668.923 2.668 2.976zm0 57.055c0 2.052-.615 2.873-2.668 2.873h-9.749c-2.052 0-2.771-.821-2.771-2.873v-45.562c0-2.052.718-2.873 2.771-2.873h9.749c2.053 0 2.668.821 2.668 2.873z"/></g><g fill="#ed1b34"><path d="m659.542 504.156a.809.809 0 0 1 -.926.877h-2.729a.641.641 0 0 1 -.73-.877l.487-3.9a.832.832 0 0 1  .926-.877h2.778c.585 0 .779.292.682.877z"/><path d="m669.044 504.156a.809.809 0 0 1 -.926.877h-2.729a.641.641 0 0 1 -.73-.877l.487-3.9a.832.832 0 0 1  .926-.877h2.778c.585 0 .779.292.682.877z"/><path d="m678.546 504.156a.809.809 0 0 1 -.926.877h-2.729a.641.641 0 0 1 -.73-.877l.487-3.9a.832.832 0 0 1  .926-.877h2.778c.585 0 .779.292.682.877z"/><path d="m693.6 505.033a.666.666 0 0 1 -.73-.877l3.947-32.215a.849.849 0 0 1  .975-.878h2.632a.682.682 0 0 1  .731.878l-2.193 17.886h1.023l6.921-8.09a2.025 2.025 0 0 1 1.462-.877h3.119c.634 0 .731.487.341.926l-8.431 9.552 6.433 12.818a.571.571 0 0 1 -.585.877h-3.021a1.248 1.248 0 0 1 -1.121-.877l-5.503-11.014h-1.023l-1.365 11.015a.848.848 0 0 1 -.975.877h-2.637z"/><path d="m719.382 498.161a5.627 5.627 0 0 0 -.049.829c0 1.754.926 2.339 3.7 2.339h.828a.712.712 0 0 1  .779.926l-.194 1.9a.864.864 0 0 1 -1.023.877h-1.511c-5.021 0-7.019-1.8-7.019-4.971 0-.391.049-.78.1-1.268l1.755-14.28h-2.291c-.634 0-.828-.292-.731-.926l.2-1.56a.873.873 0 0 1  .975-.877l2.193-.2h.1l.634-4.971a.881.881 0 0 1  .975-.926h2.632c.633 0 .73.341.682.926l-.585 4.971h4.191a.661.661 0 0 1  .78.829l-.2 1.852a.864.864 0 0 1 -1.023.877h-4.191z"/><path d="m745.453 493.044a.806.806 0 0 1 -.877.828h-11.356l-.633 4.874a7.67 7.67 0 0 0 -.049.926c0 1.462.926 2.34 3.752 2.34 3.022 0 4.095-1.121 4.338-2.778l.146-1.267a.913.913 0 0 1 1.023-.878h2.242a.652.652 0 0 1  .73.878l-.146 1.12c-.487 3.753-2.339 6.336-8.626 6.336-5.41 0-7.7-2.145-7.7-5.409a7.277 7.277 0 0 1  .049-.927l1.511-12.184c.487-3.851 2.632-6.434 8.821-6.434 5.313 0 7.6 2.193 7.6 5.41a8.38 8.38 0 0 1 -.049.975zm-11.843-2.437h8.09l.438-3.558a5.751 5.751 0 0 0  .049-.78c0-1.413-.926-2.388-3.753-2.388-3.021 0-4.143 1.218-4.337 2.924z"/><path d="m763.726 481.4-.243 2.145a.944.944 0 0 1 -1.024.878 12.787 12.787 0 0 0 -6.726 2.826l-2.1 16.863a.86.86 0 0 1 -.975.926h-2.628a.673.673 0 0 1 -.73-.926l2.777-22.321a.868.868 0 0 1  .923-.931h2.437a.713.713 0 0 1  .779.926l-.146 1.852a10.21 10.21 0 0 1 6.823-3.119c.637-.001.93.244.833.881z"/><path d="m781.611 493.044a.806.806 0 0 1 -.877.828h-11.357l-.633 4.874a7.67 7.67 0 0 0 -.049.926c0 1.462.926 2.34 3.752 2.34 3.022 0 4.095-1.121 4.338-2.778l.146-1.267a.913.913 0 0 1 1.023-.878h2.246a.652.652 0 0 1  .73.878l-.146 1.12c-.487 3.753-2.339 6.336-8.626 6.336-5.41 0-7.7-2.145-7.7-5.409a7.277 7.277 0 0 1  .049-.927l1.511-12.184c.487-3.851 2.632-6.434 8.821-6.434 5.313 0 7.6 2.193 7.6 5.41a8.38 8.38 0 0 1 -.049.975zm-11.843-2.437h8.09l.438-3.558a5.751 5.751 0 0 0  .049-.78c0-1.413-.926-2.388-3.753-2.388-3.021 0-4.143 1.218-4.337 2.924zm7.407-13.7a1.37 1.37 0 0 1 -1.12.536h-2.193c-.487 0-.634-.2-.342-.828l3.07-5.264a1.329 1.329 0 0 1 1.219-.829h2.876c.633 0 .73.342.341.878z"/><path d="m801.3 482.955a11.172 11.172 0 0 1 6.921-2.485c3.46 0 5.458 2.047 5.458 4.825a5.731 5.731 0 0 1 -.049.779l-2.193 18.033a.881.881 0 0 1 -.975.926h-2.583a.713.713 0 0 1 -.779-.926l2.047-16.863a4.806 4.806 0 0 0  .049-.73c0-1.316-.731-2.145-2.729-2.145a9.7 9.7 0 0 0 -5.6 2.145l-2.145 17.594a.882.882 0 0 1 -.975.926h-2.632a.7.7 0 0 1 -.731-.926l3.948-32.117a.883.883 0 0 1  .975-.927h2.632c.634 0 .779.342.73.927z"/><path d="m831.606 481.4-.243 2.145a.944.944 0 0 1 -1.024.878 12.787 12.787 0 0 0 -6.726 2.826l-2.1 16.863a.86.86 0 0 1 -.975.926h-2.628a.673.673 0 0 1 -.73-.926l2.777-22.321a.868.868 0 0 1  .927-.926h2.437a.713.713 0 0 1  .779.926l-.146 1.852a10.21 10.21 0 0 1 6.823-3.119c.633-.006.923.239.829.876z"/><path d="m837.745 505.423c-3.559 0-5.361-1.949-5.361-4.873a10.238 10.238 0 0 1  .049-1.121l1.608-13.11c.438-3.46 2.339-5.849 6.481-5.849a9.994 9.994 0 0 1 6.726 2.583l.244-1.315a.9.9 0 0 1  .975-.877h2.433a.71.71 0 0 1  .731.975l-2.729 22.272a.905.905 0 0 1 -.975.926h-2.437c-.536 0-.78-.244-.731-.926l.049-1.219a11.752 11.752 0 0 1 -7.063 2.534zm-.927-6.726a3.979 3.979 0 0 0 -.049.683c0 1.267.731 2.145 2.729 2.145a10.252 10.252 0 0 0 5.653-2.1l1.608-12.915a8.027 8.027 0 0 0 -5.215-2.145 2.948 2.948 0 0 0 -3.266 2.777z"/><path d="m858.5 508.493c-.438 3.7-2.875 6.189-9.016 6.189h-.484a.681.681 0 0 1 -.78-.877l.244-1.9a.913.913 0 0 1 1.023-.878h.292c2.974 0 4.191-1.071 4.436-2.924l3.265-26.317a.847.847 0 0 1  .927-.926h2.632c.633 0 .779.341.73.926zm3.948-32.068a.811.811 0 0 1 -.926.877h-2.632a.679.679 0 0 1 -.78-.877l.536-4.435a.906.906 0 0 1  .975-.927h2.632c.634 0 .829.293.731.927z"/><path d="m882.285 493.044a.805.805 0 0 1 -.877.828h-11.355l-.634 4.874a7.67 7.67 0 0 0 -.049.926c0 1.462.926 2.34 3.753 2.34 3.021 0 4.094-1.121 4.338-2.778l.146-1.267a.913.913 0 0 1 1.023-.878h2.242a.653.653 0 0 1  .731.878l-.146 1.12c-.487 3.753-2.34 6.336-8.626 6.336-5.41 0-7.7-2.145-7.7-5.409a7.277 7.277 0 0 1  .049-.927l1.51-12.187c.487-3.851 2.632-6.434 8.821-6.434 5.313 0 7.6 2.193 7.6 5.41a8.38 8.38 0 0 1 -.049.975zm-11.843-2.437h8.091l.438-3.558a5.751 5.751 0 0 0  .049-.78c0-1.413-.927-2.388-3.753-2.388-3.021 0-4.143 1.218-4.338 2.924z"/></g><path d="m738.093 341.24a107.8 107.8 0 0 0 -87.8-65.751 7.195 7.195 0 1 0 -1.566 14.3 93.4 93.4 0 0 1 76.077 56.974 7.195 7.195 0 0 0 13.289-5.523z" fill="#005490"/><path d="m655.343 308.41a76.106 76.106 0 0 1 48.142 34.514 7.195 7.195 0 1 1 -12.275 7.51 61.716 61.716 0 0 0 -39.04-27.988 7.195 7.195 0 0 1 3.173-14.036z" fill="#005490"/><path d="m486.585 482.325a100.463 100.463 0 0 0 81.826 61.275 6.706 6.706 0 0 0 1.459-13.332 87.052 87.052 0 0 1 -70.9-53.1 6.706 6.706 0 1 0 -12.385 5.157z" fill="#005490"/><path d="m563.706 512.922a70.929 70.929 0 0 1 -44.868-32.166 6.706 6.706 0 0 1 11.44-7 57.518 57.518 0 0 0 36.384 26.084 6.706 6.706 0 0 1 -2.956 13.082z" fill="#005490"/></g></svg>