<?xml version="1.0" encoding="UTF-8" standalone="no"?>
<svg
   xmlns:dc="http://purl.org/dc/elements/1.1/"
   xmlns:cc="http://creativecommons.org/ns#"
   xmlns:rdf="http://www.w3.org/1999/02/22-rdf-syntax-ns#"
   xmlns:svg="http://www.w3.org/2000/svg"
   xmlns="http://www.w3.org/2000/svg"
   xmlns:sodipodi="http://sodipodi.sourceforge.net/DTD/sodipodi-0.dtd"
   xmlns:inkscape="http://www.inkscape.org/namespaces/inkscape"
   width="547.32025pt"
   height="201.93878pt"
   viewBox="0 0 547.32025 201.93878"
   version="1.1"
   id="svg42"
   sodipodi:docname="Oldies Radio.svg"
   inkscape:version="0.92.0 r15299">
  <metadata
     id="metadata48">
    <rdf:RDF>
      <cc:Work
         rdf:about="">
        <dc:format>image/svg+xml</dc:format>
        <dc:type
           rdf:resource="http://purl.org/dc/dcmitype/StillImage" />
        <dc:title></dc:title>
      </cc:Work>
    </rdf:RDF>
  </metadata>
  <defs
     id="defs46" />
  <sodipodi:namedview
     pagecolor="#ffffff"
     bordercolor="#666666"
     borderopacity="1"
     objecttolerance="10"
     gridtolerance="10"
     guidetolerance="10"
     inkscape:pageopacity="0"
     inkscape:pageshadow="2"
     inkscape:window-width="1920"
     inkscape:window-height="1017"
     id="namedview44"
     showgrid="false"
     fit-margin-top="0"
     fit-margin-left="0"
     fit-margin-right="0"
     fit-margin-bottom="0"
     inkscape:zoom="1.4746144"
     inkscape:cx="383.3629"
     inkscape:cy="245.60264"
     inkscape:window-x="-8"
     inkscape:window-y="-8"
     inkscape:window-maximized="1"
     inkscape:current-layer="svg42" />
  <g
     id="#ffffffff"
     style="fill:#ffffff;fill-opacity:1"
     transform="translate(-65.48705,-262.83392)">
    <path
       d="m 129.24,268.26 c 4.94,-1.81 9.9,-3.57 14.83,-5.39 0.03,31.05 -0.03,62.11 0.03,93.16 -0.12,3.4 3.63,6.25 6.88,5.15 2.21,-0.62 4.01,-2.74 3.92,-5.08 0.09,-13.03 -0.06,-26.07 0.06,-39.1 0.15,-9.21 5.69,-18.04 13.93,-22.14 5.8,-3.06 12.66,-3.46 18.95,-1.84 0.02,-7.04 -0.09,-14.09 0.03,-21.13 -0.09,-1.6 1.21,-2.89 2.65,-3.34 5.15,-1.97 10.38,-3.75 15.55,-5.68 0.01,30.72 0.01,61.45 0,92.17 -0.22,2.35 0.93,4.85 3.15,5.83 3.29,1.78 7.88,-1.03 7.68,-4.79 0.07,-18.05 -0.02,-36.11 0.04,-54.16 -0.17,-1.92 0.95,-3.86 2.9,-4.28 5.09,-1.89 10.22,-3.69 15.33,-5.55 0,21.01 -0.02,42.01 0.01,63.02 -0.14,2.56 1.31,5.26 3.87,6.02 3.29,1.24 7.18,-1.65 7.1,-5.12 0.14,-13.02 -0.01,-26.05 0.06,-39.07 0.06,-7.66 3.96,-15.14 10.08,-19.71 6.58,-5.05 15.7,-6.56 23.55,-3.84 6.47,2.07 11.76,6.97 14.9,12.94 2.35,-5.88 7.39,-10.37 13.34,-12.39 11.14,-4.11 25.29,-1.6 32.69,8.18 3.49,4.34 4.27,10.05 3.91,15.45 -6.08,0.01 -12.15,0 -18.22,0.01 -0.08,-3.03 0.39,-6.65 -2.12,-8.9 -3.82,-3.92 -12.44,-1.98 -12.55,4.05 0.34,3.7 3.38,6.24 5.94,8.57 8.41,7.5 18.44,13.72 24.26,23.65 4.4,7.25 3.26,17.3 -2.69,23.35 -12.26,12.42 -37.08,9.73 -44.46,-6.82 -3.6,7.3 -10.66,12.84 -18.75,14.14 -8.28,1.56 -17.07,-1.48 -22.91,-7.48 -3.13,3.62 -7.23,6.54 -12.01,7.44 -6.7,1.52 -13.86,-0.92 -18.68,-5.7 -7.11,7.36 -19.43,8.14 -27.39,1.69 -10.1,6.95 -24.71,5.48 -33.16,-3.43 -4.29,5.32 -11.17,8.57 -18.04,7.77 -7.45,-0.66 -14.26,-5.85 -16.82,-12.88 -1.15,-2.88 -1.32,-6.01 -1.27,-9.07 0.07,-18.97 -0.04,-37.95 0.06,-56.93 -2.88,1.42 -6,2.23 -9.19,2.47 -0.03,17.18 0,34.37 -0.02,51.55 -0.04,7.12 -3.39,14.1 -8.78,18.73 -5.66,4.93 -13.58,7.17 -20.98,5.87 -8.19,-1.31 -15.54,-6.91 -18.94,-14.48 -2.31,-4.71 -2.49,-10.06 -2.47,-15.21 0.05,-17.84 -0.07,-35.68 0.06,-53.51 -0.1,-9.23 5.03,-18.28 13.17,-22.69 10.03,-5.85 23.84,-3.51 31.45,5.24 2.77,2.84 4.15,6.61 5.94,10.06 2.52,3.52 8.58,1.95 9.51,-2.15 0.57,-3.92 -0.1,-7.9 0.34,-11.83 0.25,-1.62 1.93,-2.32 3.28,-2.82 m -40.78,13.41 c -2.88,1.14 -4.75,4.15 -4.63,7.24 -0.08,21.38 -0.03,42.76 -0.02,64.14 -0.33,3.81 2.34,7.67 6.2,8.26 4.27,0.8 8.65,-2.97 8.4,-7.33 0,-21.98 0.06,-43.96 -0.03,-65.94 0.02,-4.79 -5.57,-8.34 -9.92,-6.37 m 88.85,25.78 c -2.84,1.3 -4.31,4.48 -4.14,7.51 -0.01,12.72 0,25.44 0,38.16 -0.2,3.32 1.68,6.81 4.96,7.85 4.49,1.83 9.84,-2.09 9.68,-6.88 0.04,-13.36 0.03,-26.72 0,-40.08 0.2,-5.14 -5.93,-9.16 -10.5,-6.56 m 87.25,5.58 c -0.18,5.15 0.01,10.31 -0.06,15.46 3.11,-0.07 6.27,0.27 9.36,-0.25 3.48,-0.99 5.5,-4.7 5.15,-8.19 -0.08,-4.09 0.91,-9.35 -3.08,-12.01 -4.11,-3.29 -11.07,-0.28 -11.37,4.99 m 32,10.73 c -2.04,8.11 -8.16,15.08 -16.08,17.87 -5.09,2 -10.64,1.49 -15.98,1.54 0.09,4.14 -0.19,8.31 0.12,12.45 0.81,4.97 7.48,7.6 11.4,4.32 3.78,-2.56 2.93,-7.53 2.99,-11.44 8.99,0 17.98,0 26.97,-0.01 1.96,0.01 4.42,-0.03 5.44,2.01 0.78,2.65 -0.06,5.85 1.88,8.13 3.29,4.6 12.22,3.32 13.11,-2.6 0.19,-3.79 -2.96,-6.54 -5.49,-8.91 -8.37,-7.49 -18.24,-13.69 -24.36,-23.36 z"
       id="path23"
       style="opacity:1;fill:#ffffff;fill-opacity:1"
       inkscape:connector-curvature="0" />
    <path
       d="m 222.36,263.54 c 6.47,-2.62 14.26,2.4 14.69,9.31 0.83,6.66 -5.51,12.89 -12.16,11.88 -6.43,-0.48 -11.17,-7.42 -9.4,-13.6 0.82,-3.48 3.52,-6.39 6.87,-7.59 z"
       id="path25"
       style="opacity:1;fill:#ffffff;fill-opacity:1"
       inkscape:connector-curvature="0" />
    <path
       d="m 505.78,268.67 c 5.23,-2.02 10.53,-3.87 15.81,-5.78 0,31.06 -0.06,62.12 0.02,93.17 -0.09,3.55 3.97,6.41 7.27,4.99 2.5,-0.83 3.86,-3.5 3.62,-6.04 0.01,-17.69 -0.01,-35.38 0,-53.07 -0.14,-1.65 0.54,-3.53 2.27,-4.04 5.24,-2.09 10.61,-3.83 15.89,-5.8 0.02,20.96 -0.02,41.93 0.02,62.9 -0.27,3.12 2.01,6.22 5.23,6.42 2.99,0.19 5.78,-2.45 5.75,-5.44 0.12,-13 -0.02,-26.01 0.05,-39.01 0.07,-8.27 4.58,-16.32 11.55,-20.76 6.67,-4.42 15.46,-5.4 22.94,-2.52 7.6,2.78 13.67,9.44 15.7,17.28 1.16,4.26 0.85,8.72 0.9,13.08 -0.05,8.99 0.08,17.97 -0.06,26.96 -0.06,9.39 -5.86,18.39 -14.33,22.42 -9.74,4.94 -22.26,2.52 -29.78,-5.31 -4.41,5.56 -11.67,8.79 -18.75,7.7 -4.52,-0.53 -8.6,-2.86 -11.87,-5.93 -7.15,7.34 -19.48,8.14 -27.44,1.65 -10.04,7.04 -24.73,5.51 -33.12,-3.43 -6.61,8.88 -20.33,10.47 -28.86,3.44 -10.07,7.01 -24.74,5.5 -33.15,-3.44 -3.33,4.06 -8.05,7.07 -13.32,7.71 -8.32,1.28 -17.14,-3.37 -20.74,-10.99 -3.8,-8.35 -7.37,-16.81 -11.18,-25.16 -0.08,10.11 0.01,20.22 -0.04,30.32 0.28,1.91 -1.15,4.05 -3.16,4.1 -5.03,0.22 -10.05,0.01 -15.08,0.08 0.04,-35.26 -0.09,-70.52 0.07,-105.77 8.69,0.06 17.37,0.01 26.06,0.01 9.63,-0.02 18.83,6.16 22.71,14.93 3.71,8.06 1.88,17.15 2.33,25.7 0.44,9.82 -5.15,19.6 -13.95,24.01 -3.69,2.14 -7.98,2.44 -12.06,3.18 -0.02,0.39 -0.04,1.17 -0.05,1.56 3.9,2.24 9.87,0.26 13.39,3.7 3.3,5.65 5.12,12.06 8.33,17.77 2.47,3.75 9,2.15 9.59,-2.26 0.26,-3.99 -0.21,-8.06 0.72,-11.99 1.87,-9.07 9.1,-16.78 18.06,-19.17 4.6,-1.38 9.47,-0.82 14.21,-0.91 -0.1,-4.08 0.23,-8.17 -0.15,-12.23 -0.65,-4.69 -6.52,-7.66 -10.61,-5.12 -3.27,1.54 -4,5.33 -4,8.59 0.09,1.98 -1.84,3.42 -3.7,3.3 -4.19,0.12 -8.38,-0.02 -12.56,0.03 -0.38,-6.16 1.03,-12.55 4.85,-17.5 5.93,-8.19 17.19,-11.96 26.85,-8.9 9.95,2.82 17.4,12.49 17.55,22.85 0.07,13.36 -0.05,26.72 0.05,40.09 -0.06,2.51 1.98,4.82 4.43,5.27 3.16,0.68 6.56,-2.09 6.41,-5.35 0.13,-13.01 0,-26.01 0.05,-39.02 0.11,-9.59 6.22,-18.74 14.98,-22.61 5.57,-2.59 11.95,-2.82 17.86,-1.31 0.03,-6.99 -0.08,-13.98 0.03,-20.96 -0.09,-1.54 0.94,-2.96 2.41,-3.39 m -135.61,14.34 c 0,12.77 -0.01,25.54 0,38.31 4.24,-0.21 9.51,1.1 12.72,-2.49 1.63179,-1.92711 2.00833,-4.25008 2.03133,-6.66417 l 0.0144,-17.80092 c -0.006,-2.43918 -0.18362,-4.85296 -0.84574,-7.19491 -2.45,-5.48 -9.13,-4.05 -13.92,-4.16 m 123.08,24.24 c -3.1,1.18 -4.78,4.56 -4.58,7.76 0.02,13 -0.07,26.01 0.05,39.01 -0.07,3.89 3.4,7.46 7.32,7.38 3.92,0.06 7.44,-3.48 7.28,-7.42 0.02,-13.3 0.03,-26.6 -0.01,-39.9 0.28,-5 -5.51,-9.03 -10.06,-6.83 m 90.24,0.47 c -2.12,1.29 -3.6,3.64 -3.47,6.17 -0.04,13.41 -0.03,26.82 -0.01,40.23 -0.17,3.46 2.64,6.66 6.04,7.17 4.23,0.85 8.63,-2.89 8.42,-7.22 0.05,-13.34 0.04,-26.67 0,-40 0.39,-5.46 -6.45,-9.44 -10.98,-6.35 m -156.71,38.34 c -0.22,2.95 -0.23,5.93 0.02,8.88 0.37,3.9 4.3,7.04 8.2,6.39 3.57,-0.43 6.43,-3.78 6.32,-7.37 0.08,-4.79 -0.03,-9.58 0.01,-14.37 -2.46,-0.02 -4.92,-0.08 -7.38,0 -3.6,-0.17 -6.88,2.93 -7.17,6.47 z"
       id="path27"
       style="opacity:1;fill:#ffffff;fill-opacity:1"
       inkscape:connector-curvature="0"
       sodipodi:nodetypes="cccccccccccccccccccccccccccccccccccccccccccccccccccccccccccccccccccccccccccccccccccccccc" />
    <path
       d="m 539.15,263.15 c 5.98,-1.55 12.54,2.89 13.33,9.01 1.16,6.24 -4.12,12.68 -10.49,12.63 -6.31,0.46 -12,-5.52 -11.27,-11.79 0.24,-4.67 3.88,-8.86 8.43,-9.85 z"
       id="path29"
       style="opacity:1;fill:#ffffff;fill-opacity:1"
       inkscape:connector-curvature="0" />
    <path
       d="m 298.53,394.72 c 6.87,-1.86 14.76,1.24 18.32,7.46 3.57,5.62 1.97,12.53 2.32,18.8 -0.37,6.77 1.42,14.41 -2.89,20.3 -4.93,7.55 -16.29,9.33 -23.39,3.85 -4.08,-3.01 -6.71,-8.01 -6.56,-13.11 0.01,-7.36 -0.01,-14.71 0.01,-22.07 0.01,-7.07 5.41,-13.5 12.19,-15.23 m 2,6.92 c -3.09,0.95 -5.09,4.17 -4.86,7.35 0,8.36 -0.03,16.72 0.01,25.08 -0.17,3.56 2.77,6.78 6.27,7.18 4.15,0.57 8.04,-3.18 7.86,-7.31 0.02,-8.64 0.09,-17.29 -0.04,-25.92 -0.08,-4.46 -5.02,-7.96 -9.24,-6.38 z"
       id="path31"
       style="opacity:1;fill:#ffffff;fill-opacity:1"
       inkscape:connector-curvature="0" />
    <path
       d="m 332.08,399.17 c 6.44,-6.99 18.87,-6.46 24.64,1.12 4.34,4.86 3.67,11.71 3.54,17.74 -0.17,4.62 -2.65,9.07 -6.63,11.47 3.9,2.49 6.52,6.82 6.63,11.49 0.07,5.8 0.85,12.3 -3.08,17.15 -5.41,7.83 -17.79,8.92 -24.55,2.24 -4.74,-4.13 -5.71,-10.74 -5.21,-16.68 3.12,0 6.25,0 9.38,-0.01 0.19,4.26 -1.12,9.77 2.96,12.66 3.85,3.17 10.39,0.56 11.05,-4.36 0.25,-4.02 0.11,-8.06 0.09,-12.08 0.03,-3.55 -3.18,-6.82 -6.73,-6.81 -1.66,-0.05 -3.32,-0.07 -4.97,-0.04 0,-2.38 0,-4.75 0,-7.13 4.11,0.34 9.55,0.26 11.23,-4.39 1.04,-4.45 0.31,-9.16 0.45,-13.71 -0.05,-5.29 -7.06,-8.6 -11.14,-5.15 -4.1,2.94 -2.73,8.51 -2.94,12.82 -3.13,0 -6.25,0 -9.38,0 -0.42,-5.75 0.27,-12.12 4.66,-16.33 z"
       id="path33"
       style="opacity:1;fill:#ffffff;fill-opacity:1"
       inkscape:connector-curvature="0" />
    <path
       d="m 266.2,395.42 c 3.16,0 6.31,0 9.46,0.01 0.01,17.25 0.01,34.5 0,51.75 -3.15,-0.02 -6.31,-0.02 -9.46,-0.01 0.01,-17.25 0,-34.5 0,-51.75 z"
       id="path35"
       style="opacity:1;fill:#ffffff;fill-opacity:1"
       inkscape:connector-curvature="0" />
    <path
       d="m 381.5,395.43 c 10.24,-0.01 20.48,-0.01 30.72,0 -0.07,2.15 0.08,4.35 -0.59,6.44 -4.54,15.09 -9.05,30.2 -13.6,45.3 -3.15,0 -6.29,-0.01 -9.43,0.01 4.44,-14.9 8.94,-29.79 13.41,-44.68 -6.84,0 -13.68,0 -20.51,0 0,-2.36 -0.01,-4.72 0,-7.07 z"
       id="path37"
       style="opacity:1;fill:#ffffff;fill-opacity:1"
       inkscape:connector-curvature="0" />
    <path
       d="m 371.42,434.5 c 4,-1.53 8.64,2.31 7.72,6.55 -0.49,4.39 -6.45,6.61 -9.66,3.53 -3.51,-2.69 -2.32,-8.9 1.94,-10.08 z"
       id="path39"
       style="opacity:1;fill:#ffffff;fill-opacity:1"
       inkscape:connector-curvature="0" />
  </g>
</svg>
