<svg height="61.10358mm" viewBox="0 0 67.049377 61.10358" width="67.049377mm" xmlns="http://www.w3.org/2000/svg" xmlns:xlink="http://www.w3.org/1999/xlink"><clipPath id="a"><path d="m274.113 1151.452h-190.062v-173.207h190.062z"/></clipPath><g transform="matrix(.35277777 0 0 -.35277777 -29.651596 406.206669)"><g clip-path="url(#a)"><g transform="translate(179.196 1015.873)"><path d="m0 0h-73.124l-13.142 99.635 86.266-.112v35.944l-86.716.112c-6.402 0-8.537-5.279-8.424-8.087l19.994-159.055c.225-3.033 2.921-6.065 7.077-6.065h68.069zm73.351 0h-73.351v-37.628h66.948c3.37 0 7.301 2.245 7.861 6.065l20.109 159.504v.562.449c-.113 2.809-2.584 6.403-7.863 6.291l-87.055.224v-35.944h86.267z" fill="#fff"/></g></g><path d="m0 0 12.242 93.68-162.536.113 12.356-93.793z" fill="#fcd43d" transform="translate(248.278 1018.795)"/><g fill="#287ac8"><path d="m0 0c0 1.46 1.236 2.809 1.236 4.269 8.985-.225 25.721-1.012 37.517-1.574l2.92 22.692-37.966-1.573c-.224 1.347-.337 2.696-.675 4.044 9.885 1.683 28.756 5.616 40.103 7.975l4.604 35.832-51.784-26.509c-.786 1.123-1.684 2.246-2.47 3.369 9.323 6.741 38.303 25.499 51.333 33.923h-56.051l-13.704-22.128c-1.236.562-2.471 1.011-3.818 1.46 2.582 6.516 5.392 14.379 7.525 20.668h-31.003l.787-19.32c-1.46-.224-2.809-.562-4.156-.898-1.573 6.739-3.37 14.152-4.943 20.218l-45.38.113 30.104-28.194c-1.011-1.011-1.91-1.91-2.809-3.033-8.874 8.649-27.295 19.208-33.585 22.577l4.717-35.832 18.759-4.942c-.112-1.348-.561-2.471-.561-3.819-5.617.223-12.356.787-17.187 1.235l4.381-33.024 15.277 4.942c.786-1.123.449-2.919 1.235-3.931-3.818-3.033-10.109-6.179-15.501-8.65l.113-1.122h38.415c.113-.114-16.512 12.018-16.512 30.215 0 19.77 16.175 35.833 36.169 35.833 19.771 0 35.833-16.063 35.833-35.833 0-12.805-6.403-23.813-16.286-30.215h60.318l.787 6.064z" transform="translate(211.323 1030.026)"/><path d="m0 0c1.685 0 3.033 1.236 3.033 2.921 0 1.572-1.348 2.92-3.033 2.92-1.797 0-3.145-1.348-3.145-2.92 0-1.685 1.348-2.921 3.145-2.921" transform="translate(156.618 1055.3)"/><path d="m0 0c1.685 0 3.032 1.347 3.032 3.032s-1.347 2.92-3.032 2.92-2.921-1.235-2.921-2.92 1.236-3.032 2.921-3.032" transform="translate(181.556 1047.663)"/><path d="m0 0c-.899 0-1.572.224-2.582 1.348-1.012.898-2.472 2.584-1.911 3.818l-.786.451c-.899-1.91.449-3.819 2.022-5.055 1.685-1.236 1.91-1.574 3.482-1.459z" transform="translate(192.563 1030.476)"/><path d="m0 0c-.674-.562-1.124-.786-3.033-.786-1.573 0-1.236 0-2.471.448v-.898c1.235-.451.786-.451 2.808-.562 2.134 0 2.696.337 3.369 1.46z" transform="translate(143.589 1047.663)"/><path d="m0 0c-.449.337-1.35 0-1.35 0-9.884-6.065-15.725-8.986-27.182-5.616-9.211 2.695-17.411 11.345-18.534 19.433 0 0-.113.675-1.011.449-1.011-.224-.787-.786-.787-.786 2.247-8.536 9.324-17.973 21.006-20.781 13.367-3.144 17.635.337 28.082 6.291 0 0 .224.675-.224 1.01" transform="translate(189.19501 1032.385)"/></g><path d="m0 0h-68.855l-12.357 93.793 81.212-.113v33.81l-81.661.113c-6.066 0-8.087-4.942-7.975-7.638l18.871-149.731c.225-2.922 2.696-5.73 6.739-5.73h64.026zm69.082 0h-69.082v-35.496h63.017c3.257 0 6.852 2.134 7.413 5.73l18.873 150.292c.111.113.111.225.111.338v.448c-.111 2.696-2.472 6.066-7.414 6.066l-82 .112v-33.81h81.324z" fill="#ee2922" transform="translate(179.196 1018.795)"/><g fill="#fff"><path d="m0 0h-8.2v6.291h8.2v3.144h-12.693v-22.128h12.693v3.145h-8.2v6.291h8.2zm3.931 6.291c1.124 0 2.247-.338 3.034-.899.898-.674 1.347-1.46 1.347-2.247 0-.899-.449-1.685-1.347-2.246-.787-.674-1.91-.899-3.034-.899h-3.931v-3.257h3.931c1.236 0 2.247-.225 3.146-.786.899-.675 1.348-1.461 1.348-2.247 0-.899-.449-1.685-1.348-2.247-.899-.674-1.91-1.011-3.146-1.011h-3.931v-3.145h3.931c2.36 0 4.381.674 6.178 1.909 1.685 1.124 2.584 2.696 2.584 4.494 0 1.909-1.011 3.482-3.145 4.605 2.134 1.236 3.145 2.809 3.145 4.83 0 1.685-.899 3.146-2.584 4.381-1.797 1.348-3.818 1.909-6.178 1.909h-3.931v-3.144z" transform="translate(113.485 1130.447)"/><path d="m0 0h4.38v-18.983l19.77.113v-3.258h-24.15z" transform="translate(129.548 1139.882)"/><path d="m0 0v22.128l22.015-14.153v14.153h4.495v-22.128l-22.13 14.153v-14.153z" transform="translate(189.53101 1117.755)"/><path d="m220.871 1117.755h4.38v15.613h-4.38z"/><path d="m0 0h4.38v-9.435h3.37l11.458 9.435h5.727l-13.253-11.12 13.253-11.008h-5.727l-11.458 9.435h-3.37v-9.435h-4.38z" transform="translate(231.541 1139.882)"/><path d="m0 0h4.38l-2.134-4.268h-4.493z" transform="translate(223.005 1140.107)"/><path d="m0 0 5.504 7.862v6.516l-.113.112-15.5-22.128 5.054.112 3.482 4.381h7.077v3.145zm5.504 7.862 5.392-7.862h-5.392v-3.145h7.077l3.257-4.381h4.829l-15.163 21.904z" transform="translate(166.504 1125.393)"/><path d="m0 0v3.257c-7.525 0-13.815-5.053-13.815-11.233 0-6.176 6.29-11.118 13.815-11.118v3.257c-5.617 0-10.11 3.592-10.11 7.861 0 4.382 4.381 7.976 10.11 7.976zm0 0c5.617 0 10.108-3.594 10.108-7.976 0-4.269-4.603-7.861-10.108-7.861v-3.257c7.526 0 13.704 4.942 13.704 11.118 0 6.18-6.178 11.233-13.704 11.233z" transform="translate(231.429 1009.021)"/><path d="m0 0h-12.693v-22.128h4.381v9.548h7.526l.786-1.011v4.043h-8.312v6.403h8.312zm9.66-11.457c2.134 1.01 3.033 3.146 3.033 5.166 0 1.687-.899 3.146-2.584 4.382s-3.818 1.909-6.289 1.909h-3.82v-3.145h3.82c1.235 0 2.246-.336 3.144-1.011.899-.674 1.349-1.347 1.349-2.135 0-.899-.45-1.685-1.349-2.245-.786-.674-1.909-1.012-3.144-1.012h-3.82v-4.043l7.077-8.537h4.942l-7.976 9.548c1.236 0 3.483.111 5.617 1.123" transform="translate(128.2 1012.279)"/><path d="m0 0 5.392 7.752v6.402l-.113.224-15.388-22.128 4.942.112 3.595 4.381h6.964v3.257zm5.392 7.752 5.504-7.752h-5.504v-3.257h7.189l3.37-4.381h4.942l-15.501 21.792z" transform="translate(154.035 997.78799)"/><path d="m0 0h-12.581v-22.128l12.581.112v3.145c-.113 0-.225 0-.337 0h-7.864v15.726h7.976.225zm1.236-22.016c2.582 0 5.954 1.461 7.863 2.809 1.909 1.461 3.368 5.279 3.368 7.75s-1.459 5.841-2.92 7.526c-1.46 1.797-5.953 3.931-8.537 3.931h-1.01v-3.145c1.347-.111 4.38-.674 5.953-2.358 1.91-1.909 2.358-4.045 2.358-5.73 0-1.796-.561-3.931-2.358-5.616-1.685-1.46-4.493-1.909-5.953-2.022v-3.145z" transform="translate(191.89 1012.166)"/><path d="m208.964 990.038h4.267v22.354h-4.267z"/></g></g></svg>