<svg height="99.781845" viewBox="0 0 406.06131 99.781845" width="406.06131" xmlns="http://www.w3.org/2000/svg"><g fill="#000f37"><path d="m0 0h29.854l4.593-7.467h-34.447zm0 11.667v-7.415h27.237l-4.56 7.415zm29.22 4.252h-29.22v7.428h31.178c.015-.291.023-.585.02-.886-.026-2.764-.687-4.895-1.978-6.542m-14.229 19.133h-14.991v-7.453h30.245c-2.185 5.092-7.94 7.453-15.254 7.453" transform="matrix(1.3333333 0 0 -1.3333333 0 46.736002)"/><path d="m0 0c1.443 1.85 1.983 4.287 1.983 6.589 0 1.58-.316 3.43-.991 4.875-2.3 4.784-6.582 5.461-11.404 5.461h-12.261v-31.865h7.212v11.013h4.801l6.634-11.013h7.986l-7.314 12.143c1.213.581 2.335 1.457 3.354 2.797zm-5.184 6.544c0-1.805-.857-3.34-2.525-4.107-1.081-.497-2.749-.497-3.921-.497-1.262 0-2.569.045-3.831.045v9.118h3.471c2.073 0 4.417.089 5.86-1.716.631-.812.946-1.805.946-2.843zm29.949 11.406h-7.447l-3.031-6.302h4.829zm-4.323-25.316c-1.716-2.979-4.966-3.025-5.463-3.025-1.355 0-3.115.587-3.115 2.529 0 3.025 5.101 3.07 6.953 3.567.587.135.993.316 1.625.541zm6.592 5.418c0 1.897.09 4.606-.632 6.367-1.716 4.063-6.095 4.695-9.978 4.695-5.283 0-9.662-2.257-9.978-8.082h6.14c-.09 2.303 2.257 2.935 4.109 2.935 1.399 0 3.566-.361 3.566-2.167 0-1.671-2.438-1.761-3.612-1.942-5.056-.722-11.513-1.309-11.513-7.946 0-4.786 3.612-7.585 8.127-7.585 3.341 0 4.786 1.038 7.36 2.799l.045-2.122 6.366.045zm26.412-13.003v31.876h-6.727v-10.023c-1.625 1.354-3.476 2.122-5.598 2.122-7.089 0-10.295-6.141-10.295-12.507 0-5.959 3.341-12.055 9.978-12.055 2.393 0 4.832.723 6.186 2.845v-2.258zm-6.501 11.559c0-3.071-.813-6.637-4.56-6.637-3.838 0-4.786 3.657-4.786 6.862 0 2.935 1.129 6.728 4.695 6.728 3.883 0 4.651-3.793 4.651-6.953zm17.743 11.829h-6.5919v-23.388h6.5919zm0 8.488h-6.5919v-6.0049h6.5919zm27.587-20.092c0 6.999-4.515 12.281-11.694 12.281-7.585 0-12.506-4.921-12.506-12.506 0-7.179 4.56-12.236 11.874-12.236 7.269 0 12.326 5.237 12.326 12.461zm-6.818.271c0-3.476-1.173-7.314-5.282-7.314-4.018 0-5.283 3.702-5.283 7.089 0 3.476 1.355 6.907 5.373 6.907 3.928 0 5.192-3.341 5.192-6.682zm34.689 19.821v-22.259c0-2.438-.813-4.199-3.612-4.199-2.574 0-3.387 1.806-3.387 3.612v3.251h-6.998v-2.438c0-1.625.045-3.341.452-4.515 1.445-4.289 5.282-6.005 9.526-6.005 2.709 0 5.147.271 7.45 1.896 3.657 2.574 3.702 5.779 3.702 10.701v19.956zm32.192-31.876v23.388h-6.457v-12.191c0-3.521-.677-6.275-4.018-6.275-3.161 0-3.657 2.483-3.657 5.056v13.41h-6.638v-13.635c0-4.425.497-10.34 7.811-10.34 2.393 0 5.328 1.039 6.637 3.161v-2.574zm25.735 0v14.358c0 3.16-.452 6.005-3.116 8.037-1.399 1.083-3.16 1.535-4.921 1.535-2.709 0-4.831-1.174-6.456-3.251v2.709h-6.502v-23.388h6.682v12.958c0 2.484.858 5.283 4.019 5.283 2.618 0 3.476-2.213 3.476-4.47v-13.771zm10.971 23.388h-6.5919v-23.388h6.5919zm0 8.488h-6.5919v-6.0049h6.5919zm27.587-20.092c0 6.999-4.515 12.281-11.694 12.281-7.585 0-12.507-4.921-12.507-12.506 0-7.179 4.56-12.236 11.875-12.236 7.269 0 12.326 5.237 12.326 12.461zm-6.818.271c0-3.476-1.174-7.314-5.282-7.314-4.019 0-5.283 3.702-5.283 7.089 0 3.476 1.354 6.907 5.373 6.907 3.928 0 5.192-3.341 5.192-6.682zm16.615 11.333h-6.502v-23.388h6.818v11.514c0 2.799.542 6.32 5.328 6.32.587 0 .948-.045 1.58-.135v6.05c-.587.09-.858.09-1.174.09-2.844 0-4.786-1.038-6.05-4.289z" transform="matrix(1.3333333 0 0 -1.3333333 94.525331 36.742669)"/><path d="m0 0c1.443 1.85 1.983 4.287 1.983 6.589 0 1.58-.316 3.43-.991 4.875-2.3 4.784-6.582 5.461-11.404 5.461h-12.261v-31.865h7.212v11.013h4.801l6.634-11.013h7.986l-7.314 12.143c1.213.581 2.335 1.457 3.354 2.797zm-5.184 6.544c0-1.805-.857-3.34-2.525-4.107-1.081-.497-2.749-.497-3.921-.497-1.262 0-2.569.045-3.831.045v9.118h3.471c2.073 0 4.417.089 5.86-1.716.631-.812.946-1.805.946-2.843zm29.949 11.406h-7.447l-3.031-6.302h4.829zm-4.323-25.316c-1.716-2.979-4.966-3.025-5.463-3.025-1.355 0-3.115.587-3.115 2.529 0 3.025 5.101 3.07 6.953 3.567.587.135.993.316 1.625.541zm6.592 5.418c0 1.897.09 4.606-.632 6.367-1.716 4.063-6.095 4.695-9.978 4.695-5.283 0-9.662-2.257-9.978-8.082h6.14c-.09 2.303 2.257 2.935 4.109 2.935 1.399 0 3.566-.361 3.566-2.167 0-1.671-2.438-1.761-3.612-1.942-5.056-.722-11.513-1.309-11.513-7.946 0-4.786 3.612-7.585 8.127-7.585 3.341 0 4.786 1.038 7.36 2.799l.045-2.122 6.366.045zm26.412-13.003v31.876h-6.727v-10.023c-1.625 1.354-3.476 2.122-5.598 2.122-7.089 0-10.295-6.141-10.295-12.507 0-5.959 3.341-12.055 9.978-12.055 2.393 0 4.832.723 6.186 2.845v-2.258zm-6.501 11.559c0-3.071-.813-6.637-4.56-6.637-3.838 0-4.786 3.657-4.786 6.862 0 2.935 1.129 6.728 4.695 6.728 3.883 0 4.651-3.793 4.651-6.953zm17.743 11.829h-6.5919v-23.388h6.5919zm0 8.488h-6.5919v-6.0049h6.5919zm27.587-20.092c0 6.999-4.515 12.281-11.694 12.281-7.585 0-12.506-4.921-12.506-12.506 0-7.179 4.56-12.236 11.874-12.236 7.269 0 12.326 5.237 12.326 12.461zm-6.818.271c0-3.476-1.173-7.314-5.282-7.314-4.018 0-5.283 3.702-5.283 7.089 0 3.476 1.355 6.907 5.373 6.907 3.928 0 5.192-3.341 5.192-6.682zm34.689 19.821v-22.259c0-2.438-.813-4.199-3.612-4.199-2.574 0-3.387 1.806-3.387 3.612v3.251h-6.998v-2.438c0-1.625.045-3.341.452-4.515 1.445-4.289 5.282-6.005 9.526-6.005 2.709 0 5.147.271 7.45 1.896 3.657 2.574 3.702 5.779 3.702 10.701v19.956zm32.192-31.876v23.388h-6.457v-12.191c0-3.521-.677-6.275-4.018-6.275-3.161 0-3.657 2.483-3.657 5.056v13.41h-6.638v-13.635c0-4.425.497-10.34 7.811-10.34 2.393 0 5.328 1.039 6.637 3.161v-2.574zm25.735 0v14.358c0 3.16-.452 6.005-3.116 8.037-1.399 1.083-3.16 1.535-4.921 1.535-2.709 0-4.831-1.174-6.456-3.251v2.709h-6.502v-23.388h6.682v12.958c0 2.484.858 5.283 4.019 5.283 2.618 0 3.476-2.213 3.476-4.47v-13.771zm10.971 23.388h-6.5919v-23.388h6.5919zm0 8.488h-6.5919v-6.0049h6.5919zm27.587-20.092c0 6.999-4.515 12.281-11.694 12.281-7.585 0-12.507-4.921-12.507-12.506 0-7.179 4.56-12.236 11.875-12.236 7.269 0 12.326 5.237 12.326 12.461zm-6.818.271c0-3.476-1.174-7.314-5.282-7.314-4.019 0-5.283 3.702-5.283 7.089 0 3.476 1.354 6.907 5.373 6.907 3.928 0 5.192-3.341 5.192-6.682zm16.615 11.333h-6.502v-23.388h6.818v11.514c0 2.799.542 6.32 5.328 6.32.587 0 .948-.045 1.58-.135v6.05c-.587.09-.858.09-1.174.09-2.844 0-4.786-1.038-6.05-4.289z" transform="matrix(1.3333333 0 0 -1.3333333 94.525331 36.742669)"/><path d="m0 0h-3.686l-1.982 2.503h2.9l.958-1.452.914 1.452h2.944zm73.765-10.745c0-1.653-.56-3.478-2.512-3.478-1.91 0-2.513 1.761-2.513 3.37 0 1.653.646 3.284 2.555 3.284 1.868 0 2.47-1.588 2.47-3.176m3.24-.129c0 3.326-2.147 5.838-5.559 5.838-3.607 0-5.946-2.34-5.946-5.946 0-3.414 2.169-5.817 5.646-5.817 3.455 0 5.859 2.49 5.859 5.925m-12.02 2.812v2.875c-.192.022-.364.042-.558.042-1.502 0-2.34-.642-2.875-2.038v1.825h-3.092v-11.119h3.242v3.627c0 .559 0 1.139.022 1.697.043 1.802.3 3.155 2.511 3.155.257 0 .493-.022.75-.064m-24.125-8.415-4.591 6.913 4.291 4.206h-4.099l-3.435-3.799v7.834h-3.155v-15.154h3.155v3.693l1.03 1.031 2.791-4.724zm-12.619 3.413c0 2.792-2.748 3.286-4.895 3.735-.579.129-1.888.279-1.888 1.073 0 .795.944.902 1.545.902.602 0 1.287-.215 1.674-.708.172-.215.236-.644.279-.903l2.963.152c-.129 2.724-2.426 3.777-4.873 3.777-2.254 0-4.636-.901-4.636-3.52 0-4.443 6.611-2.835 6.611-4.831 0-.88-.901-1.029-1.589-1.029-1.416 0-2.168.407-2.361 1.847l-3.005-.109c0-.364.021-.665.107-1.029.559-2.299 2.919-3.092 5.045-3.092 2.425 0 5.023.86 5.023 3.735m-14.424 3.627h-4.444c.344 1.267 1.031 1.911 2.384 1.911 1.137 0 1.952-.793 2.06-1.911m3.326-2.404v.537c0 3.434-1.76 6.268-5.473 6.268-3.413 0-5.623-2.555-5.623-5.881 0-3.413 2.103-5.882 5.623-5.882 2.447 0 4.551 1.159 5.345 3.541l-3.177.216c-.472-.839-1.094-1.181-2.081-1.181-1.46 0-2.212 1.009-2.405 2.382zm-11.783.43-3.541.235c-.022-1.717-1.632-2.789-3.241-2.789-.859 0-1.675.278-2.34.816-1.288 1.074-1.546 2.768-1.546 4.336 0 2.51 1.009 5 3.886 5 1.18 0 2.232-.451 2.832-1.524.13-.258.258-.516.323-.794l3.412.235c-.042.367-.15.689-.257 1.031-.901 2.683-3.584 3.907-6.268 3.907-4.743 0-7.598-3.24-7.598-7.877 0-3.178 1.503-6.289 4.572-7.491.944-.364 1.974-.492 2.984-.492 2.468 0 4.764.901 6.031 3.111.408.708.665 1.502.751 2.296m108.028-1.455c-.535-.924-1.545-1.441-2.598-1.441-.73 0-1.482.346-1.482 1.183 0 1.438 2.298 1.459 3.306 1.717.258.064.516.149.774.258zm3.136 2.575c0 .901.041 2.19-.302 3.027-.817 1.934-2.899 2.235-4.743 2.235-2.513 0-4.597-1.074-4.748-3.845h2.922c-.043 1.095 1.073 1.396 1.953 1.396.666 0 1.698-.171 1.698-1.031 0-.795-1.16-.838-1.719-.923-2.404-.343-5.475-.623-5.475-3.779 0-2.254 1.717-3.586 3.866-3.586 1.587 0 2.275.473 3.5 1.332l.021-1.009h3.029zm11.743-2.784c0 2.791-2.746 3.285-4.893 3.734-.58.13-1.889.279-1.889 1.073s.944.902 1.545.902c.602 0 1.287-.214 1.674-.708.17-.214.236-.644.279-.902l2.961.151c-.129 2.725-2.423 3.777-4.871 3.777-2.254 0-4.636-.901-4.636-3.519 0-4.444 6.609-2.834 6.609-4.83 0-.88-.899-1.032-1.588-1.032-1.416 0-2.168.409-2.359 1.847l-3.006-.106c0-.366.021-.666.107-1.031.559-2.298 2.918-3.091 5.043-3.091 2.426 0 5.024.859 5.024 3.735m-23.803-3.413h-3.1543v15.154h3.1543zm-8.5 0v6.224c0 .708.043 1.568-.535 2.082-.303.28-.709.387-1.117.387-.473 0-.858-.13-1.225-.43-.752-.623-.707-1.673-.707-2.553v-5.71h-3.134v15.154h3.134v-5.174c.492.881 2.08 1.397 3.025 1.397.733 0 1.612-.195 2.211-.623 1.289-.923 1.502-2.168 1.502-3.65v-7.104zm-18.18 0v2.362l5.494 6.137h-4.872v2.62h8.801v-2.556l-5.324-5.944h5.689v-2.619zm-27.879 15.808h-3.784l-1.54-3.203h2.454zm1.33-4.678h-3.349l-1.845-7.492-2.019 7.492h-3.434l3.22-9.014c.171-.494.451-1.053.451-1.589 0-.365-.172-.901-.472-1.139-.302-.235-.968-.278-1.333-.278-.277 0-.556.021-.836.021v-2.491c.28 0 .559-.043.836-.043 1.375 0 3.113-.086 4.057 1.096.452.579.818 1.695 1.052 2.403z" transform="matrix(1.3333333 0 0 -1.3333333 75.267998 73.258668)"/></g></svg>