<svg height="501.35388pt" viewBox="0 0 634.23547 501.35388" width="634.23547pt" xmlns="http://www.w3.org/2000/svg"><g fill="#fe0000"><path d="m214.78.32979527c10.26-.43 20.57-.41 30.83-.11-2.93 4.12000003-7.14 7.06000003-10.14 11.11999973-2.71 3.55-5.74 6.84-8.68 10.19-7.07-.46-14.12 1-21.14.22 3.04-7.14 6.11-14.2699997 9.13-21.41999973z"/><path d="m502.79 40.739795c10.57-10.14 25.76-12.85 39.89-13.18 17.24-.03 35.41-1 51.36 6.69 5.09 3.04 10.54 6.56 12.82 12.31 2.18 4.33 2.56 9.26 2.85 14.01 0 19.02-.01 38.05 0 57.070005-.23 7.65-3.48 14.81-8.45 20.54-8.3 6.25-18.27 9.87-28.57 10.9-10.3 1.1-20.7 2.1-31.03 1.01-13.45-.62-27.97-2.85-38.48-11.98-6.4-5.57-8.51-14.44-8.49-22.62.08-18.280005-.06-36.570005.07-54.850005.04-7.38 3.39-14.31 8.03-19.9m43.07 14.14c-1.19 2.1-2.45 4.28-2.29 6.8-.75 15.27-.19 30.57-.36 45.860005.05 4.77-.58 10.07 2.24 14.24 3.59 3.44 10.03 3.89 13.63.17 1.92-3.08 1.82-6.94 2.13-10.45-.07-14.620005.13-29.240005-.11-43.860005-.71-3.96.54-8.72-2.47-11.93-3.43-3.34-8.72-2.35-12.77-.83z"/><path d="m24.83 29.669795c24.28-.24 48.57-.02 72.85-.11 11.97.86 24.71.43 35.51 6.49 8.71 4.24 13.47 14.06 13.55 23.46.04 7.53-1.38 15.71-6.64 21.45-3.73 4.03-9.15 5.55-13.75 8.25 5.65 1.54 11.87 3.33 15.47 8.32 3.9 7.770005.16 16.870005 3.22 24.820005.78 2.41 3.09 3.55 5.22 4.55.17 7.07-.49 14.09-.78 21.14-14.6.07-29.19.03-43.79.02-2.63-.02-5.23.32-7.83.6-3.73-10.25-3.13-21.35-3.13-32.07.1-3.05-.83-5.99-1.18-9-2.96-4.93-8.9-6.09-14.24-5.45-.4 6.2.41 12.39.7 18.58 0 3.22 3.21 4.43 5.35 6.11 1.21 7.05-.86 14.19-.02 21.3-20.15 1.25-40.44-.36-60.59.91-.52-.39-1.55-1.17-2.07-1.56.48-.25 1.44-.75 1.93-1 .36-6.32-.18-12.67.21-18.98 1.79-2.3 5.63-3.29 5.73-6.82.37-18.03.05-36.100005.16-54.140005-.08-3.96.42-8.07-.92-11.88-.96-2.35-5.23-1.98-5.05-4.95-.05-6.68-.12-13.36.09-20.04m54.83 24.87c-.5565 4.161836-.35716 21.98479 1.13 23.42 4.87.54 10.32.31 14.06-3.28 2.69-4.68 2.44-10.68.33-15.52-3.53-5.22-10.22-3.62-15.52-4.62z"/><path d="m182.58 29.579795c22.96.03 45.92-.1 68.87.07 6.1 25.63 13.27 50.99 19.74 76.540005 2.35 7.24 2.91 16.58 10.49 20.54.07 7.28.01 14.55.03 21.83-20.47.05-40.94-.05-61.4.04-.02-6.69-.22-13.38-.07-20.07-.4-2.63 2.64-2.96 4.13-4.37 2.07-1.67 1.15-4.53 1.34-6.81-7.21-1.26-14.55-.68-21.8-.45-1.76.73-2.13 3.04-1.37 4.63.73 2.87 3.9 3.87 6.14 5.31.69 6.98-1.27 13.96-.01 20.88-2.87 1.35-5.96.29-8.96.34-11.98.02-23.97.03-35.95 0-2.89-.11-5.81.85-8.64-.05.56-6.98-1.1-13.94-.03-20.91.94-1.92 3.22-2.85 4.17-4.81 3.36-7.5 4.33-15.76 6.66-23.590005 5.26-23.11 10.92-46.13 16.66-69.12m24.79 65.96c4.22.04 8.44.03 12.66.01-1.50508-11.14029-4.35856-23.20946-6.51-32.9-2.7527 11.43463-4.97785 22.04657-6.15 32.89z"/><path d="m289.16 29.699795c23.5-.31 47-.02 70.5-.15 12.59.83 26.32.35 37.13 7.91 7.71 4.97 11.82 14.11 11.93 23.1-.02 16.33-.02 32.66 0 48.980005.01 7.85-.15 16.41-5 23.01-6.32 7.59-15.7461 11.22818-25.11 14.71-5.59095 2.07891-16.4147 1.27132-21.88 1.31-15.68961.11104-31.38.01-47.07 0-6.78.06-13.58-.32-20.32.62-1.72-7.31-.37-14.81-.48-22.21 2.98-1.25 5.87-3.82 5.82-7.31.47-8.04-.41-16.13.19-24.180005.66-5.64.21-11.31.34-16.97-.15-7.9.53-15.88-1-23.69-1.89-2.08-5.95-2.68-5.45-6.18-.05-6.31-.33-12.66.4-18.95m54.34 26.41c.73 18.47-.49 37.01.73 55.450005-.41 3.51-.65 7.04.11 10.53 4.81 0 10.09.26 14.25-2.56 1.73-2.18 2.02-5.23 2.14-7.93-.06-11.700005-.1-23.420005.4-35.070005-.79-5.75 1.35-12.01-2.06-17.26-4.34-3.54-10.3-3.34-15.57-3.16z"/><path d="m421.42 29.569795c20.29.07 40.59-.15 60.88.12.1 7-.44 13.96-.69 20.95-.66 1.54-2.72 1.77-3.84 2.92-2 2.15-1.84 5.31-2.06 8.04 0 16.66-.01 33.32.01 49.990005.27 3.36.29 6.76.86 10.08.75 2.68 3.43 3.85 5.59 5.19.3 3.89-.07 7.8.04 11.7-.08 3.21.44 6.53-.73 9.6-9.57.19-19.15.66-28.74.4-10.31-.93-20.73-.62-31 .36l-.46-.63c-.18-6.51-.05-13.04-.06-19.56-.19-1.94 1.79-2.71 3.08-3.65 2.2-1.34 2.99-4.02 2.92-6.47-.02-19.670005-.01-39.350005-.01-59.030005-.01-2.07-1-3.94-1.67-5.85-1.45-.71-2.9-1.44-4.33-2.18.1-7.32-.26-14.66.21-21.98z"/><path d="m251.99 258.4898c1.49 1.77 3.59 1.37 5.6.79 1.29.89 2.37 2.06 3.49 3.18.89-.36 1.79-.72 2.7-1.08.96-.29 1.92-.61 2.88-.94 2.11 1.52 4.03 3.3 6 5.02.33 1.94-.95 3.49-1.68 5.15-.41 1.8-.65 3.63-1.14 5.42 1.46-.94 2.93-2.01 4.75-2.08.06-1.24.14-2.48.23-3.71 1.9.45 2.76 2.17 3.11 3.94-.71.17-2.11.53-2.82.71.03 1.23.05 2.46.09 3.69.85-.38 1.72-.77 2.59-1.15-.02 2.07-.09 4.16-.63 6.18.8.62 1.63.82 2.42.03-1.77-3 1.84-7.08-1.21-9.78.5-.41 1.01-.82 1.53-1.22.85 1.38 1.71 3.84 3.8 3.3 2.04-.44 4.38-.51 5.5 1.64 1.7-.11 3.46-.09 5.14-.54 2.26-1.55 2.96-6.04 6.47-4.92 3.82 2.99 7.63 6.24 9.65 10.78 3.38 7.3 5.38 15.54 4.35 23.59-.36 9 .48 18.07-1.08 27-1.07 5.02 1.38 9.93.55 14.93-1.25.07-2.5.14-3.74.2-.61 1.6-1.15 3.3-.75 5.04.83 1.7 2.54 2.69 4.04 3.75.37 3.78-2.37 7.7-.08 11.22-1.81 6.28-.39 13.05-2.78 19.24-1.73 1.98-4.05 3.32-6.18 4.83-.15-2.55-.19-5.13.39-7.63l-1.04-1.56c-.46 2.01-.78 4.05-1.4 6.03-1.39.59-2.61 1.43-3.57 2.6-.94 1.28-2.21-.54-2.89-1.2-1.12-1.43-2.02-3.16-2.18-4.99 1.13-1.4 2.12-1.18 2.97.66.84-.75 1.69-1.5 2.55-2.23.05-1.11.11-2.21.18-3.31 1.7-.28 2.48-1.18 2.36-2.69-1.43.42-2.84.86-4.24 1.32-.19 1.07-.45 2.13-.79 3.17-.52-3.07-1.2-6.11-2.49-8.96-3.28 1.44-.54 5.19-.4 7.65-.14 3.89-4.43 5.2-7.14 7.04l.72 3.04c-.43.47-1.28 1.42-1.71 1.89 1.94 2.09 3.24 5.63 6.55 5.69.59.1 1.78.3 2.38.41 1.48 4.33-2.85 7.19-6.3 8.62-12.49 4.44-25.79 1.32-38.63 1.27 1.24-1.6 2.61-3.12 3.6-4.9-1.26-2.12-3.28-3.62-5.19-5.1-2.82 2.65-2.93 6.66-2.89 10.25-5.97.88-12.29 1.66-18.09-.43-5.83-1.62-9.97-6.34-14.46-10.08-6.27-6.55-11.69-14.34-13.97-23.24-3.2-11.92-2.86-24.35-2.19-36.56 1.49-9.56.76-19.29 2.2-28.85-2.23-3.87-3.61-8.49-2.56-12.93 2.13-12.06 11.84-20.89 21.48-27.49l.10794-.06c-.13743 1.35503-.13269 2.7021.31206 4.02999 6.72-.85 13.52-.67 20.28-.56 1.54.56 2.28 1.97 3.03 3.34-1.69.26-3.38.46-5.07.64.29 1.48.58 2.97.87 4.46 2.15-.72 4.37-.46 6.57-.06-.25-2.89-.87-5.74-2.04-8.4 2.81-.28 5.65-.35 8.47-.67.43-4.17 1.58-8.2 2.11-12.35-.67.04-1.99.12-2.65.16 1.08283-.46789 1.72782-1.21725 1.93497-2.2451m-13.87497 26.7951c-.47.5-1.4 1.52-1.87 2.03.66 1.35.89 3.09 2.36 3.88.05-1.11.14-3.31.19-4.42.72.09 2.18.27 2.91.36-1.2-.62-2.4-1.24-3.59-1.85m-4.49 6.6c.75 2.55 1.65 5.05 2.78 7.47 1.35.22 2.72.44 4.09.65-.68-2.86-2.66-5.18-3.18-8.08-1.24-.02-2.47-.03-3.69-.04m14.42 6.11c-1.49 1.98-2.15 4.46-3.3 6.65 1.31 2.83 1.03 5.99 1.01 9.02-.43 8.27-1.75 16.58-.63 24.84-3.1 1.67-3.89 5.32-6.29 7.66.2 1.52 1.5 2.9 1.14 4.46-.59.1-1.76.3-2.34.4 1.19 2 1.84 4.25 2.38 6.51-1.06.68-2.11 1.37-3.15 2.06.49.65 1.47 1.93 1.96 2.58 1.53-.18 3.08-.37 4.63-.56 1.04 3.49 1.42 7.11 1.78 10.71 2.94 2.55 6.59 4.07 10.4 4.73 1.52.12 2.12 1.7 3.05 2.69 2.17-3.48 7.99-3.52 8.27-8.19 2.52-10.14 1.67-20.68 1.74-31.01-1.69-9.23-.71-18.64-.97-27.96.18-3.18-.74-6.68 1.19-9.49-2.2-3.24-3.41-7.44-7.43-8.98-4.69.48-9.38 1.32-13.44 3.88m21.91 3.59c1.74.55 2.78 2.29 4.55 2.74-1.06-1.64-2.55-5.23-4.55-2.74m6.94 1.27c-.28.46-.84 1.38-1.12 1.83 1.51.66 3.24.79 4.69 1.7-.28.88-.85 2.64-1.13 3.53 3.22-.73 4.47-5.41 8.27-3.49.04-.49.14-1.45.19-1.94-1.33.29-2.65.58-3.96.88-1.01-.94-2-1.86-3.01-2.76-1.31.16-2.62.24-3.93.25m-42.99 19.58c-.13 2.29-.49 4.6-1.73 6.58-1.02 1.33-.43 3.69 1.35 3.94 3.07-1.21 3.55-4.86 5.68-7.05-2.38-.07-4.22-1.43-5.3-3.47m-4.77 40.48c-.18 1.36 2.2 2.5 3.29 1.66.26-1.51-2.2-2.23-3.29-1.66m-15.18 2.78c.25 3.17 3.12-1.52 0 0m-4.81 1.08c.53.59.53.59 0 0m89.6 5.75c-.01.78-.04 2.34-.06 3.13 1.43-.96 3.16-.97 4.78-1.39-.08-2.49-3.13-1.45-4.72-1.74z"/><path d="m268 257.8398c1.61-.71 2.57 1.94.72 2.27-1.63.7-2.47-1.95-.72-2.27z"/><path d="m425.11 257.9098c1.23.75 1.13 1.41-.29 1.96-1.23-.77-1.13-1.43.29-1.96z"/><path d="m518.91 258.5798c5.44-1.59 11.32-1.44 16.89-.59 1.76.44 3.37-.5 4.99-1.09.95.54 1.91 1.08 2.88 1.62 4.94-.97 10.01-.36 14.96.22-.59.51-1.78 1.51-2.38 2.01 1.03 1.55 2.13 3.05 3.27 4.53-1.85 2.19-4.87 2.21-7.41 3.01.49 1.75.96 3.55.17 5.3.16 1.43 1.04 2.65 1.43 4.03-.22 1.69-2.07 4.48.65 4.99-.02-.95-.05-2.85-.07-3.8 1 .72 1.91 1.58 2.71 2.56-1.4 2.53-2.25 5.39-4.17 7.6-.92-2.08.39-5.84-2.73-6.22.4 2.31.85 4.61 1.23 6.93-2.4.25-5.32 3.66-2.62 5.44 1.05-1.09 2.15-2.26 3.72-2.59-.03 3.21-1.9 5.9-3.15 8.73-1.15 2.43-2.3 4.95-4.48 6.64-.14-1.49-.28-2.97-.42-4.45-.95 1.13-1.46 2.5-1.7 3.94.55 1.33 1.23 2.72 1.08 4.23-1.78 1.31-3.46 2.75-3.33 5.2-2.14-.21-1.81-1.97-.86-3.29-.9-.4-2.41-.93-2.24.69-.49 3.94 2.18 7.41 5.3 9.4 4.42.72 6.9 5.26 6.51 9.49.45-1.7.01-5.21 2.59-5.01 3.3 1.39 1.31 5.55.84 8.08 1.04-1.69 2.55-2.95 4.33-3.81 4.2 5.01 4.12 11.98 4.71 18.15.5 1.84-1.74 3.12-1.26 4.95 1.04 5.83-1.15 12.63 2.94 17.61 1.46 2.04 4.93 1.51 5.73 4.14.37 1 .66 2.03.86 3.09-5.2 2.75-10.97 1.1-16.55 1.36.84 1.47 2.33 2.04 3.95 2.24 2.03 2.06 4.34 3.81 6.8 5.32 2.76-1.83 4.42 1.06 5.13 3.41-.3 2.29-1.57 4.32-2.27 6.49-3.39-.09-6.78-.09-10.15-.24 1.31-.44 2.64-.88 3.98-1.31-.44-1.37-.88-2.74-1.28-4.09.6-.26 1.8-.78 2.41-1.04-.68-1.07-1.35-2.13-2.01-3.18-2.17 3-3.51 6.48-5.09 9.8-.14.01-.42.03-.56.05.38-2.75-.17-5.47-.63-8.15-1.22.5-2.26 1.78-3.66 1.54-.61-3.44-.2-6.94.39-10.35-2.84-4.7-2.22-10.32-2.59-15.56-2.38-1.35-5.3-.95-7.06 1.2.04 1.75 1.97 2.71 2.87 4.08-1.33 1.29-2.68 2.56-4.06 3.79.71 2.25 1.52 4.53 3.16 6.3-.01 2.68.06 5.46-.91 8.01-1.69.63-2.8-1.44-4.09-2.18-1.61-.33-3.22-.65-4.81-.95.11.69.32 2.06.42 2.74-1.38-.05-2.75-.11-4.11-.17.99-.75 2-1.49 3.03-2.21-1.77-1.14-2.29-3.18-3.2-4.93-1.39-.93-3.01-1.43-4.52-2.05.19 2.06.39 4.13.46 6.2.66 1.25 1.33 2.49 2.02 3.74l-1.85-.09c-.12 1.38-.24 2.77-.33 4.16 2.2 2.84 4.97 5.27 6.66 8.48-.88-.16-2.65-.48-3.53-.65-1.21.73-2.39 1.47-3.57 2.21-2.23-1.28-3.71-3.45-5.66-5.05-.09-.93-.26-2.79-.34-3.72 1.33-1.02 2.8-1.88 4.23-2.8-2.32-1.98-5.79-4.09-4.46-7.68-.44-1.86-.83-3.73-1.2-5.6.34-2.29.62-4.59.92-6.88l2.16-.56c-2.4-5.18-4.22-10.7-4.23-16.46.08-3.07-.54-6.1-2.11-8.76-2.24-.67-4.44-1.89-6.83-1.52-4.23.31-8.52.2-12.61 1.43.47 10-1.49 20-.27 29.99.37 3.41 2.15 6.45 2.75 9.81.16 3.57-.75 7.1-.68 10.69l.0415.42651c-6.20996.77657-12.33425 2.35572-17.35153 6.30349-5.77.36-11.57.2-17.34.04-.07-.9-.2-2.7-.26-3.6.45-.44 1.37-1.33 1.83-1.77-6.77 0-13.54.02-20.31-.06-.15-7.66.65-15.32.06-22.96-.01-1.76 1.63-2.71 2.68-3.88.88 1.14 1.75 2.27 2.64 3.42.46.02 1.37.05 1.82.07-.49.3-1.48.89-1.97 1.18.5.56 1.52 1.67 2.02 2.22-.42.8-.83 1.61-1.23 2.43 1.65.82 3.31 1.67 4.98 2.52-.49-1.03-.97-2.05-1.44-3.07.86-1.59 1.72-3.18 2.59-4.77.46.44 1.4 1.32 1.87 1.77 1.11-.99 2.27-2.55 3.99-1.73 1.4 1.13 2.73 2.38 4.34 3.27-.74-.94-1.48-1.86-2.23-2.76.07-.55.23-1.65.3-2.2-1.54-1.14-3.04-2.29-4.55-3.45.07-1.47.14-2.94.22-4.4-1.06.95-2.1 1.92-3.12 2.91-1.99-.41-3.96-.82-5.91-1.33.11-4.62-.38-9.34.84-13.86-.67-1.75-1.39-3.48-1.9-5.27-2.47-13.14-.55-26.59-1.93-39.81-.48.38-1.44 1.13-1.92 1.51-.14-3.73-.37-7.46-.05-11.19.58-.2 1.76-.59 2.35-.78.28-2.44.18-4.9.24-7.34-2.53-.2-5.06-.38-7.58-.51-.48-4.04-.73-8.09-1.22-12.12-.79.78-1.58 1.57-2.36 2.37l-.77-1.26c-1.1.62-2.2 1.25-3.28 1.88-.55-2.39-1.77-1.46-2.96-.2l-1.6-2.04c-.88 5.53.12 11.09 1.2 16.52.78-.55 1.58-1.09 2.39-1.64.44.22 1.34.65 1.78.86 2.99-1.64 5.7 1.09 8.39 2.09 1.75 2.81 3.8 5.83 2.33 9.24-1.03.42-2.05.86-3.06 1.3-3.46-.71-6.95-1.71-10.5-1.42-2.32 2.5-1.55 6.39-2.29 9.52-10.06.47-20.83 2.8-30.3-1.83-5.4-3.23-5.66-10.15-5.21-15.73-4.09-3.11-9.55-2.64-14.37-2.28-2.58.14-4.79 1.49-6.67 3.15-1.1 5.73-.83 11.59-.7 17.39-1.59 4.61-.28 9.44-.04 14.15 1.15 13.39-1.61 26.74-.64 40.12 2.01 3.33 5.52 5.37 8.59 7.62.82-.31 2.45-.91 3.26-1.22 2.21 1.31 4.99 1.37 6.74-.73 5.29-5.86 4.68-14.39 6.77-21.58 5.83-.37 11.67 0 17.52-.08 5.41.17 10.88-.77 16.22.53.67-.17 2.02-.51 2.69-.69.07 2.28.81 4.77-.54 6.83-1.41-.62-2.85-1.09-4.33-1.4-.58 1.58-1.16 3.15-1.73 4.73.77.69 1.56 1.38 2.35 2.07.85-1.07 1.58-2.67 3.23-1.87-.75 2.62-1 5.33.11 7.91-.84 1.97-1.66 3.96-2.4 5.98l-1.72-2.24c-.7 1.57-.9 3.27-1.03 4.97.85.9 1.72 1.82 2.59 2.74-2.23.57-4.23 1.66-5.85 3.29.54.55 1.6 1.64 2.14 2.19-.35.73-1.04 2.18-1.38 2.9.39 1.29.79 2.58 1.21 3.88-.48.58-1.43 1.75-1.91 2.34-5.78-.29-11.58-.22-17.36-.06-.21.43-.64 1.3-.85 1.73-.04-.57-.12-1.69-.16-2.26-2.87.39-2.18 3.27-2.1 5.32-.69 2.47-1.3 4.97-1.65 7.52-3.37.79-6.77 1.55-10.22 1.87.63-4.79 2.5-9.34 2.75-14.19-6.61-.04-13.25-.39-19.82.37-5.02-.5-10.05-.55-15.09-.5-2.2 3.06-2.96 6.79-4.21 10.27-4.41-1.77-8.42-4.34-12.04-7.4l.16-2.84h-2.09l-.02-1.26c2.73 1.98 4.16-1.56 4.3-3.74-1.84-2.7-3.91 1.22-5.33 2.4-4.09-1.04-11.01-3.79-8.91-9.16 1.15.63 2.31 1.27 3.48 1.91 1.45-1.94 2.78-4.08 4.92-5.35-.13-.74-.39-2.21-.52-2.95-1.14-.42-2.31-1.08-3.53-.7-1.75 1.24.21 2.63.84 3.74-.67 1.05-1.24 2.44-2.75 2.02-.23-2.27-.57-4.52-.97-6.75-.3-.02-.9-.04-1.2-.06-.4 2.43-.91 4.84-1.57 7.21-1.98-.96-3.5-2.55-4.81-4.26 1.29-3.68 1.14-7.51-.07-11.17-1.19-12.26-1.55-24.59-1.32-36.9.87-9.25.14-18.57 1.26-27.81.89-6.1-1.35-13.21 3-18.37 6.46-8.4 12.68-17.54 22.01-23.02 4.54-2.85 10.18-2.66 15.24-1.57 4.89-1.46 10.06-1.62 15.09-.81 1.78-.15 1.97 1.42 2.13 2.79 1.61-1.05 3.29-2.04 5.22-2.39-.49.97-.98 1.94-1.48 2.9 1.78 1.23 3.55 2.48 5.38 3.64-.32-1.01-.64-2.02-.95-3.01 1.8-.11 1.56-1.78 1.69-3.12.91-.27 1.83-.55 2.76-.83 3.64 3.56.16 9.09.41 13.5 1.31-1.59 3-1.69 4.74-.78-.02 1.46-.03 2.92-.02 4.39-.69-.05-2.09-.14-2.79-.19-.06.63-.18 1.91-.24 2.55 1.87 1.49 3.77 2.95 5.74 4.34 1.23-1.12 2.3-2.4 2.88-3.99-.72.14-2.17.44-2.89.59 1.23-3.83 6.11-3.71 8.28-6.68-2.16-3.1-4.27-6.31-6.95-8.99-1.87-.65-2.82-2.29-3.31-4.1 1.77-.61 2.66.08 2.66 2.05.22-.45.65-1.35.86-1.81 4.96-.8 10.58-2.63 14.87 1.01-.26 1.1-.5 2.21-.74 3.32 2.2 1.48.56 3.78-1 4.97.2.3.61.89.82 1.19.79-.69 1.57-1.38 2.38-2.06.1-.66.31-1.97.41-2.63 1.76-2.3 2.8 1.44 3.67 2.36-.6.05-1.79.15-2.39.2.27.82.56 1.63.86 2.45-.69.69-1.37 1.38-2.03 2.09 1.78-.47 2.55-1.84 2.48-3.65 1.03-.73 2.07-1.45 3.13-2.15 2.12.83 4.35 1.04 6.38-.14 1.78-1.1 2.91.58 3.78 1.87.09-.6.25-1.82.34-2.42 1.71 1.34.18 4.04 1.63 5.63.16-4.08-.31-8.42 2-12.03 1.42.91 2.96 1.16 4.61.76-1.06-1.72-2.18-3.4-3.34-5.04.58.12 1.74.37 2.31.49 2.08 2.8 5.66.75 8.47.73 7-1.11 14.09-.33 21.11-1.15 6.14-.17 12.28.01 18.43-.07.29 10.63 1.96 21.34.45 31.97-3.56.51-.98 4.24.72 5.38-.34.47-1.03 1.41-1.37 1.88 2.19 4.44 1.69 9.45 2.3 14.22.46.47 1.37 1.42 1.83 1.9.63-.01 1.89-.01 2.52-.01 2.23-2.56 4.42-5.24 5.87-8.34 1.09-1.82.02-3.94.5-5.85.99-3.47 2.29-6.83 3.69-10.14 1.99-10.92 7.69-20.6 11.27-30.99m-66.05 22.64c1.32.72 2.72-1.57 1.78-2.63-1.42-.98-2.48 1.59-1.78 2.63m-8.24-2.21c.24 1.62.56 3.24.9 4.85 2.03-1.78 3.68.04 5.31 1.3.17-2.11-.85-3.01-3.07-2.7.64-.93 1.27-1.87 1.9-2.81-.89.56-1.76 1.13-2.62 1.71-.6-.59-1.82-1.76-2.42-2.35m11.15 4.41c-.68 1.57.86 2.56 1.46 3.78-.71-.19-2.12-.58-2.83-.77-.68.18-2.04.53-2.73.71.96.79 1.92 1.56 2.93 2.34-.7.52-2.1 1.56-2.81 2.08 1.69-.01 3.42.22 5.01.87 0 2.54-.29 5.08-1.17 7.48 2.43-.74 4.19-2.63 3.66-5.32 1.57-2.14 3.78-1.95 5.99-.94-1.32-1.57-2.59-3.33-4.58-4.07-2.88-.86-2.03-5.2-4.93-6.16m58.79 12.17c-.46 1.59.14 2.12 1.79 1.6.44-1.59-.16-2.13-1.79-1.6m-28.09 32.9c.99 2.33 1.92 4.7 1.94 7.28 1.34-1.82 1.35-4.13 1.31-6.3-1.1-.33-2.18-.66-3.25-.98m8.37 6.3c-1.2 1.05.27 3.7 1.74 2.58 1.18-1.07-.29-3.72-1.74-2.58m-130.92 4.88c-1.07 1.39 1.39 2.48 2.25 1.32 1.33-1.41-1.41-2.63-2.25-1.32m-22.72 2.44c-.01.94-.01 1.89.01 2.84 1.33.64 2.93 2.08 4.26.54-.88-1.1-1.65-2.3-2.3-3.53-.49.03-1.47.11-1.97.15m14.92-.59c-1.11 1.7-2.97 1.43-4.7 1.23 1.98.78 4.55 2 3.7 4.64.82-1.58 1.79-3.08 2.79-4.56-.45-.33-1.34-.98-1.79-1.31m118.67 6.29c-.65 1.29.3 3.59 1.78 3.87 1.8-.95-.19-4.12-1.78-3.87m-122.64 4.14c.01.68.02 2.03.03 2.7 1.72-1.2 4.04-2.42 3.52-4.94-1.2.73-2.38 1.48-3.55 2.24m205.78.84c.53.58.53.58 0 0m-196.53 21.79c-1.06-.21-2.11-.42-3.15-.62-.17.69-.52 2.08-.69 2.77 3.45 1.48 6.24-2.33 7.27-5.19-1.93-.1-2.95 1.4-3.43 3.04m96.39 4.09c.18 3.25 3.02-1.54 0 0m62.23 6.96c.42 1.19 1.58 2.18 1.99 3.53 2.42-.37-.05-4.95-1.99-3.53z"/><path d="m261.15 258.8598c1.02-.8 4.02-1.11 4.27.43-1.04.58-4.46 1.6-4.27-.43z"/><path d="m275.95 258.8298c.53.6.53.6 0 0z"/><path d="m85.92 261.0398.30078.0564c-.55904 4.32057-.66314 8.69012-.42078 13.04355h3.86c-1.33 1.42-2.55 2.93-3.73 4.47.3.49.92 1.47 1.23 1.96 1.22-2.09 2.23-4.29 3.28-6.46.36-.02 1.07-.05 1.43-.06.27 2.09.55 4.19.81 6.28-2.03 1.66-2.96 4.28-5.6 5.27-1.86-2.6-5.67-1.02-7.31 1.07 1.03 1.06 3.19 1.84 2.09 3.75-.35 3.36-3.79.48-5.37-.17-3.22-.04-5.69 1.75-6.3 4.93-3.02-1.76-6.55.65-9.5-.79-1.37-6.64.34-13.76-.86-20.52 3.62-.31 7.26-.12 10.89-.42.46-.96.71-1.99.73-3.09 1.82-2.95 2.74-6.29 3.91-9.52 3.52-.17 7.05-.15 10.56.2z"/><path d="m275.27 260.3898c1.34 1.01 2.61 2.1 3.82 3.28.41-.2 1.24-.62 1.66-.83 2.3.32 5.32-.37 6.82 1.92-.31 1.39-1.97 1.59-3.01 2.12-.61 1.4-1.69 2.49-2.72 3.59-1.46-1.3-.32-3.11-.14-4.62-.46-.32-1.39-.95-1.86-1.27-.24.67-.71 2.01-.95 2.68-1.7-1.08-3.51-1.96-5.58-1.58-.1-.76-.31-2.28-.42-3.04.6-.56 1.79-1.68 2.38-2.25z"/><path d="m422.19 262.8598c1.3-.56 2.69-.86 4.1-1.11.25 1.53.52 3.05.8 4.58-.57.05-1.73.15-2.31.19-.44-.31-1.31-.93-1.74-1.24-.21-.61-.64-1.81-.85-2.42z"/><path d="m112.12 264.6298c1.83.63 3.49-.2 5.11-.98.57.23 1.71.7 2.28.94.2.73.59 2.2.79 2.93-.5.74-.99 1.49-1.48 2.24l2.4.6c-2.16 2.29-3.82 4.96-5.18 7.78-2.79-1.55-5.12.8-7.35 2.14 1.28.48 2.57.96 3.86 1.44.71-.72 1.43-1.44 2.15-2.16 2.01.03 4.02.07 6.04.13-.49 3.3-1.1 6.61-.79 9.97.96-1.24 1.92-2.47 2.88-3.71-2.09-.5-2.27-2.89-.39-3.85.15.88.44 2.64.59 3.52 1.16-2.17.56-4.58.57-6.89 1.17-1.65 2.55-3.15 3.82-4.73 6.32 1.53 12.7 3.18 19.25 3.05 3-.56 5.96-1.4 9.04-1.57 4.64-.45 8.51-3.18 12.14-5.86 5.66 5 12.55 9.02 16.11 15.96 2.39 6.04 1.64 12.64 1.77 18.98.13 3.72-.74 7.46-2.26 10.83-1.79 1.72-4.22 2.91-5.13 5.38 1.9.48 3.64-.3 5.35-1.03-1.92 3.02-5.26 4.91-6.63 8.3-4 4.65-10.67 5.11-15.35 8.84.81 1.26.8 3.71 2.8 3.6 6.75.68 14.25 3.16 17.73 9.45 4.62 8.81 2.1 19.13 4.29 28.49 2 .09 3.97.56 5.81 1.38-.02 4.17-.7 8.28-1.2 12.4-.34.35-1.02 1.04-1.36 1.38.5 1.29.44 2.53-.18 3.72-1.2 2.33-1.37 5.01-2 7.53 1.91-.26 2.9-1.91 3.97-3.29.19 2.84.38 5.71-.05 8.56-13.11.44-26.77 3.58-39.38-1.59-.57-2.22-1.61-4.26-2.81-6.19-1.87 1.24-3.85 3.48-5.73.86l-.82.29c.6 2.04 3.48 3 4.87 4.77-2.75 1.45-5.86 1.87-8.91 1.28-.01-3.28-.93-6.7-.08-9.9.43-.16 1.3-.47 1.73-.62.12-2.97.8-5.85 1.52-8.72-.66-.14-1.96-.43-2.62-.57 1.09-1.15 2.66-1.5 4.18-1.63 2.64 1.3 1.02 5.78 4.08 6.81 1.94.73 1.63 3.19 2.34 4.82.65-.7 1.3-1.4 1.97-2.09-1.27-3.9-2.8-7.77-5.28-11.08-1.89-.59-3.59-1.72-4.74-3.33-2.2-2.24 1.13-1.88 2.2-.81-.9-1.24-2.08-2.26-3.6-2.59-.91-1.25-1.98-2.55-1.73-4.21.05-5.5-.24-11.01.3-16.49-.25-1.29-1.45-1.9-2.34-2.66.52-1.63 1.05-3.26 1.6-4.87 1.05 1.12 3.78 2.23 1.32 3.65 2.56.3 4.07 5.54 6.36 2.01.95.61 1.92 1.22 2.89 1.82.2-3.52-.85-7-1.12-10.52.74-1.11 1.72-2.03 2.63-3-.51-.56-1.53-1.69-2.04-2.26-2.59 3.03-3.72 7.01-6.14 10.19-1.09-1.4-2.17-2.79-3.26-4.16.23-.95.46-1.9.69-2.84-4.15-.09-3.18 5.3-4.09 7.94-2.16-1.18-2.93-3.22-2.99-5.55-2.82-1.27-3.3 3.11-5.66 3.94-1.02-.79-2.05-1.55-3.1-2.27-2.11.75-5.59 1.23-5.78-1.91-.75.73-1.51 1.44-2.24 2.18-2.83-1.52-5.02-3.9-7.5-5.88.76-1.52 2.59-1.26 4-1.56.42-3.56-.56-7-2.58-9.94 1.64.51 3.3.5 4.97-.04-2.15-1.81-4.95-2.71-6.81-4.89.15-2.52-.92-4.77-2.32-6.77-1.5.98-3.34 4.36-5.11 2.11-1.57-1.35.4-3.75-.61-5.46-2.02-.23-3.38 1.82-5.01 2.72-.72-.14-2.15-.42-2.87-.56-.98 1.03-1.98 2.06-2.96 3.08.64 1.24 1.25 2.55 2.31 3.51l.67-1.89c.48.09 1.44.26 1.92.35-.36 1.66-.69 3.33-.99 5.01-3.16.66-6.53.56-9.53-.66-1.86-.72-.88-3.23-.62-4.61-.95.63-1.89 1.26-2.83 1.89-1.51-.17-5.28-2.54-5.14.34 2.54 1.48 5.75 1.76 7.69 4.19 2.01 2.84 5.05.23 7.49-.48.63 1.09 1.45 2.12 1.83 3.35-.8 4.01-2.4 7.86-2.14 12.02-1.21 3.17-2.72 6.33-4.63 9.14-.92 1.95-2.74.82-4.15.2 1.34-1.11 2.87-2.03 3.97-3.39-.78-.81-1.64-1.52-2.57-2.14.08-.75.26-2.24.34-2.99-3.1-.01-2.7 4.42-5.01 5.55-1.54.66-2.34-1.48-3.83-1.39-1.7.43-3.36 1-5.05 1.47.27-.5.8-1.5 1.06-2-3.08-1.9-2.14-5.92.48-7.79-3.27-4.96-1.47-10.98-2.15-16.52.68.08 2.03.22 2.71.3-1.02-.94-2-1.85-3.01-2.76 3.28-.46 1.13-3.16.58-5.05 1.6-2.39-.21-5.08-.04-7.64.17-2.54.49-5.07.74-7.61 3.8-.67 5.83-4.54 9.62-5.44.47.29 1.41.86 1.88 1.14.39-1.41.81-2.81 1.23-4.21 2.37.05 4.73.25 7.1.57.32-3.93 5.25-1.75 7.85-2.08.87-1.59 1.8-3.15 2.85-4.63-2.62-.92-5.37-1.35-8.11-1.67 1.43-3.76 3.86-7.08 5.19-10.88-.47-1-1.06-1.93-1.63-2.86 5.38-.4 10.79-.44 16.18.08.36-3.13.33-6.3.92-9.4m40.03 18.2c.3 1.34 1.04 1.6 2.22.78-.31-1.35-1.05-1.61-2.22-.78m-37.17 12.26c-.31.38-.92 1.13-1.23 1.51-.51 8.99.72 17.96.02 26.93.26.46.77 1.39 1.03 1.85-1.88.36-1.6 2.09-1.69 3.52 4.09-.36 4.54 4.57 7.68 6.01.57-3.21-2.82-4.42-4.81-6.05.72-2.14.41-5.26 2.81-6.35 4.39-2.57 9.7 1.24 13.92-1.91 4.59-3.46 3.76-9.89 4.88-14.93 1-3.26-1.98-5.65-2.19-8.77-6.28-3.16-13.7-3.87-20.42-1.81m-32.83 42.93c-1.42.43-2.03 3.69.2 2.52 1.86-.24 1.95-3.5-.2-2.52m-8.98 5.53c1.4.75 2.73-1.53 2.41-2.74-1.28-.4-2.97 1.48-2.41 2.74m41.8 3.54c3.74 1.13 7.52-1.72 11.01.6-.68-1.58-.97-3.97-3.07-4.23-1.54.58-2.17 2.26-3.15 3.45-1.06-.83-1.66-2-2.2-3.18.29-.59.86-1.76 1.14-2.35-2.44.17-3.92 3.67-3.73 5.71m40.79 8.79c-1.56-.27-4.15-3.29-5.01-.76 4.21 1.52 8.61.98 12.99.98 1.2.73 2.44 1.8 3.99 1.43 2.82-.22 6.78-.24 8.02-3.36-1.86-.25-4.18-.23-4.88-2.36-4.92 1.97-10.69.65-15.11 4.07m22.09-3.92c-.83.97-.56 3.1.91 3.27 2.26-.08.62-3.66-.91-3.27m-28.56 24.75c-.83.71-1.66 1.44-2.47 2.17 2.06 2.05 3.2 4.75 4.45 7.34.23-.45.67-1.33.9-1.78-.73-2.65-1.39-5.39-2.88-7.73m35.69 12.1c-1.32.7-1.35 1.38-.07 2.03 1.33-.72 1.36-1.4.07-2.03z"/><path d="m560.21 268.4098c-1.03-.89.01-3.35 1.39-2.63.99.9.12 3.72-1.39 2.63z"/><path d="m273.83 266.7698c.58.59.58.59 0 0z"/><path d="m291.19 266.8798c1.54-1.29 2.77 1.64 1.33 2.49-1.65 1.29-2.74-1.6-1.33-2.49z"/><path d="m293.25 270.4098c.13-2.1 1.94-1.95 3.57-1.94-.11.65-.34 1.95-.45 2.6-1.05-.22-2.09-.44-3.12-.66z"/><path d="m562.18 271.6998c.79 6.12 1.88 12.49 1.02 18.74-2.37.12-4.74.15-7.1.14.65-6.67 3.56-12.77 6.08-18.88z"/><path d="m85.07 291.0598c.42-1.78.66-3.76 2.36-4.8 1.33 2.04 3.02 3.96 3.52 6.42-2.11.08-4.07-.6-5.88-1.62z"/><path d="m68.89 296.6598c1.53-1.24 3 1.59 1.6 2.56-1.48.95-2.86-1.57-1.6-2.56z"/><path d="m95.43 332.7298c1.86.26 1.96 2.28 2.15 3.71.26 2.37.54 4.75.92 7.11-1.57.54-3.07 1.27-4.02 2.7-.88-1.52-2.33-3.36-1.34-5.18 1.27-2.62 2.35-5.36 2.29-8.34z"/><path d="m106.36 336.6898c.96-.27 1.93-.5 2.92-.68.11.57.32 1.71.43 2.28-1.31-.2-3.04.15-3.35-1.6z"/><path d="m102.19 338.1198c.55-.05 1.64-.15 2.19-.2.28 1.67.42 3.51 2.03 4.5-.38.61-1.14 1.84-1.53 2.45 1.24 2.73-1.6 3.52-3.77 3.33 1.08-3.26 1.06-6.69 1.08-10.08z"/><path d="m107.92 339.9398c1.59-.48 2.17.1 1.73 1.73-1.61.47-2.19-.11-1.73-1.73z"/><path d="m104.5 351.8798c-.96-3.77 3.76-5.47 6.4-3.38 3.55 1.33 1.72 5.43 2.08 8.22.64 4.3-.38 8.57-.29 12.88.05 8.67-.01 17.35.04 26.03.11 3.97-1.05 7.96-.09 11.91-.23.49-.68 1.48-.9 1.97-4.98-.89-10.08-.1-15.06-1.03-.53-2.26-.85-4.57-1.08-6.87-.53-.02-1.59-.08-2.12-.1.11-1.17.22-2.34.35-3.49 1.71-1.27 1.94-4.52 4.56-4.19.86-3.23 4.93-4.39 4.82-8.02-1.48 1.19-2.69 2.84-4.67 3.21.39-1.37-.1-3.42 1.41-4.24 2.61-1.48 3.96-4.48 4.82-7.22-1 .91-1.97 1.86-2.91 2.84 1.15-2.91-2.99-5.08-1.27-7.57.62-.13 1.85-.39 2.47-.53.07-1.55.13-3.11.18-4.66-.55-.41-1.66-1.25-2.21-1.66.32-.85.95-2.53 1.26-3.37 1.04.7 2.08 1.4 3.13 2.1.81-3.7 2.13-9.63-2.34-11.42-.27 1.35-.72 2.65-1.98 3.37-.14-2.42.17-4.96 2.06-6.67.34.47 1.01 1.42 1.34 1.89z"/><path d="m94.95 350.7198c1.6-1.22 2.71 1.71 1.53 2.7-1.54 1.1-2.68-1.74-1.53-2.7z"/><path d="m91.83 355.3898c-2.67-1.31 1.08-4.89 2.06-1.96-.06 1.37-.75 2.02-2.06 1.96z"/><path d="m242.76 352.7898c1.29.3 1.55 1.09.77 2.35-1.29-.33-1.55-1.11-.77-2.35z"/><path d="m87.95 353.7498c1.54-1.2 2.77 1.66 1.63 2.68-1.51 1.04-2.81-1.68-1.63-2.68z"/><path d="m73.17 357.5498c1.7-1.02 3.39-2.06 5.09-3.09.61 1.57 1.23 3.16 1.82 4.75.51.34 1.52 1.01 2.02 1.35-.4.52-1.19 1.55-1.59 2.07 1.05 1.81 2.16 3.65 3.78 5.03 1.04-2.36-.78-4.37-2.07-6.14.3-.34.9-1.02 1.21-1.36-.39-.33-1.16-.99-1.55-1.31 1.59-2.79 5.26-1.2 7.19.35 2.75 2.57.51 6.46 2.29 9.48-.03 3.79 2.37 8.6-.93 11.57-1.69 2.07-1.8 4.91-2.86 7.31-2.13.58-3.29 2.49-4.56 4.11.8 1.13 1.57 2.28 2.36 3.44-.24-2.78 2.02-2.98 3.88-1.77-.59.92-1.07 1.88-1.47 2.89.41-.21 1.21-.63 1.61-.85.07-.77.2-2.32.26-3.1 1.83.7 2.2 2.82 2.79 4.45.87 4.41.94 8.94.6 13.41-6.1-3.64-13.2-.58-19.79-1.82-.38-1.65-.05-3.91-1.81-4.84-.38 1.56-.67 3.15-1.14 4.69-3.09.87-6.33.87-9.49 1.16-1.66-8.09.34-16.29.42-24.43 1.29-1.33 2.57-2.69 3.59-4.25-1.28.93-2.56 1.86-3.94 2.63.17-2.24-2.55-6.39.82-7.16 3.3-.65 5.6 2.22 7.93 4.03 2.52-1.51.12-3.45-1.55-4.14.27-.91.8-2.73 1.06-3.63 1.02.44 1.75 1.2 2.2 2.27 1.67-.69 1.23-2.38 1.09-3.83-1.22-.08-2.43-.16-3.64-.23-.85-4.43-.18-8.98-.45-13.47-.04-1.77 2.25-1.08 3.36-1.33.37.44 1.11 1.32 1.47 1.76m3.61 2.09c-.58 1.27 1.53 2.31 2.5 1.66.51-1.23-1.54-2.39-2.5-1.66m-.09 13.99c-1.47 3.02 3.3.15 0 0m9.05 22.89v4.32c-.45.31-1.34.92-1.78 1.23l1.04 1.24c1.46-1.12 2.88-2.28 4.25-3.5-1.25-1.02-2.42-2.11-3.51-3.29z"/><path d="m241.93 357.8698c1.61-.65 2.1-.13 1.49 1.56-1.61.66-2.11.14-1.49-1.56z"/><path d="m92.7 362.4998c.99-.39 1.98-.78 2.98-1.16 1.06 2.87 2.16 5.76 3.99 8.25-.45 1.32-.73 2.72-.21 4.08-1.92.43-3.86.28-5.75-.19.13-3.69-.1-7.39-1.01-10.98z"/><path d="m449.83 369.7298c1.52-1.35 3.41.47 2.07 2.03-.86 2.23-3.53-.81-2.07-2.03z"/><path d="m94.5 378.2498c.27-1.3.6-2.64 2.06-3.06.82 1.38.38 2.8-.1 4.18-.49-.28-1.47-.84-1.96-1.12z"/><path d="m544.73 375.5098c.48.26 1.46.79 1.95 1.05-.4 1.29-.26 2.45.42 3.48-.86 2.97-.49 6.06.08 9.05-.41.87-.81 1.74-1.2 2.61-.83-4.01-.96-8.11-.01-12.11-1.29-1-1.34-2.61-1.24-4.08z"/><path d="m89.84 387.0098c1.83-1.04 2.26-3.22 3.45-4.81.37 2.5.45 5.04.44 7.57-1.98.2-3.03-1.26-3.89-2.76z"/><path d="m139.26 382.6798c1.6-1.12 2.76 2.3 2.13 3.47-1.7.39-3-2.08-2.13-3.47z"/><path d="m290.01 389.4398c1.32.17 3.31.32 3.28 2.12.32 1.1-1.25 1.23-1.82 1.85-.5-1.33-.99-2.65-1.46-3.97z"/><path d="m535.23 389.6898c1.44.72 2.89 1.43 4.36 2.11 1.11 3.94 1.09 8.06 1.63 12.1l-.07.62c-.87.12-2.63.37-3.5.49-2.7-4.38-7.41-6.99-9.74-11.62 2.5-1.1 4.99-2.25 7.32-3.7z"/><path d="m301.96 392.8098c.95 1.02 1.84 2.12 2.58 3.32-2.32 1.51-4.67-1.54-2.58-3.32z"/></g><g fill="#ff0"><path d="m246.66 175.1798c.38-1.54 2.25 0 3.08-1.11.33.43.99 1.29 1.32 1.72.34-.31 1.02-.94 1.36-1.26 5.3.04 10.6.1 15.91 0-1.3 5.11-2.07 10.35-3.78 15.35-.21 7.43-1.88 14.7-3.55 21.91l-.21.97c-.71 1.12-.94 2.39-.7 3.71.08 2.92-.51 5.8-1.08 8.66-.46.59-1.37 1.77-1.83 2.36.33.75.98 2.25 1.31 3-.17 1.09-.38 2.18-.63 3.26-1.71 3.29-1.39 7.08-2.48 10.52-.64.27-1.93.82-2.58 1.09.41 1.36.84 2.73 1.27 4.1-.1 1.68-.17 3.37-.24 5.07l-.06 1.29c-.46.23-1.37.69-1.82.92.34 1.95-.3 3.28-1.92 3.98.66-.04 1.98-.12 2.65-.16-.53 4.15-1.68 8.18-2.11 12.35-2.82.32-5.66.39-8.47.67-1.13.05-2.25.05-3.36.02-6.76-.11-13.56-.29-20.28.56-1.4-4.18 1.56-8.55-.41-12.76-.29-1.55-.95-3.1-.71-4.69.89-4.36-.56-8.7-.22-13.08.43-4.23-.31-8.44-.29-12.66l.88-.87c-.32-.37-.94-1.11-1.25-1.48.19-4.78-.47-9.54-.07-14.31-1.33 3.23-1.57 6.74-2.28 10.13-2.19 12.69-4.75 25.32-6.93 38.01-3.6-.63-5.08-4.26-7.31-6.67-.46.08-1.39.24-1.85.32.28-1.42.22-2.85.09-4.27-1.49-1.38-5.43-2.21-3.32-4.84-.5-.23-1.49-.7-1.98-.94.5-.44 1.5-1.33 2.01-1.77-.46-.25-1.37-.75-1.83-1 1.04-1.82.52-3.18-1.57-4.09.01.84.01 2.5.01 3.33-.46-.64-1.38-1.92-1.84-2.56.67-.52 1.34-1.04 2.03-1.55-.34-.42-1.04-1.26-1.38-1.69 1.49-2.14.82-4.75 1.35-7.15 1.58-9.09 3.48-18.1 4.82-27.22.01-.09.04-.26.06-.35.45-3.24.91-6.53 2.37-9.5-.36-6.04 1.82-11.85 2.38-17.83 11.64-.13 23.31-.24 34.96.06.12 11.68.99 23.36.88 35.04.39 4.65.6 9.32 1.1 13.97.94-4.83.39-10.34 3.05-14.62-.14-.38-.42-1.16-.57-1.54 1.37-7.18 2.88-14.38 4.21-21.53-.5.03-1.5.09-2 .11 1.79.16 2.04-1.58 2.6-2.88-.16-2.75.35-5.5 1.21-8.1m3.19 75.44c-.59 1.56-.04 2.07 1.66 1.54.59-1.58.04-2.09-1.66-1.54z"/><path d="m19.77 174.6998c12.2-.03 24.4-.55 36.6-.12 3.52.08 7.05.11 10.58-.02l1.17.9c-1.03 2.47-1.06 5.31-2.7 7.52.17.25.52.76.7 1.01-.85 2.38-1.26 4.89-1.81 7.35-3.03 2.48-6.82 1.24-10.18.35-1.96 2.06-3.91-.57-5.74-1.4-.08.66-.25 1.99-.33 2.66-2.53-.17-5.06-.36-7.56-.72-.46 2.87-.74 5.86-2.4 8.35.23.41.7 1.24.94 1.65-.44 2.78-.9 5.56-1.4 8.33 7.74-.31 15.49.57 23.2-.03-.24 1.75-.49 3.5-.8 5.24-.01.09-.05.26-.06.35-.23 2.04-.94 4.03-2.86 5.03 2.03 1.13.99 3.45 1.14 5.27-1.89-1.03-2.93.43-3.9 1.82-6.67.15-13.34.07-20.01.04-1.09 6.17-2.27 12.31-3.34 18.48-.01.09-.04.26-.06.35-1.48 9.02-3.19 18.01-4.68 27.03-7.19-.12-14.39-.09-21.57-.06-1.62.14-3.17-.34-4.7-.74 2.04-6.41 1.83-13.28 3.69-19.72.93-1.3 2.96-3.21.83-4.53 1.8-13.61 4.72-27.04 7.21-40.53 1.27-9.17 2.87-18.3 4.61-27.4.53-.08 1.59-.26 2.11-.34.36 2.84-1.96 4.71-2.45 7.35 1.36.22 2.72.23 4.09.01.18 1.6 1.05 3.27.13 4.84.34.56 1.04 1.67 1.39 2.22 3.74-1.44 1.13-4.94.05-7.34 1.04-1.75 2.06-3.51 3.1-5.26 2.96.69 5.12-2.19 7.11-3.91.47.77.94 1.54 1.42 2.31 1.24-.96 2.36-2.05 3.2-3.37-.69.37-2.08 1.11-2.77 1.48-3.81-3.51-10.27-.55-13.95-4.45m40.8 3.65c.44 1.64 2.4.22 1.88-.97-.07-.23-.21-.67-.27-.89-1.01-1.81-2.38.81-1.61 1.86m-36.09 28.27-1.9-1.05c.29.76.88 2.29 1.17 3.05l1.24.04c.27 1.63.78 1.74 1.55.33-.01-.83-.04-2.5-.05-3.33l-1.05-.66c-.24.41-.72 1.21-.96 1.62m20.55 19.39c.63.61.63.61 0 0m-22 2.01c1.37.31 1.96-.21 1.75-1.57-1.36-.34-1.94.18-1.75 1.57z"/><path d="m90.58 175.1298c6.58-.33 13.14-.79 19.74-.55-1.03 1.46.85 5.04 2.15 2.76.16-.58.47-1.73.63-2.31 1.22.04 2.46.08 3.7.12-1.5 21.58-2.36 43.19-3.38 64.78v.28c-.33 8.14-.47 16.31-1.3 24.42-.59 3.1-.56 6.27-.92 9.4-5.39-.52-10.8-.48-16.18-.08-1.06.04-2.11.07-3.15.1-.36.01-1.07.04-1.43.06l-.78.03h-3.86c-.27-4.85-.11-9.72.63-14.52.34-2.82.39-5.67.65-8.49-2.71-.36-5.45-.54-8.18-.51-1.08 3.44-2.28 6.84-3.54 10.22-1.17 3.23-2.09 6.57-3.91 9.52-.02 1.1-.27 2.13-.73 3.09-3.63.3-7.27.11-10.89.42-3.92.28-7.85.13-11.74.6 11.31-33.25 22.87-66.43 34.36-99.62 1.38.26 2.69.73 3.93 1.41-.48 2.37-1.24 4.67-1.84 7.01.97-.36 1.96-.72 2.94-1.08.28-1.15.56-2.3.81-3.46.76-1.2 1.53-2.4 2.29-3.6m-5.7 26.8c.66.37.66.37 0 0m .3 29.15h3.41c.74277-5.40434 1.35524-11.4065 1.78-16.62-2.1 5.42-3.43 11.09-5.19 16.62m-9.54-5.99c-1.5 2.96 3.37.01 0 0m27.16 40.89c-.51 1.5-.07 1.91 1.33 1.23.47-1.45.02-1.85-1.33-1.23z"/><path d="m168.03 175.4598c8.21-.45 16.42.16 24.64-.01-.67.89-1.35 1.77-2.03 2.65l.45.82c.11.14.35.41.46.54-.36 3.91-1.85 7.64-1.82 11.61-.97 1.11-1.41-1.39-1.94-1.81-1.21.41-2.42.82-3.61 1.23.38 1.21.77 2.42 1.18 3.63.95-.76 2.69-2.71 3.6-.94-.73 3.89.03 8.78-3 11.77-.29-1.9-.55-3.79-.69-5.7-.53-.3-1.59-.89-2.12-1.19-.19-1.14-.37-2.27-.54-3.41-1.47.54-2.95 1.07-4.4 1.62-.57-.54-1.13-1.07-1.68-1.6-.34 1.43-.66 2.86-.98 4.3 1.38-.16 2.77-.32 4.16-.48-.02-.58-.06-1.74-.09-2.32 1.8.62 2.33 2.63 3.45 3.96-1.04-.05-3.13-.16-4.17-.21 0 .23-.01.71-.01.94 3.2-.29 2.51 3.65.6 4.95 1.65.24 3.29.49 4.94.77-1.32.81-2.84 3.06-4.24.18-.79 2.66 1 7.01 4.39 5.78.24-.58.71-1.73.95-2.31-1.78 1.65-3.26.19-4.7-.61 1.4-1.17 3.25-1.32 4.93-1.77.69 1.79.54 3.64-.14 5.41-2.91 1.27-.97 4.17-1.12 6.41-1.71 8.43-3.26 16.89-4.55 25.38-.32.33-.95 1-1.27 1.33 1.08 2.02.01 4.16-.39 6.21-1.61 6.52-4.5 13.34-10.44 17.03-3.63 2.68-7.5 5.41-12.14 5.86-3.08.17-6.04 1.01-9.04 1.57-6.55.13-12.93-1.52-19.25-3.05-2.71-1.72-5.73-3.44-7.12-6.48-.2-.73-.59-2.2-.79-2.93-.52-2.01-1.19-3.98-1.8-5.96.25-1.33.46-2.67.63-4 .22-.37.65-1.11.86-1.48-1.34-2.67.43-5.74.51-8.56.88-3.5.48-7.55 2.33-10.67 4.68.15 9.36.24 14.04.05.08-.01.25-.01.33-.01 1.02.54 2.06 1.07 3.12 1.58.99-2.6 4.25-1.42 6.4-1.51.07.01.22.03.29.04l-.05-.12-.1-.22 1.85.66c-.93 7.36-3.18 14.58-3.09 22.07.5.39 1.5 1.16 2 1.54.68-.14 2.03-.43 2.71-.58.38-.35 1.16-1.05 1.54-1.4 1.24-7.3 2.32-14.66 4.05-21.84.28-2.97.42-6.07 1.5-8.87.37-.12 1.11-.36 1.48-.48.81-1.79 1.99-3.54 1.66-5.61l-2.83.81c2.02-1.61.49-4.09 2.13-5.75 1.04.69 2.85 2.28 3.73.43-1.54-.73-3.13-1.36-4.5-2.38.71-1.1 1.63-1.96 2.77-2.58-.48-.63-.96-1.24-1.43-1.85 1-3.75.32-8.1 3.33-11.05 1.12-3.39 4.54 2.32 5.65-1.55-1.72-.47-3.49-.73-5.26-.84l1.31-1.53c-.51-.33-1.54-.98-2.05-1.31.63-4.4 1.49-8.76 2.28-13.13.97-1.07 2.1-2 3.13-3.03m6.02 24.5c-1.04.32-2.47 1.43-1.94 2.66 1.34 1.15 3.63-2.15 1.94-2.66m-11.33 8.55-1.85-.97c.68 1.62 2.16 3.28 1.11 5.15.93-1.94 2.75-3.07 4.49-4.21.06 2.11 2.25 1.97 3.73 2.5l-.62 1.46c.74-.77 1.47-1.55 2.22-2.32-2.36.46-3.36-2.58-3.13-4.37.47.43 1.41 1.28 1.88 1.71 1.45-.1 3-1.11 4-2.11.06-.39.18-1.17.24-1.56-.49.27-1.48.81-1.98 1.07-.61.36-1.83 1.07-2.44 1.42-.02-.7-.04-2.1-.06-2.8-2.26 2.06-5.1 3.28-7.59 5.03m9.98 3.87c1.39.24 1.94-.32 1.66-1.7-1.39-.23-1.94.34-1.66 1.7m-8.67-.24c-1.66 1.78 1.02 2.11 1.71.58 1.61-1.37-1.21-1.9-1.71-.58z"/><path d="m501.1 397.1098c2.62-.09 5.26-.08 7.89.12.07 0 .19.02.26.03 3.15.54 6.31 1.15 9.42 1.97 1.95 1.6 3.43 3.77 5.66 5.05.54.36 1.62 1.09 2.16 1.46 3.28 4.89 2.4 11.03 1.23 16.46-2.13.51-2.35 2.76-3 4.48 2.04.39 1.99 2.13 1.9 3.82-6.53-.03-13.14.32-19.59-.51-.69.12-1.36.26-2.02.4-1.44-.6-2.88-1.19-4.31-1.75.4-2.1.78-4.2 1.28-6.27l.08-.28.05-.32c.23-1.5.49-2.99.78-4.46-2.41-2.16-5.7-1.62-7.64.86-.32 2.19-.67 4.39-1.02 6.58 1.38 2.28 2.99 4.41 4.56 6.58 1.52 1.3-.15 2.96-.56 4.35.98 2.31 2.29 4.47 3.73 6.54 1.37.56 2.56 1.39 3.28 2.75 2.41.6 4.87.92 7.28 1.54 3.3 2.9 6.22 6.68 7.32 11 1.14 9.76-.28 19.98-5.06 28.67-2.05 1.81-3.4 4.2-5.22 6.2-2.67 2.33-5.72 4.2-8.86 5.82-2.47 1.39-5.29 1.13-7.96.71-1.34.47-2.31 1.55-3.4 2.4-2.88-.01-5.83.29-8.62-.55-2.99-.99-6.22 0-9.15-1.18-4.94-1.29-9.91-4.06-11.91-9.02-3.44-8.07.21-16.69 1.21-24.89.4-.1 1.19-.31 1.59-.41l-.55-1.33c1.65.98 3.43.59 4.84-.54l-.04 1.72c.85.02 2.54.05 3.38.07.08.01.25.03.34.03 2 .48 5.7.41 5.47 3.35l1.39.04c-.66-1.18-1.28-2.34-1.88-3.53-1.34-.24-2.67-.49-3.99-.73l.07-.78c2.66-.04 5.32-.06 7.99.07.85 2.63.83 5.37.44 8.08.99-.6 1.93-1.28 2.84-2.02-.35 2.24 1.71 2.47 3.25 2.59-.3 2.36-.87 4.69-1.05 7.08 2.02 3.3 7.54.57 6.81-3.17l.1-.55c.24-1.16.42-2.33.55-3.51 1.3-1.76-.11-3.67-1.28-5.04l.44-.32c-2.59-2.31-5.88-7.57-1.87-10.02-.59.13-1.77.39-2.36.52.16-.77.47-2.31.63-3.08.6.17 1.81.52 2.41.7l-2-.81c-.11-.77-.33-2.31-.44-3.08-.12.57-.34 1.7-.45 2.26-2.33-.16-5.17-1.64-6.93.58l-1.63-1.31c1.22-.25 2.77-.26 2.83-1.91-1.45-.7-2.2.67-3.18 1.3-3.88-3.61-7.39-7.63-10.04-12.25-.69-1.1-.92-2.28-.69-3.55-1.67-3.19-.96-6.77-.58-10.16.77-1.22 1.53-2.44 2.32-3.65.07-1.24-.23-2.34-.91-3.29.48-1.22 1-2.44 1.54-3.64.52-.16 1.56-.48 2.08-.64.46.24 1.39.72 1.85.97-.24-1.55.1-2.95 1.04-4.2-.61-.41-1.82-1.21-2.43-1.62 1.58-2.34 3.55-4.43 5.92-5.99 6.38-5.02 14.55-6.21 22.41-6.79m5.71 70.46c1.01 1.72 0 3.42-.55 5.09l1.76-.15c.44 1.6.96 1.61 1.58.04 2.03.74 2-2.01 2.27-3.18 1.26.69 2.31-1.55 1.54-2.46-.4.23-1.21.68-1.61.91-.59-.4-1.76-1.2-2.35-1.6-.91.42-1.79.87-2.64 1.35z"/><path d="m587.24 402.1998c5.75-3.79 12.58-5.59 19.43-5.46 3.91.6 7.89.11 11.83.53 5.42 1.03 10.59 4.12 13.62 8.81 2.31 4.45 2.36 9.77 1.86 14.66l-.07.47c-.84 5.11-1.81 10.19-2.61 15.3-8.9.12-17.8-.01-26.69.24.74-6.46 2.68-12.78 3.05-19.26-1.31-2.7-4.98-1.74-6.44.29-.08.13-.24.4-.32.54-3.81 19.66-7.08 39.45-10.31 59.22-.76 3.95 5.8 4.65 6.44.85 1.81-7.13 2.35-14.53 4.02-21.69 8.84-.26 17.7-.15 26.55-.06-.33 1.93-.67 3.86-1.12 5.77-1.91 6.72-2.23 13.82-4.71 20.39-.12.32-.38.98-.51 1.3-1.87.8-2.49 2.61-2.95 4.44-5.74 7.34-14.68 11.47-23.92 11.86-7.41.7-15.36.48-21.88-3.55-5.38-3.03-8.64-9.14-8.56-15.26 0-7.44 1.82-14.72 2.88-22.04.18-2.29 1.41-4.26 2.23-6.34-1.28-1.69-.43-3.69-.09-5.53 1.6-7.99 2.96-16.03 4.57-24.02 1.23-8.62 5.9-17.15 13.7-21.46m22.67 10.54c-.48 1.61.09 2.11 1.72 1.49.48-1.66-.1-2.15-1.72-1.49m-14.63 82.47c-.05.49-.15 1.46-.2 1.95 1.11.83 3.2-.25 3.12-1.67-.85-.91-1.83-1.01-2.92-.28z"/><path d="m542.72 399.1198c1.3-.19 2.9.26 4-.74 2.18 1.43 5.04.51 7.52.74.14-.02.42-.04.56-.05.5-.05 1.49-.14 1.99-.18 3.37.15 6.76.15 10.15.24l1.37.06c-.3 1.84-.6 3.69-.85 5.55l-1.23-.19c.16.77.49 2.3.66 3.06-.43-1.03-1.18-1.58-2.23-1.65l-.33-.06-.22.46-.53.85c-.21.47-.63 1.42-.84 1.89l.9-.2c.56.01 1.69.02 2.25.03.14 2.8-.73 5.52-1.09 8.28l-1.09-.03c-.07-.67-.22-2.01-.3-2.68-1.66 1.42-3.3 2.88-4.71 4.54 1.5.77 3.39 1.33 3.22 3.43.61-.23 1.83-.69 2.45-.92-1.59 7.63-2.92 15.3-4.35 22.95-.57 2.84-.37 5.98-2.1 8.46.6 3.41-.65 6.88-1.15 10.26l-1.06.57c1.02 1.42.32 3.11.15 4.68-1.25 7.23-2.59 14.45-3.75 21.7-.6 2.66-.79 5.52-2.07 7.96-2.01.5-3.37-.34-4.02-2.21-2.4 3.85-7.39 1.59-11.1 2.1-.78-2.94-2.7-.93-4.16.06-.62.01-1.85.03-2.46.05-1.19-.05-2.36-.06-3.52-.01.6-3.9 1.23-7.78 1.98-11.65-.05-1.33 1.1-2.01 1.98-2.76l.68-.34c0-.69.01-2.08.02-2.78.21-1.68.44-3.35.65-5.03-.29-.42-.88-1.25-1.17-1.67 3.07-13.27 4.27-26.89 7.46-40.16.98-9.81 3.39-19.44 4.77-29.21l.07-.62c.36-1.64.85-3.24 1.5-4.78m6.16 7.84c1.6.16 3.21.29 4.85.29l-.29 1.05c.53-.32 1.61-.95 2.15-1.27-2.28.5-3.35-1.55-3.49-3.46-1.15 1.06-2.22 2.19-3.22 3.39z"/><path d="m301.28 422.6998c1.52-8.14 2.13-16.67 6.33-24.02 3.43-.41 6.82.35 10.23.62 2.57-1.35 5.52.02 8.26.1 4.39-1.42 9.06-.67 13.59-.83h2.09c-.04.71-.12 2.13-.16 2.84-.94 5.75-.33 11.61-1.22 17.36l-.09.32v.38c-.14 5.39.36 10.86-.85 16.17-.58 2.33-.32 4.77.16 7.1-1.38.45-1.37 1.05.02 1.82-.25 2.42-.42 4.86-.36 7.3 3.18-8.03 5.24-16.45 8.28-24.52.64-1.46 1.62-2.72 2.5-4.03-.56-5.07 2.33-9.71 3.6-14.5 1.25-3.48 2.01-7.21 4.21-10.27 5.04-.05 10.07 0 15.09.5 6.57-.76 13.21-.41 19.82-.37-.25 4.85-2.12 9.4-2.75 14.19-.44 3.07-.88 6.14-1.57 9.17-.01.08-.04.25-.06.34-3.77 21.81-7.68 43.6-11.42 65.42-.02.1-.05.3-.07.4-.57 3.06-1.15 6.12-1.59 9.2-2.18.19-4.36.42-6.51.69.33-1.77.74-3.52 1.02-5.29-1.1-.37-2.2-.7-3.29-1.01-.29-1.39-.18-3.21-2.07-3.23-1.65.49-3.13 1.37-4.6 2.22-.21.61-.62 1.84-.83 2.45-1.58-1.03-3.03-.65-4.34.52 1.39 1.31 3.07 2.49 4.82.93-.02.76-.07 2.28-.1 3.03-2.63.13-5.24.28-7.86.4 1.91-12.34 4.3-24.61 6.41-36.91.02-.09.05-.27.07-.36 1.19-6.1 2.04-12.28 3.37-18.34-3.64 7.68-5.68 16.07-8.79 24-1.09 3.7-4.05 6.59-4.66 10.46-.89 7.21-4.45 13.68-6.35 20.63-2.31-.01-4.62.1-6.91-.1-5.32-1.03-10.68.3-15.99.65.15-17.05 1.18-34.03.97-51.07l-.85-.22c-1.42 11.08-4.35 21.94-5.83 32.98-.01.08-.03.25-.04.33-.27 1.46-.28 3.33-2.1 3.69.24.38.7 1.15.94 1.54-.46 4.1-1.63 8.09-2.2 12.19-2.33.02-4.66.05-6.98.03-.49-.37-1.48-1.11-1.97-1.49-2.25 1.99-5.31 1.31-8.04 1.66-1.57.03-3.26.6-4.73-.19l.22-.38c.01-.05.02-.15.03-.2l-.02-.24c.46-3.58.6-7.4 2.79-10.44 1.21-1.46-.8-3.09-.16-4.69 2.95-17.03 6.02-34.03 8.94-51.06.02-1.42.82-2.54 1.83-3.43-.33-1.47-.66-2.96-.23-4.44m22.56 37.22c-.76.78-1.04 2.14-.73 3.18 1.99.6 3.66-3.66.73-3.18m-28.16 28.68c1.35.19 1.85-.39 1.5-1.74-1.4-.2-1.9.38-1.5 1.74z"/><path d="m401.9 403.4698c-.08-2.05-.77-4.93 2.1-5.32.04.57.12 1.69.16 2.26.21-.43.64-1.3.85-1.73 5.78-.16 11.58-.23 17.36.06.88.98 1.76 1.97 2.67 2.96-.84 1.03-2.26 2.3-.05 2.43l.41.42c.65 1.36-.62 2.08-1.45 2.91.88.37 1.77.75 2.66 1.16l.08.89c-1.46 4.61-1.44 9.67-3.78 13.99.19.49.56 1.49.74 1.98-1.23 5.77-1.9 11.65-3.32 17.38l-.02.13c-.01.07-.03.21-.04.28-.99 7.16-2.39 14.27-3.66 21.39-.02 1.44-1.3 2.13-2.27 2.92 2.65 3.43-.05 7.88.58 11.79 1.46 2.72 5.78 1.46 6.51-1.26 1.57-5.88 2.13-11.99 3.38-17.94.57.03 1.72.08 2.3.1-.61-.12-1.83-.38-2.44-.5.46-2.16.9-4.32 1.36-6.47.03-.12.07-.36.1-.48 1.29-7.39 2.69-14.76 4.04-22.14.02-.11.05-.33.06-.44.03-.45.08-1.36.1-1.81l.06-.52c.18-.68.53-2.04.71-2.72 2.22-1.17 4.47-2.35 6.53-3.82.02-2.63-2.95-4.13-4.98-5.27.38-3.33.66-6.78 2.36-9.76-.14-2.6.03-5.19.46-7.75 2.37-.03 4.75-.06 7.14-.08 6.77.08 13.54.06 20.31.06-.46.44-1.38 1.33-1.83 1.77.06.9.19 2.7.26 3.6-.9 3.64-1.14 7.43-2.18 11.03-.4.22-1.19.66-1.59.88.31.46.93 1.37 1.24 1.83-.79 4.43-1.26 8.93-2.42 13.29l-.06.23-.03.24c-.07.58-.23 1.73-.31 2.31l-.07.46c-.65 4.51-1.73 8.94-2.34 13.46-1.48.44-2.95.9-4.41 1.34-.59 1.21-1.19 2.41-1.8 3.61l1.88-.17c-.71.85-1.44 1.74-1.21 2.97 1.42-1.27 2.81-2.57 4.25-3.82-.41 3.76-.41 7.59-1.36 11.28-.54-.06-1.61-.18-2.14-.23l.03.78c.51-.05 1.53-.14 2.04-.19-.9 4.72-1.28 9.59-3.33 14.01.15 2.99-1.59 5.6-2.75 8.25-1 2.26-4.18 2.72-4.59 5.38-2.69-.12-2 3.22-4.07 4.09-7.38 5.97-17.35 5.57-26.3 5.65 1.2-3.83 1.42-8.04 3.81-11.44-.61-1.49.41-4.4-2.07-4.38 2.3-1.23 1.27-3.43.74-5.33-.43 2.78-.74 5.68-2.31 8.09.47 1 .97 2.01 1.47 3.03-3.38.57-8.31-2.52-9.79 2.15 1.88.75 4.13.79 5.9 1.74-.26 1.56.11 3 1.12 4.32-2.31.98-4.83 1.87-7.19.5 1.13-.41 2.27-.79 3.43-1.16-1.01-1.21-1.98-2.48-3.08-3.59-1.3.51-2.59 1.01-3.98 1.1.23-2.29.11-4.71 1.44-6.7-.85-.55-1.7-1.09-2.52-1.62-.14-.38-.42-1.15-.55-1.53.95-.83 1.95-1.62 3-2.34-.02 1.44-.02 2.91-.01 4.36.9-1.01 1.58-2.18 2.25-3.36-.45-.5-1.37-1.49-1.82-1.99.14-.63.43-1.87.57-2.5 1.24-.27 2.49-.55 3.74-.83-1.66-2.43-5.06-1.04-7.5-1.12-.58-1.29-1.29-1.44-2.12-.47-.99-.53-1.97-1.04-2.95-1.55-.86.35-1.75 1.61-2.64.57-.44-3.02.81-5.84 2.53-8.22-.88-1.13-1.15-2.36-.79-3.69 1.29-5.11 1.02-10.68 3.97-15.25-.82-2.98.11-5.99.39-8.97 1.45-9.88 3.6-19.66 5.38-29.45.35-2.55.96-5.05 1.65-7.52m5.47 9.41c.57.63 1.15 1.26 1.75 1.91-.17.78-.31 1.58-.45 2.37 1.84.34 2.35 1.38 1.53 3.1 1.16 1.56 2.99.26 4.4-.02-.53-1.56-.93-3.15-1.23-4.74-1.82-.88-2.47-2.89-3.23-4.59-.69.49-2.08 1.47-2.77 1.97m41.59 44.91c.63.6.63.6 0 0m-35.96 15.04c.51.56.51.56 0 0m14.25 13.18c-.77 2.13-2.95 3.2-4.46 4.75.55 1.06.86 2.2.92 3.43 1.72-.4 3.21-1.08 3.07-3.13.32.03.95.09 1.27.12.59-1.87 1.3-3.69 2.06-5.49.32.59.95 1.77 1.27 2.36.07-1.36.13-2.71.18-4.06l-1.98.91.82-2.52c-2.21-.28-2.45 2.15-3.15 3.63z"/></g></svg>