<svg width="800" height="353.18" version="1.1" viewBox="0 0 800 353.18" xmlns="http://www.w3.org/2000/svg">
 <link href="" rel="stylesheet" type="text/css"/>
 <style type="text/css"/>
 <g fill="#27a9e0" fill-rule="evenodd" stroke-width="5.5919">
  <path d="m637.28 252.23s0.72695-0.74373 2.1193-2.069c0.6934-0.65425 1.5601-1.4651 2.589-2.3822 0.97859-0.95062 1.9851-2.0466 3.1538-3.2098l1.8006-1.8341 1.9572-2.1249c0.67103-0.73813 1.3756-1.493 2.1082-2.2479 0.71576-0.78287 1.4203-1.6496 2.1585-2.5052 0.72695-0.86674 1.4874-1.7335 2.2759-2.6058l2.2703-2.8742c1.5769-1.9012 3.1147-3.9982 4.6916-6.1623 3.1091-4.3561 6.2965-9.0701 9.1539-14.259 1.5098-2.5275 2.7792-5.2676 4.2163-7.9293 1.219-2.796 2.6114-5.5248 3.6851-8.4326 2.2703-5.7373 4.289-11.687 5.5639-17.782 1.3253-6.084 2.1137-12.246 2.3318-18.414 0.18453-6.1679-0.37466-12.308-1.3476-18.364l-0.84997-4.5294-1.1408-4.4735c-0.21249-0.73813-0.32433-1.5098-0.57037-2.2368l-0.72695-2.192c-0.50327-1.4539-0.86674-2.9469-1.4092-4.384-1.2134-2.8295-2.0802-5.7764-3.4614-8.4997a179.39 179.39 0 0 1-1.8565-4.1548c-0.64307-1.3644-1.4092-2.6562-2.0522-4.0094-0.6878-1.3197-1.3197-2.6673-2.0243-3.9591-0.7549-1.2582-1.5266-2.4828-2.2256-3.7522-0.71577-1.2582-1.398-2.5164-2.1137-3.7298-0.77168-1.1743-1.5601-2.3095-2.2759-3.4893a108.76 108.76 0 0 0-4.3449-6.6544c-1.4315-2.1249-2.8519-4.1045-4.1212-6.0728-2.7904-3.6851-5.1446-7.1129-7.18-9.8977a148.34 148.34 0 0 1-6.4642-8.9806l-0.0559-0.08388a2.1026 2.1026 0 0 1 0.60393-2.8966 2.0522 2.0522 0 0 1 1.6384-0.2796s3.9814 1.0177 10.759 3.5341c3.3607 1.2973 7.2806 3.2098 11.844 5.4465 4.3393 2.5499 9.4056 5.3403 14.422 9.2266 1.2973 0.92266 2.5667 1.9348 3.892 2.9413 1.2694 1.0625 2.5331 2.2032 3.8472 3.344 1.3197 1.1352 2.5946 2.3598 3.9255 3.5788 1.2861 1.2638 2.5164 2.6282 3.8137 3.9926 1.2861 1.37 2.6002 2.7568 3.8416 4.2498 1.2134 1.521 2.4157 3.0923 3.6291 4.686l1.8342 2.4157c0.59274 0.8276 1.1184 1.7167 1.6776 2.5835 1.1184 1.7391 2.2368 3.5173 3.3328 5.3291 1.068 1.8341 2.0131 3.7801 2.9973 5.7261l1.4539 2.9413c0.4865 0.98417 0.86675 2.0354 1.2861 3.0644 0.81082 2.069 1.644 4.1604 2.4325 6.2853l1.9124 6.5873c2.2703 8.9191 3.4726 18.375 3.2098 27.809a104.86 104.86 0 0 1-4.6972 27.456c-2.6618 8.7401-6.632 16.742-11.106 23.911-2.1808 3.6347-4.7028 6.9116-7.1353 10.105-2.6114 3.0588-5.0942 6.0728-7.8734 8.6618-2.6618 2.6841-5.4242 5.0886-8.1306 7.3254-1.3588 1.124-2.796 2.1026-4.1436 3.1203-1.37 0.98417-2.6506 2.0131-4.0709 2.8295-2.7736 1.6944-5.3235 3.3831-7.9852 4.6636l-3.7969 1.9236c-1.2638 0.55919-2.494 1.096-3.6962 1.5769-1.2078 0.48091-2.3486 0.97859-3.4726 1.3924a90.645 90.645 0 0 1-3.316 1.0848l-3.0364 0.95062c-0.99535 0.27959-1.9907 0.4809-2.9022 0.69899-1.8174 0.41939-3.4446 0.80523-4.8258 1.0065-1.3588 0.17335-2.5275 0.29078-3.4782 0.39143-1.9012 0.17894-2.9358 0.23486-2.9358 0.23486a2.1026 2.1026 0 0 1-2.2032-1.9963 2.1305 2.1305 0 0 1 0.59833-1.6049"/>
  <path d="m689.6 271.59 2.9637-2.343c0.97858-0.74372 2.1808-1.6664 3.6012-2.7121l1.1072-0.81642 1.0904-0.93385 2.3654-1.9739a214.84 214.84 0 0 0 11.575-10.267c1.0513-1.0625 2.1473-2.1249 3.2713-3.1986l1.6999-1.644 1.6496-1.8006c1.1016-1.2302 2.2591-2.4325 3.4334-3.6683 1.2023-1.1911 2.2535-2.6226 3.4111-3.9591 1.1184-1.3924 2.3486-2.6841 3.4838-4.1212l3.3831-4.44c1.1687-1.4707 2.2535-3.042 3.3551-4.6357 1.0736-1.6049 2.2703-3.1371 3.288-4.8314a167.8 167.8 0 0 0 11.631-21.462 133.88 133.88 0 0 0 7.9796-23.989l0.69339-3.1147 0.35788-1.5546 0.22368-1.5769 0.97299-6.3077c0.16776-2.1137 0.32433-4.2331 0.54801-6.3524 0.17894-2.1137 0.0951-4.2442 0.17334-6.3636a118.39 118.39 0 0 0-2.6562-25.175 142.59 142.59 0 0 0-7.9629-23.861c-0.35229-0.97858-0.87234-1.8901-1.3253-2.8239l-1.3756-2.7904c-0.44735-0.92826-0.90589-1.8509-1.3588-2.7792a23.682 23.682 0 0 0-1.4539-2.7121c-2.097-3.5229-3.9143-7.1576-6.207-10.44l-3.2042-4.988c-1.0625-1.6496-2.3318-3.1147-3.4111-4.6972l-3.3104-4.6133c-1.0904-1.521-2.3542-2.8463-3.4446-4.289-4.4008-5.7708-9.0086-10.681-12.94-15.322-4.1939-4.4791-7.8398-8.3878-10.843-11.609-6.2965-6.2629-9.8138-10.272-9.8138-10.272l-0.0671-0.07829a2.0522 2.0522 0 0 1 0.16776-2.8742 2.0131 2.0131 0 0 1 1.8677-0.44735s5.0551 1.3812 13.756 4.563c2.192 0.77727 4.4623 1.9012 7.0346 3.0196 2.5555 1.1352 5.3011 2.4157 8.2089 3.8696 2.8519 1.5434 5.8324 3.2992 9.0253 5.1166l2.4213 1.4092c0.79964 0.50327 1.5657 1.0625 2.371 1.6049l4.9097 3.3719c1.6664 1.1631 3.3943 2.3318 5.0495 3.6683l5.0327 4.1492c1.7111 1.4203 3.4726 2.8463 5.1334 4.4512l5.0215 4.96c3.5117 3.2713 6.5761 7.1968 9.8641 11.106 1.6999 1.9068 3.0867 4.1156 4.6133 6.2573 1.4707 2.1808 3.1091 4.289 4.44 6.6376 1.3532 2.343 2.7288 4.7028 4.0653 7.1241l1.0065 1.8118 0.88911 1.8901 1.7559 3.836c2.4772 5.0663 4.1939 10.585 6.0392 16.105a126.88 126.88 0 0 1 4.8426 35.067c-0.11183 2.9749-0.0839 5.9666-0.34669 8.9247-0.29637 2.9581-0.66544 5.905-1.0066 8.8352-1.0177 5.8268-2.1696 11.598-3.9199 17.122-3.3607 11.083-8.0132 21.473-13.711 30.627-5.7373 9.1372-12.157 17.268-18.996 24.101-6.9172 6.7662-13.868 12.587-20.858 17.055a124.16 124.16 0 0 1-19.656 10.653 52.715 52.715 0 0 1-4.44 1.7838c-1.4427 0.54242-2.8407 1.0401-4.1772 1.4986-2.6282 0.98418-5.2508 1.6608-7.5379 2.2535-4.6077 1.3365-8.0747 1.7447-10.513 2.1137l-3.7242 0.49768a2.0299 2.0299 0 0 1-2.2759-1.7614 2.0746 2.0746 0 0 1 0.7605-1.8845"/>
 </g>
 <g fill="#ec1d24" fill-rule="evenodd" stroke-width="5.5919">
  <path d="m539.35 185.89c-4.6748 7.7336-13.107 13.823-20.897 19.314-5.5863 3.9255-10.843 0.39143-13.6-5.5751-9.3664-19.985 10.233-53.011 33.887-54.342 4.9936-0.29078 10.289 1.9292 16.004 3.1594-5.7596 14.259-8.9303 26.763-15.394 37.443m64.698 11.872c-3.0755 3.288-5.9274 9.0589-10.809 9.6181-4.7475 0.54241-3.4782-9.4671-3.7466-14.192-0.32433-5.8994 0.36347-11.928 1.5881-17.682 3.7801-17.743-3.316-26.097-22.921-31.952-4.837-1.4427-6.4307-3.0867-7.2303-7.4037-1.7894-9.6237-8.824-15.842-19.057-19.085-22.094-7.0122-42.258-3.8584-57.373 11.15-7.9573 7.8902-13.398 17.81-19.879 26.824-8.1754 11.402-15.344 23.503-24.403 34.139-8.0523 9.4447-17.223 4.3785-18.056-5.6087-0.41939-5.0327-1.247-11.229-1.8062-16.284-1.3253-12.09-2.1697-24.325-5.1669-36.14-4.2051-16.552-16.848-24.185-35.861-23.061-17.089 1.0177-30.588 8.1027-38.265 21.618-5.3962 9.5174-8.8688 19.907-13.454 30.851-1.3812-7.0346-2.466-13.365-3.9311-19.616-2.1473-9.1316-8.947-13.549-19.197-12.196-12.123 1.6105-15.881 10.16-20.148 19.096-8.399 17.598-16.77 35.285-26.606 52.077-5.782 9.8697-29.19 21.775-35.005-19.706-5.4242-38.623 12.537-106.79 21.948-133.61 5.1445-14.662-0.20691-18.353-14.975-14.578-16.759 4.2778-24.297 8.7625-29.111 25.292-26.232 90.091-12.727 145.81-9.8418 153.48 5.6087 14.874 13.622 27.982 31.617 31.326 18.99 3.5676 32.165-5.4409 41.939-19.616 8.03-11.676 14.416-24.453 22.569-37.902 0.36348 3.4894 0.67103 6.1008 0.88352 8.7178 0.87234 10.457 1.8789 20.914 2.4996 31.393 0.36907 6.207 3.8472 9.2826 9.7914 10.228 14.64 2.3598 28.055-5.508 32.058-19.264 3.7074-12.794 6.604-25.823 10.848-38.472 3.0532-9.1036 6.878-18.14 11.827-26.483 2.1585-3.6347 8.4661-8.455 11.832-8.1921 3.3663 0.26282 7.3813 7.1129 8.4326 11.217 1.8901 7.3813 1.5098 15.193 2.5387 22.781 1.6217 12.051 2.6002 24.286 5.659 36.04 3.1706 12.151 12.19 17.402 25.192 17.905 16.759 0.67103 27.305-8.8072 37.208-19.533 4.865-5.2732 8.975-11.195 14.164-17.62 2.9078 19.868 11.894 34.362 32.086 38.584 24.045 5.0719 41.056-4.6804 53.022-25.516 0.92826 4.2834 1.5266 7.2359 2.192 10.172 3.1874 13.901 11.055 20.656 25.773 22.815 15.915 2.371 27.21-5.0886 37.701-14.243 18.19-15.657 4.8426-39.339-6.5258-27.361"/>
  <path d="m580.41 223.01 1.3141-1.3812c0.88911-0.84997 2.1249-2.2032 3.836-3.741 0.84438-0.78287 1.7782-1.6496 2.796-2.6058 0.99536-0.95062 1.672-1.8901 2.617-2.9302 0.88911-1.0233 1.8733-2.0522 2.8854-3.1482 0.49209-0.56478 1.068-1.0345 1.5657-1.6943l1.549-1.9739c1.0625-1.3421 2.2088-2.6785 3.3775-4.0709 1.1743-1.3868 2.0802-3.0029 3.193-4.5406 2.4045-2.9861 4.0541-6.5425 6.207-9.976 1.5601-3.6739 3.6515-7.303 4.7308-11.335 0.67103-1.9739 1.4707-3.9367 1.795-6.0392 0.39702-2.069 1.0513-4.1212 1.3141-6.2462 0.23486-2.1529 0.47532-4.2946 0.72695-6.4307 0.12862-2.1585 0.0168-4.3393 0.0727-6.5202 0.1342-2.1808-0.22368-4.3617-0.4194-6.5425-0.274-2.1696-0.29637-4.3617-0.84997-6.4922-0.43616-2.1417-0.91707-4.2666-1.2805-6.386-0.47531-2.1026-1.2694-4.11-1.8062-6.1399-0.99536-4.1044-2.7848-7.8063-4.11-11.424-0.35788-0.8947-0.65984-1.795-1.0233-2.6617-0.40821-0.8332-0.82201-1.6552-1.219-2.4493-0.76609-1.6272-1.5098-3.1874-2.2144-4.6413-1.2973-2.9973-2.7456-5.5024-3.9311-7.6162-1.2023-2.0746-2.0466-3.836-2.6841-4.9936a93.994 93.994 0 0 0-0.97299-1.9236c-0.29637-0.60392-6e-3 -1.275 0.67102-1.5098a1.5937 1.5937 0 0 1 1.2582 0.15098l1.8845 1.1407c1.2134 0.7605 3.07 1.8565 5.2844 3.3887 2.2368 1.5098 5.0607 3.316 7.7951 5.8268 1.398 1.2414 2.9078 2.5611 4.4679 3.9479l2.4045 2.1976c0.75491 0.79405 1.4763 1.6384 2.2535 2.4884 2.9917 3.439 6.4698 7.1297 9.1707 11.592 1.4315 2.1976 2.9525 4.4567 4.289 6.8557 1.2582 2.4437 2.3933 4.9936 3.6012 7.5994 1.3588 2.5667 2.0131 5.3459 2.9246 8.1474 0.43057 1.4148 0.84997 2.8239 1.275 4.2498 0.47531 1.4259 0.55919 2.9078 0.83879 4.3617 0.40261 2.9413 1.0457 5.9274 1.1743 8.9359 0.0112 3.0196 0.0112 6.0392 0.0112 9.0645-0.64866 5.9722-1.3421 12.039-3.3719 17.631l-1.3309 4.2275c-0.44176 1.4092-1.1855 2.6729-1.767 3.9926-1.2582 2.6058-2.3933 5.262-3.8304 7.6609-3.0756 4.7028-5.9889 9.2993-9.5677 12.962-1.7559 1.8565-3.2657 3.8416-5.0998 5.3906-1.8062 1.5657-3.5229 3.1035-5.2284 4.5183-3.1874 2.919-7.0234 5.1222-10.065 7.1576-1.5546 0.93385-3.0532 2.0243-4.3393 2.6058-1.2861 0.58715-2.4604 1.1408-3.5229 1.6217-2.1026 1.0177-3.8528 1.6832-4.9936 2.2032l-1.8062 0.72695s-6e-3 0.0112-0.0168 0.0112c-4.9209 2.0019-10.815-0.23486-13.225-5.0271a8.9023 8.9023 0 0 1 1.3924-10.216"/>
  <path d="m63.132 119.39c-10.39-46.838-8.3319-52.916-10.585-75.714-1.6217-16.53-17.1-24.034-30.504-27.434-18.179-4.6077-22.289 2.7233-22.032 14.36 0.54801 24.85 7.1464 80.579 35.609 144.49 20.958 47.056 63.681 80.562 101.21 85.841 18.884 2.6562 25.488-3.6683 20.466-31.712-16.647-92.87-5.6926-178.33 32.735-215.94 14.343-14.041 16.809-14.422 7.0234-12.375-21.607 4.5238-86.098 38.797-73.086 195.17 0.97858 11.771-1.9963 15.154-9.9088 11.229-12.582-6.2406-18.084-13.264-28.211-28.329-9.674-14.405-17.156-34.541-22.714-59.593"/>
 </g>
 <g fill="#fff" fill-rule="evenodd" stroke-width="5.5919">
  <path d="m242.62 301.31h-9.1484v13.454h9.1484c4.44 0 7.029-3.2657 7.029-6.7215 0-3.4614-2.589-6.7326-7.029-6.7326zm7.9517 51.859-11.648-24.761h-5.4521v24.761h-16.177v-66.527h26.069c14.6 0 22.457 10.457 22.457 21.4 0 9.0589-5.5472 14.763-10.72 17.374l14.237 27.753z"/>
  <path d="m325.1 280.1h-9.1483l4.5294-16.82h15.529zm-3.3272 31.768-5.9162 17.754h11.463zm12.845 41.302-3.0476-9.8977h-20.243l-3.2377 9.8977h-16.916l23.933-66.527h12.487l23.945 66.527z"/>
  <path d="m537.82 303.55c-1.2023-1.5825-3.5229-2.8966-6.4754-2.8966-2.9637 0-5.2676 1.3141-6.4698 2.8966-1.4818 1.9572-2.4045 4.2051-2.4045 16.356 0 12.146 0.92266 14.293 2.4045 16.256 1.2023 1.5881 3.5117 2.9917 6.4698 2.9917 2.9525 0 5.2732-1.398 6.4754-2.9917 1.4763-1.9572 2.3933-4.11 2.3933-16.256 0-12.151-0.91708-14.394-2.3933-16.356m11.922 42.705c-4.809 4.8594-10.351 7.4764-18.397 7.4764-8.0412 0-13.588-2.617-18.397-7.4764-6.934-7.0066-6.6544-16.351-6.6544-26.349 0-10.004-0.27959-19.348 6.6544-26.355 4.809-4.865 10.356-7.4708 18.397-7.4708 8.0468 0 13.588 2.6058 18.397 7.4708 6.934 7.0122 6.6544 16.351 6.6544 26.355 0 9.9983 0.2796 19.342-6.6544 26.349"/>
  <path d="m458.49 353.17h16.177v-66.527h-16.177z"/>
  <path d="m409.15 304.94c-1.4707-2.2368-3.6906-3.7354-7.7616-3.7354h-7.1185v37.376h7.1185c4.0653 0 6.2909-1.4874 7.7616-3.7354 1.2973-1.8677 1.7559-3.6403 1.7559-14.947 0-11.217-0.45854-13.085-1.7559-14.958m11.094 41.682c-4.5294 4.5798-10.904 6.5425-17.749 6.5425h-24.403v-66.538h24.403c6.8445 0 13.219 1.9572 17.749 6.5369 7.6665 7.756 6.8389 16.261 6.8389 26.729 0 10.462 0.8276 18.968-6.8389 26.724"/>
 </g>
</svg>
