<svg id="a" width="451.94pt" height="283.03pt" version="1.1" viewBox="0 0 451.94 283.03" xmlns="http://www.w3.org/2000/svg">
 <g id="b" transform="translate(-11.19 365.66)" fill="#ed1f24">
  <path id="c" transform="scale(.75)" d="m494.91-487.53c-0.9884-0.0116-1.9765-0.0109-2.9648 4e-3 -7.1881 0.10759-14.365 0.91472-21.398 2.4356-31.867 6.3867-60.493 24.695-82.773 47.975-20.814 19.897-43.851 58.385-49.928 71.414-0.64375 1.4975-1.2431 3.0287-1.8258 4.4856-18.399 42.114-21.013 89.922-12.967 134.79 2.3096 9.9844 5.0429 19.574 7.9199 28.854 4.0667 11.04 8.7329 21.947 15.213 31.801 4.5933 10.165 15.894 22.042 24.494 29.787 15.52 13.147 34.655 23.27 55.094 25.039 6.6438 0.57511 12.356 0.74356 17.362 0.77326 3.5889 0.0213 6.8241-0.29711 9.8087-0.43075 14.66-0.65646 23.273-3.253 38.05-8.487 19.759-8.2946 37.732-20.593 53.1-35.496 21.213-20.12 37.932-44.72 50.158-71.213 23.8-52.293 31.162-113.56 13.469-168.81-3.2283-10.6-9.8915-25.139-21.268-42.4-11.733-17.893-28.774-32.466-48.348-41.213-13.578-5.9898-28.369-9.1322-43.195-9.3066z" fill="#ed1f24" stroke-width="1.3333"/>
 </g>
 <g id="d" transform="translate(-11.19 -9.3439)" fill="#1f1a17">
  <path id="e" d="m88.22 177.57h23.99l-22.73 19.13h-14.3z"/>
  <path id="f" d="m156.28 181.03 21.15-0.06v100.35h-19.66l-0.07-8.3c-3.52 6.3-10.21 11.36-17.72 10.72-6.69 0-12.63-4.7-14.98-10.83-3.94-9.84-2.28-20.64-2.64-30.95 0.35-9.48-1.41-19.68 3.25-28.42 2.93-6.01 9.48-10.18 16.26-9.38 6.03 0.25 10.92 4.31 14.38 8.94l0.03-32.07m-9.7 41.67c-2.29 2.09-2.57 5.51-3.01 8.4-0.19 8.3 0.01 16.62-0.09 24.92 0.04 2.92-0.06 6.19 1.84 8.61 2.18 2.79 7.1 2.61 8.99-0.42 1.69-2.73 1.92-6.1 2-9.23-0.02-7.31 0.02-14.62-0.02-21.92-0.16-3.34-0.49-7.01-2.75-9.66-1.71-2.01-4.85-2.13-6.96-0.7z"/>
  <path id="g" d="m191.21 181.03 21.15-0.05v18.2h-21.13z"/>
  <path id="h" d="m30.96 217.14c2.51-7.06 8.79-13.18 16.65-13.07l0.01 23.85c-4.22-0.03-8.8-1.03-12.73 0.99-2.17 1.16-2.58 3.87-2.54 6.1v46.3l-21.16-0.03 0.04-74.94 19.61-0.01z"/>
  <path id="i" d="m60.86 210.93c6.72-6.15 16.41-7.2 25.13-6.73 6.64 0.38 13.87 1.17 19.22 5.52 4.75 3.93 5.76 10.5 5.83 16.32 0.03 15.66 0 31.33 0.01 47-0.09 2.9 1.15 5.57 1.72 8.36l-20.87-0.09-1.08-6.29c-5.71 6.76-15.22 10.37-23.89 8.05-7.58-2-12.9-9.31-13.63-16.94-0.81-7.12 0.06-15.22 5.19-20.66 5.68-5.65 13.7-7.64 21.08-10.04 3.01-1.08 6.68-1.47 8.65-4.31 3.22-3.92 1.74-11.01-3.29-12.64-2.77-0.4-6.17-0.02-7.92 2.43-1.89 2.69-1.7 6.14-1.93 9.26h-21.11c0.09-6.88 1.54-14.43 6.89-19.24m16.74 40.74c-2.77 2.98-3.93 7.31-3.27 11.3 1.06 4.26 6.43 5.91 10.26 4.7 3.51-1.26 5.25-5.11 5.26-8.64 0.12-4.69 0.02-9.4 0.01-14.09-4.2 1.98-8.95 3.31-12.26 6.73z"/>
  <path id="j" d="m243.21 205.11c8.29-1.35 17.18-1.75 25.01 1.77 7.44 3.27 13.01 10.81 12.97 19.09 0.1 11.33-0.03 22.67 0.05 34 0.07 4.53-0.68 9.2-3.23 13.04-4.28 6.69-12.27 10.02-19.96 10.55-8.8 0.69-18.53-0.24-25.56-6.09-4.3-3.52-6.79-8.95-6.84-14.48-0.02-11.98 0-23.95-0.01-35.93-0.07-5.87 2.06-11.9 6.43-15.93 3.1-2.97 7.12-4.68 11.14-6.02m4.42 16.8c-1.034 1.3731-0.87297 3.5207-0.84 5.11 0.04 12.03-0.13 24.06 0.08 36.09 0.55 5.41 8.07 6.35 11.57 3.24 2.07-2.25 1.5802-5.58 1.6802-8.38v-22.97c-0.25-4.25 0.82975-8.89-1.2202-12.82-2.35-4.03-8.47-3.54-11.27-0.27z"/>
  <path id="k" d="m191.23 206.35 21.2 0.11-0.07 74.86-21.21-0.11z"/>
 </g>
 <g id="l" transform="translate(-11.19 365.66)" fill="#fff">
  <path id="m" transform="matrix(.75 0 0 .75 -.00022053 8.1314e-5)" d="m387.77-437.12c-20.386 19.488-42.904 56.81-49.531 70.578 0 0 0.39062-0.24414 1.1289-0.43164l1.3613-0.37304c23.707-6.12 48.215-8.0543 72.588-9.2676 23.792-0.675 47.594-0.90312 71.396-0.91992 14.282-0.0101 28.564 0.0565 42.844 0.14648-22.053 27.693-40.654 58.041-55.947 89.961-25.933 55.28-43.547 115.2-45.84 176.48 6.6438 0.57511 12.355 0.74374 17.361 0.77344 3.5889 0.0213 6.824-0.298 9.8086-0.43164 1.6807-0.0753 3.2744-0.17934 4.8144-0.30664 0.0404-3e-3 0.0828-4e-3 0.12305-8e-3 0.0126-1e-3 0.0245-3e-3 0.0371-4e-3 0.54339-0.0457 1.0725-0.098 1.6016-0.15039 0.23257-0.023 0.46919-0.044 0.69922-0.0684 8e-3 -8.4e-4 0.0155-1e-3 0.0234-2e-3 0.4916-0.0521 0.97407-0.11177 1.4551-0.16992 0.27703-0.0335 0.5562-0.0661 0.83007-0.10157 0.56778-0.0736 1.1277-0.15391 1.6836-0.23632 0.13974-0.0207 0.28083-0.0393 0.41992-0.0606 0.0131-2e-3 0.026-4e-3 0.0391-6e-3 0.60904-0.0934 1.2122-0.19451 1.8106-0.29883 2.9914-0.52153 5.8816-1.1916 8.8359-1.998 2e-3 -5.4e-4 4e-3 -1e-3 6e-3 -2e-3 0.96813-0.26432 1.9635-0.55313 2.9551-0.84961 0.41586-0.12433 0.83225-0.24686 1.2539-0.37695 0.0146-4e-3 0.0303-9e-3 0.0449-0.0137 1.0784-0.33306 2.198-0.69119 3.3262-1.0625 1.6373-0.53886 3.3535-1.1203 5.1387-1.7422l0.0117-0.4707c0.72-24.32 5.0008-48.533 10.494-72.227 10.267-44.973 27.2-88.44 50.453-128.31 15.32-26.013 31.933-51.721 53.613-72.947 1.1879-1.2938 3.3668-2.4651 4.9785-3.0195-3.2754-10.562-9.9126-24.947-21.139-41.98-66.227-0.04-132.45 0.17453-198.68-0.10547z" fill="#fff" stroke-width="1.3333"/>
 </g>
</svg>
