<?xml version="1.0" encoding="UTF-8" standalone="no"?>
<svg
   xmlns:dc="http://purl.org/dc/elements/1.1/"
   xmlns:cc="http://creativecommons.org/ns#"
   xmlns:rdf="http://www.w3.org/1999/02/22-rdf-syntax-ns#"
   xmlns:svg="http://www.w3.org/2000/svg"
   xmlns="http://www.w3.org/2000/svg"
   xmlns:sodipodi="http://sodipodi.sourceforge.net/DTD/sodipodi-0.dtd"
   xmlns:inkscape="http://www.inkscape.org/namespaces/inkscape"
   width="573.90002pt"
   height="574.37225pt"
   viewBox="0 0 573.90003 574.37225"
   version="1.1"
   id="svg63"
   sodipodi:docname="Radio 1.svg"
   inkscape:version="0.92.0 r15299">
  <metadata
     id="metadata69">
    <rdf:RDF>
      <cc:Work
         rdf:about="">
        <dc:format>image/svg+xml</dc:format>
        <dc:type
           rdf:resource="http://purl.org/dc/dcmitype/StillImage" />
        <dc:title></dc:title>
      </cc:Work>
    </rdf:RDF>
  </metadata>
  <defs
     id="defs67" />
  <sodipodi:namedview
     pagecolor="#ffffff"
     bordercolor="#666666"
     borderopacity="1"
     objecttolerance="10"
     gridtolerance="10"
     guidetolerance="10"
     inkscape:pageopacity="0"
     inkscape:pageshadow="2"
     inkscape:window-width="1920"
     inkscape:window-height="1017"
     id="namedview65"
     showgrid="false"
     fit-margin-top="0"
     fit-margin-left="0"
     fit-margin-right="0"
     fit-margin-bottom="0"
     inkscape:zoom="0.72345607"
     inkscape:cx="258.40077"
     inkscape:cy="440.93403"
     inkscape:window-x="-8"
     inkscape:window-y="-8"
     inkscape:window-maximized="1"
     inkscape:current-layer="svg63" />
  <g
     id="#000000ff"
     transform="translate(-58.12,-58.86)"
     style="fill:#ffffff;fill-opacity:1">
    <path
       d="m 565.92,58.86 0.1,269.37 -27.58,8.13 -0.16,-168.85 -15.55,16.59 -7.68,-50.06 z"
       id="path35"
       inkscape:connector-curvature="0"
       style="opacity:1;fill:#ffffff;fill-opacity:1"
       sodipodi:nodetypes="ccccccc" />
    <path
       d="m 417.57,61.84 c 5.2,-1.11 10.83,-0.6 15.48,2.1 8.68,4.82 14.37,13.41 18.95,21.95 11.48,22.82 16.4,48.29 18.76,73.54 1.86,21.12 2.16,42.36 1.08,63.53 -1.25,24.4 -4.51,48.92 -12.46,72.11 -3.87,10.92 -8.57,21.75 -15.69,30.98 -4.98,6.04 -11.5,11.83 -19.69,12.36 -9.03,0.59 -16.99,-5.32 -22.3,-12.11 -10.43,-13.34 -16.33,-29.59 -20.36,-45.87 -6.43,-25.28 -8.63,-51.44 -8.95,-77.46 -0.2,-29.73 2.15,-59.71 9.88,-88.53 3.76,-14.18 9.07,-28.28 18.11,-40 4.32,-5.74 10.11,-10.75 17.19,-12.6 m 1.79,78.6 c -7.08,3.33 -9.8,11.51 -11.93,18.47 -3.61,13.05 -4.32,26.67 -4.45,40.14 0.19,14.4 0.94,29.01 5.14,42.88 1.88,5.55 4.2,11.46 9.06,15.07 3.29,2.54 8.25,2.46 11.41,-0.27 4.47,-3.71 6.69,-9.33 8.41,-14.71 4.31,-14.6 4.89,-29.95 5,-45.06 -0.44,-15.99 -1.09,-32.6 -7.69,-47.44 -2.53,-5.5 -8.28,-11.93 -14.95,-9.08 z"
       id="path37"
       inkscape:connector-curvature="0"
       style="opacity:1;fill:#ffffff;fill-opacity:1" />
    <path
       d="m 332.5,71.42 c 10.02,-2 20.11,-3.61 30.09,-5.81 0.12,87.51 0.08,175.02 0.02,262.52 -9.92,2.73 -20.1,4.54 -30.08,7.1 0.02,-87.94 0.1,-175.87 -0.03,-263.81 z"
       id="path39"
       inkscape:connector-curvature="0"
       style="opacity:1;fill:#ffffff;fill-opacity:1" />
    <path
       d="m 61.79,68 c 12.43,-0.01 24.86,0.01 37.3,-0.01 6.6,-0.05 13.17,2.45 17.96,7.01 5.56,5.32 9.02,12.43 11.54,19.61 3.8,11.41 5.42,23.45 6.09,35.43 1.02,13.65 0.51,27.38 -0.74,41 -1.56,14.89 -4.62,30.13 -12.93,42.83 4.98,34.48 10.55,68.89 15.62,103.36 0.38,-1.71 0.71,-3.43 0.9,-5.17 10.04,-81.36 20.38,-162.69 30.39,-244.05 12.1,-0.03 24.2,-0.01 36.29,-0.01 10.47,86.38 20.74,172.78 31.22,259.15 -10.91,2.95 -21.75,6.16 -32.66,9.13 -1.69,-15.95 -3.15,-31.94 -4.92,-47.88 -8.26,0.07 -16.51,0.06 -24.77,0 -1.87,16.34 -3.3,32.73 -4.94,49.09 -10.67,-3.11 -21.44,-5.89 -32.07,-9.15 -0.24,-0.31 -0.74,-0.94 -0.99,-1.25 -9.51,3.35 -18.92,6.98 -28.41,10.41 L 92.49,224.8 91.89,330.71 c -10.06,2.14 -20.08,4.54 -30.12,6.8 C 61.79,247.68 61.76,157.84 61.79,68 m 30.26,71.47 c -0.1,20.9 -0.03,41.8 -0.04,62.71 3.13,-0.25 6.17,-1.73 7.74,-4.55 4.53,-7.31 4.89,-16.27 5.24,-24.62 0.02,-9.26 -0.07,-19.04 -4.34,-27.49 -1.6,-3.42 -4.93,-5.53 -8.6,-6.05 m 86.25,83.18 13.68,-0.03 -6.53,-76.75 -7.15,76.78 m -41.75,97.23 c -0.18,2.15 -0.35,4.31 -0.58,6.46 0.47,-0.1 1.41,-0.31 1.87,-0.42 -0.27,-2.05 -0.63,-4.08 -1.29,-6.04 z"
       id="path41"
       inkscape:connector-curvature="0"
       style="opacity:1;fill:#ffffff;fill-opacity:1"
       sodipodi:nodetypes="ccccccccccccccccccccccccccccccccccccc" />
    <path
       d="m 240.3,68.05 c 11.92,-0.11 23.85,-0.04 35.78,-0.05 8.75,0.06 16.25,5.82 21.27,12.58 8.38,11.79 13.41,25.58 17,39.5 5.08,20.26 7.46,41.13 8.23,61.98 1,21.66 0.11,43.42 -2.46,64.96 -2.6,19.8 -6.52,39.74 -15.08,57.92 -4.06,8.17 -8.74,16.57 -16.53,21.76 -3.67,2.44 -8,3.96 -12.43,3.94 -11.92,0.06 -23.85,-0.03 -35.77,0.04 0.06,-87.54 0.08,-175.09 -0.01,-262.63 m 30.69,77.24 c 0.03,35.95 -0.01,71.9 0.02,107.85 5.3,0.08 9.93,-3.29 12.59,-7.68 5.08,-8.19 6.58,-17.93 7.78,-27.32 0.8,-8.97 1.28,-17.99 0.83,-26.99 -0.75,-12.46 -1.56,-25.54 -7.62,-36.74 -2.63,-5.11 -7.66,-9.1 -13.6,-9.12 z"
       id="path43"
       inkscape:connector-curvature="0"
       style="opacity:1;fill:#ffffff;fill-opacity:1" />
    <path
       d="m 599.34,83.5 c 10.89,-3.8 21.79,-7.61 32.65,-11.51 0.01,3.55 0.06,7.11 -0.09,10.66 -1.42,0.35 -2.82,0.7 -4.22,1.06 -0.03,3.46 -0.06,6.93 0.03,10.39 1.43,0.32 2.85,0.66 4.29,1 0,3.59 0.02,7.18 -0.08,10.77 -10.84,-3.83 -21.65,-7.72 -32.53,-11.41 -0.07,-3.65 -0.05,-7.31 -0.05,-10.96 m 10.68,5.38 c 3.54,1.17 7.16,2.09 10.75,3.08 0.01,-2.03 0,-4.07 0.02,-6.1 -3.62,0.92 -7.17,2.04 -10.77,3.02 z"
       id="path45"
       inkscape:connector-curvature="0"
       style="opacity:1;fill:#ffffff;fill-opacity:1" />
    <path
       d="m 599.32,200.28 c 10.87,0.12 21.75,0.08 32.63,0.02 0.07,3.45 0.05,6.9 0.05,10.35 -4.19,-0.01 -8.37,0.04 -12.56,0 0,3.23 -0.01,6.47 0.03,9.72 4.16,-0.05 8.32,0.01 12.48,-0.06 0.07,3.56 0.05,7.13 0.05,10.69 -10.9,-0.04 -21.8,0.09 -32.69,-0.07 0.05,-3.54 0.04,-7.09 0,-10.63 3.67,0.07 7.35,0.05 11.03,0.03 -0.01,-3.23 -0.02,-6.45 0,-9.67 -3.68,-0.01 -7.36,0 -11.03,-0.01 0.04,-3.46 0.05,-6.91 0.01,-10.37 z"
       id="path47"
       inkscape:connector-curvature="0"
       style="opacity:1;fill:#ffffff;fill-opacity:1" />
    <path
       d="m 599.27024,336.94203 c 10.85011,-3.89198 21.82295,-7.7008 32.71976,-11.47203 0.01,3.55 0.01,7.11 0,10.67 -1.44,0.37 -2.89,0.76 -4.32,1.14 -0.03,3.4 -0.02,6.79 -0.04,10.19 1.45,0.45 2.92,0.89 4.39,1.35 -0.03,3.55 -0.03,7.09 -0.03,10.64 -10.88,-3.96 -21.81,-7.77 -32.68,-11.73 m 10.68,-5.36 c 3.58,1.08 7.19,2.08 10.77,3.18 0.01,-2.09 0.01,-4.19 -0.03,-6.27 -3.56,1.1 -7.19,1.97 -10.74,3.09 z"
       id="path49"
       inkscape:connector-curvature="0"
       style="opacity:1;fill:#ffffff;fill-opacity:1"
       sodipodi:nodetypes="cccccccccccc" />
    <path
       d="m 616.78,457.16 c 2.27,-6.71 10.48,-2.84 15.22,-5.73 -0.02,3.72 0.05,7.44 -0.09,11.16 -3.31,0.69 -6.96,-0.24 -10.07,1.19 -1.65,2.32 -1.11,5.3 -1.21,7.97 3.79,0.04 7.58,0.03 11.37,0.03 v 10.44 c -10.87,0.04 -21.74,-0.09 -32.61,0.06 -0.06,-6.1 -0.1,-12.2 -0.01,-18.3 0.23,-3.26 0.6,-7.02 3.22,-9.32 4.42,-3.12 11.23,-2.27 14.18,2.5 m -9.36,14.61 h 5.93 c 0,0 0.0116,-3.39381 0.0174,-5.09072 0.007,-2.14312 -0.83805,-4.69666 -3.4474,-4.41928 -2.17274,0.23097 -2.58627,2.57668 -2.56328,4.42386 0.0211,1.69538 0.0633,5.08614 0.0633,5.08614 z"
       id="path51"
       inkscape:connector-curvature="0"
       style="opacity:1;fill:#ffffff;fill-opacity:1"
       sodipodi:nodetypes="cccccccccccccsssc" />
    <path
       d="m 604.46,579.38 c 5.02,-2.88 12.68,-2.05 15.85,3.19 2.37,4.26 1.83,9.31 1.93,14 3.25,-0.02 6.5,-0.01 9.76,-0.01 v 10.66 c -10.86,0.03 -21.72,-0.06 -32.58,0.04 -0.11,-5.75 -0.14,-11.51 -0.01,-17.25 0.05,-4.01 1.36,-8.5 5.05,-10.63 m 2.93513,12.80714 0.0149,4.38286 c 2.19,-0.02 4.38,-0.01 6.58,0.02 -0.0267,-1.4645 1.6e-4,-2.94241 -0.10766,-4.40383 -0.0157,-2.17884 -1.04119,-4.03073 -3.20608,-4.02958 -2.45508,-0.0527 -3.18721,2.07161 -3.28113,4.03055 z"
       id="path53"
       inkscape:connector-curvature="0"
       style="opacity:1;fill:#ffffff;fill-opacity:1"
       sodipodi:nodetypes="ccccccccccccccc" />
  </g>
  <path
     sodipodi:nodetypes="cccccccccccccccccccccccccccccccccc"
     style="opacity:1;fill:#ce000c"
     inkscape:connector-curvature="0"
     id="path56"
     d="m 0,294.01 c 170.27,0.04 340.54,-0.0203 510.82,0.0197 l -0.1,271.5903 c -10.32,2.74 -20.16,7.47 -30.85,8.68 -5.07,0.6 -9.29,-2.66 -13.31,-5.22 -4.67,-3.09 -9.29,-6.28 -13.8,-9.6 -4.53,-3.15 -5.15,-10.28 -10.85,-11.99 -4.46,-1.94 -8.83,0.87 -12.4,3.3 -3.02,2.33 -6.99,1.97 -10.56,1.87 -14.46,-0.95 -28.87,-4.81 -41.43,-12.15 -3.95,-1.84 -4.1,-7.72 -8.69,-8.62 -10.07,-2.61 -20.51,-3.91 -30.92,-3.41 -5.24,0.27 -10.64,-0.44 -15.74,1.12 -5.52,2.87 -8.29,9.5 -14.34,11.54 -5.95,1.12 -12.04,-0.01 -18,-0.43 -4.67,-0.3 -7.71,4.02 -11.94,5.02 -6.83,0.25 -11.15,-7.12 -17.96,-7.15 -3.44,-0.45 -7.78,0.86 -10.25,-2.3 -2.84,-3.45 -5.15,-7.56 -9.21,-9.76 -7.54,-4.24 -16.49,-3 -24.68,-2.02 -7.66,0.1 -15.85,1.37 -22.98,-2.16 -3.38,-5.49 -10.52,-4.23 -15.97,-5.26 -5.82,-1.29 -8.52,-7.31 -10.98,-12.12 -3.48,-6.99 -6.35,-15.49 -13.83,-19.18 -6.14,-2.8 -12.27,1.11 -18.11,2.71 -5.11,1.16 -8.36,-3.95 -12.9,-5.03 -8.65,-1.26 -17.14,1.82 -25.79,1 -5.79,5.73 -10.98,13.29 -19.48,15.03 -4.24,1 -7.22,-2.53 -9.71,-5.32 -2.22,-2.67 -5.77,-3.32 -8.91,-4.33 -4.32,-1.2 -8.65,-2.72 -13.2,-2.61 -6.03,-0.28 -11.87,2 -17.92,1.31 -9.35,-0.4 -17.13025,-6.25 -25.98025,-8.48 V 294.02975" />
  <path
     style="opacity:1;fill:#ffffff;fill-opacity:1;stroke-width:0.99999994"
     d="m 94.7878,305.37503 c -5.39735,0.0276 -10.78914,0.9885 -15.83789,2.89599 -13.65954,4.96359 -24.50931,16.0545 -30.77197,29.01856 -0.86529,1.79227 -1.62346,3.18996 -2.81104,5.94434 -4.91459,11.58513 -6.83778,24.49392 -4.48681,36.92724 1.92,9.61 7.01951,19.0694 15.49951,24.3794 7.7,4.92 17.99051,5.95939 26.27051,1.87939 -8.67,11.71998 -17.47047,23.40005 -27.48047,34.04003 -3.42,3.31002 -7.86891,5.83085 -9.87891,10.36085 0.82,1.74 1.6592,3.62011 3.4292,4.62011 7.94,5.17001 17.96017,6.4701 27.18018,4.8501 7.39,-1.35 13.03981,-6.80998 17.81982,-12.22998 13.73,-16.04999 25.24046,-34.11106 33.48047,-53.58105 7.38999,-18.3 11.81944,-38.76983 7.18945,-58.31982 -2.48,-10.96001 -9.28925,-21.16981 -19.46924,-26.29981 -6.24375,-3.015 -13.19336,-4.5209 -20.13281,-4.48535 z m 102.22705,0.8833 c -2.73329,0.0411 -5.38731,0.5165 -7.1748,2.82275 -6.11001,7.5 -11.84025,15.30885 -18.24024,22.56885 -3.06,3.95 -7.04007,7.16074 -9.58008,11.51074 -1.26,2.06 -1.29914,5.49045 1.13086,6.71045 4.02999,2.02 8.07929,3.98967 12.0293,6.15967 -6.51,25.33 -12.85994,50.69971 -18.68994,76.19971 -1.05999,4.23 -1.50003,8.57063 -2.02002,12.89062 -0.42,3.77 2.28957,7.26942 5.80957,8.39942 6.26999,2.16 13.05056,1.91935 19.58057,2.33935 3.35001,0.48 6.85025,-1.28867 8.26025,-4.38868 2.80002,-5.73 3.85936,-12.07998 5.33935,-18.22998 3.77001,-16.65 7.43063,-33.33066 11.39063,-49.93065 5.64,-21.68 11.01949,-43.44065 16.47949,-65.16065 0.3,-2.54 -0.81975,-5.07898 -2.75976,-6.70899 -4.47,-4.11999 -10.83973,-5.19033 -16.71973,-5.09033 -1.52625,0.015 -3.19547,-0.11695 -4.83545,-0.0923 z M 92.09982,335.93167 c 1.75194,0.0435 3.48105,0.49998 5.01855,1.44873 3.85,2.44 5.61,7.04993 6,11.41992 0.46,9.69 -0.60909,19.69981 -4.80909,28.54981 -1.68999,3.81999 -3.99113,7.31034 -6.16113,10.86035 0.48,-4.4 -0.0897,-9.74008 -3.90966,-12.58008 -1.67754,-1.38338 -3.80334,-1.36977 -5.86084,-1.49707 -1.16921,0.0623 -2.02238,-0.38841 -2.90918,-0.95215 -4.20138,-2.91903 -6.12753,-8.44356 -5.80957,-13.43994 0.72,-7.87 3.89053,-16.0002 10.29052,-20.9502 2.25,-1.85625 5.23047,-2.93183 8.1504,-2.85937 z m 385.80028,80.88867 c -5.04998,-0.07 -7.45002,4.96098 -9.52002,8.75097 -4.92,9.87999 -9.38073,19.9788 -13.99072,30.00879 -1.11,2.30001 -1.94945,4.8 -3.66944,6.75 -0.52,-6.09 0.88976,-12.10016 0.73975,-18.18017 -0.01,-6.64999 0.63988,-13.31971 0.10987,-19.94971 -0.24,-2.94 -3.50977,-3.79952 -5.75977,-4.76953 -4.51999,-1.98999 -9.59044,-2.65074 -14.44043,-1.76074 -3.37001,1.91999 -4.25933,5.98105 -5.56934,9.33105 -6.39,18.49 -12.43054,37.10951 -17.56054,55.99952 -0.42,2.40999 -1.9592,5.54026 0.3208,7.51025 4.08,2.68001 9.21047,3.18036 13.98047,3.13037 1.72,-1.26 2.009,-3.54088 2.729,-5.40088 4.55,-14.94 7.06043,-30.43948 12.19043,-45.20947 -1.05,12.64999 -1.75014,25.33002 -2.14014,38.02002 0.14001,3 -0.81013,6.58995 1.60986,8.93994 3.56001,2.82 8.40968,4.62055 12.90968,3.08056 3.05999,-0.78 4.44021,-3.88118 5.72021,-6.45117 6.82999,-14.45001 14.30066,-28.65891 19.93068,-43.62891 -0.75,15.18 -5.05052,29.97943 -6.02053,45.14942 0.16001,1.45001 0.71062,2.82022 1.12061,4.22022 4.44,1.53 9.44965,1.79012 13.88965,0.12011 3.99001,-2.31999 2.63947,-7.53006 3.20948,-11.31006 2.65,-17.22 3.18989,-34.66087 5.6499,-51.90088 0.21999,-3.21999 0.76104,-7.11003 -1.91895,-9.52002 -1.69606,-1.26338 -3.60913,-1.83114 -5.61007,-2.05292 z m -65.24268,1.72119 c -0.25077,-0.008 -0.50357,-0.005 -0.75732,0.009 -11.16,0.12 -22.3302,-0.2092 -33.47022,0.3208 -4.71999,0.91999 -5.21964,6.44926 -6.38964,10.23926 -0.24,2.43 -1.96969,5.73044 0.0703,7.69043 1.99999,0.20001 4.01955,0.0596 6.03955,0.0395 -0.87,3.87 -1.67943,7.77029 -2.91943,11.55029 -3.79001,-0.22 -6.81119,3.08045 -6.97119,6.71045 l -1.74902,9.8789 c 0.43999,1.86 2.61932,1.73989 4.06933,2.12989 -0.94001,5.79 -2.60913,11.41104 -4.11914,17.06103 -0.60999,2.64 -0.93077,6.08901 1.46923,7.97901 4.21002,2.16 9.11992,1.36031 13.66993,1.57031 1.1,-1.18001 2.38046,-2.34024 2.73047,-3.99024 2.01999,-7.69999 4.29975,-15.34968 5.75976,-23.17968 5.81001,0.24999 11.63968,-0.16937 17.40967,-0.83936 3.94001,-1.98 2.70047,-6.99024 3.48047,-10.51025 0.58001,-2.59 1.70947,-6.87077 -2.04053,-7.53076 -4.66999,-0.31 -9.35027,-0.0691 -14.03027,-0.0791 0.64,-3.61001 1.44069,-7.18068 2.45068,-10.70069 4.52001,-0.04 9.06056,0.17014 13.58057,-0.10986 1.61,0.22 2.84909,-0.98992 3.30908,-2.41992 1.81001,-4.73001 4.04002,-9.48945 3.52002,-14.68946 -1.67125,-0.53374 -3.35683,-1.07608 -5.11231,-1.12939 z m -185.08593,18.61816 c -3.36814,0.009 -6.68764,1.04018 -9.2417,3.25049 -6.87,5.20999 -9.22011,16.94034 -2.37012,23.09034 -1.84796,6.74421 -4.62045,13.30988 -5.68401,20.24363 -0.11554,0.85593 -0.21985,1.62004 -0.31736,2.37501 -0.15559,0.99742 0.40802,1.14218 1.28088,1.53662 1.99712,0.88934 4.17995,1.68954 6.11063,0.17432 5.76999,-3.87999 10.37028,-9.30938 14.78028,-14.62939 5.7,-7.38 11.84001,-16.18002 10.27002,-26.02002 -1.79157,-6.33281 -8.39853,-10.03886 -14.82862,-10.021 z"
     id="path56-5-3"
     inkscape:connector-curvature="0"
     sodipodi:nodetypes="ccccccccccccccccccccccccccccccccccccccccccccccccccccccccccccccccccccccscccccccccccccccccccccccccccccccccccc" />
  <path
     style="opacity:1;fill:#ffffff;fill-opacity:1;stroke-width:0.99999994"
     d="m 329.70772,305.40433 c -5.39735,0.0276 -10.78914,0.9885 -15.83789,2.89599 -13.65954,4.96359 -24.50931,16.0545 -30.77197,29.01856 -0.86529,1.79227 -1.62346,3.18996 -2.81104,5.94434 -4.91459,11.58513 -6.83778,24.49392 -4.48681,36.92724 1.92,9.61 7.01951,19.0694 15.49951,24.3794 7.7,4.92 17.99051,5.95939 26.27051,1.87939 -8.67,11.71998 -17.47047,23.40005 -27.48047,34.04003 -3.42,3.31002 -7.86891,5.83085 -9.87891,10.36085 0.82,1.74 1.6592,3.62011 3.4292,4.62011 7.94,5.17001 17.96017,6.4701 27.18018,4.8501 7.39,-1.35 13.03981,-6.80998 17.81982,-12.22998 13.73,-16.04999 25.24046,-34.11106 33.48047,-53.58105 7.38999,-18.3 11.81944,-38.76983 7.18945,-58.31982 -2.48,-10.96001 -9.28925,-21.16981 -19.46924,-26.29981 -6.24375,-3.015 -13.19336,-4.5209 -20.13281,-4.48535 z m -2.68798,30.55664 c 1.75194,0.0435 3.48105,0.49998 5.01855,1.44873 3.85,2.44 5.61,7.04993 6,11.41992 0.46,9.69 -0.60909,19.69981 -4.80909,28.54981 -1.68999,3.81999 -3.99113,7.31034 -6.16113,10.86035 0.48,-4.4 -0.0897,-9.74008 -3.90966,-12.58008 -1.67754,-1.38338 -3.80334,-1.36977 -5.86084,-1.49707 -1.16921,0.0623 -2.02238,-0.38841 -2.90918,-0.95215 -4.20138,-2.91903 -6.12753,-8.44356 -5.80957,-13.43994 0.72,-7.87 3.89053,-16.0002 10.29052,-20.9502 2.25,-1.85625 5.23047,-2.93183 8.1504,-2.85937 z"
     id="path56-5-3-3"
     inkscape:connector-curvature="0"
     sodipodi:nodetypes="ccccccccccccccccccccccccccc" />
</svg>
