<?xml version="1.0" encoding="UTF-8"?>
<!-- Generator: Adobe Illustrator 16.0.0, SVG Export Plug-In . SVG Version: 6.00 Build 0)  -->
<svg id="Layer_1" width="657.51" height="69" enable-background="new 0 0 841.89 595.275" version="1.1" viewBox="0 0 657.51 69" xml:space="preserve" xmlns="http://www.w3.org/2000/svg" xmlns:cc="http://creativecommons.org/ns#" xmlns:dc="http://purl.org/dc/elements/1.1/" xmlns:rdf="http://www.w3.org/1999/02/22-rdf-syntax-ns#"><metadata id="metadata302"><rdf:RDF><cc:Work rdf:about=""><dc:format>image/svg+xml</dc:format><dc:type rdf:resource="http://purl.org/dc/dcmitype/StillImage"/><dc:title/></cc:Work></rdf:RDF></metadata><g id="g249" transform="matrix(1.1762 0 0 1.1762 -56.183 -322.26)"><path id="path235" d="m54.784 298.81c3.867 0 7.015-3.147 7.015-7.016s-3.147-7.016-7.015-7.016c-3.87 0-7.016 3.147-7.016 7.016s3.146 7.016 7.016 7.016"/><path id="path237" d="m54.784 321.31c3.867 0 7.015-3.146 7.015-7.012 0-3.871-3.147-7.022-7.015-7.022-3.87 0-7.016 3.151-7.016 7.022 0 3.865 3.146 7.012 7.016 7.012"/><path id="path239" d="m99.866 305.25 7.145 14.618c0.109 0.22 0.217 0.495 0.217 0.767 0 0.826-0.658 1.596-1.592 1.596-0.824 0-1.209-0.33-1.539-0.934l-7.749-15.772h-13.573v15.058c0 0.934-0.66 1.648-1.648 1.648-0.936 0-1.65-0.715-1.65-1.648v-33.742c0-0.933 0.77-1.648 1.65-1.648h15.771c7.255 0 11.267 4.341 11.267 10.167 0 4.998-2.914 8.9-8.299 9.89m-2.308-17.093h-14.783v14.399h14.782c4.561 0 7.31-3.024 7.31-7.198 0-4.177-2.749-7.201-7.309-7.201"/><path id="path241" d="m153.6 319.98c0.112 0.219 0.221 0.494 0.221 0.77 0 0.826-0.603 1.484-1.593 1.484-0.824 0-1.265-0.495-1.484-1.045l-4.506-10.055h-18.905l-4.506 10.055c-0.219 0.55-0.66 1.045-1.484 1.045-0.988 0-1.594-0.658-1.594-1.484 0-0.275 0.11-0.551 0.222-0.77l15.276-34.125c0.33-0.714 0.77-1.101 1.539-1.101s1.209 0.386 1.538 1.101zm-8.625-11.757-8.189-18.852-8.188 18.852zm-6.266-31.875c0.273-0.331 0.769-0.66 1.319-0.66 0.824 0 1.375 0.66 1.375 1.265 0 0.492-0.112 0.714-0.441 1.098l-3.021 3.244c-0.494 0.547-0.825 0.767-1.319 0.767-0.77 0-1.375-0.603-1.375-1.262 0-0.386 0.165-0.714 0.44-1.045z"/><path id="path243" d="m179.26 321.8h-10.442c-0.989 0-1.648-0.77-1.648-1.65v-33.3c0-0.933 0.715-1.648 1.648-1.648h10.442c11.1 0 18.245 8.076 18.245 18.298-1e-3 10.222-7.145 18.3-18.245 18.3m-0.22-33.634h-8.573v30.665h8.573c9.562 0 15.167-6.703 15.167-15.332 0-8.626-5.606-15.333-15.167-15.333"/><path id="path245" d="m212.61 322.23c-0.934 0-1.65-0.715-1.65-1.648v-34.18c0-0.937 0.716-1.651 1.65-1.651s1.649 0.714 1.649 1.651v34.18c1e-3 0.934-0.715 1.648-1.649 1.648"/><path id="path247" d="m246.57 322.45c-10.989 0-18.465-8.736-18.465-18.959 0-10.222 7.476-18.959 18.465-18.959 10.991 0 18.355 8.737 18.355 18.959 1e-3 10.223-7.363 18.959-18.355 18.959m0-35.006c-9.453 0-15.167 7.64-15.167 16.047s5.715 16.047 15.167 16.047 15.058-7.64 15.058-16.047-5.605-16.047-15.058-16.047"/></g><g id="g4542" transform="matrix(1.2208 0 0 1.2208 -12.271 -28.767)" fill="#662d91"><path id="path251" d="m257.57 46.5c-2.693 0-5.751-0.831-7.678-2.328-0.666-0.531-1.13-1.196-1.13-1.926 0-1.033 0.663-1.729 1.695-1.729 0.366 0 0.696 0.1 1.032 0.297 1.793 1.132 3.023 2.127 6.147 2.127 3.192 0 4.454-1.295 4.454-2.791 0-1.627-1.295-2.455-5.283-3.521-6.017-1.596-7.813-3.525-7.813-6.85 0-4.053 3.489-6.215 8.775-6.215 1.197 0 2.825 0.201 4.254 0.6 1.529 0.431 3.458 1.395 3.458 2.725 0 0.896-0.532 1.827-1.663 1.827-0.266 0-0.532-0.03-0.798-0.163-1.527-0.699-3.123-1.398-5.219-1.398-2.957 0-4.75 0.799-4.75 2.526 0 1.63 1.328 2.195 5.317 3.358 4.554 1.328 7.777 2.625 7.777 6.879 0 3.856-2.925 6.582-8.575 6.582"/><path id="path253" d="m275.72 46.11c-1.13 0-2.062-0.931-2.062-2.063v-18.279c0-1.131 0.932-2.063 2.062-2.063s1.996 0.932 1.996 2.063v16.518h9.705c1.029 0 1.895 0.832 1.895 1.895 0 1.064-0.866 1.896-1.895 1.93h-11.701z"/><path id="path255" d="m304.77 46.5c-6.515 0-11.367-5.051-11.367-11.467s4.853-11.469 11.367-11.469 11.37 5.053 11.37 11.469-4.855 11.467-11.37 11.467m0-19.277c-4.52 0-7.279 3.59-7.279 7.811s2.759 7.81 7.279 7.81c4.519 0 7.28-3.589 7.28-7.81s-2.761-7.811-7.28-7.811"/><path id="path257" d="m340.97 26.39-8.21 18.879c-0.299 0.666-0.994 1.098-1.727 1.098-0.764 0-1.429-0.398-1.729-1.098l-8.244-18.879c-0.099-0.231-0.165-0.498-0.165-0.764 0-0.998 0.831-1.929 1.86-1.929 0.732 0 1.462 0.398 1.761 1.097l6.482 15.457 6.549-15.457c0.3-0.664 0.964-1.097 1.693-1.097 1.064 0 1.895 0.865 1.895 1.895 1e-3 0.267-0.064 0.532-0.165 0.798"/><path id="path259" d="m358.63 41.22h-9.838l-1.896 4.057c-0.365 0.666-0.829 1.098-1.694 1.098-1.196 0-1.927-0.93-1.927-1.895 0-0.266 0.065-0.532 0.198-0.799l8.509-18.912c0.301-0.665 0.865-1.063 1.729-1.063 0.865 0 1.428 0.364 1.728 1.063l8.509 18.912c0.134 0.267 0.201 0.533 0.201 0.799 0 0.965-0.732 1.895-1.929 1.895-0.863 0-1.33-0.398-1.694-1.098zm-4.918-11.996-3.457 8.441h6.913z"/><path id="path261" d="m373.29 46.37c-1.129 0-2.06-0.93-2.06-2.062v-18.546c0-1.131 0.931-2.062 2.06-2.062 1.132 0 1.994 0.931 1.994 2.062v8.142l10.006-9.672c0.364-0.364 0.831-0.531 1.329-0.531 0.998 0 1.96 0.798 1.96 1.86 0 0.631-0.197 1.099-0.596 1.463l-5.785 5.584 6.749 10.77c0.232 0.334 0.331 0.764 0.331 1.131 0 0.896-0.631 1.861-1.861 1.861-0.764 0-1.362-0.297-1.692-0.831l-6.35-10.204-4.091 3.955v5.019c0 1.131-0.863 2.061-1.994 2.061"/><path id="path263" d="m398.89 46.37c-1.132 0-2.062-0.93-2.062-2.062v-18.546c0-1.131 0.93-2.062 2.062-2.062 1.129 0 1.994 0.931 1.994 2.062v18.546c0 1.132-0.865 2.062-1.994 2.062"/><path id="path265" d="m423.49 41.22h-9.837l-1.896 4.057c-0.364 0.666-0.828 1.098-1.694 1.098-1.196 0-1.927-0.93-1.927-1.895 0-0.266 0.065-0.532 0.199-0.799l8.509-18.912c0.3-0.665 0.865-1.063 1.729-1.063 0.865 0 1.428 0.364 1.728 1.063l8.509 18.912c0.134 0.267 0.201 0.533 0.201 0.799 0 0.965-0.732 1.895-1.929 1.895-0.863 0-1.33-0.398-1.694-1.098zm-4.918-11.996-3.457 8.441h6.913z"/></g><g id="g4557" transform="matrix(1.2208 0 0 1.2208 -256.99 12.233)" fill="#662d91"><path id="path267" d="m451.28 46.37c-1.129 0-2.06-0.93-2.06-2.062v-18.546c0-1.131 0.931-2.062 2.06-2.062 1.132 0 1.994 0.931 1.994 2.062v18.546c0 1.132-0.862 2.062-1.994 2.062"/><path id="path269" d="m478.84 46.37c-0.631 0-1.097-0.234-1.463-0.698l-11.467-14.491v13.295c0 1.063-0.863 1.895-1.926 1.895-1.033 0-1.896-0.865-1.896-1.895v-18.847c0-1.032 0.763-1.929 1.993-1.929 0.532 0 1.099 0.3 1.395 0.698l11.468 14.492v-13.261c0-1.032 0.765-1.929 1.896-1.929 1.129 0 1.927 0.896 1.927 1.929v18.846c0 1.029-0.798 1.895-1.927 1.895"/><path id="path271" d="m504.8 27.79h-5.683v16.521c0 1.132-0.931 2.062-2.063 2.062-1.128 0-1.994-0.93-1.994-2.062v-16.521h-5.718c-1.064 0-1.925-0.862-1.925-1.893 0-1.063 0.831-1.93 1.925-1.93h15.457c1.063 0 1.93 0.867 1.93 1.93 1e-3 1.03-0.831 1.893-1.929 1.893"/><path id="path273" d="m527.91 46.11h-12.467c-1.128 0-2.06-0.9-2.06-2.027v-18.082c0-1.131 0.932-2.029 2.06-2.029h11.966c1.063 0 1.929 0.799 1.929 1.863 0 1.063-0.866 1.895-1.929 1.895h-9.972v5.283h5.485c1.03 0 1.896 0.832 1.896 1.896s-0.865 1.862-1.896 1.862h-5.485v5.584h10.473c1.063 0 1.926 0.831 1.926 1.895 0 1.063-0.864 1.86-1.926 1.86"/><path id="path275" d="m555.26 44.34c0 1.029-0.798 2.027-2.028 2.027-0.897 0-1.462-0.398-1.794-1.098l-3.889-8.011h-6.682v7.081c0 1.128-0.896 2.027-2.024 2.027-1.133 0-2.028-0.899-2.028-2.027v-18.348c0-1.131 0.896-2.029 2.028-2.029h8.539c5.521 0 7.878 2.728 7.878 6.648 0 2.594-1.127 4.82-3.654 5.918l3.423 6.945c0.134 0.268 0.231 0.566 0.231 0.867m-7.312-16.653h-7.08v6.081h7.08c2.227 0 3.225-1.625 3.225-3.123-1e-3 -1.461-0.999-2.958-3.225-2.958"/><path id="path277" d="m579.86 46.37c-0.631 0-1.095-0.234-1.462-0.698l-11.465-14.491v13.295c0 1.063-0.865 1.895-1.93 1.895-1.03 0-1.896-0.865-1.896-1.895v-18.847c0-1.032 0.767-1.929 1.995-1.929 0.531 0 1.097 0.3 1.397 0.698l11.467 14.492v-13.261c0-1.032 0.764-1.929 1.893-1.929 1.131 0 1.929 0.896 1.929 1.929v18.846c1e-3 1.029-0.797 1.895-1.928 1.895"/><path id="path279" d="m604.23 41.22h-9.838l-1.896 4.057c-0.365 0.666-0.832 1.098-1.694 1.098-1.196 0-1.93-0.93-1.93-1.895 0-0.266 0.068-0.532 0.201-0.799l8.509-18.912c0.297-0.665 0.863-1.063 1.729-1.063 0.862 0 1.429 0.364 1.729 1.063l8.51 18.912c0.132 0.267 0.197 0.533 0.197 0.799 0 0.965-0.729 1.895-1.927 1.895-0.865 0-1.329-0.398-1.697-1.098zm-4.919-11.996-3.457 8.441h6.914z"/><path id="path281" d="m629.07 27.79h-5.687v16.521c0 1.132-0.931 2.062-2.059 2.062-1.132 0-1.994-0.93-1.994-2.062v-16.521h-5.717c-1.064 0-1.93-0.862-1.93-1.893 0-1.063 0.831-1.93 1.93-1.93h15.456c1.063 0 1.927 0.867 1.927 1.93 1e-3 1.03-0.831 1.893-1.926 1.893"/><path id="path283" d="m639.87 46.37c-1.132 0-2.063-0.93-2.063-2.062v-18.546c0-1.131 0.931-2.062 2.063-2.062 1.129 0 1.995 0.931 1.995 2.062v18.546c0 1.132-0.867 2.062-1.995 2.062"/><path id="path285" d="m660.88 46.5c-6.515 0-11.366-5.051-11.366-11.467s4.852-11.469 11.366-11.469 11.369 5.053 11.369 11.469-4.854 11.467-11.369 11.467m0-19.277c-4.521 0-7.278 3.59-7.278 7.811s2.758 7.81 7.278 7.81c4.519 0 7.278-3.589 7.278-7.81s-2.759-7.811-7.278-7.811"/><path id="path287" d="m696.48 46.37c-0.63 0-1.097-0.234-1.462-0.698l-11.468-14.491v13.295c0 1.063-0.863 1.895-1.927 1.895-1.031 0-1.896-0.865-1.896-1.895v-18.847c0-1.032 0.764-1.929 1.994-1.929 0.533 0 1.099 0.3 1.396 0.698l11.468 14.492v-13.261c0-1.032 0.764-1.929 1.895-1.929 1.13 0 1.928 0.896 1.928 1.929v18.846c0 1.029-0.798 1.895-1.928 1.895"/><path id="path289" d="m720.85 41.22h-9.839l-1.896 4.057c-0.364 0.666-0.828 1.098-1.694 1.098-1.196 0-1.925-0.93-1.925-1.895 0-0.266 0.063-0.532 0.197-0.799l8.509-18.912c0.3-0.665 0.865-1.063 1.728-1.063 0.866 0 1.43 0.364 1.729 1.063l8.509 18.912c0.134 0.267 0.201 0.533 0.201 0.799 0 0.965-0.733 1.895-1.929 1.895-0.863 0-1.33-0.398-1.694-1.098zm-4.92-11.996-3.456 8.441h6.912z"/><path id="path291" d="m735.51 46.11c-1.129 0-2.06-0.931-2.06-2.063v-18.279c0-1.131 0.931-2.062 2.06-2.062 1.132 0 1.994 0.931 1.994 2.062v16.518h9.705c1.033 0 1.895 0.832 1.895 1.895 0 1.064-0.861 1.896-1.895 1.93h-11.699z"/></g></svg>
