<?xml version="1.0" encoding="UTF-8"?>
<svg id="svg56" width="925.09pt" height="306.83pt" version="1.1" viewBox="0 0 925.09 306.83" xmlns="http://www.w3.org/2000/svg" xmlns:cc="http://creativecommons.org/ns#" xmlns:dc="http://purl.org/dc/elements/1.1/" xmlns:rdf="http://www.w3.org/1999/02/22-rdf-syntax-ns#">
 <metadata id="metadata62">
  <rdf:RDF>
   <cc:Work rdf:about="">
    <dc:format>image/svg+xml</dc:format>
    <dc:type rdf:resource="http://purl.org/dc/dcmitype/StillImage"/>
    <dc:title/>
   </cc:Work>
  </rdf:RDF>
 </metadata>
 <path id="path25" d="m241.08 2.474c2.46-3.52 8.67-3.24 10.74 0.56 1.29 2.29 1.06 5.02 1.1 7.55-0.1 18.63 0.13 37.27-0.11 55.89 0.01 4.32-4.63 7.64-8.7 6.1-3.14-0.92-4.47-4.25-4.72-7.23-4.11 4.55-9.95 7.71-16.19 7.55-7.32 0.2-14.27-4.14-17.86-10.43-4.63-8.06-5.13-18.03-2.95-26.92 2-8.28 9.15-15.3 17.8-16.05 7.09-1.1 14.39 1.43 19.33 6.63-0.05-5.52-0.03-11.03-0.03-16.54 0-2.43 0.11-5.06 1.59-7.11m-18.49 28.52c-4.37 2.04-6.5 6.92-7.03 11.47-0.59 5.27-0.14 11.16 3.34 15.43 3.09 3.85 8.92 4.91 13.23 2.57 3.99-2.07 5.95-6.61 6.44-10.88 0.62-5.39 0.07-11.42-3.58-15.7-2.91-3.56-8.23-4.87-12.4-2.89z" fill="#175ea8"/>
 <path id="path27" d="m269.44 0.97403c4.73-1.83 10.44 2.45 9.27 7.61-0.44 5.75-8.47 7.74-12.19 3.81-3.56-3.42-1.84-10.12 2.92-11.42z" fill="#175ea8"/>
 <path id="path29" d="m109.21 20.584c2.31-1.79 5.84-1.86 8.26-0.24 1.74 1.27 2.17 3.5 2.69 5.46 1.98-2.78 4.36-5.76 7.95-6.32 4.9-0.85 10.55 0.48 13.95 4.26 2.95 3.61-0.05 9.75-4.74 9.52-3.61-0.63-7.37-2.73-11.05-1.17-2.69 1.18-3.79 4.2-4.44 6.86-1.97 9.14-0.65 18.55-1.34 27.79-0.34 4.31-5.11 7.29-9.16 5.82-3.36-1.01-4.9-4.69-4.77-7.95-0.03-12.01-0.01-24.02-0.01-36.03 0.03-2.82 0.39-6.04 2.66-8z" fill="#175ea8"/>
 <path id="path31" d="m152.71 23.144c6.06-3.83 13.51-4.31 20.48-3.92 4.88 0.34 10.13 1.15 13.96 4.48 3.65 3.2 4.73 8.26 5.03 12.9 0.33 6.35-0.11 12.7 0.07 19.04 0.1 3.77 1.72 7.25 2.31 10.93 0.37 4.41-5.35 7.8-9.13 5.66-2.54-1.42-4.08-4-5.75-6.28-6.08 4.73-13.75 7.87-21.56 6.76-7.26-0.63-13.98-6.6-14.25-14.1-0.72-7 4.62-13.4 11.26-15.04 7.76-1.93 15.7-3.12 23.36-5.48-0.5-3.04-0.9-7.34-4.55-8.21-5.03-1.13-11.59-1.06-14.88 3.6-1.84 1.99-2.68 5.64-5.87 5.77-3.02 0.51-6.52-1.43-6.95-4.61-0.5-4.72 2.58-9.12 6.47-11.5m8.54 28.58c-4.21 1.73-4.19 8.04-0.41 10.23 4.32 2.51 10.04 1.05 13.78-1.92 3.83-3.05 3.68-8.38 3.85-12.8-5.64 1.86-11.73 2.22-17.22 4.49z" fill="#175ea8"/>
 <path id="path33" d="m267.84 20.264c3.08-1.99 7.72-1.14 9.68 2.04 1.44 2.15 1.23 4.86 1.27 7.33-0.08 11.95 0.07 23.91-0.08 35.86 0.11 4.02-3.34 7.85-7.5 7.39-3.84-0.02-6.53-3.77-6.51-7.37-0.15-12.32-0.01-24.64-0.07-36.96-0.09-3.01 0.41-6.57 3.21-8.29z" fill="#175ea8"/>
 <path id="path35" d="m305.65 20.324c8.98-2.41 19.49-1.09 26.56 5.32 9.35 8.62 10.47 23.81 4.76 34.75-8.38 15.76-33.79 16.82-44.1 2.56-5.56-7.68-6.29-18.13-3.52-27.01 2.32-7.55 8.65-13.63 16.3-15.62m3.07 10.92c-4.47 2.35-6.28 7.63-6.64 12.38-0.4 5.44 0.34 11.64 4.45 15.64 4.95 4.73 14.16 3.35 17.32-2.82 3.17-6.08 3.14-13.76 0.47-20.02-2.5-5.82-10.12-8.16-15.6-5.18z" fill="#175ea8"/>
 <path id="path37" d="m0.0125 34.574c-0.34-8.05 7.78-15.35 15.78-13.35 6.09 1.44 10.11 6.93 12.46 12.39 5.2 12.43 14.01 23.05 24.19 31.75 29.52 24.65 68.57 36.95 106.84 35.98 69.8-0.32 139.61-0.2 209.41-0.24 0.46-6.07-1.68-13.19 2.67-18.28 4.27-5.43 13.37-5.48 17.7-0.09 4.45 5.08 2.31 12.26 2.8 18.36 9.75 0.02 19.5 0 29.25 0.05 0.25-3.55 0.22-7.37 2.25-10.46 3.83-6.13 14.02-6.3 18.31-0.6 2.48 3.1 2.49 7.26 2.73 11.02 9.44-0.02 18.89 0 28.34-0.01 0.49-6.06-1.58-13.17 2.75-18.25 4.21-5.41 13.21-5.51 17.59-0.24 4.59 5.06 2.37 12.35 2.83 18.49 53.76 0.12 107.51 0.15 161.27 0.31 20.04 0.41 40.85 2.72 58.73 12.49 12.23 6.59 21.78 17.61 27.15 30.38 43.06 0.03 86.12 0.06 129.18 0.05 4.49-12.37 19.09-19.65 31.65-15.46-0.46-5.29 2.86-10.85 8.24-11.95 6.1-1.66 12.82 3.37 12.9 9.69 0.08 17.69 0.06 35.39 0.01 53.08 0.02 5.65-5.27 10.52-10.87 10.2-6.25-0.07-10.94-6.19-10.25-12.23-6.54 1.9-13.8 1.39-19.79-1.92-5.51-2.9-9.66-7.96-11.9-13.72-41.59-0.05-83.18-0.03-124.76-0.04-0.01 28.97-0.04 57.93-0.02 86.9 9.28-9.73 18.52-19.51 27.87-29.18 3.03-3 6.21-6.78 10.85-6.83 4.83-0.56 9.91 2.83 10.7 7.74 0.88 4.52-2.41 8.31-5.19 11.44-5.19 5.32-10.9 10.11-16.31 15.21 8.9 14.18 18.12 28.15 26.83 42.45 4.72 6.65-0.45 17.61-8.96 17.05-5.94 0.64-9.1-5.02-11.96-9.18-7.22-11.56-14.18-23.27-21.31-34.88-4.18 3.95-8.37 7.87-12.53 11.83-0.21 7.41 0.44 14.88-0.38 22.27-0.89 6.7-8.2 11.73-14.76 9.5-5.48-1.38-7.96-7.37-7.86-12.56-0.05-43.91 0.03-87.82 0.03-131.73-76.17-0.03-152.34-0.01-228.52-0.01-0.05 5.91 0.15 11.82-0.05 17.73-0.33 5.87-5.84 10.8-11.7 10.57-5.8 0.05-11.11-4.91-11.38-10.72-0.18-5.85-0.02-11.72-0.08-17.58-9.47-0.01-18.94 0-28.41 0 0 21.58 0 43.17 0.02 64.75 4.78-5.48 10.59-10.46 17.75-12.4 10.19-2.85 22.12-1.96 30.59 4.87 6.98 5.62 10.53 14.58 10.71 23.41 0.42 15.31 0.06 30.63 0.19 45.95-0.01 4.42 0.31 9.22-2.1 13.15-3.69 6.34-14.19 6.86-18.49 0.96-2.01-2.92-2.4-6.58-2.43-10.03-0.03-13.33 0.02-26.66-0.02-39.99-0.18-5.9-0.7-12.23-4.11-17.26-3.25-4.37-9.29-5.11-14.33-4.54-9.25 1.09-16.63 9.58-17.16 18.76-1.11 11.97-0.41 24.01-0.61 36-0.16 5.57 0.84 11.75-2.44 16.66-3.26 4.86-10.37 5.62-15.29 3.08-4.45-2.5-5.41-8.1-5.37-12.75l-0.06-130.62c-9.76 0-19.53-0.01-29.3 0.01-0.06 5.9 0.12 11.8-0.09 17.71-0.34 5.83-5.77 10.76-11.61 10.59-5.81 0.09-11.14-4.87-11.42-10.67-0.18-5.89-0.02-11.78-0.07-17.67-44.5 0.01-89 0.02-133.5 0.04-9.79-0.09-20.18-0.31-29.04 4.51-5.23 2.72-9.28 8.08-9.24 14.15-0.09 37.63 0 75.28-0.03 112.92-0.03 3.41-0.58 7.11-2.93 9.76-4.01 4.67-12.24 4.55-16.06-0.31-2.76-3.24-2.88-7.7-2.91-11.74-6.28 7.49-14.73 13.8-24.66 15.03-10.85 1.8-22.46-1.7-30.22-9.55-9.54-9.38-13.41-23.09-13.67-36.16-0.28-12.17 1.96-25.19 9.96-34.81 12.57-15.72 38.64-17.2 53.45-3.87 1.84 1.55 3.52 3.28 5.2 5.01 0.02-15.1-0.03-30.2 0.03-45.29 0.11-8.51 2.7-17.29 8.65-23.56 11.92-12.31 30.36-13.83 46.53-13.79 46.16-0.03 92.31 0.01 138.46 0 0-8.7-0.01-17.39 0-26.09-71.16 0.02-142.32 0.11-213.48 0.06-24.55-0.05-49.55-2.29-72.65-11.13-22.99-8.56-42.68-24.6-57.33-44.12 0.12 53.92 0.25 107.85 0.4 161.77 16.54-20.21 38.05-36.22 61.79-47 11.97-5.33 24.64-9.33 37.68-10.87 2.9-0.18 6.91-0.36 8.46 2.68 0.43 2.69-1.76 5.34-4.42 5.63-9.19 1.84-17.81 5.75-26 10.21-13.25 7.31-25.53 16.3-36.94 26.22-9.94 8.73-19.29 18.21-27.17 28.85-5.1 7-9.74 14.56-11.85 23.04-1.27 5.29-4.74 10.37-9.99 12.32-4.01 1.58-8.86 0.67-11.91-2.4-4.16-4.12-5.25-10.29-5.3-15.91 0-74.33-0.01-148.66 0.01-222.99m495.91 83.57c-0.01 8.71 0 17.42-0.01 26.13 74.85 0.01 149.7 0.04 224.54 0.02-3.48-5.08-7.67-9.73-12.75-13.23-14.73-10.07-33.18-12-50.53-12.81-53.75-0.45-107.5-0.02-161.25-0.11m-104.03 0.05c-0.01 8.7-0.01 17.39-0.03 26.08 9.77 0.01 19.55 0 29.33 0.01 0-8.7 0.05-17.4 0.04-26.1-9.78 0-19.56 0.01-29.34 0.01m52.46-0.05c-0.01 8.71-0.01 17.42 0 26.14 9.46 0.01 18.93 0.04 28.4 0.04-0.02-8.72 0-17.45-0.01-26.18h-28.39m-299.69 113.11c-7.71 2.75-12.35 10.48-13.99 18.15-1.61 7.8-1.53 16.09 0.89 23.71 1.96 6.04 6.11 11.63 12.08 14.14 8.19 3.66 18.73 1.11 24.09-6.14 5.48-7.18 6.46-16.67 5.89-25.41-0.56-8-3.56-16.36-10.08-21.42-5.23-4.17-12.61-5.31-18.88-3.03z" fill="#175ea8"/>
 <path id="path39" d="m374.55 29.104c8.54-3.18 18.86 1.41 22.37 9.78 3 6.53 1.49 14.75-3.58 19.82-5.03 5.34-13.45 7-20.13 3.97-6.63-2.81-11.15-9.89-10.8-17.1 0.11-7.31 5.23-14.15 12.14-16.47z" fill="#27a451"/>
 <path id="path41" d="m480.58 29.224c10.41-2.89 21.85 5.54 22.25 16.3 1.08 10.67-9.05 20.52-19.69 19.18-10.13-0.71-18.14-11.12-16.05-21.1 1.14-6.9 6.69-12.78 13.49-14.38z" fill="#27a451"/>
 <path id="path43" d="m428.68 37.264c9.32-2.4 19.62 4.09 21.59 13.49 1.71 6.92-1.23 14.63-7.05 18.72-5.43 4-13.16 4.52-19.06 1.23-6.41-3.36-10.34-10.83-9.36-18.02 0.8-7.39 6.63-13.84 13.88-15.42z" fill="#27a451"/>
 <path id="path45" d="m236.45 218.69c10-5.7 22.01-7 33.27-5.38 11.51 1.68 22.36 8.44 28.33 18.51 3.97 6.83 6.2 14.86 5.39 22.78-0.35 3.31-1.84 6.86-5.01 8.37-5.02 2.42-10.75 2.48-16.21 2.48-14.29-0.02-28.59 0-42.89-0.01 0.13 7.78 2.73 15.98 8.85 21.12 6.6 5.58 16.33 6.14 24.13 2.96 6.4-2.76 11.27-7.9 16.37-12.47 3.73-3.53 11.38-2.52 13.14 2.63 1.36 4.28-0.9 8.66-3.35 12.07-6.47 8.44-16.9 13-27.22 14.46-12.06 1.39-25.01 0.28-35.6-6.13-9.75-5.87-16.35-16.17-18.58-27.23-2.34-11.73-1.75-24.29 2.96-35.38 3.29-7.79 9-14.63 16.42-18.78m9.78 15.89c-4.5 4.76-6.12 11.41-6.9 17.74 13.99 0.02 27.98 0.01 41.97 0.01-0.59-7.12-2.49-14.89-8.39-19.5-7.65-5.98-20-5.52-26.68 1.75z" fill="#175ea8"/>
 <path id="path47" d="m355.64 213.34c13.17-2.04 27.47 0.27 38.19 8.56 5.52 4.35 10.56 10.45 10.93 17.75 0.29 7.35-9.13 12.54-15.2 8.51-4.1-3.28-6.23-8.34-10.11-11.85-7.94-8.4-23.18-7.79-30.53 1.08-5.55 6.3-7.19 15.03-7.12 23.2 0.08 7.85 1.87 16.21 7.3 22.17 8.26 9.13 24.6 8.86 32.42-0.73 4.16-4.26 5.65-11.33 11.71-13.52 6.32-2.3 13.03 3.67 12.69 10.06-0.49 8.05-5.94 14.87-12.19 19.52-8.81 6.23-19.82 8.68-30.49 8.47-10.24-0.04-20.84-2.59-28.94-9.11-8.56-6.74-13.73-17.14-15.1-27.85-1.78-13.57 0.16-28.27 8.24-39.65 6.48-9.24 17.12-15.04 28.2-16.61z" fill="#175ea8"/>
 <path id="path49" d="m558.71 213.38c12.84-1.76 26.75 0.46 37.24 8.47 9.12 6.8 14.68 17.57 16.29 28.71 1.95 13.29-0.09 27.73-8.12 38.8-6.39 8.97-16.6 14.79-27.39 16.57-12.56 2.06-26.29 0.47-36.94-6.91-9.5-6.36-15.79-16.82-17.8-27.99-2.53-13.95-0.67-29.34 7.79-41.05 6.69-9.38 17.65-15.07 28.93-16.6m1.78 17.42c-5.2 1.47-9.58 5.24-12.11 9.98-3.75 6.93-4.61 15.07-4.1 22.83 0.53 7.45 2.74 15.29 8.3 20.59 5.55 5.38 14.16 6.52 21.36 4.28 6.13-1.93 10.76-7.13 13.1-13 2.74-6.9 3.07-14.53 2.34-21.84-0.73-6.9-3.23-14-8.56-18.69-5.41-4.89-13.45-6.07-20.33-4.15z" fill="#175ea8"/>
 <path id="path51" d="m623.23 217.78c4-6.59 16.08-7.02 18.65 1.04 7.86 20.08 14.55 40.61 22.03 60.84 6.92-18.83 13.8-37.66 20.78-56.46 1.44-3.31 2.69-7.16 5.88-9.21 4.85-2.59 11.51-0.84 14.3 3.96 2.39 3.66 1 8.22-0.45 11.96-8.8 21.78-17.58 43.56-26.35 65.36-1.83 4.38-4.5 9.08-9.26 10.71-4.58 1.41-10.19 1.06-13.82-2.35-3.72-3.27-5.05-8.25-7.1-12.57-8.04-19.69-16.01-39.4-23.92-59.13-1.68-4.42-3.92-9.85-0.74-14.15z" fill="#175ea8"/>
 <path id="path53" d="m832.21 219.47c11.63-7.1 25.87-7.43 39.07-6.34 8.71 0.87 18.33 3.23 23.82 10.66 5.27 7.42 5.87 16.97 5.91 25.78 0.03 8.99-0.21 17.99-0.1 26.98 0.09 6.57 2.71 12.7 4.02 19.05 1.68 7.81-8.99 14.1-15.32 9.67-4.22-2.88-7-7.32-9.74-11.53-7.61 5.72-16.06 10.97-25.64 12.38-9.55 1.55-20.15 0.56-27.99-5.59-8.28-6.13-11.78-17.61-8.68-27.39 2.66-8.93 10.98-15.09 19.8-17.16 13.71-3.07 27.58-5.5 41.04-9.59-0.55-5.88-1.28-13.72-7.66-16.18-6.64-2.18-14.08-1.9-20.73 0.06-7.26 2.38-10.15 9.95-14.75 15.26-5.25 2.72-13.19 0.24-14.46-5.95-1.09-8.3 4.5-16.06 11.41-20.11m17.64 47.94c-4.7 1.43-9.79 4.8-10.12 10.18-1.01 6.8 4.72 13.07 11.32 13.8 8.9 1.1 18.9-2.37 23.91-10.1 3.61-6.33 3.29-13.92 3.4-20.97-9.29 3.17-19.05 4.56-28.51 7.09z" fill="#175ea8"/>
</svg>
