<svg id="g" enable-background="new 0 0 406.2 438.4" version="1.1" viewBox="0 0 406.2 438.4" xml:space="preserve" xmlns="http://www.w3.org/2000/svg"><defs id="h"><clipPath id="f"><path id="i" width="100%" height="100%" d="m34.1 49.8h482.7v502.5h-482.7z"/></clipPath><clipPath id="e"><path id="j" width="100%" height="100%" d="m34.1 49.8h482.7v502.5h-482.7z"/></clipPath><clipPath id="d"><path id="k" width="100%" height="100%" d="m34.1 49.8h482.7v502.5h-482.7z"/></clipPath></defs>
<g id="l" transform="matrix(3.7795 0 0 3.7795 267.39 -343.32)"><path id="m" d="m-70.746 90.837h107.47v115.99h-107.47z" fill="#d93e36" stroke-width=".26458"/><path id="n" d="m-65.11 121.34h96.202v58.976h-96.202z" fill="#0084c1" stroke-width=".26458"/><path id="o" transform="matrix(.26458 0 0 .26458 -89.902 69.175)" d="m204.9 92.1h19.4l-11.7 10h-15.4zm-111.2 14.6h31c10 0 17 2.6 21.3 7 3.8 3.8 5.8 8.8 5.8 15.3v0.2c0 10.1-5.3 16.8-13.5 20.2l15.6 22.8h-20.9l-13.2-19.9h-8.1v19.9h-18zm30.2 31.4c6.1 0 9.7-3 9.7-7.8v-0.2c0-5.2-3.8-7.9-9.8-7.9h-12v15.8zm89.1-31.9h-17.5l-27.8 66h19l4.7-11.8h25.4l4.7 11.8h19.5zm-16.3 40.1 7.4-18.5 7.3 18.5zm63.7-39.6h25.4c23.3 0 36.9 13.5 36.9 32.4v0.2c0 18.9-13.8 33-37.3 33h-25zm18.1 16v33.4h7.4c11 0 18.2-6 18.2-16.6v-0.2c0-10.5-7.2-16.7-18.2-16.7zm67.1-16h18.2v65.5h-18.2zm41.1 32.9v-0.2c0-18.8 15.2-34.1 35.4-34.1s35.2 15.1 35.2 33.9v0.2c0 18.8-15.2 34.1-35.4 34.1s-35.2-15-35.2-33.9m52 0v-0.2c0-9.6-6.7-17.7-16.8-17.7-10 0-16.7 8.1-16.7 17.5v0.2c0 9.5 6.8 17.7 16.9 17.7 9.9 0 16.6-8 16.6-17.5" clip-path="url(#f)" fill="#fff"/><path id="p" transform="matrix(.26458 0 0 .26458 -89.902 69.175)" d="m374.7 425.4h19.4l-11.7 10h-15.4zm-281 74.6h30.4c14.1 0 22.4-6.2 22.4-16.3v-0.2c0-8-4.6-12.1-11.7-14.4 5.2-2.3 9.1-6.3 9.1-13.2v-0.2c0-4-1.4-7.2-3.8-9.6-3.5-3.4-8.7-5.2-16.1-5.2h-30.3zm34-40.7c0 3.5-2.9 5.1-7.8 5.1h-10.3v-10.4h10.7c4.8 0 7.4 1.8 7.4 5.1zm2.4 22v0.2c0 3.5-2.8 5.4-7.8 5.4h-12.7v-10.9h12.5c5.5-0.1 8 2 8 5.3m30.6 18.7h44.9v-14.3h-28.6v-44.7h-16.4v59zm54.1 0h17.1l4.2-10.6h22.9l4.2 10.6h17.5l-25.1-59.5h-15.8zm26.2-23.4 6.7-16.7 6.6 16.7zm52.2 23.4h16.2v-32.4l25.3 32.4h14.3v-59h-16.2v31.2l-24.3-31.2h-15.3zm73.4 0h16.4v-59h-16.4zm33.9 0h16.4v-15.4l6-6.6 14.9 21.9h19.6l-23.1-33.7 22.4-25.3h-19.3l-20.4 24v-23.9h-16.4z" clip-path="url(#e)" fill="#fff"/><path id="q" transform="matrix(.26458 0 0 .26458 -89.902 69.175)" d="m231.6 241c-53 0-95.9 42.9-95.9 95.9 0 35.6 19.4 66.7 48.3 83.3h95.3c28.8-16.5 48.3-47.6 48.3-83.3-0.1-53-43-95.9-96-95.9m20.6 64.7c4.7-1.9 10 0.4 11.9 5.1s-0.4 10-5.2 11.9c-4.7 1.9-10-0.4-11.9-5.1-1.8-4.7 0.5-10.1 5.2-11.9m-62.8 35.1c-1.9-4.7 0.4-10 5.1-11.9s10 0.4 11.9 5.1-0.4 10-5.1 11.9-10-0.4-11.9-5.1m98.6-6.6c-2.4 20.4-15 37.6-33.7 46.1-7.8 3.5-16 5.3-24.2 5.3-11.4 0-22.8-3.4-32.7-10.1-3.7-2.5-4.7-7.6-2.2-11.4 2.5-3.7 7.6-4.7 11.4-2.2 12.2 8.3 27.5 9.6 40.9 3.5s22.4-18.5 24.2-33.1c0.5-4.5 4.6-7.7 9.1-7.1 4.5 0.5 7.7 4.5 7.2 9m-88.7-104.7-10.1-32.3h24.3l0.2 29.1c-4.9 0.7-9.7 1.8-14.4 3.2m82.2 6.9c-4.1-2-8.4-3.8-12.8-5.3l12-33.9h29.3zm-159.9 75-27.9-1.3v-19.5l32.8 5.5c-2 4.9-3.6 10-4.9 15.3m27.8-51.2-55.8-36.1v-26.9h10.4l54.6 54.4c-3.3 2.7-6.3 5.6-9.2 8.6m191.6 48.6 116.3-21.5v32.8l-113.5 3c-0.6-4.9-1.6-9.7-2.8-14.3m116.3-111.6v18.9l-132.3 58c-2.3-3.3-4.7-6.5-7.3-9.5l93.7-67.4zm-116 168.8 116 24.4v29.8h-2.3l-118.7-39c2-4.9 3.7-10 5-15.2m-218.3 4.1c1.4 4.9 3.2 9.6 5.3 14.2l-34.6 21.5v-27.4z" clip-path="url(#d)" fill="#f8ec11"/></g></svg>
