<svg height="421.5108pt" viewBox="0 0 395.17276 421.5108" width="395.17276pt" xmlns="http://www.w3.org/2000/svg"><g transform="translate(-48.3131 -35.35)"><g fill="#fff"><path d="m366.94 275.44c6.83-1.76 14.04-1.53 20.94-.32 5.35 1.06 11.2 4.26 12.56 9.96.74 17.29-.15 34.62.51 51.91.25 7-6.27 11.76-12.41 13.35-8.5 1.3-17.5 1.82-25.7-1.26-4.22-1.51-7.79-5.46-7.97-10.06-.65-16-.22-32.01-.4-48.02-.27-3.52 1.32-6.73 2.47-9.95 3.13-2.19 6.31-4.47 10-5.61m8.78 11.06c-1.24 7.11-.93 14.37-.68 21.54 1.75 10.01-.94 20.16.67 30.17 1.27.49 2.67.41 4.02.57.32-12.56-.15-25.15.27-37.72.01-4.74.42-9.56-.57-14.22-.76-1.48-2.52-.5-3.71-.34z"/><path d="m77.36 275.47c5.17-.91 10.44-.56 15.66-.66 7.01-.06 14.22-.14 20.9 2.32 5.99 1.5 10.1 7.82 9.47 13.88-.23 3.94.36 8.19-1.69 11.77-1.2 3-4.24 4.49-6.54 6.54 1.64 1.91 3.92 3.14 5.57 5.05 1.81 2.86 2.42 6.3 2.36 9.65.51 8.71-.12 17.53 1.91 26.1-6.14 1.2-12.47.57-18.69.68-4.11-3.77-3.9-9.66-4.04-14.77.1-6-.26-12.03.36-18.01-1.19-1.12-2.22-3.14-4.19-2.51-.59 10.81-1 21.72-.4 32.57-1.16 3.26-5.33 2.46-8.05 2.55-4.15-.4-8.66 1.07-12.48-1.04-2.09-7.71-.35-15.74-.47-23.59-.6-6.34-.3-12.72.15-19.05-.03-10.49.01-20.99.17-31.48m21.2 10.65c-.54 6.14-1.68 12.51.15 18.54 1.16-.87 3.4-.91 3.58-2.69.58-4.7 0-9.43-.07-14.14-1.22-.59-2.43-1.16-3.66-1.71z"/><path d="m164.61 275.54c8.39-.11 16.86-1.47 25.19-.08 2.58 6.56 3.01 13.67 4.9 20.42 1.1 10.15 3.72 20.03 5.8 30.01.82 6.06 2.04 12.07 3.65 17.95.13 2.09.28 4.2.06 6.3-3.56 1.24-7.53.31-11.25.59-2.8-.24-6.04.56-8.47-1.18-.98-1.67-1.09-3.65-1.38-5.51-.5-4.17-1.71-8.23-1.98-12.43-2.29-.9-5.41-1.91-7.45-.01-1.92 6.1-1.99 12.93-4.54 18.7-6.35.48-12.86.69-19.21-.07.18-6.88 2.38-13.46 3.21-20.25.39-4.28 2.04-8.29 2.52-12.56 1.69-4.79 1.36-9.95 2.88-14.77 2.14-7.78 3.54-15.74 4.76-23.71.08-1.25.77-2.32 1.31-3.4m12.75 35.01c-1.49 1.63-1.24 4.42-1.8 6.52-.01 1.66 1.55 2.17 2.75 1.19.17-2.63.57-5.51-.46-7.99z"/><path d="m228.9 277.01c1.22-2.79 4.79-1.35 7.13-1.79 5.02-.61 10.05.88 15.04-.15 6.08-.31 12.21.79 17.81 3.2 2.1 1.82 4.43 3.58 5.57 6.21.94 3.05 1.01 6.29 1.03 9.46-.35 14.39.39 28.77-.12 43.16-.29 5.44-4.59 9.94-9.71 11.41-5.13 2.7-11.01 2.29-16.61 2.18-6.25.01-12.5.11-18.74-.11-.29-.39-.87-1.18-1.17-1.57.18-7-.81-13.98-.26-20.98.49-5.01-.52-10.03.03-15.04.74-6.34-.66-12.68.1-19.01.59-5.66-.57-11.33-.1-16.97m21 36.98c1.32 8.6-1.05 17.38 1.01 25.89.9-.44 1.81-.88 2.71-1.32.37-5.51.25-11.04.07-16.55.04-11.06.97-22.17-.03-33.2.18-1.52-1.52-2.59-2.9-2.17-2.07 9.01-.04 18.26-.86 27.35z"/><path d="m304.67 278.11c-.24-1.98 1.86-2.75 3.35-3.23 5.44-.17 10.9.34 16.34-.12.49 1.06 1.13 2.07 1.39 3.24.03 15.28-.46 30.6.35 45.87-.52 7.71-.42 15.44-.32 23.15.11 1.57-.7 3.81-2.59 3.74-5.09.28-10.2-.01-15.3-.02-1.43.08-3-1.17-2.93-2.64-.4-23.33-.43-46.67-.29-69.99z"/></g><path d="m169.45 37.87c-.19-1.29 1.3-1.71 1.98-2.52 4.4 1.25 9.02 1.06 13.55 1.16 22.33-.06 44.66-.12 66.99-.29 1.86-.16 3.58.6 5.26 1.29-.17 9.57.05 19.14-.1 28.71.11 1.46-1.79 2.41-3.06 2.08-3.38-.16-6.7-1.02-10.09-.87-10.05.14-20.11-.05-30.15.29.16 16.86-.33 33.74.25 50.59 9.98.21 20.01-.42 29.89-1.88 2.29.6 4.45 1.65 6.72 2.36 1.54 7.99.89 16.14 1.04 24.22.05 3.21.12 6.56-1.35 9.52-12.06.12-24.14-.4-36.21-.3-.03 21.93.02 43.87-.2 65.8.05 1.94-.44 3.97.16 5.86 5.22.74 10.54.14 15.77-.38 6.04-.54 12.14-.57 18.16-1.33 1.81-5.72 1.63-12.16 2.6-18.12 1.38-3.84 1.96-7.93 2.04-12 .02-6.82 1.72-13.47 3.27-20.07 1.51-5.89.24-12.03 1-18 1.48-3.99 3.79-7.68 4.48-11.95 4.62-21.42 6.86-43.26 10.03-64.92 1.63-10.77 2.66-21.73 5.95-32.16.6-2.48 1.01-5 1.47-7.5 2.65-.61 5.3-1.39 8.06-1.25 13.36.11 26.71-.24 40.07-.04 2.68.02 5.24.83 7.86 1.29 5.02 32.44 8.6 65.05 13.2 97.53 2.59 14.43 3.75 29.06 6.24 43.51 1.43 7.4 1.17 14.98 2.24 22.43.73 5.41 1.87 10.75 2.67 16.15.85 10.06 3.42 19.84 4.5 29.87.31 3.89 2.97 9.53-1.74 11.74-10.26.81-20.58.62-30.86.47-2.44.02-4.77-.71-7.08-1.38-2.77-.3-5.57-.26-8.35-.45-.98-12.79-1.89-25.57-3-38.34-.57-6.67-.59-13.5-2.85-19.88-5.89-.06-11.78-.38-17.66.09-4.19 8.35-1.73 17.81-2.82 26.71-1.09 3.96-.72 8.09-.79 12.15-.69 6.7-4.31 12.66-5.15 19.33-4.29 2.11-9 .73-13.44.27-33.29.02-66.58-.03-99.86.03-.9-1.43-2.05-2.87-1.8-4.68-.01-8.66.3-17.32.02-25.98-.19-2.73 1.2-5.28 1-8.02-.07-13.01.05-26.03.05-39.04-.06-5.98.52-12.02-.75-17.92.88-2.26.66-4.71.72-7.08 0-11.01.71-22.11-1.2-33.01.66-28.02-.7-56.11 1.27-84.09m18.98 3.34c1 1.84-.15 2.97-1.69 3.9l1.97.3c-.53.91-1.07 1.82-1.61 2.72 1.04-.01 2.09-.02 3.13-.04.41-2.19.19-4.27-1.4-6 .87.4 2.61 1.2 3.48 1.6 1.31-1.77 3.36-2.22 5.39-1.42.77 1.42 2.13 2.27 3.45 3.1.57-.31 1.71-.93 2.28-1.25-.74-1.14-1.46-2.3-2.17-3.46-4.29-.72-8.56.22-12.83.55m122.05.18c-.69 2.09 1.51 3.31 2.53 4.8.91-.01 1.82-.03 2.74-.04.03-1.29 0-2.58-.09-3.86-1.05-1.7-3.74-2.48-5.18-.9m-130.9-.08c.22 1.04.45 2.08.69 3.13 1.17-.76 1.92-1.9 2.54-3.11-1.08-.02-2.15-.03-3.23-.02m35.19-.02c1.03 1.47 1.33 3.19-.62 4.1-1.15 2.29-2.87.71-4.07-.56-.68.12-2.04.36-2.73.47-1.96 2.16-4.72 3.46-6.43 5.85 1.55.08 3.1.14 4.65.19 2.22 1.96 5.48 1.43 7.75 3.27 2.6-.02 5.9-.48 5.35-3.95-1.92-.18-3.84-.31-5.76-.44.16-1.02.35-2.03.55-3.04 4.78 2.74 1.98-4.07 5.01-5.33-1.17-.55-2.41-.74-3.7-.56m-40.46.63c-.86 1.94 3.13 2.65 3.62.94-.19-1.57-2.61-1.89-3.62-.94m20.18 3.28c-1.09 1.45 1.47 2.94 2.5 1.68 1.21-1.48-1.48-3-2.5-1.68m25-.19c.17 1.53.36 3.05.59 4.57 1.28-.21 2.57-.44 3.85-.7-.42-2.45-1.7-4.27-4.44-3.87m-38.86 3.08c1.44.89 2.94 1.67 4.51 2.35-1.38.61-2.75 1.22-4.08 1.91-.82-.01-2.45-.02-3.27-.02 2.66.82 5.55.61 8.2-.17.1-.27.3-.8.4-1.06-.6-.79-1.17-1.6-1.69-2.43-1.37-.18-2.69-1.23-4.07-.58m-5.24.43c-.03.98.08 1.96.33 2.92 1.22-.69 3-.81 3.57-2.32-.29-2.16-2.65-1.05-3.9-.6m-1.05 4.77c-1.24 1.97-1.28 4.25-1.17 6.5 1.69.02 3.4-.05 4.93-.84-.69-.44-2.08-1.33-2.78-1.77.48-1.2.97-2.39 1.47-3.58-.61-.08-1.84-.23-2.45-.31m8.45 2.38c1.07.74 2.19 1.38 3.32 2.02.51-.56 1.53-1.69 2.04-2.26 2.1-.19 4.07.94 6.13.75.09-2.48-2.59-2.27-4.3-2.31-2.52-.07-4.95.73-7.19 1.8m-4.47-1.51c-2.41 3.04 4.13 3.42 2.07.02-.52 0-1.55-.01-2.07-.02m135.16-.48c-.36 1.79-.66 3.59-.91 5.39-1.18 1.04-2.36 2.06-3.52 3.11 2.94 1.84 6.49 1.08 9.75 1.21-1.48-3.34-2.06-7.53-5.32-9.71m-12.99 35.34c-1.83 16.33-2.75 32.75-4.83 49.04-.52 5.66 1.33 11.79-1.49 17.04-.83 2.82-.49 5.88-.33 8.79 2.62 4.08 8.42 1.93 12.45 2.6-.09.67-.27 2.02-.36 2.69.48-.02 1.44-.05 1.92-.06-.02-1.72-.04-3.43 0-5.14.89-2.07 1.16-4.31 1.63-6.49-1.04-1.55-2.12-3.06-3.22-4.55-1.07-10.07-.33-20.19-.57-30.29 1.95-1.37 4.52-2.28 5.46-4.66-1.9.22-3.62 1-5.29 1.85-1.1-11.57-1.51-23.17-1.01-34.79-.27-3.62 1.33-7.68-.95-10.9-.39-1.46-.82-2.95-1.9-4.08-1.42 6.22-1.06 12.63-1.51 18.95m-24.02 9.48c.02.49.08 1.49.1 1.98.51.01 1.52.01 2.02.01-.02-.49-.05-1.46-.07-1.95-.52-.01-1.54-.03-2.05-.04m14.04 14.21c.17 1.33-.19 3.99 1.89 3.74.76-1.23.29-2.8.44-4.17-.58.11-1.75.32-2.33.43m19.22 16.38c.31.54.92 1.61 1.23 2.15-.12.54-.35 1.6-.47 2.14 1.07-.32 2.12-.64 3.2-.95-.32-1.23-.72-2.46-2.41-1.76 1.73-2.27-.23-2.17-1.55-1.58m4.17 5.11c.6 1.05 1.18 2.11 1.75 3.18-.56.18-1.67.54-2.23.72.34.4 1.03 1.19 1.37 1.58 1.15-1.18 1.74-2.78 2.57-4.18-1.33.02-2.49-.42-3.46-1.3m-85.28 2.26c-.56 1.31-1.06 2.66-1.26 4.08 1.35-.21 2.7-.44 4.04-.71.01-1.08.02-2.15.03-3.23-.94-.05-1.87-.09-2.81-.14m-12.92 1.77c.22.63.65 1.89.87 2.52 1.05-.66 1.94-1.55 2.82-2.42-.92-.03-2.76-.08-3.69-.1m95.37 3.37c-1.2.87.01 3.53 1.41 2.39.96-.91.01-3.43-1.41-2.39m3.15.96c.51 1.47 1.14 2.9 1.96 4.24 1.34-1.2 1.55-2.93 1.73-4.6-1.23.1-2.46.22-3.69.36m-44.47.76c.04 1.35.08 2.71.12 4.07.97-.06 1.95-.11 2.93-.17.07-1.38.14-2.77.22-4.15-1.1.08-2.19.16-3.27.25m-40.43 1.08c-.87 1.32 1.37 2.82 2.35 1.64.87-1.34-1.37-2.73-2.35-1.64m81.21 3.91c-1.05 1.47 1.47 2.94 2.5 1.65 1.12-1.45-1.53-3.08-2.5-1.65m3.15.92c1.39 1.55 2.56 3.88 4.81 4.23 1.24-2.75-3.17-3.14-4.81-4.23m-11.54 23.33c.58.3 1.16.59 1.74.89 1.14-.49 2.28-.99 3.42-1.49-1.74-.68-3.48.14-5.16.6m7.51 19.55c-1.17 1.49 1.53 2.18 2.38 1.22 1.28-1.45-1.59-2.44-2.38-1.22m30 31.66c.02 1.28.04 2.57.06 3.85-.91.9-2.84 1.29-2.57 2.89 2.43.68 4.42 2.64 6.9 2.96 3.1-1.52 1.41-4.56-.34-6.38.88-1.29 1.93-2.46 2.8-3.76.6-1.38-1.87-.97-2.49-1.47-1.7-.12-2.99 1.15-4.36 1.91m-10.02 1.94c-.18.9-.55 2.68-.73 3.58.91.42 1.84.86 2.79 1.22-.01-1.81-.62-3.64-2.06-4.8m7.61 13.24c.94.57 1.91 1.11 2.91 1.61 1-.96 2.04-1.88 2.99-2.91-.43-3.29-7.71-2.57-5.9 1.3m1.19 8.93c.85 2.04 1.15 4.33 2.11 6.29 3.25.71 6.49 2.01 9.87 1.7 1.13-2.28-2.1-2.97-2.74-4.79-1.16-2.72-4.29-3.27-6.68-4.46-.64.32-1.92.95-2.56 1.26z"/><path d="m343.76 37.51c1.31-.72 2.67-1.49 4.24-1.28 13.01.14 26.03.23 39.03.89 15.96-.19 31.95.46 47.9-.47 2.82.26 5.64.61 8.48.74-.06 3.89.02 7.79-.01 11.68.08 3.65-2.63 7.13-1.19 10.78.94 2.34 1.5 4.81 1.19 7.35-.92 1.14-2 2.2-3.29 2.92-8.18.44-16.39.14-24.54-.65-.46 3.82-.28 7.67-.29 11.5v61.02c.07 3.66-.48 7.46.98 10.94-.86 4.01-.56 8.24.72 12.13.86 2.61-.64 5.23-.66 7.87-.84 12.03.69 24.12-.48 36.14-.77 9.29.7 18.62-.55 27.86-.05 6.7.06 13.41-.26 20.1-1.12 1.09-2.18 2.24-3.19 3.44-2.97.72-5.51-1.1-8.3-1.7-10.59-.72-21.22-.9-31.79-1.86-.47-23.62.29-47.26-.46-70.87.7-21.97.08-43.98.52-65.97 2.05-7.83 1.88-16.2.07-24.08-.44-6.98.06-13.98-.26-20.96-.04-1.26-.71-2.37-1.11-3.53-6.54-.48-13.2.7-19.59-1.05-2.97.43-5.58-.64-7.84-2.49.69-10.13.35-20.29.68-30.45m62.57 141.88c-.5 1.18-.19 2.17.94 2.96 1.69.86 2.09-1.83 1.01-2.63-.48-.08-1.46-.24-1.95-.33m-.7 14.63c1.42-1.69.98-3.88.7-5.89-.83 1.87-1.02 3.88-.7 5.89m2.97 7.59c.48 1.53 1.16 3 1.77 4.49-.05-1.52 1.12-5.88-1.77-4.49m-1.54 6.69c-.12.44-.35 1.34-.47 1.79-.65-.36-1.97-1.06-2.62-1.41.91 1.25 1.79 2.54 2.67 3.82-.13.31-.4.91-.54 1.21.98 3.61.05 7.55 1.65 11.14.94-2.84 2.76-5.44 2.78-8.52-.61.47-1.84 1.41-2.45 1.88.17-1.42.19-2.83.07-4.24.2-1.42.41-2.84.61-4.25.51.03 1.52.11 2.02.14l-.12-.32c-1.3-.14-2.51-.54-3.6-1.24m-5.04 12.76c.34-1.85.54-3.73.69-5.61-2.1 1.3-1.27 3.7-.69 5.61m6.4 11.75c-.74.04-2.23.13-2.97.17.98.99 2.02 1.93 3.1 2.82-.37-2.63 1.97-3.95 3.29-5.78.24-1.55.36-3.1.35-4.66-4.09-1.15-3.27 4.97-3.77 7.45m-8.29 3.05c.59 1.2 1.2 2.38 1.79 3.59.72-.09 2.17-.27 2.89-.36-.41 1.93-1.41 3.86-.89 5.88.68 2.48-.76 4.85-1.24 7.24 2.66.92 5.42.1 8.01-.65-.59-1.45-1.16-2.92-1.64-4.41-2.53-.09-2.21-3.19-3.28-4.73 2.26.96 4.76 1.23 5.99 3.63.48-2.39.51-5.6-1.77-7.09-1.89-.96-4.75-3.06-5.87.06-1.72-.97-3.2-5.18.75-3.8.06-.17.19-.51.25-.68-1.89.31-2.82-.64-2.8-2.84-.62 1.44-1.3 2.86-2.19 4.16m-2.76 12.86c.53 1.11 2.53 3.48 3.24 1.32 2.13-2.85.3-5.93-.7-8.79-2.26 1.8-2.11 4.88-2.54 7.47m-2.24 2.26c-.52 1.44-.08 1.91 1.3 1.42.49-1.45.05-1.93-1.3-1.42z"/><path d="m61.22 37.23c19.27.05 38.54-.1 57.81.07 10.47.91 21.63 2.03 30.38 8.45 8.86 5.55 13.48 16.11 13.71 26.32.01 10.31-.01 20.61 0 30.92-.27 8.54-1.71 17.86-7.93 24.25-6.09 5.76-14.17 8.92-22.23 10.77-1.4.31-2.86.67-3.73 1.94 6.94 1.75 14.44 2.16 20.56 6.26 9.33 5.83 13.31 17.19 13.34 27.77-.06 13.69.07 27.39-.06 41.08-.55 12.51-4.31 26.24-15.03 33.82-11.61 7.13-25.7 8.59-39.04 8.18-16.08-.31-32.16.12-48.24.22.19-4.81 1.7-9.56.81-14.38-.88-11.97-.39-24.02-.3-36.02 1.31-5.89.74-11.93.91-17.91.06-2.12-1.43-3.88-1.64-5.95-.45-9.7.98-19.36.69-29.06-.18-7.3.46-14.67-.93-21.88.14-4.05 1.55-7.99 1.04-12.07-.62-6 .33-12 .07-18.01-.4-21.59-.35-43.18-.19-64.77m6.99 14.76c.08 1.32.18 2.63.31 3.95 1.25-.22 2.63-.5 2.92-1.96-.21-1.67-1.91-1.73-3.23-1.99m9.97 4.57c.54-.04 1.63-.12 2.17-.16.64-1.02.49-1.88-.43-2.59-1.32-.31-3.02 1.72-1.74 2.75m-.61 3c-.39 1.38-.82 2.73-1.31 4.07-2.38-.56-4.56-.13-6.23 1.7-1.29-.41-2.58-.83-3.87-1.24 0 1.33.01 2.67.03 4.01 1.67.32 3.33.73 4.88 1.44-1.7.09-3.43-.07-5.1.28-.77 2.63-.25 5.43.4 8.02 1.45.62 3.01.93 4.46 1.55-.31 2.51-4.67 2.83-4.64 5.73.58 1.96 1.66 3.8 1.23 5.94 1.05 1.18 2.02 2.48 3.36 3.35 1.06-2.78-1.09-4.95-1.94-7.4-1.07-1.62.97-2.73 1.83-3.76 1.78 1.45 4 1.49 5.42-.41 1.63-.94-.03-2.6-.58-3.66.29-1.62.36-3.48-1.47-4.17-.68.71-1.35 1.44-2 2.18.12-2.49.32-4.98.3-7.48.94.74 1.88 1.48 2.83 2.22 1.64-1.98 2.2-4.4 1.34-6.85 1.05-1.05 2.24-1.95 3.23-3.07-.62-.9-1.41-1.67-2.17-2.45m27.04 5.61c.19 20.05.26 40.1.22 60.15 4.07.24 8.37.03 11.89-2.27 2.03-2.12 2.53-5.28 2.72-8.1.02-12.99-.02-25.99.02-38.98 0-3.27-.58-7.14-3.44-9.17-3.36-2.22-7.6-1.55-11.41-1.63m-27.61 26.38c-.12.33-.36.99-.48 1.31 1.64 2.79 3.51-2.63.48-1.31m-5.47 4.73c.32.52.96 1.57 1.28 2.1 1.01-.3 2.03-.58 3.05-.84-.8 1.78-2.22 2.14-3.88 1.01-1.93 1.2-3.9 2.34-5.94 3.34 1.13 1.9 2.12 3.89 2.82 6 .87-.15 1.74-.35 2.59-.58.7-1.47-.53-2.76-1.13-3.98 4.04-.89 8.01-3.39 12.21-1.98.44-2.66-2.05-3.18-3.95-3.95-1.57-2.79-4.56-1.94-7.05-1.12m1.88 8.78c.62 1.24 1.94 1.29 3.12 1.49 0-.55-.02-1.66-.03-2.22-1.05.17-2.08.42-3.09.73m-4.97 10.33c-.45 1.62.13 2.18 1.72 1.68.49-1.58-.09-2.14-1.72-1.68m4.57 6.09c-.39 1.39.12 1.86 1.51 1.41.39-1.4-.12-1.87-1.51-1.41m-5.63 10.26c.45 1.4 2.05-.26 2.97-.28.03-.61.09-1.83.13-2.44-1.21.73-4.11.63-3.1 2.72m.96 7.37c-.42 1.64.15 2.18 1.73 1.63.43-1.65-.14-2.19-1.73-1.63m36.27 16.38c.2 23.56.25 47.12.22 70.68 3.33-.09 7 .57 9.97-1.35 3.35-1.48 4.71-5.39 4.65-8.81 0-16.32-.03-32.63.01-48.94.14-3.21-.44-6.61-2.69-9.04-3.4-2.8-8.01-2.65-12.16-2.54z"/><path d="m304.25 372.21c7.48-1.05 15.44-2 22.66.87 1.5.51 2.63 1.64 3.64 2.82-7.51-2.97-15.73-2.88-23.58-1.54-11.35 1.29-21.7 6.38-32.2 10.51-2.27.88-5.64 1.81-7-.94 3.14-.71 6.26-1.56 9.22-2.86 8.78-3.76 17.72-7.51 27.26-8.86z"/><path d="m335.34 371.05c4.13 5.11 2.89 13.11-1.9 17.36-9.05 8.07-20.61 12.27-31.36 17.46-.85-.39-1.7-.78-2.55-1.17 4.05-3.56 9.45-4.7 14.1-7.21 6.79-3.5 13.92-6.96 19.22-12.6 3.5-3.7 3.54-9.16 2.49-13.84z"/><path d="m418.41 370.06c3.41 5.88.51 13.82-4.52 17.87-4.1 3.29-8.24 6.69-12.95 9.06-1.42-.12-2.83-.24-4.24-.36 6.11-4.07 12.57-7.84 17.68-13.18 3.36-3.62 3.61-8.75 4.03-13.39z"/><path d="m406.33 377.33c1.05-1.52 3.84-2.03 3.91.45-3.37 2.79-6.21 6.11-9.12 9.35-1.88 1.91-4.38 3-6.8 4.05 3.58-4.96 7.8-9.43 12.01-13.85z"/><path d="m149.25 376.67c3.08 3.89 1.62 9.13-.48 13.11-3.93 7.37-9.83 13.45-15.89 19.1-5.81 5.18-11.06 10.96-16.28 16.72-1.48 1.51-1.87 3.66-2.54 5.59-1.94-1.93-1.46-4.95.13-6.94 7.12-8.85 15.82-16.22 23.71-24.35 5.76-6.44 12.2-13.97 11.35-23.23z"/><path d="m115.37 377.49c2.83 4.25 2.64 9.82.74 14.41-2.69 6.76-7.13 12.7-12.01 18.05-5.61 5.87-11.77 11.74-19.55 14.55-2.46.97-4.94.03-6.59-1.89 2.5-.07 5.11-.11 7.37-1.34 6.84-3.38 12.5-8.7 17.64-14.26 4.8-5.44 9.28-11.42 11.75-18.32 1.36-3.59.89-7.47.65-11.2z"/><path d="m85.3 392.25c5.67-5.26 11.92-10.62 19.69-12.28 1.6-.87 2.6.85 3.25 1.97-12.79 2.41-21.74 12.92-30.14 22.02-8.95 10.3-17.54 23.99-14.08 38.2-3.77-4.76-3.07-11.31-1.48-16.77 3.77-13.22 13.17-23.73 22.76-33.14z"/><path d="m254.79 379.99c.41 1.1 1.48 2.35.66 3.54-2.4 2.08-4.9 4.08-7.56 5.83-2.15 1.04-4.1-.71-5.56-2.08 5.38.64 8.84-4.16 12.46-7.29z"/><path d="m299.72 382.55c.58 1.08 1.83 2.14 1.24 3.51-.73 3.86-2.56 7.4-4.16 10.96-.59.12-1.75.38-2.33.51 1.39-5.13 3.89-9.86 5.25-14.98z"/><path d="m137.3 384.24c.67-1.83 4.11.09 2.57 1.32-6.06 6.18-10.82 13.42-15.69 20.52-1.05 1.58-2.49 2.81-3.9 4.05 3.65-9.74 10.02-18.29 17.02-25.89z"/><path d="m380.75 390.44c2.05 2.82 1.06 6.68-1.56 8.79-2.89 2.54-6.98 6.22-10.98 3.74l.53-.3c5.15-2.68 11.05-5.86 12.01-12.23z"/><path d="m226.99 391.37c3.35 3.72.46 9.11-2.78 11.85-1.66 1.75-5.26 2.77-6.45-.02 5.5-1.12 9.08-6.4 9.23-11.83z"/><path d="m256.01 410.03c6.73-3.84 12.65-10.56 12.83-18.66 2.64 2.63 1.45 6.7 0 9.63-2.4 4.17-5.55 8.18-9.83 10.54-1.26.71-4.59.7-3-1.51z"/><path d="m228.48 417.69c3.23-9.71 11.16-16.72 16.76-25 .68 1.2 2.33 2.87.81 4.17-5.89 6.08-10.56 13.17-15.2 20.22-.6.15-1.78.46-2.37.61z"/><path d="m339.35 394.41c1.65-.89 3.07.62 4.25 1.57-1.84.72-3.65 1.54-5.5 2.22-.42.02-1.26.06-1.68.08.82-1.33 1.21-3.35 2.93-3.87z"/><path d="m349.52 394.47c1.48-.23 2.31 1.9 2.46 3.12-1.91 3.01-2.67-1.5-2.46-3.12z"/><path d="m354.77 406.01c2.5-6.78 8.92-12.04 16.2-12.68-.42.68-1.26 2.03-1.68 2.71-6.45 2.33-11.95 7.68-13.42 14.52-1.1-1.24-1.8-2.94-1.1-4.55z"/><path d="m210.6 400.49c1.41-3.67 5.31-5.3 8.9-5.96-.65 1.02-1.28 2.07-1.94 3.09-2.66 1.6-5.45 3.69-5.58 7.11-.73-1.26-2.11-2.67-1.38-4.24z"/><path d="m200.97 395.72c.31.52.92 1.56 1.23 2.08-.14 1.66-.3 3.32-.36 4.99-2.87 2.54-6.08 5.49-10.24 5.02-.27-.39-.81-1.19-1.08-1.58 4.71-1.62 11.15-4.48 10.45-10.51z"/><path d="m182.05 407.94c.37-4.97 4.85-8.78 9.7-9.15-1.04 1.29-2.11 2.57-3.3 3.73-2.73 2.17-4.32 5.26-5.26 8.57-.61-.94-1.42-1.95-1.14-3.15z"/><path d="m326.37 413.53c-3.36-5.33 1.04-11.34 5.14-14.77.35.58 1.03 1.73 1.38 2.3-3.45 3.37-6.07 7.56-6.52 12.47z"/><path d="m245.17 413.05c3.24-4.94 6.71-10.01 11.94-13.03-.7 1.71-1.43 3.4-2.21 5.08-4.11 4.04-7.21 8.95-10 13.96-.43-.21-1.31-.61-1.75-.81.38-1.84.98-3.64 2.02-5.2z"/><path d="m404.39 399.93c2.07 2.33 1.9 6.01-.13 8.32-3.17 3.78-7.86 6.36-12.8 6.7-1.44-.55-2.87-1.14-4.29-1.71 7.45-.67 17.05-4.56 17.22-13.31z"/><path d="m333.83 402.15c2.53 1.37 5.31 2.17 8.18 2.46-.48.74-.95 1.48-1.4 2.22-2.55-1.09-5.04-2.46-6.78-4.68z"/><path d="m168.72 403.46c.45 1.13 1.18 2.21 1.13 3.5-.69.96-1.73 1.57-2.63 2.33-.36 1.48.66 3.15-.43 4.48-2.31 3.47-4.92 6.81-7.67 9.92-.62.17-1.85.5-2.47.66 1.8-5.72 6.92-9.4 9.42-14.73.21-2.72-2.5-2.17-4.36-2.21-5.2.57-10.33 2.55-14.14 6.21-3.63 3.39-5.99 7.84-8.16 12.25l-1.44-.69c.2-1.41.32-2.86.96-4.15 3.24-6.7 8.64-12.88 16.05-14.9 3.63-1.4 7.41-.12 11.09.25 1.3-.5 1.8-1.94 2.65-2.92z"/><path d="m381.76 410.95c3.63-2.66 7.42-6.3 12.14-6.33 2.15-.47.93 2.73-.19 3.12-3.49 2.38-7.81 3.08-11.95 3.21z"/><path d="m288.8 409.88c1.1-2.3 3.59-.63 5.18.13 10.84 6.31 22.22 11.64 33.13 17.83 3.41 1.86 6.3 4.61 9.93 6.08 2.13-1.06 2.44-3.53 2.79-5.62.71 1.3 2.2 2.57 1.57 4.21-.45 1.88-2.05 4.49-4.31 3.08-9.44-6.91-20.19-11.69-30.42-17.26-5.01-2.39-9.61-5.56-14.7-7.79-3.36 3.38-4.15 8.3-5.87 12.56-1.52 3.64-1.56 8.01-4.16 11.11-2.36 1.19-4.84-1.03-6.28-2.78 1.7.29 4.21 1.69 5.29-.42 2.99-6.88 4-14.61 7.85-21.13z"/><path d="m339.32 418.28c3.78-1.96 6.5-5.33 9.2-8.51.48.8.97 1.6 1.46 2.41-4.08 6.1-10.67 10.7-18.21 10.74-1.03-.65-2.02-1.33-3.03-1.99 3.59-.52 7.34-.88 10.58-2.65z"/><path d="m257.33 425.28c7.11-3.56 13.85-7.81 20.94-11.43-.39 1.25-.77 2.52-1.16 3.78-8.28 4.26-15.98 9.9-25.01 12.52-3.79 1.01-8.88 1.31-11.19-2.55 5.5 2.19 11.36.03 16.42-2.32z"/><path d="m361.97 417.27c3.56-.87 6.82-2.59 10.14-4.09-.95 1.45-1.88 2.92-2.84 4.37-5.22 2.87-12.5 3.39-16.8-1.38 3.11.62 6.3 1.92 9.5 1.1z"/><path d="m373.41 425.6c2.19-3.1 3.64-6.63 5.46-9.94 17.25 7.38 34.91 13.82 51.6 22.45.9-1.51 1.73-3.07 2.25-4.75.95 1.59 2.24 3.58.8 5.33-1.15 2.04-3.58.7-5.09-.08-15.37-7.85-31.62-13.77-47.52-20.43-2.67 2.68-3.47 7.02-5.89 10.09-2.02-.44-3.79-1.48-5.14-3.05 1.16.18 2.34.44 3.53.38z"/><path d="m201.61 417.87c.59.75 1.17 1.51 1.75 2.28-.5.89-1 1.78-1.5 2.68-.74-.06-2.21-.19-2.94-.25.89-1.57 1.8-3.14 2.69-4.71z"/><path d="m201.05 430.55c6.69-.98 13.71-3.13 18.2-8.51.45 1.03.88 2.07 1.39 3.08-5.3 4.89-12.51 7.33-19.62 7.74-2.93.38-5.45-1.38-7.11-3.62 2.23 1.02 4.67 1.76 7.14 1.31z"/><path d="m177.1 423.45c1.46-.26 1.97.35 1.52 1.84l-.7.21c-.2-.51-.62-1.54-.82-2.05z"/><path d="m221.97 427.15c5.23 2.07 9.35-2.27 13.86-4.01 1.93.15 3 1.98 4.16 3.3-3.25-2.47-6.15 1.27-9.06 2.49-2.96 1.83-6.95 1.09-8.96-1.78z"/><path d="m154.57 430.99c5.09 1.4 9.77-1.44 13.28-4.85.13 1.2.28 2.39.45 3.59-3.66 3.1-10.21 6.23-13.73 1.26z"/><path d="m133.03 436.03c7.43.17 13.68-4.27 18.55-9.44.38.57 1.13 1.71 1.51 2.28-4.17 4.71-9.64 8.85-16.14 9.26-1.68.41-2.85-1.12-3.92-2.1z"/><path d="m169.94 432.84c7.7 1.97 16.11-1.06 21.92-6.23.42.55 1.26 1.64 1.68 2.18-3.52 3.89-8.66 5.51-13.61 6.67-3.49.68-7.81.71-9.99-2.62z"/><path d="m114.91 439.85c5.8-1.92 10.43-6.08 15.18-9.76.28.69.83 2.07 1.11 2.76-6.17 4.79-12.9 10.91-21.34 9.91-1.72.1-2.79-1.4-4.01-2.34 3.02.1 6.15.5 9.06-.57z"/><path d="m72.66 453.56c11.95-3.49 21.93-11.42 30.87-19.8.21 1.1.44 2.2.69 3.3-9.18 8.35-19.46 16.31-31.75 19.25-6.77 1.32-15.05.54-19.53-5.36 5.79 3.79 13.15 4.7 19.72 2.61z"/><g fill="#df002d"><path d="m60.4 266.25.44-.43c14.04-.26 28.09-.01 42.14-.12 3.79-.13 7.42 1.04 11.1 1.67 3.07.73 5.79-1.48 8.86-1.12 6.69.3 13.56-.68 20.1 1.13 4.07.68 7.82-1.94 11.88-1.69 38.03.08 76.06-.02 114.09.05 13.95 1.52 27.98-.86 41.94.42.81-.08 2.45-.26 3.26-.35 1.59.59 3.14 1.3 4.81 1.65 2.12-.26 3.74-2.16 6.01-1.76 22.32.07 44.64-.04 66.96.05 6.79.85 13.68.04 20.37 1.65.75 1.91.24 5.95 3.35 5.36 1.68-2.19-.15-4.15-1.52-5.84 1.54.44 3.1.88 4.64 1.33-.41 1.62-1 3.19-1.47 4.79.34 1.66 1.16 3.22 1.19 4.94.1 26.88.21 53.75.03 80.63-3.82.91-7.75.5-11.63.56-112.99.01-225.98-.02-338.98.01-2.82-.16-5.87.52-8.51-.75-.46-1.78-.27-3.64-.31-5.45.15-16.33-.23-32.68.25-49.01-.49-12.58-.35-25.2 1-37.72m217.14 1.88c3.86.88 7.81-.04 11.71.46 3.17 2.6 7.53-.13 11.11-.38-4.34-1.22-8.9-1.15-13.36-.96-3.18.14-6.87-1.84-9.46.88m89.4 7.31c-3.69 1.14-6.87 3.42-10 5.61-1.15 3.22-2.74 6.43-2.47 9.95.18 16.01-.25 32.02.4 48.02.18 4.6 3.75 8.55 7.97 10.06 8.2 3.08 17.2 2.56 25.7 1.26 6.14-1.59 12.66-6.35 12.41-13.35-.66-17.29.23-34.62-.51-51.91-1.36-5.7-7.21-8.9-12.56-9.96-6.9-1.21-14.11-1.44-20.94.32m-289.58.03c-.16 10.49-.2 20.99-.17 31.48-.45 6.33-.75 12.71-.15 19.05.12 7.85-1.62 15.88.47 23.59 3.82 2.11 8.33.64 12.48 1.04 2.72-.09 6.89.71 8.05-2.55-.6-10.85-.19-21.76.4-32.57 1.97-.63 3 1.39 4.19 2.51-.62 5.98-.26 12.01-.36 18.01.14 5.11-.07 11 4.04 14.77 6.22-.11 12.55.52 18.69-.68-2.03-8.57-1.4-17.39-1.91-26.1.06-3.35-.55-6.79-2.36-9.65-1.65-1.91-3.93-3.14-5.57-5.05 2.3-2.05 5.34-3.54 6.54-6.54 2.05-3.58 1.46-7.83 1.69-11.77.63-6.06-3.48-12.38-9.47-13.88-6.68-2.46-13.89-2.38-20.9-2.32-5.22.1-10.49-.25-15.66.66m87.25.07c-.54 1.08-1.23 2.15-1.31 3.4-1.22 7.97-2.62 15.93-4.76 23.71-1.52 4.82-1.19 9.98-2.88 14.77-.48 4.27-2.13 8.28-2.52 12.56-.83 6.79-3.03 13.37-3.21 20.25 6.35.76 12.86.55 19.21.07 2.55-5.77 2.62-12.6 4.54-18.7 2.04-1.9 5.16-.89 7.45.01.27 4.2 1.48 8.26 1.98 12.43.29 1.86.4 3.84 1.38 5.51 2.43 1.74 5.67.94 8.47 1.18 3.72-.28 7.69.65 11.25-.59.22-2.1.07-4.21-.06-6.3-1.61-5.88-2.83-11.89-3.65-17.95-2.08-9.98-4.7-19.86-5.8-30.01-1.89-6.75-2.32-13.86-4.9-20.42-8.33-1.39-16.8-.03-25.19.08m64.29 1.47c-.47 5.64.69 11.31.1 16.97-.76 6.33.64 12.67-.1 19.01-.55 5.01.46 10.03-.03 15.04-.55 7 .44 13.98.26 20.98.3.39.88 1.18 1.17 1.57 6.24.22 12.49.12 18.74.11 5.6.11 11.48.52 16.61-2.18 5.12-1.47 9.42-5.97 9.71-11.41.51-14.39-.23-28.77.12-43.16-.02-3.17-.09-6.41-1.03-9.46-1.14-2.63-3.47-4.39-5.57-6.21-5.6-2.41-11.73-3.51-17.81-3.2-4.99 1.03-10.02-.46-15.04.15-2.34.44-5.91-1-7.13 1.79m75.77 1.1c-.14 23.32-.11 46.66.29 69.99-.07 1.47 1.5 2.72 2.93 2.64 5.1.01 10.21.3 15.3.02 1.89.07 2.7-2.17 2.59-3.74-.1-7.71-.2-15.44.32-23.15-.81-15.27-.32-30.59-.35-45.87-.26-1.17-.9-2.18-1.39-3.24-5.44.46-10.9-.05-16.34.12-1.49.48-3.59 1.25-3.35 3.23m108.45-3.82c.31 1.62-.68 5.67 2.21 3.95.59-1.75-1.33-2.79-2.21-3.95z"/><path d="m98.56 286.12c1.23.55 2.44 1.12 3.66 1.71.07 4.71.65 9.44.07 14.14-.18 1.78-2.42 1.82-3.58 2.69-1.83-6.03-.69-12.4-.15-18.54z"/><path d="m375.72 286.5c1.19-.16 2.95-1.14 3.71.34.99 4.66.58 9.48.57 14.22-.42 12.57.05 25.16-.27 37.72-1.35-.16-2.75-.08-4.02-.57-1.61-10.01 1.08-20.16-.67-30.17-.25-7.17-.56-14.43.68-21.54z"/><path d="m249.9 313.99c.82-9.09-1.21-18.34.86-27.35 1.38-.42 3.08.65 2.9 2.17 1 11.03.07 22.14.03 33.2.18 5.51.3 11.04-.07 16.55-.9.44-1.81.88-2.71 1.32-2.06-8.51.31-17.29-1.01-25.89z"/><path d="m177.36 310.55.49-.28c1.03 2.48.63 5.36.46 7.99-1.2.98-2.76.47-2.75-1.19.56-2.1.31-4.89 1.8-6.52z"/><path d="m276.04 374.04c12.87-6.98 27.52-9.37 41.96-10.28 6.4-.16 13.66 1.54 17.34 7.29 1.05 4.68 1.01 10.14-2.49 13.84-5.3 5.64-12.43 9.1-19.22 12.6-4.65 2.51-10.05 3.65-14.1 7.21l2.55 1.17c6.59 2.78 12.32 7.15 18.4 10.84-1.19-2.72-2.7-5.63-1.87-8.69 1.02-5.79 5.57-9.92 10.04-13.3 3.81-2.89 8.27-5.7 13.28-5.15 3.04.04 7.04 1.57 7.59 4.9-.21 1.62.55 6.13 2.46 3.12 6.05-6.53 15.08-11.17 24.15-10.15 2 .05 3.23 1.81 4.62 3-.96 6.37-6.86 9.55-12.01 12.23-1.05-.27-1.33-1.7-2.05-2.4.86-1.41 1.72-2.83 2.6-4.23.42-.68 1.26-2.03 1.68-2.71-7.28.64-13.7 5.9-16.2 12.68-.7 1.61 0 3.31 1.1 4.55 3.92 2.1 9.04 1.61 12.58-1.07 6.08-4.12 12.81-7.93 16.77-14.35 4.79-7.9 10.64-15.11 17.04-21.76 3.11-3.25 7.18-6.09 11.82-6.23 1.92.03 3.01 1.79 4.33 2.91-.42 4.64-.67 9.77-4.03 13.39-5.11 5.34-11.57 9.11-17.68 13.18 1.41.12 2.82.24 4.24.36 1.45.55 2.49 1.77 3.45 2.94-.17 8.75-9.77 12.64-17.22 13.31 1.42.57 2.85 1.16 4.29 1.71 10.43 4.21 21.15 7.69 31.44 12.24 3.52 1.61 7.48 2.87 9.82 6.17-.52 1.68-1.35 3.24-2.25 4.75-16.69-8.63-34.35-15.07-51.6-22.45-1.82 3.31-3.27 6.84-5.46 9.94-1.19.06-2.37-.2-3.53-.38-2.15-2.1-2.25-5.23-.61-7.67.96-1.45 1.89-2.92 2.84-4.37-3.32 1.5-6.58 3.22-10.14 4.09-3.2.82-6.39-.48-9.5-1.1-.82-1.33-1.68-2.66-2.49-3.99-.49-.81-.98-1.61-1.46-2.41-2.7 3.18-5.42 6.55-9.2 8.51-3.24 1.77-6.99 2.13-10.58 2.65 1.01.66 2 1.34 3.03 1.99 2.64 1.85 6.12 2.62 8.06 5.38-.35 2.09-.66 4.56-2.79 5.62-3.63-1.47-6.52-4.22-9.93-6.08-10.91-6.19-22.29-11.52-33.13-17.83-1.59-.76-4.08-2.43-5.18-.13-3.85 6.52-4.86 14.25-7.85 21.13-1.08 2.11-3.59.71-5.29.42-.86-.95-1.66-2.16-1.31-3.5.36-3.57 1.78-6.89 2.76-10.3.39-1.26.77-2.53 1.16-3.78-7.09 3.62-13.83 7.87-20.94 11.43-5.06 2.35-10.92 4.51-16.42 2.32-.23-.29-.69-.87-.92-1.16-1.16-1.32-2.23-3.15-4.16-3.3-4.51 1.74-8.63 6.08-13.86 4.01-.33-.51-1-1.52-1.33-2.03-.51-1.01-.94-2.05-1.39-3.08-4.49 5.38-11.51 7.53-18.2 8.51-2.47.45-4.91-.29-7.14-1.31l-.37-.45c-.42-.54-1.26-1.63-1.68-2.18-5.81 5.17-14.22 8.2-21.92 6.23-.66-.96-1.55-1.9-1.64-3.11-.17-1.2-.32-2.39-.45-3.59-3.51 3.41-8.19 6.25-13.28 4.85-.52-.69-1.01-1.4-1.48-2.12-.38-.57-1.13-1.71-1.51-2.28-4.87 5.17-11.12 9.61-18.55 9.44l-.11.01c-.58-1.06-1.23-2.09-1.72-3.19-.28-.69-.83-2.07-1.11-2.76-4.75 3.68-9.38 7.84-15.18 9.76-2.91 1.07-6.04.67-9.06.57-.6-1.09-1.15-2.21-1.63-3.36-.25-1.1-.48-2.2-.69-3.3-8.94 8.38-18.92 16.31-30.87 19.8-6.57 2.09-13.93 1.18-19.72-2.61-5.14-5.28-5.39-13.29-3.67-20.05 2.88-12.02 9.2-23.06 17.16-32.43 7.23-7.89 15.66-14.66 24.71-20.35 5.4-3.12 11.44-6.59 17.92-5.4 2.79.46 4.48 2.87 6.31 4.77.24 3.73.71 7.61-.65 11.2-2.47 6.9-6.95 12.88-11.75 18.32-5.14 5.56-10.8 10.88-17.64 14.26-2.26 1.23-4.87 1.27-7.37 1.34-2.46-3.03-2.59-7.56-.08-10.6 2.86-4.18 7.79-6.04 12.6-6.76 8.26-5.44 14.82-13.82 17.76-23.31-.65-1.12-1.65-2.84-3.25-1.97-7.77 1.66-14.02 7.02-19.69 12.28-9.59 9.41-18.99 19.92-22.76 33.14-1.59 5.46-2.29 12.01 1.48 16.77 4.92 4.19 11.78 2.17 17.03-.21 8.94-4.19 17.22-9.89 24.6-16.43 4.54-9.04 8.79-18.29 13.85-27.08 4-6.5 8.59-12.62 13.35-18.57 2.76-3.43 6.53-6.76 11.18-6.81 2.34.03 3.96 1.85 5.22 3.61.85 9.26-5.59 16.79-11.35 23.23-7.89 8.13-16.59 15.5-23.71 24.35-1.59 1.99-2.07 5.01-.13 6.94 4.28-.03 7.58-2.92 10.95-5.15 2.47-1.82 5.38-3.38 6.82-6.23 3.88-7.11 9.17-13.8 16.4-17.71 4.73-2.65 10.43-3.36 15.71-2.23 2.03.48 3.29 2.27 4.78 3.59-.85.98-1.35 2.42-2.65 2.92-3.68-.37-7.46-1.65-11.09-.25-7.41 2.02-12.81 8.2-16.05 14.9-.64 1.29-.76 2.74-.96 4.15l1.44.69c4.63-.61 8.06-4.2 11.2-7.34 3.45-3.94 7.12-7.7 11.1-11.12 1.86.04 4.57-.51 4.36 2.21-2.5 5.33-7.62 9.01-9.42 14.73.62-.16 1.85-.49 2.47-.66 3.4-.62 5.48-3.61 7.98-5.68 2.22-1.19 3.79 1.58 5.05 2.98.77-.08 2.31-.22 3.08-.29.47.32 1.43.96 1.91 1.28l-.04 1.47c.2.51.62 1.54.82 2.05l.7-.21c2.88-.68 5.8-1.68 7.7-4.08-3.48-1.94-7.97-2.61-10.3-6.18-2.3-2.55-3.5-6.12-2.35-9.48 2.03-6.13 8-9.7 13.47-12.4 4.49-2.22 11.08-2.35 13.83 2.57.7 6.03-5.74 8.89-10.45 10.51-.75-1.2-1.41-2.47-2.07-3.71 1.19-1.16 2.26-2.44 3.3-3.73-4.85.37-9.33 4.18-9.7 9.15-.28 1.2.53 2.21 1.14 3.15 3.86 1.29 7.74 2.78 10.8 5.58 2.6-1.52 6.06-1.99 7.62 1.2-.89 1.57-1.8 3.14-2.69 4.71.73.06 2.2.19 2.94.25 4.32-.23 9.53-2.21 10.55-6.92-3.56-4.32-8.57-7.61-10.57-13.12.06-1.67.22-3.33.36-4.99 2.93-5.42 9.03-8.06 14.79-9.25 3.47-.72 8.11-.79 10 2.82-.15 5.43-3.73 10.71-9.23 11.83-2.15-1.47-1.57-3.73-.2-5.58.66-1.02 1.29-2.07 1.94-3.09-3.59.66-7.49 2.29-8.9 5.96-.73 1.57.65 2.98 1.38 4.24 3.21 3.25 6.34 6.59 8.99 10.34 1.94-4.75 4.78-9.04 7.9-13.09 3.58-4.62 6.97-9.44 11.16-13.54 2.01 1.05 3.72 2.54 5.21 4.25-5.6 8.28-13.53 15.29-16.76 25 .59-.15 1.77-.46 2.37-.61 4.05-1.16 6.53-5.06 9.05-8.18 5.02-8.28 12.83-14.75 21.66-18.61 2.36-.98 6.09-2.06 7.28 1.08-.18 8.1-6.1 14.82-12.83 18.66-3.15.14-1.76-3.24-1.11-4.93.78-1.68 1.51-3.37 2.21-5.08-5.23 3.02-8.7 8.09-11.94 13.03-1.04 1.56-1.64 3.36-2.02 5.2.44.2 1.32.6 1.75.81 3.65 1.18 7.54-.32 11.14-1.11 8.13-2.75 16.08-6.24 23.33-10.84-.15-1.74-.56-3.59.33-5.19 1.31-2.44 4.77-2.66 6.01-5.14 2.83-5.3 4.57-11.24 8.23-16.07 1.99-1.34 4.73-.16 5.78 1.84-1.36 5.12-3.86 9.85-5.25 14.98.58-.13 1.74-.39 2.33-.51 9.25-1.87 17.67-6.64 25.48-11.79 3.25-2.52 7.48-4.95 8.27-9.33-1.01-1.18-2.14-2.31-3.64-2.82-7.22-2.87-15.18-1.92-22.66-.87-9.54 1.35-18.48 5.1-27.26 8.86-2.96 1.3-6.08 2.15-9.22 2.86-.65-.76-1.31-1.51-1.97-2.25 2.3-3.78 6.48-5.64 10.24-7.64m130.29 3.29c-4.21 4.42-8.43 8.89-12.01 13.85 2.42-1.05 4.92-2.14 6.8-4.05 3.53-2.47 7.99-4.88 9.12-9.35-.07-2.48-2.86-1.97-3.91-.45m-269.03 6.91c-7 7.6-13.37 16.15-17.02 25.89 1.41-1.24 2.85-2.47 3.9-4.05 4.99-5.02 9.36-10.62 13.58-16.29.96-1.27 1.63-2.73 2.11-4.23 1.54-1.23-1.9-3.15-2.57-1.32m202.05 10.17c-1.72.52-2.11 2.54-2.93 3.87l1.68-.08c1.66 1.48 4.11 1.07 6.15 1.02-.17-1.1-.38-2.18-.65-3.24-1.18-.95-2.6-2.46-4.25-1.57m-12.98 19.12c5.78 1.34 10.89-2.35 14.24-6.7.45-.74.92-1.48 1.4-2.22-2.87-.29-5.65-1.09-8.18-2.46-.24-.27-.71-.82-.94-1.09-.35-.57-1.03-1.72-1.38-2.3-4.1 3.43-8.5 9.44-5.14 14.77m55.39-2.58c4.14-.13 8.46-.83 11.95-3.21 1.12-.39 2.34-3.59.19-3.12-4.72.03-8.51 3.67-12.14 6.33z"/><path d="m240.7 382.81c2.34-2.49 5.28-4.39 8.28-5.99 2.62-1.22 4.17 1.73 5.81 3.17-3.62 3.13-7.08 7.93-12.46 7.29-.66-1.41-2.77-2.84-1.63-4.47z"/></g></g></svg>