<svg id="a" width="531.24pt" height="314.49pt" version="1.1" viewBox="0 0 531.24 314.49" xmlns="http://www.w3.org/2000/svg">
 <path id="b" d="m242.32 120.57 179.7-0.51c5 0.15 9.93 2.7 12.86 6.78 2.95 3.6 2.8 8.52 3.22 12.9l-0.21 35.83 78.9-5.34c8.36 0.43 14.49 8.38 14.42 16.46v111.1c-0.05 6.46-3.58 12.84-9.6 15.46-4.97 2.02-10.36 0.93-15.52 0.63-20.3-0.9-40.76-2.9-60.76-4.31l-136.31-8.46c-22.346-1.3869-45.282-1.1672-66 0l-175.55 9.89c-11.81 1.3317-34.31 2.5-51.48 3.48-8.42 0.27-16.01-7.31-15.99-15.67l0.01-113.14c0-8.73 8.26-16.36 17-15.51l49.74 3.26 7.7303 0.42419c2.72 2.81 4.7897 5.0258 8.7097 5.9258 2.61-0.16 5.04-1.29 7.65-1.5 1.8-0.31 3.85-0.07 5.39-1.22 0.55-1.35 0.74-2.81 0.95-4.23 9.35 10.23 21.6 17.77 34.71 22.18 13.74 5.38 29.06 5.42 43.44 2.94 8-2.02 15.97-4.61 23.23-8.58 25.28-13.19 42.09-40.47 43.76-68.79" fill="#bd1220"/>
 <path id="c" d="m34.766 195.16-21.275 3e-3 -0.0205 95.221c16.19 0.1 32.369-2e-4 48.549 0.0498 8.98 0.01 18.271-1.9106 25.871-6.8306 9.57-6.27 12.721-19.68 8.0405-29.89-3-6.03-8.6708-10.369-15.031-12.379 3.37-2.06 7.1801-3.8808 9.1201-7.5308 3.44-4.95 3.1896-11.209 2.8696-16.939-0.7-6.93-5.3296-13.1-11.29-16.51-7.9-3.94-16.85-4.8697-25.55-5.1797-7.095-0.015-14.19-0.0157-21.284-0.0132zm15.448 21.727c0.96562-0.0106 1.93-0.0106 2.8945 0.0117 4.87e-4 2e-5 7.5e-4 0 0.0015 0 0.0171 4e-4 0.0342 7.5e-4 0.0513 1e-3 0.94692 0.0227 1.8939 0.0675 2.8389 0.14356 0.34625 7e-3 0.67891 0.0497 1.0005 0.12158 4.65e-4 1.1e-4 7.5e-4 -1e-4 0.0015 0 0.48186 0.10784 0.93662 0.28223 1.3667 0.5083 3.9e-4 2.1e-4 7.5e-4 -2e-4 0.0015 0 0.43008 0.22619 0.83612 0.50453 1.2188 0.81739 0.25556 0.20892 0.49935 0.43357 0.73535 0.66943 0.2355 0.23535 0.46237 0.48108 0.67969 0.73389 0.43543 0.50649 0.83536 1.0383 1.2056 1.5586 0.07125 0.43625 0.14234 0.88835 0.20654 1.3506 0.12854 0.92486 0.2274 1.8878 0.23584 2.8418 0.0045 0.47674-0.01425 0.9512-0.063 1.4165-0.07313 0.69797-0.21434 1.3769-0.44971 2.0142-0.12852 0.34793-0.29313 0.67889-0.48194 0.99902-0.0417 0.0707-0.07667 0.1447-0.12158 0.21387-2.33e-4 3.5e-4 2.32e-4 7.5e-4 0 2e-3 -0.37216 0.57296-0.85629 1.0914-1.4766 1.5337-0.83438 0.66375-1.7208 1.1603-2.6455 1.5308-0.30824 0.12348-0.62137 0.23267-0.9375 0.32958-0.31569 0.0967-0.6355 0.18163-0.958 0.25488-0.94397 0.21444-1.916 0.33327-2.9004 0.39698-0.04485 3e-3 -0.08984 5e-3 -0.13477 7e-3 -1.3299 0.0791-2.6827 0.0605-4.0269 0.0323-1.3633-0.0286-2.7168-0.0642-4.0268-0.0117v-17.37c1.93-0.02 3.8533-0.0857 5.7846-0.10693zm1.7139 32.12c4.1255 0.0268 8.2036 0.55136 11.641 3.0264 3.2 1.86 3.5204 6.1905 2.9605 9.4805-0.35 3.54-3.5999 5.8407-6.6899 6.9507-4.97 1.34-10.17 0.69873-15.25 0.69873l-0.0088-19.979c2.3813-0.03 4.8724-0.19331 7.3477-0.17725z" fill="#fff"/>
 <path id="d" d="m421.24 195.45 30.86-0.26 34.92 54.74 0.03-54.58 29.4-0.07-0.17 95.21-29.94-0.13-35.39-51.85-0.23 51.93-29.39-0.01z" fill="#fff"/>
 <path id="e" d="m142.47 203.91c-1.3812-0.0252-2.7636 0.0103-4.1411 0.104-11.78 0.45-23.591 5.7496-30.961 15.1-12.57 15.36-10.43 40.619 5.1299 53.169 11.44 9.67 27.641 10.911 41.791 7.8809 8.53-2.4 16.58-7.2404 21.71-14.61 5.57-6.9 7.0697-16.141 6.6797-24.771-0.1-10.52-5.0806-20.94-13.411-27.39-7.5163-6.2038-17.129-9.307-26.798-9.4834zm-0.48633 22.657c1.585 0.0313 3.1593 0.23606 4.6743 0.70605 6.88 2.65 11.37 10.2 10.84 17.49-0.15 4.75-2.8296 9.02-6.0996 12.29-7.12 4.58-18.26 4.131-23.37-3.249-4-5.66-3.9503-13.77-0.59033-19.74 2.27-3.42 5.75-6.2302 9.8101-7.1602 1.555-0.225 3.1508-0.36817 4.7358-0.33692z" fill="#fff"/>
 <path id="f" d="m372.1 203.95c-2.2175 7e-3 -4.43 0.14844-6.605 0.39844-11.65 1.18-23.001 7.4904-29.451 17.38-4.8 6.96-6.2592 15.669-5.7393 23.979-0.03 12.49 7.3897 24.569 18.45 30.319 10.65 6.4 23.84 6.4698 35.72 4.2598 9.02-2.26 17.44-7.6194 22.69-15.379 6.94-10.18 8.5599-23.79 4.1499-35.3-3.17-9.56-10.77-17.42-19.95-21.41-5.91-3.0825-12.613-4.2692-19.266-4.248zm-0.5039 22.572c3.9008-0.036 7.7998 1.1086 10.639 3.9067 7.77 6.43 7.7801 20.029-0.16992 26.339-5.12 4.04-12.711 4.0504-18.491 1.4004-7.67-4.28-10.24-14.73-6.4102-22.44 1.89-3.83 5.1909-6.9797 9.2109-8.4697 1.675-0.45937 3.4476-0.72043 5.2207-0.73681z" fill="#fff"/>
 <path id="g" d="m192.56 209.28c7.09-0.01 14.18-0.11 21.27 0 1.25-0.13 1.98 1.07 2.63 1.93 5.71 9.54 11.85 18.81 17.75 28.24 1.62 2.98 3.48 5.83 5.62 8.48 0.17-12.93-0.29-25.88 0.21-38.8 6.93 0.19 13.88 0.18 20.81 0.01 0.15 22.34-0.09 44.68 0.12 67.02-6.98 0.18-13.97 0.15-20.96 0.08-1.62 0.23-2.46-1.27-3.23-2.39-4.57-7.32-9.71-14.27-14.35-21.56-2.96-3.8-4.82-8.44-8.44-11.71-0.36 11.92-0.01 23.86-0.18 35.78-7.1-0.14-14.21-0.03-21.31-0.08 0.2-22.33 0.08-44.67 0.06-67z" fill="#fff"/>
 <path id="h" d="m273.09 209.12 50.35 0.15-0.15 18.78-13.97-0.06 0.01 48.11-22.11-0.08-0.06-48.04-14.03 0.45z" fill="#fff"/>
 <path id="i" d="m174.2 69.183c9.02 0.04 17.62 5.93 20.89 14.35 2.08 6.2 2.37 13.84-1.42 19.45-0.85-5.03-2.92-10.82-8.39-12.34-7.59-3.08-16.86 3.96-15.77 12.13-0.04 6 5.31 10.43 10.98 10.93l0.63 0.14c-5.3 1.24-11.11 1.54-16.08-1.02-8.71-3.83-14.15-13.62-12.86-23.05 0.53-11.13 10.89-20.77 22.02-20.59z" fill="#fff"/>
 <path id="j" d="m109.87 95.573c8.01-8.59 23.31-8.63 31.34-0.04 7.83 7.4 9.1 20.88 2.38 29.38 0.73-4.08-0.09-8.61-2.98-11.71-6.04-5.55-17.7-3.09-19.82 5.23-2.32 6.79 2.8 14.13 9.6 15.43-6.53 1.21-13.94 0.26-18.95-4.44-10.25-7.9-10.95-25.01-1.57-33.85z" fill="#fff"/>
 <g id="k" transform="matrix(.99304 0 0 .99304 239.68 125.09)" fill="#fff">
  <path id="l" d="m54.24 12.12c1.82-2.61 3.8-5.1 5.88-7.51 1.66 1.17 3.3 2.36 4.99 3.49-2.48 1.94-4.33 4.67-7.11 6.2-1.51-0.11-2.53-1.45-3.76-2.18z"/>
  <path id="m" d="m4.4203 17.44 12.361 0.01613c2.9818 0.0039 5.9604 0.03137 8.9284 0.25387 3.42 0.83 7.52 1.98 8.97 5.58 2.01 3.15 2.14 7.03 1.49 10.6-0.99 3.03-3.83 4.68-6.38 6.23l9.39 13.44-14.93 0.06-7.18-13.11-0.16 13.14h-12.49v-36.21m12.58 9.04-0.01 8.25c2.9 0.23 6.6-0.22 6.86-3.85 0.26-3.86-3.82-4.64-6.85-4.4z"/>
  <path id="n" d="m52.24 17.46 14.38-0.05 12.64 36.22-12.88-0.05971-0.77-4.2203-11.61-0.04-0.75985 4.2603h-13.4l12.4-36.11m6.44 11.03-2.65 13 6.91-0.04-2.29-12.96z"/>
  <path id="o" d="m84.12 17.41 10.482 0.02333c6.376 0.01419 12.718 0.1761 18.208 3.7867 8.23 6.59 9.17 20.62 1.32 27.92-3.06 3.37-7.77 4.37-12.14 4.41-2.03 0.01017-4.0611 0.01899-6.0926 0.0218h-11.887v-36.162m12.49 10.38 0.09 15.75c2.52-0.09 5.33 0.17 7.44-1.5 3.11-2.25 2.99-6.72 1.99-10.03-1.63-3.47-6.03-4.38-9.52-4.22z"/>
  <path id="p" d="m125.89 17.39 12.04-0.03 0.01 36.33-12.06-0.03z"/>
  <path id="q" d="m161.29 16.83c5.4-1.05 11.067 0.58803 15.65 3.34 10.448 6.2743 10.86 23.586 0.72 30.46-9.1718 6.2174-24.105 5.0588-30.51-4.79-4.2157-6.4823-3.7093-15.471 1.01-21.68 3.2159-4.231 8.25-6.13 13.13-7.33m2.18 10.89c-5.7308 1.0745-7.9893 8.3235-5.04 12.94 2.8714 4.4946 10.733 3.6988 13.03-1.3 2.4781-5.3935-2.0389-12.756-7.99-11.64z"/>
 </g>
 <g id="r" transform="translate(-26.98 -8.2575)">
  <path id="s" d="m164.05 39.18c12.73-3.44 26.32-3.43 39.11-0.26 12.36 3.74 23.81 10.1 33.99 18.01 1.28 7.77 7.56 13 11.44 19.46 9 14.07 14.37 30.03 20.74 45.38 0.15 2.35 0.1 4.71-0.03 7.06-1.67 28.32-18.48 55.6-43.76 68.79-7.26 3.97-15.23 6.56-23.23 8.58-14.38 2.48-29.7 2.44-43.44-2.94-13.11-4.41-25.36-11.95-34.71-22.18-6.56-15.87-14.17-31.53-17.32-48.53-1.27-6.32-1.51-12.87-4.04-18.88-0.13-7.25 2.11-14.29 4.88-20.92 2.25-6.36 5.5-12.32 9.1-18.01 10.91-16.97 28.22-29.31 47.27-35.56" fill="#fdc400"/>
 </g>
 <g id="t" transform="translate(-26.98 -233.26)">
  <path id="u" d="m201.18 302.44c-11.13-0.18-21.49 9.46-22.02 20.59-1.29 9.43 4.15 19.22 12.86 23.05 4.97 2.56 10.78 2.26 16.08 1.02l-0.63-0.14c5.74-1.47 10.76-5.24 13.18-10.72 3.79-5.61 3.5-13.25 1.42-19.45-3.27-8.42-11.87-14.31-20.89-14.35m-64.33 26.39c-9.38 8.84-8.68 25.95 1.57 33.85 5.01 4.7 12.42 5.65 18.95 4.44 5.4-0.82 10.28-4.41 13.2-8.95 6.72-8.5 5.45-21.98-2.38-29.38-8.03-8.59-23.33-8.55-31.34 0.04" fill="#fff"/>
 </g>
 <g id="v" transform="translate(-26.98 -8.2575)">
  <path id="w" d="m187.62 66.6c6.6-3.11 14.81-0.63 19.71 4.45-4.45-0.33-8.76-1.88-13.27-1.6-4.17 0.05-8.01 1.86-12.04 2.68 1.71-1.98 3.3-4.2 5.6-5.53z"/>
  <path id="x" d="m137.99 84.94c3.52-4.15 9.61-3.84 14.42-2.72-4.49 2.16-9.48 3.5-13.28 6.94-2.62 2.16-4.22 5.35-7.15 7.17 0.26-4.45 3.27-8.11 6.01-11.39z"/>
  <path id="y" d="m196.49 111.03c-1.09-8.17 8.18-15.21 15.77-12.13 5.47 1.52 7.54 7.31 8.39 12.34-2.42 5.48-7.44 9.25-13.18 10.72-5.67-0.5-11.02-4.93-10.98-10.93"/>
  <path id="z" d="m230.18 118.55c-1.4304-3.7162 3.8246-4.2278 6.79-3.72 2.9204 0.50006 6.0396 2.6291 5.64 5.16-0.32118 2.0342-3.622 1.5802-5.5902 2.4741-0.17094 0.0776-0.46569 0.0876-0.47983 0.26591l-0.22855 2.8824c-1.4226 17.942-11.147 35.719-27.271 44.498-8.34 5.11-18.32 6.99-28 6.53-13.906-0.24363-27.044-6.6508-37.311-15.779-0.26838-0.2386-0.46935-0.86202-0.79922-0.72132-1.9218 0.81968-4.7459 3.9097-6.3 1.32-1.1651-1.9414-0.46669-4.7232 0.80393-6.7643 1.5328-2.4622 4.9861-4.9972 7.1461-2.5857 1.2485 1.3939-0.39759 3.8574 0.26 5.65 0.13867 0.378 0.55371 0.58243 0.84038 0.8611 3.4669 3.3702 7.8662 5.5416 12.3 7.3889 7.24 3.39 15.47 3.63 23.31 3.31 10.66-0.18 20.9-4.44 29.66-10.29 11.529-7.8295 20.472-20.146 22.696-34.024 0.10239-0.63888 0.15125-1.2868 0.26403-1.9263 0.42099-2.3872-3.039-2.7348-3.73-4.53z"/>
  <path id="aa" d="m147.77 126.69c2.12-8.32 13.78-10.78 19.82-5.23 2.89 3.1 3.71 7.63 2.98 11.71-2.92 4.54-7.8 8.13-13.2 8.95-6.8-1.3-11.92-8.64-9.6-15.43"/>
 </g>
 <g id="ab" transform="translate(-26.98 -8.2577)">
  <path id="ac" d="m155.44 10.54c11.31-2.73 23.03-2.51 34.57-1.88 9.75 1.59 19.77 2.42 28.95 6.33 6.56 1.7 12.52 4.96 18.84 7.31 14.14 6.64 26.32 16.69 37.68 27.27 4.35 4.1 7.13 9.57 8.74 15.27 2.84 7.51 6.12 15.07 6.63 23.18 0.27 3.85-1.45 8.38-5.62 9.22 0.36 5.73 1.24 11.8-0.68 17.32-0.74 2.62-3.29 3.53-5.56 4.44-2.05 0.74-2.69 3.65-5.05 3.76-1.62 0.29-3.13-0.52-4.61-0.99-6.37-15.35-11.74-31.31-20.74-45.38-3.88-6.46-10.16-11.69-11.44-19.46 3.94-2.5 8.5-3.8 12.86-5.35 5.84 1.12 11.15 4.02 16.19 7.08-3.49-5.94-8.42-10.8-13.71-15.13-8.15-8.1-17.39-15.17-27.62-20.42-4.27-1.81-8.82-2.88-13.02-4.87-3.03 1.76-6.24 3.46-9.81 3.7-8.37 0.61-16.63-2.02-25.02-1.12-11.83 0.4-23.29 3.77-34.19 8.19-12.36 5.73-23.01 14.69-31.54 25.24-2.97 3.67-5.77 7.6-9.61 10.43-2.4 1.77-5.31 2.57-7.9 3.97-9.73 13.66-11.85 31.04-11.88 47.39-0.61 5.81-0.29 11.64 0.37 17.42 1.92-4.27 3.21-8.79 5.24-13.01 0.8-1.78 2.61-2.73 4.26-3.57 3.5-1.59 7.09-3.24 11.03-3.21 2.53 6.01 2.77 12.56 4.04 18.88 3.15 17 10.76 32.66 17.32 48.53-0.21 1.42-0.4 2.88-0.95 4.23-1.54 1.15-3.59 0.91-5.39 1.22-2.61 0.21-5.04 1.34-7.65 1.5-3.92-0.9-6.98-3.71-9.7-6.52-1.57-1.56-2.82-3.39-3.96-5.29-2.16 0.03-4.34 0.42-6.49 0.1-3.27-1.13-5.89-3.73-7.54-6.72-3.81-7.05-7.37-14.24-10.37-21.67-3.12-8.65-1.78-17.97-1.19-26.91 0.42-10.89 3.3-21.45 6.53-31.78 4.23-9.22 7.52-18.95 13.38-27.33 11.19-18.85 26.83-35.76 46.8-45.35 5.83-2.29 11.51-5.2 17.81-6.02z"/>
 </g>
 <path id="ad" d="m139.65 115.37a3.12 3.12 0 0 1-3.12 3.12 3.12 3.12 0 0 1-3.12-3.12 3.12 3.12 0 0 1 3.12-3.12 3.12 3.12 0 0 1 3.12 3.12z" fill="#fff"/>
 <path id="ae" d="m188.72 95.12a3.12 3.12 0 0 1-3.12 3.12 3.12 3.12 0 0 1-3.12-3.12 3.12 3.12 0 0 1 3.12-3.12 3.12 3.12 0 0 1 3.12 3.12z" fill="#fff"/>
</svg>
