<?xml version="1.0" encoding="UTF-8"?>
<svg id="svg10" width="2526.2" height="195" version="1.1" viewBox="0 0 2526.2 195" xmlns="http://www.w3.org/2000/svg" xmlns:cc="http://creativecommons.org/ns#" xmlns:dc="http://purl.org/dc/elements/1.1/" xmlns:rdf="http://www.w3.org/1999/02/22-rdf-syntax-ns#" xmlns:xlink="http://www.w3.org/1999/xlink">
 <metadata id="metadata14">
  <rdf:RDF>
   <cc:Work rdf:about="">
    <dc:format>image/svg+xml</dc:format>
    <dc:type rdf:resource="http://purl.org/dc/dcmitype/StillImage"/>
    <dc:title/>
   </cc:Work>
  </rdf:RDF>
 </metadata>
 <path id="path8" d="m1069.9 195c-18.488 0-39.442-6.1628-53-16.023-4.9302-3.6977-7.3953-8.6279-7.3953-13.558 0-7.3954 4.9302-12.326 11.093-12.326 2.4651 0 4.9303 1.2326 7.3954 2.4651 12.326 7.3954 20.954 14.791 41.907 14.791 22.186 0 30.814-8.6279 30.814-19.721 0-11.093-8.6279-17.256-36.977-24.651-41.907-11.093-54.233-24.651-54.233-46.837 0-28.349 23.419-43.14 60.395-43.14 8.628 0 19.721 1.2326 29.581 3.6977 11.093 2.4651 23.419 9.8605 23.419 18.488 0 6.1628-3.6976 12.326-11.093 12.326-1.2325 0-3.6977 0-4.9302-1.2326-11.093-4.9302-20.954-9.8605-35.744-9.8605-20.954 0-33.279 4.9302-33.279 17.256 0 11.093 8.6279 14.791 36.977 23.419 30.814 8.6279 53 18.488 53 46.837 1.2325 28.349-18.488 48.07-57.93 48.07m124.49-2.4651c-7.3953 0-14.791-7.3954-14.791-14.791v-125.72c0-7.3953 6.1628-14.791 14.791-14.791 7.3954 0 13.558 6.1628 13.558 14.791v113.4h66.558c7.3953 0 13.558 6.1628 13.558 13.558s-6.1628 13.558-13.558 13.558zm198.44 2.4651c-44.372 0-77.651-34.512-77.651-78.884 0-44.372 33.279-78.884 77.651-78.884s77.651 34.512 77.651 78.884c1.2326 43.14-33.279 78.884-77.651 78.884m0-133.12c-30.814 0-50.535 24.651-50.535 54.233 0 29.581 18.488 54.233 50.535 54.233 30.814 0 50.535-24.651 50.535-54.233 0-29.581-19.721-54.233-50.535-54.233m251.44-6.1628-56.698 129.42c-2.4652 4.9302-7.3954 7.3954-12.326 7.3954s-9.8605-2.4651-12.326-7.3954l-56.698-129.42c-1.2325-1.2326-1.2325-3.6977-1.2325-4.9302 0-7.3953 6.1628-13.558 12.326-13.558 4.9302 0 9.8604 2.4651 12.326 7.3953l44.372 106 45.605-106c2.4651-4.9302 6.1628-7.3953 11.093-7.3953 7.3953 0 13.558 6.1628 13.558 13.558 1.2326 1.2326 0 3.6977 0 4.9302m147.91 135.58h-86.279c-7.3953 0-14.791-6.1628-14.791-13.558v-124.49c0-7.3953 6.1628-13.558 14.791-13.558h82.581c7.3954 0 13.558 4.9302 13.558 12.326s-6.1628 13.558-13.558 13.558h-69.023v36.977h38.209c7.3953 0 13.558 6.1628 13.558 13.558s-6.1628 12.326-13.558 12.326h-38.209v38.209h71.488c7.3953 0 13.558 6.1628 13.558 13.558s-4.9302 11.093-12.326 11.093m176.26 2.4651c-4.9302 0-7.3953-1.2326-9.8604-4.9302l-78.884-99.837v91.209c0 7.3954-6.1627 13.558-13.558 13.558-7.3953 0-13.558-6.1628-13.558-13.558v-129.42c0-7.3953 4.9302-13.558 13.558-13.558 3.6977 0 7.3954 2.4651 9.8605 4.9302l78.884 99.837v-91.209c0-7.3953 4.9302-13.558 13.558-13.558 7.3954 0 13.558 6.1628 13.558 13.558v129.42c0 7.3954-6.1628 13.558-13.558 13.558m128.19 1.2326c-18.488 0-39.442-6.1628-53-16.023-4.9303-3.6977-7.3954-8.6279-7.3954-13.558 0-7.3954 4.9303-12.326 11.093-12.326 2.4651 0 4.9302 1.2326 7.3953 2.4651 12.326 7.3954 20.954 14.791 41.907 14.791 22.186 0 30.814-8.6279 30.814-19.721 0-11.093-8.6279-17.256-36.977-24.651-41.907-11.093-54.233-24.651-54.233-46.837 0-28.349 23.419-43.14 60.395-43.14 8.6279 0 19.721 1.2326 29.581 3.6977 11.093 2.4651 23.419 9.8605 23.419 18.488 0 6.1628-3.6977 12.326-11.093 12.326-1.2326 0-3.6977 0-4.9303-1.2326-11.093-4.9302-20.954-9.8605-35.744-9.8605-20.954 0-33.279 4.9302-33.279 17.256 0 11.093 8.6279 14.791 36.977 23.419 30.814 8.6279 53 18.488 53 46.837 1.2326 28.349-19.721 48.07-57.93 48.07m124.49-1.2326c-7.3953 0-14.791-6.1628-14.791-13.558v-128.19c0-7.3953 6.1627-14.791 14.791-14.791 7.3954 0 13.558 6.1628 13.558 14.791v55.465l69.023-66.558c2.4652-2.4651 6.1628-3.6977 8.628-3.6977 7.3953 0 13.558 4.9302 13.558 12.326 0 4.9302-1.2326 7.3953-3.6977 9.8605l-39.442 38.209 46.837 73.953c1.2325 2.4651 2.4651 4.9302 2.4651 7.3954 0 6.1628-4.9303 12.326-12.326 12.326-4.9302 0-9.8605-2.4651-11.093-6.1628l-43.14-70.256-28.349 27.116v34.512c-2.4651 11.093-8.6279 17.256-16.023 17.256m255.14-35.744h-67.791l-13.558 28.349c-2.4651 4.9302-6.1627 7.3954-11.093 7.3954-8.6279 0-13.558-6.1628-13.558-13.558 0-1.2326 0-3.6977 1.2325-4.9302l59.163-130.65c2.4651-4.9302 6.1628-7.3953 12.326-7.3953s9.8605 2.4651 12.326 7.3953l57.93 130.65c1.2326 1.2326 1.2326 3.6977 1.2326 4.9302 0 6.1628-4.9302 13.558-13.558 13.558-6.1627 0-8.6279-2.4651-11.093-7.3954zm-34.512-82.581-23.419 57.93h48.07z" fill="#00adef" stroke-width="12.326"/>
 <g id="#231f20ff" transform="matrix(.99934 0 0 .99934 -236.76 -51.845)" fill="#fff">
  <path id="path13" d="m619.2 52.25c3.4-1.26 7.92 0.79 8.08 4.7 0.43 3.09-2.14 5.27-3.97 7.34-4.12 4.24-7.96 8.74-12.18 12.86-2.95 3.13-9.37 1.29-9.59-3.18-0.54-4.44 3.91-7.04 6.22-10.22 3.82-3.8 6.63-8.87 11.44-11.5z"/>
  <path id="path15" d="m1057.1 89.13c18.76-1.9 38.42 2.68 53.62 14.05 22.17 16.22 33.49 44.79 30.93 71.84-1.69 25.33-16.01 49.86-38.35 62.34-28.81 16.21-68.27 11.83-91.71-11.9-22.68-22.26-29.2-58.3-17.8-87.66 5.41-14.47 15.26-27.29 28.05-35.99 10.38-7.21 22.71-11.43 35.26-12.68m-1.43 12.65c-9.21 1.33-18.18 4.67-25.79 10.06-11.33 7.7-19.49 19.53-23.79 32.44-6.83 20.25-4.48 43.53 6.83 61.73 8.02 13 21.07 22.88 35.94 26.55 15.16 3.78 31.88 2.43 45.77-4.94 11.06-5.72 19.86-15.25 25.51-26.27 8.93-17.53 10.2-38.64 4.06-57.27-4.66-14.09-13.99-26.88-26.88-34.48-12.35-7.56-27.43-9.7-41.65-7.82z"/>
  <path id="path17" d="m259.41 90.54c12.75-3.3 27.11 3.33 32.93 15.12 5.26 9.94 3.97 22.88-3.03 31.66-6.96 9.03-19.47 13.22-30.47 10.2-12.27-3-21.86-14.78-21.87-27.49-0.88-13.57 9.26-26.58 22.44-29.49z"/>
  <path id="path19" d="m605.28 90.12c3.39-1.36 7.53 0.14 8.91 3.61 21.32 47.47 42.52 94.99 63.82 142.47 1.06 2.15 1.53 4.88 0.07 6.97-1.87 3.08-6.29 3.59-9.31 2.03-1.74-0.97-2.49-2.9-3.3-4.59-6.05-13.64-12.25-27.22-18.27-40.88-26.16-0.05-52.33-0.04-78.5-0.01-6.49 14.25-12.71 28.63-19.28 42.84-2.11 5.07-10.76 4.52-12.31-0.72-0.9-1.93 0.05-3.94 0.78-5.73 21.06-47.04 42.13-94.07 63.18-141.11 0.89-1.95 1.98-4.2 4.21-4.88m2.55 19.6c-11.37 25.89-22.53 51.87-33.85 77.78 22.64 0.08 45.27-0.04 67.91 0.05-7.02-16.08-13.98-32.19-20.99-48.28-4.43-9.82-8.3-19.9-13.07-29.55z"/>
  <path id="path21" d="m920.36 90.52c4.1-2.46 10.43 0.41 10.32 5.44 0.03 48 0.04 95.99 0 143.98-0.03 4.52-5.38 7.33-9.35 5.69-3.14-1.07-4.82-4.48-4.58-7.66 0-46.64 0.01-93.28 0-139.92-0.11-2.89 0.76-6.2 3.61-7.53z"/>
  <path id="path23" d="m368.99 98.93c-0.33-3.86 3.09-7.68 7.03-7.39 22.34-0.04 44.67 0 67.01-0.02 11.38 0.11 23.16 3.15 31.99 10.61 9.03 7.45 13.72 19.27 13.7 30.84 0.35 10.86-3.02 22.16-10.67 30.09-6.24 6.67-14.92 10.53-23.78 12.27 9.96 20.22 19.82 40.49 29.72 60.74 1.21 2.29 1.19 5.41-0.55 7.44-2.89 3.85-9.96 3.35-11.79-1.31-10.83-21.89-21.56-43.82-32.32-65.75-18.77 0.05-37.55 0.02-56.32 0.03-0.04 20.88 0.04 41.76-0.05 62.65 0.55 5.91-7.3 9.03-11.5 5.39-2.06-1.49-2.52-4.13-2.46-6.51 0-46.36 0.01-92.72-0.01-139.08m14.01 5.07c0.01 19.93-0.03 39.85 0.03 59.78 20.99-0.06 41.99-0.01 62.99-0.02 8-0.1 16.19-3.23 21.55-9.29 9.15-10.55 9.64-27.48 1.72-38.84-5.57-8.09-15.7-11.69-25.22-11.59-20.36-0.09-40.71-0.01-61.07-0.04z"/>
  <path id="path25" d="m738.16 92.21c0.49-0.16 1.48-0.47 1.97-0.62 10.95-0.17 21.9-0.01 32.85-0.07 8.3 0.12 16.67-0.46 24.9 0.91 16.17 2.25 31.77 9.7 42.93 21.73 13.42 14.03 20.16 33.58 20.22 52.82 0.21 17-4.53 34.29-14.73 48.03-9.94 13.63-24.97 23.25-41.39 26.96-12.06 3.06-24.58 2.15-36.89 2.28-9.05-0.04-18.1 0.06-27.14-0.03-3.69-0.05-6.87-3.53-6.36-7.22 0.02-46.33-0.02-92.67 0.02-139-0.2-2.46 1.49-4.73 3.62-5.79m10.31 11.79v127.55c11.85-0.05 23.7-0.03 35.56-0.01 15.58 0.33 31.54-4.73 43.22-15.27 13.18-11.82 19.71-29.75 19.76-47.22 0.41-16.09-4.47-32.65-15.15-44.91-10.83-12.63-27.44-19.34-43.87-19.92-13.17-0.48-26.35-0.1-39.52-0.22z"/>
  <path id="path27" d="m260.17 184.11c9.52-2.05 19.94 1 26.79 7.94 10.46 10.03 11.5 27.98 2.24 39.13-7.31 9.49-20.77 13.47-32.09 9.61-10.06-3.18-18.01-12.23-19.76-22.65-0.88-5.69-0.43-11.68 1.93-16.98 3.71-8.56 11.71-15.18 20.89-17.05z"/>
 </g>
</svg>
