<svg id="a" width="635.17pt" height="295.51pt" version="1.1" viewBox="0 0 635.17 295.51" xmlns="http://www.w3.org/2000/svg">
 <g id="b" transform="translate(-213.87 -88.54)">
  <path id="c" d="m655.07 91.76c24.98-1.04 49.96-2.23 74.94-3.21 4.39-0.26 7.98 4.45 6.82 8.64-0.65 3.13-3.73 4.75-5.97 6.67l-109.47 86.21 56.35 90.24c3.06 4.14-0.16 10.7-5.28 10.85l-75.46 3.3c-14.33 0.48-28.58-7.03-36.32-19.1l-15.71-25.09-48.95 38.59c-8.76 6.91-19.74 10.96-30.9 11.41l-74.06 3.17c-4.44 0.52-8.36-4.12-7.28-8.4 0.29-2.12 1.88-3.68 3.49-4.93l122.37-96.38-51.9-83.2c-2.74-4.4 1.05-10.64 6.17-10.41 24.7-1.09 49.4-2.14 74.11-3.21 10.95-0.52 22.01 3.51 30.09 10.9 7.76 7.17 12.05 17.09 17.95 25.7 12.94-10.2 25.88-20.4 38.83-30.59 8.61-6.68 19.29-10.65 30.18-11.16"/>
  <path id="d" d="m307.46 336.78c6.16-2.27 12.31-4.62 18.49-6.86-0.16 2.5-0.32 5.01-0.49 7.51-5.98 1.25-11.96 2.52-17.93 3.77-0.03-1.47-0.05-2.95-0.07-4.42z"/>
  <path id="e" d="m213.87 384c4.98-13.72 9.98-27.43 14.96-41.15 13.05 0 26.11 0.02 39.16-0.01 2.71-0.02 5.91 0.18 7.67 2.57 2.34 2.91 1.23 6.92-0.05 10.04-2.06 5.04-3.05 10.98-7.59 14.53-3.45 3.14-8.22 4.14-12.77 3.83 3.4 3.35 6.78 6.71 10.05 10.18-4.65 0-9.3 0.06-13.95-0.05-6.49-6.71-13.13-13.27-19.66-19.94 10.12-0.01 20.24 0 30.36 0 1.38-3.79 2.75-7.57 4.13-11.35-10.16-0.01-20.32 0-30.47-0.01-3.81 10.45-7.61 20.91-11.42 31.36h-10.42z"/>
  <path id="f" d="m267.09 383.99c12.92-13.72 25.76-27.53 38.77-41.16 5.11 0.05 10.23 0.01 15.34 0.02 2.65 13.72 5.33 27.43 7.98 41.14-3.54 0.02-7.08 0.03-10.62-0.06-0.63-3.39-1.27-6.76-1.92-10.14-8.85-0.03-17.7-0.02-26.55-0.01-3.14 3.39-6.37 6.69-9.43 10.15-4.52 0.12-9.05 0.06-13.57 0.06m32.19-19.99h15.44c-0.87-4.54-1.76-9.08-2.64-13.61-4.27 4.54-8.53 9.08-12.8 13.61z"/>
  <path id="g" d="m330.66 384c5.01-13.73 9.94-27.48 15.02-41.17 13.46 0.08 26.91-0.02 40.36 0.04 2.81-0.1 5.96 1 7.18 3.74 1.56 3.38-0.16 6.97-1.31 10.19-2 5.37-3.91 10.79-5.89 16.17-2.09 6.26-8.3 11.19-15.01 11.03h-40.35m13.99-9.77c10.16-0.01 20.31-0.01 30.47-0.01 2.63-7.19 5.24-14.38 7.85-21.58-10.15 0-20.3 0.01-30.45-0.01-2.65 7.19-5.24 14.4-7.87 21.6z"/>
  <path id="h" d="m406.99 342.86c3.48-0.01 6.95-0.01 10.43 0-4.94 13.7-10.02 27.34-14.87 41.07-3.51 0.09-7.02 0.08-10.52 0.07 4.98-13.72 9.97-27.43 14.96-41.14z"/>
  <path id="i" d="m435.15 343.22c9.24-0.83 18.58-0.13 27.86-0.38 3.47 0.18 7.52-0.67 10.46 1.68 2.54 2.05 2.66 5.73 1.63 8.6-2.36 6.64-4.83 13.24-7.21 19.88-2.17 6.54-8.85 11.49-15.83 11.01-10.04-0.09-20.1 0.12-30.14-0.09-4.37-0.01-7.41-4.82-6.02-8.85 2.25-7.07 5.07-13.95 7.49-20.96 1.71-5.32 6.32-9.6 11.76-10.89m-0.79 9.43c-2.6 7.2-5.21 14.39-7.85 21.58 10.16-0.01 20.33 0 30.49-0.01 2.6-7.2 5.28-14.37 7.81-21.59-10.15 0.03-20.3-0.01-30.45 0.02z"/>
  <path id="j" d="m510.44 349.44c2.95-3.9 7.63-6.63 12.59-6.57 11.78-0.04 23.56-0.01 35.34-0.01-1.19 3.26-2.37 6.52-3.55 9.79-11.94-0.01-23.88-0.01-35.81 0-0.72 1.98-1.43 3.97-2.14 5.96 11.93-0.01 23.85-0.01 35.78 0.01-1.19 3.26-2.39 6.51-3.57 9.77-11.93 0.01-23.86 0.01-35.78 0-0.72 1.94-1.44 3.88-2.14 5.83 11.93 0.01 23.86-0.01 35.8 0.01-1.18 3.27-2.38 6.54-3.61 9.8-12.16-0.12-24.33 0.08-36.49-0.09-4.12 0.13-7.42-4.02-6.47-8 1.22-5.16 3.52-10.01 5.19-15.04 1.56-3.84 2.4-8.06 4.86-11.46z"/>
  <path id="k" d="m563.23 342.87c4.24-0.03 8.49-0.01 12.75-0.02 3.18 4.43 6.38 8.86 9.55 13.3 6.18-4.29 11.94-9.26 18.34-13.21 5.41-0.24 10.84-0.03 16.26-0.06-9.58 7.12-19.2 14.2-28.81 21.29 4.75 6.61 9.5 13.22 14.26 19.83h-12.77c-3.27-4.56-6.55-9.11-9.83-13.67-6.13 4.44-12.1 9.11-18.32 13.43-5.54 0.58-11.19 0.07-16.77 0.23 9.74-7.28 19.59-14.42 29.32-21.72-4.7-6.44-9.32-12.93-13.98-19.4z"/>
  <path id="l" d="m624.2 342.86c13.58 0.01 27.17-0.06 40.75 0.03 3.99-0.38 7.92 2.94 7.48 7.1-0.6 4.38-2.72 8.38-4.05 12.58-2.06 6.45-8.49 11.47-15.37 11.22-9.88-0.01-19.76-0.02-29.63-0.01-1.24 3.39-2.48 6.79-3.68 10.19-3.49 0.04-6.98 0.03-10.46 0.02 4.98-13.71 9.96-27.42 14.96-41.13m6.87 9.78c-1.38 3.79-2.76 7.57-4.13 11.36 10.19-0.04 20.38 0.1 30.57-0.08 1.27-3.78 2.66-7.53 4.03-11.28h-30.47z"/>
  <path id="m" d="m684.06 342.85c13.65 0.04 27.3-0.07 40.94 0.05 2.8-0.07 5.87 1.37 6.82 4.16 1.21 3.05-0.21 6.2-1.23 9.07-1.95 4.9-3.04 10.63-7.51 13.99-3.42 3.07-8.09 3.96-12.55 3.71 3.4 3.33 6.68 6.77 10.02 10.17-4.63 0-9.25-0.01-13.87 0.01-6.69-6.57-12.94-13.66-20.04-19.76-2.22 6.61-4.8 13.09-7.04 19.69-3.51 0.08-7.02 0.07-10.53 0.05 5.04-13.69 9.99-27.43 14.99-41.14m2.58 20.52c1 0.5 2.03 0.88 3.21 0.66 9.05-0.13 18.1 0.11 27.15-0.11 2.01-3.42 2.84-7.58 4.4-11.28h-30.47c-1.38 3.6-2.38 7.36-4.29 10.73z"/>
  <path id="n" d="m744.02 348.85c2.93-3.55 7.34-6 12.01-5.98 11.82-0.05 23.64-0.01 35.45-0.01-1.18 3.27-2.37 6.54-3.57 9.8-11.93-0.04-23.85-0.01-35.78-0.02-0.73 1.99-1.44 3.98-2.15 5.98 11.92-0.03 23.85 0 35.78-0.01-1.19 3.26-2.37 6.52-3.56 9.78-11.93 0.01-23.87 0-35.8 0.01-0.72 1.94-1.42 3.88-2.13 5.82 11.93 0.01 23.86 0 35.8 0.01-1.18 3.24-2.38 6.47-3.5 9.73-12.23 0.03-24.47 0.12-36.7-0.03-4.02 0.07-7.23-3.94-6.4-7.85 1.23-5.26 3.57-10.18 5.26-15.3 1.65-4.02 2.47-8.51 5.29-11.93z"/>
  <path id="o" d="m796.86 353.81c2.15-6.27 8.4-11.08 15.12-10.95 9.68-0.02 19.35-0.02 29.03 0 2.63-0.06 5.62 0.64 7.07 3.08 1.86 3 0.63 6.65-0.43 9.7-3.51 0-7.01 0-10.5 0.01 0.34-1.01 0.69-2.01 1.05-3-10.15-0.01-20.3 0-30.45-0.01-0.74 1.98-1.46 3.96-2.18 5.95 10.48 0.08 20.97-0.07 31.45 0.06 4.2-0.13 7.3 4.33 6.22 8.28-1.24 4.37-2.52 9.08-5.9 12.34-2.96 2.97-7.05 4.91-11.3 4.73-10.05-0.03-20.12 0.06-30.17-0.04-2.83 0.05-5.69-1.67-6.52-4.46-0.96-2.81 0.24-5.67 1.16-8.3 3.48 0.03 6.97 0.02 10.46 0.02-0.27 0.75-0.8 2.25-1.07 3 10.15 0.01 20.3 0 30.46 0.01 0.7-1.95 1.41-3.89 2.13-5.83-10.14-0.04-20.28 0.06-30.41-0.04-2.69 0.05-5.64-1.14-6.74-3.75-1.65-3.6 0.32-7.4 1.52-10.8z"/>
 </g>
 <g id="p" transform="translate(-213.87 -88.54)">
  <path id="q" d="m661.91 101.63 58.45-2.54-112.41 88.69 58.26 93.54-69.2 2.98c-10.96 0.43-21.88-5.29-27.82-14.51l-21.71-34.51-59.9 47.18c-6.63 4.62-14.58 7.28-22.65 7.64l-64.72 2.82 122.86-96.86-53.74-86.01 68.58-2.99c8.83-0.52 17.78 2.82 24.11 9 3.15 2.95 5.37 6.69 7.62 10.33l13.78 22.1 48.11-37.86c8.57-6.77 19.65-9.17 30.38-9z" fill="#f60"/>
 </g>
</svg>
