<svg height="384.08026pt" viewBox="0 0 500.70975 384.08026" width="500.70975pt" xmlns="http://www.w3.org/2000/svg"><path d="m44.79975 384.08026 432.99001-69.86025 22.92-306.57976-500.70976-7.64025z"/><g fill="#fff"><path d="m19.509999 14.519999c157.460001.04 314.910001-.03 472.360001.04-4.66 48.82-9.33 97.630001-13.91 146.460001-5.23 3.17-10.46 6.36-15.75 9.44 4.07-46.4 8.16-92.790001 12.37-139.170001-145.71-.01-291.42-.04-437.140001.02 4.11 46.15 8.21 92.300001 12.26 138.460001-5.4-3.14-10.85-6.19-16.28-9.27-4.63-48.66-9.21-97.320001-13.91-145.980001z"/><path d="m260.04 56.529999c2.08 0 4.16 0 6.24.01 0 8.41.01 16.82 0 25.23.69.01 2.07.03 2.77.03-.02.75-.04 2.23-.05 2.98-2.1 0-4.19 0-6.28-.01.08-.42.23-1.28.31-1.71-3.71 2.61-9.28 2.88-12.72-.3-4.67-4.11-3.58-12.67 1.9-15.58 3.39-1.88 7.7-1.25 10.64 1.2-.09-2.95-.07-5.9-.06-8.85-.69 0-2.08-.01-2.77-.01.01-.75.02-2.24.02-2.99m-5.53 13.24c-4.07 1.85-4.69 8.28-.98 10.85 3.16 2.91 8.78.66 9.38-3.5 1.37-4.64-3.96-9.6-8.4-7.35z"/><path d="m224.05 57.529999c1.27 0 2.55.02 3.84.03-2.55 2.32-3.84 6.85-7.82 6.91 1.24-2.36 2.61-4.65 3.98-6.94z"/><path d="m283.28 58.779999h5.02c-.01 1.24-.02 2.49-.02 3.75-1.67 0-3.34 0-5 .01 0-1.26-.01-2.51 0-3.76z"/><path d="m194.17 69.049999c1.8-1.91 4.15-3.02 6.77-3.22.03.81.09 2.45.12 3.26-1.72.38-3.97.09-5.13 1.71-2.42 3.13-1.47 7.31-1.65 10.98.69 0 2.07.02 2.76.02-.01.75-.03 2.23-.04 2.98-2.9 0-5.8 0-8.7 0-.01-1-.02-2-.03-3h2.76c-.01-4.08 0-8.17-.01-12.25-.69-.01-2.07-.01-2.75-.01 0-.69.02-2.06.03-2.75 2 .01 4 .01 6.01.01-.04.57-.11 1.7-.14 2.27z"/><path d="m214.94 82.059999c-4.45-4.78-2.18-13.71 4.14-15.55 3.12-1.13 6.35.14 8.98 1.86l-.01-1.59h6.23c0 .69 0 2.07.01 2.76-.69-.01-2.07-.01-2.76-.02-.01 4.08 0 8.16 0 12.25.68 0 2.05.01 2.74.02 0 .99.01 1.99.02 2.98-2.1 0-4.2.01-6.29.02.03-.47.08-1.41.11-1.88-3.85 2.87-9.96 3.08-13.17-.85m5.49-12.58c-4.71 1.58-5.47 8.93-1.21 11.46 3.25 2.46 8.43.1 8.93-3.89 1.21-4.41-3.31-9.03-7.72-7.57z"/><path d="m309.49 66.719999c6.58-2.84 15 2.92 13.65 10.25-.52 7.24-9.99 10.21-15.58 6.59-6.28-3.66-5.07-14.68 1.93-16.84m1.97 2.87c-4.84 1.38-5.78 8.83-1.41 11.33 3.39 2.49 8.54.13 9.32-3.88 1.32-4.45-3.56-9.13-7.91-7.45z"/><path d="m281.78 66.779999h6.5c0 5-.01 10.01.01 15.01.74 0 2.23-.01 2.98-.01 0 .99.01 1.98.03 2.98-3.19.03-6.37.02-9.55 0 .01-1 .02-1.99.04-2.99.75.01 2.24.01 2.99.02-.01-4.09 0-8.17.01-12.26-.75 0-2.26 0-3.01-.01 0-.68 0-2.06 0-2.74z"/><path d="m383.66 101.52c1.7-3.420001 3.4-6.830001 5.13-10.230001 2.77 0 5.54-.01 8.32-.03-2.97 3.44-6.01 6.82-8.96 10.280001-1.5-.01-3-.02-4.49-.02z"/><path d="m173.16 104.29c6.6-1.75 14.17-.51 19.41 4.03 5.24 4.58 8.49 11.68 7.6 18.69-.72 6.26-4.67 11.86-9.88 15.25-4.44 2.99-10.11 3.36-15.28 2.79-7.25-.76-13.49-6.07-16.24-12.69-1.73-4.46-1.77-9.47-.6-14.07 1.93-6.97 7.96-12.46 14.99-14m1.28 10.13c-5.2 2.51-7.32 9.27-5.07 14.48 1.65 4.62 6.96 7.35 11.71 6.18 5.38-1.09 8.83-6.87 7.88-12.17-.42-6.69-8.42-11.9-14.52-8.49z"/><path d="m211.28 104.53c6.08.01 12.17 0 18.25 0 0 2.67 0 5.34-.01 8.01-1.25-.01-2.49-.01-3.74-.01 0 3.48-.01 6.96.01 10.45 3-3.5 6.04-6.97 9.04-10.46-.58-.01-1.73-.01-2.31-.01.01-2.66.01-5.32.01-7.98 5.66 0 11.33.01 16.99 0 .01 2.58.01 5.17.02 7.75-.71.14-2.11.41-2.81.54-3.67 3.48-6.81 7.48-10.36 11.08 3.77 4.14 7.41 8.42 11.33 12.43 1.27-.03 2.55-.04 3.82-.06.01 2.76 0 5.51.01 8.27-6.34-.02-12.67-.01-19-.01 0-2.74 0-5.48-.01-8.22.59-.01 1.79-.04 2.38-.06-3.03-3.45-6.13-6.86-9.12-10.35-.01 3.46 0 6.92 0 10.38 1.25 0 2.5 0 3.76.01-.01 2.75-.01 5.49-.01 8.24-6.09-.01-12.17 0-18.26-.01.01-2.74.01-5.49 0-8.23 1.34-.01 2.67-.01 4.01-.01 0-7.91 0-15.83 0-23.75-1.34 0-2.68-.01-4.01-.01.01-2.66.01-5.33.01-7.99z"/><path d="m278.28 104.26c7.08-1.85 15.24-.19 20.48 5.08 4.06 4.15 6.77 9.84 6.56 15.72.04 7-4.14 13.6-10.01 17.23-4.72 3.11-10.73 3.43-16.18 2.61-9.71-1.53-17.3-11.12-16.63-20.92-.32-9.27 6.79-17.84 15.78-19.72m1.1 10.2c-7.55 3.64-7.75 16.01-.16 19.72 6.39 3.69 15.25-1.74 14.85-9.1 1.17-7.62-7.79-14.51-14.69-10.62z"/><path d="m368.78 104.54c5.92-.01 11.84-.01 17.76 0-.02 2.65-.02 5.31-.01 7.97-.79.01-2.37.04-3.16.06 1.76 3.05 3.59 6.06 5.28 9.15 1.72-3.11 3.57-6.14 5.41-9.19-.7 0-2.08 0-2.77 0 0-2.67-.01-5.34-.01-8.01 5.75.02 11.5.01 17.25.01-.01 2.66 0 5.32 0 7.98-.77.01-2.32.02-3.09.03-3.89 5.8-7.72 11.65-11.65 17.43-.01 2.1-.02 4.21-.01 6.31h4.25c0 2.75-.01 5.51-.01 8.26-6.25-.03-12.5 0-18.75-.02.01-2.74 0-5.49 0-8.23 1.34-.01 2.68-.01 4.02-.01-.23-2.54.66-5.43-.89-7.68-3.4-5.45-7.1-10.72-10.64-16.08-.74 0-2.23.01-2.97.02-.02-2.67-.02-5.34-.01-8z"/><path d="m57.779999 104.54c6.17-.01 12.33 0 18.5-.01v7.99c-1.25 0-2.5 0-3.75.01 0 3.46.02 6.93-.03 10.4 2.91-3.51 5.93-6.92 8.91-10.37l-2.12-.01c-.01-2.67-.01-5.34-.02-8.02h17.01v7.99c-.73.01-2.2.03-2.94.03-3.37 3.82-6.86 7.55-10.28 11.33 3.6 4.22 7.44 8.23 11.09 12.41 1.29-.01 2.59-.01 3.88-.02 0 2.76-.01 5.52-.02 8.27-6.24-.03-12.48-.01-18.73-.01 0-2.74 0-5.48-.01-8.22.56-.01 1.67-.04 2.23-.05-2.97-3.38-5.96-6.74-8.91-10.14-.09 3.39-.06 6.78-.07 10.17 1.26-.01 2.51-.01 3.76-.01 0 2.74-.01 5.49.01 8.24-6.17.01-12.34 0-18.52.01.01-2.75.02-5.51.01-8.26 1.33.01 2.66.01 3.99.02.01-7.92.01-15.84 0-23.77-1.33.01-2.66.01-4 .01.01-2.66.02-5.33.01-7.99z"/><path d="m109.04 104.54c8.98.06 17.98-.16 26.96.09 6.56.59 10.26 8.61 7.67 14.35-.83 2.42-3.28 3.57-5.37 4.7 1.6.99 3.74 1.71 4.26 3.75.46 2.92.15 5.9.21 8.84 1.25.01 2.51.02 3.77.03-.01 2.74-.01 5.48-.01 8.23-4.75 0-9.5-.02-14.25.01-.22-4.82.56-9.77-.64-14.5-1.17-3.15-5.21-2.41-7.86-2.56v8.81c.81 0 2.44-.01 3.25-.01 0 2.75 0 5.5.01 8.25-6 0-12-.01-18 .01-.01-2.76-.01-5.51-.01-8.26h4c0-7.92.01-15.84-.01-23.76-1.33 0-2.66 0-3.99.01-.01-2.66 0-5.33.01-7.99m14.74 7.96c-.01 2.76 0 5.53 0 8.3 2.37-.08 4.85.25 7.13-.58 2.77-1.23 2.94-5.94.04-7.1-2.28-.89-4.78-.53-7.17-.62z"/><path d="m316.27 104.54c7.97.02 15.94-.08 23.9.04 6.17.08 11.92 3.78 15.11 8.97 2.7 4.97 2.98 10.92 2.06 16.4-1.21 7.81-8.51 14.03-16.34 14.33-8.23.54-16.48.11-24.71.26-.02-2.75-.02-5.51 0-8.26 1.33 0 2.66 0 4-.01-.02-7.91 0-15.83-.01-23.75-1.34 0-2.67.01-4 .01 0-2.66 0-5.33-.01-7.99m15.01 7.95c-.02 7.93.04 15.86-.04 23.79 3.95.1 8.36.27 11.57-2.45 4.69-4.02 4.89-11.58 1.86-16.64-2.91-4.35-8.62-4.89-13.39-4.7z"/><path d="m419.53 104.53c6.33.01 12.66-.01 19 .01-.01 2.66 0 5.32 0 7.99-1.42-.01-2.83-.01-4.24-.01-.02 7.92-.01 15.84-.01 23.76h10.03c.79-2.59 1.64-5.16 2.46-7.75 2.24 0 4.5 0 6.75-.01 0 5.34.01 10.67 0 16.01-11.33-.01-22.67.01-34.01-.01.02-2.75.02-5.5.02-8.25 1.4 0 2.81.01 4.23.02.04-7.92.01-15.85.02-23.77-1.43 0-2.84 0-4.25.01 0-2.67 0-5.34 0-8z"/></g><path d="m33.969999 167.4c16.47 9.2 32.93 18.42 49.41 27.6 9.98-9.18 20.020001-18.29 29.930001-27.54 11.6 9.14 23.16 18.35 34.73 27.54 12.54-9.17 25.08-18.33 37.6-27.54 12.24 9.17 24.41 18.43 36.67 27.56 10.82-9.28 21.85-18.31 32.71-27.54 11.68 9.14 23.29 18.36 34.96 27.52 12.46-9.17 24.91-18.38 37.39-27.53 11.19 9.11 22.17 18.52 33.54 27.37 13.94-8.93 27.63-18.26 41.49-27.32 11.33 9.1 22.61 18.27 33.85 27.48 13.76-9.12 27.4-18.41 41.12-27.58-4.15 44.84-8.55 89.67-12.72 134.51-137.69 16.28-275.43 32.24-413.140001 48.44-5.92-60.98-11.64-121.99-17.54-182.97m287.600001 54.39c-9.09 1.87-17.37 7.86-21.61 16.17-5.51 11.92-3.51 27.64 6.53 36.59 12.53 11.7 34.6 10.68 46-2.12 10.54-11.32 10.17-31.07-1-41.83-7.62-7.81-19.32-10.94-29.92-8.81m-213.27.48c-.02 4-.02 8.01-.02 12.01 2-.01 4-.01 6-.01.01 11.67-.01 23.34 0 35.01-2.01 0-4.01 0-6.02.01.04 4.08.02 8.16.02 12.25 9.83-.01 19.66-.02 29.49 0 .01-4.09.01-8.18 0-12.27-2.59.01-5.17.01-7.75.02.02-4.18.01-8.35.01-12.52 3.58.01 7.16.01 10.75 0 .01-4.41-.01-8.83 0-13.24-3.58 0-7.17 0-10.75-.01 0-3.08 0-6.16-.01-9.23 5.49-.01 10.98-.01 16.46-.01 1.14 3.08 2.23 6.16 3.35 9.24 3.48.01 6.97.01 10.45.01 0-7.08-.01-14.16.01-21.24-17.33-.03-34.66.01-51.99-.02m55.22 0c .01 4 .01 8 .01 12 2 0 4 .01 6 .02-.01 11.66.01 23.32-.01 34.99-2 0-4 0-6 .01 0 4.07.02 8.15 0 12.24 9.17.01 18.35-.01 27.52.01-.01-4.09 0-8.18-.02-12.26-2.16 0-4.33 0-6.49.01.02-10.46-.01-20.92.01-31.38 3.92 10.36 7.83 20.72 11.75 31.08 2.55.03 5.11.04 7.66.06 3.93-10.44 7.94-20.84 11.8-31.3.06 10.51.01 21.02.03 31.53-2.09 0-4.17 0-6.26 0 .01 4.08 0 8.17.02 12.26 9.09-.03 18.18.02 27.28-.03-.07-4.08-.04-8.15-.04-12.23-1.92 0-3.83 0-5.74 0-.02-11.67 0-23.34-.01-35.01 1.91.01 3.82.01 5.74.02.01-4 0-8 .01-12-9.34-.02-18.68 0-28.01-.02-2.76 7.98-5.6 15.93-8.42 23.89-2.95-7.99-6.14-15.9-9.15-23.87-9.22-.02-18.45 0-27.68-.02m204.95 5.28c-4.08 3.82-5.12 9.62-5.3 14.96 4.2.04 8.4-.01 12.6.06.48-2.53.94-5.79 3.71-6.81 3.95-2.05 9.58 1.55 8.25 6.16-.89 4.96-6.88 4.35-10.68 4.67-.02 3.53-.03 7.07-.03 10.61 3.76.24 8.92-.1 10.85 3.95 2.05 4.35-2.09 9.87-6.9 8.56-3.79-.24-4.65-4.33-4.85-7.42-4.62 0-9.23-.06-13.84.05-.24 5.02.77 10.38 4.24 14.22 4.8 5.44 12.69 6.73 19.58 5.93 6.98-.66 14.12-4.93 16.27-11.91 1.46-5.34.96-11.76-3.06-15.92-1.87-2.1-4.7-2.86-7.34-3.46 3.05-1.1 6.24-2.55 8.11-5.33 2.08-3.39 2.04-7.64 1.25-11.42-1.49-6.07-7.21-10.42-13.24-11.34-6.72-.97-14.44-.5-19.62 4.44m-100.95 7.23h5.76c.01 11.84 0 23.67 0 35.51-1.92-.01-3.84-.01-5.76-.01.01 3.75 0 7.5.01 11.26 8.75 0 17.49-.03 26.23.01.03-3.76.02-7.51.01-11.27-2 0-4.01 0-6 0 .01-15.51.02-31.01-.01-46.52-6.74.04-13.48.02-20.23.02 0 3.66 0 7.33-.01 11z" fill="#0b8a5f"/><path d="m323.39 236.64c5.97-2.31 13.18-.09 16.99 5.01 5.14 6.8 4.34 17.78-2.42 23.24-5.61 4.71-14.65 4.13-19.87-.92-7.97-7.73-5.56-23.53 5.3-27.33z" fill="#0b8a5f"/></svg>