<svg height="94.339996" viewBox="0 0 280.5 94.339995" width="280.5" xmlns="http://www.w3.org/2000/svg"><path d="m33.94 93.98.33-1 5.54-16.27 6.62-20.09 4.74-15.38 3.83-12.17 1.89-6c2.29-6.53 4.72-9.44 7.82-9.44a6.89 6.89 0 0 1 3.36.92 11.09 11.09 0 0 0 2.71 1.14 7.29 7.29 0 0 0 1.49.16c3.91 0 6.74-3.19 6.74-7.58a8.07 8.07 0 0 0 -8.34-8.17 13.33 13.33 0 0 0 -10.56 5.67c-2.5 3.64-4.71 9.19-8.2 20.51l-6.2 20.13-6.16 19.44-.28 1.19-11.28-36.26a27.63 27.63 0 0 1 -1.64-7.64c0-2.73 1.82-5.16 4.82-6.65v-.58h-31.17v.58c3.49.8 5.75 2.13 7.39 4.39a42.43 42.43 0 0 1 5 10.79l20.55 62.31z"/><path d="m57.81 21.87v.6c2.21 1.29 3.4 3.86 3.4 7.33v35.9c0 5.73-1.81 10.25-5.43 13.47v.59l1.22-.53c6.75-2.91 9.1-3.85 14.51-5.83q4.15-1.5 7.12-2.41c2.66-.83 3.92-1.17 7.31-2l .76-15.37h-.6c-2 9.15-6.81 14.92-14.47 17.33v-25.25c4.87.25 7.66 2.21 9.5 6.63h.59v-17.76h-.55c-1.59 5.12-5 8.41-9.53 9.24v-19.35h2.74c5.61 0 9.86 3.24 11.54 8.84h.58l-.33-11.43z"/><path d="m196.51 21.87h-12.13v.6c2.54 1.11 3.58 2.08 4.24 4a21.58 21.58 0 0 1  .89 6.8v15.36h-.51l-14.68-26.76h-13.1v.6a13.33 13.33 0 0 1 6.16 5.93v26.8c0 6.77-1.66 9.65-5.93 10.28v.6l.77.16 2.73.5 3.38.57 3.84.67 3 .48.78.1v-.58a9.74 9.74 0 0 1 -4.64-4.31c-1-1.83-1.29-3.91-1.29-8.28v-21h .46l21.38 38.95h.6v-40.08c0-4.15.33-6.82 1-8.1a6.38 6.38 0 0 1 3.1-2.7v-.6z"/><path d="m197.25 71.06v.61l.59.1a127.23 127.23 0 0 0 16.91 2h .92v-.5a7.25 7.25 0 0 1 -3.42-3.43c-.94-1.87-1.19-3.36-1.19-7.63v-30.42c0-5.28 1.51-8.14 5-9.36v-.56h-18.36v.56a9 9 0 0 1 3.6 4.63 27.23 27.23 0 0 1  .5 6v27.68c0 6.8-.86 8.76-4.56 10.32"/><path d="m246.23 21.58-.43.16-.71.33a6.39 6.39 0 0 1 -2.57.64 5.64 5.64 0 0 1 -1.56-.2l-1.45-.43a15.49 15.49 0 0 0 -4.22-.67c-9.54 0-17.21 13-17.21 29.14 0 14.16 6.27 24.36 14.95 24.36 5.85 0 10.82-4.73 12.28-11.67a38.9 38.9 0 0 0  .8-5.76h-.48l-.25.77c-1.67 5.4-4.15 7.81-8 7.81-6.14 0-10.09-8.34-10.09-21.3 0-6.64.83-12.47 2.3-16.13a7.06 7.06 0 0 1 3.14-3.57 6.77 6.77 0 0 1 3.21-.75c4.49 0 7.61 3.65 9.56 11.13l.13.54h.6z"/><path d="m102.92 40.8c6.19-.21 9.56-3.53 9.56-9.36 0-5-2.35-7.11-8.09-7.11h-1.47zm3.8-18.93h2.14c4.3 0 7 .42 9 1.41a9 9 0 0 1 4.47 7.81 9.47 9.47 0 0 1 -3 6.86c-1.93 1.68-4.49 2.85-9.13 4.15 7.85 1.34 10 3.8 12.1 14.1a16.73 16.73 0 0 0 1.13 4.23 2.54 2.54 0 0 0 2.74 1.55 13.6 13.6 0 0 0 2.44-.31l.22.41a11.52 11.52 0 0 1 -7.88 3.33 8.06 8.06 0 0 1 -6.1-2.71 11.92 11.92 0 0 1 -2.36-4.27 55.51 55.51 0 0 1 -1.83-8.4c-.89-5-2.51-6.78-6.16-6.78-.32 0-.61 0-1.16.06h-.37v12.47c0 5.42.88 7.09 4.28 8.21v.58h-.42l-1.89.15c-1.36.11-5.74.87-9 1.58-2.87.63-4.42 1.06-6.9 1.83l-.11-.61a11.33 11.33 0 0 0 3.24-3.8c.93-1.82 1.18-3.14 1.18-6.36v-26.25c0-5.58-.78-7.22-4-8.65v-.6h17.45z"/><path d="m260.68 32.11-3.68 16.34.27-.08a41.19 41.19 0 0 0 7.18-2.4l-3.42-13.86h-.36zm13.26 14.32c.09.47.36 1.36.79 2.71 1.35 4.41 1.81 5.47 2.76 6.51a3.63 3.63 0 0 0 2.86 1.07l.15.58a91.75 91.75 0 0 1 -16.33 8.5l-.1-.61c1.82-1.55 2.71-3.85 2.71-6.88a30.64 30.64 0 0 0 -1-7.08l-.61-2.63a79.16 79.16 0 0 1 -8 2.85l-.67.21-1.33 5.78-.23 1a21.63 21.63 0 0 0 -.67 4.89c0 2.6.8 3.6 3.42 4.25l.1.59c-1.71.6-4.57 1.42-8 2.35l-4.36 1.13-.93.27-.08-.64a14.4 14.4 0 0 0 3.84-3.74 33.21 33.21 0 0 0 3.55-8.75l1.36-5.05.33-1.22 5.56-25.86a11.77 11.77 0 0 0 -5.5-4.2v-.6h14.47z"/><path d="m137.51 42.75a85.72 85.72 0 0 0 1 14.46c.7 4.63 2.36 6.44 5.82 6.44a4.72 4.72 0 0 0 4.36-2.22c1.5-2.61 2.29-9.11 2.29-18.62 0-14.44-1.61-19.06-6.72-19.06s-6.74 4.62-6.74 19m24 .67c0 14.49-6.38 23-17.23 23s-17.25-8.49-17.25-23 6.08-22.57 17.25-22.57 17.23 7.95 17.23 22.57"/><path d="m272.72 68.44a84.26 84.26 0 0 1 -19 9.12 97.85 97.85 0 0 1 -31.87 4.94c-7.76 0-11.91-.4-24.54-2.35l-14.14-2.17-15-2.61c-7.36-1.26-16.89-2.42-24.59-3q-8.23-.6-16.38-.61c-15.94 0-30.61 1.79-43 5.22a136.7 136.7 0 0 0 -20.45 7.68 93 93 0 0 0 -16.15 9.17l.39.51c9.5-5.25 15.91-7.78 25.28-9.89a74.67 74.67 0 0 1 18.11-2c3.43 0 7.33.15 11.21.48 2.51.23 5.94.62 10.25 1.15 5.73.71 10.27 1.34 13.56 1.95l13.89 2.42c2 .35 6 1 11.79 1.94s9.82 1.55 12 1.87a172.71 172.71 0 0 0 24.73 1.87c21.35 0 43.25-4.3 61.67-12.09 9.69-4.1 18.17-9 22.58-13.12z" fill="#00aeef"/><path d="m262.41 10.98c0 1.22-.77 2-2.53 2s-2.53-.75-2.53-2v-5.9c0-1.22.77-2 2.53-2s2.53.75 2.53 2zm3.51-6.2c0-2.36-1.64-4.78-6-4.78s-6 2.41-6 4.78v6.51c0 2.36 1.64 4.77 6 4.77s6-2.41 6-4.77zm-14.69-4.54h-3.51v15.59h3.51zm-9.68 10.58c0 1.22-.42 1.9-2.18 1.9h-2.1v-9.37h2.11c1.76 0 2.18.68 2.18 1.9v5.57zm3.51 1v-7.53c0-2.11-1.43-4.05-5.27-4.05h-6v15.59h6c3.84 0 5.27-2 5.27-4.05m-19.66-8.45 1.77 6.53h-3.58zm2.34-3.09h-4.68l-4.75 15.59h3.65l.84-3h5.22l.84 3h3.65zm-14.63 6c0 1.17-.37 1.71-1.87 1.71h-2.79v-4.6h2.79c1.43 0 1.87.47 1.87 1.64v1.24zm.84 9.6h4.22l-3.77-5.34c1.57-.66 2.27-2 2.27-3.91v-1.93c0-2.93-1.41-4.42-5.2-4.42h-6.48v15.59h3.51v-4.85h2.06z"/></svg>