<svg height="195" viewBox="0 0 2526.1838 195" width="2526.1838" xmlns="http://www.w3.org/2000/svg"><path d="m1069.8683 195c-18.4883 0-39.4418-6.16279-53-16.02326-4.9302-3.69767-7.3953-8.62791-7.3953-13.55814 0-7.39535 4.9302-12.32558 11.093-12.32558 2.4651 0 4.9303 1.23256 7.3954 2.46512 12.3256 7.39535 20.9535 14.79069 41.9069 14.79069 22.1861 0 30.814-8.6279 30.814-19.72093 0-11.09302-8.6279-17.25581-36.9767-24.65116-41.907-11.09302-54.2326-24.65116-54.2326-46.837208 0-28.348837 23.4186-43.139534 60.3953-43.139534 8.628 0 19.721 1.232558 29.5814 3.697674 11.0931 2.465116 23.4186 9.860465 23.4186 18.488372 0 6.162791-3.6976 12.325581-11.093 12.325581-1.2325 0-3.6977 0-4.9302-1.232558-11.093-4.930232-20.9535-9.860465-35.7442-9.860465-20.9535 0-33.2791 4.930233-33.2791 17.255814 0 11.093023 8.6279 14.790698 36.9768 23.418604 30.8139 8.62791 53 18.48837 53 46.83721 1.2325 28.34884-18.4884 48.06977-57.9303 48.06977m124.4884-2.46512c-7.3953 0-14.7907-7.39535-14.7907-14.7907v-125.720927c0-7.395349 6.1628-14.790697 14.7907-14.790697 7.3954 0 13.5582 6.16279 13.5582 14.790697v113.395347h66.5581c7.3953 0 13.5581 6.16279 13.5581 13.55814s-6.1628 13.55814-13.5581 13.55814zm198.4419 2.46512c-44.3721 0-77.6512-34.51163-77.6512-78.88372 0-44.372096 33.2791-78.883724 77.6512-78.883724s77.6511 34.511628 77.6511 78.883724c1.2326 43.13953-33.279 78.88372-77.6511 78.88372m0-133.116282c-30.814 0-50.5349 24.651163-50.5349 54.232562 0 29.58139 18.4884 54.23255 50.5349 54.23255 30.8139 0 50.5349-24.65116 50.5349-54.23255 0-29.581399-19.721-54.232562-50.5349-54.232562m251.4418-6.16279-56.6976 129.418602c-2.4652 4.93023-7.3954 7.39535-12.3256 7.39535s-9.8605-2.46512-12.3256-7.39535l-56.6977-129.418602c-1.2325-1.232558-1.2325-3.697675-1.2325-4.930233 0-7.395349 6.1628-13.558139 12.3256-13.558139 4.9302 0 9.8604 2.465116 12.3255 7.395348l44.3721 105.999996 45.6047-105.999996c2.4651-4.930232 6.1628-7.395348 11.093-7.395348 7.3953 0 13.5581 6.16279 13.5581 13.558139 1.2326 1.232558 0 3.697675 0 4.930233m147.907 135.581392h-86.2791c-7.3953 0-14.7907-6.16279-14.7907-13.55814v-124.488369c0-7.395348 6.1628-13.558139 14.7907-13.558139h82.5814c7.3954 0 13.5582 4.930232 13.5582 12.325581s-6.1628 13.55814-13.5582 13.55814h-69.0232v36.976747h38.2093c7.3953 0 13.5581 6.16279 13.5581 13.55814s-6.1628 12.32558-13.5581 12.32558h-38.2093v38.2093h71.4884c7.3953 0 13.5581 6.16279 13.5581 13.55814s-4.9302 11.09302-12.3256 11.09302m176.2558 2.46512c-4.9302 0-7.3953-1.23256-9.8604-4.93023l-78.8838-99.837212v91.209302c0 7.39535-6.1627 13.55814-13.5581 13.55814-7.3953 0-13.5581-6.16279-13.5581-13.55814v-129.418605c0-7.395349 4.9302-13.558139 13.5581-13.558139 3.6977 0 7.3954 2.465116 9.8605 4.930232l78.8837 99.837212v-91.209305c0-7.395349 4.9302-13.558139 13.5581-13.558139 7.3954 0 13.5582 6.16279 13.5582 13.558139v129.418605c0 7.39535-6.1628 13.55814-13.5582 13.55814m128.1861 1.23256c-18.4884 0-39.4419-6.16279-53-16.02326-4.9303-3.69767-7.3954-8.62791-7.3954-13.55814 0-7.39535 4.9303-12.32558 11.0931-12.32558 2.4651 0 4.9302 1.23256 7.3953 2.46512 12.3256 7.39535 20.9535 14.79069 41.907 14.79069 22.186 0 30.8139-8.6279 30.8139-19.72093 0-11.09302-8.6279-17.25581-36.9767-24.65116-41.907-11.09302-54.2326-24.65116-54.2326-46.837208 0-28.348837 23.4186-43.139534 60.3954-43.139534 8.6279 0 19.7209 1.232558 29.5814 3.697674 11.093 2.465116 23.4186 9.860465 23.4186 18.488372 0 6.162791-3.6977 12.325581-11.093 12.325581-1.2326 0-3.6977 0-4.9303-1.232558-11.093-4.930232-20.9535-9.860465-35.7442-9.860465-20.9535 0-33.279 4.930233-33.279 17.255814 0 11.093023 8.6279 14.790698 36.9767 23.418604 30.814 8.62791 53 18.48837 53 46.83721 1.2326 28.34884-19.7209 48.06977-57.9302 48.06977m124.4883-1.23256c-7.3953 0-14.7906-6.16279-14.7906-13.55814v-128.186047c0-7.395349 6.1627-14.790697 14.7906-14.790697 7.3954 0 13.5582 6.16279 13.5582 14.790697v55.465117l69.0232-66.55814c2.4652-2.465116 6.1628-3.697674 8.628-3.697674 7.3953 0 13.5581 4.930232 13.5581 12.325581 0 4.930233-1.2326 7.395349-3.6977 9.860465l-39.4418 38.209302 46.8372 73.953486c1.2325 2.46512 2.4651 4.93024 2.4651 7.39535 0 6.16279-4.9303 12.32558-12.3256 12.32558-4.9302 0-9.8605-2.46511-11.093-6.16279l-43.1396-70.25581-28.3488 27.11628v34.51163c-2.4651 11.09302-8.6279 17.25581-16.0233 17.25581m255.1396-35.74419h-67.7907l-13.5582 28.34884c-2.4651 4.93023-6.1627 7.39535-11.093 7.39535-8.6279 0-13.5581-6.16279-13.5581-13.55814 0-1.23256 0-3.69767 1.2325-4.93023l59.1628-130.651166c2.4651-4.930232 6.1628-7.395348 12.3256-7.395348s9.8605 2.465116 12.3256 7.395348l57.9302 130.651166c1.2326 1.23256 1.2326 3.69767 1.2326 4.93023 0 6.16279-4.9302 13.55814-13.5582 13.55814-6.1627 0-8.6279-2.46512-11.093-7.39535zm-34.5116-82.581392-23.4186 57.930232h48.0697z" fill="#00adef" stroke-width="12.325582"/><g fill="#231f20" transform="matrix(.99934033 0 0 .99934033 -236.76049 -51.845368)"><path d="m619.2 52.25c3.4-1.26 7.92.79 8.08 4.7.43 3.09-2.14 5.27-3.97 7.34-4.12 4.24-7.96 8.74-12.18 12.86-2.95 3.13-9.37 1.29-9.59-3.18-.54-4.44 3.91-7.04 6.22-10.22 3.82-3.8 6.63-8.87 11.44-11.5z"/><path d="m1057.08 89.13c18.76-1.9 38.42 2.68 53.62 14.05 22.17 16.22 33.49 44.79 30.93 71.84-1.69 25.33-16.01 49.86-38.35 62.34-28.81 16.21-68.27 11.83-91.71-11.9-22.68-22.26-29.2-58.3-17.8-87.66 5.41-14.47 15.26-27.29 28.05-35.99 10.38-7.21 22.71-11.43 35.26-12.68m-1.43 12.65c-9.21 1.33-18.18 4.67-25.79 10.06-11.33 7.7-19.49 19.53-23.79 32.44-6.83 20.25-4.48 43.53 6.83 61.73 8.02 13 21.07 22.88 35.94 26.55 15.16 3.78 31.88 2.43 45.77-4.94 11.06-5.72 19.86-15.25 25.51-26.27 8.93-17.53 10.2-38.64 4.06-57.27-4.66-14.09-13.99-26.88-26.88-34.48-12.35-7.56-27.43-9.7-41.65-7.82z"/><path d="m259.41 90.54c12.75-3.3 27.11 3.33 32.93 15.12 5.26 9.94 3.97 22.88-3.03 31.66-6.96 9.03-19.47 13.22-30.47 10.2-12.27-3-21.86-14.78-21.87-27.49-.88-13.57 9.26-26.58 22.44-29.49z"/><path d="m605.28 90.12c3.39-1.36 7.53.14 8.91 3.61 21.32 47.47 42.52 94.99 63.82 142.47 1.06 2.15 1.53 4.88.07 6.97-1.87 3.08-6.29 3.59-9.31 2.03-1.74-.97-2.49-2.9-3.3-4.59-6.05-13.64-12.25-27.22-18.27-40.88-26.16-.05-52.33-.04-78.5-.01-6.49 14.25-12.71 28.63-19.28 42.84-2.11 5.07-10.76 4.52-12.31-.72-.9-1.93.05-3.94.78-5.73 21.06-47.04 42.13-94.07 63.18-141.11.89-1.95 1.98-4.2 4.21-4.88m2.55 19.6c-11.37 25.89-22.53 51.87-33.85 77.78 22.64.08 45.27-.04 67.91.05-7.02-16.08-13.98-32.19-20.99-48.28-4.43-9.82-8.3-19.9-13.07-29.55z"/><path d="m920.36 90.52c4.1-2.46 10.43.41 10.32 5.44.03 48 .04 95.99 0 143.98-.03 4.52-5.38 7.33-9.35 5.69-3.14-1.07-4.82-4.48-4.58-7.66 0-46.64.01-93.28 0-139.92-.11-2.89.76-6.2 3.61-7.53z"/><path d="m368.99 98.93c-.33-3.86 3.09-7.68 7.03-7.39 22.34-.04 44.67 0 67.01-.02 11.38.11 23.16 3.15 31.99 10.61 9.03 7.45 13.72 19.27 13.7 30.84.35 10.86-3.02 22.16-10.67 30.09-6.24 6.67-14.92 10.53-23.78 12.27 9.96 20.22 19.82 40.49 29.72 60.74 1.21 2.29 1.19 5.41-.55 7.44-2.89 3.85-9.96 3.35-11.79-1.31-10.83-21.89-21.56-43.82-32.32-65.75-18.77.05-37.55.02-56.32.03-.04 20.88.04 41.76-.05 62.65.55 5.91-7.3 9.03-11.5 5.39-2.06-1.49-2.52-4.13-2.46-6.51 0-46.36.01-92.72-.01-139.08m14.01 5.07c.01 19.93-.03 39.85.03 59.78 20.99-.06 41.99-.01 62.99-.02 8-.1 16.19-3.23 21.55-9.29 9.15-10.55 9.64-27.48 1.72-38.84-5.57-8.09-15.7-11.69-25.22-11.59-20.36-.09-40.71-.01-61.07-.04z"/><path d="m738.16 92.21c.49-.16 1.48-.47 1.97-.62 10.95-.17 21.9-.01 32.85-.07 8.3.12 16.67-.46 24.9.91 16.17 2.25 31.77 9.7 42.93 21.73 13.42 14.03 20.16 33.58 20.22 52.82.21 17-4.53 34.29-14.73 48.03-9.94 13.63-24.97 23.25-41.39 26.96-12.06 3.06-24.58 2.15-36.89 2.28-9.05-.04-18.1.06-27.14-.03-3.69-.05-6.87-3.53-6.36-7.22.02-46.33-.02-92.67.02-139-.2-2.46 1.49-4.73 3.62-5.79m10.31 11.79v127.55c11.85-.05 23.7-.03 35.56-.01 15.58.33 31.54-4.73 43.22-15.27 13.18-11.82 19.71-29.75 19.76-47.22.41-16.09-4.47-32.65-15.15-44.91-10.83-12.63-27.44-19.34-43.87-19.92-13.17-.48-26.35-.1-39.52-.22z"/><path d="m260.17 184.11c9.52-2.05 19.94 1 26.79 7.94 10.46 10.03 11.5 27.98 2.24 39.13-7.31 9.49-20.77 13.47-32.09 9.61-10.06-3.18-18.01-12.23-19.76-22.65-.88-5.69-.43-11.68 1.93-16.98 3.71-8.56 11.71-15.18 20.89-17.05z"/></g></svg>