<svg height="888.61377pt" viewBox="0 0 1149.0687 888.61377" width="1149.0687pt" xmlns="http://www.w3.org/2000/svg"><path d="m87.841004.09656073c285.059996-.19 570.129996-.03 855.199996-.08 22.35.07 44.7-.14 67.04.11 25.26 2.32999997 51.18 7.93999997 72.47 22.45000027 6.23 3.93 11.41 9.18 17.09 13.82 4.63 6 10.38 11.11 14.45 17.56 2.21 3.46 4.52 6.85 6.5 10.45 2.95 6.68 6.62 13.04 9.2 19.89 4.8 12.86 8.86 26.049999 11.28 39.579999 2.25 10.59 4.01 21.29 4.78 32.1.69 6.96 1.75 13.89 1.77 20.9.79 3.66 1.08 7.38.98 11.13.79 10.98.31 22.01.44 33.01-.14 8.68.35 17.38-.42 26.04-.32 5.16.46 10.41-.77 15.5-1.25 23.13-3.04 46.25-4.63 69.37-.7 3.32-.79 6.71-.9 10.09-1.14 14.22-2.29 28.43-2.96 42.68-1.37 6.44-.3 13.11-1.86 19.51-.23 10.19-1.69 20.31-2.09 30.49-1.59 25.82-4.27 51.53-5.66 77.38-.14 7.98-1.44 15.87-2.05 23.82-.83 14.74-2.26 29.44-2.99 44.19-.3 9.34-1.82 18.6-2.36 27.94-.38 15.35-2.62 30.58-2.95 45.94-1.06 10.21-1.98 20.43-2.71 30.67-.18 11.85-2.13 23.58-2.21 35.43-1.59 13.93-2.56 27.93-3.21 41.94-.91 8.97-1.66 17.96-1.91 26.98-1.21 10.8-1.98 21.64-2.89 32.47-29.3 7.23-58.71 14.01-88.29 19.99-10.02 1.69-19.83 4.44-29.93 5.67-10.93 2.45-22.03 4.06-33.08 5.87-11.84 2.53-23.91 3.68-35.74 6.18-9.42 1.03-18.76 2.71-28.17 3.75-6.01 1.49-12.2 1.75-18.28 2.73-4.23 1.08-8.63.87-12.92 1.46-7.04.67-13.92 2.52-21 2.76-6.08.08-11.93 1.96-18.02 1.98-11.96 1.47-23.91 3.06-35.95 3.76-7.95 1.39-16.09.82-24.02 2.29-3.3.74-6.7.51-10.04.72-10.29 1.7-20.83 1.19-31.14 2.76-16.67.57-33.21 2.42-49.87 3.19-20.69.43-41.28 2.45-61.99 2.14-4.35-.24-8.59.91-12.92.83-7.41.2-14.91-.62-22.21.94-36.3.14-72.6-.02-108.9.08-4.04.36-7.92-1.1-11.93-1.03-11.66.13-23.32-.29-34.98-.38-6.26-1.5-12.72-.52-19.06-1.35-34.07-.71-67.93-4.12-101.93-6.43-5.16-1.27-10.54-.5-15.71-1.63-14.92-1.74-29.93-2.73-44.76-5.13-19.96-2.18-39.77-5.43-59.57-8.71-21.05-3.95-42.08-8.13-62.6-14.33-12.61-4.28-25.589996-8.5-36.359996-16.62-9.93-6.12-17.94-14.69-26.22-22.78-8.16-9.74-15.86-19.97-21.7-31.3-6.61-12.99-12.57-26.44-16.05-40.64-4.3300003-14.8-6.9000003-30.04-9.3700003-45.24-.57-10.71-2.32-21.31-3.23000003-31.99-.91-18.98-.32-37.99-.5-56.98-.2-6.7.64-13.35.46-20.05 1.62000003-12.41 2.02000003-24.98 3.17000003-37.47 1.29-12.61 1.75-25.31 4.06-37.8 1.38-16.83 4.4900003-33.42 6.6500003-50.14 5.59-34.24 10.92-68.54 16.39-102.82 1.88-8.32 2.32-16.89 4.31-25.19 4.08-27.78 8.6-55.49 13.14-83.19.35-4.63 1.4-9.15 2.41-13.66 1.4-11.05 3.03-22.08 5.2-33.01 1.37-10.01 2.79-20.02 4.88-29.91 1.6-10.7 2.72-21.49 4.99-32.08 4.5-30.55 9.92-60.959999 14.49-91.489999 2.76-15.67 4.79-31.45 7.66-47.11000027" fill="#e3011b"/><path d="m888.041 34.216561c9.43-.07 18.87.35 28.27-.68 18.57-.26 37.15-.06 55.73-.12 22.91-.26 46.57-.32 68.21 8.23 16.54 5.71 30.8 17.08 41.03 31.17 5.48 6.32 8.69 14.14 12.54 21.47 4.09 8.799999 6.8 18.169999 9.77 27.389999 6.59 22.51 8.37 46.04 10.12 69.32 1.48 12.28.68 24.67.87 37.02.16 17.36-.2 34.71-1.13 52.04-.45-3.75.46-7.61-.63-11.27-.43 7.84.2 15.75-1.05 23.55-1.3 25.28-4.5 50.43-5.79 75.7-1.4 9.94-.86 20.02-2.36 29.94.12 7.39-1.54 14.67-1.23 22.07.14 6.38-1.41 12.63-1.76 18.99-1.51 23.67-3.72 47.27-5.33 70.93-1.53 23.52-3.72 46.99-5.02 70.54-1.51 16.77-2.63 33.58-3.79 50.39-1.07 8-.8 16.09-1.77 24.11-.02 7.72-1.3 15.35-1.35 23.06-.93 11.65-2.72 23.26-2.86 34.97-.89 10.66-2.15 21.31-2.13 32.03-1.53 15.87-2.87 31.79-3.86 47.7-23.22 5.23-46.35 10.99-69.77 15.29-26.04 5.21-51.97 11.09-78.28 14.78-13.13 3.36-26.76 3.76-39.98 6.6-9.86 1.73-19.85 2.56-29.69 4.39-20.03 3.16-40.38 4.1-60.25 8.26-5.03.66-10.15.11-15.14 1.1-9.36 1.83-18.95 1.5-28.35 2.97-8.66 1.23-17.41 1.39-26.08 2.48-10.59 1.42-21.33 1.22-31.94 2.55-16.34.88-32.66 2.02-48.97 3.39-9.7.14-19.37.83-29.07.93-12.6 1.4-25.32.87-37.98 1-4.7-.26-9.25 1.19-13.94 1.08-29.68-.07-59.36-.01-89.04-.03-4.49-.05-9 .28-13.45-.35-7.04-1.33-14.22-.37-21.32-.59-7.17-.46-14.38.09-21.5-1.04-11.53-.2-23.06-.86-34.6-1.09-9.68-1-19.38-1.78-29.1-2.16-6.55-1.19-13.22-.66-19.81-1.23-6.28-.9-12.62-1.25-18.94-1.64-16.54-1.98-33.1-3.67-49.68-5.23-8.76-1.65-17.64-2.56-26.46-3.77-9.5-.63-18.74-3.03-28.14-4.4-5-.89-10.1-1.14-15.04-2.31-9.23-2.29-18.74-3.29-27.91-5.85-6.41-1.72-13.05-2.49-19.36-4.57-7.33-2.35-14.88-4.01-22.02-6.91-10.63-4.18-22.24-7.28-30.759996-15.3-3.33-3.06-7.16-5.5-10.48-8.54-6.45-6.54-13.11-12.97-18.33-20.56-5.04-7.5-9.48-15.4-13.49-23.49-8.39-19.56-14.24-40.32-16.57-61.51-3.87-28.81-4.49-57.96-3.27-86.99.58-7.07.44-14.2 1.56-21.21.44-6.33.1-12.72 1.14-19 1.88-12.59 1.98-25.35 3.95-37.93.16-6.36 1.76-12.55 2.21-18.88.72-6.78 1.63-13.54 2.73-20.27.86-12.7 3.79-25.11 5.42-37.71.65-5.71 2.42-11.25 2.8-17 4.6-30.77 9.2-61.56 14.73-92.18 1.97-11.66 2.97-23.46 5.42-35.03 2.2-14.87 4.97-29.65 6.91-44.55.68-5.8 2.67-11.36 2.98-17.2 1.34-10.56 3.08-21.06 4.85-31.55.79-6.89 3.05-13.53 3.39-20.49 1.57-7.34 1.73-14.92 3.63-22.19 3.499996-20.05 5.259996-40.41 9.599996-60.33 1.31-5.479999 1.34-11.149999 2.55-16.639999 1.34-6.13 1.43-12.45 2.77-18.58 1.19-5.59 1.39-11.34 2.5-16.95 1.25-5.53 1.86-11.17 2.8-16.76 1.71-.43 3.43-.94 5.21-.93 42.36.07 84.72.01 127.08.03 8.66-.06 17.33.28 25.96-.57 4.34-.51 8.69.03 13.04.11h599" fill="#fed500"/><g fill="#e3011b"><path d="m507.581 108.77656 42.28-15.689999 3.2 9.829999-18.49 8.08 30.45 80.6-24.51-.01-5.41-16.01-29.92.4-5.73 15.56-22.73.24zm12.82 21.17-9.45 28.74 18.92.04z"/><path d="m770.391 109.24656c7.4-1.4 14.9.47 22.04 2.37 5.3 2.28 11.03 4.72 14.48 9.6 2.34 3.26 5.09 6.36 6.41 10.24 4 11.82 4.27 24.84.8 36.83-3.34 8.93-9.47 17.4-18.46 21.26-8.9 3.91-19.03 4.76-28.56 3.14-12.79-.98-24.47-9.9-28.94-21.9-2.94-7.77-4.31-16.22-3.54-24.51 1.13-8.19 3-16.69 8.27-23.32 6.69-8.27 17-12.92 27.5-13.71m-1.79 17.6c-3.95 2.19-6.87 6-8.51 10.15-3.22 8.97-3.48 19.07-.07 28.04 2.08 4.98 5.89 9.78 11.45 10.89 5.25 1.72 10.86-.29 15.16-3.38 5.23-5.37 6.54-13.3 6.79-20.51.34-7.52-1.7-15.15-6.06-21.32-4.69-5.12-12.42-5.84-18.76-3.87z"/><path d="m394.78074 110.73656c13.41-.32 26.83026-.08 40.24026-.15 8.53-.03 17.93 3.11 22.63 10.68 2.32 4.86 2.11 10.53 1.57 15.77-1.11 6.96-6.53 12.39-13.09 14.57 2.11 2.57 5.24 4.46 6.16 7.85 1.84 5.46 4.14 10.76 5.86 16.28 1.61 5.31 4.49 10.28975 4.9 15.92975h-23.19c-.89-5.93-3.2-11.66975-5.14-17.29975-1.52-4.18-3.17-8.49-6.18-11.84-2.89-3.08-7.43026-2.01-11.17026-2.1v31.23975l-22.59.0202v-80.95m22.59 15.58v17.38c5.58-.26 11.66026 1.28 16.75026-1.66 4.63-2.51 4.77-9.73.6-12.73-5.06-3.78-11.44026-2.9-17.35026-2.99z"/><path d="m583.731 110.72656 27.31-.15c8.43.08 17.04-.04 25.17 2.52 4.31817 1.04025 8.16587 3.25666 11.73173 5.85285 2.27568 1.69481 4.51408 3.33985 6.11316 5.46143 2.14713 2.87254 3.44997 6.38435 4.83511 9.66572 1.96 4.64 1.94 9.73 2.37 14.67.33 9.81-1.25 20.18-7.31 28.2-3.94 4.43-8.58 8.52-14.24 10.56-7.28 2.53-14.86 4.74-22.65 4.21h-33.51zm21.84 16.79-.08 48c5.92-.19 12.01.59 17.72-1.39 8.54-2.1 14.7-10.37 15.04-19.04.76-8.31-.97-18.01-8.25-23.11-6.99-5.3-16.14-4.93-24.43-4.46z"/><path d="m686.251 110.62656h22.14l.16 81.11025h-22.24z"/><path d="m135.601 247.40656 68.44.01c14.37905.002 28.72958 1.80235 42.56 5.45 8.76038 2.31047 17.39 6.25 24.16 12.49 6.41 5.32 11.22 12.3 15.09 19.62 4.93 12.7 5.42 26.64 4.04 40.06-1.96 15.39-10.46 29.82-23.19 38.73-9.05 6.39-19.43 11.23-30.5 12.65-15.26 3.49-31 1.7-46.5 2.27-.34 23.39.32 46.8-.31 70.17l-53.79-.08zm54.29024 39.03v53.72c6.39.55 12.83976.57 19.20976-.23 6.75-.6 13.93-1.97 18.99-6.85 4.11-3.28 7.09-7.86 7.65-13.16 2.63-10.55-.64-23.31-10.48-29.01-10.65-5.98-23.67976-4.36-35.36976-4.47z"/><path d="m536.421 249.35656.16 48.22 35.6.71.19 37.06-35.75.24c-.18 19.83.01 39.65-.07 59.48-.21 6.51 2.11 13.19 6.41 18.08 8.62 6.87 20.06 3.43 29.93 2.21 1.43 6.45.27 13.13 1.01 19.67.62 4.99 1.02 10.05.38 15.07-11.74.95-23.43 3.07-35.26 2.64-4.01.12-7.91-.96-11.9-1.14-7.54-.11-14.75-2.8-21.46-6.04-8.15-3.74-14.71-10.92-17.59-19.42-2.75-9.12-4.02-18.6-4.5-28.1-.16-20.78.1-41.57-.13-62.34l-29.21-.07.11-37.27 29.93-.53.29-32.44z"/><path d="m326.031 308.87656c10.97-7.47 23.83503-12.29427 37.02-13.44 8.58323-.74585 17.30209-.79417 25.88.13 8.23868.88762 16.28 3.47 23.84 6.86 12.16 6.57 22.66 16.65 28.71 29.17 8.23 17.77 11.15 37.75 9.73 57.2-28.06-.18-56.11-.05-84.17-.09-6.3.1-12.63-.29-18.89.56.74 9.34 6.15 18.95 15.1 22.66 17.19 7.6 37 6.53 54.73 1.38 6.9-1.44 13.32-4.31 19.65-7.33.19 12.26.02 24.53.07 36.79-9.33 5.6-20.4 5.99-30.74 8.37-8.31.55-16.57 1.91-24.92 1.59-6.38.21-12.67-.92-18.99-1.49-8.29-1.31-16.2-4.26-24.04-7.15-19.09-8.5-35.37-24.9-40.79-45.42-1.47-4.75-2.78-9.6-3.05-14.59-1.6-15.9.02-32.47 6.84-47.07 5.43-11.2 13.29-21.55 24.02-28.13m35.36 23.37c-8.91 5.72-13.77 16.32-14.1 26.71 6.87 1.02 13.84.17 20.75.43 11.92-.19 23.86.39 35.77-.31.13-5.75-.61-11.61-3.2-16.81-3.33-6.15-9.05-11.15-15.99-12.68-7.72-2.51-16.15-.96-23.23 2.66z"/><path d="m685.92539 296.23655c7.22727-1.69639 14.8734-1.04306 22.27561-.78999 2.53.06 4.98.75 7.42 1.42l-2.39 43.37c-5.77-.02-11.37-1.79-17.13-1.81-10.14.88-21.01 3.78-27.59 12.15-7.9 8.46-10.29 20.23-10.93 31.41l-.29 66.84-51.89-.07.09-150.53026h47.62l.37 25.04026c3.12-2.03 3.93-5.95 6.09-8.79 4.60102-6.3165 10.28554-12.34665 17.61869-15.31254 2.94215-1.14517 5.95468-2.26509 8.7357-2.92747z"/><path d="m806.74558 294.96216c.38057.00045.76023-.0132 1.13924-.0176 4.53502-.053 8.96834.10632 13.4178.67934 4.18128.5479 8.29928 1.60096 12.40838 2.53271 6.92 1.71 13.96 3.45 20.17 7.1 5.56 3.3 11.58 6.08 16.15 10.78 11.04 9.74 19.02 23.04 22.24 37.41 2 10.65 3.12 21.65 1.35 32.42-.79 5.54-1.4 11.21-3.6 16.41-3.19 7.06-6.24 14.38-11.59 20.14-6.22 6.79-12.6 13.84-20.94 18.07-7.45 4.06-15.26 7.51-23.59 9.27-5.61 2.13-11.66 1.59-17.48 2.54-10.66 1.3-21.32-.34-31.92-1.17-11.66-2.86-22.9-7.41-33.27-13.46-4.39-2.78-8.01-6.54-11.78-10.06-6.53-5.78-10.88-13.55-14.39-21.41-4.71-10.04-5.6-21.3-6.21-32.22.73-9.28 1.06-18.84 4.53-27.61 5.74-17.57 19.33-31.87 35.36-40.65 9.58041-5.50324 20.43408-8.14852 31.27226-9.82075.48598-.075.96958-.16651 1.45774-.21926 6.09389-.65849 8.07228-.72284 15.27458-.71441zm-.53458 37.45441c-8.44-.6-16.85 2.99-22.54 9.17-7.1 8.78-10.6 20.18-10.34 31.42-.19 10.01 1.97 20.17 6.92 28.92 5.24 8.91 15.56 13.91 25.75 13.74 8.89.67 18.29-2.75 23.77-9.96 6.16-7.11 9.6-16.26 10.12-25.62.36-8.24.55-16.8-2.42-24.64-2.69-7.94-7.38-15.73-15.02-19.74-4.8-3.16-10.7-3.25-16.24-3.29z"/><path d="m895.281 297.7568h54.56l32.45 106.43976 31.97-106.43976 51.63.255-55.17 150.66476-60.32-.01z"/><path d="m192.461 488.65656c6.49-1.46 13.18-.72 19.65.42 7.08 1.29 13.23 6.46 15.94 13.11 5.62 12.45 1.44 27 7.47 39.31 2.27 5.76 5.2 11.23 8.36 16.55 2.64 4.45 4.31 9.46 7.59 13.52 4.78 5.94 8.85 12.41 13.75 18.26 10.6 12.66 22.45 24.26 34.97 35.02 6.39 4.64 12.1 10.17 18.85 14.32 15.62 11.86 32.93 21.18 50.03 30.68 20.47 9.19 40.52 19.77 62.27 25.69 9.86 3.55 19.97 6.4 30.13 8.96 26.09 6.33 52.67 11.09 79.54 12.23 7.64 1.03 15.35.68 23.03.72 8.68-.07 17.4.37 26.04-.73 14.09-.29 28.08-2.06 42.06-3.77 12.15-1.15 23.86-4.83 35.91-6.66 5-.76 9.77-2.55 14.76-3.38 21.47-4.3 42.23-11.44 62.72-19.04 5.46-1.66 10.49-4.42 15.87-6.3 7.68-2.67 14.72-6.85 22.32-9.72 6.98-2.62 13.33-6.59 19.94-10.01 8.92-4.04 16.82-9.91 25.33-14.71 5.77-3.08 10.57-7.61 16.1-11.06 14.78-9.89 27.58-22.33 39.92-35.06 5.14-5.59 9.48-11.86 14.12-17.86 6.34-10.24 14.25-20.64 14.55-33.2 1.49-10.58 1.33-21.5 4.74-31.73 2.34-5.68 6.25-10.93 11.82-13.76 8.23-4.04 17.79-4.47 26.72-3 6.77 1.13 13.48 4.73 16.83 10.95 5.25 8.55 4.12 19.06 3.1 28.57-.99 10.31-4.5 20.11-8.21 29.7-4.79 10.26-9.42 20.67-15.99 29.95-3.54 6.27-8.54 11.49-12.76 17.27-6.73 8.55-13.97 16.68-21.43 24.58-7.49 6.52-14.93 13.09-22.45 19.58-4.73 4.32-10.28 7.59-15.11 11.78-10.38 7.92-21.88 14.16-32.75 21.34-7.97 5.37-16.87 9.08-25.24 13.74-13.33 6.62-26.99 12.57-40.79 18.14-8.5 4.58-18.02 6.49-26.95 9.96-10.6 3.24-20.97 7.2-31.79 9.67-8.77 3.13-18.06 4.27-26.93 7.1-13.47 2.78-26.85 6.03-40.44 8.19-7.32 1.29-14.77 1.58-22.04 3.18-21.14495 2.56651-37.54288 4.66578-54.93 4.47-10.93813-.25193-21.93202.86818-32.82-.11-10.42858-.9369-20.80011-1.33041-31.22-2.53-10.37053-1.19391-20.55-3.3-30.91-4.38-15.63-2.89-31.05-6.84-46.37-11.02-7.5-2.65-15.37-3.99-22.81-6.78-12.73-4.87-25.64-9.24-38.21-14.48-10.16-4.96-20.87-8.73-30.8-14.17-20.51-9.73-39.71-21.95-58.71-34.31-12-8.23-23.61-17-34.92-26.13-5.14-4.16-9.48-9.19-14.6-13.37-8.42-6.9-15.28-15.4-22.67-23.33-4.2-4.47-8.35-9.06-11.65-14.24-6.26-9.54-13.08-18.77-18.12-29.04-4.6-7.66-7.26-16.22-10.01-24.66-3.06-13.89-4.69-28.74-.47-42.56 3.2-7.36 9.13-14.95 17.67-15.86z"/></g></svg>