<svg height="986" viewBox="0 0 1023.4988 985.99998" width="1023.4988" xmlns="http://www.w3.org/2000/svg" xmlns:xlink="http://www.w3.org/1999/xlink"><clipPath id="a"><path d="m0 0h170v164h-170z"/></clipPath><g clip-path="url(#a)" transform="matrix(6.03360705 0 0 -6.03360705 0 989.511554)"><g><path d="m14.078 138.863v-46.48c-5.754-19.153-14.078-60.184-14.078-60.184s9.973 2.024 14.078 2.727v-11.25l.063-23.094 11.91.016h121.617c12.055 0 21.867 10.351 21.867 23.078v27.894s-.051-.047-.051-.05c.02.343.051.671.051 1.031v86.312c0-.05.051 12.832.051 12.832l.047 12.305h-133.93c-12.113-1.211-21.625-12.02-21.625-25.137" fill="#231f20"/><path d="m151.59 56.738v74.028c0 2.406.031 9.031.031 9.031s-6.297-.027-8.766-.027h-98.41c-4.804 0-8.738-4.055-8.738-9.004v-73.524z" fill="#231f20"/><g fill="#fff"><path d="m98.047 127.906c-.887-.515-4.445-2.332-8.227-4.25l-9.832-5.054.114-.391 1.035-3.824.504.172c.726.242 2.672.906 3.797 1.316-.125-.359-.274-.715-.43-1.07l-.25-.582-3.555-8.485-.519-1.226c-.852-1.961-1.789-4.121-1.789-6.25 0-.715.097-1.422.343-2.106.375-1.066 1.262-1.75 2.559-1.972 3.687-.641 14.262 2.105 12.625 3.875 1.152-1.246 2.828-3.262 4.191-4.047 2.735-1.582 6.168-1.68 9.434-.266 3.723 1.613 6.558 4.84 7.398 8.422.95 4.035-.789 7.797-2.492 11.012-.449.847-1.066 1.621-1.664 2.367-.859 1.078-1.672 2.098-2.016 3.297-.257.902-.043 1.715.61 2.273.871.75 2.281.899 3.437.371l3.469-1.617 4.699 6.727-.64.211c-4.735 1.535-16.145 4.062-19.743-5.731-1.648-4.492 1.067-7.883 3.465-10.875 1.125-1.406 2.196-2.734 2.676-4.027.527-1.379-.121-2.922-.891-3.903-.726-.914-1.546-1.429-2.296-1.418-3.055.051-5.329 2.708-5.582 5.364l-.055.636-.609-.214c-.489-.172-1.477-.684-2.727-1.325-1.75-.902-5.266-2.718-6.258-2.765.211 1.765 4.317 11.324 6.805 17.148 2.515 5.86 3.156 7.387 3.16 7.774v.867zm9.09-26.246c1.215 1.547 1.601 3.363 1.039 4.867-.539 1.442-1.656 2.828-2.828 4.297-2.34 2.922-4.766 5.946-3.305 9.906 3.062 8.344 12.223 7.036 17.848 5.321-.598-.867-3.063-4.371-3.438-4.922-.582.269-2.723 1.266-2.723 1.266-1.488.687-3.339.472-4.492-.516-.953-.824-1.289-2.027-.922-3.309.399-1.39 1.309-2.539 2.196-3.644.593-.742 1.16-1.453 1.558-2.211 1.621-3.051 3.27-6.613 2.407-10.317-.77-3.289-3.383-6.253-6.829-7.738-2.972-1.285-6.078-1.207-8.535.215-1.402.809-3.59 2.668-4.058 4.07l-.25.762-.598-.594c-.602-.597-8.715-4.765-12.449-3.91-.824.192-1.344.61-1.582 1.285-.848 2.407.359 5.18 1.418 7.629l.531 1.242 3.555 8.485.238.566c.301.684.609 1.387.738 2.129l.098.586h-.848l-.105-.051c-.231-.109-2.387-.863-3.981-1.402-.168.629-.515 1.918-.656 2.414.656.332 9.113 4.68 9.113 4.68 2.946 1.5 5.586 2.847 7.121 3.656-.562-1.399-1.628-3.887-2.675-6.324-5.438-12.684-6.887-16.493-6.887-17.754 0-.207.039-.344.109-.438.618-.886 2.438-.144 7.594 2.524.824.422 1.551.797 2.07 1.043.582-2.887 2.996-5.457 6.403-5.614.937-.043 2.152.567 3.125 1.801"/><path d="m122.793 121.078c-1.656-4.492 1.062-7.879 3.465-10.875 1.121-1.406 2.183-2.734 2.676-4.027.515-1.375-.129-2.922-.903-3.903-.718-.914-1.66-1.496-2.289-1.418-3.054-.078-5.328 2.711-5.586 5.368l-.125 1.355-.777-1.121c-4.793-6.934-4.793-6.934-4.359-7.258l-.122.293c.602-1.84 4.192-4.707 5.52-5.48 2.738-1.582 6.176-1.68 9.437-.266 3.719 1.617 6.555 4.844 7.391 8.426.957 4.031-.785 7.793-2.48 11.012-.45.843-1.071 1.621-1.668 2.367-.864 1.074-1.676 2.094-2.02 3.297-.265.929-.062 1.75.57 2.289.817.699 2.125.812 3.254.297l3.762-1.61.234.336 4.391 6.442-.629.207c-4.742 1.535-16.148 4.062-19.742-5.731m6.02-19.418c1.218 1.543 1.613 3.363 1.046 4.867-.543 1.442-1.648 2.828-2.832 4.297-2.343 2.922-4.761 5.946-3.3 9.914 3.058 8.34 12.23 7.028 17.855 5.313-.594-.867-3.039-4.449-3.402-4.988-.586.25-2.989 1.277-2.989 1.277-1.476.676-3.207.496-4.308-.442-.942-.808-1.258-2.019-.887-3.328.402-1.39 1.313-2.539 2.199-3.644.594-.742 1.157-1.446 1.559-2.211 1.617-3.051 3.273-6.613 2.406-10.313-.765-3.289-3.387-6.254-6.824-7.742-2.977-1.285-6.082-1.207-8.547.215-1.359.789-4.355 3.32-4.988 4.754.515.797 2.219 3.285 3.605 5.297.774-2.684 3.211-5.145 6.285-5.067.934-.117 2.157.571 3.122 1.801"/><path d="m97.48 135.168c0-2.535 2.063-4.602 4.594-4.602s4.594 2.067 4.594 4.602c0 2.523-2.063 4.582-4.594 4.582s-4.594-2.059-4.594-4.582m.997 0c0 1.98 1.617 3.594 3.597 3.594 1.981 0 3.598-1.614 3.598-3.594 0-1.988-1.617-3.598-3.598-3.598-1.98 0-3.597 1.61-3.597 3.598"/><path d="m93.387 151.09-.321.957c-7.168-3.731-21.058-12.039-34.199-25.906l-.453-1.918c13.324 14.457 27.629 23.043 34.973 26.867"/><path d="m65.855 76.691c-1.242 2.84-8.562 20.012-9.968 34.778l-.078.801-.676-.415c-8.469-5.226-17.254-38.062-17.254-55.246 0-2.453.191-4.566.578-6.257-2.035-.422-5.602-1.481-9.074-2.512-3.36-1.004-6.805-2.024-8.824-2.457 1.535 13.793 20.757 78.523 38.769 106.82.289-.004 2.695-.015 4.824-.035l.703 1.027-6.066.039-.152-.234c-18.418-28.766-38.176-95.832-39.145-108.207l-.051-.66.629.105c1.907.325 5.817 1.492 9.59 2.614 3.754 1.117 7.629 2.273 9.473 2.586l.547.089-.141.555c-.445 1.641-.652 3.816-.652 6.371 0 16.246 8.246 47.754 16.117 53.992 1.777-16.035 10.07-34.449 10.152-34.64l.153-.328.355.039c.07.004.215.023 3.934 1.836l-.453.914c-1.489-.727-2.704-1.309-3.29-1.575"/></g><path d="m122.023 123.91-4.078-5.828s-2.507 1.168-3.093 1.441c-2.403 1.102-5.536-.449-4.727-3.238.625-2.187 2.672-3.785 3.719-5.758 1.746-3.297 3.34-6.863 2.445-10.664-1.535-6.55-9.961-11.394-16.098-7.843-1.41.816-3.753 2.746-4.277 4.351-.582-.711-13.195-7.23-14.875-2.473-1.07 3.028.813 6.457 1.957 9.227 1.16 2.84 2.383 5.648 3.551 8.488.34.828.789 1.7.945 2.59h-.144c-.317-.156-4.543-1.594-4.543-1.594l-.895 3.313c5.445 2.863 16.047 8.168 17.711 9.133-.004-.895-10.687-24.223-9.941-25.293.672-.957 8.097 3.445 9.629 3.988.269-2.84 2.754-5.645 6.019-5.812 1.902-.094 4.758 3.207 3.707 5.996-1.555 4.156-8.453 8.242-6.133 14.554 3.059 8.336 12.157 7.688 19.121 5.422" fill="#ed1c24"/><path d="m143.707 123.91-4.019-5.887s-2.782 1.172-3.379 1.442c-2.399 1.105-5.305-.391-4.504-3.18.629-2.187 2.672-3.785 3.715-5.758 1.75-3.297 3.339-6.863 2.453-10.664-1.535-6.55-9.961-11.394-16.106-7.84-1.406.813-4.769 3.602-5.301 5.204-.578-.711 4.426 6.527 4.426 6.527.27-2.844 2.754-5.906 6.024-5.816 1.824-.227 4.754 3.207 3.707 5.996-1.563 4.156-8.457 8.242-6.137 14.554 3.059 8.336 12.148 7.688 19.121 5.422" fill="#ed1c24"/><path d="m107.492 132.746c0-2.269-1.828-4.105-4.094-4.105-2.253 0-4.089 1.836-4.089 4.105 0 2.254 1.836 4.09 4.089 4.09 2.266 0 4.094-1.836 4.094-4.09" fill="#ed1c24"/><path d="m148.359 129.895v-71.372h-96.761c-4.684.024-8.446.04-10.903.051.371 16.965 7.985 47.664 16.02 52.469 2.656-12.98 13.656-32.895 13.656-32.895.281.032 11.699 5.133 11.699 5.133 0 .102-17.136 22.125-16.281 32.516.828 4.949 10.578 13.289 21.594 20.879h54.469s4.082.012 6.531.019c-.008-2.535-.024-6.8-.024-6.8m-110.703 0c0 3.742 2.914 6.781 6.508 6.781h8.199c-5.277-10.879-10.336-23.875-14.707-36.613zm112.895 11.253-8.699-.027h-47.735c7.863 4.988 15.598 9.195 20.567 11.192 0 .046-12.922-.102-15.348-.102-.613-.262-22.152-9.41-41.094-30.531h-.144c.054 5.961 7.797 19.121 13.418 29.394h-11.133c-1.938-2.926-3.871-6.281-5.785-9.953h-10.434c-5.973 0-10.84-5.039-10.84-11.226v-43.051c-5.738-18.336-9.59-34.223-10.031-39.696 2.086.344 6.129 1.098 10.031 1.817v-19.703c0-2.727.028-9.324.028-9.324h110.336c4.949 0 8.996 4.195 8.996 9.324v24.371h.004v76.262l.046 11.257z" fill="#ed1c24"/><g fill="#fff"><path d="m89.898 74.289h1.676c.364 0 .688.082.973.25s.527.379.726.641c.2.258.36.547.485.867.125.316.222.617.289.902.183.871.141 1.485-.125 1.844-.266.363-.699.543-1.301.543h-1.672zm-2.125-10.297h-3.777l3.75 18.129h6.977c1.281 0 2.218-.406 2.812-1.219.59-.808.727-1.984.414-3.527-.234-1.152-.687-2.133-1.351-2.937-.668-.801-1.633-1.305-2.899-1.504l-.027-.051c.199-.035.476-.086.824-.153.352-.066.684-.218 1-.453.317-.234.559-.582.727-1.039.164-.461.164-1.101 0-1.922-.067-.285-.145-.687-.239-1.207-.093-.519-.179-1.054-.261-1.605-.086-.555-.145-1.063-.188-1.531-.043-.469-.039-.797.012-.981h-3.699c-.133.551-.145 1.129-.039 1.735.109.601.23 1.195.363 1.781.101.535.195 1.047.289 1.531.09.484.098.906.023 1.27-.074.359-.277.648-.613.863-.332.219-.859.328-1.574.328h-.973z"/><path d="m104.57 70.117c-.433-.015-.836-.031-1.211-.047-.375-.019-.714-.09-1.011-.215-.301-.125-.559-.335-.778-.628-.215-.293-.382-.723-.5-1.293-.05-.235-.082-.469-.097-.704-.016-.234 0-.449.047-.64.05-.192.152-.352.3-.477.153-.125.368-.187.653-.187.515 0 .925.156 1.238.465.305.308.551.679.734 1.117.184.433.317.89.403 1.367.082.477.156.891.222 1.242m2.676-3.765c-.082-.383-.144-.778-.187-1.18s-.079-.797-.114-1.18h-3.273l.176 1.684h-.051c-.984-1.289-2.215-1.934-3.699-1.934-.618 0-1.114.11-1.489.324-.375.219-.66.508-.847.868-.196.359-.297.789-.317 1.281-.015.492.035 1.015.153 1.57.215 1.055.57 1.875 1.062 2.461.488.586 1.07 1.016 1.735 1.293.668.274 1.398.441 2.191.5.789.059 1.594.082 2.41.063l.199.98c.051.27.086.516.102.742.016.227-.004.422-.063.59-.058.168-.175.297-.347.387-.176.094-.422.14-.742.14-.297 0-.547-.054-.75-.164-.2-.109-.36-.25-.485-.425-.125-.176-.226-.383-.301-.618-.074-.234-.136-.476-.187-.726h-3.449c.164.769.414 1.406.738 1.906.324.504.727.899 1.211 1.184.465.3.992.511 1.574.636.586.129 1.219.192 1.899.192 1.117 0 1.984-.113 2.601-.34s1.063-.531 1.34-.918c.273-.383.406-.836.398-1.355-.007-.52-.07-1.063-.187-1.629z"/><path d="m114.195 65.926c.301 0 .567.086.789.265.227.172.426.442.602.801.176.36.336.824.484 1.395.153.57.313 1.254.477 2.058.133.637.246 1.219.34 1.746.09.528.129.981.125 1.356-.012.375-.09.668-.239.879-.152.207-.41.312-.777.312-.383 0-.695-.105-.937-.312-.243-.211-.45-.504-.625-.879-.172-.375-.321-.828-.438-1.356-.113-.527-.238-1.109-.375-1.746-.332-1.605-.48-2.761-.437-3.465.043-.703.379-1.054 1.011-1.054m1.203-1.934.274 1.406h-.051c-.449-.621-.945-1.05-1.484-1.293-.543-.242-1.157-.363-1.84-.363-.914 0-1.567.227-1.949.676-.383.453-.614 1.012-.688 1.684-.074.668-.043 1.394.102 2.171.14.778.277 1.493.41 2.149.133.633.293 1.332.476 2.094.184.761.446 1.472.786 2.125.343.652.796 1.195 1.363 1.632.566.434 1.293.653 2.176.653.632 0 1.152-.11 1.562-.328.406-.219.746-.594 1.012-1.129h.051l1.375 6.652h3.523l-3.75-18.129z"/><path d="m128.57 82.121-.574-2.785h-3.523l.574 2.785zm-3.75-18.129h-3.523l2.598 12.68h3.527z"/><path d="m132.598 66c .316 0 .597.063.836.191.242.125.457.36.652.704.191.339.375.816.547 1.429.176.61.363 1.403.566 2.371.129.657.235 1.231.309 1.735.078.504.094.918.051 1.242-.043.328-.153.574-.336.742-.184.168-.461.25-.825.25-.386 0-.699-.082-.949-.25s-.465-.414-.64-.742c-.176-.324-.329-.738-.461-1.242-.133-.504-.27-1.078-.399-1.735-.203-.968-.344-1.761-.426-2.371-.085-.613-.101-1.09-.05-1.429.05-.344.164-.579.351-.704.18-.128.438-.191.774-.191m-.477-2.258c-1.133 0-2.004.168-2.613.5-.606.336-1.031.801-1.274 1.395-.242.593-.328 1.304-.261 2.136.066.829.199 1.735.398 2.723.184.871.41 1.695.676 2.473.266.777.637 1.461 1.113 2.047.473.586 1.086 1.05 1.836 1.394s1.707.516 2.875.516 2.055-.172 2.664-.516c.606-.344 1.024-.808 1.25-1.394.223-.586.309-1.27.25-2.047-.058-.778-.18-1.602-.363-2.473-.199-.988-.442-1.894-.723-2.723-.285-.832-.668-1.543-1.152-2.136-.484-.594-1.098-1.059-1.848-1.395-.75-.332-1.695-.5-2.828-.5"/></g></g></g><g fill="#fff" transform="matrix(1.00250831 0 0 1.00250831 524.276934 689.600111)"><path d="m34.16 19.01 15.44.02 5.61 61.58 31.37-61.47 15.91-.13-15.334713 73.67-9.465287.07 13.3-64.69-33.63 64.59-9.25.14-6.6-65.02-13.56 64.99-9.01.01z"/><path d="m122.44 40.73c5.83-1.01 12.61-1.42 17.7 2.13 5.35 3.91 5.02 11.34 4.21 17.19-1.69 9.99-3.35 20.94-10.69 28.54-5.31 5.52-13.67 5.61-20.77 4.9-4.37-.34-8.56-3.14-9.63-7.55-2.44-9.62.62-19.53 3.19-28.8 2.1-7.66 7.9-14.84 15.99-16.41m1.03 6.98c-4.87 1.65-7.34 6.68-8.67 11.29-1.52 5.59-2.64 11.31-3.1 17.09-.12 3.09-.26 6.7 2.09 9.07 2.63 2.09 6.35 1.91 9.44 1.14 4.45-1.35 6.81-5.77 8.25-9.86 2.11-6.27 3.7-12.76 4.25-19.36.16-3.13-.14-6.99-3.04-8.87-2.81-1.5-6.24-1.4-9.22-.5z"/><path d="m173.05 41.96c3.43-1.88 7.45-1.74 11.24-2.01l-1.9 9.09c-3.96-.7-8.36-.82-11.8 1.58-4.45 2.76-6.27 8-7.31 12.86l-5.94 29.26-8.57.01 10.51-51.74 8.6.02-1.49 7.39c1.93-2.4 3.8-5.07 6.66-6.46z"/><path d="m196.53 42.59c6.13-2.89 13.52-3.42 19.97-1.3 4.45 1.35 6.77 6.23 6.14 10.64-1.96 13.69-6.44 26.97-7.21 40.83l-9.35-.02 1.39-6.89c-2.55 3.62-6.05 6.87-10.57 7.61-4.7.69-10.76.82-13.79-3.59-2.73-4.57-1.6-10.27-.37-15.14 1.32-5.31 5.53-9.44 10.5-11.48 6.08-2.53 12.79-2.42 19.26-2.51.72-3.57 2.07-7.42.63-10.98-1.49-3.36-5.97-3.69-9.08-2.81-4.05.92-6.4 4.94-7 8.79h-9.37c1.4-5.15 3.72-10.74 8.85-13.15m-1.17 27.58c-3.65 2.19-5.07 6.76-4.89 10.81.04 2.28 1.23 4.85 3.59 5.49 3.93 1.05 8.29-.48 10.91-3.55 3.81-4.33 5.23-10.15 6.16-15.7-5.31.33-11.16-.23-15.77 2.95z"/><path d="m286.33 43.25c6.09-3.56 13.77-4.01 20.49-2.19 4.75 1.23 7.45 6.22 6.69 10.93-1.86 13.66-6.53 26.91-7.07 40.76l-9.46.04 1.45-7.01c-2.7 3.84-6.51 7.3-11.37 7.81-4.52.52-10.29.48-13.11-3.75-2.52-4.58-1.6-10.13-.36-14.95 1.4-5.66 6.05-10.08 11.44-12.01 5.87-2.18 12.24-2.02 18.41-2.16.57-3.72 2.28-7.81.35-11.41-2.13-3.4-6.98-3.23-10.27-1.84-3.36 1.42-4.86 4.99-5.7 8.29l-9.2-.02c1.26-4.77 3.27-9.83 7.71-12.49m-.74 27.41c-2.95 2.11-4.06 5.84-4.33 9.29-.1 2.62 1 5.77 3.78 6.54 3.67.96 7.75-.3 10.34-3.05 4.18-4.36 5.65-10.48 6.69-16.25-5.56.39-11.86-.29-16.48 3.47z"/><path d="m232.68 41.01 9.52-.02 2.62 43.7 21.32-43.69h9.03l-26.67 51.73-11.16.05z"/></g></svg>