<svg id="a" width="2426.5" height="671.19" version="1.1" viewBox="0 0 187.09 51.75" xmlns="http://www.w3.org/2000/svg">
 <path id="b" d="m74.278 3.4929h3.14c1.227 0 1.815 0.589 1.815 1.668 0 1.129-0.588 1.62-1.913 1.62h-3.042zm0 9.176v-3.68h2.748c1.717 0 1.766 0.687 1.865 2.208 0.147 1.864 0.196 2.895 1.668 2.895 0.785 0 1.275-0.491 1.275-1.178 0-0.294-0.147-0.736-0.245-1.275-0.049-0.393 0-0.933-0.098-1.669-0.099-1.128-0.589-1.815-1.521-2.109 1.227-0.393 1.864-1.472 1.864-2.993 0-2.404-1.324-3.533-4.023-3.533h-4.563c-1.276 0-1.57 0.54-1.57 1.963v9.372c0 0.932 0.442 1.374 1.276 1.374 0.882-1e-3 1.324-0.443 1.324-1.375zm21.443-8.832 1.766 5.348h-3.483zm-2.993 9.274 0.589-1.815h4.857l0.589 1.815c0.245 0.638 0.589 0.932 1.276 0.932 0.735 0 1.227-0.442 1.227-1.128 0-0.246 0-0.441-0.099-0.638l-3.582-9.863c-0.343-0.932-0.589-1.276-1.864-1.276-1.227 0-1.521 0.295-1.865 1.325l-3.483 9.813a1.358 1.358 0 0 0-0.147 0.638c0 0.687 0.49 1.128 1.275 1.128 0.638 1e-3 1.03-0.294 1.227-0.931zm19.725-9.569h2.404c2.158 0 3.14 1.276 3.14 4.073 0 2.846-1.03 4.024-3.435 4.024h-2.109zm-0.981 10.354h2.698c1.815 0 3.189-0.098 4.416-1.08 1.325-1.08 2.061-2.846 2.061-5.201 0-4.269-1.913-6.33-5.789-6.33h-3.386c-1.276 0-1.57 0.589-1.57 2.012v8.636c-1e-3 1.423 0.293 1.963 1.57 1.963zm19.479-12.758c0.834 0 1.275 0.442 1.275 1.374v10.157c0 0.932-0.441 1.374-1.275 1.374-0.883 0-1.325-0.442-1.325-1.374v-10.157c0-0.932 0.442-1.374 1.325-1.374zm16.438 2.11c2.208 0 3.533 1.57 3.533 4.367s-1.325 4.367-3.533 4.367c-2.159 0-3.483-1.57-3.483-4.367s1.323-4.367 3.483-4.367zm0-2.257c-3.778 0-6.133 2.551-6.133 6.624s2.354 6.625 6.133 6.625 6.183-2.552 6.183-6.625-2.405-6.624-6.183-6.624zm37.095 29.44c1.227-1.128 1.962-2.747 1.962-4.71 0-4.269-4.023-8.832-12.855-8.832-9.862 0-13.347 5.594-13.347 10.893 0 2.453 0.736 4.563 2.209 6.281-0.442 0.393-0.884 0.883-1.178 1.373-0.834-0.294-1.768-0.441-2.797-0.441h-3.484v-10.893c0-4.122-2.895-6.87-7.213-6.87-2.649 0-4.76 1.08-5.986 2.895-1.227-1.815-3.386-2.895-5.986-2.895-3.631 0-6.28 1.963-7.017 5.054-0.735-3.091-3.337-5.054-7.017-5.054-2.993 0-5.299 1.423-6.428 3.729-0.49-0.491-1.03-0.883-1.57-1.275-2.649-1.767-5.986-2.159-10.107-2.159h-5.104c-3.141 0-5.299 0.932-6.575 2.748-1.178-1.914-3.288-3.042-5.937-3.042h-2.797c-5.397 0-6.575 4.17-6.968 5.544-0.834-2.797-2.306-5.593-6.967-5.593h-2.797c-2.699 0-4.809 1.177-5.986 3.091-1.178-1.914-3.386-3.042-6.134-3.042-4.317 0-7.213 2.797-7.213 7.017v17.125c0 4.171 2.846 6.82 7.213 6.82 2.748 0 4.956-1.128 6.134-3.091 1.129 1.963 3.141 3.091 5.79 3.091 2.061 0 3.778-0.638 5.005-1.864 0.981 1.079 2.551 1.864 4.907 1.864 2.453 0 4.023-0.785 5.004-1.864 1.178 1.227 2.944 1.864 5.005 1.864 2.502 0 4.465-1.03 5.594-2.797 1.275 1.767 3.336 2.895 5.986 2.895 4.367 0 7.164-2.698 7.164-6.869v-0.735h0.589c3.876 0 6.968-0.933 9.127-2.649 0.883 6.525 6.133 10.5 14.131 10.5 5.496 0 9.716-1.914 12.071-5.25 0.785 2.943 3.238 4.612 6.869 4.612h10.746c2.158 0 3.926-0.736 5.103-2.012 2.11 1.619 5.251 2.649 9.52 2.649 8.733 0 13.936-4.27 13.936-11.384-1e-3 -2.749-0.836-4.909-2.602-6.724z" clip-rule="evenodd" fill="#1a3b73" fill-rule="evenodd"/>
 <path id="c" d="m54.405 44.759c-2.453 0-3.778-1.178-3.778-3.386v-17.124c0-2.257 1.374-3.582 3.778-3.582 2.454 0 3.778 1.227 3.778 3.435v17.124c1e-3 2.258-1.373 3.533-3.778 3.533zm11.924 0c-2.11 0-3.239-1.178-3.239-3.483v-17.42c0-2.11 1.178-3.238 3.435-3.238h2.797c2.306 0 3.042 0.834 3.729 3.288l2.454 8.783c0.098 0.343 0.393 1.521 0.785 3.435 0.246-1.374 0.491-2.502 0.736-3.386l2.551-8.979c0.638-2.257 1.57-3.091 3.68-3.091h2.797c2.257 0 3.435 1.128 3.435 3.287v17.321c0 2.306-1.128 3.483-3.238 3.483-2.257 0-3.533-1.178-3.533-3.386v-8.488c0-0.442 0.049-1.767 0.098-4.122-0.392 1.815-0.736 3.189-0.981 4.171l-2.453 9.765c-0.393 1.521-1.325 2.061-3.14 2.061-1.767 0-2.601-0.491-2.993-2.061l-2.502-9.47c-0.294-1.276-0.589-2.748-0.933-4.466 0.049 0.981 0.049 1.864 0.049 2.503v10.107c-1e-3 2.208-1.277 3.386-3.534 3.386zm35.231-18.057h2.404c2.649 0 3.926 0.294 3.926 2.453 0 2.012-1.276 2.355-3.926 2.355h-2.404zm0 10.55h4.023c6.33 0 9.52-2.699 9.52-8.097 0-2.993-1.08-5.152-3.238-6.624-1.914-1.275-4.613-1.57-8.194-1.57h-5.105c-3.386 0-4.515 1.08-4.515 4.367v15.947c0 2.257 1.374 3.581 3.778 3.581 2.454 0 3.729-1.177 3.729-3.435v-4.169zm16.486-13.003c0-2.257 1.374-3.582 3.729-3.582 2.453 0 3.827 1.227 3.827 3.435v11.334c0 2.503 0.785 3.632 3.238 3.632 2.355 0 3.189-1.129 3.189-3.632v-11.334c0-2.208 1.325-3.435 3.778-3.435 2.355 0 3.778 1.324 3.778 3.582v11.777c0 5.789-3.925 9.077-10.746 9.077-6.869 0-10.795-3.288-10.795-9.077v-11.777zm40.432 14.18c2.207 0 3.336 1.08 3.336 3.141 0 1.864-1.129 2.895-3.287 2.895h-10.746c-2.552 0-3.729-1.079-3.729-3.435v-16.781c0-2.257 1.374-3.582 3.729-3.582 2.453 0 3.778 1.227 3.778 3.435v14.327zm8.244-2.453c1.668 0 2.453 1.08 3.435 2.062 1.03 0.98 1.815 1.472 3.435 1.472 1.718 0 2.748-0.688 2.748-1.767 0-1.473-1.718-1.668-4.416-2.502-2.993-0.884-4.907-1.669-5.79-2.355-1.668-1.374-2.453-2.944-2.453-5.104 0-4.661 3.483-7.458 9.911-7.458 5.839 0 9.421 2.502 9.421 5.397 0 1.766-1.079 2.846-3.042 2.846-1.767 0-2.503-1.03-3.582-1.914-0.883-0.687-1.864-1.079-2.895-1.079-1.57 0-2.454 0.588-2.454 1.57 0 1.275 1.178 1.57 3.337 2.257 2.944 0.884 5.201 1.473 6.624 2.503 1.864 1.423 2.65 2.944 2.65 5.25 0 5.103-3.582 7.949-10.501 7.949-6.134 0-9.568-2.552-9.568-5.839-1e-3 -1.914 1.274-3.288 3.14-3.288z" clip-rule="evenodd" fill="#fff" fill-rule="evenodd"/>
 <path id="d" d="m33.503 30.039 0.638-1.374a85.899 85.899 0 0 1 1.717-3.877c0.344-0.393 1.668-1.03 2.355-1.374 0.687-0.294 1.423-0.638 2.061-1.031 5.152-3.189 5.496-5.691 5.594-6.477 0.196-1.57-0.392-3.042-1.57-3.975-1.668-1.325-3.974-1.276-7.36 0.049a5.79 5.79 0 0 0-0.687 0.246c0.883-1.668 1.178-3.68 0.785-5.986-0.343-1.865-1.374-3.435-2.993-4.563-2.11-1.472-5.103-2.012-7.998-1.472-2.306 0.393-4.367 1.865-5.692 3.974-1.325 2.062-1.815 4.417-1.276 6.477a7.64 7.64 0 0 0 2.355 3.925c-2.895-0.049-5.888-0.441-8.292-0.883-3.484-0.638-4.907 1.57-5.299 2.257-1.374 2.601 0.196 5.741 1.521 7.066 1.472 1.521 5.839 2.846 8.489 3.484-0.294 0.687-0.638 1.472-0.981 2.307a108.5 108.5 0 0 1-1.668 3.925c-1.128 2.552-4.072 3.827-5.593 4.515-0.344 0.146-0.589 0.245-0.834 0.393-1.178 0.539-7.752 4.514-8.636 8.145-0.393 1.669 0.049 3.337 1.276 4.465 1.57 1.521 4.219 1.914 7.164 1.031 0.54-0.147 1.08-0.344 1.668-0.54 2.649-0.933 6.673-2.306 13.739-2.208 6.624 0.098 10.206 1.374 12.365 2.109 0.736 0.295 1.325 0.491 1.914 0.589 2.404 0.491 4.514-0.539 5.397-2.601 0.981-2.306 0-5.544-2.061-6.967-2.11-1.473-6.625-3.828-8.096-4.466-1.521-0.687-1.619-1.325-1.57-2.158 0.046-1.03 0.979-3.632 1.568-5.005z" clip-rule="evenodd" fill="#1a3b73" fill-rule="evenodd"/>
 <path id="e" d="m30.362 28.615c-0.491 1.129-1.767 4.416-1.864 6.33-0.049 1.864 0.54 4.023 3.631 5.397 1.423 0.638 5.692 2.895 7.507 4.121 1.03 0.736 1.766 3.926-0.687 3.436-1.668-0.344-5.741-2.65-14.917-2.797-9.225-0.099-13.837 2.158-16.389 2.895-2.6 0.736-4.514 0.147-4.17-1.374s4.514-4.809 6.821-5.937c1.374-0.688 6.084-2.258 8.047-6.526 0.981-2.208 2.797-6.673 3.582-8.292 0.736-1.619-0.344-2.257-1.718-2.404-1.374-0.098-7.409-1.865-8.391-2.846-0.981-1.031-2.061-4.024 0.688-3.533 1.521 0.245 8.636 1.472 14.082 0.736 3.435-0.491 9.716-1.865 11.58-2.649 1.914-0.736 4.515-1.374 4.269 0.245-0.147 1.374-2.354 3.042-3.974 4.023-1.619 1.03-4.759 1.914-5.643 3.778-0.932 1.914-1.914 4.269-2.454 5.397zm3.288-21.736c0.441 2.551-0.098 5.299-4.612 6.182-4.465 0.883-6.133-1.325-6.624-3.238-0.589-2.306 1.325-5.692 4.22-6.231 2.943-0.54 6.525 0.392 7.016 3.287z" clip-rule="evenodd" fill="#eebd31" fill-rule="evenodd"/>
</svg>
