<svg height="574.37225pt" viewBox="0 0 573.90003 574.37225" width="573.90002pt" xmlns="http://www.w3.org/2000/svg"><g transform="translate(-58.12 -58.86)"><path d="m565.92 58.86.1 269.37-27.58 8.13-.16-168.85-15.55 16.59-7.68-50.06z"/><path d="m417.57 61.84c5.2-1.11 10.83-.6 15.48 2.1 8.68 4.82 14.37 13.41 18.95 21.95 11.48 22.82 16.4 48.29 18.76 73.54 1.86 21.12 2.16 42.36 1.08 63.53-1.25 24.4-4.51 48.92-12.46 72.11-3.87 10.92-8.57 21.75-15.69 30.98-4.98 6.04-11.5 11.83-19.69 12.36-9.03.59-16.99-5.32-22.3-12.11-10.43-13.34-16.33-29.59-20.36-45.87-6.43-25.28-8.63-51.44-8.95-77.46-.2-29.73 2.15-59.71 9.88-88.53 3.76-14.18 9.07-28.28 18.11-40 4.32-5.74 10.11-10.75 17.19-12.6m1.79 78.6c-7.08 3.33-9.8 11.51-11.93 18.47-3.61 13.05-4.32 26.67-4.45 40.14.19 14.4.94 29.01 5.14 42.88 1.88 5.55 4.2 11.46 9.06 15.07 3.29 2.54 8.25 2.46 11.41-.27 4.47-3.71 6.69-9.33 8.41-14.71 4.31-14.6 4.89-29.95 5-45.06-.44-15.99-1.09-32.6-7.69-47.44-2.53-5.5-8.28-11.93-14.95-9.08z"/><path d="m332.5 71.42c10.02-2 20.11-3.61 30.09-5.81.12 87.51.08 175.02.02 262.52-9.92 2.73-20.1 4.54-30.08 7.1.02-87.94.1-175.87-.03-263.81z"/><path d="m61.79 68c12.43-.01 24.86.01 37.3-.01 6.6-.05 13.17 2.45 17.96 7.01 5.56 5.32 9.02 12.43 11.54 19.61 3.8 11.41 5.42 23.45 6.09 35.43 1.02 13.65.51 27.38-.74 41-1.56 14.89-4.62 30.13-12.93 42.83 4.98 34.48 10.55 68.89 15.62 103.36.38-1.71.71-3.43.9-5.17 10.04-81.36 20.38-162.69 30.39-244.05 12.1-.03 24.2-.01 36.29-.01 10.47 86.38 20.74 172.78 31.22 259.15-10.91 2.95-21.75 6.16-32.66 9.13-1.69-15.95-3.15-31.94-4.92-47.88-8.26.07-16.51.06-24.77 0-1.87 16.34-3.3 32.73-4.94 49.09-10.67-3.11-21.44-5.89-32.07-9.15-.24-.31-.74-.94-.99-1.25-9.51 3.35-18.92 6.98-28.41 10.41l-14.18-112.7-.6 105.91c-10.06 2.14-20.08 4.54-30.12 6.8.02-89.83-.01-179.67.02-269.51m30.26 71.47c-.1 20.9-.03 41.8-.04 62.71 3.13-.25 6.17-1.73 7.74-4.55 4.53-7.31 4.89-16.27 5.24-24.62.02-9.26-.07-19.04-4.34-27.49-1.6-3.42-4.93-5.53-8.6-6.05m86.25 83.18 13.68-.03-6.53-76.75zm-41.75 97.23c-.18 2.15-.35 4.31-.58 6.46.47-.1 1.41-.31 1.87-.42-.27-2.05-.63-4.08-1.29-6.04z"/><path d="m240.3 68.05c11.92-.11 23.85-.04 35.78-.05 8.75.06 16.25 5.82 21.27 12.58 8.38 11.79 13.41 25.58 17 39.5 5.08 20.26 7.46 41.13 8.23 61.98 1 21.66.11 43.42-2.46 64.96-2.6 19.8-6.52 39.74-15.08 57.92-4.06 8.17-8.74 16.57-16.53 21.76-3.67 2.44-8 3.96-12.43 3.94-11.92.06-23.85-.03-35.77.04.06-87.54.08-175.09-.01-262.63m30.69 77.24c.03 35.95-.01 71.9.02 107.85 5.3.08 9.93-3.29 12.59-7.68 5.08-8.19 6.58-17.93 7.78-27.32.8-8.97 1.28-17.99.83-26.99-.75-12.46-1.56-25.54-7.62-36.74-2.63-5.11-7.66-9.1-13.6-9.12z"/><path d="m599.34 83.5c10.89-3.8 21.79-7.61 32.65-11.51.01 3.55.06 7.11-.09 10.66-1.42.35-2.82.7-4.22 1.06-.03 3.46-.06 6.93.03 10.39 1.43.32 2.85.66 4.29 1 0 3.59.02 7.18-.08 10.77-10.84-3.83-21.65-7.72-32.53-11.41-.07-3.65-.05-7.31-.05-10.96m10.68 5.38c3.54 1.17 7.16 2.09 10.75 3.08.01-2.03 0-4.07.02-6.1-3.62.92-7.17 2.04-10.77 3.02z"/><path d="m599.32 200.28c10.87.12 21.75.08 32.63.02.07 3.45.05 6.9.05 10.35-4.19-.01-8.37.04-12.56 0 0 3.23-.01 6.47.03 9.72 4.16-.05 8.32.01 12.48-.06.07 3.56.05 7.13.05 10.69-10.9-.04-21.8.09-32.69-.07.05-3.54.04-7.09 0-10.63 3.67.07 7.35.05 11.03.03-.01-3.23-.02-6.45 0-9.67-3.68-.01-7.36 0-11.03-.01.04-3.46.05-6.91.01-10.37z"/><path d="m599.27024 336.94203c10.85011-3.89198 21.82295-7.7008 32.71976-11.47203.01 3.55.01 7.11 0 10.67-1.44.37-2.89.76-4.32 1.14-.03 3.4-.02 6.79-.04 10.19 1.45.45 2.92.89 4.39 1.35-.03 3.55-.03 7.09-.03 10.64-10.88-3.96-21.81-7.77-32.68-11.73m10.68-5.36c3.58 1.08 7.19 2.08 10.77 3.18.01-2.09.01-4.19-.03-6.27-3.56 1.1-7.19 1.97-10.74 3.09z"/><path d="m616.78 457.16c2.27-6.71 10.48-2.84 15.22-5.73-.02 3.72.05 7.44-.09 11.16-3.31.69-6.96-.24-10.07 1.19-1.65 2.32-1.11 5.3-1.21 7.97 3.79.04 7.58.03 11.37.03v10.44c-10.87.04-21.74-.09-32.61.06-.06-6.1-.1-12.2-.01-18.3.23-3.26.6-7.02 3.22-9.32 4.42-3.12 11.23-2.27 14.18 2.5m-9.36 14.61h5.93s.0116-3.39381.0174-5.09072c.007-2.14312-.83805-4.69666-3.4474-4.41928-2.17274.23097-2.58627 2.57668-2.56328 4.42386.0211 1.69538.0633 5.08614.0633 5.08614z"/><path d="m604.46 579.38c5.02-2.88 12.68-2.05 15.85 3.19 2.37 4.26 1.83 9.31 1.93 14 3.25-.02 6.5-.01 9.76-.01v10.66c-10.86.03-21.72-.06-32.58.04-.11-5.75-.14-11.51-.01-17.25.05-4.01 1.36-8.5 5.05-10.63m2.93513 12.80714.0149 4.38286c2.19-.02 4.38-.01 6.58.02-.0267-1.4645.00016-2.94241-.10766-4.40383-.0157-2.17884-1.04119-4.03073-3.20608-4.02958-2.45508-.0527-3.18721 2.07161-3.28113 4.03055z"/></g><path d="m0 294.01c170.27.04 340.54-.0203 510.82.0197l-.1 271.5903c-10.32 2.74-20.16 7.47-30.85 8.68-5.07.6-9.29-2.66-13.31-5.22-4.67-3.09-9.29-6.28-13.8-9.6-4.53-3.15-5.15-10.28-10.85-11.99-4.46-1.94-8.83.87-12.4 3.3-3.02 2.33-6.99 1.97-10.56 1.87-14.46-.95-28.87-4.81-41.43-12.15-3.95-1.84-4.1-7.72-8.69-8.62-10.07-2.61-20.51-3.91-30.92-3.41-5.24.27-10.64-.44-15.74 1.12-5.52 2.87-8.29 9.5-14.34 11.54-5.95 1.12-12.04-.01-18-.43-4.67-.3-7.71 4.02-11.94 5.02-6.83.25-11.15-7.12-17.96-7.15-3.44-.45-7.78.86-10.25-2.3-2.84-3.45-5.15-7.56-9.21-9.76-7.54-4.24-16.49-3-24.68-2.02-7.66.1-15.85 1.37-22.98-2.16-3.38-5.49-10.52-4.23-15.97-5.26-5.82-1.29-8.52-7.31-10.98-12.12-3.48-6.99-6.35-15.49-13.83-19.18-6.14-2.8-12.27 1.11-18.11 2.71-5.11 1.16-8.36-3.95-12.9-5.03-8.65-1.26-17.14 1.82-25.79 1-5.79 5.73-10.98 13.29-19.48 15.03-4.24 1-7.22-2.53-9.71-5.32-2.22-2.67-5.77-3.32-8.91-4.33-4.32-1.2-8.65-2.72-13.2-2.61-6.03-.28-11.87 2-17.92 1.31-9.35-.4-17.13025-6.25-25.98025-8.48v-186.03025" fill="#ce000c"/><path d="m94.7878 305.37503c-5.39735.0276-10.78914.9885-15.83789 2.89599-13.65954 4.96359-24.50931 16.0545-30.77197 29.01856-.86529 1.79227-1.62346 3.18996-2.81104 5.94434-4.91459 11.58513-6.83778 24.49392-4.48681 36.92724 1.92 9.61 7.01951 19.0694 15.49951 24.3794 7.7 4.92 17.99051 5.95939 26.27051 1.87939-8.67 11.71998-17.47047 23.40005-27.48047 34.04003-3.42 3.31002-7.86891 5.83085-9.87891 10.36085.82 1.74 1.6592 3.62011 3.4292 4.62011 7.94 5.17001 17.96017 6.4701 27.18018 4.8501 7.39-1.35 13.03981-6.80998 17.81982-12.22998 13.73-16.04999 25.24046-34.11106 33.48047-53.58105 7.38999-18.3 11.81944-38.76983 7.18945-58.31982-2.48-10.96001-9.28925-21.16981-19.46924-26.29981-6.24375-3.015-13.19336-4.5209-20.13281-4.48535zm102.22705.8833c-2.73329.0411-5.38731.5165-7.1748 2.82275-6.11001 7.5-11.84025 15.30885-18.24024 22.56885-3.06 3.95-7.04007 7.16074-9.58008 11.51074-1.26 2.06-1.29914 5.49045 1.13086 6.71045 4.02999 2.02 8.07929 3.98967 12.0293 6.15967-6.51 25.33-12.85994 50.69971-18.68994 76.19971-1.05999 4.23-1.50003 8.57063-2.02002 12.89062-.42 3.77 2.28957 7.26942 5.80957 8.39942 6.26999 2.16 13.05056 1.91935 19.58057 2.33935 3.35001.48 6.85025-1.28867 8.26025-4.38868 2.80002-5.73 3.85936-12.07998 5.33935-18.22998 3.77001-16.65 7.43063-33.33066 11.39063-49.93065 5.64-21.68 11.01949-43.44065 16.47949-65.16065.3-2.54-.81975-5.07898-2.75976-6.70899-4.47-4.11999-10.83973-5.19033-16.71973-5.09033-1.52625.015-3.19547-.11695-4.83545-.0923zm-104.91503 29.67334c1.75194.0435 3.48105.49998 5.01855 1.44873 3.85 2.44 5.61 7.04993 6 11.41992.46 9.69-.60909 19.69981-4.80909 28.54981-1.68999 3.81999-3.99113 7.31034-6.16113 10.86035.48-4.4-.0897-9.74008-3.90966-12.58008-1.67754-1.38338-3.80334-1.36977-5.86084-1.49707-1.16921.0623-2.02238-.38841-2.90918-.95215-4.20138-2.91903-6.12753-8.44356-5.80957-13.43994.72-7.87 3.89053-16.0002 10.29052-20.9502 2.25-1.85625 5.23047-2.93183 8.1504-2.85937zm385.80028 80.88867c-5.04998-.07-7.45002 4.96098-9.52002 8.75097-4.92 9.87999-9.38073 19.9788-13.99072 30.00879-1.11 2.30001-1.94945 4.8-3.66944 6.75-.52-6.09.88976-12.10016.73975-18.18017-.01-6.64999.63988-13.31971.10987-19.94971-.24-2.94-3.50977-3.79952-5.75977-4.76953-4.51999-1.98999-9.59044-2.65074-14.44043-1.76074-3.37001 1.91999-4.25933 5.98105-5.56934 9.33105-6.39 18.49-12.43054 37.10951-17.56054 55.99952-.42 2.40999-1.9592 5.54026.3208 7.51025 4.08 2.68001 9.21047 3.18036 13.98047 3.13037 1.72-1.26 2.009-3.54088 2.729-5.40088 4.55-14.94 7.06043-30.43948 12.19043-45.20947-1.05 12.64999-1.75014 25.33002-2.14014 38.02002.14001 3-.81013 6.58995 1.60986 8.93994 3.56001 2.82 8.40968 4.62055 12.90968 3.08056 3.05999-.78 4.44021-3.88118 5.72021-6.45117 6.82999-14.45001 14.30066-28.65891 19.93068-43.62891-.75 15.18-5.05052 29.97943-6.02053 45.14942.16001 1.45001.71062 2.82022 1.12061 4.22022 4.44 1.53 9.44965 1.79012 13.88965.12011 3.99001-2.31999 2.63947-7.53006 3.20948-11.31006 2.65-17.22 3.18989-34.66087 5.6499-51.90088.21999-3.21999.76104-7.11003-1.91895-9.52002-1.69606-1.26338-3.60913-1.83114-5.61007-2.05292zm-65.24268 1.72119c-.25077-.008-.50357-.005-.75732.009-11.16.12-22.3302-.2092-33.47022.3208-4.71999.91999-5.21964 6.44926-6.38964 10.23926-.24 2.43-1.96969 5.73044.0703 7.69043 1.99999.20001 4.01955.0596 6.03955.0395-.87 3.87-1.67943 7.77029-2.91943 11.55029-3.79001-.22-6.81119 3.08045-6.97119 6.71045l-1.74902 9.8789c.43999 1.86 2.61932 1.73989 4.06933 2.12989-.94001 5.79-2.60913 11.41104-4.11914 17.06103-.60999 2.64-.93077 6.08901 1.46923 7.97901 4.21002 2.16 9.11992 1.36031 13.66993 1.57031 1.1-1.18001 2.38046-2.34024 2.73047-3.99024 2.01999-7.69999 4.29975-15.34968 5.75976-23.17968 5.81001.24999 11.63968-.16937 17.40967-.83936 3.94001-1.98 2.70047-6.99024 3.48047-10.51025.58001-2.59 1.70947-6.87077-2.04053-7.53076-4.66999-.31-9.35027-.0691-14.03027-.0791.64-3.61001 1.44069-7.18068 2.45068-10.70069 4.52001-.04 9.06056.17014 13.58057-.10986 1.61.22 2.84909-.98992 3.30908-2.41992 1.81001-4.73001 4.04002-9.48945 3.52002-14.68946-1.67125-.53374-3.35683-1.07608-5.11231-1.12939zm-185.08593 18.61816c-3.36814.009-6.68764 1.04018-9.2417 3.25049-6.87 5.20999-9.22011 16.94034-2.37012 23.09034-1.84796 6.74421-4.62045 13.30988-5.68401 20.24363-.11554.85593-.21985 1.62004-.31736 2.37501-.15559.99742.40802 1.14218 1.28088 1.53662 1.99712.88934 4.17995 1.68954 6.11063.17432 5.76999-3.87999 10.37028-9.30938 14.78028-14.62939 5.7-7.38 11.84001-16.18002 10.27002-26.02002-1.79157-6.33281-8.39853-10.03886-14.82862-10.021z" fill="#fff"/><path d="m329.70772 305.40433c-5.39735.0276-10.78914.9885-15.83789 2.89599-13.65954 4.96359-24.50931 16.0545-30.77197 29.01856-.86529 1.79227-1.62346 3.18996-2.81104 5.94434-4.91459 11.58513-6.83778 24.49392-4.48681 36.92724 1.92 9.61 7.01951 19.0694 15.49951 24.3794 7.7 4.92 17.99051 5.95939 26.27051 1.87939-8.67 11.71998-17.47047 23.40005-27.48047 34.04003-3.42 3.31002-7.86891 5.83085-9.87891 10.36085.82 1.74 1.6592 3.62011 3.4292 4.62011 7.94 5.17001 17.96017 6.4701 27.18018 4.8501 7.39-1.35 13.03981-6.80998 17.81982-12.22998 13.73-16.04999 25.24046-34.11106 33.48047-53.58105 7.38999-18.3 11.81944-38.76983 7.18945-58.31982-2.48-10.96001-9.28925-21.16981-19.46924-26.29981-6.24375-3.015-13.19336-4.5209-20.13281-4.48535zm-2.68798 30.55664c1.75194.0435 3.48105.49998 5.01855 1.44873 3.85 2.44 5.61 7.04993 6 11.41992.46 9.69-.60909 19.69981-4.80909 28.54981-1.68999 3.81999-3.99113 7.31034-6.16113 10.86035.48-4.4-.0897-9.74008-3.90966-12.58008-1.67754-1.38338-3.80334-1.36977-5.86084-1.49707-1.16921.0623-2.02238-.38841-2.90918-.95215-4.20138-2.91903-6.12753-8.44356-5.80957-13.43994.72-7.87 3.89053-16.0002 10.29052-20.9502 2.25-1.85625 5.23047-2.93183 8.1504-2.85937z" fill="#fff"/></svg>