<?xml version="1.0" encoding="UTF-8"?>
<!-- Generator: Adobe Illustrator 16.0.0, SVG Export Plug-In . SVG Version: 6.00 Build 0)  -->
<svg id="Layer_1" width="334.09" height="50.339" enable-background="new 0 0 841.89 595.275" version="1.1" viewBox="0 0 334.09 50.339" xml:space="preserve" xmlns="http://www.w3.org/2000/svg" xmlns:cc="http://creativecommons.org/ns#" xmlns:dc="http://purl.org/dc/elements/1.1/" xmlns:rdf="http://www.w3.org/1999/02/22-rdf-syntax-ns#"><metadata id="metadata266"><rdf:RDF><cc:Work rdf:about=""><dc:format>image/svg+xml</dc:format><dc:type rdf:resource="http://purl.org/dc/dcmitype/StillImage"/><dc:title/></cc:Work></rdf:RDF></metadata><g id="g249" transform="translate(-254.72 -273.7)"><path id="path235" d="m261.74 296.82c3.867 0 7.015-3.147 7.015-7.013 0-3.871-3.147-7.018-7.015-7.018-3.87 0-7.017 3.147-7.017 7.018 0 3.866 3.147 7.013 7.017 7.013"/><path id="path237" d="m261.74 319.33c3.867 0 7.015-3.146 7.015-7.014 0-3.869-3.147-7.02-7.015-7.02-3.87 0-7.017 3.15-7.017 7.02 0 3.869 3.147 7.014 7.017 7.014"/><path id="path239" d="m306.82 303.27 7.145 14.618c0.109 0.218 0.218 0.493 0.218 0.769 0 0.824-0.659 1.593-1.593 1.593-0.824 0-1.209-0.329-1.539-0.934l-7.749-15.772h-13.573v15.059c0 0.934-0.66 1.647-1.648 1.647-0.936 0-1.65-0.714-1.65-1.647v-33.742c0-0.934 0.77-1.649 1.65-1.649h15.77c7.255 0 11.267 4.342 11.267 10.166 1e-3 5-2.912 8.901-8.298 9.892m-2.308-17.091h-14.782v14.397h14.782c4.561 0 7.31-3.021 7.31-7.2 0-4.175-2.749-7.197-7.31-7.197"/><path id="path241" d="m360.56 318c0.111 0.221 0.22 0.494 0.22 0.77 0 0.824-0.603 1.483-1.592 1.483-0.825 0-1.265-0.493-1.485-1.042l-4.506-10.059h-18.905l-4.505 10.059c-0.22 0.549-0.66 1.042-1.484 1.042-0.988 0-1.595-0.659-1.595-1.483 0-0.275 0.111-0.549 0.222-0.77l15.276-34.125c0.33-0.715 0.769-1.099 1.539-1.099 0.769 0 1.209 0.384 1.538 1.099zm-8.626-11.76-8.189-18.848-8.188 18.848zm-6.266-31.873c0.273-0.33 0.769-0.66 1.319-0.66 0.824 0 1.375 0.66 1.375 1.265 0 0.494-0.112 0.714-0.441 1.099l-3.021 3.244c-0.494 0.55-0.825 0.768-1.319 0.768-0.77 0-1.375-0.603-1.375-1.263 0-0.385 0.165-0.714 0.44-1.045z"/><path id="path243" d="m386.22 319.81h-10.442c-0.989 0-1.648-0.77-1.648-1.649v-33.301c0-0.934 0.715-1.649 1.648-1.649h10.442c11.1 0 18.245 8.078 18.245 18.3 0 10.22-7.145 18.299-18.245 18.299m-0.22-33.632h-8.572v30.664h8.572c9.562 0 15.167-6.704 15.167-15.332s-5.605-15.332-15.167-15.332"/><path id="path245" d="m419.57 320.25c-0.934 0-1.649-0.715-1.649-1.649v-34.18c0-0.936 0.715-1.65 1.649-1.65s1.649 0.714 1.649 1.65v34.18c0 0.934-0.716 1.649-1.649 1.649"/><path id="path247" d="m453.53 320.47c-10.989 0-18.465-8.739-18.465-18.958 0-10.222 7.476-18.961 18.465-18.961 10.99 0 18.355 8.739 18.355 18.961 1e-3 10.218-7.364 18.958-18.355 18.958m0-35.006c-9.453 0-15.168 7.638-15.168 16.048 0 8.407 5.715 16.045 15.168 16.045 9.452 0 15.058-7.638 15.058-16.045 0-8.41-5.606-16.048-15.058-16.048"/></g><g id="g257" transform="translate(-254.72 -273.7)" fill="#ed1c24"><rect id="rect251" x="480.17" y="320.52" width="24.949" height="3.518"/><path id="path253" d="m538.42 289.53h-16.762v8.573h9.342c1.705 0 3.078 1.427 3.078 3.187 0 1.759-1.373 3.133-3.078 3.133h-9.342v12.475c0 1.867-1.481 3.351-3.352 3.351-1.867 0-3.35-1.483-3.35-3.351v-30.336c0-1.869 1.482-3.352 3.35-3.352h20.113c1.759 0 3.133 1.374 3.133 3.133 1e-3 1.759-1.429 3.187-3.132 3.187"/><path id="path255" d="m585.62 320.25c-1.759 0-3.132-1.43-3.132-3.133v-18.3l-9.344 19.674c-0.548 1.153-1.537 1.759-2.746 1.759-1.319 0-2.143-0.55-2.748-1.759l-9.453-19.674v18.245c0 1.704-1.429 3.188-3.187 3.188-1.705 0-3.134-1.484-3.134-3.188v-31.157c0-1.704 1.32-3.133 3.134-3.133 1.482 0 2.361 0.878 2.968 1.979l12.42 25.771 12.309-25.771c0.552-1.154 1.593-1.979 2.913-1.979 1.979 0 3.188 1.319 3.188 3.187v31.16c1e-3 1.701-1.32 3.131-3.188 3.131"/></g></svg>
