<?xml version="1.0" encoding="UTF-8" standalone="no"?>
<!-- Created with Inkscape (http://www.inkscape.org/) -->

<svg
   xmlns:dc="http://purl.org/dc/elements/1.1/"
   xmlns:cc="http://creativecommons.org/ns#"
   xmlns:rdf="http://www.w3.org/1999/02/22-rdf-syntax-ns#"
   xmlns:svg="http://www.w3.org/2000/svg"
   xmlns="http://www.w3.org/2000/svg"
   xmlns:sodipodi="http://sodipodi.sourceforge.net/DTD/sodipodi-0.dtd"
   xmlns:inkscape="http://www.inkscape.org/namespaces/inkscape"
   version="1.1"
   id="svg2"
   xml:space="preserve"
   width="379.17331"
   height="99.825851"
   viewBox="0 0 379.17331 99.825852"
   sodipodi:docname="Radio Wave.svg"
   inkscape:version="0.92.0 r15299"><metadata
     id="metadata8"><rdf:RDF><cc:Work
         rdf:about=""><dc:format>image/svg+xml</dc:format><dc:type
           rdf:resource="http://purl.org/dc/dcmitype/StillImage" /><dc:title></dc:title></cc:Work></rdf:RDF></metadata><defs
     id="defs6" /><sodipodi:namedview
     pagecolor="#ffffff"
     bordercolor="#666666"
     borderopacity="1"
     objecttolerance="10"
     gridtolerance="10"
     guidetolerance="10"
     inkscape:pageopacity="0"
     inkscape:pageshadow="2"
     inkscape:window-width="716"
     inkscape:window-height="480"
     id="namedview4"
     showgrid="false"
     fit-margin-top="0"
     fit-margin-left="0"
     fit-margin-right="0"
     fit-margin-bottom="0"
     inkscape:zoom="0.56496294"
     inkscape:cx="245.66934"
     inkscape:cy="43.133181"
     inkscape:window-x="0"
     inkscape:window-y="0"
     inkscape:window-maximized="0"
     inkscape:current-layer="g10" /><g
     id="g10"
     inkscape:groupmode="layer"
     inkscape:label="-Radio_Wave-H-RGB"
     transform="matrix(1.3333333,0,0,-1.3333333,-75.590665,245.66933)"><g
       id="g12"
       transform="translate(56.693,149.2)"><path
         d="m 0,0 h 29.854 l 4.593,-7.467 H 0 Z M 0,11.667 V 4.252 h 27.237 l -4.56,7.415 z m 29.22,4.252 H 0 v 7.428 h 31.178 c 0.015,-0.291 0.023,-0.585 0.02,-0.886 -0.026,-2.764 -0.687,-4.895 -1.978,-6.542 M 14.991,35.052 H 0 v -7.453 h 30.245 c -2.185,5.092 -7.94,7.453 -15.254,7.453"
         style="fill:#cda200;fill-opacity:1;fill-rule:nonzero;stroke:none"
         id="path14"
         inkscape:connector-curvature="0" /></g><g
       id="g16"
       transform="translate(127.587,156.695)"><path
         d="m 0,0 c 1.443,1.85 1.983,4.287 1.983,6.589 0,1.58 -0.316,3.43 -0.991,4.875 -2.3,4.784 -6.582,5.461 -11.404,5.461 H -22.673 V -14.94 h 7.212 v 11.013 h 4.801 L -4.026,-14.94 H 3.96 L -3.354,-2.797 C -2.141,-2.216 -1.019,-1.34 0,0 Z m -5.184,6.544 c 0,-1.805 -0.857,-3.34 -2.525,-4.107 C -8.79,1.94 -10.458,1.94 -11.63,1.94 c -1.262,0 -2.569,0.045 -3.831,0.045 v 9.118 h 3.471 c 2.073,0 4.417,0.089 5.86,-1.716 0.631,-0.812 0.946,-1.805 0.946,-2.843 z m 25.627,-13.91 c -1.716,-2.979 -4.967,-3.025 -5.463,-3.025 -1.355,0 -3.116,0.587 -3.116,2.529 0,3.025 5.102,3.07 6.953,3.567 0.587,0.135 0.994,0.316 1.626,0.541 z m 6.594,5.42 c 0,1.896 0.091,4.605 -0.632,6.366 -1.715,4.064 -6.096,4.697 -9.979,4.697 -5.284,0 -9.664,-2.258 -9.98,-8.083 h 6.141 c -0.09,2.303 2.258,2.935 4.11,2.935 1.399,0 3.567,-0.361 3.567,-2.167 0,-1.671 -2.439,-1.761 -3.612,-1.942 -5.058,-0.722 -11.516,-1.31 -11.516,-7.947 0,-4.742 3.613,-7.541 8.129,-7.541 3.341,0 4.786,0.994 7.36,2.799 l 0.045,-2.122 6.371,0.001 z M 53.446,-14.951 V 16.925 H 46.719 V 6.902 c -1.625,1.354 -3.476,2.122 -5.598,2.122 -7.089,0 -10.295,-6.141 -10.295,-12.507 0,-5.959 3.341,-12.055 9.978,-12.055 2.393,0 4.832,0.723 6.186,2.845 v -2.258 z m -6.501,11.559 c 0,-3.071 -0.813,-6.637 -4.56,-6.637 -3.838,0 -4.786,3.657 -4.786,6.862 0,2.935 1.129,6.728 4.695,6.728 3.883,0 4.651,-3.793 4.651,-6.953 z M 64.688,8.437 h -6.5919 v -23.388 h 6.5919 z m 0,8.488 H 58.0961 V 10.9201 H 64.688 Z M 92.275,-3.167 c 0,6.999 -4.515,12.281 -11.694,12.281 -7.585,0 -12.506,-4.921 -12.506,-12.506 0,-7.179 4.56,-12.236 11.874,-12.236 7.269,0 12.326,5.237 12.326,12.461 z m -6.818,0.271 c 0,-3.476 -1.173,-7.314 -5.282,-7.314 -4.018,0 -5.283,3.702 -5.283,7.089 0,3.476 1.355,6.907 5.373,6.907 3.928,0 5.192,-3.341 5.192,-6.682 z m 52.988,19.821 -5.192,-21.356 -4.515,21.356 h -6.863 l -4.425,-21.356 -5.056,21.356 h -7.224 l 8.939,-31.876 h 6.592 l 4.606,21.582 4.515,-21.582 h 6.682 l 8.985,31.876 z m 21.041,-24.291 c -1.716,-2.979 -4.966,-3.025 -5.463,-3.025 -1.355,0 -3.115,0.587 -3.115,2.529 0,3.025 5.102,3.07 6.953,3.567 0.587,0.135 0.993,0.316 1.625,0.541 z m 6.595,5.42 c 0,1.896 0.09,4.605 -0.632,6.366 -1.716,4.064 -6.096,4.697 -9.98,4.697 -5.284,0 -9.664,-2.258 -9.98,-8.083 h 6.142 c -0.091,2.303 2.258,2.935 4.109,2.935 1.399,0 3.567,-0.361 3.567,-2.167 0,-1.671 -2.438,-1.761 -3.612,-1.942 -5.058,-0.722 -11.516,-1.31 -11.516,-7.947 0,-4.742 3.613,-7.541 8.129,-7.541 3.342,0 4.787,0.994 7.361,2.799 l 0.044,-2.122 6.371,0.001 z m 23.7,10.383 h -7.043 l -3.883,-14.493 -4.289,14.493 h -7.089 l 8.082,-23.388 h 6.366 z m 23.705,-13.635 v 1.128 c 0,7.224 -3.703,13.184 -11.514,13.184 -7.179,0 -11.829,-5.373 -11.829,-12.371 0,-7.179 4.425,-12.371 11.829,-12.371 5.147,0 9.572,2.438 11.243,7.45 l -6.683,0.451 c -0.993,-1.761 -2.302,-2.483 -4.379,-2.483 -3.07,0 -4.651,2.122 -5.057,5.012 z m -16.345,5.056 c 0.723,2.664 2.167,4.019 5.012,4.019 2.393,0 4.109,-1.671 4.334,-4.019 h -9.346"
         style="fill:#cda200;fill-opacity:1;fill-rule:nonzero;stroke:none"
         id="path18"
         inkscape:connector-curvature="0" /></g><g
       id="g20"
       transform="translate(127.587,156.695)"><path
         d="m 0,0 c 1.443,1.85 1.983,4.287 1.983,6.589 0,1.58 -0.316,3.43 -0.991,4.875 -2.3,4.784 -6.582,5.461 -11.404,5.461 H -22.673 V -14.94 h 7.212 v 11.013 h 4.801 L -4.026,-14.94 H 3.96 L -3.354,-2.797 C -2.141,-2.216 -1.019,-1.34 0,0 Z m -5.184,6.544 c 0,-1.805 -0.857,-3.34 -2.525,-4.107 C -8.79,1.94 -10.458,1.94 -11.63,1.94 c -1.262,0 -2.569,0.045 -3.831,0.045 v 9.118 h 3.471 c 2.073,0 4.417,0.089 5.86,-1.716 0.631,-0.812 0.946,-1.805 0.946,-2.843 z m 25.627,-13.91 c -1.716,-2.979 -4.967,-3.025 -5.463,-3.025 -1.355,0 -3.116,0.587 -3.116,2.529 0,3.025 5.102,3.07 6.953,3.567 0.587,0.135 0.994,0.316 1.626,0.541 z m 6.594,5.42 c 0,1.896 0.091,4.605 -0.632,6.366 -1.715,4.064 -6.096,4.697 -9.979,4.697 -5.284,0 -9.664,-2.258 -9.98,-8.083 h 6.141 c -0.09,2.303 2.258,2.935 4.11,2.935 1.399,0 3.567,-0.361 3.567,-2.167 0,-1.671 -2.439,-1.761 -3.612,-1.942 -5.058,-0.722 -11.516,-1.31 -11.516,-7.947 0,-4.742 3.613,-7.541 8.129,-7.541 3.341,0 4.786,0.994 7.36,2.799 l 0.045,-2.122 6.371,0.001 z M 53.446,-14.951 V 16.925 H 46.719 V 6.902 c -1.625,1.354 -3.476,2.122 -5.598,2.122 -7.089,0 -10.295,-6.141 -10.295,-12.507 0,-5.959 3.341,-12.055 9.978,-12.055 2.393,0 4.832,0.723 6.186,2.845 v -2.258 z m -6.501,11.559 c 0,-3.071 -0.813,-6.637 -4.56,-6.637 -3.838,0 -4.786,3.657 -4.786,6.862 0,2.935 1.129,6.728 4.695,6.728 3.883,0 4.651,-3.793 4.651,-6.953 z M 64.688,8.437 h -6.5919 v -23.388 h 6.5919 z m 0,8.488 H 58.0961 V 10.9201 H 64.688 Z M 92.275,-3.167 c 0,6.999 -4.515,12.281 -11.694,12.281 -7.585,0 -12.506,-4.921 -12.506,-12.506 0,-7.179 4.56,-12.236 11.874,-12.236 7.269,0 12.326,5.237 12.326,12.461 z m -6.818,0.271 c 0,-3.476 -1.173,-7.314 -5.282,-7.314 -4.018,0 -5.283,3.702 -5.283,7.089 0,3.476 1.355,6.907 5.373,6.907 3.928,0 5.192,-3.341 5.192,-6.682 z m 52.988,19.821 -5.192,-21.356 -4.515,21.356 h -6.863 l -4.425,-21.356 -5.056,21.356 h -7.224 l 8.939,-31.876 h 6.592 l 4.606,21.582 4.515,-21.582 h 6.682 l 8.985,31.876 z m 21.041,-24.291 c -1.716,-2.979 -4.966,-3.025 -5.463,-3.025 -1.355,0 -3.115,0.587 -3.115,2.529 0,3.025 5.102,3.07 6.953,3.567 0.587,0.135 0.993,0.316 1.625,0.541 z m 6.595,5.42 c 0,1.896 0.09,4.605 -0.632,6.366 -1.716,4.064 -6.096,4.697 -9.98,4.697 -5.284,0 -9.664,-2.258 -9.98,-8.083 h 6.142 c -0.091,2.303 2.258,2.935 4.109,2.935 1.399,0 3.567,-0.361 3.567,-2.167 0,-1.671 -2.438,-1.761 -3.612,-1.942 -5.058,-0.722 -11.516,-1.31 -11.516,-7.947 0,-4.742 3.613,-7.541 8.129,-7.541 3.342,0 4.787,0.994 7.361,2.799 l 0.044,-2.122 6.371,0.001 z m 23.7,10.383 h -7.043 l -3.883,-14.493 -4.289,14.493 h -7.089 l 8.082,-23.388 h 6.366 z m 23.705,-13.635 v 1.128 c 0,7.224 -3.703,13.184 -11.514,13.184 -7.179,0 -11.829,-5.373 -11.829,-12.371 0,-7.179 4.425,-12.371 11.829,-12.371 5.147,0 9.572,2.438 11.243,7.45 l -6.683,0.451 c -0.993,-1.761 -2.302,-2.483 -4.379,-2.483 -3.07,0 -4.651,2.122 -5.057,5.012 z m -16.345,5.056 c 0.723,2.664 2.167,4.019 5.012,4.019 2.393,0 4.109,-1.671 4.334,-4.019 h -9.346"
         style="fill:#cda200;fill-opacity:1;fill-rule:nonzero;stroke:none"
         id="path22"
         inkscape:connector-curvature="0" /></g><g
       id="g24"
       transform="translate(113.144,129.275)"><path
         d="m 0,0 h -3.686 l -1.982,2.503 h 2.9 l 0.958,-1.452 0.914,1.452 h 2.944 z m 73.765,-10.745 c 0,-1.653 -0.56,-3.478 -2.512,-3.478 -1.91,0 -2.513,1.761 -2.513,3.37 0,1.653 0.646,3.284 2.555,3.284 1.868,0 2.47,-1.588 2.47,-3.176 m 3.24,-0.129 c 0,3.326 -2.147,5.838 -5.559,5.838 -3.607,0 -5.946,-2.34 -5.946,-5.946 0,-3.414 2.169,-5.817 5.646,-5.817 3.455,0 5.859,2.49 5.859,5.925 m -12.02,2.812 v 2.875 c -0.192,0.022 -0.364,0.042 -0.558,0.042 -1.502,0 -2.34,-0.642 -2.875,-2.038 v 1.825 H 58.46 v -11.119 h 3.242 v 3.627 c 0,0.559 0,1.139 0.022,1.697 0.043,1.802 0.3,3.155 2.511,3.155 0.257,0 0.493,-0.022 0.75,-0.064 m -24.125,-8.415 -4.591,6.913 4.291,4.206 h -4.099 l -3.435,-3.799 v 7.834 h -3.155 v -15.154 h 3.155 v 3.693 l 1.03,1.031 2.791,-4.724 z m -12.619,3.413 c 0,2.792 -2.748,3.286 -4.895,3.735 -0.579,0.129 -1.888,0.279 -1.888,1.073 0,0.795 0.944,0.902 1.545,0.902 0.602,0 1.287,-0.215 1.674,-0.708 0.172,-0.215 0.236,-0.644 0.279,-0.903 l 2.963,0.152 c -0.129,2.724 -2.426,3.777 -4.873,3.777 -2.254,0 -4.636,-0.901 -4.636,-3.52 0,-4.443 6.611,-2.835 6.611,-4.831 0,-0.88 -0.901,-1.029 -1.589,-1.029 -1.416,0 -2.168,0.407 -2.361,1.847 l -3.005,-0.109 c 0,-0.364 0.021,-0.665 0.107,-1.029 0.559,-2.299 2.919,-3.092 5.045,-3.092 2.425,0 5.023,0.86 5.023,3.735 M 13.817,-9.437 H 9.373 c 0.344,1.267 1.031,1.911 2.384,1.911 1.137,0 1.952,-0.793 2.06,-1.911 m 3.326,-2.404 v 0.537 c 0,3.434 -1.76,6.268 -5.473,6.268 -3.413,0 -5.623,-2.555 -5.623,-5.881 0,-3.413 2.103,-5.882 5.623,-5.882 2.447,0 4.551,1.159 5.345,3.541 l -3.177,0.216 c -0.472,-0.839 -1.094,-1.181 -2.081,-1.181 -1.46,0 -2.212,1.009 -2.405,2.382 z m -11.783,0.43 -3.541,0.235 c -0.022,-1.717 -1.632,-2.789 -3.241,-2.789 -0.859,0 -1.675,0.278 -2.34,0.816 -1.288,1.074 -1.546,2.768 -1.546,4.336 0,2.51 1.009,5 3.886,5 1.18,0 2.232,-0.451 2.832,-1.524 0.13,-0.258 0.258,-0.516 0.323,-0.794 l 3.412,0.235 c -0.042,0.367 -0.15,0.689 -0.257,1.031 -0.901,2.683 -3.584,3.907 -6.268,3.907 -4.743,0 -7.598,-3.24 -7.598,-7.877 0,-3.178 1.503,-6.289 4.572,-7.491 0.944,-0.364 1.974,-0.492 2.984,-0.492 2.468,0 4.764,0.901 6.031,3.111 0.408,0.708 0.665,1.502 0.751,2.296 m 108.028,-1.455 c -0.535,-0.924 -1.545,-1.441 -2.598,-1.441 -0.73,0 -1.482,0.346 -1.482,1.183 0,1.438 2.298,1.459 3.306,1.717 0.258,0.064 0.516,0.149 0.774,0.258 z m 3.136,2.575 c 0,0.901 0.041,2.19 -0.302,3.027 -0.817,1.934 -2.899,2.235 -4.743,2.235 -2.513,0 -4.597,-1.074 -4.748,-3.845 h 2.922 c -0.043,1.095 1.073,1.396 1.953,1.396 0.666,0 1.698,-0.171 1.698,-1.031 0,-0.795 -1.16,-0.838 -1.719,-0.923 -2.404,-0.343 -5.475,-0.623 -5.475,-3.779 0,-2.254 1.717,-3.586 3.866,-3.586 1.587,0 2.275,0.473 3.5,1.332 l 0.021,-1.009 h 3.029 z m 11.743,-2.784 c 0,2.791 -2.746,3.285 -4.893,3.734 -0.58,0.13 -1.889,0.279 -1.889,1.073 0,0.794 0.944,0.902 1.545,0.902 0.602,0 1.287,-0.214 1.674,-0.708 0.17,-0.214 0.236,-0.644 0.279,-0.902 l 2.961,0.151 c -0.129,2.725 -2.423,3.777 -4.871,3.777 -2.254,0 -4.636,-0.901 -4.636,-3.519 0,-4.444 6.609,-2.834 6.609,-4.83 0,-0.88 -0.899,-1.032 -1.588,-1.032 -1.416,0 -2.168,0.409 -2.359,1.847 l -3.006,-0.106 c 0,-0.366 0.021,-0.666 0.107,-1.031 0.559,-2.298 2.918,-3.091 5.043,-3.091 2.426,0 5.024,0.859 5.024,3.735 m -23.803,-3.413 h -3.1543 v 15.154 h 3.1543 z m -8.5,0 v 6.224 c 0,0.708 0.043,1.568 -0.535,2.082 -0.303,0.28 -0.709,0.387 -1.117,0.387 -0.473,0 -0.858,-0.13 -1.225,-0.43 -0.752,-0.623 -0.707,-1.673 -0.707,-2.553 v -5.71 h -3.134 v 15.154 h 3.134 v -5.174 c 0.492,0.881 2.08,1.397 3.025,1.397 0.733,0 1.612,-0.195 2.211,-0.623 1.289,-0.923 1.502,-2.168 1.502,-3.65 v -7.104 z m -18.18,0 v 2.362 l 5.494,6.137 h -4.872 v 2.62 h 8.801 v -2.556 l -5.324,-5.944 h 5.689 v -2.619 z M 49.905,-0.68 h -3.784 l -1.54,-3.203 h 2.454 z m 1.33,-4.678 h -3.349 l -1.845,-7.492 -2.019,7.492 h -3.434 l 3.22,-9.014 c 0.171,-0.494 0.451,-1.053 0.451,-1.589 0,-0.365 -0.172,-0.901 -0.472,-1.139 -0.302,-0.235 -0.968,-0.278 -1.333,-0.278 -0.277,0 -0.556,0.021 -0.836,0.021 v -2.491 c 0.28,0 0.559,-0.043 0.836,-0.043 1.375,0 3.113,-0.086 4.057,1.096 0.452,0.579 0.818,1.695 1.052,2.403 l 3.672,11.034"
         style="fill:#cda200;fill-opacity:1;fill-rule:nonzero;stroke:none"
         id="path26"
         inkscape:connector-curvature="0" /></g></g></svg>