<?xml version="1.0" encoding="UTF-8" standalone="no"?>
<!-- Created with Inkscape (http://www.inkscape.org/) -->

<svg
   xmlns:dc="http://purl.org/dc/elements/1.1/"
   xmlns:cc="http://creativecommons.org/ns#"
   xmlns:rdf="http://www.w3.org/1999/02/22-rdf-syntax-ns#"
   xmlns:svg="http://www.w3.org/2000/svg"
   xmlns="http://www.w3.org/2000/svg"
   xmlns:sodipodi="http://sodipodi.sourceforge.net/DTD/sodipodi-0.dtd"
   xmlns:inkscape="http://www.inkscape.org/namespaces/inkscape"
   version="1.1"
   id="svg2"
   xml:space="preserve"
   width="512.78748"
   height="494"
   viewBox="0 0 512.78747 493.99999"
   sodipodi:docname="Radio Kiss Hady.svg"
   inkscape:version="0.92.0 r15299"><metadata
     id="metadata8"><rdf:RDF><cc:Work
         rdf:about=""><dc:format>image/svg+xml</dc:format><dc:type
           rdf:resource="http://purl.org/dc/dcmitype/StillImage" /><dc:title></dc:title></cc:Work></rdf:RDF></metadata><defs
     id="defs6"><clipPath
       clipPathUnits="userSpaceOnUse"
       id="clipPath22"><path
         d="M 0,0 H 170 V 164 H 0 Z"
         id="path20"
         inkscape:connector-curvature="0" /></clipPath><clipPath
       clipPathUnits="userSpaceOnUse"
       id="clipPath72"><path
         d="m 78,32 h 61 V 47 H 78 Z"
         id="path70"
         inkscape:connector-curvature="0" /></clipPath></defs><sodipodi:namedview
     pagecolor="#ffffff"
     bordercolor="#666666"
     borderopacity="1"
     objecttolerance="10"
     gridtolerance="10"
     guidetolerance="10"
     inkscape:pageopacity="0"
     inkscape:pageshadow="2"
     inkscape:window-width="1920"
     inkscape:window-height="1017"
     id="namedview4"
     showgrid="false"
     fit-margin-top="0"
     fit-margin-left="0"
     fit-margin-right="0"
     fit-margin-bottom="0"
     inkscape:zoom="1.0831187"
     inkscape:cx="350.67507"
     inkscape:cy="205.22463"
     inkscape:window-x="-8"
     inkscape:window-y="-8"
     inkscape:window-maximized="1"
     inkscape:current-layer="g10" /><g
     id="g10"
     inkscape:groupmode="layer"
     inkscape:label="Kiss_BeHappy"
     transform="matrix(1.3333333,0,0,-1.3333333,0,493.99866)"><g
       transform="matrix(2.2671922,0,0,2.2671922,0,-1.3205138)"
       id="g14"><g
         id="g16"><g
           clip-path="url(#clipPath22)"
           id="g18"><g
             id="g24"><path
               inkscape:connector-curvature="0"
               id="path26"
               style="fill:#231f20;fill-opacity:1;fill-rule:nonzero;stroke:none"
               d="M 14.078,138.863 V 92.383 C 8.324,73.23 0,32.199 0,32.199 c 0,0 9.973,2.024 14.078,2.727 v -11.25 l 0.063,-23.094 11.91,0.016 h 121.617 c 12.055,0 21.867,10.351 21.867,23.078 V 51.57 c 0,0 -0.051,-0.047 -0.051,-0.05 0.02,0.343 0.051,0.671 0.051,1.031 v 86.312 c 0,-0.05 0.051,12.832 0.051,12.832 L 169.633,164 H 35.703 C 23.59,162.789 14.078,151.98 14.078,138.863" /><path
               inkscape:connector-curvature="0"
               id="path28"
               style="fill:#231f20;fill-opacity:1;fill-rule:nonzero;stroke:none"
               d="m 151.59,56.738 v 74.028 c 0,2.406 0.031,9.031 0.031,9.031 0,0 -6.297,-0.027 -8.766,-0.027 h -98.41 c -4.804,0 -8.738,-4.055 -8.738,-9.004 V 57.242 Z" /><path
               inkscape:connector-curvature="0"
               id="path30"
               style="fill:#ffffff;fill-opacity:1;fill-rule:nonzero;stroke:none"
               d="m 98.047,127.906 c -0.887,-0.515 -4.445,-2.332 -8.227,-4.25 l -9.832,-5.054 0.114,-0.391 1.035,-3.824 0.504,0.172 c 0.726,0.242 2.672,0.906 3.797,1.316 -0.125,-0.359 -0.274,-0.715 -0.43,-1.07 l -0.25,-0.582 -3.555,-8.485 -0.519,-1.226 c -0.852,-1.961 -1.789,-4.121 -1.789,-6.25 0,-0.715 0.097,-1.422 0.343,-2.106 0.375,-1.066 1.262,-1.75 2.559,-1.972 3.687,-0.641 14.262,2.105 12.625,3.875 1.152,-1.246 2.828,-3.262 4.191,-4.047 2.735,-1.582 6.168,-1.68 9.434,-0.266 3.723,1.613 6.558,4.84 7.398,8.422 0.95,4.035 -0.789,7.797 -2.492,11.012 -0.449,0.847 -1.066,1.621 -1.664,2.367 -0.859,1.078 -1.672,2.098 -2.016,3.297 -0.257,0.902 -0.043,1.715 0.61,2.273 0.871,0.75 2.281,0.899 3.437,0.371 l 3.469,-1.617 4.699,6.727 -0.64,0.211 c -4.735,1.535 -16.145,4.062 -19.743,-5.731 -1.648,-4.492 1.067,-7.883 3.465,-10.875 1.125,-1.406 2.196,-2.734 2.676,-4.027 0.527,-1.379 -0.121,-2.922 -0.891,-3.903 -0.726,-0.914 -1.546,-1.429 -2.296,-1.418 -3.055,0.051 -5.329,2.708 -5.582,5.364 l -0.055,0.636 -0.609,-0.214 c -0.489,-0.172 -1.477,-0.684 -2.727,-1.325 -1.75,-0.902 -5.266,-2.718 -6.258,-2.765 0.211,1.765 4.317,11.324 6.805,17.148 2.515,5.86 3.156,7.387 3.16,7.774 v 0.867 z m 9.09,-26.246 c 1.215,1.547 1.601,3.363 1.039,4.867 -0.539,1.442 -1.656,2.828 -2.828,4.297 -2.34,2.922 -4.766,5.946 -3.305,9.906 3.062,8.344 12.223,7.036 17.848,5.321 -0.598,-0.867 -3.063,-4.371 -3.438,-4.922 -0.582,0.269 -2.723,1.266 -2.723,1.266 -1.488,0.687 -3.339,0.472 -4.492,-0.516 -0.953,-0.824 -1.289,-2.027 -0.922,-3.309 0.399,-1.39 1.309,-2.539 2.196,-3.644 0.593,-0.742 1.16,-1.453 1.558,-2.211 1.621,-3.051 3.27,-6.613 2.407,-10.317 -0.77,-3.289 -3.383,-6.253 -6.829,-7.738 -2.972,-1.285 -6.078,-1.207 -8.535,0.215 -1.402,0.809 -3.59,2.668 -4.058,4.07 l -0.25,0.762 -0.598,-0.594 c -0.602,-0.597 -8.715,-4.765 -12.449,-3.91 -0.824,0.192 -1.344,0.61 -1.582,1.285 -0.848,2.407 0.359,5.18 1.418,7.629 l 0.531,1.242 3.555,8.485 0.238,0.566 c 0.301,0.684 0.609,1.387 0.738,2.129 l 0.098,0.586 h -0.848 l -0.105,-0.051 c -0.231,-0.109 -2.387,-0.863 -3.981,-1.402 -0.168,0.629 -0.515,1.918 -0.656,2.414 0.656,0.332 9.113,4.68 9.113,4.68 2.946,1.5 5.586,2.847 7.121,3.656 -0.562,-1.399 -1.628,-3.887 -2.675,-6.324 -5.438,-12.684 -6.887,-16.493 -6.887,-17.754 0,-0.207 0.039,-0.344 0.109,-0.438 0.618,-0.886 2.438,-0.144 7.594,2.524 0.824,0.422 1.551,0.797 2.07,1.043 0.582,-2.887 2.996,-5.457 6.403,-5.614 0.937,-0.043 2.152,0.567 3.125,1.801" /><path
               inkscape:connector-curvature="0"
               id="path32"
               style="fill:#ffffff;fill-opacity:1;fill-rule:nonzero;stroke:none"
               d="m 122.793,121.078 c -1.656,-4.492 1.062,-7.879 3.465,-10.875 1.121,-1.406 2.183,-2.734 2.676,-4.027 0.515,-1.375 -0.129,-2.922 -0.903,-3.903 -0.718,-0.914 -1.66,-1.496 -2.289,-1.418 -3.054,-0.078 -5.328,2.711 -5.586,5.368 l -0.125,1.355 -0.777,-1.121 c -4.793,-6.934 -4.793,-6.934 -4.359,-7.258 l -0.122,0.293 c 0.602,-1.84 4.192,-4.707 5.52,-5.48 2.738,-1.582 6.176,-1.68 9.437,-0.266 3.719,1.617 6.555,4.844 7.391,8.426 0.957,4.031 -0.785,7.793 -2.48,11.012 -0.45,0.843 -1.071,1.621 -1.668,2.367 -0.864,1.074 -1.676,2.094 -2.02,3.297 -0.265,0.929 -0.062,1.75 0.57,2.289 0.817,0.699 2.125,0.812 3.254,0.297 l 3.762,-1.61 0.234,0.336 4.391,6.442 -0.629,0.207 c -4.742,1.535 -16.148,4.062 -19.742,-5.731 m 6.02,-19.418 c 1.218,1.543 1.613,3.363 1.046,4.867 -0.543,1.442 -1.648,2.828 -2.832,4.297 -2.343,2.922 -4.761,5.946 -3.3,9.914 3.058,8.34 12.23,7.028 17.855,5.313 -0.594,-0.867 -3.039,-4.449 -3.402,-4.988 -0.586,0.25 -2.989,1.277 -2.989,1.277 -1.476,0.676 -3.207,0.496 -4.308,-0.442 -0.942,-0.808 -1.258,-2.019 -0.887,-3.328 0.402,-1.39 1.313,-2.539 2.199,-3.644 0.594,-0.742 1.157,-1.446 1.559,-2.211 1.617,-3.051 3.273,-6.613 2.406,-10.313 -0.765,-3.289 -3.387,-6.254 -6.824,-7.742 -2.977,-1.285 -6.082,-1.207 -8.547,0.215 -1.359,0.789 -4.355,3.32 -4.988,4.754 0.515,0.797 2.219,3.285 3.605,5.297 0.774,-2.684 3.211,-5.145 6.285,-5.067 0.934,-0.117 2.157,0.571 3.122,1.801" /><path
               inkscape:connector-curvature="0"
               id="path34"
               style="fill:#ffffff;fill-opacity:1;fill-rule:nonzero;stroke:none"
               d="m 97.48,135.168 c 0,-2.535 2.063,-4.602 4.594,-4.602 2.531,0 4.594,2.067 4.594,4.602 0,2.523 -2.063,4.582 -4.594,4.582 -2.531,0 -4.594,-2.059 -4.594,-4.582 m 0.997,0 c 0,1.98 1.617,3.594 3.597,3.594 1.981,0 3.598,-1.614 3.598,-3.594 0,-1.988 -1.617,-3.598 -3.598,-3.598 -1.98,0 -3.597,1.61 -3.597,3.598" /><path
               inkscape:connector-curvature="0"
               id="path36"
               style="fill:#ffffff;fill-opacity:1;fill-rule:nonzero;stroke:none"
               d="m 93.387,151.09 -0.321,0.957 C 85.898,148.316 72.008,140.008 58.867,126.141 l -0.453,-1.918 c 13.324,14.457 27.629,23.043 34.973,26.867" /><path
               inkscape:connector-curvature="0"
               id="path38"
               style="fill:#ffffff;fill-opacity:1;fill-rule:nonzero;stroke:none"
               d="m 65.855,76.691 c -1.242,2.84 -8.562,20.012 -9.968,34.778 l -0.078,0.801 -0.676,-0.415 C 46.664,106.629 37.879,73.793 37.879,56.609 c 0,-2.453 0.191,-4.566 0.578,-6.257 -2.035,-0.422 -5.602,-1.481 -9.074,-2.512 -3.36,-1.004 -6.805,-2.024 -8.824,-2.457 1.535,13.793 20.757,78.523 38.769,106.82 0.289,-0.004 2.695,-0.015 4.824,-0.035 l 0.703,1.027 -6.066,0.039 L 58.637,153 C 40.219,124.234 20.461,57.168 19.492,44.793 l -0.051,-0.66 0.629,0.105 c 1.907,0.325 5.817,1.492 9.59,2.614 3.754,1.117 7.629,2.273 9.473,2.586 l 0.547,0.089 -0.141,0.555 c -0.445,1.641 -0.652,3.816 -0.652,6.371 0,16.246 8.246,47.754 16.117,53.992 1.777,-16.035 10.07,-34.449 10.152,-34.64 l 0.153,-0.328 0.355,0.039 c 0.07,0.004 0.215,0.023 3.934,1.836 l -0.453,0.914 c -1.489,-0.727 -2.704,-1.309 -3.29,-1.575" /><path
               inkscape:connector-curvature="0"
               id="path40"
               style="fill:#ed1c24;fill-opacity:1;fill-rule:nonzero;stroke:none"
               d="m 122.023,123.91 -4.078,-5.828 c 0,0 -2.507,1.168 -3.093,1.441 -2.403,1.102 -5.536,-0.449 -4.727,-3.238 0.625,-2.187 2.672,-3.785 3.719,-5.758 1.746,-3.297 3.34,-6.863 2.445,-10.664 -1.535,-6.55 -9.961,-11.394 -16.098,-7.843 -1.41,0.816 -3.753,2.746 -4.277,4.351 -0.582,-0.711 -13.195,-7.23 -14.875,-2.473 -1.07,3.028 0.813,6.457 1.957,9.227 1.16,2.84 2.383,5.648 3.551,8.488 0.34,0.828 0.789,1.7 0.945,2.59 h -0.144 c -0.317,-0.156 -4.543,-1.594 -4.543,-1.594 l -0.895,3.313 c 5.445,2.863 16.047,8.168 17.711,9.133 -0.004,-0.895 -10.687,-24.223 -9.941,-25.293 0.672,-0.957 8.097,3.445 9.629,3.988 0.269,-2.84 2.754,-5.645 6.019,-5.812 1.902,-0.094 4.758,3.207 3.707,5.996 -1.555,4.156 -8.453,8.242 -6.133,14.554 3.059,8.336 12.157,7.688 19.121,5.422" /><path
               inkscape:connector-curvature="0"
               id="path42"
               style="fill:#ed1c24;fill-opacity:1;fill-rule:nonzero;stroke:none"
               d="m 143.707,123.91 -4.019,-5.887 c 0,0 -2.782,1.172 -3.379,1.442 -2.399,1.105 -5.305,-0.391 -4.504,-3.18 0.629,-2.187 2.672,-3.785 3.715,-5.758 1.75,-3.297 3.339,-6.863 2.453,-10.664 -1.535,-6.55 -9.961,-11.394 -16.106,-7.84 -1.406,0.813 -4.769,3.602 -5.301,5.204 -0.578,-0.711 4.426,6.527 4.426,6.527 0.27,-2.844 2.754,-5.906 6.024,-5.816 1.824,-0.227 4.754,3.207 3.707,5.996 -1.563,4.156 -8.457,8.242 -6.137,14.554 3.059,8.336 12.148,7.688 19.121,5.422" /><path
               inkscape:connector-curvature="0"
               id="path44"
               style="fill:#ed1c24;fill-opacity:1;fill-rule:nonzero;stroke:none"
               d="m 107.492,132.746 c 0,-2.269 -1.828,-4.105 -4.094,-4.105 -2.253,0 -4.089,1.836 -4.089,4.105 0,2.254 1.836,4.09 4.089,4.09 2.266,0 4.094,-1.836 4.094,-4.09" /><path
               inkscape:connector-curvature="0"
               id="path46"
               style="fill:#ed1c24;fill-opacity:1;fill-rule:nonzero;stroke:none"
               d="M 148.359,129.895 V 58.523 H 51.598 c -4.684,0.024 -8.446,0.04 -10.903,0.051 0.371,16.965 7.985,47.664 16.02,52.469 2.656,-12.98 13.656,-32.895 13.656,-32.895 0.281,0.032 11.699,5.133 11.699,5.133 0,0.102 -17.136,22.125 -16.281,32.516 0.828,4.949 10.578,13.289 21.594,20.879 h 54.469 c 0,0 4.082,0.012 6.531,0.019 -0.008,-2.535 -0.024,-6.8 -0.024,-6.8 m -110.703,0 c 0,3.742 2.914,6.781 6.508,6.781 h 8.199 C 47.086,125.797 42.027,112.801 37.656,100.063 Z m 112.895,11.253 -8.699,-0.027 H 94.117 c 7.863,4.988 15.598,9.195 20.567,11.192 0,0.046 -12.922,-0.102 -15.348,-0.102 -0.613,-0.262 -22.152,-9.41 -41.094,-30.531 h -0.144 c 0.054,5.961 7.797,19.121 13.418,29.394 H 60.383 c -1.938,-2.926 -3.871,-6.281 -5.785,-9.953 H 44.164 c -5.973,0 -10.84,-5.039 -10.84,-11.226 V 86.844 C 27.586,68.508 23.734,52.621 23.293,47.148 c 2.086,0.344 6.129,1.098 10.031,1.817 V 29.262 c 0,-2.727 0.028,-9.324 0.028,-9.324 h 110.336 c 4.949,0 8.996,4.195 8.996,9.324 v 24.371 h 0.004 v 76.262 l 0.046,11.257 z" /><path
               inkscape:connector-curvature="0"
               id="path48"
               style="fill:#ffffff;fill-opacity:1;fill-rule:nonzero;stroke:none"
               d="m 89.898,74.289 h 1.676 c 0.364,0 0.688,0.082 0.973,0.25 0.285,0.168 0.527,0.379 0.726,0.641 0.2,0.258 0.36,0.547 0.485,0.867 0.125,0.316 0.222,0.617 0.289,0.902 0.183,0.871 0.141,1.485 -0.125,1.844 -0.266,0.363 -0.699,0.543 -1.301,0.543 H 90.949 Z M 87.773,63.992 h -3.777 l 3.75,18.129 h 6.977 c 1.281,0 2.218,-0.406 2.812,-1.219 0.59,-0.808 0.727,-1.984 0.414,-3.527 -0.234,-1.152 -0.687,-2.133 -1.351,-2.937 -0.668,-0.801 -1.633,-1.305 -2.899,-1.504 l -0.027,-0.051 c 0.199,-0.035 0.476,-0.086 0.824,-0.153 0.352,-0.066 0.684,-0.218 1,-0.453 0.317,-0.234 0.559,-0.582 0.727,-1.039 0.164,-0.461 0.164,-1.101 0,-1.922 -0.067,-0.285 -0.145,-0.687 -0.239,-1.207 -0.093,-0.519 -0.179,-1.054 -0.261,-1.605 -0.086,-0.555 -0.145,-1.063 -0.188,-1.531 -0.043,-0.469 -0.039,-0.797 0.012,-0.981 h -3.699 c -0.133,0.551 -0.145,1.129 -0.039,1.735 0.109,0.601 0.23,1.195 0.363,1.781 0.101,0.535 0.195,1.047 0.289,1.531 0.09,0.484 0.098,0.906 0.023,1.27 -0.074,0.359 -0.277,0.648 -0.613,0.863 -0.332,0.219 -0.859,0.328 -1.574,0.328 h -0.973 z" /><path
               inkscape:connector-curvature="0"
               id="path50"
               style="fill:#ffffff;fill-opacity:1;fill-rule:nonzero;stroke:none"
               d="m 104.57,70.117 c -0.433,-0.015 -0.836,-0.031 -1.211,-0.047 -0.375,-0.019 -0.714,-0.09 -1.011,-0.215 -0.301,-0.125 -0.559,-0.335 -0.778,-0.628 -0.215,-0.293 -0.382,-0.723 -0.5,-1.293 -0.05,-0.235 -0.082,-0.469 -0.097,-0.704 -0.016,-0.234 0,-0.449 0.047,-0.64 0.05,-0.192 0.152,-0.352 0.3,-0.477 0.153,-0.125 0.368,-0.187 0.653,-0.187 0.515,0 0.925,0.156 1.238,0.465 0.305,0.308 0.551,0.679 0.734,1.117 0.184,0.433 0.317,0.89 0.403,1.367 0.082,0.477 0.156,0.891 0.222,1.242 m 2.676,-3.765 c -0.082,-0.383 -0.144,-0.778 -0.187,-1.18 -0.043,-0.402 -0.079,-0.797 -0.114,-1.18 h -3.273 l 0.176,1.684 h -0.051 c -0.984,-1.289 -2.215,-1.934 -3.699,-1.934 -0.618,0 -1.114,0.11 -1.489,0.324 -0.375,0.219 -0.66,0.508 -0.847,0.868 -0.196,0.359 -0.297,0.789 -0.317,1.281 -0.015,0.492 0.035,1.015 0.153,1.57 0.215,1.055 0.57,1.875 1.062,2.461 0.488,0.586 1.07,1.016 1.735,1.293 0.668,0.274 1.398,0.441 2.191,0.5 0.789,0.059 1.594,0.082 2.41,0.063 l 0.199,0.98 c 0.051,0.27 0.086,0.516 0.102,0.742 0.016,0.227 -0.004,0.422 -0.063,0.59 -0.058,0.168 -0.175,0.297 -0.347,0.387 -0.176,0.094 -0.422,0.14 -0.742,0.14 -0.297,0 -0.547,-0.054 -0.75,-0.164 -0.2,-0.109 -0.36,-0.25 -0.485,-0.425 -0.125,-0.176 -0.226,-0.383 -0.301,-0.618 -0.074,-0.234 -0.136,-0.476 -0.187,-0.726 h -3.449 c 0.164,0.769 0.414,1.406 0.738,1.906 0.324,0.504 0.727,0.899 1.211,1.184 0.465,0.3 0.992,0.511 1.574,0.636 0.586,0.129 1.219,0.192 1.899,0.192 1.117,0 1.984,-0.113 2.601,-0.34 0.617,-0.227 1.063,-0.531 1.34,-0.918 0.273,-0.383 0.406,-0.836 0.398,-1.355 -0.007,-0.52 -0.07,-1.063 -0.187,-1.629 z" /><path
               inkscape:connector-curvature="0"
               id="path52"
               style="fill:#ffffff;fill-opacity:1;fill-rule:nonzero;stroke:none"
               d="m 114.195,65.926 c 0.301,0 0.567,0.086 0.789,0.265 0.227,0.172 0.426,0.442 0.602,0.801 0.176,0.36 0.336,0.824 0.484,1.395 0.153,0.57 0.313,1.254 0.477,2.058 0.133,0.637 0.246,1.219 0.34,1.746 0.09,0.528 0.129,0.981 0.125,1.356 -0.012,0.375 -0.09,0.668 -0.239,0.879 -0.152,0.207 -0.41,0.312 -0.777,0.312 -0.383,0 -0.695,-0.105 -0.937,-0.312 -0.243,-0.211 -0.45,-0.504 -0.625,-0.879 -0.172,-0.375 -0.321,-0.828 -0.438,-1.356 -0.113,-0.527 -0.238,-1.109 -0.375,-1.746 -0.332,-1.605 -0.48,-2.761 -0.437,-3.465 0.043,-0.703 0.379,-1.054 1.011,-1.054 m 1.203,-1.934 0.274,1.406 h -0.051 c -0.449,-0.621 -0.945,-1.05 -1.484,-1.293 -0.543,-0.242 -1.157,-0.363 -1.84,-0.363 -0.914,0 -1.567,0.227 -1.949,0.676 -0.383,0.453 -0.614,1.012 -0.688,1.684 -0.074,0.668 -0.043,1.394 0.102,2.171 0.14,0.778 0.277,1.493 0.41,2.149 0.133,0.633 0.293,1.332 0.476,2.094 0.184,0.761 0.446,1.472 0.786,2.125 0.343,0.652 0.796,1.195 1.363,1.632 0.566,0.434 1.293,0.653 2.176,0.653 0.632,0 1.152,-0.11 1.562,-0.328 0.406,-0.219 0.746,-0.594 1.012,-1.129 h 0.051 l 1.375,6.652 h 3.523 l -3.75,-18.129 z" /><path
               inkscape:connector-curvature="0"
               id="path54"
               style="fill:#ffffff;fill-opacity:1;fill-rule:nonzero;stroke:none"
               d="m 128.57,82.121 -0.574,-2.785 h -3.523 l 0.574,2.785 z m -3.75,-18.129 h -3.523 l 2.598,12.68 h 3.527 z" /><path
               inkscape:connector-curvature="0"
               id="path56"
               style="fill:#ffffff;fill-opacity:1;fill-rule:nonzero;stroke:none"
               d="m 132.598,66 c 0.316,0 0.597,0.063 0.836,0.191 0.242,0.125 0.457,0.36 0.652,0.704 0.191,0.339 0.375,0.816 0.547,1.429 0.176,0.61 0.363,1.403 0.566,2.371 0.129,0.657 0.235,1.231 0.309,1.735 0.078,0.504 0.094,0.918 0.051,1.242 -0.043,0.328 -0.153,0.574 -0.336,0.742 -0.184,0.168 -0.461,0.25 -0.825,0.25 -0.386,0 -0.699,-0.082 -0.949,-0.25 -0.25,-0.168 -0.465,-0.414 -0.64,-0.742 -0.176,-0.324 -0.329,-0.738 -0.461,-1.242 -0.133,-0.504 -0.27,-1.078 -0.399,-1.735 -0.203,-0.968 -0.344,-1.761 -0.426,-2.371 -0.085,-0.613 -0.101,-1.09 -0.05,-1.429 0.05,-0.344 0.164,-0.579 0.351,-0.704 0.18,-0.128 0.438,-0.191 0.774,-0.191 m -0.477,-2.258 c -1.133,0 -2.004,0.168 -2.613,0.5 -0.606,0.336 -1.031,0.801 -1.274,1.395 -0.242,0.593 -0.328,1.304 -0.261,2.136 0.066,0.829 0.199,1.735 0.398,2.723 0.184,0.871 0.41,1.695 0.676,2.473 0.266,0.777 0.637,1.461 1.113,2.047 0.473,0.586 1.086,1.05 1.836,1.394 0.75,0.344 1.707,0.516 2.875,0.516 1.168,0 2.055,-0.172 2.664,-0.516 0.606,-0.344 1.024,-0.808 1.25,-1.394 0.223,-0.586 0.309,-1.27 0.25,-2.047 -0.058,-0.778 -0.18,-1.602 -0.363,-2.473 -0.199,-0.988 -0.442,-1.894 -0.723,-2.723 -0.285,-0.832 -0.668,-1.543 -1.152,-2.136 -0.484,-0.594 -1.098,-1.059 -1.848,-1.395 -0.75,-0.332 -1.695,-0.5 -2.828,-0.5" /></g></g></g></g><g
       transform="matrix(0.75421475,0,0,-0.75421475,230.73904,114.3801)"
       id="#fffcfcff"
       style="fill:#ffffff;fill-opacity:1"><path
         d="m 84.9,13.5 h 4.39 l -7.68,36.88 -4.25,0.04 c 0.11,-0.7 0.34,-2.1 0.46,-2.8 -2.41,2.99 -6.53,4.16 -10.11,2.67 -3.18,-1.83 -3.05,-6.17 -2.61,-9.33 0.9,-4.83 1.44,-10.19 4.81,-14.02 3.01,-3.46 9.63,-4.35 12.28,0 L 84.9,13.5 M 74.35,28.31 c -3.51,2.76 -3.71,7.71 -4.66,11.73 -0.5,2.52 -0.86,6.57 2.4,7.3 3.52,0.88 5.94,-2.53 6.71,-5.5 1.01,-3.81 2.27,-7.77 1.76,-11.75 -0.53,-2.8 -4.18,-3.24 -6.21,-1.78 z"
         id="path9"
         style="opacity:1;fill:#ffffff;fill-opacity:1"
         inkscape:connector-curvature="0"
         sodipodi:nodetypes="cccccccccccccccc" /><path
         d="m 18.12,13.52 4.95,-0.01 -3.36,15.87 12.7,0.02 3.34,-15.91 4.87,0.03 -7.63,36.86 -4.86,0.01 3.51,-16.77 H 18.82 l -3.5,16.78 -4.83,-0.01 z"
         id="path11"
         style="opacity:1;fill:#ffffff;fill-opacity:1"
         inkscape:connector-curvature="0"
         sodipodi:nodetypes="ccccccccccccc" /><path
         d="m 51.16,20.88 6.15,-7.4 5.85,0.09 -8.31,7.24 z"
         id="path13"
         style="opacity:1;fill:#ffffff;fill-opacity:1"
         inkscape:connector-curvature="0"
         sodipodi:nodetypes="ccccc" /><path
         d="m 43.52,31.82 c 0.88,-3.64 3.46,-7.08 7.42,-7.5 3.78,-0.79 9.95,-0.43 10.24,4.62 -0.79,7.23 -3.28,14.18 -3.72,21.46 l -4.72,-0.01 c 0.28,-1.1 0.56,-2.2 0.85,-3.3 -2.46,3.35 -7,4.84 -10.88,3.17 -3.51,-2.33 -2.26,-7.35 -0.93,-10.6 2.75,-5.08 9.24,-5.37 14.33,-5.33 0.23,-2.18 1.42,-5.14 -0.84,-6.68 -3.23,-1.43 -6.49,0.98 -7.13,4.2 l -4.62,-0.03 m 3.73,7.39 c -2.05,1.43 -2.6,4.31 -1.98,6.61 0.86,2.13 3.75,1.88 5.4,0.9 3.21,-1.86 3.92,-5.86 4.77,-9.14 -2.76,0.16 -5.82,-0.08 -8.19,1.63 z"
         id="path15"
         style="opacity:1;fill:#ffffff;fill-opacity:1"
         inkscape:connector-curvature="0"
         sodipodi:nodetypes="ccccccccccccccccc" /><path
         d="m 89.86,24.48 5.08,0.06 1.78,20.94 10.46,-20.99 4.74,0.04 -19.09,35.64 h -4.49 l 5.02,-9.93 z"
         id="path17"
         style="opacity:1;fill:#ffffff;fill-opacity:1"
         inkscape:connector-curvature="0"
         sodipodi:nodetypes="ccccccccc" /></g></g></svg>