<?xml version="1.0" encoding="UTF-8" standalone="no"?>
<svg
   xmlns:dc="http://purl.org/dc/elements/1.1/"
   xmlns:cc="http://creativecommons.org/ns#"
   xmlns:rdf="http://www.w3.org/1999/02/22-rdf-syntax-ns#"
   xmlns:svg="http://www.w3.org/2000/svg"
   xmlns="http://www.w3.org/2000/svg"
   xmlns:sodipodi="http://sodipodi.sourceforge.net/DTD/sodipodi-0.dtd"
   xmlns:inkscape="http://www.inkscape.org/namespaces/inkscape"
   width="500.70975pt"
   height="384.08026pt"
   viewBox="0 0 500.70975 384.08026"
   version="1.1"
   id="svg73"
   sodipodi:docname="Radio Krokodyl.svg"
   inkscape:version="0.92.0 r15299">
  <metadata
     id="metadata79">
    <rdf:RDF>
      <cc:Work
         rdf:about="">
        <dc:format>image/svg+xml</dc:format>
        <dc:type
           rdf:resource="http://purl.org/dc/dcmitype/StillImage" />
        <dc:title></dc:title>
      </cc:Work>
    </rdf:RDF>
  </metadata>
  <defs
     id="defs77" />
  <sodipodi:namedview
     pagecolor="#ffffff"
     bordercolor="#666666"
     borderopacity="1"
     objecttolerance="10"
     gridtolerance="10"
     guidetolerance="10"
     inkscape:pageopacity="0"
     inkscape:pageshadow="2"
     inkscape:window-width="1920"
     inkscape:window-height="1017"
     id="namedview75"
     showgrid="false"
     fit-margin-top="0"
     fit-margin-left="0"
     fit-margin-right="0"
     fit-margin-bottom="0"
     inkscape:zoom="1.4416244"
     inkscape:cx="282.62372"
     inkscape:cy="243.22017"
     inkscape:window-x="-8"
     inkscape:window-y="-8"
     inkscape:window-maximized="1"
     inkscape:current-layer="svg73" />
  <path
     style="opacity:1;fill:#ffffff;fill-opacity:1;stroke:none;stroke-width:39.375;stroke-miterlimit:4;stroke-dasharray:none;stroke-opacity:1"
     d="M 44.79975,384.08026 477.78976,314.22001 500.70976,7.64025 0,0 Z"
     id="rect4557"
     inkscape:connector-curvature="0"
     sodipodi:nodetypes="ccccc" />
  <path
     style="opacity:1;fill:#000000;fill-opacity:1"
     inkscape:connector-curvature="0"
     id="path32"
     d="m 19.509999,14.519999 c 157.460001,0.04 314.910001,-0.03 472.360001,0.04 -4.66,48.82 -9.33,97.630001 -13.91,146.460001 -5.23,3.17 -10.46,6.36 -15.75,9.44 4.07,-46.4 8.16,-92.790001 12.37,-139.170001 -145.71,-0.01 -291.42,-0.04 -437.140001,0.02 4.11,46.15 8.21,92.300001 12.26,138.460001 -5.4,-3.14 -10.85,-6.19 -16.28,-9.27 -4.63,-48.66 -9.21,-97.320001 -13.91,-145.980001 z" />
  <path
     style="opacity:1;fill:#000000;fill-opacity:1"
     inkscape:connector-curvature="0"
     id="path34"
     d="m 260.04,56.529999 c 2.08,0 4.16,0 6.24,0.01 0,8.41 0.01,16.82 0,25.23 0.69,0.01 2.07,0.03 2.77,0.03 -0.02,0.75 -0.04,2.23 -0.05,2.98 -2.1,0 -4.19,0 -6.28,-0.01 0.08,-0.42 0.23,-1.28 0.31,-1.71 -3.71,2.61 -9.28,2.88 -12.72,-0.3 -4.67,-4.11 -3.58,-12.67 1.9,-15.58 3.39,-1.88 7.7,-1.25 10.64,1.2 -0.09,-2.95 -0.07,-5.9 -0.06,-8.85 -0.69,0 -2.08,-0.01 -2.77,-0.01 0.01,-0.75 0.02,-2.24 0.02,-2.99 m -5.53,13.24 c -4.07,1.85 -4.69,8.28 -0.98,10.85 3.16,2.91 8.78,0.66 9.38,-3.5 1.37,-4.64 -3.96,-9.6 -8.4,-7.35 z" />
  <path
     style="opacity:1;fill:#000000;fill-opacity:1"
     inkscape:connector-curvature="0"
     id="path36"
     d="m 224.05,57.529999 c 1.27,0 2.55,0.02 3.84,0.03 -2.55,2.32 -3.84,6.85 -7.82,6.91 1.24,-2.36 2.61,-4.65 3.98,-6.94 z" />
  <path
     style="opacity:1;fill:#000000;fill-opacity:1"
     inkscape:connector-curvature="0"
     id="path38"
     d="m 283.28,58.779999 c 1.67,0 3.34,0 5.02,0 -0.01,1.24 -0.02,2.49 -0.02,3.75 -1.67,0 -3.34,0 -5,0.01 0,-1.26 -0.01,-2.51 0,-3.76 z" />
  <path
     style="opacity:1;fill:#000000;fill-opacity:1"
     inkscape:connector-curvature="0"
     id="path40"
     d="m 194.17,69.049999 c 1.8,-1.91 4.15,-3.02 6.77,-3.22 0.03,0.81 0.09,2.45 0.12,3.26 -1.72,0.38 -3.97,0.09 -5.13,1.71 -2.42,3.13 -1.47,7.31 -1.65,10.98 0.69,0 2.07,0.02 2.76,0.02 -0.01,0.75 -0.03,2.23 -0.04,2.98 -2.9,0 -5.8,0 -8.7,0 -0.01,-1 -0.02,-2 -0.03,-3 0.69,0 2.07,0 2.76,0 -0.01,-4.08 0,-8.17 -0.01,-12.25 -0.69,-0.01 -2.07,-0.01 -2.75,-0.01 0,-0.69 0.02,-2.06 0.03,-2.75 2,0.01 4,0.01 6.01,0.01 -0.04,0.57 -0.11,1.7 -0.14,2.27 z" />
  <path
     style="opacity:1;fill:#000000;fill-opacity:1"
     inkscape:connector-curvature="0"
     id="path42"
     d="m 214.94,82.059999 c -4.45,-4.78 -2.18,-13.71 4.14,-15.55 3.12,-1.13 6.35,0.14 8.98,1.86 l -0.01,-1.59 c 2.07,0 4.15,0 6.23,0 0,0.69 0,2.07 0.01,2.76 -0.69,-0.01 -2.07,-0.01 -2.76,-0.02 -0.01,4.08 0,8.16 0,12.25 0.68,0 2.05,0.01 2.74,0.02 0,0.99 0.01,1.99 0.02,2.98 -2.1,0 -4.2,0.01 -6.29,0.02 0.03,-0.47 0.08,-1.41 0.11,-1.88 -3.85,2.87 -9.96,3.08 -13.17,-0.85 m 5.49,-12.58 c -4.71,1.58 -5.47,8.93 -1.21,11.46 3.25,2.46 8.43,0.1 8.93,-3.89 1.21,-4.41 -3.31,-9.03 -7.72,-7.57 z" />
  <path
     style="opacity:1;fill:#000000;fill-opacity:1"
     inkscape:connector-curvature="0"
     id="path44"
     d="m 309.49,66.719999 c 6.58,-2.84 15,2.92 13.65,10.25 -0.52,7.24 -9.99,10.21 -15.58,6.59 -6.28,-3.66 -5.07,-14.68 1.93,-16.84 m 1.97,2.87 c -4.84,1.38 -5.78,8.83 -1.41,11.33 3.39,2.49 8.54,0.13 9.32,-3.88 1.32,-4.45 -3.56,-9.13 -7.91,-7.45 z" />
  <path
     style="opacity:1;fill:#000000;fill-opacity:1"
     inkscape:connector-curvature="0"
     id="path46"
     d="m 281.78,66.779999 c 2.17,0 4.33,0 6.5,0 0,5 -0.01,10.01 0.01,15.01 0.74,0 2.23,-0.01 2.98,-0.01 0,0.99 0.01,1.98 0.03,2.98 -3.19,0.03 -6.37,0.02 -9.55,0 0.01,-1 0.02,-1.99 0.04,-2.99 0.75,0.01 2.24,0.01 2.99,0.02 -0.01,-4.09 0,-8.17 0.01,-12.26 -0.75,0 -2.26,0 -3.01,-0.01 0,-0.68 0,-2.06 0,-2.74 z" />
  <path
     style="opacity:1;fill:#000000;fill-opacity:1"
     inkscape:connector-curvature="0"
     id="path48"
     d="m 383.66,101.52 c 1.7,-3.420001 3.4,-6.830001 5.13,-10.230001 2.77,0 5.54,-0.01 8.32,-0.03 -2.97,3.44 -6.01,6.82 -8.96,10.280001 -1.5,-0.01 -3,-0.02 -4.49,-0.02 z" />
  <path
     style="opacity:1;fill:#000000;fill-opacity:1"
     inkscape:connector-curvature="0"
     id="path50"
     d="m 173.16,104.29 c 6.6,-1.75 14.17,-0.51 19.41,4.03 5.24,4.58 8.49,11.68 7.6,18.69 -0.72,6.26 -4.67,11.86 -9.88,15.25 -4.44,2.99 -10.11,3.36 -15.28,2.79 -7.25,-0.76 -13.49,-6.07 -16.24,-12.69 -1.73,-4.46 -1.77,-9.47 -0.6,-14.07 1.93,-6.97 7.96,-12.46 14.99,-14 m 1.28,10.13 c -5.2,2.51 -7.32,9.27 -5.07,14.48 1.65,4.62 6.96,7.35 11.71,6.18 5.38,-1.09 8.83,-6.87 7.88,-12.17 -0.42,-6.69 -8.42,-11.9 -14.52,-8.49 z" />
  <path
     style="opacity:1;fill:#000000;fill-opacity:1"
     inkscape:connector-curvature="0"
     id="path52"
     d="m 211.28,104.53 c 6.08,0.01 12.17,0 18.25,0 0,2.67 0,5.34 -0.01,8.01 -1.25,-0.01 -2.49,-0.01 -3.74,-0.01 0,3.48 -0.01,6.96 0.01,10.45 3,-3.5 6.04,-6.97 9.04,-10.46 -0.58,-0.01 -1.73,-0.01 -2.31,-0.01 0.01,-2.66 0.01,-5.32 0.01,-7.98 5.66,0 11.33,0.01 16.99,0 0.01,2.58 0.01,5.17 0.02,7.75 -0.71,0.14 -2.11,0.41 -2.81,0.54 -3.67,3.48 -6.81,7.48 -10.36,11.08 3.77,4.14 7.41,8.42 11.33,12.43 1.27,-0.03 2.55,-0.04 3.82,-0.06 0.01,2.76 0,5.51 0.01,8.27 -6.34,-0.02 -12.67,-0.01 -19,-0.01 0,-2.74 0,-5.48 -0.01,-8.22 0.59,-0.01 1.79,-0.04 2.38,-0.06 -3.03,-3.45 -6.13,-6.86 -9.12,-10.35 -0.01,3.46 0,6.92 0,10.38 1.25,0 2.5,0 3.76,0.01 -0.01,2.75 -0.01,5.49 -0.01,8.24 -6.09,-0.01 -12.17,0 -18.26,-0.01 0.01,-2.74 0.01,-5.49 0,-8.23 1.34,-0.01 2.67,-0.01 4.01,-0.01 0,-7.91 0,-15.83 0,-23.75 -1.34,0 -2.68,-0.01 -4.01,-0.01 0.01,-2.66 0.01,-5.33 0.01,-7.99 z" />
  <path
     style="opacity:1;fill:#000000;fill-opacity:1"
     inkscape:connector-curvature="0"
     id="path54"
     d="m 278.28,104.26 c 7.08,-1.85 15.24,-0.19 20.48,5.08 4.06,4.15 6.77,9.84 6.56,15.72 0.04,7 -4.14,13.6 -10.01,17.23 -4.72,3.11 -10.73,3.43 -16.18,2.61 -9.71,-1.53 -17.3,-11.12 -16.63,-20.92 -0.32,-9.27 6.79,-17.84 15.78,-19.72 m 1.1,10.2 c -7.55,3.64 -7.75,16.01 -0.16,19.72 6.39,3.69 15.25,-1.74 14.85,-9.1 1.17,-7.62 -7.79,-14.51 -14.69,-10.62 z" />
  <path
     style="opacity:1;fill:#000000;fill-opacity:1"
     inkscape:connector-curvature="0"
     id="path56"
     d="m 368.78,104.54 c 5.92,-0.01 11.84,-0.01 17.76,0 -0.02,2.65 -0.02,5.31 -0.01,7.97 -0.79,0.01 -2.37,0.04 -3.16,0.06 1.76,3.05 3.59,6.06 5.28,9.15 1.72,-3.11 3.57,-6.14 5.41,-9.19 -0.7,0 -2.08,0 -2.77,0 0,-2.67 -0.01,-5.34 -0.01,-8.01 5.75,0.02 11.5,0.01 17.25,0.01 -0.01,2.66 0,5.32 0,7.98 -0.77,0.01 -2.32,0.02 -3.09,0.03 -3.89,5.8 -7.72,11.65 -11.65,17.43 -0.01,2.1 -0.02,4.21 -0.01,6.31 1.41,0 2.83,0 4.25,0 0,2.75 -0.01,5.51 -0.01,8.26 -6.25,-0.03 -12.5,0 -18.75,-0.02 0.01,-2.74 0,-5.49 0,-8.23 1.34,-0.01 2.68,-0.01 4.02,-0.01 -0.23,-2.54 0.66,-5.43 -0.89,-7.68 -3.4,-5.45 -7.1,-10.72 -10.64,-16.08 -0.74,0 -2.23,0.01 -2.97,0.02 -0.02,-2.67 -0.02,-5.34 -0.01,-8 z" />
  <path
     style="opacity:1;fill:#000000;fill-opacity:1"
     inkscape:connector-curvature="0"
     id="path58"
     d="m 57.779999,104.54 c 6.17,-0.01 12.33,0 18.5,-0.01 0,2.66 0,5.33 0,7.99 -1.25,0 -2.5,0 -3.75,0.01 0,3.46 0.02,6.93 -0.03,10.4 2.91,-3.51 5.93,-6.92 8.91,-10.37 l -2.12,-0.01 c -0.01,-2.67 -0.01,-5.34 -0.02,-8.02 5.67,0 11.34,0 17.01,0 0,2.66 0,5.33 0,7.99 -0.73,0.01 -2.2,0.03 -2.94,0.03 -3.37,3.82 -6.86,7.55 -10.28,11.33 3.6,4.22 7.44,8.23 11.09,12.41 1.29,-0.01 2.59,-0.01 3.88,-0.02 0,2.76 -0.01,5.52 -0.02,8.27 -6.24,-0.03 -12.48,-0.01 -18.73,-0.01 0,-2.74 0,-5.48 -0.01,-8.22 0.56,-0.01 1.67,-0.04 2.23,-0.05 -2.97,-3.38 -5.96,-6.74 -8.91,-10.14 -0.09,3.39 -0.06,6.78 -0.07,10.17 1.26,-0.01 2.51,-0.01 3.76,-0.01 0,2.74 -0.01,5.49 0.01,8.24 -6.17,0.01 -12.34,0 -18.52,0.01 0.01,-2.75 0.02,-5.51 0.01,-8.26 1.33,0.01 2.66,0.01 3.99,0.02 0.01,-7.92 0.01,-15.84 0,-23.77 -1.33,0.01 -2.66,0.01 -4,0.01 0.01,-2.66 0.02,-5.33 0.01,-7.99 z" />
  <path
     style="opacity:1;fill:#000000;fill-opacity:1"
     inkscape:connector-curvature="0"
     id="path60"
     d="m 109.04,104.54 c 8.98,0.06 17.98,-0.16 26.96,0.09 6.56,0.59 10.26,8.61 7.67,14.35 -0.83,2.42 -3.28,3.57 -5.37,4.7 1.6,0.99 3.74,1.71 4.26,3.75 0.46,2.92 0.15,5.9 0.21,8.84 1.25,0.01 2.51,0.02 3.77,0.03 -0.01,2.74 -0.01,5.48 -0.01,8.23 -4.75,0 -9.5,-0.02 -14.25,0.01 -0.22,-4.82 0.56,-9.77 -0.64,-14.5 -1.17,-3.15 -5.21,-2.41 -7.86,-2.56 0,2.94 0,5.87 0,8.81 0.81,0 2.44,-0.01 3.25,-0.01 0,2.75 0,5.5 0.01,8.25 -6,0 -12,-0.01 -18,0.01 -0.01,-2.76 -0.01,-5.51 -0.01,-8.26 1.33,0 2.66,0 4,0 0,-7.92 0.01,-15.84 -0.01,-23.76 -1.33,0 -2.66,0 -3.99,0.01 -0.01,-2.66 0,-5.33 0.01,-7.99 m 14.74,7.96 c -0.01,2.76 0,5.53 0,8.3 2.37,-0.08 4.85,0.25 7.13,-0.58 2.77,-1.23 2.94,-5.94 0.04,-7.1 -2.28,-0.89 -4.78,-0.53 -7.17,-0.62 z" />
  <path
     style="opacity:1;fill:#000000;fill-opacity:1"
     inkscape:connector-curvature="0"
     id="path62"
     d="m 316.27,104.54 c 7.97,0.02 15.94,-0.08 23.9,0.04 6.17,0.08 11.92,3.78 15.11,8.97 2.7,4.97 2.98,10.92 2.06,16.4 -1.21,7.81 -8.51,14.03 -16.34,14.33 -8.23,0.54 -16.48,0.11 -24.71,0.26 -0.02,-2.75 -0.02,-5.51 0,-8.26 1.33,0 2.66,0 4,-0.01 -0.02,-7.91 0,-15.83 -0.01,-23.75 -1.34,0 -2.67,0.01 -4,0.01 0,-2.66 0,-5.33 -0.01,-7.99 m 15.01,7.95 c -0.02,7.93 0.04,15.86 -0.04,23.79 3.95,0.1 8.36,0.27 11.57,-2.45 4.69,-4.02 4.89,-11.58 1.86,-16.64 -2.91,-4.35 -8.62,-4.89 -13.39,-4.7 z" />
  <path
     style="opacity:1;fill:#000000;fill-opacity:1"
     inkscape:connector-curvature="0"
     id="path64"
     d="m 419.53,104.53 c 6.33,0.01 12.66,-0.01 19,0.01 -0.01,2.66 0,5.32 0,7.99 -1.42,-0.01 -2.83,-0.01 -4.24,-0.01 -0.02,7.92 -0.01,15.84 -0.01,23.76 3.34,0 6.68,0 10.03,0 0.79,-2.59 1.64,-5.16 2.46,-7.75 2.24,0 4.5,0 6.75,-0.01 0,5.34 0.01,10.67 0,16.01 -11.33,-0.01 -22.67,0.01 -34.01,-0.01 0.02,-2.75 0.02,-5.5 0.02,-8.25 1.4,0 2.81,0.01 4.23,0.02 0.04,-7.92 0.01,-15.85 0.02,-23.77 -1.43,0 -2.84,0 -4.25,0.01 0,-2.67 0,-5.34 0,-8 z" />
  <path
     style="opacity:1;fill:#0b8a5f;fill-opacity:1"
     inkscape:connector-curvature="0"
     id="path66"
     d="m 33.969999,167.4 c 16.47,9.2 32.93,18.42 49.41,27.6 9.98,-9.18 20.020001,-18.29 29.930001,-27.54 11.6,9.14 23.16,18.35 34.73,27.54 12.54,-9.17 25.08,-18.33 37.6,-27.54 12.24,9.17 24.41,18.43 36.67,27.56 10.82,-9.28 21.85,-18.31 32.71,-27.54 11.68,9.14 23.29,18.36 34.96,27.52 12.46,-9.17 24.91,-18.38 37.39,-27.53 11.19,9.11 22.17,18.52 33.54,27.37 13.94,-8.93 27.63,-18.26 41.49,-27.32 11.33,9.1 22.61,18.27 33.85,27.48 13.76,-9.12 27.4,-18.41 41.12,-27.58 -4.15,44.84 -8.55,89.67 -12.72,134.51 -137.69,16.28 -275.43,32.24 -413.140001,48.44 -5.92,-60.98 -11.64,-121.99 -17.54,-182.97 M 321.57,221.79 c -9.09,1.87 -17.37,7.86 -21.61,16.17 -5.51,11.92 -3.51,27.64 6.53,36.59 12.53,11.7 34.6,10.68 46,-2.12 10.54,-11.32 10.17,-31.07 -1,-41.83 -7.62,-7.81 -19.32,-10.94 -29.92,-8.81 m -213.27,0.48 c -0.02,4 -0.02,8.01 -0.02,12.01 2,-0.01 4,-0.01 6,-0.01 0.01,11.67 -0.01,23.34 0,35.01 -2.01,0 -4.01,0 -6.02,0.01 0.04,4.08 0.02,8.16 0.02,12.25 9.83,-0.01 19.66,-0.02 29.49,0 0.01,-4.09 0.01,-8.18 0,-12.27 -2.59,0.01 -5.17,0.01 -7.75,0.02 0.02,-4.18 0.01,-8.35 0.01,-12.52 3.58,0.01 7.16,0.01 10.75,0 0.01,-4.41 -0.01,-8.83 0,-13.24 -3.58,0 -7.17,0 -10.75,-0.01 0,-3.08 0,-6.16 -0.01,-9.23 5.49,-0.01 10.98,-0.01 16.46,-0.01 1.14,3.08 2.23,6.16 3.35,9.24 3.48,0.01 6.97,0.01 10.45,0.01 0,-7.08 -0.01,-14.16 0.01,-21.24 -17.33,-0.03 -34.66,0.01 -51.99,-0.02 m 55.22,0 c 0.01,4 0.01,8 0.01,12 2,0 4,0.01 6,0.02 -0.01,11.66 0.01,23.32 -0.01,34.99 -2,0 -4,0 -6,0.01 0,4.07 0.02,8.15 0,12.24 9.17,0.01 18.35,-0.01 27.52,0.01 -0.01,-4.09 0,-8.18 -0.02,-12.26 -2.16,0 -4.33,0 -6.49,0.01 0.02,-10.46 -0.01,-20.92 0.01,-31.38 3.92,10.36 7.83,20.72 11.75,31.08 2.55,0.03 5.11,0.04 7.66,0.06 3.93,-10.44 7.94,-20.84 11.8,-31.3 0.06,10.51 0.01,21.02 0.03,31.53 -2.09,0 -4.17,0 -6.26,0 0.01,4.08 0,8.17 0.02,12.26 9.09,-0.03 18.18,0.02 27.28,-0.03 -0.07,-4.08 -0.04,-8.15 -0.04,-12.23 -1.92,0 -3.83,0 -5.74,0 -0.02,-11.67 0,-23.34 -0.01,-35.01 1.91,0.01 3.82,0.01 5.74,0.02 0.01,-4 0,-8 0.01,-12 -9.34,-0.02 -18.68,0 -28.01,-0.02 -2.76,7.98 -5.6,15.93 -8.42,23.89 -2.95,-7.99 -6.14,-15.9 -9.15,-23.87 -9.22,-0.02 -18.45,0 -27.68,-0.02 m 204.95,5.28 c -4.08,3.82 -5.12,9.62 -5.3,14.96 4.2,0.04 8.4,-0.01 12.6,0.06 0.48,-2.53 0.94,-5.79 3.71,-6.81 3.95,-2.05 9.58,1.55 8.25,6.16 -0.89,4.96 -6.88,4.35 -10.68,4.67 -0.02,3.53 -0.03,7.07 -0.03,10.61 3.76,0.24 8.92,-0.1 10.85,3.95 2.05,4.35 -2.09,9.87 -6.9,8.56 -3.79,-0.24 -4.65,-4.33 -4.85,-7.42 -4.62,0 -9.23,-0.06 -13.84,0.05 -0.24,5.02 0.77,10.38 4.24,14.22 4.8,5.44 12.69,6.73 19.58,5.93 6.98,-0.66 14.12,-4.93 16.27,-11.91 1.46,-5.34 0.96,-11.76 -3.06,-15.92 -1.87,-2.1 -4.7,-2.86 -7.34,-3.46 3.05,-1.1 6.24,-2.55 8.11,-5.33 2.08,-3.39 2.04,-7.64 1.25,-11.42 -1.49,-6.07 -7.21,-10.42 -13.24,-11.34 -6.72,-0.97 -14.44,-0.5 -19.62,4.44 m -100.95,7.23 c 1.92,0 3.83,0 5.76,0 0.01,11.84 0,23.67 0,35.51 -1.92,-0.01 -3.84,-0.01 -5.76,-0.01 0.01,3.75 0,7.5 0.01,11.26 8.75,0 17.49,-0.03 26.23,0.01 0.03,-3.76 0.02,-7.51 0.01,-11.27 -2,0 -4.01,0 -6,0 0.01,-15.51 0.02,-31.01 -0.01,-46.52 -6.74,0.04 -13.48,0.02 -20.23,0.02 0,3.66 0,7.33 -0.01,11 z" />
  <path
     style="opacity:1;fill:#0b8a5f;fill-opacity:1"
     inkscape:connector-curvature="0"
     id="path68"
     d="m 323.39,236.64 c 5.97,-2.31 13.18,-0.09 16.99,5.01 5.14,6.8 4.34,17.78 -2.42,23.24 -5.61,4.71 -14.65,4.13 -19.87,-0.92 -7.97,-7.73 -5.56,-23.53 5.3,-27.33 z" />
</svg>
