<svg height="99.825851" viewBox="0 0 379.17331 99.825852" width="379.17331" xmlns="http://www.w3.org/2000/svg"><g fill="#cda200"><path d="m0 0h29.854l4.593-7.467h-34.447zm0 11.667v-7.415h27.237l-4.56 7.415zm29.22 4.252h-29.22v7.428h31.178c.015-.291.023-.585.02-.886-.026-2.764-.687-4.895-1.978-6.542m-14.229 19.133h-14.991v-7.453h30.245c-2.185 5.092-7.94 7.453-15.254 7.453" transform="matrix(1.3333333 0 0 -1.3333333 0 46.736002)"/><path d="m0 0c1.443 1.85 1.983 4.287 1.983 6.589 0 1.58-.316 3.43-.991 4.875-2.3 4.784-6.582 5.461-11.404 5.461h-12.261v-31.865h7.212v11.013h4.801l6.634-11.013h7.986l-7.314 12.143c1.213.581 2.335 1.457 3.354 2.797zm-5.184 6.544c0-1.805-.857-3.34-2.525-4.107-1.081-.497-2.749-.497-3.921-.497-1.262 0-2.569.045-3.831.045v9.118h3.471c2.073 0 4.417.089 5.86-1.716.631-.812.946-1.805.946-2.843zm25.627-13.91c-1.716-2.979-4.967-3.025-5.463-3.025-1.355 0-3.116.587-3.116 2.529 0 3.025 5.102 3.07 6.953 3.567.587.135.994.316 1.626.541zm6.594 5.42c0 1.896.091 4.605-.632 6.366-1.715 4.064-6.096 4.697-9.979 4.697-5.284 0-9.664-2.258-9.98-8.083h6.141c-.09 2.303 2.258 2.935 4.11 2.935 1.399 0 3.567-.361 3.567-2.167 0-1.671-2.439-1.761-3.612-1.942-5.058-.722-11.516-1.31-11.516-7.947 0-4.742 3.613-7.541 8.129-7.541 3.341 0 4.786.994 7.36 2.799l.045-2.122 6.371.001zm26.409-13.005v31.876h-6.727v-10.023c-1.625 1.354-3.476 2.122-5.598 2.122-7.089 0-10.295-6.141-10.295-12.507 0-5.959 3.341-12.055 9.978-12.055 2.393 0 4.832.723 6.186 2.845v-2.258zm-6.501 11.559c0-3.071-.813-6.637-4.56-6.637-3.838 0-4.786 3.657-4.786 6.862 0 2.935 1.129 6.728 4.695 6.728 3.883 0 4.651-3.793 4.651-6.953zm17.743 11.829h-6.5919v-23.388h6.5919zm0 8.488h-6.5919v-6.0049h6.5919zm27.587-20.092c0 6.999-4.515 12.281-11.694 12.281-7.585 0-12.506-4.921-12.506-12.506 0-7.179 4.56-12.236 11.874-12.236 7.269 0 12.326 5.237 12.326 12.461zm-6.818.271c0-3.476-1.173-7.314-5.282-7.314-4.018 0-5.283 3.702-5.283 7.089 0 3.476 1.355 6.907 5.373 6.907 3.928 0 5.192-3.341 5.192-6.682zm52.988 19.821-5.192-21.356-4.515 21.356h-6.863l-4.425-21.356-5.056 21.356h-7.224l8.939-31.876h6.592l4.606 21.582 4.515-21.582h6.682l8.985 31.876zm21.041-24.291c-1.716-2.979-4.966-3.025-5.463-3.025-1.355 0-3.115.587-3.115 2.529 0 3.025 5.102 3.07 6.953 3.567.587.135.993.316 1.625.541zm6.595 5.42c0 1.896.09 4.605-.632 6.366-1.716 4.064-6.096 4.697-9.98 4.697-5.284 0-9.664-2.258-9.98-8.083h6.142c-.091 2.303 2.258 2.935 4.109 2.935 1.399 0 3.567-.361 3.567-2.167 0-1.671-2.438-1.761-3.612-1.942-5.058-.722-11.516-1.31-11.516-7.947 0-4.742 3.613-7.541 8.129-7.541 3.342 0 4.787.994 7.361 2.799l.044-2.122 6.371.001zm23.7 10.383h-7.043l-3.883-14.493-4.289 14.493h-7.089l8.082-23.388h6.366zm23.705-13.635v1.128c0 7.224-3.703 13.184-11.514 13.184-7.179 0-11.829-5.373-11.829-12.371 0-7.179 4.425-12.371 11.829-12.371 5.147 0 9.572 2.438 11.243 7.45l-6.683.451c-.993-1.761-2.302-2.483-4.379-2.483-3.07 0-4.651 2.122-5.057 5.012zm-16.345 5.056c.723 2.664 2.167 4.019 5.012 4.019 2.393 0 4.109-1.671 4.334-4.019z" transform="matrix(1.3333333 0 0 -1.3333333 94.525331 36.742669)"/><path d="m0 0c1.443 1.85 1.983 4.287 1.983 6.589 0 1.58-.316 3.43-.991 4.875-2.3 4.784-6.582 5.461-11.404 5.461h-12.261v-31.865h7.212v11.013h4.801l6.634-11.013h7.986l-7.314 12.143c1.213.581 2.335 1.457 3.354 2.797zm-5.184 6.544c0-1.805-.857-3.34-2.525-4.107-1.081-.497-2.749-.497-3.921-.497-1.262 0-2.569.045-3.831.045v9.118h3.471c2.073 0 4.417.089 5.86-1.716.631-.812.946-1.805.946-2.843zm25.627-13.91c-1.716-2.979-4.967-3.025-5.463-3.025-1.355 0-3.116.587-3.116 2.529 0 3.025 5.102 3.07 6.953 3.567.587.135.994.316 1.626.541zm6.594 5.42c0 1.896.091 4.605-.632 6.366-1.715 4.064-6.096 4.697-9.979 4.697-5.284 0-9.664-2.258-9.98-8.083h6.141c-.09 2.303 2.258 2.935 4.11 2.935 1.399 0 3.567-.361 3.567-2.167 0-1.671-2.439-1.761-3.612-1.942-5.058-.722-11.516-1.31-11.516-7.947 0-4.742 3.613-7.541 8.129-7.541 3.341 0 4.786.994 7.36 2.799l.045-2.122 6.371.001zm26.409-13.005v31.876h-6.727v-10.023c-1.625 1.354-3.476 2.122-5.598 2.122-7.089 0-10.295-6.141-10.295-12.507 0-5.959 3.341-12.055 9.978-12.055 2.393 0 4.832.723 6.186 2.845v-2.258zm-6.501 11.559c0-3.071-.813-6.637-4.56-6.637-3.838 0-4.786 3.657-4.786 6.862 0 2.935 1.129 6.728 4.695 6.728 3.883 0 4.651-3.793 4.651-6.953zm17.743 11.829h-6.5919v-23.388h6.5919zm0 8.488h-6.5919v-6.0049h6.5919zm27.587-20.092c0 6.999-4.515 12.281-11.694 12.281-7.585 0-12.506-4.921-12.506-12.506 0-7.179 4.56-12.236 11.874-12.236 7.269 0 12.326 5.237 12.326 12.461zm-6.818.271c0-3.476-1.173-7.314-5.282-7.314-4.018 0-5.283 3.702-5.283 7.089 0 3.476 1.355 6.907 5.373 6.907 3.928 0 5.192-3.341 5.192-6.682zm52.988 19.821-5.192-21.356-4.515 21.356h-6.863l-4.425-21.356-5.056 21.356h-7.224l8.939-31.876h6.592l4.606 21.582 4.515-21.582h6.682l8.985 31.876zm21.041-24.291c-1.716-2.979-4.966-3.025-5.463-3.025-1.355 0-3.115.587-3.115 2.529 0 3.025 5.102 3.07 6.953 3.567.587.135.993.316 1.625.541zm6.595 5.42c0 1.896.09 4.605-.632 6.366-1.716 4.064-6.096 4.697-9.98 4.697-5.284 0-9.664-2.258-9.98-8.083h6.142c-.091 2.303 2.258 2.935 4.109 2.935 1.399 0 3.567-.361 3.567-2.167 0-1.671-2.438-1.761-3.612-1.942-5.058-.722-11.516-1.31-11.516-7.947 0-4.742 3.613-7.541 8.129-7.541 3.342 0 4.787.994 7.361 2.799l.044-2.122 6.371.001zm23.7 10.383h-7.043l-3.883-14.493-4.289 14.493h-7.089l8.082-23.388h6.366zm23.705-13.635v1.128c0 7.224-3.703 13.184-11.514 13.184-7.179 0-11.829-5.373-11.829-12.371 0-7.179 4.425-12.371 11.829-12.371 5.147 0 9.572 2.438 11.243 7.45l-6.683.451c-.993-1.761-2.302-2.483-4.379-2.483-3.07 0-4.651 2.122-5.057 5.012zm-16.345 5.056c.723 2.664 2.167 4.019 5.012 4.019 2.393 0 4.109-1.671 4.334-4.019z" transform="matrix(1.3333333 0 0 -1.3333333 94.525331 36.742669)"/><path d="m0 0h-3.686l-1.982 2.503h2.9l.958-1.452.914 1.452h2.944zm73.765-10.745c0-1.653-.56-3.478-2.512-3.478-1.91 0-2.513 1.761-2.513 3.37 0 1.653.646 3.284 2.555 3.284 1.868 0 2.47-1.588 2.47-3.176m3.24-.129c0 3.326-2.147 5.838-5.559 5.838-3.607 0-5.946-2.34-5.946-5.946 0-3.414 2.169-5.817 5.646-5.817 3.455 0 5.859 2.49 5.859 5.925m-12.02 2.812v2.875c-.192.022-.364.042-.558.042-1.502 0-2.34-.642-2.875-2.038v1.825h-3.092v-11.119h3.242v3.627c0 .559 0 1.139.022 1.697.043 1.802.3 3.155 2.511 3.155.257 0 .493-.022.75-.064m-24.125-8.415-4.591 6.913 4.291 4.206h-4.099l-3.435-3.799v7.834h-3.155v-15.154h3.155v3.693l1.03 1.031 2.791-4.724zm-12.619 3.413c0 2.792-2.748 3.286-4.895 3.735-.579.129-1.888.279-1.888 1.073 0 .795.944.902 1.545.902.602 0 1.287-.215 1.674-.708.172-.215.236-.644.279-.903l2.963.152c-.129 2.724-2.426 3.777-4.873 3.777-2.254 0-4.636-.901-4.636-3.52 0-4.443 6.611-2.835 6.611-4.831 0-.88-.901-1.029-1.589-1.029-1.416 0-2.168.407-2.361 1.847l-3.005-.109c0-.364.021-.665.107-1.029.559-2.299 2.919-3.092 5.045-3.092 2.425 0 5.023.86 5.023 3.735m-14.424 3.627h-4.444c.344 1.267 1.031 1.911 2.384 1.911 1.137 0 1.952-.793 2.06-1.911m3.326-2.404v.537c0 3.434-1.76 6.268-5.473 6.268-3.413 0-5.623-2.555-5.623-5.881 0-3.413 2.103-5.882 5.623-5.882 2.447 0 4.551 1.159 5.345 3.541l-3.177.216c-.472-.839-1.094-1.181-2.081-1.181-1.46 0-2.212 1.009-2.405 2.382zm-11.783.43-3.541.235c-.022-1.717-1.632-2.789-3.241-2.789-.859 0-1.675.278-2.34.816-1.288 1.074-1.546 2.768-1.546 4.336 0 2.51 1.009 5 3.886 5 1.18 0 2.232-.451 2.832-1.524.13-.258.258-.516.323-.794l3.412.235c-.042.367-.15.689-.257 1.031-.901 2.683-3.584 3.907-6.268 3.907-4.743 0-7.598-3.24-7.598-7.877 0-3.178 1.503-6.289 4.572-7.491.944-.364 1.974-.492 2.984-.492 2.468 0 4.764.901 6.031 3.111.408.708.665 1.502.751 2.296m108.028-1.455c-.535-.924-1.545-1.441-2.598-1.441-.73 0-1.482.346-1.482 1.183 0 1.438 2.298 1.459 3.306 1.717.258.064.516.149.774.258zm3.136 2.575c0 .901.041 2.19-.302 3.027-.817 1.934-2.899 2.235-4.743 2.235-2.513 0-4.597-1.074-4.748-3.845h2.922c-.043 1.095 1.073 1.396 1.953 1.396.666 0 1.698-.171 1.698-1.031 0-.795-1.16-.838-1.719-.923-2.404-.343-5.475-.623-5.475-3.779 0-2.254 1.717-3.586 3.866-3.586 1.587 0 2.275.473 3.5 1.332l.021-1.009h3.029zm11.743-2.784c0 2.791-2.746 3.285-4.893 3.734-.58.13-1.889.279-1.889 1.073s.944.902 1.545.902c.602 0 1.287-.214 1.674-.708.17-.214.236-.644.279-.902l2.961.151c-.129 2.725-2.423 3.777-4.871 3.777-2.254 0-4.636-.901-4.636-3.519 0-4.444 6.609-2.834 6.609-4.83 0-.88-.899-1.032-1.588-1.032-1.416 0-2.168.409-2.359 1.847l-3.006-.106c0-.366.021-.666.107-1.031.559-2.298 2.918-3.091 5.043-3.091 2.426 0 5.024.859 5.024 3.735m-23.803-3.413h-3.1543v15.154h3.1543zm-8.5 0v6.224c0 .708.043 1.568-.535 2.082-.303.28-.709.387-1.117.387-.473 0-.858-.13-1.225-.43-.752-.623-.707-1.673-.707-2.553v-5.71h-3.134v15.154h3.134v-5.174c.492.881 2.08 1.397 3.025 1.397.733 0 1.612-.195 2.211-.623 1.289-.923 1.502-2.168 1.502-3.65v-7.104zm-18.18 0v2.362l5.494 6.137h-4.872v2.62h8.801v-2.556l-5.324-5.944h5.689v-2.619zm-27.879 15.808h-3.784l-1.54-3.203h2.454zm1.33-4.678h-3.349l-1.845-7.492-2.019 7.492h-3.434l3.22-9.014c.171-.494.451-1.053.451-1.589 0-.365-.172-.901-.472-1.139-.302-.235-.968-.278-1.333-.278-.277 0-.556.021-.836.021v-2.491c.28 0 .559-.043.836-.043 1.375 0 3.113-.086 4.057 1.096.452.579.818 1.695 1.052 2.403z" transform="matrix(1.3333333 0 0 -1.3333333 75.267998 73.302668)"/></g></svg>