<svg height="223.92" viewBox="0 0 309.31256 223.92" width="309.31256" xmlns="http://www.w3.org/2000/svg" xmlns:xlink="http://www.w3.org/1999/xlink"><radialGradient id="a" cx="154.654434" cy="125.3" gradientUnits="userSpaceOnUse" r="129.7"><stop offset="0" stop-color="#e63323"/><stop offset=".32" stop-color="#e22f21"/><stop offset=".65" stop-color="#d52219"/><stop offset=".99" stop-color="#c10e0d"/><stop offset="1" stop-color="#c00d0d"/></radialGradient><linearGradient id="b" gradientUnits="userSpaceOnUse" x1="143.954424" x2="298.664444" y1="14.55" y2="14.55"><stop offset="0" stop-color="#0075bf"/><stop offset=".44" stop-color="#2892d2"/><stop offset=".79" stop-color="#40a4dd"/><stop offset="1" stop-color="#49abe1"/></linearGradient><path d="m126.71443 223.92c-27.399996 0-55.449996-12.1-82.069996-42.57-106.98-122.51-1.38-154.67 103.869996-154.67 11.43 0 22.84.38 34 1.06 36 2.21 104.29 10.61 122.07 14.25 2.58.53 6.16 1.18 4.13 7.58-2.49 7.88-10 24.9-26.18 53.7-29.51 52.48-90.79 120.65-155.82 120.65" fill="url(#a)"/><path d="m290.90443 29.11a28.44 28.44 0 0 1 -4-.41c-20.71-3.14-47.91-5.54-71-6.94-20.32-1.23-48.42-2.51-65.09-2.51-2.58 0-4.9 0-6.86.1 24.7-6.89 80.8-19.35 118.22-19.35 21.85 0 37.38 4.27 36.45 16.46a23.62 23.62 0 0 1 -2.46 8.47c-1.54 3.11-2.44 4.21-5.26 4.21" fill="url(#b)"/><path d="m266.47443 91.85c2.41 2.84-2.93 13.92-7.09 14.58-13.83 2.18-45.49 8.22-45.49 8.22s-6.59 4.15-13.37 36.94c-.71 5.42-9.46 6.49-9.58 6.49-3.78-.23-3.7-2.8-3.48-6.58a91.09 91.09 0 0 1 8.49-33.1c-27.6 6.06-50.93 12.47-70.75 18.54-.62 3 1.15 5.24 6.37 6.07 16.49 2.62 37.12-8.57 42.13-11.83 6.66-4.33 2.73 13-2.24 16.43a63.06 63.06 0 0 1 -33.46 11 43.6 43.6 0 0 1 -8.91-.55c-8.77-1.45-18.07-7.52-19-16.4-36.239996 11.8-55.679996 21.18-56.069996 21.36-4.71 2.23-14.46-7.62-7.85-12.26.13-.08 12.95-9.2 25.91-19.92 17.75-14.68 26.7-23.34 26.73-26.46s-16.2 4.15-26.55 9c-5 2.33-13.17-5.69-13.6-8.08-.39-2.14.57-2.49 4.32-4.41 6.65-3.4 29.33-14.1 41.679996-8.81a13.88 13.88 0 0 1 8 8.92c1.58 5.37 0 11.77-10.62 23.12l-12.999996 9.42 21.719996-7.91 2-.66c4.62-10.3 16.31-29.95 59.72-43.32 4-1.24 6.61-1.83 9.25-1.84 3 0 0 14.83-4 16.08-22.09 6.82-37.6 14.92-45.58 23.16a996.78 996.78 0 0 1 124.87-27.68c2.61-.41 7.87-1.38 9.47.48m-192.719996-30.57c-5.88-.72-9.35 2.78-9.35 7.8v10.25h4.54v-10.24c0-2.51 1.93-4.06 4.81-3.54zm20.11 9.18a9.09 9.09 0 1 0 -18.18 0c0 5.09 3.82 9.21 8.49 9.21a5.42 5.42 0 0 0 5.4-3.14v2.77h4.3zm-4.54 0a4.56 4.56 0 1 1 -9.08 0c0-2.92 2-5.09 4.54-5.09a4.83 4.83 0 0 1 4.54 5.16zm25.679996-16.71h-4.54v9.56a6.88 6.88 0 0 0 -5.19-2.06c-4.64 0-8.459996 4.16-8.459996 9.25a9.095022 9.095022 0 1 0 18.189996-.04zm-4.54 16.78a4.56 4.56 0 1 1 -9.07 0c0-2.92 2-5.09 4.54-5.09a4.83 4.83 0 0 1 4.53 5.09zm8.32 8.8h4.54v-17.7h-4.54zm4.54-22.69a2.285 2.285 0 0 0 -4.57 0 2.29 2.29 0 0 0 4.57 0zm12.1 4.54a9.29 9.29 0 1 0 8.93 9.28 9 9 0 0 0 -8.94-9.28zm0 14.4c-2.41 0-4.37-2.06-4.37-5.05s2-5.19 4.37-5.19 4.37 2.13 4.37 5.19-1.97 5.05-4.38 5.05z" fill="#fff"/></svg>