<?xml version="1.0" encoding="UTF-8"?>
<!-- Generator: Adobe Illustrator 16.0.0, SVG Export Plug-In . SVG Version: 6.00 Build 0)  -->
<svg id="Layer_1" width="606.23" height="46.764" enable-background="new 0 0 841.89 595.275" version="1.1" viewBox="0 0 606.23 46.764" xml:space="preserve" xmlns="http://www.w3.org/2000/svg" xmlns:cc="http://creativecommons.org/ns#" xmlns:dc="http://purl.org/dc/elements/1.1/" xmlns:rdf="http://www.w3.org/1999/02/22-rdf-syntax-ns#"><metadata id="metadata278"><rdf:RDF><cc:Work rdf:about=""><dc:format>image/svg+xml</dc:format><dc:type rdf:resource="http://purl.org/dc/dcmitype/StillImage"/><dc:title/></cc:Work></rdf:RDF></metadata><g id="g249" transform="translate(-124.72 -281.89)"><path id="path235" d="m131.74 305.01c3.867 0 7.015-3.147 7.015-7.015 0-3.869-3.147-7.016-7.015-7.016-3.87 0-7.017 3.147-7.017 7.016 0 3.867 3.147 7.015 7.017 7.015"/><path id="path237" d="m131.74 327.52c3.867 0 7.015-3.145 7.015-7.014 0-3.867-3.147-7.019-7.015-7.019-3.87 0-7.017 3.151-7.017 7.019 0 3.869 3.147 7.014 7.017 7.014"/><path id="path239" d="m176.82 311.46 7.145 14.618c0.109 0.22 0.218 0.495 0.218 0.769 0 0.824-0.659 1.592-1.593 1.592-0.824 0-1.209-0.328-1.539-0.932l-7.749-15.771h-13.573v15.057c0 0.934-0.66 1.646-1.648 1.646-0.936 0-1.65-0.713-1.65-1.646v-33.742c0-0.934 0.77-1.648 1.65-1.648h15.77c7.255 0 11.267 4.341 11.267 10.167 1e-3 4.997-2.912 8.9-8.298 9.89m-2.308-17.091h-14.782v14.397h14.782c4.561 0 7.31-3.021 7.31-7.197 0-4.178-2.749-7.2-7.31-7.2"/><path id="path241" d="m230.56 326.18c0.111 0.221 0.22 0.496 0.22 0.77 0 0.824-0.603 1.482-1.592 1.482-0.825 0-1.265-0.492-1.485-1.041l-4.506-10.057h-18.905l-4.505 10.057c-0.22 0.549-0.66 1.041-1.484 1.041-0.988 0-1.595-0.658-1.595-1.482 0-0.273 0.111-0.549 0.222-0.77l15.276-34.125c0.33-0.714 0.769-1.098 1.539-1.098 0.769 0 1.209 0.384 1.538 1.098zm-8.626-11.758-8.189-18.85-8.188 18.85zm-6.266-31.876c0.273-0.329 0.769-0.658 1.319-0.658 0.824 0 1.375 0.658 1.375 1.264 0 0.493-0.112 0.714-0.441 1.098l-3.021 3.244c-0.494 0.549-0.825 0.768-1.319 0.768-0.77 0-1.375-0.603-1.375-1.262 0-0.387 0.165-0.716 0.44-1.046z"/><path id="path243" d="m256.22 328h-10.442c-0.989 0-1.648-0.77-1.648-1.649v-33.301c0-0.934 0.715-1.648 1.648-1.648h10.442c11.1 0 18.245 8.079 18.245 18.3s-7.145 18.298-18.245 18.298m-0.22-33.632h-8.572v30.663h8.572c9.562 0 15.167-6.703 15.167-15.33 1e-3 -8.629-5.605-15.333-15.167-15.333"/><path id="path245" d="m289.57 328.44c-0.934 0-1.649-0.715-1.649-1.648v-34.181c0-0.936 0.715-1.649 1.649-1.649s1.649 0.713 1.649 1.649v34.181c0 0.933-0.716 1.648-1.649 1.648"/><path id="path247" d="m323.53 328.66c-10.989 0-18.465-8.736-18.465-18.957s7.476-18.96 18.465-18.96c10.991 0 18.356 8.74 18.356 18.96s-7.365 18.957-18.356 18.957m0-35.005c-9.453 0-15.167 7.64-15.167 16.048 0 8.406 5.715 16.045 15.167 16.045s15.058-7.639 15.058-16.045c0-8.408-5.606-16.048-15.058-16.048"/></g><g id="g269" transform="translate(-124.72 -281.89)" fill="#00aeef"><path id="path251" d="m381.88 328.66c-4.451 0-9.507-1.373-12.695-3.846-1.099-0.879-1.868-1.98-1.868-3.188 0-1.705 1.099-2.857 2.802-2.857 0.605 0 1.154 0.164 1.703 0.494 2.967 1.868 5.003 3.518 10.167 3.518 5.276 0 7.365-2.143 7.365-4.615 0-2.693-2.144-4.068-8.739-5.826-9.947-2.638-12.913-5.824-12.913-11.32 0-6.703 5.769-10.277 14.507-10.277 1.979 0 4.671 0.33 7.033 0.99 2.528 0.714 5.717 2.308 5.717 4.507 0 1.482-0.88 3.022-2.749 3.022-0.44 0-0.878-0.055-1.318-0.275-2.526-1.154-5.166-2.308-8.628-2.308-4.892 0-7.859 1.319-7.859 4.177 0 2.691 2.199 3.627 8.793 5.549 7.529 2.199 12.859 4.343 12.859 11.375 1e-3 6.374-4.835 10.88-14.177 10.88"/><path id="path253" d="m411.88 328c-1.87 0-3.406-1.541-3.406-3.406v-30.226c0-1.87 1.536-3.406 3.406-3.406 1.869 0 3.296 1.537 3.296 3.406v27.312h16.048c1.703 0 3.132 1.375 3.132 3.133 0 1.76-1.429 3.133-3.132 3.188h-19.344z"/><path id="path255" d="m459.9 328.66c-10.772 0-18.794-8.354-18.794-18.957 0-10.607 8.021-18.959 18.794-18.959 10.771 0 18.794 8.352 18.794 18.959 0 10.604-8.023 18.957-18.794 18.957m0-31.872c-7.475 0-12.035 5.935-12.035 12.916 0 6.977 4.561 12.912 12.035 12.912s12.034-5.936 12.034-12.912c1e-3 -6.981-4.56-12.916-12.034-12.916"/><path id="path257" d="m519.74 295.41-13.574 31.213c-0.493 1.1-1.648 1.813-2.857 1.813-1.265 0-2.362-0.657-2.857-1.813l-13.629-31.213c-0.165-0.384-0.275-0.825-0.275-1.264 0-1.649 1.375-3.188 3.078-3.188 1.21 0 2.419 0.66 2.913 1.814l10.715 25.556 10.826-25.556c0.494-1.098 1.595-1.814 2.803-1.814 1.76 0 3.133 1.429 3.133 3.133-1e-3 0.44-0.111 0.88-0.276 1.319"/><path id="path259" d="m555.34 328h-20.607c-1.869 0-3.407-1.484-3.407-3.354v-29.894c0-1.87 1.538-3.352 3.407-3.352h19.782c1.759 0 3.188 1.319 3.188 3.077 0 1.76-1.43 3.132-3.188 3.132h-16.488v8.738h9.07c1.704 0 3.131 1.373 3.131 3.132s-1.427 3.079-3.131 3.079h-9.07v9.232h17.313c1.758 0 3.187 1.373 3.187 3.133-1e-3 1.759-1.429 3.077-3.187 3.077"/><path id="path261" d="m597.76 328.44c-1.044 0-1.813-0.385-2.418-1.154l-18.958-23.959v21.98c0 1.758-1.43 3.133-3.188 3.133-1.704 0-3.132-1.428-3.132-3.133v-31.159c0-1.702 1.263-3.187 3.297-3.187 0.879 0 1.813 0.496 2.309 1.156l18.958 23.958v-21.926c0-1.702 1.265-3.187 3.132-3.187 1.869 0 3.188 1.485 3.188 3.187v31.159c-1e-3 1.704-1.319 3.132-3.188 3.132"/><path id="path263" d="m628.42 328.66c-4.452 0-9.507-1.373-12.693-3.846-1.1-0.879-1.869-1.98-1.869-3.188 0-1.705 1.099-2.857 2.803-2.857 0.604 0 1.153 0.164 1.704 0.494 2.964 1.868 5 3.518 10.165 3.518 5.277 0 7.363-2.143 7.363-4.615 0-2.693-2.142-4.068-8.736-5.826-9.948-2.638-12.914-5.824-12.914-11.32 0-6.703 5.769-10.277 14.508-10.277 1.979 0 4.671 0.33 7.033 0.99 2.527 0.714 5.715 2.308 5.715 4.507 0 1.482-0.879 3.022-2.747 3.022-0.44 0-0.88-0.055-1.317-0.275-2.528-1.154-5.168-2.308-8.629-2.308-4.892 0-7.857 1.319-7.857 4.177 0 2.691 2.196 3.627 8.792 5.549 7.528 2.199 12.859 4.344 12.859 11.375-1e-3 6.374-4.838 10.88-14.18 10.88"/><path id="path265" d="m658.42 328.44c-1.869 0-3.408-1.539-3.408-3.406v-30.665c0-1.87 1.539-3.408 3.408-3.408 1.866 0 3.295 1.538 3.295 3.408v13.463l16.542-15.992c0.604-0.604 1.374-0.879 2.198-0.879 1.648 0 3.243 1.318 3.243 3.079 0 1.043-0.33 1.813-0.99 2.417l-9.562 9.233 11.155 17.805c0.386 0.549 0.551 1.263 0.551 1.869 0 1.482-1.046 3.076-3.078 3.076-1.263 0-2.252-0.496-2.804-1.375l-10.495-16.868-6.761 6.538v8.299c1e-3 1.866-1.427 3.406-3.294 3.406"/><path id="path267" d="m712.16 328.66c-10.771 0-18.794-8.354-18.794-18.957 0-10.607 8.022-18.959 18.794-18.959 10.771 0 18.794 8.352 18.794 18.959 0 10.604-8.023 18.957-18.794 18.957m0-31.872c-7.475 0-12.035 5.935-12.035 12.916 0 6.977 4.561 12.912 12.035 12.912 7.473 0 12.034-5.936 12.034-12.912 0-6.981-4.561-12.916-12.034-12.916"/></g></svg>
