<svg height="283.02637pt" viewBox="0 0 451.94296 283.02637" width="451.94296pt" xmlns="http://www.w3.org/2000/svg"><path d="m494.91016-487.5332c-.9884-.0116-1.97648-.0109-2.96485.004-7.18812.10759-14.36512.91472-21.39843 2.43555-31.86666 6.38667-60.49346 24.69461-82.77344 47.97461-20.81372 19.89697-43.85131 58.38519-49.92774 71.41406-.64375 1.49746-1.24312 3.02869-1.82584 4.48565-18.39857 42.11357-21.0132 89.92192-12.96713 134.7917 2.30955 9.98442 5.04294 19.57398 7.91993 28.85351 4.06666 11.04 8.73289 21.94745 15.21289 31.80078 4.59333 10.165 15.89414 22.04211 24.49414 29.78711 15.51998 13.14667 34.65516 23.26983 55.09375 25.03906 6.64385.57511 12.35578.74356 17.36165.77326 3.58891.0213 6.82412-.29711 9.80867-.43075 14.66025-.65646 23.27267-3.253 38.05038-8.48704 19.75868-8.29456 37.73201-20.59261 53.09961-35.49609 21.21333-20.12 37.93154-44.71956 50.1582-71.21289 23.8-52.29333 31.16209-113.55917 13.46875-168.8125-3.22834-10.59987-9.89153-25.13935-21.26758-42.40039-11.73333-17.89334-28.77432-32.46623-48.34765-41.21289-13.57813-5.98985-28.3693-9.13217-43.19531-9.30664z" fill="#ed1f24" stroke-width="1.333333" transform="matrix(.75 0 0 .75 -11.189779 365.65591)"/><g fill="#1f1a17" transform="translate(-11.19 -9.343878)"><path d="m88.22 177.57h23.98975l-22.72975 19.13025h-14.3z"/><path d="m156.28 181.03 21.15-.06v100.35h-19.66l-.07-8.3c-3.52 6.3-10.21 11.36-17.72 10.72-6.69 0-12.63-4.7-14.98-10.83-3.94-9.84-2.28-20.64-2.64-30.95.35-9.48-1.41-19.68 3.25-28.42 2.93-6.01 9.48-10.18 16.26-9.38 6.03.25 10.92 4.31 14.38 8.94zm-9.7 41.67c-2.29 2.09-2.57 5.51-3.01 8.4-.19 8.3.01 16.62-.09 24.92.04 2.92-.06 6.19 1.84 8.61 2.18 2.79 7.1 2.61 8.99-.42 1.69-2.73 1.92-6.1 2-9.23-.02-7.31.02-14.62-.02-21.92-.16-3.34-.49-7.01-2.75-9.66-1.71-2.01-4.85-2.13-6.96-.7z"/><path d="m191.21 181.03 21.15-.05v18.2h-21.13z"/><path d="m30.96 217.14c2.51-7.06 8.79-13.18 16.65-13.07l.01 23.85c-4.22-.03-8.8-1.03-12.73.99-2.17 1.16-2.58 3.87-2.54 6.1v46.3l-21.16-.03.04-74.94 19.61-.01z"/><path d="m60.86 210.93c6.72-6.15 16.41-7.2 25.13-6.73 6.64.38 13.87 1.17 19.22 5.52 4.75 3.93 5.76 10.5 5.83 16.32.03 15.66 0 31.33.01 47-.09 2.9 1.15 5.57 1.72 8.36l-20.87-.09-1.08-6.29c-5.71 6.76-15.22 10.37-23.89 8.05-7.58-2-12.9-9.31-13.63-16.94-.81-7.12.06-15.22 5.19-20.66 5.68-5.65 13.7-7.64 21.08-10.04 3.01-1.08 6.68-1.47 8.65-4.31 3.22-3.92 1.74-11.01-3.29-12.64-2.77-.4-6.17-.02-7.92 2.43-1.89 2.69-1.7 6.14-1.93 9.26h-21.11c.09-6.88 1.54-14.43 6.89-19.24m16.74 40.74c-2.77 2.98-3.93 7.31-3.27 11.3 1.06 4.26 6.43 5.91 10.26 4.7 3.51-1.26 5.25-5.11 5.26-8.64.12-4.69.02-9.4.01-14.09-4.2 1.98-8.95 3.31-12.26 6.73z"/><path d="m243.21 205.11c8.29-1.35 17.18-1.75 25.01 1.77 7.44 3.27 13.01 10.81 12.97 19.09.1 11.33-.03 22.67.05 34 .07 4.53-.68 9.2-3.23 13.04-4.28 6.69-12.27 10.02-19.96 10.55-8.8.69-18.53-.24-25.56-6.09-4.3-3.52-6.79-8.95-6.84-14.48-.02-11.98 0-23.95-.01-35.93-.07-5.87 2.06-11.9 6.43-15.93 3.1-2.97 7.12-4.68 11.14-6.02m4.42 16.8c-1.03403 1.37313-.87297 3.52073-.84 5.11.04 12.03-.13 24.06.08 36.09.55 5.41 8.07 6.35 11.57 3.24 2.07-2.25 1.58025-5.58 1.68025-8.38v-22.97c-.25-4.25.82975-8.89-1.22025-12.82-2.35-4.03-8.47-3.54-11.27-.27z"/><path d="m191.23 206.35 21.2.11-.07 74.86-21.21-.11z"/></g><path d="m387.77344-437.11914c-20.38571 19.48781-42.9045 56.80987-49.53125 70.57812 0 0 .39062-.24414 1.1289-.43164l1.36133-.37304c23.70668-6.11999 48.21456-8.05426 72.58789-9.26758 23.79167-.675 47.59369-.90312 71.39649-.91992 14.28168-.0101 28.56375.0565 42.84375.14648-22.05332 27.69332-40.65394 58.04094-55.94727 89.96094-25.93333 55.28-43.54651 115.19853-45.83984 176.47851 6.64385.57511 12.35546.74374 17.36133.77344 3.58891.0213 6.82404-.298 9.80859-.43164 1.68066-.0753 3.27436-.17934 4.81445-.30664.0404-.003.0828-.004.12305-.008.0126-.001.0245-.003.0371-.004.54339-.0457 1.07249-.098 1.60156-.15039.23257-.023.46919-.044.69922-.0684.008-.00084.0155-.001.0234-.002.4916-.0521.97407-.11177 1.45508-.16992.27703-.0335.5562-.0661.83007-.10157.56778-.0736 1.1277-.15391 1.6836-.23632.13974-.0207.28083-.0393.41992-.0606.0131-.002.026-.004.0391-.006.60904-.0934 1.21222-.19451 1.81055-.29883 2.99141-.52153 5.88158-1.19163 8.83594-1.99804.002-.00054.004-.001.006-.002.96813-.26432 1.96349-.55313 2.95507-.84961.41586-.12433.83225-.24686 1.25391-.37695.0146-.004.0303-.009.0449-.0137 1.07843-.33306 2.19795-.69119 3.32617-1.0625 1.6373-.53886 3.35352-1.1203 5.13868-1.74219l.0117-.4707c.72-24.32 5.00081-48.53323 10.49415-72.22657 10.26665-44.97332 27.1998-88.43996 50.45312-128.30664 15.32-26.01332 31.93328-51.72061 53.61328-72.94726 1.18792-1.29377 3.36679-2.46512 4.97852-3.01953-3.27536-10.56244-9.91256-24.94694-21.13868-41.98047-66.22665-.04-132.45302.17453-198.67968-.10547z" fill="#fff" stroke-width="1.333333" transform="matrix(.75 0 0 .75 -11.19 365.655981)"/></svg>