<?xml version="1.0" encoding="UTF-8" standalone="no"?>
<svg
   xmlns:dc="http://purl.org/dc/elements/1.1/"
   xmlns:cc="http://creativecommons.org/ns#"
   xmlns:rdf="http://www.w3.org/1999/02/22-rdf-syntax-ns#"
   xmlns:svg="http://www.w3.org/2000/svg"
   xmlns="http://www.w3.org/2000/svg"
   xmlns:sodipodi="http://sodipodi.sourceforge.net/DTD/sodipodi-0.dtd"
   xmlns:inkscape="http://www.inkscape.org/namespaces/inkscape"
   width="223.81131"
   height="92.323639"
   viewBox="0 0 223.81131 92.323639"
   version="1.1"
   id="svg47"
   sodipodi:docname="Radio Aktual - Dark.svg"
   inkscape:version="0.92.0 r15299">
  <metadata
     id="metadata51">
    <rdf:RDF>
      <cc:Work
         rdf:about="">
        <dc:format>image/svg+xml</dc:format>
        <dc:type
           rdf:resource="http://purl.org/dc/dcmitype/StillImage" />
        <dc:title>Logo/Full</dc:title>
      </cc:Work>
    </rdf:RDF>
  </metadata>
  <sodipodi:namedview
     pagecolor="#ffffff"
     bordercolor="#666666"
     borderopacity="1"
     objecttolerance="10"
     gridtolerance="10"
     guidetolerance="10"
     inkscape:pageopacity="0"
     inkscape:pageshadow="2"
     inkscape:window-width="1920"
     inkscape:window-height="1017"
     id="namedview49"
     showgrid="false"
     fit-margin-top="0"
     fit-margin-left="0"
     fit-margin-right="0"
     fit-margin-bottom="0"
     inkscape:zoom="3.5701036"
     inkscape:cx="82.165773"
     inkscape:cy="75.584565"
     inkscape:window-x="-8"
     inkscape:window-y="-8"
     inkscape:window-maximized="1"
     inkscape:current-layer="svg47" />
  <!-- Generator: Sketch 43.2 (39069) - http://www.bohemiancoding.com/sketch -->
  <title
     id="title2">Logo/Full</title>
  <desc
     id="desc4">Created with Sketch.</desc>
  <defs
     id="defs6" />
  <path
     style="fill:#ec1c24;fill-rule:nonzero;stroke:none;stroke-width:1"
     inkscape:connector-curvature="0"
     id="path8"
     d="M 86.603774,69.242727 C 90.59434,62.479091 92.801887,54.616364 92.801887,46.161818 92.801887,20.629091 72.084906,0 46.443396,0 20.801887,0 0,20.629091 0,46.161818 0,71.61 20.801887,92.323636 46.443396,92.323636 c 8.490566,0 16.386793,-2.282727 23.264151,-6.171818 l 23.179245,6.171818 z" />
  <path
     style="fill:#ffffff;fill-rule:nonzero;stroke:none;stroke-width:1"
     inkscape:connector-curvature="0"
     id="path10"
     d="M 66.990566,60.957273 53.40566,23.419091 c -1.35849,-3.804546 -3.650943,-5.664546 -6.962264,-5.664546 -1.188679,0 -4.924528,0 -6.962264,5.664546 L 25.811321,60.957273 v 0 c -0.254717,0.676363 -0.339623,1.437272 -0.339623,2.029091 0,3.043636 2.377359,5.410909 5.603774,5.410909 2.462264,0 4.584905,-1.521818 5.433962,-3.889091 l 2.037736,-6.171818 h 15.622641 l 2.207547,6.171818 c 0.849057,2.451818 2.886793,3.889091 5.433963,3.889091 3.141509,0 5.603773,-2.282727 5.603773,-5.410909 0,-0.591819 -0.169811,-1.268182 -0.424528,-2.029091 z M 50.603774,47.852727 h -8.320755 l 4.160377,-11.920909 z" />
  <path
     style="fill:#252060;fill-rule:nonzero;stroke:none;stroke-width:1;fill-opacity:1"
     inkscape:connector-curvature="0"
     id="path13"
     d="m 101.54717,65.26909 6.36793,-17.585454 c 0.67924,-1.86 1.69811,-2.959091 3.48113,-2.959091 1.78302,0 2.88679,1.099091 3.56604,2.959091 l 6.28301,17.585454 c 0.0849,0.253637 0.16982,0.591819 0.16982,0.93 0,1.437273 -1.18868,2.367273 -2.46227,2.367273 -1.10377,0 -2.03773,-0.676363 -2.37736,-1.775454 l -0.93396,-2.874546 h -8.49057 l -0.93396,2.874546 c -0.42453,1.183636 -1.27358,1.775454 -2.37736,1.775454 -1.27358,0 -2.46226,-0.93 -2.46226,-2.367273 0,-0.338181 0.0849,-0.676363 0.16981,-0.93 z m 12.73585,-5.664545 -2.71698,-8.200909 h -0.0849 l -2.71698,8.200909 z" />
  <path
     style="fill:#252060;fill-rule:nonzero;stroke:none;stroke-width:1;fill-opacity:1"
     inkscape:connector-curvature="0"
     id="path15"
     d="m 124.21698,47.345454 c 0,-1.606363 1.10378,-2.705454 2.54717,-2.705454 1.4434,0 2.54717,1.099091 2.54717,2.705454 v 7.862727 l 7.81132,-9.46909 c 0.59434,-0.676364 1.35849,-1.099091 2.12264,-1.099091 1.27359,0 2.29246,0.93 2.29246,2.282727 0,0.591818 -0.16981,1.183636 -0.59434,1.606364 l -5.09434,5.833636 6.0283,10.314545 c 0.33962,0.591818 0.42453,1.099091 0.42453,1.521818 0,1.352728 -1.01887,2.451819 -2.46227,2.451819 -1.01886,0 -1.86792,-0.507273 -2.46226,-1.521819 l -5.00943,-8.877272 -3.14151,3.889091 v 3.804545 c 0,1.606364 -1.10378,2.705455 -2.54717,2.705455 -1.5283,0 -2.54717,-1.099091 -2.54717,-2.705455 v -18.6 z" />
  <path
     style="fill:#252060;fill-rule:nonzero;stroke:none;stroke-width:1;fill-opacity:1"
     inkscape:connector-curvature="0"
     id="path17"
     d="M 150.45283,65.860909 V 49.628182 c 0,-0.169091 -0.0849,-0.169091 -0.16981,-0.169091 h -3.99057 c -1.5283,0 -2.54717,-0.93 -2.54717,-2.282728 0,-1.352727 1.01887,-2.282727 2.54717,-2.282727 h 13.58491 c 1.5283,0 2.54717,0.93 2.54717,2.282727 0,1.352728 -1.01887,2.282728 -2.54717,2.282728 h -3.99057 c -0.16981,0 -0.16981,0.08454 -0.16981,0.169091 v 16.317272 c 0,1.606364 -1.10377,2.705455 -2.54717,2.705455 -1.61321,-0.08455 -2.71698,-1.099091 -2.71698,-2.79 z" />
  <path
     style="fill:#252060;fill-rule:nonzero;stroke:none;stroke-width:1;fill-opacity:1"
     inkscape:connector-curvature="0"
     id="path19"
     d="M 164.63208,59.689091 V 47.345454 c 0,-1.606363 1.10377,-2.705454 2.54717,-2.705454 1.44339,0 2.54717,1.099091 2.54717,2.705454 v 12.512728 c 0,2.874545 1.69811,4.396363 3.99056,4.396363 2.37736,0 3.90566,-1.606364 3.90566,-4.396363 V 47.345454 c 0,-1.606363 1.10378,-2.705454 2.54717,-2.705454 1.5283,0 2.54717,1.099091 2.54717,2.705454 v 12.343637 c 0,5.918181 -3.73585,9.046363 -9.0849,9.046363 -5.43397,0 -9,-3.128182 -9,-9.046363 z" />
  <path
     style="fill:#252060;fill-rule:nonzero;stroke:none;stroke-width:1;fill-opacity:1"
     inkscape:connector-curvature="0"
     id="path21"
     d="m 184.92453,65.26909 6.36792,-17.585454 c 0.67925,-1.86 1.69812,-2.959091 3.48114,-2.959091 1.78301,0 2.88679,1.099091 3.56603,2.959091 l 6.28302,17.585454 c 0.0849,0.253637 0.16981,0.591819 0.16981,0.93 0,1.437273 -1.18867,2.367273 -2.46226,2.367273 -1.10377,0 -2.03774,-0.676363 -2.37736,-1.775454 l -0.93396,-2.874546 h -8.49057 l -0.93396,2.874546 c -0.33962,1.183636 -1.27358,1.775454 -2.37736,1.775454 -1.27358,0 -2.46226,-0.93 -2.46226,-2.367273 0,-0.338181 0.0849,-0.676363 0.16981,-0.93 z m 12.65094,-5.664545 -2.71698,-8.200909 h -0.0849 l -2.71698,8.200909 z" />
  <path
     style="fill:#252060;fill-rule:nonzero;stroke:none;stroke-width:1;fill-opacity:1"
     inkscape:connector-curvature="0"
     id="path23"
     d="m 207.59434,47.345454 c 0,-1.606363 1.10378,-2.705454 2.54717,-2.705454 1.4434,0 2.54717,1.099091 2.54717,2.705454 v 16.317273 c 0,0.169091 0.0849,0.169091 0.16981,0.169091 h 8.40566 c 1.5283,0 2.54717,0.93 2.54717,2.282727 0,1.352727 -1.01887,2.282727 -2.54717,2.282727 H 210.0566 c -1.5283,0 -2.54716,-1.014545 -2.54716,-2.536363 V 47.345454 Z" />
  <path
     style="fill:#252060;fill-rule:nonzero;stroke:none;stroke-width:1;fill-opacity:1"
     inkscape:connector-curvature="0"
     id="path27"
     d="m 120.99057,37.115455 -4.16038,-8.454546 h -0.16981 -5.17925 c -0.0849,0 -0.16981,0.08455 -0.16981,0.169091 v 7.862727 c 0,0.591818 -0.33962,0.93 -0.84905,0.93 -0.42453,0 -0.84906,-0.338182 -0.84906,-0.93 V 18.6 c 0,-0.507273 0.33962,-0.760909 0.84906,-0.760909 h 6.19811 c 3.73585,0 6.0283,2.029091 6.0283,5.495455 0,2.79 -1.5283,4.649999 -4.07547,5.241818 l 3.99057,7.947272 c 0.0849,0.169091 0.0849,0.253637 0.0849,0.422728 0,0.422727 -0.25472,0.760909 -0.84906,0.760909 -0.33962,-0.08455 -0.59434,-0.253636 -0.84906,-0.591818 z m 0,-13.865455 c 0,-2.536364 -1.5283,-3.889091 -4.4151,-3.889091 h -5.09434 c -0.0849,0 -0.16981,0.08455 -0.16981,0.169091 v 7.44 c 0,0.08455 0.0849,0.169091 0.16981,0.169091 h 5.09434 c 2.8868,0 4.4151,-1.437273 4.4151,-3.889091 z" />
  <path
     style="fill:#252060;fill-rule:nonzero;stroke:none;stroke-width:1;fill-opacity:1"
     inkscape:connector-curvature="0"
     id="path29"
     d="m 133.64151,36.523636 6.53774,-18.008181 c 0.16981,-0.591819 0.50943,-0.845455 1.01886,-0.845455 0.50944,0 0.84906,0.253636 1.01887,0.845455 l 6.45283,18.008181 c 0,0.08455 0.0849,0.169091 0.0849,0.338182 0,0.422727 -0.33962,0.760909 -0.76415,0.760909 -0.42453,0 -0.67924,-0.16909 -0.84906,-0.591818 l -1.69811,-4.65 h -8.66038 l -1.69811,4.65 c -0.16981,0.338182 -0.42453,0.591818 -0.84906,0.591818 -0.42452,0 -0.76415,-0.253636 -0.76415,-0.760909 0.0849,-0.08454 0.16981,-0.253636 0.16981,-0.338182 z M 144.93396,30.774546 141.28302,20.46 h -0.0849 l -3.73584,10.314546 z" />
  <path
     style="fill:#252060;fill-rule:nonzero;stroke:none;stroke-width:1;fill-opacity:1"
     inkscape:connector-curvature="0"
     id="path31"
     d="m 160.04717,18.6 c 0,-0.507273 0.33962,-0.760909 0.84906,-0.760909 h 5.26415 c 3.65094,0 5.77358,1.606364 6.70755,4.480909 0.42452,1.352727 0.59434,2.536364 0.59434,5.410909 0,2.874546 -0.16981,4.058182 -0.59434,5.410909 -0.93397,2.874546 -3.05661,4.480909 -6.70755,4.480909 h -5.34906 c -0.50943,0 -0.84905,-0.253636 -0.84905,-0.760909 V 18.6 Z m 1.78302,17.331818 h 3.99057 c 2.97169,0 4.5849,-1.014545 5.34905,-3.466363 0.33963,-1.183637 0.50944,-2.282728 0.50944,-4.819091 0,-2.536364 -0.16981,-3.635455 -0.50944,-4.819091 -0.84905,-2.451818 -2.37736,-3.466364 -5.34905,-3.466364 h -3.99057 c -0.0849,0 -0.16981,0.08455 -0.16981,0.169091 v 16.232727 c 0,0.08455 0.0849,0.169091 0.16981,0.169091 z" />
  <path
     style="fill:#252060;fill-rule:nonzero;stroke:none;stroke-width:1;fill-opacity:1"
     inkscape:connector-curvature="0"
     id="path33"
     d="m 185.17925,18.6 c 0,-0.591818 0.33962,-0.93 0.84905,-0.93 0.50944,0 0.84906,0.338182 0.84906,0.93 v 18.177273 c 0,0.591818 -0.33962,0.93 -0.84906,0.93 -0.50943,0 -0.84905,-0.338182 -0.84905,-0.93 z" />
  <path
     style="fill:#252060;fill-rule:nonzero;stroke:none;stroke-width:1;fill-opacity:1"
     inkscape:connector-curvature="0"
     id="path35"
     d="m 199.18868,33.395455 c -0.33962,-1.014546 -0.59434,-2.282728 -0.59434,-5.749091 0,-3.381819 0.25472,-4.65 0.59434,-5.749091 0.93396,-2.874546 3.14151,-4.396364 6.45283,-4.396364 3.22642,0 5.43396,1.521818 6.36793,4.396364 0.33962,1.014545 0.59434,2.282727 0.59434,5.749091 0,3.381818 -0.25472,4.65 -0.59434,5.749091 -0.93397,2.874545 -3.14151,4.480909 -6.36793,4.480909 -3.22641,-0.08455 -5.51887,-1.606364 -6.45283,-4.480909 z m 11.20755,-10.99091 c -0.76415,-2.198181 -2.37736,-3.297272 -4.75472,-3.297272 -2.46226,0 -4.07547,1.183636 -4.83962,3.297272 -0.25472,0.76091 -0.50944,2.029091 -0.50944,5.241819 0,3.212727 0.25472,4.480909 0.50944,5.241818 0.76415,2.198182 2.29245,3.297273 4.83962,3.297273 2.46227,0 4.07547,-1.183637 4.75472,-3.297273 0.25472,-0.760909 0.50943,-2.029091 0.50943,-5.241818 0,-3.212728 -0.25471,-4.480909 -0.50943,-5.241819 z" />
  <path
     style="fill:#252060;fill-rule:nonzero;stroke:none;stroke-width:1;fill-opacity:1"
     inkscape:connector-curvature="0"
     id="path40"
     d="m 141.70755,15.133636 c -0.16981,0.169091 -0.33962,0.338182 -0.59434,0.338182 -0.33962,0 -0.67924,-0.253636 -0.67924,-0.676363 0,-0.169091 0.0849,-0.338182 0.16981,-0.507273 l 2.12264,-2.451818 c 0.16981,-0.169091 0.25472,-0.253637 0.50943,-0.253637 0.42453,0 0.67925,0.338182 0.67925,0.676364 0,0.169091 -0.0849,0.338182 -0.16981,0.422727 z" />
</svg>
