<svg height="775.6745pt" viewBox="0 0 564.68854 775.6745" width="564.68854pt" xmlns="http://www.w3.org/2000/svg"><path d="m .01136 19.8502c-.39-10.57 9.32-19.9 19.76-19.85l525.03.01c10.87-.17 20.73 9.95 19.83 20.88l-15.02 733.97c0 5.13271-.95 8.06-3.38 11.32-5.66 4.87-13.53 4.11-20.46 4.19l-492.95 5.28c-9.18.48-18.62-6.2-19.58-15.64l-13.23-740.16"/><g fill="#fefefe" transform="translate(-198.18864 -92.1398)"><path d="m482.93 172.48 145.2 125.66 92.67025.04v11.17025h-474.36v-11.21025h87.48975z"/><path d="m426.26 339.52 28.78 66.67-10.31.01-6.86-16.6-23.18-.14-7.02 16.67025h-10.57zm-.17 22.66-7.62 18.34 15.4-.01z"/><path d="m584.7 340.89c7.94-1.76 16.61-.45 23.46 4.02 6.39 4.27 11.6 10.55 13.81 18 3.51 10.36 1.58 22.32-4.89 31.13-5.87 8.22-15.88 13.4-26.02 13.19-7.59-.22-15.11-3.14-20.71-8.3-11.77-10.66-14.52-30.01-5.74-43.33 4.47-7.24 11.82-12.66 20.09-14.71m3.41 9.14c-8.49 1.35-15.54 8.25-17.92 16.39-3.35 10.93 1.63 24.43 12.38 29.18 8.46 4.15 19.36 1.6 25.38-5.56 7.3-8.29 8.01-21.57 1.58-30.55-4.51-6.9-13.23-11.11-21.42-9.46z"/><path d="m467.8 341.35c11.32-.14 24.03-1.87 33.78 5.23 16.05 10.92 17.85 36.73 4.23 50.28-3.77 3.82-8.49 6.89-13.76 8.1-7.84 1.95-15.96.83-23.92 1.29zm9.82 9.23-.06 45.95c6.48.3 13.43-.17 18.85-4.13 10.35-7.58 11.55-23.94 3.98-33.84-5.32-6.82-14.6-8.5-22.77-7.98z"/><path d="m532.29 341.19 9.87.14.08 64.90975h-9.76z"/><path d="m347.85 341.28c7.88.08 16.27-1.23 23.7 2 11.31 5.42 12.82 22.76 3.64 30.83-2.14 2-4.89 3.13-7.68 3.89 6.22 9.46 12.69 18.74 18.95 28.17l-11.64.03c-5.81-8.67-11.51-17.41-17.17-26.18-.19 8.71.04 17.42-.13 26.13l-9.42.11c-.49-21.65-.01-43.32-.25-64.98m9.68 9.28c.11 6.45 0 12.91.08 19.37 4.13-.22 8.99-.04 11.98-3.45 2.64-3.48 2.75-8.79.38-12.42-3.09-3.5-8.14-3.5-12.44-3.5z"/><path d="m368.9 426.69 7.86-7.21 7.01 5.64-14.66 13.25-14.89-13.25 7.12-5.74z"/><path d="m604.34 419.47 7.94 5.75-15.01 12.97-5.45-4.32z"/><path d="m507.43 440.97 39.95 45.23.04-42.11 9.86-.19-.06 67.18-40.01-44.95-.67 42.75025-9.12-.0403.01-67.87z"/><path d="m598.56 441.45 28.45 67.14-10.59.02-6.97-16.83-22.9.02-7.13 16.79-10.44.03m21.44-26.05 15.27.08-7.39-17.97z"/><path d="m362.99 444.17c7.73-2.37 16.4-1.56 23.41 2.56l-.04 11.75c-4.25-3.58-9.59-6.29-15.27-6.06-8.61.26-16.49 6.22-19.74 14.09-5.14 11.41-.24 26.73 11.45 31.9 7.71 3.92 17.41 1.8 23.51-4.11l.06 11.81c-7.46 3.97-16.42 5.2-24.46 2.27-15.54-4.94-25.19-22.69-21.64-38.46 2.16-11.84 11.09-22.33 22.72-25.75z"/><path d="m405.16 443.87 33.44.21-.02 9.35-23.96.04-.02 15.13 23.55.09-.3 9.58-23.21.06.01 21.1 23.95.02-.02 9.33-33.43.08z"/><path d="m456.27 443.94c8.1.25 16.77-1.25 24.33 2.43 10.62 5.82 11.98 22.44 3.09 30.38-2.05 2.1-4.86 3.04-7.53 4.04 5.63 9.65 12.63 18.52 18.52 28.05l-11.65-.08c-4.92-7.38-9.79-14.81-14.58-22.28-.67-.96-1.23-2.05-2.31-2.59-.36 8.31.44 16.67-.3 24.99l-9.56.01c.06-21.65.08-43.3-.01-64.95m9.87 9.49c-.02 6.38-.03 12.76 0 19.14 4.53.1 10.26-.19 12.68-4.72 1.56-3.41 1.7-7.98-.61-11.1-3.03-3.41-7.88-3.37-12.07-3.32z"/><path d="m592.93 543.5.63-.23 28.37 67.06-10.35.12-7.14-17.06-22.92.03-7.1 16.97-10.33.04zm-7.49 40.81h15.2l-7.19-17.8z"/><path d="m359.36 545.4 9.86.1-.01 25.12 26.65.04.23-25.27 9.51.02-.02 65.01-9.47-.01-.19-30.22-26.69.02-.02 30.16-9.85.04z"/><path d="m452.09 545.1c16.29-3.88 33.56 7.83 37.29 23.88 4.17 14.71-2.74 31.87-16.42 38.96-10.53 5.71-24.37 4.45-33.72-3.02-12.18-9.36-16.42-27.51-9.73-41.31 4.19-9.17 12.66-16.37 22.58-18.51m1.34 9.49c-8.51 2.34-15.36 9.79-16.94 18.48-.8 5.16-.42 10.63 1.83 15.41 3.38 7.59 11.16 13.45 19.65 13.38 6.54.3 12.94-2.85 17.08-7.84 8.66-9.75 7.41-26.3-2.55-34.69-5.1-4.63-12.41-6.18-19.07-4.74z"/><path d="m512.25 545.27c8.24.55 17.21-1.41 24.78 2.77 9.99 5.93 11.2 21.29 3.43 29.48-2.28 2.43-5.39 3.74-8.46 4.83 6.16 9.41 12.53 18.69 18.85 28-3.97-.01-7.94.01-11.91-.05-5.64-8.73-11.21-17.5-17.12-26.04.42 8.71-.07 17.41.06 26.12-3.22-.05-6.43-.04-9.64-.1.07-21.67.05-43.34.01-65.01m9.96 9.39c-.75 6.34-.11 12.73-.41 19.1 4.17.58 8.88.14 12.02-2.96 2.43-2.84 2.34-6.96 1.64-10.41-1.98-5.32-8.43-5.71-13.25-5.73z"/></g><g transform="translate(-198.18864 -92.1398)"><path d="m227.93 104.55c170.36667 2.08328 511.1 6.25 511.1 6.25 4.79.43 10.68 3.74 10.53 9.17l-15.03 721.74c-.02 2.03-.43 4.32-2.14 5.65-2.2 1.39-4.9 1.23-7.38 1.27l-498.9 6.64c-.93736 0-1.57133-1.01929-1.62-1.96 0 0-8.66507-487.51336-13-731.27-.0741-4.1667.17273-9.17082 3.95072-13.14656 4.12244-4.33823 7.84265-4.40026 12.48928-4.34344zm9.41 25.79-.14 712.44 485.75665 1.5888c5.56529-.0274 7.18864.27154 7.27335-5.3488l.23-708.61z" fill="#fddb03"/><path d="m569.62 640.52c2.27427-1.91324 5.16515-3.68699 8.32-3.24 1.71564.24308 2.33637 2.22831 2.48 3.7.58638 6.00842-.03 12.07-.68 18.05-2.24 20.94-7.03 41.76-6.13 62.91.42 4.46 1.3 10.9 6.84 11.52 5.52.3 10.26-3.45 14.16-6.95 12.43-11.76 21.77-26.23 32.59-39.38 11.92-14.59 23.82939-29.34725 37.86-41.96 3.98511-3.58239 9.76089-11.50958 14.18-7.73 2.89564 2.47658 2.97182 6.43604 2.32267 10.57034l-1.39267 8.86966c-2.96251 18.86767-5.68 37.77-10.5 56.22-4.66 16.98-9.18 34-14.29 50.85-2.99 9.54-6 19.1-10.08 28.24.91-14.11 3.52-28.07 5.26-42.1 2.62-19.7 7.2-39.2 7.72-59.13-.2-2.55-.14-5.55-2.03-7.49-5.19-1.15-9.66 2.42-13.34 5.56-11.76 10.78-20.77 24.08-29.75 37.15-8.68 12.38-16.75 25.17-25.49 37.5-5.18 7.05-10.50984 14.13834-17.23 19.82-2.20988 1.86838-6.26633 4.65999-7.9 2.36-2.4735-3.48236-2.705-7.8729-2.44282-12.34232l.99495-19.06229c.29303-11.49653.41255-22.99558 1.17787-34.47539.23-7.66.1-15.33.16-22.99-.03-3.74.07-7.61-1.19-11.18-1.58-2.56-5.32-2.39-7.73-1.23-3.53 1.86-6.26 4.91-8.78 7.93-12.32 15.69-22.5 32.9-34.22 49.03-10.59 15.29-21.56 30.32-33.1 44.9-6.25 7.69-11.55708 16.77926-19.97 22.01-1.47214.91531-3.58594 2.4327-5 1.43-2.14502-1.52102-2.16001-4.30048-1.74647-7.26254l1.5978-16.76971c1.55861-17.19811 5.14628-34.22773 7.45867-51.35775 1.59-11.51 3.54-22.98 4.54-34.55.04-4.97.74-10.69-2.61-14.81-1.87-2.51-5.77-2.3-8.11-.6-5.86 3.8-9.56 9.93-13.59 15.47-15.13 22.71-28.62 46.49-44.12 68.97-4.01 5.49-8.1236 11.10209-13.58 15.28-1.71722 1.31486-4.1163 2.43217-5.86 1.41-1.70529-.99965-1.80047-3.54175-1.89-5.57-.49066-11.11591 1.02-22.17 1.97-33.21 1.42-16.25 3.7-32.51 2.88-48.86-.5-4.64-.84-9.68-3.82-13.52-1.72-2.16-4.96-1.23-6.83.22-5.9 4.37-9.99 10.57-14.45 16.28-17.14 24.06-31.20446 50.07375-47.87 74.48l-8.94293 13.09669c-2.34722 3.43745-5.64225 5.93789-9.56707 7.28331-1.92661.66044-3.27099-2.74086-3.81-4.84-1.26168-4.91353-1.52-10.02-1.2-15.05 1.12-14.34 3.8-28.55 7.56-42.42 1.16-3.28 1.51-7.05 3.95-9.7.02 11.06-3.51521 22.08735-1.54 33.16.4348 2.43741 1.69453 6.03274 4.05 5.69 5.69587-.82879 8.64301-7.29501 11.95-11.81 12.13435-16.56685 22.49-34.35 33.4-51.73 10.96-17.16 21.27463-34.86033 34.36-50.52 3.43732-4.11355 7.18815-8.54657 12.46-10.24 1.60995-.51715 3.4308.3728 4.05 1.82 1.98173 4.63172 1.42691 9.87607 1.18 14.82-1.03339 20.69196-5.14 41.17-5.12 61.93.21 5.21.2 10.96 3.45 15.34 2.07 2.54 5.92 1.49 8.17-.27 5.57-4.24 9.71-9.99 13.82-15.58 10.22-14.36 19.47-29.39 30.14-43.43 7.69-9.99 15.01305-20.43339 24.4-28.93 2.84429-2.57451 6.65174-6.69901 10.52-4.77 3.90146 1.94557 2.97683 7.78854 2.98 11.72.0168 20.85187-4.92 41.29-7.81 61.86-1.33 10.68-3.85 21.28-3.61 32.11-.02 1.86.63 3.63 1.25 5.37 5.49 3.21 10.87-1.49 14.68-5.12 12.26-12.33 21.67-27.06 32.07-40.91 11.08-15.25 22.33-30.38 33.78-45.36 5.05-6.56 10.22922-13.12898 16.59-18.48z" fill="#fddb03"/></g></svg>