<?xml version="1.0" encoding="UTF-8" standalone="no"?>
<!-- Generator: Adobe Illustrator 19.0.0, SVG Export Plug-In . SVG Version: 6.00 Build 0)  -->

<svg
   xmlns:dc="http://purl.org/dc/elements/1.1/"
   xmlns:cc="http://creativecommons.org/ns#"
   xmlns:rdf="http://www.w3.org/1999/02/22-rdf-syntax-ns#"
   xmlns:svg="http://www.w3.org/2000/svg"
   xmlns="http://www.w3.org/2000/svg"
   xmlns:sodipodi="http://sodipodi.sourceforge.net/DTD/sodipodi-0.dtd"
   xmlns:inkscape="http://www.inkscape.org/namespaces/inkscape"
   version="1.1"
   id="Layer_1"
   x="0px"
   y="0px"
   viewBox="0 0 14.20828 9.4227296"
   xml:space="preserve"
   sodipodi:docname="RockZone 105,9.svg"
   width="14.20828"
   height="9.4227295"
   inkscape:version="0.92.0 r15299"><metadata
     id="metadata37"><rdf:RDF><cc:Work
         rdf:about=""><dc:format>image/svg+xml</dc:format><dc:type
           rdf:resource="http://purl.org/dc/dcmitype/StillImage" /><dc:title></dc:title></cc:Work></rdf:RDF></metadata><defs
     id="defs35" /><sodipodi:namedview
     pagecolor="#ffffff"
     bordercolor="#666666"
     borderopacity="1"
     objecttolerance="10"
     gridtolerance="10"
     guidetolerance="10"
     inkscape:pageopacity="0"
     inkscape:pageshadow="2"
     inkscape:window-width="1920"
     inkscape:window-height="1017"
     id="namedview33"
     showgrid="false"
     fit-margin-top="0"
     fit-margin-left="0"
     fit-margin-right="0"
     fit-margin-bottom="0"
     inkscape:zoom="64"
     inkscape:cx="7.9987782"
     inkscape:cy="4.3633298"
     inkscape:window-x="-8"
     inkscape:window-y="-8"
     inkscape:window-maximized="1"
     inkscape:current-layer="Layer_1" /><style
     type="text/css"
     id="style2">
	.st0{fill-rule:evenodd;clip-rule:evenodd;}
	.st1{fill:none;stroke:#FFFFFF;stroke-width:0.0766;stroke-linecap:round;stroke-linejoin:round;stroke-miterlimit:2.6131;}
	.st2{fill:none;stroke:#FFFFFF;stroke-width:0.0704;stroke-linecap:round;stroke-linejoin:round;stroke-miterlimit:2.6131;}
	.st3{fill:none;stroke:#FFFFFF;stroke-width:0.0725;stroke-linecap:round;stroke-linejoin:round;stroke-miterlimit:2.6131;}
	.st4{fill:none;stroke:#FFFFFF;stroke-width:0.0542;stroke-linecap:round;stroke-linejoin:round;stroke-miterlimit:2.6131;}
	.st5{fill:none;stroke:#FFFFFF;stroke-width:0.0763;stroke-linecap:round;stroke-linejoin:round;stroke-miterlimit:2.6131;}
</style><path
     id="XMLID_80_"
     class="st1"
     d="m 1.0894338,4.9668006 c 0,-0.66 0.3,-4.77000001 0.3,-2.9 0,3.08 0.18,0.79 0.18,-1.09000001 0,-1.27 -1.26999998,5.74000001 -0.42,1.51000001 0.48,-2.54000001 0.42,-1.93000001 0,0.42 -0.65999998,3.45 0,0.36 0,-1.27 0,-2.54000001 -0.47999998,2.78 -0.35999998,1.99 L 1.0894338,0.96680059 c 0.24,-1.93 0,4.35000001 0,3.08000001 0,-1.75 -0.47999998,-3.63000001 1.15,-2.84 1.15,0.54 -2.47999998,2.9 -0.12,1.33 1.09,-0.73 0.73,-1.75000001 -0.6,-1.75000001 -0.3,0 0.85,0.06 0.97,0.30000001 0.36,0.79 0.3,1.33 -0.6,1.69 -0.49,0.2 -3.27,-0.1 -0.91999998,-0.1 0.59999998,0 1.62999998,-0.97 1.08999998,-1.51 -1.92999998,-1.94000001 0.36,0.06 0.36,0.96 0,0.3 -1.86999998,0.6 -1.62999998,0.73 l 1.20999998,0.54 c 1.69,0.79 0.91,0.85 -0.36,-0.42 l 1.39,1.39"
     inkscape:connector-curvature="0"
     style="fill:none;stroke:#ee0017;stroke-width:0.0766;stroke-linecap:round;stroke-linejoin:round;stroke-miterlimit:2.61310005;stroke-opacity:1" /><path
     id="XMLID_79_"
     class="st1"
     d="m 4.4894338,1.0968006 c -1.39,-0.18000001 -2,2.66 -0.79,3.26 1.51,0.73 2.36,-1.81 1.87,-2.78 -1.57,-3.14 -3.68,3.57 -0.66,2.06 0.66,-0.3 1.15,-2.36 0.24,-2.78000001 -2.24,-1.09 -2.36,2.78000001 -1.09,2.78000001 0.54,0 0.66,0.3 1.33,-0.12 0.97,-0.67 0.48,-2.60000001 -0.6,-2.60000001 -2.48,0 -1.51,4.17000001 0.6,2.78000001 2.36,-1.57 -1.39,-3.87000001 -1.39,-2.18"
     inkscape:connector-curvature="0"
     style="fill:none;stroke:#ee0017;stroke-width:0.0766;stroke-linecap:round;stroke-linejoin:round;stroke-miterlimit:2.61310005;stroke-opacity:1" /><path
     id="XMLID_78_"
     class="st1"
     d="m 5.6394338,1.7368006 c -1.51,-1.87000001 -2.72,2.12 -1.15,2.6 1.27,0.42 2.36,-1.93 1.63,-2.66 -0.9,-0.91000001 -2.23,-0.42 -2.66,0.91 -0.79,2.48 3.69,1.87 2.48,-0.6 -0.97,-1.94000001 -2.84,-0.07 -2.84,1.26 0,0.85 1.51,1.15 2.05,1.15 1.93,0 0.42,-5.62 -1.45,-3.08 -0.54,0.72 -0.12,3.69 1.21,2.84 0.18,-0.12 1.69,-2.78 0.66,-2.78"
     inkscape:connector-curvature="0"
     style="fill:none;stroke:#ee0017;stroke-width:0.0766;stroke-linecap:round;stroke-linejoin:round;stroke-miterlimit:2.61310005;stroke-opacity:1" /><path
     id="XMLID_77_"
     class="st1"
     d="m 9.0194338,1.8968006 c -0.84,-1.75000001 -2.17,-0.42 -1.81,1.09 0.18,0.73 0.12,1.21 0.97,1.21 0.42,0 0.54,-0.66 0.54,-0.42 0,1.21 -2.18,0.18 -2.18,-1.09 0,-0.73 1.27,-1.87000001 1.69,-1.03 0.67,1.39 -0.41,-1.51000001 -0.96,0.18 -0.12,0.48 -0.54,1.87 0,2.12 0.85,0.42 1.09,-0.07 1.21,-0.73 0,-0.24 0.36,1.57 -0.6,0.97 -0.97,-0.67 -1.76,-2.48 -0.37,-3.39000001 1.03,-0.66 1.09,1.81000001 1.09,0.97000001 0,-1.15000001 -1.27,-0.18 -1.45,0.18 -1.93,3.26 2.36,1.57 1.81,1.57"
     inkscape:connector-curvature="0"
     style="fill:none;stroke:#ee0017;stroke-width:0.0766;stroke-linecap:round;stroke-linejoin:round;stroke-miterlimit:2.61310005;stroke-opacity:1" /><path
     id="XMLID_76_"
     class="st1"
     d="m 8.8794338,1.7168006 c 0,-2.12000001 -3.44,2.36 -0.3,2.36 0.18,0 -1.21,-0.18 -1.21,-2.48 0,-0.60000001 3.0800002,-0.79000001 0.91,-0.79000001 -1.21,0 -0.97,1.69000001 -0.97,2.60000001 0,0.85 1.75,1.09 1.99,0.3 0.6,-1.93 -2.06,2.18 -2.06,-1.51 0,-1.87000001 0.66,-0.67 -0.24,0.24 -0.9,0.91 0.85,1.75 1.4,1.93 0.3,0.06 2.1800002,-2.42 0.18,-0.85 -1.09,0.85 -1.63,-1.74 -1.15,-2.23 0.12,-0.12 0.97,-0.42000001 1.39,-0.24 0.18,0.06 0.12,1.15 0.12,1.03"
     inkscape:connector-curvature="0"
     style="fill:none;stroke:#ee0017;stroke-width:0.0766;stroke-linecap:round;stroke-linejoin:round;stroke-miterlimit:2.61310005;stroke-opacity:1" /><path
     id="XMLID_75_"
     class="st1"
     d="m 9.7794338,3.8168006 0.06,-3.08000001 C 10.629434,3.2168006 10.629434,-2.2831994 10.259434,1.2768006 l -0.3600002,2.96 c 0,0.24 0,-0.54 0,-0.6 L 10.199434,0.97680059"
     inkscape:connector-curvature="0"
     style="fill:none;stroke:#ee0017;stroke-width:0.0766;stroke-linecap:round;stroke-linejoin:round;stroke-miterlimit:2.61310005;stroke-opacity:1" /><path
     id="XMLID_74_"
     class="st1"
     d="m 13.269434,0.79680059 -2.6,1.27000001 c -2.2400002,1.09 -4.8300002,1.87 -1.0900002,0.06 l 0.24,-0.12 c 1.0900002,-0.48 4.8300002,-0.97 1.9900002,-0.06 -0.12,0 1.21,-1.75000001 0.54,-0.66 -1.21,1.93 -2.4200002,0.3 0.79,1.87 2.06,1.03 -3.3800002,-1.27 -1.87,-0.79 0.73,0.24 2.42,1.57 2.9,1.57"
     inkscape:connector-curvature="0"
     style="fill:none;stroke:#ee0017;stroke-width:0.0766;stroke-linecap:round;stroke-linejoin:round;stroke-miterlimit:2.61310005;stroke-opacity:1" /><path
     id="XMLID_73_"
     class="st1"
     d="m 10.759434,0.55680059 -0.42,3.02000001 c 0,0.42 0.54,-2.3 0.18,-2.66000001 -0.18,-0.18 -0.3,6.16000001 -0.3,1.09000001 0,-0.79 0.24,-1.69000001 0.24,-0.24 0,2.48 -0.8500002,2.6 0,0.85 0.3,-0.6 2.18,-0.66 2.72,-1.75000001 0.24,-0.54 -1.63,0.36000001 -1.93,0.60000001 -1.15,0.85 0.97,0.48 1.51,0.24 1.09,-0.54 -2.48,0.48 -1.21,0.85 3.14,0.85 1.87,2.9 0.67,0.48 -0.42,-0.85 -2.6000002,-0.79 -0.06,0.18 0.18,0.06 0.36,0.36 0.54,0.48 2.12,1.39 -3.1400002,-1.15 -1.27,-1.75 1.45,-0.48 1.81,-0.42 0.12,-0.12 -1.8700002,0.36 0.73,0.42 1.33,-0.18 0.24,-0.24 -1.57,0.3 -1.87,0.6 -0.06,0.06 -0.36,-0.85 -0.36,-1.09 0,-1.33000001 -0.6,0.54 -0.6,1.15 l 0.06,1.51 c 0,0.18 0.12,0.54 0.12,0.48"
     inkscape:connector-curvature="0"
     style="fill:none;stroke:#ee0017;stroke-width:0.0766;stroke-linecap:round;stroke-linejoin:round;stroke-miterlimit:2.61310005;stroke-opacity:1" /><path
     id="XMLID_72_"
     class="st1"
     d="m 1.2094338,2.7568006 c 0.4,0.16 0.65,0.5 0.93,0.78 0.87,0.87 0.43,0.56 -0.31,-0.06 -1.88999998,-1.56 1.65,1.76 0.75,0.86 -0.34,-0.34 -1.85999998,-2.05 -0.81,-0.99 0.53,0.53 2.39,1.8 0.9,0.68 -0.22,-0.15 -1.4,-1.33 -0.87,-0.53 0.13,0.19 0.75,1.12 1,1.12"
     inkscape:connector-curvature="0"
     style="fill:none;stroke:#ee0017;stroke-width:0.0766;stroke-linecap:round;stroke-linejoin:round;stroke-miterlimit:2.61310005;stroke-opacity:1" /><line
     id="XMLID_71_"
     class="st1"
     x1="1.0294337"
     y1="5.5468006"
     x2="1.1194339"
     y2="1.8568006"
     style="fill:none;stroke:#ee0017;stroke-width:0.0766;stroke-linecap:round;stroke-linejoin:round;stroke-miterlimit:2.61310005;stroke-opacity:1" /><line
     id="XMLID_70_"
     class="st1"
     x1="7.3194332"
     y1="3.3868005"
     x2="12.299434"
     y2="1.5668006"
     style="fill:none;stroke:#ee0017;stroke-width:0.0766;stroke-linecap:round;stroke-linejoin:round;stroke-miterlimit:2.61310005;stroke-opacity:1" /><path
     id="XMLID_69_"
     class="st1"
     d="m 7.4694338,1.5068006 c 0.53,-0.84000001 1.03,0 1.29,0.4 0.32,0.47 -0.05,-0.47 -0.37,-0.63 -0.44,-0.22 -0.81,0.05 -0.78,0.05 0.5,0 1.24,0.98 1.24,0.34 0,-0.34 -0.69,-1.03000001 -0.98,-0.61 -0.47,0.71 -1.11,2.4 0.34,2.4 1.24,0 0.4,0.9 -0.63,0.4"
     inkscape:connector-curvature="0"
     style="fill:none;stroke:#ee0017;stroke-width:0.0766;stroke-linecap:round;stroke-linejoin:round;stroke-miterlimit:2.61310005;stroke-opacity:1" /><path
     id="XMLID_68_"
     class="st1"
     d="m 1.0694338,0.80680059 c 0.73,0 1.6,0.02 1.43,0.87000001 -0.13,0.68 -1.22,0.62 -1.41,1 -0.12999998,0.26 0.75,-0.27 0.86,-0.47 0.15,-0.26 0.41,-1.28000001 -0.17,-1.28000001 -2.61999998,0 1.47,-0.47 0.66,0.96000001 -0.17,0.3 -1.02,0.98 -0.77,1.34 0.08,0.14 1.71,1.29 0.92,1.1 -0.37,-0.09 -1.37,-0.94 -1.52,-1.26"
     inkscape:connector-curvature="0"
     style="fill:none;stroke:#ee0017;stroke-width:0.0766;stroke-linecap:round;stroke-linejoin:round;stroke-miterlimit:2.61310005;stroke-opacity:1" /><path
     id="XMLID_67_"
     class="st1"
     d="m 5.3994338,4.9968006 c -1.35,-0.67 -1.72,1.34 -1.04,1.77 1.16,0.79 2.2,-0.55 1.28,-1.47 -0.73,-0.73 -1.77,-0.18 -1.77,0.92 0,0.86 2.08,1.16 2.08,-0.06 0,-1.28 -1.59,-2.02 -2.02,-0.61 -1.28,3.85 4.83,-0.79 0.98,-0.79 -2.99,0 1.22,4.77 1.22,1.22 0,-2.14 -3.73,-0.43 -1.65,0.98 0.86,0.55 1.89,-0.06 1.89,-1.04 0,-1.47 -2.32,-1.41 -2.32,0.43 0,1.1 2.44,1.65 2.44,0 0,-3.48 -4.03,-0.49 -2.32,0.61 2.14,1.4 3.55,-1.96 0.98,-1.96 -1.65,0 -0.73,2.14 0.92,2.14 0.73,0 0.31,-2.14 -0.79,-2.14 -2.14,0 -0.61,2.38 1.1,1.83 0.98,-0.31 -0.49,-1.59 -1.22,-1.53 -0.18,0 -0.79,0.18 -0.79,0.31 v 0.49"
     inkscape:connector-curvature="0"
     style="fill:none;stroke:#ffd000;stroke-width:0.0766;stroke-linecap:round;stroke-linejoin:round;stroke-miterlimit:2.61310005;stroke-opacity:1" /><path
     id="XMLID_66_"
     class="st1"
     d="m 7.0194338,7.1668006 0.3,-2.33 c 0.24,-1.65 -0.12,2.14 -0.12,0.37 0,-1.96 0.12,4.09 0.12,1.65 v -0.98 c 0,-0.43 0,1.28 0,0.37 0,-3.18 2.57,2.2 1.96,0.24 -0.12,-0.43 -0.12,-2.32 -0.12,-1.71 0,0.61 0.06,2.26 0.06,0.73 0,-1.77 0.18,2.08 0,0.12 -0.18,-2.08 0.06,1.59 0.06,0.43 0,-2.57 0.8600002,-0.43 0.37,0.61 0,0.06 -0.06,0.12 -0.06,-0.49 0,-0.18 -0.06,-1.47 0,-0.73 0.18,1.83 0,-1.71 0,-0.31 v 0.73 c 0,2.02 -0.98,-0.37 -1.53,-0.92 -0.74,-0.72 0.18,0.93 0.48,1.24 1.04,1.04 -2.93,-2.02 0.12,-0.24 2.8700002,1.65 -0.79,-0.73 -0.79,-0.12 0,1.1 -0.49,0.37 -0.67,-0.37 -0.06,-0.25 -0.31,1.77 0.37,-0.31 0.12,-0.37 1.65,1.95 2.08,1.1"
     inkscape:connector-curvature="0"
     style="fill:none;stroke:#ffd000;stroke-width:0.0766;stroke-linecap:round;stroke-linejoin:round;stroke-miterlimit:2.61310005;stroke-opacity:1" /><path
     id="XMLID_65_"
     class="st1"
     d="m 10.529434,4.8068006 c 0,1.83 3.79,2.32 1.83,2.32 h -1.47 c -0.49,0 -0.49,-1.1 -0.18,-1.22 2.38,-1.16 -0.18,1.53 -0.18,-0.92 0,-0.37 2.75,-0.06 0.92,-0.06 -0.92,0 -0.79,0.06 -0.61,0.98 0.31,1.77 -0.12,-1.41 -0.12,-0.92 l 0.06,0.98 c 0.12,1.65 -0.24,0 -0.18,-0.79 0.06,-0.79 1.34,-0.55 1.34,-0.55 -4.2200002,0 5.13,0.24 0,0.24 -0.18,0 0.73,-0.06 0.12,0 2.08,0 -0.37,-0.18 -0.92,-0.18 -0.37,0 -0.61,0.86 -0.61,1.22 0,0.24 -0.37,0.06 1.34,0.06 h 0.43 c 0.92,0 -1.83,-0.06 -1.53,0.98 0.06,0.31 0.49,0.37 0.79,0.37 2.32,0 -1.41,-0.18 1.59,-0.18 0.55,0 -7.2100002,-0.18 -1.83,-0.18 h 1.83"
     inkscape:connector-curvature="0"
     style="fill:none;stroke:#ffd000;stroke-width:0.0766;stroke-linecap:round;stroke-linejoin:round;stroke-miterlimit:2.61310005;stroke-opacity:1" /><path
     id="XMLID_64_"
     class="st1"
     d="m 0.74943382,4.8368006 c 3.35999998,0 3.05999998,0.49 0.97999998,1.71 -1.70999998,1.04 2.81,0.31 1.34,0.37 l -2.31999998,0.12 c -0.12,0 4.57999998,-2.08 1.88999998,-2.08 -3.47999998,0 0.18,-0.12 -1.16,-0.12 -0.48999998,0 -1.09999998,0.18 -0.18,0.18 2.2,0 2.08,-0.31 1.04,1.28 -0.43,0.62 -1.16,0.31 -1.58999998,0.74 0,0 -0.49,0.06 0.24,0.06 l 1.82999998,-0.06 c -3.72999998,0 0.61,-0.67 0.61,-1.96"
     inkscape:connector-curvature="0"
     style="fill:none;stroke:#ffd000;stroke-width:0.0766;stroke-linecap:round;stroke-linejoin:round;stroke-miterlimit:2.61310005;stroke-opacity:1" /><path
     id="XMLID_63_"
     class="st2"
     d="m 0.84943382,5.0068006 c 1.65999998,0 3.03999998,0.19 0.62999998,0.19 -0.84999998,0 -0.96999998,0.03 0.19,0.03 0.63,0 2.32,-0.44 1.04,0.35 l -1.88999998,1.09 c -0.75,0.47 1.37999998,0.25 1.78999998,0.19 1.07,-0.16 -3.03999998,0.41 -1.29,-0.35 0.47,-0.18 0.88,-0.34 1.26,-0.69 0.13,-0.09 0.53,-0.38 0.56,-0.47 0,-0.06 0.28,-0.41 0.28,-0.38"
     inkscape:connector-curvature="0"
     style="fill:none;stroke:#ffd000;stroke-width:0.0704;stroke-linecap:round;stroke-linejoin:round;stroke-miterlimit:2.61310005;stroke-opacity:1" /><path
     id="XMLID_62_"
     class="st2"
     d="m 7.1994338,7.2868006 0.07,-2.38 c 0.02,-0.59 0.48,-0.2 0.68,0.21 0.23,0.46 0.75,0.76 1.1,1.17 0.59,0.68 0.23,-0.96 0.27,-1.4 0.11,-1.4 0.28,1.64 0.36,2.22 0.04,0.3 -0.73,-0.82 -0.94,-1.03 -0.2,-0.2 -1.4,-0.84 -1.4,-0.75 -0.05,0.39 0.3,1.78 0,2.08 -0.24,0.23 -0.4,-1.19 -0.4,-1.3 0,-0.75 0.12,-1.46 1.01,-1.21 0.48,0.12 0.59,0.89 0.94,1.24 0.84,0.84 0.69,-0.57 0.69,-1.17 0,-1.01 0.09,0.14 0.09,0.62 0,0.53 0.28,0 0.09,-0.2"
     inkscape:connector-curvature="0"
     style="fill:none;stroke:#ffd000;stroke-width:0.0704;stroke-linecap:round;stroke-linejoin:round;stroke-miterlimit:2.61310005;stroke-opacity:1" /><path
     id="XMLID_61_"
     class="st2"
     d="m 10.629434,4.5168006 0.11,1.87 c 0.08,1.41 -0.53,-3.39 -0.13,-0.85 0.03,0.19 -0.05,1.28 0.13,1.28 0.45,0 3.23,-0.16 1.68,-0.16 -0.29,0 -1.73,0.35 -1.73,-0.19 0,-0.96 1.63,-0.13 1.63,-0.61 0,-0.29 -1.71,0.32 -1.84,-0.59 -0.11,-0.72 0.67,-0.48 1.2,-0.48 0.35,0 2.32,-0.27 1.15,-0.27 -0.8,0 -2.03,-0.19 -2.03,0.72 0,0.61 0.69,0.53 1.12,0.53 0.08,0 -0.11,0.16 -0.13,0.16 -0.21,0.05 -0.83,0.05 -0.88,0.24 -0.13,0.43 0.37,0.48 0.64,0.48 2.21,0 -0.05,0.16 -1.12,0.16 -1.7600002,0 -0.03,-0.16 0.83,-0.16"
     inkscape:connector-curvature="0"
     style="fill:none;stroke:#ffd000;stroke-width:0.0704;stroke-linecap:round;stroke-linejoin:round;stroke-miterlimit:2.61310005;stroke-opacity:1" /><path
     id="XMLID_60_"
     class="st3"
     d="m 9.9894338,7.6168006 c -0.04,0.37 -0.76,1.3 -0.31,1.58 0.6600002,0.41 0.6900002,-0.95 0.5800002,-1.18 -0.19,-0.4 -0.5800002,0 -0.6700002,0.16 -0.35,0.62 0.01,0.97 0.5300002,1.03 0.55,0.05 0.41,-0.89 0.28,-1.17 -0.19,-0.45 -0.7100002,0.33 -0.7100002,0.57 0,0.14 -0.03,0.46 0.14,0.54 0.4800002,0.21 0.7000002,-0.42 0.5400002,-0.77 -0.12,-0.24 0.14,-0.73 -0.35,-0.59 -0.4700002,0.13 -0.4600002,0.79 -0.2700002,1.16 0.09,0.18 0.4300002,0.34 0.6100002,0.22 0.3,-0.2 0.13,-0.7 0.13,-1.01"
     inkscape:connector-curvature="0"
     style="fill:none;stroke:#ffd000;stroke-width:0.0725;stroke-linecap:round;stroke-linejoin:round;stroke-miterlimit:2.61310005;stroke-opacity:1" /><path
     id="XMLID_59_"
     class="st4"
     d="m 8.2094338,8.3268006 c 0.26,-0.07 0.47,-0.34 0.69,-0.45 0.47,-0.25 -0.15,2.04 0.05,1.13 l 0.23,-1.03 c 0.07,-0.3 -0.63,0.32 -0.92,0.29 -0.08,-0.01 0.48,-0.32 0.62,-0.37 0.54,-0.2 0.38,1.03 0.21,1.4 -0.21,0.49 0.12,-0.99 0.04,-1.21 -0.01,-0.03 -0.59,0.19 -0.68,0.26 -0.07,0.05 0.63,-0.78 0.76,-0.62 0.06,0.07 -0.13,0.93 0,0.2 l -0.12,0.71"
     inkscape:connector-curvature="0"
     style="fill:none;stroke:#ffd000;stroke-width:0.0542;stroke-linecap:round;stroke-linejoin:round;stroke-miterlimit:2.61310005;stroke-opacity:1" /><path
     id="XMLID_58_"
     class="st4"
     d="m 11.559434,7.8568006 -0.59,0.04 c -0.16,0.01 1.26,-0.02 0.72,-0.08 -0.53,-0.04 -0.8,-0.03 -0.8,0.5 0,0.36 1.19,-0.28 0.95,0.57 -0.1,0.33 -0.56,0.24 -0.86,0.3 -0.09,0.01 0.69,0.13 0.69,-0.35 0,-0.44 -0.59,-0.24 -0.69,-0.43 -0.27,-0.55 0.05,0.64 0.06,0.09 l 0.01,-0.47 c 0.01,-0.29 0.69,0.07 0.96,-0.06 l 0.02,-0.01 c 0.13,-0.06 -0.99,-0.11 -1.03,0.01 -0.18,0.67 0.31,0.17 0.63,0.42 0.24,0.18 0.04,0.62 -0.19,0.62 h -0.25 c -0.05,0 -0.52,-0.06 -0.35,0.11 0.09,0.09 0.53,0.01 0.65,-0.02 0.23,-0.06 -0.75,-0.1 -0.63,-0.09 l 0.63,0.09"
     inkscape:connector-curvature="0"
     style="fill:none;stroke:#ffd000;stroke-width:0.0542;stroke-linecap:round;stroke-linejoin:round;stroke-miterlimit:2.61310005;stroke-opacity:1" /><path
     id="XMLID_57_"
     class="st4"
     d="m 12.149434,8.9668006 c -0.09,0.1 -0.13,0.19 -0.16,0.32 -0.06,0.24 0.25,-0.04 0.25,-0.31 0,-0.23 -0.11,0.04 -0.13,0.14 -0.06,0.26 0.14,-0.1 0.14,-0.3 0,-0.09 -0.25,0.26 -0.27,0.3"
     inkscape:connector-curvature="0"
     style="fill:none;stroke:#ffd000;stroke-width:0.0542;stroke-linecap:round;stroke-linejoin:round;stroke-miterlimit:2.61310005;stroke-opacity:1" /><path
     id="XMLID_56_"
     class="st5"
     d="m 13.059434,7.7968006 c -0.25,-0.07 -0.55,0 -0.55,0.33 0.03,0.82 1.26,0.1 0.76,-0.29 -0.25,-0.19 -0.62,-0.07 -0.71,0.22 -0.12,0.42 0.47,0.64 0.66,0.26 0.13,-0.27 -0.02,-0.47 -0.29,-0.42 -0.3,0.05 -0.73,0.46 -0.26,0.63 0.4,0.14 0.59,0.09 0.72,-0.34 0.04,-0.15 -0.03,-0.21 -0.14,-0.27 -0.29,-0.16 -0.11,-0.09 -0.03,0.01 0.13,0.17 0.21,0.36 0.15,0.57 -0.09,0.3 -0.2,0.98 -0.64,0.64 -0.41,-0.31 0.3,0.17 0.39,-0.13 l 0.18,-0.63 c 0,0 0.09,0.61 -0.19,0.81 -0.09,0.07 -0.57,-0.12 -0.63,-0.22 -0.13,-0.24 0.2,0.01 0.29,0.05 0.36,0.15 0.81,-0.33 0.67,-0.7 -0.04,-0.1 -0.52,-0.54 -0.59,-0.31"
     inkscape:connector-curvature="0"
     style="fill:none;stroke:#ffd000;stroke-width:0.0763;stroke-linecap:round;stroke-linejoin:round;stroke-miterlimit:2.61310005;stroke-opacity:1" /></svg>