<svg width="564.37pt" height="369.14pt" version="1.1" viewBox="0 0 564.37 369.14" xmlns="http://www.w3.org/2000/svg">
 <g transform="translate(-19.206 -23.65)" fill="#e2000b">
  <path d="m63.57 24.75c3.43-0.67 6.93-1.1 10.43-1.1 151.68 0.01 303.35 0.01 455.02 0.01 14.19 0.15 28.19 6.09 38.18 16.17 10.37 10.18 16.44 24.6 16.37 39.14 0.01 86 0 172 0 258.01 0.06 7.37-1.39 14.76-4.24 21.57-8.12 19.97-28.72 34.14-50.33 34.14-150.34 0.03-300.68-0.01-451.01 0.01-18.52 1.1-37.26-7.63-48.09-22.73-6.99-9.46-10.83-21.2-10.69-32.97 0.01-85.99 0.01-171.99 0.01-257.98-0.16-15.82 7.11-31.44 19.07-41.74 7.16-6.26 15.96-10.63 25.28-12.53"/>
  <path d="m133.53 106.37c9.91 0.01 20.87-1.25 29.58 4.49 6.57 4.28 8 12.98 6.73 20.2-0.72 6.21-4.23 12.19-9.84 15.16-8.09 4.42-17.61 3.5-26.47 3.44 0.11-14.43 0.1-28.86 0-43.29z"/>
  <path d="m210.59 323.75c2.66-10.35 5.62-20.63 7.53-31.15 2.64 10.38 5.21 20.78 8.05 31.11-5.19 0.06-10.39 0.01-15.58 0.04z"/>
  <path d="m102.9 295.47c4.59-0.02 10.73-0.68 13.4 4 1.36 3.69 0.87 8.79-2.74 11.08-3.16 1.97-7.09 1.64-10.66 1.65-0.01-5.57 0-11.15 0-16.73z"/>
  <path d="m490.37 296.61c5.25-2.02 12.06-1.37 15.96 3.01 3.59 4.22 4.37 10 4.52 15.35 0.08 5.7-0.01 11.74-2.8 16.88-4.58 8.7-19.26 8.61-23.76-0.14-3.29-6.29-3.2-13.71-2.61-20.6 0.59-5.71 2.95-12.18 8.69-14.5z"/>
  <path d="m314.85 296.47c5.54-0.05 11.88-0.62 16.37 3.29 4.88 4.24 5.58 11.23 5.52 17.3-0.11 5.95-1.1 12.67-5.79 16.85-4.42 3.8-10.6 3.7-16.09 3.57 0-13.67 0-27.34-0.01-41.01z"/>
 </g>
 <path d="m372.92 258.79v68.341h23.544v-68.341zm-107.21 0.0157v68.315h20.545c10.541 0 27.025-1.5558 34.97-15.009 2.8607-4.7954 4.5967-11.113 4.5967-19.428 0-20.66-14.443-33.878-41.192-33.878zm23.542 17.015c10.726 0 12.571 10.336 12.571 17.777 0 6.4375-1.8453 16.961-12.571 17.041zm99.806-234.96h67.528v149.96h50.538v47.897h-118.07zm-163.27 0h143.18v47.008h-38.272v150.85h-66.639v-150.85h-38.272zm250.89 216.76c-23.89 0-33.218 18.667-33.218 35.351 0 6.4894 1.4209 13.267 4.5459 19.149 4.9264 9.2146 14.079 16.177 28.672 16.177s23.771-6.9626 28.698-16.177c3.1521-5.8818 4.5459-12.659 4.5459-19.149 0-16.684-9.3535-35.351-33.243-35.351zm0 17.218c8.8984 0 9.2442 13.869 9.2442 18.133 0 4.2657-0.3458 18.107-9.2442 18.107-8.8725 0-9.2188-13.842-9.2188-18.107 0-4.2634 0.3463-18.133 9.2188-18.133zm-422.08-16.025v68.315h23.542v-18.209c0-3.3633-0.22399-6.6935-0.33015-10.057l6.222 13.257 7.0347 15.009h25.498l-9.2442-15.009-8.2791-13.46c9.349-2.8878 13.511-9.567 13.511-17.117 0-18.035-14.78-22.729-35.199-22.729zm24.736 14.654c5.8312 0.0806 9.8791 2.6421 9.8791 8.2537 0 4.4486-3.3249 8.7108-9.5489 8.7108l-1.5238-0.10153v-16.838c0.4039-0.0165 0.80487-0.0308 1.1936-0.0254zm95.641-14.654-20.901 68.315h24.228l1.9809-8.787h15.796l1.7523 8.787h24.329l-4.038-15.009-14.425-53.306zm13.841 16.304c0.79509 4.2386 1.292 8.6101 1.9809 12.876l2.5396 15.847h-9.9298l3.2253-15.847c0.92611-4.2657 1.4963-8.6372 2.1841-12.876zm-134.37-232.32v195.93h66.639v-79.261l36.977 79.261h71.337l-48.075-84.188c27.862-4.9275 37.104-24.41 37.104-51.452 0-41.82-37.21-60.29-76.01-60.29zm66.639 40.913h4.9268c16.684 0 26.793 7.9418 26.793 24.787 0 14.94-10.108 24.075-26.793 24.075h-4.9268z" fill="#fff"/>
</svg>
