<?xml version="1.0" encoding="UTF-8" standalone="no"?>
<svg
   xmlns:dc="http://purl.org/dc/elements/1.1/"
   xmlns:cc="http://creativecommons.org/ns#"
   xmlns:rdf="http://www.w3.org/1999/02/22-rdf-syntax-ns#"
   xmlns:svg="http://www.w3.org/2000/svg"
   xmlns="http://www.w3.org/2000/svg"
   xmlns:sodipodi="http://sodipodi.sourceforge.net/DTD/sodipodi-0.dtd"
   xmlns:inkscape="http://www.inkscape.org/namespaces/inkscape"
   width="564.36816pt"
   height="369.14294pt"
   viewBox="0 0 564.36816 369.14294"
   version="1.1"
   id="svg32"
   sodipodi:docname="RTL Radio.svg"
   inkscape:version="0.92.0 r15299">
  <metadata
     id="metadata38">
    <rdf:RDF>
      <cc:Work
         rdf:about="">
        <dc:format>image/svg+xml</dc:format>
        <dc:type
           rdf:resource="http://purl.org/dc/dcmitype/StillImage" />
        <dc:title></dc:title>
      </cc:Work>
    </rdf:RDF>
  </metadata>
  <defs
     id="defs36" />
  <sodipodi:namedview
     pagecolor="#ffffff"
     bordercolor="#666666"
     borderopacity="1"
     objecttolerance="10"
     gridtolerance="10"
     guidetolerance="10"
     inkscape:pageopacity="0"
     inkscape:pageshadow="2"
     inkscape:window-width="1920"
     inkscape:window-height="1017"
     id="namedview34"
     showgrid="false"
     fit-margin-top="0"
     fit-margin-left="0"
     fit-margin-right="0"
     fit-margin-bottom="0"
     inkscape:zoom="0.99579335"
     inkscape:cx="467.64859"
     inkscape:cy="354.46447"
     inkscape:window-x="-8"
     inkscape:window-y="-8"
     inkscape:window-maximized="1"
     inkscape:current-layer="svg32" />
  <g
     id="#e2000bff"
     transform="translate(-19.206302,-23.65)">
    <path
       d="M 63.57,24.75 C 67,24.08 70.5,23.65 74,23.65 c 151.68,0.01 303.35,0.01 455.02,0.01 14.19,0.15 28.19,6.09 38.18,16.17 10.37,10.18 16.44,24.6 16.37,39.14 0.01,86 0,172 0,258.01 0.06,7.37 -1.39,14.76 -4.24,21.57 -8.12,19.97 -28.72,34.14 -50.33,34.14 C 378.66,392.72 228.32,392.68 77.99,392.7 59.47,393.8 40.73,385.07 29.9,369.97 22.91,360.51 19.07,348.77 19.21,337 19.22,251.01 19.22,165.01 19.22,79.02 19.06,63.2 26.33,47.58 38.29,37.28 45.45,31.02 54.25,26.65 63.57,24.75"
       id="path2"
       inkscape:connector-curvature="0"
       style="opacity:1;fill:#e2000b"
       sodipodi:nodetypes="cccccccccccccc" />
    <path
       d="m 133.53,106.37 c 9.91,0.01 20.87,-1.25 29.58,4.49 6.57,4.28 8,12.98 6.73,20.2 -0.72,6.21 -4.23,12.19 -9.84,15.16 -8.09,4.42 -17.61,3.5 -26.47,3.44 0.11,-14.43 0.1,-28.86 0,-43.29 z"
       id="path4"
       inkscape:connector-curvature="0"
       style="opacity:1;fill:#e2000b" />
    <path
       d="m 210.59,323.75 c 2.66,-10.35 5.62,-20.63 7.53,-31.15 2.64,10.38 5.21,20.78 8.05,31.11 -5.19,0.06 -10.39,0.01 -15.58,0.04 z"
       id="path6"
       inkscape:connector-curvature="0"
       style="opacity:1;fill:#e2000b" />
    <path
       d="m 102.9,295.47 c 4.59,-0.02 10.73,-0.68 13.4,4 1.36,3.69 0.87,8.79 -2.74,11.08 -3.16,1.97 -7.09,1.64 -10.66,1.65 -0.01,-5.57 0,-11.15 0,-16.73 z"
       id="path8"
       inkscape:connector-curvature="0"
       style="opacity:1;fill:#e2000b" />
    <path
       d="m 490.37,296.61 c 5.25,-2.02 12.06,-1.37 15.96,3.01 3.59,4.22 4.37,10 4.52,15.35 0.08,5.7 -0.01,11.74 -2.8,16.88 -4.58,8.7 -19.26,8.61 -23.76,-0.14 -3.29,-6.29 -3.2,-13.71 -2.61,-20.6 0.59,-5.71 2.95,-12.18 8.69,-14.5 z"
       id="path10"
       inkscape:connector-curvature="0"
       style="opacity:1;fill:#e2000b" />
    <path
       d="m 314.85,296.47 c 5.54,-0.05 11.88,-0.62 16.37,3.29 4.88,4.24 5.58,11.23 5.52,17.3 -0.11,5.95 -1.1,12.67 -5.79,16.85 -4.42,3.8 -10.6,3.7 -16.09,3.57 0,-13.67 0,-27.34 -0.01,-41.01 z"
       id="path12"
       inkscape:connector-curvature="0"
       style="opacity:1;fill:#e2000b" />
  </g>
  <path
     inkscape:connector-curvature="0"
     d="m 372.92071,258.78836 v 68.34138 h 23.54372 v -68.34138 z m -107.20595,0.0157 v 68.31532 h 20.54538 c 10.54055,0 27.02512,-1.55584 34.97034,-15.00905 2.86072,-4.79538 4.59669,-11.11345 4.59668,-19.42797 0,-20.6598 -14.44291,-33.8783 -41.19236,-33.8783 z m 23.54212,17.01534 c 10.72575,0 12.57103,10.33571 12.57103,17.77722 0,6.43749 -1.84528,16.96054 -12.57103,17.04073 z M 389.06323,40.855346 h 67.5281 V 190.8189 h 50.5381 v 47.8969 h -118.0662 z m -163.27102,0 h 143.1828 V 87.8634 H 330.7032 V 238.7158 H 264.06402 V 87.8634 H 225.79221 Z M 476.67953,257.61045 c -23.8898,0 -33.218,18.66687 -33.218,35.35127 0,6.48943 1.4209,13.26676 4.5459,19.1486 4.9264,9.21462 14.0794,16.17725 28.6721,16.17727 14.5928,0 23.7712,-6.96265 28.6975,-16.17727 3.1521,-5.88184 4.5459,-12.65917 4.5459,-19.1486 0,-16.68439 -9.3535,-35.35127 -33.2434,-35.35127 z m 0,17.2185 c 8.8984,0 9.2442,13.86933 9.2442,18.13277 0,4.26567 -0.3458,18.10735 -9.2442,18.10736 -8.8725,0 -9.2188,-13.84169 -9.2188,-18.10736 0,-4.26344 0.3463,-18.13276 9.2188,-18.13277 z M 54.597591,258.80406 v 68.31531 h 23.54212 v -18.20895 c 0,-3.36331 -0.22399,-6.69353 -0.33015,-10.05682 l 6.222027,13.25672 7.0347,15.00905 H 116.5639 l -9.24415,-15.00905 -8.279112,-13.45989 c 9.349042,-2.88784 13.510682,-9.56698 13.510682,-17.11693 0,-18.03514 -14.779642,-22.72946 -35.198889,-22.72944 z m 24.73573,14.65351 c 5.831157,0.0806 9.879057,2.64207 9.879057,8.2537 0,4.44864 -3.32488,8.71084 -9.548907,8.71084 l -1.52376,-0.10153 v -16.83757 c 0.4039,-0.0165 0.80487,-0.0308 1.19361,-0.0254 z m 95.641429,-14.65351 -20.90092,68.31531 h 24.2278 l 1.9809,-8.78702 h 15.79632 l 1.75233,8.78702 h 24.3294 l -4.03798,-15.00905 -14.42494,-53.30626 z m 13.84084,16.30424 c 0.79509,4.23858 1.29197,8.61011 1.98089,12.8758 l 2.5396,15.84712 h -9.92985 l 3.2253,-15.84712 c 0.92611,-4.26569 1.49628,-8.6372 2.18406,-12.8758 z M 54.445211,42.785444 V 238.7158 h 66.639179 v -79.261 l 36.97661,79.261 h 71.33744 l -48.07467,-84.18783 c 27.86189,-4.9275 37.10358,-24.41039 37.10358,-51.45235 0,-41.81996 -37.21033,-60.290176 -76.0103,-60.290176 z M 121.08439,83.69845 h 4.92683 c 16.68438,0 26.79281,7.94177 26.79281,24.78652 0,14.9395 -10.10842,24.07545 -26.79281,24.07545 h -4.92683 z"
     id="RTL_RADIO"
     style="fill:#ffffff;fill-opacity:1;fill-rule:nonzero;stroke:none;stroke-width:0.81267291" />
</svg>
