<svg height="369.14294pt" viewBox="0 0 564.36816 369.14294" width="564.36816pt" xmlns="http://www.w3.org/2000/svg"><g fill="#e2000b" transform="translate(-19.206302 -23.65)"><path d="m63.57 24.75c3.43-.67 6.93-1.1 10.43-1.1 151.68.01 303.35.01 455.02.01 14.19.15 28.19 6.09 38.18 16.17 10.37 10.18 16.44 24.6 16.37 39.14.01 86 0 172 0 258.01.06 7.37-1.39 14.76-4.24 21.57-8.12 19.97-28.72 34.14-50.33 34.14-150.34.03-300.68-.01-451.01.01-18.52 1.1-37.26-7.63-48.09-22.73-6.99-9.46-10.83-21.2-10.69-32.97.01-85.99.01-171.99.01-257.98-.16-15.82 7.11-31.44 19.07-41.74 7.16-6.26 15.96-10.63 25.28-12.53"/><path d="m133.53 106.37c9.91.01 20.87-1.25 29.58 4.49 6.57 4.28 8 12.98 6.73 20.2-.72 6.21-4.23 12.19-9.84 15.16-8.09 4.42-17.61 3.5-26.47 3.44.11-14.43.1-28.86 0-43.29z"/><path d="m210.59 323.75c2.66-10.35 5.62-20.63 7.53-31.15 2.64 10.38 5.21 20.78 8.05 31.11-5.19.06-10.39.01-15.58.04z"/><path d="m102.9 295.47c4.59-.02 10.73-.68 13.4 4 1.36 3.69.87 8.79-2.74 11.08-3.16 1.97-7.09 1.64-10.66 1.65-.01-5.57 0-11.15 0-16.73z"/><path d="m490.37 296.61c5.25-2.02 12.06-1.37 15.96 3.01 3.59 4.22 4.37 10 4.52 15.35.08 5.7-.01 11.74-2.8 16.88-4.58 8.7-19.26 8.61-23.76-.14-3.29-6.29-3.2-13.71-2.61-20.6.59-5.71 2.95-12.18 8.69-14.5z"/><path d="m314.85 296.47c5.54-.05 11.88-.62 16.37 3.29 4.88 4.24 5.58 11.23 5.52 17.3-.11 5.95-1.1 12.67-5.79 16.85-4.42 3.8-10.6 3.7-16.09 3.57 0-13.67 0-27.34-.01-41.01z"/></g><path d="m372.92071 258.78836v68.34138h23.54372v-68.34138zm-107.20595.0157v68.31532h20.54538c10.54055 0 27.02512-1.55584 34.97034-15.00905 2.86072-4.79538 4.59669-11.11345 4.59668-19.42797 0-20.6598-14.44291-33.8783-41.19236-33.8783zm23.54212 17.01534c10.72575 0 12.57103 10.33571 12.57103 17.77722 0 6.43749-1.84528 16.96054-12.57103 17.04073zm99.80635-234.964054h67.5281v149.963554h50.5381v47.8969h-118.0662zm-163.27102 0h143.1828v47.008054h-38.27181v150.8524h-66.63918v-150.8524h-38.27181zm250.88732 216.755104c-23.8898 0-33.218 18.66687-33.218 35.35127 0 6.48943 1.4209 13.26676 4.5459 19.1486 4.9264 9.21462 14.0794 16.17725 28.6721 16.17727 14.5928 0 23.7712-6.96265 28.6975-16.17727 3.1521-5.88184 4.5459-12.65917 4.5459-19.1486 0-16.68439-9.3535-35.35127-33.2434-35.35127zm0 17.2185c8.8984 0 9.2442 13.86933 9.2442 18.13277 0 4.26567-.3458 18.10735-9.2442 18.10736-8.8725 0-9.2188-13.84169-9.2188-18.10736 0-4.26344.3463-18.13276 9.2188-18.13277zm-422.081939-16.02489v68.31531h23.54212v-18.20895c0-3.36331-.22399-6.69353-.33015-10.05682l6.222027 13.25672 7.0347 15.00905h25.497612l-9.24415-15.00905-8.279112-13.45989c9.349042-2.88784 13.510682-9.56698 13.510682-17.11693 0-18.03514-14.779642-22.72946-35.198889-22.72944zm24.73573 14.65351c5.831157.0806 9.879057 2.64207 9.879057 8.2537 0 4.44864-3.32488 8.71084-9.548907 8.71084l-1.52376-.10153v-16.83757c.4039-.0165.80487-.0308 1.19361-.0254zm95.641429-14.65351-20.90092 68.31531h24.2278l1.9809-8.78702h15.79632l1.75233 8.78702h24.3294l-4.03798-15.00905-14.42494-53.30626zm13.84084 16.30424c.79509 4.23858 1.29197 8.61011 1.98089 12.8758l2.5396 15.84712h-9.92985l3.2253-15.84712c.92611-4.26569 1.49628-8.6372 2.18406-12.8758zm-134.370379-232.322856v195.930356h66.639179v-79.261l36.97661 79.261h71.33744l-48.07467-84.18783c27.86189-4.9275 37.10358-24.41039 37.10358-51.45235 0-41.81996-37.21033-60.290176-76.0103-60.290176zm66.639179 40.913006h4.92683c16.68438 0 26.79281 7.94177 26.79281 24.78652 0 14.9395-10.10842 24.07545-26.79281 24.07545h-4.92683z" fill="#fff"/></svg>