<?xml version="1.0" encoding="UTF-8" standalone="no"?>
<svg
   xmlns:dc="http://purl.org/dc/elements/1.1/"
   xmlns:cc="http://creativecommons.org/ns#"
   xmlns:rdf="http://www.w3.org/1999/02/22-rdf-syntax-ns#"
   xmlns:svg="http://www.w3.org/2000/svg"
   xmlns="http://www.w3.org/2000/svg"
   xmlns:xlink="http://www.w3.org/1999/xlink"
   xmlns:sodipodi="http://sodipodi.sourceforge.net/DTD/sodipodi-0.dtd"
   xmlns:inkscape="http://www.inkscape.org/namespaces/inkscape"
   width="211.5pt"
   height="199.33484pt"
   viewBox="0 0 211.5 199.33484"
   version="1.1"
   id="svg6"
   sodipodi:docname="SeeJay Radio.svg"
   inkscape:version="0.92.0 r15299">
  <metadata
     id="metadata12">
    <rdf:RDF>
      <cc:Work
         rdf:about="">
        <dc:format>image/svg+xml</dc:format>
        <dc:type
           rdf:resource="http://purl.org/dc/dcmitype/StillImage" />
        <dc:title></dc:title>
      </cc:Work>
    </rdf:RDF>
  </metadata>
  <defs
     id="defs10">
    <linearGradient
       inkscape:collect="always"
       id="linearGradient4529">
      <stop
         style="stop-color:#ff8a00;stop-opacity:1"
         offset="0"
         id="stop4525" />
      <stop
         style="stop-color:#ef6500;stop-opacity:1"
         offset="1"
         id="stop4527" />
    </linearGradient>
    <linearGradient
       inkscape:collect="always"
       xlink:href="#linearGradient4529"
       id="linearGradient4531"
       x1="105.85029"
       y1="-0.43014517"
       x2="105.85029"
       y2="198.61443"
       gradientUnits="userSpaceOnUse" />
  </defs>
  <sodipodi:namedview
     pagecolor="#ffffff"
     bordercolor="#666666"
     borderopacity="1"
     objecttolerance="10"
     gridtolerance="10"
     guidetolerance="10"
     inkscape:pageopacity="0"
     inkscape:pageshadow="2"
     inkscape:window-width="1920"
     inkscape:window-height="1017"
     id="namedview8"
     showgrid="false"
     fit-margin-top="0"
     fit-margin-left="0"
     fit-margin-right="0"
     fit-margin-bottom="0"
     inkscape:zoom="1.9555922"
     inkscape:cx="65.057145"
     inkscape:cy="108.17612"
     inkscape:window-x="-8"
     inkscape:window-y="-8"
     inkscape:window-maximized="1"
     inkscape:current-layer="svg6" />
  <g
     id="g4523"
     style="fill-opacity:1;fill:url(#linearGradient4531)">
    <g
       transform="translate(-4.1553948e-7,-312.67071)"
       id="#f56800f5"
       style="fill-opacity:1;fill:url(#linearGradient4531)" />
    <g
       transform="matrix(0.34650656,0,0,0.34650656,13.261316,-13.493296)"
       style="fill:url(#linearGradient4531);fill-opacity:1"
       id="#ffffffff">
      <path
         inkscape:connector-curvature="0"
         style="opacity:1;fill:url(#linearGradient4531);fill-opacity:1"
         id="path3"
         d="m 237.49,39.75 c 33.67,-2.89 68.01,1.97 99.42,14.46 35.61,14.06 67.33,37.75 90.96,67.86 30.11,38.01 46.7,86.44 46.14,134.94 -0.14,43.37 -13.9,86.55 -38.84,122.04 -23.38,33.51 -56.4,60.21 -94.09,75.99 -41.77,17.65 -89.09,21.62 -133.27,11.52 -25.93,-5.87 -50.73,-16.61 -72.8,-31.43 C 105.86,415.58 81.53,388.9 64.85,358.01 47.13,325.39 38.19,288.11 39.02,251.01 39.77,206.69 54.75,162.79 81.2,127.23 109.36,88.98 150.39,60.4 196.09,47.41 c 13.5,-3.91 27.4,-6.42 41.4,-7.66 m -92.37,74.4 c -30.06,23.45 -52.56,56.64 -62.58,93.47 18.84,-18.84 37.74,-37.62 56.62,-56.41 4.37,-4.77 12.56,-5.01 17.17,-0.46 7.54,7.47 15.08,14.95 22.58,22.48 22,-21.76 43.83,-43.69 65.82,-65.45 6.21,-6.33 17.38,-6.42 23.71,-0.22 32.93,32.66 65.67,65.51 98.66,98.09 -14.06,14.72 -29.01,28.61 -43.04,43.35 -3.19,4.35 -2.58,10.89 1.34,14.6 13.89,13.89 27.87,27.7 41.74,41.61 -31.27,31.05 -62.46,62.17 -93.7,93.24 -3.23,3.12 -6.18,6.88 -10.56,8.43 -6.29,2.53 -13.97,0.8 -18.6,-4.15 -21.81,-21.63 -43.52,-43.38 -65.36,-64.98 -7.55,7.5 -15.07,15.04 -22.65,22.51 -4.58,4.51 -12.73,4.27 -17.06,-0.47 -18.95,-18.84 -37.9,-37.67 -56.81,-56.55 6.81,24.55 18.95,47.6 35.32,67.13 24.61,29.6 58.94,50.98 96.4,59.91 41.76,10.13 87.09,4.82 125.23,-15.04 37.33,-19.15 67.58,-51.69 83.8,-90.39 19.37,-45.45 18.54,-98.97 -2.27,-143.78 C 405.43,147.27 379.2,118.57 347.03,100 315.81,81.85 279.05,73.44 243.05,76.26 c -35.45,2.5 -70,15.94 -97.93,37.89 m 150.26,67.41 c -12.49,3.67 -20.5,17.96 -16.8,30.51 3.13,12.9 17.5,21.49 30.35,18.1 13.47,-2.82 22.63,-17.88 18.64,-31.13 -3.32,-13.54 -19,-22.09 -32.19,-17.48 z" />
    </g>
    <path
       d="M 3.3841064,177.36928 C 1.67873,168.61929 5.6823677,157.65927 12.057546,156.93927 h 28.285267 l -2.131721,10.95976 H 11.457999 l -0.726118,4.9005 h 19.93825 c 2.724605,-0.17 5.409241,2.49975 6.195313,6.45975 1.398941,8.74 -2.524757,19.58999 -8.899934,20.06999 H 0 L 1.6121137,188.28928 H 28.53841 l 1.012568,-4.94026 H 10.005765 c -2.757915,0.17 -5.6357378,-1.94974 -6.6216586,-5.97974 z"
       id="path29"
       inkscape:connector-curvature="0"
       style="opacity:1;fill:url(#linearGradient4531);stroke-width:0.81618774;fill-opacity:1"
       sodipodi:nodetypes="ccccccccccccccc" />
    <path
       d="m 42.248038,163.92929 c 1.658745,-4.39 5.002882,-7.1 8.347017,-7.07 l 27.219407,0.0102 -1.63876,10.94977 -27.139467,0.0798 -0.759426,4.90047 27.212746,-0.0303 -2.04512,10.57979 -26.553243,3e-5 -0.889117,4.94026 27.069309,0.0399 -1.578805,11.00012 c -9.106444,-0.16 -18.212881,0.0999 -27.31933,-0.11012 -3.330814,-0.02 -6.235283,-4.63999 -6.048758,-9.63 0.06965,-1.52399 0.228245,-3.02589 0.430861,-4.51684 l 2.471159,-16.29517 c 0.294454,-1.67581 0.666862,-3.31215 1.221527,-4.84798 z"
       id="path31"
       inkscape:connector-curvature="0"
       style="opacity:1;fill:url(#linearGradient4531);stroke-width:0.81618774;fill-opacity:1"
       sodipodi:nodetypes="cccccccccccccccccc" />
    <path
       d="m 79.426576,163.73929 c 1.851932,-4.22 5.102813,-7.05977 8.520227,-6.86977 9.039821,0 18.079647,-0.02 27.119477,0 l -1.77199,11.02951 H 86.154819 l -0.832703,4.9005 h 27.312674 l -1.6654,10.54949 H 83.643386 l -0.659501,4.94026 c 12.370641,0.01 24.747955,0.33 37.125245,0 l 3.06436,-20.39025 h -5.1228 l 1.23906,-11.02951 h 13.21668 l -4.52326,30.57976 c -0.72611,6.61 -4.89629,11.95999 -9.35958,11.87999 H 81.938009 c -2.518095,0.13 -5.016205,-2.02999 -6.10205,-5.46999 -0.89473,-2.59787 -0.691397,-5.35536 -0.275158,-8.10282 l 2.415512,-16.35773 c 0.339344,-1.9627 0.781902,-3.87141 1.450263,-5.65944 z"
       id="path33"
       inkscape:connector-curvature="0"
       style="opacity:1;fill:url(#linearGradient4531);stroke-width:0.81618774;fill-opacity:1"
       sodipodi:nodetypes="cccccccccccccccccccccc" />
    <path
       d="m 132.59968,168.39929 c 0.86602,-6.41 4.92961,-11.56977 9.31962,-11.52977 h 17.99972 c 2.17168,-0.02 4.60984,-0.16023 6.35519,2.11977 2.21165,2.38 2.79788,6.84 2.10507,10.62 l -4.39001,29.71998 h -7.79411 l 2.31825,-15.98025 h -20.41122 l -2.19834,15.98025 h -7.89402 l 4.58985,-30.92998 m 7.22121,4.40024 h 20.29798 l 0.77941,-4.9005 h -19.01229 c -1.9785,-0.55 -1.69205,3.0605 -2.0651,4.9005 z"
       id="path35"
       inkscape:connector-curvature="0"
       style="opacity:1;fill:url(#linearGradient4531);stroke-width:0.81618774;fill-opacity:1"
       sodipodi:nodetypes="ccccccccccccccccc" />
    <path
       d="m 167.61986,156.86952 h 10.21893 l 8.72673,15.93001 13.83621,-15.93001 H 211.5 l -21.99628,26.4795 -2.6251,15.98025 h -7.66754 l 2.33158,-15.98025 z"
       id="path37"
       inkscape:connector-curvature="0"
       style="opacity:1;fill:url(#linearGradient4531);stroke-width:0.81618774;fill-opacity:1"
       sodipodi:nodetypes="cccccccccc" />
  </g>
</svg>
