<svg height="117.85493" viewBox="0 0 237.3538 117.85493" width="237.35381" xmlns="http://www.w3.org/2000/svg" xmlns:xlink="http://www.w3.org/1999/xlink"><linearGradient id="a" gradientTransform="matrix(124.60343 0 0 -124.60343 499.86051 142.25274)" gradientUnits="userSpaceOnUse" spreadMethod="pad" x1="0" x2="1" y1="0" y2="0"><stop offset="0" stop-color="#00adef"/><stop offset=".7" stop-color="#1c1d58"/><stop offset=".72220019" stop-color="#1c1d58"/><stop offset="1" stop-color="#1c1d58"/></linearGradient><clipPath id="b"><path d="m167.284 17.437h83.284v71.033h-83.284z"/></clipPath><g transform="matrix(1.3333333 0 0 -1.3333333 -666.46697 187.996)"><path d="m0 0c-15.884 0-23.673-6.676-26.107-15.176-4.797-16.75 24.643-57.143 32.451-64.141 8.148-7.303 17.291-10.332 29.985-8.597 21.862 2.988 97.3 19.485 111.034 31.611 5.554 4.904 7.777 19.783-9.751 25.478-44.285 14.389-116.538 30.825-137.612 30.825" fill="#b5dc1e" transform="translate(526.4824 140.9967)"/><path d="m500.376 125.82c-4.797-16.749 25.273-54.051 33.894-60.02 9.644-6.678 20.191-9.899 37.545-7.008 27.83 4.635 92.18 17.204 102.03 25.902 5.554 4.904 7.777 19.783-9.75 25.478-44.286 14.389-116.539 30.825-137.613 30.825-15.883 0-23.673-6.677-26.106-15.177" fill="url(#a)"/><path d="m586.4111 120.5742c-2.733-12.962-4.784-19.576-7.208-25.345-2.628-6.249-5.284-8.804-10.441-9.82-.014-.003-2.304 5.682-2.304 5.682 2.503.545 4.807 2.323 5.648 5.122-2.811 7.844-6.13 15.332-8.434 24.361h7.215c1.715-6.431 4.985-15.928 4.985-15.928s2.119 5.42 3.755 15.928zm-62.33-1.58c-.53 2.08.444 4.32 4.052 4.32 2.18 0 3.648-1.512 5.357-4.319 1.385 1.176 3.223 2.725 4.442 3.702-2.977 5.016-6.657 6.613-10.29 6.613-7.314 0-11.326-4.944-11.326-9.885 0-9.848 13.736-9.986 14.174-14.335.251-2.477-1.459-4.624-5.005-4.137-2.453.336-4.134 1.123-5.416 2.127l-4.109-4.813c2.703-1.884 5.73-3.873 10.456-3.873 7.96 0 11.986 3.962 11.986 10.36 0 8.546-13.38 10.543-14.321 14.24m39.578-23.93c-1.424 5.578-3.623 10.567-5.646 15.416 1.455 3.014 2.812 6.411 3.869 10.152h-6.332c-2.374-8.13-6.71-13.903-6.71-13.903v22.248h-7.109v-33.913h5.872s2.656 2.646 5.831 7.402c.985-2.245 1.979-4.88 2.564-7.402z" fill="#fff"/><path d="m616.5955 102.2513-.306.109c-2.358.848-4.7 1.074-5.712 1.074-5.446 0-8.571-3.3-8.571-9.054 0-2.348.505-4.433 1.495-5.735 1.124-1.467 2.833-2.211 5.083-2.211 1.603 0 3.028.535 4.044 1.496l.398-1.109h4.141l-.572 3.342zm-4.62-10.229c0-1.041-.903-2.146-2.581-2.146-.685 0-2.767.236-2.767 4.623 0 2.478.603 5.431 3.483 5.431.752 0 1.434-.113 1.865-.246zm-15.054 4.567c1.917 1.063 3.04 2.982 3.04 5.287 0 4.004-2.598 5.949-7.949 5.949h-4.325l-3.09-10.597v-10.407h4.74v8.18h2.612c.754 0 1.179-.336 1.627-1.289l2.293-6.891h5.396l-2.9 8.16c-.32.695-.955 1.223-1.444 1.608m-4.939 2.154h-2.645v5.28h1.709c3.033 0 4.11-.365 4.11-2.415 0-2.465-1.727-2.865-3.174-2.865m60.167 4.691c-3.737 0-7.731-2.207-7.731-8.398 0-5.434 2.57-8.663 7.232-8.663 2.266 0 4.179.753 5.535 2.178 1.476 1.552 2.225 4.021 2.225 6.874 0 5.165-2.578 8.009-7.261 8.009m-.25-13.528c-1.888 0-2.767 1.924-2.767 5.549 0 1.661.369 4.446 2.83 4.446 1.26 0 2.708-.563 2.708-4.955 0-2.192-.482-5.04-2.771-5.04m-18.289 18.816h-4.62v-5.506c-.538.126-1.161.218-1.957.218-4.939 0-8.012-3.447-8.012-8.996 0-5.12 2.285-8.065 6.609-8.065 1.581 0 3.004.569 4.029 1.582l.42-1.134h4.101l-.57 3.401zm-4.62-16.789c0-.849-.907-2.027-2.613-2.027-.678 0-2.737.235-2.737 4.862 0 1.927.453 5.162 3.485 5.162.758 0 1.4-.159 1.865-.328zm12.997 14.902c0-1.383-1.128-2.425-2.622-2.425-1.541 0-2.621.998-2.621 2.425 0 1.399 1.13 2.454 2.621 2.454 1.494 0 2.622-1.055 2.622-2.454m-4.931-3.849h4.65v-16.165h-4.65z" fill="#b5dc1e"/><g clip-path="url(#b)"><text fill="#231f20" font-family="HelveticaNeueLTStd" font-size="1.273" font-stretch="condensed" font-weight="bold" transform="matrix(1 0 0 -1 217.7671 14.3323)"><tspan x="0 .328434 1.036222 1.341742 1.952782 2.563822 3.174862" y="0">IR 0185</tspan></text></g></g></svg>