<?xml version="1.0" encoding="UTF-8" standalone="no"?>
<svg
   xmlns:dc="http://purl.org/dc/elements/1.1/"
   xmlns:cc="http://creativecommons.org/ns#"
   xmlns:rdf="http://www.w3.org/1999/02/22-rdf-syntax-ns#"
   xmlns:svg="http://www.w3.org/2000/svg"
   xmlns="http://www.w3.org/2000/svg"
   xmlns:sodipodi="http://sodipodi.sourceforge.net/DTD/sodipodi-0.dtd"
   xmlns:inkscape="http://www.inkscape.org/namespaces/inkscape"
   width="1071.75pt"
   height="921.612pt"
   viewBox="0 0 1071.75 921.612"
   version="1.1"
   id="svg52"
   sodipodi:docname="Spin Radio - Dark.svg"
   inkscape:version="0.92.0 r15299">
  <metadata
     id="metadata58">
    <rdf:RDF>
      <cc:Work
         rdf:about="">
        <dc:format>image/svg+xml</dc:format>
        <dc:type
           rdf:resource="http://purl.org/dc/dcmitype/StillImage" />
        <dc:title></dc:title>
      </cc:Work>
    </rdf:RDF>
  </metadata>
  <defs
     id="defs56" />
  <sodipodi:namedview
     pagecolor="#ffffff"
     bordercolor="#666666"
     borderopacity="1"
     objecttolerance="10"
     gridtolerance="10"
     guidetolerance="10"
     inkscape:pageopacity="0"
     inkscape:pageshadow="2"
     inkscape:window-width="1920"
     inkscape:window-height="1017"
     id="namedview54"
     showgrid="false"
     fit-margin-top="0"
     fit-margin-left="0"
     fit-margin-right="0"
     fit-margin-bottom="0"
     inkscape:zoom="0.6"
     inkscape:cx="773.4837"
     inkscape:cy="402.87244"
     inkscape:window-x="-8"
     inkscape:window-y="-8"
     inkscape:window-maximized="1"
     inkscape:current-layer="svg52" />
  <path
     style="opacity:1;fill:#000000"
     inkscape:connector-curvature="0"
     id="path28"
     d="m 896.84995,502.96938 c 13.16,-0.87 26.36,-0.53 39.54,-0.58 14.82,0.38 29.72,0.91 44.36,3.48 8.32,1.66 17.51,3.73 23.18005,10.62 7.32,8.78 8.88,20.65 9.75,31.66 0.61,12.11 0.25,24.37 -2.24,36.27 -1.98,8.76 -6.07,18.09 -14.48005,22.36 -10.16,4.78 -21.55,5.7 -32.55,6.91 -26.7,1.82 -53.54,1.84 -80.23,0.04 -11.08,-1.14 -22.48,-2.14 -32.76,-6.76 -9.17,-4.39 -13.54,-14.57 -15.42,-24.01 -2.88,-15.11 -2.45,-30.61 -1.64,-45.9 0.32,-9.12 5.11,-18.02 12.74,-23.09 5.96,-4.16 13.1,-6.14 20.14,-7.61 9.76,-1.95 19.69,-2.82 29.61,-3.39 m 6.5,15.37 c -10.35,0.62 -20.88,0.67 -30.95,3.41 -5.9,1.43 -6.94,8.45 -8.13,13.46 -2.29,15.51 -2.26,31.43 0.01,46.94 1.2,5 2.22,12.05 8.15,13.45 10.39,2.85 21.26,2.8 31.93,3.46 13.05,0.44 26.11,0.42 39.16,0 10.7,-0.68 21.61,-0.62 32.03,-3.52 5.07,-1.19 6.41,-6.96 7.54,-11.31 2.13,-10.88 2.21,-22.05 2.19,-33.1 -0.76,-7.14 0.6,-14.68 -2.44,-21.43 -1.74,-4.24 -5.75,-7.17 -10.14,-8.2 -9.62,-2.36 -19.58,-2.6 -29.42,-3.15 -13.3,-0.56 -26.63,-0.46 -39.93,-0.01 z" />
  <path
     style="opacity:1;fill:#000000"
     inkscape:connector-curvature="0"
     id="path30"
     d="m 55.309955,503.36938 c 29.01,0.03 58.019995,0 87.029995,0.01 19.45,0.12 39.6,-1.07 58.21,5.67 9.08,3.12 16.32,11.28 17.49,20.93 0.65,7.85 0.7,16.38 -3.59,23.32 -3.39,5.73 -9.93,8.47 -16.09,10.11 5.67,1.83 11.42,4.84 14.53,10.15 2.4,3.73 2.94,8.29 2.78,12.64 -0.03,9.25 -0.03,18.5 0.01,27.75 -10,0.04 -20,0.01 -30,0.01 0,-9.59 0.07,-19.18 -0.01,-28.76 0.01,-5.73 -4.73,-10.17 -9.91,-11.74 -8.81,-3.02 -18.28,-2.45 -27.46,-2.49 -21.07,0 -42.14,0 -63.209995,0 0.01,14.33 -0.02,28.67 0.02,43 -9.95,-0.01 -19.9,0.03 -29.84,-0.02 0.07,-36.86 -0.01,-73.72 0.04,-110.58 m 29.78,15.61 c 0.01,12.14 0,24.27 0,36.41 22.059995,-0.01 44.109995,0.01 66.169995,-0.01 8.73,-0.29 17.55,-0.54 26.12,-2.41 3.77,-0.92 7.91,-2.31 10.06,-5.78 2.74,-4.06 2.46,-9.29 1.93,-13.93 -0.64,-4.33 -2.27,-9.34 -6.69,-11.13 -7.42,-2.71 -15.47,-2.73 -23.27,-3.13 -24.77,-0.05 -49.55,-0.02 -74.319995,-0.02 z" />
  <path
     style="opacity:1;fill:#000000"
     inkscape:connector-curvature="0"
     id="path32"
     d="m 342.17995,503.36938 c 12.12,0.04 24.24,-0.01 36.36,0.02 26.61,36.88 53.27,73.72 79.95,110.55 -10.75,0.06 -21.5,0.04 -32.25,0.01 -5.18,-7.37 -10.47,-14.67 -15.71,-21.98 -32.91,0.01 -65.81,0.03 -98.71,-0.01 -5.24,7.32 -10.44,14.68 -15.67,22.01 -10.78,0 -21.57,0 -32.36,0.01 26.04,-36.93 52.27,-73.73 78.39,-110.61 m -19.93,74.03 c 25.9,-0.04 51.79,0.01 77.69,-0.02 -13.1,-18.57 -26.14,-37.19 -39.1,-55.85 -12.88,18.61 -25.76,37.22 -38.59,55.87 z" />
  <path
     style="opacity:1;fill:#000000"
     inkscape:connector-curvature="0"
     id="path34"
     d="m 509.28995,503.37938 c 29.65,0.01 59.3,0 88.94,0 20.1,-0.06 40.72,-0.29 60.08,5.88 9.31,2.83 17.65,9.26 21.62,18.29 6.08,13.64 5.48,29.08 3.9,43.61 -1.34,9.88 -4,20.17 -10.81,27.77 -5.56,6.25 -13.67,9.34 -21.57,11.37 -18.7,4.64 -38.08,3.56 -57.16,3.67 -28.33,0 -56.65,0 -84.98,0 -0.04,-36.86 0,-73.72 -0.02,-110.59 m 29.8,15.6 c 0,26.48 0.02,52.95 -0.01,79.43 19.39,-0.06 38.78,-0.01 58.17,-0.03 13.64,-0.01 27.47,-0.16 40.8,-3.35 5.32,-1.24 10.76,-3.87 13.24,-9.03 5.15,-10.11 4.79,-21.83 4.59,-32.87 -0.36,-8.03 -1.25,-16.36 -5.02,-23.59 -2.14,-4.39 -7.01,-6.31 -11.45,-7.45 -9.5,-2.36 -19.34,-2.81 -29.09,-3.11 -23.74,-0.01 -47.49,-0.01 -71.23,0 z" />
  <path
     style="opacity:1;fill:#000000"
     inkscape:connector-curvature="0"
     id="path36"
     d="m 746.29995,503.37938 c 9.94,0 19.87,0.02 29.81,-0.01 -0.04,36.87 -0.01,73.74 -0.01,110.61 -9.93,-0.02 -19.86,0.01 -29.78,-0.01 -0.04,-36.86 -0.01,-73.73 -0.02,-110.59 z" />
  <path
     style="opacity:1;fill:#000000"
     inkscape:connector-curvature="0"
     id="path38"
     d="m 17.139955,650.06938 c 2.71,-3.18 6.95,-5.06 11.13,-4.88 341.039995,0.01 682.079995,0 1023.110045,0.01 7.86,-0.21 14.74,7.3 13.82,15.12 -0.37,6.63 -6.17,12.45 -12.81,12.74 -341.73005,0.01 -683.45005,0 -1025.180045,0.01 -4.91,-0.1 -9.36,-3.16 -11.79,-7.34 -1.85,-5.01 -2.07,-11.46 1.72,-15.66 z" />
  <path
     style="opacity:1;fill:#000000"
     inkscape:connector-curvature="0"
     id="path40"
     d="m 865.17995,703.56938 c 25.58,-3.15 51.46,-3.37 77.18,-2 12.8,1.02 25.71,2.48 37.95,6.58 8.51,2.86 16.77,7.39 22.34005,14.63 8.66,11.14 11.72,25.53 12.51,39.34 0.45,12.92 0.33,26.14 -3.66,38.58 -2.83,9.48 -8.33,18.51 -16.70005,24.05 -7.82,5.03 -16.86,7.7 -25.81,9.89 -22.89,5.3 -46.43,6.53 -69.76,8.54 -13.95,1.64 -28.19,2.64 -41.57,7.19 -4.04,1.13 -6.55,4.77 -7.74,8.6 -3.12,9.26 -3.24,19.18 -3.27,28.86 56,-0.02 112,0.01 168.01005,-0.02 0,9.91 -0.02,19.82 0.01,29.73 -69.45005,0.01 -138.90005,-0.05 -208.34005,0.03 -0.06,-15.8 -0.02,-31.6 -0.03,-47.39 0.27,-11.51 2.3,-23.48 8.76,-33.24 4.02,-6.14 10.19,-10.61 17.03,-13.17 12.18,-4.64 25.13,-6.78 37.97,-8.71 23.89,-3.63 48.1,-4.39 71.98,-8 8.19,-1.39 16.55,-2.64 24.21,-5.99 6.05,-2.88 7.66,-10.19 8.85,-16.17 1.69,-11.81 2.18,-24.08 -0.9,-35.7 -1.52,-5.91 -5.41,-11.51 -11.41,-13.45 -14.26,-4.92 -29.59,-4.78 -44.47,-5.23 -17.69,0.38 -35.53,0.11 -52.98,3.39 -5.21,1.04 -10.97,2.46 -14.21,7.06 -5.12,7.27 -5.25,16.65 -5.05,25.19 0.16,5.79 0.02,11.6 0.62,17.36 -13.4,0.02 -26.81,0.02 -40.22,0 0.4,-14.27 -0.56,-28.88 3.7,-42.72 3.19,-11.14 10.06,-21.64 20.33,-27.39 10.65,-5.84 22.77,-8.12 34.67,-9.84 z" />
  <path
     style="opacity:1;fill:#000000"
     inkscape:connector-curvature="0"
     id="path42"
     d="m 94.359955,709.23938 c 18.519995,-5.12 37.869995,-5.76 56.959995,-6.42 22.52,-0.1 45.2,0.07 67.45,4 12.85,2.53 26.61,6.1 35.86,16.01 10.67,11.71 14.13,27.97 15.2,43.32 0.57,13.66 0.09,27.35 0.82,41 0,13.31 0.68,26.64 -0.31,39.94 0.01,13.35 -0.59,27.04 -5.52,39.62 -3.67,9.77 -10.51,18.68 -20.01,23.33 -11.99,6.04 -25.48,8.04 -38.66,9.62 -26.25,2.54 -52.69,2.25 -79,0.99 -15.94,-1.27 -32.219995,-2.45 -47.299995,-8.16 -9.93,-3.77 -18.37,-11.56 -22.2,-21.54 -4.41,-10.8 -3.82,-22.8 -2.32,-34.13 12.78,0.02 25.56,0 38.35,0.01 -0.49,8.45 -1.84,17.77 2.69,25.42 4.269995,6.36 12.669995,6.59 19.489995,7.69 20.49,2.19 41.15,1.97 61.72,1.52 13.32,-0.66 26.99,-0.92 39.74,-5.2 6.11,-2 8.44,-8.63 9.83,-14.28 3.3,-14.82 2.11,-30.1 2.38,-45.15 -14.86,9.04 -32.58,11.12 -49.56,12.69 -19.18,1.31 -38.45,1.48 -57.62,0.05 -10.44,-0.99 -20.95,-2.27 -30.959995,-5.48 -8.16,-2.55 -16.17,-6.53 -21.73,-13.2 -10.66,-12.57 -12.95,-29.81 -13.16,-45.73 0.19,-17.1 1.85,-35.45 12.08,-49.8 5.98,-8.66 15.91,-13.39 25.78,-16.12 m 59.399995,23.4 c -7.26,0.29 -14.54,0.04 -21.77,0.8 -8.61,0.76 -17.45,1.43 -25.53,4.74 -4.94,2.03 -7.349995,7.28 -8.629995,12.14 -2.68,10.73 -2.49,21.94 -1.68,32.9 0.8,6.56 1.99,13.56 6.279995,18.84 3.93,3.93 9.69,5.04 14.92,6.17 18.63,3.26 37.63,2.49 56.44,2.3 13.3,-0.46 26.72,-0.91 39.76,-3.78 5.16,-0.99 10.19,-3.93 12.25,-8.98 4.76,-11.21 3.62,-23.76 2.64,-35.59 -1.02,-7.3 -2.21,-15.26 -7.29,-20.95 -4.34,-3.75 -10.27,-4.57 -15.67,-5.75 -17.09,-2.79 -34.47,-2.88 -51.72,-2.84 z" />
  <path
     style="opacity:1;fill:#000000"
     inkscape:connector-curvature="0"
     id="path44"
     d="m 389.69995,713.65938 c 14.45,-6.95 30.69,-8.63 46.47,-9.99 25.02,-1.41 50.17,-1.24 75.13,1.07 14.13,1.77 28.98,3.48 41.35,11.08 9.62,5.91 15.83,16.38 17.68,27.38 1.66,8.02 0.62,16.22 0.75,24.33 -13.47,0 -26.95,0.01 -40.42,-0.01 1.08,-7.52 2.94,-15.46 0,-22.82 -1.94,-5.04 -7.08,-7.94 -12.14,-8.98 -12.85,-3 -26.13,-2.9 -39.24,-3.2 -18.69,0.39 -37.57,0.21 -55.99,3.96 -5.25,1.07 -10.82,3.18 -13.76,7.96 -3.4,5.24 -4.39,11.65 -4.62,17.78 -0.04,11.52 0.03,23.05 -0.03,34.58 14.21,-8.89 31.27,-11.32 47.65,-12.91 18.91,-1.54 37.93,-1.37 56.86,-0.14 12.4,1.12 24.94,2.58 36.73,6.82 7.73,2.72 15.1,7.1 20.12,13.71 7.87,10.21 10.92,23.25 11.87,35.88 0.63,15.9 0.5,32.35 -5.42,47.38 -3.76,9.68 -10.64,18.47 -20.16,22.99 -12.27,5.87 -25.94,7.83 -39.32,9.29 -27.54,2.39 -55.32,2.42 -82.85,-0.09 -14.96,-1.76 -30.45,-4.06 -43.59,-11.91 -11.61,-7.31 -17.74,-20.57 -20.59,-33.55 -2.89,-12.83 -2.93,-26.05 -2.87,-39.14 -0.53,-15.3 -0.94,-30.63 -0.03,-45.92 0.35,-17.7 -0.53,-36.08 6.3,-52.8 3.82,-9.6 10.65,-18.27 20.12,-22.75 m 74.94,98.97 c -13.83,0.24 -27.75,0.58 -41.37,3.22 -6.41,1.23 -13.53,3.28 -17.21,9.16 -5.17,8.04 -4.17,18.01 -4.07,27.11 0.64,9.46 1.43,19.44 6.33,27.79 3.82,6.33 11.87,7.4 18.46,8.91 20.22,3.41 40.82,3.04 61.25,2.71 10.78,-0.35 21.61,-1.01 32.22,-3.07 5.41,-1.1 11.46,-2.79 14.27,-8.03 4.55,-8.62 4.83,-18.71 4.99,-28.24 -0.43,-9.72 -0.64,-20.08 -5.6,-28.75 -3.3,-5.68 -10.37,-6.68 -16.2,-7.94 -17.52,-2.93 -35.37,-2.88 -53.07,-2.87 z" />
  <path
     style="opacity:1;fill:#000000"
     inkscape:connector-curvature="0"
     id="path46"
     d="m 666.70995,796.15938 c 13.46,0.03 26.91,0.03 40.37,0.01 0.02,12.01 0.01,24.02 0,36.03 -13.46,-0.04 -26.92,-0.03 -40.38,0 -0.01,-12.02 -0.03,-24.03 0.01,-36.04 z" />
  <g
     id="g4892"
     transform="matrix(1.0385428,0,0,1.0385428,-77.462433,485.56543)">
    <path
       transform="matrix(1.0170486,0,0,1.0170486,921.11578,31.677312)"
       sodipodi:nodetypes="ccccccccccccccccccccccccccccccccccccccccccccccccccccccccccccccccccccccc"
       d="m -567.20395,-483.22508 c 17.84,-9 38.55,-8.25 57.93,-6.62 48.62,4.87 97.46,13.38 142.85,32.1 14.51,6.07 28.6,13.25 41.75,21.9 5,-12.78 13.86,-24.3 25.82,-31.24 11.03,-6.52 23.87,-9.22 36.52,-10.19 14.36,-1.25 28.89,-0.54 43.07,2.04 11.55,1.99 22.73,5.78 34.4,7.17 7.82,2.24 15.64,4.54 23.37,7.07 17.05,9.24 35.82,15.06 52.23,25.54 8.77,5.73 17.89,11.78 23.41,20.95 8.43,1.42 16.95,3.09 24.69,6.88 2.06,1.07 4.31,1.68 6.63,1.96 13.21,1.97 26.06,7.32 36.16,16.17 1.01,-15.94 6.29,-31.9 16.47,-44.37 10.03,-12.47 24.83,-20.86 40.59,-23.43 18.16,-3.1 36.81,0.42 53.77,7.13 8.72,3.16 16.82,7.84 25.73,10.47 15.55,5.15 31.42,11.01 43.99,21.86 10.6,8.96 17.94,21.82 19.63,35.65 1.71,11.64 -0.85,23.48 -5.57,34.12 -0.44,12.26 1.83,24.47 2.37,36.72 1.12,14.3 0.46,28.65 0.24,42.96 -0.79,46.69 -3.56,93.34 -3.59,140.05 -0.92,5.42 -2.86,10.63 -4.19,15.97 -1.25,3.83 -1.73,7.99 -3.71,11.55 -6.84,10.47 -16.51,19.13 -27.82,24.52 -13.23,6.48 -28.27,8.48 -42.86,7.58 -17.27,-1.11 -34.43,-3.84 -51.16,-8.27 -14.25,-3.82 -28.32,-8.97 -40.84,-16.9 -2.23,11.29 -8.96,21.42 -17.25,29.27 -10.93,10.25 -25.64,16.02 -40.51,17.03 -18.41,1.36 -36.7,-3.32 -53.69,-10.07 -14.52,-5.85 -28.62,-13.13 -40.73,-23.14 -10.06,2.78 -20.56,2.61 -30.88,3.37 -14.31,1.61 -28.42,5.23 -42.89,5.11 -4.33,0.18 -8.82,-0.97 -12.95,0.81 -14.03,4.85 -29.46,4.96 -43.7,0.93 -18.96,-5.04 -35.38,-18.1 -45.32,-34.92 -11.24,-18.95 -14.69,-41.75 -12.43,-63.45 4.81,-10.32 10.24,-20.36 15.35,-30.54 4.74,-5.46 11.39,-8.81 17.5,-12.53 1.82,-1.25 3.18,-3.02 4.64,-4.65 -0.21,-0.73 -0.62,-2.19 -0.82,-2.92 -28.68,15.5 -60.49,24.05 -92.35,30.11 2.33,12.28 3.39,24.76 5.61,37.06 0.55,2.39 0.62,5.11 2.42,6.98 12,14.08 17.64,32.56 19.15,50.74 0.79,6.93 0.34,13.91 0.47,20.87 -10.52,14.69 -21.12,29.33 -31.64,44.03 -19.97,7.18 -41.98,7.08 -62.46,2.15 -16.66,-4.05 -32.67,-10.81 -47.22,-19.86 -15.34,-10.45 -28.96,-23.9 -38.27,-40.05 -15.44,12.09 -33.42,20.57 -52.03,26.55 -19.98,6.31 -40.92,10.12 -61.93,9.68 -10.08,0.37 -19.98,-2.09 -29.48,-5.25 -3.68,-1.35 -7.64,-0.57 -11.46,-0.92 -13.02,-0.3 -25.75,-5.12 -36.04,-13.05 -3.16,-2.68 -7.45,-3.03 -11.22,-4.4 -11.36,-3.36 -22.2,-8.5 -31.82,-15.44 -7.01,-4.9 -13.34,-10.66 -20.12,-15.85 -4.12,-3.53 -7.68,-7.66 -11.65,-11.36 -4.27,-3.66 -6.53,-8.98 -8.9,-13.95 -13,-29.47 -6.33,-65.64 14.3,-89.97 -16.23,-15.23 -26.74,-36.52 -28.44,-58.76 -0.57,-10.08 -0.3,-20.29 2.05,-30.16 3.11,-14.78 10.23,-28.23 17.41,-41.37 12.7,-25.95 31.11,-49.37 54.76,-66.17 27.79,-20.08 61.66,-31.47 95.92,-32.48 21.8,-0.86 43.79,2.23 64.54,8.98 2.72,-17.64 14,-33.95 30.2,-41.75"
       id="path17-8"
       inkscape:connector-curvature="0"
       style="opacity:1;fill:#000000;fill-opacity:1" />
    <path
       d="m 362.84362,-412.76792 c 1.72898,-3.74274 6.18365,-4.62757 9.86537,-5.22763 9.39753,-1.28148 18.92727,-0.45767 28.33497,0.39665 32.86084,3.33592 65.65049,8.55338 97.3824,17.87971 30.31822,9.04156 60.36184,21.86655 84.2218,43.13303 8.15673,7.34309 15.39811,15.70323 21.36819,24.91769 4.87166,-1.62727 8.85849,-4.98354 12.21475,-8.77713 4.89201,-5.54291 12.03169,-9.0619 15.53034,-15.79476 5.35984,-12.72328 -0.40682,-27.48065 5.77683,-39.99035 2.61382,-5.73616 9.2348,-7.33292 14.89976,-8.15673 13.44539,-1.82052 27.20605,-1.30182 40.47854,1.5154 10.74003,2.22734 21.28683,5.61411 32.25061,6.63116 2.77654,0.30511 5.78701,0.0509 8.18724,1.75949 19.44597,11.56384 42.47195,16.72028 60.01604,31.498 4.76996,3.71222 2.18665,10.4756 1.77983,15.48965 12.67243,4.38348 26.28054,4.32245 39.2174,7.53633 4.42416,0.96619 7.94315,4.13938 12.30629,5.29882 6.26502,1.70864 13.00805,1.48489 19.0188,4.14956 5.37002,2.4104 9.24498,7.2007 12.20459,12.15373 4.78013,8.29912 7.60752,17.50341 11.43162,26.25002 12.09271,27.95867 32.42351,51.05584 48.20811,76.83803 4.05802,6.24467 9.39753,11.92998 16.4355,14.76754 5.95991,-5.57343 4.44451,-14.17766 4.54621,-21.46989 2.09512,-24.28713 5.01405,-48.8997 1.05773,-73.16648 -3.2749,-19.59853 -8.49236,-39.02416 -8.73645,-59.00916 0.11188,-8.6856 0.86449,-18.32722 6.81423,-25.20247 4.92251,-5.75649 13.08941,-6.86507 20.2291,-6.2345 13.73015,1.23063 26.07708,7.86178 38.55628,13.17078 10.5468,3.94614 21.592,6.73286 31.5794,12.07236 3.7834,2.19683 8.4008,4.64792 9.4891,9.26532 0.9356,6.31587 -4.231,11.1977 -5.1056,17.19829 -2.5833,14.82857 -0.041,29.86054 1.0475,44.70945 1.8104,17.60512 0.7526,35.30176 0.6103,52.95772 -1.1086,45.98077 -3.4275,91.9412 -3.6716,137.932136 -3.5495,8.095707 -13.4657,10.994295 -21.6733,11.319751 -13.7098,0.07119 -27.3586,-2.105291 -40.73279,-4.942857 -11.86896,-2.746031 -23.7786,-6.112462 -34.38642,-12.23509 -9.41787,-5.4107 -15.05231,-15.03198 -21.19529,-23.6057 -6.26502,-9.49924 -14.01493,-17.86955 -20.90035,-26.90094 -11.65537,-14.90993 -23.19888,-30.10464 -37.47824,-42.63467 -3.96649,38.19017 -2.50194,76.89904 3.87496,114.753589 0.4475,3.14268 1.82051,6.71252 -0.29495,9.570427 -3.95632,6.793885 -12.73344,8.095707 -19.90364,7.546501 -15.55067,-1.45438 -30.27753,-7.587183 -43.90599,-14.930274 -11.61469,-6.214167 -21.53091,-16.099879 -26.27036,-28.538383 -2.90876,-7.2007 -4.04785,-14.96079 -4.50553,-22.68018 -3.44779,0.51869 -7.07865,1.66796 -9.11275,4.7191 -5.34968,7.65838 -4.59706,17.9204 -10.0281,25.54826 -1.40353,2.105293 -3.76308,3.325751 -6.204,3.793593 -5.87854,1.169606 -11.89947,0.925514 -17.8492,1.403527 -12.91652,0.803469 -25.54826,3.783421 -38.39358,5.146266 -7.21088,0.803469 -14.4421,-0.559377 -21.6428,0.04068 -5.61411,0.742446 -10.71969,3.478306 -16.26261,4.505525 -10.5773,1.678131 -21.91739,-3.183362 -27.8061,-12.163901 -7.3431,-10.70952 -8.47202,-24.31763 -7.52616,-36.91886 5.5124,-4.78013 12.7843,-6.96678 18.05261,-12.0622 5.19712,-5.01405 9.92639,-10.51628 14.10646,-16.39482 4.10888,-5.99042 8.09571,-12.80464 7.53633,-20.35114 -0.65091,-12.67243 -5.31916,-24.64309 -7.85161,-36.96972 -2.33921,-11.83845 -7.04815,-23.00564 -10.0993,-34.64068 -2.04426,-7.2007 -0.74244,-14.70652 -1.00687,-22.05978 -0.0407,-3.55967 -1.90188,-7.05832 -5.06491,-8.79747 -5.21746,-3.01046 -11.56384,-2.4816 -17.27965,-1.47472 1.6883,14.7472 -3.34609,30.28771 -14.22851,40.54973 -10.32304,9.46872 -23.07683,15.79476 -35.89165,21.19529 -33.68465,13.55726 -69.84072,19.66972 -105.81373,23.2599 -2.66467,22.192 3.88512,43.89582 6.6515,65.72168 1.92222,13.77084 3.38677,27.7756 8.0957,40.936205 2.52228,7.099 9.69248,11.157024 12.40799,18.154318 4.76996,10.628158 4.66826,22.486944 4.47502,33.89823 -12.17407,4.159729 -25.42622,3.234214 -37.69182,-0.04068 -10.24168,-2.746031 -20.09688,-6.936272 -29.24015,-12.296118 -7.49565,-4.830981 -14.14715,-10.963784 -19.70023,-17.920396 -3.39694,-4.373309 -6.66167,-9.224631 -7.30241,-14.85908 -1.13909,-9.173779 0.86449,-18.530629 -1.23063,-27.623039 -2.99012,-13.87254 -7.84144,-27.26707 -10.60782,-41.20064 -2.3087,-11.31975 -3.23421,-22.86325 -5.21746,-34.23386 -0.98653,-4.892 -1.84085,-10.20099 -5.35984,-14.00475 -5.22763,-5.82769 -12.54021,-9.06191 -18.56114,-13.91323 -6.64133,-5.3395 -12.59106,-11.47231 -18.92727,-17.15761 -6.16332,2.51211 -13.37419,3.48848 -19.62904,0.75262 -7.06849,-2.96979 -12.15373,-9.06191 -16.41516,-15.21505 -4.08854,-5.99042 -5.60394,-13.45555 -10.33322,-19.03915 -4.99371,-4.68859 -12.10288,-5.95991 -17.64579,-9.83486 -13.11993,-8.36014 -22.06996,-22.72087 -37.20364,-27.92816 -15.18454,-4.97336 -31.33527,-8.48218 -47.37412,-6.54979 -8.53304,1.21029 -17.10676,4.35297 -23.57519,10.201 -4.06819,3.74274 -4.37331,9.79418 -3.30541,14.87942 1.88154,8.3398 6.90576,15.5405 12.32663,21.98859 11.82828,13.82169 27.56202,23.55485 43.68224,31.62004 29.81986,14.6455 61.79587,24.44985 91.17841,40.01069 13.18095,6.93628 25.5686,15.35744 36.85784,25.06008 4.38348,4.10888 9.14326,8.17707 11.84861,13.65896 3.102,8.07537 1.52558,17.06608 -1.02722,25.08042 -4.47501,14.45226 -15.33709,25.77201 -26.78906,35.149202 -13.46572,11.187535 -29.86054,18.184829 -46.58082,22.893764 -13.58777,3.742739 -27.66372,5.959905 -41.77019,5.746325 -9.94673,0.101705 -18.75437,-5.593767 -28.5994,-6.214167 -5.35985,-0.518695 -10.96379,0.905173 -16.12023,-1.108583 -4.97336,-2.145973 -8.45167,-6.671839 -13.42504,-8.848323 -9.4077,-4.302115 -19.95449,-5.583597 -29.09776,-10.546794 -10.33321,-5.593764 -18.41875,-14.320044 -28.07054,-20.900344 -4.22075,-3.87496 -5.34967,-10.07896 -5.94973,-15.54051 -0.77296,-11.62486 3.58001,-23.47348 11.70623,-31.82345 32.12856,10.13998 60.61609,28.88418 92.34801,40.03104 16.58806,5.90905 34.07113,9.6111 51.71692,9.91622 6.40741,-0.14239 13.0589,-0.5187 18.95779,-3.25456 3.4783,-1.54591 6.4074,-4.73944 6.73286,-8.64491 0.5492,-5.75649 -2.99012,-10.89259 -6.9261,-14.71669 -8.00418,-7.4448 -17.99159,-12.17407 -27.65355,-17.04574 -30.3589,-15.59135 -63.66725,-24.48036 -93.83291,-40.50904 -7.63803,-4.07837 -14.27936,-9.80435 -22.1208,-13.53692 -12.20459,-6.34638 -24.55156,-13.9234 -32.13874,-25.75167 -7.10917,-10.76037 -8.31946,-24.55155 -5.28865,-36.86801 2.43074,-10.00776 7.81093,-18.88659 12.55038,-27.90782 4.70893,-9.5094 10.06878,-18.73403 16.56772,-27.13485 19.46631,-25.49741 49.53026,-42.2482 81.19099,-46.65202 37.97659,-5.32934 78.75007,4.98354 107.88851,30.37924 11.02481,9.70264 17.53392,23.2599 27.75526,33.70499 0.26443,-14.03527 -0.67125,-28.14173 -3.5495,-41.89223 -2.10529,-9.72299 -5.24797,-19.42563 -11.04515,-27.6027 2.04427,-1.23063 4.49536,-2.43075 5.15644,-4.95303 2.64432,-8.50252 -2.23751,-17.71698 1.40353,-26.05678 m 101.07429,54.32056 c -5.95991,7.43463 -6.28536,17.54409 -6.15315,26.64668 0.18307,13.31316 2.207,26.51445 2.73586,39.80728 1.00688,14.69635 1.07807,29.5656 4.31229,44.00769 17.23897,-3.997 34.87459,-8.37031 50.00828,-17.92039 8.36014,-5.24798 15.49982,-13.77084 15.69306,-24.08372 0.49835,-16.13039 -6.96679,-31.38612 -15.96767,-44.34331 -9.82468,-12.73345 -21.69364,-26.04662 -38.25119,-29.24015 -4.74962,-1.55609 -9.34668,1.76966 -12.37748,5.12592 m 275.96596,45.0756 c -1.2408,1.81034 -3.02063,3.62069 -2.91893,5.98024 0.40682,19.53751 1.80018,39.06484 4.19024,58.47013 1.50524,13.31316 2.46126,26.72803 5.14627,39.8683 1.03739,4.66826 2.17648,9.42804 4.70893,13.53692 7.39395,10.91293 21.78519,12.1639 32.05738,19.24256 0.25426,-32.53539 -0.89501,-65.11145 -4.39365,-97.46377 -2.24768,-20.07654 -5.32934,-40.1124 -10.36373,-59.69058 -10.41458,5.09541 -21.28683,10.56713 -28.42651,20.0562 m -383.43749,72.32232 c 8.29912,0.76279 18.23568,3.52916 25.31434,-2.29853 -1.26114,-6.12263 0.0712,-13.24197 -4.3428,-18.28653 -5.58359,8.27878 -15.48965,12.22492 -20.97154,20.58506 z"
       id="path46-7"
       inkscape:connector-curvature="0"
       style="opacity:1;fill:#ee4097;fill-opacity:1;stroke-width:1.0170486" />
  </g>
</svg>
