<svg id="a" width="1071.8pt" height="921.61pt" version="1.1" viewBox="0 0 1071.8 921.61" xmlns="http://www.w3.org/2000/svg">
 <path id="b" d="m896.85 502.97c13.16-0.87 26.36-0.53 39.54-0.58 14.82 0.38 29.72 0.91 44.36 3.48 8.32 1.66 17.51 3.73 23.18 10.62 7.32 8.78 8.88 20.65 9.75 31.66 0.61 12.11 0.25 24.37-2.24 36.27-1.98 8.76-6.07 18.09-14.48 22.36-10.16 4.78-21.55 5.7-32.55 6.91-26.7 1.82-53.54 1.84-80.23 0.04-11.08-1.14-22.48-2.14-32.76-6.76-9.17-4.39-13.54-14.57-15.42-24.01-2.88-15.11-2.45-30.61-1.64-45.9 0.32-9.12 5.11-18.02 12.74-23.09 5.96-4.16 13.1-6.14 20.14-7.61 9.76-1.95 19.69-2.82 29.61-3.39m6.5 15.37c-10.35 0.62-20.88 0.67-30.95 3.41-5.9 1.43-6.94 8.45-8.13 13.46-2.29 15.51-2.26 31.43 0.01 46.94 1.2 5 2.22 12.05 8.15 13.45 10.39 2.85 21.26 2.8 31.93 3.46 13.05 0.44 26.11 0.42 39.16 0 10.7-0.68 21.61-0.62 32.03-3.52 5.07-1.19 6.41-6.96 7.54-11.31 2.13-10.88 2.21-22.05 2.19-33.1-0.76-7.14 0.6-14.68-2.44-21.43-1.74-4.24-5.75-7.17-10.14-8.2-9.62-2.36-19.58-2.6-29.42-3.15-13.3-0.56-26.63-0.46-39.93-0.01z" fill="#fff"/>
 <path id="c" d="m55.31 503.37c29.01 0.03 58.02 0 87.03 0.01 19.45 0.12 39.6-1.07 58.21 5.67 9.08 3.12 16.32 11.28 17.49 20.93 0.65 7.85 0.7 16.38-3.59 23.32-3.39 5.73-9.93 8.47-16.09 10.11 5.67 1.83 11.42 4.84 14.53 10.15 2.4 3.73 2.94 8.29 2.78 12.64-0.03 9.25-0.03 18.5 0.01 27.75-10 0.04-20 0.01-30 0.01 0-9.59 0.07-19.18-0.01-28.76 0.01-5.73-4.73-10.17-9.91-11.74-8.81-3.02-18.28-2.45-27.46-2.49h-63.21c0.01 14.33-0.02 28.67 0.02 43-9.95-0.01-19.9 0.03-29.84-0.02 0.07-36.86-0.01-73.72 0.04-110.58m29.78 15.61c0.01 12.14 0 24.27 0 36.41 22.06-0.01 44.11 0.01 66.17-0.01 8.73-0.29 17.55-0.54 26.12-2.41 3.77-0.92 7.91-2.31 10.06-5.78 2.74-4.06 2.46-9.29 1.93-13.93-0.64-4.33-2.27-9.34-6.69-11.13-7.42-2.71-15.47-2.73-23.27-3.13-24.77-0.05-49.55-0.02-74.32-0.02z" fill="#fff"/>
 <path id="d" d="m342.18 503.37c12.12 0.04 24.24-0.01 36.36 0.02 26.61 36.88 53.27 73.72 79.95 110.55-10.75 0.06-21.5 0.04-32.25 0.01-5.18-7.37-10.47-14.67-15.71-21.98-32.91 0.01-65.81 0.03-98.71-0.01-5.24 7.32-10.44 14.68-15.67 22.01-10.78 0-21.57 0-32.36 0.01 26.04-36.93 52.27-73.73 78.39-110.61m-19.93 74.03c25.9-0.04 51.79 0.01 77.69-0.02-13.1-18.57-26.14-37.19-39.1-55.85-12.88 18.61-25.76 37.22-38.59 55.87z" fill="#fff"/>
 <path id="e" d="m509.29 503.38c29.65 0.01 59.3 0 88.94 0 20.1-0.06 40.72-0.29 60.08 5.88 9.31 2.83 17.65 9.26 21.62 18.29 6.08 13.64 5.48 29.08 3.9 43.61-1.34 9.88-4 20.17-10.81 27.77-5.56 6.25-13.67 9.34-21.57 11.37-18.7 4.64-38.08 3.56-57.16 3.67h-84.98c-0.04-36.86 0-73.72-0.02-110.59m29.8 15.6c0 26.48 0.02 52.95-0.01 79.43 19.39-0.06 38.78-0.01 58.17-0.03 13.64-0.01 27.47-0.16 40.8-3.35 5.32-1.24 10.76-3.87 13.24-9.03 5.15-10.11 4.79-21.83 4.59-32.87-0.36-8.03-1.25-16.36-5.02-23.59-2.14-4.39-7.01-6.31-11.45-7.45-9.5-2.36-19.34-2.81-29.09-3.11-23.74-0.01-47.49-0.01-71.23 0z" fill="#fff"/>
 <path id="f" d="m746.3 503.38c9.94 0 19.87 0.02 29.81-0.01-0.04 36.87-0.01 73.74-0.01 110.61-9.93-0.02-19.86 0.01-29.78-0.01-0.04-36.86-0.01-73.73-0.02-110.59z" fill="#fff"/>
 <path id="g" d="m17.14 650.07c2.71-3.18 6.95-5.06 11.13-4.88 341.04 0.01 682.08 0 1023.1 0.01 7.86-0.21 14.74 7.3 13.82 15.12-0.37 6.63-6.17 12.45-12.81 12.74-341.73 0.01-683.45 0-1025.2 0.01-4.91-0.1-9.36-3.16-11.79-7.34-1.85-5.01-2.07-11.46 1.72-15.66z" fill="#fff"/>
 <path id="h" d="m865.18 703.57c25.58-3.15 51.46-3.37 77.18-2 12.8 1.02 25.71 2.48 37.95 6.58 8.51 2.86 16.77 7.39 22.34 14.63 8.66 11.14 11.72 25.53 12.51 39.34 0.45 12.92 0.33 26.14-3.66 38.58-2.83 9.48-8.33 18.51-16.7 24.05-7.82 5.03-16.86 7.7-25.81 9.89-22.89 5.3-46.43 6.53-69.76 8.54-13.95 1.64-28.19 2.64-41.57 7.19-4.04 1.13-6.55 4.77-7.74 8.6-3.12 9.26-3.24 19.18-3.27 28.86 56-0.02 112 0.01 168.01-0.02 0 9.91-0.02 19.82 0.01 29.73-69.45 0.01-138.9-0.05-208.34 0.03-0.06-15.8-0.02-31.6-0.03-47.39 0.27-11.51 2.3-23.48 8.76-33.24 4.02-6.14 10.19-10.61 17.03-13.17 12.18-4.64 25.13-6.78 37.97-8.71 23.89-3.63 48.1-4.39 71.98-8 8.19-1.39 16.55-2.64 24.21-5.99 6.05-2.88 7.66-10.19 8.85-16.17 1.69-11.81 2.18-24.08-0.9-35.7-1.52-5.91-5.41-11.51-11.41-13.45-14.26-4.92-29.59-4.78-44.47-5.23-17.69 0.38-35.53 0.11-52.98 3.39-5.21 1.04-10.97 2.46-14.21 7.06-5.12 7.27-5.25 16.65-5.05 25.19 0.16 5.79 0.02 11.6 0.62 17.36-13.4 0.02-26.81 0.02-40.22 0 0.4-14.27-0.56-28.88 3.7-42.72 3.19-11.14 10.06-21.64 20.33-27.39 10.65-5.84 22.77-8.12 34.67-9.84z" fill="#fff"/>
 <path id="i" d="m94.36 709.24c18.52-5.12 37.87-5.76 56.96-6.42 22.52-0.1 45.2 0.07 67.45 4 12.85 2.53 26.61 6.1 35.86 16.01 10.67 11.71 14.13 27.97 15.2 43.32 0.57 13.66 0.09 27.35 0.82 41 0 13.31 0.68 26.64-0.31 39.94 0.01 13.35-0.59 27.04-5.52 39.62-3.67 9.77-10.51 18.68-20.01 23.33-11.99 6.04-25.48 8.04-38.66 9.62-26.25 2.54-52.69 2.25-79 0.99-15.94-1.27-32.22-2.45-47.3-8.16-9.93-3.77-18.37-11.56-22.2-21.54-4.41-10.8-3.82-22.8-2.32-34.13 12.78 0.02 25.56 0 38.35 0.01-0.49 8.45-1.84 17.77 2.69 25.42 4.27 6.36 12.67 6.59 19.49 7.69 20.49 2.19 41.15 1.97 61.72 1.52 13.32-0.66 26.99-0.92 39.74-5.2 6.11-2 8.44-8.63 9.83-14.28 3.3-14.82 2.11-30.1 2.38-45.15-14.86 9.04-32.58 11.12-49.56 12.69-19.18 1.31-38.45 1.48-57.62 0.05-10.44-0.99-20.95-2.27-30.96-5.48-8.16-2.55-16.17-6.53-21.73-13.2-10.66-12.57-12.95-29.81-13.16-45.73 0.19-17.1 1.85-35.45 12.08-49.8 5.98-8.66 15.91-13.39 25.78-16.12m59.4 23.4c-7.26 0.29-14.54 0.04-21.77 0.8-8.61 0.76-17.45 1.43-25.53 4.74-4.94 2.03-7.35 7.28-8.63 12.14-2.68 10.73-2.49 21.94-1.68 32.9 0.8 6.56 1.99 13.56 6.28 18.84 3.93 3.93 9.69 5.04 14.92 6.17 18.63 3.26 37.63 2.49 56.44 2.3 13.3-0.46 26.72-0.91 39.76-3.78 5.16-0.99 10.19-3.93 12.25-8.98 4.76-11.21 3.62-23.76 2.64-35.59-1.02-7.3-2.21-15.26-7.29-20.95-4.34-3.75-10.27-4.57-15.67-5.75-17.09-2.79-34.47-2.88-51.72-2.84z" fill="#fff"/>
 <path id="j" d="m389.7 713.66c14.45-6.95 30.69-8.63 46.47-9.99 25.02-1.41 50.17-1.24 75.13 1.07 14.13 1.77 28.98 3.48 41.35 11.08 9.62 5.91 15.83 16.38 17.68 27.38 1.66 8.02 0.62 16.22 0.75 24.33-13.47 0-26.95 0.01-40.42-0.01 1.08-7.52 2.94-15.46 0-22.82-1.94-5.04-7.08-7.94-12.14-8.98-12.85-3-26.13-2.9-39.24-3.2-18.69 0.39-37.57 0.21-55.99 3.96-5.25 1.07-10.82 3.18-13.76 7.96-3.4 5.24-4.39 11.65-4.62 17.78-0.04 11.52 0.03 23.05-0.03 34.58 14.21-8.89 31.27-11.32 47.65-12.91 18.91-1.54 37.93-1.37 56.86-0.14 12.4 1.12 24.94 2.58 36.73 6.82 7.73 2.72 15.1 7.1 20.12 13.71 7.87 10.21 10.92 23.25 11.87 35.88 0.63 15.9 0.5 32.35-5.42 47.38-3.76 9.68-10.64 18.47-20.16 22.99-12.27 5.87-25.94 7.83-39.32 9.29-27.54 2.39-55.32 2.42-82.85-0.09-14.96-1.76-30.45-4.06-43.59-11.91-11.61-7.31-17.74-20.57-20.59-33.55-2.89-12.83-2.93-26.05-2.87-39.14-0.53-15.3-0.94-30.63-0.03-45.92 0.35-17.7-0.53-36.08 6.3-52.8 3.82-9.6 10.65-18.27 20.12-22.75m74.94 98.97c-13.83 0.24-27.75 0.58-41.37 3.22-6.41 1.23-13.53 3.28-17.21 9.16-5.17 8.04-4.17 18.01-4.07 27.11 0.64 9.46 1.43 19.44 6.33 27.79 3.82 6.33 11.87 7.4 18.46 8.91 20.22 3.41 40.82 3.04 61.25 2.71 10.78-0.35 21.61-1.01 32.22-3.07 5.41-1.1 11.46-2.79 14.27-8.03 4.55-8.62 4.83-18.71 4.99-28.24-0.43-9.72-0.64-20.08-5.6-28.75-3.3-5.68-10.37-6.68-16.2-7.94-17.52-2.93-35.37-2.88-53.07-2.87z" fill="#fff"/>
 <path id="k" d="m666.71 796.16c13.46 0.03 26.91 0.03 40.37 0.01 0.02 12.01 0.01 24.02 0 36.03-13.46-0.04-26.92-0.03-40.38 0-0.01-12.02-0.03-24.03 0.01-36.04z" fill="#fff"/>
 <path id="l" d="m280.05 8.0579c18.843-9.5062 40.718-8.7141 61.188-6.9924 51.355 5.1439 102.94 14.133 150.89 33.906 15.326 6.4114 30.209 13.995 44.098 23.132 5.2812-13.499 14.64-25.667 27.272-32.997 11.65-6.8867 25.213-9.7386 38.574-10.763 15.168-1.3203 30.515-0.57038 45.493 2.1547 12.2 2.1019 24.009 6.1051 36.335 7.5733 8.2599 2.366 16.52 4.7954 24.685 7.4677 18.009 9.7597 37.835 15.907 55.168 26.977 9.2633 6.0523 18.896 12.443 24.727 22.128 8.9042 1.4999 17.903 3.2638 26.079 7.267 2.1759 1.1302 4.5524 1.7745 7.0029 2.0702 13.953 2.0808 27.526 7.7317 38.194 17.08 1.0668-16.837 6.6438-33.694 17.396-46.866 10.594-13.171 26.227-22.033 42.873-24.748 19.181-3.2744 38.881 0.44362 56.794 7.5311 9.2105 3.3377 17.766 8.281 27.177 11.059 16.425 5.4397 33.187 11.629 46.464 23.09 11.196 9.464 18.949 23.047 20.734 37.655 1.8062 12.295-0.8978 24.801-5.8833 36.039-0.4648 12.95 1.9329 25.846 2.5033 38.785 1.183 15.104 0.4859 30.262 0.2535 45.376-0.8344 49.316-3.7602 98.59-3.7919 147.93-0.9718 5.7249-3.0209 11.228-4.4257 16.868-1.3203 4.0454-1.8273 8.4394-3.9187 12.2-7.2247 11.059-17.439 20.206-29.385 25.899-13.974 6.8445-29.86 8.957-45.271 8.0064-18.241-1.1724-36.367-4.056-54.038-8.7352-15.052-4.0349-29.913-9.4745-43.137-17.851-2.3554 11.925-9.464 22.625-18.22 30.916-11.545 10.827-27.082 16.921-42.789 17.988-19.446 1.4365-38.764-3.5067-56.71-10.636-15.337-6.1791-30.23-13.869-43.021-24.442-10.626 2.9364-21.716 2.7568-32.617 3.5596-15.115 1.7006-30.019 5.5242-45.302 5.3974-4.5736 0.19012-9.3161-1.0246-13.678 0.85556-14.819 5.1228-31.117 5.239-46.158 0.98231-20.026-5.3235-37.37-19.118-47.869-36.884-11.872-20.016-15.516-44.098-13.129-67.019 5.0806-10.9 10.816-21.505 16.213-32.258 5.0066-5.7671 12.031-9.3056 18.484-13.235 1.9224-1.3203 3.3589-3.1899 4.901-4.9116-0.22181-0.77106-0.65487-2.3132-0.86612-3.0842-30.293 16.372-63.892 25.403-97.545 31.804 2.4611 12.971 3.5807 26.153 5.9256 39.145 0.58094 2.5244 0.65488 5.3974 2.5561 7.3726 12.675 14.872 18.632 34.391 20.227 53.594 0.83444 7.3198 0.35913 14.692 0.49644 22.044-11.112 15.516-22.308 30.98-33.42 46.507-21.093 7.5839-44.341 7.4782-65.973 2.2709-17.597-4.2778-34.508-11.418-49.876-20.977-16.203-11.038-30.589-25.244-40.423-42.303-16.308 12.77-35.3 21.727-54.957 28.043-21.104 6.6649-43.222 10.689-65.413 10.224-10.647 0.39081-21.104-2.2076-31.138-5.5453-3.887-1.4259-8.0697-0.60207-12.105-0.97175-13.752-0.31688-27.198-5.408-38.067-13.784-3.3377-2.8308-7.869-3.2004-11.851-4.6475-11.999-3.549-23.449-8.9781-33.61-16.308-7.4043-5.1756-14.09-11.26-21.252-16.742-4.3517-3.7286-8.112-8.0909-12.305-11.999-4.5102-3.8659-6.8973-9.4851-9.4006-14.735-13.731-31.128-6.6861-69.332 15.104-95.031-17.143-16.087-28.244-38.574-30.04-62.065-0.60206-10.647-0.31687-21.431 2.1653-31.856 3.2849-15.611 10.805-29.818 18.389-43.697 13.414-27.41 32.86-52.147 57.84-69.892 29.353-21.209 65.128-33.24 101.32-34.307 23.026-0.90837 46.253 2.3554 68.17 9.4851 2.873-18.632 14.787-35.86 31.899-44.098" fill="#fff" stroke-width="1.0562"/>
 <path id="m" d="m299.37 56.888c1.7956-3.887 6.422-4.8059 10.246-5.4291 9.7597-1.3309 19.657-0.47531 29.427 0.41194 34.127 3.4645 68.181 8.8831 101.14 18.569 31.487 9.39 62.688 22.709 87.468 44.795 8.4711 7.6261 15.992 16.308 22.192 25.878 5.0594-1.69 9.1999-5.1756 12.686-9.1154 5.0806-5.7566 12.495-9.4112 16.129-16.404 5.5664-13.214-0.4225-28.54 5.9995-41.532 2.7146-5.9572 9.5907-7.6156 15.474-8.4711 13.964-1.8907 28.255-1.352 42.039 1.5738 11.154 2.3132 22.107 5.8305 33.494 6.8867 2.8836 0.31687 6.0101 0.05286 8.5028 1.8273 20.195 12.01 44.109 17.365 62.329 32.712 4.9538 3.8553 2.2709 10.879 1.8484 16.087 13.161 4.5524 27.293 4.489 40.729 7.8268 4.5947 1.0034 8.2493 4.2989 12.781 5.503 6.5065 1.7745 13.509 1.5421 19.752 4.3095 5.577 2.5033 9.6013 7.4782 12.675 12.622 4.9644 8.619 7.9007 18.178 11.872 27.262 12.559 29.036 33.673 53.024 50.066 79.8 4.2144 6.4854 9.7597 12.39 17.069 15.337 6.1896-5.7882 4.6158-14.724 4.7214-22.297 2.1759-25.223 5.2073-50.784 1.0985-75.987-3.4011-20.354-8.8197-40.528-9.0732-61.284 0.11619-9.0204 0.89781-19.034 7.0769-26.174 5.1122-5.9784 13.594-7.1297 21.009-6.4748 14.259 1.2781 27.082 8.1648 40.042 13.678 10.953 4.0982 22.424 6.9924 32.797 12.538 3.9292 2.2815 8.7245 4.8271 9.8548 9.6224 0.9717 6.5593-4.3941 11.629-5.3024 17.861-2.6829 15.4-0.043 31.011 1.0879 46.433 1.8802 18.284 0.7816 36.662 0.6338 54.999-1.1513 47.753-3.5596 95.485-3.8131 143.25-3.6863 8.4077-13.985 11.418-22.509 11.756-14.238 0.0739-28.413-2.1864-42.303-5.1334-12.326-2.8519-24.695-6.3481-35.712-12.707-9.7809-5.6192-15.632-15.611-22.012-24.516-6.5065-9.8654-14.555-18.558-21.706-27.938-12.105-15.485-24.093-31.265-38.923-44.278-4.1194 39.662-2.5984 79.863 4.0243 119.18 0.46475 3.2638 1.8907 6.9712-0.30632 9.9393-4.1088 7.0557-13.224 8.4077-20.671 7.8374-16.15-1.5104-31.445-7.8796-45.598-15.506-12.062-6.4537-22.361-16.72-27.283-29.638-3.0209-7.4782-4.2039-15.537-4.6792-23.554-3.5807 0.53868-7.3515 1.7322-9.464 4.901-5.5559 7.9536-4.7742 18.611-10.415 26.533-1.4576 2.1864-3.9081 3.4539-6.4431 3.9398-6.1051 1.2147-12.358 0.96118-18.537 1.4576-13.414 0.83444-26.533 3.9292-39.873 5.3446-7.4888 0.83444-14.999-0.58094-22.477 0.0423-5.8305 0.77106-11.133 3.6124-16.889 4.6792-10.985 1.7428-22.762-3.3061-28.878-12.633-7.6261-11.122-8.7986-25.255-7.8162-38.342 5.7249-4.9644 13.277-7.2353 18.748-12.527 5.3974-5.2073 10.309-10.922 14.65-17.027 4.2672-6.2213 8.4077-13.298 7.8268-21.136-0.676-13.161-5.5242-25.593-8.1542-38.395-2.4294-12.295-7.3198-23.892-10.489-35.976-2.123-7.4782-0.77105-15.273-1.0457-22.91-0.0423-3.6969-1.9752-7.3304-5.2601-9.1366-5.4186-3.1265-12.01-2.5772-17.946-1.5316 1.7534 15.316-3.475 31.455-14.777 42.113-10.721 9.8337-23.966 16.404-37.275 22.012-34.983 14.08-72.533 20.428-109.89 24.156-2.7674 23.047 4.0349 45.588 6.9079 68.255 1.9963 14.302 3.5173 28.846 8.4077 42.514 2.6195 7.3726 10.066 11.587 12.886 18.854 4.9538 11.038 4.8482 23.354 4.6475 35.205-12.643 4.3201-26.406 3.3589-39.145-0.0422-10.636-2.8519-20.871-7.2036-30.367-12.77-7.7846-5.0172-14.692-11.386-20.46-18.611-3.5279-4.5419-6.9184-9.5802-7.5839-15.432-1.183-9.5274 0.89781-19.245-1.2781-28.688-3.1054-14.407-8.1437-28.318-11.017-42.789-2.3977-11.756-3.3589-23.744-5.4186-35.553-1.0246-5.0806-1.9118-10.594-5.5664-14.545-5.4291-6.0523-13.024-9.4112-19.277-14.449-6.8973-5.5453-13.076-11.914-19.657-17.819-6.4009 2.6089-13.89 3.6229-20.386 0.78162-7.3409-3.0842-12.622-9.4112-17.048-15.801-4.2461-6.2213-5.8199-13.974-10.731-19.773-5.1862-4.8693-12.569-6.1896-18.326-10.214-13.626-8.6824-22.921-23.597-38.638-29.005-15.77-5.165-32.543-8.8091-49.2-6.8022-8.8619 1.2569-17.766 4.5208-24.484 10.594-4.225 3.887-4.5419 10.172-3.4328 15.453 1.9541 8.6612 7.1719 16.139 12.802 22.836 12.284 14.354 28.624 24.463 45.366 32.839 30.969 15.21 64.178 25.392 94.693 41.553 13.689 7.2036 26.554 15.949 38.278 26.026 4.5524 4.2672 9.4957 8.4922 12.305 14.185 3.2216 8.3866 1.5844 17.724-1.0668 26.047-4.6475 15.009-15.928 26.765-27.822 36.504-13.985 11.619-31.011 18.886-48.376 23.776-14.111 3.887-28.73 6.1896-43.38 5.9678-10.33 0.10563-19.477-5.8094-29.702-6.4537-5.5664-0.53869-11.386 0.94006-16.742-1.1513-5.165-2.2287-8.7774-6.929-13.942-9.1894-9.7703-4.4679-20.724-5.7988-30.219-10.953-10.731-5.8094-19.129-14.872-29.152-21.706-4.3834-4.0243-5.5559-10.467-6.179-16.139-0.80275-12.073 3.718-24.378 12.157-33.05 33.367 10.531 62.952 29.997 95.907 41.574 17.227 6.1368 35.384 9.9815 53.71 10.298 6.6544-0.14788 13.562-0.53869 19.688-3.38 3.6124-1.6055 6.6544-4.9221 6.9924-8.9781 0.57036-5.9784-3.1054-11.312-7.193-15.284-8.3127-7.7318-18.685-12.643-28.719-17.703-31.529-16.192-66.121-25.424-97.449-42.07-7.9324-4.2356-14.83-10.182-22.973-14.059-12.675-6.591-25.498-14.46-33.377-26.744-7.3832-11.175-8.6401-25.498-5.4925-38.289 2.5244-10.393 8.112-19.615 13.034-28.983 4.8904-9.8759 10.457-19.456 17.206-28.181 20.217-26.48 51.439-43.877 84.32-48.45 39.44-5.5347 81.785 5.1756 112.05 31.55 11.45 10.077 18.21 24.156 28.825 35.004 0.27462-14.576-0.69713-29.226-3.6863-43.507-2.1864-10.098-5.4502-20.174-11.471-28.667 2.1231-1.2781 4.6686-2.5244 5.3552-5.1439 2.7462-8.8302-2.3238-18.4 1.4576-27.061m104.97 56.414c-6.1896 7.7212-6.5276 18.22-6.3903 27.674 0.19013 13.826 2.2921 27.536 2.8413 41.342 1.0457 15.263 1.1196 30.705 4.4785 45.704 17.903-4.1511 36.219-8.6929 51.936-18.611 8.6824-5.4502 16.097-14.302 16.298-25.012 0.51756-16.752-7.2353-32.596-16.583-46.052-10.203-13.224-22.53-27.051-39.726-30.367-4.9327-1.6161-9.7069 1.8379-12.855 5.3235m286.6 46.813c-1.2886 1.8801-3.137 3.7602-3.0314 6.2107 0.4225 20.291 1.8696 40.571 4.3517 60.724 1.5633 13.826 2.5561 27.758 5.3446 41.405 1.0774 4.8482 2.2604 9.7914 4.8904 14.059 7.6789 11.334 22.625 12.633 33.293 19.984 0.26406-33.789-0.92951-67.621-4.563-101.22-2.3343-20.85-5.5348-41.658-10.763-61.991-10.816 5.2918-22.107 10.974-29.522 20.829m-398.22 75.11c8.619 0.79219 18.939 3.6652 26.29-2.3871-1.3097-6.3586 0.074-13.752-4.5102-18.991-5.7988 8.5979-16.087 12.696-21.78 21.378z" fill="#ee4097" stroke-width="1.0562"/>
</svg>
