<svg width="279.05pt" height="337.37pt" version="1.1" viewBox="0 0 279.05 337.37" xmlns="http://www.w3.org/2000/svg">
 <path d="m30.06 39.696c23.83-23.55 56.81-36.31 89.91-38.86 18.06-1.99 36.3-0.16 54.17 2.67l-0.07 1.28c-10.68-0.48-21.37-1.84-32.07-1.11-23.65 0.68-47.32 5.82-68.73 16.03-25.09 11.97-47.81 31.4-58.91 57.37-6.98 15.9-6.45 34.12-1.94 50.61 5.51 19.47 18.6 35.67 33.07 49.35 3.32 3.29 7.2 5.97 10.28 9.49-9.5-5.43-18.86-11.34-26.77-18.98-16.9-15.9-27.5-38.27-29-61.44v-7.23c1.83-22.72 14.17-43.37 30.06-59.18z" fill="#080808"/>
 <path d="m195.19 8.9363c18.13 5.42 35.17 14.67 49.64 26.86 16.29 13.85 29.28 32.6 32.96 53.95 4.43 22.35-3.22 45.83-17.11 63.49-16.7 21.26-40.98 35.47-66.5 43.54-9.62 2.95-19.48 5.2-29.42 6.71 1.02-0.55 2.1-1 3.22-1.35 25.25-7.38 49.78-18.61 70.01-35.65 13.61-11.49 25.21-26.08 30.38-43.34 6.48-21.37 1.41-45.03-10.23-63.69-13.96-21.9-36.4-36.64-59.4-47.69-1.24-0.85-3.44-0.9-3.55-2.83z" fill="#080808"/>
 <path d="m46.07 305.72c0.62-0.33 2.45-1.34 2.58-0.12 0.7 1.5-2.58 1.25-1.7 2.97 1.49 0.4 3.49-0.72 3.61 1.49-2.21 0.79-4.41 1.68-6.75 2.06 3.14-1.61-0.24-4.69 2.26-6.4z" fill="#080808"/>
 <path d="m52.97 305.82c1.3 0.01 2.61 0.01 3.91 0 0.49 5.91 0.02 11.88 0.24 17.81 1.91 0.89 4.19 0.66 6.18 0.14 0.1-1.99 0.17-3.98 0.04-5.97 1.41-0.34 2.88-0.47 4.29 0.01 0.38 2.03-1.42 6.22 1.68 6.4 0.03-3.4-0.01-6.8 0.02-10.19 4.82 0.39 9.95-0.86 14.56 0.9 3.58 1.59 2.68 6.09 2.83 9.23 1.64-0.03 3.28 0.01 4.92 0.1-0.62-2.47-1.41-5.09-0.69-7.62 1.92-4.09 8.49-4.33 11.08-0.83 1.45 2.63 0.33 5.73-0.42 8.39 1.73-0.14 3.6 0.27 5.22-0.53 0.14-5.92 0.03-11.85 0.06-17.77 1.41-0.03 2.83-0.04 4.25-0.03-0.01 5.94 0.03 11.88-0.01 17.81-0.04 1.91-1.19 4.01-3.18 4.46-4.97 0.98-10.01-0.52-14.96 0.29-8.6-0.08-17.21 0.08-25.81-0.07-0.47-0.27-1.42-0.83-1.89-1.1-2.23 2.08-5.64 0.89-8.39 1.09-2.52 0.1-4.26-2.37-4.06-4.73 0.05-5.93-0.18-11.87 0.13-17.79m42.26 12.82c-0.1 1.69 0.45 3.34 1 4.92 1.95-0.23 1.5-2.64 1.96-4.04 0.46-1.8-2.41-2.59-2.96-0.88m-21.66-0.44c-0.03 1.98-0.04 3.96-0.02 5.95 2.98-0.02 5.96-0.01 8.94-0.01-0.24-1.91 0.66-4.71-1.55-5.76-2.4-0.61-4.92-0.13-7.37-0.18z" fill="#080808"/>
 <path d="m95.26 310.38c-2.07-1.18-0.79-4.79 1.57-4.45 1.53-0.08 2.06 1.56 2.53 2.69-0.61 1.66-2.46 3.01-4.1 1.76z" fill="#080808"/>
 <path d="m113.78 305.74c1.33 0.06 2.65 0.1 3.98 0.12 0.01 7.51 0.02 15.02 0 22.53-1.38 0.02-2.76 0.05-4.14 0.09 0-7.57-0.34-15.2 0.16-22.74z" fill="#080808"/>
 <path d="m157.7 305.89c1.36-0.03 2.73-0.07 4.09-0.08 0.49 6.06-0.71 12.36 0.66 18.26 2.51 0.06 5.03 0.07 7.54 0.17 0.1-2.21-2.46-2.79-3.92-3.83 0.88-2.08 1.27-4.45 2.68-6.24 3.5 0.21 8.52-1.66 10.76 1.91 1.94 3-1.05 5.55-2.33 8.08 2.09 0.03 4.18-0.03 6.28-0.05 1.41-5.91 0.2-12.24 0.67-18.31 1.38 0.02 2.77 0.07 4.16 0.11-0.09 5.85 0 11.69-0.04 17.54 0.13 2.36-1.67 4.75-4.11 4.9-3.44-0.02-6.95 0.41-10.33-0.35-4.15 0.67-8.54 0.5-12.77 0.23-2.03-0.13-3.26-2.22-3.29-4.09-0.1-6.08 0.03-12.16-0.05-18.25m13.61 11.97c0.66 0.94 1.39 1.83 2.18 2.68 1.18-0.16 2.19-1.15 1.23-2.26-1.16 0.05-2.3-0.09-3.41-0.42z" fill="#080808"/>
 <path d="m190.7 305.8c1.38 0.01 2.77 0.02 4.15 0.03 0.07 7.52 0.06 15.05 0 22.57-1.38 0.02-2.77 0.03-4.15 0.06-0.12-7.55-0.1-15.11 0-22.66z" fill="#080808"/>
 <path d="m222.58 305.86c1.38-0.02 2.76-0.03 4.15-0.02 0.13 5.98-0.14 11.97 0.15 17.94 1.82 0.6 3.76 0.32 5.64 0.32 1.31-3.18 0.19-6.77 0.7-10.12 1.34 0.02 2.69 0.05 4.04 0.08 0 3.2-0.02 6.39 0.03 9.59 1.97 0.92 4.25 0.35 6.36 0.53-2.25-2.4-2.71-6.51-0.22-8.91 2.51-2.47 6.41-2.08 9.42-0.81-0.2 3.9 0.43 7.91-0.31 11.76-1.55 3.27-5.76 1.92-8.61 2.19-2.94-0.35-6.39 0.96-8.87-1.15-2.52 2.01-6.04 0.97-9 1-2.29-0.1-3.56-2.44-3.45-4.54-0.05-5.95 0.04-11.91-0.03-17.86m26.04 17.72c0.08-1.95 0.05-3.89-0.01-5.82-3.9-0.64-2.62 4.98 0.01 5.82z" fill="#080808"/>
 <path d="m14.64 307.88c0.88-1.44 3.99-1.31 4.03 0.7 0.4-0.03 1.2-0.08 1.6-0.11 0-2.38 4.04-1.83 4.3 0.23 1.02 2.38-3.42 4.61-4.07 1.93-1.32-0.09-2.68 0.13-3.58 1.21-2.08 0.35-3.76-2.38-2.28-3.96z" fill="#080808"/>
 <path d="m74.34 307.11c2.66-1.9 5.2 2.67 2.56 4.2-2.7 1.72-5.31-2.73-2.56-4.2z" fill="#080808"/>
 <path d="m150.69 305.81c1.41-0.02 2.82 0.04 4.23 0.17-0.16 5.93 0.02 11.86-0.08 17.79 0.1 5.16-7.43 6.11-10.49 3.31-2.75 2.62-6.89 0.26-9.96 2.02-2.12 2.17-0.89 5.54-1.19 8.23-1.47 0.03-2.94 0.04-4.4 0.04-0.19-4.44-0.64-10.7 4.31-12.78 3.74-0.25 1.06-4.82 2.39-7.04 1.54-4.12 6.8-3.72 10.35-3.3 0.45 2.76 0.13 5.56 0.13 8.34 0.33 2.03 3.53 2.18 4.58 0.75 0.27-5.84-0.01-11.69 0.13-17.53m-11.29 18.5c3.1 0.06 2.88-4.5 1.61-6.16-2.45 1.09-1.57 4.06-1.61 6.16z" fill="#080808"/>
 <path d="m209.61 310.97c-2.96-3.01 3.72-6.38 4.04-2.05 1.85-0.24 2.13-3.02 4.28-1.92 3.27 0.97 0.83 6.17-2.09 4.6-1.06-3.74-4.38 2.19-6.23-0.63z" fill="#080808"/>
 <path d="m235.02 311.99c-3.1-0.27-3.31-5.23-0.03-5.18 3.21-0.03 3.04 4.77 0.03 5.18z" fill="#080808"/>
 <path d="m243.18 310.36c-1.74-1.92 0.79-4.83 3.09-3.88-0.08 1.72 3.43 1.45 3.53-0.1 1.71-0.27 2.97 0.72 3.61 2.23-0.01 3.06-5.15 3.86-4.99 0.32-1.05 0.4-1.69 1.11-1.94 2.13-1.12 0.18-2.65 0.59-3.3-0.7z" fill="#080808"/>
 <path d="m33.18 313.98c1.38 0.02 2.76 0.05 4.14 0.07 0.01 3.24-0.04 6.48 0.07 9.72 2.43 0.47 5.36 0.85 7.64-0.09 0.75-3.13 0.12-6.46 0.34-9.67 1.4 0 2.79 0 4.19 0.01-0.14 3.9 0.41 7.88-0.29 11.74-1.03 3.07-4.75 2.65-7.3 2.66-2.29-0.22-5.05 0.71-6.83-1.2-2.85 2.18-6.79 0.97-10.09 1.01-4.36-1.01-3.3-6.45-4.26-9.71-4.11 1.18-3.53 6.45-3.37 9.81-1.43 0.07-2.87 0.11-4.3 0.07-0.08-4.07-0.29-8.78 2.75-11.95 2.18-2.49 5.84-2.87 8.88-2.04 0.66 3.21 0.25 6.72 1.7 9.72 2.01-0.04 4.03 0.18 6.02-0.12 1.38-3.09 0.18-6.73 0.71-10.03z" fill="#080808"/>
 <path d="m210.28 316.88c2.36-2.46 5.92-3 9.18-2.89-0.63 4.43 1.47 9.78-1.58 13.54-3.23 1.78-7.19 0.48-10.72 0.89-0.22-4.01 0.1-8.55 3.12-11.54m1.17 7.27c1.11-0.02 2.22-0.02 3.33 0 0.71-1.67 0.32-3.52 0.35-5.27-2.35 0.65-3.45 3.02-3.68 5.27z" fill="#080808"/>
 <path d="m31.32 330.97c3.02-1.66 4.93 3.81 1.68 4.56-2.73 1.09-4.46-3.6-1.68-4.56z" fill="#080808"/>
 <path d="m36.51 331.18c2.46-2.02 5.6 2.15 3.01 3.89-2.41 2.27-5.59-2.03-3.01-3.89z" fill="#080808"/>
 <g transform="translate(0 -.41368)" fill="#014da5">
  <path d="m127.95 11.64c11.3-3.28 23.1-5.19 34.88-4.9l0.24 0.94c-19.98 2.38-39.61 9.48-55.58 21.87-21.05 16.04-35.15 40.55-39.22 66.63-1.67 9.73-1.66 19.63-1.49 29.47-7.84 4-15.59 9.45-19.18 17.79-4.01 8.32-2.14 17.79-0.74 26.48-6.37-11.51-9.57-24.82-10.14-37.98-0.77-23.3 6.8-46.39 19.3-65.89 16.64-25.76 42.36-45.85 71.93-54.41z"/>
  <path d="m168.79 14.21c8.04-2.87 16.55-4.28 25.06-4.91-0.37 1.31-1.71 1.81-2.84 2.28-9.38 3.72-18.91 8.06-26.03 15.42-3.54 3.67-6.18 8.63-5.58 13.87 0.71 6.72 5.06 12.34 9.57 17.09 11.64 12.01 27.37 19.02 39.01 31.03 11.52 11.33 19.95 26.57 20.61 42.96 0.77 14.69-4.74 29.26-13.92 40.61-11.48 14.65-28.4 24.17-46.1 29.19l-0.59 0.8c-3.06-0.48-5.93 0.86-8.91 1.22-14.12 2.6-28.61 1.72-42.67-0.73l-0.73-0.27 0.11-0.27c-1.19-0.38-2.37-0.76-3.55-1.15l0.58-0.98 1.04-0.46c22.47 1.71 45.83-3.69 64.4-16.71 10.05-7 18.48-16.73 22.42-28.45 3.64-10.79 2.43-22.88-2.51-33.07-6.05-12.74-16.26-23-27.37-31.45-11.14-7.54-22.33-15.79-29.7-27.28-4.76-7.36-7.08-17.05-3.31-25.33 4.67-10.63 15.21-17.14 25.54-21.43 1.49-0.89 3.93-0.73 4.67-2.55z"/>
  <path d="m119.82 47.74c5.33-9.93 13.73-18.63 24.34-22.78l0.32 1.01c-5.72 5.74-11.71 11.84-13.83 19.93-3.21 10.56 2.14 21.5 9.19 29.21 9.34 10.93 22.73 17.14 32.71 27.35 9.71 9.31 17.23 21.6 18.49 35.22 1.26 14.23-5.21 28.28-15.2 38.18-17 16.92-42.25 24.29-65.82 21.29-1.87-0.74-3.42-2.05-5.08-3.15-12.39-8.59-25.43-17.05-34.39-29.44-4.53-6.12-6.62-13.91-5.08-21.45 1.38 1.61 1.86 3.75 2.82 5.61 4.75 10.43 11.73 20.15 21.29 26.67 7.6 5.1 16.14 9.64 25.45 10.1 7.17 0.38 15.48-3.1 17.82-10.39 2.4-6.82-1.19-14.11-6.36-18.58-3.41-2.84-5.97-6.96-5.85-11.52 0.02-7.03 5.17-12.94 11.13-16.06 10.42-5.48 24.85-2.05 31.2 8 6.21 9.35 6.37 22.53-0.15 31.77-2.03 3.49-5.14 6.31-6.78 10.01 8.35-6.38 14.62-16.03 15.26-26.69 0.31-7.46-2.02-14.91-6.1-21.14-6.93-10.95-17.54-18.89-28.39-25.65-8.98-5.58-16.86-13.6-20.44-23.71-3.96-11.06-2.06-23.59 3.45-33.79z"/>
 </g>
 <g transform="translate(0 -.41368)">
  <path d="m141.89 13.84c15.66-5.37 32.32-8.22 48.89-6.9l-0.18 1.39c-7.6 1.47-15.25 2.84-22.61 5.31-20.43 6.12-40.12 16.91-53.69 33.69-8.57 10.32-14.12 22.97-16.43 36.16-1.89 13.88-0.58 28.22 4.01 41.47 3.55 7.01 13.13 8.8 15.82 16.5 3.84 10.91-1.1 22.66-8.04 31.16-3.83 4.76-12.43 5.08-15.95-0.18-5.21-10.04-10.23-20.64-18.75-28.35-2.43-1.97-5.66-4.5-8.94-3.17-3.65 2.48-2.95 7.43-2.23 11.18 2.99 11.64 11.25 21.15 20.43 28.54 9.03 6.92 18.25 13.61 27.45 20.3 0.28-0.14 0.85-0.43 1.14-0.57l-0.58 0.98c1.18 0.39 2.36 0.77 3.55 1.15l-0.11 0.27c-0.24 0.34-0.73 1.01-0.98 1.35l1.53 0.57c10.4 8.58 20.9 17.57 27.96 29.23 2.3 3.99 4.55 8.33 4.44 13.07 0.01 9.63-3.34 19.47-10.06 26.5-8.5 9.03-21.29 12.68-33.38 12.86 0.57-0.87 1.6-1.21 2.53-1.56 6.71-2.38 13.38-5.53 18.43-10.67 4.17-4.09 6.58-10.19 5.33-16.01-1.43-6.7-5.69-12.37-10.32-17.23-8.18-8.72-18.16-15.44-28.14-21.9-14.58-9.69-28.17-21.4-37.85-36.13-5.61-8.53-9.81-18.56-9.01-28.95 0.2-8.62 5.47-16.46 12.46-21.22 5.48-4 11.9-6.43 18.34-8.42-0.15-3.83-1.31-7.53-1.59-11.35-2.79-19.09 0.6-39.28 10.68-55.86 12.34-20.81 33.38-35.19 55.85-43.21z" fill="#cc0102"/>
 </g>
</svg>
