<svg width="800" height="461.98" version="1.1" viewBox="0 0 800 461.98" xml:space="preserve" xmlns="http://www.w3.org/2000/svg">
<path transform="scale(2.5666)" d="m136.7 51.1c-12.6-13.8-30.5-22.3-49-24.1l1.2 6.8c14.9 2.4 29.4 8.6 40.2 19.4 13.5 12.9 21.7 31.5 21.1 50.3 0.5 19.2-8.5 38.1-22.6 50.9-8.1 5.1-20.7 4.3-25.1-5.2 0.1-8.9 0-17.7 0.1-26.6h9.2c0.1-12.3-0.1-24.7 0.2-37-2.7 5.4-5.6 10.7-8.9 15.8-4.6-4.9-7.5-11.1-9.8-17.3-5.3-27.5-8.3-55.5-14.3-82.8v-1.3c0 0.2-0.1 0.4-0.1 0.6 0-0.2-0.1-0.4-0.1-0.6v1.1c-5.9 27.4-8.9 55.3-14.3 82.8-2.3 6.2-5.2 12.4-9.8 17.3-3.3-5.1-6.2-10.4-8.9-15.8 0.3 12.3 0.1 24.7 0.2 37h9.2c0.1 8.9 0 17.7 0.1 26.6-4.5 9.6-17 10.3-25.1 5.2-14.1-12.8-23.1-31.7-22.6-50.9-0.8-18.6 7.4-37.2 21-50.1 10.8-10.7 25.3-17 40.2-19.4l1.2-6.8c-18.6 1.8-36.4 10.3-49 24.1-12.7 13.1-19.4 30.8-21 48.7v7.6c2.1 22.7 13.6 44.5 32.2 58 13.4 9.8 30.1 14.1 46.5 14.6h0.2c16.4-0.5 33.2-4.8 46.5-14.6 18.6-13.5 30.1-35.2 32.2-58v-7.6c-1.5-17.9-8.2-35.6-20.9-48.7" fill="#d01f2a"/>
				<path d="m525.38 296.18c8.983 0 13.603-3.5932 13.603-10.523s-4.6198-10.266-13.603-10.266h-22.586v20.789zm-3.0799-45.685c8.983 0 13.603-3.3365 13.603-10.266s-4.6198-10.266-13.603-10.266h-19.763v20.789h19.763zm-54.155-45.942h61.598c28.489 0 42.605 10.523 42.605 31.056 0 6.9297-2.0533 12.833-6.4164 17.453-4.1065 4.6198-10.523 7.6997-18.736 8.7263v0.25666c9.2396 1.2833 16.169 4.1065 20.789 8.983 4.6198 4.8765 6.9297 11.036 6.9297 18.479 0 10.266-3.5932 17.966-10.523 23.099-6.9297 5.1332-17.453 7.6997-31.312 7.6997h-65.191v-115.75z" fill="#d01f2a" stroke-width="2.5666"/><polygon transform="scale(2.5666)" points="266 79.7 266 86 250.6 86 250.6 124.9 243.3 124.9 243.3 86 227.8 86 227.8 79.7" fill="#d01f2a"/><polygon transform="scale(2.5666)" points="303.9 79.7 311.7 79.7 294.9 124.9 286.4 124.9 269.6 79.7 277.4 79.7 287.9 109.7 290.7 118.7 293.4 109.8" fill="#d01f2a"/>
</svg>
