<svg width="600pt" height="661.27pt" version="1.1" viewBox="0 0 600 661.27" xmlns="http://www.w3.org/2000/svg">
 <defs>
  <linearGradient id="linearGradient877" x1="309.47" x2="608.81" y1="136.27" y2="136.27" gradientUnits="userSpaceOnUse">
   <stop stop-color="#fadc86" offset="0"/>
   <stop stop-color="#f9e48e" offset=".26172"/>
   <stop stop-color="#feeda4" offset=".53816"/>
   <stop stop-color="#f5f2ad" offset=".77879"/>
   <stop stop-color="#f8fac0" offset="1"/>
  </linearGradient>
 </defs>
 <g transform="matrix(1.8324 0 0 1.8324 -540.03 -30.096)">
  <path d="m523.23 17.25c13.99-2.16 28.62-0.08 41.33 6.2 24.28 11.72 40.56 36.96 43.48 63.5l11.18 74.74c2.01 13 4.41 26.32 1.74 39.42-2.25 12.69-9.62 24.39-20.34 31.6-15.1 10.4-33.86 13.18-51.78 14.1l-160.82 8.61c-7.7 0.28-15.41 1.09-23.1 0.44-18.42-1.44-36.29-9.39-49.59-22.23-12.11-11.56-20.41-27.67-20.62-44.61l0.04-75.05c-0.08-14.28 5.05-28.29 13.37-39.8 14.33-19.91 37.44-33.05 61.78-35.68zm-100.88 27.76c8.84 3.37 17.27 7.8 24.96 13.33-6.5 7.31-9.82 16.99-9.93 26.71-8.02-4.73-16.41-8.82-24.97-12.45-12.06-5.24-25.56-6.78-38.57-5.23-10.38 1.25-20.61 6.09-26.99 14.56-8.54 11-10.45 25.58-9.77 39.1l4.42 62.08c0.82 11.11 3.05 22.55 9.4 31.92 4.65 6.93 11.95 11.94 20.05 13.91 11.65 2.96 23.82 1 35.33-1.63 11.73-2.69 22.55-8.32 32.3-15.26 8.28 5.8 16.67 11.53 25.7 16.12-5.32 4.31-10.92 8.3-16.94 11.56 18.25-0.89 36.5-1.82 54.75-2.92-20.99-6.24-40.73-16.3-58.65-28.83l22.02-16.92c9.89 6.95 20.99 12 32.27 16.22 21.47 7.68 45.66 5.58 66.5-3.08 8.94-4.08 18.568-10.704 20.15-21.27 2.158-19.659-19.325-30.187-37.47-33.45-16.27-2.89-32.66-5.19-48.88-8.39-16.71-3.74-34.29-10.05-45.17-24.02-7.22-9.01-9.38-20.27-9.38-32.04-0.19-13.32 7.67-25.92 18.88-32.79 13.86-8.68 30.43-11.73 46.54-12.67 23.52-1.31 47.15 3.02 69.24 11-11.95-14.02-30.63-22.48-49.14-20.54zm65.96 24.27c-5.51 2.98-10.69 8.14-10.96 14.76 0 17.755 14.861 23.623 30.11 27.42 12.74 2.92 25.67 4.93 38.49 7.43 17.57 3.02 35.58 7.37 50.35 17.8l-7.9504-53.176c-25.45-12.238-47.377-19.231-74.41-19.144-8.71 0.09-17.76 0.87-25.63 4.91z" fill="url(#linearGradient877)"/>
 </g>
 <g transform="matrix(.88416 0 0 .88416 -278.47 470.73)" fill="#a5a5a4">
  <path d="m367.06 8.9859h129.52v44.535h-75.225v33.55h66.425v46.07h-66.425v82.355h-54.295z"/>
  <path d="m517.72 8.9859h54.31v206.51h-54.31z"/>
  <path d="m596.24 8.9859h54.4v151.92h74.33v54.59h-128.73z"/>
  <path d="m746.36 8.9866v206.51h54.624v-105.82l54.091 49.071 54.089-49.069v105.82h54.626v-206.51h-24.715l-84 76.38-84-76.38z"/>
 </g>
</svg>
