<svg width="600pt" height="598.81pt" version="1.1" viewBox="0 0 600 598.81" xmlns="http://www.w3.org/2000/svg">
 <defs>
  <linearGradient id="linearGradient867" x1="298.25" x2="619.11" y1="136.27" y2="136.27" gradientUnits="userSpaceOnUse">
   <stop stop-color="#f7e96c" offset="0"/>
   <stop stop-color="#faee7d" offset=".26062"/>
   <stop stop-color="#f7eb8c" offset=".56136"/>
   <stop stop-color="#f5f388" offset=".81729"/>
   <stop stop-color="#f5f48d" offset="1"/>
  </linearGradient>
 </defs>
 <g transform="matrix(1.8324 0 0 1.8324 -540.03 -30.096)">
  <path d="m523.23 17.25c13.99-2.16 28.62-0.08 41.33 6.2 24.28 11.72 40.56 36.96 43.48 63.5l11.18 74.74c2.01 13 4.41 26.32 1.74 39.42-2.25 12.69-9.62 24.39-20.34 31.6-15.1 10.4-33.86 13.18-51.78 14.1l-160.82 8.61c-7.7 0.28-15.41 1.09-23.1 0.44-18.42-1.44-36.29-9.39-49.59-22.23-12.11-11.56-20.41-27.67-20.62-44.61l0.04-75.05c-0.08-14.28 5.05-28.29 13.37-39.8 14.33-19.91 37.44-33.05 61.78-35.68zm-100.88 27.76c8.84 3.37 17.27 7.8 24.96 13.33-6.5 7.31-9.82 16.99-9.93 26.71-8.02-4.73-16.41-8.82-24.97-12.45-12.06-5.24-25.56-6.78-38.57-5.23-10.38 1.25-20.61 6.09-26.99 14.56-8.54 11-10.45 25.58-9.77 39.1l4.42 62.08c0.82 11.11 3.05 22.55 9.4 31.92 4.65 6.93 11.95 11.94 20.05 13.91 11.65 2.96 23.82 1 35.33-1.63 11.73-2.69 22.55-8.32 32.3-15.26 8.28 5.8 16.67 11.53 25.7 16.12-5.32 4.31-10.92 8.3-16.94 11.56 18.25-0.89 36.5-1.82 54.75-2.92-20.99-6.24-40.73-16.3-58.65-28.83l22.02-16.92c9.89 6.95 20.99 12 32.27 16.22 21.47 7.68 45.66 5.58 66.5-3.08 8.94-4.08 18.568-10.704 20.15-21.27 2.158-19.659-19.325-30.187-37.47-33.45-16.27-2.89-32.66-5.19-48.88-8.39-16.71-3.74-34.29-10.05-45.17-24.02-7.22-9.01-9.38-20.27-9.38-32.04-0.19-13.32 7.67-25.92 18.88-32.79 13.86-8.68 30.43-11.73 46.54-12.67 23.52-1.31 47.15 3.02 69.24 11-11.95-14.02-30.63-22.48-49.14-20.54zm65.96 24.27c-5.51 2.98-10.69 8.14-10.96 14.76 0 17.755 14.861 23.623 30.11 27.42 12.74 2.92 25.67 4.93 38.49 7.43 17.57 3.02 35.58 7.37 50.35 17.8l-7.9504-53.176c-25.45-12.238-47.377-19.231-74.41-19.144-8.71 0.09-17.76 0.87-25.63 4.91z" fill="url(#linearGradient867)"/>
 </g>
 <g transform="matrix(1.0088 0 0 1.0088 -211.69 466.86)" fill="#a5a5a4">
  <path transform="scale(.75)" d="m296.66 170.56h9.0586l32.186-125.28 49.616 129.12 49.615-129.12 32.186 125.28h9.0586l-39.693-154.94-51.167 133.86-51.167-133.86z" stroke-width="1.3333"/>
  <path d="m449.31 21.37c5.5785-5.016 12.91-7.1366 20.295-7.1812 13.319 0 22.382 4.9478 28.395 14.961l-6.38 2.81c-3.43-5.71-9.33-9.81-15.95-10.78-7.26-1.21-15.34-0.38-21.22 4.41-7.23 5.42-9.35 16.58-4.25 24.12 3.4 5.51 9.58 8.17 15.13 10.97 10.2 4.83 21.35 9.11 28.84 17.96 7.85 9.38 8.67 23.18 4.26 34.26-8.2158 13.445-18.123 16.403-30.713 16.382-7.2392-0.0336-14.494-1.5636-20.477-5.7524-6.2319-5.0062-10.819-11.61-12.82-18.87l6.7-2.37c1.92 6.41 5.27 12.83 11.2 16.36 8.12 4.89 18.48 4.92 27.36 2.26 8.59-2.59 14.56-11.05 14.62-19.95 0.87-8.34-2.81-16.87-9.51-21.9-10.96-8.01-24.85-10.9-35.46-19.47-11.48-9.2-11.55-29.03-0.02-38.22z"/>
  <path transform="scale(.75)" d="m475.62 19.693 42.961 76.107v74.779h9.067v-74.779l42.959-76.107h-9.9453l-37.547 64.975-37.547-64.975z" stroke-width="1.3333"/>
  <path d="m513.58 14.77h56.84v6.75h-25.135v106.42h-6.69v-106.42h-25.015z"/>
  <path d="m586.66 14.77h54.505v6.75h-47.81v41.01h47.81v6.975h-47.81v51.79h47.81v6.64h-54.505z"/>
  <path d="m661.64 14.78h26.235c18.498 0 31.11 10.816 31.11 28.367 0 18.244-12.579 28.367-31.14 28.367l36.23 56.42h-7.9l-35.99-56.42-11.97 2.46e-4v56.42h-6.575m6.575-63.105h22.62c12.029 0 21.341-7.4453 21.341-21.67 0-16.959-11.617-21.67-26.627-21.67h-17.334z"/>
  <path d="m733.4 14.77 32.221 57.081v56.084h6.8002v-56.084l32.219-57.081h-7.459l-28.16 48.731-28.16-48.731z"/>
 </g>
</svg>
