<svg width="726.83mm" height="171.02mm" version="1.1" viewBox="0 0 726.83 171.02" xmlns="http://www.w3.org/2000/svg">
 <g transform="translate(85.343 98.774)">
  <path d="m238.51-78.484c-14.115 0-20.168 4.8565-21.795 13.924h43.613c-1.6507-9.0671-7.7034-13.924-21.818-13.924" fill="#0e87d2"/>
  <path d="m-79.649-64.563h58.302c4.6173-6.6269 12.56-9.1628 27.464-10.742 7.3685-0.78948 15.192-1.244 22.201-1.5072v-21.962c-14.785 0.26316-33.063 0.9091-49.929 2.2488-39.857 3.2058-51.867 9.2106-58.039 31.962" fill="#0e87d2"/>
  <path d="m238.51-38.759c16.986 0 22.297-7.0097 22.297-19.761 0-2.1771-0.14354-4.1867-0.47848-6.0527h-43.613c-0.33493 1.8661-0.5024 3.8756-0.5024 6.0527 0 12.751 5.3111 19.761 22.297 19.761" fill="#8ad03a"/>
  <path d="m-27.715-42.077c1.3158-10.526 2.9426-17.608 6.3637-22.488h-58.302c-1.0048 3.7321-1.8661 7.9188-2.6555 12.632-1.2201 7.225-1.9857 14.665-2.4402 21.555h55.934c0.26316-3.8278 0.62202-7.8231 1.1005-11.699" fill="#8ad03a"/>
  <path d="m-29.409-13.244c0-4.6891 0.14354-10.718 0.57417-17.129h-55.91c-0.43063 6.3876-0.59809 12.297-0.59809 17.105 0 4.8326 0.16747 10.718 0.59809 17.105h55.91c-0.43063-6.3876-0.57417-12.44-0.57417-17.082" fill="#f89a0f"/>
  <path d="m-28.825 3.835h-55.91c0.43063 6.914 1.2201 14.354 2.4163 21.579 0.81341 4.6891 1.6507 8.8757 2.6795 12.632h58.302c-3.4211-4.8804-5.0479-11.962-6.3637-22.488-0.5024-3.8996-0.86126-7.8709-1.1244-11.723" fill="#f36717"/>
  <path d="m238.51 5.6245c-16.986 0-22.297 7.0097-22.297 19.976 0 5.0718 0.86126 9.2585 2.9426 12.44h38.709c2.1053-3.1819 2.9426-7.3685 2.9426-12.44 0-12.967-5.3111-19.976-22.297-19.976" fill="#f36717"/>
  <path d="m238.51 45.34c10.192 0 16.196-2.5359 19.354-7.2967h-38.709c3.1579 4.7608 9.1628 7.2967 19.354 7.2967" fill="#ed1c24"/>
  <path d="m6.1057 48.769c-14.881-1.6029-22.799-4.1388-27.441-10.742h-58.326c6.1723 22.751 18.182 28.78 58.063 31.962 16.866 1.3397 35.12 2.0096 49.929 2.2488v-21.962c-7.0097-0.23924-14.857-0.71771-22.225-1.5072" fill="#ed1c24"/>
  <path d="m336.85-86.869h-51.604v22.297h114.16c-13.876-14.689-35.527-22.297-62.561-22.297" fill="#0e87d2"/>
  <path d="m75.953-75.314c14.904 1.6029 22.823 4.1388 27.464 10.742h58.302c-6.1484-22.751-18.182-28.756-58.039-31.962-16.866-1.3158-35.12-1.9857-49.929-2.2249v21.938c7.0097 0.26316 14.857 0.71771 22.201 1.5072" fill="#0e87d2"/>
  <path d="m109.79-42.077c0.5024 3.8756 0.86125 7.8709 1.1005 11.699h55.934c-0.45456-6.89-1.2201-14.33-2.4402-21.555-0.78948-4.713-1.6507-8.8996-2.6555-12.632h-58.302c3.4211 4.8804 5.0479 11.962 6.3637 22.488" fill="#50be37"/>
  <path d="m325.59-30.364v-26.771h14.235c18.134 0 29.929 9.5212 33.828 26.77l41.819 4.08e-4c-2.1771-13.9-7.7034-25.335-16.053-34.211l-114.16-4.54e-4v34.211z" fill="#8ad03a"/>
  <path d="m375.08-16.579c0 7.8709-1.1962 14.713-3.445 20.407h42.512c1.5311-6.2441 2.3445-13.038 2.3445-20.407 0-4.8326-0.33493-9.426-1.0287-13.804l-41.819-2.69e-4c0.95695 4.1627 1.4354 8.7803 1.4354 13.804" fill="#f7961d"/>
  <path d="m110.9 3.835h55.934c0.40671-6.3637 0.57417-12.273 0.57417-17.105 0-4.8087-0.16746-10.718-0.57417-17.105h-55.934c0.43063 6.4116 0.57417 12.44 0.57417 17.129 0 4.6412-0.14354 10.694-0.57417 17.082" fill="#f89a0f"/>
  <path d="m325.59-30.354h-40.359v34.187h40.359z" fill="#f89a0f"/>
  <path d="m339.82 23.998h-14.235v-20.168h-40.359v34.211h106.82c10.885-8.2537 18.493-19.713 22.082-34.211h-42.489c-5.2154 13.062-16.149 20.168-31.819 20.168" fill="#f25b23"/>
  <path d="m166.83 3.835h-55.934c-0.26316 3.8517-0.62202 7.8231-1.1005 11.723-1.3397 10.526-2.9665 17.608-6.3876 22.488h58.302c1.0287-3.756 1.89-7.9427 2.6795-12.632 1.2201-7.225 1.9857-14.665 2.4402-21.579" fill="#f36717"/>
  <path d="m161.72 38.036h-58.302c-4.6412 6.603-12.56 9.1389-27.464 10.742-7.3685 0.78948-15.192 1.244-22.201 1.5072v21.962c14.809-0.26316 33.063-0.9091 49.929-2.2488 39.857-3.2058 51.867-9.2106 58.039-31.962" fill="#ee2533"/>
  <path d="m285.24 53.735h51.604c22.632 0 41.508-5.335 55.192-15.694h-106.8z" fill="#ed1c24"/>
  <g transform="translate(-209.26)">
   <path transform="matrix(.26458 0 0 .26458 -85.343 -98.752)" d="m2902 44.879v84.305h80.408v-84.305zm202.94 0v84.305h80.41v-84.305zm148.2 0.0039v84.301h80.496v-24.434h34.549c27.153 0 48.777 8.5048 63.68 24.434h92.084c-25.243-55.329-83.093-84.301-161.34-84.301z" fill="#0e87d2" stroke-width="3.7795"/>
   <path d="m682.48-30.383v25.405h21.275v-25.405zm53.694 0v25.405h21.275v-25.405zm39.211 0v25.405h28.965c21.977 0 37.963-8.866 43.881-25.405h-23.2c-3.834 6.2036-10.429 9.5632-19.207 9.5632h-9.141v-9.5632z" fill="#f7961d"/>
   <path d="m682.48-64.575v34.211h21.275v-10.118h32.419v10.118h21.275v-34.211h-21.275v8.2507h-32.419v-8.2507zm92.905 0v34.211h21.298v-34.211zm47.285 0c4.0076 4.2818 6.179 10.592 6.179 18.635 0 6.3038-1.3306 11.542-3.8297 15.576h23.205c1.6504-4.6051 2.5208-9.8052 2.5208-15.575 0-7.1064-1.2884-13.329-3.7098-18.636z" fill="#8ad03a"/>
  </g>
 </g>
</svg>
