<svg width="1241.6" height="346.89" version="1.1" viewBox="0 0 328.51 91.781" xmlns="http://www.w3.org/2000/svg">
 <g transform="matrix(.36629 0 0 .36629 -63.869 -164.81)" fill="#3cccbf">
  <path d="m821.9 467.15h30.754v45.452h45.372v-45.452h30.754v119.26h-30.754v-50.564h-45.372v50.564h-30.754v-119.26"/>
  <path d="m989.73 490.4v72.77h11.023c12.568 2e-5 22.153-3.1153 28.757-9.3459 6.6565-6.2306 9.9849-15.284 9.9849-27.159 0-11.822-3.3017-20.822-9.905-26.999-6.6035-6.1773-16.216-9.2659-28.837-9.266h-11.023m-30.754-23.245h32.431c18.106 1.2e-4 31.579 1.3048 40.419 3.9141 8.8932 2.5563 16.508 6.923 22.846 13.1 5.5914 5.3787 9.7452 11.583 12.461 18.612 2.7158 7.0295 4.0737 14.991 4.0739 23.884-2e-4 8.9998-1.3581 17.041-4.0739 24.124-2.716 7.0294-6.8698 13.233-12.461 18.612-6.3905 6.1774-14.059 10.571-23.005 13.18-8.9466 2.5562-22.366 3.8342-40.259 3.8342h-32.431v-119.26"/>
 </g>
 <g fill="#3cccbf">
  <path d="m172.62 36.578h5.7114c6.4108 0 11.891-3.0306 11.891-8.627 0-5.7114-5.4799-8.1592-13.173-8.1592-6.877 0-13.987 1.3987-19.933 3.7299l-1.7484-13.404c6.0611-3.8481 15.621-6.1793 25.179-6.1793 15.271 0 29.142 7.1101 29.142 21.565 0 6.8786-3.1455 13.289-10.84 16.903v0.46624c9.0917 3.3818 12.823 10.842 12.823 18.418 0 15.387-14.803 23.315-31.358 23.315-9.3248 0-19.7-2.914-25.994-6.0627l1.7484-13.521c4.8971 1.6318 12.472 3.7299 21.215 3.7299 7.9261 0 14.805-3.0322 14.805-9.9092 0-5.3617-5.5965-8.8585-13.523-8.8585h-5.9445zh5.7114c6.4108 0 11.891-3.0306 11.891-8.627 0-5.7114-5.4799-8.1592-13.173-8.1592-6.877 0-13.987 1.3987-19.933 3.7299l-1.7484-13.404c6.0611-3.8481 15.621-6.1793 25.179-6.1793 15.271 0 29.142 7.1101 29.142 21.565 0 6.8786-3.1455 13.289-10.84 16.903v0.46624c9.0917 3.3818 12.823 10.842 12.823 18.418 0 15.387-14.803 23.315-31.358 23.315-9.3248 0-19.7-2.914-25.994-6.0627l1.7484-13.521c4.8971 1.6318 12.472 3.7299 21.215 3.7299 7.9261 0 14.805-3.0322 14.805-9.9092 0-5.3617-5.5965-8.8585-13.523-8.8585h-5.9445z"/>
  <path d="m134.04 25.127c-3.0208-17.889-7.667-21.933-32.582-23.927-9.0512-0.7204-18.85-1.0733-26.799-1.1996v11.776c3.7671 0.13437 7.9746 0.38691 11.918 0.80782 13.892 1.4845 16.482 4.494 18.162 17.837 0.69936 5.5609 0.90982 11.457 0.90982 15.477 0 4.0035-0.21046 9.9124-0.90982 15.455-1.6804 13.336-4.2706 16.349-18.162 17.834-3.9436 0.42415-8.1511 0.67669-11.918 0.81106v11.784c7.9487-0.12789 17.748-0.48405 26.799-1.2061 24.915-1.9912 29.561-6.0401 32.582-23.927 1.2579-7.4517 1.6286-15.378 1.6286-20.761 0-5.3844-0.37072-13.309-1.6286-20.761zm-132.41 0c-1.2595 7.4517-1.6286 15.376-1.6286 20.761 0 5.3828 0.36911 13.309 1.6286 20.761 3.0225 17.887 7.6687 21.936 32.582 23.927 9.0512 0.72202 18.852 1.0782 26.802 1.2044v-11.782c-3.7704-0.13437-7.9779-0.38691-11.925-0.81106-13.888-1.4845-16.482-4.4973-18.161-17.834-0.70098-5.5431-0.9082-11.452-0.9082-15.455 0-4.0197 0.20722-9.9157 0.9082-15.477 1.6788-13.343 4.2722-16.352 18.161-17.837 3.9468-0.42091 8.1543-0.67346 11.925-0.80782v-11.776c-7.9503 0.12627-17.751 0.48081-26.802 1.1996-24.913 1.9945-29.559 6.0384-32.582 23.927z"/>
 </g>
</svg>
