<!DOCTYPE svg  PUBLIC '-//W3C//DTD SVG 1.1//EN'  'http://www.w3.org/Graphics/SVG/1.1/DTD/svg11.dtd'>
<svg enable-background="new 0 0 351.496 170.078" version="1.1" viewBox="0 0 351.5 170.08" xml:space="preserve" xmlns="http://www.w3.org/2000/svg">
<g transform="translate(-45.615 -3.024)">
			<linearGradient id="c" x1="35.916" x2="35.916" y1="332.64" y2="381.35" gradientTransform="matrix(2.8346 0 0 -2.8346 10.42 1099.7)" gradientUnits="userSpaceOnUse">
			<stop stop-color="#3A18CF" offset="0"/>
			<stop stop-color="#557AD5" offset="1"/>
		</linearGradient>
		<path d="m47.279 18.614v7.285c13.566 1.401 15.486 2.662 15.486 20.174v78.172c0 17.651-1.919 18.772-17.149 20.313v7.284h50.041c24.061 0 44.41-5.743 58.744-17.091 14.974-12.048 24.444-29.98 24.444-54.917 0-19.612-7.679-34.042-17.278-43.709-12.542-12.468-31.355-17.512-55.288-17.512h-59zm40.826 23.256c0-5.884 0.384-9.666 2.047-11.628 1.28-1.4 5.375-3.082 12.798-3.082 13.95 0 24.444 4.483 32.635 13.029 8.958 9.246 14.718 24.937 14.718 43.849 0 35.304-17.917 58.559-45.049 58.559-14.462 0-17.149-5.043-17.149-19.893v-80.834z" fill="url(#c)"/>
			<linearGradient id="a" x1="111.42" x2="111.42" y1="332.64" y2="381.35" gradientTransform="matrix(2.8346 0 0 -2.8346 10.42 1099.7)" gradientUnits="userSpaceOnUse">
			<stop stop-color="#3A18CF" offset="0"/>
			<stop stop-color="#557AD5" offset="1"/>
		</linearGradient>
		<path d="m397.11 18.614h-48.383v7.757c17.084 2.298 16.947 5.171 12.301 19.822-5.604 17.38-13.531 39.356-25.832 73.255h-0.684c-7.107-18.673-23.371-61.333-29.795-79.288-3.144-8.762-3.554-11.348 11.754-13.789v-7.757h-61.094v7.757c12.711 1.149 16.128 4.597 22.414 20.684 8.611 21.546 27.883 72.106 42.097 110.46h10.251c16.127-43.522 34.852-91.066 41.412-106.87 8.2-19.965 12.027-22.838 25.559-24.274v-7.758z" fill="url(#a)"/>
		<linearGradient id="b" x1="74.916" x2="74.916" y1="327.98" y2="386.38" gradientTransform="matrix(2.8346 0 0 -2.8346 10.42 1099.7)" gradientUnits="userSpaceOnUse">
		<stop stop-color="#C80108" offset="0"/>
		<stop stop-color="#EE3634" offset="1"/>
	</linearGradient>
	<path d="m300.73 52.773c-1.221-16.009-2.79-39.076-2.965-49.749h-6.104c-4.708 4.819-8.196 6.369-15.347 6.369h-107.07c-7.499 0-10.987-0.517-14.998-6.369h-6.453c-0.523 12.91-1.918 31.675-2.965 50.438h9.592c3.313-12.739 6.627-21.519 11.161-25.822 3.662-3.959 7.848-7.058 31.564-7.058h8.371v118.61c0 21.69-2.791 23.067-24.938 24.961v8.951h85.626v-8.951c-23.194-1.894-25.984-3.271-25.984-24.961v-118.61h11.51c16.741 0 23.02 1.549 27.902 6.025 4.534 4.819 8.72 13.599 11.685 26.682l9.417-0.517z" fill="url(#b)"/>
</g>
</svg>
