<svg version="1.1" viewBox="0 0 657 122.7" xml:space="preserve" xmlns="http://www.w3.org/2000/svg">
<g transform="translate(-63.5,-102.5)">
	<linearGradient id="i" x1="173.59" x2="173.59" y1="186.53" y2="103.63" gradientUnits="userSpaceOnUse">
		<stop stop-color="#C8AE83" offset="0"/>
		<stop stop-color="#B5935F" offset="1"/>
	</linearGradient>
	<path d="m203.4 103.6h-51.8l-0.9 22.2c-0.6 12.2-2.9 25.7-6.9 31.6h-6.4v29.3h17.9v-16.3h36.6v16.3h17.9v-29.3h-6.4zm-18.4 53.8h-21.6c2.3-6.5 4.4-16.6 5.2-30.3l0.7-10.7h15.7z" fill="url(#i)"/>
	<linearGradient id="h" x1="253.75" x2="253.75" y1="171.69" y2="102.34" gradientUnits="userSpaceOnUse">
		<stop stop-color="#C7AB7F" offset="0"/>
		<stop stop-color="#B4925F" offset="1"/>
	</linearGradient>
	<path d="m253.7 102.5c-21.9 0-37.6 13.5-37.6 34.6 0 21 16.4 34.6 37.6 34.6 22.3 0 37.8-14 37.8-34.6-0.1-20.8-15.4-34.6-37.8-34.6zm0 55.8c-11.3 0-18.5-10.2-18.5-21.3 0-11.7 6.7-21.3 18.5-21.3 11.6 0 18.6 9.7 18.6 21.3 0 11.1-7 21.3-18.6 21.3z" fill="url(#h)"/>
	<linearGradient id="g" x1="338.48" x2="338.48" y1="170.2" y2="103.32" gradientUnits="userSpaceOnUse">
		<stop stop-color="#C9AC80" offset="0"/>
		<stop stop-color="#B59463" offset="1"/>
	</linearGradient>
	<polygon points="301.9 103.6 301.9 170.5 320.3 170.5 320.3 121.3 320.5 121.3 338.5 140.7 356.4 121.3 356.7 121.3 356.7 170.5 375.1 170.5 375.1 103.6 354 103.6 338.5 120.3 323 103.6" fill="url(#g)"/>
	<linearGradient id="f" x1="463.12" x2="439.62" y1="170.07" y2="102.9" gradientUnits="userSpaceOnUse">
		<stop stop-color="#C5A97D" offset="0"/>
		<stop stop-color="#B69461" offset="1"/>
	</linearGradient>
	<polygon points="438.5 134.8 438.3 134.8 438.3 103.6 419.8 103.6 419.8 170.5 438.3 170.5 438.3 135.9 438.5 135.9 462 170.5 485.3 170.5 458.7 134.7 483.4 103.6 461.4 103.6" fill="url(#f)"/>
	<linearGradient id="e" x1="524.7" x2="524.7" y1="170.03" y2="103.45" gradientUnits="userSpaceOnUse">
		<stop stop-color="#C8AC80" offset="0"/>
		<stop stop-color="#B79562" offset="1"/>
	</linearGradient>
	<polygon points="539.2 170.6 557.5 170.6 557.5 103.6 537 103.6 510.6 148 510.2 148 510.2 103.6 491.9 103.6 491.9 170.6 513.6 170.6 538.8 128.1 539.2 128.1" fill="url(#e)"/>
	<linearGradient id="d" x1="602.73" x2="602.73" y1="170.36" y2="103.6" gradientUnits="userSpaceOnUse">
		<stop stop-color="#C7AA7F" offset="0"/>
		<stop stop-color="#B89562" offset="1"/>
	</linearGradient>
	<polygon points="617 170.6 635.5 170.6 635.5 103.6 617 103.6 617 129.1 588.4 129.1 588.4 103.6 570 103.6 570 170.6 588.4 170.6 588.4 142.2 617 142.2" fill="url(#d)"/>
	<linearGradient id="c" x1="682.82" x2="682.82" y1="171.36" y2="102.35" gradientUnits="userSpaceOnUse">
		<stop stop-color="#C9AD82" offset="0"/>
		<stop stop-color="#B89562" offset="1"/>
	</linearGradient>
	<path d="m682.7 102.5c-21.9 0-37.6 13.5-37.6 34.6 0 21 16.4 34.6 37.6 34.6 22.3 0 37.8-14 37.8-34.6 0-20.8-15.3-34.6-37.8-34.6zm0 55.8c-11.3 0-18.5-10.2-18.5-21.3 0-11.7 6.7-21.3 18.5-21.3 11.6 0 18.6 9.7 18.6 21.3 0.1 11.1-7 21.3-18.6 21.3z" fill="url(#c)"/>
	<linearGradient id="b" x1="78.97" x2="123.14" y1="171.69" y2="113.36" gradientUnits="userSpaceOnUse">
		<stop stop-color="#D1B574" offset="0"/>
		<stop stop-color="#BF9E5E" offset="1"/>
	</linearGradient>
	<polygon points="121.4 112.1 90.8 123 77.5 170.5 104.8 170.5" fill="url(#b)"/>
	<linearGradient id="a" x1="64.054" x2="88.887" y1="170.34" y2="124.34" gradientUnits="userSpaceOnUse">
		<stop stop-color="#DDC888" offset="0"/>
		<stop stop-color="#D1B574" offset="1"/>
	</linearGradient>
	<polygon points="75 170.5 88.2 124 75.7 128.4 63.5 170.5" fill="url(#a)"/>
	<linearGradient id="m" x1="76.207" x2="123.78" y1="114.66" y2="114.66" gradientUnits="userSpaceOnUse">
		<stop stop-color="#D2B576" offset="0"/>
		<stop stop-color="#BE9A5F" offset="1"/>
	</linearGradient>
	<polygon points="123.8 103.5 82.5 103.5 76.2 125.8 122.1 109.4" fill="url(#m)"/>
			<linearGradient id="l" x1="510.58" x2="699.11" y1="176.41" y2="234.14" gradientUnits="userSpaceOnUse">
				<stop stop-color="#A98148" offset="0"/>
				<stop stop-color="#B29158" offset=".25"/>
				<stop stop-color="#CDB28A" offset="1"/>
			</linearGradient>
			<path d="m571.9 192.1c-3.2 0-4.5 2.9-4.8 4.9h9.1c0-1.8-0.8-4.9-4.3-4.9z" fill="url(#l)"/>
			<linearGradient id="k" x1="506.84" x2="695.37" y1="188.62" y2="246.36" gradientUnits="userSpaceOnUse">
				<stop stop-color="#A98148" offset="0"/>
				<stop stop-color="#B29158" offset=".25"/>
				<stop stop-color="#CDB28A" offset="1"/>
			</linearGradient>
			<path d="m543.5 193c-2.2 0-4.1 1.6-4.6 3.8-0.1 0.4-0.2 0.9-0.2 1.3v3.3c0 0.6 0.1 1.1 0.2 1.6 0.5 2 2.3 3.6 4.5 3.6 3.3 0 5.3-2.7 5.3-6.9 0-3.8-1.8-6.7-5.2-6.7z" fill="url(#k)"/>
			<linearGradient id="j" x1="511.41" x2="699.94" y1="173.7" y2="231.43" gradientUnits="userSpaceOnUse">
				<stop stop-color="#A98148" offset="0"/>
				<stop stop-color="#B29158" offset=".25"/>
				<stop stop-color="#CDB28A" offset="1"/>
			</linearGradient>
			<path d="m491.9 180.2v45h228.6v-45zm32.9 31.7h-7.7v-18.5h-7.6v18.5h-7.7v-24.3h23zm20.4 0.6c-3 0-5.3-1.2-6.4-2.8h-0.1v12.1h-7.7v-26c0-3.2-0.1-5.9-0.2-8.1h6.7l0.4 3.4h0.1c1.8-2.6 4.6-3.9 8.2-3.9 5.4 0 10.3 4.6 10.3 12.4-0.1 8.7-5.8 12.9-11.3 12.9zm37.9-10.3h-15.9c0.3 3.1 3.4 4.6 7 4.6 2.6 0 4.8-0.3 6.8-1l1 5.1c-2.5 1-5.6 1.5-8.9 1.5-8.4 0-13.2-4.8-13.2-12.4 0-6.2 3.9-13 12.5-13 8 0 11 6.1 11 12.1-0.1 1.4-0.2 2.5-0.3 3.1zm28.8 9.7-0.4-9.7c-0.1-2.1-0.2-5.6-0.3-8.5h-0.2c-1 3.2-1.1 4-2.4 7.9l-3.3 9.9h-5.6l-2.9-9.6c-0.7-2.3-1.5-5.8-2-8h-0.2c-0.1 3-0.2 6.5-0.3 8.5l-0.4 9.6h-6.9l1.7-24.3h9.8l2.7 9.2c0.4 1.4 1.1 3.9 1.6 6.1h0.2c0.5-1.7 1.3-4.3 2-6.7l2.7-8.6h9.7l1.5 24.3h-7zm36.4 0h-7.3v-7.4c0-3.8 0.2-5.4 0.5-10.5h-0.2c-1 2.7-1.6 4.3-2.6 6.6-1.6 3.4-3.4 7.6-5.2 11.4h-9.3v-24.3h7.3v7.5c0 3.9-0.2 6.6-0.4 9.9h0.2c1.2-2.8 1.8-4.7 2.8-7l4.8-10.4h9.4zm23.6-8.3c-3.5 9.6-5.9 13.5-8.7 15.9-2.7 2.3-5.5 3.1-7.4 3.3l-1.6-6.4c1-0.1 2.2-0.6 3.3-1.3 1.2-0.6 2.4-1.8 3.2-3 0.3-0.3 0.4-0.7 0.4-1.1 0-0.2-0.1-0.6-0.4-1.2l-9-22.2h8.5l3.7 11.9c0.4 1.4 0.9 3.2 1.2 4.5h0.2c0.4-1.3 0.8-3.1 1.1-4.5l3-11.9h8.2zm32.6 8.3-0.4-9.7c-0.1-2.1-0.2-5.6-0.3-8.5h-0.2c-1 3.2-1.1 4-2.4 7.9l-3.3 9.9h-5.6l-2.9-9.6c-0.7-2.3-1.5-5.8-2-8h-0.2c-0.1 3-0.2 6.5-0.3 8.5l-0.4 9.6h-6.9l1.7-24.3h9.8l2.7 9.2c0.4 1.4 1.1 3.9 1.6 6.1h0.2c0.5-1.7 1.3-4.3 2-6.7l2.7-8.6h9.7l1.5 24.3h-7z" fill="url(#j)"/>
</g>
</svg>
