<svg width="7.702" height="6.9773" version="1.1" viewBox="0 0 2.0378 1.8461" xmlns="http://www.w3.org/2000/svg">
 <g transform="translate(-.55055 -.59318)">
  <g transform="matrix(.35278 0 0 -.35278 2.4674 2.0491)">
   <path d="m0 0-2.105 1e-3c0 0.232 0.671 0.533 1.24 0.862 0.245 0.142 1.208 0.584 1.208 1.602 0 0.945-0.884 1.662-1.892 1.662-0.951 0-1.777-0.683-1.777-0.683s9e-3 -0.029 0.24-0.612c0.088-0.224 0.307-0.327 0.537-0.214 0.31 0.153 0.696 0.357 1 0.357 0.412 0 0.698-0.274 0.698-0.569 0-0.392-0.411-0.561-1.101-0.945-0.667-0.371-1.445-0.952-1.445-1.963v-0.236c0-0.203 0.165-0.368 0.368-0.368h3.328v0.807c0 0.165-0.134 0.299-0.299 0.299" fill="#fff"/>
  </g>
  <g transform="matrix(.35278 0 0 -.35278 .79678 .95173)">
   <path d="m0 0c-0.385 0-0.698-0.316-0.698-0.705s0.313-0.705 0.698-0.705 0.698 0.316 0.698 0.705-0.313 0.705-0.698 0.705" fill="#fff"/>
  </g>
  <g transform="matrix(.35278 0 0 -.35278 .79678 1.7043)">
   <path d="m0 0c-0.385 0-0.698-0.316-0.698-0.705s0.313-0.705 0.698-0.705 0.698 0.316 0.698 0.705-0.313 0.705-0.698 0.705" fill="#fff"/>
  </g>
 </g>
</svg>
