<svg width="232.61mm" height="331.06mm" version="1.1" viewBox="0 0 232.61 331.06" xmlns="http://www.w3.org/2000/svg">
 <defs>
  <linearGradient id="a" x1="31.46" x2="638.86" y1="607.65" y2="248.29" gradientTransform="matrix(.35275 0 0 .35272 -19.432 -178.76)" gradientUnits="userSpaceOnUse">
   <stop stop-color="#291e56" offset="0"/>
   <stop stop-color="#48336b" offset=".22708"/>
   <stop stop-color="#64467c" offset=".37736"/>
   <stop stop-color="#855891" offset=".66531"/>
   <stop stop-color="#95619f" offset=".89744"/>
   <stop stop-color="#a668a9" offset="1"/>
  </linearGradient>
 </defs>
 <g transform="translate(19.434 178.76)">
  <path d="m144.98-177.98c3.2453-0.52908 6.5364-0.96644 9.831-0.71248 6.3459 0.65958 12.191 4.0421 16.502 8.6627 3.9508 4.2573 6.9385 9.8091 6.8962 15.734-0.48679 6.8321-1.9718 13.732-5.337 19.753-1.6121 2.79-3.7956 5.6293-7.0655 6.4865-5.5099 1.9118-11.33 0.50791-16.968 0.29628-7.1396-0.33155-13.92 2.3032-20.459 4.8217-9.0409 3.6365-17.954 7.5834-26.767 11.735-6.1414 2.9734-12.23 6.1196-17.901 9.9255-1.4745 1.0546-3.0371 2.0845-4.1271 3.5625-0.59262 0.70896-0.24692 1.8377 0.57498 2.1939 1.5909 0.79008 3.4393 0.649 5.1642 0.63842 4.5293-0.21868 8.995-1.0546 13.468-1.753 3.6263-0.60667 7.3019-0.89942 10.914-1.6154 5.905-1.1569 12.011-1.5378 17.983-0.67721 4.0318 0.61726 8.1591 2.1833 10.822 5.4107 2.9666 3.5554 3.6192 8.4581 3.2488 12.934-0.24691 4.3278-1.6438 8.4616-2.4622 12.691-0.43035 1.9929-0.71254 4.0245-1.3369 5.9715-0.96653 3.2732-4.4516 5.5411-7.831 5.2379-2.314 0.03179-4.6739-1.0652-6.9209-0.09168-4.8009 1.7848-9.055 4.7229-13.345 7.4705-11.186 7.4952-21.994 15.533-32.83 23.523-6.5752 4.9168-13.087 9.929-19.376 15.205-3.6792 3.1392-7.383 6.2854-10.586 9.9184-1.023 1.1851-2.1906 2.6524-1.7672 4.3313 0.35628 1.0722 1.6262 1.3615 2.628 1.3792 2.7585 0.05999 5.4429-0.73718 8.0673-1.499 7.7604-2.4373 15.207-5.7634 22.597-9.1389 13.355-6.2466 26.573-12.793 39.628-19.654 8.6246-4.4654 17.027-9.3505 25.698-13.728 6.8715-3.1357 13.57-6.6346 20.286-10.091 6.6916-3.4249 13.316-7.072 20.452-9.5127 4.7762-1.6189 9.8769-2.5749 14.929-2.0246 3.986 0.53966 7.3829 3.1779 9.57 6.4618 2.8256 3.9398 4.6598 8.8885 3.8026 13.778-0.7972 4.8605-4.0777 8.9096-7.8768 11.855-3.5839 2.9875-8.8151 3.8763-13.168 2.1798-1.9824-0.77598-3.8556-2.3632-4.247-4.55-0.18344-0.98408-0.58556-2.2926-1.7743-2.3738-1.8978 0.03169-3.4358 1.3509-4.9526 2.335-4.6351 3.439-9.4819 6.5782-14.241 9.8373-11.926 8.0807-23.856 16.154-35.804 24.207-11.528 7.6751-22.699 15.876-34.322 23.41-11.274 7.3012-22.847 14.271-35.24 19.523-4.7833 2.1304-9.6688 4.088-14.787 5.2555-8.8857 2.1762-18.124 2.2962-27.208 1.6825-6.875-0.58198-13.701-2.4444-19.701-5.901-4.9597-2.8358-9.302-6.7757-12.491-11.527-4.8185-7.139-6.9914-15.925-6.5258-24.496 0.75134-8.4652 5.2629-16.063 10.639-22.44 8.7058-10.179 19.732-18.077 31.168-24.909 7.1432-4.6841 14.735-8.6204 22.251-12.649 6.741-3.5907 13.542-7.0755 20.219-10.782-3.9261-0.17989-7.8557-0.22221-11.785-0.24338-8.5048-0.26454-17.344-2.014-24.329-7.139-5.397-3.8975-9.1432-9.8514-10.667-16.306-0.95595-3.9151-1.2099-7.9855-0.90303-11.999 0.36686-4.3772 2.0424-8.5498 4.3176-12.275 2.9419-4.8076 6.7904-8.9907 10.907-12.811 8.1414-7.4776 17.376-13.654 26.841-19.322 5.8768-3.506 11.884-6.7862 17.968-9.9149 13.154-7.0896 26.506-13.841 40.227-19.763 8.8151-3.834 18.014-6.8744 27.501-8.5075z" fill="url(#a)" stroke-width=".35273"/>
  <g fill="#483e6e">
   <path d="m-6.7573 149.99c9.3546 0 15.258-6.3774 15.258-14.497 0-7.9675-5.9037-14.48-15.258-14.48h-8.6779v28.977zm-11.182-31.295h11.182c10.556 0 17.846 7.257 17.846 16.798 0 9.4561-7.2908 16.798-17.846 16.798h-11.182z"/>
   <path d="m42.817 136.12c5.6161 0 9.7944-2.825 9.7944-7.7814 0-4.4997-3.5524-7.3416-9.6422-7.3416h-11.469v15.123zm-13.82-17.424h14.108c4.1275 0 7.4431 1.3025 9.4561 3.3156 1.5732 1.5901 2.5374 3.84 2.5374 6.3266 0 5.6161-4.1783 8.8302-9.8282 9.6083l11.08 14.345h-3.1633l-10.708-13.922h-10.979v13.922h-2.5036z"/>
   <path d="m100.09 140.63-8.8302-19.437-8.8809 19.437zm-9.9805-22.177h2.4021l15.647 33.832h-2.7404l-4.2798-9.4053h-19.809l-4.2798 9.4053h-2.5882z"/>
   <path d="m126.65 118.7h2.3513l13.482 19.859 13.482-19.859h2.3513v33.595h-2.4867v-29.18l-13.296 19.335h-0.18608l-13.296-19.335v29.18h-2.4021z"/>
   <path d="m203.3 140.63-8.8302-19.437-8.881 19.437zm-9.9805-22.177h2.4021l15.647 33.832h-2.7404l-4.2798-9.4053h-19.809l-4.2798 9.4053h-2.5882z"/>
  </g>
  <path d="m-19.18 62.63h232.19v45.234h-232.19z" fill="#2a1f56"/>
  <g fill="#fff">
   <path d="m-5.5563 69.215h24.765v7.257h-16.324v4.6688h14.785v6.7326h-14.785v4.8887h16.544v7.257h-24.985z"/>
   <path d="m70.854 85.157c3.028 0 4.8887-1.5901 4.8887-4.0091v-0.08458c0-2.6389-1.8608-4.0429-4.9395-4.0429h-3.9922v8.1366zm-12.586-15.309h13.195c7.7983 0 12.805 4.0091 12.805 10.826v0.08458c0 7.257-5.5823 11.08-13.245 11.08h-4.2121v8.8133h-8.5426z"/>
   <path d="m122.12 69.853h8.5764v30.804h-8.5764z"/>
   <path d="m169.86 85.333v-0.08458c0-8.9824 6.9018-16.02 16.239-16.02 6.2928 0 10.336 2.6389 13.059 6.4281l-6.4281 4.9733c-1.7593-2.1991-3.7723-3.62-6.7157-3.62-4.3136 0-7.3585 3.6539-7.3585 8.1536v0.08458c0 4.6181 3.0449 8.2212 7.3585 8.2212 3.1971 0 5.0917-1.4886 6.9356-3.7385l6.4281 4.5843c-2.8926 3.9922-6.8172 6.9525-13.634 6.9525-8.7964 0-15.884-6.7326-15.884-15.935"/>
  </g>
 </g>
</svg>
