<svg width="800pt" height="142.46pt" version="1.1" viewBox="0 0 800 142.46" xmlns="http://www.w3.org/2000/svg">
 <g transform="matrix(.73753 0 0 .73753 -12.922 -12.813)" fill="#1a1f6d">
  <path transform="matrix(.75 0 0 .75 52.234 -350.96)" d="m121.49 491.11 87.439 128.77-87.439 128.77 128.76-87.439 128.75 87.439-87.412-128.77 87.412-128.77-128.75 87.439z" fill="#1a1f6d" stroke-width="1.3333"/>
 </g>
 <g transform="matrix(1.1106 0 0 1.1106 -44.258 -264.78)" fill="#3c7dc9" stroke-width="3.3666">
  <path d="m107.58 329v16.833h-67.727v-91.859h66.804v16.833h-43.924v19.266h41.886v16.833h-41.886v22.093z" style="white-space:pre"/>
  <path d="m266.83 253.97h40.965q13.94 0 22.159 8.0876 8.2191 8.0876 8.2191 19.134 0 11.441-8.1533 19.594-8.0876 8.1533-22.093 8.1533h-18.214v36.888h-22.882zm22.882 16.833v21.304h10.652q14.269 0 14.269-10.652 0-5.9836-3.8137-8.2848-3.8138-2.3671-13.02-2.3671z" style="white-space:pre"/>
  <path d="m421.09 329v16.833h-70.025v-91.859h22.882v75.025z" style="white-space:pre"/>
  <path d="m478.1 252.79q23.475 0 38.005 14.203 14.532 14.137 14.532 32.943 0 19.068-14.729 33.074t-37.808 14.006q-23.342 0-38.005-13.94t-14.663-33.14q0-18.871 14.532-33.008 14.597-14.137 38.138-14.137zm0 75.158q13.02 0 20.976-7.6931 7.9561-7.7589 7.9561-20.318 0-12.624-7.9561-20.318-7.9561-7.6931-20.976-7.6931-13.085 0-21.107 7.6931-7.9561 7.6931-7.9561 20.318 0 12.559 7.9561 20.318 8.0218 7.6931 21.107 7.6931z" style="white-space:pre"/>
  <path d="m546.57 253.97h41.03q13.348 0 21.699 7.7589 8.3506 7.6931 8.3506 18.674 0 15.189-15.781 22.488 6.97 3.0905 13.151 16.899 6.2467 13.808 12.033 26.038h-25.184q-2.2356-4.537-7.8246-17.293-5.5234-12.757-9.5346-16.373-3.9452-3.6165-8.482-3.6165h-6.5754v37.282h-22.882zm22.882 16.833v20.91h12.099q5.7864 0 9.1401-2.696 3.4192-2.7617 3.4192-7.8246 0-10.389-13.085-10.389z" style="white-space:pre"/>
  <path d="m668.55 253.97v91.859h-22.882v-91.859z" style="white-space:pre"/>
  <path d="m756.01 259.89v17.951c-12.186-5.4795-21.896-8.2191-29.129-8.2191-4.1206 0-7.4083 0.70138-9.8633 2.1041-2.4109 1.3589-3.6164 3.1781-3.6164 5.4576 0 1.7534 0.87669 3.4192 2.6301 4.9973 1.7534 1.5781 6.0274 3.6165 12.822 6.1151s12.23 4.8219 16.307 6.97c4.0767 2.148 7.5836 5.1726 10.521 9.0744 2.9808 3.9014 4.471 8.8327 4.471 14.795 0 8.504-3.2436 15.277-9.7311 20.318-6.4439 5.0411-14.948 7.5616-25.513 7.5616-11.397 0-22.444-2.9589-33.14-8.8765v-19.792c6.137 4.1206 11.573 7.1234 16.307 9.008 4.7343 1.8849 9.7537 2.8274 15.058 2.8274 8.9861 0 13.48-2.8274 13.48-8.482 0-1.9288-0.89867-3.748-2.696-5.4576-1.7973-1.7096-6.137-3.7918-13.02-6.2466-6.8385-2.4548-12.274-4.7343-16.307-6.8385-3.9891-2.1042-7.4521-5.1069-10.389-9.008-2.8932-3.9014-4.3398-8.8984-4.3398-14.992 0-7.8904 3.1781-14.247 9.5346-19.068 6.3562-4.8658 14.86-7.2987 25.513-7.2987 9.8194 0 20.187 2.3671 31.102 7.1014z" style="white-space:pre"/>
 </g>
</svg>
