<svg width="5.5865mm" height="3.0339mm" version="1.1" viewBox="0 0 5.5865 3.0339" xmlns="http://www.w3.org/2000/svg">
 <defs>
  <clipPath id="a">
   <path d="m226.81 337.98h15.836v8.6h-15.836z"/>
  </clipPath>
 </defs>
 <g transform="translate(-81.117 -87.596)">
  <g transform="matrix(.35278 0 0 -.35278 83.68 87.596)">
   <path d="m0 0v-7.623l8.573-0.977-0.95 8.6z" fill="#e2001a"/>
  </g>
  <g transform="matrix(.35278 0 0 -.35278 81.237 88.489)">
   <path d="m0 0v-1.021h-0.34v-0.44h0.34v-1.081h0.481v1.081h0.82v0.44h-0.82v0.581h1.02v0.44z"/>
  </g>
  <path d="m81.844 89.386h0.1838v-0.90382h-0.1838z"/>
  <g transform="matrix(.35278 0 0 -.35278 82.734 89.386)">
   <path d="m0 0h-1.781v2.562h0.5v-2.122h0.86v0.341l0.421 0.02z" fill-rule="evenodd"/>
  </g>
  <g transform="matrix(.35278 0 0 -.35278 83.554 89.386)">
   <path d="m0 0h-0.421v1.661l-0.64-0.56-0.641 0.56 0.02-1.661h-0.44v2.562l1.061-0.941 1.061 0.941z" fill-rule="evenodd"/>
  </g>
  <g transform="matrix(.35278 0 0 -.35278 85.876 89.068)">
   <path d="m0 0-0.507-0.897h-0.559l0.816 1.287-0.794 1.249h0.559l0.485-0.882 0.492 0.882h0.559l-0.786-1.249 0.808-1.287h-0.559z" fill="#fff" fill-rule="evenodd"/>
  </g>
  <g transform="matrix(.35278 0 0 -.35278 1.1045 209.86)">
   <g clip-path="url(#a)">
    <g transform="translate(235.63 342.63)">
     <path d="m0 0h-0.419v-0.676h0.419v-0.448h-0.889v1.124h-0.347l1e-3 0.404h0.346v1.029h0.889v-0.448h-0.419v-0.581h0.419zm0.015 0h-0.015v0.404h0.015c0.161 0 0.308 0.147 0.308 0.294 0 0.169-0.154 0.287-0.308 0.287h-0.015v0.448h0.015c0.624 0 0.786-0.5 0.786-0.728 0-0.117-0.044-0.33-0.265-0.47 0.236-0.066 0.405-0.301 0.405-0.595 0-0.177-0.155-0.764-0.919-0.764h-0.022v0.448h0.015c0.25 0 0.404 0.161 0.404 0.331 0 0.161-0.118 0.345-0.404 0.345" fill="#fff" fill-rule="evenodd"/>
    </g>
    <g transform="translate(238.09 341.96)">
     <path d="m0 0c-0.456 0-0.823 0.368-0.823 0.823 0 0.456 0.367 0.823 0.823 0.823v0.5h-0.015c-0.727 0-1.322-0.588-1.322-1.323 0-0.727 0.595-1.323 1.322-1.323h0.015zv-0.5c0.728 8e-3 1.315 0.596 1.315 1.323 0 0.728-0.587 1.316-1.315 1.323v-0.5c0.456 0 0.823-0.367 0.823-0.823 0-0.455-0.367-0.823-0.823-0.823" fill="#fff" fill-rule="evenodd"/>
    </g>
    <g transform="translate(228.29 340.1)">
     <path d="m0 0c0.33 0 0.51 0.162 0.51 0.423 0 0.275-0.198 0.422-0.51 0.422h-0.366v-0.845zm0 0.987c0.415 0 0.662-0.211 0.662-0.564 0-0.351-0.247-0.565-0.662-0.565h-0.366v-0.675h-0.147v1.804h0.513"/>
    </g>
    <g transform="translate(230.43 339.43)">
     <path d="m0 0v-0.142h-1.147v1.804h0.147v-1.662z"/>
    </g>
    <g transform="translate(232.11 341.09)">
     <path d="m0 0v-1.072c0-0.5-0.258-0.771-0.724-0.771-0.472 0-0.724 0.271-0.724 0.771v1.072h0.147v-1.077c0-0.415 0.195-0.624 0.577-0.624 0.381 0 0.575 0.209 0.575 0.624v1.077h0.149"/>
    </g>
    <g transform="translate(233.55 340.61)">
     <path d="m0 0c-0.039 0.24-0.237 0.384-0.49 0.384-0.265 0-0.458-0.126-0.458-0.338 0-0.219 0.268-0.288 0.512-0.355 0.25-0.07 0.609-0.17 0.609-0.534 0-0.296-0.258-0.515-0.647-0.515s-0.626 0.232-0.665 0.528l0.142 0.039c0.02-0.232 0.206-0.431 0.528-0.431 0.299 0 0.487 0.16 0.487 0.377 0 0.299-0.34 0.355-0.593 0.43-0.206 0.059-0.525 0.147-0.525 0.456 0 0.281 0.26 0.477 0.615 0.477 0.323 0 0.575-0.188 0.629-0.479l-0.144-0.039"/>
    </g>
   </g>
  </g>
 </g>
</svg>
