<svg width="800" height="420.85" space="preserve" version="1.1" viewBox="0 0 800 420.85" xmlns="http://www.w3.org/2000/svg">
 <path d="m380.43 373.01 419.57 47.833-46.533-420.85h-373.02v373.02" fill="#eb1e26" stroke-width=".20661"/>
 <g fill="#fff" fill-rule="evenodd" stroke-width=".20661">
  <path d="m685.12 204.15-24.816 43.872h-27.333l39.921-62.936-38.837-61.124h27.331l23.733 43.151 24.097-43.151h27.331l-38.477 61.124 39.558 62.936h-27.337l-25.171-43.872"/>
  <path d="m456.92 193.53h-20.496v33.087h20.496v21.938h-43.508v-55.025h-16.957l0.0516-19.771h16.905l-0.0103-50.347h43.519v21.938h-20.496v28.409h20.496zm0.7252 0h-0.7252v-19.771h0.7252c7.907 0 15.107-7.1963 15.107-14.382 0-8.2686-7.5578-14.027-15.107-14.027h-0.7252v-21.938h0.7252c30.564 0 38.475 24.457 38.475 35.605 0 5.7583-2.157 16.182-12.946 23.012 11.512 3.2355 19.783 14.74 19.783 29.128 0 8.6277-7.5537 37.397-44.957 37.397h-1.0806v-21.938h0.7252c12.229 0 19.777-7.9093 19.777-16.18 0-7.9091-5.7541-16.907-19.777-16.907"/>
  <path d="m577.11 226.27c-22.3 0-40.279-17.99-40.279-40.281 0-22.295 17.979-40.273 40.279-40.273v-24.457h-0.71901c-35.595 0-64.725 28.767-64.725 64.729 0 35.599 29.13 64.727 64.725 64.727h0.71901zv24.446c35.605-0.35909 64.37-29.128 64.37-64.727 0-35.597-28.764-64.374-64.37-64.729v24.457c22.3 0 40.281 17.977 40.281 40.273 0 22.291-17.981 40.281-40.281 40.281"/>
 </g>
 <g fill="#fff" stroke-width=".20661">
  <g fill-rule="evenodd">
   <path d="m41.674 248.21v-52.897h-16.649v-21.55h16.649v-49.942h73.457v21.537h-49.95v28.405h40.161v21.55h-40.161v52.897h-23.506"/>
   <path d="m125.9 248.21v-125.38h25.471v125.38h-25.471"/>
   <path d="m249.32 248.21h-87.176v-125.38h24.49v103.83h42.11v-16.651l20.576-0.98347v39.184"/>
   <path d="m362.95 248.21h-20.579v-81.298l-31.347 27.417-31.337-27.417 0.97521 81.298h-21.554v-125.38l51.915 46.043 51.926-46.043v125.38"/>
  </g>
  <path d="m55.657 292.19c-1.8895-11.711-11.585-18.762-23.926-18.762-12.969 0-22.413 6.1692-22.413 16.496 0 10.702 13.095 14.103 25.058 17.375 12.213 3.3986 29.715 8.3105 29.715 26.064 0 14.481-12.591 25.184-31.605 25.184-19.013 0-30.597-11.332-32.486-25.814l6.9256-1.8886c1.008 11.335 10.074 21.029 25.814 21.029 14.606 0 23.798-7.806 23.798-18.384 0-14.606-16.621-17.376-28.961-21.027-10.074-2.8965-25.686-7.1781-25.686-22.287 0-13.725 12.718-23.295 30.095-23.295 15.739 0 28.079 9.1919 30.723 23.419l-7.0506 1.8901"/>
  <path d="m137.37 268.65v6.924h-30.221v81.217h-7.3031v-81.217h-30.093v-6.924h67.618"/>
  <path d="m194.54 324.68-16.243-37.145c-1.8886-4.5335-3.9031-10.198-4.0289-10.198h-0.12604c-0.12582 0-2.1403 5.6649-4.0289 10.198l-16.243 37.145zm2.8965 6.4211h-46.463l-11.206 25.688h-7.9326l39.159-88.14h6.4227l39.159 88.14h-7.9339l-11.205-25.688"/>
  <path d="m256.24 316.37c15.99 0 24.552-8.438 24.552-20.525 0-12.969-9.4422-20.272-24.552-20.272h-18.258v40.798zm26.568 40.419-21.029-34.376c-1.8884 0.25268-3.9029 0.37851-5.9174 0.37851h-17.88v33.998h-7.1777v-88.14h25.058c20.145 0 32.36 10.449 32.36 27.196 0 12.845-7.0496 21.657-19.138 25.184l21.909 35.76h-8.1839"/>
  <path d="m357.46 292.19c-1.8884-11.711-11.585-18.762-23.924-18.762-12.969 0-22.413 6.1692-22.413 16.496 0 10.702 13.095 14.103 25.056 17.375 12.215 3.3986 29.717 8.3105 29.717 26.064 0 14.481-12.591 25.184-31.605 25.184-19.012 0-30.597-11.332-32.486-25.814l6.9256-1.8886c1.0083 11.335 10.072 21.029 25.812 21.029 14.607 0 23.798-7.806 23.798-18.384 0-14.606-16.62-17.376-28.961-21.027-10.072-2.8965-25.686-7.1781-25.686-22.287 0-13.725 12.719-23.295 30.095-23.295 15.738 0 28.079 9.1919 30.723 23.419l-7.0516 1.8901"/>
 </g>
</svg>
