<svg width="800pt" height="795.55pt" version="1.1" viewBox="0 0 800 795.55" xmlns="http://www.w3.org/2000/svg">
 <g fill="#e90000" fill-rule="evenodd" stroke-width="82.338">
  <path d="m675.72 242.87c-68.835 0-124.99-56.155-124.99-124.99 0-29.559 10.375-56.813 27.583-78.221-53.684-26.925-114.29-42.157-178.26-42.157-220.34 0-400.08 179.74-400.08 400.08s179.74 400 400.08 400 400-179.66 400-400c0-66.035-16.138-128.45-44.71-183.45-21.655 17.95-49.403 28.736-79.621 28.736"/>
  <path d="m697.13 184.41h26.925l33.429-99.958h-29.806l-16.879 62.083-17.456-62.083h-29.395z"/>
  <path d="m662.79 161.36c-8.2338 0.98806-9.5512 0.98806-12.515 0.98806-4.6933 0-9.3042-2.7172-9.3042-11.116v-45.698h21.655l-7.0811-21.243h-14.574v-24.784h-28.242l-0.0823 24.784h-12.515v21.243h11.692v48.991c0.57636 21.49 13.668 31.453 31.618 31.453 4.5286 0 11.774-0.98805 19.349-2.3878z"/>
 </g>
 <g fill="#fff" fill-rule="evenodd" stroke-width="82.338">
  <path d="m504.21 386.97c2.5525-1.1527 7.9868-2.5525 11.774-2.5525 9.8806 0 15.562 3.0465 15.562 22.067v29.971c0 15.48-4.2816 19.02-14.162 19.02-3.7876 0-10.128 0-13.174-0.90572zm-35.076-48.25v139.56c19.267 3.5405 35.076 4.5286 48.25 4.5286 41.004 0 49.238-22.89 49.238-52.285v-22.808c0-34.17-16.056-48.991-42.651-49.732-7.4928 0-14.574 1.2351-19.761 2.6348v-47.344h-49.897v25.442z"/>
  <path d="m387.21 386.97c2.5525-1.1527 7.9868-2.5525 11.774-2.5525 9.8806 0 15.562 3.0465 15.562 22.067v29.971c0 15.48-4.2816 19.02-14.162 19.02-3.7876 0-10.128 0-13.174-0.90572zm-35.076-48.25v139.56c19.267 3.5405 35.076 4.5286 48.25 4.5286 41.004 0 49.238-22.89 49.238-52.285v-22.808c0-34.17-16.056-48.991-42.651-49.732-7.4928 0-14.574 1.2351-19.761 2.6348v-47.344h-49.897v25.442z"/>
  <path d="m297.46 436.37c0 6.587-0.49403 18.114-15.809 18.114-15.068 0-15.48-11.527-15.48-18.114v-30.383c0-6.34 0.41169-19.761 15.48-19.761 15.315 0 15.809 13.174 15.809 19.761zm35.076-28.983c0-15.315-1.3998-49.403-50.885-49.403-49.156 0-50.556 34.335-50.556 49.403v25.936c0 15.315 1.3998 49.403 50.556 49.403 49.485 0 50.885-34.088 50.885-49.403z"/>
  <path d="m630.6 482.48c5.6813 0 13.668-0.74104 20.996-4.4462 0 8.2338-2.1408 17.126-8.9748 20.255-10.128 4.4462-30.136 4.1992-48.991 4.1992v27.583c23.302 0 41.663 0 57.472-4.2816 35.076-10.786 35.323-37.875 35.323-61.177v-104.82h-35.076v93.042c-3.7876 1.3998-8.7278 2.3055-13.174 2.3055-12.515 0-12.762-13.174-12.762-30.547v-64.8h-49.897v25.442h14.574v51.297c0 29.477 8.4808 45.945 40.51 45.945"/>
  <path d="m176.42 480.83h35.076v-76.739c0-29.477-8.4808-45.945-40.51-45.945-6.834 0-15.727 0.98806-22.314 2.6348v-47.344h-35.076v167.39h35.076v-93.454c2.5525-0.98806 7.9868-1.8938 11.033-1.8938 11.28 0 16.715 2.7995 16.715 24.043z"/>
 </g>
</svg>
