<svg width="1128.9pt" height="555.74pt" version="1.1" viewBox="0 0 1128.9 555.74" xmlns="http://www.w3.org/2000/svg">
 <defs>
  <linearGradient id="b" x1="30.035" x2="785.26" y1="196.33" y2="212.08" gradientUnits="userSpaceOnUse">
   <stop stop-color="#e5ad00" offset="0"/>
   <stop stop-color="#ffde00" offset=".78044"/>
   <stop stop-color="#ffd500" offset="1"/>
  </linearGradient>
  <linearGradient id="a" x2="1128.9" y1="444.69" y2="425.6" gradientUnits="userSpaceOnUse">
   <stop stop-color="#e8e4e6" offset="0"/>
   <stop stop-color="#e6e5e6" offset=".4979"/>
   <stop stop-color="#d1d0d1" offset=".8094"/>
   <stop stop-color="#c4c3c7" offset="1"/>
  </linearGradient>
 </defs>
 <path d="m0 333.64 758.22 0.76 370.72 0.49v188.97l-1128.9 31.88v-222.1" fill="url(#a)"/>
 <g transform="translate(-30.035,-29.13)">
  <path d="m30.035 29.13 758.22 34.05v300.35l-758.22-0.76v-333.64" fill="url(#b)"/>
 </g>
 <g transform="translate(-30.035,-29.13)" fill="#1d008a">
  <path d="m788.26 63.32 370.72 16.7v284l-370.72-0.49v-300.21"/>
  <path d="m103.36 88.18 43.91 1.56v218.87l-43.91 0.08z"/>
  <path d="m193.36 92.96c0-1.5479 0.93462-2.6952 2.0501-2.7031 0.46344-0.0033 0.95809 0.19008 1.4299 0.63309l125.76 127.07v-121.44l41.16 1.78v212.78c0 0.77713-0.65188 1.2005-1.4746 1.21-0.59414 7e-3 -1.2774-0.16375-1.8685-0.75488l-124.4-125.54v123.66c-14.14-0.11-28.51-0.23-42.65-0.18z"/>
  <path d="m407.65 99.61 133.55 5.22v38.05l-93.665-2.9v48.81l73.315 1.81v38.16l-73.315-1.36v84.09l-39.885-0.2z"/>
  <path d="m642.04 105.11c7.2991 0.025 14.607 0.31361 21.769 1.793 15.15 2.98 29.58 9.89 40.98 20.35 14.07 12.76 23.21 30.19 28.37 48.3 4.34 16.02 6.29 32.83 4.53 49.38-1.75 20.56-7.98 41.11-20.04 58.03-10.09 14.23-25.09 24.89-41.86 29.71-15.15 4.35-31.28 4.69-46.78 2.22-19.03-3.04-37.12-12.48-49.78-27.13-10.4-11.8-17.5-26.22-21.82-41.28-5.9-20.85-6.99-43.1-2.71-64.37 3.85-19.3 11.99-38.18 25.64-52.59 11.422-12.248 26.938-19.96 43.289-23.046 8.1706-1.5132 14.734-1.3668 18.411-1.3668zm-4.5307 38.533c-10.53 1.21-20.8 5.86-28.02 13.73-11.18 11.65-15.92 27.92-17.75 43.6-1.42 17.54 1.84 35.69 10.35 51.17 6.66 12.19 18.29 21.89 32.03 24.78 12.95 2.69 27.23 1.92 38.81-5 10.77-6.32 17.9-17.31 22.15-28.81 5.6-15.64 7.23-32.83 3.74-49.13-2.89-14.68-9.17-29.41-20.75-39.31-10.99-9.57-26.35-12.76-40.56-11.03z"/>
  <path d="m865.66 400.87c10.73-1.52 22.17-1.17 32.16 3.47 10.83 4.75 19.17 14.11 24 24.78 8.52 18.65 9.16 40.44 3.04 59.9-3.99 12.41-11.66 24.08-23.03 30.85-11.3 6.71-25.05 8.03-37.85 6.16-13.08-2.07-24.82-10.17-31.73-21.42-7.6-12.07-10.49-26.51-10.77-40.61 0.41-16.89 4.78-34.48 16.06-47.5 7.16-8.3 17.33-13.83 28.12-15.63m6.94 22c-9.05 0.62-17.23 6.19-21.75 13.95-5.8 9.97-7.75 21.92-6.58 33.32 1.28 10.02 4.47 20.48 12.18 27.45 11.27 10.45 31.34 8.79 40.75-3.37 7.57-9.55 10.18-22.25 9.77-34.21-0.73-10.4-3.59-21.29-10.89-29.08-5.79-6.49-15.02-9.01-23.48-8.06z"/>
  <path d="m654.46 403.58c0-0.7762-2e-3 -1.4089 0.79514-1.4089 0.32726 0 0.51334 0.23556 0.96702 0.70369l68.738 70.926v-70.76l22.695-0.01v123.89c0 0.55905-0.38668 0.65974-0.90383 0.65974-0.67655 0-0.78631-0.13184-0.96438-0.30991l-68.182-70.42v71.61l-23.145 0.31z"/>
  <path d="m490.28 404.09h44.72c9.25 0.23 18.9 1.79 26.57 7.33 8.1 5.51 13.11 14.68 15.06 24.14 2.75 13.37-0.03 28.42-9.48 38.64-3.51 4.14-8.21 6.91-12.8 9.67l20.89 46.86-25.39 0.62-19.79-43.56-16.5 0.54v43.9l-23.28 0.5v-128.64m23.28 23.4v37.14l24.44-0.34c3.26-0.01 6.42-1.36 9.03-3.26 8.57-6.82 9.46-21.09 2-29.04-3.87-4-9.72-4.98-15.05-4.81z"/>
  <path d="m317.16 404.95h48.815c9.67 0.41 19.86 1.76 27.95 7.5 15.44 10.2 20.45 33.72 9.36 48.84-2.19 3.69-5.97 5.85-8.97 8.77 7.06 3.52 12.06 10.45 13.96 18.02 2.83 11.69-0.25 24.85-8.09 34-8.48 9.76-21.75 13.26-34.2 13.91l-48.825 1.06v-132.1m24.94 23.64v31.11h24.865c4.63 0.01 9.42-1.6 12.75-4.93 4.78-4.6 5.9-12.43 2.62-18.19-2.67-5.27-8.68-7.91-14.38-7.99h-25.855m0 53.99v29.78h22.965c4.39-0.39 9.06-0.9 12.74-3.57 6.75-4.38 8.64-14.81 3.46-21.07-3.71-4.36-9.78-5.23-15.2-5.14z"/>
 </g>
 <path d="m798.91 86.5 130.46 4.95v36.26l-46.935-1.34v160.12l-35.87-0.22v-160.99l-47.66-1.75z" fill="#fdfdfd"/>
 <path d="m936.12 91.61 38.63 1.47 41.216 114.88c0.1047 0.31129 0.3001 0.87392 0.3549 0.87392 0.048 0 0.2104-0.47778 0.3398-0.81617l40.929-111.9 36.85 1.53c-26.854 66.521-53.804 134.15-76.712 191.11-0.3777 0.88135-0.9453 1.1224-1.651 1.1224-0.567 0-1.1068-0.0489-1.651-1.4341-25.812-65.718-52.315-131.17-78.306-196.83z" fill="#fdfdfd"/>
</svg>
