<svg width="12.856" height="12.053" version="1.1" viewBox="0 0 3.4015 3.1891" xmlns="http://www.w3.org/2000/svg">
 <path d="m0 3.1888h3.4015v-3.1891h-3.4015z" fill="#e3004f"/>
 <g transform="translate(.13282 -.00010272)">
  <g transform="matrix(.35278 0 0 -.35278 2.0812 .63466)">
   <path d="m0 0-1.613-0.869 0.256-0.646c0.049-0.157 0.196-0.272 0.37-0.272 0.06 0 0.116 0.014 0.167 0.039l0.373 0.152v-3.845h0.902c0.214 0 0.387 0.173 0.387 0.387v5.054z" fill="#fff"/>
  </g>
  <g transform="matrix(.35278 0 0 -.35278 1.0165 .99079)">
   <path d="m0 0c-0.405 0-0.734-0.332-0.734-0.741 0-0.408 0.329-0.741 0.734-0.741s0.734 0.333 0.734 0.741c0 0.409-0.329 0.741-0.734 0.741" fill="#fff"/>
  </g>
  <g transform="matrix(.35278 0 0 -.35278 1.0165 1.7817)">
   <path d="m0 0c-0.405 0-0.734-0.332-0.734-0.741 0-0.408 0.329-0.741 0.734-0.741s0.734 0.333 0.734 0.741c0 0.409-0.329 0.741-0.734 0.741" fill="#fff"/>
  </g>
 </g>
</svg>
