<svg width="800" height="240.33" version="1.1" viewBox="0 0 800 240.33" xml:space="preserve" xmlns="http://www.w3.org/2000/svg"><g transform="matrix(1.3333 0 0 -1.3333 -989.48 614.9)"><g transform="matrix(4.1368 0 0 4.1368 856.68 441.66)" fill="#42e018"><path d="m0 0c-7.954 0-14.402-6.461-14.402-14.432 0-5.211 4.216-9.436 9.417-9.436 1.121 0 2.196 0.197 3.193 0.557-0.049-1e-3 -0.098-2e-3 -0.147-2e-3 -4.053 0-7.339 3.293-7.339 7.355 0 5.058 4.092 9.158 9.14 9.158 4.231 0 7.788-2.882 8.829-6.793 7e-3 -0.029 0.015-0.059 0.022-0.088 0.054-0.209 0.098-0.422 0.136-0.636 0.094-0.534 0.152-1.08 0.152-1.641 0-8.047-6.51-14.571-14.54-14.571-8.891 0-16.151 6.997-16.596 15.795-0.013 0.285-0.021 0.57-0.021 0.857 0 9.316 6.735 17.055 15.593 18.594-11.689-0.104-21.133-9.631-21.133-21.369 0-0.369 0.01-0.736 0.028-1.1 0.572-11.751 10.26-21.103 22.129-21.103 12.237 0 22.156 9.941 22.156 22.203 0 9.196-7.439 16.652-16.617 16.652" fill="#42e018"/></g><g fill="#fff"><path d="m1079.1 335.17h57.543v-32.883h-90.426v131.53h32.883z"/><path d="m1177.7 433.81v-98.646h32.884v98.646h32.879v-131.53h-98.642v131.53z"/><path d="m1342.1 302.29h-90.426v32.883h57.543v13.643l-57.543 10.11v74.889h90.426v-32.879h-57.543v-14.471l57.543-10.11z"/><path d="m1037 347-65.37-10.541-0.393-35.436-32.883 0.81909v131.53h98.646zm-65.37 22.835 32.486 4.5133v26.14h-32.879z"/></g></g></svg>
