<svg width="800" height="225.45" version="1.1" viewBox="0 0 800 225.45" xml:space="preserve" xmlns="http://www.w3.org/2000/svg"><g transform="matrix(1.3333 0 0 -1.3333 479.27 1018.1)"><path d="m-251.96 745.29c-30.866 0-55.887-25.073-55.887-56.01 0-20.218 16.362-36.615 36.545-36.615 4.3468 0 8.5184 0.76245 12.383 2.1559h-0.56089c-15.731 0-28.482 12.778-28.482 28.544 0 19.631 15.871 35.546 35.467 35.546 16.415 0 30.226-11.183 34.267-26.37 0.0263-0.10517 0.0526-0.22786 0.0876-0.33303 0.20157-0.81503 0.37684-1.6388 0.52583-2.4714 0.35932-2.077 0.58718-4.1891 0.58718-6.3713 0-31.234-25.266-56.544-56.43-56.544-34.503 0-62.679 27.15-64.405 61.294-0.0526 1.1042-0.0876 2.2085-0.0876 3.3215 0 36.16 26.142 66.193 60.514 72.161-45.362-0.40314-82.012-37.369-82.012-82.923 0-1.4373 0.0438-2.857 0.11393-4.268 2.2172-45.607 39.814-81.898 85.877-81.898 47.482 0 85.982 38.57 85.982 86.166 9e-3 35.686-28.868 64.616-64.484 64.616" fill="#ed2127"/><g fill="#fff"><path d="m-38.742 698.82h-23.881v-21.98h23.881zm22.707-38.438c-1.744-1.8229-4.2943-2.7343-7.642-2.7343h-38.946v-24.434h-25.214v85.246h64.379c3.2777 0 5.7666-0.92897 7.4843-2.7869 1.7089-1.8579 2.559-4.4608 2.559-7.8086v-39.612c0-3.4267-0.87638-6.047-2.6204-7.8699"/><path d="m48.625 698.82h-26.782v-45.975h26.782zm22.768-62.819c-1.7177-1.8579-4.2066-2.7869-7.4755-2.7869h-57.359c-3.2689 0-5.7403 0.92897-7.423 2.7869-1.6651 1.8579-2.5065 4.4696-2.5065 7.8086v64.055c0 3.3478 0.84133 5.9506 2.5065 7.8086 1.6827 1.8579 4.1541 2.7869 7.423 2.7869h57.359c3.2689 0 5.7578-0.92897 7.4755-2.7869 1.7089-1.8579 2.559-4.4608 2.559-7.8086v-64.055c0-3.339-0.85009-5.9506-2.559-7.8086"/><path d="m135.1 633.22-21.647 31.804v14.39h20.306v19.421h-23.767v-65.615h-25.214v85.246h64.046c3.2689 0 5.7841-0.92896 7.5369-2.7869 1.744-1.8579 2.6204-4.4608 2.6204-7.8086v-33.697c0-3.4266-0.87638-6.0295-2.6204-7.8173-1.7528-1.779-4.268-2.673-7.5369-2.673h-5.3547l19.526-29.569v-0.89391z"/><path d="m215.11 697.93v-64.721h-25.214v64.721h-25.441v20.534h76.096v-20.534z"/><path d="m-98.66 690.46v17.633c0 3.3478-0.85885 5.9156-2.5678 7.6946-1.709 1.7878-4.2417 2.6817-7.5895 2.6817h-4.6536l-13.601-12.874c-0.14898-0.13146-0.34179-0.21034-0.53459-0.21034h-14.46c-0.19281 0-0.36808 0.0701-0.51707 0.19281l-14.741 12.892h-5.6088c-3.2689 0-5.7841-0.93773-7.5281-2.7957-1.7528-1.8579-2.6204-4.4608-2.6204-7.8086v-21.533c0-2.0858 0.3155-3.7246 0.94649-4.9077 0.631-1.1919 1.8404-2.1997 3.6282-3.0148l44.52-18.746v-7.9225h-23.881v10.937h-25.214v-18.86c0-3.3478 0.86762-5.9506 2.6204-7.8086 1.744-1.8667 4.2592-2.7957 7.5281-2.7957h54.011c3.2689 0 5.8016 0.92896 7.5807 2.7957 1.7878 1.8579 2.6817 4.4608 2.6817 7.8086v21.647c0 2.0858-0.35055 3.7422-1.0604 4.9691-0.70987 1.2269-1.9543 2.2435-3.7334 3.0673l-44.415 18.632v7.8086h23.881v-9.4824z"/><path d="m-102.47 733.28-25.143-23.794h-14.46l-27.212 23.794v0.8238h21.813l12.541-10.525 12.532 10.525h19.929z"/></g></g></svg>
