<svg width="800" height="225.45" version="1.1" viewBox="0 0 211.67 59.651" xmlns="http://www.w3.org/2000/svg">
 <g transform="translate(4.2374e-6 57.255)">
  <g transform="matrix(8.6742 0 0 -8.6742 -5288.7 6138)" fill="#ed2127">
   <path d="m632.24 714.22v-0.532h-0.582v0.532h-0.328v-1.354h0.328v0.532h0.582v-0.532h0.327v1.354z"/>
   <path d="m632.85 714.22v-1.354h0.562c0.403 0 0.694 0.294 0.694 0.676 0 0.384-0.291 0.678-0.694 0.678zm0.327-0.291h0.207c0.229 0 0.382-0.16 0.382-0.387 0-0.224-0.153-0.386-0.382-0.386h-0.207z"/>
  </g>
 </g>
 <path d="m37.919 6.4585c-10.889 0-19.716 8.8453-19.716 19.759 0 7.1325 5.7722 12.917 12.892 12.917 1.5335 0 3.0051-0.26898 4.3685-0.76055h-0.19787c-5.5496 0-10.048-4.5077-10.048-10.07 0-6.9254 5.599-12.54 12.512-12.54 5.7907 0 10.663 3.945 12.088 9.3029 0.0093 0.0371 0.01856 0.08038 0.0309 0.11749 0.07111 0.28752 0.13294 0.57814 0.1855 0.87185 0.12676 0.73273 0.20714 1.4778 0.20714 2.2477 0 11.019-8.9133 19.948-19.907 19.948-12.172 0-22.112-9.578-22.721-21.623-0.018556-0.38955-0.030903-0.7791-0.030903-1.1717 0-12.756 9.2225-23.351 21.348-25.457-16.003 0.14222-28.932 13.183-28.932 29.253 0 0.50704 0.015452 1.0079 0.040192 1.5056 0.7822 16.089 14.046 28.892 30.295 28.892 16.751 0 30.332-13.606 30.332-30.397 0.0032-12.589-10.184-22.795-22.749-22.795" fill="#ed2127"/>
 <g transform="matrix(.35278 0 0 -.35278 126.81 269.38)" fill="#fff">
  <path d="m-38.742 698.82h-23.881v-21.98h23.881zm22.707-38.438c-1.744-1.8229-4.2943-2.7343-7.642-2.7343h-38.946v-24.434h-25.214v85.246h64.379c3.2777 0 5.7666-0.92897 7.4843-2.7869 1.7089-1.8579 2.559-4.4608 2.559-7.8086v-39.612c0-3.4267-0.87638-6.047-2.6204-7.8699"/>
  <path d="m48.625 698.82h-26.782v-45.975h26.782zm22.768-62.819c-1.7177-1.8579-4.2066-2.7869-7.4755-2.7869h-57.359c-3.2689 0-5.7403 0.92897-7.423 2.7869-1.6651 1.8579-2.5065 4.4696-2.5065 7.8086v64.055c0 3.3478 0.84133 5.9506 2.5065 7.8086 1.6827 1.8579 4.1541 2.7869 7.423 2.7869h57.359c3.2689 0 5.7578-0.92897 7.4755-2.7869 1.7089-1.8579 2.559-4.4608 2.559-7.8086v-64.055c0-3.339-0.85009-5.9506-2.559-7.8086"/>
  <path d="m135.1 633.22-21.647 31.804v14.39h20.306v19.421h-23.767v-65.615h-25.214v85.246h64.046c3.2689 0 5.7841-0.92896 7.5369-2.7869 1.744-1.8579 2.6204-4.4608 2.6204-7.8086v-33.697c0-3.4266-0.87638-6.0295-2.6204-7.8173-1.7528-1.779-4.268-2.673-7.5369-2.673h-5.3547l19.526-29.569v-0.89391z"/>
  <path d="m215.11 697.93v-64.721h-25.214v64.721h-25.441v20.534h76.096v-20.534z"/>
  <path d="m-98.66 690.46v17.633c0 3.3478-0.85885 5.9156-2.5678 7.6946-1.709 1.7878-4.2417 2.6817-7.5895 2.6817h-4.6536l-13.601-12.874c-0.14898-0.13146-0.34179-0.21034-0.53459-0.21034h-14.46c-0.19281 0-0.36808 0.0701-0.51707 0.19281l-14.741 12.892h-5.6088c-3.2689 0-5.7841-0.93773-7.5281-2.7957-1.7528-1.8579-2.6204-4.4608-2.6204-7.8086v-21.533c0-2.0858 0.3155-3.7246 0.94649-4.9077 0.631-1.1919 1.8404-2.1997 3.6282-3.0148l44.52-18.746v-7.9225h-23.881v10.937h-25.214v-18.86c0-3.3478 0.86762-5.9506 2.6204-7.8086 1.744-1.8667 4.2592-2.7957 7.5281-2.7957h54.011c3.2689 0 5.8016 0.92896 7.5807 2.7957 1.7878 1.8579 2.6817 4.4608 2.6817 7.8086v21.647c0 2.0858-0.35055 3.7422-1.0604 4.9691-0.70987 1.2269-1.9543 2.2435-3.7334 3.0673l-44.415 18.632v7.8086h23.881v-9.4824z"/>
  <path d="m-102.47 733.28-25.143-23.794h-14.46l-27.212 23.794v0.8238h21.813l12.541-10.525 12.532 10.525h19.929z"/>
 </g>
</svg>
