<svg width="800" height="213.43" version="1.1" viewBox="0 0 800 213.43" xml:space="preserve" xmlns="http://www.w3.org/2000/svg"><g transform="matrix(1.3333 0 0 -1.3333 -989.48 588)" fill="#42e018"><g transform="matrix(3.6737 0 0 3.6737 843.86 423.67)"><path d="m0 0c-7.954 0-14.402-6.461-14.402-14.432 0-5.211 4.216-9.436 9.417-9.436 1.121 0 2.196 0.197 3.193 0.557-0.049-1e-3 -0.098-2e-3 -0.147-2e-3 -4.053 0-7.339 3.293-7.339 7.355 0 5.058 4.092 9.158 9.14 9.158 4.231 0 7.788-2.882 8.829-6.793 7e-3 -0.029 0.015-0.059 0.022-0.088 0.054-0.209 0.098-0.422 0.136-0.636 0.094-0.534 0.152-1.08 0.152-1.641 0-8.047-6.51-14.571-14.54-14.571-8.891 0-16.151 6.997-16.596 15.795-0.013 0.285-0.021 0.57-0.021 0.857 0 9.316 6.735 17.055 15.593 18.594-11.689-0.104-21.133-9.631-21.133-21.369 0-0.369 0.01-0.736 0.028-1.1 0.572-11.751 10.26-21.103 22.129-21.103 12.237 0 22.156 9.941 22.156 22.203 0 9.196-7.439 16.652-16.617 16.652" fill="#42e018"/></g><g transform="matrix(.9759 0 0 .9759 17.887 6.7713)"><path d="m1048.7 330.29h52.364v-29.924h-82.288v119.69h29.924z"/><path d="m1138.5 420.05v-89.768h29.924v89.768h29.92v-119.69h-89.764v119.69z"/><path d="m1288.1 300.37h-82.288v29.924h52.364v12.415l-52.364 9.2004v68.148h82.288v-29.92h-52.364v-13.168l52.364-9.2004z"/><path d="m1010.4 341.05-59.486-9.5919-0.35763-32.247-29.924 0.74536v119.69h89.768zm-59.486 20.78 29.562 4.107v23.788h-29.92z"/></g><g transform="matrix(.9759 0 0 .9759 -83.066 27.088)" stroke-width="22.097"><path d="m1419.1 399.23v-11.756h-12.86v11.756h-7.2479v-29.92h7.2479v11.756h12.86v-11.756h7.2258v29.92z"/><path d="m1432.6 399.23v-29.92h12.418c8.9052 0 15.336 6.4966 15.336 14.938 0 8.4853-6.4303 14.982-15.336 14.982zm7.2257-6.4305h4.5741c5.0603 0 8.4411-3.5355 8.4411-8.5516 0-4.9498-3.3808-8.5295-8.4411-8.5295h-4.5741z"/></g></g></svg>
