<svg width="8.4004mm" height="2.424mm" version="1.1" viewBox="0 0 8.4004 2.424" xmlns="http://www.w3.org/2000/svg">
 <defs>
  <linearGradient id="d" x2="1" gradientTransform="matrix(1.2568 0 0 -1.2568 632.85 713.55)" gradientUnits="userSpaceOnUse">
   <stop stop-color="#ee252d" offset="0"/>
   <stop stop-color="#ca2231" offset="1"/>
  </linearGradient>
  <linearGradient id="e" x2="1" gradientTransform="matrix(1.2375 0 0 -1.2375 631.33 713.55)" gradientUnits="userSpaceOnUse">
   <stop stop-color="#ee252d" offset="0"/>
   <stop stop-color="#ca2231" offset="1"/>
  </linearGradient>
  <clipPath id="g">
   <path d="m610.3 707.35h23.811v6.871h-23.811z"/>
  </clipPath>
  <clipPath id="m">
   <path d="m92.62 481.62c0-0.555-0.144-1.076-0.396-1.529-0.044-1.46-1.223-2.635-2.685-2.672 1.999 0.033 3.659 1.463 4.046 3.355-0.164 0.691-0.555 1.294-1.09 1.725 0.081-0.279 0.125-0.574 0.125-0.879"/>
  </clipPath>
  <mask id="c" x="0" y="0" width="1" height="1" maskUnits="userSpaceOnUse">
   <g clip-path="url(#l)">
    <path d="m89.539 482.5h4.046v-5.08h-4.046z"/>
    <g clip-path="url(#k)">
     <g clip-path="url(#j)">
      <path d="m89.539 477.42h4.046v5.08h-4.046z" fill="url(#b)"/>
     </g>
    </g>
   </g>
  </mask>
  <clipPath id="l">
   <path d="m89.539 482.5h4.0456v-5.08h-4.0456z"/>
  </clipPath>
  <clipPath id="k">
   <path d="m89.539 482.5h4.0457v-5.08h-4.0457z"/>
  </clipPath>
  <clipPath id="j">
   <path d="m89.539 477.42h4.0456v5.0796h-4.0456z"/>
  </clipPath>
  <radialGradient id="b" cx="0" cy="0" r="1" gradientTransform="matrix(4.2123 0 0 4.2123 89.489 481.63)" gradientUnits="userSpaceOnUse">
   <stop offset="0"/>
   <stop offset=".8"/>
   <stop stop-color="#b1b3b4" offset="1"/>
  </radialGradient>
  <clipPath id="i">
   <path d="m89.539 482.5h4.0456v-5.08h-4.0456z"/>
  </clipPath>
  <clipPath id="h">
   <path d="m89.539 477.42h4.0456v5.0796h-4.0456z"/>
  </clipPath>
  <radialGradient id="a" cx="0" cy="0" r="1" gradientTransform="matrix(4.2123 0 0 4.2123 89.489 481.63)" gradientUnits="userSpaceOnUse">
   <stop stop-color="#e42224" offset="0"/>
   <stop stop-color="#e42224" offset=".8"/>
   <stop stop-color="#571117" offset="1"/>
  </radialGradient>
  <clipPath id="n">
   <path d="m81.71 477.9 9.8585-5.6918 5.6567 9.7976-9.8585 5.6918z"/>
  </clipPath>
  <linearGradient id="f" x2="1" gradientTransform="matrix(7.2791 -4.2026 4.2026 7.2791 85.781 482.07)" gradientUnits="userSpaceOnUse">
   <stop stop-color="#e42224" offset="0"/>
   <stop stop-color="#c8081d" offset="1"/>
  </linearGradient>
 </defs>
 <g transform="translate(-66.103 -121.92)">
  <g transform="matrix(.35278 0 0 -.35278 -149.2 373.88)" fill="#fff">
   <g clip-path="url(#g)" fill="#fff">
    <g transform="translate(633.24 711.67)" fill="#fff">
     <path d="m0 0v-1.505c0-0.412-0.22-0.598-0.539-0.598-0.279 0-0.505 0.168-0.505 0.528v1.575h-0.87v-1.703c0-0.783 0.499-1.2 1.085-1.2 0.382 0 0.672 0.139 0.829 0.354v-0.424c0-0.326-0.266-0.477-0.592-0.477-0.24 0-0.447 0.082-0.54 0.255l-0.782-0.381c0.234-0.462 0.738-0.744 1.322-0.744 0.807 0 1.462 0.54 1.462 1.347v2.973zm-4.767 0h0.87v-2.973h-0.87zm1.441 1.137h0.87v-4.11h-0.87zm-1.986-2.269v-1.841h-0.87v1.766c0 0.29-0.139 0.475-0.417 0.475-0.29 0-0.453-0.202-0.453-0.545v-1.696h-0.87v1.766c0 0.29-0.139 0.475-0.417 0.475-0.29 0-0.453-0.202-0.453-0.545v-1.696h-0.869v2.973h0.869v-0.279c0.134 0.197 0.389 0.348 0.778 0.348 0.342 0 0.597-0.139 0.759-0.383 0.163 0.232 0.429 0.383 0.841 0.383 0.667 0 1.102-0.476 1.102-1.201m-5.795-0.355c0 0.435-0.29 0.732-0.69 0.732s-0.69-0.297-0.69-0.732 0.29-0.733 0.69-0.733 0.69 0.298 0.69 0.733m0.87 1.487v-2.973h-0.87v0.284c-0.191-0.221-0.475-0.354-0.864-0.354-0.76 0-1.386 0.692-1.386 1.556s0.626 1.556 1.386 1.556c0.389 0 0.673-0.134 0.864-0.354v0.285zm-3.794 0h0.539v-0.835h-0.539v-2.138h-0.87v2.138h-0.389v0.835h0.389c0 0.812 0.446 1.405 1.409 1.347v-0.835c-0.325 0.029-0.539-0.176-0.539-0.512" fill="#fff"/>
    </g>
   </g>
  </g>
  <g transform="matrix(.35278 0 0 -.35278 -149.2 373.88)">
   <path d="m632.24 714.22v-0.532h-0.582v0.532h-0.328v-1.354h0.328v0.532h0.582v-0.532h0.327v1.354z" fill="url(#e)"/>
  </g>
  <g transform="matrix(.35278 0 0 -.35278 -149.2 373.88)">
   <path d="m632.85 714.22v-1.354h0.562c0.403 0 0.694 0.294 0.694 0.676 0 0.384-0.291 0.678-0.694 0.678zm0.327-0.291h0.207c0.229 0 0.382-0.16 0.382-0.387 0-0.224-0.153-0.386-0.382-0.386h-0.207z" fill="url(#d)"/>
  </g>
  <g transform="matrix(.83258 0 0 .83258 11.466 23.041)">
   <g transform="matrix(.35278 0 0 -.35278 35.544 289.52)">
    <g clip-path="url(#n)">
     <path d="m88.201 484.05c-1.701-0.537-2.935-2.128-2.935-4.007 0-2.322 1.881-4.203 4.202-4.203 2.32 0 4.202 1.881 4.202 4.203 0 1.74-1.411 3.151-3.152 3.151-1.508 0-2.731-1.223-2.731-2.731 0-0.987 0.8-1.786 1.786-1.786 0.159 0 0.314 0.021 0.46 0.06 0.023 6e-3 0.039 0.026 0.039 0.051 0 0.027-0.02 0.049-0.047 0.052-0.724 0.063-1.292 0.672-1.292 1.412 0 0.943 0.764 1.708 1.707 1.708 0.986 0 1.786-0.8 1.786-1.786 0-1.523-1.235-2.758-2.758-2.758-1.74 0-3.152 1.411-3.152 3.151 0 1.441 0.774 2.701 1.928 3.388 0.014 0.01 0.024 0.026 0.024 0.045 0 0.029-0.023 0.052-0.052 0.052-5e-3 0-0.011-1e-3 -0.015-2e-3" fill="url(#f)"/>
    </g>
   </g>
   <g transform="matrix(.35278 0 0 -.35278 35.544 289.52)">
    <g clip-path="url(#m)">
     <g mask="url(#c)">
      <g clip-path="url(#i)">
       <g clip-path="url(#h)">
        <path d="m89.539 477.42h4.046v5.08h-4.046z" fill="url(#a)"/>
       </g>
      </g>
     </g>
    </g>
   </g>
  </g>
 </g>
</svg>
