<svg width="800" height="292.15" version="1.1" viewBox="0 0 800 292.15" xml:space="preserve" xmlns="http://www.w3.org/2000/svg"><g transform="matrix(1.3333 0 0 -1.3333 -854.4 1663.2)"><g transform="matrix(22.81 0 0 22.81 -15474 -6719.2)"><g transform="translate(728.31 339.88)"><path d="m0 0c-0.389 0.094-0.787 0.452-0.967 0.949-0.122-0.155-0.258-0.297-0.404-0.426-0.286-0.251-0.738-0.551-1.264-0.551l-0.235 0.021c-0.35 0.064-0.682 0.278-0.936 0.604-0.233 0.3-0.372 0.654-0.467 0.929-0.562 1.623-0.566 3.412-0.011 5.037 0.217 0.636 0.486 1.147 0.822 1.561 0.415 0.511 0.929 0.866 1.487 1.025 0.231 0.066 0.476 0.1 0.727 0.1 0.376 0 0.768-0.077 1.136-0.221 0.533-0.209 1.04-0.561 1.507-1.046 0.795-0.826 1.335-1.905 1.519-3.037s0.014-2.327-0.478-3.363c-0.255-0.536-0.553-0.931-0.91-1.206-0.35-0.27-0.764-0.418-1.165-0.418-0.123 0-0.245 0.014-0.361 0.042m-1.465 7.618c-0.256-0.163-0.43-0.46-0.441-0.758-8e-3 -0.204 0.051-0.427 0.177-0.66 0.119-0.223 0.285-0.432 0.446-0.634 0.158-0.199 0.307-0.395 0.451-0.584 0.078-0.102 0.157-0.206 0.239-0.311 0.276 0.457 0.537 0.93 0.659 1.431 0.092 0.373 0.089 0.697-9e-3 0.963-0.108 0.296-0.346 0.537-0.636 0.644-0.11 0.04-0.228 0.061-0.349 0.061-0.192 0-0.383-0.054-0.537-0.152" fill="#fff"/></g><g transform="translate(724.45 341.58)"><path d="m0 0c0.102-0.295 0.225-0.587 0.417-0.833s0.459-0.444 0.766-0.501c0.455-0.083 0.912 0.155 1.259 0.461 0.275 0.241 0.502 0.533 0.675 0.853-0.034-0.658 0.411-1.203 0.853-1.309 0.444-0.107 0.923 0.043 1.284 0.322 0.362 0.278 0.618 0.673 0.814 1.085 0.458 0.962 0.614 2.065 0.443 3.117s-0.669 2.048-1.408 2.816c-0.391 0.405-0.852 0.751-1.377 0.957-0.524 0.205-1.114 0.265-1.656 0.11-0.524-0.15-0.98-0.493-1.323-0.916-0.344-0.423-0.581-0.924-0.757-1.439-0.518-1.518-0.514-3.208 0.01-4.723m1.848 5.092c0.015 0.366 0.222 0.718 0.532 0.914 0.309 0.197 0.712 0.236 1.056 0.109 0.344-0.126 0.624-0.412 0.75-0.757 0.123-0.337 0.101-0.713 0.016-1.062-0.152-0.621-0.5-1.182-0.835-1.727-0.304 0.382-0.564 0.74-0.868 1.122-0.163 0.206-0.328 0.414-0.453 0.646-0.124 0.232-0.208 0.492-0.198 0.755" fill="#f19000"/></g><g transform="translate(724.83 345.52)"><path d="m0 0c-0.458 0.317-1.041 0.495-1.642 0.5-0.402 4e-3 -0.789-0.071-1.13-0.215 0.147 0.756 0.124 1.561-0.071 2.318-0.055 0.213-0.14 0.487-0.313 0.716-0.194 0.259-0.479 0.42-0.761 0.429-0.266 9e-3 -0.545-0.113-0.765-0.336-0.172-0.174-0.287-0.377-0.409-0.605-0.434-0.812-0.911-1.782-1.16-2.815-0.269-1.115-0.236-2.182 0.096-3.084 0.384-1.043 1.183-1.905 2.193-2.367 0.53-0.242 1.106-0.363 1.674-0.363 0.536 0 1.066 0.108 1.544 0.325 0.503 0.228 0.953 0.582 1.301 1.024 0.355 0.451 0.588 0.974 0.673 1.513 0.18 1.137-0.315 2.326-1.23 2.96" fill="#fff"/></g><g transform="translate(721.65 345.31)"><path d="m0 0c0.263 0.828 0.278 1.755 0.061 2.596-0.055 0.213-0.127 0.426-0.259 0.602s-0.333 0.311-0.553 0.318c-0.21 7e-3 -0.411-0.103-0.559-0.253-0.148-0.149-0.251-0.337-0.351-0.523-0.446-0.835-0.859-1.698-1.081-2.618-0.222-0.921-0.243-1.91 0.084-2.799 0.341-0.928 1.065-1.709 1.965-2.12 0.897-0.41 1.971-0.444 2.869-0.036 0.899 0.407 1.592 1.265 1.746 2.239s-0.263 2.031-1.074 2.592c-0.811 0.562-2.063 0.599-2.848 2e-3" fill="#f19000"/></g><g transform="translate(714.71 339.84)"><path d="m0 0c-0.402 0-0.815 0.148-1.165 0.418-0.357 0.275-0.655 0.67-0.91 1.207-0.493 1.036-0.663 2.23-0.478 3.362 0.184 1.132 0.723 2.211 1.519 3.038 0.466 0.484 0.973 0.836 1.507 1.045 0.367 0.145 0.76 0.221 1.135 0.221 0.252 0 0.497-0.034 0.728-0.1 0.557-0.159 1.071-0.514 1.486-1.024 0.337-0.415 0.606-0.926 0.823-1.562 0.555-1.625 0.551-3.414-0.011-5.037-0.095-0.275-0.234-0.629-0.468-0.929-0.253-0.325-0.586-0.54-0.935-0.604l-0.235-0.021c-0.527 0-0.978 0.3-1.264 0.552-0.147 0.128-0.282 0.271-0.405 0.425-0.179-0.496-0.577-0.855-0.966-0.949-0.117-0.028-0.238-0.042-0.361-0.042m1.289 7.812c-0.122 0-0.239-0.021-0.35-0.061-0.29-0.107-0.528-0.347-0.636-0.644-0.097-0.266-0.1-0.59-9e-3 -0.963 0.123-0.501 0.383-0.974 0.66-1.431 0.081 0.105 0.161 0.209 0.239 0.312 0.144 0.189 0.293 0.384 0.451 0.583 0.16 0.202 0.326 0.411 0.446 0.634 0.125 0.233 0.185 0.456 0.177 0.66-0.012 0.298-0.185 0.595-0.441 0.758-0.154 0.098-0.345 0.152-0.537 0.152" fill="#fff"/></g><g transform="translate(719.11 346.3)"><path d="m0 0c-0.176 0.516-0.413 1.017-0.757 1.44-0.343 0.423-0.8 0.765-1.324 0.915-0.541 0.155-1.131 0.096-1.656-0.11-0.524-0.205-0.986-0.551-1.376-0.957-0.739-0.768-1.237-1.764-1.409-2.816-0.171-1.052-0.014-2.155 0.444-3.117 0.196-0.412 0.452-0.806 0.814-1.085 0.361-0.278 0.84-0.429 1.283-0.322s0.887 0.652 0.854 1.309c0.173-0.32 0.399-0.611 0.674-0.853 0.348-0.306 0.804-0.543 1.259-0.46 0.307 0.056 0.575 0.254 0.767 0.5 0.191 0.246 0.315 0.539 0.417 0.833 0.524 1.516 0.528 3.206 0.01 4.723m-2.057-0.386c-0.124-0.232-0.289-0.439-0.453-0.646-0.303-0.382-0.564-0.739-0.867-1.121-0.335 0.544-0.683 1.105-0.835 1.727-0.085 0.349-0.107 0.724 0.016 1.062 0.126 0.344 0.406 0.631 0.75 0.757s0.746 0.087 1.056-0.109c0.309-0.197 0.517-0.548 0.531-0.915 0.011-0.263-0.073-0.523-0.198-0.755" fill="#f19000"/></g><g transform="translate(712.93 345.52)"><path d="m0 0c-0.458 0.317-1.041 0.495-1.642 0.5-0.402 4e-3 -0.789-0.071-1.13-0.215 0.147 0.756 0.124 1.561-0.071 2.318-0.055 0.213-0.14 0.487-0.313 0.716-0.194 0.259-0.479 0.42-0.761 0.429-0.266 9e-3 -0.545-0.113-0.765-0.336-0.172-0.174-0.287-0.377-0.409-0.605-0.434-0.812-0.911-1.782-1.16-2.815-0.269-1.115-0.236-2.182 0.096-3.084 0.384-1.043 1.183-1.905 2.193-2.367 0.53-0.242 1.106-0.363 1.674-0.363 0.536 0 1.066 0.108 1.544 0.325 0.503 0.228 0.953 0.582 1.301 1.024 0.355 0.451 0.588 0.974 0.673 1.513 0.18 1.137-0.315 2.326-1.23 2.96" fill="#fff"/></g><g transform="translate(709.83 345.31)"><path d="m0 0c0.263 0.828 0.278 1.755 0.061 2.596-0.055 0.213-0.127 0.426-0.259 0.602s-0.333 0.311-0.553 0.318c-0.21 7e-3 -0.411-0.103-0.559-0.253-0.148-0.149-0.251-0.337-0.351-0.523-0.446-0.835-0.859-1.698-1.081-2.618-0.222-0.921-0.243-1.91 0.084-2.799 0.341-0.928 1.065-1.709 1.965-2.12 0.897-0.41 1.971-0.444 2.869-0.036 0.899 0.407 1.592 1.265 1.746 2.239s-0.263 2.031-1.074 2.592c-0.811 0.562-2.063 0.599-2.848 2e-3" fill="#f19000"/></g><g transform="translate(731.2 341.13)"><path d="m0 0c0.122 0.385 0.337 0.846 0.554 1.203 0.096 0.156 0.229 0.326 0.443 0.352 0.176 0.022 0.352-0.07 0.443-0.193 0.091-0.124 0.112-0.273 0.112-0.417 0-0.664-0.395-1.286-0.841-1.845-0.092-0.115-0.188-0.23-0.313-0.323s-0.284-0.163-0.454-0.171c-0.204-9e-3 -0.402 0.073-0.545 0.191s-0.236 0.268-0.313 0.421c-0.318 0.631-0.378 1.343-0.169 2.002l0.122 0.243c0.063 0.071 0.162 0.128 0.271 0.13 0.12 2e-3 0.23-0.063 0.296-0.144 0.065-0.082 0.094-0.178 0.12-0.273 0.105-0.381 0.226-0.787 0.274-1.176" fill="#ffd500"/></g><g transform="translate(731.25 341.12)"><path d="m0 0c0.103 0.313 0.235 0.616 0.389 0.908 0.156 0.294 0.39 0.761 0.799 0.573 0.369-0.17 0.296-0.682 0.209-1.002-0.087-0.317-0.246-0.61-0.427-0.882-0.187-0.281-0.403-0.624-0.693-0.808-0.374-0.237-0.815-0.106-1.064 0.24-0.381 0.53-0.492 1.275-0.369 1.906 0.043 0.219 0.1 0.532 0.344 0.601 0.278 0.078 0.4-0.173 0.463-0.398 0.104-0.376 0.211-0.751 0.263-1.138l0.086 0.024c-0.034 0.253-0.091 0.501-0.157 0.748-0.054 0.207-0.09 0.445-0.192 0.634-0.141 0.26-0.479 0.326-0.687 0.1-0.243-0.264-0.266-0.802-0.256-1.14 0.012-0.422 0.124-0.845 0.326-1.216 0.171-0.314 0.456-0.576 0.833-0.577 0.423-1e-3 0.698 0.33 0.934 0.637 0.274 0.357 0.528 0.744 0.662 1.177 0.094 0.303 0.176 0.744-0.035 1.018-0.231 0.301-0.636 0.247-0.858-0.028-0.305-0.378-0.506-0.895-0.656-1.353z" fill="#fff"/></g><g transform="translate(728.91 342.79)"><path d="m0 0c-0.09-0.6-0.089-1.18-0.086-1.786 2e-3 -0.293 0.017-0.597 0.152-0.856 0.112-0.215 0.312-0.39 0.55-0.435 0.237-0.046 0.506 0.059 0.621 0.271 0.125 0.23 0.055 0.514-0.019 0.765-0.175 0.604-0.646 2.113-0.556 2.113 0.257 0 0.535-0.043 0.914 0.058 0.253 0.067 0.351 0.329 0.297 0.543-0.077 0.308-0.316 0.369-0.623 0.401-0.189 0.019-1.116 6e-3 -1.8-0.085-0.22-0.029-0.449-0.061-0.636-0.181-0.187-0.121-0.32-0.355-0.25-0.567 0.079-0.242 0.37-0.34 0.624-0.355 0.273-0.017 0.554 0.022 0.812 0.114" fill="#ffd500"/></g><g transform="translate(728.87 342.8)"><path d="m0 0c-0.099-0.69-0.139-1.433-0.074-2.129 0.043-0.458 0.294-0.996 0.823-1.014 0.204-7e-3 0.418 0.082 0.538 0.252 0.162 0.231 0.106 0.528 0.037 0.781-0.114 0.42-0.249 0.835-0.369 1.254-0.059 0.204-0.117 0.409-0.166 0.615l-0.042 0.195c-0.011 0.103-7e-3 0.067 0.098 0.059 0.396-0.033 1.091-0.038 1.129 0.495 0.03 0.433-0.365 0.579-0.724 0.602-0.505 0.033-1.03-0.01-1.532-0.062-0.303-0.031-0.652-0.049-0.908-0.232-0.183-0.13-0.32-0.371-0.246-0.598 0.18-0.56 1.09-0.407 1.491-0.273l-0.024 0.086c-0.257-0.086-0.528-0.133-0.8-0.112-0.282 0.021-0.68 0.173-0.584 0.532 0.148 0.551 1.059 0.515 1.508 0.544 0.361 0.023 0.733 0.049 1.095 0.026 0.171-0.011 0.392-0.036 0.518-0.168 0.253-0.267 0.08-0.63-0.241-0.712-0.232-0.059-0.473-0.044-0.71-0.038l-0.165-0.049 0.016-0.162c0.025-0.133 0.061-0.265 0.096-0.396 0.092-0.343 0.194-0.683 0.295-1.024 0.108-0.36 0.376-0.914 0.183-1.267-0.179-0.326-0.618-0.314-0.877-0.103-0.265 0.215-0.34 0.553-0.358 0.879-0.036 0.659-0.015 1.342 0.079 1.995z" fill="#fff"/></g></g></g></svg>
