<svg width="600pt" height="238.11pt" version="1.1" viewBox="0 0 600 238.11" xmlns="http://www.w3.org/2000/svg">
 <defs>
  <clipPath id="e">
   <path d="m0 0h595.28v841.89h-595.28z"/>
  </clipPath>
  <linearGradient id="c" x2="1" gradientTransform="matrix(0,-3.0262,-3.0262,0,292.33,806.02)" gradientUnits="userSpaceOnUse">
   <stop stop-color="#fff" offset="0"/>
   <stop stop-color="#fff" offset=".26471"/>
   <stop stop-color="#e2011a" offset=".68628"/>
   <stop stop-color="#e2011a" offset="1"/>
  </linearGradient>
  <linearGradient id="b" x2="1" gradientTransform="matrix(0,-3.0262,-3.0262,0,300.77,806.02)" gradientUnits="userSpaceOnUse">
   <stop stop-color="#fff" offset="0"/>
   <stop stop-color="#fff" offset=".26471"/>
   <stop stop-color="#e2011a" offset=".68628"/>
   <stop stop-color="#e2011a" offset="1"/>
  </linearGradient>
  <linearGradient id="a" x2="1" gradientTransform="matrix(0,-3.1773,-3.1773,0,309.74,806.11)" gradientUnits="userSpaceOnUse">
   <stop stop-color="#fff" offset="0"/>
   <stop stop-color="#fff" offset=".26471"/>
   <stop stop-color="#e2011a" offset=".68628"/>
   <stop stop-color="#e2011a" offset="1"/>
  </linearGradient>
  <clipPath id="d">
   <path d="m0 0h595.28v841.89h-595.28z"/>
  </clipPath>
 </defs>
 <g transform="matrix(16.643 0 0 -16.643 -4745 13480)">
  <g clip-path="url(#e)">
   <g transform="translate(291.11,800.47)">
    <path d="m0 0h-6.011v1.393l0.25 0.025c0.329 0.032 0.514 0.081 0.564 0.15 0.06 0.084 0.06 0.338 0.06 0.607v3.384c0 0.293 0 0.524-0.056 0.602-0.073 0.101-0.448 0.142-0.571 0.155l-0.247 0.026v1.391h4.264v-1.4l-0.257-0.018c-0.452-0.032-0.61-0.098-0.663-0.147-0.061-0.059-0.054-0.382-0.051-0.488l2e-3 -0.121v-3.511l-1e-3 -0.156c-2e-3 -0.131-4e-3 -0.293 0.017-0.332l-6e-3 7e-3c6e-3 -4e-3 0.066-0.042 0.355-0.042 1.377 0 2.19 1.239 2.475 1.772l0.13 0.241 0.243-0.127 0.728-0.379 0.229-0.12-0.104-0.237-1.096-2.509-0.072-0.166z" fill="#010305"/>
   </g>
   <g transform="translate(298.09,802.7)">
    <path d="m0 0h-1.071l-0.027 0.248c-0.035 0.325-0.114 0.588-0.229 0.761-0.088 0.132-0.553 0.091-0.553 0.091v-0.863c-4e-3 -0.626 0.014-0.824 0.029-0.88v2e-3l-3e-3 0.011-2e-3 2e-3c0.019-0.024 0.107-0.082 0.52-0.082 1.416 0 2.169 0.672 2.925 1.757l0.135 0.195 0.214-0.104 0.737-0.359 0.245-0.118-0.115-0.248-1.159-2.487-0.075-0.161h-6.715v1.375l0.229 0.04 0.179 0.032c0.423 0.076 0.435 0.096 0.435 0.728v3.384l1e-3 0.159c7e-3 0.465 7e-3 0.493-0.371 0.558l-0.243 0.042-0.23 0.04v1.375h6.534l0.076-0.158 1.043-2.181 0.119-0.249-0.248-0.121-0.717-0.347-0.216-0.106-0.135 0.2c-0.652 0.967-1.446 1.438-2.426 1.438-0.494 0-0.696-0.069-0.731-0.096l0.013 0.015 1e-3 2e-3c-0.059-0.095-0.053-0.495-0.051-0.627l2e-3 -0.113 1e-3 -0.482h0.027l0.109-1e-3c0.254-4e-3 0.44 1e-3 0.517 0.107l-6e-3 -8e-3 0.042 0.063c0.091 0.133 0.091 0.133 0.091 0.295v0.277h1.376v-3.406z" fill="#010305"/>
   </g>
   <g transform="translate(306.99,802.76)">
    <path d="m0 0c0.264 0.539 0.32 1.205 0.32 1.67 0 0.851-0.233 1.593-0.623 1.982-0.231 0.231-0.512 0.344-0.86 0.344-1.585 0-1.631-2.221-1.631-2.474 0-0.869 0.236-1.623 0.631-2.018 0.242-0.243 0.542-0.361 0.915-0.361 0.665 0 1.047 0.469 1.248 0.857m-4.153-1.414c-0.816 0.74-1.23 1.717-1.23 2.904 0 1.146 0.412 2.189 1.161 2.938 0.765 0.765 1.836 1.187 3.016 1.187 1.189 0 2.266-0.422 3.033-1.189 0.708-0.708 1.082-1.639 1.082-2.693 0-2.439-1.788-4.209-4.251-4.209-1.112 0-2.031 0.347-2.811 1.062" fill="#010305"/>
   </g>
  </g>
  <path d="m285.38 807.92v-0.865c0.874-0.095 0.874-0.274 0.874-1.032v-3.384c0-0.759-0.01-0.949-0.874-1.033v-0.865h5.734l1.096 2.51-0.727 0.379c-0.548-1.023-1.497-1.918-2.719-1.918-0.718 0-0.643 0.199-0.643 0.801v3.51c0 0.232-0.042 0.642 0.137 0.811 0.168 0.159 0.537 0.201 0.832 0.221v0.865z" fill="url(#c)"/>
  <path d="m293.23 807.92v-0.865l0.242-0.042c0.675-0.116 0.601-0.411 0.601-0.99v-3.384c0-0.654-0.021-0.885-0.664-1.002l-0.179-0.031v-0.865h6.261l1.16 2.488-0.738 0.358c-0.823-1.181-1.666-1.875-3.152-1.875-0.222 0-0.685 0-0.78 0.263-0.054 0.169-0.043 0.864-0.043 1.043v1.107h0.169c0.306 0 0.703 0.021 0.893-0.263 0.169-0.253 0.243-0.591 0.275-0.886h0.822v2.852h-0.822c0-0.274-0.032-0.291-0.18-0.512-0.19-0.264-0.566-0.22-0.851-0.22h-0.306v0.758c0 0.221-0.03 0.727 0.107 0.907 0.136 0.179 0.737 0.189 0.937 0.189 1.181 0 2.024-0.622 2.656-1.56l0.717 0.348-1.043 2.182z" fill="url(#b)"/>
  <path d="m301.88 804.25c0-1.064 0.348-1.981 1.138-2.698 0.76-0.696 1.613-0.991 2.625-0.991 2.266 0 3.973 1.624 3.973 3.932 0 2.193-1.75 3.605-3.837 3.605-2.224 0-3.899-1.571-3.899-3.848m2.035 0.033c0 1.211 0.473 2.751 1.907 2.751 1.36 0 1.76-1.498 1.76-2.605 0-0.59-0.084-1.254-0.347-1.791-0.306-0.591-0.801-1.012-1.498-1.012-1.412 0-1.822 1.497-1.822 2.657" fill="url(#a)"/>
  <g clip-path="url(#d)">
   <g transform="translate(310.59,809.91)">
    <path d="m0 0c0.105-0.015 0.299-0.09 0.328-0.09l0.254 0.03c0.493 0 0.821-0.328 0.821-0.776 0-0.045-0.015-0.209-0.029-0.343 0.567 0.642 0.761 1.015 1.328 1.015 0.448 0 0.791-0.314 0.791-0.762 0-0.582-0.641-1.03-1.104-1.687-0.15-0.194-0.329-0.403-0.478-0.612-0.299-0.388-0.582-0.836-0.881-1.224-0.358-0.463-0.507-1.149-1.12-1.418l-0.238-0.06c-0.482-0.011-0.792 0.299-0.836 0.358-0.075 0.09-0.113 0.182-0.165 0.284-0.06 0.119-0.104 0.478-0.104 0.627 0 0.896 0.418 2.18 0.687 2.971l-0.135 0.015c-0.045 0-0.403 0.075-0.537-0.045-0.239-0.179-0.373-0.493-0.538-0.731-0.433-0.642-0.806-1.299-1.134-1.926-0.374-0.717-0.314-1.418-1.105-1.418-0.314 0-0.687 0.209-0.836 0.582l-0.045 0.179v0.298c0.224 0.866 0.791 1.762 1.359 2.628-0.612-0.03-0.941 0.358-0.941 0.821 0 0.299 0.12 0.612 0.538 0.776 0.238 0.105 0.507 0.135 0.761 0.194 0.717 0.165 1.478 0.254 2.224 0.314l0.627 0.015c0.045 0 0.344 0.015 0.508-0.015" fill="#010305"/>
   </g>
   <g transform="translate(310.59,809.73)">
    <path d="m0 0c0.12-0.015 0.299-0.105 0.343-0.105l0.284 0.045c0.329 0 0.612-0.209 0.612-0.552 0-0.239-0.209-0.627-0.298-0.836-0.135-0.284-0.254-0.612-0.374-0.926l0.015-0.045c0.478 0.702 0.971 1.449 1.702 2.105 0.149 0.15 0.299 0.165 0.463 0.165 0.313 0 0.567-0.239 0.567-0.553 0-0.134-0.015-0.239-0.119-0.388-0.314-0.433-0.702-0.866-1.045-1.314-0.493-0.597-0.956-1.284-1.389-1.911-0.283-0.403-0.436-0.961-0.955-1.164-0.22-0.086-0.567 0.075-0.582 0.09-0.344 0.238-0.418 0.671-0.418 0.955 0 0.926 0.507 2.419 0.806 3.21h-0.134c-0.314-0.03-0.642-0.045-0.971-0.06-0.866-1.149-1.627-2.314-2.045-3.493l-0.105-0.284c-0.089-0.209-0.358-0.314-0.507-0.314l-0.135 0.016c-0.217 0.066-0.537 0.358-0.537 0.522v0.343c0.299 0.941 0.955 1.956 1.582 2.882l-0.044 0.015-0.508-0.09c-0.328 0-0.627 0.239-0.627 0.597 0 0.194 0.06 0.433 0.343 0.567 0.284 0.15 0.657 0.195 0.956 0.254 0.612 0.12 1.314 0.239 1.941 0.269z" fill="#e1001e"/>
   </g>
   <g transform="translate(310.44,809.45)">
    <path d="m0 0c0.164 0 0.358-0.075 0.388-0.269 0.105 0.209 0.239 0.194 0.344 0.194 0.149 0 0.298-0.029 0.298-0.238l-0.075-0.269c-0.388-0.836-0.746-1.717-0.94-2.583-0.045-0.179-0.075-0.403-0.105-0.597l0.015-0.075c0.792 1.195 1.508 2.404 2.673 3.583l0.253 0.09c0.135 0 0.269-0.09 0.269-0.224 0-0.224-0.284-0.478-0.463-0.717-0.164-0.209-0.343-0.403-0.507-0.627-0.15-0.164-0.299-0.373-0.433-0.552-0.299-0.358-0.567-0.732-0.821-1.12-0.179-0.239-0.329-0.507-0.493-0.761-0.149-0.224-0.328-0.717-0.657-0.717-0.433 0-0.507 0.478-0.507 0.732 0 0.045 0.029 0.433 0.059 0.642 0.165 0.925 0.463 1.926 0.881 2.836l0.045 0.15c-0.328-0.075-0.627-0.06-0.941-0.105l-0.91-0.045-0.015-0.074c-0.209-0.374-0.553-0.807-0.806-1.195-0.463-0.701-0.866-1.433-1.18-2.15-0.104-0.223-0.104-0.656-0.403-0.656-0.284 0-0.358 0.238-0.358 0.403 0 0.209 0.074 0.373 0.179 0.597 0.418 0.955 1.12 1.911 1.732 2.866l0.03 0.075-1.225-0.254c-0.194-0.015-0.313 0.12-0.313 0.284 0 0.074 0.03 0.239 0.179 0.283 0.985 0.314 1.986 0.448 3.001 0.493z" fill="#fae921"/>
   </g>
  </g>
 </g>
 <g fill="#fff">
  <path transform="scale(.75)" d="m691.48 134.26v74.24h67.816c18.139 0 40.688-9.5203 40.688-37.061 0-29.966-21.236-37.064-40.688-37.064l-67.816-0.11524zm31.322 22.045h30.848c5.1544 0 10.77 3.7719 10.77 15.078 0 11.714-5.6936 15.07-10.77 15.07h-30.848v-30.148z" stroke-width="4.3762"/>
  <path d="m442.15 100.69v55.68h23.491v-20.761h21.074l-9.3e-4 20.761h23.492v-55.68h-23.491v20.987h-21.074l1.9e-4 -20.987z" stroke-width="3.2821"/>
  <path d="m416.8 140.62-8.6879 40.122-40.127 8.6926 40.127 8.5436 8.6879 40.127 8.5436-40.132 40.127-8.539-40.132-8.6879z" stroke-width="3.2821"/>
 </g>
</svg>
