<svg width="800" height="1325.3" space="preserve" version="1.1" viewBox="0 0 800 1325.3" xmlns="http://www.w3.org/2000/svg">
 <g transform="matrix(.96583 0 0 .96583 1.2073e-6 -.1456)" fill="#fff">
  <path class="st0" d="m229 1138.1-0.8 0.1v234.1h43.3v-169.3l55.9 162.3 2.4 7h38.4l2.4-7 57.4-166.6v173.6h43.3v-234.2h-65.7l-8.5 24.8-48.1 139.6-48.1-139.6-8.5-24.8z"/>
  <polygon class="st0" points="556.1 1184 519.1 1184 519.1 1138.1 599.4 1138.1 599.4 1372.3 556.1 1372.3"/>
 </g>
 <path class="st0" d="m428.41 123.58v-123.58h-56.818v123.58c-207.39 14.489-371.59 188.07-371.59 398.86 0 211.08 164.2 384.38 371.59 398.86v123.58h56.818v-123.58c207.39-14.489 371.59-187.78 371.59-399.15 0-210.8-164.2-384.09-371.59-398.58zm-371.59 398.86c0-180.11 138.07-327.56 314.77-342.05v684.09c-176.7-14.489-314.77-161.65-314.77-342.05zm371.59 342.05v-684.09c176.7 14.205 314.77 161.65 314.77 342.05s-138.35 327.84-314.77 342.05z" fill="#fff" stroke-width="2.8409"/>
</svg>
