<svg width="800" height="799.98" version="1.1" viewBox="0 0 800 799.98" xml:space="preserve" xmlns="http://www.w3.org/2000/svg"><defs><clipPath id="clipPath1850"><path d="m403.25 717.14h23.897v10.865h-23.897z"/></clipPath><clipPath id="clipPath1858"><path d="m403.8 712.3c-0.304 0-0.551-0.247-0.551-0.552v-8.925c0-0.304 0.247-0.551 0.551-0.551h20.311c0.304 0 0.551 0.247 0.551 0.551v8.925c0 0.305-0.247 0.552-0.551 0.552z"/></clipPath><linearGradient id="linearGradient1880" x2="1" gradientTransform="matrix(-48.072,0,0,48.072,438.68,702.07)" gradientUnits="userSpaceOnUse"><stop stop-color="#db3c27" offset="0"/><stop stop-color="#db3c27" offset=".013636"/><stop stop-color="#d81f27" offset=".48986"/><stop stop-color="#6b0c0f" offset="1"/></linearGradient><clipPath id="clipPath1914"><path d="m403.25 717.14h23.897v10.865h-23.897z"/></clipPath><clipPath id="clipPath1934"><path d="m403.25 717.14h23.897v10.865h-23.897z"/></clipPath><clipPath id="clipPath1942"><path d="m418.64 708.58c-0.201-0.118-0.279-0.287-0.342-0.436-0.164-0.388 0.062-0.876 0.186-0.966-0.112 0.012-1.242 0.183-1.768-0.89-0.357-0.727 0.036-1.567 0.184-1.763 0.498-0.658 1.183-0.706 1.659-0.706 1.121 0 1.332 0.597 2.429 0.851 1.521 0.351 1.915-0.667 1.915-0.667s-0.033 1.166-1.816 1.136c-0.61-0.011-1.161-0.313-1.678-0.35-0.627-0.044-1.163 0.225-1.151 0.886 0.019 1.061 1.259 0.789 1.386 0.931 0.124 0.139-0.422 0.401-0.425 0.789-1e-3 0.12 0.034 0.265 0.168 0.413 0.28 0.311 1.06 0.22 1.173-0.329 0.198 0.586-0.581 1.253-1.342 1.253-0.2 0-0.399-0.046-0.578-0.152"/></clipPath><linearGradient id="linearGradient1964" x2="1" gradientTransform="matrix(12.12 -.1904 -.1904 -12.12 410.92 705.15)" gradientUnits="userSpaceOnUse"><stop stop-color="#db3c27" offset="0"/><stop stop-color="#db3c27" offset=".013636"/><stop stop-color="#93171e" offset=".48986"/><stop stop-color="#3a0000" offset="1"/></linearGradient><clipPath id="clipPath2106"><path d="m403.25 717.14h23.897v10.865h-23.897z"/></clipPath><clipPath id="clipPath2114"><path d="m448.2 708.58c-0.201-0.118-0.278-0.287-0.341-0.436-0.164-0.388 0.062-0.876 0.185-0.966-0.112 0.012-1.242 0.183-1.768-0.89-0.357-0.727 0.036-1.567 0.185-1.763 0.497-0.658 1.183-0.706 1.659-0.706 1.121 0 1.331 0.597 2.429 0.851 1.52 0.351 1.915-0.667 1.915-0.667s-0.034 1.166-1.817 1.136c-0.61-0.011-1.161-0.313-1.678-0.35-0.627-0.044-1.163 0.225-1.151 0.886 0.02 1.061 1.26 0.789 1.386 0.931 0.124 0.139-0.422 0.401-0.425 0.789-1e-3 0.12 0.035 0.265 0.168 0.413 0.28 0.311 1.06 0.22 1.173-0.329 0.199 0.586-0.581 1.253-1.342 1.253-0.2 0-0.399-0.046-0.578-0.152"/></clipPath><linearGradient id="linearGradient2136" x2="1" gradientTransform="matrix(12.12 -.1904 -.1904 -12.12 440.47 705.15)" gradientUnits="userSpaceOnUse"><stop stop-color="#db3c27" offset="0"/><stop stop-color="#db3c27" offset=".013636"/><stop stop-color="#93171e" offset=".48986"/><stop stop-color="#3a0000" offset="1"/></linearGradient><clipPath id="clipPath2146"><path d="m403.25 717.14h23.897v10.865h-23.897z"/></clipPath><clipPath id="clipPath2154"><path d="m449.35 708.56h3.513v-3.295h-3.513z"/></clipPath><clipPath id="clipPath2158"><path d="m449.35 705.26h3.513v3.295h-3.513z"/></clipPath><clipPath id="clipPath2178"><path d="m436.08 711.75h1.992v-1.561h-1.992z"/></clipPath><clipPath id="clipPath2182"><path d="m436.08 710.19h1.992v1.562h-1.992z"/></clipPath><clipPath id="clipPath2202"><path d="m434.17 725.24h12.951v-6.747h-12.951z"/></clipPath><clipPath id="clipPath2206"><path d="m434.17 718.49h12.951v6.747h-12.951z"/></clipPath><clipPath id="clipPath2226"><path d="m436.63 720.42h7.14v-1.924h-7.14z"/></clipPath><clipPath id="clipPath2230"><path d="m436.63 718.5h7.14v1.924h-7.14z"/></clipPath><clipPath id="clipPath2250"><path d="m403.25 717.14h23.897v10.865h-23.897z"/></clipPath><clipPath id="clipPath2258"><path d="m448.2 723.63c-0.201-0.119-0.278-0.287-0.341-0.436-0.164-0.388 0.062-0.876 0.185-0.966-0.112 0.012-1.242 0.183-1.768-0.89-0.357-0.727 0.036-1.567 0.185-1.763 0.497-0.658 1.183-0.706 1.659-0.706 1.121 0 1.331 0.597 2.429 0.85 1.52 0.352 1.915-0.666 1.915-0.666s-0.034 1.165-1.817 1.135c-0.61-0.01-1.161-0.312-1.678-0.349-0.627-0.044-1.163 0.225-1.151 0.886 0.02 1.061 1.26 0.789 1.386 0.931 0.124 0.139-0.422 0.401-0.425 0.789-1e-3 0.12 0.035 0.265 0.168 0.413 0.28 0.311 1.06 0.22 1.173-0.329 0.199 0.585-0.581 1.253-1.342 1.253-0.2 0-0.399-0.046-0.578-0.152"/></clipPath><linearGradient id="linearGradient2280" x2="1" gradientTransform="matrix(12.12 -.1904 -.1904 -12.12 440.47 720.19)" gradientUnits="userSpaceOnUse"><stop stop-color="#db3c27" offset="0"/><stop stop-color="#db3c27" offset=".013636"/><stop stop-color="#d81f27" offset=".48986"/><stop stop-color="#6b0c0f" offset="1"/></linearGradient><clipPath id="clipPath2290"><path d="m403.25 717.14h23.897v10.865h-23.897z"/></clipPath><clipPath id="clipPath2298"><path d="m449.35 723.6h3.513v-3.295h-3.513z"/></clipPath><clipPath id="clipPath2302"><path d="m449.35 720.31h3.513v3.295h-3.513z"/></clipPath><clipPath id="clipPath2322"><path d="m436.08 726.79h1.992v-1.562h-1.992z"/></clipPath><clipPath id="clipPath2326"><path d="m436.08 725.23h1.992v1.562h-1.992z"/></clipPath><clipPath id="clipPath2346"><path d="m462.8 712.41h21.633v-10.248h-21.633z"/></clipPath><clipPath id="clipPath2350"><path d="m462.8 702.16h21.634v10.248h-21.634z"/></clipPath><clipPath id="clipPath2370"><path d="m403.25 717.14h23.897v10.865h-23.897z"/></clipPath><clipPath id="clipPath2378"><path d="m478.3 708.5c-0.2-0.118-0.278-0.286-0.341-0.436-0.164-0.387 0.062-0.876 0.186-0.966-0.112 0.012-1.242 0.183-1.768-0.89-0.357-0.727 0.036-1.567 0.184-1.763 0.498-0.658 1.183-0.706 1.659-0.706 1.121 1e-3 1.332 0.597 2.429 0.851 1.521 0.351 1.915-0.667 1.915-0.667s-0.033 1.166-1.816 1.136c-0.611-0.011-1.161-0.313-1.678-0.35-0.627-0.044-1.163 0.225-1.151 0.886 0.019 1.061 1.259 0.789 1.386 0.931 0.124 0.139-0.422 0.401-0.425 0.789-1e-3 0.12 0.034 0.265 0.167 0.413 0.281 0.311 1.061 0.22 1.174-0.329 0.198 0.586-0.581 1.253-1.342 1.253-0.2 0-0.399-0.046-0.579-0.152"/></clipPath><linearGradient id="linearGradient2400" x2="1" gradientTransform="matrix(12.12 -.1904 -.1904 -12.12 470.58 705.07)" gradientUnits="userSpaceOnUse"><stop stop-color="#db3c27" offset="0"/><stop stop-color="#db3c27" offset=".013636"/><stop stop-color="#93171e" offset=".48986"/><stop stop-color="#3a0000" offset="1"/></linearGradient><clipPath id="clipPath2410"><path d="m403.25 717.14h23.897v10.865h-23.897z"/></clipPath><clipPath id="clipPath2418"><path d="m462.8 727.45h21.633v-10.249h-21.633z"/></clipPath><clipPath id="clipPath2422"><path d="m462.8 717.2h21.634v10.248h-21.634z"/></clipPath><clipPath id="clipPath2442"><path d="m403.25 717.14h23.897v10.865h-23.897z"/></clipPath><clipPath id="clipPath2450"><path d="m478.3 723.55c-0.2-0.119-0.278-0.287-0.341-0.436-0.164-0.388 0.062-0.876 0.186-0.966-0.112 0.012-1.242 0.183-1.768-0.89-0.357-0.727 0.036-1.567 0.184-1.763 0.498-0.658 1.183-0.706 1.659-0.706 1.121 0 1.332 0.597 2.429 0.851 1.521 0.351 1.915-0.667 1.915-0.667s-0.033 1.166-1.816 1.135c-0.611-0.01-1.161-0.312-1.678-0.349-0.627-0.044-1.163 0.225-1.151 0.886 0.019 1.061 1.259 0.789 1.386 0.931 0.124 0.139-0.422 0.401-0.425 0.789-1e-3 0.12 0.034 0.265 0.167 0.413 0.281 0.311 1.061 0.22 1.174-0.329 0.198 0.585-0.581 1.253-1.342 1.253-0.2 0-0.399-0.046-0.579-0.152"/></clipPath><linearGradient id="linearGradient2472" x2="1" gradientTransform="matrix(12.12 -.1904 -.1904 -12.12 470.58 720.11)" gradientUnits="userSpaceOnUse"><stop stop-color="#db3c27" offset="0"/><stop stop-color="#db3c27" offset=".013636"/><stop stop-color="#d81f27" offset=".48986"/><stop stop-color="#6b0c0f" offset="1"/></linearGradient></defs><g transform="matrix(2.2127 0 0 -2.2127 -2104.5 2561.7)"><path d="m1113.5 1009.8c-2.8105-0.7891-9.0509-3.9791-12.261-6.613-1.3769-1.0805-1.4136-3.1267-1.4519-3.3098-0.029-0.18482-0.3263-0.25807-0.3529 0-0.093 1.4401-0.5245 2.1577-0.8042 2.4773-3.1984 3.0052-10.135 7.5654-14.271 8.7142-4.7568 1.3153-6.7615 1.525-1.0206-3.1317 4.9317-3.9941 10.323-8.6725 12.94-10.687 0.6677-0.51446 1.4469-1.3519 2.9337-1.3519 1.4851 0 2.3426 0.69426 3.0901 1.1788 2.7839 1.8098 8.6563 5.9204 12.054 9.5566 4.0093 4.2921 2.7622 4.1822-0.8574 3.1666" fill="#f3eaaf"/><path d="m1060 995.08c-12.607-0.63267-22.432-23.229-22.432-23.229-1.9679 17.052-8.0867 21.191-13.859 20.623 0 0-0.012 0-0.02-5e-3 -0.1748-0.0167-0.3479-0.0367-0.5227-0.0616-9.7718-1.2703-14.933-9.5399-23.263-24.293 0 0-0.87412 3.4714-1.9047 9.47-0.67766 3.9575-4.4405 4.2289-7.0396 2.9402-3.7529-1.4668-3.2467-4.1506-1.943-13.727 0.25308-2.0362 0.5844-4.5885 0.99565-7.8401 1.3303-10.419 9.1757-8.839 12.066-4.4203 2.887 4.4203 7.0078 18.664 13.207 26.202 13.245 16.096 9.3357-20.835 10.668-35.984 0.6927-7.9283 3.703-9.6532 6.4852-8.6725 3.0635 1.1704 4.5471 5.3427 5.4828 10.61 1.2121 8.2796 3.5314 14.999 8.9409 27.876 1.6 3.2832 3.3899 6.4249 5.3945 8.859 13.243 16.101 9.3356-20.83 10.661-35.982 1.3319-15.156 11.122-7.642 11.582-1.8947 3.3781 42.86-6.1105 50.88-14.492 49.528" fill="#ea966a"/><path d="m1116.6 994.19c-9.4987-0.84744-16.129-11.478-22.136-22.861 0 0-0.8175 3.2616-1.7848 8.8956-0.5844 3.3831-3.5614 3.8992-5.9357 3.0518-4.3306-1.4318-3.8361-2.6405-2.7156-11.485 0.258-2.1378 0.6327-5.033 1.1471-9.0671 1.2471-9.7863 8.6147-8.3012 11.33-4.1523 2.7139 4.1523 6.5867 17.538 12.412 24.616 12.437 15.126 8.7712-19.574 10.018-33.806 1.2471-14.238 10.451-7.1774 10.876-1.7781 3.122 39.587-5.4394 47.538-13.212 46.586" fill="#ea966a"/><path d="m1260.3 997.54c-11.828-0.59271-21.042-21.935-21.042-21.935-1.8532 16.101-7.5924 20.017-13.014 19.473h-0.022c-0.1614-0.0149-0.3247-0.0367-0.4895-0.0633-9.1657-1.1938-14.008-9.0088-21.826-22.939 0 0-0.8159 3.2782-1.7832 8.9439-0.6427 3.7394-4.1725 3.9991-6.61 2.7787-3.5197-1.3835-3.0452-3.9209-1.8198-12.966 0.2364-1.918 0.5461-4.3354 0.9357-7.3955 1.2487-9.8413 8.6046-8.3512 11.318-4.1789 2.7122 4.1789 6.5767 17.626 12.392 24.741 12.424 15.206 8.7611-19.668 10.003-33.981 0.651-7.4871 3.4815-9.1137 6.0939-8.1814 2.8671 1.0988 4.2623 5.0347 5.1464 10.013 1.1238 7.8251 3.3083 14.163 8.3815 26.324 1.4985 3.0984 3.1785 6.0669 5.0632 8.3712 12.422 15.202 8.7562-19.673 10.003-33.986 1.2471-14.305 10.438-7.2124 10.864-1.7881 3.1684 40.479-5.7292 48.049-13.596 46.771" fill="#ea966a"/><path d="m1170.7 964.06c-2.5224-4.9731-6.252-10.191-9.5253-14.17-8.3349-10.134-9.4388 2.0961-9.6352 15.549v5e-3c0.148 19.411 10.25 30.844 18.406 14.69 0.08-0.15483 0.1582-0.30967 0.2331-0.46616 0.013-0.0266 0.025-0.0533 0.042-0.0849 3.0004-6.35 1.9564-12.249 0.4795-15.522m15.784-5.992c-0.4197 4.5286-1.2055 10.091-2.2029 14.049-0.011 5e-3 -0.011 5e-3 -0.011 0.0117-1.267 5.7706-3.2567 11.937-6.5766 16.584-13.66 17.661-39.856 6.9527-38.05-21.447v-0.0216c0.8158-40.036 19.437-27.339 23.957-22.398 10.671 11.664 12.028 16.904 12.028 16.904s0.5427-8.7691 2.6406-10.938c1.575-1.9929 4.7268-1.5867 6.61-0.20479 1.2537 0.92736 1.9014 1.8114 1.8164 4.7317 0 0-0.1015 1.7515-0.2114 2.7304" fill="#ea966a"/><path d="m1268.9 1088.6c-0.04 0.048-0.08 0.098-0.1198 0.1466-32.407 39.643-81.697 64.951-136.9 64.951-97.608 0-176.73-79.123-176.73-176.73 0-97.597 79.122-176.72 176.73-176.72 97.606 0 176.73 79.122 176.73 176.72 0 13.304-1.5584 26.249-4.259 38.732-0.1366 0.636-0.2748 1.2703-0.4262 1.8963-0.026 0.1149-0.057 0.2281-0.085 0.3414" fill="none" stroke="#ea966a" stroke-linecap="round" stroke-miterlimit="10" stroke-width="8.0966"/><path d="m1281.2 1060.7c0-1.0472 0.2981-1.8148 0.8342-2.529 4.9067-7.3389 7.4824-11.937 10.816-20.413 1.3553-2.7389 6.2202-2.8704 7.7288-0.063 0.1982 0.3712 0.3214 0.7891 0.4645 1.1887 0.05 0.1348 0.1015 0.2497 0.1499 0.3913 0.6343 1.828 1.6849 4.5269 2.4641 6.3449l0.9957 2.3142c0.1115 0.2531 0.2131 0.5045 0.3263 0.7576 0.2248 0.5061 0.4396 1.0156 0.686 1.5084l0.5245 1.1304c0.068 0.1466 0.1099 0.2464 0.1815 0.388 0.061 0.1282 0.1248 0.2414 0.1798 0.363l1.8165 3.6861c0.283 0.5693 0.7175 1.2969 0.8841 1.8813 0.08 0.2763 0.1265 0.5528 0.1464 0.8241v0.5595c-0.083 1.1437-0.6826 2.1727-1.6416 2.9002-0.1598 0.1199-0.4096 0.2647-0.601 0.348-0.5678 0.243-1.054 0.3713-1.7716 0.3713-0.3996 0-0.8757-0.1081-1.1689-0.2132-0.6509-0.2347-1.2004-0.6177-1.6715-1.1221-0.2299-0.248-0.3914-0.5561-0.5645-0.8441-0.1732-0.293-0.2897-0.6277-0.4662-0.9157-0.253-0.4163-1.2687-2.5123-1.5051-3.0218-0.042-0.088-0.073-0.1482-0.1166-0.2348-0.083-0.1648-0.1465-0.3213-0.2264-0.4778-0.1599-0.318-0.308-0.6161-0.4546-0.9573-0.2097-0.4928-0.4528-0.929-0.6642-1.4219-0.044-0.099-0.064-0.1464-0.1099-0.2414l-0.5378-1.1987c-0.2664-0.6493-0.5928-1.3103-0.8592-1.9597-0.1315-0.3212-0.333-0.6558-0.4112-0.9988h-0.055c-0.051 0.223-0.9741 2.0378-1.1073 2.2542-1.6882 2.7788-3.3166 5.6591-5.0132 8.4578-0.4463 0.6693-0.8891 1.3519-1.367 1.9962-0.4812 0.651-0.8708 1.3403-1.4935 1.8664-1.1255 0.9506-2.7072 1.1454-4.0675 0.5594-1.3487-0.5828-2.3243-1.9597-2.3243-3.478" fill="#ea966a" fill-rule="evenodd"/><path d="m1261.9 1060.7c0.011-0.929 0.2564-1.7998 0.8657-2.4308 0.2165-0.2264 0.2415-0.2696 0.5263-0.4828 0.4328-0.3263 1.2053-0.6293 1.7781-0.611l1.3586 0.045c0.2281 0.011 0.3447 0.04 0.5695 0.045 0.011-1.3935-0.035-2.7738-0.025-4.1657 0-0.2963-0.02-6.4348 0.029-6.7928 0.058-0.4228-0.02-0.9789 0.035-1.4485 0.025-0.2263 0.016-0.4495 0.026-0.7108l0.098-1.3786c0.095-0.7375 0.1482-1.1221 0.3829-1.8397 1.5335-3.5013 6.9381-8.1181 9.7352-3.7443 1.8365 2.8686-1.3486 5.1262-1.7832 6.5863-0.7209 2.4124-0.3713 7.4471-0.3613 9.3984 0 0.1798 0.026 0.318 0.025 0.5378l-0.012 1.4168c0 0.1398 0.023 0.1432 0.026 0.2814 0.011 0.3713-0.011 0.7625-0.011 1.1355 0 0.3912 0.02 0.7208 0.016 1.1338 0.8807 0.028 1.4568-0.011 2.266 0.3696 0.6576 0.308 1.3852 1.0705 1.6617 1.7631 0.5228 1.312 0.3813 2.7505-0.5179 3.7677-0.1797 0.2048-0.085 0.1365-0.3096 0.318-0.048 0.038-0.067 0.067-0.1149 0.1069-0.5527 0.4713-1.3969 0.756-2.1661 0.731l-0.7326-0.051c0 0.6193 0.02 1.1404 0.015 1.7581-0.029 3.3898-0.1347 7.3556-4.1107 7.2707-4.0444-0.083-4.0643-4.6434-4.0809-7.7651v-1.0156c-0.082-0.8275 0.3397-0.6477-1.3187-0.6993-1.317-0.042-2.4041-0.3246-3.2117-1.5017-0.3929-0.5728-0.676-1.267-0.6693-2.0262" fill="#ea966a" fill-rule="evenodd"/><g clip-path="url(#clipPath1850)"><g clip-path="url(#clipPath1858)"><path d="m424.66 702.27h-21.414v10.028h21.414z" fill="url(#linearGradient1880)"/></g></g><g clip-path="url(#clipPath1914)"><g transform="translate(403.8,696.63)"><path d="m0 0c-0.305 0-0.552-0.247-0.552-0.552v-8.925c0-0.304 0.247-0.551 0.552-0.551h20.311c0.304 0 0.551 0.247 0.551 0.551v8.925c0 0.305-0.247 0.552-0.551 0.552z" fill="#121212"/></g><g transform="translate(405.75,707.15)"><path d="m0 0c-0.025 0-0.072-0.023-0.143-0.068l-0.781-0.719c-0.066-0.058-0.101-0.103-0.105-0.134s0.022-0.081 0.08-0.152c0.083-0.099 0.182-0.195 0.298-0.288s0.242-0.174 0.378-0.245c0.137-0.07 0.28-0.126 0.431-0.167s0.305-0.062 0.462-0.062c0.269 0 0.525 0.033 0.769 0.099s0.465 0.164 0.663 0.295c0.199 0.13 0.366 0.289 0.502 0.477 0.137 0.188 0.23 0.402 0.279 0.642 0.05 0.235 0.055 0.433 0.016 0.592s-0.115 0.293-0.227 0.403c-0.111 0.109-0.252 0.201-0.421 0.276-0.17 0.074-0.358 0.146-0.564 0.217-0.054 0.016-0.11 0.033-0.168 0.049-0.058 0.017-0.109 0.036-0.155 0.059-0.045 0.023-0.081 0.052-0.108 0.087s-0.034 0.077-0.022 0.127c0.021 0.091 0.068 0.152 0.143 0.183 0.074 0.031 0.149 0.046 0.223 0.046 0.095 0 0.195-0.027 0.301-0.08 0.105-0.054 0.199-0.122 0.282-0.205 0.045-0.045 0.093-0.076 0.142-0.093 0.05-0.016 0.106 4e-3 0.168 0.062l0.645 0.595c0.062 0.058 0.105 0.113 0.13 0.165 0.025 0.051 0.027 0.106 6e-3 0.164-0.186 0.24-0.403 0.401-0.651 0.484-0.248 0.082-0.527 0.123-0.837 0.123-0.256 0-0.496-0.031-0.719-0.096-0.223-0.064-0.423-0.154-0.599-0.269-0.175-0.116-0.322-0.255-0.44-0.419-0.117-0.163-0.197-0.344-0.238-0.542-0.038-0.174-0.052-0.338-0.044-0.493s0.053-0.3 0.133-0.434c0.081-0.135 0.204-0.256 0.369-0.366 0.166-0.11 0.389-0.204 0.67-0.282h-0.012c0.181-0.054 0.299-0.113 0.353-0.177s0.074-0.123 0.062-0.176c-0.033-0.162-0.149-0.242-0.347-0.242-0.075 0-0.145 0.014-0.211 0.043s-0.13 0.067-0.192 0.115c-0.062 0.047-0.124 0.1-0.186 0.158s-0.128 0.116-0.199 0.174c-0.066 0.049-0.111 0.074-0.136 0.074m2.784-1.643c-0.017-0.091 0.02-0.136 0.111-0.136h1.06c0.104 0 0.164 0.045 0.18 0.136l0.918 4.321c8e-3 0.042-1e-3 0.075-0.028 0.1-0.027 0.024-0.057 0.037-0.09 0.037h-1.066c-0.046 0-0.083-0.014-0.112-0.041s-0.047-0.058-0.056-0.096zm3.714 1.06c-0.083-0.074-0.18-0.111-0.291-0.111-0.112 0-0.194 0.037-0.245 0.111-0.052 0.075-0.065 0.172-0.04 0.292 0.02 0.115 0.074 0.212 0.161 0.291 0.087 0.078 0.186 0.118 0.297 0.118 0.112 0 0.191-0.04 0.239-0.118 0.047-0.079 0.061-0.176 0.04-0.291-0.024-0.12-0.078-0.217-0.161-0.292m-1.928-0.291c0.033-0.19 0.099-0.357 0.198-0.499 0.099-0.143 0.228-0.256 0.385-0.338 0.157-0.083 0.337-0.124 0.539-0.124 0.124 0 0.232 0.013 0.323 0.04 0.09 0.027 0.17 0.059 0.238 0.096s0.127 0.077 0.177 0.118 0.093 0.078 0.13 0.112c0.012-0.12 0.026-0.203 0.04-0.248 0.015-0.046 0.057-0.069 0.127-0.069h0.676c0.046 0 0.091 0.015 0.137 0.044 0.045 0.029 0.074 0.072 0.086 0.13l0.571 2.703c0.016 0.058 7e-3 0.101-0.028 0.13s-0.076 0.044-0.121 0.044h-0.676c-0.07 0-0.122-0.023-0.155-0.068-0.033-0.046-0.08-0.129-0.142-0.248-0.025 0.033-0.053 0.07-0.084 0.111s-0.073 0.081-0.127 0.118-0.12 0.069-0.198 0.096c-0.079 0.027-0.18 0.04-0.304 0.04-0.203 0-0.4-0.041-0.592-0.124-0.193-0.082-0.368-0.195-0.527-0.337-0.16-0.143-0.296-0.309-0.41-0.5-0.113-0.19-0.193-0.39-0.238-0.601l-6e-3 -0.025c-0.046-0.211-0.052-0.411-0.019-0.601m3.05 3.574c4e-3 0.019 8e-3 0.036 0.013 0.053 0.012 0.045-0.011 0.068-0.069 0.068h-0.675c-0.042 0-0.077-0.01-0.106-0.031s-0.06-0.054-0.093-0.099l-0.403-0.633c-0.037-0.049-0.058-0.091-0.062-0.124-0.012-0.049 0.017-0.074 0.087-0.074h0.657c0.071 0 0.135 0.043 0.193 0.13l0.421 0.651c0.021 0.021 0.033 0.04 0.037 0.059m0.773-6.292c0.095-8e-3 0.669 8e-3 0.789 8e-3 0.297 0 0.562 0.073 0.779 0.156s0.402 0.195 0.555 0.338c0.152 0.143 0.36 0.516 0.465 0.832 0.095 0.19 0.076 0.375 0.13 0.59l6e-3 0.038 0.577 2.721c0.016 0.058 7e-3 0.101-0.028 0.13s-0.076 0.044-0.121 0.044h-0.676c-0.07 0-0.122-0.023-0.155-0.068-0.033-0.046-0.081-0.129-0.143-0.248-0.024 0.033-0.052 0.07-0.083 0.111s-0.074 0.081-0.127 0.118c-0.054 0.037-0.12 0.069-0.199 0.096-0.078 0.027-0.18 0.04-0.304 0.04-0.202 0-0.4-0.041-0.592-0.124-0.192-0.082-0.368-0.195-0.527-0.337-0.159-0.143-0.295-0.309-0.409-0.5-0.114-0.19-0.193-0.39-0.239-0.601l-6e-3 -0.025c-0.045-0.211-0.051-0.411-0.018-0.601s0.099-0.357 0.198-0.499c0.099-0.143 0.227-0.256 0.384-0.338 0.157-0.083 0.337-0.124 0.54-0.124 0.198 0 0.345 0.021 0.44 0.062s0.182 0.095 0.26 0.161l-6e-3 -0.031c-0.041-0.19-0.102-0.531-0.239-0.697-0.115-0.097-0.126-0.107-0.483-0.129-0.153-9e-3 -0.305-0.01-0.516 0m1.35 1.886c-0.083-0.074-0.18-0.111-0.292-0.111-0.111 0-0.193 0.037-0.245 0.111-0.051 0.075-0.065 0.172-0.04 0.292 0.021 0.115 0.075 0.212 0.161 0.291 0.087 0.078 0.186 0.118 0.298 0.118s0.191-0.04 0.239-0.118c0.047-0.079 0.061-0.176 0.04-0.291-0.025-0.12-0.079-0.217-0.161-0.292" fill="#fff"/></g><g transform="translate(407.42,704.68)"><path d="m0 0c-0.017-0.013-0.027-0.03-0.032-0.051l-0.208-0.981c-5e-3 -0.018-2e-3 -0.033 7e-3 -0.044 9e-3 -0.012 0.024-0.017 0.045-0.017h0.192c0.017 0 0.032 5e-3 0.046 0.017 0.013 0.011 0.022 0.025 0.025 0.042l0.122 0.575c6e-3 0.027 0.018 0.053 0.035 0.077 0.018 0.024 0.039 0.045 0.064 0.064 0.025 0.018 0.051 0.032 0.079 0.042 0.028 9e-3 0.055 0.014 0.081 0.014 0.052 0 0.091-0.016 0.115-0.05 0.024-0.033 0.029-0.08 0.016-0.142l-0.12-0.576c-9e-3 -0.042 7e-3 -0.063 0.047-0.063h0.188c0.02 0 0.037 5e-3 0.051 0.017 0.015 0.011 0.024 0.027 0.029 0.048l0.12 0.565c6e-3 0.028 0.018 0.055 0.037 0.079s0.041 0.045 0.067 0.063 0.053 0.033 0.082 0.043c0.028 0.011 0.056 0.016 0.083 0.016 0.053 0 0.088-0.019 0.105-0.059 0.016-0.039 0.019-0.087 7e-3 -0.145l-0.118-0.564c-9e-3 -0.042 0.01-0.063 0.059-0.063h0.17c0.021 0 0.039 5e-3 0.054 0.017 0.015 0.011 0.025 0.027 0.03 0.048l0.104 0.49c3e-3 0.018 6e-3 0.035 0.01 0.052s7e-3 0.033 0.01 0.05c0.012 0.066 0.016 0.128 0.01 0.184-5e-3 0.057-0.021 0.107-0.047 0.15-0.027 0.043-0.064 0.077-0.112 0.101-0.049 0.024-0.111 0.036-0.189 0.036-0.068 0-0.136-0.017-0.206-0.051-0.069-0.034-0.128-0.077-0.176-0.13-0.02 0.048-0.055 0.089-0.105 0.123s-0.114 0.051-0.192 0.051c-0.073 0-0.138-0.016-0.196-0.048-0.059-0.033-0.107-0.068-0.147-0.106v0.046c0 0.016-1e-3 0.032-3e-3 0.046s-7e-3 0.027-0.014 0.037c-6e-3 0.011-0.017 0.016-0.03 0.016h-0.15c-0.013 0-0.028-6e-3 -0.045-0.019m2.604-1.093c0.046 0 0.074 0.022 0.084 0.068l0.208 0.981c3e-3 0.018 0 0.033-8e-3 0.045s-0.023 0.018-0.044 0.018h-0.184c-0.044 0-0.07-0.021-0.079-0.063l-0.122-0.571c-6e-3 -0.029-0.021-0.055-0.043-0.08-0.023-0.024-0.049-0.044-0.079-0.061-0.029-0.016-0.06-0.03-0.092-0.039-0.033-0.01-0.061-0.015-0.085-0.015-0.059 0-0.102 0.018-0.13 0.054-0.027 0.036-0.034 0.086-0.022 0.148l0.12 0.562c4e-3 0.021 3e-3 0.037-4e-3 0.048-6e-3 0.012-0.022 0.017-0.046 0.017h-0.186c-0.018 0-0.035-6e-3 -0.05-0.018s-0.025-0.029-0.029-0.05l-0.132-0.612c-0.013-0.065-0.017-0.124-0.01-0.179 7e-3 -0.054 0.024-0.101 0.052-0.141s0.067-0.071 0.116-0.093 0.108-0.033 0.178-0.033c0.074 0 0.145 0.015 0.215 0.045 0.07 0.031 0.126 0.065 0.17 0.105 1e-3 -0.02 2e-3 -0.038 2e-3 -0.055 0-0.016 2e-3 -0.031 6e-3 -0.043s0.011-0.021 0.021-0.028c0.011-7e-3 0.028-0.01 0.05-0.01zm0.387 0.904c-0.01-0.049 8e-3 -0.073 0.055-0.073h0.469c-0.049-0.044-0.102-0.091-0.16-0.141-0.058-0.051-0.118-0.102-0.178-0.154-0.06-0.053-0.119-0.104-0.177-0.153-0.057-0.05-0.11-0.097-0.158-0.141-0.01-7e-3 -0.016-0.015-0.019-0.024-3e-3 -8e-3 -5e-3 -0.016-6e-3 -0.023l-0.025-0.121c-5e-3 -0.019-2e-3 -0.037 9e-3 -0.052 0.01-0.015 0.025-0.022 0.045-0.022h0.839c0.021 0 0.04 7e-3 0.056 0.023 0.017 0.016 0.027 0.033 0.03 0.051l0.027 0.136c6e-3 0.025 4e-3 0.042-7e-3 0.054-0.011 0.011-0.026 0.017-0.048 0.017h-0.473l0.646 0.573c7e-3 7e-3 0.012 0.015 0.013 0.021 2e-3 7e-3 3e-3 0.013 5e-3 0.017l0.031 0.152c7e-3 0.023 4e-3 0.04-9e-3 0.051-0.012 0.012-0.027 0.017-0.045 0.017h-0.804c-0.022 0-0.04-6e-3 -0.056-0.018s-0.026-0.029-0.03-0.05zm1.356 0.193c-0.01 0.01-0.021 0.015-0.035 0.015h-0.19c-0.017 0-0.031-5e-3 -0.042-0.015-0.011-9e-3 -0.019-0.022-0.022-0.039l-0.215-1.006c-7e-3 -0.035 7e-3 -0.052 0.043-0.052h0.191c0.036 0 0.058 0.017 0.065 0.052l0.216 1.006c3e-3 0.017-1e-3 0.03-0.011 0.039m-0.21 0.224c0.026-0.034 0.063-0.05 0.112-0.05 0.05 0 0.095 0.016 0.135 0.05 0.04 0.033 0.065 0.074 0.076 0.122 0.01 0.048 2e-3 0.09-0.024 0.124-0.027 0.034-0.065 0.051-0.115 0.051-0.048 0-0.092-0.017-0.132-0.051s-0.066-0.076-0.076-0.124c-0.011-0.048-3e-3 -0.089 0.024-0.122m0.191-1.265c2e-3 -0.012 4e-3 -0.021 7e-3 -0.028s7e-3 -0.013 0.014-0.019c6e-3 -6e-3 0.014-9e-3 0.024-9e-3h0.2c0.024 0 0.041 8e-3 0.052 0.026 0.01 0.017 0.017 0.03 0.02 0.039l0.059 0.284 0.12 0.099 0.197-0.403c0.016-0.03 0.031-0.045 0.048-0.045h0.295c0.015 0 0.026 2e-3 0.035 6e-3 8e-3 5e-3 0.014 0.014 0.017 0.028 3e-3 0.016-2e-3 0.031-0.014 0.045h3e-3l-0.327 0.578 0.438 0.378c9e-3 8e-3 0.014 0.013 0.017 0.017 2e-3 4e-3 4e-3 0.01 5e-3 0.017 5e-3 0.024-8e-3 0.036-0.038 0.036h-0.268c-0.022 0-0.043-8e-3 -0.061-0.024l-0.387-0.35 0.19 0.893c3e-3 0.012 2e-3 0.025-2e-3 0.038-5e-3 0.013-0.019 0.019-0.041 0.019h-0.19c-0.035 0-0.056-6e-3 -0.064-0.018s-0.014-0.028-0.018-0.048zm1.872-0.039c6e-3 -0.012 0.02-0.017 0.043-0.017h0.145c0.017 0 0.032 4e-3 0.048 0.014 0.015 0.01 0.025 0.024 0.029 0.042l0.211 0.995c4e-3 0.018 1e-3 0.033-0.01 0.044-0.012 0.012-0.026 0.017-0.042 0.017h-0.123c-0.021 0-0.036-4e-3 -0.044-0.012-8e-3 -9e-3 -0.018-0.025-0.03-0.051l-0.044-0.109c-9e-3 0.024-0.02 0.048-0.034 0.07-0.013 0.023-0.031 0.043-0.053 0.06-0.022 0.018-0.048 0.032-0.079 0.042-0.031 0.011-0.068 0.016-0.11 0.016-0.082 0-0.159-0.015-0.232-0.044-0.074-0.03-0.14-0.07-0.199-0.121-0.059-0.052-0.109-0.112-0.15-0.183-0.042-0.07-0.072-0.146-0.09-0.227-0.016-0.082-0.019-0.158-7e-3 -0.227 0.012-0.07 0.037-0.13 0.074-0.183 0.037-0.052 0.086-0.092 0.147-0.122 0.062-0.029 0.132-0.044 0.212-0.044h7e-3c0.041 0 0.078 5e-3 0.111 0.015 0.033 9e-3 0.063 0.023 0.088 0.039 0.026 0.017 0.05 0.035 0.071 0.056 0.021 0.02 0.04 0.04 0.059 0.06-2e-3 -0.015-3e-3 -0.03-3e-3 -0.043 0-0.014-1e-3 -0.028-4e-3 -0.043 0-0.018 3e-3 -0.033 9e-3 -0.044m-0.424 0.649c0.02 0.036 0.044 0.068 0.074 0.096 0.029 0.028 0.062 0.05 0.099 0.066s0.077 0.024 0.119 0.024c0.043 0 0.079-8e-3 0.109-0.024s0.055-0.038 0.073-0.066 0.03-0.06 0.035-0.097 3e-3 -0.076-6e-3 -0.117c-9e-3 -0.042-0.024-0.082-0.044-0.118s-0.045-0.067-0.075-0.094c-0.029-0.026-0.062-0.047-0.099-0.062-0.038-0.015-0.077-0.023-0.119-0.023-0.084 0-0.144 0.029-0.181 0.086-0.037 0.058-0.046 0.129-0.028 0.213 9e-3 0.041 0.024 0.08 0.043 0.116" fill="#fff"/></g></g><g clip-path="url(#clipPath1934)"><g clip-path="url(#clipPath1942)"><path d="m416.36 708.84 6.62-0.104-0.079-5.015-6.62 0.104z" fill="url(#linearGradient1964)"/></g></g><g clip-path="url(#clipPath2106)"><g clip-path="url(#clipPath2114)"><path d="m445.92 708.84 6.62-0.104-0.079-5.015-6.62 0.104z" fill="url(#linearGradient2136)"/></g></g><g clip-path="url(#clipPath2146)"><g clip-path="url(#clipPath2154)" opacity=".81"><g clip-path="url(#clipPath2158)"><g transform="translate(449.46,705.55)"><path d="m0 0c-0.025-0.12 0.025-0.18 0.149-0.18h0.911c0.128 0 0.205 0.06 0.23 0.18l0.279 1.314c0.02 0.112 0.071 0.212 0.152 0.301 0.08 0.089 0.18 0.133 0.3 0.133 0.046 0 0.081-3e-3 0.106-9e-3 0.024-6e-3 0.046-0.015 0.065-0.028 0.018-0.012 0.036-0.029 0.052-0.049 0.017-0.021 0.04-0.048 0.069-0.081 0.033-0.037 0.077-0.048 0.133-0.031 0.056 0.016 0.104 0.05 0.146 0.099l0.626 0.682c0.049 0.054 0.072 0.1 0.068 0.14-4e-3 0.039-0.029 0.079-0.074 0.121-0.116 0.103-0.225 0.179-0.326 0.229s-0.239 0.074-0.412 0.074c-0.083 0-0.161-0.015-0.236-0.046-0.074-0.031-0.146-0.071-0.214-0.121s-0.133-0.103-0.195-0.161-0.122-0.114-0.18-0.168l-0.049 0.261c-9e-3 0.045-0.019 0.087-0.031 0.127-0.013 0.039-0.048 0.059-0.106 0.059h-0.669c-0.054 0-0.103-0.016-0.146-0.047-0.044-0.031-0.071-0.073-0.084-0.127z" fill="#fff"/></g></g></g><g clip-path="url(#clipPath2178)" opacity=".81"><g clip-path="url(#clipPath2182)"><g transform="translate(437.96,711.25)"><path d="m0 0c0 0.086-0.069 0.155-0.155 0.155s-0.155-0.069-0.155-0.155c0-0.035 0.012-0.066 0.031-0.092-0.221-0.069-0.383-9e-3 -0.522 0.188 0.053 0.024 0.091 0.078 0.091 0.141 0 0.085-0.069 0.155-0.155 0.155s-0.155-0.07-0.155-0.155c0-0.057 0.031-0.107 0.077-0.134-0.154-0.211-0.326-0.271-0.544-0.188 0.016 0.024 0.025 0.054 0.025 0.085 0 0.086-0.069 0.155-0.155 0.155-0.085 0-0.155-0.069-0.155-0.155 0-0.076 0.056-0.14 0.129-0.152 0.013-0.021 0.025-0.044 0.035-0.065 0.043-0.102 0.079-0.209 0.102-0.317 0.023-0.106 0.077-0.137 0.181-0.135 0.278 7e-3 0.557 0.014 0.835-1e-3 0.161-0.01 0.224 0.051 0.266 0.199 0.031 0.106 0.046 0.224 0.102 0.32 0.07 0.015 0.122 0.077 0.122 0.151m-1.413-0.75c-9e-3 -0.147 0.047-0.206 0.193-0.2 0.227 0.01 0.455 0.01 0.682 0 0.154-7e-3 0.21 0.054 0.196 0.2z" fill="#fff"/></g></g></g><g clip-path="url(#clipPath2202)" opacity=".81"><g clip-path="url(#clipPath2206)"><g transform="translate(435.31,722.2)"><path d="m0 0c-0.025 0-0.072-0.023-0.143-0.068l-0.781-0.719c-0.066-0.058-0.101-0.103-0.105-0.134s0.022-0.081 0.08-0.152c0.083-0.099 0.182-0.195 0.298-0.288s0.242-0.175 0.378-0.245c0.137-0.07 0.28-0.126 0.431-0.167s0.305-0.062 0.462-0.062c0.269 0 0.525 0.033 0.769 0.099s0.465 0.164 0.663 0.295c0.199 0.13 0.366 0.289 0.502 0.477 0.137 0.188 0.23 0.402 0.279 0.642 0.05 0.235 0.055 0.433 0.016 0.592s-0.115 0.293-0.226 0.403c-0.112 0.109-0.253 0.201-0.422 0.275-0.17 0.075-0.358 0.147-0.564 0.218-0.054 0.016-0.11 0.033-0.168 0.049-0.058 0.017-0.109 0.036-0.155 0.059-0.045 0.023-0.081 0.052-0.108 0.087s-0.034 0.077-0.022 0.127c0.021 0.091 0.068 0.152 0.143 0.183 0.074 0.031 0.149 0.046 0.223 0.046 0.095 0 0.195-0.027 0.301-0.08 0.105-0.054 0.199-0.122 0.282-0.205 0.045-0.045 0.093-0.076 0.142-0.093 0.05-0.016 0.106 4e-3 0.168 0.062l0.645 0.595c0.062 0.058 0.105 0.113 0.13 0.165 0.025 0.051 0.027 0.106 6e-3 0.164-0.186 0.24-0.403 0.401-0.651 0.483-0.248 0.083-0.527 0.124-0.837 0.124-0.256 0-0.496-0.032-0.719-0.096s-0.423-0.154-0.599-0.269c-0.175-0.116-0.322-0.255-0.44-0.419-0.117-0.163-0.197-0.344-0.238-0.542-0.038-0.174-0.052-0.338-0.044-0.493s0.053-0.3 0.133-0.434c0.081-0.135 0.204-0.257 0.369-0.366 0.166-0.11 0.389-0.204 0.67-0.282h-0.012c0.181-0.054 0.299-0.113 0.353-0.177s0.074-0.123 0.062-0.176c-0.033-0.162-0.149-0.242-0.347-0.242-0.075 0-0.145 0.014-0.211 0.043s-0.13 0.067-0.192 0.115c-0.062 0.047-0.124 0.1-0.186 0.158s-0.128 0.116-0.199 0.174c-0.066 0.049-0.111 0.074-0.136 0.074m2.784-1.643c-0.017-0.091 0.02-0.136 0.111-0.136h1.061c0.103 0 0.163 0.045 0.179 0.136l0.918 4.321c8e-3 0.042-1e-3 0.075-0.028 0.099-0.027 0.025-0.057 0.038-0.09 0.038h-1.066c-0.046 0-0.083-0.014-0.112-0.041s-0.047-0.058-0.056-0.096zm3.714 1.06c-0.083-0.074-0.18-0.111-0.291-0.111-0.112 0-0.194 0.037-0.245 0.111-0.052 0.075-0.065 0.172-0.04 0.292 0.02 0.115 0.074 0.212 0.161 0.291 0.087 0.078 0.186 0.118 0.297 0.118 0.112 0 0.191-0.04 0.239-0.118 0.047-0.079 0.061-0.176 0.04-0.291-0.024-0.12-0.078-0.217-0.161-0.292m-1.928-0.291c0.033-0.19 0.099-0.357 0.198-0.499 0.1-0.143 0.228-0.256 0.385-0.338 0.157-0.083 0.337-0.124 0.539-0.124 0.124 0 0.232 0.013 0.323 0.04 0.09 0.027 0.17 0.059 0.238 0.096s0.127 0.077 0.177 0.118 0.093 0.078 0.13 0.112c0.013-0.12 0.026-0.203 0.04-0.248 0.015-0.046 0.057-0.069 0.128-0.069h0.675c0.046 0 0.091 0.015 0.137 0.044 0.045 0.029 0.074 0.072 0.087 0.13l0.57 2.703c0.016 0.058 7e-3 0.101-0.028 0.13s-0.076 0.044-0.121 0.044h-0.676c-0.07 0-0.122-0.023-0.155-0.068-0.033-0.046-0.08-0.129-0.142-0.249-0.025 0.034-0.053 0.071-0.084 0.112s-0.073 0.081-0.127 0.118-0.12 0.069-0.198 0.096c-0.079 0.027-0.18 0.04-0.304 0.04-0.203 0-0.4-0.041-0.592-0.124-0.193-0.082-0.368-0.195-0.527-0.338-0.16-0.142-0.296-0.309-0.41-0.499-0.113-0.19-0.193-0.39-0.238-0.601l-6e-3 -0.025c-0.046-0.211-0.052-0.411-0.019-0.601m3.05 3.574c4e-3 0.019 9e-3 0.036 0.013 0.053 0.012 0.045-0.011 0.068-0.069 0.068h-0.675c-0.042 0-0.077-0.01-0.106-0.031s-0.06-0.054-0.093-0.099l-0.403-0.633c-0.037-0.049-0.058-0.091-0.062-0.124-0.012-0.049 0.017-0.074 0.087-0.074h0.657c0.071 0 0.135 0.043 0.193 0.13l0.421 0.651c0.021 0.021 0.033 0.04 0.037 0.059m0.773-6.292c0.095-8e-3 0.669 8e-3 0.789 8e-3 0.297 0 0.562 0.073 0.779 0.156s0.402 0.195 0.555 0.338c0.152 0.143 0.36 0.516 0.465 0.832 0.095 0.19 0.076 0.375 0.13 0.59l6e-3 0.037 0.577 2.722c0.016 0.058 7e-3 0.101-0.028 0.13s-0.076 0.044-0.121 0.044h-0.676c-0.07 0-0.122-0.023-0.155-0.068-0.033-0.046-0.081-0.129-0.143-0.249-0.024 0.034-0.052 0.071-0.083 0.112s-0.074 0.081-0.127 0.118c-0.054 0.037-0.12 0.069-0.199 0.096-0.078 0.027-0.18 0.04-0.304 0.04-0.202 0-0.4-0.041-0.592-0.124-0.192-0.082-0.368-0.195-0.527-0.338-0.159-0.142-0.295-0.309-0.409-0.499s-0.193-0.39-0.239-0.601l-6e-3 -0.025c-0.045-0.211-0.051-0.411-0.018-0.601s0.099-0.357 0.198-0.499c0.099-0.143 0.227-0.256 0.384-0.338 0.157-0.083 0.337-0.124 0.54-0.124 0.198 0 0.345 0.021 0.44 0.062s0.182 0.095 0.26 0.161l-6e-3 -0.031c-0.041-0.19-0.102-0.531-0.239-0.697-0.115-0.097-0.126-0.108-0.483-0.129-0.153-9e-3 -0.305-0.01-0.516 0m1.35 1.886c-0.083-0.074-0.18-0.111-0.292-0.111-0.111 0-0.193 0.037-0.245 0.111-0.051 0.075-0.065 0.172-0.04 0.292 0.021 0.115 0.075 0.212 0.161 0.291 0.087 0.078 0.186 0.118 0.298 0.118s0.191-0.04 0.239-0.118c0.047-0.079 0.061-0.176 0.04-0.291-0.025-0.12-0.079-0.217-0.161-0.292" fill="#fff"/></g></g></g><g clip-path="url(#clipPath2226)" opacity=".81"><g clip-path="url(#clipPath2230)"><g transform="translate(436.98,719.73)"><path d="m0 0c-0.017-0.013-0.027-0.03-0.032-0.051l-0.208-0.981c-5e-3 -0.018-2e-3 -0.033 7e-3 -0.044 9e-3 -0.012 0.024-0.017 0.045-0.017h0.193c0.016 0 0.031 5e-3 0.045 0.017 0.013 0.011 0.022 0.025 0.025 0.042l0.122 0.575c6e-3 0.027 0.018 0.053 0.035 0.077 0.018 0.024 0.039 0.046 0.064 0.064s0.051 0.032 0.079 0.042c0.028 9e-3 0.055 0.014 0.081 0.014 0.052 0 0.091-0.016 0.115-0.05 0.024-0.033 0.029-0.08 0.016-0.142l-0.12-0.576c-9e-3 -0.042 7e-3 -0.063 0.047-0.063h0.188c0.02 0 0.037 5e-3 0.052 0.017 0.014 0.011 0.023 0.027 0.028 0.048l0.12 0.565c6e-3 0.028 0.018 0.055 0.037 0.079s0.041 0.045 0.067 0.063c0.026 0.019 0.053 0.033 0.082 0.043 0.028 0.011 0.056 0.016 0.084 0.016 0.052 0 0.087-0.019 0.104-0.059 0.016-0.039 0.019-0.087 7e-3 -0.145l-0.118-0.564c-9e-3 -0.042 0.01-0.063 0.059-0.063h0.17c0.021 0 0.039 5e-3 0.054 0.017 0.015 0.011 0.025 0.027 0.03 0.048l0.104 0.49c3e-3 0.018 6e-3 0.035 0.01 0.052s7e-3 0.033 0.01 0.05c0.012 0.066 0.016 0.128 0.01 0.184-5e-3 0.057-0.021 0.107-0.047 0.15-0.027 0.043-0.064 0.077-0.112 0.101-0.049 0.024-0.112 0.036-0.189 0.036-0.068 0-0.136-0.017-0.206-0.051-0.069-0.034-0.128-0.077-0.176-0.13-0.02 0.048-0.055 0.089-0.105 0.123s-0.114 0.051-0.192 0.051c-0.073 0-0.138-0.016-0.196-0.048-0.059-0.033-0.107-0.068-0.147-0.106v0.046c0 0.016-1e-3 0.032-3e-3 0.046s-7e-3 0.027-0.014 0.037c-6e-3 0.011-0.017 0.016-0.03 0.016h-0.15c-0.013 0-0.028-6e-3 -0.045-0.019m2.604-1.093c0.046 0 0.074 0.022 0.084 0.068l0.208 0.981c3e-3 0.018 0 0.033-8e-3 0.045s-0.023 0.018-0.044 0.018h-0.184c-0.044 0-0.07-0.021-0.079-0.063l-0.122-0.571c-6e-3 -0.029-0.021-0.055-0.043-0.08-0.023-0.024-0.049-0.044-0.079-0.061-0.029-0.016-0.06-0.03-0.092-0.039-0.033-0.01-0.061-0.015-0.085-0.015-0.059 0-0.102 0.018-0.13 0.054-0.027 0.036-0.034 0.086-0.022 0.148l0.12 0.562c4e-3 0.021 3e-3 0.037-4e-3 0.048-6e-3 0.012-0.022 0.017-0.046 0.017h-0.186c-0.018 0-0.035-6e-3 -0.05-0.018s-0.025-0.029-0.029-0.05l-0.132-0.612c-0.013-0.065-0.017-0.124-0.01-0.179 7e-3 -0.054 0.024-0.101 0.052-0.141s0.067-0.071 0.116-0.093 0.108-0.033 0.178-0.033c0.074 0 0.146 0.015 0.215 0.045 0.07 0.031 0.126 0.065 0.17 0.105 2e-3 -0.02 2e-3 -0.038 2e-3 -0.055 0-0.016 2e-3 -0.031 6e-3 -0.043s0.011-0.021 0.021-0.028c0.011-7e-3 0.028-0.01 0.05-0.01zm0.387 0.904c-0.01-0.049 8e-3 -0.073 0.055-0.073h0.469c-0.049-0.044-0.102-0.091-0.16-0.141-0.058-0.051-0.118-0.102-0.178-0.154-0.06-0.053-0.119-0.104-0.177-0.153-0.057-0.05-0.11-0.097-0.158-0.141-9e-3 -7e-3 -0.016-0.015-0.019-0.024-3e-3 -8e-3 -5e-3 -0.016-6e-3 -0.023l-0.025-0.121c-5e-3 -0.019-2e-3 -0.037 9e-3 -0.052 0.01-0.015 0.025-0.022 0.045-0.022h0.839c0.021 0 0.04 7e-3 0.056 0.023 0.017 0.016 0.027 0.033 0.03 0.051l0.027 0.136c6e-3 0.025 4e-3 0.042-7e-3 0.054-0.011 0.011-0.026 0.017-0.047 0.017h-0.474l0.646 0.573c7e-3 7e-3 0.012 0.015 0.013 0.021 2e-3 7e-3 3e-3 0.013 5e-3 0.017l0.032 0.152c6e-3 0.023 3e-3 0.04-0.01 0.051-0.012 0.012-0.027 0.017-0.045 0.017h-0.804c-0.021 0-0.04-6e-3 -0.056-0.018s-0.026-0.029-0.03-0.05zm1.356 0.194c-9e-3 9e-3 -0.021 0.014-0.035 0.014h-0.19c-0.017 0-0.031-5e-3 -0.042-0.014-0.011-0.01-0.019-0.023-0.022-0.04l-0.215-1.006c-7e-3 -0.035 7e-3 -0.052 0.043-0.052h0.191c0.036 0 0.058 0.017 0.065 0.052l0.216 1.006c3e-3 0.017-1e-3 0.03-0.011 0.04m-0.21 0.223c0.026-0.034 0.063-0.05 0.112-0.05 0.05 0 0.095 0.016 0.135 0.05 0.04 0.033 0.065 0.074 0.076 0.122 0.01 0.048 2e-3 0.09-0.024 0.124-0.027 0.034-0.065 0.051-0.115 0.051-0.048 0-0.092-0.017-0.132-0.051s-0.066-0.076-0.076-0.124c-0.011-0.048-3e-3 -0.089 0.024-0.122m0.191-1.265c2e-3 -0.012 4e-3 -0.021 7e-3 -0.028s7e-3 -0.013 0.014-0.019c6e-3 -6e-3 0.014-9e-3 0.024-9e-3h0.2c0.024 0 0.041 8e-3 0.052 0.026 0.011 0.017 0.017 0.03 0.02 0.039l0.059 0.284 0.12 0.099 0.198-0.403c0.015-0.03 0.03-0.045 0.047-0.045h0.295c0.015 0 0.026 2e-3 0.035 6e-3 8e-3 5e-3 0.014 0.014 0.017 0.028 3e-3 0.016-2e-3 0.031-0.014 0.045h3e-3l-0.327 0.578 0.438 0.378c9e-3 8e-3 0.014 0.013 0.017 0.017 2e-3 4e-3 4e-3 0.01 5e-3 0.017 5e-3 0.024-8e-3 0.036-0.038 0.036h-0.268c-0.022 0-0.043-8e-3 -0.061-0.024l-0.387-0.349 0.19 0.892c3e-3 0.013 2e-3 0.025-2e-3 0.038-5e-3 0.013-0.018 0.019-0.041 0.019h-0.19c-0.035 0-0.056-6e-3 -0.064-0.018s-0.014-0.028-0.018-0.048zm1.872-0.039c6e-3 -0.012 0.02-0.017 0.043-0.017h0.145c0.017 0 0.032 5e-3 0.048 0.014 0.015 0.01 0.025 0.024 0.029 0.042l0.211 0.995c4e-3 0.018 1e-3 0.033-0.01 0.044-0.012 0.012-0.026 0.017-0.042 0.017h-0.123c-0.021 0-0.036-4e-3 -0.044-0.012-8e-3 -9e-3 -0.018-0.025-0.03-0.051l-0.044-0.109c-9e-3 0.024-0.02 0.048-0.034 0.07-0.013 0.023-0.031 0.043-0.053 0.06-0.022 0.018-0.048 0.032-0.079 0.042-0.031 0.011-0.068 0.016-0.11 0.016-0.082 0-0.159-0.015-0.232-0.044-0.074-0.03-0.14-0.07-0.199-0.121-0.059-0.052-0.109-0.112-0.15-0.183-0.042-0.07-0.072-0.146-0.09-0.227-0.016-0.082-0.019-0.158-7e-3 -0.227 0.012-0.07 0.037-0.13 0.074-0.183 0.037-0.052 0.086-0.092 0.147-0.122 0.062-0.029 0.132-0.044 0.212-0.044h7e-3c0.041 0 0.078 5e-3 0.111 0.015 0.033 9e-3 0.063 0.023 0.088 0.039 0.026 0.017 0.05 0.035 0.071 0.056 0.021 0.02 0.04 0.04 0.059 0.06-2e-3 -0.015-3e-3 -0.03-3e-3 -0.043 0-0.014-1e-3 -0.028-4e-3 -0.043 0-0.018 3e-3 -0.033 9e-3 -0.044m-0.424 0.649c0.02 0.036 0.044 0.068 0.074 0.096 0.029 0.028 0.062 0.05 0.099 0.066s0.077 0.024 0.119 0.024c0.043 0 0.079-8e-3 0.109-0.024s0.055-0.038 0.073-0.066 0.03-0.06 0.035-0.097 3e-3 -0.076-6e-3 -0.117c-9e-3 -0.042-0.024-0.082-0.044-0.118s-0.045-0.067-0.075-0.094c-0.029-0.026-0.062-0.047-0.099-0.062-0.038-0.015-0.077-0.023-0.119-0.023-0.084 0-0.144 0.029-0.181 0.086-0.037 0.058-0.046 0.129-0.028 0.213 9e-3 0.041 0.024 0.08 0.043 0.116" fill="#fff"/></g></g></g></g><g clip-path="url(#clipPath2250)"><g clip-path="url(#clipPath2258)"><path d="m445.92 723.88 6.62-0.104-0.079-5.014-6.62 0.104z" fill="url(#linearGradient2280)"/></g></g><g clip-path="url(#clipPath2290)"><g clip-path="url(#clipPath2298)" opacity=".81"><g clip-path="url(#clipPath2302)"><g transform="translate(449.46,720.6)"><path d="m0 0c-0.025-0.12 0.025-0.18 0.149-0.18h0.911c0.128 0 0.205 0.06 0.23 0.18l0.279 1.314c0.02 0.112 0.071 0.212 0.152 0.301 0.08 0.089 0.18 0.133 0.3 0.133 0.046 0 0.081-3e-3 0.106-9e-3 0.024-6e-3 0.046-0.015 0.065-0.028 0.018-0.012 0.036-0.029 0.052-0.049 0.017-0.021 0.04-0.048 0.069-0.081 0.033-0.037 0.077-0.048 0.133-0.031 0.056 0.016 0.104 0.05 0.146 0.099l0.626 0.682c0.049 0.054 0.072 0.1 0.068 0.14-4e-3 0.039-0.029 0.079-0.074 0.121-0.116 0.103-0.225 0.179-0.326 0.229s-0.239 0.074-0.412 0.074c-0.083 0-0.161-0.015-0.236-0.046-0.074-0.031-0.146-0.071-0.214-0.121s-0.133-0.103-0.195-0.161-0.122-0.114-0.18-0.168l-0.049 0.261c-9e-3 0.045-0.019 0.087-0.031 0.127-0.013 0.039-0.048 0.059-0.106 0.059h-0.669c-0.054 0-0.103-0.016-0.146-0.047-0.044-0.031-0.071-0.073-0.084-0.127z" fill="#fff"/></g></g></g><g clip-path="url(#clipPath2322)" opacity=".81"><g clip-path="url(#clipPath2326)"><g transform="translate(437.96,726.29)"><path d="m0 0c0 0.086-0.069 0.155-0.155 0.155s-0.155-0.069-0.155-0.155c0-0.035 0.012-0.066 0.031-0.092-0.221-0.069-0.383-9e-3 -0.522 0.188 0.053 0.024 0.091 0.078 0.091 0.141 0 0.085-0.069 0.155-0.155 0.155s-0.155-0.07-0.155-0.155c0-0.057 0.031-0.107 0.077-0.133-0.154-0.212-0.326-0.272-0.544-0.189 0.016 0.025 0.025 0.054 0.025 0.085 0 0.086-0.069 0.155-0.155 0.155-0.085 0-0.155-0.069-0.155-0.155 0-0.076 0.056-0.14 0.129-0.152 0.013-0.021 0.025-0.044 0.035-0.065 0.043-0.102 0.079-0.209 0.102-0.317 0.023-0.106 0.077-0.137 0.181-0.134 0.278 6e-3 0.557 0.013 0.835-2e-3 0.161-0.01 0.224 0.051 0.266 0.199 0.031 0.106 0.046 0.224 0.102 0.32 0.07 0.015 0.122 0.077 0.122 0.151m-1.413-0.75c-9e-3 -0.147 0.047-0.206 0.193-0.2 0.227 0.01 0.455 0.01 0.682 0 0.154-7e-3 0.21 0.054 0.196 0.2z" fill="#fff"/></g></g></g><g clip-path="url(#clipPath2346)" opacity=".7"><g clip-path="url(#clipPath2350)"><g transform="translate(484.33,702.82)"><path d="m0 0v8.925c0 0.305-0.247 0.552-0.552 0.552h-20.31c-0.305 0-0.552-0.247-0.552-0.552v-8.925c0-0.305 0.247-0.552 0.552-0.552h20.31c0.305 0 0.552 0.247 0.552 0.552m-11.804 1.242c0.018 0.081 0.048 0.157 0.09 0.227 0.041 0.071 0.091 0.131 0.15 0.183 0.059 0.051 0.125 0.092 0.199 0.121 0.073 0.03 0.15 0.044 0.232 0.044 0.042 0 0.079-5e-3 0.11-0.016 0.031-0.01 0.057-0.024 0.079-0.041 0.022-0.018 0.04-0.038 0.053-0.061 0.014-0.022 0.025-0.046 0.034-0.07l0.043 0.109c0.012 0.026 0.023 0.043 0.031 0.051s0.023 0.012 0.044 0.012h0.122c0.017 0 0.031-5e-3 0.042-0.017 0.012-0.011 0.015-0.026 0.011-0.044l-0.211-0.995c-5e-3 -0.018-0.014-0.032-0.03-0.041-0.015-0.01-0.031-0.015-0.047-0.015h-0.145c-0.023 0-0.037 6e-3 -0.043 0.017s-9e-3 0.026-9e-3 0.044c3e-3 0.015 4e-3 0.029 4e-3 0.043s1e-3 0.028 2e-3 0.043c-0.018-0.02-0.037-0.039-0.058-0.06-0.022-0.02-0.045-0.039-0.071-0.055-0.025-0.017-0.055-0.03-0.088-0.04s-0.07-0.015-0.111-0.015h-7e-3c-0.08 0-0.151 0.015-0.212 0.044-0.061 0.03-0.11 0.071-0.147 0.123s-0.062 0.113-0.074 0.182c-0.012 0.07-0.01 0.145 7e-3 0.227m-1.108-0.497 0.331 1.559c4e-3 0.02 0.01 0.036 0.018 0.048 7e-3 0.012 0.029 0.018 0.063 0.018h0.191c0.022 0 0.036-6e-3 0.04-0.019 5e-3 -0.013 6e-3 -0.025 3e-3 -0.037l-0.191-0.893 0.388 0.349c0.018 0.016 0.038 0.025 0.061 0.025h0.267c0.031 0 0.044-0.012 0.039-0.037-1e-3 -7e-3 -3e-3 -0.013-6e-3 -0.017-2e-3 -3e-3 -8e-3 -9e-3 -0.017-0.017l-0.437-0.378 0.326-0.578h-2e-3c0.012-0.013 0.017-0.029 0.014-0.045-3e-3 -0.014-9e-3 -0.023-0.017-0.027-9e-3 -5e-3 -0.02-7e-3 -0.035-7e-3h-0.295c-0.017 0-0.033 0.015-0.048 0.045l-0.197 0.403-0.12-0.099-0.059-0.283c-3e-3 -0.01-0.01-0.023-0.02-0.04-0.011-0.018-0.028-0.026-0.052-0.026h-0.2c-0.01 0-0.019 3e-3 -0.025 9e-3s-0.01 0.012-0.013 0.019-6e-3 0.016-7e-3 0.028m0.131 1.387c-0.01-0.048-0.036-0.089-0.075-0.122-0.041-0.033-0.085-0.05-0.135-0.05-0.049 0-0.086 0.017-0.113 0.05-0.026 0.033-0.034 0.074-0.023 0.122 0.01 0.049 0.036 0.09 0.076 0.124s0.084 0.051 0.132 0.051c0.05 0 0.088-0.017 0.115-0.051 0.026-0.034 0.034-0.075 0.023-0.124m-0.616-1.391 0.215 1.006c3e-3 0.017 0.01 0.03 0.022 0.04 0.011 0.01 0.025 0.014 0.042 0.014h0.19c0.014 0 0.025-4e-3 0.035-0.014s0.013-0.023 0.01-0.04l-0.215-1.006c-7e-3 -0.035-0.029-0.052-0.066-0.052h-0.19c-0.036 0-0.05 0.017-0.043 0.052m-1.051 0.023 0.024 0.12c2e-3 7e-3 4e-3 0.015 7e-3 0.023 3e-3 9e-3 9e-3 0.017 0.018 0.024 0.049 0.044 0.102 0.091 0.159 0.141s0.116 0.101 0.177 0.153c0.06 0.052 0.12 0.103 0.178 0.154 0.058 0.05 0.111 0.098 0.159 0.142h-0.469c-0.046 0-0.065 0.024-0.054 0.072l0.03 0.14c4e-3 0.022 0.014 0.038 0.03 0.05s0.034 0.018 0.056 0.018h0.804c0.018 0 0.033-5e-3 0.045-0.017 0.012-0.011 0.015-0.028 9e-3 -0.051l-0.031-0.151c-2e-3 -5e-3 -3e-3 -0.011-5e-3 -0.017-1e-3 -7e-3 -6e-3 -0.014-0.013-0.022l-0.646-0.573h0.473c0.021 0 0.037-6e-3 0.048-0.017 0.011-0.012 0.013-0.029 7e-3 -0.053l-0.027-0.136c-3e-3 -0.019-0.013-0.035-0.03-0.051s-0.035-0.024-0.057-0.024h-0.838c-0.02 0-0.035 7e-3 -0.045 0.022-0.011 0.016-0.014 0.033-9e-3 0.053m-1.111 0.358 0.132 0.611c4e-3 0.022 0.014 0.038 0.029 0.05s0.032 0.018 0.05 0.018h0.186c0.024 0 0.039-5e-3 0.046-0.017 7e-3 -0.011 8e-3 -0.027 4e-3 -0.048l-0.12-0.562c-0.013-0.062-5e-3 -0.111 0.022-0.148 0.027-0.036 0.07-0.054 0.129-0.054 0.025 0 0.053 5e-3 0.085 0.015 0.033 0.01 0.064 0.023 0.093 0.039 0.03 0.017 0.056 0.037 0.078 0.062 0.023 0.024 0.037 0.05 0.044 0.079l0.122 0.571c9e-3 0.042 0.035 0.063 0.079 0.063h0.184c0.021 0 0.036-6e-3 0.044-0.018s0.011-0.027 8e-3 -0.045l-0.209-0.981c-9e-3 -0.046-0.037-0.068-0.083-0.068h-0.123c-0.022 0-0.039 3e-3 -0.05 0.01-0.01 7e-3 -0.017 0.016-0.021 0.028s-6e-3 0.027-6e-3 0.043c0 0.017-1e-3 0.035-2e-3 0.055-0.044-0.04-0.101-0.074-0.17-0.104-0.07-0.031-0.141-0.046-0.215-0.046-0.07 0-0.129 0.011-0.178 0.033s-0.088 0.053-0.116 0.093-0.045 0.087-0.052 0.142c-7e-3 0.054-3e-3 0.114 0.01 0.179m-1.921-0.372 0.208 0.981c5e-3 0.021 0.015 0.038 0.032 0.051 0.016 0.013 0.032 0.019 0.045 0.019h0.15c0.013 0 0.023-5e-3 0.03-0.015 7e-3 -0.011 0.012-0.023 0.014-0.038 2e-3 -0.014 3e-3 -0.03 3e-3 -0.046v-0.046c0.04 0.038 0.088 0.073 0.146 0.106 0.059 0.032 0.124 0.049 0.196 0.049 0.079 0 0.143-0.017 0.193-0.051s0.085-0.076 0.104-0.124c0.049 0.053 0.108 0.096 0.177 0.13 0.07 0.034 0.138 0.051 0.206 0.051 0.077 0 0.14-0.012 0.188-0.036 0.049-0.024 0.086-0.058 0.113-0.101 0.026-0.043 0.042-0.093 0.047-0.149 5e-3 -0.057 2e-3 -0.119-0.01-0.185-3e-3 -0.017-7e-3 -0.033-0.01-0.05-4e-3 -0.017-7e-3 -0.034-0.01-0.052l-0.105-0.489c-4e-3 -0.022-0.014-0.038-0.029-0.049s-0.033-0.017-0.054-0.017h-0.17c-0.049 0-0.068 0.021-0.059 0.063l0.117 0.565c0.013 0.057 0.01 0.105-6e-3 0.145-0.017 0.039-0.052 0.059-0.105 0.059-0.027 0-0.055-6e-3 -0.083-0.016-0.029-0.011-0.056-0.025-0.082-0.043-0.026-0.019-0.048-0.04-0.067-0.064s-0.031-0.051-0.037-0.079l-0.12-0.564c-5e-3 -0.022-0.014-0.038-0.029-0.049-0.014-0.011-0.031-0.017-0.051-0.017h-0.188c-0.041 0-0.056 0.021-0.047 0.063l0.12 0.576c0.013 0.062 8e-3 0.109-0.016 0.143-0.024 0.033-0.063 0.05-0.116 0.05-0.025 0-0.052-5e-3 -0.08-0.015s-0.055-0.024-0.079-0.042c-0.025-0.018-0.046-0.04-0.064-0.064-0.017-0.024-0.029-0.049-0.035-0.077l-0.122-0.575c-3e-3 -0.017-0.012-0.031-0.025-0.042-0.014-0.011-0.029-0.017-0.046-0.017h-0.192c-0.021 0-0.036 6e-3 -0.046 0.017-9e-3 0.011-0.011 0.026-6e-3 0.044m1.22 7.6c0-0.074-0.052-0.136-0.122-0.152-0.056-0.096-0.071-0.213-0.102-0.32-0.042-0.147-0.104-0.208-0.266-0.199-0.278 0.016-0.557 9e-3 -0.835 2e-3 -0.104-2e-3 -0.158 0.029-0.181 0.135-0.023 0.108-0.059 0.214-0.102 0.316-9e-3 0.022-0.021 0.044-0.035 0.066-0.073 0.012-0.129 0.075-0.129 0.152 0 0.085 0.07 0.155 0.155 0.155 0.086 0 0.155-0.07 0.155-0.155 0-0.032-9e-3 -0.061-0.025-0.085 0.218-0.083 0.39-0.023 0.544 0.188-0.046 0.027-0.077 0.076-0.077 0.133 0 0.086 0.07 0.155 0.155 0.155 0.086 0 0.155-0.069 0.155-0.155 0-0.062-0.037-0.116-0.091-0.141 0.139-0.197 0.302-0.256 0.522-0.187-0.019 0.025-0.031 0.057-0.031 0.092 0 0.085 0.07 0.155 0.155 0.155 0.086 0 0.155-0.07 0.155-0.155m-0.342-0.75c0.015-0.146-0.042-0.207-0.196-0.2-0.227 0.01-0.455 0.01-0.682 0-0.146-6e-3 -0.202 0.053-0.193 0.2zm0.907-1.187c-0.025-0.051-0.068-0.106-0.13-0.164l-0.645-0.595c-0.062-0.058-0.118-0.079-0.168-0.062-0.049 0.016-0.097 0.047-0.142 0.093-0.083 0.082-0.177 0.15-0.282 0.204-0.106 0.054-0.206 0.081-0.301 0.081-0.074 0-0.149-0.016-0.223-0.047-0.075-0.031-0.122-0.092-0.143-0.182-0.012-0.05-5e-3 -0.093 0.022-0.128s0.063-0.064 0.108-0.086c0.046-0.023 0.097-0.043 0.155-0.059 0.058-0.017 0.114-0.033 0.168-0.05 0.206-0.07 0.394-0.143 0.564-0.217 0.169-0.074 0.31-0.166 0.422-0.276 0.111-0.109 0.187-0.244 0.226-0.403s0.034-0.356-0.016-0.592c-0.049-0.24-0.142-0.454-0.279-0.642-0.136-0.188-0.303-0.347-0.502-0.477-0.198-0.13-0.419-0.228-0.663-0.294-0.244-0.067-0.5-0.1-0.769-0.1-0.157 0-0.311 0.021-0.462 0.062-0.151 0.042-0.294 0.097-0.431 0.168-0.136 0.07-0.262 0.152-0.378 0.245s-0.215 0.189-0.298 0.288c-0.057 0.07-0.084 0.121-0.08 0.152s0.039 0.075 0.105 0.133l0.781 0.719c0.071 0.046 0.118 0.068 0.143 0.068s0.07-0.024 0.136-0.074c0.071-0.058 0.137-0.116 0.199-0.173 0.062-0.058 0.124-0.111 0.186-0.159 0.062-0.047 0.126-0.085 0.192-0.114s0.136-0.044 0.211-0.044c0.198 0 0.314 0.081 0.347 0.242 0.012 0.054-8e-3 0.113-0.062 0.177s-0.172 0.123-0.353 0.177h0.012c-0.281 0.078-0.504 0.172-0.67 0.282-0.165 0.109-0.288 0.231-0.368 0.365-0.081 0.135-0.126 0.279-0.134 0.434s6e-3 0.32 0.044 0.493c0.041 0.199 0.121 0.379 0.238 0.543 0.118 0.163 0.265 0.302 0.44 0.418 0.176 0.116 0.376 0.206 0.599 0.27s0.463 0.096 0.719 0.096c0.31 0 0.589-0.041 0.837-0.124s0.465-0.244 0.651-0.483c0.021-0.058 0.018-0.113-6e-3 -0.165m1.835 0.518-0.918-4.322c-0.016-0.09-0.076-0.136-0.179-0.136h-1.061c-0.091 0-0.128 0.046-0.111 0.136l0.917 4.322c9e-3 0.037 0.027 0.069 0.056 0.096s0.066 0.04 0.112 0.04h1.066c0.033 0 0.063-0.012 0.09-0.037s0.036-0.058 0.028-0.099m2.58 0.074c-4e-3 -0.016-9e-3 -0.034-0.013-0.052-4e-3 -0.019-0.016-0.039-0.037-0.059l-0.422-0.651c-0.057-0.087-0.121-0.131-0.192-0.131h-0.657c-0.07 0-0.099 0.025-0.087 0.075 4e-3 0.033 0.025 0.074 0.062 0.124l0.403 0.632c0.033 0.046 0.064 0.079 0.093 0.099 0.029 0.021 0.064 0.032 0.106 0.032h0.676c0.057 0 0.08-0.023 0.068-0.069m0.564-1.661-0.571-2.703c-0.012-0.058-0.041-0.102-0.086-0.131-0.046-0.029-0.091-0.043-0.137-0.043h-0.675c-0.071 0-0.113 0.023-0.128 0.068-0.014 0.046-0.027 0.128-0.04 0.248-0.037-0.033-0.081-0.07-0.13-0.111-0.05-0.042-0.109-0.081-0.177-0.118s-0.148-0.07-0.238-0.096c-0.091-0.027-0.199-0.041-0.323-0.041-0.202 0-0.382 0.042-0.539 0.124-0.157 0.083-0.285 0.196-0.385 0.338-0.099 0.143-0.165 0.309-0.198 0.499s-0.027 0.391 0.019 0.602l6e-3 0.025c0.045 0.21 0.125 0.411 0.238 0.601 0.114 0.19 0.25 0.356 0.41 0.499 0.159 0.143 0.334 0.255 0.527 0.338 0.192 0.083 0.389 0.124 0.592 0.124 0.124 0 0.225-0.014 0.304-0.04 0.078-0.027 0.144-0.059 0.198-0.097 0.054-0.037 0.096-0.076 0.127-0.117 0.031-0.042 0.059-0.079 0.084-0.112 0.062 0.12 0.109 0.203 0.142 0.248 0.033 0.046 0.085 0.068 0.155 0.068h0.676c0.046 0 0.086-0.014 0.121-0.043s0.044-0.072 0.028-0.13m3.497 0-0.577-2.722-6e-3 -0.037c-0.054-0.215-0.035-0.4-0.13-0.591-0.105-0.315-0.313-0.689-0.465-0.832-0.153-0.142-0.338-0.255-0.555-0.337-0.217-0.083-0.482-0.156-0.779-0.156-0.12 0-0.694-0.017-0.789-9e-3l0.252 1.124c0.211-0.011 0.363-9e-3 0.516 0 0.357 0.021 0.368 0.031 0.484 0.129 0.136 0.166 0.197 0.506 0.238 0.696l6e-3 0.032c-0.078-0.067-0.165-0.12-0.26-0.162-0.095-0.041-0.242-0.062-0.44-0.062-0.203 0-0.383 0.042-0.54 0.124-0.157 0.083-0.285 0.196-0.384 0.338-0.099 0.143-0.165 0.309-0.198 0.499s-0.027 0.391 0.018 0.602l6e-3 0.025c0.046 0.21 0.125 0.411 0.239 0.601s0.25 0.356 0.409 0.499 0.335 0.255 0.527 0.338c0.193 0.083 0.39 0.124 0.592 0.124 0.124 0 0.226-0.014 0.304-0.04 0.079-0.027 0.145-0.059 0.199-0.097 0.053-0.037 0.096-0.076 0.127-0.117 0.031-0.042 0.059-0.079 0.083-0.112 0.062 0.12 0.11 0.203 0.143 0.248 0.033 0.046 0.085 0.068 0.155 0.068h0.676c0.045 0 0.086-0.014 0.121-0.043s0.044-0.072 0.028-0.13m5.747-0.22c4e-3 -0.04-0.018-0.086-0.068-0.14l-0.626-0.682c-0.041-0.05-0.09-0.083-0.146-0.099-0.056-0.017-0.1-6e-3 -0.133 0.031-0.029 0.033-0.052 0.06-0.068 0.081-0.017 0.02-0.034 0.037-0.053 0.049-0.019 0.013-0.04 0.022-0.065 0.028s-0.06 9e-3 -0.105 9e-3c-0.12 0-0.221-0.044-0.301-0.133-0.081-0.089-0.131-0.189-0.152-0.301l-0.279-1.314c-0.025-0.12-0.101-0.18-0.229-0.18h-0.912c-0.124 0-0.173 0.06-0.149 0.18l0.565 2.672c0.012 0.054 0.04 0.096 0.083 0.127 0.044 0.031 0.092 0.047 0.146 0.047h0.67c0.057 0 0.093-0.02 0.105-0.059 0.012-0.04 0.023-0.082 0.031-0.127l0.05-0.261c0.057 0.054 0.117 0.11 0.179 0.168s0.128 0.111 0.196 0.161c0.068 0.049 0.139 0.09 0.214 0.121 0.074 0.031 0.152 0.046 0.235 0.046 0.174 0 0.311-0.025 0.412-0.074 0.102-0.05 0.21-0.126 0.326-0.23 0.045-0.041 0.07-0.081 0.074-0.12m-7.285-1.163c0.021 0.116 7e-3 0.213-0.04 0.291-0.048 0.079-0.127 0.118-0.239 0.118s-0.211-0.039-0.298-0.118c-0.086-0.078-0.14-0.175-0.161-0.291-0.025-0.12-0.011-0.217 0.041-0.291 0.051-0.075 0.133-0.112 0.244-0.112 0.112 0 0.209 0.037 0.292 0.112 0.082 0.074 0.136 0.171 0.161 0.291m-3.497 0c0.021 0.116 7e-3 0.213-0.04 0.291-0.048 0.079-0.127 0.118-0.239 0.118-0.111 0-0.21-0.039-0.297-0.118-0.087-0.078-0.141-0.175-0.161-0.291-0.025-0.12-0.012-0.217 0.04-0.291 0.052-0.075 0.133-0.112 0.245-0.112 0.111 0 0.208 0.037 0.291 0.112 0.083 0.074 0.136 0.171 0.161 0.291m0.747-2.722c-0.018-0.084-9e-3 -0.155 0.028-0.213 0.037-0.057 0.097-0.086 0.18-0.086 0.043 0 0.082 8e-3 0.119 0.023s0.071 0.036 0.1 0.062c0.03 0.027 0.054 0.058 0.075 0.094 0.02 0.037 0.035 0.076 0.044 0.118 9e-3 0.041 0.011 0.08 6e-3 0.117-6e-3 0.037-0.017 0.069-0.035 0.097-0.019 0.028-0.043 0.05-0.073 0.066s-0.066 0.024-0.109 0.024c-0.042 0-0.082-8e-3 -0.119-0.024s-0.07-0.038-0.099-0.066c-0.03-0.028-0.054-0.06-0.074-0.096s-0.034-0.075-0.043-0.116" fill="#fff"/></g></g></g></g><g clip-path="url(#clipPath2370)"><g clip-path="url(#clipPath2378)"><path d="m476.02 708.76 6.619-0.104-0.078-5.015-6.62 0.104z" fill="url(#linearGradient2400)"/></g></g><g clip-path="url(#clipPath2410)"><g clip-path="url(#clipPath2418)" opacity=".7"><g clip-path="url(#clipPath2422)"><g transform="translate(484.33,717.86)"><path d="m0 0v8.925c0 0.305-0.247 0.552-0.552 0.552h-20.31c-0.305 0-0.552-0.247-0.552-0.552v-8.925c0-0.305 0.247-0.552 0.552-0.552h20.31c0.305 0 0.552 0.247 0.552 0.552m-11.804 1.242c0.018 0.081 0.048 0.157 0.09 0.227 0.041 0.071 0.091 0.131 0.15 0.183 0.059 0.051 0.125 0.092 0.199 0.121 0.073 0.03 0.15 0.044 0.232 0.044 0.042 0 0.079-5e-3 0.11-0.016 0.031-0.01 0.057-0.024 0.079-0.041 0.022-0.018 0.04-0.038 0.053-0.061 0.014-0.022 0.025-0.046 0.034-0.07l0.043 0.109c0.012 0.026 0.023 0.043 0.031 0.051s0.023 0.012 0.044 0.012h0.122c0.017 0 0.031-5e-3 0.042-0.016 0.012-0.012 0.015-0.027 0.011-0.045l-0.211-0.995c-5e-3 -0.018-0.014-0.032-0.03-0.041-0.015-0.01-0.031-0.015-0.047-0.015h-0.145c-0.023 0-0.037 6e-3 -0.043 0.017s-9e-3 0.026-9e-3 0.044c3e-3 0.015 4e-3 0.029 4e-3 0.043s1e-3 0.028 2e-3 0.043c-0.018-0.019-0.037-0.039-0.058-0.06-0.022-0.02-0.045-0.039-0.071-0.055-0.025-0.017-0.055-0.03-0.088-0.04s-0.07-0.015-0.111-0.015h-7e-3c-0.08 0-0.151 0.015-0.212 0.044-0.061 0.03-0.11 0.071-0.147 0.123s-0.062 0.113-0.074 0.182c-0.012 0.07-0.01 0.145 7e-3 0.227m-1.108-0.497 0.331 1.56c4e-3 0.019 0.01 0.035 0.018 0.047 7e-3 0.012 0.029 0.018 0.063 0.018h0.191c0.022 0 0.036-6e-3 0.04-0.019 5e-3 -0.013 6e-3 -0.025 3e-3 -0.037l-0.191-0.893 0.388 0.349c0.018 0.016 0.038 0.025 0.061 0.025h0.267c0.031 0 0.044-0.012 0.039-0.037-1e-3 -7e-3 -3e-3 -0.013-6e-3 -0.017-2e-3 -3e-3 -8e-3 -9e-3 -0.017-0.017l-0.437-0.378 0.326-0.578h-2e-3c0.012-0.013 0.017-0.029 0.014-0.045-3e-3 -0.014-9e-3 -0.023-0.017-0.027-9e-3 -5e-3 -0.02-7e-3 -0.035-7e-3h-0.295c-0.017 0-0.033 0.015-0.048 0.045l-0.197 0.404-0.12-0.1-0.059-0.283c-3e-3 -0.01-0.01-0.023-0.02-0.04-0.011-0.017-0.028-0.026-0.052-0.026h-0.2c-0.01 0-0.019 3e-3 -0.025 9e-3s-0.01 0.012-0.013 0.019-6e-3 0.016-7e-3 0.028m0.131 1.387c-0.01-0.048-0.036-0.089-0.075-0.122-0.041-0.033-0.085-0.05-0.135-0.05-0.049 0-0.086 0.017-0.113 0.05-0.026 0.033-0.034 0.074-0.023 0.122 0.01 0.049 0.036 0.09 0.076 0.124s0.084 0.051 0.132 0.051c0.05 0 0.088-0.017 0.115-0.051 0.026-0.034 0.034-0.075 0.023-0.124m-0.616-1.391 0.215 1.006c3e-3 0.017 0.01 0.03 0.022 0.04 0.011 0.01 0.025 0.014 0.042 0.014h0.19c0.014 0 0.025-4e-3 0.035-0.014s0.013-0.023 0.01-0.04l-0.215-1.006c-7e-3 -0.035-0.029-0.052-0.066-0.052h-0.19c-0.036 0-0.05 0.017-0.043 0.052m-1.051 0.023 0.024 0.12c2e-3 7e-3 4e-3 0.015 7e-3 0.023 3e-3 9e-3 9e-3 0.017 0.018 0.024 0.049 0.044 0.102 0.091 0.159 0.141s0.116 0.101 0.177 0.153c0.06 0.052 0.12 0.103 0.178 0.154 0.058 0.05 0.111 0.098 0.159 0.142h-0.469c-0.046 0-0.065 0.024-0.054 0.072l0.03 0.14c4e-3 0.022 0.014 0.038 0.03 0.05s0.034 0.018 0.056 0.018h0.804c0.018 0 0.033-5e-3 0.045-0.016 0.012-0.012 0.015-0.029 9e-3 -0.052l-0.031-0.151c-2e-3 -5e-3 -3e-3 -0.011-5e-3 -0.017-1e-3 -7e-3 -6e-3 -0.014-0.013-0.022l-0.646-0.573h0.473c0.021 0 0.037-6e-3 0.048-0.017 0.011-0.012 0.013-0.029 7e-3 -0.053l-0.027-0.136c-3e-3 -0.019-0.013-0.035-0.03-0.051s-0.035-0.024-0.057-0.024h-0.838c-0.02 0-0.035 7e-3 -0.045 0.022-0.011 0.016-0.014 0.033-9e-3 0.053m-1.111 0.358 0.132 0.611c4e-3 0.022 0.014 0.038 0.029 0.05s0.032 0.018 0.05 0.018h0.186c0.024 0 0.039-5e-3 0.046-0.016 7e-3 -0.012 8e-3 -0.028 4e-3 -0.049l-0.12-0.562c-0.013-0.062-5e-3 -0.111 0.022-0.148 0.027-0.036 0.07-0.054 0.129-0.054 0.025 0 0.053 5e-3 0.085 0.015 0.033 0.01 0.064 0.023 0.093 0.039 0.03 0.017 0.056 0.037 0.078 0.062 0.023 0.024 0.037 0.05 0.044 0.079l0.122 0.571c9e-3 0.042 0.035 0.063 0.079 0.063h0.184c0.021 0 0.036-6e-3 0.044-0.018s0.011-0.027 8e-3 -0.045l-0.209-0.981c-9e-3 -0.046-0.037-0.068-0.083-0.068h-0.123c-0.022 0-0.039 3e-3 -0.05 0.01-0.01 7e-3 -0.017 0.016-0.021 0.028s-6e-3 0.027-6e-3 0.043c0 0.017-1e-3 0.035-2e-3 0.055-0.044-0.039-0.101-0.074-0.17-0.104-0.07-0.031-0.141-0.046-0.215-0.046-0.07 0-0.129 0.011-0.178 0.033s-0.088 0.053-0.116 0.093-0.045 0.087-0.052 0.142c-7e-3 0.054-3e-3 0.114 0.01 0.179m-1.921-0.372 0.208 0.981c5e-3 0.021 0.015 0.038 0.032 0.051 0.016 0.013 0.032 0.019 0.045 0.019h0.15c0.013 0 0.023-5e-3 0.03-0.015 7e-3 -0.011 0.012-0.023 0.014-0.038 2e-3 -0.014 3e-3 -0.03 3e-3 -0.046v-0.046c0.04 0.038 0.088 0.073 0.146 0.106 0.059 0.032 0.124 0.049 0.196 0.049 0.079 0 0.143-0.017 0.193-0.051s0.085-0.076 0.104-0.124c0.049 0.053 0.108 0.096 0.177 0.13 0.07 0.034 0.138 0.051 0.206 0.051 0.077 0 0.14-0.012 0.188-0.036 0.049-0.024 0.086-0.058 0.113-0.101 0.026-0.043 0.042-0.093 0.047-0.149 5e-3 -0.057 2e-3 -0.119-0.01-0.185-3e-3 -0.017-7e-3 -0.033-0.01-0.05-4e-3 -0.017-7e-3 -0.034-0.01-0.052l-0.105-0.489c-4e-3 -0.022-0.014-0.038-0.029-0.049s-0.033-0.017-0.054-0.017h-0.17c-0.049 0-0.068 0.021-0.059 0.063l0.117 0.565c0.013 0.057 0.01 0.105-6e-3 0.145-0.017 0.039-0.052 0.059-0.105 0.059-0.027 0-0.055-6e-3 -0.083-0.016-0.029-0.011-0.056-0.025-0.082-0.043-0.026-0.019-0.048-0.04-0.067-0.064s-0.031-0.051-0.037-0.079l-0.12-0.564c-5e-3 -0.022-0.014-0.038-0.029-0.049-0.014-0.011-0.031-0.017-0.051-0.017h-0.188c-0.041 0-0.056 0.021-0.047 0.063l0.12 0.576c0.013 0.062 8e-3 0.109-0.016 0.143-0.024 0.033-0.063 0.05-0.116 0.05-0.025 0-0.052-5e-3 -0.08-0.015s-0.055-0.024-0.079-0.042c-0.025-0.018-0.046-0.04-0.064-0.064-0.017-0.024-0.029-0.049-0.035-0.077l-0.122-0.575c-3e-3 -0.017-0.012-0.031-0.025-0.042-0.014-0.011-0.029-0.017-0.046-0.017h-0.192c-0.021 0-0.036 6e-3 -0.046 0.017-9e-3 0.011-0.011 0.026-6e-3 0.044m1.22 7.6c0-0.074-0.052-0.136-0.122-0.152-0.056-0.096-0.071-0.213-0.102-0.32-0.042-0.147-0.104-0.208-0.266-0.199-0.278 0.016-0.557 9e-3 -0.835 2e-3 -0.104-2e-3 -0.158 0.029-0.181 0.135-0.023 0.108-0.059 0.214-0.102 0.316-9e-3 0.022-0.021 0.044-0.035 0.066-0.073 0.012-0.129 0.075-0.129 0.152 0 0.085 0.07 0.155 0.155 0.155 0.086 0 0.155-0.07 0.155-0.155 0-0.032-9e-3 -0.061-0.025-0.085 0.218-0.083 0.39-0.023 0.544 0.188-0.046 0.027-0.077 0.076-0.077 0.133 0 0.086 0.07 0.155 0.155 0.155 0.086 0 0.155-0.069 0.155-0.155 0-0.062-0.037-0.116-0.091-0.141 0.139-0.197 0.302-0.256 0.522-0.187-0.019 0.025-0.031 0.057-0.031 0.092 0 0.085 0.07 0.155 0.155 0.155 0.086 0 0.155-0.07 0.155-0.155m-0.342-0.75c0.015-0.146-0.042-0.207-0.196-0.2-0.227 0.01-0.455 0.01-0.682 0-0.146-6e-3 -0.202 0.053-0.193 0.2zm0.907-1.187c-0.025-0.051-0.068-0.106-0.13-0.164l-0.645-0.595c-0.062-0.058-0.118-0.079-0.168-0.062-0.049 0.016-0.097 0.047-0.142 0.093-0.083 0.082-0.177 0.151-0.282 0.204-0.106 0.054-0.206 0.081-0.301 0.081-0.074 0-0.149-0.016-0.223-0.047-0.075-0.031-0.122-0.092-0.143-0.182-0.012-0.05-5e-3 -0.093 0.022-0.128s0.063-0.064 0.108-0.086c0.046-0.023 0.097-0.043 0.155-0.059 0.058-0.017 0.114-0.033 0.168-0.05 0.206-0.07 0.394-0.143 0.564-0.217 0.169-0.074 0.31-0.166 0.422-0.276 0.111-0.109 0.187-0.244 0.226-0.403s0.034-0.356-0.016-0.592c-0.049-0.24-0.142-0.454-0.279-0.642-0.136-0.188-0.303-0.347-0.502-0.477-0.198-0.13-0.419-0.228-0.663-0.294-0.244-0.067-0.5-0.1-0.769-0.1-0.157 0-0.311 0.021-0.462 0.062-0.151 0.042-0.294 0.097-0.431 0.168-0.136 0.07-0.262 0.152-0.378 0.245s-0.215 0.189-0.298 0.288c-0.057 0.07-0.084 0.121-0.08 0.152s0.039 0.075 0.105 0.133l0.781 0.719c0.071 0.046 0.118 0.069 0.143 0.069s0.07-0.025 0.136-0.075c0.071-0.058 0.137-0.116 0.199-0.173 0.062-0.058 0.124-0.111 0.186-0.159 0.062-0.047 0.126-0.085 0.192-0.114s0.136-0.044 0.211-0.044c0.198 0 0.314 0.081 0.347 0.242 0.012 0.054-8e-3 0.113-0.062 0.177s-0.172 0.123-0.353 0.177h0.012c-0.281 0.078-0.504 0.172-0.67 0.282-0.165 0.109-0.288 0.231-0.368 0.365-0.081 0.135-0.126 0.279-0.134 0.434s6e-3 0.32 0.044 0.493c0.041 0.199 0.121 0.379 0.238 0.543 0.118 0.163 0.265 0.302 0.44 0.418 0.176 0.116 0.376 0.206 0.599 0.27s0.463 0.096 0.719 0.096c0.31 0 0.589-0.041 0.837-0.124s0.465-0.244 0.651-0.483c0.021-0.058 0.018-0.113-6e-3 -0.165m1.835 0.518-0.918-4.322c-0.016-0.09-0.076-0.136-0.179-0.136h-1.061c-0.091 0-0.128 0.046-0.111 0.136l0.917 4.322c9e-3 0.037 0.027 0.069 0.056 0.096s0.066 0.04 0.112 0.04h1.066c0.033 0 0.063-0.012 0.09-0.037s0.036-0.058 0.028-0.099m2.58 0.074c-4e-3 -0.016-9e-3 -0.034-0.013-0.052-4e-3 -0.019-0.016-0.039-0.037-0.059l-0.422-0.651c-0.057-0.087-0.121-0.131-0.192-0.131h-0.657c-0.07 0-0.099 0.025-0.087 0.075 4e-3 0.033 0.025 0.074 0.062 0.124l0.403 0.632c0.033 0.046 0.064 0.079 0.093 0.1 0.029 0.02 0.064 0.031 0.106 0.031h0.676c0.057 0 0.08-0.023 0.068-0.069m0.564-1.661-0.571-2.703c-0.012-0.058-0.041-0.102-0.086-0.131-0.046-0.029-0.091-0.043-0.137-0.043h-0.675c-0.071 0-0.113 0.023-0.128 0.068-0.014 0.046-0.027 0.128-0.04 0.248-0.037-0.033-0.081-0.07-0.13-0.111-0.05-0.042-0.109-0.081-0.177-0.118s-0.148-0.07-0.238-0.096c-0.091-0.027-0.199-0.041-0.323-0.041-0.202 0-0.382 0.042-0.539 0.124-0.157 0.083-0.285 0.196-0.385 0.338-0.099 0.143-0.165 0.309-0.198 0.499s-0.027 0.391 0.019 0.602l6e-3 0.025c0.045 0.21 0.125 0.411 0.238 0.601 0.114 0.19 0.25 0.356 0.41 0.499 0.159 0.143 0.334 0.255 0.527 0.338 0.192 0.083 0.389 0.124 0.592 0.124 0.124 0 0.225-0.014 0.304-0.04 0.078-0.027 0.144-0.059 0.198-0.097 0.054-0.037 0.096-0.076 0.127-0.117 0.031-0.042 0.059-0.079 0.084-0.112 0.062 0.12 0.109 0.203 0.142 0.248 0.033 0.046 0.085 0.068 0.155 0.068h0.676c0.046 0 0.086-0.014 0.121-0.043s0.044-0.072 0.028-0.13m3.497 0-0.577-2.722-6e-3 -0.037c-0.054-0.215-0.035-0.4-0.13-0.591-0.105-0.315-0.313-0.689-0.465-0.832-0.153-0.142-0.338-0.255-0.555-0.337-0.217-0.083-0.482-0.156-0.779-0.156-0.12 0-0.694-0.017-0.789-9e-3l0.252 1.124c0.211-0.011 0.363-9e-3 0.516 0 0.357 0.021 0.368 0.032 0.484 0.129 0.136 0.166 0.197 0.506 0.238 0.696l6e-3 0.032c-0.078-0.067-0.165-0.12-0.26-0.162-0.095-0.041-0.242-0.062-0.44-0.062-0.203 0-0.383 0.042-0.54 0.124-0.157 0.083-0.285 0.196-0.384 0.338-0.099 0.143-0.165 0.309-0.198 0.499s-0.027 0.391 0.018 0.602l6e-3 0.025c0.046 0.21 0.125 0.411 0.239 0.601s0.25 0.356 0.409 0.499 0.335 0.255 0.527 0.338c0.193 0.083 0.39 0.124 0.592 0.124 0.124 0 0.226-0.014 0.304-0.04 0.079-0.027 0.145-0.059 0.199-0.097 0.053-0.037 0.096-0.076 0.127-0.117 0.031-0.042 0.059-0.079 0.083-0.112 0.062 0.12 0.11 0.203 0.143 0.248 0.033 0.046 0.085 0.068 0.155 0.068h0.676c0.045 0 0.086-0.014 0.121-0.043s0.044-0.072 0.028-0.13m5.747-0.22c4e-3 -0.04-0.018-0.086-0.068-0.14l-0.626-0.682c-0.041-0.049-0.09-0.083-0.146-0.099-0.056-0.017-0.1-6e-3 -0.133 0.031-0.029 0.033-0.052 0.06-0.068 0.081-0.017 0.02-0.034 0.037-0.053 0.049-0.019 0.013-0.04 0.022-0.065 0.028s-0.06 9e-3 -0.105 9e-3c-0.12 0-0.221-0.044-0.301-0.133-0.081-0.089-0.131-0.189-0.152-0.301l-0.279-1.314c-0.025-0.12-0.101-0.18-0.229-0.18h-0.912c-0.124 0-0.173 0.06-0.149 0.18l0.565 2.672c0.012 0.054 0.04 0.096 0.083 0.127 0.044 0.031 0.092 0.047 0.146 0.047h0.67c0.057 0 0.093-0.02 0.105-0.059 0.012-0.04 0.023-0.082 0.031-0.127l0.05-0.261c0.057 0.054 0.117 0.11 0.179 0.168s0.128 0.111 0.196 0.161c0.068 0.049 0.139 0.09 0.214 0.121 0.074 0.031 0.152 0.046 0.235 0.046 0.174 0 0.311-0.025 0.412-0.074 0.102-0.05 0.21-0.126 0.326-0.23 0.045-0.041 0.07-0.081 0.074-0.12m-7.285-1.163c0.021 0.116 7e-3 0.213-0.04 0.292-0.048 0.078-0.127 0.117-0.239 0.117s-0.211-0.039-0.298-0.117c-0.086-0.079-0.14-0.176-0.161-0.292-0.025-0.12-0.011-0.217 0.041-0.291 0.051-0.075 0.133-0.112 0.244-0.112 0.112 0 0.209 0.037 0.292 0.112 0.082 0.074 0.136 0.171 0.161 0.291m-3.497 0c0.021 0.116 7e-3 0.213-0.04 0.292-0.048 0.078-0.127 0.117-0.239 0.117-0.111 0-0.21-0.039-0.297-0.117-0.087-0.079-0.141-0.176-0.161-0.292-0.025-0.12-0.012-0.217 0.04-0.291 0.052-0.075 0.133-0.112 0.245-0.112 0.111 0 0.208 0.037 0.291 0.112 0.083 0.074 0.136 0.171 0.161 0.291m0.747-2.722c-0.018-0.084-9e-3 -0.155 0.028-0.213 0.037-0.057 0.097-0.086 0.18-0.086 0.043 0 0.082 8e-3 0.119 0.023s0.071 0.036 0.1 0.062c0.03 0.027 0.054 0.058 0.075 0.094 0.02 0.037 0.035 0.076 0.044 0.118 9e-3 0.041 0.011 0.08 6e-3 0.117-6e-3 0.037-0.017 0.069-0.035 0.097-0.019 0.028-0.043 0.05-0.073 0.066s-0.066 0.024-0.109 0.024c-0.042 0-0.082-8e-3 -0.119-0.024s-0.07-0.038-0.099-0.066c-0.03-0.028-0.054-0.06-0.074-0.096s-0.034-0.075-0.043-0.116" fill="#fff"/></g></g></g></g><g clip-path="url(#clipPath2442)"><g clip-path="url(#clipPath2450)"><path d="m476.02 723.8 6.619-0.104-0.078-5.015-6.62 0.104z" fill="url(#linearGradient2472)"/></g></g></g></svg>
