<svg width="522.1" height="280.52" xmlns:cc="http://creativecommons.org/ns#" xmlns:dc="http://purl.org/dc/elements/1.1/" xmlns:rdf="http://www.w3.org/1999/02/22-rdf-syntax-ns#" space="preserve" version="1.1" viewBox="0 0 522.1 280.52" xmlns="http://www.w3.org/2000/svg">
 <metadata>
  <rdf:RDF>
   <cc:Work rdf:about="">
    <dc:format>image/svg+xml</dc:format>
    <dc:type rdf:resource="http://purl.org/dc/dcmitype/StillImage"/>
    <dc:title/>
   </cc:Work>
  </rdf:RDF>
 </metadata>
 <link href="" rel="stylesheet" type="text/css"/>
 <style type="text/css"/>
 <g transform="scale(1.244)">
  <polygon points="198.5 80.8 198.5 178.1 264.2 178.1 264.2 0 165.4 0 133.2 132.6 132.5 132.6 100.3 0 0 0 0 178.1 67.2 178.1 67.2 80.8 67.8 80.8 94.1 178.1 171.6 178.1 197.9 80.8" fill="#436e63"/>
  <path d="m282.3 11.4v202.8l137.4-101.5zm61.3 112.1v21h-21.5v-21h-21v-21.5h21v-21h21.5v21h21v21.5z" fill="#29b473"/>
  <g fill="#29b473">
   <path d="m36.2 225.1h-10.3l0.3-16-8 10.9-8-10.9 0.3 16h-10.3v-29.3h9.2l8.8 11.9 8.8-11.9h9.2z"/>
   <path d="m104.5 225.5c-4.9 0-8.8-1.4-11.7-4.2s-4.3-6.4-4.3-10.8 1.4-8 4.3-10.8c2.8-2.8 6.7-4.2 11.7-4.2s8.9 1.4 11.7 4.3c2.8 2.8 4.3 6.4 4.3 10.8 0 4.3-1.4 7.9-4.2 10.8-2.9 2.7-6.8 4.1-11.8 4.1zm0-21.5c-1.8 0-3.1 0.6-4.1 1.7-1 1.2-1.5 2.7-1.5 4.7s0.5 3.6 1.5 4.7c1 1.2 2.4 1.7 4.1 1.7s3.1-0.6 4.1-1.7c1-1.2 1.5-2.7 1.5-4.7s-0.5-3.6-1.5-4.7-2.4-1.7-4.1-1.7z"/>
   <path d="m171.2 225.1 15-22.4h-15.4v-7h31.4l-15 22.4h14.5v7z"/>
   <path d="m253.7 225.1v-29.3h10.3v29.3z"/>
  </g>
 </g>
</svg>
