<svg width="800" height="280.52" xmlns:cc="http://creativecommons.org/ns#" xmlns:dc="http://purl.org/dc/elements/1.1/" xmlns:rdf="http://www.w3.org/1999/02/22-rdf-syntax-ns#" space="preserve" version="1.1" viewBox="0 0 800 280.52" xmlns="http://www.w3.org/2000/svg">
 <metadata>
  <rdf:RDF>
   <cc:Work rdf:about="">
    <dc:format>image/svg+xml</dc:format>
    <dc:type rdf:resource="http://purl.org/dc/dcmitype/StillImage"/>
    <dc:title/>
   </cc:Work>
  </rdf:RDF>
 </metadata>
 <link href="" rel="stylesheet" type="text/css"/>
 <style type="text/css"/>
 <g transform="scale(1.244)">
  <polygon points="171.6 178.1 197.9 80.8 198.5 80.8 198.5 178.1 264.2 178.1 264.2 0 165.4 0 133.2 132.6 132.5 132.6 100.3 0 0 0 0 178.1 67.2 178.1 67.2 80.8 67.8 80.8 94.1 178.1" fill="#436e63"/>
  <path d="m282.3 11.4v202.8l137.4-101.5zm61.3 112.1v21h-21.5v-21h-21v-21.5h21v-21h21.5v21h21v21.5z" fill="#29b473"/>
  <g fill="#29b473">
   <path d="m36.2 225.1h-10.3l0.3-16-8 10.9-8-10.9 0.3 16h-10.3v-29.3h9.2l8.8 11.9 8.8-11.9h9.2z"/>
   <path d="m104.5 225.5c-4.9 0-8.8-1.4-11.7-4.2s-4.3-6.4-4.3-10.8 1.4-8 4.3-10.8c2.8-2.8 6.7-4.2 11.7-4.2s8.9 1.4 11.7 4.3c2.8 2.8 4.3 6.4 4.3 10.8 0 4.3-1.4 7.9-4.2 10.8-2.9 2.7-6.8 4.1-11.8 4.1zm0-21.5c-1.8 0-3.1 0.6-4.1 1.7-1 1.2-1.5 2.7-1.5 4.7s0.5 3.6 1.5 4.7c1 1.2 2.4 1.7 4.1 1.7s3.1-0.6 4.1-1.7c1-1.2 1.5-2.7 1.5-4.7s-0.5-3.6-1.5-4.7-2.4-1.7-4.1-1.7z"/>
   <path d="m171.2 225.1 15-22.4h-15.4v-7h31.4l-15 22.4h14.5v7z"/>
   <path d="m253.7 225.1v-29.3h10.3v29.3z"/>
  </g>
 </g>
 <g transform="scale(1.244)" fill="#436e63">
  <path d="m519.4 64.6h13.8v96.3h-13.8v-41.9h-54.1v41.9h-13.8v-96.3h13.8v41.6h54.1z"/>
  <path d="m554.6 160.7v-96.1h32.4c13.1 0 23.5 2 31.1 5.9s13.7 9.7 18.2 17.3 6.8 15.9 6.8 24.9c0 6.4-1.2 12.6-3.7 18.5s-6 11-10.6 15.5c-4.7 4.6-10.1 8.1-16.3 10.4-3.6 1.4-7 2.4-10 2.9s-8.8 0.7-17.4 0.7zm31-83.8h-17.2v71.6h17.6c6.9 0 12.2-0.5 16.1-1.4 3.8-0.9 7-2.1 9.5-3.6 2.6-1.4 4.9-3.2 7-5.3 6.8-6.9 10.2-15.6 10.2-26.1 0-10.3-3.5-18.8-10.5-25.3-2.6-2.4-5.5-4.4-8.9-6-3.3-1.6-6.5-2.6-9.5-3.1-2.9-0.6-7.7-0.8-14.3-0.8z"/>
 </g>
</svg>
