<svg width="381.62pt" height="124.36pt" version="1.1" viewBox="0 0 381.62 124.36" xmlns="http://www.w3.org/2000/svg">
 <path d="m114.99 1.945e-4c-6.2303-0.01129-12.463 0.46968-18.642 1.2472-13.422 1.7794-26.725 5.2496-38.897 11.26-10.454 4.9955-22.987 14.527-31.68 24.081-8.4638 9.1431-15.278 19.866-19.66 31.546-4.0608 10.679-5.9365 22.114-6.1088 33.515-0.04056 5.6932 0.19528 11.478 1.7441 16.991l98.806-37.117 20.666-81.341c-2.0741-0.1204-4.1505-0.17855-6.2273-0.18232z" fill="#7f2013" stroke-width=".25348"/>
 <g transform="translate(-94.194 -58.224)">
  <path d="m222.44 157.44c6.045-4.2903 16.177-3.046 19.787 3.5302 1.0158 1.8017 1.4067 3.5082 1.6028 5.3701h-5.9205c-0.67787-3.1088-2.9586-6.0027-6.9817-6.0894-3.1964-0.16033-6.5147 1.8582-7.4633 5.359-0.5934 1.8257-0.71213 4.0044-0.18077 5.7413 1.2436 3.9372 5.9415 6.6118 9.996 4.8888 3.12-0.98 4.2598-4.285 4.6298-7.225h5.9205c-0.18 3.35-0.69025 7.055-3.3002 9.445-4.46 4.96-12.52 5.29-17.95 1.81-7.59-4.94-7.66-17.8-0.14-22.83z"/>
  <path d="m245.12 155.47h5.675v9.9848h11.43v-9.9848h6.025v22.805l10.69-22.805h4.79l10.26 22.805v-22.805h5.33l12.485 15.705v-15.705h5.72v26.735h-4.9947l-12.505-15.61v15.61h-11.505l-2.77-6.8999h-9.22l-2.8197 6.8999h-11.485v-10.91h-11.43v10.91h-5.675v-26.735m34.48 13.73h3.4l-1.7-4.225z"/>
  <path d="m368.48 155.47h5.72v20.745h14.365v5.9899h-20.085z"/>
  <path d="m320.23 155.47h5.5732l11.922 15.625v-15.625h6.06v26.735h-4.835l-12.635-15.46v15.46h-6.085z"/>
  <path d="m346.23 155.47h21.28l0.06 5.9698h-15.215v4.085h14.2v5.785h-14.2v4.84h15.105v6.0549h-21.23z"/>
  <g transform="matrix(.25348 0 0 .25348 94.194 58.224)">
   <path d="m832.97 84.446h34.96l-12.72 58.885h-35.41z"/>
   <path d="m1194.5 86.171h36.03l-48.66 236.54h-35.83l-1.19-2.555c-10.81 3.27-22.53 5-33.64 2.27-4.75-1.02-8.15-4.62-11.38-7.95-1.09-1.36-3.23-1.95-4.49-0.5-7.71 6.22-17.51 8.93-27.04 10.85-17.39 3.04-36.32 2.93-52.28-5.46-7.56-3.66-13.86-9.56-18.92-16.18-11.47-16.98-10.46-39.64-2.42-57.81 4.71-8.91 11.82-16.44 20.55-21.5 5.58-3.59 12.07-5.27 18.26-7.5h-26.1c3.13-22.2 12-44.98 29.94-59.35 11.13-9.43 25.53-14.26 39.93-15.56 12.12-1.17 24.49 0.1 36.13 3.7 8.42 2.61 16.41 6.84 22.88 12.88 9.43 10.14 12.48 24.54 11.96 38.01-0.98 22.53-8.75 43.91-14.53 65.5-2.22 9.02-4.85 18.04-5.24 27.39l18.84-4.02 0.36 25.23 46.84-223.98m-131.49 94.63c-11.32 7.3-18.05 20.43-19.21 33.66 18.45-3.16 37.35 0.24 55.8-2.91 4.1-0.91 9.06-1.96 11.13-6.08 3.28-6.45 3-14.21 0.97-20.98-2.22-5.84-8.83-7.85-14.47-8.52-12.395-1.4342-26.295-0.50086-34.22 4.83zm-7.63 67.26c-8.37 0.92-17.76 1.75-24.13 7.88-6.25 5.29-8.32 14.14-7.52 22 0.31 5.05 4.43 8.79 8.69 10.94 12.46 5.22 27.08 4.12 39.19-1.61 7.63-3.55 13.62-9.64 19.17-15.81 5.74-7.9 9.85-17.08 11.3-26.78-15.63 0.08-31.13 2.26-46.7 3.38z"/>
   <path transform="scale(2.9588)" d="m426.64 29.584c-1.1809 0-2.0566 0.66673-2.3144 1.8184l-8.5527 43.299c-0.27417 1.442 0.96803 2.0957 2.0742 2.0957 23.662 0.010139 56.605-0.00338 80.27 0 1.5894 0 1.8818-0.33223 2.1074-1.6406l8.5644-43.816c0.23919-1.1082-0.55368-1.7559-1.7383-1.7559h-80.41zm43.559 5.5703h12.557c3.1973 0.027067 6.4583 0.66174 9.25 2.2773 3.4339 2.0448 5.7771 5.7316 6.1894 9.7129 0.66254 6.4412-1.207 13.499-6.1211 17.943-2.7444 2.7039-6.4687 4.2418-10.217 4.9414-2.4288 0.483-5.4854 0.38476-8.2305 0.38476l-10.85-0.009765 7.4219-35.25zm-38.725 0.019531h7.8945l-3.0547 14.078h14.807l2.9883-14.078h7.877l-7.5723 35.254h-7.7637l2.9805-14.303h-14.764l-3.1016 14.303h-7.8008l7.5098-35.254zm47.842 6.2793-2.6504 0.013672-4.7598 22.639h5.7695c3.4475-0.087867 6.9719-1.4851 9.1992-4.1855 2.3286-2.7107 3.1297-6.4052 3.1973-9.8965-0.04054-2.572-0.75976-5.4698-3.0547-6.9434-2.3067-1.4753-4.9874-1.627-7.7012-1.627z" stroke-width=".33797"/>
   <path d="m754.91 98.341h34.53l-9.31 47.015h31.92l-6.76 34.21h-32.72l-22.74 109.8c12.6 2.02 24.86-2.7 37.25-4.14l-7.07 35.36c-14.08 2.22-28.79 6.37-42.82 1.65-11.81-3.16-20.3-14.33-21.76-26.25-0.76653-4.9844-0.56738-9.9135 0.15764-14.794l22.292-101.62h-18.64l-30.74 143.14h-34.94l0.83-4.915c-6.63 1.86-12.75 5.23-19.49 6.73-19.19 4.52-40.3 0.71-56.53-10.56-4.18-3.7-7.2-8.46-11.01-12.5 0.19 6.32 1.61 12.81-0.49 18.98-10.28 2.19-20.86 5.82-31.44 3.31-6.87-1.58-12.82-5.78-17.99-10.42-8.36 3.52-16.08 8.56-24.89 10.97-12.71 3.54-26.24 4.03-39.2 1.75-15.47-3.03-30.86-11.33-38.65-25.53-6.86-11.65-7.27-25.94-4.5-38.87 1.39-8.1 4.09-16.11 9.16-22.68 4.18-6.09 10.12-10.64 16.25-14.63 4.99-3.2 10.75-4.795 16.22-6.915h-24.39c4.08-15.09 8.19-30.535 16.34-44.035 4.24-6.87 9.48-13.24 16.22-17.78 22.03-15.49 51.71-17.48 76.82-8.96 7.38 2.94 14.9 6.56 19.98 12.9 7.88 9.62 10.6 22.33 10.84 34.5-0.04 20.09-5.26 39.66-10.48 58.91-3.16 11.86-6.89 23.63-8.61 35.82l12.81-2.93c-3.27-21.82 1.9-43.65 7.4-64.65l16.14-75.845h34.6l-22.72 109.08c-2.21 9.43-4.06 20.29 1.22 29.06 4.25 6.8 12.78 9.14 20.37 8.88 9.5 0.19 18.4-4.1 26.08-9.35 11.91-8.35 19.01-21.75 23.76-35.17 7.3622-20.726 8.0931-28.357 23.4-102.5h53.67l9.63-47.015m-271.41 83.83c-11.3 7.06-17.58 19.93-19.23 32.84 18.46-1.39 37.08-0.69 55.43-3.43 3.05-0.7 6.62-0.93 8.8-3.45 3-2.46 3.39-6.6 4.19-10.13 0.88-6.47 0.3-14.61-5.89-18.35-10.692-6.6123-33.081-4.967-43.3 2.52zm9.79 65.16c-9.81 1.07-19.76 1.02-29.43 3.16-4.25 0.89-8.27 2.79-11.7 5.44-5.88 4.81-8.1 12.78-8.18 20.11-0.43 6.44 4.77 11.91 10.59 13.79 17.53 6.3 38.08 0.49 50.83-12.79 9.04-8.08 14.83-19.64 16.02-31.69-9.38 0.62-18.81 0.67-28.13 1.98z"/>
   <path d="m922.39 141.49c12-0.72 24.24 0.57 35.54 4.82 11.65 4.05 22.71 11.26 29.07 22.08 9.01 14.79 10.67 32.66 11.07 49.6h-34.71c0.03-8.76-0.2-17.68-2.84-26.11-1.85-6.17-7.18-10.69-13.07-12.87-11.76-4.47-25.16-4.26-36.92 0.06-26.829 11.459-38.38 42.641-39.39 63.92-0.59 10.77-0.07 22.28 5.65 31.75 5.76 10.19 16.88 16.92 28.53 17.59 13.04 0.77 26.76-3.84 35.66-13.63 8.71-8.72 13.71-20.355 17.06-32.035h35.26c-3.43 9.96-6.04 20.225-10.25 29.915-4.83 12.11-11.82 23.85-22.67 31.49-21.23 17.43-51.72 24.04-77.79 14.55-25.7-9.44-43.91-35.31-45.04-62.53-1.34-17.72 2.87-35.23 7.91-52.07 6.5-19.24 16.76-38.26 33.64-50.26 12.613-9.4401 29.292-15.373 43.29-16.27z"/>
   <path d="m819.54 145.42h35.42l-37.82 177.22h-35.31z"/>
   <path transform="scale(.75)" d="m306.44 74.615-94.635 436.61 102.79-34.316 50.066-212.03h6.2793c29.115 63.472 58.22 126.95 87.338 190.42l70.641-26.484 89.988-354.2h-101.65l-41.654 180.98h-3.1523l-93.768-180.98z" stroke-width="1.3333"/>
  </g>
 </g>
</svg>
