<svg width="6.1545mm" height="2.2874mm" version="1.1" viewBox="0 0 6.1545 2.2874" xmlns="http://www.w3.org/2000/svg">
 <defs>
  <clipPath id="a">
   <path d="m226 201.28h17.446v6.484h-17.446z"/>
  </clipPath>
 </defs>
 <g transform="translate(-78.566 -165.08)">
  <path d="m78.566 167.36h5.0871v-2.2874h-5.0871z"/>
  <g transform="matrix(.35278 0 0 -.35278 -1.1632 238.37)">
   <g clip-path="url(#a)">
    <g transform="translate(227.34 206.44)">
     <path d="m0 0h0.291v-0.152c0.08 0.107 0.208 0.174 0.362 0.174 0.278 0 0.468-0.201 0.468-0.476v-0.698h-0.291v0.646c0 0.155-0.112 0.264-0.269 0.264-0.156 0-0.27-0.109-0.27-0.264v-0.646h-0.291z" fill="#fff"/>
    </g>
    <g transform="translate(229.24 205.53)">
     <path d="m0 0c0.179 0 0.315 0.143 0.315 0.333 0 0.188-0.136 0.331-0.315 0.331s-0.313-0.143-0.313-0.331c0-0.19 0.134-0.333 0.313-0.333m0 0.931c0.349 0 0.615-0.26 0.615-0.598 0-0.34-0.266-0.599-0.615-0.599s-0.615 0.259-0.615 0.599c0 0.338 0.266 0.598 0.615 0.598" fill="#fff"/>
    </g>
    <g transform="translate(229.85 206.44)">
     <path d="m0 0h0.313l0.318-0.848 0.32 0.848h0.293l-0.459-1.152h-0.326z" fill="#fff"/>
    </g>
    <g transform="translate(231.7 205.53)">
     <path d="m0 0c0.179 0 0.315 0.143 0.315 0.333 0 0.188-0.136 0.331-0.315 0.331s-0.313-0.143-0.313-0.331c0-0.19 0.134-0.333 0.313-0.333m0.315-0.101c-0.091-0.103-0.219-0.165-0.373-0.165-0.316 0-0.557 0.259-0.557 0.599 0 0.338 0.241 0.598 0.557 0.598 0.154 0 0.282-0.063 0.373-0.168v0.145h0.291v-1.152h-0.291z" fill="#fff"/>
    </g>
    <g transform="translate(238.74 203.08)">
     <path d="m0 0v1.736l-0.946-0.301v-0.465l0.419 0.092v-1.062h-0.419v-0.465h1.295v0.465z" fill="#d11b39"/>
    </g>
    <g transform="translate(227.8 203.3)">
     <path d="m0 0c0.034-0.155 0.133-0.236 0.322-0.236 0.162 0 0.264 0.062 0.264 0.171 0 0.372-1.073 0.121-1.073 0.911 0 0.382 0.351 0.667 0.794 0.667 0.453 0 0.756-0.245 0.809-0.611l-0.533-0.108c-0.034 0.161-0.127 0.235-0.295 0.235-0.142 0-0.229-0.062-0.229-0.167 0-0.341 1.073-0.093 1.073-0.912 0-0.381-0.36-0.669-0.825-0.669-0.468 0-0.794 0.254-0.84 0.614z" fill="#fff"/>
    </g>
    <g transform="translate(230.23 203.74)">
     <path d="m0 0c0.18 0 0.295 0.121 0.295 0.285 0 0.168-0.115 0.289-0.295 0.289h-0.431v-0.574zm-0.958 1.039h0.958c0.515 0 0.84-0.323 0.84-0.76s-0.325-0.744-0.84-0.744h-0.431v-0.667h-0.527z" fill="#fff"/>
    </g>
    <g transform="translate(232.42 203.07)">
     <path d="m0 0c0.341 0 0.601 0.276 0.601 0.632 0 0.357-0.26 0.633-0.601 0.633s-0.602-0.276-0.602-0.633c0-0.356 0.261-0.632 0.602-0.632m0 1.749c0.648 0 1.147-0.487 1.147-1.117 0-0.629-0.499-1.116-1.147-1.116s-1.147 0.487-1.147 1.116c0 0.63 0.499 1.117 1.147 1.117" fill="#fff"/>
    </g>
    <g transform="translate(234.84 203.81)">
     <path d="m0 0c0.158 0 0.26 0.109 0.26 0.254 0 0.149-0.102 0.258-0.26 0.258h-0.434v-0.512zm-0.22-0.481h-0.214v-0.713h-0.527v2.171h0.961c0.493 0 0.806-0.31 0.806-0.729 0-0.304-0.167-0.549-0.443-0.663l0.505-0.779h-0.626z" fill="#fff"/>
    </g>
    <g transform="translate(236.41 204.32)">
     <path d="m0 0h-0.636v0.465h1.799v-0.465h-0.636v-1.705h-0.527z" fill="#fff"/>
    </g>
    <g transform="translate(241 207.76)">
     <path d="m0 0h0.289v-0.467h0.509v0.467h0.289v-1.189h-0.289v0.467h-0.509v-0.467h-0.289z"/>
    </g>
    <g transform="translate(242.81 206.83)">
     <path d="m0 0c0.202 0 0.336 0.143 0.336 0.34 0 0.199-0.134 0.34-0.336 0.34h-0.18v-0.68zm-0.469 0.934h0.494c0.354 0 0.61-0.258 0.61-0.594 0-0.337-0.256-0.595-0.61-0.595h-0.494z"/>
    </g>
   </g>
  </g>
 </g>
</svg>
