<svg width="800pt" height="259.07pt" version="1.1" viewBox="0 0 800 259.07" xmlns="http://www.w3.org/2000/svg">
 <g transform="matrix(2.0755 0 0 2.0755 101.25 261.97)" fill="#fff">
  <g transform="matrix(19.712 0 0 -19.712 -46.538 -125.49)">
   <path d="m0 0h0.471v-0.246c0.13 0.174 0.337 0.282 0.587 0.282 0.449 0 0.757-0.326 0.757-0.772v-1.13h-0.471v1.047c0 0.25-0.181 0.428-0.435 0.428-0.253 0-0.438-0.178-0.438-0.428v-1.047h-0.471z" fill="#fff"/>
  </g>
  <g transform="matrix(19.712 0 0 -19.712 14.177 -96.514)">
   <path d="m0 0c0.29 0 0.511 0.232 0.511 0.54 0 0.304-0.221 0.536-0.511 0.536s-0.507-0.232-0.507-0.536c0-0.308 0.217-0.54 0.507-0.54m0 1.507c0.565 0 0.996-0.42 0.996-0.967 0-0.551-0.431-0.971-0.996-0.971s-0.996 0.42-0.996 0.971c0 0.547 0.431 0.967 0.996 0.967" fill="#fff"/>
  </g>
  <g transform="matrix(19.712 0 0 -19.712 33.495 -125.49)">
   <path d="m0 0h0.507l0.515-1.373 0.518 1.373h0.474l-0.742-1.866h-0.529z" fill="#fff"/>
  </g>
  <g transform="matrix(19.712 0 0 -19.712 92.829 -96.514)">
   <path d="m0 0c0.29 0 0.511 0.232 0.511 0.54 0 0.304-0.221 0.536-0.511 0.536s-0.507-0.232-0.507-0.536c0-0.308 0.217-0.54 0.507-0.54m0.511-0.163c-0.149-0.167-0.355-0.268-0.605-0.268-0.511 0-0.902 0.42-0.902 0.971 0 0.547 0.391 0.967 0.902 0.967 0.25 0 0.456-0.101 0.605-0.272v0.236h0.471v-1.866h-0.471z" fill="#fff"/>
  </g>
  <g transform="matrix(19.712 0 0 -19.712 -31.753 -25.352)">
   <path d="m0 0c0.055-0.251 0.216-0.382 0.522-0.382 0.262 0 0.427 0.101 0.427 0.277 0 0.602-1.738 0.195-1.738 1.476 0 0.618 0.568 1.08 1.286 1.08 0.733 0 1.226-0.397 1.311-0.989l-0.864-0.176c-0.055 0.261-0.206 0.381-0.477 0.381-0.231 0-0.371-0.1-0.371-0.271 0-0.552 1.737-0.15 1.737-1.476 0-0.618-0.583-1.085-1.336-1.085-0.758 0-1.286 0.412-1.361 0.994z" fill="#fff"/>
  </g>
  <g transform="matrix(19.712 0 0 -19.712 45.914 -39.545)">
   <path d="m0 0c0.291 0 0.477 0.196 0.477 0.462 0 0.271-0.186 0.467-0.477 0.467h-0.698v-0.929zm-1.552 1.682h1.552c0.834 0 1.361-0.522 1.361-1.23s-0.527-1.205-1.361-1.205h-0.698v-1.08h-0.854z" fill="#fff"/>
  </g>
  <g transform="matrix(19.712 0 0 -19.712 115.7 -17.862)">
   <path d="m0 0c0.553 0 0.974 0.447 0.974 1.025 0 0.577-0.421 1.024-0.974 1.024s-0.974-0.447-0.974-1.024c0-0.578 0.421-1.025 0.974-1.025m0 2.832c1.05 0 1.858-0.788 1.858-1.807 0-1.02-0.808-1.809-1.858-1.809s-1.858 0.789-1.858 1.809c0 1.019 0.808 1.807 1.858 1.807" fill="#fff"/>
  </g>
  <g transform="matrix(19.712 0 0 -19.712 192.97 -41.517)">
   <path d="m0 0c0.256 0 0.422 0.176 0.422 0.412 0 0.241-0.166 0.417-0.422 0.417h-0.703v-0.829zm-0.357-0.778h-0.346v-1.155h-0.854v3.515h1.557c0.799 0 1.306-0.502 1.306-1.18 0-0.492-0.271-0.889-0.718-1.075l0.818-1.26h-1.014z" fill="#fff"/>
  </g>
  <g transform="matrix(19.712 0 0 -19.712 243.04 -57.878)">
   <path d="m0 0h-1.029v0.753h2.912v-0.753h-1.029v-2.762h-0.854z" fill="#fff"/>
  </g>
 </g>
 <g transform="matrix(2.0582 0 0 2.0582 -81.983 -84.517)">
  <path d="m379.94 96.01h46.12v14.96l-13.02 13.07c5.77 1.79 11.06 5.7 13.52 11.34 3.59 8.11 2.35 18.71-4.34 24.88-5.6717 4.8598-11.251 6.68-20.27 6.68-6.7162 0-14.08-1.88-19.01-6.87-4.1013-4.5304-6.05-10.09-6.48-15.86l17.46-1.99c0.21 2.98 0.98 6.37 3.79 7.97 3.32 1.79 7.79 1.66 10.88-0.56 4.09-3.4 2.71-10.98-2.2-12.92-3.3089-1.3045-9.0349-1.14-13.515-1.14v-12.66l11.955-11.91h-24.89z" fill="#cbc912"/>
 </g>
</svg>
