<svg width="962.35" height="254.11" version="1.1" viewBox="0 0 962.35 254.11" xml:space="preserve" xmlns="http://www.w3.org/2000/svg"><defs><clipPath id="clipPath8594"><path d="m227.85 608.8h19.059v18.68h-19.059z"/></clipPath><clipPath id="clipPath8602"><path d="m228.7 627.09h17.389v-10.856h-17.389z"/></clipPath><clipPath id="clipPath8606"><path d="m228.7 616.23h17.389v10.856h-17.389z"/></clipPath><clipPath id="clipPath8610"><path d="m227.51 627.09h18.577v-11.891h-18.577z"/></clipPath><clipPath id="clipPath8614"><path d="m237.61 627.09c-0.531-2e-3 -1.063-0.058-1.583-0.163-4.714-1.027-8.52-6.055-6.988-10.36 0 0 0.712-1.365 1.734 1.437 1.443 3.917 6.41 5.569 10.504 4.369 0.687-0.161 2.012-0.783 3.398-1.644 0.907-0.564 1.326-1.295 1.409-0.624-0.558 3.329-3.336 5.981-6.892 6.824-0.507 0.109-1.025 0.161-1.543 0.161h-0.039"/></clipPath><mask id="mask8624" x="0" y="0" width="1" height="1" maskUnits="userSpaceOnUse"/><linearGradient id="linearGradient8642" x2="1" gradientTransform="matrix(1.605 11.816 11.816 -1.605 236.8 615.24)" gradientUnits="userSpaceOnUse"><stop offset="0"/><stop stop-color="#fff" offset="1"/></linearGradient><mask id="mask8644" x="0" y="0" width="1" height="1" maskUnits="userSpaceOnUse"><g clip-path="url(#clipPath8602)" opacity=".8"><g clip-path="url(#clipPath8606)"><g clip-path="url(#clipPath8610)"><g clip-path="url(#clipPath8614)"><g mask="url(#mask8624)"><path d="m237.61 627.09c-0.531-2e-3 -1.063-0.058-1.583-0.163-4.714-1.027-8.52-6.055-6.988-10.36 0 0 0.712-1.365 1.734 1.437 1.443 3.917 6.41 5.569 10.504 4.369 0.687-0.161 2.012-0.783 3.398-1.644 0.907-0.564 1.326-1.295 1.409-0.624-0.558 3.329-3.336 5.981-6.892 6.824-0.507 0.109-1.025 0.161-1.543 0.161h-0.039" fill="url(#linearGradient8642)"/></g></g></g></g></g></mask><clipPath id="clipPath8682"><path d="m228.7 627.09h17.389v-10.856h-17.389z"/></clipPath><linearGradient id="linearGradient8692" x2="1" gradientTransform="matrix(1.605 11.816 11.816 -1.605 236.8 615.24)" gradientUnits="userSpaceOnUse"><stop stop-color="#fff" offset="0"/><stop stop-color="#fff" offset="1"/></linearGradient><clipPath id="clipPath8714"><path d="m228.72 626.87h16.051v-14.912h-16.051z"/></clipPath><clipPath id="clipPath8718"><path d="m228.72 611.96h16.051v14.912h-16.051z"/></clipPath><clipPath id="clipPath8722"><path d="m228.61 626.93h16.272v-15.007h-16.272z"/></clipPath><clipPath id="clipPath8726"><path d="m237.44 626.87c-4.928-0.108-8.831-4.293-8.719-9.349 0.037-1.636 0.49-3.161 1.251-4.475 1.477-0.726 3.176-1.123 4.976-1.083 5.536 0.121 9.933 4.317 9.82 9.372-0.018 0.829-0.157 1.63-0.4 2.389-1.643 1.932-4.059 3.149-6.737 3.149-0.064 0-0.128-1e-3 -0.191-3e-3"/></clipPath><mask id="mask8736" x="0" y="0" width="1" height="1" maskUnits="userSpaceOnUse"/><linearGradient id="linearGradient8754" x2="1" gradientTransform="matrix(12.972 12.207 12.207 -12.972 229.89 613.14)" gradientUnits="userSpaceOnUse"><stop offset="0"/><stop stop-color="#fff" offset="1"/></linearGradient><mask id="mask8756" x="0" y="0" width="1" height="1" maskUnits="userSpaceOnUse"><g clip-path="url(#clipPath8714)" opacity=".8"><g clip-path="url(#clipPath8718)"><g clip-path="url(#clipPath8722)"><g clip-path="url(#clipPath8726)"><g mask="url(#mask8736)"><path d="m237.44 626.87c-4.928-0.108-8.831-4.293-8.719-9.349 0.037-1.636 0.49-3.161 1.251-4.475 1.477-0.726 3.176-1.123 4.976-1.083 5.536 0.121 9.933 4.317 9.82 9.372-0.018 0.829-0.157 1.63-0.4 2.389-1.643 1.932-4.059 3.149-6.737 3.149-0.064 0-0.128-1e-3 -0.191-3e-3" fill="url(#linearGradient8754)"/></g></g></g></g></g></mask><clipPath id="clipPath8794"><path d="m228.72 626.87h16.051v-14.912h-16.051z"/></clipPath><linearGradient id="linearGradient8804" x2="1" gradientTransform="matrix(12.972 12.207 12.207 -12.972 229.89 613.14)" gradientUnits="userSpaceOnUse"><stop stop-color="#fff" offset="0"/><stop stop-color="#fff" offset="1"/></linearGradient></defs><g transform="matrix(1.3333 0 0 -1.3333 -824.73 2405.3)"><g transform="matrix(1.1722 0 0 1.1722 -106.52 -277.83)"><g transform="matrix(23.518 0 0 23.518 640.98 1643.7)"><path d="m0 0c0.061-0.278 0.239-0.422 0.577-0.422 0.289 0 0.472 0.111 0.472 0.305 0 0.666-1.92 0.217-1.92 1.632 0 0.683 0.627 1.193 1.42 1.193 0.811 0 1.355-0.438 1.449-1.093l-0.955-0.194c-0.061 0.288-0.227 0.422-0.527 0.422-0.255 0-0.411-0.112-0.411-0.3 0-0.611 1.921-0.167 1.921-1.632 0-0.683-0.644-1.199-1.477-1.199-0.838 0-1.42 0.455-1.503 1.099z"/></g><g transform="matrix(23.518 0 0 23.518 701.54 1706.1)"><path d="m0 0h1.715c0.921 0 1.504-0.577 1.504-1.36 0-0.782-0.583-1.332-1.504-1.332h-0.772v-1.193h-0.943zm1.715-1.859c0.322 0 0.527 0.216 0.527 0.51 0 0.3-0.205 0.517-0.527 0.517h-0.772v-1.027z"/></g><g transform="matrix(23.518 0 0 23.518 832.58 1707.4)"><path d="m0 0c1.16 0 2.053-0.871 2.053-1.998s-0.893-1.998-2.053-1.998-2.053 0.871-2.053 1.998 0.893 1.998 2.053 1.998m0-3.13c0.611 0 1.077 0.494 1.077 1.132s-0.466 1.132-1.077 1.132c-0.61 0-1.077-0.494-1.077-1.132s0.467-1.132 1.077-1.132"/></g><g transform="matrix(23.518 0 0 23.518 923.68 1644.7)"><path d="m0 0h-0.383v-1.276h-0.943v3.884h1.72c0.882 0 1.443-0.554 1.443-1.304 0-0.544-0.3-0.982-0.794-1.187l0.905-1.393h-1.121zm0.394 0.86c0.283 0 0.466 0.195 0.466 0.455 0 0.267-0.183 0.461-0.466 0.461h-0.777v-0.916z"/></g><path d="m1000.2 1686.5h-26.764v19.567h75.706v-19.567h-26.74v-71.778h-22.201z"/><path d="m622.15 1775h12.088v-6.3264c3.3631 4.4685 8.6783 7.2671 15.099 7.2671 11.524 0 19.45-8.396 19.45-19.826v-29.045h-12.112v26.905c0 6.4205-4.6566 10.983-11.171 10.983s-11.265-4.5626-11.265-10.983v-26.905h-12.088z"/><path d="m701.29 1776c14.511 0 25.588-10.795 25.588-24.859 0-14.134-11.077-24.929-25.588-24.929s-25.588 10.795-25.588 24.929c0 14.064 11.077 24.859 25.588 24.859m0-38.711c7.4553 0 13.123 5.9501 13.123 13.852 0 7.8316-5.6679 13.782-13.123 13.782s-13.029-5.9502-13.029-13.782c0-7.9022 5.5738-13.852 13.029-13.852"/><path d="m726.42 1775h13.029l13.217-35.278 13.311 35.278h12.182l-19.073-47.93h-13.594z"/><path d="m816.7 1733c-3.81-4.2803-9.1251-6.8909-15.546-6.8909-13.123 0-23.166 10.795-23.166 24.953 0 14.04 10.042 24.835 23.166 24.835 6.4205 0 11.736-2.5871 15.546-6.9615v6.0442h12.112v-47.93h-12.112zm-13.123 4.1863c7.4553 0 13.123 5.9501 13.123 13.876 0 7.8081-5.6679 13.782-13.123 13.782-7.4553 0-13.029-5.9736-13.029-13.782 0-7.9257 5.5738-13.876 13.029-13.876"/></g><g transform="matrix(27.568 0 0 27.568 1128.9 1654.7)"><path d="m0 0 1.865 2.387 5e-3 -6e-3v6e-3h0.944v-2.387h0.438v-0.832h-0.438v-0.666h-0.944v0.666h-1.87zm1.87 0v1.099l-0.86-1.099z" fill="#748ec3"/></g><g clip-path="url(#clipPath8594)"><g mask="url(#mask8644)"><g clip-path="url(#clipPath8682)" opacity=".8"><path d="m237.61 627.09c-0.531-2e-3 -1.063-0.058-1.583-0.163-3.97-0.865-7.295-4.567-7.332-8.285v-0.128c8e-3 -0.655 0.117-1.309 0.344-1.947 0 0 0.712-1.365 1.734 1.437 1.443 3.917 6.41 5.569 10.504 4.369 0.687-0.161 2.012-0.783 3.398-1.644 0.907-0.564 1.326-1.295 1.409-0.624-0.558 3.329-3.336 5.981-6.892 6.824-0.498 0.107-1.005 0.159-1.513 0.161z" fill="url(#linearGradient8692)"/></g></g><g mask="url(#mask8756)"><g clip-path="url(#clipPath8794)" opacity=".8"><path d="m237.57 626.87c-0.042 0-0.085-1e-3 -0.127-2e-3 -4.825-0.106-8.668-4.121-8.721-9.035v-0.204c0-0.036 1e-3 -0.073 2e-3 -0.11 0.037-1.636 0.49-3.161 1.251-4.475 1.41-0.693 3.021-1.086 4.73-1.086h1e-3c0.082 0 0.163 1e-3 0.245 3e-3 5.443 0.119 9.783 4.176 9.822 9.116v0.139c0 0.039-1e-3 0.078-2e-3 0.117-0.018 0.829-0.157 1.63-0.4 2.389-1.63 1.916-4.019 3.128-6.672 3.148z" fill="url(#linearGradient8804)"/></g></g></g><g transform="matrix(4.3892 0 0 -4.3892 643.54 1800.3)"><path d="m133.01 18.516h3.0346v4.9134h5.3676v-4.9134h3.0347v12.515h-3.0347v-4.9235h-5.3676v4.9235h-3.0346z"/><path d="m152.06 28.343c2.1305 0 3.5381-1.5002 3.5381-3.5743 0-2.0943-1.4076-3.5743-3.5381-3.5743h-1.8929v7.1487zm-4.9366-9.8269h5.2014c3.7213 0 6.4187 2.7185 6.4187 6.2526s-2.6974 6.2526-6.4187 6.2526h-5.2014z"/></g></g></svg>
