<svg width="800" height="359.67" version="1.1" viewBox="0 0 800 359.67" xml:space="preserve" xmlns="http://www.w3.org/2000/svg"><defs><clipPath id="clipPath8594"><path d="m227.85 608.8h19.059v18.68h-19.059z"/></clipPath><clipPath id="clipPath8602"><path d="m228.7 627.09h17.389v-10.856h-17.389z"/></clipPath><clipPath id="clipPath8606"><path d="m228.7 616.23h17.389v10.856h-17.389z"/></clipPath><clipPath id="clipPath8610"><path d="m227.51 627.09h18.577v-11.891h-18.577z"/></clipPath><clipPath id="clipPath8614"><path d="m237.61 627.09c-0.531-2e-3 -1.063-0.058-1.583-0.163-4.714-1.027-8.52-6.055-6.988-10.36 0 0 0.712-1.365 1.734 1.437 1.443 3.917 6.41 5.569 10.504 4.369 0.687-0.161 2.012-0.783 3.398-1.644 0.907-0.564 1.326-1.295 1.409-0.624-0.558 3.329-3.336 5.981-6.892 6.824-0.507 0.109-1.025 0.161-1.543 0.161h-0.039"/></clipPath><mask id="mask8624" x="0" y="0" width="1" height="1" maskUnits="userSpaceOnUse"/><linearGradient id="linearGradient8642" x2="1" gradientTransform="matrix(1.605 11.816 11.816 -1.605 236.8 615.24)" gradientUnits="userSpaceOnUse"><stop offset="0"/><stop stop-color="#fff" offset="1"/></linearGradient><mask id="mask8644" x="0" y="0" width="1" height="1" maskUnits="userSpaceOnUse"><g clip-path="url(#clipPath8602)" opacity=".8"><g clip-path="url(#clipPath8606)"><g clip-path="url(#clipPath8610)"><g clip-path="url(#clipPath8614)"><g mask="url(#mask8624)"><path d="m237.61 627.09c-0.531-2e-3 -1.063-0.058-1.583-0.163-4.714-1.027-8.52-6.055-6.988-10.36 0 0 0.712-1.365 1.734 1.437 1.443 3.917 6.41 5.569 10.504 4.369 0.687-0.161 2.012-0.783 3.398-1.644 0.907-0.564 1.326-1.295 1.409-0.624-0.558 3.329-3.336 5.981-6.892 6.824-0.507 0.109-1.025 0.161-1.543 0.161h-0.039" fill="url(#linearGradient8642)"/></g></g></g></g></g></mask><clipPath id="clipPath8682"><path d="m228.7 627.09h17.389v-10.856h-17.389z"/></clipPath><linearGradient id="linearGradient8692" x2="1" gradientTransform="matrix(1.605 11.816 11.816 -1.605 236.8 615.24)" gradientUnits="userSpaceOnUse"><stop stop-color="#fff" offset="0"/><stop stop-color="#fff" offset="1"/></linearGradient><clipPath id="clipPath8714"><path d="m228.72 626.87h16.051v-14.912h-16.051z"/></clipPath><clipPath id="clipPath8718"><path d="m228.72 611.96h16.051v14.912h-16.051z"/></clipPath><clipPath id="clipPath8722"><path d="m228.61 626.93h16.272v-15.007h-16.272z"/></clipPath><clipPath id="clipPath8726"><path d="m237.44 626.87c-4.928-0.108-8.831-4.293-8.719-9.349 0.037-1.636 0.49-3.161 1.251-4.475 1.477-0.726 3.176-1.123 4.976-1.083 5.536 0.121 9.933 4.317 9.82 9.372-0.018 0.829-0.157 1.63-0.4 2.389-1.643 1.932-4.059 3.149-6.737 3.149-0.064 0-0.128-1e-3 -0.191-3e-3"/></clipPath><mask id="mask8736" x="0" y="0" width="1" height="1" maskUnits="userSpaceOnUse"/><linearGradient id="linearGradient8754" x2="1" gradientTransform="matrix(12.972 12.207 12.207 -12.972 229.89 613.14)" gradientUnits="userSpaceOnUse"><stop offset="0"/><stop stop-color="#fff" offset="1"/></linearGradient><mask id="mask8756" x="0" y="0" width="1" height="1" maskUnits="userSpaceOnUse"><g clip-path="url(#clipPath8714)" opacity=".8"><g clip-path="url(#clipPath8718)"><g clip-path="url(#clipPath8722)"><g clip-path="url(#clipPath8726)"><g mask="url(#mask8736)"><path d="m237.44 626.87c-4.928-0.108-8.831-4.293-8.719-9.349 0.037-1.636 0.49-3.161 1.251-4.475 1.477-0.726 3.176-1.123 4.976-1.083 5.536 0.121 9.933 4.317 9.82 9.372-0.018 0.829-0.157 1.63-0.4 2.389-1.643 1.932-4.059 3.149-6.737 3.149-0.064 0-0.128-1e-3 -0.191-3e-3" fill="url(#linearGradient8754)"/></g></g></g></g></g></mask><clipPath id="clipPath8794"><path d="m228.72 626.87h16.051v-14.912h-16.051z"/></clipPath><linearGradient id="linearGradient8804" x2="1" gradientTransform="matrix(12.972 12.207 12.207 -12.972 229.89 613.14)" gradientUnits="userSpaceOnUse"><stop stop-color="#fff" offset="0"/><stop stop-color="#fff" offset="1"/></linearGradient></defs><g transform="matrix(1.3333 0 0 -1.3333 -755.39 1861.8)"><path d="m1166.5 1126.6h-600v269.76h600z"/><g fill="#fff"><path d="m640.99 1209.8c1.4346-6.5381 5.6209-9.9247 13.57-9.9247 6.7968 0 11.101 2.6105 11.101 7.1731 0 15.663-45.155 5.1034-45.155 38.382 0 16.063 14.746 28.057 33.396 28.057 19.073 0 31.867-10.301 34.078-25.706l-22.46-4.5625c-1.4346 6.7733-5.3387 9.9247-12.394 9.9247-5.9972 0-9.666-2.6105-9.666-7.0555 0-14.37 45.179-3.9276 45.179-38.382 0-16.04-15.146-28.198-34.737-28.198-19.708 0-33.396 10.701-35.372 25.847z"/><path d="m701.55 1272.2h40.334c21.66 0 35.372-13.57 35.372-31.985 0-18.391-13.711-31.326-35.372-31.326h-18.156v-28.057h-22.178zm40.334-43.721c7.5729 0 12.394 5.08 12.394 11.994 0 7.0555-4.8213 12.159-12.394 12.159h-18.156v-24.153z"/><path d="m832.58 1273.5c27.281 0 48.283-20.484 48.283-46.99 0-26.505-21.002-46.99-48.283-46.99s-48.307 20.484-48.307 46.99c0 26.505 21.025 46.99 48.307 46.99m0-73.612c14.37 0 25.329 11.618 25.329 26.623s-10.96 26.623-25.329 26.623c-14.346 0-25.329-11.618-25.329-26.623s10.983-26.623 25.329-26.623"/><path d="m923.68 1210.9h-9.0075v-30.009h-22.178v91.345h40.452c20.743 0 33.937-13.053 33.937-30.668 0-12.794-7.0555-23.095-18.674-27.916l21.284-32.761h-26.364zm9.2662 20.226c6.6557 0 10.96 4.5861 10.96 10.701 0 6.2794-4.3039 10.842-10.96 10.842h-18.274v-21.543z"/><path d="m1000.2 1252.6h-26.764v19.567h75.706v-19.567h-26.74v-71.778h-22.201z"/><path d="m622.15 1341.2h12.088v-6.3264c3.3631 4.4685 8.6783 7.2671 15.099 7.2671 11.524 0 19.45-8.396 19.45-19.826v-29.045h-12.112v26.905c0 6.4205-4.6566 10.983-11.171 10.983s-11.265-4.5626-11.265-10.983v-26.905h-12.088z"/><path d="m701.29 1342.1c14.511 0 25.588-10.795 25.588-24.859 0-14.134-11.077-24.929-25.588-24.929s-25.588 10.795-25.588 24.929c0 14.064 11.077 24.859 25.588 24.859m0-38.711c7.4553 0 13.123 5.9501 13.123 13.852 0 7.8316-5.6679 13.782-13.123 13.782s-13.029-5.9502-13.029-13.782c0-7.9022 5.5738-13.852 13.029-13.852"/><path d="m726.42 1341.2h13.029l13.217-35.278 13.311 35.278h12.182l-19.073-47.93h-13.594z"/><path d="m816.7 1299.2c-3.81-4.2803-9.1251-6.8909-15.546-6.8909-13.123 0-23.166 10.795-23.166 24.953 0 14.04 10.042 24.859 23.166 24.859 6.4205 0 11.736-2.6106 15.546-6.985v6.0442h12.112v-47.93h-12.112zm-13.123 4.1863c7.4553 0 13.123 5.9501 13.123 13.876 0 7.8081-5.6679 13.782-13.123 13.782-7.4553 0-13.029-5.9736-13.029-13.782 0-7.9257 5.5738-13.876 13.029-13.876"/></g><path d="m1080.6 1210.6c0-8.2314 4.5626-11.994 11.101-11.994 7.5729 0 10.818 4.3039 10.818 9.2663 0 6.3734-3.6453 11.477-13.946 11.477h-9.4073v16.58l15.546 15.404h-32.502v19.567h60.042v-19.567l-17.239-17.121c11.218-3.1279 20.484-12.253 20.484-26.999 0-18.156-13.97-28.975-33.937-28.975-19.708 0-32.62 10.183-33.937 29.751z" fill="#d5ca00"/><g clip-path="url(#clipPath8594)"><g mask="url(#mask8644)"><g clip-path="url(#clipPath8682)" opacity=".8"><path d="m237.61 627.09c-0.531-2e-3 -1.063-0.058-1.583-0.163-3.97-0.865-7.295-4.567-7.332-8.285v-0.128c8e-3 -0.655 0.117-1.309 0.344-1.947 0 0 0.712-1.365 1.734 1.437 1.443 3.917 6.41 5.569 10.504 4.369 0.687-0.161 2.012-0.783 3.398-1.644 0.907-0.564 1.326-1.295 1.409-0.624-0.558 3.329-3.336 5.981-6.892 6.824-0.498 0.107-1.005 0.159-1.513 0.161z" fill="url(#linearGradient8692)"/></g></g><g mask="url(#mask8756)"><g clip-path="url(#clipPath8794)" opacity=".8"><path d="m237.57 626.87c-0.042 0-0.085-1e-3 -0.127-2e-3 -4.825-0.106-8.668-4.121-8.721-9.035v-0.204c0-0.036 1e-3 -0.073 2e-3 -0.11 0.037-1.636 0.49-3.161 1.251-4.475 1.41-0.693 3.021-1.086 4.73-1.086h1e-3c0.082 0 0.163 1e-3 0.245 3e-3 5.443 0.119 9.783 4.176 9.822 9.116v0.139c0 0.039-1e-3 0.078-2e-3 0.117-0.018 0.829-0.157 1.63-0.4 2.389-1.63 1.916-4.019 3.128-6.672 3.148z" fill="url(#linearGradient8804)"/></g></g></g></g></svg>
