<svg width="600pt" height="138.9pt" version="1.1" viewBox="0 0 600 138.9" xmlns="http://www.w3.org/2000/svg">
 <path d="m580.22 122.76c-1.5482 8.515-9.2767 15.542-17.92 16.146h-292.64l22.445-110.21h307.9l-19.779 94.069" fill="#ff7500" stroke-width=".41395"/>
 <path d="m19.779 16.146c1.5482-8.515 9.2767-15.542 17.92-16.146h289.87l-22.445 110.21h-305.13l19.779-94.069" stroke-width=".41395"/>
 <g transform="matrix(.41395 0 0 .41395 -31.001 -34.977)" fill="#fff" stroke-width="1.9722">
  <path d="m235.75 250.42c24.736 0 34.007-21.001 34.007-41.764 0-21.9-9.2704-42.993-34.007-42.993-24.596 0-33.913 21.095-33.913 42.993 0 20.764 9.3177 41.764 33.913 41.764m0-107.89c38.69 0 61.44 28.947 61.44 66.124 0 36.041-22.75 64.846-61.44 64.846-38.737 0-61.44-28.805-61.44-64.846 0-37.177 22.703-66.124 61.44-66.124"/>
  <path d="m309.6 180.03h23.649v16.838h0.28379c4.6352-11.304 16.838-19.25 28.899-19.25l5.4866 0.80406v23.223l-8.9866-0.94595c-18.21 0-24.454 13.149-24.454 29.089v40.723h-24.878z"/>
  <path d="m430.54 226.35c-4.2569 3.5-12.912 3.7366-20.669 5.1081-7.6622 1.6081-14.71 4.2096-14.71 13.338 0 9.3177 7.1892 11.588 15.23 11.588 19.439 0 20.148-15.466 20.148-20.906zm-57.471-18.446c1.5136-23.318 22.277-30.317 42.616-30.317 18.021 0 39.731 4.0676 39.731 25.777v47.014c0 8.2771 0.89867 16.507 3.1217 20.101h-25.209l-1.75-8.7501c-7.8515 8.3245-19.439 11.257-30.507 11.257-17.075 0-30.743-8.5609-30.743-27.103 0-20.527 15.419-25.399 30.743-27.479 15.23-2.2703 29.467-1.7027 29.467-11.919 0-10.737-7.3786-12.203-16.176-12.203-9.4124 0-15.514 3.7838-16.318 13.622z"/>
  <path d="m471.05 180.03h23.649v12.676h0.56757c6.2434-10.169 17.075-15.088 27.574-15.088 26.44 0 33.108 14.852 33.108 37.319v55.574h-24.87v-51.036c0-14.852-4.304-22.182-15.892-22.182-13.575 0-19.298 7.473-19.298 25.872v47.346h-24.831z"/>
  <path d="m634.6 224.06c0-14.71-5.1081-27.763-21.143-27.763-14.048 0-20.148 12.25-20.148 25.635 0 13.007 4.8716 27.197 20.148 27.197 14.095 0 21.143-12.108 21.143-25.067m23.649 40.628c0 14.852-5.2501 40.11-46.92 40.11-17.831 0-38.642-8.5136-39.92-28.994h24.641c2.3176 9.1286 9.7906 12.298 18.588 12.298 13.764 0 20.148-9.365 19.959-22.371v-11.919h-0.28378c-5.5339 9.4597-16.365 14.048-27.245 14.048-27.055 0-38.642-20.717-38.642-45.5 0-23.507 13.527-44.839 38.832-44.839 11.919 0 21.048 4.0676 27.055 14.568h0.28378v-12.156h23.649z"/>
  <path d="m735.56 215.51c-2.3176-12.439-7.6622-19.156-19.77-19.156-15.798 0-20.338 12.25-20.717 19.156zm-40.486 15.703c0.75677 15.798 8.4191 23.081 22.277 23.081 9.98 0 18.02-6.1487 19.629-11.73h21.9c-7.0474 21.379-21.9 30.412-42.38 30.412-28.521 0-46.257-19.676-46.257-47.63 0-27.103 18.73-47.772 46.257-47.772 30.791 0 45.689 25.919 43.94 53.635z"/>
 </g>
 <g transform="matrix(.41395 0 0 .41395 -31.001 -34.977)" fill="#fff">
  <path d="m942.13 227.08c7.95-9.17 20-13.71 31.84-14.92 14.06-1.18 29.18 0.81 41.07 8.89 10.05 6.64 15.43 18.835 14.98 30.705h-26.38c-0.57-4.47-1.59-9.225-4.95-12.475-4.54-4.71-11.4-5.86-17.65-6.05-5.44-0.19-11.27 0.65-15.68 4.08-4.46 3.37-5.89 9.94-3.58 14.96 2.04 3.45 6.07 4.88 9.63 6.23 8.44 2.82 17.12 4.82 25.74 7.02 10.37 2.23 21.05 5.9 28.58 13.72 13.46 14.03 10.49 39.24-4.61 50.96-10.9 8.87-25.47 11.29-39.15 11.32-14.62-0.28-30.22-4.03-40.83-14.71-7.91-7.58-11.46-18.785-11.17-29.565h26.43c0.3 5.6 1.7 11.505 5.92 15.495 6.69 6.63 16.75 7.85 25.72 7.17 5.44-0.53 11.17-1.81 15.41-5.48 4.55-3.86 5.68-11.22 2.23-16.15-2.73-3.81-7.16-5.85-11.44-7.4-13.43-4.63-27.86-6.17-40.79-12.28-7.84-3.67-14.97-9.91-17.64-18.38-3.45-11.13-1.57-24.27 6.32-33.14z"/>
  <path d="m1336.7 222.01c8.25 0 16.505-0.04 24.765 0-0.01 8.41-0.01 16.83 0 25.24 6 0.01 11.988-0.04 17.998 0-0.03 6.58 0 13.18 0 19.75-6 0.02-12.008-0.01-17.998 0-0.01 14.67 0.01 29.33 0 43.99 0.03 2.91 0.455 6.69 3.565 7.95 4.6 1.77 9.6825 0.95 14.432 0.32v19.46c-6.75 0.94-13.602 0.92-20.402 0.67-6.58-0.5-13.84-1.96-18.3-7.26-3.5-4.19-4.31-9.87-4.06-15.15 0.04-16.66-0.01-33.32 0-49.98-5.01-0.03-9.985 0.02-14.975 0 0.01-6.58-0.07-13.17 0-19.75 4.98 0.01 9.975 0 14.975 0z"/>
  <path d="m1071 260.44c4.04-6.48 10.55-11.47 18.09-13.05 11.87-2.5 25.29-0.27 34.56 7.93 9.34 8.11 13.67 20.54 14.74 32.57 1.38 14.37-1.54 29.99-11.28 41.1-9.37 10.93-25.56 14.57-39.05 10.21-6.39-2.09-12.025-6.31-15.805-11.86v42.655h-24.745v-121.24h23.49v11.69m17.49 5.08c-5.91 0.93-10.98 5.09-13.47 10.45-4.01 8.37-4.22 18.09-2.79 27.1 1.18 6.47 4.3 13.03 10.14 16.48 8.15 4.68 19.93 3.27 25.77-4.45 4.5-5.98 5.7-13.77 5.66-21.08 0.1-7.81-1.54-16.07-6.54-22.28-4.41-5.48-12.03-7.45-18.77-6.22z"/>
  <path d="m1186.2 247.35c14.17-2.46 29.99-0.24 41.31 9.2 9.34 7.63 14.42 19.48 15.38 31.34 1.08 12.08-0.99 24.91-8.06 35-6.14 9.01-16.17 14.95-26.78 16.98-13.46 2.59-28.31 0.82-39.71-7.18-9.72-6.8-15.68-18.05-17.32-29.66-1.88-12.87-0.1-26.77 7.16-37.8 6.28-9.58 16.78-15.99 28.02-17.88m6.27 18.17c-9.15 1.22-15.03 9.84-16.38 18.41-1.59 9.77-1.51 20.58 3.66 29.35 6.76 11.65 25.97 11.99 33.42 0.87 4.74-7.02 5.43-15.88 5.04-24.11-0.49-7.07-2.33-14.6-7.54-19.71-4.74-4.65-11.85-5.81-18.2-4.81z"/>
  <path d="m1278.5 265.19c5.66-12.71 20.42-21.4 34.28-17.97v20.02c-7.68-1.28-16.53-1.65-22.92 3.56-7.82 6.22-9.98 16.84-10.29 26.32v41.375h-24.765v-89.745h23.735z"/>
 </g>
</svg>
