<svg width="800" height="168.1" version="1.1" viewBox="0 0 800 168.1" xml:space="preserve" xmlns="http://www.w3.org/2000/svg"><g transform="matrix(1.3333 0 0 -1.3333 17.23 1.3444)"><g transform="matrix(20.856 0 0 20.856 2092.3 -5285.9)"><g transform="translate(-73.479 250.14)"><path d="m0 0c0.256-0.019 0.625 0.034 0.622 0.369-1e-3 0.252-0.199 0.389-0.418 0.387-0.302-2e-3 -0.455-0.225-0.449-0.527l-0.566-4e-3c0.017 0.604 0.4 1.018 1.008 1.022 0.47 3e-3 0.988-0.282 0.991-0.807 2e-3 -0.281-0.135-0.521-0.407-0.603v-8e-3c0.324-0.069 0.523-0.332 0.525-0.663 4e-3 -0.617-0.514-0.969-1.084-0.973-0.659-4e-3 -1.106 0.387-1.098 1.063l0.566 4e-3c0.015-0.319 0.176-0.578 0.52-0.576 0.269 2e-3 0.477 0.184 0.475 0.465-3e-3 0.444-0.393 0.433-0.682 0.431l-3e-3 0.42" fill="#11110f"/></g><g transform="translate(-76.515 247.46)"><path d="m 0,0 h -12.688 l 0.868,4.122 c 0.08,0.372 0.446,0.674 0.819,0.674 H 1.687 L 0.819,0.674 C 0.739,0.302 0.372,0 0,0" fill="#f79304"/></g><g transform="translate(-100.94 248.7)"><path d="m 0,0 0.868,4.122 c 0.08,0.372 0.446,0.674 0.819,0.674 H 14.255 L 13.279,0 H 0" fill="#11110f"/></g><g transform="translate(-98.045 252.45)"><path d="m0 0c0.693 0 1.106-0.52 1.106-1.188 0-0.649-0.413-1.169-1.106-1.169s-1.106 0.52-1.106 1.169c0 0.668 0.413 1.188 1.106 1.188zm0-1.941c0.444 0 0.611 0.378 0.611 0.753 0 0.394-0.167 0.772-0.611 0.772s-0.611-0.378-0.611-0.772c0-0.375 0.167-0.753 0.611-0.753" fill="#fff"/></g><g transform="translate(-96.712 251.78)"><path d="m0 0h0.425v-0.303h7e-3c0.085 0.205 0.296 0.347 0.52 0.347l0.097-0.016v-0.416l-0.16 0.016c-0.331 0-0.442-0.233-0.442-0.523v-0.734h-0.447v1.629" fill="#fff"/></g><g transform="translate(-95.568 251.28)"><path d="m0 0c0.025 0.416 0.4 0.545 0.766 0.545 0.324 0 0.715-0.072 0.715-0.463v-0.848c0-0.148 0.016-0.296 0.057-0.362h-0.454l-0.032 0.157c-0.141-0.148-0.346-0.201-0.548-0.201-0.312 0-0.554 0.154-0.554 0.488 6e-3 0.741 1.102 0.344 1.084 0.709 0 0.189-0.133 0.221-0.29 0.221-0.174 0-0.281-0.07-0.296-0.246zm1.034-0.331c-0.076-0.066-0.234-0.069-0.372-0.094-0.139-0.026-0.265-0.076-0.265-0.24s0.129-0.208 0.274-0.208c0.35 0 0.363 0.274 0.363 0.375v0.167" fill="#fff"/></g><g transform="translate(-93.804 251.78)"><path d="m0 0h0.425v-0.227h0.01c0.113 0.186 0.309 0.271 0.498 0.271 0.475 0 0.595-0.268 0.595-0.671v-1.002h-0.447v0.92c0 0.268-0.076 0.4-0.287 0.4-0.243 0-0.347-0.135-0.347-0.466v-0.854h-0.447v1.629" fill="#fff"/></g><g transform="translate(-90.432 250.26)"><path d="m0 0c0-0.268-0.098-0.722-0.844-0.722-0.322 0-0.694 0.155-0.719 0.524h0.444c0.041-0.168 0.174-0.224 0.335-0.224 0.248 0 0.362 0.167 0.359 0.403v0.214h-7e-3c-0.097-0.173-0.289-0.252-0.488-0.252-0.492 0-0.696 0.372-0.696 0.82 0 0.422 0.245 0.806 0.699 0.806 0.214 0 0.375-0.072 0.485-0.261h7e-3v0.217h0.425zm-0.425 0.731c0 0.265-0.092 0.501-0.382 0.501-0.252 0-0.362-0.22-0.362-0.463 0-0.233 0.085-0.489 0.362-0.489 0.256 0 0.382 0.218 0.382 0.451" fill="#fff"/></g><g transform="translate(-89.767 250.86)"><path d="m0 0c0.013-0.287 0.148-0.413 0.4-0.413 0.18 0 0.325 0.111 0.353 0.211h0.394c-0.126-0.387-0.394-0.548-0.762-0.548-0.514 0-0.832 0.353-0.832 0.857 0 0.489 0.337 0.86 0.832 0.86 0.554 0 0.825-0.466 0.79-0.967zm0.728 0.284c-0.041 0.227-0.139 0.346-0.356 0.346-0.29 0-0.362-0.22-0.372-0.346h0.728" fill="#fff"/></g><g transform="translate(-85.058 249.66)"><path d="m0 0c0-0.296 0.231-0.411 0.493-0.411 0.171 0 0.433 0.049 0.433 0.277 0 0.243-0.337 0.277-0.661 0.368-0.33 0.081-0.664 0.221-0.664 0.633 0 0.458 0.43 0.673 0.832 0.673 0.465 0 0.892-0.203 0.892-0.717h-0.474c-0.016 0.265-0.203 0.337-0.44 0.337-0.155 0-0.336-0.066-0.336-0.253 0-0.171 0.106-0.196 0.664-0.337 0.165-0.037 0.661-0.146 0.661-0.648 0-0.408-0.318-0.714-0.926-0.714-0.493 0-0.957 0.243-0.948 0.792h0.474" fill="#fff"/></g><g transform="translate(-83.416 250.54)"><path d="m0 0h0.421v-0.206h6e-3c0.109 0.175 0.281 0.25 0.48 0.25 0.505 0 0.732-0.409 0.732-0.867 0-0.43-0.233-0.832-0.707-0.832-0.196 0-0.374 0.084-0.483 0.243h-6e-3v-0.767h-0.443zm1.197-0.81c0 0.258-0.103 0.52-0.387 0.52-0.29 0-0.383-0.259-0.383-0.52 0-0.262 0.1-0.512 0.386-0.512 0.29 0 0.384 0.25 0.384 0.512" fill="#fff"/></g><g transform="translate(-80.729 250.58)"><path d="m0 0c0.508 0 0.835-0.337 0.835-0.851 0-0.511-0.327-0.848-0.835-0.848-0.505 0-0.832 0.337-0.832 0.848 0 0.514 0.327 0.851 0.832 0.851zm0-1.365c0.302 0 0.393 0.255 0.393 0.514s-0.091 0.518-0.393 0.518c-0.299 0-0.39-0.259-0.39-0.518s0.091-0.514 0.39-0.514" fill="#fff"/></g><g transform="translate(-79.68 250.54)"><path d="m0 0h0.421v-0.299h6e-3c0.084 0.202 0.293 0.343 0.514 0.343l0.097-0.016v-0.355l-0.159 0.016c-0.327 0-0.436-0.287-0.436-0.574v-0.726h-0.443v1.611" fill="#fff"/></g><g transform="translate(-77.762 250.56)"><path d="m0 0h0.324v-0.351h-0.324v-0.77c0-0.15 0.037-0.188 0.187-0.188l0.137 0.013v-0.346l-0.259-0.016c-0.274 0-0.508 0.06-0.508 0.384v0.923h-0.268v0.351h0.268v0.456h0.443v-0.456" fill="#fff"/></g></g></g></svg>
