<svg width="800" height="185.18" version="1.1" viewBox="0 0 800 185.18" xml:space="preserve" xmlns="http://www.w3.org/2000/svg"><defs><clipPath id="clipPath9216-9"><path d="m764.69 198.16h26.184v6.062h-26.184v-6.062"/></clipPath><clipPath id="clipPath9222-9"><path d="m1133.9 566.93h-1133.9v-566.93h1133.9z"/></clipPath><clipPath id="clipPath9228-7"><path d="m0.015015 566.96h1133.8v-566.94h-1133.8z"/></clipPath></defs><g transform="matrix(1.3333 0 0 -1.3333 17.23 419.98)"><g transform="matrix(22.915 0 0 22.915 2270.5 -6403.6)"><g transform="translate(-864.34 88.984)"><g clip-path="url(#clipPath9216-9)"><g clip-path="url(#clipPath9222-9)"><g clip-path="url(#clipPath9228-7)"><g transform="translate(789.18 198.16)"><path d="m0 0h-12.722l0.87 4.133c0.08 0.373 0.448 0.676 0.821 0.676h12.722l-0.87-4.133c-0.08-0.373-0.448-0.676-0.821-0.676" fill="#f79304"/></g><g transform="translate(764.69 199.41)"><path d="M 0,0 0.87,4.133 C 0.95,4.506 1.318,4.809 1.691,4.809 H 14.293 L 13.314,0 H 0" fill="#fff"/></g></g></g></g></g><g transform="translate(-96.745 290.21)"><path d="m0 0c0.445 0 0.613 0.379 0.613 0.755 0 0.395-0.168 0.774-0.613 0.774s-0.613-0.379-0.613-0.774c0-0.376 0.168-0.755 0.613-0.755m0 1.946c0.695 0 1.109-0.521 1.109-1.191 0-0.651-0.414-1.172-1.109-1.172s-1.109 0.521-1.109 1.172c0 0.67 0.414 1.191 1.109 1.191" fill="#11110f"/></g><g transform="translate(-95.408 291.48)"><path d="m0 0h0.427v-0.303h6e-3c0.085 0.205 0.297 0.347 0.521 0.347l0.098-0.016v-0.417l-0.161 0.016c-0.332 0-0.442-0.234-0.442-0.524v-0.736h-0.449v1.633" fill="#11110f"/></g><g transform="translate(-93.225 290.64)"><path d="m0 0c-0.076-0.066-0.234-0.069-0.373-0.095-0.139-0.025-0.265-0.076-0.265-0.24s0.129-0.209 0.275-0.209c0.35 0 0.363 0.275 0.363 0.377zm-1.036 0.332c0.025 0.417 0.401 0.546 0.767 0.546 0.326 0 0.718-0.072 0.718-0.464v-0.85c0-0.149 0.015-0.297 0.056-0.363h-0.455l-0.031 0.158c-0.142-0.149-0.348-0.203-0.55-0.203-0.313 0-0.556 0.155-0.556 0.49 6e-3 0.743 1.106 0.345 1.087 0.711 0 0.19-0.133 0.221-0.291 0.221-0.173 0-0.281-0.069-0.297-0.246h-0.448" fill="#11110f"/></g><g transform="translate(-92.492 291.48)"><path d="m0 0h0.426v-0.227h0.01c0.114 0.186 0.31 0.271 0.499 0.271 0.477 0 0.597-0.268 0.597-0.673v-1.004h-0.448v0.922c0 0.269-0.076 0.401-0.288 0.401-0.243 0-0.347-0.135-0.347-0.467v-0.856h-0.449v1.633" fill="#11110f"/></g><g transform="translate(-89.538 290.68)"><path d="m0 0c0 0.265-0.092 0.502-0.382 0.502-0.253 0-0.364-0.221-0.364-0.464 0-0.234 0.086-0.49 0.364-0.49 0.256 0 0.382 0.218 0.382 0.452m0.426-0.733c0-0.269-0.097-0.724-0.846-0.724-0.323 0-0.695 0.155-0.721 0.525h0.446c0.041-0.168 0.174-0.224 0.335-0.224 0.249 0 0.363 0.167 0.36 0.404v0.215h-6e-3c-0.098-0.174-0.291-0.253-0.49-0.253-0.493 0-0.698 0.373-0.698 0.822 0 0.423 0.246 0.808 0.701 0.808 0.215 0 0.376-0.072 0.487-0.262h6e-3v0.218h0.426v-1.529" fill="#11110f"/></g><g transform="translate(-87.715 290.84)"><path d="m0 0c-0.041 0.228-0.139 0.348-0.357 0.348-0.291 0-0.364-0.222-0.373-0.348zm-0.73-0.284c0.013-0.288 0.149-0.414 0.401-0.414 0.18 0 0.326 0.11 0.354 0.211h0.395c-0.126-0.388-0.395-0.549-0.764-0.549-0.515 0-0.834 0.354-0.834 0.859 0 0.49 0.338 0.863 0.834 0.863 0.556 0 0.827-0.468 0.793-0.97h-1.179" fill="#11110f"/></g><g transform="translate(-83.723 289.36)"><path d="m0 0c0-0.297 0.231-0.413 0.494-0.413 0.172 0 0.434 0.05 0.434 0.279 0 0.243-0.337 0.278-0.662 0.368-0.332 0.082-0.666 0.222-0.666 0.635 0 0.459 0.431 0.675 0.835 0.675 0.465 0 0.893-0.203 0.893-0.719h-0.475c-0.015 0.266-0.203 0.338-0.44 0.338-0.157 0-0.338-0.066-0.338-0.253 0-0.172 0.106-0.197 0.666-0.338 0.165-0.038 0.662-0.147 0.662-0.65 0-0.41-0.318-0.716-0.928-0.716-0.494 0-0.959 0.244-0.95 0.794h0.475" fill="#fff"/></g><g transform="translate(-80.876 289.42)"><path d="m0 0c0 0.259-0.103 0.522-0.388 0.522-0.29 0-0.384-0.259-0.384-0.522s0.1-0.512 0.388-0.512c0.29 0 0.384 0.249 0.384 0.512m-1.2 0.813h0.422v-0.207h6e-3c0.109 0.175 0.281 0.25 0.481 0.25 0.507 0 0.735-0.409 0.735-0.868 0-0.432-0.235-0.835-0.71-0.835-0.197 0-0.375 0.084-0.484 0.244h-6e-3v-0.769h-0.444v2.185" fill="#fff"/></g><g transform="translate(-79.383 288.91)"><path d="m0 0c0.303 0 0.394 0.256 0.394 0.516 0 0.259-0.091 0.519-0.394 0.519-0.3 0-0.391-0.26-0.391-0.519 0-0.26 0.091-0.516 0.391-0.516m0 1.369c0.509 0 0.838-0.338 0.838-0.853 0-0.513-0.329-0.85-0.838-0.85-0.506 0-0.834 0.337-0.834 0.85 0 0.515 0.328 0.853 0.834 0.853" fill="#fff"/></g><g transform="translate(-78.33 290.23)"><path d="m0 0h0.422v-0.3h6e-3c0.085 0.203 0.294 0.344 0.516 0.344l0.097-0.016v-0.356l-0.16 0.016c-0.328 0-0.437-0.288-0.437-0.576v-0.728h-0.444v1.616" fill="#fff"/></g><g transform="translate(-76.407 290.26)"><path d="m0 0h0.325v-0.352h-0.325v-0.773c0-0.15 0.037-0.187 0.187-0.187l0.138 0.012v-0.346l-0.259-0.016c-0.275 0-0.51 0.059-0.51 0.384v0.926h-0.269v0.352h0.269v0.457h0.444v-0.457" fill="#fff"/></g></g></g></svg>
