<svg width="800" height="129.77" space="preserve" version="1.1" viewBox="0 0 800 129.77" xmlns="http://www.w3.org/2000/svg">
 <link href="" rel="stylesheet" type="text/css"/>
 <style type="text/css"/>
 <path d="m64.387 104.47c-21.587 0-39.088-17.499-39.088-39.087s17.501-39.088 39.088-39.088 39.088 17.499 39.088 39.088c0 21.587-17.501 39.087-39.088 39.087m0-103.47c-35.56 0-64.387 28.826-64.387 64.387 0 35.56 28.827 64.387 64.387 64.387s64.387-28.827 64.387-64.387c0-35.561-28.827-64.387-64.387-64.387" fill="#3b6db4" stroke-width="1.1655"/>
 <path d="m124.94 106.78 68.404-79.597h-66.272v-23.986h101.45v20.789l-68.404 79.596h68.404v23.986h-103.58z" fill="#2d83c6" stroke-width="1.1655"/>
 <path d="m345.91 90.17-3.767 3.767h-0.70399v-3.9454l3.767-3.767h0.70399zm-45.431-52.166 0.8357-0.83686h2.2483l0.83687 0.83686-0.96041 0.95924h-2.0001zm-10.655-3.682h-2.309l-1.373-1.373 1.373-1.373h2.309l1.373 1.373zm-17.21-0.24593-1.9511-4.7111v-2.1889l-4.0421-4.0654 6e-3 -4.2694 0.36481-0.64804 3.4477-2.0141h12.086l3.9465 3.9465v4.9885l-11.41 11.41zm33.525-0.78791h0.14686l2.626 2.6248v4.5142l-2.7728-2.774zm-49.583-4.7974-6.3487-6.3487h5.0538l6.3487 6.3487zm95.494 30.98h-3.9943l-3.3614-3.3626-1.5129 1.514 6.8744 6.8744-1.8928 1.8928h-7.5049l-5.4699-5.4699-1.7565 1.7565 9.1344 9.1332v4.872l-5.1983 5.1983v15.259l-6.7905 6.7905h-2.387l-5.4105-5.4105v-7.752l-3.689-6.745v-6.6704h-8.6099l-7.301-7.2986-0.0186-7.7917 7.2951-7.294h6.0783l5.365 3.1435h9.5994l3.7938-3.7927-5.1354-5.1366h-3.3533l-2.0117 2.0129h-5.3662l-3.689-3.689h-3.0188l-4.5829 4.5829-1.162-1.162v-5.3883l2.2239-2.225h3.1446v-3.1435l3.0596-3.0596h7.7136v-3.0188l3.689-3.689-2.0117-2.0117-5.3662 5.365-0.37647-0.37764v-4.6109l4.5689-4.5689h4.1027l6.4606 4.4431h10.498c-11.657-17.279-31.414-28.643-53.826-28.643-16.935 0-32.305 6.5422-43.861 17.168l0.15968 0.15968-1.2786 1.2786h-0.46389c-2.1411 2.1026-4.1016 4.3766-5.9361 6.7578h3.4407l2.8416 2.8416v1.0175l-3.5561 3.5572 5.0014 5.0014h5.5655v-6.5644l1.6108-0.66786 2.8568 2.8556h2.4721l3.2321 3.2332v1.0979l-13.34 13.34-5.1284 2.1236h-5.8627v5.4303h1.8847l4.2927 1.7775 4.682 4.6832h6.1984l7.6856 5.9105h1.8031l3.5584 3.5584v4.5526l-16.634 16.632v11.763l-1.6213-1.0536-4.0829-7.5213v-13.772l-5.7391-8.5341v-5.5212l3.8661-5.4816-3.5572-3.5561h-2.1155l-5.0713-2.1015-6.6949-6.6949c-0.68301 3.774-1.0944 7.6425-1.0944 11.613 0 35.835 29.05 64.886 64.885 64.886s64.885-29.051 64.885-64.886c0-0.6189-0.0746-1.2192-0.0921-1.8346z" fill="#0e9dda" stroke-width="1.1655"/>
 <path d="m362.88 3.1969h25.229l58.276 76.576v-76.576h27.006v124.38h-23.275l-60.231-79.064v79.064h-27.006z" fill="#0bb5d9" stroke-width="1.1655"/>
 <path d="m483.89 76.568h85.637v-23.355h-85.637zm0 51.001h93.633v-24.341h-93.633zm0-124.38h93.633v24.341h-93.633z" fill="#3cbbd1" stroke-width="1.1655"/>
 <path d="m747.85 122.86h-18.662l-39.587-98.599h-41.862v97.726h-19.35v-97.726h-37.304v-17.257h113.09l34.699 93.478 34.696-93.478h20.796zm23.071-119.67-32.05 86.342-32.049-86.342h-119.54v24.87h37.304v97.727h26.966v-97.727h35.479l39.587 98.602h23.811l49.571-123.48z" fill="#3cbbd1" stroke-width="1.1655"/>
</svg>
