<svg enable-background="new 0 0 422.957 200.871" space="preserve" version="1.1" viewBox="0 0 307.06 61.072" xmlns="http://www.w3.org/2000/svg">
 <link href="" rel="stylesheet" type="text/css"/>
 <g fill="#fff">
  <path d="m211.74 60.202 8.734-49.528h-17.852l0.771-4.375c0.309-1.749 1.182-3.235 2.623-4.463 1.441-1.225 3.035-1.835 4.789-1.835h39.771l1.91 10.673h-19.585l-8.732 49.528z"/>
  <path d="m264.06 60.202-10.211-60.201h13.828l4.842 44.975 18.855-40.426c1.234-3.031 3.484-4.549 6.75-4.549h8.928l-31.094 60.201z"/>
 </g>
 <g transform="translate(-57.949,-69.899)" fill="#c00">
  <path d="m115.14 69.899h6.299c1.635 0 2.936 0.553 3.906 1.66 0.971 1.111 1.316 2.479 1.027 4.115l-9.598 54.426h-12.25z"/>
  <path d="m121.13 130.1 1.637-9.277 29.9-27.648h-17.674c-1.635 0-2.939-0.555-3.91-1.665-0.971-1.105-1.311-2.478-1.023-4.11l0.678-3.853h38.152l-1.76 9.977-29.336 26.425h25.555l-1.793 10.152h-40.426z"/>
  <path d="m196.13 115.75h8.754c-2.148 4.9-5.258 8.634-9.326 11.2-4.09 2.685-8.879 4.022-14.361 4.022-6.646 0-11.463-2.155-14.434-6.473-2.994-4.199-3.797-10.21-2.42-18.025 1.316-7.468 4.152-13.299 8.51-17.502 4.496-4.314 10.066-6.473 16.719-6.473 7 0 12.053 2.098 15.164 6.301 2.971 4.314 3.779 10.322 2.422 18.024-0.084 0.467-0.154 0.876-0.217 1.225-0.061 0.349-0.104 0.585-0.123 0.699-0.104 0.587-0.234 0.993-0.391 1.226h-30.277c-0.52 3.618-0.121 6.302 1.207 8.049 1.188 1.869 3.295 2.801 6.332 2.801 1.982 0 3.746-0.405 5.289-1.224 0.371-0.114 0.727-0.323 1.072-0.611 0.342-0.293 0.721-0.613 1.133-0.966 0.174-0.347 0.695-0.815 1.557-1.4 0.861-0.579 1.991-0.873 3.39-0.873zm-18.592-13.652h17.852c0.318-3.146-0.082-5.479-1.217-6.997-1.229-1.635-3.244-2.45-6.043-2.45-2.566 0-4.811 0.815-6.732 2.45-1.924 1.634-3.208 3.966-3.86 6.997z"/>
  <path d="m245.58 130.1h-6.125c-1.75 0-3.08-0.554-3.992-1.663-0.916-1.108-1.215-2.538-0.908-4.289l4.197-23.8c0.492-2.801 8e-3 -4.84-1.457-6.126-1.465-1.28-3.248-1.924-5.348-1.924s-4.08 0.644-5.941 1.924c-1.861 1.286-3.035 3.325-3.527 6.126l-5.248 29.752h-12.252l4.816-27.305c1.398-7.933 4.404-13.237 9.021-15.922 4.611-2.684 9.449-4.141 14.51-4.375 5.131 0 9.621 1.343 13.465 4.023 3.842 2.686 5.045 8.11 3.605 16.273z"/>
  <path d="m232.98 81.106c5.756 0 11.213-4.412 12.744-10.03h-21.953c-0.452 5.618 3.451 10.03 9.209 10.03z" fill="#c00"/>
  <path d="m106.58 74.797c-2.576-3.264-7.074-4.897-13.488-4.897h-18.223c-1.75 0-3.344 0.61-4.785 1.835-1.441 1.228-2.314 2.714-2.625 4.463l-9.506 53.903h12.426l3.799-21.529h12.969c5.949 0 10.789-1.631 14.516-4.897 3.768-3.5 6.184-8.282 7.254-14.352 1.13-6.413 0.349-11.259-2.337-14.526zm-13.922 16.902-11.543 5.92c-2.693 1.383-4.49 0.214-3.994-2.599l2.057-11.666c0.496-2.813 2.703-3.98 4.91-2.601l9.455 5.926c2.205 1.381 1.807 3.638-0.885 5.02z" fill="#c00"/>
 </g>
</svg>
