<svg version="1.1" viewBox="0 0 800 435.6" xml:space="preserve" xmlns="http://www.w3.org/2000/svg">
<g transform="matrix(.14812 0 0 .14812 -3.1254 -8.8874)">
	<g fill="#ce181e">
		<path d="m2051.6 432.4v26.4h-58.6v156.2h-33.8v-156.2h-58.6v-26.4z"/>
		<path d="m2095.4 529.7c0.8 44.9 30.3 63.4 64.4 63.4 24.4 0 39.2-4.1 52-9.4l5.8 23.8c-12 5.3-32.6 11.3-62.5 11.3-57.8 0-92.3-37-92.3-92 0-55.1 33.4-98.4 88.1-98.4 61.3 0 77.6 52.4 77.6 86 0 6.8-0.8 12.1-1.2 15.5h-131.9zm100.1-23.8c0.4-21.1-8.9-53.9-47.3-53.9-34.5 0-49.7 30.9-52.4 53.9z"/>
		<path d="m2413.5 432.4v182.6h-33.8v-156.6h-64.4v47.5c0 51.3-5 85.6-29.5 101.1-9.3 7.2-19.8 11.3-37.2 11.3l-3.5-26c6.6-1.1 14-3.8 18.6-7.5 17.5-12.4 19.4-38.1 19.4-78.8v-73.6z"/>
		<path d="m2488.4 529.7c0.8 44.9 30.3 63.4 64.4 63.4 24.4 0 39.2-4.1 52-9.4l5.8 23.8c-12 5.3-32.6 11.3-62.5 11.3-57.8 0-92.3-37-92.3-92 0-55.1 33.4-98.4 88.1-98.4 61.3 0 77.6 52.4 77.6 86 0 6.8-0.8 12.1-1.2 15.5h-131.9zm100.1-23.8c0.4-21.1-8.9-53.9-47.3-53.9-34.5 0-49.7 30.9-52.4 53.9z"/>
		<path d="m2697.5 432.4v79.2h8.1l70.6-79.2h41.5l-81.9 82.6c30.3 3 48.5 22.6 63.2 55.4 5 12.1 11.6 29.8 20.2 44.5h-35.7c-5-7.9-11.6-22.3-17.5-37.3-12.8-29.4-30.3-43-62.1-43h-6.6v80.3h-33.8v-182.5z"/>
		<path d="m2957.1 614.9-2.7-23h-1.2c-10.5 14.3-30.6 27.2-57.4 27.2-38 0-57.4-26-57.4-52.4 0-44.1 40.3-68.3 112.9-67.9v-3.8c0-15.1-4.3-42.2-42.7-42.2-17.5 0-35.7 5.3-48.9 13.6l-7.8-21.9c15.5-9.8 38-16.2 61.7-16.2 57.4 0 71.4 38.1 71.4 74.7v68.3c0 15.8 0.8 31.3 3.1 43.8h-31zm-5.1-93.2c-37.2-0.8-79.5 5.7-79.5 41.1 0 21.5 14.7 31.7 32.2 31.7 24.4 0 40-15.1 45.4-30.6 1.2-3.4 1.9-7.2 1.9-10.6z"/>
		<path d="m3073 432.4v73.6h89.2v-73.6h33.8v182.6h-33.8v-82.6h-89.2v82.6h-33.8v-182.6z"/>
		<path d="m3355.9 614.9-2.7-23h-1.2c-10.5 14.3-30.6 27.2-57.4 27.2-38 0-57.4-26-57.4-52.4 0-44.1 40.3-68.3 112.9-67.9v-3.8c0-15.1-4.3-42.2-42.7-42.2-17.5 0-35.7 5.3-48.9 13.6l-7.8-21.9c15.5-9.8 38-16.2 61.7-16.2 57.4 0 71.4 38.1 71.4 74.7v68.3c0 15.8 0.8 31.3 3.1 43.8h-31zm-5.1-93.2c-37.2-0.8-79.5 5.7-79.5 41.1 0 21.5 14.7 31.7 32.2 31.7 24.4 0 40-15.1 45.4-30.6 1.2-3.4 1.9-7.2 1.9-10.6z"/>
		<path d="m3581.6 432.4v182.6h-33.8v-156.6h-64.4v47.5c0 51.3-5 85.6-29.5 101.1-9.3 7.2-19.8 11.3-37.2 11.3l-3.5-26c6.6-1.1 14-3.8 18.6-7.5 17.5-12.4 19.4-38.1 19.4-78.8v-73.6z"/>
	</g>
	<path d="m1113.3 1092.4c-22.7-22.9-83.9-83.9-122.2-117.6-46.2-40.6-154.8-123.2-154.8-123.2s-4.1 137.8-31.7 340.4c32.3-11.6 235.7-78.1 308.7-99.6z" fill="#ce181e"/>
	<path d="m772 1507.9c-17.6 91-33.6 143.9-59.3 232.5-84.2 289.9-215.4 534.7-287.1 656.3 65.2 114.1 124.2 207.2 135.6 225.1 39.4-55.7 257.3-368.9 394.7-715.5 85.9-216.8 130.7-401.6 157.8-554.7-47.2 18.4-277.2 122.8-341.7 156.3z" fill="#ce181e"/>
	<path d="m1623.1 1588.6c-26.4-24.2-51.5-42.7-81.4-62.5-14-9.3-28.3-18.2-43-26.4-5.2-2.9-16.4-11.8-22.6-11.8 0 0-4.1 2.8-11.3 8.1-3 2.2-6.6 4.8-10.7 7.9-29.3 21.7-62.7 43.9-120.8 97.4-19.6 55-38.8 115.3-55.1 177.9-43.8 167.8-73.4 313.8-83.3 407.2 22.9-91.5 35.4-141 81-223.9 49-88.9 119-164.4 192.6-233.4 10.5-10.2 149.8-145 154.6-140.5z" fill="#ce181e"/>
	<path d="m1541.9 2111.2c-10.8-16.9-19.1-35-25.3-53.9-33.9-104-2.3-232.6 34.6-328.8 9.4-24.5 19.6-46.1 29.5-64.7-41.3 38.2-90.4 85.6-96.5 91.3-47.8 44.8-94.1 92.5-134 144.8-8.9 11.7-13.2 26.3-12.3 40.9 0.9 15 2.4 29 2.7 36.4 1.5 32.7 6.1 65.9 18.9 96.2 29.5 69.9 101 106 174.8 106 22 0 44.2-2.1 64.6-9.5-21.6-8.1-43.6-37.8-57-58.7z" fill="#ce181e"/>
	<path d="m238.7 2085.5c-28.3-76.8-42.9-139.2-53.5-221.7-93.1 65.7-150.8 111-151.4 111.3 17.6 36.4 85.3 161.8 210.3 349.7 43.3 65.1 85.5 119.5 123.8 164.1 0 0.1 0.1 0.1 0.1 0.2 98.7 114.9 171.5 164.5 171.5 164.5s-63.5-98.7-135.2-224c-63.6-111.3-127.8-241.3-165.6-344.1z" fill="#ce181e"/>
	<path d="m179.4 1821.6c191.2-135.3 392.1-258.1 600-365.4 62.6-32.3 127.3-63.8 193.6-93.5 283.3-127.3 585.6-213.7 891-268.3 39.8-7.1 79.7-13.7 119.7-19.3 5.6-0.8 38.7-9.7 43.5-5.7 0 0-33.1-28-85.1-63.6-52.9-36.2-80.5-45.4-80.5-45.4s-287.3 35.9-715.2 161.8c-74.2 21.8-152.5 46.3-234.4 73.8-33.2 11.1-65 22.2-95.7 33.2-122.8 44.1-246.4 95.4-364.7 153.3-60.6 29.7-120.4 61.2-179 94.7-51.7 29.4-100.4 57.9-132.1 110-64.1 105.5-107.2 220.7-119.4 343.7-0.1 0.6 52.9-36.7 61.3-43 31.3-23.2 65.2-43.8 97-66.3z" fill="#ce181e"/>
	<path d="m2324.6 1874.5c-3 6.5-6 12.9-9.1 19.1 18.3-2.4 40.3-6 65.4-11.6 0-8.8 0.1-18.7 0.5-29.5-20.8 8.5-40 15.9-56.8 22z" fill="#ce181e"/>
	<path d="m2118.6 1436.4c-58.6 8.8-80.7 18.2-80.7 18.2-31 25.5-57.4 57.4-79.5 93-7.6 12.3-14.7 24.9-21.2 38-47.7 94.9-72.3 208.3-63.9 314.6 3.6 46.2 12.6 105.4 47.9 138.9 36.7 34.8 82.8 45.1 124.4 45.1 18.9 0 37.8-1.9 56.3-5.6 16.2-3.2 39.2-6.4 53-15.7-15.3-7.3-29.2-13.5-41.7-26-65.7-65.5-60.3-176.4-46.9-260.8 14.9-93.8 53.1-183.1 103.8-263 14.2-22.4 29.4-44.1 45.8-64.9 2.5-3.2 14.8-23.1 19.4-23.3 0 0-58.1 2.7-116.7 11.5z" fill="#ce181e"/>
	<g fill="#ce181e">
		<path d="m2103 1024.1c-94-54-173.9-73.4-173.9-73.4s287.2 140.8 325.3 462.6c2.8-0.2 4.5-0.2 4.5-0.2-1.1 0-2.6 1.2-4.2 2.9 11.1 97.8-0.7 212.2-50.4 344.3-27.5 73.1-71.6 123.9-118 159.1 6.9 39.9 22 77.1 50.6 105.7 12.1 12.1 25.6 18.4 40.3 25.4 14.8-11.8 30-22 43.6-35.4 27.6-27.2 50-59.3 69.1-92.9 5.1-9 10-18.1 14.6-27.3 2.6-5.2 5.2-10.6 7.8-16.1 23.6-49.9 46-112.6 65.1-191.4 90.6-375.1-112.7-570.4-274.4-663.3z"/>
		<path d="m2168.1 2056.5c0.1 0 0.1 0 0 0 0.1 0 0.2-0.1 0.3-0.1-0.1 0-0.2 0-0.3 0.1z"/>
	</g>
		<path d="m2727.3 895.9c-32.8-23.3-59.2-36.2-59.2-36.2s-139.8 4.6-365 32.8c-150.9 18.8-267.3 38.6-327.8 49.5 31.2 10.1 85.9 30.5 146.5 65.3 4.2 2.4 8.4 4.9 12.7 7.5 43.6-11.8 108.7-25.5 200.7-36.1 201.3-23.1 468.6-21.4 468.6-21.4s-43.6-38.1-76.5-61.4z" fill="#ce181e"/>
	<path d="m2670.2 1234.3s-161.4 123.6-225.5 323.7c-36.6 114.3-60.6 238.2-53.4 358.7 0.3 5.7 0.7 11.4 1.4 17.1 0 0 28.5 32.2 83.2 53.1 54.6 20.8 113.4 23.8 113.4 23.8s-3.1-60.7 2.8-142.3c1.5-20.9 3.6-43.3 6.5-66.3 3.1-24.3 7.1-49.4 12.2-74.5 6.8-33.3 15.6-66.5 26.9-97.9 33-91.2 77.3-160.3 120.5-211.5 77.7-91.8 152.1-125.9 152.1-125.9s-18.4-17.3-91.3-37.6c-72.9-20.2-148.8-20.4-148.8-20.4z" fill="#ce181e"/>
	<path d="m2769.7 1435.5c-2.2 2.6-4.4 5.4-6.5 8.1 9.6 60.6 2.4 125.5-42.8 181.7-24 29.9-52.7 57.2-83.6 82-1.8 7.8-3.5 15.6-5.1 23.4-4 19.8-7.2 39.6-9.9 59 58.7-31.8 121.6-72.6 186.5-125.8 146.3-119.8 121.4-292.8 107.6-351.3-19 10-81.4 46.3-146.2 122.9z" fill="#ce181e"/>
	<path d="m3550.7 1244s-93.4-12.4-156.1-22.1c-59.1-9.2-125.9-20.1-125.9-20.1s-164.5 106.3-279 300.7c-38.3 64.9-62.4 133.6-77.7 194.4-7.6 30.5-13.1 59-16.9 84-4.5 29.5-9.6 60.3-8.5 90.3 0.2 5.4 0.6 10.8 2.8 15.7 4.8 11.2 23.8 22.9 33.8 30 16.9 12 35.5 21.6 55 28.6 41.7 15.1 84.8 19.5 128.8 20.8 0.6 0 6-69.4 7-76.6 7.4-56.7 19-112.8 36.1-167.3 13.1-42 30.2-83.4 52.5-121.4 128.4-219.6 348.1-357 348.1-357z" fill="#ce181e"/>
	<path d="m2874.8 1780.8c2.9-19.1 6.8-40.3 11.8-62.7-64.4 42.9-129.7 83.2-180.1 106.6-30.9 14.3-62.3 27.5-92.9 39.5-0.2 2.4-0.5 5-0.6 7.3-4.4 61.2-3.8 110.6-3.2 131.5 32.1-19 98.1-59.6 169.4-113.8 23.6-18 55.9-46.9 91.5-80.7 1.3-9.3 2.7-18.6 4.1-27.7z" fill="#ce181e"/>
	<path d="m2550.7 2951.3c-104.6 0-209-29.8-303-75.4-71-34.4-136.3-79.8-197.6-129.8-91.5-74.5-182.8-301.5-181.9-310.1 0 0.1-0.1 0.2-0.3 0.4-1.3 1.4-7.3 6.5-16.3 14.8-67 61.4-121.8 136.8-157.7 221.2-1.9 4.5-6.7 12-6.3 17 1 14.8 55.7 77.6 73 95.4 75.9 78.3 174.3 156.4 281.5 183.8 118.9 30.5 242.9 40 364.7 25.7 32.6-3.8 65.1-9.4 97.1-16.9 15.2-3.6 28.7-7.2 40.4-10.6 33.5-9.8 51.9-18 51.9-18s-4.5 0.7-12.9 1.4c-7.8 0.5-18.7 1.1-32.6 1.1z" fill="#ce181e"/>
	<path d="m3466.6 1532.2c-11.6-7.3-23.6-13.9-35.9-19.9-28.2-13.6-62-27.7-93.7-29.1 8.9 0.4-14.8 203.7-16.7 215.1-19.3 119.7-53.7 237.2-105 347.2-17 36.4-35.7 71.9-56.4 106.3-17 28.4-35.4 55.9-54.9 82.6-294.2 400-522.2 590.3-665.3 680.3 45.6 10.5 92.1 16.3 138.7 16.3 10.8 0 19.7-0.4 26.8-0.8 48.2-21.5 93.7-52.4 136.3-83.1 55.5-39.9 107.8-84.1 157.8-130.7 68.7-64.1 133-133 193.8-204.6 57.9-68.2 112.8-139 165.2-211.5 68.4-94.7 119.6-201.2 156.3-311.9 0.1-0.3 0.2-0.7 0.3-1 39.4-119.5 63.8-244.5 71.6-370.1 1.2-18.6 2.1-37.2 2.4-55.8 0.2-16.7-7.9-21.1-21.3-29.3z" fill="#ce181e"/>
	<path d="m4386.8 2096.8c-205.6-57.4-488.4-106.5-854.5-106.5-29.9 0-60.4 0.4-91.4 1.1-14.9 44.7-32.3 88.6-52.1 131.4 637.9 10.5 1034.3 199.6 1034.3 199.6h1.6c11.7 0 89.2-0.7 220.3-17.2 130.3-16.5 166.7-31 166.7-31-0.1 0-136.4-96.8-424.9-177.4z" fill="#ce181e"/>
	<path d="m3144.7 2127.7c15.2-26.8 29.3-54.2 42.3-82.1 6.6-14.1 12.9-28.4 18.9-42.7-85.1 6.3-173.6 15-265.9 26.8-508.1 64.9-933 322.3-1046.1 395.9 1.7 8.1 6.5 17.9 8.5 23.9 7.2 22.1 18.5 41.2 27.6 62.9 201.6-130.2 508.1-290.8 856.7-346.4 124.8-19.8 244.3-32 358-38.3z" fill="#ce181e"/>
	<path d="m3262.7 1840.4c3.3-3.7 6.4-7.4 9.7-11.1 11.3-43.2 20.5-86.9 27.5-130.9 1.4-8.4 14.6-120.5 17.9-179.5-23.1 39.7-67.2 106.6-132.9 170.4-4 10.9-7.8 21.9-11.2 32.9-17 54.6-28.7 110.7-36.1 167.3-0.7 5.5-4 46.5-5.8 66.1 24.7-13.4 67.9-44.4 130.9-115.2z" fill="#ce181e"/>
	<path d="m3583.8 1874c4.7 10.1 13.1 16.4 22.2 23.7 16.2 13.2 41.1 30.8 73.4 44.9 33.8 14.7 77.9 29.7 115.3 27.4 0.8-6.1-2.6-14.2-4-20.5-2.9-13.2-5.3-26.5-7.4-39.9-13.5-86.3-15.4-183.7 21.9-265.3 62.1-135.8 290.6-331.2 290.6-331.2s-28.6-23.6-100.9-51.6c-69.7-27-101-27.5-103.3-27.5-48.6 36.4-94.3 77.6-137.5 120.2-78.3 77.2-154.9 165.5-180.8 275.1-18.5 78.5-14 161.6 8.3 238.8 0.6 2.2 1.3 4.1 2.2 5.9z" fill="#ce181e"/>
	<path d="m3566.4 1572c25.8-63.9 67.9-120.2 114.8-171.4-7.5 6.3-15.1 12.7-23 19.4-59 50.1-110.1 98.4-151.5 139.8 0 0.6 0.1 1.1 0.1 1.7-0.2 16.4-1 32.8-2 49.1 19.1-12.1 39.9-25.1 61.6-38.6z" fill="#ce181e"/>
	<path d="m4107.7 1440.7c-39.9-15.9-67-20.2-67-20.2-0.1 0.2-78.5 201.8-183.6 307.4-18.2 18.2-38.2 34.6-58.9 49.3-2.3 44.7 1.5 90 8.2 132.6 2.1 13.3 4.5 26.6 7.4 39.9 0.5 2.2 1.2 4.7 1.9 7.2 27.1-19.5 79.1-60.6 139.1-127.1 6.1-6.8 12.4-13.8 18.6-21.2 127-147.9 192.3-337.1 192.6-338.2 0 0-18.4-13.8-58.3-29.7z" fill="#ce181e"/>
	<path d="m4110.6 1774.6c5.5-65.8 14.4-124 23.4-171.4-31.9 62.7-76.8 138.2-134.4 205.3-6.3 7.3-12.5 14.4-18.6 21.2-9.4 10.4-18.5 20.1-27.4 29.2-0.7 47.4 5.9 68.1 5.9 68.1s30.2 24.8 75.2 40.3c45.1 15.5 88.4 16 88.4 16s-27.7-27.9-12.5-208.7z" fill="#ce181e"/>
	<path d="m3563.7 1213.2s-202.9-149.4-269.6-212.7c-29.7-28.1-57.5-58.4-84.7-88.9-37.8-42.5-67.3-78.5-67.3-78.5h-1.2c-10.3 0.2-86.4 1.4-147.8 3.9-15.2 0.6-29.4 1.3-41.6 2-32.3 2-61.9 3.9-88.4 5.6-82.1 5.4-133.1 9.1-133.1 9.1s195.2 169.6 384.7 244.5c186.3 73.6 449 115 449 115z" fill="#ce181e"/>
	<path d="m3887.2 852.8c-25.6-1.8-51.3-3.4-77-4.9-85.5-5.1-171.1-9.2-256.7-12.3-46.6-1.7-93.2-3-139.9-3.9-78.8-1.5-157.7-1.9-236.5 0.3 3.6 4.4 31.6 38.4 66.9 78 1.5 1.7 3 3.3 4.5 5 48.3 4.1 153.3 13 212.7 17.7 30.8 2.4 61.6 4.8 92.4 7.1 15.2 1.1 30.4 2.3 45.6 3.4 16.7 1.2 30.3 1.8 46.3-3.4 7.3-2.4 14.7-4.6 22.1-7 65.6-20.7 131.3-41.4 196.9-62.1l50.4-15.9c-7.1 2.2-20.5-1.5-27.7-2z" fill="#ce181e"/>
	<path d="m4157.4 980.9s479.4 24.7 595.5 28.7c46.8 1.6 164.5 7.8 288.3 14.5 183.6 10 380.8 21.3 380.8 21.3s-3.6-0.7-10.1-2c-58.8-11.3-360.2-69.2-530.2-94.6-185.2-27.7-438.5-54.5-448.4-55.5h-0.3l-274.1 87.1z" fill="#ce181e"/>
		<path d="m4733.4 1500.5c76.2-46.5 529.3-341.6 654.9-425-60.6-3.5-400.2-17.3-400.2-17.3s-350.5 224-490.3 313.9c-195.4 125.7-194.3 154.8-181.6 261.7 7 59.3 39.1 264.5 66.3 435.6 10.7 2.8 21.3 5.7 31.6 8.5 199 55.5 325.5 118.8 384.9 152.7-27.6-94.9-94.2-325-138-479.6-56.4-198.8-16.1-196.5 72.4-250.5z" fill="#ce181e"/>
	<path d="m1351.8 1280.5c-9.5-5.7-15.9-9.4-21.3-12.2l-110.8 42.8c-40.6 79-111 229.3-158.6 411.9-39.6 151.9-68.4 316.5-70.4 473.8 0 0 27.8 38.9 66.8 62.6 59.8 36.4 107.5 43.1 107.5 43.1s17.5-255.6 82.8-505.8c14.8-56.7 31.9-111.4 49.4-161.9 1.1-3.1 2.1-6.1 3.2-9.1l3.3-9.3c58-162.9 118.8-279.4 118.8-279.4s-17.8-24.9-70.7-56.5z" fill="#ce181e"/>
	<path d="m1828.3 1592c-24-55.1-52.9-90.1-62.3-100.7-2-2.3-3.2-3.5-3.2-3.5s-49.1 0.7-83.9 5.9c-34.8 5.3-73.6 17.8-73.6 17.8s1.8 1.2 4.9 3.7c27.2 21.4 158.3 135.7 96.3 315.9-44.1 128.4-109 190.4-171.3 218.6 4.3 19.5 17.4 46 38.1 68.8 21.1 23.2 30.9 30.1 60.7 41.3 0.2-0.1 20.2-9.2 29.7-14.5 25.9-14.5 49.8-32.6 71-53.3 56.4-55.1 92.5-127.5 112.8-203 33.7-125.7 11.2-227.4-19.2-297z" fill="#ce181e"/>
	<path d="m1863 1526.8c-20.8-3.8-38.9-11.3-53.8-19.6 10.6 16.3 22.4 37 33.3 62 0.8 1.9 1.6 3.9 2.4 5.8 25.9 1 52.7-1.1 79.5-5.5 6.5-13.3 13.5-26.4 21.1-39.1-28.7 1.9-56.9 1.2-82.5-3.6z" fill="#ce181e"/>
	<path d="m4333.3 489.4c-21-79.2-69.8-286-92.1-380.7-37.6 90.9-128.4 310.7-172.3 418.6-6.4 15.7-11.7 28.9-15.8 39.1 5.6 21.2 10.3 38.9 13.4 51.1 18 70.3 63.7 266.8 82.6 337.5l277.4-88.3c0.1 0-70.7-292.2-93.2-377.3z" fill="#ce181e"/>
		<path d="m4229.9 60s-100.8 29-160.9 52.1c-60.2 23.1-123 57.1-123 57.1s-105.5 211.3-175.1 381.3c-35.7 87.3-72.3 188.9-99.5 267.2 53.1 2.4 106.3 5 159.4 8.2 25.7 1.5 51.3 3.2 77 4.9 3.9 0.3 9.6 1.4 15.1 2.1 19.6-54.2 71.1-196.1 100.2-269.4 4.2-10.7 10.3-25.8 17.7-44.1 56-138.1 189.1-459.4 189.1-459.4z" fill="#ce181e"/>
	<path d="m3573.2 1569.7" fill="#ce181e"/>
</g>
</svg>
