<svg width="728.26" height="800" version="1.1" viewBox="0 0 192.68 211.67" xmlns="http://www.w3.org/2000/svg">
 <g transform="translate(18.936 60.716)">
  <path d="m12.001 150.88v-6.7136h-2.393v-1.3647h6.4175v1.3647h-2.3895v6.7136zm13.509 0v-8.0784h5.9889v1.3647h-4.3596v1.7896h4.0577v1.3597h-4.0577v2.1996h4.5131v1.3647zm16.537-8.0784h5.6574v8.0784h-1.6297v-6.7136h-2.4285v3.4493c0 0.9898-0.03534 1.6797-0.10498 2.0696-0.06998 0.39992-0.22995 0.69486-0.4849 0.91481-0.25495 0.19996-0.65436 0.34993-1.1993 0.34993-0.18996 0-0.53589-0.016-1.0403-0.05v-1.2647l0.36492 5e-3c0.33993 0 0.56988-0.036 0.68436-0.14997 0.12497-0.1 0.17996-0.29994 0.17996-0.67986l-0.0035-1.3897v-4.6091zm15.766 8.0784v-8.0784h5.9889v1.3647h-4.3541v1.7896h4.0542v1.3597h-4.0542v2.1996h4.5091v1.3647zm15.986-8.0784h1.6297v3.4343c0.36493-0.036 0.61038-0.1 0.74085-0.29994 0.12497-0.14997 0.32493-0.56989 0.59438-1.2548 0.33493-0.87482 0.68086-1.4197 1.0213-1.6297 0.33493-0.19996 0.87832-0.29994 1.6332-0.29994 0.03529 0 0.12497 0 0.23495-5e-3v1.2048l-0.22996-3e-3c-0.32993 0-0.57488 0.036-0.72985 0.1-0.15997 0.1-0.27994 0.19996-0.37492 0.39992-0.08998 0.19995-0.23995 0.51489-0.42491 1.0448-0.10498 0.24995-0.20996 0.5099-0.31994 0.69986-0.12498 0.19996-0.32493 0.34993-0.61887 0.52489 0.36493 0.1 0.66486 0.29994 0.90481 0.62487 0.23495 0.29994 0.4949 0.75485 0.77434 1.3197l1.1058 2.2196h-1.9156l-0.9648-2.0896c-0.01416-0.0355-0.03534-0.1-0.08998-0.19996-0.01759-0.0355-0.08998-0.14997-0.20496-0.39992-0.20996-0.39992-0.37992-0.64487-0.5149-0.74485-0.13997-0.1-0.33993-0.14997-0.61537-0.14997v3.5393h-1.6297v-8.0784zm22.577 8.0784h-1.7756l-0.70386-1.8396h-3.2308l-0.66836 1.8396h-1.7301l3.1499-8.0784h1.7246zm-3.0049-3.1994-1.1148-2.9944-1.0898 2.9944zm12.302 3.1994v-8.0784h1.6347v3.1794h3.1938v-3.1794h1.6297v8.0784h-1.6297v-3.5343h-3.1938v3.5343zm23.861 0h-1.7761l-0.70385-1.8396h-3.2288l-0.67036 1.8396h-1.7302l3.1498-8.0784h1.7246zm-3.0049-3.1994-1.1148-2.9944-1.0898 2.9944zm13.013-4.879h5.6591v8.0784h-1.6312v-6.7136h-2.4285v3.4493c0 0.9898-0.0357 1.6797-0.10498 2.0696-0.07 0.39992-0.22495 0.69486-0.4799 0.91481-0.25494 0.19996-0.65436 0.34993-1.1992 0.34993-0.18996 0-0.53939-0.016-1.0403-0.05v-1.2647l0.35993 5e-3c0.34493 0 0.57488-0.036 0.68936-0.14997 0.12497-0.1 0.17496-0.29994 0.17496-0.67986l-5e-3 -1.3897v-4.6091zm-135.12-12.971h-6.488v-34.928h-10.354v34.928h-6.5127v-41.413h23.354zm27.43-14.873c0 4.854-1.0493 8.6482-3.1744 11.378-2.1146 2.7294-4.9395 4.0942-8.4526 4.0942-3.5203 0-6.3293-1.3647-8.4332-4.0942-2.1006-2.7294-3.1549-6.5232-3.1549-11.378v-11.603c0-4.834 1.0548-8.6272 3.1549-11.392 2.1041-2.7594 4.9025-4.1392 8.4067-4.1392 3.5058 0 6.3293 1.3797 8.4597 4.1392 2.1341 2.7644 3.1938 6.5587 3.1938 11.392zm-6.4633-11.657c0-2.9644-0.43991-5.1934-1.3297-6.6981-0.87982-1.5047-2.1656-2.2645-3.8602-2.2645-1.7092 0-2.9894 0.74985-3.8392 2.2445-0.84833 1.5047-1.2787 3.7392-1.2787 6.7191v11.657c0 2.9994 0.43491 5.2444 1.3052 6.7486 0.86432 1.4947 2.1446 2.2395 3.8392 2.2395 1.6737 0 2.9539-0.74485 3.8337-2.2395 0.88882-1.5047 1.3297-3.7492 1.3297-6.7486zm28.389 8.3593h-11.179v11.717h13.144v6.4547h-19.662v-41.413h19.616v6.4847h-13.098v10.297h11.179zm15.586-8.7682h0.13997l4.5236-14.474h7.5179l-8.0628 20.531 8.6183 20.882h-7.8388l-4.668-14.792h-0.13997l-4.654 14.792h-7.5674l8.278-20.882-8.0787-20.531h7.4738l4.4636 14.474zm30.49 18.155h-8.7736l-1.7796 8.7842h-6.5639l9.3731-41.413h6.7632l9.3431 41.413h-6.5532zm-7.4491-6.5147h6.1229l-2.9894-14.651h-0.13997l-2.9944 14.651zm41.716-26.114v41.413h-6.4792v-34.928h-6.9624l0.07 12.117c0.0357 8.1333-0.77934 13.967-2.4335 17.512-1.6542 3.5343-4.1552 5.2994-7.4879 5.2994h-1.5552v-6.4547h0.77934c1.7351-0.19995 2.8799-1.4197 3.4248-3.6142 0.54489-2.2046 0.80933-6.4442 0.77934-12.743l-0.09-18.602h19.961zm21.596 0h6.488v41.413h-6.488v-25.716l-0.13997-0.0355-10.172 25.746h-6.4933v-41.413h6.4933v25.716l0.13997 0.0355 10.169-25.746zm18.036 27.015h-6.5127v-27.015h6.5127zm-0.055 14.398h-6.3945v-7.34h6.3946zm-96.361-190.55c3.7792 9.3236 7.719 18.798 14.602 26.335 2.0491-3.8642 3.7597-7.8989 5.2641-12.003 1.2397 7.7334 4.5201 15.032 9.0733 21.362 2.709 3.9092 6.4139 6.9591 9.4331 10.616-2.504 0.04999-4.9996 0.09998-7.5038 0.09998 6.4686 10.357 16.487 17.907 27.324 23.229-5.2377 0.04999-10.412-0.73985-15.551-1.5447 7.9535 10.987 19.431 19.256 32.523 22.924-12.798 0.56988-25.714-3.4743-35.553-11.772-12.777-10.708-22.45-24.615-30.844-38.907-16.572 29.507-38.157 57.258-66.945 75.678-10.239 6.0348-21.166 11.984-33.124 13.408 12.103-6.3047 22.667-15.858 29.659-27.624-4.4986-0.29994-10.033 1.1148-13.572-2.5045 8.7929-3.1444 17.397-7.2835 24.501-13.461-3.5643-0.29994-7.1247-0.62987-10.624-1.4347 7.1247-4.4241 14.727-8.2373 20.586-14.401-5.9431 0.9498-12.057 1.3947-17.935-0.24995 15.366-4.749 28.902-15.412 37.357-29.069-3.6892 0.56488-7.3945 0.9998-11.133 1.0648 15.523-9.2781 27.744-24.146 32.463-41.737zm8.1334 53.71c2.9859 2.3295 4.4001 6.1282 6.8196 9.0172 11.548 15.237 26.94 28.975 46.04 33.309 6.1529 1.6347 12.537 1.7546 18.866 1.7946-5.795 1.3097-11.784 1.2198-17.686 1.0348-8.248-0.19996-15.872-3.7892-23.31-7.0031-0.0106 2.6595-0.0172 5.3189-0.055 7.9729-1.8746 0.04999-3.7582 0.14997-5.6292 0.24995 0.0106-3.9292 0.0106-7.8529 0-11.772-9.5229-6.2642-17.57-14.368-24.899-23.041-15.882 25.12-37.122 47.656-64.037 60.943-10.043 4.794-20.66 9.1631-31.883 9.8685 23.215-6.0893 43.877-19.661 60.618-36.637 13.801-13.498 25.27-29.196 35.147-45.716zm17.073 51.049c10.442-1.0898 20.975-2.2845 31.488-1.3597 3.5288 0.29994 6.9377 1.3597 10.073 2.9844-4.3451 0.04999-8.703-0.19996-13.048-0.14997 2.7 2.3445 5.4793 4.5891 8.2886 6.7876 5.1001 0.57488 11.403-1.5497 15.403 2.6445 1.7741 1.4697 2.8289 3.5743 3.1234 5.8583-27.174 0.24995-54.428-0.85982-81.503 2.0196-16.417 0.65986-32.713 3.0344-49.125 3.5243 13.613-2.9044 27.22-5.9443 41.007-7.9479 16.242-3.0744 32.763-4.2491 49.19-5.8493v-5.044c-13.787 0.19996-27.395 2.7544-41.097 4.1292-8.7876 0.82483-17.297 3.7792-26.174 3.7792 6.5692-1.5897 12.888-4.1092 19.531-5.4144 10.763-2.9194 21.885-4.0542 32.844-5.9483zm31.453 21.46c10.752-0.19996 21.512-0.09998 32.264-0.19996 2.624 1.9946 5.0737 4.1941 7.3733 6.5587-12.472 0.39992-24.965-0.19996-37.427 0.44991-26.834 0.79484-53.729-0.19996-80.533 1.4047-15.098-0.24995-30.119 1.6697-45.215 1.4597 13.932-2.7344 28.014-4.749 42.141-6.1737 14.422-1.1748 28.878-1.6147 43.31-2.5595 12.687-0.4999 25.419 0.01749 38.087-0.9798" fill="#87b2c9"/>
 </g>
</svg>
