<svg width="802.1pt" height="301.4pt" version="1.1" viewBox="0 0 802.1 301.4" xmlns="http://www.w3.org/2000/svg">
 <g transform="translate(-86.47,-44.43)" fill="#fff">
  <path d="m516.19 44.43 46.1 0.06 0.01 249.04-46.09 0.04z"/>
  <path d="m163.1 100.31c14.41-4.95 30.04-4.74 44.93-2.41 16.96 2.65 32.77 11.1 44.86 23.21 6.14 6.26 12.21 12.71 16.87 20.18 13.28 20.8 17.9 46.46 14.88 70.78-3.19 25.62-15.92 50.2-35.98 66.64-15.54 12.91-35.45 20.34-55.63 20.98-16.02 0.86-32.68-2.51-46.05-11.67-6.12-4.12-11.44-9.31-16.1-14.99 0.04 24.25 0.01 48.51 0 72.77l-44.38 0.03-0.03-243.21 41.05-0.02c0.12 8.17 0 16.33 0.06 24.5 8.72-12.28 21.14-22.07 35.52-26.79m15.26 41.23c-17.18 1.75-33.3 11.88-42.03 26.82-8.21 13.58-10.02 30.5-6.1 45.77 2.73 11.15 9.46 21.2 18.59 28.13 11.59 8.95 26.58 14.48 41.33 12.32 14.13-1.67 27.68-8.76 36.59-19.92 9.72-11.78 13.92-27.61 12.34-42.7-1.44-14.87-8.8-29.18-20.41-38.64-11.08-9.23-26.02-13.51-40.31-11.78z"/>
  <path d="m394.34 96.52c20.81-1.21 42 4.22 59.47 15.65 21.84 14 37.74 36.77 43.75 61.97 5.05 20.74 3.61 43.11-4.57 62.87-8.38 20.48-23.77 37.98-42.95 49.01-20.47 11.97-45.22 16.32-68.58 12.3-25.49-4.27-48.88-19.01-64.27-39.71-13.65-18.15-21.03-41.01-20.02-63.74 0.68-24 10.12-47.68 26.41-65.36 17.98-19.83 44.08-31.74 70.76-32.99m-2.84 45.16c-15.52 2.39-29.33 11.86-38.59 24.33-7.96 11.21-10.75 25.54-9.34 39.08 1.8 17.29 11.92 33.6 26.95 42.45 22.65 13.62 55 8.42 71.43-12.55 9.9-12.16 13.97-28.57 11.9-44.02-1.73-14.18-8.96-27.63-19.96-36.76-11.6-9.73-27.35-14.62-42.39-12.53z"/>
  <path d="m630.97 105.91c15.9-8.13 34.24-10.78 51.92-9.11 21.39 2.76 41.34 14.77 53.76 32.42 0.03-8.87 0.01-17.74 0.01-26.61l42.01 0.04-0.05 190.9-41.97-0.03c0.07-8.42-0.02-16.85 0.05-25.28-9.56 12.43-23.19 21.29-37.79 26.67-8.61 3.05-17.68 5.41-26.89 4.87-21.35 0.35-42.97-6.44-59.53-20.08-10.39-8.24-18.45-19.09-24.27-30.94-10.83-21.75-13.86-46.94-10.13-70.84 2.24-14.73 8.01-28.95 16.97-40.88 9.57-12.75 21.57-23.95 35.91-31.13m44.27 35.43c-13.82 0.97-27.47 6.76-36.96 17-11.67 12.32-16.67 29.96-15.34 46.67 1.29 15.39 9.61 29.94 22.1 38.98 21.23 15.93 53.84 14.65 73.13-3.82 22.73-21.57 22.82-62.01 0.41-83.84-11.28-11.17-27.68-16.24-43.34-14.99z"/>
  <path d="m867.25 99.13c6.82-2.41 14.13-2.95 21.32-2.74l-0.07 44.76c-12.04 0.09-24.77 3.99-32.82 13.37-6.14 6.96-8.29 16.43-8.48 25.49l0.13 113.52-46.1 0.03-0.06-190.91 42.04-0.02c-0.06 5.67-0.02 11.33-0.02 17 5.74-8.98 13.79-16.97 24.06-20.5z"/>
 </g>
</svg>
