<svg width="800.15" height="120.96" version="1.1" viewBox="0 0 800.15 120.96" xml:space="preserve" xmlns="http://www.w3.org/2000/svg"><defs><clipPath id="clipPath804-9-8"><path d="m261.44 742.68h32.251v7.664h-32.251z"/></clipPath><clipPath id="clipPath840-5-5"><path d="m261.44 742.68h32.251v7.664h-32.251z"/></clipPath><filter id="filter3869-9" x="-.04731" y="-.18065" width="1.0946" height="1.3613" color-interpolation-filters="sRGB"><feGaussianBlur stdDeviation="3.6019244"/></filter><filter id="filter4243-2" x="-.044737" y="-.23214" width="1.0895" height="1.4643" color-interpolation-filters="sRGB"><feGaussianBlur stdDeviation="4.5788243"/></filter><filter id="filter3597-7" x="-.02526" y="-.028998" width="1.0505" height="1.058" color-interpolation-filters="sRGB"><feGaussianBlur stdDeviation="1.256663"/></filter><linearGradient id="linearGradient7136" x2="1" gradientTransform="matrix(31.669,0,0,5.458,261.63,746.5)" gradientUnits="userSpaceOnUse"><stop stop-color="#001d34" offset="0"/><stop stop-color="#002645" offset=".1497"/><stop stop-color="#002e52" offset=".3314"/><stop stop-color="#002f56" offset="1"/></linearGradient><linearGradient id="linearGradient7138" x2="1" gradientTransform="matrix(13.411,0,0,2.4568,277.25,746.5)" gradientUnits="userSpaceOnUse"><stop stop-color="#9e1d37" offset="0"/><stop stop-color="#932136" offset=".6545"/><stop stop-color="#752432" offset=".8425"/><stop stop-color="#51252b" offset="1"/></linearGradient><linearGradient id="linearGradient7140" x2="1" gradientTransform="matrix(2.0117,2.0117,2.0117,-2.0117,278.14,745.44)" gradientUnits="userSpaceOnUse"><stop stop-color="#cfd1d2" offset="0"/><stop stop-color="#fff" offset=".5"/><stop stop-color="#cfd1d2" offset="1"/></linearGradient><linearGradient id="linearGradient7142" x2="1" gradientTransform="matrix(2.1722,2.1722,2.1722,-2.1722,279.66,745.53)" gradientUnits="userSpaceOnUse"><stop stop-color="#cfd1d2" offset="0"/><stop stop-color="#fff" offset=".5"/><stop stop-color="#cfd1d2" offset="1"/></linearGradient><linearGradient id="linearGradient7144" x2="1" gradientTransform="matrix(2.1722,2.1722,2.1722,-2.1722,283.75,745.27)" gradientUnits="userSpaceOnUse"><stop stop-color="#cfd1d2" offset="0"/><stop stop-color="#fff" offset=".5"/><stop stop-color="#cfd1d2" offset="1"/></linearGradient><linearGradient id="linearGradient7146" x2="1" gradientTransform="matrix(2.0271,2.0271,2.0271,-2.0271,285.65,745.76)" gradientUnits="userSpaceOnUse"><stop stop-color="#cfd1d2" offset="0"/><stop stop-color="#fff" offset=".5"/><stop stop-color="#cfd1d2" offset="1"/></linearGradient><linearGradient id="linearGradient7148" x2="1" gradientTransform="matrix(2.0598,2.0598,2.0598,-2.0598,281.92,745.42)" gradientUnits="userSpaceOnUse"><stop stop-color="#cfd1d2" offset="0"/><stop stop-color="#fff" offset=".5"/><stop stop-color="#cfd1d2" offset="1"/></linearGradient><linearGradient id="linearGradient7150" x2="1" gradientTransform="matrix(2.1722,2.1722,2.1722,-2.1722,263.16,745.53)" gradientUnits="userSpaceOnUse"><stop stop-color="#cfd1d2" offset="0"/><stop stop-color="#fff" offset=".5"/><stop stop-color="#cfd1d2" offset="1"/></linearGradient><linearGradient id="linearGradient7152" x2="1" gradientTransform="matrix(2.1722,2.1722,2.1722,-2.1722,265.29,745.27)" gradientUnits="userSpaceOnUse"><stop stop-color="#cfd1d2" offset="0"/><stop stop-color="#fff" offset=".5"/><stop stop-color="#cfd1d2" offset="1"/></linearGradient><linearGradient id="linearGradient7154" x2="1" gradientTransform="matrix(2.2622,2.2622,2.2622,-2.2622,267.21,745.32)" gradientUnits="userSpaceOnUse"><stop stop-color="#cfd1d2" offset="0"/><stop stop-color="#fff" offset=".5"/><stop stop-color="#cfd1d2" offset="1"/></linearGradient><linearGradient id="linearGradient7156" x2="1" gradientTransform="matrix(2.6303,2.6303,2.6303,-2.6303,269.18,745.14)" gradientUnits="userSpaceOnUse"><stop stop-color="#cfd1d2" offset="0"/><stop stop-color="#fff" offset=".5"/><stop stop-color="#cfd1d2" offset="1"/></linearGradient><linearGradient id="linearGradient7158" x2="1" gradientTransform="matrix(1.7109,1.7109,1.7109,-1.7109,271.35,745.6)" gradientUnits="userSpaceOnUse"><stop stop-color="#cfd1d2" offset="0"/><stop stop-color="#fff" offset=".5"/><stop stop-color="#cfd1d2" offset="1"/></linearGradient><linearGradient id="linearGradient7160" x2="1" gradientTransform="matrix(2.2622,2.2622,2.2622,-2.2622,272.41,745.32)" gradientUnits="userSpaceOnUse"><stop stop-color="#cfd1d2" offset="0"/><stop stop-color="#fff" offset=".5"/><stop stop-color="#cfd1d2" offset="1"/></linearGradient><linearGradient id="linearGradient7162" x2="1" gradientTransform="matrix(2.1721,2.1721,2.1721,-2.1721,274.25,745.27)" gradientUnits="userSpaceOnUse"><stop stop-color="#cfd1d2" offset="0"/><stop stop-color="#fff" offset=".5"/><stop stop-color="#cfd1d2" offset="1"/></linearGradient><clipPath id="clipPath840-5-7"><path d="m261.44 742.68h32.251v7.664h-32.251z"/></clipPath><filter id="filter4345-2-2-1" x="-.006903" y="-.045868" width="1.0138" height="1.0917" color-interpolation-filters="sRGB"><feGaussianBlur stdDeviation="1.5692586"/></filter><clipPath id="clipPath1568"><g transform="matrix(19.091 0 0 19.091 -3679.6 -12945)"><g clip-path="url(#clipPath840-5-7)"><g transform="translate(292.31,748.86)"><path d="m0 0c0.273-3e-3 0.54-0.151 0.685-0.383 0.104-0.165 0.144-0.368 0.114-0.561-0.157-0.954-0.318-1.907-0.481-2.86-0.087-0.49-0.532-0.889-1.039-0.909-0.012-1e-3 -0.025-1e-3 -0.037-1e-3 -7.981-0.021-21.059-0.028-29.04 0-0.465 5e-3 -0.877 0.451-0.799 0.944 0.157 0.954 0.318 1.907 0.481 2.86 0.088 0.5 0.555 0.906 1.076 0.91 7.981 0.024 21.059 0.028 29.04 0" fill="#002f56" fill-rule="evenodd"/></g></g></g></clipPath><clipPath id="clipPath8594"><path d="m227.85 608.8h19.059v18.68h-19.059z"/></clipPath><mask id="mask8644" x="0" y="0" width="1" height="1" maskUnits="userSpaceOnUse"><g clip-path="url(#clipPath8602)" opacity=".8"><g clip-path="url(#clipPath8606)"><g clip-path="url(#clipPath8610)"><g clip-path="url(#clipPath8614)"><g mask="url(#mask8624)"><path d="m237.61 627.09c-0.531-2e-3 -1.063-0.058-1.583-0.163-4.714-1.027-8.52-6.055-6.988-10.36 0 0 0.712-1.365 1.734 1.437 1.443 3.917 6.41 5.569 10.504 4.369 0.687-0.161 2.012-0.783 3.398-1.644 0.907-0.564 1.326-1.295 1.409-0.624-0.558 3.329-3.336 5.981-6.892 6.824-0.507 0.109-1.025 0.161-1.543 0.161h-0.039" fill="url(#linearGradient8642)"/></g></g></g></g></g></mask><clipPath id="clipPath8602"><path d="m228.7 627.09h17.389v-10.856h-17.389z"/></clipPath><clipPath id="clipPath8606"><path d="m228.7 616.23h17.389v10.856h-17.389z"/></clipPath><clipPath id="clipPath8610"><path d="m227.51 627.09h18.577v-11.891h-18.577z"/></clipPath><clipPath id="clipPath8614"><path d="m237.61 627.09c-0.531-2e-3 -1.063-0.058-1.583-0.163-4.714-1.027-8.52-6.055-6.988-10.36 0 0 0.712-1.365 1.734 1.437 1.443 3.917 6.41 5.569 10.504 4.369 0.687-0.161 2.012-0.783 3.398-1.644 0.907-0.564 1.326-1.295 1.409-0.624-0.558 3.329-3.336 5.981-6.892 6.824-0.507 0.109-1.025 0.161-1.543 0.161h-0.039"/></clipPath><mask id="mask8624" x="0" y="0" width="1" height="1" maskUnits="userSpaceOnUse"/><linearGradient id="linearGradient8642" x2="1" gradientTransform="matrix(1.605,11.816,11.816,-1.605,236.8,615.24)" gradientUnits="userSpaceOnUse"><stop offset="0"/><stop stop-color="#fff" offset="1"/></linearGradient><clipPath id="clipPath8682"><path d="m228.7 627.09h17.389v-10.856h-17.389z"/></clipPath><linearGradient id="linearGradient8692" x2="1" gradientTransform="matrix(1.605,11.816,11.816,-1.605,236.8,615.24)" gradientUnits="userSpaceOnUse"><stop stop-color="#fff" offset="0"/><stop stop-color="#fff" offset="1"/></linearGradient><mask id="mask8756" x="0" y="0" width="1" height="1" maskUnits="userSpaceOnUse"><g clip-path="url(#clipPath8714)" opacity=".8"><g clip-path="url(#clipPath8718)"><g clip-path="url(#clipPath8722)"><g clip-path="url(#clipPath8726)"><g mask="url(#mask8736)"><path d="m237.44 626.87c-4.928-0.108-8.831-4.293-8.719-9.349 0.037-1.636 0.49-3.161 1.251-4.475 1.477-0.726 3.176-1.123 4.976-1.083 5.536 0.121 9.933 4.317 9.82 9.372-0.018 0.829-0.157 1.63-0.4 2.389-1.643 1.932-4.059 3.149-6.737 3.149-0.064 0-0.128-1e-3 -0.191-3e-3" fill="url(#linearGradient8754)"/></g></g></g></g></g></mask><clipPath id="clipPath8714"><path d="m228.72 626.87h16.051v-14.912h-16.051z"/></clipPath><clipPath id="clipPath8718"><path d="m228.72 611.96h16.051v14.912h-16.051z"/></clipPath><clipPath id="clipPath8722"><path d="m228.61 626.93h16.272v-15.007h-16.272z"/></clipPath><clipPath id="clipPath8726"><path d="m237.44 626.87c-4.928-0.108-8.831-4.293-8.719-9.349 0.037-1.636 0.49-3.161 1.251-4.475 1.477-0.726 3.176-1.123 4.976-1.083 5.536 0.121 9.933 4.317 9.82 9.372-0.018 0.829-0.157 1.63-0.4 2.389-1.643 1.932-4.059 3.149-6.737 3.149-0.064 0-0.128-1e-3 -0.191-3e-3"/></clipPath><mask id="mask8736" x="0" y="0" width="1" height="1" maskUnits="userSpaceOnUse"/><linearGradient id="linearGradient8754" x2="1" gradientTransform="matrix(12.972,12.207,12.207,-12.972,229.89,613.14)" gradientUnits="userSpaceOnUse"><stop offset="0"/><stop stop-color="#fff" offset="1"/></linearGradient><clipPath id="clipPath8794"><path d="m228.72 626.87h16.051v-14.912h-16.051z"/></clipPath><linearGradient id="linearGradient8804" x2="1" gradientTransform="matrix(12.972,12.207,12.207,-12.972,229.89,613.14)" gradientUnits="userSpaceOnUse"><stop stop-color="#fff" offset="0"/><stop stop-color="#fff" offset="1"/></linearGradient><filter id="filter3593" x="-.092124" y="-.040485" width="1.1842" height="1.081" color-interpolation-filters="sRGB"><feGaussianBlur stdDeviation="0.33579258"/></filter></defs><g transform="matrix(25.454 0 0 -25.454 -6661.4 19062)"><g clip-path="url(#clipPath804-9-8)"><g transform="translate(292.33,748.86)"><path d="m0 0c0.273-3e-3 0.54-0.151 0.685-0.383 0.104-0.165 0.144-0.368 0.114-0.561-0.157-0.954-0.318-1.907-0.481-2.86-0.087-0.49-0.532-0.889-1.039-0.909-0.012-1e-3 -0.025-1e-3 -0.037-1e-3h-2.903c-0.465 0-0.876 0.451-0.799 0.944 0.157 0.954 0.318 1.907 0.481 2.86 0.089 0.5 0.555 0.91 1.076 0.91h2.903m-2.896-0.16c-0.436-1e-3 -0.846-0.328-0.926-0.777-0.163-0.953-0.323-1.905-0.48-2.858-0.058-0.369 0.245-0.76 0.642-0.76h2.901c0.436 0 0.842 0.336 0.92 0.778 0.162 0.953 0.323 1.905 0.48 2.858 0.058 0.368-0.236 0.759-0.642 0.759z" fill="#002f56" fill-rule="evenodd"/></g></g></g><g transform="matrix(25.454 0 0 -25.454 -6661.4 19062)"><path d="m263.28 748.78c-0.498 0-0.923-0.359-1.005-0.849-0.136-0.813-0.342-2.033-0.479-2.849-0.035-0.212 0.024-0.431 0.164-0.595 0.139-0.166 0.345-0.26 0.561-0.26h28.99c0.498 0 0.922 0.359 1.004 0.849 0.137 0.813 0.342 2.032 0.479 2.848 0.036 0.213-0.024 0.432-0.164 0.596-0.139 0.165-0.344 0.26-0.56 0.26z" fill="url(#linearGradient7136)"/></g><g transform="matrix(25.454 0 0 -25.454 -6661.4 19062)"><g clip-path="url(#clipPath840-5-5)"><g transform="translate(292.31,748.86)"><path d="m0 0c0.273-3e-3 0.54-0.151 0.685-0.383 0.104-0.165 0.144-0.368 0.114-0.561-0.157-0.954-0.318-1.907-0.481-2.86-0.087-0.49-0.532-0.889-1.039-0.909-0.012-1e-3 -0.025-1e-3 -0.037-1e-3 -7.981-0.021-21.059-0.028-29.04 0-0.465 5e-3 -0.877 0.451-0.799 0.944 0.157 0.954 0.318 1.907 0.481 2.86 0.088 0.5 0.555 0.906 1.076 0.91 7.981 0.024 21.059 0.028 29.04 0m-29.034-0.159c-0.435-2e-3 -0.846-0.329-0.925-0.778-0.163-0.953-0.324-1.905-0.48-2.858-0.059-0.369 0.244-0.755 0.642-0.76 7.98-0.027 20.981-0.021 28.961 0 0.436 4e-3 0.842 0.336 0.92 0.778 0.163 0.953 0.324 1.905 0.481 2.858 0.057 0.368-0.237 0.755-0.643 0.76-7.978 0.027-20.977 0-28.956 0" fill="#002f56" fill-rule="evenodd"/></g></g></g><g transform="matrix(25.454 0 0 -25.454 -6661.4 19062)"><path d="m277.85 748.59-0.772-4.181c3.265 0 8.982-0.01 12.247 0 0.433 3e-3 0.837 0.332 0.918 0.772 0.156 0.882 0.31 1.764 0.46 2.647 0.061 0.37-0.241 0.759-0.641 0.762-1.085 4e-3 -2.442 6e-3 -3.889 6e-3 -2.896 0-6.154-6e-3 -8.323-6e-3" fill="url(#linearGradient7138)"/></g><g transform="matrix(1.3382 0 0 -1.3382 -756.25 1409.1)" fill-opacity=".40392" filter="url(#filter3869-9)"><g transform="matrix(19.019,0,0,19.019,-4411,-13192)"><g fill-opacity=".40392"><g fill-opacity=".40392"><g fill-opacity=".40392"><path d="m278.98 747.71c-0.141 0-0.261-0.042-0.36-0.128-0.099-0.085-0.161-0.2-0.186-0.345l-0.073-0.415c-0.022-0.129 3e-3 -0.238 0.078-0.327 0.075-0.088 0.186-0.15 0.333-0.185l0.605-0.138c0.035-9e-3 0.058-0.02 0.068-0.032 0.01-0.013 0.013-0.037 9e-3 -0.072l-0.045-0.27c-0.014-0.089-0.065-0.134-0.152-0.134h-0.523c-0.036 0-0.06 7e-3 -0.071 0.021-9e-3 0.013-0.011 0.04-5e-3 0.079l0.042 0.239h-0.484l-0.052-0.301c-0.025-0.148 0-0.268 0.076-0.363 0.079-0.097 0.189-0.145 0.332-0.145h0.764c0.14 0 0.261 0.043 0.36 0.127 0.099 0.086 0.161 0.201 0.186 0.346l0.079 0.443c0.025 0.129 0 0.237-0.075 0.325-0.077 0.087-0.189 0.149-0.339 0.186l-0.606 0.139c-0.034 9e-3 -0.056 0.019-0.066 0.033-0.011 0.012-0.014 0.036-9e-3 0.07l0.041 0.242c0.014 0.09 0.065 0.135 0.152 0.135h0.485c0.034 0 0.056-7e-3 0.067-0.021 0.01-0.014 0.012-0.04 5e-3 -0.079l-0.038-0.211h0.484l0.048 0.273c0.026 0.148-1e-3 0.269-0.08 0.363-0.075 0.096-0.185 0.145-0.328 0.145z" fill-opacity=".40392"/></g></g></g></g><g transform="matrix(19.019,0,0,19.019,-4411,-13192)"><g fill-opacity=".40392"><g fill-opacity=".40392"><g fill-opacity=".40392"><path d="m280.42 747.7-0.435-2.489h0.498l0.152 0.877h0.771c0.143 0 0.264 0.044 0.363 0.128 0.099 0.086 0.16 0.201 0.183 0.346l0.114 0.629c0.023 0.146-5e-3 0.266-0.083 0.363s-0.188 0.146-0.329 0.146zm0.415-0.47h0.643c0.037 0 0.061-8e-3 0.071-0.022 0.011-0.013 0.013-0.039 5e-3 -0.079l-0.076-0.436c-0.018-0.09-0.068-0.135-0.152-0.135h-0.608z" fill-opacity=".40392"/></g></g></g></g><g transform="matrix(19.019,0,0,19.019,-4411,-13192)"><g fill-opacity=".40392"><g fill-opacity=".40392"><g fill-opacity=".40392"><path d="m284.25 747.7-0.436-2.489h0.498l0.163 0.922h0.387l0.228-0.922h0.521l-0.241 0.936c0.232 0.056 0.372 0.209 0.418 0.46l0.103 0.584c0.026 0.148-1e-3 0.269-0.079 0.363-0.078 0.097-0.189 0.146-0.332 0.146zm0.414-0.47h0.64c0.037 0 0.061-8e-3 0.071-0.022 0.01-0.013 0.012-0.039 5e-3 -0.079l-0.069-0.398c-0.018-0.089-0.069-0.134-0.152-0.134h-0.605z" fill-opacity=".40392"/></g></g></g></g><g transform="matrix(19.019,0,0,19.019,-4411,-13192)"><g fill-opacity=".40392"><g fill-opacity=".40392"><g fill-opacity=".40392"><path d="m286 747.7-0.08-0.464h0.632l-0.355-2.025h0.497l0.356 2.025h0.633l0.079 0.464z" fill-opacity=".40392"/></g></g></g></g><g transform="matrix(19.019,0,0,19.019,-4411,-13192)"><g fill-opacity=".40392"><g fill-opacity=".40392"><g fill-opacity=".40392"><path d="m283.38 747.71-0.082-0.47h0.092c0.034 0 0.057-7e-3 0.068-0.021 0.01-0.014 0.011-0.04 5e-3 -0.079l-0.236-1.342c-0.015-0.089-0.064-0.134-0.148-0.134h-0.055l-0.082-0.47h0.213c0.141 0 0.26 0.043 0.359 0.127 0.099 0.086 0.162 0.201 0.188 0.346l0.269 1.535c0.025 0.148-1e-3 0.269-0.08 0.363-0.076 0.096-0.185 0.145-0.328 0.145zm-0.636 0c-0.14 0-0.26-0.042-0.36-0.128-0.099-0.085-0.161-0.2-0.186-0.345l-0.269-1.535c-0.027-0.148 0-0.268 0.075-0.363 0.081-0.097 0.192-0.145 0.332-0.145h0.222l0.082 0.47h-0.127c-0.037 0-0.062 7e-3 -0.071 0.021-0.011 0.013-0.013 0.04-6e-3 0.079l0.235 1.341c0.019 0.09 0.069 0.135 0.152 0.135h0.092l0.082 0.47z" fill-opacity=".40392"/></g></g></g></g></g><g transform="matrix(1.3382 0 0 -1.3382 -758.25 1407.1)"><g transform="matrix(19.019,0,0,19.019,-4411,-13192)"><path d="m278.98 747.71c-0.141 0-0.261-0.042-0.36-0.128-0.099-0.085-0.161-0.2-0.186-0.345l-0.073-0.415c-0.022-0.129 3e-3 -0.238 0.078-0.327 0.075-0.088 0.186-0.15 0.333-0.185l0.605-0.138c0.035-9e-3 0.058-0.02 0.068-0.032 0.01-0.013 0.013-0.037 9e-3 -0.072l-0.045-0.27c-0.014-0.089-0.065-0.134-0.152-0.134h-0.523c-0.036 0-0.06 7e-3 -0.071 0.021-9e-3 0.013-0.011 0.04-5e-3 0.079l0.042 0.239h-0.484l-0.052-0.301c-0.025-0.148 0-0.268 0.076-0.363 0.079-0.097 0.189-0.145 0.332-0.145h0.764c0.14 0 0.261 0.043 0.36 0.127 0.099 0.086 0.161 0.201 0.186 0.346l0.079 0.443c0.025 0.129 0 0.237-0.075 0.325-0.077 0.087-0.189 0.149-0.339 0.186l-0.606 0.139c-0.034 9e-3 -0.056 0.019-0.066 0.033-0.011 0.012-0.014 0.036-9e-3 0.07l0.041 0.242c0.014 0.09 0.065 0.135 0.152 0.135h0.485c0.034 0 0.056-7e-3 0.067-0.021 0.01-0.014 0.012-0.04 5e-3 -0.079l-0.038-0.211h0.484l0.048 0.273c0.026 0.148-1e-3 0.269-0.08 0.363-0.075 0.096-0.185 0.145-0.328 0.145z" fill="url(#linearGradient7140)"/></g><g transform="matrix(19.019,0,0,19.019,-4411,-13192)"><path d="m280.42 747.7-0.435-2.489h0.498l0.152 0.877h0.771c0.143 0 0.264 0.044 0.363 0.128 0.099 0.086 0.16 0.201 0.183 0.346l0.114 0.629c0.023 0.146-5e-3 0.266-0.083 0.363s-0.188 0.146-0.329 0.146zm0.415-0.47h0.643c0.037 0 0.061-8e-3 0.071-0.022 0.011-0.013 0.013-0.039 5e-3 -0.079l-0.076-0.436c-0.018-0.09-0.068-0.135-0.152-0.135h-0.608z" fill="url(#linearGradient7142)"/></g><g transform="matrix(19.019,0,0,19.019,-4411,-13192)"><path d="m284.25 747.7-0.436-2.489h0.498l0.163 0.922h0.387l0.228-0.922h0.521l-0.241 0.936c0.232 0.056 0.372 0.209 0.418 0.46l0.103 0.584c0.026 0.148-1e-3 0.269-0.079 0.363-0.078 0.097-0.189 0.146-0.332 0.146zm0.414-0.47h0.64c0.037 0 0.061-8e-3 0.071-0.022 0.01-0.013 0.012-0.039 5e-3 -0.079l-0.069-0.398c-0.018-0.089-0.069-0.134-0.152-0.134h-0.605z" fill="url(#linearGradient7144)"/></g><g transform="matrix(19.019,0,0,19.019,-4411,-13192)"><path d="m286 747.7-0.08-0.464h0.632l-0.355-2.025h0.497l0.356 2.025h0.633l0.079 0.464z" fill="url(#linearGradient7146)"/></g><g transform="matrix(19.019,0,0,19.019,-4411,-13192)"><path d="m283.38 747.71-0.082-0.47h0.092c0.034 0 0.057-7e-3 0.068-0.021 0.01-0.014 0.011-0.04 5e-3 -0.079l-0.236-1.342c-0.015-0.089-0.064-0.134-0.148-0.134h-0.055l-0.082-0.47h0.213c0.141 0 0.26 0.043 0.359 0.127 0.099 0.086 0.162 0.201 0.188 0.346l0.269 1.535c0.025 0.148-1e-3 0.269-0.08 0.363-0.076 0.096-0.185 0.145-0.328 0.145zm-0.636 0c-0.14 0-0.26-0.042-0.36-0.128-0.099-0.085-0.161-0.2-0.186-0.345l-0.269-1.535c-0.027-0.148 0-0.268 0.075-0.363 0.081-0.097 0.192-0.145 0.332-0.145h0.222l0.082 0.47h-0.127c-0.037 0-0.062 7e-3 -0.071 0.021-0.011 0.013-0.013 0.04-6e-3 0.079l0.235 1.341c0.019 0.09 0.069 0.135 0.152 0.135h0.092l0.082 0.47z" fill="url(#linearGradient7148)"/></g></g><g transform="matrix(1.3382 0 0 -1.3382 -756.25 1409.1)" fill-opacity=".40392" filter="url(#filter4243-2)"><g transform="matrix(19.019,0,0,19.019,-4411,-13192)"><g fill-opacity=".40392"><g fill-opacity=".40392"><g fill-opacity=".40392"><path d="m263.91 747.7-0.435-2.489h0.497l0.153 0.877h0.77c0.143 0 0.265 0.044 0.364 0.128 0.099 0.086 0.16 0.201 0.182 0.346l0.115 0.629c0.023 0.146-5e-3 0.266-0.083 0.363-0.079 0.097-0.188 0.146-0.329 0.146zm0.415-0.47h0.643c0.037 0 0.06-8e-3 0.071-0.022 0.01-0.013 0.012-0.039 5e-3 -0.079l-0.076-0.436c-0.018-0.09-0.069-0.135-0.152-0.135h-0.609z" fill-opacity=".40392"/></g></g></g></g><g transform="matrix(19.019,0,0,19.019,-4411,-13192)"><g fill-opacity=".40392"><g fill-opacity=".40392"><g fill-opacity=".40392"><path d="m265.79 747.7-0.435-2.489h0.498l0.162 0.922h0.387l0.228-0.922h0.522l-0.242 0.936c0.233 0.056 0.373 0.209 0.419 0.46l0.103 0.584c0.025 0.148-1e-3 0.269-0.079 0.363-0.078 0.097-0.189 0.146-0.332 0.146zm0.415-0.47h0.639c0.037 0 0.062-8e-3 0.071-0.022 0.011-0.013 0.013-0.039 6e-3 -0.079l-0.069-0.398c-0.018-0.089-0.07-0.134-0.153-0.134h-0.604z" fill-opacity=".40392"/></g></g></g></g><g transform="matrix(19.019,0,0,19.019,-4411,-13192)"><g fill-opacity=".40392"><g fill-opacity=".40392"><g fill-opacity=".40392"><path d="m267.76 747.7-0.434-2.489h1.6l0.083 0.47h-1.103l0.096 0.567h0.892l0.083 0.47h-0.892l0.09 0.512h1.103l0.083 0.469v1e-3z" fill-opacity=".40392"/></g></g></g></g><g transform="matrix(19.019,0,0,19.019,-4411,-13192)"><g fill-opacity=".40392"><g fill-opacity=".40392"><g fill-opacity=".40392"><path d="m271.31 747.7-0.877-1.473-0.36 1.473h-0.532l-0.436-2.489h0.47l0.298 1.659 0.31-1.262h0.346l0.74 1.262-0.297-1.659h0.47l0.435 2.489z" fill-opacity=".40392"/></g></g></g></g><g transform="matrix(19.019,0,0,19.019,-4411,-13192)"><g fill-opacity=".40392"><g fill-opacity=".40392"><g fill-opacity=".40392"><path d="m272.17 747.7-0.436-2.489h0.498l0.435 2.488v1e-3z" fill-opacity=".40392"/></g></g></g></g><g transform="matrix(19.019,0,0,19.019,-4411,-13192)"><g fill-opacity=".40392"><g fill-opacity=".40392"><g fill-opacity=".40392"><path d="m272.96 747.7-0.435-2.489h1.6l0.084 0.47h-1.103l0.096 0.567h0.892l0.083 0.47h-0.892l0.09 0.512h1.103l0.083 0.47z" fill-opacity=".40392"/></g></g></g></g><g transform="matrix(19.019,0,0,19.019,-4411,-13192)"><g fill-opacity=".40392"><g fill-opacity=".40392"><g fill-opacity=".40392"><path d="m274.74 747.7-0.436-2.489h0.498l0.162 0.922h0.387l0.229-0.922h0.522l-0.243 0.936c0.234 0.056 0.372 0.209 0.419 0.46l0.103 0.584c0.026 0.148-1e-3 0.269-0.079 0.363-0.078 0.097-0.189 0.146-0.332 0.146zm0.415-0.47h0.639c0.037 0 0.06-8e-3 0.071-0.022 0.01-0.013 0.012-0.039 5e-3 -0.079l-0.069-0.398c-0.019-0.089-0.069-0.134-0.152-0.134h-0.605z" fill-opacity=".40392"/></g></g></g></g></g><g transform="matrix(1.3382 0 0 -1.3382 -758.25 1407.1)"><g transform="matrix(19.019,0,0,19.019,-4411,-13192)"><path d="m263.91 747.7-0.435-2.489h0.497l0.153 0.877h0.77c0.143 0 0.265 0.044 0.364 0.128 0.099 0.086 0.16 0.201 0.182 0.346l0.115 0.629c0.023 0.146-5e-3 0.266-0.083 0.363-0.079 0.097-0.188 0.146-0.329 0.146zm0.415-0.47h0.643c0.037 0 0.06-8e-3 0.071-0.022 0.01-0.013 0.012-0.039 5e-3 -0.079l-0.076-0.436c-0.018-0.09-0.069-0.135-0.152-0.135h-0.609z" fill="url(#linearGradient7150)"/></g><g transform="matrix(19.019,0,0,19.019,-4411,-13192)"><path d="m265.79 747.7-0.435-2.489h0.498l0.162 0.922h0.387l0.228-0.922h0.522l-0.242 0.936c0.233 0.056 0.373 0.209 0.419 0.46l0.103 0.584c0.025 0.148-1e-3 0.269-0.079 0.363-0.078 0.097-0.189 0.146-0.332 0.146zm0.415-0.47h0.639c0.037 0 0.062-8e-3 0.071-0.022 0.011-0.013 0.013-0.039 6e-3 -0.079l-0.069-0.398c-0.018-0.089-0.07-0.134-0.153-0.134h-0.604z" fill="url(#linearGradient7152)"/></g><g transform="matrix(19.019,0,0,19.019,-4411,-13192)"><path d="m267.76 747.7-0.434-2.489h1.6l0.083 0.47h-1.103l0.096 0.567h0.892l0.083 0.47h-0.892l0.09 0.512h1.103l0.083 0.469v1e-3z" fill="url(#linearGradient7154)"/></g><g transform="matrix(19.019,0,0,19.019,-4411,-13192)"><path d="m271.31 747.7-0.877-1.473-0.36 1.473h-0.532l-0.436-2.489h0.47l0.298 1.659 0.31-1.262h0.346l0.74 1.262-0.297-1.659h0.47l0.435 2.489z" fill="url(#linearGradient7156)"/></g><g transform="matrix(19.019,0,0,19.019,-4411,-13192)"><path d="m272.17 747.7-0.436-2.489h0.498l0.435 2.488v1e-3z" fill="url(#linearGradient7158)"/></g><g transform="matrix(19.019,0,0,19.019,-4411,-13192)"><path d="m272.96 747.7-0.435-2.489h1.6l0.084 0.47h-1.103l0.096 0.567h0.892l0.083 0.47h-0.892l0.09 0.512h1.103l0.083 0.47z" fill="url(#linearGradient7160)"/></g><g transform="matrix(19.019,0,0,19.019,-4411,-13192)"><path d="m274.74 747.7-0.436-2.489h0.498l0.162 0.922h0.387l0.229-0.922h0.522l-0.243 0.936c0.234 0.056 0.372 0.209 0.419 0.46l0.103 0.584c0.026 0.148-1e-3 0.269-0.079 0.363-0.078 0.097-0.189 0.146-0.332 0.146zm0.415-0.47h0.639c0.037 0 0.06-8e-3 0.071-0.022 0.01-0.013 0.012-0.039 5e-3 -0.079l-0.069-0.398c-0.019-0.089-0.069-0.134-0.152-0.134h-0.605z" fill="url(#linearGradient7162)"/></g></g><path transform="matrix(1.3333 0 0 -1.3333 -1755.4 1802.7)" d="m1856.3 1345c4.0091-0.038 7.9036-2.2336 9.9845-5.6318 1.489-2.4436 2.0427-5.4026 1.5463-8.2281-3.3027-18.365-6.7008-36.731-10.118-55.096-1.2791-6.6626-7.5026-11.989-14.433-12.084-152.4-1.2791-356.77-0.4773-509.17 0-6.8154 0.076-12.772 6.739-11.531 13.841 3.3027 18.384 6.7008 36.75 10.118 55.115 1.2982 6.6817 7.5026 12.027 14.509 12.084 152.38 0.4582 356.71 0.5536 509.09 0m-509-3.0545c-5.46 0-10.557-4.1045-11.607-9.6027-3.4363-18.365-6.949-36.712-10.137-55.115-0.8018-4.9064 3.15-10.137 8.5145-10.233 152.4-1.5845 356.77-1.2791 509.17 0 5.3836 0.076 10.404 4.1427 11.474 9.5454 3.5318 18.346 6.8154 36.75 10.118 55.134 0.859 4.9636-3.0736 10.214-8.5527 10.271-152.34 0.5727-356.63 0-508.98 0" clip-path="url(#clipPath1568)" fill-opacity=".40392" fill-rule="evenodd" filter="url(#filter4345-2-2-1)"/><path d="m717.61 7.0119c5.3453 0.050665 10.538 2.9781 13.312 7.5089 1.9853 3.2581 2.7235 7.2033 2.0617 10.971-4.4035 24.486-8.9342 48.973-13.49 73.459-1.7054 8.8832-10.003 15.985-19.244 16.112-203.19 1.7054-475.68 0.63638-678.88 0-9.087-0.10133-17.029-8.9851-15.374-18.454 4.4035-24.511 8.9342-48.999 13.49-73.485 1.7309-8.9087 10.003-16.036 19.345-16.112 203.17-0.61092 475.6-0.73811 678.77 0m-678.65 4.0726c-7.2798 0-14.076 5.4725-15.476 12.803-4.5816 24.486-9.2651 48.948-13.516 73.485-1.0691 6.5417 4.1999 13.516 11.352 13.644 203.19 2.1126 475.68 1.7054 678.88 0 7.178-0.10133 13.872-5.5235 15.298-12.727 4.709-24.461 9.087-48.999 13.49-73.51 1.1453-6.618-4.098-13.618-11.403-13.694-203.11-0.76358-475.49 0-678.62 0" fill="#fff" fill-rule="evenodd" stroke-width="1.3333"/><path d="m757.61 114.08h-69.209c-10.436 0-17.385-8.5524-15.425-18.989l12.701-68.216c1.96-10.436 12.09-18.989 22.526-18.989h69.209c10.436 0 17.385 8.5525 15.425 18.989l-12.701 68.216c-1.96 10.436-12.09 18.989-22.526 18.989" fill="#fff" fill-rule="evenodd" stroke-width="1.3333"/><path transform="matrix(.99998 0 0 .99998 -.040774 400.47)" d="m706.59-391.49c-9.3672 0-17.64 7.2043-19.346 16.113-4.5817 24.487-9.0885 48.974-13.518 73.461 0 5.3673 7.0117 14.434 15.324 14.434-7.1272 0-12.421-7.1027-11.326-13.645 4.2255-24.538 8.9338-48.999 13.49-73.486 1.4255-7.3309 8.1966-12.805 15.477-12.83h73.816c7.3055 0 12.55 7.1026 11.404 13.721l1.2134 0.12262c0-10.088-9.2276-17.89-12.592-17.89z" fill-opacity=".40323" fill-rule="evenodd" filter="url(#filter3597-7)"/><path d="m778.41 7.0119c5.3453 0.050665 10.538 2.9781 13.312 7.5089 1.9853 3.2581 2.7235 7.2033 2.0617 10.971-4.4035 24.486-8.9342 48.973-13.49 73.459-1.7054 8.8832-10.003 16.112-19.244 16.112h-74.045c-9.0868 0-17.029-8.9851-15.4-18.48 4.429-24.486 8.9343-48.973 13.516-73.459 1.7054-8.9087 9.9779-16.112 19.345-16.112zm-73.841 4.0471c-7.2798 0.02533-14.05 5.498-15.476 12.829-4.5563 24.486-9.2651 48.948-13.49 73.485-1.0945 6.5417 4.1999 13.644 11.327 13.644h74.07c7.178 0 13.846-5.5235 15.298-12.752 4.709-24.435 9.087-48.973 13.49-73.485 1.1453-6.618-4.098-13.72-11.403-13.72z" fill="#fff" fill-rule="evenodd" stroke-width="1.3333"/><g transform="matrix(1.3382 0 0 -1.3382 -652.53 2038.8)" clip-path="url(#clipPath8594)"><g mask="url(#mask8644)"><g clip-path="url(#clipPath8682)" opacity=".8"><path d="m237.61 627.09c-0.531-2e-3 -1.063-0.058-1.583-0.163-3.97-0.865-7.295-4.567-7.332-8.285v-0.128c8e-3 -0.655 0.117-1.309 0.344-1.947 0 0 0.712-1.365 1.734 1.437 1.443 3.917 6.41 5.569 10.504 4.369 0.687-0.161 2.012-0.783 3.398-1.644 0.907-0.564 1.326-1.295 1.409-0.624-0.558 3.329-3.336 5.981-6.892 6.824-0.498 0.107-1.005 0.159-1.513 0.161z" fill="url(#linearGradient8692)"/></g></g><g mask="url(#mask8756)"><g clip-path="url(#clipPath8794)" opacity=".8"><path d="m237.57 626.87c-0.042 0-0.085-1e-3 -0.127-2e-3 -4.825-0.106-8.668-4.121-8.721-9.035v-0.204c0-0.036 1e-3 -0.073 2e-3 -0.11 0.037-1.636 0.49-3.161 1.251-4.475 1.41-0.693 3.021-1.086 4.73-1.086h1e-3c0.082 0 0.163 1e-3 0.245 3e-3 5.443 0.119 9.783 4.176 9.822 9.116v0.139c0 0.039-1e-3 0.078-2e-3 0.117-0.018 0.829-0.157 1.63-0.4 2.389-1.63 1.916-4.019 3.128-6.672 3.148z" fill="url(#linearGradient8804)"/></g></g></g><path transform="matrix(3.2108 0 0 3.2108 -58.813 232.05)" d="m247.78-61.848-4.4387 1.4758-0.70386 4.0027 4.4392-1.4763-2.7967 15.904h3.6055l3.5-19.906z" fill-opacity=".40392" filter="url(#filter3593)" stroke-width="1.3333"/><path d="m734.76 31.471-14.252 4.7385-2.26 12.852 14.253-4.7401-8.9797 51.065h11.577l11.238-63.915z" fill="#002f56" stroke-width="4.281"/></svg>
