<svg width="8.2793mm" height="3.7814mm" version="1.1" viewBox="0 0 8.2793 3.7814" xmlns="http://www.w3.org/2000/svg">
 <g transform="translate(-43.148 -72.859)">
  <path d="m47.928 75.404c-0.19932 0-0.28469 0.11606-0.28469 0.46814v0.76835h0.49389v-0.9077c0-0.2025-0.05891-0.32879-0.2092-0.32879m1.0019 0c-0.23848 0-0.26176 0.18556-0.26176 0.46426v0.77223h0.49354v-0.94121c0-0.18556-0.08819-0.29528-0.23178-0.29528m-4.0414-0.26988c0-0.22613-0.11889-0.33267-0.2794-0.35278l-0.36407-0.04586v0.64452l0.36407 0.03104c0.16334 0.01411 0.2794-0.05715 0.2794-0.27693m5.6751 0.86431c-0.12382 0.02963-0.2286 0.08255-0.2286 0.21837 0 0.13935 0.10795 0.19579 0.23213 0.19579 0.26458 0 0.35278-0.1524 0.34008-0.5073-0.07867 0.04939-0.2226 0.05927-0.34361 0.09313m-3.616-1.1613-0.39688-0.0575v-0.44485l0.39688 0.07091zm0.0011-1.1176-3.8005-0.86007-7.07e-4 3.7814 0.52246-3.44e-4v-2.522l1.0185 0.16298c0.36548 0.05856 0.69356 0.31009 0.69356 0.86254 0 0.57856-0.26388 0.78987-0.69356 0.76659l-0.44344-0.02328v0.75318h1.2428v-1.869l0.46531 0.06244v0.32949l0.0056 3.52e-4c0.06773-0.23001 0.23389-0.30515 0.42369-0.2794 0.03351 0.0042 0.09102 0.01199 0.09102 0.01199v0.52811l-0.12065-0.01129c-0.15451-0.01482-0.38594 0.01411-0.38594 0.369v0.85831h0.58526v-1.7057l0.40111 0.05362v1.6521h0.15875v-1.651h0.51541v0.23566h6e-3c0.10195-0.17286 0.28152-0.28575 0.48719-0.28575 0.21237 0 0.37818 0.0702 0.46955 0.27905 0.13406-0.18239 0.30057-0.27905 0.52917-0.27905 0.5394 0 0.57432 0.41487 0.57432 0.7433v0.95779h0.26317c-0.10936-0.08537-0.17674-0.21802-0.17674-0.4004 0-0.56056 0.60078-0.51717 0.98637-0.5969 0.09454-0.02011 0.14711-0.05362 0.14711-0.1591 0-0.12982-0.15346-0.17921-0.26811-0.17921-0.15346 0-0.25118 0.0695-0.27764 0.2152h-0.51964c0.0099-0.22507 0.11465-0.37148 0.26458-0.46108 0.15028-0.08572 0.34643-0.11959 0.53904-0.11959 0.35489 0 0.69885 0.0702 0.77505 0.42157v-1.6415z" fill="#f36917"/>
 </g>
</svg>
