<svg version="1.1" viewBox="0 0 240.72 54" xmlns="http://www.w3.org/2000/svg">
 <path d="m16.253 23.53c0 1.2452 0.7229 1.7752 2.9161 1.7752h4.8035v-3.0764h-5.6709c-1.2613 0-2.0487 0.36129-2.0487 1.3013" fill="#1de11c" stroke-width=".32258"/>
 <path d="m16.253 17.278c0 1.4861 1.1568 1.6306 2.9 1.6306h4.8197v-3.0764h-5.8803c-1.1568 0-1.8397 0.54613-1.8397 1.4458" fill="#1de11c" stroke-width=".32258"/>
 <path d="m19.382 4.9364c0.31322 0.49 0.36935 1.3897 0.57838 2.1448 0.18484 0.77096 0.51419 1.4297 1.3655 1.4297 0.86774 0 1.221-0.67451 1.221-1.4539 0-1.6468-0.94774-2.201-3.1648-2.1206" fill="#1de11c" stroke-width=".32258"/>
 <path d="m12.366 44.248-0.28935 2.2742h4.0245l0.1929-2.2742c0.08839-1.0194-0.35355-1.7452-1.7271-1.7452-1.4058 0-2.0726 0.73871-2.201 1.7452" fill="#1de11c" stroke-width=".32258"/>
 <path d="m21.472 11.972c-3.5022 0-3.2293-3.7513-3.7274-6.1532l-0.99612-0.92387c-0.80322 0-1.1164 0.95612-1.1164 1.671 0 0.96387 0.43355 1.5745 1.3413 1.7352v3.2455c-1.4058-0.064194-2.3135-0.71516-2.8758-1.6548-0.53806-0.93193-0.74709-2.161-0.74709-3.3577 0-2.2171 0.44193-4.3619 2.6271-4.8438l-9.0532 3.23e-5h-1.189v27.955l-5.7355 22.355v1.3677h23.971v-3.2613h-15.745l1.0203-6.3548c0.36129-2.2806 1.9358-4.329 5.3822-4.329 3.6148 0 4.9319 1.6452 4.7877 4.329l-0.1529 2.7613h4.7074v-7.7516h-11.664l0.3858-2.9064h2.0564v-0.03226c-1.43-0.41935-1.9039-1.4613-1.7432-2.6419l0.08032-0.57096h3.2935l-0.07226 0.75484c-0.08839 0.96451 0.08839 2.4097 2.3055 2.4097h5.358v-3.6558h-10.644l0.32935-2.4981h10.314v-0.99612h-10.306v-3.2132h1.47v-0.04032c-1.0764-0.63451-1.7832-1.759-1.7832-3.0445 0-1.3252 0.44161-2.3535 1.7429-2.9319-1.1406-0.83548-1.7429-1.8716-1.7429-3.3016 0-3.3658 2.5945-3.5826 4.6432-3.5826h5.9764v-1.6387c-0.53838 0.6829-1.3658 1.1006-2.4984 1.1006m-9.1174 20.155h-2.7793l0.44161-2.4822h2.6993z" fill="#1de11c" stroke-width=".32258"/>
 <path d="m65.4 43.297 0.5 0.66774c0 0.44193-0.30645 1.2129-0.91612 2.3226-0.60322 1.1-1.6322 2.3774-3.0677 3.8161-2.4839 2.5387-6.0484 3.8161-10.7 3.8161h-4.0645c-2.3226 0-4.4355-0.34838-6.3484-1.0387-1.9032-0.69032-3.5322-1.6871-4.8903-2.9871-1.3516-1.3-2.3935-2.8516-3.1097-4.6419-0.71516-1.8-1.0768-3.8-1.0768-6.0193v-24.548c0-2.2093 0.36968-4.2174 1.1155-6.0167 0.74838-1.7916 1.7839-3.3258 3.1097-4.6029 1.3323-1.2693 2.9484-2.2653 4.8516-2.9883 1.9129-0.71493 4.0258-1.0764 6.3451-1.0764h4.0677c1.8774 1.2274e-5 3.5968 0.22493 5.1484 0.66674 1.5419 0.4418 2.9548 1.1327 4.2258 2.0725 0.8258 0.61035 1.5742 1.2691 2.2387 1.992l1.6548 2.0726 1.0387 1.8235 0.37742 1.1648-0.5 0.65871-7.2129 3.5668-0.41613 0.08032-0.58064-0.36968-0.57742-1.0361c-0.72258-1.2693-1.4935-2.2574-2.329-2.948-0.82903-0.69096-1.8484-1.0364-3.0677-1.0364h-4.0677c-1.6548 0-3.0677 0.58645-4.2226 1.7432-1.1645 1.1648-1.7452 2.5706-1.7452 4.2335v24.548c0 1.6645 0.58064 3.071 1.7452 4.2355 1.1548 1.1548 2.5677 1.7355 4.2226 1.7355h4.0677c1.2193 0 2.2226-0.32903 3.0258-0.99032 0.80322-0.66451 1.5677-1.6613 2.2839-2.9871 0.49677-1.0516 0.91612-1.5742 1.2452-1.5742l0.41613 0.08064 7.2129 3.5677z" fill="#1de11c" stroke-width=".32258"/>
 <path d="m81.574 13.272v27.457c0 1.5516 0.37097 2.6258 1.1161 3.229 0.74838 0.60968 1.4806 0.91612 2.2032 0.91612l0.41613 0.08064 0.40968 0.74516v7.4709l-0.49677 0.73871-1.1581 0.09032c-1.6064-0.058057-3.1548-0.43548-4.6419-1.1258-1.4935-0.69032-2.829-1.6387-3.9839-2.8581-1.1645-1.2129-2.0903-2.6129-2.7806-4.1871s-1.0355-3.2774-1.0355-5.1v-27.457c0-1.8235 0.34516-3.5264 1.0355-5.1009s1.6161-2.9722 2.7806-4.1851c1.1548-1.2209 2.4903-2.1768 3.9839-2.8676 1.4871-0.69084 3.0355-1.0603 4.6419-1.1166l1.1581 0.080358 0.49677 0.74706v7.4625l-0.40968 0.74709-0.41613 0.088064c-0.72258 0-1.4548 0.30548-2.2032 0.90774-0.74516 0.61064-1.1161 1.6871-1.1161 3.2374" fill="#1de11c" stroke-width=".32258"/>
 <path d="m98.164 13.272c0-1.5503-0.36774-2.6268-1.1161-3.2374-0.74516-0.60258-1.4839-0.90774-2.2-0.90774l-0.41935-0.088387-0.40968-0.74709v-7.4625l0.5-0.74693 1.1548-0.080319c1.5516 0.056222 3.071 0.42574 4.5645 1.1166 1.4935 0.69084 2.8193 1.6467 3.9838 2.8678 1.1581 1.2129 2.0968 2.6106 2.8194 4.1851 0.71612 1.5745 1.0774 3.2774 1.0774 5.1009v27.457c0 1.8226-0.36129 3.5258-1.0774 5.1-0.72258 1.5742-1.6613 2.9742-2.8194 4.1871-1.1645 1.2193-2.4903 2.1677-3.9838 2.858-1.4935 0.69032-3.0129 1.0677-4.5645 1.1258l-1.1548-0.09032-0.5-0.73871v-7.4709l0.40968-0.74516 0.41935-0.08065c0.71612 0 1.4548-0.30645 2.2-0.91612 0.74838-0.60322 1.1161-1.6774 1.1161-3.229v-27.457z" fill="#1de11c" stroke-width=".32258"/>
 <path d="m126.36 13.272v27.457c0 1.5516 0.37097 2.6258 1.1161 3.229 0.74838 0.60968 1.4806 0.91612 2.2032 0.91612l0.41613 0.08064 0.40967 0.74516v7.4709l-0.49677 0.73871-1.1581 0.09032c-1.6064-0.05806-3.1548-0.43548-4.6419-1.1258-1.4935-0.69032-2.829-1.6387-3.9838-2.8581-1.1645-1.2129-2.0903-2.6129-2.7806-4.1871s-1.0355-3.2774-1.0355-5.1v-27.457c0-1.8235 0.34516-3.5264 1.0355-5.1009s1.6161-2.9722 2.7806-4.1851c1.1548-1.2209 2.4903-2.1768 3.9838-2.8676 1.4871-0.69084 3.0355-1.0603 4.6419-1.1166l1.1581 0.080358 0.49677 0.74706v7.4625l-0.40967 0.74709-0.41613 0.088064c-0.72258 0-1.4548 0.30548-2.2032 0.90774-0.74516 0.61064-1.1161 1.6871-1.1161 3.2374" fill="#1de11c" stroke-width=".32258"/>
 <path d="m142.95 13.272c0-1.5503-0.37097-2.6268-1.1194-3.2374-0.74516-0.60258-1.4839-0.90774-2.2-0.90774l-0.41613-0.088387-0.40968-0.74709v-7.4625l0.49678-0.74693 1.158-0.080319c1.5484 0.056222 3.0677 0.42574 4.5613 1.1166 1.4935 0.69084 2.8193 1.6467 3.9838 2.8678 1.1581 1.2129 2.0968 2.6106 2.8194 4.1851 0.71612 1.5745 1.0774 3.2774 1.0774 5.1009v27.457c0 1.8226-0.36129 3.5258-1.0774 5.1-0.72258 1.5742-1.6613 2.9742-2.8194 4.1871-1.1645 1.2193-2.4903 2.1677-3.9838 2.858-1.4935 0.69032-3.0129 1.0677-4.5613 1.1258l-1.158-0.09032-0.49678-0.73871v-7.4709l0.40968-0.74516 0.41613-0.08065c0.71612 0 1.4548-0.30645 2.2-0.91612 0.74838-0.60322 1.1194-1.6774 1.1194-3.229v-27.457z" fill="#1de11c" stroke-width=".32258"/>
 <path d="m193.55 52.255-0.8258 0.82903h-29.281l-0.82903-0.82903v-50.6l0.82903-0.82603h7.8806l0.8258 0.82738v41.89l0.82903 0.82903h19.742l0.82903 0.8258v7.0548z" fill="#1de11c" stroke-width=".32258"/>
 <g transform="matrix(1.9084 0 0 1.9084 199.55 -45.145)" fill="#1de11c">
  <path d="m6.634 24.542v4.0115h-3.7693v-4.0111h-2.8669v11.003h2.8669v-4.5258h3.7694v4.5258h2.8665v-11.004z"/>
  <path d="m11.443 24.542v11.003h4.7307c3.341 0 5.3966-1.9412 5.3966-5.5466 0-3.4098-2.0232-5.4561-5.3966-5.4561zm2.8669 2.4663h1.358c1.9559 0 3.0355 0.9706 3.0355 2.9713 0 2.2065-0.8654 3.0541-3.0355 3.0997h-1.358z"/>
 </g>
</svg>
