<svg width="800" height="268.9" version="1.1" viewBox="0 0 800 268.9" xmlns="http://www.w3.org/2000/svg">
 <g transform="matrix(8.8889 0 0 8.8889 0 -7.3652e-6)" fill="none" fill-rule="evenodd">
  <g transform="translate(-99,-20)" fill="#3c0090" fill-rule="nonzero">
   <g transform="translate(99,20)">
    <path d="m4.8826 26.228-0.1166 0.92518h1.6379l0.078678-0.92518c0.03564-0.41491-0.14539-0.70958-0.70299-0.70958-0.57522 0-0.84555 0.3018-0.89693 0.70958"/>
    <path d="m6.4647 17.796c0 0.50717 0.29508 0.7233 1.1892 0.7233h1.9526v-1.2539h-2.3064c-0.51443 0-0.83533 0.14915-0.83533 0.53057"/>
    <path d="m8.5298 11.681c0.35385 0 0.49682-0.27356 0.49682-0.58962 0-0.67233-0.3868-0.89586-1.2884-0.86384 0.12575 0.20026 0.1509 0.56514 0.23657 0.87245 0.07545 0.31525 0.20981 0.58101 0.55505 0.58101"/>
    <path d="m3.9281 20.287h1.0965l-0.1466 1.0087h-1.1299zm-0.72922 8.3271 0.41356-2.5872c0.14875-0.92854 0.78772-1.7621 2.1914-1.7621 1.47 0 2.007 0.67071 1.9481 1.7621l-0.059849 1.1266h1.9144v-3.1578h-4.7493l0.15924-1.1821h0.83668l6.725e-4 -0.01439c-0.58383-0.17161-0.77468-0.59446-0.70945-1.0763 0.01049-0.08487 0.030664-0.23079 0.030664-0.23079h1.3414l-0.028243 0.3057c-0.038061 0.3938 0.036179 0.98099 0.93728 0.98099h2.1811v-1.4868h-4.3338l0.13651-1.0188h4.1972v-0.40388h-4.1951v-1.3094h0.59849v-0.0156c-0.43845-0.25823-0.72559-0.71456-0.72559-1.2373 0-0.53972 0.1782-0.96055 0.70878-1.1929-0.46306-0.34027-0.70878-0.76311-0.70878-1.3447 0-1.3698 1.0543-1.4588 1.8884-1.4588h2.4338v-0.66802c-0.21761 0.27759-0.55397 0.4488-1.0172 0.4488-1.4248 0-1.3141-1.527-1.5172-2.5064-0.050704-0.24074-0.13557-0.37335-0.40428-0.37335-0.32924 0-0.45553 0.38949-0.45553 0.68067 0 0.38976 0.17713 0.6383 0.54752 0.70541v1.3206c-0.5724-0.02555-0.94414-0.29158-1.1716-0.67314-0.21842-0.38129-0.30395-0.87904-0.30395-1.369 0-0.90164 0.17834-1.7752 1.0706-1.9687h-4.1698v11.377l-2.1851 9.6552 9.6071 0.0013-5.38e-4 -1.3269z"/>
    <path d="m9.6065 14.662h-2.3914c-0.4718 0-0.75033 0.22433-0.75033 0.58988 0 0.60576 0.4718 0.66439 1.1798 0.66439h1.962z"/>
    <path d="m26.253 17.59c-3.9305-1.4102-5.5806-1.1701-5.5806-2.6704 0-0.71994 0.7502-1.2902 2.2803-1.2902 1.8003 0 3.0604 0.78006 3.7805 1.6502l3.7503-3.2102c-1.3499-1.7703-3.7503-3.3304-7.7409-3.3304-3.9004 0-7.5009 2.1301-7.5009 6.2706 0 3.1806 1.9203 4.9507 4.8304 6.0306 3.0008 1.1402 5.7009 1.2601 5.7009 2.7606 0 1.0497-1.0501 1.5-2.79 1.5-2.2806 0-4.1709-1.1404-5.2209-2.5802l-4.0203 3.0904c1.3199 2.0701 4.1101 4.4407 9.2411 4.4407 5.7902 0 8.3408-2.7905 8.3408-6.6312 0-2.7603-1.3504-4.7102-5.0708-6.0305"/>
    <polygon points="37.593 14.199 37.593 29.951 43.294 29.951 43.294 14.199 48.814 14.199 48.814 9.0385 31.952 9.0385 31.952 14.199"/>
    <path d="m80.219 18.879h-3.1805v-4.6801h3.6603c1.0802 0 1.9804 0.87003 1.9804 2.2202 0 1.5602-0.96041 2.4599-2.4603 2.4599zm4.5604 3.3308c2.1601-0.9904 3.5704-3.2705 3.5704-5.9709 0-4.0203-3.3604-7.2007-7.5008-7.2007h-9.5109v20.913h5.7005v-6.5109h2.1602l4.2605 6.5109h6.5408z"/>
    <path d="m55.19 22.81 2.5201-6.4809 2.5205 6.4809zm1.5572-8.1837 2.412-5.5879h-4.0593l-8.5208 20.913h6.0004l1.1104-2.7305h8.0409l1.0801 2.7305h6.0306l-7.2999-17.916z"/>
    <polygon points="63.484 9.5581 59.107 12.008 61.253 7.4222 57.547 3.9592 62.537 4.585 64.682 0 65.699 4.9817 70.689 5.6074 66.242 8.0482 67.189 13.021"/>
   </g>
  </g>
 </g>
</svg>
