<svg width="800" height="410.75" version="1.1" viewBox="0 0 800 410.75" xml:space="preserve" xmlns="http://www.w3.org/2000/svg">
    <defs><clipPath id="b"><path d="m180.66 321.51c-3.302 0-5.978-2.677-5.978-5.979v-42.073c0-3.301 2.676-5.98 5.978-5.98h239.28c3.303 0 5.98 2.679 5.98 5.98v42.073c0 3.302-2.677 5.979-5.98 5.979zm163.97-8.307h32.684v-29.386h42.242v-7.205h-74.926zm-84.779 0h76.126v-7.204h-21.489v-29.387h-31.101v29.387h-23.536zm-78.819 0h62.818c2.191-0.535 3.759-1.372 4.753-2.172 3.208-2.402 4.756-6.175 4.756-10.52 0-4.232-1.991-7.433-5.972-9.492-1.216-0.572-3.206-1.143-5.861-1.715l15.231-12.692h-27.396l-12.717 12.922h-6.968v-12.922h-28.644zm28.423-7.204v-9.147h15.371c0.664 0.457 1.106 0.914 1.328 1.258 0.886 1.143 1.326 2.172 1.326 3.545 0 1.257-0.44 2.514-1.216 3.43-0.332 0.333-0.601 0.571-1.438 0.914zm139.86-52.604v-95.45c0-2.477 2.007-4.486 4.484-4.486h72.42c20.499 8e-3 37.172 16.69 37.172 37.192 0 20.504-16.682 37.187-37.189 37.187h-0.027c-2.465-0.016-4.454-2.018-4.454-4.484 0-0.077 0-0.155 4e-3 -0.231v-60.695h-4.09v70.19h8.575c23.14 0 41.967-18.827 41.967-41.967 0-23.094-18.746-41.891-41.818-41.971-0.053 1e-3 -0.103 2e-3 -0.157 2e-3h-80.979v104.71c0 2.477-2.008 4.485-4.484 4.485-2.477 0-4.485-2.008-4.485-4.485v-62.688c0-0.019-2e-3 -0.038-2e-3 -0.056 0-13.031-4.539-25.014-12.103-34.479-0.238-0.236-0.446-0.501-0.624-0.784-10.156-12.247-25.477-20.062-42.591-20.062-20.019 0-38.247 10.66-48.093 27.965 0.808 1.712 1.553 3.46 2.21 5.25 8.245-17.046 25.714-28.83 45.883-28.83 28.087 0 50.937 22.851 50.937 50.94 0 28.086-22.85 50.936-50.937 50.936-11.163 0-21.763-3.545-30.652-10.252-7.693-5.805-13.648-13.803-17.032-22.774h-4.671c0.833 2.459 1.827 4.831 2.969 7.104 0.187 0.285 0.338 0.589 0.456 0.906 9.366 17.82 27.906 29.397 48.93 29.397 16.512 0 31.976-7.261 42.533-19.945 0.455-0.751 1.133-1.369 1.962-1.759 1.569-0.739 3.455-0.483 4.793 0.623 1.262 1.044 1.807 2.634 1.575 4.145v24.363c0 2.477-2.009 4.485-4.485 4.485s-4.484-2.008-4.484-4.485v-13.972c-11.568 9.962-26.33 15.514-41.894 15.514-14.636 0-28.96-5.051-40.33-14.22-4.941-3.986-9.245-8.677-12.788-13.872-11.895 17.494-31.621 28.092-53.134 28.092-35.449 0-64.29-28.839-64.29-64.286 0-35.45 28.841-64.294 64.29-64.294 22.04 0 41.515 11.157 53.103 28.113 11.893-17.507 31.628-28.113 53.149-28.113 15.995 0 30.633 5.887 41.894 15.588v-11.103c0-2.476 2.008-4.485 4.484-4.485h98.89c35.45 0 64.287 28.844 64.287 64.294 0 35.444-28.837 64.281-64.282 64.286h-26.486c-2.475 0-4.483-2.008-4.483-4.485v-88.024h-36.955v90.967c0 2.477-2.007 4.485-4.484 4.485s-4.484-2.008-4.484-4.485m54.891-7.427h21.996c30.503 0 55.319-24.816 55.319-55.317 0-30.506-24.816-55.325-55.319-55.325h-94.405v16.072c1.616 2.091 3.104 4.284 4.457 6.566v-13.661c-0.026-1.203 0.431-2.395 1.314-3.278 0.858-0.859 2.006-1.314 3.172-1.314 0.055 0 0.11 0 0.167 3e-3h85.14c0.055-3e-3 0.109-3e-3 0.163-3e-3 28.085 0 50.937 22.851 50.937 50.94 0 28.086-22.852 50.936-50.937 50.936h-13.093c-2.463-0.015-4.455-2.017-4.455-4.485 0-0.055 0-0.109 3e-3 -0.162v-74.512h-4.459zm-284.84-55.317c0 30.501 24.817 55.317 55.321 55.317 20.013 0 38.236-10.656 48.084-27.951-0.813-1.721-1.556-3.476-2.213-5.265-3.516 7.261-8.751 13.701-15.222 18.583-8.889 6.707-19.488 10.252-30.651 10.252-28.087 0-50.938-22.85-50.938-50.936 0-28.089 22.851-50.94 50.938-50.94 28.086 0 50.937 22.851 50.937 50.94 0 2.475-2.008 4.482-4.485 4.482h-42.647c-2.477 0-4.484-2.008-4.484-4.484 0-2.475 2.007-4.485 4.484-4.485h37.919c-2.245-21.04-20.098-37.484-41.724-37.484-23.142 0-41.969 18.827-41.969 41.971 0 23.14 18.827 41.967 41.969 41.967 16.275 0 31.099-9.638 37.95-24.057h-5.357c-6.494 11.799-18.984 19.277-32.593 19.277-20.506 0-37.188-16.683-37.188-37.187 0-20.509 16.682-37.192 37.188-37.192 14.422 0 27.485 8.315 33.623 21.287 0.635 0.776 1.017 1.764 1.017 2.844 0 1.874-1.152 3.48-2.786 4.15-0.017 7e-3 -0.034 0.017-0.052 0.025-0.816 0.354-1.679 0.442-2.498 0.309h-25.499c-2.477 0-4.484-2.007-4.484-4.484 0-2.476 2.007-4.484 4.484-4.484h18.285c-5.274-6.639-13.346-10.678-22.09-10.678-15.561 0-28.219 12.661-28.219 28.223 0 15.559 12.658 28.218 28.219 28.218 8.545 0 16.497-3.894 21.785-10.308h-17.978c-2.476 0-4.483-2.007-4.483-4.484 0-2.476 2.007-4.483 4.483-4.483h44.134c8e-3 0 0.017-2e-3 0.026-2e-3 5e-3 0 0.011 2e-3 0.016 2e-3h8.118c-0.521-2.94-0.783-5.932-0.783-8.943 0-0.051 0-0.098 2e-3 -0.147-0.078-30.439-24.864-55.178-55.318-55.178-30.504 0-55.321 24.819-55.321 55.325m119.61-0.052c0 0.017 1e-3 0.034 1e-3 0.052 0 0.048-1e-3 0.097-1e-3 0.145 0.013 4.049 0.602 8.05 1.749 11.89 6e-3 0.018 8e-3 0.037 0.014 0.056 5e-3 0.014 0.011 0.026 0.016 0.041 5.294 17.567 21.821 29.835 40.188 29.835 23.141 0 41.968-18.827 41.968-41.967 0-23.144-18.827-41.971-41.968-41.971-23.124 0-41.939 18.8-41.967 41.919m191.73 27.913c13.432-2.157 23.73-13.83 23.73-27.861 0-14.035-10.298-25.709-23.73-27.867zm-186.95-27.861c0-20.509 16.684-37.192 37.189-37.192s37.188 16.683 37.188 37.192c0 20.504-16.683 37.187-37.188 37.187s-37.189-16.683-37.189-37.187m8.97 0c0 15.559 12.659 28.218 28.219 28.218s28.22-12.659 28.22-28.218c0-15.562-12.66-28.223-28.22-28.223s-28.219 12.661-28.219 28.223"/></clipPath><radialGradient id="a" cx="0" cy="0" r="1" gradientTransform="matrix(173.51,-129.91,-129.91,-173.51,309.96,301.93)" gradientUnits="userSpaceOnUse"><stop stop-color="#fff" offset="0"/><stop stop-color="#fff" offset=".6129"/><stop stop-color="#c8c8c8" offset=".82258"/><stop stop-color="#969696" offset="1"/></radialGradient></defs><g transform="matrix(8.4189 0 0 -8.4189 -15.971 522.85)"><g transform="matrix(.25 0 0 .25 -25.701 -18.273)"><g clip-path="url(#b)"><path d="m180.66 321.51c-3.302 0-5.978-2.677-5.978-5.979v-42.073c0-3.301 2.676-5.98 5.978-5.98h239.28c3.303 0 5.98 2.679 5.98 5.98v42.073c0 3.302-2.677 5.979-5.98 5.979zm163.97-8.307h32.684v-29.386h42.242v-7.205h-74.926zm-84.779 0h76.126v-7.204h-21.489v-29.387h-31.101v29.387h-23.536zm-78.819 0h62.818c2.191-0.535 3.759-1.372 4.753-2.172 3.208-2.402 4.756-6.175 4.756-10.52 0-4.232-1.991-7.433-5.972-9.492-1.216-0.572-3.206-1.143-5.861-1.715l15.231-12.692h-27.396l-12.717 12.922h-6.968v-12.922h-28.644zm28.423-7.204v-9.147h15.371c0.664 0.457 1.106 0.914 1.328 1.258 0.886 1.143 1.326 2.172 1.326 3.545 0 1.257-0.44 2.514-1.216 3.43-0.332 0.333-0.601 0.571-1.438 0.914zm139.86-52.604v-95.45c0-2.477 2.007-4.486 4.484-4.486h72.42c20.499 8e-3 37.172 16.69 37.172 37.192 0 20.504-16.682 37.187-37.189 37.187h-0.027c-2.465-0.016-4.454-2.018-4.454-4.484 0-0.077 0-0.155 4e-3 -0.231v-60.695h-4.09v70.19h8.575c23.14 0 41.967-18.827 41.967-41.967 0-23.094-18.746-41.891-41.818-41.971-0.053 1e-3 -0.103 2e-3 -0.157 2e-3h-80.979v104.71c0 2.477-2.008 4.485-4.484 4.485-2.477 0-4.485-2.008-4.485-4.485v-62.688c0-0.019-2e-3 -0.038-2e-3 -0.056 0-13.031-4.539-25.014-12.103-34.479-0.238-0.236-0.446-0.501-0.624-0.784-10.156-12.247-25.477-20.062-42.591-20.062-20.019 0-38.247 10.66-48.093 27.965 0.808 1.712 1.553 3.46 2.21 5.25 8.245-17.046 25.714-28.83 45.883-28.83 28.087 0 50.937 22.851 50.937 50.94 0 28.086-22.85 50.936-50.937 50.936-11.163 0-21.763-3.545-30.652-10.252-7.693-5.805-13.648-13.803-17.032-22.774h-4.671c0.833 2.459 1.827 4.831 2.969 7.104 0.187 0.285 0.338 0.589 0.456 0.906 9.366 17.82 27.906 29.397 48.93 29.397 16.512 0 31.976-7.261 42.533-19.945 0.455-0.751 1.133-1.369 1.962-1.759 1.569-0.739 3.455-0.483 4.793 0.623 1.262 1.044 1.807 2.634 1.575 4.145v24.363c0 2.477-2.009 4.485-4.485 4.485s-4.484-2.008-4.484-4.485v-13.972c-11.568 9.962-26.33 15.514-41.894 15.514-14.636 0-28.96-5.051-40.33-14.22-4.941-3.986-9.245-8.677-12.788-13.872-11.895 17.494-31.621 28.092-53.134 28.092-35.449 0-64.29-28.839-64.29-64.286 0-35.45 28.841-64.294 64.29-64.294 22.04 0 41.515 11.157 53.103 28.113 11.893-17.507 31.628-28.113 53.149-28.113 15.995 0 30.633 5.887 41.894 15.588v-11.103c0-2.476 2.008-4.485 4.484-4.485h98.89c35.45 0 64.287 28.844 64.287 64.294 0 35.444-28.837 64.281-64.282 64.286h-26.486c-2.475 0-4.483-2.008-4.483-4.485v-88.024h-36.955v90.967c0 2.477-2.007 4.485-4.484 4.485s-4.484-2.008-4.484-4.485m54.891-7.427h21.996c30.503 0 55.319-24.816 55.319-55.317 0-30.506-24.816-55.325-55.319-55.325h-94.405v16.072c1.616 2.091 3.104 4.284 4.457 6.566v-13.661c-0.026-1.203 0.431-2.395 1.314-3.278 0.858-0.859 2.006-1.314 3.172-1.314 0.055 0 0.11 0 0.167 3e-3h85.14c0.055-3e-3 0.109-3e-3 0.163-3e-3 28.085 0 50.937 22.851 50.937 50.94 0 28.086-22.852 50.936-50.937 50.936h-13.093c-2.463-0.015-4.455-2.017-4.455-4.485 0-0.055 0-0.109 3e-3 -0.162v-74.512h-4.459zm-284.84-55.317c0 30.501 24.817 55.317 55.321 55.317 20.013 0 38.236-10.656 48.084-27.951-0.813-1.721-1.556-3.476-2.213-5.265-3.516 7.261-8.751 13.701-15.222 18.583-8.889 6.707-19.488 10.252-30.651 10.252-28.087 0-50.938-22.85-50.938-50.936 0-28.089 22.851-50.94 50.938-50.94 28.086 0 50.937 22.851 50.937 50.94 0 2.475-2.008 4.482-4.485 4.482h-42.647c-2.477 0-4.484-2.008-4.484-4.484 0-2.475 2.007-4.485 4.484-4.485h37.919c-2.245-21.04-20.098-37.484-41.724-37.484-23.142 0-41.969 18.827-41.969 41.971 0 23.14 18.827 41.967 41.969 41.967 16.275 0 31.099-9.638 37.95-24.057h-5.357c-6.494 11.799-18.984 19.277-32.593 19.277-20.506 0-37.188-16.683-37.188-37.187 0-20.509 16.682-37.192 37.188-37.192 14.422 0 27.485 8.315 33.623 21.287 0.635 0.776 1.017 1.764 1.017 2.844 0 1.874-1.152 3.48-2.786 4.15-0.017 7e-3 -0.034 0.017-0.052 0.025-0.816 0.354-1.679 0.442-2.498 0.309h-25.499c-2.477 0-4.484-2.007-4.484-4.484 0-2.476 2.007-4.484 4.484-4.484h18.285c-5.274-6.639-13.346-10.678-22.09-10.678-15.561 0-28.219 12.661-28.219 28.223 0 15.559 12.658 28.218 28.219 28.218 8.545 0 16.497-3.894 21.785-10.308h-17.978c-2.476 0-4.483-2.007-4.483-4.484 0-2.476 2.007-4.483 4.483-4.483h44.134c8e-3 0 0.017-2e-3 0.026-2e-3 5e-3 0 0.011 2e-3 0.016 2e-3h8.118c-0.521-2.94-0.783-5.932-0.783-8.943 0-0.051 0-0.098 2e-3 -0.147-0.078-30.439-24.864-55.178-55.318-55.178-30.504 0-55.321 24.819-55.321 55.325m119.61-0.052c0 0.017 1e-3 0.034 1e-3 0.052 0 0.048-1e-3 0.097-1e-3 0.145 0.013 4.049 0.602 8.05 1.749 11.89 6e-3 0.018 8e-3 0.037 0.014 0.056 5e-3 0.014 0.011 0.026 0.016 0.041 5.294 17.567 21.821 29.835 40.188 29.835 23.141 0 41.968-18.827 41.968-41.967 0-23.144-18.827-41.971-41.968-41.971-23.124 0-41.939 18.8-41.967 41.919m191.73 27.913c13.432-2.157 23.73-13.83 23.73-27.861 0-14.035-10.298-25.709-23.73-27.867zm-186.95-27.861c0-20.509 16.684-37.192 37.189-37.192s37.188 16.683 37.188 37.192c0 20.504-16.683 37.187-37.188 37.187s-37.189-16.683-37.189-37.187m8.97 0c0 15.559 12.659 28.218 28.219 28.218s28.22-12.659 28.22-28.218c0-15.562-12.66-28.223-28.22-28.223s-28.219 12.661-28.219 28.223" fill="url(#a)"/></g></g></g></svg>
