<svg width="851.99pt" height="301.53pt" version="1.1" viewBox="0 0 851.99 301.53" xmlns="http://www.w3.org/2000/svg">
 <g transform="translate(14.397 -281.33)" fill="#bd0d0d">
  <path d="m371.67 284.52 32.74-3.19c-10.87 15.54-23.15 30.12-36.75 43.33-2.42 1.9-4.38 4.95-7.66 5.27l-19.76 2.05c10.68-13.68 20.14-28.36 27.83-43.93 0.86-1.45 1.2653-3.2144 3.6-3.53z"/>
  <path transform="matrix(.75 0 0 .75 -11.948 281.33)" d="m382.26 12.154c-0.23323 0.01272-0.47122 0.04094-0.71289 0.08594-25.747 2.08-51.267 6.32-76.92 9.3066l-17.479 36.547 25.666-2.6934-87.627 182.89-44.84 6.8672c11.2-23.107 22.187-46.306 33.48-69.373 5.12-10.547 10.347-22.226 7.9336-34.213-0.57333-4.04-3.8411-7.2667-7.8144-8-15.853-3.2933-31.814-6.16-47.627-9.6934-6.0496-1.3052-12.447-1.8858-18.049-4.5957-2.3018-1.1204-2.9328-1.9279-2.4297-4.2285 0.14104-0.55744 0.3036-1.1614 0.44922-1.752 2.1956-8.621 6.8754-16.502 11.576-23.971 3.5577-5.738 9.7552-8.0186 16.172-8.6816 6.047-0.59816 9.8444-0.96106 8.6777 5.5098-0.98832 6.1746-4.5947 11.739-7.3301 17.344l76.934-9.5586c5.4533-11.76 10.893-23.534 16.08-35.414 3.56-8.88 6.3864-18.841 3.7598-28.334-0.58667-2.64-2.9726-4.1726-5.5859-4.1992-6.6133-0.34667-13.174 0.83927-19.721 1.5859-37.413 5.0267-74.946 9.1214-112.27 14.748-6.1467 0.88-12.787 0.82672-18.16 4.3867-7.76 4.9467-13.64 12.266-19.24 19.453-9.7467 12.507-15.626 27.359-22.293 41.586-6.4533 13.693-12.854 27.413-19.041 41.227-3.9733 8.52-8.6123 17.068-9.5723 26.588-1.12 8.32 5.9462 15.546 13.52 17.6 14.96 4.0533 30.187 6.9068 45.334 10.16 5.7733 1.2667 11.986 1.6799 17.119 4.9199 1.84 2.7333 0.0532 6.0786-0.77344 8.8652-3.2667 8.1867-6.9729 16.467-12.906 23.107-3.76 4.56-10.039 5.2663-15.506 5.9863-3.5519 0.0967-6.7726 0.0141-7.252-4.0723-0.20522-2.0483 0.80521-4.2617 3.0117-9.7207 2.4175-5.3123 4.0501-8.4796 6.4121-13.514l-76.746 9.4805c-0.85333 1.8-1.7339 3.5734-2.5605 5.3867-30.361 65.409-20.339 67.992 0 65.76 197.95-25.373 395.92-50.386 593.85-75.879-6.64 14.72-13.746 29.226-20.68 43.812-3.24 6.1733-5.88 13.227-11.693 17.48-3.473 1.5082-7.2402 2.1393-11.033 2.2617-9.6167 0.2794-7.757-2.2156-4.5273-9.4844l10.107-21.578-68.105 8.8496-10.615 21.244c-4.36 9.68-9.6398 19.106-11.84 29.586-0.64 4.4-1.3726 9.2937 0.80079 13.4 2.16 2.2667 5.3873 2.5595 8.334 2.1328 35.4-4.36 70.733-9.1455 106.13-13.492 6.1867-0.93334 12.494-1.1998 18.561-2.8398 6.0667-1.6533 10.653-6.2011 15.053-10.428 5.4933-5.7333 10.533-12.014 14.199-19.094 11.627-23.173 22.134-46.945 33.934-70.012 13.36-2.92 27.08-4.2408 40.6-6.4941 99.173-14.027 198.79-24.707 298.19-37l17.213-36.373-36.879 3.9121 30.346-65.352c2.0666-3.8 4.707-7.8279 9.0136-9.2812 5.354-1.7124 18.208-4.6755 14.014 4.7559l-13.32 30.857 68.406-8.7793 25.609-56.211c1.5844-5.3705 2.3128-13.422-3.5055-16.073-1.1755-0.62836-2.0712-0.48082-3.3887-0.32354l-56.018 6.6875c-10.013 1.2792-17.048 8.1027-23.85 15.299l5.7187-13.158c-31.347 4.04-62.692 8.0922-94.025 12.186-2.2267 0.45333-4.8049 0.48016-5.9883 3.1602l-16.133 34.174 28.961-3.3203-35.814 74.947-126.99 16.273c-1.7105 0.0567-2.8748-0.30292-2.2949-1.8223l5.9336-16.717 89.498-11.988c2.0667-0.25334 4.2136-1.187 4.9336-3.3203 8.1067-16.747 16.146-33.547 24.213-50.334 17.57-40.355 18.405-38.677-22.932-33.92-32.813 4.3067-65.693 8.121-98.467 12.734-4.4 0.56-8.7066 2.0795-12.227 4.8262-12.693 9.48-21.361 23.281-27.574 37.641-11.48 24.04-23.094 48.013-34.414 72.133-10.147 1.5867-20.385 2.5464-30.545 4.0664 17.213-37.467 35.519-74.427 52.812-111.85-33.2 3.8667-66.346 8.2133-99.52 12.307-13.6 1.8133-27.321 2.8935-40.814 5.4668-10.92 1.8267-18.825 10.52-25.479 18.707-5.6133 7.1867-9.867 15.32-13.627 23.6-11.56 24.053-22.987 48.187-34.547 72.254l-33.92 3.9863 36.719-76.959 14.92-2.375c2.1467-0.52 2.7877-2.7992 3.7344-4.5059l14.186-30.24-146.99 18.934c-7.36 1.2267-15.507 1.2532-21.613 6.1465-8.4533 6.64-15.72 14.921-20.934 24.348-6.0133 11.107-11 22.732-16.613 34.039-8.4133 17-15.8 34.56-24.854 51.227l-46 6.0527 89.508-187.92c3.3067-7.2533 6.3197-15.239 5.0664-23.332-0.4625-3.275-2.9762-6.5971-6.4746-6.4062zm470.18 76.486c-0.33333 6.6533-3.5196 12.613-6.293 18.506-7.8933 0.98667-15.762 2.1334-23.682 2.6934 2.9067-6.0667 5.5474-12.546 10.414-17.346 5.5333-4.1467 13.014-3.4268 19.561-3.8535zm-188.87 23.705c-11.987 24.907-23.547 50.027-35.693 74.854l-16.262 2.1426c-8.1445 0.55326-5.3272-2.2215-3.0176-7.9375l26.053-55.111c2.5867-4.64 5.3999-10.252 10.92-11.812 5.88-1.44 11.96-1.8148 18-2.1348zm-195.11 24.627-35.799 75.201c-5.5946 0.79772-11.197 1.6286-16.834 2.0176-7.2892 0.49697-4.6789-2.9301-2.0195-8.8047 8.4133-17.787 16.761-35.6 25.334-53.32 2.6267-5.0267 5.64-10.8 11.307-12.84z" stroke-width="1.3333"/>
  <path d="m739.25 434.13-13.44 27.51-7.3411 1.1323-64.189 98.788-54.53 6.85 22.63-94.07-8.11 0.99-11.09 23.05-30.81 3.63 10.27-22.76-4.4058 0.67699-33.249 69.782 8.2047-1.1494-12.919 27.039-58.121 7.2611c3.99-9.12 8.63-17.94 12.8-26.98l8.48-1.32 33.115-69.919-4.1447 0.55471-11.08 23.415-33.07 3.89 23.58-49.74 156.97-20.08-17.61 68.62 26.02-43.929-8.01 1.0794 13.21-27.24z"/>
 </g>
</svg>
