<svg version="1.1" viewBox="0 0 600 670.59" xmlns="http://www.w3.org/2000/svg">
 <defs>
  <clipPath id="ct">
   <path d="m76.025 342.45c-0.367 0.502-0.672 1.549-0.651 1.97 0.018 0.361 0.046 0.792-0.166 1.421-0.285 0.852-0.55 1.214-0.786 1.21-0.03 0-0.056-0.012-0.078-0.033l1e-3 1e-3c-0.179-0.102-0.165-0.741 0.126-1.785 0.205-0.735 0.478-1.395 0.799-1.955 0.179-0.311 0.483-0.734 0.728-0.885l0.031-6e-3 -4e-3 0.062"/>
  </clipPath>
  <clipPath id="cs">
   <path d="m74.496 345.25c-0.317 1.137-0.306 1.794-0.074 1.798 0.236 4e-3 0.501-0.358 0.786-1.21 0.212-0.629 0.184-1.06 0.166-1.421-0.021-0.421 0.284-1.468 0.651-1.97l4e-3 -0.062c-0.245 0.151-0.556 0.599-0.734 0.91-0.321 0.559-0.594 1.219-0.799 1.955"/>
  </clipPath>
  <clipPath id="cr">
   <path d="m75.258 343.69c0.179-0.185 0.319-0.384 0.386-0.486-0.034 0.089-0.065 0.179-0.093 0.269-0.09 0.153-0.248 0.407-0.424 0.639-0.144 0.19-0.328 0.42-0.456 0.578 0.088-0.256 0.185-0.501 0.289-0.733 0.111-0.094 0.233-0.201 0.298-0.267"/>
  </clipPath>
  <clipPath id="cq">
   <path d="m75.295 343.3c-0.321 0.559-0.594 1.219-0.799 1.955-0.277 0.993-0.304 1.62-0.151 1.766-0.179-0.102-0.165-0.741 0.126-1.785 0.205-0.735 0.478-1.395 0.799-1.955 0.179-0.311 0.483-0.734 0.728-0.885l0.031-6e-3c-0.245 0.151-0.556 0.599-0.734 0.91"/>
  </clipPath>
  <clipPath id="cp">
   <path d="m75.66 343.16c-5e-3 0.015-0.011 0.03-0.016 0.044-0.067 0.102-0.207 0.301-0.386 0.486-0.065 0.066-0.187 0.173-0.298 0.267 0.037-0.081 0.074-0.161 0.112-0.24 0.088-0.05 0.205-0.128 0.31-0.233 0.124-0.123 0.222-0.247 0.278-0.324"/>
  </clipPath>
  <clipPath id="co">
   <path d="m75.76 342.92c-0.035 0.077-0.068 0.158-0.1 0.239-0.056 0.077-0.154 0.201-0.278 0.324-0.105 0.105-0.222 0.183-0.31 0.233 0.072-0.146 0.146-0.286 0.223-0.42 0.027-0.047 0.057-0.097 0.089-0.149 0.048-0.024 0.099-0.051 0.143-0.075 0.07-0.038 0.177-0.112 0.233-0.152"/>
  </clipPath>
  <clipPath id="cn">
   <path d="m75.796 342.84c-0.012 0.025-0.024 0.051-0.036 0.078-0.056 0.04-0.163 0.114-0.233 0.152-0.044 0.024-0.095 0.051-0.143 0.075 0.042-0.066 0.087-0.135 0.135-0.204 0.061-0.022 0.132-0.047 0.17-0.062 0.039-0.015 0.079-0.029 0.107-0.039"/>
  </clipPath>
  <clipPath id="cm">
   <path d="m75.859 342.72c-0.021 0.04-0.042 0.081-0.063 0.124-0.028 0.01-0.068 0.024-0.107 0.039-0.038 0.015-0.109 0.04-0.17 0.062 0.044-0.064 0.091-0.128 0.139-0.189 0.019-4e-3 0.038-7e-3 0.052-0.01 0.03-5e-3 0.104-0.018 0.149-0.026"/>
  </clipPath>
  <clipPath id="cl">
   <path d="m81.039 347.38h-8.3853v-10.081h8.3853v10.081z"/>
  </clipPath>
  <clipPath id="ck">
   <path d="m75.95 346.45c0.193 0.449 0.455 0.776 0.719 0.887-0.271-0.103-0.541-0.434-0.74-0.895-0.258-0.601-0.376-1.276-0.367-2.122 4e-3 -0.41 0.092-1.132 0.349-1.679l0.018-0.011c-0.257 0.547-0.342 1.288-0.346 1.699-9e-3 0.845 0.108 1.52 0.367 2.121"/>
  </clipPath>
  <clipPath id="cj">
   <path d="m76.605 344.68c0.372 0.099 0.593 0.458 0.796 0.906 0.073 0.161 0.119 0.422 0.116 0.694-0.026 0.106-0.065 0.225-0.121 0.293-0.092 0.111-0.257 0.228-0.473 0.075-0.236-0.168-0.39-0.541-0.528-1.113-0.103-0.426-0.129-0.937-0.135-1.187 0.088 0.143 0.215 0.298 0.345 0.332"/>
  </clipPath>
  <clipPath id="ci">
   <path d="m76.733 346.46c-0.075-0.091-0.257-0.431-0.373-0.916-0.104-0.433-0.141-1.046-0.153-1.29 0.016 0.03 0.033 0.061 0.053 0.094 6e-3 0.25 0.032 0.761 0.135 1.187 0.123 0.509 0.258 0.861 0.453 1.05-0.038-0.036-0.08-0.082-0.115-0.125"/>
  </clipPath>
  <clipPath id="ch">
   <path d="m78.018 346.15c0.746 0.328 1.419 0.261 1.689-0.464 0.203-0.549-0.1-1.518-0.796-1.787-0.285-0.11-0.707-0.042-1.084 0.115-0.202 0.085-0.441 0.152-0.798-0.043-0.377-0.206-0.743-0.553-0.951-1.142l-0.058 7e-3c0.018 0.693 0.255 1.409 0.573 1.93 0.435 0.713 0.931 1.167 1.425 1.384"/>
  </clipPath>
  <clipPath id="cg">
   <path d="m78.034 346.14c0.57 0.25 1.098 0.27 1.435-0.058-0.336 0.344-0.872 0.327-1.451 0.073-0.494-0.217-0.99-0.671-1.425-1.384-0.318-0.521-0.555-1.237-0.573-1.93l0.016-2e-3c0.021 0.689 0.256 1.399 0.573 1.917 0.435 0.713 0.93 1.167 1.425 1.384"/>
  </clipPath>
  <clipPath id="cf">
   <path d="m76.157 343.36c0.028-0.014 0.091-0.047 0.14-0.073 0.146 0.232 0.322 0.409 0.509 0.545-0.018 0.085-0.057 0.205-0.143 0.323-0.077 0.105-0.173 0.172-0.257 0.214-0.136-0.295-0.243-0.626-0.307-0.966 0.023-0.02 0.045-0.036 0.058-0.043"/>
  </clipPath>
  <clipPath id="ce">
   <path d="m76.128 343.18c0.022-0.041 0.036-0.081 0.045-0.115 0.038 0.08 0.08 0.155 0.124 0.225-0.049 0.026-0.112 0.059-0.14 0.073-0.013 7e-3 -0.035 0.023-0.058 0.043-9e-3 -0.047-0.016-0.093-0.023-0.139 0.017-0.027 0.037-0.059 0.052-0.087"/>
  </clipPath>
  <clipPath id="cd">
   <path d="m79.107 344.71c0.086 0.21 0.161 0.554-0.182 0.663-0.365 0.116-1.111-0.522-1.301-0.712-0.134-0.135-0.376-0.462-0.506-0.644 0.308 0.139 0.524 0.076 0.709-1e-3 0.208-0.086 0.429-0.146 0.634-0.164 0.148 0.119 0.461 0.409 0.646 0.858"/>
  </clipPath>
  <clipPath id="cc">
   <path d="m77.327 344.42c-0.172-0.193-0.338-0.409-0.422-0.521 0.041 0.027 0.083 0.051 0.124 0.074 0.031 0.017 0.06 0.031 0.089 0.044 0.13 0.182 0.372 0.509 0.506 0.644 0.124 0.124 0.483 0.437 0.819 0.609-0.249-0.098-0.8-0.496-1.116-0.85"/>
  </clipPath>
  <clipPath id="cb">
   <path d="m79.938 344.63c0.947-0.282 1.26-1.018 1.027-1.73-0.214-0.656-0.866-0.996-1.566-0.829-0.348 0.083-0.614 0.211-0.95 0.63-0.108 0.135-0.247 0.359-0.323 0.431-0.303 0.286-1.149 0.331-1.836-0.261l-0.044 0.043c0.296 0.464 0.753 0.954 1.309 1.303 0.786 0.493 1.693 0.618 2.383 0.413"/>
  </clipPath>
  <clipPath id="ca">
   <path d="m81.039 347.38h-8.3853v-10.081h8.3853v10.081z"/>
  </clipPath>
  <clipPath id="bz">
   <path d="m80.285 343.04c-0.323 0.224-0.777 0.33-1.292 0.361-0.386 0.023-0.876-0.083-1.099-0.137 0.094-0.035 0.174-0.081 0.232-0.136 0.076-0.072 0.215-0.296 0.323-0.431 0.336-0.419 0.602-0.547 0.95-0.63 0.55-0.131 1.07 0.051 1.372 0.452-0.111 0.161-0.287 0.384-0.486 0.521"/>
  </clipPath>
  <clipPath id="by">
   <path d="m79.024 343.38c0.516-0.031 0.969-0.137 1.292-0.361 0.017-0.011 0.033-0.023 0.049-0.035-0.026 0.021-0.053 0.042-0.08 0.06-0.323 0.224-0.777 0.33-1.292 0.361-0.386 0.023-0.876-0.083-1.099-0.137 0.017-6e-3 0.034-0.013 0.05-0.02 0.231 0.055 0.705 0.154 1.08 0.132"/>
  </clipPath>
  <clipPath id="bx">
   <path d="m76.919 343.44c-3e-3 0.076-0.03 0.167-0.052 0.23-0.184-0.179-0.347-0.368-0.485-0.558 6e-3 -0.037 0.012-0.074 0.015-0.09 4e-3 -0.015 0.01-0.035 0.017-0.054 0.163 0.12 0.333 0.207 0.5 0.266 5e-3 0.053 0.01 0.127 5e-3 0.206"/>
  </clipPath>
  <clipPath id="bw">
   <path d="m73.874 343.7c-0.706 0.607-1.346 1.277-1.199 1.386 0.125 0.094 0.735-0.378 1.27-0.843 0.414-0.36 0.746-0.737 0.924-0.907 0.279-0.267 0.959-0.875 1.33-0.999l0.043-0.041c-0.01-0.029-0.038-0.093-0.172-0.069-0.253 0.046-0.528 0.232-0.744 0.367-0.441 0.276-0.995 0.714-1.452 1.106"/>
  </clipPath>
  <clipPath id="bv">
   <path d="m81.039 347.38h-8.3853v-10.081h8.3853v10.081z"/>
  </clipPath>
  <clipPath id="bu">
   <path d="m76.091 342.25c-0.253 0.046-0.528 0.232-0.744 0.367-0.441 0.275-0.995 0.713-1.452 1.106-0.668 0.575-1.277 1.205-1.217 1.364l-3e-3 -3e-3c-0.147-0.109 0.493-0.779 1.199-1.386 0.457-0.392 1.011-0.83 1.452-1.106 0.216-0.135 0.491-0.321 0.744-0.367 0.105-0.018 0.144 0.016 0.162 0.046-0.024-0.02-0.066-0.034-0.141-0.021"/>
  </clipPath>
  <clipPath id="bt">
   <path d="m81.039 347.38h-8.3853v-10.081h8.3853v10.081z"/>
  </clipPath>
  <clipPath id="bs">
   <path d="m75.395 342.65s0.102-0.013 0.157-0.022c0.071-0.01 0.137-0.033 0.137-0.033l0.085-0.056s-0.054 7e-3 -0.104 5e-3c-0.041-2e-3 -0.079-0.013-0.079-0.013l-0.196 0.119"/>
  </clipPath>
  <clipPath id="br">
   <path d="m80.445 342.36c-0.484 0.696-1.328 0.94-2.079 0.945-0.692 4e-3 -1.467-0.264-1.887-0.507l1e-3 -0.046 0.022-0.016c0.331 0.065 0.611 0.048 0.836-0.022 0.359-0.123 0.581-0.38 0.635-0.64 0.048-0.232 0.041-0.48 0.029-0.65-0.029-0.419 0.017-0.702 0.299-1.021 0.514-0.582 1.364-0.497 1.886-0.033 0.554 0.492 0.758 1.273 0.258 1.99"/>
  </clipPath>
  <clipPath id="bq">
   <path d="m80.445 342.36c-0.484 0.696-1.328 0.94-2.079 0.945-0.017 0-0.033 0-0.049-1e-3 0.056-0.131 0.129-0.355 0.102-0.6-0.028-0.259-0.082-0.392-0.154-0.498 0.539-0.116 1.057-0.382 1.397-0.871 0.269-0.386 0.334-0.791 0.251-1.158 0.098 0.053 0.19 0.118 0.274 0.193 0.554 0.492 0.758 1.273 0.258 1.99"/>
  </clipPath>
  <clipPath id="bp">
   <path d="m76.48 342.75 0.022-0.016c0.333 0.065 0.616 0.048 0.842-0.024-0.233 0.082-0.524 0.107-0.864 0.04"/>
  </clipPath>
  <clipPath id="bo">
   <path d="m79.662 341.33c-0.34 0.489-0.858 0.755-1.397 0.871-0.04-0.06-0.087-0.112-0.138-0.173-0.026-0.031-0.078-0.066-0.132-0.098 0.023-0.188 0.016-0.375 7e-3 -0.511-0.029-0.419 0.017-0.702 0.299-1.021 0.431-0.489 1.099-0.507 1.612-0.226 0.083 0.367 0.018 0.772-0.251 1.158"/>
  </clipPath>
  <clipPath id="bn">
   <path d="m78.127 342.03c0.14 0.168 0.248 0.265 0.292 0.671 0.027 0.245-0.046 0.469-0.102 0.6-0.128-1e-3 -0.259-0.012-0.389-0.029-0.047-0.077-0.119-0.181-0.21-0.273-0.107-0.107-0.29-0.213-0.412-0.277 0.378-0.119 0.612-0.383 0.667-0.651 9e-3 -0.046 0.017-0.093 0.022-0.139 0.054 0.032 0.106 0.067 0.132 0.098"/>
  </clipPath>
  <clipPath id="bm">
   <path d="m77.088 343.06c-0.017-0.042-0.043-0.095-0.102-0.164-0.033-0.039-0.075-0.081-0.111-0.116 0.159-1e-3 0.304-0.025 0.431-0.065 0.122 0.064 0.305 0.17 0.412 0.277 0.091 0.092 0.163 0.196 0.21 0.273-0.292-0.04-0.582-0.115-0.84-0.205"/>
  </clipPath>
  <clipPath id="bl">
   <path d="m76.986 342.9c0.059 0.069 0.085 0.122 0.102 0.164-0.096-0.034-0.188-0.069-0.273-0.106-0.025-0.028-0.059-0.063-0.1-0.1-0.026-0.024-0.07-0.06-0.111-0.092 0.095 0.013 0.185 0.019 0.271 0.018 0.036 0.035 0.078 0.077 0.111 0.116"/>
  </clipPath>
  <clipPath id="bk">
   <path d="m76.682 342.9c-0.019-0.023-0.044-0.05-0.066-0.073-0.02-0.02-0.06-0.049-0.093-0.072 0.027 5e-3 0.055 0.01 0.081 0.013 0.041 0.032 0.085 0.068 0.111 0.092 0.041 0.037 0.075 0.072 0.1 0.1-0.046-0.02-0.09-0.04-0.133-0.06"/>
  </clipPath>
  <clipPath id="bj">
   <path d="m80.187 340.39c-0.522-0.464-1.372-0.55-1.886 0.033-0.234 0.264-0.305 0.5-0.307 0.811-1e-3 -0.32 0.069-0.563 0.307-0.832 0.514-0.582 1.364-0.497 1.886-0.033 0.338 0.3 0.545 0.708 0.543 1.143-3e-3 -0.427-0.21-0.827-0.543-1.122"/>
  </clipPath>
  <clipPath id="bi">
   <path d="m78.388 342.12c-0.491 0.357-1.381 0.47-1.8 0.454l-0.027-0.042 2e-3 -0.018c0.302-0.058 0.477-0.206 0.548-0.375 0.066-0.157 0.053-0.33-0.029-0.464-0.131-0.218-0.44-0.438-0.552-0.52-0.442-0.323-0.608-0.618-0.608-0.98 0-0.484 0.466-0.735 1.044-0.716 0.603 0.02 1.625 0.354 1.939 1.279 0.176 0.517-1e-3 1.008-0.517 1.382"/>
  </clipPath>
  <clipPath id="bh">
   <path d="m78.905 340.74c-0.314-0.925-1.336-1.259-1.939-1.279-0.578-0.019-1.044 0.232-1.044 0.716 0 0.362 0.166 0.657 0.608 0.98 0.112 0.082 0.421 0.302 0.552 0.52 0.174 0.287 0.036 0.752-0.521 0.857l0.027 0.042c0.419 0.016 1.309-0.097 1.8-0.454 0.516-0.374 0.693-0.865 0.517-1.382"/>
  </clipPath>
  <clipPath id="bg">
   <path d="m77.209 342.42c0.096 0.019 0.176 0.048 0.236 0.074-0.331 0.069-0.651 0.092-0.857 0.084l-0.027-0.042c0.142-0.027 0.257-0.077 0.346-0.142 0.08-1e-3 0.189 3e-3 0.302 0.026"/>
  </clipPath>
  <clipPath id="bf">
   <path d="m77.514 340.84c-0.052 0.42-0.281 0.773-0.393 0.923-0.01-0.027-0.023-0.054-0.039-0.079-0.131-0.218-0.44-0.438-0.552-0.52-0.442-0.323-0.608-0.618-0.608-0.98 0-0.484 0.466-0.735 1.044-0.716 0.172 6e-3 0.377 0.037 0.59 0.1 5e-3 0.329 4e-3 0.895-0.042 1.272"/>
  </clipPath>
  <clipPath id="be">
   <path d="m76.561 342.54 2e-3 -0.018c0.302-0.058 0.477-0.206 0.548-0.375-0.075 0.179-0.253 0.337-0.55 0.393"/>
  </clipPath>
  <clipPath id="bd">
   <path d="m78.915 341.46c-0.083 0.244-0.259 0.47-0.527 0.664-0.057 0.042-0.12 0.08-0.187 0.115-0.198-0.012-0.453-0.025-0.6-0.024-0.202 1e-3 -0.425 0.034-0.567 0.058 0.124-0.157 0.148-0.353 0.087-0.515 0.03-0.04 0.069-0.096 0.111-0.164 0.195-0.07 0.507-0.162 0.852-0.185 0.331-0.022 0.652 0.02 0.831 0.051"/>
  </clipPath>
  <clipPath id="bc">
   <path d="m78.915 341.46c-0.179-0.031-0.5-0.073-0.831-0.051-0.244 0.016-0.471 0.067-0.652 0.12-0.017-6e-3 -0.035-0.012-0.053-0.016-0.027-7e-3 -0.059-0.013-0.09-0.017 0.096-0.175 0.193-0.406 0.225-0.661 0.016-0.136 0.027-0.297 0.034-0.462 0.141-0.075 0.323-0.142 0.552-0.174 0.168-0.023 0.355-9e-3 0.512 0.022 0.124 0.148 0.225 0.321 0.293 0.521 0.085 0.249 0.087 0.491 0.01 0.718"/>
  </clipPath>
  <clipPath id="bb">
   <path d="m77.514 340.84c-0.052 0.42-0.281 0.773-0.393 0.923-6e-3 -0.015-5e-3 -0.012-0.012-0.027 0.115-0.158 0.331-0.508 0.381-0.914 0.045-0.369 0.053-0.927 0.049-1.259 0.01 3e-3 7e-3 2e-3 0.017 5e-3 5e-3 0.329 4e-3 0.895-0.042 1.272"/>
  </clipPath>
  <clipPath id="ba">
   <path d="m78.927 341.42c0.056-0.208 0.046-0.428-0.03-0.653-0.315-0.925-1.337-1.259-1.939-1.279-0.494-0.016-0.905 0.165-1.015 0.519 0.096-0.373 0.516-0.564 1.023-0.548 0.603 0.02 1.625 0.354 1.939 1.279 0.08 0.236 0.087 0.466 0.022 0.682"/>
  </clipPath>
  <clipPath id="az">
   <path d="m76.508 342.35-0.044-2e-3v-0.027c0.037-0.043 0.054-0.078 0.057-0.108-0.013-0.112-0.207-0.169-0.416-0.194-0.151-0.018-0.473-9e-3 -0.651 0.013-0.366 0.046-0.679 0.092-0.981 0.094-0.47 3e-3 -1.078-0.046-1.063-0.318 0.017-0.304 1.076-0.591 1.729-0.638 0.544-0.039 1.673-0.052 1.969 0.346 0.234 0.315-0.229 0.654-0.6 0.834"/>
  </clipPath>
  <clipPath id="ay">
   <path d="m75.139 341.17c-0.653 0.047-1.712 0.334-1.729 0.638-0.015 0.272 0.593 0.321 1.063 0.318 0.302-2e-3 0.615-0.048 0.981-0.094 0.178-0.022 0.5-0.031 0.651-0.013 0.281 0.034 0.535 0.125 0.359 0.329l0.044 2e-3c0.371-0.18 0.834-0.519 0.6-0.834-0.296-0.398-1.425-0.385-1.969-0.346"/>
  </clipPath>
  <clipPath id="ax">
   <path d="m76.439 341.7c-0.098 0.135-0.165 0.262-0.206 0.347-0.023-4e-3 -0.046-8e-3 -0.07-0.012 0.019-0.089 0.054-0.245 0.094-0.385 0.045-0.16 0.118-0.328 0.167-0.434 0.16 0.027 0.309 0.066 0.431 0.121-0.118 0.082-0.322 0.233-0.416 0.363"/>
  </clipPath>
  <clipPath id="aw">
   <path d="m76.066 341.58c-0.033 0.151 0.02 0.352 0.047 0.44-3e-3 0-5e-3 -1e-3 -8e-3 -1e-3 -0.015-2e-3 -0.032-3e-3 -0.05-5e-3 -0.057-0.081-0.179-0.267-0.225-0.463-0.037-0.153-0.03-0.3-0.017-0.397 0.132 3e-3 0.268 0.011 0.401 0.025-0.045 0.081-0.108 0.22-0.148 0.401"/>
  </clipPath>
  <clipPath id="av">
   <path d="m77.108 341.52c0.051 0.068 0.069 0.138 0.062 0.206-0.034 6e-3 -0.07 0.014-0.101 0.024-0.104 0.033-0.352 0.141-0.352 0.141s0.098-0.225 0.165-0.311c0.05-0.064 0.099-0.112 0.14-0.147 0.033 0.026 0.062 0.055 0.086 0.087"/>
  </clipPath>
  <clipPath id="au">
   <path d="m77.168 341.74c6e-3 -0.064-0.012-0.131-0.063-0.198-0.299-0.395-1.425-0.385-1.969-0.346-0.639 0.047-1.665 0.322-1.726 0.618v-6e-3c0.017-0.304 1.076-0.591 1.729-0.638 0.544-0.039 1.673-0.052 1.969 0.346 0.055 0.074 0.072 0.15 0.06 0.224"/>
  </clipPath>
  <linearGradient id="at" x2="1" gradientTransform="matrix(.87482 .20197 .20197 -.87482 74.612 344.58)" gradientUnits="userSpaceOnUse">
   <stop stop-color="#9ba1d9" offset="0"/>
   <stop stop-color="#5c609f" offset=".7362"/>
   <stop stop-color="#5c609f" offset="1"/>
  </linearGradient>
  <linearGradient id="as" x2="1" gradientTransform="matrix(.84713 .19557 .19557 -.84713 74.639 344.58)" gradientUnits="userSpaceOnUse">
   <stop stop-color="#9ba1d9" offset="0"/>
   <stop stop-color="#5c609f" offset=".7362"/>
   <stop stop-color="#5c609f" offset="1"/>
  </linearGradient>
  <linearGradient id="ar" x2="1" gradientTransform="matrix(-.97292 0 0 .97292 75.644 343.95)" gradientUnits="userSpaceOnUse">
   <stop stop-color="#7074b6" offset="0"/>
   <stop stop-color="#a7aedf" offset="1"/>
  </linearGradient>
  <linearGradient id="aq" x2="1" gradientTransform="matrix(3.0095 -1.0954 -1.0954 -3.0095 73.664 345.25)" gradientUnits="userSpaceOnUse">
   <stop stop-color="#9ba1d9" offset="0"/>
   <stop stop-color="#edf4fc" offset=".12883"/>
   <stop stop-color="#5c609f" offset=".7362"/>
   <stop stop-color="#5c609f" offset="1"/>
  </linearGradient>
  <linearGradient id="ap" x2="1" gradientTransform="matrix(.70023 0 0 -.70023 74.96 343.56)" gradientUnits="userSpaceOnUse">
   <stop stop-color="#9ba1d9" offset="0"/>
   <stop stop-color="#5c609f" offset=".7362"/>
   <stop stop-color="#5c609f" offset="1"/>
  </linearGradient>
  <linearGradient id="ao" x2="1" gradientTransform="matrix(-.68764 0 0 .68764 75.76 343.32)" gradientUnits="userSpaceOnUse">
   <stop stop-color="#7074b6" offset="0"/>
   <stop stop-color="#9ba1d9" offset="1"/>
  </linearGradient>
  <linearGradient id="an" x2="1" gradientTransform="matrix(.41238 0 0 -.41238 75.384 343)" gradientUnits="userSpaceOnUse">
   <stop stop-color="#858acd" offset="0"/>
   <stop stop-color="#5c609f" offset=".7362"/>
   <stop stop-color="#5c609f" offset="1"/>
  </linearGradient>
  <linearGradient id="am" x2="1" gradientTransform="matrix(-.37246 .13556 .13556 .37246 75.869 342.75)" gradientUnits="userSpaceOnUse">
   <stop stop-color="#7074b6" offset="0"/>
   <stop stop-color="#9ba1d9" offset="1"/>
  </linearGradient>
  <linearGradient id="al" x2="1" gradientTransform="matrix(0,4.7066,4.7066,0,76.115,342.63)" gradientUnits="userSpaceOnUse">
   <stop stop-color="#8095bb" offset="0"/>
   <stop stop-color="#d8dbf1" offset=".7362"/>
   <stop stop-color="#a3beda" offset=".90184"/>
   <stop stop-color="#a3beda" offset="1"/>
  </linearGradient>
  <linearGradient id="ak" x2="1" gradientTransform="matrix(.91063 -.76411 -.76411 -.91063 76.286 345.93)" gradientUnits="userSpaceOnUse">
   <stop stop-color="#b3caec" offset="0"/>
   <stop stop-color="#7684b3" offset=".98773"/>
   <stop stop-color="#7684b3" offset="1"/>
  </linearGradient>
  <linearGradient id="aj" x2="1" gradientTransform="matrix(0 2.3311 2.3311 0 76.528 344.26)" gradientUnits="userSpaceOnUse">
   <stop stop-color="#d1e0f4" offset="0"/>
   <stop stop-color="#b3d1ef" offset=".7546"/>
   <stop stop-color="#b3d1ef" offset="1"/>
  </linearGradient>
  <linearGradient id="ai" x2="1" gradientTransform="matrix(3.7486 0 0 -3.7486 76.02 344.59)" gradientUnits="userSpaceOnUse">
   <stop stop-color="#beacdc" offset="0"/>
   <stop stop-color="#dad0ec" offset=".45454"/>
   <stop stop-color="#cbbce3" offset=".86667"/>
   <stop stop-color="#cbbce3" offset="1"/>
  </linearGradient>
  <linearGradient id="ah" x2="1" gradientTransform="matrix(4.0869 1.4875 1.4875 -4.0869 75.605 343.98)" gradientUnits="userSpaceOnUse">
   <stop stop-color="#68438e" offset="0"/>
   <stop stop-color="#f1eef9" offset=".67879"/>
   <stop stop-color="#e4d3ec" offset="1"/>
  </linearGradient>
  <linearGradient id="ag" x2="1" gradientTransform="matrix(-.1893 -1.0736 -1.0736 .1893 76.581 344.35)" gradientUnits="userSpaceOnUse">
   <stop stop-color="#cbc1e6" offset="0"/>
   <stop stop-color="#beaadb" offset="1"/>
  </linearGradient>
  <linearGradient id="af" x2="1" gradientTransform="matrix(.23588 0 0 -.23588 76.061 343.23)" gradientUnits="userSpaceOnUse">
   <stop stop-color="#dfd1ec" offset="0"/>
   <stop stop-color="#b39bd4" offset="1"/>
  </linearGradient>
  <linearGradient id="ae" x2="1" gradientTransform="matrix(2.0619 0 0 -2.0619 77.118 344.62)" gradientUnits="userSpaceOnUse">
   <stop stop-color="#beaadb" offset="0"/>
   <stop stop-color="#e4dff2" offset=".45454"/>
   <stop stop-color="#cbbce3" offset="1"/>
  </linearGradient>
  <linearGradient id="ad" x2="1" gradientTransform="matrix(1.5374 0 0 -1.5374 76.905 344.59)" gradientUnits="userSpaceOnUse">
   <stop stop-color="#beacdc" offset="0"/>
   <stop stop-color="#dcd1ec" offset=".15152"/>
   <stop stop-color="#f1eef9" offset=".72727"/>
   <stop stop-color="#f1eef9" offset="1"/>
  </linearGradient>
  <linearGradient id="ac" x2="1" gradientTransform="matrix(4.7927 0 0 -4.7927 76.246 343.38)" gradientUnits="userSpaceOnUse">
   <stop stop-color="#7e5bb3" offset="0"/>
   <stop stop-color="#be9dd5" offset=".37576"/>
   <stop stop-color="#68438e" offset=".92638"/>
   <stop stop-color="#68438e" offset="1"/>
  </linearGradient>
  <linearGradient id="ab" x2="1" gradientTransform="matrix(.64343 -1.7678 -1.7678 -.64343 79.044 343.68)" gradientUnits="userSpaceOnUse">
   <stop stop-color="#a784c9" offset="0"/>
   <stop stop-color="#68438e" offset=".75152"/>
   <stop stop-color="#52346d" offset="1"/>
  </linearGradient>
  <linearGradient id="aa" x2="1" gradientTransform="matrix(-2.471 0 0 2.471 80.365 343.19)" gradientUnits="userSpaceOnUse">
   <stop stop-color="#7e5bb3" offset="0"/>
   <stop stop-color="#cdafdd" offset=".6135"/>
   <stop stop-color="#be9dd5" offset=".8957"/>
   <stop stop-color="#be9dd5" offset="1"/>
  </linearGradient>
  <linearGradient id="z" x2="1" gradientTransform="matrix(-.61211 -.51362 -.51362 .61211 76.984 343.53)" gradientUnits="userSpaceOnUse">
   <stop stop-color="#be9dd5" offset="0"/>
   <stop stop-color="#68438e" offset="1"/>
  </linearGradient>
  <linearGradient id="y" x2="1" gradientTransform="matrix(.29889 .3562 .3562 -.29889 74.223 343.4)" gradientUnits="userSpaceOnUse">
   <stop stop-color="#746fad" offset="0"/>
   <stop stop-color="#55528b" offset=".84049"/>
   <stop stop-color="#55528b" offset="1"/>
  </linearGradient>
  <linearGradient id="x" x2="1" gradientTransform="matrix(3.1879 -3.1879 -3.1879 -3.1879 72.801 345.21)" gradientUnits="userSpaceOnUse">
   <stop stop-color="#7873b2" offset="0"/>
   <stop stop-color="#a7aedf" offset=".23926"/>
   <stop stop-color="#55528b" offset=".84049"/>
   <stop stop-color="#55528b" offset="1"/>
  </linearGradient>
  <linearGradient id="w" x2="1" gradientTransform="matrix(.37911 0 0 -.37911 75.395 342.59)" gradientUnits="userSpaceOnUse">
   <stop stop-color="#8681c8" offset="0"/>
   <stop stop-color="#7873b2" offset=".92024"/>
   <stop stop-color="#7873b2" offset="1"/>
  </linearGradient>
  <linearGradient id="v" x2="1" gradientTransform="matrix(4.2504 0 0 -4.2504 76.479 341.64)" gradientUnits="userSpaceOnUse">
   <stop stop-color="#2f275f" offset="0"/>
   <stop stop-color="#9d79c3" offset="1"/>
  </linearGradient>
  <linearGradient id="u" x2="1" gradientTransform="matrix(2.2183 -2.6436 -2.6436 -2.2183 78.41 343.38)" gradientUnits="userSpaceOnUse">
   <stop stop-color="#4d346d" offset="0"/>
   <stop stop-color="#795bb3" offset=".80982"/>
   <stop stop-color="#795bb3" offset="1"/>
  </linearGradient>
  <linearGradient id="t" x2="1" gradientTransform="matrix(.8634 0 0 -.8634 76.48 342.75)" gradientUnits="userSpaceOnUse">
   <stop stop-color="#2f275f" offset="0"/>
   <stop stop-color="#9d79c3" offset="1"/>
  </linearGradient>
  <linearGradient id="s" x2="1" gradientTransform="matrix(1.5507 .7231 .7231 -1.5507 78.088 340.72)" gradientUnits="userSpaceOnUse">
   <stop stop-color="#1f183e" offset="0"/>
   <stop stop-color="#3d2668" offset=".44785"/>
   <stop stop-color="#795bb3" offset=".92024"/>
   <stop stop-color="#795bb3" offset="1"/>
  </linearGradient>
  <linearGradient id="r" x2="1" gradientTransform="matrix(.82234 -.69003 -.69003 -.82234 77.606 343.08)" gradientUnits="userSpaceOnUse">
   <stop stop-color="#342869" offset="0"/>
   <stop stop-color="#4e3577" offset=".30303"/>
   <stop stop-color="#68438e" offset="1"/>
  </linearGradient>
  <linearGradient id="q" x2="1" gradientTransform="matrix(.77407 -.28174 -.28174 -.77407 77.014 343.17)" gradientUnits="userSpaceOnUse">
   <stop stop-color="#391f6d" offset="0"/>
   <stop stop-color="#3c2971" offset=".2"/>
   <stop stop-color="#62468a" offset="1"/>
  </linearGradient>
  <linearGradient id="p" x2="1" gradientTransform="matrix(.48335 0 0 -.48335 76.604 342.92)" gradientUnits="userSpaceOnUse">
   <stop stop-color="#231d48" offset="0"/>
   <stop stop-color="#3b215c" offset="1"/>
  </linearGradient>
  <linearGradient id="o" x2="1" gradientTransform="matrix(-.29249 0 0 .29249 76.815 342.86)" gradientUnits="userSpaceOnUse">
   <stop stop-color="#3b215c" offset="0"/>
   <stop stop-color="#473783" offset=".70909"/>
   <stop stop-color="#473783" offset="1"/>
  </linearGradient>
  <linearGradient id="n" x2="1" gradientTransform="matrix(2.7353 0 0 -2.7353 77.994 340.75)" gradientUnits="userSpaceOnUse">
   <stop stop-color="#7e52ae" offset="0"/>
   <stop stop-color="#3b215c" offset=".98773"/>
   <stop stop-color="#3b215c" offset="1"/>
  </linearGradient>
  <linearGradient id="b" x2="1" gradientTransform="matrix(3.0489 0 0 -3.0489 75.922 341.02)" gradientUnits="userSpaceOnUse">
   <stop stop-color="#362466" offset="0"/>
   <stop stop-color="#442583" offset="1"/>
  </linearGradient>
  <linearGradient id="m" x2="1" gradientTransform="matrix(.88396 0 0 -.88396 76.561 342.49)" gradientUnits="userSpaceOnUse">
   <stop stop-color="#31214d" offset="0"/>
   <stop stop-color="#36255f" offset=".24699"/>
   <stop stop-color="#3b2883" offset="1"/>
  </linearGradient>
  <linearGradient id="l" x2="1" gradientTransform="matrix(0 -2.2959 -2.2959 0 76.74 341.76)" gradientUnits="userSpaceOnUse">
   <stop stop-color="#30205a" offset="0"/>
   <stop stop-color="#442583" offset="1"/>
  </linearGradient>
  <linearGradient id="k" x2="1" gradientTransform="matrix(.54999 0 0 -.54999 76.561 342.34)" gradientUnits="userSpaceOnUse">
   <stop stop-color="#2f275f" offset="0"/>
   <stop stop-color="#9d79c3" offset="1"/>
  </linearGradient>
  <linearGradient id="j" x2="1" gradientTransform="matrix(1.4886 .5418 .5418 -1.4886 77.186 341.58)" gradientUnits="userSpaceOnUse">
   <stop stop-color="#30205a" offset="0"/>
   <stop stop-color="#362466" offset=".24699"/>
   <stop stop-color="#442583" offset="1"/>
  </linearGradient>
  <linearGradient id="i" x2="1" gradientTransform="matrix(-1.682,0,0,1.682,78.971,340.86)" gradientUnits="userSpaceOnUse">
   <stop stop-color="#362466" offset="0"/>
   <stop stop-color="#442583" offset="1"/>
  </linearGradient>
  <linearGradient id="h" x2="1" gradientTransform="matrix(.46795 0 0 -.46795 77.109 340.66)" gradientUnits="userSpaceOnUse">
   <stop stop-color="#362466" offset="0"/>
   <stop stop-color="#3d2174" offset="1"/>
  </linearGradient>
  <linearGradient id="g" x2="1" gradientTransform="matrix(-3.0282 0 0 3.0282 78.971 340.44)" gradientUnits="userSpaceOnUse">
   <stop stop-color="#30205a" offset="0"/>
   <stop stop-color="#7264b8" offset=".5092"/>
   <stop stop-color="#51369b" offset="1"/>
  </linearGradient>
  <linearGradient id="a" x2="1" gradientTransform="matrix(1.1195 -1.939 -1.939 -1.1195 74.759 342.7)" gradientUnits="userSpaceOnUse">
   <stop stop-color="#301a4a" offset="0"/>
   <stop stop-color="#422568" offset=".54601"/>
   <stop stop-color="#5e2590" offset="1"/>
  </linearGradient>
  <linearGradient id="f" x2="1" gradientTransform="matrix(0 .83171 .83171 0 76.509 341.21)" gradientUnits="userSpaceOnUse">
   <stop stop-color="#4c2c7a" offset="0"/>
   <stop stop-color="#5e2590" offset=".74233"/>
   <stop stop-color="#5e2590" offset="1"/>
  </linearGradient>
  <linearGradient id="e" x2="1" gradientTransform="matrix(0 .86659 .86659 0 76.008 341.16)" gradientUnits="userSpaceOnUse">
   <stop stop-color="#422568" offset="0"/>
   <stop stop-color="#572285" offset="1"/>
  </linearGradient>
  <linearGradient id="d" x2="1" gradientTransform="matrix(-.45484 0 0 .45484 77.171 341.66)" gradientUnits="userSpaceOnUse">
   <stop stop-color="#4c2c7a" offset="0"/>
   <stop stop-color="#53207e" offset=".79755"/>
   <stop stop-color="#53207e" offset="1"/>
  </linearGradient>
  <linearGradient id="c" x2="1" gradientTransform="matrix(3.7613 0 0 -3.7613 73.41 341.49)" gradientUnits="userSpaceOnUse">
   <stop stop-color="#3b215c" offset="0"/>
   <stop stop-color="#9d79c3" offset=".53374"/>
   <stop stop-color="#5e2590" offset="1"/>
  </linearGradient>
 </defs>
 <g transform="translate(1539 682.19)">
  <g transform="matrix(68.177 0 0 -68.177 -6478.1 23001)" clip-path="url(#ct)">
   <path d="m76.025 342.45c-0.367 0.502-0.672 1.549-0.651 1.97 0.018 0.361 0.046 0.792-0.166 1.421-0.285 0.852-0.55 1.214-0.786 1.21-0.03 0-0.056-0.012-0.078-0.033l1e-3 1e-3c-0.179-0.102-0.165-0.741 0.126-1.785 0.205-0.735 0.478-1.395 0.799-1.955 0.179-0.311 0.483-0.734 0.728-0.885l0.031-6e-3 -4e-3 0.062" fill="url(#at)"/>
  </g>
  <g transform="matrix(68.177 0 0 -68.177 -6478.1 23001)" clip-path="url(#cs)">
   <path d="m74.496 345.25c-0.317 1.137-0.306 1.794-0.074 1.798 0.236 4e-3 0.501-0.358 0.786-1.21 0.212-0.629 0.184-1.06 0.166-1.421-0.021-0.421 0.284-1.468 0.651-1.97l4e-3 -0.062c-0.245 0.151-0.556 0.599-0.734 0.91-0.321 0.559-0.594 1.219-0.799 1.955" fill="url(#as)"/>
  </g>
  <g transform="matrix(68.177 0 0 -68.177 -6478.1 23001)" clip-path="url(#cr)">
   <path d="m75.258 343.69c0.179-0.185 0.319-0.384 0.386-0.486-0.034 0.089-0.065 0.179-0.093 0.269-0.09 0.153-0.248 0.407-0.424 0.639-0.144 0.19-0.328 0.42-0.456 0.578 0.088-0.256 0.185-0.501 0.289-0.733 0.111-0.094 0.233-0.201 0.298-0.267" fill="url(#ar)"/>
  </g>
  <g transform="matrix(68.177 0 0 -68.177 -6478.1 23001)" clip-path="url(#cq)">
   <path d="m75.295 343.3c-0.321 0.559-0.594 1.219-0.799 1.955-0.277 0.993-0.304 1.62-0.151 1.766-0.179-0.102-0.165-0.741 0.126-1.785 0.205-0.735 0.478-1.395 0.799-1.955 0.179-0.311 0.483-0.734 0.728-0.885l0.031-6e-3c-0.245 0.151-0.556 0.599-0.734 0.91" fill="url(#aq)"/>
  </g>
  <g transform="matrix(68.177 0 0 -68.177 -6478.1 23001)" clip-path="url(#cp)">
   <path d="m75.66 343.16c-5e-3 0.015-0.011 0.03-0.016 0.044-0.067 0.102-0.207 0.301-0.386 0.486-0.065 0.066-0.187 0.173-0.298 0.267 0.037-0.081 0.074-0.161 0.112-0.24 0.088-0.05 0.205-0.128 0.31-0.233 0.124-0.123 0.222-0.247 0.278-0.324" fill="url(#ap)"/>
  </g>
  <g transform="matrix(68.177 0 0 -68.177 -6478.1 23001)" clip-path="url(#co)">
   <path d="m75.76 342.92c-0.035 0.077-0.068 0.158-0.1 0.239-0.056 0.077-0.154 0.201-0.278 0.324-0.105 0.105-0.222 0.183-0.31 0.233 0.072-0.146 0.146-0.286 0.223-0.42 0.027-0.047 0.057-0.097 0.089-0.149 0.048-0.024 0.099-0.051 0.143-0.075 0.07-0.038 0.177-0.112 0.233-0.152" fill="url(#ao)"/>
  </g>
  <g transform="matrix(68.177 0 0 -68.177 -6478.1 23001)" clip-path="url(#cn)">
   <path d="m75.796 342.84c-0.012 0.025-0.024 0.051-0.036 0.078-0.056 0.04-0.163 0.114-0.233 0.152-0.044 0.024-0.095 0.051-0.143 0.075 0.042-0.066 0.087-0.135 0.135-0.204 0.061-0.022 0.132-0.047 0.17-0.062 0.039-0.015 0.079-0.029 0.107-0.039" fill="url(#an)"/>
  </g>
  <g transform="matrix(68.177 0 0 -68.177 -6478.1 23001)" clip-path="url(#cm)">
   <path d="m75.859 342.72c-0.021 0.04-0.042 0.081-0.063 0.124-0.028 0.01-0.068 0.024-0.107 0.039-0.038 0.015-0.109 0.04-0.17 0.062 0.044-0.064 0.091-0.128 0.139-0.189 0.019-4e-3 0.038-7e-3 0.052-0.01 0.03-5e-3 0.104-0.018 0.149-0.026" fill="url(#am)"/>
  </g>
  <g transform="matrix(68.177 0 0 -68.177 -6478.1 23001)" clip-path="url(#cl)">
   <g transform="translate(77.309 347.09)">
    <path d="m0 0c-0.189 0.279-0.418 0.34-0.645 0.242 2e-3 0 3e-3 1e-3 5e-3 2e-3 -0.271-0.103-0.541-0.435-0.74-0.896-0.258-0.601-0.376-1.276-0.367-2.121 4e-3 -0.41 0.092-1.133 0.349-1.68l0.018-0.01 0.043 0.03c-0.097 0.692 0.036 1.081 0.182 1.483 0.05 0.137 0.248 0.487 0.451 0.541 0.372 0.099 0.593 0.459 0.796 0.906 0.152 0.335 0.187 1.091-0.092 1.503" fill="#b3caec"/>
   </g>
   <g transform="translate(75.95,346.45)">
    <path d="m0 0c0.359 0.834 0.952 1.244 1.359 0.644 0.279-0.412 0.244-1.169 0.092-1.503-0.203-0.448-0.424-0.807-0.796-0.906-0.203-0.054-0.401-0.405-0.451-0.541-0.146-0.402-0.279-0.792-0.182-1.484l-0.043-0.029c-0.257 0.547-0.342 1.287-0.346 1.698-9e-3 0.845 0.108 1.52 0.367 2.121" fill="#b3caec"/>
   </g>
  </g>
  <g transform="matrix(68.177 0 0 -68.177 -6478.1 23001)" clip-path="url(#ck)">
   <path d="m75.95 346.45c0.193 0.449 0.455 0.776 0.719 0.887-0.271-0.103-0.541-0.434-0.74-0.895-0.258-0.601-0.376-1.276-0.367-2.122 4e-3 -0.41 0.092-1.132 0.349-1.679l0.018-0.011c-0.257 0.547-0.342 1.288-0.346 1.699-9e-3 0.845 0.108 1.52 0.367 2.121" fill="url(#al)"/>
  </g>
  <g transform="matrix(68.177 0 0 -68.177 -6478.1 23001)" clip-path="url(#cj)">
   <path d="m76.605 344.68c0.372 0.099 0.593 0.458 0.796 0.906 0.073 0.161 0.119 0.422 0.116 0.694-0.026 0.106-0.065 0.225-0.121 0.293-0.092 0.111-0.257 0.228-0.473 0.075-0.236-0.168-0.39-0.541-0.528-1.113-0.103-0.426-0.129-0.937-0.135-1.187 0.088 0.143 0.215 0.298 0.345 0.332" fill="url(#ak)"/>
  </g>
  <g transform="matrix(68.177 0 0 -68.177 -6478.1 23001)" clip-path="url(#ci)">
   <path d="m76.733 346.46c-0.075-0.091-0.257-0.431-0.373-0.916-0.104-0.433-0.141-1.046-0.153-1.29 0.016 0.03 0.033 0.061 0.053 0.094 6e-3 0.25 0.032 0.761 0.135 1.187 0.123 0.509 0.258 0.861 0.453 1.05-0.038-0.036-0.08-0.082-0.115-0.125" fill="url(#aj)"/>
  </g>
  <path d="m-1298.9-360.22c-0.069-1.3635-0.1363-2.6589-0.1363-3.9543-1.909-15.272-2.1817-28.293-1.2954-39.951-2.1135-4.0224-5.0451-8.5221-8.7948-12.613-3.6816-3.9543-7.9085-6.8858-11.59-8.9993 3.5453 22.499 9.6811 46.906 19.226 67.29l2.5907-1.7726" fill="#b8d2f0"/>
  <path d="m-1321.5-539.32c-2.6588 20.044-3.886 41.656-3.6133 65.109 0.069 7.4313 0.5453 16.43 1.4998 26.384 3.9543 2.1135 8.7267 5.1814 12.749 9.6124 6.3404 6.8858 10.227 14.862 12.272 19.976 2.6589-16.089 7.4313-29.589 12.408-43.36 0.2046-0.47724 0.4091-0.95448 0.6136-1.4998-2.8634-9.6124-8.113-25.498-16.772-44.587-6.2722-13.84-13.431-24.407-19.157-31.634" fill="#bcd4f0"/>
  <g transform="matrix(68.177 0 0 -68.177 -6478.1 23001)" clip-path="url(#ch)">
   <path d="m78.018 346.15c0.746 0.328 1.419 0.261 1.689-0.464 0.203-0.549-0.1-1.518-0.796-1.787-0.285-0.11-0.707-0.042-1.084 0.115-0.202 0.085-0.441 0.152-0.798-0.043-0.377-0.206-0.743-0.553-0.951-1.142l-0.058 7e-3c0.018 0.693 0.255 1.409 0.573 1.93 0.435 0.713 0.931 1.167 1.425 1.384" fill="url(#ai)"/>
  </g>
  <g transform="matrix(68.177 0 0 -68.177 -6478.1 23001)" clip-path="url(#cg)">
   <path d="m78.034 346.14c0.57 0.25 1.098 0.27 1.435-0.058-0.336 0.344-0.872 0.327-1.451 0.073-0.494-0.217-0.99-0.671-1.425-1.384-0.318-0.521-0.555-1.237-0.573-1.93l0.016-2e-3c0.021 0.689 0.256 1.399 0.573 1.917 0.435 0.713 0.93 1.167 1.425 1.384" fill="url(#ah)"/>
  </g>
  <g transform="matrix(68.177 0 0 -68.177 -6478.1 23001)" clip-path="url(#cf)">
   <path d="m76.157 343.36c0.028-0.014 0.091-0.047 0.14-0.073 0.146 0.232 0.322 0.409 0.509 0.545-0.018 0.085-0.057 0.205-0.143 0.323-0.077 0.105-0.173 0.172-0.257 0.214-0.136-0.295-0.243-0.626-0.307-0.966 0.023-0.02 0.045-0.036 0.058-0.043" fill="url(#ag)"/>
  </g>
  <g transform="matrix(68.177 0 0 -68.177 -6478.1 23001)" clip-path="url(#ce)">
   <path d="m76.128 343.18c0.022-0.041 0.036-0.081 0.045-0.115 0.038 0.08 0.08 0.155 0.124 0.225-0.049 0.026-0.112 0.059-0.14 0.073-0.013 7e-3 -0.035 0.023-0.058 0.043-9e-3 -0.047-0.016-0.093-0.023-0.139 0.017-0.027 0.037-0.059 0.052-0.087" fill="url(#af)"/>
  </g>
  <path d="m-1290.4-374.81c1.7044-4.5678 3.5452-8.9993 5.5223-13.158-0.6136-2.2499-1.5681-5.0451-3.0679-7.8403-1.0227-1.909-2.3862-4.0906-3.5453-5.9314-1.2271 7.8403-2.0453 15.681-2.4543 23.521l3.5453 3.4088" fill="#dfd1ec"/>
  <g transform="matrix(68.177 0 0 -68.177 -6478.1 23001)" clip-path="url(#cd)">
   <path d="m79.107 344.71c0.086 0.21 0.161 0.554-0.182 0.663-0.365 0.116-1.111-0.522-1.301-0.712-0.134-0.135-0.376-0.462-0.506-0.644 0.308 0.139 0.524 0.076 0.709-1e-3 0.208-0.086 0.429-0.146 0.634-0.164 0.148 0.119 0.461 0.409 0.646 0.858" fill="url(#ae)"/>
  </g>
  <g transform="matrix(68.177 0 0 -68.177 -6478.1 23001)" clip-path="url(#cc)">
   <path d="m77.327 344.42c-0.172-0.193-0.338-0.409-0.422-0.521 0.041 0.027 0.083 0.051 0.124 0.074 0.031 0.017 0.06 0.031 0.089 0.044 0.13 0.182 0.372 0.509 0.506 0.644 0.124 0.124 0.483 0.437 0.819 0.609-0.249-0.098-0.8-0.496-1.116-0.85" fill="url(#ad)"/>
  </g>
  <g transform="matrix(68.177 0 0 -68.177 -6478.1 23001)" clip-path="url(#cb)">
   <g clip-path="url(#ca)">
    <path d="m81.039 347.38h-8.3853v-10.081h8.3853v10.081z" fill="url(#ac)"/>
   </g>
  </g>
  <g transform="matrix(68.177 0 0 -68.177 -6478.1 23001)" clip-path="url(#bz)">
   <path d="m80.285 343.04c-0.323 0.224-0.777 0.33-1.292 0.361-0.386 0.023-0.876-0.083-1.099-0.137 0.094-0.035 0.174-0.081 0.232-0.136 0.076-0.072 0.215-0.296 0.323-0.431 0.336-0.419 0.602-0.547 0.95-0.63 0.55-0.131 1.07 0.051 1.372 0.452-0.111 0.161-0.287 0.384-0.486 0.521" fill="url(#ab)"/>
  </g>
  <g transform="matrix(68.177 0 0 -68.177 -6478.1 23001)" clip-path="url(#by)">
   <path d="m79.024 343.38c0.516-0.031 0.969-0.137 1.292-0.361 0.017-0.011 0.033-0.023 0.049-0.035-0.026 0.021-0.053 0.042-0.08 0.06-0.323 0.224-0.777 0.33-1.292 0.361-0.386 0.023-0.876-0.083-1.099-0.137 0.017-6e-3 0.034-0.013 0.05-0.02 0.231 0.055 0.705 0.154 1.08 0.132" fill="url(#aa)"/>
  </g>
  <g transform="matrix(68.177 0 0 -68.177 -6478.1 23001)" clip-path="url(#bx)">
   <path d="m76.919 343.44c-3e-3 0.076-0.03 0.167-0.052 0.23-0.184-0.179-0.347-0.368-0.485-0.558 6e-3 -0.037 0.012-0.074 0.015-0.09 4e-3 -0.015 0.01-0.035 0.017-0.054 0.163 0.12 0.333 0.207 0.5 0.266 5e-3 0.053 0.01 0.127 5e-3 0.206" fill="url(#z)"/>
  </g>
  <path d="m-1276.8-374.74c2.7953-2.3862 5.5905-4.636 8.3858-6.6814-0.4773-1.2954-0.8863-2.7271-1.0908-3.6816-0.2727-1.159-0.6818-3.6816-1.0227-6.1359-1.5681 2.1135-3.1361 4.2952-4.5679 6.4086 0 1.4317-0.069 3.1361-0.3409 4.4996-0.2726 1.4317-0.8862 3.6816-1.3635 5.5904" fill="#68438e"/>
  <path d="m-1276.9-374.67s0.069-0.0682 0.069-0.0682c0.4773-1.909 1.0909-4.1588 1.3635-5.5904 0.2727-1.3635 0.3409-3.068 0.3409-4.4996-1.6362 2.4543-3.2043 4.8405-4.7724 7.1586l2.9998 2.9998" fill="#8f6eb2"/>
  <g transform="matrix(68.177 0 0 -68.177 -6478.1 23001)" clip-path="url(#bw)">
   <g clip-path="url(#bv)">
    <path d="m81.039 347.38h-8.3853v-10.081h8.3853v10.081z" fill="url(#y)"/>
   </g>
  </g>
  <g transform="matrix(68.177 0 0 -68.177 -6478.1 23001)" clip-path="url(#bu)">
   <g clip-path="url(#bt)">
    <path d="m81.039 347.38h-8.3853v-10.081h8.3853v10.081z" fill="url(#x)"/>
   </g>
  </g>
  <g transform="matrix(68.177 0 0 -68.177 -6478.1 23001)" clip-path="url(#bs)">
   <path d="m75.395 342.65s0.102-0.013 0.157-0.022c0.071-0.01 0.137-0.033 0.137-0.033l0.085-0.056s-0.054 7e-3 -0.104 5e-3c-0.041-2e-3 -0.079-0.013-0.079-0.013l-0.196 0.119" fill="url(#w)"/>
  </g>
  <g transform="matrix(68.177 0 0 -68.177 -6478.1 23001)" clip-path="url(#br)">
   <path d="m80.445 342.36c-0.484 0.696-1.328 0.94-2.079 0.945-0.692 4e-3 -1.467-0.264-1.887-0.507l1e-3 -0.046 0.022-0.016c0.331 0.065 0.611 0.048 0.836-0.022 0.359-0.123 0.581-0.38 0.635-0.64 0.048-0.232 0.041-0.48 0.029-0.65-0.029-0.419 0.017-0.702 0.299-1.021 0.514-0.582 1.364-0.497 1.886-0.033 0.554 0.492 0.758 1.273 0.258 1.99" fill="url(#v)"/>
  </g>
  <g transform="matrix(68.177 0 0 -68.177 -6478.1 23001)" clip-path="url(#bq)">
   <path d="m80.445 342.36c-0.484 0.696-1.328 0.94-2.079 0.945-0.017 0-0.033 0-0.049-1e-3 0.056-0.131 0.129-0.355 0.102-0.6-0.028-0.259-0.082-0.392-0.154-0.498 0.539-0.116 1.057-0.382 1.397-0.871 0.269-0.386 0.334-0.791 0.251-1.158 0.098 0.053 0.19 0.118 0.274 0.193 0.554 0.492 0.758 1.273 0.258 1.99" fill="url(#u)"/>
  </g>
  <g transform="matrix(68.177 0 0 -68.177 -6478.1 23001)" clip-path="url(#bp)">
   <path d="m76.48 342.75 0.022-0.016c0.333 0.065 0.616 0.048 0.842-0.024-0.233 0.082-0.524 0.107-0.864 0.04" fill="url(#t)"/>
  </g>
  <g transform="matrix(68.177 0 0 -68.177 -6478.1 23001)" clip-path="url(#bo)">
   <path d="m79.662 341.33c-0.34 0.489-0.858 0.755-1.397 0.871-0.04-0.06-0.087-0.112-0.138-0.173-0.026-0.031-0.078-0.066-0.132-0.098 0.023-0.188 0.016-0.375 7e-3 -0.511-0.029-0.419 0.017-0.702 0.299-1.021 0.431-0.489 1.099-0.507 1.612-0.226 0.083 0.367 0.018 0.772-0.251 1.158" fill="url(#s)"/>
  </g>
  <g transform="matrix(68.177 0 0 -68.177 -6478.1 23001)" clip-path="url(#bn)">
   <path d="m78.127 342.03c0.14 0.168 0.248 0.265 0.292 0.671 0.027 0.245-0.046 0.469-0.102 0.6-0.128-1e-3 -0.259-0.012-0.389-0.029-0.047-0.077-0.119-0.181-0.21-0.273-0.107-0.107-0.29-0.213-0.412-0.277 0.378-0.119 0.612-0.383 0.667-0.651 9e-3 -0.046 0.017-0.093 0.022-0.139 0.054 0.032 0.106 0.067 0.132 0.098" fill="url(#r)"/>
  </g>
  <g transform="matrix(68.177 0 0 -68.177 -6478.1 23001)" clip-path="url(#bm)">
   <path d="m77.088 343.06c-0.017-0.042-0.043-0.095-0.102-0.164-0.033-0.039-0.075-0.081-0.111-0.116 0.159-1e-3 0.304-0.025 0.431-0.065 0.122 0.064 0.305 0.17 0.412 0.277 0.091 0.092 0.163 0.196 0.21 0.273-0.292-0.04-0.582-0.115-0.84-0.205" fill="url(#q)"/>
  </g>
  <g transform="matrix(68.177 0 0 -68.177 -6478.1 23001)" clip-path="url(#bl)">
   <path d="m76.986 342.9c0.059 0.069 0.085 0.122 0.102 0.164-0.096-0.034-0.188-0.069-0.273-0.106-0.025-0.028-0.059-0.063-0.1-0.1-0.026-0.024-0.07-0.06-0.111-0.092 0.095 0.013 0.185 0.019 0.271 0.018 0.036 0.035 0.078 0.077 0.111 0.116" fill="url(#p)"/>
  </g>
  <g transform="matrix(68.177 0 0 -68.177 -6478.1 23001)" clip-path="url(#bk)">
   <path d="m76.682 342.9c-0.019-0.023-0.044-0.05-0.066-0.073-0.02-0.02-0.06-0.049-0.093-0.072 0.027 5e-3 0.055 0.01 0.081 0.013 0.041 0.032 0.085 0.068 0.111 0.092 0.041 0.037 0.075 0.072 0.1 0.1-0.046-0.02-0.09-0.04-0.133-0.06" fill="url(#o)"/>
  </g>
  <g transform="matrix(68.177 0 0 -68.177 -6478.1 23001)" clip-path="url(#bj)">
   <path d="m80.187 340.39c-0.522-0.464-1.372-0.55-1.886 0.033-0.234 0.264-0.305 0.5-0.307 0.811-1e-3 -0.32 0.069-0.563 0.307-0.832 0.514-0.582 1.364-0.497 1.886-0.033 0.338 0.3 0.545 0.708 0.543 1.143-3e-3 -0.427-0.21-0.827-0.543-1.122" fill="url(#n)"/>
  </g>
  <g transform="matrix(68.177 0 0 -68.177 -6478.1 23001)" clip-path="url(#bi)">
   <path d="m78.388 342.12c-0.491 0.357-1.381 0.47-1.8 0.454l-0.027-0.042 2e-3 -0.018c0.302-0.058 0.477-0.206 0.548-0.375 0.066-0.157 0.053-0.33-0.029-0.464-0.131-0.218-0.44-0.438-0.552-0.52-0.442-0.323-0.608-0.618-0.608-0.98 0-0.484 0.466-0.735 1.044-0.716 0.603 0.02 1.625 0.354 1.939 1.279 0.176 0.517-1e-3 1.008-0.517 1.382" fill="url(#b)"/>
  </g>
  <g transform="matrix(68.177 0 0 -68.177 -6478.1 23001)" clip-path="url(#bh)">
   <path d="m78.905 340.74c-0.314-0.925-1.336-1.259-1.939-1.279-0.578-0.019-1.044 0.232-1.044 0.716 0 0.362 0.166 0.657 0.608 0.98 0.112 0.082 0.421 0.302 0.552 0.52 0.174 0.287 0.036 0.752-0.521 0.857l0.027 0.042c0.419 0.016 1.309-0.097 1.8-0.454 0.516-0.374 0.693-0.865 0.517-1.382" fill="url(#b)"/>
  </g>
  <g transform="matrix(68.177 0 0 -68.177 -6478.1 23001)" clip-path="url(#bg)">
   <path d="m77.209 342.42c0.096 0.019 0.176 0.048 0.236 0.074-0.331 0.069-0.651 0.092-0.857 0.084l-0.027-0.042c0.142-0.027 0.257-0.077 0.346-0.142 0.08-1e-3 0.189 3e-3 0.302 0.026" fill="url(#m)"/>
  </g>
  <g transform="matrix(68.177 0 0 -68.177 -6478.1 23001)" clip-path="url(#bf)">
   <path d="m77.514 340.84c-0.052 0.42-0.281 0.773-0.393 0.923-0.01-0.027-0.023-0.054-0.039-0.079-0.131-0.218-0.44-0.438-0.552-0.52-0.442-0.323-0.608-0.618-0.608-0.98 0-0.484 0.466-0.735 1.044-0.716 0.172 6e-3 0.377 0.037 0.59 0.1 5e-3 0.329 4e-3 0.895-0.042 1.272" fill="url(#l)"/>
  </g>
  <g transform="matrix(68.177 0 0 -68.177 -6478.1 23001)" clip-path="url(#be)">
   <path d="m76.561 342.54 2e-3 -0.018c0.302-0.058 0.477-0.206 0.548-0.375-0.075 0.179-0.253 0.337-0.55 0.393" fill="url(#k)"/>
  </g>
  <path d="m-1146.6-331.78c-15.272-8.0449-33.611-13.704-51.542-17.385-4.0906 1.7726-9.5448 3.7497-16.089 5.0451-7.704 1.5681-15.203 1.8407-20.589 1.7726 3.4088 2.4543 6.2723 5.2496 8.5903 8.2494 9.7496 1.7044 24.953 3.886 38.656 3.9542 10.09 0.0682 27.407-0.81812 40.975-1.6363" fill="#442583"/>
  <g transform="matrix(68.177 0 0 -68.177 -6478.1 23001)" clip-path="url(#bd)">
   <path d="m78.915 341.46c-0.083 0.244-0.259 0.47-0.527 0.664-0.057 0.042-0.12 0.08-0.187 0.115-0.198-0.012-0.453-0.025-0.6-0.024-0.202 1e-3 -0.425 0.034-0.567 0.058 0.124-0.157 0.148-0.353 0.087-0.515 0.03-0.04 0.069-0.096 0.111-0.164 0.195-0.07 0.507-0.162 0.852-0.185 0.331-0.022 0.652 0.02 0.831 0.051" fill="url(#j)"/>
  </g>
  <g transform="matrix(68.177 0 0 -68.177 -6478.1 23001)" clip-path="url(#bc)">
   <path d="m78.915 341.46c-0.179-0.031-0.5-0.073-0.831-0.051-0.244 0.016-0.471 0.067-0.652 0.12-0.017-6e-3 -0.035-0.012-0.053-0.016-0.027-7e-3 -0.059-0.013-0.09-0.017 0.096-0.175 0.193-0.406 0.225-0.661 0.016-0.136 0.027-0.297 0.034-0.462 0.141-0.075 0.323-0.142 0.552-0.174 0.168-0.023 0.355-9e-3 0.512 0.022 0.124 0.148 0.225 0.321 0.293 0.521 0.085 0.249 0.087 0.491 0.01 0.718" fill="url(#i)"/>
  </g>
  <path d="m-1199-283.38c-5.1133-1.4998-9.7497-3.0679-13.635-4.4315 1.2954 2.0453 2.5908 4.2952 3.8861 6.6814 2.1135-0.27271 4.2951-0.61359 6.2041-1.159 1.2272-0.27271 2.3862-0.68177 3.5451-1.0908" fill="#30205a"/>
  <g transform="matrix(68.177 0 0 -68.177 -6478.1 23001)" clip-path="url(#bb)">
   <path d="m77.514 340.84c-0.052 0.42-0.281 0.773-0.393 0.923-6e-3 -0.015-5e-3 -0.012-0.012-0.027 0.115-0.158 0.331-0.508 0.381-0.914 0.045-0.369 0.053-0.927 0.049-1.259 0.01 3e-3 7e-3 2e-3 0.017 5e-3 5e-3 0.329 4e-3 0.895-0.042 1.272" fill="url(#h)"/>
  </g>
  <g transform="matrix(68.177 0 0 -68.177 -6478.1 23001)" clip-path="url(#ba)">
   <path d="m78.927 341.42c0.056-0.208 0.046-0.428-0.03-0.653-0.315-0.925-1.337-1.259-1.939-1.279-0.494-0.016-0.905 0.165-1.015 0.519 0.096-0.373 0.516-0.564 1.023-0.548 0.603 0.02 1.625 0.354 1.939 1.279 0.08 0.236 0.087 0.466 0.022 0.682" fill="url(#g)"/>
  </g>
  <g transform="matrix(68.177 0 0 -68.177 -6478.1 23001)" clip-path="url(#az)">
   <path d="m76.508 342.35-0.044-2e-3v-0.027c0.037-0.043 0.054-0.078 0.057-0.108-0.013-0.112-0.207-0.169-0.416-0.194-0.151-0.018-0.473-9e-3 -0.651 0.013-0.366 0.046-0.679 0.092-0.981 0.094-0.47 3e-3 -1.078-0.046-1.063-0.318 0.017-0.304 1.076-0.591 1.729-0.638 0.544-0.039 1.673-0.052 1.969 0.346 0.234 0.315-0.229 0.654-0.6 0.834" fill="url(#a)"/>
  </g>
  <g transform="matrix(68.177 0 0 -68.177 -6478.1 23001)" clip-path="url(#ay)">
   <path d="m75.139 341.17c-0.653 0.047-1.712 0.334-1.729 0.638-0.015 0.272 0.593 0.321 1.063 0.318 0.302-2e-3 0.615-0.048 0.981-0.094 0.178-0.022 0.5-0.031 0.651-0.013 0.281 0.034 0.535 0.125 0.359 0.329l0.044 2e-3c0.371-0.18 0.834-0.519 0.6-0.834-0.296-0.398-1.425-0.385-1.969-0.346" fill="url(#a)"/>
  </g>
  <path d="m-1265-339.43v1.909c2.5225 2.8634 3.7497 5.3178 3.886 7.3631 0.3409-2.6589-0.8181-5.7269-3.886-9.272" fill="#29163e"/>
  <g transform="matrix(68.177 0 0 -68.177 -6478.1 23001)" clip-path="url(#ax)">
   <path d="m76.439 341.7c-0.098 0.135-0.165 0.262-0.206 0.347-0.023-4e-3 -0.046-8e-3 -0.07-0.012 0.019-0.089 0.054-0.245 0.094-0.385 0.045-0.16 0.118-0.328 0.167-0.434 0.16 0.027 0.309 0.066 0.431 0.121-0.118 0.082-0.322 0.233-0.416 0.363" fill="url(#f)"/>
  </g>
  <g transform="matrix(68.177 0 0 -68.177 -6478.1 23001)" clip-path="url(#aw)">
   <path d="m76.066 341.58c-0.033 0.151 0.02 0.352 0.047 0.44-3e-3 0-5e-3 -1e-3 -8e-3 -1e-3 -0.015-2e-3 -0.032-3e-3 -0.05-5e-3 -0.057-0.081-0.179-0.267-0.225-0.463-0.037-0.153-0.03-0.3-0.017-0.397 0.132 3e-3 0.268 0.011 0.401 0.025-0.045 0.081-0.108 0.22-0.148 0.401" fill="url(#e)"/>
  </g>
  <g transform="matrix(68.177 0 0 -68.177 -6478.1 23001)" clip-path="url(#av)">
   <path d="m77.108 341.52c0.051 0.068 0.069 0.138 0.062 0.206-0.034 6e-3 -0.07 0.014-0.101 0.024-0.104 0.033-0.352 0.141-0.352 0.141s0.098-0.225 0.165-0.311c0.05-0.064 0.099-0.112 0.14-0.147 0.033 0.026 0.062 0.055 0.086 0.087" fill="url(#d)"/>
  </g>
  <g transform="matrix(68.177 0 0 -68.177 -6478.1 23001)" clip-path="url(#au)">
   <path d="m77.168 341.74c6e-3 -0.064-0.012-0.131-0.063-0.198-0.299-0.395-1.425-0.385-1.969-0.346-0.639 0.047-1.665 0.322-1.726 0.618v-6e-3c0.017-0.304 1.076-0.591 1.729-0.638 0.544-0.039 1.673-0.052 1.969 0.346 0.055 0.074 0.072 0.15 0.06 0.224" fill="url(#c)"/>
  </g>
  <path d="m-1500.6-74.304c0 2.0403-1.544 3.8049-3.6946 3.8049-3.8601 0-5.1284-4.4666-13.731-4.4666-6.3415 0-11.028 3.9703-11.028 9.8709 0 15.33 33.031 7.996 33.031 31.487 0 11.525-8.3821 22.002-23.546 22.002-9.209 0-19.41-3.5292-19.41-8.3821 0-2.3711 1.2131-4.4114 3.6394-4.4114 2.9226 0 7.0584 5.3489 15.881 5.3489 8.8784 0 14.282-6.4518 14.282-14.172 0-16.543-33.086-8.4923-33.086-31.321 0-8.1062 7.6098-17.866 20.513-17.866 8.6573 0 17.15 3.5843 17.15 8.1062" fill="#22174b"/>
  <path d="m-1477.2-45.683h12.738c8.4923 0 14.282-6.3415 14.282-14.282 0-6.8378-3.9151-14.502-14.668-14.502h-12.352v28.785zm0 29.446c0 2.8123-1.6543 4.5769-4.3012 4.5769s-4.3012-1.7646-4.3012-4.5769v-60.933c0-2.6469 1.3786-4.6872 4.5769-4.6872h17.039c14.006 0 22.609 9.7608 22.609 21.892s-9.5951 21.726-22.333 21.726h-13.289v22.002" fill="#22174b"/>
  <path d="m-1424-20.206h20.734c2.4814 0 4.1909 1.2683 4.1909 4.0254 0 2.702-1.7095 3.9703-4.1909 3.9703h-24.759c-3.1984 0-4.5769-2.0403-4.5769-4.6872v-60.271c0-2.5918 1.3785-4.6872 4.5769-4.6872h24.759c2.4814 0 4.1909 1.2683 4.1909 4.0254s-1.7095 4.0254-4.1909 4.0254h-20.734v22.774h18.859c2.4814 0 4.246 1.2683 4.246 4.0254s-1.7645 4.0254-4.246 4.0254h-18.859v22.774" fill="#22174b"/>
  <path d="m-1380.6-16.237c0 2.8123-1.6543 4.5769-4.3012 4.5769s-4.3012-1.7646-4.3012-4.5769v-61.65c0-2.8123 1.6543-4.5769 4.3012-4.5769s4.3012 1.7646 4.3012 4.5769v25.476l29.832-27.296c1.5992-1.4888 2.9226-2.7571 4.6872-2.7571 2.1506 0 3.7498 1.4888 3.7498 3.6946 0 2.2609-0.772 3.0329-1.7646 3.9152l-28.564 25.752 31.211 30.108c1.3235 1.2683 1.7646 2.2609 1.7646 3.5292 0 2.0403-1.8748 3.8049-4.2461 3.8049-1.2683 0-2.4263-0.16543-4.1909-1.8198l-32.48-31.928v29.171" fill="#22174b"/>
  <path d="m-1319.3-73.865h-13.014c-2.4263 0-4.1909-1.2683-4.1909-4.0254 0-2.702 1.7646-3.9703 4.1909-3.9703h34.63c2.4263 0 4.1909 1.2683 4.1909 3.9703 0 2.7571-1.7646 4.0254-4.1909 4.0254h-13.014v57.625c0 2.8123-1.6543 4.5769-4.3012 4.5769-2.6468 0-4.3011-1.7646-4.3011-4.5769v-57.625" fill="#22174b"/>
  <path d="m-1277.1-49.651h11.746c8.9886 0 12.903-3.8049 12.903-12.793 0-6.5069-5.0732-11.966-13.124-11.966h-11.525v24.759zm0 33.472c0 2.8123-1.6543 4.5769-4.3012 4.5769s-4.3012-1.7646-4.3012-4.5769v-60.989c0-2.5918 1.3786-4.6872 4.5769-4.6872h15.937c10.974 0 21.34 7.4444 21.34 18.804 0 14.062-8.6025 19.355-18.969 19.741l-3.6946 0.11028 22.168 24.373c1.2131 1.2683 1.6543 2.316 1.6543 3.9152 0 1.8749-1.7095 3.3086-3.8601 3.3086-1.7645 0-2.9777-0.88229-3.9151-1.93l-26.634-29.171v26.524" fill="#22174b"/>
  <path d="m-1234-77.833c0-2.8123 1.6543-4.5769 4.3012-4.5769s4.3012 1.7646 4.3012 4.5769v41.358c0 10.974 7.4444 17.425 18.418 17.425 10.918 0 18.362-6.4518 18.362-17.425v-41.358c0-2.8123 1.6543-4.5769 4.3012-4.5769s4.3012 1.7646 4.3012 4.5769v38.049c0 23.491-15.054 28.178-26.965 28.178-11.966 0-27.02-4.6872-27.02-28.178v-38.049" fill="#22174b"/>
  <path d="m-1162.8-15.351c-0.386 3.0329-2.3711 3.6946-4.5769 3.6946-2.6468 0-4.0254-1.7646-4.0254-4.3563 0-0.99257 0.1654-2.2609 0.4963-3.9152l9.4848-55.971c0.8823-4.9077 3.5844-6.562 6.7275-6.562 3.4189 0 5.2938 1.2683 6.2864 4.5217l14.834 50.952h0.2206l14.888-50.952c0.9374-3.2534 2.8123-4.5217 6.2312-4.5217 3.1431 0 5.9003 1.6543 6.7826 6.562l9.4849 55.971c0.2757 1.6543 0.4963 2.9226 0.4963 3.9152 0 2.5918-1.3786 4.3563-4.0255 4.3563-2.2608 0-4.1909-0.66172-4.632-3.6946l-8.1063-55.971h-0.1654l-16.653 56.191c-0.8823 2.8123-2.4263 3.4741-4.4115 3.4741-1.93 0-3.5291-0.66172-4.4114-3.4741l-16.598-56.191h-0.2206l-8.1062 55.971" fill="#22174b"/>
  <path d="m-1068.5-74.787c0-4.8937 3.1283-7.6193 7.3406-7.6193s7.3406 2.7256 7.3406 7.6193v20.721h30.694v-20.721c0-4.8937 3.1283-7.6193 7.3406-7.6193 4.1814 0 7.3406 2.7256 7.3406 7.6193v55.534c0 4.8937-3.1592 7.6503-7.3406 7.6503-4.2123 0-7.3406-2.7566-7.3406-7.6503v-21.309h-30.694v21.309c0 4.8937-3.1283 7.6503-7.3406 7.6503s-7.3406-2.7566-7.3406-7.6503v-55.534" fill="#22174b"/>
  <path d="m-982.47-25.696h9.8804c12.606 0 18.367-9.2919 18.367-21.031 0-12.513-5.8539-21.619-19.358-21.619h-8.8892v42.65zm-14.681-48.597c0-4.4911 3.1283-7.5264 7.5574-7.5264h16.23c21.898 0 34.411 14.062 34.411 35.774 0 20.535-13.287 33.853-33.451 33.853h-17.004c-3.2212 0-7.7432-1.7655-7.7432-7.3406v-54.76" fill="#22174b"/>
 </g>
</svg>
