<svg width="800" height="106.88" space="preserve" version="1.1" viewBox="0 0 800 106.88" xmlns="http://www.w3.org/2000/svg">
 <defs>
  <linearGradient id="linearGradient930" x1="3.1481e-8" x2="800" y1="53.439" y2="53.439" gradientUnits="userSpaceOnUse">
   <stop stop-color="#45358b" offset="0"/>
   <stop stop-color="#9989bf" offset="1"/>
  </linearGradient>
 </defs>
 <link rel="stylesheet" type="text/css"/>
 <link rel="stylesheet" type="text/css"/>
 <style type="text/css"/>
 <g fill="url(#linearGradient930)" stroke-width="2.1049">
  <path d="m3.1481e-8 90.125 13.49-16.157c9.3373 7.7081 19.121 12.604 30.98 12.604 9.3394 0 14.972-3.7067 14.972-9.7877v-0.29679c0-5.7821-3.5572-8.7458-20.901-13.191-20.901-5.3338-34.39-11.118-34.39-31.718v-0.301c0-18.824 15.119-31.276 36.318-31.276 15.119 0 28.016 4.7444 38.54 13.191l-11.859 17.197c-9.1899-6.3757-18.232-10.228-26.98-10.228-8.7437 0-13.339 4.0014-13.339 9.0405v0.29679c0 6.8219 4.4455 9.0426 22.381 13.638 21.051 5.4853 32.91 13.046 32.91 31.133v0.29047c0 20.609-15.713 32.171-38.096 32.171-15.713 0-31.573-5.4874-44.026-16.605"/>
  <path d="m130.34 53.809c11.413 0 18.085-6.8198 18.085-15.713v-0.29679c0-10.228-7.1166-15.711-18.529-15.711h-17.639v31.721zm-40.913-52.325h42.394c24.756 0 39.728 14.675 39.728 35.871v0.29679c0 24.01-18.679 36.463-41.95 36.463h-17.342v31.131h-22.83z"/>
  <path d="m178.4 1.4843h78.268v20.308h-55.588v21.049h48.917v20.308h-48.917v21.788h56.329v20.31h-79.009z"/>
  <path d="m265.16 1.4843h22.827v45.358l42.1-45.358h27.572l-42.247 44.026 44.173 59.737h-27.422l-32.167-44.173-12.008 12.452v31.721h-22.827z"/>
  <path d="m388.51 22.53h-31.575v-21.049h85.976v21.049h-31.573v82.713h-22.827z"/>
  <path d="m496.32 51.881c11.116 0 17.494-5.9294 17.494-14.675v-0.29679c0-9.7835-6.8219-14.823-17.94-14.823h-22.678v29.795zm-45.952-50.399h47.433c13.195 0 23.419 3.7067 30.237 10.524 5.7821 5.78 8.8973 13.934 8.8973 23.718v0.29679c0 16.749-9.0426 27.275-22.236 32.167l25.347 37.059h-26.677l-22.238-33.205h-17.936v33.205h-22.827z"/>
  <path d="m543.34 60.775v-59.29h22.832v58.701c0 16.894 8.4469 25.64 22.379 25.64 13.941 0 22.383-8.4448 22.383-24.903v-59.438h22.83v58.549c0 31.424-17.641 46.84-45.508 46.84-27.864 0-44.916-15.561-44.916-46.099"/>
  <path d="m755.08 1.4843c-14.391 0-26.018 4.1466-33.937 12.45-7.7649-8.249-19.251-12.45-33.668-12.45-27.864 0-45.505 15.416-45.505 46.842v58.551h22.825v-59.44c0-16.454 8.449-24.905 22.383-24.905 13.932 0 22.383 8.7458 22.383 25.646v58.699h22.842v-59.44c0-16.454 8.4448-24.905 22.379-24.905s22.383 8.7458 22.383 25.646v58.699h22.83v-59.292c0-30.536-17.05-46.101-44.916-46.101"/>
 </g>
</svg>
