<svg width="1338.7pt" height="669.4pt" version="1.1" viewBox="0 0 1338.7 669.4" xmlns="http://www.w3.org/2000/svg">
 <g transform="translate(-31.3 -40.6)">
  <path d="m31.3 40.6h390.76c-50 10.24-95.94 38.75-129 77.49-35.52 41.54-55.93 95.92-55.78 150.62h153.31c0.43-3.7 0.83-7.4098 1.28-11.11 2.59-16.12 10.04-31.55 21.5-43.23 11.73-12.47 27.61-20.97 44.48-23.83 17.75-3.15 36.53-0.14 52.39 8.46 16.39 8.71 29.42 23.37 36.46 40.51 5.58 13.34 7.12 28.19 5.2 42.48-2.31 17.03-10.47 33.21-22.76 45.22-6.26 6.47-13.74 11.55-20.7 17.22-90.28 71.16-180.77 142.21-270.98 213.46v152.11h-206.16z" fill="#f5931e"/>
 </g>
 <g transform="translate(-31.3 -40.525)" fill="#ffc93f">
  <path d="m681.84 375.73c8.43-16.14 13.98-33.56 18.6-51.11h669.56v233.63h-880.79c2.23-3.16 5.67-5.0704 8.54-7.5604 37.93-30.74 75.95-61.38 113.85-92.14 28.19-22.96 53.77-50.12 70.24-82.82"/>
  <path d="m1009.3 400.3c7.23 0.12 14.47-0.07 21.7 0.09 4.8 0.12 8.93 3.38 11.3 7.39 4.15 7.57 0.12 18.42-8.39 20.72-4.31 0.19-8.62 1.03-12.92 0.28-3.93-0.62-7.93 1.2-11.75-0.06 0.09-9.48-0.03-18.95 0.06-28.42z"/>
  <path d="m1254.6 400.65c7.1-0.72 14.31-0.14 21.46-0.3 5.38-0.19 10.19 3.48 12.44 8.2 3.73 7.71-0.83 18.2-9.36 20.04-5.3952-0.55393-21.497 2.0858-24.56-0.32 0.18-9.2 0.13-18.41 0.02-27.62z"/>
 </g>
 <path d="m700.11 339.81c12.61-11.01 30.48-13.87 46.66-11.96 12.7 0.8 25.54 4.91 35.24 13.41 0.92 0.97 3.57 2.15 2.16 3.74l-19.91 20.17c-2.34 0.35-3.63-2.05-5.46-3.03-8.09-5.1-17.96-4.75-27.13-4.2-6.59 0.87-12.94 6.54-12.33 13.58 0.59 6.11 6.81 9.67 12.42 10.2 8.4 0.75 16.75 2.1 25.03 3.74 9.22 2.24 18.5 6.77 23.92 14.86 6.1 8.73 6.98 19.87 6.57 30.2-0.73 14.61-10.56 27.75-23.52 34.08-15.97 8.3-34.7 7.48-51.99 5.09-12.1-2.33-24.47-7.47-32.46-17.15l22.29-21.82c5.39 5.89 13.48 7.85 21.05 9.15 8.15 0.32 16.81 1.69 24.49-1.9 8.2-3.51 8.37-17.35 0.19-20.94-4.63-1.9-9.75-1.71-14.59-2.73-12.68-1.37-26.44-3.66-36.09-12.76-8.11-7.24-10.98-18.61-10.65-29.14-0.62-12.28 4.77-24.61 14.11-32.59z" fill="#fff"/>
 <path d="m809.07 329.07h35.1c-0.26 30.79-0.08 61.58-0.1 92.36-0.29 6.89 3.24 14.15 9.6 17.21 3.64 2.07 7.99 1.5 12 1.52 6.93-0.02 12.91-5.41 15.06-11.78 1.74-6.5 1.12-13.26 1.22-19.9-0.02-26.56 0.03-52.84-0.03-79.41h34.43c-0.1 32.57 0.12 64.87-0.11 97.44-1.14 15.89-11.44 30.57-25.4 38.02-11.82 6.58-25.88 7.94-39.1 5.98-14.63-2.59-28.56-11.14-35.93-24.27-4.22-6.84-5.94-14.85-6.59-22.76-0.13-31.46 0.17-62.95-0.15-94.41z" fill="#fff"/>
 <path d="m943.09 328.82c19.2-0.05 38.39-0.0201 57.59-0.0201 16.76-0.34 33.9 8.8 41.47 24.06 9.04 16.76 6.14 39.17-7.36 52.73-9.23 9.84-22.95 14.18-36.17 14.24-6.89-0.05-13.77 0.01-20.66-0.05l0.04 50.32h-34.91v-141.28m34.84 30.95v28.42h24.67c8.51-2.3 12.54-13.37 8.39-20.94-2.37-4.01-6.5-7.3596-11.3-7.4796z" fill="#fff"/>
 <path d="m1067.9 328.82h96.05v30.11h-61.62v25.02h52.95l-0.05 30.1h-52.9v25h61.62v31.05h-96.05z" fill="#fff"/>
 <path d="m1188.9 328.82h47.75c7.01 0.22 14.17-0.7101 21.03 1.1499 10.88 2.43 21.07 8.8 27.38 18.09 9.52 13.62 11.21 32.94 2.23 47.28-4.05 6.87-10.36 12.02-17.14 16.03l30.36 58.73h-40.15l-24.64-52.26h-12.42l0.01 52.26h-34.41v-141.28m34.41 31.3v27.62h24.47c8.53-1.84 13.09-12.01 9.36-19.72-2.25-4.72-7.06-8.0902-12.44-7.9002z" fill="#fff"/>
</svg>
