<svg width="800" height="478.01" version="1.1" viewBox="0 0 800 478.01" xml:space="preserve" xmlns="http://www.w3.org/2000/svg"><defs><clipPath id="clipPath18"><path d="m184.54 743.61c-10.686-1.885-21.334-6.368-31.951-13.441-12.76-8.665-24.008-19.003-33.753-31.01-18.346-22.968-25.582-45.43-21.712-67.383 1.636-9.28 6.003-18.258 13.101-26.928 6.345-7.839 13.972-16.416 22.881-25.743 5.779-6.003 10.178-11.036 13.194-15.105 2.879-3.971 4.795-8.661 5.749-14.055 1.551-8.805-0.805-16.727-7.067-23.761-10.029-11.1-22.793-18.004-38.293-20.745-7.75-1.365-14.459-0.732-20.128 1.902-6.617 3.191-10.582 8.542-11.909 16.064-1.657 9.386 2.244 16.797 11.696 22.218 5.517 3.033 7.939 6.482 7.254 10.354-0.909 5.167-4.537 7.19-10.875 6.071-2.584-0.454-5.678-1.789-9.285-4-5.26-3.098-9.575-7.133-12.934-12.083-5.589-8.128-7.488-17.295-5.686-27.514 1.613-9.162 6.627-16.63 15.029-22.412 11.143-7.601 25.109-9.918 41.902-6.961 17.02 2.999 31.499 10.155 43.43 21.46 13.967 13.486 19.725 27.152 17.287 41.01-1.267 7.16-4.796 14.466-10.586 21.921-4.985 6.263-10.886 12.968-17.713 20.115-7.125 7.463-13.102 14.212-17.919 20.266-5.816 7.566-9.417 15.284-10.802 23.15-1.905 10.805 0.248 22.623 6.461 35.463 7.074 14.799 18.094 27.822 33.063 39.061 11.107 8.372 20.716 13.277 28.817 14.703 3.051 0.543 5.841 0.18 8.36-1.066 3.194-1.616 5.09-4.131 5.688-7.534 1.551-8.804-3.68-20.322-15.699-34.545-9.307-11.083-20.617-20.4-33.935-27.958-7.265-4.065-10.52-8.266-9.757-12.616 0.334-1.879 1.339-3.456 3.015-4.734 2.508-1.857 5.109-2.547 7.81-2.069 4.107 0.721 9.804 3.784 17.086 9.183 14.536 10.921 26.666 23.827 36.384 38.739 10.281 15.856 14.387 29.654 12.316 41.395-1.329 7.511-5.308 12.928-11.945 16.23-3.796 1.943-7.948 2.916-12.456 2.916-1.971 0-4.011-0.186-6.118-0.558"/></clipPath><linearGradient id="linearGradient54" x2="1" gradientTransform="matrix(438.78 334.39 334.39 -438.78 .28027 503.14)" gradientUnits="userSpaceOnUse"><stop stop-color="#f5f575" offset="0"/><stop stop-color="#c49345" offset=".04"/><stop stop-color="#3f2811" offset=".14"/><stop stop-color="#9b692b" offset=".21"/><stop stop-color="#f5f575" offset=".29"/><stop stop-color="#e09340" offset=".36"/><stop stop-color="#3f2811" offset=".53824"/><stop stop-color="#c49345" offset=".58924"/><stop stop-color="#f5f575" offset=".64023"/><stop stop-color="#c89841" offset=".70255"/><stop stop-color="#f7f576" offset=".76204"/><stop stop-color="#c49345" offset=".83003"/><stop stop-color="#3f2811" offset=".91218"/><stop stop-color="#c49345" offset=".96034"/><stop stop-color="#f7f576" offset="1"/></linearGradient><clipPath id="clipPath64"><path d="m183.87 747.41c-11.16-1.97-22.401-6.689-33.446-14.056-13.004-8.83-24.641-19.519-34.601-31.791-18.978-23.763-26.553-47.47-22.497-70.458 1.742-9.896 6.424-19.552 13.902-28.685 6.366-7.867 14.135-16.607 23.097-25.985 5.63-5.849 9.965-10.807 12.853-14.696 2.518-3.479 4.228-7.67 5.073-12.465 1.349-7.651-0.663-14.366-6.133-20.503-9.384-10.387-21.53-16.958-36.099-19.531-6.911-1.233-12.939-0.676-17.782 1.57-5.478 2.65-8.681 6.988-9.788 13.263-1.375 7.793 1.742 13.574 9.757 18.17 8.841 4.86 9.878 10.516 9.191 14.399-1.268 7.217-6.874 10.7-15.337 9.206-3.084-0.545-6.564-2.015-10.576-4.473-5.732-3.386-10.5-7.84-14.158-13.228-6.156-8.956-8.28-19.171-6.303-30.366 1.794-10.171 7.389-18.555 16.65-24.93 8.636-5.892 18.933-8.873 30.609-8.873 4.473 0 9.228 0.437 14.138 1.304 17.696 3.119 32.978 10.674 45.44 22.479 14.879 14.367 21.07 29.319 18.405 44.455-1.368 7.75-5.185 15.699-11.364 23.652-5.053 6.344-11.091 13.203-17.942 20.383-7.047 7.376-12.999 14.104-17.65 19.947-5.405 7.035-8.791 14.261-10.062 21.472-1.753 9.937 0.31 21.078 6.139 33.129 6.772 14.171 17.507 26.835 31.907 37.644 10.573 7.969 19.71 12.67 27.17 13.988 2.236 0.39 4.201 0.15 5.943-0.709 2.124-1.076 3.244-2.546 3.634-4.767 1.337-7.582-3.656-18.142-14.852-31.396-8.97-10.678-20.032-19.791-32.863-27.07-8.822-4.935-12.749-10.54-11.672-16.654 0.507-2.855 2.011-5.253 4.513-7.161 3.353-2.484 7.037-3.431 10.774-2.771 4.752 0.838 10.872 4.073 18.735 9.9 14.837 11.151 27.388 24.513 37.304 39.724 10.782 16.63 15.113 31.487 12.876 44.164-1.544 8.752-6.262 15.148-13.988 18.996-4.335 2.217-9.115 3.335-14.246 3.335-2.189-1e-3 -4.442-0.204-6.751-0.612m-76.512-245.77c16.298 2.88 29.919 10.263 40.498 21.976 7.061 7.926 9.749 17.008 7.989 26.997-1.053 5.956-3.214 11.213-6.447 15.683-3.112 4.191-7.658 9.399-13.507 15.473-8.806 9.218-16.433 17.799-22.681 25.523-6.648 8.112-10.78 16.57-12.293 25.146-3.648 20.715 3.392 42.353 20.914 64.287 9.465 11.665 20.545 21.844 32.897 30.231 10.123 6.75 20.378 11.073 30.48 12.853 6.057 1.065 11.451 0.411 16.185-2.007 5.526-2.757 8.755-7.154 9.865-13.448 1.889-10.696-2.068-23.694-11.747-38.625-9.42-14.451-21.354-27.153-35.452-37.746-8.422-6.247-13.055-8.064-15.46-8.486-1.613-0.29-3.195 0.151-4.801 1.34-1.179 0.899-1.452 1.768-1.554 2.336-0.584 3.323 4.665 6.805 7.866 8.596 13.651 7.745 25.423 17.444 34.975 28.821 12.916 15.287 18.326 27.62 16.551 37.703-0.809 4.582-3.482 8.146-7.777 10.321-3.254 1.609-6.901 2.089-10.735 1.408-8.791-1.549-18.757-6.592-30.466-15.414-15.398-11.561-26.914-25.184-34.224-40.465-6.541-13.529-8.822-26.249-6.782-37.814 1.487-8.447 5.374-16.804 11.579-24.883 4.841-6.079 10.945-12.981 18.15-20.525 6.694-7.011 12.575-13.692 17.453-19.825 5.38-6.913 8.688-13.723 9.838-20.22 2.222-12.628-3.066-24.913-16.144-37.541-11.322-10.725-25.265-17.609-41.447-20.459-15.691-2.761-28.822-0.638-39.047 6.336-7.587 5.224-11.978 11.731-13.416 19.905-1.633 9.261 0.023 17.328 5.076 24.678 3.025 4.456 6.965 8.135 11.762 10.967 3.181 1.948 5.849 3.122 7.939 3.485 0.901 0.162 1.729 0.243 2.458 0.243 2.565 0 3.526-0.776 3.95-3.189 0.361-2.044-1.428-4.164-5.371-6.335-13.667-7.836-14.93-18.593-13.577-26.237 1.547-8.773 6.268-15.119 14.082-18.89 4.233-1.966 8.993-2.954 14.204-2.954 2.627 0 5.37 0.251 8.217 0.755"/></clipPath><linearGradient id="linearGradient100" x2="1" gradientTransform="matrix(212.17 161.69 161.69 -212.17 36.186 530.5)" gradientUnits="userSpaceOnUse"><stop stop-color="#f5f575" offset="0"/><stop stop-color="#c49345" offset=".04"/><stop stop-color="#3f2811" offset=".14"/><stop stop-color="#9b692b" offset=".21"/><stop stop-color="#f5f575" offset=".29"/><stop stop-color="#e09340" offset=".36"/><stop stop-color="#3f2811" offset=".53824"/><stop stop-color="#c49345" offset=".58924"/><stop stop-color="#f5f575" offset=".64023"/><stop stop-color="#c89841" offset=".70255"/><stop stop-color="#f7f576" offset=".76204"/><stop stop-color="#c49345" offset=".83003"/><stop stop-color="#3f2811" offset=".91218"/><stop stop-color="#c49345" offset=".96034"/><stop stop-color="#f7f576" offset="1"/></linearGradient><clipPath id="clipPath110"><path d="m243.66 631.83c-11.272-1.988-23.114-12.069-35.525-30.234-15.315-22.307-21.226-43.387-17.727-63.226 1.286-7.283 4.006-12.73 8.155-16.356 6.122-5.222 13.586-7.053 22.393-5.499 8.572 1.511 17.374 5.849 26.402 13.015 9.023 7.157 17.183 15.794 24.478 25.922 9.345 12.903 13.616 21.643 12.808 26.23-0.144 0.818-0.653 1.63-1.525 2.451-1.279 1.101-2.572 1.548-3.859 1.315-2.347-0.411-4.886-2.86-7.608-7.332-15.281-25.938-30.258-40.201-44.933-42.784-6.692-1.183-11.888 0.142-15.59 3.968-1.625 1.647-2.66 3.765-3.118 6.352l-0.556 3.164c22.568 11.366 38.127 27.481 46.673 48.362 4.158 10.047 5.691 18.192 4.595 24.412-0.706 3.991-2.8 6.952-6.288 8.882-2.044 1.05-4.149 1.574-6.326 1.574-0.806 0-1.623-0.072-2.449-0.216m-15.782-28.929c4.829 5.569 8.767 8.621 11.822 9.161 2.227 0.394 3.553-0.585 3.97-2.928 0.392-2.233-0.043-4.911-1.308-8.037-3.407-8.833-8.662-17.143-15.762-24.932-4.076-4.352-9.973-8.665-17.697-12.925 3.983 16.556 10.304 29.775 18.975 39.661"/></clipPath><linearGradient id="linearGradient146" x2="1" gradientTransform="matrix(438.77 334.38 334.38 -438.77 51.979 435.31)" gradientUnits="userSpaceOnUse"><stop stop-color="#f5f575" offset="0"/><stop stop-color="#c49345" offset=".04"/><stop stop-color="#3f2811" offset=".14"/><stop stop-color="#9b692b" offset=".21"/><stop stop-color="#f5f575" offset=".29"/><stop stop-color="#e09340" offset=".36"/><stop stop-color="#3f2811" offset=".53824"/><stop stop-color="#c49345" offset=".58924"/><stop stop-color="#f5f575" offset=".64023"/><stop stop-color="#c89841" offset=".70255"/><stop stop-color="#f7f576" offset=".76204"/><stop stop-color="#c49345" offset=".83003"/><stop stop-color="#3f2811" offset=".91218"/><stop stop-color="#c49345" offset=".96034"/><stop stop-color="#f7f576" offset="1"/></linearGradient><clipPath id="clipPath156"><path d="m242.99 635.63c-12.448-2.195-24.894-12.615-38.039-31.847-15.833-23.069-22.003-45.303-18.341-66.079 1.434-8.131 4.601-14.387 9.45-18.626 5.416-4.612 11.828-6.954 19.051-6.952 2.09 0 4.285 0.197 6.509 0.59 9.176 1.617 18.638 6.263 28.132 13.795 9.263 7.345 17.743 16.325 25.204 26.679 13.273 18.329 14.181 25.214 13.482 29.164-0.291 1.65-1.189 3.187-2.806 4.706-2.176 1.872-4.652 2.616-7.041 2.189-3.575-0.63-6.829-3.526-10.261-9.172-14.612-24.804-28.839-38.58-42.282-40.944-5.374-0.956-9.347-0.044-12.174 2.878-1.07 1.084-1.745 2.494-2.066 4.31l-0.067 0.379c21.961 11.675 37.41 28.154 45.95 49.005 4.486 10.843 6.063 19.531 4.826 26.559-0.901 5.107-3.746 9.114-8.315 11.632-2.583 1.334-5.303 2.007-8.101 2.007-1.027 0-2.065-0.091-3.111-0.273m-41.895-110.71c-3.452 3.012-5.769 7.763-6.888 14.121-3.3 18.717 2.452 39.031 17.109 60.38 11.746 17.195 22.856 26.822 33.008 28.608 0.604 0.106 1.207 0.161 1.785 0.161 1.569 0 3.056-0.376 4.462-1.099 2.468-1.362 3.849-3.324 4.352-6.173 0.965-5.46-0.503-12.952-4.367-22.28-8.144-19.89-23.225-35.497-44.84-46.379l-2.556-1.286 1.056-5.991c0.591-3.367 1.995-6.187 4.139-8.362 4.602-4.755 11.041-6.492 19.033-5.091 15.989 2.821 31.554 17.415 47.557 44.582 3.139 5.165 4.905 5.527 4.962 5.543 3e-3 0 0.235-0.05 0.566-0.327 0.242-0.228 0.376-0.39 0.382-0.383 0.196-1.348-0.225-6.775-12.145-23.239-7.054-9.791-15.045-18.251-23.753-25.155-8.476-6.729-16.777-10.844-24.667-12.239-1.808-0.32-3.539-0.48-5.198-0.48-5.384 1e-3 -10.004 1.687-13.997 5.089m37.934 90.938c-4.045-0.712-8.51-4.029-14.051-10.416-9.043-10.306-15.713-24.2-19.827-41.305l-2.045-8.506 7.66 4.231c8.036 4.436 14.311 9.033 18.681 13.704 7.39 8.108 12.946 16.901 16.487 26.083 1.555 3.851 2.053 7.171 1.528 10.154-0.805 4.571-4.072 6.2-6.858 6.2-0.494 0-1.018-0.042-1.575-0.145m1.575-7.563v3.857l6e-3 -3.861c-3e-3 0-6e-3 4e-3 -6e-3 4e-3m-9.814-7.919c5.009 5.773 7.839 7.349 9.125 7.771 0.159-1.446-0.23-3.381-1.151-5.667-3.22-8.341-8.272-16.323-14.983-23.68-2.21-2.363-5.059-4.75-8.508-7.133 3.773 11.62 8.973 21.245 15.517 28.709"/></clipPath><linearGradient id="linearGradient192" x2="1" gradientTransform="matrix(93.691 71.402 71.402 -93.691 183.11 535.27)" gradientUnits="userSpaceOnUse"><stop stop-color="#f5f575" offset="0"/><stop stop-color="#c49345" offset=".04"/><stop stop-color="#3f2811" offset=".14"/><stop stop-color="#9b692b" offset=".21"/><stop stop-color="#f5f575" offset=".29"/><stop stop-color="#e09340" offset=".36"/><stop stop-color="#3f2811" offset=".53824"/><stop stop-color="#c49345" offset=".58924"/><stop stop-color="#f5f575" offset=".64023"/><stop stop-color="#c89841" offset=".70255"/><stop stop-color="#f7f576" offset=".76204"/><stop stop-color="#c49345" offset=".83003"/><stop stop-color="#3f2811" offset=".91218"/><stop stop-color="#c49345" offset=".96034"/><stop stop-color="#f7f576" offset="1"/></linearGradient><clipPath id="clipPath202"><path d="m367.22 645.81c-8.336-1.475-22.669-16.346-42.976-44.619-1.159-1.657-2.382-3.321-3.653-5.004 2.009 6.404 4.86 13.626 8.525 21.656 2.552 5.415 3.608 9.411 3.145 11.997-0.373 2.112-1.521 3.847-3.455 5.199-1.659 1.157-3.249 1.61-4.775 1.339-3.168-0.557-6.418-4.465-9.736-11.707-3.306-7.363-7.548-19.006-12.729-34.92-9.704-29.439-13.994-47.321-12.878-53.663 0.457-2.583 1.65-4.552 3.582-5.904 1.544-1.18 3.311-1.594 5.302-1.246 3.996 0.709 7.21 4.473 9.636 11.322 9.157 28.368 20.824 49.068 34.985 62.099-8.582-21.369-11.474-39.976-8.675-55.82 1.446-8.221 4.265-14.931 8.45-20.119 4.364-5.522 8.946-7.872 13.761-7.013 2.115 0.37 3.799 1.513 5.032 3.421 1.179 1.541 1.647 3.015 1.399 4.427-0.273 1.521-1.468 3.492-3.586 5.908-4.558 5.245-7.401 11.1-8.546 17.554-3.509 19.96 3.626 45.003 21.436 75.138 3.261 5.536 4.579 10.073 3.956 13.591-0.764 4.35-2.898 6.531-6.411 6.531-0.561 0-1.158-0.056-1.789-0.167"/></clipPath><linearGradient id="linearGradient238" x2="1" gradientTransform="matrix(438.78 334.4 334.4 -438.78 89.074 386.62)" gradientUnits="userSpaceOnUse"><stop stop-color="#f5f575" offset="0"/><stop stop-color="#c49345" offset=".04"/><stop stop-color="#3f2811" offset=".14"/><stop stop-color="#9b692b" offset=".21"/><stop stop-color="#f5f575" offset=".29"/><stop stop-color="#e09340" offset=".36"/><stop stop-color="#3f2811" offset=".53824"/><stop stop-color="#c49345" offset=".58924"/><stop stop-color="#f5f575" offset=".64023"/><stop stop-color="#c89841" offset=".70255"/><stop stop-color="#f7f576" offset=".76204"/><stop stop-color="#c49345" offset=".83003"/><stop stop-color="#3f2811" offset=".91218"/><stop stop-color="#c49345" offset=".96034"/><stop stop-color="#f7f576" offset="1"/></linearGradient><clipPath id="clipPath248"><path d="m366.56 649.6c-4.937-0.871-13.376-5.006-31.682-27.91 1.223 3.584 1.606 6.45 1.192 8.811-0.551 3.101-2.295 5.762-5.051 7.69-2.503 1.754-5.112 2.427-7.656 1.977-4.602-0.813-8.598-5.227-12.585-13.927-3.339-7.438-7.671-19.317-12.877-35.294-13.312-40.397-13.799-51.041-13.007-55.535 0.639-3.617 2.378-6.441 5.036-8.296 2.402-1.84 5.25-2.529 8.319-1.978 5.445 0.964 9.687 5.615 12.633 13.932 6.034 18.687 13.214 34.041 21.444 45.894-3.778-14.397-4.651-27.495-2.602-39.105 1.555-8.82 4.666-16.179 9.223-21.838 4.532-5.742 9.533-8.654 14.872-8.654 0.855 0 1.726 0.081 2.579 0.228 3.116 0.55 5.713 2.276 7.516 5.003 1.793 2.393 2.484 4.854 2.043 7.32-0.4 2.272-1.826 4.747-4.466 7.765-4.073 4.682-6.647 9.964-7.661 15.695-3.333 18.938 3.714 43.33 20.956 72.513 3.781 6.415 5.228 11.721 4.436 16.217-1.545 8.774-7.654 9.717-10.21 9.717-0.783 0-1.607-0.075-2.452-0.225m-42.894-55.747c1.304 1.72 2.561 3.428 3.713 5.084 25.709 35.787 36.42 42.345 40.519 43.069 0.392 0.067 0.766 0.108 1.114 0.108 0.854 0 2.031 0 2.615-3.348 0.312-1.769-0.034-5.109-3.478-10.956-18.203-30.805-25.579-56.968-21.914-77.769 1.265-7.13 4.437-13.662 9.443-19.427 2.403-2.743 2.664-3.913 2.684-4.035 0.039-0.208-0.113-0.7-0.658-1.415l-0.172-0.245c-0.654-1.008-1.413-1.541-2.474-1.725-3.306-0.581-6.634 1.261-10.084 5.638-3.759 4.662-6.33 10.842-7.652 18.365-2.657 15.052 0.189 33.127 8.449 53.714l6.346 15.805-12.528-11.53c-14.596-13.419-26.725-34.867-36.012-63.645-1.317-3.714-3.543-8.26-6.672-8.809-0.869-0.152-1.542-0.059-2.418 0.605-1.084 0.759-1.721 1.844-2.002 3.414-0.56 3.195 0.347 14.171 12.748 51.797 5.122 15.725 9.356 27.349 12.568 34.511 4.024 8.773 6.62 9.464 7.096 9.53 0.441 0 1.032-0.248 1.7-0.714 1.1-0.772 1.679-1.606 1.874-2.716 0.142-0.797 0.144-3.342-2.853-9.719-3.739-8.166-6.658-15.6-8.702-22.104l-6.653-21.17z"/></clipPath><linearGradient id="linearGradient284" x2="1" gradientTransform="matrix(112.76 85.932 85.932 -112.76 283.42 534.74)" gradientUnits="userSpaceOnUse"><stop stop-color="#f5f575" offset="0"/><stop stop-color="#c49345" offset=".04"/><stop stop-color="#3f2811" offset=".14"/><stop stop-color="#9b692b" offset=".21"/><stop stop-color="#f5f575" offset=".29"/><stop stop-color="#e09340" offset=".36"/><stop stop-color="#3f2811" offset=".53824"/><stop stop-color="#c49345" offset=".58924"/><stop stop-color="#f5f575" offset=".64023"/><stop stop-color="#c89841" offset=".70255"/><stop stop-color="#f7f576" offset=".76204"/><stop stop-color="#c49345" offset=".83003"/><stop stop-color="#3f2811" offset=".91218"/><stop stop-color="#c49345" offset=".96034"/><stop stop-color="#f7f576" offset="1"/></linearGradient><clipPath id="clipPath294"><path d="m451.77 668.88c-2.591-0.455-5.626-1.417-9.115-2.877-9.124-3.91-18.732-6.751-28.818-8.535-3.881-0.677-6.79-1.01-8.729-0.988-4.966-0.032-8.143-0.166-9.556-0.413-1.647-0.295-2.995-1.199-4.062-2.713-1.155-1.659-1.553-3.543-1.172-5.659 1.172-6.69 7.401-9.043 18.669-7.054 4.695 0.821 13.309 3.127 25.836 6.912-16.585-18.537-31.609-40.075-45.08-64.599-8.938-16.59-12.986-27.289-12.132-32.103 0.348-1.998 1.609-3.649 3.775-4.957 2.308-1.411 4.817-1.871 7.513-1.401 2.111 0.371 6.071 2.647 11.873 6.811 8.176 5.796 17.259 9.583 27.236 11.34 2.35 0.416 4.813 0.488 7.401 0.214 4.418-0.311 7.27-0.351 8.566-0.125 2.108 0.373 3.834 1.588 5.165 3.635 1.334 2.053 1.82 4.138 1.447 6.251-1.253 7.045-8.684 9.363-22.302 6.962-8.101-1.427-17.168-4.908-27.213-10.428 4.14 10.172 10.74 22.167 19.806 35.996 6.43 9.483 17.938 23.557 34.5 42.217 5.767 5.739 8.31 10.544 7.628 14.414-0.393 2.231-1.492 3.979-3.287 5.238-1.824 1.36-3.825 2.038-5.992 2.038-0.638 0-1.29-0.059-1.957-0.176"/></clipPath><linearGradient id="linearGradient330" x2="1" gradientTransform="matrix(438.77 334.39 334.39 -438.77 103.22 368.08)" gradientUnits="userSpaceOnUse"><stop stop-color="#f5f575" offset="0"/><stop stop-color="#c49345" offset=".04"/><stop stop-color="#3f2811" offset=".14"/><stop stop-color="#9b692b" offset=".21"/><stop stop-color="#f5f575" offset=".29"/><stop stop-color="#e09340" offset=".36"/><stop stop-color="#3f2811" offset=".53824"/><stop stop-color="#c49345" offset=".58924"/><stop stop-color="#f5f575" offset=".64023"/><stop stop-color="#c89841" offset=".70255"/><stop stop-color="#f7f576" offset=".76204"/><stop stop-color="#c49345" offset=".83003"/><stop stop-color="#3f2811" offset=".91218"/><stop stop-color="#c49345" offset=".96034"/><stop stop-color="#f7f576" offset="1"/></linearGradient><clipPath id="clipPath340"><path d="m451.1 672.68c-2.894-0.511-6.142-1.528-9.967-3.13-8.802-3.769-18.211-6.556-27.971-8.279-3.526-0.622-6.176-0.934-8.069-0.934h-0.01c-6.947-0.039-9.144-0.287-10.208-0.472-2.638-0.471-4.898-1.958-6.545-4.305-1.741-2.489-2.365-5.439-1.814-8.527 0.717-4.081 3.682-10.93 15.525-10.93 2.27 0 4.828 0.247 7.615 0.741 3.094 0.542 7.657 1.657 13.813 3.376-13.432-16.384-25.884-34.975-37.122-55.435-12.445-23.11-13.238-30.629-12.538-34.592 0.37-2.153 1.65-5.218 5.566-7.588 2.334-1.424 4.86-2.145 7.518-2.145 0.876 0 1.775 0.083 2.675 0.238 1.873 0.331 5.101 1.478 13.431 7.461 7.682 5.444 16.314 9.039 25.676 10.69 2.005 0.353 3.925 0.431 6.468 0.165 4.824-0.337 7.773-0.374 9.495-0.073 3.155 0.55 5.825 2.392 7.732 5.327 1.876 2.889 2.556 5.924 2.008 9.027-0.89 5.046-4.552 11.062-16.906 11.062-2.875 0-6.193-0.326-9.862-0.973-5.704-1.008-11.901-2.993-18.506-5.921 3.835 7.653 8.852 16.202 14.961 25.523 6.309 9.298 17.816 23.373 34.035 41.649 6.77 6.745 9.619 12.571 8.697 17.825-0.573 3.216-2.253 5.884-4.778 7.655-2.491 1.856-5.299 2.8-8.293 2.8-0.861 0-1.738-0.078-2.626-0.235m-56.987-24.301c-0.204 1.096-0.034 1.953 0.531 2.753 0.601 0.865 1.136 1.064 1.569 1.137 0.677 0.119 2.728 0.321 9.059 0.354 2.18 0 5.194 0.344 9.227 1.052 10.349 1.826 20.331 4.783 29.646 8.772 3.212 1.35 6.006 2.235 8.292 2.642 1.83 0.319 3.432-0.011 5.063-1.227 0.966-0.673 1.488-1.522 1.714-2.743 0.248-1.43-0.28-4.761-6.716-11.189-16.606-18.703-28.316-33.04-34.848-42.664-9.16-13.969-15.933-26.302-20.148-36.659l-4.098-10.066 9.524 5.239c9.635 5.292 18.387 8.658 26.027 10.01 3.221 0.565 6.088 0.855 8.517 0.855 8.484 0 9.067-3.292 9.315-4.692 0.125-0.716 0.171-1.861-0.883-3.48-0.977-1.5-1.949-1.826-2.595-1.937-0.112-0.02-0.592-0.087-1.829-0.087-1.414 0-3.371 0.087-5.662 0.249-2.938 0.31-5.789 0.224-8.479-0.252-10.494-1.853-20.185-5.888-28.821-12.008-7.607-5.464-9.905-6.076-10.287-6.146-1.759-0.302-3.322-0.027-4.85 0.905-1.573 0.95-1.883 1.778-1.976 2.329-0.315 1.772 0.201 8.203 11.716 29.574 13.275 24.165 28.267 45.659 44.575 63.882l9.153 10.237-13.144-3.971c-12.31-3.724-20.853-6.014-25.386-6.81-2.351-0.416-4.466-0.625-6.278-0.625-7.13 0-7.666 3.073-7.928 4.566"/></clipPath><linearGradient id="linearGradient376" x2="1" gradientTransform="matrix(114.94 87.597 87.597 -114.94 361.29 564.75)" gradientUnits="userSpaceOnUse"><stop stop-color="#f5f575" offset="0"/><stop stop-color="#c49345" offset=".04"/><stop stop-color="#3f2811" offset=".14"/><stop stop-color="#9b692b" offset=".21"/><stop stop-color="#f5f575" offset=".29"/><stop stop-color="#e09340" offset=".36"/><stop stop-color="#3f2811" offset=".53824"/><stop stop-color="#c49345" offset=".58924"/><stop stop-color="#f5f575" offset=".64023"/><stop stop-color="#c89841" offset=".70255"/><stop stop-color="#f7f576" offset=".76204"/><stop stop-color="#c49345" offset=".83003"/><stop stop-color="#3f2811" offset=".91218"/><stop stop-color="#c49345" offset=".96034"/><stop stop-color="#f7f576" offset="1"/></linearGradient><clipPath id="clipPath386"><path d="m520.02 745.2c-3.647-0.64-7.333-3.715-11.082-9.219-5.108-7.439-7.166-13.972-6.165-19.608 0.39-2.231 1.419-3.989 3.096-5.264 1.706-1.398 3.671-1.896 5.899-1.502 4.577 0.807 8.827 4.519 12.74 11.143 4.117 6.895 5.736 12.816 4.861 17.743-0.81 4.607-3.198 6.913-7.16 6.912-0.683 0-1.413-0.068-2.189-0.205m-21.935-71.241c-2.233-0.39-4.208-1.891-5.936-4.496-1.742-2.48-4.17-7.21-7.308-14.18-9.787-21.335-16.232-40.388-19.331-57.153-3.996-21.29-5.681-33.688-5.063-37.21 0.309-1.76 1.253-3.294 2.807-4.589 1.744-1.629 3.788-2.239 6.136-1.823 3.99 0.703 6.407 4.153 7.253 10.356 1.882 14.018 4.477 27.782 7.783 41.318 3.014 13.119 8.951 30.209 17.835 51.267 2.537 5.533 3.618 9.354 3.249 11.47-0.234 1.286-0.931 2.497-2.098 3.622-1.22 1.021-2.58 1.531-4.075 1.531-0.407 0-0.825-0.038-1.252-0.113"/></clipPath><linearGradient id="linearGradient422" x2="1" gradientTransform="matrix(438.77 334.39 334.39 -438.77 111.11 357.72)" gradientUnits="userSpaceOnUse"><stop stop-color="#f5f575" offset="0"/><stop stop-color="#c49345" offset=".04"/><stop stop-color="#3f2811" offset=".14"/><stop stop-color="#9b692b" offset=".21"/><stop stop-color="#f5f575" offset=".29"/><stop stop-color="#e09340" offset=".36"/><stop stop-color="#3f2811" offset=".53824"/><stop stop-color="#c49345" offset=".58924"/><stop stop-color="#f5f575" offset=".64023"/><stop stop-color="#c89841" offset=".70255"/><stop stop-color="#f7f576" offset=".76204"/><stop stop-color="#c49345" offset=".83003"/><stop stop-color="#3f2811" offset=".91218"/><stop stop-color="#c49345" offset=".96034"/><stop stop-color="#f7f576" offset="1"/></linearGradient><clipPath id="clipPath432"><path d="m519.35 749c-4.744-0.835-9.194-4.383-13.592-10.832-5.675-8.266-7.961-15.824-6.779-22.462 0.565-3.21 2.099-5.788 4.448-7.577 2.026-1.663 4.35-2.505 6.907-2.505 0.69 0 1.395 0.067 2.107 0.191 5.715 1.005 10.896 5.373 15.389 12.964 4.578 7.68 6.371 14.539 5.339 20.386-1.129 6.435-5.139 10.091-11.015 10.091-0.892 0-1.828-0.084-2.804-0.256m-11.145-34.817c-0.89 0.676-1.413 1.587-1.637 2.862-0.81 4.58 1.053 10.219 5.56 16.766 3.893 5.719 6.805 7.282 8.561 7.595 0.552 0.095 1.071 0.145 1.525 0.145 1.145 0 2.707 0 3.365-3.724 0.698-3.974-0.776-9.054-4.386-15.112-3.296-5.577-6.693-8.708-10.089-9.309-0.263-0.046-0.513-0.071-0.755-0.071-0.732 0-1.393 0.233-2.144 0.848m-10.789-36.424c-3.303-0.583-6.16-2.654-8.412-6.076-1.902-2.7-4.407-7.545-7.664-14.786-9.874-21.518-16.47-41.051-19.616-58.05-5.423-28.908-5.56-35.807-5.069-38.597 0.471-2.67 1.862-4.987 3.964-6.726 2.092-1.958 4.645-2.996 7.38-2.996 0.673 0 1.374 0.065 2.057 0.187 4.002 0.707 9.051 3.641 10.406 13.637 1.868 13.855 4.467 27.621 7.726 40.972 2.954 12.867 8.886 29.9 17.579 50.521 2.973 6.495 4.072 10.732 3.538 13.757-0.373 2.096-1.454 4.017-3.208 5.712l-0.212 0.192c-1.908 1.591-4.139 2.426-6.547 2.426-0.629 0-1.271-0.057-1.922-0.173m-31.692-118.46c-1.13 0.937-1.384 1.755-1.477 2.287-0.244 1.383-0.231 7.641 5.059 35.846 3.035 16.383 9.436 35.307 19.057 56.271 3.023 6.726 5.359 11.282 7.009 13.634 1.113 1.673 2.242 2.629 3.383 2.83 0.195 0.035 0.388 0.053 0.579 0.053 0.368 0 0.879-0.067 1.505-0.555 0.504-0.506 0.802-0.984 0.874-1.411 0.033-0.205 0.252-2.189-3.002-9.31-8.915-21.137-14.986-38.598-18.029-51.844-3.312-13.563-5.959-27.601-7.86-41.72-0.883-6.506-3.298-6.934-4.107-7.073-0.284-0.05-0.555-0.113-0.852-0.113-0.546 0-1.179 0.212-2.139 1.105"/></clipPath><linearGradient id="linearGradient468" x2="1" gradientTransform="matrix(137 104.41 104.41 -137 426.36 597.97)" gradientUnits="userSpaceOnUse"><stop stop-color="#f5f575" offset="0"/><stop stop-color="#c49345" offset=".04"/><stop stop-color="#3f2811" offset=".14"/><stop stop-color="#9b692b" offset=".21"/><stop stop-color="#f5f575" offset=".29"/><stop stop-color="#e09340" offset=".36"/><stop stop-color="#3f2811" offset=".53824"/><stop stop-color="#c49345" offset=".58924"/><stop stop-color="#f5f575" offset=".64023"/><stop stop-color="#c89841" offset=".70255"/><stop stop-color="#f7f576" offset=".76204"/><stop stop-color="#c49345" offset=".83003"/><stop stop-color="#3f2811" offset=".91218"/><stop stop-color="#c49345" offset=".96034"/><stop stop-color="#f7f576" offset="1"/></linearGradient><clipPath id="clipPath478"><path d="m185.3 741.01c-10.613-1.873-21.192-6.322-31.735-13.35-12.671-8.609-23.847-18.877-33.523-30.798-18.222-22.815-25.408-45.121-21.565-66.925 1.627-9.212 5.96-18.127 13.011-26.738 6.303-7.787 13.877-16.309 22.723-25.57 5.743-5.961 10.113-10.964 13.109-15.001 2.858-3.947 4.76-8.6 5.705-13.964 1.544-8.744-0.799-16.616-7.019-23.6-9.959-11.018-22.632-17.877-38.03-20.594-7.697-1.355-14.36-0.728-19.99 1.888-6.573 3.168-10.508 8.483-11.825 15.944-1.647 9.327 2.224 16.687 11.621 22.071 5.473 3.012 7.876 6.441 7.196 10.285-0.901 5.129-4.503 7.145-10.801 6.03-2.565-0.45-5.64-1.776-9.218-3.97-5.228-3.084-9.512-7.087-12.85-12.003-5.549-8.072-7.434-17.181-5.645-27.326 1.603-9.095 6.58-16.514 14.925-22.256 11.071-7.547 24.937-9.848 41.617-6.908 16.905 2.979 31.285 10.083 43.136 21.311 13.869 13.387 19.589 26.959 17.164 40.721-1.253 7.114-4.758 14.367-10.51 21.772-4.951 6.22-10.813 12.882-17.591 19.984-7.081 7.409-13.012 14.112-17.795 20.124-5.776 7.515-9.354 15.177-10.729 22.991-1.893 10.728 0.245 22.468 6.414 35.217 7.025 14.703 17.969 27.638 32.835 38.797 11.04 8.316 20.579 13.187 28.624 14.605 3.032 0.533 5.798 0.179 8.304-1.06 3.17-1.608 5.053-4.102 5.645-7.486 1.545-8.743-3.654-20.181-15.588-34.309-9.245-11.008-20.477-20.265-33.701-27.762-7.222-4.043-10.453-8.217-9.695-12.532 0.331-1.864 1.332-3.432 2.996-4.701 2.489-1.846 5.072-2.532 7.756-2.057 4.082 0.719 9.739 3.756 16.967 9.121 14.437 10.845 26.488 23.668 36.136 38.474 10.212 15.746 14.286 29.449 12.233 41.112-1.316 7.462-5.271 12.839-11.862 16.124-3.772 1.927-7.895 2.892-12.372 2.892-1.956 0-3.981-0.184-6.073-0.553"/></clipPath><linearGradient id="linearGradient506" x2="1" gradientTransform="matrix(529.29 -256.16 -256.16 -529.29 .49854 682.97)" gradientUnits="userSpaceOnUse"><stop stop-color="#5c2814" offset="0"/><stop stop-color="#9e741e" offset=".22404"/><stop stop-color="#9e741e" offset=".23264"/><stop stop-color="#f7f89e" offset=".51913"/><stop stop-color="#f1f28f" offset=".61202"/><stop stop-color="#f0fafb" offset=".6776"/><stop stop-color="#dbce71" offset=".72678"/><stop stop-color="#c0a353" offset=".78142"/><stop stop-color="#c0a353" offset=".79533"/><stop stop-color="#a37d3a" offset=".84153"/><stop stop-color="#6f3c18" offset="1"/></linearGradient><clipPath id="clipPath516"><path d="m244.02 629.99c-11.198-1.975-22.955-11.983-35.286-30.024-15.209-22.157-21.077-43.094-17.601-62.798 1.272-7.234 3.973-12.644 8.095-16.244 6.082-5.183 13.498-7 22.242-5.458 8.512 1.5 17.253 5.803 26.219 12.918 8.962 7.11 17.069 15.695 24.312 25.752 9.281 12.816 13.523 21.496 12.721 26.046-0.143 0.815-0.647 1.623-1.515 2.441-1.273 1.095-2.552 1.531-3.832 1.303-2.334-0.409-4.848-2.841-7.553-7.282-15.178-25.762-30.052-39.927-44.628-42.494-6.649-1.174-11.811 0.139-15.486 3.939-1.614 1.64-2.64 3.744-3.094 6.309l-0.554 3.148c22.416 11.287 37.865 27.296 46.355 48.033 4.128 9.977 5.651 18.063 4.561 24.242-0.698 3.964-2.78 6.906-6.241 8.82-2.029 1.044-4.119 1.566-6.278 1.566-0.803 0-1.615-0.072-2.437-0.217m-15.675-28.728c4.798 5.53 8.704 8.562 11.743 9.097 2.213 0.393 3.528-0.578 3.938-2.911 0.387-2.217-0.042-4.874-1.296-7.979-3.385-8.775-8.6-17.027-15.654-24.761-4.049-4.324-9.907-8.605-17.577-12.839 3.956 16.444 10.235 29.573 18.846 39.393"/></clipPath><linearGradient id="linearGradient544" x2="1" gradientTransform="matrix(529.29 -256.16 -256.16 -529.29 .68066 683.35)" gradientUnits="userSpaceOnUse"><stop stop-color="#5c2814" offset="0"/><stop stop-color="#9e741e" offset=".22404"/><stop stop-color="#9e741e" offset=".23264"/><stop stop-color="#f7f89e" offset=".51913"/><stop stop-color="#f1f28f" offset=".61202"/><stop stop-color="#f0fafb" offset=".6776"/><stop stop-color="#dbce71" offset=".72678"/><stop stop-color="#c0a353" offset=".78142"/><stop stop-color="#c0a353" offset=".79533"/><stop stop-color="#a37d3a" offset=".84153"/><stop stop-color="#6f3c18" offset="1"/></linearGradient><clipPath id="clipPath554"><path d="m366.73 643.87c-8.284-1.46-22.511-16.228-42.685-44.309-1.148-1.646-2.367-3.302-3.629-4.969 1.998 6.363 4.821 13.532 8.469 21.51 2.535 5.374 3.581 9.343 3.127 11.911-0.371 2.097-1.514 3.821-3.434 5.166-1.648 1.148-3.228 1.593-4.743 1.328-3.15-0.557-6.375-4.433-9.676-11.627-3.28-7.309-7.493-18.874-12.64-34.683-9.634-29.234-13.897-46.999-12.785-53.299 0.451-2.564 1.64-4.518 3.558-5.861 1.531-1.171 3.287-1.585 5.268-1.239 3.966 0.703 7.153 4.447 9.565 11.246 9.096 28.177 20.682 48.736 34.748 61.676-8.518-21.223-11.391-39.702-8.615-55.444 1.435-8.161 4.241-14.823 8.39-19.98 4.333-5.484 8.885-7.813 13.672-6.967 2.096 0.367 3.765 1.504 4.993 3.403 1.168 1.53 1.636 2.995 1.389 4.393-0.267 1.514-1.457 3.469-3.562 5.865-4.524 5.215-7.354 11.027-8.484 17.441-3.492 19.82 3.598 44.697 21.285 74.627 3.241 5.495 4.549 9.999 3.937 13.497-0.766 4.318-2.887 6.482-6.37 6.482-0.558 0-1.151-0.056-1.778-0.167"/></clipPath><linearGradient id="linearGradient582" x2="1" gradientTransform="matrix(529.3 -256.17 -256.17 -529.3 25.402 734.44)" gradientUnits="userSpaceOnUse"><stop stop-color="#5c2814" offset="0"/><stop stop-color="#9e741e" offset=".22404"/><stop stop-color="#9e741e" offset=".23264"/><stop stop-color="#f7f89e" offset=".51913"/><stop stop-color="#f1f28f" offset=".61202"/><stop stop-color="#f0fafb" offset=".6776"/><stop stop-color="#dbce71" offset=".72678"/><stop stop-color="#c0a353" offset=".78142"/><stop stop-color="#c0a353" offset=".79533"/><stop stop-color="#a37d3a" offset=".84153"/><stop stop-color="#6f3c18" offset="1"/></linearGradient><clipPath id="clipPath592"><path d="m450.7 666.79c-2.571-0.454-5.587-1.411-9.056-2.858-9.058-3.885-18.597-6.707-28.623-8.478-3.85-0.675-6.736-1.006-8.665-0.983-4.929-0.03-8.088-0.167-9.487-0.411-1.635-0.289-2.979-1.19-4.037-2.697-1.15-1.643-1.542-3.515-1.168-5.615 1.168-6.648 7.351-8.988 18.548-7.012 4.66 0.822 13.219 3.111 25.659 6.869-16.473-18.413-31.393-39.8-44.773-64.156-8.876-16.478-12.9-27.104-12.051-31.885 0.345-1.984 1.603-3.623 3.751-4.927 2.297-1.402 4.781-1.862 7.458-1.391 2.101 0.372 6.033 2.627 11.795 6.77 8.117 5.757 17.138 9.512 27.052 11.261 2.333 0.415 4.78 0.484 7.354 0.216 4.382-0.312 7.218-0.351 8.503-0.126 2.093 0.368 3.803 1.574 5.132 3.612 1.323 2.037 1.802 4.104 1.431 6.205-1.24 6.995-8.614 9.302-22.145 6.915-8.041-1.422-17.054-4.875-27.031-10.359 4.111 10.107 10.666 22.018 19.673 35.75 6.391 9.421 17.807 23.397 34.266 41.929 5.728 5.698 8.253 10.474 7.576 14.32-0.393 2.213-1.484 3.949-3.263 5.2-1.821 1.35-3.808 2.025-5.963 2.025-0.631 0-1.277-0.058-1.936-0.174"/></clipPath><linearGradient id="linearGradient620" x2="1" gradientTransform="matrix(529.29 -256.16 -256.16 -529.29 49.425 784.07)" gradientUnits="userSpaceOnUse"><stop stop-color="#5c2814" offset="0"/><stop stop-color="#9e741e" offset=".22404"/><stop stop-color="#9e741e" offset=".23264"/><stop stop-color="#f7f89e" offset=".51913"/><stop stop-color="#f1f28f" offset=".61202"/><stop stop-color="#f0fafb" offset=".6776"/><stop stop-color="#dbce71" offset=".72678"/><stop stop-color="#c0a353" offset=".78142"/><stop stop-color="#c0a353" offset=".79533"/><stop stop-color="#a37d3a" offset=".84153"/><stop stop-color="#6f3c18" offset="1"/></linearGradient><clipPath id="clipPath630"><path d="m518.49 742.59c-3.613-0.639-7.284-3.691-11.009-9.155-5.075-7.389-7.109-13.879-6.125-19.476 0.395-2.216 1.418-3.96 3.082-5.228 1.689-1.389 3.642-1.883 5.859-1.491 4.546 0.803 8.762 4.489 12.652 11.065 4.085 6.854 5.693 12.728 4.831 17.625-0.806 4.576-3.177 6.864-7.115 6.864-0.679 0-1.404-0.068-2.175-0.204m-21.785-70.753c-2.22-0.391-4.177-1.882-5.888-4.464-1.73-2.468-4.151-7.163-7.26-14.085-9.728-21.193-16.122-40.114-19.203-56.761-3.967-21.144-5.643-33.46-5.027-36.958 0.311-1.75 1.237-3.27 2.787-4.557 1.729-1.619 3.759-2.227 6.089-1.812 3.966 0.699 6.371 4.125 7.203 10.288 1.876 13.916 4.45 27.59 7.736 41.036 2.991 13.026 8.891 29.999 17.714 50.912 2.511 5.493 3.592 9.291 3.221 11.391-0.226 1.283-0.92 2.479-2.077 3.597-1.217 1.017-2.571 1.525-4.055 1.525-0.404 0-0.817-0.037-1.24-0.112"/></clipPath><linearGradient id="linearGradient658" x2="1" gradientTransform="matrix(529.3 -256.17 -256.17 -529.3 80.389 848.07)" gradientUnits="userSpaceOnUse"><stop stop-color="#5c2814" offset="0"/><stop stop-color="#9e741e" offset=".22404"/><stop stop-color="#9e741e" offset=".23264"/><stop stop-color="#f7f89e" offset=".51913"/><stop stop-color="#f1f28f" offset=".61202"/><stop stop-color="#f0fafb" offset=".6776"/><stop stop-color="#dbce71" offset=".72678"/><stop stop-color="#c0a353" offset=".78142"/><stop stop-color="#c0a353" offset=".79533"/><stop stop-color="#a37d3a" offset=".84153"/><stop stop-color="#6f3c18" offset="1"/></linearGradient><clipPath id="clipPath668"><path d="m184.53 740.7c-10.609-1.871-21.189-6.321-31.732-13.349-12.67-8.608-23.847-18.876-33.524-30.797-18.22-22.815-25.411-45.125-21.568-66.927 1.627-9.211 5.965-18.126 13.016-26.736 6.298-7.788 13.876-16.31 22.723-25.571 5.742-5.96 10.109-10.963 13.107-15.003 2.86-3.946 4.762-8.599 5.706-13.961 1.543-8.749-0.798-16.622-7.018-23.605-9.96-11.017-22.636-17.875-38.031-20.594-7.697-1.353-14.359-0.727-19.99 1.89-6.572 3.168-10.512 8.483-11.827 15.944-1.646 9.326 2.227 16.685 11.62 22.073 5.474 3.012 7.879 6.441 7.2 10.285-0.901 5.128-4.503 7.144-10.802 6.031-2.568-0.453-5.64-1.776-9.218-3.97-5.228-3.085-9.516-7.087-12.852-12.004-5.547-8.075-7.431-17.184-5.642-27.328 1.603-9.096 6.58-16.515 14.925-22.257 11.067-7.548 24.938-9.846 41.614-6.907 16.907 2.977 31.287 10.083 43.136 21.31 13.87 13.387 19.591 26.958 17.166 40.724-1.256 7.116-4.762 14.368-10.513 21.772-4.948 6.219-10.808 12.885-17.587 19.984-7.081 7.409-13.015 14.113-17.8 20.122-5.775 7.516-9.35 15.181-10.728 22.993-1.889 10.726 0.245 22.465 6.417 35.218 7.025 14.702 17.97 27.636 32.836 38.796 11.037 8.316 20.579 13.187 28.625 14.606 3.031 0.532 5.797 0.178 8.298-1.062 3.176-1.606 5.053-4.101 5.65-7.484 1.544-8.744-3.654-20.182-15.59-34.31-9.243-11.007-20.475-20.264-33.702-27.766-7.22-4.038-10.454-8.213-9.693-12.528 0.332-1.868 1.33-3.435 2.993-4.701 2.491-1.845 5.075-2.531 7.759-2.059 4.079 0.721 9.735 3.759 16.968 9.124 14.436 10.84 26.485 23.663 36.136 38.474 10.212 15.745 14.287 29.449 12.233 41.112-1.316 7.462-5.276 12.839-11.863 16.123-3.771 1.926-7.895 2.891-12.373 2.891-1.957 0-3.982-0.184-6.075-0.553"/></clipPath><linearGradient id="linearGradient696" x2="1" gradientTransform="matrix(529.28 -256.16 -256.16 -529.28 .23291 682.42)" gradientUnits="userSpaceOnUse"><stop stop-color="#5c2814" offset="0"/><stop stop-color="#9e741e" offset=".22404"/><stop stop-color="#9e741e" offset=".23264"/><stop stop-color="#f7f89e" offset=".51913"/><stop stop-color="#f1f28f" offset=".61202"/><stop stop-color="#f0fafb" offset=".6776"/><stop stop-color="#dbce71" offset=".72678"/><stop stop-color="#c0a353" offset=".78142"/><stop stop-color="#c0a353" offset=".79533"/><stop stop-color="#a37d3a" offset=".84153"/><stop stop-color="#6f3c18" offset="1"/></linearGradient><clipPath id="clipPath706"><path d="m243.24 629.68c-11.195-1.974-22.95-11.984-35.287-30.024-15.204-22.157-21.072-43.093-17.6-62.801 1.275-7.232 3.976-12.644 8.094-16.246 6.087-5.182 13.499-6.998 22.247-5.457 8.512 1.501 17.252 5.806 26.218 12.919 8.963 7.111 17.067 15.699 24.313 25.755 9.281 12.815 13.522 21.497 12.721 26.046-0.143 0.816-0.65 1.624-1.515 2.442-1.273 1.093-2.551 1.531-3.834 1.301-2.332-0.406-4.85-2.839-7.551-7.282-15.182-25.762-30.055-39.93-44.631-42.497-6.647-1.172-11.809 0.138-15.486 3.939-1.61 1.641-2.638 3.748-3.094 6.312l-0.554 3.149c22.414 11.288 37.867 27.298 46.356 48.033 4.129 9.977 5.653 18.064 4.563 24.243-0.699 3.962-2.783 6.905-6.246 8.82-2.025 1.043-4.116 1.565-6.275 1.565-0.803 0-1.616-0.072-2.439-0.217m-15.671-28.729c4.798 5.531 8.704 8.563 11.742 9.099 2.21 0.39 3.525-0.579 3.937-2.912 0.389-2.218-0.04-4.875-1.297-7.978-3.382-8.776-8.601-17.029-15.655-24.761-4.049-4.326-9.903-8.605-17.574-12.84 3.955 16.443 10.235 29.575 18.847 39.392"/></clipPath><linearGradient id="linearGradient734" x2="1" gradientTransform="matrix(529.3 -256.17 -256.17 -529.3 .40771 682.8)" gradientUnits="userSpaceOnUse"><stop stop-color="#5c2814" offset="0"/><stop stop-color="#9e741e" offset=".22404"/><stop stop-color="#9e741e" offset=".23264"/><stop stop-color="#f7f89e" offset=".51913"/><stop stop-color="#f1f28f" offset=".61202"/><stop stop-color="#f0fafb" offset=".6776"/><stop stop-color="#dbce71" offset=".72678"/><stop stop-color="#c0a353" offset=".78142"/><stop stop-color="#c0a353" offset=".79533"/><stop stop-color="#a37d3a" offset=".84153"/><stop stop-color="#6f3c18" offset="1"/></linearGradient><clipPath id="clipPath744"><path d="m365.96 643.56c-8.284-1.462-22.511-16.23-42.685-44.312-1.15-1.643-2.365-3.298-3.633-4.967 2.003 6.363 4.824 13.533 8.473 21.51 2.532 5.374 3.578 9.343 3.128 11.912-0.371 2.098-1.513 3.82-3.437 5.165-1.647 1.15-3.229 1.593-4.744 1.328-3.151-0.557-6.374-4.433-9.671-11.627-3.281-7.309-7.494-18.873-12.643-34.683-9.633-29.233-13.898-47-12.787-53.301 0.453-2.565 1.644-4.52 3.562-5.861 1.531-1.173 3.287-1.587 5.264-1.24 3.971 0.702 7.158 4.446 9.566 11.246 9.099 28.18 20.683 48.738 34.751 61.679-8.519-21.223-11.395-39.702-8.619-55.444 1.439-8.164 4.243-14.827 8.393-19.982 4.332-5.483 8.886-7.814 13.673-6.969 2.097 0.369 3.762 1.505 4.991 3.402 1.17 1.531 1.633 2.997 1.389 4.396-0.265 1.514-1.457 3.468-3.559 5.864-4.526 5.214-7.356 11.029-8.49 17.444-3.487 19.821 3.603 44.697 21.29 74.627 3.238 5.496 4.549 9.999 3.932 13.495-0.763 4.322-2.885 6.484-6.369 6.484-0.557 0-1.149-0.056-1.775-0.166"/></clipPath><linearGradient id="linearGradient772" x2="1" gradientTransform="matrix(529.29 -256.16 -256.16 -529.29 25.143 733.89)" gradientUnits="userSpaceOnUse"><stop stop-color="#5c2814" offset="0"/><stop stop-color="#9e741e" offset=".22404"/><stop stop-color="#9e741e" offset=".23264"/><stop stop-color="#f7f89e" offset=".51913"/><stop stop-color="#f1f28f" offset=".61202"/><stop stop-color="#f0fafb" offset=".6776"/><stop stop-color="#dbce71" offset=".72678"/><stop stop-color="#c0a353" offset=".78142"/><stop stop-color="#c0a353" offset=".79533"/><stop stop-color="#a37d3a" offset=".84153"/><stop stop-color="#6f3c18" offset="1"/></linearGradient><clipPath id="clipPath782"><path d="m449.93 666.48c-2.568-0.454-5.583-1.407-9.054-2.86-9.057-3.88-18.596-6.706-28.626-8.471-3.846-0.68-6.738-1.012-8.661-0.987-4.93-0.032-8.09-0.163-9.486-0.412-1.64-0.288-2.982-1.187-4.039-2.694-1.15-1.646-1.542-3.519-1.17-5.62 1.165-6.646 7.353-8.982 18.549-7.006 4.66 0.821 13.216 3.11 25.659 6.867-16.47-18.412-31.391-39.798-44.77-64.156-8.881-16.477-12.9-27.102-12.054-31.883 0.348-1.986 1.602-3.625 3.754-4.929 2.296-1.399 4.777-1.861 7.456-1.389 2.098 0.371 6.035 2.627 11.792 6.768 8.122 5.76 17.141 9.513 27.055 11.262 2.333 0.413 4.782 0.485 7.352 0.215 4.385-0.311 7.217-0.351 8.502-0.126 2.095 0.368 3.807 1.575 5.132 3.612 1.321 2.038 1.803 4.106 1.435 6.206-1.239 6.994-8.616 9.3-22.147 6.915-8.039-1.421-17.052-4.874-27.03-10.357 4.113 10.106 10.667 22.017 19.669 35.747 6.395 9.423 17.811 23.398 34.267 41.929 5.731 5.696 8.253 10.471 7.576 14.321-0.389 2.21-1.48 3.948-3.258 5.195-1.82 1.353-3.808 2.028-5.962 2.028-0.633 0-1.28-0.058-1.941-0.175"/></clipPath><linearGradient id="linearGradient810" x2="1" gradientTransform="matrix(529.28 -256.16 -256.16 -529.28 49.169 783.52)" gradientUnits="userSpaceOnUse"><stop stop-color="#5c2814" offset="0"/><stop stop-color="#9e741e" offset=".22404"/><stop stop-color="#9e741e" offset=".23264"/><stop stop-color="#f7f89e" offset=".51913"/><stop stop-color="#f1f28f" offset=".61202"/><stop stop-color="#f0fafb" offset=".6776"/><stop stop-color="#dbce71" offset=".72678"/><stop stop-color="#c0a353" offset=".78142"/><stop stop-color="#c0a353" offset=".79533"/><stop stop-color="#a37d3a" offset=".84153"/><stop stop-color="#6f3c18" offset="1"/></linearGradient><clipPath id="clipPath820"><path d="m517.72 742.28c-3.614-0.639-7.283-3.691-11.008-9.155-5.074-7.389-7.113-13.879-6.125-19.476 0.39-2.217 1.419-3.959 3.082-5.228 1.689-1.388 3.642-1.882 5.857-1.491 4.544 0.803 8.764 4.49 12.655 11.066 4.084 6.853 5.692 12.727 4.83 17.624-0.806 4.576-3.178 6.864-7.116 6.864-0.678 0-1.404-0.068-2.175-0.204m-21.787-70.754c-2.217-0.39-4.179-1.881-5.889-4.465-1.725-2.468-4.147-7.163-7.255-14.082-9.73-21.193-16.128-40.115-19.208-56.764-3.967-21.142-5.64-33.458-5.028-36.957 0.313-1.749 1.245-3.27 2.79-4.555 1.726-1.621 3.759-2.227 6.09-1.814 3.965 0.7 6.369 4.127 7.204 10.288 1.873 13.917 4.45 27.592 7.736 41.038 2.986 13.027 8.891 29.997 17.714 50.912 2.51 5.492 3.592 9.289 3.221 11.39-0.225 1.279-0.921 2.479-2.079 3.599-1.221 1.014-2.575 1.522-4.062 1.522-0.402 0-0.813-0.037-1.234-0.112"/></clipPath><linearGradient id="linearGradient848" x2="1" gradientTransform="matrix(529.28 -256.16 -256.16 -529.28 80.135 847.51)" gradientUnits="userSpaceOnUse"><stop stop-color="#5c2814" offset="0"/><stop stop-color="#9e741e" offset=".22404"/><stop stop-color="#9e741e" offset=".23264"/><stop stop-color="#f7f89e" offset=".51913"/><stop stop-color="#f1f28f" offset=".61202"/><stop stop-color="#f0fafb" offset=".6776"/><stop stop-color="#dbce71" offset=".72678"/><stop stop-color="#c0a353" offset=".78142"/><stop stop-color="#c0a353" offset=".79533"/><stop stop-color="#a37d3a" offset=".84153"/><stop stop-color="#6f3c18" offset="1"/></linearGradient></defs><g transform="matrix(1.3333 0 0 -1.3333 -67.082 1092.1)"><g transform="matrix(1.2419 0 0 1.2419 -12.169 -111.4)"><g clip-path="url(#clipPath18)"><path d="m184.54 743.61c-10.686-1.885-21.334-6.368-31.951-13.441-12.76-8.665-24.008-19.003-33.753-31.01-18.346-22.968-25.582-45.43-21.712-67.383 1.636-9.28 6.003-18.258 13.101-26.928 6.345-7.839 13.972-16.416 22.881-25.743 5.779-6.003 10.178-11.036 13.194-15.105 2.879-3.971 4.795-8.661 5.749-14.055 1.551-8.805-0.805-16.727-7.067-23.761-10.029-11.1-22.793-18.004-38.293-20.745-7.75-1.365-14.459-0.732-20.128 1.902-6.617 3.191-10.582 8.542-11.909 16.064-1.657 9.386 2.244 16.797 11.696 22.218 5.517 3.033 7.939 6.482 7.254 10.354-0.909 5.167-4.537 7.19-10.875 6.071-2.584-0.454-5.678-1.789-9.285-4-5.26-3.098-9.575-7.133-12.934-12.083-5.589-8.128-7.488-17.295-5.686-27.514 1.613-9.162 6.627-16.63 15.029-22.412 11.143-7.601 25.109-9.918 41.902-6.961 17.02 2.999 31.499 10.155 43.43 21.46 13.967 13.486 19.725 27.152 17.287 41.01-1.267 7.16-4.796 14.466-10.586 21.921-4.985 6.263-10.886 12.968-17.713 20.115-7.125 7.463-13.102 14.212-17.919 20.266-5.816 7.566-9.417 15.284-10.802 23.15-1.905 10.805 0.248 22.623 6.461 35.463 7.074 14.799 18.094 27.822 33.063 39.061 11.107 8.372 20.716 13.277 28.817 14.703 3.051 0.543 5.841 0.18 8.36-1.066 3.194-1.616 5.09-4.131 5.688-7.534 1.551-8.804-3.68-20.322-15.699-34.545-9.307-11.083-20.617-20.4-33.935-27.958-7.265-4.065-10.52-8.266-9.757-12.616 0.334-1.879 1.339-3.456 3.015-4.734 2.508-1.857 5.109-2.547 7.81-2.069 4.107 0.721 9.804 3.784 17.086 9.183 14.536 10.921 26.666 23.827 36.384 38.739 10.281 15.856 14.387 29.654 12.316 41.395-1.329 7.511-5.308 12.928-11.945 16.23-3.796 1.943-7.948 2.916-12.456 2.916-1.971 0-4.011-0.186-6.118-0.558" fill="url(#linearGradient54)"/></g></g><g transform="matrix(1.2419 0 0 1.2419 -12.169 -111.4)"><g clip-path="url(#clipPath64)"><path d="m183.87 747.41c-11.16-1.97-22.401-6.689-33.446-14.056-13.004-8.83-24.641-19.519-34.601-31.791-18.978-23.763-26.553-47.47-22.497-70.458 1.742-9.896 6.424-19.552 13.902-28.685 6.366-7.867 14.135-16.607 23.097-25.985 5.63-5.849 9.965-10.807 12.853-14.696 2.518-3.479 4.228-7.67 5.073-12.465 1.349-7.651-0.663-14.366-6.133-20.503-9.384-10.387-21.53-16.958-36.099-19.531-6.911-1.233-12.939-0.676-17.782 1.57-5.478 2.65-8.681 6.988-9.788 13.263-1.375 7.793 1.742 13.574 9.757 18.17 8.841 4.86 9.878 10.516 9.191 14.399-1.268 7.217-6.874 10.7-15.337 9.206-3.084-0.545-6.564-2.015-10.576-4.473-5.732-3.386-10.5-7.84-14.158-13.228-6.156-8.956-8.28-19.171-6.303-30.366 1.794-10.171 7.389-18.555 16.65-24.93 8.636-5.892 18.933-8.873 30.609-8.873 4.473 0 9.228 0.437 14.138 1.304 17.696 3.119 32.978 10.674 45.44 22.479 14.879 14.367 21.07 29.319 18.405 44.455-1.368 7.75-5.185 15.699-11.364 23.652-5.053 6.344-11.091 13.203-17.942 20.383-7.047 7.376-12.999 14.104-17.65 19.947-5.405 7.035-8.791 14.261-10.062 21.472-1.753 9.937 0.31 21.078 6.139 33.129 6.772 14.171 17.507 26.835 31.907 37.644 10.573 7.969 19.71 12.67 27.17 13.988 2.236 0.39 4.201 0.15 5.943-0.709 2.124-1.076 3.244-2.546 3.634-4.767 1.337-7.582-3.656-18.142-14.852-31.396-8.97-10.678-20.032-19.791-32.863-27.07-8.822-4.935-12.749-10.54-11.672-16.654 0.507-2.855 2.011-5.253 4.513-7.161 3.353-2.484 7.037-3.431 10.774-2.771 4.752 0.838 10.872 4.073 18.735 9.9 14.837 11.151 27.388 24.513 37.304 39.724 10.782 16.63 15.113 31.487 12.876 44.164-1.544 8.752-6.262 15.148-13.988 18.996-4.335 2.217-9.115 3.335-14.246 3.335-2.189-1e-3 -4.442-0.204-6.751-0.612m-76.512-245.77c16.298 2.88 29.919 10.263 40.498 21.976 7.061 7.926 9.749 17.008 7.989 26.997-1.053 5.956-3.214 11.213-6.447 15.683-3.112 4.191-7.658 9.399-13.507 15.473-8.806 9.218-16.433 17.799-22.681 25.523-6.648 8.112-10.78 16.57-12.293 25.146-3.648 20.715 3.392 42.353 20.914 64.287 9.465 11.665 20.545 21.844 32.897 30.231 10.123 6.75 20.378 11.073 30.48 12.853 6.057 1.065 11.451 0.411 16.185-2.007 5.526-2.757 8.755-7.154 9.865-13.448 1.889-10.696-2.068-23.694-11.747-38.625-9.42-14.451-21.354-27.153-35.452-37.746-8.422-6.247-13.055-8.064-15.46-8.486-1.613-0.29-3.195 0.151-4.801 1.34-1.179 0.899-1.452 1.768-1.554 2.336-0.584 3.323 4.665 6.805 7.866 8.596 13.651 7.745 25.423 17.444 34.975 28.821 12.916 15.287 18.326 27.62 16.551 37.703-0.809 4.582-3.482 8.146-7.777 10.321-3.254 1.609-6.901 2.089-10.735 1.408-8.791-1.549-18.757-6.592-30.466-15.414-15.398-11.561-26.914-25.184-34.224-40.465-6.541-13.529-8.822-26.249-6.782-37.814 1.487-8.447 5.374-16.804 11.579-24.883 4.841-6.079 10.945-12.981 18.15-20.525 6.694-7.011 12.575-13.692 17.453-19.825 5.38-6.913 8.688-13.723 9.838-20.22 2.222-12.628-3.066-24.913-16.144-37.541-11.322-10.725-25.265-17.609-41.447-20.459-15.691-2.761-28.822-0.638-39.047 6.336-7.587 5.224-11.978 11.731-13.416 19.905-1.633 9.261 0.023 17.328 5.076 24.678 3.025 4.456 6.965 8.135 11.762 10.967 3.181 1.948 5.849 3.122 7.939 3.485 0.901 0.162 1.729 0.243 2.458 0.243 2.565 0 3.526-0.776 3.95-3.189 0.361-2.044-1.428-4.164-5.371-6.335-13.667-7.836-14.93-18.593-13.577-26.237 1.547-8.773 6.268-15.119 14.082-18.89 4.233-1.966 8.993-2.954 14.204-2.954 2.627 0 5.37 0.251 8.217 0.755" fill="url(#linearGradient100)"/></g></g><g transform="matrix(1.2419 0 0 1.2419 -12.169 -111.4)"><g clip-path="url(#clipPath110)"><path d="m243.66 631.83c-11.272-1.988-23.114-12.069-35.525-30.234-15.315-22.307-21.226-43.387-17.727-63.226 1.286-7.283 4.006-12.73 8.155-16.356 6.122-5.222 13.586-7.053 22.393-5.499 8.572 1.511 17.374 5.849 26.402 13.015 9.023 7.157 17.183 15.794 24.478 25.922 9.345 12.903 13.616 21.643 12.808 26.23-0.144 0.818-0.653 1.63-1.525 2.451-1.279 1.101-2.572 1.548-3.859 1.315-2.347-0.411-4.886-2.86-7.608-7.332-15.281-25.938-30.258-40.201-44.933-42.784-6.692-1.183-11.888 0.142-15.59 3.968-1.625 1.647-2.66 3.765-3.118 6.352l-0.556 3.164c22.568 11.366 38.127 27.481 46.673 48.362 4.158 10.047 5.691 18.192 4.595 24.412-0.706 3.991-2.8 6.952-6.288 8.882-2.044 1.05-4.149 1.574-6.326 1.574-0.806 0-1.623-0.072-2.449-0.216m-15.782-28.929c4.829 5.569 8.767 8.621 11.822 9.161 2.227 0.394 3.553-0.585 3.97-2.928 0.392-2.233-0.043-4.911-1.308-8.037-3.407-8.833-8.662-17.143-15.762-24.932-4.076-4.352-9.973-8.665-17.697-12.925 3.983 16.556 10.304 29.775 18.975 39.661" fill="url(#linearGradient146)"/></g></g><g transform="matrix(1.2419 0 0 1.2419 -12.169 -111.4)"><g clip-path="url(#clipPath156)"><path d="m242.99 635.63c-12.448-2.195-24.894-12.615-38.039-31.847-15.833-23.069-22.003-45.303-18.341-66.079 1.434-8.131 4.601-14.387 9.45-18.626 5.416-4.612 11.828-6.954 19.051-6.952 2.09 0 4.285 0.197 6.509 0.59 9.176 1.617 18.638 6.263 28.132 13.795 9.263 7.345 17.743 16.325 25.204 26.679 13.273 18.329 14.181 25.214 13.482 29.164-0.291 1.65-1.189 3.187-2.806 4.706-2.176 1.872-4.652 2.616-7.041 2.189-3.575-0.63-6.829-3.526-10.261-9.172-14.612-24.804-28.839-38.58-42.282-40.944-5.374-0.956-9.347-0.044-12.174 2.878-1.07 1.084-1.745 2.494-2.066 4.31l-0.067 0.379c21.961 11.675 37.41 28.154 45.95 49.005 4.486 10.843 6.063 19.531 4.826 26.559-0.901 5.107-3.746 9.114-8.315 11.632-2.583 1.334-5.303 2.007-8.101 2.007-1.027 0-2.065-0.091-3.111-0.273m-41.895-110.71c-3.452 3.012-5.769 7.763-6.888 14.121-3.3 18.717 2.452 39.031 17.109 60.38 11.746 17.195 22.856 26.822 33.008 28.608 0.604 0.106 1.207 0.161 1.785 0.161 1.569 0 3.056-0.376 4.462-1.099 2.468-1.362 3.849-3.324 4.352-6.173 0.965-5.46-0.503-12.952-4.367-22.28-8.144-19.89-23.225-35.497-44.84-46.379l-2.556-1.286 1.056-5.991c0.591-3.367 1.995-6.187 4.139-8.362 4.602-4.755 11.041-6.492 19.033-5.091 15.989 2.821 31.554 17.415 47.557 44.582 3.139 5.165 4.905 5.527 4.962 5.543 3e-3 0 0.235-0.05 0.566-0.327 0.242-0.228 0.376-0.39 0.382-0.383 0.196-1.348-0.225-6.775-12.145-23.239-7.054-9.791-15.045-18.251-23.753-25.155-8.476-6.729-16.777-10.844-24.667-12.239-1.808-0.32-3.539-0.48-5.198-0.48-5.384 1e-3 -10.004 1.687-13.997 5.089m37.934 90.938c-4.045-0.712-8.51-4.029-14.051-10.416-9.043-10.306-15.713-24.2-19.827-41.305l-2.045-8.506 7.66 4.231c8.036 4.436 14.311 9.033 18.681 13.704 7.39 8.108 12.946 16.901 16.487 26.083 1.555 3.851 2.053 7.171 1.528 10.154-0.805 4.571-4.072 6.2-6.858 6.2-0.494 0-1.018-0.042-1.575-0.145m1.575-7.563v3.857l6e-3 -3.861c-3e-3 0-6e-3 4e-3 -6e-3 4e-3m-9.814-7.919c5.009 5.773 7.839 7.349 9.125 7.771 0.159-1.446-0.23-3.381-1.151-5.667-3.22-8.341-8.272-16.323-14.983-23.68-2.21-2.363-5.059-4.75-8.508-7.133 3.773 11.62 8.973 21.245 15.517 28.709" fill="url(#linearGradient192)"/></g></g><g transform="matrix(1.2419 0 0 1.2419 -12.169 -111.4)"><g clip-path="url(#clipPath202)"><path d="m367.22 645.81c-8.336-1.475-22.669-16.346-42.976-44.619-1.159-1.657-2.382-3.321-3.653-5.004 2.009 6.404 4.86 13.626 8.525 21.656 2.552 5.415 3.608 9.411 3.145 11.997-0.373 2.112-1.521 3.847-3.455 5.199-1.659 1.157-3.249 1.61-4.775 1.339-3.168-0.557-6.418-4.465-9.736-11.707-3.306-7.363-7.548-19.006-12.729-34.92-9.704-29.439-13.994-47.321-12.878-53.663 0.457-2.583 1.65-4.552 3.582-5.904 1.544-1.18 3.311-1.594 5.302-1.246 3.996 0.709 7.21 4.473 9.636 11.322 9.157 28.368 20.824 49.068 34.985 62.099-8.582-21.369-11.474-39.976-8.675-55.82 1.446-8.221 4.265-14.931 8.45-20.119 4.364-5.522 8.946-7.872 13.761-7.013 2.115 0.37 3.799 1.513 5.032 3.421 1.179 1.541 1.647 3.015 1.399 4.427-0.273 1.521-1.468 3.492-3.586 5.908-4.558 5.245-7.401 11.1-8.546 17.554-3.509 19.96 3.626 45.003 21.436 75.138 3.261 5.536 4.579 10.073 3.956 13.591-0.764 4.35-2.898 6.531-6.411 6.531-0.561 0-1.158-0.056-1.789-0.167" fill="url(#linearGradient238)"/></g></g><g transform="matrix(1.2419 0 0 1.2419 -12.169 -111.4)"><g clip-path="url(#clipPath248)"><path d="m366.56 649.6c-4.937-0.871-13.376-5.006-31.682-27.91 1.223 3.584 1.606 6.45 1.192 8.811-0.551 3.101-2.295 5.762-5.051 7.69-2.503 1.754-5.112 2.427-7.656 1.977-4.602-0.813-8.598-5.227-12.585-13.927-3.339-7.438-7.671-19.317-12.877-35.294-13.312-40.397-13.799-51.041-13.007-55.535 0.639-3.617 2.378-6.441 5.036-8.296 2.402-1.84 5.25-2.529 8.319-1.978 5.445 0.964 9.687 5.615 12.633 13.932 6.034 18.687 13.214 34.041 21.444 45.894-3.778-14.397-4.651-27.495-2.602-39.105 1.555-8.82 4.666-16.179 9.223-21.838 4.532-5.742 9.533-8.654 14.872-8.654 0.855 0 1.726 0.081 2.579 0.228 3.116 0.55 5.713 2.276 7.516 5.003 1.793 2.393 2.484 4.854 2.043 7.32-0.4 2.272-1.826 4.747-4.466 7.765-4.073 4.682-6.647 9.964-7.661 15.695-3.333 18.938 3.714 43.33 20.956 72.513 3.781 6.415 5.228 11.721 4.436 16.217-1.545 8.774-7.654 9.717-10.21 9.717-0.783 0-1.607-0.075-2.452-0.225m-42.894-55.747c1.304 1.72 2.561 3.428 3.713 5.084 25.709 35.787 36.42 42.345 40.519 43.069 0.392 0.067 0.766 0.108 1.114 0.108 0.854 0 2.031 0 2.615-3.348 0.312-1.769-0.034-5.109-3.478-10.956-18.203-30.805-25.579-56.968-21.914-77.769 1.265-7.13 4.437-13.662 9.443-19.427 2.403-2.743 2.664-3.913 2.684-4.035 0.039-0.208-0.113-0.7-0.658-1.415l-0.172-0.245c-0.654-1.008-1.413-1.541-2.474-1.725-3.306-0.581-6.634 1.261-10.084 5.638-3.759 4.662-6.33 10.842-7.652 18.365-2.657 15.052 0.189 33.127 8.449 53.714l6.346 15.805-12.528-11.53c-14.596-13.419-26.725-34.867-36.012-63.645-1.317-3.714-3.543-8.26-6.672-8.809-0.869-0.152-1.542-0.059-2.418 0.605-1.084 0.759-1.721 1.844-2.002 3.414-0.56 3.195 0.347 14.171 12.748 51.797 5.122 15.725 9.356 27.349 12.568 34.511 4.024 8.773 6.62 9.464 7.096 9.53 0.441 0 1.032-0.248 1.7-0.714 1.1-0.772 1.679-1.606 1.874-2.716 0.142-0.797 0.144-3.342-2.853-9.719-3.739-8.166-6.658-15.6-8.702-22.104l-6.653-21.17z" fill="url(#linearGradient284)"/></g></g><g transform="matrix(1.2419 0 0 1.2419 -12.169 -111.4)"><g clip-path="url(#clipPath294)"><path d="m451.77 668.88c-2.591-0.455-5.626-1.417-9.115-2.877-9.124-3.91-18.732-6.751-28.818-8.535-3.881-0.677-6.79-1.01-8.729-0.988-4.966-0.032-8.143-0.166-9.556-0.413-1.647-0.295-2.995-1.199-4.062-2.713-1.155-1.659-1.553-3.543-1.172-5.659 1.172-6.69 7.401-9.043 18.669-7.054 4.695 0.821 13.309 3.127 25.836 6.912-16.585-18.537-31.609-40.075-45.08-64.599-8.938-16.59-12.986-27.289-12.132-32.103 0.348-1.998 1.609-3.649 3.775-4.957 2.308-1.411 4.817-1.871 7.513-1.401 2.111 0.371 6.071 2.647 11.873 6.811 8.176 5.796 17.259 9.583 27.236 11.34 2.35 0.416 4.813 0.488 7.401 0.214 4.418-0.311 7.27-0.351 8.566-0.125 2.108 0.373 3.834 1.588 5.165 3.635 1.334 2.053 1.82 4.138 1.447 6.251-1.253 7.045-8.684 9.363-22.302 6.962-8.101-1.427-17.168-4.908-27.213-10.428 4.14 10.172 10.74 22.167 19.806 35.996 6.43 9.483 17.938 23.557 34.5 42.217 5.767 5.739 8.31 10.544 7.628 14.414-0.393 2.231-1.492 3.979-3.287 5.238-1.824 1.36-3.825 2.038-5.992 2.038-0.638 0-1.29-0.059-1.957-0.176" fill="url(#linearGradient330)"/></g></g><g transform="matrix(1.2419 0 0 1.2419 -12.169 -111.4)"><g clip-path="url(#clipPath340)"><path d="m451.1 672.68c-2.894-0.511-6.142-1.528-9.967-3.13-8.802-3.769-18.211-6.556-27.971-8.279-3.526-0.622-6.176-0.934-8.069-0.934h-0.01c-6.947-0.039-9.144-0.287-10.208-0.472-2.638-0.471-4.898-1.958-6.545-4.305-1.741-2.489-2.365-5.439-1.814-8.527 0.717-4.081 3.682-10.93 15.525-10.93 2.27 0 4.828 0.247 7.615 0.741 3.094 0.542 7.657 1.657 13.813 3.376-13.432-16.384-25.884-34.975-37.122-55.435-12.445-23.11-13.238-30.629-12.538-34.592 0.37-2.153 1.65-5.218 5.566-7.588 2.334-1.424 4.86-2.145 7.518-2.145 0.876 0 1.775 0.083 2.675 0.238 1.873 0.331 5.101 1.478 13.431 7.461 7.682 5.444 16.314 9.039 25.676 10.69 2.005 0.353 3.925 0.431 6.468 0.165 4.824-0.337 7.773-0.374 9.495-0.073 3.155 0.55 5.825 2.392 7.732 5.327 1.876 2.889 2.556 5.924 2.008 9.027-0.89 5.046-4.552 11.062-16.906 11.062-2.875 0-6.193-0.326-9.862-0.973-5.704-1.008-11.901-2.993-18.506-5.921 3.835 7.653 8.852 16.202 14.961 25.523 6.309 9.298 17.816 23.373 34.035 41.649 6.77 6.745 9.619 12.571 8.697 17.825-0.573 3.216-2.253 5.884-4.778 7.655-2.491 1.856-5.299 2.8-8.293 2.8-0.861 0-1.738-0.078-2.626-0.235m-56.987-24.301c-0.204 1.096-0.034 1.953 0.531 2.753 0.601 0.865 1.136 1.064 1.569 1.137 0.677 0.119 2.728 0.321 9.059 0.354 2.18 0 5.194 0.344 9.227 1.052 10.349 1.826 20.331 4.783 29.646 8.772 3.212 1.35 6.006 2.235 8.292 2.642 1.83 0.319 3.432-0.011 5.063-1.227 0.966-0.673 1.488-1.522 1.714-2.743 0.248-1.43-0.28-4.761-6.716-11.189-16.606-18.703-28.316-33.04-34.848-42.664-9.16-13.969-15.933-26.302-20.148-36.659l-4.098-10.066 9.524 5.239c9.635 5.292 18.387 8.658 26.027 10.01 3.221 0.565 6.088 0.855 8.517 0.855 8.484 0 9.067-3.292 9.315-4.692 0.125-0.716 0.171-1.861-0.883-3.48-0.977-1.5-1.949-1.826-2.595-1.937-0.112-0.02-0.592-0.087-1.829-0.087-1.414 0-3.371 0.087-5.662 0.249-2.938 0.31-5.789 0.224-8.479-0.252-10.494-1.853-20.185-5.888-28.821-12.008-7.607-5.464-9.905-6.076-10.287-6.146-1.759-0.302-3.322-0.027-4.85 0.905-1.573 0.95-1.883 1.778-1.976 2.329-0.315 1.772 0.201 8.203 11.716 29.574 13.275 24.165 28.267 45.659 44.575 63.882l9.153 10.237-13.144-3.971c-12.31-3.724-20.853-6.014-25.386-6.81-2.351-0.416-4.466-0.625-6.278-0.625-7.13 0-7.666 3.073-7.928 4.566" fill="url(#linearGradient376)"/></g></g><g transform="matrix(1.2419 0 0 1.2419 -12.169 -111.4)"><g clip-path="url(#clipPath386)"><path d="m520.02 745.2c-3.647-0.64-7.333-3.715-11.082-9.219-5.108-7.439-7.166-13.972-6.165-19.608 0.39-2.231 1.419-3.989 3.096-5.264 1.706-1.398 3.671-1.896 5.899-1.502 4.577 0.807 8.827 4.519 12.74 11.143 4.117 6.895 5.736 12.816 4.861 17.743-0.81 4.607-3.198 6.913-7.16 6.912-0.683 0-1.413-0.068-2.189-0.205m-21.935-71.241c-2.233-0.39-4.208-1.891-5.936-4.496-1.742-2.48-4.17-7.21-7.308-14.18-9.787-21.335-16.232-40.388-19.331-57.153-3.996-21.29-5.681-33.688-5.063-37.21 0.309-1.76 1.253-3.294 2.807-4.589 1.744-1.629 3.788-2.239 6.136-1.823 3.99 0.703 6.407 4.153 7.253 10.356 1.882 14.018 4.477 27.782 7.783 41.318 3.014 13.119 8.951 30.209 17.835 51.267 2.537 5.533 3.618 9.354 3.249 11.47-0.234 1.286-0.931 2.497-2.098 3.622-1.22 1.021-2.58 1.531-4.075 1.531-0.407 0-0.825-0.038-1.252-0.113" fill="url(#linearGradient422)"/></g></g><g transform="matrix(1.2419 0 0 1.2419 -12.169 -111.4)"><g clip-path="url(#clipPath432)"><path d="m519.35 749c-4.744-0.835-9.194-4.383-13.592-10.832-5.675-8.266-7.961-15.824-6.779-22.462 0.565-3.21 2.099-5.788 4.448-7.577 2.026-1.663 4.35-2.505 6.907-2.505 0.69 0 1.395 0.067 2.107 0.191 5.715 1.005 10.896 5.373 15.389 12.964 4.578 7.68 6.371 14.539 5.339 20.386-1.129 6.435-5.139 10.091-11.015 10.091-0.892 0-1.828-0.084-2.804-0.256m-11.145-34.817c-0.89 0.676-1.413 1.587-1.637 2.862-0.81 4.58 1.053 10.219 5.56 16.766 3.893 5.719 6.805 7.282 8.561 7.595 0.552 0.095 1.071 0.145 1.525 0.145 1.145 0 2.707 0 3.365-3.724 0.698-3.974-0.776-9.054-4.386-15.112-3.296-5.577-6.693-8.708-10.089-9.309-0.263-0.046-0.513-0.071-0.755-0.071-0.732 0-1.393 0.233-2.144 0.848m-10.789-36.424c-3.303-0.583-6.16-2.654-8.412-6.076-1.902-2.7-4.407-7.545-7.664-14.786-9.874-21.518-16.47-41.051-19.616-58.05-5.423-28.908-5.56-35.807-5.069-38.597 0.471-2.67 1.862-4.987 3.964-6.726 2.092-1.958 4.645-2.996 7.38-2.996 0.673 0 1.374 0.065 2.057 0.187 4.002 0.707 9.051 3.641 10.406 13.637 1.868 13.855 4.467 27.621 7.726 40.972 2.954 12.867 8.886 29.9 17.579 50.521 2.973 6.495 4.072 10.732 3.538 13.757-0.373 2.096-1.454 4.017-3.208 5.712l-0.212 0.192c-1.908 1.591-4.139 2.426-6.547 2.426-0.629 0-1.271-0.057-1.922-0.173m-31.692-118.46c-1.13 0.937-1.384 1.755-1.477 2.287-0.244 1.383-0.231 7.641 5.059 35.846 3.035 16.383 9.436 35.307 19.057 56.271 3.023 6.726 5.359 11.282 7.009 13.634 1.113 1.673 2.242 2.629 3.383 2.83 0.195 0.035 0.388 0.053 0.579 0.053 0.368 0 0.879-0.067 1.505-0.555 0.504-0.506 0.802-0.984 0.874-1.411 0.033-0.205 0.252-2.189-3.002-9.31-8.915-21.137-14.986-38.598-18.029-51.844-3.312-13.563-5.959-27.601-7.86-41.72-0.883-6.506-3.298-6.934-4.107-7.073-0.284-0.05-0.555-0.113-0.852-0.113-0.546 0-1.179 0.212-2.139 1.105" fill="url(#linearGradient468)"/></g></g><g transform="matrix(1.2419 0 0 1.2419 -12.169 -111.4)"><g clip-path="url(#clipPath478)"><path d="m185.3 741.01c-10.613-1.873-21.192-6.322-31.735-13.35-12.671-8.609-23.847-18.877-33.523-30.798-18.222-22.815-25.408-45.121-21.565-66.925 1.627-9.212 5.96-18.127 13.011-26.738 6.303-7.787 13.877-16.309 22.723-25.57 5.743-5.961 10.113-10.964 13.109-15.001 2.858-3.947 4.76-8.6 5.705-13.964 1.544-8.744-0.799-16.616-7.019-23.6-9.959-11.018-22.632-17.877-38.03-20.594-7.697-1.355-14.36-0.728-19.99 1.888-6.573 3.168-10.508 8.483-11.825 15.944-1.647 9.327 2.224 16.687 11.621 22.071 5.473 3.012 7.876 6.441 7.196 10.285-0.901 5.129-4.503 7.145-10.801 6.03-2.565-0.45-5.64-1.776-9.218-3.97-5.228-3.084-9.512-7.087-12.85-12.003-5.549-8.072-7.434-17.181-5.645-27.326 1.603-9.095 6.58-16.514 14.925-22.256 11.071-7.547 24.937-9.848 41.617-6.908 16.905 2.979 31.285 10.083 43.136 21.311 13.869 13.387 19.589 26.959 17.164 40.721-1.253 7.114-4.758 14.367-10.51 21.772-4.951 6.22-10.813 12.882-17.591 19.984-7.081 7.409-13.012 14.112-17.795 20.124-5.776 7.515-9.354 15.177-10.729 22.991-1.893 10.728 0.245 22.468 6.414 35.217 7.025 14.703 17.969 27.638 32.835 38.797 11.04 8.316 20.579 13.187 28.624 14.605 3.032 0.533 5.798 0.179 8.304-1.06 3.17-1.608 5.053-4.102 5.645-7.486 1.545-8.743-3.654-20.181-15.588-34.309-9.245-11.008-20.477-20.265-33.701-27.762-7.222-4.043-10.453-8.217-9.695-12.532 0.331-1.864 1.332-3.432 2.996-4.701 2.489-1.846 5.072-2.532 7.756-2.057 4.082 0.719 9.739 3.756 16.967 9.121 14.437 10.845 26.488 23.668 36.136 38.474 10.212 15.746 14.286 29.449 12.233 41.112-1.316 7.462-5.271 12.839-11.862 16.124-3.772 1.927-7.895 2.892-12.372 2.892-1.956 0-3.981-0.184-6.073-0.553" fill="url(#linearGradient506)"/></g></g><g transform="matrix(1.2419 0 0 1.2419 -12.169 -111.4)"><g clip-path="url(#clipPath516)"><path d="m244.02 629.99c-11.198-1.975-22.955-11.983-35.286-30.024-15.209-22.157-21.077-43.094-17.601-62.798 1.272-7.234 3.973-12.644 8.095-16.244 6.082-5.183 13.498-7 22.242-5.458 8.512 1.5 17.253 5.803 26.219 12.918 8.962 7.11 17.069 15.695 24.312 25.752 9.281 12.816 13.523 21.496 12.721 26.046-0.143 0.815-0.647 1.623-1.515 2.441-1.273 1.095-2.552 1.531-3.832 1.303-2.334-0.409-4.848-2.841-7.553-7.282-15.178-25.762-30.052-39.927-44.628-42.494-6.649-1.174-11.811 0.139-15.486 3.939-1.614 1.64-2.64 3.744-3.094 6.309l-0.554 3.148c22.416 11.287 37.865 27.296 46.355 48.033 4.128 9.977 5.651 18.063 4.561 24.242-0.698 3.964-2.78 6.906-6.241 8.82-2.029 1.044-4.119 1.566-6.278 1.566-0.803 0-1.615-0.072-2.437-0.217m-15.675-28.728c4.798 5.53 8.704 8.562 11.743 9.097 2.213 0.393 3.528-0.578 3.938-2.911 0.387-2.217-0.042-4.874-1.296-7.979-3.385-8.775-8.6-17.027-15.654-24.761-4.049-4.324-9.907-8.605-17.577-12.839 3.956 16.444 10.235 29.573 18.846 39.393" fill="url(#linearGradient544)"/></g></g><g transform="matrix(1.2419 0 0 1.2419 -12.169 -111.4)"><g clip-path="url(#clipPath554)"><path d="m366.73 643.87c-8.284-1.46-22.511-16.228-42.685-44.309-1.148-1.646-2.367-3.302-3.629-4.969 1.998 6.363 4.821 13.532 8.469 21.51 2.535 5.374 3.581 9.343 3.127 11.911-0.371 2.097-1.514 3.821-3.434 5.166-1.648 1.148-3.228 1.593-4.743 1.328-3.15-0.557-6.375-4.433-9.676-11.627-3.28-7.309-7.493-18.874-12.64-34.683-9.634-29.234-13.897-46.999-12.785-53.299 0.451-2.564 1.64-4.518 3.558-5.861 1.531-1.171 3.287-1.585 5.268-1.239 3.966 0.703 7.153 4.447 9.565 11.246 9.096 28.177 20.682 48.736 34.748 61.676-8.518-21.223-11.391-39.702-8.615-55.444 1.435-8.161 4.241-14.823 8.39-19.98 4.333-5.484 8.885-7.813 13.672-6.967 2.096 0.367 3.765 1.504 4.993 3.403 1.168 1.53 1.636 2.995 1.389 4.393-0.267 1.514-1.457 3.469-3.562 5.865-4.524 5.215-7.354 11.027-8.484 17.441-3.492 19.82 3.598 44.697 21.285 74.627 3.241 5.495 4.549 9.999 3.937 13.497-0.766 4.318-2.887 6.482-6.37 6.482-0.558 0-1.151-0.056-1.778-0.167" fill="url(#linearGradient582)"/></g></g><g transform="matrix(1.2419 0 0 1.2419 -12.169 -111.4)"><g clip-path="url(#clipPath592)"><path d="m450.7 666.79c-2.571-0.454-5.587-1.411-9.056-2.858-9.058-3.885-18.597-6.707-28.623-8.478-3.85-0.675-6.736-1.006-8.665-0.983-4.929-0.03-8.088-0.167-9.487-0.411-1.635-0.289-2.979-1.19-4.037-2.697-1.15-1.643-1.542-3.515-1.168-5.615 1.168-6.648 7.351-8.988 18.548-7.012 4.66 0.822 13.219 3.111 25.659 6.869-16.473-18.413-31.393-39.8-44.773-64.156-8.876-16.478-12.9-27.104-12.051-31.885 0.345-1.984 1.603-3.623 3.751-4.927 2.297-1.402 4.781-1.862 7.458-1.391 2.101 0.372 6.033 2.627 11.795 6.77 8.117 5.757 17.138 9.512 27.052 11.261 2.333 0.415 4.78 0.484 7.354 0.216 4.382-0.312 7.218-0.351 8.503-0.126 2.093 0.368 3.803 1.574 5.132 3.612 1.323 2.037 1.802 4.104 1.431 6.205-1.24 6.995-8.614 9.302-22.145 6.915-8.041-1.422-17.054-4.875-27.031-10.359 4.111 10.107 10.666 22.018 19.673 35.75 6.391 9.421 17.807 23.397 34.266 41.929 5.728 5.698 8.253 10.474 7.576 14.32-0.393 2.213-1.484 3.949-3.263 5.2-1.821 1.35-3.808 2.025-5.963 2.025-0.631 0-1.277-0.058-1.936-0.174" fill="url(#linearGradient620)"/></g></g><g transform="matrix(1.2419 0 0 1.2419 -12.169 -111.4)"><g clip-path="url(#clipPath630)"><path d="m518.49 742.59c-3.613-0.639-7.284-3.691-11.009-9.155-5.075-7.389-7.109-13.879-6.125-19.476 0.395-2.216 1.418-3.96 3.082-5.228 1.689-1.389 3.642-1.883 5.859-1.491 4.546 0.803 8.762 4.489 12.652 11.065 4.085 6.854 5.693 12.728 4.831 17.625-0.806 4.576-3.177 6.864-7.115 6.864-0.679 0-1.404-0.068-2.175-0.204m-21.785-70.753c-2.22-0.391-4.177-1.882-5.888-4.464-1.73-2.468-4.151-7.163-7.26-14.085-9.728-21.193-16.122-40.114-19.203-56.761-3.967-21.144-5.643-33.46-5.027-36.958 0.311-1.75 1.237-3.27 2.787-4.557 1.729-1.619 3.759-2.227 6.089-1.812 3.966 0.699 6.371 4.125 7.203 10.288 1.876 13.916 4.45 27.59 7.736 41.036 2.991 13.026 8.891 29.999 17.714 50.912 2.511 5.493 3.592 9.291 3.221 11.391-0.226 1.283-0.92 2.479-2.077 3.597-1.217 1.017-2.571 1.525-4.055 1.525-0.404 0-0.817-0.037-1.24-0.112" fill="url(#linearGradient658)"/></g></g><g transform="matrix(1.2419 0 0 1.2419 -12.169 -111.4)"><g clip-path="url(#clipPath668)"><path d="m184.53 740.7c-10.609-1.871-21.189-6.321-31.732-13.349-12.67-8.608-23.847-18.876-33.524-30.797-18.22-22.815-25.411-45.125-21.568-66.927 1.627-9.211 5.965-18.126 13.016-26.736 6.298-7.788 13.876-16.31 22.723-25.571 5.742-5.96 10.109-10.963 13.107-15.003 2.86-3.946 4.762-8.599 5.706-13.961 1.543-8.749-0.798-16.622-7.018-23.605-9.96-11.017-22.636-17.875-38.031-20.594-7.697-1.353-14.359-0.727-19.99 1.89-6.572 3.168-10.512 8.483-11.827 15.944-1.646 9.326 2.227 16.685 11.62 22.073 5.474 3.012 7.879 6.441 7.2 10.285-0.901 5.128-4.503 7.144-10.802 6.031-2.568-0.453-5.64-1.776-9.218-3.97-5.228-3.085-9.516-7.087-12.852-12.004-5.547-8.075-7.431-17.184-5.642-27.328 1.603-9.096 6.58-16.515 14.925-22.257 11.067-7.548 24.938-9.846 41.614-6.907 16.907 2.977 31.287 10.083 43.136 21.31 13.87 13.387 19.591 26.958 17.166 40.724-1.256 7.116-4.762 14.368-10.513 21.772-4.948 6.219-10.808 12.885-17.587 19.984-7.081 7.409-13.015 14.113-17.8 20.122-5.775 7.516-9.35 15.181-10.728 22.993-1.889 10.726 0.245 22.465 6.417 35.218 7.025 14.702 17.97 27.636 32.836 38.796 11.037 8.316 20.579 13.187 28.625 14.606 3.031 0.532 5.797 0.178 8.298-1.062 3.176-1.606 5.053-4.101 5.65-7.484 1.544-8.744-3.654-20.182-15.59-34.31-9.243-11.007-20.475-20.264-33.702-27.766-7.22-4.038-10.454-8.213-9.693-12.528 0.332-1.868 1.33-3.435 2.993-4.701 2.491-1.845 5.075-2.531 7.759-2.059 4.079 0.721 9.735 3.759 16.968 9.124 14.436 10.84 26.485 23.663 36.136 38.474 10.212 15.745 14.287 29.449 12.233 41.112-1.316 7.462-5.276 12.839-11.863 16.123-3.771 1.926-7.895 2.891-12.373 2.891-1.957 0-3.982-0.184-6.075-0.553" fill="url(#linearGradient696)"/></g></g><g transform="matrix(1.2419 0 0 1.2419 -12.169 -111.4)"><g clip-path="url(#clipPath706)"><path d="m243.24 629.68c-11.195-1.974-22.95-11.984-35.287-30.024-15.204-22.157-21.072-43.093-17.6-62.801 1.275-7.232 3.976-12.644 8.094-16.246 6.087-5.182 13.499-6.998 22.247-5.457 8.512 1.501 17.252 5.806 26.218 12.919 8.963 7.111 17.067 15.699 24.313 25.755 9.281 12.815 13.522 21.497 12.721 26.046-0.143 0.816-0.65 1.624-1.515 2.442-1.273 1.093-2.551 1.531-3.834 1.301-2.332-0.406-4.85-2.839-7.551-7.282-15.182-25.762-30.055-39.93-44.631-42.497-6.647-1.172-11.809 0.138-15.486 3.939-1.61 1.641-2.638 3.748-3.094 6.312l-0.554 3.149c22.414 11.288 37.867 27.298 46.356 48.033 4.129 9.977 5.653 18.064 4.563 24.243-0.699 3.962-2.783 6.905-6.246 8.82-2.025 1.043-4.116 1.565-6.275 1.565-0.803 0-1.616-0.072-2.439-0.217m-15.671-28.729c4.798 5.531 8.704 8.563 11.742 9.099 2.21 0.39 3.525-0.579 3.937-2.912 0.389-2.218-0.04-4.875-1.297-7.978-3.382-8.776-8.601-17.029-15.655-24.761-4.049-4.326-9.903-8.605-17.574-12.84 3.955 16.443 10.235 29.575 18.847 39.392" fill="url(#linearGradient734)"/></g></g><g transform="matrix(1.2419 0 0 1.2419 -12.169 -111.4)"><g clip-path="url(#clipPath744)"><path d="m365.96 643.56c-8.284-1.462-22.511-16.23-42.685-44.312-1.15-1.643-2.365-3.298-3.633-4.967 2.003 6.363 4.824 13.533 8.473 21.51 2.532 5.374 3.578 9.343 3.128 11.912-0.371 2.098-1.513 3.82-3.437 5.165-1.647 1.15-3.229 1.593-4.744 1.328-3.151-0.557-6.374-4.433-9.671-11.627-3.281-7.309-7.494-18.873-12.643-34.683-9.633-29.233-13.898-47-12.787-53.301 0.453-2.565 1.644-4.52 3.562-5.861 1.531-1.173 3.287-1.587 5.264-1.24 3.971 0.702 7.158 4.446 9.566 11.246 9.099 28.18 20.683 48.738 34.751 61.679-8.519-21.223-11.395-39.702-8.619-55.444 1.439-8.164 4.243-14.827 8.393-19.982 4.332-5.483 8.886-7.814 13.673-6.969 2.097 0.369 3.762 1.505 4.991 3.402 1.17 1.531 1.633 2.997 1.389 4.396-0.265 1.514-1.457 3.468-3.559 5.864-4.526 5.214-7.356 11.029-8.49 17.444-3.487 19.821 3.603 44.697 21.29 74.627 3.238 5.496 4.549 9.999 3.932 13.495-0.763 4.322-2.885 6.484-6.369 6.484-0.557 0-1.149-0.056-1.775-0.166" fill="url(#linearGradient772)"/></g></g><g transform="matrix(1.2419 0 0 1.2419 -12.169 -111.4)"><g clip-path="url(#clipPath782)"><path d="m449.93 666.48c-2.568-0.454-5.583-1.407-9.054-2.86-9.057-3.88-18.596-6.706-28.626-8.471-3.846-0.68-6.738-1.012-8.661-0.987-4.93-0.032-8.09-0.163-9.486-0.412-1.64-0.288-2.982-1.187-4.039-2.694-1.15-1.646-1.542-3.519-1.17-5.62 1.165-6.646 7.353-8.982 18.549-7.006 4.66 0.821 13.216 3.11 25.659 6.867-16.47-18.412-31.391-39.798-44.77-64.156-8.881-16.477-12.9-27.102-12.054-31.883 0.348-1.986 1.602-3.625 3.754-4.929 2.296-1.399 4.777-1.861 7.456-1.389 2.098 0.371 6.035 2.627 11.792 6.768 8.122 5.76 17.141 9.513 27.055 11.262 2.333 0.413 4.782 0.485 7.352 0.215 4.385-0.311 7.217-0.351 8.502-0.126 2.095 0.368 3.807 1.575 5.132 3.612 1.321 2.038 1.803 4.106 1.435 6.206-1.239 6.994-8.616 9.3-22.147 6.915-8.039-1.421-17.052-4.874-27.03-10.357 4.113 10.106 10.667 22.017 19.669 35.747 6.395 9.423 17.811 23.398 34.267 41.929 5.731 5.696 8.253 10.471 7.576 14.321-0.389 2.21-1.48 3.948-3.258 5.195-1.82 1.353-3.808 2.028-5.962 2.028-0.633 0-1.28-0.058-1.941-0.175" fill="url(#linearGradient810)"/></g></g><g transform="matrix(1.2419 0 0 1.2419 -12.169 -111.4)"><g clip-path="url(#clipPath820)"><path d="m517.72 742.28c-3.614-0.639-7.283-3.691-11.008-9.155-5.074-7.389-7.113-13.879-6.125-19.476 0.39-2.217 1.419-3.959 3.082-5.228 1.689-1.388 3.642-1.882 5.857-1.491 4.544 0.803 8.764 4.49 12.655 11.066 4.084 6.853 5.692 12.727 4.83 17.624-0.806 4.576-3.178 6.864-7.116 6.864-0.678 0-1.404-0.068-2.175-0.204m-21.787-70.754c-2.217-0.39-4.179-1.881-5.889-4.465-1.725-2.468-4.147-7.163-7.255-14.082-9.73-21.193-16.128-40.115-19.208-56.764-3.967-21.142-5.64-33.458-5.028-36.957 0.313-1.749 1.245-3.27 2.79-4.555 1.726-1.621 3.759-2.227 6.09-1.814 3.965 0.7 6.369 4.127 7.204 10.288 1.873 13.917 4.45 27.592 7.736 41.038 2.986 13.027 8.891 29.997 17.714 50.912 2.51 5.492 3.592 9.289 3.221 11.39-0.225 1.279-0.921 2.479-2.079 3.599-1.221 1.014-2.575 1.522-4.062 1.522-0.402 0-0.813-0.037-1.234-0.112" fill="url(#linearGradient848)"/></g></g><g transform="matrix(1.2419 0 0 1.2419 -12.169 -111.4)"><g transform="translate(295.97 460.57)"><path d="m0 0v32.935h-10.085v4.406h24.274v-4.406h-10.137v-32.935z" fill="#986319"/></g><g transform="translate(314.33 460.57)"><path d="m0 0v37.341h22.135v-4.406h-18.085v-11.412h16.94v-4.407h-16.94v-12.709h18.799v-4.407z" fill="#986319"/></g><g transform="translate(342.53 460.57)"><path d="m0 0v37.341h4.051v-32.934h15.079v-4.407z" fill="#986319"/></g><g transform="translate(366.65 460.57)"><path d="m0 0v37.341h22.134v-4.406h-18.084v-11.412h16.938v-4.407h-16.938v-12.709h18.797v-4.407z" fill="#986319"/></g><g transform="translate(403.88 460.57)"><path d="m0 0-11.888 37.341h4.382l7.984-27.128c0.612-2.106 1.145-4.143 1.606-6.112 0.477 2.054 1.02 4.092 1.632 6.112l8.29 27.128h4.126l-11.969-37.341z" fill="#986319"/></g><path d="m424.4 497.91h4.052v-37.341h-4.052zm-0.278 2.547 2.777 7.132h4.916l-4.586-7.132z" fill="#986319"/><g transform="translate(433.13 460.57)"><path d="m0 0v4.584l15.669 23.917c1.085 1.665 2.144 3.143 3.18 4.434h-17.091v4.406h21.931v-4.406l-17.168-25.905-1.859-2.623h19.537v-4.407z" fill="#986319"/></g><path d="m462.43 497.91h4.051v-37.341h-4.051z" fill="#986319"/><g transform="translate(478.98 475.9)"><path d="m0 0h10.431l-3.184 10.343c-0.984 3.175-1.706 5.756-2.164 7.743-0.395-2.394-0.954-4.773-1.679-7.132zm-8.786-15.333 11.809 37.341h4.331l12.542-37.341h-4.638l-3.56 11.31h-12.883l-3.33-11.31z" fill="#986319"/></g></g></g></svg>
