<svg width="2464.3pt" height="765.04pt" version="1.1" viewBox="0 0 2464.3 765.04" xmlns="http://www.w3.org/2000/svg">
 <g transform="translate(-169.45,-93.75)" fill="#1f1a17">
  <path d="m169.88 93.85 116.88-0.06 0.02 25.57-43.26-0.03 0.06 121.27-30.31 0.01 0.06-121.3-43.45 0.03z"/>
  <path d="m519.53 93.83 109.03-0.05 0.08 25.58-78.93-0.05 0.03 31.58 73.43 0.01 0.01 25.36-73.46-0.01-0.01 39.05 81.76-0.03-0.01 25.32h-111.96z"/>
  <path d="m1209.3 240.61 0.11-146.86 108.99 0.09 0.01 25.51-78.89-0.03 0.03 31.58h73.46v25.36h-73.49l0.01 39.06 81.72-0.06-0.02 25.31z"/>
  <path d="m1544.7 93.83h32.74l36.22 108.22 36.22-108.22h32.06l-52.64 146.76-32.06 0.01z"/>
  <path d="m1909.6 93.83 30.21-0.02 0.01 146.82-30.24-0.04z"/>
  <path d="m2177.6 93.84h107.76l0.04 23.53-80.11 98.05 83.21-0.16-0.02 25.33-119.53 0.02-0.02-27.14 76.95-94.26-68.29 0.14z"/>
  <path d="m2520.8 93.84 109.22 0.01v25.48l-78.9 0.02 0.02 31.51 73.3 0.03 0.01 25.39-73.32 0.01-0.03 38.98 81.62-0.03-0.01 25.37-111.94-0.03z"/>
  <path d="m870.89 94.99h30.3v120.3l73.4-0.03-0.02 25.34h-103.66z"/>
 </g>
 <g transform="translate(-169.45,-93.75)" fill="#007cc3">
  <path d="m169.45 747.26v-405.6h310.56v87.79h-183.96v69.92h157.02v82.395h-157.02v165.5z"/>
  <path d="m551.53 341.66h126.23v405.6h-126.23z"/>
  <path d="m766.86 341.66h126.18v305.06l195.37 0.02v100.52h-321.54z"/>
  <path d="m1143.2 747.26v-405.6h165.25l63.41 245.33 63.16-245.33h164.74v405.6h-103.06v-306.6l-78.7 306.6h-93.01l-78.565-307.52v307.52z"/>
 </g>
 <g transform="translate(-169.45,-93.75)" fill="#da251d">
  <path d="m1841.9 450.32c14.4-3.85 29.5-4.28 44.3-3.18 17.88 2.17 35.86 7.36 50.63 17.99 17.23 11.84 30.02 29.06 39.46 47.51 18.8 37.18 22.47 80.25 18 121.17-2.66 21.65-8.23 43.31-19.5 62.17-4.82 8.78-11.31 16.48-18.29 23.6-6.9 6.21-13.7 12.92-22.02 17.19-2.76 2-5.69 3.73-8.81 5.07-4.91 2.27-9.86 4.58-15.06 6.08-10.49 3.63-21.59 5.11-32.62 5.76-6.88-0.04-13.9 0.6-20.66-0.89-9.8-0.09-19.23-3.04-28.47-5.98-7.98-2.66-15.22-6.99-22.52-11.07-7.23-5.01-14.155-10.44-20.085-16.97v140.02h-114.32v-405.48h106.22l-0.13 42.985c11.04-14.17 23.72-27.62 39.48-36.57 7.81-3.87 15.9-7.37 24.4-9.41m-17.36 80.49c-8.44 2.44-16.55 6.64-22.46 13.26-5.26 4.9-8.44 11.54-10.95 18.17-3.83 10.83-5.05 22.37-5.45 33.79-0.32 13 0.56 26.2 4.55 38.65 4.18 13.18 13.84 24.6 26.38 30.51 11.76 4.62 25.51 5.79 37.23 0.41 10.74-4.63 18.77-14.3 22.81-25.13 3.97-10.69 5.47-22.14 5.9-33.48 0.6-17.93-0.2-36.75-8.51-53.04-5.43-9.59-13.86-17.95-24.37-21.74-8.05-2.9-16.79-2.5-25.13-1.4z"/>
  <path d="m2186.2 459.25c15.13-11.66 35.35-14.43 53.87-11.79 14.75 2.56 28.97 7.78 42.14 14.86-11.85 26.9-23.47 53.9-35.21 80.85-5.31-2.66-11.02-4.36-16.59-6.34-5.7-1-11.38-2.84-17.22-1.99-10.49-0.04-21.03 4.47-27.78 12.58-8.53 9.63-12.57 22.2-15.5 34.49-5.11 23.3-5.92 47.28-5.84 71.06v94.285h-113.82v-293.96h106.1c-0.16 15.63 0.18 31.28-0.18 46.92 7.75-15.07 16.43-30.39 30.04-40.96z"/>
  <path d="m2377.5 464.74c26.71-13.2 56.83-18.32 86.46-18.15 20.34 0 40.94 1.77 60.5 7.57 12.28 2.62 23.95 7.64 35.01 13.52 8.93 5.12 17.75 10.59 25.38 17.58 16.35 14.91 29.98 33.15 38.01 53.88 9.2 22.68 11.91 47.54 10.59 71.85-1.63 32.03-13.02 63.92-34.22 88.24-5.61 6.03-10.91 12.51-17.6 17.38-24.07 20.88-55.36 31.73-86.66 35.43-17.57 1.99-35.38 2.44-52.98 0.68-10.9-0.37-21.6-2.66-32.18-5.16-26.12-6.54-50.94-19.42-70.04-38.56-12.91-12.58-23.74-27.39-31.12-43.86-13.54-30.32-15.73-64.87-9.87-97.31 2.77-14.43 7.9-28.37 14.59-41.43 14.49-26.42 37.27-48.08 64.13-61.66m76.02 61.13c-16.34 3.63-30.07 15.7-36.61 30.99-7 16.26-8.07 34.33-7.46 51.82 0.71 14.83 3.12 30.1 10.76 43.08 2.94 5.48 7.68 9.64 12.04 13.97 4.56 4.55 10.78 6.72 16.6 9.18 13.72 3.87 29.26 3.03 41.74-4.26 11.36-6.52 19.68-17.68 23.75-30.05 5.19-15.26 5.87-31.63 5.49-47.61-0.57-12.71-2.35-25.64-7.63-37.32-6.19-14.54-19.43-25.85-34.72-29.76-7.91-1.46-16.06-1.46-23.96-0.04z"/>
 </g>
</svg>
