<svg width="1651.7pt" height="979.97pt" version="1.1" viewBox="0 0 1651.7 979.97" xmlns="http://www.w3.org/2000/svg">
 <path d="m154.31 0.12824c13.15-0.24 26.59-0.56 39.31 3.32 4.57 1.42 9.31 3.66 11.81 7.96 4.59 7.52 5.25 16.62 5.64 25.22 0.83 8.63 0.36 17.31 0.49 25.97 0.06 13.33-0.12 26.67 0.09 40 0.21 9.11 8.57 16.85 17.63 16.73 26.66 0.06 53.34-0.05 80 0.05 10.74 0.55 22.71 1.54 30.95 9.26 7.28 8.07 9.04 19.47 8.72 29.97 0.27 13.38-0.4 28.33-9.73 38.89-7.23 6.42-17.29 7.97-26.56 9.09-20.71 2.3-41.58 1.07-62.37 1.38-9.25 0.31-18.79-1.04-27.76 1.82-3.53 1.05-6.61 3.67-7.96 7.13-2.3 5.25-1.73 11.1-1.78 16.68 0.01 46.33 0 92.66 0 139-0.06 10.23 0.14 20.51 1.63 30.66 1.17 6.19 2.68 13.18 8.05 17.17 7.08 5.14 16.49 5.36 24.81 4.05 8.68-1.43 16.22-7.76 18.88-16.19 7.34-21.3 0.4-43.93 3.33-65.75 0.96-9.29 3.66-19.4 11.35-25.4 8.66-6.55 19.97-7.63 30.47-7.66 9.69 0.35 19.44 3.8 26.46 10.64 8.09 7.96 12.39 18.83 15.28 29.6 2.95 13.07 4.01 26.5 3.71 39.88 0.28 21.92-2.84 44.11-11.15 64.5-6.82 16.38-17.4 31.37-31.36 42.43-16.28 13.13-36.27 20.88-56.65 24.89-14.94 2.66-30.13 3.97-45.3 3.61-20.84-0.31-42.17-3.72-60.73-13.64-18.36-9.4-33.41-24.94-42.62-43.36-7.31-14.75-10.82-31.06-12.19-47.39-2.03-18.28-2.05-36.68-2.68-55.04 0.02-42.68 0.01-85.35 0.01-128.03-0.07-6.63 0.1-13.58-2.88-19.69-1.88-4.14-6.32-6.98-10.88-6.87-15.33-0.16-30.67 0.08-46-0.1-8.57-0.45-18.18-2.39-23.57-9.75-6.09-8.88-6.66-20.13-6.8-30.56 0.53-11 1.01-22.5 6.06-32.53 2.5-5.11 7.65-8.17 12.86-9.94 10.931-3.9461 22.494-4.419 34.014-4.8483 12.865-0.50591 23.893-0.66988 32.616-1.6817 5.86-1.69 6.37-8.9 6.95-13.96 0.65-22.32 0.04-44.67 0.36-67 0.61-9.59 4.5-19.23 11.79-25.68 7.0192-6.4811 16.004-9.98 25.241-12.052 6.5824-1.451 14.001-2.5784 20.459-2.7783z" fill="#0094da"/>
 <path d="m651.74 124.05c6.41-6.41 15.41-10.23 24.5-10.06 7.46-0.02 14.85 1.13 22.28 1.65 45.44 5.43 91.28 1.64 136.77-0.87 11.94-1.56 25.05-1.34 35.47 5.47 10.98 6.81 17.15 19.42 18.55 31.97 1.34 11.83 1.09 24.65-5.35 35.09-6.89 12.4-21.39 19.82-35.46 18.48-7.16-0.78-13.91-4.24-21.21-3.67-5.97 0.53-12.09 2.8-16.08 7.45-6.5 7.18-9.17 16.73-12.39 25.64-24.27 69.74-48.61 139.46-72.86 209.21-5.28 14.71-10.17 29.57-15.56 44.24-4.72 12.28-11.46 25.22-23.79 31.29-12.52 6.05-26.81 5.03-40.32 5.12h-47c-11.1 0.17-22.67-0.61-32.76-5.67-6-3.01-10.77-7.95-14.34-13.57-4.55-7.21-7.95-15.1-10.64-23.18-29.63-84.75-59.1-169.55-88.77-254.29-3.93-10.29-9.33-22.58-21.21-25.31-9.91-3.21-19.45 2.77-29.31 2.9-7.61-0.29-15.37-2.21-21.59-6.77-9.77-6.63-15.14-18.17-16.37-29.67-1.32-12.84 0.62-26.42 7.36-37.61 7.41-12.47 22.48-18.7 36.61-17.88 32.31 1.97 64.61 4.61 97.03 4.32 16.71 0.33 33.38-1.04 50-2.68 10.34-0.75 20.94-3.14 31.2-0.4 11.11 2.46 20.33 10.87 25.07 21.05 5.49 13.14 5.2 28.2 0.99 41.66-3.68 12.05-14.21 21.75-26.69 23.95-5.84 0.77-11.96 2.72-15.79 7.48-3.92 5.1-3.86 12.22-1.62 18.02 7.37 22.18 14.97 44.29 22.36 66.48 5.8 17.57 12.19 34.97 17.43 52.73 6.19 23.73 11.32 47.75 18.47 71.23 5.56-19.66 10.6-39.47 15.7-59.26 6.47-25.49 16.07-50.03 24.21-75.01 6.55-19.55 13.18-39.07 19.84-58.57 0.85-4.62 1.12-9.92-1.74-13.93-3.33-5.28-9.5-7.75-15.42-8.7-10.68-1.83-20.72-8.47-25.5-18.35-4.45-8.39-5.44-18.07-5.21-27.42-0.58-12.05 4.27-24.34 13.14-32.56z" fill="#0094da"/>
 <path d="m1173.4 115.31c12.197-1.5128 24.457-1.6319 36.722-1.466 12.747 0 18.453 0.46301 30.525 1.4516 5.5075 0.46133 10.997 1.2977 16.483 1.9243 25.03 3.59 49.71 9.6 73.59 17.92 18.95 6.29 36.96 14.97 55.37 22.63 16.96 7.19 33.84 14.67 51.31 20.55 5.05 2.15 10.36-0.24 14.79-2.74 9.15-5.58 16.68-13.39 23.57-21.51 11.44-13.94 26.34-25.61 43.78-30.84 8.98-2.72 18.45-2.49 27.73-2.07 20.69 1.34 40.7 9.61 56.78 22.63 13.16 10.63 24.1 24.04 31.99 39 11.25 21.02 15.73 45.11 15.64 68.8-0.44 24.44-8.07 48.14-18.3 70.14-15.78 33.52-36.96 64.18-59.66 93.34-24.77 31.65-51.55 61.66-79.51 90.5-11.89 12.8-23.27 26.07-34.79 39.21-23.83 28.08-47.55 56.44-67.51 87.45-23.01 36.01-36.68 78.93-33.68 121.89 2.61 45.8 16.96 90.71 13.17 136.87-2.34 21.38-9.65 43.15-25.13 58.66-13.61 14.46-32.48 22.85-51.65 26.99-18.77 3.74-38.07 4.04-57.09 2.35-21.41-2.21-42.59-8.49-61.11-19.58-30.35-17.85-51.53-48.31-62.92-81.17-7.71-22.03-11.34-45.29-12.76-68.52-1.44-34.16 0.31-68.62 7.37-102.14 8.02-40.22 23.53-78.95 45.62-113.51 21.88-34.77 49.26-65.75 78.64-94.33 5.79-5.21 11.32-10.68 17.02-15.97 28.75-25.12 58.83-48.64 88.73-72.36 13.583-10.378 26.922-21.074 40.043-32.023 3.8909-3.287 7.6637-6.3109 10.907-9.7466-15.49 2.64-31.05 5.54-46.82 5.69-43.26 1.81-85.97-10.48-124.48-29.5-15.29-7.24-29.59-16.31-44.48-24.3-16.02-8.95-32.16-17.77-48.99-25.11-5.5788-2.6798-12.398-1.75-17.374 1.7362-4.6672 3.0726-5.2105 6.7273-5.0499 11.542 0.377 10.829 2.9573 21.538 4.7235 32.212 3 14.6 5.29 29.34 7 44.15 2.53 22.93 1.33 46.89-7.49 68.44-6.57 16.28-18.21 30.45-33.01 39.92-18.87 12.13-41.67 16.81-63.86 16.8-20.9 0.48-42.55-2.94-60.68-13.9-15.65-9.26-27.27-24.42-33.48-41.39-8.16-21.78-8.27-45.57-5.58-68.38 1.3295-11.542 3.1154-23.037 4.6195-34.56 2.1925-13.847 3.1072-25.833 3.3737-38.463 0.2122-10.887-1.1747-21.783-1.9232-32.637-3.15-26.7-7.82-53.33-7.69-80.29 0.44-16.19 2.54-32.83 10.26-47.32 5.5-10.81 14.22-19.95 24.95-25.63 11.6-6.63 25.01-9.04 38.16-10.23 12.96-0.85 26.07 0.22 38.7 3.33 12.44 3.09 24.18 9.79 32.21 19.92 6.91 8.62 9.88 19.65 10.85 30.48 10.64-13.31 23.42-25.03 38.19-33.62 21.92-13.07 46.95-20.36 72.2-23.22" fill="#0094da"/>
 <path d="m690.71 548.93c1.65-1.07 3.74-0.97 5.61-0.65 5.78 2.09 7.49 9.48 5.64 14.82-1.24 4.08-4.89 6.64-8.24 8.92-6.54 4.41-12.97 8.98-19.51 13.39-2.85 1.6-5.86 3.93-9.31 3.46-3.44-0.94-2.3-5.25-0.55-7.27 5.58-7.4 11.16-14.81 16.65-22.29 2.96-3.68 5.51-7.97 9.71-10.38z" fill="#0094da"/>
 <path d="m998.67 600.53c6.2442-2.0162 13.115-1.3468 19.61-1.338 5.14 0.37 11.85 0.51 14.33 5.98 3.79 8.32 5.2 17.48 7.7 26.23 6.47 24.33 12.65 48.74 19.01 73.11 1.03 3.05 1.51 6.74 4.35 8.75 4.81 1.03 10.01-2.26 14.52 0.44 4.18 2.77 5.12 8.25 4.8 12.92 0.19 4.57-1.12 9.73-5.24 12.29-3.87 3.03-9 1.84-13.43 1.21-9.41-1.63-19.06-1.53-28.5-0.27-4.53 0.45-9.36 0.82-13.56-1.24-3.79-1.48-5.74-5.5-6.56-9.24-0.61-5.12-0.66-11.14 3.17-15.1 2.28-2.31 5.6-1.34 8.44-1.05 2.13 0.57 3.13-2 3.51-3.64 0.1-5.01-2.01-9.73-2.46-14.69-10.08-1.19-20.29-1.26-30.34 0.16-0.5 5.45-4.4 10.78-2.65 16.26 1.33 3.36 5.18 1.16 7.81 1.56 3.78 0.01 5.64 4 6.49 7.14 1.05 5.64 0.68 12.15-3.32 16.63-4.16 3.76-10.2 3.98-15.48 3.29-9.93-1.33-20.07-1.41-29.97 0.23-4.74 0.74-10.4 1.7-14.23-1.97-4.62-3.73-4.27-10.26-4.05-15.59 0.07-3.95 2.33-7.97 6.02-9.58 2.828-1.0744 12.082 2.3818 13.55 0.62 3.88-6.75 5.28-14.51 7.35-21.93 6.23-24.62 12.7-49.18 18.98-73.79 1.4607-4.8236 2.3444-10.441 5.5848-14.419 1.1951-1.6438 2.8111-2.4018 4.5654-2.9727zm5.0898 69.532 17.78 0.01-8.89-38.3z" fill="#0094da"/>
 <path d="m6.676 601.08c1.77-0.64 3.67-0.92 5.56-0.75 25.63 2.44 51.49 2.19 77.13 0.03 4.42-0.27 8.85 2.49 10.37 6.68 1.14 3.4 0.93 7.05 0.72 10.57-0.96 9.29-0.89 18.69 0.06 27.98 0.25 5.3 0.25 11.46-3.62 15.59-3.86 4.56-11.23 4.92-16.04 1.7-2.73-1.78-4.17-5.08-4.29-8.26-0.3-6.69 0.74-13.37 0.36-20.06-0.13-2.21-0.86-4.54-2.6-5.99-4.12-2.36-10.06 1.06-9.62 5.96-0.11 23.7 0.02 47.4-0.06 71.1 0.21 2.19-0.5 4.96 1.62 6.43 4.68 0.99 9.31-1.37 13.97-0.58 4.28 0.84 6.51 5.22 7.21 9.15 0.75 5.44 0.39 11.55-3.19 16-3.3 3.44-8.53 2.8-12.82 2.32-13.85-2.19-28-2.23-41.86-0.05-4.46 0.59-9.85 1.3-13.28-2.32-3.79-5.55-4.6-13.02-2.22-19.29 1.16-3.04 3.86-5.6 7.16-5.98 4.34-0.25 8.62 1.56 12.96 0.75 1.9-1.12 1.61-3.51 1.76-5.38 0.01-23.39-0.02-46.78 0.03-70.16 0.03-2.36-0.03-5-1.97-6.65-2.72-3.46-9.3-2.44-10.09 2.18-0.84 6.84 0.01 13.76 0.51 20.61 0.09 3.67-1.23 7.55-4.19 9.88-5.77 4.39-15.65 2.72-18.6-4.26-3.21-7.54-0.7-15.83-0.9-23.69 0.52-8.03-1.01-16.02-0.6-24.03 0.19-4.03 2.64-8.08 6.53-9.48z" fill="#0094da"/>
 <path d="m242.8 612.61c0.25-4.83 2.56-10.35 7.74-11.51 6.92-0.89 13.78 1.25 20.71 1.21 9.55 0.93 19.17 0.25 28.66-1.05 3.53-0.32 7.24-0.89 10.69 0.22 4.5 2.16 6.37 7.36 6.37 12.09 0.33 5.09-0.06 11.62-5.24 14.25-4.73 1.38-9.59-0.27-14.34-0.52-2.78-0.06-3.41 3.05-3.41 5.25 0.03 23.03 0.01 46.07 0.01 69.11-0.11 4.14 1.38 9.13 5.87 10.33 6.42 1.62 13.42 1.28 19.69-0.84 5.24-1.65 6.52-7.73 7.02-12.5 0.88-7.17-2.5-14.88 1.27-21.6 3.57-7.59 16.06-6.95 19.66 0.32 2.94 4.87 2.47 10.76 2.4 16.21-0.32 9.67-0.47 19.36-0.01 29.04 0.09 3.71 0.36 7.63-1.25 11.11-1.13 3.02-4.11 5.14-7.3 5.38-9.42 0.57-17.951-0.22324-28.16-1.15-8.7687-0.58507-15.362-0.57163-23.89-0.54-10.138 0.14342-19.59-0.02-29.3 1.44-2.9957 0.24976-9.54 1.34-13.24-1.73-3.87-3.2-4.29-8.75-4.06-13.41 0.3-4.61 2.22-10.03 7-11.62 5.07-1.02 10.16 1.44 15.25 0.32 0.89-4.89 0.76-9.88 0.71-14.82v-56c0.05-4.57 0.18-9.19-0.72-13.7-5.91-1.56-12.52 2.86-17.9-1.05-4.31-3.22-4.6-9.33-4.23-14.24z" fill="#0094da"/>
 <path d="m370.37 603.75c3.01-3.36 7.82-2.8 11.87-2.57 17.45 1.53 34.99 1.29 52.48 0.97 10.21-0.15 20.38-1.18 30.59-1.17 3.43-0.08 7.17 1.67 8.44 5.04 2.02 4.94 0.82 10.42 0.89 15.6-0.5 9.62 0.51 19.25 0.17 28.88-0.15 5.84-4.12 12.28-10.48 12.48-5.96 1.03-12.2-4.19-11.77-10.31-0.38-7.04 1.35-14.4-1.17-21.17-1.69-4.36-6.88-5.42-11.03-5.47-5.82-0.03-11.71-0.57-17.47 0.38-4.25 0.68-6.06 5.28-6 9.13 0.04 6.34-0.24 12.71 0.08 19.05 2.88 2.74 8.53 1.75 10.83-1.43 1.83-4.57-0.78-9.63 0.74-14.29 0.72-2.61 2.97-5.03 5.83-4.99 3.01-0.17 6.48-0.36 8.89 1.81 1.33 1.33 2.24 3.13 2.53 5.01 0.96 9.33-1.35 18.57-1 27.9-0.24 8.27 2.06 16.5 0.89 24.77-1.49 7.3-13.07 8.97-16.68 2.55-2.2-4.5 0.11-9.52-0.62-14.23-1.25-4.68-7.95-5.98-11.38-2.94-0.37 7.62-0.06 15.28-0.15 22.91-0.2 4.27 2.11 9.1 6.66 9.96 5.87 1.37 11.99 0.84 17.97 0.6 3.84-0.47 9.02-1.04 10.5-5.3 2.48-6.49 1.78-13.61 1.06-20.36-0.44-4.3 1.33-8.76 4.5-11.67 3.54-2.61 8.53-2.55 12.5-0.97 4.98 2.47 6.97 8.38 7.07 13.63 0.2 10.66-1.17 21.32-0.17 31.97 0.17 5.84 1.21 12.82-3.29 17.41-4.52 3.04-10.25 2.1-15.36 1.77-8.3-1.11-16.69-0.39-25-1.3-9.66-0.16-19.34-0.34-28.99 0.05-6.99 0.76-14.05 0.19-21 1.3-4.34 0.39-9.46 0.98-12.93-2.25-2.98-3.55-3.75-8.46-3.49-12.96 0.2-4.38 2.07-9.04 6.01-11.32 4.94-1.34 9.99 0.59 14.98 0.12 2.27-1.38 1.78-4.44 1.98-6.69 0.06-23.69-0.02-47.39 0.03-71.08 0.04-3.06-0.48-6.11-1.6-8.95-5.07 0.17-9.79 3.42-14.9 2.28-2.286-0.78457-4.2564-2.8911-5.1892-5.2247-0.78737-2.4286-1.3396-4.9468-1.3396-7.5181-0.1406-4.1296 0.76983-8.2931 3.5188-11.407z" fill="#0094da"/>
 <path d="m498.8 601.34c6.46-1.37 13.02 0.57 19.51 0.75 9.35 0.85 18.58-1.79 27.92-1.1 4.94 0.41 8.28 5.13 9.2 9.66 0.79 4.58 0.8 9.59-1.47 13.78-2.13 4.5-10.31 1.64-11.07 7.16 3.85 18.39 7.92 36.76 11.91 55.13 0.88 4.03 1.32 8.3 3.42 11.92 5.04-21.03 9.2-42.28 13.98-63.38 0.3-2.17 1.52-5.24-0.81-6.69-3.17-1.42-8.01-0.72-9.57-4.51-2.55-5.35-2.48-11.89-0.04-17.25 1.51-2.97 4.24-5.57 7.7-5.82 8.3-0.8 16.49 1.6 24.79 1.21 7.02 0.07 13.95-1.7 20.98-1.23 5.46 0.56 8.74 6.49 8.74 11.56 0.24 5 0.03 11.08-4.31 14.42-3.98 2.89-8.89-0.13-13.26 0.3-3.66 1.62-3.86 6.27-5.06 9.59-7.03 28.56-14.17 57.09-21.15 85.66-1.44 4.84-2.39 10.25-6.02 14.02-4.34 2.92-9.89 2.59-14.89 2.69-5.85-0.11-12.13 0.63-17.47-2.26-3.13-2.84-4.24-7.19-5.44-11.09-5.91-24.14-11.87-48.25-17.82-72.37-2.22-7.35-3.19-15.03-5.87-22.23-0.68-1.63-1.54-3.66-3.41-4.1-3.87-0.04-7.7 1.69-11.55 0.76-4.98-2.2-6.07-8.42-6.02-13.29-0.14-5.18 1.68-11.41 7.08-13.29z" fill="#0094da"/>
 <path d="m648.86 601.36c4.12-1.09 8.45-0.29 12.64 0 13.2 1.52 26.51 0.54 39.71-0.38 3.89 0.04 8.64-1.1 11.69 2.02 4.16 3.56 4.09 9.54 3.84 14.55-0.31 4.24-2.13 9.33-6.69 10.53-5.09 0.78-10.05-1.32-15.14-1.25-1.37 5.49-0.87 11.17-0.93 16.77 0 21.68 0 43.36-0.02 65.04-0.25 2.43 1.91 4.64 4.37 4.2 4.34-0.46 9.12-3.08 13.26-0.52 4.62 2.59 5.33 8.5 5.2 13.28 0.01 4.63-1.1 10.43-5.76 12.57-5.04 2.52-10.71 0.24-15.96-0.16-10.73-1.73-21.57-0.27-32.32 0.32-5.57 0.46-12.16 2.73-16.99-1.22-4.09-4.28-4.45-10.89-3.46-16.43 0.86-3.26 2.12-7.13 5.51-8.53 4.61-2.41 9.57 0.93 14.38 0.71 2.53-0.34 2.62-3.25 2.62-5.23 0-25.35-0.01-50.7 0-76.04 0.07-1.64-0.42-3.24-1.57-4.41-5.1-0.84-10.22 2.29-15.27 0.61-5.41-2.73-6.58-9.73-5.97-15.2 0.68-4.33 2.17-9.72 6.86-11.23z" fill="#0094da"/>
 <path d="m740.15 605.32c1.69-3.77 6.29-5.07 10.11-4.94 16.95 1.79 34.03 1.38 51.04 1.28 7.11-0.02 14.73-3.14 21.39 0.59 4.19 2.56 4.63 7.95 4.38 12.37 0.2 8.22-5.16 14.92-9.02 21.71-10.98 18.68-22.02 37.32-33.03 55.99-3.4 5.87-7.3 11.47-9.96 17.73 8.36-0.45 16.74 0.17 25.1-0.29 3.41-0.03 6.22-2.82 6.53-6.16 0.56-6.43-2.1-12.57-2.13-18.97-0.09-3.07-0.1-6.43 1.88-8.96 4.12-6.26 14.53-7.73 19.51-1.76 3.81 4.65 4.09 11 3.49 16.72-1 10.28-1.58 20.69-0.08 30.95 0.5 4.89 0.85 10.55-2.54 14.56-2.27 2.81-6.1 3.36-9.49 3.22-20.66-0.81-41.35-0.36-62.02-0.41-5.73-0.22-12.56 2.2-17.32-2.06-4.38-4.51-4.86-11.35-4.04-17.27 1.49-8.36 7.28-14.86 11.33-22.04 13.68-23.22 27.55-46.35 41.18-69.61-7-0.07-14-0.36-20.98 0.08-3.17 0-5.06 3.66-4.5 6.51 0.53 6.71 2.94 14.45-1.32 20.44-2.88 4.39-8.91 5.22-13.57 3.6-4.87-2.22-7.28-7.8-7.11-12.95 0.13-7.68 1.23-15.34 0.7-23.03-0.22-5.74-1.74-11.76 0.47-17.3z" fill="#0094da"/>
 <path d="m852.42 601.78c4.5-2.84 9.91-0.9 14.81-0.67 14 1.62 28.1 0.38 42.07-0.88 3.97-0.45 8.57 0.85 10.65 4.54 2.43 3.77 2.12 8.45 1.95 12.74-0.22 4.52-2.96 9.5-7.63 10.5-4.75 0.01-9.41-1.2-14.14-1.4-0.64 3.63-1.17 7.3-1.02 11 0.03 16 0 31.99 0.01 47.99 0.09 8.94-0.4 17.9 0.8 26.78 5.06 0.32 9.96-1.93 15.01-1.25 3.94 1.36 6.48 5.49 6.91 9.53 0.48 5.43 0.41 11.63-3.61 15.83-3.14 2.99-7.77 2.8-11.73 2.11-15.27-2.77-30.91-1.54-46.2 0.35-3.99 0.49-9.07-0.19-10.98-4.24-3.88-7.25-3.55-18.25 3.88-23.1 4.91-1.99 10.04 1.41 15.12 0.62 1.7814-0.47141 1.44-5.01 1.57-7.56-0.01-16.69-0.01-33.38-0.01-50.07-0.1-9.41 0.29-18.83-0.38-28.23-2.2156 0.20051-2.7157 0.27819-5.4807 0.67039-3.238 0.47887-7.2738 1.4981-9.7093 0.87961-5.21-1.53-7.13-7.39-7.38-12.26-0.18-5.03 1.14-10.84 5.49-13.88z" fill="#0094da"/>
 <g transform="translate(-187.71 -46.402)">
  <path d="m1311.3 197.64c15.873-7.146 32.814-11.703 50.04-14 11.102-1.3389 21.295-2.0277 33.195-2.0277 21.163 0 40.531 1.7457 59.134 5.5876 33.95 5.77 66.85 16.97 98.09 31.35 20.27 8.5 40.37 17.43 60.97 25.11 6.75 2.3 13.79 4.86 21.05 3.75 9.48-2.09 18.47-6.33 25.93-12.59 13.74-9.82 22.41-24.94 35.83-35.09 8.48-6.42 18.76-10.51 29.41-11.14 19.46 0.32 39.33 6.46 54.09 19.53 16.379 13.296 27.98 31.842 33.801 52.045 2.808 10.26 4.3119 18.654 5.1636 27.89 0.8533 9.56-1.0067 19.279-2.3144 28.756-3.9 18.92-11.37 36.88-20.18 54-17.8 34.07-41.11 64.85-65.14 94.71-13.62 16.29-27.55 32.32-41.94 47.91-12.21 13.13-24.94 25.77-36.59 39.41-26.8 29.79-52.68 60.47-76.25 92.91-9.93 14.13-19.61 28.53-27.4 43.98-10.87 22.37-19.2 46.2-22.31 70.96-1.5266 16.11-2.2814 36.125-0.64 51.3 2.09 28.99 8.78 57.38 11.42 86.31 3.25 21.53 2.27 44.21-6.25 64.48-6.73 16.03-20.86 28.33-37.06 34.23-11.82 4.95-24.68 6.37-37.34 7.35-12.34 0.17-24.8 0.42-36.96-1.95-19.13-3.02-37.88-10.11-53.27-22.02-17.75-13.19-30.87-31.89-39.46-52.12-7.64-17.21-11.76-35.77-14.46-54.34-2.5338-18.939-2.7515-41.017-2.13-56.95 1.1371-16.71 3.229-33.945 5.79-49.22 4.56-29.21 14.37-57.34 26.62-84.16 8.45-16.33 17.56-32.35 28.35-47.27 12.28-17.13 25.44-33.64 40.01-48.88 4.72-5.89 10.39-10.9 15.56-16.39 28.24-28.99 60.42-53.66 91.83-79.04 29.57-23.34 59.8-46 87.2-71.93 16.672-16.012 38.977-36.248 43.84-56.99-9.55 3.37-18.25 8.74-27.56 12.72-14.632 7.769-30.203 13.904-46.299 17.834-17.314 4.1423-33.706 5.7739-49.954 6.0761-9.509 0.17678-19.028 0.32484-28.387-1.4702-40.56-4.59-78.11-22.48-113.02-42.77-18.194-10.98-36.534-19.803-54.03-28.83-7.6952-3.3216-15.708-7.505-24.216-7.4818-4.4334 0.0528-8.2023 0.6507-11.657 1.7794-3.8139 1.2646-7.4385 3.1867-10.918 5.1524-7.4756 4.5735-13.513 12.245-14.921 20.95-1.3233 10.415 0.966 21.774 2.3908 30.94 1.93 13.23 4.99 26.25 7.1 39.45 2.7037 16.882 2.5725 33.668 2.25 49.57-0.6902 10.348-4.05 20.645-7.9 29.39-5.65 12.16-15.55 22.14-27.27 28.53-7.81 4.55-16.61 6.81-25.31 8.94-10.8 1.8924-21.875 1.9669-32.27 1.8-11.131-0.38888-21.792-2.9517-31.42-6.76-8.5854-3.4044-15.18-9.02-21.29-15.27-6.92-8.63-11.68-18.95-14-29.75-2.797-11.247-2.1451-22.859-1.9543-34.376 0.1106-4.4319 0.3202-8.7488 0.7776-12.831 0.7779-6.9439 1.5572-13.893 2.8067-20.773 1.44-11.95 2.83-23.91 4.28-35.87 1.3445-14.7 1.0918-28.643 0.15-42-2.81-33.04-10.32-65.78-8.54-99.1 1.4-11.62 3.88-23.56 10.67-33.33 7.19-10.22 19.41-15.82 31.53-17.45 3.6018-0.72473 7.2455-0.93863 10.904-0.97125 6.392-5e-3 11.936-0.10246 17.686 0.0662 10.167 0.31071 20.233 3.4389 28.69 9.125 5.7 4.5 9.73 11.12 10.9 18.32 2.1062 14.608 3.6225 62.516 6.76 97.35 2.73-8.4 5.34-16.85 8.45-25.13 4.33-11.91 7.92-24.11 13.2-35.66 6.89-13.82 16.08-26.75 28.14-36.54 8.07-6.83 17.26-12.19 26.6-17.09z" fill="#ed1b24"/>
 </g>
 <path d="m121.39 603.75c3.01-3.36 7.82-2.8 11.87-2.57 17.45 1.53 34.99 1.29 52.48 0.97 10.21-0.15 20.38-1.18 30.59-1.17 3.43-0.08 7.17 1.67 8.44 5.04 2.02 4.94 0.82 10.42 0.89 15.6-0.5 9.62 0.51 19.25 0.17 28.88-0.15 5.84-4.12 12.28-10.48 12.48-5.96 1.03-12.2-4.19-11.77-10.31-0.37999-7.04 1.35-14.4-1.17-21.17-1.69-4.36-6.88-5.42-11.03-5.47-5.82-0.03-11.71-0.57-17.47 0.38-4.25 0.68-6.06 5.28-6 9.13 0.04 6.34-0.24 12.71 0.08 19.05 2.88 2.74 8.53 1.75 10.83-1.43 1.83-4.57-0.78-9.63 0.74-14.29 0.72-2.61 2.97-5.03 5.83-4.99 3.01-0.17 6.48-0.36 8.89 1.81 1.33 1.33 2.24 3.13 2.53 5.01 0.96 9.33-1.35 18.57-1 27.9-0.24 8.27 2.06 16.5 0.89001 24.77-1.49 7.3-13.07 8.97-16.68 2.55-2.2-4.5 0.11-9.52-0.62-14.23-1.25-4.68-7.95-5.98-11.38-2.94-0.37 7.62-0.06 15.28-0.15 22.91-0.2 4.27 2.11 9.1 6.66 9.96 5.87 1.37 11.99 0.84 17.97 0.6 3.84-0.47 9.02-1.04 10.5-5.3 2.48-6.49 1.78-13.61 1.06-20.36-0.43999-4.3 1.33-8.76 4.5-11.67 3.54-2.61 8.53-2.55 12.5-0.97 4.98 2.47 6.97 8.38 7.07 13.63 0.2 10.66-1.17 21.32-0.17 31.97 0.17 5.84 1.21 12.82-3.29 17.41-4.52 3.04-10.25 2.1-15.36 1.77-8.3-1.11-16.69-0.39-25-1.3-9.66-0.16-19.34-0.34-28.99 0.05-6.99 0.76-14.05 0.19-21 1.3-4.34 0.39-9.46 0.98-12.93-2.25-2.98-3.55-3.75-8.46-3.49-12.96 0.2-4.38 2.07-9.04 6.01-11.32 4.94-1.34 9.99 0.59 14.98 0.12 2.27-1.38 1.78-4.44 1.98-6.69 0.06-23.69-0.02-47.39 0.03-71.08 0.04-3.06-0.48-6.11-1.6-8.95-5.07 0.17-9.79 3.42-14.9 2.28-2.286-0.78458-4.2564-2.8911-5.1892-5.2247-0.78737-2.4286-1.3396-4.9468-1.3396-7.5181-0.1406-4.1296 0.76983-8.2931 3.5188-11.407z" fill="#0094da"/>
</svg>
