<svg width="786.79pt" height="572.16pt" version="1.1" viewBox="0 0 786.79 572.16" xmlns="http://www.w3.org/2000/svg">
 <g transform="translate(-105.91 -63.886)" fill="#f07d00">
  <path d="m390.41 92.68c36.43-15.13 75.09-25.46 114.53-28.16 39.2-2.58 79.8 2.42 115.15 20.38 31.59 15.79 57.58 42.59 71.82 74.96 16.62 37.22 18.42 79.55 11.49 119.28-4.12 24.51-11.95 48.22-21.15 71.24-8.07 19.62-18.05 38.46-29.77 56.15-6.9 11.04-14.31 21.76-22.19 32.13l-7.95-7.93c12.22-18.36 23.22-37.59 31.9-57.89l0.18-0.22c3.72-6.76 5.92-14.29 8.68-21.49 14.15-40.88 19.77-85.56 10.64-128.17-7.23-34.39-25.36-66.62-52.06-89.62-23.95-21.01-54.29-33.95-85.57-39.09-30.59-5.15-62.04-3.42-92.36 2.73-30.73 6.32-60.42 17.24-88.37 31.41-4.67 2.45-9.45 4.73-13.81 7.7-61.53 35.03-115.14 84.71-152.58 144.98-27.27 44.39-46.08 95.47-45.79 148.07-0.66 41.71 14.38 84 43.19 114.47 2.13 2.28 4.3 4.54 6.52 6.74 8.05 6.54 16.02 13.33 24.86 18.85 9.21 5.92 19.03 10.87 29.18 14.97l-20.26 30.33c-19.1-6.3-37.44-15.32-53.29-27.79-26.29-20.35-45.18-49.65-53.85-81.67-4.5-16.52-6.86-33.66-6.79-50.78 0.23-31.9 6.21-63.6 16.77-93.67 21.8-62.03 60.11-117.39 106.6-163.52 20.07-19.78 41.72-37.97 64.75-54.22 3.79-2.67 7.7-5.17 11.3-8.1 24.57-16.59 50.89-30.6 78.23-42.07z"/>
  <path d="m574.25 408.88c27.17 27.19 54.42 54.33 81.53 81.59-27.17 0.08-54.34 0-81.52 0.04-0.03-27.21 0-54.42-0.01-81.63z"/>
 </g>
 <g transform="translate(-105.91 -63.886)" fill="#dadada">
  <path d="m443.75 96.98c30.32-6.15 61.77-7.88 92.36-2.73 31.28 5.14 61.62 18.08 85.57 39.09 26.7 23 44.83 55.23 52.06 89.62 9.13 42.61 3.51 87.29-10.64 128.17-2.76 7.2-4.96 14.73-8.68 21.49-0.11 0.04-0.32 0.14-0.43 0.18 8.63-20.11 13.81-41.67 16.18-63.4 4.23-40.24-3.81-82.8-27.4-116.23-21.49-30.91-54.51-52.31-89.84-64.21-49.08-16.52-102.36-17.15-152.98-8.03-19.81 3.58-39.33 8.68-58.38 15.16 4.36-2.97 9.14-5.25 13.81-7.7 27.95-14.17 57.64-25.09 88.37-31.41z"/>
  <path d="m199.83 213.84c32.96-32.09 71.15-58.7 112.35-79.09-3.6 2.93-7.51 5.43-11.3 8.1-23.03 16.25-44.68 34.44-64.75 54.22-46.49 46.13-84.8 101.49-106.6 163.52-10.56 30.07-16.54 61.77-16.77 93.67-5.33-17.2-7.29-35.31-6.77-53.27 0.99-35.31 12.14-69.7 28.45-100.8 16.92-32.1 39.58-60.95 65.39-86.35z"/>
  <path d="m143.2 429.14c4.64 24.79 17.6 47.58 34.98 65.67 25.51 26.69 59.29 44.17 94.34 54.77 84.31 24.92 178.6 12.76 254.28-31.81 11.89-6.96 23.29-14.73 34.2-23.13l-0.08 7.9c-31.19 23-65.38 42.03-101.7 55.63-40.91 15.4-84.43 24.23-128.19 24.69-43.32 0.49-87.29-7.27-126.42-26.36-3.57-1.68-6.92-3.82-10.63-5.15-0.27-0.25-0.8-0.75-1.07-1-2.22-2.2-4.39-4.46-6.52-6.74-28.81-30.47-43.85-72.76-43.19-114.47z"/>
 </g>
 <path d="m157.47 177.52 84.97-5.06-9.83 37.41 67.35 0.01-8.69 33.23h-67.24l-20.12 78.05c-1.27 5.58-3.76 11.38-2.05 17.13 1.83 5.59 8.14 7.4 13.36 8.04 9.59 1.09 19.29 0.28 28.92 0.54 10.78 0.34 21.54-1.56 31.65-5.27l-9.88 38.51h-80.84c-12.03 0.07-24.18-0.06-35.99-2.58-19.78-3.75-33.75-24.71-31.18-44.38 0.64-5.83 2.33-11.47 3.79-17.13l18.96-72.91h-35.06l8.56-33.26 34.99 0.01z" fill="#fff"/>
 <path d="m312.95 209.87h94.51c-6.97 14-5.17 30.16-3.2 45.11 3.91 30.61 7.76 61.23 11.72 91.84 25.12-37.86 50.3-75.69 75.29-113.64 4.35-7.04 7.12-15.05 7.83-23.31l50.84-0.01c-5.52 5.22-10.31 11.15-14.63 17.4-34.29 50.99-68.71 101.9-103.06 152.85h-91.33c-6.53-45.84-13.04-91.68-19.56-137.52-1.64-11.15-3.77-22.38-8.41-32.72z" fill="#fff"/>
 <path d="m615.98 209.87 78.16-0.01c-0.64 9.31-0.52 18.67-1.74 27.93 4.69-8.02 9.72-16.37 17.71-21.52 8.31-5.15 18.39-6.12 27.96-6.4 16.23-0.01 32.46-0.03 48.7 0.01l-14.5 55.97c-3.46-2.72-7.29-5.03-11.54-6.25-11.21-3.65-23.12-2.2-34.69-2.49-8.33 0.3-17.01-1.06-25 1.94-5.23 1.98-8.03 7.36-9.39 12.47-6.47 24.93-12.91 49.88-19.38 74.82-3 10.91-4.52 22.81-0.87 33.77l-98.19-0.01c6.09-8.91 11.13-18.6 14.06-29.04 4.41-15.16 8.03-30.53 12.1-45.79l16.65-64.26c2.47-10.16 3.62-21.11-0.04-31.14z" fill="#fff"/>
 <path d="m385.06 528.11h10.51l-6.48 10.26-8.51-0.02z" fill="#fff"/>
 <path d="m269.33 530.11c5.5 0 11.01-0.01 16.51 0.01-0.01 11.67 0.02 23.34-0.02 35.02-0.1 2.39 0.56 4.72 1.29 6.98-5.93-0.02-11.86-0.01-17.79-0.01 0.7-2.29 1.36-4.63 1.29-7.05-0.03-9.33-0.03-18.66 0-27.99 0.05-2.39-0.62-4.7-1.28-6.96z" fill="#fff"/>
 <path d="m441.59 530.11c5.08 0 10.17-0.01 15.26 0-0.01 2.75-0.01 5.49-0.01 8.24-5.08 0.01-10.17 0.01-15.25 0.01v-8.25z" fill="#fff"/>
 <path d="m640.41 530.09c5.55 0.03 11.11 0.01 16.68 0.02v29c0.04 4.35-0.47 8.84 1.08 13.01-4.8-0.02-9.6-0.01-14.39-0.01-0.13-0.55-0.37-1.65-0.5-2.21-3.04 2.83-7.4 2.1-11.19 2.24-3.74-0.09-7.59 0.24-11.2-0.87-2.86-1.04-4.6-4.13-4.52-7.1-0.06-5.39-0.1-10.78 0.02-16.17 0.02-3.51 3-6.71 6.54-6.82 4.74-0.17 9.5-0.1 14.25-0.04 1.7-0.13 3.07 0.96 4.51 1.71-0.21-4.27 0.4-8.7-1.28-12.76m-7.17 17.23c-3.08 1.78-1.12 6.67-1.67 9.73 0.51 2.8-1.59 8.28 2.54 8.77 2.37-0.22 6.24 1.24 7.36-1.68 0.19-5.33 0.32-10.69-0.1-16-2.27-1.8-5.48-1-8.13-0.82z" fill="#fff"/>
 <path d="m192.34 534.65 15.27-0.54-0.02 7h12.75v6h-12.75c0.16 5.63-0.52629 11.322 0.24 16.92 0.0598 0.43695 0.55835 1.363 0.98 1.46 4.353 1.0017 9.25 0.87 13.39-1.07-0.4 2.56-0.8 5.12-1.18 7.69-7.28-0.15-14.6 0.37-21.86-0.42-3.39-0.39-6.29-3.17-6.6-6.6-0.51-5.98-0.09-11.99-0.22-17.97l-4.75-0.01v-6h4.75z" fill="#fff"/>
 <path d="m227.42 543.43c2.57-2.49 6.38-2.4 9.71-2.35 7.02 0.15 14.04-0.16 21.05 0.13 3.33 0.03 6.31 2.57 6.95 5.82 0.79 4.14 0.38 8.39 0.45 12.58-8.51-0.02-17.02 0.04-25.52-0.04 0.33 1.99-0.58 5.35 1.98 6.1 3.01 0.39 6.06 0.14 9.09 0.19 4.66-0.12 9.5 0.62 13.93-1.25-0.41 2.49-0.79 4.99-1.17 7.5-8.91-0.02-17.82 0.02-26.74-0.01-3.47-0.17-7.7 0.08-10.1-2.96-2.78-3.74-2.1-8.7-2.24-13.07 0.12-4.26-0.56-9.26 2.61-12.64m13.37 3.79c-1.0734 0-0.84 4.1258-0.84 6.38 3.48 0.01 6.96 0.01 10.44 0 0-1.9366 0.30603-6.38-1.31-6.38z" fill="#fff"/>
 <path d="m332.51 541.1c6.12 0.02 12.23 0 18.35 0.01 0.38171 2.0187 0.83805 4.0233 1.6385 5.9025l7.0015 16.438c1.9398-5.6753 4.9704-11.035 6.8123-16.74 0.58894-1.8242 1.0564-3.6839 1.3277-5.6004 2.78 0 5.57 0.01 8.36 0-5.07 10.03-8.77 20.66-13.15 31h-16.66c-4.62-10.31-8.56-20.94-13.68-31.01z" fill="#fff"/>
 <path d="m377.01 541.1c5.44 0.02 10.88 0 16.33 0.01 0.01 7.65-0.02 15.3-0.01 22.95-0.05 2.74 0.45 5.46 1.31 8.07-5.92-0.03-11.83-0.03-17.74-0.01 1.97-5.1 0.97-10.64 1.19-15.95-0.17-5.03 0.67-10.23-1.08-15.07z" fill="#fff"/>
 <path d="m398.13 541.11h39.87c-5.89 8.27-11.83 16.5-17.76 24.75 6.12-0.32 12.57 1.02 18.36-1.54-0.46 2.58-0.85 5.19-1.23 7.79-13.65-0.02-27.31 0.02-40.96-0.02 6.05-8.38 12.28-16.61 18.34-24.97-5.93 0.15-12.1-0.77-17.75 1.52 0.39-2.51 0.75-5.03 1.13-7.53z" fill="#fff"/>
 <path d="m440.45 541.1c5.46 0.02 10.93 0 16.39 0.01 0 6.66 0 13.31-0.01 19.97 0 3.71 0.13 7.48 1.3 11.04-5.91-0.02-11.82-0.02-17.72 0.01 0.6-1.95 1.27-3.93 1.2-5.99-0.01-6.35-0.03-12.71 0-19.06 0.1-2.08-0.55-4.05-1.16-5.98z" fill="#fff"/>
 <path d="m464.89 541.11c10.09 0.03 20.17-0.06 30.26 0.03 3.65-0.27 6.97 2.56 7.99 5.93 1.6 8.26-1.13 17 1.64 25.06-5.09-0.15-10.2 0.22-15.27-0.18-0.18-0.55-0.53-1.66-0.7-2.21-1.31 1.14-2.74 2.32-4.59 2.23-4.74 0.26-9.51 0.24-14.25-0.01-3.37-0.12-7.15-2.25-7.37-5.95-0.33-3.85-0.82-8.01 0.67-11.67 1.65-3.2 5.63-3.36 8.78-3.26 5.46-0.22 11.07 0.72 16.42-0.75-0.22734-0.98515-0.57362-2.0858-1.2528-2.7296-0.4859-0.46059-1.0915-0.47041-2.0472-0.47041l-13.395-0.0842c-2.726-0.0171-5.4121 0.47936-8.0152 1.4142 0.38-2.45 0.75-4.9 1.13-7.35m13.495 16.943c-0.22336 0.42225-0.40716 0.90718-0.54288 1.4243-0.72004 2.7434-0.0871 6.3925 3.1683 6.3925l4.602 0.0416c0.80468 7e-3 1.5225-0.45214 2.118-1.0616 0.73-2.51 0.57-5.15 0.66-7.73l-7.3882 0.0252c-0.95657 0-2.2395 0.25358-2.6172 0.90792z" fill="#fff"/>
 <path d="m537.44 541.1c5.05 0.02 10.1-0.01 15.15 0.02-0.04 1.26-0.09 2.53-0.13 3.8 1.37-1.38 2.58-3.28 4.66-3.59 3.72-0.47 7.48-0.15 11.22-0.21 0 3.42-0.02 6.83 0.02 10.26-3.73-1.95-8.21-2.4-12.22-1.17-2.39 0.95-2.38 3.77-2.32 5.94 0.19 5.33-0.7 10.86 1.26 15.97-5.92-0.02-11.84-0.01-17.75-0.01 1.88-5.14 1.14-10.65 1.26-16-0.06-5.02 0.49-10.16-1.15-15.01z" fill="#fff"/>
 <path d="m661.91 541.1c5.47 0.02 10.95 0 16.43 0.01 0.15 7.57-0.29 15.17 0.19 22.72 0.93 3.26 5.21 1.81 7.69 1.97 2.97 0.06 2.31-3.74 2.4-5.71-0.46-6.32 1.01-12.9-1.17-18.99 5.46 0.02 10.93 0 16.39 0.02 0 7.33 0 14.66-0.01 21.99-0.05 3.05 0.39 6.09 1.31 9.01-4.72-0.12-9.44 0.2-14.14-0.14-0.2-0.43-0.61-1.29-0.82-1.71-1.51 0.95-3.14 1.84-4.98 1.77-5.08 0.11-10.18 0.26-15.24-0.19-2.81-0.18-5.67-1.98-6.4-4.8-1.58-8.57 1.03-17.56-1.65-25.95z" fill="#fff"/>
 <path d="m293.67 543.43c2.57-2.49 6.38-2.4 9.71-2.35 7.02 0.15 14.04-0.16 21.05 0.13 3.33 0.03 6.31 2.57 6.95 5.82 0.79 4.14 0.38 8.39 0.45 12.58-8.51-0.02-17.02 0.04-25.52-0.04 0.33 1.99-0.58 5.35 1.98 6.1 3.01 0.39 6.06 0.14 9.09 0.19 4.66-0.12 9.5 0.62 13.93-1.25-0.41 2.49-0.79 4.99-1.17 7.5-8.91-0.02-17.82 0.02-26.74-0.01-3.47-0.17-7.7 0.08-10.1-2.96-2.78-3.74-2.1-8.7-2.24-13.07 0.12-4.26-0.56-9.26 2.61-12.64m13.37 3.79c-1.0734 0-0.84 4.1258-0.84 6.38 3.48 0.01 6.96 0.01 10.44 0 0-1.9366 0.30603-6.38-1.31-6.38z" fill="#fff"/>
 <path d="m573.92 543.43c2.57-2.49 6.38-2.4 9.71-2.35 7.02 0.15 14.04-0.16 21.05 0.13 3.33 0.03 6.31 2.57 6.95 5.82 0.79 4.14 0.38 8.39 0.45 12.58-8.51-0.02-17.02 0.04-25.52-0.04 0.33 1.99-0.58 5.35 1.98 6.1 3.01 0.39 6.06 0.14 9.09 0.19 4.66-0.12 9.5 0.62 13.93-1.25-0.41 2.49-0.79 4.99-1.17 7.5-8.91-0.02-17.82 0.02-26.74-0.01-3.47-0.17001-7.7 0.08-10.1-2.96-2.78-3.74-2.1-8.7-2.24-13.07 0.12-4.26-0.56-9.26 2.61-12.64m13.37 3.79c-1.0734 0-0.84 4.1258-0.84 6.38 3.48 0.01 6.96 0.01 10.44 0 0-1.9366 0.30603-6.38-1.31-6.38z" fill="#fff"/>
 <path d="m746.9 541.11c10.09 0.03 20.17-0.06 30.26 0.03 3.65-0.27 6.97 2.56 7.99 5.93 1.6 8.26-1.13 17 1.64 25.06-5.09-0.15-10.2 0.22-15.27-0.18-0.18-0.55-0.53-1.66-0.7-2.21-1.31 1.14-2.74 2.32-4.59 2.23-4.74 0.26-9.51 0.24-14.25-0.01-3.37-0.12-7.15-2.25-7.37-5.95-0.33-3.85-0.82-8.01 0.67-11.67 1.65-3.2 5.63-3.36 8.78-3.26 5.46-0.22 11.07 0.72 16.42-0.75-0.22734-0.98515-0.57362-2.0858-1.2528-2.7296-0.4859-0.46059-1.0915-0.47041-2.0472-0.47041l-13.395-0.0842c-2.726-0.0171-5.4121 0.47936-8.0152 1.4142 0.38-2.45 0.75-4.9 1.13-7.35m13.495 16.943c-0.22336 0.42225-0.40716 0.90718-0.54288 1.4243-0.72004 2.7434-0.0871 6.3925 3.1683 6.3925l4.602 0.0416c0.80468 7e-3 1.5225-0.45214 2.118-1.0616 0.73-2.51 0.57-5.15 0.66-7.73l-7.3882 0.0252c-0.95657 0-2.2395 0.25358-2.6172 0.90792z" fill="#fff"/>
 <path d="m711.83 534.65 15.27-0.54-0.02 7h12.75v6h-12.75c0.16 5.63-0.52629 11.322 0.24 16.92 0.0598 0.43695 0.55835 1.363 0.98 1.46 4.353 1.0017 9.25 0.87 13.39-1.07-0.4 2.56-0.8 5.12-1.18 7.69-7.28-0.15-14.6 0.37-21.86-0.42-3.39-0.39-6.29-3.17-6.6-6.6-0.51-5.98-0.09-11.99-0.22-17.97l-4.75-0.01v-6h4.75z" fill="#fff"/>
</svg>
