<svg width="211.67mm" height="104.27mm" version="1.1" viewBox="0 0 211.67 104.27" xmlns="http://www.w3.org/2000/svg">
 <defs>
  <linearGradient id="a" x1="52.133" x2="52.133" y1="-.000537" y2="104.26" gradientUnits="userSpaceOnUse">
   <stop stop-color="#ec972e" offset="0"/>
   <stop stop-color="#e15b2e" offset="1"/>
  </linearGradient>
 </defs>
 <g transform="translate(122.84 -96.699)">
  <g transform="translate(-122.84 96.699)" fill="url(#a)" stroke-width="1.0668">
   <path d="m79.71 64.821v0.21335h22.946a52.484 52.484 0 0 0-0.43737-27.416l-14.145 17.804a124.12 124.12 0 0 1-8.3633 9.3981z"/>
   <path d="m59.857 77.675v-9.0887l16.087-20.162c2.9229-3.4456 5.2271-5.9525 8.15-9.0887v-0.21335h-22.455v-12.534h35.939a52.132 52.132 0 1 0 0 51.087z"/>
  </g>
  <g transform="matrix(1.0668 0 0 1.0668 -122.84 96.699)" fill="#fff">
   <path d="m94.842 81.015a8.14 8.14 0 0 1 1.5-0.13 2.48 2.48 0 0 1 1.75 0.49 1.51 1.51 0 0 1 0.48 1.15 1.59 1.59 0 0 1-1.14 1.54 1.51 1.51 0 0 1 0.89 1.22 9.64 9.64 0 0 0 0.47 1.66h-0.81a7.85 7.85 0 0 1-0.4-1.45c-0.18-0.84-0.5-1.15-1.21-1.18h-0.74v2.62h-0.78zm0.78 2.76h0.8c0.84 0 1.37-0.46 1.37-1.15s-0.57-1.12-1.39-1.13a3.21 3.21 0 0 0-0.77 0.07z"/>
   <path d="m109.13 84.135h-2.35v2.18h2.62v0.66h-3.4v-6.04h3.27v0.66h-2.49v1.91h2.35z"/>
   <path d="m121.35 86.715a5.64 5.64 0 0 1-1.86 0.33 2.84 2.84 0 0 1-3.11-3.05 3 3 0 0 1 3.28-3.13 3.74 3.74 0 0 1 1.51 0.28l-0.19 0.64a3.14 3.14 0 0 0-1.34-0.26 2.26 2.26 0 0 0-2.43 2.43 2.22 2.22 0 0 0 2.34 2.44 2.55 2.55 0 0 0 1-0.16v-1.8h-1.23v-0.63h2z"/>
   <path d="m129.65 80.935v6.05h-0.78v-6.05z"/>
   <path d="m142.47 83.895c0 2.08-1.27 3.19-2.81 3.19a2.78 2.78 0 0 1-2.72-3.07 2.88 2.88 0 0 1 2.81-3.18 2.76 2.76 0 0 1 2.72 3.06zm-4.7 0.1c0 1.29 0.7 2.45 1.93 2.45s1.94-1.14 1.94-2.52c0-1.2-0.63-2.46-1.93-2.46s-1.89 1.2-1.89 2.53z"/>
   <path d="m149.85 86.985v-6.05h0.85l1.94 3.06a17.15 17.15 0 0 1 1.09 2c-0.07-0.81-0.09-1.54-0.09-2.49v-2.57h0.74v6.05h-0.79l-1.92-3.07a19.23 19.23 0 0 1-1.13-2c0 0.76 0.06 1.49 0.06 2.5v2.59z"/>
   <path d="m163.07 85.085-0.63 1.9h-0.81l2.06-6.05h0.94l2.07 6.05h-0.84l-0.65-1.9zm2-0.61-0.59-1.74c-0.13-0.4-0.22-0.75-0.31-1.1-0.09 0.36-0.19 0.73-0.31 1.1l-0.59 1.75zm0.43-4.91-1.14 1.05h-0.65l0.84-1.05z"/>
   <path d="m173.91 80.935h0.78v5.4h2.59v0.66h-3.37z"/>
   <path d="m184.47 86.985v-6.05h0.85l1.94 3.06a17.15 17.15 0 0 1 1.09 2c-0.07-0.81-0.09-1.54-0.09-2.49v-2.57h0.74v6.05h-0.79l-1.92-3.07a19.23 19.23 0 0 1-1.13-2c0 0.76 0.06 1.49 0.06 2.5v2.59z"/>
   <path d="m198.41 79.555-1.15 1.05h-0.64l0.83-1.05zm-0.94 1.38v6.05h-0.78v-6.05z"/>
   <path d="m121.56 92.355h-1.84v-0.66h4.48v0.66h-1.85v5.39h-0.79z"/>
   <path d="m134.34 94.905h-2.35v2.18h2.62v0.66h-3.4v-6.05h3.26v0.66h-2.49v1.91h2.35z"/>
   <path d="m141.95 91.685h0.78v5.4h2.59v0.66h-3.37z"/>
   <path d="m155.65 94.905h-2.35v2.18h2.62v0.66h-3.45v-6.05h3.27v0.66h-2.49v1.91h2.35z"/>
   <path d="m164.67 97.735-2-6.05h0.84l0.94 3c0.26 0.82 0.49 1.55 0.65 2.26 0.17-0.7 0.42-1.46 0.69-2.25l1-3h0.84l-2.16 6.05z"/>
   <path d="m175.47 91.685v6.05h-0.78v-6.05z"/>
   <path d="m182.73 97.285 3.36-4.91h-3.07v-0.66h4.09v0.42l-3.34 4.9h3.39v0.66h-4.42z"/>
   <path d="m197.57 94.905h-2.35v2.18h2.62v0.66h-3.37v-6.05h3.27v0.66h-2.49v1.91h2.35z"/>
   <path d="m132.26 72.815-0.88-4.8h-0.29c-3.13 3.82-8 5.88-13.71 5.88-9.7 0-15.47-7.05-15.47-14.69 0-12.44 11.16-18.41 28.11-18.31v-0.69c0-2.55-1.37-6.17-8.72-6.17a26.93 26.93 0 0 0-13.22 3.62l-2.74-9.6c3.33-1.86 9.89-4.21 18.61-4.21 16 0 21.06 9.4 21.06 20.66v16.63a74.2 74.2 0 0 0 0.69 11.65zm-1.79-22.63c-7.83-0.1-13.91 1.76-13.91 7.54 0 3.82 2.55 5.68 5.88 5.68a8.13 8.13 0 0 0 7.74-5.48 10.68 10.68 0 0 0 0.29-2.55z"/>
   <path d="m164.72 45.135h0.2c1.08-2 2.25-3.92 3.43-5.78l9.7-14.4h17.92l-17.14 19.39 19.59 28.5h-18.32l-11.56-19.71-3.82 4.7v15h-14.88v-69.56h14.89z"/>
  </g>
 </g>
</svg>
