<svg width="4.021mm" height="2.7928mm" version="1.1" viewBox="0 0 4.021 2.7928" xmlns="http://www.w3.org/2000/svg">
 <defs>
  <clipPath id="a">
   <path d="m299.09 427.54h16.405v8.067h-16.405z"/>
  </clipPath>
 </defs>
 <g transform="translate(-74.214 -108.1)">
  <g transform="matrix(.35278 0 0 -.35278 -31.299 261.77)">
   <g clip-path="url(#a)">
    <g transform="translate(302.17 435.23)">
     <path d="m0 0c0.134-0.03-0.546-1.378-0.773-2.166-0.234-0.813-0.281-1.453 0.042-1.646 0.394-0.235 0.991-0.201 1.337-0.185 0.238 0.011 0.441 0.018 0.597 0.025 0.096 4e-3 0.187 0.013 0.242 0.014 0.043 0 0.075 0 0.096-8e-3 0.012-3e-3 0.023-0.013 0.024-0.025 0-0.01-3e-3 -0.02-8e-3 -0.03-9e-3 -0.014-0.026-0.036-0.071-0.064-0.236-0.149-1.214-0.496-2.247-0.589-0.427-0.039-0.591-0.045-0.829-0.021-0.357 0.035-0.545 0.216-0.565 0.517-0.036 0.541 0.638 1.856 0.888 2.286 0.093 0.16 0.459 0.781 0.656 1.082 0.223 0.338 0.469 0.696 0.561 0.785 0.014 0.013 0.031 0.029 0.05 0.025"/>
    </g>
    <g transform="translate(302.12 435.2)">
     <path d="m0 0c-0.092-0.089-0.337-0.447-0.56-0.785-0.198-0.3-0.563-0.921-0.657-1.082-0.25-0.43-0.924-1.745-0.888-2.286 0.02-0.301 0.208-0.482 0.565-0.517 0.238-0.024 0.403-0.017 0.829 0.021 1.034 0.093 2.012 0.44 2.248 0.589 0.045 0.028 0.061 0.05 0.07 0.065 6e-3 9e-3 8e-3 0.019 8e-3 0.029 0 0.012-0.012 0.022-0.024 0.026-0.021 7e-3 -0.052 7e-3 -0.095 7e-3 -0.056 0-0.146-0.01-0.243-0.014-0.156-7e-3 -0.359-0.014-0.596-0.025-0.347-0.015-0.944-0.049-1.338 0.185-0.323 0.193-0.276 0.833-0.042 1.647 0.227 0.788 0.907 2.135 0.773 2.165-2e-3 1e-3 -4e-3 1e-3 -6e-3 1e-3 -0.017 0-0.032-0.014-0.044-0.026"/>
    </g>
    <g transform="translate(299.96 435.61)">
     <path d="m0 0c-0.48 0-0.869-0.4-0.869-0.894v-3.727c0-0.494 0.389-0.895 0.869-0.895h3.666c0.48 0 0.869 0.401 0.869 0.895v3.727c0 0.494-0.389 0.894-0.869 0.894zm-0.667-4.474v3.422c0 0.504 0.327 0.861 0.834 0.861h3.353c0.507 0 0.825-0.35 0.825-0.854v-3.476c0-0.505-0.365-0.776-0.872-0.776h-3.385c-0.508 0-0.755 0.319-0.755 0.823"/>
    </g>
    <g transform="translate(299.96 435.61)">
     <path d="m0 0c-0.48 0-0.869-0.4-0.869-0.894v-3.727c0-0.494 0.389-0.894 0.869-0.894h3.666c0.48 0 0.869 0.4 0.869 0.894v3.727c0 0.494-0.389 0.894-0.869 0.894zm-0.667-4.474v3.422c0 0.504 0.327 0.861 0.834 0.861h3.353c0.507 0 0.825-0.35 0.825-0.854v-3.476c0-0.504-0.365-0.776-0.872-0.776h-3.385c-0.508 0-0.755 0.319-0.755 0.823"/>
    </g>
    <g transform="translate(307.19 434.75)">
     <path d="m0 0v-2.662c0-0.591-0.296-0.844-0.708-0.844-0.391 0-0.717 0.233-0.717 0.925v2.581h-0.236v-2.758c0-0.535 0.457-0.95 0.953-0.95 0.402 0 0.944 0.288 0.944 1.006v2.702z"/>
    </g>
    <g transform="translate(307.19 434.75)">
     <path d="m0 0v-2.662c0-0.591-0.296-0.844-0.708-0.844-0.391 0-0.717 0.233-0.717 0.925v2.581h-0.236v-2.758c0-0.535 0.456-0.95 0.953-0.95 0.402 0 0.944 0.288 0.944 1.006v2.702z"/>
    </g>
    <g transform="translate(310.17 434.75)">
     <path d="m0 0-0.677-1.571-0.678 1.571h-0.281l0.848-1.798-0.873-1.839h0.281l0.697 1.611 0.708-1.611h0.281l-0.863 1.834 0.838 1.803z"/>
    </g>
    <g transform="translate(310.17 434.75)">
     <path d="m0 0-0.677-1.571-0.678 1.571h-0.281l0.848-1.798-0.873-1.839h0.281l0.697 1.611 0.708-1.611h0.281l-0.863 1.834 0.838 1.803z"/>
    </g>
    <g transform="translate(299.09 429.21)">
     <path d="m0 0v-0.133h0.496v-1.381h0.185v1.381h0.505v0.133z"/>
    </g>
    <g transform="translate(299.09 429.21)">
     <path d="m0 0v-0.133h0.496v-1.381h0.185v1.381h0.505v0.133z"/>
    </g>
   </g>
  </g>
  <g transform="matrix(.35278 0 0 -.35278 74.214 110.36)">
   <path d="m0 0v-0.132h0.496v-1.382h0.184v1.382h0.506v0.132z"/>
  </g>
  <g transform="matrix(.35278 0 0 -.35278 74.8 110.36)">
   <path d="m0 0v-1.514h0.94v0.133h-0.755v0.578h0.53v0.132h-0.53v0.539h0.737v0.132z"/>
  </g>
  <g transform="matrix(.35278 0 0 -.35278 74.8 110.36)">
   <path d="m0 0v-1.514h0.94v0.133h-0.755v0.578h0.53v0.132h-0.53v0.539h0.737v0.132z"/>
  </g>
  <g transform="matrix(.35278 0 0 -.35278 74.8 110.36)">
   <path d="m0 0v-1.514h0.94v0.133h-0.755v0.578h0.53v0.132h-0.53v0.539h0.737v0.132z"/>
  </g>
  <g transform="matrix(.35278 0 0 -.35278 75.295 110.36)">
   <path d="m0 0v-1.514h0.954v0.133h-0.769v1.381z"/>
  </g>
  <g transform="matrix(.35278 0 0 -.35278 75.295 110.36)">
   <path d="m0 0v-1.514h0.954v0.133h-0.769v1.381z"/>
  </g>
  <g transform="matrix(.35278 0 0 -.35278 75.295 110.36)">
   <path d="m0 0v-1.514h0.954v0.133h-0.769v1.381z"/>
  </g>
  <g transform="matrix(.35278 0 0 -.35278 75.8 110.36)">
   <path d="m0 0v-1.514h0.94v0.133h-0.755v0.578h0.53v0.132h-0.53v0.539h0.737v0.132z"/>
  </g>
  <g transform="matrix(.35278 0 0 -.35278 75.8 110.36)">
   <path d="m0 0v-1.514h0.94v0.133h-0.755v0.578h0.53v0.132h-0.53v0.539h0.737v0.132z"/>
  </g>
  <g transform="matrix(.35278 0 0 -.35278 75.8 110.36)">
   <path d="m0 0v-1.514h0.94v0.133h-0.755v0.578h0.53v0.132h-0.53v0.539h0.737v0.132z"/>
  </g>
  <g transform="matrix(.35278 0 0 -.35278 76.59 110.36)">
   <path d="m0 0-0.319-1.272h-4e-3l-0.32 1.272h-0.203l0.394-1.514h0.255l0.401 1.514z"/>
  </g>
  <g transform="matrix(.35278 0 0 -.35278 76.59 110.36)">
   <path d="m0 0-0.319-1.272h-4e-3l-0.32 1.272h-0.203l0.394-1.514h0.255l0.401 1.514z"/>
  </g>
  <g transform="matrix(.35278 0 0 -.35278 76.59 110.36)">
   <path d="m0 0-0.319-1.272h-4e-3l-0.32 1.272h-0.203l0.394-1.514h0.255l0.401 1.514z"/>
  </g>
  <g transform="matrix(.35278 0 0 -.35278 76.846 110.29)">
   <path d="m0 0 0.095-0.103 0.476 0.271-0.134 0.131z"/>
  </g>
  <g transform="matrix(.35278 0 0 -.35278 76.846 110.29)">
   <path d="m0 0 0.095-0.103 0.476 0.271-0.134 0.131z"/>
  </g>
  <g transform="matrix(.35278 0 0 -.35278 76.846 110.29)">
   <path d="m0 0 0.095-0.103 0.476 0.271-0.134 0.131z"/>
  </g>
  <g transform="matrix(.35278 0 0 -.35278 77.063 110.36)">
   <path d="m0 0v-0.132h0.713l-0.741-1.268v-0.114h1.012v0.133h-0.79l0.73 1.269v0.112z"/>
  </g>
  <g transform="matrix(.35278 0 0 -.35278 77.063 110.36)">
   <path d="m0 0v-0.132h0.713l-0.741-1.268v-0.114h1.012v0.133h-0.79l0.73 1.269v0.112z"/>
  </g>
  <g transform="matrix(.35278 0 0 -.35278 77.063 110.36)">
   <path d="m0 0v-0.132h0.713l-0.741-1.268v-0.114h1.012v0.133h-0.79l0.73 1.269v0.112z"/>
  </g>
  <g transform="matrix(.35278 0 0 -.35278 77.792 110.89)">
   <path d="m0 0h0.2l0.157 0.411h0.54l0.159-0.411h0.199l-0.629 1.514zm0.626 1.099 0.227-0.565h-0.452z"/>
  </g>
  <g transform="matrix(.35278 0 0 -.35278 77.792 110.89)">
   <path d="m0 0h0.2l0.157 0.411h0.54l0.159-0.411h0.199l-0.629 1.514zm0.626 1.099 0.227-0.565h-0.452z"/>
  </g>
  <g transform="matrix(.35278 0 0 -.35278 77.792 110.89)">
   <path d="m0 0h0.2l0.157 0.411h0.54l0.159-0.411h0.199l-0.629 1.514zm0.626 1.099 0.227-0.565h-0.452z"/>
  </g>
  <path d="m76.83 110.89h0.06526v-0.53411h-0.06526z"/>
  <path d="m76.83 110.89h0.06526v-0.53411h-0.06526z"/>
  <path d="m76.83 110.89h0.06526v-0.53411h-0.06526z"/>
  <path d="m77.558 110.89h0.06526v-0.53411h-0.06526z"/>
  <path d="m77.558 110.89h0.06526v-0.53411h-0.06526z"/>
  <path d="m77.558 110.89h0.06526v-0.53411h-0.06526z"/>
 </g>
</svg>
