<svg width="600pt" height="287.82pt" version="1.1" viewBox="0 0 600 287.82" xmlns="http://www.w3.org/2000/svg">
 <g transform="matrix(.3264 0 0 .3264 180.66 511.56)" stroke-width="3.0638">
  <path d="m1284.8-870.02h-1838.3v-697.28h1838.3z" fill="#f9bd00"/>
  <path d="m710.19-1374.7c-104.57 0-142.13 40.901-142.13 103.13v91.361c0 30.883-6.005 36.796-15.901 36.949-10.172-0.1532-15.962-7.445-15.962-36.949v-186.8h-126.29c-45.221 0-78.983 21.171-102.73 84.222l-41.146 119.67c-3.891 10.662-8.5172 12.316-13.45 12.347-5.6679 0-11.091-3.4927-14.829-15.319l-13.879-29.473c34.314-16.023 46.263-43.046 46.263-72.825v-9.2219c0-48.836-28.248-89.4-143.54-89.4h-478.53v97.152h78.401l0.0613-20.374c0-6.4646 5.2084-11.673 11.704-11.673l31.526 0.031-0.0613 179.11c0 33.211 27.022 60.08 60.356 60.08l59.621-0.031v-67.219l-0.76595 0.092c-11.887 0-21.569-9.6508-21.569-21.569v-150.46l31.587-0.031c6.4952 0 11.704 5.2084 11.704 11.673v20.374h76.042v-1.0722 119.7c0 11.857-9.6202 21.477-21.599 21.477l0.03064 67.004h120.04l0.03064-115.9 10.049 0.061c15.962 0 29.933 7.5674 37.102 20.619l49.755 95.222h100.09c44.118 0 53.616-9.6508 67.985-45.711l17.555-49.02h70.589l-0.12254 94.731h645.01v-99.327h-79.106l0.092 20.404c0 6.4033-5.239 11.581-11.734 11.581l-70.466-0.1838v-55.178h59.192v-64.308h-59.192v-52.237l70.466 0.031c6.4952 0 11.734 5.2391 11.734 11.704l-0.092 20.404h79.106v-97.152l-259.53 0.2144v25.307c-22.12-19.792-58.426-33.211-113.48-33.211zm-0.21448 71.569h0.0306c24.234 0 43.873 7.9658 43.873 45.037l-0.12256 1.9302h71.447l1.5932 78.187-72.917 0.092v2.5123c0 37.102-19.639 45.068-43.873 45.068h-0.0306c-24.265 0-43.873-7.9657-43.873-45.068v-82.721c0-37.071 19.608-45.037 43.873-45.037zm-624.88 1.1336h38.113c37.225 0 45.344 13.205 45.344 28.952v0.061c0 15.748-8.0271 28.523-45.19 28.523l-38.266-0.092zm352.94 11.704v68.352l-51.195-0.061 9.1913-23.652c14.89-35.632 25.368-44.639 42.004-44.639z" fill="#fff"/>
 </g>
 <g transform="translate(.084533 -887.62)">
  <g transform="matrix(.24491 0 0 .24491 7.4096e-5 887.56)">
   <path d="m2044.2 729.26 19.39 356.17-1658.7 90.01-19.39-356.89z"/>
  </g>
  <g transform="matrix(.50979 -.026717 .026717 .50979 66.727 343.1)" fill="#fff" style="shape-inside:url(#rect882-8);white-space:pre" aria-label="CARIBBEAN">
   <path d="m42.017 1528c0-8.352 2.736-13.248 13.392-13.248 6.912 0 16.416 0.864 24.768 2.304l3.024-18.864c-9.504-2.016-18.144-3.024-27.792-3.024-24.192 0-34.992 11.952-34.992 29.376v40.032c0 17.424 10.8 29.376 34.992 29.376 9.648 0 18.288-1.008 27.792-3.024l-3.024-18.864c-8.352 1.44-17.856 2.304-24.768 2.304-10.656 0-13.392-4.896-13.392-13.248z"/>
   <path d="m147.78 1496.6h-28.8l-29.232 95.904h22.464l5.184-18.72h32.112l5.184 18.72h22.464zm-14.4 19.008 10.944 40.176h-22.032z"/>
   <path d="m243.39 1592.5h25.632l-23.184-32.832c9.648-4.032 13.968-12.096 13.968-24.048v-11.808c0-18-8.64-27.216-31.968-27.216h-39.888v95.904h21.6v-29.808h12.672zm-5.184-59.04c0 7.2-2.304 10.512-11.52 10.512h-17.136v-28.224h17.136c8.784 0 11.52 2.88 11.52 10.08z"/>
   <path d="m302.8 1592.5v-95.904h-21.6v95.904z"/>
   <path d="m390.8 1569.6v-9.36c0-8.928-6.192-15.84-14.112-17.712 7.632-3.312 10.656-8.208 10.656-15.12v-9.792c0-12.96-7.344-21.024-27.36-21.024h-37.872v95.904h40.896c19.152 0 27.792-9.36 27.792-22.896zm-25.056-40.464c0 3.888-2.88 6.768-8.64 6.768h-13.392v-21.888h13.392c6.048 0 8.64 2.592 8.64 6.768zm3.456 37.584c0 6.912-5.328 8.352-12.096 8.352h-13.392v-22.32h16.416c5.76 0 9.072 2.736 9.072 8.064z"/>
   <path d="m473.2 1569.6v-9.36c0-8.928-6.192-15.84-14.112-17.712 7.632-3.312 10.656-8.208 10.656-15.12v-9.792c0-12.96-7.344-21.024-27.36-21.024h-37.872v95.904h40.896c19.152 0 27.792-9.36 27.792-22.896zm-25.056-40.464c0 3.888-2.88 6.768-8.64 6.768h-13.392v-21.888h13.392c6.048 0 8.64 2.592 8.64 6.768zm3.456 37.584c0 6.912-5.328 8.352-12.096 8.352h-13.392v-22.32h16.416c5.76 0 9.072 2.736 9.072 8.064z"/>
   <path d="m547.26 1592.5v-19.152h-38.736v-20.88h35.712v-19.152h-35.712v-17.568h38.736v-19.152h-60.336v95.904z"/>
   <path d="m613.81 1496.6h-28.8l-29.232 95.904h22.464l5.184-18.72h32.112l5.184 18.72h22.464zm-14.4 19.008 10.944 40.176h-22.032z"/>
   <path d="m705.97 1592.5h26.64v-95.904h-20.592v66.096l-31.536-66.096h-26.496v95.904h20.592v-63.072z"/>
  </g>
 </g>
</svg>
