<svg width="900pt" height="671.61pt" version="1.1" viewBox="0 0 900 671.61" xmlns="http://www.w3.org/2000/svg">
 <defs>
  <radialGradient id="radialGradient1086" cx="-167.49" cy="-136.39" r="39.476" gradientTransform="matrix(-1.729 1.5354 -1.0612 -1.1951 -517.28 -78.549)" gradientUnits="userSpaceOnUse">
   <stop stop-color="#ffe8fc" offset="0"/>
   <stop stop-color="#ffecfe" offset=".16625"/>
   <stop stop-color="#fff9ff" offset=".95873"/>
   <stop stop-color="#fff" offset="1"/>
  </radialGradient>
  <linearGradient id="linearGradient1496" x1="566.43" x2="680.95" y1="193.85" y2="291.6" gradientUnits="userSpaceOnUse">
   <stop stop-color="#fff" offset="0"/>
   <stop stop-color="#ffe9f6" offset=".084982"/>
   <stop stop-color="#ffe9f6" offset=".14198"/>
   <stop stop-color="#fff" offset=".30551"/>
   <stop stop-color="#fef2f8" offset=".76436"/>
   <stop stop-color="#fbc7e3" offset="1"/>
  </linearGradient>
  <linearGradient id="linearGradient882-4" x1="-2.8023" x2="120.87" y1="201.78" y2="201.78" gradientTransform="scale(1.3333)" gradientUnits="userSpaceOnUse">
   <stop stop-color="#d03a77" offset="0"/>
   <stop stop-color="#e4699c" offset=".5"/>
   <stop stop-color="#f6c7db" offset=".81514"/>
   <stop stop-color="#fcebf2" offset="1"/>
  </linearGradient>
  <linearGradient id="linearGradient1122" x1="421.62" x2="451.21" y1="269.22" y2="312.49" gradientUnits="userSpaceOnUse">
   <stop stop-color="#e42f64" offset="0"/>
   <stop stop-color="#cf5788" offset="1"/>
  </linearGradient>
  <linearGradient id="linearGradient1168-8-8" x1="140.23" x2="105.71" y1="139.04" y2="148.66" gradientTransform="translate(.00051578 .00014604)" gradientUnits="userSpaceOnUse">
   <stop stop-color="#d43c78" offset="0"/>
   <stop stop-color="#e05d92" offset=".28325"/>
   <stop stop-color="#ee94bc" offset=".60276"/>
   <stop stop-color="#fbc7e3" offset="1"/>
  </linearGradient>
  <linearGradient id="linearGradient1437" x1="123.05" x2="143.91" y1="224.35" y2="212.55" gradientUnits="userSpaceOnUse">
   <stop stop-color="#fcebf2" offset="0"/>
   <stop stop-color="#fff" offset="1"/>
  </linearGradient>
  <linearGradient id="linearGradient1168-3-8" x1="112.49" x2="148.71" y1="108.93" y2="134.23" gradientTransform="translate(.00467 .006669)" gradientUnits="userSpaceOnUse">
   <stop stop-color="#cd2768" offset="0"/>
   <stop stop-color="#d43c78" offset="1"/>
  </linearGradient>
  <linearGradient id="linearGradient892-7" x1="22.475" x2="65.829" y1="130.28" y2="71.226" gradientTransform="translate(-.00024983 -2e-4)" gradientUnits="userSpaceOnUse">
   <stop stop-color="#ffe1f4" offset="0"/>
   <stop stop-color="#fda4cb" offset=".50129"/>
   <stop stop-color="#f9a8cd" offset="1"/>
  </linearGradient>
 </defs>
 <g transform="matrix(7.0168 0 0 7.0168 7248.3 -558.53)" fill="#fff" style="shape-inside:url(#rect840);white-space:pre" aria-label="HD">
  <path d="m-1015.2 125.62h3.18v-21.42h-3.18v8.58h-14.58v-8.58h-3.18v21.42h3.18v-10.08h14.58z"/>
  <path d="m-1007.4 125.62h11.04c6.57 0 9.18-5.04 9.18-11.01 0-6.21-2.94-10.41-9.36-10.41h-10.86zm3.18-2.76v-15.9h7.11c5.52 0 6.75 3.93 6.75 7.71 0 3.81-0.93 8.19-6.15 8.19z"/>
 </g>
 <g transform="matrix(2.9105 0 0 2.9105 386.89 -203.01)">
  <g transform="matrix(.75335 0 0 .75335 -63 64.055)">
   <path d="m92.04 74.12c13.39-33.97 45.21-59.3 80.74-66.56-7.9288 4.2646-14.562 8.7674-21.194 15.188-5.2758 4.6875-10.298 9.6516-14.606 15.262-6.74 7.71-11.62 16.84-15.92 26.08-3.07 7.75-6.4002 15.51-7.6002 23.82-1.07 7.29-2.6498 14.66-1.7398 22.06 2.2 17.94 11.21 34.66 23.98 47.31 11.48 11.03 25.43 19.74 40.75 24.23 10.21 3.04 21.05 3.11 31.51 1.55 21.75-4.47 41.62-17.75 53.69-36.44 3.76-6.41 7.14-13.21 8.33-20.62 1.96-13.08 1.71-27.2-4.78-39.07-9.1651-15.771-24.125-25.394-41.082-25.348-26.26 0-45.629 21.27-45.629 46.389 0.0659 6.003 1.3327 11.966 3.9802 17.439 4.75 10.49 13.91 17.8 21.26 26.35-15.37 1.12-30.86-6.14-40.3-18.23-6.951-8.433-10.618-19.34-10.508-30.23 0-24.341 18.204-51.259 35.178-63.02 15.09-10.2 33.9-14.16 51.91-12.51 20.32 2 39.96 11.29 53.98 26.2 13.25 14.12 21.31 32.81 23.17 52.03 1.1 14.71 0.53 29.76-4.07 43.88-4.47 15.52-12.62 29.84-22.94 42.21-20.303 24.809-50.323 41.462-84.082 41.462-36.705 0-70.448-16.378-91.658-38.972-10.92-10.41-19.23-23.45-24.33-37.63-4.2786-12.959-6.45-26.62-6.4531-40.258 0-14.66 3.5988-30.5 8.4131-42.572z" fill="#fff"/>
  </g>
  <g transform="matrix(.75335 0 0 .75335 129.65 199.87)">
   <path d="m-82.942-172.72c-34.044 6.9564-64.67 30.509-78.952 62.351l22.843 5.5708c1.3424-3.841 2.8956-7.6185 4.3906-11.393 4.3-9.24 9.1792-18.369 15.919-26.079 4.3082-5.6104 9.331-10.574 14.607-15.262 6.6322-6.4205 13.264-10.924 21.193-15.188z" fill="url(#radialGradient1086)"/>
  </g>
  <g transform="matrix(.75335 0 0 .75335 -63 64.054)" fill="#f6c7db">
   <path transform="matrix(.99556 0 0 .99556 -463.65 -84.923)" d="m550.69 188.65c-0.62126 4.636-0.9668 9.3049-0.9668 13.861 3e-3 13.699 2.1828 27.421 6.4805 40.438 5.1228 14.243 13.471 27.342 24.439 37.799 21.304 22.694 55.198 39.146 92.066 39.146l37.371-32.35c8.1721-18.741 3.0896-26.166-5.5723-30.836-9.0596 5.9934-19.255 10.279-29.898 12.467-10.507 1.567-21.395 1.4969-31.65-1.5566-15.388-4.51-29.4-13.259-40.932-24.338-12.827-12.706-21.878-29.501-24.088-47.521-0.19147-1.557-0.25226-3.1121-0.25196-4.666z" fill="url(#linearGradient1496)" stroke-width="1.0045"/>
  </g>
  <path transform="scale(.75)" d="m0 202.62c0.0031733 13.699 2.1847 27.421 6.4824 40.438 5.1227 14.243 13.469 27.34 24.438 37.797 21.304 22.694 55.198 39.146 92.066 39.146 16.203 0 31.546-3.8258 45.379-10.533l-8.0078-21.816c-72.704 30.425-154.08-1.511-160.36-85.031z" fill="url(#linearGradient882-4)" stop-color="#000000" stroke-miterlimit="10" stroke-width="10" style="paint-order:stroke fill markers"/>
  <g transform="translate(-262.37 -59.779)">
   <path transform="scale(.75)" d="m424.14 245.89c-2.9401 7.5557-4.7051 15.395-4.7051 22.984-0.11096 10.939 3.5727 21.895 10.555 30.365 9.4821 12.144 25.042 19.436 40.48 18.311-29.8-10.235-56.61-27.665-46.33-71.66z" fill="url(#linearGradient1122)" stroke-width="1.0045"/>
  </g>
  <path d="m154.44 135.29c-0.80022-1.977-14.917 1.9868-14.219 3.7031 1.3869 6.5213 1.1497 13.424 0.16698 19.982-0.89648 5.5823-3.4428 10.706-6.2754 15.535-4.6631 7.2207-10.874 13.365-18.026 18.097l1e-3 3e-3 4.1792 23.127c28.473-18.724 36.954-43.311 37.126-63.098 0.0535-6.1292-0.96399-11.964-2.9531-17.348z" fill="url(#linearGradient1168-8-8)" stroke-width=".75334"/>
  <path d="m137 201.88c-4.6019 4.8465-10.123 9.5125-16.734 13.86l6.0059 16.361c8.0233-3.8912 15.371-9.0727 21.81-15.231z" fill="url(#linearGradient1437)" stroke-width=".75334"/>
  <path d="m108.77 104.6c-8.8873 0.20925-21.744 5.5512-28.359 17.13l4e-3 7e-3c6.1618-6.8906 15.084-11.281 25.433-11.281 12.774-0.0345 24.045 7.2146 30.949 19.096 1.642 3.0031 2.7429 6.1992 3.4395 9.4907l14.209-3.75c-3.2495-8.7912-9.0925-16.375-17.123-22.05-7.7543-5.4801-18.357-8.8826-28.553-8.6426z" fill="url(#linearGradient1168-3-8)" stroke-width=".75334"/>
  <path d="m67.162 69.75c-34.149 16.004-43.47 38.428-44.688 60.53 0.90402-6.2603 3.4118-12.106 5.7246-17.944 3.2394-6.9609 6.9166-13.838 11.994-19.646 3.2456-4.2266 7.028-7.9662 11.002-11.498 4.9964-4.8369 9.9937-8.2292 15.967-11.442z" fill="url(#linearGradient892-7)" stop-color="#000000" stroke-miterlimit="10" stroke-width="7.5001" style="paint-order:stroke fill markers"/>
 </g>
 <g transform="matrix(1.3548 0 0 1.3548 270.94 -158.2)" fill="#fff">
  <path d="m86.6 514.61h68.06l-1.25 5.8305h-30.71l-15.767 90.05h-6.2031l15.76-90.05h-30.9z"/>
  <path d="m156.36 514.61h6.195l18.125 87.64 49.26-87.64h6.5l-54.32 95.88h-5.54z"/>
  <g transform="matrix(1.9539,0,0,1.9539,198.18,471.05)" stroke-width="3.7795">
   <path d="m49.833 25.089v29.179c0 11.351-6.4966 18.124-19.028 18.124-9.5417 0-15.282-4.2818-17.976-11.683-0.75669-2.0117-0.20303-2.9714 1.8087-3.7281l7.1795-2.5654c2.0856-0.75669 3.0453-0.40603 3.8759 1.6611 1.1812 2.7684 2.6393 4.2266 5.3892 4.2266 3.396 0 5.057-1.9379 5.057-5.9614v-29.253c0-2.1409 0.68288-2.8976 2.8976-2.8976h7.9543c2.1594 0 2.8423 0.75673 2.8423 2.8976"/>
   <path d="m75.904 21.196c13.621 0 21.243 7.401 21.243 19.36v12.458c0 11.96-7.6225 19.36-21.243 19.36-13.695 0-21.299-7.401-21.299-19.36v-12.458c0-11.96 7.604-19.36 21.299-19.36m0 12.107c-4.8355 0-7.604 2.2701-7.604 6.6444v13.695c0 4.3559 2.7684 6.6258 7.604 6.6258 4.7803 0 7.5488-2.2701 7.5488-6.6258v-13.695c0-4.374-2.7684-6.6444-7.5488-6.6444"/>
   <path d="m136.21 25.089v29.179c0 11.351-6.4966 18.124-19.028 18.124-9.5417 0-15.282-4.2818-17.976-11.683-0.75669-2.0117-0.20303-2.9714 1.8087-3.7281l7.1795-2.5654c2.0856-0.75669 3.0453-0.40603 3.8759 1.6611 1.1812 2.7684 2.6208 4.2266 5.3892 4.2266 3.396 0 5.057-1.9379 5.057-5.9614v-29.253c0-2.1409 0.68288-2.8976 2.8976-2.8976h7.9547c2.1409 0 2.8423 0.75673 2.8423 2.8976"/>
  </g>
 </g>
 <g transform="matrix(3.1165 0 0 3.1165 308.53 -1415.7)">
  <path d="m63.75 588.9a31.875 31.875 0 0 1-31.875 31.875 31.875 31.875 0 0 1-31.875-31.875 31.875 31.875 0 0 1 31.875-31.875 31.875 31.875 0 0 1 31.875 31.875z" fill="#df364f" stop-color="#000000" stroke-miterlimit="10" stroke-width="1.1334" style="paint-order:stroke fill markers"/>
  <g transform="matrix(.99999 0 0 1 -46.663 -126.31)" fill="#fff" stroke-width=".76446">
   <path d="m79.775 702.59 5.8061-1.9991h5.2786v27.75h-7.9466v-21.065h-3.1381z"/>
   <path d="m65.675 712.22h-6.207v4.2587h6.207v6.4513h4.2732v-6.4513h6.2074v-4.2587h-6.2074v-6.383h-4.2732z"/>
  </g>
 </g>
</svg>
