<svg width="623.09pt" height="599.86pt" version="1.1" viewBox="0 0 623.09 599.86" xmlns="http://www.w3.org/2000/svg">
 <defs>
  <clipPath id="k">
   <path d="m81.71 477.9 9.8585-5.6918 5.6567 9.7976-9.8585 5.6918z"/>
  </clipPath>
  <clipPath id="j">
   <path d="m92.62 481.62c0-0.555-0.144-1.076-0.396-1.529-0.044-1.46-1.223-2.635-2.685-2.672 1.999 0.033 3.659 1.463 4.046 3.355-0.164 0.691-0.555 1.294-1.09 1.725 0.081-0.279 0.125-0.574 0.125-0.879"/>
  </clipPath>
  <mask id="c" x="0" y="0" width="1" height="1" maskUnits="userSpaceOnUse">
   <g clip-path="url(#i)">
    <path d="m89.539 482.5h4.046v-5.08h-4.046z"/>
    <g clip-path="url(#h)">
     <g clip-path="url(#g)">
      <path d="m89.539 477.42h4.046v5.08h-4.046z" fill="url(#b)"/>
     </g>
    </g>
   </g>
  </mask>
  <clipPath id="i">
   <path d="m89.539 482.5h4.0456v-5.08h-4.0456z"/>
  </clipPath>
  <clipPath id="h">
   <path d="m89.539 482.5h4.0457v-5.08h-4.0457z"/>
  </clipPath>
  <clipPath id="g">
   <path d="m89.539 477.42h4.0456v5.0796h-4.0456z"/>
  </clipPath>
  <radialGradient id="b" cx="0" cy="0" r="1" gradientTransform="matrix(4.2123 0 0 4.2123 89.489 481.63)" gradientUnits="userSpaceOnUse">
   <stop offset="0"/>
   <stop offset=".8"/>
   <stop stop-color="#b1b3b4" offset="1"/>
  </radialGradient>
  <clipPath id="f">
   <path d="m89.539 482.5h4.0456v-5.08h-4.0456z"/>
  </clipPath>
  <clipPath id="e">
   <path d="m89.539 477.42h4.0456v5.0796h-4.0456z"/>
  </clipPath>
  <radialGradient id="a" cx="0" cy="0" r="1" gradientTransform="matrix(4.2123 0 0 4.2123 89.489 481.63)" gradientUnits="userSpaceOnUse">
   <stop stop-color="#e42224" offset="0"/>
   <stop stop-color="#e42224" offset=".8"/>
   <stop stop-color="#571117" offset="1"/>
  </radialGradient>
  <linearGradient id="d" x2="1" gradientTransform="matrix(7.2791 -4.2026 4.2026 7.2791 85.781 482.07)" gradientUnits="userSpaceOnUse">
   <stop stop-color="#e42224" offset="0"/>
   <stop stop-color="#c8081d" offset="1"/>
  </linearGradient>
 </defs>
 <path d="m508.72 0a114.38 114.38 0 0 0-114.38 114.38 114.38 114.38 0 0 0 114.38 114.38 114.38 114.38 0 0 0 114.38-114.38 114.38 114.38 0 0 0-114.38-114.38zm29.868 64.229h14.73v97.32h-21.719l-0.31054-63.649-25.931 0.03952-0.0293-14.64c5.97 0.25 11.93-0.24 17.59-2.25 5.68-2.18 10.92-5.8408 13.77-11.341 0.83001-1.76 1.5899-3.55 1.8999-5.48zm-65.29 30h16.011l0.0498 24.98 24.949 0.0205v16.009l-24.999-9e-3v24.999h-16v-24.999l-25 9e-3v-16.009h25z" fill="#dc0000"/>
 <g transform="matrix(.99331 0 0 .99331 5.1718e-5 75.205)">
  <g transform="matrix(47.578 0 0 47.578 -70644 6409.7)">
   <g transform="matrix(1 0 0 -1 1399.5 349.34)">
    <g clip-path="url(#k)">
     <path d="m88.201 484.05c-1.701-0.537-2.935-2.128-2.935-4.007 0-2.322 1.881-4.203 4.202-4.203 2.32 0 4.202 1.881 4.202 4.203 0 1.74-1.411 3.151-3.152 3.151-1.508 0-2.731-1.223-2.731-2.731 0-0.987 0.8-1.786 1.786-1.786 0.159 0 0.314 0.021 0.46 0.06 0.023 6e-3 0.039 0.026 0.039 0.051 0 0.027-0.02 0.049-0.047 0.052-0.724 0.063-1.292 0.672-1.292 1.412 0 0.943 0.764 1.708 1.707 1.708 0.986 0 1.786-0.8 1.786-1.786 0-1.523-1.235-2.758-2.758-2.758-1.74 0-3.152 1.411-3.152 3.151 0 1.441 0.774 2.701 1.928 3.388 0.014 0.01 0.024 0.026 0.024 0.045 0 0.029-0.023 0.052-0.052 0.052-5e-3 0-0.011-1e-3 -0.015-2e-3" fill="url(#d)"/>
    </g>
   </g>
   <g transform="matrix(1 0 0 -1 1399.5 349.34)">
    <g clip-path="url(#j)">
     <g mask="url(#c)">
      <g clip-path="url(#f)">
       <g clip-path="url(#e)">
        <path d="m89.539 477.42h4.046v5.08h-4.046z" fill="url(#a)"/>
       </g>
      </g>
     </g>
    </g>
   </g>
  </g>
  <g transform="translate(-75.037 -84.315)" fill="#df0000">
   <path d="m86.6 514.61h68.06l-1.25 5.8305h-30.71l-15.767 90.05h-6.2031l15.76-90.05h-30.9z"/>
   <path d="m156.36 514.61h6.195l18.125 87.64 49.26-87.64h6.5l-54.32 95.88h-5.54l-20.22-95.88z"/>
   <g transform="matrix(1.9539 0 0 1.9539 198.18 471.05)" stroke-width="3.7795">
    <path d="m49.833 25.089v29.179c0 11.351-6.4966 18.124-19.028 18.124-9.5417 0-15.282-4.2818-17.976-11.683-0.75669-2.0117-0.20303-2.9714 1.8087-3.7281l7.1795-2.5654c2.0856-0.75669 3.0453-0.40603 3.8759 1.6611 1.1812 2.7684 2.6393 4.2266 5.3892 4.2266 3.396 0 5.057-1.9379 5.057-5.9614v-29.253c0-2.1409 0.68288-2.8976 2.8976-2.8976h7.9543c2.1594 0 2.8423 0.75673 2.8423 2.8976"/>
    <path d="m75.904 21.196c13.621 0 21.243 7.401 21.243 19.36v12.458c0 11.96-7.6225 19.36-21.243 19.36-13.695 0-21.299-7.401-21.299-19.36v-12.458c0-11.96 7.604-19.36 21.299-19.36m0 12.107c-4.8355 0-7.604 2.2701-7.604 6.6444v13.695c0 4.3559 2.7684 6.6258 7.604 6.6258 4.7803 0 7.5488-2.2701 7.5488-6.6258v-13.695c0-4.374-2.7684-6.6444-7.5488-6.6444"/>
    <path d="m136.21 25.089v29.179c0 11.351-6.4966 18.124-19.028 18.124-9.5417 0-15.282-4.2818-17.976-11.683-0.75669-2.0117-0.20303-2.9714 1.8087-3.7281l7.1795-2.5654c2.0856-0.75669 3.0453-0.40603 3.8759 1.6611 1.1812 2.7684 2.6208 4.2266 5.3892 4.2266 3.396 0 5.057-1.9379 5.057-5.9614v-29.253c0-2.1409 0.68288-2.8976 2.8976-2.8976h7.9547c2.1409 0 2.8423 0.75673 2.8423 2.8976"/>
   </g>
  </g>
 </g>
</svg>
