<svg width="513.11pt" height="671.61pt" version="1.1" viewBox="0 0 513.11 671.61" xmlns="http://www.w3.org/2000/svg">
 <g transform="matrix(2.9105 0 0 2.9105 2.5612e-6 -203.01)" fill="#df364f">
  <g transform="matrix(.75335 0 0 .75335 -63 64.055)" fill="#df364f">
   <path d="m92.04 74.12c13.39-33.97 45.21-59.3 80.74-66.56-7.9288 4.2646-14.562 8.7674-21.194 15.188-5.2758 4.6875-10.298 9.6516-14.606 15.262-6.74 7.71-11.62 16.84-15.92 26.08-3.07 7.75-6.4002 15.51-7.6002 23.82-1.07 7.29-2.6498 14.66-1.7398 22.06 2.2 17.94 11.21 34.66 23.98 47.31 11.48 11.03 25.43 19.74 40.75 24.23 10.21 3.04 21.05 3.11 31.51 1.55 21.75-4.47 41.62-17.75 53.69-36.44 3.76-6.41 7.14-13.21 8.33-20.62 1.96-13.08 1.71-27.2-4.78-39.07-9.1651-15.771-24.125-25.394-41.082-25.348-26.26 0-45.629 21.27-45.629 46.389 0.0659 6.003 1.3327 11.966 3.9802 17.439 4.75 10.49 13.91 17.8 21.26 26.35-15.37 1.12-30.86-6.14-40.3-18.23-6.951-8.433-10.618-19.34-10.508-30.23 0-24.341 18.204-51.259 35.178-63.02 15.09-10.2 33.9-14.16 51.91-12.51 20.32 2 39.96 11.29 53.98 26.2 13.25 14.12 21.31 32.81 23.17 52.03 1.1 14.71 0.53 29.76-4.07 43.88-4.47 15.52-12.62 29.84-22.94 42.21-20.303 24.809-50.323 41.462-84.082 41.462-36.705 0-70.448-16.378-91.658-38.972-10.92-10.41-19.23-23.45-24.33-37.63-4.2786-12.959-6.45-26.62-6.4531-40.258 0-14.66 3.5988-30.5 8.4131-42.572z" fill="#df364f"/>
  </g>
 </g>
 <g transform="matrix(1.3548 0 0 1.3548 -115.96 -158.2)" fill="#df364f">
  <path d="m86.6 514.61h68.06l-1.25 5.8305h-30.71l-15.767 90.05h-6.2031l15.76-90.05h-30.9z"/>
  <path d="m156.36 514.61h6.195l18.125 87.64 49.26-87.64h6.5l-54.32 95.88h-5.54z"/>
  <g transform="matrix(1.9539,0,0,1.9539,198.18,471.05)" stroke-width="3.7795">
   <path d="m49.833 25.089v29.179c0 11.351-6.4966 18.124-19.028 18.124-9.5417 0-15.282-4.2818-17.976-11.683-0.75669-2.0117-0.20303-2.9714 1.8087-3.7281l7.1795-2.5654c2.0856-0.75669 3.0453-0.40603 3.8759 1.6611 1.1812 2.7684 2.6393 4.2266 5.3892 4.2266 3.396 0 5.057-1.9379 5.057-5.9614v-29.253c0-2.1409 0.68288-2.8976 2.8976-2.8976h7.9543c2.1594 0 2.8423 0.75673 2.8423 2.8976"/>
   <path d="m75.904 21.196c13.621 0 21.243 7.401 21.243 19.36v12.458c0 11.96-7.6225 19.36-21.243 19.36-13.695 0-21.299-7.401-21.299-19.36v-12.458c0-11.96 7.604-19.36 21.299-19.36m0 12.107c-4.8355 0-7.604 2.2701-7.604 6.6444v13.695c0 4.3559 2.7684 6.6258 7.604 6.6258 4.7803 0 7.5488-2.2701 7.5488-6.6258v-13.695c0-4.374-2.7684-6.6444-7.5488-6.6444"/>
   <path d="m136.21 25.089v29.179c0 11.351-6.4966 18.124-19.028 18.124-9.5417 0-15.282-4.2818-17.976-11.683-0.75669-2.0117-0.20303-2.9714 1.8087-3.7281l7.1795-2.5654c2.0856-0.75669 3.0453-0.40603 3.8759 1.6611 1.1812 2.7684 2.6208 4.2266 5.3892 4.2266 3.396 0 5.057-1.9379 5.057-5.9614v-29.253c0-2.1409 0.68288-2.8976 2.8976-2.8976h7.9547c2.1409 0 2.8423 0.75673 2.8423 2.8976"/>
  </g>
 </g>
</svg>
