<svg width="1124pt" height="1181pt" version="1.1" viewBox="0 0 1124 1181" xmlns="http://www.w3.org/2000/svg">
 <path d="m477.13 0h2.4c10.15 0.78 17.38 8.62 23.91 15.57 9.98 10.69 20.66 20.8 32.59 29.29 27.62 19.03 56.31 36.42 84.43 54.69 31.98 20.65 63.55 42.03 93.49 65.58 31.39 24.93 61.36 52.23 85.48 84.42 20.4 27.34 36.39 59.08 40.09 93.37 3.54 30.77-3.84 62.13-18.25 89.34-1.32 2.41-2.55 4.87-3.54 7.43 12.92 8.69 27.43 16.3 43.29 17.05 11.85 0.65 23.62-3.57 32.92-10.83 12-9.22 20.66-21.94 28.19-34.89 16.68-29 27.25-60.94 42.17-90.8 6.65-12.4 14.31-26.48 28.59-31.13 6.67-2.9 14.02-0.94 20.52 1.42 14.36 5.38 26.62 15.07 37.47 25.71 15.21 15.14 27.84 32.7 38.65 51.2 9.97 17.19 18.32 35.35 24.58 54.23 5.5 16.71 9.4 34.09 9.89 51.73v3.34c-0.21 8.26-1.18 16.6-3.92 24.45-2.99 7.76-10.2 12.76-17.07 16.87-15.07 8.58-31.78 13.68-48.4 18.3-17.04 4.48-34.34 7.89-51.7 10.84 11.63 18.83 19.51 39.69 26.03 60.76 14.32 47.41 22.35 96.38 31.01 145.06 7.97 43.63 14.44 87.66 26.4 130.44 5.1 16.96 10.6 34.42 21.76 48.49 1.94 2.5 2.99 5.87 2.05 9-2.89 9.61-9.42 18.27-18.42 22.9-10.29 5.52-22.43 5.87-33.75 4.29-17.79-2.65-34.64-9.46-50.71-17.31-33-16.53-63.26-38.01-91.95-61.11-30.02-24.45-58.22-51.16-84.03-80.02-24.93-28.12-48.05-58.23-65.14-91.82-8-16.13-14.52-33.28-16.59-51.27-6.33-0.13-11.62 3.47-17.21 5.85-17.25 8.05-35.06 14.95-53.3 20.44-19.33 5.99-39.3 9.45-59.15 13.2-9.68 1.92-19.37 4.17-28.35 8.38 37.38 10.73 73.72 26.1 105.94 48.08 37.42 25.33 68.57 60.43 87.1 101.81 18.59 40.71 25.03 86.27 22.1 130.73-3.05 44.24-14.58 87.87-33.8 127.83-9.66 19.79-21.18 38.79-35.6 55.5-8.47-0.1-16.95-0.1-25.42-0.18 10.38-14.08 22.15-27.2 31.04-42.33 20.46-34.56 33.76-73.18 40.25-112.75 7.09-44.56 5.08-91.23-10.34-133.9-7.62-21.12-18.51-41.05-32.23-58.82-16.34-21.25-36.63-39.31-59.02-53.98-31.35-20.57-66.57-34.64-102.65-44.46-2.67 3.41-7.14 5.66-11.48 4.31-4.22-1.05-6.73-5.02-7.61-9.04-16.72-3.83-33.65-6.98-50.67-9.1-14.88 4.73-30.56 6.48-46.13 6.72-22.25 0.73-44.49-1.05-66.74-0.47-5.82 14.04-17.36 24.56-28.67 34.25-15.51 12.8-32.25 24.02-49.21 34.78-11.92 7.38-24.12 14.44-37.1 19.81-7.7 3.06-15.95 5.87-24.35 4.82-6.24-0.68-12.12-4.99-13.99-11.08-2.14-6.74-0.12-13.94 2.82-20.1 7.02-14.22 18.12-25.99 30.24-36.03 26.9-21.89 59.46-36.46 93.36-43.45-16.07-7.35-33.6-10.51-50.57-15.07-21.88-5.44-44.03-11.2-63.91-22.16-10.28-5.54-19.12-13.35-27.09-21.8-18.63 1.72-36.66-5.19-53.19-13.03-11.65-5.33-22.42-12.33-33.49-18.69-31.92 2.73-65.02 1.18-95.09-10.8-14.47-5.89-28.6-14.14-38.24-26.72-4.27-5.64-7.45-12.34-7.82-19.5v-2.01c0.56-6.19 3.28-12.49 8.67-15.94 9.2-6.15 21.07-5.89 31.53-3.9 21.76 4.45 41.61 15.11 60.48 26.45 15.86 9.44 30.31 20.96 45.56 31.31 6.99-0.93 13.96-2.02 20.87-3.45 3.36-0.71 7.11-1.32 10.22 0.58 5.01 2.58 6.63 9.6 3.5 14.25-1.68 3-5.1 4.16-8.24 4.97 12.46 6.65 25.22 13.18 39.13 16.21-9.84-14.77-18.49-30.39-24.85-46.98-6.36-16.64-11.01-34.19-11.3-52.1-0.02-11.14 2.03-22.76 8.47-32.08 4.78-6.91 11.94-12.27 20.08-14.5 6.52-1.01 11.95 3.89 16.31 8.08 12.18 12.8 20.01 28.98 26.84 45.09 7.64 19.93 13.28 40.92 14.07 62.34 0.36 14.82-2.46 31.09-13.69 41.72 12.55 12.41 29.16 19.41 45.73 24.67 23.37 7.47 47.65 11.72 70.97 19.35 11.67 4.11 24.34 9.26 30.97 20.41 31.77-0.86 63.82 3.3 95.36-2.05-19.08-19.76-34.19-43.44-43.62-69.27-5.58-15.66-9.43-32.12-9.71-48.79-0.04-10.65 1.23-21.74 6.46-31.2 3.92-7.01 11.03-12.61 19.23-13.21 8.69 0.91 15.04 7.83 20.02 14.41 10.91 14.99 18.58 32.04 25.51 49.15 8.79 22.66 15.94 46.16 18.68 70.39 0.94 8.82 0.96 17.84-1.05 26.53 13.36 2.16 26.66 4.73 39.86 7.77-0.67-14.28-4.99-28.67-1.77-42.93 2.29-10.81 9.68-19.91 18.74-25.95 5.99-4.34 13-6.86 19.29-10.67 9.1-5.29 17.78-11.33 25.72-18.26 22.15-18.99 37.57-46.01 41.2-75.08 1.85-16.57-1.97-33.56-10.29-47.98-10.25-18-25.23-32.63-40.19-46.71-26.5-24.78-54.45-48.16-78.63-75.31-17.49-21.34-30.43-45.94-42.48-70.63-20.17-42.73-36.13-87.57-45.98-133.81-6.22-30.84-10.07-62.57-6.41-93.98 2.7-22.61 10.03-45.57 25.59-62.7 1.59-1.97 3.91-3.1 6.28-3.83m-4.41 38.7c-8.32 20.63-9.44 43.33-8.36 65.31 1.58 27.85 7.08 55.34 14.37 82.22 11.86 42.59 28.14 84.01 49.01 123 8.63 15.57 17.71 31.09 29.5 44.52 23.13 25.24 49.29 47.42 74.34 70.68 15.86 14.81 31.66 30.14 43.16 48.7 8.63 13.75 14.16 29.56 15.08 45.82 1.52 22.24-4.78 44.4-14.81 64.08-15.99 30.84-43.76 54.25-74.69 69.25-6.07 3.33-11.69 8.11-14.44 14.62-3.67 8.99-1.85 18.87-0.64 28.17 10.15-4.45 20.96-7.03 31.82-9.06 18.96-3.57 38.03-6.89 56.48-12.66 17.52-5.27 34.6-11.95 51.16-19.7 5.46-2.41 10.78-5.39 16.76-6.34 6.47-1.09 13.35-1.61 19.63 0.66 4.61 1.6 8.25 6.01 8.34 10.97 0.15 6.91 1.26 13.77 3.02 20.45 7.01 25.81 21.24 48.9 36.35 70.71 24.94 34.83 54.41 66.21 85.9 95.18 26.59 24.09 54.64 46.69 84.77 66.23 18.78 11.99 38.3 23.09 59.27 30.78 11.4 3.99 23.51 7.54 35.71 6 5.68-0.65 11.08-3.6 14.2-8.47-10.52-15.61-16.61-33.65-21.91-51.57-11.73-41.69-18.27-84.58-25.97-127.14-8.9-49.77-16.84-99.9-31.53-148.38-7.01-21.83-14.94-43.96-28.99-62.37-18.34 2.09-36.8 3.69-55.27 3.15-7.94-0.44-16.39-0.91-23.33-5.22-4.19-2.49-6.52-7.67-5.29-12.44 1.22-6.03 6.42-10.12 11.47-13.03 13.31-7.69 28.5-13.48 44.11-12.25 13.99 0.97 26.95 8.25 36.5 18.32 12.87-1.51 25.66-3.69 38.41-6.03 20.17-4.04 40.49-8.41 59.41-16.71 5.92-2.99 13.1-6.19 15.18-13.09 3.5-11.85 2.69-24.48 0.78-36.54-3.99-23.71-13.17-46.19-24.01-67.53-12.1-22.61-26.36-44.48-45.24-62.04-9.24-8.39-19.77-16.14-32.1-19.06-3.67 0.72-6.79 3.07-9.07 5.96-5.26 6.44-8.86 14.01-12.48 21.44-15.44 33.26-27.35 68.46-47.9 99.1-8.93 13.1-19.57 25.45-33.16 33.86-12.42 7.84-27.58 11.31-42.15 9.34-18.6-2.37-35.59-11.37-50.79-21.92-8.68-6.31-9.46-19.16-4.49-28.02 9.26-16.88 15.97-35.35 17.94-54.58 2.44-22.33-1.54-45.08-10.02-65.79-13.84-33.75-37.54-62.36-63.35-87.68-27.93-27.15-59.07-50.75-90.96-73.02-34.46-23.91-70.22-45.84-105.43-68.61-13.43-9.09-27.45-17.46-39.55-28.35-10.04-8.22-18.41-18.19-27.76-27.13-3.62 5.03-6.65 10.47-8.98 16.21m-276.19 481.19c-2.31 16.67 2.09 33.41 7.44 49.1 7.16 19.89 17.28 38.77 30.15 55.56 6.32-6.82 7-16.69 6.97-25.53-0.74-23.35-8.41-45.75-16.78-67.33-4.24-10.24-8.35-20.69-14.47-29.97-8.01 2.3-12.31 10.39-13.31 18.17m741.89 12.44-0.56 0.91c5.49-0.15 10.98-0.49 16.48-0.83-5.24-1.14-10.68-1.09-15.92-0.08m-918.14 26.59c0.21 4.58 3.57 8.13 6.53 11.32 9.37 9.22 21.38 15.28 33.74 19.43 17.31 5.74 35.62 7.8 53.79 7.98-16.01-11.38-32.55-22.16-50.34-30.55-11.68-5.15-23.91-10.38-36.9-10.31-2.27 0.31-5.38 0.02-6.82 2.13m442.23 2.14c-6.16 9.76-5.2 22.05-4.22 33.05 4.85 36.35 23.22 70.22 49.1 95.94 1.07-14.92-2.31-29.72-5.97-44.09-5.73-21.09-13.38-41.7-23.21-61.23-4.4-8.38-9.05-16.83-15.7-23.67m-172.14 204.24c-10.95 9.02-21.6 19.34-27.36 32.53 6.64-1.27 12.85-4.03 18.92-6.92 18.25-9.05 35.2-20.46 51.92-32.02 13.28-9.63 26.91-19.09 38.02-31.26-29.47 6.36-57.83 18.88-81.5 37.67z" fill="#093"/>
 <path d="m11.5 951.72c1.1188-0.33531 2.2594-0.57022 3.4167-0.57022h7.0133c42.57 40.92 85.05 81.93 127.62 122.84 0.08-37.32 0.02-74.63 0.03-111.95 0.03-2.03 0.23-4.24 1.67-5.8 1.63-1.98 4.42-1.86 6.74-1.93 11.68 0.06 23.37-0.03 35.05 0.04 3.27-0.25 6.68 2.15 6.83 5.57 0.33 5.67 0.01 11.36 0.12 17.04-0.01 65.7 0.02 131.4-0.01 197.1 0.45 3.42-2.11 6.37-5.41 6.94h-5.92c-1.85-0.5-3.68-1.23-5.01-2.64-41.76-41.98-83.47-84.02-125.29-125.95-0.08 39.53 0.03 79.05-0.06 118.58 0.35 3.59-2.67 6.93-6.31 6.76-12.37 0.1-24.75 0.08-37.13 0.01-3.67 0.21-6.82-3.16-6.59-6.78-0.17-70.69-0.2-141.38-0.35-212.06-0.23-2.84 0.72-6.07 3.59-7.2z" fill="#093"/>
 <path d="m263.52 994.45c20.28-26.03 52.41-42.25 85.39-43.16 36.04-1.69 72.26 15 94.36 43.51 19.17 23.96 27.71 55.82 23.78 86.19-3.83 33.11-23.29 63.87-51.39 81.74-17.83 11.59-38.95 17.71-60.16 18.27h-4.74c-28.18-0.61-56.09-11.66-76.49-31.2-18.37-17.28-30.62-40.86-34.28-65.8-4.85-31.39 3.61-64.72 23.53-89.55m82.03 8.28c-17.16 2.01-33.1 11.69-43.27 25.58-8.79 11.9-13.37 26.88-12.46 41.67 0.82 15.27 7.55 30.08 18.32 40.91 10.73 10.93 25.52 17.86 40.83 18.83 25.41 2.01 50.97-13.06 61.71-36.13 6.49-13.11 7.87-28.53 4.36-42.68-4.12-16.35-14.84-30.96-29.35-39.59-11.91-7.28-26.3-10.29-40.14-8.59z" fill="#093"/>
 <path d="m506.66 961.02c-0.32-3.62 2.78-6.9 6.42-6.65 45.31-0.08 90.63-0.02 135.95-0.03 3.79-0.44 7.42 2.72 7.05 6.65 0.02 11.37 0.09 22.75-0.04 34.12 0.13 3.72-3.47 6.55-7.06 6.14-30.86 0.03-61.72 0-92.58 0.02v39.57c25.87 0.05 51.75-0.06 77.62 0.05 3.36-0.17 6.41 2.77 6.39 6.15 0.16 10.66-0.01 21.32 0.08 31.99-0.04 2.29 0.08 4.95-1.66 6.72-1.42 1.68-3.71 2.06-5.78 2.03-25.55-0.01-51.09 0-76.63-0.01-0.04 14.37-0.01 28.73-0.02 43.1 30.86 0.03 61.72-0.02 92.59 0.02 3.55-0.41 7.17 2.37 7.05 6.1 0.14 11.34 0.05 22.69 0.04 34.03 0.39 3.9-3.19 7.18-7.01 6.77-45.05 0.03-90.1 0.01-135.15 0.02-3.95 0.47-7.74-2.84-7.27-6.92-0.02-69.96-0.04-139.92 0.01-209.87z" fill="#093"/>
</svg>
