<svg width="17.237pt" height="4.1183pt" version="1.1" viewBox="0 0 17.237 4.1183" xmlns="http://www.w3.org/2000/svg">
 <path d="m12.21 0.0021517c0.144-4e-3 0.289-1e-3 0.433-2e-3 0.108-1e-3 0.216 0.056 0.274 0.148 0.064 0.098 0.066 0.232 6e-3 0.333-0.055 0.095-0.161 0.157-0.271 0.157-0.138 1e-3 -0.275 0-0.413 1e-3 -0.069 0-0.138-0.023-0.193-0.065-0.097-0.072-0.146-0.202-0.12-0.32 0.027-0.134 0.148-0.241 0.284-0.252" fill="#e4282d"/>
 <path d="m7.0917 0.016652c0.151-0.045 0.325 0.043 0.38 0.19 0.056 0.133 5e-3 0.299-0.115 0.379-0.108 0.078-0.266 0.075-0.372-6e-3 -0.106-0.077-0.154-0.224-0.114-0.35 0.031-0.102 0.118-0.185 0.221-0.213" fill="#34abdd"/>
 <path d="m8.0364 0.30545c6e-3 -0.157 0.144-0.295 0.302-0.3 0.166-0.012 0.325 0.127 0.334 0.294 3e-3 0.152 0 0.304 1e-3 0.456 0.069 1e-3 0.14-7e-3 0.205 0.02 0.134 0.048 0.223 0.195 0.203 0.336-0.013 0.119-0.1 0.225-0.214 0.262-0.062 0.022-0.129 0.015-0.193 0.018 1e-3 0.313 0 0.626 0 0.939 4e-3 0.102-0.044 0.203-0.126 0.264-0.099 0.077-0.247 0.085-0.355 0.02-0.092-0.054-0.153-0.156-0.156-0.262-1e-3 -0.321 0-0.642-1e-3 -0.962-0.09 2e-3 -0.187 3e-3 -0.264-0.051-0.132-0.079-0.186-0.261-0.119-0.399 0.046-0.102 0.149-0.176 0.261-0.184 0.04-2e-3 0.081 0 0.121-1e-3 1e-3 -0.15-1e-3 -0.3 1e-3 -0.45" fill="#34abdd"/>
 <path d="m10.897 0.014452c0.151-0.041 0.322 0.05 0.374 0.197 0.052 0.133 1e-3 0.297-0.119 0.376-0.103 0.072-0.25 0.073-0.354 3e-3 -0.107-0.067-0.164-0.203-0.139-0.327 0.022-0.12 0.119-0.221 0.238-0.249" fill="#34abdd"/>
 <path d="m13.506 0.017052c0.105-0.031 0.226 0 0.304 0.077 0.064 0.059 0.1 0.146 0.099 0.233 1e-3 0.364 0 0.729 1e-3 1.093 0.161-0.162 0.324-0.323 0.485-0.485 0.036-0.035 0.071-0.072 0.108-0.106 0.082-0.069 0.2-0.091 0.302-0.056 0.115 0.037 0.203 0.145 0.216 0.265 0.013 0.098-0.025 0.199-0.096 0.268-0.134 0.134-0.268 0.269-0.403 0.403 0.138 0.141 0.28 0.279 0.419 0.421 0.102 0.109 0.11 0.29 0.017 0.407-0.056 0.074-0.145 0.12-0.237 0.125-0.088 4e-3 -0.178-0.029-0.24-0.092l-0.571-0.571c-2e-3 0.121 1e-3 0.243-1e-3 0.364-5e-3 0.169-0.165 0.311-0.333 0.299-0.161-5e-3 -0.303-0.148-0.303-0.309v-2.037c1e-3 -0.136 0.101-0.264 0.233-0.299" fill="#34abdd"/>
 <path d="m0.035531 0.20475c0.052-0.103 0.164-0.171 0.279-0.171 0.459-2e-3 0.918-2e-3 1.378 0 0.088-1e-3 0.175 0.037 0.234 0.102 0.077 0.08 0.104 0.203 0.07 0.309-0.038 0.127-0.161 0.22-0.294 0.223-0.116 1e-3 -0.232 0-0.348 0v1.673c1e-3 0.072-0.02 0.145-0.064 0.203-0.071 0.096-0.201 0.147-0.318 0.121-0.145-0.027-0.258-0.165-0.256-0.312-2e-3 -0.563-1e-3 -1.126-1e-3 -1.689-0.138-1e-3 -0.275 8e-3 -0.413 4e-3 -0.097-4e-3 -0.19-0.056-0.245-0.137-0.067-0.094-0.077-0.224-0.022-0.326" fill="#e4282d"/>
 <path d="m2.2187 0.25985c0.036-0.086 0.103-0.166 0.196-0.192 0.071-0.021 0.148-1e-3 0.208 0.039 0.069 0.049 0.12 0.12 0.152 0.198 0.131 0.324 0.262 0.649 0.392 0.973 0.012 0.031 0.025 0.062 0.04 0.092 0.151-0.357 0.3-0.714 0.451-1.071 0.04-0.09 0.106-0.173 0.198-0.211 0.066-0.029 0.145-0.026 0.207 0.01 0.076 0.04 0.125 0.116 0.154 0.195 0.033 0.092 0.041 0.193 0.023 0.29-0.012 0.084-0.05 0.16-0.082 0.238-0.223 0.529-0.446 1.058-0.668 1.588-0.029 0.085-0.076 0.17-0.156 0.217-0.068 0.043-0.157 0.045-0.228 0.01-0.093-0.038-0.151-0.126-0.189-0.214-0.231-0.571-0.462-1.143-0.693-1.714-0.058-0.141-0.064-0.306-5e-3 -0.448" fill="#e4282d"/>
 <path d="m12.392 0.75515c0.14-3e-3 0.281-1e-3 0.421-1e-3 0.147-1e-3 0.282 0.118 0.305 0.263 0.022 0.118-0.031 0.245-0.129 0.314-0.054 0.039-0.121 0.059-0.187 0.059h-0.371c-0.05-1e-3 -0.101 1e-3 -0.148 0.019-0.121 0.044-0.208 0.167-0.207 0.296-2e-3 0.124 0.076 0.245 0.19 0.293 0.055 0.025 0.116 0.029 0.175 0.028 0.124 0 0.248-1e-3 0.372 0 0.139 0 0.268 0.106 0.3 0.241 0.033 0.123-0.019 0.263-0.124 0.336-0.06 0.043-0.135 0.062-0.208 0.059-0.156-3e-3 -0.312 7e-3 -0.468-8e-3 -0.248-0.019-0.486-0.143-0.646-0.334-0.192-0.223-0.268-0.54-0.2-0.826 0.063-0.282 0.264-0.529 0.526-0.649 0.125-0.059 0.262-0.085 0.399-0.09" fill="#34abdd"/>
 <path d="m16.044 0.75293c-0.075-0.002003-0.14966 0.00597-0.22266 0.021973-0.28 0.059-0.52686 0.2547-0.65186 0.5127-0.109 0.22-0.1278 0.48377-0.04981 0.71777 0.064 0.198 0.19668 0.37272 0.36768 0.49072 0.154 0.106 0.33888 0.16453 0.52588 0.16553 0.286 9.974e-4 0.5724 4.648e-4 0.8584 0.00146 0.069-2e-3 0.14115-0.010875 0.20215-0.046875 0.101-0.057 0.1616-0.17064 0.1626-0.28564-9e-3 -0.092-0.04952-0.18323-0.12451-0.24023-0.055-0.045-0.12629-0.065312-0.19629-0.070312-1e-6 -0.321 5.35e-4 -0.6414-0.0015-0.9624-3e-3 -0.157-0.1389-0.29822-0.2959-0.30322-0.192-9.975e-4 -0.38322-4.6485e-4 -0.57422-0.001463zm-0.03076 0.63721c0.088-9.975e-4 0.17567 0 0.26367 0 9.75e-4 0.211 0.0035 0.42374-0.0015 0.63574-0.084 0-0.16795 9.975e-4 -0.25195 0-0.09696-9.975e-4 -0.19245-0.046047-0.25045-0.12305-0.083-0.103-0.08911-0.26014-0.01611-0.36914 0.055-0.085 0.15335-0.14155 0.25635-0.14355z" fill="#34abdd"/>
 <path d="m4.9826 0.76765c0.101-0.029 0.215-2e-3 0.294 0.067 0.013 0.018 0.033 7e-3 0.049 0 0.21-0.092 0.454-0.105 0.672-0.034 0.163 0.052 0.311 0.149 0.424 0.278 0.152 0.171 0.237 0.399 0.236 0.627 1e-3 0.212 0 0.424 0 0.636 1e-3 0.112-0.063 0.223-0.163 0.276-0.114 0.066-0.268 0.05-0.366-0.038-0.068-0.06-0.109-0.149-0.107-0.239-1e-3 -0.212 0-0.424-1e-3 -0.636 0-0.11-0.061-0.217-0.157-0.272-0.116-0.071-0.277-0.053-0.376 0.041-0.067 0.061-0.105 0.151-0.102 0.242v0.636c-3e-3 0.128-0.092 0.248-0.213 0.289-0.09 0.031-0.193 0.021-0.274-0.03-0.091-0.056-0.151-0.161-0.15-0.269v-1.273c-1e-3 -0.138 0.101-0.267 0.234-0.301" fill="#34abdd"/>
 <path d="m7.0818 0.77025c0.133-0.043 0.289 0.015 0.363 0.134 0.033 0.052 0.05 0.113 0.049 0.175v1.188c0 0.05 4e-3 0.1-9e-3 0.149-0.02 0.082-0.073 0.155-0.146 0.197-0.097 0.059-0.226 0.06-0.324 2e-3 -0.095-0.055-0.159-0.163-0.157-0.273v-1.274c-1e-3 -0.134 0.096-0.26 0.224-0.298" fill="#34abdd"/>
 <path d="m9.4658 0.76775c0.107-0.031 0.228 1e-3 0.307 0.079 0.142-0.061 0.297-0.1 0.452-0.088 0.124 0.013 0.234 0.107 0.268 0.226 0.033 0.109 2e-3 0.234-0.08 0.314-0.061 0.064-0.151 0.098-0.24 0.095-0.148 0-0.288 0.12-0.303 0.269-2e-3 0.229 0 0.459-1e-3 0.689-3e-3 0.109-0.066 0.214-0.162 0.266-0.114 0.066-0.269 0.05-0.367-0.038-0.067-0.059-0.108-0.148-0.108-0.238 0-0.424 0-0.849 1e-3 -1.273-1e-3 -0.138 0.1-0.267 0.233-0.301" fill="#34abdd"/>
 <path d="m10.886 0.76805c0.131-0.039 0.282 0.019 0.354 0.135 0.032 0.049 0.05 0.108 0.05 0.166v1.273c1e-3 0.112-0.064 0.223-0.163 0.276-0.114 0.066-0.269 0.049-0.366-0.039-0.067-0.059-0.108-0.148-0.107-0.237-1e-3 -0.407 0-0.813-1e-3 -1.22-1e-3 -0.058 1e-3 -0.118 0.026-0.173 0.037-0.087 0.115-0.156 0.207-0.181" fill="#34abdd"/>
 <path d="m6.7963 2.7935h0.127c1e-3 0.341 1e-3 0.682 0 1.023h-0.127c-1e-3 -0.341 0-0.682 0-1.023" fill="#141413"/>
 <path d="m11.765 2.7936h0.128c0 0.341 0 0.682-1e-3 1.023h-0.126c-3e-3 -0.341 0-0.682-1e-3 -1.023" fill="#141413"/>
 <path d="m5.9922 3.0236c0.042-0.069 0.084-0.139 0.129-0.207h0.139c-0.057 0.071-0.117 0.138-0.175 0.207h-0.093" fill="#141413"/>
 <path d="m14.457 2.8211c0.044-0.01 0.093-2e-3 0.139-4e-3 -0.055 0.071-0.116 0.138-0.173 0.206-0.031 1e-3 -0.062 1e-3 -0.093 0 0.043-0.066 0.081-0.137 0.127-0.202" fill="#141413"/>
 <path d="m3.1139 2.8487c0.051-0.023 0.116 0.019 0.11 0.076 5e-3 0.062-0.076 0.098-0.124 0.065-0.052-0.031-0.044-0.121 0.014-0.141" fill="#141413"/>
 <path d="m15.867 2.8496c0.051-0.025 0.118 0.017 0.112 0.075 6e-3 0.065-0.083 0.101-0.13 0.06-0.045-0.035-0.034-0.113 0.018-0.135" fill="#141413"/>
 <path d="m10.057 2.9507c0.041-0.012 0.082-0.023 0.123-0.034 1e-3 0.067 0 0.134 1e-3 0.201 0.061 1e-3 0.122-2e-3 0.183 1e-3 -3e-3 0.032-3e-3 0.064-2e-3 0.096-0.06 1e-3 -0.121 0-0.181 1e-3 0 0.125-1e-3 0.251 0 0.376 2e-3 0.042 4e-3 0.092 0.041 0.12 0.038 0.024 0.085 0.012 0.127 8e-3 3e-3 0.032 6e-3 0.064 6e-3 0.096-0.074 0.019-0.163 0.029-0.23-0.019-0.053-0.039-0.067-0.109-0.067-0.172-2e-3 -0.136 0-0.273-1e-3 -0.409-0.036-1e-3 -0.073-1e-3 -0.109-1e-3v-0.096c0.036-1e-3 0.072-1e-3 0.109-1e-3v-0.167" fill="#141413"/>
 <path d="m0.49153 3.1345c0.041-0.027 0.095-0.043 0.143-0.026-1e-3 0.039-1e-3 0.078 0 0.117-0.041-3e-3 -0.084-6e-3 -0.12 0.016-0.069 0.036-0.098 0.119-0.1 0.193-1e-3 0.127 0 0.255-1e-3 0.382h-0.125c-3e-3 -0.233 3e-3 -0.466-5e-3 -0.698 0.037-1e-3 0.074-1e-3 0.11 0 2e-3 0.046 3e-3 0.093 4e-3 0.14 0.022-0.047 0.049-0.095 0.094-0.124" fill="#141413"/>
 <path transform="scale(.75)" d="m1.7266 4.1348c-0.077167-1.666e-4 -0.1547 0.019927-0.2207 0.058594-0.11867 0.072-0.1896 0.20322-0.21094 0.33789-0.018667 0.13467-0.0044479 0.28244 0.074219 0.39844 0.069333 0.10267 0.18726 0.16378 0.30859 0.17578 0.128 0.010667 0.26024-0.0053542 0.37891-0.054688-0.0093333-0.04-0.019344-0.07976-0.027344-0.12109-0.13733 0.044-0.29635 0.077146-0.42969 0.0078125-0.104-0.052-0.14977-0.17254-0.14844-0.2832 0.21867-0.0013334 0.43563-6.198e-4 0.6543-0.0019531 0.02-0.16267-0.022109-0.35179-0.16211-0.45312-0.064-0.043333-0.13963-0.064286-0.2168-0.064453zm-0.019531 0.12305c0.058333-0.0015 0.11682 0.018594 0.16016 0.058594 0.057333 0.054667 0.076792 0.13751 0.078125 0.21484-0.164 0-0.33014 0.0013333-0.49414 0 0.012-0.076 0.040323-0.15432 0.097656-0.20898 0.042-0.040667 0.09987-0.062953 0.1582-0.064453z" fill="#141413"/>
 <path transform="scale(.75)" d="m2.9531 4.1445c-0.065333 0.014833-0.12773 0.046464-0.17773 0.091797-0.112 0.098667-0.16087 0.25115-0.1582 0.39648-0.0013333 0.14133 0.055255 0.28833 0.16992 0.375 0.156 0.124 0.41677 0.095922 0.52344-0.080078-0.0013334 0.086667 0.0066094 0.17648-0.025391 0.25781-0.026667 0.082667-0.1035 0.14416-0.1875 0.16016-0.12267 0.02-0.25076-0.0017864-0.35742-0.064453-0.016 0.044-0.029635 0.086859-0.042969 0.13086 0.093333 0.053333 0.20193 0.074125 0.30859 0.078125 0.13067-0.0026667 0.27261-0.037339 0.36328-0.13867 0.088-0.098667 0.10476-0.23723 0.10742-0.36523 0.0026667-0.276-0.0041875-0.55212 0.0078125-0.82812h-0.14844c-0.0013333 0.045333-0.007099 0.092005-0.0097656 0.13867-0.038667-0.066667-0.099162-0.12186-0.17383-0.14453-0.064667-0.020667-0.13389-0.022646-0.19922-0.0078126zm0.046875 0.13281c0.064-0.016 0.13407-0.007323 0.19141 0.027344 0.077333 0.048 0.12252 0.14114 0.11719 0.23047-0.0040001 0.097333 0.016844 0.20497-0.035156 0.29297-0.045333 0.085333-0.14423 0.13567-0.24023 0.125-0.086667-0.0053333-0.16384-0.063292-0.20117-0.14062-0.053333-0.10933-0.056245-0.2408-0.017578-0.35547 0.029333-0.084 0.097547-0.15835 0.18555-0.17969z" fill="#141413"/>
 <path transform="scale(.75)" d="m5.2617 4.1387c-0.13333 0.013333-0.26074 0.087125-0.33008 0.20312-0.070667 0.116-0.089073 0.25924-0.066406 0.39258 0.018667 0.11467 0.079781 0.22497 0.17578 0.29297 0.18533 0.132 0.46857 0.098495 0.61523-0.076172 0.096-0.11467 0.1228-0.27264 0.10547-0.41797-0.013333-0.10267-0.056812-0.20401-0.13281-0.27734-0.094667-0.094667-0.23519-0.13185-0.36719-0.11719zm0.015625 0.12891c0.081333-0.012 0.16932 0.015458 0.22266 0.078125 0.068 0.078667 0.093844 0.18444 0.089844 0.28711 0.0013333 0.10667-0.036474 0.2184-0.11914 0.28906-0.073333 0.062667-0.18615 0.07525-0.27148 0.03125-0.093333-0.048-0.14611-0.14805-0.16211-0.24805-0.017333-0.11067-0.0040729-0.22955 0.058594-0.32422 0.04-0.061333 0.10831-0.10528 0.18164-0.11328z" fill="#141413"/>
 <path d="m5.0416 3.1086c0.095-0.024 0.206 0.012 0.26 0.097 0.058 0.089 0.049 0.2 0.049 0.302-2e-3 0.103 6e-3 0.207-4e-3 0.31-0.041-1e-3 -0.081-1e-3 -0.122 0-0.01-0.149 1e-3 -0.3-6e-3 -0.449-4e-3 -0.057-0.03-0.117-0.083-0.144-0.081-0.04-0.186-3e-3 -0.227 0.076-0.031 0.049-0.024 0.109-0.024 0.164-1e-3 0.114 1e-3 0.228-1e-3 0.342-2e-3 3e-3 -5e-3 7e-3 -7e-3 0.01-0.039 1e-3 -0.078-1e-3 -0.118 1e-3 -9e-3 -0.05-3e-3 -0.101-4e-3 -0.151-2e-3 -0.183 4e-3 -0.366-5e-3 -0.549 0.038 0 0.076 0 0.114 1e-3 2e-3 0.038 4e-3 0.076 7e-3 0.115 0.037-0.063 0.099-0.111 0.171-0.125" fill="#141413"/>
 <path transform="scale(.75)" d="m7.9629 4.1445c-0.070667 0.0125-0.13855 0.036886-0.19922 0.074219 0.013333 0.037333 0.026349 0.075948 0.041016 0.11328 0.073333-0.046667 0.15943-0.070312 0.24609-0.070312 0.056 0.0013333 0.11954 0.015214 0.1582 0.060547 0.042667 0.046667 0.048828 0.11188 0.048828 0.17188-0.12267 0-0.24604 0.010594-0.35938 0.058594-0.065333 0.028-0.12478 0.071479-0.16211 0.13281-0.053333 0.093333-0.054854 0.21926 0.0078125 0.30859 0.050667 0.077333 0.14566 0.11461 0.23633 0.11328 0.112 4e-3 0.22302-0.049958 0.29102-0.14062 0.0053333 0.041333 0.010292 0.083047 0.015625 0.12305h0.1543c-0.021333-0.14667-0.014292-0.29474-0.015625-0.44141-0.0013333-0.112 0.012224-0.2306-0.037109-0.33594-0.037333-0.086667-0.12089-0.14868-0.21289-0.16602-0.07-0.014-0.14222-0.014453-0.21289-0.0019532zm0.29688 0.46875c-0.0013333 0.064 0.0040938 0.12741-0.0039062 0.19141-0.025333 0.13333-0.18655 0.21687-0.31055 0.1582-0.076-0.038667-0.091833-0.14018-0.0625-0.21484 0.021333-0.050667 0.068474-0.082896 0.11914-0.10156 0.082667-0.030667 0.17115-0.033203 0.25781-0.033203z" fill="#141413"/>
 <path transform="scale(.75)" d="m11.539 4.1387c-0.082333 0.0098333-0.16304 0.036838-0.23437 0.076172 0.010666 0.038667 0.023776 0.077901 0.037109 0.11523 0.10533-0.058667 0.23752-0.093542 0.35352-0.046875 0.081334 0.034667 0.10494 0.13094 0.09961 0.21094-0.12533 0-0.25643 0.01112-0.37109 0.064453-0.069333 0.032-0.1334 0.08425-0.16406 0.15625-0.044 0.10267-0.030646 0.23641 0.054687 0.31641 0.08 0.08 0.20717 0.091833 0.3125 0.0625 0.073333-0.017333 0.13355-0.066427 0.18555-0.12109 0.002667 0.04 0.006911 0.078521 0.017578 0.11719 0.049333-0.0026667 0.097151 0 0.14648 0-0.024-0.208-0.007005-0.41895-0.013671-0.62695-0.005334-0.12-0.062355-0.24826-0.17969-0.29492-0.078-0.030667-0.16181-0.03913-0.24414-0.029297zm0.26172 0.47461c-0.002666 0.064 0.004094 0.12545-0.003906 0.18945-0.025333 0.13467-0.19045 0.22016-0.31445 0.16016-0.10267-0.054667-0.099193-0.22054-0.00586-0.2832 0.093334-0.065333 0.21355-0.065073 0.32422-0.066406z" fill="#141413"/>
 <path transform="scale(.75)" d="m16.91 4.1367c-0.10167-0.0091667-0.2084 0.018125-0.28906 0.078125-0.12133 0.089333-0.18155 0.24262-0.18555 0.39062-0.006667 0.116 0.018557 0.23736 0.087891 0.33203 0.069333 0.098667 0.1854 0.15597 0.30273 0.16797 0.128 0.010667 0.25962-0.0026875 0.37695-0.054688-0.009333-0.04-0.019964-0.081094-0.029297-0.12109-0.13467 0.048-0.2905 0.073146-0.42383 0.0078125-0.104-0.052-0.15163-0.17254-0.1543-0.2832 0.22-0.0013334 0.43954-6.198e-4 0.6582-0.0019531 0.013334-0.12933-0.006651-0.26833-0.083984-0.375-0.060667-0.086-0.1581-0.13146-0.25977-0.14062zm-0.058594 0.12109c0.059667-2e-3 0.12006 0.01726 0.16406 0.058594 0.056 0.056 0.075458 0.13689 0.078125 0.21289-0.164 0.0013333-0.32881 0.0013333-0.49414 0 0.009334-0.074667 0.037131-0.14784 0.091797-0.20117 0.041334-0.044 0.10049-0.068312 0.16016-0.070312z" fill="#141413"/>
 <path d="m7.5252 3.2331c0.066-0.123 0.238-0.169 0.358-0.097 0.084 0.048 0.119 0.151 0.12 0.244 0 0.145 1e-3 0.291 0 0.437-0.042-1e-3 -0.084-1e-3 -0.127 0-1e-3 -0.139 1e-3 -0.277-1e-3 -0.416-2e-3 -0.056-0.014-0.117-0.056-0.157-0.064-0.055-0.169-0.044-0.226 0.016-0.035 0.034-0.055 0.083-0.056 0.132 0 0.142 1e-3 0.283 0 0.425-0.042-1e-3 -0.085-1e-3 -0.127 0-2e-3 -0.143 0-0.285-1e-3 -0.427 0-0.09 3e-3 -0.181-7e-3 -0.272h0.115c2e-3 0.038 5e-3 0.077 8e-3 0.115" fill="#141413"/>
 <path transform="scale(.75)" d="m14.785 4.1387c-0.091333-0.012333-0.18824 0.0048281-0.26758 0.048828-0.12533 0.070667-0.2007 0.20766-0.2207 0.34766-0.02 0.14267-0.001536 0.30197 0.091797 0.41797 0.073333 0.092 0.19064 0.14434 0.30664 0.15234 0.124 8e-3 0.24862-0.0066875 0.36328-0.054688l-0.027344-0.11914c-0.136 0.044-0.29502 0.071906-0.42969 0.0039063-0.10267-0.053333-0.14915-0.17192-0.14648-0.28125 0.21733-0.0013334 0.43368-6.198e-4 0.65234-0.0019531 0.014667-0.132-0.006557-0.27481-0.087891-0.38281-0.056666-0.076-0.14304-0.11853-0.23438-0.13086zm-0.074218 0.11914c0.058666-0.0013333 0.11682 0.018594 0.16016 0.058594 0.056 0.056 0.074838 0.13751 0.076172 0.21484h-0.49414c0.012-0.077333 0.040323-0.15432 0.097656-0.20898 0.042-0.041333 0.10149-0.06312 0.16016-0.064453z" fill="#141413"/>
 <path transform="scale(.75)" d="m22.133 4.1426c-0.073833 0.011667-0.14498 0.037505-0.20898 0.076172 0.013333 0.037333 0.026349 0.075948 0.041016 0.11328 0.074666-0.045333 0.16138-0.070312 0.24805-0.070312 0.056 0.0013333 0.11758 0.016547 0.15625 0.060547 0.041333 0.046667 0.048828 0.11188 0.048828 0.17188-0.168 0.0013334-0.35904 0.017865-0.48438 0.14453-0.092 0.096-0.10282 0.25857-0.021485 0.36523 0.056 0.074667 0.15214 0.10885 0.24414 0.10352 0.10667 0 0.21006-0.054672 0.27539-0.13867l0.015625 0.11914h0.15234c-0.021333-0.136-0.012338-0.27478-0.013671-0.41211-0.004001-0.116 0.01275-0.23504-0.03125-0.3457-0.030667-0.088-0.10722-0.1564-0.19922-0.17773-0.072667-0.017333-0.14882-0.021432-0.22266-0.0097657zm0.28711 0.46875c-0.005333 0.085333 0.019323 0.17986-0.027344 0.25586-0.054667 0.1-0.19164 0.14513-0.29297 0.091797-0.098666-0.058667-0.092713-0.22125 0.001953-0.28125 0.093334-0.061333 0.21036-0.065073 0.31836-0.066406z" fill="#141413"/>
 <path d="m3.0827 3.1181c0.043 0 0.085-1e-3 0.128 1e-3 -1e-3 0.232 0 0.465-1e-3 0.697-0.042 1e-3 -0.084 1e-3 -0.126 0-2e-3 -0.232-1e-3 -0.465-1e-3 -0.698" fill="#141413"/>
 <path d="m13.284 3.1183c0.046-1e-3 0.091 0 0.137 0 0.065 0.19 0.137 0.379 0.195 0.572 0.06-0.193 0.131-0.381 0.195-0.572 0.045-1e-3 0.089-1e-3 0.134 0-0.09 0.233-0.182 0.465-0.274 0.698-0.04 0-0.08 0-0.12 1e-3 -0.091-0.233-0.177-0.467-0.267-0.699" fill="#141413"/>
 <path d="m14.34 3.1182c0.043 0 0.085-1e-3 0.128 0v0.698h-0.127c-2e-3 -0.232-1e-3 -0.465-1e-3 -0.698" fill="#141413"/>
 <path d="m14.896 3.1182c0.177-1e-3 0.355 0 0.532 0-3e-3 0.035 0.01 0.077-0.019 0.104-0.129 0.163-0.249 0.333-0.383 0.491 0.136 2e-3 0.272 0 0.408 1e-3v0.103c-0.188 0-0.376-1e-3 -0.563 0-4e-3 -0.031-0.014-0.068 0.01-0.094 0.131-0.167 0.255-0.339 0.391-0.502-0.125 2e-3 -0.25 1e-3 -0.375 1e-3 -1e-3 -0.035-1e-3 -0.069-1e-3 -0.104" fill="#141413"/>
 <path d="m15.838 3.118h0.128c-1e-3 0.233 0 0.466-1e-3 0.699h-0.127c-1e-3 -0.233 0-0.466 0-0.699" fill="#141413"/>
</svg>
