<svg width="3.6163mm" height="2.8504mm" version="1.1" viewBox="0 0 3.6163 2.8504" xmlns="http://www.w3.org/2000/svg">
 <defs>
  <clipPath id="a">
   <path d="m374.74 524.48h10.251v8.08h-10.251z"/>
  </clipPath>
 </defs>
 <g transform="translate(-132 -112.63)">
  <g transform="matrix(.35278 0 0 -.35278 -.20277 300.51)">
   <g clip-path="url(#a)">
    <g transform="translate(377.37 527.78)">
     <path d="m0 0c-0.236 1e-3 -0.177 3.79-0.717 3.79h-1.919v0.985h1.947c0.294 0 0.481-2.448 0.554-3.243 0.074-0.794 0.098-0.824 0.135-0.824 0.038 0 0.049 0.023 0.127 0.826 0.079 0.803 0.266 3.241 0.593 3.241h1.469c1.238 0 1.869-3.733 2.441-3.733 0.571 0 1.198 3.733 2.3 3.733h0.636v-0.985h-0.618c-1.101 0-1.662-3.733-2.318-3.733-0.657 0-1.203 3.733-2.441 3.733h-1.469c-0.539 0-0.484-3.791-0.72-3.79" fill="#e2001a" fill-rule="evenodd"/>
    </g>
    <g transform="translate(374.9 524.49)">
     <path d="m0 0h-0.155v1.25h0.868c0.186 0 0.312-0.018 0.377-0.053 0.076-0.041 0.113-0.122 0.113-0.245v-0.163c0-0.122-0.037-0.204-0.113-0.244-0.065-0.034-0.191-0.052-0.377-0.052h-0.713zm0 0.634h0.758c0.115 0 0.19 0.014 0.225 0.042 0.036 0.027 0.054 0.083 0.054 0.168v0.06c0 0.085-0.018 0.141-0.054 0.169-0.035 0.027-0.11 0.041-0.225 0.041h-0.758z" fill="#e20020" fill-rule="evenodd"/>
    </g>
    <g transform="translate(376.34 524.49)">
     <path d="m0 0v1.25h1.231v-0.139h-1.08v-0.392h1.035v-0.14h-1.035v-0.44h1.08v-0.139z" fill="#e20020" fill-rule="evenodd"/>
    </g>
    <g transform="translate(377.72 524.49)">
     <path d="m0 0v0.139l1.155 0.975h-1.112v0.136h1.339v-0.136l-1.155-0.975h1.172v-0.139z" fill="#e20020" fill-rule="evenodd"/>
    </g>
    <path d="m379.53 524.5h-0.155v1.25h0.155z" fill="#e20020" fill-rule="evenodd"/>
    <g transform="translate(380 524.49)">
     <path d="m0 0h-0.155v1.25h0.244l1.13-1.107v1.107h0.155v-1.25h-0.227l-1.147 1.124z" fill="#e20020" fill-rule="evenodd"/>
    </g>
    <g transform="translate(382.23 524.48)">
     <path d="m0 0c-0.119 0-0.209 5e-3 -0.268 0.016-0.078 0.012-0.139 0.036-0.184 0.072-0.085 0.067-0.127 0.191-0.127 0.371v0.34c0 0.196 0.041 0.328 0.125 0.394 0.049 0.039 0.121 0.065 0.215 0.077 0.053 7e-3 0.132 0.011 0.237 0.011h0.418c0.105 0 0.185-4e-3 0.237-0.011 0.094-0.012 0.166-0.038 0.215-0.077 0.084-0.066 0.126-0.192 0.126-0.378v-0.349c0-0.186-0.042-0.312-0.126-0.378-0.049-0.04-0.121-0.066-0.215-0.078-0.05-7e-3 -0.129-0.01-0.237-0.01zm0.49 1.143h-0.566c-0.146 0-0.243-0.03-0.288-0.091-0.033-0.042-0.049-0.124-0.049-0.244v-0.328c0-0.121 0.016-0.202 0.049-0.244 0.045-0.061 0.142-0.092 0.288-0.092h0.566c0.147 0 0.243 0.031 0.289 0.092 0.031 0.041 0.046 0.116 0.046 0.225v0.366c0 0.109-0.015 0.184-0.046 0.225-0.046 0.061-0.142 0.091-0.289 0.091" fill="#e20020" fill-rule="evenodd"/>
    </g>
    <g transform="translate(383.66 524.49)">
     <path d="m0 0h-0.158v1.25h0.158v-0.531h0.217l0.778 0.531h0.269l-0.886-0.6 0.946-0.65h-0.275l-0.832 0.583h-0.217z" fill="#e20020" fill-rule="evenodd"/>
    </g>
    <g transform="translate(377.37 526.57)">
     <path d="m0 0c-0.236 1e-3 -0.177 3.79-0.717 3.79h-1.919v0.985h1.947c0.294 0 0.481-2.448 0.554-3.243 0.074-0.794 0.098-0.824 0.135-0.824 0.038 0 0.049 0.023 0.127 0.826 0.079 0.803 0.266 3.241 0.593 3.241h1.469c1.238 0 1.869-3.733 2.441-3.733 0.571 0 1.198 3.733 2.3 3.733h0.636v-0.985h-0.618c-1.101 0-1.662-3.733-2.318-3.733-0.657 0-1.203 3.733-2.441 3.733h-1.469c-0.539 0-0.484-3.791-0.72-3.79" fill="#89ba17" fill-rule="evenodd"/>
    </g>
   </g>
  </g>
 </g>
</svg>
