<svg width="800" height="152.56" version="1.1" viewBox="0 0 800 152.56" xml:space="preserve" xmlns="http://www.w3.org/2000/svg"><g transform="matrix(1.3333 0 0 -1.3333 39.335 477.35)"><text transform="scale(1,-1)" x="-31.423204" y="-270.25479" fill="#59bcb1" font-family="'Myriad Pro'" font-size="128.11px" font-weight="bold" stroke-width="21.953"><tspan x="-31.423204 37.244488 155.49127 226.33687 289.62387 371.87137 403.25864 489.99005" y="-270.25479" stroke-width="21.953">TVREGION</tspan></text><g transform="matrix(21.953 0 0 21.953 153.02 313.15)"><path d="m0 0c0-0.452-0.366-0.818-0.818-0.818-0.451 0-0.817 0.366-0.817 0.818 0 0.451 0.366 0.818 0.817 0.818 0.452 0 0.818-0.367 0.818-0.818" fill="#121212"/></g><g transform="matrix(21.953 0 0 21.953 177.26 257.55)"><path d="m0 0h-0.219v-0.62h-0.147v0.62h-0.22v0.131h0.586z" fill="#121212"/></g><g transform="matrix(21.953 0 0 21.953 179.87 260.42)"><path d="m0 0h0.445v-0.131h-0.298v-0.175h0.272v-0.131h-0.272v-0.183h0.304v-0.131h-0.451z" fill="#121212"/></g><g transform="matrix(21.953 0 0 21.953 203.56 243.93)"><path d="m0 0h-0.476v0.751h0.147v-0.62h0.329z" fill="#121212"/></g><g transform="matrix(21.953 0 0 21.953 206.17 260.42)"><path d="m0 0h0.445v-0.131h-0.298v-0.175h0.272v-0.131h-0.272v-0.183h0.304v-0.131h-0.451z" fill="#121212"/></g><g transform="matrix(21.953 0 0 21.953 224.84 250.74)"><path d="m0 0 0.019-0.128h6e-3l0.021 0.129 0.144 0.44h0.155l-0.28-0.757h-0.105l-0.281 0.757h0.171z" fill="#121212"/></g><path d="m234.88 260.42h3.2271v-16.487h-3.2271zm1.866 3.9954h3.732v-0.7025l-3.754-2.0636h-2.4368z" fill="#121212"/><g transform="matrix(21.953 0 0 21.953 241.43 246.8)"><path d="m0 0 0.318 0.444 0.056 0.046h-0.374v0.13h0.521v-0.13l-0.32-0.449-0.055-0.041h0.375v-0.131h-0.521z" fill="#121212"/></g><path d="m256.17 260.42h3.2271v-16.487h-3.2271z" fill="#121212"/><g transform="matrix(21.953 0 0 21.953 267.4 250.17)"><path d="m0 0h0.161l-0.056 0.167-0.022 0.119h-6e-3l-0.022-0.12zm0.193-0.118h-0.231l-0.056-0.166h-0.148l0.271 0.756h0.108l0.271-0.756h-0.155z" fill="#121212"/></g><g transform="matrix(21.953 0 0 21.953 289.29 250.74)"><path d="m0 0 0.019-0.128h6e-3l0.021 0.129 0.144 0.44h0.155l-0.279-0.757h-0.106l-0.281 0.757h0.171z" fill="#121212"/></g><g transform="matrix(21.953 0 0 21.953 304.31 264.43)"><path d="m0 0h0.171v-0.032l-0.172-0.095h-0.111zm-0.105-0.655-0.247 0.473h0.175l0.137-0.283 0.015-0.079h6e-3l0.016 0.081 0.133 0.281h0.158l-0.246-0.472v-0.28h-0.147z" fill="#121212"/></g><g transform="matrix(21.953 0 0 21.953 322.97 244.6)"><path d="m0 0c-0.023-0.016-0.052-0.028-0.087-0.035-0.036-7e-3 -0.072-0.011-0.109-0.011-0.046 0-0.088 7e-3 -0.129 0.021-0.04 0.014-0.076 0.037-0.107 0.068-0.03 0.031-0.055 0.071-0.073 0.121s-0.027 0.11-0.027 0.181c0 0.074 0.01 0.135 0.03 0.185 0.021 0.05 0.047 0.09 0.08 0.12 0.032 0.031 0.068 0.053 0.109 0.066 0.04 0.013 0.08 0.02 0.12 0.02 0.043 0 0.079-3e-3 0.109-9e-3 0.029-6e-3 0.054-0.012 0.073-0.02l-0.029-0.125c-0.016 8e-3 -0.036 0.014-0.058 0.017-0.023 4e-3 -0.05 6e-3 -0.082 6e-3 -0.06 0-0.108-0.021-0.144-0.064-0.036-0.042-0.054-0.108-0.054-0.197 0-0.038 4e-3 -0.074 0.013-0.106 9e-3 -0.031 0.022-0.059 0.039-0.081 0.018-0.023 0.04-0.04 0.066-0.053s0.056-0.019 0.09-0.019c0.033 0 0.06 3e-3 0.082 0.01 0.022 6e-3 0.041 0.014 0.058 0.025z" fill="#121212"/></g><g transform="matrix(21.953 0 0 21.953 335.18 250.83)"><path d="m0 0h-0.275v-0.315h-0.147v0.752h0.147v-0.306h0.275v0.306h0.147v-0.752h-0.147z" fill="#121212"/></g><g transform="matrix(21.953 0 0 21.953 345.08 252.17)"><path d="m0 0c0-0.038 3e-3 -0.073 0.01-0.105 6e-3 -0.032 0.016-0.059 0.029-0.082s0.03-0.041 0.051-0.053c0.021-0.013 0.046-0.02 0.074-0.02 0.052 0 0.093 0.021 0.122 0.061 0.028 0.041 0.042 0.107 0.042 0.199 0 0.036-3e-3 0.07-9e-3 0.102-6e-3 0.031-0.015 0.059-0.028 0.083-0.013 0.023-0.03 0.042-0.051 0.055-0.02 0.013-0.046 0.02-0.076 0.02-0.052 0-0.092-0.021-0.121-0.063s-0.043-0.108-0.043-0.197m-0.155 0c0 0.125 0.028 0.222 0.083 0.289 0.055 0.068 0.134 0.102 0.236 0.102 0.054 0 0.101-0.01 0.141-0.028 0.04-0.019 0.073-0.045 0.1-0.08 0.026-0.034 0.046-0.075 0.059-0.123s0.019-0.101 0.019-0.16c0-0.125-0.028-0.222-0.083-0.289-0.056-0.068-0.134-0.102-0.236-0.102-0.054 0-0.101 0.01-0.141 0.028-0.041 0.019-0.074 0.045-0.1 0.08-0.026 0.034-0.045 0.075-0.058 0.123s-0.02 0.101-0.02 0.16" fill="#121212"/></g><g transform="matrix(21.953 0 0 21.953 364 257.78)"><path d="m0 0c-0.016 0-0.032 0-0.048-1e-3s-0.028-2e-3 -0.036-3e-3v-0.504c3e-3 0 8e-3 -1e-3 0.015-1e-3 7e-3 -1e-3 0.014-1e-3 0.022-1e-3 8e-3 -1e-3 0.015-1e-3 0.022-2e-3h0.016c0.042 0 0.076 7e-3 0.104 0.022s0.049 0.034 0.065 0.058c0.017 0.025 0.028 0.053 0.034 0.085 7e-3 0.032 0.01 0.064 0.01 0.098 0 0.029-3e-3 0.059-9e-3 0.089-5e-3 0.029-0.016 0.056-0.031 0.08-0.016 0.023-0.037 0.042-0.063 0.057-0.027 0.015-0.06 0.023-0.101 0.023m-0.231 0.12c0.015 2e-3 0.032 4e-3 0.051 6e-3 0.019 1e-3 0.039 2e-3 0.059 3e-3s0.039 1e-3 0.058 1e-3c0.019 1e-3 0.036 1e-3 0.051 1e-3 0.067 0 0.124-9e-3 0.171-0.028s0.085-0.045 0.115-0.078c0.029-0.034 0.051-0.074 0.064-0.121 0.014-0.046 0.021-0.097 0.021-0.153 0-0.051-7e-3 -0.1-0.02-0.147s-0.034-0.089-0.064-0.126c-0.03-0.036-0.07-0.066-0.119-0.088s-0.109-0.033-0.182-0.033c-0.011 0-0.026 0-0.045 1e-3s-0.039 2e-3 -0.059 3e-3c-0.021 1e-3 -0.04 2e-3 -0.059 3e-3s-0.033 2e-3 -0.042 4e-3z" fill="#121212"/></g><g transform="matrix(21.953 0 0 21.953 379.23 252.53)"><path d="m0 0-0.059 0.118h-5e-3l0.017-0.118v-0.392h-0.14v0.757h0.108l0.284-0.4 0.057-0.115h5e-3l-0.017 0.115v0.395h0.14v-0.757h-0.108z" fill="#121212"/></g><g transform="matrix(21.953 0 0 21.953 397.04 264.43)"><path d="m0 0h0.171v-0.032l-0.172-0.095h-0.111zm-0.25-0.182h0.445v-0.131h-0.298v-0.175h0.272v-0.131h-0.272v-0.184h0.304v-0.131h-0.451z" fill="#121212"/></g><g transform="matrix(21.953 0 0 21.953 414.06 250.83)"><path d="m0 0h-0.275v-0.315h-0.147v0.752h0.147v-0.306h0.275v0.306h0.147v-0.752h-0.147z" fill="#121212"/></g><g transform="matrix(21.953 0 0 21.953 423.96 252.17)"><path d="m0 0c0-0.038 3e-3 -0.073 0.01-0.105 6e-3 -0.032 0.016-0.059 0.029-0.082s0.03-0.041 0.051-0.053c0.021-0.013 0.046-0.02 0.074-0.02 0.052 0 0.093 0.021 0.122 0.061 0.028 0.041 0.043 0.107 0.043 0.199 0 0.036-4e-3 0.07-0.01 0.102-6e-3 0.031-0.015 0.059-0.028 0.083-0.013 0.023-0.03 0.042-0.051 0.055-0.02 0.013-0.046 0.02-0.076 0.02-0.052 0-0.092-0.021-0.121-0.063s-0.043-0.108-0.043-0.197m-0.155 0c0 0.125 0.028 0.222 0.083 0.289 0.055 0.068 0.134 0.102 0.236 0.102 0.054 0 0.101-0.01 0.141-0.028 0.04-0.019 0.073-0.045 0.1-0.08 0.026-0.034 0.046-0.075 0.059-0.123s0.019-0.101 0.019-0.16c0-0.125-0.028-0.222-0.083-0.289-0.056-0.068-0.134-0.102-0.236-0.102-0.054 0-0.101 0.01-0.141 0.028-0.041 0.019-0.074 0.045-0.1 0.08-0.026 0.034-0.045 0.075-0.058 0.123s-0.02 0.101-0.02 0.16" fill="#121212"/></g><g transform="matrix(21.953 0 0 21.953 451.53 248.36)"><path d="m0 0c0 0.023-8e-3 0.042-0.025 0.056s-0.038 0.027-0.064 0.039c-0.025 0.012-0.053 0.024-0.082 0.037-0.03 0.012-0.057 0.027-0.083 0.046-0.025 0.018-0.046 0.041-0.063 0.068s-0.025 0.062-0.025 0.104c0 0.036 6e-3 0.068 0.018 0.095s0.029 0.049 0.052 0.067c0.022 0.018 0.049 0.031 0.08 0.04 0.031 8e-3 0.065 0.013 0.103 0.013 0.044 0 0.085-4e-3 0.123-0.012 0.039-7e-3 0.071-0.018 0.096-0.032l-0.046-0.124c-0.016 0.01-0.04 0.019-0.071 0.028-0.032 8e-3 -0.066 0.012-0.102 0.012-0.034 0-0.061-7e-3 -0.079-0.02-0.018-0.014-0.027-0.032-0.027-0.055 0-0.022 8e-3 -0.04 0.025-0.054s0.038-0.027 0.063-0.04c0.026-0.012 0.053-0.024 0.083-0.037s0.057-0.029 0.083-0.047c0.025-0.018 0.046-0.041 0.063-0.068 0.017-0.026 0.025-0.06 0.025-0.1s-7e-3 -0.075-0.02-0.103c-0.013-0.029-0.032-0.054-0.056-0.073s-0.053-0.034-0.087-0.043-0.071-0.014-0.112-0.014c-0.053 0-0.101 5e-3 -0.141 0.015-0.041 0.01-0.071 0.02-0.091 0.03l0.048 0.126c7e-3 -4e-3 0.018-9e-3 0.03-0.014 0.013-5e-3 0.027-0.01 0.043-0.014 0.015-4e-3 0.032-8e-3 0.05-0.011 0.017-3e-3 0.035-4e-3 0.054-4e-3 0.043 0 0.077 7e-3 0.1 0.022s0.035 0.037 0.035 0.067" fill="#121212"/></g><g transform="matrix(21.953 0 0 21.953 468.29 243.93)"><path d="m0 0h-0.476v0.751h0.148v-0.62h0.328z" fill="#121212"/></g><g transform="matrix(21.953 0 0 21.953 471.58 252.17)"><path d="m0 0c0-0.038 3e-3 -0.073 0.01-0.105 6e-3 -0.032 0.016-0.059 0.029-0.082s0.03-0.041 0.051-0.053c0.021-0.013 0.046-0.02 0.074-0.02 0.052 0 0.093 0.021 0.122 0.061 0.028 0.041 0.043 0.107 0.043 0.199 0 0.036-4e-3 0.07-0.01 0.102-6e-3 0.031-0.015 0.059-0.028 0.083-0.013 0.023-0.03 0.042-0.051 0.055-0.02 0.013-0.046 0.02-0.076 0.02-0.052 0-0.092-0.021-0.121-0.063s-0.043-0.108-0.043-0.197m-0.155 0c0 0.125 0.028 0.222 0.083 0.289 0.055 0.068 0.134 0.102 0.236 0.102 0.054 0 0.101-0.01 0.141-0.028 0.04-0.019 0.073-0.045 0.1-0.08 0.026-0.034 0.046-0.075 0.059-0.123s0.019-0.101 0.019-0.16c0-0.125-0.028-0.222-0.083-0.289-0.056-0.068-0.134-0.102-0.236-0.102-0.054 0-0.101 0.01-0.141 0.028-0.041 0.019-0.074 0.045-0.1 0.08-0.026 0.034-0.045 0.075-0.058 0.123s-0.02 0.101-0.02 0.16" fill="#121212"/></g><g transform="matrix(21.953 0 0 21.953 489.99 250.74)"><path d="m0 0 0.019-0.128h6e-3l0.021 0.129 0.144 0.44h0.155l-0.28-0.757h-0.105l-0.281 0.757h0.171z" fill="#121212"/></g><g transform="matrix(21.953 0 0 21.953 499.7 260.42)"><path d="m0 0h0.445v-0.131h-0.298v-0.175h0.272v-0.131h-0.272v-0.183h0.304v-0.131h-0.451z" fill="#121212"/></g><g transform="matrix(21.953 0 0 21.953 517.05 252.53)"><path d="m0 0-0.059 0.118h-5e-3l0.017-0.118v-0.392h-0.14v0.757h0.108l0.284-0.4 0.057-0.115h5e-3l-0.017 0.115v0.395h0.14v-0.757h-0.108z" fill="#121212"/></g><g transform="matrix(21.953 0 0 21.953 536.49 248.36)"><path d="m0 0c0 0.023-8e-3 0.042-0.025 0.056s-0.038 0.027-0.064 0.039c-0.025 0.012-0.053 0.024-0.082 0.037-0.03 0.012-0.057 0.027-0.083 0.046-0.025 0.018-0.046 0.041-0.063 0.068s-0.025 0.062-0.025 0.104c0 0.036 6e-3 0.068 0.018 0.095s0.029 0.049 0.052 0.067c0.022 0.018 0.049 0.031 0.08 0.04 0.031 8e-3 0.065 0.013 0.103 0.013 0.044 0 0.085-4e-3 0.123-0.012 0.039-7e-3 0.071-0.018 0.096-0.032l-0.046-0.124c-0.016 0.01-0.04 0.019-0.071 0.028-0.032 8e-3 -0.066 0.012-0.102 0.012-0.034 0-0.061-7e-3 -0.079-0.02-0.018-0.014-0.027-0.032-0.027-0.055 0-0.022 8e-3 -0.04 0.025-0.054s0.038-0.027 0.063-0.04c0.026-0.012 0.053-0.024 0.083-0.037s0.057-0.029 0.083-0.047c0.025-0.018 0.046-0.041 0.063-0.068 0.017-0.026 0.025-0.06 0.025-0.1s-7e-3 -0.075-0.02-0.103c-0.013-0.029-0.032-0.054-0.056-0.073s-0.053-0.034-0.087-0.043-0.071-0.014-0.112-0.014c-0.053 0-0.101 5e-3 -0.141 0.015-0.041 0.01-0.071 0.02-0.091 0.03l0.048 0.126c7e-3 -4e-3 0.018-9e-3 0.03-0.014 0.013-5e-3 0.027-0.01 0.043-0.014 0.015-4e-3 0.032-8e-3 0.05-0.011 0.017-3e-3 0.035-4e-3 0.054-4e-3 0.043 0 0.077 7e-3 0.1 0.022s0.035 0.037 0.035 0.067" fill="#121212"/></g><g transform="matrix(21.953 0 0 21.953 546.88 250.97)"><path d="m0 0h-0.039v-0.321h-0.147v0.751h0.147v-0.332l0.035 0.015 0.207 0.317h0.167l-0.219-0.315-0.058-0.041 0.061-0.042 0.25-0.353h-0.182z" fill="#121212"/></g><g transform="matrix(21.953 0 0 21.953 561.54 250.17)"><path d="m0 0h0.161l-0.056 0.167-0.022 0.119h-6e-3l-0.022-0.12zm0.193-0.118h-0.231l-0.056-0.166h-0.148l0.271 0.756h0.108l0.271-0.756h-0.155z" fill="#121212"/></g></g></svg>
