<svg width="272.26pt" height="83.084pt" version="1.1" viewBox="0 0 272.26 83.084" xmlns="http://www.w3.org/2000/svg">
 <g transform="translate(-15.069 -108.91)" fill="#fff">
  <path d="m130.92 109.17 18.47-0.06c-1.89 10.07-4.95 19.88-7.26 29.85-3.59 14.2-7.15 28.41-10.76 42.6-1.34 3.46-2.32 8.23-6.47 9.3-5.51 1.55-11.33 1.08-16.99 1.03-3.38-0.27-7.43-0.25-9.9-2.95-2.52-3.51-3.44-7.84-4.57-11.93l-12.89-50.84h-23.27v65.24h-19.42v-65.24h-22.04c-0.80408 0-0.75 3e-3 -0.75-0.75v-15.5c0-0.80409-0.0028-0.75 0.75-0.75h79.19c5.6 21.88 10.9 43.84 16.51 65.73 0.25 1.78 2.45 2.23 2.72 0.07z" fill="#fff"/>
 </g>
 <path d="m157.53 4.7083c6.11-3.68 13.44-4.12 20.37-4.69 8.8118-0.17822 17.633 0.95714 26.222 2.8917 0.25596 0.0686 0.27792 0.0649 0.22776 0.40266l-1.877 13.183c-0.1433 0.53482-0.14207 0.51203-0.72697 0.51203h-27.716c-2.78 0.1-6.02 1.2202-6.99 4.1002-1.45 2.93-0.7 6.87 2.3 8.5 3.25 1.51 6.72 2.5 9.97 4.03 6.69 2.83 14.64 4.62 18.93 11.04 3.46 6.39 1.68 14 0.08 20.67-2.1 8.13-9.44 13.92-17.41 15.76-13.85 3.19-28.21 1.43-42.06-0.77-1.1148-0.26124-1.7059-0.56516-1.47-1.75 0.7-3.95 1.05-7.99 2.16-11.86 0.21017-0.78436 0.78329-0.83 2.2733-0.83h30.177c2.61 0.02 5.54-0.58 7.08-2.91 0.58397-1.4782 0.88486-3.0562 1.2749-4.5975 0.33551-2.7735-1.6052-3.4248-3.9149-4.5725-7.05-3.1-14.39-5.5-21.44-8.62-3.39-1.45-6.29-4.2-7.52-7.73-1.89-5.41-0.89-11.23-0.11-16.75 0.93-6.41 4.31-12.86 10.17-16.01z" fill="#4481c1"/>
 <path d="m215.47 0.4083h56.79l-2.55 16.45h-56.79z" fill="#4481c1"/>
 <path d="m210.11 32.91h56.79l-1.8202 16.1h-56.79z" fill="#4481c1"/>
 <path d="m205.22 64.858h56.79l-2.1502 16.86h-56.79z" fill="#4481c1"/>
</svg>
