<svg width="600pt" height="315.38pt" version="1.1" viewBox="0 0 600 315.38" xmlns="http://www.w3.org/2000/svg">
 <g transform="matrix(8.8014 0 0 8.8014 -27.637 -360.58)" fill="#a6ce39">
  <path d="m37.94 70.125 3.8064-0.37007q0.34364 1.9164 1.3878 2.8152 1.0573 0.89874 2.8416 0.89874 1.89 0 2.8416-0.793 0.96482-0.80622 0.96482-1.8768 0-0.68727-0.40972-1.1631-0.3965-0.48902-1.401-0.84587-0.68727-0.2379-3.1324-0.84587-3.1456-0.77979-4.4144-1.9164-1.7843-1.5992-1.7843-3.8989 0-1.4803 0.83265-2.7623 0.84587-1.2952 2.4187-1.9693 1.586-0.67405 3.8196-0.67405 3.6478 0 5.4849 1.5992 1.8503 1.5992 1.9429 4.269l-3.9121 0.17182q-0.25112-1.4935-1.0838-2.1411-0.81944-0.66084-2.4715-0.66084-1.705 0-2.6698 0.70049-0.62119 0.44937-0.62119 1.2027 0 0.68727 0.58154 1.1763 0.74014 0.62118 3.5949 1.2952 2.8548 0.67405 4.2161 1.401 1.3745 0.7137 2.1411 1.9693 0.77979 1.2424 0.77979 3.0795 0 1.6653-0.92517 3.1191t-2.6169 2.1675q-1.6917 0.70048-4.2161 0.70048-3.6742 0-5.6435-1.6917-1.9693-1.705-2.3526-4.9563z"/>
  <path d="m60.446 76.429v-16.098h-5.7493v-3.2777h15.397v3.2777h-5.7361v16.098z"/>
 </g>
 <path d="m46.736 5.457 60.907-5.457v75.605l492.36 0.6161-492.36 52.457v115.74c-0.16943 20.864 34.026 17.53 52.765 16.635v50.169c-16.009 1.7708-35.251 4.1552-54.445 4.1552-46.291 0-69.096-22.279-68.467-70.959v-116.44l-37.496 0.17603v-52.809l41.279 0.44007z" fill="#fff200" stroke-width="8.8015"/>
 <path d="m166.96 168.02h45.063l26.58 90.567 28.517-90.567h32.213l-49.728 142.76h-33.093z" fill="#fff200" stroke-width="8.8014"/>
</svg>
