<svg width="800" height="607.14" version="1.1" viewBox="0 0 800 607.14" xml:space="preserve" xmlns="http://www.w3.org/2000/svg"><defs><clipPath id="clipPath8594"><path d="m227.85 608.8h19.059v18.68h-19.059z"/></clipPath><clipPath id="clipPath8602"><path d="m228.7 627.09h17.389v-10.856h-17.389z"/></clipPath><clipPath id="clipPath8606"><path d="m228.7 616.23h17.389v10.856h-17.389z"/></clipPath><clipPath id="clipPath8610"><path d="m227.51 627.09h18.577v-11.891h-18.577z"/></clipPath><clipPath id="clipPath8614"><path d="m237.61 627.09c-0.531-2e-3 -1.063-0.058-1.583-0.163-4.714-1.027-8.52-6.055-6.988-10.36 0 0 0.712-1.365 1.734 1.437 1.443 3.917 6.41 5.569 10.504 4.369 0.687-0.161 2.012-0.783 3.398-1.644 0.907-0.564 1.326-1.295 1.409-0.624-0.558 3.329-3.336 5.981-6.892 6.824-0.507 0.109-1.025 0.161-1.543 0.161h-0.039"/></clipPath><mask id="mask8624" x="0" y="0" width="1" height="1" maskUnits="userSpaceOnUse"/><linearGradient id="linearGradient8642" x2="1" gradientTransform="matrix(1.605 11.816 11.816 -1.605 236.8 615.24)" gradientUnits="userSpaceOnUse"><stop offset="0"/><stop stop-color="#d50501" offset="1"/></linearGradient><mask id="mask8644" x="0" y="0" width="1" height="1" maskUnits="userSpaceOnUse"><g clip-path="url(#clipPath8602)" opacity=".8"><g clip-path="url(#clipPath8606)"><g clip-path="url(#clipPath8610)"><g clip-path="url(#clipPath8614)"><g mask="url(#mask8624)"><path d="m237.61 627.09c-0.531-2e-3 -1.063-0.058-1.583-0.163-4.714-1.027-8.52-6.055-6.988-10.36 0 0 0.712-1.365 1.734 1.437 1.443 3.917 6.41 5.569 10.504 4.369 0.687-0.161 2.012-0.783 3.398-1.644 0.907-0.564 1.326-1.295 1.409-0.624-0.558 3.329-3.336 5.981-6.892 6.824-0.507 0.109-1.025 0.161-1.543 0.161h-0.039" fill="url(#linearGradient8642)"/></g></g></g></g></g></mask><clipPath id="clipPath8682"><path d="m228.7 627.09h17.389v-10.856h-17.389z"/></clipPath><linearGradient id="linearGradient8692" x2="1" gradientTransform="matrix(1.605 11.816 11.816 -1.605 236.8 615.24)" gradientUnits="userSpaceOnUse"><stop stop-color="#d50501" offset="0"/><stop stop-color="#d50501" offset="1"/></linearGradient><clipPath id="clipPath8714"><path d="m228.72 626.87h16.051v-14.912h-16.051z"/></clipPath><clipPath id="clipPath8718"><path d="m228.72 611.96h16.051v14.912h-16.051z"/></clipPath><clipPath id="clipPath8722"><path d="m228.61 626.93h16.272v-15.007h-16.272z"/></clipPath><clipPath id="clipPath8726"><path d="m237.44 626.87c-4.928-0.108-8.831-4.293-8.719-9.349 0.037-1.636 0.49-3.161 1.251-4.475 1.477-0.726 3.176-1.123 4.976-1.083 5.536 0.121 9.933 4.317 9.82 9.372-0.018 0.829-0.157 1.63-0.4 2.389-1.643 1.932-4.059 3.149-6.737 3.149-0.064 0-0.128-1e-3 -0.191-3e-3"/></clipPath><mask id="mask8736" x="0" y="0" width="1" height="1" maskUnits="userSpaceOnUse"/><linearGradient id="linearGradient8754" x2="1" gradientTransform="matrix(12.972 12.207 12.207 -12.972 229.89 613.14)" gradientUnits="userSpaceOnUse"><stop offset="0"/><stop stop-color="#d50501" offset="1"/></linearGradient><mask id="mask8756" x="0" y="0" width="1" height="1" maskUnits="userSpaceOnUse"><g clip-path="url(#clipPath8714)" opacity=".8"><g clip-path="url(#clipPath8718)"><g clip-path="url(#clipPath8722)"><g clip-path="url(#clipPath8726)"><g mask="url(#mask8736)"><path d="m237.44 626.87c-4.928-0.108-8.831-4.293-8.719-9.349 0.037-1.636 0.49-3.161 1.251-4.475 1.477-0.726 3.176-1.123 4.976-1.083 5.536 0.121 9.933 4.317 9.82 9.372-0.018 0.829-0.157 1.63-0.4 2.389-1.643 1.932-4.059 3.149-6.737 3.149-0.064 0-0.128-1e-3 -0.191-3e-3" fill="url(#linearGradient8754)"/></g></g></g></g></g></mask><clipPath id="clipPath8794"><path d="m228.72 626.87h16.051v-14.912h-16.051z"/></clipPath><linearGradient id="linearGradient8804" x2="1" gradientTransform="matrix(12.972 12.207 12.207 -12.972 229.89 613.14)" gradientUnits="userSpaceOnUse"><stop stop-color="#d50501" offset="0"/><stop stop-color="#d50501" offset="1"/></linearGradient><clipPath id="clipPath13236"><path d="m0 0h595.28v841.89h-595.28z"/></clipPath><clipPath id="clipPath13256"><path d="m0 0h595.28v841.89h-595.28z"/></clipPath></defs><g transform="matrix(1.3333 0 0 -1.3333 -684.92 3290)"><g clip-path="url(#clipPath8594)"><g mask="url(#mask8644)"><g clip-path="url(#clipPath8682)" opacity=".8"><path d="m237.61 627.09c-0.531-2e-3 -1.063-0.058-1.583-0.163-3.97-0.865-7.295-4.567-7.332-8.285v-0.128c8e-3 -0.655 0.117-1.309 0.344-1.947 0 0 0.712-1.365 1.734 1.437 1.443 3.917 6.41 5.569 10.504 4.369 0.687-0.161 2.012-0.783 3.398-1.644 0.907-0.564 1.326-1.295 1.409-0.624-0.558 3.329-3.336 5.981-6.892 6.824-0.498 0.107-1.005 0.159-1.513 0.161z" fill="url(#linearGradient8692)"/></g></g><g mask="url(#mask8756)"><g clip-path="url(#clipPath8794)" opacity=".8"><path d="m237.57 626.87c-0.042 0-0.085-1e-3 -0.127-2e-3 -4.825-0.106-8.668-4.121-8.721-9.035v-0.204c0-0.036 1e-3 -0.073 2e-3 -0.11 0.037-1.636 0.49-3.161 1.251-4.475 1.41-0.693 3.021-1.086 4.73-1.086h1e-3c0.082 0 0.163 1e-3 0.245 3e-3 5.443 0.119 9.783 4.176 9.822 9.116v0.139c0 0.039-1e-3 0.078-2e-3 0.117-0.018 0.829-0.157 1.63-0.4 2.389-1.63 1.916-4.019 3.128-6.672 3.148z" fill="url(#linearGradient8804)"/></g></g></g><g transform="matrix(30.13 0 0 30.13 -10576 -319.79)" fill="#d50501"><g clip-path="url(#clipPath13236)" fill="#d50501"><g transform="translate(387.36 85.432)" fill="#d50501"><path d="m0 0h-2.704v-0.18h2.704c0.248 0 0.45-0.202 0.45-0.45v-6.775c0-0.248-0.202-0.45-0.45-0.45h-18.654c-0.248 0-0.45 0.202-0.45 0.45v6.775c0 0.248 0.202 0.45 0.45 0.45h2.562v0.18h-2.562c-0.347 0-0.63-0.283-0.63-0.63v-6.775c0-0.347 0.283-0.63 0.63-0.63h18.654c0.347 0 0.63 0.283 0.63 0.63v6.775c0 0.347-0.283 0.63-0.63 0.63" fill="#d50501"/></g></g><g transform="translate(370.36 82.855)"><path d="m0 0h-0.833v0.724h2.463v-0.724h-0.833v-4.347h-0.797z" fill="#d50501"/></g><g transform="translate(372.19 83.579)"><path d="m0 0h0.804l0.522-3.934h0.014l0.522 3.934h0.731l-0.767-5.071h-1.058z" fill="#d50501"/></g><g clip-path="url(#clipPath13256)" fill="#d50501"><g transform="translate(375.16 79.059)"><path d="m0 0c0 0.362 0.058 0.672 0.174 0.931 0.116 0.258 0.323 0.544 0.623 0.858 0.294 0.314 0.499 0.582 0.612 0.804 0.113 0.223 0.17 0.454 0.17 0.696 0 0.217-0.035 0.368-0.105 0.453-0.07 0.084-0.173 0.126-0.308 0.126-0.275 0-0.413-0.166-0.413-0.499v-0.544h-0.753v0.493c0 0.41 0.101 0.725 0.304 0.945s0.498 0.33 0.884 0.33 0.681-0.11 0.884-0.33 0.304-0.535 0.304-0.945c0-0.309-0.074-0.611-0.221-0.906-0.147-0.294-0.402-0.632-0.764-1.014-0.237-0.251-0.396-0.455-0.478-0.612s-0.123-0.325-0.123-0.503v-0.109h1.514v-0.725h-2.304z" fill="#d50501"/></g><g transform="translate(379.39 78.765)"><path d="m0 0c-0.198 0.22-0.297 0.535-0.297 0.945v0.29h0.753v-0.348c0-0.328 0.138-0.492 0.413-0.492 0.135 0 0.238 0.04 0.308 0.119 0.07 0.08 0.105 0.209 0.105 0.388 0 0.212-0.048 0.399-0.145 0.561-0.096 0.162-0.275 0.356-0.536 0.584-0.328 0.289-0.558 0.551-0.688 0.785-0.13 0.235-0.196 0.499-0.196 0.794 0 0.401 0.102 0.711 0.305 0.931 0.203 0.219 0.497 0.329 0.884 0.329 0.381 0 0.67-0.11 0.865-0.329 0.196-0.22 0.294-0.535 0.294-0.946v-0.21h-0.754v0.261c0 0.174-0.034 0.301-0.101 0.38-0.068 0.08-0.167 0.12-0.297 0.12-0.266 0-0.399-0.162-0.399-0.486 0-0.183 0.05-0.354 0.149-0.514 0.099-0.159 0.279-0.352 0.54-0.579 0.333-0.29 0.562-0.553 0.688-0.79 0.125-0.237 0.188-0.514 0.188-0.833 0-0.416-0.103-0.734-0.308-0.956-0.205-0.223-0.503-0.334-0.894-0.334-0.387 0-0.679 0.11-0.877 0.33" fill="#d50501"/></g></g><g transform="translate(381.92 83.579)"><path d="m0 0h2.173v-0.724h-1.376v-1.341h1.094v-0.724h-1.094v-1.558h1.376v-0.724h-2.173zm1.159 1.174h0.869l-0.775-0.834h-0.601z" fill="#d50501"/></g><g transform="translate(384.55 83.579)"><path d="m0 0h2.108v-0.724h-1.311v-1.413h1.029v-0.725h-1.029v-2.209h-0.797z" fill="#d50501"/></g><g transform="translate(376.85 84.146)"><path d="m0 0c-0.124 0.255-0.303 0.451-0.588 0.519-0.064 0.015-0.146 7e-3 -0.204-0.021-0.329-0.159-0.672-0.272-1.034-0.311-0.568-0.061-1.073 0.069-1.45 0.53-0.272 0.333-0.388 0.727-0.392 1.15-9e-3 1.001 0.432 1.788 1.188 2.414 0.072 0.06 0.098 0.112 0.09 0.206-0.049 0.611-3e-3 1.21 0.281 1.768 0.271 0.532 0.704 0.858 1.285 0.992 0.413 0.095 0.825 0.076 1.236-2e-3 0.107-0.021 0.176-2e-3 0.253 0.079 0.461 0.482 0.991 0.86 1.657 0.992 0.757 0.15 1.407-0.052 1.898-0.664 0.362-0.451 0.478-0.982 0.425-1.551-0.06-0.644-0.331-1.202-0.713-1.713-0.037-0.05-0.074-0.1-0.121-0.163 0.445 0.124 0.524 0.129 0.672 0.045-0.038-0.03-0.076-0.056-0.11-0.087-0.22-0.192-0.255-0.423-0.095-0.669 0.058-0.09 0.125-0.178 0.201-0.254 0.053-0.053 0.124-0.097 0.195-0.122 0.224-0.078 0.435-0.175 0.614-0.337 0.486-0.441 0.36-1.11-0.073-1.522 0.016 0.163 0.05 0.336 0.045 0.508-6e-3 0.159-0.028 0.328-0.089 0.474-0.129 0.306-0.403 0.405-0.713 0.424-0.628 0.039-1.2-0.153-1.746-0.436-0.649-0.336-1.225-0.777-1.734-1.3-0.325-0.333-0.624-0.691-0.937-1.042-0.01 0.021-0.024 0.058-0.041 0.093m-0.422 0.875c0.258-0.083 0.422-0.248 0.512-0.515 0.927 1.627 2.315 2.539 4.147 2.802-0.399 0.148-0.577 0.445-0.596 0.866-0.13-0.093-0.245-0.181-0.365-0.263-0.274-0.186-0.575-0.297-0.906-0.335-0.203-0.023-0.382 0.023-0.555 0.131-0.373 0.236-0.569 0.574-0.601 1.012-0.022 0.295 0.021 0.582 0.087 0.834 0.071-0.249 0.133-0.527 0.23-0.791 0.093-0.257 0.262-0.47 0.514-0.593 0.399-0.196 0.768-0.11 1.101 0.158 0.362 0.291 0.573 0.685 0.727 1.113 0.166 0.461 0.202 0.925 0.061 1.405-0.217 0.738-0.757 1.109-1.528 1.026-0.57-0.062-1.038-0.336-1.457-0.707-0.542-0.48-0.958-1.061-1.33-1.676-0.171-0.281-0.327-0.572-0.49-0.858-6e-3 -0.011-0.014-0.021-0.028-0.027 0.196 0.926 0.598 1.753 1.188 2.492-3e-3 0.012-6e-3 0.023-8e-3 0.034-0.213-0.01-0.428-4e-3 -0.639-0.032-0.658-0.086-1.146-0.427-1.464-1.012-0.25-0.46-0.355-0.959-0.418-1.499 0.201 0.104 0.383 0.198 0.565 0.291l0.012-0.015c-0.097-0.115-0.196-0.228-0.291-0.345-0.326-0.404-0.638-0.818-0.818-1.311-0.173-0.476-0.193-0.963-0.043-1.45 0.159-0.515 0.557-0.79 1.046-0.692 0.207 0.042 0.412 0.139 0.595 0.249 0.532 0.319 0.9 0.796 1.199 1.33 0.1 0.179 0.194 0.362 0.291 0.544-0.077-0.778-0.311-1.5-0.738-2.166" fill="#d50501"/></g></g></g></svg>
