<svg width="704.18" height="800" xmlns:cc="http://creativecommons.org/ns#" xmlns:dc="http://purl.org/dc/elements/1.1/" xmlns:rdf="http://www.w3.org/1999/02/22-rdf-syntax-ns#" space="preserve" version="1.1" viewBox="0 0 704.18 800" xmlns="http://www.w3.org/2000/svg">
 <metadata>
  <rdf:RDF>
   <cc:Work rdf:about="">
    <dc:format>image/svg+xml</dc:format>
    <dc:type rdf:resource="http://purl.org/dc/dcmitype/StillImage"/>
    <dc:title/>
   </cc:Work>
  </rdf:RDF>
 </metadata>
 <link href="" rel="stylesheet" type="text/css"/>
 <style type="text/css"/>
 <g fill="#e30747" stroke-width="2.0518">
  <path d="m704.18 548.04c0-55.194-35.291-79.61-90.69-79.61h-376.92c-4.514 0-8.6176-2.4622-10.875-6.1554-2.257-3.8984-2.257-8.6176 0-12.516l135.42-236.98c2.8725-4.9243 8.6176-7.3865 14.157-5.9502 5.5399 1.4363 9.4383 6.3606 9.4383 12.106v217.08h172.35v-301.21c0-79.61-50.885-134.8-132.55-134.8-56.425 0-94.999 13.337-127.01 62.991l-263.25 406.67c-13.337 19.903-34.265 52.937-34.265 87.202 0 29.751 22.16 70.787 89.459 70.787h146.29c0.41036 0 0.82072-0.20518 1.2311-0.20518h383.07c51.706-1.8466 84.124-26.263 84.124-79.405"/>
  <path d="m384.51 702.74c0 62.991 33.239 97.256 86.176 97.256s86.176-34.265 86.176-99.513v-40.626h-172.35z"/>
 </g>
 <g fill="#fff" stroke-width="2.0518">
  <path d="m414.26 600.56c-0.61555-0.61555-1.0259-1.4363-1.0259-2.257v-73.455h-24.622c-0.82072 0-1.6414-0.41037-2.257-1.0259-0.61555-0.61554-1.0259-1.4363-1.0259-2.4622v-10.054c0-1.0259 0.20518-1.8466 0.82072-2.4622 0.61555-0.61554 1.4363-1.0259 2.257-1.0259h68.12c1.0259 0 1.8466 0.41036 2.4622 1.0259 0.61555 0.61555 1.0259 1.4363 1.0259 2.4622v10.054c0 1.0259-0.41036 1.8466-1.0259 2.4622-0.61554 0.61554-1.4363 1.0259-2.4622 1.0259h-24.417v73.455c0 0.82072-0.20518 1.6414-0.82073 2.257-0.61554 0.61554-1.4363 1.0259-2.257 1.0259h-12.516c-1.0259 0-1.6414-0.41036-2.257-1.0259"/>
  <path d="m495.51 597.9-28.52-85.56c0-0.20518-0.20518-0.61555-0.20518-1.2311 0-0.82072 0.20518-1.4363 0.82072-2.0518 0.61554-0.61554 1.2311-0.82072 2.0518-0.82072h11.9c1.2311 0 2.0518 0.41036 2.8725 1.0259 0.61554 0.61555 1.2311 1.2311 1.4363 2.0518l22.16 68.12 22.365-68.12c0.20518-0.61554 0.61554-1.4363 1.2311-2.0518 0.61555-0.61554 1.6414-1.0259 2.8725-1.0259h11.9c0.61554 0 1.4363 0.20518 1.8466 0.82072 0.61554 0.61555 0.82072 1.2311 0.82072 2.0518l-0.20518 1.2311-28.315 85.56c-0.82072 2.4622-2.6674 3.6932-5.1295 3.6932h-14.773c-2.6674 0-4.3088-1.2311-5.1295-3.6932"/>
 </g>
</svg>
