<svg width="800" height="366.34" space="preserve" version="1.1" viewBox="0 0 800 366.34" xmlns="http://www.w3.org/2000/svg">
 <rect class="st0" y="-8.0917e-6" width="800" height="366.34" fill="#0951af" stroke-width="2.1373"/>
 <g transform="matrix(2.1373 0 0 2.1373 0 -8.0917e-6)" fill="#fff">
  <path class="st1" d="m217.4 85.2v-22.2h6.9c9.3 0 12.5 4.7 12.5 11.1 0 6.3-4.3 11.2-13.3 11.2 0.1-0.1-6.1-0.1-6.1-0.1zm7.3-34.9h-23.7v68.1h16.5v-20.4h7.5c18.5 0 28.9-11.6 28.9-23.9 0-13.3-8.8-23.8-29.2-23.8zm-111.9 0h-55.4v13.7h19.5v54.4h16.5v-54.4h19.5zm44.1 40.7 18.8-40.7h17.8l-32.8 68.1h-7.6l-32.9-68.1h17.8z"/>
  <polygon class="st2" points="308.6 50.3 279.3 60.6 282.2 73.8 296.9 68.6 296.9 118.4 313.1 118.4 313.1 50.3"/>
 </g>
</svg>
