<svg width="800" height="212.86" space="preserve" version="1.1" viewBox="0 0 800 212.86" xmlns="http://www.w3.org/2000/svg">
 <g transform="matrix(4.7619 0 0 4.7619 0 2.6568e-6)" fill="#0951af">
  <path class="st0" d="m105.1 22.9v-14.5h4.6c6.1 0 8.2 3.1 8.2 7.3 0 4.1-2.8 7.3-8.8 7.3 0-0.1-4-0.1-4-0.1zm4.8-22.9h-15.6v44.7h10.8v-13.4h4.9c12.1 0 19-7.7 19-15.7 0-8.7-5.7-15.6-19.1-15.6zm-73.5 0h-36.4v9h12.8v35.7h10.8v-35.7h12.8zm28.9 26.7 12.4-26.7h11.7l-21.6 44.7h-5l-21.5-44.7h11.7z"/>
  <polygon class="st1" points="168 44.7 168 0 165 0 145.7 6.7 147.6 15.4 157.3 12 157.3 44.7"/>
 </g>
</svg>
