<svg width="800pt" height="366.67pt" version="1.1" viewBox="0 0 800 366.67" xmlns="http://www.w3.org/2000/svg">
 <path d="m0 238.41h800v128.26h-800z" fill="#0f262e" stop-color="#000000" stroke-width=".27727" style="paint-order:stroke markers fill"/>
 <g transform="matrix(.66406 0 0 .66406 -199.77 -188.29)" fill="#fff">
  <g transform="translate(343.32 625.18)">
   <path transform="matrix(.75 0 0 .75 52.234 -350.96)" d="m121.49 491.11 87.439 128.77-87.439 128.77 128.76-87.439 128.75 87.439-87.412-128.77 87.412-128.77-128.75 87.439z" fill="#fff" stroke-width="1.3333"/>
  </g>
  <path d="m462.83 778.98v25.349h-101.99v-138.33h100.6v25.349h-66.144v29.012h63.075v25.349h-63.075v33.27z" stroke-width="5.0697" style="white-space:pre"/>
  <path d="m702.65 666h61.688q20.992 0 33.369 12.179t12.377 28.814q0 17.229-12.278 29.507-12.179 12.278-33.27 12.278h-27.428v55.549h-34.458zm34.458 25.349v32.082h16.041q21.487 0 21.487-16.041 0-9.0106-5.743-12.476-5.7431-3.5646-19.606-3.5646z" stroke-width="5.0697" style="white-space:pre"/>
  <path d="m934.95 778.98v25.349h-105.45v-138.33h34.458v112.98z" stroke-width="5.0697" style="white-space:pre"/>
  <path d="m1020.8 664.22q35.35 0 57.232 21.388 21.883 21.289 21.883 49.608 0 28.715-22.18 49.806t-56.935 21.091q-35.151 0-57.232-20.992t-22.081-49.905q0-28.418 21.883-49.707 21.982-21.289 57.431-21.289zm0 113.18q19.606 0 31.587-11.585 11.981-11.684 11.981-30.597 0-19.011-11.981-30.597-11.981-11.585-31.587-11.585-19.705 0-31.785 11.585-11.981 11.585-11.981 30.597 0 18.912 11.981 30.597 12.08 11.585 31.785 11.585z" stroke-width="5.0697" style="white-space:pre"/>
  <path d="m1123.9 666h61.787q20.101 0 32.676 11.684 12.575 11.585 12.575 28.121 0 22.873-23.764 33.864 10.496 4.6539 19.804 25.448 9.4068 20.794 18.12 39.211h-37.924q-3.3666-6.8322-11.783-26.042-8.3176-19.21-14.358-24.656-5.9411-5.446-12.773-5.446h-9.9018v56.143h-34.458zm34.458 25.349v31.488h18.219q8.7136 0 13.764-4.0598 5.149-4.1588 5.149-11.783 0-15.645-19.705-15.645z" stroke-width="5.0697" style="white-space:pre"/>
  <path d="m1307.6 666v138.33h-34.458v-138.33z" stroke-width="5.0697" style="white-space:pre"/>
  <path d="m1439.3 674.91v27.032c-18.351-8.2515-32.973-12.377-43.865-12.377-6.2051 0-11.156 1.0562-14.853 3.1686-3.6306 2.0463-5.4459 4.7858-5.4459 8.2185 0 2.6405 1.3202 5.1489 3.9607 7.5254 2.6405 2.3764 9.0766 5.446 19.308 9.2087s18.417 7.2613 24.556 10.496 11.42 7.7894 15.843 13.665c4.4888 5.8751 6.7328 13.301 6.7328 22.279 0 12.806-4.8845 23.005-14.654 30.597-9.7038 7.5914-22.51 11.387-38.419 11.387-17.163 0-33.798-4.4558-49.905-13.367v-29.804c9.2417 6.2052 17.427 10.727 24.557 13.565 7.1293 2.8385 14.688 4.2578 22.675 4.2578 13.532 0 20.299-4.2578 20.299-12.773 0-2.9046-1.3533-5.6441-4.0598-8.2185-2.7065-2.5745-9.2417-5.7101-19.606-9.4067-10.298-3.6967-18.483-7.1293-24.556-10.298-6.0071-3.1686-11.222-7.6904-15.645-13.565-4.3569-5.8751-6.5353-13.4-6.5353-22.576 0-11.882 4.7859-21.454 14.358-28.715 9.5717-7.3273 22.378-10.991 38.419-10.991 14.787 0 30.399 3.5646 46.836 10.694z" stroke-width="5.0697" style="white-space:pre"/>
 </g>
 <g transform="matrix(2.6457 0 0 2.6457 -981.46 791.37)">
  <g transform="translate(370.96 -408.03)">
   <path d="m130.92 109.17 18.47-0.06c-1.89 10.07-4.95 19.88-7.26 29.85-3.59 14.2-7.15 28.41-10.76 42.6-1.34 3.46-2.32 8.23-6.47 9.3-5.51 1.55-11.33 1.08-16.99 1.03-3.38-0.27-7.43-0.25-9.9-2.95-2.52-3.51-3.44-7.84-4.57-11.93l-12.89-50.84h-23.27v65.24h-19.42v-65.24h-22.04c-0.80408 0-0.75 3e-3 -0.75-0.75v-15.5c0-0.80409-0.0028-0.75 0.75-0.75h79.19c5.6 21.88 10.9 43.84 16.51 65.73 0.25 1.78 2.45 2.23 2.72 0.07z" fill="#040097"/>
  </g>
  <path d="m563.93-299.1c8.8118-0.1782 17.633 0.9572 26.222 2.8917 0.25596 0.069 0.27792 0.065 0.22776 0.4027l-1.877 13.183c-0.1433 0.5348-0.14207 0.512-0.72697 0.512h-27.716c-2.78 0.1-6.02 1.2202-6.99 4.1002-1.45 2.93-0.7 6.87 2.3 8.5 3.25 1.51 6.72 2.5 9.97 4.03 6.69 2.83 14.64 4.62 18.93 11.04 3.46 6.39 1.68 14 0.08 20.67-2.1 8.13-9.44 13.92-17.41 15.76-13.85 3.19-28.21 1.43-42.06-0.77-1.1148-0.26124-1.7059-0.56516-1.47-1.75 0.7-3.95 1.05-7.99 2.16-11.86 0.21017-0.7843 0.78329-0.83 2.2733-0.83h30.177c2.61 0.02 5.54-0.58 7.08-2.91 0.58397-1.4782 0.88486-3.0562 1.2749-4.5975 0.33551-2.7735-1.6052-3.4248-3.9149-4.5725-7.05-3.1-14.39-5.5-21.44-8.62-3.39-1.45-6.29-4.2-7.52-7.73-1.89-5.41-0.89-11.23-0.11-16.75 0.93-6.41 4.31-12.86 10.295-16.275 5.985-3.4148 13.315-3.8548 20.245-4.4248z" fill="#048bff"/>
  <path d="m601.5-298.71h56.79l-2.55 16.45h-56.79z" fill="#048bff"/>
  <path d="m596.14-266.21h56.79l-1.8202 16.1h-56.79z" fill="#048bff"/>
  <path d="m591.25-234.26h56.79l-2.1502 16.86h-56.79z" fill="#048bff"/>
 </g>
</svg>
