<svg width="800" height="157.05" version="1.1" viewBox="0 0 800 157.05" xml:space="preserve" xmlns="http://www.w3.org/2000/svg"><defs><clipPath id="clipPath60"><path d="m218.48 84.444h28.658v-28.658h-28.658z"/></clipPath><clipPath id="clipPath64"><path d="m247.13 70.115c0-7.914-6.415-14.329-14.329-14.329s-14.329 6.415-14.329 14.329 6.415 14.329 14.329 14.329 14.329-6.415 14.329-14.329"/></clipPath><radialGradient id="radialGradient76" cx="0" cy="0" r="1" gradientTransform="matrix(14.329 0 0 -14.329 232.8 70.115)" gradientUnits="userSpaceOnUse"><stop stop-color="#fff" offset="0"/><stop stop-color="#fff" offset=".38573"/><stop stop-color="#fff" stop-opacity=".29999" offset="1"/></radialGradient><mask id="mask78" x="0" y="0" width="1" height="1" maskUnits="userSpaceOnUse"><path d="m-32768 32767h65535v-65535h-65535z" fill="url(#radialGradient76)"/></mask><radialGradient id="radialGradient96" cx="0" cy="0" r="1" gradientTransform="matrix(14.329 0 0 -14.329 232.8 70.115)" gradientUnits="userSpaceOnUse"><stop stop-color="#284091" offset="0"/><stop stop-color="#284091" offset=".38573"/><stop stop-color="#3798db" offset="1"/></radialGradient><linearGradient id="linearGradient138" x2="1" gradientTransform="matrix(0 -13.195 -13.195 0 232.79 76.169)" gradientUnits="userSpaceOnUse"><stop stop-color="#3698db" offset="0"/><stop stop-color="#3698db" offset="5.1e-7"/><stop stop-color="#3698db" offset=".31307"/><stop stop-color="#293f95" offset=".97906"/><stop stop-color="#293f95" offset="1"/></linearGradient><clipPath id="clipPath148"><path d="M 0,141.732 H 283.465 V 0 H 0 Z"/></clipPath><linearGradient id="linearGradient176" x2="1" gradientTransform="matrix(0 -16.192 -16.192 0 162.84 78.403)" gradientUnits="userSpaceOnUse"><stop stop-color="#3698db" offset="0"/><stop stop-color="#3698db" offset="5.1e-7"/><stop stop-color="#3698db" offset=".31307"/><stop stop-color="#293f95" offset=".97906"/><stop stop-color="#293f95" offset="1"/></linearGradient><clipPath id="clipPath186"><path d="m157.87 65.741 1e-3 5.901-4.507 7.618z"/></clipPath><linearGradient id="linearGradient206" x2="1" gradientTransform="matrix(1.5598 .61898 .61898 -1.5598 155.1 72.296)" gradientUnits="userSpaceOnUse"><stop stop-color="#fff" stop-opacity="0" offset="0"/><stop stop-color="#fff" stop-opacity="0" offset="7.5e-7"/><stop stop-color="#fff" stop-opacity="0" offset=".58545"/><stop stop-color="#fff" offset="1"/></linearGradient><mask id="mask208" x="0" y="0" width="1" height="1" maskUnits="userSpaceOnUse"><path d="m-32768 32767h65535v-65535h-65535z" fill="url(#linearGradient206)"/></mask><linearGradient id="linearGradient234" x2="1" gradientTransform="matrix(1.5598 .61898 .61898 -1.5598 155.1 72.296)" gradientUnits="userSpaceOnUse"><stop stop-color="#284091" offset="0"/><stop stop-color="#284091" offset="7.5e-7"/><stop stop-color="#284091" offset=".58545"/><stop stop-color="#284091" offset="1"/></linearGradient><clipPath id="clipPath244"><path d="m167.76 71.724-2e-3 -5.983 4.509 13.596z"/></clipPath><linearGradient id="linearGradient264" x2="1" gradientTransform="matrix(-1.6923 .75212 .75212 1.6923 170.64 72.259)" gradientUnits="userSpaceOnUse"><stop stop-color="#fff" stop-opacity="0" offset="0"/><stop stop-color="#fff" stop-opacity="0" offset="7.5e-7"/><stop stop-color="#fff" stop-opacity="0" offset=".58545"/><stop stop-color="#fff" offset="1"/></linearGradient><mask id="mask266" x="0" y="0" width="1" height="1" maskUnits="userSpaceOnUse"><path d="m-32768 32767h65535v-65535h-65535z" fill="url(#linearGradient264)"/></mask><linearGradient id="linearGradient292" x2="1" gradientTransform="matrix(-1.6923 .75212 .75212 1.6923 170.64 72.259)" gradientUnits="userSpaceOnUse"><stop stop-color="#284091" offset="0"/><stop stop-color="#284091" offset="7.5e-7"/><stop stop-color="#284091" offset=".58545"/><stop stop-color="#284091" offset="1"/></linearGradient><clipPath id="clipPath302"><path d="M 0,141.732 H 283.465 V 0 H 0 Z"/></clipPath><linearGradient id="linearGradient338" x2="1" gradientTransform="matrix(0 -16.192 -16.192 0 196.64 78.403)" gradientUnits="userSpaceOnUse"><stop stop-color="#3698db" offset="0"/><stop stop-color="#3698db" offset="5.1e-7"/><stop stop-color="#3698db" offset=".31307"/><stop stop-color="#293f95" offset=".97906"/><stop stop-color="#293f95" offset="1"/></linearGradient><clipPath id="clipPath348"><path d="m200.27 75.133v-3.512l4.645 3.512z"/></clipPath><linearGradient id="linearGradient368" x2="1" gradientTransform="matrix(-.56265 1.7127 1.7127 .56265 202.6 73.357)" gradientUnits="userSpaceOnUse"><stop stop-color="#fff" stop-opacity="0" offset="0"/><stop stop-color="#fff" stop-opacity="0" offset="7.5e-7"/><stop stop-color="#fff" stop-opacity="0" offset=".58545"/><stop stop-color="#fff" offset="1"/></linearGradient><mask id="mask370" x="0" y="0" width="1" height="1" maskUnits="userSpaceOnUse"><path d="m-32768 32767h65535v-65535h-65535z" fill="url(#linearGradient368)"/></mask><linearGradient id="linearGradient396" x2="1" gradientTransform="matrix(-.56265 1.7127 1.7127 .56265 202.6 73.357)" gradientUnits="userSpaceOnUse"><stop stop-color="#284091" offset="0"/><stop stop-color="#284091" offset="7.5e-7"/><stop stop-color="#284091" offset=".58545"/><stop stop-color="#284091" offset="1"/></linearGradient><clipPath id="clipPath406"><path d="M 0,141.732 H 283.465 V 0 H 0 Z"/></clipPath><linearGradient id="linearGradient436" x2="1" gradientTransform="matrix(0 -16.192 -16.192 0 129.47 78.403)" gradientUnits="userSpaceOnUse"><stop stop-color="#3698db" offset="0"/><stop stop-color="#3698db" offset="5.1e-7"/><stop stop-color="#3698db" offset=".31307"/><stop stop-color="#293f95" offset=".97906"/><stop stop-color="#293f95" offset="1"/></linearGradient><clipPath id="clipPath446"><path d="m122.14 75.191 4.611-3.465v3.465z"/></clipPath><linearGradient id="linearGradient466" x2="1" gradientTransform="matrix(1.1191 2.1517 2.1517 -1.1191 124.25 73.066)" gradientUnits="userSpaceOnUse"><stop stop-color="#fff" stop-opacity="0" offset="0"/><stop stop-color="#fff" stop-opacity="0" offset="7.5e-7"/><stop stop-color="#fff" stop-opacity="0" offset=".58545"/><stop stop-color="#fff" offset="1"/></linearGradient><mask id="mask468" x="0" y="0" width="1" height="1" maskUnits="userSpaceOnUse"><path d="m-32768 32767h65535v-65535h-65535z" fill="url(#linearGradient466)"/></mask><linearGradient id="linearGradient494" x2="1" gradientTransform="matrix(1.1191 2.1517 2.1517 -1.1191 124.25 73.066)" gradientUnits="userSpaceOnUse"><stop stop-color="#284091" offset="0"/><stop stop-color="#284091" offset="7.5e-7"/><stop stop-color="#284091" offset=".58545"/><stop stop-color="#284091" offset="1"/></linearGradient><clipPath id="clipPath504"><path d="M 0,141.732 H 283.465 V 0 H 0 Z"/></clipPath><linearGradient id="linearGradient534" x2="1" gradientTransform="matrix(0 -16.192 -16.192 0 98.628 78.403)" gradientUnits="userSpaceOnUse"><stop stop-color="#3698db" offset="0"/><stop stop-color="#3698db" offset="5.1e-7"/><stop stop-color="#3698db" offset=".31307"/><stop stop-color="#293f95" offset=".97906"/><stop stop-color="#293f95" offset="1"/></linearGradient><clipPath id="clipPath544"><path d="m91.023 75.138 4.644-4.799v4.799z"/></clipPath><linearGradient id="linearGradient564" x2="1" gradientTransform="matrix(1.2366 2.7947 2.7947 -1.2366 93.036 72.039)" gradientUnits="userSpaceOnUse"><stop stop-color="#fff" stop-opacity="0" offset="0"/><stop stop-color="#fff" stop-opacity="0" offset="7.5e-7"/><stop stop-color="#fff" stop-opacity="0" offset=".58545"/><stop stop-color="#fff" offset="1"/></linearGradient><mask id="mask566" x="0" y="0" width="1" height="1" maskUnits="userSpaceOnUse"><path d="m-32768 32767h65535v-65535h-65535z" fill="url(#linearGradient564)"/></mask><linearGradient id="linearGradient592" x2="1" gradientTransform="matrix(1.2366 2.7947 2.7947 -1.2366 93.036 72.039)" gradientUnits="userSpaceOnUse"><stop stop-color="#284091" offset="0"/><stop stop-color="#284091" offset="7.5e-7"/><stop stop-color="#284091" offset=".58545"/><stop stop-color="#284091" offset="1"/></linearGradient><clipPath id="clipPath602"><path d="M 0,141.732 H 283.465 V 0 H 0 Z"/></clipPath><linearGradient id="linearGradient632" x2="1" gradientTransform="matrix(0 -16.192 -16.192 0 66.626 78.403)" gradientUnits="userSpaceOnUse"><stop stop-color="#3698db" offset="0"/><stop stop-color="#3698db" offset="5.1e-7"/><stop stop-color="#3698db" offset=".31307"/><stop stop-color="#293f95" offset=".97906"/><stop stop-color="#293f95" offset="1"/></linearGradient><clipPath id="clipPath642"><path d="m58.479 75.243 4.538-3.622v3.622z"/></clipPath><linearGradient id="linearGradient662" x2="1" gradientTransform="matrix(1.0079 2.1278 2.1278 -1.0079 60.564 73.044)" gradientUnits="userSpaceOnUse"><stop stop-color="#fff" stop-opacity="0" offset="0"/><stop stop-color="#fff" stop-opacity="0" offset="7.5e-7"/><stop stop-color="#fff" stop-opacity="0" offset=".58545"/><stop stop-color="#fff" offset="1"/></linearGradient><mask id="mask664" x="0" y="0" width="1" height="1" maskUnits="userSpaceOnUse"><path d="m-32768 32767h65535v-65535h-65535z" fill="url(#linearGradient662)"/></mask><linearGradient id="linearGradient690" x2="1" gradientTransform="matrix(1.0079 2.1278 2.1278 -1.0079 60.564 73.044)" gradientUnits="userSpaceOnUse"><stop stop-color="#284091" offset="0"/><stop stop-color="#284091" offset="7.5e-7"/><stop stop-color="#284091" offset=".58545"/><stop stop-color="#284091" offset="1"/></linearGradient><clipPath id="clipPath700"><path d="M 0,141.732 H 283.465 V 0 H 0 Z"/></clipPath></defs><g transform="matrix(1.3333 0 0 -1.3333 -77.972 231.43)"><g transform="matrix(3.1804 0 0 3.1804 -127.51 -121.64)"><g transform="translate(60.575 92.365)"><path d="m0 0h-2.096v0.413h4.639v-0.413h-2.096v-5.602h-0.447z" fill="#284091"/></g><g transform="translate(67.314 92.778)"><path d="m0 0h4.279v-0.413h-3.832v-2.362h3.446v-0.413h-3.446v-2.415h3.875v-0.412h-4.322z" fill="#284091"/></g><g transform="translate(75.015 86.849)"><path d="m0 0 0.137 0.369c1.595-0.844 2.001 2.056 1.899 5.56h3.687v-6.015h-0.448v5.602h-2.809c0.084-4.134-0.52-6.349-2.466-5.516" fill="#284091"/></g><g transform="translate(85.361 92.778)"><path d="m0 0h4.279v-0.413h-3.832v-2.362h3.446v-0.413h-3.446v-2.415h3.875v-0.412h-4.322z" fill="#284091"/></g><g transform="translate(93.956 92.778)"><path d="m0 0h0.447v-3.953l3.832 3.953h0.61l-2.629-2.655 2.741-3.36h-0.584l-2.475 3.042-1.495-1.512v-1.53h-0.447z" fill="#284091"/></g><g transform="translate(107.01 88.851)"><path d="m0 0-1.581 3.48-1.59-3.48zm-1.787 3.97h0.43l2.8-6.058h-0.489l-0.765 1.684h-3.548l-0.766-1.684h-0.463z" fill="#284091"/></g><g transform="translate(112.56 92.778)"><path d="m0 0h0.447v-2.784h3.849v2.784h0.447v-6.015h-0.447v2.819h-3.849v-2.819h-0.447z" fill="#284091"/></g><g transform="translate(126 88.851)"><path d="m0 0-1.582 3.48-1.589-3.48zm-1.788 3.97h0.43l2.801-6.058h-0.489l-0.766 1.684h-3.548l-0.765-1.684h-0.464z" fill="#284091"/></g><g transform="translate(130.66 86.849)"><path d="m0 0 0.138 0.369c1.594-0.844 2 2.056 1.898 5.56h3.687v-6.015h-0.447v5.602h-2.81c0.085-4.134-0.52-6.349-2.466-5.516" fill="#284091"/></g></g><g transform="matrix(3.1804 0 0 3.1804 -127.51 -121.64)"><g clip-path="url(#clipPath60)" opacity=".39999"><g clip-path="url(#clipPath64)"><g mask="url(#mask78)"><path d="m247.13 70.115c0-7.914-6.415-14.329-14.329-14.329s-14.329 6.415-14.329 14.329 6.415 14.329 14.329 14.329 14.329-6.415 14.329-14.329" fill="url(#radialGradient96)"/></g></g></g></g><g transform="matrix(3.1804 0 0 3.1804 -127.51 -121.64)"><path d="m225.51 69.851c0-4.02 3.259-7.278 7.278-7.278 4.02 0 7.279 3.258 7.279 7.278s-3.259 7.278-7.279 7.278c-4.019 0-7.278-3.258-7.278-7.278" fill="url(#linearGradient138)"/></g><g transform="matrix(3.1804 0 0 3.1804 -127.51 -121.64)"><g clip-path="url(#clipPath148)"><g transform="translate(172.09 79.383)"><path d="m0 0h-4.385c-0.099 0-0.191-0.051-0.243-0.135l-4.618-7.428-4.617 7.428c-0.052 0.084-0.144 0.135-0.243 0.135h-4.385c-0.158 0-0.286-0.128-0.286-0.287v-18.491c0-0.158 0.128-0.286 0.286-0.286h3.989c0.158 0 0.286 0.128 0.286 0.286v11.037l4.626-7.02c0.052-0.081 0.142-0.129 0.239-0.129h0.105c0.097 0 0.187 0.048 0.24 0.129l4.678 7.1v-11.117c0-0.158 0.128-0.286 0.286-0.286h4.042c0.158 0 0.287 0.128 0.287 0.286v18.491c0 0.159-0.129 0.287-0.287 0.287" fill="#3798db"/></g></g></g><g transform="matrix(3.1804 0 0 3.1804 -127.51 -121.64)"><path d="m167.7 79.096-4.861-7.819-4.861 7.819h-4.384v-18.491h3.988v11.993l5.152-7.819h0.105l5.204 7.899v-12.073h4.042v18.491z" fill="url(#linearGradient176)"/></g><g transform="matrix(3.1804 0 0 3.1804 -127.51 -121.64)"><g clip-path="url(#clipPath186)"><g mask="url(#mask208)"><path d="m157.87 65.741 1e-3 5.901-4.507 7.618z" fill="url(#linearGradient234)"/></g></g></g><g transform="matrix(3.1804 0 0 3.1804 -127.51 -121.64)"><g clip-path="url(#clipPath244)"><g mask="url(#mask266)"><path d="m167.76 71.724-2e-3 -5.983 4.509 13.596z" fill="url(#linearGradient292)"/></g></g></g><g transform="matrix(3.1804 0 0 3.1804 -127.51 -121.64)"><g clip-path="url(#clipPath302)"><g transform="translate(167.92 72.48)"><path d="m0 0 4.235 6.888 0.097-0.031-4.213-7.148z" fill="#3798db"/></g><g transform="translate(157.7 71.934)"><path d="m0 0-4.335 7.351 0.099 0.06 4.122-6.746z" fill="#3798db"/></g><g transform="translate(200.28 75.138)"><path d="m0 0v-4.736h-3.834c-1.772 0-2.831 0.87-2.831 2.328 0 1.991 1.583 2.408 2.91 2.408zm4.354 4.245h-8.452c-2.201 0-4.034-0.583-5.3-1.685-1.283-1.117-1.96-2.744-1.96-4.704 0-2.786 1.349-4.874 3.81-5.919l-4.315-6.308c-0.06-0.087-0.067-0.201-0.017-0.296 0.049-0.093 0.147-0.152 0.253-0.152h4.755c0.096 0 0.185 0.048 0.238 0.127l3.877 5.79h2.757v-5.631c0-0.158 0.128-0.286 0.287-0.286h4.067c0.159 0 0.287 0.128 0.287 0.286v18.491c0 0.159-0.128 0.287-0.287 0.287" fill="#3798db"/></g></g></g><g transform="matrix(3.1804 0 0 3.1804 -127.51 -121.64)"><path d="m196.18 79.096c-4.332 0-6.974-2.271-6.974-6.101 0-3.038 1.612-4.914 3.962-5.785l-4.517-6.605h4.756l3.961 5.918h3.197v-5.918h4.068v18.491zm-2.853-6.366c0 1.796 1.215 2.694 3.196 2.694h4.042v-5.309h-4.121c-1.981 0-3.117 1.057-3.117 2.615" fill="url(#linearGradient338)"/></g><g transform="matrix(3.1804 0 0 3.1804 -127.51 -121.64)"><g clip-path="url(#clipPath348)"><g mask="url(#mask370)"><path d="m200.27 75.133v-3.512l4.645 3.512z" fill="url(#linearGradient396)"/></g></g></g><g transform="matrix(3.1804 0 0 3.1804 -127.51 -121.64)"><g clip-path="url(#clipPath406)"><path d="m204.92 75.14h-5.284v0.285h5.284z" fill="#3798db"/><g transform="translate(136.51 64.511)"><path d="m0 0h-9.751v3.311h8.43c0.158 0 0.287 0.127 0.287 0.286v3.619c0 0.158-0.129 0.286-0.287 0.286h-8.43v3.179h9.619c0.158 0 0.286 0.128 0.286 0.286v3.619c0 0.158-0.128 0.287-0.286 0.287h-13.948c-0.158 0-0.286-0.129-0.286-0.287v-18.491c0-0.158 0.128-0.286 0.286-0.286h14.08c0.158 0 0.287 0.128 0.287 0.286v3.619c0 0.158-0.129 0.286-0.287 0.286" fill="#3798db"/></g></g></g><g transform="matrix(3.1804 0 0 3.1804 -127.51 -121.64)"><path d="m122.43 79.096v-18.491h14.08v3.62h-10.038v3.882h8.717v3.619h-8.717v3.752h9.905v3.618z" fill="url(#linearGradient436)"/></g><g transform="matrix(3.1804 0 0 3.1804 -127.51 -121.64)"><g clip-path="url(#clipPath446)"><g mask="url(#mask468)"><path d="m122.14 75.191 4.611-3.465v3.465z" fill="url(#linearGradient494)"/></g></g></g><g transform="matrix(3.1804 0 0 3.1804 -127.51 -121.64)"><g clip-path="url(#clipPath504)"><path d="m122.14 75.19h4.326v0.287h-4.326z" fill="#3798db"/><g transform="translate(101.54 72.625)"><path d="m0 0c0-1.559-1.153-2.566-2.937-2.566h-2.936v5.079h2.857c1.126 0 3.016-0.326 3.016-2.513m-2.672 6.758h-7.555c-0.158 0-0.287-0.128-0.287-0.286v-18.492c0-0.158 0.129-0.286 0.287-0.286h4.068c0.158 0 0.286 0.128 0.286 0.286v5.261h2.805c4.715 0 7.761 2.663 7.761 6.785 0 4.09-2.891 6.732-7.365 6.732" fill="#3798db"/></g></g></g><g transform="matrix(3.1804 0 0 3.1804 -127.51 -121.64)"><path d="m91.31 79.096v-18.491h4.068v5.549h3.091c4.147 0 7.475 2.218 7.475 6.498 0 3.829-2.667 6.444-7.079 6.444zm4.068-3.672h3.144c2.034 0 3.301-0.977 3.301-2.799 0-1.638-1.188-2.853-3.222-2.853h-3.223z" fill="url(#linearGradient534)"/></g><g transform="matrix(3.1804 0 0 3.1804 -127.51 -121.64)"><g clip-path="url(#clipPath544)"><g mask="url(#mask566)"><path d="m91.023 75.138 4.644-4.799v4.799z" fill="url(#linearGradient592)"/></g></g></g><g transform="matrix(3.1804 0 0 3.1804 -127.51 -121.64)"><g clip-path="url(#clipPath602)"><path d="m91.042 75.425h4.38v-0.286h-4.38z" fill="#3798db"/><g transform="translate(70.157 66.232)"><path d="m0 0c0-0.439 0-1.774-2.593-1.774h-4.548v3.495h4.416c1.808 0 2.725-0.579 2.725-1.721m-7.141 5.675v3.337h3.729c1.087 0 2.382-0.281 2.382-1.616 0-0.426 0-1.721-2.646-1.721zm8.636-1.584c1.405 0.95 2.089 2.243 2.089 3.939 0 1.377-0.442 2.489-1.352 3.399-1.126 1.126-2.868 1.722-5.036 1.722h-8.585c-0.158 0-0.287-0.129-0.287-0.287v-18.491c0-0.158 0.129-0.286 0.287-0.286h8.796c4.581 0 7.208 1.953 7.208 5.358 0 2.226-0.968 3.678-3.12 4.646" fill="#3798db"/></g></g></g><g transform="matrix(3.1804 0 0 3.1804 -127.51 -121.64)"><path d="m58.767 79.096v-18.491h8.797c4.173 0 6.921 1.691 6.921 5.073 0 2.535-1.321 3.777-3.461 4.596 1.322 0.739 2.43 1.902 2.43 3.989 0 1.321-0.423 2.35-1.268 3.195-1.056 1.057-2.72 1.638-4.834 1.638zm3.963-3.565h4.015c1.717 0 2.668-0.687 2.668-1.903 0-1.426-1.135-2.007-2.932-2.007h-3.751zm0-7.291h4.702c2.087 0 3.011-0.766 3.011-2.008 0-1.427-1.083-2.06-2.879-2.06h-4.834z" fill="url(#linearGradient632)"/></g><g transform="matrix(3.1804 0 0 3.1804 -127.51 -121.64)"><g clip-path="url(#clipPath642)"><g mask="url(#mask664)"><path d="m58.479 75.243 4.538-3.622v3.622z" fill="url(#linearGradient690)"/></g></g></g><g transform="matrix(3.1804 0 0 3.1804 -127.51 -121.64)"><g clip-path="url(#clipPath700)"><path d="m58.491 75.531h4.426v-0.288h-4.426z" fill="#3798db"/></g></g></g></svg>
