<svg width="800" height="152.24" version="1.1" viewBox="0 0 800 152.24" xmlns="http://www.w3.org/2000/svg">
 <path d="m681.31 20.489a20.439 20.439 0 0 1 6.2179-14.731 20.439 20.439 0 0 1 14.923-5.7467 20.57 20.57 0 0 1 14.884 5.7872 20.57 20.57 0 0 1 6.2684 14.69 20.528 20.528 0 0 1-6.325 14.559 20.528 20.528 0 0 1-14.816 5.6941c-11.805 0-21.153-8.6807-21.153-20.253zm39.39 37.164v93.705h-36.051v-93.705z" fill="#d3220e" stroke-width="2.0221"/>
 <g transform="matrix(2.0221 0 0 2.0221 0 -9.3003e-5)" fill="#fff">
  <path d="m83.642 6e-3 -32.357 75.285h-18.82l-32.465-75.285h20.471l21.353 50.737 21.351-50.737z"/>
  <path d="m167.43 6e-3 -29.5 52.279v22.563h-18.706v-22.563l-29.607-52.279h20.58l18.269 32.579 18.38-32.579z"/>
  <path d="m239.36 27.412c0 17.5-12.767 28.4-33.128 28.4h-10.13v19.041h-18.6v-74.841h30.16c19.591 0 31.7 10.567 31.7 27.4zm-18.491 0c0-6.713-5.392-11.115-13.536-11.115h-11.231v23.221h11.228c8.147 0 13.539-4.727 13.539-12.106z"/>
  <path d="m320.07 6e-3v74.841h-14.308l-35.88-41.056v41.053h-18.6v-74.841h14.2l36.1 42.153v-42.153z"/>
  <path d="m395.64 64.725a10.108 10.108 0 0 1-3.076 7.284 10.108 10.108 0 0 1-7.38 2.841 10.174 10.174 0 0 1-7.359-2.862 10.174 10.174 0 0 1-3.1-7.263 10.152 10.152 0 0 1 3.128-7.2 10.152 10.152 0 0 1 7.327-2.817c5.837 1e-3 10.46 4.294 10.46 10.017zm-19.48-18.379v-46.343h17.829v46.343z"/>
 </g>
</svg>
