<svg width="800" height="271.4" version="1.1" viewBox="0 0 800 271.4" xml:space="preserve" xmlns="http://www.w3.org/2000/svg"><g transform="matrix(1.3333 0 0 -1.3333 -961.37 985.46)"><g transform="matrix(.78326 0 0 .78326 114.31 368.3)" fill="#00bab8"><g transform="matrix(6.7255 0 0 6.7255 1374.4 426.64)"><path d="m0 0c2e-3 -3.295 0.114-16.686-0.165-20.054-0.489-5.912-4.413-10.721-10.809-11.488-2.911-0.35-5.749-0.124-8.41 1.182-3.664 1.797-5.687 4.873-6.532 8.765-0.248 1.142-0.337 2.338-0.344 3.509-0.032 6.049-0.016 12.097-0.015 18.146 0 1.209 0.204 1.414 1.405 1.417 1.574 3e-3 3.147 4e-3 4.721-2e-3 1.145-2e-3 1.362-0.224 1.364-1.391 1e-3 -6.048 3e-3 -12.097-2e-3 -18.145-1e-3 -1.326 0.282-2.582 0.902-3.753 1.036-1.96 2.652-2.972 4.888-2.928 2.195 0.045 3.685 1.169 4.634 3.085 0.565 1.144 0.798 2.358 0.796 3.634-9e-3 6-5e-3 11.999-5e-3 17.998 0 1.303 0.193 1.5 1.484 1.502 1.549 1e-3 3.097 3e-3 4.647 0 1.234-3e-3 1.441-0.217 1.441-1.477" fill="#00bab8"/></g><g transform="matrix(6.7255 0 0 6.7255 820.41 436.67)"><path d="m0 0c0.836 0.019 1.36-0.331 1.691-1.118 2.17-5.158 4.48-10.565 6.671-15.714 0.133-0.313 0.245-0.534 0.333-0.534 0.099 0 0.239 0.274 0.374 0.594 2.237 5.315 4.569 10.851 6.797 16.17 0.22 0.524 0.476 0.97 1.133 0.982 0.693 0.013 0.971-0.454 1.2-1 1.378-3.29 5.985-14.235 6.909-16.418 0.065-0.156 0.183-0.331 0.264-0.331 0.067 0 0.177 0.192 0.25 0.364 1.849 4.339 6.377 14.946 6.761 15.924 0.301 0.765 0.837 1.086 1.642 1.081 1.96-0.015 3.921 0 5.881-7e-3 0.978-3e-3 1.148-0.268 0.745-1.154-2.639-5.807-5.281-11.612-7.923-17.417-2.065-4.538-4.133-9.075-6.197-13.613-0.199-0.436-0.413-0.845-0.962-0.898-0.656-0.063-0.957 0.341-1.193 0.876-1.31 2.975-2.634 5.943-3.95 8.915-0.999 2.256-1.992 4.515-2.995 6.77-0.105 0.236-0.281 0.388-0.392 0.386-0.113-2e-3 -0.301-0.138-0.404-0.369-2.313-5.203-4.623-10.407-6.922-15.616-0.231-0.524-0.494-0.988-1.136-0.98-0.611 8e-3 -0.856 0.478-1.077 0.963-4.684 10.273-9.371 20.544-14.056 30.816-0.482 1.057-0.318 1.322 0.822 1.322z" fill="#00bab8"/></g><g transform="matrix(6.7255 0 0 6.7255 1216.3 220.2)"><path d="m0 0-14.404 31.351c-0.404 0.844-1.321 1.079-1.924 0.494-0.236-0.228-0.394-0.555-0.532-0.862-4.628-10.262-9.249-20.526-13.869-30.791-0.384-0.854-0.178-1.152 0.787-1.151l5.803 0.019 3.33 0.015 4.835 13.466c0.147 0.304 0.478 0.388 0.695 0.176 0.085-0.083 0.142-0.201 0.191-0.313 1.598-3.577 3.425-9.701 5.02-13.28l2.88 0.013 6.683 0.01c0.531 6e-3 0.696 0.338 0.505 0.853" fill="#00bab8"/></g></g><g transform="matrix(.99842 0 0 .99842 1.1372 .84462)" stroke-width="36.125"><path d="m1322 732.62c0 3.7209-3.0706 6.7915-6.7915 6.7915h-75.537c-16.184 0-35.366-6.1774-35.366-33.56v-31.573c0-3.757 3.0706-6.7915 6.7915-6.7915h73.948c28.178 0 36.956 16.581 36.956 33.379z" fill="#a7a8aa" fill-rule="evenodd"/><g fill="#fff"><path d="m1222.2 730.09h10.151v-20.989h17.882v20.989h10.151v-53.465h-10.151v21.025h-17.882v-21.025h-10.151z"/><path d="m1285.8 687.83c7.1166 0 11.813 6.4302 11.813 15.281 0 8.9229-4.6963 15.281-11.813 15.281h-6.3219v-30.562zm-16.473 42.013h17.376c12.391 0 21.422-11.632 21.422-26.732 0-15.136-9.0312-26.732-21.422-26.732h-17.376z"/></g></g></g></svg>
