<svg width="2.6474mm" height="2.6755mm" version="1.1" viewBox="0 0 2.6474 2.6755" xmlns="http://www.w3.org/2000/svg">
 <defs>
  <clipPath id="b">
   <path d="m382.26 395.38v7.761h-7.7136v-7.761z"/>
  </clipPath>
  <linearGradient id="a" x2="1" gradientTransform="matrix(0 7.5839 -7.5839 0 378.4 395.56)" gradientUnits="userSpaceOnUse">
   <stop stop-color="#00437d" offset="0"/>
   <stop stop-color="#0aa5c4" offset="1"/>
  </linearGradient>
 </defs>
 <g transform="translate(158.36 -73.412)">
  <g transform="matrix(.35278 0 0 -.35278 -290.49 215.63)">
   <g clip-path="url(#b)">
    <path d="m378.13 403.14c-0.106-2e-3 -0.207-0.042-0.285-0.114l-1.1-1.012c-0.045-0.04-0.043-0.11 2e-3 -0.149l0.698-0.624c0.052-0.046 0.132-0.046 0.184 1e-3l0.339 0.306v-3.862h-1.709c0.328 0.711 1.358 1.125 1.358 2.034 0 0.586-0.475 1.463-1.492 1.463-0.946 0-1.313-0.677-1.452-1.067-0.027-0.078 0.018-0.161 0.097-0.184l0.804-0.217c0.061-0.016 0.13 5e-3 0.159 0.06 0.231 0.44 0.721 0.21 0.721-0.149 0-0.473-1.437-1.007-1.894-2.885-0.015-0.063 0.033-0.125 0.098-0.125h3.439c-0.102 0.288-0.132 0.477-0.132 0.738 0 0.591 0.247 1.184 0.633 1.588h1.686l-0.489-1.029c0.162 0 0.666 3e-3 0.666 3e-3 0.429 0 0.54-0.447 0.54-0.565 0-0.406-0.329-0.735-0.735-0.735-0.195 0-0.371 0.076-0.503 0.2-0.062 0.058-0.156 0.062-0.226 0.013l-0.62-0.444c-0.064-0.046-0.074-0.132-0.023-0.193 0.462-0.547 1.247-0.814 2.062-0.508 0.451 0.169 0.808 0.526 0.977 0.976 0.326 0.87 1e-3 1.704-0.622 2.151l0.465 0.979c0.049 0.103-0.026 0.224-0.142 0.224h-1.998l-0.48-0.497v3.434c0 0.103-0.083 0.187-0.186 0.189z" fill="url(#a)"/>
   </g>
  </g>
 </g>
</svg>
