<svg height="2.675482mm" viewBox="0 0 2.6473842 2.6754816" width="2.647384mm" xmlns="http://www.w3.org/2000/svg" xmlns:xlink="http://www.w3.org/1999/xlink"><clipPath id="a"><path d="m382.25785 395.37923v7.76101h-7.71364v-7.76101z"/></clipPath><linearGradient id="b" gradientTransform="matrix(0 7.5839007 -7.5839007 0 378.39849 395.55921)" gradientUnits="userSpaceOnUse" spreadMethod="pad" x1="0" x2="1" y1="0" y2="0"><stop offset="0" stop-color="#00437d"/><stop offset="1" stop-color="#0aa5c4"/></linearGradient><g clip-path="url(#a)" transform="matrix(.35277777 0 0 -.35277777 -132.13511 142.218915)"><path d="m378.129 403.141c-.106-.002-.207-.042-.285-.114l-1.1-1.012c-.045-.04-.043-.11.002-.149l.698-.624c.052-.046.132-.046.184.001l.339.306v-3.862h-1.709c.328.711 1.358 1.125 1.358 2.034 0 .586-.475 1.463-1.492 1.463-.946 0-1.313-.677-1.452-1.067-.027-.078.018-.161.097-.184l.804-.217c.061-.016.13.005.159.06.231.44.721.21.721-.149 0-.473-1.437-1.007-1.894-2.885-.015-.063.033-.125.098-.125h3.439c-.102.288-.132.477-.132.738 0 .591.247 1.184.633 1.588h1.686l-.489-1.029c.162 0 .666.003.666.003.429 0 .54-.447.54-.565 0-.406-.329-.735-.735-.735-.195 0-.371.076-.503.2-.062.058-.156.062-.226.013l-.62-.444c-.064-.046-.074-.132-.023-.193.462-.547 1.247-.814 2.062-.508.451.169.808.526.977.976.326.87.001 1.704-.622 2.151l.465.979c.049.103-.026.224-.142.224h-1.998l-.48-.497v3.434c0 .103-.083.187-.186.189z" fill="url(#b)"/></g></svg>