<svg id="b" width="2.7231mm" height="2.7231mm" version="1.1" viewBox="0 0 2.7231 2.7231" xmlns="http://www.w3.org/2000/svg">
 <defs id="c">
  <clipPath id="a">
   <path id="d" d="m370.81 46.298h18.106v8.601h-18.106z"/>
  </clipPath>
 </defs>
 <g id="e" transform="translate(-75.746 -139.91)">
  <g id="f" transform="matrix(.35278 0 0 -.35278 -56.997 159.1)" fill="#fff">
   <g id="g" clip-path="url(#a)" fill="#fff">
    <g id="h" transform="translate(380.16 51.616)">
     <path id="i" d="m0 0c0.047 0 0.084 0.014 0.111 0.041s0.041 0.064 0.041 0.112-0.014 0.085-0.041 0.113c-0.027 0.027-0.064 0.041-0.111 0.041s-0.084-0.014-0.111-0.041c-0.027-0.028-0.04-0.065-0.04-0.113s0.013-0.085 0.04-0.112 0.064-0.041 0.111-0.041" fill="#fff"/>
    </g>
    <g id="j" transform="translate(380.16 49.44)">
     <path id="k" d="m0 0c-0.076 0-0.138-0.028-0.188-0.085-0.05-0.056-0.074-0.126-0.074-0.21s0.024-0.154 0.072-0.21 0.111-0.084 0.19-0.084c0.077 0 0.14 0.028 0.189 0.085 0.049 0.056 0.073 0.126 0.073 0.209s-0.024 0.152-0.074 0.209-0.112 0.086-0.188 0.086" fill="#fff"/>
    </g>
    <g id="l" transform="translate(379.15 49.266)">
     <path id="m" d="m0 0c0.03 0.015 0.045 0.042 0.045 0.081 0 0.046-0.019 0.076-0.058 0.09-0.021 9e-3 -0.059 0.013-0.115 0.013h-0.059v-0.202h0.055c0.062 0 0.106 6e-3 0.132 0.018" fill="#fff"/>
    </g>
    <g id="n" transform="translate(379.2 49.047)">
     <path id="o" d="m0 0c-0.027 0.015-0.071 0.022-0.134 0.022h-0.099v-0.218h0.095c0.062 0 0.107 7e-3 0.135 0.023 0.029 0.015 0.043 0.043 0.043 0.082 0 0.046-0.013 0.076-0.04 0.091" fill="#fff"/>
    </g>
    <g id="p" transform="translate(382.02 50.827)">
     <path id="q" d="m0 0h-0.348v-0.174h0.328v-0.215h-0.328v-0.169h0.348v-0.225h-0.614v1.003h0.614zm-0.611-2.181-0.17 0.297c-0.016 0.029-0.028 0.057-0.035 0.083-7e-3 -0.03-0.018-0.058-0.033-0.083l-0.171-0.297h-0.311l0.372 0.526-0.336 0.477h0.325l0.121-0.233c8e-3 -0.014 0.019-0.042 0.033-0.083 5e-3 0.019 0.017 0.046 0.035 0.083l0.121 0.233h0.324l-0.335-0.483 0.37-0.52zm-1.248-0.027c-0.127 0-0.24 0.04-0.341 0.121-0.13 0.103-0.195 0.239-0.195 0.405 0 0.146 0.052 0.27 0.158 0.372 0.105 0.103 0.231 0.154 0.378 0.154s0.274-0.051 0.378-0.153c0.105-0.102 0.157-0.226 0.157-0.373s-0.052-0.271-0.157-0.373c-0.104-0.102-0.231-0.153-0.378-0.153m-0.963 1.521c-0.037 0.042-0.061 0.095-0.073 0.158-0.01 0.047-0.014 0.116-0.014 0.208v0.541h0.273v-0.544c0-0.094 0.011-0.159 0.033-0.195 0.026-0.04 0.072-0.06 0.14-0.06 0.077 0 0.126 0.026 0.149 0.078 0.015 0.039 0.023 0.119 0.023 0.24v0.481h0.274v-0.596c0-0.152-0.035-0.263-0.105-0.331-0.069-0.068-0.183-0.102-0.341-0.102-0.169 0-0.288 0.04-0.359 0.122m0.174-1.444c-0.041-0.021-0.094-0.036-0.158-0.043-0.046-5e-3 -0.118-7e-3 -0.215-7e-3h-0.283v0.423h-0.095v0.178h0.095v0.402h0.304c0.144 0 0.243-0.012 0.296-0.035 0.095-0.043 0.142-0.115 0.142-0.217 0-0.057-0.014-0.102-0.043-0.135s-0.075-0.059-0.14-0.076c0.072-6e-3 0.128-0.031 0.168-0.076s0.06-0.104 0.06-0.178c0-0.112-0.044-0.19-0.131-0.236m-1.11 2.116v0.235h0.721v-0.235h-0.225v-0.768h-0.273v0.768zm0.644 0.965h0.254v-0.017c0-0.089 0.041-0.134 0.122-0.134 0.087 0 0.131 0.042 0.131 0.126 0 0.089-0.05 0.134-0.149 0.134-0.013 0-0.023-1e-3 -0.031-1e-3v0.161h0.014c0.096 0 0.143 0.039 0.143 0.118 0 0.031-0.01 0.056-0.031 0.075s-0.048 0.028-0.079 0.028c-0.074 0-0.111-0.036-0.111-0.108h-0.243c2e-3 0.094 0.035 0.167 0.098 0.219 0.064 0.052 0.153 0.077 0.268 0.077 0.104 0 0.185-0.023 0.243-0.07 0.058-0.046 0.087-0.109 0.087-0.188 0-0.105-0.053-0.174-0.159-0.206 0.063-0.01 0.112-0.037 0.146-0.081 0.035-0.043 0.052-0.098 0.052-0.166 0-0.097-0.034-0.176-0.104-0.237-0.069-0.061-0.159-0.091-0.27-0.091-0.116 0-0.209 0.031-0.277 0.094-0.069 0.062-0.104 0.147-0.104 0.253zm0.933 0.221c0.024 0.052 0.066 0.125 0.128 0.22l0.14 0.218h0.279l-0.234-0.354c0.037 0.011 0.072 0.016 0.105 0.016 0.084 0 0.154-0.03 0.21-0.089 0.057-0.06 0.085-0.136 0.085-0.228 0-0.109-0.035-0.197-0.104-0.264s-0.163-0.101-0.28-0.101c-0.118 0-0.211 0.033-0.279 0.1-0.068 0.066-0.102 0.154-0.102 0.263 0 0.07 0.018 0.143 0.052 0.219m0.635-1.459v-0.495h-0.264v1.003h0.264l0.379-0.516c0.016-0.022 0.046-0.08 0.091-0.177-0.01 0.083-0.015 0.149-0.015 0.198v0.495h0.262v-1.003h-0.262l-0.379 0.518c-0.017 0.023-0.047 0.082-0.091 0.175 0.01-0.082 0.015-0.148 0.015-0.198m0.29 1.779c0.068 0.092 0.161 0.137 0.278 0.137 0.118 0 0.211-0.045 0.278-0.137s0.1-0.222 0.1-0.391c0-0.16-0.034-0.285-0.101-0.376-0.068-0.09-0.161-0.135-0.277-0.135-0.117 0-0.21 0.046-0.278 0.137-0.068 0.092-0.103 0.22-0.103 0.383s0.035 0.29 0.103 0.382m-0.623 2.079c-2.132 0-3.86-1.728-3.86-3.86 0-0.784 0.235-1.514 0.637-2.123v-1.1h1.099c0.609-0.402 1.339-0.636 2.124-0.636 2.132 0 3.859 1.728 3.859 3.859 0 2.132-1.727 3.86-3.859 3.86" fill="#fff"/>
    </g>
    <g id="r" transform="translate(381.04 51.621)">
     <path id="s" d="m0 0c0.084 0 0.126 0.105 0.126 0.316 0 0.21-0.042 0.315-0.126 0.315-0.046 0-0.078-0.025-0.098-0.076s-0.03-0.131-0.03-0.239c0-0.211 0.043-0.316 0.128-0.316" fill="#fff"/>
    </g>
   </g>
  </g>
 </g>
</svg>
