<svg height="2.723092mm" viewBox="0 0 2.7230916 2.7230916" width="2.723092mm" xmlns="http://www.w3.org/2000/svg" xmlns:xlink="http://www.w3.org/1999/xlink"><clipPath id="a"><path d="m370.807 46.298h18.106v8.601h-18.106z"/></clipPath><g clip-path="url(#a)" transform="matrix(.35277777 0 0 -.35277777 -132.743078 19.19019)"><g transform="translate(380.1634 51.6156)"><path d="m0 0c .047 0 .084.014.111.041s.041.064.041.112-.014.085-.041.113c-.027.027-.064.041-.111.041s-.084-.014-.111-.041c-.027-.028-.04-.065-.04-.113s.013-.085.04-.112c.027-.027.064-.041.111-.041"/></g><g transform="translate(380.1592 49.4399)"><path d="m0 0c-.076 0-.138-.028-.188-.085-.05-.056-.074-.126-.074-.21s.024-.154.072-.21.111-.084.19-.084c.077 0 .14.028.189.085.049.056.073.126.073.209s-.024.152-.074.209c-.05.057-.112.086-.188.086"/></g><g transform="translate(379.1548 49.266)"><path d="m0 0c .03.015.045.042.045.081 0 .046-.019.076-.058.09-.021.009-.059.013-.115.013h-.059v-.202h.055c.062 0 .106.006.132.018"/></g><g transform="translate(379.2017 49.0471)"><path d="m0 0c-.027.015-.071.022-.134.022h-.099v-.218h.095c.062 0 .107.007.135.023.029.015.043.043.043.082 0 .046-.013.076-.04.091"/></g><g transform="translate(382.0186 50.8274)"><path d="m0 0h-.348v-.174h.328v-.215h-.328v-.169h.348v-.225h-.614v1.003h.614zm-.611-2.181-.17.297c-.016.029-.028.057-.035.083-.007-.03-.018-.058-.033-.083l-.171-.297h-.311l.372.526-.336.477h.325l.121-.233c.008-.014.019-.042.033-.083.005.019.017.046.035.083l.121.233h.324l-.335-.483.37-.52zm-1.248-.027c-.127 0-.24.04-.341.121-.13.103-.195.239-.195.405 0 .146.052.27.158.372.105.103.231.154.378.154s.274-.051.378-.153c.105-.102.157-.226.157-.373s-.052-.271-.157-.373c-.104-.102-.231-.153-.378-.153m-.963 1.521c-.037.042-.061.095-.073.158-.01.047-.014.116-.014.208v.541h.273v-.544c0-.094.011-.159.033-.195.026-.04.072-.06.14-.06.077 0 .126.026.149.078.015.039.023.119.023.24v.481h.274v-.596c0-.152-.035-.263-.105-.331-.069-.068-.183-.102-.341-.102-.169 0-.288.04-.359.122m.174-1.444c-.041-.021-.094-.036-.158-.043-.046-.005-.118-.007-.215-.007h-.283v.423h-.095v.178h.095v.402h.304c.144 0 .243-.012.296-.035.095-.043.142-.115.142-.217 0-.057-.014-.102-.043-.135s-.075-.059-.14-.076c.072-.006.128-.031.168-.076s.06-.104.06-.178c0-.112-.044-.19-.131-.236m-1.11 2.116v.235h.721v-.235h-.225v-.768h-.273v.768zm.644.965h.254v-.017c0-.089.041-.134.122-.134.087 0 .131.042.131.126 0 .089-.05.134-.149.134-.013 0-.023-.001-.031-.001v.161h.014c.096 0 .143.039.143.118 0 .031-.01.056-.031.075s-.048.028-.079.028c-.074 0-.111-.036-.111-.108h-.243c.002.094.035.167.098.219.064.052.153.077.268.077.104 0 .185-.023.243-.07.058-.046.087-.109.087-.188 0-.105-.053-.174-.159-.206.063-.01.112-.037.146-.081.035-.043.052-.098.052-.166 0-.097-.034-.176-.104-.237-.069-.061-.159-.091-.27-.091-.116 0-.209.031-.277.094-.069.062-.104.147-.104.253zm.933.221c.024.052.066.125.128.22l.14.218h.279l-.234-.354c.037.011.072.016.105.016.084 0 .154-.03.21-.089.057-.06.085-.136.085-.228 0-.109-.035-.197-.104-.264s-.163-.101-.28-.101c-.118 0-.211.033-.279.1-.068.066-.102.154-.102.263 0 .07.018.143.052.219m.635-1.459v-.495h-.264v1.003h.264l.379-.516c.016-.022.046-.08.091-.177-.01.083-.015.149-.015.198v.495h.262v-1.003h-.262l-.379.518c-.017.023-.047.082-.091.175.01-.082.015-.148.015-.198m.29 1.779c.068.092.161.137.278.137.118 0 .211-.045.278-.137s.1-.222.1-.391c0-.16-.034-.285-.101-.376-.068-.09-.161-.135-.277-.135-.117 0-.21.046-.278.137-.068.092-.103.22-.103.383s.035.29.103.382m-.623 2.079c-2.132 0-3.86-1.728-3.86-3.86 0-.784.235-1.514.637-2.123v-1.1h1.099c.609-.402 1.339-.636 2.124-.636 2.132 0 3.859 1.728 3.859 3.859 0 2.132-1.727 3.86-3.859 3.86"/></g><g transform="translate(381.0401 51.6212)"><path d="m0 0c .084 0 .126.105.126.316 0 .21-.042.315-.126.315-.046 0-.078-.025-.098-.076s-.03-.131-.03-.239c0-.211.043-.316.128-.316"/></g></g></svg>