<svg height="284" width="775" xmlns="http://www.w3.org/2000/svg"><path d="m .2597137.422905v281.446755h281.4467563v-281.446755h-281.4467563z" fill="#d2002e"/><path d="m206.43996 132.46665c28.17314-12.80601 40.69459-30.4498 40.69459-58.907519 0-37.27947-27.88856-65.452646-67.72942-72.282506-5.97603-.85372-11.95217-.85372-18.2129-.85372-8.8218 0-16.22085 0-23.61988.85372-12.23675 1.70744-24.75821 5.40696-42.401954 11.66774v47.808856c20.204954-9.96021 35.287484-14.51345 50.654724-14.51345 22.48158 0 39.55616 13.65973 39.55616 32.15724 0 20.774134-17.07458 33.580139-43.54026 33.580139h-3.13036v47.23978h6.82988c27.03483 0 44.67857 14.51335 44.67857 37.27946 0 23.05076-18.2129 37.84885-46.67062 37.84885-14.5135 0-29.59604-4.83779-52.362194-15.65181v49.51639c18.212904 6.82987 32.726404 10.81403 46.386054 12.80601 6.82988.85382 13.65975.85382 20.48952.85382 6.82988 0 13.09061 0 19.35133-.85382 46.10146-7.1144 75.98196-38.70247 75.98196-82.8119 0-30.73434-16.50543-53.50055-46.9552-65.73728" fill="#fff"/><g fill="#cfd0d1"><path d="m314.2947 226.66165c22.48157 12.80592 40.4099 18.78206 57.48461 18.78206 12.52133 0 20.7741-5.97614 20.7741-14.79798 0-8.53731-5.40699-12.80602-29.59604-22.19695-26.75025-10.24485-37.84881-17.64389-45.24773-30.73444-3.98409-7.96813-6.26072-16.50532-6.26072-24.7582 0-34.14921 26.46567-56.346259 67.16014-56.346259 17.92844 0 36.99508 5.406979 56.91545 16.220999v36.99492c-24.18905-12.8059-41.26363-17.92832-58.9075-17.92832-13.94422 0-21.91241 4.83788-21.91241 13.09055 0 7.39904 5.40699 11.09856 25.04277 18.49761 36.14135 13.37499 50.08557 23.33529 58.33834 40.69445 2.84579 6.26068 4.26868 13.09045 4.26868 21.05867 0 33.86469-27.60398 58.33834-65.73738 58.33834-18.78205 0-34.71832-3.98406-58.90737-13.65973l-3.41494-1.4229v-41.83281z"/><path d="m558.17721 233.77607c-12.52145 9.67556-17.07459 11.95218-25.61194 11.95218-12.23675 0-19.63579-7.39885-19.63579-19.35123 0-14.51335 8.53723-21.05867 45.24773-35.85676zm77.97412 0c-7.39903 5.12241-12.80603 7.39893-16.50555 7.39893-4.55312 0-5.40687-2.27652-5.40687-19.63576v-63.46067c0-16.22098-.28458-21.34321-2.84578-28.74225-6.5453-21.34333-28.45772-32.726439-63.74533-32.726439-27.60386 0-48.66266 6.829879-73.42087 24.473669v40.97919c23.90447-19.63597 41.83291-27.31946 60.89954-27.31946 16.50543 0 23.05074 7.39894 23.05074 24.47366v6.26068c-16.79001 5.40685-22.76616 7.68349-34.43388 12.23673-43.54025 17.07461-61.46857 35.00304-61.46857 61.46857 0 24.47367 20.20494 44.39418 46.10146 44.39418 19.06664 0 33.01098-7.1145 52.07762-25.32738 2.84578 17.07462 12.23675 25.04274 29.59603 25.04274 12.80591 0 26.1811-5.12232 46.10146-16.79008z"/><path d="m774.74029 268.49446c-19.3512 10.52939-34.14928 15.08263-50.65471 15.08263-26.75025 0-49.5164-14.79809-56.06171-36.71048-3.13024-9.96011-3.13024-11.95219-3.13024-38.98701v-72.28261h-25.61194v-7.11441l71.99798-84.234889h9.67555v55.777179h51.50845v35.57212h-51.50845v62.3223c0 35.00305 3.41494 42.40199 20.7741 42.40199 8.53736 0 19.06677-4.2686 33.01097-13.37509z"/></g></svg>