<?xml version="1.0" encoding="UTF-8"?>
<!-- Created with Inkscape (http://www.inkscape.org/) -->
<svg id="svg26043" width="775" height="284" version="1.0" xmlns="http://www.w3.org/2000/svg" xmlns:cc="http://creativecommons.org/ns#" xmlns:dc="http://purl.org/dc/elements/1.1/" xmlns:rdf="http://www.w3.org/1999/02/22-rdf-syntax-ns#">
 <metadata id="metadata12">
  <rdf:RDF>
   <cc:Work rdf:about="">
    <dc:format>image/svg+xml</dc:format>
    <dc:type rdf:resource="http://purl.org/dc/dcmitype/StillImage"/>
   </cc:Work>
  </rdf:RDF>
 </metadata>
 <path id="path8693" d="m0.25971 0.4229v281.45h281.45v-281.45h-281.45z" fill="#d2002e"/>
 <path id="path8701" d="m206.44 132.47c28.173-12.806 40.695-30.45 40.695-58.908 0-37.279-27.889-65.453-67.729-72.283-5.976-0.85372-11.952-0.85372-18.213-0.85372-8.8218 0-16.221 0-23.62 0.85372-12.237 1.7074-24.758 5.407-42.402 11.668v47.809c20.205-9.9602 35.287-14.513 50.655-14.513 22.482 0 39.556 13.66 39.556 32.157 0 20.774-17.075 33.58-43.54 33.58h-3.1304v47.24h6.8299c27.035 0 44.679 14.513 44.679 37.279 0 23.051-18.213 37.849-46.671 37.849-14.514 0-29.596-4.8378-52.362-15.652v49.516c18.213 6.8299 32.726 10.814 46.386 12.806 6.8299 0.85382 13.66 0.85382 20.49 0.85382 6.8299 0 13.091 0 19.351-0.85382 46.101-7.1144 75.982-38.702 75.982-82.812 0-30.734-16.505-53.501-46.955-65.737" fill="#fff"/>
 <path id="path8703" d="m314.29 226.66c22.482 12.806 40.41 18.782 57.485 18.782 12.521 0 20.774-5.9761 20.774-14.798 0-8.5373-5.407-12.806-29.596-22.197-26.75-10.245-37.849-17.644-45.248-30.734-3.9841-7.9681-6.2607-16.505-6.2607-24.758 0-34.149 26.466-56.346 67.16-56.346 17.928 0 36.995 5.407 56.915 16.221v36.995c-24.189-12.806-41.264-17.928-58.908-17.928-13.944 0-21.912 4.8379-21.912 13.091 0 7.399 5.407 11.099 25.043 18.498 36.141 13.375 50.086 23.335 58.338 40.694 2.8458 6.2607 4.2687 13.09 4.2687 21.059 0 33.865-27.604 58.338-65.737 58.338-18.782 0-34.718-3.9841-58.907-13.66l-3.4149-1.4229v-41.833z" fill="#cfd0d1"/>
 <path id="path8705" d="m558.18 233.78c-12.521 9.6756-17.075 11.952-25.612 11.952-12.237 0-19.636-7.3988-19.636-19.351 0-14.513 8.5372-21.059 45.248-35.857v43.256zm77.974 0c-7.399 5.1224-12.806 7.3989-16.506 7.3989-4.5531 0-5.4069-2.2765-5.4069-19.636v-63.461c0-16.221-0.28458-21.343-2.8458-28.742-6.5453-21.343-28.458-32.726-63.745-32.726-27.604 0-48.663 6.8299-73.421 24.474v40.979c23.904-19.636 41.833-27.319 60.9-27.319 16.505 0 23.051 7.3989 23.051 24.474v6.2607c-16.79 5.4068-22.766 7.6835-34.434 12.237-43.54 17.075-61.469 35.003-61.469 61.469 0 24.474 20.205 44.394 46.101 44.394 19.067 0 33.011-7.1145 52.078-25.327 2.8458 17.075 12.237 25.043 29.596 25.043 12.806 0 26.181-5.1223 46.101-16.79v-32.726z" fill="#cfd0d1"/>
 <path id="path8707" d="m774.74 268.49c-19.351 10.529-34.149 15.083-50.655 15.083-26.75 0-49.516-14.798-56.062-36.71-3.1302-9.9601-3.1302-11.952-3.1302-38.987v-72.283h-25.612v-7.1144l71.998-84.235h9.6756v55.777h51.508v35.572h-51.508v62.322c0 35.003 3.4149 42.402 20.774 42.402 8.5374 0 19.067-4.2686 33.011-13.375v41.548z" fill="#cfd0d1"/>
</svg>
