<?xml version="1.0" encoding="UTF-8"?>
<!-- Generator: Adobe Illustrator 18.1.1, SVG Export Plug-In . SVG Version: 6.00 Build 0)  -->
<svg id="Warstwa_3" width="791.36" height="569.77" enable-background="new 0 0 141.7 141.7" space="preserve" version="1.1" viewBox="0 0 791.36 569.77" xmlns="http://www.w3.org/2000/svg" xmlns:cc="http://creativecommons.org/ns#" xmlns:dc="http://purl.org/dc/elements/1.1/" xmlns:rdf="http://www.w3.org/1999/02/22-rdf-syntax-ns#">
 <metadata id="metadata33">
  <rdf:RDF>
   <cc:Work rdf:about="">
    <dc:format>image/svg+xml</dc:format>
    <dc:type rdf:resource="http://purl.org/dc/dcmitype/StillImage"/>
    <dc:title/>
   </cc:Work>
  </rdf:RDF>
 </metadata>
 <link id="dark-mode" href="" rel="stylesheet" type="text/css"/>
 <style id="dark-mode-custom-style" type="text/css"/>
 <path id="path2" d="m365.64 0c-115.11 0-208.24 93.131-208.24 208.24 0 115.11 93.131 208.24 208.24 208.24 115.11 0 208.24-93.131 208.24-208.24 0-115.11-93.709-208.24-208.24-208.24zm107.01 321.62c-2.8923 1.1569-5.7845 1.7354-8.6768 1.7354-8.0983 0-16.197-4.6276-20.246-12.726l-13.883-31.236h-64.208c-12.148 0-21.981-9.8337-21.981-21.981 0-12.148 9.8337-21.981 21.981-21.981h44.541l-30.658-69.414-0.57845-1.1569c-2.8923-6.363-4.0492-13.304-4.0492-20.246 0-7.5199 1.7354-14.461 4.6276-21.403v-0.57845c0.57845-1.7354 1.1569-3.4707 1.1569-5.2061 0-8.0983-6.363-14.461-14.461-14.461s-14.461 6.363-14.461 14.461c0 2.3138 0.57846 4.0492 1.1569 5.7845 2.8923 6.363 4.0492 13.883 4.0492 20.824s-1.1569 13.883-4.0492 20.824v0.57846l-0.57845 1.1569-64.208 144.61c-4.6276 10.991-17.932 16.197-28.923 10.991-10.991-4.6276-16.197-17.932-10.991-28.923l64.208-145.77c0.57845-1.1569 0.57845-2.3138 0.57845-3.4707s0-2.3138-0.57845-3.4707v-0.57845c-2.8923-7.5199-4.6276-15.04-4.6276-23.138 0-32.393 26.03-58.424 58.424-58.424s58.424 26.03 58.424 58.424c0 8.0983-1.7354 15.618-4.6276 23.138v0.57845c-0.57846 1.1569-0.57846 2.3138-0.57846 3.4707s0 2.3138 0.57846 3.4707l-0.57846 0.57846 64.208 144.61c4.6276 11.569 0 24.295-10.991 28.923z" fill="#e74d3d" stroke-width="5.7845"/>
 <g id="g26" transform="matrix(5.7845 0 0 5.7845 -8.6123 -106.44)" fill="#222">
  <g id="g24" fill="#222">
   <path id="path6" d="m1.5 116.1 3.7-15.2c0.6-2.4 2.4-2.7 4.1-2.7s3.5 0.4 4 2.7l3.7 15.2c0.06328 0.26865-0.10147 0.5-0.4 0.5h-3.4c-0.25348 0-0.44203-0.18366-0.5-0.4l-0.9-4h-5l-0.9 4c-0.060295 0.22502-0.17326 0.4-0.5 0.4h-3.5c-0.32224 0-0.45206-0.30572-0.4-0.5zm8.1-14.1c0-0.29932-0.1-0.4-0.3-0.4s-0.3 0.1-0.3 0.4l-1.5 6.8h3.7z"/>
   <path id="path8" d="m29.9 116.2c-1.4 0.3-3.3 0.6-5.2 0.6-4 0-6.2-2.3-6.2-6.3v-1.9c0-3.9 2-6.3 6.2-6.3 0.5 0 1.3 0.1 2 0.2v-4.2c0-0.3 0.2-0.5 0.5-0.5h3c0.3 0 0.5 0.2 0.5 0.5v17.2c-0.1 0.4-0.2 0.6-0.8 0.7zm-3.2-10.4c-0.6-0.1-1.4-0.1-2-0.1-1.7 0-2.2 1.3-2.2 3v1.9c0 1.7 0.4 3 2.2 3 0.8 0 1.5-0.1 2-0.1z"/>
   <path id="path10" d="m32.6 103.1 3.1 11.1c0.6 2.2 2.1 2.6 3.5 2.6 1.5 0 3-0.4 3.6-2.6l3.1-11.1c0.1 0 0.1-0.1-0.1-0.1 0-0.2-0.2-0.4-0.4-0.4h-3.2c-0.2 0-0.4 0.2-0.5 0.5l-2.1 9.6c-0.1 0.4-0.2 0.5-0.4 0.5s-0.3-0.1-0.4-0.5l-2.1-9.6c-0.1-0.3-0.3-0.5-0.5-0.5h-3.2c-0.2 0-0.4 0.2-0.4 0.4 0 0.0313-0.0043 0.0841 0 0.1"/>
   <path id="path12" d="m59.3 110.8h-7.8c0 1.4 0.6 2.7 2.5 2.7 1.5 0 3.7-0.1 4.7-0.2h0.1c0.3 0 0.5 0.1 0.5 0.4v1.9c0 0.4-0.1 0.6-0.5 0.7-1.6 0.4-2.9 0.6-5 0.6-3 0-6.2-1.6-6.2-6.3v-1.7c0-4 2.3-6.5 6.2-6.5 4 0 6.1 2.7 6.1 6.5v1.4c-0.1 0.3-0.3 0.5-0.6 0.5zm-3.3-2.5c0-1.8-0.8-2.7-2.2-2.7-1.3 0-2.3 0.9-2.3 2.7z"/>
   <path id="path14" d="m74 116.6h-3c-0.3 0-0.5-0.2-0.5-0.5v-8.2c0-1.7-0.3-2.3-1.8-2.3-0.7 0-1.5 0.3-2.3 0.8v9.7c0 0.3-0.2 0.5-0.5 0.5h-3c-0.3 0-0.5-0.2-0.5-0.5v-13.1c0-0.3 0.2-0.5 0.5-0.5h2.7c0.3 0 0.5 0.2 0.5 0.5v0.6c1.4-1 2.4-1.3 4-1.3 3.6 0 4.3 2.5 4.3 5.6v8.2c0.1 0.3-0.1 0.5-0.4 0.5z"/>
   <path id="path16" d="m85.1 116.7c-0.7 0.1-1.2 0.2-1.9 0.2-2.7 0-4.1-0.7-4.1-4.2v-7.1l-2-0.3c-0.3 0-0.5-0.2-0.5-0.5v-1.6c0-0.3 0.2-0.5 0.5-0.5h2v-2c0-0.3 0.2-0.4 0.5-0.5l3-0.5h0.1c0.2 0 0.4 0.2 0.4 0.4v2.6h2c0.3 0 0.5 0.2 0.5 0.5v2c0 0.3-0.2 0.5-0.5 0.5h-2v7.1c0 1 0.1 1.2 0.8 1.2h1.1c0.3 0 0.5 0.1 0.5 0.4v1.9c0 0.1-0.1 0.3-0.4 0.4z"/>
   <path id="path18" d="m99.4 116.6h-2.7c-0.3 0-0.5-0.2-0.5-0.5v-0.6c-1.3 1-2.4 1.3-4 1.3-3.6 0-4.3-2.5-4.3-5.6v-8.2c0-0.3 0.2-0.5 0.5-0.5h3c0.3 0 0.5 0.2 0.5 0.5v8.2c0 1.7 0.3 2.3 1.8 2.3 0.7 0 1.5-0.3 2.3-0.8v-9.7c0-0.3 0.2-0.5 0.5-0.5h3c0.3 0 0.5 0.2 0.5 0.5v13.1c-0.2 0.3-0.4 0.5-0.6 0.5z"/>
   <path id="path20" d="m109.9 105.7c-1.2 0-2.3 0.4-3.2 0.9v9.6c0 0.3-0.2 0.5-0.5 0.5h-3c-0.3 0-0.5-0.2-0.5-0.5v-13.1c0-0.3 0.2-0.5 0.5-0.5h2.9c0.3 0 0.5 0.2 0.5 0.5v0.5c0.9-0.8 2.1-1.2 3.3-1.2 0.3 0 0.5 0.2 0.5 0.5v2.3c0 0.44546-0.13706 0.5-0.5 0.5z"/>
   <path id="path22" d="m123.9 110.8h-7.8c0 1.4 0.6 2.7 2.5 2.7 1.5 0 3.7-0.1 4.7-0.2 0.36226-0.0337 0.6 0.15914 0.6 0.4v1.9c0 0.4-0.1 0.6-0.5 0.7-1.6 0.4-2.9 0.6-5 0.6-3 0-6.2-1.6-6.2-6.3v-1.7c0-4 2.3-6.5 6.2-6.5 4 0 6.1 2.7 6.1 6.5v1.4c-0.1 0.3-0.3 0.5-0.6 0.5zm-3.4-2.5c0-1.8-0.8-2.7-2.2-2.7-1.3 0-2.3 0.9-2.3 2.7z"/>
  </g>
 </g>
 <path id="path20-1-7" d="m726.6 463.34h35.137c1.8942-0.0322 3.606 1.3898 4.1802 3.166l5.688 15.792 5.731-15.819c0.55808-1.7976 2.3557-3.1499 4.2446-3.1391h9.777l-14.821 37.02h-9.8628l-10.652-26.567h-8.2208v26.567h-12.071v-26.567h-9.1304z" fill="#222" stroke-width=".53661"/>
</svg>
