<?xml version="1.0" encoding="UTF-8" standalone="no"?>
<!-- Created with Inkscape (http://www.inkscape.org/) -->

<svg
   xmlns:dc="http://purl.org/dc/elements/1.1/"
   xmlns:cc="http://creativecommons.org/ns#"
   xmlns:rdf="http://www.w3.org/1999/02/22-rdf-syntax-ns#"
   xmlns:svg="http://www.w3.org/2000/svg"
   xmlns="http://www.w3.org/2000/svg"
   xmlns:sodipodi="http://sodipodi.sourceforge.net/DTD/sodipodi-0.dtd"
   xmlns:inkscape="http://www.inkscape.org/namespaces/inkscape"
   width="7.4465375mm"
   height="3.6343167mm"
   viewBox="0 0 26.385369 12.8775"
   id="svg92786"
   version="1.1"
   inkscape:version="0.92.0 r15299"
   sodipodi:docname="Animal Planet.svg">
  <defs
     id="defs92788">
    <clipPath
       clipPathUnits="userSpaceOnUse"
       id="clipPath12398">
      <path
         d="M 0,0 H 1190.552 V 841.89 H 0 Z"
         id="path12400"
         inkscape:connector-curvature="0" />
    </clipPath>
    <clipPath
       clipPathUnits="userSpaceOnUse"
       id="clipPath12386">
      <path
         d="m 611.65,170.769 h 21.109 V 181.07 H 611.65 Z"
         id="path12388"
         inkscape:connector-curvature="0" />
    </clipPath>
    <clipPath
       clipPathUnits="userSpaceOnUse"
       id="clipPath12370">
      <path
         d="M 0,0 H 1190.552 V 841.89 H 0 Z"
         id="path12372"
         inkscape:connector-curvature="0" />
    </clipPath>
  </defs>
  <sodipodi:namedview
     id="base"
     pagecolor="#ffffff"
     bordercolor="#666666"
     borderopacity="1.0"
     inkscape:pageopacity="0.0"
     inkscape:pageshadow="2"
     inkscape:zoom="31.678384"
     inkscape:cx="13.96566"
     inkscape:cy="7.4447972"
     inkscape:document-units="px"
     inkscape:current-layer="layer1"
     showgrid="false"
     fit-margin-top="0"
     fit-margin-left="0"
     fit-margin-right="0"
     fit-margin-bottom="0"
     inkscape:window-width="1920"
     inkscape:window-height="1017"
     inkscape:window-x="-8"
     inkscape:window-y="-8"
     inkscape:window-maximized="1" />
  <metadata
     id="metadata92791">
    <rdf:RDF>
      <cc:Work
         rdf:about="">
        <dc:format>image/svg+xml</dc:format>
        <dc:type
           rdf:resource="http://purl.org/dc/dcmitype/StillImage" />
        <dc:title></dc:title>
      </cc:Work>
    </rdf:RDF>
  </metadata>
  <g
     inkscape:label="Layer 1"
     inkscape:groupmode="layer"
     id="layer1"
     transform="translate(-329.66446,-228.7806)">
    <path
       inkscape:connector-curvature="0"
       id="path12376"
       style="fill:#ffffff;fill-opacity:1;fill-rule:nonzero;stroke:none"
       d="m 350.99621,228.7811 -0.71625,7.50875 h 0.7975 l 0.10125,-1.3625 h 0.56125 l 0.0825,1.3625 h 0.885 l -0.70875,-7.50875 z m 0.48375,2.015 0.195,3.18125 h -0.42125 z" />
    <path
       inkscape:connector-curvature="0"
       id="path12380"
       style="fill:#ffffff;fill-opacity:1;fill-rule:nonzero;stroke:none"
       d="m 337.37921,228.7811 v 4.16375 l -0.75125,-4.16375 h -0.8925 v 7.50875 h 0.73375 l -10e-4,-4.10625 0.9025,4.10625 h 0.7325 v -7.50875 h -0.72375 z" />
    <path
       inkscape:connector-curvature="0"
       id="path12392"
       style="fill:#ffffff;fill-opacity:1;fill-rule:nonzero;stroke:none"
       d="m 352.94483,228.7811 v 7.5075 h 3.105 v -1.47375 h -1.41375 v -6.03375 z" />
    <path
       inkscape:connector-curvature="0"
       id="path12404"
       style="fill:#ffffff;fill-opacity:1;fill-rule:nonzero;stroke:none"
       d="m 331.36946,228.7811 -1.705,12.87625 h 2.285 l 0.24125,-2.01125 h 1.15875 l 0.16125,2.01125 h 2.67 l -1.73875,-12.87625 z m 1.03125,8.58 0.4825,-4.2325 0.32125,4.2325 z" />
    <path
       inkscape:connector-curvature="0"
       id="path12408"
       style="fill:#ffffff;fill-opacity:1;fill-rule:nonzero;stroke:none"
       d="m 338.57633,228.7811 v 7.50875 h 2.0175 l -0.001,-7.50875 h -2.01625 z" />
    <path
       inkscape:connector-curvature="0"
       id="path12412"
       style="fill:#ffffff;fill-opacity:1;fill-rule:nonzero;stroke:none"
       d="m 348.56383,236.64635 v 2.39875 l -1.275,-2.39875 h -1.15875 v 5.01125 h 1.19625 v -2.355 l 1.325,2.355 h 1.1025 v -5.01125 z" />
    <path
       inkscape:connector-curvature="0"
       id="path12416"
       style="fill:#ffffff;fill-opacity:1;fill-rule:nonzero;stroke:none"
       d="m 350.04083,236.64635 v 5.01125 h 2.68125 v -1.0525 h -1.34 v -1.04 h 1.275 v -0.95125 h -1.275 v -0.96375 h 1.30625 v -1.00375 z" />
    <path
       inkscape:connector-curvature="0"
       id="path12420"
       style="fill:#ffffff;fill-opacity:1;fill-rule:nonzero;stroke:none"
       d="m 338.21771,238.70085 c 0,0.14375 -0.0875,0.2 -0.23,0.2 h -0.215 v -1.24 h 0.215 c 0.1425,0 0.23,0.0562 0.23,0.20125 z m 0.006,-2.055 h -1.79125 v 5.01125 h 1.34 v -1.74125 h 0.45125 c 0.6425,0 1.24625,-0.40125 1.24625,-1.04 v -1.19 c 0,-0.6325 -0.60375,-1.04 -1.24625,-1.04" />
    <path
       inkscape:connector-curvature="0"
       id="path12424"
       style="fill:#ffffff;fill-opacity:1;fill-rule:nonzero;stroke:none"
       d="m 352.92783,237.6506 h 0.88625 v 4.0075 h 1.34 v -4.0075 h 0.88375 v -1.0035 l -3.11,-2.5e-4 z"
       sodipodi:nodetypes="ccccccccc" />
    <path
       inkscape:connector-curvature="0"
       id="path12428"
       style="fill:#ffffff;fill-opacity:1;fill-rule:nonzero;stroke:none"
       d="m 341.0832,236.64247 h -1.3475 v 5.0125 h 2.52625 v -1.08375 h -1.17875 z" />
    <path
       inkscape:connector-curvature="0"
       id="path12432"
       style="fill:#ffffff;fill-opacity:1;fill-rule:nonzero;stroke:none"
       d="m 343.91796,239.9956 0.21375,-1.71625 0.22125,1.71625 z m 1.08875,-3.35375 h -1.6575 l -0.9175,5.0125 h 1.27875 l 0.0863,-0.69125 h 0.68125 l 0.0888,0.69125 h 1.36125 l -0.92125,-5.0125 z" />
    <path
       inkscape:connector-curvature="0"
       id="path12436"
       style="fill:#faa74a;fill-opacity:1;fill-rule:nonzero;stroke:none"
       d="m 350.04033,231.8481 v -3.0675 h -9.00125 v 1.81625 h 5.73875 l -5.73875,1.12625 v 1.31375 l 5.72625,1.25125 h -5.72625 v 2.00125 h 9.00125 v -2.915 l -4.1075,-0.78875 z" />
  </g>
</svg>
