<?xml version="1.0" encoding="UTF-8" standalone="no"?>
<!-- Generator: Adobe Illustrator 13.0.0, SVG Export Plug-In . SVG Version: 6.00 Build 14948)  -->

<svg
   xmlns:dc="http://purl.org/dc/elements/1.1/"
   xmlns:cc="http://creativecommons.org/ns#"
   xmlns:rdf="http://www.w3.org/1999/02/22-rdf-syntax-ns#"
   xmlns:svg="http://www.w3.org/2000/svg"
   xmlns="http://www.w3.org/2000/svg"
   xmlns:sodipodi="http://sodipodi.sourceforge.net/DTD/sodipodi-0.dtd"
   xmlns:inkscape="http://www.inkscape.org/namespaces/inkscape"
   version="1.1"
   id="Ebene_1"
   x="0px"
   y="0px"
   width="348.999px"
   height="99.735px"
   viewBox="0 0 348.999 99.735"
   xml:space="preserve"
   sodipodi:docname="ARD.svg"
   inkscape:version="0.92.0 r15299"><metadata
     id="metadata9"><rdf:RDF><cc:Work
         rdf:about=""><dc:format>image/svg+xml</dc:format><dc:type
           rdf:resource="http://purl.org/dc/dcmitype/StillImage" /></cc:Work></rdf:RDF></metadata><defs
     id="defs7" /><sodipodi:namedview
     pagecolor="#ffffff"
     bordercolor="#666666"
     borderopacity="1"
     objecttolerance="10"
     gridtolerance="10"
     guidetolerance="10"
     inkscape:pageopacity="0"
     inkscape:pageshadow="2"
     inkscape:window-width="1920"
     inkscape:window-height="1017"
     id="namedview5"
     showgrid="false"
     inkscape:zoom="0.81375593"
     inkscape:cx="174.4995"
     inkscape:cy="49.8675"
     inkscape:window-x="-8"
     inkscape:window-y="-8"
     inkscape:window-maximized="1"
     inkscape:current-layer="Ebene_1" /><g
     id="g2446"
     style="fill:#ffffff;fill-opacity:1"><path
       id="path2452"
       d="M315.4,0c18.553,0,33.599,15.044,33.599,33.603c0,18.551-15.046,33.597-33.599,33.597   s-33.599-15.046-33.599-33.597C281.801,15.044,296.847,0,315.4,0 M328.887,47.202V13.569L295.07,25.71v8.359l11.201-4.05v25.279   L328.887,47.202z M315.4,4.931c-15.832,0-28.67,12.834-28.67,28.672c0,15.83,12.838,28.668,28.67,28.668   s28.666-12.838,28.666-28.668C344.066,17.765,331.232,4.931,315.4,4.931 M47.997,65.702h-18.45l8.854-30.295L47.997,65.702z    M170.389,97.366l-0.998-9.352c-11.592,2.246-8.104-28.547-21.564-30.167c9.719-3.117,16.704-10.473,16.704-21.692   c0-15.461-11.597-22.563-31.045-22.563c-11.968,0-27.424,0.622-30.54,0.622h-9.475v7.854c3.115,1.87,6.853,4.363,10.346,5.361   v57.714c-3.864,1.005-7.231,3.244-10.346,5.24v7.977h38.519v-7.977c-2.119-1.87-4.363-3.866-7.229-5.24V64.328h3.741   c12.966,0,8.477,35.407,27.552,35.407C160.665,99.735,166.149,99.109,170.389,97.366 M142.838,39.021   c0,8.227-4.113,13.337-12.469,13.337h-5.608V26.182c1.119-0.249,3.115-0.499,4.988-0.499   C139.222,25.683,142.838,31.916,142.838,39.021 M267.589,54.484c0-29.422-14.957-40.77-42.01-40.77   c-11.348,0-25.43,0.499-32.167,0.499h-10.097v7.854c3.117,1.87,6.856,4.363,10.35,5.484v57.468   c-3.865,0.998-7.232,3.367-10.35,5.363v7.977h10.473c3.739,0,16.953,0.5,26.059,0.5C247.017,98.86,267.589,83.277,267.589,54.484    M245.523,56.351c0,20.323-8.853,29.299-20.193,29.299c-4.983,0-8.104-0.376-10.723-1.248V26.056   c2.246-0.25,4.734-0.373,7.479-0.373C240.786,25.683,245.523,39.896,245.523,56.351 M82.905,98.36v-7.977   c-1.497-1.87-3.615-3.613-5.987-5.11L52.36,13.964H31.792L7.234,85.273C4.49,86.518,1.996,88.388,0,90.384v7.977h31.043v-7.977   c-2.117-1.996-4.489-3.736-7.229-5.11l2.367-7.854h25.307l2.618,7.854c-2.745,1.244-5.361,3.114-7.607,5.11v7.977H82.905z"
       style="fill:#ffffff;fill-opacity:1" /></g></svg>