<svg height="199.02" viewBox="0 0 158.75171 52.65839" width="600" xmlns="http://www.w3.org/2000/svg"><g fill="#0a50c2"><path d="m78.3 14.458c-3.1796.03912-6.5601.871-9.525 2.426-7.2985 3.8278-11.975 12.866-8.8383 18.847 3.1371 5.9815 13.226 6.6419 20.524 2.814 7.2985-3.8278 11.704-12.974 8.5669-18.956-1.8626-3.5515-6.0804-5.1885-10.728-5.1313zm-2.1195 7.3251c2.4692-.01518 4.3228 1.5199 4.4586 4.0117.16709 3.0669-2.6574 6.5849-5.9737 7.5229-3.3164.93799-6.1405-.4619-6.3076-3.5288-.16709-3.0669 2.7119-6.8024 6.0284-7.7404.62183-.17588 1.2246-.2619 1.7944-.2654z"/><path d="m49.112 14.523c-3.0095.04987-6.2777 1.2587-9.1618 3.4002l.80167-2.7225h-8.4645l-11.222 37.458h8.6539l4.3737-14.85c.56519.66971 1.2521 1.2506 2.064 1.7205 5.2756 3.0531 13.676.50458 18.564-6.0943 4.8869-6.5989 4.6802-14.641-.59548-17.694-1.4837-.85865-3.2017-1.2483-5.0137-1.2183zm-4.6518 7.3315c1.9971-.0139 3.7074.85287 4.2281 2.7128.79342 2.8343-1.476 6.9017-4.5997 8.2817-3.1237 1.3799-6.462.79792-7.2554-2.0363-.79342-2.8343 1.2584-6.8475 4.3821-8.2272 1.0738-.47425 2.1989-.72342 3.2449-.7307z"/><path d="m113.5 14.482c-1.3828.0146-2.7941.3081-4.0151.8974-1.7215.83086-3.6049 2.1138-4.9344 3.5406l1.1074-3.7132h-8.5328l-7.4679 24.889h8.5767l4.0042-13.424c.29546-.64926.72649-1.3634 1.1859-1.9809.92145-1.2384 2.0466-1.9341 3.1723-2.3727 1.3042-.50802 2.716-.47715 3.9518-.16756.84101.21071 1.6971.6464 2.2505 1.1184l5.8083-7.1953c-1.2201-1.0628-3.1337-1.6108-5.1073-1.59z"/></g><path d="m154.44.090097-13.631 7.3738-2.6069 9.0228 7.7941-4.1476-8.2386 27.708 9.039-.02569 11.95-39.868c-1.4361-.021138-2.8722-.042275-4.3083-.063413z" fill="#fff"/><path d="m18.883 14.409c-1.4825.01168-3.0363.28487-4.3695.682-6.0946 1.8155-9.7013 6.6524-8.1719 11.104.10903.35298.28102.71326.459.9898.6718 1.0377 1.8844 1.9075 3.143 2.5381.83881.35081 1.7072.68954 2.5158 1.044 1.0893.4933 1.443.95046 1.443 1.54.04032 1.3604-1.5634 2.523-3.6657 2.1862-.84743-.13575-1.4719-.29468-2.916-1.2396-.48128-.31487-1.22-.90789-1.9863-1.5743l-5.3341 5.8998c3.4226 3.6444 9.8647 3.7788 14.551 2.6532 4.2761-1.0271 7.3988-4.1397 8.4133-7.4343.003.000199.0058.000608.0088.000806.29046-.88968.44766-1.8315.44766-2.7373-.30236-3.7944-3.3373-4.8469-5.9417-5.7784-1.7461-.58386-2.8906-1.0132-2.8174-2.2923.23662-1.1244 2.0169-1.7489 4.0271-1.3832 1.4208.25858 3.276.80442 4.1453 1.4988l4.5329-5.7164c-2.3429-1.2763-5.4612-2.005-8.4848-1.9813z" fill="#0a50c2"/><path d="m133.89 5.8761-8.597.00701-2.8985 9.2999h-3.5259l-1.9216 6.6414h3.5209l-3.0534 10.524c-.27377 1.2802-.38551 2.1317-.30501 3.5889.0671 2.1222 1.1158 4.1956 4.1261 4.7751 1.8189.35016 4.4764.20342 6.387-.53964l2.4802-.82565-.0521-6.9215s-.86344.37562-.99776.4296c-.36008.1331-.76977.21702-1.1628.28725-1.2024.09821-1.6034-.63188-1.6054-1.6225.0117-.37453.12625-.76915.21468-1.0332l2.58-8.662 5.2434.01051 2.0022-6.6339h-5.1872z" fill="#0a50c2"/><g fill="#fff"><path d="m62.037.098225c-.64228-.038071-1.6145.20043-2.208.5245-.8367.4569-1.4281.7963-2.1956 1.5509l.37142-1.6744-4.2163.051034-3.6014 12.199 4.141.02382 1.7661-5.9615c.16671-.39284.53233-1.1824.77367-1.5499.48404-.73702 1.0473-1.0355 1.5898-1.2692.62831-.27077 1.3649-.38171 2.0787-.18775.44109.15272.94804.27847 1.1832.5902l2.7382-3.5164c-.51769-.70114-2.4208-.78077-2.4208-.78077z"/><path d="m42.882.098225c-2.3237-.00934-4.9706 1.3081-6.7154 3.664-2.4275 3.278-2.325 7.2725.29565 8.7888.73706.42655 1.5906.62008 2.4907.60515 1.4949-.02476 3.1184-.62517 4.551-1.689l-.39811 1.3522h4.2045l3.6813-12.285h-4.2671l-.31118 1.0557c-.28076-.33268-.62176-.62117-1.0251-.85459-.73706-.42655-1.5969-.63316-2.5063-.63664zm.01051 3.6023c1.0205-.042859 1.8888.39647 2.1598 1.3645.39413 1.4079-.62492 3.4016-2.1766 4.0869-.53338.2356-1.0925.35922-1.6122.36284-.99199.00701-1.8415-.42367-2.1001-1.3477-.39413-1.4079.73326-3.4285 2.285-4.1138.48489-.21415.98029-.3333 1.4442-.35275z"/><path d="m101.84.12261c-2.3237-.00934-4.9706 1.3081-6.7154 3.664-2.4275 3.2778-2.325 7.2725.29564 8.7888.73706.42653 1.5906.62008 2.4907.60514 1.4949-.02476 3.1184-.62517 4.551-1.689l-.39811 1.3522h4.2045l3.6813-12.285h-4.2671l-.31118 1.0558c-.28076-.33269-.62176-.62119-1.0251-.85459-.73706-.42653-1.5969-.63316-2.5061-.63663zm.0105 3.6023c1.0205-.042859 1.8888.39647 2.1598 1.3645.39413 1.4079-.62492 3.4016-2.1766 4.0869-.53338.23557-1.0925.35921-1.6122.36283-.99199.00701-1.8415-.42367-2.1001-1.3477-.39413-1.4079.73326-3.4285 2.285-4.1138.48489-.21415.98029-.33328 1.4442-.35275z"/><path d="m88.427.13074c-.64508.022072-1.75.39228-2.0557.51318-.33626.13301-1.2268.44689-1.9943 1.2015l.27758-1.3115-4.2163.0508-3.6014 12.2 4.1411.02347 1.7659-5.9611c.16671-.39284.50574-1.3707.74708-1.7382.48404-.73702 1.0203-1.1429 1.5627-1.3766.62831-.27079 1.2977-.43585 2.0116-.24189.10788.041925.2233.11199.34016.19107.37279.14672.63848.73873.63873 1.4232-.000195.22039-.04795.4381-.10751.65512l-2.0637 6.9895 4.1411.02394s1.4655-4.9339 1.8889-6.2871c.27874-.95802.79288-1.9832.7641-3.4905-.13835-1.2721-.84572-1.9653-1.6764-2.3539-.78976-.41776-1.8396-.49998-2.5636-.51122z"/><path d="m72.349.00071196c-.23984-.0035-.48301.0035-.72861.021021-4.0676.29921-7.9756 3.512-8.7286 7.176-.75335 3.6639 1.9331 6.3918 6.0006 6.093 2.4304-.18032 4.8642-1.418 6.5697-3.2307l-2.7318-1.6374c-.26956.28239-.52063.51737-1.0931.90708-.6006.36332-1.1879.48059-2.0648.51779-.89764-.029312-1.4715-.33873-1.6915-.49973-.51092-.33888-.71984-1.3997-.45564-2.1535.0013-.00234.0026-.0035.0039-.00701l9.035.00701v-.040757c.54284-1.1234.7343-2.8081.39386-4.1205-.41964-1.6177-2.0586-2.6637-3.4272-2.9233v-.00584c-.02973-.00467-.0608-.00701-.0907-.012145-.03457-.00584-.06791-.00934-.10204-.013897-.28947-.042041-.58481-.070653-.88822-.07731zm-1.1297 2.7944c.85312.022539 1.5352.45225 1.7575 1.1217.06937.30443.08623.56101.07391.92641l-4.6668.00701c.13612-.79037.81826-1.5251 1.7314-1.865.30382-.11316.6204-.17736.93104-.18896.05831-.00234.11614-.00234.17302-.0008174z"/></g></svg>