<svg height="199.25661" viewBox="0 0 164.61164 52.719587" width="622.14752" xmlns="http://www.w3.org/2000/svg"><g fill="#0a50c2" stroke-width=".81264"><path d="m78.29991 14.520365c-3.1796.03912-6.5601.87099-9.5249 2.4261-7.2985 3.8277-11.975 12.866-8.8382 18.847 3.137 5.9814 13.226 6.6418 20.524 2.814 7.2985-3.8277 11.704-12.975 8.5668-18.956-1.8626-3.5515-6.0803-5.1885-10.728-5.1312zm-2.1194 7.325c2.4692-.01518 4.3227 1.5199 4.4585 4.0117.16709 3.0669-2.6573 6.5848-5.9737 7.5228-3.3164.93803-6.1405-.46189-6.3075-3.5288-.16709-3.0669 2.7119-6.8023 6.0283-7.7404.62182-.17588 1.2246-.26189 1.7944-.2654z"/><path d="m49.11091 14.585365c-3.0094.04987-6.2776 1.2586-9.1617 3.4002l.80167-2.7225h-8.4644l-11.222 37.457h8.6538l4.3737-14.849c.56518.6697 1.2521 1.2507 2.064 1.7205 5.2756 3.0531 13.677.50458 18.564-6.0942 4.8868-6.5988 4.6801-14.64-.59548-17.694-1.4837-.85864-3.2017-1.2483-5.0137-1.2182zm-4.6517 7.3314c1.9971-.0139 3.7073.85286 4.228 2.7128.79341 2.8342-1.476 6.9017-4.5996 8.2816s-6.4619.79792-7.2553-2.0363c-.79341-2.8342 1.2584-6.8474 4.3821-8.2271 1.0737-.47425 2.1988-.72341 3.2449-.7307z"/><path d="m113.49991 14.544365c-1.3828.0146-2.7941.3081-4.0151.89739-1.7215.83085-3.6049 2.1138-4.9343 3.5405l1.1074-3.7131h-8.5327l-7.4678 24.888h8.5766l4.0042-13.424c.29545-.64926.72648-1.3634 1.1859-1.9809.92145-1.2383 2.0466-1.9342 3.1722-2.3727 1.3042-.50802 2.7159-.47714 3.9517-.16756.841.21071 1.6971.64639 2.2504 1.1184l5.8082-7.1953c-1.2202-1.0628-3.1337-1.6107-5.1074-1.5899z"/><path d="m18.88291 14.471365c-1.4826.01168-3.0363.28486-4.3695.68199-6.0945 1.8154-9.7013 6.6523-8.1719 11.104.10903.35298.28103.71325.45899.98979.67179 1.0377 1.8843 1.9075 3.1429 2.5381.8388.35081 1.7072.68953 2.5158 1.044 1.0893.49329 1.4429.95046 1.4429 1.5399.04032 1.3604-1.5634 2.5229-3.6656 2.1861-.84742-.13575-1.4719-.29467-2.9161-1.2396-.48128-.31486-1.22-.90788-1.9863-1.5743l-5.3341 5.8997c3.4227 3.6444 9.8646 3.7789 14.551 2.6532 4.276-1.0271 7.3987-4.1397 8.4132-7.4343.003.000198.0058.000607.0088.000805.29045-.88967.44766-1.8315.44766-2.7372-.30236-3.7944-3.3373-4.8469-5.9417-5.7784-1.7461-.58386-2.8906-1.0132-2.8173-2.2923.23662-1.1244 2.0169-1.749 4.0271-1.3831 1.4208.25858 3.276.80441 4.1453 1.4988l4.5329-5.7163c-2.3429-1.2763-5.4612-2.005-8.4847-1.9813z"/><path d="m133.88991 5.9384649-8.5969.00701-2.8984 9.2998001h-3.5259l-1.9216 6.6414h3.5208l-3.0534 10.524c-.27377 1.2802-.3855 2.1317-.30501 3.5889.0671 2.1221 1.1158 4.1956 4.1261 4.7751 1.8188.35016 4.4763.20342 6.3869-.53963l2.4802-.82564-.0521-6.9215s-.86343.37561-.99775.4296c-.36007.1331-.76976.21701-1.1628.28725-1.2024.09821-1.6034-.63188-1.6054-1.6224.0117-.37453.12624-.76914.21468-1.0332l2.58-8.6619 5.2434.01051 2.0022-6.6338h-5.1871z"/></g><g fill="#fff" stroke-width=".81264" transform="translate(-.00009 .062365)"><path d="m62.036.098226c-.64228-.038071-1.6145.20043-2.208.5245-.83669.45689-1.4281.79629-2.1956 1.5508l.37142-1.6744-4.2163.051033-3.6014 12.199 4.141.02382 1.7661-5.9614c.16671-.39284.53232-1.1824.77366-1.5499.48403-.73702 1.0473-1.0355 1.5897-1.2692.62831-.27077 1.365-.38171 2.0787-.18775.44108.15271.94802.27846 1.1833.5902l2.7382-3.5164c-.51769-.70113-2.4208-.78076-2.4208-.78076z"/><path d="m42.881.098226c-2.3237-.00934-4.9705 1.308-6.7153 3.664-2.4275 3.2779-2.325 7.2724.29564 8.7887.73705.42654 1.5906.62007 2.4907.60515 1.4949-.02476 3.1184-.62516 4.5509-1.689l-.3981 1.3522h4.2044l3.6813-12.285h-4.267l-.31118 1.0557c-.28075-.33267-.62175-.62117-1.0251-.85458-.73704-.42654-1.5969-.63315-2.5062-.63663zm.01051 3.6023c1.0205-.042859 1.8888.39647 2.1597 1.3644.39412 1.4079-.62492 3.4015-2.1766 4.0869-.53338.23559-1.0925.35922-1.6122.36284-.99199.00701-1.8415-.42367-2.1001-1.3476-.39412-1.4079.73326-3.4284 2.2849-4.1137.48488-.21415.98029-.33329 1.4442-.35275z"/><path d="m101.83.12261c-2.3237-.00934-4.9706 1.308-6.7153 3.664-2.4275 3.2779-2.325 7.2724.29564 8.7887.73705.42653 1.5906.62007 2.4907.60514 1.4949-.02476 3.1184-.62516 4.5509-1.689l-.3981 1.3522h4.2044l3.6812-12.285h-4.267l-.31117 1.0558c-.28076-.33269-.62175-.62118-1.0251-.85458-.73706-.42653-1.5969-.63315-2.5062-.63662zm.0105 3.6023c1.0205-.042859 1.8888.39647 2.1598 1.3644.39412 1.4079-.62492 3.4015-2.1766 4.0869-.53338.23557-1.0925.35921-1.6122.36283-.99199.00701-1.8415-.42367-2.1001-1.3476-.39412-1.4079.73326-3.4284 2.2849-4.1137.48488-.21415.98028-.33328 1.4442-.35275z"/><path d="m88.425.13074c-.64507.022072-1.75.39228-2.0556.51317-.33625.13301-1.2268.44689-1.9943 1.2015l.27758-1.3114-4.2162.0508-3.6014 12.2 4.141.02347 1.7659-5.9611c.1667-.39284.50574-1.3707.74707-1.7382.48403-.73702 1.0203-1.1429 1.5626-1.3766.6283-.27079 1.2977-.43585 2.0115-.24189.10788.041924.2233.11199.34015.19107.37278.14672.63847.73872.63873 1.4232-.000196.22039-.04795.43809-.10751.65512l-2.0636 6.9895 4.141.02394s1.4654-4.9338 1.8889-6.287c.27874-.95801.79288-1.9832.7641-3.4904-.13835-1.2721-.84571-1.9653-1.6764-2.3538-.78975-.41776-1.8395-.49997-2.5635-.51122z"/><path d="m72.348.00071398c-.23983-.0035-.483.0035-.7286.021021-4.0676.2992-7.9756 3.51200002-8.7285 7.17600002-.75334 3.6639 1.9331 6.3918 6.0005 6.0929 2.4304-.18032 4.8642-1.418 6.5696-3.2306l-2.7318-1.6374c-.26955.28239-.52062.51736-1.0931.90707-.60059.36332-1.1879.48059-2.0648.51778-.89764-.029312-1.4714-.33872-1.6915-.49973-.51092-.33887-.71984-1.3998-.45564-2.1535.0013-.00234.0026-.0035.0039-.00701l9.0349.00701v-.040756c.54283-1.1234.73429-2.8081.39386-4.1205-.41964-1.6176-2.0587-2.66370002-3.4271-2.92320002v-.00584c-.02973-.00467-.0608-.00701-.0907-.012145-.03457-.00584-.06791-.00934-.10204-.013897-.28947-.042041-.5848-.070652-.88821-.077309zm-1.1296 2.79430002c.85311.022539 1.5352.45225 1.7575 1.1217.06937.30442.08623.561.07391.9264l-4.6668.00701c.13612-.79036.81825-1.5251 1.7314-1.865.30381-.11316.6204-.17736.93104-.18896.05831-.00234.11614-.00234.17302-.0008174z"/></g><path d="m151.08564.45997425c1.52833-.415169 3.12817-.518695 4.7056-.432244 1.85919.100322 3.76534.464263 5.36625 1.45895995 1.69483 1.041658 2.84108 2.845349 3.26265 4.770708.25188.998965.19424 2.039556.16222 3.059868-.26148 2.4355158-1.13557 4.7685738-2.29356 6.9127228-1.02779 1.928562-2.33947 3.684224-3.63727 5.435618-2.51022 3.343764-5.13144 6.602147-7.76654 9.847721-.4632.584868-.97015 1.134511-1.39385 1.74926 1.13237.155821 2.27755.07791 3.4174.09605h6.71741c-.0886 1.349032-.41517 2.668184-.61261 4.004407-.18784.911452-.24548 1.852785-.51763 2.743956-6.02475.0012-12.0495 0-18.07426.0012-.88797-.0076-1.777.02227-2.66284-.0343.24654-1.662808.56245-3.314946.82927-4.974556.0555-.273222.0619-.574192.238-.805791 3.8742-5.134646 7.75907-10.263957 11.52334-15.480784 1.23377-1.734318 2.48675-3.462231 3.54121-5.315016.85595-1.541141 1.73112-3.160194 1.86666-4.9510768.0491-.737485.0534-1.632924-.5902-2.132408-.35327-.328721-.86022-.264685-1.30101-.261484-.76416-.01706-1.38958.574194-1.71937 1.215623-.53364 1.069409-.72575 2.264756-.92426 3.4312838-.21772 1.124905-.33726 2.27329-.62542 3.381118-1.79088-.0043-3.58177-.0021-5.37265-.0021-1.02565-.01601-2.05343.03842-3.07695-.04056.34687-2.162293.71081-4.3341938 1.37678-6.4260478.51977-1.644662 1.50699-3.105758 2.67459-4.36087 1.32021-1.391722 3.03426-2.39815995 4.88704-2.89123995z" fill="#fff" stroke-width=".106727"/></svg>