<svg height="199.257" viewBox="0 0 196.15169 52.719692" width="741.35272" xmlns="http://www.w3.org/2000/svg"><g fill="#0a50c2" stroke-width=".812642" transform="translate(0 .000105)"><path d="m78.300067 14.520288c-3.179607.03912-6.560114.870992-9.524919 2.426105-7.298515 3.827708-11.975024 12.866026-8.838218 18.847038 3.137006 5.981412 13.226026 6.641813 20.524041 2.814005 7.298515-3.827707 11.704023-12.975026 8.566817-18.956038-1.862604-3.551507-6.080312-5.18851-10.728021-5.13121zm-2.119405 7.325015c2.469205-.01518 4.322709 1.519903 4.458509 4.011708.167091 3.066906-2.657305 6.584813-5.973712 7.522815-3.316406.938032-6.140512-.461891-6.307512-3.528807-.167091-3.066906 2.711905-6.802314 6.028312-7.740416.621821-.17588 1.224602-.26189 1.794403-.2654z"/><path d="m49.111008 14.585288c-3.009406.04987-6.277612 1.258603-9.161718 3.400207l.801672-2.722505h-8.464417l-11.222023 37.457075h8.653817l4.373709-14.84903c.565181.669701 1.252103 1.250702 2.064004 1.720503 5.275611 3.053106 13.677028.504581 18.564037-6.094212 4.88681-6.598813 4.68011-14.640029-.595481-17.694035-1.483703-.858642-3.201706-1.248303-5.01371-1.218203zm-4.651709 7.331415c1.997104-.0139 3.707307.852862 4.228008 2.712805.793412 2.834206-1.476003 6.901714-4.599609 8.281617s-6.461913.797922-7.255314-2.036304c-.793412-2.834206 1.258402-6.847414 4.382108-8.227117 1.073703-.47425 2.198805-.723411 3.244907-.730701z"/><path d="m113.50014 14.544288c-1.38281.0146-2.79411.308101-4.01511.897392-1.7215.830852-3.60491 2.113804-4.93431 3.540507l1.1074-3.713107h-8.532716l-7.467815 24.888049h8.576617l4.004204-13.424026c.29546-.649262.72649-1.363403 1.18591-1.980904.92145-1.238303 2.0466-1.934204 3.1722-2.372705 1.30421-.508021 2.71591-.477141 3.95171-.16756.841.21071 1.6971.646391 2.25041 1.118402l5.80821-7.195315c-1.22021-1.062802-3.13371-1.610703-5.10741-1.589903z"/><path d="m18.882948 14.471288c-1.482603.01168-3.036306.284861-4.369509.681992-6.0945121 1.815403-9.7013193 6.652313-8.1719163 11.104022.1090302.352981.2810306.713251.4589909.989792.6717914 1.037702 1.8843038 1.907504 3.1429063 2.538105.8388021.350811 1.7072031.689531 2.5158051 1.044002 1.089302.493291 1.442903.950462 1.442903 1.539903.04032 1.360403-1.563403 2.522905-3.665607 2.186105-.8474222-.135751-1.4719034-.294671-2.9161063-1.239603-.481281-.314861-1.2200025-.907882-1.986304-1.574303l-5.3341107 5.899712c3.4227069 3.644407 9.8646198 3.778907 14.551029 2.653205 4.276009-1.027102 7.398715-4.139708 8.413217-7.434315.003.000198.0058.000607.0088.000805.290451-.889672.447661-1.831504.447661-2.737205-.302361-3.794408-3.337307-4.84691-5.941712-5.778412-1.746103-.583861-2.890606-1.013202-2.817306-2.292305.236621-1.124402 2.016904-1.749003 4.027108-1.383102 1.420803.25858 3.276007.804411 4.145309 1.498803l4.532909-5.716312c-2.342905-1.276302-5.461211-2.005004-8.484717-1.981304z"/><path d="m133.89018 5.9383711-8.59692.00701-2.8984 9.2998189h-3.52591l-1.92161 6.641413h3.52081l-3.0534 10.524021c-.27378 1.280203-.38551 2.131705-.30502 3.588907.0671 2.122105 1.11581 4.195609 4.12611 4.77511 1.81881.350161 4.47631.20342 6.38692-.539631l2.4802-.825642-.0521-6.921514s-.86343.375611-.99775.429601c-.36007.133101-.76976.217011-1.1628.287251-1.20241.09821-1.60341-.631881-1.60541-1.622403.0117-.374531.12624-.769142.21468-1.033202l2.58001-8.661918 5.24341.01051 2.0022-6.633813h-5.18711z"/></g><g fill="#fff" stroke-width=".812642" transform="translate(0 .000105)"><path d="m62.036034.16048548c-.642281-.03807108-1.614503.2004304-2.208004.52450105-.836692.45689087-1.428103.79629157-2.195605 1.55080307l.371421-1.67440332-4.216308.0510331-3.601408 12.19902462 4.141009.02382 1.766103-5.9614121c.166711-.3928408.532321-1.1824024.773662-1.5499031.484031-.7370215 1.047302-1.0355021 1.589703-1.2692025.628311-.2707706 1.365003-.3817108 2.078704-.1877504.441081.1527103.948022.2784605 1.183302.5902012l2.738206-3.51640706c-.517691-.70113141-2.420805-.78076156-2.420805-.78076156z"/><path d="m42.880996.16048548c-2.323705-.00934-4.97051 1.30800262-6.715314 3.66400732-2.427505 3.2779066-2.325004 7.2724142.295641 8.7887172.737051.426541 1.590603.620072 2.490705.605152 1.494903-.02476 3.118406-.625162 4.550909-1.689004l-.398101 1.352203h4.204409l3.681307-12.28502465h-4.267009l-.31118 1.05570215c-.280751-.3326707-.621751-.6211713-1.025102-.85458175-.737042-.42654085-1.596903-.63315127-2.506205-.63663127zm.01051 3.60230722c1.020502-.042859 1.888804.3964708 2.159704 1.3644027.394121 1.4079028-.624921 3.4015068-2.176604 4.0869082-.533381.2355905-1.092502.3592207-1.612203.3628407-.991992.00701-1.841504-.4236708-2.100105-1.3476027-.39412-1.4079028.733262-3.4284068 2.284905-4.1137082.484881-.2141504.980292-.3332907 1.444203-.3527507z"/><path d="m101.83011.18486953c-2.323701-.00934-4.970606 1.30800257-6.71531 3.66400737-2.427505 3.2779065-2.325004 7.2724141.295641 8.7887171.737051.426531 1.590603.620072 2.490705.605142 1.494903-.02476 3.118404-.625162 4.550904-1.689004l-.3981 1.352203h4.20441l3.68121-12.2850246h-4.26701l-.31117 1.0558021c-.28076-.3326907-.62175-.6211812-1.0251-.8545817-.73706-.42653085-1.5969-.63315127-2.50621-.63662127zm.0105 3.60230717c1.02051-.042859 1.88881.3964708 2.15981 1.3644028.39412 1.4079028-.62492 3.4015068-2.17661 4.0869081-.53338.2355705-1.0925.3592108-1.6122.3628308-.991992.00701-1.841503-.4236709-2.100104-1.3476027-.394121-1.4079029.733262-3.4284069 2.284904-4.1137083.48488-.2141504.98028-.3332806 1.4442-.3527507z"/><path d="m88.425087.19299954c-.645071.02207205-1.750004.39228079-2.055604.51317103-.336251.13301026-1.226803.44689093-1.994304 1.20150243l.27758-1.31140265-4.216208.0508001-3.601407 12.20002455 4.141008.02347 1.765903-5.961112c.166701-.3928408.505741-1.3707028.747072-1.7382035.484031-.7370215 1.020302-1.1429023 1.562603-1.3766028.628301-.2707905 1.297703-.4358508 2.011504-.2418904.10788.041924.223301.1119902.340151.1910703.372781.1467203.638471.7387215.638731 1.4232029-.000196.2203904-.04795.4380909-.10751.6551213l-2.063604 6.9895142 4.141008.02394s1.465403-4.93381 1.888904-6.2870127c.27874-.958012.792881-1.983204.764101-3.490407-.13835-1.2721026-.845711-1.965304-1.676403-2.35380474-.789752-.41776083-1.839504-.499971-2.563505-.51122102z"/><path d="m72.348055.06297326c-.239831-.0035-.483001.0035-.728602.02102104-4.067608.2992006-7.975616 3.512007-8.728517 7.1760144-.753342 3.6639073 1.933104 6.3918123 6.000512 6.0929123 2.430405-.18032 4.86421-1.418003 6.569613-3.230607l-2.731806-1.6374029c-.26955.2823906-.520621.5173611-1.093102.9070718-.600591.3633208-1.187902.480591-2.064804.5177811-.897642-.0293121-1.471403-.3387207-1.691503-.499731-.510921-.3388707-.719842-1.3998028-.455641-2.1535043.0013-.00234.0026-.0035.0039-.00701l9.034918.00701v-.0407561c.542831-1.1234023.734291-2.8081056.393861-4.1205083-.419641-1.6176032-2.058704-2.6637053-3.427107-2.92320582v-.00584c-.02973-.00467-.0608-.00701-.0907-.012145-.03457-.00584-.06791-.00934-.102041-.013897-.28947-.04204115-.584801-.07065221-.888211-.07730922zm-1.129603 2.79430564c.853112.022539 1.535204.4522509 1.757504 1.1217022.06937.3044206.08623.5610011.07391.9264019l-4.666809.00701c.13612-.7903616.818251-1.5251031 1.731403-1.8650037.303811-.1131603.620401-.1773604.931042-.1889604.05831-.00234.11614-.00234.17302-.0008174z"/></g><path d="m151.08594.45997483c1.52834-.41516983 3.12818-.51869604 4.70561-.43224487 1.8592.1003222 3.76535.46426393 5.36626 1.45896284 1.69484 1.0416601 2.84109 2.8453547 3.26266 4.7707176.25188.998967.19424 2.0395601.16222 3.0598741-.26148 2.4355205-1.13557 4.7685835-2.29356 6.9127365-1.0278 1.928566-2.33948 3.684231-3.63728 5.435629-2.51023 3.34377-5.13145 6.60216-7.76656 9.84774-.4632.58487-.97015 1.134514-1.39385 1.749264 1.13237.155821 2.27755.07791 3.41741.09605h6.71742c-.0886 1.349035-.41517 2.66819-.61261 4.004415-.18784.911454-.24548 1.852789-.51763 2.743962-6.02476.0012-12.04953 0-18.0743.0012-.88797-.0076-1.777.02227-2.66284-.0343.24654-1.662812.56245-3.314953.82927-4.974566.0555-.273223.0619-.574193.238-.805793 3.87421-5.134656 7.75908-10.263978 11.52336-15.480815 1.23377-1.734321 2.48676-3.462238 3.54122-5.315027.85595-1.541144 1.73112-3.1602 1.86666-4.951086.0491-.7374865.0534-1.6329273-.5902-2.1324123-.35327-.3287216-.86022-.2646855-1.30101-.2614845-.76416-.01706-1.38958.5741951-1.71937 1.2156254-.53365 1.0694112-.72576 2.2647606-.92427 3.4312904-.21772 1.124907-.33726 2.273294-.62542 3.381125-1.79088-.0043-3.58178-.0021-5.37266-.0021-1.02565-.01601-2.05343.03842-3.07695-.04056.34687-2.162298.71081-4.3342025 1.37678-6.4260607.51977-1.6446653 1.50699-3.1057642 2.67459-4.3608787 1.32022-1.3917248 3.03427-2.39816478 4.88705-2.89124577z" fill="#fff" stroke-width=".106727"/><g fill="#0a50c2" transform="translate(0 .000105)"><path d="m167.8297 21.889183 4.50813-.0021-2.04062 7.125061h4.96919l2.02567-7.120792h4.50599l-5.28296 18.431667-4.5124.0064 2.04915-7.167752-4.95424-.0021-2.07263 7.180559-4.48678-.01067 5.2915-18.440206z" fill="#0a50c2" stroke-width=".213453"/><path d="m184.14605 21.914797c1.75031-.06403 3.50489-.01708 5.25948-.02775 1.85277-.0064 3.77812.621148 5.05883 2.006458 1.43441 1.494171 1.8912 3.697006 1.60731 5.703464-.76203 5.504953-5.58607 10.237207-11.15079 10.713207-2.015.05763-4.03213.01921-6.04712.01921l5.27229-18.414592m3.32132 4.162334-2.87948 10.066444c3.43446.07471 6.29473-3.035302 6.60637-6.328882.0939-1.101417-.19637-2.339445-1.10782-3.04384-.73641-.591264-1.71189-.689453-2.61907-.693722z" fill="#0a50c2" stroke-width=".213453"/></g></svg>