<svg height="170.42" viewBox="0 0 158.75171 45.090451" width="600" xmlns="http://www.w3.org/2000/svg"><g fill="#0a50c2"><path d="m67.048 12.38c-2.7227.0335-5.6174.74583-8.1562 2.0774-6.2497 3.2777-10.254 11.017-7.5682 16.139 2.6863 5.1219 11.325 5.6874 17.575 2.4096 6.2497-3.2777 10.022-11.11 7.3358-16.232-1.5949-3.0411-5.2066-4.4429-9.1861-4.3939zm-1.8149 6.2725c2.1144-.013 3.7016 1.3015 3.8179 3.4352.14308 2.6262-2.2755 5.6386-5.1153 6.4418s-5.2581-.39552-5.4012-3.0217c-.14308-2.6262 2.3222-5.8249 5.1621-6.6281.53247-.15061 1.0486-.22426 1.5365-.22726z"/><path d="m42.054 12.436c-2.577.0427-5.3756 1.0778-7.8452 2.9116l.68647-2.3313h-7.2481l-9.6092 32.075h7.4103l3.7452-12.716c.48397.57347 1.0722 1.0709 1.7674 1.4733 4.5175 2.6144 11.711.43207 15.896-5.2185 4.1846-5.6506 4.0076-12.537-.50991-15.151-1.2705-.73526-2.7416-1.0689-4.2932-1.0432zm-3.9833 6.2779c1.7101-.0119 3.1746.73031 3.6205 2.323.6794 2.427-1.2639 5.9099-3.9387 7.0916-2.6748 1.1816-5.5334.68326-6.2128-1.7437-.6794-2.427 1.0776-5.8635 3.7524-7.0449.91945-.4061 1.8829-.61946 2.7786-.6257z"/><path d="m97.186 12.401c-1.1841.0125-2.3926.26383-3.4381.76844-1.4741.71146-3.0869 1.81-4.2253 3.0318l.94826-3.1796h-7.3066l-6.3947 21.312h7.3442l3.4288-11.495c.253-.55596.62209-1.1675 1.0155-1.6962.78904-1.0604 1.7525-1.6562 2.7164-2.0317 1.1168-.43502 2.3257-.40858 3.3839-.14348.72015.18043 1.4532.55351 1.9271.95765l4.9736-6.1613c-1.0448-.91006-2.6834-1.3793-4.3734-1.3615z"/></g><path d="m132.25.07706-11.672 6.3142-2.2323 7.7262 6.6741-3.5516-7.0547 23.726 7.7401-.022 10.233-34.139c-1.2297-.0181-2.4595-.0362-3.6892-.0543z" fill="#fff"/><path d="m16.169 12.338c-1.2695.01-2.6.24393-3.7416.58399-5.2188 1.5546-8.3072 5.6964-6.9976 9.5083.09336.30226.24064.61076.39304.84756.57526.88855 1.6136 1.6334 2.6913 2.1734.71827.3004 1.4619.59045 2.1543.89398.93274.42241 1.2356.81388 1.2356 1.3187.03453 1.1649-1.3387 2.1604-3.1389 1.872-.72565-.11624-1.2604-.25233-2.497-1.0615-.41212-.26962-1.0447-.77742-1.7009-1.3481l-4.5676 5.052c2.9308 3.1207 8.4471 3.2358 12.46 2.2719 3.6616-.87951 6.3356-3.5448 7.2043-6.366.0026.00017.005.00052.0075.00069.24872-.76183.38333-1.5683.38333-2.3439-.25891-3.2491-2.8577-4.1504-5.0879-4.948-1.4952-.49996-2.4752-.8676-2.4125-1.9629.20262-.9628 1.7271-1.4976 3.4484-1.1844 1.2166.22142 2.8052.68882 3.5496 1.2834l3.8815-4.8949c-2.0062-1.0929-4.6764-1.7169-7.2655-1.6966z" fill="#0a50c2"/><path d="m114.65 5.0316-7.3616.006-2.482 7.9635h-3.0192l-1.6455 5.687h3.0149l-2.6146 9.0115c-.23443 1.0962-.33011 1.8254-.26118 3.0732.0575 1.8172.95549 3.5927 3.5332 4.0889 1.5575.29984 3.8331.17419 5.4692-.46209l2.1238-.707-.0446-5.9269s-.73936.32164-.85438.36787c-.30833.11397-.65915.18583-.99572.24597-1.0296.0841-1.373-.54108-1.3747-1.3893.01-.32071.1081-.65862.18383-.88472l2.2092-7.4172 4.4899.009 1.7145-5.6806h-4.4418z" fill="#0a50c2"/><g fill="#fff"><path d="m53.122.08402c-.54998-.0326-1.3825.17163-1.8907.44913-.71646.39124-1.2229.68187-1.8801 1.328l.31805-1.4338-3.6104.0437-3.0839 10.446 3.5459.0204 1.5123-5.1048c.14275-.33639.45583-1.0125.66249-1.3272.41448-.63111.89683-.88667 1.3613-1.0868.53802-.23186 1.1688-.32686 1.78-.16077.3777.13077.8118.23845 1.0132.50539l2.3447-3.0111c-.4433-.60038-2.0729-.66857-2.0729-.66857z"/><path d="m36.719.08402c-1.9898-.008-4.2563 1.1201-5.7504 3.1375-2.0787 2.8069-1.9909 6.2274.25316 7.5258.63114.36525 1.362.53097 2.1328.51819 1.2801-.0212 2.6703-.53533 3.897-1.4463l-.3409 1.1579h3.6003l3.1523-10.52h-3.6539l-.26646.904c-.24041-.28487-.53241-.53191-.87776-.73178-.63114-.36525-1.3674-.54217-2.1461-.54515zm.009 3.0846c.87387-.0367 1.6174.3395 1.8494 1.1684.33749 1.2056-.53512 2.9128-1.8638 3.4996-.45673.20174-.93552.3076-1.3805.3107-.84944.006-1.5769-.36279-1.7983-1.154-.33749-1.2056.62789-2.9358 1.9566-3.5226.41521-.18338.83942-.2854 1.2367-.30206z"/><path d="m87.201.1049c-1.9898-.008-4.2563 1.1201-5.7504 3.1375-2.0787 2.8068-1.9909 6.2274.25316 7.5258.63114.36524 1.362.53097 2.1328.51818 1.2801-.0212 2.6703-.53533 3.897-1.4463l-.3409 1.1579h3.6003l3.1523-10.52h-3.6539l-.26646.90407c-.24042-.28488-.53241-.53192-.87777-.73178-.63114-.36524-1.3674-.54217-2.146-.54514zm.009 3.0846c.87387-.0367 1.6174.3395 1.8494 1.1684.33749 1.2056-.53512 2.9128-1.8638 3.4996-.45673.20172-.93552.30759-1.3805.31069-.84944.006-1.5769-.36279-1.7983-1.154-.33749-1.2056.62789-2.9358 1.9566-3.5226.41521-.18338.83942-.28539 1.2367-.30206z"/><path d="m75.719.11186c-.55238.0189-1.4985.33591-1.7603.43943-.28794.1139-1.0505.38267-1.7077 1.0288l.23769-1.123-3.6104.0435-3.0839 10.447 3.546.0201 1.5121-5.1045c.14275-.33639.43306-1.1737.63972-1.4884.41448-.63111.87366-.97866 1.3381-1.1788.53802-.23188 1.1112-.37322 1.7225-.20713.09238.0359.19121.0959.29128.16361.31922.12564.54673.63257.54694 1.2187-.000167.18872-.04106.37514-.09206.56098l-1.7671 5.9851 3.546.0205s1.2549-4.2249 1.6175-5.3836c.23868-.82035.67894-1.6982.6543-2.9889-.11847-1.0893-.72419-1.6829-1.4355-2.0156-.67627-.35773-1.5752-.42813-2.1952-.43776z"/><path d="m61.952.00051973c-.20537-.003-.4136.003-.62391.018-3.4831.25621-6.8295 3.0073-7.4743 6.1448-.64509 3.1374 1.6553 5.4733 5.1383 5.2174 2.0811-.15441 4.1652-1.2142 5.6256-2.7664l-2.3392-1.4021c-.23082.24181-.44581.44302-.93601.77673-.51429.31111-1.0172.41153-1.7681.44338-.76865-.0251-1.26-.29005-1.4484-.42792-.4375-.29018-.6164-1.1986-.39016-1.844.0011-.002.0022-.003.0033-.006l7.7366.006v-.0349c.46487-.96196.62882-2.4046.3373-3.5284-.35934-1.3852-1.7628-2.2809-2.9347-2.5032v-.005c-.02546-.004-.05206-.006-.07767-.0104-.0296-.005-.05815-.008-.08738-.0119-.24787-.036-.50077-.0605-.76058-.0662zm-.96732 2.3928c.73052.0193 1.3146.38726 1.5049.96051.0594.26068.07384.48039.06329.79328l-3.9962.006c.11656-.67679.70067-1.3059 1.4826-1.597.26016-.0969.53125-.15187.79725-.16181.04993-.002.09945-.002.14816-.0007z"/></g><path d="m148.44 18.658-4.5784 16.011 4.9733-.00035c3.7207-.0642 8.7695-3.4003 9.7356-8.6215 1.3049-7.0526-4.9822-7.3336-4.9822-7.3336zm3.1608 3.6984c1.1963-.0386 3.8532.70804 2.5825 4.6574-.75054 2.3326-3.4946 4.1786-5.387 3.9861l2.4809-8.6231c.0902-.012.19992-.0197.32367-.0204z" fill="#0a50c2" fill-rule="evenodd"/><path d="m134.32 18.658c-1.525 5.3222-3.1672 11.05-4.5855 15.992l.0662.019h3.8432l1.775-6.1904h4.2635l-1.775 6.1904h3.9148l4.5909-16.011h-3.9148l-1.7828 6.2174h-4.2636l1.7828-6.2174z" fill="#0a50c2"/></svg>