<svg height="102.17" width="600" xmlns="http://www.w3.org/2000/svg" xmlns:xlink="http://www.w3.org/1999/xlink"><linearGradient id="a" gradientUnits="userSpaceOnUse" x1="461.024359" x2="622.384359" y1="252.69088" y2="124.04088"><stop offset="0" stop-color="#535353"/><stop offset="1" stop-color="#bbbcbe"/></linearGradient><g transform="matrix(.90536862 0 0 .90536862 -2.881949 -80.344358)"><path d="m501.8 88.773h151.08c7.2103 0 13.015 5.8047 13.015 13.015v84.613c0 7.2103-5.8047 13.015-13.015 13.015h-151.08c-7.2103 0-13.015-5.8047-13.015-13.015v-84.613c0-7.2103 5.8047-13.015 13.015-13.015z" fill="url(#a)"/><path d="m511.25 106.29v76.491h19.511v-28.654h24.211v28.654h19.511v-76.491h-19.511v28.142h-24.211v-28.142z" fill="#fff" fill-rule="evenodd"/><path d="m585.51 106.29v76.491h22.748c24.501 0 43.009-10.067 43.009-39.498 0-29.181-18.615-36.993-43.009-36.993-5.9248.0647-22.748 0-22.748 0zm19.396 17.994s4.7324-.00001 6.6074 0c17.556 0 19.286 11.037 19.493 19.255.21289 8.438-1.9434 20.578-18.999 20.755-2.025.0212-7.1012 0-7.1012 0v-40.01z" fill="#fff" fill-rule="evenodd"/><g fill="#eb741b"><path d="m8.0657 147.31s.42961-39.668 61.864-39.811c25.49.14318 57.282 7.017 57.138 32.65v61.434h-45.109v-26.922c-.14324.28642-11.17 4.1529-19.619 6.7306-5.585 1.5752-10.024 4.869-10.597 10.597-.14323 4.869 5.4417 9.4514 5.2985 9.5947h-44.68c.28642-.14324-9.5946-3.7233-9.165-14.464.85922-20.192 16.468-27.638 55.277-32.078 20.908-2.5777 23.342-4.5825 23.485-9.5946-.14324-4.5826-2.7208-9.4514-14.32-9.5947-17.328 0-16.182 11.6-15.896 11.456h-43.677z"/><path d="m151.56 110.37v91.221h46.112v-43.677c.14318-7.8762 2.2913-11.456 5.2985-13.891 3.0073-3.4369 8.5923-5.8714 14.893-5.8714h12.888v-27.782c-.14318-.28642-6.8738-3.2937-16.325-1.8617-15.18 2.148-20.478 14.607-20.621 14.75v-12.888h-42.245z"/><path d="m241.77 110.37v27.782h18.76v36.947c.14319 8.449-.14323 14.893 5.7281 21.194 5.2986 5.2985 12.029 5.0121 20.192 5.2985h19.762v-63.439h27.352v-27.782h-27.352v-21.624h-45.682v21.624h-18.76z"/><path d="m404.17 155.05h21.481c0 .14319 2.0049-18.473-19.619-18.33-21.194-.28642-18.903 18.473-18.76 18.33h16.898v22.913h-15.896v23.629h-33.223c0-.14324-13.891-12.602-13.318-37.519.28641-56.852 61.721-55.849 63.726-55.563 76.9.57279 64.442 69.74 64.442 69.454h-65.731v-22.913z"/></g></g></svg>