<svg height="115.2" viewBox="0 0 425.4613 115.20449" width="425.46" xmlns="http://www.w3.org/2000/svg"><path d="m291.44 114.56c-.31-.57-51.99-113.22-52.39-114.18-.12351-.29868 6.616-.375 33.114-.375h33.269l4.439 12.825c4.6661 13.481 10.433 30.133 14.883 42.975 1.4579 4.2075 3.6774 10.615 4.9323 14.24 1.2549 3.6243 2.397 6.7052 2.5381 6.8462.24795.24793.85866-1.3568 4.2002-11.036.85443-2.475 6.3218-18.27 12.15-35.1l10.596-30.6 33.227-.0763c28.956-.0665 33.205-.0203 33.059.3596-.14049.36617-26.891 50.141-54.504 101.42l-7.1085 13.2-36.032.0762-36.032.0762-.34554-.64566zm-285.6-1.08c-4.9642-7.78-6.983-19.601-5.1955-30.432 2.6025-15.769 15.218-26.101 37.305-30.552 9.4919-1.913 13.241-2.2141 46.514-3.7359 26.223-1.1993 30.225-1.4696 33.562-2.2667 2.8832-.68865 4.4174-1.4169 5.7121-2.7116 1.2792-1.2792 1.7286-2.2326 2.1625-4.5872 1.403-7.6142-4.4059-12.481-16.91-14.169-5.02-.677-15.912-.683-20.642-.012-10.39 1.475-16.487 5.326-18.769 11.856l-.69254 1.982-29.413.0765c-27.874.0725-29.413.0489-29.411-.45.0012-.28956.39861-2.0803.88303-3.9795 3.8993-15.287 10.89-24.253 23.718-30.421 1.8955-.91139 5.1041-2.2014 7.1302-2.8666l3.6838-1.2095h48.591 48.591v21.297 21.297l13.575.0781 13.575.0781.17355 27.9c.16574 26.645.20258 28.081.81914 31.929.67279 4.1988 1.7175 8.245 2.7518 10.658.33304.77696.60553 1.469.60553 1.5378s-37.668.12513-83.707.12513h-83.707l-.9099-1.425zm93.264-11.45c13.432-2.0367 22.008-6.9669 25.878-14.877 1.8551-3.7912 2.1558-5.2926 2.3063-11.516l.13333-5.5149-.72664.18238c-4.1616 1.0445-15.645 2.4027-37.264 4.4074-7.7079.71474-13.889 1.4336-15.388 1.7898-4.9087 1.1658-7.5268 2.9504-9.1421 6.2314-.9473 1.9242-.98705 2.1472-.97406 5.4624.01125 2.8704.12937 3.7488.69679 5.1819 1.8965 4.7899 6.6387 7.8807 13.894 9.0558 3.9668.64244 15.133.42371 20.586-.40326zm80.458 11.448c-.84579-1.912-1.972-5.9545-2.5286-9.0764-.93341-5.2351-1.0636-9.9668-1.0666-38.775l-.003-29.025h-13.65-13.65v-18.301-18.301l42.066.076 42.066.076 8.2072 17.85c4.514 9.8175 8.2788 18.019 8.3663 18.225.12469.29403-1.4042.375-7.0813.375h-7.2403l.0858 25.275c.0964 28.375-.007 27.048 2.3179 29.689 2.6078 2.9626 5.2575 3.3782 20.178 3.1648l11.042-.15793-.079 10.089-.079 10.089-44.161.076-44.161.076-.63059-1.4256z" fill="#e52138"/></svg>