<svg height="4.223733" viewBox="0 0 20.149421 3.9597498" width="21.492714" xmlns="http://www.w3.org/2000/svg" xmlns:xlink="http://www.w3.org/1999/xlink"><clipPath id="a"><path d="m201.343 82.595h12.899v3.168h-12.899z"/></clipPath><g transform="translate(-316.33294 -546.54984)"><g clip-path="url(#a)" transform="matrix(1.25 0 0 -1.25 64.65419 653.75359)"><g transform="translate(201.3507 85.7632)"><path d="m0 0h12.891v-3.161c.001-.004-.001-.006-.004-.007h-12.895c.001.003.004.004.004.007v3.15c0 .005 0 .01.004.011" fill="#e50011"/></g><g transform="translate(204.4471 84.5667)"><path d="m0 0c .027-.054.107-.089.177-.094.081-.006.167.017.237.037v.162c-.055-.005-.09.021-.098.072-.015.098.011.284 0 .38h.075c-.002.061.005.133-.003.188-.009-.001-.047-.003-.068.004-.001.058.003.131-.004.173h-.353v-.177h-.072v-.188h.083c.02-.182-.038-.431.026-.557m-1.381.075c.001-.001.003-.005.004-.007.056-.101.207-.155.346-.162.155-.009.304.046.395.113v-.072h.346c-.002.265.005.54-.003.798h-.343c-.019-.198.053-.49-.079-.576-.09-.059-.243-.042-.305.038-.04.053-.045.15-.045.252v.286h-.342c-.004-.001-.004-.006-.004-.011.019-.22-.038-.499.03-.659m2.04-.94c.053-.07.18-.051.274-.027v.117c-.114-.02-.044.216-.064.308h.053c-.001.044.002.102-.004.128-.015.003-.04-.005-.049.004v.12h-.244v-.124h-.053c.002-.02 0-.097 0-.128.019-.002.048.006.06-.003.013-.13-.027-.325.027-.395m1.576-.019v.188c0 .061-.013.141.008.184.035.076.202.063.199-.049h.222c.024.166-.08.275-.23.264-.085-.007-.143-.056-.199-.087v.061h-.229c.002-.186-.005-.382.003-.561.049.001.154-.001.226 0m-2.735.365c-.015.148-.162.222-.313.214-.101-.005-.172-.041-.252-.075-.051.032-.121.065-.203.072-.112.008-.222-.024-.297-.061-.004.014.009.044-.008.046h-.21v-.558c.063-.009.16 0 .218-.003.016.115-.025.238.008.327.038.109.235.115.282.008.038-.087-.008-.23.015-.335.06.001.19-.004.233.003v.162c0 .053-.01.114.004.158.036.123.248.11.286.008.03-.081-.007-.216.007-.328.056-.008.166-.001.23-.003-.008.134.01.26 0 .365m3.506-.738h.042v.102c-.012.002-.033-.005-.038.004v.093c-.047.007-.163.006-.199 0v-.097h-.041c.001-.026-.003-.09.003-.102.014-.002.038.005.045-.003.018-.111-.032-.246.019-.317.043-.06.145-.041.222-.022.004.021.005.055.004.09-.093-.005-.044.164-.057.252m-2.761-.041c-.065.005-.228-.024-.226.049.001.039.082.054.139.037.02-.005.027-.022.045-.026.068-.016.157.012.218 0-.01.07-.07.095-.131.113-.137.04-.392.029-.452-.057-.029-.041-.026-.114-.007-.146.039-.067.131-.071.237-.083.04-.005.156-.009.158-.049.002-.05-.105-.05-.143-.037-.023.007-.035.028-.056.033-.034.009-.078 0-.113 0-.039 0-.075.003-.11-.003.041-.106.152-.144.309-.155.153-.01.343.029.343.173-.001.102-.11.143-.211.151m2.25.188c-.069-.006-.118-.047-.162-.072v.049h-.192c-.008-.133-.001-.314-.004-.466h.196v.154c0 .052-.011.112.004.151.026.07.171.057.169-.038.062.002.133-.005.188.004.012.143-.074.229-.199.218m-3.029-.102c-.021.009-.051.003-.06-.011-.003.01-.011.014-.027.011.001-.037-.001-.085 0-.12.001-.01-.006-.031.008-.034h.011c.016.047-.024.149.049.139.017-.032.003-.094.008-.139h.026c-.005.052.012.125-.015.154m-.147 0c-.018-.033.027-.148-.045-.139-.016.033-.003.095-.008.139h-.022c.002-.048-.004-.105.004-.146.018-.019.055-.011.071.004-.012-.012.006-.013.019-.012.006.02.004.058.004.09-.001.03.008.07-.023.064m1.866 1.118c.171.002.352.036.456.113.12.089.162.243.146.402-.014.145-.107.244-.191.294-.126.074-.309.097-.512.083-.064-.005-.122-.012-.181-.027-.115-.028-.21-.069-.271-.143-.094-.113-.115-.335-.041-.481.094-.187.326-.245.594-.241m-.173.598c.029.022.062.032.109.038.058.007.143 0 .192-.03.083-.05.111-.194.042-.279-.072-.088-.297-.09-.373 0-.064.077-.039.22.03.271m-2.63-.482c-.005.04-.002.085-.004.129-.001.042-.002.085-.003.127-.002.089.002.179-.004.256-.02.245-.348.284-.606.267-.201-.012-.397-.047-.481-.176-.019-.029-.03-.074-.03-.117h.372c.016.015.028.034.053.045.106.046.344.052.342-.087-.28-.039-.639.015-.783-.154-.015-.018-.033-.051-.037-.067-.092-.357.486-.408.749-.279.029.015.05.04.075.053.012-.023.012-.058.034-.072h.353c-.005.022-.026.046-.03.075m-.594.087c-.096-.006-.206.004-.196.094.014.124.29.1.429.098.004-.132-.107-.184-.233-.192m2.239-.417c-.088-.006-.171-.016-.23-.042-.036-.015-.08-.046-.102-.071-.082-.098-.074-.297.004-.384.071-.08.209-.111.361-.109.174.002.325.04.384.15.06.11.042.266-.03.346-.065.073-.213.12-.387.11m.154-.388c-.044-.049-.171-.057-.23-.015-.052.036-.059.137-.015.188.018.02.038.03.079.038.082.014.165-.009.188-.072.015-.039.009-.104-.022-.139m1.241.388c-.16-.011-.302-.052-.357-.159-.044-.085-.037-.216.004-.293.061-.113.204-.154.372-.154.183 0 .344.04.407.154.044.08.041.22 0 .297-.023.043-.065.078-.098.098-.08.048-.204.064-.328.057m.166-.381c-.054-.075-.238-.057-.271.019-.042.099.026.172.098.185.076.012.146-.01.173-.046.031-.04.033-.111 0-.158m-1.994-.534c-.113.093-.107-.23 0-.128-.006-.018.009-.015.022-.015v.211h-.022zm-.03-.128c-.039.001-.05.124.011.124.029-.02.03-.124-.011-.124m1.396.241c-.043.002-.094-.001-.14-.019-.025-.01-.049-.034-.071-.041-.004.01.008.035-.008.034h-.176v-.584h.184v.166c.057-.039.105-.059.18-.064.159-.01.287.077.309.222.025.164-.111.276-.278.286m-.2-.305c-.036.089.029.163.109.173.077.011.159-.035.162-.116.006-.154-.221-.179-.271-.057m.873.301c-.142-.011-.238-.052-.278-.128-.053-.098-.021-.214.011-.263.086-.13.424-.148.568-.06.079.048.131.181.083.301-.046.115-.189.166-.384.15m.136-.335c-.047-.032-.154-.03-.192.015-.031.037-.024.109 0 .14.016.02.041.029.067.034.076.014.148-.012.162-.068.01-.038.001-.094-.037-.121" fill="#fff"/></g><g transform="translate(207.8486 85.6654)"><path d="m0 0c .003-.983-.005-2.037.004-2.988h6.306v2.999h-6.306c-.005 0-.004-.006-.004-.011" fill="#fff"/></g><g transform="translate(208.6277 84.3146)"><path d="m0 0c .018-.01.024-.026.034-.042.011-.017.017-.036.03-.049.058.02.111.045.169.064-.035.14-.148.221-.327.204-.091-.009-.174-.063-.218-.136-.088-.143-.073-.401.064-.511.037-.031.096-.055.154-.061.159-.014.284.06.327.177-.052.031-.107.058-.162.087-.024-.042-.037-.076-.075-.091-.175-.069-.209.265-.109.347.032.025.079.03.113.011m.843-.083-.211.004v.245h-.188c0 .008-.01-.002-.007-.008v-.677c.05-.002.145 0 .195 0v .271c.055-.003.165.004.214-.004v-.267h.192v.685h-.192c-.002-.082-.003-.249-.003-.249m.831.249c-.049 0-.13-.001-.191 0-.078-.233-.166-.454-.245-.685.065-.002.203-.004.203-.004l.042.124.203-.004.033-.116.207-.004s-.167.455-.244.689zm-.147-.414c.014.072.039.134.054.206.019-.067.037-.137.056-.206zm.998.414v-.358l-.256.358h-.162v-.685c.045 0 .147-.001.181 0-.002.124.004.273-.004.38.066-.098.133-.198.199-.29.023-.031.048-.064.076-.09.035 0 .114-.001.15 0v .685c-.06-.001-.184 0-.184 0m .846-.358c-.04.063-.08.125-.124.184-.045.06-.088.12-.135.174h-.158c-.001.004-.004.002-.008 0v-.685c.046-.001.138-.001.184 0 0 .128.002.264-.003.376.042-.066.089-.128.136-.192.046-.064.085-.133.138-.188.028.008.118.001.151.004v.685h-.184c.001-.12-.004-.245.003-.358m1.667-.162c-.1.003-.211-.005-.305.004.003.17-.005.351.004.516-.053.001-.124-.001-.188 0 0 .008-.011-.002-.008-.008v-.677c.151-.001.334 0 .497 0 .001.041-.001.112 0 .165m-1.057.109h.199v.162h-.203c.003.029-.005.068.004.091h.335v.158h-.523c-.009-.221-.001-.458-.004-.685h.534v.158h-.346c.003.037-.005.085.004.116" fill="#e50011"/></g></g><path d="m334.21932 549.49192v-.86689h-.88846v.86689h-.29066v-1.93304h.29066v.78185h.88846v-.78185h.29065v1.93304z" fill="#e50011" stroke-width=".126923"/><path d="m335.01132 547.55888v1.93304h.528c.50642 0 .94304-.28431.94304-.96716 0-.68157-.42266-.96588-.94304-.96588zm.29065.28177h.23735c.45819 0 .64731.27923.64731.68411 0 .40743-.18912.68539-.64731.68539h-.23735z" fill="#e50011" stroke-width=".126923"/></g></svg>