<?xml version="1.0" encoding="UTF-8"?>
<!-- Generator: Adobe Illustrator 19.1.0, SVG Export Plug-In . SVG Version: 6.00 Build 0)  -->
<svg id="logo_x5F_Barrandov_x5F_Krimi" width="1512.8" height="477.33" xmlns:cc="http://creativecommons.org/ns#" xmlns:dc="http://purl.org/dc/elements/1.1/" xmlns:rdf="http://www.w3.org/1999/02/22-rdf-syntax-ns#" space="preserve" version="1.1" viewBox="0 0 1512.8 477.33" xmlns="http://www.w3.org/2000/svg">
 <metadata id="metadata15">
  <rdf:RDF>
   <cc:Work rdf:about="">
    <dc:format>image/svg+xml</dc:format>
    <dc:type rdf:resource="http://purl.org/dc/dcmitype/StillImage"/>
    <dc:title/>
   </cc:Work>
  </rdf:RDF>
 </metadata>
 <link id="dark-mode" href="" rel="stylesheet" type="text/css"/>
 <style id="dark-mode-custom-style" type="text/css"/>
 <style id="style2" type="text/css">.st0{fill:#EC118B;}</style>
 <path id="path4" d="m1395.1 458.69c-11.87 0-19.35-8.77-19.35-21.04 0-12.24 7.48-21.03 19.35-21.03 11.99 0 19.43 8.79 19.43 21.03-0.01 12.27-7.44 21.04-19.43 21.04m0-60.61c-22.79 0-40.81 14.92-40.81 39.57 0 24.66 18.02 39.39 40.81 39.39 22.91 0 41.1-14.73 41.1-39.39 0-24.65-18.19-39.57-41.1-39.57m-71.8 38.41c0 8.13-1.52 12.74-4.86 16.56-3.26 3.65-7.91 4.97-12.44 4.97-6.06 0-10.84-2.65-13.6-6.94-2.48-3.65-3.93-8.3-3.93-14.26 0-7.44 1.88-12.73 5.02-16.06 3.15-3.47 7.87-5.3 13.62-5.3 7.14 0 11.57 1.98 16.19 5.14zm11.03-75.28c-5.85 0-11.02 4.78-11.02 10.56v30.29c-5.25-2.63-11.28-4.13-19.4-4.13-8.57 0-19.15 2.33-26.5 10.11-6.41 6.6-10.71 16.21-10.71 29.45 0 11.61 3.48 21.05 9.32 27.66 6.78 7.77 17.23 11.9 29.75 11.9 11.75 0 23.35-3.96 30.44-12.43 6-6.94 8.9-15.71 8.9-28.78v-64.06c0-5.79-4.93-10.57-10.78-10.57m-114.43 36.72c-13.42 0-24.51 4-30.95 12.1-4.34 5.44-6.63 12.55-6.63 22.33v34.11c0 5.79 4.75 10.58 10.9 10.58s10.9-4.79 10.9-10.58v-31.95c0-4.14 0.68-7.45 2.18-10.27 2.32-4.13 6.57-6.94 13.6-6.94 6.93 0 11.41 2.81 13.74 6.94 1.51 2.83 1.97 6.13 1.97 10.27v31.95c0 5.79 4.98 10.58 11.06 10.58 6.02 0 11.02-4.79 11.02-10.58v-34.11c0-9.78-2.31-16.89-6.87-22.33-6.28-8.11-17.32-12.1-30.92-12.1m-71.7 56.45c-5.09 3.15-10.74 4.82-16.38 4.82-5.96 0-9.96-1.52-13.24-5-3.17-3.3-5.29-8.43-5.29-16.03 0-5.82 1.48-10.42 3.98-14.26 2.84-4.27 7.42-6.78 13.39-6.78 4.64 0 9.26 1.33 12.57 5.13 3.14 3.64 4.98 9.6 4.98 17.88v14.24zm-17.54-56.3c-12.55 0-22.85 4.15-29.79 12.08-5.77 6.65-9.26 15.91-9.26 27.49 0 13.08 4.32 22.7 10.58 29.46 7.3 7.61 17.92 9.93 26.48 9.93 7.8 0 15.25-1.98 20.53-5.62 1.86 3.64 5.63 5.62 9.95 5.62 5.93 0 10.93-4.47 10.93-10.58v-26.98c0-13.25-3.02-21.84-8.96-28.97-7.11-8.45-18.72-12.43-30.46-12.43m-48.83 2.83c-3.79-1.8-8.91-2.99-15.24-2.99-13.86 0-24.8 3.8-31.1 11.92-4.32 5.45-6.62 12.59-6.62 22.35v34.08c0 5.97 4.79 10.6 10.94 10.6 6.13 0 10.93-4.63 10.93-10.6v-32.45c0-4.3 0.63-7.28 2.13-10.26 2.15-3.94 6.45-6.76 12.9-6.76 2.81 0 4.97 0.82 6.94 1.64 2.31 1.18 3.85 2.15 6.81 2.15 5.46 0 9.42-4.32 9.42-9.77 0-4.45-2.96-7.76-7.11-9.91m-63.87 0c-3.84-1.8-8.98-2.99-15.22-2.99-13.95 0-24.87 3.8-31.16 11.92-4.25 5.45-6.62 12.59-6.62 22.35v34.08c0 5.97 4.79 10.6 10.91 10.6s10.91-4.63 10.91-10.6v-32.45c0-4.3 0.72-7.28 2.2-10.26 2.15-3.94 6.46-6.76 12.93-6.76 2.8 0 4.93 0.82 6.94 1.64 2.3 1.18 3.77 2.15 6.8 2.15 5.4 0 9.4-4.32 9.4-9.77 0-4.45-2.94-7.76-7.09-9.91m-87.09 53.47c-5.08 3.15-10.73 4.82-16.36 4.82-5.99 0-9.98-1.52-13.27-5-3.16-3.3-5.27-8.43-5.27-16.03 0-5.82 1.47-10.42 3.98-14.26 2.81-4.27 7.39-6.78 13.36-6.78 4.65 0 9.28 1.33 12.56 5.13 3.18 3.64 4.99 9.6 4.99 17.88v14.24zm-17.55-56.3c-12.54 0-22.85 4.15-29.8 12.08-5.75 6.65-9.28 15.91-9.28 27.49 0 13.08 4.37 22.7 10.6 29.46 7.3 7.61 17.92 9.93 26.49 9.93 7.78 0 15.26-1.98 20.53-5.62 1.83 3.64 5.65 5.62 9.97 5.62 5.93 0 10.9-4.47 10.9-10.58v-26.98c0-13.25-3.01-21.84-8.95-28.97-7.08-8.45-18.71-12.43-30.46-12.43m-74.16 53c-2.82 4.29-7.64 6.94-13.56 6.94-4.6 0-9.26-1.32-12.59-4.97-3.28-3.82-4.8-8.43-4.8-16.56v-15.89c4.68-3.16 9.15-5.14 16.25-5.14 5.8 0 10.42 1.83 13.52 5.3 3.18 3.33 5.19 8.62 5.19 16.06 0 5.96-1.53 10.61-4.01 14.26m-11.58-53.15c-8.26 0-14.23 1.51-19.38 4.13v-30.29c0-5.78-5.11-10.56-10.94-10.56-5.95 0-10.93 4.78-10.93 10.56v64.06c0 13.08 3 21.84 8.95 28.78 7.16 8.47 18.74 12.43 30.52 12.43 12.54 0 22.99-4.13 29.79-11.9 5.74-6.62 9.26-16.05 9.26-27.66 0-13.24-3.64-22.84-10.1-29.45-7.29-7.77-18.54-10.1-27.17-10.1m676.34 0.16c-5.91 0-9.27 3.83-10.63 8.08l-15.34 47.39h-0.67l-15.43-46.54c-1.12-3.82-3.38-8.94-10.06-8.94-7.74 0-12.09 4.65-12.09 10.61 0 1.98 0.63 4.78 2.12 8.43l17.58 46.18c3.28 8.94 7.8 13.73 17.16 13.73 9.21 0 14.21-4.95 17.58-13.73l16.51-45.78c1.17-3.12 2.17-6.78 2.17-8.95-0.01-5.77-1.89-10.48-8.9-10.48" fill="#fff"/>
 <path id="path6" class="st0" d="m687.28 164.9-152.21 111.62 28.61 90.59-77.59-55.74-77.19 55.63 30.67-90.38-78.44-56.79 94.34-0.03s29.29-86.38 30.84-90.94c1.45 4.49 22.78 70.02 22.78 70.02 2.97 9.18 10.23 16.47 19.47 19.52 6.24 1.97 12.82 1.97 18.93-0.02 7.76-2.49 14.05-7.93 17.73-15.18 3.7-7.25 4.33-15.49 1.81-23.22l-51.66-158.89c-4.09-12.64-15.79-21.09-29-21.09h-0.04c-13.28 0-24.89 8.45-28.95 21.09 0 0-42.95 131.66-44.94 137.8-1.18 0-144.99 0.03-144.99 0.03-13.24 0.04-24.9 8.51-28.98 21.02-0.99 3.14-1.5 6.26-1.5 9.45 0 9.57 4.51 18.79 12.57 24.63 0 0 112.02 81.56 117.22 85.37-0.41 1.13-44.79 137.88-44.79 137.88-4.1 12.69 0.35 26.32 11.05 34.11 10.73 7.79 25.14 7.79 35.84-0.03l117.39-85.1 117.39 85.2c10.74 7.79 25.14 7.86 35.84 0.1 0 0 0.03-0.03 0.06-0.03 10.7-7.8 15.12-21.46 11-34.08l-44.72-137.94 117.26-85.23c8.23-5.92 12.57-15.25 12.57-24.7 0-6.2-1.87-12.48-5.79-17.91-9.89-13.58-29.01-16.65-42.58-6.76" fill="#ec118b"/>
 <path id="path8" class="st0" d="m879.74 208.95 42.64 55.76c2.62 3.61 4.59 7.54 4.59 12.79 0 11.81-10.5 20.99-21.65 20.99-7.22 0-12.79-3.28-17.06-9.18l-38.7-53.47-18.04 15.74v25.91c0 11.48-10.17 20.99-21.65 20.99-12.14 0-21.65-9.51-21.65-20.99v-186.95c0-11.81 9.51-21.32 21.65-21.32s21.65 9.51 21.65 21.32v111.52l57.4-54.78c3.94-3.61 8.53-5.25 13.45-5.25 12.14 0 20.01 10.17 20.01 20.01 0 5.25-1.97 10.5-5.58 13.78zm107.25-16.4c-2.95 5.9-4.26 11.81-4.26 20.34v64.29c0 11.81-9.51 20.99-21.65 20.99s-21.65-9.18-21.65-20.99v-67.58c0-19.35 4.59-33.46 13.12-44.28 12.46-16.07 34.11-23.62 61.66-23.62 12.46 0 22.63 2.3 30.18 5.9 8.2 4.26 14.1 10.82 14.1 19.68 0 10.82-7.87 19.35-18.7 19.35-5.9 0-8.86-1.97-13.45-4.26-3.94-1.64-8.2-3.28-13.78-3.28-12.78 0.01-21.31 5.58-25.57 13.46zm84.62-113.82c0-13.78 11.15-24.93 24.93-24.93s24.93 11.15 24.93 24.93-11.15 24.93-24.93 24.93-24.93-11.15-24.93-24.93zm24.93 63.3c12.14 0 21.65 9.51 21.65 20.99v114.48c0 11.48-10.17 20.99-21.65 20.99-12.14 0-21.65-9.51-21.65-20.99v-114.47c0-11.48 9.51-21 21.65-21zm144.97 73.15c0-19.35-6.89-33.78-26.57-33.78-11.81 0-19.02 5.25-22.96 13.45-2.62 5.58-3.61 12.14-3.61 20.34v61.99c0 11.81-10.17 21.32-21.65 21.32-12.14 0-21.65-9.51-21.65-21.32v-67.24c0-19.35 4.26-33.46 12.46-44.28 11.81-16.07 32.14-23.94 57.4-23.94 20.99 0 36.74 7.22 48.22 19.35 11.15-12.14 26.9-19.35 48.22-19.35 24.93 0 45.26 7.87 57.07 23.94 8.2 10.82 12.79 24.93 12.79 44.28v67.24c0 11.81-9.84 21.32-21.98 21.32-11.48 0-21.65-9.51-21.65-21.32v-61.99c0-8.2-0.98-14.76-3.28-20.34-3.94-8.2-11.48-13.45-22.96-13.45-18.7 0-26.57 14.43-26.57 33.78v61.99c0 11.81-10.17 21.32-21.65 21.32-12.14 0-21.65-9.51-21.65-21.32v-61.99zm163.35-136.45c0-13.78 11.15-24.93 24.93-24.93s24.93 11.15 24.93 24.93-11.15 24.93-24.93 24.93-24.93-11.15-24.93-24.93zm24.93 63.3c12.14 0 21.65 9.51 21.65 20.99v114.48c0 11.48-10.17 20.99-21.65 20.99-12.14 0-21.65-9.51-21.65-20.99v-114.47c0-11.48 9.51-21 21.65-21z" fill="#ec118b"/>
 <g id="g845" transform="translate(1347.1 1153.9)" fill="#fff">
  <g id="g859" transform="matrix(48.87 0 0 48.87 -1347 -1154.2)" fill="#fff" stroke-width=".051571">
   <path id="path2" d="m1.64 8.7h-0.92576l-0.22374 1.0696h-0.4931l0.50127-2.3936h0.49144l-0.19268 0.92422h0.92581l0.19433-0.92422h0.49146l-0.49966 2.3936h-0.49305z"/>
   <path id="path4-6" d="m2.92 7.38-0.5012 2.3936h0.84407c0.21228 0 0.36958-0.0119 0.4719-0.0356 0.18072-0.0438 0.32822-0.1114 0.44251-0.20269 0.14916-0.11759 0.27273-0.27592 0.37067-0.475 0.099-0.20063 0.14858-0.42962 0.14858-0.68749 0-0.11965-0.0126-0.22951-0.0376-0.33008-0.025-0.10108-0.061-0.19031-0.10779-0.26767-0.0457-0.0774-0.10063-0.14286-0.16489-0.19753-0.0631-0.0557-0.13388-0.0985-0.21223-0.12894-0.0773-0.0304-0.16545-0.0505-0.26447-0.0603-0.0501-5e-3 -0.16499-8e-3 -0.34462-8e-3zm0.40826 0.39506h0.28562c0.14482 0 0.2455 0.01 0.30213 0.0294 0.0805 0.0284 0.14802 0.0851 0.20243 0.17123 0.0555 0.0851 0.0833 0.21248 0.0833 0.38216 0 0.1996-0.0331 0.37237-0.0995 0.51936s-0.14812 0.26458-0.24498 0.35277c-0.0675 0.0609-0.14208 0.10263-0.22373 0.12584-0.0806 0.0217-0.21119 0.0325-0.39191 0.0325h-0.24983z"/>
  </g>
 </g>
</svg>
