<?xml version="1.0" encoding="UTF-8"?>
<!-- Created with Inkscape (http://www.inkscape.org/) -->
<svg id="svg88928" width="8.7658mm" height="2.7663mm" version="1.1" viewBox="0 0 31.06 9.8019" xmlns="http://www.w3.org/2000/svg" xmlns:cc="http://creativecommons.org/ns#" xmlns:dc="http://purl.org/dc/elements/1.1/" xmlns:rdf="http://www.w3.org/1999/02/22-rdf-syntax-ns#">
 <metadata id="metadata88933">
  <rdf:RDF>
   <cc:Work rdf:about="">
    <dc:format>image/svg+xml</dc:format>
    <dc:type rdf:resource="http://purl.org/dc/dcmitype/StillImage"/>
    <dc:title/>
   </cc:Work>
  </rdf:RDF>
 </metadata>
 <g id="layer1" transform="translate(-561.9 -370.73)">
  <g id="g4555" fill="#f0008c">
   <path id="path86534" d="m579.27 374.09c0.155 0 0.2875 0.14375 0.2875 0.3 0 0.16625-0.1325 0.29875-0.2875 0.29875h-0.50125v1.7288c0 0.20125-0.1725 0.36875-0.38 0.36875s-0.38-0.1675-0.38-0.36875v-1.7288h-0.19c-0.1625 0-0.295-0.1325-0.295-0.29875 0-0.15625 0.1325-0.3 0.295-0.3h0.19v-0.3225c0-0.50125 0.19-1.0088 0.8925-1.0088 0.21875 0 0.40875 0.0288 0.5875 0.0987 0.20125 0.08 0.33375 0.195 0.33375 0.38 0 0.1675-0.12625 0.2875-0.2875 0.2875-0.155 0-0.265-0.10375-0.46625-0.10375-0.21875 0-0.3 0.12125-0.3 0.40375v0.265z"/>
   <path id="path86538" d="m581.19 376.12v-0.50125c-0.34625 0.0112-0.795 0.0575-0.795 0.34 0 0.18375 0.17875 0.27125 0.39125 0.27125 0.1325 0 0.27125-0.0288 0.40375-0.11m0-1.0138v-0.0463c0-0.13875-0.0225-0.23625-0.0813-0.31125-0.0625-0.08-0.1725-0.115-0.31-0.115-0.30625 0-0.50125 0.17875-0.72625 0.17875-0.15625 0-0.27625-0.12125-0.27625-0.27625 0-0.17875 0.14375-0.28875 0.33375-0.36375 0.225-0.0863 0.495-0.12625 0.76-0.12625 0.26 0 0.605 0.0512 0.83 0.29875 0.14375 0.15625 0.23 0.36875 0.23 0.6975v1.3825c0 0.2025-0.1775 0.36875-0.38 0.36875-0.1325 0-0.25375-0.0625-0.31625-0.16125-0.23125 0.1325-0.455 0.16125-0.70875 0.16125-0.48375 0-0.87625-0.305-0.87625-0.8125 0-0.67375 0.755-0.8175 1.5212-0.875"/>
   <path id="path86542" d="m583.04 374.05c0.16125 0 0.3 0.10375 0.3575 0.2425 0.1725-0.15625 0.415-0.2425 0.6675-0.2425 0.32375 0 0.6225 0.11 0.825 0.38 0.20125-0.2475 0.50125-0.38 0.8525-0.38 0.2825 0 0.5475 0.075 0.7425 0.25875 0.17875 0.16125 0.28875 0.42625 0.28875 0.8075v1.3138c0 0.20125-0.17875 0.36875-0.38125 0.36875-0.2125 0-0.38-0.1675-0.38-0.36875v-1.1238c0-0.17875-0.0287-0.3575-0.115-0.4725-0.0637-0.0813-0.1675-0.14375-0.33375-0.14375-0.1725 0-0.29375 0.0863-0.36375 0.2075-0.08 0.1375-0.10375 0.33375-0.10375 0.55875v0.97375c0 0.20125-0.1775 0.36875-0.38 0.36875-0.2125 0-0.38-0.1675-0.38-0.36875v-1.1238c0-0.17875-0.0287-0.3575-0.115-0.4725-0.0638-0.0813-0.1675-0.14375-0.33375-0.14375-0.17375 0-0.28875 0.0863-0.36375 0.2075-0.075 0.1325-0.0975 0.3225-0.10375 0.54125v0.985c0 0.2075-0.17875 0.375-0.38 0.375-0.21375 0-0.38-0.1675-0.38-0.375v-1.9988c0-0.2075 0.16625-0.375 0.38-0.375"/>
   <path id="path86546" d="m587.85 374.04c0.21375 0 0.38 0.1675 0.38 0.36875v2.0112c0 0.20125-0.17875 0.36875-0.38 0.36875-0.21375 0-0.38-0.1675-0.38-0.36875v-2.0112c0-0.20125 0.16625-0.36875 0.38-0.36875m-0.4375-1.1125c0-0.24125 0.195-0.4375 0.4375-0.4375s0.4375 0.19625 0.4375 0.4375c0 0.2425-0.195 0.43875-0.4375 0.43875s-0.4375-0.19625-0.4375-0.43875"/>
   <path id="path86550" d="m588.98 373.13c0-0.2075 0.1725-0.36875 0.38-0.36875 0.21375 0 0.38 0.16125 0.38 0.36875v3.29c0 0.20125-0.1725 0.36875-0.38 0.36875s-0.38-0.1675-0.38-0.36875z"/>
   <path id="path86554" d="m592.96 374.45c0 0.10375-0.0462 0.20125-0.075 0.2825l-0.80625 2.1425c-0.32875 0.87-0.9275 1.205-1.4575 1.205-0.2075 0-0.36875-0.16125-0.36875-0.36375 0-0.20125 0.16125-0.3625 0.36875-0.3625 0.2875 0 0.49-0.13875 0.63375-0.4375l-0.9975-2.1788c-0.0338-0.0737-0.0913-0.19-0.0913-0.27625 0-0.23625 0.19-0.42625 0.42-0.42625 0.23625 0 0.3575 0.1675 0.40375 0.27625l0.63875 1.6138 0.50125-1.5388c0.07-0.22375 0.21875-0.35125 0.415-0.35125 0.23125 0 0.415 0.185 0.415 0.415"/>
  </g>
  <g id="g4564" fill="#fff">
   <path id="path86566" d="m575.96 374.11-3.115 2.2838 0.58625 1.8538-1.5888-1.14-1.5788 1.1375 0.6275-1.8488-1.605-1.1625h1.93s0.6-1.7675 0.63125-1.8612c0.03 0.0925 0.46625 1.4325 0.46625 1.4325 0.0612 0.1875 0.20875 0.3375 0.39875 0.4 0.1275 0.04 0.2625 0.04 0.3875 0 0.15875-0.0512 0.2875-0.1625 0.3625-0.31125s0.0888-0.3175 0.0363-0.475l-1.0562-3.2512c-0.0838-0.25875-0.32375-0.43125-0.59375-0.43125-0.2725 0-0.51 0.1725-0.5925 0.43125 0 0-0.87875 2.6938-0.92 2.82h-2.9675c-0.27 1e-3 -0.50875 0.17375-0.5925 0.43-0.02 0.065-0.0312 0.12875-0.0312 0.19375 0 0.19625 0.0925 0.385 0.2575 0.50375 0 0 2.2925 1.6688 2.3988 1.7475-9e-3 0.0225-0.91625 2.8212-0.91625 2.8212-0.0838 0.25875 6e-3 0.53875 0.22625 0.6975 0.21875 0.16 0.51375 0.16 0.7325 0l2.4025-1.7412 2.4025 1.7425c0.21875 0.16 0.51375 0.16125 0.7325 2e-3l1e-3 -1e-3c0.21875-0.15875 0.31-0.43875 0.225-0.6975l-0.91375-2.8225 2.3988-1.7438c0.16875-0.12125 0.2575-0.3125 0.2575-0.505 0-0.1275-0.0388-0.25625-0.11875-0.36625-0.2025-0.27875-0.59375-0.34125-0.87125-0.13875"/>
   <g id="g4531">
    <g id="g4558">
     <path id="path86558" d="m578.79 378.92c-0.16875 0-0.29125 0.0312-0.39625 0.085v-0.62c0-0.11875-0.105-0.21625-0.22375-0.21625-0.1225 0-0.22375 0.0975-0.22375 0.21625v1.31c0 0.26875 0.0613 0.4475 0.1825 0.59 0.14625 0.1725 0.38375 0.25375 0.625 0.25375 0.25625 0 0.47-0.0838 0.61-0.24375 0.1175-0.135 0.18875-0.3275 0.18875-0.56625 0-0.27-0.0738-0.46625-0.20625-0.6025-0.15-0.15875-0.38-0.20625-0.55625-0.20625m0.2375 1.0875c-0.0588 0.0875-0.15625 0.1425-0.27875 0.1425-0.0937 0-0.18875-0.0275-0.2575-0.1025-0.0663-0.0775-0.0975-0.1725-0.0975-0.33875v-0.325c0.095-0.065 0.1875-0.105 0.3325-0.105 0.11875 0 0.2125 0.0375 0.27625 0.10875 0.065 0.0675 0.10625 0.17625 0.10625 0.32875 0 0.12125-0.0312 0.21625-0.0812 0.29125m1.5175-1.0838c-0.2575 0-0.4675 0.085-0.61 0.24625-0.1175 0.13625-0.19 0.32625-0.19 0.5625 0 0.2675 0.0888 0.465 0.21625 0.60375 0.15 0.155 0.3675 0.2025 0.5425 0.2025 0.15875 0 0.3125-0.04 0.42-0.115 0.0375 0.075 0.11625 0.115 0.20375 0.115 0.12125 0 0.22375-0.0913 0.22375-0.21625v-0.5525c0-0.27125-0.0613-0.44625-0.18375-0.5925-0.145-0.1725-0.3825-0.25375-0.6225-0.25375m0.35875 1.1512c-0.10375 0.065-0.22 0.0987-0.335 0.0987-0.1225 0-0.20375-0.0312-0.27125-0.1025-0.065-0.0675-0.1075-0.1725-0.1075-0.3275 0-0.11875 0.03-0.21375 0.0813-0.2925 0.0575-0.0875 0.15125-0.13875 0.27375-0.13875 0.095 0 0.18875 0.0275 0.25625 0.105 0.065 0.075 0.1025 0.19625 0.1025 0.36625zm1.7825-1.0938c-0.0788-0.0375-0.18375-0.0613-0.3125-0.0613-0.285 0-0.50875 0.0775-0.6375 0.24375-0.0863 0.11125-0.135 0.2575-0.135 0.4575v0.6975c0 0.1225 0.0975 0.2175 0.22375 0.2175 0.125 0 0.2225-0.095 0.2225-0.2175v-0.66375c0-0.0888 0.015-0.14875 0.045-0.21 0.0438-0.0813 0.1325-0.13875 0.265-0.13875 0.0575 0 0.10125 0.0175 0.14125 0.0337 0.0475 0.0238 0.0775 0.0437 0.14 0.0437 0.11 0 0.1925-0.0875 0.1925-0.2 0-0.0913-0.0612-0.15875-0.145-0.2025m1.3062 0c-0.0775-0.0375-0.1825-0.0613-0.31125-0.0613-0.28375 0-0.5075 0.0775-0.6375 0.24375-0.0875 0.11125-0.135 0.2575-0.135 0.4575v0.6975c0 0.1225 0.0988 0.2175 0.22375 0.2175 0.12625 0 0.22375-0.095 0.22375-0.2175v-0.66375c0-0.0888 0.0125-0.14875 0.0437-0.21 0.0438-0.0813 0.1325-0.13875 0.26375-0.13875 0.0575 0 0.1025 0.0175 0.1425 0.0337 0.0475 0.0238 0.0788 0.0437 0.13875 0.0437 0.1125 0 0.19375-0.0875 0.19375-0.2 0-0.0913-0.0612-0.15875-0.14625-0.2025m1-0.0575c-0.2575 0-0.4675 0.085-0.61 0.24625-0.11875 0.13625-0.19 0.32625-0.19 0.5625 0 0.2675 0.0888 0.465 0.21625 0.60375 0.15 0.155 0.3675 0.2025 0.5425 0.2025 0.16 0 0.31125-0.04 0.42-0.115 0.0375 0.075 0.115 0.115 0.20375 0.115 0.12125 0 0.22375-0.0913 0.22375-0.21625v-0.5525c0-0.27125-0.0625-0.44625-0.18375-0.5925-0.145-0.1725-0.3825-0.25375-0.6225-0.25375m0.35875 1.1512c-0.105 0.065-0.22 0.0987-0.335 0.0987-0.1225 0-0.20375-0.0312-0.27125-0.1025-0.065-0.0675-0.10875-0.1725-0.10875-0.3275 0-0.11875 0.03-0.21375 0.0812-0.2925 0.0588-0.0875 0.1525-0.13875 0.275-0.13875 0.0937 0 0.18875 0.0275 0.25625 0.105 0.065 0.075 0.1025 0.19625 0.1025 0.36625zm1.4662-1.155c-0.27375 0-0.50125 0.0813-0.6325 0.2475-0.0888 0.11125-0.13625 0.25625-0.13625 0.4575v0.6975c0 0.11875 0.0975 0.21625 0.22375 0.21625 0.125 0 0.2225-0.0975 0.2225-0.21625v-0.65375c0-0.085 0.0137-0.1525 0.045-0.21 0.0475-0.085 0.13375-0.1425 0.2775-0.1425 0.1425 0 0.23375 0.0575 0.28125 0.1425 0.0312 0.0575 0.0412 0.125 0.0412 0.21v0.65375c0 0.11875 0.10125 0.21625 0.22625 0.21625 0.1225 0 0.225-0.0975 0.225-0.21625v-0.6975c0-0.20125-0.0475-0.34625-0.14125-0.4575-0.1275-0.16625-0.35375-0.2475-0.6325-0.2475m2.3425-0.75125c-0.12 0-0.22625 0.0975-0.22625 0.21625v0.62c-0.1075-0.0537-0.23-0.085-0.39625-0.085-0.17625 0-0.3925 0.0475-0.5425 0.20625-0.13125 0.13625-0.22 0.3325-0.22 0.6025 0 0.23875 0.0712 0.43125 0.19125 0.56625 0.13875 0.16 0.3525 0.24375 0.60875 0.24375 0.24125 0 0.4775-0.0813 0.62375-0.25375 0.1225-0.1425 0.18125-0.32125 0.18125-0.59v-1.31c0-0.11875-0.10125-0.21625-0.22-0.21625m-0.22625 1.54c0 0.16625-0.0312 0.26125-0.0987 0.33875-0.0675 0.075-0.1625 0.1025-0.255 0.1025-0.12375 0-0.2225-0.055-0.27875-0.1425-0.05-0.075-0.08-0.17-0.08-0.29125 0-0.1525 0.0388-0.26125 0.1025-0.32875 0.065-0.0713 0.16125-0.10875 0.27875-0.10875 0.14625 0 0.23625 0.04 0.33125 0.105zm1.4688-0.785c-0.46625 0-0.835 0.305-0.835 0.80875 0 0.505 0.36875 0.80625 0.835 0.80625 0.47 0 0.84125-0.30125 0.84125-0.80625 0-0.50375-0.37125-0.80875-0.84125-0.80875m0 1.24c-0.2425 0-0.395-0.18-0.395-0.43125 0-0.25 0.1525-0.43 0.395-0.43 0.24625 0 0.3975 0.18 0.3975 0.43 0 0.25125-0.15125 0.43125-0.3975 0.43125"/>
     <path id="path86562" d="m592.63 378.92c-0.12125 0-0.19 0.0788-0.2175 0.165l-0.31375 0.97h-0.0137l-0.31625-0.9525c-0.0225-0.0775-0.0687-0.1825-0.205-0.1825-0.15875 0-0.2475 0.095-0.2475 0.2175 0 0.04 0.0125 0.0975 0.0425 0.1725l0.36 0.945c0.0675 0.1825 0.16 0.28 0.35125 0.28 0.18875 0 0.29125-0.10125 0.36-0.28l0.3375-0.9375c0.0237-0.0637 0.045-0.13875 0.045-0.1825 0-0.11875-0.0387-0.215-0.1825-0.215"/>
    </g>
    <path id="path2" d="m563.54 379.43h-0.92576l-0.22374 1.0696h-0.4931l0.50127-2.3936h0.49144l-0.19268 0.92422h0.92581l0.19433-0.92422h0.49146l-0.49966 2.3936h-0.49305z" stroke-width=".051571"/>
    <path id="path4" d="m564.82 378.11-0.5012 2.3936h0.84407c0.21228 0 0.36958-0.0119 0.4719-0.0356 0.18072-0.0438 0.32822-0.1114 0.44251-0.20269 0.14916-0.11759 0.27273-0.27592 0.37067-0.475 0.099-0.20063 0.14858-0.42962 0.14858-0.68749 0-0.11965-0.0126-0.22951-0.0376-0.33008-0.025-0.10108-0.061-0.19031-0.10779-0.26767-0.0457-0.0774-0.10063-0.14286-0.16489-0.19753-0.0631-0.0557-0.13388-0.0985-0.21223-0.12894-0.0773-0.0304-0.16545-0.0505-0.26447-0.0603-0.0501-5e-3 -0.16499-8e-3 -0.34462-8e-3zm0.40826 0.39506h0.28562c0.14482 0 0.2455 0.01 0.30213 0.0294 0.0805 0.0284 0.14802 0.0851 0.20243 0.17123 0.0555 0.0851 0.0833 0.21248 0.0833 0.38216 0 0.1996-0.0331 0.37237-0.0995 0.51936s-0.14812 0.26458-0.24498 0.35277c-0.0675 0.0609-0.14208 0.10263-0.22373 0.12584-0.0806 0.0217-0.21119 0.0325-0.39191 0.0325h-0.24983z" stroke-width=".051571"/>
   </g>
  </g>
 </g>
</svg>
