<svg height="2.766308mm" viewBox="0 0 31.059878 9.8018798" width="8.765788mm" xmlns="http://www.w3.org/2000/svg"><g transform="translate(-561.90174 -370.73465)"><g fill="#f0008c"><path d="m579.26737 374.09303c.155 0 .2875.14375.2875.3 0 .16625-.1325.29875-.2875.29875h-.50125v1.72875c0 .20125-.1725.36875-.38.36875s-.38-.1675-.38-.36875v-1.72875h-.19c-.1625 0-.295-.1325-.295-.29875 0-.15625.1325-.3.295-.3h.19v-.3225c0-.50125.19-1.00875.8925-1.00875.21875 0 .40875.0288.5875.0987.20125.08.33375.195.33375.38 0 .1675-.12625.2875-.2875.2875-.155 0-.265-.10375-.46625-.10375-.21875 0-.3.12125-.3.40375v.265z"/><path d="m581.1915 376.11528v-.50125c-.34625.0112-.795.0575-.795.34 0 .18375.17875.27125.39125.27125.1325 0 .27125-.0288.40375-.11m0-1.01375v-.0463c0-.13875-.0225-.23625-.0813-.31125-.0625-.08-.1725-.115-.31-.115-.30625 0-.50125.17875-.72625.17875-.15625 0-.27625-.12125-.27625-.27625 0-.17875.14375-.28875.33375-.36375.225-.0863.495-.12625.76-.12625.26 0 .605.0512.83.29875.14375.15625.23.36875.23.6975v1.3825c0 .2025-.1775.36875-.38.36875-.1325 0-.25375-.0625-.31625-.16125-.23125.1325-.455.16125-.70875.16125-.48375 0-.87625-.305-.87625-.8125 0-.67375.755-.8175 1.52125-.875"/><path d="m583.03512 374.04703c.16125 0 .3.10375.3575.2425.1725-.15625.415-.2425.6675-.2425.32375 0 .6225.11.825.38.20125-.2475.50125-.38.8525-.38.2825 0 .5475.075.7425.25875.17875.16125.28875.42625.28875.8075v1.31375c0 .20125-.17875.36875-.38125.36875-.2125 0-.38-.1675-.38-.36875v-1.12375c0-.17875-.0287-.3575-.115-.4725-.0637-.0813-.1675-.14375-.33375-.14375-.1725 0-.29375.0863-.36375.2075-.08.1375-.10375.33375-.10375.55875v.97375c0 .20125-.1775.36875-.38.36875-.2125 0-.38-.1675-.38-.36875v-1.12375c0-.17875-.0287-.3575-.115-.4725-.0638-.0813-.1675-.14375-.33375-.14375-.17375 0-.28875.0863-.36375.2075-.075.1325-.0975.3225-.10375.54125v.985c0 .2075-.17875.375-.38.375-.21375 0-.38-.1675-.38-.375v-1.99875c0-.2075.16625-.375.38-.375"/><path d="m587.85149 374.04128c.21375 0 .38.1675.38.36875v2.01125c0 .20125-.17875.36875-.38.36875-.21375 0-.38-.1675-.38-.36875v-2.01125c0-.20125.16625-.36875.38-.36875m-.4375-1.1125c0-.24125.195-.4375.4375-.4375s.4375.19625.4375.4375c0 .2425-.195.43875-.4375.43875s-.4375-.19625-.4375-.43875"/><path d="m588.98062 373.13103c0-.2075.1725-.36875.38-.36875.21375 0 .38.16125.38.36875v3.29c0 .20125-.1725.36875-.38.36875s-.38-.1675-.38-.36875z"/><path d="m592.96162 374.45028c0 .10375-.0462.20125-.075.2825l-.80625 2.1425c-.32875.87-.9275 1.205-1.4575 1.205-.2075 0-.36875-.16125-.36875-.36375 0-.20125.16125-.3625.36875-.3625.2875 0 .49-.13875.63375-.4375l-.9975-2.17875c-.0338-.0737-.0913-.19-.0913-.27625 0-.23625.19-.42625.42-.42625.23625 0 .3575.1675.40375.27625l.63875 1.61375.50125-1.53875c.07-.22375.21875-.35125.415-.35125.23125 0 .415.185.415.415"/></g><g fill="#fff"><path d="m575.95587 374.1084-3.115 2.28375.58625 1.85375-1.58875-1.14-1.57875 1.1375.6275-1.84875-1.605-1.1625h1.93s.6-1.7675.63125-1.86125c.03.0925.46625 1.4325.46625 1.4325.0612.1875.20875.3375.39875.4.1275.04.2625.04.3875 0 .15875-.0512.2875-.1625.3625-.31125s.0888-.3175.0363-.475l-1.05625-3.25125c-.0838-.25875-.32375-.43125-.59375-.43125-.2725 0-.51.1725-.5925.43125 0 0-.87875 2.69375-.92 2.82-.0238 0-2.9675 0-2.9675 0-.27.001-.50875.17375-.5925.43-.02.065-.0312.12875-.0312.19375 0 .19625.0925.385.2575.50375 0 0 2.2925 1.66875 2.39875 1.7475-.009.0225-.91625 2.82125-.91625 2.82125-.0838.25875.006.53875.22625.6975.21875.16.51375.16.7325 0l2.4025-1.74125 2.4025 1.7425c.21875.16.51375.16125.7325.002 0 0 .001-.001.001-.001.21875-.15875.31-.43875.225-.6975l-.91375-2.8225 2.39875-1.74375c.16875-.12125.2575-.3125.2575-.505 0-.1275-.0388-.25625-.11875-.36625-.2025-.27875-.59375-.34125-.87125-.13875" fill="#fff"/><g fill="#fff"><g><path d="m578.79162 378.91778c-.16875 0-.29125.0312-.39625.085v-.62c0-.11875-.105-.21625-.22375-.21625-.1225 0-.22375.0975-.22375.21625v1.31c0 .26875.0613.4475.1825.59.14625.1725.38375.25375.625.25375.25625 0 .47-.0838.61-.24375.1175-.135.18875-.3275.18875-.56625 0-.27-.0738-.46625-.20625-.6025-.15-.15875-.38-.20625-.55625-.20625m.2375 1.0875c-.0588.0875-.15625.1425-.27875.1425-.0937 0-.18875-.0275-.2575-.1025-.0663-.0775-.0975-.1725-.0975-.33875v-.325c.095-.065.1875-.105.3325-.105.11875 0 .2125.0375.27625.10875.065.0675.10625.17625.10625.32875 0 .12125-.0312.21625-.0812.29125m1.5175-1.08375c-.2575 0-.4675.085-.61.24625-.1175.13625-.19.32625-.19.5625 0 .2675.0888.465.21625.60375.15.155.3675.2025.5425.2025.15875 0 .3125-.04.42-.115.0375.075.11625.115.20375.115.12125 0 .22375-.0913.22375-.21625v-.5525c0-.27125-.0613-.44625-.18375-.5925-.145-.1725-.3825-.25375-.6225-.25375m.35875 1.15125c-.10375.065-.22.0987-.335.0987-.1225 0-.20375-.0312-.27125-.1025-.065-.0675-.1075-.1725-.1075-.3275 0-.11875.03-.21375.0813-.2925.0575-.0875.15125-.13875.27375-.13875.095 0 .18875.0275.25625.105.065.075.1025.19625.1025.36625zm1.7825-1.09375c-.0788-.0375-.18375-.0613-.3125-.0613-.285 0-.50875.0775-.6375.24375-.0863.11125-.135.2575-.135.4575v.6975c0 .1225.0975.2175.22375.2175.125 0 .2225-.095.2225-.2175v-.66375c0-.0888.015-.14875.045-.21.0438-.0813.1325-.13875.265-.13875.0575 0 .10125.0175.14125.0337.0475.0238.0775.0437.14.0437.11 0 .1925-.0875.1925-.2 0-.0913-.0612-.15875-.145-.2025m1.30625 0c-.0775-.0375-.1825-.0613-.31125-.0613-.28375 0-.5075.0775-.6375.24375-.0875.11125-.135.2575-.135.4575v.6975c0 .1225.0988.2175.22375.2175.12625 0 .22375-.095.22375-.2175v-.66375c0-.0888.0125-.14875.0437-.21.0438-.0813.1325-.13875.26375-.13875.0575 0 .1025.0175.1425.0337.0475.0238.0788.0437.13875.0437.1125 0 .19375-.0875.19375-.2 0-.0913-.0612-.15875-.14625-.2025m1-.0575c-.2575 0-.4675.085-.61.24625-.11875.13625-.19.32625-.19.5625 0 .2675.0888.465.21625.60375.15.155.3675.2025.5425.2025.16 0 .31125-.04.42-.115.0375.075.115.115.20375.115.12125 0 .22375-.0913.22375-.21625v-.5525c0-.27125-.0625-.44625-.18375-.5925-.145-.1725-.3825-.25375-.6225-.25375m.35875 1.15125c-.105.065-.22.0987-.335.0987-.1225 0-.20375-.0312-.27125-.1025-.065-.0675-.10875-.1725-.10875-.3275 0-.11875.03-.21375.0812-.2925.0588-.0875.1525-.13875.275-.13875.0937 0 .18875.0275.25625.105.065.075.1025.19625.1025.36625zm1.46625-1.155c-.27375 0-.50125.0813-.6325.2475-.0888.11125-.13625.25625-.13625.4575v.6975c0 .11875.0975.21625.22375.21625.125 0 .2225-.0975.2225-.21625v-.65375c0-.085.0137-.1525.045-.21.0475-.085.13375-.1425.2775-.1425.1425 0 .23375.0575.28125.1425.0312.0575.0412.125.0412.21v.65375c0 .11875.10125.21625.22625.21625.1225 0 .225-.0975.225-.21625v-.6975c0-.20125-.0475-.34625-.14125-.4575-.1275-.16625-.35375-.2475-.6325-.2475m2.3425-.75125c-.12 0-.22625.0975-.22625.21625v.62c-.1075-.0537-.23-.085-.39625-.085-.17625 0-.3925.0475-.5425.20625-.13125.13625-.22.3325-.22.6025 0 .23875.0712.43125.19125.56625.13875.16.3525.24375.60875.24375.24125 0 .4775-.0813.62375-.25375.1225-.1425.18125-.32125.18125-.59v-1.31c0-.11875-.10125-.21625-.22-.21625m-.22625 1.54c0 .16625-.0312.26125-.0987.33875-.0675.075-.1625.1025-.255.1025-.12375 0-.2225-.055-.27875-.1425-.05-.075-.08-.17-.08-.29125 0-.1525.0388-.26125.1025-.32875.065-.0713.16125-.10875.27875-.10875.14625 0 .23625.04.33125.105zm1.46875-.785c-.46625 0-.835.305-.835.80875 0 .505.36875.80625.835.80625.47 0 .84125-.30125.84125-.80625 0-.50375-.37125-.80875-.84125-.80875m0 1.24c-.2425 0-.395-.18-.395-.43125 0-.25.1525-.43.395-.43.24625 0 .3975.18.3975.43 0 .25125-.15125.43125-.3975.43125" fill="#fff"/><path d="m592.63149 378.92115c-.12125 0-.19.0788-.2175.165l-.31375.97h-.0137l-.31625-.9525c-.0225-.0775-.0687-.1825-.205-.1825-.15875 0-.2475.095-.2475.2175 0 .04.0125.0975.0425.1725l.36.945c.0675.1825.16.28.35125.28.18875 0 .29125-.10125.36-.28l.3375-.9375c.0237-.0637.045-.13875.045-.1825 0-.11875-.0387-.215-.1825-.215" fill="#fff"/></g><path d="m563.54434 379.43176h-.92576l-.22374 1.06965h-.4931l.50127-2.39357h.49144l-.19268.92422h.92581l.19433-.92422h.49146l-.49966 2.39357h-.49305z" stroke-width=".051571"/><path d="m564.81952 378.10784-.5012 2.39357h.84407c.21228 0 .36958-.0119.4719-.0356.18072-.0438.32822-.1114.44251-.20269.14916-.11759.27273-.27592.37067-.475.099-.20063.14858-.42962.14858-.68749 0-.11965-.0126-.22951-.0376-.33008-.025-.10108-.061-.19031-.10779-.26767-.0457-.0774-.10063-.14286-.16489-.19753-.0631-.0557-.13388-.0985-.21223-.12894-.0773-.0304-.16545-.0505-.26447-.0603-.0501-.005-.16499-.008-.34462-.008zm.40826.39506h.28562c.14482 0 .2455.01.30213.0294.0805.0284.14802.0851.20243.17123.0555.0851.0833.21248.0833.38216 0 .1996-.0331.37237-.0995.51936s-.14812.26458-.24498.35277c-.0675.0609-.14208.10263-.22373.12584-.0806.0217-.21119.0325-.39191.0325h-.24983z" stroke-width=".051571"/></g></g></g></svg>