<?xml version="1.0" encoding="UTF-8" standalone="no"?>
<!-- Created with Inkscape (http://www.inkscape.org/) -->

<svg
   xmlns:dc="http://purl.org/dc/elements/1.1/"
   xmlns:cc="http://creativecommons.org/ns#"
   xmlns:rdf="http://www.w3.org/1999/02/22-rdf-syntax-ns#"
   xmlns:svg="http://www.w3.org/2000/svg"
   xmlns="http://www.w3.org/2000/svg"
   xmlns:sodipodi="http://sodipodi.sourceforge.net/DTD/sodipodi-0.dtd"
   xmlns:inkscape="http://www.inkscape.org/namespaces/inkscape"
   version="1.0"
   width="927.97491"
   height="592.34698"
   id="svg2"
   inkscape:version="0.92.0 r15299"
   sodipodi:docname="BBC World News HD - Dark.svg"
   viewBox="0 0 869.97649 555.32526">
  <sodipodi:namedview
     pagecolor="#ffffff"
     bordercolor="#666666"
     borderopacity="1"
     objecttolerance="10"
     gridtolerance="10"
     guidetolerance="10"
     inkscape:pageopacity="0"
     inkscape:pageshadow="2"
     inkscape:window-width="1920"
     inkscape:window-height="1017"
     id="namedview31"
     showgrid="false"
     fit-margin-top="0"
     fit-margin-left="0"
     fit-margin-right="0"
     fit-margin-bottom="0"
     inkscape:zoom="0.5625"
     inkscape:cx="-80.125972"
     inkscape:cy="577.8108"
     inkscape:window-x="-8"
     inkscape:window-y="-8"
     inkscape:window-maximized="1"
     inkscape:current-layer="svg2" />
  <defs
     id="defs4">
    <clipPath
       id="clipPath2506">
      <path
         d="m 95.031,136.276 h 335.268 v 48.909 H 95.031 Z"
         inkscape:connector-curvature="0"
         id="path2508" />
    </clipPath>
    <clipPath
       id="clipPath2412">
      <path
         d="m 121.254,357.165 h 168 v 126 h -168 z"
         inkscape:connector-curvature="0"
         id="path2414" />
    </clipPath>
    <clipPath
       id="clipPath2398">
      <path
         d="M 0,0 H 841.89 V 595.276 H 0 Z"
         inkscape:connector-curvature="0"
         id="path2400" />
    </clipPath>
  </defs>
  <metadata
     id="metadata7">
    <rdf:RDF>
      <cc:Work
         rdf:about="">
        <dc:format>image/svg+xml</dc:format>
        <dc:type
           rdf:resource="http://purl.org/dc/dcmitype/StillImage" />
        <dc:title></dc:title>
      </cc:Work>
    </rdf:RDF>
  </metadata>
  <path
     style="fill:#c02519;fill-opacity:1;fill-rule:nonzero;stroke:none;stroke-width:6.0458703"
     id="path2418"
     inkscape:connector-curvature="0"
     d="M 215.41436,404.47478 H 235.7043 V 553.62034 H 217.33695 L 117.61637,438.74882 V 553.62034 H 97.55012 V 404.47478 h 17.29119 l 100.57305,115.83885 z" />
  <path
     style="fill:#c02519;fill-opacity:1;fill-rule:nonzero;stroke:none;stroke-width:6.0458703"
     id="path2420"
     inkscape:connector-curvature="0"
     d="m 274.18627,404.47478 h 84.55754 v 18.99611 h -63.20353 v 45.48309 h 61.06935 v 19.11098 h -61.06935 v 46.34159 h 65.22889 v 19.0022 h -86.5829 z" />
  <path
     style="fill:#c02519;fill-opacity:1;fill-rule:nonzero;stroke:none;stroke-width:6.0458703"
     id="path2422"
     inkscape:connector-curvature="0"
     d="m 586.63684,404.47478 h 21.29354 l -60.30755,149.79248 h -4.69159 l -48.766,-121.29227 -49.27385,121.29227 h -4.58272 L 380.19456,404.47478 h 21.51122 l 41.09981,102.81002 41.38398,-102.81002 h 20.18717 l 41.57137,102.81002 z" />
  <path
     style="fill:#c02519;fill-opacity:1;fill-rule:nonzero;stroke:none;stroke-width:6.0458703"
     id="path2424"
     inkscape:connector-curvature="0"
     d="m 665.78935,491.13022 -16.22711,-9.8608 c -10.18125,-6.21515 -17.42416,-12.32753 -21.72886,-18.34319 -4.30466,-6.01562 -6.46303,-12.93816 -6.46303,-20.76755 0,-11.74715 4.07492,-21.28144 12.23081,-28.60907 8.14379,-7.33363 18.73613,-11.00347 31.76501,-11.00347 12.44845,0 23.87514,3.50054 34.27404,10.48957 v 24.23789 c -10.74955,-10.33841 -22.32135,-15.50762 -34.70331,-15.50762 -6.97694,0 -12.70843,1.61423 -17.19443,4.8427 -4.48001,3.22247 -6.72906,7.35182 -6.72906,12.38802 0,4.46186 1.65657,8.65164 4.95762,12.54517 3.30709,3.90562 8.61536,7.99869 15.93689,12.27915 l 16.31178,9.65525 c 18.19199,10.87051 27.28501,24.70346 27.28501,41.49885 0,11.95874 -4.00239,21.67448 -12.00713,29.14717 -8.01078,7.47269 -18.42177,11.20301 -31.23296,11.20301 -14.72774,0 -28.14351,-4.51629 -40.24736,-13.57902 v -27.12181 c 11.52342,14.61288 24.87271,21.91627 40.03577,21.91627 6.69276,0 12.261,-1.86212 16.71077,-5.58639 4.44976,-3.72422 6.67466,-8.38558 6.67466,-13.99011 0,-9.07487 -6.55375,-17.68418 -19.64911,-25.83402" />
  <path
     style="fill:#c02519;fill-opacity:1;fill-rule:nonzero;stroke:none;stroke-width:6.0458703"
     id="path2426"
     inkscape:connector-curvature="0"
     d="m 206.44229,201.28516 h 21.2996 l -60.30151,149.79248 h -4.69764 L 113.97674,229.79749 64.70291,351.07764 H 60.12013 L 0,201.28516 h 21.5233 l 41.09982,102.82212 41.37794,-102.82212 h 20.18717 l 41.5714,102.82212 z" />
  <path
     style="fill:#c02519;fill-opacity:1;fill-rule:nonzero;stroke:none;stroke-width:6.0458703"
     id="path2428"
     inkscape:connector-curvature="0"
     d="m 311.77344,219.44091 c -17.07354,0 -31.09995,5.3385 -42.08531,16.00946 -10.99139,10.68306 -16.48103,24.31649 -16.48103,40.89427 0,16.08806 5.51383,29.47361 16.53545,40.15063 11.02163,10.67095 24.8183,16.00946 41.39002,16.00946 16.63219,0 30.51956,-5.44732 41.65605,-16.33594 11.1244,-10.88861 16.68659,-24.4495 16.68659,-40.67661 0,-15.80391 -5.56219,-29.09273 -16.68659,-39.87857 -11.13649,-10.78583 -24.8062,-16.1727 -41.01518,-16.1727 m -0.85852,-20.28994 c 23.04686,0 42.23646,7.29737 57.56273,21.8921 15.32626,14.58868 22.99849,32.88349 22.99849,54.87231 0,22.00092 -7.73871,40.19899 -23.21008,54.6184 -15.47139,14.4073 -34.97537,21.61398 -58.53007,21.61398 -22.46647,0 -41.19657,-7.20668 -56.16615,-21.61398 -14.97562,-14.41941 -22.46645,-32.47842 -22.46645,-54.18914 0,-22.27904 7.5392,-40.71289 22.6176,-55.30157 15.08445,-14.59473 34.14708,-21.8921 57.19393,-21.8921" />
  <path
     style="fill:#c02519;fill-opacity:1;fill-rule:nonzero;stroke:none;stroke-width:6.0458703"
     id="path2430"
     inkscape:connector-curvature="0"
     d="m 443.94826,219.44091 h -6.40259 v 47.08523 h 8.11355 c 10.81607,0 18.23437,-0.92501 22.26091,-2.78109 4.02049,-1.844 7.15228,-4.64323 9.39528,-8.37353 2.24301,-3.73635 3.36148,-7.99264 3.36148,-12.76888 0,-4.69159 -1.24544,-8.94184 -3.73632,-12.75679 -2.49088,-3.80889 -5.99751,-6.49326 -10.51376,-8.0531 -4.52234,-1.57193 -12.01922,-2.35184 -22.47855,-2.35184 M 416.19165,350.44283 V 201.28516 h 37.36349 c 15.09048,0 27.07342,3.73634 35.9306,11.20905 8.86324,7.47874 13.28881,17.58139 13.28881,30.32608 0,8.68792 -2.16438,16.19689 -6.50532,22.53295 -4.34699,6.33004 -10.57424,11.07 -18.68779,14.19571 4.77017,3.13781 9.43157,7.4062 13.9841,12.81725 4.55858,5.40501 10.96113,14.83051 19.21979,28.28257 5.19945,8.47632 9.36505,14.84867 12.49079,19.111 l 7.90196,10.68306 h -25.4108 l -6.50536,-9.82454 c -0.21746,-0.3567 -0.64087,-0.96735 -1.28173,-1.81981 l -4.1535,-5.87658 -6.61419,-10.89466 -7.14623,-11.64435 c -4.40138,-6.12446 -8.44001,-10.99744 -12.10985,-14.62496 -3.66984,-3.62148 -6.98903,-6.2333 -9.93942,-7.83544 -2.9625,-1.59007 -7.93216,-2.39418 -14.91519,-2.39418 h -5.55614 v 64.91452 z" />
  <path
     style="fill:#c02519;fill-opacity:1;fill-rule:nonzero;stroke:none;stroke-width:6.0458703"
     id="path2432"
     inkscape:connector-curvature="0"
     d="m 552.00006,201.28516 h 21.35402 V 331.0114 h 67.15148 v 19.43143 h -88.5055 z" />
  <path
     style="fill:#c02519;fill-opacity:1;fill-rule:nonzero;stroke:none;stroke-width:6.0458703"
     id="path2434"
     inkscape:connector-curvature="0"
     d="M 714.01125,220.29337 H 687.31872 V 331.223 h 27.32735 c 10.68305,0 18.97191,-0.7255 24.8848,-2.1886 5.90074,-1.45706 10.82812,-3.31313 14.78817,-5.55011 3.94191,-2.24906 7.55736,-4.99994 10.82817,-8.27679 10.5319,-10.67702 15.80388,-24.1593 15.80388,-40.46502 0,-16.0155 -5.41104,-29.07459 -16.22711,-39.17724 -3.9842,-3.77262 -8.56092,-6.87415 -13.71808,-9.29249 -5.16921,-2.41835 -10.06034,-4.02051 -14.6854,-4.80647 -4.62511,-0.77992 -12.06151,-1.17291 -22.30925,-1.17291 M 665.9647,350.22518 V 201.28516 h 50.2835 c 20.28993,0 36.33569,3.04712 48.16142,9.13531 11.81363,6.08214 21.20287,15.03004 28.1798,26.84971 6.97693,11.81363 10.46538,24.69738 10.46538,38.6452 0,9.96964 -1.9226,19.50398 -5.76774,28.6151 -3.84519,9.11718 -9.32275,17.12191 -16.43874,24.02025 -7.2611,7.12809 -15.70111,12.49681 -25.30798,16.12434 -5.62268,2.20674 -10.77983,3.68193 -15.48352,4.43162 -4.6976,0.74968 -13.66365,1.11849 -26.89807,1.11849 z" />
  <path
     style="fill:#c02519;fill-opacity:1;fill-rule:nonzero;stroke:none;stroke-width:6.0458703"
     id="path2436"
     inkscape:connector-curvature="0"
     d="m 421.17345,86.92148 c -0.0139,3.19222 -0.99151,6.40863 -3.84518,8.90557 -2.84758,2.50299 -7.77496,4.40744 -15.9369,4.40744 H 384.96473 V 73.89263 h 15.69511 c 7.32153,0 12.51493,1.48728 15.77364,3.80285 3.24665,2.33371 4.71578,5.39897 4.73997,9.226" />
  <path
     style="fill:#c02519;fill-opacity:1;fill-rule:nonzero;stroke:none;stroke-width:6.0458703"
     id="path2438"
     inkscape:connector-curvature="0"
     d="m 407.8665,55.38018 c 3.05922,-2.20071 4.53439,-5.32037 4.55254,-9.99383 -0.0139,-3.21036 -0.93108,-5.96122 -3.24057,-8.01078 -2.31558,-2.05559 -6.24539,-3.51265 -12.59356,-3.51265 h -11.62018 v 24.9634 h 7.97454 c 6.90435,0 11.84987,-1.22731 14.92723,-3.44614" />
  <path
     style="fill:#c02519;fill-opacity:1;fill-rule:nonzero;stroke:none;stroke-width:6.0458703"
     id="path2440"
     inkscape:connector-curvature="0"
     d="m 438.89393,88.85616 c 0.0416,-12.17638 -8.06522,-21.43261 -21.04571,-24.98758 3.50663,-1.78958 6.27563,-3.97819 8.30704,-6.64442 2.70857,-3.57915 4.00839,-7.9624 3.9903,-13.07721 0.0185,-6.27561 -2.45464,-12.67819 -7.75686,-17.47256 -5.30831,-4.78833 -13.36138,-7.88987 -24.3528,-7.88382 h -30.35628 v 96.52836 h 35.61016 0.0185 c 12.70843,0 21.63214,-3.44614 27.37569,-8.5549 5.74963,-5.08458 8.21637,-11.75922 8.21032,-17.90787 M 472.733,134.02485 H 330.31008 V 0 h 142.42256 z" />
  <path
     style="fill:#c02519;fill-opacity:1;fill-rule:nonzero;stroke:none;stroke-width:6.0458703"
     id="path2442"
     inkscape:connector-curvature="0"
     d="m 243.76344,55.38018 c 3.05317,-2.20071 4.53441,-5.32037 4.55859,-9.99383 -0.006,-3.21036 -0.93106,-5.96122 -3.24059,-8.01078 -2.32161,-2.05559 -6.25142,-3.51265 -12.60564,-3.51265 h -11.60806 v 24.9634 h 7.9745 c 6.89833,0 11.84385,-1.22731 14.9212,-3.44614" />
  <path
     style="fill:#c02519;fill-opacity:1;fill-rule:nonzero;stroke:none;stroke-width:6.0458703"
     id="path2444"
     inkscape:connector-curvature="0"
     d="m 252.33044,77.69548 c -3.25267,-2.31557 -8.45212,-3.80285 -15.76762,-3.80285 h -15.69508 v 26.34186 h 16.42662 c 8.16193,0 13.07722,-1.90445 15.93088,-4.40744 2.85364,-2.49694 3.83913,-5.71335 3.84516,-8.90557 -0.024,-3.82703 -1.49332,-6.89229 -4.73996,-9.226" />
  <path
     style="fill:#c02519;fill-opacity:1;fill-rule:nonzero;stroke:none;stroke-width:6.0458703"
     id="path2446"
     inkscape:connector-curvature="0"
     d="m 274.79689,88.85616 c 0.0425,-12.17638 -8.07727,-21.43261 -21.03962,-24.98758 3.49451,-1.78958 6.26352,-3.97819 8.28889,-6.64442 2.72064,-3.57915 4.00842,-7.9624 4.00236,-13.07721 0.006,-6.27561 -2.46067,-12.67819 -7.76289,-17.47256 -5.30223,-4.78833 -13.35533,-7.88987 -24.34672,-7.88382 h -30.36236 v 96.52836 h 35.60413 0.024 c 12.71447,0 21.63212,-3.44614 27.3757,-8.5549 5.74358,-5.08458 8.22843,-11.75922 8.21634,-17.90787 m 33.83873,45.16869 H 166.21912 V 0 h 142.41651 z" />
  <path
     style="fill:#c02519;fill-opacity:1;fill-rule:nonzero;stroke:none;stroke-width:6.0458703"
     id="path2448"
     inkscape:connector-curvature="0"
     d="m 608.5531,89.47888 -2.28533,1.3966 c -11.02767,6.7351 -23.02265,10.34448 -33.91734,10.33844 -23.32496,-0.0907 -38.68147,-13.91155 -38.7419,-34.02011 0.0231,-19.67931 16.06385,-34.24381 38.14942,-34.29218 11.25139,0.006 21.43865,2.9141 33.54854,9.55247 l 2.22486,1.22127 V 25.71309 l -0.95523,-0.37484 c -13.65159,-5.38688 -24.22579,-7.78708 -34.66702,-7.78104 -16.14853,-0.006 -30.15682,5.32642 -40.13854,14.37104 -9.97566,9.05066 -15.90669,21.82558 -15.8946,36.49891 0.005,10.22357 4.22003,22.20044 13.25257,31.71059 9.00229,9.51016 22.87758,16.43872 41.90393,16.43268 h 0.0665 c 15.77973,0 26.72277,-3.51265 36.61381,-8.39167 l 0.84035,-0.41113 z m 28.28262,44.54597 H 494.41917 V 0 h 142.41655 z" />
  <path
     d="m 758.51786,84.115891 15.05432,-13.899924 -0.0942,104.979763 -14.96009,-15.83177 v -29.77882 h -59.03934 v 45.72839 l -15.03077,-15.80822 v -75.3423 l 15.03077,-13.947043 v 45.422123 h 59.03934 z"
     id="path15603"
     style="fill:#c02519;fill-rule:nonzero;stroke:none;stroke-width:3.36559916;fill-opacity:1"
     inkscape:connector-curvature="0" />
  <path
     d="m 773.47795,175.14862 v 0 l 15.05432,-13.40519 h 19.13007 c 7.51538,0 13.35806,-0.49474 17.52804,-1.46067 4.19353,-1.06016 7.63318,-2.35591 10.41316,-3.91082 2.80354,-1.62559 5.32438,-3.60456 7.65674,-5.8898 7.42114,-7.51538 11.11994,-17.0333 11.11994,-28.53018 0,-11.28486 -3.81659,-20.47294 -11.42621,-27.56426 -2.80355,-2.662189 -6.03115,-4.876753 -9.70639,-6.573015 -3.60456,-1.719821 -7.0442,-2.827104 -10.31893,-3.368965 -3.22761,-0.541861 -8.45775,-0.824572 -15.71398,-0.824572 H 788.43803 L 773.52506,70.215967 h 35.29168 c 14.27687,0 25.60884,2.167446 33.90168,6.455219 8.33995,4.287773 14.96008,10.578078 19.88396,18.918033 4.87675,8.316391 7.37402,17.386681 7.37402,27.234431 0,6.99708 -1.38999,13.71145 -4.07574,20.14311 -2.73286,6.4081 -6.59657,12.0623 -11.59112,16.93906 -5.08879,5.01811 -11.04926,8.78758 -17.81075,11.33197 -3.95794,1.55491 -7.63318,2.61507 -10.90791,3.15693 -3.29828,0.5183 -9.63571,0.7539 -18.98871,0.7539 h -33.12422 33.12422 c 9.353,0 15.69043,-0.2356 18.98871,-0.7539 3.27473,-0.54186 6.94997,-1.60202 10.90791,-3.15693 6.76149,-2.54439 12.72196,-6.31386 17.81075,-11.33197 4.99455,-4.87676 8.85826,-10.53096 11.59112,-16.93906 2.68575,-6.43166 4.07574,-13.14603 4.07574,-20.14311 0,-9.84775 -2.49727,-18.91804 -7.37402,-27.234431 -4.92388,-8.339955 -11.54401,-14.63026 -19.88396,-18.918033 -8.29284,-4.287773 -19.62481,-6.455219 -33.90168,-6.455219 h -35.29168 l 14.91297,13.405181 h 18.77668 c 7.25623,0 12.48637,0.282711 15.71398,0.824572 3.27473,0.541861 6.71437,1.649144 10.31893,3.368965 3.67524,1.696262 6.90284,3.910826 9.70639,6.573015 7.60962,7.09132 11.42621,16.2794 11.42621,27.56426 0,11.49688 -3.6988,21.0148 -11.11994,28.53018 -2.33236,2.28524 -4.8532,4.26421 -7.65674,5.8898 -2.77998,1.55491 -6.21963,2.85066 -10.41316,3.91082 -4.16998,0.96593 -10.01266,1.46067 -17.52804,1.46067 h -19.13007 z"
     id="path15607"
     style="fill:#ffffff;fill-rule:nonzero;stroke:none;stroke-width:3.36559916"
     inkscape:connector-curvature="0" />
  <path
     d="m 773.47795,175.14862 15.05432,-13.40519 h 19.13007 c 7.51538,0 13.35806,-0.49474 17.52804,-1.46067 4.19353,-1.06016 7.63318,-2.35591 10.41316,-3.91082 2.80354,-1.62559 5.32438,-3.60456 7.65674,-5.8898 7.42114,-7.51538 11.11994,-17.0333 11.11994,-28.53018 0,-11.28486 -3.81659,-20.47294 -11.42621,-27.56426 -2.80355,-2.662189 -6.03115,-4.876753 -9.70639,-6.573015 -3.60456,-1.719821 -7.0442,-2.827104 -10.31893,-3.368965 -3.22761,-0.541861 -8.45775,-0.824572 -15.71398,-0.824572 H 788.43803 L 773.52506,70.215967 h 35.29168 c 14.27687,0 25.60884,2.167446 33.90168,6.455219 8.33995,4.287773 14.96008,10.578078 19.88396,18.918033 4.87675,8.316391 7.37402,17.386681 7.37402,27.234431 0,6.99708 -1.38999,13.71145 -4.07574,20.14311 -2.73286,6.4081 -6.59657,12.0623 -11.59112,16.93906 -5.08879,5.01811 -11.04926,8.78758 -17.81075,11.33197 -3.95794,1.55491 -7.63318,2.61507 -10.90791,3.15693 -3.29828,0.5183 -9.63571,0.7539 -18.98871,0.7539 z"
     id="path15611"
     style="fill:#c02519;fill-rule:nonzero;stroke:none;stroke-width:3.36559916;fill-opacity:1"
     inkscape:connector-curvature="0" />
  <path
     d="M 788.53227,83.715385 773.50151,70.215967 V 175.14862 l 15.03076,-13.40519 v -32.15829 -13.94705 z"
     id="path15615"
     style="fill:#ea8d86;fill-opacity:1;fill-rule:nonzero;stroke:none;stroke-width:3.36559916"
     inkscape:connector-curvature="0" />
  <path
     d="m 699.45496,129.58514 -0.0471,45.65771 15.05433,-13.54653 -0.0471,-32.11118 z"
     id="path15619"
     style="fill:#ea8d86;fill-opacity:1;fill-rule:nonzero;stroke:none;stroke-width:3.36559916"
     inkscape:connector-curvature="0" />
  <path
     d="M 714.81555,115.63809 714.53284,84.16301 699.47852,70.215967 v 45.422123 z"
     id="path15623"
     style="fill:#ea8d86;fill-opacity:1;fill-rule:nonzero;stroke:none;stroke-width:3.36559916"
     inkscape:connector-curvature="0" />
</svg>
