<?xml version="1.0" encoding="UTF-8" standalone="no"?>
<!-- Created with Inkscape (http://www.inkscape.org/) -->

<svg
   xmlns:dc="http://purl.org/dc/elements/1.1/"
   xmlns:cc="http://creativecommons.org/ns#"
   xmlns:rdf="http://www.w3.org/1999/02/22-rdf-syntax-ns#"
   xmlns:svg="http://www.w3.org/2000/svg"
   xmlns="http://www.w3.org/2000/svg"
   xmlns:sodipodi="http://sodipodi.sourceforge.net/DTD/sodipodi-0.dtd"
   xmlns:inkscape="http://www.inkscape.org/namespaces/inkscape"
   version="1.0"
   width="1083.42"
   height="812.565"
   id="svg2"
   inkscape:version="0.92.0 r15299"
   sodipodi:docname="BBC World News HD - Original.svg"
   viewBox="0 0 1015.7063 761.77964">
  <sodipodi:namedview
     pagecolor="#ffffff"
     bordercolor="#666666"
     borderopacity="1"
     objecttolerance="10"
     gridtolerance="10"
     guidetolerance="10"
     inkscape:pageopacity="0"
     inkscape:pageshadow="2"
     inkscape:window-width="1920"
     inkscape:window-height="1017"
     id="namedview31"
     showgrid="false"
     fit-margin-top="0"
     fit-margin-left="0"
     fit-margin-right="0"
     fit-margin-bottom="0"
     inkscape:zoom="0.39774756"
     inkscape:cx="125.02567"
     inkscape:cy="560.58695"
     inkscape:window-x="-8"
     inkscape:window-y="-8"
     inkscape:window-maximized="1"
     inkscape:current-layer="svg2" />
  <defs
     id="defs4">
    <clipPath
       id="clipPath2506">
      <path
         d="m 95.031,136.276 h 335.268 v 48.909 H 95.031 Z"
         inkscape:connector-curvature="0"
         id="path2508" />
    </clipPath>
    <clipPath
       id="clipPath2412">
      <path
         d="m 121.254,357.165 h 168 v 126 h -168 z"
         inkscape:connector-curvature="0"
         id="path2414" />
    </clipPath>
    <clipPath
       id="clipPath2398">
      <path
         d="M 0,0 H 841.89 V 595.276 H 0 Z"
         inkscape:connector-curvature="0"
         id="path2400" />
    </clipPath>
  </defs>
  <metadata
     id="metadata7">
    <rdf:RDF>
      <cc:Work
         rdf:about="">
        <dc:format>image/svg+xml</dc:format>
        <dc:type
           rdf:resource="http://purl.org/dc/dcmitype/StillImage" />
        <dc:title></dc:title>
      </cc:Work>
    </rdf:RDF>
  </metadata>
  <path
     style="fill:#c02519;fill-opacity:1;fill-rule:evenodd;stroke:none;stroke-width:6.0458703"
     id="path2416"
     inkscape:connector-curvature="0"
     d="M 0,0 H 1015.7062 V 761.77966 H 0 Z" />
  <path
     style="fill:#ffffff;fill-opacity:1;fill-rule:nonzero;stroke:none;stroke-width:6.0458703"
     id="path2418"
     inkscape:connector-curvature="0"
     d="m 321.73703,504.0684 h 20.28994 V 653.21396 H 323.65962 L 223.93904,538.34244 V 653.21396 H 203.87279 V 504.0684 h 17.29119 l 100.57305,115.83885 z" />
  <path
     style="fill:#ffffff;fill-opacity:1;fill-rule:nonzero;stroke:none;stroke-width:6.0458703"
     id="path2420"
     inkscape:connector-curvature="0"
     d="m 380.50894,504.0684 h 84.55754 v 18.99611 h -63.20353 v 45.48309 h 61.06935 v 19.11098 h -61.06935 v 46.34159 h 65.22889 v 19.0022 h -86.5829 z" />
  <path
     style="fill:#ffffff;fill-opacity:1;fill-rule:nonzero;stroke:none;stroke-width:6.0458703"
     id="path2422"
     inkscape:connector-curvature="0"
     d="m 692.95951,504.0684 h 21.29354 L 653.9455,653.86088 h -4.69159 l -48.766,-121.29227 -49.27385,121.29227 h -4.58272 L 486.51723,504.0684 h 21.51122 l 41.09981,102.81002 41.38398,-102.81002 h 20.18717 l 41.57137,102.81002 z" />
  <path
     style="fill:#ffffff;fill-opacity:1;fill-rule:nonzero;stroke:none;stroke-width:6.0458703"
     id="path2424"
     inkscape:connector-curvature="0"
     d="m 772.11202,590.72384 -16.22711,-9.8608 c -10.18125,-6.21515 -17.42416,-12.32753 -21.72886,-18.34319 -4.30466,-6.01562 -6.46303,-12.93816 -6.46303,-20.76755 0,-11.74715 4.07492,-21.28144 12.23081,-28.60907 8.14379,-7.33363 18.73613,-11.00347 31.76501,-11.00347 12.44845,0 23.87514,3.50054 34.27404,10.48957 v 24.23789 c -10.74955,-10.33841 -22.32135,-15.50762 -34.70331,-15.50762 -6.97694,0 -12.70843,1.61423 -17.19443,4.8427 -4.48001,3.22247 -6.72906,7.35182 -6.72906,12.38802 0,4.46186 1.65657,8.65164 4.95762,12.54517 3.30709,3.90562 8.61536,7.99869 15.93689,12.27915 l 16.31178,9.65525 c 18.19199,10.87051 27.28501,24.70346 27.28501,41.49885 0,11.95874 -4.00239,21.67448 -12.00713,29.14717 -8.01078,7.47269 -18.42177,11.20301 -31.23296,11.20301 -14.72774,0 -28.14351,-4.51629 -40.24736,-13.57902 v -27.12181 c 11.52342,14.61288 24.87271,21.91627 40.03577,21.91627 6.69276,0 12.261,-1.86212 16.71077,-5.58639 4.44976,-3.72422 6.67466,-8.38558 6.67466,-13.99011 0,-9.07487 -6.55375,-17.68418 -19.64911,-25.83402" />
  <path
     style="fill:#ffffff;fill-opacity:1;fill-rule:nonzero;stroke:none;stroke-width:6.0458703"
     id="path2426"
     inkscape:connector-curvature="0"
     d="m 312.76496,300.87878 h 21.2996 l -60.30151,149.79248 h -4.69764 l -48.766,-121.28015 -49.27383,121.28015 H 166.4428 L 106.32267,300.87878 h 21.5233 l 41.09982,102.82212 41.37794,-102.82212 h 20.18717 l 41.5714,102.82212 z" />
  <path
     style="fill:#ffffff;fill-opacity:1;fill-rule:nonzero;stroke:none;stroke-width:6.0458703"
     id="path2428"
     inkscape:connector-curvature="0"
     d="m 418.09611,319.03453 c -17.07354,0 -31.09995,5.3385 -42.08531,16.00946 -10.99139,10.68306 -16.48103,24.31649 -16.48103,40.89427 0,16.08806 5.51383,29.47361 16.53545,40.15063 11.02163,10.67095 24.8183,16.00946 41.39002,16.00946 16.63219,0 30.51956,-5.44732 41.65605,-16.33594 11.1244,-10.88861 16.68659,-24.4495 16.68659,-40.67661 0,-15.80391 -5.56219,-29.09273 -16.68659,-39.87857 -11.13649,-10.78583 -24.8062,-16.1727 -41.01518,-16.1727 m -0.85852,-20.28994 c 23.04686,0 42.23646,7.29737 57.56273,21.8921 15.32626,14.58868 22.99849,32.88349 22.99849,54.87231 0,22.00092 -7.73871,40.19899 -23.21008,54.6184 -15.47139,14.4073 -34.97537,21.61398 -58.53007,21.61398 -22.46647,0 -41.19657,-7.20668 -56.16615,-21.61398 -14.97562,-14.41941 -22.46645,-32.47842 -22.46645,-54.18914 0,-22.27904 7.5392,-40.71289 22.6176,-55.30157 15.08445,-14.59473 34.14708,-21.8921 57.19393,-21.8921" />
  <path
     style="fill:#ffffff;fill-opacity:1;fill-rule:nonzero;stroke:none;stroke-width:6.0458703"
     id="path2430"
     inkscape:connector-curvature="0"
     d="m 550.27093,319.03453 h -6.40259 v 47.08523 h 8.11355 c 10.81607,0 18.23437,-0.92501 22.26091,-2.78109 4.02049,-1.844 7.15228,-4.64323 9.39528,-8.37353 2.24301,-3.73635 3.36148,-7.99264 3.36148,-12.76888 0,-4.69159 -1.24544,-8.94184 -3.73632,-12.75679 -2.49088,-3.80889 -5.99751,-6.49326 -10.51376,-8.0531 -4.52234,-1.57193 -12.01922,-2.35184 -22.47855,-2.35184 M 522.51432,450.03645 V 300.87878 h 37.36349 c 15.09048,0 27.07342,3.73634 35.9306,11.20905 8.86324,7.47874 13.28881,17.58139 13.28881,30.32608 0,8.68792 -2.16438,16.19689 -6.50532,22.53295 -4.34699,6.33004 -10.57424,11.07 -18.68779,14.19571 4.77017,3.13781 9.43157,7.4062 13.9841,12.81725 4.55858,5.40501 10.96113,14.83051 19.21979,28.28257 5.19945,8.47632 9.36505,14.84867 12.49079,19.111 l 7.90196,10.68306 h -25.4108 l -6.50536,-9.82454 c -0.21746,-0.3567 -0.64087,-0.96735 -1.28173,-1.81981 l -4.1535,-5.87658 -6.61419,-10.89466 -7.14623,-11.64435 c -4.40138,-6.12446 -8.44001,-10.99744 -12.10985,-14.62496 -3.66984,-3.62148 -6.98903,-6.2333 -9.93942,-7.83544 -2.9625,-1.59007 -7.93216,-2.39418 -14.91519,-2.39418 h -5.55614 v 64.91452 z" />
  <path
     style="fill:#ffffff;fill-opacity:1;fill-rule:nonzero;stroke:none;stroke-width:6.0458703"
     id="path2432"
     inkscape:connector-curvature="0"
     d="m 658.32273,300.87878 h 21.35402 v 129.72624 h 67.15148 v 19.43143 h -88.5055 z" />
  <path
     style="fill:#ffffff;fill-opacity:1;fill-rule:nonzero;stroke:none;stroke-width:6.0458703"
     id="path2434"
     inkscape:connector-curvature="0"
     d="m 820.33392,319.88699 h -26.69253 v 110.92963 h 27.32735 c 10.68305,0 18.97191,-0.7255 24.8848,-2.1886 5.90074,-1.45706 10.82812,-3.31313 14.78817,-5.55011 3.94191,-2.24906 7.55736,-4.99994 10.82817,-8.27679 10.5319,-10.67702 15.80388,-24.1593 15.80388,-40.46502 0,-16.0155 -5.41104,-29.07459 -16.22711,-39.17724 -3.9842,-3.77262 -8.56092,-6.87415 -13.71808,-9.29249 -5.16921,-2.41835 -10.06034,-4.02051 -14.6854,-4.80647 -4.62511,-0.77992 -12.06151,-1.17291 -22.30925,-1.17291 M 772.28737,449.8188 V 300.87878 h 50.2835 c 20.28993,0 36.33569,3.04712 48.16142,9.13531 11.81363,6.08214 21.20287,15.03004 28.1798,26.84971 6.97693,11.81363 10.46538,24.69738 10.46538,38.6452 0,9.96964 -1.9226,19.50398 -5.76774,28.6151 -3.84519,9.11718 -9.32275,17.12191 -16.43874,24.02025 -7.2611,7.12809 -15.70111,12.49681 -25.30798,16.12434 -5.62268,2.20674 -10.77983,3.68193 -15.48352,4.43162 -4.6976,0.74968 -13.66365,1.11849 -26.89807,1.11849 z" />
  <path
     style="fill:#ffffff;fill-opacity:1;fill-rule:nonzero;stroke:none;stroke-width:6.0458703"
     id="path2436"
     inkscape:connector-curvature="0"
     d="m 527.49612,186.5151 c -0.0139,3.19222 -0.99151,6.40863 -3.84518,8.90557 -2.84758,2.50299 -7.77496,4.40744 -15.9369,4.40744 H 491.2874 v -26.34186 h 15.69511 c 7.32153,0 12.51493,1.48728 15.77364,3.80285 3.24665,2.33371 4.71578,5.39897 4.73997,9.226" />
  <path
     style="fill:#ffffff;fill-opacity:1;fill-rule:nonzero;stroke:none;stroke-width:6.0458703"
     id="path2438"
     inkscape:connector-curvature="0"
     d="m 514.18917,154.9738 c 3.05922,-2.20071 4.53439,-5.32037 4.55254,-9.99383 -0.0139,-3.21036 -0.93108,-5.96122 -3.24057,-8.01078 -2.31558,-2.05559 -6.24539,-3.51265 -12.59356,-3.51265 H 491.2874 v 24.9634 h 7.97454 c 6.90435,0 11.84987,-1.22731 14.92723,-3.44614" />
  <path
     style="fill:#ffffff;fill-opacity:1;fill-rule:nonzero;stroke:none;stroke-width:6.0458703"
     id="path2440"
     inkscape:connector-curvature="0"
     d="m 545.2166,188.44978 c 0.0416,-12.17638 -8.06522,-21.43261 -21.04571,-24.98758 3.50663,-1.78958 6.27563,-3.97819 8.30704,-6.64442 2.70857,-3.57915 4.00839,-7.9624 3.9903,-13.07721 0.0185,-6.27561 -2.45464,-12.67819 -7.75686,-17.47256 -5.30831,-4.78833 -13.36138,-7.88987 -24.3528,-7.88382 h -30.35628 v 96.52836 h 35.61016 0.0185 c 12.70843,0 21.63214,-3.44614 27.37569,-8.5549 5.74963,-5.08458 8.21637,-11.75922 8.21032,-17.90787 m 33.83871,45.16869 H 436.63275 V 99.59362 h 142.42256 z" />
  <path
     style="fill:#ffffff;fill-opacity:1;fill-rule:nonzero;stroke:none;stroke-width:6.0458703"
     id="path2442"
     inkscape:connector-curvature="0"
     d="m 350.08611,154.9738 c 3.05317,-2.20071 4.53441,-5.32037 4.55859,-9.99383 -0.006,-3.21036 -0.93106,-5.96122 -3.24059,-8.01078 -2.32161,-2.05559 -6.25142,-3.51265 -12.60564,-3.51265 h -11.60806 v 24.9634 h 7.9745 c 6.89833,0 11.84385,-1.22731 14.9212,-3.44614" />
  <path
     style="fill:#ffffff;fill-opacity:1;fill-rule:nonzero;stroke:none;stroke-width:6.0458703"
     id="path2444"
     inkscape:connector-curvature="0"
     d="m 358.65311,177.2891 c -3.25267,-2.31557 -8.45212,-3.80285 -15.76762,-3.80285 h -15.69508 v 26.34186 h 16.42662 c 8.16193,0 13.07722,-1.90445 15.93088,-4.40744 2.85364,-2.49694 3.83913,-5.71335 3.84516,-8.90557 -0.024,-3.82703 -1.49332,-6.89229 -4.73996,-9.226" />
  <path
     style="fill:#ffffff;fill-opacity:1;fill-rule:nonzero;stroke:none;stroke-width:6.0458703"
     id="path2446"
     inkscape:connector-curvature="0"
     d="m 381.11956,188.44978 c 0.0425,-12.17638 -8.07727,-21.43261 -21.03962,-24.98758 3.49451,-1.78958 6.26352,-3.97819 8.28889,-6.64442 2.72064,-3.57915 4.00842,-7.9624 4.00236,-13.07721 0.006,-6.27561 -2.46067,-12.67819 -7.76289,-17.47256 -5.30223,-4.78833 -13.35533,-7.88987 -24.34672,-7.88382 h -30.36236 v 96.52836 h 35.60413 0.024 c 12.71447,0 21.63212,-3.44614 27.3757,-8.5549 5.74358,-5.08458 8.22843,-11.75922 8.21634,-17.90787 m 33.83873,45.16869 H 272.54179 V 99.59362 H 414.9583 Z" />
  <path
     style="fill:#ffffff;fill-opacity:1;fill-rule:nonzero;stroke:none;stroke-width:6.0458703"
     id="path2448"
     inkscape:connector-curvature="0"
     d="m 714.87577,189.0725 -2.28533,1.3966 c -11.02767,6.7351 -23.02265,10.34448 -33.91734,10.33844 -23.32496,-0.0907 -38.68147,-13.91155 -38.7419,-34.02011 0.0231,-19.67931 16.06385,-34.24381 38.14942,-34.29218 11.25139,0.006 21.43865,2.9141 33.54854,9.55247 l 2.22486,1.22127 v -17.96228 l -0.95523,-0.37484 c -13.65159,-5.38688 -24.22579,-7.78708 -34.66702,-7.78104 -16.14853,-0.006 -30.15682,5.32642 -40.13854,14.37104 -9.97566,9.05066 -15.90669,21.82558 -15.8946,36.49891 0.005,10.22357 4.22003,22.20044 13.25257,31.71059 9.00229,9.51016 22.87758,16.43872 41.90393,16.43268 h 0.0665 c 15.77973,0 26.72277,-3.51265 36.61381,-8.39167 l 0.84035,-0.41113 z m 28.28262,44.54597 H 600.74184 V 99.59362 h 142.41655 z" />
  <g
     style="fill-rule:evenodd"
     id="layer1"
     transform="matrix(2.139509,0,0,2.139509,-1238.1035,-2583.2312)">
    <g
       id="g2890"
       transform="matrix(1.5730708,0,0,1.5730708,588.02291,-385.20449)">
      <path
         d="m 251.02923,1066.9985 4.473,-4.13 -0.028,31.192 -4.445,-4.704 v -8.848 h -17.542 v 13.587 l -4.466,-4.697 v -22.386 l 4.466,-4.144 v 13.496 h 17.542 z"
         id="path15603"
         style="fill:#ffffff;fill-rule:nonzero;stroke:none"
         inkscape:connector-curvature="0" />
      <path
         d="m 255.47423,1094.0465 v 0 l 4.473,-3.983 h 5.684 c 2.233,0 3.969,-0.147 5.208,-0.434 1.246,-0.315 2.268,-0.7 3.094,-1.162 0.833,-0.483 1.582,-1.071 2.275,-1.75 2.205,-2.233 3.304,-5.061 3.304,-8.477 0,-3.353 -1.134,-6.083 -3.395,-8.19 -0.833,-0.791 -1.792,-1.449 -2.884,-1.953 -1.071,-0.511 -2.093,-0.84 -3.066,-1.001 -0.959,-0.161 -2.513,-0.245 -4.669,-0.245 h -5.579 l -4.431,-3.983 h 10.486 c 4.242,0 7.609,0.644 10.073,1.918 2.478,1.274 4.445,3.143 5.908,5.621 1.449,2.471 2.191,5.166 2.191,8.092 0,2.079 -0.413,4.074 -1.211,5.985 -0.812,1.904 -1.96,3.584 -3.444,5.033 -1.512,1.491 -3.283,2.611 -5.292,3.367 -1.176,0.462 -2.268,0.777 -3.241,0.938 -0.98,0.154 -2.863,0.224 -5.642,0.224 h -9.842 9.842 c 2.779,0 4.662,-0.07 5.642,-0.224 0.973,-0.161 2.065,-0.476 3.241,-0.938 2.009,-0.756 3.78,-1.876 5.292,-3.367 1.484,-1.449 2.632,-3.129 3.444,-5.033 0.798,-1.911 1.211,-3.906 1.211,-5.985 0,-2.926 -0.742,-5.621 -2.191,-8.092 -1.463,-2.478 -3.43,-4.347 -5.908,-5.621 -2.464,-1.274 -5.831,-1.918 -10.073,-1.918 h -10.486 l 4.431,3.983 h 5.579 c 2.156,0 3.71,0.084 4.669,0.245 0.973,0.161 1.995,0.49 3.066,1.001 1.092,0.504 2.051,1.162 2.884,1.953 2.261,2.107 3.395,4.837 3.395,8.19 0,3.416 -1.099,6.244 -3.304,8.477 -0.693,0.679 -1.442,1.267 -2.275,1.75 -0.826,0.462 -1.848,0.847 -3.094,1.162 -1.239,0.287 -2.975,0.434 -5.208,0.434 h -5.684 z"
         id="path15607"
         style="fill:#ffffff;fill-rule:nonzero;stroke:none"
         inkscape:connector-curvature="0" />
      <path
         d="m 255.47423,1094.0465 4.473,-3.983 h 5.684 c 2.233,0 3.969,-0.147 5.208,-0.434 1.246,-0.315 2.268,-0.7 3.094,-1.162 0.833,-0.483 1.582,-1.071 2.275,-1.75 2.205,-2.233 3.304,-5.061 3.304,-8.477 0,-3.353 -1.134,-6.083 -3.395,-8.19 -0.833,-0.791 -1.792,-1.449 -2.884,-1.953 -1.071,-0.511 -2.093,-0.84 -3.066,-1.001 -0.959,-0.161 -2.513,-0.245 -4.669,-0.245 h -5.579 l -4.431,-3.983 h 10.486 c 4.242,0 7.609,0.644 10.073,1.918 2.478,1.274 4.445,3.143 5.908,5.621 1.449,2.471 2.191,5.166 2.191,8.092 0,2.079 -0.413,4.074 -1.211,5.985 -0.812,1.904 -1.96,3.584 -3.444,5.033 -1.512,1.491 -3.283,2.611 -5.292,3.367 -1.176,0.462 -2.268,0.777 -3.241,0.938 -0.98,0.154 -2.863,0.224 -5.642,0.224 z"
         id="path15611"
         style="fill:#ffffff;fill-rule:nonzero;stroke:none"
         inkscape:connector-curvature="0" />
      <path
         d="m 259.94723,1066.8795 -4.466,-4.011 v 31.178 l 4.466,-3.983 v -9.555 -4.144 z"
         id="path15615"
         style="fill:#ea8d86;fill-opacity:1;fill-rule:nonzero;stroke:none"
         inkscape:connector-curvature="0" />
      <path
         d="m 233.48023,1080.5085 -0.014,13.566 4.473,-4.025 -0.014,-9.541 z"
         id="path15619"
         style="fill:#ea8d86;fill-opacity:1;fill-rule:nonzero;stroke:none"
         inkscape:connector-curvature="0" />
      <path
         d="m 238.04423,1076.3645 -0.084,-9.352 -4.473,-4.144 v 13.496 z"
         id="path15623"
         style="fill:#ea8d86;fill-opacity:1;fill-rule:nonzero;stroke:none"
         inkscape:connector-curvature="0" />
    </g>
  </g>
</svg>
