<svg height="555.32971" width="803.06122" xmlns="http://www.w3.org/2000/svg"><g transform="translate(-110.70986 -104.7231)"><g fill="#fff"><path d="m326.12593 509.20109h20.29011v149.14676h-18.3675l-99.72138-114.87245v114.87245h-20.06641v-149.14676h17.29133l100.57385 115.8398z"/><path d="m384.89831 509.20109h84.55821v18.99628h-63.20403v45.48344h61.06982v19.11115h-61.06982v46.34196h65.22941v19.00232h-86.58359z"/><path d="m697.35137 509.20109h21.29372l-60.30803 149.79368h-4.69164l-48.76637-121.29322-49.27424 121.29322h-4.5828l-60.11457-149.79368h21.51138l41.10015 102.81084 41.38431-102.81084h20.18732l41.57174 102.81084z"/><path d="m776.50453 595.85724-16.22724-9.86089c-10.18133-6.21521-17.42434-12.32763-21.72903-18.34332-4.3047-6.01569-6.46309-12.93827-6.46309-20.76773 0-11.74722 4.07495-21.28163 12.23089-28.60929 8.14386-7.33369 18.7363-11.00357 31.76526-11.00357 12.44854 0 23.87533 3.50059 34.27431 10.48967v24.23809c-10.74964-10.33852-22.32153-15.50778-34.70357-15.50778-6.97699 0-12.70852 1.61426-17.19459 4.84278-4.48003 3.22247-6.72911 7.35184-6.72911 12.38809 0 4.46188 1.65658 8.6517 4.95765 12.54528 3.30712 3.90566 8.61544 7.99875 15.93704 12.27926l16.31189 9.65533c18.19217 10.87056 27.28523 24.70362 27.28523 41.49918 0 11.95883-4.0024 21.67462-12.00719 29.14737-8.01085 7.47276-18.42192 11.20309-31.23322 11.20309-14.72786 0-28.14375-4.5163-40.24768-13.57913v-27.12199c11.52352 14.61298 24.87291 21.91645 40.03608 21.91645 6.69283 0 12.26112-1.86214 16.71091-5.58643 4.4498-3.72428 6.6747-8.38568 6.6747-13.99025 0-9.07492-6.55378-17.68431-19.64924-25.83421"/><path d="m317.15379 306.00987h21.29977l-60.30199 149.79367h-4.69768l-48.76638-121.28112-49.27423 121.28112h-4.58281l-60.12061-149.79367h21.52347l41.10015 102.82293 41.37827-102.82293h20.18732l41.57174 102.82293z"/><path d="m422.48578 324.16576c-17.07367 0-31.1002 5.33854-42.08564 16.00959-10.99148 10.68314-16.48117 24.31668-16.48117 40.89459 0 16.08819 5.51388 29.47385 16.53559 40.15095 11.02171 10.67104 24.81849 16.00959 41.39035 16.00959 16.63232 0 30.5198-5.44737 41.65638-16.33607 11.12449-10.8887 16.68674-24.4497 16.68674-40.67694 0-15.80403-5.56225-29.09296-16.68674-39.87888-11.13658-10.78592-24.8064-16.17283-41.01551-16.17283m-.85852-20.2901c23.04704 0 42.23679 7.29742 57.56319 21.89227 15.3264 14.5888 22.99867 32.88375 22.99867 54.87275 0 22.0011-7.73877 40.19931-23.21028 54.61883-15.4715 14.40742-34.97564 21.61416-58.53053 21.61416-22.46664 0-41.19689-7.20674-56.16659-21.61416-14.97574-14.41952-22.46663-32.47867-22.46663-54.18957 0-22.27921 7.53926-40.71321 22.61778-55.30201 15.08457-14.59485 34.14735-21.89227 57.19439-21.89227"/><path d="m554.66165 324.16576h-6.40263v47.08561h8.11362c10.81615 0 18.23449-.92502 22.26108-2.78112 4.02053-1.84401 7.15232-4.64327 9.39535-8.3736 2.24304-3.73638 3.36153-7.9927 3.36153-12.76898 0-4.69163-1.24546-8.94191-3.73637-12.75689-2.49092-3.80892-5.99756-6.49331-10.51386-8.05316-4.52234-1.57194-12.01928-2.35186-22.47872-2.35186m-27.75681 131.00296v-149.15885h37.36377c15.09062 0 27.07363 3.73637 35.9309 11.20913 8.86331 7.4788 13.28892 17.58153 13.28892 30.32632 0 8.68799-2.16443 16.19702-6.5054 22.53314-4.34702 6.33008-10.57431 11.07008-18.68794 14.19582 4.77023 3.13783 9.43164 7.40625 13.98421 12.81735 4.55862 5.40505 10.96125 14.83063 19.21998 28.2828 5.19949 8.47638 9.36512 14.84878 12.49086 19.11115l7.90202 10.68314h-25.411l-6.5054-9.82462c-.21766-.35671-.64087-.96735-1.28174-1.81982l-4.15354-5.87663-6.61424-10.89475-7.14627-11.64444c-4.40143-6.12451-8.44011-10.99752-12.10998-14.62507-3.66987-3.62151-6.98908-6.23335-9.93949-7.83551-2.9625-1.59008-7.93224-2.39419-14.91528-2.39419h-5.5562v64.91503z"/><path d="m662.7143 306.00987h21.35419v129.72727h67.15201v19.43158h-88.5062z"/><path d="m824.72678 325.01823h-26.69273v110.93051h27.32755c10.68314 0 18.97209-.72551 24.885-2.18862 5.90082-1.45707 10.82824-3.31316 14.78832-5.55015 3.94193-2.24908 7.55739-4.99998 10.82824-8.27686 10.53199-10.6771 15.80403-24.15949 15.80403-40.46534 0-16.01563-5.4111-29.07482-16.22725-39.17755-3.98426-3.77265-8.56102-6.87421-13.71819-9.29257-5.16926-2.41837-10.06041-4.02054-14.68553-4.80651-4.62513-.77992-12.06161-1.17291-22.30944-1.17291m-48.04692 129.93284v-148.9412h50.28391c20.2901 0 36.33597 3.04714 48.16178 9.13538 11.81373 6.08219 21.20304 15.03015 28.18003 26.84992 6.97699 11.81373 10.46548 24.69758 10.46548 38.64551 0 9.96972-1.9226 19.50413-5.7678 28.61533-3.84521 9.11725-9.32281 17.12204-16.43885 24.02044-7.26115 7.12814-15.70125 12.49691-25.30822 16.12446-5.6227 2.20676-10.77987 3.68197-15.4836 4.43166-4.69767.74969-13.66377 1.1185-26.89829 1.1185z"/></g><path d="m531.88667 191.64527c-.0121 3.19225-.99153 6.40868-3.8452 8.90564-2.84763 2.50301-7.77505 4.40748-15.93704 4.40748h-16.42676v-26.34207h15.6952c7.32161 0 12.51505 1.48729 15.7738 3.80288 3.24666 2.33373 4.71582 5.39901 4.74 9.22607" fill="#c02519"/><path d="m518.57961 160.10372c3.05923-2.20072 4.53444-5.32041 4.55257-9.99391-.0121-3.21038-.93107-5.96127-3.24061-8.01084-2.31558-2.05561-6.24543-3.51268-12.59365-3.51268h-11.62025v24.9636h7.97457c6.90443 0 11.85-1.22732 14.92737-3.44617" fill="#c02519"/><path d="m549.60726 193.57997c.0423-12.17648-8.06525-21.43278-21.04584-24.98778 3.50663-1.7896 6.27566-3.97822 8.30709-6.64447 2.70857-3.57918 4.00844-7.96247 3.99031-13.07732.0181-6.27566-2.45465-12.67829-7.75692-17.4727-5.30831-4.78837-13.36148-7.88993-24.35296-7.88388h-30.35655v96.52913h35.61046.0181c12.70852 0 21.63229-3.44617 27.37591-8.55497 5.74967-5.08462 8.21641-11.75931 8.21036-17.90801m33.83901 45.16905h-142.4237v-134.02592h142.4237z" fill="#c02519"/><path d="m354.47524 160.10372c3.05319-2.20072 4.53444-5.32041 4.55863-9.99391-.006-3.21038-.93107-5.96127-3.24062-8.01084-2.32163-2.05561-6.25147-3.51268-12.60574-3.51268h-11.60816v24.9636h7.97457c6.89839 0 11.84395-1.22732 14.92132-3.44617" fill="#c02519"/><path d="m363.04231 182.4192c-3.2527-2.31559-8.45219-3.80288-15.76775-3.80288h-15.69521v26.34207h16.42676c8.16199 0 13.07732-1.90447 15.931-4.40748 2.85367-2.49696 3.83916-5.71339 3.8452-8.90564-.0242-3.82706-1.49334-6.89234-4.74-9.22607" fill="#c02519"/><path d="m385.50894 193.57997c.0423-12.17648-8.07734-21.43278-21.03979-24.98778 3.49454-1.7896 6.26357-3.97822 8.28895-6.64447 2.72067-3.57918 4.00845-7.96247 4.0024-13.07732.006-6.27566-2.46069-12.67829-7.76296-17.4727-5.30227-4.78837-13.35543-7.88993-24.34691-7.88388h-30.3626v96.52913h35.60441.0242c12.71457 0 21.6323-3.44617 27.37592-8.55497 5.74362-5.08462 8.2285-11.75931 8.2164-17.90801m33.83901 45.16905h-142.41765v-134.02592h142.41765z" fill="#c02519"/><path d="m719.26782 194.2027-2.28535 1.3966c-11.02776 6.73516-23.02286 10.34457-33.91761 10.33852-23.32515-.0907-38.68178-13.91165-38.74224-34.02038.0242-19.67946 16.064-34.24408 38.14974-34.29245 11.25146.006 21.43883 2.91413 33.5488 9.55255l2.2249 1.22128v-17.96242l-.95525-.37485c-13.65169-5.38692-24.226-7.78714-34.6673-7.7811-16.14865-.006-30.15704 5.32646-40.13885 14.37115-9.97577 9.05074-15.90681 21.82576-15.89472 36.49921.006 10.22365 4.22005 22.20061 13.25265 31.71084 9.00238 9.51023 22.87776 16.43885 41.90426 16.43281h.0665c15.77985 0 26.72296-3.51268 36.61408-8.39174l.84038-.41112v-18.2889zm28.28281 44.54632h-142.41765v-134.02592h142.41765z" fill="#c02519"/></g></svg>