<?xml version="1.0" encoding="UTF-8" ?>
<!DOCTYPE svg PUBLIC "-//W3C//DTD SVG 1.1//EN" "http://www.w3.org/Graphics/SVG/1.1/DTD/svg11.dtd">
<svg width="1278pt" height="1045pt" viewBox="0 0 1278 1045" version="1.1" xmlns="http://www.w3.org/2000/svg">
<g id="#ffffffff">
<path fill="#ffffff" opacity="1.00" d=" M 436.36 2.30 C 441.30 2.19 446.01 0.21 451.00 0.69 C 464.02 0.11 477.04 0.41 490.05 0.74 C 503.12 2.98 516.49 3.21 529.54 5.77 C 543.36 7.13 556.75 10.98 570.24 14.08 C 618.73 25.62 664.90 46.64 705.62 75.37 C 713.49 80.35 720.57 86.44 728.13 91.86 C 733.09 96.08 738.12 100.21 743.11 104.39 C 817.28 97.57 891.64 92.82 966.04 89.72 C 969.70 89.29 974.28 90.48 975.49 94.41 C 977.20 98.13 975.21 103.01 971.32 104.39 C 959.08 109.94 946.68 115.14 934.46 120.73 C 945.99 120.93 957.50 119.78 969.03 119.49 C 975.86 119.58 982.77 118.45 989.57 119.46 C 993.34 121.57 994.07 128.82 989.31 130.35 C 949.06 148.14 908.74 165.80 868.50 183.60 C 866.73 184.62 864.74 183.89 862.90 183.63 C 843.89 180.43 824.86 177.35 805.91 173.81 C 821.80 196.41 836.04 220.24 847.35 245.48 C 852.25 257.46 857.74 269.26 861.31 281.73 C 866.76 297.84 871.49 314.22 874.57 330.96 C 930.03 318.55 985.58 306.53 1041.26 295.14 C 1062.59 291.12 1083.59 285.58 1104.73 280.69 C 1152.37 269.24 1200.04 257.91 1247.69 246.48 C 1250.58 245.85 1253.80 244.64 1256.62 246.24 C 1261.54 248.59 1261.89 256.40 1257.30 259.30 C 1244.54 268.01 1231.42 276.20 1218.70 284.96 C 1235.53 281.04 1252.27 276.62 1269.07 272.53 C 1273.13 271.25 1277.69 274.70 1277.40 278.95 C 1276.71 281.13 1275.38 283.16 1273.43 284.40 C 1235.18 309.47 1197.07 334.76 1158.81 359.81 C 1156.50 361.48 1154.03 363.35 1151.06 363.41 C 1137.72 363.58 1124.37 363.12 1111.05 363.79 C 1098.82 363.93 1086.56 363.32 1074.38 364.52 C 1022.89 384.66 971.42 404.86 919.86 424.83 C 907.74 429.64 895.53 434.19 883.50 439.22 C 882.60 457.05 879.93 474.74 876.54 492.26 C 873.51 505.84 871.07 519.57 866.86 532.86 C 854.99 575.20 835.68 615.29 810.69 651.44 C 815.70 651.78 820.89 650.75 825.78 652.09 C 831.95 653.95 831.89 664.11 825.64 665.80 C 815.48 668.44 805.15 670.44 794.97 673.04 C 792.34 675.67 790.31 678.84 787.92 681.69 C 808.84 682.22 829.75 682.80 850.66 683.44 C 854.60 684.13 854.98 691.09 850.83 691.85 C 826.42 697.61 801.95 703.14 777.53 708.83 C 771.24 710.42 764.76 711.42 758.61 713.48 C 719.52 750.88 673.60 781.45 623.21 801.36 C 607.51 807.82 591.16 812.50 574.86 817.16 C 544.07 824.37 512.77 831.03 481.00 830.87 C 469.00 831.94 456.99 830.58 444.98 830.72 C 428.01 829.89 411.18 827.25 394.47 824.24 C 381.98 821.37 369.34 819.19 357.01 815.71 C 349.14 816.50 341.23 817.22 333.32 817.75 C 313.96 820.21 294.43 819.71 274.95 819.78 C 238.89 818.71 202.31 814.65 168.40 801.61 C 152.62 795.34 137.27 786.95 125.46 774.54 C 114.40 763.11 107.12 747.57 107.36 731.51 C 105.98 728.51 104.39 725.61 103.28 722.50 C 97.87 708.82 98.23 693.39 102.49 679.44 C 107.19 666.77 113.24 654.50 121.52 643.75 C 106.88 621.29 94.23 597.53 84.17 572.67 C 80.12 561.74 75.85 550.87 72.51 539.70 C 70.69 532.25 68.28 524.96 66.61 517.47 C 50.50 509.19 36.02 497.43 25.08 482.96 C 16.86 471.53 11.05 458.09 9.85 443.98 C 9.63 442.31 9.57 440.58 8.83 439.05 C 3.48 427.90 0.95 415.36 1.62 403.04 C 2.46 382.81 11.05 363.78 22.23 347.22 C 28.81 337.66 36.23 328.65 44.42 320.43 C 47.61 317.59 49.85 313.82 53.43 311.41 C 59.43 306.06 65.74 301.04 71.56 295.51 C 79.91 268.40 90.48 241.87 104.42 217.12 C 95.66 204.99 87.85 192.16 81.28 178.72 C 75.44 166.53 70.72 153.55 69.80 139.97 C 69.77 134.39 67.29 129.25 66.52 123.78 C 65.22 111.51 66.04 98.01 73.88 87.88 C 83.26 75.79 98.54 70.52 113.06 67.82 C 141.17 63.04 169.88 65.67 197.94 69.48 C 209.32 71.18 220.71 72.92 231.97 75.35 C 266.25 50.95 304.65 32.49 344.80 20.03 C 362.50 15.25 380.24 10.53 398.25 7.07 C 410.95 5.45 423.56 3.07 436.36 2.30 M 444.99 4.85 C 436.24 6.15 427.36 6.39 418.62 7.74 C 407.73 9.47 396.72 10.51 386.02 13.23 C 371.42 16.49 356.96 20.31 342.56 24.36 C 327.67 29.56 312.67 34.60 298.42 41.42 C 282.25 48.72 266.53 57.02 251.56 66.53 C 244.99 70.14 239.26 75.06 232.79 78.80 C 201.52 73.30 169.89 68.07 138.00 68.85 C 122.38 69.65 106.30 71.15 92.00 78.00 C 82.75 82.59 74.37 90.25 71.40 100.42 C 68.63 110.13 68.96 120.63 71.82 130.29 C 74.09 136.96 73.31 144.17 75.13 150.95 C 80.94 175.21 94.66 196.56 108.67 216.84 C 101.00 229.89 94.80 243.72 88.72 257.57 C 83.87 270.36 78.84 283.12 75.14 296.30 C 74.93 297.26 74.45 298.05 73.70 298.68 C 66.92 304.58 60.03 310.37 53.31 316.33 C 49.73 320.72 45.31 324.33 41.70 328.69 C 26.85 345.25 13.69 364.21 7.97 385.97 C 3.44 402.76 4.40 421.25 11.99 437.03 C 13.40 439.72 13.44 442.78 13.73 445.72 C 15.02 456.53 19.12 466.87 24.93 476.03 C 34.67 491.39 49.13 503.19 64.68 512.31 C 66.64 513.64 69.80 514.16 70.11 516.96 C 80.91 562.14 100.08 605.22 125.87 643.83 C 116.52 656.05 108.90 669.81 104.89 684.73 C 101.41 698.43 102.46 713.35 108.87 726.05 C 109.73 727.96 111.21 729.73 111.14 731.95 C 110.94 742.53 114.45 752.99 120.19 761.81 C 129.53 776.54 144.55 786.58 160.02 793.98 C 179.98 803.14 201.49 808.51 223.15 811.78 C 254.22 816.37 285.74 817.07 317.06 815.49 C 330.41 814.71 343.75 813.30 357.08 812.19 C 375.95 816.81 394.99 821.10 414.25 823.92 C 438.27 827.74 462.68 827.96 486.94 827.24 C 505.88 826.90 524.65 823.93 543.26 820.54 C 557.40 817.39 571.70 814.88 585.53 810.45 C 597.28 806.71 609.21 803.40 620.59 798.60 C 626.47 796.19 632.31 793.70 638.20 791.32 C 645.88 787.73 653.39 783.76 661.05 780.11 C 695.61 761.47 727.74 738.26 755.99 710.96 C 756.92 710.00 758.27 709.70 759.53 709.38 C 789.52 702.41 819.55 695.58 849.53 688.57 C 849.73 688.18 850.12 687.38 850.32 686.99 C 826.94 686.57 803.59 685.62 780.21 685.21 C 784.72 680.31 788.42 674.66 793.06 669.91 C 803.47 667.18 814.08 665.18 824.50 662.47 C 827.96 661.48 827.47 655.48 823.82 655.24 C 817.15 654.94 810.48 655.27 803.81 655.09 C 817.09 636.08 829.42 616.33 839.33 595.34 C 854.48 564.17 865.22 530.88 871.92 496.88 C 875.99 477.14 879.31 457.11 879.80 436.92 C 895.67 430.30 911.78 424.27 927.77 417.93 C 976.30 399.02 1024.77 379.94 1073.31 361.07 C 1085.12 359.73 1097.11 360.43 1109.01 360.16 C 1123.25 359.50 1137.53 359.87 1151.78 359.50 C 1152.14 359.39 1152.84 359.19 1153.20 359.09 C 1190.34 334.59 1227.50 310.11 1264.67 285.64 C 1267.90 283.34 1272.10 281.80 1273.84 277.95 C 1272.54 276.18 1270.56 275.76 1268.56 276.46 C 1245.33 282.21 1222.11 288.01 1198.88 293.75 C 1217.34 281.19 1236.21 269.22 1254.73 256.74 C 1257.21 255.51 1257.55 252.10 1256.00 250.01 C 1254.24 248.44 1251.75 249.25 1249.73 249.61 C 1191.92 263.42 1134.12 277.25 1076.32 291.06 C 1050.59 297.34 1024.47 301.90 998.61 307.60 C 956.28 316.39 914.10 325.85 871.87 335.09 C 870.27 327.94 868.97 320.73 867.19 313.62 C 863.89 300.49 859.53 287.66 855.40 274.77 C 851.80 264.87 847.54 255.24 843.51 245.51 C 831.02 218.25 815.44 192.44 797.44 168.47 C 820.24 172.78 843.14 176.57 866.03 180.38 C 868.60 179.82 870.89 178.38 873.32 177.40 C 911.81 160.47 950.26 143.44 988.78 126.58 C 988.70 125.36 988.63 124.14 988.58 122.92 C 981.70 122.06 974.85 123.33 967.98 123.23 C 950.23 123.92 932.50 124.91 914.76 125.71 C 932.77 117.25 951.18 109.63 969.32 101.43 C 971.45 100.69 973.25 98.47 972.37 96.13 C 971.86 93.13 968.38 93.14 966.03 93.32 C 895.21 96.14 824.46 100.79 753.84 106.93 C 749.71 107.18 745.51 108.07 741.39 107.64 C 730.04 97.89 718.33 88.57 706.11 79.92 C 698.99 75.42 692.42 70.07 685.01 66.02 C 673.66 58.75 661.76 52.41 649.76 46.31 C 639.06 41.57 628.61 36.19 617.50 32.49 C 605.44 27.77 593.18 23.57 580.61 20.44 C 563.39 16.01 546.15 11.28 528.46 9.19 C 517.80 7.35 507.04 6.31 496.27 5.42 C 491.42 4.45 486.47 4.81 481.57 4.57 C 469.38 4.14 457.18 4.52 444.99 4.85 Z" />
<path fill="#ffffff" opacity="1.00" d=" M 116.42 74.64 C 143.15 70.48 170.35 73.14 196.98 76.70 C 241.87 83.28 286.04 94.23 329.39 107.51 C 316.92 114.42 305.29 123.18 296.64 134.63 C 287.19 146.80 280.44 161.51 279.55 177.04 C 279.30 183.77 280.46 190.68 283.71 196.64 C 321.70 181.75 361.18 171.02 400.88 161.75 C 448.99 150.63 497.64 142.04 546.46 134.71 C 639.48 120.88 733.14 111.66 826.92 104.88 C 865.93 102.11 904.96 99.78 944.02 98.01 C 952.42 97.60 960.84 97.10 969.26 97.21 C 932.20 113.69 895.06 130.00 857.92 146.28 C 835.23 142.76 812.58 138.84 790.02 134.50 C 788.33 134.21 786.66 134.71 785.03 134.99 C 739.47 144.24 694.37 155.58 649.43 167.43 C 562.31 190.67 475.89 216.59 390.52 245.62 C 366.89 253.77 343.26 261.90 319.90 270.77 C 352.95 295.78 385.34 321.66 418.54 346.48 C 449.93 369.98 481.42 393.45 514.59 414.41 C 523.43 419.95 532.51 425.16 542.02 429.49 C 581.02 413.86 621.49 402.28 661.90 390.92 C 749.54 366.87 838.12 346.40 926.86 326.83 C 971.91 316.97 1017.03 307.45 1062.23 298.29 C 1109.40 287.05 1156.56 275.74 1203.73 264.49 C 1220.30 260.64 1236.77 256.35 1253.40 252.78 C 1237.72 263.74 1221.46 273.89 1205.57 284.55 C 1185.48 297.79 1165.37 311.01 1145.29 324.28 C 1142.32 326.45 1138.40 325.31 1135.00 325.66 C 1113.34 326.46 1091.65 326.56 1069.98 326.74 C 1064.87 326.40 1060.44 329.34 1055.79 330.94 C 935.17 378.54 813.73 424.12 694.10 474.22 C 654.70 490.75 615.47 507.72 576.69 525.69 C 537.89 543.77 499.36 562.61 462.53 584.48 C 445.70 594.64 429.10 605.36 414.15 618.17 C 406.23 625.25 398.36 632.84 393.51 642.43 C 390.24 648.81 389.11 656.84 392.70 663.33 C 396.81 670.89 404.67 675.37 412.29 678.73 C 427.64 685.18 444.21 687.95 460.61 690.25 C 499.88 695.17 539.53 695.55 579.06 695.21 C 581.70 695.30 584.23 694.43 586.73 693.67 C 611.72 685.86 635.06 673.31 656.13 657.86 C 669.41 657.69 682.72 657.72 696.00 658.21 C 738.39 658.27 780.78 658.70 823.16 658.79 C 810.98 662.12 798.54 664.51 786.26 667.51 C 738.26 678.56 690.28 689.82 642.07 699.94 C 562.96 731.77 481.06 757.48 396.87 771.74 C 356.62 778.51 315.85 782.60 275.01 782.37 C 246.56 781.95 217.97 779.65 190.26 772.89 C 172.07 768.39 154.07 762.06 138.34 751.72 C 125.43 743.31 114.00 731.43 109.37 716.43 C 105.14 703.39 106.82 689.13 111.63 676.49 C 117.60 660.83 127.49 647.00 138.52 634.51 C 162.74 607.58 192.35 586.15 222.85 566.89 C 259.33 544.09 297.85 524.71 337.05 507.07 C 377.89 488.81 419.58 472.53 461.74 457.62 C 471.67 453.98 481.78 450.83 491.68 447.11 C 448.53 433.55 407.13 414.92 367.18 393.83 C 322.59 370.20 279.52 343.71 238.24 314.70 C 221.90 326.36 205.89 338.53 191.01 352.02 C 178.36 363.74 166.11 376.24 157.14 391.09 C 151.60 400.41 147.18 410.95 147.49 421.99 C 147.47 431.80 152.10 441.17 158.87 448.11 C 168.13 457.70 180.32 463.78 192.62 468.53 C 212.67 476.06 233.83 480.15 255.00 483.05 C 273.64 485.62 292.42 486.82 311.21 487.62 C 268.10 504.72 221.19 511.37 174.96 509.46 C 149.18 508.20 123.44 504.18 98.82 496.34 C 73.38 488.13 48.33 475.91 29.86 456.13 C 16.70 442.21 8.31 423.29 9.25 403.93 C 10.11 382.02 20.73 361.86 33.71 344.71 C 51.93 321.01 74.99 301.53 99.13 284.12 C 117.47 270.97 136.69 259.08 156.31 247.95 C 133.15 222.38 110.54 195.99 92.58 166.42 C 84.32 152.42 76.67 137.58 73.97 121.38 C 72.11 110.69 73.81 98.64 81.46 90.46 C 90.44 80.74 103.77 76.83 116.42 74.64 Z" />
<path fill="#ffffff" opacity="1.00" d=" M 664.87 534.86 C 674.46 531.09 685.18 531.36 695.28 532.53 C 705.09 533.76 714.87 535.93 723.99 539.81 C 722.54 547.70 726.24 555.10 726.85 562.85 C 720.12 563.55 713.35 562.37 706.62 563.17 C 707.31 566.75 709.44 570.07 709.29 573.79 C 707.78 575.34 705.65 576.52 705.76 579.00 C 703.76 596.12 689.00 607.91 685.50 624.52 C 682.22 625.58 678.96 627.00 676.58 629.57 C 673.26 632.93 669.92 636.74 665.04 637.70 C 666.27 615.59 675.80 595.17 679.86 573.60 C 679.97 572.35 680.80 570.52 679.26 569.81 C 674.58 566.73 668.48 567.20 663.74 564.24 C 661.84 563.22 661.95 560.77 661.56 558.94 C 660.65 550.86 660.62 542.07 664.87 534.86 Z" />
<path fill="#ffffff" opacity="1.00" d=" M 752.53 593.44 C 768.32 573.22 784.55 553.25 798.99 532.00 C 801.20 534.11 803.45 536.40 804.33 539.43 C 806.48 546.16 804.35 553.15 803.95 559.97 C 803.62 564.18 804.53 568.65 802.51 572.57 C 797.01 584.90 788.28 595.40 779.47 605.48 C 768.75 617.12 757.03 628.61 742.35 635.06 C 739.85 630.85 736.39 627.27 732.14 624.80 C 736.72 616.32 733.73 606.67 732.45 597.77 C 730.45 587.12 734.71 576.66 734.48 566.00 C 734.52 558.93 732.31 551.34 735.70 544.70 C 737.92 540.55 743.04 539.71 747.31 539.65 C 746.17 557.76 749.50 575.67 752.53 593.44 Z" />
<path fill="#ffffff" opacity="1.00" d=" M 332.39 906.56 C 339.84 905.79 347.63 905.63 354.79 908.15 C 362.62 910.77 369.73 917.42 370.67 925.95 C 371.80 938.25 369.06 950.43 367.11 962.51 C 356.98 962.44 346.85 962.55 336.72 962.45 C 338.33 952.29 340.43 942.19 341.46 931.95 C 342.09 929.19 339.93 926.56 337.06 927.21 C 331.73 927.00 330.94 933.30 330.07 937.23 C 326.25 959.45 322.58 981.69 318.99 1003.95 C 318.89 1006.91 317.53 1010.66 319.84 1013.10 C 322.77 1014.90 327.28 1013.55 328.10 1009.99 C 330.94 1001.20 331.65 991.88 333.32 982.83 C 343.46 982.46 353.61 982.75 363.75 982.68 C 362.18 992.65 360.53 1002.72 357.04 1012.23 C 353.78 1021.13 346.01 1027.56 337.62 1031.46 C 329.35 1035.26 319.94 1035.53 311.05 1034.43 C 303.31 1033.35 295.24 1029.59 291.52 1022.37 C 289.06 1018.00 289.07 1012.85 289.10 1008.00 C 289.24 995.99 291.99 984.24 293.76 972.42 C 296.08 959.35 297.66 946.13 300.98 933.26 C 304.75 919.01 317.99 908.52 332.39 906.56 Z" />
<path fill="#ffffff" opacity="1.00" d=" M 45.12 908.45 C 58.42 908.56 71.74 908.16 85.03 908.81 C 90.91 909.46 97.38 909.92 102.11 913.88 C 105.97 917.09 108.31 921.90 108.70 926.89 C 109.30 933.92 108.46 941.02 106.98 947.90 C 105.91 952.26 104.53 956.93 101.06 960.03 C 97.81 962.96 93.48 964.06 89.52 965.65 C 93.51 967.21 97.96 968.79 100.38 972.60 C 103.61 977.97 102.77 984.59 102.11 990.53 C 100.29 1000.02 99.64 1009.87 95.82 1018.85 C 93.52 1024.46 88.81 1029.28 82.79 1030.71 C 76.00 1032.35 68.95 1032.45 62.00 1032.42 C 49.51 1032.38 37.01 1032.48 24.52 1032.37 C 31.46 991.08 38.19 949.75 45.12 908.45 M 72.00 929.72 C 70.39 938.91 68.91 948.12 67.42 957.34 C 70.54 957.26 74.69 957.69 76.58 954.58 C 78.54 950.34 79.06 945.61 79.91 941.06 C 80.35 937.74 81.20 933.91 78.97 931.03 C 76.88 929.81 74.33 929.98 72.00 929.72 M 64.23 977.17 C 62.06 988.51 60.33 999.94 58.51 1011.35 C 61.70 1010.77 66.03 1011.02 67.85 1007.76 C 70.12 1003.22 70.30 998.02 71.28 993.12 C 71.84 988.38 73.59 983.47 72.26 978.73 C 70.09 977.14 66.72 976.15 64.23 977.17 Z" />
<path fill="#ffffff" opacity="1.00" d=" M 141.15 908.45 C 151.27 908.50 161.40 908.35 171.52 908.53 C 166.02 941.55 160.50 974.58 155.10 1007.62 C 161.24 1007.67 167.37 1007.60 173.50 1007.66 C 172.07 1015.92 170.88 1024.23 169.27 1032.46 C 153.03 1032.33 136.78 1032.50 120.54 1032.37 C 127.48 991.08 134.19 949.74 141.15 908.45 Z" />
<path fill="#ffffff" opacity="1.00" d=" M 224.05 908.43 C 238.61 908.47 253.16 908.44 267.71 908.44 C 266.81 949.77 265.57 991.09 264.64 1032.42 C 254.28 1032.39 243.92 1032.46 233.56 1032.38 C 234.30 1025.04 235.06 1017.70 235.62 1010.34 C 231.98 1010.33 228.35 1010.29 224.71 1010.41 C 222.97 1017.76 221.27 1025.13 219.34 1032.45 C 208.89 1032.36 198.44 1032.47 187.99 1032.38 C 199.98 991.06 211.92 949.71 224.05 908.43 M 228.30 988.26 C 231.71 988.29 235.12 988.28 238.53 988.27 C 239.54 971.52 240.87 954.78 242.36 938.06 C 236.98 954.57 232.54 971.41 228.30 988.26 Z" />
<path fill="#ffffff" opacity="1.00" d=" M 401.24 908.44 C 411.35 908.50 421.47 908.36 431.58 908.51 C 429.13 924.04 426.12 939.50 424.07 955.09 C 431.20 939.57 438.03 923.92 445.24 908.43 C 454.73 908.48 464.23 908.42 473.73 908.46 C 464.86 927.03 455.83 945.56 447.21 964.24 C 447.58 974.21 449.34 984.14 450.29 994.09 C 451.72 1006.87 453.19 1019.64 454.65 1032.41 C 444.20 1032.37 433.74 1032.52 423.29 1032.33 C 421.97 1015.17 421.25 997.95 419.45 980.84 C 416.85 998.06 413.79 1015.20 411.05 1032.40 C 400.90 1032.41 390.74 1032.46 380.60 1032.37 C 387.57 991.08 394.24 949.73 401.24 908.44 Z" />
<path fill="#ffffff" opacity="1.00" d=" M 495.34 908.44 C 511.20 908.89 527.23 907.36 542.96 909.86 C 551.52 910.82 558.46 918.34 558.87 926.91 C 559.50 936.32 558.39 946.06 554.93 954.88 C 552.42 961.16 545.67 963.78 539.65 965.48 C 544.66 967.54 550.59 970.01 552.05 975.84 C 554.25 984.98 551.42 994.28 550.15 1003.35 C 548.62 1011.55 547.04 1020.67 540.60 1026.60 C 535.09 1031.76 527.04 1031.82 519.97 1032.33 C 504.89 1032.50 489.80 1032.42 474.73 1032.37 C 481.65 991.07 488.36 949.73 495.34 908.44 M 522.13 929.87 C 520.60 939.02 519.08 948.17 517.60 957.33 C 520.54 957.22 524.15 957.67 526.33 955.24 C 528.19 952.24 528.60 948.64 529.37 945.27 C 530.05 941.27 531.13 937.14 530.28 933.09 C 529.33 929.49 525.02 929.99 522.13 929.87 M 514.39 977.23 C 512.27 988.56 510.49 999.96 508.70 1011.34 C 511.11 1010.97 513.66 1010.90 515.90 1009.83 C 518.29 1008.65 518.97 1005.81 519.61 1003.46 C 520.81 997.94 521.56 992.35 522.51 986.79 C 522.80 984.09 523.30 981.25 522.41 978.63 C 520.19 977.20 516.79 976.07 514.39 977.23 Z" />
<path fill="#ffffff" opacity="1.00" d=" M 590.63 908.46 C 607.45 908.43 624.28 908.46 641.10 908.44 C 640.01 916.80 638.48 925.10 637.06 933.41 C 630.33 933.40 623.60 933.37 616.87 933.43 C 615.65 941.24 614.32 949.03 613.05 956.83 C 619.32 956.89 625.59 956.76 631.86 956.92 C 630.75 964.83 629.26 972.68 628.02 980.58 C 621.68 980.65 615.33 980.48 608.99 980.68 C 607.77 989.70 605.89 998.62 604.72 1007.65 C 612.09 1007.64 619.47 1007.61 626.84 1007.66 C 625.51 1015.72 624.30 1023.81 622.76 1031.83 L 622.05 1032.39 C 604.75 1032.43 587.44 1032.43 570.14 1032.39 C 576.91 991.07 583.88 949.78 590.63 908.46 Z" />
<path fill="#ffffff" opacity="1.00" d=" M 666.95 908.46 C 677.04 908.43 687.13 908.49 697.22 908.42 C 692.15 941.54 686.15 974.52 681.03 1007.64 C 687.15 1007.66 693.27 1007.59 699.39 1007.68 C 697.91 1015.92 696.70 1024.22 695.16 1032.45 C 678.92 1032.36 662.67 1032.46 646.43 1032.40 C 653.25 991.08 660.15 949.78 666.95 908.46 Z" />
<path fill="#ffffff" opacity="1.00" d=" M 721.47 908.44 C 743.62 908.45 765.77 908.47 787.92 908.43 C 786.71 916.75 785.14 925.00 783.91 933.32 C 777.84 933.50 771.77 933.33 765.71 933.42 C 760.20 966.43 754.85 999.46 749.22 1032.45 C 739.14 1032.34 729.07 1032.49 718.99 1032.37 C 724.18 999.34 730.13 966.43 735.15 933.38 C 729.21 933.41 723.28 933.41 717.34 933.38 C 718.75 925.07 720.15 916.76 721.47 908.44 Z" />
</g>
<g id="#000000ff">
<path fill="#000000" opacity="1.00" d=" M 444.99 4.85 C 457.18 4.52 469.38 4.14 481.57 4.57 C 486.47 4.81 491.42 4.45 496.27 5.42 C 507.04 6.31 517.80 7.35 528.46 9.19 C 546.15 11.28 563.39 16.01 580.61 20.44 C 593.18 23.57 605.44 27.77 617.50 32.49 C 628.61 36.19 639.06 41.57 649.76 46.31 C 661.76 52.41 673.66 58.75 685.01 66.02 C 692.42 70.07 698.99 75.42 706.11 79.92 C 718.33 88.57 730.04 97.89 741.39 107.64 C 745.51 108.07 749.71 107.18 753.84 106.93 C 824.46 100.79 895.21 96.14 966.03 93.32 C 968.38 93.14 971.86 93.13 972.37 96.13 C 973.25 98.47 971.45 100.69 969.32 101.43 C 951.18 109.63 932.77 117.25 914.76 125.71 C 932.50 124.91 950.23 123.92 967.98 123.23 C 974.85 123.33 981.70 122.06 988.58 122.92 C 988.63 124.14 988.70 125.36 988.78 126.58 C 950.26 143.44 911.81 160.47 873.32 177.40 C 870.89 178.38 868.60 179.82 866.03 180.38 C 843.14 176.57 820.24 172.78 797.44 168.47 C 815.44 192.44 831.02 218.25 843.51 245.51 C 847.54 255.24 851.80 264.87 855.40 274.77 C 859.53 287.66 863.89 300.49 867.19 313.62 C 868.97 320.73 870.27 327.94 871.87 335.09 C 914.10 325.85 956.28 316.39 998.61 307.60 C 1024.47 301.90 1050.59 297.34 1076.32 291.06 C 1134.12 277.25 1191.92 263.42 1249.73 249.61 C 1251.75 249.25 1254.24 248.44 1256.00 250.01 C 1257.55 252.10 1257.21 255.51 1254.73 256.74 C 1236.21 269.22 1217.34 281.19 1198.88 293.75 C 1222.11 288.01 1245.33 282.21 1268.56 276.46 C 1270.56 275.76 1272.54 276.18 1273.84 277.95 C 1272.10 281.80 1267.90 283.34 1264.67 285.64 C 1227.50 310.11 1190.34 334.59 1153.20 359.09 C 1152.84 359.19 1152.14 359.39 1151.78 359.50 C 1137.53 359.87 1123.25 359.50 1109.01 360.16 C 1097.11 360.43 1085.12 359.73 1073.31 361.07 C 1024.77 379.94 976.30 399.02 927.77 417.93 C 911.78 424.27 895.67 430.30 879.80 436.92 C 879.31 457.11 875.99 477.14 871.92 496.88 C 865.22 530.88 854.48 564.17 839.33 595.34 C 829.42 616.33 817.09 636.08 803.81 655.09 C 810.48 655.27 817.15 654.94 823.82 655.24 C 827.47 655.48 827.96 661.48 824.50 662.47 C 814.08 665.18 803.47 667.18 793.06 669.91 C 788.42 674.66 784.72 680.31 780.21 685.21 C 803.59 685.62 826.94 686.57 850.32 686.99 C 850.12 687.38 849.73 688.18 849.53 688.57 C 819.55 695.58 789.52 702.41 759.53 709.38 C 758.27 709.70 756.92 710.00 755.99 710.96 C 727.74 738.26 695.61 761.47 661.05 780.11 C 653.39 783.76 645.88 787.73 638.20 791.32 C 632.31 793.70 626.47 796.19 620.59 798.60 C 609.21 803.40 597.28 806.71 585.53 810.45 C 571.70 814.88 557.40 817.39 543.26 820.54 C 524.65 823.93 505.88 826.90 486.94 827.24 C 462.68 827.96 438.27 827.74 414.25 823.92 C 394.99 821.10 375.95 816.81 357.08 812.19 C 343.75 813.30 330.41 814.71 317.06 815.49 C 285.74 817.07 254.22 816.37 223.15 811.78 C 201.49 808.51 179.98 803.14 160.02 793.98 C 144.55 786.58 129.53 776.54 120.19 761.81 C 114.45 752.99 110.94 742.53 111.14 731.95 C 111.21 729.73 109.73 727.96 108.87 726.05 C 102.46 713.35 101.41 698.43 104.89 684.73 C 108.90 669.81 116.52 656.05 125.87 643.83 C 100.08 605.22 80.91 562.14 70.11 516.96 C 69.80 514.16 66.64 513.64 64.68 512.31 C 49.13 503.19 34.67 491.39 24.93 476.03 C 19.12 466.87 15.02 456.53 13.73 445.72 C 13.44 442.78 13.40 439.72 11.99 437.03 C 4.40 421.25 3.44 402.76 7.97 385.97 C 13.69 364.21 26.85 345.25 41.70 328.69 C 45.31 324.33 49.73 320.72 53.31 316.33 C 60.03 310.37 66.92 304.58 73.70 298.68 C 74.45 298.05 74.93 297.26 75.14 296.30 C 78.84 283.12 83.87 270.36 88.72 257.57 C 94.80 243.72 101.00 229.89 108.67 216.84 C 94.66 196.56 80.94 175.21 75.13 150.95 C 73.31 144.17 74.09 136.96 71.82 130.29 C 68.96 120.63 68.63 110.13 71.40 100.42 C 74.37 90.25 82.75 82.59 92.00 78.00 C 106.30 71.15 122.38 69.65 138.00 68.85 C 169.89 68.07 201.52 73.30 232.79 78.80 C 239.26 75.06 244.99 70.14 251.56 66.53 C 266.53 57.02 282.25 48.72 298.42 41.42 C 312.67 34.60 327.67 29.56 342.56 24.36 C 356.96 20.31 371.42 16.49 386.02 13.23 C 396.72 10.51 407.73 9.47 418.62 7.74 C 427.36 6.39 436.24 6.15 444.99 4.85 M 313.27 60.26 C 296.59 67.73 280.10 75.85 264.79 85.87 C 286.22 91.17 307.59 96.76 328.68 103.31 C 330.52 103.94 333.02 104.73 332.93 107.14 C 333.48 110.01 330.78 111.51 328.65 112.61 C 309.02 123.04 293.31 140.92 286.17 162.03 C 283.19 171.52 281.74 182.26 285.69 191.69 C 330.51 174.79 377.01 162.79 423.80 152.81 C 517.69 132.86 613.06 120.91 708.46 111.00 C 698.11 101.96 686.48 94.48 674.95 87.06 C 613.11 48.05 540.04 27.59 467.01 27.57 C 414.28 28.23 361.59 39.01 313.27 60.26 M 116.42 74.64 C 103.77 76.83 90.44 80.74 81.46 90.46 C 73.81 98.64 72.11 110.69 73.97 121.38 C 76.67 137.58 84.32 152.42 92.58 166.42 C 110.54 195.99 133.15 222.38 156.31 247.95 C 136.69 259.08 117.47 270.97 99.13 284.12 C 74.99 301.53 51.93 321.01 33.71 344.71 C 20.73 361.86 10.11 382.02 9.25 403.93 C 8.31 423.29 16.70 442.21 29.86 456.13 C 48.33 475.91 73.38 488.13 98.82 496.34 C 123.44 504.18 149.18 508.20 174.96 509.46 C 221.19 511.37 268.10 504.72 311.21 487.62 C 292.42 486.82 273.64 485.62 255.00 483.05 C 233.83 480.15 212.67 476.06 192.62 468.53 C 180.32 463.78 168.13 457.70 158.87 448.11 C 152.10 441.17 147.47 431.80 147.49 421.99 C 147.18 410.95 151.60 400.41 157.14 391.09 C 166.11 376.24 178.36 363.74 191.01 352.02 C 205.89 338.53 221.90 326.36 238.24 314.70 C 279.52 343.71 322.59 370.20 367.18 393.83 C 407.13 414.92 448.53 433.55 491.68 447.11 C 481.78 450.83 471.67 453.98 461.74 457.62 C 419.58 472.53 377.89 488.81 337.05 507.07 C 297.85 524.71 259.33 544.09 222.85 566.89 C 192.35 586.15 162.74 607.58 138.52 634.51 C 127.49 647.00 117.60 660.83 111.63 676.49 C 106.82 689.13 105.14 703.39 109.37 716.43 C 114.00 731.43 125.43 743.31 138.34 751.72 C 154.07 762.06 172.07 768.39 190.26 772.89 C 217.97 779.65 246.56 781.95 275.01 782.37 C 315.85 782.60 356.62 778.51 396.87 771.74 C 481.06 757.48 562.96 731.77 642.07 699.94 C 690.28 689.82 738.26 678.56 786.26 667.51 C 798.54 664.51 810.98 662.12 823.16 658.79 C 780.78 658.70 738.39 658.27 696.00 658.21 C 682.72 657.72 669.41 657.69 656.13 657.86 C 635.06 673.31 611.72 685.86 586.73 693.67 C 584.23 694.43 581.70 695.30 579.06 695.21 C 539.53 695.55 499.88 695.17 460.61 690.25 C 444.21 687.95 427.64 685.18 412.29 678.73 C 404.67 675.37 396.81 670.89 392.70 663.33 C 389.11 656.84 390.24 648.81 393.51 642.43 C 398.36 632.84 406.23 625.25 414.15 618.17 C 429.10 605.36 445.70 594.64 462.53 584.48 C 499.36 562.61 537.89 543.77 576.69 525.69 C 615.47 507.72 654.70 490.75 694.10 474.22 C 813.73 424.12 935.17 378.54 1055.79 330.94 C 1060.44 329.34 1064.87 326.40 1069.98 326.74 C 1091.65 326.56 1113.34 326.46 1135.00 325.66 C 1138.40 325.31 1142.32 326.45 1145.29 324.28 C 1165.37 311.01 1185.48 297.79 1205.57 284.55 C 1221.46 273.89 1237.72 263.74 1253.40 252.78 C 1236.77 256.35 1220.30 260.64 1203.73 264.49 C 1156.56 275.74 1109.40 287.05 1062.23 298.29 C 1017.03 307.45 971.91 316.97 926.86 326.83 C 838.12 346.40 749.54 366.87 661.90 390.92 C 621.49 402.28 581.02 413.86 542.02 429.49 C 532.51 425.16 523.43 419.95 514.59 414.41 C 481.42 393.45 449.93 369.98 418.54 346.48 C 385.34 321.66 352.95 295.78 319.90 270.77 C 343.26 261.90 366.89 253.77 390.52 245.62 C 475.89 216.59 562.31 190.67 649.43 167.43 C 694.37 155.58 739.47 144.24 785.03 134.99 C 786.66 134.71 788.33 134.21 790.02 134.50 C 812.58 138.84 835.23 142.76 857.92 146.28 C 895.06 130.00 932.20 113.69 969.26 97.21 C 960.84 97.10 952.42 97.60 944.02 98.01 C 904.96 99.78 865.93 102.11 826.92 104.88 C 733.14 111.66 639.48 120.88 546.46 134.71 C 497.64 142.04 448.99 150.63 400.88 161.75 C 361.18 171.02 321.70 181.75 283.71 196.64 C 280.46 190.68 279.30 183.77 279.55 177.04 C 280.44 161.51 287.19 146.80 296.64 134.63 C 305.29 123.18 316.92 114.42 329.39 107.51 C 286.04 94.23 241.87 83.28 196.98 76.70 C 170.35 73.14 143.15 70.48 116.42 74.64 M 619.61 211.63 C 531.17 236.16 443.43 263.34 356.98 294.18 C 368.53 303.63 380.55 312.51 392.32 321.69 C 424.87 346.62 457.67 371.26 491.42 394.56 C 506.45 404.75 521.63 414.79 537.70 423.28 C 539.75 424.29 542.11 425.57 544.38 424.40 C 557.97 419.05 571.77 414.22 585.65 409.67 C 627.51 396.13 669.97 384.50 712.57 373.52 C 758.04 361.67 803.82 351.00 849.56 340.19 C 840.58 294.38 823.01 250.29 798.32 210.68 C 789.95 197.52 781.21 184.50 771.04 172.66 C 720.48 185.30 669.74 197.33 619.61 211.63 M 124.08 237.37 C 117.87 248.87 112.40 260.82 107.83 273.06 C 117.89 266.75 127.71 260.05 137.91 253.96 C 133.29 248.44 128.93 242.70 124.08 237.37 M 216.80 371.80 C 207.27 379.91 197.92 388.23 189.04 397.05 C 182.12 403.22 176.95 411.00 171.32 418.30 C 166.56 426.18 160.26 434.25 160.39 443.88 C 163.58 448.25 168.28 451.23 172.62 454.36 C 189.64 465.26 209.47 470.61 229.02 474.90 C 255.97 480.43 283.48 482.78 310.93 483.81 C 314.75 483.80 315.82 489.99 312.22 491.28 C 294.17 498.92 274.96 503.33 255.91 507.69 C 273.06 511.04 290.53 512.37 307.98 512.62 C 311.24 512.58 314.74 513.26 317.77 511.70 C 351.19 496.03 385.38 482.01 419.87 468.87 C 427.35 465.93 435.04 463.50 442.36 460.16 C 373.13 430.60 307.97 392.21 246.13 349.47 C 236.20 356.71 225.90 363.50 216.80 371.80 M 606.06 550.08 C 567.34 567.71 528.88 586.03 491.68 606.70 C 472.92 617.22 454.36 628.20 437.12 641.10 C 425.70 649.75 414.31 659.01 406.49 671.20 C 415.22 676.57 425.14 679.67 435.07 681.96 C 456.06 686.72 477.56 688.64 499.00 689.97 C 525.65 691.50 552.35 691.74 579.03 691.43 C 584.03 691.08 588.70 689.00 593.41 687.43 C 614.28 679.80 634.10 669.23 651.90 655.92 C 653.36 654.82 655.07 654.00 656.95 654.08 C 695.31 654.32 733.67 654.62 772.04 654.77 C 773.58 654.81 775.37 654.75 776.26 653.24 C 822.16 593.91 850.35 520.97 855.87 446.13 C 772.00 479.31 688.25 512.90 606.06 550.08 M 96.72 526.97 C 103.58 551.49 113.63 575.07 125.40 597.62 C 130.58 607.00 135.53 616.60 141.85 625.27 C 178.03 588.12 222.86 560.99 268.04 536.25 C 259.45 537.37 251.10 539.95 242.46 540.70 C 234.63 541.48 226.84 542.61 218.99 543.15 C 211.99 543.31 205.00 542.59 197.99 542.74 C 163.72 542.99 128.96 539.16 96.72 526.97 M 731.91 684.27 C 737.72 684.44 743.57 684.65 749.37 684.26 C 751.39 682.88 752.80 680.83 754.29 678.94 C 746.80 680.55 739.15 681.80 731.91 684.27 M 659.85 731.72 C 656.29 732.44 652.67 732.99 649.26 734.29 C 577.02 763.41 502.38 787.11 425.83 801.79 C 433.79 803.23 441.92 803.42 449.99 803.88 C 542.53 808.73 636.46 778.77 708.99 721.06 C 692.57 724.41 676.28 728.43 659.85 731.72 Z" />
<path fill="#000000" opacity="1.00" d=" M 319.05 908.16 C 328.26 903.62 338.93 902.52 349.01 904.12 C 354.49 904.92 359.49 907.43 364.64 909.32 C 369.59 911.22 374.15 914.42 377.15 918.84 C 379.65 922.46 380.56 926.85 382.18 930.88 C 384.26 936.29 383.76 942.22 383.44 947.89 C 382.68 955.95 381.16 963.91 379.88 971.90 C 369.84 972.18 359.79 972.02 349.75 972.00 C 349.80 970.41 349.87 968.85 349.93 967.29 C 346.37 967.09 343.17 965.40 339.68 964.90 C 338.84 969.95 337.98 974.99 337.22 980.06 C 345.49 980.39 353.77 980.06 362.04 980.19 C 364.91 979.76 366.19 983.40 369.02 983.22 C 370.52 983.59 372.63 983.00 373.56 984.61 C 373.79 986.93 373.30 989.25 373.05 991.56 C 374.17 992.03 375.30 992.52 376.43 993.02 C 374.25 1004.31 373.02 1016.18 367.48 1026.46 C 355.20 1045.82 325.33 1051.15 307.38 1036.70 C 302.44 1034.50 296.94 1032.99 293.19 1028.81 C 287.54 1023.55 286.20 1015.39 286.45 1008.02 C 286.97 993.65 290.25 979.60 292.37 965.44 C 294.21 954.72 295.67 943.93 298.38 933.39 C 301.03 922.45 308.92 913.00 319.05 908.16 M 332.39 906.56 C 317.99 908.52 304.75 919.01 300.98 933.26 C 297.66 946.13 296.08 959.35 293.76 972.42 C 291.99 984.24 289.24 995.99 289.10 1008.00 C 289.07 1012.85 289.06 1018.00 291.52 1022.37 C 295.24 1029.59 303.31 1033.35 311.05 1034.43 C 319.94 1035.53 329.35 1035.26 337.62 1031.46 C 346.01 1027.56 353.78 1021.13 357.04 1012.23 C 360.53 1002.72 362.18 992.65 363.75 982.68 C 353.61 982.75 343.46 982.46 333.32 982.83 C 331.65 991.88 330.94 1001.20 328.10 1009.99 C 327.28 1013.55 322.77 1014.90 319.84 1013.10 C 317.53 1010.66 318.89 1006.91 318.99 1003.95 C 322.58 981.69 326.25 959.45 330.07 937.23 C 330.94 933.30 331.73 927.00 337.06 927.21 C 339.93 926.56 342.09 929.19 341.46 931.95 C 340.43 942.19 338.33 952.29 336.72 962.45 C 346.85 962.55 356.98 962.44 367.11 962.51 C 369.06 950.43 371.80 938.25 370.67 925.95 C 369.73 917.42 362.62 910.77 354.79 908.15 C 347.63 905.63 339.84 905.79 332.39 906.56 M 366.30 911.84 C 369.21 915.47 372.14 919.35 372.92 924.07 C 374.45 933.16 372.90 942.40 371.53 951.42 C 370.74 956.02 370.33 960.77 368.46 965.10 C 370.73 964.82 373.43 965.67 375.41 964.41 C 377.42 952.74 380.03 940.89 379.00 928.98 C 378.44 921.33 372.69 915.40 366.30 911.84 M 335.24 930.09 C 333.14 932.95 332.83 936.64 332.07 940.01 C 329.29 956.92 326.47 973.83 323.67 990.74 C 322.56 997.56 321.02 1004.37 321.16 1011.32 C 322.74 1011.19 324.95 1011.49 325.52 1009.54 C 327.91 1003.70 328.22 997.27 329.41 991.13 C 330.97 981.74 333.19 972.45 334.26 962.98 C 335.45 951.81 338.58 940.88 338.89 929.62 C 337.66 929.71 336.44 929.86 335.24 930.09 M 366.07 985.26 C 363.92 995.38 362.62 1005.84 358.41 1015.40 C 354.82 1023.39 347.73 1029.19 340.07 1033.09 C 335.62 1035.41 330.60 1036.14 325.86 1037.66 C 338.96 1038.28 352.41 1033.02 360.77 1022.76 C 365.04 1017.51 366.80 1010.83 368.41 1004.40 C 369.88 998.08 371.16 991.70 371.93 985.25 C 369.97 985.24 368.02 985.25 366.07 985.26 Z" />
<path fill="#000000" opacity="1.00" d=" M 42.22 910.12 C 42.43 908.05 43.53 905.69 46.02 906.02 C 58.02 905.85 70.03 905.83 82.03 906.20 C 88.01 906.34 94.09 907.02 99.64 909.40 C 104.35 911.47 109.82 912.57 113.33 916.65 C 117.15 920.52 118.17 926.01 120.09 930.90 C 122.17 936.19 121.75 942.01 121.31 947.57 C 120.55 953.52 119.73 959.63 117.10 965.09 C 115.54 968.45 112.42 970.61 109.57 972.81 C 112.38 979.55 115.95 986.47 115.39 993.99 C 115.05 1000.55 113.54 1006.97 112.59 1013.46 C 111.04 1021.69 109.29 1030.88 102.58 1036.60 C 97.24 1041.24 89.77 1041.35 83.08 1041.79 C 67.94 1042.16 52.79 1041.84 37.64 1041.97 C 37.67 1040.38 37.72 1038.81 37.76 1037.24 C 34.06 1036.97 30.70 1035.16 27.00 1034.97 C 25.42 1034.67 23.44 1034.93 22.41 1033.42 C 21.95 1029.66 23.16 1025.97 23.66 1022.28 C 29.87 984.90 36.12 947.52 42.22 910.12 M 45.12 908.45 C 38.19 949.75 31.46 991.08 24.52 1032.37 C 37.01 1032.48 49.51 1032.38 62.00 1032.42 C 68.95 1032.45 76.00 1032.35 82.79 1030.71 C 88.81 1029.28 93.52 1024.46 95.82 1018.85 C 99.64 1009.87 100.29 1000.02 102.11 990.53 C 102.77 984.59 103.61 977.97 100.38 972.60 C 97.96 968.79 93.51 967.21 89.52 965.65 C 93.48 964.06 97.81 962.96 101.06 960.03 C 104.53 956.93 105.91 952.26 106.98 947.90 C 108.46 941.02 109.30 933.92 108.70 926.89 C 108.31 921.90 105.97 917.09 102.11 913.88 C 97.38 909.92 90.91 909.46 85.03 908.81 C 71.74 908.16 58.42 908.56 45.12 908.45 M 106.23 913.71 C 110.73 920.22 112.21 928.19 111.31 935.99 C 110.59 943.24 109.61 950.72 106.32 957.32 C 104.34 961.40 100.28 963.70 96.64 966.09 C 99.75 968.74 103.57 966.00 106.58 964.55 C 111.62 961.91 113.88 956.29 115.09 951.04 C 116.78 943.54 117.77 935.72 116.78 928.05 C 116.02 921.83 111.81 916.42 106.23 913.71 M 102.14 969.82 C 103.77 973.68 105.30 977.70 105.26 981.98 C 105.26 989.88 103.32 997.61 102.17 1005.40 C 100.48 1013.98 98.38 1023.49 91.20 1029.24 C 85.87 1033.78 78.55 1034.02 71.93 1034.58 C 78.10 1034.86 84.37 1034.86 90.41 1033.43 C 95.44 1032.29 99.89 1029.00 102.48 1024.54 C 106.72 1017.18 107.73 1008.58 109.17 1000.36 C 110.33 993.27 111.83 985.93 110.23 978.79 C 109.29 974.57 105.83 971.67 102.14 969.82 Z" />
<path fill="#000000" opacity="1.00" d=" M 138.42 909.38 C 138.52 907.44 139.97 905.80 142.01 906.02 C 151.35 905.84 160.71 905.90 170.06 905.99 C 172.25 905.84 173.45 908.01 175.29 908.78 C 177.16 909.16 179.07 909.23 180.97 909.43 C 181.61 912.15 181.17 914.94 180.84 917.68 C 181.65 917.85 183.26 918.19 184.06 918.37 C 179.58 947.13 174.43 975.79 169.96 1004.56 C 172.11 1004.99 174.18 1005.75 175.94 1007.08 C 177.99 1008.74 181.03 1007.73 183.08 1009.25 C 183.91 1011.64 182.92 1014.27 182.78 1016.75 C 183.60 1016.93 185.24 1017.30 186.06 1017.48 C 184.91 1025.66 183.45 1033.79 182.05 1041.93 C 165.92 1042.00 149.79 1041.92 133.65 1041.97 C 133.68 1040.38 133.72 1038.80 133.76 1037.24 C 128.56 1036.09 123.33 1035.10 118.18 1033.78 C 118.32 1028.80 119.46 1023.94 120.23 1019.04 C 126.29 982.48 132.34 945.92 138.42 909.38 M 141.15 908.45 C 134.19 949.74 127.48 991.08 120.54 1032.37 C 136.78 1032.50 153.03 1032.33 169.27 1032.46 C 170.88 1024.23 172.07 1015.92 173.50 1007.66 C 167.37 1007.60 161.24 1007.67 155.10 1007.62 C 160.50 974.58 166.02 941.55 171.52 908.53 C 161.40 908.35 151.27 908.50 141.15 908.45 M 173.85 910.89 C 170.79 926.47 168.61 942.23 165.84 957.87 C 163.38 973.62 160.44 989.29 158.17 1005.07 C 160.13 1005.05 162.09 1005.04 164.06 1005.05 C 166.52 991.89 168.45 978.64 170.73 965.45 C 173.60 947.28 177.04 929.19 179.56 910.97 C 177.65 910.93 175.75 910.91 173.85 910.89 M 175.56 1010.30 C 174.11 1018.56 173.18 1026.93 171.10 1035.08 C 173.29 1035.00 175.48 1034.93 177.67 1034.84 C 178.88 1026.56 180.83 1018.37 181.45 1010.02 C 179.48 1010.10 177.52 1010.19 175.56 1010.30 Z" />
<path fill="#000000" opacity="1.00" d=" M 220.95 909.86 C 221.57 908.31 221.92 905.87 224.10 906.09 C 236.72 905.68 249.38 906.10 262.01 905.90 C 264.57 906.02 267.56 905.40 269.57 907.42 C 271.60 909.48 274.69 908.82 277.21 909.80 C 278.12 911.93 277.58 914.38 278.15 916.62 C 279.25 918.24 280.82 919.79 280.43 921.96 C 279.38 961.92 278.19 1001.87 277.45 1041.84 C 267.19 1042.10 256.92 1041.88 246.65 1041.96 C 246.61 1040.40 246.59 1038.87 246.57 1037.34 C 242.21 1036.81 238.22 1034.14 233.70 1035.15 C 233.22 1037.42 232.65 1039.69 232.05 1041.95 C 221.70 1041.95 211.35 1041.99 201.00 1041.92 C 201.27 1040.31 201.56 1038.73 201.85 1037.14 C 197.77 1037.14 194.09 1035.16 190.05 1034.92 C 188.50 1034.59 186.05 1034.92 185.67 1032.86 C 185.97 1028.70 187.68 1024.79 188.74 1020.79 C 199.47 983.81 210.25 946.84 220.95 909.86 M 224.05 908.43 C 211.92 949.71 199.98 991.06 187.99 1032.38 C 198.44 1032.47 208.89 1032.36 219.34 1032.45 C 221.27 1025.13 222.97 1017.76 224.71 1010.41 C 228.35 1010.29 231.98 1010.33 235.62 1010.34 C 235.06 1017.70 234.30 1025.04 233.56 1032.38 C 243.92 1032.46 254.28 1032.39 264.64 1032.42 C 265.57 991.09 266.81 949.77 267.71 908.44 C 253.16 908.44 238.61 908.47 224.05 908.43 M 270.31 911.04 C 269.21 947.03 268.46 983.02 267.49 1019.02 C 267.25 1024.36 267.71 1029.81 266.35 1035.05 C 268.53 1034.99 270.70 1034.95 272.88 1034.94 C 273.83 993.63 275.12 952.33 275.93 911.02 C 274.05 911.01 272.18 911.02 270.31 911.04 M 226.89 1012.77 C 224.68 1020.12 223.43 1027.73 221.11 1035.07 C 223.32 1034.99 225.54 1034.93 227.75 1034.85 C 229.43 1027.52 231.40 1020.26 232.86 1012.89 C 230.86 1012.83 228.88 1012.79 226.89 1012.77 Z" />
<path fill="#000000" opacity="1.00" d=" M 398.47 909.43 C 398.62 907.54 399.95 905.78 402.02 906.03 C 411.36 905.83 420.71 905.90 430.06 905.99 C 432.24 905.83 433.50 907.91 435.29 908.80 C 437.24 909.20 439.24 909.35 441.21 909.67 C 442.23 908.52 443.15 907.24 444.43 906.36 C 446.87 905.65 449.48 905.98 452.00 905.91 C 458.68 906.04 465.37 905.78 472.05 905.99 C 474.55 905.77 475.73 908.68 478.13 908.85 C 480.09 909.17 482.06 909.53 483.93 910.28 C 483.11 912.87 482.00 915.35 480.85 917.81 C 482.63 917.92 484.42 918.04 486.21 918.18 C 477.69 936.91 468.22 955.24 459.90 974.04 C 461.78 996.70 465.04 1019.29 467.30 1041.93 C 456.93 1041.94 446.56 1042.04 436.20 1041.88 C 435.97 1040.36 435.75 1038.87 435.54 1037.38 C 432.02 1036.61 428.73 1034.92 425.08 1034.75 C 424.56 1037.10 424.10 1039.47 423.67 1041.85 C 413.68 1042.09 403.69 1041.89 393.70 1041.96 C 393.72 1040.37 393.76 1038.80 393.80 1037.24 C 390.09 1036.94 386.72 1035.18 383.01 1034.95 C 381.35 1034.80 379.76 1034.31 378.21 1033.73 C 378.41 1028.77 379.52 1023.92 380.30 1019.03 C 386.33 982.49 392.42 945.96 398.47 909.43 M 401.24 908.44 C 394.24 949.73 387.57 991.08 380.60 1032.37 C 390.74 1032.46 400.90 1032.41 411.05 1032.40 C 413.79 1015.20 416.85 998.06 419.45 980.84 C 421.25 997.95 421.97 1015.17 423.29 1032.33 C 433.74 1032.52 444.20 1032.37 454.65 1032.41 C 453.19 1019.64 451.72 1006.87 450.29 994.09 C 449.34 984.14 447.58 974.21 447.21 964.24 C 455.83 945.56 464.86 927.03 473.73 908.46 C 464.23 908.42 454.73 908.48 445.24 908.43 C 438.03 923.92 431.20 939.57 424.07 955.09 C 426.12 939.50 429.13 924.04 431.58 908.51 C 421.47 908.36 411.35 908.50 401.24 908.44 M 433.89 910.85 C 432.08 919.52 430.96 928.32 429.28 937.02 C 432.16 931.53 434.49 925.77 437.13 920.17 C 438.51 917.32 439.38 914.27 439.92 911.17 C 437.90 911.04 435.89 910.94 433.89 910.85 M 475.24 911.10 C 466.78 929.09 457.84 946.89 449.74 965.03 C 451.20 982.38 453.64 999.68 455.43 1017.02 C 455.94 1023.02 457.49 1029.05 456.42 1035.08 C 458.56 1035.00 460.71 1034.93 462.85 1034.87 C 460.46 1013.18 457.96 991.50 455.46 969.83 C 455.27 968.19 455.37 966.52 456.13 965.05 C 464.74 947.03 473.43 929.05 481.89 910.96 C 479.67 910.97 477.45 911.02 475.24 911.10 M 412.40 1035.09 C 414.75 1035.00 417.09 1034.92 419.44 1034.82 C 420.05 1030.91 420.64 1026.97 420.17 1023.02 C 419.52 1016.63 419.48 1010.18 418.61 1003.82 C 415.87 1014.10 415.78 1024.97 412.40 1035.09 Z" />
<path fill="#000000" opacity="1.00" d=" M 492.59 909.26 C 492.65 906.93 494.82 905.72 496.95 905.97 C 510.60 905.98 524.28 905.62 537.91 906.54 C 544.85 906.92 551.17 910.00 557.56 912.44 C 562.57 914.48 566.19 919.05 567.86 924.10 C 569.44 928.95 571.85 933.69 571.79 938.92 C 571.88 947.35 570.95 955.99 567.87 963.89 C 566.45 967.83 562.98 970.37 559.76 972.77 C 561.81 976.80 563.06 981.16 564.66 985.38 C 566.93 993.41 564.56 1001.72 563.41 1009.74 C 561.76 1018.78 560.58 1028.93 553.73 1035.73 C 547.80 1041.67 538.80 1041.43 531.02 1041.88 C 516.61 1042.04 502.20 1041.92 487.78 1041.94 C 487.80 1040.36 487.84 1038.79 487.86 1037.24 C 482.73 1036.23 477.71 1034.78 472.51 1034.10 C 472.34 1029.31 473.49 1024.64 474.25 1019.96 C 480.36 983.06 486.51 946.16 492.59 909.26 M 495.34 908.44 C 488.36 949.73 481.65 991.07 474.73 1032.37 C 489.80 1032.42 504.89 1032.50 519.97 1032.33 C 527.04 1031.82 535.09 1031.76 540.60 1026.60 C 547.04 1020.67 548.62 1011.55 550.15 1003.35 C 551.42 994.28 554.25 984.98 552.05 975.84 C 550.59 970.01 544.66 967.54 539.65 965.48 C 545.67 963.78 552.42 961.16 554.93 954.88 C 558.39 946.06 559.50 936.32 558.87 926.91 C 558.46 918.34 551.52 910.82 542.96 909.86 C 527.23 907.36 511.20 908.89 495.34 908.44 M 556.25 913.69 C 558.39 917.14 560.57 920.70 561.17 924.80 C 562.27 931.83 561.44 939.01 560.13 945.95 C 559.19 950.58 558.01 955.33 555.30 959.28 C 553.21 962.26 549.95 964.03 546.95 965.93 C 547.68 966.50 548.41 967.08 549.16 967.67 C 553.48 966.29 558.06 964.65 561.01 961.01 C 564.12 957.03 565.17 951.93 566.10 947.09 C 567.22 940.53 567.95 933.76 566.83 927.17 C 565.78 921.24 561.64 916.22 556.25 913.69 M 552.26 969.73 C 558.15 980.61 554.20 993.01 552.53 1004.42 C 550.84 1013.34 548.81 1023.34 541.32 1029.32 C 536.20 1033.61 529.25 1033.98 522.91 1034.59 C 531.73 1034.76 541.99 1035.31 549.04 1029.02 C 556.05 1022.22 557.29 1011.94 558.93 1002.80 C 560.10 994.59 562.63 986.04 560.12 977.83 C 559.00 973.98 555.57 971.59 552.26 969.73 Z" />
<path fill="#000000" opacity="1.00" d=" M 588.62 906.59 C 593.34 905.53 598.20 906.00 603.00 905.94 C 615.33 906.00 627.67 905.82 640.01 906.00 C 642.49 905.89 643.63 908.87 646.07 908.96 C 647.66 909.17 649.26 909.28 650.86 909.45 C 651.26 912.03 650.87 914.64 650.44 917.21 C 651.56 917.65 652.69 918.11 653.83 918.56 C 652.54 926.65 651.24 934.74 649.81 942.80 C 643.16 942.94 636.50 942.80 629.85 942.86 C 628.88 946.47 628.29 950.18 628.02 953.92 C 630.13 954.26 632.31 954.66 634.03 956.06 C 636.24 957.80 639.19 957.60 641.81 958.21 C 641.74 960.89 641.51 963.57 641.21 966.24 C 642.02 966.40 643.64 966.71 644.45 966.86 C 643.44 974.59 642.01 982.25 640.76 989.94 C 634.41 990.58 628.03 989.87 621.68 990.42 C 621.00 995.28 620.00 1000.09 619.46 1004.98 C 622.47 1005.30 626.06 1004.24 628.53 1006.50 C 630.60 1008.51 633.65 1008.08 636.23 1008.88 C 637.41 1011.22 636.25 1014.11 636.16 1016.66 C 637.27 1017.05 638.38 1017.45 639.51 1017.88 C 638.12 1025.85 636.81 1033.83 635.54 1041.82 C 618.06 1042.09 600.56 1041.95 583.08 1041.89 C 583.20 1040.32 583.34 1038.77 583.49 1037.23 C 578.39 1036.53 573.58 1034.55 568.38 1034.43 C 567.29 1031.30 568.32 1028.06 568.78 1024.94 C 573.78 995.16 578.66 965.37 583.62 935.58 C 585.34 925.92 586.59 916.18 588.62 906.59 M 590.63 908.46 C 583.88 949.78 576.91 991.07 570.14 1032.39 C 587.44 1032.43 604.75 1032.43 622.05 1032.39 L 622.76 1031.83 C 624.30 1023.81 625.51 1015.72 626.84 1007.66 C 619.47 1007.61 612.09 1007.64 604.72 1007.65 C 605.89 998.62 607.77 989.70 608.99 980.68 C 615.33 980.48 621.68 980.65 628.02 980.58 C 629.26 972.68 630.75 964.83 631.86 956.92 C 625.59 956.76 619.32 956.89 613.05 956.83 C 614.32 949.03 615.65 941.24 616.87 933.43 C 623.60 933.37 630.33 933.40 637.06 933.41 C 638.48 925.10 640.01 916.80 641.10 908.44 C 624.28 908.46 607.45 908.43 590.63 908.46 M 643.30 911.14 C 641.67 919.42 641.37 928.05 638.47 936.02 C 640.80 935.91 643.14 935.82 645.48 935.67 C 646.67 927.40 648.35 919.22 649.37 910.93 C 647.34 910.97 645.32 911.04 643.30 911.14 M 619.08 935.98 C 617.97 942.05 617.01 948.16 616.05 954.27 C 618.15 954.37 620.27 954.34 622.37 954.05 C 623.02 947.98 624.39 942.01 625.03 935.94 C 623.04 935.93 621.06 935.94 619.08 935.98 M 633.98 959.61 C 632.50 967.48 632.07 975.62 629.44 983.23 C 631.67 983.21 633.90 983.21 636.14 983.24 C 637.67 975.38 638.91 967.46 640.09 959.55 C 638.04 959.50 636.01 959.52 633.98 959.61 M 611.26 983.25 C 609.98 990.50 608.70 997.77 607.69 1005.07 C 609.71 1005.04 611.74 1004.99 613.77 1004.94 C 614.82 997.68 616.40 990.50 617.11 983.20 C 615.16 983.20 613.21 983.21 611.26 983.25 M 629.06 1010.21 C 627.27 1018.45 626.90 1027.01 624.24 1035.05 C 626.48 1035.00 628.73 1034.95 630.99 1034.92 C 632.37 1026.67 633.93 1018.46 634.97 1010.17 C 633.00 1010.16 631.03 1010.18 629.06 1010.21 Z" />
<path fill="#000000" opacity="1.00" d=" M 664.32 909.21 C 664.28 906.66 666.77 905.76 668.95 905.95 C 677.96 905.95 686.99 905.83 696.00 906.01 C 698.44 905.99 699.70 908.78 702.10 908.94 C 703.65 909.17 705.21 909.31 706.79 909.51 C 706.94 912.22 706.88 914.95 706.81 917.68 C 707.59 917.86 709.15 918.22 709.93 918.39 C 705.48 947.15 700.16 975.78 695.91 1004.56 C 698.35 1004.98 700.53 1006.12 702.57 1007.51 C 704.62 1008.87 708.21 1007.44 709.35 1010.09 C 709.28 1012.33 708.81 1014.55 708.44 1016.77 C 709.59 1016.98 710.74 1017.21 711.91 1017.45 C 710.80 1025.63 709.29 1033.75 707.93 1041.90 C 691.72 1041.96 675.51 1042.05 659.31 1041.85 C 659.42 1040.29 659.56 1038.74 659.69 1037.20 C 654.47 1036.20 649.31 1035.00 644.13 1033.88 C 644.46 1025.35 646.66 1017.04 647.81 1008.61 C 653.31 975.48 658.79 942.34 664.32 909.21 M 666.95 908.46 C 660.15 949.78 653.25 991.08 646.43 1032.40 C 662.67 1032.46 678.92 1032.36 695.16 1032.45 C 696.70 1024.22 697.91 1015.92 699.39 1007.68 C 693.27 1007.59 687.15 1007.66 681.03 1007.64 C 686.15 974.52 692.15 941.54 697.22 908.42 C 687.13 908.49 677.04 908.43 666.95 908.46 M 699.41 911.16 C 694.40 942.47 688.93 973.71 684.00 1005.03 C 685.99 1005.03 687.98 1005.02 689.99 1005.01 C 695.30 973.66 700.42 942.28 705.62 910.91 C 703.54 910.97 701.47 911.05 699.41 911.16 M 701.49 1010.31 C 699.67 1018.54 699.58 1027.21 696.48 1035.11 C 698.84 1035.01 701.20 1034.93 703.56 1034.83 C 704.71 1026.55 706.61 1018.38 707.37 1010.05 C 705.40 1010.12 703.45 1010.20 701.49 1010.31 Z" />
<path fill="#000000" opacity="1.00" d=" M 719.51 906.53 C 724.28 905.59 729.16 905.98 734.00 905.94 C 750.68 905.92 767.37 905.97 784.06 905.90 C 786.02 905.90 788.18 905.79 789.67 907.34 C 791.79 909.49 795.00 909.07 797.75 909.57 C 797.78 912.18 797.57 914.79 797.26 917.39 C 798.38 917.86 799.51 918.36 800.64 918.87 C 799.13 926.80 797.93 934.79 796.65 942.77 C 790.56 943.03 784.46 942.58 778.39 943.11 C 772.94 976.04 767.48 1008.96 762.00 1041.89 C 752.02 1042.02 742.03 1041.95 732.05 1041.93 C 732.05 1040.36 732.06 1038.80 732.08 1037.25 C 727.72 1036.67 723.64 1034.83 719.21 1034.69 C 715.99 1034.83 716.42 1031.09 716.89 1028.98 C 721.40 1002.31 725.70 975.61 730.23 948.94 C 730.97 945.41 730.50 941.81 730.61 938.24 C 725.50 937.46 720.67 935.46 715.44 935.41 C 714.77 931.58 715.70 927.77 716.35 924.02 C 717.42 918.19 718.07 912.28 719.51 906.53 M 721.47 908.44 C 720.15 916.76 718.75 925.07 717.34 933.38 C 723.28 933.41 729.21 933.41 735.15 933.38 C 730.13 966.43 724.18 999.34 718.99 1032.37 C 729.07 1032.49 739.14 1032.34 749.22 1032.45 C 754.85 999.46 760.20 966.43 765.71 933.42 C 771.77 933.33 777.84 933.50 783.91 933.32 C 785.14 925.00 786.71 916.75 787.92 908.43 C 765.77 908.47 743.62 908.45 721.47 908.44 M 790.10 911.08 C 788.46 919.36 787.86 927.89 785.41 936.00 C 787.58 935.91 789.76 935.87 791.96 935.88 C 793.59 927.63 794.98 919.32 796.04 910.98 C 794.05 911.00 792.07 911.03 790.10 911.08 M 767.68 936.10 C 763.12 965.53 757.96 994.86 753.22 1024.25 C 752.61 1027.93 752.16 1031.71 750.49 1035.11 C 752.86 1035.01 755.24 1034.92 757.62 1034.83 C 762.93 1001.85 768.67 968.95 773.88 935.96 C 771.80 935.97 769.74 936.02 767.68 936.10 Z" />
<path fill="#000000" opacity="1.00" d=" M 842.40 908.39 C 842.63 905.62 845.96 906.09 847.94 905.92 C 868.32 905.96 888.71 905.90 909.10 905.95 C 911.34 905.64 912.93 907.26 914.59 908.47 C 916.81 909.18 919.18 909.31 921.46 909.84 C 921.23 912.29 920.88 914.75 920.46 917.20 C 921.58 917.62 922.72 918.04 923.87 918.47 C 922.69 926.60 921.34 934.71 919.87 942.79 C 913.88 942.95 907.88 942.73 901.89 942.97 C 896.33 974.91 891.20 1006.94 885.92 1038.94 C 885.58 1040.02 885.69 1042.23 883.95 1041.95 C 874.41 1042.01 864.87 1041.95 855.33 1041.92 C 855.32 1040.34 855.34 1038.77 855.36 1037.22 C 850.34 1036.39 845.55 1034.56 840.41 1034.40 C 839.57 1030.63 840.65 1026.86 841.24 1023.15 C 845.45 997.93 849.59 972.70 853.82 947.48 C 854.39 944.39 854.07 941.25 853.89 938.15 C 850.14 937.93 846.73 936.19 843.02 935.90 C 841.35 935.74 839.76 935.30 838.22 934.70 C 839.17 925.87 840.85 917.12 842.40 908.39 M 845.04 908.43 C 843.34 916.66 842.04 924.97 840.90 933.30 C 846.83 933.51 852.78 933.33 858.72 933.41 C 853.26 966.38 847.56 999.33 842.44 1032.35 C 852.53 1032.31 862.65 1032.75 872.73 1032.12 C 878.20 999.21 883.49 966.27 889.15 933.40 C 895.00 933.25 900.88 933.67 906.72 933.23 C 907.81 932.19 907.54 930.46 907.96 929.13 C 908.89 922.21 910.53 915.38 910.99 908.41 C 889.01 908.48 867.02 908.45 845.04 908.43 Z" />
<path fill="#000000" opacity="1.00" d=" M 928.07 906.21 C 939.28 905.78 950.57 905.74 961.77 906.17 C 964.56 908.61 968.01 909.42 971.66 909.60 C 971.81 912.39 971.76 915.19 971.66 917.99 C 972.59 914.48 973.20 910.87 974.53 907.49 C 975.21 905.74 977.41 906.12 978.92 905.94 C 988.29 905.94 997.67 905.88 1007.04 905.97 C 1009.23 905.74 1010.60 907.71 1012.36 908.67 C 1014.43 909.15 1016.58 909.28 1018.70 909.63 C 1018.63 912.39 1017.93 915.08 1017.13 917.72 C 1018.51 917.89 1019.90 918.08 1021.30 918.27 C 1009.68 959.52 997.33 1000.58 985.60 1041.81 C 970.26 1042.08 954.91 1041.99 939.57 1041.85 C 939.44 1040.32 939.32 1038.81 939.19 1037.30 C 934.34 1035.94 929.48 1034.82 924.49 1034.13 C 924.07 1017.41 925.22 1000.70 925.35 983.98 C 925.81 962.00 926.54 940.04 926.88 918.06 C 927.16 914.10 926.77 910.02 928.07 906.21 M 929.69 908.54 C 928.80 949.80 927.67 991.05 926.76 1032.31 C 942.11 1032.46 957.48 1032.54 972.84 1032.27 C 984.78 990.97 996.86 949.71 1008.80 908.41 C 998.07 908.52 987.35 908.32 976.63 908.52 C 969.67 936.02 962.43 963.45 956.25 991.13 C 956.21 989.06 956.22 987.00 956.33 984.96 C 958.47 959.47 960.53 933.95 961.74 908.40 C 951.06 908.56 940.37 908.29 929.69 908.54 Z" />
<path fill="#000000" opacity="1.00" d=" M 72.00 929.72 C 74.33 929.98 76.88 929.81 78.97 931.03 C 81.20 933.91 80.35 937.74 79.91 941.06 C 79.06 945.61 78.54 950.34 76.58 954.58 C 74.69 957.69 70.54 957.26 67.42 957.34 C 68.91 948.12 70.39 938.91 72.00 929.72 M 74.07 932.49 C 72.73 940.00 71.50 947.53 70.40 955.08 C 72.23 954.50 74.58 954.21 74.97 951.93 C 76.85 945.83 78.05 939.40 77.70 933.00 C 76.49 932.81 75.28 932.64 74.07 932.49 Z" />
<path fill="#000000" opacity="1.00" d=" M 522.13 929.87 C 525.02 929.99 529.33 929.49 530.28 933.09 C 531.13 937.14 530.05 941.27 529.37 945.27 C 528.60 948.64 528.19 952.24 526.33 955.24 C 524.15 957.67 520.54 957.22 517.60 957.33 C 519.08 948.17 520.60 939.02 522.13 929.87 M 520.77 955.04 C 522.48 954.49 524.68 954.21 525.08 952.10 C 527.02 946.00 528.22 939.55 527.87 933.13 C 527.05 932.90 525.41 932.45 524.59 932.22 C 522.75 939.70 521.70 947.39 520.77 955.04 Z" />
<path fill="#000000" opacity="1.00" d=" M 228.30 988.26 C 232.54 971.41 236.98 954.57 242.36 938.06 C 240.87 954.78 239.54 971.52 238.53 988.27 C 235.12 988.28 231.71 988.29 228.30 988.26 M 231.76 985.73 C 233.16 985.71 234.56 985.71 235.97 985.72 C 236.76 977.81 237.28 969.87 237.69 961.93 C 235.82 969.89 233.10 977.65 231.76 985.73 Z" />
<path fill="#000000" opacity="1.00" d=" M 64.23 977.17 C 66.72 976.15 70.09 977.14 72.26 978.73 C 73.59 983.47 71.84 988.38 71.28 993.12 C 70.30 998.02 70.12 1003.22 67.85 1007.76 C 66.03 1011.02 61.70 1010.77 58.51 1011.35 C 60.33 999.94 62.06 988.51 64.23 977.17 M 61.71 1008.53 C 65.08 1008.21 66.75 1005.31 67.15 1002.25 C 68.35 994.87 70.15 987.51 70.19 980.00 C 69.29 979.82 67.47 979.47 66.56 979.29 C 64.47 988.94 62.94 998.73 61.71 1008.53 Z" />
<path fill="#000000" opacity="1.00" d=" M 514.39 977.23 C 516.79 976.07 520.19 977.20 522.41 978.63 C 523.30 981.25 522.80 984.09 522.51 986.79 C 521.56 992.35 520.81 997.94 519.61 1003.46 C 518.97 1005.81 518.29 1008.65 515.90 1009.83 C 513.66 1010.90 511.11 1010.97 508.70 1011.34 C 510.49 999.96 512.27 988.56 514.39 977.23 M 516.65 979.40 C 514.77 989.03 513.05 998.72 511.91 1008.47 C 516.80 1008.10 517.29 1002.69 517.97 998.90 C 518.82 992.57 520.61 986.32 520.31 979.88 C 519.39 979.76 517.57 979.52 516.65 979.40 Z" />
</g>
<g id="#ff0606ff">
<path fill="#ff0606" opacity="1.00" d=" M 313.27 60.26 C 361.59 39.01 414.28 28.23 467.01 27.57 C 540.04 27.59 613.11 48.05 674.95 87.06 C 686.48 94.48 698.11 101.96 708.46 111.00 C 613.06 120.91 517.69 132.86 423.80 152.81 C 377.01 162.79 330.51 174.79 285.69 191.69 C 281.74 182.26 283.19 171.52 286.17 162.03 C 293.31 140.92 309.02 123.04 328.65 112.61 C 330.78 111.51 333.48 110.01 332.93 107.14 C 333.02 104.73 330.52 103.94 328.68 103.31 C 307.59 96.76 286.22 91.17 264.79 85.87 C 280.10 75.85 296.59 67.73 313.27 60.26 Z" />
<path fill="#ff0606" opacity="1.00" d=" M 619.61 211.63 C 669.74 197.33 720.48 185.30 771.04 172.66 C 781.21 184.50 789.95 197.52 798.32 210.68 C 823.01 250.29 840.58 294.38 849.56 340.19 C 803.82 351.00 758.04 361.67 712.57 373.52 C 669.97 384.50 627.51 396.13 585.65 409.67 C 571.77 414.22 557.97 419.05 544.38 424.40 C 542.11 425.57 539.75 424.29 537.70 423.28 C 521.63 414.79 506.45 404.75 491.42 394.56 C 457.67 371.26 424.87 346.62 392.32 321.69 C 380.55 312.51 368.53 303.63 356.98 294.18 C 443.43 263.34 531.17 236.16 619.61 211.63 Z" />
<path fill="#ff0606" opacity="1.00" d=" M 124.08 237.37 C 128.93 242.70 133.29 248.44 137.91 253.96 C 127.71 260.05 117.89 266.75 107.83 273.06 C 112.40 260.82 117.87 248.87 124.08 237.37 Z" />
<path fill="#ff0606" opacity="1.00" d=" M 216.80 371.80 C 225.90 363.50 236.20 356.71 246.13 349.47 C 307.97 392.21 373.13 430.60 442.36 460.16 C 435.04 463.50 427.35 465.93 419.87 468.87 C 385.38 482.01 351.19 496.03 317.77 511.70 C 314.74 513.26 311.24 512.58 307.98 512.62 C 290.53 512.37 273.06 511.04 255.91 507.69 C 274.96 503.33 294.17 498.92 312.22 491.28 C 315.82 489.99 314.75 483.80 310.93 483.81 C 283.48 482.78 255.97 480.43 229.02 474.90 C 209.47 470.61 189.64 465.26 172.62 454.36 C 168.28 451.23 163.58 448.25 160.39 443.88 C 160.26 434.25 166.56 426.18 171.32 418.30 C 176.95 411.00 182.12 403.22 189.04 397.05 C 197.92 388.23 207.27 379.91 216.80 371.80 Z" />
<path fill="#ff0606" opacity="1.00" d=" M 606.06 550.08 C 688.25 512.90 772.00 479.31 855.87 446.13 C 850.35 520.97 822.16 593.91 776.26 653.24 C 775.37 654.75 773.58 654.81 772.04 654.77 C 733.67 654.62 695.31 654.32 656.95 654.08 C 655.07 654.00 653.36 654.82 651.90 655.92 C 634.10 669.23 614.28 679.80 593.41 687.43 C 588.70 689.00 584.03 691.08 579.03 691.43 C 552.35 691.74 525.65 691.50 499.00 689.97 C 477.56 688.64 456.06 686.72 435.07 681.96 C 425.14 679.67 415.22 676.57 406.49 671.20 C 414.31 659.01 425.70 649.75 437.12 641.10 C 454.36 628.20 472.92 617.22 491.68 606.70 C 528.88 586.03 567.34 567.71 606.06 550.08 M 664.87 534.86 C 660.62 542.07 660.65 550.86 661.56 558.94 C 661.95 560.77 661.84 563.22 663.74 564.24 C 668.48 567.20 674.58 566.73 679.26 569.81 C 680.80 570.52 679.97 572.35 679.86 573.60 C 675.80 595.17 666.27 615.59 665.04 637.70 C 669.92 636.74 673.26 632.93 676.58 629.57 C 678.96 627.00 682.22 625.58 685.50 624.52 C 689.00 607.91 703.76 596.12 705.76 579.00 C 705.65 576.52 707.78 575.34 709.29 573.79 C 709.44 570.07 707.31 566.75 706.62 563.17 C 713.35 562.37 720.12 563.55 726.85 562.85 C 726.24 555.10 722.54 547.70 723.99 539.81 C 714.87 535.93 705.09 533.76 695.28 532.53 C 685.18 531.36 674.46 531.09 664.87 534.86 M 752.53 593.44 C 749.50 575.67 746.17 557.76 747.31 539.65 C 743.04 539.71 737.92 540.55 735.70 544.70 C 732.31 551.34 734.52 558.93 734.48 566.00 C 734.71 576.66 730.45 587.12 732.45 597.77 C 733.73 606.67 736.72 616.32 732.14 624.80 C 736.39 627.27 739.85 630.85 742.35 635.06 C 757.03 628.61 768.75 617.12 779.47 605.48 C 788.28 595.40 797.01 584.90 802.51 572.57 C 804.53 568.65 803.62 564.18 803.95 559.97 C 804.35 553.15 806.48 546.16 804.33 539.43 C 803.45 536.40 801.20 534.11 798.99 532.00 C 784.55 553.25 768.32 573.22 752.53 593.44 Z" />
<path fill="#ff0606" opacity="1.00" d=" M 96.72 526.97 C 128.96 539.16 163.72 542.99 197.99 542.74 C 205.00 542.59 211.99 543.31 218.99 543.15 C 226.84 542.61 234.63 541.48 242.46 540.70 C 251.10 539.95 259.45 537.37 268.04 536.25 C 222.86 560.99 178.03 588.12 141.85 625.27 C 135.53 616.60 130.58 607.00 125.40 597.62 C 113.63 575.07 103.58 551.49 96.72 526.97 Z" />
<path fill="#ff0606" opacity="1.00" d=" M 731.91 684.27 C 739.15 681.80 746.80 680.55 754.29 678.94 C 752.80 680.83 751.39 682.88 749.37 684.26 C 743.57 684.65 737.72 684.44 731.91 684.27 Z" />
<path fill="#ff0606" opacity="1.00" d=" M 659.85 731.72 C 676.28 728.43 692.57 724.41 708.99 721.06 C 636.46 778.77 542.53 808.73 449.99 803.88 C 441.92 803.42 433.79 803.23 425.83 801.79 C 502.38 787.11 577.02 763.41 649.26 734.29 C 652.67 732.99 656.29 732.44 659.85 731.72 Z" />
<path fill="#ff0606" opacity="1.00" d=" M 845.04 908.43 C 867.02 908.45 889.01 908.48 910.99 908.41 C 910.53 915.38 908.89 922.21 907.96 929.13 C 907.54 930.46 907.81 932.19 906.72 933.23 C 900.88 933.67 895.00 933.25 889.15 933.40 C 883.49 966.27 878.20 999.21 872.73 1032.12 C 862.65 1032.75 852.53 1032.31 842.44 1032.35 C 847.56 999.33 853.26 966.38 858.72 933.41 C 852.78 933.33 846.83 933.51 840.90 933.30 C 842.04 924.97 843.34 916.66 845.04 908.43 Z" />
<path fill="#ff0606" opacity="1.00" d=" M 929.69 908.54 C 940.37 908.29 951.06 908.56 961.74 908.40 C 960.53 933.95 958.47 959.47 956.33 984.96 C 956.22 987.00 956.21 989.06 956.25 991.13 C 962.43 963.45 969.67 936.02 976.63 908.52 C 987.35 908.32 998.07 908.52 1008.80 908.41 C 996.86 949.71 984.78 990.97 972.84 1032.27 C 957.48 1032.54 942.11 1032.46 926.76 1032.31 C 927.67 991.05 928.80 949.80 929.69 908.54 Z" />
<path fill="#ff0606" opacity="1.00" d=" M 173.85 910.89 C 175.75 910.91 177.65 910.93 179.56 910.97 C 177.04 929.19 173.60 947.28 170.73 965.45 C 168.45 978.64 166.52 991.89 164.06 1005.05 C 162.09 1005.04 160.13 1005.05 158.17 1005.07 C 160.44 989.29 163.38 973.62 165.84 957.87 C 168.61 942.23 170.79 926.47 173.85 910.89 Z" />
<path fill="#ff0606" opacity="1.00" d=" M 270.31 911.04 C 272.18 911.02 274.05 911.01 275.93 911.02 C 275.12 952.33 273.83 993.63 272.88 1034.94 C 270.70 1034.95 268.53 1034.99 266.35 1035.05 C 267.71 1029.81 267.25 1024.36 267.49 1019.02 C 268.46 983.02 269.21 947.03 270.31 911.04 Z" />
<path fill="#ff0606" opacity="1.00" d=" M 433.89 910.85 C 435.89 910.94 437.90 911.04 439.92 911.17 C 439.38 914.27 438.51 917.32 437.13 920.17 C 434.49 925.77 432.16 931.53 429.28 937.02 C 430.96 928.32 432.08 919.52 433.89 910.85 Z" />
<path fill="#ff0606" opacity="1.00" d=" M 475.24 911.10 C 477.45 911.02 479.67 910.97 481.89 910.96 C 473.43 929.05 464.74 947.03 456.13 965.05 C 455.37 966.52 455.27 968.19 455.46 969.83 C 457.96 991.50 460.46 1013.18 462.85 1034.87 C 460.71 1034.93 458.56 1035.00 456.42 1035.08 C 457.49 1029.05 455.94 1023.02 455.43 1017.02 C 453.64 999.68 451.20 982.38 449.74 965.03 C 457.84 946.89 466.78 929.09 475.24 911.10 Z" />
<path fill="#ff0606" opacity="1.00" d=" M 643.30 911.14 C 645.32 911.04 647.34 910.97 649.37 910.93 C 648.35 919.22 646.67 927.40 645.48 935.67 C 643.14 935.82 640.80 935.91 638.47 936.02 C 641.37 928.05 641.67 919.42 643.30 911.14 Z" />
<path fill="#ff0606" opacity="1.00" d=" M 699.41 911.16 C 701.47 911.05 703.54 910.97 705.62 910.91 C 700.42 942.28 695.30 973.66 689.99 1005.01 C 687.98 1005.02 685.99 1005.03 684.00 1005.03 C 688.93 973.71 694.40 942.47 699.41 911.16 Z" />
<path fill="#ff0606" opacity="1.00" d=" M 790.10 911.08 C 792.07 911.03 794.05 911.00 796.04 910.98 C 794.98 919.32 793.59 927.63 791.96 935.88 C 789.76 935.87 787.58 935.91 785.41 936.00 C 787.86 927.89 788.46 919.36 790.10 911.08 Z" />
<path fill="#ff0606" opacity="1.00" d=" M 366.30 911.84 C 372.69 915.40 378.44 921.33 379.00 928.98 C 380.03 940.89 377.42 952.74 375.41 964.41 C 373.43 965.67 370.73 964.82 368.46 965.10 C 370.33 960.77 370.74 956.02 371.53 951.42 C 372.90 942.40 374.45 933.16 372.92 924.07 C 372.14 919.35 369.21 915.47 366.30 911.84 Z" />
<path fill="#ff0606" opacity="1.00" d=" M 106.23 913.71 C 111.81 916.42 116.02 921.83 116.78 928.05 C 117.77 935.72 116.78 943.54 115.09 951.04 C 113.88 956.29 111.62 961.91 106.58 964.55 C 103.57 966.00 99.75 968.74 96.64 966.09 C 100.28 963.70 104.34 961.40 106.32 957.32 C 109.61 950.72 110.59 943.24 111.31 935.99 C 112.21 928.19 110.73 920.22 106.23 913.71 Z" />
<path fill="#ff0606" opacity="1.00" d=" M 556.25 913.69 C 561.64 916.22 565.78 921.24 566.83 927.17 C 567.95 933.76 567.22 940.53 566.10 947.09 C 565.17 951.93 564.12 957.03 561.01 961.01 C 558.06 964.65 553.48 966.29 549.16 967.67 C 548.41 967.08 547.68 966.50 546.95 965.93 C 549.95 964.03 553.21 962.26 555.30 959.28 C 558.01 955.33 559.19 950.58 560.13 945.95 C 561.44 939.01 562.27 931.83 561.17 924.80 C 560.57 920.70 558.39 917.14 556.25 913.69 Z" />
<path fill="#ff0606" opacity="1.00" d=" M 335.24 930.09 C 336.44 929.86 337.66 929.71 338.89 929.62 C 338.58 940.88 335.45 951.81 334.26 962.98 C 333.19 972.45 330.97 981.74 329.41 991.13 C 328.22 997.27 327.91 1003.70 325.52 1009.54 C 324.95 1011.49 322.74 1011.19 321.16 1011.32 C 321.02 1004.37 322.56 997.56 323.67 990.74 C 326.47 973.83 329.29 956.92 332.07 940.01 C 332.83 936.64 333.14 932.95 335.24 930.09 Z" />
<path fill="#ff0606" opacity="1.00" d=" M 74.07 932.49 C 75.28 932.64 76.49 932.81 77.70 933.00 C 78.05 939.40 76.85 945.83 74.97 951.93 C 74.58 954.21 72.23 954.50 70.40 955.08 C 71.50 947.53 72.73 940.00 74.07 932.49 Z" />
<path fill="#ff0606" opacity="1.00" d=" M 520.77 955.04 C 521.70 947.39 522.75 939.70 524.59 932.22 C 525.41 932.45 527.05 932.90 527.87 933.13 C 528.22 939.55 527.02 946.00 525.08 952.10 C 524.68 954.21 522.48 954.49 520.77 955.04 Z" />
<path fill="#ff0606" opacity="1.00" d=" M 619.08 935.98 C 621.06 935.94 623.04 935.93 625.03 935.94 C 624.39 942.01 623.02 947.98 622.37 954.05 C 620.27 954.34 618.15 954.37 616.05 954.27 C 617.01 948.16 617.97 942.05 619.08 935.98 Z" />
<path fill="#ff0606" opacity="1.00" d=" M 767.68 936.10 C 769.74 936.02 771.80 935.97 773.88 935.96 C 768.67 968.95 762.93 1001.85 757.62 1034.83 C 755.24 1034.92 752.86 1035.01 750.49 1035.11 C 752.16 1031.71 752.61 1027.93 753.22 1024.25 C 757.96 994.86 763.12 965.53 767.68 936.10 Z" />
<path fill="#ff0606" opacity="1.00" d=" M 633.98 959.61 C 636.01 959.52 638.04 959.50 640.09 959.55 C 638.91 967.46 637.67 975.38 636.14 983.24 C 633.90 983.21 631.67 983.21 629.44 983.23 C 632.07 975.62 632.50 967.48 633.98 959.61 Z" />
<path fill="#ff0606" opacity="1.00" d=" M 231.76 985.73 C 233.10 977.65 235.82 969.89 237.69 961.93 C 237.28 969.87 236.76 977.81 235.97 985.72 C 234.56 985.71 233.16 985.71 231.76 985.73 Z" />
<path fill="#ff0606" opacity="1.00" d=" M 102.14 969.82 C 105.83 971.67 109.29 974.57 110.23 978.79 C 111.83 985.93 110.33 993.27 109.17 1000.36 C 107.73 1008.58 106.72 1017.18 102.48 1024.54 C 99.89 1029.00 95.44 1032.29 90.41 1033.43 C 84.37 1034.86 78.10 1034.86 71.93 1034.58 C 78.55 1034.02 85.87 1033.78 91.20 1029.24 C 98.38 1023.49 100.48 1013.98 102.17 1005.40 C 103.32 997.61 105.26 989.88 105.26 981.98 C 105.30 977.70 103.77 973.68 102.14 969.82 Z" />
<path fill="#ff0606" opacity="1.00" d=" M 552.26 969.73 C 555.57 971.59 559.00 973.98 560.12 977.83 C 562.63 986.04 560.10 994.59 558.93 1002.80 C 557.29 1011.94 556.05 1022.22 549.04 1029.02 C 541.99 1035.31 531.73 1034.76 522.91 1034.59 C 529.25 1033.98 536.20 1033.61 541.32 1029.32 C 548.81 1023.34 550.84 1013.34 552.53 1004.42 C 554.20 993.01 558.15 980.61 552.26 969.73 Z" />
<path fill="#ff0606" opacity="1.00" d=" M 61.71 1008.53 C 62.94 998.73 64.47 988.94 66.56 979.29 C 67.47 979.47 69.29 979.82 70.19 980.00 C 70.15 987.51 68.35 994.87 67.15 1002.25 C 66.75 1005.31 65.08 1008.21 61.71 1008.53 Z" />
<path fill="#ff0606" opacity="1.00" d=" M 516.65 979.40 C 517.57 979.52 519.39 979.76 520.31 979.88 C 520.61 986.32 518.82 992.57 517.97 998.90 C 517.29 1002.69 516.80 1008.10 511.91 1008.47 C 513.05 998.72 514.77 989.03 516.65 979.40 Z" />
<path fill="#ff0606" opacity="1.00" d=" M 611.26 983.25 C 613.21 983.21 615.16 983.20 617.11 983.20 C 616.40 990.50 614.82 997.68 613.77 1004.94 C 611.74 1004.99 609.71 1005.04 607.69 1005.07 C 608.70 997.77 609.98 990.50 611.26 983.25 Z" />
<path fill="#ff0606" opacity="1.00" d=" M 366.07 985.26 C 368.02 985.25 369.97 985.24 371.93 985.25 C 371.16 991.70 369.88 998.08 368.41 1004.40 C 366.80 1010.83 365.04 1017.51 360.77 1022.76 C 352.41 1033.02 338.96 1038.28 325.86 1037.66 C 330.60 1036.14 335.62 1035.41 340.07 1033.09 C 347.73 1029.19 354.82 1023.39 358.41 1015.40 C 362.62 1005.84 363.92 995.38 366.07 985.26 Z" />
<path fill="#ff0606" opacity="1.00" d=" M 412.40 1035.09 C 415.78 1024.97 415.87 1014.10 418.61 1003.82 C 419.48 1010.18 419.52 1016.63 420.17 1023.02 C 420.64 1026.97 420.05 1030.91 419.44 1034.82 C 417.09 1034.92 414.75 1035.00 412.40 1035.09 Z" />
<path fill="#ff0606" opacity="1.00" d=" M 175.56 1010.30 C 177.52 1010.19 179.48 1010.10 181.45 1010.02 C 180.83 1018.37 178.88 1026.56 177.67 1034.84 C 175.48 1034.93 173.29 1035.00 171.10 1035.08 C 173.18 1026.93 174.11 1018.56 175.56 1010.30 Z" />
<path fill="#ff0606" opacity="1.00" d=" M 629.06 1010.21 C 631.03 1010.18 633.00 1010.16 634.97 1010.17 C 633.93 1018.46 632.37 1026.67 630.99 1034.92 C 628.73 1034.95 626.48 1035.00 624.24 1035.05 C 626.90 1027.01 627.27 1018.45 629.06 1010.21 Z" />
<path fill="#ff0606" opacity="1.00" d=" M 701.49 1010.31 C 703.45 1010.20 705.40 1010.12 707.37 1010.05 C 706.61 1018.38 704.71 1026.55 703.56 1034.83 C 701.20 1034.93 698.84 1035.01 696.48 1035.11 C 699.58 1027.21 699.67 1018.54 701.49 1010.31 Z" />
<path fill="#ff0606" opacity="1.00" d=" M 226.89 1012.77 C 228.88 1012.79 230.86 1012.83 232.86 1012.89 C 231.40 1020.26 229.43 1027.52 227.75 1034.85 C 225.54 1034.93 223.32 1034.99 221.11 1035.07 C 223.43 1027.73 224.68 1020.12 226.89 1012.77 Z" />
</g>
</svg>
