<?xml version="1.0" encoding="UTF-8" standalone="no"?>
<svg
   xmlns:dc="http://purl.org/dc/elements/1.1/"
   xmlns:cc="http://creativecommons.org/ns#"
   xmlns:rdf="http://www.w3.org/1999/02/22-rdf-syntax-ns#"
   xmlns:svg="http://www.w3.org/2000/svg"
   xmlns="http://www.w3.org/2000/svg"
   xmlns:xlink="http://www.w3.org/1999/xlink"
   xmlns:sodipodi="http://sodipodi.sourceforge.net/DTD/sodipodi-0.dtd"
   xmlns:inkscape="http://www.inkscape.org/namespaces/inkscape"
   viewBox="0 0 1456.229 279.26501"
   version="1.1"
   id="svg16"
   sodipodi:docname="Brazzers TV Europe - Dark.svg"
   width="1456.229"
   height="279.26501"
   inkscape:version="0.92.0 r15299">
  <metadata
     id="metadata22">
    <rdf:RDF>
      <cc:Work
         rdf:about="">
        <dc:format>image/svg+xml</dc:format>
        <dc:type
           rdf:resource="http://purl.org/dc/dcmitype/StillImage" />
        <dc:title></dc:title>
      </cc:Work>
    </rdf:RDF>
  </metadata>
  <defs
     id="defs20">
    <linearGradient
       inkscape:collect="always"
       id="linearGradient4518">
      <stop
         style="stop-color:#4f4f4f;stop-opacity:1"
         offset="0"
         id="stop4514" />
      <stop
         style="stop-color:#000000;stop-opacity:1"
         offset="1"
         id="stop4516" />
    </linearGradient>
    <linearGradient
       inkscape:collect="always"
       id="linearGradient4570">
      <stop
         style="stop-color:#fcc91c;stop-opacity:1"
         offset="0"
         id="stop4566" />
      <stop
         id="stop4574"
         offset="0.87073165"
         style="stop-color:#9d752b;stop-opacity:1" />
      <stop
         style="stop-color:#d9b51f;stop-opacity:1"
         offset="1"
         id="stop4568" />
    </linearGradient>
    <linearGradient
       inkscape:collect="always"
       id="linearGradient4542">
      <stop
         style="stop-color:#ffcc1b;stop-opacity:1"
         offset="0"
         id="stop4538" />
      <stop
         style="stop-color:#a57c2a;stop-opacity:1"
         offset="1"
         id="stop4540" />
    </linearGradient>
    <linearGradient
       inkscape:collect="always"
       xlink:href="#linearGradient4542"
       id="linearGradient4544"
       x1="629.23059"
       y1="348.19827"
       x2="629.23059"
       y2="449.60672"
       gradientUnits="userSpaceOnUse"
       gradientTransform="translate(-59.188,-286.743)" />
    <linearGradient
       inkscape:collect="always"
       xlink:href="#linearGradient4542"
       id="linearGradient4552"
       x1="905.79352"
       y1="472.31213"
       x2="905.79352"
       y2="565.2699"
       gradientUnits="userSpaceOnUse" />
    <linearGradient
       inkscape:collect="always"
       xlink:href="#linearGradient4570"
       id="linearGradient4572"
       x1="1375.0116"
       y1="287.09033"
       x2="1375.0116"
       y2="500.47064"
       gradientUnits="userSpaceOnUse" />
    <linearGradient
       inkscape:collect="always"
       xlink:href="#linearGradient4570"
       id="linearGradient4580"
       gradientUnits="userSpaceOnUse"
       x1="1375.0116"
       y1="287.09033"
       x2="1375.0116"
       y2="500.47064" />
    <linearGradient
       inkscape:collect="always"
       xlink:href="#linearGradient4542"
       id="linearGradient4582"
       gradientUnits="userSpaceOnUse"
       x1="905.79352"
       y1="472.31213"
       x2="905.79352"
       y2="565.2699" />
    <linearGradient
       inkscape:collect="always"
       xlink:href="#linearGradient4518"
       id="linearGradient4520"
       x1="283.13165"
       y1="348.19928"
       x2="283.13165"
       y2="449.60773"
       gradientUnits="userSpaceOnUse" />
  </defs>
  <sodipodi:namedview
     pagecolor="#ffffff"
     bordercolor="#666666"
     borderopacity="1"
     objecttolerance="10"
     gridtolerance="10"
     guidetolerance="10"
     inkscape:pageopacity="0"
     inkscape:pageshadow="2"
     inkscape:window-width="1920"
     inkscape:window-height="1017"
     id="namedview18"
     showgrid="false"
     fit-margin-top="0"
     fit-margin-left="0"
     fit-margin-right="0"
     fit-margin-bottom="0"
     inkscape:zoom="0.71"
     inkscape:cx="444.76414"
     inkscape:cy="340.96624"
     inkscape:window-x="-8"
     inkscape:window-y="-8"
     inkscape:window-maximized="1"
     inkscape:current-layer="svg16" />
  <path
     d="M 443.282,163.534 V 152.358 L 515.124,79.161 H 450.482 V 60.785 h 103.14 v 10.209 l -72.906,73.193 h 72.906 v 19.346 h -110.34 z m 146.624,0 V 152.358 L 661.744,79.161 H 597.099 V 60.785 h 103.147 v 10.209 l -72.918,73.193 h 72.918 v 19.346 h -110.34 z"
     id="path4"
     style="fill:url(#linearGradient4544);fill-opacity:1"
     inkscape:connector-curvature="0" />
  <g
     id="g4556"
     style="fill:url(#linearGradient4520);fill-opacity:1"
     transform="translate(-59.188,-286.743)">
    <path
       id="path2"
       d="M 59.188,450.277 V 347.529 h 88.08 c 8.096,0 13.958,1.585 17.589,4.765 3.631,3.177 5.443,8.228 5.443,15.159 V 380 c 0,4.923 -1.522,8.859 -4.565,11.81 -3.049,2.944 -7.424,4.776 -13.122,5.494 5.895,0.777 10.446,2.88 13.648,6.312 3.215,3.434 4.821,7.912 4.821,13.415 v 13.124 c 0,6.812 -2.498,11.863 -7.486,15.17 -4.991,3.3 -12.576,4.953 -22.749,4.953 H 59.188 Z m 78.066,-86.03 H 82.711 v 24.5 h 54.544 c 4.142,0 7.005,-0.552 8.601,-1.65 1.585,-1.105 2.385,-3.016 2.385,-5.737 v -9.724 c 0,-2.653 -0.8,-4.552 -2.385,-5.682 -1.597,-1.138 -4.46,-1.707 -8.602,-1.707 z m 0,41.41 H 82.711 v 26.15 h 54.544 c 4.532,0 7.591,-0.679 9.187,-2.038 1.589,-1.361 2.373,-3.759 2.373,-7.189 v -7.782 c 0,-3.434 -0.785,-5.816 -2.373,-7.152 -1.597,-1.325 -4.656,-1.989 -9.188,-1.989 z m 70.116,44.62 V 347.529 h 87.875 c 8.167,0 14.081,1.572 17.737,4.716 3.659,3.14 5.495,8.212 5.495,15.207 v 24.109 c 0,6.936 -1.836,11.993 -5.495,15.168 -3.656,3.166 -9.57,4.754 -17.737,4.754 H 281.83 l 47.435,38.794 h -34.311 l -41.41,-38.794 h -22.655 v 38.794 z m 77.281,-84.962 h -53.763 v 28.586 h 53.763 c 4.146,0 6.978,-0.602 8.502,-1.806 1.523,-1.19 2.289,-3.318 2.289,-6.361 v -12.346 c 0,-2.98 -0.766,-5.072 -2.289,-6.274 -1.523,-1.197 -4.356,-1.799 -8.502,-1.799 z m 180.635,-4.998 c -0.857,-3.385 -2.331,-6.129 -4.594,-8.081 -3.675,-3.131 -9.562,-4.715 -17.731,-4.715 h -64.634 c -8.161,0 -14.102,1.584 -17.737,4.715 0,0.005 -0.009,0.009 -0.009,0.009 -0.004,0.004 -0.008,0.004 -0.008,0.008 -1.506,1.29 -2.618,2.976 -3.503,4.921 -1.286,2.777 -2.011,6.152 -2.011,10.293 l 0.021,82.819 h 23.523 V 411.52 h 64.064 v 38.765 h 23.519 v -82.82 c 0,-2.698 -0.349,-5.024 -0.9,-7.148 z m -87.171,33.592 v -20.515 c 0,-2.974 0.762,-5.07 2.287,-6.265 1.466,-1.154 4.169,-1.744 8.058,-1.785 h 43.891 c 4.172,0 6.982,0.59 8.521,1.763 1.5,1.228 2.27,3.318 2.27,6.31 v 20.492 z"
       style="fill:url(#linearGradient4520);fill-opacity:1"
       inkscape:connector-curvature="0" />
    <path
       id="path6"
       d="M 795.718,450.277 V 347.529 h 105.183 v 17.49 h -81.274 v 22.951 h 47.435 v 17.5 h -47.435 v 25.461 h 82.25 v 19.346 H 795.718 Z m 142.44,0 V 347.529 h 87.885 c 8.153,0 14.071,1.572 17.731,4.716 3.66,3.14 5.493,8.212 5.493,15.207 v 24.109 c 0,6.936 -1.834,11.993 -5.493,15.168 -3.659,3.166 -9.577,4.754 -17.731,4.754 h -13.428 l 47.443,38.794 h -34.309 L 984.327,411.483 H 961.68 v 38.794 z m 77.274,-84.962 H 961.68 v 28.586 h 53.751 c 4.149,0 6.99,-0.602 8.506,-1.806 1.523,-1.19 2.285,-3.318 2.285,-6.361 v -12.346 c 0,-2.98 -0.762,-5.072 -2.285,-6.274 -1.515,-1.197 -4.356,-1.799 -8.505,-1.799 z m 158.345,0.197 h -67.271 v 22.066 h 64.052 c 10.048,0 16.843,1.715 20.38,5.156 3.522,3.434 5.294,9.817 5.294,19.145 v 14.094 c 0,9.336 -1.772,15.719 -5.294,19.162 -3.537,3.422 -10.331,5.141 -20.38,5.141 h -63.47 c -10.048,0 -16.835,-1.719 -20.368,-5.141 -3.533,-3.443 -5.29,-9.826 -5.29,-19.162 v -4.115 h 21.088 v 9.072 h 72.611 v -23.423 h -64.06 c -9.976,0 -16.72,-1.721 -20.219,-5.154 -3.502,-3.43 -5.248,-9.82 -5.248,-19.154 v -11.37 c 0,-9.331 1.746,-15.709 5.248,-19.152 3.499,-3.438 10.243,-5.149 20.219,-5.149 h 58.329 c 9.662,0 16.307,1.65 19.978,4.953 3.659,3.312 5.493,9.174 5.493,17.596 v 4.591 h -21.092 z"
       style="fill:url(#linearGradient4520);fill-opacity:1"
       inkscape:connector-curvature="0" />
  </g>
  <g
     id="g10"
     style="fill:url(#linearGradient4572);fill-opacity:1"
     transform="translate(-59.188,-286.743)">
    <path
       d="m 1500.404,299.986 c 0,0 -41.51,-13.243 -121.739,-13.243 -80.24,0 -121.743,13.243 -121.743,13.243 -15.009,17.661 -15.009,93.791 -15.009,93.791 0,0 0,76.129 15.009,93.791 0,0 41.502,13.25 121.743,13.25 80.229,0 121.739,-13.25 121.739,-13.25 15.013,-17.662 15.013,-93.791 15.013,-93.791 0,0 0,-76.13 -15.013,-93.791 z m -57.327,150.341 h -29.567 l -27.718,-74.091 c -1.623,-4.318 -6.714,-7.854 -11.323,-7.854 h -24.376 c -4.613,0 -8.383,3.774 -8.383,8.39 v 73.555 h -30.631 v -73.555 c 0,-4.616 -3.774,-8.39 -8.391,-8.39 h -28.392 v -28.354 h 127.898 c 0,0 25.873,75.014 26.347,74.738 0.754,-0.446 27.132,-74.738 27.132,-74.738 h 27.3 z"
       id="path8"
       style="fill:url(#linearGradient4580);fill-opacity:1"
       inkscape:connector-curvature="0" />
  </g>
  <g
     id="g14"
     style="fill:url(#linearGradient4552);fill-opacity:1"
     transform="translate(-59.188,-286.743)">
    <path
       d="m 635.371,547.437 v -75.863 h 82.382 v 15.706 h -60.454 v 12.843 l 56.601,0.199 v 14.32 h -56.601 v 14.818 h 61.443 v 17.978 h -83.371 z m 160.718,0 0.494,-9.679 c 0,-0.892 -0.197,-1.087 -0.494,0 -2.569,9.285 -16.1,10.469 -25.287,10.469 -23.905,0 -33.192,-5.037 -33.389,-23.509 v -32.103 h 21.633 v 29.534 c 0,9.878 4.544,10.471 18.472,10.471 6.915,0 18.868,0.494 18.868,-11.953 v -28.053 h 22.621 v 54.821 h -22.918 z m 92.46,-30.326 c 0,-6.913 -2.272,-9.579 -11.556,-9.579 -6.913,0 -14.224,1.678 -14.224,11.953 v 27.953 h -22.422 v -54.821 h 21.633 l -0.396,10.27 c 0,1.286 0.396,1.286 0.988,-0.195 3.654,-10.965 14.025,-10.965 22.721,-10.965 16.791,0 23.903,5.531 23.903,19.262 v 6.123 h -20.647 z m 79.916,30.917 c -36.845,0 -41.489,-4.838 -41.489,-28.15 0,-23.411 5.038,-28.35 41.489,-28.35 36.447,0 41.684,4.741 41.684,28.35 0,23.509 -4.84,28.15 -41.684,28.15 z m 0.395,-41.881 c -17.582,0 -19.853,1.778 -19.853,13.532 0,11.56 2.272,13.139 19.853,13.139 17.386,0 19.855,-1.579 19.855,-13.139 0,-11.754 -2.469,-13.532 -19.855,-13.532 z m 104.611,41.29 c -18.472,0 -21.237,-3.26 -23.706,-8.1 -0.792,-1.579 -0.988,-1.975 -0.988,0 v 26.671 h -19.461 v -73.392 h 18.868 v 8.888 c 0,1.581 0.394,1.382 0.789,0 4.446,-8.295 14.324,-9.285 24.696,-9.285 27.362,0 30.524,7.903 30.524,29.93 0,20.251 -4.842,25.288 -30.722,25.288 z m -7.113,-39.906 c -16.397,0 -17.781,3.06 -17.781,12.94 0,9.779 1.384,12.841 17.781,12.841 16.2,0 17.78,-3.062 17.78,-12.841 10e-4,-9.879 -1.58,-12.94 -17.78,-12.94 z m 93.646,40.696 c -31.806,0 -36.252,-10.075 -36.252,-28.349 0,-23.213 9.581,-28.35 36.252,-28.35 31.609,0 35.858,6.716 35.462,28.35 v 3.656 h -51.861 c 0,10.963 2.471,12.347 16.399,12.347 12.544,0 16.2,-0.99 16.2,-6.815 h 19.461 c 0,14.912 -7.706,19.161 -35.661,19.161 z m 0,-44.352 c -13.137,0 -16.2,1.284 -16.2,8.297 h 33.19 c 0,-8 -4.446,-8.297 -16.99,-8.297 z"
       id="path12"
       style="fill:url(#linearGradient4582);fill-opacity:1"
       inkscape:connector-curvature="0" />
  </g>
</svg>
