<svg id="a" width="418.42pt" height="157.1pt" version="1.1" viewBox="0 0 418.42 157.1" xmlns="http://www.w3.org/2000/svg">
 <g id="b" transform="translate(-40,-50.005)" fill="#db1917">
  <path id="c" d="m40 50.005h34.29c0.02 40.98-0.05 81.945 0 122.92h16.489c9.8118 0 18.705-0.88059 27.381-4.74 6.04-2.47 11.51-7.47 12.71-14.12 1.52-8.5-0.88-18.49-8.56-23.33-5.026-3.4777-10.692-4.8702-16.557-4.8702h-19.373v-32.89h19.373c12.945 0 21.787 1.6 29.657 5.58 11.05 5.1 19.92 14.63 24.32 25.97 5.81 14.99 5.93 32.22-0.22 47.12-5.3 11.67-15.62 20.44-27.15 25.65-13.53 6.29-28.57 8.41-43.36 8.75h-49z"/>
  <path id="d" d="m168.94 81.725c13.2 0.02 26.395-0.02 39.595 0-0.08 13.27-0.05 26.57 0 39.84-13.2 0.05-26.395-0.05-39.595 0-0.01-13.29 0-26.55 0-39.84z"/>
 </g>
 <g id="e" transform="translate(-40,-50.005)" fill="#00509f">
  <path id="f" d="m253.32 50.005h44.38v31.72h31.02l9.83 39.84h-40.85v36.485c-0.11 1.54 0.31 3.99 2.28 3.93 9.49 0.18 19 0.03 28.49 0.07v45.01h-28.43c-11.14 0.09-22.53-3.62-30.71-11.33-8.51-8.01-12.98-19.41-14.8-30.76-1.0103-7.0822-1.2141-14.216-1.21-21.361 4e-3 -7.3522 0.22822-14.715 0-22.044h-30.92v-39.84h30.92z"/>
  <path id="g" d="m341.91 81.725h41.13l17.25 70.735 17.31-70.735h40.82l-33.05 125.38-50.16-0.04z"/>
 </g>
</svg>
