<svg height="380.80347" viewBox="0 0 1732.6709 380.80949" width="1732.6333" xmlns="http://www.w3.org/2000/svg"><g fill="#fff"><path d="m713.70406 76.165509c-27.122-.1824-47.596 15.427-55.188 42.750001-2.9315 10.551-2.9232 28.278 0 38.875 6.0994 22.112 18.273 34.919 39.094 41.062 4.052 1.1958 9.6832 1.8886 15.75 1.9375 20.79.1685 37.906-8.8034 48.594-25.438 8.8017-13.699 11.841-36.295 7.4062-54.969-5.8784-24.751001-23.064-40.709001-47.031-43.656001-2.9415-.3616-5.8192-.5435-8.625-.5625zm.28125 24.250001c4.3864-.01 8.7511.8691 12.188 2.625 8.2735 4.2277 13.417 10.969 16.438 21.531 3.516 12.295 1.6648 28.195-4.4062 37.812-3.681 5.8311-9.7965 10.679-15.969 12.625-6.824 2.1512-10.786 2.0458-18-.4687-7.9593-2.7743-15.096-10.711-18.375-20.406-6.7734-20.028.43463-43.223 15.844-51.031 3.4887-1.7678 7.8949-2.6799 12.281-2.6875z"/><path d="m987.93406 76.165509c-27.122-.1824-47.596 15.427-55.188 42.750001-2.9315 10.551-2.9232 28.278 0 38.875 6.0994 22.112 18.273 34.919 39.094 41.062 4.052 1.1958 9.6832 1.8886 15.75 1.9375 20.79004.1685 37.90604-8.8034 48.59404-25.438 8.8017-13.699 11.841-36.295 7.4062-54.969-5.8784-24.751001-23.064-40.709001-47.03104-43.656001-2.9415-.3616-5.8192-.5435-8.625-.5625zm.28125 24.250001c4.3864-.01 8.7511.8691 12.18799 2.625 8.2735 4.2277 13.417 10.969 16.438 21.531 3.516 12.295 1.6648 28.195-4.4062 37.812-3.681 5.8311-9.7965 10.679-15.96899 12.625-6.824 2.1512-10.786 2.0458-18-.4687-7.9593-2.7743-15.096-10.711-18.375-20.406-6.7734-20.028.43463-43.223 15.844-51.031 3.4887-1.7678 7.8949-2.6799 12.281-2.6875z"/><path d="m1674.9941 76.165509c-27.122-.1825-47.596 15.427-55.188 42.750001-2.9315 10.551-2.9232 28.278 0 38.875 6.0994 22.112 18.273 34.919 39.094 41.062 4.052 1.1957 9.6832 1.8885 15.75 1.9375 20.79.1684 37.906-8.8035 48.594-25.438 8.8017-13.699 11.841-36.295 7.4062-54.969-5.8784-24.751001-23.064-40.709001-47.031-43.656001-2.9415-.3617-5.8193-.5436-8.625-.5625zm.2812 24.250001c4.3864-.01 8.7512.8691 12.188 2.625 8.2735 4.2277 13.417 10.969 16.438 21.531 3.516 12.295 1.6649 28.195-4.4062 37.812-3.681 5.8311-9.7965 10.679-15.969 12.625-6.8239 2.1512-10.786 2.0458-18-.4687-7.9593-2.7744-15.096-10.711-18.375-20.406-6.7733-20.028.4347-43.223 15.844-51.031 3.4887-1.7679 7.8949-2.68 12.281-2.6875z"/><path d="m1444.8941 200.36551c-19.961-2.903-32.281-9.3256-39.897-20.8-6.8454-10.313-5.8929-12.854 6.897-18.398 9.5999-4.1611 9.4558-4.1623 11.895.1 3.9748 6.9441 7.3096 10.273 13.735 13.71 5.8379 3.123 7.0785 3.4045 14.869 3.3731 6.884-.028 9.3091-.4666 12.756-2.3086 8.1049-4.3311 10.764-11.71 6.0575-16.808-2.2718-2.4605-13.347-8.2162-15.975-8.3024-.7361-.024-3.1383-.7265-5.3383-1.5609-2.2-.8343-6.25-2.1274-9-2.8735-9.336-2.533-15.812-5.4167-24-10.688-5.2985-3.4107-6.875-5.2914-9.9219-11.838-4.7232-10.147-2.919-22.422 4.7516-32.328001 3.7573-4.852 9.1537-8.261 17.932-11.328 5.9412-2.0757 8.7074-2.4123 19.578-2.3819 13.477.038 21.141 1.7478 31.048 6.9282 8.1856 4.2802 18.273 16.643001 16.772 20.554001-.2747.7159-2.6733 2.3088-5.3301 3.5396s-7.2436 3.4126-10.193 4.8485l-5.3621 2.6106-2.1379-2.5976c-1.1758-1.4287-3.306-4.1154-4.7337-5.9703-4.2837-5.5654-10.81-8.179101-20.314-8.135501-9.0164.041-11.818.856001-15.84 4.604301-2.0286 1.8908-2.75 3.5196-2.75 6.2096 0 6.3338 5.245 9.6997 24 15.402 29.593 8.9971 39.151 15.37 43.236 28.827 2.2514 7.4163 2.2043 11.024-.2516 19.271-3.5788 12.017-13.662 20.602-28.647 24.391-7.0333 1.7783-18.537 2.7179-23.837 1.947z"/><path d="m821.94406 199.76551c-19.961-2.903-32.281-9.3256-39.897-20.8-6.8454-10.313-5.8929-12.854 6.897-18.398 9.5999-4.1611 9.4558-4.1623 11.895.1 3.9748 6.9441 7.3096 10.273 13.735 13.71 5.8379 3.123 7.0785 3.4045 14.869 3.3731 6.884-.028 9.3091-.4666 12.756-2.3086 8.1049-4.3311 10.764-11.71 6.0575-16.808-2.2718-2.4605-13.347-8.2162-15.975-8.3024-.7361-.024-3.1383-.7265-5.3383-1.5609-2.2-.8343-6.25-2.1274-9-2.8735-9.336-2.533-15.812-5.4167-24-10.688-5.2985-3.4107-6.875-5.2914-9.9219-11.838-4.7232-10.147-2.919-22.422 4.7516-32.328001 3.7573-4.852 9.1537-8.261 17.932-11.328 5.9412-2.0757 8.7074-2.4123 19.578-2.3819 13.477.038 21.141 1.7478 31.048 6.9282 8.1856 4.2802 18.273 16.643001 16.772 20.554001-.2747.7159-2.6733 2.3088-5.3301 3.5396s-7.2436 3.4126-10.193 4.8485l-5.3621 2.6106-2.1379-2.5976c-1.1758-1.4287-3.306-4.1154-4.7337-5.9703-4.2837-5.5654-10.81-8.179101-20.314-8.135501-9.0164.041-11.818.856-15.84 4.604301-2.0286 1.8908-2.75 3.5196-2.75 6.2096 0 6.3338 5.245 9.6997 24 15.402 29.593 8.9971 39.151 15.37 43.236 28.827 2.2514 7.4163 2.2043 11.024-.2516 19.271-3.5788 12.017-13.662 20.602-28.647 24.391-7.0333 1.7783-18.537 2.7179-23.837 1.947z"/><path d="m482.76406 199.66551c-19.961-2.903-32.281-9.3256-39.897-20.8-6.8454-10.313-5.8929-12.854 6.897-18.398 9.5999-4.1611 9.4558-4.1623 11.895.1 3.9748 6.9441 7.3096 10.273 13.735 13.71 5.8379 3.123 7.0785 3.4045 14.869 3.3731 6.884-.028 9.3091-.4666 12.756-2.3086 8.1049-4.3311 10.764-11.71 6.0575-16.808-2.2718-2.4605-13.347-8.2162-15.975-8.3024-.7361-.024-3.1383-.7265-5.3383-1.5609-2.2-.8343-6.25-2.1274-9-2.8735-9.336-2.533-15.812-5.4167-24-10.688-5.2985-3.4107-6.875-5.2914-9.9219-11.838-4.7232-10.147-2.919-22.422 4.7516-32.328001 3.7573-4.852 9.1537-8.261 17.932-11.328 5.9412-2.0757 8.7074-2.4123 19.578-2.3819 13.477.038 21.141 1.7478 31.048 6.9282 8.1856 4.2802 18.273 16.643001 16.772 20.554001-.2747.7159-2.6733 2.3088-5.3301 3.5396s-7.2436 3.4126-10.193 4.8485l-5.3621 2.6106-2.1379-2.5976c-1.1758-1.4287-3.306-4.1154-4.7337-5.9703-4.2837-5.5654-10.81-8.179101-20.314-8.135501-9.0164.041-11.818.856-15.84 4.604301-2.0286 1.8908-2.75 3.5196-2.75 6.2096 0 6.3338 5.245 9.6997 24 15.402 29.593 8.9971 39.151 15.37 43.236 28.827 2.2514 7.4163 2.2043 11.024-.2516 19.271-3.5788 12.017-13.662 20.602-28.647 24.391-7.0333 1.7783-18.537 2.7179-23.837 1.947z"/><path d="m374.56706 75.765509c-2.1687.056-4.3934.2161-6.6562.4687-23.509 2.6248-39.644 16.656-47.281 41.125001-1.9042 6.1009-2.3494 9.832-2.4062 20-.08 14.304 1.3791 20.976 7.1875 33 6.5116 13.48 18.578 23.33 34.312 27.969 13.506 3.9819 32.604 1.9769 44.625-4.6875 5.3964-2.9917 11.542-7.5937 15.725-13.822 4.1829-6.2284 6.8496-12.922 6.5381-13.491-1.0555-.9635-9.0904-5.9187-12.732-7.5929-3.9996-1.8421-7.6899-3.375-8.1875-3.375s-2.2512 2.3626-3.9062 5.25c-4.242 7.4006-8.755 11.408-15.562 13.75-7.0938 2.4407-9.9026 2.5116-17.906.4376-6.697-1.7354-12.54-5.5049-16.156-10.406-3.4129-4.6259-7.0236-14.596-6.2723-17.589l.0893-2.7991 41.21-.089c36.642-.079 42.173.4211 43.015-.7359.9333-.4284.61702-3.7159.2086-12.255-1.672-34.958001-23.313-55.994001-55.844-55.156001zm1.5312 24.406001c4.9406-.012 9.913.8473 13.344 2.5937 6.9807 3.5534 13.219 11.561 13.219 16.969l.35714 3.25-28.429-.089-26.821-.089.89286-3.7276c1.2888-5.3807 5.282-11.581 14.219-16.25 3.3736-1.7625 8.2782-2.6445 13.219-2.6562z"/><path d="m1211.1441 75.465509c-2.1687.056-4.3934.2161-6.6562.4687-23.51 2.6248-39.644 16.656-47.281 41.125001-1.9042 6.1009-2.3494 9.832-2.4062 20-.08 14.304 1.3791 20.976 7.1875 33 6.5116 13.48 18.578 23.33 34.312 27.969 13.506 3.9819 32.604 1.9769 44.625-4.6875 5.3964-2.9917 11.542-7.5937 15.725-13.822 4.1829-6.2284 6.8495-12.922 6.538-13.491-1.0555-.9635-9.0904-5.9187-12.732-7.5929-3.9996-1.8421-7.6899-3.375-8.1875-3.375s-2.2512 2.3626-3.9062 5.25c-4.242 7.4006-8.7551 11.408-15.562 13.75-7.0938 2.4407-9.9027 2.5116-17.906.4376-6.697-1.7354-12.54-5.5049-16.156-10.406-3.4129-4.6259-7.0236-14.596-6.2723-17.589l.089-2.7991 41.21-.089c36.642-.079 42.173.4211 43.015-.7359.9333-.4284.617-3.7159.2086-12.255-1.672-34.958001-23.313-55.994001-55.844-55.156001zm1.5313 24.406c4.9405-.012 9.913.847301 13.344 2.593701 6.9807 3.5534 13.219 11.561 13.219 16.969l.3571 3.25-28.429-.089-26.821-.089.8929-3.7276c1.2888-5.3807 5.282-11.581 14.219-16.25 3.3736-1.7625 8.2782-2.644501 13.219-2.656201z"/><path d="m1280.1441 196.16551c-.8397-1.0118-1.0731-16.804-.8724-59.037.2373-49.959001.6004-57.972001 1.9002-58.793001.825-.5213 6.6712-.576 11.911-.5844 12.148-.019 13.462-.5758 13.53.9113.1258 2.7348-.1317 12.036.4018 12.366.5335.3297 3.796-1.6079 7.25-4.3058 8.0518-6.2892 14.405-9.0327 23.866-10.306 24.677-3.3221 41.948 7.8846 47.973 31.129001 1.8197 7.0204 1.9442 10.569 1.7019 48.538l-.2614 40.964-12.421.2822c-9.2652.2104-12.628-.044-13.235-1-.4475-.7052-.8303-18.382-.8508-39.282-.035-35.563-.163-38.277-1.9978-42.32-4.6904-10.336-10.224-14.104-20.779-14.149-5.7843-.025-8.2762.472-12.108 2.4135-6.836 3.464-13.039 10.804-16.596 19.637l-2.9872 7.4182-.3484 32.5c-.2191 20.448-.7328 32.964-1.3852 33.75-1.5368 1.8527-23.142 1.7378-24.693-.1313z"/><path d="m227.96106 198.86551c-30.9-8.1347-50.918-32.936-53.835-66.7-3.3229-38.466001 12.702-69.475001 42.825-82.866001 7.6612-3.4059 21.635-6.3371 30.249-6.3453 15.487-.015 33.748 6.4603 45.143 16.007 8.0914 6.7789 18.618 21.942 18.618 26.818 0 2.0625-3.233 4.4976-14.742 11.104-8.347 4.791101-10.305 4.526701-12.322-1.6643-4.6711-14.333-19.91-24.456-36.936-24.538-26.229-.125-43.966 20.562-43.966 51.280001 0 15.823 4.2531 28.654 12.561 37.895 5.4343 6.0442 11.505 9.7033 20.246 12.203 8.4708 2.4224 13.921 2.4009 22.628-.089 12.138-3.4712 21.167-11.531 25.238-22.529 1.5447-4.1735 2.2985-5.0324 4.6561-5.3047 1.5471-.1787 3.5606.3258 4.4745 1.1211.91387.7954 5.3741 3.5685 9.9116 6.1625 5.9401 3.3959 8.25 5.2673 8.25 6.684 0 4.4429-6.605 14.508-15.011 22.875-9.7503 9.705-17.974 14.339-31.712 17.869-10.821 2.7809-25.752 2.788-36.276.017z"/><path d="m234.96106 34.365509c-.825-.308-3.3173-2.5048-5.5385-4.8819s-8.8587-9.3295-14.75-15.45c-5.8913-6.1203004-10.711-11.7820004-10.711-12.5810004 0-1.20010003 2.3817-1.45320003 13.674-1.45320003h13.674l7.2191 7.00000003c3.9705 3.8500004 7.6167 7.0000004 8.1025 7.0000004s4.0093-3.15 7.8298-7.0000004l6.9464-7.00000003h13.718c8.4946 0 13.965.3994 14.366 1.04910003.35662.577-3.597 5.4145-8.7858 10.7500004-5.1888 5.3355-12.174 12.626-15.524 16.201l-6.0894 6.5-11.316.213c-6.2236.1172-11.991-.039-12.816-.3469z"/><path d="m892.49406 47.465509h24.622v149.380001h-24.622z"/><path d="m1513.6941 196.76551c-1.6134-1.6134-1.8011-144.890001-.1938-147.890001.93-1.7378 2.1871-1.9342 12.378-1.9342 8.2523 0 11.645.3645 12.453 1.3381.7617.9178 1.1928 13.536 1.3724 40.167.1745 25.862001.3178 40.784001.6114 40.881001.4243.097 11.052-11.541 27.222-30.373001 6.1119-6.926 12.282-13.463 18.278-20.445l14.207-.35c12.566-.3096 15.028.093 14.87.8617-.1066.5193-4.3636 6.736-27.161 32.843001-5.0794 5.817-9.2387 11.251-9.2429 12.076-.01 1.3556 2.1711 5.0089 14.606 24.5 2.1053 3.3 6.4703 10.275 9.7001 15.5 5.5919 9.0464 8.6737 13.875 16.441 25.759 2.6362 4.0334 5.1616 7.8051 4.0549 8.1411-.5383.1634-8.0192.1-16.694.1h-14.933l-2.3276-3.75c-1.2802-2.0625-2.5621-4.2036-2.8488-4.758-.2866-.5544-6.1019-10.342-12.923-21.75-9.8641-16.498-12.831-20.74-14.5-20.731-1.4224.01-4.8366 3.2534-10.598 10.076l-8.5 10.065-.5 15.174-.5 15.174-12.021.2789c-8.4997.1972-12.381-.081-13.25-.95z"/><path d="m552.43406 196.56551c-1.6134-1.6134-1.8011-144.890001-.1938-147.890001.93-1.7378 2.1871-1.9342 12.378-1.9342 8.2523 0 11.645.3645 12.453 1.3381.7617.9178 1.1928 13.536 1.3724 40.167.1745 25.862001.3178 40.784001.6114 40.881001.4243.097 11.052-11.541 27.222-30.373001 6.1119-6.926 12.282-13.463 18.278-20.445l14.207-.35c12.566-.3096 15.028.093 14.87.8617-.1066.5193-4.3636 6.736-27.161 32.843001-5.0794 5.817-9.2387 11.251-9.2429 12.076-.01 1.3556 2.1711 5.0089 14.606 24.5 2.1053 3.3 6.4703 10.275 9.7001 15.5 5.5919 9.0464 8.6737 13.875 16.441 25.759 2.6362 4.0334 5.1616 7.8051 4.0549 8.1411-.5383.1634-8.0192.1-16.694.1h-14.933l-2.3276-3.75c-1.2802-2.0625-2.5621-4.2036-2.8488-4.758-.2866-.5544-6.1019-10.342-12.923-21.75-9.8641-16.498-12.831-20.74-14.5-20.731-1.4224.01-4.8366 3.2534-10.598 10.076l-8.5 10.065-.5 15.174-.5 15.174-12.021.2789c-8.4997.1972-12.381-.081-13.25-.95z"/><path d="m1040.0641 77.865509 46.531 120.560001 27-.063 46.344-120.500001h-27.938l-32.094 86.406001-.8438.031-30.281-86.438001h-28.719z"/><path d="m334.80688 257.98908c-2.13776.0551-4.3306.2131-6.5611.462-23.17379 2.58733-39.07751 16.41822-46.60688 40.53793-1.87702 6.01382-2.31581 9.6917-2.37189 19.7146-.079 14.09979 1.35939 20.67655 7.08492 32.52907 6.41878 13.28688 18.31341 22.99683 33.82259 27.5696 13.31295 3.92489 32.13826 1.94865 43.98781-4.62045 5.31937-2.94898 11.37715-7.48542 15.5006-13.62479 4.12309-6.13937 6.75185-12.7381 6.44486-13.2988-1.04043-.94975-8.96073-5.83424-12.54995-7.48467-3.94239-1.8158-7.58005-3.32682-8.0707-3.32682-.49066 0-2.21903 2.32885-3.85038 5.17519-4.18158 7.29504-8.62991 11.24526-15.3404 13.55363-6.99253 2.40586-9.76137 2.47575-17.65064.43135-6.60134-1.7106-12.36107-5.4263-15.9257-10.25762-3.36415-4.55973-6.92322-14.3874-6.18295-17.33806l.0879-2.75912 40.61989-.0879c36.11867-.0779 41.56992.4151 42.40072-.72541.91995-.42226.60819-3.66283.20565-12.08016-1.64812-34.45929-22.98006-55.19432-55.0453-54.36725zm1.50938 24.05786c4.87006-.0111 9.77142.8352 13.15313 2.55668 6.88112 3.50267 13.03018 11.39577 13.03018 16.72632l.35206 3.20358-28.02262-.0879-26.43851-.0875.88009-3.67442c1.27042-5.30373 5.20648-11.41553 14.01597-16.0181 3.32537-1.73734 8.16012-2.60674 13.03018-2.61829z" stroke-width=".985711"/><path d="m441.87977 379.70718c-19.6766-2.86157-31.82009-9.19247-39.32712-20.50256-6.74775-10.16596-5.80891-12.67066 6.79842-18.13496 9.46296-4.10185 9.32063-4.10297 11.72549.0987 3.91818 6.84499 7.20525 10.1261 13.5391 13.51488 5.75451 3.0784 6.97725 3.35588 14.65714 3.32493 6.78575-.0261 9.17607-.45993 12.57379-2.27566 7.98912-4.26913 10.61043-11.54293 5.97097-16.56761-2.23937-2.42534-7.28423-5.58947-15.74724-8.18396-8.463-2.59449-9.03897-2.97576-14.1337-4.37122-9.20289-2.49683-18.63045-6.72949-23.65736-10.53479-5.02692-3.80529-5.95049-3.44094-9.78037-11.66849-3.82989-8.22754-2.87733-22.10232 4.68378-31.86629 3.70367-4.78288 9.02297-8.14297 17.67635-11.16627 5.85622-2.04608 8.58297-2.37789 19.29882-2.3479 13.28427.0377 20.83936 1.72285 30.60519 6.82934 8.06884 4.21921 18.01239 16.40519 16.5326 20.26114-.27086.7057-2.63514 2.27584-5.2538 3.48908-2.6189 1.21323-7.14006 3.36389-10.04713 4.77916l-5.28546 2.57333-2.10737-2.56051c-1.15902-1.40831-3.25884-4.05678-4.66628-5.88491-4.22256-5.4859-10.65588-8.06214-20.02382-8.0193-8.88772.0406-11.64986.84381-15.61386 4.53849-1.99963 1.86384-2.71073 3.46936-2.71073 6.12111 0 6.24331 5.16998 9.56131 23.65738 15.18208 29.17046 8.86872 38.59318 15.15041 42.62052 28.41567 2.21928 7.31032 2.17282 10.86711-.24812 18.99557-3.52771 11.84545-13.46646 20.30733-28.23834 24.04258-6.93291 1.75293-18.27206 2.67911-23.49717 1.91923z" stroke-width=".985711"/><g stroke-width="3.72557"><path d="m850.83935 230.513h24.27097v149.38046h-24.27097z"/><path d="m172.43162 230.28946v149.604h26.76078v-61.96741h67.70851v-25.67216h-67.70851v-36.29376h75.67378v-25.67216h-75.67378z"/><path d="m581.29806 260.20578h27.73092v119.68395h-27.73092z"/><path d="m581.29806 220.6067h27.73092v29.66113h-27.73092z"/><path d="m615.24173 260.20951 45.8655 119.68395 26.61473-.0626 45.68294-119.62434h-27.53867l-31.63568 85.77753-.83169.0298-29.84891-85.80734h-28.30873z"/></g><path d="m546.36359 225.82858-26.23667 22.42789v11.58901l-17.28347.00001v22.5304l17.28347-.00002-.007 63.70456c.00019 19.59102 14.56486 34.60044 33.60585 34.60044 6.97036-.0142 13.68463-3.87394 19.42245-7.94651l-2.8006-22.39634c-5.51663 5.6563-17.35049 7.17903-21.87096 1.7726-1.593-2.23037-2.10696-5.32018-2.12461-8.96406 0 0 .0118-36.97403.006-36.97403h.006v-23.79804h22.31158v-22.5304h-22.31158z" stroke-width=".985711"/><path d="m782.43788 260.20578c-23.29823.0161-36.96101 12.28806-47.29984 29.12429l18.09248 13.71195c6.77533-9.38247 15.58705-16.66261 28.57364-18.37973 15.68875.21556 21.49356 8.57217 22.24761 18.35179-13.43068 1.55707-35.17944 2.86291-55.42904 12.73362-20.25107 9.87053-24.52617 33.66575-13.54319 49.93382 10.98336 16.26697 39.37929 19.90386 61.09563 7.27492 5.61183-4.06906 7.27679-4.16965 10.94722-8.18768l.17101 15.36649 25.29512-.24216c-1.38498-11.86744-1.61101-18.42593-1.72914-23.86265-.1181-5.43673-.34015-60.30953-.33233-60.52935-.0111-.15594-.0186-.31186-.0335-.4677v-.67433h-.045c-.83859-19.02202-22.07735-34.12995-48.00769-34.15081zm22.50915 65.16769s1.40625 10.44425-2.34581 16.40069c-3.75202 5.95645-10.51504 10.02626-18.77426 13.67546-9.16118 4.04783-24.03031 2.348-27.18661-5.91397-3.15633-8.26182 3.08582-17.83058 13.93177-19.8748 8.01854-3.6341 34.3751-4.28738 34.3751-4.28738z" stroke-width="3.72557"/><g transform="translate(280.061 92.786959)"><path d="m-200.43947-47.821667c-43.96837 0-79.62153 35.65318-79.62153 79.621552 0 43.968351 35.65316 79.621535 79.62153 79.621535 43.96835 0 79.62153-35.653184 79.62153-79.621535 0-43.968372-35.65318-79.621552-79.62153-79.621552zm0 25.373762c29.94933 0 54.24777 24.2984399 54.24777 54.24779 0 29.949329-24.29844 54.247769-54.24777 54.247769-29.94935 0-54.24779-24.29844-54.24779-54.247769 0-29.9493501 24.29844-54.24779 54.24779-54.24779z" fill="#fff" stroke-width="8.140179"/><path d="m-200.43947 128.72254c-43.96837 0-79.62153 35.65318-79.62153 79.62153 0 43.96837 35.65316 79.62155 79.62153 79.62155 43.96835 0 79.62153-35.65318 79.62153-79.62155 0-43.96835-35.65318-79.62153-79.62153-79.62153zm0 25.37376c29.94933 0 54.24777 24.29844 54.24777 54.24777 0 29.94935-24.29844 54.24779-54.24777 54.24779-29.94935 0-54.24779-24.29844-54.24779-54.24779 0-29.94933 24.29844-54.24777 54.24779-54.24777z" fill="#fff" stroke-width="8.140179"/></g></g></svg>