<?xml version="1.0" encoding="UTF-8"?>
<!-- Created with Inkscape (http://www.inkscape.org/) -->
<svg id="svg42" width="1732.6" height="380.8" version="1.1" viewBox="0 0 1732.7 380.81" xmlns="http://www.w3.org/2000/svg" xmlns:cc="http://creativecommons.org/ns#" xmlns:dc="http://purl.org/dc/elements/1.1/" xmlns:rdf="http://www.w3.org/1999/02/22-rdf-syntax-ns#">
 <metadata id="metadata2">
  <rdf:RDF>
   <cc:Work rdf:about="">
    <dc:format>image/svg+xml</dc:format>
    <dc:type rdf:resource="http://purl.org/dc/dcmitype/StillImage"/>
    <dc:title/>
   </cc:Work>
  </rdf:RDF>
 </metadata>
 <path id="path4" d="m713.7 76.166c-27.122-0.1824-47.596 15.427-55.188 42.75-2.9315 10.551-2.9232 28.278 0 38.875 6.0994 22.112 18.273 34.919 39.094 41.062 4.052 1.1958 9.6832 1.8886 15.75 1.9375 20.79 0.1685 37.906-8.8034 48.594-25.438 8.8017-13.699 11.841-36.295 7.4062-54.969-5.8784-24.751-23.064-40.709-47.031-43.656-2.9415-0.3616-5.8192-0.5435-8.625-0.5625zm0.28125 24.25c4.3864-0.01 8.7511 0.8691 12.188 2.625 8.2735 4.2277 13.417 10.969 16.438 21.531 3.516 12.295 1.6648 28.195-4.4062 37.812-3.681 5.8311-9.7965 10.679-15.969 12.625-6.824 2.1512-10.786 2.0458-18-0.4687-7.9593-2.7743-15.096-10.711-18.375-20.406-6.7734-20.028 0.43463-43.223 15.844-51.031 3.4887-1.7678 7.8949-2.6799 12.281-2.6875z"/>
 <path id="path6" d="m987.93 76.166c-27.122-0.1824-47.596 15.427-55.188 42.75-2.9315 10.551-2.9232 28.278 0 38.875 6.0994 22.112 18.273 34.919 39.094 41.062 4.052 1.1958 9.6832 1.8886 15.75 1.9375 20.79 0.1685 37.906-8.8034 48.594-25.438 8.8017-13.699 11.841-36.295 7.4062-54.969-5.8784-24.751-23.064-40.709-47.031-43.656-2.9415-0.3616-5.8192-0.5435-8.625-0.5625zm0.28125 24.25c4.3864-0.01 8.7511 0.8691 12.188 2.625 8.2735 4.2277 13.417 10.969 16.438 21.531 3.516 12.295 1.6648 28.195-4.4062 37.812-3.681 5.8311-9.7965 10.679-15.969 12.625-6.824 2.1512-10.786 2.0458-18-0.4687-7.9593-2.7743-15.096-10.711-18.375-20.406-6.7734-20.028 0.43463-43.223 15.844-51.031 3.4887-1.7678 7.8949-2.6799 12.281-2.6875z"/>
 <path id="path8" d="m1675 76.166c-27.122-0.1825-47.596 15.427-55.188 42.75-2.9315 10.551-2.9232 28.278 0 38.875 6.0994 22.112 18.273 34.919 39.094 41.062 4.052 1.1957 9.6832 1.8885 15.75 1.9375 20.79 0.1684 37.906-8.8035 48.594-25.438 8.8017-13.699 11.841-36.295 7.4062-54.969-5.8784-24.751-23.064-40.709-47.031-43.656-2.9415-0.3617-5.8193-0.5436-8.625-0.5625zm0.2812 24.25c4.3864-0.01 8.7512 0.8691 12.188 2.625 8.2735 4.2277 13.417 10.969 16.438 21.531 3.516 12.295 1.6649 28.195-4.4062 37.812-3.681 5.8311-9.7965 10.679-15.969 12.625-6.8239 2.1512-10.786 2.0458-18-0.4687-7.9593-2.7744-15.096-10.711-18.375-20.406-6.7733-20.028 0.4347-43.223 15.844-51.031 3.4887-1.7679 7.8949-2.68 12.281-2.6875z"/>
 <path id="path10" d="m1444.9 200.37c-19.961-2.903-32.281-9.3256-39.897-20.8-6.8454-10.313-5.8929-12.854 6.897-18.398 9.5999-4.1611 9.4558-4.1623 11.895 0.1 3.9748 6.9441 7.3096 10.273 13.735 13.71 5.8379 3.123 7.0785 3.4045 14.869 3.3731 6.884-0.028 9.3091-0.4666 12.756-2.3086 8.1049-4.3311 10.764-11.71 6.0575-16.808-2.2718-2.4605-13.347-8.2162-15.975-8.3024-0.7361-0.024-3.1383-0.7265-5.3383-1.5609-2.2-0.8343-6.25-2.1274-9-2.8735-9.336-2.533-15.812-5.4167-24-10.688-5.2985-3.4107-6.875-5.2914-9.9219-11.838-4.7232-10.147-2.919-22.422 4.7516-32.328 3.7573-4.852 9.1537-8.261 17.932-11.328 5.9412-2.0757 8.7074-2.4123 19.578-2.3819 13.477 0.038 21.141 1.7478 31.048 6.9282 8.1856 4.2802 18.273 16.643 16.772 20.554-0.2747 0.7159-2.6733 2.3088-5.3301 3.5396s-7.2436 3.4126-10.193 4.8485l-5.3621 2.6106-2.1379-2.5976c-1.1758-1.4287-3.306-4.1154-4.7337-5.9703-4.2837-5.5654-10.81-8.1791-20.314-8.1355-9.0164 0.041-11.818 0.856-15.84 4.6043-2.0286 1.8908-2.75 3.5196-2.75 6.2096 0 6.3338 5.245 9.6997 24 15.402 29.593 8.9971 39.151 15.37 43.236 28.827 2.2514 7.4163 2.2043 11.024-0.2516 19.271-3.5788 12.017-13.662 20.602-28.647 24.391-7.0333 1.7783-18.537 2.7179-23.837 1.947z"/>
 <path id="path12" d="m821.94 199.77c-19.961-2.903-32.281-9.3256-39.897-20.8-6.8454-10.313-5.8929-12.854 6.897-18.398 9.5999-4.1611 9.4558-4.1623 11.895 0.1 3.9748 6.9441 7.3096 10.273 13.735 13.71 5.8379 3.123 7.0785 3.4045 14.869 3.3731 6.884-0.028 9.3091-0.4666 12.756-2.3086 8.1049-4.3311 10.764-11.71 6.0575-16.808-2.2718-2.4605-13.347-8.2162-15.975-8.3024-0.7361-0.024-3.1383-0.7265-5.3383-1.5609-2.2-0.8343-6.25-2.1274-9-2.8735-9.336-2.533-15.812-5.4167-24-10.688-5.2985-3.4107-6.875-5.2914-9.9219-11.838-4.7232-10.147-2.919-22.422 4.7516-32.328 3.7573-4.852 9.1537-8.261 17.932-11.328 5.9412-2.0757 8.7074-2.4123 19.578-2.3819 13.477 0.038 21.141 1.7478 31.048 6.9282 8.1856 4.2802 18.273 16.643 16.772 20.554-0.2747 0.7159-2.6733 2.3088-5.3301 3.5396s-7.2436 3.4126-10.193 4.8485l-5.3621 2.6106-2.1379-2.5976c-1.1758-1.4287-3.306-4.1154-4.7337-5.9703-4.2837-5.5654-10.81-8.1791-20.314-8.1355-9.0164 0.041-11.818 0.856-15.84 4.6043-2.0286 1.8908-2.75 3.5196-2.75 6.2096 0 6.3338 5.245 9.6997 24 15.402 29.593 8.9971 39.151 15.37 43.236 28.827 2.2514 7.4163 2.2043 11.024-0.2516 19.271-3.5788 12.017-13.662 20.602-28.647 24.391-7.0333 1.7783-18.537 2.7179-23.837 1.947z"/>
 <path id="path14" d="m482.76 199.67c-19.961-2.903-32.281-9.3256-39.897-20.8-6.8454-10.313-5.8929-12.854 6.897-18.398 9.5999-4.1611 9.4558-4.1623 11.895 0.1 3.9748 6.9441 7.3096 10.273 13.735 13.71 5.8379 3.123 7.0785 3.4045 14.869 3.3731 6.884-0.028 9.3091-0.4666 12.756-2.3086 8.1049-4.3311 10.764-11.71 6.0575-16.808-2.2718-2.4605-13.347-8.2162-15.975-8.3024-0.7361-0.024-3.1383-0.7265-5.3383-1.5609-2.2-0.8343-6.25-2.1274-9-2.8735-9.336-2.533-15.812-5.4167-24-10.688-5.2985-3.4107-6.875-5.2914-9.9219-11.838-4.7232-10.147-2.919-22.422 4.7516-32.328 3.7573-4.852 9.1537-8.261 17.932-11.328 5.9412-2.0757 8.7074-2.4123 19.578-2.3819 13.477 0.038 21.141 1.7478 31.048 6.9282 8.1856 4.2802 18.273 16.643 16.772 20.554-0.2747 0.7159-2.6733 2.3088-5.3301 3.5396s-7.2436 3.4126-10.193 4.8485l-5.3621 2.6106-2.1379-2.5976c-1.1758-1.4287-3.306-4.1154-4.7337-5.9703-4.2837-5.5654-10.81-8.1791-20.314-8.1355-9.0164 0.041-11.818 0.856-15.84 4.6043-2.0286 1.8908-2.75 3.5196-2.75 6.2096 0 6.3338 5.245 9.6997 24 15.402 29.593 8.9971 39.151 15.37 43.236 28.827 2.2514 7.4163 2.2043 11.024-0.2516 19.271-3.5788 12.017-13.662 20.602-28.647 24.391-7.0333 1.7783-18.537 2.7179-23.837 1.947z"/>
 <path id="path16" d="m374.57 75.766c-2.1687 0.056-4.3934 0.2161-6.6562 0.4687-23.509 2.6248-39.644 16.656-47.281 41.125-1.9042 6.1009-2.3494 9.832-2.4062 20-0.08 14.304 1.3791 20.976 7.1875 33 6.5116 13.48 18.578 23.33 34.312 27.969 13.506 3.9819 32.604 1.9769 44.625-4.6875 5.3964-2.9917 11.542-7.5937 15.725-13.822 4.1829-6.2284 6.8496-12.922 6.5381-13.491-1.0555-0.9635-9.0904-5.9187-12.732-7.5929-3.9996-1.8421-7.6899-3.375-8.1875-3.375s-2.2512 2.3626-3.9062 5.25c-4.242 7.4006-8.755 11.408-15.562 13.75-7.0938 2.4407-9.9026 2.5116-17.906 0.4376-6.697-1.7354-12.54-5.5049-16.156-10.406-3.4129-4.6259-7.0236-14.596-6.2723-17.589l0.0893-2.7991 41.21-0.089c36.642-0.079 42.173 0.4211 43.015-0.7359 0.9333-0.4284 0.61702-3.7159 0.2086-12.255-1.672-34.958-23.313-55.994-55.844-55.156zm1.5312 24.406c4.9406-0.012 9.913 0.8473 13.344 2.5937 6.9807 3.5534 13.219 11.561 13.219 16.969l0.35714 3.25-28.429-0.089-26.821-0.089 0.89286-3.7276c1.2888-5.3807 5.282-11.581 14.219-16.25 3.3736-1.7625 8.2782-2.6445 13.219-2.6562z"/>
 <path id="path18" d="m1211.1 75.466c-2.1687 0.056-4.3934 0.2161-6.6562 0.4687-23.51 2.6248-39.644 16.656-47.281 41.125-1.9042 6.1009-2.3494 9.832-2.4062 20-0.08 14.304 1.3791 20.976 7.1875 33 6.5116 13.48 18.578 23.33 34.312 27.969 13.506 3.9819 32.604 1.9769 44.625-4.6875 5.3964-2.9917 11.542-7.5937 15.725-13.822 4.1829-6.2284 6.8495-12.922 6.538-13.491-1.0555-0.9635-9.0904-5.9187-12.732-7.5929-3.9996-1.8421-7.6899-3.375-8.1875-3.375s-2.2512 2.3626-3.9062 5.25c-4.242 7.4006-8.7551 11.408-15.562 13.75-7.0938 2.4407-9.9027 2.5116-17.906 0.4376-6.697-1.7354-12.54-5.5049-16.156-10.406-3.4129-4.6259-7.0236-14.596-6.2723-17.589l0.089-2.7991 41.21-0.089c36.642-0.079 42.173 0.4211 43.015-0.7359 0.9333-0.4284 0.617-3.7159 0.2086-12.255-1.672-34.958-23.313-55.994-55.844-55.156zm1.5313 24.406c4.9405-0.012 9.913 0.8473 13.344 2.5937 6.9807 3.5534 13.219 11.561 13.219 16.969l0.3571 3.25-28.429-0.089-26.821-0.089 0.8929-3.7276c1.2888-5.3807 5.282-11.581 14.219-16.25 3.3736-1.7625 8.2782-2.6445 13.219-2.6562z"/>
 <path id="path20" d="m1280.1 196.17c-0.8397-1.0118-1.0731-16.804-0.8724-59.037 0.2373-49.959 0.6004-57.972 1.9002-58.793 0.825-0.5213 6.6712-0.576 11.911-0.5844 12.148-0.019 13.462-0.5758 13.53 0.9113 0.1258 2.7348-0.1317 12.036 0.4018 12.366 0.5335 0.3297 3.796-1.6079 7.25-4.3058 8.0518-6.2892 14.405-9.0327 23.866-10.306 24.677-3.3221 41.948 7.8846 47.973 31.129 1.8197 7.0204 1.9442 10.569 1.7019 48.538l-0.2614 40.964-12.421 0.2822c-9.2652 0.2104-12.628-0.044-13.235-1-0.4475-0.7052-0.8303-18.382-0.8508-39.282-0.035-35.563-0.163-38.277-1.9978-42.32-4.6904-10.336-10.224-14.104-20.779-14.149-5.7843-0.025-8.2762 0.472-12.108 2.4135-6.836 3.464-13.039 10.804-16.596 19.637l-2.9872 7.4182-0.3484 32.5c-0.2191 20.448-0.7328 32.964-1.3852 33.75-1.5368 1.8527-23.142 1.7378-24.693-0.1313z"/>
 <path id="path22" d="m227.96 198.87c-30.9-8.1347-50.918-32.936-53.835-66.7-3.3229-38.466 12.702-69.475 42.825-82.866 7.6612-3.4059 21.635-6.3371 30.249-6.3453 15.487-0.015 33.748 6.4603 45.143 16.007 8.0914 6.7789 18.618 21.942 18.618 26.818 0 2.0625-3.233 4.4976-14.742 11.104-8.347 4.7911-10.305 4.5267-12.322-1.6643-4.6711-14.333-19.91-24.456-36.936-24.538-26.229-0.125-43.966 20.562-43.966 51.28 0 15.823 4.2531 28.654 12.561 37.895 5.4343 6.0442 11.505 9.7033 20.246 12.203 8.4708 2.4224 13.921 2.4009 22.628-0.089 12.138-3.4712 21.167-11.531 25.238-22.529 1.5447-4.1735 2.2985-5.0324 4.6561-5.3047 1.5471-0.1787 3.5606 0.3258 4.4745 1.1211 0.91387 0.7954 5.3741 3.5685 9.9116 6.1625 5.9401 3.3959 8.25 5.2673 8.25 6.684 0 4.4429-6.605 14.508-15.011 22.875-9.7503 9.705-17.974 14.339-31.712 17.869-10.821 2.7809-25.752 2.788-36.276 0.017z"/>
 <path id="path24" d="m234.96 34.366c-0.825-0.308-3.3173-2.5048-5.5385-4.8819s-8.8587-9.3295-14.75-15.45c-5.8913-6.1203-10.711-11.782-10.711-12.581 0-1.2001 2.3817-1.4532 13.674-1.4532h13.674l7.2191 7c3.9705 3.85 7.6167 7 8.1025 7s4.0093-3.15 7.8298-7l6.9464-7h13.718c8.4946 0 13.965 0.3994 14.366 1.0491 0.35662 0.577-3.597 5.4145-8.7858 10.75-5.1888 5.3355-12.174 12.626-15.524 16.201l-6.0894 6.5-11.316 0.213c-6.2236 0.1172-11.991-0.039-12.816-0.3469z"/>
 <path id="path26" d="m892.49 47.466h24.622v149.38h-24.622z"/>
 <path id="path28" d="m1513.7 196.77c-1.6134-1.6134-1.8011-144.89-0.1938-147.89 0.93-1.7378 2.1871-1.9342 12.378-1.9342 8.2523 0 11.645 0.3645 12.453 1.3381 0.7617 0.9178 1.1928 13.536 1.3724 40.167 0.1745 25.862 0.3178 40.784 0.6114 40.881 0.4243 0.097 11.052-11.541 27.222-30.373 6.1119-6.926 12.282-13.463 18.278-20.445l14.207-0.35c12.566-0.3096 15.028 0.093 14.87 0.8617-0.1066 0.5193-4.3636 6.736-27.161 32.843-5.0794 5.817-9.2387 11.251-9.2429 12.076-0.01 1.3556 2.1711 5.0089 14.606 24.5 2.1053 3.3 6.4703 10.275 9.7001 15.5 5.5919 9.0464 8.6737 13.875 16.441 25.759 2.6362 4.0334 5.1616 7.8051 4.0549 8.1411-0.5383 0.1634-8.0192 0.1-16.694 0.1h-14.933l-2.3276-3.75c-1.2802-2.0625-2.5621-4.2036-2.8488-4.758-0.2866-0.5544-6.1019-10.342-12.923-21.75-9.8641-16.498-12.831-20.74-14.5-20.731-1.4224 0.01-4.8366 3.2534-10.598 10.076l-8.5 10.065-1 30.348-12.021 0.2789c-8.4997 0.1972-12.381-0.081-13.25-0.95z"/>
 <path id="path30" d="m552.43 196.57c-1.6134-1.6134-1.8011-144.89-0.1938-147.89 0.93-1.7378 2.1871-1.9342 12.378-1.9342 8.2523 0 11.645 0.3645 12.453 1.3381 0.7617 0.9178 1.1928 13.536 1.3724 40.167 0.1745 25.862 0.3178 40.784 0.6114 40.881 0.4243 0.097 11.052-11.541 27.222-30.373 6.1119-6.926 12.282-13.463 18.278-20.445l14.207-0.35c12.566-0.3096 15.028 0.093 14.87 0.8617-0.1066 0.5193-4.3636 6.736-27.161 32.843-5.0794 5.817-9.2387 11.251-9.2429 12.076-0.01 1.3556 2.1711 5.0089 14.606 24.5 2.1053 3.3 6.4703 10.275 9.7001 15.5 5.5919 9.0464 8.6737 13.875 16.441 25.759 2.6362 4.0334 5.1616 7.8051 4.0549 8.1411-0.5383 0.1634-8.0192 0.1-16.694 0.1h-14.933l-2.3276-3.75c-1.2802-2.0625-2.5621-4.2036-2.8488-4.758-0.2866-0.5544-6.1019-10.342-12.923-21.75-9.8641-16.498-12.831-20.74-14.5-20.731-1.4224 0.01-4.8366 3.2534-10.598 10.076l-8.5 10.065-1 30.348-12.021 0.2789c-8.4997 0.1972-12.381-0.081-13.25-0.95z"/>
 <path id="path32" d="m1040.1 77.866 46.531 120.56 27-0.063 46.344-120.5h-27.938l-32.094 86.406-0.8438 0.031-30.281-86.438h-28.719z"/>
 <path id="path4-5" d="m334.81 257.99c-2.1378 0.0551-4.3306 0.2131-6.5611 0.462-23.174 2.5873-39.078 16.418-46.607 40.538-1.877 6.0138-2.3158 9.6917-2.3719 19.715-0.079 14.1 1.3594 20.677 7.0849 32.529 6.4188 13.287 18.313 22.997 33.823 27.57 13.313 3.9249 32.138 1.9486 43.988-4.6204 5.3194-2.949 11.377-7.4854 15.501-13.625 4.1231-6.1394 6.7518-12.738 6.4449-13.299-1.0404-0.94975-8.9607-5.8342-12.55-7.4847-3.9424-1.8158-7.58-3.3268-8.0707-3.3268-0.49066 0-2.219 2.3288-3.8504 5.1752-4.1816 7.295-8.6299 11.245-15.34 13.554-6.9925 2.4059-9.7614 2.4758-17.651 0.43135-6.6013-1.7106-12.361-5.4263-15.926-10.258-3.3642-4.5597-6.9232-14.387-6.183-17.338l0.0879-2.7591 40.62-0.0879c36.119-0.0779 41.57 0.4151 42.401-0.72541 0.91995-0.42226 0.60819-3.6628 0.20565-12.08-1.6481-34.459-22.98-55.194-55.045-54.367zm1.5094 24.058c4.8701-0.0111 9.7714 0.8352 13.153 2.5567 6.8811 3.5027 13.03 11.396 13.03 16.726l0.35206 3.2036-28.023-0.0879-26.439-0.0875 0.88009-3.6744c1.2704-5.3037 5.2065-11.416 14.016-16.018 3.3254-1.7373 8.1601-2.6067 13.03-2.6183z" stroke-width=".98571"/>
 <path id="path6-8" d="m441.88 379.71c-19.677-2.8616-31.82-9.1925-39.327-20.503-6.7478-10.166-5.8089-12.671 6.7984-18.135 9.463-4.1018 9.3206-4.103 11.725 0.0987 3.9182 6.845 7.2052 10.126 13.539 13.515 5.7545 3.0784 6.9772 3.3559 14.657 3.3249 6.7858-0.0261 9.1761-0.45993 12.574-2.2757 7.9891-4.2691 10.61-11.543 5.971-16.568-2.2394-2.4253-7.2842-5.5895-15.747-8.184-8.463-2.5945-9.039-2.9758-14.134-4.3712-9.2029-2.4968-18.63-6.7295-23.657-10.535-5.0269-3.8053-5.9505-3.4409-9.7804-11.668-3.8299-8.2275-2.8773-22.102 4.6838-31.866 3.7037-4.7829 9.023-8.143 17.676-11.166 5.8562-2.0461 8.583-2.3779 19.299-2.3479 13.284 0.0377 20.839 1.7228 30.605 6.8293 8.0688 4.2192 18.012 16.405 16.533 20.261-0.27086 0.7057-2.6351 2.2758-5.2538 3.4891-2.6189 1.2132-7.1401 3.3639-10.047 4.7792l-5.2855 2.5733-2.1074-2.5605c-1.159-1.4083-3.2588-4.0568-4.6663-5.8849-4.2226-5.4859-10.656-8.0621-20.024-8.0193-8.8877 0.0406-11.65 0.84381-15.614 4.5385-1.9996 1.8638-2.7107 3.4694-2.7107 6.1211 0 6.2433 5.17 9.5613 23.657 15.182 29.17 8.8687 38.593 15.15 42.621 28.416 2.2193 7.3103 2.1728 10.867-0.24812 18.996-3.5277 11.845-13.466 20.307-28.238 24.043-6.9329 1.7529-18.272 2.6791-23.497 1.9192z" stroke-width=".98571"/>
 <path id="path8-0" d="m850.84 230.51h24.271v149.38h-24.271z" stroke-width="3.7256"/>
 <path id="path14-9" d="m172.43 230.29v149.6h26.761v-61.967h67.709v-25.672h-67.709v-36.294h75.674v-25.672h-75.674z" stroke-width="3.7256"/>
 <path id="path16-0" d="m581.3 260.21h27.731v119.68h-27.731z" stroke-width="3.7256"/>
 <path id="path18-0" d="m581.3 220.61h27.731v29.661h-27.731z" stroke-width="3.7256"/>
 <path id="path20-6" d="m615.24 260.21 45.866 119.68 26.615-0.0626 45.683-119.62h-27.539l-31.636 85.778-0.83169 0.0298-29.849-85.807h-28.309z" stroke-width="3.7256"/>
 <path id="path22-6" d="m546.36 225.83-26.237 22.428v11.589l-17.283 1e-5v22.53l17.283-2e-5 -7e-3 63.705c1.9e-4 19.591 14.565 34.6 33.606 34.6 6.9704-0.0142 13.685-3.8739 19.422-7.9465l-2.8006-22.396c-5.5166 5.6563-17.35 7.179-21.871 1.7726-1.593-2.2304-2.107-5.3202-2.1246-8.9641 0 0 0.0118-36.974 6e-3 -36.974h6e-3v-23.798h22.312v-22.53h-22.312z" stroke-width=".98571"/>
 <path id="path24-2" d="m782.44 260.21c-23.298 0.0161-36.961 12.288-47.3 29.124l18.092 13.712c6.7753-9.3825 15.587-16.663 28.574-18.38 15.689 0.21556 21.494 8.5722 22.248 18.352-13.431 1.5571-35.179 2.8629-55.429 12.734-20.251 9.8705-24.526 33.666-13.543 49.934 10.983 16.267 39.379 19.904 61.096 7.2749 5.6118-4.0691 7.2768-4.1696 10.947-8.1877l0.17101 15.366 25.295-0.24216c-1.385-11.867-1.611-18.426-1.7291-23.863-0.1181-5.4367-0.34015-60.31-0.33233-60.529-0.0111-0.15594-0.0186-0.31186-0.0335-0.4677v-0.67433h-0.045c-0.83859-19.022-22.077-34.13-48.008-34.151zm22.509 65.168s1.4062 10.444-2.3458 16.401c-3.752 5.9564-10.515 10.026-18.774 13.675-9.1612 4.0478-24.03 2.348-27.187-5.914-3.1563-8.2618 3.0858-17.831 13.932-19.875 8.0185-3.6341 34.375-4.2874 34.375-4.2874z" stroke-width="3.7256"/>
 <g id="g4615" transform="translate(280.06 92.787)" stroke-width="8.1402">
  <path id="path10-7-1" d="m-200.44-47.822c-43.968 0-79.622 35.653-79.622 79.622 0 43.968 35.653 79.622 79.622 79.622 43.968 0 79.622-35.653 79.622-79.622 0-43.968-35.653-79.622-79.622-79.622zm0 25.374c29.949 0 54.248 24.298 54.248 54.248 0 29.949-24.298 54.248-54.248 54.248-29.949 0-54.248-24.298-54.248-54.248 0-29.949 24.298-54.248 54.248-54.248z"/>
  <path id="path12-2-6" d="m-200.44 128.72c-43.968 0-79.622 35.653-79.622 79.622 0 43.968 35.653 79.622 79.622 79.622 43.968 0 79.622-35.653 79.622-79.622 0-43.968-35.653-79.622-79.622-79.622zm0 25.374c29.949 0 54.248 24.298 54.248 54.248 0 29.949-24.298 54.248-54.248 54.248-29.949 0-54.248-24.298-54.248-54.248 0-29.949 24.298-54.248 54.248-54.248z"/>
 </g>
</svg>
