<svg height="160.78" viewBox="0 0 158.75 42.540541" width="600" xmlns="http://www.w3.org/2000/svg"><g fill="#1c1a1b" transform="translate(-32.506 -175.94)"><path d="m45.19 207.98c-.13671 1.3443 1.2304 2.4456 3.0533 2.2254h.0076l9.061-1.1165.6228-4.2001-6.1597.75951c-.81268.0987-1.5494-.1595-1.4051-1.2076l.54685-3.8128c.1595-1.2076 1.1773-1.5266 2.2482-1.6634l5.7116-.69116.60002-4.2153-10.041 1.238c-1.3975.16709-2.4836 1.0633-2.8102 2.3773zm20.628-14.704-4.8609.59243-2.1191 15.023 4.8609-.59242zm-.6228 14.833 4.8229-.58483 1.0633-7.4736 4.3368 6.8053 4.3217-.53166 2.1191-15.016-4.8229.58483-1.0178 7.1698-4.1546-6.5318-4.5495.56204zm22.155-11.932.21266-1.5266 7.6256-.93421.59242-4.1166-12.403 1.519-2.1191 15.023 12.395-1.5266.56964-4.1166-7.618.9342.24305-1.633 7.1015-.87344.50128-3.6229zm51.229-4.6255 5.4002-7.8762-5.628.69116-2.514 3.8963-2.0963-3.3267-5.2559.64559 4.2609 6.4787-4.8685 7.0939-3.6381-13.026-4.8229.58483-7.7395 14.742 1.9823-14.059-5.3394.66078-3.8584 5.6584-2.3697-4.8989-4.8001.59242-2.1191 15.023 4.7546-.58483 1.0481-7.4433 2.59 4.9293.0835-.008 4.0938-5.7571-1.0405 7.4433 4.4432-.53926.39495-.0532 4.8989-.60002 1.033-2.1115 5.0888-.6228.48609 1.9216 3.8887-.47849 1.2836-.1519 4.3444-.53926 2.9621-4.5343 2.2786 3.8963 5.2558-.64559zm16.656-15.608-3.9267 27.958-118.8 14.583 3.9343-27.95zm-34.193 16.246.82787 3.4862-2.6659.31899z"/><path d="m159.34 181.24 4.6634-.40254-.85825 6.1749 5.985-.51647.86585-6.1825 4.6634-.40254-2.3089 16.504-4.6634.40254.87345-6.2736-5.985.52407-.87344 6.266-4.6634.40255z"/><path d="m181.14 191.65c2.7874-.24305 4.8533-1.914 5.2255-4.5723l.008-.0456c.36457-2.6431-1.2684-4.0178-4.0634-3.7748l-1.8988.16709-1.1696 8.3927zm-4.8229-11.879 6.4863-.56205c6.0154-.51647 9.0307 2.5748 8.3623 7.3369l-.008.0456c-.66078 4.7622-4.6938 8.6053-10.755 9.1294l-6.3951.55445z"/></g></svg>