<svg height="150.78" viewBox="0 0 158.75 39.8939" width="600" xmlns="http://www.w3.org/2000/svg"><g fill="#1c1a1b" transform="translate(-221.63 -130.7)"><path d="m275.54 158.11.49345-3.5832-6.6199.8123.21256-1.412 6.172-.75916.44031-3.1505-6.172.75917.1822-1.3285 6.6275-.8123.51623-3.5832-10.78 1.3209-1.8448 13.058z"/><path d="m255 160.63.92617-6.4908 3.7654 5.9139 3.7578-.46309 1.8448-13.05-4.1906.50864-.88062 6.2327-3.6136-5.6785-3.9552.48586-1.8448 13.058z"/><path d="m299.34 147.3.72121 3.0291-2.3154.28088zm-18.349 10.135.911-6.4756 2.2471 4.2893.0759-.008 3.5605-5.0029-.91099 6.4756 3.8641-.47827.34162-.0379 4.2665-.52383.88821-1.8372 4.4259-.539.42512 1.6702 3.3783-.41754 1.116-.13665 3.7806-.46308 2.566-3.9476 1.9814 3.3935 4.5702-.56178-3.8945-6.0885 4.6992-6.84-4.8966.59973-2.1864 3.3859-1.822-2.8924-4.5702.55419 3.7047 5.633-4.2285 6.172-3.1657-11.327-4.1906.50865-6.7262 12.815 1.7233-12.215-4.6385.56937-3.3555 4.9194-2.0573-4.2589-4.1754.51623-1.8372 13.058z"/><path d="m236.07 162.96h.008l7.8801-.96413.53901-3.6516-5.3521.65288c-.70602.0911-1.3513-.12906-1.2222-1.0476l.47068-3.3099c.13665-1.0476 1.0249-1.3285 1.9586-1.4424l4.9573-.60733.52383-3.6592-8.7228 1.0704c-1.2146.15183-2.156.92617-2.4445 2.0649l-1.245 8.9657c-.12146 1.1615 1.0704 2.1181 2.6495 1.9283"/><path d="m249.51 161.3 1.8448-13.058-4.2285.51623-1.8448 13.058z"/><path d="m340.52 147.81-.47827 3.3099-11.258 1.3817.45549-3.1429 6.6427-5.595c1.1387-.97932 1.4728-1.6398 1.3893-2.3078-.0911-.71361-.63011-1.1008-1.5259-.98692-1.0097.12147-2.0421.94896-3.0063 2.1636l-2.5887-2.1332c1.283-1.8068 3.029-3.1733 5.5419-3.4845 3.0898-.37958 5.2003 1.0704 5.4887 3.4466.22016 1.7461-.45549 3.2872-3.1202 5.4052l-3.2037 2.6419zm-19.313 9.4895-98.691 12.412 3.2492-23.101 98.691-12.412zm3.8793-23.959v.008l-99.989 12.579-3.4694 24.665 100.03-12.579 24.468-3.0139 3.4314-24.301z"/><path d="m352.71 135.47 4.0463-.34921-.75156 5.3521 5.1927-.44791.74397-5.3521 4.0463-.34922-1.9966 14.295-4.0463.34921.75917-5.428-5.1927.44791-.75917 5.4356-4.0387.34922z"/><path d="m371.61 144.49c2.4141-.21257 4.2058-1.655 4.5246-3.9628l.008-.0455c.31884-2.2851-1.1008-3.477-3.5149-3.2644l-1.6474.14423-1.0173 7.2728zm-4.183-10.294 5.6254-.48587c5.2154-.4555 7.8194 2.2243 7.25 6.3542l-.008.038c-.57697 4.1298-4.0691 7.4626-9.3225 7.918l-5.5419.47827z"/></g></svg>