<svg height="187.1" viewBox="0 0 158.75 49.503403" width="600" xmlns="http://www.w3.org/2000/svg"><g fill="#1c1a1b" transform="translate(-206.22 -125.89)"><path d="m273.12 159.9.61231-4.4464-8.2144 1.008.26376-1.7522 7.6587-.94202.54637-3.9094-7.6586.94203.22609-1.6486 8.2239-1.008.64058-4.4464-13.377 1.6391-2.2891 16.203z"/><path d="m247.63 163.03 1.1493-8.0543 4.6724 7.3384 4.663-.57464 2.2891-16.193-5.2.63116-1.0928 7.734-4.484-7.0463-4.9079.60289-2.2891 16.203z"/><path d="m302.66 146.5.89494 3.7587-2.8732.34854zm-22.769 12.576 1.1304-8.0355 2.7884 5.3224.0942-.01 4.4181-6.2079-1.1304 8.0354 4.7949-.59347.42391-.047 5.2942-.65001 1.1022-2.2797 5.492-.66883.52753 2.0724 4.192-.51811 1.3848-.16957 4.6913-.57462 3.184-4.8986 2.4587 4.2109 5.671-.6971-4.8326-7.555 5.8311-8.4876-6.0761.74419-2.713 4.2014-2.2609-3.5891-5.671.68769 4.5971 6.9898-5.2471 7.6587-3.9282-14.055-5.2.63117-8.3463 15.901 2.1384-15.157-5.7558.70652-4.1638 6.1043-2.5529-5.2848-5.1812.64058-2.2797 16.203z"/><path d="m224.14 165.93h.01l9.7782-1.1964.66884-4.5312-6.6413.81014c-.87608.11305-1.6768-.16014-1.5167-1.3l.58406-4.1072c.16956-1.3 1.2717-1.6486 2.4304-1.7899l6.1514-.75362.65-4.5406-10.824 1.3283c-1.5072.1884-2.6754 1.1493-3.0333 2.5623l-1.5449 11.125c-.15072 1.4413 1.3283 2.6282 3.2877 2.3927"/><path d="m240.82 163.87 2.2891-16.203-5.2471.64057-2.2891 16.203z"/><path d="m353.75 147.12-.59348 4.1072-13.97 1.7145.56521-3.9 8.2427-6.9427c1.413-1.2152 1.8275-2.0348 1.7239-2.8638-.11304-.88551-.78189-1.3659-1.8935-1.2246-1.2529.15073-2.534 1.1775-3.7304 2.6848l-3.2123-2.6471c1.592-2.242 3.7587-3.9376 6.8768-4.3239 3.834-.47101 6.4529 1.3282 6.8108 4.2768.27319 2.1667-.56521 4.079-3.8717 6.7072l-3.9754 3.2782zm-23.965 11.775-122.46 15.402 4.0319-28.666 122.46-15.402zm4.8137-29.73v.01l-124.07 15.609-4.305 30.606 124.13-15.609 30.361-3.7398 4.258-30.154z"/></g></svg>