<svg width="800" height="280.79" version="1.1" viewBox="0 0 800 280.79" xml:space="preserve" xmlns="http://www.w3.org/2000/svg"><defs><linearGradient id="linearGradient36" x2="1" gradientTransform="matrix(0 -93.641 -93.641 0 561.58 250.21)" gradientUnits="userSpaceOnUse"><stop stop-color="#fff" offset="0"/><stop stop-color="#fff" offset=".036984"/><stop stop-color="#d3d2d2" offset=".71064"/><stop stop-color="#d3d2d2" offset=".96701"/><stop stop-color="#d3d2d2" offset=".99015"/><stop stop-color="#d3d2d2" offset="1"/></linearGradient><linearGradient id="linearGradient62" x2="1" gradientTransform="matrix(519.96 0 0 -519.96 301.6 346.53)" gradientUnits="userSpaceOnUse"><stop stop-color="#335cb3" offset="0"/><stop stop-color="#5784cc" offset=".41829"/><stop stop-color="#5784cc" offset=".41918"/><stop stop-color="#335cb3" offset=".82657"/><stop stop-color="#335cb3" offset="1"/></linearGradient><clipPath id="clipPath72"><path d="M 0,595.276 H 841.89 V 0 H 0 Z"/></clipPath></defs><g transform="matrix(1.3333 0 0 -1.3333 -27.215 489.55)"><g transform="matrix(.74892 0 0 .74892 5.1248 39.312)"><path d="m821.56 156.57h-519.96v93.641h519.96z" fill="url(#linearGradient36)"/></g><g transform="matrix(.74892 0 0 .74892 5.1248 39.312)"><path d="m821.56 255.3h-519.96v182.46h519.96z" fill="url(#linearGradient62)"/></g><g transform="matrix(.74892 0 0 .74892 5.1248 39.312)"><g clip-path="url(#clipPath72)"><g transform="translate(741.53 194.85)"><path d="m0 0c1.91-0.159 3.98-0.399 5.25-2.075 0.4-0.558 0.73-1.278 0.73-1.916 0-1.037-0.73-1.835-0.95-2.074-1.2-1.356-3.19-1.596-3.69-1.675-0.699-0.16-2.39-0.401-4.39-0.401-6.389 0-7.98 2.236-9.98 4.709l-28.63 0.48c0.551-3.033 1.03-5.586 2.7-8.14 2.79-4.309 7.28-6.465 8.63-7.022 2.87-1.278 7.101-2.474 10.12-2.953 1.771-0.239 3.601-0.398 5.44-0.558 3.19-0.159 6.38-0.399 9.57-0.399 3.67 0 7.341 0.24 11.02 0.399 7.26 0.878 14.201 1.755 19.56 6.942 4.931 4.787 5.81 10.134 5.81 12.768 0 3.91-1.52 6.623-2.33 7.818-3.48 5.428-8.99 6.865-14.83 8.221l-25.759 4.069c-1.451 0.24-3.691 0.559-4.38 2.155-0.261 0.399-0.33 1.118-0.33 1.197 0 0.718 0.399 1.436 0.949 1.995 1.591 1.596 4.79 1.835 6.86 1.835 0.24 0 7.68 0.16 10.3-3.75 0.31-0.399 0.471-0.719 0.86-1.756l26.91-0.558c-0.58 3.111-1.2 5.985-3.11 8.459-1.6 2.074-3.67 3.431-4.4 3.91-7.579 4.946-17 5.585-26 6.144-2.48 0-4.869 0-7.25-0.08-2.579-0.16-5.119-0.32-7.6-0.558-5.43-0.799-10.61-1.597-15.08-5.028-0.58-0.478-1.84-1.436-2.96-3.032-2.7-3.671-2.95-7.82-2.95-9.495 0-5.906 2.64-9.258 4.31-10.775 3.02-2.712 6.93-3.75 10.701-4.788zm-210.55 35.829v-13.566h-38.95v-6.543h32.09v-13.805h-32.16v-7.98h41.41v-14.044h-63.36v55.938zm64.33 0c1.491-7.102 2.94-14.284 4.29-21.387 0.89-5.026 1.6-10.054 2.39-15.002 1.05 6.066 2.17 12.05 3.44 18.035 1.28 6.145 2.8 12.289 4.31 18.354h16.04l7.74-37.186c0.72 5.506 1.43 11.012 2.31 16.439 1.2 6.941 2.48 13.805 3.77 20.747h21.85l-14.27-55.938h-22.6l-7.1 31.52c-1.12-5.666-2.15-11.331-3.42-16.917-1.2-4.867-2.389-9.736-3.679-14.603h-22.571l-13.969 55.938zm-195.05-34.234v34.234h20.509v-55.938h-25.383c-1.987 2.713-3.985 5.345-5.825 8.139-1.353 1.915-2.706 3.91-4.07 5.824-1.353 1.997-2.864 3.832-4.302 5.827-1.121 1.594-2.242 3.351-3.436 5.027-1.036 1.516-2.23 3.033-3.266 4.628-1.438 2.075-2.803 4.309-4.156 6.544l0.317-35.989h-20.18v55.938h25.688z" fill="#040606"/></g><g transform="translate(368.67 273.28)"><path d="m0 0h-32.812v143.25l58.115-9.273c20.849-3.335 39.578-17.672 39.578-49.163 0-32.984-15.065-45.03-39.578-43.71l-25.303 1.335zm36.716 85.357c0 12.898-6.778 18.956-15.939 20.117l-20.777 2.621v-36.739l20.777-1.779c9.316-0.8 15.939 3.257 15.939 15.78" fill="#fff" fill-rule="evenodd"/></g><g transform="translate(466.93 273.28)"><path d="m0 0h-27.34v106.04l26.55-3.57v-18.77l0.319-0.025c3.87 13.11 13.37 17.394 24.181 15.923 1.93-0.242 5.18-0.69 5.18-0.69v-30.085l-6.85 0.631c-8.83 0.85-22.04-0.807-22.04-21.032z" fill="#fff" fill-rule="evenodd"/></g><g transform="translate(523.19 273.28)"><path d="m0 0h-22.86v96.729l22.86-3.064zm-0.3 102.29-22.65 3.282v25.353l22.65-4.039z" fill="#fff" fill-rule="evenodd"/></g><g transform="translate(564.94 273.28)"><path d="m0 0h-30.32v93.606h29.41v-13.429h0.37c5.77 9.852 16.03 16.284 27.78 16.284 12.14 0 21.57-3.996 26.79-15.891 7.62 10.384 17.15 15.891 30.19 15.891 30.78 0 32.77-23.66 32.77-42.366v-54.095h-30.35v53.153c0 10.575-5.04 16.832-13.23 16.832-13.59 0-14.92-10.59-14.92-26.475v-43.51h-30.31v51.245c0 11.535-3.39 18.74-11.94 18.74-11.39 0-16.24-6.625-16.24-26.677z" fill="#fff" fill-rule="evenodd"/></g><g transform="translate(727.22 338.7)"><path d="m0 0h-33.44c0.48 11.914 5.929 20.338 16.36 25.272 7.63 3.611 18.35 5.416 32.17 5.416 19.99 0 33.08-3.851 39.26-11.553 3.639-4.574 5.45-12.937 5.45-25.092v-38.451c0-9.746 1.46-16.727 4.37-20.94h-36.72c-1.091 3.009-1.52 5.957-1.27 8.846h-0.37c-6.661-7.462-16.781-11.191-30.35-11.191-9.82 0-17.63 2.285-23.45 6.858-6.54 5.056-9.821 12.215-9.821 21.482 0 8.905 3.281 15.825 9.821 20.759 4.729 3.49 11.94 6.138 21.63 7.943 4.849 0.602 9.69 1.264 14.54 1.986 6.299 0.842 10.969 2.046 14 3.61 2.059 0.963 3.09 2.949 3.09 5.957 0 5.777-3.94 8.665-11.82 8.665-4.841 0-8.421-1.083-10.721-3.249-1.819-1.685-2.729-3.791-2.729-6.318m25.27-23.287c-2.81-1.444-7.57-2.948-14.281-4.513-4.019-0.963-6.829-1.926-8.42-2.888-2.559-1.685-3.84-4.092-3.84-7.221 0-2.648 1.281-4.814 3.84-6.499 2.201-1.444 4.701-2.166 7.511-2.166 4.51 0 8.17 1.324 10.98 3.972 2.799 2.647 4.21 6.197 4.21 10.65z" fill="#fff" fill-rule="evenodd"/></g><g transform="translate(821.56 255.3)"><path d="m0 0h-519.96v182.46h-281.19v-281.19h281.19v93.64h519.96z" fill="#cc1e25" fill-rule="evenodd"/></g><g transform="translate(65.512 297.14)"><path d="m0 0c0-18.453 15.013-33.466 33.463-33.466h31.598c1.742 0 3.168 1.731 3.168 3.163v61.959c0 4.106 3.339 7.447 7.445 7.447 2.62 0 5.094-1.396 6.386-3.646 0.183-0.272 9.724-16.754 19.851-34.21 9.675-16.67 19.68-33.909 19.826-34.195 0.451-0.756 1.328-1.251 2.242-1.251 1.426 0 2.596 1.168 2.596 2.605v63.25c0 4.106 3.339 7.447 7.433 7.447 2.645 0 5.082-1.396 6.41-3.646 0.171-0.272 9.724-16.754 19.827-34.21 9.675-16.67 19.643-33.904 19.814-34.195 0.451-0.756 1.328-1.251 2.23-1.251 1.438 0 2.608 1.168 2.608 2.605v82.003h-12.113v-48.815s-22.544 38.825-23.287 40.072c-3.291 5.631-9.53 9.187-16.159 9.187-10.431 0-18.852-8.446-18.852-18.854v-30.405s-22.568 38.825-23.299 40.072c-3.29 5.631-9.541 9.187-16.183 9.187-10.419 0-18.851-8.446-18.851-18.854v-49.956c0-1.818-1.365-3.404-3.364-3.406h-19.18c-11.796 0-21.362 9.569-21.362 21.363 0 11.8 9.566 21.363 21.362 21.363h16.085v12.104h-16.231c-18.45 0-33.463-15.012-33.463-33.467" fill="#fff"/></g><g transform="translate(255.25 347.55)"><path d="m0 0v-82.003c0-4.106-3.339-7.447-7.445-7.447-2.62 0-5.094 1.399-6.41 3.648-0.158 0.272-9.7 16.758-19.826 34.213-9.652 16.663-19.656 33.899-19.803 34.192-0.45 0.76-1.316 1.249-2.242 1.249-1.425 0-2.595-1.168-2.595-2.605v-63.25c0-4.106-3.339-7.447-7.458-7.447-2.62 0-5.057 1.399-6.385 3.648-0.147 0.27-9.725 16.758-19.851 34.213-9.676 16.671-19.644 33.909-19.815 34.192-0.45 0.76-1.328 1.249-2.23 1.249-1.437 0-2.607-1.168-2.607-2.605v-61.959c0-4.267-3.741-8.002-8.006-8.002h-31.598c-21.119 0-38.301 17.183-38.301 38.305 0 21.124 17.182 38.305 38.301 38.305h16.231v12.104h-16.207c-27.857 0-50.425-22.567-50.425-50.409 0-27.841 22.568-50.412 50.425-50.412h31.89c12.077-5e-3 19.827 7.074 19.827 20.126v28.752s22.714-39.097 23.287-40.067c3.302-5.632 9.529-9.187 16.159-9.187 10.431 0 18.863 8.446 18.863 18.854v30.4s22.556-38.821 23.288-40.067c3.29-5.632 9.553-9.187 16.182-9.187 10.419 0 18.852 8.446 18.852 18.854v82.343z" fill="#fff"/></g></g></g></g></svg>
