<svg width="800" height="544.5" version="1.1" viewBox="0 0 800 544.5" xml:space="preserve" xmlns="http://www.w3.org/2000/svg"><g transform="matrix(1.3333 0 0 -1.3333 -925.03 82.751)"><g transform="matrix(21.924 0 0 21.924 -12852 -4063.3)"><g transform="translate(622.51 171.86)"><path d="m0 0c0.098 0.012 1.252 0.154 2.621 0.148l0.04-0.693c-1.364 0.087-2.487 0.474-2.662 0.542z" fill="#272929"/></g><g transform="translate(624.98 175.86)"><path d="m0 0c0.218 4.937 5.915 5.881 5.915 5.881s5.63 1.44 7.163-3.13c0.371-1.299 1.04-4.363 1.04-4.363s-1.931-1.25-6.823-2.476c-4.945-0.843-7.103-0.454-7.103-0.454s-0.192 3.164-0.192 4.542" fill="#2f3131"/></g><g transform="translate(630.23 171.46)"><path d="m0 0-8e-3 -1e-3 8e-3 1e-3m0.011 1e-3h-4e-3 4e-3m1.806 0.263c-0.648-0.107-1.247-0.193-1.797-0.262 0.55 0.069 1.149 0.155 1.797 0.262m0.101 0.017-0.096-0.016 0.096 0.016m0.127 0.021-0.085-0.014 0.017 3e-3h3e-3l0.026 5e-3h3e-3l0.036 6e-3m6.767 2.765c0.04-0.18 0.063-0.286 0.064-0.288 0 0-0.024 0.106-0.064 0.288" fill="#dfd7c9"/></g><g transform="translate(625.14 171.93)"><path d="m0 0 0.013-0.222z" fill="#222422"/></g><g transform="translate(638.97 174.84)"><path d="m0 0c-0.762-0.399-2.864-1.375-6.791-2.352-2.814-0.485-4.762-0.595-5.951-0.595-0.488 0-0.848 0.018-1.088 0.037l0.012-0.222c0.015-0.246 0.024-0.393 0.024-0.393s0.497-0.09 1.561-0.09c0.816 0 1.967 0.053 3.482 0.24h7e-3l7e-3 1e-3 5e-3 1e-3 8e-3 1e-3c0.551 0.068 1.149 0.154 1.797 0.261l6e-3 1e-3 0.095 0.016 0.042 7e-3 0.085 0.015 8e-3 1e-3c0.107 0.027 0.213 0.054 0.318 0.081 4.654 1.198 6.502 2.393 6.505 2.395 0 1e-3 -0.024 0.107-0.063 0.287-0.02 0.087-0.043 0.19-0.069 0.308" fill="#2a2c29"/></g><g transform="translate(622.51 171.86)"><path d="m0 0 2e-3 1e-3c0.159-0.063 1.289-0.455 2.667-0.544 0 0 2.158-0.389 7.103 0.454 4.892 1.226 6.823 2.476 6.823 2.476 1.276 0.647 2.237 1.48 2.37 1.604h2e-3c0.338-0.421 0.389-0.823 0.336-1.157-0.053-0.335-0.233-0.643-0.488-0.867-2.744-2.407-8.82-3.667-8.82-3.667s-6.071-1.295-9.308-0.147c-0.301 0.107-0.552 0.324-0.693 0.618-0.14 0.294-0.2 0.694 6e-3 1.229" fill="#2f3131"/></g><g transform="translate(641.32 173.83)"><path d="m0 0-1e-3 -1e-3 1e-3 1e-3m0.04 0.036-0.04-0.036 0.04 0.036m1e-3 1e-3 -1e-3 -1e-3 1e-3 1e-3m1e-3 1e-3h-1e-3z" fill="#d0d1d2"/></g><g transform="translate(622.58 171.83)"><path d="m0 0c0.121-0.043 0.349-0.117 0.654-0.197-0.305 0.08-0.533 0.154-0.654 0.197" fill="#202122"/></g><g transform="translate(641.77 174.52)"><path d="m0 0c-2.866-2.239-8.51-3.411-8.51-3.411s-2.913-0.621-5.78-0.621c-1.271 0-2.533 0.122-3.527 0.475-0.301 0.107-0.553 0.324-0.693 0.618l-0.022 0.047c-0.305 0.08-0.533 0.155-0.654 0.197l-0.077 0.029-2e-3 -1e-3c-0.095-0.247-0.134-0.465-0.134-0.657 0-0.225 0.052-0.414 0.128-0.572 0.14-0.294 0.392-0.511 0.693-0.618 0.994-0.353 2.256-0.475 3.527-0.475 2.866 0 5.781 0.621 5.781 0.621s6.075 1.261 8.82 3.668l2e-3 1e-3 0.039 0.036v1e-3l1e-3 1e-3h1e-3v1e-3c0.191 0.18 0.334 0.409 0.407 0.66" fill="#262828"/></g><g transform="translate(641.46 175.85)"><path d="m0 0c-0.096-0.028-1.222-0.366-2.513-0.932l0.149-0.671c1.264 0.641 2.219 1.464 2.366 1.6z" fill="#272929"/></g><g transform="translate(618.33 175.17)"><path d="m0 0 0.036-0.074-3e-3 -0.019-0.119-0.109c-0.103-0.077-0.165-0.136-0.186-0.175l-0.027-0.071 5e-3 -0.127 0.016-0.096c0.031-0.159 0.078-0.279 0.14-0.359l0.206-0.179c0.157-0.056 0.271-0.094 0.341-0.117l0.132-0.043c0.177-0.059 0.291-0.095 0.343-0.111 0.236-0.071 0.425-0.118 0.568-0.142 0.195-0.04 0.433-0.079 0.716-0.119 0.536-0.075 0.928-0.085 1.178-0.032l0.172 0.114 0.086 0.201c0.015 0.111-5e-3 0.215-0.061 0.31l-0.13 0.182c-0.081 0.111-0.116 0.206-0.105 0.284l0.116 0.085 0.08-0.049 0.111-0.191c0.06-0.093 0.125-0.234 0.195-0.423 0.058-0.163 0.08-0.292 0.067-0.387-8e-3 -0.116-0.053-0.214-0.133-0.295-0.07-0.087-0.164-0.17-0.283-0.249l-0.131-0.07-0.155-0.035c-0.403-0.078-0.884-0.078-1.442 0-0.524 0.074-0.99 0.195-1.397 0.365l-0.384 0.179-0.251 0.186c-0.099 0.089-0.162 0.23-0.189 0.422-0.017 0.153-0.015 0.31 7e-3 0.47l0.052 0.244c9e-3 0.041 0.062 0.115 0.158 0.223 0.092 0.108 0.167 0.175 0.224 0.201z"/></g><g transform="translate(620.92 177.28)"><path d="m0 0c0.333-0.095 0.63-0.201 0.89-0.318 0.277-0.126 0.498-0.26 0.663-0.402 0.126-0.114 0.213-0.261 0.26-0.443 0.052-0.179 0.055-0.352 7e-3 -0.519-0.048-0.168-0.138-0.297-0.271-0.389l6e-3 -1e-3 -0.016-0.054c-0.218-0.098-0.472-0.144-0.764-0.138l-0.551 0.17-0.927 0.25-0.123 0.068c-0.246 0.07-0.404 0.117-0.477 0.142l-0.04 5e-3 -0.025 0.014c-0.915 0.32-1.3 0.736-1.154 1.246 0.053 0.188 0.15 0.339 0.289 0.455 0.119 0.095 0.26 0.152 0.423 0.17 0.212 0.022 0.47 0.011 0.775-0.033 0.151-0.025 0.245-0.041 0.283-0.048 0.216-0.035 0.466-0.094 0.752-0.175m-0.329-0.32c-0.135 0.038-0.238 0.066-0.308 0.084l-0.149 0.039c-0.038 7e-3 -0.119 0.028-0.244 0.063-0.106 0.03-0.187 0.051-0.243 0.063l-0.23 0.027c-0.22 6e-3 -0.439-0.033-0.657-0.117l-0.135-0.117c-0.019-0.068 0.019-0.15 0.114-0.246 0.097-0.092 0.193-0.165 0.289-0.218 0.32-0.156 0.857-0.343 1.61-0.562l0.268-0.082 0.219-0.063c0.422-0.12 0.805-0.199 1.151-0.237l0.059-0.01h0.045l0.085 0.028 0.057 0.074c0.023 0.084-0.016 0.19-0.118 0.318-0.096 0.122-0.189 0.218-0.281 0.287-0.19 0.153-0.468 0.303-0.834 0.451-0.15 0.055-0.383 0.128-0.698 0.218"/></g><g transform="translate(620.29 180.86)"><path d="m0 0 0.045-0.024 0.028-0.021 0.5-0.313 0.499-0.304c0.025-0.018 0.086-0.053 0.184-0.104l5e-3 -3e-3 0.099-0.094 0.126-0.066 0.09-0.026 0.358-0.203 0.585-0.286 0.515-0.285c0.039-0.025 0.144-0.079 0.317-0.16l5e-3 -2e-3 0.072-0.109 0.029-0.092 0.023-0.054-0.041-0.091-0.013-0.036c-0.084-0.11-0.174-0.168-0.272-0.173l-0.078 0.048-0.02 0.011c-0.201 0.133-0.495 0.302-0.882 0.506l-0.737 0.38-0.749 0.38-0.565 0.311 0.185-0.42-0.02-0.186-0.067-0.092-0.011-8e-3 -0.099-0.04c-0.1-0.027-0.176-0.04-0.228-0.041l0.529-0.32 0.181-0.11 5e-3 -2e-3 0.099-0.095 0.126-0.066 0.09-0.026 0.358-0.203 0.585-0.286 0.515-0.285c0.039-0.025 0.144-0.078 0.317-0.159l5e-3 -3e-3 0.072-0.108 0.029-0.093 0.023-0.054-0.041-0.091-0.013-0.036c-0.086-0.114-0.175-0.17-0.269-0.167l-0.081 0.042-0.017 0.016c-0.193 0.116-0.337 0.201-0.433 0.256l-0.431 0.213-0.56 0.309-0.851 0.433c-0.428 0.225-0.766 0.419-1.016 0.583l-9e-3 0.069-0.056 0.127-3e-3 0.03 0.012 0.036 0.149 0.111c0.095 0.034 0.215 0.061 0.358 0.079l0.027-0.021 0.31 0.061 0.188 0.063c-0.013 0.04-0.06 0.151-0.14 0.334l-0.01 0.019-0.05 0.076-0.044 0.065c-0.068 0.116-0.118 0.205-0.149 0.268l-0.02 0.011-0.022 0.131 0.021 0.15 0.029 0.042 0.023 0.057 0.092 0.149 0.047 4e-3 0.042 6e-3 0.059-0.01 0.033-0.011 0.051-0.026z"/></g><g transform="translate(621.88 183.12)"><path d="m0 0 0.029-0.055-0.056-0.209c-0.031-0.065-0.088-0.15-0.17-0.254l-0.085-0.107-0.073-0.101 0.016-0.1c0.089-0.091 0.254-0.235 0.497-0.431l0.475-0.431 0.168-0.156 0.014-0.011 0.03-7e-3 0.035 0.035 0.08 0.119 0.151 0.23c0.111 0.14 0.218 0.205 0.323 0.197l-0.014-0.064-0.023-0.066-0.074-0.131-0.06-0.095-0.118-0.177c-0.013-0.016-0.05-0.076-0.113-0.18l-6e-3 -0.027 0.019-0.031c0.175-0.153 0.313-0.27 0.414-0.351 0.075-0.058 0.205-0.153 0.389-0.282l0.296-0.234 0.109-0.11c0.159-0.125 0.263-0.204 0.314-0.239l0.033 6e-3 0.024 0.02 0.169 0.215c0.073 0.086 0.168 0.179 0.287 0.281l0.189 0.073 0.031-0.072-0.068-0.16-0.11-0.12-0.093-0.1-0.174-0.211-0.165-0.219c-0.059-0.086-0.141-0.163-0.249-0.232-0.094-0.052-0.18-0.056-0.256-0.011l-0.034 0.058c-0.191 0.182-0.457 0.408-0.798 0.677l-0.618 0.479-0.641 0.49c-0.418 0.33-0.739 0.609-0.961 0.837l-0.016 0.068 0.04 0.119c0.037 0.103 0.074 0.174 0.11 0.214 0.081 0.079 0.163 0.17 0.245 0.274l0.064 0.1 0.06 0.104 0.108 0.136 0.083 0.125 0.126 0.122z"/></g><g transform="translate(625.97 183.12)"><path d="m0 0c0.149-0.294 0.24-0.606 0.272-0.935 0.025-0.315-0.055-0.595-0.239-0.838l-5e-3 -0.013-0.032-0.049-0.14-0.219 2e-3 -0.021 5e-3 -0.063-0.081-0.078-0.029-0.033c-0.133-0.074-0.241-0.094-0.325-0.061l-0.067 0.078-0.01 0.022c-0.183 0.25-0.4 0.52-0.65 0.812l-0.583 0.667-0.606 0.684c-0.353 0.41-0.621 0.75-0.804 1.019l0.02 0.101 0.086 0.149 0.035 0.045 9e-3 8e-3 0.205 0.162 0.045-0.014 0.021-5e-3 0.024-9e-3c0.086 0.053 0.194 0.086 0.325 0.099 0.121 0.013 0.275 0.025 0.462 0.035 0.25 0.015 0.506-0.034 0.767-0.146 0.257-0.121 0.477-0.275 0.661-0.463l0.123-0.143c0.188-0.231 0.282-0.346 0.282-0.346s0.075-0.148 0.227-0.445m-2.118 0.506 0.38-0.404 0.165-0.182 0.548-0.607 0.633-0.736 0.255-0.286 0.051 0.074 0.043 0.075 0.035 0.158c0.038 0.109 0.057 0.192 0.055 0.251 4e-3 0.104 3e-3 0.178-3e-3 0.223l-0.041 0.162-0.013 0.034c-0.014 0.098-0.099 0.277-0.255 0.534l-0.085 0.138c-0.032 0.068-0.117 0.193-0.257 0.374-0.049 0.063-0.116 0.144-0.2 0.242l-0.117 0.126c-0.082 0.095-0.185 0.183-0.308 0.262-0.148 0.089-0.296 0.173-0.445 0.25-0.04 0.021-0.131 0.048-0.275 0.081-0.134 0.029-0.267 0.046-0.396 0.05s-0.218-0.014-0.265-0.054l-0.026-0.075z"/></g><g transform="translate(628.32 184.95)"><path d="m0 0c0.108-0.231 0.176-0.382 0.205-0.453 0.127-0.281 0.22-0.525 0.281-0.733l0.063-0.222c0.024-0.102 0.029-0.186 0.014-0.252 2e-3 -0.289-0.065-0.535-0.204-0.739-0.124-0.184-0.269-0.315-0.434-0.392-0.143-0.067-0.288-0.09-0.434-0.071-0.155 0.017-0.294 0.08-0.418 0.19-0.096 0.077-0.158 0.132-0.187 0.165l-0.112 0.149-0.016 0.138c0.015 0.066 0.072 0.121 0.169 0.167 0.09 0.042 0.175 0.061 0.255 0.056 0.093-2e-3 0.154-0.029 0.182-0.079l0.1-0.199c0.059-0.107 0.115-0.188 0.168-0.243l0.103-0.065 0.093-1e-3 0.053 0.018 0.198 0.194c0.041 0.078 0.073 0.181 0.095 0.309-0.125 0.337-0.271 0.685-0.439 1.044l-0.396 0.817c-0.107-0.113-0.215-0.195-0.324-0.246-0.162-0.075-0.339-0.104-0.531-0.084-0.192 0.028-0.348 0.104-0.47 0.228-0.075 0.062-0.144 0.147-0.209 0.255l-0.065 0.109-0.113 0.155-0.082 0.145-0.016 0.036-0.195 0.401c-0.071 0.152-0.118 0.281-0.14 0.389-0.028 0.108-0.015 0.184 0.038 0.226l0.206 0.133c0.108 0.051 0.2 0.056 0.274 0.015 0.077-0.056 0.142-0.142 0.195-0.255l0.124-0.308 0.08-0.202 0.057-0.151c0.046-0.108 0.099-0.241 0.159-0.398 0.01-0.033 0.042-0.106 0.096-0.22l0.066-0.127 0.22-0.074 0.182-9e-3 0.126 0.04c0.109 0.051 0.166 0.134 0.171 0.25l-0.409 0.875-0.183 0.362c-0.122 0.262-0.153 0.466-0.093 0.612 0.052 0.113 0.114 0.186 0.185 0.219l0.256-0.032c0.094-0.065 0.166-0.149 0.214-0.253 0.082-0.184 0.137-0.327 0.165-0.427 0.092-0.197 0.171-0.393 0.235-0.59l0.361-0.714z"/></g><g transform="translate(634.86 187.63)"><path d="m0 0 3e-3 -6e-3h3e-3l-0.01-0.051-2e-3 -0.028c-0.018-0.095-0.03-0.187-0.036-0.279-0.016-0.113-0.026-0.196-0.029-0.25-9e-3 -0.064-0.025-0.191-0.05-0.38l-0.046-0.323-0.028-0.233v-0.012l-0.054-0.151-0.01-0.154 0.018-0.11c-0.017-0.132-0.031-0.284-0.042-0.455l-0.01-0.251-0.02-0.491-0.015-0.142-0.016-0.148-0.015-0.136c-3e-3 -0.039-4e-3 -0.126-5e-3 -0.264v-5e-3l-0.077-0.127-0.086-0.069-0.04-0.049-0.072-1e-3 -0.041-3e-3 -0.05-2e-3c-0.155 0.04-0.251 0.108-0.286 0.202l7e-3 0.108 7e-3 0.011c0.035 0.223 0.069 0.576 0.1 1.058 0.027 0.411 0.049 0.781 0.066 1.112l-0.546 0.03-0.372 0.024c-0.133 9e-3 -0.267 0.024-0.403 0.044v-6e-3l-0.011-0.074c-0.04-0.356-0.068-0.653-0.083-0.893l-0.024-0.451-0.017-0.176-0.014-0.114c-0.01-0.148-0.016-0.283-0.02-0.405v-6e-3l-0.077-0.126-0.08-0.069-0.053-0.049-0.112 2e-3 -0.043-3e-3c-0.156 0.033-0.254 0.099-0.293 0.197l0.013 0.102 2e-3 0.028c0.04 0.296 0.073 0.652 0.101 1.07 0.025 0.395 0.04 0.65 0.043 0.764l0.044 0.776c0.034 0.521 0.085 0.979 0.152 1.376 3e-3 0.038 0.061 0.068 0.175 0.092 0.109 0.023 0.189 0.033 0.238 0.03l0.198-0.03 0.028-0.048 0.016-0.035 0.015-0.07 0.016-0.035 2e-3 -0.015 3e-3 3e-3 -9e-3 -0.057-7e-3 -0.011-8e-3 -0.017c-0.044-0.367-0.08-0.685-0.106-0.954l-0.073-0.643 0.068-0.01 0.261-0.017 0.298-0.025c0.36-0.023 0.587-0.04 0.682-0.05l0.021 0.331c0.036 0.547 0.084 0.996 0.144 1.347 0.011 0.034 0.067 0.062 0.168 0.086 0.102 0.028 0.183 0.036 0.245 0.025l0.198-0.019 0.017-0.024 5e-3 -0.015 6e-3 -0.014 0.01-0.133 0.015-0.058 3e-3 -0.04z"/></g><g transform="translate(637.38 184.83)"><path d="m0 0c-0.1-0.332-0.21-0.627-0.331-0.885-0.13-0.275-0.267-0.494-0.411-0.658-0.116-0.124-0.264-0.209-0.447-0.253-0.179-0.05-0.352-0.05-0.519 0s-0.295 0.143-0.385 0.277l-1e-3 -6e-3 -0.054 0.017c-0.094 0.219-0.137 0.474-0.127 0.765l0.178 0.55 0.264 0.922 0.069 0.123c0.073 0.244 0.123 0.402 0.149 0.474l5e-3 0.04 0.015 0.026c0.333 0.909 0.754 1.288 1.263 1.135 0.186-0.056 0.336-0.154 0.45-0.296 0.094-0.119 0.149-0.261 0.164-0.425 0.019-0.212 4e-3 -0.47-0.044-0.774-0.028-0.151-0.045-0.245-0.052-0.283-0.039-0.215-0.101-0.464-0.186-0.749m-0.316 0.333c0.041 0.135 0.071 0.238 0.089 0.308l0.042 0.148c7e-3 0.038 0.029 0.119 0.066 0.243 0.032 0.106 0.054 0.186 0.066 0.242l0.03 0.23c0.01 0.22-0.026 0.439-0.107 0.659l-0.115 0.135c-0.068 0.021-0.15-0.016-0.248-0.11-0.093-0.095-0.167-0.191-0.222-0.285-0.16-0.318-0.355-0.852-0.584-1.602l-0.087-0.267-0.066-0.219c-0.126-0.419-0.21-0.801-0.253-1.146l-0.011-0.06-1e-3 -0.044 0.027-0.086 0.073-0.057c0.084-0.025 0.19 0.012 0.32 0.112 0.123 0.095 0.22 0.187 0.291 0.277 0.156 0.188 0.31 0.463 0.462 0.827 0.058 0.15 0.134 0.382 0.228 0.695"/></g><g transform="translate(640.09 184.26)"><path d="m0 0-0.195-0.362c-0.24-0.446-0.484-0.869-0.732-1.267-0.114-0.168-0.221-0.298-0.323-0.391-0.107-0.094-0.231-0.132-0.373-0.117l0.032-4e-3c-0.091-3e-3 -0.175 0.01-0.254 0.039l-5e-3 3e-3 -0.197 0.08c-0.092 0.05-0.173 0.113-0.244 0.19-0.072 0.078-0.124 0.164-0.157 0.26-0.048 0.095-0.073 0.214-0.076 0.358 5e-3 0.132 0.064 0.364 0.177 0.697l0.152 0.268c0.043 0.081 0.139 0.267 0.287 0.56l0.333 0.631c0.246 0.456 0.469 0.831 0.669 1.126l0.134 0.025 0.2-0.049 0.063-0.054 0.066-0.126-0.032-0.125-0.03-0.095-0.081-0.151c-0.059-0.154-0.133-0.313-0.222-0.477l-0.216-0.39c-0.324-0.6-0.597-1.06-0.822-1.381l-0.089-0.153-0.228-0.422c-0.047-0.087-0.063-0.184-0.05-0.291 9e-3 -0.105 0.049-0.176 0.118-0.213 0.066-0.035 0.15-0.028 0.251 0.021l0.126 0.088 0.114 0.12 0.133 0.169c0.034 0.055 0.107 0.186 0.219 0.394l0.377 0.712 0.379 0.73c0.24 0.446 0.458 0.812 0.653 1.096l0.134 0.025 0.199-0.049 0.069-0.056 0.061-0.15-0.035-0.156-0.027-0.038-0.165-0.333-0.027-0.076c-0.076-0.115-0.146-0.231-0.209-0.348l-0.078-0.159-0.056-0.11z"/></g><g transform="translate(641.21 181.15)"><path d="m0 0c-0.085-0.097-0.203-0.194-0.353-0.29-0.171-0.094-0.343-0.136-0.516-0.126-0.243 5e-3 -0.426 0.061-0.547 0.168l-0.177 0.147-0.066 0.058-0.085 0.082-0.12 0.151-0.074 0.194c-0.03 0.091-1e-3 0.206 0.085 0.342 0.074 0.103 0.127 0.173 0.16 0.21 0.178 0.204 0.339 0.243 0.482 0.117l0.043-0.045 0.06-0.121-0.048-0.14-0.137-0.184c-0.085-0.098-0.146-0.176-0.182-0.236l-3e-3 -0.202 0.03-0.041c0.059-0.052 0.179-0.073 0.358-0.063 0.124 2e-3 0.235 0.022 0.332 0.058 0.108 0.047 0.203 0.108 0.285 0.183 0.134 0.121 0.224 0.209 0.272 0.264 0.243 0.277 0.365 0.533 0.365 0.766l-0.052 0.205c-0.014 0.047-0.05 0.119-0.108 0.216-0.033 0.064-0.069 0.141-0.11 0.233l-0.037 0.184c-5e-3 0.146 0.022 0.277 0.08 0.394 0.072 0.114 0.158 0.228 0.259 0.343 0.09 0.103 0.198 0.188 0.323 0.256 0.148 0.087 0.288 0.152 0.419 0.195 0.172 0.051 0.33 0.014 0.473-0.111l0.071-0.07c0.283-0.319 0.364-0.683 0.242-1.093l-0.077-0.183-0.059-0.039-0.127-0.041-0.124 0.048-0.06 0.12c-7e-3 0.067 0.035 0.157 0.128 0.268l0.062 0.09 0.062 0.128c0.02 0.099 0.023 0.193 8e-3 0.282l-0.123 0.229-0.133 0.056-0.173-0.084c-0.136-0.099-0.283-0.239-0.441-0.419l-0.139-0.159-0.061-0.061c-0.09-0.103-0.137-0.209-0.139-0.318l0.028-0.139 0.058-0.217c0.044-0.176 0.07-0.297 0.077-0.364 0.014-0.104 0.012-0.22-8e-3 -0.35l-0.02-0.089-0.012-0.065-0.011-0.036c-0.145-0.298-0.292-0.532-0.44-0.701"/></g><g transform="translate(645.17 181.2)"><path d="m0 0-0.061-0.012-0.184 0.116c-0.052 0.049-0.116 0.128-0.191 0.238l-0.078 0.112-0.075 0.1-0.1 0.014c-0.113-0.058-0.299-0.173-0.559-0.347l-0.552-0.327c-0.091-0.048-0.158-0.086-0.198-0.114l-0.015-9e-3 -0.016-0.027 0.023-0.044 0.091-0.111 0.174-0.213c0.101-0.147 0.132-0.269 0.093-0.367l-0.058 0.033-0.055 0.041-0.104 0.11-0.073 0.086-0.134 0.164c-0.011 0.017-0.058 0.071-0.138 0.161l-0.024 0.014-0.035-9e-3c-0.199-0.121-0.351-0.219-0.458-0.292-0.078-0.054-0.207-0.15-0.385-0.287l-0.31-0.214-0.138-0.072c-0.166-0.114-0.273-0.191-0.321-0.229l-5e-3 -0.033 0.013-0.029 0.155-0.225c0.06-0.095 0.122-0.214 0.183-0.358 0.047-0.108 0.052-0.175 0.014-0.201l-0.077-8e-3 -0.133 0.112-0.082 0.14-0.069 0.119-0.15 0.229-0.16 0.222c-0.065 0.081-0.114 0.183-0.148 0.306-0.022 0.106 0 0.188 0.065 0.248l0.066 0.016c0.231 0.128 0.525 0.315 0.883 0.561l0.641 0.449 0.656 0.467c0.44 0.302 0.801 0.525 1.085 0.671l0.07-6e-3 0.102-0.073 0.172-0.169c0.051-0.1 0.113-0.205 0.189-0.315l0.076-0.091 0.081-0.087 0.05-0.072 0.049-0.072 0.094-0.116 0.08-0.157z"/></g></g></g></svg>
