<?xml version="1.0" encoding="UTF-8"?>
<!-- Created with Inkscape (http://www.inkscape.org/) -->
<svg id="svg94" width="600" height="657.08" version="1.1" xmlns="http://www.w3.org/2000/svg" xmlns:cc="http://creativecommons.org/ns#" xmlns:dc="http://purl.org/dc/elements/1.1/" xmlns:rdf="http://www.w3.org/1999/02/22-rdf-syntax-ns#">
 <metadata id="metadata2">
  <rdf:RDF>
   <cc:Work rdf:about="">
    <dc:format>image/svg+xml</dc:format>
    <dc:type rdf:resource="http://purl.org/dc/dcmitype/StillImage"/>
    <dc:title/>
   </cc:Work>
  </rdf:RDF>
 </metadata>
 <g id="g971" fill="#fff">
  <path id="path4" d="m293.59 448.14c-82.332 0-157.85-45.046-197.16-117.49l40.48-21.949c31.195 57.615 91.25 93.375 156.68 93.375 98.167 0 178.08-79.822 178.08-177.99 0-98.22-79.91-178.08-178.08-178.08-64.637 0-124.27 35.127-155.71 91.672l-40.236-22.418c39.534-71.08 114.67-115.27 195.95-115.27 123.55 0 224.11 100.52 224.11 224.09 0 123.53-100.55 224.05-224.11 224.05"/>
  <path id="path6" d="m293.24 334.88c-61.109 0-110.86-49.698-110.86-110.84 0-61.056 49.751-110.81 110.86-110.81 40.131 0 77.259 21.733 96.763 56.808l-40.131 22.453c-11.463-20.504-33.179-33.249-56.632-33.249-35.707 0-64.795 29.106-64.795 64.795 0 35.724 29.088 64.778 64.795 64.778 23.927 0 45.818-13.078 57.159-34.179l40.552 21.786c-19.346 36.005-56.773 58.458-97.711 58.458"/>
  <path id="path8" d="m1.3166 556.75c0-0.86018 0.22821-1.422 0.77242-2.0012 0.56176-0.57932 1.2113-0.80753 1.8959-0.80753h60.161c0.84264 0 1.5097 0.22821 2.1241 0.80753 0.43887 0.5793 0.68464 1.1411 0.68464 2.0012v15.799c0 0.70219-0.24577 1.4922-0.68464 1.9135-0.61442 0.61442-1.2815 0.87774-2.1241 0.87774h-40.218v20.908h33.214c0.71975 0 1.4395 0.31599 1.8959 0.75486 0.57931 0.56176 0.80753 1.2288 0.80753 1.9135v15.887c0 0.77242-0.22821 1.4922-0.80753 1.9135-0.45643 0.59686-1.1762 0.86018-1.8959 0.86018h-33.214v35.18c0 0.86019-0.26332 1.5273-0.73731 2.1066-0.57931 0.56175-1.1937 0.78997-2.0539 0.78997h-17.151c-0.68464 0-1.3342-0.22822-1.8959-0.78997-0.5442-0.57931-0.77242-1.2464-0.77242-2.1066v-96.008z"/>
  <path id="path10" d="m138.51 553.19c-1.0708 0-1.8817 0.56784-2.5312 1.6562l-45.344 97.688c-0.56176 1.0708-0.4954 1.796 0.03125 2.6562 0.5442 0.78997 1.2943 1.125 2.3125 1.125h16c1.4922 0 2.6261-0.33503 3.4688-1.125 0.91285-0.68465 1.4477-1.4895 1.7812-2.4375l5.2188-11.531h39.562l5.1562 11.469c0.61442 1.3868 1.3779 2.2918 2.0625 2.9062 0.63198 0.56175 1.7733 0.71875 3.125 0.71875h16.031c1.1586 0 1.9246-0.33503 2.4688-1.125 0.45644-0.8602 0.56176-1.5854 0-2.6562l-45.469-97.688c-0.45644-1.0884-1.2789-1.6562-2.4375-1.6562h-1.4375zm0.5625 44.281h0.15625l11.062 23.969h-22.156l10.938-23.969z"/>
  <path id="path12" d="m233.37 554.84c0.12288-0.66709 0.42132-1.1762 0.98307-1.6502 0.57932-0.49154 1.0357-0.66709 1.6853-0.66709h2.2295c0.40377 0 0.8602 0.0878 1.4746 0.3511 0.49153 0.31599 0.86019 0.59686 1.0884 1.0708l33.67 62.776h0.24578l33.793-62.776c0.17554-0.47399 0.47398-0.75486 1.1235-1.0708 0.47398-0.26333 0.86019-0.3511 1.2991-0.3511h2.3348c0.56177 0 1.1235 0.17555 1.7028 0.66709 0.52664 0.47398 0.78997 0.98307 0.91285 1.6502l16.414 97.605c0.12288 0.89531 0 1.6677-0.56177 2.2997-0.64952 0.59687-1.264 0.91286-2.1768 0.91286h-17.169c-0.59687 0-1.3342-0.22822-1.8082-0.78997-0.56175-0.52665-0.89529-1.0006-0.94796-1.5799l-6.6182-44.87h-0.19311l-24.472 47.012c-0.17556 0.56177-0.52666 0.8953-1.0357 1.2464-0.56177 0.29844-1.0533 0.40376-1.4571 0.40376h-2.4752c-1.1586 0-1.931-0.56175-2.5279-1.6502l-24.612-47.012h-0.26332l-6.3724 44.87c-0.14043 0.57931-0.40376 1.0533-0.86019 1.5799-0.52665 0.56175-1.0708 0.78997-1.8959 0.78997h-17.169c-0.89529 0-1.4922-0.31599-2.1768-0.91286-0.54421-0.63197-0.75486-1.4044-0.54421-2.2997l16.379-97.605z"/>
  <path id="path14" d="m388.94 575.17v-18.415c0-0.86018-0.24577-1.422-0.75486-2.0012-0.52665-0.57932-1.1586-0.80753-2.0013-0.80753h-17.432c-0.80753 0-1.4044 0.22821-1.9662 0.80753-0.47398 0.5793-0.80753 1.1411-0.80753 2.0012v18.415h22.962z"/>
  <path id="path16" d="m365.98 590.79v61.969c0 0.86019 0.33355 1.5273 0.80753 2.1066 0.56176 0.56175 1.1586 0.78997 1.9662 0.78997h17.432c0.84264 0 1.4746-0.22822 2.0013-0.78997 0.50909-0.57931 0.75486-1.2464 0.75486-2.1066v-61.969h-22.962z"/>
  <path id="path18" d="m429.83 556.75c0-0.86018 0.14044-1.422 0.73731-2.0012 0.59686-0.57932 1.1937-0.80753 2.0012-0.80753h17.274c0.78997 0 1.4395 0.22821 1.931 0.80753 0.57931 0.5793 0.82508 1.1411 0.82508 2.0012v77.487h34.636c0.7022 0 1.3517 0.31599 1.8608 0.80752 0.5793 0.57932 0.82508 1.2288 0.82508 2.0013v15.712c0 0.86019-0.24578 1.5273-0.82508 2.1066-0.50909 0.56175-1.1586 0.78997-1.8608 0.78997h-54.666c-0.80752 0-1.4044-0.22822-2.0012-0.78997-0.59687-0.57931-0.73731-1.2464-0.73731-2.1066v-96.008z"/>
  <path id="path20" d="m544.22 606.66-32.125-48.539c-0.59687-0.87774-0.59687-1.8784-0.10533-2.7912 0.42131-0.89529 1.3166-1.3868 2.5104-1.3868h18.819c0.56175 0 1.0708 0.15799 1.0708 0.15799 0.78997 0.56175 1.0357 0.86019 1.0357 0.86019l20.329 30.089 20.258-29.72s0.49153-0.66709 0.77241-0.98307c0.45643-0.24577 0.8953-0.40376 1.5624-0.40376h18.959c1.0533 0 1.8257 0.49154 2.405 1.3868 0.42132 0.91286 0.40376 1.9135-0.1931 2.7912l-32.512 48.381v46.257c0 0.86019-0.24577 1.5273-0.82508 2.1066-0.5442 0.56175-1.1411 0.78997-1.8784 0.78997h-17.309c-0.80753 0-1.4746-0.22822-2.0188-0.78997-0.54419-0.57931-0.75486-1.2464-0.75486-2.1066v-46.099z"/>
  <path id="path22" d="m21.909 491.57c6.0916 0 10.568 1.8959 14.693 5.6351 0.52665 0.49153 0.52665 1.1937 0.05266 1.6853l-4.7223 4.9505c-0.42132 0.42132-1.106 0.42132-1.5273 0-2.2295-2.0188-5.2138-3.0897-8.1981-3.0897-6.864 0-11.885 5.6702-11.885 12.464 0 6.7411 5.0909 12.306 11.955 12.306 2.8439 0 5.9336-0.98308 8.1279-2.879 0.42132-0.3511 1.2113-0.3511 1.5624 0.0352l4.7223 5.0558c0.43887 0.43888 0.36865 1.2288-0.03511 1.6151-4.143 4.0201-9.3392 5.8984-14.746 5.8984-12.13 0-21.909-9.6552-21.909-21.786 0-12.148 9.7781-21.891 21.909-21.891"/>
  <path id="path24" d="m70.356 491.57c-12.13 0-21.781 9.7583-21.781 21.906 0 12.166 9.6508 21.781 21.781 21.781 12.078 0 21.812-9.6157 21.812-21.781 0-12.148-9.7347-21.906-21.812-21.906zm0 9.7188c6.6358 0 12.094 5.5342 12.094 12.188 0 6.6182-5.458 12.062-12.094 12.062-6.6533 0-12.094-5.4443-12.094-12.062 0-6.6533 5.4404-12.188 12.094-12.188z"/>
  <path id="path26" d="m107.94 492.54c0.0527-0.5442 0.61442-0.96551 1.106-0.96551h0.96552c0.29843 0 0.82508 0.22821 1.0357 0.63197l14.079 26.209h0.10533l14.097-26.209c0.17555-0.40376 0.68464-0.63197 1.0182-0.63197h1.0006c0.47398 0 1.0006 0.42131 1.0708 0.96551l6.8464 40.78c0.14045 0.78998-0.42131 1.3342-1.1586 1.3342h-7.1448c-0.56176 0-1.1235-0.50909-1.1411-0.96551l-2.7386-18.766h-0.10534l-10.234 19.662c-0.14045 0.36865-0.71976 0.66708-1.0182 0.66708h-1.106c-0.33355 0-0.82508-0.29843-1.0006-0.66708l-10.287-19.662h-0.10533l-2.6683 18.766c-0.0702 0.45642-0.54421 0.96551-1.1586 0.96551h-7.1273c-0.75486 0-1.2815-0.54419-1.1762-1.3342l6.8464-40.78z"/>
  <path id="path28" d="m164.94 493.31c0-0.59686 0.47398-1.106 1.1411-1.106h25.104c0.68465 0 1.1586 0.5091 1.1586 1.106v6.6358c0 0.59687-0.47398 1.1411-1.1586 1.1411h-16.765v7.5486h13.833c0.57932 0 1.1235 0.5442 1.1235 1.106v6.6533c0 0.66709-0.5442 1.1411-1.1235 1.1411h-13.833v8.1981h16.765c0.68465 0 1.1586 0.54421 1.1586 1.1411v6.6358c0 0.59688-0.47398 1.1411-1.1586 1.1411h-25.104c-0.66708 0-1.1411-0.54419-1.1411-1.1411v-40.201z"/>
  <path id="path30" d="m205.82 492.19c-0.63198 0-1.0938 0.52814-1.0938 1.125v40.188c0 0.59688 0.46177 1.1562 1.0938 1.1562h14.812c11.692 0 21.281-9.537 21.281-21.281 0-11.656-9.5897-21.188-21.281-21.188h-14.812zm8.375 8.9062h5.8125c6.864 0 11.844 5.3997 11.844 12.281 0 6.8991-4.9798 12.281-11.844 12.281h-5.8125z"/>
  <path id="path32" d="m264.2 514.2-13.412-20.258c-0.47398-0.78997 0-1.7379 0.98306-1.7379h7.8646c0.50909 0 0.82508 0.26332 1.0006 0.5091l8.4439 12.446 8.4088-12.446c0.17556-0.24578 0.42132-0.5091 0.94797-0.5091h7.9173c0.96552 0 1.4746 0.94797 0.96552 1.7379l-13.588 20.188v19.381c0 0.59688-0.5442 1.1411-1.1762 1.1411h-7.1975c-0.64954 0-1.1586-0.54419-1.1586-1.1411v-19.31z"/>
  <path id="path34" d="m578.92 534.74c-5.8282 0-10.094-1.773-14.061-5.4245-0.49154-0.43888-0.49154-1.1411-0.0527-1.6151l4.5467-4.6872c0.36865-0.40376 1.0533-0.40376 1.4395 0 2.1417 1.9135 4.9856 2.9492 7.847 2.9492 6.5655 0 11.376-5.4596 11.376-11.937 0-6.4602-4.8452-11.832-11.411-11.832-2.7386 0-5.6878 1.0357-7.8119 2.8263-0.38621 0.33355-1.1586 0.33355-1.5097-0.0702l-4.5116-4.8276c-0.40376-0.42131-0.35109-1.1937 0.0352-1.5624 3.9674-3.827 8.9354-5.6527 14.114-5.6527 11.621 0 20.996 9.2339 20.996 20.873 0 11.656-9.3743 20.961-20.996 20.961"/>
  <path id="path36" d="m550.26 533.07c0 0.56177-0.43887 1.0708-1.1235 1.0708h-23.998c-0.64954 0-1.106-0.50908-1.106-1.0708v-6.3549c0-0.57931 0.45642-1.0884 1.106-1.0884h16.08v-7.2151h-13.254c-0.59687 0-1.106-0.50909-1.106-1.106v-6.3198c0-0.64954 0.50909-1.106 1.106-1.106h13.254v-7.8295h-16.08c-0.64954 0-1.106-0.56176-1.106-1.106v-6.3373c0-0.57931 0.45642-1.1235 1.106-1.1235h23.998c0.68464 0 1.1235 0.5442 1.1235 1.1235z"/>
  <path id="path38" d="m508.7 533.7c0 0.57931-0.49153 1.0358-1.0708 1.0358h-1.4571l-23.19-22.295h-0.0527v20.627c0 0.56177-0.45642 1.0708-1.106 1.0708h-6.9868c-0.56176 0-1.0884-0.50908-1.0884-1.0708v-39.095c0-0.61443 0.52664-1.0708 1.0884-1.0708h0.91286c0.1931 0 0.66708 0.1931 0.78997 0.28088l22.962 23.085h0.0702v-21.663c0-0.57931 0.43887-1.1235 1.0708-1.1235h6.9166c0.56176 0 1.106 0.5442 1.106 1.1235l0.0351 39.095z"/>
  <path id="path40" d="m450.98 525.64h8.2859c0.64953 0 1.1411 0.49154 1.1411 1.0708v6.3549c0 0.56177-0.49154 1.0708-1.1411 1.0708h-25.753c-0.66708 0-1.106-0.50908-1.106-1.0708v-6.3549c0-0.57931 0.43888-1.0708 1.106-1.0708h8.2859v-31.037c0-0.57931 0.52665-1.1235 1.106-1.1235h6.9693c0.59687 0 1.106 0.5442 1.106 1.1235v31.037z"/>
  <path id="path42" d="m390.29 493.47c-0.98307 0-1.3686 0.94634-1 1.7188l7.9688 14.75c-5.0558 2.0539-8.5938 6.3196-8.5938 11.656 0 6.9166 5.7006 12.531 12.688 12.531h17.375c0.64953 0 1.0625-0.50073 1.0625-1.0625v-38.469c0-0.57931-0.41297-1.125-1.0625-1.125h-6.9375c-0.5793 0-1.0938 0.54569-1.0938 1.125v14.812h-4.0312l-7.7188-15.375c-0.1229-0.24577-0.44596-0.5625-0.9375-0.5625h-7.7188zm11 23.344h8.5938v9.0312h-8.5938c-2.3875 0-4.4375-1.931-4.4375-4.4062 0-2.4226 2.05-4.625 4.4375-4.625z"/>
  <path id="path44" d="m341.48 493.47c-0.87774 0-1.3511 0.75884-1 1.5312l18.188 39.094c0.19311 0.33355 0.60009 0.625 0.96875 0.625h0.59375c0.40377 0 0.842-0.29145 1-0.625l18.188-39.094c0.31599-0.77241-0.1047-1.5312-1-1.5312h-6.375c-1.1586 0-1.7992 0.70406-2.0625 1.4062l-2.125 4.625h-15.812l-2.0625-4.5938c-0.54421-1.106-1.0092-1.4375-2.0625-1.4375h-6.4375zm14.062 13.969h8.875l-4.4062 9.5938h-0.0312l-4.4375-9.5938z"/>
  <path id="path46" d="m329.57 533.07c0 0.56177-0.45644 1.0708-1.1235 1.0708h-6.8815c-0.57932 0-1.106-0.50908-1.106-1.0708v-31.055h-13.868c-0.59688 0-1.0533-0.52665-1.0533-1.0708v-6.3373c0-0.57931 0.45642-1.1235 1.0533-1.1235h21.856c0.66708 0 1.1235 0.5442 1.1235 1.1235v38.463z"/>
 </g>
</svg>
