<?xml version="1.0" encoding="UTF-8"?>
<svg id="svg14" width="631.23" height="700" version="1.1" viewBox="0 0 631.23 700" xmlns="http://www.w3.org/2000/svg" xmlns:cc="http://creativecommons.org/ns#" xmlns:dc="http://purl.org/dc/elements/1.1/" xmlns:rdf="http://www.w3.org/1999/02/22-rdf-syntax-ns#">
 <metadata id="metadata20">
  <rdf:RDF>
   <cc:Work rdf:about="">
    <dc:format>image/svg+xml</dc:format>
    <dc:type rdf:resource="http://purl.org/dc/dcmitype/StillImage"/>
    <dc:title/>
   </cc:Work>
  </rdf:RDF>
 </metadata>
 <path id="path2" d="m308.53 460.83c-84.675 0-162.35-46.289-202.73-120.81l41.618-22.555c32.092 59.237 93.826 96.036 161.11 96.036 100.96 0 183.08-82.126 183.08-183.08 0-100.96-82.121-183.09-183.08-183.09-66.451 0-127.81 36.122-160.14 94.267l-41.375-23.005c40.678-73.151 117.89-118.59 201.51-118.59 127.05 0 230.43 103.36 230.43 230.42 0 127.04-103.37 230.41-230.43 230.41z"/>
 <path id="path4" d="m308.16 344.38c-62.838 0-113.96-51.128-113.96-113.96 0-62.848 51.127-113.97 113.96-113.97 41.258 0 79.396 22.382 99.539 58.413l-41.312 23.103c-11.794-21.092-34.099-34.187-58.227-34.187-36.743 0-66.634 29.894-66.634 66.643 0 36.732 29.891 66.624 66.634 66.624 24.6 0 47.114-13.469 58.762-35.17l41.703 22.383c-19.906 37.098-58.392 60.124-100.46 60.124zm-285.99 168.46c6.143 0 10.689 1.906 14.864 5.719 0.554 0.49 0.554 1.213 0.062 1.709l-4.791 4.98a1.093 1.093 0 0 1-1.534 0c-2.275-2.023-5.285-3.14-8.295-3.14-6.942 0-12.037 5.774-12.037 12.666 0 6.806 5.162 12.458 12.098 12.458 2.886 0 6.022-1.036 8.234-2.947 0.427-0.369 1.224-0.369 1.594 0.065l4.793 5.086c0.429 0.46 0.362 1.239-0.062 1.668-4.182 4.055-9.455 5.971-14.926 5.971-12.278 0-22.17-9.778-22.17-22.055a22.124 22.124 0 0 1 22.17-22.18zm49.025 0c12.282 0 22.106 9.885 22.106 22.181 0 12.276-9.824 22.055-22.106 22.055-12.281 0-22.046-9.778-22.046-22.055 0-12.297 9.766-22.181 22.046-22.181zm0 34.391c6.761 0 12.282-5.511 12.282-12.211 0-6.755-5.521-12.342-12.282-12.342-6.697 0-12.219 5.587-12.219 12.342 1e-3 6.7 5.523 12.211 12.219 12.211zm41.781-33.411c0.065-0.561 0.621-0.981 1.108-0.981h0.979c0.309 0 0.863 0.238 1.047 0.622l14.25 26.539h0.123l14.251-26.539c0.183-0.384 0.735-0.622 1.043-0.622h0.986c0.486 0 1.039 0.42 1.098 0.981l6.949 41.268c0.116 0.814-0.436 1.355-1.173 1.355h-7.247c-0.552 0-1.101-0.491-1.168-0.966l-2.764-18.991h-0.115l-10.32 19.906c-0.185 0.364-0.739 0.682-1.046 0.682h-1.107c-0.371 0-0.859-0.318-1.047-0.682l-10.375-19.906h-0.124l-2.703 18.991c-0.057 0.475-0.556 0.966-1.168 0.966h-7.248c-0.742 0-1.29-0.541-1.167-1.355zm57.688 0.794c0-0.612 0.492-1.153 1.169-1.153h25.425a1.16 1.16 0 0 1 1.171 1.153v6.714c0 0.607-0.495 1.143-1.171 1.143h-17.01v7.64h14.005c0.611 0 1.168 0.546 1.168 1.148v6.714c0 0.678-0.557 1.153-1.168 1.153h-14.005v8.287h17.01c0.676 0 1.171 0.561 1.171 1.168v6.689c0 0.632-0.495 1.173-1.171 1.173h-25.425a1.162 1.162 0 0 1-1.169-1.173zm43.989 0c0-0.612 0.491-1.153 1.108-1.153h14.982c11.854 0 21.557 9.642 21.557 21.428 0 11.912-9.703 21.554-21.557 21.554h-14.982c-0.617 0-1.108-0.541-1.108-1.173zm15.474 32.749c6.943 0 11.98-5.476 11.98-12.474 0-6.942-5.037-12.418-11.98-12.418h-5.893v24.892zm44.734-11.614-13.573-20.507c-0.492-0.809 0-1.78 0.983-1.78h7.987c0.487 0 0.797 0.298 0.977 0.541l8.539 12.595 8.539-12.595c0.188-0.243 0.432-0.541 0.984-0.541h7.983c0.983 0 1.472 0.971 0.983 1.78l-13.759 20.452v19.578c0 0.632-0.553 1.173-1.167 1.173h-7.304c-0.677 0-1.17-0.541-1.17-1.173v-19.523z"/>
 <g id="g8" transform="translate(-484.38 -100)">
  <path id="path6" d="m1093.4 657.07c-6.154 0-10.689-1.916-14.876-5.723-0.535-0.501-0.535-1.219-0.05-1.714l4.788-4.98a1.074 1.074 0 0 1 1.527 0c2.279 2.027 5.298 3.135 8.306 3.135 6.938 0 12.035-5.774 12.035-12.665 0-6.801-5.152-12.448-12.095-12.448-2.896 0-6.026 1.031-8.246 2.948-0.425 0.364-1.214 0.364-1.588-0.066l-4.783-5.097c-0.43-0.445-0.374-1.233 0.056-1.664 4.177-4.055 9.45-5.961 14.926-5.961 12.276 0 22.165 9.768 22.165 22.05 0 12.296-9.889 22.185-22.165 22.185zm-30.301-1.779c0 0.607-0.481 1.148-1.163 1.148h-25.422a1.157 1.157 0 0 1-1.168-1.148v-6.714c0-0.607 0.495-1.148 1.168-1.148h17.007v-7.64h-14.01c-0.602 0-1.157-0.541-1.157-1.143v-6.72c0-0.672 0.556-1.148 1.157-1.148h14.01v-8.292h-17.007a1.17 1.17 0 0 1-1.168-1.163v-6.689c0-0.637 0.495-1.178 1.168-1.178h25.422c0.681 0 1.163 0.541 1.163 1.178zm-43.928 0.677c0 0.602-0.545 1.102-1.163 1.102h-1.537l-24.512-23.586h-0.04v21.806c0 0.607-0.5 1.148-1.178 1.148h-7.367c-0.616 0-1.168-0.541-1.168-1.148v-41.339c0-0.632 0.552-1.117 1.168-1.117h0.97c0.193 0 0.678 0.193 0.815 0.304l24.259 24.396h0.051v-22.899c0-0.637 0.485-1.178 1.162-1.178h7.322c0.612 0 1.168 0.541 1.168 1.178zm-61.073-8.54h8.793c0.667 0 1.168 0.541 1.168 1.148v6.714c0 0.607-0.501 1.148-1.168 1.148h-27.263a1.158 1.158 0 0 1-1.168-1.148v-6.714c0-0.607 0.496-1.148 1.168-1.148h8.776v-32.794c0-0.637 0.547-1.178 1.168-1.178h7.367c0.617 0 1.158 0.541 1.158 1.178v32.794zm-33.786 7.863a1.15 1.15 0 0 1-1.157 1.148h-18.375c-7.367 0-13.378-5.936-13.378-13.262 0-5.643 3.736-10.188 9.077-12.352l-8.399-15.588c-0.43-0.814 0-1.78 1.037-1.78h8.175c0.481 0 0.86 0.298 0.978 0.541l8.169 16.286h4.231v-15.649c0-0.637 0.561-1.178 1.168-1.178h7.317c0.67 0 1.157 0.541 1.157 1.178zm-18.722-17.216c-2.518 0-4.672 2.346-4.672 4.91 0 2.599 2.154 4.667 4.672 4.667h9.08v-9.577zm-24.885-23.021-19.225 41.334c-0.19 0.364-0.626 0.682-1.056 0.682h-0.607c-0.423 0-0.85-0.318-1.046-0.682l-19.224-41.334c-0.362-0.809 0.123-1.598 1.047-1.598h6.814c1.104 0 1.6 0.359 2.146 1.532l2.219 4.844h16.695l2.219-4.909c0.304-0.744 0.982-1.467 2.214-1.467h6.75c0.927 1e-3 1.412 0.789 1.054 1.598zm-25.255 13.131 4.677 10.143h0.049l4.623-10.143zm-28.935 27.106a1.15 1.15 0 0 1-1.16 1.148h-7.321c-0.611 0-1.157-0.541-1.157-1.148v-32.804h-14.623a1.165 1.165 0 0 1-1.162-1.163v-6.689c0-0.637 0.489-1.178 1.162-1.178h23.102c0.673 0 1.16 0.541 1.16 1.178v40.656z"/>
 </g>
 <g id="g12" transform="translate(-484.38 -100)">
  <path id="path10" d="m485.06 679.24c0-0.945 0.329-1.742 0.975-2.394 0.653-0.647 1.447-0.976 2.397-0.976h73.414c0.942 0 1.741 0.329 2.393 0.976 0.646 0.652 0.975 1.448 0.975 2.394v19.33c0 0.946-0.329 1.745-0.975 2.394-0.653 0.65-1.452 0.974-2.393 0.974h-49.119v21.989h40.43c0.944 0 1.744 0.329 2.396 0.977 0.648 0.652 0.971 1.448 0.971 2.393v19.33c0 0.945-0.323 1.744-0.971 2.394-0.652 0.649-1.452 0.973-2.396 0.973h-40.43v23.941h49.119c0.942 0 1.741 0.326 2.393 0.976 0.646 0.65 0.975 1.449 0.975 2.394v19.327c0 0.948-0.329 1.747-0.975 2.394-0.653 0.652-1.452 0.976-2.393 0.976h-73.414c-0.95 0-1.744-0.324-2.397-0.976-0.646-0.647-0.975-1.446-0.975-2.394zm153.22 57.098-35.822-55.503c-0.709-1.181-0.77-2.306-0.178-3.37 0.592-1.062 1.654-1.595 3.189-1.595h25.893c0.593 0 1.154 0.177 1.685 0.534 0.532 0.354 0.915 0.708 1.153 1.062l20.391 32.983h0.177l20.75-32.983c0.233-0.354 0.615-0.708 1.153-1.062 0.532-0.356 1.092-0.534 1.683-0.534h25.888c1.536 0 2.629 0.534 3.28 1.595 0.649 1.064 0.562 2.189-0.261 3.37l-36 55.503 37.238 58.697c0.824 1.302 0.915 2.455 0.268 3.458-0.653 1.006-1.685 1.507-3.104 1.507h-24.649c-0.591 0-1.183-0.147-1.775-0.442-0.592-0.296-1.005-0.68-1.238-1.153l-23.233-35.82h-0.353l-22.697 35.82c-0.237 0.354-0.623 0.708-1.153 1.065-0.531 0.354-1.153 0.531-1.86 0.531h-24.649c-1.538 0-2.635-0.531-3.282-1.596-0.652-1.063-0.562-2.186 0.263-3.37zm128.92-34.401h-25.358c-0.95 0-1.75-0.324-2.396-0.974-0.652-0.649-0.976-1.448-0.976-2.394v-19.33c0-0.945 0.323-1.742 0.976-2.394 0.646-0.647 1.446-0.976 2.396-0.976h78.734c0.94 0 1.739 0.329 2.391 0.976 0.648 0.652 0.977 1.448 0.977 2.394v19.33c0 0.946-0.328 1.745-0.977 2.394-0.651 0.65-1.451 0.974-2.391 0.974h-25.361v94.693c0 0.948-0.324 1.747-0.977 2.394-0.647 0.652-1.445 0.976-2.391 0.976h-21.281c-0.946 0-1.744-0.324-2.391-0.976-0.652-0.647-0.975-1.446-0.975-2.394zm97.527-22.697c0-0.945 0.328-1.742 0.975-2.394 0.653-0.647 1.446-0.976 2.397-0.976h53.019c5.318 0 10.314 1.006 14.986 3.016 4.667 2.01 8.777 4.76 12.32 8.244 3.551 3.488 6.327 7.536 8.339 12.147 2.006 4.611 3.013 9.576 3.013 14.896 0 8.157-2.422 15.37-7.271 21.634-4.849 6.267-11.169 10.937-18.976 14.008l24.295 45.042c0.592 1.184 0.621 2.336 0.092 3.458-0.532 1.125-1.569 1.684-3.106 1.684h-23.586c-0.708 0-1.301-0.177-1.77-0.531-0.475-0.357-0.829-0.711-1.066-1.065l-23.582-46.991h-12.236v45.217c0 0.948-0.329 1.747-0.976 2.394-0.653 0.652-1.45 0.976-2.396 0.976h-21.099c-0.951 0-1.744-0.324-2.397-0.976-0.646-0.647-0.975-1.446-0.975-2.394zm54.085 49.651c3.664 0 6.831-1.418 9.49-4.255 2.659-2.839 3.99-6.146 3.99-9.93 0-3.782-1.331-6.975-3.99-9.576-2.659-2.6-5.826-3.901-9.49-3.901h-26.242v27.662zm74.834 71.109c-1.304 0-2.281-0.471-2.927-1.418-0.646-0.946-0.677-2.01-0.09-3.193l55.505-119.34c0.708-1.3 1.714-1.949 3.014-1.949h1.775c1.42 0 2.42 0.649 3.013 1.949l55.505 119.34c0.587 1.183 0.558 2.247-0.089 3.193-0.653 0.948-1.629 1.418-2.928 1.418h-19.683c-1.654 0-2.897-0.324-3.722-0.976-0.83-0.647-1.658-1.8-2.482-3.458l-6.386-14.008h-48.23l-6.386 14.188c-0.475 1.062-1.213 2.038-2.214 2.925-1.007 0.888-2.396 1.33-4.167 1.33h-19.508zm69.865-42.56-13.474-29.257h-0.177l-13.302 29.257z"/>
 </g>
</svg>
