<?xml version="1.0" encoding="UTF-8" standalone="no"?>
<svg
   xmlns:dc="http://purl.org/dc/elements/1.1/"
   xmlns:cc="http://creativecommons.org/ns#"
   xmlns:rdf="http://www.w3.org/1999/02/22-rdf-syntax-ns#"
   xmlns:svg="http://www.w3.org/2000/svg"
   xmlns="http://www.w3.org/2000/svg"
   xmlns:sodipodi="http://sodipodi.sourceforge.net/DTD/sodipodi-0.dtd"
   xmlns:inkscape="http://www.inkscape.org/namespaces/inkscape"
   viewBox="0 0 631.23107 700.00201"
   version="1.1"
   id="svg14"
   sodipodi:docname="Comedy Central Extra.svg"
   width="631.23108"
   height="700.00201"
   inkscape:version="0.92.0 r15299">
  <metadata
     id="metadata20">
    <rdf:RDF>
      <cc:Work
         rdf:about="">
        <dc:format>image/svg+xml</dc:format>
        <dc:type
           rdf:resource="http://purl.org/dc/dcmitype/StillImage" />
        <dc:title></dc:title>
      </cc:Work>
    </rdf:RDF>
  </metadata>
  <defs
     id="defs18" />
  <sodipodi:namedview
     pagecolor="#ffffff"
     bordercolor="#666666"
     borderopacity="1"
     objecttolerance="10"
     gridtolerance="10"
     guidetolerance="10"
     inkscape:pageopacity="0"
     inkscape:pageshadow="2"
     inkscape:window-width="1920"
     inkscape:window-height="1017"
     id="namedview16"
     showgrid="false"
     fit-margin-top="0"
     fit-margin-left="0"
     fit-margin-right="0"
     fit-margin-bottom="0"
     inkscape:zoom="0.17750011"
     inkscape:cx="315.61558"
     inkscape:cy="350.002"
     inkscape:window-x="-8"
     inkscape:window-y="-8"
     inkscape:window-maximized="1"
     inkscape:current-layer="svg14" />
  <path
     d="m 308.52707,460.829 c -84.675,0 -162.351,-46.289 -202.727,-120.811 l 41.618,-22.555 c 32.092,59.237 93.826,96.036 161.109,96.036 100.963,0 183.084,-82.126 183.084,-183.077 0,-100.962 -82.121,-183.09 -183.084,-183.09 -66.451,0 -127.81,36.122 -160.135,94.267 l -41.375,-23.005 C 147.69507,45.443 224.90307,0 308.52707,0 c 127.053,0 230.426,103.362 230.426,230.421 0,127.04 -103.373,230.408 -230.426,230.408 z"
     id="path2"
     inkscape:connector-curvature="0"
     style="fill:#ffffff;fill-opacity:1" />
  <path
     d="m 308.15607,344.381 c -62.838,0 -113.965,-51.128 -113.965,-113.96 0,-62.848 51.127,-113.973 113.965,-113.973 41.258,0 79.396,22.382 99.539,58.413 l -41.312,23.103 c -11.794,-21.092 -34.099,-34.187 -58.227,-34.187 -36.743,0 -66.634,29.894 -66.634,66.643 0,36.732 29.891,66.624 66.634,66.624 24.6,0 47.114,-13.469 58.762,-35.17 l 41.703,22.383 c -19.906,37.098 -58.392,60.124 -100.465,60.124 z M 22.170071,512.836 c 6.143,0 10.689,1.906 14.864,5.719 0.554,0.49 0.554,1.213 0.062,1.709 l -4.791,4.98 a 1.093,1.093 0 0 1 -1.534,0 c -2.275,-2.023 -5.285,-3.14 -8.295,-3.14 -6.942,0 -12.037,5.774 -12.037,12.666 0,6.806 5.162,12.458 12.098,12.458 2.886,0 6.022,-1.036 8.234,-2.947 0.427,-0.369 1.224,-0.369 1.594,0.065 l 4.793,5.086 c 0.429,0.46 0.362,1.239 -0.062,1.668 -4.182,4.055 -9.455,5.971 -14.926,5.971 -12.278,0 -22.170000005155,-9.778 -22.170000005155,-22.055 A 22.124,22.124 0 0 1 22.170071,512.836 Z m 49.025,0 c 12.282,0 22.106,9.885 22.106,22.181 0,12.276 -9.824,22.055 -22.106,22.055 -12.281,0 -22.046,-9.778 -22.046,-22.055 0,-12.297 9.766,-22.181 22.046,-22.181 z m 0,34.391 c 6.761,0 12.282,-5.511 12.282,-12.211 0,-6.755 -5.521,-12.342 -12.282,-12.342 -6.697,0 -12.219,5.587 -12.219,12.342 0.001,6.7 5.523,12.211 12.219,12.211 z m 41.780999,-33.411 c 0.065,-0.561 0.621,-0.981 1.108,-0.981 h 0.979 c 0.309,0 0.863,0.238 1.047,0.622 l 14.25,26.539 h 0.123 l 14.251,-26.539 c 0.183,-0.384 0.735,-0.622 1.043,-0.622 h 0.986 c 0.486,0 1.039,0.42 1.098,0.981 l 6.949,41.268 c 0.116,0.814 -0.436,1.355 -1.173,1.355 h -7.247 c -0.552,0 -1.101,-0.491 -1.168,-0.966 l -2.764,-18.991 h -0.115 l -10.32,19.906 c -0.185,0.364 -0.739,0.682 -1.046,0.682 h -1.107 c -0.371,0 -0.859,-0.318 -1.047,-0.682 l -10.375,-19.906 h -0.124 l -2.703,18.991 c -0.057,0.475 -0.556,0.966 -1.168,0.966 h -7.248 c -0.742,0 -1.29,-0.541 -1.167,-1.355 z m 57.688,0.794 c 0,-0.612 0.492,-1.153 1.169,-1.153 h 25.425 a 1.16,1.16 0 0 1 1.171,1.153 v 6.714 c 0,0.607 -0.495,1.143 -1.171,1.143 h -17.01 v 7.64 h 14.005 c 0.611,0 1.168,0.546 1.168,1.148 v 6.714 c 0,0.678 -0.557,1.153 -1.168,1.153 h -14.005 v 8.287 h 17.01 c 0.676,0 1.171,0.561 1.171,1.168 v 6.689 c 0,0.632 -0.495,1.173 -1.171,1.173 h -25.425 a 1.162,1.162 0 0 1 -1.169,-1.173 z m 43.989,0 c 0,-0.612 0.491,-1.153 1.108,-1.153 h 14.982 c 11.854,0 21.557,9.642 21.557,21.428 0,11.912 -9.703,21.554 -21.557,21.554 h -14.982 c -0.617,0 -1.108,-0.541 -1.108,-1.173 z m 15.474,32.749 c 6.943,0 11.98,-5.476 11.98,-12.474 0,-6.942 -5.037,-12.418 -11.98,-12.418 h -5.893 v 24.892 z m 44.734,-11.614 -13.573,-20.507 c -0.492,-0.809 0,-1.78 0.983,-1.78 h 7.987 c 0.487,0 0.797,0.298 0.977,0.541 l 8.539,12.595 8.539,-12.595 c 0.188,-0.243 0.432,-0.541 0.984,-0.541 h 7.983 c 0.983,0 1.472,0.971 0.983,1.78 l -13.759,20.452 v 19.578 c 0,0.632 -0.553,1.173 -1.167,1.173 h -7.304 c -0.677,0 -1.17,-0.541 -1.17,-1.173 v -19.523 z"
     id="path4"
     inkscape:connector-curvature="0"
     style="fill:#ffffff;fill-opacity:1" />
  <g
     id="g8"
     transform="translate(-484.38393,-100)"
     style="fill:#ffffff;fill-opacity:1">
    <path
       d="m 1093.45,657.071 c -6.154,0 -10.689,-1.916 -14.876,-5.723 -0.535,-0.501 -0.535,-1.219 -0.05,-1.714 l 4.788,-4.98 a 1.074,1.074 0 0 1 1.527,0 c 2.279,2.027 5.298,3.135 8.306,3.135 6.938,0 12.035,-5.774 12.035,-12.665 0,-6.801 -5.152,-12.448 -12.095,-12.448 -2.896,0 -6.026,1.031 -8.246,2.948 -0.425,0.364 -1.214,0.364 -1.588,-0.066 l -4.783,-5.097 c -0.43,-0.445 -0.374,-1.233 0.056,-1.664 4.177,-4.055 9.45,-5.961 14.926,-5.961 12.276,0 22.165,9.768 22.165,22.05 0,12.296 -9.889,22.185 -22.165,22.185 z m -30.301,-1.779 c 0,0.607 -0.481,1.148 -1.163,1.148 h -25.422 a 1.157,1.157 0 0 1 -1.168,-1.148 v -6.714 c 0,-0.607 0.495,-1.148 1.168,-1.148 h 17.007 v -7.64 h -14.01 c -0.602,0 -1.157,-0.541 -1.157,-1.143 v -6.72 c 0,-0.672 0.556,-1.148 1.157,-1.148 h 14.01 v -8.292 h -17.007 a 1.17,1.17 0 0 1 -1.168,-1.163 v -6.689 c 0,-0.637 0.495,-1.178 1.168,-1.178 h 25.422 c 0.681,0 1.163,0.541 1.163,1.178 z m -43.928,0.677 c 0,0.602 -0.545,1.102 -1.163,1.102 h -1.537 l -24.512,-23.586 h -0.04 v 21.806 c 0,0.607 -0.5,1.148 -1.178,1.148 h -7.367 c -0.616,0 -1.168,-0.541 -1.168,-1.148 v -41.339 c 0,-0.632 0.552,-1.117 1.168,-1.117 h 0.97 c 0.193,0 0.678,0.193 0.815,0.304 l 24.259,24.396 h 0.051 v -22.899 c 0,-0.637 0.485,-1.178 1.162,-1.178 h 7.322 c 0.612,0 1.168,0.541 1.168,1.178 z m -61.073,-8.54 h 8.793 c 0.667,0 1.168,0.541 1.168,1.148 v 6.714 c 0,0.607 -0.501,1.148 -1.168,1.148 h -27.263 a 1.158,1.158 0 0 1 -1.168,-1.148 v -6.714 c 0,-0.607 0.496,-1.148 1.168,-1.148 h 8.776 v -32.794 c 0,-0.637 0.547,-1.178 1.168,-1.178 h 7.367 c 0.617,0 1.158,0.541 1.158,1.178 v 32.794 z m -33.786,7.863 a 1.15,1.15 0 0 1 -1.157,1.148 H 904.83 c -7.367,0 -13.378,-5.936 -13.378,-13.262 0,-5.643 3.736,-10.188 9.077,-12.352 l -8.399,-15.588 c -0.43,-0.814 0,-1.78 1.037,-1.78 h 8.175 c 0.481,0 0.86,0.298 0.978,0.541 l 8.169,16.286 h 4.231 v -15.649 c 0,-0.637 0.561,-1.178 1.168,-1.178 h 7.317 c 0.67,0 1.157,0.541 1.157,1.178 z M 905.64,638.076 c -2.518,0 -4.672,2.346 -4.672,4.91 0,2.599 2.154,4.667 4.672,4.667 h 9.08 v -9.577 z m -24.885,-23.021 -19.225,41.334 c -0.19,0.364 -0.626,0.682 -1.056,0.682 h -0.607 c -0.423,0 -0.85,-0.318 -1.046,-0.682 l -19.224,-41.334 c -0.362,-0.809 0.123,-1.598 1.047,-1.598 h 6.814 c 1.104,0 1.6,0.359 2.146,1.532 l 2.219,4.844 h 16.695 l 2.219,-4.909 c 0.304,-0.744 0.982,-1.467 2.214,-1.467 h 6.75 c 0.927,10e-4 1.412,0.789 1.054,1.598 z m -25.255,13.131 4.677,10.143 h 0.049 l 4.623,-10.143 z m -28.935,27.106 a 1.15,1.15 0 0 1 -1.16,1.148 h -7.321 c -0.611,0 -1.157,-0.541 -1.157,-1.148 v -32.804 h -14.623 a 1.165,1.165 0 0 1 -1.162,-1.163 v -6.689 c 0,-0.637 0.489,-1.178 1.162,-1.178 h 23.102 c 0.673,0 1.16,0.541 1.16,1.178 v 40.656 z"
       id="path6"
       inkscape:connector-curvature="0"
       style="fill:#ffffff;fill-opacity:1" />
  </g>
  <g
     id="g12"
     style="fill:#ffffff;fill-opacity:1"
     transform="translate(-484.38393,-100)">
    <path
       d="m 485.055,679.24 c 0,-0.945 0.329,-1.742 0.975,-2.394 0.653,-0.647 1.447,-0.976 2.397,-0.976 h 73.414 c 0.942,0 1.741,0.329 2.393,0.976 0.646,0.652 0.975,1.448 0.975,2.394 v 19.33 c 0,0.946 -0.329,1.745 -0.975,2.394 -0.653,0.65 -1.452,0.974 -2.393,0.974 h -49.119 v 21.989 h 40.43 c 0.944,0 1.744,0.329 2.396,0.977 0.648,0.652 0.971,1.448 0.971,2.393 v 19.33 c 0,0.945 -0.323,1.744 -0.971,2.394 -0.652,0.649 -1.452,0.973 -2.396,0.973 h -40.43 v 23.941 h 49.119 c 0.942,0 1.741,0.326 2.393,0.976 0.646,0.65 0.975,1.449 0.975,2.394 v 19.327 c 0,0.948 -0.329,1.747 -0.975,2.394 -0.653,0.652 -1.452,0.976 -2.393,0.976 h -73.414 c -0.95,0 -1.744,-0.324 -2.397,-0.976 -0.646,-0.647 -0.975,-1.446 -0.975,-2.394 z m 153.216,57.098 -35.822,-55.503 c -0.709,-1.181 -0.77,-2.306 -0.178,-3.37 0.592,-1.062 1.654,-1.595 3.189,-1.595 h 25.893 c 0.593,0 1.154,0.177 1.685,0.534 0.532,0.354 0.915,0.708 1.153,1.062 l 20.391,32.983 h 0.177 l 20.75,-32.983 c 0.233,-0.354 0.615,-0.708 1.153,-1.062 0.532,-0.356 1.092,-0.534 1.683,-0.534 h 25.888 c 1.536,0 2.629,0.534 3.28,1.595 0.649,1.064 0.562,2.189 -0.261,3.37 l -36,55.503 37.238,58.697 c 0.824,1.302 0.915,2.455 0.268,3.458 -0.653,1.006 -1.685,1.507 -3.104,1.507 h -24.649 c -0.591,0 -1.183,-0.147 -1.775,-0.442 -0.592,-0.296 -1.005,-0.68 -1.238,-1.153 l -23.233,-35.82 h -0.353 l -22.697,35.82 c -0.237,0.354 -0.623,0.708 -1.153,1.065 -0.531,0.354 -1.153,0.531 -1.86,0.531 h -24.649 c -1.538,0 -2.635,-0.531 -3.282,-1.596 -0.652,-1.063 -0.562,-2.186 0.263,-3.37 z M 767.188,701.937 H 741.83 c -0.95,0 -1.75,-0.324 -2.396,-0.974 -0.652,-0.649 -0.976,-1.448 -0.976,-2.394 v -19.33 c 0,-0.945 0.323,-1.742 0.976,-2.394 0.646,-0.647 1.446,-0.976 2.396,-0.976 h 78.734 c 0.94,0 1.739,0.329 2.391,0.976 0.648,0.652 0.977,1.448 0.977,2.394 v 19.33 c 0,0.946 -0.328,1.745 -0.977,2.394 -0.651,0.65 -1.451,0.974 -2.391,0.974 h -25.361 v 94.693 c 0,0.948 -0.324,1.747 -0.977,2.394 -0.647,0.652 -1.445,0.976 -2.391,0.976 h -21.281 c -0.946,0 -1.744,-0.324 -2.391,-0.976 -0.652,-0.647 -0.975,-1.446 -0.975,-2.394 z m 97.527,-22.697 c 0,-0.945 0.328,-1.742 0.975,-2.394 0.653,-0.647 1.446,-0.976 2.397,-0.976 h 53.019 c 5.318,0 10.314,1.006 14.986,3.016 4.667,2.01 8.777,4.76 12.32,8.244 3.551,3.488 6.327,7.536 8.339,12.147 2.006,4.611 3.013,9.576 3.013,14.896 0,8.157 -2.422,15.37 -7.271,21.634 -4.849,6.267 -11.169,10.937 -18.976,14.008 l 24.295,45.042 c 0.592,1.184 0.621,2.336 0.092,3.458 -0.532,1.125 -1.569,1.684 -3.106,1.684 h -23.586 c -0.708,0 -1.301,-0.177 -1.77,-0.531 -0.475,-0.357 -0.829,-0.711 -1.066,-1.065 l -23.582,-46.991 h -12.236 v 45.217 c 0,0.948 -0.329,1.747 -0.976,2.394 -0.653,0.652 -1.45,0.976 -2.396,0.976 h -21.099 c -0.951,0 -1.744,-0.324 -2.397,-0.976 -0.646,-0.647 -0.975,-1.446 -0.975,-2.394 z m 54.085,49.651 c 3.664,0 6.831,-1.418 9.49,-4.255 2.659,-2.839 3.99,-6.146 3.99,-9.93 0,-3.782 -1.331,-6.975 -3.99,-9.576 -2.659,-2.6 -5.826,-3.901 -9.49,-3.901 h -26.242 v 27.662 z M 993.634,800 c -1.304,0 -2.281,-0.471 -2.927,-1.418 -0.646,-0.946 -0.677,-2.01 -0.09,-3.193 l 55.505,-119.342 c 0.708,-1.3 1.714,-1.949 3.014,-1.949 h 1.775 c 1.42,0 2.42,0.649 3.013,1.949 l 55.505,119.342 c 0.587,1.183 0.558,2.247 -0.089,3.193 -0.653,0.948 -1.629,1.418 -2.928,1.418 h -19.683 c -1.654,0 -2.897,-0.324 -3.722,-0.976 -0.83,-0.647 -1.658,-1.8 -2.482,-3.458 l -6.386,-14.008 h -48.23 l -6.386,14.188 c -0.475,1.062 -1.213,2.038 -2.214,2.925 -1.007,0.888 -2.396,1.33 -4.167,1.33 h -19.508 z m 69.865,-42.56 -13.474,-29.257 h -0.177 l -13.302,29.257 z"
       id="path10"
       inkscape:connector-curvature="0"
       style="fill:#ffffff;fill-opacity:1" />
  </g>
</svg>
