<svg width="800" height="314.83" enable-background="new 0 0 476.2 187.4" version="1.1" viewBox="0 0 800 314.83" xml:space="preserve" xmlns="http://www.w3.org/2000/svg">
<g transform="translate(0 127.43)" fill="#f8ba0f" stroke-width="1.68"><path d="m137.25-127.43c-58.967 0-110.21 32.423-137.25 80.302l32.927 18.48c20.496-36.287 59.471-60.983 104.33-60.983 66.023 0 119.61 53.591 119.61 119.61 0 66.023-53.591 119.61-119.61 119.61-44.687 0-83.662-24.528-104.16-60.815l-32.927 18.48c27.047 47.879 78.286 80.134 137.09 80.134 86.854 0 157.41-70.391 157.41-157.41 0-87.022-70.559-157.41-157.41-157.41z"/><path d="m174.04 50.819c-7.2239 12.768-21 21.504-36.791 21.504-23.352 0-42.335-18.984-42.335-42.335 0-23.352 18.984-42.335 42.335-42.335 15.792 0 29.735 8.7358 36.959 21.672l32.927-18.48c-13.776-24.528-39.983-40.991-69.887-40.991-44.183 0-80.134 35.951-80.134 80.134 0 44.183 35.783 80.134 80.134 80.134 29.903 0 56.111-16.464 69.719-40.823z"/></g>
<g transform="translate(0 127.43)" fill="#f8ba0f" stroke-width="1.68"><path d="m351.28 92.986h-24.864v-124.32h65.183v23.184h-40.319v26.375h34.775v23.184h-34.775z"/><path d="m455.94 92.986-5.0399-19.824h-31.079l-5.0399 19.824h-25.367l35.615-124.32h20.16l35.951 124.32zm-21.672-77.278-8.7358 34.943h19.488l-8.7358-34.943-1.008-3.8639z"/><path d="m514.24-31.332 28.055 74.255 27.215-74.255h22.848v124.32h-21.84v-66.191l-20.16 49.895h-16.128l-20.16-49.559v65.855h-23.016v-124.32z"/><path d="m610.16 92.986v-124.32h24.864v124.32z"/><path d="m652.83 92.986v-124.32h24.864v101.13h40.319v23.184z"/><path d="m740.36 92.986v-59.975l-34.775-64.343h26.879l20.328 39.311 20.328-39.311h26.879l-34.775 64.511v59.807z"/></g>
</svg>
