<svg height="370.99545" width="548" xmlns="http://www.w3.org/2000/svg" xmlns:xlink="http://www.w3.org/1999/xlink"><linearGradient id="a" gradientUnits="userSpaceOnUse" x1="160.63037" x2="212.06058" y1="149.32269" y2="219.21135"><stop offset="0" stop-color="#fa3852"/><stop offset=".50184697" stop-color="#d91e25"/><stop offset="1" stop-color="#791215"/></linearGradient><linearGradient id="b" gradientUnits="userSpaceOnUse" x1="163.6144546" x2="208.8730394" y1="153.6642292" y2="215.16625"><stop offset="0" stop-color="#fad3cc"/><stop offset=".22201949" stop-color="#ec725a"/><stop offset=".50184697" stop-color="#d91e25" stop-opacity="0"/><stop offset="1" stop-color="#791215" stop-opacity=".144444"/></linearGradient><filter id="c" color-interpolation-filters="sRGB" height="1.0864" width="1.0864" x="-.0432" y="-.0432"><feGaussianBlur stdDeviation="1.4296526"/></filter><linearGradient id="d" gradientUnits="userSpaceOnUse" x1="274.24789" x2="274.24789" y1="1.305937" y2="369.69861"><stop offset="0" stop-color="#fff"/><stop offset="1" stop-color="#e7e8ea"/></linearGradient><g fill="url(#d)" transform="translate(0 -.00455)"><path d="m493.66057 316.66058-4.73251 4.73251-50.24073-50.24073 4.73252-4.73251c21.63436-21.59211 33.55016-50.32524 33.55016-80.91757 0-30.55009-11.9158-59.32547-33.55016-80.91758l-4.73252-4.77477 45.50821-45.46595 4.73252-4.73252 4.73251 4.73252c35.07133 35.02906 54.33943 81.59364 54.33943 131.1583 0 49.56465-19.31036 96.12923-54.33943 131.1583" fill="url(#d)" fill-rule="evenodd"/><path d="m316.65603 316.66058c-35.02907 35.02906-81.6359 54.33942-131.1583 54.33942-102.298411 0-185.49773-83.19932-185.49773-185.49772 0-102.29841 83.199319-185.49773 185.49773-185.49773 49.5224 0 96.12923 19.31036 131.1583 54.33943l4.73251 4.73251-50.24073 50.24073-4.73251-4.73252c-21.59211-21.63436-50.36749-33.55016-80.91757-33.55016-63.12839 0-114.467731 51.33935-114.467731 114.46774 0 63.08612 51.339341 114.46773 114.467731 114.46773 30.55008 0 59.32546-11.9158 80.91757-33.55016l4.73251-4.73252 50.24073 50.24073z" fill="url(#d)" fill-rule="evenodd"/></g><g transform="translate(179.66659 -.00455)"><path d="m230.62565 185.50228c0 24.93021-20.23996 45.12792-45.12792 45.12792-24.93022 0-45.12792-20.19771-45.12792-45.12792 0-24.93022 20.1977-45.12793 45.12792-45.12793 24.88796 0 45.12792 20.19771 45.12792 45.12793" fill="url(#a)" fill-rule="evenodd"/><path d="m225.2103 185.50228c0 21.93858-17.81117 39.71257-39.71257 39.71257-21.93859 0-39.71257-17.77399-39.71257-39.71257 0-21.9386 17.77398-39.71258 39.71257-39.71258 21.9014 0 39.71257 17.77398 39.71257 39.71258" fill="url(#b)" fill-rule="evenodd" filter="url(#c)" stroke-width=".88"/></g><g transform="translate(0 -.00455)"><path d="m230.62565 185.50228c0 24.93021-20.23996 45.12792-45.12792 45.12792-24.93022 0-45.12792-20.19771-45.12792-45.12792 0-24.93022 20.1977-45.12793 45.12792-45.12793 24.88796 0 45.12792 20.19771 45.12792 45.12793" fill="url(#a)" fill-rule="evenodd"/><path d="m225.2103 185.50228c0 21.93858-17.81117 39.71257-39.71257 39.71257-21.93859 0-39.71257-17.77399-39.71257-39.71257 0-21.9386 17.77398-39.71258 39.71257-39.71258 21.9014 0 39.71257 17.77398 39.71257 39.71258" fill="url(#b)" fill-rule="evenodd" filter="url(#c)" stroke-width=".88"/></g></svg>