<?xml version="1.0" encoding="UTF-8"?>
<!-- Created with Inkscape (http://www.inkscape.org/) -->
<svg id="svg97138" width="11.582mm" height="4.4mm" version="1.1" viewBox="0 0 11.582 4.4" xmlns="http://www.w3.org/2000/svg" xmlns:cc="http://creativecommons.org/ns#" xmlns:dc="http://purl.org/dc/elements/1.1/" xmlns:rdf="http://www.w3.org/1999/02/22-rdf-syntax-ns#">
 <defs id="defs97132">
  <clipPath id="clipPath91280">
   <path id="path91278" d="m18.444 443.34h15.305v8.301h-15.305z"/>
  </clipPath>
  <clipPath id="clipPath91290">
   <path id="path91288" d="m18.444 444.73h15.305v5.511h-15.305z"/>
  </clipPath>
  <clipPath id="clipPath17110">
   <path id="path17108" d="m228.4 305.86h12.664v8.227h-12.664z"/>
  </clipPath>
 </defs>
 <metadata id="metadata97135">
  <rdf:RDF>
   <cc:Work rdf:about="">
    <dc:format>image/svg+xml</dc:format>
    <dc:type rdf:resource="http://purl.org/dc/dcmitype/StillImage"/>
    <dc:title/>
   </cc:Work>
  </rdf:RDF>
 </metadata>
 <g id="layer1" transform="translate(-98.752 -96.966)">
  <g id="g4510" transform="matrix(1.1025 0 0 1.1025 -10.126 -10.394)" fill-rule="evenodd">
   <path id="path91190" d="m98.92 99.958c0-0.11853 0.07832-0.19756 0.1965-0.19756h1.6178c0.11818 0 0.19685 0.07902 0.19685 0.19756v1.0022c0 0.11854-0.0787 0.19721-0.19685 0.19721h-1.6178c-0.11818 0-0.1965-0.0787-0.1965-0.19721zm-0.16828-0.09772v1.1977c0 0.20355 0.10548 0.30798 0.31115 0.30798h1.7544c0.20567 0 0.31115-0.10443 0.31115-0.30798v-1.1977c0-0.20391-0.10548-0.30833-0.31115-0.30833h-1.7544c-0.20567 0-0.31115 0.10442-0.31115 0.30833m1.3444 0.15522c-0.0335 0-0.0649 6e-3 -0.0946 0.019-0.02963 0.0131-0.05538 0.03-0.0769 0.0519-0.02152 0.0215-0.03845 0.0469-0.05115 0.0762-0.01235 0.0293-0.0187 0.0603-0.0187 0.0928v0.0406c0 0.0335 0.0063 0.0646 0.01905 0.0935 0.01235 0.0289 0.02963 0.0547 0.05151 0.0769 0.02152 0.0222 0.04727 0.0399 0.07656 0.0522 0.0293 0.0127 0.0607 0.019 0.0942 0.019h0.35666c0.0226 0 0.0416 8e-3 0.0568 0.0229 0.0148 0.0155 0.0222 0.0339 0.0222 0.0554v0.0198c0 0.0222-7e-3 0.0413-0.0226 0.0572-0.0155 0.0159-0.0342 0.024-0.0564 0.024h-0.53094v0.18097h0.57292c0.0335 0 0.0649-6e-3 0.0938-0.0187 0.0293-0.0127 0.055-0.03 0.0773-0.0515 0.0226-0.0219 0.0399-0.0476 0.0526-0.0773 0.0123-0.0296 0.0187-0.061 0.0187-0.0938v-0.0406c0-0.0324-6e-3 -0.0635-0.0187-0.0928s-0.03-0.0547-0.0519-0.0765c-0.0222-0.0219-0.048-0.0392-0.0776-0.0519-0.0293-0.0123-0.061-0.019-0.0942-0.019h-0.35631c-0.0222 0-0.0409-7e-3 -0.0564-0.0229-0.0155-0.0155-0.0233-0.0342-0.0233-0.0568v-0.0198c0-0.0222 8e-3 -0.0413 0.0233-0.0564 0.0155-0.0155 0.0342-0.0229 0.0564-0.0229h0.53199v-0.18133zm-0.7232 4e-3c-0.0381 0-0.07373 7e-3 -0.10724 0.0212-0.03316 0.0141-0.06209 0.0339-0.08714 0.0593-0.02434 0.025-0.04374 0.054-0.05821 0.0868-0.01411 0.0332-0.02152 0.0684-0.02152 0.10619v0.3362c0 0.0384 0.0074 0.0744 0.02187 0.10759 0.01446 0.0332 0.03387 0.0621 0.05856 0.0864 0.02434 0.0243 0.05327 0.0437 0.08643 0.0586 0.03316 0.0148 0.06879 0.0222 0.10724 0.0222h0.42122v-0.2039h-0.37924c-0.03104 0-0.05715-0.0109-0.07902-0.0325-0.02152-0.0215-0.03246-0.0483-0.03246-0.0804v-0.25224c0-0.0318 0.01094-0.0582 0.03246-0.0804 0.02152-0.0219 0.04763-0.0328 0.07902-0.0328h0.37924v-0.20214z" fill="#ee2629"/>
   <path id="path91194" d="m101.3 100.43s-7e-3 -0.39829 0.16122-0.19015c0.16827 0.20814 0.067-7e-4 0.22613-0.0681 0.0557-0.0236 0.10901-0.01 0.14958 8e-3 0.0409 0.018 0.0734 0.0462 0.0984 0.0854 0.0233-0.0582 0.0512-0.10195 0.0836-0.13017 0.0325-0.0286 0.0751-0.0487 0.12876-0.06 0.0797-0.0166 0.14852-1e-3 0.20603 0.0452 0.0575 0.0469 0.0991 0.12876 0.12453 0.24518l0.0854 0.38841-0.29845 0.0628-0.0748-0.34113c-7e-3 -0.0339-0.0187-0.0575-0.0332-0.072-0.0205-0.0205-0.0416-0.0286-0.0639-0.024-0.0279 6e-3 -0.0476 0.0222-0.0593 0.0497-0.012 0.0275-0.0116 0.0691 7.1e-4 0.12594l0.0653 0.29598-0.2988 0.0628-0.0709-0.3242c-8e-3 -0.0346-0.0145-0.0575-0.0201-0.0684-9e-3 -0.0166-0.0205-0.0293-0.0346-0.0374-0.0145-8e-3 -0.0296-0.0106-0.0455-7e-3 -0.0272 6e-3 -0.0466 0.0226-0.0589 0.0504-0.0123 0.0279-0.012 0.0716 1e-3 0.13124l0.0635 0.29033-0.29845 0.0628z" fill="#82cd2d"/>
   <path id="path91198" d="m102.55 100.86 0.18344-0.0162v-0.70167c0.0123-0.0131 0.0233-0.0282 0.0317-0.0445 0.0219 0.0131 0.0473 0.0208 0.0748 0.0208 0.078 0 0.14111-0.0624 0.14111-0.13935 0-0.07726-0.0631-0.1397-0.14111-0.1397-0.0377 0-0.072 0.01446-0.0974 0.03845-0.0374-0.04586-0.0946-0.07514-0.15875-0.07514-0.11289 0-0.20461 0.09031-0.20461 0.20215 0 0.0797 0.0473 0.14887 0.11535 0.18168z" fill="#fbc71a"/>
   <path id="path91202" d="m102.43 100.01c0 0.0854 0.0699 0.15452 0.15593 0.15452 0.0709 0 0.13088-0.0469 0.14993-0.11148 0.019 0.0233 0.048 0.0378 0.0804 0.0378 0.0575 0 0.10407-0.0462 0.10407-0.10302 0-0.0568-0.0466-0.10266-0.10407-0.10266-0.0395 0-0.0741 0.02187-0.0917 0.05397-0.0258-0.04939-0.0783-0.08326-0.13864-0.08326-0.0861 0-0.15593 0.06879-0.15593 0.15416" fill="#ececed"/>
   <path id="path91206" d="m102.49 100.01c0-0.0568 0.0466-0.10266 0.10407-0.10266 0.0575 0 0.10407 0.04586 0.10407 0.10266 0 0.0568-0.0466 0.10301-0.10407 0.10301-0.0575 0-0.10407-0.0462-0.10407-0.10301" fill="#050301"/>
   <path id="path91210" d="m102.76 99.984c0-0.03634 0.03-0.06597 0.0667-0.06597 0.037 0 0.067 0.02963 0.067 0.06597 0 0.03669-0.03 0.06632-0.067 0.06632-0.0367 0-0.0667-0.0296-0.0667-0.06632" fill="#050301"/>
   <path id="path91214" d="m102.41 99.821 0.0325 0.08608 0.15733-0.06244-0.0226-0.05433z" fill="#050301"/>
   <path id="path91218" d="m102.91 99.905 9e-3 -0.08784-0.16898-0.01482-8e-3 0.06174z" fill="#050301"/>
   <path id="path91222" d="m102.86 100.27s0.1457-0.3623 0.22013-0.11359c0.0748 0.25011 0.0617 0.0233 0.23495 0.0198 0.0607-1e-3 0.10513 0.0307 0.13618 0.0617 0.031 0.0314 0.0508 0.0691 0.0589 0.11394 0.0444-0.0448-9e-3 0.2466-0.0194 0.30304l-0.0543 0.29704-0.30268-0.0568 0.0596-0.32244c6e-3 -0.0346 9e-3 -0.0579 8e-3 -0.0699-2e-3 -0.0183-7e-3 -0.0342-0.0176-0.0469-0.01-0.0123-0.0229-0.0205-0.0392-0.0233-0.0268-5e-3 -0.0515 3e-3 -0.0734 0.0243-0.0222 0.0208-0.0388 0.0607-0.0494 0.11924l-0.0533 0.28787-0.29633-0.0554z" fill="#ee2629"/>
   <path id="path91226" d="m103.47 100.26c0 0.0628 0.03 0.11853 0.0769 0.15381l0.0384 0.48366s0.25964-7e-3 0.24518-0.0289c-0.0102-0.0152-0.0497-0.2854-0.072-0.43921 0.0603-0.0328 0.1009-0.0967 0.1009-0.16933 0-0.10689-0.0871-0.19332-0.19474-0.19332-0.10759 0-0.19473 0.0864-0.19473 0.19332" fill="#6dcfda"/>
   <path id="path91230" d="m103.5 100.25c0-0.079 0.0646-0.14323 0.14429-0.14323 0.0797 0 0.14428 0.0642 0.14428 0.14323 0 0.079-0.0646 0.14323-0.14428 0.14323-0.0797 0-0.14429-0.0642-0.14429-0.14323" fill="#ececed"/>
   <path id="path91234" d="m103.53 100.21c0-0.0367 0.03-0.066 0.0667-0.066 0.0371 0 0.067 0.0293 0.067 0.066s-0.03 0.066-0.067 0.066c-0.0367 0-0.0667-0.0293-0.0667-0.066" fill="#050301"/>
   <path id="path91238" d="m102.91 99.905 9e-3 -0.08784-0.16898-0.01482-8e-3 0.06174z" fill="#050301"/>
  </g>
  <g id="g4518" transform="matrix(1.0287 0 0 1.0287 38.538 31.957)">
   <g id="g91274" transform="matrix(.35278 0 0 -.35278 52.026 222.03)">
    <g id="g91276" clip-path="url(#clipPath91280)">
     <path id="path91282" d="m18.443 444.73h7.654v5.511h-7.654z" fill="#dc183c"/>
    </g>
   </g>
   <g id="g91284" transform="matrix(.35278 0 0 -.35278 52.026 222.03)">
    <g id="g91286" clip-path="url(#clipPath91290)">
     <g id="g91292" transform="translate(19.361 447.49)">
      <path id="path91294" d="m0 0c0-0.886 0.73-1.607 1.626-1.607h0.976v0.75h-0.976c-0.478 0-0.867 0.385-0.867 0.857 0 0.473 0.389 0.857 0.867 0.857h0.976v0.75h-0.976c-0.896 0-1.626-0.72-1.626-1.607" fill="#fff"/>
     </g>
     <g id="g91296" transform="translate(24.939 447.54)">
      <path id="path91298" d="m0 0c-0.178 0.209-0.436 0.324-0.727 0.324h-0.939c-0.227 0-0.261 0.15-0.261 0.24 0 0.066 0.021 0.128 0.06 0.169 0.043 0.048 0.111 0.072 0.201 0.072h1.784v0.75h-1.784c-0.297 0-0.563-0.111-0.747-0.313-0.165-0.181-0.256-0.422-0.256-0.678 0-0.492 0.344-0.991 1.003-0.991h0.939c0.076 0 0.128-0.02 0.165-0.063s0.059-0.109 0.059-0.18c0-0.089-0.029-0.239-0.217-0.239h-1.842v-0.75h1.842c0.623 0 0.959 0.51 0.959 0.989 0 0.252-0.085 0.49-0.239 0.67" fill="#fff"/>
     </g>
     <g id="g91300" transform="translate(26.709 448.17)">
      <path id="path91302" d="m0 0v-2.287h0.619v1.608h0.815v0.619h-0.815v0.06c0 0.308 0.13 0.308 0.226 0.308h0.589v0.619h-0.589c-0.513 0-0.845-0.363-0.845-0.927" fill="#295fa7"/>
     </g>
     <path id="path91304" d="m28.583 445.88h0.619v2.227h-0.619z" fill="#295fa7"/>
     <path id="path91306" d="m29.639 445.88h0.619v3.215h-0.619z" fill="#295fa7"/>
     <g id="g91308" transform="translate(32.823 448.11)">
      <path id="path91310" d="m0 0h-2.112v-2.227h0.619v1.608h0.591v-1.608h0.619v1.608h0.283c0.308 0 0.308-0.13 0.308-0.226v-1.382h0.619v1.383c0 0.513-0.364 0.844-0.927 0.844" fill="#295fa7"/>
     </g>
     <path id="path91312" d="m28.581 448.47h0.624v0.624h-0.624z" fill="#295fa7"/>
    </g>
   </g>
  </g>
  <g id="g4623" transform="matrix(1.2432 0 0 1.2432 -26.163 -26.962)">
   <g id="g17100" transform="matrix(.35278 0 0 -.35278 105.84 100.04)">
    <path id="path17102" d="m0 0v-1.455h-0.738v1.455h-0.706v-3.632h0.706v1.52h0.738v-1.52h0.706v3.632z"/>
   </g>
   <g id="g17104" transform="matrix(.35278 0 0 -.35278 24.757 210.83)">
    <g id="g17106" clip-path="url(#clipPath17110)">
     <g id="g17112" transform="translate(233.31 312.29)">
      <path id="path17114" d="m0 0c0-1.369-0.485-1.924-1.175-1.924-0.824 0-1.148 0.873-1.148 1.87 0 0.992 0.394 1.848 1.202 1.848 0.873 0 1.121-0.964 1.121-1.794m-1.59-0.065c0-0.824 0.157-1.244 0.442-1.244 0.302 0 0.415 0.538 0.415 1.277 0 0.636-0.097 1.212-0.42 1.212-0.28 0-0.437-0.463-0.437-1.245"/>
     </g>
     <g id="g17116" transform="translate(233.76 313.98)">
      <path id="path17118" d="m0 0c0.221 0.043 0.501 0.07 0.771 0.07 0.388 0 0.738-0.059 0.969-0.269 0.222-0.2 0.292-0.442 0.292-0.755 0-0.388-0.194-0.738-0.561-0.905v-0.011c0.248-0.102 0.372-0.328 0.442-0.722 0.07-0.404 0.167-0.851 0.232-0.986h-0.739c-0.048 0.102-0.129 0.469-0.183 0.873-0.064 0.447-0.177 0.576-0.409 0.576h-0.108v-1.449h-0.706zm0.706-1.584h0.129c0.307 0 0.48 0.248 0.48 0.566 0 0.312-0.124 0.528-0.436 0.538-0.065 0-0.135-5e-3 -0.173-0.021z"/>
     </g>
     <g id="g17120" transform="translate(238.84 313.98)">
      <path id="path17122" d="m0 0c0.221 0.043 0.501 0.07 0.771 0.07 0.388 0 0.738-0.059 0.97-0.269 0.221-0.2 0.291-0.442 0.291-0.755 0-0.388-0.194-0.738-0.561-0.905v-0.011c0.248-0.102 0.372-0.328 0.442-0.722 0.07-0.404 0.167-0.851 0.232-0.986h-0.738c-0.049 0.102-0.13 0.469-0.184 0.873-0.064 0.447-0.177 0.576-0.409 0.576h-0.108v-1.449h-0.706zm0.706-1.584h0.129c0.308 0 0.48 0.248 0.48 0.566 0 0.312-0.124 0.528-0.436 0.538-0.065 0-0.135-5e-3 -0.173-0.021z"/>
     </g>
     <g id="g17124" transform="translate(228.45 309.88)">
      <path id="path17126" d="m0 0h0.697v-0.271h-0.385v-0.412h0.362v-0.26h-0.362v-0.662h-0.312z"/>
     </g>
     <path id="path17128" d="m232.15 309.88h0.312v-1.605h-0.312z"/>
     <g id="g17130" transform="translate(235.82 309.88)">
      <path id="path17132" d="m0 0h0.312v-1.34h0.41v-0.265h-0.722z"/>
     </g>
     <g id="g17134" transform="translate(240.75 308.84)">
      <path id="path17136" d="m0 0c-0.01 0.152-0.019 0.359-0.017 0.531h-4e-3c-0.029-0.172-0.072-0.369-0.103-0.493l-0.141-0.574h-0.218l-0.134 0.565c-0.031 0.128-0.074 0.328-0.1 0.502h-5e-3c-4e-3 -0.174-0.016-0.376-0.023-0.536l-0.029-0.557h-0.267l0.115 1.605h0.331l0.128-0.581c0.043-0.203 0.084-0.381 0.112-0.562h7e-3c0.024 0.179 0.06 0.359 0.1 0.562l0.129 0.581h0.328l0.098-1.605h-0.278z"/>
     </g>
     <g id="g17138" transform="translate(238.17 310.9)">
      <path id="path17140" d="m0 0c0.173 0.31 0.273 0.763 0.273 1.383 0 0.83-0.248 1.795-1.121 1.795-0.808 0-1.202-0.857-1.202-1.849 0-0.517 0.087-1 0.286-1.346 0.113-0.511-0.069-0.933 0.256-0.925 0.255 5e-3 0.145 0.279 0.227 0.475 0.046-0.02 0.095-0.036 0.146-0.048 0.026-0.188 0.055-0.452 0.07-0.745 0.029-0.579-0.115-1.88-0.173-2.545-0.058-0.666 0.347-1.244 0.723-1.1 0.376 0.145 0.145 0.723 0.029 1.244-0.103 0.465-0.161 2.08-0.192 3.142 0.079 0.016 0.155 0.041 0.227 0.075 0.128-0.781-0.095-1.284 0.306-1.241 0.388 0.041-2e-3 0.987 0.145 1.685m-0.875 0.074c-0.285 0-0.442 0.42-0.442 1.245 0 0.781 0.157 1.245 0.437 1.245 0.323 0 0.42-0.577 0.42-1.213 0-0.738-0.113-1.277-0.415-1.277" fill="#d4021d"/>
     </g>
    </g>
   </g>
  </g>
 </g>
</svg>
