<svg height="1.944158mm" viewBox="0 0 5.3992639 1.9441583" width="5.399264mm" xmlns="http://www.w3.org/2000/svg" xmlns:xlink="http://www.w3.org/1999/xlink"><clipPath id="a"><path d="m18.444 444.731h15.305v5.511h-15.305z"/></clipPath><clipPath id="b"><path d="m18.444 443.336h15.305v8.301h-15.305z"/></clipPath><g clip-path="url(#b)" transform="matrix(.35277777 0 0 -.35277777 -6.506633 158.835369)"><path d="m18.443 444.731h7.654v5.511h-7.654z" fill="#dc183c"/></g><g clip-path="url(#a)" transform="matrix(.35277777 0 0 -.35277777 -6.506633 158.835369)"><g transform="translate(19.3611 447.4865)"><path d="m0 0c0-.886.73-1.607 1.626-1.607h.976v.75h-.976c-.478 0-.867.385-.867.857 0 .473.389.857.867.857h.976v.75h-.976c-.896 0-1.626-.72-1.626-1.607" fill="#fff"/></g><g transform="translate(24.939 447.5384)"><path d="m0 0c-.178.209-.436.324-.727.324h-.939c-.227 0-.261.15-.261.24 0 .066.021.128.06.169.043.048.111.072.201.072h1.784v.75h-1.784c-.297 0-.563-.111-.747-.313-.165-.181-.256-.422-.256-.678 0-.492.344-.991 1.003-.991h.939c.076 0 .128-.02.165-.063s.059-.109.059-.18c0-.089-.029-.239-.217-.239h-1.842v-.75h1.842c.623 0 .959.51.959.989 0 .252-.085.49-.239.67" fill="#fff"/></g><g transform="translate(26.7086 448.1664)"><path d="m0 0v-2.287h.619v1.608h.815v.619h-.815v.06c0 .308.13.308.226.308h.589v.619h-.589c-.513 0-.845-.363-.845-.927" fill="#295fa7"/></g><path d="m28.583 445.879h.619v2.227h-.619z" fill="#295fa7"/><path d="m29.639 445.879h.619v3.215h-.619z" fill="#295fa7"/><g transform="translate(32.8226 448.1064)"><path d="m0 0h-2.112v-2.227h.619v1.608h.591v-1.608h.619v1.608h.283c.308 0 .308-.13.308-.226v-1.382h.619v1.383c0 .513-.364.844-.927.844" fill="#295fa7"/></g><path d="m28.581 448.47h.624v.624h-.624z" fill="#295fa7"/></g></svg>