<svg height="4.4mm" viewBox="0 0 11.582002 4.3999999" width="11.582001mm" xmlns="http://www.w3.org/2000/svg" xmlns:xlink="http://www.w3.org/1999/xlink"><clipPath id="a"><path d="m18.444 443.336h15.305v8.301h-15.305z"/></clipPath><clipPath id="b"><path d="m18.444 444.731h15.305v5.511h-15.305z"/></clipPath><g fill-rule="evenodd" transform="matrix(1.1025437 0 0 1.1025437 -108.878562 -107.360765)"><path d="m98.920426 99.958351c0-.118533.07832-.197556.196497-.197556h1.617837c.11818 0 .19685.07902.19685.197556v1.002239c0 .11854-.0787.19721-.19685.19721h-1.617837c-.11818 0-.196497-.0787-.196497-.19721zm-.168275-.09772v1.197679c0 .20355.105481.30798.31115.30798h1.754359c.20567 0 .31115-.10443.31115-.30798v-1.197679c0-.203906-.10548-.308328-.31115-.308328h-1.754359c-.205669 0-.31115.104422-.31115.308328m1.344439.155219c-.0335 0-.0649.006-.0946.019-.02963.0131-.05538.03-.0769.0519-.02152.0215-.03845.0469-.05115.0762-.01235.0293-.0187.0603-.0187.0928v.0406c0 .0335.0063.0646.01905.0935.01235.0289.02963.0547.05151.0769.02152.0222.04727.0399.07656.0522.0293.0127.0607.019.0942.019h.35666c.0226 0 .0416.008.0568.0229.0148.0155.0222.0339.0222.0554v.0198c0 .0222-.007.0413-.0226.0572-.0155.0159-.0342.024-.0564.024h-.530935v.18097h.572915c.0335 0 .0649-.006.0938-.0187.0293-.0127.055-.03.0773-.0515.0226-.0219.0399-.0476.0526-.0773.0123-.0296.0187-.061.0187-.0938v-.0406c0-.0324-.006-.0635-.0187-.0928s-.03-.0547-.0519-.0765c-.0222-.0219-.048-.0392-.0776-.0519-.0293-.0123-.061-.019-.0942-.019h-.35631c-.0222 0-.0409-.007-.0564-.0229-.0155-.0155-.0233-.0342-.0233-.0568v-.0198c0-.0222.008-.0413.0233-.0564.0155-.0155.0342-.0229.0564-.0229h.53199v-.18133zm-.723197.004c-.0381 0-.07373.007-.107245.0212-.03316.0141-.06209.0339-.08714.0593-.02434.025-.04374.054-.05821.0868-.01411.0332-.02152.0684-.02152.10619v.3362c0 .0384.0074.0744.02187.10759.01446.0332.03387.0621.05856.0864.02434.0243.05327.0437.08643.0586.03316.0148.06879.0222.107245.0222h.421216v-.2039h-.379236c-.03104 0-.05715-.0109-.07902-.0325-.02152-.0215-.03246-.0483-.03246-.0804v-.25224c0-.0318.01094-.0582.03246-.0804.02152-.0219.04763-.0328.07902-.0328h.379236v-.20214z" fill="#ee2629"/><path d="m101.29515 100.43114s-.007-.39829.16122-.19015c.16827.20814.067-.0007.22613-.0681.0557-.0236.10901-.01.14958.008.0409.018.0734.0462.0984.0854.0233-.0582.0512-.10195.0836-.13017.0325-.0286.0751-.0487.12876-.06.0797-.0166.14852-.001.20603.0452.0575.0469.0991.12876.12453.24518l.0854.38841-.29845.0628-.0748-.34113c-.007-.0339-.0187-.0575-.0332-.072-.0205-.0205-.0416-.0286-.0639-.024-.0279.006-.0476.0222-.0593.0497-.012.0275-.0116.0691.00071.12594l.0653.29598-.2988.0628-.0709-.3242c-.008-.0346-.0145-.0575-.0201-.0684-.009-.0166-.0205-.0293-.0346-.0374-.0145-.008-.0296-.0106-.0455-.007-.0272.006-.0466.0226-.0589.0504-.0123.0279-.012.0716.001.13124l.0635.29033-.29845.0628z" fill="#82cd2d"/><path d="m102.55319 100.85765.18344-.0162v-.70167c.0123-.0131.0233-.0282.0317-.0445.0219.0131.0473.0208.0748.0208.078 0 .14111-.0624.14111-.139346 0-.07726-.0631-.1397-.14111-.1397-.0377 0-.072.01446-.0974.03845-.0374-.04586-.0946-.07514-.15875-.07514-.11289 0-.20461.09031-.20461.202146 0 .0797.0473.14887.11535.18168z" fill="#fbc71a"/><path d="m102.43466 100.00601c0 .0854.0699.15452.15593.15452.0709 0 .13088-.0469.14993-.11148.019.0233.048.0378.0804.0378.0575 0 .10407-.0462.10407-.103015 0-.0568-.0466-.102658-.10407-.102658-.0395 0-.0741.02187-.0917.05397-.0258-.04939-.0783-.08326-.13864-.08326-.0861 0-.15593.06879-.15593.154163" fill="#ececed"/><g fill="#050301"><path d="m102.48669 100.00601c0-.0568.0466-.102658.10407-.102658.0575 0 .10407.04586.10407.102658 0 .0568-.0466.10301-.10407.10301-.0575 0-.10407-.0462-.10407-.10301"/><path d="m102.76147 99.983962c0-.03634.03-.06597.0667-.06597.037 0 .067.02963.067.06597 0 .03669-.03.06632-.067.06632-.0367 0-.0667-.0296-.0667-.06632"/><path d="m102.4082 99.820979.0325.08608.15733-.06244-.0226-.05433z"/><path d="m102.91419 99.904517.009-.08784-.16898-.01482-.008.06174z"/></g><path d="m102.86229 100.2732s.1457-.362303.22013-.11359c.0748.25011.0617.0233.23495.0198.0607-.001.10513.0307.13618.0617.031.0314.0508.0691.0589.11394.0444-.0448-.009.2466-.0194.30304l-.0543.29704-.30268-.0568.0596-.32244c.006-.0346.009-.0579.008-.0699-.002-.0183-.007-.0342-.0176-.0469-.01-.0123-.0229-.0205-.0392-.0233-.0268-.005-.0515.003-.0734.0243-.0222.0208-.0388.0607-.0494.11924l-.0533.28787-.29633-.0554z" fill="#ee2629"/><path d="m103.46756 100.26058c0 .0628.03.11853.0769.15381l.0384.48366s.25964-.007.24518-.0289c-.0102-.0152-.0497-.2854-.072-.43921.0603-.0328.1009-.0967.1009-.16933 0-.10689-.0871-.19332-.19474-.19332-.10759 0-.19473.0864-.19473.19332" fill="#6dcfda"/><path d="m103.49638 100.25338c0-.079.0646-.14323.14429-.14323.0797 0 .14428.0642.14428.14323 0 .079-.0646.14323-.14428.14323-.0797 0-.14429-.0642-.14429-.14323" fill="#ececed"/><path d="m103.5259 100.21316c0-.0367.03-.066.0667-.066.0371 0 .067.0293.067.066s-.03.066-.067.066c-.0367 0-.0667-.0293-.0667-.066" fill="#050301"/><path d="m102.91419 99.904517.009-.08784-.16898-.01482-.008.06174z" fill="#050301"/></g><g clip-path="url(#a)" transform="matrix(.362910535332 0 0 -.362910535332 -6.693522111382 163.397565135088)"><path d="m18.443 444.731h7.654v5.511h-7.654z" fill="#dc183c"/></g><g clip-path="url(#b)" transform="matrix(.362910535332 0 0 -.362910535332 -6.693522111382 163.397565135088)"><g transform="translate(19.3611 447.4865)"><path d="m0 0c0-.886.73-1.607 1.626-1.607h.976v.75h-.976c-.478 0-.867.385-.867.857 0 .473.389.857.867.857h.976v.75h-.976c-.896 0-1.626-.72-1.626-1.607" fill="#fff"/></g><g transform="translate(24.939 447.5384)"><path d="m0 0c-.178.209-.436.324-.727.324h-.939c-.227 0-.261.15-.261.24 0 .066.021.128.06.169.043.048.111.072.201.072h1.784v.75h-1.784c-.297 0-.563-.111-.747-.313-.165-.181-.256-.422-.256-.678 0-.492.344-.991 1.003-.991h.939c.076 0 .128-.02.165-.063s.059-.109.059-.18c0-.089-.029-.239-.217-.239h-1.842v-.75h1.842c.623 0 .959.51.959.989 0 .252-.085.49-.239.67" fill="#fff"/></g><g transform="translate(26.7086 448.1664)"><path d="m0 0v-2.287h.619v1.608h.815v.619h-.815v.06c0 .308.13.308.226.308h.589v.619h-.589c-.513 0-.845-.363-.845-.927" fill="#295fa7"/></g><path d="m28.583 445.879h.619v2.227h-.619z" fill="#295fa7"/><path d="m29.639 445.879h.619v3.215h-.619z" fill="#295fa7"/><g transform="translate(32.8226 448.1064)"><path d="m0 0h-2.112v-2.227h.619v1.608h.591v-1.608h.619v1.608h.283c.308 0 .308-.13.308-.226v-1.382h.619v1.383c0 .513-.364.844-.927.844" fill="#295fa7"/></g><path d="m28.581 448.47h.624v.624h-.624z" fill="#295fa7"/></g><g transform="translate(-98.752148 -96.971558)"><g fill="#fff"><path d="m105.41343 97.412899v.638108h-.32366v-.638108h-.30962v1.592858h.30962v-.666614h.32366v.666614h.30962v-1.592858z"/><path d="m0 0c0-1.369-.485-1.924-1.175-1.924-.824 0-1.148.873-1.148 1.87 0 .992.394 1.848 1.202 1.848.873 0 1.121-.964 1.121-1.794m-1.59-.065c0-.824.157-1.244.442-1.244.302 0 .415.538.415 1.277 0 .636-.097 1.212-.42 1.212-.28 0-.437-.463-.437-1.245" transform="matrix(.43856232 0 0 -.43856232 106.93797 98.181003)"/><path d="m0 0c .221.043.501.07.771.07.388 0 .738-.059.969-.269.222-.2.292-.442.292-.755 0-.388-.194-.738-.561-.905v-.011c.248-.102.372-.328.442-.722.07-.404.167-.851.232-.986h-.739c-.048.102-.129.469-.183.873-.064.447-.177.576-.409.576h-.108v-1.449h-.706zm.706-1.584h.129c.307 0 .48.248.48.566 0 .312-.124.528-.436.538-.065 0-.135-.005-.173-.021z" transform="matrix(.43856232 0 0 -.43856232 107.13409 97.436588)"/><path d="m0 0c .221.043.501.07.771.07.388 0 .738-.059.97-.269.221-.2.291-.442.291-.755 0-.388-.194-.738-.561-.905v-.011c.248-.102.372-.328.442-.722.07-.404.167-.851.232-.986h-.738c-.049.102-.13.469-.184.873-.064.447-.177.576-.409.576h-.108v-1.449h-.706zm.706-1.584h.129c.308 0 .48.248.48.566 0 .312-.124.528-.436.538-.065 0-.135-.005-.173-.021z" transform="matrix(.43856232 0 0 -.43856232 109.3619 97.436588)"/><path d="m0 0h .697v-.271h-.385v-.412h.362v-.26h-.362v-.662h-.312z" transform="matrix(.43856232 0 0 -.43856232 104.80278 99.236535)"/><path d="m106.42897 99.23636h.13683v.703892h-.13683z"/><path d="m0 0h .312v-1.34h.41v-.265h-.722z" transform="matrix(.43856232 0 0 -.43856232 108.03889 99.236535)"/><path d="m0 0c-.01.152-.019.359-.017.531h-.004c-.029-.172-.072-.369-.103-.493l-.141-.574h-.218l-.134.565c-.031.128-.074.328-.1.502h-.005c-.004-.174-.016-.376-.023-.536l-.029-.557h-.267l.115 1.605h.331l.128-.581c.043-.203.084-.381.112-.562h.007c.024.179.06.359.1.562l.129.581h.328l.098-1.605h-.278z" transform="matrix(.43856232 0 0 -.43856232 110.19951 99.693912)"/></g><path d="m0 0c .173.31.273.763.273 1.383 0 .83-.248 1.795-1.121 1.795-.808 0-1.202-.857-1.202-1.849 0-.517.087-1 .286-1.346.113-.511-.069-.933.256-.925.255.005.145.279.227.475.046-.02.095-.036.146-.048.026-.188.055-.452.07-.745.029-.579-.115-1.88-.173-2.545-.058-.666.347-1.244.723-1.1.376.145.145.723.029 1.244-.103.465-.161 2.08-.192 3.142.079.016.155.041.227.075.128-.781-.095-1.284.306-1.241.388.041-.002.987.145 1.685m-.875.074c-.285 0-.442.42-.442 1.245 0 .781.157 1.245.437 1.245.323 0 .42-.577.42-1.213 0-.738-.113-1.277-.415-1.277" fill="#d4021d" transform="matrix(.43856232 0 0 -.43856232 109.06583 98.787667)"/></g></svg>