<svg width="602.45pt" height="803.61pt" version="1.1" viewBox="0 0 602.45 803.61" xmlns="http://www.w3.org/2000/svg">
 <defs>
  <linearGradient id="linearGradient877" x1="309.47" x2="608.81" y1="136.27" y2="136.27" gradientTransform="matrix(1.8324 0 0 1.8324 -540.03 -30.095)" gradientUnits="userSpaceOnUse">
   <stop stop-color="#fadc86" offset="0"/>
   <stop stop-color="#f9e48e" offset=".26172"/>
   <stop stop-color="#feeda4" offset=".53816"/>
   <stop stop-color="#f5f2ad" offset=".77879"/>
   <stop stop-color="#f8fac0" offset="1"/>
  </linearGradient>
  <linearGradient id="linearGradient1122" x1="30.376" x2="772.25" y1="439.19" y2="439.19" gradientTransform="matrix(.75 0 0 .75 .003396 .0005621)" gradientUnits="userSpaceOnUse">
   <stop stop-color="#dde01a" offset="0"/>
   <stop stop-color="#dce11b" offset=".2352"/>
   <stop stop-color="#dbe850" offset=".46649"/>
   <stop stop-color="#e1e82b" offset=".72157"/>
   <stop stop-color="#e2ea74" offset="1"/>
  </linearGradient>
 </defs>
 <path d="m418.74 1.5135c25.635-3.958 52.443-0.14659 75.733 11.361 44.491 21.476 74.322 67.726 79.673 116.36l20.486 136.95c3.6831 23.821 8.0809 48.229 3.1884 72.233-4.1229 23.253-17.628 44.692-37.271 57.904-27.669 19.057-62.045 24.151-94.882 25.837l-294.69 15.777c-14.109 0.51307-28.237 1.9973-42.328 0.80625-33.753-2.6386-66.498-17.206-90.869-40.734-22.19-21.183-37.399-50.703-37.784-81.743l0.073296-137.52c-0.14659-26.167 9.2536-51.839 24.499-72.93 26.258-36.483 68.605-60.561 113.21-65.38zm-184.85 50.867c16.198 6.1752 31.646 14.293 45.737 24.426-11.911 13.395-17.994 31.132-18.196 48.943-14.696-8.6672-30.07-16.162-45.755-22.813-22.099-9.6018-46.836-12.424-70.676-9.5834-19.02 2.2905-37.766 11.159-49.456 26.68-15.649 20.156-19.149 46.873-17.903 71.647l8.0992 113.76c1.5026 20.358 5.5888 41.321 17.225 58.49 8.5207 12.699 21.897 21.879 36.74 25.489 21.347 5.4239 43.648 1.8324 64.739-2.9868 21.494-4.9292 41.321-15.246 59.187-27.962 15.172 10.628 30.546 21.128 47.093 29.538-9.7484 7.8976-20.01 15.209-31.041 21.183 33.441-1.6308 66.883-3.335 100.32-5.3506-38.462-11.434-74.634-29.868-107.47-52.828l40.349-31.004c18.122 12.735 38.462 21.989 59.132 29.722 39.342 14.073 83.667 10.225 121.85-5.6438 16.382-7.4762 34.024-19.614 36.923-38.975 3.9543-36.023-35.411-55.315-68.66-61.294-29.813-5.2956-59.846-9.5102-89.568-15.374-30.619-6.8532-62.833-18.416-82.77-44.014-13.23-16.51-17.188-37.143-17.188-58.71-0.34815-24.408 14.055-47.496 34.596-60.084 25.397-15.905 55.76-21.494 85.28-23.217 43.098-2.4004 86.398 5.5338 126.88 20.156-21.897-25.69-56.126-41.192-90.044-37.637zm120.87 44.472c-10.097 5.4605-19.588 14.916-20.083 27.046 0 32.534 27.231 43.287 55.174 50.244 23.345 5.3506 47.038 9.0337 70.529 13.615 32.195 5.5338 65.197 13.505 92.261 32.617l-14.568-97.44c-46.635-22.425-86.814-35.239-136.35-35.079-15.96 0.16492-32.543 1.5942-46.964 8.9971z" fill="url(#linearGradient877)" stroke-width="1.8324"/>
 <g transform="matrix(.88416 0 0 .88416 -278.47 470.73)" fill="#a5a5a4">
  <path d="m367.06 8.9859h129.52v44.535h-75.225v33.55h66.425v46.07h-66.425v82.355h-54.295z"/>
  <path d="m517.72 8.9859h54.31v206.51h-54.31z"/>
  <path d="m596.24 8.9859h54.4v151.92h74.33v54.59h-128.73z"/>
  <path d="m746.36 8.9866v206.51h54.624v-105.82l54.091 49.071 54.089-49.069v105.82h54.626v-206.51h-24.715l-84 76.38-84-76.38z"/>
 </g>
 <g transform="matrix(.55221 0 0 .55221 -201.35 679.36)" fill="#a5a5a4">
  <path d="m639.98 21.477c33.92-3.71 69.55 8.85 92.72 34.1 14.18 15.29 23.16 35.37 24.65 56.21 1.37 20.06-2.24 40.63-11.39 58.62-7.21 14.23-17.96 26.66-31.08 35.77-14.58 10.2-31.88 16.19-49.52 18.09-20.23 2.15-41.15-0.38-59.82-8.63-16.02-7.03-30.16-18.35-40.29-32.63-11.53-16.06-17.82-35.56-19.07-55.22-1.4-17.83 1.93-36.12 10.36-51.95 16.15-30.85 49.17-50.91 83.44-54.36m5.94 47.99c-23.57 2.32-45.23 21.49-47.9 45.45-1.57 17.18 4.55 35.2 17.18 47.14 10.59 10.27 25.65 15.64 40.35 14.52 13.47-0.87 26.45-7.21 35.47-17.23 10.43-11.39 15.52-27.17 14.69-42.5-0.87-13.82-8.45-26.65-19.11-35.25-11.25-9.21-26.21-13.75-40.68-12.13z"/>
  <path d="m1168.9 21.517c33.71-3.8 69.16 8.46 92.44 33.34 14.34 15.15 23.53 35.15 25.25 55.98 1.26 16.15-0.79 32.61-6.26 47.88-6.13 17.08-16.95 32.52-31.21 43.78-15.04 12.02-33.62 19.24-52.67 21.56-20.57 2.5-41.93 0.12-61.02-8.16-15.44-6.66-29.18-17.3-39.3-30.75-9.42-12.42-15.69-27.1-18.68-42.37-4.1-20.88-2.88-43.26 6.31-62.68 15.14-33.04 49.45-54.9 85.14-58.58m6.05 47.98c-18.11 1.99-34.95 13.53-43.03 29.91-7.09 13.87-5.85 30.7 0.13 44.73 6.54 15.41 20.56 27.51 36.96 31.19 16.4 3.92 34.54-0.56 47.11-11.83 14.82-13.03 21.79-34.28 17.9-53.56-5.81-25.81-33.07-43.81-59.07-40.44z"/>
  <path d="m365.41 27.177c16.6-0.01 33.19 0 49.79 0 0.05 24.62-0.02 49.23 0.03 73.85 23.9 0.03 47.8 0.01 71.7 0.01 0.06-24.61 0.01-49.23 0.03-73.84 16.6-0.04 33.21-0.05 49.82 0-0.02 63.83 0.01 127.65-0.02 191.47-16.6 0.02-33.19 0.01-49.79 0.01-0.04-26.14 0.01-52.28-0.02-78.42-23.91-0.02-47.82-0.04-71.73 0.01-0.01 26.13 0 52.26-0.01 78.39-16.6 0.03-33.2 0.02-49.8 0.01-0.02-63.83-0.03-127.66 0-191.49z"/>
  <path d="m767.02 27.197c23.47-0.06 46.95 0 70.43-0.03 16.57-0.32 34 2.12 48 11.6 10.97 7.25 18.44 19.15 20.98 31.99 3.49 17.15 1.3 36.29-9.31 50.64-7.3 10.09-18.76 16.67-30.94 18.86 19.04 24.89 38.15 49.72 57.19 74.6 0.83 0.98 1.73 1.91 2.7 2.8-0.64 0.52-1.28 1.03-1.93 1.51-2.85-0.72-5.78-0.5-8.67-0.49-16.01 0.02-32.02-0.04-48.03 0.03-1.26-0.2-3.1 0.46-3.79-0.98-15.61-24.36-31.03-48.84-46.75-73.12-0.16 24.68-0.01 49.37-0.07 74.06-16.6 0.01-33.2 0.01-49.8 0-0.03-63.82 0-127.65-0.01-191.47m49.82 85.76c9.39 0.1 19.24 0.13 27.9-4 5.32-2.47 9.41-7.42 10.64-13.18 1.98-8.57 0.31-19.06-7.32-24.42-9.08-6.22-20.65-6.04-31.2-5.99-0.05 15.86-0.02 31.73-0.02 47.59z"/>
  <path d="m925.96 27.197c25.5-0.03 51.01-0.06 76.52 0.02 17.8 0.26 36.78 4.89 49.61 17.98 13.64 13.88 16.92 35.03 13.6 53.58-2.8 16.13-13.23 31.2-28.49 37.75-3.86 1.76-7.97 2.84-12.1 3.73 20.02 26.15 40.1 52.25 60.11 78.41-20.67 0.03-41.33-0.01-62 0.02-15.85-24.66-31.46-49.47-47.37-74.08-0.17 24.68-0.01 49.37-0.08 74.06-14.44 0-28.88 0.04-43.32-0.02-1.98 0.1-4.18-0.38-5.92 0.78-0.86-5.17-0.51-10.4-0.56-15.61v-176.62m49.82 85.77c9.58 0.08 19.7 0.14 28.46-4.3 5.37-2.66 9.27-7.94 10.28-13.86 1.63-8.36-0.19-18.38-7.61-23.51-9.07-6.16-20.59-5.98-31.11-5.94-0.06 15.87-0.02 31.74-0.02 47.61z"/>
  <path d="m1296.4 27.167c18.35 0.02 36.7 0 55.05 0.01 17.17 0.06 34.99-1.15 51.29 5.36 14.69 5.31 26.97 17.31 31.47 32.4 5.48 18.29 4.02 39.54-7.08 55.5-7.27 10.6-19.07 17.59-31.64 19.82 20.03 26.14 40.1 52.25 60.11 78.41-20.67 0.02-41.33 0-62 0.01-15.85-24.66-31.45-49.46-47.37-74.07-0.22 24.68-0.03 49.37-0.09 74.05-16.6 0.03-33.2 0.02-49.8 0.01 0.02-63.84-0.11-127.67 0.06-191.5m49.75 38.21c-0.02 15.87-0.02 31.73 0 47.59 9.75 0.08 20.09 0.14 28.93-4.54 5.78-3 9.55-9.1 10.13-15.53 1.09-7.96-1.14-17.14-8.19-21.79-9.06-5.97-20.44-5.81-30.87-5.73z"/>
 </g>
 <path d="m0.051736 219.6-0.05127 96.668c0.38481 31.041 15.594 60.562 37.784 81.744 24.371 23.528 57.116 38.094 90.869 40.733 14.091 1.1911 28.219-0.29259 42.328-0.80567l294.69-15.776c32.837-1.6858 67.212-6.78 94.881-25.837 19.643-13.212 33.149-34.651 37.271-57.904 4.8925-24.004 0.49414-48.413-3.189-72.234l-6.9683-46.588h-35.146l0.11572 0.77783c-0.37391-0.26404-0.75323-0.51802-1.1294-0.77783h-209.76c10.105 3.71 20.552 6.5432 30.822 8.8418 29.722 5.8637 59.755 10.078 89.568 15.374 33.249 5.9791 72.614 25.27 68.66 61.293-2.8989 19.361-20.541 31.499-36.923 38.975-38.187 15.869-82.513 19.717-121.85 5.644-20.669-7.7327-41.009-16.986-59.131-29.722l-40.349 31.003c32.837 22.96 69.008 41.394 107.47 52.828-33.441 2.0156-66.883 3.7202-100.32 5.3511 11.031-5.9736 21.293-13.284 31.042-21.182-16.546-8.4107-31.921-18.911-47.093-29.539-17.866 12.717-37.692 23.033-59.186 27.962-21.091 4.8192-43.391 8.4107-64.739 2.9868-14.842-3.6098-28.219-12.791-36.74-25.49-11.636-17.17-15.723-38.132-17.225-58.49l-6.1113-85.838z" fill="url(#linearGradient1122)" stroke-width="1.8324"/>
</svg>
