<?xml version="1.0" encoding="UTF-8" standalone="no"?>
<!-- Created with Inkscape (http://www.inkscape.org/) -->

<svg
   xmlns:dc="http://purl.org/dc/elements/1.1/"
   xmlns:cc="http://creativecommons.org/ns#"
   xmlns:rdf="http://www.w3.org/1999/02/22-rdf-syntax-ns#"
   xmlns:svg="http://www.w3.org/2000/svg"
   xmlns="http://www.w3.org/2000/svg"
   xmlns:sodipodi="http://sodipodi.sourceforge.net/DTD/sodipodi-0.dtd"
   xmlns:inkscape="http://www.inkscape.org/namespaces/inkscape"
   width="5.3992639mm"
   height="1.9441583mm"
   viewBox="0 0 5.3992639 1.9441583"
   version="1.1"
   id="svg96503"
   inkscape:version="0.92.0 r15299"
   sodipodi:docname="CS Film.svg">
  <defs
     id="defs96497">
    <clipPath
       clipPathUnits="userSpaceOnUse"
       id="clipPath91290">
      <path
         d="m 18.444,444.731 h 15.305 v 5.511 H 18.444 Z"
         id="path91288"
         inkscape:connector-curvature="0" />
    </clipPath>
    <clipPath
       clipPathUnits="userSpaceOnUse"
       id="clipPath91280">
      <path
         d="m 18.444,443.336 h 15.305 v 8.301 H 18.444 Z"
         id="path91278"
         inkscape:connector-curvature="0" />
    </clipPath>
  </defs>
  <sodipodi:namedview
     id="base"
     pagecolor="#ffffff"
     bordercolor="#666666"
     borderopacity="1.0"
     inkscape:pageopacity="0.0"
     inkscape:pageshadow="2"
     inkscape:zoom="31.678384"
     inkscape:cx="9.3850108"
     inkscape:cy="1.6176143"
     inkscape:document-units="mm"
     inkscape:current-layer="layer1"
     showgrid="false"
     fit-margin-top="0"
     fit-margin-left="0"
     fit-margin-right="0"
     fit-margin-bottom="0"
     inkscape:window-width="1920"
     inkscape:window-height="1017"
     inkscape:window-x="-8"
     inkscape:window-y="-8"
     inkscape:window-maximized="1" />
  <metadata
     id="metadata96500">
    <rdf:RDF>
      <cc:Work
         rdf:about="">
        <dc:format>image/svg+xml</dc:format>
        <dc:type
           rdf:resource="http://purl.org/dc/dcmitype/StillImage" />
        <dc:title></dc:title>
      </cc:Work>
    </rdf:RDF>
  </metadata>
  <g
     inkscape:label="Layer 1"
     inkscape:groupmode="layer"
     id="layer1"
     transform="translate(-58.532511,-63.194591)">
    <g
       transform="matrix(0.35277777,0,0,-0.35277777,52.025878,222.02996)"
       id="g91274">
      <g
         id="g91276"
         clip-path="url(#clipPath91280)">
        <path
           d="m 18.443,444.731 h 7.654 v 5.511 h -7.654 z"
           style="fill:#dc183c;fill-opacity:1;fill-rule:nonzero;stroke:none"
           id="path91282"
           inkscape:connector-curvature="0" />
      </g>
    </g>
    <g
       transform="matrix(0.35277777,0,0,-0.35277777,52.025878,222.02996)"
       id="g91284">
      <g
         id="g91286"
         clip-path="url(#clipPath91290)">
        <g
           id="g91292"
           transform="translate(19.3611,447.4865)">
          <path
             d="m 0,0 c 0,-0.886 0.73,-1.607 1.626,-1.607 h 0.976 v 0.75 H 1.626 c -0.478,0 -0.867,0.385 -0.867,0.857 0,0.473 0.389,0.857 0.867,0.857 h 0.976 v 0.75 H 1.626 C 0.73,1.607 0,0.887 0,0"
             style="fill:#ffffff;fill-opacity:1;fill-rule:nonzero;stroke:none"
             id="path91294"
             inkscape:connector-curvature="0" />
        </g>
        <g
           id="g91296"
           transform="translate(24.939,447.5384)">
          <path
             d="m 0,0 c -0.178,0.209 -0.436,0.324 -0.727,0.324 h -0.939 c -0.227,0 -0.261,0.15 -0.261,0.24 0,0.066 0.021,0.128 0.06,0.169 0.043,0.048 0.111,0.072 0.201,0.072 h 1.784 v 0.75 h -1.784 c -0.297,0 -0.563,-0.111 -0.747,-0.313 -0.165,-0.181 -0.256,-0.422 -0.256,-0.678 0,-0.492 0.344,-0.991 1.003,-0.991 h 0.939 c 0.076,0 0.128,-0.02 0.165,-0.063 0.037,-0.043 0.059,-0.109 0.059,-0.18 0,-0.089 -0.029,-0.239 -0.217,-0.239 h -1.842 v -0.75 h 1.842 c 0.623,0 0.959,0.51 0.959,0.989 C 0.239,-0.418 0.154,-0.18 0,0"
             style="fill:#ffffff;fill-opacity:1;fill-rule:nonzero;stroke:none"
             id="path91298"
             inkscape:connector-curvature="0" />
        </g>
        <g
           id="g91300"
           transform="translate(26.7086,448.1664)">
          <path
             d="m 0,0 v -2.287 h 0.619 v 1.608 H 1.434 V -0.06 H 0.619 V 0 c 0,0.308 0.13,0.308 0.226,0.308 H 1.434 V 0.927 H 0.845 C 0.332,0.927 0,0.564 0,0"
             style="fill:#295fa7;fill-opacity:1;fill-rule:nonzero;stroke:none"
             id="path91302"
             inkscape:connector-curvature="0" />
        </g>
        <path
           d="m 28.583,445.879 h 0.619 v 2.227 h -0.619 z"
           style="fill:#295fa7;fill-opacity:1;fill-rule:nonzero;stroke:none"
           id="path91304"
           inkscape:connector-curvature="0" />
        <path
           d="m 29.639,445.879 h 0.619 v 3.215 h -0.619 z"
           style="fill:#295fa7;fill-opacity:1;fill-rule:nonzero;stroke:none"
           id="path91306"
           inkscape:connector-curvature="0" />
        <g
           id="g91308"
           transform="translate(32.8226,448.1064)">
          <path
             d="m 0,0 h -2.112 v -2.227 h 0.619 v 1.608 h 0.591 v -1.608 h 0.619 v 1.608 H 0 c 0.308,0 0.308,-0.13 0.308,-0.226 v -1.382 h 0.619 v 1.383 C 0.927,-0.331 0.563,0 0,0"
             style="fill:#295fa7;fill-opacity:1;fill-rule:nonzero;stroke:none"
             id="path91310"
             inkscape:connector-curvature="0" />
        </g>
        <path
           d="m 28.581,448.47 h 0.624 v 0.624 h -0.624 z"
           style="fill:#295fa7;fill-opacity:1;fill-rule:nonzero;stroke:none"
           id="path91312"
           inkscape:connector-curvature="0" />
      </g>
    </g>
  </g>
</svg>
