<svg width="600pt" height="576.81pt" version="1.1" viewBox="0 0 600 576.81" xmlns="http://www.w3.org/2000/svg">
 <defs>
  <linearGradient id="linearGradient848" x1="306.49" x2="607" y1="136.27" y2="136.27" gradientUnits="userSpaceOnUse">
   <stop stop-color="#dde01a" offset="0"/>
   <stop stop-color="#dce11b" offset=".2352"/>
   <stop stop-color="#dbe850" offset=".46649"/>
   <stop stop-color="#e1e82b" offset=".72157"/>
   <stop stop-color="#e2ea74" offset="1"/>
  </linearGradient>
 </defs>
 <g transform="matrix(1.8175 0 0 1.8175 -535.63 -29.85)" fill="#dde21c">
  <path d="m523.23 17.25c13.99-2.16 28.62-0.08 41.33 6.2 24.28 11.72 40.56 36.96 43.48 63.5l11.18 74.74c2.01 13 4.41 26.32 1.74 39.42-2.25 12.69-9.62 24.39-20.34 31.6-15.1 10.4-33.86 13.18-51.78 14.1l-160.82 8.61c-7.7 0.28-15.41 1.09-23.1 0.44-18.42-1.44-36.29-9.39-49.59-22.23-12.11-11.56-20.41-27.67-20.62-44.61l0.04-75.05c-0.08-14.28 5.05-28.29 13.37-39.8 14.33-19.91 37.44-33.05 61.78-35.68zm-100.88 27.76c8.84 3.37 17.27 7.8 24.96 13.33-6.5 7.31-9.82 16.99-9.93 26.71-8.02-4.73-16.41-8.82-24.97-12.45-12.06-5.24-25.56-6.78-38.57-5.23-10.38 1.25-20.61 6.09-26.99 14.56-8.54 11-10.45 25.58-9.77 39.1l4.42 62.08c0.82 11.11 3.05 22.55 9.4 31.92 4.65 6.93 11.95 11.94 20.05 13.91 11.65 2.96 23.82 1 35.33-1.63 11.73-2.69 22.55-8.32 32.3-15.26 8.28 5.8 16.67 11.53 25.7 16.12-5.32 4.31-10.92 8.3-16.94 11.56 18.25-0.89 36.5-1.82 54.75-2.92-20.99-6.24-40.73-16.3-58.65-28.83l22.02-16.92c9.89 6.95 20.99 12 32.27 16.22 21.47 7.68 45.66 5.58 66.5-3.08 8.94-4.08 18.568-10.704 20.15-21.27 2.158-19.659-19.325-30.187-37.47-33.45-16.27-2.89-32.66-5.19-48.88-8.39-16.71-3.74-34.29-10.05-45.17-24.02-7.22-9.01-9.38-20.27-9.38-32.04-0.19-13.32 7.67-25.92 18.88-32.79 13.86-8.68 30.43-11.73 46.54-12.67 23.52-1.31 47.15 3.02 69.24 11-11.95-14.02-30.63-22.48-49.14-20.54zm65.96 24.27c-5.51 2.98-10.69 8.14-10.96 14.76 0 17.755 14.861 23.623 30.11 27.42 12.74 2.92 25.67 4.93 38.49 7.43 17.57 3.02 35.58 7.37 50.35 17.8l-7.9504-53.176c-25.45-12.238-47.377-19.231-74.41-19.144-8.71 0.09-17.76 0.87-25.63 4.91z" fill="url(#linearGradient848)"/>
 </g>
 <g transform="matrix(.54772 0 0 .54772 -197.27 453.57)" fill="#a5a5a4">
  <path d="m639.98 21.477c33.92-3.71 69.55 8.85 92.72 34.1 14.18 15.29 23.16 35.37 24.65 56.21 1.37 20.06-2.24 40.63-11.39 58.62-7.21 14.23-17.96 26.66-31.08 35.77-14.58 10.2-31.88 16.19-49.52 18.09-20.23 2.15-41.15-0.38-59.82-8.63-16.02-7.03-30.16-18.35-40.29-32.63-11.53-16.06-17.82-35.56-19.07-55.22-1.4-17.83 1.93-36.12 10.36-51.95 16.15-30.85 49.17-50.91 83.44-54.36m5.94 47.99c-23.57 2.32-45.23 21.49-47.9 45.45-1.57 17.18 4.55 35.2 17.18 47.14 10.59 10.27 25.65 15.64 40.35 14.52 13.47-0.87 26.45-7.21 35.47-17.23 10.43-11.39 15.52-27.17 14.69-42.5-0.87-13.82-8.45-26.65-19.11-35.25-11.25-9.21-26.21-13.75-40.68-12.13z"/>
  <path d="m1168.9 21.517c33.71-3.8 69.16 8.46 92.44 33.34 14.34 15.15 23.53 35.15 25.25 55.98 1.26 16.15-0.79 32.61-6.26 47.88-6.13 17.08-16.95 32.52-31.21 43.78-15.04 12.02-33.62 19.24-52.67 21.56-20.57 2.5-41.93 0.12-61.02-8.16-15.44-6.66-29.18-17.3-39.3-30.75-9.42-12.42-15.69-27.1-18.68-42.37-4.1-20.88-2.88-43.26 6.31-62.68 15.14-33.04 49.45-54.9 85.14-58.58m6.05 47.98c-18.11 1.99-34.95 13.53-43.03 29.91-7.09 13.87-5.85 30.7 0.13 44.73 6.54 15.41 20.56 27.51 36.96 31.19 16.4 3.92 34.54-0.56 47.11-11.83 14.82-13.03 21.79-34.28 17.9-53.56-5.81-25.81-33.07-43.81-59.07-40.44z"/>
  <path d="m365.41 27.177c16.6-0.01 33.19 0 49.79 0 0.05 24.62-0.02 49.23 0.03 73.85 23.9 0.03 47.8 0.01 71.7 0.01 0.06-24.61 0.01-49.23 0.03-73.84 16.6-0.04 33.21-0.05 49.82 0-0.02 63.83 0.01 127.65-0.02 191.47-16.6 0.02-33.19 0.01-49.79 0.01-0.04-26.14 0.01-52.28-0.02-78.42-23.91-0.02-47.82-0.04-71.73 0.01-0.01 26.13 0 52.26-0.01 78.39-16.6 0.03-33.2 0.02-49.8 0.01-0.02-63.83-0.03-127.66 0-191.49z"/>
  <path d="m767.02 27.197c23.47-0.06 46.95 0 70.43-0.03 16.57-0.32 34 2.12 48 11.6 10.97 7.25 18.44 19.15 20.98 31.99 3.49 17.15 1.3 36.29-9.31 50.64-7.3 10.09-18.76 16.67-30.94 18.86 19.04 24.89 38.15 49.72 57.19 74.6 0.83 0.98 1.73 1.91 2.7 2.8-0.64 0.52-1.28 1.03-1.93 1.51-2.85-0.72-5.78-0.5-8.67-0.49-16.01 0.02-32.02-0.04-48.03 0.03-1.26-0.2-3.1 0.46-3.79-0.98-15.61-24.36-31.03-48.84-46.75-73.12-0.16 24.68-0.01 49.37-0.07 74.06-16.6 0.01-33.2 0.01-49.8 0-0.03-63.82 0-127.65-0.01-191.47m49.82 85.76c9.39 0.1 19.24 0.13 27.9-4 5.32-2.47 9.41-7.42 10.64-13.18 1.98-8.57 0.31-19.06-7.32-24.42-9.08-6.22-20.65-6.04-31.2-5.99-0.05 15.86-0.02 31.73-0.02 47.59z"/>
  <path d="m925.96 27.197c25.5-0.03 51.01-0.06 76.52 0.02 17.8 0.26 36.78 4.89 49.61 17.98 13.64 13.88 16.92 35.03 13.6 53.58-2.8 16.13-13.23 31.2-28.49 37.75-3.86 1.76-7.97 2.84-12.1 3.73 20.02 26.15 40.1 52.25 60.11 78.41-20.67 0.03-41.33-0.01-62 0.02-15.85-24.66-31.46-49.47-47.37-74.08-0.17 24.68-0.01 49.37-0.08 74.06-14.44 0-28.88 0.04-43.32-0.02-1.98 0.1-4.18-0.38-5.92 0.78-0.86-5.17-0.51-10.4-0.56-15.61v-176.62m49.82 85.77c9.58 0.08 19.7 0.14 28.46-4.3 5.37-2.66 9.27-7.94 10.28-13.86 1.63-8.36-0.19-18.38-7.61-23.51-9.07-6.16-20.59-5.98-31.11-5.94-0.06 15.87-0.02 31.74-0.02 47.61z"/>
  <path d="m1296.4 27.167c18.35 0.02 36.7 0 55.05 0.01 17.17 0.06 34.99-1.15 51.29 5.36 14.69 5.31 26.97 17.31 31.47 32.4 5.48 18.29 4.02 39.54-7.08 55.5-7.27 10.6-19.07 17.59-31.64 19.82 20.03 26.14 40.1 52.25 60.11 78.41-20.67 0.02-41.33 0-62 0.01-15.85-24.66-31.45-49.46-47.37-74.07-0.22 24.68-0.03 49.37-0.09 74.05-16.6 0.03-33.2 0.02-49.8 0.01 0.02-63.84-0.11-127.67 0.06-191.5m49.75 38.21c-0.02 15.87-0.02 31.73 0 47.59 9.75 0.08 20.09 0.14 28.93-4.54 5.78-3 9.55-9.1 10.13-15.53 1.09-7.96-1.14-17.14-8.19-21.79-9.06-5.97-20.44-5.81-30.87-5.73z"/>
 </g>
</svg>
