<svg width="600pt" height="593.97pt" version="1.1" viewBox="0 0 600 593.97" xmlns="http://www.w3.org/2000/svg" xmlns:xlink="http://www.w3.org/1999/xlink">
 <defs>
  <linearGradient id="linearGradient847">
   <stop stop-color="#fbab1f" offset="0"/>
   <stop stop-color="#feb319" offset=".25977"/>
   <stop stop-color="#eebb3a" offset=".5074"/>
   <stop stop-color="#fdcc1b" offset=".75191"/>
   <stop stop-color="#f9da18" offset="1"/>
  </linearGradient>
  <linearGradient id="linearGradient867" x1="294.71" x2="622.14" y1="136.27" y2="136.27" gradientUnits="userSpaceOnUse" xlink:href="#linearGradient847"/>
  <linearGradient id="linearGradient914" x1="301.37" x2="607.15" y1="136.27" y2="136.27" gradientUnits="userSpaceOnUse" xlink:href="#linearGradient847"/>
 </defs>
 <g transform="matrix(1.8324 0 0 1.8324 -540.03 -30.096)" fill="url(#linearGradient867)">
  <path d="m523.23 17.25c13.99-2.16 28.62-0.08 41.33 6.2 24.28 11.72 40.56 36.96 43.48 63.5l11.18 74.74c2.01 13 4.41 26.32 1.74 39.42-2.25 12.69-9.62 24.39-20.34 31.6-15.1 10.4-33.86 13.18-51.78 14.1l-160.82 8.61c-7.7 0.28-15.41 1.09-23.1 0.44-18.42-1.44-36.29-9.39-49.59-22.23-12.11-11.56-20.41-27.67-20.62-44.61l0.04-75.05c-0.08-14.28 5.05-28.29 13.37-39.8 14.33-19.91 37.44-33.05 61.78-35.68zm-100.88 27.76c8.84 3.37 17.27 7.8 24.96 13.33-6.5 7.31-9.82 16.99-9.93 26.71-8.02-4.73-16.41-8.82-24.97-12.45-12.06-5.24-25.56-6.78-38.57-5.23-10.38 1.25-20.61 6.09-26.99 14.56-8.54 11-10.45 25.58-9.77 39.1l4.42 62.08c0.82 11.11 3.05 22.55 9.4 31.92 4.65 6.93 11.95 11.94 20.05 13.91 11.65 2.96 23.82 1 35.33-1.63 11.73-2.69 22.55-8.32 32.3-15.26 8.28 5.8 16.67 11.53 25.7 16.12-5.32 4.31-10.92 8.3-16.94 11.56 18.25-0.89 36.5-1.82 54.75-2.92-20.99-6.24-40.73-16.3-58.65-28.83l22.02-16.92c9.89 6.95 20.99 12 32.27 16.22 21.47 7.68 45.66 5.58 66.5-3.08 8.94-4.08 18.568-10.704 20.15-21.27 2.158-19.659-19.325-30.187-37.47-33.45-16.27-2.89-32.66-5.19-48.88-8.39-16.71-3.74-34.29-10.05-45.17-24.02-7.22-9.01-9.38-20.27-9.38-32.04-0.19-13.32 7.67-25.92 18.88-32.79 13.86-8.68 30.43-11.73 46.54-12.67 23.52-1.31 47.15 3.02 69.24 11-11.95-14.02-30.63-22.48-49.14-20.54zm65.96 24.27c-5.51 2.98-10.69 8.14-10.96 14.76 0 17.755 14.861 23.623 30.11 27.42 12.74 2.92 25.67 4.93 38.49 7.43 17.57 3.02 35.58 7.37 50.35 17.8l-7.9504-53.176c-25.45-12.238-47.377-19.231-74.41-19.144-8.71 0.09-17.76 0.87-25.63 4.91z" fill="url(#linearGradient914)"/>
 </g>
 <g transform="matrix(1.0932 0 0 1.0932 -359.49 444.8)" fill="#a5a5a4">
  <path d="m395.28 14.663v49.376h-23.908v-49.376h-26.334v120.06h26.334v-47.47h23.908v47.47h26.334v-120.06z"/>
  <path d="m462.8 134.72v-120.06h-26.334v120.06z"/>
  <path d="m493.94 16.09c8.28-3.24 17.44-3.44 26.16-2.39 9.41 1.25 18.96 6.03 23.51 14.72 4.36 7.51 4.2 16.445 4.18 24.845h-24.59c-0.09-4.78 0.72-10.045-2.06-14.265-3.45-5.03-10.84-5.42-15.99-3.06-5.18 2.46-6.1 9.26-4.26 14.15 2.24 5.19 7.68 7.75 12.25 10.53 10.02 5.32 20.56 10.39 28.37 18.87 5.98 6.55 7.4 15.9 7.1 24.47-0.21 9.41-4.12 19.13-11.87 24.82-7.87 5.97-18.09 7.61-27.74 7.51-8.51-0.27-17.56-1.59-24.46-6.99-6.88-5.6-10.6-14.42-11.09-23.17-0.14-3.86-0.03-7.715-0.04-11.575h24.74c0.11 5.29-0.84 11.245 2.49 15.815 3.61 4.91 10.74 5.18 16.08 3.44 6.69-2.26 7.67-11.06 4.9-16.66-2.67-4.91-8.06-7.27-12.65-9.98-10.2-5.4-21.44-10.17-28.54-19.71-5.58-7.51-6.71-17.36-5.66-26.43 1.46-10.87 8.87-20.93 19.17-24.94z"/>
  <path d="m622.58 14.663h-69.646v22.522h21.656v97.539h26.334v-97.539h21.656z"/>
  <path d="m704.59 44.692c0-9.3554-3.1185-17.729-9.3554-23.272-6.237-5.544-15.246-8.4892-27.027-8.4892-11.954 0-20.963 2.9452-27.027 8.4892-6.237 5.544-9.1822 13.917-9.1822 23.272v60.003c0 9.5287 2.9452 17.902 9.1822 23.446 6.0637 5.544 15.073 8.316 27.027 8.316 11.781 0 20.79-2.772 27.027-8.316s9.3554-13.917 9.3554-23.446zm-23.229 57.867c0 5.8905-6.2234 10.163-13.153 10.163-6.93 0-12.98-4.2722-12.98-10.163v-55.731c0-5.7172 6.0497-10.163 12.98-10.163 6.93 0 13.153 4.4454 13.153 10.163z"/>
  <path d="m747.22 37.186h9.816c6.93 0 10.395 2.9452 10.395 8.6624v15.419c0 5.8905-3.465 8.6624-10.395 8.6624h-9.816zm18.884 97.539h28.586l-17.152-47.124c9.5287-5.1975 14.38-14.033 14.38-26.161v-15.766c0-9.3554-3.1185-16.978-9.3554-22.522-6.237-5.544-15.246-8.4892-27.027-8.4892h-34.303v120.06h25.987v-42.273h6.1207z"/>
  <path d="m849.14 134.72v-44.749l28.586-75.313h-25.987l-15.419 47.617-15.419-47.617h-26.68l28.586 75.313v44.749z"/>
 </g>
</svg>
