<?xml version="1.0" encoding="UTF-8" standalone="no"?>
<!-- Created with Inkscape (http://www.inkscape.org/) -->

<svg
   xmlns:dc="http://purl.org/dc/elements/1.1/"
   xmlns:cc="http://creativecommons.org/ns#"
   xmlns:rdf="http://www.w3.org/1999/02/22-rdf-syntax-ns#"
   xmlns:svg="http://www.w3.org/2000/svg"
   xmlns="http://www.w3.org/2000/svg"
   xmlns:sodipodi="http://sodipodi.sourceforge.net/DTD/sodipodi-0.dtd"
   xmlns:inkscape="http://www.inkscape.org/namespaces/inkscape"
   width="5.1047888mm"
   height="1.813987mm"
   viewBox="0 0 5.1047888 1.8139871"
   version="1.1"
   id="svg97138"
   inkscape:version="0.92.0 r15299"
   sodipodi:docname="CS Mini.svg">
  <defs
     id="defs97132">
    <clipPath
       clipPathUnits="userSpaceOnUse"
       id="clipPath91182">
      <path
         d="m 18.444,454.458 h 15.305 v 6.059 H 18.444 Z"
         id="path91180"
         inkscape:connector-curvature="0" />
    </clipPath>
  </defs>
  <sodipodi:namedview
     id="base"
     pagecolor="#ffffff"
     bordercolor="#666666"
     borderopacity="1.0"
     inkscape:pageopacity="0.0"
     inkscape:pageshadow="2"
     inkscape:zoom="31.678384"
     inkscape:cx="5.1687168"
     inkscape:cy="9.1575513"
     inkscape:document-units="mm"
     inkscape:current-layer="layer1"
     showgrid="false"
     fit-margin-top="0"
     fit-margin-left="0"
     fit-margin-right="0"
     fit-margin-bottom="0"
     inkscape:window-width="1920"
     inkscape:window-height="1017"
     inkscape:window-x="-8"
     inkscape:window-y="-8"
     inkscape:window-maximized="1" />
  <metadata
     id="metadata97135">
    <rdf:RDF>
      <cc:Work
         rdf:about="">
        <dc:format>image/svg+xml</dc:format>
        <dc:type
           rdf:resource="http://purl.org/dc/dcmitype/StillImage" />
        <dc:title></dc:title>
      </cc:Work>
    </rdf:RDF>
  </metadata>
  <g
     inkscape:label="Layer 1"
     inkscape:groupmode="layer"
     id="layer1"
     transform="translate(-98.752151,-99.552303)">
    <path
       inkscape:connector-curvature="0"
       id="path91190"
       style="fill:#ee2629;fill-opacity:1;fill-rule:evenodd;stroke:none;stroke-width:0.35277778"
       d="m 98.920426,99.958351 c 0,-0.118533 0.07832,-0.197556 0.196497,-0.197556 h 1.617837 c 0.11818,0 0.19685,0.07902 0.19685,0.197556 v 1.002239 c 0,0.11854 -0.0787,0.19721 -0.19685,0.19721 h -1.617837 c -0.11818,0 -0.196497,-0.0787 -0.196497,-0.19721 z m -0.168275,-0.09772 v 1.197679 c 0,0.20355 0.105481,0.30798 0.31115,0.30798 h 1.754359 c 0.20567,0 0.31115,-0.10443 0.31115,-0.30798 v -1.197679 c 0,-0.203906 -0.10548,-0.308328 -0.31115,-0.308328 h -1.754359 c -0.205669,0 -0.31115,0.104422 -0.31115,0.308328 m 1.344439,0.155219 c -0.0335,0 -0.0649,0.006 -0.0946,0.019 -0.02963,0.0131 -0.05538,0.03 -0.0769,0.0519 -0.02152,0.0215 -0.03845,0.0469 -0.05115,0.0762 -0.01235,0.0293 -0.0187,0.0603 -0.0187,0.0928 v 0.0406 c 0,0.0335 0.0063,0.0646 0.01905,0.0935 0.01235,0.0289 0.02963,0.0547 0.05151,0.0769 0.02152,0.0222 0.04727,0.0399 0.07656,0.0522 0.0293,0.0127 0.0607,0.019 0.0942,0.019 h 0.35666 c 0.0226,0 0.0416,0.008 0.0568,0.0229 0.0148,0.0155 0.0222,0.0339 0.0222,0.0554 v 0.0198 c 0,0.0222 -0.007,0.0413 -0.0226,0.0572 -0.0155,0.0159 -0.0342,0.024 -0.0564,0.024 h -0.530935 v 0.18097 h 0.572915 c 0.0335,0 0.0649,-0.006 0.0938,-0.0187 0.0293,-0.0127 0.055,-0.03 0.0773,-0.0515 0.0226,-0.0219 0.0399,-0.0476 0.0526,-0.0773 0.0123,-0.0296 0.0187,-0.061 0.0187,-0.0938 v -0.0406 c 0,-0.0324 -0.006,-0.0635 -0.0187,-0.0928 -0.0127,-0.0293 -0.03,-0.0547 -0.0519,-0.0765 -0.0222,-0.0219 -0.048,-0.0392 -0.0776,-0.0519 -0.0293,-0.0123 -0.061,-0.019 -0.0942,-0.019 h -0.35631 c -0.0222,0 -0.0409,-0.007 -0.0564,-0.0229 -0.0155,-0.0155 -0.0233,-0.0342 -0.0233,-0.0568 v -0.0198 c 0,-0.0222 0.008,-0.0413 0.0233,-0.0564 0.0155,-0.0155 0.0342,-0.0229 0.0564,-0.0229 h 0.53199 v -0.18133 z m -0.723197,0.004 c -0.0381,0 -0.07373,0.007 -0.107245,0.0212 -0.03316,0.0141 -0.06209,0.0339 -0.08714,0.0593 -0.02434,0.025 -0.04374,0.054 -0.05821,0.0868 -0.01411,0.0332 -0.02152,0.0684 -0.02152,0.10619 v 0.3362 c 0,0.0384 0.0074,0.0744 0.02187,0.10759 0.01446,0.0332 0.03387,0.0621 0.05856,0.0864 0.02434,0.0243 0.05327,0.0437 0.08643,0.0586 0.03316,0.0148 0.06879,0.0222 0.107245,0.0222 h 0.421216 v -0.2039 h -0.379236 c -0.03104,0 -0.05715,-0.0109 -0.07902,-0.0325 -0.02152,-0.0215 -0.03246,-0.0483 -0.03246,-0.0804 v -0.25224 c 0,-0.0318 0.01094,-0.0582 0.03246,-0.0804 0.02152,-0.0219 0.04763,-0.0328 0.07902,-0.0328 h 0.379236 v -0.20214 z" />
    <path
       inkscape:connector-curvature="0"
       id="path91194"
       style="fill:#82cd2d;fill-opacity:1;fill-rule:evenodd;stroke:none;stroke-width:0.35277778"
       d="m 101.29515,100.43114 c 0,0 -0.007,-0.39829 0.16122,-0.19015 0.16827,0.20814 0.067,-7e-4 0.22613,-0.0681 0.0557,-0.0236 0.10901,-0.01 0.14958,0.008 0.0409,0.018 0.0734,0.0462 0.0984,0.0854 0.0233,-0.0582 0.0512,-0.10195 0.0836,-0.13017 0.0325,-0.0286 0.0751,-0.0487 0.12876,-0.06 0.0797,-0.0166 0.14852,-0.001 0.20603,0.0452 0.0575,0.0469 0.0991,0.12876 0.12453,0.24518 l 0.0854,0.38841 -0.29845,0.0628 -0.0748,-0.34113 c -0.007,-0.0339 -0.0187,-0.0575 -0.0332,-0.072 -0.0205,-0.0205 -0.0416,-0.0286 -0.0639,-0.024 -0.0279,0.006 -0.0476,0.0222 -0.0593,0.0497 -0.012,0.0275 -0.0116,0.0691 7.1e-4,0.12594 l 0.0653,0.29598 -0.2988,0.0628 -0.0709,-0.3242 c -0.008,-0.0346 -0.0145,-0.0575 -0.0201,-0.0684 -0.009,-0.0166 -0.0205,-0.0293 -0.0346,-0.0374 -0.0145,-0.008 -0.0296,-0.0106 -0.0455,-0.007 -0.0272,0.006 -0.0466,0.0226 -0.0589,0.0504 -0.0123,0.0279 -0.012,0.0716 10e-4,0.13124 l 0.0635,0.29033 -0.29845,0.0628 z" />
    <path
       inkscape:connector-curvature="0"
       id="path91198"
       style="fill:#fbc71a;fill-opacity:1;fill-rule:evenodd;stroke:none;stroke-width:0.35277778"
       d="m 102.55319,100.85765 0.18344,-0.0162 v -0.70167 c 0.0123,-0.0131 0.0233,-0.0282 0.0317,-0.0445 0.0219,0.0131 0.0473,0.0208 0.0748,0.0208 0.078,0 0.14111,-0.0624 0.14111,-0.139346 0,-0.07726 -0.0631,-0.1397 -0.14111,-0.1397 -0.0377,0 -0.072,0.01446 -0.0974,0.03845 -0.0374,-0.04586 -0.0946,-0.07514 -0.15875,-0.07514 -0.11289,0 -0.20461,0.09031 -0.20461,0.202146 0,0.0797 0.0473,0.14887 0.11535,0.18168 z" />
    <path
       inkscape:connector-curvature="0"
       id="path91202"
       style="fill:#ececed;fill-opacity:1;fill-rule:evenodd;stroke:none;stroke-width:0.35277778"
       d="m 102.43466,100.00601 c 0,0.0854 0.0699,0.15452 0.15593,0.15452 0.0709,0 0.13088,-0.0469 0.14993,-0.11148 0.019,0.0233 0.048,0.0378 0.0804,0.0378 0.0575,0 0.10407,-0.0462 0.10407,-0.103015 0,-0.0568 -0.0466,-0.102658 -0.10407,-0.102658 -0.0395,0 -0.0741,0.02187 -0.0917,0.05397 -0.0258,-0.04939 -0.0783,-0.08326 -0.13864,-0.08326 -0.0861,0 -0.15593,0.06879 -0.15593,0.154163" />
    <path
       inkscape:connector-curvature="0"
       id="path91206"
       style="fill:#050301;fill-opacity:1;fill-rule:evenodd;stroke:none;stroke-width:0.35277778"
       d="m 102.48669,100.00601 c 0,-0.0568 0.0466,-0.102658 0.10407,-0.102658 0.0575,0 0.10407,0.04586 0.10407,0.102658 0,0.0568 -0.0466,0.10301 -0.10407,0.10301 -0.0575,0 -0.10407,-0.0462 -0.10407,-0.10301" />
    <path
       inkscape:connector-curvature="0"
       id="path91210"
       style="fill:#050301;fill-opacity:1;fill-rule:evenodd;stroke:none;stroke-width:0.35277778"
       d="m 102.76147,99.983962 c 0,-0.03634 0.03,-0.06597 0.0667,-0.06597 0.037,0 0.067,0.02963 0.067,0.06597 0,0.03669 -0.03,0.06632 -0.067,0.06632 -0.0367,0 -0.0667,-0.0296 -0.0667,-0.06632" />
    <path
       inkscape:connector-curvature="0"
       id="path91214"
       style="fill:#050301;fill-opacity:1;fill-rule:evenodd;stroke:none;stroke-width:0.35277778"
       d="m 102.4082,99.820979 0.0325,0.08608 0.15733,-0.06244 -0.0226,-0.05433 z" />
    <path
       inkscape:connector-curvature="0"
       id="path91218"
       style="fill:#050301;fill-opacity:1;fill-rule:evenodd;stroke:none;stroke-width:0.35277778"
       d="m 102.91419,99.904517 0.009,-0.08784 -0.16898,-0.01482 -0.008,0.06174 z" />
    <path
       inkscape:connector-curvature="0"
       id="path91222"
       style="fill:#ee2629;fill-opacity:1;fill-rule:evenodd;stroke:none;stroke-width:0.35277778"
       d="m 102.86229,100.2732 c 0,0 0.1457,-0.362303 0.22013,-0.11359 0.0748,0.25011 0.0617,0.0233 0.23495,0.0198 0.0607,-0.001 0.10513,0.0307 0.13618,0.0617 0.031,0.0314 0.0508,0.0691 0.0589,0.11394 0.0444,-0.0448 -0.009,0.2466 -0.0194,0.30304 l -0.0543,0.29704 -0.30268,-0.0568 0.0596,-0.32244 c 0.006,-0.0346 0.009,-0.0579 0.008,-0.0699 -0.002,-0.0183 -0.007,-0.0342 -0.0176,-0.0469 -0.01,-0.0123 -0.0229,-0.0205 -0.0392,-0.0233 -0.0268,-0.005 -0.0515,0.003 -0.0734,0.0243 -0.0222,0.0208 -0.0388,0.0607 -0.0494,0.11924 l -0.0533,0.28787 -0.29633,-0.0554 z" />
    <path
       inkscape:connector-curvature="0"
       id="path91226"
       style="fill:#6dcfda;fill-opacity:1;fill-rule:evenodd;stroke:none;stroke-width:0.35277778"
       d="m 103.46756,100.26058 c 0,0.0628 0.03,0.11853 0.0769,0.15381 l 0.0384,0.48366 c 0,0 0.25964,-0.007 0.24518,-0.0289 -0.0102,-0.0152 -0.0497,-0.2854 -0.072,-0.43921 0.0603,-0.0328 0.1009,-0.0967 0.1009,-0.16933 0,-0.10689 -0.0871,-0.19332 -0.19474,-0.19332 -0.10759,0 -0.19473,0.0864 -0.19473,0.19332" />
    <path
       inkscape:connector-curvature="0"
       id="path91230"
       style="fill:#ececed;fill-opacity:1;fill-rule:evenodd;stroke:none;stroke-width:0.35277778"
       d="m 103.49638,100.25338 c 0,-0.079 0.0646,-0.14323 0.14429,-0.14323 0.0797,0 0.14428,0.0642 0.14428,0.14323 0,0.079 -0.0646,0.14323 -0.14428,0.14323 -0.0797,0 -0.14429,-0.0642 -0.14429,-0.14323" />
    <path
       inkscape:connector-curvature="0"
       id="path91234"
       style="fill:#050301;fill-opacity:1;fill-rule:evenodd;stroke:none;stroke-width:0.35277778"
       d="m 103.5259,100.21316 c 0,-0.0367 0.03,-0.066 0.0667,-0.066 0.0371,0 0.067,0.0293 0.067,0.066 0,0.0367 -0.03,0.066 -0.067,0.066 -0.0367,0 -0.0667,-0.0293 -0.0667,-0.066" />
    <path
       inkscape:connector-curvature="0"
       id="path91238"
       style="fill:#050301;fill-opacity:1;fill-rule:evenodd;stroke:none;stroke-width:0.35277778"
       d="m 102.91419,99.904517 0.009,-0.08784 -0.16898,-0.01482 -0.008,0.06174 z" />
  </g>
</svg>
