<svg height="5.237969mm" viewBox="0 0 10.711007 5.2379694" width="10.711007mm" xmlns="http://www.w3.org/2000/svg"><g transform="matrix(.01473653 0 0 .01472916 1.257656 1.454857)"><path d="m238.51052-78.484179c-14.11501 0-20.16772 4.85652-21.79453 13.923619h43.61298c-1.65073-9.067099-7.70344-13.923619-21.81845-13.923619" fill="#0e87d2"/><path d="m-79.648956-64.562952h58.302164c4.617283-6.626877 12.5599657-9.162794 27.4644582-10.741761 7.3685128-.789484 15.1915778-1.244035 22.2012348-1.507196v-21.961997c-14.784874.263161-33.0626145.909102-49.928854 2.248832-39.856958 3.205782-51.866677 9.210641-58.039003 31.962122" fill="#0e87d2"/><path d="m238.51052-38.758802c16.98586 0 22.29693-7.009657 22.29693-19.761013 0-2.17706-.14354-4.186655-.47848-6.052707h-43.61298c-.33493 1.866052-.5024 3.875647-.5024 6.052707 0 12.751356 5.31107 19.761013 22.29693 19.761013" fill="#8ad03a"/><path d="m-27.715292-42.077025c1.315806-10.526447 2.942621-17.607876 6.363716-22.488319h-58.302164c-1.004797 3.732104-1.866052 7.918759-2.655536 12.631736-1.220111 7.224971-1.985671 14.665256-2.440222 21.555294h55.933714c.263161-3.827799.622017-7.823064 1.100492-11.698711" fill="#8ad03a"/><path d="m-29.409093-13.244129c0-4.689054.143542-10.717837.57417-17.129401h-55.90979c-.430627 6.38764-.598093 12.296805-.598093 17.105477 0 4.8325965.167466 10.7178376.598093 17.1054772h55.90979c-.430628-6.3876396-.57417-12.4403469-.57417-17.0815532" fill="#f89a0f"/><path d="m-28.825354 3.8350321h-55.90979c.430628 6.9139619 1.220111 14.3542459 2.416298 21.5792169.813408 4.689054 1.650739 8.875709 2.67946 12.631737h58.302164c-3.421096-4.880444-5.04791-11.961872-6.363716-22.488319-.502399-3.899571-.861255-7.8709121-1.124416-11.7226349" fill="#f36717"/><path d="m238.51052 5.6245282c-16.98586 0-22.29693 7.0096568-22.29693 19.9763258 0 5.071834.86126 9.258489 2.94262 12.440347h38.70862c2.10529-3.181858 2.94262-7.368513 2.94262-12.440347 0-12.966669-5.31107-19.9763258-22.29693-19.9763258" fill="#f36717"/><path d="m238.51052 45.340336c10.19151 0 16.19637-2.535917 19.35431-7.296742h-38.70862c3.15794 4.760825 9.1628 7.296742 19.35431 7.296742" fill="#ed1c24"/><path d="m6.1057048 48.768608c-14.8805688-1.602891-22.7993278-4.138808-27.4405348-10.741761h-58.326087c6.172326 22.75148 18.182045 28.780264 58.062926 31.962122 16.8662398 1.33973 35.120056 2.009594 49.928854 2.248832v-21.961997c-7.009657-.239238-14.856645-.717712-22.2251582-1.507196" fill="#ed1c24"/><path d="m336.84907-86.869451h-51.60352v22.296929h114.16411c-13.87577-14.689178-35.52676-22.296929-62.56059-22.296929" fill="#0e87d2"/><path d="m75.953468-75.314283c14.904493 1.602891 22.823252 4.138808 27.464462 10.741761h58.30216c-6.1484-22.75148-18.18205-28.75634-58.039-31.962122-16.866242-1.315806-35.120059-1.985671-49.928856-2.224908v21.938073c7.009657.263161 14.856645.717712 22.201234 1.507196" fill="#0e87d2"/><path d="m109.78882-42.077025c.5024 3.875647.86125 7.870912 1.10049 11.698711h55.93372c-.45456-6.890038-1.22012-14.330323-2.44023-21.555294-.78948-4.712977-1.65073-8.899632-2.65553-12.631736h-58.30217c3.4211 4.880443 5.04791 11.961872 6.36372 22.488319" fill="#50be37"/><path d="m325.58817-30.36396v-26.77067h14.23463c18.1342 0 29.9286 9.521243 33.82817 26.770262l41.81871.000408c-2.17706-13.899695-7.70345-25.335245-16.05284-34.210954l-114.1641-.000454v34.211408z" fill="#8ad03a"/><path d="m375.07922-16.579099c0 7.8709118-1.19619 14.7128795-3.44502 20.4067305h42.51249c1.53112-6.2440972 2.34453-13.0382173 2.34453-20.4067305 0-4.832596-.33493-9.425955-1.02872-13.804l-41.8187-.000269c.95695 4.162731 1.43542 8.780283 1.43542 13.804269" fill="#f7961d"/><path d="m110.90127 3.8350321h55.93371c.40671-6.3637159.57417-12.2728807.57417-17.1054771 0-4.808672-.16746-10.717837-.57417-17.105477h-55.93371c.43063 6.411564.57417 12.440347.57417 17.129401 0 4.6412062-.14354 10.6939135-.57417 17.0815531" fill="#f89a0f"/><path d="m325.59056-30.35439h-40.35936v34.1870297h40.35936z" fill="#f89a0f"/><path d="m339.8204 23.997964h-14.23463v-20.1677162h-40.35935v34.2109542h106.81951c10.88531-8.253692 18.49306-19.713165 22.08162-34.2109542h-42.48857c-5.21538 13.0623642-16.14853 20.1677162-31.81858 20.1677162" fill="#f25b23"/><path d="m166.8302 3.8350321h-55.93371c-.26316 3.8517228-.62202 7.8230639-1.1005 11.7226349-1.33973 10.526447-2.96654 17.607875-6.38764 22.488319h58.30217c1.02872-3.756028 1.88997-7.942683 2.67946-12.631737 1.22011-7.224971 1.98567-14.665255 2.44022-21.5792169" fill="#f36717"/><path d="m161.72487 38.036417h-58.30216c-4.64121 6.602953-12.55997 9.13887-27.464462 10.741761-7.368513.789484-15.191578 1.244035-22.201235 1.507196v21.961997c14.808798-.263161 33.062615-.909102 49.928857-2.248832 39.85695-3.205782 51.86667-9.210641 58.039-31.962122" fill="#ee2533"/><path d="m285.23838 53.735177h51.60352c22.63186 0 41.50769-5.334995 55.19207-15.693976h-106.79559z" fill="#ed1c24"/><g transform="translate(-209.25799)"><path d="m2902.0195 44.878906v84.304684h80.4082v-84.304684zm202.9375 0v84.304684h80.4102v-84.304684zm148.1992.0039v84.300774h80.4961v-24.43358h34.5489c27.1527 0 48.7768 8.50477 63.6797 24.43359h92.0839c-25.2427-55.329367-83.0931-84.300777-161.3359-84.300778z" fill="#0e87d2" stroke-width="3.779527" transform="matrix(.26458333 0 0 .26458333 -85.342807 -98.752375)"/><path d="m682.48319-30.383423v25.4051692h21.27518v-25.4051692zm53.69388 0v25.4051692h21.27517v-25.4051692zm39.21104 0v25.4051692h28.96515c21.97717 0 37.96345-8.8660342 43.88104-25.4051692h-23.20014c-3.83403 6.203635-10.42871 9.56324-19.20709 9.563242h-9.14103v-9.563242z" fill="#f7961d"/><path d="m682.48319-64.575133v34.210831h21.2752v-10.118246h32.41868v10.118246h21.2752v-34.210831h-21.2752v8.250658h-32.41868v-8.250658zm92.90492 0v34.210831h21.29793v-34.210831zm47.28498 0c4.00762 4.281818 6.17895 10.591591 6.17895 18.634522 0 6.303801-1.33056 11.542366-3.82974 15.576309h23.20531c1.65037-4.605052 2.52076-9.805225 2.52076-15.575277 0-7.106444-1.28838-13.329044-3.70985-18.635554z" fill="#8ad03a"/></g></g><g transform="matrix(.01389948 0 0 .01389948 .000002 2.861395)"><g fill="#888b8c" transform="matrix(.90932104 0 0 .90932104 87.018204 338.27261)"><path d="m-92.354-320.53c-2.5823 15.266-3.3418 31.494-3.3418 42.532s.75949 27.266 3.3418 42.532c6.2025 36.633 15.722 44.937 66.759 49.013 18.532 1.4937 38.608 2.2025 54.886 2.481v-24.152c-7.7215-.27848-16.329-.78481-24.405-1.6456-28.456-3.038-33.772-9.2152-37.215-36.557-1.443-11.342-1.8734-23.443-1.8734-31.646 0-8.2278.43038-20.329 1.8734-31.722 3.443-27.316 8.7595-33.494 37.215-36.532 8.0759-.86076 16.684-1.3671 24.405-1.6456v-24.127c-16.278.25317-36.354.98735-54.886 2.4557-51.038 4.076-60.557 12.354-66.759 49.013"/><path d="m112.16-369.55c-18.532-1.4684-38.608-2.2025-54.886-2.4557v24.127c7.6962.27848 16.329.78481 24.405 1.6456 28.456 3.038 33.772 9.2152 37.215 36.557 1.4177 11.392 1.8481 23.468 1.8481 31.696 0 8.2025-.43038 20.304-1.8481 31.671-3.443 27.316-8.7595 33.494-37.215 36.532-8.0759.86076-16.709 1.3924-24.405 1.6709v24.127c16.278-.25316 36.354-.98734 54.886-2.4557 51.038-4.1013 60.557-12.38 66.759-49.038 2.557-15.266 3.3165-31.494 3.3165-42.532 0-11.013-.75949-27.266-3.3165-42.532-6.2025-36.633-15.722-44.911-66.759-49.013"/><path d="m501.72-255.45c-15.19 2.5823-21.468.37975-21.468-7.9494v-41.468h22.203v-24.076h-22.203v-23.671h-29.62l-3.6962 23.671-14.81 1.8734v22.203h14.81v45.165c0 34.608 30.911 36.835 57.367 27.772l-2.5823-23.519z"/><path d="m383.38-314.3-2.4051-14.633h-31.468v98.861h33.316v-55.899c9.8228-12.785 19.24-16.861 37.772-14.633l2.5823-30.734c-18.152-1.6456-33.873 6.1266-39.797 17.038"/><path d="m281.84-331.7c-15.924 0-32.759 3.6962-44.228 10.177l2.5823 23.316c13.519-5.1646 27.013-6.6582 36.101-6.6582 10.734 0 17.215 3.3418 17.215 11.114v3.1392c-31.114-7.038-62.38 2.0506-62.38 32.582 0 18.127 13.873 30.709 31.646 30.709 12.582 0 22.582-3.6962 30.734-10.911l1.8481 8.1519h31.468v-67.013c0-25.899-21.468-34.608-44.987-34.608m11.671 72.557c-3.519 4.2532-10.557 7.9494-16.304 7.9494-6.6582 0-11.848-3.1392-11.848-9.0633 0-9.0633 9.443-13.873 28.152-9.443v10.557z"/></g><path d="m656.03326 58.267129v35.504001h21.275v-81.900001h-21.275v30.554h-32.419v-30.554h-21.275v81.900001h21.275v-35.504001zm39.211 35.504001h28.965c28.09 0 46.395-14.483001 46.395-40.961001 0-26.709-18.19-40.938-46.395-40.938h-28.965v81.900001zm21.298-66.059001h9.1409c14.483 0 23.025 9.1409 23.025 25.097 0 15.979-8.5422 25.12-23.025 25.12h-9.1409z" fill="#888b8c"/></g></svg>