<svg width="7.4mm" height="5.1828mm" version="1.1" viewBox="0 0 7.4 5.1828" xmlns="http://www.w3.org/2000/svg">
 <defs>
  <clipPath id="a">
   <path d="m289.4 673.76h20.976v7.147h-20.976z"/>
  </clipPath>
 </defs>
 <g transform="translate(85.343 -69.71)">
  <g transform="matrix(.35278 0 0 -.35278 -187.44 309.92)">
   <g clip-path="url(#a)">
    <g transform="translate(302.94 680.06)">
     <path d="M 0,0 C -0.59,0 -0.843,-0.203 -0.911,-0.582 H 0.912 C 0.843,-0.203 0.59,0 0,0" fill="#0e87d2"/>
    </g>
    <g transform="translate(289.64 679.48)">
     <path d="M 0,0 H 2.437 C 2.63,0.277 2.962,0.383 3.585,0.449 3.893,0.482 4.22,0.501 4.513,0.512 V 1.43 C 3.895,1.419 3.131,1.392 2.426,1.336 0.76,1.202 0.258,0.951 0,0" fill="#0e87d2"/>
    </g>
    <g transform="translate(302.94 678.4)">
     <path d="m0 0c0.71 0 0.932 0.293 0.932 0.826 0 0.091-6e-3 0.175-0.02 0.253h-1.823c-0.014-0.078-0.021-0.162-0.021-0.253 0-0.533 0.222-0.826 0.932-0.826" fill="#8ad03a"/>
    </g>
    <g transform="translate(291.81 678.54)">
     <path d="m0 0c0.055 0.44 0.123 0.736 0.266 0.94h-2.437c-0.042-0.156-0.078-0.331-0.111-0.528-0.051-0.302-0.083-0.613-0.102-0.901h2.338c0.011 0.16 0.026 0.327 0.046 0.489" fill="#8ad03a"/>
    </g>
    <g transform="translate(291.74 677.34)">
     <path d="m0 0c0 0.196 6e-3 0.448 0.024 0.716h-2.337c-0.018-0.267-0.025-0.514-0.025-0.715 0-0.202 7e-3 -0.448 0.025-0.715h2.337c-0.018 0.267-0.024 0.52-0.024 0.714" fill="#f89a0f"/>
    </g>
    <g transform="translate(291.77 676.62)">
     <path d="m0 0h-2.337c0.018-0.289 0.051-0.6 0.101-0.902 0.034-0.196 0.069-0.371 0.112-0.528h2.437c-0.143 0.204-0.211 0.5-0.266 0.94-0.021 0.163-0.036 0.329-0.047 0.49" fill="#f36717"/>
    </g>
    <g transform="translate(302.94 676.55)">
     <path d="m0 0c-0.71 0-0.932-0.293-0.932-0.835 0-0.212 0.036-0.387 0.123-0.52h1.618c0.088 0.133 0.123 0.308 0.123 0.52 0 0.542-0.222 0.835-0.932 0.835" fill="#f36717"/>
    </g>
    <g transform="translate(302.94 674.89)">
     <path d="M 0,0 C 0.426,0 0.677,0.106 0.809,0.305 H -0.809 C -0.677,0.106 -0.426,0 0,0" fill="#ed1c24"/>
    </g>
    <g transform="translate(293.23 674.75)">
     <path d="m0 0c-0.622 0.067-0.953 0.173-1.147 0.449h-2.438c0.258-0.951 0.76-1.203 2.427-1.336 0.705-0.056 1.468-0.084 2.087-0.094v0.918c-0.293 0.01-0.621 0.03-0.929 0.063" fill="#ed1c24"/>
    </g>
    <g transform="translate(307.05 680.42)">
     <path d="M 0,0 H -2.157 V -0.932 H 2.615 C 2.035,-0.318 1.13,0 0,0" fill="#0e87d2"/>
    </g>
    <g transform="translate(296.15 679.93)">
     <path d="m0 0c0.623-0.067 0.954-0.173 1.148-0.449h2.437c-0.257 0.951-0.76 1.202-2.426 1.336-0.705 0.055-1.468 0.083-2.087 0.093v-0.917c0.293-0.011 0.621-0.03 0.928-0.063" fill="#0e87d2"/>
    </g>
    <g transform="translate(297.56 678.54)">
     <path d="m0 0c0.021-0.162 0.036-0.329 0.046-0.489h2.338c-0.019 0.288-0.051 0.599-0.102 0.901-0.033 0.197-0.069 0.372-0.111 0.528h-2.437c0.143-0.204 0.211-0.5 0.266-0.94" fill="#50be37"/>
    </g>
    <g transform="translate(306.58 678.05)">
     <path d="m0 0v1.119h0.595c0.758 0 1.251-0.398 1.414-1.119h1.748c-0.091 0.581-0.322 1.059-0.671 1.43h-4.772v-1.43z" fill="#8ad03a"/>
    </g>
    <g transform="translate(308.65 677.48)">
     <path d="m0 0c0-0.329-0.05-0.615-0.144-0.853h1.777c0.064 0.261 0.098 0.545 0.098 0.853 0 0.202-0.014 0.394-0.043 0.577h-1.748c0.04-0.174 0.06-0.367 0.06-0.577" fill="#f7961d"/>
    </g>
    <g transform="translate(297.61 676.62)">
     <path d="m0 0h2.338c0.017 0.266 0.024 0.513 0.024 0.715 0 0.201-7e-3 0.448-0.024 0.715h-2.338c0.018-0.268 0.024-0.52 0.024-0.716 0-0.194-6e-3 -0.447-0.024-0.714" fill="#f89a0f"/>
    </g>
    <path d="m306.58 678.05h-1.687v-1.429h1.687z" fill="#f89a0f"/>
    <g transform="translate(307.18 675.78)">
     <path d="m0 0h-0.595v0.843h-1.687v-1.43h4.465c0.455 0.345 0.773 0.824 0.923 1.43h-1.776c-0.218-0.546-0.675-0.843-1.33-0.843" fill="#f25b23"/>
    </g>
    <g transform="translate(299.94 676.62)">
     <path d="m0 0h-2.338c-0.011-0.161-0.026-0.327-0.046-0.49-0.056-0.44-0.124-0.736-0.267-0.94h2.437c0.043 0.157 0.079 0.332 0.112 0.528 0.051 0.302 0.083 0.613 0.102 0.902" fill="#f36717"/>
    </g>
    <g transform="translate(299.73 675.19)">
     <path d="m0 0h-2.437c-0.194-0.276-0.525-0.382-1.148-0.449-0.308-0.033-0.635-0.052-0.928-0.063v-0.918c0.619 0.011 1.382 0.038 2.087 0.094 1.666 0.134 2.168 0.385 2.426 1.336" fill="#ee2533"/>
    </g>
    <g transform="translate(304.89 674.54)">
     <path d="m0 0h2.157c0.946 0 1.735 0.223 2.307 0.656h-4.464z" fill="#ed1c24"/>
    </g>
   </g>
  </g>
  <g transform="matrix(.012333 0 0 .012333 -84.163 77.161)" fill="#888b8c">
   <path d="m-92.354-320.53c-2.5823 15.266-3.3418 31.494-3.3418 42.532s0.75949 27.266 3.3418 42.532c6.2025 36.633 15.722 44.937 66.759 49.013 18.532 1.4937 38.608 2.2025 54.886 2.481v-24.152c-7.7215-0.27848-16.329-0.78481-24.405-1.6456-28.456-3.038-33.772-9.2152-37.215-36.557-1.443-11.342-1.8734-23.443-1.8734-31.646 0-8.2278 0.43038-20.329 1.8734-31.722 3.443-27.316 8.7595-33.494 37.215-36.532 8.0759-0.86076 16.684-1.3671 24.405-1.6456v-24.127c-16.278 0.25317-36.354 0.98735-54.886 2.4557-51.038 4.076-60.557 12.354-66.759 49.013"/>
   <path d="m112.16-369.55c-18.532-1.4684-38.608-2.2025-54.886-2.4557v24.127c7.6962 0.27848 16.329 0.78481 24.405 1.6456 28.456 3.038 33.772 9.2152 37.215 36.557 1.4177 11.392 1.8481 23.468 1.8481 31.696 0 8.2025-0.43038 20.304-1.8481 31.671-3.443 27.316-8.7595 33.494-37.215 36.532-8.0759 0.86076-16.709 1.3924-24.405 1.6709v24.127c16.278-0.25316 36.354-0.98734 54.886-2.4557 51.038-4.1013 60.557-12.38 66.759-49.038 2.557-15.266 3.3165-31.494 3.3165-42.532 0-11.013-0.75949-27.266-3.3165-42.532-6.2025-36.633-15.722-44.911-66.759-49.013"/>
   <path d="m501.72-255.45c-15.19 2.5823-21.468 0.37975-21.468-7.9494v-41.468h22.203v-24.076h-22.203v-23.671h-29.62l-3.6962 23.671-14.81 1.8734v22.203h14.81v45.165c0 34.608 30.911 36.835 57.367 27.772l-2.5823-23.519z"/>
   <path d="m383.38-314.3-2.4051-14.633h-31.468v98.861h33.316v-55.899c9.8228-12.785 19.24-16.861 37.772-14.633l2.5823-30.734c-18.152-1.6456-33.873 6.1266-39.797 17.038"/>
   <path d="m281.84-331.7c-15.924 0-32.759 3.6962-44.228 10.177l2.5823 23.316c13.519-5.1646 27.013-6.6582 36.101-6.6582 10.734 0 17.215 3.3418 17.215 11.114v3.1392c-31.114-7.038-62.38 2.0506-62.38 32.582 0 18.127 13.873 30.709 31.646 30.709 12.582 0 22.582-3.6962 30.734-10.911l1.8481 8.1519h31.468v-67.013c0-25.899-21.468-34.608-44.987-34.608m11.671 72.557c-3.519 4.2532-10.557 7.9494-16.304 7.9494-6.6582 0-11.848-3.1392-11.848-9.0633 0-9.0633 9.443-13.873 28.152-9.443v10.557z"/>
  </g>
 </g>
</svg>
