<?xml version="1.0" encoding="UTF-8" standalone="no"?>
<!-- Created with Inkscape (http://www.inkscape.org/) -->

<svg
   xmlns:dc="http://purl.org/dc/elements/1.1/"
   xmlns:cc="http://creativecommons.org/ns#"
   xmlns:rdf="http://www.w3.org/1999/02/22-rdf-syntax-ns#"
   xmlns:svg="http://www.w3.org/2000/svg"
   xmlns="http://www.w3.org/2000/svg"
   xmlns:sodipodi="http://sodipodi.sourceforge.net/DTD/sodipodi-0.dtd"
   xmlns:inkscape="http://www.inkscape.org/namespaces/inkscape"
   width="7.399796mm"
   height="2.5213027mm"
   viewBox="0 0 7.399796 2.5213027"
   version="1.1"
   id="svg49942"
   inkscape:version="0.92.0 r15299"
   sodipodi:docname="CT D.svg">
  <defs
     id="defs49936">
    <clipPath
       clipPathUnits="userSpaceOnUse"
       id="clipPath84704">
      <path
         d="m 289.404,673.765 h 20.976 v 7.147 h -20.976 z"
         id="path84702"
         inkscape:connector-curvature="0" />
    </clipPath>
  </defs>
  <sodipodi:namedview
     id="base"
     pagecolor="#ffffff"
     bordercolor="#666666"
     borderopacity="1.0"
     inkscape:pageopacity="0.0"
     inkscape:pageshadow="2"
     inkscape:zoom="31.678384"
     inkscape:cx="9.4419122"
     inkscape:cy="0.24219749"
     inkscape:document-units="mm"
     inkscape:current-layer="layer1"
     showgrid="false"
     fit-margin-top="0"
     fit-margin-left="0"
     fit-margin-right="0"
     fit-margin-bottom="0"
     inkscape:window-width="1920"
     inkscape:window-height="1017"
     inkscape:window-x="-8"
     inkscape:window-y="-8"
     inkscape:window-maximized="1" />
  <metadata
     id="metadata49939">
    <rdf:RDF>
      <cc:Work
         rdf:about="">
        <dc:format>image/svg+xml</dc:format>
        <dc:type
           rdf:resource="http://purl.org/dc/dcmitype/StillImage" />
        <dc:title></dc:title>
      </cc:Work>
    </rdf:RDF>
  </metadata>
  <g
     inkscape:label="Layer 1"
     inkscape:groupmode="layer"
     id="layer1"
     transform="translate(85.342752,-69.709583)">
    <g
       transform="matrix(0.35277777,0,0,-0.35277777,-187.43812,309.9202)"
       id="g84698">
      <g
         id="g84700"
         clip-path="url(#clipPath84704)">
        <g
           id="g84706"
           transform="translate(302.9411,680.0648)">
          <path
             d="M 0,0 C -0.59,0 -0.843,-0.203 -0.911,-0.582 H 0.912 C 0.843,-0.203 0.59,0 0,0"
             style="fill:#0e87d2;fill-opacity:1;fill-rule:nonzero;stroke:none"
             id="path84708"
             inkscape:connector-curvature="0" />
        </g>
        <g
           id="g84710"
           transform="translate(289.6422,679.4829)">
          <path
             d="M 0,0 H 2.437 C 2.63,0.277 2.962,0.383 3.585,0.449 3.893,0.482 4.22,0.501 4.513,0.512 V 1.43 C 3.895,1.419 3.131,1.392 2.426,1.336 0.76,1.202 0.258,0.951 0,0"
             style="fill:#0e87d2;fill-opacity:1;fill-rule:nonzero;stroke:none"
             id="path84712"
             inkscape:connector-curvature="0" />
        </g>
        <g
           id="g84714"
           transform="translate(302.9411,678.4043)">
          <path
             d="m 0,0 c 0.71,0 0.932,0.293 0.932,0.826 0,0.091 -0.006,0.175 -0.02,0.253 H -0.911 C -0.925,1.001 -0.932,0.917 -0.932,0.826 -0.932,0.293 -0.71,0 0,0"
             style="fill:#8ad03a;fill-opacity:1;fill-rule:nonzero;stroke:none"
             id="path84716"
             inkscape:connector-curvature="0" />
        </g>
        <g
           id="g84718"
           transform="translate(291.813,678.543)">
          <path
             d="M 0,0 C 0.055,0.44 0.123,0.736 0.266,0.94 H -2.171 C -2.213,0.784 -2.249,0.609 -2.282,0.412 -2.333,0.11 -2.365,-0.201 -2.384,-0.489 h 2.338 C -0.035,-0.329 -0.02,-0.162 0,0"
             style="fill:#8ad03a;fill-opacity:1;fill-rule:nonzero;stroke:none"
             id="path84720"
             inkscape:connector-curvature="0" />
        </g>
        <g
           id="g84722"
           transform="translate(291.7422,677.3378)">
          <path
             d="M 0,0 C 0,0.196 0.006,0.448 0.024,0.716 H -2.313 C -2.331,0.449 -2.338,0.202 -2.338,0.001 c 0,-0.202 0.007,-0.448 0.025,-0.715 H 0.024 C 0.006,-0.447 0,-0.194 0,0"
             style="fill:#f89a0f;fill-opacity:1;fill-rule:nonzero;stroke:none"
             id="path84724"
             inkscape:connector-curvature="0" />
        </g>
        <g
           id="g84726"
           transform="translate(291.7666,676.6239)">
          <path
             d="m 0,0 h -2.337 c 0.018,-0.289 0.051,-0.6 0.101,-0.902 0.034,-0.196 0.069,-0.371 0.112,-0.528 H 0.313 C 0.17,-1.226 0.102,-0.93 0.047,-0.49 0.026,-0.327 0.011,-0.161 0,0"
             style="fill:#f36717;fill-opacity:1;fill-rule:nonzero;stroke:none"
             id="path84728"
             inkscape:connector-curvature="0" />
        </g>
        <g
           id="g84730"
           transform="translate(302.9411,676.5491)">
          <path
             d="m 0,0 c -0.71,0 -0.932,-0.293 -0.932,-0.835 0,-0.212 0.036,-0.387 0.123,-0.52 h 1.618 c 0.088,0.133 0.123,0.308 0.123,0.52 C 0.932,-0.293 0.71,0 0,0"
             style="fill:#f36717;fill-opacity:1;fill-rule:nonzero;stroke:none"
             id="path84732"
             inkscape:connector-curvature="0" />
        </g>
        <g
           id="g84734"
           transform="translate(302.9411,674.889)">
          <path
             d="M 0,0 C 0.426,0 0.677,0.106 0.809,0.305 H -0.809 C -0.677,0.106 -0.426,0 0,0"
             style="fill:#ed1c24;fill-opacity:1;fill-rule:nonzero;stroke:none"
             id="path84736"
             inkscape:connector-curvature="0" />
        </g>
        <g
           id="g84738"
           transform="translate(293.2267,674.7457)">
          <path
             d="m 0,0 c -0.622,0.067 -0.953,0.173 -1.147,0.449 h -2.438 c 0.258,-0.951 0.76,-1.203 2.427,-1.336 0.705,-0.056 1.468,-0.084 2.087,-0.094 v 0.918 C 0.636,-0.053 0.308,-0.033 0,0"
             style="fill:#ed1c24;fill-opacity:1;fill-rule:nonzero;stroke:none"
             id="path84740"
             inkscape:connector-curvature="0" />
        </g>
        <g
           id="g84742"
           transform="translate(307.0516,680.4153)">
          <path
             d="M 0,0 H -2.157 V -0.932 H 2.615 C 2.035,-0.318 1.13,0 0,0"
             style="fill:#0e87d2;fill-opacity:1;fill-rule:nonzero;stroke:none"
             id="path84744"
             inkscape:connector-curvature="0" />
        </g>
        <g
           id="g84746"
           transform="translate(296.1463,679.9323)">
          <path
             d="M 0,0 C 0.623,-0.067 0.954,-0.173 1.148,-0.449 H 3.585 C 3.328,0.502 2.825,0.753 1.159,0.887 0.454,0.942 -0.309,0.97 -0.928,0.98 V 0.063 C -0.635,0.052 -0.307,0.033 0,0"
             style="fill:#0e87d2;fill-opacity:1;fill-rule:nonzero;stroke:none"
             id="path84748"
             inkscape:connector-curvature="0" />
        </g>
        <g
           id="g84750"
           transform="translate(297.5606,678.543)">
          <path
             d="M 0,0 C 0.021,-0.162 0.036,-0.329 0.046,-0.489 H 2.384 C 2.365,-0.201 2.333,0.11 2.282,0.412 2.249,0.609 2.213,0.784 2.171,0.94 H -0.266 C -0.123,0.736 -0.055,0.44 0,0"
             style="fill:#50be37;fill-opacity:1;fill-rule:nonzero;stroke:none"
             id="path84752"
             inkscape:connector-curvature="0" />
        </g>
        <g
           id="g84754"
           transform="translate(306.5809,678.0534)">
          <path
             d="M 0,0 V 1.119 H 0.595 C 1.353,1.119 1.846,0.721 2.009,0 H 3.757 C 3.666,0.581 3.435,1.059 3.086,1.43 H -1.686 V 0 Z"
             style="fill:#8ad03a;fill-opacity:1;fill-rule:nonzero;stroke:none"
             id="path84756"
             inkscape:connector-curvature="0" />
        </g>
        <g
           id="g84758"
           transform="translate(308.6496,677.4772)">
          <path
             d="M 0,0 C 0,-0.329 -0.05,-0.615 -0.144,-0.853 H 1.633 C 1.697,-0.592 1.731,-0.308 1.731,0 1.731,0.202 1.717,0.394 1.688,0.577 H -0.06 C -0.02,0.403 0,0.21 0,0"
             style="fill:#f7961d;fill-opacity:1;fill-rule:nonzero;stroke:none"
             id="path84760"
             inkscape:connector-curvature="0" />
        </g>
        <g
           id="g84762"
           transform="translate(297.6071,676.6239)">
          <path
             d="m 0,0 h 2.338 c 0.017,0.266 0.024,0.513 0.024,0.715 0,0.201 -0.007,0.448 -0.024,0.715 H 0 C 0.018,1.162 0.024,0.91 0.024,0.714 0.024,0.52 0.018,0.267 0,0"
             style="fill:#f89a0f;fill-opacity:1;fill-rule:nonzero;stroke:none"
             id="path84764"
             inkscape:connector-curvature="0" />
        </g>
        <path
           d="m 306.581,678.053 h -1.687 v -1.429 h 1.687 z"
           style="fill:#f89a0f;fill-opacity:1;fill-rule:nonzero;stroke:none"
           id="path84766"
           inkscape:connector-curvature="0" />
        <g
           id="g84768"
           transform="translate(307.1758,675.7811)">
          <path
             d="m 0,0 h -0.595 v 0.843 h -1.687 v -1.43 h 4.465 c 0.455,0.345 0.773,0.824 0.923,1.43 H 1.33 C 1.112,0.297 0.655,0 0,0"
             style="fill:#f25b23;fill-opacity:1;fill-rule:nonzero;stroke:none"
             id="path84770"
             inkscape:connector-curvature="0" />
        </g>
        <g
           id="g84772"
           transform="translate(299.9449,676.6239)">
          <path
             d="M 0,0 H -2.338 C -2.349,-0.161 -2.364,-0.327 -2.384,-0.49 -2.44,-0.93 -2.508,-1.226 -2.651,-1.43 h 2.437 c 0.043,0.157 0.079,0.332 0.112,0.528 C -0.051,-0.6 -0.019,-0.289 0,0"
             style="fill:#f36717;fill-opacity:1;fill-rule:nonzero;stroke:none"
             id="path84774"
             inkscape:connector-curvature="0" />
        </g>
        <g
           id="g84776"
           transform="translate(299.7315,675.1943)">
          <path
             d="M 0,0 H -2.437 C -2.631,-0.276 -2.962,-0.382 -3.585,-0.449 -3.893,-0.482 -4.22,-0.501 -4.513,-0.512 V -1.43 c 0.619,0.011 1.382,0.038 2.087,0.094 C -0.76,-1.202 -0.258,-0.951 0,0"
             style="fill:#ee2533;fill-opacity:1;fill-rule:nonzero;stroke:none"
             id="path84778"
             inkscape:connector-curvature="0" />
        </g>
        <g
           id="g84780"
           transform="translate(304.8943,674.5381)">
          <path
             d="M 0,0 H 2.157 C 3.103,0 3.892,0.223 4.464,0.656 H 0 Z"
             style="fill:#ed1c24;fill-opacity:1;fill-rule:nonzero;stroke:none"
             id="path84782"
             inkscape:connector-curvature="0" />
        </g>
      </g>
    </g>
  </g>
</svg>
