<?xml version="1.0" encoding="UTF-8"?>
<!-- Created with Inkscape (http://www.inkscape.org/) -->
<svg id="svg49942" width="7.3998mm" height="2.5213mm" version="1.1" viewBox="0 0 7.3998 2.5213" xmlns="http://www.w3.org/2000/svg" xmlns:cc="http://creativecommons.org/ns#" xmlns:dc="http://purl.org/dc/elements/1.1/" xmlns:rdf="http://www.w3.org/1999/02/22-rdf-syntax-ns#">
 <defs id="defs49936">
  <clipPath id="clipPath84704">
   <path id="path84702" d="m289.4 673.76h20.976v7.147h-20.976z"/>
  </clipPath>
 </defs>
 <metadata id="metadata49939">
  <rdf:RDF>
   <cc:Work rdf:about="">
    <dc:format>image/svg+xml</dc:format>
    <dc:type rdf:resource="http://purl.org/dc/dcmitype/StillImage"/>
    <dc:title/>
   </cc:Work>
  </rdf:RDF>
 </metadata>
 <g id="layer1" transform="translate(85.343 -69.71)">
  <g id="g84698" transform="matrix(.35278 0 0 -.35278 -187.44 309.92)">
   <g id="g84700" clip-path="url(#clipPath84704)">
    <g id="g84706" transform="translate(302.94 680.06)">
     <path id="path84708" d="M 0,0 C -0.59,0 -0.843,-0.203 -0.911,-0.582 H 0.912 C 0.843,-0.203 0.59,0 0,0" fill="#0e87d2"/>
    </g>
    <g id="g84710" transform="translate(289.64 679.48)">
     <path id="path84712" d="M 0,0 H 2.437 C 2.63,0.277 2.962,0.383 3.585,0.449 3.893,0.482 4.22,0.501 4.513,0.512 V 1.43 C 3.895,1.419 3.131,1.392 2.426,1.336 0.76,1.202 0.258,0.951 0,0" fill="#0e87d2"/>
    </g>
    <g id="g84714" transform="translate(302.94 678.4)">
     <path id="path84716" d="m0 0c0.71 0 0.932 0.293 0.932 0.826 0 0.091-6e-3 0.175-0.02 0.253h-1.823c-0.014-0.078-0.021-0.162-0.021-0.253 0-0.533 0.222-0.826 0.932-0.826" fill="#8ad03a"/>
    </g>
    <g id="g84718" transform="translate(291.81 678.54)">
     <path id="path84720" d="m0 0c0.055 0.44 0.123 0.736 0.266 0.94h-2.437c-0.042-0.156-0.078-0.331-0.111-0.528-0.051-0.302-0.083-0.613-0.102-0.901h2.338c0.011 0.16 0.026 0.327 0.046 0.489" fill="#8ad03a"/>
    </g>
    <g id="g84722" transform="translate(291.74 677.34)">
     <path id="path84724" d="m0 0c0 0.196 6e-3 0.448 0.024 0.716h-2.337c-0.018-0.267-0.025-0.514-0.025-0.715 0-0.202 7e-3 -0.448 0.025-0.715h2.337c-0.018 0.267-0.024 0.52-0.024 0.714" fill="#f89a0f"/>
    </g>
    <g id="g84726" transform="translate(291.77 676.62)">
     <path id="path84728" d="m0 0h-2.337c0.018-0.289 0.051-0.6 0.101-0.902 0.034-0.196 0.069-0.371 0.112-0.528h2.437c-0.143 0.204-0.211 0.5-0.266 0.94-0.021 0.163-0.036 0.329-0.047 0.49" fill="#f36717"/>
    </g>
    <g id="g84730" transform="translate(302.94 676.55)">
     <path id="path84732" d="m0 0c-0.71 0-0.932-0.293-0.932-0.835 0-0.212 0.036-0.387 0.123-0.52h1.618c0.088 0.133 0.123 0.308 0.123 0.52 0 0.542-0.222 0.835-0.932 0.835" fill="#f36717"/>
    </g>
    <g id="g84734" transform="translate(302.94 674.89)">
     <path id="path84736" d="M 0,0 C 0.426,0 0.677,0.106 0.809,0.305 H -0.809 C -0.677,0.106 -0.426,0 0,0" fill="#ed1c24"/>
    </g>
    <g id="g84738" transform="translate(293.23 674.75)">
     <path id="path84740" d="m0 0c-0.622 0.067-0.953 0.173-1.147 0.449h-2.438c0.258-0.951 0.76-1.203 2.427-1.336 0.705-0.056 1.468-0.084 2.087-0.094v0.918c-0.293 0.01-0.621 0.03-0.929 0.063" fill="#ed1c24"/>
    </g>
    <g id="g84742" transform="translate(307.05 680.42)">
     <path id="path84744" d="M 0,0 H -2.157 V -0.932 H 2.615 C 2.035,-0.318 1.13,0 0,0" fill="#0e87d2"/>
    </g>
    <g id="g84746" transform="translate(296.15 679.93)">
     <path id="path84748" d="m0 0c0.623-0.067 0.954-0.173 1.148-0.449h2.437c-0.257 0.951-0.76 1.202-2.426 1.336-0.705 0.055-1.468 0.083-2.087 0.093v-0.917c0.293-0.011 0.621-0.03 0.928-0.063" fill="#0e87d2"/>
    </g>
    <g id="g84750" transform="translate(297.56 678.54)">
     <path id="path84752" d="m0 0c0.021-0.162 0.036-0.329 0.046-0.489h2.338c-0.019 0.288-0.051 0.599-0.102 0.901-0.033 0.197-0.069 0.372-0.111 0.528h-2.437c0.143-0.204 0.211-0.5 0.266-0.94" fill="#50be37"/>
    </g>
    <g id="g84754" transform="translate(306.58 678.05)">
     <path id="path84756" d="m0 0v1.119h0.595c0.758 0 1.251-0.398 1.414-1.119h1.748c-0.091 0.581-0.322 1.059-0.671 1.43h-4.772v-1.43z" fill="#8ad03a"/>
    </g>
    <g id="g84758" transform="translate(308.65 677.48)">
     <path id="path84760" d="m0 0c0-0.329-0.05-0.615-0.144-0.853h1.777c0.064 0.261 0.098 0.545 0.098 0.853 0 0.202-0.014 0.394-0.043 0.577h-1.748c0.04-0.174 0.06-0.367 0.06-0.577" fill="#f7961d"/>
    </g>
    <g id="g84762" transform="translate(297.61 676.62)">
     <path id="path84764" d="m0 0h2.338c0.017 0.266 0.024 0.513 0.024 0.715 0 0.201-7e-3 0.448-0.024 0.715h-2.338c0.018-0.268 0.024-0.52 0.024-0.716 0-0.194-6e-3 -0.447-0.024-0.714" fill="#f89a0f"/>
    </g>
    <path id="path84766" d="m306.58 678.05h-1.687v-1.429h1.687z" fill="#f89a0f"/>
    <g id="g84768" transform="translate(307.18 675.78)">
     <path id="path84770" d="m0 0h-0.595v0.843h-1.687v-1.43h4.465c0.455 0.345 0.773 0.824 0.923 1.43h-1.776c-0.218-0.546-0.675-0.843-1.33-0.843" fill="#f25b23"/>
    </g>
    <g id="g84772" transform="translate(299.94 676.62)">
     <path id="path84774" d="m0 0h-2.338c-0.011-0.161-0.026-0.327-0.046-0.49-0.056-0.44-0.124-0.736-0.267-0.94h2.437c0.043 0.157 0.079 0.332 0.112 0.528 0.051 0.302 0.083 0.613 0.102 0.902" fill="#f36717"/>
    </g>
    <g id="g84776" transform="translate(299.73 675.19)">
     <path id="path84778" d="m0 0h-2.437c-0.194-0.276-0.525-0.382-1.148-0.449-0.308-0.033-0.635-0.052-0.928-0.063v-0.918c0.619 0.011 1.382 0.038 2.087 0.094 1.666 0.134 2.168 0.385 2.426 1.336" fill="#ee2533"/>
    </g>
    <g id="g84780" transform="translate(304.89 674.54)">
     <path id="path84782" d="m0 0h2.157c0.946 0 1.735 0.223 2.307 0.656h-4.464z" fill="#ed1c24"/>
    </g>
   </g>
  </g>
 </g>
</svg>
