<?xml version="1.0" encoding="UTF-8" standalone="no"?>
<!-- Created with Inkscape (http://www.inkscape.org/) -->

<svg
   xmlns:dc="http://purl.org/dc/elements/1.1/"
   xmlns:cc="http://creativecommons.org/ns#"
   xmlns:rdf="http://www.w3.org/1999/02/22-rdf-syntax-ns#"
   xmlns:svg="http://www.w3.org/2000/svg"
   xmlns="http://www.w3.org/2000/svg"
   xmlns:sodipodi="http://sodipodi.sourceforge.net/DTD/sodipodi-0.dtd"
   xmlns:inkscape="http://www.inkscape.org/namespaces/inkscape"
   width="726.83319mm"
   height="171.02127mm"
   viewBox="0 0 726.83319 171.02127"
   version="1.1"
   id="svg49942"
   inkscape:version="0.92.0 r15299"
   sodipodi:docname="CT D HD.svg">
  <defs
     id="defs49936">
    <clipPath
       clipPathUnits="userSpaceOnUse"
       id="clipPath84704">
      <path
         d="m 289.404,673.765 h 20.976 v 7.147 h -20.976 z"
         id="path84702"
         inkscape:connector-curvature="0" />
    </clipPath>
  </defs>
  <sodipodi:namedview
     id="base"
     pagecolor="#ffffff"
     bordercolor="#666666"
     borderopacity="1.0"
     inkscape:pageopacity="0.0"
     inkscape:pageshadow="2"
     inkscape:zoom="0.24748738"
     inkscape:cx="2224.5339"
     inkscape:cy="475.27838"
     inkscape:document-units="mm"
     inkscape:current-layer="layer1"
     showgrid="false"
     fit-margin-top="0"
     fit-margin-left="0"
     fit-margin-right="0"
     fit-margin-bottom="0"
     inkscape:window-width="1920"
     inkscape:window-height="1017"
     inkscape:window-x="-8"
     inkscape:window-y="-8"
     inkscape:window-maximized="1" />
  <metadata
     id="metadata49939">
    <rdf:RDF>
      <cc:Work
         rdf:about="">
        <dc:format>image/svg+xml</dc:format>
        <dc:type
           rdf:resource="http://purl.org/dc/dcmitype/StillImage" />
        <dc:title></dc:title>
      </cc:Work>
    </rdf:RDF>
  </metadata>
  <g
     inkscape:label="Layer 1"
     inkscape:groupmode="layer"
     id="layer1"
     transform="translate(85.342806,98.773906)">
    <g
       id="g4710">
      <path
         d="m 238.51052,-78.484179 c -14.11501,0 -20.16772,4.85652 -21.79453,13.923619 h 43.61298 c -1.65073,-9.067099 -7.70344,-13.923619 -21.81845,-13.923619"
         style="fill:#0e87d2;fill-opacity:1;fill-rule:nonzero;stroke:none;stroke-width:23.9237442"
         id="path84708"
         inkscape:connector-curvature="0" />
      <path
         d="m -79.648956,-64.562952 h 58.302164 c 4.617283,-6.626877 12.5599657,-9.162794 27.4644582,-10.741761 7.3685128,-0.789484 15.1915778,-1.244035 22.2012348,-1.507196 v -21.961997 c -14.784874,0.263161 -33.0626145,0.909102 -49.928854,2.248832 -39.856958,3.205782 -51.866677,9.210641 -58.039003,31.962122"
         style="fill:#0e87d2;fill-opacity:1;fill-rule:nonzero;stroke:none;stroke-width:23.9237442"
         id="path84712"
         inkscape:connector-curvature="0" />
      <path
         d="m 238.51052,-38.758802 c 16.98586,0 22.29693,-7.009657 22.29693,-19.761013 0,-2.17706 -0.14354,-4.186655 -0.47848,-6.052707 h -43.61298 c -0.33493,1.866052 -0.5024,3.875647 -0.5024,6.052707 0,12.751356 5.31107,19.761013 22.29693,19.761013"
         style="fill:#8ad03a;fill-opacity:1;fill-rule:nonzero;stroke:none;stroke-width:23.9237442"
         id="path84716"
         inkscape:connector-curvature="0" />
      <path
         d="m -27.715292,-42.077025 c 1.315806,-10.526447 2.942621,-17.607876 6.363716,-22.488319 H -79.65374 c -1.004797,3.732104 -1.866052,7.918759 -2.655536,12.631736 -1.220111,7.224971 -1.985671,14.665256 -2.440222,21.555294 h 55.933714 c 0.263161,-3.827799 0.622017,-7.823064 1.100492,-11.698711"
         style="fill:#8ad03a;fill-opacity:1;fill-rule:nonzero;stroke:none;stroke-width:23.9237442"
         id="path84720"
         inkscape:connector-curvature="0" />
      <path
         d="m -29.409093,-13.244129 c 0,-4.689054 0.143542,-10.717837 0.57417,-17.129401 h -55.90979 c -0.430627,6.38764 -0.598093,12.296805 -0.598093,17.105477 0,4.8325965 0.167466,10.7178376 0.598093,17.1054772 h 55.90979 c -0.430628,-6.3876396 -0.57417,-12.4403469 -0.57417,-17.0815532"
         style="fill:#f89a0f;fill-opacity:1;fill-rule:nonzero;stroke:none;stroke-width:23.9237442"
         id="path84724"
         inkscape:connector-curvature="0" />
      <path
         d="m -28.825354,3.8350321 h -55.90979 c 0.430628,6.9139619 1.220111,14.3542459 2.416298,21.5792169 0.813408,4.689054 1.650739,8.875709 2.67946,12.631737 h 58.302164 c -3.421096,-4.880444 -5.04791,-11.961872 -6.363716,-22.488319 -0.502399,-3.899571 -0.861255,-7.8709121 -1.124416,-11.7226349"
         style="fill:#f36717;fill-opacity:1;fill-rule:nonzero;stroke:none;stroke-width:23.9237442"
         id="path84728"
         inkscape:connector-curvature="0" />
      <path
         d="m 238.51052,5.6245282 c -16.98586,0 -22.29693,7.0096568 -22.29693,19.9763258 0,5.071834 0.86126,9.258489 2.94262,12.440347 h 38.70862 c 2.10529,-3.181858 2.94262,-7.368513 2.94262,-12.440347 0,-12.966669 -5.31107,-19.9763258 -22.29693,-19.9763258"
         style="fill:#f36717;fill-opacity:1;fill-rule:nonzero;stroke:none;stroke-width:23.9237442"
         id="path84732"
         inkscape:connector-curvature="0" />
      <path
         d="m 238.51052,45.340336 c 10.19151,0 16.19637,-2.535917 19.35431,-7.296742 h -38.70862 c 3.15794,4.760825 9.1628,7.296742 19.35431,7.296742"
         style="fill:#ed1c24;fill-opacity:1;fill-rule:nonzero;stroke:none;stroke-width:23.9237442"
         id="path84736"
         inkscape:connector-curvature="0" />
      <path
         d="M 6.1057048,48.768608 C -8.774864,47.165717 -16.693623,44.6298 -21.33483,38.026847 h -58.326087 c 6.172326,22.75148 18.182045,28.780264 58.062926,31.962122 16.8662398,1.33973 35.120056,2.009594 49.928854,2.248832 V 50.275804 C 21.321206,50.036566 13.474218,49.558092 6.1057048,48.768608"
         style="fill:#ed1c24;fill-opacity:1;fill-rule:nonzero;stroke:none;stroke-width:23.9237442"
         id="path84740"
         inkscape:connector-curvature="0" />
      <path
         d="m 336.84907,-86.869451 h -51.60352 v 22.296929 H 399.40966 C 385.53389,-79.2617 363.8829,-86.869451 336.84907,-86.869451"
         style="fill:#0e87d2;fill-opacity:1;fill-rule:nonzero;stroke:none;stroke-width:23.9237442"
         id="path84744"
         inkscape:connector-curvature="0" />
      <path
         d="m 75.953468,-75.314283 c 14.904493,1.602891 22.823252,4.138808 27.464462,10.741761 h 58.30216 c -6.1484,-22.75148 -18.18205,-28.75634 -58.039,-31.962122 -16.866242,-1.315806 -35.120059,-1.985671 -49.928856,-2.224908 v 21.938073 c 7.009657,0.263161 14.856645,0.717712 22.201234,1.507196"
         style="fill:#0e87d2;fill-opacity:1;fill-rule:nonzero;stroke:none;stroke-width:23.9237442"
         id="path84748"
         inkscape:connector-curvature="0" />
      <path
         d="m 109.78882,-42.077025 c 0.5024,3.875647 0.86125,7.870912 1.10049,11.698711 h 55.93372 c -0.45456,-6.890038 -1.22012,-14.330323 -2.44023,-21.555294 -0.78948,-4.712977 -1.65073,-8.899632 -2.65553,-12.631736 H 103.4251 c 3.4211,4.880443 5.04791,11.961872 6.36372,22.488319"
         style="fill:#50be37;fill-opacity:1;fill-rule:nonzero;stroke:none;stroke-width:23.9237442"
         id="path84752"
         inkscape:connector-curvature="0" />
      <path
         sodipodi:nodetypes="ccscccccc"
         d="m 325.58817,-30.36396 v -26.77067 h 14.23463 c 18.1342,0 29.9286,9.521243 33.82817,26.770262 l 41.81871,4.08e-4 c -2.17706,-13.899695 -7.70345,-25.335245 -16.05284,-34.210954 l -114.1641,-4.54e-4 v 34.211408 z"
         style="fill:#8ad03a;fill-opacity:1;fill-rule:nonzero;stroke:none;stroke-width:23.9237442"
         id="path84756"
         inkscape:connector-curvature="0" />
      <path
         sodipodi:nodetypes="cccsccc"
         d="m 375.07922,-16.579099 c 0,7.8709118 -1.19619,14.7128795 -3.44502,20.4067305 h 42.51249 c 1.53112,-6.2440972 2.34453,-13.0382173 2.34453,-20.4067305 0,-4.832596 -0.33493,-9.425955 -1.02872,-13.804 l -41.8187,-2.69e-4 c 0.95695,4.162731 1.43542,8.780283 1.43542,13.804269"
         style="fill:#f7961d;fill-opacity:1;fill-rule:nonzero;stroke:none;stroke-width:23.9237442"
         id="path84760"
         inkscape:connector-curvature="0" />
      <path
         d="m 110.90127,3.8350321 h 55.93371 c 0.40671,-6.3637159 0.57417,-12.2728807 0.57417,-17.1054771 0,-4.808672 -0.16746,-10.717837 -0.57417,-17.105477 h -55.93371 c 0.43063,6.411564 0.57417,12.440347 0.57417,17.129401 0,4.6412062 -0.14354,10.6939135 -0.57417,17.0815531"
         style="fill:#f89a0f;fill-opacity:1;fill-rule:nonzero;stroke:none;stroke-width:23.9237442"
         id="path84764"
         inkscape:connector-curvature="0" />
      <path
         inkscape:connector-curvature="0"
         id="path84766"
         style="fill:#f89a0f;fill-opacity:1;fill-rule:nonzero;stroke:none;stroke-width:23.9237442"
         d="M 325.59056,-30.35439 H 285.2312 V 3.8326397 h 40.35936 z" />
      <path
         d="M 339.8204,23.997964 H 325.58577 V 3.8302478 H 285.22642 V 38.041202 H 392.04593 C 402.93124,29.78751 410.53899,18.328037 414.12755,3.8302478 H 371.63898 C 366.4236,16.892612 355.49045,23.997964 339.8204,23.997964"
         style="fill:#f25b23;fill-opacity:1;fill-rule:nonzero;stroke:none;stroke-width:23.9237442"
         id="path84770"
         inkscape:connector-curvature="0" />
      <path
         d="m 166.8302,3.8350321 h -55.93371 c -0.26316,3.8517228 -0.62202,7.8230639 -1.1005,11.7226349 -1.33973,10.526447 -2.96654,17.607875 -6.38764,22.488319 h 58.30217 c 1.02872,-3.756028 1.88997,-7.942683 2.67946,-12.631737 1.22011,-7.224971 1.98567,-14.665255 2.44022,-21.5792169"
         style="fill:#f36717;fill-opacity:1;fill-rule:nonzero;stroke:none;stroke-width:23.9237442"
         id="path84774"
         inkscape:connector-curvature="0" />
      <path
         d="M 161.72487,38.036417 H 103.42271 C 98.7815,44.63937 90.86274,47.175287 75.958248,48.778178 68.589735,49.567662 60.76667,50.022213 53.757013,50.285374 v 21.961997 c 14.808798,-0.263161 33.062615,-0.909102 49.928857,-2.248832 39.85695,-3.205782 51.86667,-9.210641 58.039,-31.962122"
         style="fill:#ee2533;fill-opacity:1;fill-rule:nonzero;stroke:none;stroke-width:23.9237442"
         id="path84778"
         inkscape:connector-curvature="0" />
      <path
         d="m 285.23838,53.735177 h 51.60352 c 22.63186,0 41.50769,-5.334995 55.19207,-15.693976 H 285.23838 Z"
         style="fill:#ed1c24;fill-opacity:1;fill-rule:nonzero;stroke:none;stroke-width:23.9237442"
         id="path84782"
         inkscape:connector-curvature="0" />
    </g>
    <g
       id="g4688"
       transform="translate(-209.25799)">
      <path
         id="path8-7"
         transform="matrix(0.26458333,0,0,0.26458333,-85.342807,-98.752375)"
         d="m 2902.0195,44.878906 v 84.304684 h 80.4082 V 44.878906 Z m 202.9375,0 v 84.304684 h 80.4102 V 44.878906 Z m 148.1992,0.0039 v 84.300774 h 80.4961 V 104.75 h 34.5489 c 27.1527,0 48.7768,8.50477 63.6797,24.43359 h 92.0839 C 3498.7221,73.854223 3440.8717,44.882813 3362.6289,44.882812 Z"
         style="fill:#0e87d2;fill-opacity:1;fill-rule:nonzero;stroke-width:3.77952743"
         inkscape:connector-curvature="0" />
      <path
         inkscape:connector-curvature="0"
         id="path8-6"
         d="m 682.48319,-30.383423 v 25.4051692 h 21.27518 V -30.383423 Z m 53.69388,0 v 25.4051692 h 21.27517 V -30.383423 Z m 39.21104,0 v 25.4051692 h 28.96515 c 21.97717,0 37.96345,-8.8660342 43.88104,-25.4051692 h -23.20014 c -3.83403,6.203635 -10.42871,9.56324 -19.20709,9.563242 h -9.14103 v -9.563242 z"
         style="fill:#f7961d;fill-opacity:1;fill-rule:nonzero;stroke-width:0.99999994" />
      <path
         inkscape:connector-curvature="0"
         id="path8-4"
         d="m 682.48319,-64.575133 v 34.210831 h 21.2752 v -10.118246 h 32.41868 v 10.118246 h 21.2752 v -34.210831 h -21.2752 v 8.250658 h -32.41868 v -8.250658 z m 92.90492,0 v 34.210831 h 21.29793 v -34.210831 z m 47.28498,0 c 4.00762,4.281818 6.17895,10.591591 6.17895,18.634522 0,6.303801 -1.33056,11.542366 -3.82974,15.576309 h 23.20531 c 1.65037,-4.605052 2.52076,-9.805225 2.52076,-15.575277 0,-7.106444 -1.28838,-13.329044 -3.70985,-18.635554 z"
         style="fill:#8ad03a;fill-opacity:1;fill-rule:nonzero;stroke-width:0.99999994" />
    </g>
  </g>
</svg>
