<svg height="250.59" width="919.06" xmlns="http://www.w3.org/2000/svg"><g fill="#f89a0f"><path d="m502.09 181.18h97.276v41.964h-157.57c-.92945-6.2194-1.236-12.122-1.236-17.719 0-83.295 99.768-82.355 99.768-126.18 0-13.675-14.298-20.211-31.394-20.211-18.025 0-36.99 7.1489-54.699 17.096l-15.237-39.156c22.376-14.614 49.429-24.245 78.944-24.245 43.516 0 82.059 18.035 82.059 61.542 0 65.882-90.137 80.496-97.909 106.91" stroke-width="9.8878"/><path d="m669.76 17.23h30.754v45.452h45.372v-45.452h30.754v119.26h-30.754v-50.564h-45.372v50.564h-30.754z"/><path d="m837.59 40.475v72.77h11.023c12.568.00002 22.153-3.1153 28.757-9.3459 6.6565-6.2306 9.9849-15.284 9.9849-27.159 0-11.822-3.3017-20.822-9.905-26.999-6.6035-6.1773-16.216-9.2659-28.837-9.266zm-30.754-23.245h32.431c18.106.00012 31.579 1.3048 40.419 3.9141 8.8932 2.5563 16.508 6.923 22.846 13.1 5.5914 5.3787 9.7452 11.583 12.461 18.612 2.7158 7.0295 4.0737 14.991 4.0739 23.884-.0002 8.9998-1.3581 17.041-4.0739 24.124-2.716 7.0294-6.8698 13.233-12.461 18.612-6.3905 6.1774-14.059 10.571-23.005 13.18-8.9466 2.5562-22.366 3.8342-40.259 3.8342h-32.431z"/><path d="m4.4496 68.601c-3.441 20.349-4.4495 41.993-4.4495 56.696 0 14.693 1.0085 36.338 4.4495 56.687 8.2563 48.836 20.942 59.89 88.96 65.329 24.719 1.9677 51.476 2.9367 73.189 3.2827v-32.165c-10.303-.36585-21.783-1.058-32.56-2.2149-37.92-4.054-44.999-12.281-49.587-48.697-1.9182-15.138-2.4818-31.265-2.4818-42.201 0-10.975.56361-27.073 2.4818-42.25 4.5879-36.436 11.668-44.653 49.587-48.707 10.778-1.147 22.257-1.8391 32.56-2.205v-32.155c-21.714.34607-48.47 1.3151-73.189 3.2728-68.018 5.4482-80.704 16.493-88.96 65.329" stroke-width="9.8878"/><path d="m277.03 3.2728c-24.71-1.9677-51.466-2.9268-73.179-3.2729v32.155c10.293.36585 21.783 1.058 32.551 2.205 37.93 4.054 44.999 12.271 49.587 48.707 1.9083 15.178 2.4818 31.275 2.4818 42.25 0 10.936-.57349 27.063-2.4818 42.201-4.5879 36.417-11.658 44.643-49.587 48.697-10.768 1.1569-22.257 1.849-32.551 2.2149v32.165c21.714-.34608 48.47-1.3151 73.179-3.2827 68.028-5.4383 80.714-16.493 88.96-65.329 3.441-20.349 4.4495-41.993 4.4495-56.687 0-14.703-1.0086-36.347-4.4495-56.696-8.2464-48.836-20.932-59.88-88.96-65.329" stroke-width="9.8878"/></g></svg>