<svg height="250.59476" width="600" xmlns="http://www.w3.org/2000/svg" xmlns:xlink="http://www.w3.org/1999/xlink"><clipPath id="a"><path d="m166.009 463.807h64.501v25.344h-64.501z"/></clipPath><g clip-path="url(#a)" transform="matrix(9.8877738 0 0 -9.8877738 -1643.149261 4836.61345)"><g transform="translate(194.1969 488.8199)"><path d="m0 0c-2.499.199-5.205.296-7.401.331v-3.252c1.041-.037 2.203-.107 3.292-.223 3.836-.41 4.551-1.241 5.015-4.926.193-1.535.251-3.163.251-4.273 0-1.106-.058-2.737-.251-4.268-.464-3.683-1.179-4.515-5.015-4.925-1.089-.117-2.251-.187-3.292-.224v-3.253c2.196.035 4.902.133 7.401.332 6.88.55 8.163 1.668 8.997 6.607.348 2.058.45 4.247.45 5.733 0 1.487-.102 3.676-.45 5.734-.834 4.939-2.117 6.056-8.997 6.607m-27.567-6.607c-.348-2.058-.45-4.247-.45-5.734 0-1.486.102-3.675.45-5.733.835-4.939 2.118-6.057 8.997-6.607 2.5-.199 5.206-.297 7.402-.332v3.253c-1.042.037-2.203.107-3.293.224-3.835.41-4.551 1.242-5.015 4.925-.194 1.531-.251 3.162-.251 4.268 0 1.11.057 2.738.251 4.273.464 3.685 1.18 4.516 5.015 4.926 1.09.116 2.251.186 3.293.223v3.252c-2.196-.035-4.902-.133-7.402-.331-6.879-.551-8.162-1.668-8.997-6.607m50.329-11.386h9.838v-4.244h-15.936c-.094.629-.125 1.226-.125 1.792 0 8.424 10.09 8.329 10.09 12.761 0 1.383-1.446 2.044-3.175 2.044-1.823 0-3.741-.723-5.532-1.729l-1.541 3.96c2.263 1.478 4.999 2.452 7.984 2.452 4.401 0 8.299-1.824 8.299-6.224 0-6.663-9.116-8.141-9.902-10.812" fill="#f89a0f"/></g></g></svg>