<svg height="137.88" viewBox="0 0 158.75 36.480062" width="600" xmlns="http://www.w3.org/2000/svg" xmlns:xlink="http://www.w3.org/1999/xlink"><linearGradient id="a"><stop offset="0" stop-color="#254aa5"/><stop offset="1" stop-color="#66cef5"/></linearGradient><linearGradient id="b" gradientTransform="matrix(-.00000098 -17.758 17.758 -.00000098 -49.452 87.543)" gradientUnits="userSpaceOnUse" x1="0" x2="1" xlink:href="#a" y1="0" y2="0"/><linearGradient id="c" gradientTransform="matrix(-.00000197 -36.472 36.472 -.00000197 -122.42 103.72)" gradientUnits="userSpaceOnUse" x1="0" x2="1" xlink:href="#a" y1="0" y2="0"/><linearGradient id="d" gradientTransform="matrix(-.00000098 -18.1 18.1 -.00000098 -29.917 87.753)" gradientUnits="userSpaceOnUse" x1="0" x2="1" xlink:href="#a" y1="0" y2="0"/><g transform="translate(180.36 -67.244)"><g fill="url(#c)"><path d="m-150.68 71.921c1.49.059 3.16.158 4.74.325 5.51.591 6.54 1.792 7.2 7.089.29 2.216.37 4.549.37 6.144s-.08 3.949-.37 6.144c-.66 5.297-1.69 6.509-7.2 7.089-1.58.168-3.25.266-4.74.325v4.683c3.15-.05 7.05-.19 10.64-.48 9.91-.79 11.75-2.4 12.95-9.51.5-2.954.65-6.114.65-8.251 0-2.136-.15-5.287-.65-8.241-1.2-7.109-3.04-8.724-12.95-9.511-3.59-.296-7.49-.424-10.64-.483z"/><path d="m-166.76 67.727c-9.9.787-11.74 2.402-12.94 9.511-.51 2.954-.66 6.105-.66 8.241 0 2.137.15 5.297.66 8.251 1.2 7.11 3.04 8.72 12.94 9.51 3.61.29 7.49.43 10.66.48v-4.683c-1.51-.059-3.18-.157-4.74-.325-5.52-.58-6.55-1.792-7.23-7.089-.27-2.195-.35-4.549-.35-6.144s.08-3.928.35-6.144c.68-5.297 1.71-6.498 7.23-7.089 1.56-.167 3.23-.266 4.74-.325v-4.677c-3.17.059-7.05.197-10.66.483"/><path d="m-116.45 72.63 2.21 5.691c2.58-1.437 5.34-2.481 7.96-2.481 2.49 0 4.57.955 4.57 2.944 0 6.37-14.53 6.242-14.53 18.363 0 .817.05 1.674.18 2.58h22.941v-6.105h-14.161c1.13-3.85 14.25-5.977 14.25-15.567 0-6.331-5.603-8.96-11.94-8.96-4.3 0-8.24 1.408-11.48 3.535"/></g><path d="m-77.562 69.785-13.657 17.585v6.104h14.838v6.253h8.36v-6.253h3.535v-6.104h-3.535v-17.585zm1.004 8.083h.177v9.502h-6.557v-.178z" fill="url(#c)"/><path d="m-46.478 69.784v6.568h-5.927v-6.568h-4.894v17.753h4.894v-7.03h5.927v7.03h4.864v-17.753z" fill="url(#b)"/><path d="m-32.407 69.656c-2.166 0-4.254.128-5.82.365v17.408c.946.167 2.521.324 4.874.324 3.574 0 6.548-.679 8.557-2.215 1.772-1.339 3.19-3.692 3.19-7.296 0-3.268-1.31-5.484-3.309-6.823-1.811-1.211-3.997-1.763-7.492-1.763zm.571 3.634c2.924 0 5.031 1.634 5.031 5.09 0 3.938-2.255 5.662-5.346 5.662h-.148c-.325 0-.788 0-1.024-.059v-10.585c.236-.059.699-.108 1.487-.108z" fill="url(#d)"/></g></svg>