<svg width="800" height="346.89" version="1.1" viewBox="0 0 211.67 91.781" xmlns="http://www.w3.org/2000/svg">
 <g fill="#3cccbf">
  <path d="m172.62 36.578h5.7114c6.4108 0 11.891-3.0306 11.891-8.627 0-5.7114-5.4799-8.1592-13.173-8.1592-6.877 0-13.987 1.3987-19.933 3.7299l-1.7484-13.404c6.0611-3.8481 15.621-6.1793 25.179-6.1793 15.271 0 29.142 7.1101 29.142 21.565 0 6.8786-3.1455 13.289-10.84 16.903v0.46624c9.0917 3.3818 12.823 10.842 12.823 18.418 0 15.387-14.803 23.315-31.358 23.315-9.3248 0-19.7-2.914-25.994-6.0627l1.7484-13.521c4.8971 1.6318 12.472 3.7299 21.215 3.7299 7.9261 0 14.805-3.0322 14.805-9.9092 0-5.3617-5.5965-8.8585-13.523-8.8585h-5.9445zh5.7114c6.4108 0 11.891-3.0306 11.891-8.627 0-5.7114-5.4799-8.1592-13.173-8.1592-6.877 0-13.987 1.3987-19.933 3.7299l-1.7484-13.404c6.0611-3.8481 15.621-6.1793 25.179-6.1793 15.271 0 29.142 7.1101 29.142 21.565 0 6.8786-3.1455 13.289-10.84 16.903v0.46624c9.0917 3.3818 12.823 10.842 12.823 18.418 0 15.387-14.803 23.315-31.358 23.315-9.3248 0-19.7-2.914-25.994-6.0627l1.7484-13.521c4.8971 1.6318 12.472 3.7299 21.215 3.7299 7.9261 0 14.805-3.0322 14.805-9.9092 0-5.3617-5.5965-8.8585-13.523-8.8585h-5.9445z"/>
  <path d="m134.04 25.127c-3.0208-17.889-7.667-21.933-32.582-23.927-9.0512-0.7204-18.85-1.0733-26.799-1.1996v11.776c3.7671 0.13437 7.9746 0.38691 11.918 0.80782 13.892 1.4845 16.482 4.494 18.162 17.837 0.69936 5.5609 0.90982 11.457 0.90982 15.477 0 4.0035-0.21046 9.9124-0.90982 15.455-1.6804 13.336-4.2706 16.349-18.162 17.834-3.9436 0.42415-8.1511 0.67669-11.918 0.81106v11.784c7.9487-0.12789 17.748-0.48405 26.799-1.2061 24.915-1.9912 29.561-6.0401 32.582-23.927 1.2579-7.4517 1.6286-15.378 1.6286-20.761 0-5.3844-0.37072-13.309-1.6286-20.761zm-132.41 0c-1.2595 7.4517-1.6286 15.376-1.6286 20.761 0 5.3828 0.36911 13.309 1.6286 20.761 3.0225 17.887 7.6687 21.936 32.582 23.927 9.0512 0.72202 18.852 1.0782 26.802 1.2044v-11.782c-3.7704-0.13437-7.9779-0.38691-11.925-0.81106-13.888-1.4845-16.482-4.4973-18.161-17.834-0.70098-5.5431-0.9082-11.452-0.9082-15.455 0-4.0197 0.20722-9.9157 0.9082-15.477 1.6788-13.343 4.2722-16.352 18.161-17.837 3.9468-0.42091 8.1543-0.67346 11.925-0.80782v-11.776c-7.9503 0.12627-17.751 0.48081-26.802 1.1996-24.913 1.9945-29.559 6.0384-32.582 23.927z"/>
 </g>
</svg>
