<svg width="157.38mm" height="27.204mm" version="1.1" viewBox="0 0 157.38 27.204" xmlns="http://www.w3.org/2000/svg">
 <defs>
  <mask id="f" x="202.487" y="369.723" width="18.652" height="102.007" maskUnits="userSpaceOnUse">
   <path d="m221.15 369.72h-18.664v102.01h18.652z" fill="#fff"/>
  </mask>
  <mask id="e" x="323.988" y="369.723" width="19.402" height="102.007" maskUnits="userSpaceOnUse">
   <path d="m343.39 369.72h-19.406v102.01h19.406z" fill="#fff"/>
  </mask>
  <mask id="d" x="362.793" y="369.718" width="110.048" height="101.434" maskUnits="userSpaceOnUse">
   <path d="m472.84 471.15v-101.43h-110.05v101.43z" fill="#fff"/>
  </mask>
 </defs>
 <g transform="translate(95.701 -135.23)">
  <g fill="#c43b3b">
   <path d="m-90.672 157.75h3.3851c4.3262 0 6.3042-3.2237 6.3042-7.2924 0-4.3429-2.0108-7.497-6.6381-7.497h-3.0512zm-5.0295-16.858c0-1.5613 1.071-2.6114 2.5831-2.6114h5.565c7.5097 0 11.802 4.8847 11.802 12.416 0 7.1231-4.5601 11.735-11.466 11.735h-5.8383c-1.1046 0-2.6458-0.60907-2.6458-2.5411v-18.999zm32.606 17.053c2.7617 0 4.0878-2.5831 4.0878-4.931 0-2.3466-1.2885-4.9959-4.0878-4.9959-2.9104 0-4.2 2.6493-4.2 4.9959 0 2.3468 1.3261 4.931 4.2 4.931zm9.3943 1.0866c0 1.2578 0 3.1951-2.5411 3.1951-1.5478 0-2.1757-0.78105-2.5432-2.0738-1.3629 1.4973-3.02 2.2773-5.0485 2.2773-4.9718 0-8.7675-3.909-8.7675-9.4165 0-5.3708 3.906-9.4837 8.7675-9.4837 1.9532 0 3.8695 0.71411 5.0485 2.2437 0.14711-1.1906 1.2536-2.0399 2.5411-2.0399 2.5432 0 2.5432 1.9381 2.5432 3.1951zm7.5832-19.059c-0.16589-0.45138-0.2331-0.8001-0.2331-1.2872 0-1.4616 1.2287-2.5053 2.5622-2.5053 1.1298 0 1.8269 0.76623 2.2595 1.706l5.1536 14.48 5.1536-14.48c0.43048-0.9398 1.1298-1.706 2.2617-1.706 1.3293 0 2.5598 1.0435 2.5598 2.5053 0 0.4871-0.0672 0.83582-0.2331 1.2872l-7.2819 19.389c-0.43365 1.1131-0.99748 2.0182-2.4601 2.0182-1.4626 0-2.0264-0.9062-2.4612-2.0182z" stroke-width=".26458"/>
   <path transform="matrix(.26458 0 0 .26458 -77.71 37.41)" d="m203.52 409.45c0-6.444 3.453-10.738 8.294-10.738s8.294 4.294 8.294 10.738v51.544c0 6.437-3.453 10.734-8.294 10.734s-8.294-4.298-8.294-10.734zm17.621-29.129c0 6.04-4.147 11.14-9.326 11.14-4.953 0-9.326-5.238-9.326-11.132 0-5.508 4.374-10.607 9.326-10.607s9.326 4.961 9.326 10.604z" mask="url(#f)"/>
   <path d="m-15.901 146.49c0-1.6507 1.0636-2.7509 2.5514-2.7509 1.3126 0 2.1632 0.68871 2.3394 1.8217 0.99378-1.3388 2.5172-2.0264 4.9268-2.0264 4.0061 0 6.9826 2.4738 6.9826 6.6675v9.4848c0 1.6486-1.0636 2.748-2.5514 2.748-1.4893 0-2.5519-1.1001-2.5519-2.748v-8.6267c0-2.3016-1.4888-3.4018-3.3316-3.4018-2.0892 0-3.2613 1.4785-3.2613 3.4018v8.6267c0 1.6486-1.0626 2.748-2.5519 2.748-1.4878 0-2.5514-1.1001-2.5514-2.748v-13.196h-7.93e-4zm30.688 2.4834c-1.2211 0-2.3048-0.95145-3.864-0.95145-2.7765 0-4.0973 2.4778-4.0973 4.9959 0 2.4151 1.4563 4.931 4.0984 4.931 1.221 0 3.048-1.0205 3.6245-1.0205 1.152 0 2.0997 0.98689 2.0997 2.1421 0 2.5159-4.1997 3.3642-5.9619 3.3642-5.2499 0-8.7379-4.3175-8.7379-9.4165 0-4.9623 3.5909-9.4837 8.7379-9.4837 1.9323 0 5.9619 0.71411 5.9619 3.0932 0 1.0205-0.71041 2.3458-1.8613 2.3458" stroke-width=".26458"/>
   <path transform="matrix(.26458 0 0 .26458 -66.862 37.41)" d="m325.06 409.45c0-6.444 3.592-10.738 8.629-10.738 5.031 0 8.623 4.294 8.623 10.738v51.544c0 6.437-3.592 10.734-8.623 10.734-5.041 0-8.629-4.298-8.629-10.734zm18.328-29.129c0 6.04-4.311 11.14-9.699 11.14-5.152-4e-3 -9.703-5.242-9.703-11.132 0-5.508 4.551-10.607 9.703-10.607 5.15 0 9.699 4.961 9.699 10.604z" mask="url(#e)"/>
  </g>
  <path transform="matrix(.26458 0 0 .26458 -63.422 37.41)" d="m471.2 405.28c-3.262-10.655-7.445-17.184-13.311-23.085-4.973-5-11.826-9.048-18.037-10.865-6.893-2.013-15.861-2.151-22.588-0.334-10.057 2.699-21.352 10.207-23.832 22.708-0.936 4.683-1.246 8.659-0.813 14.414 0.373 5.016 0.734 7.063 0.65 9.144-0.492 13.295-33.971 9.803-30.178 22.489 4.072 13.624 21.74 27.522 41.305 30.253 24.025 3.345 39.678-0.54 52.758-12.382 17.998-16.299 16.922-43.988 14.037-52.338z" fill="#c43b3b" mask="url(#d)"/>
  <g transform="matrix(.26458 0 0 .26458 -95.701 135.23)" stroke-width="3.9832">
   <path d="m558.57 42.176c-0.39832 5.9748-4.3815 9.1613-7.9664 11.551-3.5848 2.3899-7.568 3.1865-12.348 2.3899-4.3815-0.79663-5.1781-3.9832-3.9832-7.1697 0.79664-2.7882 4.3815-5.1781 7.568-3.9832 3.9832 1.195 5.5764 0.39831 7.1697-0.39832 3.5848-1.9916 3.1865-5.9748 1.5933-8.3647-1.9916-2.7882-4.7798-0.39832-2.7882 1.5933 2.7882 3.1865-0.39832 6.3731-3.9832 3.9832-1.5933-1.195-1.9916-3.1865-1.9916-5.1781 0.39832-2.7882 1.195-5.1781 4.3815-5.9748 3.9832-1.5933 7.568-0.39832 9.5596 2.7882 1.9916 1.9916 2.7882 4.3815 2.7882 8.763z" fill="#f6a827"/>
   <path d="m535.87 42.176c-1.9916 1.195-3.1865 2.3899-5.1781 5.9748-0.79663 1.5933-3.9832 1.5933-5.5764-0.79663-1.5933-1.9916-3.1865-5.5764-3.9832-9.1613-0.79663-4.3815 0.79663-5.9748 5.1781-6.3731h1.5933c4.3815 0.39832 3.9832 0.79663 7.1697 1.5933 2.3899 0.79663 2.3899 1.9916 3.1865 4.3815 0.39832 3.1865-0.39831 3.5848-2.3899 4.3815z" fill="#f7b32b"/>
   <path d="m541.05 27.438c-0.39831 0.79664-0.79663 1.195-1.5933 1.9916-1.195 0.79663-3.1865 0.79663-4.3815 0.39832-3.5849-0.79664-4.7798-1.195-7.9663-1.195-5.1781-0.39831-7.9664 1.195-4.7798-7.1697 0 0 0.39832-1.195 0.79663-1.9916 0.79664-1.5933 1.195-1.9916 1.5933-2.7882 0.79664-1.5933 2.3899-3.1865 3.1865-3.5848 2.3899-1.9916 3.1865-1.9916 4.7798-1.9916s2.3899 1.195 6.3731 7.9663c0.79663 1.5933 3.5848 5.5764 1.9916 8.3647z" fill="#f8c23d"/>
   <path d="m561.36 13.497c-1.5933 2.3899-1.9916 2.7882-3.1865 5.1781 0 0-3.9832 6.3731-7.9663 6.3731-3.1865 0-3.9832 0-5.5764-3.5848-1.5933-3.5849-4.7798-8.763-5.1781-9.5596-1.195-1.9916-3.1865-3.5849-0.79664-4.7798 7.9663-3.1865 16.331-1.9916 21.907 0 2.7882 1.195 3.1865 1.9916 0.79664 6.3731z" fill="#fcc640"/>
   <path d="m579.29 28.234c-2.7882 3.1865-5.5764 4.7798-12.746 6.7714-4.3815 1.195-3.9832-0.79664-5.5764-3.9832-1.9916-2.7882-1.9916-3.1865-2.3899-3.9832-1.195-1.5933 0-2.7882 1.195-4.3815 2.3899-3.1865 2.7882-3.9832 5.5764-7.9663 1.9916-2.3899 1.9916-3.9832 5.1781-2.3899 0 0 1.195 0.79664 3.9832 2.3899 0.79664 0.79663 2.3899 1.9916 3.5848 3.5848 2.3899 3.9832 2.7882 7.9663 1.195 9.9579z" fill="#ffcd45"/>
   <path d="m588.05 46.557c-0.39831 1.9916-0.79663 3.5849-3.5848 3.9832-4.7798 0.79664-10.356 1.9916-17.128-0.79663-2.3899-0.79663-3.9832-1.195-3.9832-4.3815 0-1.195 0-2.3899 0.39832-3.9832 0.39832-2.7882 0.79663-2.7882 5.5764-3.5848 3.5848-0.39832 6.3731-1.5933 10.356-3.5849 1.195-0.79663 3.1865-1.9916 5.1781-0.79663 1.195 0.79663 1.9916 1.9916 3.1865 5.5764 0 2.3899 0.39832 5.1781 0 7.568z" fill="#fcd73f"/>
   <path d="m586.85 63.286-0.39832 1.5933c-1.195 5.1781-2.3899 7.568-6.3731 12.348-2.7882 3.1865-4.3815 3.9832-6.3731 3.1865-8.3647-3.5849-14.738-14.339-17.924-19.518-1.195-2.3899-0.79664-3.1865 0-4.3815 0.79663-0.79663 1.9916-1.5933 2.7882-2.3899 1.5933-1.195 2.7882-1.9916 4.7798-0.79664 4.3815 2.3899 10.356 3.9832 17.924 2.7882 5.5764-1.5933 7.1697 1.195 5.5764 7.1697z" fill="#ffdb4b"/>
   <path d="m562.96 90.372-0.79663 0.39832c-4.7798 1.9916-6.7714 2.7882-11.551 3.5849-5.5764 0.79663-11.551 1.5933-10.356-3.9832 1.5933-8.763 3.5848-15.933 3.9832-20.712 0.39832-3.9832-0.79663-8.3647 1.195-9.1613 1.5933-0.79663 2.3899-0.79663 3.1865-0.79663 3.1865-0.39832 2.7882-0.79664 4.7798 3.1865 2.7882 6.7714 5.9748 11.551 11.153 17.526 2.3899 3.9832 2.7882 7.568-1.5933 9.9579z" fill="#ffe94e"/>
   <path d="m539.06 64.88c-0.79664 9.5596-2.3899 13.941-7.1697 23.501-1.5933 3.5848-7.9663 5.9748-13.941 3.5848-5.9748-2.3899-14.339-6.7714-22.704-16.729-3.5849-3.9832-5.5764-6.7714 1.9916-8.763 10.755-3.1865 15.534-5.1781 20.314-8.763 3.5848-2.7882 3.9832-3.9832 6.7714-2.7882 3.5848 1.195 3.9832 1.5933 7.1697 2.7882 4.7798 2.3899 7.9664 3.1865 7.568 7.1697z" fill="#f8eb58"/>
  </g>
 </g>
</svg>
