<svg enable-background="new 0 0 160 60" height="53.5" viewBox="0 0 160.00117 53.5" width="160.00117" xmlns="http://www.w3.org/2000/svg"><g fill="#ede6df"><g transform="translate(0 -2.8)"><path d="m135.3 22.5c.3.2.3.1.5 0s .3-.2.3-.3c.1-.1.2-.2 0-.3-.1-.1-.3-.2-.3-.3-.1-.1-.1-.1-.2-.1s-.3.1-.7-.1c-.3-.1-.3 0-.3.2.2.3.4.7.7.9z"/><path d="m134.7 20.2c-.1.3-.2.6-.1.9s.6.3.9.3c.2 0 .3 0 .3-.2s0-.3 0-.5c.1-.2-.2-.3-.2-.3-.1-.1-.3-.4-.3-.7-.3-.3-.5.3-.6.5z"/><path d="m136.8 18.6c-.3 0-.6.1-1 .3-.3.2-.6.3-.5.6 0 .2.1.3.1.3.1.3.3.4.3.5.1.1.3-.2.3-.3.3-.2.3-.1.4-.3.1-.3.1-.7.2-1 .4 0 .4-.2.2-.1z"/><path d="m135.9 22.8c.2 0 .4.2.8.1.3 0 .4-.1.4-.4s-.1-.3-.1-.3c0-.2-.2-.1-.3-.1s-.2 0-.3 0c0 0-.1 0-.2.2s-.3.3-.3.3c-.1.1-.3.1 0 .2z"/><path d="m142.5 17.1c.4-.1.4-.3.3-.6-.2-.3-.6-.7-1.5-1.2s-1.7-.6-1.7-.6c-.9-.1-1.1.2-1.5.5-.4.4-.9 1.2-1 1.9-.2.7.2.9.3.9.2 0 .7.1 1.2.3s.5.3 1.4-.3c.6-.4 1.8-.8 2.5-.9z"/><path d="m138 21.4c0-.2-.1-.5-.2-.7s-.2-.2-.2-.2c-.3-.1-.4.2-.5.3s.1.2.2.3c.1.2 0 .2.2.2s.3.2.4.3c.1 0 .1 0 .1-.2z"/><path d="m137.3 22.7c.1 0 .1 0 .3-.2s.3-.3.3-.5-.1-.3-.1-.3c-.1-.1-.3-.3-.4-.3s-.1.1-.1.1c0 .1-.1.2-.2.3s0 .3.1.4c0 .3 0 .5.1.5z"/><path d="m138.9 19.4c.3-.1.2-.2-.1-.3-.3-.3-.9-.4-1.2-.5s-.5.1-.6.3c-.1.1-.2.3-.3.5-.1.3-.2.7.1.7s.4.1.5.1c.2.1.1.1.4-.2.5-.4.9-.6 1.2-.6z"/><path d="m136.3 21.1c.1 0 .2-.2.3-.3s0-.4 0-.4 0 0-.1 0-.4.2-.5.4c0 .1 0 .2.1.2s.2.1.2.1z"/><path d="m140.1 21.4c0-.5-.3-1.2-.5-1.6-.3-.5-.7-.3-1-.3-.3.1-.6.3-.8.4-.3.2.1.2.3.6.1.3.2.4.5.4.7.1.7.2 1 .3.3.3.5.6.5.2z"/><path d="m139.6 21.6c-.3-.2-.7-.3-1-.3s-.3-.1-.3.4c0 .4-.3.5-.1.9.3.3.5.9.6 1.2s.3.5.6.1c.3-.3.7-1 .7-1.6 0-.3-.3-.5-.5-.7z"/><path d="m136.8 20.9c-.2 0-.3 0-.3.1-.1.1 0 .5.2.5.1 0 .2-.1.2-.2s0-.2.1-.2.3.1.3.1-.1-.3-.5-.3z"/><path d="m142.6 12.1c-1 1.1-.7 1.8-.1 2.4.6.5 1.7 1.7 2.1 2.1.5.5.9 1.1 2.6.8s3.8-.4 5.3-.3c1.7 0 3.3.7 4.2.6.6-.1.2-1.9-.1-2.5-.9-1.9-2.3-3.8-2.6-4.3-.3-.4-1.7-2.2-3.4-2.8-1.5-.4-3.2-.1-5.1 1.1-1.1 1-1.8 1.7-2.9 2.9z"/><path d="m135.9 21c0 .1.1.5.2.6s.3 0 .3 0c .1-.1-.1-.2-.1-.3s-.2-.3-.3-.3z"/><path d="m137.4 14.4c-1.3-.1-2.5.6-2.8.8s-.5.6-.6 1c0 .7.2 1.4.4 2 .4.9.6.8.8.7s.3-.3.9-.5c.6-.3.4-.5.5-.8 0-.3.3-1.1.7-1.8.8-1.4.5-1.4.1-1.4z"/><path d="m137 21.3-.2.1v.1c0 .2.1.2.1.1.1 0 .1-.1.1-.3.2.1.1.1 0 0z"/><path d="m137.5 20.6s.2 0 0-.2c-.1-.1-.3-.2-.5-.2s-.2 0-.3.1c0 0-.1.3-.1.4.1.1.3 0 .3.1.1 0 .2-.1.3-.2z"/><path d="m136.8 21.9c.1-.1.1-.2.1-.2 0-.1 0-.1-.1-.1-.2.1-.3 0-.3 0-.1 0-.3.1-.3.2.3.2.5.1.6.1z"/><path d="m135.7 29.9c.6-1.1.8-1.8 1-2.9.2-.6-.3-.8-.5-.8-.3 0-1.4-.1-2.1-.3-.6-.3-1.2 0-1.7.3-.4.3-2.9 1.7-3.8 2.1-1 .3-1 1-.6 1.3s1.8 1.7 4.1 2.2c2.2.4 2.9-.8 3.6-1.9z"/><path d="m132.4 25.6c.3-.3.1-.8 0-1-.2-.2-1-1-1.2-1.7-.3-.5-.6-1-1.7-1-1.1-.1-3.7-.6-4.4-1-1.8-.6-1.8-.3-1.7 1 .1 1.2.8 2.6 1.1 3.2.2.3.9 1.8 2 2.3 1.2.4 1.6.2 3.1-.3 1.3-.3 2.3-1 2.8-1.5z"/><path d="m125 20.5c1.2.6 3.1 1 4.6 1.2 1 0 .8-.4.8-1.2 0-1 .2-1.5.2-2.4 0-.8-.9-1.7-1.5-2.4-.9-.9-2-2.6-2.2-3-.2-.3-.5-1-1-1.6-.4-.4-1 .3-1.7 1.5-.9 1.7-1.5 4-1.3 5.2.4 1.4.9 2 2.1 2.7z"/><path d="m142.2 33.7c-.3-1.1-1-1.5-3.1-.8-1.3.4-1.8.7-2.5.8-1.8.3-3.5.3-4.5.3-1.1 0-2.5-.4-2.8 1.5-.3 1.4-.1 3.8-.1 4.5s.3 3.6-1 6.9c-.4 1.1-1.9 4.5-2.4 5.3s-1.3 2.5 1.1 2.4 8.3-2.4 9.4-3.1c1.3-.6 3.7-1.8 4.9-2.9 1-1.1 1.5-2.2 1.7-4.8 0-1.2.2-3.7-.1-6.1-.2-1.8-.3-2.9-.6-4z"/><path d="m151.3 17.7c-4.9-.2-5.2.9-4.9 2.1.3 1.9.1 2.7.3 4.2.3 1.5 1.4 1.7 3.5 3.1 1.2.8 2.5 1.8 4.4 3.8 1.8 1.9 2.2 3.1 3.2.4.9-2.3 1-5.9 1-7.3 0-1.6-.4-2.9-1.7-4.3-1.4-1.4-3.8-1.9-5.8-2z"/><path d="m150.2 27.7c-.6-.4-1-.8-2-1.2-1.4-.7-2-.3-2.4.5-.4 1.1-1.3 2.1-2.6 3.5-1.3 1.3 0 4.4.2 6.8.3 2.1.3 4.7.4 6.9.2 2.2 1 1.8 1.8 1.5 1-.3 3.7-2.4 5-3.6 1.3-1.1 3.1-2.9 3.8-4.5s.6-2.7.2-4.4c-.3-1.4-2.5-4-4.4-5.5z"/><path d="m132.3 17.1c-.2.3-1 1.2-.7 2.2.2 1 1.8 1.5 2.2 1.6.3.1.5 0 .5-.3s.3-1.2.3-1.2.1-.3-.3-.9c-.3-.5-.5-1.6-.8-2.2-.2-.5-1 .6-1.2.8z"/><path d="m130.1 16.2c.6.6 1 .7 1.7 0 .4-.6 1.4-1.3 2.4-2.1.8-.6.4-2.4.5-3.5 0-.7.2-2.2.3-3.1 0-.3.6-1.9.5-2.5 0-.3 0-.6-1.4-.3-2.3.5-4.6 2.2-5.5 2.8-.9.7-1.1 1.2-1.4 1.8-.2.4-.8 1.6.9 4.3.6.8 1.3 1.9 2 2.6z"/><path d="m131.3 20.6c0 .3 0 1.5.7 2.4.5.5.9.3 1.3.3.4-.1 1.2-.3 1.5-.5s-.1-.5-.2-.7-.1-.3-.3-.5c-.1-.3-.1-.3-.3-.3-.3-.1-1.6-.4-2-.9-.5-.5-.7-.2-.7.2z"/><path d="m136.4 13.4c.4-.1 1.7-.2 2.9.1 1.3.1 1.7-.3 2.2-1 .4-.6 1.6-1.9 2.5-3 1-1 2.8-2 3.7-2.6.8-.5.2-1-1.2-1.7-2.4-1-5.4-1.4-6.6-1.4-2.3-.1-3.4 1.4-3.9 2.6-.6 1.2-1 3.3-1 5.2.1 2 1 1.9 1.4 1.8z"/><path d="m136.3 25.5c.3 0 1.2-.1 1.7-.4s.7-.6.5-1.3c-.1-.4-.3-.9-.4-1-.2-.2-.3-.3-.4-.2-.2.2-.6.3-.8.4-.1.1-.3 0-.3.3-.1.3-.2.9-.3 1.3-.3.6-.2.9 0 .9z"/><path d="m134.5 25.3c.5.2.9.1 1.2-.3.3-.3.6-.9.7-1.5.1-.5-.3-.3-.8-.5-.4-.3-.7-.2-.8-.1s-.3.3-1 .4c-1.1.3-1.2.4-.8.9.4.6 1.1.9 1.5 1.1z"/><path d="m145.3 21.3c-.1-1.2-.7-2.4-1-3s-1.1-.9-2.1-.8c-1.1.1-1.8.5-2.2.8-.4.2-.6.5-.4.8.3.3.8 1 .9 1.4s.3.6 1 .7 1.7.4 2.8 1c1 .6 1.1.5 1-.9z"/><path d="m143 28.6c.8-.6 1.7-2.6 1.9-3.1.2-.4.3-1.3-.2-2.1-.4-.8-1.7-1.5-2.6-1.7-1.3-.3-1.4 0-1.4.3s.1.7-.3 1.4c-.3.7-.3 1.1.1 1.6.3.4 1.1 2.2 1.3 3 .1.7.4 1.2 1.2.6z"/><path d="m136.2 32c .8.2 2.4-.3 3.2-.7.9-.4 1.7-.9 1.9-2.4 0-.7 0-.9-.6-2.8-.4-1-.8-1.9-1.6-1.4-.4.3-1 .7-1.6 1-.8.4-.6 1.1-.8 1.7-.1.5-.3 1.6-1 3.1.1.6-.3 1.3.5 1.5z"/></g><path d="m17 5.1c-1.4-1.3-3-2.2-4.6-2.7s-3.8-.8-6.6-.8h-5.8v27.4h5.7c2.8 0 4.9-.3 6.5-.8 1.7-.5 3.1-1.4 4.6-2.7 3-2.6 4.4-6 4.4-10.2 0-4.3-1.4-7.6-4.2-10.2m-3 17.4c-1 .9-2.1 1.6-3.3 2-1.2.3-2.8.6-4.6.6h-1.9v-19.7h1.8c3.5 0 6.2.9 8 2.5 2 1.8 3 4.3 3 7.3s-1 5.4-3 7.3m21.6-8.9c-1.6-1.6-3.4-2.4-5.4-2.4-2.4 0-4.3.9-5.8 2.6-1.6 1.7-2.4 3.8-2.4 6.5s.8 4.8 2.4 6.6c1.6 1.7 3.5 2.6 5.9 2.6 1.9 0 3.7-.8 5.3-2.3v1.8h3.9v-17.4h-4v2zm-1.2 10.7c-.9 1-2.1 1.5-3.6 1.5-1.4 0-2.5-.5-3.4-1.6-.9-1-1.3-2.4-1.3-4s .4-2.9 1.4-3.9 2.1-1.6 3.4-1.6c1.5 0 2.6.5 3.6 1.6.9 1 1.4 2.4 1.4 4-.1 1.7-.5 3-1.5 4m37.2-12.7h4v17.2h-4zm19.6 1.5c1 1 1.5 2.8 1.5 5.2v10.6h-4.1v-9.6c0-1.7-.3-2.9-.7-3.5-.4-.7-1.3-1-2.5-1-1.3 0-2.3.4-2.8 1.3s-.8 2.4-.8 4.5v8.3h-4v-17.3h4v1.6c1.4-1.4 3-2.1 4.7-2.1 1.9.1 3.5.7 4.7 2m12.1-1.9c1.7 0 3.3.4 4.8 1.2v5.3c-.9-1.1-1.7-1.8-2.4-2.3-.7-.4-1.6-.6-2.5-.6-1.5 0-2.7.5-3.8 1.6-1 1-1.5 2.4-1.5 3.9 0 1.7.4 3 1.4 4s2.2 1.6 3.7 1.6c1 0 1.8-.2 2.5-.6s1.6-1.1 2.5-2.4v5.3c-1.7.9-3.2 1.2-4.9 1.2-2.7 0-4.9-.9-6.7-2.6s-2.7-3.9-2.7-6.5.9-4.7 2.7-6.6c2-1.6 4.3-2.5 6.9-2.5m6.9.4h4v17.2h-4zm-35-6.4c.4.4.6 1 .6 1.6s-.2 1.1-.6 1.6c-.4.4-1 .6-1.6.6s-1.1-.2-1.6-.6c-.4-.4-.7-1-.7-1.6s.2-1.2.7-1.6c.4-.4 1-.6 1.6-.6s1.1.1 1.6.6m35.4 3.1c-.4-.4-.6-1-.6-1.6s.3-1.1.6-1.6c.4-.4 1-.6 1.6-.6s1.1.2 1.6.6c.4.4.6 1 .6 1.6s-.3 1.1-.6 1.6c-.4.4-1 .6-1.6.6-.6.1-1.1-.1-1.6-.6m-38.6-6.7-11.8 28.3h-.9l-11.6-28.3h4.5l7.6 19 7.7-19h4.5z"/><g transform="translate(0 -2.8)"><path d="m159.2 18.3c-1-3.2-2.3-5.9-4-7.9l-.3-.3c-1.5-1.7-4-4.7-9.3-6.4-1.4-.4-3.6-.9-6.1-.9-1.7 0-3.5.3-5.1.7-3.9 1.1-6.9 3.1-9.4 6.4-1.8 2.6-2.9 5.7-3.1 8.6 0 4.5 1.3 8 4.3 11 1 .9 1.9 1.6 3 2.1-.3.1-.6.3-.8.5v.1c-.4.7-.6 1.7-.6 2.3v.1c0 .3-.1.6-.1 1h-127.7v17.8h122.4c-.4.8-.4 1.3-.2 2.1.3.8 1.5.8 1.8.8h.1c2.2 0 6-1.2 8.1-1.9h.1c4.5-1.5 10-5 10.2-5.2.3-.2.6-.3 1-.6 3.3-2.1 9-5.6 12.1-9.9 1.9-2.6 3.1-4.8 3.9-9.1 0-.1 0-.1 0-.2.8-3.3.6-7.1-.3-11.1zm-147.4 32.2h-6v-12h2.4v10.1h3.8zm11.6-9.9h-4.4v2.7h4.2v2h-4.2v3.2h4.4v2h-6.7v-12h6.7zm14.3 9.9-1-2.5h-5l-1 2.5h-2.5l5.2-12.3h1.6l5.1 12.3zm13.3 0-3.2-4.9h-.3v4.9h-2.4v-12h3.5c1.3 0 2.4.3 3.1.9.8.6 1.2 1.7 1.2 2.7s-.4 2.1-1 2.6c-.4.4-.9.6-1.7.8l3.8 5.1zm19.3.3h-1.7l-7.3-8.4v8.2h-2.4v-12.4h1.7l7.3 8.4v-8.1h2.4zm8.7-.3h-2.4v-12h2.4zm17.7.3h-1.7l-7.3-8.4v8.2h-2.4v-12.4h1.7l7.3 8.4v-8.1h2.4zm17.3-3.1c-1 2-2.9 3.1-5.2 3.1-3.7 0-6.4-2.6-6.4-6.3s2.7-6.4 6.4-6.4c2.3 0 4 1 5.2 2.9l-2.1 1.1c-.7-1.1-1.8-1.8-3.1-1.8-2.3 0-3.9 1.8-3.9 4.2s1.7 4.1 3.9 4.1c1.7 0 3-1 3.1-2.5h-2.9v-2h5.5c.1 1.8-.1 2.7-.5 3.6zm45.1-18.1c-.9 4.1-1.9 6.2-3.8 8.8-3.3 4.6-9.8 8.4-12.8 10.3-1.3.9-6.1 3.8-10.1 5.1-.5.2-8.8 3.1-9.6 1.4-.3-.8-.3-1.1 1-2.8 3.1-4.6 3.1-5.4 3.6-6.6.4-1 .8-2.4.8-5.2 0-1-.1-4.5.1-6 .1-.5.2-1.5.6-2.1.3-.3.8-.6 1.6-.3 1.3.3 3 .6 4.1.6.1 0 .3 0 .3-.1s0-.1-.3-.1c-3.7-.3-6.3-2.1-8-3.6-3.4-3.5-4.1-7.4-4.1-10.7.2-3.1 1.4-5.9 3-8.3 2.1-2.6 4.8-4.9 9.2-6.2 4.5-1.3 8.7-.4 10.8.2 5.4 1.7 7.9 4.9 9.3 6.6 2.1 2.4 3.2 5.3 3.9 7.7 1.4 6.7.5 10.7.4 11.3z"/><path d="m48.2 40.4h-.7v3.7h.7c1.5 0 2.3-.6 2.3-1.8-.1-1.3-.9-1.9-2.3-1.9z"/><path d="m32.4 46.1h3.5l-1.7-4.3z"/></g></g></svg>