<?xml version="1.0" encoding="UTF-8" standalone="no"?>
<!-- Generator: Adobe Illustrator 17.1.0, SVG Export Plug-In . SVG Version: 6.00 Build 0)  -->

<svg
   xmlns:dc="http://purl.org/dc/elements/1.1/"
   xmlns:cc="http://creativecommons.org/ns#"
   xmlns:rdf="http://www.w3.org/1999/02/22-rdf-syntax-ns#"
   xmlns:svg="http://www.w3.org/2000/svg"
   xmlns="http://www.w3.org/2000/svg"
   xmlns:sodipodi="http://sodipodi.sourceforge.net/DTD/sodipodi-0.dtd"
   xmlns:inkscape="http://www.inkscape.org/namespaces/inkscape"
   version="1.1"
   id="Layer_2"
   x="0px"
   y="0px"
   viewBox="0 0 160.00117 53.5"
   enable-background="new 0 0 160 60"
   xml:space="preserve"
   sodipodi:docname="Da Vinci Learning - Dark.svg"
   width="160.00117"
   height="53.5"
   inkscape:version="0.92.0 r15299"><metadata
     id="metadata91"><rdf:RDF><cc:Work
         rdf:about=""><dc:format>image/svg+xml</dc:format><dc:type
           rdf:resource="http://purl.org/dc/dcmitype/StillImage" /><dc:title></dc:title></cc:Work></rdf:RDF></metadata><defs
     id="defs89" /><sodipodi:namedview
     pagecolor="#ffffff"
     bordercolor="#666666"
     borderopacity="1"
     objecttolerance="10"
     gridtolerance="10"
     guidetolerance="10"
     inkscape:pageopacity="0"
     inkscape:pageshadow="2"
     inkscape:window-width="1920"
     inkscape:window-height="1017"
     id="namedview87"
     showgrid="false"
     fit-margin-top="0"
     fit-margin-left="0"
     fit-margin-right="0"
     fit-margin-bottom="0"
     inkscape:zoom="5.0204581"
     inkscape:cx="67.96924"
     inkscape:cy="31.73985"
     inkscape:window-x="-8"
     inkscape:window-y="-8"
     inkscape:window-maximized="1"
     inkscape:current-layer="Layer_2" /><g
     id="g68"
     transform="translate(0,-2.8)"
     style="fill:#a58260;fill-opacity:1"><path
       style="fill:#a58260;fill-opacity:1"
       inkscape:connector-curvature="0"
       id="path2"
       d="m 135.3,22.5 c 0.3,0.2 0.3,0.1 0.5,0 0.2,-0.1 0.3,-0.2 0.3,-0.3 0.1,-0.1 0.2,-0.2 0,-0.3 -0.1,-0.1 -0.3,-0.2 -0.3,-0.3 -0.1,-0.1 -0.1,-0.1 -0.2,-0.1 -0.1,0 -0.3,0.1 -0.7,-0.1 -0.3,-0.1 -0.3,0 -0.3,0.2 0.2,0.3 0.4,0.7 0.7,0.9 z" /><path
       style="fill:#a58260;fill-opacity:1"
       inkscape:connector-curvature="0"
       id="path4"
       d="m 134.7,20.2 c -0.1,0.3 -0.2,0.6 -0.1,0.9 0.1,0.3 0.6,0.3 0.9,0.3 0.2,0 0.3,0 0.3,-0.2 0,-0.2 0,-0.3 0,-0.5 0.1,-0.2 -0.2,-0.3 -0.2,-0.3 -0.1,-0.1 -0.3,-0.4 -0.3,-0.7 -0.3,-0.3 -0.5,0.3 -0.6,0.5 z" /><path
       style="fill:#a58260;fill-opacity:1"
       inkscape:connector-curvature="0"
       id="path6"
       d="m 136.8,18.6 c -0.3,0 -0.6,0.1 -1,0.3 -0.3,0.2 -0.6,0.3 -0.5,0.6 0,0.2 0.1,0.3 0.1,0.3 0.1,0.3 0.3,0.4 0.3,0.5 0.1,0.1 0.3,-0.2 0.3,-0.3 0.3,-0.2 0.3,-0.1 0.4,-0.3 0.1,-0.3 0.1,-0.7 0.2,-1 0.4,0 0.4,-0.2 0.2,-0.1 z" /><path
       style="fill:#a58260;fill-opacity:1"
       inkscape:connector-curvature="0"
       id="path8"
       d="m 135.9,22.8 c 0.2,0 0.4,0.2 0.8,0.1 0.3,0 0.4,-0.1 0.4,-0.4 0,-0.3 -0.1,-0.3 -0.1,-0.3 0,-0.2 -0.2,-0.1 -0.3,-0.1 -0.1,0 -0.2,0 -0.3,0 0,0 -0.1,0 -0.2,0.2 -0.1,0.2 -0.3,0.3 -0.3,0.3 -0.1,0.1 -0.3,0.1 0,0.2 z" /><path
       style="fill:#a58260;fill-opacity:1"
       inkscape:connector-curvature="0"
       id="path10"
       d="m 142.5,17.1 c 0.4,-0.1 0.4,-0.3 0.3,-0.6 -0.2,-0.3 -0.6,-0.7 -1.5,-1.2 -0.9,-0.5 -1.7,-0.6 -1.7,-0.6 -0.9,-0.1 -1.1,0.2 -1.5,0.5 -0.4,0.4 -0.9,1.2 -1,1.9 -0.2,0.7 0.2,0.9 0.3,0.9 0.2,0 0.7,0.1 1.2,0.3 0.5,0.2 0.5,0.3 1.4,-0.3 0.6,-0.4 1.8,-0.8 2.5,-0.9 z" /><path
       style="fill:#a58260;fill-opacity:1"
       inkscape:connector-curvature="0"
       id="path12"
       d="m 138,21.4 c 0,-0.2 -0.1,-0.5 -0.2,-0.7 -0.1,-0.2 -0.2,-0.2 -0.2,-0.2 -0.3,-0.1 -0.4,0.2 -0.5,0.3 -0.1,0.1 0.1,0.2 0.2,0.3 0.1,0.2 0,0.2 0.2,0.2 0.2,0 0.3,0.2 0.4,0.3 0.1,0 0.1,0 0.1,-0.2 z" /><path
       style="fill:#a58260;fill-opacity:1"
       inkscape:connector-curvature="0"
       id="path14"
       d="m 137.3,22.7 c 0.1,0 0.1,0 0.3,-0.2 0.2,-0.2 0.3,-0.3 0.3,-0.5 0,-0.2 -0.1,-0.3 -0.1,-0.3 -0.1,-0.1 -0.3,-0.3 -0.4,-0.3 -0.1,0 -0.1,0.1 -0.1,0.1 0,0.1 -0.1,0.2 -0.2,0.3 -0.1,0.1 0,0.3 0.1,0.4 0,0.3 0,0.5 0.1,0.5 z" /><path
       style="fill:#a58260;fill-opacity:1"
       inkscape:connector-curvature="0"
       id="path16"
       d="m 138.9,19.4 c 0.3,-0.1 0.2,-0.2 -0.1,-0.3 -0.3,-0.3 -0.9,-0.4 -1.2,-0.5 -0.3,-0.1 -0.5,0.1 -0.6,0.3 -0.1,0.1 -0.2,0.3 -0.3,0.5 -0.1,0.3 -0.2,0.7 0.1,0.7 0.3,0 0.4,0.1 0.5,0.1 0.2,0.1 0.1,0.1 0.4,-0.2 0.5,-0.4 0.9,-0.6 1.2,-0.6 z" /><path
       style="fill:#a58260;fill-opacity:1"
       inkscape:connector-curvature="0"
       id="path18"
       d="m 136.3,21.1 c 0.1,0 0.2,-0.2 0.3,-0.3 0.1,-0.1 0,-0.4 0,-0.4 0,0 0,0 -0.1,0 -0.1,0 -0.4,0.2 -0.5,0.4 0,0.1 0,0.2 0.1,0.2 0.1,0 0.2,0.1 0.2,0.1 z" /><path
       style="fill:#a58260;fill-opacity:1"
       inkscape:connector-curvature="0"
       id="path20"
       d="m 140.1,21.4 c 0,-0.5 -0.3,-1.2 -0.5,-1.6 -0.3,-0.5 -0.7,-0.3 -1,-0.3 -0.3,0.1 -0.6,0.3 -0.8,0.4 -0.3,0.2 0.1,0.2 0.3,0.6 0.1,0.3 0.2,0.4 0.5,0.4 0.7,0.1 0.7,0.2 1,0.3 0.3,0.3 0.5,0.6 0.5,0.2 z" /><path
       style="fill:#a58260;fill-opacity:1"
       inkscape:connector-curvature="0"
       id="path22"
       d="m 139.6,21.6 c -0.3,-0.2 -0.7,-0.3 -1,-0.3 -0.3,0 -0.3,-0.1 -0.3,0.4 0,0.4 -0.3,0.5 -0.1,0.9 0.3,0.3 0.5,0.9 0.6,1.2 0.1,0.3 0.3,0.5 0.6,0.1 0.3,-0.3 0.7,-1 0.7,-1.6 0,-0.3 -0.3,-0.5 -0.5,-0.7 z" /><path
       style="fill:#a58260;fill-opacity:1"
       inkscape:connector-curvature="0"
       id="path24"
       d="m 136.8,20.9 c -0.2,0 -0.3,0 -0.3,0.1 -0.1,0.1 0,0.5 0.2,0.5 0.1,0 0.2,-0.1 0.2,-0.2 0,-0.1 0,-0.2 0.1,-0.2 0.1,0 0.3,0.1 0.3,0.1 0,0 -0.1,-0.3 -0.5,-0.3 z" /><path
       style="fill:#a58260;fill-opacity:1"
       inkscape:connector-curvature="0"
       id="path26"
       d="m 142.6,12.1 c -1,1.1 -0.7,1.8 -0.1,2.4 0.6,0.5 1.7,1.7 2.1,2.1 0.5,0.5 0.9,1.1 2.6,0.8 1.7,-0.3 3.8,-0.4 5.3,-0.3 1.7,0 3.3,0.7 4.2,0.6 0.6,-0.1 0.2,-1.9 -0.1,-2.5 -0.9,-1.9 -2.3,-3.8 -2.6,-4.3 -0.3,-0.4 -1.7,-2.2 -3.4,-2.8 -1.5,-0.4 -3.2,-0.1 -5.1,1.1 -1.1,1 -1.8,1.7 -2.9,2.9 z" /><path
       style="fill:#a58260;fill-opacity:1"
       inkscape:connector-curvature="0"
       id="path28"
       d="m 135.9,21 c 0,0.1 0.1,0.5 0.2,0.6 0.1,0.1 0.3,0 0.3,0 0.1,-0.1 -0.1,-0.2 -0.1,-0.3 0,-0.1 -0.2,-0.3 -0.3,-0.3 0,0 -0.1,0 -0.1,0 z" /><path
       style="fill:#a58260;fill-opacity:1"
       inkscape:connector-curvature="0"
       id="path30"
       d="m 137.4,14.4 c -1.3,-0.1 -2.5,0.6 -2.8,0.8 -0.3,0.2 -0.5,0.6 -0.6,1 0,0.7 0.2,1.4 0.4,2 0.4,0.9 0.6,0.8 0.8,0.7 0.2,-0.1 0.3,-0.3 0.9,-0.5 0.6,-0.3 0.4,-0.5 0.5,-0.8 0,-0.3 0.3,-1.1 0.7,-1.8 0.8,-1.4 0.5,-1.4 0.1,-1.4 z" /><path
       style="fill:#a58260;fill-opacity:1"
       inkscape:connector-curvature="0"
       id="path32"
       d="m 137,21.3 c 0,0 0,0 0,0 l -0.2,0.1 v 0.1 c 0,0.2 0.1,0.2 0.1,0.1 0.1,0 0.1,-0.1 0.1,-0.3 0.2,0.1 0.1,0.1 0,0 z" /><path
       style="fill:#a58260;fill-opacity:1"
       inkscape:connector-curvature="0"
       id="path34"
       d="m 137.5,20.6 c 0,0 0.2,0 0,-0.2 -0.1,-0.1 -0.3,-0.2 -0.5,-0.2 -0.2,0 -0.2,0 -0.3,0.1 0,0 -0.1,0.3 -0.1,0.4 0.1,0.1 0.3,0 0.3,0.1 0.1,0 0.2,-0.1 0.3,-0.2 0.1,0 0.2,0 0.3,0 z" /><path
       style="fill:#a58260;fill-opacity:1"
       inkscape:connector-curvature="0"
       id="path36"
       d="m 136.8,21.9 c 0.1,-0.1 0.1,-0.2 0.1,-0.2 0,-0.1 0,-0.1 -0.1,-0.1 -0.2,0.1 -0.3,0 -0.3,0 -0.1,0 -0.3,0.1 -0.3,0.2 0.3,0.2 0.5,0.1 0.6,0.1 z" /><path
       style="fill:#a58260;fill-opacity:1"
       inkscape:connector-curvature="0"
       id="path38"
       d="m 135.7,29.9 c 0.6,-1.1 0.8,-1.8 1,-2.9 0.2,-0.6 -0.3,-0.8 -0.5,-0.8 -0.3,0 -1.4,-0.1 -2.1,-0.3 -0.6,-0.3 -1.2,0 -1.7,0.3 -0.4,0.3 -2.9,1.7 -3.8,2.1 -1,0.3 -1,1 -0.6,1.3 0.4,0.3 1.8,1.7 4.1,2.2 2.2,0.4 2.9,-0.8 3.6,-1.9 z" /><path
       style="fill:#a58260;fill-opacity:1"
       inkscape:connector-curvature="0"
       id="path40"
       d="m 132.4,25.6 c 0.3,-0.3 0.1,-0.8 0,-1 -0.2,-0.2 -1,-1 -1.2,-1.7 -0.3,-0.5 -0.6,-1 -1.7,-1 -1.1,-0.1 -3.7,-0.6 -4.4,-1 -1.8,-0.6 -1.8,-0.3 -1.7,1 0.1,1.2 0.8,2.6 1.1,3.2 0.2,0.3 0.9,1.8 2,2.3 1.2,0.4 1.6,0.2 3.1,-0.3 1.3,-0.3 2.3,-1 2.8,-1.5 z" /><path
       style="fill:#a58260;fill-opacity:1"
       inkscape:connector-curvature="0"
       id="path42"
       d="m 125,20.5 c 1.2,0.6 3.1,1 4.6,1.2 1,0 0.8,-0.4 0.8,-1.2 0,-1 0.2,-1.5 0.2,-2.4 0,-0.8 -0.9,-1.7 -1.5,-2.4 -0.9,-0.9 -2,-2.6 -2.2,-3 -0.2,-0.3 -0.5,-1 -1,-1.6 -0.4,-0.4 -1,0.3 -1.7,1.5 -0.9,1.7 -1.5,4 -1.3,5.2 0.4,1.4 0.9,2 2.1,2.7 z" /><path
       style="fill:#a58260;fill-opacity:1"
       inkscape:connector-curvature="0"
       id="path44"
       d="m 142.2,33.7 c -0.3,-1.1 -1,-1.5 -3.1,-0.8 -1.3,0.4 -1.8,0.7 -2.5,0.8 -1.8,0.3 -3.5,0.3 -4.5,0.3 -1.1,0 -2.5,-0.4 -2.8,1.5 -0.3,1.4 -0.1,3.8 -0.1,4.5 0,0.7 0.3,3.6 -1,6.9 -0.4,1.1 -1.9,4.5 -2.4,5.3 -0.5,0.8 -1.3,2.5 1.1,2.4 2.4,-0.1 8.3,-2.4 9.4,-3.1 1.3,-0.6 3.7,-1.8 4.9,-2.9 1,-1.1 1.5,-2.2 1.7,-4.8 0,-1.2 0.2,-3.7 -0.1,-6.1 -0.2,-1.8 -0.3,-2.9 -0.6,-4 z" /><path
       style="fill:#a58260;fill-opacity:1"
       inkscape:connector-curvature="0"
       id="path46"
       d="m 151.3,17.7 c -4.9,-0.2 -5.2,0.9 -4.9,2.1 0.3,1.9 0.1,2.7 0.3,4.2 0.3,1.5 1.4,1.7 3.5,3.1 1.2,0.8 2.5,1.8 4.4,3.8 1.8,1.9 2.2,3.1 3.2,0.4 0.9,-2.3 1,-5.9 1,-7.3 0,-1.6 -0.4,-2.9 -1.7,-4.3 -1.4,-1.4 -3.8,-1.9 -5.8,-2 z" /><path
       style="fill:#a58260;fill-opacity:1"
       inkscape:connector-curvature="0"
       id="path48"
       d="m 150.2,27.7 c -0.6,-0.4 -1,-0.8 -2,-1.2 -1.4,-0.7 -2,-0.3 -2.4,0.5 -0.4,1.1 -1.3,2.1 -2.6,3.5 -1.3,1.3 0,4.4 0.2,6.8 0.3,2.1 0.3,4.7 0.4,6.9 0.2,2.2 1,1.8 1.8,1.5 1,-0.3 3.7,-2.4 5,-3.6 1.3,-1.1 3.1,-2.9 3.8,-4.5 0.7,-1.6 0.6,-2.7 0.2,-4.4 -0.3,-1.4 -2.5,-4 -4.4,-5.5 z" /><path
       style="fill:#a58260;fill-opacity:1"
       inkscape:connector-curvature="0"
       id="path50"
       d="m 132.3,17.1 c -0.2,0.3 -1,1.2 -0.7,2.2 0.2,1 1.8,1.5 2.2,1.6 0.3,0.1 0.5,0 0.5,-0.3 0,-0.3 0.3,-1.2 0.3,-1.2 0,0 0.1,-0.3 -0.3,-0.9 -0.3,-0.5 -0.5,-1.6 -0.8,-2.2 -0.2,-0.5 -1,0.6 -1.2,0.8 z" /><path
       style="fill:#a58260;fill-opacity:1"
       inkscape:connector-curvature="0"
       id="path52"
       d="m 130.1,16.2 c 0.6,0.6 1,0.7 1.7,0 0.4,-0.6 1.4,-1.3 2.4,-2.1 0.8,-0.6 0.4,-2.4 0.5,-3.5 0,-0.7 0.2,-2.2 0.3,-3.1 0,-0.3 0.6,-1.9 0.5,-2.5 0,-0.3 0,-0.6 -1.4,-0.3 -2.3,0.5 -4.6,2.2 -5.5,2.8 -0.9,0.7 -1.1,1.2 -1.4,1.8 -0.2,0.4 -0.8,1.6 0.9,4.3 0.6,0.8 1.3,1.9 2,2.6 z" /><path
       style="fill:#a58260;fill-opacity:1"
       inkscape:connector-curvature="0"
       id="path54"
       d="m 131.3,20.6 c 0,0.3 0,1.5 0.7,2.4 0.5,0.5 0.9,0.3 1.3,0.3 0.4,-0.1 1.2,-0.3 1.5,-0.5 0.3,-0.2 -0.1,-0.5 -0.2,-0.7 -0.1,-0.2 -0.1,-0.3 -0.3,-0.5 -0.1,-0.3 -0.1,-0.3 -0.3,-0.3 -0.3,-0.1 -1.6,-0.4 -2,-0.9 -0.5,-0.5 -0.7,-0.2 -0.7,0.2 z" /><path
       style="fill:#a58260;fill-opacity:1"
       inkscape:connector-curvature="0"
       id="path56"
       d="m 136.4,13.4 c 0.4,-0.1 1.7,-0.2 2.9,0.1 1.3,0.1 1.7,-0.3 2.2,-1 0.4,-0.6 1.6,-1.9 2.5,-3 1,-1 2.8,-2 3.7,-2.6 0.8,-0.5 0.2,-1 -1.2,-1.7 -2.4,-1 -5.4,-1.4 -6.6,-1.4 -2.3,-0.1 -3.4,1.4 -3.9,2.6 -0.6,1.2 -1,3.3 -1,5.2 0.1,2 1,1.9 1.4,1.8 z" /><path
       style="fill:#a58260;fill-opacity:1"
       inkscape:connector-curvature="0"
       id="path58"
       d="m 136.3,25.5 c 0.3,0 1.2,-0.1 1.7,-0.4 0.5,-0.3 0.7,-0.6 0.5,-1.3 -0.1,-0.4 -0.3,-0.9 -0.4,-1 -0.2,-0.2 -0.3,-0.3 -0.4,-0.2 -0.2,0.2 -0.6,0.3 -0.8,0.4 -0.1,0.1 -0.3,0 -0.3,0.3 -0.1,0.3 -0.2,0.9 -0.3,1.3 -0.3,0.6 -0.2,0.9 0,0.9 z" /><path
       style="fill:#a58260;fill-opacity:1"
       inkscape:connector-curvature="0"
       id="path60"
       d="m 134.5,25.3 c 0.5,0.2 0.9,0.1 1.2,-0.3 0.3,-0.3 0.6,-0.9 0.7,-1.5 0.1,-0.5 -0.3,-0.3 -0.8,-0.5 -0.4,-0.3 -0.7,-0.2 -0.8,-0.1 -0.1,0.1 -0.3,0.3 -1,0.4 -1.1,0.3 -1.2,0.4 -0.8,0.9 0.4,0.6 1.1,0.9 1.5,1.1 z" /><path
       style="fill:#a58260;fill-opacity:1"
       inkscape:connector-curvature="0"
       id="path62"
       d="m 145.3,21.3 c -0.1,-1.2 -0.7,-2.4 -1,-3 -0.3,-0.6 -1.1,-0.9 -2.1,-0.8 -1.1,0.1 -1.8,0.5 -2.2,0.8 -0.4,0.2 -0.6,0.5 -0.4,0.8 0.3,0.3 0.8,1 0.9,1.4 0.1,0.4 0.3,0.6 1,0.7 0.7,0.1 1.7,0.4 2.8,1 1,0.6 1.1,0.5 1,-0.9 z" /><path
       style="fill:#a58260;fill-opacity:1"
       inkscape:connector-curvature="0"
       id="path64"
       d="m 143,28.6 c 0.8,-0.6 1.7,-2.6 1.9,-3.1 0.2,-0.4 0.3,-1.3 -0.2,-2.1 -0.4,-0.8 -1.7,-1.5 -2.6,-1.7 -1.3,-0.3 -1.4,0 -1.4,0.3 0,0.3 0.1,0.7 -0.3,1.4 -0.3,0.7 -0.3,1.1 0.1,1.6 0.3,0.4 1.1,2.2 1.3,3 0.1,0.7 0.4,1.2 1.2,0.6 z" /><path
       style="fill:#a58260;fill-opacity:1"
       inkscape:connector-curvature="0"
       id="path66"
       d="m 136.2,32 c 0.8,0.2 2.4,-0.3 3.2,-0.7 0.9,-0.4 1.7,-0.9 1.9,-2.4 0,-0.7 0,-0.9 -0.6,-2.8 -0.4,-1 -0.8,-1.9 -1.6,-1.4 -0.4,0.3 -1,0.7 -1.6,1 -0.8,0.4 -0.6,1.1 -0.8,1.7 -0.1,0.5 -0.3,1.6 -1,3.1 0.1,0.6 -0.3,1.3 0.5,1.5 z" /></g><path
     d="M 17,5.1 C 15.6,3.8 14,2.9 12.4,2.4 10.8,1.9 8.6,1.6 5.8,1.6 H 0 V 29 h 5.7 c 2.8,0 4.9,-0.3 6.5,-0.8 1.7,-0.5 3.1,-1.4 4.6,-2.7 3,-2.6 4.4,-6 4.4,-10.2 C 21.2,11 19.8,7.7 17,5.1 m -3,17.4 c -1,0.9 -2.1,1.6 -3.3,2 -1.2,0.3 -2.8,0.6 -4.6,0.6 H 4.2 V 5.4 H 6 c 3.5,0 6.2,0.9 8,2.5 2,1.8 3,4.3 3,7.3 0,3 -1,5.4 -3,7.3 M 35.6,13.6 C 34,12 32.2,11.2 30.2,11.2 c -2.4,0 -4.3,0.9 -5.8,2.6 -1.6,1.7 -2.4,3.8 -2.4,6.5 0,2.7 0.8,4.8 2.4,6.6 1.6,1.7 3.5,2.6 5.9,2.6 1.9,0 3.7,-0.8 5.3,-2.3 V 29 h 3.9 V 11.6 h -4 v 2 z m -1.2,10.7 c -0.9,1 -2.1,1.5 -3.6,1.5 -1.4,0 -2.5,-0.5 -3.4,-1.6 -0.9,-1 -1.3,-2.4 -1.3,-4 0,-1.6 0.4,-2.9 1.4,-3.9 1,-1 2.1,-1.6 3.4,-1.6 1.5,0 2.6,0.5 3.6,1.6 0.9,1 1.4,2.4 1.4,4 -0.1,1.7 -0.5,3 -1.5,4 M 71.6,11.6 h 4 v 17.2 h -4 z m 19.6,1.5 c 1,1 1.5,2.8 1.5,5.2 v 10.6 h -4.1 v -9.6 c 0,-1.7 -0.3,-2.9 -0.7,-3.5 -0.4,-0.7 -1.3,-1 -2.5,-1 -1.3,0 -2.3,0.4 -2.8,1.3 -0.5,0.9 -0.8,2.4 -0.8,4.5 v 8.3 h -4 V 11.6 h 4 v 1.6 c 1.4,-1.4 3,-2.1 4.7,-2.1 1.9,0.1 3.5,0.7 4.7,2 m 12.1,-1.9 c 1.7,0 3.3,0.4 4.8,1.2 v 5.3 c -0.9,-1.1 -1.7,-1.8 -2.4,-2.3 -0.7,-0.4 -1.6,-0.6 -2.5,-0.6 -1.5,0 -2.7,0.5 -3.8,1.6 -1,1 -1.5,2.4 -1.5,3.9 0,1.7 0.4,3 1.4,4 1,1 2.2,1.6 3.7,1.6 1,0 1.8,-0.2 2.5,-0.6 0.7,-0.4 1.6,-1.1 2.5,-2.4 v 5.3 c -1.7,0.9 -3.2,1.2 -4.9,1.2 -2.7,0 -4.9,-0.9 -6.7,-2.6 -1.8,-1.7 -2.7,-3.9 -2.7,-6.5 0,-2.6 0.9,-4.7 2.7,-6.6 2,-1.6 4.3,-2.5 6.9,-2.5 m 6.9,0.4 h 4 v 17.2 h -4 z m -35,-6.4 c 0.4,0.4 0.6,1 0.6,1.6 0,0.6 -0.2,1.1 -0.6,1.6 C 74.8,8.8 74.2,9 73.6,9 73,9 72.5,8.8 72,8.4 71.6,8 71.3,7.4 71.3,6.8 c 0,-0.6 0.2,-1.2 0.7,-1.6 0.4,-0.4 1,-0.6 1.6,-0.6 0.6,0 1.1,0.1 1.6,0.6 m 35.4,3.1 c -0.4,-0.4 -0.6,-1 -0.6,-1.6 0,-0.6 0.3,-1.1 0.6,-1.6 0.4,-0.4 1,-0.6 1.6,-0.6 0.6,0 1.1,0.2 1.6,0.6 0.4,0.4 0.6,1 0.6,1.6 0,0.6 -0.3,1.1 -0.6,1.6 -0.4,0.4 -1,0.6 -1.6,0.6 -0.6,0.1 -1.1,-0.1 -1.6,-0.6 M 72,1.6 60.2,29.9 H 59.3 L 47.7,1.6 h 4.5 l 7.6,19 7.7,-19 c 0.1,0 4.5,0 4.5,0 z"
     id="path70"
     inkscape:connector-curvature="0"
     style="fill:#a58260;fill-opacity:1" /><g
     id="g82"
     transform="translate(0,-2.8)"
     style="fill:#a58260;fill-opacity:1"><path
       style="fill:#a58260;fill-opacity:1"
       inkscape:connector-curvature="0"
       id="path76"
       d="m 159.2,18.3 c -1,-3.2 -2.3,-5.9 -4,-7.9 l -0.3,-0.3 c -1.5,-1.7 -4,-4.7 -9.3,-6.4 -1.4,-0.4 -3.6,-0.9 -6.1,-0.9 -1.7,0 -3.5,0.3 -5.1,0.7 -3.9,1.1 -6.9,3.1 -9.4,6.4 v 0 c -1.8,2.6 -2.9,5.7 -3.1,8.6 0,4.5 1.3,8 4.3,11 v 0 c 1,0.9 1.9,1.6 3,2.1 -0.3,0.1 -0.6,0.3 -0.8,0.5 v 0.1 c -0.4,0.7 -0.6,1.7 -0.6,2.3 v 0.1 c 0,0.3 -0.1,0.6 -0.1,1 H 0 v 17.8 h 122.4 c -0.4,0.8 -0.4,1.3 -0.2,2.1 0.3,0.8 1.5,0.8 1.8,0.8 h 0.1 v 0 c 2.2,0 6,-1.2 8.1,-1.9 h 0.1 c 4.5,-1.5 10,-5 10.2,-5.2 0.3,-0.2 0.6,-0.3 1,-0.6 3.3,-2.1 9,-5.6 12.1,-9.9 1.9,-2.6 3.1,-4.8 3.9,-9.1 v 0 c 0,-0.1 0,-0.1 0,-0.2 0.8,-3.3 0.6,-7.1 -0.3,-11.1 z M 11.8,50.5 h -6 v -12 H 8.2 V 48.6 H 12 Z M 23.4,40.6 H 19 v 2.7 h 4.2 v 2 H 19 v 3.2 h 4.4 v 2 h -6.7 v -12 h 6.7 z m 14.3,9.9 -1,-2.5 h -5 l -1,2.5 H 28.2 L 33.4,38.2 H 35 l 5.1,12.3 z m 13.3,0 -3.2,-4.9 h -0.3 v 4.9 h -2.4 v -12 h 3.5 c 1.3,0 2.4,0.3 3.1,0.9 0.8,0.6 1.2,1.7 1.2,2.7 0,1 -0.4,2.1 -1,2.6 -0.4,0.4 -0.9,0.6 -1.7,0.8 l 3.8,5.1 z m 19.3,0.3 h -1.7 l -7.3,-8.4 v 8.2 H 58.9 V 38.2 h 1.7 l 7.3,8.4 v -8.1 h 2.4 z M 79,50.5 h -2.4 v -12 H 79 Z m 17.7,0.3 H 95 l -7.3,-8.4 v 8.2 H 85.3 V 38.2 H 87 l 7.3,8.4 v -8.1 h 2.4 z M 114,47.7 c -1,2 -2.9,3.1 -5.2,3.1 -3.7,0 -6.4,-2.6 -6.4,-6.3 0,-3.7 2.7,-6.4 6.4,-6.4 2.3,0 4,1 5.2,2.9 l -2.1,1.1 c -0.7,-1.1 -1.8,-1.8 -3.1,-1.8 -2.3,0 -3.9,1.8 -3.9,4.2 0,2.4 1.7,4.1 3.9,4.1 1.7,0 3,-1 3.1,-2.5 H 109 v -2 h 5.5 c 0.1,1.8 -0.1,2.7 -0.5,3.6 z m 45.1,-18.1 c -0.9,4.1 -1.9,6.2 -3.8,8.8 -3.3,4.6 -9.8,8.4 -12.8,10.3 -1.3,0.9 -6.1,3.8 -10.1,5.1 -0.5,0.2 -8.8,3.1 -9.6,1.4 -0.3,-0.8 -0.3,-1.1 1,-2.8 3.1,-4.6 3.1,-5.4 3.6,-6.6 0.4,-1 0.8,-2.4 0.8,-5.2 0,-1 -0.1,-4.5 0.1,-6 0.1,-0.5 0.2,-1.5 0.6,-2.1 0.3,-0.3 0.8,-0.6 1.6,-0.3 1.3,0.3 3,0.6 4.1,0.6 0.1,0 0.3,0 0.3,-0.1 0,-0.1 0,-0.1 -0.3,-0.1 -3.7,-0.3 -6.3,-2.1 -8,-3.6 -3.4,-3.5 -4.1,-7.4 -4.1,-10.7 0.2,-3.1 1.4,-5.9 3,-8.3 2.1,-2.6 4.8,-4.9 9.2,-6.2 4.5,-1.3 8.7,-0.4 10.8,0.2 5.4,1.7 7.9,4.9 9.3,6.6 2.1,2.4 3.2,5.3 3.9,7.7 1.4,6.7 0.5,10.7 0.4,11.3 z" /><path
       style="fill:#a58260;fill-opacity:1"
       inkscape:connector-curvature="0"
       id="path78"
       d="m 48.2,40.4 h -0.7 v 3.7 h 0.7 c 1.5,0 2.3,-0.6 2.3,-1.8 -0.1,-1.3 -0.9,-1.9 -2.3,-1.9 z" /><polygon
       style="fill:#a58260;fill-opacity:1"
       id="polygon80"
       points="32.4,46.1 35.9,46.1 34.2,41.8 " /></g></svg>