<svg height="2.669681mm" viewBox="0 0 6.0676365 2.6696811" width="6.067637mm" xmlns="http://www.w3.org/2000/svg"><g transform="translate(33.271914 -60.563969)"><path d="m0 0v-1.85l.991-.992h2.916v1.85l-.879.992z" fill="#fcc400" transform="matrix(.35277777 0 0 -.35277777 -28.58258 60.563969)"/><path d="m0 0v-.685h-.333v.685h-.427v-1.726h.427v.635h.333v-.635h.425v1.726z" transform="matrix(.35277777 0 0 -.35277777 -28.065055 60.759866)"/><path d="m0 0v-1.726h.935l.24.24v1.246l-.24.24zm.428-.335h.252l.068-.067v-.921l-.068-.068h-.252z" transform="matrix(.35277777 0 0 -.35277777 -27.83836 60.761454)"/><path d="m-28.679912 61.626325h-.381706v.763411h.381706zm-.763764 1.14547v-1.527175h.763764l.381705.381705v1.14547z" fill="#e20023"/><path d="m0 0v-5.835h2.164v1.082h-1.082v2.165h1.082v1.081h-1.082v1.507z" fill="#e20023" transform="matrix(.35277777 0 0 -.35277777 -30.302477 60.713194)"/><path d="m0 0v-1.507h-2.165v-3.246l1.082-1.083h2.165v5.836zm-1.083-2.588h1.083v-2.164h-1.083z" transform="matrix(.35277777 0 0 -.35277777 -32.50815 60.713194)"/><path d="m-31.265067 62.390089h-.381706v-.304447h.381706zm-.763764-.763764h.763764v.07761h-.763764v1.067859h1.145469v-1.527174h-1.145469z"/><path d="m0 0v-4.555l1.083-1.083v5.638z" transform="matrix(.35277777 0 0 -.35277777 -30.787935 61.244689)"/><path d="m-30.787759 61.167361h.382058v-.454025h-.382058z"/></g></svg>