<svg height="67.105751pt" viewBox="0 0 88.605949 67.105751" width="88.605949pt" xmlns="http://www.w3.org/2000/svg"><g fill="#fff" transform="translate(-.57 -.894246)"><path d="m76.35 1.47c4.57-2.01 10.36 1.5 10.46 6.54.61 5.59-6.14 10-11.02 7.19-5.53-2.45-5.2-11.74.56-13.73m-2.26 4.88c-1.948438 1.5419758 2.054382 3.884627 2.65 1.49.384948-1.5476482-1.578435-2.3380265-2.65-1.49z"/><path d="m8.86 4.7660001h7.848602c3.010533 0 6.010816.021725 8.951398.6739999 5.015604 1.4854577 7.235441 6.734001 7.249094 11.619135.0045 1.60219-.01934 2.225369-.09293 3.29628-.326049 4.78062-3.813725 9.428169-8.806164 9.904585-2.382378.227344-4.771423.24225-7.162012.24225h-7.9882379v-25.7362499m8.2402499 6.0039999c-.02 4.58-.02 9.141-.01 13.721h2.293179c1.729991 0 3.47472-.150384 4.406821-1.761 1.36-2.74 1.13-6.08.36-8.96-.87-3.04-4.53-2.87-7.05-3z"/><path d="m34.31 30.46 9.63-25.65h8.87l9.69 25.65-8.59.01-1.26-4.1-8.71-.02-1.28 4.11zm11.39-9.92 5.17.01-2.59-8.49z"/><path d="m56.8 8.11 14.46-2.45.36 5.91z"/><path d="m71.07 22.16c2.42-2.43 5.51-4.47 8.93-5.04 4.56.72 7.44 5.01 8.44 9.21 1.57 6.76.44 13.84-1.62 20.37l-4.05 21.3h-.3l-3.89-22.53c-2.47-3.49-5.98-6.22-7.89-10.14-2.35-3.97-2.96-9.57.38-13.17z"/><path d="m .57 35.51h23.89l.01 6.510001h-8.08l-.02 19.219999h-8.21l-.02-19.219999h-7.54z"/><path d="m27.84 35.51 21.579751.01v5.65l-13.44975.03v3.82l12.399999.02.01 5.4-12.409999.01v4.72l13.789999.02.02 6.05h-21.95z"/><path d="m53.790001 35.52h8.13v19.28l12.539999.02v6.42l-20.669999-.01z"/></g></svg>