<svg height="60mm" viewBox="0 0 123.99999 60" width="124mm" xmlns="http://www.w3.org/2000/svg" xmlns:xlink="http://www.w3.org/1999/xlink"><linearGradient id="a" gradientUnits="userSpaceOnUse" x1="62.545" x2="62.545" y1="54.255" y2="5.5448"><stop offset="0" stop-color="#3a18cf"/><stop offset="1" stop-color="#557ad5"/></linearGradient><linearGradient id="b" gradientUnits="userSpaceOnUse" x1="62.785" x2="62.785" y1="58.915" y2=".5178"><stop offset="0" stop-color="#c80108"/><stop offset="1" stop-color="#ee3634"/></linearGradient><path d="m .58692 5.5v2.5699c4.7858.49425 5.463.93896 5.463 7.1167v27.577c0 6.2271-.67719 6.6225-6.0499 7.1661v2.5699h17.653c8.488 0 15.667-2.0263 20.723-6.0294 5.2824-4.2503 8.6234-10.576 8.6234-19.373 0-6.919-2.7089-12.009-6.0951-15.42-4.4246-4.3985-11.061-6.1777-19.504-6.1777zm14.402 8.204c0-2.0757.13551-3.4101.72236-4.102.45152-.49425 1.8963-1.0873 4.5149-1.0873 4.9212 0 8.6234 1.5815 11.513 4.5962 3.1604 3.2618 5.1921 8.797 5.1921 15.469 0 12.454-6.3209 20.658-15.892 20.658-5.1018 0-6.05-1.7792-6.05-7.0179z" fill="url(#a)"/><path d="m124 5.5h-17.068v2.7363c6.027.81073 5.9788 1.8242 4.3394 6.9928-1.9769 6.1313-4.7734 13.884-9.1128 25.843h-.24119c-2.5072-6.5874-8.2449-21.637-10.511-27.971-1.109-3.091-1.2536-4.0031 4.1466-4.8645v-2.7363h-21.552v2.7363c4.4841.40537 5.6895 1.6215 7.9074 7.2968 3.0376 7.6008 9.8361 25.437 14.851 38.967h3.6162c5.6895-15.354 12.295-32.126 14.609-37.7 2.8929-7.0434 4.243-8.0569 9.0164-8.5636z" fill="url(#a)"/><path d="m90 17.551c-.4306-5.6478-.98431-13.785-1.0459-17.551h-2.1532c-1.6611 1.7004-2.8915 2.2469-5.4139 2.2469h-37.774c-2.6454 0-3.8758-.18215-5.2908-2.2469h-2.2763c-.18453 4.5546-.6768 11.174-1.0459 17.794h3.3837c1.169-4.4939 2.3378-7.5911 3.9374-9.1093 1.2919-1.3968 2.7685-2.4899 11.135-2.4899h2.953v41.842c0 7.6518-.98431 8.1376-8.7975 8.8057v3.1579h30.207v-3.1579c-8.1823-.66809-9.1667-1.1539-9.1667-8.8057v-41.842h4.0604c5.906 0 8.1208.54657 9.8434 2.1255 1.5996 1.7004 3.0761 4.7976 4.1219 9.413z" fill="url(#b)"/></svg>