<?xml version="1.0" encoding="UTF-8" standalone="no"?>
<!-- Created with Inkscape (http://www.inkscape.org/) -->

<svg
   xmlns:dc="http://purl.org/dc/elements/1.1/"
   xmlns:cc="http://creativecommons.org/ns#"
   xmlns:rdf="http://www.w3.org/1999/02/22-rdf-syntax-ns#"
   xmlns:svg="http://www.w3.org/2000/svg"
   xmlns="http://www.w3.org/2000/svg"
   xmlns:sodipodi="http://sodipodi.sourceforge.net/DTD/sodipodi-0.dtd"
   xmlns:inkscape="http://www.inkscape.org/namespaces/inkscape"
   width="6.3875718mm"
   height="2.8095222mm"
   viewBox="0 0 6.3875718 2.8095222"
   version="1.1"
   id="svg60673"
   inkscape:version="0.92.0 r15299"
   sodipodi:docname="DocuBox HD - Dark.svg">
  <defs
     id="defs60667">
    <clipPath
       clipPathUnits="userSpaceOnUse"
       id="clipPath31910">
      <path
         d="m 80.539,62.456 h 18.106 v 8.6 H 80.539 Z"
         id="path31908"
         inkscape:connector-curvature="0" />
    </clipPath>
  </defs>
  <sodipodi:namedview
     id="base"
     pagecolor="#ffffff"
     bordercolor="#666666"
     borderopacity="1.0"
     inkscape:pageopacity="0.0"
     inkscape:pageshadow="2"
     inkscape:zoom="44.8"
     inkscape:cx="12.482949"
     inkscape:cy="4.9968636"
     inkscape:document-units="mm"
     inkscape:current-layer="layer1"
     showgrid="false"
     fit-margin-top="0"
     fit-margin-left="0"
     fit-margin-right="0"
     fit-margin-bottom="0"
     inkscape:window-width="1920"
     inkscape:window-height="1017"
     inkscape:window-x="-8"
     inkscape:window-y="-8"
     inkscape:window-maximized="1" />
  <metadata
     id="metadata60670">
    <rdf:RDF>
      <cc:Work
         rdf:about="">
        <dc:format>image/svg+xml</dc:format>
        <dc:type
           rdf:resource="http://purl.org/dc/dcmitype/StillImage" />
        <dc:title></dc:title>
      </cc:Work>
    </rdf:RDF>
  </metadata>
  <g
     inkscape:label="Layer 1"
     inkscape:groupmode="layer"
     id="layer1"
     transform="translate(-69.377643,-134.57738)">
    <g
       id="g31896"
       transform="matrix(0.35277777,0,0,-0.35277777,72.964512,134.57738)">
      <path
         d="M 0,0 V -7.059 L 7.939,-7.964 7.059,0 Z"
         style="fill:#57ab27;fill-opacity:1;fill-rule:nonzero;stroke:none"
         id="path31898"
         inkscape:connector-curvature="0" />
    </g>
    <g
       id="g31900"
       transform="matrix(0.35277777,0,0,-0.35277777,74.998451,135.94037)">
      <path
         d="m 0,0 -0.47,-0.83 h -0.517 l 0.756,1.191 -0.735,1.156 h 0.517 L 0,0.701 0.456,1.517 H 0.973 L 0.245,0.361 0.994,-0.83 H 0.476 Z"
         style="fill:#ffffff;fill-opacity:1;fill-rule:evenodd;stroke:none"
         id="path31902"
         inkscape:connector-curvature="0" />
    </g>
    <g
       transform="matrix(0.35277777,0,0,-0.35277777,40.965274,159.53225)"
       id="g31904">
      <g
         id="g31906"
         clip-path="url(#clipPath31910)">
        <g
           id="g31912"
           transform="translate(92.1539,67.0754)">
          <path
             d="M 0,0 H -0.388 V -0.626 H 0 V -1.041 H -0.823 V 0 h -0.321 l 10e-4,0.374 h 0.32 L -0.824,1.327 H 0 V 0.912 H -0.388 V 0.374 H 0 Z M 0.014,0 H 0 V 0.374 H 0.014 C 0.163,0.374 0.3,0.51 0.3,0.646 0.3,0.803 0.157,0.912 0.014,0.912 H 0 v 0.415 h 0.014 c 0.578,0 0.728,-0.463 0.728,-0.674 0,-0.109 -0.041,-0.306 -0.245,-0.435 0.218,-0.062 0.374,-0.279 0.374,-0.552 0,-0.163 -0.143,-0.707 -0.851,-0.707 H 0 v 0.415 h 0.014 c 0.231,0 0.374,0.15 0.374,0.306 C 0.388,-0.17 0.279,0 0.014,0"
             style="fill:#ffffff;fill-opacity:1;fill-rule:evenodd;stroke:none"
             id="path31914"
             inkscape:connector-curvature="0" />
        </g>
        <g
           id="g31916"
           transform="translate(94.428,66.4559)">
          <path
             d="m 0,0 c -0.422,0 -0.762,0.34 -0.762,0.762 0,0.422 0.34,0.762 0.762,0.762 v 0.463 h -0.014 c -0.673,0 -1.224,-0.544 -1.224,-1.225 0,-0.673 0.551,-1.225 1.224,-1.225 H 0 Z M 0,0 V 0 -0.463 C 0.674,-0.456 1.218,0.089 1.218,0.762 1.218,1.436 0.674,1.98 0,1.987 V 1.524 c 0.422,0 0.762,-0.34 0.762,-0.762 C 0.762,0.34 0.422,0 0,0"
             style="fill:#ffffff;fill-opacity:1;fill-rule:evenodd;stroke:none"
             id="path31918"
             inkscape:connector-curvature="0" />
        </g>
        <g
           id="g31920"
           transform="translate(96.4062,63.9786)">
          <path
             d="M 0,0 H -0.382 V 0.447 H -0.707 V 0 h -0.382 v 1.257 h 0.382 V 0.811 h 0.325 V 1.257 H 0 Z"
             style="fill:#ffffff;fill-opacity:1;fill-rule:nonzero;stroke:none"
             id="path31922"
             inkscape:connector-curvature="0" />
        </g>
        <g
           id="g31924"
           transform="translate(96.9387,64.3423)">
          <path
             d="m 0,0 h 0.174 c 0.123,0 0.255,0.081 0.255,0.26 0,0.177 -0.128,0.269 -0.255,0.269 H 0 Z m 0.174,-0.364 h -0.556 v 1.257 h 0.556 c 0.37,0 0.648,-0.272 0.648,-0.633 0,-0.362 -0.272,-0.624 -0.648,-0.624"
             style="fill:#ffffff;fill-opacity:1;fill-rule:nonzero;stroke:none"
             id="path31926"
             inkscape:connector-curvature="0" />
        </g>
        <g
           id="g31928"
           transform="translate(85.5085,67.1776)">
          <path
             d="m 0,0 c 0,-0.691 -0.56,-1.252 -1.251,-1.252 -0.691,0 -1.252,0.561 -1.252,1.252 0,0.691 0.561,1.251 1.252,1.251 C -0.56,1.251 0,0.691 0,0 Z"
             style="fill:none;stroke:#000000;stroke-width:0.023;stroke-linecap:butt;stroke-linejoin:miter;stroke-miterlimit:10;stroke-dasharray:none;stroke-opacity:1"
             id="path31930"
             inkscape:connector-curvature="0" />
        </g>
        <g
           id="g31932"
           transform="translate(85.494,67.266)">
          <path
             d="M 0,0 C 0.003,-0.014 0.011,-0.013 0.008,0.024 0.005,0.06 0.007,0.06 -0.003,0.13 -0.009,0.165 -0.011,0.168 -0.027,0.236 -0.036,0.271 -0.036,0.269 -0.058,0.334 -0.069,0.368 -0.069,0.368 -0.096,0.431 -0.11,0.464 -0.111,0.462 -0.143,0.522 -0.16,0.553 -0.162,0.554 -0.198,0.612 -0.218,0.641 -0.217,0.638 -0.258,0.692 -0.28,0.721 -0.279,0.719 -0.324,0.769 -0.349,0.796 -0.352,0.798 -0.4,0.844 -0.428,0.87 -0.432,0.871 -0.484,0.913 -0.516,0.937 -0.531,0.945 -0.586,0.982 -0.609,0.997 -0.624,1.004 -0.648,1.018 -0.652,1.02 -0.671,1.029 -0.675,1.032 -0.707,1.048 -0.697,1.04 -0.713,1.044 c 0,0 0.014,-0.007 0.038,-0.023 V 1.02 c -0.03,0.011 -0.056,0.032 -0.09,0.037 v 0 L -0.769,1.054 c -0.047,0.014 -0.047,0.014 -0.051,0.015 0.003,-0.002 0.007,-0.004 0.011,-0.005 -0.045,0.014 -0.058,0.014 -0.068,0.012 0.046,-0.023 0.1,-0.021 0.146,-0.044 -0.003,0 -0.008,10e-4 -0.011,10e-4 0,0 0.096,-0.056 0.117,-0.075 C -0.628,0.957 -0.633,0.956 -0.636,0.956 -0.6,0.92 -0.525,0.926 -0.518,0.857 -0.596,0.919 -0.596,0.919 -0.63,0.942 -0.634,0.942 -0.639,0.941 -0.643,0.941 -0.59,0.896 -0.59,0.896 -0.581,0.881 -0.587,0.884 -0.596,0.886 -0.603,0.887 -0.594,0.876 -0.585,0.866 -0.576,0.855 -0.58,0.851 -0.58,0.851 -0.592,0.81 c -0.015,0.005 -0.015,0.005 -0.032,0.023 -0.004,0 -0.009,0.001 -0.012,0.001 0.015,-0.017 0.032,-0.032 0.046,-0.049 0,-0.003 -0.001,-0.008 -0.002,-0.012 -0.052,0.015 -0.094,0.052 -0.146,0.069 -0.003,-0.002 -0.007,-0.005 -0.01,-0.007 0,-0.021 0,-0.021 -0.012,-0.03 0.001,-0.004 0.002,-0.009 0.003,-0.012 -0.004,0.001 -0.008,0.003 -0.012,0.005 L -0.771,0.788 C -0.769,0.782 -0.765,0.772 -0.762,0.765 -0.781,0.736 -0.752,0.702 -0.776,0.673 -0.774,0.664 -0.771,0.652 -0.77,0.643 -0.779,0.633 -0.792,0.628 -0.801,0.618 -0.767,0.531 -0.767,0.531 -0.76,0.523 c 0.009,0.003 0.021,0.01 0.026,0.018 0.004,0 0.01,0 0.014,0 0.017,-0.02 0.017,-0.052 0.049,-0.061 0.022,0.033 -0.01,0.071 0.009,0.104 -0.034,0.075 -0.034,0.075 -0.016,0.09 0.06,-0.058 0.06,-0.058 0.091,-0.069 C -0.593,0.592 -0.605,0.584 -0.614,0.573 -0.607,0.554 -0.611,0.551 -0.621,0.542 -0.618,0.463 -0.618,0.463 -0.631,0.453 l -0.01,0.004 C -0.662,0.459 -0.681,0.445 -0.703,0.447 -0.714,0.467 -0.712,0.492 -0.727,0.51 -0.731,0.51 -0.736,0.509 -0.739,0.508 -0.758,0.365 -0.758,0.365 -0.875,0.299 -0.875,0.296 -0.874,0.29 -0.874,0.287 -0.84,0.262 -0.859,0.218 -0.86,0.217 -0.879,0.189 -0.914,0.215 -0.935,0.195 -0.947,0.184 -0.974,0.059 -0.97,0.05 c 0.006,-0.012 0.006,-0.012 0.099,0.006 0,0 0,0 0.001,0 0,0 0,0 0.006,0.001 0,0 0,0 0.003,0 0.084,0.022 0.038,0.146 0.134,0.158 0.011,-0.032 0.001,-0.066 0.014,-0.098 0.004,-0.001 0.01,-0.002 0.014,-0.004 0.012,0.013 0.012,0.013 0.012,0.08 0.004,0.001 0.009,0.002 0.013,0.004 C -0.643,0.171 -0.63,0.145 -0.636,0.117 -0.639,0.116 -0.644,0.115 -0.647,0.113 -0.65,0.106 -0.654,0.097 -0.653,0.089 c 0.005,-0.043 0.005,-0.043 0.076,0.053 0.003,-0.001 0.008,-0.003 0.011,-0.004 0.009,-0.036 0.009,-0.036 0.023,-0.05 0.03,0.004 0.035,0.037 0.062,0.218 0.004,0.002 0.008,0.003 0.011,0.004 0.042,-0.029 0.042,-0.029 0.051,-0.023 -0.001,0.012 -0.006,0.023 -0.005,0.035 0.004,0 0.008,0 0.012,-0.001 C -0.406,0.294 -0.361,0.292 -0.368,0.256 -0.369,0.249 -0.369,0.249 -0.431,0.231 -0.441,0.228 -0.496,0.159 -0.492,0.14 -0.491,0.136 -0.491,0.136 -0.402,0.102 -0.367,0.013 -0.534,0.05 -0.566,-0.02 -0.58,-0.025 -0.65,-0.001 -0.651,0 -0.672,0.017 -0.657,0.042 -0.663,0.063 -0.678,0.11 -0.902,0.021 -0.939,-0.005 c 0,0 -0.14,-0.134 -0.163,-0.233 -0.022,-0.1 -0.046,-0.203 -0.035,-0.226 0.041,-0.089 0.106,-0.186 0.178,-0.138 0.002,0.001 0.213,0.109 0.217,-0.02 0.001,-0.058 0.049,-0.102 0.052,-0.159 0.002,-0.057 -0.036,-0.104 -0.042,-0.158 0,-0.002 -0.004,-0.144 0.003,-0.154 0.012,-0.018 0.014,-0.039 0.031,-0.038 0,0 0.043,0.013 0.048,0.015 0.1,0.033 0.146,0.161 0.147,0.162 0.028,0.044 0.064,0.082 0.093,0.125 0.023,0.032 0.023,0.032 0.033,0.144 0.012,0.127 0.143,0.201 0.156,0.327 -0.003,0.002 -0.007,0.004 -0.011,0.006 -0.012,-0.006 -0.023,-0.014 -0.035,-0.018 -0.05,-0.018 -0.101,0.304 -0.099,0.308 0.075,-0.063 0.052,-0.163 0.095,-0.238 0.042,-0.004 0.161,0.167 0.125,0.236 -0.003,0 -0.008,0.001 -0.011,0.002 -0.02,0.04 -0.024,0.022 0.054,0.039 0.069,-0.078 0.032,-0.162 0.065,-0.248 0.031,0.101 -0.008,0.21 0.036,0.31 C 0.006,0.004 0.001,-0.003 0,0"
             style="fill:#111211;fill-opacity:1;fill-rule:nonzero;stroke:none"
             id="path31934"
             inkscape:connector-curvature="0" />
        </g>
        <g
           id="g31936"
           transform="translate(84.7627,68.1989)">
          <path
             d="m 0,0 v 0 0 c 0.001,0.001 0.001,0.003 -0.01,0.009 -0.007,0.004 -0.028,0.014 -0.034,0.012 v 0 c -0.001,-0.002 -0.001,-0.005 0.003,-0.016 0.005,-0.013 0.008,-0.019 0.019,-0.031 0.002,-0.002 0.005,-0.005 0.007,-0.007 0.004,-0.004 0.004,-0.004 0.031,-0.027 0.006,-0.006 0.01,-0.012 0.015,-0.017 0.005,-0.004 0.046,-0.034 0.058,-0.036 0.006,0 0.004,0.005 0.002,0.007 C 0.086,-0.1 0.082,-0.097 0.065,-0.084 0.054,-0.076 0.018,-0.048 0.009,-0.037 0.007,-0.033 0.014,-0.033 0.014,-0.029 0.012,-0.019 0.003,-0.013 0,-0.004 -0.001,-0.001 0,-0.001 0,0"
             style="fill:#111211;fill-opacity:1;fill-rule:nonzero;stroke:none"
             id="path31938"
             inkscape:connector-curvature="0" />
        </g>
        <g
           id="g31940"
           transform="translate(84.2827,68.2049)">
          <path
             d="m 0,0 z m -0.181,-1.679 c -0.034,0.002 -0.038,0.013 -0.04,0.031 -0.095,0.024 -0.096,0.025 -0.095,0.063 0.001,0.021 0.002,0.03 -0.026,0.053 -0.02,0.017 -0.048,0.024 -0.068,0.041 -0.004,0.003 -0.01,0.008 -0.014,0.011 -0.005,0.004 -0.008,0.011 -0.011,0.016 -0.006,10e-4 -0.013,0.002 -0.018,0.003 -0.015,0.093 -0.132,0.062 -0.176,0.12 -0.078,-0.006 -0.078,-0.006 -0.099,-0.018 -0.002,0.002 -0.007,0.005 -0.01,0.008 -0.006,-0.004 -0.015,-0.01 -0.021,-0.015 -0.027,0.006 -0.03,0.036 -0.03,0.037 0.005,0.085 -0.026,0.113 -0.076,0.132 0.007,0.031 0.019,0.061 0.025,0.093 -0.001,0.001 -0.001,0.001 -0.077,-0.037 -0.003,0.002 -0.008,0.004 -0.011,0.006 -0.038,0.028 -0.046,0.152 -0.012,0.198 0.038,0.053 0.096,-0.014 0.145,-0.013 0.02,-0.032 -0.011,-0.074 0.023,-0.104 0.009,0.004 0.038,-0.013 0.046,-0.008 0.014,0.154 0.134,0.299 0.136,0.3 0.003,-0.001 0.008,-0.003 0.011,-0.004 0.012,0.039 0.022,0.043 0.048,0.055 0.004,-0.001 0.009,-0.002 0.012,-0.004 0,-0.007 0.001,-0.017 0.002,-0.024 0.032,0.009 0.058,0.029 0.089,0.041 0.003,-0.003 0.007,-0.008 0.01,-0.011 0.021,0.003 0.038,0.026 0.063,0.01 0.019,0.031 -0.02,0.056 -0.014,0.085 -0.007,0 -0.016,-0.001 -0.022,-0.001 -0.037,-0.059 -0.037,-0.059 -0.095,-0.077 0,0.018 -0.016,0.032 -0.015,0.051 0.038,0.008 0.191,0.066 0.118,0.11 0.001,0.003 0.002,0.008 0.003,0.011 -0.059,0.03 -0.01,0.091 -0.047,0.127 -0.018,-0.015 -0.026,-0.036 -0.043,-0.051 0,0 0,0 0.005,0.093 -0.004,0.002 -0.009,0.004 -0.013,0.007 -0.001,0.008 -0.003,0.019 -0.004,0.028 -0.019,-0.001 -0.019,-0.001 -0.044,-0.004 -0.042,-0.062 -0.054,-0.137 -0.103,-0.196 -0.001,0.006 -0.001,0.006 0.008,0.068 -0.022,0.026 -0.02,0.068 -0.062,0.081 l 0.009,0.035 c 0.221,0.155 0.221,0.155 0.238,0.176 0.007,-0.003 0.018,-0.01 0.023,-0.016 -0.007,-0.019 -0.007,-0.019 -0.043,-0.05 0,-0.004 0,-0.01 0,-0.014 0.007,-0.002 0.017,-0.001 0.024,0.001 0,-0.001 0,-0.002 0,-0.003 -0.071,-0.055 -0.071,-0.055 -0.062,-0.075 l 0.032,0.018 c 0.005,-0.052 0.019,-0.061 0.038,-0.068 0.022,0.017 0.028,0.031 0.033,0.048 -0.005,0.006 -0.01,0.014 -0.013,0.021 0.002,0.004 0.006,0.008 0.009,0.012 0.008,-0.001 0.018,-0.007 0.023,-0.012 0.009,0.01 0.021,0.024 0.03,0.034 -0.004,0.006 -0.013,0.012 -0.021,0.013 -0.002,0.008 -0.005,0.019 -0.008,0.027 0.007,0.009 0.014,0.021 0.02,0.03 -0.018,0.045 -0.018,0.045 0,0.091 -0.007,0 -0.017,0.004 -0.022,0.009 0.021,0.012 0.021,0.012 0.03,0.026 l 0.166,0.072 c 0,0 -0.084,-0.058 -0.106,-0.072 0.002,-0.001 0.005,-0.001 0.007,-0.002 0,-0.001 0,-0.003 -0.003,-0.006 -0.001,-0.001 -0.002,-0.002 -0.003,-0.002 v 0 c 0,-0.001 -0.001,-0.002 -0.001,-0.002 -0.003,-0.003 -0.006,-0.005 -0.009,-0.007 l 0.006,0.001 c 0.001,0 0.002,0 0.002,0.001 0.006,0.002 0.011,0.002 0.015,0.003 0.008,0.001 0.013,0 0.018,-0.003 0.003,-0.002 0.006,-0.004 0.008,-0.01 0.007,-0.015 0.007,-0.031 0.011,-0.047 -0.006,-0.007 -0.012,-0.014 -0.017,-0.021 -0.002,-0.004 -0.003,-0.009 -0.005,-0.015 0,-0.001 0,-0.002 0,-0.003 0.004,-0.003 0.008,-0.008 0.011,-0.011 -0.004,-0.003 -0.007,-0.005 -0.009,-0.007 -0.003,-0.002 -0.005,-0.004 -0.007,-0.006 -0.003,-0.005 -0.005,-0.009 -0.009,-0.018 0,0 0,-0.001 0,-0.002 0.004,-0.002 0.009,-0.005 0.015,-0.007 0.001,0.001 0.001,0.001 0.005,0 0.001,0 0.003,-0.001 0.003,-0.002 -0.002,-0.004 -0.005,-0.007 -0.009,-0.01 -0.012,-0.014 -0.024,-0.032 -0.03,-0.058 0.002,-0.005 0.004,-0.011 0.005,-0.017 0.002,-0.026 -0.001,-0.051 0.002,-0.076 0,-0.004 0.001,-0.008 0.001,-0.011 0.002,-0.007 0.004,-0.013 0.006,-0.018 0.001,-0.003 0.003,-0.006 0.005,-0.009 0.003,-0.005 0.008,-0.01 0.014,-0.015 0.01,-0.006 0.024,-0.008 0.043,0.002 0.029,0.017 0.031,0.044 0.035,0.07 -0.004,-0.005 -0.008,-0.011 -0.016,-0.019 0.009,0.024 0.018,0.044 0.029,0.057 0.001,0.002 0.003,0.003 0.004,0.005 0.001,0 0.001,0.001 0.002,0.002 v 0 c 0,0 0.002,0.001 0.004,0.003 0.002,0.001 0.004,0.003 0.006,0.005 0.008,0.006 0.022,0.015 0.037,0.02 0.007,0.005 0.014,0.006 0.022,0.005 0.002,0 0.003,0 0.007,-0.001 v 0 c 0.025,-0.005 0.032,-0.006 0.046,0.016 l -0.018,0.018 v 0 l 0.016,0.013 c 0,-0.001 0.001,-0.003 0.001,-0.004 0.001,-0.002 0.003,-0.004 0.004,-0.005 0.003,0.002 0.008,0.005 0.011,0.007 -0.001,0.011 -0.001,0.011 -0.022,0.034 0.001,0.001 0.002,0.003 0.004,0.004 -0.001,0 -0.001,0 -0.002,0 0.002,0.002 0.004,0.003 0.006,0.005 0.042,0.042 0.042,0.044 0.032,0.077 0.001,0.002 0.004,0.007 0.006,0.01 0.001,0.005 0.003,0.012 0.004,0.017 -0.003,0.002 -0.007,0.005 -0.01,0.007 0.011,0.031 0.011,0.031 0.013,0.043 0.007,0.002 0.018,0.005 0.025,0.006 0.005,0.006 0.008,0.015 0.009,0.022 C 0.04,-0.028 0.033,-0.029 0.025,-0.03 c 0.005,0 0.009,10e-4 0.013,0 h 0.001 c -0.001,0 -0.001,0 -0.001,0 -0.005,-0.001 -0.009,-0.001 -0.013,0 -0.01,-0.002 -0.02,-0.003 -0.028,-0.008 v 0.005 c 0.003,0.005 0.008,0.011 0.013,0.015 -0.003,0.002 -0.008,0.004 -0.011,0.006 -0.002,-10e-4 -0.004,-10e-4 -0.006,-0.002 -0.003,-10e-4 -0.004,-10e-4 -0.004,-10e-4 -0.004,10e-4 -0.003,0.005 -0.003,0.007 0,0.001 0,0.001 0.005,0.004 0,0 0,0 10e-4,0 -10e-4,0 -10e-4,-0.001 -10e-4,-0.001 0.013,0.006 0.03,0.002 0.042,0.012 C 0.032,0.008 0.03,0.01 0.029,0.013 0.026,0.012 0.021,0.012 0.018,0.012 V 0.011 c 0,0 0,0 0,0 C 0.017,0.01 0.017,0.01 0.016,0.009 c 0,0.001 0,0.002 0.001,0.003 -0.003,0.002 -0.006,0.006 -0.008,0.009 0,0 -10e-4,0 -0.002,0 C 0.004,0.02 0,0.019 -0.004,0.019 v 0 c -0.006,-0.001 -0.009,0 -0.007,0.006 10e-4,0 10e-4,0 10e-4,0 0.001,-0.001 0.002,-0.002 0.004,-0.003 h 0.001 C -0.006,0.025 -0.007,0.028 -0.008,0.03 v 0 C -0.021,0.029 -0.025,0.028 -0.063,0.008 -0.06,0.015 -0.056,0.024 -0.053,0.03 -0.061,0.028 -0.071,0.024 -0.079,0.022 -0.078,0.026 -0.077,0.031 -0.076,0.035 -0.085,0.031 -0.098,0.027 -0.107,0.026 -0.104,0.032 -0.101,0.042 -0.1,0.05 -0.107,0.047 -0.117,0.045 -0.125,0.043 -0.127,0.046 -0.13,0.05 -0.133,0.053 -0.225,0.049 -0.294,0.021 -0.335,0.004 c 0,0.003 0.001,0.006 0.001,0.009 -0.008,-0.003 -0.017,-0.011 -0.022,-0.017 0.004,0.001 0.009,0.002 0.013,0.004 -0.004,-0.005 -0.004,-0.005 -0.136,-0.066 l -0.005,-0.006 c -0.014,-0.006 -0.026,-0.015 -0.041,-0.019 0.042,0.04 0.042,0.04 0.044,0.042 -0.009,-0.001 -0.021,-0.006 -0.029,-0.011 -0.003,0.002 -0.007,0.004 -0.011,0.006 0.013,0.017 0.013,0.018 0.016,0.034 -0.013,0.002 -0.073,-0.013 -0.078,-0.043 0.008,0.001 0.019,0.003 0.027,0.006 -0.021,-0.016 -0.027,-0.044 -0.053,-0.056 -0.002,0.028 -0.002,0.028 0.003,0.038 -0.007,0.001 -0.018,0.002 -0.026,0.004 0.006,0.006 0.011,0.015 0.014,0.022 l -0.037,-0.017 c 0.002,0.002 0.005,0.006 0.007,0.009 -0.004,0 -0.009,-0.001 -0.012,-0.001 0,0 0.043,0.058 0.056,0.081 -0.017,-0.004 -0.03,-0.007 -0.077,-0.028 -0.034,-0.023 -0.071,-0.041 -0.103,-0.067 -0.02,-0.011 -0.038,-0.026 -0.057,-0.038 -0.01,-0.009 -0.024,-0.02 -0.034,-0.03 0.006,0.004 0.014,0.01 0.02,0.014 -0.01,-0.009 -0.021,-0.018 -0.031,-0.028 l 0.006,0.003 c 0,0 -0.05,-0.042 -0.072,-0.06 -0.001,-0.002 -0.002,-0.004 -0.003,-0.006 0.025,0.018 0.053,0.031 0.078,0.049 0,-0.004 0,-0.009 0,-0.012 0.005,0.001 0.012,0.003 0.017,0.003 -0.034,-0.092 -0.034,-0.092 -0.115,-0.256 -0.002,0.003 -0.006,0.006 -0.009,0.008 -0.003,-0.006 -0.008,-0.014 -0.011,-0.02 0.002,-0.006 0.006,-0.016 0.004,-0.023 -0.015,-0.052 -0.06,-0.089 -0.077,-0.139 -0.019,-0.058 -0.009,-0.12 -0.027,-0.178 -0.015,-0.043 -0.012,-0.049 -0.002,-0.068 0,0 -0.029,-0.074 0.017,-0.137 0.005,0.037 -0.003,0.076 0.01,0.112 0.037,-0.205 0.037,-0.205 0.088,-0.286 0.089,-0.004 0.067,-0.104 0.132,-0.128 0,-0.034 0,-0.053 0.082,-0.102 0.004,0.002 0.008,0.006 0.012,0.008 0.004,-0.001 0.01,-0.002 0.014,-0.003 0.012,-0.018 0.029,-0.044 0.01,-0.111 -0.003,0 -0.006,10e-4 -0.008,0.002 -0.023,-0.037 -0.025,-0.054 -0.011,-0.084 -0.004,-10e-4 -0.009,-0.003 -0.013,-0.004 0.051,-0.126 0.051,-0.126 0.176,-0.265 0.006,-0.127 0.011,-0.135 0.027,-0.158 0,-0.002 -0.005,-0.204 0.19,-0.216 l 0.001,0.009 c 0,0 -0.013,-0.007 -0.012,0.003 -0.028,0.014 -0.041,0.034 -0.065,0.052 0.001,0.025 0.001,0.025 -0.006,0.042 0.004,0.001 0.01,0.003 0.014,0.004 0.001,0.003 0.004,0.008 0.005,0.011 0.036,10e-4 0.036,10e-4 0.042,0.005 -0.01,0.027 -0.01,0.027 -0.011,0.037 0.051,-0.031 0.097,0.04 0.099,0.05 0.01,0.05 0.081,0.015 0.104,0.051 0.035,0.053 0.046,0.116 0.09,0.164 0.006,0.007 0.014,0.016 0.02,0.022 0.008,0.008 0.019,0.02 0.027,0.029 0,10e-4 -0.044,0.061 -0.118,0.067"
             style="fill:#111211;fill-opacity:1;fill-rule:nonzero;stroke:none"
             id="path31942"
             inkscape:connector-curvature="0" />
        </g>
        <g
           id="g31944"
           transform="translate(84.4332,67.8652)">
          <path
             d="m 0,0 c -0.003,0.002 -0.007,0.003 -0.01,0.004 -0.012,0.003 -0.025,0.001 -0.037,0.005 -0.009,0.003 -0.016,0.01 -0.025,0.012 -0.001,0 -0.002,0 -0.004,0 -0.012,-0.034 -0.032,-0.089 0.001,-0.093 v 0 h 0.001 c 0.002,0 0.008,0 0.015,0.005 10e-4,0 0.002,0.001 0.003,0.002 0.001,0.001 0.003,0.001 0.004,0.002 0.009,0.007 0.015,0.015 0.025,0.021 0.012,0.008 0.033,0.005 0.037,0.024 C 0.012,-0.01 0.009,-0.004 0,0"
             style="fill:#111211;fill-opacity:1;fill-rule:nonzero;stroke:none"
             id="path31946"
             inkscape:connector-curvature="0" />
        </g>
        <g
           id="g31948"
           transform="translate(84.572,67.6727)">
          <path
             d="m 0,0 c -0.003,-0.002 -0.015,-0.012 -0.015,-0.02 10e-4,-0.005 0.003,-0.012 0.01,-0.024 0.003,-0.005 0.005,-0.009 0.004,-0.013 -0.002,-0.013 -0.027,-0.015 -0.021,-0.031 0.019,-0.001 0.026,0.022 0.045,0.022 0.008,-0.001 0.015,-0.007 0.024,-0.004 0.002,0 0.003,0 0.004,0.001 0.012,0.006 0.011,0.019 0.01,0.023 C 0.059,-0.019 0.04,0 0.031,0.023 0.025,0.037 0.029,0.053 0.023,0.067 0.022,0.07 -0.002,0.114 -0.002,0.115 c -0.002,0 -0.003,0 -0.005,0 C -0.031,0.109 -0.039,0.088 -0.039,0.086 -0.041,0.057 -0.01,0.046 -0.001,0.023 0.003,0.009 0.003,0.002 0,0"
             style="fill:#111211;fill-opacity:1;fill-rule:nonzero;stroke:none"
             id="path31950"
             inkscape:connector-curvature="0" />
        </g>
        <g
           id="g31952"
           transform="translate(84.5049,67.6303)">
          <path
             d="m 0,0 c 0.005,-0.001 0.01,-0.003 0.015,-0.004 0.002,0 0.003,0 0.004,0 0.001,-0.001 0.004,-0.001 0.008,0.001 0,0 0.013,0.007 0.007,0.037 C 0.03,0.054 0.016,0.082 0.008,0.083 0.006,0.082 0.005,0.081 0.002,0.077 -0.002,0.072 -0.003,0.072 -0.007,0.068 -0.009,0.066 -0.013,0.066 -0.014,0.063 -0.017,0.06 -0.016,0.058 -0.015,0.047 -0.014,0.033 -0.019,0.025 -0.031,0.022 H -0.032 -0.033 C -0.031,0.013 -0.029,0.007 -0.025,0.004 -0.018,-0.002 -0.008,0.001 0,0"
             style="fill:#111211;fill-opacity:1;fill-rule:nonzero;stroke:none"
             id="path31954"
             inkscape:connector-curvature="0" />
        </g>
        <g
           id="g31956"
           transform="translate(81.554,66.4973)">
          <path
             d="m 0,0 c 0.387,0 0.721,0.27 0.721,0.724 0,0.454 -0.334,0.744 -0.728,0.744 H -0.551 V 0 Z M -0.007,1.902 C 0.661,1.902 1.201,1.425 1.201,0.724 1.201,0.027 0.664,-0.434 0,-0.434 h -1.015 v 2.336 z"
             style="fill:#111211;fill-opacity:1;fill-rule:nonzero;stroke:none"
             id="path31958"
             inkscape:connector-curvature="0" />
        </g>
        <g
           id="g31960"
           transform="translate(87.5911,67.7052)">
          <path
             d="m 0,0 c -0.124,0.174 -0.357,0.284 -0.587,0.284 -0.438,0 -0.728,-0.314 -0.728,-0.758 0,-0.457 0.31,-0.751 0.728,-0.751 0.267,0 0.513,0.14 0.63,0.344 l 0.468,-0.123 c -0.194,-0.414 -0.608,-0.685 -1.098,-0.685 -0.671,0 -1.212,0.511 -1.212,1.215 0,0.704 0.541,1.215 1.212,1.215 0.46,0 0.854,-0.244 1.061,-0.617 z"
             style="fill:#111211;fill-opacity:1;fill-rule:nonzero;stroke:none"
             id="path31962"
             inkscape:connector-curvature="0" />
        </g>
        <g
           id="g31964"
           transform="translate(90.3794,68.3996)">
          <path
             d="m 0,0 v -1.322 c 0,-0.687 -0.394,-1.061 -1.008,-1.061 -0.617,0 -1.008,0.374 -1.008,1.061 V 0 h 0.464 v -1.315 c 0,-0.434 0.187,-0.634 0.544,-0.634 0.354,0 0.541,0.2 0.541,0.634 V 0 Z"
             style="fill:#111211;fill-opacity:1;fill-rule:nonzero;stroke:none"
             id="path31966"
             inkscape:connector-curvature="0" />
        </g>
      </g>
    </g>
  </g>
</svg>
