<svg height="100.62" viewBox="0 0 158.75 26.624158" width="600" xmlns="http://www.w3.org/2000/svg"><g stroke-width=".91466"><path d="m41.2947 18.231h-2.49v-8.594h2.49c2.652 0 4.382 1.826 4.382 4.316 0 2.491-1.73 4.278-4.382 4.278m0-10.616h-5.441v.312c.273.0845.461.1886.566.3121.104.1169.162.2925.162.5264v11.488h4.713c3.972 0 6.709-2.763 6.709-6.332 0-3.576-2.737-6.3065-6.709-6.3065"/><path d="m57.5367 18.428c-2.51 0-4.298-2.034-4.298-4.511 0-2.471 1.755-4.473 4.258-4.473 2.509 0 4.297 2.041 4.297 4.511 0 2.471-1.749 4.473-4.257 4.473m0-11.026c-3.882 0-6.625 2.9776-6.625 6.5526 0 3.57 2.711 6.514 6.585 6.514 3.881 0 6.625-2.977 6.625-6.552 0-3.57-2.705-6.5146-6.585-6.5146"/><path d="m69.7497 13.883v-4.245h3.232c1.638 0 2.613.721 2.613 2.113 0 1.299-1.008 2.132-2.594 2.132zm5.09 1.586c1.769-.488 3.01-1.749 3.01-3.842 0-2.47-1.781-4.0113-4.686-4.0113h-6.358v.312c.272.0845.461.1886.565.3056.104.1234.155.299.155.5327v1.171h.008v10.316h2.216v-4.407h2.776l3.108 4.407h2.613z"/><path d="m87.5217 18.428c-2.418 0-4.167-2.022-4.167-4.511 0-2.49 1.749-4.473 4.167-4.473 1.443 0 2.529.63 3.537 1.567l1.419-1.638c-1.199-1.158-2.609-1.9705-4.937-1.9705-3.829 0-6.513 2.9455-6.513 6.5525 0 3.641 2.743 6.514 6.423 6.514 2.366 0 3.809-.864 5.119-2.236l-1.421-1.443c-1.085 1.008-2.073 1.638-3.627 1.638"/><path d="m98.5307 18.267v-3.394h6.33v-1.983h-6.33v-3.282h7.15v-1.9898h-10.08v.3121c.26.0845.45.182.55.3055.11.1106.15.2731.16.4811v11.539h9.46v-1.989h-7.24z"/><path d="m112.6507 18.231v-10.616h-2.22v.0065h-.73v.312c.27.0845.47.1886.57.3056.11.1235.16.299.16.5329v11.481h8.87v-2.022z"/><path d="m48.1457 25.658c-.481-.364-1.015-1.065-1.223-1.312-.13.175-.448.669-.591.942.078.013.176.033.22.033l.052.006.007.046.02.142h-.072c-.059 0-.338-.012-.546-.012-.202 0-.306.006-.396.012l-.085.007.026-.084.039-.111.032-.006c.072-.007.157-.02.215-.046.059-.039.273-.299.474-.559.176-.234.358-.475.436-.585-.254-.331-.663-.91-.825-1.086-.059-.019-.143-.032-.215-.045l-.045-.007v-.045l-.027-.156.079.012c.032.007.227.013.552.013.195 0 .436-.006.578-.013l.086-.006-.021.078-.038.117-.039.007c-.091.007-.163.019-.222.032.105.163.358.546.475.703.123-.17.37-.521.475-.703-.065-.019-.149-.025-.182-.032l-.04-.007-.006-.045-.032-.15.078.006c.085.007.28.013.474.013.149 0 .287-.006.377-.013l.072-.006-.007.071-.013.117-.039.014c-.078.013-.175.032-.227.045v.006l-.026.027-.091.09c-.071.079-.163.182-.253.293-.157.189-.326.391-.404.488.241.325.884 1.261 1.132 1.593l.058.071-.091.02-.149.039-.033.006z" fill="#d70072"/><path d="m36.8877 25.161h.787v.3h-1.112v-2.601h.325z"/><path d="m41.1547 22.86v1.534c0 .423.13.82.624.82.501 0 .631-.397.631-.82v-1.534h.325v1.645c0 .571-.358 1.008-.956 1.008-.592 0-.949-.437-.949-1.008v-1.645z"/><path d="m51.4087 22.86v1.534c0 .423.13.82.624.82.5 0 .63-.397.63-.82v-1.534h.326v1.645c0 .571-.358 1.008-.956 1.008-.592 0-.949-.437-.949-1.008v-1.645z"/><path d="m56.7437 24.09h.104c.331 0 .689-.065.689-.474s-.384-.468-.708-.468h-.085zm1.294 1.366h-.397l-.761-1.099h-.136v1.099h-.325v-2.594h.396c.228 0 .475 0 .683.117.221.13.344.377.344.624 0 .37-.253.682-.624.728z"/><path d="m61.2757 22.86h1.397v.299h-1.073v.728h1.04v.293h-1.04v.981h1.073v.3h-1.397z"/><path d="m70.3337 25.161h.117c.656 0 1.228-.246 1.228-1 0-.761-.572-1.002-1.228-1.002h-.117zm-.326-2.301h.54c.793 0 1.456.423 1.456 1.288 0 .884-.643 1.313-1.469 1.313h-.527z"/><path d="m75.3147 22.86h1.397v.299h-1.072v.728h1.04v.293h-1.04v.981h1.072v.3h-1.397z"/><path d="m80.4187 24.08h.103c.332 0 .69-.065.69-.473 0-.41-.384-.456-.709-.456h-.084zm0 1.379h-.326v-2.601h.37c.801 0 1.054.28 1.054.755 0 .546-.422.754-.91.754h-.188z"/><path d="m85.0637 22.86v1.534c0 .423.13.82.63.82.494 0 .625-.397.625-.82v-1.534h.325v1.645c0 .571-.358 1.008-.95 1.008-.598 0-.955-.437-.955-1.008v-1.645z"/><path d="m90.3877 25.459h-.324v-2.601h.324z"/><path d="m95.0107 23.352c-.09-.162-.22-.247-.41-.247-.21 0-.44.144-.44.371 0 .202.2.313.37.371l.18.071c.37.15.65.352.65.787 0 .468-.38.806-.83.806-.42 0-.75-.306-.81-.728l.33-.065c-.01.286.22.494.5.494s.48-.234.48-.507c0-.28-.22-.403-.45-.494l-.18-.079c-.29-.123-.56-.291-.56-.656 0-.416.38-.67.76-.67.29 0 .53.144.68.391z"/><path d="m102.8507 23.157.18-.3h.58v2.601h-.31v-2.301z"/><path d="m109.0007 23.639c0-.273-.25-.546-.53-.546-.32 0-.58.247-.58.546 0 .312.28.547.56.547.33 0 .55-.267.55-.547m-1.09 1.71.69-.929-.02-.007c-.07.039-.15.045-.24.045-.43 0-.75-.383-.75-.799 0-.475.38-.852.86-.852.45 0 .86.371.86.826 0 .26-.13.488-.29.689l-.88 1.19z"/><path d="m112.5507 23.157v-.3h1.87l-1.62 2.659-.25-.156 1.34-2.203z"/><path d="m118.9507 23.639c0-.273-.25-.546-.53-.546-.3 0-.57.247-.57.546 0 .312.28.547.55.547.33 0 .55-.267.55-.547m-1.09 1.71.69-.929-.01-.007c-.07.039-.16.045-.25.045-.43 0-.75-.383-.75-.799 0-.475.38-.852.86-.852.45 0 .86.371.86.826 0 .26-.13.488-.28.689l-.89 1.19z"/><path d="m125.9307 20.252h-1.45v-11.306h-4.22v-1.3128h9.91v1.3128h-4.24z" fill="#d70072"/><path d="m143.6607 7.6332h1.54l-5.43 12.71h-1.26l-5.43-12.71 1.59.0006 4.49 10.869 4.5-10.869z" fill="#d70072"/><path d="m5.8407 2.2621c-1.639-.2406-1.905 1.1441-2.094 2.3923-.357 2.4119.039 3.0035-1.7744 4.8166-1.5537 1.554-2.1388 2.699-1.9373 5.085.1755 2.106.7671 3.64 2.4509 4.72 1.3778.896.8778 4.095 2.5358 5.824 2.294 2.412 4.465.994 7.001.657 3.198-.435 5.299 2.373 8.828-.306 3.524-2.679 6.567-3.608 6.495-9.004-.045-3.043 1.898-5.955-.728-8.5746-2.874-2.8669-3.842-7.5737-11.754-7.8662-3.134-.1105-4.902 1.2872-5.695 1.5732-.799.2926-1.677.9232-3.328.6827" fill="#d70072"/><path d="m14.4247 2.4942c-5.929 0-10.753 4.8237-10.753 10.753 0 5.922 4.824 10.746 10.753 10.746s10.753-4.824 10.753-10.746c0-5.9291-4.824-10.753-10.753-10.753m0 22.234c-6.332 0-11.487-5.149-11.487-11.481-.001-6.3322 5.155-11.487 11.487-11.487 6.332-.0005 11.487 5.1548 11.487 11.487 0 6.332-5.155 11.481-11.487 11.481" fill="#fff"/><path d="m21.1897 20.165c-.781-1.008-2.354-3.264-3.615-5.071-.722-1.027-1.352-1.931-1.736-2.458.807-1.001 3.407-4.1212 3.7-4.2967.097-.0196.214-.0456.344-.0716.24-.052.514-.1105.721-.169l.124-.0326.071-.7085-.22.0194c-.508.0456-1.157.0716-1.776.0716-.968 0-1.858-.039-2.21-.0716l-.24-.0194.13.7281.13.0195c.416.0585.754.1235.981.1755-.507.9033-1.8 2.7563-2.36 3.5163-.546-.701-1.956-2.788-2.398-3.5098.344-.0715.747-.13 1.196-.182l.124-.013.208-.7282-.254.013c-.663.0326-1.768.0716-2.73.0716-1.535 0-2.406-.0325-2.594-.0716l-.247-.0454.104.7476.13.026c.091.0195.195.039.299.052.266.052.539.104.747.1625.475.5073 1.385 1.7493 2.269 2.9513.585.793 1.19 1.612 1.677 2.237-.13.162-.318.416-.546.721-1.066 1.43-3.289 4.415-3.796 4.72-.299.13-.67.182-1.04.234l-.111.013-.247.728.423-.033c.409-.019.864-.051 1.716-.051.643 0 1.436.026 1.963.045.286.013.501.02.592.02h.208l-.091-.709-.144-.013c-.24-.026-.78-.11-1.176-.188.67-1.314 2.289-3.862 2.893-4.655.143.175.338.409.559.689 1.164 1.443 3.322 4.121 5.24 5.565l.065.052 1.092-.254z" fill="#fff"/></g><path d="m152.36017 7.6884583-1.34186 5.8081907h-1.50568l.59291-2.566682h-2.20391l-.59291 2.566682h-1.50569l1.34186-5.8081907h1.50568l-.49539 2.1376013h2.20391l.49539-2.1376013z" stroke-width=".19972"/><path d="m158.75347 9.9547838q0 .9868852-.5188 1.8216422-.5188.834757-1.33015 1.27944-.49149.26525-1.02589.354967-.5344.08582-1.27944.08582h-2.1025l1.34185-5.8081907h1.88016q.83085 0 1.33795.1287241.50709.1287242.81915.3471652.42908.2964557.65142.7411392.22625.4407827.22625 1.049297zm-1.5681.1365252q0-.3978743-.14823-.6826277-.14822-.2886542-.45248-.4641872-.14043-.078015-.28866-.117022-.14432-.042908-.33156-.062412-.17943-.015603-.40957-.015603-.23015 0-.40178 0h-.0507l-.85816 3.6822919h.13653q.22624 0 .48369 0 .25744 0 .41737-.0195.20674-.0195.37057-.06241.16774-.04291.36667-.144327.56171-.288654.86206-.862061.30426-.573408.30426-1.252136z" stroke-width=".19972"/></svg>