<?xml version="1.0" encoding="UTF-8" standalone="no"?>
<svg
   xmlns:dc="http://purl.org/dc/elements/1.1/"
   xmlns:cc="http://creativecommons.org/ns#"
   xmlns:rdf="http://www.w3.org/1999/02/22-rdf-syntax-ns#"
   xmlns:svg="http://www.w3.org/2000/svg"
   xmlns="http://www.w3.org/2000/svg"
   xmlns:sodipodi="http://sodipodi.sourceforge.net/DTD/sodipodi-0.dtd"
   xmlns:inkscape="http://www.inkscape.org/namespaces/inkscape"
   height="110.01"
   width="600"
   version="1.1"
   viewBox="0 0 158.75 29.108066"
   id="svg58"
   sodipodi:docname="Dorcel TV - Dark.svg"
   inkscape:version="0.92.0 r15299">
  <metadata
     id="metadata64">
    <rdf:RDF>
      <cc:Work
         rdf:about="">
        <dc:format>image/svg+xml</dc:format>
        <dc:type
           rdf:resource="http://purl.org/dc/dcmitype/StillImage" />
      </cc:Work>
    </rdf:RDF>
  </metadata>
  <defs
     id="defs62" />
  <sodipodi:namedview
     pagecolor="#ffffff"
     bordercolor="#666666"
     borderopacity="1"
     objecttolerance="10"
     gridtolerance="10"
     guidetolerance="10"
     inkscape:pageopacity="0"
     inkscape:pageshadow="2"
     inkscape:window-width="1920"
     inkscape:window-height="1017"
     id="namedview60"
     showgrid="false"
     inkscape:zoom="1.8933333"
     inkscape:cx="284.08919"
     inkscape:cy="187.50129"
     inkscape:window-x="-8"
     inkscape:window-y="-8"
     inkscape:window-maximized="1"
     inkscape:current-layer="svg58" />
  <path
     style="fill:#000000;fill-opacity:1"
     inkscape:connector-curvature="0"
     id="path2"
     d="m 45.151,19.932 h -2.722 v -9.396 h 2.722 c 2.9,0 4.791,1.997 4.791,4.719 0,2.723 -1.891,4.677 -4.791,4.677 m 0,-11.606 h -3.184 -2.765 v 0.3411 c 0.299,0.0924 0.505,0.2062 0.619,0.3412 0.114,0.1279 0.177,0.3198 0.177,0.5757 v 1.2795 11.28 h 5.153 c 4.343,0 7.335,-3.021 7.335,-6.923 0,-3.909 -2.992,-6.8945 -7.335,-6.8945" />
  <path
     style="fill:#000000;fill-opacity:1"
     inkscape:connector-curvature="0"
     id="path4"
     d="m 62.908,20.147 c -2.744,0 -4.699,-2.224 -4.699,-4.932 0,-2.701 1.919,-4.89 4.656,-4.89 2.743,0 4.698,2.232 4.698,4.932 0,2.701 -1.912,4.89 -4.655,4.89 m 0,-12.054 c -4.244,0 -7.243,3.2549 -7.243,7.1639 0,3.903 2.964,7.122 7.2,7.122 4.243,0 7.243,-3.255 7.243,-7.164 0,-3.902 -2.957,-7.1219 -7.2,-7.1219" />
  <path
     style="fill:#000000;fill-opacity:1"
     inkscape:connector-curvature="0"
     id="path6"
     d="m 76.261,15.178 v -4.641 h 3.533 c 1.791,0 2.857,0.789 2.857,2.31 0,1.421 -1.102,2.331 -2.836,2.331 z m 5.565,1.734 c 1.934,-0.533 3.291,-1.912 3.291,-4.2 0,-2.701 -1.947,-4.3858 -5.124,-4.3858 h -4.187 -2.764 v 0.3411 c 0.298,0.0924 0.504,0.2062 0.618,0.3341 0.114,0.135 0.17,0.3269 0.17,0.5828 v 1.2798 h 0.008 v 11.279 h 2.423 v -4.819 h 3.035 l 3.398,4.819 h 2.857 z" />
  <path
     style="fill:#000000;fill-opacity:1"
     inkscape:connector-curvature="0"
     id="path8"
     d="m 95.691,20.147 c -2.644,0 -4.556,-2.21 -4.556,-4.932 0,-2.722 1.912,-4.89 4.556,-4.89 1.578,0 2.765,0.689 3.867,1.713 l 1.552,-1.791 C 99.799,8.9815 98.257,8.0931 95.712,8.0931 c -4.186,0 -7.121,3.2199 -7.121,7.1639 0,3.981 2.999,7.122 7.022,7.122 2.587,0 4.165,-0.945 5.597,-2.445 l -1.553,-1.578 c -1.187,1.102 -2.267,1.791 -3.966,1.791" />
  <path
     style="fill:#000000;fill-opacity:1"
     inkscape:connector-curvature="0"
     id="path10"
     d="m 107.73,19.971 v -3.71 h 6.92 v -2.168 h -6.92 v -3.589 h 7.81 V 8.329 h -8.26 -2.76 v 0.3412 c 0.29,0.0924 0.5,0.199 0.61,0.334 0.11,0.1209 0.16,0.2986 0.17,0.526 v 12.616 h 10.34 v -2.175 h -7.91 z" />
  <path
     style="fill:#000000;fill-opacity:1"
     inkscape:connector-curvature="0"
     id="path12"
     d="M 123.16,19.932 V 8.326 l -2.42,-5e-4 v 0.0071 h -0.8 v 0.3411 c 0.3,0.0924 0.51,0.2062 0.62,0.3341 0.12,0.135 0.18,0.3269 0.18,0.5828 V 10.87 22.143 h 9.69 v -2.211 z" />
  <path
     style="fill:#d70072"
     inkscape:connector-curvature="0"
     id="path14"
     d="m 52.641,28.052 c -0.526,-0.398 -1.109,-1.165 -1.337,-1.435 -0.142,0.192 -0.49,0.732 -0.646,1.03 0.085,0.015 0.192,0.036 0.241,0.036 l 0.057,0.007 0.007,0.05 0.022,0.156 h -0.079 c -0.064,0 -0.369,-0.014 -0.597,-0.014 -0.22,0 -0.334,0.007 -0.433,0.014 l -0.093,0.007 0.029,-0.092 0.043,-0.121 0.035,-0.007 c 0.078,-0.007 0.171,-0.021 0.235,-0.05 0.064,-0.042 0.298,-0.327 0.518,-0.611 0.192,-0.256 0.391,-0.519 0.477,-0.64 -0.278,-0.362 -0.725,-0.995 -0.903,-1.187 -0.064,-0.021 -0.156,-0.035 -0.235,-0.049 l -0.049,-0.008 v -0.049 l -0.029,-0.171 0.086,0.014 c 0.035,0.007 0.248,0.014 0.604,0.014 0.213,0 0.476,-0.007 0.632,-0.014 l 0.093,-0.007 -0.022,0.085 -0.042,0.128 -0.043,0.008 c -0.099,0.007 -0.178,0.021 -0.242,0.035 0.114,0.178 0.391,0.597 0.519,0.768 0.135,-0.185 0.405,-0.569 0.519,-0.768 -0.071,-0.021 -0.163,-0.028 -0.199,-0.035 l -0.043,-0.008 -0.007,-0.049 -0.035,-0.164 0.085,0.007 c 0.093,0.007 0.306,0.014 0.519,0.014 0.163,0 0.313,-0.007 0.412,-0.014 l 0.078,-0.007 -0.007,0.078 -0.014,0.128 -0.043,0.015 c -0.085,0.014 -0.191,0.035 -0.248,0.049 v 0.007 l -0.029,0.029 -0.099,0.099 c -0.078,0.086 -0.178,0.199 -0.277,0.32 -0.171,0.206 -0.356,0.427 -0.441,0.533 0.263,0.356 0.966,1.379 1.237,1.742 l 0.064,0.078 -0.1,0.021 -0.163,0.043 -0.036,0.007 z" />
  <path
     style="fill:#000000;fill-opacity:1"
     inkscape:connector-curvature="0"
     id="path16"
     d="m 40.333,27.509 h 0.86 v 0.327 h -1.215 v -2.843 h 0.355 z" />
  <path
     style="fill:#000000;fill-opacity:1"
     inkscape:connector-curvature="0"
     id="path18"
     d="m 44.998,24.993 v 1.677 c 0,0.462 0.142,0.896 0.682,0.896 0.548,0 0.69,-0.434 0.69,-0.896 v -1.677 h 0.355 v 1.798 c 0,0.625 -0.391,1.102 -1.045,1.102 -0.647,0 -1.037,-0.477 -1.037,-1.102 v -1.798 z" />
  <path
     style="fill:#000000;fill-opacity:1"
     inkscape:connector-curvature="0"
     id="path20"
     d="m 56.209,24.993 v 1.677 c 0,0.462 0.142,0.896 0.682,0.896 0.547,0 0.689,-0.434 0.689,-0.896 v -1.677 h 0.356 v 1.798 c 0,0.625 -0.391,1.102 -1.045,1.102 -0.647,0 -1.038,-0.477 -1.038,-1.102 v -1.798 z" />
  <path
     style="fill:#000000;fill-opacity:1"
     inkscape:connector-curvature="0"
     id="path22"
     d="m 62.041,26.338 h 0.114 c 0.362,0 0.753,-0.071 0.753,-0.519 0,-0.447 -0.419,-0.511 -0.774,-0.511 h -0.093 z m 1.415,1.493 H 63.022 L 62.19,26.63 h -0.149 v 1.201 h -0.355 v -2.836 h 0.433 c 0.249,0 0.519,0 0.747,0.128 0.241,0.142 0.376,0.412 0.376,0.682 0,0.405 -0.277,0.746 -0.682,0.796 z" />
  <path
     style="fill:#000000;fill-opacity:1"
     inkscape:connector-curvature="0"
     id="path24"
     d="m 66.996,24.993 h 1.528 v 0.327 h -1.173 v 0.796 h 1.137 v 0.32 h -1.137 v 1.073 h 1.173 v 0.327 h -1.528 z" />
  <path
     style="fill:#000000;fill-opacity:1"
     inkscape:connector-curvature="0"
     id="path26"
     d="m 76.899,27.509 h 0.128 c 0.718,0 1.343,-0.27 1.343,-1.094 0,-0.832 -0.625,-1.095 -1.343,-1.095 h -0.128 z m -0.356,-2.516 h 0.59 c 0.867,0 1.592,0.462 1.592,1.408 0,0.966 -0.703,1.435 -1.606,1.435 h -0.576 z" />
  <path
     style="fill:#000000;fill-opacity:1"
     inkscape:connector-curvature="0"
     id="path28"
     d="m 82.345,24.993 h 1.528 V 25.32 H 82.7 v 0.796 h 1.137 v 0.32 H 82.7 v 1.073 h 1.173 v 0.327 h -1.528 z" />
  <path
     style="fill:#000000;fill-opacity:1"
     inkscape:connector-curvature="0"
     id="path30"
     d="m 87.925,26.327 h 0.113 c 0.363,0 0.754,-0.071 0.754,-0.518 0,-0.448 -0.419,-0.498 -0.775,-0.498 h -0.092 z m 0,1.507 h -0.356 v -2.843 h 0.405 c 0.875,0 1.152,0.306 1.152,0.825 0,0.597 -0.462,0.824 -0.995,0.824 h -0.206 z" />
  <path
     style="fill:#000000;fill-opacity:1"
     inkscape:connector-curvature="0"
     id="path32"
     d="m 93.004,24.993 v 1.677 c 0,0.462 0.142,0.896 0.689,0.896 0.54,0 0.683,-0.434 0.683,-0.896 v -1.677 h 0.355 v 1.798 c 0,0.625 -0.391,1.102 -1.038,1.102 -0.654,0 -1.045,-0.477 -1.045,-1.102 v -1.798 z" />
  <path
     style="fill:#000000;fill-opacity:1"
     inkscape:connector-curvature="0"
     id="path34"
     d="M 98.825,27.834 H 98.47 v -2.843 h 0.355 z" />
  <path
     style="fill:#000000;fill-opacity:1"
     inkscape:connector-curvature="0"
     id="path36"
     d="m 103.88,25.531 c -0.1,-0.177 -0.24,-0.27 -0.45,-0.27 -0.23,0 -0.48,0.157 -0.48,0.405 0,0.221 0.22,0.342 0.4,0.406 l 0.2,0.078 c 0.4,0.163 0.71,0.384 0.71,0.86 0,0.512 -0.41,0.881 -0.91,0.881 -0.46,0 -0.82,-0.334 -0.88,-0.796 l 0.36,-0.071 c -0.01,0.313 0.24,0.54 0.55,0.54 0.3,0 0.52,-0.256 0.52,-0.554 0,-0.306 -0.24,-0.441 -0.49,-0.54 l -0.2,-0.086 c -0.32,-0.135 -0.61,-0.319 -0.61,-0.718 0,-0.454 0.41,-0.732 0.83,-0.732 0.32,0 0.58,0.157 0.74,0.427 z" />
  <path
     style="fill:#000000;fill-opacity:1"
     inkscape:connector-curvature="0"
     id="path38"
     d="m 112.45,25.317 0.2,-0.327 h 0.63 v 2.843 h -0.34 v -2.516 z" />
  <path
     style="fill:#000000;fill-opacity:1"
     inkscape:connector-curvature="0"
     id="path40"
     d="m 119.17,25.845 c 0,-0.299 -0.27,-0.597 -0.58,-0.597 -0.34,0 -0.63,0.27 -0.63,0.597 0,0.341 0.31,0.597 0.61,0.597 0.36,0 0.6,-0.291 0.6,-0.597 m -1.19,1.869 0.76,-1.016 -0.02,-0.007 c -0.08,0.042 -0.17,0.049 -0.27,0.049 -0.47,0 -0.82,-0.419 -0.82,-0.874 0,-0.519 0.42,-0.931 0.94,-0.931 0.49,0 0.94,0.405 0.94,0.903 0,0.284 -0.14,0.533 -0.31,0.753 l -0.97,1.301 z" />
  <path
     style="fill:#000000;fill-opacity:1"
     inkscape:connector-curvature="0"
     id="path42"
     d="M 123.05,25.317 V 24.99 h 2.05 l -1.77,2.907 -0.28,-0.171 1.47,-2.409 z" />
  <path
     style="fill:#000000;fill-opacity:1"
     inkscape:connector-curvature="0"
     id="path44"
     d="m 130.05,25.845 c 0,-0.299 -0.27,-0.597 -0.58,-0.597 -0.33,0 -0.62,0.27 -0.62,0.597 0,0.341 0.31,0.597 0.6,0.597 0.36,0 0.6,-0.291 0.6,-0.597 m -1.19,1.869 0.76,-1.016 -0.02,-0.007 c -0.07,0.042 -0.17,0.049 -0.27,0.049 -0.47,0 -0.82,-0.419 -0.82,-0.874 0,-0.519 0.42,-0.931 0.94,-0.931 0.49,0 0.94,0.405 0.94,0.903 0,0.284 -0.14,0.533 -0.31,0.753 l -0.97,1.301 z" />
  <path
     style="fill:#d70072"
     inkscape:connector-curvature="0"
     id="path46"
     d="M 137.68,22.141 H 136.1 V 9.781 l -4.62,10e-5 V 8.3454 h 10.84 v 1.4357 h -4.64 v 12.36 z" />
  <path
     style="fill:#d70072"
     inkscape:connector-curvature="0"
     id="path48"
     d="m 157.07,8.3454 h 1.68 l -5.93,13.896 h -1.38 l -5.94,-13.896 1.74,4e-4 4.91,11.884 4.92,-11.884 z" />
  <path
     style="fill:#d70072"
     inkscape:connector-curvature="0"
     id="path50"
     d="M 6.389,2.4731 C 4.5979,2.2101 4.3065,3.724 4.1003,5.0887 3.7094,7.7256 4.143,8.3724 2.16,10.355 c -1.6987,1.699 -2.3384,2.95 -2.1181,5.559 0.19193,2.302 0.83872,3.98 2.6796,5.16 1.5068,0.98 0.9595,4.477 2.7719,6.368 2.509,2.637 4.8826,1.087 7.6546,0.718 3.497,-0.476 5.793,2.594 9.652,-0.334 3.853,-2.929 7.179,-3.945 7.101,-9.844 -0.05,-3.327 2.075,-6.511 -0.796,-9.3751 C 25.963,5.4725 24.904,0.3266 16.254,0.0068 12.828,-0.11404 10.895,1.4141 10.028,1.7268 9.1538,2.0467 8.1943,2.7361 6.389,2.4731" />
  <path
     d="m15.774 2.7269c-6.4823 0-11.756 5.2738-11.756 11.756-0.0001 6.475 5.2737 11.749 11.756 11.749 6.482 0 11.756-5.274 11.756-11.749 0-6.4823-5.274-11.756-11.756-11.756m0 24.308c-6.923 0-12.559-5.629-12.559-12.552-0.0003-6.923 5.636-12.559 12.559-12.559 6.923-0.0003 12.559 5.636 12.559 12.559s-5.636 12.552-12.559 12.552"
     fill="#fff"
     id="path54" />
  <path
     d="m23.17 22.046c-0.853-1.102-2.573-3.568-3.952-5.544-0.789-1.123-1.478-2.111-1.898-2.687 0.882-1.094 3.725-4.5058 4.045-4.6977 0.106-0.0214 0.234-0.0498 0.376-0.0782 0.263-0.0569 0.562-0.1209 0.789-0.1848l0.135-0.0356 0.078-0.7747-0.241 0.0213c-0.555 0.0498-1.265 0.0782-1.941 0.0782-1.059 0-2.032-0.0426-2.416-0.0782l-0.263-0.0213 0.142 0.7961 0.142 0.0213c0.455 0.064 0.825 0.135 1.073 0.1919-0.554 0.9877-1.968 3.0137-2.58 3.8447-0.597-0.767-2.139-3.0487-2.622-3.8376 0.376-0.0782 0.817-0.1422 1.307-0.199l0.136-0.0142 0.227-0.7961-0.277 0.0142c-0.725 0.0356-1.933 0.0782-2.985 0.0782-1.678 0-2.6302-0.0355-2.8363-0.0782l-0.2701-0.0497 0.1137 0.8174 0.1422 0.0284c0.0995 0.0213 0.2132 0.0426 0.3269 0.0568 0.2916 0.0569 0.5896 0.1138 0.8176 0.1777 0.519 0.5544 1.514 1.9121 2.48 3.2271 0.64 0.867 1.301 1.762 1.834 2.445-0.142 0.177-0.348 0.455-0.597 0.789-1.166 1.563-3.596 4.826-4.151 5.16-0.3267 0.142-0.7318 0.199-1.137 0.256l-0.1208 0.014-0.2701 0.796 0.462-0.036c0.4478-0.021 0.9449-0.056 1.8769-0.056 0.703 0 1.57 0.028 2.146 0.049 0.313 0.014 0.547 0.022 0.647 0.022h0.227l-0.099-0.775-0.157-0.014c-0.263-0.029-0.853-0.121-1.286-0.206 0.732-1.436 2.502-4.222 3.163-5.089 0.156 0.191 0.369 0.447 0.611 0.753 1.272 1.578 3.632 4.506 5.729 6.084l0.071 0.057 1.194-0.277-0.192-0.249z"
     id="path56"
     fill="#fff" />
</svg>
