<svg height="153.1208" viewBox="0 0 158.7513 40.513799" width="600.00482" xmlns="http://www.w3.org/2000/svg"><g fill="#fff" transform="translate(-79.371999 -158.0618)"><path d="m146.45 158.93v21.298c0 5.904-3.0672 9.5503-7.6395 9.5503-4.8615 0-8.045-3.6462-8.045-9.5503v-21.298h-9.5494v21.298c0 11.113 7.0609 18.347 17.594 18.347 10.302 0 17.189-7.2344 17.189-18.347v-21.298z" stroke-width=".041341"/><path d="m193.85 169.29-9.3759 1.9099c-.69449-3.6461-3.7042-5.4406-6.7716-5.4406-3.1834 0-5.209 1.7366-5.209 3.9356 0 1.5629.69478 2.7204 3.1253 3.2412l8.045 1.7945c6.7135 1.5044 10.649 5.1511 10.649 11.286 0 8.2769-7.3502 12.559-15.974 12.559-8.7392 0-15.916-4.1668-16.958-11.749l9.8394-1.9096c.98347 3.9933 3.7614 5.7294 7.6392 5.7294 3.5884 0 5.7302-1.6205 5.7302-3.9933 0-1.7361-.81057-2.836-3.5888-3.4147l-8.1024-1.7366c-5.5564-1.2735-10.418-4.1672-10.418-11.228 0-7.5238 6.2506-12.212 15.337-12.212 8.4504.00005 14.585 4.1674 16.032 11.228" stroke-width=".041341"/><path d="m3560 958.99h280l-376.6-536.19 337.4-401.791h-261.8l-390.6 463.391v-463.391h-231v937.981h231v-161l165.2-197.4z" transform="matrix(.041341 0 0 .041341 79.375 158.06)"/><path d="m103.19 180.25c-1.49 5.2259-6.1374 8.451-8.7392 6.1374-.4001-.33275.13304-1.0447.60023-.73322 2.535 1.6452 5.337-1.4016 6.2928-5.1369.35615-1.4459.55587-2.9352.57857-4.4027.0217-1.0898.0217-2.3574-.48874-3.3803-1.2013-2.4236-4.6264-2.2679-6.7383-1.2458-1.2005.57852-2.3577 1.4902-2.7134 2.8464-.333 1.2013-.04436 2.4243.86746 3.3134.3557.33404-.11063.93398-.51172.66704-2.6236-1.8901-1.6006-5.6256.71169-7.2933 2.3133-1.6685 6.6714-2.3347 8.873-.0894 1.0893 1.1342 1.579 2.6018 1.6904 4.1588.13316 1.6677.0217 3.5581-.42279 5.1585m-13.298 6.5384c-.64546-.0896-.37823-1.0901.26636-1.001 1.3342.26719 1.9571-1.6453 2.3791-2.602.5116-1.2447 1.023-2.5348 1.4902-3.8468.95597-2.5123 1.7575-5.114 2.5351-7.6944.1783-.57766.9785-.33313.8673.24544-.48902 3.202-1.4234 6.2484-2.6021 9.2506-.5106 1.3786-1.1117 2.9348-1.9122 4.1583-.68887 1.0229-1.779 1.6447-3.0239 1.4901m4.816-27.86h-15.337v38.777h15.337c12.791 0 21.24-7.8705 21.24-19.388 0-11.517-8.4498-19.389-21.24-19.389" stroke-width=".041341"/></g></svg>