<svg id="b" width="2.6476mm" height="1.8471mm" version="1.1" viewBox="0 0 2.6476 1.8471" xmlns="http://www.w3.org/2000/svg">
 <defs id="c">
  <clipPath id="a">
   <path id="d" d="m84.719 508.06h9.747v8.6h-9.747z"/>
  </clipPath>
 </defs>
 <g id="e" transform="translate(18.333 -147.91)">
  <g id="f" transform="matrix(.99999 0 0 .99999 -18.333 147.91)" fill="#0d0d0d">
   <g id="g" transform="matrix(.35278 0 0 -.35278 2.2247 .0017496)">
    <path id="h" d="m0 0v-0.424h-0.251v0.424h-0.24v-1.058h0.24v0.442h0.251v-0.442h0.239v1.058z" fill="#0d0d0d"/>
   </g>
   <g id="i" transform="matrix(.35278 0 0 -.35278 -30.438 181.67)">
    <g id="j" clip-path="url(#a)" fill="#0d0d0d">
     <g id="k" transform="translate(93.278,514.08)">
      <path id="l" d="m0 0c0.011-3e-3 0.029-3e-3 0.042-3e-3 0.115 0 0.216 0.097 0.216 0.389 0 0.217-0.066 0.349-0.21 0.349-0.017 0-0.033 0-0.048-5e-3zm-0.24 0.88c0.061 0.012 0.148 0.02 0.244 0.02 0.155 0 0.263-0.031 0.342-0.094 0.106-0.082 0.161-0.222 0.161-0.427 0-0.214-0.064-0.366-0.172-0.448-0.082-0.069-0.205-0.102-0.377-0.102-0.075 0-0.15 6e-3 -0.198 0.011z" fill="#0d0d0d"/>
     </g>
     <g id="m" transform="translate(91.713,510.85)">
      <path id="n" d="m0 0-2.105 1e-3c0 0.232 0.671 0.533 1.24 0.862 0.245 0.142 1.208 0.584 1.208 1.602 0 0.945-0.884 1.662-1.892 1.662-0.951 0-1.777-0.683-1.777-0.683s9e-3 -0.029 0.24-0.612c0.088-0.224 0.307-0.327 0.537-0.214 0.31 0.153 0.696 0.357 1 0.357 0.412 0 0.698-0.274 0.698-0.569 0-0.392-0.411-0.561-1.101-0.945-0.667-0.371-1.445-0.952-1.445-1.963v-0.236c0-0.203 0.165-0.368 0.368-0.368h3.328v0.807c0 0.165-0.134 0.299-0.299 0.299" fill="#0d0d0d"/>
     </g>
     <g id="o" transform="translate(86.978,513.96)">
      <path id="p" d="m0 0c-0.385 0-0.698-0.316-0.698-0.705s0.313-0.705 0.698-0.705 0.698 0.316 0.698 0.705-0.313 0.705-0.698 0.705" fill="#0d0d0d"/>
     </g>
     <g id="q" transform="translate(86.978,511.83)">
      <path id="r" d="m0 0c-0.385 0-0.698-0.316-0.698-0.705s0.313-0.705 0.698-0.705 0.698 0.316 0.698 0.705-0.313 0.705-0.698 0.705" fill="#0d0d0d"/>
     </g>
    </g>
   </g>
  </g>
 </g>
</svg>
