<?xml version="1.0" encoding="UTF-8" standalone="no"?>
<svg
   xmlns:dc="http://purl.org/dc/elements/1.1/"
   xmlns:cc="http://creativecommons.org/ns#"
   xmlns:rdf="http://www.w3.org/1999/02/22-rdf-syntax-ns#"
   xmlns:svg="http://www.w3.org/2000/svg"
   xmlns="http://www.w3.org/2000/svg"
   xmlns:sodipodi="http://sodipodi.sourceforge.net/DTD/sodipodi-0.dtd"
   xmlns:inkscape="http://www.inkscape.org/namespaces/inkscape"
   height="6.9773331"
   width="7.7019997"
   version="1.1"
   viewBox="0 0 2.0378208 1.8460627"
   id="svg18"
   sodipodi:docname="Dvojka.svg"
   inkscape:version="0.92.0 r15299">
  <metadata
     id="metadata24">
    <rdf:RDF>
      <cc:Work
         rdf:about="">
        <dc:format>image/svg+xml</dc:format>
        <dc:type
           rdf:resource="http://purl.org/dc/dcmitype/StillImage" />
        <dc:title></dc:title>
      </cc:Work>
    </rdf:RDF>
  </metadata>
  <defs
     id="defs22">
    <clipPath
       clipPathUnits="userSpaceOnUse"
       id="clipPath18850">
      <path
         d="m 84.719,508.062 h 9.747 v 8.6 h -9.747 z"
         id="path18848"
         inkscape:connector-curvature="0" />
    </clipPath>
  </defs>
  <sodipodi:namedview
     pagecolor="#ffffff"
     bordercolor="#666666"
     borderopacity="1"
     objecttolerance="10"
     gridtolerance="10"
     guidetolerance="10"
     inkscape:pageopacity="0"
     inkscape:pageshadow="2"
     inkscape:window-width="1920"
     inkscape:window-height="1017"
     id="namedview20"
     showgrid="false"
     inkscape:zoom="42.841243"
     inkscape:cx="3.6692125"
     inkscape:cy="1.5672971"
     inkscape:window-x="-8"
     inkscape:window-y="-8"
     inkscape:window-maximized="1"
     inkscape:current-layer="svg18"
     fit-margin-top="0"
     fit-margin-left="0"
     fit-margin-right="0"
     fit-margin-bottom="0" />
  <g
     id="g4572"
     transform="translate(-0.55054589,-0.59318187)">
    <g
       transform="matrix(0.35277777,0,0,-0.35277777,2.4673639,2.0490765)"
       id="g18856">
      <path
         inkscape:connector-curvature="0"
         id="path18858"
         style="fill:#ffffff;fill-opacity:1;fill-rule:nonzero;stroke:none"
         d="m 0,0 c 0,0 -2.105,0.001 -2.105,0.001 0,0.232 0.671,0.533 1.24,0.862 0.245,0.142 1.208,0.584 1.208,1.602 0,0.945 -0.884,1.662 -1.892,1.662 -0.951,0 -1.777,-0.683 -1.777,-0.683 0,0 0.009,-0.029 0.24,-0.612 0.088,-0.224 0.307,-0.327 0.537,-0.214 0.31,0.153 0.696,0.357 1,0.357 0.412,0 0.698,-0.274 0.698,-0.569 0,-0.392 -0.411,-0.561 -1.101,-0.945 C -2.619,1.09 -3.397,0.509 -3.397,-0.502 v -0.236 c 0,-0.203 0.165,-0.368 0.368,-0.368 h 3.328 v 0.807 C 0.299,-0.134 0.165,0 0,0" />
    </g>
    <g
       transform="matrix(0.35277777,0,0,-0.35277777,0.79678477,0.95172594)"
       id="g18860">
      <path
         inkscape:connector-curvature="0"
         id="path18862"
         style="fill:#ffffff;fill-opacity:1;fill-rule:nonzero;stroke:none"
         d="m 0,0 c -0.385,0 -0.698,-0.316 -0.698,-0.705 0,-0.389 0.313,-0.705 0.698,-0.705 0.385,0 0.698,0.316 0.698,0.705 C 0.698,-0.316 0.385,0 0,0" />
    </g>
    <g
       transform="matrix(0.35277777,0,0,-0.35277777,0.79678477,1.7043068)"
       id="g18864">
      <path
         inkscape:connector-curvature="0"
         id="path18866"
         style="fill:#ffffff;fill-opacity:1;fill-rule:nonzero;stroke:none"
         d="m 0,0 c -0.385,0 -0.698,-0.316 -0.698,-0.705 0,-0.389 0.313,-0.705 0.698,-0.705 0.385,0 0.698,0.316 0.698,0.705 C 0.698,-0.316 0.385,0 0,0" />
    </g>
  </g>
</svg>
