<svg height="6.977333" viewBox="0 0 2.0378208 1.8460627" width="7.702" xmlns="http://www.w3.org/2000/svg"><g transform="translate(-.550546 -.593182)"><path d="m0 0s-2.105.001-2.105.001c0 .232.671.533 1.24.862.245.142 1.208.584 1.208 1.602 0 .945-.884 1.662-1.892 1.662-.951 0-1.777-.683-1.777-.683s.009-.029.24-.612c.088-.224.307-.327.537-.214.31.153.696.357 1 .357.412 0 .698-.274.698-.569 0-.392-.411-.561-1.101-.945-.667-.371-1.445-.952-1.445-1.963v-.236c0-.203.165-.368.368-.368h3.328v.807c0 .165-.134.299-.299.299" transform="matrix(.35277777 0 0 -.35277777 2.467364 2.049077)"/><path d="m0 0c-.385 0-.698-.316-.698-.705s.313-.705.698-.705.698.316.698.705-.313.705-.698.705" transform="matrix(.35277777 0 0 -.35277777 .796785 .951726)"/><path d="m0 0c-.385 0-.698-.316-.698-.705s.313-.705.698-.705.698.316.698.705-.313.705-.698.705" transform="matrix(.35277777 0 0 -.35277777 .796785 1.704307)"/></g></svg>