<svg height="11.466667" viewBox="0 0 3.4385251 3.0338506" width="12.996" xmlns="http://www.w3.org/2000/svg" xmlns:xlink="http://www.w3.org/1999/xlink"><clipPath id="a"><path d="m84.719 508.062h9.747v8.6h-9.747z"/></clipPath><path d="m0 3.0332245h3.438525v-3.03388904h-3.438525z"/><path d="m0 0v-.424h-.251v.424h-.24v-1.058h.24v.442h.251v-.442h.239v1.058z" fill="#fff" transform="matrix(.35277777 0 0 -.35277777 2.775198 .594931)"/><g clip-path="url(#a)" transform="matrix(.35277777 0 0 -.35277777 -29.886979 182.2662)"><g transform="translate(93.2775 514.0787)"><path d="m0 0c .011-.003.029-.003.042-.003.115 0 .216.097.216.389 0 .217-.066.349-.21.349-.017 0-.033 0-.048-.005zm-.24.88c.061.012.148.02.244.02.155 0 .263-.031.342-.094.106-.082.161-.222.161-.427 0-.214-.064-.366-.172-.448-.082-.069-.205-.102-.377-.102-.075 0-.15.006-.198.011z" fill="#fff"/></g><g transform="translate(91.7131 510.8517)"><path d="m0 0s-2.105.001-2.105.001c0 .232.671.533 1.24.862.245.142 1.208.584 1.208 1.602 0 .945-.884 1.662-1.892 1.662-.951 0-1.777-.683-1.777-.683s.009-.029.24-.612c.088-.224.307-.327.537-.214.31.153.696.357 1 .357.412 0 .698-.274.698-.569 0-.392-.411-.561-1.101-.945-.667-.371-1.445-.952-1.445-1.963v-.236c0-.203.165-.368.368-.368h3.328v.807c0 .165-.134.299-.299.299" fill="#fff"/></g><g transform="translate(86.9776 513.9623)"><path d="m0 0c-.385 0-.698-.316-.698-.705s.313-.705.698-.705.698.316.698.705-.313.705-.698.705" fill="#fff"/></g><g transform="translate(86.9776 511.829)"><path d="m0 0c-.385 0-.698-.316-.698-.705s.313-.705.698-.705.698.316.698.705-.313.705-.698.705" fill="#fff"/></g></g></svg>