<svg height="177.79" viewBox="0 0 158.75 47.040819" width="600" xmlns="http://www.w3.org/2000/svg"><g transform="translate(-34.771 -111.7)"><g fill="#e81d0f"><path d="m138.14 154.19.96842-.86003s-.82388-1.3659-2.5439-1.2214c-1.7273.14455-2.1898 1.5105-2.1898 2.0091 0 .50589.28185 1.402 1.8284 1.8284 1.3298.37581 1.1925.75884 1.1852.93229-.0217.35412-.95397 1.2792-2.8691-.21681l-1.0046.75883s1.1058 1.3587 2.6885 1.3226c1.5755-.0361 2.4572-1.019 2.4716-1.9368.0217-.83833-.31799-1.6478-2.1464-2.1536-1.8357-.49867 0-2.3632 1.6116-.46253"/><path d="m157.28 152.23h4.9361l-.28185 1.3659h-1.7706l-.83833 5.0951-1.3659.007.83835-5.0951h-1.7923z"/><path d="m148.88 156.75c.38304-.46975.59984-1.1563.57817-1.7634-.0217-.93951-.54203-1.5972-1.4382-1.5683-.51311.0145-.93951.28185-1.2503.66489-.38304.46975-.59985 1.1563-.57817 1.7634.0217.93952.5348 1.59 1.4382 1.5683.5059-.0145.93952-.28185 1.2503-.66489m1.8284-1.8935c.0361.96843-.28909 1.9441-.88171 2.6668-.55648.6938-1.3442 1.1491-2.2982 1.178-1.5105.0434-2.5439-1.1346-2.5945-2.7246-.0289-.96842.29631-1.9441.88892-2.674.55648-.68656 1.3442-1.1419 2.2982-1.1708 1.5104-.0506 2.5439 1.1346 2.5873 2.7246"/><path d="m143.34 154.4c-.10841.73716-1.0768.67934-1.0768.67934h-1.3731l.25295-1.5755h1.4454c.33968 0 .86003.15899.75162.89615m-1.2214-2.2042h-2.1175l-1.0768 6.4393 1.3876-.007.3758-2.291h1.5032s2.3488.20958 2.5512-2.0597c.1879-2.1609-2.2838-2.0814-2.6234-2.0814"/><path d="m153.74 155.14c-.50589 0-.9612-.0145-1.1925-.0289l.28908-1.6767h1.337s1.019 0 1.0768.75162c.0506.75883-.77329.95397-1.5104.95397m2.833-.99011c.18067-1.6478-1.431-1.9368-2.5801-1.9368s-2.2259.0145-2.2259.0145l-1.0768 6.3743h1.2575l.39025-2.2621h1.4382l.6432 2.2621h1.402l-.75161-2.4066s1.3225-.39026 1.5032-2.0452"/></g><g fill="#fff"><path d="m63.733 119.92c-.13009.36858-.27463.6143-.62153.6143h-27.723c-.33967 0-.6143-.27463-.6143-.6143v-7.5956c0-.3469.27463-.62152.6143-.62152h30.484c.33967 0 .70825.3469.52758.8311z"/><path d="m98.525 130.03c0-11.086-7.256-17.851-15.43-18.292-.03614-.007-12.727-.0289-12.727-.0289-.33967 0-.62152.28185-.62152.62152v7.5956c0 .33967.28185.62152.62152.62152 0 0 10.248-.007 10.277.0289.07227 0 .13731-.007.20958 0 4.9794.22404 8.5857 2.4789 8.5857 9.612 0 5.7816-3.0643 9.2289-8.4051 9.2868h-.33244-10.335c-.33967 0-.62152.28186-.62152.62152v7.5956c0 .33967.28185.62153.62152.62153 0 0 10.233.0217 10.559 0 0 0 2.4138-.007 2.4283-.0145 8.0654-.59261 15.17-7.6462 15.17-18.27"/><path d="m129.54 131.08v-4.7048c0-.31799-.26017-.57816-.57816-.57816h-12.973c-.32522 0-.4553.23126-.58539.57816l-2.4789 6.5332c-.28908.62153.20958 1.1636.5348 1.1636l8.1666-.007c-.77329 3.5196-3.0209 5.4058-8.3472 5.4058h-.33244-4.0182-6.3164c-.3469 0-.62152.27463-.62152.62152v7.5956c0 .33967.27462.6143.62152.6143 0 0 8.3906.0217 8.7158 0 0 0 2.9559-.007 3.5485-.007 5.4203 0 10.739-3.0209 12.741-6.6561 2.1248-3.852 1.9224-10.559 1.9224-10.559"/><path d="m55.325 133.7c-.09396.36135-.27463.62153-.62153.62153h-19.311c-.3469 0-.62153-.28186-.62153-.62153v-7.5956c0-.3469.27463-.62152.62153-.62152h22.014c.33967 0 .6143.27462.6143.62152z"/><path d="m63.733 147.69c0 .33967-.27463.62153-.62153.62153h-27.723c-.33967 0-.6143-.28186-.6143-.62153v-7.5956c0-.33966.27463-.62152.6143-.62152h30.426c.33967 0 .6143.27463.6143.62152z"/><path d="m162.47 119.92c-.13008.36858-.27463.6143-.62153.6143h-27.723c-.33968 0-.6143-.27463-.6143-.6143v-7.5956c0-.3469.27462-.62152.6143-.62152h30.484c.33968 0 .70826.3469.52758.8311z"/><path d="m154.06 133.7c-.11564.36135-.27463.62153-.62153.62153h-19.311c-.3469 0-.62152-.28186-.62152-.62153v-7.5956c0-.3469.27462-.62152.62152-.62152h22.014c.33967 0 .61429.27462.61429.62152z"/><path d="m162.47 147.69c0 .33967-.27463.62153-.62153.62153h-27.723c-.33968 0-.6143-.28186-.6143-.62153v-7.5956c0-.33966.27462-.62152.6143-.62152h30.426c.33967 0 .6143.27463.6143.62152z"/><path d="m125.07 114.73c-2.2838-2.1464-5.4853-2.992-9.7348-2.992-.0434-.0145-12.727-.0289-12.727-.0289-.3469 0-.62153.27463-.62153.62152v7.5956c0 .33967.27463.62153.62153.62153 0 0 .0434-.007.12285-.0145h12.669c1.6622 0 3.0932.41194 5.3408 1.7056 1.4815.86003 1.6478.13732 1.9224-.5348.29631-.72271 1.019-2.3994 1.9947-4.9288.33966-.87447.74437-1.7128.41193-2.0453"/><path d="m170.65 123.39h3.1221v-11.686h-3.1221z"/><path d="m178.59 116h-3.8665v2.833h3.8665v4.5603h3.1654v-11.686h-3.1654z"/><path d="m193.28 115.85c-.159-.58539-.37581-1.0985-.64321-1.5394-.27462-.44808-.58539-.83112-.94674-1.1563-.20958-.20236-.44085-.38304-.70825-.55648-.26018-.16622-.57817-.32522-.95397-.46253-.3758-.13732-.79497-.24573-1.2647-.31799-.46252-.0795-1.0262-.11564-1.6839-.11564h-4.3724v2.3416h4.5241c.47699 0 .93952.094 1.3948.27464.46253.18067.85279.5348 1.178 1.0624.32522.5348.49144 1.272.49144 2.2259 0 1.3659-.30354 2.2621-.91061 2.7029-.60707.44085-1.3225.65766-2.1537.65766h-4.5241v2.4211h5.6732c1.3587 0 2.4138-.33245 3.1654-.99011.53481-.44808.99734-1.0335 1.3876-1.7562.39026-.72992.58539-1.6911.58539-2.8836 0-.68657-.0795-1.3226-.23849-1.9079"/></g></g></svg>