<svg height="631.56" width="600" xmlns="http://www.w3.org/2000/svg"><g transform="translate(-.00001 -.000009)"><g fill-rule="evenodd"><path d="m600 239.68v254.07c0 75.842-61.964 137.81-137.81 137.81h-246.47-8.7532-69.162c-71.869 0-132.22-56.032-137.4-127.73-.11517-1.67-.23034-3.34-.28792-5.0101l-.12207-3.17.0576-.23v-1.5548l-.0576-1.1c0-.80622 0-1.6124.0576-2.4187l-.0576-96.63v-255.97c0-75.786 62.021-137.75 137.81-137.75h69.162 8.7532 246.47c60.582 0 114.37 40.081 131.87 98.013 3.0521 9.9626 4.9525 20.271 5.5859 30.636l.0576.57588c.0576.8638.11518 1.7276.11518 2.5914l.0576.69104v.51828c.0576.86381.0576 1.7276.0576 2.5914l.0576 1.2669-.28794 95.364v.23035c.0576.80621.11518 1.67.11518 2.5338l.0576.69104v.51829c.0576.8638.0576 1.7276.0576 2.5914l.0576.8638z" fill="#fff"/><path d="m206.97 356h8.7532 246.82c63.173.80622 114.25-52.692 114.71-115.12v-.51828-.17276-1.0942c-.0576-.69104-.0576-1.3821-.0576-2.0731l-.0576-.51829v-.57587c0-.69104-.0576-1.3821-.11518-2.0156l-.0576-.97898.28793-95.94v-1.0942c-.0576-.69105-.0576-1.3821-.0576-2.0731l-.0576-.57587v-.51828c0-.69105-.0576-1.3821-.11518-2.0731v-.57587c-.57586-8.6381-2.1883-17.219-4.6646-25.511-14.61-48.307-59.53-81.881-110.15-81.881h-246.47-8.7532-69.162c-63.231 0-115.06 51.828-115.06 115.06v255.97 24.475c24.705-37.432 67.147-62.194 115.06-62.194h18.14 40.426 10.596z" fill="#e03a3e"/><path d="m206.97 608.81h8.7532 246.47c63.288 0 115.06-51.771 115.06-115.06v-177.6c-24.705 37.892-67.147 63.231-115 62.597h-.11517-246.42-8.7532-69.162c-62.828 0-114.43 51.137-115.06 113.91v1.0366c0 .86381.0576 1.7276.0576 2.649l.0576 1.5548v.11517c0 1.3821.11518 2.7642.23035 4.1463 4.319 59.833 54.708 106.65 114.71 106.65h69.162z" fill="#004990"/><path d="m262.06 113.91c-2.0879.0597-3.9525.27947-5.5938.625-2.1883.4607-4.1425 1.2398-5.8125 2.2188-1.67 1.0366-3.2429 2.3925-4.625 4.0625-1.0366 1.2093-1.9389 2.4929-2.6875 3.875-.74863 1.3245-1.3255 2.8612-1.8438 4.5312-.40311 1.67-.76965 3.5929-1 5.7812-.23035 2.1307-.34375 4.6108-.34375 7.375 0 4.9525.34021 9.2059 1.0312 12.719.74863 3.5704 1.8514 6.4876 3.4062 8.9062 1.1517 1.67 2.3679 3.0786 3.75 4 1.3245 1.0366 2.6902 1.7268 4.1875 2.1875s3.0076.79108 4.5625.90625c1.5548.11517 3.0965.1875 4.5938.1875h18.312c-.17276.74863-.44555 1.559-.90625 2.25-.40311.74863-.98663 1.3518-1.5625 1.8125-.74863.51828-1.5474.9259-2.4688 1.1562-.92139.17276-1.8599.28616-2.7812.34375-.92139.0576-1.7563.0625-2.5625.0625h-25.531v13.812h32.125c4.4342.0576 8.3622-.50942 11.875-1.7188 3.4552-1.1517 6.2804-3.1059 8.4688-5.8125 1.2093-1.5548 2.179-3.2246 2.8125-5.125.69105-1.8428 1.1446-3.8478 1.375-6.0938.28794-2.1883.43259-4.5599.375-7.0937v-39.719c.0576-.86381-.0723-1.8023-.1875-2.7812-.17276-1.0366-.50805-2.0572-.96875-3.0938-.51828-1.0366-1.2085-1.975-2.1875-2.7812-.92139-.80622-1.9733-1.3732-3.125-1.7188-1.0942-.40311-2.2858-.63482-3.4375-.75-1.2093-.11517-2.3795-.18259-3.5312-.125h-23.562c-.74863-.0144-1.4603-.0199-2.1562 0zm9.0625 15.375c.51109-.0216 1.0105-.0288 1.5 0h2.4375c.51828-.0576 1.0804.01 1.6562.125.57587.11517 1.1116.34689 1.6875.75.69105.4607 1.0822.96029 1.3125 1.5938.23035.57587.28125 1.2875.28125 2.0938v22.062h-6.0312c-1.0366 0-2.1295-.005-3.2812-.0625-1.1517-.0576-2.3121-.2893-3.4062-.75-1.1517-.34552-2.1411-1.0884-3.0625-2.125-.80622-.80622-1.3781-2.0702-1.7812-3.625-.40311-1.6124-.625-3.6849-.625-6.2188.0576-2.3035.11831-4.1541.40625-5.5938.23035-1.4397.52948-2.5375.875-3.3438.34552-.80622.68573-1.3781 1.0312-1.7812.74863-.97898 1.6099-1.6643 2.5312-2.125.92139-.40311 1.9009-.70224 2.9375-.875.51828-.0576 1.0202-.1034 1.5312-.125z" fill="#fff"/><path d="m311.97 171.27h21.192v-75.785h-21.192z" fill="#fff"/><path d="m365.13 95.485h-21.192v12.669h21.192z" fill="#fff"/><path d="m343.93 171.27h21.192v-57.357h-21.192z" fill="#fff"/><path d="m378.49 171.27h41.002c.97898 0 2.0155-.0576 3.0521-.17276 1.0942-.11517 2.1307-.40311 3.2249-.80622 1.0942-.34552 2.1307-.97898 3.1673-1.7276 1.2669-1.0942 2.2459-2.3035 2.9369-3.628.69105-1.3821 1.1518-2.7642 1.4397-4.2614.23035-1.4973.40311-2.937.34552-4.3766.0576-.80622 0-1.8428-.17276-3.0521-.0576-1.2669-.34553-2.5338-.74863-3.9159-.46069-1.3821-1.0942-2.7066-1.958-4.0311-.9214-1.3245-2.0156-2.4762-3.3401-3.34-1.2669-.92139-2.7066-1.7276-4.3766-2.4187-1.67-.69104-3.5128-1.3821-5.5284-2.0731l-14.512-4.8373c-.57587-.23035-1.0366-.40311-1.3245-.51828-.28793-.11518-.57587-.23035-.80621-.28794-.17277-.11517-.4607-.23035-.74864-.34552-.34552-.11517-.80622-.28794-1.4397-.4607-.34553-.11517-.57588-.23035-.86381-.46069-.17276-.11518-.34552-.4607-.34552-.86381 0-.34552.11517-.63346.34552-.74863.17276-.11518.40311-.17276.63346-.23035.46069-.11518.8638-.11518 1.3245-.11518h1.2093 31.155v-14.685h-38.295c-2.0156-.0576-3.8008.11517-5.4708.4031-1.6124.23035-3.1097.80622-4.3766 1.5549-1.3245.80622-2.4762 1.958-3.5128 3.4552-.97898 1.4973-1.67 3.1673-2.1307 4.8949-.34552 1.7852-.57587 3.5704-.57587 5.3556 0 .97898.11517 2.0155.23035 3.1673.11517 1.1517.34552 2.3035.69104 3.3976.28794 1.1518.74864 2.1307 1.2669 3.1097.74863 1.1517 1.67 2.1883 2.8794 3.1673 1.1518.92139 2.5338 1.7276 4.0311 2.4186 1.4973.74864 3.1673 1.3821 4.8949 1.958l12.324 4.0311c1.4973.4607 2.7066.86381 3.5704 1.1517.86381.28794 1.4973.4607 1.9004.63346.46069.17276.80622.34553 1.0366.4607.23035.11517.4607.23035.63346.4607.23035.17276.34552.46069.34552.8638 0 .23035-.0576.4607-.17276.63346-.0576.17276-.23035.34552-.40311.40311-.17276.11517-.34552.23035-.63345.34552-.23035.0576-.4607.11518-.63346.11518h-31.27v15.376z" fill="#fff"/><path d="m443.1 171.27h21.25v-42.442h6.6801c.97898 0 2.0156.0576 2.9945.23035 1.0366.17276 2.0155.51829 2.9945.97898.97899.51829 1.958 1.2093 2.8218 2.1307.97897 1.0942 1.7276 2.1883 2.1307 3.3401.51828 1.2093.80622 2.3611.9214 3.4552.11517 1.1517.17276 2.1307.17276 3.0521v29.254h21.192v-37.432c0-1.9004-.28793-3.8008-.86381-5.7011-.57587-1.958-1.4397-3.7432-2.5914-5.4708-1.2093-1.7276-2.649-3.2249-4.4342-4.5494-2.0156-1.4397-4.0887-2.4762-6.277-3.0521-2.1307-.63346-4.319-.97898-6.5073-1.0366-2.1883-.11517-4.4342-.17276-6.5649-.11517h-12.669v-18.428h-21.25v75.785z" fill="#fff"/><path d="m163.34 171.27v-18.428h-37.028c-.80622.0576-1.6124 0-2.4762-.0576-.8638-.11517-1.6124-.40311-2.1883-.92139-.28793-.17276-.51828-.51829-.74863-.97898-.23036-.4607-.34553-1.0366-.34553-1.7852v-8.235h41.348v-16.47h-41.348v-5.7587c0-.34553 0-.69105.0576-1.1518 0-.46069.11517-.8638.28794-1.3245.17276-.4607.4607-.86381.8638-1.2093.46069-.34552.97898-.63346 1.67-.80622.69104-.17276 1.3821-.23035 2.1307-.23035h37.432v-18.428h-54.477c-.92139 0-1.8428.0576-2.9369.23034-1.0366.11518-2.1307.40312-3.2249.86381-1.0366.4607-2.0731 1.0942-2.9945 1.958-.92139.86381-1.67 1.7852-2.1307 2.7066-.4607.97898-.74863 1.958-.9214 2.937-.17275 1.0366-.23034 2.0155-.23034 2.9945v51.944c0 1.2093.0576 2.3611.11518 3.4552.11516 1.0366.46069 2.1307.92139 3.1097.51828 1.0366 1.3245 2.0155 2.4187 2.9945.97897.74863 2.0155 1.3245 2.9945 1.7276 1.0366.34553 2.0731.57587 3.1097.69105 1.0366.11517 2.0731.17276 3.1097.17276h54.593z" fill="#fff"/><path d="m230.77 171.27v-31.27c0-2.9369-.17276-5.6435-.57587-8.2925-.40311-2.5914-1.1517-5.0101-2.1883-7.1984s-2.5338-4.0887-4.4918-5.7587c-.97898-.80622-2.1883-1.6124-3.6856-2.3611-1.4397-.74863-3.2249-1.3245-5.2404-1.7852-2.0731-.4607-4.4342-.69104-7.1408-.69104h-6.2194-4.319-11.057c-.80621-.0576-1.7852 0-2.8218.11517-1.0942.11517-2.1883.34552-3.34.74863-1.0942.34552-2.1883.9214-3.1673 1.7276-1.0366.86381-1.7852 1.7852-2.3035 2.7642-.51828 1.0366-.8638 2.0155-1.0366 3.1097-.17276 1.0366-.23035 2.1307-.23035 3.2249v45.667h20.962v-41.923h3.8583c.34552-.0576.74863-.0576 1.1517-.0576h.17276.0576c.40312 0 .80622 0 1.2669.0576h1.4397c4.3766 0 7.947 3.5704 7.947 7.947v33.976h20.962z" fill="#fff"/><path d="m331.83 279.25v-18.831h-21.019c-2.0156 0-3.9735 0-5.8163-.11517-1.8428-.0576-3.628-.28794-5.1828-.63346-1.6124-.34552-3.0521-.97898-4.2614-1.7852-1.2669-.80622-2.3035-1.958-3.1097-3.3976-.23035-.46069-.51828-1.0942-.74863-1.958-.28794-.92139-.57587-2.1883-.80622-3.9159-.17276-1.67-.28794-3.9159-.28794-6.6801 0-.97898 0-2.0156.0576-3.1673.0576-1.1518.17276-2.4187.34553-3.628.17276-1.2669.46069-2.4762.80622-3.628.28794-1.2093.74863-2.3035 1.2669-3.2249.86381-1.4973 1.8428-2.7066 2.9945-3.5128 1.1517-.80622 2.4762-1.4397 3.9159-1.7852 1.4397-.34552 3.0521-.51828 4.7797-.57587 1.7276-.11517 3.628-.11517 5.6435-.11517h20.213v-18.831h-32.018c-2.1307 0-4.4342.11517-6.7953.28793-2.3611.23035-4.7221.69105-7.0832 1.3245s-4.607 1.67-6.7953 2.9945c-2.1307 1.2669-4.0887 3.0521-5.8739 5.2404-1.7852 2.3035-3.1097 4.8949-4.0887 7.7743-.97898 2.8794-1.6124 6.1042-1.958 9.617-.40311 3.5128-.57588 7.4287-.51829 11.633 0 3.628.11518 6.8529.4607 9.617.28793 2.8218.69105 5.3556 1.2669 7.5439.57588 2.1307 1.3245 4.0887 2.1883 5.7587.86381 1.7276 1.8428 3.2825 2.9945 4.6646 2.0156 2.5338 4.319 4.4918 6.7953 5.8739 2.5338 1.3245 5.3556 2.2459 8.5229 2.7642 3.1097.46069 6.6225.69104 10.538.69104h33.573z" fill="#fff"/><path d="m342.6 279.25h21.192v-75.785h-21.192z" fill="#fff"/><path d="m374.5 221.89v31.27c0 2.8794.17277 5.6435.57587 8.235.40312 2.649 1.1518 5.0677 2.1883 7.256 1.0366 2.1883 2.5338 4.0887 4.4918 5.7011.97899.86381 2.1883 1.67 3.6856 2.3611 1.4397.74863 3.2249 1.3821 5.2404 1.8428 2.0731.46069 4.4342.69104 7.1408.69104h6.1618 4.3766 11.057c.80622 0 1.7852-.0576 2.8218-.11517 1.0942-.11518 2.1883-.34552 3.34-.74863 1.0942-.40311 2.1883-.97898 3.1673-1.7276 1.0366-.8638 1.7852-1.7852 2.3035-2.8218.51828-.97898.8638-1.958 1.0366-3.0521.17277-1.0366.23035-2.1307.23035-3.2249v-45.667h-20.962v41.923h-3.8583c-.34553.0576-.74864.0576-1.1518.0576h-.17276-.0576c-.40311 0-.80622 0-1.2669-.0576h-1.4397c-4.3766 0-7.947-3.5704-7.947-7.947v-33.976h-20.962z" fill="#fff"/><path d="m443.26 203.47v65.406c0 1.3245.18573 2.5983.53125 3.75.40311 1.1517 1.0161 2.2447 1.9375 3.2812.97898.97898 1.9684 1.7268 3.0625 2.1875 1.0366.51828 2.0621.79599 3.1562.96875 1.0366.11518 2.0786.1875 3 .1875h25.219c1.4397 0 3.0586-.0509 4.8438-.28125 1.7852-.17276 3.626-.64779 5.4688-1.2812 1.9004-.63346 3.6786-1.6081 5.4062-2.875s3.238-2.9318 4.5625-5.0625c.74863-1.3245 1.4241-2.871 2-4.6562.57587-1.7852.99823-3.9202 1.3438-6.2812.28794-2.4187.46875-5.2077.46875-8.375 0-1.958-.0772-4.0041-.25-6.25-.11517-2.1883-.45538-4.4416-1.0312-6.6875-.57587-2.1883-1.4469-4.3282-2.6562-6.3438-1.3821-2.1883-2.9237-3.9206-4.5938-5.1875-1.7276-1.2669-3.5322-2.1741-5.375-2.75-1.9004-.57587-3.7148-.98349-5.5-1.1562-1.7852-.11517-3.4715-.24509-4.9688-.1875h-15.375v-18.406h-21.25zm21.25 33.344h9.625c.57587 0 1.3237.046 2.1875.21875.86381.17276 1.7299.64779 2.5938 1.2812.86381.63346 1.6165 1.613 2.25 2.9375.17276.34552.33215.8402.5625 1.5312.23035.74863.42099 1.7282.59375 2.9375s.28125 2.7148.28125 4.5c0 1.9004-.10849 3.5143-.28125 4.7812-.11517 1.2669-.3634 2.3188-.59375 3.125-.23035.80622-.45715 1.4406-.6875 1.8438-.34552.80622-.86654 1.4866-1.5 2.0625-.57587.57587-1.3911 1.0295-2.3125 1.375-.97898.28794-2.1228.46875-3.5625.46875h-4.3125c-.51828 0-1.1527-.01-1.8438-.125-.69105-.11517-1.3929-.38305-1.9688-.84375-.34552-.34552-.57724-.82547-.75-1.3438-.11517-.57587-.22366-1.0755-.28125-1.5938v-1.2812-21.875z" fill="#fff"/></g><path d="m410.39 442.07h-13.36-24.762-89.606v27.411h39.39v82.868h35.589v-82.868h25.857l27.066 66.283c.97898 2.4187 2.1307 4.7221 3.5128 6.8529 1.3821 2.1307 3.1673 4.0311 5.2404 5.6435 2.1307 1.67 4.7221 2.9369 7.7742 3.8583 3.1097.97898 6.7953 1.4397 11.172 1.4397 4.3766 0 8.0622-.46071 11.172-1.4397 3.1097-.92139 5.6435-2.1883 7.7742-3.8583 2.1307-1.6124 3.8583-3.5128 5.2404-5.6435 1.4397-2.1307 2.5914-4.4342 3.5704-6.8529l38.238-93.694h-38.123l-25.799 74.806c-.34553.92139-.69105 1.5549-1.0942 1.9004-.40311.34553-.69104.51829-.97898.46071-.23035.0576-.57587-.11518-.97898-.46071-.40311-.34551-.74863-.97898-1.0366-1.9004l-25.857-74.806z" fill="#fff"/></g></svg>