<?xml version="1.0" encoding="UTF-8"?>
<!-- Created with Inkscape (http://www.inkscape.org/) -->
<svg id="svg4549" width="232.63mm" height="331.05mm" version="1.1" viewBox="0 0 232.63 331.05" xmlns="http://www.w3.org/2000/svg" xmlns:cc="http://creativecommons.org/ns#" xmlns:dc="http://purl.org/dc/elements/1.1/" xmlns:rdf="http://www.w3.org/1999/02/22-rdf-syntax-ns#">
 <defs id="defs4543">
  <linearGradient id="a" x1="31.46" x2="638.86" y1="607.65" y2="248.29" gradientTransform="scale(.35278)" gradientUnits="userSpaceOnUse">
   <stop id="stop2" stop-color="#291e56" offset="0"/>
   <stop id="stop4" stop-color="#48336b" offset=".22708"/>
   <stop id="stop6" stop-color="#64467c" offset=".37736"/>
   <stop id="stop8" stop-color="#855891" offset=".66531"/>
   <stop id="stop10" stop-color="#95619f" offset=".89744"/>
   <stop id="stop12" stop-color="#a668a9" offset="1"/>
  </linearGradient>
 </defs>
 <metadata id="metadata4546">
  <rdf:RDF>
   <cc:Work rdf:about="">
    <dc:format>image/svg+xml</dc:format>
    <dc:type rdf:resource="http://purl.org/dc/dcmitype/StillImage"/>
    <dc:title/>
   </cc:Work>
  </rdf:RDF>
 </metadata>
 <path id="path15" d="m164.43 0.787c3.2456-0.52917 6.537-0.96661 9.8319-0.71261 6.3465 0.6597 12.192 4.0428 16.503 8.6642 3.9511 4.258 6.9391 9.8108 6.8968 15.737-0.48684 6.8333-1.972 13.734-5.3375 19.756-1.6122 2.7905-3.7959 5.6303-7.0661 6.4876-5.5104 1.9121-11.331 0.508-16.969 0.29633-7.1402-0.33161-13.921 2.3036-20.461 4.8225-9.0417 3.6371-17.956 7.5847-26.769 11.737-6.1419 2.9739-12.231 6.1207-17.903 9.9272-1.4746 1.0548-3.0374 2.0849-4.1275 3.5631-0.59267 0.70908-0.24694 1.838 0.57503 2.1943 1.591 0.79022 3.4396 0.64911 5.1647 0.63853 4.5297-0.21872 8.9958-1.0548 13.469-1.7533 3.6266-0.60678 7.3025-0.89958 10.915-1.6157 5.9055-1.1571 12.012-1.5381 17.985-0.67733 4.0322 0.61736 8.1598 2.1837 10.823 5.4116 2.9669 3.556 3.6195 8.4596 3.2491 12.936-0.24694 4.3286-1.6439 8.4631-2.4624 12.693-0.43039 1.9932-0.71261 4.0252-1.337 5.9725-0.96661 3.2738-4.452 5.5421-7.8317 5.2388-2.3142 0.0318-4.6743-1.0654-6.9215-0.0917-4.8013 1.7851-9.0558 4.7237-13.346 7.4718-11.187 7.4965-21.996 15.536-32.833 23.527-6.5758 4.9177-13.088 9.9307-19.378 15.208-3.6795 3.1397-7.3836 6.2865-10.587 9.9201-1.0231 1.1853-2.1908 2.6529-1.7674 4.3321 0.35631 1.0724 1.6263 1.3617 2.6282 1.3794 2.7587 0.06 5.4434-0.73731 8.068-1.4993 7.7611-2.4377 15.208-5.7644 22.599-9.1405 13.356-6.2477 26.575-12.795 39.631-19.657 8.6254-4.4662 17.029-9.3521 25.7-13.73 6.8721-3.1362 13.571-6.6358 20.288-10.093 6.6922-3.4255 13.317-7.0732 20.454-9.5144 4.7766-1.6192 9.8778-2.5753 14.93-2.025 3.9864 0.53975 7.3836 3.1785 9.5709 6.4629 2.8258 3.9405 4.6602 8.89 3.8029 13.78-0.79727 4.8613-4.0781 8.9112-7.8775 11.857-3.5842 2.988-8.8159 3.877-13.169 2.1802-1.9826-0.77611-3.8559-2.3636-4.2474-4.5508-0.18345-0.98425-0.58561-2.293-1.7745-2.3742-1.898 0.0317-3.4361 1.3511-4.953 2.3354-4.6355 3.4396-9.4827 6.5793-14.242 9.839-11.927 8.0821-23.858 16.157-35.807 24.211-11.529 7.6764-22.701 15.879-34.325 23.414-11.275 7.3025-22.849 14.273-35.243 19.526-4.7837 2.1308-9.6696 4.0887-14.788 5.2564-8.8865 2.1766-18.126 2.2966-27.21 1.6828-6.8756-0.58209-13.702-2.4448-19.703-5.902-4.9601-2.8363-9.3028-6.7769-12.492-11.529-4.8189-7.1402-6.992-15.928-6.5264-24.5 0.75141-8.4667 5.2634-16.066 10.64-22.444 8.7066-10.181 19.734-18.08 31.171-24.913 7.1438-4.6849 14.736-8.6219 22.253-12.651 6.7416-3.5913 13.543-7.0767 20.221-10.784-3.9264-0.17992-7.8564-0.22225-11.786-0.24342-8.5055-0.26458-17.346-2.0144-24.331-7.1402-5.3975-3.8982-9.144-9.8531-10.668-16.309-0.95603-3.9158-1.21-7.9869-0.90311-12.001 0.36689-4.378 2.0426-8.5513 4.318-12.277 2.9422-4.8084 6.791-8.9923 10.908-12.813 8.1421-7.4789 17.378-13.656 26.843-19.325 5.8773-3.5066 11.885-6.7874 17.97-9.9166 13.155-7.0908 26.508-13.843 40.231-19.766 8.8159-3.8347 18.016-6.8756 27.503-8.509z" fill="url(#a)" stroke-width=".35278"/>
 <path id="path17" d="m0.24851 241.32h232.25v45.332h-232.25z" fill="#291e56" stroke-width=".35278"/>
 <path id="path17-4" transform="scale(.26458)" d="m776.31 937.21c-15.068 0.19915-30.112 5.4203-41.207 15.594-12.96 11.533-20.053 29.013-19.52 46.279 0 18.973 9.4532 37.787 25.227 48.494 13.613 9.5867 31.174 12.493 47.428 9.6133 15.747-2.3734 30.16-12.013 38.613-25.453l-24.121-16.867c-3.64 4.4001-7.7856 8.5865-12.959 11.146-9.3868 4.5601-21.481 3.8807-29.734-2.7461-11.933-9.6133-14.399-27.894-7.8125-41.281 4.4934-9.4134 14.639-15.999 25.186-15.359 9.9334-0.15987 18.627 5.9328 24.48 13.52l24.32-18.666c-11.115-16.485-30.528-24.529-49.9-24.273zm-723.63 0.00586-0.16016 116.17 94.229 0.041v-27.227l-62.135 0.1192-0.13281-18.76 55.734-0.0273-0.16015-25.346-55.428 0.14648-0.19922-17.76 61.574-0.10742v-27.16l-93.322-0.09375zm267 2.3516c-8.6101 0.00123-17.221 0.00781-25.834 0.00781v0.00196 116.41l32.133-0.1738 0.05469-33.226c16.52 0.3333 34.48 1.0659 48.867-8.4942 20.107-12.493 22.812-43.947 7.0117-60.881-9.3467-9.7601-23.278-13.28-36.398-13.627-8.6134-0.02003-17.224-0.02272-25.834-0.02149zm215.46 0.00781-0.01563 116.43 32.295-0.1191-0.02735-116.23-32.252-0.07813zm-209.11 27.002 10.244 0.04101c5.7028 0.02268 11.38-0.14218 16.541 2.5176 9.4267 4.96 9.4267 20.653 0 25.613-4.7832 2.6435-10.092 2.7793-15.457 2.7227l-11.488-0.12109 0.16016-30.773z" fill="#fff" stroke-width="1.3333"/>
 <g id="g4528" fill="#291e56" stroke-width=".35278">
  <path id="path21" d="m109.48 297.2h2.5859l15.586 33.817h-2.921l-4.1275-9.3063-19.77-0.0247-4.2404 9.331h-2.7836zm1.2065 2.8753-8.7525 19.248 17.533-0.0494z"/>
  <path id="path23" d="m212.74 297.22h2.5859l15.586 33.817h-2.921l-4.1275-9.3063-19.77-0.0247-4.2404 9.331h-2.7836zm1.2065 2.8753-8.7525 19.248 17.533-0.0494z"/>
  <path id="path25" d="m1.4729 297.4c3.87-0.0141 7.7435-4e-3 11.617-7e-3 4.8931 0.0459 9.892 1.8733 13.233 5.5386 4.311 4.6073 5.4011 11.741 3.1221 17.561-2.3742 6.35-9.0135 10.428-15.674 10.538-4.0993-7e-3 -8.2021 0-12.305-7e-3zm2.6 2.3742 0.014111 28.893 9.6591-0.0106c4.9495-0.18697 9.9519-2.7376 12.344-7.1896 2.5577-4.6108 2.4307-10.626-0.4057-15.085-2.0673-3.302-5.6163-5.5245-9.4192-6.2477-2.3754-0.39137-4.7777-0.42094-7.1833-0.40111z"/>
  <path id="path27" d="m48.393 297.4c4.8049-0.0141 9.6133 0 14.418-7e-3 3.2138 0.0388 6.6005 0.88195 9.0206 3.108 3.4996 3.2068 3.7289 9.2887 0.47272 12.742-1.9297 2.0602-4.7131 3.0762-7.4542 3.4749l11.042 14.33h-3.2703l-10.788-13.893h-10.823l0.02117 13.868h-2.6423zm2.5894 2.346 0.02117 15.046c4.057 4e-3 8.1104 0.0212 12.164-4e-3 3.1891-0.14464 6.6993-1.4923 8.1563-4.5297 1.2912-2.734 0.79728-6.403-1.6404-8.3432-2.406-1.965-5.6551-2.1731-8.629-2.1696z"/>
  <path id="path29" d="m146.07 297.4 2.4306 4e-3 13.441 19.805 13.437-19.802 2.4412-7e-3v33.631h-2.5894l0.0106-28.967-13.321 19.308-13.328-19.301-0.0529 28.96h-2.4694z"/>
 </g>
</svg>
