<?xml version="1.0" encoding="UTF-8"?>
<!-- Created with Inkscape (http://www.inkscape.org/) -->
<svg id="svg4549" width="232.63mm" height="331.05mm" version="1.1" viewBox="0 0 232.63 331.05" xmlns="http://www.w3.org/2000/svg" xmlns:cc="http://creativecommons.org/ns#" xmlns:dc="http://purl.org/dc/elements/1.1/" xmlns:rdf="http://www.w3.org/1999/02/22-rdf-syntax-ns#">
 <defs id="defs4543">
  <linearGradient id="a" x1="31.46" x2="638.86" y1="607.65" y2="248.29" gradientTransform="matrix(.35278 0 0 .35278 -133.32 -16.69)" gradientUnits="userSpaceOnUse">
   <stop id="stop2" stop-color="#291e56" offset="0"/>
   <stop id="stop4" stop-color="#48336b" offset=".22708"/>
   <stop id="stop6" stop-color="#64467c" offset=".37736"/>
   <stop id="stop8" stop-color="#855891" offset=".66531"/>
   <stop id="stop10" stop-color="#95619f" offset=".89744"/>
   <stop id="stop12" stop-color="#a668a9" offset="1"/>
  </linearGradient>
 </defs>
 <metadata id="metadata4546">
  <rdf:RDF>
   <cc:Work rdf:about="">
    <dc:format>image/svg+xml</dc:format>
    <dc:type rdf:resource="http://purl.org/dc/dcmitype/StillImage"/>
    <dc:title/>
   </cc:Work>
  </rdf:RDF>
 </metadata>
 <g id="layer1" transform="translate(133.32 16.69)">
  <path id="path15" d="m31.107-15.903c3.2456-0.52917 6.537-0.96661 9.8319-0.71261 6.3465 0.6597 12.192 4.0428 16.503 8.6642 3.9511 4.258 6.9391 9.8108 6.8968 15.737-0.48684 6.8333-1.972 13.734-5.3375 19.756-1.6122 2.7905-3.7959 5.6303-7.0661 6.4876-5.5104 1.9121-11.331 0.508-16.969 0.29633-7.1402-0.33161-13.921 2.3036-20.461 4.8225-9.0417 3.6371-17.956 7.5847-26.769 11.737-6.1419 2.9739-12.231 6.1207-17.903 9.9272-1.4746 1.0548-3.0374 2.0849-4.1275 3.5631-0.59267 0.70908-0.24694 1.838 0.57503 2.1943 1.591 0.79022 3.4396 0.64911 5.1647 0.63853 4.5297-0.21872 8.9958-1.0548 13.469-1.7533 3.6266-0.60678 7.3025-0.89958 10.915-1.6157 5.9055-1.1571 12.012-1.5381 17.985-0.67733 4.0322 0.61736 8.1598 2.1837 10.823 5.4116 2.9669 3.556 3.6195 8.4596 3.2491 12.936-0.24694 4.3286-1.6439 8.4631-2.4624 12.693-0.43039 1.9932-0.71261 4.0252-1.337 5.9725-0.96661 3.2738-4.452 5.5421-7.8317 5.2388-2.3142 0.0318-4.6743-1.0654-6.9215-0.0917-4.8013 1.7851-9.0558 4.7237-13.346 7.4718-11.187 7.4965-21.996 15.536-32.833 23.527-6.5758 4.9177-13.088 9.9307-19.378 15.208-3.6795 3.1397-7.3836 6.2865-10.587 9.9201-1.0231 1.1853-2.1908 2.6529-1.7674 4.3321 0.35631 1.0724 1.6263 1.3617 2.6282 1.3794 2.7587 0.06 5.4434-0.73731 8.068-1.4993 7.7611-2.4377 15.208-5.7644 22.599-9.1405 13.356-6.2477 26.575-12.795 39.631-19.657 8.6254-4.4662 17.029-9.3521 25.7-13.73 6.8721-3.1362 13.571-6.6358 20.288-10.093 6.6922-3.4255 13.317-7.0732 20.454-9.5144 4.7766-1.6192 9.8778-2.5753 14.93-2.025 3.9864 0.53975 7.3836 3.1785 9.5709 6.4629 2.8258 3.9405 4.6602 8.89 3.8029 13.78-0.79727 4.8613-4.0781 8.9112-7.8775 11.857-3.5842 2.988-8.8159 3.877-13.169 2.1802-1.9826-0.77611-3.8559-2.3636-4.2474-4.5508-0.18345-0.98425-0.58561-2.293-1.7745-2.3742-1.898 0.0317-3.4361 1.3511-4.953 2.3354-4.6355 3.4396-9.4827 6.5793-14.242 9.839-11.927 8.0821-23.858 16.157-35.807 24.211-11.529 7.6764-22.701 15.879-34.325 23.414-11.275 7.3025-22.849 14.273-35.243 19.526-4.7837 2.1308-9.6696 4.0887-14.788 5.2564-8.8865 2.1766-18.126 2.2966-27.21 1.6828-6.8756-0.58209-13.702-2.4448-19.703-5.902-4.9601-2.8363-9.3028-6.7769-12.492-11.529-4.8189-7.1402-6.992-15.928-6.5264-24.5 0.75141-8.4667 5.2634-16.066 10.64-22.444 8.7066-10.181 19.734-18.08 31.171-24.913 7.1438-4.6849 14.736-8.6219 22.253-12.651 6.7416-3.5913 13.543-7.0767 20.221-10.784-3.9264-0.17992-7.8564-0.22225-11.786-0.24342-8.5055-0.26458-17.346-2.0144-24.331-7.1402-5.3975-3.8982-9.144-9.8531-10.668-16.309-0.95603-3.9158-1.21-7.9869-0.90311-12.001 0.36689-4.378 2.0426-8.5513 4.318-12.277 2.9422-4.8084 6.791-8.9923 10.908-12.813 8.1421-7.4789 17.378-13.656 26.843-19.325 5.8773-3.5066 11.885-6.7874 17.97-9.9166 13.155-7.0908 26.508-13.843 40.231-19.766 8.8159-3.8347 18.016-6.8756 27.503-8.509z" fill="url(#a)" stroke-width=".35278"/>
  <g id="g33" transform="matrix(.35278 0 0 .35278 -133.32 -16.69)" fill="#fff">
   <path id="path17" d="m0.70444 684.04h658.34v128.5h-658.34zm38.69 106 70.67 0.03v-20.42l-46.6 0.09-0.1-14.07 41.8-0.02-0.12-19.01-41.57 0.11-0.15-13.32 46.18-0.08v-20.37l-69.99-0.07zm511.93-75.44c-9.72 8.65-15.04 21.76-14.64 34.71 0 14.23 7.09 28.34 18.92 36.37 10.21 7.19 23.38 9.37 35.57 7.21 11.81-1.78 22.62-9.01 28.96-19.09l-18.09-12.65c-2.73 3.3-5.84 6.44-9.72 8.36-7.04 3.42-16.11 2.91-22.3-2.06-8.95-7.21-10.8-20.92-5.86-30.96 3.37-7.06 10.98-12 18.89-11.52 7.45-0.12 13.97 4.45 18.36 10.14l18.24-14c-14.82-21.98-49.31-23.95-68.33-6.51m-330.94-9.92v87.31l24.1-0.13 0.04-24.92c12.39 0.25 25.86 0.8 36.65-6.37 15.08-9.37 17.11-32.96 5.26-45.66-7.01-7.32-17.46-9.96-27.3-10.22-12.92-0.03-25.83-0.01-38.75-0.01m180.97 0-0.01 87.32 24.22-0.09-0.02-87.17z"/>
   <path id="path19" d="m244.4 748.01 0.12-23.08 7.6835 0.0309c4.2771 0.0172 8.5352-0.1057 12.406 1.8891 7.07 3.72 7.07 15.49 0 19.21-3.5874 1.9826-7.569 2.0834-11.593 2.0409z"/>
   <g id="g31" transform="translate(-36.955 -30.66)">
    <path id="path21" d="m347.28 873.11h7.33l44.18 95.86h-8.28l-11.7-26.38-56.04-0.07-12.02 26.45h-7.8904zm3.42 8.1503-24.81 54.56 49.7-0.14z"/>
    <path id="path23" d="m639.99 873.17h7.33l44.18 95.86h-8.28l-11.7-26.38-56.04-0.07-12.02 26.45h-7.8904zm3.42 8.1503-24.81 54.56 49.7-0.14z"/>
    <path id="path25" d="m41.13 873.68c10.97-0.04 21.95-0.01 32.93-0.02 13.87 0.13 28.04 5.31 37.51 15.7 12.22 13.06 15.31 33.28 8.85 49.78-6.73 18-25.55 29.56-44.43 29.87-11.62-0.02-23.25 0-34.88-0.02zm7.37 6.73 0.04 81.9 27.38-0.03c14.03-0.53 28.21-7.76 34.99-20.38 7.25-13.07 6.89-30.12-1.15-42.76-5.86-9.36-15.92-15.66-26.7-17.71-6.7334-1.1094-13.543-1.1932-20.362-1.137z"/>
    <path id="path27" d="m174.13 873.68c13.62-0.04 27.25 0 40.87-0.02 9.11 0.11 18.71 2.5 25.57 8.81 9.92 9.09 10.57 26.33 1.34 36.12-5.47 5.84-13.36 8.72-21.13 9.85l31.3 40.62h-9.2702l-30.58-39.38h-30.68l0.06 39.31h-7.49zm7.34 6.65 0.06 42.65c11.5 0.01 22.99 0.06 34.48-0.01 9.04-0.41 18.99-4.23 23.12-12.84 3.66-7.75 2.26-18.15-4.65-23.65-6.82-5.57-16.03-6.16-24.46-6.15z"/>
    <path id="path29" d="m451 873.67 6.89 0.01 38.1 56.14 38.09-56.13 6.92-0.02v95.33h-7.34l0.03-82.11-37.76 54.73-37.78-54.71-0.15 82.09h-7z"/>
   </g>
  </g>
 </g>
</svg>
