<?xml version="1.0" encoding="UTF-8" standalone="no"?>
<!-- Created with Inkscape (http://www.inkscape.org/) -->

<svg
   xmlns:dc="http://purl.org/dc/elements/1.1/"
   xmlns:cc="http://creativecommons.org/ns#"
   xmlns:rdf="http://www.w3.org/1999/02/22-rdf-syntax-ns#"
   xmlns:svg="http://www.w3.org/2000/svg"
   xmlns="http://www.w3.org/2000/svg"
   xmlns:sodipodi="http://sodipodi.sourceforge.net/DTD/sodipodi-0.dtd"
   xmlns:inkscape="http://www.inkscape.org/namespaces/inkscape"
   width="2.8377445mm"
   height="2.8476222mm"
   viewBox="0 0 2.8377445 2.8476222"
   version="1.1"
   id="svg60673"
   inkscape:version="0.92.0 r15299"
   sodipodi:docname="EroX HD.svg">
  <defs
     id="defs60667">
    <clipPath
       clipPathUnits="userSpaceOnUse"
       id="clipPath31910">
      <path
         d="m 80.539,62.456 h 18.106 v 8.6 H 80.539 Z"
         id="path31908"
         inkscape:connector-curvature="0" />
    </clipPath>
    <clipPath
       clipPathUnits="userSpaceOnUse"
       id="clipPath49018">
      <path
         d="m 80.539,46.298 h 18.106 v 8.601 H 80.539 Z"
         id="path49016"
         inkscape:connector-curvature="0" />
    </clipPath>
  </defs>
  <sodipodi:namedview
     id="base"
     pagecolor="#ffffff"
     bordercolor="#666666"
     borderopacity="1.0"
     inkscape:pageopacity="0.0"
     inkscape:pageshadow="2"
     inkscape:zoom="31.678384"
     inkscape:cx="5.4253961"
     inkscape:cy="8.3869472"
     inkscape:document-units="mm"
     inkscape:current-layer="layer1"
     showgrid="false"
     fit-margin-top="0"
     fit-margin-left="0"
     fit-margin-right="0"
     fit-margin-bottom="0"
     inkscape:window-width="1920"
     inkscape:window-height="1017"
     inkscape:window-x="-8"
     inkscape:window-y="-8"
     inkscape:window-maximized="1" />
  <metadata
     id="metadata60670">
    <rdf:RDF>
      <cc:Work
         rdf:about="">
        <dc:format>image/svg+xml</dc:format>
        <dc:type
           rdf:resource="http://purl.org/dc/dcmitype/StillImage" />
        <dc:title></dc:title>
      </cc:Work>
    </rdf:RDF>
  </metadata>
  <g
     inkscape:label="Layer 1"
     inkscape:groupmode="layer"
     id="layer1"
     transform="translate(-71.090835,-134.21748)">
    <g
       transform="matrix(0.35277777,0,0,-0.35277777,40.903465,153.49125)"
       id="g49012">
      <g
         id="g49014"
         clip-path="url(#clipPath49018)">
        <g
           id="g49020"
           transform="translate(92.6425,53.2033)">
          <path
             d="m 0,0 c 0.092,0.077 0.173,0.132 0.215,0.134 0.252,0.013 0.126,-0.377 0.471,-0.36 0.201,0.011 0.282,0.168 0.286,0.355 V 1.214 C 0.968,1.286 0.945,1.339 0.91,1.376 0.87,1.41 0.817,1.431 0.744,1.431 L -0.394,1.43 C -0.583,1.431 -0.735,1.338 -0.736,1.137 -0.739,0.791 -0.355,0.934 -0.357,0.682 -0.357,0.641 -0.405,0.56 -0.475,0.469 -1.172,1.051 -2.07,1.402 -3.05,1.402 c -2.221,0 -4.022,-1.801 -4.022,-4.022 0,-2.221 1.801,-4.021 4.022,-4.021 2.221,0 4.022,1.8 4.022,4.021 C 0.972,-1.619 0.605,-0.704 0,0"
             style="fill:#d40046;fill-opacity:1;fill-rule:nonzero;stroke:none"
             id="path49022"
             inkscape:connector-curvature="0" />
        </g>
        <g
           id="g49024"
           transform="translate(87.8398,50.2496)">
          <path
             d="m 0,0 v -0.291 h -1.121 v 1.566 h 1.108 V 0.984 H -0.81 V 0.651 h 0.629 V 0.378 H -0.81 V 0 Z"
             style="fill:#ffffff;fill-opacity:1;fill-rule:nonzero;stroke:none"
             id="path49026"
             inkscape:connector-curvature="0" />
        </g>
        <g
           id="g49028"
           transform="translate(88.4885,50.7709)">
          <path
             d="M 0,0 H 0.277 C 0.45,0 0.53,0.112 0.53,0.23 0.53,0.354 0.447,0.463 0.277,0.463 H 0 Z M 0.566,-0.812 0.255,-0.277 H 0.237 0 v -0.535 h -0.311 v 1.566 h 0.548 c 0.385,0 0.615,-0.208 0.615,-0.524 0,-0.214 -0.105,-0.371 -0.295,-0.449 l 0.358,-0.593 z"
             style="fill:#ffffff;fill-opacity:1;fill-rule:nonzero;stroke:none"
             id="path49030"
             inkscape:connector-curvature="0" />
        </g>
        <g
           id="g49032"
           transform="translate(90.3164,50.2339)">
          <path
             d="M 0,0 C 0.289,0 0.49,0.208 0.49,0.508 0.49,0.81 0.289,1.016 0,1.016 -0.286,1.016 -0.488,0.81 -0.488,0.508 -0.488,0.208 -0.286,0 0,0 M 0,1.322 C 0.45,1.322 0.814,0.98 0.814,0.508 0.814,0.036 0.45,-0.307 0,-0.307 c -0.45,0 -0.812,0.343 -0.812,0.815 0,0.472 0.362,0.814 0.812,0.814"
             style="fill:#ffffff;fill-opacity:1;fill-rule:nonzero;stroke:none"
             id="path49034"
             inkscape:connector-curvature="0" />
        </g>
        <g
           id="g49036"
           transform="translate(91.8891,50.5002)">
          <path
             d="m 0,0 c -0.002,0 -0.087,-0.145 -0.114,-0.186 l -0.251,-0.355 h -0.371 l 0.548,0.803 -0.517,0.763 h 0.374 l 0.242,-0.36 C -0.067,0.629 -0.002,0.512 0,0.512 h 0.002 c 0.003,0 0.065,0.117 0.088,0.153 l 0.241,0.36 H 0.707 L 0.188,0.262 0.736,-0.541 H 0.365 L 0.114,-0.186 C 0.087,-0.145 0.005,0 0.002,0 Z"
             style="fill:#ffffff;fill-opacity:1;fill-rule:nonzero;stroke:none"
             id="path49038"
             inkscape:connector-curvature="0" />
        </g>
        <g
           id="g49040"
           transform="translate(89.4926,48.562)">
          <path
             d="M 0,0 H -0.287 V 0.336 H -0.532 V 0 h -0.287 v 0.945 h 0.287 V 0.61 h 0.245 V 0.945 H 0 Z"
             style="fill:#ffffff;fill-opacity:1;fill-rule:nonzero;stroke:none"
             id="path49042"
             inkscape:connector-curvature="0" />
        </g>
        <g
           id="g49044"
           transform="translate(89.8929,48.8354)">
          <path
             d="m 0,0 h 0.131 c 0.092,0 0.191,0.061 0.191,0.195 0,0.133 -0.096,0.203 -0.191,0.203 H 0 Z m 0.131,-0.273 h -0.418 v 0.944 h 0.418 c 0.278,0 0.487,-0.204 0.487,-0.476 0,-0.271 -0.205,-0.468 -0.487,-0.468"
             style="fill:#ffffff;fill-opacity:1;fill-rule:nonzero;stroke:none"
             id="path49046"
             inkscape:connector-curvature="0" />
        </g>
      </g>
    </g>
  </g>
</svg>
