<?xml version="1.0" encoding="UTF-8"?>
<!-- Created with Inkscape (http://www.inkscape.org/) -->
<svg id="svg60673" width="2.8377mm" height="2.8476mm" version="1.1" viewBox="0 0 2.8377 2.8476" xmlns="http://www.w3.org/2000/svg" xmlns:cc="http://creativecommons.org/ns#" xmlns:dc="http://purl.org/dc/elements/1.1/" xmlns:rdf="http://www.w3.org/1999/02/22-rdf-syntax-ns#">
 <defs id="defs60667">
  <clipPath id="clipPath49018">
   <path id="path49016" d="m80.539 46.298h18.106v8.601h-18.106z"/>
  </clipPath>
 </defs>
 <metadata id="metadata60670">
  <rdf:RDF>
   <cc:Work rdf:about="">
    <dc:format>image/svg+xml</dc:format>
    <dc:type rdf:resource="http://purl.org/dc/dcmitype/StillImage"/>
    <dc:title/>
   </cc:Work>
  </rdf:RDF>
 </metadata>
 <g id="layer1" transform="translate(-71.091 -134.22)">
  <g id="g49012" transform="matrix(.35278 0 0 -.35278 40.903 153.49)">
   <g id="g49014" clip-path="url(#clipPath49018)">
    <g id="g49020" transform="translate(92.642 53.203)">
     <path id="path49022" d="m0 0c0.092 0.077 0.173 0.132 0.215 0.134 0.252 0.013 0.126-0.377 0.471-0.36 0.201 0.011 0.282 0.168 0.286 0.355v1.085c-4e-3 0.072-0.027 0.125-0.062 0.162-0.04 0.034-0.093 0.055-0.166 0.055l-1.138-1e-3c-0.189 1e-3 -0.341-0.092-0.342-0.293-3e-3 -0.346 0.381-0.203 0.379-0.455 0-0.041-0.048-0.122-0.118-0.213-0.697 0.582-1.595 0.933-2.575 0.933-2.221 0-4.022-1.801-4.022-4.022s1.801-4.021 4.022-4.021 4.022 1.8 4.022 4.021c0 1.001-0.367 1.916-0.972 2.62" fill="#d40046"/>
    </g>
    <g id="g49024" transform="translate(87.84 50.25)">
     <path id="path49026" d="m0 0v-0.291h-1.121v1.566h1.108v-0.291h-0.797v-0.333h0.629v-0.273h-0.629v-0.378z" fill="#fff"/>
    </g>
    <g id="g49028" transform="translate(88.488 50.771)">
     <path id="path49030" d="m0 0h0.277c0.173 0 0.253 0.112 0.253 0.23 0 0.124-0.083 0.233-0.253 0.233h-0.277zm0.566-0.812-0.311 0.535h-0.255v-0.535h-0.311v1.566h0.548c0.385 0 0.615-0.208 0.615-0.524 0-0.214-0.105-0.371-0.295-0.449l0.358-0.593z" fill="#fff"/>
    </g>
    <g id="g49032" transform="translate(90.316 50.234)">
     <path id="path49034" d="m0 0c0.289 0 0.49 0.208 0.49 0.508 0 0.302-0.201 0.508-0.49 0.508-0.286 0-0.488-0.206-0.488-0.508 0-0.3 0.202-0.508 0.488-0.508m0 1.322c0.45 0 0.814-0.342 0.814-0.814s-0.364-0.815-0.814-0.815-0.812 0.343-0.812 0.815 0.362 0.814 0.812 0.814" fill="#fff"/>
    </g>
    <g id="g49036" transform="translate(91.889 50.5)">
     <path id="path49038" d="m0 0c-2e-3 0-0.087-0.145-0.114-0.186l-0.251-0.355h-0.371l0.548 0.803-0.517 0.763h0.374l0.242-0.36c0.022-0.036 0.087-0.153 0.089-0.153h2e-3c3e-3 0 0.065 0.117 0.088 0.153l0.241 0.36h0.376l-0.519-0.763 0.548-0.803h-0.371l-0.251 0.355c-0.027 0.041-0.109 0.186-0.112 0.186z" fill="#fff"/>
    </g>
    <g id="g49040" transform="translate(89.493 48.562)">
     <path id="path49042" d="m0 0h-0.287v0.336h-0.245v-0.336h-0.287v0.945h0.287v-0.335h0.245v0.335h0.287z" fill="#fff"/>
    </g>
    <g id="g49044" transform="translate(89.893 48.835)">
     <path id="path49046" d="m0 0h0.131c0.092 0 0.191 0.061 0.191 0.195 0 0.133-0.096 0.203-0.191 0.203h-0.131zm0.131-0.273h-0.418v0.944h0.418c0.278 0 0.487-0.204 0.487-0.476 0-0.271-0.205-0.468-0.487-0.468" fill="#fff"/>
    </g>
   </g>
  </g>
 </g>
</svg>
