<?xml version="1.0" encoding="UTF-8"?>
<!-- Created with Inkscape (http://www.inkscape.org/) -->
<svg id="svg4538" width="158.75mm" height="124.06mm" version="1.1" viewBox="0 0 158.75 124.06" xmlns="http://www.w3.org/2000/svg" xmlns:cc="http://creativecommons.org/ns#" xmlns:dc="http://purl.org/dc/elements/1.1/" xmlns:rdf="http://www.w3.org/1999/02/22-rdf-syntax-ns#">
 <metadata id="metadata4535">
  <rdf:RDF>
   <cc:Work rdf:about="">
    <dc:format>image/svg+xml</dc:format>
    <dc:type rdf:resource="http://purl.org/dc/dcmitype/StillImage"/>
    <dc:title/>
   </cc:Work>
  </rdf:RDF>
 </metadata>
 <g id="layer1" transform="translate(96.384 -86.805)">
  <g id="g26" transform="matrix(.35278 0 0 -.35278 -96.384 210.86)">
   <path id="path2" d="m96.134 222.68c0 71.227 57.727 128.97 128.95 128.97 71.245 0 128.99-57.745 128.99-128.97s-57.745-128.97-128.99-128.97c-71.227 0-128.95 57.745-128.95 128.97" fill="#fff"/>
   <path id="path4" d="m225.09 351.65c-40.173 0-76.075-18.383-99.703-47.184h84.924v-34.892h-105.4c-3.7848-9.6783-6.4162-19.951-7.7859-30.621h77.066v-34.874h-76.742c1.568-10.688 4.3976-20.961 8.4167-30.639h104.44v-34.874h-82.996c23.664-27.467 58.683-44.859 97.774-44.859 71.227 0 128.97 57.727 128.97 128.97 0 71.227-57.745 128.97-128.97 128.97" fill="#009cd8"/>
   <g id="g24" transform="matrix(18.023 0 0 18.023 -.003405 .003405)" fill="#fff">
    <path id="path6" d="m2e-4 0.043v3.015h2.217v-0.573h-1.558v-0.624h1.343v-0.535h-1.343v-0.715h1.602v-0.568z"/>
    <path id="path8" d="m4.7854 0.9048c0-0.259-0.101-0.474-0.302-0.647-0.201-0.172-0.464-0.258-0.789-0.258-0.14 0-0.275 0.015-0.407 0.047-0.131 0.032-0.238 0.069-0.324 0.112-0.087 0.043-0.163 0.087-0.23 0.132-0.065 0.044-0.115 0.082-0.146 0.114l-0.043 0.047 0.387 0.418c9e-3 -8e-3 0.022-0.02 0.04-0.036 0.016-0.016 0.052-0.043 0.107-0.082s0.111-0.073 0.171-0.101c0.058-0.029 0.132-0.056 0.22-0.08 0.087-0.025 0.174-0.037 0.26-0.037 0.113 0 0.204 0.028 0.277 0.084 0.071 0.056 0.107 0.128 0.107 0.214 0 0.1-0.049 0.19-0.146 0.269-0.099 0.079-0.278 0.172-0.539 0.278-0.481 0.187-0.72 0.476-0.72 0.867 0 0.25 0.096 0.455 0.288 0.616 0.193 0.161 0.445 0.242 0.76 0.242 0.123 0 0.243-0.014 0.357-0.041 0.114-0.028 0.21-0.06 0.286-0.097 0.076-0.038 0.146-0.075 0.205-0.112 0.061-0.038 0.104-0.069 0.129-0.095l0.043-0.043-0.387-0.418c-0.021 0.02-0.047 0.045-0.082 0.075s-0.106 0.07-0.213 0.121c-0.109 0.05-0.218 0.075-0.33 0.075-0.121 0-0.215-0.027-0.283-0.082-0.067-0.054-0.1-0.118-0.1-0.189 0-0.09 0.038-0.166 0.113-0.231 0.076-0.065 0.22-0.137 0.43-0.218 0.575-0.224 0.861-0.539 0.861-0.944"/>
    <path id="path10" d="m5.5149 2.9083v-1.529h0.978c0.251 0 0.458 0.072 0.615 0.215 0.158 0.144 0.237 0.327 0.237 0.548 0 0.22-0.079 0.403-0.237 0.549-0.157 0.144-0.364 0.217-0.615 0.217zm-0.172 0.151h1.176c0.292 0 0.532-0.087 0.719-0.261 0.186-0.173 0.28-0.391 0.28-0.652s-0.096-0.48-0.285-0.655c-0.19-0.175-0.43-0.263-0.723-0.263h-0.995v-1.184h-0.172z"/>
    <path id="path12" d="m8.5627 0.5611c0.265-0.267 0.592-0.4 0.979-0.4 0.388 0 0.715 0.133 0.98 0.4 0.266 0.267 0.399 0.597 0.399 0.99 0 0.394-0.133 0.724-0.399 0.991-0.265 0.267-0.592 0.4-0.98 0.4-0.387 0-0.714-0.133-0.979-0.4s-0.398-0.597-0.398-0.991c0-0.393 0.133-0.723 0.398-0.99m-0.118 2.089c0.301 0.301 0.668 0.452 1.102 0.452s0.8-0.15 1.098-0.448c0.299-0.299 0.448-0.665 0.448-1.098 0-0.434-0.151-0.801-0.452-1.103-0.302-0.301-0.669-0.452-1.102-0.452-0.434 0-0.8 0.149-1.099 0.448-0.298 0.299-0.447 0.665-0.447 1.098s0.15 0.801 0.452 1.103"/>
    <path id="path14" d="m15.683 2.9083v-2.864h-0.172v2.864h-1.056v0.151h2.283v-0.151z"/>
    <path id="path16" d="m11.999 2.9083v-1.464h1.012c0.244 0 0.441 0.069 0.592 0.207 0.151 0.137 0.226 0.312 0.226 0.525 0 0.212-0.075 0.388-0.226 0.525-0.151 0.138-0.348 0.207-0.592 0.207zm-0.172 0.151h1.21c0.284 0 0.516-0.084 0.694-0.25 0.181-0.166 0.271-0.376 0.271-0.629 0-0.226-0.075-0.421-0.225-0.583-0.149-0.162-0.344-0.261-0.586-0.295l0.94-1.258h-0.216l-0.935 1.249h-0.981v-1.249h-0.172z"/>
    <path id="path18" d="m17.519 1.9888c0.118-0.108 0.304-0.199 0.56-0.273 0.316-0.095 0.551-0.216 0.708-0.362 0.157-0.147 0.235-0.329 0.235-0.547 0-0.232-0.086-0.425-0.258-0.577-0.173-0.152-0.407-0.228-0.702-0.228-0.13 0-0.252 0.013-0.368 0.041-0.117 0.027-0.213 0.059-0.289 0.096-0.076 0.038-0.143 0.075-0.2 0.112-0.058 0.038-0.099 0.069-0.125 0.095l-0.04 0.043 0.122 0.125 0.037-0.037c0.014-0.015 0.051-0.044 0.111-0.086 0.059-0.041 0.122-0.077 0.188-0.107s0.153-0.058 0.259-0.084c0.109-0.026 0.221-0.039 0.339-0.039 0.224 0 0.405 0.059 0.545 0.179 0.139 0.119 0.209 0.267 0.209 0.445 0 0.187-0.064 0.34-0.192 0.459-0.127 0.119-0.349 0.227-0.665 0.325-0.258 0.081-0.46 0.188-0.605 0.321s-0.219 0.29-0.219 0.471c0 0.21 0.084 0.386 0.252 0.528s0.391 0.213 0.666 0.213c0.178 0 0.342-0.027 0.492-0.082 0.149-0.054 0.253-0.107 0.314-0.159l0.086-0.082-0.121-0.125c-0.021 0.023-0.049 0.051-0.088 0.082-0.038 0.032-0.123 0.074-0.254 0.127s-0.27 0.08-0.42 0.08c-0.241 0-0.428-0.057-0.557-0.17-0.131-0.113-0.197-0.244-0.197-0.39 0-0.155 0.06-0.286 0.177-0.394"/>
    <path id="path20" d="m20.879 2.4859v-2.441h-0.654v2.441h-0.879v0.573h2.412v-0.573z"/>
    <path id="path22" d="m21.909 3.0591h0.741l0.805-2.166 0.806 2.166h0.707l-1.203-3.014h-0.655z"/>
   </g>
  </g>
 </g>
</svg>
