<svg height="468.87241" viewBox="0 0 599.99999 468.87241" width="600" xmlns="http://www.w3.org/2000/svg"><g transform="matrix(1.3333333 0 0 -1.3333333 -.000267 468.87213)"><path d="m96.134485 222.67665c0 71.2266 57.727435 128.97206 128.954035 128.97206 71.24462 0 128.99008-57.74546 128.99008-128.97206s-57.74546-128.972055-128.99008-128.972055c-71.2266 0-128.954035 57.745455-128.954035 128.972055" fill="#fff"/><path d="m225.09392 351.65411c-40.1731 0-76.07476-18.38338-99.70282-47.18402h84.92403v-34.89238h-105.39807c-3.78482-9.67831-6.416165-19.95138-7.785907-30.62095h77.066027v-34.87436h-76.741614c1.567994-10.6876 4.397594-20.96066 8.416704-30.63898h104.44286v-34.87436h-82.99558c23.6641-27.46694 58.68265-44.859058 97.77437-44.859058 71.22661 0 128.97206 57.727428 128.97206 128.972058 0 71.2266-57.74545 128.97205-128.97206 128.97205" fill="#009cd8"/><g transform="matrix(18.022926 0 0 18.022926 -.003405 .003405)"><path d="m .0002.043v3.015h2.217v-.573h-1.558v-.624h1.343v-.535h-1.343v-.715h1.602v-.568z"/><path d="m4.7854.9048c0-.259-.101-.474-.302-.647-.201-.172-.464-.258-.789-.258-.14 0-.275.015-.407.047-.131.032-.238.069-.324.112-.087.043-.163.087-.23.132-.065.044-.115.082-.146.114l-.043.047.387.418c.009-.008.022-.02.04-.036.016-.016.052-.043.107-.082s.111-.073.171-.101c.058-.029.132-.056.22-.08.087-.025.174-.037.26-.037.113 0 .204.028.277.084.071.056.107.128.107.214 0 .1-.049.19-.146.269-.099.079-.278.172-.539.278-.481.187-.72.476-.72.867 0 .25.096.455.288.616.193.161.445.242.76.242.123 0 .243-.014.357-.041.114-.028.21-.06.286-.097.076-.038.146-.075.205-.112.061-.038.104-.069.129-.095l.043-.043-.387-.418c-.021.02-.047.045-.082.075s-.106.07-.213.121c-.109.05-.218.075-.33.075-.121 0-.215-.027-.283-.082-.067-.054-.1-.118-.1-.189 0-.09.038-.166.113-.231.076-.065.22-.137.43-.218.575-.224.861-.539.861-.944"/><path d="m5.5149 2.9083v-1.529h.978c.251 0 .458.072.615.215.158.144.237.327.237.548 0 .22-.079.403-.237.549-.157.144-.364.217-.615.217zm-.172.151h1.176c.292 0 .532-.087.719-.261.186-.173.28-.391.28-.652s-.096-.48-.285-.655c-.19-.175-.43-.263-.723-.263h-.995v-1.184h-.172z"/><path d="m8.5627.5611c.265-.267.592-.4.979-.4.388 0 .715.133.98.4.266.267.399.597.399.99 0 .394-.133.724-.399.991-.265.267-.592.4-.98.4-.387 0-.714-.133-.979-.4s-.398-.597-.398-.991c0-.393.133-.723.398-.99m-.118 2.089c.301.301.668.452 1.102.452s.8-.15 1.098-.448c.299-.299.448-.665.448-1.098 0-.434-.151-.801-.452-1.103-.302-.301-.669-.452-1.102-.452-.434 0-.8.149-1.099.448-.298.299-.447.665-.447 1.098s.15.801.452 1.103"/><path d="m15.6828 2.9083v-2.864h-.172v2.864h-1.056v.151h2.283v-.151z"/><path d="m11.9992 2.9083v-1.464h1.012c.244 0 .441.069.592.207.151.137.226.312.226.525 0 .212-.075.388-.226.525-.151.138-.348.207-.592.207zm-.172.151h1.21c.284 0 .516-.084.694-.25.181-.166.271-.376.271-.629 0-.226-.075-.421-.225-.583-.149-.162-.344-.261-.586-.295l.94-1.258h-.216l-.935 1.249h-.981v-1.249h-.172z"/><path d="m17.5188 1.9888c.118-.108.304-.199.56-.273.316-.095.551-.216.708-.362.157-.147.235-.329.235-.547 0-.232-.086-.425-.258-.577-.173-.152-.407-.228-.702-.228-.13 0-.252.013-.368.041-.117.027-.213.059-.289.096-.076.038-.143.075-.2.112-.058.038-.099.069-.125.095l-.04.043.122.125.037-.037c.014-.015.051-.044.111-.086.059-.041.122-.077.188-.107s.153-.058.259-.084c.109-.026.221-.039.339-.039.224 0 .405.059.545.179.139.119.209.267.209.445 0 .187-.064.34-.192.459-.127.119-.349.227-.665.325-.258.081-.46.188-.605.321s-.219.29-.219.471c0 .21.084.386.252.528s.391.213.666.213c.178 0 .342-.027.492-.082.149-.054.253-.107.314-.159l.086-.082-.121-.125c-.021.023-.049.051-.088.082-.038.032-.123.074-.254.127s-.27.08-.42.08c-.241 0-.428-.057-.557-.17-.131-.113-.197-.244-.197-.39 0-.155.06-.286.177-.394"/><path d="m20.8791 2.4859v-2.441h-.654v2.441h-.879v.573h2.412v-.573z"/><path d="m21.9094 3.0591h.741l.805-2.166.806 2.166h.707l-1.203-3.014h-.655z"/></g></g></svg>