<svg id="a" width="179.13pt" height="47.121pt" version="1.1" viewBox="0 0 179.13 47.121" xmlns="http://www.w3.org/2000/svg">
 <g id="b" transform="translate(-23.55 -28.62)">
  <path id="c" d="m88.1 30.05c1.44-1.29 3.86-2.09 5.5-0.7 2.88 1.93 3.79 5.97 2.24 9.03-6.58-0.61-10.96 5.33-15.77 8.85 3.05 6.97 7.81 13.14 12.36 19.22 0.49 1.5-1.45 1.94-2.45 2.47-3.61 1.14-7.56 1.23-11.26 0.41-2.5-3.26-4.95-6.56-7.52-9.77-0.31-0.14-0.93-0.43-1.25-0.57-4.12 4.75-7.12 10.58-8.66 16.69-4.05 0.46-8.38-1.7-9.82-5.64 3.98-6.12 9.07-11.43 13.18-17.44 0.05-0.36 0.13-1.09 0.18-1.45-2.48-4.08-5.69-7.65-8.57-11.43-0.02-0.35-0.06-1.04-0.08-1.39 4.34-3.48 9.94-4.78 15.3-5.78 1.52 2.71 2.96 5.47 4.42 8.21 4.41-3.16 8.07-7.21 12.2-10.71z" fill="#cb0203"/>
 </g>
 <g id="d" transform="translate(-23.55 -28.62)" fill="#020202">
  <path id="e" d="m23.58 36.64c8.7-0.02 17.4 0.09 26.1-0.06 0.09 2.44 0.08 4.88 0.06 7.32-5.94 0.25-11.89-0.03-17.83 0.19-0.01 0.81-0.03 2.45-0.04 3.27h8.16c0.05 2.45 0.06 4.89 0.05 7.34-2.74 0.02-5.48 0.02-8.21 0.03 0.01 0.85 0.04 2.55 0.05 3.41 5.95 0.03 11.89-0.03 17.84 0.03-0.01 2.43-0.02 4.87-0.02 7.31-8.73-0.01-17.46 0.02-26.19 0 0.06-9.61 0.01-19.23 0.03-28.84z"/>
  <path id="f" d="m99.61 43.85c0-2.44 0-4.88 0.01-7.32 8.05 0 16.11-0.02 24.17 0.01-0.04 2.44-0.04 4.87-0.02 7.31-2.75-0.01-5.49 0-8.24 0.03-0.01 7.21-0.01 14.41 0.01 21.62-2.8-0.01-5.6-0.02-8.4-0.06 0.13-7.19 0.01-14.38 0.06-21.57-2.53-0.03-5.06-0.02-7.59-0.02z"/>
  <path id="g" d="m129.91 36.66c3.5 0 7 0 10.5-0.03 3.01 9.6 5.96 19.23 8.9 28.85-3.05 0-6.11 0.02-9.16-0.02-0.4-1.28-0.79-2.57-1.18-3.86-2.49-0.02-4.98-0.02-7.47-0.04-0.44 1.29-0.87 2.59-1.31 3.88-3.07 0.03-6.15 0.05-9.22 0.02 3.04-9.58 5.95-19.2 8.94-28.8m3.98 17.58c0.86 0.01 1.72 0.01 2.58 0.02-0.45-1.3-0.89-2.6-1.36-3.89-0.42 1.29-0.82 2.58-1.22 3.87z"/>
  <path id="h" d="m150.63 40.37c0.41-2.51 3.11-3.69 5.41-3.72 6-0.29 12-0.04 18.01-0.14 0.03 2.43 0.01 4.87-0.08 7.3-5.09 0.12-10.19 0-15.29 0.08 0.04 0.84 0.1 2.54 0.14 3.38 4.01 0.12 8.02-0.1 12.03 0.12 2.88 0.2 5.67 2.48 5.84 5.47 0.16 3 0.33 6.07-0.26 9.03-0.53 2.42-3.17 3.56-5.44 3.5-6.9 0.22-13.81 0.04-20.71 0.07 0.02-2.43 0.02-4.85-0.01-7.27 6-0.08 11.99-0.04 17.99-0.04 0.04-0.87 0.13-2.61 0.17-3.47-4.12-0.11-8.26 0.21-12.36-0.22-2.7-0.43-5.82-2.29-5.71-5.37-0.1-2.9-0.26-5.85 0.27-8.72z"/>
  <path id="i" d="m175.36 36.64c3.42 0.01 6.83 0.02 10.25 0.01 1.13 1.9 2.23 3.82 3.37 5.72 1.11-1.9 2.21-3.81 3.32-5.71 3.46 0 6.92 0.01 10.38-0.01-3.17 5.46-6.38 10.92-9.38 16.47-0.52 4.07-0.08 8.22-0.2 12.32-2.81 0.04-5.63 0.04-8.45 0.06-0.06-4.13 0.17-8.26-0.07-12.38-2.73-5.66-6.17-10.98-9.22-16.48z"/>
 </g>
</svg>
