<svg height="47.120731pt" viewBox="0 0 179.13 47.120731" width="179.13pt" xmlns="http://www.w3.org/2000/svg"><path d="m88.1 30.05c1.44-1.29 3.86-2.09 5.5-.7 2.88 1.93 3.79 5.97 2.24 9.03-6.58-.61-10.96 5.33-15.77 8.85 3.05 6.97 7.81 13.14 12.36 19.22.49 1.5-1.45 1.94-2.45 2.47-3.61 1.14-7.56 1.23-11.26.41-2.5-3.26-4.95-6.56-7.52-9.77-.31-.14-.93-.43-1.25-.57-4.12 4.75-7.12 10.58-8.66 16.69-4.05.46-8.38-1.7-9.82-5.64 3.98-6.12 9.07-11.43 13.18-17.44.05-.36.13-1.09.18-1.45-2.48-4.08-5.69-7.65-8.57-11.43-.02-.35-.06-1.04-.08-1.39 4.34-3.48 9.94-4.78 15.3-5.78 1.52 2.71 2.96 5.47 4.42 8.21 4.41-3.16 8.07-7.21 12.2-10.71z" fill="#cb0203" transform="translate(-23.55 -28.620421)"/><g fill="#fff" transform="translate(-23.55 -28.620421)"><path d="m23.58 36.64c8.7-.02 17.4.09 26.1-.06.09 2.44.08 4.88.06 7.32-5.94.25-11.89-.03-17.83.19-.01.81-.03 2.45-.04 3.27h8.16c.05 2.45.06 4.89.05 7.34-2.74.02-5.48.02-8.21.03.01.85.04 2.55.05 3.41 5.95.03 11.89-.03 17.84.03-.01 2.43-.02 4.87-.02 7.31-8.73-.01-17.46.02-26.19 0 .06-9.61.01-19.23.03-28.84z"/><path d="m99.61 43.85c0-2.44 0-4.88.01-7.32 8.05 0 16.11-.02 24.17.01-.04 2.44-.04 4.87-.02 7.31-2.75-.01-5.49 0-8.24.03-.01 7.21-.01 14.41.01 21.62-2.8-.01-5.6-.02-8.4-.06.13-7.19.01-14.38.06-21.57-2.53-.03-5.06-.02-7.59-.02z"/><path d="m129.91 36.66c3.5 0 7 0 10.5-.03 3.01 9.6 5.96 19.23 8.9 28.85-3.05 0-6.11.02-9.16-.02-.4-1.28-.79-2.57-1.18-3.86-2.49-.02-4.98-.02-7.47-.04-.44 1.29-.87 2.59-1.31 3.88-3.07.03-6.15.05-9.22.02 3.04-9.58 5.95-19.2 8.94-28.8m3.98 17.58c.86.01 1.72.01 2.58.02-.45-1.3-.89-2.6-1.36-3.89-.42 1.29-.82 2.58-1.22 3.87z"/><path d="m150.63 40.37c.41-2.51 3.11-3.69 5.41-3.72 6-.29 12-.04 18.01-.14.03 2.43.01 4.87-.08 7.3-5.09.12-10.19 0-15.29.08.04.84.1 2.54.14 3.38 4.01.12 8.02-.1 12.03.12 2.88.2 5.67 2.48 5.84 5.47.16 3 .33 6.07-.26 9.03-.53 2.42-3.17 3.56-5.44 3.5-6.9.22-13.81.04-20.71.07.02-2.43.02-4.85-.01-7.27 6-.08 11.99-.04 17.99-.04.04-.87.13-2.61.17-3.47-4.12-.11-8.26.21-12.36-.22-2.7-.43-5.82-2.29-5.71-5.37-.1-2.9-.26-5.85.27-8.72z"/><path d="m175.36 36.64c3.42.01 6.83.02 10.25.01 1.13 1.9 2.23 3.82 3.37 5.72 1.11-1.9 2.21-3.81 3.32-5.71 3.46 0 6.92.01 10.38-.01-3.17 5.46-6.38 10.92-9.38 16.47-.52 4.07-.08 8.22-.2 12.32-2.81.04-5.63.04-8.45.06-.06-4.13.17-8.26-.07-12.38-2.73-5.66-6.17-10.98-9.22-16.48z"/></g></svg>