<?xml version="1.0" encoding="UTF-8" standalone="no"?>
<svg
   xmlns:dc="http://purl.org/dc/elements/1.1/"
   xmlns:cc="http://creativecommons.org/ns#"
   xmlns:rdf="http://www.w3.org/1999/02/22-rdf-syntax-ns#"
   xmlns:svg="http://www.w3.org/2000/svg"
   xmlns="http://www.w3.org/2000/svg"
   xmlns:sodipodi="http://sodipodi.sourceforge.net/DTD/sodipodi-0.dtd"
   xmlns:inkscape="http://www.inkscape.org/namespaces/inkscape"
   width="450.00238pt"
   height="248.28255pt"
   viewBox="0 0 450.00237 248.28255"
   version="1.1"
   id="svg2"
   inkscape:version="0.92.0 r15299"
   sodipodi:docname="Extasy Leo TV.svg">
  <metadata
     id="metadata23">
    <rdf:RDF>
      <cc:Work
         rdf:about="">
        <dc:format>image/svg+xml</dc:format>
        <dc:type
           rdf:resource="http://purl.org/dc/dcmitype/StillImage" />
        <dc:title></dc:title>
      </cc:Work>
    </rdf:RDF>
  </metadata>
  <defs
     id="defs21">
    <linearGradient
       id="linearGradient21510"
       gradientUnits="userSpaceOnUse"
       gradientTransform="matrix(0,62.639673,-62.639673,0,-511.64002,121.02133)"
       x1="0"
       x2="1"
       y1="0"
       y2="0">
      <stop
         stop-color="#FFF"
         offset="0"
         id="stop16" />
      <stop
         stop-color="#ed2023"
         offset="0.68628"
         id="stop18" />
      <stop
         stop-color="#ed2023"
         offset="1"
         id="stop20" />
    </linearGradient>
    <linearGradient
       id="linearGradient21505"
       gradientUnits="userSpaceOnUse"
       gradientTransform="matrix(0,62.642009,-62.642009,0,-336.88432,121.02133)"
       x1="0"
       x2="1"
       y1="0"
       y2="0">
      <stop
         stop-color="#FFF"
         offset="0"
         id="stop9" />
      <stop
         stop-color="#ed2023"
         offset="0.68628"
         id="stop11" />
      <stop
         stop-color="#ed2023"
         offset="1"
         id="stop13" />
    </linearGradient>
    <linearGradient
       id="linearGradient21500"
       gradientUnits="userSpaceOnUse"
       gradientTransform="matrix(0,65.767568,-65.767568,0,-151.21954,119.29269)"
       x1="0"
       x2="1"
       y1="0"
       y2="0">
      <stop
         stop-color="#FFF"
         offset="0"
         id="stop2" />
      <stop
         stop-color="#ed2023"
         offset="0.68628"
         id="stop4" />
      <stop
         stop-color="#ed2023"
         offset="1"
         id="stop6" />
    </linearGradient>
  </defs>
  <sodipodi:namedview
     pagecolor="#ffffff"
     bordercolor="#666666"
     borderopacity="1"
     objecttolerance="10"
     gridtolerance="10"
     guidetolerance="10"
     inkscape:pageopacity="0"
     inkscape:pageshadow="2"
     inkscape:window-width="1920"
     inkscape:window-height="1017"
     id="namedview19"
     showgrid="false"
     fit-margin-top="0"
     fit-margin-left="0"
     fit-margin-right="0"
     fit-margin-bottom="0"
     inkscape:zoom="1.4810673"
     inkscape:cx="233.45538"
     inkscape:cy="151.06282"
     inkscape:window-x="-8"
     inkscape:window-y="-8"
     inkscape:window-maximized="1"
     inkscape:current-layer="svg2" />
  <g
     id="#ffffffff"
     transform="translate(-23.549994,20.368979)" />
  <g
     id="g4564">
    <g
       transform="matrix(2.5121545,0,0,2.5121545,-59.161232,-71.898919)"
       id="#cb0203ff">
      <path
         style="opacity:1;fill:#cb0203"
         inkscape:connector-curvature="0"
         id="path6"
         d="m 88.1,30.05 c 1.44,-1.29 3.86,-2.09 5.5,-0.7 2.88,1.93 3.79,5.97 2.24,9.03 -6.58,-0.61 -10.96,5.33 -15.77,8.85 3.05,6.97 7.81,13.14 12.36,19.22 0.49,1.5 -1.45,1.94 -2.45,2.47 -3.61,1.14 -7.56,1.23 -11.26,0.41 -2.5,-3.26 -4.95,-6.56 -7.52,-9.77 -0.31,-0.14 -0.93,-0.43 -1.25,-0.57 -4.12,4.75 -7.12,10.58 -8.66,16.69 -4.05,0.46 -8.38,-1.7 -9.82,-5.64 3.98,-6.12 9.07,-11.43 13.18,-17.44 0.05,-0.36 0.13,-1.09 0.18,-1.45 -2.48,-4.08 -5.69,-7.65 -8.57,-11.43 -0.02,-0.35 -0.06,-1.04 -0.08,-1.39 4.34,-3.48 9.94,-4.78 15.3,-5.78 1.52,2.71 2.96,5.47 4.42,8.21 4.41,-3.16 8.07,-7.21 12.2,-10.71 z" />
    </g>
    <g
       style="fill:#ffffff;fill-opacity:1"
       transform="matrix(2.5121545,0,0,2.5121545,-59.161232,-71.898919)"
       id="#020202ff">
      <path
         style="opacity:1;fill:#ffffff;fill-opacity:1"
         inkscape:connector-curvature="0"
         id="path9"
         d="m 23.58,36.64 c 8.7,-0.02 17.4,0.09 26.1,-0.06 0.09,2.44 0.08,4.88 0.06,7.32 -5.94,0.25 -11.89,-0.03 -17.83,0.19 -0.01,0.81 -0.03,2.45 -0.04,3.27 2.72,0 5.44,0 8.16,0 0.05,2.45 0.06,4.89 0.05,7.34 -2.74,0.02 -5.48,0.02 -8.21,0.03 0.01,0.85 0.04,2.55 0.05,3.41 5.95,0.03 11.89,-0.03 17.84,0.03 -0.01,2.43 -0.02,4.87 -0.02,7.31 -8.73,-0.01 -17.46,0.02 -26.19,0 0.06,-9.61 0.01,-19.23 0.03,-28.84 z" />
      <path
         style="opacity:1;fill:#ffffff;fill-opacity:1"
         inkscape:connector-curvature="0"
         id="path11"
         d="m 99.61,43.85 c 0,-2.44 0,-4.88 0.01,-7.32 8.05,0 16.11,-0.02 24.17,0.01 -0.04,2.44 -0.04,4.87 -0.02,7.31 -2.75,-0.01 -5.49,0 -8.24,0.03 -0.01,7.21 -0.01,14.41 0.01,21.62 -2.8,-0.01 -5.6,-0.02 -8.4,-0.06 0.13,-7.19 0.01,-14.38 0.06,-21.57 -2.53,-0.03 -5.06,-0.02 -7.59,-0.02 z" />
      <path
         style="opacity:1;fill:#ffffff;fill-opacity:1"
         inkscape:connector-curvature="0"
         id="path13"
         d="m 129.91,36.66 c 3.5,0 7,0 10.5,-0.03 3.01,9.6 5.96,19.23 8.9,28.85 -3.05,0 -6.11,0.02 -9.16,-0.02 -0.4,-1.28 -0.79,-2.57 -1.18,-3.86 -2.49,-0.02 -4.98,-0.02 -7.47,-0.04 -0.44,1.29 -0.87,2.59 -1.31,3.88 -3.07,0.03 -6.15,0.05 -9.22,0.02 3.04,-9.58 5.95,-19.2 8.94,-28.8 m 3.98,17.58 c 0.86,0.01 1.72,0.01 2.58,0.02 -0.45,-1.3 -0.89,-2.6 -1.36,-3.89 -0.42,1.29 -0.82,2.58 -1.22,3.87 z" />
      <path
         style="opacity:1;fill:#ffffff;fill-opacity:1"
         inkscape:connector-curvature="0"
         id="path15"
         d="m 150.63,40.37 c 0.41,-2.51 3.11,-3.69 5.41,-3.72 6,-0.29 12,-0.04 18.01,-0.14 0.03,2.43 0.01,4.87 -0.08,7.3 -5.09,0.12 -10.19,0 -15.29,0.08 0.04,0.84 0.1,2.54 0.14,3.38 4.01,0.12 8.02,-0.1 12.03,0.12 2.88,0.2 5.67,2.48 5.84,5.47 0.16,3 0.33,6.07 -0.26,9.03 -0.53,2.42 -3.17,3.56 -5.44,3.5 -6.9,0.22 -13.81,0.04 -20.71,0.07 0.02,-2.43 0.02,-4.85 -0.01,-7.27 6,-0.08 11.99,-0.04 17.99,-0.04 0.04,-0.87 0.13,-2.61 0.17,-3.47 -4.12,-0.11 -8.26,0.21 -12.36,-0.22 -2.7,-0.43 -5.82,-2.29 -5.71,-5.37 -0.1,-2.9 -0.26,-5.85 0.27,-8.72 z" />
      <path
         style="opacity:1;fill:#ffffff;fill-opacity:1"
         inkscape:connector-curvature="0"
         id="path17"
         d="m 175.36,36.64 c 3.42,0.01 6.83,0.02 10.25,0.01 1.13,1.9 2.23,3.82 3.37,5.72 1.11,-1.9 2.21,-3.81 3.32,-5.71 3.46,0 6.92,0.01 10.38,-0.01 -3.17,5.46 -6.38,10.92 -9.38,16.47 -0.52,4.07 -0.08,8.22 -0.2,12.32 -2.81,0.04 -5.63,0.04 -8.45,0.06 -0.06,-4.13 0.17,-8.26 -0.07,-12.38 -2.73,-5.66 -6.17,-10.98 -9.22,-16.48 z" />
    </g>
  </g>
  <g
     transform="matrix(0.74999999,0,0,0.74999999,496.02014,68.483019)"
     id="g45">
    <path
       style="fill:#181210;fill-rule:nonzero"
       inkscape:connector-curvature="0"
       d="m -536.92,236.02 h -124.44 v -28.85 l 5.1859,-0.49056 c 6.8211,-0.67744 10.652,-1.6819 11.68,-3.1302 1.2381,-1.7053 1.2381,-6.9846 1.2381,-12.544 v -70.056 c 0,-6.0502 0,-10.839 -1.168,-12.474 -1.495,-2.0557 -9.2505,-2.92 -11.797,-3.177 l -5.1392,-0.56064 v -28.803 h 88.277 v 28.99 l -5.3261,0.37376 c -9.3673,0.67744 -12.638,2.0323 -13.712,3.0602 -1.2848,1.2147 -1.1213,7.8957 -1.0746,10.091 l 0.0467,2.4995 v 72.673 l -0.0234,3.247 c -0.0234,2.7098 -0.0701,6.0502 0.37376,6.8678 l -0.14016,-0.14016 c 0.14016,0.0701 1.3782,0.86431 7.3584,0.86431 28.499,0 45.318,-25.649 51.228,-36.675 l 2.6864,-4.999 5.0224,2.6163 15.067,7.8489 4.7654,2.4762 -2.1491,4.929 -22.706,51.929 -1.495,3.4339 h -3.761"
       id="path27" />
    <path
       style="fill:#181210;fill-rule:nonzero"
       inkscape:connector-curvature="0"
       d="m -392.34,189.77 h -22.169 l -0.56064,-5.1158 c -0.72416,-6.751 -2.3594,-12.194 -4.7421,-15.768 -1.7987,-2.7331 -11.446,-1.8922 -11.446,-1.8922 v 17.87 c -0.0701,12.965 0.28032,17.053 0.60736,18.197 v -0.0234 l -0.0701,-0.23359 -0.0234,-0.0467 c 0.37376,0.51391 2.2192,1.7053 10.769,1.7053 29.293,0 44.874,-13.899 60.526,-36.371 l 2.8032,-4.0179 4.415,2.1491 15.277,7.4051 5.0691,2.4762 -2.3827,5.1158 -24.014,51.485 -1.5418,3.3171 h -138.99 v -28.452 l 4.7421,-0.8176 3.7142,-0.67743 c 8.76,-1.5651 8.9936,-1.9856 8.9936,-15.067 v -70.033 l 0.0234,-3.2938 c 0.14016,-9.6476 0.14016,-10.208 -7.6854,-11.563 l -9.7878,-1.6819 v -28.476 h 135.25 l 1.5651,3.2704 21.608,45.155 2.4528,5.1392 -5.1392,2.4995 -19.319,9.3907 -2.8032,-4.1347 c -13.479,-20.019 -29.901,-29.761 -50.201,-29.761 -10.232,0 -14.39,1.425 -15.137,1.9622 l 0.28032,-0.28032 0.0234,-0.0467 c -1.2381,1.9622 -1.0979,10.232 -1.0512,12.965 l 0.0234,2.336 0.0234,9.9981 h 0.56064 l 2.2659,0.0234 c 5.256,0.0701 9.087,-0.0234 10.699,-2.2426 l -0.14016,0.16352 0.88768,-1.2848 c 1.8688,-2.7565 1.8688,-2.7565 1.8688,-6.097 v -5.7465 h 28.499 v 70.5 h -5.7465"
       id="path29" />
    <path
       style="fill:#181210;fill-rule:nonzero"
       inkscape:connector-curvature="0"
       d="m -208.26,188.48 c 5.4662,-11.143 6.6109,-24.948 6.6109,-34.549 0,-17.637 -4.8121,-32.984 -12.871,-41.043 -4.7888,-4.7888 -10.629,-7.1248 -17.824,-7.1248 -32.797,0 -33.732,45.972 -33.732,51.205 0,17.987 4.8589,33.592 13.035,41.768 5.0224,5.0458 11.236,7.4985 18.945,7.4985 13.782,0 21.678,-9.7177 25.836,-17.754 m -85.965,29.27 c -16.889,-15.324 -25.462,-35.53 -25.462,-60.128 0,-23.71 8.5264,-45.295 24.037,-60.806 15.838,-15.838 38.007,-24.575 62.441,-24.575 24.598,0 46.883,8.76 62.768,24.621 14.647,14.67 22.379,33.942 22.379,55.737 0,50.504 -37.002,87.133 -87.974,87.133 -23.01,0 -42.048,-7.1949 -58.19,-21.982"
       id="path31" />
    <path
       style="fill:url(#linearGradient21510)"
       inkscape:connector-curvature="0"
       d="m -536.92,230.3 h -118.69 v -17.917 c 17.894,-1.7286 18.104,-5.6531 18.104,-21.374 v -70.033 c 0,-15.721 0,-19.435 -18.104,-21.374 V 81.685 h 76.807 v 17.917 c -6.1203,0.42048 -13.736,1.2848 -17.24,4.5552 -3.7142,3.504 -2.8266,12.007 -2.8266,16.819 v 72.649 c 0,12.451 -1.5418,16.586 13.292,16.586 25.322,0 44.945,-18.548 56.297,-39.712 l 15.044,7.8723 -22.682,51.929"
       id="path33" />
    <path
       style="fill:url(#linearGradient21505)"
       inkscape:connector-curvature="0"
       d="m -392.34,184.05 h -17.006 c -0.65408,-6.1203 -2.1958,-13.105 -5.6765,-18.361 -3.9245,-5.8634 -12.147,-5.4429 -18.478,-5.4429 h -3.504 v 22.916 c 0,3.7142 -0.21024,18.104 0.88768,21.608 1.9622,5.4429 11.54,5.4429 16.142,5.4429 30.742,0 48.215,-14.39 65.221,-38.824 l 15.277,7.4051 -23.991,51.509 h -129.6 v -17.917 l 3.7142,-0.63072 c 13.292,-2.4061 13.736,-7.2182 13.736,-20.744 v -70.033 c 0,-12.007 1.5184,-18.104 -12.451,-20.533 l -4.999,-0.84096 v -17.917 h 125.89 l 21.585,45.178 -14.834,7.1949 c -13.082,-19.412 -30.531,-32.283 -54.966,-32.283 -4.1581,0 -16.586,0.21024 -19.412,3.9245 -2.8499,3.7142 -2.1958,14.203 -2.1958,18.758 v 15.721 h 6.3306 c 5.8867,0 13.689,0.86432 17.613,-4.5785 3.0602,-4.5786 3.7142,-4.929 3.7142,-10.605 h 17.006 v 59.054"
       id="path35" />
    <path
       style="fill:url(#linearGradient21500)"
       inkscape:connector-curvature="0"
       d="m -290.37,213.48 c -16.352,-14.834 -23.57,-33.802 -23.57,-55.854 0,-47.117 34.69,-79.634 80.732,-79.634 43.193,0 79.424,29.247 79.424,74.612 0,47.794 -35.344,81.386 -82.25,81.386 -20.954,0 -38.637,-6.097 -54.335,-20.51 m 87.273,-22.472 c 5.4429,-11.119 7.1949,-24.878 7.1949,-37.096 0,-22.893 -8.2928,-53.891 -36.442,-53.891 -29.667,0 -39.478,31.863 -39.478,56.952 0,23.991 8.503,54.989 37.726,54.989 14.413,0 24.668,-8.7366 30.999,-20.954"
       id="path37" />
    <path
       style="fill:#181210;fill-rule:nonzero"
       inkscape:connector-curvature="0"
       d="m -133.68,40.57 c 2.1725,0.30368 6.1904,1.8454 6.7977,1.8454 l 5.256,-0.60736 c 10.185,0 17.006,6.7977 17.006,16.072 0,0.91104 -0.32704,4.3216 -0.63072,7.1014 11.75,-13.292 15.768,-21.001 27.495,-21.001 9.2739,0 16.399,6.4707 16.399,15.745 0,12.054 -13.292,21.328 -22.869,34.923 -3.1069,4.0179 -6.7977,8.3395 -9.9046,12.661 -6.167,8.0358 -12.054,17.31 -18.221,25.346 -7.4285,9.5776 -10.512,23.804 -23.173,29.363 l -4.9523,1.2381 c -4.0179,6.167 -8.6432,12.661 -12.661,18.548 l -0.63072,-18.244 -0.60736,-4.3216 -3.4106,-3.4106 -3.3872,-5.8633 c -1.2381,-2.4762 -2.1725,-9.8813 -2.1725,-12.988 0,-18.524 8.6432,-45.108 14.226,-61.483 l -2.7798,-0.30368 c -0.9344,0 -8.3629,-1.5651 -11.143,0.91104 -4.929,3.7142 -7.7088,10.208 -11.119,15.137 -8.9702,13.292 -16.679,26.887 -23.477,39.875 -7.7321,14.834 -6.4941,29.363 -22.869,29.363 -6.4941,0 -14.226,-4.3216 -17.31,-12.054 l -0.9344,-3.7142 v -6.167 c 4.6486,-17.94 16.375,-36.465 28.125,-54.405 -12.661,0.63072 -19.459,-7.4051 -19.459,-16.983 0,-6.1904 2.4528,-12.684 11.119,-16.072 4.9523,-2.1725 10.512,-2.7798 15.768,-4.0179 14.834,-3.4106 30.578,-5.256 46.042,-6.4941 l 12.965,-0.30368 c 0.9344,0 7.1248,-0.30368 10.512,0.30368"
       id="path39" />
    <path
       style="fill:#ea2226;fill-rule:nonzero"
       inkscape:connector-curvature="0"
       d="m -133.68,44.284 c 2.4762,0.30368 6.1904,2.1725 7.1014,2.1725 l 5.8867,-0.9344 c 6.7977,0 12.661,4.3216 12.661,11.423 0,4.9523 -4.3216,12.988 -6.1904,17.31 -2.7798,5.8867 -5.2326,12.684 -7.7088,19.155 l 0.30368,0.9344 c 9.8812,-14.53 20.09,-29.971 35.227,-43.566 3.0835,-3.0835 6.1904,-3.4106 9.5776,-3.4106 6.4941,0 11.75,4.9523 11.75,11.446 0,2.7798 -0.30368,4.9289 -2.4762,8.0358 -6.4941,8.9469 -14.53,17.917 -21.631,27.191 -10.208,12.357 -19.786,26.56 -28.733,39.548 -5.8867,8.3395 -8.9702,20.09 -19.786,24.107 l -4.3216,0.60736 c -3.0835,2.1725 -4.3216,6.1904 -6.4941,9.2739 l -0.60736,-2.1491 v -8.3395 l -0.63072,-1.2381 c -7.1014,-4.9523 -8.6432,-13.923 -8.6432,-19.786 0,-19.155 10.512,-50.06 16.679,-66.436 h -2.7798 c -6.4941,0.60736 -13.292,0.91104 -20.09,1.2381 -17.917,23.78 -33.685,47.888 -42.328,72.299 l -2.1725,5.8867 c -1.8454,4.3216 -7.4051,6.4707 -10.512,6.4707 l -2.7798,-0.60735 c -4.3216,0 -11.119,-7.1014 -11.119,-10.512 v -7.1014 c 6.1904,-19.482 19.786,-40.483 32.751,-59.638 l -0.91104,-0.32704 -10.512,1.8688 c -6.7977,0 -12.988,-4.9523 -12.988,-12.357 0,-4.0179 1.2381,-8.9702 7.1248,-11.75 5.8634,-3.0835 13.595,-4.0179 19.763,-5.256 12.684,-2.4762 27.191,-4.9523 40.179,-5.5597 h 24.411"
       id="path41" />
    <path
       style="fill:#f2eb1b;fill-rule:nonzero"
       inkscape:connector-curvature="0"
       d="m -136.78,50.147 c 3.3872,0 7.4051,1.5418 8.0358,5.5597 2.1725,-4.3216 4.9523,-4.0179 7.1014,-4.0179 3.1069,0 6.1904,0.63072 6.1904,4.9523 l -1.5418,5.5597 c -8.0358,17.31 -15.464,35.53 -19.482,53.471 -0.91104,3.6909 -1.5418,8.3395 -2.1491,12.357 l 0.30368,1.5418 c 16.375,-24.715 31.209,-49.757 55.316,-74.168 l 5.256,-1.8454 c 2.7798,0 5.5597,1.8454 5.5597,4.6253 0,4.6253 -5.8867,9.8813 -9.5776,14.834 -3.4106,4.3216 -7.1248,8.3395 -10.512,12.988 -3.0835,3.3872 -6.1904,7.7088 -8.9702,11.423 -6.167,7.4285 -11.727,15.137 -16.983,23.173 -3.7142,4.9523 -6.7977,10.512 -10.208,15.768 -3.0835,4.6253 -6.7977,14.834 -13.595,14.834 -8.9702,0 -10.512,-9.9046 -10.512,-15.137 0,-0.93439 0.63072,-8.9702 1.2381,-13.292 3.4106,-19.155 9.5776,-39.875 18.244,-58.727 l 0.91104,-3.0835 c -6.7977,1.5418 -12.965,1.2381 -19.459,2.1725 l -18.851,0.91104 -0.30368,1.5418 c -4.3216,7.7321 -11.446,16.702 -16.702,24.738 -9.5776,14.53 -17.917,29.667 -24.411,44.501 -2.1491,4.6253 -2.1491,13.595 -8.3395,13.595 -5.8633,0 -7.4051,-4.9523 -7.4051,-8.3395 0,-4.3449 1.5418,-7.7321 3.6909,-12.381 8.6665,-19.763 23.196,-39.548 35.858,-59.334 l 0.60735,-1.5418 -25.322,5.256 c -4.0179,0.30368 -6.4941,-2.4762 -6.4941,-5.8633 0,-1.5418 0.60736,-4.9523 3.7142,-5.8633 20.393,-6.4941 41.09,-9.2739 62.114,-10.208 h 16.679"
       id="path43" />
  </g>
</svg>
