<svg height="297" width="386.9957" xmlns="http://www.w3.org/2000/svg"><g fill="#fff" transform="translate(-382.42278 -489.77032)"><path d="m410.38986 786.77031c-2.66148 0-4.87276-.31064-6.67433-1.55318l2.74339-1.80173c.94182.59023 2.53877.80772 3.93094.80772 1.71981 0 2.53877-.37288 2.53877-1.05626 0-.27958-.0818-.52798-.3275-.68337-.20477-.15524-.61417-.24854-1.18754-.34168l-2.12922-.18645c-1.51504-.15524-2.70258-.49693-3.48058-1.02505-.81895-.55918-1.22836-1.3357-1.22836-2.3609 0-2.11222 2.41591-3.69645 6.42876-3.69645 2.49781 0 4.38129.40378 5.89648 1.42884l-2.74354 1.77068c-1.06468-.71442-2.53877-.68338-3.27581-.68338-1.51504 0-2.12922.59023-2.12922 1.08716 0 .15539.0818.34169.3275.55918.20477.12419.61417.27958 1.18754.34168l2.17017.18644c1.51504.15525 2.66164.46589 3.43963.96296.94182.62128 1.31027 1.46004 1.31027 2.57825 0 2.3609-3.11199 3.66554-6.79735 3.66554"/><path d="m439.09414 778.75585c0 .59022-.69609 1.18045-1.92445 1.18045h-2.37494v-2.39195h2.37494c1.22836 0 1.92445.62127 1.92445 1.2115zm4.29953 0c0-1.92592-2.08826-3.75869-5.97825-3.75869h-6.96116v11.71105h4.34049v-4.19367h2.62067c3.88999 0 5.97825-1.86382 5.97825-3.75869"/><path d="m464.85024 780.83716c0 2.11236-.28668 2.51614-.65513 2.85783-.32764.27959-.94182.52813-1.71981.52813-.778 0-1.39218-.24854-1.71982-.52813-.40955-.34169-.65513-.74547-.65513-2.85783 0-2.17446.24558-2.51614.65513-2.85783.32764-.27959.94182-.52813 1.71982-.52813.77799 0 1.39217.24854 1.71981.52813.36845.34169.65513.68337.65513 2.85783zm4.29954 0c0-1.77067.0819-3.38596-1.76077-4.62851-1.31027-.83876-2.7845-1.33569-4.91371-1.33569-2.12937 0-3.64441.49693-4.91372 1.33569-1.84267 1.24255-1.80172 2.85784-1.80172 4.62851 0 1.77068-.041 3.38596 1.80172 4.62851 1.26931.83861 2.78435 1.30464 4.91372 1.30464 2.12921 0 3.60344-.46603 4.91371-1.30464 1.84268-1.24255 1.76077-2.85783 1.76077-4.62851"/><path d="m709.59403 786.70821v-11.71105h11.91583v2.54719h-7.6163v1.95712h6.51066v2.57824h-6.51066v2.01906h7.6163v2.60944"/><path d="m734.98154 786.70821v-11.71105h4.38144v9.10161h7.28866v2.60944"/><path d="m575.90008 489.77032c-106.87317 0-193.4773 44.88697-193.4773 103.34896 0 58.46185 86.60413 103.34882 193.4773 103.34882 106.87331 0 193.5184-44.88697 193.5184-103.34882 0-58.46199-86.64509-103.34896-193.5184-103.34896zm.20477 197.22343c-84.02442 0-151.79266-40.81779-151.79266-94.34049 0-53.49166 67.76824-92.91151 151.79266-92.91151 84.02457 0 151.42421 39.41985 151.42421 92.91151 0 53.5227-67.39964 94.34049-151.42421 94.34049"/><path d="m575.90008 602.81113 111.29556-33.85943v31.15684l-59.61968 17.24043 54.58325 13.01555-6.96117 25.90722-99.25701-22.98714-99.1751 22.64545-7.12484-25.59657 54.70596-12.98451-59.57872-17.52002v-30.87725"/><path d="m549.73457 536.17943h50.9798c6.59257 0 8.0257-2.01907 3.15294-4.44207 0 0-10.31874-5.18768-27.76246-5.18768-18.91781 0-29.48227 5.21873-29.48227 5.21873-4.95467 2.423-3.56235 4.41102 3.11199 4.41102zm-55.15632 12.61192c0-18.60717 40.86569-38.3015 81.07624-37.33854 40.37423.96296 73.419 20.87478 74.89308 39.04696.041.43499.0819 1.3669.0819 1.39794l-104.21168.0932c-7.28865 0-9.95014 3.5724-4.4632 6.77192 0 0 13.71741 7.57948 32.75808 7.57948 12.69368 0 22.1117-2.95098 27.3529-5.28083l47.94973-.031-1.47409 1.52214c-13.26705 13.51278-41.76655 22.83189-72.10873 22.83189-40.21056 0-81.85424-15.96683-81.85424-36.59306"/><path d="m491.22053 778.75585c0 .59022-.69609 1.18045-1.88364 1.18045h-2.45685v-2.39195h2.45685c1.18755 0 1.88364.62127 1.88364 1.2115zm5.2412 7.95236-3.80807-4.93914c1.39217-.43498 2.8664-1.42899 2.8664-3.01322 0-1.92592-2.08841-3.75869-6.01935-3.75869h-6.87925v11.71105h4.25858v-4.37996h1.47408l3.11199 4.37996"/><path d="m516.68995 777.54435v9.16386h-4.29954v-9.16386h-4.34049v-2.54719h12.93942v2.54719"/><path d="m538.96547 786.77031c-2.70258 0-4.91386-.31064-6.63352-1.55318l2.74339-1.80173c.90086.59023 2.49781.80772 3.93094.80772 1.67886 0 2.49781-.37288 2.49781-1.05626 0-.27958-.0819-.52798-.32749-.68337-.24573-.15524-.61418-.24854-1.18755-.34168l-2.08826-.18645c-1.55599-.15524-2.74354-.49693-3.56249-1.02505-.778-.55918-1.1874-1.3357-1.1874-2.3609 0-2.11222 2.4159-3.69645 6.42875-3.69645 2.49781 0 4.3813.40378 5.89648 1.42884l-2.70258 1.77068c-1.10564-.71442-2.57972-.68338-3.35772-.68338-1.47408 0-2.08826.59023-2.08826 1.08716 0 .15539.0818.34169.36845.55918.20477.12419.57322.27958 1.14659.34168l2.12921.18644c1.59695.15525 2.74355.46589 3.48059.96296.94181.62128 1.31026 1.46004 1.31026 2.57825 0 2.3609-3.07103 3.66554-6.7972 3.66554"/><path d="m581.01856 786.77031c-2.00635 0-3.56234-.46603-4.87275-1.30464-1.84268-1.24255-1.76077-2.85783-1.76077-4.62851 0-1.77067-.0819-3.38596 1.76077-4.62851 1.31041-.83876 2.8664-1.33569 4.87275-1.33569 3.35772 0 6.01935 1.24255 6.67448 3.78974h-4.38144c-.28654-.62127-.81895-1.2115-2.25208-1.2115-.778 0-1.39218.21749-1.67886.49708-.36845.34169-.69609.71442-.69609 2.88888 0 2.11236.32764 2.54719.69609 2.88888.28668.27959.90086.49708 1.67886.49708 1.43313 0 1.96554-.62128 2.25208-1.2736h4.38144c-.65513 2.60929-3.31676 3.82079-6.67448 3.82079"/><path d="m609.31344 786.70821v-4.65955h-4.58622v4.65955h-4.29954v-11.71105h4.29954v4.47311h4.58622v-4.47311h4.29938v11.71105"/><path d="m635.47895 782.51454h-3.07119l1.59695-3.10637zm6.4697 4.19367-6.38779-11.71105h-3.35772l-6.38795 11.71105h4.50431l.90087-1.77067h5.36406l.85991 1.77067"/><path d="m664.10131 786.70821-5.6098-5.9021v5.9021h-4.34049v-11.71105h3.76712l5.6098 5.87105v-5.87105h4.34049v11.71105"/><path d="m691.82281 786.70821-5.6098-5.9021v5.9021h-4.34049v-11.71105h3.76712l5.65091 5.87105v-5.87105h4.25843v11.71105"/><path d="m404.53448 725.51273v35.8785h28.17186v-8.20076s-17.19799 0-17.6893 0c0-.46603 0-5.31188 0-5.77791h15.10958v-8.2318s-14.61827 0-15.10958 0c0-.46603 0-4.87705 0-5.34308h17.6893v-8.32495h-.24558"/><path d="m486.67526 725.51273h-.49131-11.50628s-5.40503 9.03952-5.81458 9.75394c-.4094-.71442-5.77362-9.75394-5.77362-9.75394h-12.03855s11.83378 17.20923 12.07951 17.51987c-.24573.27958-12.89846 18.35863-12.89846 18.35863h12.07951s6.14221-9.94039 6.55161-10.62376c.40955.68337 6.55162 10.62376 6.55162 10.62376h12.0795s-12.69368-18.07905-12.89845-18.35863c.20477-.31064 12.0795-17.51987 12.0795-17.51987"/><path d="m503.70958 725.51273v8.32495h9.9911v27.55355h10.44175s0-27.05647 0-27.55355h10.073v-8.32495h-.28653"/><path d="m585.40001 737.19259c0-3.16847-1.2285-5.87105-3.60345-8.04551-2.66163-2.3918-6.18302-3.63435-10.52351-3.63435h-16.09236-.28668v35.8785h10.52351s0-12.64282 0-13.10885h2.94832c.12271.24854 7.20674 13.10885 7.20674 13.10885h12.20237s-8.55811-14.4135-8.8856-14.87953c4.29953-1.95697 6.51066-5.06334 6.51066-9.31911zm-19.98249-3.35491h5.40517c1.1874 0 2.21113.34184 2.98912.96311.73705.68337 1.10564 1.42884 1.10564 2.3918 0 .86982-.36859 1.61543-1.10564 2.26776-.77799.65232-1.71981.96296-2.98912.96296 0 0-4.95467 0-5.40517 0 0-.43498 0-6.1196 0-6.58563"/><path d="m607.47076 725.51273v35.8785h28.21281v-8.20076s-17.23894 0-17.73026 0c0-.46603 0-5.31188 0-5.77791h15.15069v-8.2318s-14.65937 0-15.15069 0c0-.46603 0-4.87705 0-5.34308h17.73026v-8.32495h-.28653"/><path d="m685.76251 725.51273s-8.55797 14.63099-9.00847 15.34541c-.4094-.71442-8.96752-15.34541-8.96752-15.34541h-10.23683v35.8785h10.48256s0-14.69309 0-16.24627c.81895 1.27359 8.68083 13.35739 8.68083 13.35739s7.94394-12.0838 8.80385-13.38844v16.27732h10.52351v-35.8785h-.28669"/><path d="m747.02009 733.83768v-8.32495h-.24558-27.92628v35.8785h28.17186v-8.20076s-17.19799 0-17.6893 0c0-.46603 0-5.31188 0-5.77791h15.15068v-8.2318s-14.65937 0-15.15068 0c0-.46603 0-4.87705 0-5.34308z"/></g></svg>