<?xml version="1.0" encoding="UTF-8" standalone="no"?>
<!-- Created with Inkscape (http://www.inkscape.org/) -->

<svg
   xmlns:dc="http://purl.org/dc/elements/1.1/"
   xmlns:cc="http://creativecommons.org/ns#"
   xmlns:rdf="http://www.w3.org/1999/02/22-rdf-syntax-ns#"
   xmlns:svg="http://www.w3.org/2000/svg"
   xmlns="http://www.w3.org/2000/svg"
   xmlns:sodipodi="http://sodipodi.sourceforge.net/DTD/sodipodi-0.dtd"
   xmlns:inkscape="http://www.inkscape.org/namespaces/inkscape"
   width="6.3876758mm"
   height="2.7245028mm"
   viewBox="0 0 6.3876758 2.7245028"
   version="1.1"
   id="svg60673"
   inkscape:version="0.92.0 r15299"
   sodipodi:docname="FashionBox HD.svg">
  <defs
     id="defs60667">
    <clipPath
       clipPathUnits="userSpaceOnUse"
       id="clipPath31910">
      <path
         d="m 80.539,62.456 h 18.106 v 8.6 H 80.539 Z"
         id="path31908"
         inkscape:connector-curvature="0" />
    </clipPath>
    <clipPath
       clipPathUnits="userSpaceOnUse"
       id="clipPath49018">
      <path
         d="m 80.539,46.298 h 18.106 v 8.601 H 80.539 Z"
         id="path49016"
         inkscape:connector-curvature="0" />
    </clipPath>
    <clipPath
       clipPathUnits="userSpaceOnUse"
       id="clipPath25906">
      <path
         d="m 153.106,127.085 h 18.106 v 8.601 h -18.106 z"
         id="path25904"
         inkscape:connector-curvature="0" />
    </clipPath>
  </defs>
  <sodipodi:namedview
     id="base"
     pagecolor="#ffffff"
     bordercolor="#666666"
     borderopacity="1.0"
     inkscape:pageopacity="0.0"
     inkscape:pageshadow="2"
     inkscape:zoom="31.678384"
     inkscape:cx="15.634126"
     inkscape:cy="4.5389367"
     inkscape:document-units="mm"
     inkscape:current-layer="layer1"
     showgrid="false"
     fit-margin-top="0"
     fit-margin-left="0"
     fit-margin-right="0"
     fit-margin-bottom="0"
     inkscape:window-width="1920"
     inkscape:window-height="1017"
     inkscape:window-x="-8"
     inkscape:window-y="-8"
     inkscape:window-maximized="1" />
  <metadata
     id="metadata60670">
    <rdf:RDF>
      <cc:Work
         rdf:about="">
        <dc:format>image/svg+xml</dc:format>
        <dc:type
           rdf:resource="http://purl.org/dc/dcmitype/StillImage" />
        <dc:title></dc:title>
      </cc:Work>
    </rdf:RDF>
  </metadata>
  <g
     inkscape:label="Layer 1"
     inkscape:groupmode="layer"
     id="layer1"
     transform="translate(-68.389775,-133.32248)">
    <g
       id="g25892"
       transform="matrix(0.35277777,0,0,-0.35277777,72.061415,133.32248)">
      <path
         d="M 0,0 V -6.845 L 7.699,-7.723 6.844,0 Z"
         style="fill:#c5006b;fill-opacity:1;fill-rule:nonzero;stroke:none"
         id="path25894"
         inkscape:connector-curvature="0" />
    </g>
    <g
       id="g25896"
       transform="matrix(0.35277777,0,0,-0.35277777,74.033762,134.6442)">
      <path
         d="m 0,0 -0.455,-0.805 h -0.502 l 0.733,1.155 -0.713,1.121 h 0.502 L 0,0.68 0.442,1.471 H 0.944 L 0.238,0.35 0.964,-0.805 H 0.462 Z"
         style="fill:#ffffff;fill-opacity:1;fill-rule:evenodd;stroke:none"
         id="path25898"
         inkscape:connector-curvature="0" />
    </g>
    <g
       transform="matrix(0.35277777,0,0,-0.35277777,14.377382,181.03479)"
       id="g25900"
       style="fill:#ffffff;fill-opacity:1">
      <g
         id="g25902"
         clip-path="url(#clipPath25906)"
         style="fill:#ffffff;fill-opacity:1">
        <g
           id="g25908"
           transform="translate(164.9171,131.6957)"
           style="fill:#ffffff;fill-opacity:1">
          <path
             d="M 0,0 H -0.376 V -0.607 H 0 V -1.01 H -0.798 V 0 H -1.11 l 0.001,0.363 h 0.311 L -0.799,1.287 H 0 V 0.884 H -0.376 V 0.363 H 0 Z M 0.013,0 H 0 v 0.363 h 0.013 c 0.145,0 0.277,0.132 0.277,0.264 0,0.151 -0.138,0.257 -0.277,0.257 H 0 V 1.287 H 0.013 C 0.574,1.287 0.719,0.838 0.719,0.633 0.719,0.528 0.68,0.336 0.482,0.211 0.693,0.152 0.845,-0.059 0.845,-0.324 0.845,-0.482 0.706,-1.01 0.02,-1.01 H 0 v 0.403 h 0.013 c 0.225,0 0.363,0.145 0.363,0.297 C 0.376,-0.165 0.271,0 0.013,0"
             style="fill:#ffffff;fill-opacity:1;fill-rule:evenodd;stroke:none"
             id="path25910"
             inkscape:connector-curvature="0" />
        </g>
        <g
           id="g25912"
           transform="translate(167.1225,131.095)"
           style="fill:#ffffff;fill-opacity:1">
          <path
             d="m 0,0 c -0.409,0 -0.739,0.33 -0.739,0.739 0,0.409 0.33,0.739 0.739,0.739 v 0.449 h -0.013 c -0.653,0 -1.188,-0.528 -1.188,-1.188 0,-0.653 0.535,-1.188 1.188,-1.188 H 0 Z M 0,0 V 0 -0.449 C 0.653,-0.442 1.181,0.086 1.181,0.739 1.181,1.392 0.653,1.92 0,1.927 V 1.478 c 0.409,0 0.739,-0.33 0.739,-0.739 C 0.739,0.33 0.409,0 0,0"
             style="fill:#ffffff;fill-opacity:1;fill-rule:evenodd;stroke:none"
             id="path25914"
             inkscape:connector-curvature="0" />
        </g>
        <g
           id="g25916"
           transform="translate(169.0424,128.6995)"
           style="fill:#ffffff;fill-opacity:1">
          <path
             d="M 0,0 H -0.37 V 0.434 H -0.686 V 0 h -0.37 v 1.219 h 0.37 V 0.787 H -0.37 V 1.219 H 0 Z"
             style="fill:#ffffff;fill-opacity:1;fill-rule:nonzero;stroke:none"
             id="path25918"
             inkscape:connector-curvature="0" />
        </g>
        <g
           id="g25920"
           transform="translate(169.5587,129.0522)"
           style="fill:#ffffff;fill-opacity:1">
          <path
             d="m 0,0 h 0.169 c 0.119,0 0.247,0.079 0.247,0.252 0,0.171 -0.124,0.261 -0.247,0.261 H 0 Z M 0.169,-0.353 H -0.37 v 1.219 h 0.539 c 0.358,0 0.628,-0.264 0.628,-0.614 0,-0.35 -0.264,-0.605 -0.628,-0.605"
             style="fill:#ffffff;fill-opacity:1;fill-rule:nonzero;stroke:none"
             id="path25922"
             inkscape:connector-curvature="0" />
        </g>
        <g
           id="g25924"
           transform="translate(155.0085,131.8265)"
           style="fill:#ffffff;fill-opacity:1">
          <path
             d="m 0,0 v -0.645 c -0.022,-0.09 -0.033,-0.17 -0.032,-0.239 0,-0.054 0.009,-0.101 0.027,-0.14 0.001,-0.004 0.003,-0.008 0.005,-0.011 v -0.173 c -0.032,0.009 -0.062,0.023 -0.09,0.041 -0.056,0.038 -0.1,0.092 -0.131,0.162 -0.031,0.071 -0.046,0.155 -0.047,0.254 0,0.073 0.011,0.153 0.033,0.239 0.022,0.087 0.054,0.176 0.097,0.269 C -0.1,-0.162 -0.054,-0.081 0,0 M 0,1.444 C -0.024,1.448 -0.05,1.449 -0.077,1.45 -0.188,1.45 -0.286,1.421 -0.373,1.362 -0.459,1.304 -0.536,1.216 -0.604,1.098 -0.671,0.981 -0.733,0.833 -0.787,0.656 L -0.872,0.386 H -1.185 L -1.199,0.298 h 0.31 l -0.394,-1.795 c -0.03,-0.136 -0.057,-0.252 -0.082,-0.344 -0.025,-0.092 -0.054,-0.162 -0.087,-0.209 -0.033,-0.048 -0.075,-0.071 -0.127,-0.071 -0.033,10e-4 -0.058,0.008 -0.073,0.022 -0.016,0.014 -0.027,0.033 -0.034,0.056 -0.008,0.022 -0.015,0.047 -0.023,0.073 -0.008,0.027 -0.023,0.048 -0.041,0.064 -0.018,0.017 -0.041,0.024 -0.068,0.025 -0.028,0 -0.049,-0.009 -0.063,-0.026 -0.014,-0.018 -0.021,-0.042 -0.021,-0.074 0,-0.064 0.023,-0.114 0.07,-0.152 0.046,-0.038 0.115,-0.057 0.204,-0.058 0.093,0 0.173,0.021 0.239,0.063 0.066,0.042 0.123,0.106 0.172,0.192 0.048,0.087 0.091,0.197 0.132,0.331 0.04,0.133 0.08,0.291 0.122,0.474 l 0.327,1.429 h 0.355 l 0.007,0.088 h -0.341 l 0.081,0.347 c 0.049,0.214 0.111,0.375 0.184,0.482 0.073,0.107 0.157,0.161 0.252,0.161 0.038,0 0.067,-0.005 0.088,-0.013 C -0.007,1.361 -0.003,1.36 0,1.358 Z M 1.312,-0.881 C 1.304,-0.9 1.3,-0.922 1.3,-0.947 1.3,-0.974 1.304,-1 1.312,-1.024 Z m 0,0.294 V -0.639 C 1.26,-0.824 1.195,-0.967 1.12,-1.064 1.039,-1.17 0.948,-1.224 0.847,-1.224 c -0.07,0 -0.124,0.019 -0.16,0.057 -0.036,0.038 -0.055,0.093 -0.055,0.165 0,0.028 0.004,0.066 0.012,0.114 0.008,0.048 0.02,0.107 0.038,0.178 C 0.614,-0.882 0.533,-1.011 0.439,-1.096 0.345,-1.181 0.236,-1.224 0.112,-1.224 0.072,-1.223 0.035,-1.218 0,-1.208 v 0.173 c 0.017,-0.034 0.04,-0.06 0.068,-0.079 0.03,-0.021 0.065,-0.032 0.104,-0.032 0.076,0 0.147,0.033 0.214,0.099 0.066,0.067 0.133,0.165 0.201,0.296 0.072,0.138 0.131,0.27 0.176,0.392 0.045,0.123 0.078,0.233 0.099,0.328 C 0.883,0.066 0.893,0.143 0.893,0.201 0.892,0.269 0.875,0.322 0.842,0.36 0.81,0.399 0.765,0.419 0.71,0.419 0.632,0.419 0.555,0.381 0.475,0.304 0.397,0.226 0.318,0.111 0.239,-0.042 0.146,-0.222 0.077,-0.382 0.033,-0.524 0.02,-0.566 0.009,-0.606 0,-0.645 V 0 C 0.008,0.012 0.016,0.024 0.024,0.035 0.096,0.136 0.171,0.221 0.249,0.289 0.328,0.357 0.404,0.408 0.479,0.442 0.553,0.476 0.623,0.493 0.685,0.493 0.754,0.493 0.813,0.472 0.861,0.43 0.909,0.387 0.941,0.328 0.96,0.25 L 1.012,0.445 C 1.016,0.456 1.021,0.464 1.029,0.469 1.036,0.473 1.046,0.475 1.058,0.475 1.104,0.475 1.139,0.469 1.162,0.459 1.186,0.448 1.199,0.432 1.199,0.412 1.199,0.403 1.198,0.391 1.196,0.378 1.194,0.365 1.192,0.352 1.188,0.338 L 0.893,-0.736 C 0.877,-0.796 0.865,-0.851 0.858,-0.902 0.85,-0.952 0.847,-0.994 0.847,-1.028 0.848,-1.056 0.855,-1.078 0.871,-1.095 0.885,-1.112 0.904,-1.12 0.928,-1.12 c 0.048,0 0.101,0.046 0.159,0.138 0.058,0.092 0.118,0.229 0.182,0.412 z M 0.268,1.217 C 0.267,1.261 0.253,1.3 0.223,1.335 0.194,1.37 0.154,1.397 0.101,1.418 0.07,1.43 0.037,1.439 0,1.444 V 1.358 C 0.016,1.35 0.029,1.34 0.037,1.328 0.048,1.313 0.056,1.296 0.061,1.276 0.067,1.256 0.072,1.235 0.078,1.213 0.087,1.186 0.101,1.164 0.118,1.148 0.137,1.133 0.157,1.125 0.18,1.125 0.205,1.126 0.226,1.135 0.243,1.153 0.259,1.171 0.267,1.192 0.268,1.217 M 4.913,-0.662 4.864,-0.629 C 4.811,-0.736 4.763,-0.826 4.719,-0.898 4.675,-0.971 4.633,-1.025 4.593,-1.062 4.554,-1.098 4.515,-1.117 4.477,-1.117 4.457,-1.116 4.441,-1.108 4.429,-1.094 4.416,-1.079 4.411,-1.06 4.41,-1.035 c 0,0.031 0.011,0.083 0.033,0.155 0.021,0.072 0.053,0.164 0.094,0.277 l 0.102,0.284 c 0.042,0.118 0.076,0.222 0.1,0.312 0.024,0.09 0.036,0.169 0.037,0.234 C 4.775,0.31 4.755,0.374 4.717,0.421 4.678,0.469 4.625,0.493 4.558,0.493 4.479,0.493 4.401,0.449 4.323,0.36 4.246,0.271 4.171,0.137 4.097,-0.042 l 0.06,-0.026 C 4.225,0.085 4.289,0.2 4.35,0.276 4.41,0.352 4.462,0.39 4.505,0.39 4.523,0.39 4.538,0.382 4.55,0.366 4.562,0.351 4.568,0.329 4.568,0.301 4.568,0.264 4.558,0.213 4.538,0.146 4.519,0.08 4.491,-0.001 4.456,-0.098 L 4.326,-0.452 C 4.286,-0.555 4.256,-0.649 4.234,-0.734 4.211,-0.818 4.2,-0.896 4.199,-0.965 4.2,-1.045 4.219,-1.107 4.256,-1.15 c 0.038,-0.044 0.09,-0.066 0.157,-0.066 0.093,0 0.18,0.046 0.262,0.138 0.082,0.092 0.161,0.231 0.238,0.416 m 0.024,1.897 c 0,0.031 -0.007,0.057 -0.02,0.08 C 4.904,1.338 4.886,1.357 4.864,1.37 4.842,1.384 4.817,1.39 4.79,1.39 4.762,1.39 4.736,1.384 4.713,1.37 4.69,1.357 4.673,1.338 4.659,1.315 4.646,1.292 4.639,1.266 4.639,1.235 4.64,1.191 4.654,1.154 4.681,1.125 4.708,1.096 4.743,1.082 4.786,1.08 4.814,1.081 4.838,1.088 4.861,1.101 4.884,1.114 4.902,1.133 4.916,1.156 4.93,1.179 4.937,1.206 4.937,1.235 M 4.045,-0.629 3.989,-0.596 C 3.917,-0.762 3.851,-0.887 3.79,-0.97 3.73,-1.053 3.674,-1.095 3.623,-1.095 c -0.021,0 -0.038,0.008 -0.051,0.022 -0.012,0.015 -0.019,0.036 -0.019,0.063 0,0.019 0.002,0.04 0.006,0.064 0.004,0.025 0.011,0.053 0.022,0.084 l 0.193,0.609 c 0.03,0.097 0.051,0.18 0.063,0.251 0.013,0.07 0.019,0.126 0.018,0.167 0,0.105 -0.024,0.187 -0.072,0.243 C 3.736,0.464 3.669,0.493 3.585,0.493 3.492,0.493 3.394,0.443 3.292,0.345 3.188,0.246 3.078,0.098 2.959,-0.098 L 3.367,1.487 2.825,1.417 2.804,1.328 C 2.82,1.33 2.835,1.331 2.849,1.333 2.863,1.335 2.876,1.335 2.888,1.335 2.941,1.336 2.98,1.33 3.005,1.317 3.031,1.304 3.043,1.281 3.043,1.247 3.043,1.232 3.041,1.217 3.039,1.203 3.036,1.189 3.032,1.174 3.029,1.162 L 2.431,-1.172 h 0.243 c 0.058,0.26 0.124,0.488 0.197,0.683 0.072,0.195 0.147,0.357 0.226,0.487 0.078,0.129 0.155,0.226 0.23,0.291 0.075,0.065 0.145,0.097 0.208,0.097 0.034,0 0.06,-0.012 0.078,-0.035 C 3.631,0.328 3.641,0.294 3.641,0.25 3.641,0.224 3.637,0.188 3.629,0.142 3.621,0.097 3.607,0.043 3.588,-0.02 L 3.395,-0.637 C 3.377,-0.692 3.362,-0.745 3.35,-0.796 3.338,-0.847 3.332,-0.897 3.331,-0.947 c 0,-0.085 0.018,-0.149 0.054,-0.19 0.035,-0.043 0.089,-0.065 0.161,-0.065 0.101,0 0.192,0.048 0.272,0.143 0.08,0.094 0.156,0.238 0.227,0.43 m -2.733,-0.01 c 0.005,0.015 0.009,0.031 0.013,0.047 l -0.013,0.005 z m 0,-0.385 v 0.143 l 0.003,0.007 c 0.011,0.021 0.024,0.037 0.04,0.049 0.017,0.012 0.035,0.019 0.054,0.019 0.03,-0.001 0.054,-0.013 0.071,-0.036 0.018,-0.023 0.027,-0.054 0.027,-0.094 0,-0.016 -0.002,-0.035 -0.005,-0.055 -0.003,-0.02 -0.005,-0.041 -0.005,-0.063 0,-0.027 0.019,-0.05 0.057,-0.069 0.038,-0.02 0.09,-0.03 0.157,-0.03 0.069,0 0.129,0.012 0.178,0.035 0.05,0.024 0.087,0.057 0.113,0.1 0.026,0.042 0.04,0.092 0.04,0.149 -10e-4,0.053 -0.009,0.103 -0.026,0.149 -0.017,0.046 -0.04,0.091 -0.069,0.134 -0.029,0.045 -0.062,0.09 -0.099,0.138 C 1.802,-0.387 1.76,-0.33 1.723,-0.277 1.685,-0.224 1.655,-0.17 1.633,-0.116 1.61,-0.062 1.599,-0.005 1.599,0.058 1.6,0.14 1.62,0.214 1.66,0.28 1.701,0.346 1.756,0.398 1.825,0.437 1.895,0.476 1.974,0.496 2.063,0.497 2.13,0.496 2.187,0.485 2.235,0.464 2.283,0.443 2.319,0.416 2.344,0.383 2.37,0.35 2.383,0.315 2.383,0.279 2.383,0.244 2.374,0.216 2.357,0.197 2.341,0.178 2.316,0.168 2.284,0.168 2.257,0.169 2.236,0.178 2.219,0.194 2.202,0.211 2.194,0.235 2.193,0.264 2.194,0.277 2.195,0.289 2.196,0.301 2.199,0.312 2.2,0.324 2.2,0.334 2.2,0.36 2.187,0.381 2.161,0.398 2.135,0.417 2.096,0.426 2.045,0.427 1.993,0.426 1.948,0.416 1.909,0.395 1.87,0.374 1.84,0.345 1.818,0.309 1.796,0.272 1.786,0.23 1.785,0.183 1.786,0.143 1.795,0.104 1.814,0.065 1.833,0.026 1.858,-0.015 1.89,-0.057 1.922,-0.101 1.957,-0.149 1.996,-0.201 2.046,-0.266 2.089,-0.327 2.124,-0.385 2.161,-0.444 2.189,-0.502 2.209,-0.559 2.228,-0.616 2.239,-0.675 2.239,-0.736 2.238,-0.83 2.215,-0.914 2.171,-0.987 2.127,-1.061 2.064,-1.118 1.983,-1.16 1.902,-1.202 1.807,-1.223 1.697,-1.224 1.614,-1.223 1.542,-1.211 1.483,-1.187 1.424,-1.163 1.379,-1.131 1.347,-1.089 1.332,-1.069 1.32,-1.047 1.312,-1.024 m 4.34,1.482 V 0.342 C 5.645,0.335 5.637,0.328 5.629,0.32 5.564,0.254 5.503,0.155 5.446,0.024 5.413,-0.054 5.384,-0.134 5.359,-0.214 5.334,-0.294 5.313,-0.373 5.296,-0.448 5.279,-0.523 5.267,-0.594 5.258,-0.659 5.25,-0.723 5.246,-0.78 5.246,-0.829 c 10e-4,-0.104 0.023,-0.184 0.067,-0.24 0.044,-0.056 0.105,-0.084 0.183,-0.084 0.054,0 0.106,0.016 0.156,0.05 V -1.197 C 5.597,-1.215 5.54,-1.223 5.482,-1.224 c -0.1,10e-4 -0.183,0.022 -0.253,0.066 -0.07,0.043 -0.123,0.105 -0.159,0.187 -0.037,0.081 -0.056,0.179 -0.056,0.294 0,0.141 0.022,0.28 0.065,0.416 0.043,0.136 0.107,0.266 0.192,0.389 0.055,0.08 0.114,0.147 0.178,0.202 0.063,0.055 0.129,0.096 0.196,0.124 z M 8.175,-0.655 8.118,-0.622 C 8.043,-0.79 7.973,-0.916 7.91,-1.001 7.847,-1.085 7.787,-1.128 7.731,-1.128 c -0.023,0 -0.041,0.008 -0.054,0.024 -0.012,0.016 -0.02,0.039 -0.02,0.069 0,0.011 0.002,0.03 0.007,0.056 0.004,0.027 0.013,0.06 0.025,0.099 l 0.232,0.757 c 0.016,0.051 0.028,0.1 0.035,0.146 0.007,0.046 0.011,0.088 0.011,0.127 0,0.072 -0.012,0.133 -0.035,0.185 C 7.909,0.387 7.878,0.427 7.836,0.454 7.795,0.483 7.746,0.497 7.689,0.497 7.582,0.497 7.472,0.436 7.357,0.315 7.242,0.194 7.129,0.013 7.017,-0.227 7.06,-0.042 7.081,0.102 7.081,0.205 7.08,0.301 7.063,0.374 7.03,0.423 6.996,0.472 6.948,0.497 6.884,0.497 6.779,0.497 6.685,0.445 6.602,0.341 6.519,0.238 6.442,0.081 6.37,-0.127 L 6.434,-0.149 C 6.503,0.026 6.567,0.158 6.626,0.246 6.684,0.334 6.742,0.379 6.799,0.379 6.824,0.379 6.841,0.37 6.853,0.353 6.864,0.336 6.87,0.309 6.87,0.272 6.87,0.238 6.866,0.185 6.858,0.113 6.85,0.041 6.836,-0.048 6.815,-0.153 6.794,-0.258 6.764,-0.378 6.725,-0.511 L 6.536,-1.172 h 0.249 l 0.095,0.314 c 0.022,0.074 0.045,0.151 0.069,0.232 0.024,0.08 0.052,0.163 0.085,0.249 0.033,0.086 0.073,0.172 0.12,0.262 0.046,0.088 0.103,0.178 0.169,0.269 0.058,0.079 0.114,0.139 0.167,0.179 0.053,0.04 0.102,0.061 0.15,0.061 0.037,0 0.066,-0.013 0.085,-0.038 C 7.746,0.331 7.756,0.294 7.756,0.246 7.756,0.213 7.751,0.172 7.742,0.124 7.733,0.076 7.717,0.021 7.696,-0.042 L 7.506,-0.629 C 7.486,-0.691 7.47,-0.75 7.456,-0.804 7.443,-0.858 7.436,-0.91 7.436,-0.962 c 0,-0.085 0.02,-0.15 0.058,-0.194 0.038,-0.045 0.093,-0.067 0.163,-0.068 0.091,0 0.173,0.035 0.25,0.103 0.075,0.068 0.143,0.17 0.201,0.307 z M 5.652,-1.197 v 0.094 c 0.012,0.008 0.023,0.016 0.035,0.026 0.06,0.051 0.112,0.126 0.157,0.226 0.036,0.081 0.067,0.163 0.094,0.246 0.027,0.084 0.049,0.166 0.067,0.246 0.018,0.08 0.031,0.156 0.04,0.226 0.009,0.071 0.013,0.135 0.013,0.191 0,0.12 -0.019,0.21 -0.056,0.27 C 5.963,0.389 5.907,0.419 5.833,0.419 5.771,0.419 5.711,0.393 5.652,0.342 V 0.458 C 5.716,0.484 5.78,0.497 5.844,0.497 5.933,0.496 6.012,0.471 6.078,0.421 6.145,0.371 6.197,0.302 6.234,0.212 6.271,0.122 6.29,0.016 6.29,-0.105 6.29,-0.251 6.268,-0.392 6.222,-0.529 6.177,-0.667 6.109,-0.797 6.02,-0.921 5.949,-1.017 5.867,-1.092 5.775,-1.144 5.735,-1.167 5.694,-1.185 5.652,-1.197"
             style="fill:#ffffff;fill-opacity:1;fill-rule:nonzero;stroke:none"
             id="path25926"
             inkscape:connector-curvature="0" />
        </g>
        <g
           id="g25928"
           transform="translate(163.183,131.1715)"
           style="fill:#ffffff;fill-opacity:1">
          <path
             d="m 0,0 -0.056,0.033 c -0.075,-0.168 -0.145,-0.294 -0.208,-0.379 -0.064,-0.084 -0.124,-0.127 -0.179,-0.127 -0.023,0 -0.041,0.008 -0.054,0.024 -0.013,0.016 -0.02,0.039 -0.02,0.069 0,0.011 0.002,0.03 0.006,0.056 0.005,0.027 0.013,0.06 0.026,0.099 l 0.231,0.757 c 0.017,0.051 0.028,0.1 0.035,0.146 0.008,0.046 0.012,0.088 0.012,0.127 0,0.072 -0.012,0.133 -0.035,0.185 -0.023,0.052 -0.055,0.092 -0.096,0.119 -0.042,0.029 -0.091,0.043 -0.147,0.043 -0.107,0 -0.217,-0.061 -0.332,-0.182 -0.115,-0.121 -0.228,-0.302 -0.34,-0.542 0.042,0.185 0.063,0.329 0.063,0.432 0,0.096 -0.017,0.169 -0.051,0.218 -0.033,0.049 -0.082,0.074 -0.146,0.074 -0.105,0 -0.198,-0.052 -0.282,-0.156 -0.083,-0.103 -0.16,-0.26 -0.231,-0.468 l 0.063,-0.022 c 0.07,0.175 0.134,0.307 0.192,0.395 0.059,0.088 0.116,0.133 0.174,0.133 0.024,0 0.042,-0.009 0.054,-0.026 C -1.31,0.991 -1.305,0.964 -1.305,0.927 -1.304,0.893 -1.308,0.84 -1.317,0.768 -1.325,0.696 -1.339,0.607 -1.36,0.502 -1.381,0.397 -1.411,0.277 -1.449,0.144 l -0.19,-0.661 h 0.25 l 0.095,0.314 c 0.021,0.074 0.044,0.151 0.068,0.232 0.025,0.08 0.053,0.163 0.086,0.249 0.033,0.086 0.073,0.172 0.119,0.262 0.047,0.088 0.103,0.178 0.17,0.268 0.058,0.08 0.113,0.14 0.166,0.18 0.053,0.04 0.103,0.061 0.15,0.061 0.037,0 0.066,-0.013 0.086,-0.038 0.02,-0.025 0.03,-0.062 0.03,-0.11 0,-0.033 -0.004,-0.074 -0.014,-0.122 C -0.442,0.731 -0.457,0.676 -0.478,0.613 l -0.19,-0.587 c -0.02,-0.062 -0.037,-0.121 -0.05,-0.175 -0.013,-0.054 -0.02,-0.106 -0.021,-0.158 0.001,-0.085 0.02,-0.15 0.058,-0.194 0.038,-0.045 0.093,-0.067 0.164,-0.068 0.09,0 0.173,0.035 0.249,0.103 0.076,0.068 0.143,0.17 0.201,0.307 z M -2.116,0.713 C -2.116,0.656 -2.12,0.593 -2.129,0.522 -2.138,0.452 -2.151,0.376 -2.17,0.296 -2.187,0.216 -2.209,0.134 -2.236,0.05 c -0.027,-0.083 -0.058,-0.165 -0.095,-0.246 -0.044,-0.1 -0.096,-0.175 -0.157,-0.226 -0.06,-0.051 -0.124,-0.077 -0.191,-0.077 -0.078,0.001 -0.139,0.029 -0.183,0.085 -0.044,0.056 -0.066,0.136 -0.067,0.24 0,0.049 0.004,0.106 0.013,0.17 0.008,0.065 0.021,0.136 0.037,0.211 0.017,0.075 0.038,0.153 0.063,0.233 0.025,0.081 0.054,0.161 0.088,0.239 0.057,0.131 0.118,0.23 0.183,0.296 0.065,0.066 0.133,0.099 0.204,0.099 0.074,0 0.13,-0.03 0.168,-0.091 0.037,-0.06 0.057,-0.151 0.057,-0.27 M -1.884,0.55 C -1.885,0.671 -1.903,0.777 -1.94,0.867 -1.977,0.957 -2.029,1.026 -2.096,1.076 -2.163,1.126 -2.241,1.151 -2.331,1.152 -2.397,1.152 -2.463,1.138 -2.53,1.109 -2.597,1.081 -2.662,1.04 -2.726,0.985 -2.789,0.93 -2.848,0.863 -2.904,0.783 -2.988,0.66 -3.052,0.53 -3.096,0.394 -3.139,0.258 -3.161,0.119 -3.161,-0.022 c 10e-4,-0.115 0.019,-0.213 0.056,-0.294 0.037,-0.082 0.09,-0.144 0.159,-0.187 0.07,-0.044 0.154,-0.065 0.253,-0.066 0.103,0.001 0.201,0.027 0.293,0.08 0.092,0.052 0.174,0.127 0.245,0.223 0.09,0.124 0.157,0.254 0.203,0.392 0.045,0.137 0.068,0.278 0.068,0.424 M -3.262,-0.008 -3.311,0.026 C -3.363,-0.081 -3.412,-0.171 -3.456,-0.243 -3.5,-0.316 -3.542,-0.37 -3.581,-0.407 -3.62,-0.443 -3.66,-0.462 -3.698,-0.462 c -0.02,0.001 -0.036,0.008 -0.048,0.023 -0.012,0.015 -0.018,0.034 -0.019,0.059 0,0.031 0.012,0.083 0.033,0.155 0.022,0.072 0.054,0.164 0.094,0.277 l 0.102,0.284 c 0.043,0.118 0.076,0.222 0.1,0.312 0.024,0.09 0.036,0.169 0.037,0.234 -10e-4,0.083 -0.02,0.147 -0.058,0.194 -0.039,0.048 -0.092,0.072 -0.16,0.072 -0.079,0 -0.157,-0.044 -0.234,-0.133 C -3.928,0.926 -4.004,0.792 -4.078,0.613 l 0.06,-0.026 c 0.068,0.153 0.132,0.268 0.193,0.344 0.06,0.076 0.112,0.114 0.155,0.114 0.018,0 0.033,-0.008 0.046,-0.024 0.011,-0.015 0.017,-0.037 0.018,-0.065 0,-0.037 -0.01,-0.088 -0.03,-0.155 C -3.656,0.735 -3.683,0.653 -3.719,0.557 L -3.849,0.203 C -3.888,0.1 -3.919,0.006 -3.941,-0.079 -3.964,-0.163 -3.975,-0.241 -3.976,-0.31 c 10e-4,-0.08 0.02,-0.142 0.058,-0.185 0.037,-0.044 0.09,-0.066 0.157,-0.066 0.093,0 0.18,0.046 0.261,0.138 0.082,0.092 0.162,0.231 0.238,0.415 m 0.025,1.898 c -10e-4,0.031 -0.007,0.057 -0.021,0.08 -0.012,0.023 -0.03,0.042 -0.052,0.055 -0.023,0.014 -0.047,0.02 -0.075,0.02 -0.028,0 -0.054,-0.006 -0.077,-0.02 C -3.484,2.012 -3.502,1.993 -3.515,1.97 -3.529,1.947 -3.535,1.921 -3.536,1.89 c 10e-4,-0.045 0.015,-0.081 0.042,-0.11 0.028,-0.029 0.063,-0.043 0.106,-0.045 0.027,10e-4 0.052,0.008 0.075,0.021 0.023,0.013 0.041,0.032 0.055,0.055 0.013,0.023 0.02,0.05 0.021,0.079 M -4.129,0.026 -4.186,0.059 C -4.258,-0.107 -4.324,-0.232 -4.384,-0.315 -4.445,-0.398 -4.5,-0.44 -4.551,-0.44 c -0.021,0 -0.038,0.008 -0.051,0.022 -0.013,0.015 -0.02,0.036 -0.02,0.063 0,0.019 0.002,0.04 0.007,0.064 0.004,0.025 0.011,0.053 0.021,0.084 L -4.4,0.402 c 0.029,0.097 0.05,0.18 0.063,0.251 0.012,0.07 0.018,0.126 0.018,0.167 C -4.32,0.925 -4.344,1.007 -4.391,1.063 -4.439,1.119 -4.505,1.148 -4.59,1.148 -4.683,1.148 -4.781,1.098 -4.883,1 -4.986,0.901 -5.097,0.753 -5.216,0.557 L -4.808,2.142 -5.35,2.071 -5.371,1.983 c 0.016,0.002 0.031,0.003 0.045,0.005 0.014,0.002 0.027,0.002 0.04,0.002 0.052,0.001 0.091,-0.005 0.117,-0.018 0.025,-0.013 0.038,-0.036 0.038,-0.07 0,-0.015 -0.002,-0.03 -0.005,-0.044 -0.003,-0.014 -0.006,-0.029 -0.01,-0.041 l -0.597,-2.334 h 0.242 c 0.059,0.26 0.124,0.488 0.197,0.683 0.073,0.194 0.148,0.357 0.226,0.487 0.078,0.129 0.155,0.226 0.23,0.291 0.075,0.065 0.145,0.097 0.209,0.097 0.033,0 0.06,-0.012 0.078,-0.035 0.018,-0.023 0.027,-0.057 0.027,-0.101 0,-0.026 -0.003,-0.062 -0.011,-0.108 C -4.554,0.752 -4.567,0.698 -4.587,0.635 L -4.78,0.018 c -0.018,-0.055 -0.033,-0.108 -0.044,-0.159 -0.013,-0.051 -0.019,-0.101 -0.019,-0.151 0,-0.085 0.017,-0.149 0.053,-0.19 0.035,-0.043 0.089,-0.065 0.161,-0.065 0.101,0 0.192,0.048 0.272,0.143 0.081,0.094 0.157,0.238 0.228,0.43 m -1.663,0.908 c 0,0.036 -0.013,0.071 -0.038,0.104 -0.026,0.033 -0.062,0.06 -0.109,0.081 C -5.988,1.14 -6.045,1.151 -6.112,1.152 -6.2,1.151 -6.28,1.131 -6.349,1.092 -6.419,1.053 -6.474,1 -6.514,0.935 -6.554,0.869 -6.575,0.795 -6.576,0.713 -6.575,0.65 -6.564,0.592 -6.542,0.539 c 0.023,-0.054 0.053,-0.108 0.09,-0.161 0.038,-0.053 0.079,-0.11 0.126,-0.171 0.037,-0.048 0.069,-0.093 0.098,-0.138 0.029,-0.043 0.052,-0.088 0.069,-0.134 0.017,-0.046 0.026,-0.096 0.026,-0.149 0,-0.057 -0.013,-0.107 -0.039,-0.149 -0.027,-0.043 -0.064,-0.076 -0.113,-0.1 -0.049,-0.023 -0.109,-0.035 -0.178,-0.036 -0.068,0.001 -0.12,0.011 -0.157,0.031 -0.038,0.019 -0.057,0.042 -0.058,0.069 0.001,0.022 0.002,0.043 0.005,0.063 0.003,0.02 0.005,0.039 0.006,0.055 -0.001,0.04 -0.01,0.071 -0.027,0.094 -0.018,0.023 -0.041,0.035 -0.072,0.035 -0.019,0 -0.037,-0.006 -0.053,-0.018 -0.017,-0.012 -0.03,-0.028 -0.04,-0.049 -0.01,-0.021 -0.015,-0.046 -0.016,-0.073 0.001,-0.053 0.017,-0.101 0.048,-0.142 0.031,-0.042 0.076,-0.074 0.136,-0.098 0.059,-0.024 0.13,-0.036 0.213,-0.037 0.11,0.001 0.206,0.022 0.287,0.064 0.08,0.042 0.143,0.099 0.187,0.173 0.045,0.073 0.067,0.157 0.068,0.251 0,0.06 -0.01,0.12 -0.03,0.177 -0.02,0.057 -0.048,0.115 -0.084,0.173 -0.036,0.059 -0.079,0.12 -0.128,0.185 -0.04,0.052 -0.075,0.1 -0.107,0.143 -0.031,0.043 -0.057,0.084 -0.076,0.123 -0.019,0.039 -0.028,0.078 -0.029,0.118 10e-4,0.047 0.012,0.089 0.033,0.126 0.022,0.036 0.052,0.065 0.092,0.086 0.038,0.021 0.084,0.031 0.136,0.032 0.051,-0.001 0.089,-0.01 0.115,-0.029 0.026,-0.017 0.039,-0.038 0.039,-0.064 0,-0.011 -0.001,-0.022 -0.003,-0.033 -0.002,-0.012 -0.003,-0.024 -0.004,-0.037 0.001,-0.029 0.01,-0.053 0.026,-0.07 0.017,-0.017 0.039,-0.025 0.066,-0.026 0.031,0 0.056,0.01 0.073,0.029 0.017,0.019 0.025,0.047 0.025,0.082 m -1.49,-0.078 c 0,-0.058 -0.01,-0.136 -0.031,-0.232 -0.02,-0.095 -0.053,-0.205 -0.098,-0.328 -0.045,-0.122 -0.104,-0.254 -0.177,-0.392 -0.067,-0.131 -0.135,-0.23 -0.201,-0.296 -0.066,-0.066 -0.138,-0.099 -0.214,-0.099 -0.039,0 -0.074,0.011 -0.104,0.032 -0.031,0.021 -0.055,0.051 -0.073,0.09 -0.017,0.039 -0.026,0.086 -0.027,0.14 0,0.098 0.022,0.219 0.066,0.36 0.044,0.141 0.112,0.302 0.205,0.482 0.079,0.153 0.158,0.268 0.237,0.346 0.079,0.077 0.157,0.115 0.234,0.115 0.055,0 0.1,-0.02 0.133,-0.059 0.033,-0.039 0.05,-0.091 0.05,-0.159 m 0.433,-0.793 -0.056,0.022 c -0.064,-0.183 -0.125,-0.32 -0.183,-0.412 -0.058,-0.092 -0.111,-0.138 -0.159,-0.138 -0.023,0 -0.042,0.008 -0.057,0.025 -0.015,0.017 -0.023,0.039 -0.023,0.067 0,0.034 0.003,0.076 0.011,0.126 0.007,0.051 0.018,0.106 0.034,0.166 l 0.296,1.074 c 0.003,0.014 0.005,0.027 0.007,0.04 0.002,0.013 0.003,0.025 0.003,0.034 0,0.02 -0.012,0.036 -0.036,0.047 C -7.036,1.124 -7.071,1.13 -7.117,1.13 -7.129,1.13 -7.139,1.128 -7.146,1.124 -7.153,1.119 -7.159,1.111 -7.162,1.1 L -7.215,0.905 C -7.233,0.983 -7.266,1.042 -7.314,1.085 -7.362,1.127 -7.42,1.148 -7.489,1.148 -7.552,1.148 -7.621,1.131 -7.696,1.097 -7.771,1.063 -7.847,1.012 -7.925,0.944 -8.003,0.875 -8.078,0.791 -8.15,0.69 -8.215,0.597 -8.269,0.504 -8.312,0.412 -8.356,0.319 -8.388,0.229 -8.41,0.143 -8.431,0.057 -8.442,-0.023 -8.442,-0.096 c 0,-0.099 0.015,-0.184 0.047,-0.254 0.031,-0.07 0.074,-0.124 0.131,-0.162 0.057,-0.038 0.123,-0.056 0.201,-0.057 0.125,0 0.234,0.043 0.328,0.128 0.093,0.085 0.174,0.214 0.242,0.386 -0.017,-0.071 -0.03,-0.13 -0.037,-0.178 -0.009,-0.048 -0.012,-0.086 -0.012,-0.114 0,-0.072 0.018,-0.127 0.054,-0.165 0.037,-0.038 0.09,-0.057 0.161,-0.057 0.1,0 0.191,0.054 0.273,0.16 0.081,0.105 0.15,0.263 0.205,0.472 m -1.058,1.809 c 0,0.044 -0.015,0.083 -0.044,0.118 -0.03,0.035 -0.07,0.062 -0.122,0.083 -0.052,0.02 -0.111,0.031 -0.178,0.032 -0.111,0 -0.21,-0.029 -0.296,-0.088 C -8.634,1.959 -8.711,1.871 -8.778,1.753 -8.846,1.636 -8.907,1.488 -8.962,1.311 L -9.046,1.041 H -9.359 L -9.373,0.953 h 0.309 l -0.394,-1.795 c -0.029,-0.137 -0.057,-0.252 -0.082,-0.344 -0.025,-0.092 -0.054,-0.163 -0.087,-0.209 -0.032,-0.048 -0.075,-0.071 -0.126,-0.071 -0.033,10e-4 -0.058,0.008 -0.074,0.022 -0.015,0.014 -0.027,0.033 -0.034,0.056 -0.008,0.022 -0.015,0.047 -0.022,0.073 -0.009,0.027 -0.023,0.048 -0.041,0.064 -0.019,0.017 -0.042,0.024 -0.068,0.025 -0.028,0 -0.049,-0.009 -0.064,-0.026 -0.014,-0.018 -0.021,-0.042 -0.021,-0.074 0,-0.064 0.024,-0.114 0.07,-0.152 0.046,-0.038 0.115,-0.057 0.205,-0.058 0.093,0 0.173,0.021 0.239,0.063 0.065,0.042 0.123,0.106 0.171,0.192 0.048,0.087 0.092,0.197 0.132,0.331 0.04,0.133 0.081,0.291 0.122,0.474 l 0.327,1.429 h 0.356 l 0.007,0.088 H -8.79 l 0.081,0.347 c 0.05,0.214 0.111,0.375 0.184,0.482 0.073,0.107 0.158,0.161 0.253,0.161 0.037,0 0.066,-0.005 0.087,-0.013 0.021,-0.009 0.037,-0.021 0.048,-0.035 0.011,-0.015 0.019,-0.032 0.024,-0.052 0.005,-0.02 0.01,-0.041 0.016,-0.063 0.01,-0.027 0.023,-0.049 0.041,-0.065 0.018,-0.015 0.038,-0.023 0.061,-0.023 0.025,10e-4 0.047,0.01 0.063,0.028 0.016,0.018 0.025,0.039 0.025,0.064"
             style="fill:#ffffff;fill-opacity:1;fill-rule:nonzero;stroke:none"
             id="path25930"
             inkscape:connector-curvature="0" />
        </g>
      </g>
    </g>
  </g>
</svg>
