<?xml version="1.0" encoding="UTF-8" standalone="no"?>
<!-- Created with Inkscape (http://www.inkscape.org/) -->

<svg
   xmlns:dc="http://purl.org/dc/elements/1.1/"
   xmlns:cc="http://creativecommons.org/ns#"
   xmlns:rdf="http://www.w3.org/1999/02/22-rdf-syntax-ns#"
   xmlns:svg="http://www.w3.org/2000/svg"
   xmlns="http://www.w3.org/2000/svg"
   xmlns:sodipodi="http://sodipodi.sourceforge.net/DTD/sodipodi-0.dtd"
   xmlns:inkscape="http://www.inkscape.org/namespaces/inkscape"
   width="6.1076078mm"
   height="2.8116388mm"
   viewBox="0 0 21.64113 9.9624998"
   id="svg72874"
   version="1.1"
   inkscape:version="0.91 r13725"
   sodipodi:docname="Fashion TV CZ.svg">
  <defs
     id="defs72876">
    <clipPath
       clipPathUnits="userSpaceOnUse"
       id="clipPath9268">
      <path
         d="m 643.528,452.641 17.313,0 0,7.97 -17.313,0 0,-7.97 z"
         id="path9270"
         inkscape:connector-curvature="0" />
    </clipPath>
    <clipPath
       clipPathUnits="userSpaceOnUse"
       id="clipPath9242">
      <path
         d="m 654.05203,460.60974 0,-7.96892 -10.52372,0 0,7.96892 10.52372,0 z"
         id="path9244"
         inkscape:connector-curvature="0" />
    </clipPath>
    <linearGradient
       x1="0"
       y1="0"
       x2="1"
       y2="0"
       gradientUnits="userSpaceOnUse"
       gradientTransform="matrix(0,-0.1593787,-0.2104736,0,648.78792,456.70093)"
       spreadMethod="pad"
       id="linearGradient9246">
      <stop
         style="stop-opacity:1;stop-color:#474445"
         offset="0"
         id="stop9248" />
      <stop
         style="stop-opacity:1;stop-color:#ffffff"
         offset="0.47941511"
         id="stop9250" />
      <stop
         style="stop-opacity:1;stop-color:#ffffff"
         offset="0.48"
         id="stop9252" />
      <stop
         style="stop-opacity:1;stop-color:#474445"
         offset="0.99988563"
         id="stop9254" />
      <stop
         style="stop-opacity:1;stop-color:#474445"
         offset="1"
         id="stop9256" />
    </linearGradient>
  </defs>
  <sodipodi:namedview
     id="base"
     pagecolor="#ffffff"
     bordercolor="#666666"
     borderopacity="1.0"
     inkscape:pageopacity="0.0"
     inkscape:pageshadow="2"
     inkscape:zoom="31.678384"
     inkscape:cx="8.8536862"
     inkscape:cy="-0.39029844"
     inkscape:document-units="px"
     inkscape:current-layer="layer1"
     showgrid="false"
     fit-margin-top="0"
     fit-margin-left="0"
     fit-margin-right="0"
     fit-margin-bottom="0"
     inkscape:window-width="1920"
     inkscape:window-height="1017"
     inkscape:window-x="-8"
     inkscape:window-y="-8"
     inkscape:window-maximized="1" />
  <metadata
     id="metadata72879">
    <rdf:RDF>
      <cc:Work
         rdf:about="">
        <dc:format>image/svg+xml</dc:format>
        <dc:type
           rdf:resource="http://purl.org/dc/dcmitype/StillImage" />
        <dc:title></dc:title>
      </cc:Work>
    </rdf:RDF>
  </metadata>
  <g
     inkscape:label="Layer 1"
     inkscape:groupmode="layer"
     id="layer1"
     transform="translate(-409.18012,-444.52432)">
    <g
       id="g9260"
       transform="matrix(1.25,0,0,-1.25,412.56387,444.52432)">
      <path
         d="m 0,0 -2.707,-2.707 5.262,-5.263 2.659,2.659 -0.735,0 -1.924,-1.924 -4.528,4.528 2.188,2.188 4.678,0 2.19,-2.188 -0.941,-0.941 0.734,0 0.94,0.941 L 5.107,0 0,0 Z"
         style="fill:#948e5c;fill-opacity:1;fill-rule:nonzero;stroke:none"
         id="path9262"
         inkscape:connector-curvature="0" />
    </g>
    <g
       transform="matrix(1.25,0,0,-1.25,-395.23,1020.2869)"
       id="g9264">
      <g
         id="g9266"
         clip-path="url(#clipPath9268)">
        <g
           id="g9272"
           transform="translate(648.5058,457.905)">
          <path
             d="m 0,0 0,-0.352 -0.554,0 0,-0.166 0.554,0 0,-2.516 -0.554,0 0,-0.166 1.697,0 0,0.166 -0.582,0 0,2.516 0.582,0 0,0.166 -0.582,0 0,0.812 c 0,0.719 0.223,1.136 0.568,1.136 0.05,0 0.172,-0.007 0.172,-0.043 0,-0.093 -0.057,-0.1 -0.057,-0.18 0,-0.194 0.1,-0.33 0.294,-0.33 0.123,0 0.266,0.093 0.266,0.237 0,0.338 -0.323,0.467 -0.603,0.467 C 0.51,1.747 0,1.23 0,0"
             style="fill:#1e191a;fill-opacity:1;fill-rule:nonzero;stroke:none"
             id="path9274"
             inkscape:connector-curvature="0" />
        </g>
        <g
           id="g9276"
           transform="translate(647.9521,454.7052)">
          <path
             d="m 0,0 0,0.165 0.554,0 0,2.517 -0.554,0 0,0.165 0.554,0 0,0.353 c 0,1.229 0.51,1.747 1.2,1.747 0.281,0 0.604,-0.129 0.604,-0.467 0,-0.144 -0.144,-0.238 -0.266,-0.238 -0.194,0 -0.295,0.137 -0.295,0.331 0,0.079 0.058,0.086 0.058,0.18 0,0.036 -0.122,0.043 -0.173,0.043 -0.345,0 -0.567,-0.417 -0.567,-1.136 l 0,-0.813 0.582,0 0,-0.165 -0.582,0 0,-2.517 0.582,0 L 1.697,0 0,0 Z"
             style="fill:#948e5c;fill-opacity:1;fill-rule:nonzero;stroke:none"
             id="path9278"
             inkscape:connector-curvature="0" />
        </g>
        <g
           id="g9280"
           transform="translate(650.3226,457.4808)">
          <path
             d="m 0,0 c 0,-0.144 0.116,-0.26 0.26,-0.26 0.144,0 0.26,0.116 0.26,0.26 0,0.144 -0.116,0.26 -0.26,0.26 C 0.116,0.26 0,0.144 0,0"
             style="fill:#1e191a;fill-opacity:1;fill-rule:nonzero;stroke:none"
             id="path9282"
             inkscape:connector-curvature="0" />
        </g>
        <g
           id="g9284"
           transform="translate(650.3226,457.4808)">
          <path
             d="m 0,0 c 0,-0.144 0.116,-0.26 0.26,-0.26 0.144,0 0.26,0.116 0.26,0.26 0,0.144 -0.116,0.26 -0.26,0.26 C 0.116,0.26 0,0.144 0,0"
             style="fill:#948e5c;fill-opacity:1;fill-rule:nonzero;stroke:none"
             id="path9286"
             inkscape:connector-curvature="0" />
        </g>
        <g
           id="g9288"
           transform="translate(651.2552,455.9667)">
          <path
             d="m 0,0 c -0.043,-0.134 -0.119,-0.251 -0.315,-0.258 -0.292,0 -0.381,0.243 -0.381,0.373 0,0.336 0.27,0.417 0.377,0.417 0.123,0 0.296,-0.057 0.296,-0.202 0,-0.051 -0.032,-0.1 -0.084,-0.1 -0.051,0 -0.089,0.034 -0.089,0.089 0,0.073 0.06,0.083 0.06,0.103 0,0.051 -0.119,0.072 -0.16,0.072 -0.181,0 -0.228,-0.132 -0.228,-0.379 0,-0.113 0.028,-0.2 0.039,-0.226 0.029,-0.062 0.087,-0.102 0.185,-0.108 0.11,-0.005 0.215,0.083 0.26,0.219 L 0,0 Z"
             style="fill:#948e5c;fill-opacity:1;fill-rule:nonzero;stroke:none"
             id="path9290"
             inkscape:connector-curvature="0" />
        </g>
        <g
           id="g9292"
           transform="translate(651.4287,456.2344)">
          <path
             d="m 0,0 0,0.245 0.566,0 0,-0.047 -0.438,-0.656 0.238,0 c 0.094,0 0.132,0.094 0.16,0.23 l 0.036,0 0,-0.274 -0.609,0 0,0.042 0.441,0.662 -0.168,0 C 0.128,0.202 0.072,0.187 0.043,0 L 0,0 Z"
             style="fill:#948e5c;fill-opacity:1;fill-rule:nonzero;stroke:none"
             id="path9294"
             inkscape:connector-curvature="0" />
        </g>
        <g
           id="g9296"
           transform="translate(652.8391,455.9667)">
          <path
             d="m 0,0 c -0.038,-0.175 -0.166,-0.258 -0.332,-0.258 -0.192,0 -0.377,0.154 -0.377,0.364 0,0.222 0.147,0.426 0.371,0.426 0.193,0 0.338,-0.13 0.34,-0.336 l -0.534,0 0,-0.077 c 0,-0.187 0.025,-0.338 0.23,-0.338 0.108,0 0.234,0.095 0.26,0.219 L 0,0 Z m -0.17,0.251 0,0 0,0.064 c 0,0.136 -0.079,0.179 -0.173,0.179 -0.113,0 -0.164,-0.106 -0.168,-0.119 C -0.522,0.341 -0.528,0.298 -0.53,0.251 l 0.36,0 z"
             style="fill:#948e5c;fill-opacity:1;fill-rule:nonzero;stroke:none"
             id="path9298"
             inkscape:connector-curvature="0" />
        </g>
        <g
           id="g9300"
           transform="translate(653.663,455.9667)">
          <path
             d="m 0,0 c -0.043,-0.134 -0.119,-0.251 -0.315,-0.258 -0.292,0 -0.381,0.243 -0.381,0.373 0,0.336 0.27,0.417 0.377,0.417 0.123,0 0.296,-0.057 0.296,-0.202 0,-0.051 -0.032,-0.1 -0.084,-0.1 -0.051,0 -0.089,0.034 -0.089,0.089 0,0.073 0.06,0.083 0.06,0.103 0,0.051 -0.119,0.072 -0.16,0.072 -0.181,0 -0.228,-0.132 -0.228,-0.379 0,-0.113 0.028,-0.2 0.039,-0.226 0.029,-0.062 0.087,-0.102 0.185,-0.108 0.11,-0.005 0.215,0.083 0.26,0.219 L 0,0 Z"
             style="fill:#948e5c;fill-opacity:1;fill-rule:nonzero;stroke:none"
             id="path9302"
             inkscape:connector-curvature="0" />
        </g>
        <g
           id="g9304"
           transform="translate(653.663,455.9667)">
          <path
             d="m 0,0 c -0.043,-0.134 -0.119,-0.251 -0.315,-0.258 -0.292,0 -0.381,0.243 -0.381,0.373 0,0.336 0.27,0.417 0.377,0.417 0.123,0 0.296,-0.057 0.296,-0.202 0,-0.051 -0.032,-0.1 -0.084,-0.1 -0.051,0 -0.089,0.034 -0.089,0.089 0,0.073 0.06,0.083 0.06,0.103 0,0.051 -0.119,0.072 -0.16,0.072 -0.181,0 -0.228,-0.132 -0.228,-0.379 0,-0.113 0.028,-0.2 0.039,-0.226 0.029,-0.062 0.087,-0.102 0.185,-0.108 0.11,-0.005 0.215,0.083 0.26,0.219 L 0,0 Z"
             style="fill:none;stroke:#948e5c;stroke-width:0.007;stroke-linecap:butt;stroke-linejoin:miter;stroke-miterlimit:10;stroke-dasharray:none;stroke-opacity:1"
             id="path9306"
             inkscape:connector-curvature="0" />
        </g>
        <g
           id="g9308"
           transform="translate(653.8911,456.9885)">
          <path
             d="m 0,0 -0.104,0 0,0.043 0.04,0 c 0.07,0 0.143,0.004 0.211,0.017 l 0,-0.75 0.004,0 c 0.053,0.119 0.126,0.2 0.264,0.2 0.068,0 0.224,-0.015 0.224,-0.189 l 0,-0.533 0.102,0 0,-0.044 -0.347,0 0,0.044 0.098,0 0,0.509 c 0,0.137 -0.043,0.158 -0.119,0.158 -0.128,0 -0.226,-0.175 -0.226,-0.317 l 0,-0.35 0.102,0 0,-0.044 -0.353,0 0,0.044 0.104,0 L 0,0 Z"
             style="fill:#948e5c;fill-opacity:1;fill-rule:nonzero;stroke:none"
             id="path9310"
             inkscape:connector-curvature="0" />
        </g>
        <g
           id="g9312"
           transform="translate(655.6936,456.01)">
          <path
             d="m 0,0 c 0.113,0.141 0.162,0.283 0.168,0.447 l -0.168,0 0,0.043 0.371,0 0,-0.043 -0.158,0 C 0.2,0.272 0.151,0.092 0.025,-0.041 l 0.116,-0.193 0.164,0 0,-0.043 -0.343,0 -0.064,0.107 c -0.092,-0.081 -0.245,-0.135 -0.366,-0.135 -0.296,0 -0.396,0.216 -0.396,0.392 0,0.115 0.078,0.281 0.372,0.398 -0.049,0.084 -0.108,0.177 -0.108,0.277 0,0.167 0.149,0.249 0.296,0.249 0.136,0 0.283,-0.082 0.283,-0.236 0,-0.07 -0.034,-0.175 -0.286,-0.27 L 0,0 Z m -0.471,0.445 0,0 C -0.585,0.402 -0.692,0.341 -0.692,0.202 c 0,-0.155 0.13,-0.438 0.304,-0.438 0.103,0 0.179,0.044 0.262,0.106 l -0.345,0.575 z m 0.315,0.356 0,0 c 0,0.093 -0.051,0.166 -0.148,0.166 -0.084,0 -0.16,-0.055 -0.16,-0.149 0,-0.081 0.089,-0.209 0.132,-0.277 0.134,0.057 0.176,0.117 0.176,0.26"
             style="fill:#948e5c;fill-opacity:1;fill-rule:nonzero;stroke:none"
             id="path9314"
             inkscape:connector-curvature="0" />
        </g>
        <g
           id="g9316"
           transform="translate(656.7739,456.4795)">
          <path
             d="m 0,0 0,-0.211 -0.041,0 c -0.029,0.109 -0.093,0.186 -0.206,0.192 -0.154,0.004 -0.177,-0.115 -0.177,-0.138 0,-0.054 0.015,-0.082 0.303,-0.141 0.146,-0.03 0.196,-0.096 0.196,-0.215 0,-0.162 -0.122,-0.258 -0.271,-0.258 -0.079,0 -0.162,0.032 -0.217,0.092 l -0.041,-0.068 -0.042,0 0,0.249 0.044,0 c 0.035,-0.136 0.128,-0.235 0.267,-0.235 0.085,0 0.183,0.064 0.183,0.162 0,0.073 -0.104,0.107 -0.26,0.147 -0.124,0.03 -0.234,0.047 -0.234,0.211 0,0.079 0.049,0.232 0.255,0.232 0.058,0 0.117,-0.023 0.175,-0.07 L -0.032,0 0,0 Z"
             style="fill:#948e5c;fill-opacity:1;fill-rule:nonzero;stroke:none"
             id="path9318"
             inkscape:connector-curvature="0" />
        </g>
        <g
           id="g9320"
           transform="translate(656.9588,455.7329)">
          <path
             d="m 0,0 0,0.043 0.145,0 0,1.213 -0.145,0 0,0.043 0.081,0 c 0.07,0 0.143,0.004 0.211,0.017 l 0,-1.273 0.145,0 L 0.437,0 0,0 Z"
             style="fill:#948e5c;fill-opacity:1;fill-rule:nonzero;stroke:none"
             id="path9322"
             inkscape:connector-curvature="0" />
        </g>
        <g
           id="g9324"
           transform="translate(658.2277,456.1043)">
          <path
             d="m 0,0 c 0,-0.228 -0.166,-0.396 -0.364,-0.396 -0.198,0 -0.364,0.168 -0.364,0.396 0,0.228 0.166,0.394 0.364,0.394 C -0.166,0.394 0,0.228 0,0 m -0.556,0 0,0 c 0,-0.158 0.002,-0.358 0.192,-0.358 0.191,0 0.192,0.2 0.192,0.358 0,0.157 -0.001,0.356 -0.192,0.356 -0.19,0 -0.192,-0.199 -0.192,-0.356"
             style="fill:#948e5c;fill-opacity:1;fill-rule:nonzero;stroke:none"
             id="path9326"
             inkscape:connector-curvature="0" />
        </g>
        <g
           id="g9328"
           transform="translate(658.3182,456.4361)">
          <path
             d="m 0,0 0,0.043 0.339,0 0,-0.043 -0.1,0 0.183,-0.541 0.004,0 0.19,0.541 -0.115,0 0,0.043 0.257,0 0,-0.043 -0.091,0 -0.26,-0.728 -0.064,0 L 0.09,0 0,0 Z"
             style="fill:#948e5c;fill-opacity:1;fill-rule:nonzero;stroke:none"
             id="path9330"
             inkscape:connector-curvature="0" />
        </g>
        <g
           id="g9332"
           transform="translate(659.9416,455.863)">
          <path
             d="m 0,0 c -0.006,-0.089 -0.074,-0.155 -0.16,-0.155 -0.07,0 -0.11,0.046 -0.123,0.115 -0.064,-0.079 -0.158,-0.115 -0.254,-0.115 -0.119,0 -0.221,0.046 -0.221,0.185 0.006,0.176 0.185,0.274 0.473,0.274 l 0,0.179 c 0,0.088 -0.069,0.115 -0.135,0.115 -0.042,0 -0.176,-0.014 -0.176,-0.068 0,-0.015 0.057,-0.025 0.057,-0.087 0,-0.047 -0.03,-0.079 -0.078,-0.079 -0.05,0 -0.079,0.038 -0.079,0.09 0,0.068 0.078,0.181 0.302,0.181 0.256,0 0.256,-0.109 0.256,-0.184 l 0,-0.449 c 0,-0.057 0,-0.087 0.04,-0.087 0.038,0 0.056,0.053 0.066,0.085 L 0,0 Z m -0.285,0.264 0,0 C -0.407,0.262 -0.617,0.241 -0.617,0.068 c 0,-0.093 0.059,-0.149 0.146,-0.149 0.06,0 0.099,0.015 0.145,0.055 0.015,0.015 0.041,0.035 0.041,0.115 l 0,0.175 z"
             style="fill:#948e5c;fill-opacity:1;fill-rule:nonzero;stroke:none"
             id="path9334"
             inkscape:connector-curvature="0" />
        </g>
        <g
           id="g9336"
           transform="translate(660.0151,455.7329)">
          <path
             d="m 0,0 0,0.043 0.098,0 0,1.213 -0.098,0 0,0.043 0.034,0 c 0.07,0 0.143,0.004 0.211,0.017 l 0,-1.273 0.113,0 L 0.358,0 0,0 Z m 0.454,0.703 0,0 0,0.044 0.31,0 0,-0.044 -0.115,0 -0.261,-0.226 0.359,-0.434 0.079,0 0,-0.043 -0.358,0 0,0.043 0.094,0 -0.315,0.383 0.319,0.272 0,0.005 -0.112,0 z"
             style="fill:#948e5c;fill-opacity:1;fill-rule:nonzero;stroke:none"
             id="path9338"
             inkscape:connector-curvature="0" />
        </g>
      </g>
    </g>
  </g>
</svg>
