<svg id="a" width="595.57" height="211.89" enable-background="new 0 0 416.583 199.016" version="1.1" viewBox="0 0 558.34 198.64" xml:space="preserve" xmlns="http://www.w3.org/2000/svg"><path id="b" d="m125.27 159.48h30.936v2.8603h-13.403v34.974h-4.1308v-34.974h-13.403" fill="#fff"/><path id="c" d="m176.92 197.32v-37.834h25.792v2.8603h-21.663v13.889h15.596v2.8603h-15.596v15.411h22.864v2.8136" fill="#fff"/><path id="d" d="m224.26 159.48h4.1068v35.02h20.117v2.8136h-24.223" fill="#fff"/><path id="e" d="m268.05 197.32v-37.834h25.768v2.8603h-21.637v13.889h15.596v2.8603h-15.596v15.411h22.864v2.8136" fill="#fff"/><path id="f" d="m309.6 159.48h4.4063l12.251 32.922h0.0918l12.666-32.922h4.3822l-15.018 37.834h-4.1534" fill="#fff"/><path id="g" d="m363.08 159.48h4.1068v37.835h-4.1068z" fill="#fff"/><path id="h" d="m392.13 186.75c1.7749 5.7687 5.7642 8.3053 12.918 8.3053 5.6272 0 8.9978-2.9973 8.9978-7.5662 0-10.151-24.431-6.1827-24.431-18.709 0-5.561 4.59-9.7836 12.989-9.7836 7.1507 0 12.365 3.2547 14.441 9.0656l-3.5512 0.87916c-1.6379-4.176-5.1003-7.107-10.889-7.107-5.2825 0-8.8819 2.5396-8.8819 6.9444 0 2.5592 0.90024 4.4063 9.2026 7.0107 12.691 3.9908 15.274 6.6223 15.274 12.067 0 6.4371-6.4612 10.012-13.773 10.012-8.6275 0-13.586-3.1839-16.081-10.104" fill="#fff"/><path id="i" d="m440.27 159.48h4.1293v37.835h-4.1293z" fill="#fff"/><path id="j" d="m502.26 178.45c0 11.142-6.5274 19.426-17.833 19.426-11.349 0-17.857-8.2842-17.857-19.426 0-11.164 6.5079-19.448 17.857-19.448 11.306 0 17.833 8.2842 17.833 19.448m-4.1293 0c0-10.658-5.3999-16.609-13.704-16.609-8.3294 0-13.728 5.9509-13.728 16.609 0 10.615 5.3984 16.611 13.728 16.611 8.3038 1e-3 13.704-5.996 13.704-16.611" fill="#fff"/><path id="k" d="m524.09 159.48h6.9459l21.478 31.559h0.11441v-31.559h4.1308v37.834h-4.2452l-24.177-34.974h-0.1385v34.974h-4.1082" fill="#fff"/><path id="l" d="m59.941 198.64v-83.909h6.003c12.864 0 18.134 9.568 18.134 29.802v3.904h2.348v-68.728h-2.348v3.916c0 19.144-6.184 27.189-16.7 27.189h-7.437v-66.56h13.214c18.54 0 28.12 16.978 28.12 35.89v3.481h2.37v-43.286h-55.101l-0.203 27.686h-48.341v-68.028h171.49v68.027h-56.748v130.62" fill="#fff"/><polyline id="m" transform="matrix(1.5054 0 0 1.5054 -63.311 -41.508)" points="138.06 109.04 138.06 124.81 125.5 124.81 125.5 82.741 155.87 82.741 155.87 92.733 138.06 92.733 138.06 99.6 151.72 99.6 151.72 109.04" fill="#fff"/><path id="n" d="m211.43 133.88h-16.886l-3.8749 12.505h-15.78l19.656-63.307h20.44l19.886 63.307h-19.886m-6.8767-26.301-5.1681-18.389-5.1455 18.389z" fill="#fff"/><path id="o" d="m263.27 124.74c1.662 5.6769 5.9072 7.6836 11.512 7.6836 2.514 0 7.4728-0.37032 7.4728-3.8538 0-3.9472-4.888-4.6622-7.7272-5.1921-11.881-2.3304-26.047-5.5128-26.047-20.579 0-6.1812 3.068-12.251 8.1217-15.873 5.1906-3.6205 11.905-4.7977 18.179-4.7977 11.005 0 21.64 4.4966 25.494 15.503l-16.034 4.8911c-1.8456-4.7074-5.3743-6.3453-10.265-6.3453-2.6089 0-6.276 0.71657-6.276 4.0616 0 3.2983 4.6126 3.9682 7.0122 4.5207 5.999 1.1998 12.343 2.1693 17.88 5.0747 6.1842 3.2758 9.4389 9.1815 9.4389 16.105 0 15.25-15.137 21.317-28.24 21.317-13.288 0-25.101-5.5369-28.512-19.289" fill="#fff"/><path id="p" d="m372.79 146.38h-19.356v-24.687h-14.95v24.687h-19.356v-63.331h19.356v23.371h14.95v-23.371h19.356" fill="#fff"/><path id="q" d="m391.52 83.051h19.564v63.329h-19.564z" fill="#fff"/><path id="r" d="m487.82 114.91c0 17.947-11.026 32.344-30.245 32.344-19.17 0-30.266-14.396-30.266-32.344 0-18.943 11.005-32.783 30.266-32.783 19.265 0 30.245 13.841 30.245 32.783m-39.75 0.0467c0 6.0894 0.66839 17.809 9.5036 17.809 8.8819 0 9.5051-11.72 9.5051-17.809 0-6.1631-0.94539-18.501-9.5051-18.501-8.5808-0.0015-9.5036 12.338-9.5036 18.501" fill="#fff"/><path id="s" d="m542.47 146.38-18.202-29.67-5.6076-11.396-0.16109 0.16107 0.16109 0.76023c0.92431 4.0616 1.3157 6.276 1.3157 10.613v29.532h-15.802v-63.331h18.386l21.202 35.345 0.18667-0.20925-1.4091-17.509v-17.627h15.802v63.329" fill="#fff"/></svg>
