<?xml version="1.0" encoding="UTF-8"?>
<!-- Created with Inkscape (http://www.inkscape.org/) -->
<svg id="svg72874" width="6.1076mm" height="2.8116mm" version="1.1" viewBox="0 0 21.641 9.9625" xmlns="http://www.w3.org/2000/svg" xmlns:cc="http://creativecommons.org/ns#" xmlns:dc="http://purl.org/dc/elements/1.1/" xmlns:rdf="http://www.w3.org/1999/02/22-rdf-syntax-ns#">
 <defs id="defs72876">
  <clipPath id="clipPath9268">
   <path id="path9270" d="m643.53 452.64h17.313v7.97h-17.313v-7.97z"/>
  </clipPath>
 </defs>
 <metadata id="metadata72879">
  <rdf:RDF>
   <cc:Work rdf:about="">
    <dc:format>image/svg+xml</dc:format>
    <dc:type rdf:resource="http://purl.org/dc/dcmitype/StillImage"/>
    <dc:title/>
   </cc:Work>
  </rdf:RDF>
 </metadata>
 <g id="layer1" transform="translate(-409.18 -444.52)">
  <g id="g9260" transform="matrix(1.25 0 0 -1.25 412.56 444.52)">
   <path id="path9262" d="m0 0-2.707-2.707 5.262-5.263 2.659 2.659h-0.735l-1.924-1.924-4.528 4.528 2.188 2.188h4.678l2.19-2.188-0.941-0.941h0.734l0.94 0.941-2.709 2.707h-5.107z" fill="#948e5c"/>
  </g>
  <g id="g9264" transform="matrix(1.25 0 0 -1.25 -395.23 1020.3)">
   <g id="g9266" clip-path="url(#clipPath9268)">
    <g id="g9272" transform="translate(648.51 457.9)">
     <path id="path9274" d="m0 0v-0.352h-0.554v-0.166h0.554v-2.516h-0.554v-0.166h1.697v0.166h-0.582v2.516h0.582v0.166h-0.582v0.812c0 0.719 0.223 1.136 0.568 1.136 0.05 0 0.172-7e-3 0.172-0.043 0-0.093-0.057-0.1-0.057-0.18 0-0.194 0.1-0.33 0.294-0.33 0.123 0 0.266 0.093 0.266 0.237 0 0.338-0.323 0.467-0.603 0.467-0.691 0-1.201-0.517-1.201-1.747" fill="#1e191a"/>
    </g>
    <g id="g9276" transform="translate(647.95 454.71)">
     <path id="path9278" d="m0 0v0.165h0.554v2.517h-0.554v0.165h0.554v0.353c0 1.229 0.51 1.747 1.2 1.747 0.281 0 0.604-0.129 0.604-0.467 0-0.144-0.144-0.238-0.266-0.238-0.194 0-0.295 0.137-0.295 0.331 0 0.079 0.058 0.086 0.058 0.18 0 0.036-0.122 0.043-0.173 0.043-0.345 0-0.567-0.417-0.567-1.136v-0.813h0.582v-0.165h-0.582v-2.517h0.582v-0.165h-1.697z" fill="#948e5c"/>
    </g>
    <g id="g9280" transform="translate(650.32 457.48)">
     <path id="path9282" d="m0 0c0-0.144 0.116-0.26 0.26-0.26s0.26 0.116 0.26 0.26-0.116 0.26-0.26 0.26-0.26-0.116-0.26-0.26" fill="#1e191a"/>
    </g>
    <g id="g9284" transform="translate(650.32 457.48)">
     <path id="path9286" d="m0 0c0-0.144 0.116-0.26 0.26-0.26s0.26 0.116 0.26 0.26-0.116 0.26-0.26 0.26-0.26-0.116-0.26-0.26" fill="#948e5c"/>
    </g>
    <g id="g9288" transform="translate(651.26 455.97)">
     <path id="path9290" d="m0 0c-0.043-0.134-0.119-0.251-0.315-0.258-0.292 0-0.381 0.243-0.381 0.373 0 0.336 0.27 0.417 0.377 0.417 0.123 0 0.296-0.057 0.296-0.202 0-0.051-0.032-0.1-0.084-0.1-0.051 0-0.089 0.034-0.089 0.089 0 0.073 0.06 0.083 0.06 0.103 0 0.051-0.119 0.072-0.16 0.072-0.181 0-0.228-0.132-0.228-0.379 0-0.113 0.028-0.2 0.039-0.226 0.029-0.062 0.087-0.102 0.185-0.108 0.11-5e-3 0.215 0.083 0.26 0.219h0.04z" fill="#948e5c"/>
    </g>
    <g id="g9292" transform="translate(651.43 456.23)">
     <path id="path9294" d="m0 0v0.245h0.566v-0.047l-0.438-0.656h0.238c0.094 0 0.132 0.094 0.16 0.23h0.036v-0.274h-0.609v0.042l0.441 0.662h-0.168c-0.098 0-0.154-0.015-0.183-0.202h-0.043z" fill="#948e5c"/>
    </g>
    <g id="g9296" transform="translate(652.84 455.97)">
     <path id="path9298" d="m0 0c-0.038-0.175-0.166-0.258-0.332-0.258-0.192 0-0.377 0.154-0.377 0.364 0 0.222 0.147 0.426 0.371 0.426 0.193 0 0.338-0.13 0.34-0.336h-0.534v-0.077c0-0.187 0.025-0.338 0.23-0.338 0.108 0 0.234 0.095 0.26 0.219h0.042zm-0.17 0.251v0.064c0 0.136-0.079 0.179-0.173 0.179-0.113 0-0.164-0.106-0.168-0.119-0.011-0.034-0.017-0.077-0.019-0.124h0.36z" fill="#948e5c"/>
    </g>
    <g id="g9300" transform="translate(653.66 455.97)">
     <path id="path9302" d="m0 0c-0.043-0.134-0.119-0.251-0.315-0.258-0.292 0-0.381 0.243-0.381 0.373 0 0.336 0.27 0.417 0.377 0.417 0.123 0 0.296-0.057 0.296-0.202 0-0.051-0.032-0.1-0.084-0.1-0.051 0-0.089 0.034-0.089 0.089 0 0.073 0.06 0.083 0.06 0.103 0 0.051-0.119 0.072-0.16 0.072-0.181 0-0.228-0.132-0.228-0.379 0-0.113 0.028-0.2 0.039-0.226 0.029-0.062 0.087-0.102 0.185-0.108 0.11-5e-3 0.215 0.083 0.26 0.219h0.04z" fill="#948e5c"/>
    </g>
    <g id="g9304" transform="translate(653.66 455.97)">
     <path id="path9306" d="m0 0c-0.043-0.134-0.119-0.251-0.315-0.258-0.292 0-0.381 0.243-0.381 0.373 0 0.336 0.27 0.417 0.377 0.417 0.123 0 0.296-0.057 0.296-0.202 0-0.051-0.032-0.1-0.084-0.1-0.051 0-0.089 0.034-0.089 0.089 0 0.073 0.06 0.083 0.06 0.103 0 0.051-0.119 0.072-0.16 0.072-0.181 0-0.228-0.132-0.228-0.379 0-0.113 0.028-0.2 0.039-0.226 0.029-0.062 0.087-0.102 0.185-0.108 0.11-5e-3 0.215 0.083 0.26 0.219h0.04z" fill="none" stroke="#948e5c" stroke-miterlimit="10" stroke-width=".007"/>
    </g>
    <g id="g9308" transform="translate(653.89 456.99)">
     <path id="path9310" d="m0 0h-0.104v0.043h0.04c0.07 0 0.143 4e-3 0.211 0.017v-0.75h4e-3c0.053 0.119 0.126 0.2 0.264 0.2 0.068 0 0.224-0.015 0.224-0.189v-0.533h0.102v-0.044h-0.347v0.044h0.098v0.509c0 0.137-0.043 0.158-0.119 0.158-0.128 0-0.226-0.175-0.226-0.317v-0.35h0.102v-0.044h-0.353v0.044h0.104v1.212z" fill="#948e5c"/>
    </g>
    <g id="g9312" transform="translate(655.69 456.01)">
     <path id="path9314" d="m0 0c0.113 0.141 0.162 0.283 0.168 0.447h-0.168v0.043h0.371v-0.043h-0.158c-0.013-0.175-0.062-0.355-0.188-0.488l0.116-0.193h0.164v-0.043h-0.343l-0.064 0.107c-0.092-0.081-0.245-0.135-0.366-0.135-0.296 0-0.396 0.216-0.396 0.392 0 0.115 0.078 0.281 0.372 0.398-0.049 0.084-0.108 0.177-0.108 0.277 0 0.167 0.149 0.249 0.296 0.249 0.136 0 0.283-0.082 0.283-0.236 0-0.07-0.034-0.175-0.286-0.27l0.307-0.505zm-0.471 0.445c-0.114-0.043-0.221-0.104-0.221-0.243 0-0.155 0.13-0.438 0.304-0.438 0.103 0 0.179 0.044 0.262 0.106l-0.345 0.575zm0.315 0.356c0 0.093-0.051 0.166-0.148 0.166-0.084 0-0.16-0.055-0.16-0.149 0-0.081 0.089-0.209 0.132-0.277 0.134 0.057 0.176 0.117 0.176 0.26" fill="#948e5c"/>
    </g>
    <g id="g9316" transform="translate(656.77 456.48)">
     <path id="path9318" d="m0 0v-0.211h-0.041c-0.029 0.109-0.093 0.186-0.206 0.192-0.154 4e-3 -0.177-0.115-0.177-0.138 0-0.054 0.015-0.082 0.303-0.141 0.146-0.03 0.196-0.096 0.196-0.215 0-0.162-0.122-0.258-0.271-0.258-0.079 0-0.162 0.032-0.217 0.092l-0.041-0.068h-0.042v0.249h0.044c0.035-0.136 0.128-0.235 0.267-0.235 0.085 0 0.183 0.064 0.183 0.162 0 0.073-0.104 0.107-0.26 0.147-0.124 0.03-0.234 0.047-0.234 0.211 0 0.079 0.049 0.232 0.255 0.232 0.058 0 0.117-0.023 0.175-0.07l0.034 0.051h0.032z" fill="#948e5c"/>
    </g>
    <g id="g9320" transform="translate(656.96 455.73)">
     <path id="path9322" d="m0 0v0.043h0.145v1.213h-0.145v0.043h0.081c0.07 0 0.143 4e-3 0.211 0.017v-1.273h0.145v-0.043h-0.437z" fill="#948e5c"/>
    </g>
    <g id="g9324" transform="translate(658.23 456.1)">
     <path id="path9326" d="m0 0c0-0.228-0.166-0.396-0.364-0.396s-0.364 0.168-0.364 0.396 0.166 0.394 0.364 0.394 0.364-0.166 0.364-0.394m-0.556 0c0-0.158 2e-3 -0.358 0.192-0.358 0.191 0 0.192 0.2 0.192 0.358 0 0.157-1e-3 0.356-0.192 0.356-0.19 0-0.192-0.199-0.192-0.356" fill="#948e5c"/>
    </g>
    <g id="g9328" transform="translate(658.32 456.44)">
     <path id="path9330" d="m0 0v0.043h0.339v-0.043h-0.1l0.183-0.541h4e-3l0.19 0.541h-0.115v0.043h0.257v-0.043h-0.091l-0.26-0.728h-0.064l-0.253 0.728h-0.09z" fill="#948e5c"/>
    </g>
    <g id="g9332" transform="translate(659.94 455.86)">
     <path id="path9334" d="m0 0c-6e-3 -0.089-0.074-0.155-0.16-0.155-0.07 0-0.11 0.046-0.123 0.115-0.064-0.079-0.158-0.115-0.254-0.115-0.119 0-0.221 0.046-0.221 0.185 6e-3 0.176 0.185 0.274 0.473 0.274v0.179c0 0.088-0.069 0.115-0.135 0.115-0.042 0-0.176-0.014-0.176-0.068 0-0.015 0.057-0.025 0.057-0.087 0-0.047-0.03-0.079-0.078-0.079-0.05 0-0.079 0.038-0.079 0.09 0 0.068 0.078 0.181 0.302 0.181 0.256 0 0.256-0.109 0.256-0.184v-0.449c0-0.057 0-0.087 0.04-0.087 0.038 0 0.056 0.053 0.066 0.085h0.032zm-0.285 0.264c-0.122-2e-3 -0.332-0.023-0.332-0.196 0-0.093 0.059-0.149 0.146-0.149 0.06 0 0.099 0.015 0.145 0.055 0.015 0.015 0.041 0.035 0.041 0.115v0.175z" fill="#948e5c"/>
    </g>
    <g id="g9336" transform="translate(660.02 455.73)">
     <path id="path9338" d="m0 0v0.043h0.098v1.213h-0.098v0.043h0.034c0.07 0 0.143 4e-3 0.211 0.017v-1.273h0.113v-0.043h-0.358zm0.454 0.703v0.044h0.31v-0.044h-0.115l-0.261-0.226 0.359-0.434h0.079v-0.043h-0.358v0.043h0.094l-0.315 0.383 0.319 0.272v5e-3h-0.112z" fill="#948e5c"/>
    </g>
   </g>
  </g>
 </g>
</svg>
