<?xml version="1.0" encoding="UTF-8"?>
<svg id="svg13" width="16.119pt" height="8.4536pt" version="1.1" viewBox="0 0 16.119 8.4536" xmlns="http://www.w3.org/2000/svg" xmlns:cc="http://creativecommons.org/ns#" xmlns:dc="http://purl.org/dc/elements/1.1/" xmlns:rdf="http://www.w3.org/1999/02/22-rdf-syntax-ns#">
 <metadata id="metadata19">
  <rdf:RDF>
   <cc:Work rdf:about="">
    <dc:format>image/svg+xml</dc:format>
    <dc:type rdf:resource="http://purl.org/dc/dcmitype/StillImage"/>
    <dc:title/>
   </cc:Work>
  </rdf:RDF>
 </metadata>
 <g id="g4523" transform="matrix(.019562 0 0 .019562 -3.5957 -4.1387)" fill="#deaf35">
  <path id="path9274" d="m437.08 352.56v18.121h-28.52v8.5456h28.52v129.52h-28.52v8.5456h87.361v-8.5456h-29.961v-129.52h29.961v-8.5456h-29.961v-41.801c0-37.014 11.48-58.481 29.24-58.481 2.574 0 8.8545 0.36035 8.8545 2.2136 0 4.7876-2.9343 5.148-2.9343 9.2663 0 9.987 5.1479 16.988 15.135 16.988 6.332 0 13.694-4.7876 13.694-12.201 0-17.4-16.628-24.041-31.042-24.041-35.572 0-61.827 26.615-61.827 89.935"/>
  <path id="path9278" d="m408.57 517.29v-8.4941h28.52v-129.57h-28.52v-8.4941h28.52v-18.172c0-63.268 26.255-89.935 61.775-89.935 14.466 0 31.094 6.6408 31.094 24.041 0 7.413-7.413 12.252-13.694 12.252-9.987 0-15.186-7.0527-15.186-17.04 0-4.0669 2.9858-4.4272 2.9858-9.2663 0-1.8533-6.2805-2.2136-8.9059-2.2136-17.76 0-29.189 21.467-29.189 58.481v41.853h29.961v8.4941h-29.961v129.57h29.961v8.4941z"/>
  <path id="path9282" d="m530.61 374.4c0 7.413 5.9716 13.385 13.385 13.385s13.385-5.9716 13.385-13.385c0-7.413-5.9716-13.385-13.385-13.385s-13.385 5.9716-13.385 13.385"/>
  <path id="path9286" d="m530.61 374.4c0 7.413 5.9716 13.385 13.385 13.385s13.385-5.9716 13.385-13.385c0-7.413-5.9716-13.385-13.385-13.385s-13.385 5.9716-13.385 13.385"/>
 </g>
 <path id="path2" d="m2.727 1e-3 5.0921-1e-3 2.45 2.7272-0.75549-7.8e-4 -2.0169-2.1955-4.5285 9.8e-4 -2.1878 2.1964 4.4629 4.3814 0.93097-7.12e-5 -0.93077 0.86025-5.2435-5.2417z" fill="#deaf35" stroke-width=".019562"/>
 <path id="path8" d="m9.5208 2.9964-3.862 3.7914h0.85477l1.7078-1.7072 1.7064 1e-3 -1.738 1.7062h0.85477l3.7926-3.7914h-0.78542l-1.673 1.6424h-1.7155l1.643-1.6424z" fill="#deaf35" stroke-width=".019562"/>
 <path id="path10" d="m13.179 2.9964-3.862 3.7915 0.18726-1.187e-4c0.61954 5.8e-4 1.2391 3e-3 1.8586 3e-3 0.29989-2e-3 0.6027 0.0117 0.89887-0.0454 0.36386-0.0651 0.7066-0.22007 1.0151-0.42078 0.304-0.19621 0.57513-0.4378 0.83511-0.68839 0.47536-0.4603 0.9384-0.94426 1.2897-1.5086 0.11776-0.20579 0.2457-0.4286 0.23475-0.67372-0.0025-0.1205-0.10193-0.19954-0.18448-0.27231-0.16823-0.13968-0.39418-0.17607-0.60604-0.18409-0.2943-8.3e-4 -0.58858-3.7e-4 -0.88288-2e-4l0.0013-1e-3h-0.78516zm0.86901 0.42797c0.1946 1.4e-4 0.3892 6.2e-4 0.58374 4.3e-4 0.13439 5e-3 0.27936 8e-3 0.39654 0.0823 0.06612 0.0417 0.08372 0.12834 0.06416 0.20013-0.03032 0.12149-0.10622 0.22439-0.17704 0.32533-0.43506 0.61132-0.97282 1.1436-1.5526 1.6172-0.24394 0.19289-0.52036 0.34155-0.805 0.4648-0.19582 0.082-0.3981 0.15649-0.60996 0.18153-0.40191 0.0304-0.90376 0.0355-1.3108 0.0265l2.898-2.8971c0.17097-1e-3 0.34196-1e-3 0.51296-1e-3z" fill="#deaf35" stroke-width=".019562"/>
 <path id="path9290" d="m6.532 8.1919c-0.042963 0.13401-0.11901 0.25102-0.31502 0.25802-0.29202 0-0.38103-0.24302-0.38103-0.37303 0-0.33602 0.27002-0.41703 0.37703-0.41703 0.12301 0 0.29602 0.057044 0.29602 0.20201 0 0.050964-0.032002 0.10001-0.084006 0.10001-0.050964 0-0.089006-0.034002-0.089006-0.089006 0-0.073045 0.060004-0.083006 0.060004-0.10301 0-0.050964-0.11901-0.072005-0.16001-0.072005-0.18101 0-0.22802 0.13201-0.22802 0.37903 0 0.11301 0.028002 0.20001 0.038963 0.22602 0.028962 0.062004 0.087006 0.10201 0.18501 0.10801 0.11001 0.0048 0.21502-0.083006 0.26002-0.21902z" fill="#deaf35"/>
 <path id="path9294" d="m6.7055 7.9242v-0.24502h0.56604v0.046963l-0.43803 0.65605h0.23802c0.094007 0 0.13201-0.094007 0.16001-0.23002h0.036003v0.27402h-0.60904v-0.042003l0.44103-0.66205h-0.16801c-0.098007 0-0.15401 0.015041-0.18301 0.20201z" fill="#deaf35"/>
 <path id="path9298" d="m8.116 8.1919c-0.038003 0.17501-0.16601 0.25802-0.33202 0.25802-0.19201 0-0.37703-0.15401-0.37703-0.36403 0-0.22202 0.14701-0.42603 0.37103-0.42603 0.19301 0 0.33802 0.13001 0.34002 0.33602h-0.53404v0.076966c0 0.18701 0.024962 0.33802 0.23002 0.33802 0.10801 0 0.23402-0.095007 0.26002-0.21902zm-0.17001-0.25102v-0.064005c0-0.13601-0.078966-0.17901-0.17301-0.17901-0.11301 0-0.16401 0.10601-0.16801 0.11901-0.011041 0.034002-0.017041 0.076966-0.019041 0.12401z" fill="#deaf35"/>
 <path id="path9302" d="m8.9365 8.1884c-0.04296 0.13401-0.11901 0.25102-0.31502 0.25802-0.29202 0-0.38103-0.24302-0.38103-0.37303 0-0.33602 0.27002-0.41703 0.37703-0.41703 0.12301 0 0.29602 0.057044 0.29602 0.20201 0 0.050964-0.032 0.10001-0.08401 0.10001-0.05096 0-0.08901-0.034002-0.08901-0.089006 0-0.073045 0.06001-0.083006 0.06001-0.10301 0-0.050964-0.11901-0.072005-0.16001-0.072005-0.18101 0-0.22802 0.13201-0.22802 0.37903 0 0.11301 0.028002 0.20001 0.038963 0.22602 0.02896 0.062004 0.08701 0.10201 0.18501 0.10801 0.11001 0.0048 0.21501-0.083006 0.26002-0.21902z" fill="#deaf35"/>
 <path id="path9290-3" d="m8.9365 8.1884c-0.04296 0.13401-0.11901 0.25102-0.31502 0.25802-0.29202 0-0.38103-0.24302-0.38103-0.37303 0-0.33602 0.27002-0.41703 0.37703-0.41703 0.12301 0 0.29602 0.057044 0.29602 0.20201 0 0.050964-0.032 0.10001-0.08401 0.10001-0.05096 0-0.08901-0.034002-0.08901-0.089006 0-0.073045 0.06-0.083006 0.06-0.10301 0-0.050964-0.11901-0.072005-0.16001-0.072005-0.18101 0-0.22802 0.13201-0.22802 0.37903 0 0.11301 0.028 0.20001 0.03896 0.22602 0.02896 0.062004 0.08701 0.10201 0.18501 0.10801 0.11001 0.0048 0.21501-0.083006 0.26002-0.21902z" fill="#deaf35"/>
 <path id="path9310" d="m9.1681 7.17h-0.10401v-0.042963h0.04c0.07001 0 0.14301-4e-3 0.21102-0.017041v0.75005h4e-3c0.05304-0.11901 0.12601-0.20001 0.26402-0.20001 0.068 0 0.22402 0.015041 0.22402 0.18901v0.53304h0.10201v0.044003h-0.34702v-0.044003h0.09801v-0.50904c0-0.13701-0.04304-0.15801-0.11901-0.15801-0.12801 0-0.22602 0.17501-0.22602 0.31702v0.35002h0.10201v0.044003h-0.35302v-0.044003h0.10401z" fill="#deaf35"/>
 <path id="path9314" d="m10.971 8.1486c0.11301-0.14101 0.16201-0.28302 0.16801-0.44703h-0.16801v-0.042963h0.37103v0.042963h-0.15801c-0.01304 0.17501-0.06201 0.35503-0.18801 0.48803l0.11601 0.19301h0.16401v0.043043h-0.34302l-0.064-0.10701c-0.09201 0.081006-0.24502 0.13501-0.36603 0.13501-0.29602 0-0.39603-0.21602-0.39603-0.39203 0-0.11501 0.07801-0.28102 0.37203-0.39803-0.04896-0.084006-0.10801-0.17701-0.10801-0.27702 0-0.16701 0.14901-0.24902 0.29602-0.24902 0.13601 0 0.28302 0.082006 0.28302 0.23602 0 0.070005-0.034 0.17501-0.28602 0.27002zm-0.47103-0.44503c-0.11401 0.043043-0.22102 0.10401-0.22102 0.24302 0 0.15501 0.13001 0.43803 0.30402 0.43803 0.10301 0 0.17901-0.044003 0.26202-0.10601zm0.31502-0.35603c0-0.093007-0.05104-0.16601-0.14801-0.16601-0.08401 0-0.16001 0.055044-0.16001 0.14901 0 0.081006 0.08901 0.20902 0.13201 0.27702 0.13401-0.056964 0.17601-0.11701 0.17601-0.26002" fill="#deaf35"/>
 <path id="path9318" d="m12.051 7.679v0.21102h-0.04096c-0.02896-0.10901-0.09301-0.18601-0.20602-0.19201-0.15401-4e-3 -0.17701 0.11501-0.17701 0.13801 0 0.054004 0.01504 0.082006 0.30302 0.14101 0.14601 0.030002 0.19601 0.096007 0.19601 0.21502 0 0.16201-0.12201 0.25802-0.27102 0.25802-0.07905 0-0.16201-0.032002-0.21702-0.092006l-0.04104 0.068005h-0.042v-0.24902h0.044c0.03504 0.13601 0.12801 0.23502 0.26702 0.23502 0.08501 0 0.18301-0.064005 0.18301-0.16201 0-0.073045-0.10401-0.10701-0.26002-0.14701-0.12401-0.030002-0.23402-0.046963-0.23402-0.21102 0-0.078966 0.04896-0.23202 0.25502-0.23202 0.058 0 0.11701 0.023042 0.17501 0.070005l0.034-0.050964z" fill="#deaf35"/>
 <path id="path9322" d="m12.236 8.4257v-0.042963h0.14501v-1.2131h-0.14501v-0.042963h0.08101c0.07001 0 0.14301-4e-3 0.21102-0.017041v1.2731h0.14501v0.042963z" fill="#deaf35"/>
 <path id="path9326" d="m13.505 8.0543c0 0.22802-0.16601 0.39603-0.36403 0.39603-0.19802 0-0.36403-0.16801-0.36403-0.39603 0-0.22802 0.16601-0.39403 0.36403-0.39403 0.19801 0 0.36403 0.16601 0.36403 0.39403m-0.55604 0c0 0.15801 0.0016 0.35803 0.19201 0.35803 0.19101 0 0.19201-0.20001 0.19201-0.35803 0-0.15701-8e-4 -0.35603-0.19201-0.35603-0.19001 0-0.19201 0.19901-0.19201 0.35603" fill="#deaf35"/>
 <path id="path9330" d="m13.595 7.7224v-0.042963h0.33902v0.042963h-0.10001l0.18301 0.54104h4e-3l0.19001-0.54104h-0.11501v-0.042963h0.25702v0.042963h-0.09101l-0.26002 0.72805h-0.064l-0.25302-0.72805z" fill="#deaf35"/>
 <path id="path9334" d="m15.219 8.2956c-0.0056 0.089006-0.074 0.15501-0.16001 0.15501-0.07 0-0.11001-0.046003-0.12301-0.11501-0.064 0.078966-0.15801 0.11501-0.25402 0.11501-0.11901 0-0.22102-0.046003-0.22102-0.18501 0.0056-0.17601 0.18501-0.27402 0.47303-0.27402v-0.17901c0-0.088006-0.06904-0.11501-0.13501-0.11501-0.042 0-0.17601 0.014001-0.17601 0.068005 0 0.014961 0.05705 0.024962 0.05705 0.087006 0 0.046963-0.03 0.078966-0.07801 0.078966-0.05 0-0.07897-0.038003-0.07897-0.090007 0-0.068005 0.07801-0.18101 0.30202-0.18101 0.25602 0 0.25602 0.10901 0.25602 0.18401v0.44903c0 0.057044 0 0.087006 0.04 0.087006 0.038 0 0.056-0.052964 0.066-0.085006zm-0.28502-0.26402c-0.12201 0.0016-0.33202 0.023042-0.33202 0.19601 0 0.093007 0.05904 0.14901 0.14601 0.14901 0.06001 0 0.09901-0.014961 0.14501-0.054964 0.01504-0.015041 0.04104-0.034962 0.04104-0.11501z" fill="#deaf35"/>
 <path id="path9338" d="m15.293 8.4257v-0.042963h0.09801v-1.2131h-0.09801v-0.042963h0.034c0.07001 0 0.14301-4e-3 0.21102-0.017041v1.2731h0.11301v0.042963zm0.45403-0.70305v-0.044003h0.31002v0.044003h-0.11501l-0.26102 0.22602 0.35903 0.43403h0.07897v0.042963h-0.35802v-0.042963h0.09401l-0.31503-0.38303 0.31902-0.27202v-0.0048z" fill="#deaf35"/>
</svg>
