<svg width="6.3877mm" height="2.7245mm" version="1.1" viewBox="0 0 6.3877 2.7245" xmlns="http://www.w3.org/2000/svg">
 <defs>
  <clipPath id="a">
   <path d="m153.11 127.08h18.106v8.601h-18.106z"/>
  </clipPath>
 </defs>
 <g transform="translate(-68.39 -133.32)">
  <g transform="matrix(.35278 0 0 -.35278 72.061 133.32)">
   <path d="m0 0v-6.845l7.699-0.878-0.855 7.723z" fill="#c5006b"/>
  </g>
  <g transform="matrix(.35278 0 0 -.35278 74.034 134.64)">
   <path d="m0 0-0.455-0.805h-0.502l0.733 1.155-0.713 1.121h0.502l0.435-0.791 0.442 0.791h0.502l-0.706-1.121 0.726-1.155h-0.502z" fill="#fff" fill-rule="evenodd"/>
  </g>
  <g transform="matrix(.35278 0 0 -.35278 14.377 181.03)" fill="#fff">
   <g clip-path="url(#a)" fill="#fff">
    <g transform="translate(164.92 131.7)">
     <path d="m0 0h-0.376v-0.607h0.376v-0.403h-0.798v1.01h-0.312l1e-3 0.363h0.311l-1e-3 0.924h0.799v-0.403h-0.376v-0.521h0.376zm0.013 0h-0.013v0.363h0.013c0.145 0 0.277 0.132 0.277 0.264 0 0.151-0.138 0.257-0.277 0.257h-0.013v0.403h0.013c0.561 0 0.706-0.449 0.706-0.654 0-0.105-0.039-0.297-0.237-0.422 0.211-0.059 0.363-0.27 0.363-0.535 0-0.158-0.139-0.686-0.825-0.686h-0.02v0.403h0.013c0.225 0 0.363 0.145 0.363 0.297 0 0.145-0.105 0.31-0.363 0.31" fill="#fff" fill-rule="evenodd"/>
    </g>
    <g transform="translate(167.12 131.1)">
     <path d="m0 0c-0.409 0-0.739 0.33-0.739 0.739s0.33 0.739 0.739 0.739v0.449h-0.013c-0.653 0-1.188-0.528-1.188-1.188 0-0.653 0.535-1.188 1.188-1.188h0.013zv-0.449c0.653 7e-3 1.181 0.535 1.181 1.188s-0.528 1.181-1.181 1.188v-0.449c0.409 0 0.739-0.33 0.739-0.739s-0.33-0.739-0.739-0.739" fill="#fff" fill-rule="evenodd"/>
    </g>
    <g transform="translate(169.04 128.7)">
     <path d="m0 0h-0.37v0.434h-0.316v-0.434h-0.37v1.219h0.37v-0.432h0.316v0.432h0.37z" fill="#fff"/>
    </g>
    <g transform="translate(169.56 129.05)">
     <path d="m0 0h0.169c0.119 0 0.247 0.079 0.247 0.252 0 0.171-0.124 0.261-0.247 0.261h-0.169zm0.169-0.353h-0.539v1.219h0.539c0.358 0 0.628-0.264 0.628-0.614s-0.264-0.605-0.628-0.605" fill="#fff"/>
    </g>
    <g transform="translate(155.01 131.83)">
     <path d="m0 0v-0.645c-0.022-0.09-0.033-0.17-0.032-0.239 0-0.054 9e-3 -0.101 0.027-0.14 1e-3 -4e-3 3e-3 -8e-3 5e-3 -0.011v-0.173c-0.032 9e-3 -0.062 0.023-0.09 0.041-0.056 0.038-0.1 0.092-0.131 0.162-0.031 0.071-0.046 0.155-0.047 0.254 0 0.073 0.011 0.153 0.033 0.239 0.022 0.087 0.054 0.176 0.097 0.269 0.038 0.081 0.084 0.162 0.138 0.243m0 1.444c-0.024 4e-3 -0.05 5e-3 -0.077 6e-3 -0.111 0-0.209-0.029-0.296-0.088-0.086-0.058-0.163-0.146-0.231-0.264-0.067-0.117-0.129-0.265-0.183-0.442l-0.085-0.27h-0.313l-0.014-0.088h0.31l-0.394-1.795c-0.03-0.136-0.057-0.252-0.082-0.344s-0.054-0.162-0.087-0.209c-0.033-0.048-0.075-0.071-0.127-0.071-0.033 1e-3 -0.058 8e-3 -0.073 0.022-0.016 0.014-0.027 0.033-0.034 0.056-8e-3 0.022-0.015 0.047-0.023 0.073-8e-3 0.027-0.023 0.048-0.041 0.064-0.018 0.017-0.041 0.024-0.068 0.025-0.028 0-0.049-9e-3 -0.063-0.026-0.014-0.018-0.021-0.042-0.021-0.074 0-0.064 0.023-0.114 0.07-0.152 0.046-0.038 0.115-0.057 0.204-0.058 0.093 0 0.173 0.021 0.239 0.063s0.123 0.106 0.172 0.192c0.048 0.087 0.091 0.197 0.132 0.331 0.04 0.133 0.08 0.291 0.122 0.474l0.327 1.429h0.355l7e-3 0.088h-0.341l0.081 0.347c0.049 0.214 0.111 0.375 0.184 0.482s0.157 0.161 0.252 0.161c0.038 0 0.067-5e-3 0.088-0.013 3e-3 -2e-3 7e-3 -3e-3 0.01-5e-3zm1.312-2.325c-8e-3 -0.019-0.012-0.041-0.012-0.066 0-0.027 4e-3 -0.053 0.012-0.077zm0 0.294v-0.052c-0.052-0.185-0.117-0.328-0.192-0.425-0.081-0.106-0.172-0.16-0.273-0.16-0.07 0-0.124 0.019-0.16 0.057s-0.055 0.093-0.055 0.165c0 0.028 4e-3 0.066 0.012 0.114s0.02 0.107 0.038 0.178c-0.068-0.172-0.149-0.301-0.243-0.386s-0.203-0.128-0.327-0.128c-0.04 1e-3 -0.077 6e-3 -0.112 0.016v0.173c0.017-0.034 0.04-0.06 0.068-0.079 0.03-0.021 0.065-0.032 0.104-0.032 0.076 0 0.147 0.033 0.214 0.099 0.066 0.067 0.133 0.165 0.201 0.296 0.072 0.138 0.131 0.27 0.176 0.392 0.045 0.123 0.078 0.233 0.099 0.328 0.021 0.097 0.031 0.174 0.031 0.232-1e-3 0.068-0.018 0.121-0.051 0.159-0.032 0.039-0.077 0.059-0.132 0.059-0.078 0-0.155-0.038-0.235-0.115-0.078-0.078-0.157-0.193-0.236-0.346-0.093-0.18-0.162-0.34-0.206-0.482-0.013-0.042-0.024-0.082-0.033-0.121v0.645c8e-3 0.012 0.016 0.024 0.024 0.035 0.072 0.101 0.147 0.186 0.225 0.254 0.079 0.068 0.155 0.119 0.23 0.153 0.074 0.034 0.144 0.051 0.206 0.051 0.069 0 0.128-0.021 0.176-0.063 0.048-0.043 0.08-0.102 0.099-0.18l0.052 0.195c4e-3 0.011 9e-3 0.019 0.017 0.024 7e-3 4e-3 0.017 6e-3 0.029 6e-3 0.046 0 0.081-6e-3 0.104-0.016 0.024-0.011 0.037-0.027 0.037-0.047 0-9e-3 -1e-3 -0.021-3e-3 -0.034s-4e-3 -0.026-8e-3 -0.04l-0.295-1.074c-0.016-0.06-0.028-0.115-0.035-0.166-8e-3 -0.05-0.011-0.092-0.011-0.126 1e-3 -0.028 8e-3 -0.05 0.024-0.067 0.014-0.017 0.033-0.025 0.057-0.025 0.048 0 0.101 0.046 0.159 0.138s0.118 0.229 0.182 0.412zm-1.044 1.804c-1e-3 0.044-0.015 0.083-0.045 0.118-0.029 0.035-0.069 0.062-0.122 0.083-0.031 0.012-0.064 0.021-0.101 0.026v-0.086c0.016-8e-3 0.029-0.018 0.037-0.03 0.011-0.015 0.019-0.032 0.024-0.052 6e-3 -0.02 0.011-0.041 0.017-0.063 9e-3 -0.027 0.023-0.049 0.04-0.065 0.019-0.015 0.039-0.023 0.062-0.023 0.025 1e-3 0.046 0.01 0.063 0.028 0.016 0.018 0.024 0.039 0.025 0.064m4.645-1.879-0.049 0.033c-0.053-0.107-0.101-0.197-0.145-0.269-0.044-0.073-0.086-0.127-0.126-0.164-0.039-0.036-0.078-0.055-0.116-0.055-0.02 1e-3 -0.036 9e-3 -0.048 0.023-0.013 0.015-0.018 0.034-0.019 0.059 0 0.031 0.011 0.083 0.033 0.155 0.021 0.072 0.053 0.164 0.094 0.277l0.102 0.284c0.042 0.118 0.076 0.222 0.1 0.312s0.036 0.169 0.037 0.234c-1e-3 0.083-0.021 0.147-0.059 0.194-0.039 0.048-0.092 0.072-0.159 0.072-0.079 0-0.157-0.044-0.235-0.133-0.077-0.089-0.152-0.223-0.226-0.402l0.06-0.026c0.068 0.153 0.132 0.268 0.193 0.344 0.06 0.076 0.112 0.114 0.155 0.114 0.018 0 0.033-8e-3 0.045-0.024 0.012-0.015 0.018-0.037 0.018-0.065 0-0.037-0.01-0.088-0.03-0.155-0.019-0.066-0.047-0.147-0.082-0.244l-0.13-0.354c-0.04-0.103-0.07-0.197-0.092-0.282-0.023-0.084-0.034-0.162-0.035-0.231 1e-3 -0.08 0.02-0.142 0.057-0.185 0.038-0.044 0.09-0.066 0.157-0.066 0.093 0 0.18 0.046 0.262 0.138s0.161 0.231 0.238 0.416m0.024 1.897c0 0.031-7e-3 0.057-0.02 0.08s-0.031 0.042-0.053 0.055c-0.022 0.014-0.047 0.02-0.074 0.02-0.028 0-0.054-6e-3 -0.077-0.02-0.023-0.013-0.04-0.032-0.054-0.055-0.013-0.023-0.02-0.049-0.02-0.08 1e-3 -0.044 0.015-0.081 0.042-0.11s0.062-0.043 0.105-0.045c0.028 1e-3 0.052 8e-3 0.075 0.021s0.041 0.032 0.055 0.055 0.021 0.05 0.021 0.079m-0.892-1.864-0.056 0.033c-0.072-0.166-0.138-0.291-0.199-0.374-0.06-0.083-0.116-0.125-0.167-0.125-0.021 0-0.038 8e-3 -0.051 0.022-0.012 0.015-0.019 0.036-0.019 0.063 0 0.019 2e-3 0.04 6e-3 0.064 4e-3 0.025 0.011 0.053 0.022 0.084l0.193 0.609c0.03 0.097 0.051 0.18 0.063 0.251 0.013 0.07 0.019 0.126 0.018 0.167 0 0.105-0.024 0.187-0.072 0.243-0.047 0.056-0.114 0.085-0.198 0.085-0.093 0-0.191-0.05-0.293-0.148-0.104-0.099-0.214-0.247-0.333-0.443l0.408 1.585-0.542-0.07-0.021-0.089c0.016 2e-3 0.031 3e-3 0.045 5e-3s0.027 2e-3 0.039 2e-3c0.053 1e-3 0.092-5e-3 0.117-0.018 0.026-0.013 0.038-0.036 0.038-0.07 0-0.015-2e-3 -0.03-4e-3 -0.044-3e-3 -0.014-7e-3 -0.029-0.01-0.041l-0.598-2.334h0.243c0.058 0.26 0.124 0.488 0.197 0.683 0.072 0.195 0.147 0.357 0.226 0.487 0.078 0.129 0.155 0.226 0.23 0.291s0.145 0.097 0.208 0.097c0.034 0 0.06-0.012 0.078-0.035s0.028-0.057 0.028-0.101c0-0.026-4e-3 -0.062-0.012-0.108-8e-3 -0.045-0.022-0.099-0.041-0.162l-0.193-0.617c-0.018-0.055-0.033-0.108-0.045-0.159s-0.018-0.101-0.019-0.151c0-0.085 0.018-0.149 0.054-0.19 0.035-0.043 0.089-0.065 0.161-0.065 0.101 0 0.192 0.048 0.272 0.143 0.08 0.094 0.156 0.238 0.227 0.43m-2.733-0.01c5e-3 0.015 9e-3 0.031 0.013 0.047l-0.013 5e-3zm0-0.385v0.143l3e-3 7e-3c0.011 0.021 0.024 0.037 0.04 0.049 0.017 0.012 0.035 0.019 0.054 0.019 0.03-1e-3 0.054-0.013 0.071-0.036 0.018-0.023 0.027-0.054 0.027-0.094 0-0.016-2e-3 -0.035-5e-3 -0.055s-5e-3 -0.041-5e-3 -0.063c0-0.027 0.019-0.05 0.057-0.069 0.038-0.02 0.09-0.03 0.157-0.03 0.069 0 0.129 0.012 0.178 0.035 0.05 0.024 0.087 0.057 0.113 0.1 0.026 0.042 0.04 0.092 0.04 0.149-1e-3 0.053-9e-3 0.103-0.026 0.149s-0.04 0.091-0.069 0.134c-0.029 0.045-0.062 0.09-0.099 0.138-0.046 0.061-0.088 0.118-0.125 0.171-0.038 0.053-0.068 0.107-0.09 0.161-0.023 0.054-0.034 0.111-0.034 0.174 1e-3 0.082 0.021 0.156 0.061 0.222 0.041 0.066 0.096 0.118 0.165 0.157 0.07 0.039 0.149 0.059 0.238 0.06 0.067-1e-3 0.124-0.012 0.172-0.033s0.084-0.048 0.109-0.081c0.026-0.033 0.039-0.068 0.039-0.104 0-0.035-9e-3 -0.063-0.026-0.082-0.016-0.019-0.041-0.029-0.073-0.029-0.027 1e-3 -0.048 0.01-0.065 0.026-0.017 0.017-0.025 0.041-0.026 0.07 1e-3 0.013 2e-3 0.025 3e-3 0.037 3e-3 0.011 4e-3 0.023 4e-3 0.033 0 0.026-0.013 0.047-0.039 0.064-0.026 0.019-0.065 0.028-0.116 0.029-0.052-1e-3 -0.097-0.011-0.136-0.032s-0.069-0.05-0.091-0.086c-0.022-0.037-0.032-0.079-0.033-0.126 1e-3 -0.04 0.01-0.079 0.029-0.118s0.044-0.08 0.076-0.122c0.032-0.044 0.067-0.092 0.106-0.144 0.05-0.065 0.093-0.126 0.128-0.184 0.037-0.059 0.065-0.117 0.085-0.174 0.019-0.057 0.03-0.116 0.03-0.177-1e-3 -0.094-0.024-0.178-0.068-0.251-0.044-0.074-0.107-0.131-0.188-0.173s-0.176-0.063-0.286-0.064c-0.083 1e-3 -0.155 0.013-0.214 0.037s-0.104 0.056-0.136 0.098c-0.015 0.02-0.027 0.042-0.035 0.065m4.34 1.482v-0.116c-7e-3 -7e-3 -0.015-0.014-0.023-0.022-0.065-0.066-0.126-0.165-0.183-0.296-0.033-0.078-0.062-0.158-0.087-0.238s-0.046-0.159-0.063-0.234-0.029-0.146-0.038-0.211c-8e-3 -0.064-0.012-0.121-0.012-0.17 1e-3 -0.104 0.023-0.184 0.067-0.24s0.105-0.084 0.183-0.084c0.054 0 0.106 0.016 0.156 0.05v-0.094c-0.055-0.018-0.112-0.026-0.17-0.027-0.1 1e-3 -0.183 0.022-0.253 0.066-0.07 0.043-0.123 0.105-0.159 0.187-0.037 0.081-0.056 0.179-0.056 0.294 0 0.141 0.022 0.28 0.065 0.416s0.107 0.266 0.192 0.389c0.055 0.08 0.114 0.147 0.178 0.202 0.063 0.055 0.129 0.096 0.196 0.124zm2.523-1.113-0.057 0.033c-0.075-0.168-0.145-0.294-0.208-0.379-0.063-0.084-0.123-0.127-0.179-0.127-0.023 0-0.041 8e-3 -0.054 0.024-0.012 0.016-0.02 0.039-0.02 0.069 0 0.011 2e-3 0.03 7e-3 0.056 4e-3 0.027 0.013 0.06 0.025 0.099l0.232 0.757c0.016 0.051 0.028 0.1 0.035 0.146s0.011 0.088 0.011 0.127c0 0.072-0.012 0.133-0.035 0.185s-0.054 0.092-0.096 0.119c-0.041 0.029-0.09 0.043-0.147 0.043-0.107 0-0.217-0.061-0.332-0.182s-0.228-0.302-0.34-0.542c0.043 0.185 0.064 0.329 0.064 0.432-1e-3 0.096-0.018 0.169-0.051 0.218-0.034 0.049-0.082 0.074-0.146 0.074-0.105 0-0.199-0.052-0.282-0.156-0.083-0.103-0.16-0.26-0.232-0.468l0.064-0.022c0.069 0.175 0.133 0.307 0.192 0.395 0.058 0.088 0.116 0.133 0.173 0.133 0.025 0 0.042-9e-3 0.054-0.026 0.011-0.017 0.017-0.044 0.017-0.081 0-0.034-4e-3 -0.087-0.012-0.159s-0.022-0.161-0.043-0.266-0.051-0.225-0.09-0.358l-0.189-0.661h0.249l0.095 0.314c0.022 0.074 0.045 0.151 0.069 0.232 0.024 0.08 0.052 0.163 0.085 0.249s0.073 0.172 0.12 0.262c0.046 0.088 0.103 0.178 0.169 0.269 0.058 0.079 0.114 0.139 0.167 0.179s0.102 0.061 0.15 0.061c0.037 0 0.066-0.013 0.085-0.038 0.021-0.025 0.031-0.062 0.031-0.11 0-0.033-5e-3 -0.074-0.014-0.122s-0.025-0.103-0.046-0.166l-0.19-0.587c-0.02-0.062-0.036-0.121-0.05-0.175-0.013-0.054-0.02-0.106-0.02-0.158 0-0.085 0.02-0.15 0.058-0.194 0.038-0.045 0.093-0.067 0.163-0.068 0.091 0 0.173 0.035 0.25 0.103 0.075 0.068 0.143 0.17 0.201 0.307zm-2.523-0.542v0.094c0.012 8e-3 0.023 0.016 0.035 0.026 0.06 0.051 0.112 0.126 0.157 0.226 0.036 0.081 0.067 0.163 0.094 0.246 0.027 0.084 0.049 0.166 0.067 0.246s0.031 0.156 0.04 0.226c9e-3 0.071 0.013 0.135 0.013 0.191 0 0.12-0.019 0.21-0.056 0.27-0.039 0.061-0.095 0.091-0.169 0.091-0.062 0-0.122-0.026-0.181-0.077v0.116c0.064 0.026 0.128 0.039 0.192 0.039 0.089-1e-3 0.168-0.026 0.234-0.076 0.067-0.05 0.119-0.119 0.156-0.209s0.056-0.196 0.056-0.317c0-0.146-0.022-0.287-0.068-0.424-0.045-0.138-0.113-0.268-0.202-0.392-0.071-0.096-0.153-0.171-0.245-0.223-0.04-0.023-0.081-0.041-0.123-0.053" fill="#fff"/>
    </g>
    <g transform="translate(163.18 131.17)">
     <path d="m0 0-0.056 0.033c-0.075-0.168-0.145-0.294-0.208-0.379-0.064-0.084-0.124-0.127-0.179-0.127-0.023 0-0.041 8e-3 -0.054 0.024s-0.02 0.039-0.02 0.069c0 0.011 2e-3 0.03 6e-3 0.056 5e-3 0.027 0.013 0.06 0.026 0.099l0.231 0.757c0.017 0.051 0.028 0.1 0.035 0.146 8e-3 0.046 0.012 0.088 0.012 0.127 0 0.072-0.012 0.133-0.035 0.185s-0.055 0.092-0.096 0.119c-0.042 0.029-0.091 0.043-0.147 0.043-0.107 0-0.217-0.061-0.332-0.182s-0.228-0.302-0.34-0.542c0.042 0.185 0.063 0.329 0.063 0.432 0 0.096-0.017 0.169-0.051 0.218-0.033 0.049-0.082 0.074-0.146 0.074-0.105 0-0.198-0.052-0.282-0.156-0.083-0.103-0.16-0.26-0.231-0.468l0.063-0.022c0.07 0.175 0.134 0.307 0.192 0.395 0.059 0.088 0.116 0.133 0.174 0.133 0.024 0 0.042-9e-3 0.054-0.026 0.011-0.017 0.016-0.044 0.016-0.081 1e-3 -0.034-3e-3 -0.087-0.012-0.159-8e-3 -0.072-0.022-0.161-0.043-0.266s-0.051-0.225-0.089-0.358l-0.19-0.661h0.25l0.095 0.314c0.021 0.074 0.044 0.151 0.068 0.232 0.025 0.08 0.053 0.163 0.086 0.249s0.073 0.172 0.119 0.262c0.047 0.088 0.103 0.178 0.17 0.268 0.058 0.08 0.113 0.14 0.166 0.18s0.103 0.061 0.15 0.061c0.037 0 0.066-0.013 0.086-0.038s0.03-0.062 0.03-0.11c0-0.033-4e-3 -0.074-0.014-0.122-9e-3 -0.048-0.024-0.103-0.045-0.166l-0.19-0.587c-0.02-0.062-0.037-0.121-0.05-0.175s-0.02-0.106-0.021-0.158c1e-3 -0.085 0.02-0.15 0.058-0.194 0.038-0.045 0.093-0.067 0.164-0.068 0.09 0 0.173 0.035 0.249 0.103s0.143 0.17 0.201 0.307zm-2.116 0.713c0-0.057-4e-3 -0.12-0.013-0.191-9e-3 -0.07-0.022-0.146-0.041-0.226-0.017-0.08-0.039-0.162-0.066-0.246-0.027-0.083-0.058-0.165-0.095-0.246-0.044-0.1-0.096-0.175-0.157-0.226-0.06-0.051-0.124-0.077-0.191-0.077-0.078 1e-3 -0.139 0.029-0.183 0.085s-0.066 0.136-0.067 0.24c0 0.049 4e-3 0.106 0.013 0.17 8e-3 0.065 0.021 0.136 0.037 0.211 0.017 0.075 0.038 0.153 0.063 0.233 0.025 0.081 0.054 0.161 0.088 0.239 0.057 0.131 0.118 0.23 0.183 0.296s0.133 0.099 0.204 0.099c0.074 0 0.13-0.03 0.168-0.091 0.037-0.06 0.057-0.151 0.057-0.27m0.232-0.163c-1e-3 0.121-0.019 0.227-0.056 0.317s-0.089 0.159-0.156 0.209-0.145 0.075-0.235 0.076c-0.066 0-0.132-0.014-0.199-0.043-0.067-0.028-0.132-0.069-0.196-0.124-0.063-0.055-0.122-0.122-0.178-0.202-0.084-0.123-0.148-0.253-0.192-0.389-0.043-0.136-0.065-0.275-0.065-0.416 1e-3 -0.115 0.019-0.213 0.056-0.294 0.037-0.082 0.09-0.144 0.159-0.187 0.07-0.044 0.154-0.065 0.253-0.066 0.103 1e-3 0.201 0.027 0.293 0.08 0.092 0.052 0.174 0.127 0.245 0.223 0.09 0.124 0.157 0.254 0.203 0.392 0.045 0.137 0.068 0.278 0.068 0.424m-1.378-0.558-0.049 0.034c-0.052-0.107-0.101-0.197-0.145-0.269-0.044-0.073-0.086-0.127-0.125-0.164-0.039-0.036-0.079-0.055-0.117-0.055-0.02 1e-3 -0.036 8e-3 -0.048 0.023s-0.018 0.034-0.019 0.059c0 0.031 0.012 0.083 0.033 0.155 0.022 0.072 0.054 0.164 0.094 0.277l0.102 0.284c0.043 0.118 0.076 0.222 0.1 0.312s0.036 0.169 0.037 0.234c-1e-3 0.083-0.02 0.147-0.058 0.194-0.039 0.048-0.092 0.072-0.16 0.072-0.079 0-0.157-0.044-0.234-0.133s-0.153-0.223-0.227-0.402l0.06-0.026c0.068 0.153 0.132 0.268 0.193 0.344 0.06 0.076 0.112 0.114 0.155 0.114 0.018 0 0.033-8e-3 0.046-0.024 0.011-0.015 0.017-0.037 0.018-0.065 0-0.037-0.01-0.088-0.03-0.155-0.02-0.066-0.047-0.148-0.083-0.244l-0.13-0.354c-0.039-0.103-0.07-0.197-0.092-0.282-0.023-0.084-0.034-0.162-0.035-0.231 1e-3 -0.08 0.02-0.142 0.058-0.185 0.037-0.044 0.09-0.066 0.157-0.066 0.093 0 0.18 0.046 0.261 0.138 0.082 0.092 0.162 0.231 0.238 0.415m0.025 1.898c-1e-3 0.031-7e-3 0.057-0.021 0.08-0.012 0.023-0.03 0.042-0.052 0.055-0.023 0.014-0.047 0.02-0.075 0.02s-0.054-6e-3 -0.077-0.02c-0.022-0.013-0.04-0.032-0.053-0.055-0.014-0.023-0.02-0.049-0.021-0.08 1e-3 -0.045 0.015-0.081 0.042-0.11 0.028-0.029 0.063-0.043 0.106-0.045 0.027 1e-3 0.052 8e-3 0.075 0.021s0.041 0.032 0.055 0.055c0.013 0.023 0.02 0.05 0.021 0.079m-0.892-1.864-0.057 0.033c-0.072-0.166-0.138-0.291-0.198-0.374-0.061-0.083-0.116-0.125-0.167-0.125-0.021 0-0.038 8e-3 -0.051 0.022-0.013 0.015-0.02 0.036-0.02 0.063 0 0.019 2e-3 0.04 7e-3 0.064 4e-3 0.025 0.011 0.053 0.021 0.084l0.194 0.609c0.029 0.097 0.05 0.18 0.063 0.251 0.012 0.07 0.018 0.126 0.018 0.167-1e-3 0.105-0.025 0.187-0.072 0.243-0.048 0.056-0.114 0.085-0.199 0.085-0.093 0-0.191-0.05-0.293-0.148-0.103-0.099-0.214-0.247-0.333-0.443l0.408 1.585-0.542-0.071-0.021-0.088c0.016 2e-3 0.031 3e-3 0.045 5e-3s0.027 2e-3 0.04 2e-3c0.052 1e-3 0.091-5e-3 0.117-0.018 0.025-0.013 0.038-0.036 0.038-0.07 0-0.015-2e-3 -0.03-5e-3 -0.044s-6e-3 -0.029-0.01-0.041l-0.597-2.334h0.242c0.059 0.26 0.124 0.488 0.197 0.683 0.073 0.194 0.148 0.357 0.226 0.487 0.078 0.129 0.155 0.226 0.23 0.291s0.145 0.097 0.209 0.097c0.033 0 0.06-0.012 0.078-0.035s0.027-0.057 0.027-0.101c0-0.026-3e-3 -0.062-0.011-0.108-9e-3 -0.045-0.022-0.099-0.042-0.162l-0.193-0.617c-0.018-0.055-0.033-0.108-0.044-0.159-0.013-0.051-0.019-0.101-0.019-0.151 0-0.085 0.017-0.149 0.053-0.19 0.035-0.043 0.089-0.065 0.161-0.065 0.101 0 0.192 0.048 0.272 0.143 0.081 0.094 0.157 0.238 0.228 0.43m-1.663 0.908c0 0.036-0.013 0.071-0.038 0.104-0.026 0.033-0.062 0.06-0.109 0.081-0.049 0.021-0.106 0.032-0.173 0.033-0.088-1e-3 -0.168-0.021-0.237-0.06-0.07-0.039-0.125-0.092-0.165-0.157-0.04-0.066-0.061-0.14-0.062-0.222 1e-3 -0.063 0.012-0.121 0.034-0.174 0.023-0.054 0.053-0.108 0.09-0.161 0.038-0.053 0.079-0.11 0.126-0.171 0.037-0.048 0.069-0.093 0.098-0.138 0.029-0.043 0.052-0.088 0.069-0.134s0.026-0.096 0.026-0.149c0-0.057-0.013-0.107-0.039-0.149-0.027-0.043-0.064-0.076-0.113-0.1-0.049-0.023-0.109-0.035-0.178-0.036-0.068 1e-3 -0.12 0.011-0.157 0.031-0.038 0.019-0.057 0.042-0.058 0.069 1e-3 0.022 2e-3 0.043 5e-3 0.063s5e-3 0.039 6e-3 0.055c-1e-3 0.04-0.01 0.071-0.027 0.094-0.018 0.023-0.041 0.035-0.072 0.035-0.019 0-0.037-6e-3 -0.053-0.018-0.017-0.012-0.03-0.028-0.04-0.049s-0.015-0.046-0.016-0.073c1e-3 -0.053 0.017-0.101 0.048-0.142 0.031-0.042 0.076-0.074 0.136-0.098 0.059-0.024 0.13-0.036 0.213-0.037 0.11 1e-3 0.206 0.022 0.287 0.064 0.08 0.042 0.143 0.099 0.187 0.173 0.045 0.073 0.067 0.157 0.068 0.251 0 0.06-0.01 0.12-0.03 0.177s-0.048 0.115-0.084 0.173c-0.036 0.059-0.079 0.12-0.128 0.185-0.04 0.052-0.075 0.1-0.107 0.143-0.031 0.043-0.057 0.084-0.076 0.123s-0.028 0.078-0.029 0.118c1e-3 0.047 0.012 0.089 0.033 0.126 0.022 0.036 0.052 0.065 0.092 0.086 0.038 0.021 0.084 0.031 0.136 0.032 0.051-1e-3 0.089-0.01 0.115-0.029 0.026-0.017 0.039-0.038 0.039-0.064 0-0.011-1e-3 -0.022-3e-3 -0.033-2e-3 -0.012-3e-3 -0.024-4e-3 -0.037 1e-3 -0.029 0.01-0.053 0.026-0.07 0.017-0.017 0.039-0.025 0.066-0.026 0.031 0 0.056 0.01 0.073 0.029s0.025 0.047 0.025 0.082m-1.49-0.078c0-0.058-0.01-0.136-0.031-0.232-0.02-0.095-0.053-0.205-0.098-0.328-0.045-0.122-0.104-0.254-0.177-0.392-0.067-0.131-0.135-0.23-0.201-0.296s-0.138-0.099-0.214-0.099c-0.039 0-0.074 0.011-0.104 0.032-0.031 0.021-0.055 0.051-0.073 0.09-0.017 0.039-0.026 0.086-0.027 0.14 0 0.098 0.022 0.219 0.066 0.36s0.112 0.302 0.205 0.482c0.079 0.153 0.158 0.268 0.237 0.346 0.079 0.077 0.157 0.115 0.234 0.115 0.055 0 0.1-0.02 0.133-0.059s0.05-0.091 0.05-0.159m0.433-0.793-0.056 0.022c-0.064-0.183-0.125-0.32-0.183-0.412s-0.111-0.138-0.159-0.138c-0.023 0-0.042 8e-3 -0.057 0.025s-0.023 0.039-0.023 0.067c0 0.034 3e-3 0.076 0.011 0.126 7e-3 0.051 0.018 0.106 0.034 0.166l0.296 1.074c3e-3 0.014 5e-3 0.027 7e-3 0.04s3e-3 0.025 3e-3 0.034c0 0.02-0.012 0.036-0.036 0.047-0.024 0.01-0.059 0.016-0.105 0.016-0.012 0-0.022-2e-3 -0.029-6e-3 -7e-3 -5e-3 -0.013-0.013-0.016-0.024l-0.053-0.195c-0.018 0.078-0.051 0.137-0.099 0.18-0.048 0.042-0.106 0.063-0.175 0.063-0.063 0-0.132-0.017-0.207-0.051s-0.151-0.085-0.229-0.153c-0.078-0.069-0.153-0.153-0.225-0.254-0.065-0.093-0.119-0.186-0.162-0.278-0.044-0.093-0.076-0.183-0.098-0.269-0.021-0.086-0.032-0.166-0.032-0.239 0-0.099 0.015-0.184 0.047-0.254 0.031-0.07 0.074-0.124 0.131-0.162s0.123-0.056 0.201-0.057c0.125 0 0.234 0.043 0.328 0.128 0.093 0.085 0.174 0.214 0.242 0.386-0.017-0.071-0.03-0.13-0.037-0.178-9e-3 -0.048-0.012-0.086-0.012-0.114 0-0.072 0.018-0.127 0.054-0.165 0.037-0.038 0.09-0.057 0.161-0.057 0.1 0 0.191 0.054 0.273 0.16 0.081 0.105 0.15 0.263 0.205 0.472m-1.058 1.809c0 0.044-0.015 0.083-0.044 0.118-0.03 0.035-0.07 0.062-0.122 0.083-0.052 0.02-0.111 0.031-0.178 0.032-0.111 0-0.21-0.029-0.296-0.088-0.087-0.058-0.164-0.146-0.231-0.264-0.068-0.117-0.129-0.265-0.184-0.442l-0.084-0.27h-0.313l-0.014-0.088h0.309l-0.394-1.795c-0.029-0.137-0.057-0.252-0.082-0.344s-0.054-0.163-0.087-0.209c-0.032-0.048-0.075-0.071-0.126-0.071-0.033 1e-3 -0.058 8e-3 -0.074 0.022-0.015 0.014-0.027 0.033-0.034 0.056-8e-3 0.022-0.015 0.047-0.022 0.073-9e-3 0.027-0.023 0.048-0.041 0.064-0.019 0.017-0.042 0.024-0.068 0.025-0.028 0-0.049-9e-3 -0.064-0.026-0.014-0.018-0.021-0.042-0.021-0.074 0-0.064 0.024-0.114 0.07-0.152s0.115-0.057 0.205-0.058c0.093 0 0.173 0.021 0.239 0.063 0.065 0.042 0.123 0.106 0.171 0.192 0.048 0.087 0.092 0.197 0.132 0.331 0.04 0.133 0.081 0.291 0.122 0.474l0.327 1.429h0.356l7e-3 0.088h-0.342l0.081 0.347c0.05 0.214 0.111 0.375 0.184 0.482s0.158 0.161 0.253 0.161c0.037 0 0.066-5e-3 0.087-0.013 0.021-9e-3 0.037-0.021 0.048-0.035 0.011-0.015 0.019-0.032 0.024-0.052s0.01-0.041 0.016-0.063c0.01-0.027 0.023-0.049 0.041-0.065 0.018-0.015 0.038-0.023 0.061-0.023 0.025 1e-3 0.047 0.01 0.063 0.028s0.025 0.039 0.025 0.064" fill="#fff"/>
    </g>
   </g>
  </g>
 </g>
</svg>
