<?xml version="1.0" encoding="UTF-8" standalone="no"?>
<svg
   xmlns:dc="http://purl.org/dc/elements/1.1/"
   xmlns:cc="http://creativecommons.org/ns#"
   xmlns:rdf="http://www.w3.org/1999/02/22-rdf-syntax-ns#"
   xmlns:svg="http://www.w3.org/2000/svg"
   xmlns="http://www.w3.org/2000/svg"
   xmlns:sodipodi="http://sodipodi.sourceforge.net/DTD/sodipodi-0.dtd"
   xmlns:inkscape="http://www.inkscape.org/namespaces/inkscape"
   width="16.118532pt"
   height="8.4536285pt"
   viewBox="0 0 16.118533 8.4536286"
   version="1.1"
   id="svg13"
   sodipodi:docname="Fashion TV Czech and Slovak HD - Dark.svg"
   inkscape:version="0.92.0 r15299">
  <metadata
     id="metadata19">
    <rdf:RDF>
      <cc:Work
         rdf:about="">
        <dc:format>image/svg+xml</dc:format>
        <dc:type
           rdf:resource="http://purl.org/dc/dcmitype/StillImage" />
        <dc:title></dc:title>
      </cc:Work>
    </rdf:RDF>
  </metadata>
  <defs
     id="defs17" />
  <sodipodi:namedview
     pagecolor="#ffffff"
     bordercolor="#666666"
     borderopacity="1"
     objecttolerance="10"
     gridtolerance="10"
     guidetolerance="10"
     inkscape:pageopacity="0"
     inkscape:pageshadow="2"
     inkscape:window-width="1920"
     inkscape:window-height="1017"
     id="namedview15"
     showgrid="false"
     fit-margin-top="0"
     fit-margin-left="0"
     fit-margin-right="0"
     fit-margin-bottom="0"
     inkscape:zoom="32"
     inkscape:cx="10.409672"
     inkscape:cy="6.0179308"
     inkscape:window-x="-8"
     inkscape:window-y="-8"
     inkscape:window-maximized="1"
     inkscape:current-layer="svg13" />
  <g
     id="g4523"
     transform="matrix(0.01956226,0,0,0.01956226,-3.5956634,-4.1387099)"
     style="fill:#948e5c;fill-opacity:1">
    <path
       d="m 437.07915,352.56305 v 18.12076 h -28.5196 v 8.54558 h 28.5196 v 129.52223 h -28.5196 v 8.54558 h 87.36058 v -8.54558 H 465.9591 V 379.22939 h 29.96103 v -8.54558 H 465.9591 v -41.80129 c 0,-37.0137 11.47991,-58.48062 29.24031,-58.48062 2.57398,0 8.85447,0.36035 8.85447,2.21361 0,4.78759 -2.93433,5.14795 -2.93433,9.2663 0,9.98701 5.14794,16.98821 15.13495,16.98821 6.33197,0 13.69352,-4.78759 13.69352,-12.20062 0,-17.40005 -16.62785,-24.04089 -31.04209,-24.04089 -35.57228,0 -61.82678,26.61486 -61.82678,89.93454"
       style="fill:#948e5c;fill-opacity:1;fill-rule:nonzero;stroke:none;stroke-width:51.47941589"
       id="path9274"
       inkscape:connector-curvature="0" />
    <path
       d="m 408.57499,517.2869 v -8.4941 h 28.5196 V 379.2191 h -28.5196 v -8.49411 h 28.5196 v -18.17223 c 0,-63.26821 26.25451,-89.93455 61.77531,-89.93455 14.46571,0 31.09357,6.64085 31.09357,24.04089 0,7.41304 -7.41304,12.2521 -13.69353,12.2521 -9.98701,0 -15.18643,-7.05268 -15.18643,-17.03969 0,-4.06687 2.98581,-4.42723 2.98581,-9.26629 0,-1.85326 -6.28049,-2.21362 -8.90594,-2.21362 -17.7604,0 -29.18883,21.46692 -29.18883,58.48062 v 41.85277 h 29.96102 v 8.49411 h -29.96102 v 129.5737 h 29.96102 v 8.4941 z"
       style="fill:#948e5c;fill-opacity:1;fill-rule:nonzero;stroke:none;stroke-width:51.47941589"
       id="path9278"
       inkscape:connector-curvature="0" />
    <path
       d="m 530.60696,374.40062 c 0,7.41304 5.97161,13.38465 13.38465,13.38465 7.41304,0 13.38465,-5.97161 13.38465,-13.38465 0,-7.41303 -5.97161,-13.38465 -13.38465,-13.38465 -7.41304,0 -13.38465,5.97162 -13.38465,13.38465"
       style="fill:#948e5c;fill-opacity:1;fill-rule:nonzero;stroke:none;stroke-width:51.47941589"
       id="path9282"
       inkscape:connector-curvature="0" />
    <path
       d="m 530.60696,374.40062 c 0,7.41304 5.97161,13.38465 13.38465,13.38465 7.41304,0 13.38465,-5.97161 13.38465,-13.38465 0,-7.41303 -5.97161,-13.38465 -13.38465,-13.38465 -7.41304,0 -13.38465,5.97162 -13.38465,13.38465"
       style="fill:#948e5c;fill-opacity:1;fill-rule:nonzero;stroke:none;stroke-width:51.47941589"
       id="path9286"
       inkscape:connector-curvature="0" />
  </g>
  <path
     style="opacity:1;fill:#948e5c;fill-opacity:1;stroke-width:0.01956226"
     inkscape:connector-curvature="0"
     id="path2"
     d="M 2.7269784,0.001 7.8190334,0 10.26901,2.72717 9.513516,2.72639 7.4966475,0.53091 2.968181,0.53189 0.7803384,2.72834 5.2432713,7.1097 6.174239,7.1096288 5.2434669,7.96988 0,2.72818 Z"
     sodipodi:nodetypes="cccccccccccc" />
  <path
     style="opacity:1;fill:#948e5c;fill-opacity:1;stroke-width:0.01956226"
     d="M 9.5207525,2.99639 5.6587738,6.78776 h 0.8547691 l 1.707762,-1.70719 1.7063864,0.001 -1.7379649,1.70619 H 9.0444956 L 12.837128,2.99639 H 12.051705 L 10.378702,4.63881 H 8.6632036 L 10.306175,2.99639 Z"
     id="path8"
     inkscape:connector-curvature="0" />
  <path
     style="opacity:1;fill:#948e5c;fill-opacity:1;stroke-width:0.01956226"
     d="M 13.179219,2.99639 9.3172401,6.7878787 9.5045048,6.78776 c 0.6195362,5.8e-4 1.2390972,0.003 1.8586342,0.003 0.299889,-0.002 0.602697,0.0117 0.89887,-0.0454 0.363858,-0.0651 0.706601,-0.22007 1.015098,-0.42078 0.303997,-0.19621 0.575129,-0.4378 0.835111,-0.68839 0.475363,-0.4603 0.938396,-0.94426 1.289733,-1.50864 0.117765,-0.20579 0.245702,-0.4286 0.234747,-0.67372 -0.0025,-0.1205 -0.101932,-0.19954 -0.184485,-0.27231 -0.168234,-0.13968 -0.394178,-0.17607 -0.606038,-0.18409 -0.294299,-8.3e-4 -0.588581,-3.7e-4 -0.88288,-2e-4 l 0.0013,-10e-4 h -0.785164 z m 0.869011,0.42797 c 0.194595,1.4e-4 0.389198,6.2e-4 0.583744,4.3e-4 0.134393,0.005 0.279358,0.008 0.396537,0.0823 0.06612,0.0417 0.08372,0.12834 0.06416,0.20013 -0.03032,0.12149 -0.106221,0.22439 -0.177035,0.32533 -0.435065,0.61132 -0.972824,1.14361 -1.552649,1.61721 -0.243942,0.19289 -0.520364,0.34155 -0.804995,0.4648 -0.195818,0.082 -0.398105,0.15649 -0.609964,0.18153 -0.401914,0.0304 -0.903765,0.0355 -1.310767,0.0265 l 2.898003,-2.89706 c 0.170974,-0.001 0.341958,-0.001 0.512965,-0.001 z"
     id="path10"
     inkscape:connector-curvature="0"
     sodipodi:nodetypes="ccccccccccccccccccccccccccc" />
  <path
     inkscape:connector-curvature="0"
     id="path9290"
     style="fill:#948e5c;fill-opacity:1;fill-rule:nonzero;stroke:none;stroke-width:1.00007153"
     d="m 6.5319873,8.1918658 c -0.042963,0.1340096 -0.1190085,0.2510179 -0.3150225,0.2580184 -0.2920209,0 -0.3810272,-0.2430173 -0.3810272,-0.3730266 0,-0.3360241 0.2700193,-0.4170298 0.3770269,-0.4170298 0.1230088,0 0.2960212,0.057044 0.2960212,0.2020144 0,0.050964 -0.032002,0.1000071 -0.084006,0.1000071 -0.050964,0 -0.089006,-0.034002 -0.089006,-0.089006 0,-0.073045 0.060004,-0.083006 0.060004,-0.1030074 0,-0.050964 -0.1190085,-0.072005 -0.1600114,-0.072005 -0.181013,0 -0.2280163,0.1320094 -0.2280163,0.3790271 0,0.113008 0.028002,0.2000143 0.038963,0.2260161 0.028962,0.062004 0.087006,0.1020073 0.1850133,0.1080077 0.1100078,0.0048 0.2150153,-0.083006 0.2600186,-0.2190156 z" />
  <path
     inkscape:connector-curvature="0"
     id="path9294"
     style="fill:#948e5c;fill-opacity:1;fill-rule:nonzero;stroke:none;stroke-width:1.00007153"
     d="M 6.7055037,7.9241507 V 7.6791331 h 0.5660405 v 0.046963 L 6.8335129,8.3821434 h 0.238017 c 0.094007,0 0.1320094,-0.094007 0.1600114,-0.2300165 h 0.036003 V 8.4261465 H 6.6585004 V 8.3841435 L 7.0995319,7.7220962 h -0.168012 c -0.098007,0 -0.154011,0.015041 -0.1830131,0.2020144 z" />
  <path
     inkscape:connector-curvature="0"
     id="path9298"
     style="fill:#948e5c;fill-opacity:1;fill-rule:nonzero;stroke:none;stroke-width:1.00007153"
     d="m 8.1160045,8.1918658 c -0.038003,0.1750125 -0.1660118,0.2580184 -0.3320237,0.2580184 -0.1920137,0 -0.377027,-0.154011 -0.377027,-0.364026 0,-0.2220159 0.1470106,-0.4260304 0.3710266,-0.4260304 0.1930138,0 0.3380241,0.1300093 0.3400243,0.336024 H 7.5839665 v 0.076966 c 0,0.1870133 0.024962,0.3380241 0.2300164,0.3380241 0.1080078,0 0.2340168,-0.095007 0.2600186,-0.2190156 z M 7.9459924,7.9408478 v 0 -0.064005 C 7.9459924,7.740833 7.8670264,7.69783 7.77298,7.69783 c -0.1130081,0 -0.1640117,0.1060076 -0.168012,0.1190085 -0.011041,0.034002 -0.017041,0.076966 -0.019041,0.1240088 z" />
  <path
     inkscape:connector-curvature="0"
     id="path9302"
     style="fill:#948e5c;fill-opacity:1;fill-rule:nonzero;stroke:none;stroke-width:1.00007153"
     d="m 8.9364594,8.1883656 c -0.04296,0.1340096 -0.119008,0.2510179 -0.3150223,0.2580184 -0.2920213,0 -0.3810276,-0.2430173 -0.3810276,-0.3730266 0,-0.3360241 0.2700196,-0.4170298 0.3770276,-0.4170298 0.123008,0 0.2960213,0.057044 0.2960213,0.2020144 0,0.050964 -0.032,0.1000071 -0.08401,0.1000071 -0.05096,0 -0.08901,-0.034002 -0.08901,-0.089006 0,-0.073045 0.06001,-0.083006 0.06001,-0.1030074 0,-0.050964 -0.119009,-0.072005 -0.160012,-0.072005 -0.181013,0 -0.2280163,0.1320094 -0.2280163,0.3790271 0,0.113008 0.028002,0.2000143 0.038963,0.2260161 0.02896,0.062004 0.08701,0.1020073 0.185013,0.1080077 0.110008,0.0048 0.2150146,-0.083006 0.2600176,-0.2190156 z" />
  <path
     inkscape:connector-curvature="0"
     id="path9290-3"
     style="fill:#948e5c;fill-opacity:1;fill-rule:nonzero;stroke:none;stroke-width:1.00007153"
     d="m 8.9364594,8.1883656 c -0.04296,0.1340096 -0.119009,0.2510179 -0.3150233,0.2580184 -0.2920206,0 -0.3810266,-0.2430173 -0.3810266,-0.3730266 0,-0.3360241 0.2700186,-0.4170298 0.3770266,-0.4170298 0.123009,0 0.2960213,0.057044 0.2960213,0.2020144 0,0.050964 -0.032,0.1000071 -0.08401,0.1000071 -0.05096,0 -0.08901,-0.034002 -0.08901,-0.089006 0,-0.073045 0.06,-0.083006 0.06,-0.1030074 0,-0.050964 -0.119008,-0.072005 -0.160011,-0.072005 -0.181013,0 -0.2280166,0.1320094 -0.2280166,0.3790271 0,0.113008 0.028,0.2000143 0.03896,0.2260161 0.02896,0.062004 0.08701,0.1020073 0.185014,0.1080077 0.110007,0.0048 0.2150149,-0.083006 0.2600179,-0.2190156 z" />
  <path
     inkscape:connector-curvature="0"
     id="path9310"
     style="fill:#948e5c;fill-opacity:1;fill-rule:nonzero;stroke:none;stroke-width:1.00007153"
     d="m 9.1680724,7.1699928 h -0.104008 v -0.042963 h 0.04 c 0.07001,0 0.14301,-0.004 0.211015,-0.017041 v 0.7500536 h 0.004 c 0.05304,-0.1190085 0.126009,-0.2000143 0.264019,-0.2000143 0.068,0 0.2240158,0.015041 0.2240158,0.1890135 v 0.5330381 h 0.102008 v 0.044003 H 9.5620974 v -0.044003 h 0.09801 V 7.873043 c 0,-0.1370098 -0.04304,-0.1580113 -0.119009,-0.1580113 -0.128009,0 -0.226016,0.1750125 -0.226016,0.3170227 v 0.350025 h 0.102007 v 0.044003 h -0.353025 v -0.044003 h 0.104008 z" />
  <path
     inkscape:connector-curvature="0"
     id="path9314"
     style="fill:#948e5c;fill-opacity:1;fill-rule:nonzero;stroke:none;stroke-width:1.00007153"
     d="m 10.970704,8.1485667 c 0.113009,-0.1410101 0.162012,-0.2830202 0.168012,-0.447032 h -0.168012 v -0.042963 h 0.371027 v 0.042963 H 11.18372 c -0.01304,0.1750125 -0.06201,0.3550254 -0.188014,0.4880349 l 0.116009,0.1930138 h 0.164011 v 0.043043 h -0.343024 l -0.064,-0.1070077 c -0.09201,0.081006 -0.245017,0.1350097 -0.366026,0.1350097 -0.296021,0 -0.396028,-0.2160154 -0.396028,-0.392028 0,-0.1150082 0.07801,-0.2810201 0.372026,-0.3980285 -0.04896,-0.084006 -0.108007,-0.1770126 -0.108007,-0.2770198 0,-0.1670119 0.14901,-0.2490178 0.296021,-0.2490178 0.136009,0 0.28302,0.082006 0.28302,0.2360169 0,0.070005 -0.034,0.1750125 -0.28602,0.2700193 z M 10.499671,7.7035349 v 0 c -0.114008,0.043043 -0.221016,0.1040074 -0.221016,0.2430174 0,0.155011 0.130009,0.4380313 0.304022,0.4380313 0.103007,0 0.179013,-0.044003 0.262018,-0.1060076 z m 0.315022,-0.3560255 v 0 c 0,-0.093007 -0.05104,-0.1660118 -0.14801,-0.1660118 -0.08401,0 -0.160012,0.055044 -0.160012,0.1490106 0,0.081006 0.08901,0.209015 0.13201,0.2770198 0.134009,-0.056964 0.176012,-0.1170083 0.176012,-0.2600186" />
  <path
     inkscape:connector-curvature="0"
     id="path9318"
     style="fill:#948e5c;fill-opacity:1;fill-rule:nonzero;stroke:none;stroke-width:1.00007153"
     d="m 12.051086,7.6790291 v 0.2110151 h -0.04096 c -0.02896,-0.1090078 -0.09301,-0.1860133 -0.206015,-0.1920137 -0.154011,-0.004 -0.177013,0.1150082 -0.177013,0.1380099 0,0.054004 0.01504,0.082006 0.303022,0.14101 0.14601,0.030002 0.196014,0.096007 0.196014,0.2150154 0,0.1620116 -0.122009,0.2580184 -0.271019,0.2580184 -0.07905,0 -0.162012,-0.032002 -0.217016,-0.092006 l -0.04104,0.068005 h -0.042 V 8.1770647 h 0.044 c 0.03504,0.1360097 0.12801,0.2350168 0.267019,0.2350168 0.08501,0 0.183014,-0.064005 0.183014,-0.1620116 0,-0.073045 -0.104008,-0.1070076 -0.260019,-0.1470105 -0.124009,-0.030002 -0.234017,-0.046963 -0.234017,-0.211015 0,-0.078966 0.04896,-0.2320166 0.255018,-0.2320166 0.058,0 0.117009,0.023042 0.175013,0.070005 l 0.034,-0.050964 z" />
  <path
     inkscape:connector-curvature="0"
     id="path9322"
     style="fill:#948e5c;fill-opacity:1;fill-rule:nonzero;stroke:none;stroke-width:1.00007153"
     d="m 12.235995,8.4256825 v -0.042963 h 0.14501 V 7.1696327 h -0.14501 v -0.042963 h 0.08101 c 0.07001,0 0.14301,-0.004 0.211015,-0.017041 v 1.273091 h 0.14501 v 0.042963 z" />
  <path
     inkscape:connector-curvature="0"
     id="path9326"
     style="fill:#948e5c;fill-opacity:1;fill-rule:nonzero;stroke:none;stroke-width:1.00007153"
     d="m 13.504982,8.0542559 c 0,0.2280163 -0.166012,0.3960284 -0.364026,0.3960284 -0.198015,0 -0.364026,-0.1680121 -0.364026,-0.3960284 0,-0.2280162 0.166011,-0.3940281 0.364026,-0.3940281 0.198014,0 0.364026,0.1660119 0.364026,0.3940281 m -0.55604,0 v 0 c 0,0.1580113 0.0016,0.3580256 0.192014,0.3580256 0.191013,0 0.192013,-0.2000143 0.192013,-0.3580256 0,-0.1570112 -8e-4,-0.3560254 -0.192013,-0.3560254 -0.190014,0 -0.192014,0.1990142 -0.192014,0.3560254" />
  <path
     inkscape:connector-curvature="0"
     id="path9330"
     style="fill:#948e5c;fill-opacity:1;fill-rule:nonzero;stroke:none;stroke-width:1.00007153"
     d="m 13.595492,7.7224322 v -0.042963 h 0.339024 v 0.042963 h -0.100007 l 0.183013,0.5410387 h 0.004 l 0.190014,-0.5410387 h -0.115008 v -0.042963 h 0.257018 v 0.042963 h -0.09101 l -0.260019,0.7280521 h -0.064 L 13.685498,7.7224322 Z" />
  <path
     inkscape:connector-curvature="0"
     id="path9334"
     style="fill:#948e5c;fill-opacity:1;fill-rule:nonzero;stroke:none;stroke-width:1.00007153"
     d="m 15.219008,8.2955772 c -0.0056,0.089006 -0.074,0.1550111 -0.160011,0.1550111 -0.07,0 -0.110008,-0.046003 -0.123009,-0.1150082 -0.064,0.078966 -0.158011,0.1150082 -0.254018,0.1150082 -0.119009,0 -0.221016,-0.046003 -0.221016,-0.1850132 0.0056,-0.1760126 0.185013,-0.2740196 0.473034,-0.2740196 V 7.8125427 c 0,-0.088006 -0.06904,-0.1150082 -0.13501,-0.1150082 -0.042,0 -0.176013,0.014001 -0.176013,0.068005 0,0.014961 0.05705,0.024962 0.05705,0.087006 0,0.046963 -0.03,0.078966 -0.07801,0.078966 -0.05,0 -0.07897,-0.038003 -0.07897,-0.090007 0,-0.068005 0.07801,-0.1810129 0.302022,-0.1810129 0.256018,0 0.256018,0.1090078 0.256018,0.1840132 v 0.4490321 c 0,0.057044 0,0.087006 0.04,0.087006 0.038,0 0.056,-0.052964 0.066,-0.085006 z m -0.28502,-0.2640189 v 0 c -0.122009,0.0016 -0.332024,0.023042 -0.332024,0.196014 0,0.093007 0.05904,0.1490107 0.14601,0.1490107 0.06001,0 0.09901,-0.014961 0.145011,-0.054964 0.01504,-0.015041 0.04104,-0.034962 0.04104,-0.1150083 z" />
  <path
     inkscape:connector-curvature="0"
     id="path9338"
     style="fill:#948e5c;fill-opacity:1;fill-rule:nonzero;stroke:none;stroke-width:1.00007153"
     d="m 15.292509,8.4256825 v -0.042963 h 0.09801 V 7.1696327 h -0.09801 v -0.042963 h 0.034 c 0.07001,0 0.14301,-0.004 0.211015,-0.017041 v 1.273091 h 0.113008 v 0.042963 z m 0.454033,-0.7030503 v 0 -0.044003 h 0.310022 v 0.044003 h -0.115008 l -0.261019,0.2260162 0.359026,0.434031 h 0.07897 v 0.042963 h -0.358025 v -0.042963 h 0.09401 L 15.539487,7.999652 15.85851,7.7276326 v -0.0048 z" />
</svg>
