<svg height="8.453629pt" viewBox="0 0 16.118533 8.4536286" width="16.118532pt" xmlns="http://www.w3.org/2000/svg"><g fill="#948e5c"><g transform="matrix(.01956226 0 0 .01956226 -3.595663 -4.13871)"><path d="m437.07915 352.56305v18.12076h-28.5196v8.54558h28.5196v129.52223h-28.5196v8.54558h87.36058v-8.54558h-29.96103v-129.52223h29.96103v-8.54558h-29.96103v-41.80129c0-37.0137 11.47991-58.48062 29.24031-58.48062 2.57398 0 8.85447.36035 8.85447 2.21361 0 4.78759-2.93433 5.14795-2.93433 9.2663 0 9.98701 5.14794 16.98821 15.13495 16.98821 6.33197 0 13.69352-4.78759 13.69352-12.20062 0-17.40005-16.62785-24.04089-31.04209-24.04089-35.57228 0-61.82678 26.61486-61.82678 89.93454"/><path d="m408.57499 517.2869v-8.4941h28.5196v-129.5737h-28.5196v-8.49411h28.5196v-18.17223c0-63.26821 26.25451-89.93455 61.77531-89.93455 14.46571 0 31.09357 6.64085 31.09357 24.04089 0 7.41304-7.41304 12.2521-13.69353 12.2521-9.98701 0-15.18643-7.05268-15.18643-17.03969 0-4.06687 2.98581-4.42723 2.98581-9.26629 0-1.85326-6.28049-2.21362-8.90594-2.21362-17.7604 0-29.18883 21.46692-29.18883 58.48062v41.85277h29.96102v8.49411h-29.96102v129.5737h29.96102v8.4941z"/><path d="m530.60696 374.40062c0 7.41304 5.97161 13.38465 13.38465 13.38465s13.38465-5.97161 13.38465-13.38465c0-7.41303-5.97161-13.38465-13.38465-13.38465s-13.38465 5.97162-13.38465 13.38465"/><path d="m530.60696 374.40062c0 7.41304 5.97161 13.38465 13.38465 13.38465s13.38465-5.97161 13.38465-13.38465c0-7.41303-5.97161-13.38465-13.38465-13.38465s-13.38465 5.97162-13.38465 13.38465"/></g><g stroke-width=".019562"><path d="m2.7269784.001 5.092055-.001 2.4499766 2.72717-.755494-.00078-2.0168685-2.19548-4.5284665.00098-2.1878426 2.19645 4.4629329 4.38136.9309677-.0000712-.9307721.8602512-5.2434669-5.2417z"/><path d="m9.5207525 2.99639-3.8619787 3.79137h.8547691l1.707762-1.70719 1.7063864.001-1.7379649 1.70619h.8547692l3.7926324-3.79137h-.785423l-1.673003 1.64242h-1.7154984l1.6429714-1.64242z"/><path d="m13.179219 2.99639-3.8619789 3.7914887.1872647-.0001187c.6195362.00058 1.2390972.003 1.8586342.003.299889-.002.602697.0117.89887-.0454.363858-.0651.706601-.22007 1.015098-.42078.303997-.19621.575129-.4378.835111-.68839.475363-.4603.938396-.94426 1.289733-1.50864.117765-.20579.245702-.4286.234747-.67372-.0025-.1205-.101932-.19954-.184485-.27231-.168234-.13968-.394178-.17607-.606038-.18409-.294299-.00083-.588581-.00037-.88288-.0002l.0013-.001h-.785164zm.869011.42797c.194595.00014.389198.00062.583744.00043.134393.005.279358.008.396537.0823.06612.0417.08372.12834.06416.20013-.03032.12149-.106221.22439-.177035.32533-.435065.61132-.972824 1.14361-1.552649 1.61721-.243942.19289-.520364.34155-.804995.4648-.195818.082-.398105.15649-.609964.18153-.401914.0304-.903765.0355-1.310767.0265l2.898003-2.89706c.170974-.001.341958-.001.512965-.001z"/></g><path d="m6.5319873 8.1918658c-.042963.1340096-.1190085.2510179-.3150225.2580184-.2920209 0-.3810272-.2430173-.3810272-.3730266 0-.3360241.2700193-.4170298.3770269-.4170298.1230088 0 .2960212.057044.2960212.2020144 0 .050964-.032002.1000071-.084006.1000071-.050964 0-.089006-.034002-.089006-.089006 0-.073045.060004-.083006.060004-.1030074 0-.050964-.1190085-.072005-.1600114-.072005-.181013 0-.2280163.1320094-.2280163.3790271 0 .113008.028002.2000143.038963.2260161.028962.062004.087006.1020073.1850133.1080077.1100078.0048.2150153-.083006.2600186-.2190156z"/><path d="m6.7055037 7.9241507v-.2450176h.5660405v.046963l-.4380313.6560473h.238017c.094007 0 .1320094-.094007.1600114-.2300165h.036003v.2740196h-.6090439v-.042003l.4410315-.6620473h-.168012c-.098007 0-.154011.015041-.1830131.2020144z"/><path d="m8.1160045 8.1918658c-.038003.1750125-.1660118.2580184-.3320237.2580184-.1920137 0-.377027-.154011-.377027-.364026 0-.2220159.1470106-.4260304.3710266-.4260304.1930138 0 .3380241.1300093.3400243.336024h-.5340382v.076966c0 .1870133.024962.3380241.2300164.3380241.1080078 0 .2340168-.095007.2600186-.2190156zm-.1700121-.251018v-.064005c0-.1360098-.078966-.1790128-.1730124-.1790128-.1130081 0-.1640117.1060076-.168012.1190085-.011041.034002-.017041.076966-.019041.1240088z"/><path d="m8.9364594 8.1883656c-.04296.1340096-.119008.2510179-.3150223.2580184-.2920213 0-.3810276-.2430173-.3810276-.3730266 0-.3360241.2700196-.4170298.3770276-.4170298.123008 0 .2960213.057044.2960213.2020144 0 .050964-.032.1000071-.08401.1000071-.05096 0-.08901-.034002-.08901-.089006 0-.073045.06001-.083006.06001-.1030074 0-.050964-.119009-.072005-.160012-.072005-.181013 0-.2280163.1320094-.2280163.3790271 0 .113008.028002.2000143.038963.2260161.02896.062004.08701.1020073.185013.1080077.110008.0048.2150146-.083006.2600176-.2190156z"/><path d="m8.9364594 8.1883656c-.04296.1340096-.119009.2510179-.3150233.2580184-.2920206 0-.3810266-.2430173-.3810266-.3730266 0-.3360241.2700186-.4170298.3770266-.4170298.123009 0 .2960213.057044.2960213.2020144 0 .050964-.032.1000071-.08401.1000071-.05096 0-.08901-.034002-.08901-.089006 0-.073045.06-.083006.06-.1030074 0-.050964-.119008-.072005-.160011-.072005-.181013 0-.2280166.1320094-.2280166.3790271 0 .113008.028.2000143.03896.2260161.02896.062004.08701.1020073.185014.1080077.110007.0048.2150149-.083006.2600179-.2190156z"/><path d="m9.1680724 7.1699928h-.104008v-.042963h.04c.07001 0 .14301-.004.211015-.017041v.7500536h.004c.05304-.1190085.126009-.2000143.264019-.2000143.068 0 .2240158.015041.2240158.1890135v.5330381h.102008v.044003h-.3470248v-.044003h.09801v-.5090367c0-.1370098-.04304-.1580113-.119009-.1580113-.128009 0-.226016.1750125-.226016.3170227v.350025h.102007v.044003h-.353025v-.044003h.104008z"/><path d="m10.970704 8.1485667c.113009-.1410101.162012-.2830202.168012-.447032h-.168012v-.042963h.371027v.042963h-.158011c-.01304.1750125-.06201.3550254-.188014.4880349l.116009.1930138h.164011v.043043h-.343024l-.064-.1070077c-.09201.081006-.245017.1350097-.366026.1350097-.296021 0-.396028-.2160154-.396028-.392028 0-.1150082.07801-.2810201.372026-.3980285-.04896-.084006-.108007-.1770126-.108007-.2770198 0-.1670119.14901-.2490178.296021-.2490178.136009 0 .28302.082006.28302.2360169 0 .070005-.034.1750125-.28602.2700193zm-.471033-.4450318c-.114008.043043-.221016.1040074-.221016.2430174 0 .155011.130009.4380313.304022.4380313.103007 0 .179013-.044003.262018-.1060076zm.315022-.3560255c0-.093007-.05104-.1660118-.14801-.1660118-.08401 0-.160012.055044-.160012.1490106 0 .081006.08901.209015.13201.2770198.134009-.056964.176012-.1170083.176012-.2600186"/><path d="m12.051086 7.6790291v.2110151h-.04096c-.02896-.1090078-.09301-.1860133-.206015-.1920137-.154011-.004-.177013.1150082-.177013.1380099 0 .054004.01504.082006.303022.14101.14601.030002.196014.096007.196014.2150154 0 .1620116-.122009.2580184-.271019.2580184-.07905 0-.162012-.032002-.217016-.092006l-.04104.068005h-.042v-.2490185h.044c.03504.1360097.12801.2350168.267019.2350168.08501 0 .183014-.064005.183014-.1620116 0-.073045-.104008-.1070076-.260019-.1470105-.124009-.030002-.234017-.046963-.234017-.211015 0-.078966.04896-.2320166.255018-.2320166.058 0 .117009.023042.175013.070005l.034-.050964z"/><path d="m12.235995 8.4256825v-.042963h.14501v-1.2130868h-.14501v-.042963h.08101c.07001 0 .14301-.004.211015-.017041v1.273091h.14501v.042963z"/><path d="m13.504982 8.0542559c0 .2280163-.166012.3960284-.364026.3960284-.198015 0-.364026-.1680121-.364026-.3960284 0-.2280162.166011-.3940281.364026-.3940281.198014 0 .364026.1660119.364026.3940281m-.55604 0c0 .1580113.0016.3580256.192014.3580256.191013 0 .192013-.2000143.192013-.3580256 0-.1570112-.0008-.3560254-.192013-.3560254-.190014 0-.192014.1990142-.192014.3560254"/><path d="m13.595492 7.7224322v-.042963h.339024v.042963h-.100007l.183013.5410387h.004l.190014-.5410387h-.115008v-.042963h.257018v.042963h-.09101l-.260019.7280521h-.064l-.253019-.7280521z"/><path d="m15.219008 8.2955772c-.0056.089006-.074.1550111-.160011.1550111-.07 0-.110008-.046003-.123009-.1150082-.064.078966-.158011.1150082-.254018.1150082-.119009 0-.221016-.046003-.221016-.1850132.0056-.1760126.185013-.2740196.473034-.2740196v-.1790128c0-.088006-.06904-.1150082-.13501-.1150082-.042 0-.176013.014001-.176013.068005 0 .014961.05705.024962.05705.087006 0 .046963-.03.078966-.07801.078966-.05 0-.07897-.038003-.07897-.090007 0-.068005.07801-.1810129.302022-.1810129.256018 0 .256018.1090078.256018.1840132v.4490321c0 .057044 0 .087006.04.087006.038 0 .056-.052964.066-.085006zm-.28502-.2640189c-.122009.0016-.332024.023042-.332024.196014 0 .093007.05904.1490107.14601.1490107.06001 0 .09901-.014961.145011-.054964.01504-.015041.04104-.034962.04104-.1150083z"/><path d="m15.292509 8.4256825v-.042963h.09801v-1.2130868h-.09801v-.042963h.034c.07001 0 .14301-.004.211015-.017041v1.273091h.113008v.042963zm.454033-.7030503v-.044003h.310022v.044003h-.115008l-.261019.2260162.359026.434031h.07897v.042963h-.358025v-.042963h.09401l-.315031-.3830274.319023-.2720194v-.0048z"/></g></svg>