<?xml version="1.0" encoding="UTF-8"?>
<svg id="svg13" width="600pt" height="205.6pt" version="1.1" viewBox="0 0 600 205.6" xmlns="http://www.w3.org/2000/svg" xmlns:cc="http://creativecommons.org/ns#" xmlns:dc="http://purl.org/dc/elements/1.1/" xmlns:rdf="http://www.w3.org/1999/02/22-rdf-syntax-ns#">
 <defs id="defs27">
  <clipPath id="clipPath2762">
   <path id="path2760" d="m0 0h595.28v841.89h-595.28z"/>
  </clipPath>
 </defs>
 <metadata id="metadata19">
  <rdf:RDF>
   <cc:Work rdf:about="">
    <dc:format>image/svg+xml</dc:format>
    <dc:type rdf:resource="http://purl.org/dc/dcmitype/StillImage"/>
    <dc:title/>
   </cc:Work>
  </rdf:RDF>
 </metadata>
 <g id="g2756" transform="matrix(17.621 0 0 -17.621 -9448.3 11119)" fill="#deaf35">
  <g id="g2758" clip-path="url(#clipPath2762)" fill="#deaf35">
   <g id="g2764" transform="translate(543.93 620.41)">
    <path id="path2766" d="m0 0c-2.218 2.219-4.43 4.431-6.643 6.645l0.021 0.023c1.039 1.04 2.079 2.079 3.12 3.117l0.13 0.049c2.235 2e-3 4.471 2e-3 6.707 3e-3l0.144-0.061c0.876-0.877 1.753-1.753 2.63-2.628 0.171-0.171 0.343-0.342 0.527-0.524-0.46-0.459-0.913-0.911-1.375-1.372l0.087-5e-3c0.301 0 0.602-2e-3 0.903 3e-3l0.135 0.057c0.422 0.417 0.841 0.837 1.26 1.257l0.061 0.064-0.057 0.062c-1.286 1.285-2.572 2.569-3.857 3.855l-0.146 0.057c-2.444-1e-3 -4.887-1e-3 -7.33 0l-0.152-0.063c-1.278-1.28-2.558-2.559-3.838-3.837l-0.065-0.043c2.59-2.591 5.162-5.165 7.72-7.725 1.287 1.288 2.581 2.582 3.875 3.877h-0.076c-0.295 0-0.59-2e-3 -0.885 1e-3l-0.146-0.059c-0.474-0.477-0.95-0.952-1.425-1.427-0.444-0.444-0.888-0.889-1.325-1.326" fill="#deaf35"/>
   </g>
   <g id="g2768" transform="translate(543.49 626.28)">
    <path id="path2770" d="m0 0v-3.691h-0.799v-0.239h2.48v0.245h-0.844v3.688h0.846v0.245h-0.868c0.017 0.583 0.022 1.153 0.053 1.721 0.016 0.286 0.097 0.564 0.258 0.81 0.16 0.246 0.381 0.364 0.678 0.313 0.122-0.02 0.145-0.057 0.082-0.163-0.099-0.167-0.057-0.323 0.035-0.47 0.094-0.151 0.304-0.207 0.484-0.143 0.177 0.063 0.268 0.203 0.249 0.395-0.025 0.268-0.184 0.434-0.423 0.531-0.559 0.227-1.288 0.022-1.685-0.472-0.294-0.364-0.436-0.794-0.484-1.249-0.042-0.386-0.039-0.775-0.056-1.163v-0.113h-0.806v-0.245z" fill="#deaf35"/>
   </g>
   <g id="g2772" transform="translate(553.24 623.75)">
    <path id="path2774" d="m0 0c0 0.233-4e-3 0.452 1e-3 0.671 4e-3 0.139 0.047 0.27 0.134 0.382l0.09 0.095c0.095 0.074 0.203 0.108 0.319 0.055 0.105-0.049 0.11-0.152 0.111-0.249 2e-3 -0.295 1e-3 -0.59 1e-3 -0.885l-6e-3 -0.068h-0.194v-0.089h0.665l-7e-3 0.091h-0.177c0 0.176 1e-3 0.345-1e-3 0.514-2e-3 0.172 1e-3 0.345-0.012 0.516-0.011 0.146-0.102 0.239-0.24 0.281-0.23 0.071-0.469-0.017-0.607-0.219l-0.068-0.106-0.016 5e-3v1.32c-0.159-0.013-0.309-0.025-0.466-0.037l8e-3 -0.089h0.176v-2.19h-0.181v-0.081h0.654v0.083z" fill="#deaf35"/>
   </g>
   <g id="g2776" transform="translate(558.22 625.94)">
    <path id="path2778" d="m0 0v-2.192h-0.253v-0.08h0.822v0.082h-0.272v2.313c-0.192-0.013-0.374-0.025-0.561-0.037l7e-3 -0.086z" fill="#deaf35"/>
   </g>
   <g id="g2780" transform="translate(549.58 624.96)">
    <path id="path2782" d="m0 0-0.065-0.101c-0.241-0.358-0.483-0.716-0.723-1.075l-0.048-0.116h1.152v0.499l-0.083-0.061c-0.044-0.163-0.104-0.323-0.299-0.347-0.137-0.016-0.277-3e-3 -0.425-3e-3l0.051 0.079c0.246 0.352 0.492 0.704 0.736 1.057l0.056 0.133h-1.075v-0.445h0.066l0.049 0.18c0.04 0.125 0.125 0.195 0.258 0.199 0.11 4e-3 0.221 1e-3 0.35 1e-3" fill="#deaf35"/>
   </g>
   <g id="g2784" transform="translate(557.64 624.98)">
    <path id="path2786" d="m0 0c-0.125 0.106-0.272 0.119-0.423 0.105-0.198-0.019-0.357-0.176-0.38-0.366-0.029-0.229 0.055-0.361 0.281-0.439l0.185-0.051c0.109-0.03 0.223-0.049 0.328-0.091 0.153-0.06 0.182-0.201 0.066-0.321l-0.161-0.095c-0.259-0.069-0.494 0.064-0.593 0.334l-0.105 0.059v-0.444l0.021-0.019 0.138 0.113c0.161-0.149 0.356-0.181 0.567-0.13 0.213 0.052 0.34 0.221 0.343 0.45 2e-3 0.213-0.101 0.342-0.324 0.406l-0.077 0.018c-0.14 0.038-0.285 0.065-0.419 0.119-0.129 0.051-0.149 0.174-0.054 0.277l0.153 0.094c0.229 0.064 0.412-0.045 0.486-0.29l0.088-0.053v0.418z" fill="#deaf35"/>
   </g>
   <g id="g2788" transform="translate(548.7 624.09)">
    <path id="path2790" d="m0 0-0.11-0.053-0.152-0.209c-0.272-0.23-0.634-0.12-0.688 0.22-0.032 0.198-0.029 0.409 0 0.608 0.043 0.291 0.222 0.397 0.513 0.336l0.159-0.092-0.061-0.12-1e-3 -0.198 0.188-0.056 0.118 0.156c6e-3 0.134-0.06 0.229-0.165 0.3-0.155 0.104-0.33 0.119-0.506 0.09-0.404-0.068-0.651-0.415-0.605-0.839 0.038-0.345 0.32-0.629 0.737-0.609 0.286 0.013 0.505 0.182 0.573 0.466" fill="#deaf35"/>
   </g>
   <g id="g2792" transform="translate(552.65 624.1)">
    <path id="path2794" d="m0 0c-0.071-0.096-0.121-0.193-0.197-0.261-0.268-0.238-0.639-0.129-0.694 0.214-0.032 0.198-0.03 0.409-1e-3 0.608 0.043 0.291 0.221 0.394 0.513 0.339 0.167-0.032 0.188-0.077 0.1-0.215l-3e-3 -0.197 0.187-0.057 0.119 0.156c7e-3 0.133-0.057 0.23-0.164 0.299-0.185 0.12-0.387 0.126-0.591 0.073-0.377-0.1-0.59-0.482-0.506-0.897 0.072-0.356 0.409-0.581 0.791-0.528 0.264 0.036 0.472 0.229 0.499 0.466z" fill="#deaf35"/>
   </g>
   <g id="g2796" transform="translate(560.17 624.95)">
    <path id="path2798" d="m0 0 0.049-3e-3c0.095 0.022 0.129-0.03 0.158-0.112 0.131-0.376 0.269-0.751 0.405-1.126l0.089-0.097 0.097 0.098c0.141 0.364 0.284 0.728 0.417 1.095 0.038 0.104 0.082 0.166 0.2 0.144l0.02 0.01-4e-3 0.071h-0.492l6e-3 -0.085h0.224c-0.122-0.316-0.239-0.62-0.366-0.948-0.122 0.332-0.233 0.636-0.349 0.953h0.193l-8e-3 0.081h-0.639z" fill="#deaf35"/>
   </g>
   <g id="g2800" transform="translate(546.93 626.42)">
    <path id="path2802" d="m0 0c0 0.213-0.172 0.384-0.385 0.383-0.208-1e-3 -0.38-0.172-0.383-0.379-2e-3 -0.209 0.173-0.387 0.383-0.389 0.21-1e-3 0.385 0.174 0.385 0.385" fill="#deaf35"/>
   </g>
   <g id="g2804" transform="translate(563.49 624.45)">
    <path id="path2806" d="m0 0c0.193-0.23 0.381-0.455 0.583-0.697h-0.189l8e-3 -0.081h0.685l-6e-3 0.088c-0.117-0.034-0.176 0.032-0.238 0.107-0.165 0.198-0.336 0.389-0.504 0.584l-0.078 0.094c0.108 0.09 0.214 0.168 0.31 0.257 0.109 0.101 0.224 0.173 0.38 0.147l0.02 0.01-3e-3 0.069h-0.595l0.011-0.086h0.222c-0.21-0.171-0.405-0.328-0.606-0.492" fill="#deaf35"/>
   </g>
   <g id="g2808" transform="translate(559.5 625.08)">
    <path id="path2810" d="m0 0c-0.402 0-0.698-0.308-0.698-0.728s0.286-0.726 0.677-0.727c0.399-1e-3 0.708 0.32 0.707 0.734s-0.294 0.721-0.686 0.721m0.301-1.143c-0.035-0.166-0.151-0.245-0.318-0.241-0.17 3e-3 -0.276 0.085-0.309 0.253-0.052 0.266-0.054 0.535 0 0.801 0.036 0.175 0.148 0.26 0.323 0.259 0.176 0 0.278-0.076 0.313-0.256 0.025-0.131 0.029-0.266 0.044-0.411-0.016-0.129-0.024-0.27-0.053-0.405" fill="#deaf35"/>
   </g>
   <g id="g2812" transform="translate(551.21 624.04)">
    <path id="path2814" d="m0 0c-0.088-0.219-0.281-0.34-0.517-0.324-0.146 0.01-0.269 0.06-0.323 0.21-0.062 0.173-0.064 0.352-0.059 0.54h1.009c-0.044 0.525-0.521 0.782-0.966 0.534-0.31-0.173-0.464-0.569-0.347-0.907 0.18-0.519 0.773-0.559 1.077-0.36 0.128 0.083 0.196 0.209 0.226 0.357zm-0.724 0.912c0.117 0.08 0.252 0.088 0.372 0.014 0.143-0.088 0.128-0.241 0.138-0.39h-0.67c5e-3 0.15 0.032 0.289 0.16 0.376" fill="#deaf35"/>
   </g>
   <g id="g2816" transform="translate(556.38 623.75)">
    <path id="path2818" d="m0 0-0.071 0.033c-0.074 0.115-0.143 0.232-0.215 0.351 0.247 0.249 0.332 0.559 0.359 0.897h0.293l-6e-3 0.081h-0.689v-0.085h0.3c0.012-0.28-0.131-0.651-0.311-0.803-0.189 0.305-0.378 0.609-0.569 0.917l0.062 0.028c0.115 0.066 0.245 0.117 0.343 0.203 0.211 0.186 0.172 0.485-0.07 0.627l-0.187 0.069c-0.237 0.039-0.462 0.01-0.615-0.198-0.147-0.201-0.095-0.408 0.019-0.608l0.08-0.141c-0.121-0.067-0.245-0.121-0.353-0.198-0.271-0.191-0.386-0.499-0.312-0.797 0.084-0.339 0.412-0.574 0.861-0.509 0.204 0.03 0.376 0.135 0.546 0.252l0.095-0.162 0.056-0.044c0.207-3e-3 0.413-2e-3 0.626-2e-3l-8e-3 0.087zm-1.136 2.158c0.081 0.085 0.22 0.11 0.341 0.059 0.12-0.051 0.161-0.15 0.162-0.274 2e-3 -0.259-0.106-0.416-0.334-0.472-0.069 0.118-0.147 0.235-0.205 0.361-0.052 0.109-0.057 0.227 0.036 0.326m-0.294-1.92c-0.104 0.148-0.183 0.306-0.205 0.486-0.03 0.248 0.056 0.392 0.284 0.494l0.126 0.049c0.214-0.352 0.425-0.701 0.636-1.049-0.277-0.258-0.63-0.28-0.841 0.02" fill="#deaf35"/>
   </g>
   <g id="g2820" transform="translate(563.48 623.75)">
    <path id="path2822" d="m0 0v2.318c-0.162-0.012-0.313-0.024-0.467-0.036v-0.091h0.181v-2.184h-0.173l0.028 0.128-0.02 0.014-0.056-0.046-0.123-0.075-0.056 0.127c-1e-3 0.275 1e-3 0.55-2e-3 0.824-1e-3 0.121-0.023 0.248-0.148 0.295-0.269 0.102-0.537 0.097-0.787-0.065-0.086-0.057-0.135-0.145-0.11-0.249l0.101-0.126 0.163 0.048 1e-3 0.179-0.071 0.085c0.101 0.13 0.404 0.161 0.514 0.053l0.05-0.099c6e-3 -0.124 2e-3 -0.248 2e-3 -0.372-0.096-9e-3 -0.186-0.014-0.275-0.027-0.172-0.025-0.337-0.074-0.472-0.191-0.128-0.111-0.179-0.291-0.125-0.436 0.05-0.134 0.18-0.208 0.36-0.213 0.203-4e-3 0.376 0.061 0.515 0.212 0.107-0.244 0.248-0.277 0.476-0.115 0.031-0.044 0.031-0.044 0.333-0.044h0.364v0.086zm-0.97 0.278c-6e-3 -0.119-0.073-0.201-0.183-0.243-0.117-0.044-0.236-0.056-0.341 0.027-0.147 0.116-0.118 0.365 0.053 0.469 0.142 0.086 0.301 0.096 0.472 0.101 0-0.127 4e-3 -0.241-1e-3 -0.354" fill="#deaf35"/>
   </g>
   <g id="g2824" transform="translate(565.79 624.97)">
    <path id="path2826" d="m0 0h1.14v0.702c0 0.125-8e-3 0.208-0.024 0.248l-0.076 0.078-0.164 0.043h-0.087v0.067h1.049v-0.067h-0.087l-0.164-0.042-0.079-0.087c-0.014-0.039-0.021-0.119-0.021-0.24v-1.583c0-0.124 8e-3 -0.206 0.024-0.246l0.074-0.078 0.166-0.043h0.087v-0.067h-1.049v0.067h0.087c0.1 0 0.173 0.029 0.219 0.088 0.03 0.039 0.045 0.132 0.045 0.279v0.747h-1.14v-0.747c0-0.124 8e-3 -0.206 0.024-0.246l0.076-0.078 0.164-0.043h0.089v-0.067h-1.051v0.067h0.086c0.102 0 0.175 0.029 0.221 0.088 0.029 0.039 0.044 0.132 0.044 0.279v1.583c0 0.125-8e-3 0.208-0.024 0.248l-0.074 0.078-0.167 0.043h-0.086v0.067h1.051v-0.067h-0.089l-0.164-0.042-0.078-0.087c-0.015-0.039-0.022-0.119-0.022-0.24z" fill="#deaf35"/>
   </g>
   <g id="g2828" transform="translate(567.77 623.65)">
    <path id="path2830" d="m0 0v0.067h0.092c0.104 0 0.178 0.033 0.221 0.099 0.027 0.04 0.04 0.13 0.04 0.268v1.585c0 0.153-0.017 0.249-0.051 0.288-0.047 0.053-0.117 0.079-0.21 0.079h-0.092v0.067h0.999c0.366 0 0.645-0.041 0.837-0.124 0.191-0.084 0.344-0.222 0.461-0.417 0.116-0.194 0.174-0.418 0.174-0.673 0-0.341-0.103-0.626-0.311-0.855-0.233-0.256-0.587-0.384-1.064-0.384zm0.7 0.177c0.153-0.033 0.282-0.05 0.386-0.05 0.279 0 0.512 0.098 0.696 0.295 0.185 0.196 0.277 0.463 0.277 0.799 0 0.339-0.092 0.606-0.277 0.802-0.184 0.195-0.421 0.293-0.711 0.293-0.108 0-0.232-0.018-0.371-0.053z" fill="#deaf35"/>
   </g>
  </g>
 </g>
</svg>
