<svg height="600" viewBox="0 0 158.75 158.75" width="600" xmlns="http://www.w3.org/2000/svg"><path d="m83.02.0015501c-.59-.0049999-1.19.0099999-1.79.007-27.08.0029999-54.15 0-81.23 0v158.74h85.29c-.88-.59999-1.94-.79998-2.98-.97998-8.9-2.34-17.39-6.54-24.24-12.73-1.01-1.02-2.03-2.04-3.05-3.0499-1.31-1.42-2.42-3.01-3.59-4.5399-5.07-7.34-7.85-16.28-7.55-25.2 13.85-.01 27.7 0 41.55 0 .11 2.34.53 4.7099 1.55 6.84 3.38 6.05 10.92 8.8299 17.59 7.9199 4.01-.55999 8-2.22 10.78-5.2299 1.9-2.15 2.9-4.97 3.13-7.7999.08-2.68.15-5.51-1.14-7.9399-1.02-2.42-2.64-4.5499-4.67-6.2-.71-.48-1.48-.84999-2.19-1.33-.13-.02-.39-.06-.52-.08-.12-.13-.36-.39999-.48-.54.31-1.15.2-2.34.21-3.5099v-23.33c-.01-3.3099.05-6.62-.09-9.9299-.05-.1-.16-.29999-.22-.40999.06-.12.17-.37999.22-.50999 1.27-.29999 2.32-1.1 3.41-1.77 2.94-2.6899 5.16-6.398 5.47-10.422.01-1.518.12-3.0539-.15-4.5589-.38-3.5289-2.41-6.83-5.35-8.8199-1.05-.625-2.06-1.351-3.21-1.806-2.1-.702-4.25-1.526-6.51-1.426-1.49.061-3-.129-4.48.165-3.94.673-7.72 2.567-10.35 5.608-1.3 1.696-2.31 3.6579-2.65 5.786-.15 1.11-.31 2.223-.35 3.3429-13.85-.005-27.7 0-41.55-.002-.08-2.626.03-5.2479.49-7.834.4-1.507.55-3.0649.96-4.5699.81-2.4 1.57-4.8239 2.71-7.095.73-1.221 1.26-2.551 2.07-3.7249 1.27-1.825 2.39-3.7669 3.91-5.405 1.25-1.324 2.27-2.8739 3.76-3.9569 5.8-5.4301 12.97-9.2831 20.48-11.815 1.79-.546 3.56-1.113 5.37-1.587.39-.061.78-.127 1.18-.199-.59-.080001-1.19-.105-1.79-.11zm-7.5 60.28c1.47.03 2.93.49999 4.23 1.21.61.59 1.31 1.15 1.67 1.95.45.86999.57 1.85.83 2.7799.23 1.29.66 2.54.79 3.8499.12.39999.21.81999.32 1.23.08.32999.16.67.26 1.01.17 1.28.46 2.52.85 3.7499.29 2.48 1.07 4.8599 1.52 7.31.09.31.18.62.27.93999.13.48999.12 1.01.14 1.52l.37-.01c.06-.22.18-.66.25-.87999.67-2.7899 1.24-5.6 2.06-8.3399.02-.2.05-.59.06-.77999 1.08-3.8899 1.84-7.85 2.95-11.74.66-1.74 2.18-3.0999 4.02-3.4999 1.19-.2 2.45-.48999 3.63-.1 1.07-.07 1.91.64 2.85 1.02 1.08.89999 2.02 1.99 2.4 3.3899.15.63.39 1.26.38 1.92 0 10.18-.02 20.35.01 30.529-.84.37999-1.77.2-2.66.24-1.12-.05-2.27.14-3.36-.18-.08.05-.23.15-.31.21-.36-.15-1.15.17-1.17-.36999.11-8.3699.02-16.74.05-25.11-.11-.1-.34-.3-.45-.39999-.02.24-.04.72-.06.95999-.12.35999-.18.73-.23 1.1-.21.67-.4 1.34-.56 2.02-.44 1.94-1.05 3.8399-1.47 5.78-.34 1.12-.56 2.28-.94 3.3899-.52 2.08-1.04 4.1699-1.56 6.25-.12.42-.23.84-.35 1.26-.25 1.38-.85 2.63-1.47 3.8799-.58.65-1.22 1.27-2.06 1.57-.98.48-2.1.25-3.15.29-1.75-.51-3.05-1.98-3.63-3.67-.69-2.03-1-4.16-1.69-6.1901-.02-.15-.05-.46-.07-.61001-.55-2.03-1.03-4.08-1.61-6.1101-.7-3.1099-1.71-6.16-2.23-9.2999-.1-.1-.32-.3-.42-.39999-.01 8.4699-.01 16.94 0 25.42-.67.25-1.39.24-2.08.09-1.65.22-3.32.07-4.97.12-.1-.08-.3-.26-.4-.34999v-31.219c-.01-.89999.49-1.7.88-2.48.85-1.77 2.75-2.8199 4.64-3.1199.49-.09.98-.13 1.47-.13zm-26.82.47h.42c5.29.04 10.58-.04 15.87.04.08.06.26.18.34.23.08 2.54.01 5.0799.03 7.62-4.83 0-9.67.01-14.5 0-.44.26-.87.52-1.31.77999-.73 1.73-.43 3.6199-.5 5.44l.37.36999c5.31-.06 10.63.09 15.94-.08-.02 2.53.05 5.0599-.03 7.59-.36.78-1.27.05-1.89.14-4.72-.03-9.44.01-14.16-.02-.14.36999-.25.76-.23 1.16.03 1.47-.16 2.9899.41 4.3799.23.73 1.06 1.11 1.78 1.03 4.59-.01 9.17.01 13.75-.01.1.09.29.27.38.36999-.01 2.52-.01 5.0499 0 7.58-.45.12-.91.22-1.38.21-4.26-.01-8.52-.01-12.77 0-.55.01-1.09-.07-1.62-.18-.89-.17-1.83.07-2.71-.23-.35-.12-.72-.24-1.08-.34999-2.56-.73-4.34-3.2699-4.43-5.89.02-7.86.01-15.73 0-23.6.06-.79.34-1.54.63-2.27.37-1.43 1.58-2.38 2.62-3.3299.43-.13.85-.28999 1.26-.45999.93-.19 1.86-.49 2.81-.52zm-26.39.01h16.58v7.88h-13.4c-.76-.04-1.45.34999-2.09.72-.18.35999-.38.73-.58 1.09.09 1.59-.26 3.2499.24 4.7899 5.27-.03 10.55-.01 15.83-.01 0 2.53-.02 5.0599.01 7.59-.71.46-1.5-.01-2.26.05h-13.64c-.09.37999-.19.76999-.19 1.17-.01 4.0599.03 8.1299.01 12.19 0 .44999-.02.89999-.19 1.31-.42-.04-.83-.08-1.24-.11-2 .35999-4.05.01-6.06.11-.1-.08-.31-.23-.41-.3.02-9.6999 0-19.4.01-29.089.21-1.68.3-3.5099 1.4-4.8899.77-1.38 2.35-1.92 3.81-2.22.72-.07 1.43-.28999 2.17-.28z" fill="#cd3a95" stroke-width=".2652"/><path d="m157.9 61.992c.15-.55.5-1.01.85-1.46v36.119c-.84-1.02-1.33-2.26-2.05-3.3599-1.45-2.22-3.03-4.3999-4.97-6.23-2.93-3.0599-6.53-5.3599-10.05-7.69 2.35-1.52 4.69-3.0499 6.89-4.7799 1.58-1.1 2.81-2.61 4.21-3.9299 2.15-2.59 4.04-5.4599 5.12-8.6699z" fill="#cd3a95" stroke-width=".2652"/></svg>