<svg height="43.001mm" viewBox="0 0 212.63922 43.001202" width="212.64mm" xmlns="http://www.w3.org/2000/svg"><g fill="#fff" transform="translate(54.415 -65.635)"><path d="m13.199 75.669c-.57381.0148-1.1624.0572-1.7611.12401-6.2202.69448-10.489 4.4069-12.51 10.881-.50382 1.6142-.6216 2.6014-.63665 5.2917-.0212 3.7846.36488 5.5499 1.9017 8.7313 1.7229 3.5664 4.9156 6.1727 9.0785 7.4001 3.5734 1.0535 8.6264.52305 11.807-1.2402 1.4278-.79155 3.0538-2.0092 4.1606-3.6571 1.1067-1.6479 1.8123-3.4191 1.7299-3.5696-.27927-.25493-2.4052-1.566-3.3686-2.009-1.0582-.48739-2.0346-.89297-2.1663-.89297s-.59562.6251-1.0335 1.3891c-1.1224 1.9581-2.3164 3.0184-4.1176 3.638-1.8769.64577-2.6201.66453-4.7377.11578-1.7719-.45915-3.3179-1.4565-4.2747-2.7533-.90299-1.2239-1.8583-3.8618-1.6596-4.6538l.0236-.74059 10.903-.0236c9.6948-.0209 11.158.11142 11.381-.19471.24693-.11334.16325-.98316.0552-3.2425-.44238-9.2494-6.1682-14.815-14.775-14.593zm.40514 6.4575c1.3072-.003 2.6228.22418 3.5305.68625 1.847.94017 3.4975 3.0588 3.4975 4.4896l.0945.85989-7.5217-.0236-7.0965-.0235.23623-.98627c.341-1.4236 1.3975-3.0641 3.7621-4.2995.89258-.46633 2.1903-.69969 3.4975-.70279z" stroke-width=".26458"/><path d="m41.939 108.34c-5.2815-.76809-8.541-2.4674-10.556-5.5032-1.8112-2.7287-1.5592-3.401 1.8248-4.8677 2.54-1.101 2.5018-1.1013 3.1473.0265 1.0517 1.8373 1.934 2.718 3.6341 3.6276 1.5446.82629 1.8728.90077 3.9342.89246 1.8214-.007 2.463-.12345 3.375-.61082 2.1444-1.1459 2.848-3.0983 1.6027-4.447-.60108-.651-1.9552-1.5003-4.2268-2.1967s-2.4262-.79874-3.7937-1.1733c-2.4702-.67019-5.0007-1.8063-6.35-2.8277s-1.5972-.9236-2.6252-3.132-.77232-5.9326 1.2572-8.5534c.99412-1.2838 2.4219-2.1857 4.7446-2.9972 1.5719-.5492 2.3038-.63826 5.1801-.63021 3.5657.0101 5.5936.46244 8.2149 1.8331 2.1658 1.1325 4.8348 4.4034 4.4376 5.4384-.0727.18942-.70731.61087-1.4102.93652-.70295.32565-1.9165.90292-2.6968 1.2828l-1.4187.69072-.56565-.68728c-.3111-.37801-.87472-1.0889-1.2525-1.5796-1.1334-1.4725-2.8602-2.164-5.3747-2.1525-2.3856.0109-3.127.22649-4.191 1.2182-.53673.50028-.7276.93123-.7276 1.643 0 1.6758 1.3877 2.5664 6.35 4.0751 7.8298 2.3805 10.359 4.0666 11.44 7.6272.59569 1.9622.58322 2.9169-.0666 5.0987-.94689 3.1795-3.6146 5.4508-7.5796 6.4534-1.8609.47051-4.9045.71911-6.307.51515z" stroke-width=".26458"/><g><path d="m151.71 68.294h6.5147v40.096h-6.5147z"/><path d="m-44.634 67.37c-5.4014 0-9.7813 4.3799-9.7813 9.7813s4.3799 9.7813 9.7813 9.7813 9.7813-4.3799 9.7813-9.7813-4.3799-9.7813-9.7813-9.7813zm0 3.1171c3.6792 0 6.6642 2.985 6.6642 6.6642s-2.985 6.6642-6.6642 6.6642-6.6642-2.985-6.6642-6.6642 2.985-6.6642 6.6642-6.6642z"/><path d="m-44.634 89.058c-5.4014 0-9.7813 4.3799-9.7813 9.7813s4.3799 9.7813 9.7813 9.7813 9.7813-4.3799 9.7813-9.7813-4.3799-9.7813-9.7813-9.7813zm0 3.1171c3.6792 0 6.6642 2.985 6.6642 6.6642s-2.985 6.6642-6.6642 6.6642-6.6642-2.985-6.6642-6.6642 2.985-6.6642 6.6642-6.6642z"/><path d="m-30.385 68.234v40.156h7.183v-16.633h18.174v-6.8908h-18.174v-9.7418h20.312v-6.8908h-20.312z"/><path d="m79.361 76.264h7.4434v32.125h-7.4434z"/><path d="m79.361 65.635h7.4434v7.9615h-7.4434z"/><path d="m88.472 76.265 12.311 32.125 7.1438-.0168 12.262-32.109h-7.3918l-8.4915 23.024-.22324.008-8.0119-23.032h-7.5985z"/><path d="m264.51 253.37-26.617 22.753v11.757l-17.534.00001v22.857l17.534-.00002-.007 64.628c.0002 19.875 14.776 35.102 34.093 35.102 7.0714-.0144 13.883-3.9301 19.704-8.0617l-2.8412-22.721c-5.5966 5.7383-17.602 7.2831-22.188 1.7983-1.6161-2.2627-2.1375-5.3973-2.1554-9.094 0 0 .012-37.51.006-37.51h.006v-24.143h22.635v-22.857h-22.635z" transform="scale(.26458)"/><path d="m133.35 76.264c-6.2536.0043-9.9209 3.2983-12.696 7.8174l4.8563 3.6805c1.8186-2.5184 4.1838-4.4725 7.6696-4.9334 4.2111.05786 5.7692 2.3009 5.9716 4.9259-3.605.41794-9.4427.76845-14.878 3.4179-5.4357 2.6494-6.5832 9.0364-3.6352 13.403 2.9481 4.3663 10.57 5.3425 16.399 1.9527 1.5063-1.0922 1.9532-1.1192 2.9384-2.1977l.0459 4.1246 6.7896-.065c-.37175-3.1854-.43242-4.9458-.46413-6.4051-.0317-1.4593-.0913-16.188-.0892-16.247-.003-.04186-.005-.08371-.009-.12554v-.181h-.0121c-.22509-5.1058-5.9259-9.161-12.886-9.1666zm6.0418 17.492s.37746 2.8034-.62965 4.4022c-1.0071 1.5988-2.8224 2.6912-5.0393 3.6707-2.459 1.0865-6.4501.63024-7.2973-1.5874-.84721-2.2176.82828-4.786 3.7395-5.3347 2.1523-.97545 9.2268-1.1508 9.2268-1.1508z"/></g></g></svg>