<?xml version="1.0" encoding="UTF-8" standalone="no"?>
<!-- Created with Inkscape (http://www.inkscape.org/) -->

<svg
   xmlns:dc="http://purl.org/dc/elements/1.1/"
   xmlns:cc="http://creativecommons.org/ns#"
   xmlns:rdf="http://www.w3.org/1999/02/22-rdf-syntax-ns#"
   xmlns:svg="http://www.w3.org/2000/svg"
   xmlns="http://www.w3.org/2000/svg"
   xmlns:sodipodi="http://sodipodi.sourceforge.net/DTD/sodipodi-0.dtd"
   xmlns:inkscape="http://www.inkscape.org/namespaces/inkscape"
   width="6.3873572mm"
   height="2.7573111mm"
   viewBox="0 0 6.3873573 2.7573111"
   version="1.1"
   id="svg60673"
   inkscape:version="0.92.0 r15299"
   sodipodi:docname="FightBox HD - Dark.svg">
  <defs
     id="defs60667">
    <clipPath
       clipPathUnits="userSpaceOnUse"
       id="clipPath31910">
      <path
         d="m 80.539,62.456 h 18.106 v 8.6 H 80.539 Z"
         id="path31908"
         inkscape:connector-curvature="0" />
    </clipPath>
    <clipPath
       clipPathUnits="userSpaceOnUse"
       id="clipPath49018">
      <path
         d="m 80.539,46.298 h 18.106 v 8.601 H 80.539 Z"
         id="path49016"
         inkscape:connector-curvature="0" />
    </clipPath>
    <clipPath
       clipPathUnits="userSpaceOnUse"
       id="clipPath25906">
      <path
         d="m 153.106,127.085 h 18.106 v 8.601 h -18.106 z"
         id="path25904"
         inkscape:connector-curvature="0" />
    </clipPath>
    <clipPath
       clipPathUnits="userSpaceOnUse"
       id="clipPath27752">
      <path
         d="m 153.106,110.929 h 18.106 v 8.6 h -18.106 z"
         id="path27750"
         inkscape:connector-curvature="0" />
    </clipPath>
  </defs>
  <sodipodi:namedview
     id="base"
     pagecolor="#ffffff"
     bordercolor="#666666"
     borderopacity="1.0"
     inkscape:pageopacity="0.0"
     inkscape:pageshadow="2"
     inkscape:zoom="31.678384"
     inkscape:cx="17.034985"
     inkscape:cy="4.2884608"
     inkscape:document-units="mm"
     inkscape:current-layer="layer1"
     showgrid="false"
     fit-margin-top="0"
     fit-margin-left="0"
     fit-margin-right="0"
     fit-margin-bottom="0"
     inkscape:window-width="1920"
     inkscape:window-height="1017"
     inkscape:window-x="-8"
     inkscape:window-y="-8"
     inkscape:window-maximized="1" />
  <metadata
     id="metadata60670">
    <rdf:RDF>
      <cc:Work
         rdf:about="">
        <dc:format>image/svg+xml</dc:format>
        <dc:type
           rdf:resource="http://purl.org/dc/dcmitype/StillImage" />
        <dc:title></dc:title>
      </cc:Work>
    </rdf:RDF>
  </metadata>
  <g
     inkscape:label="Layer 1"
     inkscape:groupmode="layer"
     id="layer1"
     transform="translate(-68.019131,-133.2234)">
    <g
       id="g27738"
       transform="matrix(0.35277777,0,0,-0.35277777,71.657644,133.2234)">
      <path
         d="M 0,0 V -6.928 L 7.792,-7.816 6.928,0 Z"
         style="fill:#004494;fill-opacity:1;fill-rule:nonzero;stroke:none"
         id="path27740"
         inkscape:connector-curvature="0" />
    </g>
    <g
       id="g27742"
       transform="matrix(0.35277777,0,0,-0.35277777,73.65405,134.56106)">
      <path
         d="m 0,0 -0.461,-0.815 h -0.508 l 0.742,1.169 -0.721,1.135 h 0.507 L 0,0.688 0.448,1.489 H 0.955 L 0.241,0.354 0.975,-0.815 H 0.467 Z"
         style="fill:#ffffff;fill-opacity:1;fill-rule:evenodd;stroke:none"
         id="path27744"
         inkscape:connector-curvature="0" />
    </g>
    <g
       transform="matrix(0.35277777,0,0,-0.35277777,14.006632,175.25215)"
       id="g27746">
      <g
         id="g27748"
         clip-path="url(#clipPath27752)">
        <g
           id="g27754"
           transform="translate(164.8411,115.5419)">
          <path
             d="M 0,0 H -0.381 V -0.615 H 0 V -1.022 H -0.808 V 0 h -0.315 l 10e-4,0.367 h 0.314 V 1.302 H 0 V 0.895 H -0.381 V 0.367 H 0 Z M 0.013,0 H 0 v 0.367 h 0.013 c 0.147,0 0.281,0.134 0.281,0.267 0,0.154 -0.14,0.261 -0.281,0.261 H 0 v 0.407 h 0.013 c 0.568,0 0.715,-0.454 0.715,-0.661 0,-0.107 -0.04,-0.301 -0.24,-0.427 0.213,-0.061 0.367,-0.274 0.367,-0.541 0,-0.161 -0.14,-0.695 -0.835,-0.695 H 0 v 0.407 h 0.013 c 0.228,0 0.368,0.147 0.368,0.301 C 0.381,-0.167 0.274,0 0.013,0"
             style="fill:#ffffff;fill-opacity:1;fill-rule:evenodd;stroke:none"
             id="path27756"
             inkscape:connector-curvature="0" />
        </g>
        <g
           id="g27758"
           transform="translate(167.0731,114.9339)">
          <path
             d="m 0,0 c -0.414,0 -0.748,0.334 -0.748,0.748 0,0.414 0.334,0.748 0.748,0.748 V 1.95 h -0.013 c -0.661,0 -1.202,-0.534 -1.202,-1.202 0,-0.661 0.541,-1.202 1.202,-1.202 H 0 Z M 0,0 V 0 -0.454 C 0.661,-0.447 1.196,0.087 1.196,0.748 1.196,1.409 0.661,1.944 0,1.95 V 1.496 C 0.414,1.496 0.748,1.162 0.748,0.748 0.748,0.334 0.414,0 0,0"
             style="fill:#ffffff;fill-opacity:1;fill-rule:evenodd;stroke:none"
             id="path27760"
             inkscape:connector-curvature="0" />
        </g>
        <g
           id="g27762"
           transform="translate(169.0162,112.5096)">
          <path
             d="M 0,0 H -0.375 V 0.439 H -0.694 V 0 h -0.375 v 1.233 h 0.375 V 0.796 h 0.319 V 1.233 H 0 Z"
             style="fill:#ffffff;fill-opacity:1;fill-rule:nonzero;stroke:none"
             id="path27764"
             inkscape:connector-curvature="0" />
        </g>
        <g
           id="g27766"
           transform="translate(169.5388,112.8666)">
          <path
             d="m 0,0 h 0.171 c 0.12,0 0.25,0.08 0.25,0.255 0,0.174 -0.126,0.264 -0.25,0.264 H 0 Z m 0.171,-0.357 h -0.546 v 1.233 h 0.546 c 0.363,0 0.636,-0.267 0.636,-0.621 0,-0.355 -0.267,-0.612 -0.636,-0.612"
             style="fill:#ffffff;fill-opacity:1;fill-rule:nonzero;stroke:none"
             id="path27768"
             inkscape:connector-curvature="0" />
        </g>
        <g
           id="g27770"
           transform="translate(154.5744,115.7189)">
          <path
             d="m 0,0 v 0.018 c -0.003,0.003 -0.006,0.007 -0.009,0.01 L -0.047,0.01 -0.104,-0.009 C -0.095,0 -0.076,0.019 -0.057,0.028 h 0.01 C -0.019,0.038 0,0.048 0,0.048 V 0.018 C 0.004,0.012 0.006,0.006 0,0 M -0.142,-0.085 H -0.17 l 0.009,0.048 c 0,-0.02 0.009,-0.029 0.019,-0.029 0.019,-0.01 0.028,-0.01 0.038,-0.019 z m -0.076,-0.076 h -0.009 c -0.01,0 -0.019,0 -0.019,0.01 0,0.019 0,0.019 -0.01,0.019 h -0.009 l -0.01,0.009 c 0,0.01 0.01,0.01 0.01,0.01 0.009,0.009 0.019,0.009 0.028,0.009 v -0.028 h 0.019 0.048 c -0.01,-0.019 -0.029,-0.029 -0.048,-0.029 m -0.057,0.124 h 0.01 v -0.029 h -0.01 z m -0.227,-0.057 c 0,0.009 0,0.009 -0.009,0.009 h 0.009 0.019 z m -0.322,0.378 c -0.009,0 -0.019,-0.009 -0.028,-0.009 l 0.028,0.028 0.009,0.01 0.019,-0.01 c 0,-0.009 -0.009,-0.009 -0.028,-0.019 M -0.9,0.209 H -0.909 V 0.275 H -0.9 Z m -0.218,0.019 -0.018,-0.019 0.018,0.038 h 0.01 z m 0,-0.304 c -0.009,-0.009 -0.009,-0.009 -0.018,-0.018 0,0 -0.01,0.009 -0.01,0.018 v 0.01 0.009 0.02 h -0.01 -0.018 -0.01 l 0.01,0.019 0.009,0.009 c 0.009,-0.009 0.009,-0.009 0.019,-0.019 0,0 0,-0.009 0.01,-0.009 0.009,-0.01 0.009,-0.02 0.018,-0.029 z m -0.028,-0.075 -0.028,-0.019 -0.01,-0.01 0.01,0.019 0.028,0.038 0.01,-0.009 z m -0.038,0.274 v 0.029 h 0.01 0.028 L -1.174,0.133 -1.184,0.123 V 0.095 l -0.009,0.019 z m -0.028,0.19 c -0.01,0.009 -0.01,0.019 -0.01,0.028 0,-0.009 0.01,-0.009 0.029,-0.019 h 0.019 l 0.009,-0.009 c 0,0 0,-0.01 -0.009,-0.01 h -0.01 -0.009 c 0,0.01 -0.01,0.01 -0.019,0.01 m 0.123,-0.474 h 0.009 0.01 v -0.056 h -0.01 -0.009 z m -0.294,0.379 -0.028,-0.009 0.028,0.019 0.019,0.009 h 0.01 z m 0.966,0.597 0.01,-0.009 V 0.777 l -0.01,0.029 -0.009,0.028 z m 0.408,-0.72 c 0,0.019 0.009,0.019 0.028,0.019 L 0,0.124 C 0.009,0.142 0.019,0.152 0.019,0.152 H 0 c -0.009,0 -0.028,0 -0.047,-0.019 C -0.057,0.124 -0.066,0.114 -0.076,0.114 L -0.104,0.18 h -0.029 c 0,-0.009 0,-0.009 -0.009,-0.009 h -0.019 c -0.009,0 -0.019,0 -0.028,0.009 0,0.019 0.019,0.029 0.047,0.038 0.028,0.01 0.038,0.01 0.038,0.019 C -0.114,0.228 -0.123,0.228 -0.142,0.228 H -0.18 -0.218 c -0.009,0 -0.028,0 -0.047,0.009 h -0.01 c -0.047,0.01 -0.076,0.019 -0.104,0.019 h -0.038 c -0.009,0 -0.028,-0.009 -0.038,-0.009 -0.009,-0.019 -0.019,-0.029 -0.028,-0.029 0,0 -0.01,0 -0.019,0.01 -0.009,0 -0.019,0.009 -0.028,0.019 -0.019,0.009 -0.029,0 -0.048,-0.029 -0.009,0.01 -0.028,0.019 -0.028,0.038 -0.01,0.01 -0.019,0.028 -0.019,0.057 0,0.009 0,0.019 0.009,0.038 v 0.047 c 0,0.047 -0.019,0.066 -0.066,0.076 0,0.01 -0.009,0.01 -0.009,0.01 h 0.009 l 0.01,0.009 0.009,-0.009 c 0.01,-0.01 0.019,0 0.028,0 0,0.009 0.01,0.018 0.019,0.018 0,0.048 -0.009,0.076 -0.019,0.085 0,0.039 0.01,0.057 0.029,0.076 0.009,0.019 0.038,0.029 0.076,0.029 h 0.028 0.057 c 0.009,0 0.019,0.009 0.028,0.009 0.019,0 0.038,0 0.048,0.01 0.018,-0.01 0.018,-0.019 0.018,-0.029 h 0.048 0.038 c 0.019,0 0.028,0 0.047,0.01 h 0.076 0.019 c 0.028,0 0.047,0 0.076,-0.01 h 0.009 v 0.104 c -0.009,0.039 0,0.067 0.01,0.086 0,0.028 0,0.047 -0.019,0.066 h -0.01 l 0.01,0.01 0.019,0.019 v 0.037 c 0,0.019 0,0.029 -0.01,0.038 h -0.009 c -0.029,0 -0.067,0.01 -0.095,0.01 -0.019,0 -0.047,0.009 -0.076,0.009 -0.019,0 -0.028,0.01 -0.047,0.01 -0.057,0 -0.104,0.009 -0.152,0.009 -0.028,0.01 -0.057,0.01 -0.085,0.01 h -0.057 c -0.019,0.018 -0.038,0.028 -0.047,0.028 -0.029,0.009 -0.047,0.019 -0.076,0.019 -0.019,-0.01 -0.038,-0.01 -0.057,-0.019 0,0 -0.009,0 -0.009,0.009 -0.019,0 -0.029,0 -0.038,0.01 -0.01,0 -0.029,0 -0.038,0.009 -0.028,0 -0.057,0 -0.085,0.01 h -0.019 c -0.047,0 -0.086,0.009 -0.133,0.009 H -1.08 -1.118 -1.146 -1.174 -1.193 -1.203 -1.231 -1.345 -1.383 -1.44 L -1.459,0.597 -1.411,0.55 -1.43,0.531 -1.383,0.512 -1.364,0.502 -1.383,0.493 c 0.01,-0.029 0.029,-0.048 0.038,-0.076 0.019,-0.028 0.047,-0.038 0.076,-0.038 L -1.298,0.36 C -1.279,0.351 -1.269,0.332 -1.25,0.303 -1.241,0.294 -1.241,0.284 -1.231,0.284 -1.222,0.275 -1.203,0.275 -1.193,0.275 L -1.222,0.247 -1.193,0.218 V 0.161 c 0,-0.009 -0.019,-0.019 -0.038,-0.019 h -0.01 C -1.279,0.237 -1.326,0.313 -1.383,0.379 -1.402,0.398 -1.421,0.417 -1.44,0.436 -1.449,0.417 -1.459,0.389 -1.459,0.37 c 0,-0.019 0.01,-0.048 0.019,-0.076 0.01,-0.028 0.01,-0.057 0.01,-0.076 0,-0.019 0,-0.038 -0.01,-0.057 h 0.057 l 0.038,-0.009 c 0,-0.066 0.01,-0.104 0.028,-0.124 C -1.335,0 -1.345,-0.037 -1.345,-0.085 c 0,-0.028 0.01,-0.066 0.019,-0.113 0.057,0 0.085,-0.01 0.085,-0.029 h 0.01 l 0.038,-0.009 h 0.019 0.028 0.028 0.038 l 0.095,-0.01 c 0,0.019 0,0.038 -0.009,0.048 -0.01,0.018 -0.02,0.037 -0.02,0.047 -0.009,-0.01 -0.018,-0.01 -0.028,-0.01 -0.009,0 -0.028,0 -0.038,0.019 -0.028,0.019 -0.038,0.029 -0.038,0.038 0,0.01 0.01,0.01 0.038,0.01 h 0.01 l 0.009,-0.01 v -0.019 c 0.01,0.019 0.01,0.029 0.01,0.047 0,0.019 -0.01,0.048 -0.029,0.095 -0.009,0.009 -0.009,0.019 -0.009,0.029 -0.019,0.028 -0.029,0.057 -0.029,0.076 v 0.028 c 0.01,0.009 0.019,0.009 0.029,0.009 h 0.009 c 0.01,0 0.019,-0.009 0.029,-0.028 0.009,-0.019 0.019,-0.038 0.028,-0.038 0,0 0.009,0.01 0.019,0.019 0.01,-0.009 0,-0.019 -0.01,-0.028 0,0 -0.009,-0.01 -0.018,-0.019 L -0.975,0.019 -0.985,0 c -0.019,0.01 -0.029,0.019 -0.029,0.019 l 0.039,-0.085 0.047,0.019 v 0.01 c 0,-0.01 0,-0.02 0.009,-0.029 0,-0.01 0.01,-0.019 0.01,-0.019 0,-0.009 -0.01,-0.019 -0.019,-0.019 l -0.019,0.01 V -0.151 -0.17 c 0,-0.01 0,-0.01 0.019,-0.019 0.009,-0.009 0.019,-0.009 0.019,-0.019 0,-0.009 -0.01,-0.009 -0.019,-0.019 l 0.019,-0.019 0.028,-0.019 0.029,0.048 c 0.009,-0.019 0.019,-0.029 0.028,-0.039 0.009,-0.009 0.019,-0.018 0.038,-0.018 0.009,-0.01 0.019,-0.01 0.038,-0.01 0.009,0 0.019,-0.009 0.028,-0.009 h 0.038 0.066 0.01 c 0.038,0 0.066,-0.01 0.095,-0.019 l -0.048,0.019 c 0,0.028 0.019,0.057 0.057,0.085 0.038,0.028 0.057,0.047 0.057,0.057 0.009,0 0.019,-0.01 0.019,-0.038 h 0.009 0.152 l 0.047,-0.009 h 0.076 0.095 0.038 l -0.038,0.018 -0.038,0.029 c 0,0.009 0.009,0.009 0.019,0.009 0,0 0.002,0 0.004,-0.001 l -0.023,0.039 h 0.038 l 0.085,0.019 c -0.01,0.009 -0.01,0.019 -0.01,0.028 0,0.01 0,0.029 0.01,0.048 v 0.037 c 0,0.039 -0.019,0.058 -0.047,0.067"
             style="fill:#111211;fill-opacity:1;fill-rule:nonzero;stroke:none"
             id="path27772"
             inkscape:connector-curvature="0" />
        </g>
        <g
           id="g27774"
           transform="translate(153.8927,115.1037)">
          <path
             d="m 0,0 v -0.009 l -0.019,-0.01 c 0,0.01 0.009,0.028 0.019,0.028 0.009,0 0.009,0 0.019,-0.009 z m -0.067,-0.36 c -0.009,-0.009 -0.018,-0.009 -0.028,-0.019 l 0.028,0.029 -0.028,0.028 h 0.028 0.01 l -0.007,0.097 c -0.002,0.012 -0.003,0.021 -0.003,0.026 l 0.003,-0.026 c 0.001,-0.009 0.003,-0.019 0.007,-0.031 0.009,-0.028 0.009,-0.047 0.009,-0.057 0,-0.019 -0.009,-0.037 -0.019,-0.047 m -0.037,0.066 -0.029,-0.019 -0.009,0.029 h 0.038 0.009 z m -0.01,0.218 h 0.01 0.009 v -0.095 h -0.009 -0.01 z m -0.057,0.095 c -0.009,0 -0.019,0 -0.028,0.019 -0.01,0.009 -0.019,0.019 -0.029,0.028 L -0.142,0.019 Z M 0.038,0 C 0.047,0.009 0.057,0.009 0.066,0.019 0.057,0.038 0.047,0.047 0.047,0.066 c 0,0.01 0,0.028 0.01,0.048 v 0.047 c 0,0.009 0,0.019 -0.01,0.029 H 0 -0.019 C -0.038,0.199 -0.057,0.199 -0.067,0.199 H -0.085 -0.104 C -0.123,0.199 -0.133,0.19 -0.142,0.19 -0.152,0.18 -0.161,0.17 -0.171,0.152 -0.18,0.161 -0.19,0.17 -0.19,0.19 H -0.228 -0.247 -0.275 V 0.17 h 0.028 0.019 C -0.237,0.161 -0.247,0.152 -0.247,0.142 -0.256,0.132 -0.265,0.123 -0.265,0.114 c 0,-0.02 0.009,-0.029 0.018,-0.048 0,-0.009 0,-0.009 0.01,-0.019 0,-0.009 0.009,-0.009 0.009,-0.019 V 0.019 c 0.01,-0.01 0.019,-0.019 0.019,-0.028 0,0 0,-0.01 -0.009,-0.01 l 0.047,0.01 v -0.019 -0.029 c 0.01,-0.019 0.01,-0.029 0.01,-0.038 0,-0.019 -0.019,-0.028 -0.038,-0.038 l 0.057,-0.019 0.009,-0.009 c 0,0 0,-0.01 -0.009,-0.01 -0.01,-0.009 -0.019,-0.009 -0.029,-0.009 -0.019,-0.01 -0.028,-0.019 -0.028,-0.019 0.028,-0.066 0.038,-0.114 0.038,-0.151 0,-0.019 0,-0.038 -0.01,-0.058 h 0.029 l 0.038,-0.009 h 0.009 l -0.009,-0.009 -0.01,-0.01 h 0.01 l 0.037,-0.028 0.01,-0.01 -0.01,-0.01 -0.028,-0.018 v -0.019 c 0,-0.019 0.01,-0.028 0.028,-0.038 H -0.048 -0.01 0 c 0.009,0.01 0.028,0.01 0.028,0.01 0.01,0 0.019,0 0.019,-0.01 0.01,0.01 0,0.019 -0.009,0.038 l 0.028,0.019 H 0.019 0 c -0.01,0.009 -0.019,0.009 -0.019,0.018 0,0.01 0.009,0.02 0.019,0.02 0.009,0 0.009,0.009 0.028,0.009 0.029,0 0.038,0 0.038,0.019 v 0.019 c -0.028,0 -0.038,0 -0.047,0.009 l 0.047,0.029 c 0,0.019 -0.009,0.029 -0.019,0.029 0,0 0,-0.01 -0.009,-0.01 -0.01,-0.009 -0.019,-0.019 -0.019,-0.019 -0.01,0 -0.01,0.01 -0.01,0.019 -0.009,0.01 0,0.028 0.01,0.038 0.019,0.009 0.028,0.028 0.047,0.038 l -0.047,0.047 c 0,0.01 0.009,0.01 0.019,0.01 0,0 0.009,-0.01 0.028,-0.01 -0.009,0 -0.009,0.01 -0.019,0.01 l -0.038,0.075 h 0.057 l -0.047,0.048 c 0.019,0 0.028,0.009 0.028,0.028 0,0.019 0.01,0.038 0.019,0.038 l -0.047,0.019 c 0,0.01 0,0.019 0.019,0.019"
             style="fill:#111211;fill-opacity:1;fill-rule:nonzero;stroke:none"
             id="path27776"
             inkscape:connector-curvature="0" />
        </g>
        <g
           id="g27778"
           transform="translate(154.5461,115.5676)">
          <path
             d="m 0,0 c 0.009,-0.009 0.028,-0.009 0.038,-0.019 0,0.01 0.009,0.01 0.009,0.01 L 0.028,0.029 c 0,-0.01 -0.009,-0.01 -0.019,-0.01 L 0,0.029 H -0.01 L -0.019,0.019 C -0.026,0.019 -0.028,0.013 -0.028,0.007 -0.025,0.005 -0.022,0.003 -0.019,0 Z"
             style="fill:#111211;fill-opacity:1;fill-rule:nonzero;stroke:none"
             id="path27780"
             inkscape:connector-curvature="0" />
        </g>
        <g
           id="g27782"
           transform="translate(154.5177,115.5743)">
          <path
             d="M 0,0 C -0.002,0.001 -0.004,0.002 -0.005,0.002 L 0,-0.007 C 0,-0.004 0,-0.002 0,0"
             style="fill:#111211;fill-opacity:1;fill-rule:nonzero;stroke:none"
             id="path27784"
             inkscape:connector-curvature="0" />
        </g>
        <g
           id="g27786"
           transform="translate(153.5703,114.5827)">
          <path
             d="m 0,0 -0.009,0.006 c -0.005,0 -0.013,0.002 -0.022,0.003 -0.005,-0.015 -0.021,-0.028 -0.045,-0.028 h -0.009 c -0.01,0 -0.019,0 -0.028,0.01 -0.01,0 -0.01,0 -0.019,0.009 0.009,0 0.009,0.01 0.019,0.01 0.009,0.009 0.018,0.009 0.028,0.009 h 0.009 c 0.01,0 0.019,0 0.038,-0.009 0.003,0 0.005,-0.001 0.007,-0.001 0.001,0.003 0.003,0.007 0.003,0.01 L -0.009,0.006 C -0.004,0.005 0,0.006 0,0.01 Z M -0.142,0.246 -0.161,0.233 c 0,-0.005 -0.001,-0.006 -0.009,-0.006 0,-0.009 0,-0.009 -0.01,-0.019 h 0.01 l 0.009,-0.009 c 0,-0.01 0,-0.01 -0.009,-0.01 V 0.18 c -0.01,0 -0.019,-0.009 -0.019,-0.019 v 0.01 L -0.199,0.18 C -0.2,0.181 -0.202,0.183 -0.204,0.184 L -0.208,0.18 -0.218,0.199 c 0,0 0.007,-0.007 0.014,-0.015 l 0.015,0.015 0.019,0.028 0.009,0.006 c 0,0.002 0,0.002 0,0.004 0.009,0.009 0.009,0.009 0.019,0.019 h 0.005 l 0.005,0.009 0.019,-0.009 H -0.132 -0.137 Z M -0.227,0.237 h -0.01 v 0.057 h 0.01 0.009 V 0.237 Z M -0.104,0.18 V 0.161 L -0.113,0.18 -0.132,0.199 h 0.019 c 0,-0.01 0.009,-0.01 0.009,-0.019 m -0.18,-0.019 c -0.01,0 -0.01,0 -0.019,0.01 h -0.009 -0.01 c -0.009,0 -0.019,-0.01 -0.019,-0.029 -0.009,0 -0.028,0 -0.038,0.01 -0.009,0.009 -0.009,0.009 -0.019,0.019 0,0.009 0.01,0.009 0.019,0.009 h 0.01 0.028 c 0.01,0 0.019,-0.009 0.029,-0.009 0.009,0 0.018,0.009 0.028,0.028 0.01,-0.01 0.01,-0.019 0.01,-0.019 0,-0.009 -0.01,-0.019 -0.01,-0.019 m 0.142,0.492 v 0.01 c 0.01,-0.01 0.01,-0.019 0.01,-0.038 h -0.01 -0.019 z M 0.076,0.246 C 0.066,0.284 0.057,0.313 0.057,0.341 L -0.076,0.275 -0.085,0.265 -0.113,0.294 -0.142,0.322 V 0.303 h -0.01 C -0.161,0.294 -0.161,0.294 -0.17,0.284 h -0.01 c 0,0 0,0.01 -0.009,0.019 -0.01,0.01 -0.019,0.019 -0.038,0.019 -0.01,0 -0.01,0.009 -0.019,0.009 -0.057,0.01 -0.085,0.019 -0.104,0.038 l 0.009,0.019 h -0.038 c -0.009,0.01 -0.019,0.019 -0.019,0.019 0,0.01 0.01,0.019 0.019,0.038 0.01,0.01 0.01,0.019 0.019,0.028 l 0.076,-0.047 -0.057,0.047 c 0.01,0.039 0.047,0.076 0.114,0.124 0.009,0.009 0.028,0.018 0.038,0.028 l 0.019,-0.038 0.009,-0.009 0.019,0.009 0.029,0.01 0.037,0.018 0.01,0.01 c 0,-0.01 0,-0.01 0.009,-0.019 L 0,0.625 c 0,0.048 -0.028,0.076 -0.076,0.076 h -0.009 -0.028 c -0.01,0 -0.019,0 -0.029,-0.01 H -0.17 c 0,-0.009 0,-0.009 -0.01,-0.009 H -0.189 C -0.199,0.673 -0.218,0.673 -0.227,0.673 -0.246,0.663 -0.256,0.663 -0.265,0.663 v 0.028 c -0.038,0.01 -0.076,0.01 -0.095,0.01 h -0.019 c -0.028,0 -0.057,-0.01 -0.076,-0.028 0.019,-0.01 0.029,-0.029 0.029,-0.048 0,-0.01 0,-0.028 -0.01,-0.047 -0.009,-0.019 -0.009,-0.029 -0.009,-0.038 0,-0.028 0.019,-0.047 0.047,-0.067 0,-0.009 -0.009,-0.018 -0.028,-0.018 h -0.029 c -0.009,-0.01 -0.009,-0.02 -0.009,-0.029 0,-0.009 0.009,-0.028 0.028,-0.047 C -0.417,0.36 -0.407,0.35 -0.398,0.341 -0.407,0.322 -0.407,0.322 -0.417,0.322 c 0,0 -0.009,0 -0.019,0.009 -0.009,0 -0.019,0.01 -0.019,0.01 0.01,-0.019 0.019,-0.047 0.019,-0.066 0,0 0,-0.029 -0.019,-0.076 -0.009,-0.028 0,-0.057 0.019,-0.086 h 0.01 c 0.009,0 0.019,0 0.038,-0.009 l 0.009,-0.009 c 0,0 0.01,0 0.019,-0.01 H -0.379 L -0.455,0.076 c 0.019,-0.01 0.029,-0.01 0.029,-0.019 0,-0.01 -0.01,-0.01 -0.01,-0.02 -0.009,-0.009 -0.009,-0.018 -0.009,-0.018 0,0 0,-0.009 0.009,-0.009 0.01,0.009 0.019,0.018 0.038,0.018 0,0 0.01,-0.009 0.019,-0.009 0.01,0 0.019,-0.009 0.029,-0.019 0.019,-0.019 0.038,-0.028 0.047,-0.028 0.009,0 0.019,0 0.019,0.009 l 0.019,0.038 c 0.019,0.009 0.028,0.009 0.028,0.009 h 0.01 c 0.009,0 0.009,-0.009 0.009,-0.018 v -0.019 -0.019 c 0,-0.01 0,-0.01 0.01,-0.01 l 0.019,0.019 0.009,-0.019 h 0.01 c 0.009,0 0.018,0 0.028,-0.01 h 0.029 0.037 c 0.057,0 0.095,0.01 0.124,0.048 l 0.028,-0.028 v -0.01 c 0.009,0.019 0.019,0.048 0.019,0.066 v 0.038 0.01 0.047 c 0,0.019 -0.01,0.048 -0.019,0.085 z"
             style="fill:#111211;fill-opacity:1;fill-rule:nonzero;stroke:none"
             id="path27788"
             inkscape:connector-curvature="0" />
        </g>
        <g
           id="g27790"
           transform="translate(153.362,115.151)">
          <path
             d="m 0,0 v -0.047 h 0.019 0.009 c 0.01,0.009 0,0.019 -0.009,0.028 C 0.01,-0.009 0.01,0 0,0"
             style="fill:#111211;fill-opacity:1;fill-rule:nonzero;stroke:none"
             id="path27792"
             inkscape:connector-curvature="0" />
        </g>
        <g
           id="g27794"
           transform="translate(153.741,114.5923)">
          <path
             d="m 0,0 c 0,0 0,0.009 0.009,0.019 v 0.009 c 0,0.01 0.01,0.019 0.01,0.029 0,0 -0.01,0 -0.01,0.009 H -0.01 C 0,0.057 0.009,0.057 0.009,0.047 0.009,0.038 0,0.028 -0.01,0.019 -0.028,0.009 -0.038,0 -0.038,0 c 0.01,-0.01 0.01,-0.019 0.01,-0.038 0.009,-0.019 0.009,-0.019 0.028,-0.019 h 0.009 0.01 c 0.019,0.009 0.019,0.019 0.019,0.029 -0.009,0 -0.019,0 -0.029,0.009 C 0,-0.019 0,-0.01 0,0"
             style="fill:#111211;fill-opacity:1;fill-rule:nonzero;stroke:none"
             id="path27796"
             inkscape:connector-curvature="0" />
        </g>
        <g
           id="g27798"
           transform="translate(153.4946,115.1602)">
          <path
             d="M 0,0 0.066,-0.009 0.019,0.029 V 0.019 C 0.019,0.01 0.01,0 0,0"
             style="fill:#111211;fill-opacity:1;fill-rule:nonzero;stroke:none"
             id="path27800"
             inkscape:connector-curvature="0" />
        </g>
        <g
           id="g27802"
           transform="translate(153.4283,115.416)">
          <path
             d="M 0,0 C 0,0.01 0.01,0.01 0.01,0.01 H 0 -0.028 c 0,0 -0.01,0 -0.019,0.009 h -0.01 c -0.009,0 -0.019,0 -0.028,0.01 h -0.047 c -0.02,0 -0.038,0 -0.048,-0.01 0,-0.019 -0.009,-0.047 -0.037,-0.094 0.013,0.001 0.029,0.003 0.047,0.009 0.038,0.009 0.066,0.009 0.085,0.009 0.009,0 0.028,0 0.038,-0.009 0,0.028 0,0.037 0.009,0.047 0.01,0 0.01,-0.01 0.01,-0.01 0.009,0 0.009,-0.009 0.009,-0.018 V -0.076 H 0 0.01 c 0,0.019 0.009,0.038 0.019,0.038 0.009,0 0.009,0.009 0.018,0.009 0.01,0 0.01,-0.009 0.01,-0.028 0,-0.009 0,-0.009 0.009,-0.019 h 0.01 c 0.009,0 0.009,0.01 0.009,0.019 v 0.01 0.018 c 0,0.01 0,0.01 0.019,0.01 h 0.029 c 0.019,-0.019 0.047,-0.038 0.085,-0.038 0,-0.009 0.009,-0.009 0.019,-0.009 H 0.265 0.303 0.322 0.36 0.398 c 0.019,0 0.038,0 0.057,-0.01 -0.01,0.029 -0.029,0.047 -0.057,0.047 C 0.388,-0.038 0.369,-0.038 0.36,-0.038 0.341,-0.047 0.331,-0.047 0.322,-0.047 H 0.313 c -0.019,0 -0.038,0.009 -0.048,0.038 v -0.038 c -0.009,-0.01 -0.019,-0.01 -0.028,-0.01 -0.01,0 -0.019,0 -0.019,0.01 -0.01,0 -0.019,0.009 -0.028,0.028 C 0.161,0 0.142,0.01 0.133,0.01 0.114,0.01 0.104,0.019 0.095,0.019 0.085,0.019 0.076,0.019 0.066,0.01 0.057,0.01 0.057,0 0.047,0 0.038,-0.009 0.029,-0.019 0.029,-0.019 c -0.01,0 -0.019,-0.01 -0.029,-0.01 -0.01,0.01 -0.01,0.01 -0.019,0.01 v 0.01 C -0.01,0 -0.01,0 0,0"
             style="fill:#111211;fill-opacity:1;fill-rule:nonzero;stroke:none"
             id="path27804"
             inkscape:connector-curvature="0" />
        </g>
        <g
           id="g27806"
           transform="translate(153.2105,115.3404)">
          <path
             d="m 0,0 c 0,0 0,0 0,0.001 0,0 -0.001,0 -0.001,0 z"
             style="fill:#111211;fill-opacity:1;fill-rule:nonzero;stroke:none"
             id="path27808"
             inkscape:connector-curvature="0" />
        </g>
        <g
           id="g27810"
           transform="translate(153.1346,115.3875)">
          <path
             d="M 0,0 C -0.019,-0.019 -0.019,-0.028 -0.019,-0.028 0,-0.047 0.029,-0.047 0.048,-0.047 h 0.009 c 0.003,0 0.01,0 0.018,0.001 l -0.018,0.008 z"
             style="fill:#111211;fill-opacity:1;fill-rule:nonzero;stroke:none"
             id="path27812"
             inkscape:connector-curvature="0" />
        </g>
        <g
           id="g27814"
           transform="translate(154.3567,116.837)">
          <path
             d="M 0,0 0.076,-0.01 0.17,-0.019 0.189,-0.028 v 0.037 c 0,0.019 0,0.029 -0.009,0.038 H 0.17 0.076 0 -0.047 -0.19 V 0.019 L -0.047,0 Z"
             style="fill:#111211;fill-opacity:1;fill-rule:nonzero;stroke:none"
             id="path27816"
             inkscape:connector-curvature="0" />
        </g>
        <g
           id="g27818"
           transform="translate(155.749,115.7382)">
          <path
             d="M 0,0 H -0.009 L -0.016,0.005 -0.038,0 c 0,0.009 -0.01,0.019 -0.019,0.019 0,0.009 -0.009,0.009 -0.009,0.009 V 0.047 L -0.016,0.005 0,0.009 0.009,0.019 Z m -0.048,-0.227 h -0.018 -0.01 c 0,0.018 0,0.028 0.01,0.038 h 0.018 z m -0.018,-0.114 -0.019,-0.019 -0.019,-0.019 0.019,0.028 0.019,0.029 z m -0.057,0.019 -0.029,0.01 -0.019,0.019 h 0.019 0.029 z M -0.18,0.076 v -0.01 c -0.01,0 -0.019,-0.009 -0.019,-0.009 V 0.028 c -0.01,0.01 -0.019,0.019 -0.019,0.029 0,0.009 0.009,0.019 0.019,0.019 0,0 0.009,0.009 0.019,0.009 h 0.028 c -0.009,0 -0.019,0 -0.028,-0.009 m -0.057,-0.294 c -0.009,0 -0.019,-0.009 -0.028,-0.019 0,-0.009 -0.01,-0.009 -0.01,-0.019 0,0 -0.006,0.006 -0.013,0.013 -0.002,-0.001 -0.003,-0.002 -0.006,-0.003 l -0.009,0.009 -0.019,0.01 h 0.019 c 0,-0.01 0.009,-0.01 0.009,-0.01 0.002,-0.002 0.004,-0.004 0.006,-0.006 0.013,0.009 0.015,0.017 0.023,0.025 0.009,0.009 0.009,0.019 0.009,0.029 0.01,0.028 0.019,0.047 0.038,0.038 0.009,-0.01 0.009,-0.02 0.009,-0.029 0,-0.009 -0.009,-0.019 -0.028,-0.038 m -0.085,-0.133 -0.01,0.01 -0.028,0.029 0.028,-0.01 h 0.01 z m 0.36,0.502 c 0,0 0.009,0.01 0.019,0.02 0.009,0.009 0.019,0.009 0.028,0.009 0.01,0.038 0.019,0.085 0.01,0.142 -0.01,0.076 -0.019,0.123 -0.019,0.123 0,0.029 0.009,0.057 0.019,0.076 0,0 -0.019,0.009 -0.057,0.019 H 0.028 C 0.019,0.549 0.009,0.549 0,0.549 H -0.028 -0.066 C -0.076,0.54 -0.076,0.54 -0.085,0.53 c -0.01,0 -0.01,0 -0.01,-0.009 -0.019,0.009 -0.038,0.019 -0.057,0.019 -0.009,0.009 -0.019,0.009 -0.028,0.009 -0.01,0 -0.019,0.01 -0.019,0.01 -0.019,0 -0.047,0.009 -0.066,0.009 h -0.038 c -0.01,0.01 -0.019,0.01 -0.029,0.01 h -0.066 -0.019 -0.095 l -0.009,0.009 c -0.028,0.01 -0.066,0.01 -0.104,0 h -0.01 c -0.038,-0.009 -0.075,0 -0.104,0.019 V 0.123 c 0.057,0 0.085,0.01 0.095,0.028 0,0 0.009,-0.009 0.009,-0.018 0.01,-0.057 0.019,-0.124 0.019,-0.199 v -0.152 c -0.009,-0.075 -0.009,-0.133 -0.009,-0.151 h -0.01 c -0.047,0.009 -0.085,0 -0.104,-0.029 l -0.009,-0.009 0.009,-0.01 c 0.029,0 0.066,-0.009 0.104,-0.009 0.029,-0.01 0.067,-0.01 0.095,-0.01 h 0.019 c 0.009,0 0.047,0 0.104,0.01 h 0.019 0.066 0.029 c 0.009,0 0.028,0 0.038,0.009 h 0.019 c 0.009,0 0.028,-0.009 0.047,-0.009 h 0.019 c 0,-0.01 0.009,-0.01 0.009,-0.01 h 0.019 c 0.029,-0.009 0.048,-0.009 0.067,-0.009 h 0.019 c 0.028,0 0.047,0.009 0.057,0.028 L 0,-0.426 c 0,-0.01 0.019,-0.019 0.028,-0.019 h 0.038 c 0.019,0.009 0.029,0.009 0.029,0.009 0,0 0,0.01 -0.01,0.029 -0.009,0.009 -0.019,0.019 -0.019,0.019 0,0.009 0.01,0.019 0.019,0.019 h 0.114 c 0.009,0.009 0.009,0.018 0.009,0.018 0,0.01 -0.009,0.02 -0.009,0.039 -0.01,0.009 -0.01,0.019 -0.01,0.028 0,0.009 0.01,0.019 0.029,0.028 -0.029,0.01 -0.038,0.038 -0.019,0.067 -0.019,0 -0.038,0.009 -0.048,0.009 0.01,0.009 0.029,0.019 0.038,0.029 0.01,0.009 0.019,0.018 0.029,0.018 v 0.057 c -0.01,0.01 -0.019,0.029 -0.019,0.048 0,0.009 0.009,0.028 0.019,0.066 v 0.076 c -0.029,0 -0.067,0.009 -0.095,0.009 -0.028,0 -0.057,0.01 -0.085,0.028"
             style="fill:#111211;fill-opacity:1;fill-rule:nonzero;stroke:none"
             id="path27820"
             inkscape:connector-curvature="0" />
        </g>
        <g
           id="g27822"
           transform="translate(155.1144,116.3822)">
          <path
             d="m 0,0 c 0.028,-0.01 0.066,-0.01 0.114,-0.019 0.028,0 0.066,0 0.104,-0.009 h 0.019 0.047 0.019 0.029 c 0.009,-0.01 0.028,-0.01 0.037,-0.01 h 0.067 0.019 c 0.009,0 0.019,0 0.028,-0.009 h 0.066 0.019 c 0.019,0 0.048,-0.01 0.067,-0.01 H 0.663 C 0.682,-0.066 0.701,-0.066 0.71,-0.066 V 0.502 H 0.663 0.635 0.568 0.549 0.483 0.455 0.436 0.369 0.332 0.303 0.237 0.218 0.114 0 -0.104 V 0.256 l -0.01,-0.237 h 0.01 C -0.076,0.009 -0.038,0 0,0"
             style="fill:#111211;fill-opacity:1;fill-rule:nonzero;stroke:none"
             id="path27824"
             inkscape:connector-curvature="0" />
        </g>
        <g
           id="g27826"
           transform="translate(155.1144,114.6017)">
          <path
             d="M 0,0 H -0.01 L 0,0.018 0.009,0.038 0.019,0.028 C 0.028,0.018 0.038,0.009 0.047,0.018 l 0.019,0.01 0.01,-0.01 C 0.057,0.018 0.028,0.009 0,0 m 0.455,-0.048 c -0.01,0 -0.019,0 -0.019,0.01 H 0.417 C 0.398,-0.028 0.388,-0.019 0.369,-0.009 0.36,-0.009 0.341,0 0.332,0.009 0.322,0.018 0.313,0.018 0.303,0.028 H 0.275 C 0.265,0.038 0.256,0.047 0.256,0.066 0.275,0.085 0.284,0.085 0.284,0.085 0.275,0.094 0.256,0.104 0.237,0.114 H 0.227 0.218 0.199 L 0.208,0.094 C 0.189,0.085 0.17,0.076 0.152,0.066 L 0.142,0.123 V 0.114 C 0.133,0.104 0.123,0.094 0.114,0.085 0.095,0.076 0.076,0.066 0.057,0.066 c -0.01,0 -0.029,0.01 -0.038,0.019 l 0.019,0.009 c 0.009,0 0.019,0 0.028,0.01 0.019,0.019 0.019,0.029 0.019,0.038 0,0 0,0.009 -0.009,0.009 L 0,0.17 -0.104,0.189 -0.066,0.17 C -0.095,0.142 -0.104,0.114 -0.104,0.085 c 0,-0.009 0,-0.019 0.009,-0.047 v -0.047 c 0,-0.019 0,-0.029 -0.009,-0.048 l 0.047,0.048 c 0.01,-0.019 0.019,-0.029 0.019,-0.029 0,0 0.019,-0.01 0.038,-0.01 0.009,0 0.009,0 0.019,-0.009 0.028,0 0.047,-0.01 0.066,-0.01 0.01,0 0.019,0 0.029,0.01 h 0.009 v -0.01 c 0.01,0.01 0.047,0.01 0.095,0.01 h 0.019 c 0.028,0 0.047,0.009 0.047,0.019 0.01,-0.01 0.01,-0.01 0.019,-0.01 0.01,-0.009 0.019,-0.009 0.029,-0.019 h 0.037 0.019 0.048 0.019 0.028 0.038 0.028 c -0.019,0 -0.038,0 -0.066,0.01 -0.009,0 -0.019,0 -0.028,0.009"
             style="fill:#111211;fill-opacity:1;fill-rule:nonzero;stroke:none"
             id="path27828"
             inkscape:connector-curvature="0" />
        </g>
        <g
           id="g27830"
           transform="translate(155.8057,114.9141)">
          <path
             d="M 0,0 H -0.028 -0.047 L -0.028,0.028 0,0.057 Z m -0.104,0.113 0.009,0.039 0.038,-0.029 0.029,-0.028 -0.029,0.009 z M -0.142,0.199 -0.18,0.208 c 0,0.01 0.01,0.019 0.029,0.019 l 0.009,-0.009 c 0.009,0 0.019,0 0.019,0.009 V 0.218 c 0,-0.01 0.009,-0.01 0.019,-0.019 H -0.123 Z M -0.237,0.161 C -0.246,0.152 -0.246,0.142 -0.256,0.133 c -0.009,-0.01 -0.028,-0.02 -0.047,-0.02 0.028,0.01 0.038,0.039 0.047,0.067 v 0.019 h 0.019 0.01 c 0,-0.019 -0.01,-0.028 -0.01,-0.038 m -0.019,0.104 0.019,0.038 V 0.237 H -0.256 -0.275 Z M -0.313,0.199 -0.322,0.218 -0.331,0.256 h 0.009 0.009 z M -0.341,0.133 C -0.35,0.123 -0.36,0.113 -0.36,0.113 h -0.028 v 0.029 l 0.009,-0.009 0.019,0.028 0.01,0.019 c 0.009,-0.009 0.019,-0.009 0.019,-0.019 0,-0.009 0,-0.009 -0.01,-0.028 m -0.114,0.132 h -0.009 l 0.009,-0.009 c 0.01,-0.01 0.01,-0.019 0.01,-0.019 h -0.01 -0.018 -0.019 c 0,0.009 0.009,0.019 0.019,0.028 0.009,0.01 0.009,0.01 0.018,0.01 0.01,0.009 0.019,0.019 0.038,0.028 z m -0.028,-0.17 v 0.057 h 0.01 0.009 V 0.095 H -0.473 Z M -0.455,0.009 H -0.473 L -0.492,0 l 0.019,0.019 0.009,0.009 h 0.009 l 0.038,-0.009 z m -0.094,0.076 -0.029,0.019 -0.038,0.029 0.038,0.009 0.029,0.01 c 0,-0.01 -0.01,-0.019 -0.019,-0.019 -0.01,-0.01 -0.01,-0.02 -0.01,-0.02 z m -0.133,0.048 h -0.009 -0.01 v 0.066 h 0.01 0.009 z m 0.72,-0.038 c 0,0.038 -0.019,0.057 -0.057,0.047 v 0.019 c 0,0.01 0.01,0.019 0.029,0.019 h 0.028 c -0.01,0.066 -0.01,0.114 -0.01,0.142 -0.018,0 -0.037,0.01 -0.056,0.01 H -0.057 -0.123 -0.142 C -0.161,0.322 -0.18,0.322 -0.208,0.322 h -0.029 -0.009 l -0.01,0.01 h -0.028 c -0.019,0 -0.029,-0.01 -0.029,-0.029 l -0.009,0.009 c -0.009,0.01 -0.009,0.02 -0.009,0.02 H -0.36 -0.388 -0.455 -0.473 -0.578 -0.597 -0.625 c -0.01,0 -0.038,0 -0.066,0.009 C -0.72,0.35 -0.739,0.35 -0.748,0.35 -0.767,0.35 -0.786,0.341 -0.795,0.332 l -0.01,-0.01 0.01,-0.01 C -0.758,0.294 -0.739,0.275 -0.739,0.246 -0.739,0.227 -0.748,0.199 -0.777,0.161 -0.786,0.152 -0.795,0.133 -0.795,0.123 -0.814,0.104 -0.814,0.085 -0.814,0.066 c 0,-0.009 0,-0.018 0.009,-0.038 h 0.01 c 0.018,0 0.028,0 0.037,-0.009 l -0.037,-0.038 h -0.01 c 0,-0.009 0,-0.009 0.01,-0.019 v -0.009 l 0.018,0.037 h 0.029 c 0.019,0 0.028,0 0.028,-0.009 v 0.047 l 0.019,-0.009 0.01,0.019 0.009,0.019 c 0.019,0 0.028,-0.009 0.028,-0.029 0,-0.009 -0.009,-0.019 -0.028,-0.047 0,-0.009 -0.009,-0.019 -0.009,-0.019 -0.01,-0.009 -0.01,-0.019 -0.01,-0.028 -0.019,0.009 -0.028,0.019 -0.028,0.019 0.009,-0.01 0.019,-0.019 0.038,-0.029 0.009,0 0.028,-0.009 0.037,-0.009 h 0.076 c 0,-0.01 0,-0.01 0.01,-0.01 l -0.01,-0.009 0.095,-0.019 v -0.019 h 0.01 l 0.018,0.009 0.038,0.01 c -0.019,0.009 -0.028,0.009 -0.038,0.019 -0.009,0.009 -0.009,0.019 -0.018,0.019 v 0.009 c -0.01,0.019 -0.01,0.048 -0.01,0.066 h 0.01 0.018 c 0.019,0 0.029,0 0.048,0.01 0.009,0.009 0.009,0.009 0.019,0.009 0.009,0.01 0.018,0.01 0.028,0.01 h 0.01 0.019 c 0,0.019 0.009,0.038 0.009,0.047 0.009,0.01 0.009,0.019 0.019,0.019 0.009,0 0.028,-0.009 0.047,-0.028 l 0.01,-0.009 h 0.009 c 0.01,-0.01 0.019,-0.02 0.029,-0.029 0.009,0 0.019,-0.01 0.028,-0.01 0,0 0.01,0.01 0.019,0.01 -0.019,0.009 -0.019,0.019 -0.019,0.029 0,0.028 0.01,0.047 0.038,0.047 h 0.009 l 0.01,-0.01 0.028,-0.028 C -0.076,0.048 -0.076,0.038 -0.076,0.028 -0.076,0.019 -0.085,0 -0.123,-0.01 l 0.066,-0.018 0.029,-0.01 0.047,-0.009 -0.009,0.009 c 0,0 0.009,0.01 0.018,0.019 0.01,0.009 0.019,0.009 0.01,0.019 z"
             style="fill:#111211;fill-opacity:1;fill-rule:nonzero;stroke:none"
             id="path27832"
             inkscape:connector-curvature="0" />
        </g>
        <g
           id="g27834"
           transform="translate(155.0103,115.151)">
          <path
             d="M 0,0 H -0.01 L 0,-0.028 Z"
             style="fill:#111211;fill-opacity:1;fill-rule:nonzero;stroke:none"
             id="path27836"
             inkscape:connector-curvature="0" />
        </g>
        <g
           id="g27838"
           transform="translate(157.5582,114.7092)">
          <path
             d="m 0,0 c 0,-0.008 0.002,-0.015 0.009,-0.023 0,0.008 0,0.015 -0.009,0.023"
             style="fill:#111211;fill-opacity:1;fill-rule:nonzero;stroke:none"
             id="path27840"
             inkscape:connector-curvature="0" />
        </g>
        <g
           id="g27842"
           transform="translate(156.9424,116.7421)">
          <path
             d="M 0,0 H 0.019 C 0.009,-0.009 0.009,-0.019 0.009,-0.019 H 0 L -0.019,0 Z m 0.454,0.066 h 0.01 0.019 L 0.464,0.057 0.454,0.048 Z m -0.729,-0.113 h 0.01 0.019 0.009 c 0.019,0 0.029,0 0.038,0.009 h 0.019 c 0.01,0 0.019,0.01 0.028,0.01 h 0.01 c 0.009,0 0.019,0 0.019,-0.01 v -0.009 h 0.019 0.009 0.01 c 0.009,-0.01 0.019,-0.01 0.028,-0.01 0.009,-0.009 0.009,-0.009 0.019,-0.009 0.009,-0.01 0.009,-0.01 0.019,-0.01 v 0.038 c 0.009,0 0.009,0 0.019,-0.009 0.019,0 0.047,-0.01 0.066,-0.019 0.019,0 0.038,-0.01 0.057,-0.01 0.019,-0.009 0.038,-0.009 0.057,-0.009 0.019,-0.01 0.038,-0.01 0.047,-0.01 0.029,0 0.048,-0.009 0.067,-0.009 v 0.019 l 0.047,-0.01 0.095,-0.019 0.018,0.067 h 0.01 c 0.019,0 0.028,-0.01 0.028,-0.019 -0.009,-0.01 -0.009,-0.019 -0.009,-0.029 0,-0.019 0.019,-0.028 0.047,-0.028 h 0.038 0.029 0.028 c 0.01,0 0.019,-0.01 0.029,-0.019 0,0 0.009,0 0.009,0.009 h 0.028 c 0.019,0 0.029,0.01 0.048,0.029 l 0.028,-0.038 h 0.038 0.057 c 0.019,-0.009 0.047,-0.009 0.066,-0.019 h 0.01 0.009 C 0.966,-0.17 0.985,-0.17 1.004,-0.17 1.023,-0.18 1.032,-0.18 1.042,-0.18 H 1.08 1.099 1.137 c 0.018,0 0.037,0.01 0.056,0.01 -0.019,0.028 -0.038,0.047 -0.056,0.066 -0.019,0.009 -0.038,0.028 -0.057,0.047 -0.01,0.01 -0.019,0.019 -0.038,0.019 -0.01,0.01 -0.019,0.019 -0.038,0.029 C 0.985,0 0.966,0.01 0.947,0.019 0.938,0.019 0.938,0.028 0.938,0.028 0.919,0.038 0.89,0.048 0.862,0.057 0.843,0.066 0.824,0.066 0.805,0.076 0.796,0.076 0.786,0.085 0.767,0.085 0.739,0.095 0.701,0.104 0.663,0.104 0.654,0.114 0.635,0.114 0.625,0.114 0.606,0.123 0.587,0.123 0.568,0.123 0.54,0.133 0.502,0.133 0.464,0.133 H 0.454 C 0.436,0.142 0.417,0.133 0.388,0.123 0.369,0.114 0.35,0.104 0.341,0.104 c -0.01,0 -0.019,0.01 -0.028,0.019 H 0.227 0.208 0.18 0.123 c -0.019,0 -0.038,0 -0.057,-0.009 -0.019,0 -0.047,0 -0.066,-0.01 -0.01,0 -0.029,0 -0.038,-0.009 -0.019,0 -0.028,-0.01 -0.047,-0.01 0,0 -0.01,-0.009 -0.019,-0.009 -0.019,-0.01 -0.038,-0.019 -0.048,-0.028 -0.009,0 -0.018,0 -0.028,-0.01 C -0.199,0.028 -0.218,0.019 -0.237,0 L -0.246,-0.009 C -0.256,0 -0.265,0.01 -0.265,0.019 V 0.01 L -0.275,0 -0.294,-0.009 -0.303,-0.019 c 0,-0.009 0,-0.009 0.009,-0.019 0,0 0.01,0 0.019,-0.009"
             style="fill:#111211;fill-opacity:1;fill-rule:nonzero;stroke:none"
             id="path27844"
             inkscape:connector-curvature="0" />
        </g>
        <g
           id="g27846"
           transform="translate(157.0655,114.5445)">
          <path
             d="M 0,0 -0.038,0.029 C -0.028,0.01 -0.019,0 0,0"
             style="fill:#111211;fill-opacity:1;fill-rule:nonzero;stroke:none"
             id="path27848"
             inkscape:connector-curvature="0" />
        </g>
        <g
           id="g27850"
           transform="translate(156.6676,115.6054)">
          <path
             d="m 0,0 c -0.009,0 -0.019,0.01 -0.019,0.019 0,0.009 0.01,0.019 0.019,0.028 0,0.01 0,0.01 0.01,0.01 C 0,0.047 0,0.038 0,0.028 Z m -0.019,-0.758 h -0.019 -0.019 l 0.01,0.01 h 0.009 0.019 L 0,-0.758 Z m -0.057,-0.085 -0.028,0.009 0.016,0.016 c -0.001,0.002 0,0.004 0.003,0.004 l -0.003,-0.004 c 0,-0.003 0.006,-0.009 0.012,-0.016 0.006,-0.006 0.009,-0.011 0.012,-0.015 z m 0.029,0.521 h 0.009 0.01 v -0.057 h -0.01 -0.009 z m -0.01,0.114 -0.019,0.028 h 0.019 0.01 v -0.047 z m -0.028,0.672 v 0.038 c 0,0.009 0.009,0 0.009,0 0.01,0 0.01,-0.009 0.019,-0.009 L -0.076,0.483 Z M -0.151,0.36 H -0.18 l 0.029,0.028 0.009,0.01 0.009,-0.038 z m 0.018,-0.35 v -0.029 h -0.009 c 0.008,0 0.009,0.008 0.009,0.029 0,0.009 -0.009,0.019 -0.018,0.028 0,0.009 -0.01,0.009 -0.01,0.009 h 0.01 c 0.009,0 0.018,-0.009 0.018,-0.028 0,-0.003 0,-0.006 0,-0.009 0,0 0,0 0,0 m 0.095,0.388 0.019,0.019 V 0.398 c 0,-0.01 0.01,-0.019 0.019,-0.019 -0.009,0 -0.019,0.009 -0.019,0.009 H -0.038 -0.047 Z M 0.01,0.19 C 0.016,0.183 0.022,0.177 0.028,0.171 c 0,0 0,0 0,0 0.01,0 0.01,-0.01 0.01,-0.01 C 0.043,0.156 0.045,0.154 0.048,0.15 0.06,0.134 0.068,0.118 0.076,0.095 0.066,0.104 0.057,0.113 0.057,0.133 0.052,0.142 0.05,0.146 0.048,0.15 0.045,0.154 0.042,0.157 0.038,0.161 0.035,0.164 0.032,0.168 0.028,0.171 0.019,0.171 0.019,0.161 0.01,0.161 Z M 0.038,0.654 0.057,0.635 V 0.625 L 0.038,0.644 0.01,0.682 Z m -0.01,0.341 h 0.01 0.019 V 0.966 H 0.038 0.028 Z m 0.01,-1.203 v 0.009 L 0.057,-0.18 0.085,-0.218 Z M 0.085,0.388 0.095,0.379 0.114,0.36 H 0.095 0.085 Z m 0.038,-0.644 c 0,0.01 0,0.019 0.01,0.038 0.009,0.038 0.019,0.057 0.038,0.057 V -0.17 -0.189 C 0.161,-0.199 0.161,-0.208 0.152,-0.218 0.133,-0.237 0.123,-0.246 0.123,-0.256 0.114,-0.265 0.114,-0.274 0.114,-0.265 Z m 0.066,1.071 c 0.019,0.009 0.019,0.019 0.019,0.019 0,0.003 0,0.007 0,0.01 L 0.199,0.853 c 0.006,0 0.008,-0.004 0.009,-0.009 L 0.227,0.824 0.189,0.805 0.18,0.796 H 0.171 c 0.009,0 0.018,0.009 0.018,0.019 M 0.237,0.616 0.256,0.625 0.275,0.588 V 0.578 C 0.265,0.597 0.246,0.616 0.237,0.616 L 0.222,0.604 C 0.22,0.6 0.218,0.595 0.218,0.588 H 0.199 L 0.222,0.604 C 0.225,0.612 0.231,0.616 0.237,0.616 M 0.313,0.445 c 0,0 0.009,-0.009 0.009,-0.028 -0.009,-0.01 -0.028,0 -0.047,0.009 z M 0.294,0.748 c 0.019,0 0.038,0 0.047,-0.009 0,-0.01 0,-0.01 0.01,-0.01 C 0.357,0.717 0.368,0.704 0.377,0.697 0.381,0.695 0.385,0.693 0.388,0.691 0.385,0.691 0.381,0.694 0.377,0.697 0.362,0.704 0.349,0.711 0.341,0.711 0.332,0.711 0.313,0.701 0.294,0.691 L 0.322,0.729 Z M 0.417,0.019 V 0.01 -0.019 H 0.398 0.388 l 0.01,0.01 0.019,0.019 H 0.398 l -0.01,0.009 h 0.01 z m 0.028,-0.095 v -0.009 c 0,0 0,-0.019 -0.019,-0.038 -0.009,-0.019 -0.019,-0.028 -0.009,-0.038 -0.01,0 -0.01,0 -0.019,0.01 H 0.37 c 0.009,0.009 0.018,0.009 0.028,0.019 0.028,0.018 0.047,0.037 0.047,0.056 m 0.01,0.218 0.009,0.019 c 0,0 0.01,-0.009 0.01,-0.019 V 0.123 c 0,-0.01 0,-0.01 -0.019,-0.01 H 0.445 Z M 0.398,-0.379 v 0.01 L 0.417,-0.35 0.445,-0.398 Z M 0.329,0.565 0.341,0.559 0.37,0.531 H 0.351 c 0,0 -0.01,0 -0.01,0.009 L 0.332,0.549 c 0,0.007 -0.001,0.013 -0.003,0.016 M 0.341,-0.104 H 0.37 L 0.341,-0.123 0.322,-0.114 Z m 0,-0.426 c 0,-0.01 -0.009,-0.01 -0.019,-0.019 0.01,0.009 0.01,0.019 0.019,0.038 0,0.009 0.01,0.018 0.019,0.018 0,-0.009 -0.009,-0.018 -0.019,-0.037 m -0.066,0.379 h 0.019 l -0.01,-0.01 c 0,0 -0.009,0 -0.009,0.01 H 0.246 v 0.019 h 0.029 c -0.01,-0.01 0,-0.01 0,-0.019 M 0.294,-0.208 H 0.275 c 0,0 -0.01,0 -0.01,0.009 -0.009,0 -0.019,0.01 -0.019,0.01 H 0.275 0.313 C 0.303,-0.208 0.303,-0.208 0.294,-0.208 M 0.284,-0.625 H 0.275 0.256 l 0.019,0.038 0.009,0.019 z M 0.171,-0.369 0.152,-0.417 v 0.048 c 0,0.009 0.009,0.019 0.019,0.028 0,0.01 0.009,0.01 0.009,0.019 z M 0.114,-0.691 H 0.095 l -0.019,0.009 h 0.019 0.019 z m -0.294,-0.019 -0.019,0.019 0.01,0.009 h 0.009 c 0.01,0 0.019,-0.009 0.019,-0.038 z m -0.066,0.312 -0.01,0.029 c 0,0.009 0.01,0.009 0.01,0.009 0.009,-0.009 0.009,-0.009 0.019,-0.019 0,0 -0.01,-0.009 -0.019,-0.019 m 0.057,1.08 h -0.029 l -0.028,0.009 h 0.028 0.029 z m 1.07,0.085 H 0.9 0.909 L 0.9,0.758 0.881,0.748 Z M 1.07,0.834 1.08,0.815 V 0.796 H 1.07 Z M 1.212,0.483 h 0.01 v -0.01 h -0.01 z m 0.067,0.284 h 0.008 c 0.001,0.005 0.001,0.005 0.001,0 H 1.287 C 1.286,0.762 1.283,0.753 1.279,0.739 V 0.729 C 1.288,0.729 1.288,0.72 1.298,0.72 H 1.279 1.269 Z M 1.411,0.711 H 1.43 V 0.663 L 1.411,0.682 1.392,0.711 Z m 0.057,0.104 0.01,-0.01 c 0.009,0 0.019,0 0.019,-0.009 h 0.009 c 0.019,-0.01 0.028,-0.019 0.028,-0.029 0,-0.009 0,-0.019 -0.009,-0.019 H 1.497 c 0.009,0.01 0.019,0.019 0.019,0.019 -0.01,0.01 -0.01,0.01 -0.019,0.019 v 0.01 H 1.478 1.468 Z M 0.502,-0.028 C 0.504,-0.03 0.507,-0.033 0.51,-0.036 0.534,-0.031 0.551,-0.04 0.568,-0.057 V -0.085 C 0.539,-0.063 0.521,-0.047 0.51,-0.036 0.508,-0.037 0.505,-0.037 0.502,-0.038 Z m 0,0.066 0.01,0.038 V -0.009 H 0.502 Z M 0.038,-0.834 c 0.01,0 0.01,0 0.019,0.01 l -0.019,0.01 -0.01,0.018 0.01,0.01 0.047,0.038 v -0.066 c 0,0.009 0.01,0.009 0.01,0.009 0.009,0.009 0.019,0.009 0.028,0.019 0.01,0.009 0.029,0.019 0.048,0.028 0.009,0 0.018,0.01 0.018,0.01 0.019,0.01 0.038,0.019 0.048,0.028 0.009,0.01 0.028,0.019 0.038,0.019 0.028,0.019 0.047,0.029 0.066,0.048 0.019,0.009 0.038,0.018 0.057,0.028 0.019,0.019 0.038,0.028 0.057,0.038 0.019,0.019 0.038,0.028 0.047,0.038 h 0.01 c 0,0.009 0,0.009 -0.01,0.019 0,0.009 -0.009,0.019 -0.019,0.019 -0.009,0.009 -0.019,0.018 -0.028,0.028 v 0.01 0.019 c 0.009,0.009 0.009,0.009 0.009,0.018 l 0.019,-0.018 c 0.019,0.009 0.019,0.028 0.01,0.056 -0.019,0.029 -0.029,0.038 -0.029,0.048 0,0.019 0.019,0.028 0.038,0.038 l -0.038,0.028 0.038,0.028 v 0.029 c 0.019,0.019 0.057,0.028 0.114,0.028 v 0.019 c 0,0.01 -0.01,0.019 -0.029,0.029 -0.009,0 -0.028,0.009 -0.028,0.028 0,0.009 0.009,0.009 0.038,0.009 0,0.01 -0.01,0.019 -0.01,0.029 0,0.019 0.01,0.038 0.01,0.057 0,0.028 0.009,0.047 0.009,0.056 0,0.038 -0.019,0.057 -0.066,0.057 H 0.512 c 0,0.019 0.009,0.038 0.019,0.038 0,0.01 0.009,0.01 0.009,0.01 0.009,0 0.019,-0.01 0.028,-0.02 0.01,-0.009 0.01,-0.018 0.019,-0.018 0.01,0.009 0.019,0.018 0.019,0.028 0,0.01 -0.009,0.019 -0.019,0.038 C 0.578,0.18 0.568,0.19 0.568,0.199 c 0,0.019 0.01,0.029 0.048,0.047 -0.019,0 -0.057,0 -0.114,0.019 H 0.483 C 0.474,0.313 0.464,0.379 0.474,0.464 c 0.009,0.085 0.009,0.142 -0.01,0.19 0,0 0.01,0 0.019,0.009 h 0.019 c -0.019,0.01 -0.019,0.028 -0.019,0.038 0,0.01 0,0.028 0.019,0.047 v 0.01 c 0.01,0.009 0.019,0.019 0.019,0.028 0,0.01 -0.009,0.019 -0.019,0.029 V 0.824 C 0.521,0.853 0.54,0.862 0.559,0.872 0.578,0.881 0.597,0.891 0.616,0.9 h 0.009 c 0.01,0 0.048,-0.019 0.095,-0.028 0.009,0 0.009,-0.01 0.019,-0.01 C 0.758,0.853 0.767,0.843 0.767,0.824 0.767,0.815 0.758,0.805 0.758,0.786 0.758,0.588 0.767,0.455 0.786,0.398 l 0.01,0.019 C 0.815,0.407 0.834,0.398 0.843,0.398 0.862,0.388 0.871,0.388 0.89,0.388 H 0.9 c 0.009,0 0.028,0.01 0.038,0.01 0.028,0.009 0.057,0.019 0.085,0.028 H 1.042 L 1.052,0.417 1.042,0.407 V 0.398 c 0.01,0.009 0.019,0.009 0.038,0.009 h 0.009 c 0.019,0.01 0.038,0.01 0.048,0.01 h 0.009 c 0.019,0 0.048,-0.01 0.066,-0.019 h 0.01 c 0.009,0 0.028,-0.01 0.057,-0.01 0.019,0 0.038,0.01 0.038,0.01 0.009,0.009 0.009,0.009 0.009,0.019 0.01,-0.01 0.019,-0.019 0.029,-0.019 0.019,0 0.028,-0.01 0.047,-0.01 h 0.009 c 0.019,0 0.038,0.01 0.067,0.01 0,0 0,0.009 0.009,0.009 h 0.01 c 0.028,0 0.037,0.01 0.047,0.01 h 0.009 c 0,0 0,-0.01 -0.009,-0.01 0,-0.009 -0.01,-0.009 0,-0.019 v 0.01 l 0.028,0.028 c -0.009,0 -0.009,0.01 -0.009,0.01 0,0.009 0.009,0.009 0.009,0.028 0.01,0.01 0.01,0.01 0.01,0.019 0,0.01 -0.01,0.019 -0.029,0.019 0.01,0.029 0.019,0.047 0.019,0.076 0,0.019 -0.009,0.057 -0.019,0.095 0,0.009 0,0.018 -0.009,0.028 0,0.028 -0.01,0.047 -0.01,0.057 0,0.009 0.01,0.028 0.01,0.038 v 0.038 c 0,0.028 -0.01,0.057 -0.047,0.066 H 1.478 C 1.468,0.909 1.449,0.909 1.44,0.909 H 1.411 C 1.402,0.909 1.392,0.9 1.383,0.9 H 1.355 1.326 1.317 1.279 C 1.269,0.909 1.25,0.909 1.241,0.919 V 0.928 H 1.222 1.212 1.137 1.08 c -0.01,0.01 -0.019,0.01 -0.038,0.01 -0.028,0 -0.066,0.009 -0.104,0.019 L 0.909,0.928 0.9,0.938 C 0.881,0.938 0.862,0.947 0.843,0.947 0.815,0.957 0.777,0.966 0.739,0.976 H 0.691 c -0.028,0 -0.047,0 -0.075,0.009 -0.048,0 -0.085,0 -0.114,0.01 H 0.464 0.455 c -0.01,0 -0.029,0 -0.057,0.009 -0.019,0 -0.038,0 -0.057,0.009 H 0.322 0.275 c -0.01,0.01 -0.029,0.01 -0.038,0.01 H 0.189 0.18 0.171 0.123 0.114 0.095 c -0.01,0 -0.029,0.01 -0.057,0.01 0,0.009 -0.01,0.009 -0.019,0.009 H 0.01 C 0,1.042 0,1.051 0,1.051 h -0.019 -0.019 c -0.009,0.01 -0.009,0.01 -0.019,0.01 h -0.019 c -0.028,0 -0.057,-0.01 -0.075,-0.019 L -0.161,1.033 C -0.17,1.033 -0.17,1.023 -0.18,1.013 -0.199,1.004 -0.208,0.995 -0.218,0.976 -0.227,0.966 -0.227,0.957 -0.237,0.947 -0.237,0.938 -0.246,0.938 -0.246,0.928 -0.256,0.9 -0.275,0.881 -0.284,0.853 -0.303,0.701 -0.312,0.625 -0.312,0.625 c 0,-0.056 0.009,-0.094 0.028,-0.123 h -0.038 c 0,-0.019 0.01,-0.038 0.019,-0.076 0.009,-0.028 0.019,-0.047 0.019,-0.066 0,-0.028 -0.01,-0.047 -0.038,-0.076 0.01,-0.019 0.019,-0.028 0.038,-0.028 0.009,0 0.019,0 0.038,0.009 h 0.019 0.009 c 0.01,-0.009 0.019,-0.028 0.019,-0.037 0.01,-0.029 0.01,-0.048 0.01,-0.048 -0.01,-0.019 -0.019,-0.057 -0.01,-0.104 0.019,-0.048 0.01,-0.076 0,-0.095 l 0.019,-0.019 v -0.009 c 0.01,-0.01 0.01,-0.01 0,-0.019 h -0.009 c -0.01,-0.01 -0.01,-0.019 -0.01,-0.019 l 0.019,-0.019 v -0.01 c -0.019,-0.009 -0.019,-0.009 -0.019,-0.018 0,-0.01 0,-0.019 0.01,-0.038 0,-0.01 0.009,-0.01 0.009,-0.01 v -0.019 -0.009 l -0.038,-0.01 -0.028,-0.009 h -0.01 l 0.01,-0.01 h 0.028 0.038 l 0.029,-0.009 0.075,-0.01 h 0.019 0.01 c 0,-0.009 0,-0.018 -0.01,-0.028 -0.009,0 -0.009,-0.009 -0.019,-0.009 -0.019,-0.01 -0.038,-0.019 -0.057,-0.019 h -0.018 c -0.01,0 -0.019,0 -0.029,0.009 h -0.009 -0.029 -0.019 -0.009 c -0.01,0 -0.019,0 -0.029,-0.009 0.01,-0.038 0,-0.057 -0.028,-0.057 h -0.019 v -0.048 c 0.019,0.01 0.028,0.01 0.028,0.01 0.019,0 0.019,-0.01 0.019,-0.019 v -0.01 -0.009 c 0,-0.009 0.01,-0.019 0.029,-0.019 l -0.076,-0.057 h 0.047 c 0.01,-0.009 0.019,-0.019 0.019,-0.028 h -0.009 -0.01 -0.009 c -0.01,0 -0.019,-0.01 -0.019,-0.019 0.009,0 0.028,0 0.038,-0.01 0.009,-0.009 0.019,-0.009 0.019,-0.009 0.009,-0.01 0.009,-0.01 0.019,-0.01 l -0.019,-0.019 -0.01,-0.009 -0.028,0.028 c -0.01,-0.028 0,-0.047 0.028,-0.066 l 0.01,0.01 c 0.019,-0.01 0.028,-0.019 0.028,-0.029 0,0 -0.009,-0.009 -0.019,-0.019 0,-0.009 -0.009,-0.019 -0.009,-0.019 v -0.009 h 0.028 0.029 c 0,-0.009 0.009,-0.009 0.009,-0.019 0,-0.01 -0.009,-0.01 -0.019,-0.019 -0.009,-0.01 -0.019,-0.019 -0.019,-0.019 h 0.038 c 0.01,0 0.019,0 0.019,-0.01 0,0 0,-0.009 -0.019,-0.028 l 0.029,-0.019 0.009,-0.009 c 0.019,-0.019 0.038,-0.029 0.066,-0.038 0.01,0 0.01,0 0.019,0.009 h 0.019 c 0.01,0 0.01,0 0.019,0.01 0,0 0.01,0 0.019,0.009 h 0.01 c 0.009,0.01 0.018,0.019 0.028,0.028"
             style="fill:#111211;fill-opacity:1;fill-rule:nonzero;stroke:none"
             id="path27852"
             inkscape:connector-curvature="0" />
        </g>
        <g
           id="g27854"
           transform="translate(157.0845,114.5351)">
          <path
             d="M 0,0 0.009,0.009 H -0.019 Z"
             style="fill:#111211;fill-opacity:1;fill-rule:nonzero;stroke:none"
             id="path27856"
             inkscape:connector-curvature="0" />
        </g>
        <g
           id="g27858"
           transform="translate(158.1642,115.1698)">
          <path
             d="M 0,0 -0.019,-0.028 -0.038,-0.047 -0.019,-0.019 0,0.009 Z m -0.142,-0.265 -0.006,0.027 c -0.001,0.001 -0.002,0.001 -0.004,0.001 0,0 -0.009,0.01 0,0.019 l 0.004,-0.02 c 0.006,-0.002 0.006,-0.008 0.006,-0.008 0.009,-0.01 0.019,-0.01 0.019,-0.01 z m -0.133,0.151 h -0.009 v 0.02 l 0.009,-0.01 z M -0.35,-0.398 h -0.01 l -0.009,0.01 0.009,0.009 0.048,0.029 z m -0.038,0.237 -0.029,0.057 -0.009,0.01 h 0.009 c 0,0 0.019,-0.02 0.029,-0.029 z m -0.057,-0.123 h -0.009 v 0.057 h 0.009 z m -0.142,0.057 h -0.01 l -0.047,0.009 h 0.038 c 0,0.01 0,0.01 0.009,0.01 h 0.01 z M -0.871,-0.379 H -0.881 -0.9 l 0.019,0.019 0.029,0.01 c -0.019,-0.01 -0.019,-0.019 -0.019,-0.029 m -0.124,0.114 -0.015,0.003 -0.003,-0.003 -0.02,0.009 0.023,-0.006 0.015,0.016 0.029,0.019 0.038,-0.038 z m 0.341,0.634 c -0.009,0 -0.019,0.019 -0.028,0.048 -0.005,0.005 -0.009,0.01 -0.014,0.015 L -0.701,0.426 -0.729,0.455 c 0.013,0 0.022,-0.01 0.033,-0.023 l 0.023,0.023 V 0.436 c 0,-0.01 0,-0.019 0.019,-0.029 C -0.635,0.398 -0.625,0.398 -0.616,0.388 -0.625,0.379 -0.644,0.369 -0.654,0.369 m 0,0.171 0.029,-0.019 V 0.483 L -0.654,0.521 -0.673,0.559 Z M 0.095,0.426 C 0.076,0.426 0.057,0.417 0.047,0.407 0.038,0.398 0.029,0.379 0.029,0.36 H 0 -0.019 C -0.038,0.351 -0.066,0.341 -0.085,0.322 -0.104,0.303 -0.123,0.284 -0.142,0.256 l -0.01,0.019 C -0.171,0.256 -0.18,0.246 -0.18,0.246 c 0,0 0.009,-0.009 0.028,-0.009 L -0.18,0.208 -0.199,0.19 -0.18,0.18 -0.208,0.152 h -0.01 l -0.038,0.038 0.029,0.028 h -0.048 -0.009 -0.028 c 0,0.019 0.009,0.038 0.028,0.047 0,0.01 0,0.01 0.009,0.01 0.01,0.009 0.029,0.019 0.057,0.028 v 0.01 c 0.019,0 0.028,0.009 0.038,0.009 0.019,0.01 0.028,0.019 0.038,0.029 0.019,0.009 0.028,0.028 0.028,0.037 l -0.009,0.01 0.019,0.028 C -0.095,0.417 -0.085,0.417 -0.085,0.407 V 0.398 c 0.019,0.019 0.047,0.028 0.066,0.038 C -0.01,0.436 0,0.445 0,0.445 h 0.009 c 0.02,0.01 0.029,0.019 0.038,0.028 0.019,0.02 0.029,0.029 0.038,0.048 0.01,-0.009 0.019,-0.019 0.029,-0.009 0,0.019 0.009,0.028 0.019,0.037 0,0 0.009,-0.009 0.009,-0.018 0.01,-0.01 0.019,-0.01 0.029,-0.01 0.009,0.01 0.018,0.019 0.018,0.038 -0.009,0 -0.018,0 -0.028,0.019 0,0 0.01,0 0.019,0.019 0.009,0 0.009,0.009 0.009,0.019 L 0.076,0.625 0.057,0.578 H 0.047 0.029 c -0.01,0 -0.02,0 -0.029,0.009 0.009,0 0.009,0.01 0.019,0.019 0.01,0.01 0.01,0.01 0.01,0.019 H 0 -0.019 -0.085 -0.142 -0.18 -0.218 c -0.019,0 -0.038,0 -0.057,-0.009 H -0.284 -0.36 c -0.019,0 -0.038,-0.01 -0.057,-0.01 H -0.455 C -0.483,0.597 -0.512,0.597 -0.53,0.587 v 0.01 c 0.009,0.009 0.018,0.019 0.047,0.019 -0.019,0.009 -0.038,0.009 -0.057,0.009 h -0.019 c -0.009,0 -0.028,0 -0.038,-0.009 -0.019,0 -0.028,-0.01 -0.047,-0.019 0,0.009 0,0.009 -0.01,0.019 -0.009,0.009 -0.019,0.009 -0.028,0.009 -0.01,0 -0.019,0 -0.047,-0.009 -0.01,-0.01 -0.019,-0.01 -0.029,-0.019 h -0.009 c 0,0 0.009,-0.01 0.009,-0.019 0.01,-0.01 0.019,-0.029 0.019,-0.047 0,-0.019 -0.009,-0.038 -0.019,-0.067 C -0.767,0.426 -0.777,0.407 -0.767,0.388 h 0.009 l 0.029,-0.009 c 0,-0.01 0,-0.019 -0.01,-0.028 -0.009,-0.01 -0.019,-0.01 -0.019,-0.01 -0.009,-0.009 -0.009,-0.019 -0.009,-0.019 0,-0.009 0.009,-0.009 0.009,-0.019 0.01,-0.009 0.029,-0.019 0.038,-0.019 0.01,0 0.019,0 0.038,0.01 h 0.028 c 0.019,0 0.038,-0.01 0.057,-0.019 V 0.265 0.246 0.227 C -0.606,0.218 -0.606,0.208 -0.616,0.208 -0.635,0.19 -0.644,0.171 -0.644,0.171 L -0.654,0.18 V 0.208 H -0.701 V 0.066 c 0.019,0 0.028,0.01 0.047,0.02 0.019,0.009 0.038,0.018 0.057,0.037 0.01,0.01 0.019,0.019 0.029,0.029 l 0.009,0.009 c 0.047,0.038 0.076,0.057 0.104,0.066 h 0.029 0.009 c 0.019,0 0.038,0 0.057,-0.019 h 0.019 L -0.36,0.199 -0.417,0.161 -0.455,0.142 -0.512,0.104 c 0,-0.028 -0.018,-0.047 -0.047,-0.056 -0.009,0 -0.019,-0.01 -0.038,-0.01 -0.019,0 -0.038,0 -0.057,-0.01 C -0.682,0.019 -0.701,0 -0.71,-0.028 v -0.066 c 0,-0.029 0.009,-0.039 0.028,-0.039 -0.01,-0.009 -0.019,-0.019 -0.047,-0.019 l 0.019,-0.009 c -0.01,-0.019 -0.029,-0.038 -0.048,-0.057 -0.009,0 -0.019,-0.009 -0.028,-0.009 -0.048,-0.029 -0.076,-0.038 -0.085,-0.057 0,0 0,0.009 -0.01,0.009 -0.028,0.038 -0.066,0.067 -0.114,0.067 -0.009,0 -0.028,-0.01 -0.047,-0.01 -0.019,-0.009 -0.038,-0.019 -0.057,-0.038 -0.019,-0.009 -0.038,-0.028 -0.057,-0.038 0,-0.009 0,-0.009 -0.009,-0.009 -0.019,-0.019 -0.038,-0.038 -0.057,-0.047 -0.009,-0.01 -0.028,-0.019 -0.038,-0.029 -0.019,-0.009 -0.028,-0.019 -0.047,-0.028 0,0 -0.01,-0.01 -0.019,-0.01 l -0.019,0.019 -0.028,-0.028 -0.029,-0.019 -0.057,-0.048 -0.028,-0.028 c 0,-0.009 0.009,-0.009 0.019,-0.009 h 0.009 c 0.01,0 0.019,0.009 0.019,0.009 0.019,0.019 0.029,0.019 0.038,0.028 l 0.019,-0.018 c -0.009,0 -0.019,-0.01 -0.019,-0.019 v -0.029 c 0.01,0 0.019,-0.009 0.029,-0.009 0.009,-0.01 0.028,-0.019 0.047,-0.019 0.009,-0.01 0.019,-0.01 0.019,-0.01 0.019,-0.009 0.038,-0.009 0.047,-0.009 h 0.01 0.028 c 0.028,0.009 0.047,0.028 0.047,0.056 0,0 -0.019,0.01 -0.047,0.029 -0.009,0 -0.019,0.01 -0.038,0.019 -0.019,0.009 -0.028,0.019 -0.047,0.028 -0.01,0.01 -0.019,0.02 -0.019,0.029 l 0.019,0.01 h 0.047 l 0.038,0.009 h 0.01 l -0.01,0.009 -0.028,0.029 c 0.009,0.009 0.019,0.019 0.028,0.028 0.028,0.019 0.047,0.038 0.066,0.048 h 0.029 c 0.019,-0.01 0.028,-0.029 0.028,-0.038 v -0.01 c 0.019,-0.019 0.038,-0.019 0.057,-0.009 0.029,0.009 0.047,0.019 0.047,0.019 0.019,0 0.029,-0.01 0.038,-0.029 l -0.028,-0.019 c 0.009,0 0.019,0.01 0.028,0.01 0.01,0 0.029,-0.01 0.057,-0.038 0,0 0.01,0.009 0.019,0.009 h 0.029 c 0,0.019 0,0.038 0.009,0.038 l 0.028,-0.019 v 0.029 c 0,0.009 0.01,0.019 0.019,0.019 0.019,-0.019 0.029,-0.029 0.038,-0.048 0.01,-0.009 0.01,-0.009 0.019,-0.019 l 0.057,0.038 0.028,-0.019 -0.047,-0.028 c 0.028,0 0.038,0 0.047,0.009 v -0.057 c 0.01,0 0.01,0.01 0.01,0.01 0.009,0.01 0.019,0.01 0.028,0.01 0.004,-0.002 0.007,-0.005 0.01,-0.007 0,0.002 0,0.005 0,0.007 0,0 0,0.009 0.009,0.009 0.01,0.01 0.019,0.019 0.038,0.019 h 0.01 c 0.028,0 0.047,0.009 0.056,0.028 v -0.047 c 0,-0.019 0.01,-0.038 0.019,-0.048 v 0.048 c 0.01,0 0.019,0 0.019,-0.009 0.019,-0.01 0.029,-0.029 0.029,-0.048 v -0.085 h 0.009 0.057 0.076 0.009 0.019 0.038 c 0.019,0 0.028,0.009 0.038,0.009 0.009,0.01 0.019,0.01 0.028,0.019 0,-0.009 0.01,-0.009 0.01,-0.019 v -0.009 c 0.019,-0.01 0.038,-0.01 0.057,-0.01 h 0.038 0.028 c 0.009,0 0.019,0 0.019,0.01 0.019,0 0.038,0.009 0.047,0.028 v -0.019 l 0.01,-0.019 c 0.019,0.01 0.019,0.029 0.019,0.038 v 0.029 0.028 c 0,0.019 0,0.028 0.009,0.048 l -0.038,0.009 v 0.038 0.009 l 0.01,0.01 c 0.019,-0.01 0.028,-0.019 0.028,-0.01 -0.009,0.019 -0.019,0.048 -0.019,0.086 0,0.009 0,0.018 0.01,0.037 v 0.038 c 0,0.038 -0.01,0.066 -0.029,0.095 v 0.009 c 0.029,0.029 0.038,0.067 0.038,0.123 V 0.152 L 0.057,0.208 c 0.019,-0.009 0.038,0 0.057,0.019 0.028,0.019 0.047,0.029 0.057,0.029 0,0 0.009,-0.01 0.018,-0.01 -0.009,0 -0.009,0.01 -0.009,0.019 0,0.01 0,0.029 0.009,0.067 0.01,0.037 0.019,0.066 0.019,0.085 0,0.019 -0.009,0.038 -0.019,0.047 C 0.152,0.455 0.123,0.445 0.095,0.426"
             style="fill:#111211;fill-opacity:1;fill-rule:nonzero;stroke:none"
             id="path27860"
             inkscape:connector-curvature="0" />
        </g>
        <g
           id="g27862"
           transform="translate(160.6459,114.6488)">
          <path
             d="M 0,0 H 0.009 V 0.019 H 0 -0.047 C -0.047,0.01 -0.047,0 -0.028,0 Z"
             style="fill:#111211;fill-opacity:1;fill-rule:nonzero;stroke:none"
             id="path27864"
             inkscape:connector-curvature="0" />
        </g>
        <g
           id="g27866"
           transform="translate(160.6742,114.5638)">
          <path
             d="m 0,0 h -0.009 l -0.01,-0.01 H -0.028 V 0.019 L -0.076,-0.019 C -0.085,-0.01 -0.095,-0.01 -0.095,0 c 0,0 0.01,0.009 0.01,0.019 0.009,0.009 0.009,0.019 0.009,0.019 -0.028,0 -0.037,0.009 -0.047,0.018 L -0.151,0.028 -0.104,0.009 -0.123,-0.029 h 0.066 c 0.01,-0.009 0.019,-0.009 0.029,0 0.019,0 0.028,0 0.037,0.01 C 0.009,-0.01 0.009,0 0,0"
             style="fill:#111211;fill-opacity:1;fill-rule:nonzero;stroke:none"
             id="path27868"
             inkscape:connector-curvature="0" />
        </g>
        <g
           id="g27870"
           transform="translate(160.6459,114.7344)">
          <path
             d="M 0,0 -0.019,-0.019 H 0 0.038 L 0.009,0.009 Z"
             style="fill:#111211;fill-opacity:1;fill-rule:nonzero;stroke:none"
             id="path27872"
             inkscape:connector-curvature="0" />
        </g>
        <g
           id="g27874"
           transform="translate(160.6459,115.0943)">
          <path
             d="M 0,0 C 0,0 -0.003,0.002 -0.006,0.005 -0.004,0.004 -0.002,0.002 0,0"
             style="fill:#111211;fill-opacity:1;fill-rule:nonzero;stroke:none"
             id="path27876"
             inkscape:connector-curvature="0" />
        </g>
        <g
           id="g27878"
           transform="translate(160.5039,115.0848)">
          <path
             d="M 0,0 H 0.009 L 0.038,0.038 H 0 -0.029 c 0,-0.01 -0.009,-0.01 -0.009,-0.019 l 0.009,-0.01 z"
             style="fill:#111211;fill-opacity:1;fill-rule:nonzero;stroke:none"
             id="path27880"
             inkscape:connector-curvature="0" />
        </g>
        <g
           id="g27882"
           transform="translate(160.2103,114.9235)">
          <path
             d="m 0,0 h 0.009 0.019 l -0.019,-0.009 -0.018,-0.01 z m -0.228,0.265 -0.113,0.038 0.095,-0.066 c 0.009,-0.01 0.009,-0.019 0.018,-0.029 0.019,-0.047 0.048,-0.094 0.095,-0.142 0.029,-0.038 0.057,-0.075 0.086,-0.113 0.018,-0.019 0.038,-0.038 0.047,-0.057 h 0.009 0.019 l -0.009,0.019 c 0,0 0,0.009 0.009,0.019 0,0.009 0.01,0.009 0.019,0.019 0.038,-0.019 0.067,-0.029 0.086,-0.029 L 0.151,0.01 C 0.142,0 0.142,-0.009 0.133,-0.028 c 0,-0.01 -0.01,-0.019 -0.029,-0.019 H 0.095 C 0.066,-0.028 0.057,-0.019 0.057,0 0.057,0.01 0.076,0.019 0.114,0.028 0.142,0.047 0.161,0.057 0.161,0.076 0.18,0.066 0.18,0.066 0.18,0.047 V 0.019 H 0.218 V 0.01 c 0.009,0 0.019,0.009 0.038,0.009 h 0.009 c 0.01,0.009 0.019,0.009 0.029,0.009 0.009,0 0.009,0 0.018,-0.009 L 0.303,0.01 C 0.322,0.01 0.341,0 0.341,0 L 0.36,0.01 C 0.331,0.038 0.312,0.047 0.294,0.057 H 0.284 0.265 c 0,-0.01 -0.009,-0.01 -0.009,-0.01 0,0 0,0.01 0.009,0.029 H 0.218 0.18 c 0,0 0,0.009 0.019,0.028 -0.01,0.01 -0.029,0.01 -0.038,0.01 H 0.142 0.123 c -0.019,0 -0.038,0.009 -0.028,0.047 L 0.066,0.133 C 0.057,0.142 0.057,0.161 0.047,0.171 0.038,0.18 0.028,0.18 0.009,0.189 c -0.009,0 -0.018,0 -0.038,0.01 h -0.018 c -0.048,0 -0.076,0.009 -0.086,0.009 l 0.019,0.019 z"
             style="fill:#111211;fill-opacity:1;fill-rule:nonzero;stroke:none"
             id="path27884"
             inkscape:connector-curvature="0" />
        </g>
        <g
           id="g27886"
           transform="translate(160.1629,116.4297)">
          <path
             d="m 0,0 c 0.019,0 0.038,0 0.057,-0.009 h 0.037 0.01 c 0.057,0 0.114,0 0.161,-0.01 h 0.047 0.029 c 0.066,0 0.114,0 0.142,-0.01 H 0.511 V 0.454 H 0.483 0.341 0.312 0.265 0.094 0.057 0 -0.18 -0.303 L -0.322,0.028 C -0.275,0.019 -0.237,0.019 -0.18,0.009 -0.133,0.009 -0.066,0 0,0"
             style="fill:#111211;fill-opacity:1;fill-rule:nonzero;stroke:none"
             id="path27888"
             inkscape:connector-curvature="0" />
        </g>
        <g
           id="g27890"
           transform="translate(160.5795,114.696)">
          <path
             d="m 0,0 -0.076,0.019 h -0.018 v 0.095 h -0.01 L -0.151,0.048 h -0.01 l -0.028,0.018 0.018,0.019 C -0.189,0.076 -0.199,0.066 -0.199,0.066 c 0,-0.009 0.01,-0.018 0.028,-0.018 l 0.02,-0.019 0.009,-0.01 C -0.133,0.01 -0.114,0.01 -0.104,0 c 0.01,0 0.019,-0.01 0.028,-0.01 0.019,0 0.029,-0.009 0.047,-0.009 C -0.019,-0.019 0,-0.01 0,0"
             style="fill:#111211;fill-opacity:1;fill-rule:nonzero;stroke:none"
             id="path27892"
             inkscape:connector-curvature="0" />
        </g>
        <g
           id="g27894"
           transform="translate(160.409,114.9045)">
          <path
             d="M 0,0 V -0.028 L 0.019,-0.009 0.029,0 h -0.01 z"
             style="fill:#111211;fill-opacity:1;fill-rule:nonzero;stroke:none"
             id="path27896"
             inkscape:connector-curvature="0" />
        </g>
        <g
           id="g27898"
           transform="translate(160.6269,115.1037)">
          <path
             d="M 0,0 C 0.002,0 0.004,-0.001 0.006,-0.001 0.002,0 0,0 0,0"
             style="fill:#111211;fill-opacity:1;fill-rule:nonzero;stroke:none"
             id="path27900"
             inkscape:connector-curvature="0" />
        </g>
        <path
           d="m 160.655,115.208 h -0.009 v 0.038 h 0.009 z m 0,0.076 h -0.009 c -0.047,0 -0.095,0.009 -0.142,0.009 h -0.029 -0.047 c -0.066,0.009 -0.123,0.009 -0.171,0.009 h -0.038 c -0.018,0 -0.037,0 -0.056,0.01 h -0.066 c -0.019,0.01 -0.048,0.01 -0.114,0.019 -0.057,0 -0.095,0.009 -0.124,0.019 -0.009,-0.01 -0.018,-0.01 -0.018,-0.019 0,-0.009 0.009,-0.009 0.028,-0.019 0.019,-0.01 0.038,-0.019 0.038,-0.028 l 0.028,0.028 0.048,-0.038 0.028,-0.028 c 0.01,-0.01 0.038,-0.019 0.076,-0.029 0.028,0 0.047,-0.009 0.057,-0.009 l 0.009,0.009 c 0,-0.009 0.01,-0.009 0.01,-0.019 0.009,-0.009 0.028,-0.028 0.056,-0.038 h 0.029 c 0.009,0 0.009,-0.009 0.009,-0.009 0.057,-0.009 0.086,-0.028 0.105,-0.047 0.019,0.028 0.028,0.047 0.047,0.056 0.009,0 0.009,0.01 0.019,0.01 0.01,0.009 0.019,0.019 0.038,0.019 0,0.019 0,0.038 0.009,0.038 h 0.01 l 0.009,-0.01 c 0,0 0,-0.009 0.01,-0.009 0.009,-0.019 0.009,-0.029 0,-0.048 l 0.066,0.057 0.01,-0.009 -0.038,-0.048 c 0.009,-0.009 0.009,-0.009 0.019,-0.009 0,0 0.009,0 0.009,0.009 0.01,0.01 0.01,0.019 0.029,0.019 0.018,-0.009 0.028,-0.019 0.028,-0.028 0,-0.009 -0.01,-0.019 -0.019,-0.038 -0.019,-0.009 -0.028,-0.028 -0.028,-0.028 0.009,0 0.009,0 0.019,0.009 0.009,0.01 0.018,0.01 0.028,0.01 0.009,0.009 0.009,0.019 0.019,0.019 h 0.028 c 0.01,0.019 0.01,0.028 0.01,0.047 0,0.019 0,0.038 -0.01,0.066 -0.009,0.029 -0.019,0.048 -0.019,0.048"
           style="fill:#111211;fill-opacity:1;fill-rule:nonzero;stroke:none"
           id="path27902"
           inkscape:connector-curvature="0" />
        <g
           id="g27904"
           transform="translate(160.1629,114.6396)">
          <path
             d="m 0,0 c -0.019,0.009 -0.019,0.019 -0.019,0.019 0,0.009 0,0.009 0.009,0.009 L 0,0.019 0.019,-0.01 c 0,0 -0.01,0 -0.019,0.01 M -0.18,0.085 -0.218,0.056 -0.246,0.123 c 0,0 0.009,-0.009 0.019,-0.019 0.009,-0.009 0.028,0 0.047,0.01 v 0.009 c 0.019,0.019 0.038,0.028 0.057,0.019 z M 0.294,0.009 C 0.284,0.019 0.275,0.019 0.265,0.019 0.255,0.028 0.237,0.028 0.227,0.028 L 0.208,-0.038 C 0.189,-0.029 0.17,-0.01 0.161,0.028 0.161,0.056 0.142,0.076 0.123,0.076 H 0.094 v -0.01 c 0,-0.01 -0.009,-0.01 -0.018,-0.019 -0.01,0 -0.01,0.009 -0.01,0.019 V 0.104 H 0.057 C 0.038,0.123 0.019,0.132 0,0.142 -0.01,0.151 -0.019,0.161 -0.029,0.161 -0.057,0.189 -0.076,0.199 -0.095,0.199 h -0.019 l 0.029,0.047 c -0.01,0.019 -0.019,0.019 -0.038,0.019 -0.01,0 -0.019,0 -0.038,-0.009 -0.01,0 -0.019,0 -0.019,-0.01 h -0.019 v 0.019 c 0,0.009 0,0.019 0.019,0.019 h 0.009 c 0.019,0.01 0.029,0.019 0.029,0.028 L -0.161,0.331 -0.18,0.303 -0.199,0.294 -0.218,0.303 c 0,0.009 0.009,0.019 0.019,0.028 0.01,0.01 0.01,0.01 0.019,0.019 l 0.009,0.01 -0.009,0.009 -0.047,0.019 0.009,0.01 c -0.019,0.047 -0.057,0.085 -0.104,0.094 0,-0.085 0.009,-0.142 0.047,-0.161 -0.028,-0.009 -0.047,-0.028 -0.047,-0.057 0,0 0.009,-0.018 0.009,-0.028 0.01,-0.019 0.01,-0.028 0.01,-0.028 0,-0.019 0,-0.029 -0.019,-0.038 L -0.294,0.151 -0.322,0.123 c 0.028,0 0.047,0 0.047,-0.009 L -0.313,0.085 c 0,-0.009 -0.009,-0.009 -0.009,-0.019 0,-0.01 0.019,-0.019 0.047,-0.019 0.029,0 0.048,-0.019 0.048,-0.038 -0.029,-0.019 -0.048,-0.028 -0.057,-0.028 -0.01,0 -0.019,0.009 -0.019,0.009 v -0.085 l 0.123,0.038 0.019,0.01 v -0.048 h 0.047 v -0.009 h 0.029 c 0.028,0 0.037,0.009 0.056,0.019 0,0.028 0.01,0.047 0.019,0.066 0,-0.01 0.01,-0.019 0.01,-0.028 0.009,0 0.009,-0.01 0.009,-0.01 0,-0.009 0.019,-0.009 0.038,-0.019 L 0.038,-0.095 h 0.019 0.019 0.018 c 0.019,0 0.039,0.01 0.058,0.01 0.037,0.019 0.066,0.019 0.075,0.028 l -0.019,-0.019 0.057,-0.009 0.019,-0.01 c 0,0 0.01,0.019 0.01,0.048 0.009,0.018 0.009,0.028 0.018,0.028 h 0.02 c 0,0 -0.01,0.009 -0.02,0.019 0,0.009 -0.009,0.009 -0.018,0.009"
             style="fill:#111211;fill-opacity:1;fill-rule:nonzero;stroke:none"
             id="path27906"
             inkscape:connector-curvature="0" />
        </g>
        <g
           id="g27908"
           transform="translate(158.903,116.5338)">
          <path
             d="m 0,0 c 0.019,-0.009 0.028,-0.009 0.047,-0.009 h 0.067 c 0.066,0 0.113,-0.01 0.161,-0.019 0.038,0 0.066,-0.01 0.085,-0.019 h 0.028 0.029 0.009 c 0.01,0 0.057,-0.01 0.133,-0.019 0.028,0 0.066,-0.01 0.114,-0.01 v 0.048 c 0,0.028 0,0.066 0.009,0.123 0.009,0.057 0.009,0.104 0.009,0.132 0,0.048 -0.009,0.085 -0.018,0.123 H 0.559 0.426 0.388 0.275 0.047 0 -0.076 -0.132 V 0.01 C -0.123,0.01 -0.104,0 -0.076,0 Z"
             style="fill:#111211;fill-opacity:1;fill-rule:nonzero;stroke:none"
             id="path27910"
             inkscape:connector-curvature="0" />
        </g>
        <g
           id="g27912"
           transform="translate(159.547,114.63)">
          <path
             d="m 0,0 -0.085,0.076 -0.01,0.01 h 0.01 0.057 c -0.01,-0.01 -0.01,-0.02 -0.01,-0.029 0,0 0.01,-0.01 0.019,-0.019 C 0,0.029 0,0.019 0,0 m -0.085,0.493 0.028,0.028 V 0.474 h -0.028 l -0.029,-0.01 z m -0.133,0.322 -0.019,-0.01 v 0.028 h 0.019 0.01 z m -0.038,-0.872 -0.028,-0.009 0.019,0.028 h 0.009 0.019 z m -0.388,0.341 h -0.01 c -0.006,0 -0.012,-0.005 -0.019,-0.014 0,-0.007 0.001,-0.014 0.001,-0.024 0,0.01 -0.01,0.01 -0.01,0.01 0.003,0.006 0.006,0.01 0.009,0.014 -0.001,0.015 -0.003,0.024 -0.009,0.024 h 0.038 0.038 c 0,0 -0.01,-0.01 -0.038,-0.01 m 0.01,-0.331 h -0.01 -0.01 v 0.037 h 0.01 0.01 z M -0.71,0.19 -0.72,0.208 -0.739,0.237 -0.72,0.218 -0.71,0.208 Z M 0.161,1.213 H 0.01 -0.085 -0.218 c -0.019,-0.01 -0.028,-0.01 -0.038,-0.01 -0.038,0 -0.075,-0.009 -0.113,-0.009 -0.076,-0.01 -0.152,-0.029 -0.228,-0.048 -0.019,0 -0.028,0 -0.047,-0.009 h -0.019 c 0.009,0 0.019,-0.01 0.019,-0.01 0.01,0 0.019,0 0.028,-0.01 C -0.625,1.108 -0.634,1.099 -0.644,1.089 -0.672,1.051 -0.682,1.004 -0.672,0.928 -0.663,0.833 -0.663,0.767 -0.682,0.739 -0.691,0.748 -0.701,0.748 -0.72,0.748 -0.758,0.748 -0.786,0.739 -0.795,0.71 L -0.758,0.663 C -0.767,0.654 -0.776,0.654 -0.776,0.654 L -0.795,0.426 -0.758,0.379 c -0.018,0 -0.018,0 -0.018,-0.01 L -0.758,0.35 c 0.01,-0.009 0,-0.018 -0.009,-0.028 H -0.776 C -0.795,0.256 -0.795,0.218 -0.795,0.218 c 0,-0.047 0.019,-0.067 0.066,-0.057 0,-0.01 -0.01,-0.01 -0.029,-0.01 -0.028,0 -0.047,-0.009 -0.037,-0.028 0.019,0 0.037,-0.009 0.037,-0.019 -0.018,-0.028 -0.018,-0.075 -0.018,-0.123 0,-0.028 0,-0.057 0.009,-0.076 0.019,0.019 0.038,0.038 0.047,0.057 0,0.01 0.01,0.019 0.01,0.028 0.009,-0.018 0.019,-0.037 0.028,-0.056 0.01,-0.019 0.019,-0.029 0.038,-0.029 h 0.028 0.019 c 0.019,0 0.029,0.01 0.038,0.029 0.01,0 0.038,-0.01 0.067,-0.01 0.037,-0.009 0.056,-0.009 0.075,-0.009 h 0.048 c 0.038,0 0.075,-0.01 0.113,-0.01 h 0.038 0.038 0.095 c 0.047,0 0.085,0.01 0.114,0.029 0,0 -0.01,0.009 -0.01,0.019 0,0.009 0.01,0.019 0.019,0.047 0,0.019 0.009,0.038 0.009,0.047 C 0.047,0.066 0.029,0.086 0,0.095 L 0.047,0.123 C 0.029,0.132 0.019,0.142 0.019,0.161 c 0,0 0,0.019 0.01,0.029 0.009,0.018 0.009,0.028 0.009,0.038 0,0 0,0.009 -0.009,0.018 -0.019,0 -0.038,0 -0.048,0.01 L 0,0.275 c 0.019,-0.01 0.029,-0.01 0.038,-0.01 0,0 0.009,0 0.009,0.01 0,0.009 0,0.009 -0.009,0.019 v 0.028 c 0,0.01 0,0.019 0.009,0.019 C 0.029,0.417 0.01,0.474 0,0.502 c 0.019,0.01 0.029,0.019 0.029,0.019 0.018,0.019 0.018,0.047 0.018,0.085 0,0.038 -0.009,0.076 -0.028,0.095 0,0 0.01,0.019 0.01,0.038 0,0.009 0.009,0.019 0.018,0.019 0.01,0 0.019,-0.01 0.029,-0.01 -0.01,0.01 -0.019,0.019 -0.019,0.029 0,0.009 0.009,0.019 0.019,0.038 0.009,0.009 0.009,0.028 0.009,0.028 0.029,-0.019 0.038,-0.028 0.057,-0.028 0.01,0 0.019,0.018 0.038,0.057 0.01,0.037 0.029,0.056 0.048,0.056 L 0.256,0.891 C 0.265,0.919 0.265,0.947 0.265,0.995 0.265,1.071 0.256,1.137 0.237,1.203 0.209,1.174 0.19,1.184 0.161,1.213"
             style="fill:#111211;fill-opacity:1;fill-rule:nonzero;stroke:none"
             id="path27914"
             inkscape:connector-curvature="0" />
        </g>
        <g
           id="g27916"
           transform="translate(160.4469,115.5771)">
          <path
             d="m 0,0 h -0.009 -0.01 C -0.022,0.003 -0.024,0.005 -0.026,0.007 -0.027,0.005 -0.029,0.003 -0.029,0 -0.038,-0.009 -0.047,-0.019 -0.047,-0.019 l -0.01,0.01 c 0.01,0.009 0.019,0.019 0.019,0.019 0.006,0 0.008,-0.001 0.012,-0.003 0.003,0.003 0.007,0.006 0.007,0.012 H 0 c 0.01,0 0.01,0 0.019,-0.009 C 0.019,0 0.01,0 0,0 m -0.009,-0.066 c 0,-0.01 -0.01,-0.01 -0.01,-0.019 h -0.01 -0.028 l -0.009,0.009 h 0.037 c 0,0.01 0.01,0.01 0.01,0.01 C 0,-0.066 0,-0.057 0,-0.048 0.01,-0.057 0,-0.066 -0.009,-0.066 m 0.35,0.312 c 0,0.019 0.01,0.029 0.019,0.038 C 0.351,0.275 0.332,0.265 0.332,0.265 0.313,0.265 0.303,0.275 0.284,0.284 0.265,0.303 0.256,0.313 0.237,0.303 L 0.227,0.786 H 0.199 c -0.038,0 -0.085,0 -0.142,0.009 H 0.028 -0.019 -0.114 c -0.018,0.01 -0.047,0.01 -0.076,0.01 h -0.037 c -0.019,0 -0.038,0 -0.057,0.01 h -0.152 -0.028 c -0.047,0 -0.095,0 -0.133,-0.01 0,0.01 -0.009,-0.01 -0.009,-0.056 0,-0.029 0.009,-0.048 0.028,-0.048 -0.009,-0.009 -0.019,-0.048 -0.028,-0.104 0,-0.067 0,-0.104 -0.01,-0.123 h -0.227 c -0.019,0.019 -0.028,0.047 -0.028,0.085 0,0.047 0,0.076 -0.01,0.085 0.019,0.019 0.029,0.048 0.029,0.095 0,0.028 0,0.056 -0.019,0.104 -0.029,-0.009 -0.076,-0.009 -0.114,0 -0.047,0 -0.085,0 -0.133,0.01 h -0.037 c -0.038,0.009 -0.076,0.009 -0.114,0.019 h -0.01 C -1.364,0.891 -1.43,0.9 -1.497,0.9 -1.515,0.9 -1.525,0.909 -1.544,0.909 H -1.62 -1.695 V 0.786 c 0,-0.057 0.009,-0.094 0.028,-0.123 -0.019,-0.057 -0.038,-0.114 -0.038,-0.17 0,-0.029 0.01,-0.095 0.029,-0.199 h 0.018 c 0,0.019 0.01,0.038 0.019,0.038 0.019,-0.01 0.019,-0.019 0.01,-0.029 0.009,0 0.009,0 0.009,0.01 h 0.01 c 0.019,0 0.028,-0.01 0.028,-0.029 0.01,-0.028 0.01,-0.038 0.019,-0.047 0.01,0 0.01,0.009 0.019,0.009 0.019,0 0.029,0 0.047,0.01 0.076,0.019 0.152,0.028 0.228,0.038 0.038,0 0.076,0.009 0.114,0.009 0.009,0 0.018,0 0.037,0.01 h 0.133 0.085 c 0.114,0 0.218,0 0.313,-0.019 V 0.17 c 0.009,-0.047 0.009,-0.122 0.009,-0.227 0.01,0 0.019,0 0.029,0.009 0.009,0.01 0.019,0.01 0.019,0.01 0.028,-0.01 0.047,-0.028 0.047,-0.047 v -0.029 -0.018 c 0,-0.019 0,-0.029 0.01,-0.038 h 0.009 c 0.038,0 0.095,-0.01 0.18,-0.02 0.019,0 0.038,-0.009 0.057,-0.009 h 0.037 c 0.019,-0.009 0.048,-0.009 0.076,-0.009 0.029,-0.01 0.067,-0.01 0.095,-0.019 h 0.047 0.029 c 0.047,-0.01 0.095,-0.01 0.142,-0.01 h 0.038 l -0.01,0.038 0.133,0.019 v 0.37 c -0.028,0 -0.047,0 -0.047,0.009 0.019,0.01 0.028,0.01 0.028,0.01 z"
             style="fill:#111211;fill-opacity:1;fill-rule:nonzero;stroke:none"
             id="path27918"
             inkscape:connector-curvature="0" />
        </g>
        <g
           id="g27920"
           transform="translate(160.6459,115.0848)">
          <path
             d="M 0,0 H 0.009 V 0.009 H 0 L -0.019,0 Z"
             style="fill:#111211;fill-opacity:1;fill-rule:nonzero;stroke:none"
             id="path27922"
             inkscape:connector-curvature="0" />
        </g>
        <g
           id="g27924"
           transform="translate(160.4944,115.1555)">
          <path
             d="M 0,0 -0.009,-0.005 C -0.005,-0.005 -0.002,-0.002 0,0"
             style="fill:#111211;fill-opacity:1;fill-rule:nonzero;stroke:none"
             id="path27926"
             inkscape:connector-curvature="0" />
        </g>
        <g
           id="g27928"
           transform="translate(160.5039,115.1602)">
          <path
             d="M 0,0 C -0.005,0 -0.007,-0.002 -0.009,-0.005 Z"
             style="fill:#111211;fill-opacity:1;fill-rule:nonzero;stroke:none"
             id="path27930"
             inkscape:connector-curvature="0" />
        </g>
        <g
           id="g27932"
           transform="translate(162.531,116.5338)">
          <path
             d="M 0,0 C -0.01,-0.028 -0.029,-0.047 -0.048,-0.047 L -0.114,0 -0.123,-0.066 c 0.009,0 0.019,-0.01 0.038,-0.01 v -0.047 c 0,0.038 -0.029,0.057 -0.086,0.057 l -0.019,-0.01 -0.009,0.01 c 0,0.009 0.009,0.019 0.019,0.028 0.019,0.01 0.028,0.019 0.028,0.029 0,0 -0.009,0.009 -0.019,0.019 0,-0.001 0,-0.001 0,-0.001 -0.019,-0.028 -0.038,-0.047 -0.066,-0.056 h -0.01 -0.028 c -0.028,-0.01 -0.047,-0.01 -0.047,-0.019 0,0.009 0.009,0.009 0.009,0.019 0,0 -0.009,0.009 -0.037,0.028 0,0 -0.01,0 -0.02,0.01 -0.047,0.019 -0.075,0.028 -0.075,0.028 l -0.019,0.019 0.038,0.028 0.009,-0.047 0.067,0.028 h 0.028 l -0.019,0.019 c 0.028,-0.028 0.047,-0.038 0.057,-0.028 h 0.009 l 0.009,0.009 -0.009,0.01 c -0.009,0.009 -0.019,0.009 -0.019,0.009 h 0.019 0.038 0.028 c 0,-0.019 -0.009,-0.038 -0.028,-0.056 L -0.247,0 c 0,-0.009 0.01,-0.009 0.01,-0.019 h 0.019 c 0.016,0 0.031,0.013 0.047,0.028 0,0 0,0.001 0,0.001 v 0 c 0.003,0.003 0.007,0.006 0.01,0.009 -0.01,0.009 -0.01,0.019 -0.01,0.019 0,0.009 0.01,0.019 0.019,0.019 0.016,0.008 0.025,0.016 0.028,0.031 -0.004,0.005 -0.005,0.011 0.001,0.016 V 0.095 c 0,-0.003 -0.001,-0.005 -0.001,-0.007 0.002,-0.004 0.006,-0.008 0.01,-0.012 0.01,-0.01 0.019,-0.01 0.019,-0.01 h 0.047 c -0.028,0 -0.047,-0.009 -0.047,-0.019 0.01,-0.019 0.019,-0.019 0.038,-0.019 0.009,0 0.019,0 0.038,0.019 C -0.01,0.057 0,0.066 0,0.066 0,0.076 0.009,0.076 0.009,0.076 0.009,0.057 0.009,0.028 0,0 m -0.35,0.171 h 0.009 c 0.009,0.009 0.019,0 0.028,-0.01 l 0.019,0.01 -0.028,-0.029 0.047,-0.009 0.038,-0.01 c 0.057,0 0.076,-0.009 0.066,-0.019 l -0.066,0.019 h -0.019 -0.019 c -0.028,0 -0.057,-0.009 -0.075,-0.009 -0.01,-0.01 -0.02,-0.019 -0.02,-0.019 -0.009,0.009 -0.019,0.019 -0.019,0.019 0,0.019 0.019,0.038 0.039,0.057 M 0.559,0.057 C 0.53,0.066 0.521,0.076 0.521,0.076 0.53,0.085 0.549,0.095 0.568,0.095 L 0.559,0.303 C 0.549,0.303 0.54,0.312 0.53,0.312 0.521,0.312 0.511,0.303 0.502,0.275 0.492,0.256 0.474,0.246 0.464,0.246 L 0.445,0.303 C 0.426,0.312 0.398,0.322 0.36,0.322 0.331,0.322 0.303,0.312 0.256,0.312 0.208,0.303 0.18,0.303 0.17,0.303 H 0.133 V 0.312 H 0.057 C 0.028,0.322 0.009,0.322 0,0.322 c -0.019,0 -0.038,-0.01 -0.048,-0.019 L -0.085,0.331 H -0.237 -0.247 -0.275 -0.35 C -0.37,0.322 -0.389,0.322 -0.408,0.312 L -0.483,0.35 c -0.01,-0.009 -0.01,-0.019 -0.019,-0.019 0,-0.009 -0.01,-0.019 -0.01,-0.038 0,-0.018 -0.009,-0.028 -0.028,-0.037 -0.01,0.037 -0.019,0.056 -0.019,0.056 0,0.01 0.009,0.019 0.019,0.019 -0.01,0 -0.038,0 -0.085,0.01 -0.038,0 -0.076,0.009 -0.095,0.009 -0.038,0 -0.057,-0.009 -0.076,-0.019 V 0.275 c -0.019,0 -0.028,0.009 -0.038,0.028 -0.019,0.028 -0.019,0.038 -0.028,0.047 h -0.303 c -0.057,0.01 -0.114,0 -0.18,-0.019 v -0.454 l 0.502,-0.01 c 0.009,-0.009 0.009,-0.028 0.009,-0.038 v -0.075 c 0.01,-0.029 0.019,-0.048 0.038,-0.057 -0.019,-0.019 -0.028,-0.047 -0.028,-0.076 0.009,-0.047 0,-0.076 0,-0.085 l 0.132,-0.019 c 0.019,0 0.086,-0.01 0.19,-0.01 h 0.094 c 0.019,0 0.038,-0.009 0.058,-0.009 h 0.075 c 0.009,0 0.028,-0.01 0.038,-0.01 0.047,-0.009 0.085,-0.019 0.123,-0.028 l -0.028,-0.028 c -0.01,0.009 -0.019,0.009 -0.029,0.009 -0.009,0 -0.028,0 -0.047,-0.009 -0.009,0 -0.009,-0.01 -0.019,-0.01 -0.01,0 -0.019,-0.009 -0.029,-0.009 0,0 -0.009,0 -0.009,0.009 -0.009,0 -0.019,0 -0.019,0.01 l -0.056,-0.01 -0.152,-0.019 -0.199,-0.028 0.009,-0.171 c 0.01,0.029 0.029,0.038 0.048,0.038 h 0.038 0.037 c 0.019,0 0.038,0.01 0.067,0.019 0.038,0.01 0.094,0.029 0.152,0.057 h 0.018 c 0.019,0.009 0.038,0.019 0.057,0.019 0.009,0.009 0.028,0.009 0.038,0.019 0.057,0.019 0.114,0.019 0.152,0.019 0.009,0.009 0.037,0.019 0.085,0.028 0.019,0 0.038,0.01 0.057,0.01 0.056,0.019 0.085,0.028 0.104,0.047 H 0.123 c -0.01,0 -0.019,0 -0.019,0.009 L 0.066,-0.568 c -0.019,0.009 -0.028,0.037 -0.028,0.066 -0.01,0.038 -0.019,0.057 -0.029,0.057 0.029,0.028 0.048,0.066 0.048,0.123 0,0.009 -0.01,0.057 -0.019,0.133 0.028,0.047 0.066,0.066 0.123,0.066 0.019,0.009 0.066,0 0.151,-0.01 0.057,-0.009 0.105,0 0.133,0.01 v -0.01 h 0.114 v 0.152 h 0.009 c 0.01,0.009 0.01,0.019 0.01,0.019 0,0.009 -0.01,0.019 -0.019,0.019"
             style="fill:#111211;fill-opacity:1;fill-rule:nonzero;stroke:none"
             id="path27934"
             inkscape:connector-curvature="0" />
        </g>
        <g
           id="g27936"
           transform="translate(162.0667,115.9938)">
          <path
             d="m 0,0 h -0.038 l -0.189,0.009 v -0.037 c 0.056,0 0.113,0.009 0.189,0.019 C -0.028,0 -0.009,0 0,0"
             style="fill:#111211;fill-opacity:1;fill-rule:nonzero;stroke:none"
             id="path27938"
             inkscape:connector-curvature="0" />
        </g>
        <g
           id="g27940"
           transform="translate(162.6918,115.7287)">
          <path
             d="M 0,0 V 0.199 C -0.038,0.189 -0.094,0.17 -0.161,0.151 -0.227,0.132 -0.303,0.114 -0.398,0.085 -0.407,0.076 -0.426,0.076 -0.436,0.066 -0.464,0.057 -0.483,0.047 -0.511,0.047 -0.569,0.028 -0.616,0.009 -0.663,0 -0.748,-0.028 -0.815,-0.047 -0.862,-0.057 v -0.369 c 0.038,-0.009 0.104,-0.029 0.199,-0.047 0.019,0 0.038,0 0.057,-0.01 0.037,0 0.066,-0.01 0.095,-0.01 0.028,-0.009 0.047,-0.009 0.075,-0.018 0.01,0 0.029,0 0.038,-0.01 0.019,0 0.038,-0.01 0.047,-0.01 l 0.029,0.038 0.047,-0.056 h 0.029 c 0.019,0 0.047,0 0.085,-0.01 h 0.009 c 0.048,-0.01 0.076,-0.019 0.095,-0.019 0.01,0.009 0.01,0.019 0.01,0.047 0.009,0.02 0.019,0.029 0.028,0.029 0.009,0 0.009,0 0.019,-0.009 v 0.142 c -0.01,0.018 -0.01,0.037 -0.01,0.056 0,0.019 0,0.048 0.01,0.086 0.009,0.047 0.019,0.075 0.019,0.094 0,0.048 -0.019,0.086 -0.047,0.114 C -0.019,0 -0.01,0 0,0"
             style="fill:#111211;fill-opacity:1;fill-rule:nonzero;stroke:none"
             id="path27942"
             inkscape:connector-curvature="0" />
        </g>
        <g
           id="g27944"
           transform="translate(162.5118,114.7059)">
          <path
             d="M 0,0 -0.019,0.01 H 0.019 C 0.009,0.01 0,0 0,0 m 0.028,0.388 c 0,0.01 0,0.019 -0.009,0.019 -0.01,0.01 -0.019,0.01 -0.028,0.01 -0.029,0 -0.048,0.009 -0.057,0.019 h -0.133 -0.019 c -0.01,0 -0.028,0.009 -0.038,0.009 -0.028,0.009 -0.047,0.009 -0.075,0.019 -0.029,0.009 -0.067,0.019 -0.105,0.028 -0.019,0 -0.028,0 -0.047,0.01 -0.076,0.01 -0.133,0.019 -0.18,0.019 -0.028,0 -0.047,0 -0.076,-0.009 0,-0.039 0.01,-0.067 0.01,-0.086 0.009,-0.028 0.028,-0.047 0.057,-0.066 l -0.01,-0.01 c -0.028,0 -0.047,0 -0.057,0.01 0.01,-0.019 0.01,-0.048 0.01,-0.067 0,-0.028 -0.01,-0.075 -0.01,-0.141 C -0.748,0.095 -0.758,0.038 -0.758,0 c 0,-0.029 0,-0.057 0.01,-0.086 0.019,-0.009 0.028,-0.009 0.028,-0.018 0,-0.01 -0.009,-0.029 -0.038,-0.048 0.01,0 0.019,0.01 0.019,0.01 l 0.019,0.009 c 0.01,0 0.019,-0.019 0.019,-0.038 h 0.218 0.152 0.075 0.038 0.066 c 0.019,0.01 0.048,0.019 0.076,0.019 0.01,0 0.038,-0.009 0.095,-0.019 0.047,-0.009 0.076,-0.009 0.104,0.01 0.01,0.057 0.01,0.142 0.01,0.256 0,0.113 0,0.217 -0.01,0.293 z"
             style="fill:#111211;fill-opacity:1;fill-rule:nonzero;stroke:none"
             id="path27946"
             inkscape:connector-curvature="0" />
        </g>
      </g>
    </g>
  </g>
</svg>
