<?xml version="1.0" encoding="UTF-8"?>
<!-- Created with Inkscape (http://www.inkscape.org/) -->
<svg id="svg51244" width="28.921mm" height="11.906mm" version="1.1" viewBox="0 0 28.921 11.906" xmlns="http://www.w3.org/2000/svg" xmlns:cc="http://creativecommons.org/ns#" xmlns:dc="http://purl.org/dc/elements/1.1/" xmlns:rdf="http://www.w3.org/1999/02/22-rdf-syntax-ns#">
 <defs id="defs51238">
  <clipPath id="clipPath4966">
   <path id="path4964" d="m610.3 337.94h23.811v9.809h-23.811z"/>
  </clipPath>
 </defs>
 <metadata id="metadata51241">
  <rdf:RDF>
   <cc:Work rdf:about="">
    <dc:format>image/svg+xml</dc:format>
    <dc:type rdf:resource="http://purl.org/dc/dcmitype/StillImage"/>
    <dc:title/>
   </cc:Work>
  </rdf:RDF>
 </metadata>
 <g id="layer1" transform="matrix(3.4432 0 0 3.4432 -204.18 -386.77)">
  <g id="g4960" transform="matrix(.35278 0 0 -.35278 -156 235.01)">
   <g id="g4962" clip-path="url(#clipPath4966)">
    <g id="g4968" transform="translate(611.48,345.47)">
     <path id="path4970" d="m0 0v-0.878h-1.181v-1.985h1.181v-4.66h2.111v4.66h1.984v1.985h-1.984v1.179h1.984v1.985h-1.809c-1.261 0-2.286-1.026-2.286-2.286m5.276 0.301h2.111v1.985h-2.111zm0-7.824h2.111v6.645h-2.111zm3.811 0h2.111v9.809h-2.111zm13.543 4.147v-4.147h-2.111v3.865c0 0.798-0.566 0.953-0.85 0.953-0.282 0-0.848-0.155-0.848-0.953v-3.865h-2.111v3.865c0 0.798-0.568 0.953-0.851 0.953s-0.849-0.155-0.849-0.953v-3.865h-2.112v6.645h2.059v-0.566c0.425 0.425 1.056 0.644 1.61 0.644 0.682 0 1.237-0.219 1.686-0.735 0.606 0.528 1.16 0.735 1.958 0.735 0.656 0 1.287-0.219 1.66-0.593 0.592-0.592 0.759-1.248 0.759-1.983" fill="#261c44"/>
    </g>
    <g id="g4972" transform="translate(615.58,345.77)">
     <path id="path4974" d="m0 0h-1.984v-1.181h1.984v-1.984h1.181v1.984h2.111v1.181h-2.111v1.984h-1.181z" fill="#43b4c5"/>
    </g>
   </g>
  </g>
 </g>
 <g id="g4510" transform="translate(29.227 -8.6745)" fill="#43b4c5">
  <path id="path46" d="m-2.9347 11.055v-0.99525h-0.82674v0.99525h-0.51267v-2.3791h0.51267v0.89982h0.82674v-0.89982h0.51275l-8.16e-5 2.3791z" stroke-width=".15665"/>
  <path id="path48" d="m-0.80339 9.8583c0-0.13406-0.018938-0.24541-0.054919-0.33402-0.035981-0.088618-0.085218-0.15906-0.14581-0.21132-0.0606-0.054534-0.12877-0.090891-0.20642-0.11361-0.077643-0.022723-0.15718-0.034084-0.2405-0.034084h-0.23861v1.3929h0.22724c0.087114 0 0.16854-0.01136 0.24808-0.03636 0.079537-0.02272 0.1496-0.06135 0.21021-0.11588 0.060601-0.05453 0.10984-0.12497 0.14581-0.21586 0.035981-0.08862 0.054919-0.19996 0.054919-0.33175m0.49806 0c0 0.20905-0.032195 0.38855-0.096582 0.53852-0.064386 0.15224-0.1496 0.27721-0.25376 0.37493-0.10605 0.09771-0.22535 0.16814-0.35792 0.21359-0.13256 0.04772-0.26702 0.07044-0.40336 0.07044h-0.74046v-2.3812h0.71773c0.14013 0 0.27838 0.02045 0.41473 0.059078 0.13635 0.038627 0.25755 0.10452 0.3636 0.19541 0.10794 0.090891 0.19316 0.21132 0.25944 0.36357 0.064388 0.15451 0.096582 0.34084 0.096582 0.56579" stroke-width=".15144"/>
 </g>
</svg>
