<svg id="b" width="6.0779mm" height="3.0339mm" version="1.1" viewBox="0 0 6.0779 3.0339" xmlns="http://www.w3.org/2000/svg">
 <defs id="c">
  <clipPath id="a">
   <path id="d" d="m153.11 78.613h18.106v8.6h-18.106z"/>
  </clipPath>
 </defs>
 <g id="e" transform="translate(-69.154 -133.24)">
  <g id="f" transform="matrix(.35278 0 0 -.35278 72.207 133.24)">
   <path id="g" d="m0 0v-7.623l8.574-0.977-0.951 8.6z" fill="#e2001a"/>
  </g>
  <g id="h" transform="matrix(.35278 0 0 -.35278 69.765 135.03)" fill="#fff">
   <path id="i" d="m0 0v1.081h-0.34v0.44h0.34v1.021h1.501v-0.44h-1.021v-0.581h0.821v-0.44h-0.821v-1.081z" fill="#fff" fill-rule="evenodd"/>
  </g>
  <path id="j" d="m70.372 135.03h0.18344v-0.90382h-0.18344z" fill="#fff"/>
  <g id="k" transform="matrix(.35278 0 0 -.35278 71.262 135.03)" fill="#fff">
   <path id="l" d="m0 0h-1.781v2.562h0.5v-2.122h0.86v0.341l0.421 0.02z" fill="#fff" fill-rule="evenodd"/>
  </g>
  <g id="m" transform="matrix(.35278 0 0 -.35278 72.081 135.03)" fill="#fff">
   <path id="n" d="m0 0h-0.421v1.661l-0.64-0.56-0.641 0.56 0.02-1.661h-0.44v2.562l1.061-0.941 1.061 0.941z" fill="#fff" fill-rule="evenodd"/>
  </g>
  <g id="o" transform="matrix(.35278 0 0 -.35278 74.404 134.71)">
   <path id="p" d="m0 0-0.507-0.897h-0.559l0.816 1.287-0.794 1.249h0.559l0.485-0.882 0.492 0.882h0.559l-0.786-1.249 0.808-1.287h-0.559z" fill="#fff" fill-rule="evenodd"/>
  </g>
  <g id="q" transform="matrix(.35278 0 0 -.35278 14.987 164.01)" fill="#fff">
   <g id="r" clip-path="url(#a)" fill="#fff">
    <g id="s" transform="translate(163.76 83.258)">
     <path id="t" d="m0 0h-0.419v-0.676h0.419v-0.448h-0.889v1.124h-0.347l1e-3 0.404h0.346v1.029h0.889v-0.448h-0.419v-0.581h0.419zm0.015 0h-0.015v0.404h0.015c0.161 0 0.309 0.147 0.309 0.294 0 0.169-0.155 0.287-0.309 0.287h-0.015v0.448h0.015c0.624 0 0.786-0.5 0.786-0.728 0-0.117-0.044-0.33-0.265-0.47 0.236-0.066 0.405-0.301 0.405-0.595 0-0.177-0.155-0.764-0.919-0.764h-0.022v0.448h0.015c0.25 0 0.404 0.161 0.404 0.33 0 0.162-0.118 0.346-0.404 0.346" fill="#fff" fill-rule="evenodd"/>
    </g>
    <g id="u" transform="translate(166.22 82.589)">
     <path id="v" d="m0 0c-0.456 0-0.823 0.368-0.823 0.823 0 0.456 0.367 0.823 0.823 0.823v0.5h-0.015c-0.727 0-1.322-0.588-1.322-1.323 0-0.727 0.595-1.323 1.322-1.323h0.015zv-0.5c0.728 8e-3 1.315 0.596 1.315 1.323 0 0.728-0.587 1.316-1.315 1.323v-0.5c0.456 0 0.823-0.367 0.823-0.823 0-0.455-0.367-0.823-0.823-0.823" fill="#fff" fill-rule="evenodd"/>
    </g>
    <g id="w" transform="translate(153.69 81.58)">
     <path id="x" d="m0 0v-0.68h0.801v-0.137h-0.801v-0.845h-0.147v1.804h1.147v-0.142z" fill="#fff"/>
    </g>
    <g id="y" transform="translate(155.86 80.575)">
     <path id="z" d="m0 0-0.332 0.76c-0.039 0.093-0.08 0.209-0.083 0.209h-2e-3c-3e-3 0-0.044-0.116-0.083-0.209l-0.332-0.76zm0.059-0.131h-0.951l-0.229-0.526h-0.162l0.801 1.804h0.132l0.801-1.804h-0.162z" fill="#fff"/>
    </g>
    <g id="aa" transform="translate(158.23 81.722)">
     <path id="ab" d="m0 0v-1.804h-0.147v0.915c0 0.237 0.013 0.634 0.01 0.634h-2e-3c-3e-3 0-0.08-0.139-0.155-0.273l-0.479-0.833h-0.08l-0.479 0.833c-0.075 0.134-0.152 0.273-0.155 0.273h-3e-3c-2e-3 0 0.011-0.397 0.011-0.634v-0.915h-0.147v1.804h0.139l0.477-0.822c0.162-0.276 0.193-0.356 0.196-0.356h2e-3c3e-3 0 0.034 0.08 0.196 0.356l0.477 0.822z" fill="#fff"/>
    </g>
    <path id="ac" d="m158.74 81.722h0.147v-1.804h-0.147z"/>
    <g id="ad" transform="translate(160.54 80.06)">
     <path id="ae" d="m0 0v-0.142h-1.147v1.804h0.147v-1.662z" fill="#fff"/>
    </g>
    <g id="af" transform="translate(161.86 81.722)">
     <path id="ag" d="m0 0-0.701-0.894v-0.91h-0.147v0.91l-0.701 0.894h0.173l0.487-0.619c0.044-0.056 0.113-0.146 0.116-0.146h2e-3c3e-3 0 0.07 0.09 0.114 0.146l0.484 0.619z" fill="#fff"/>
    </g>
   </g>
  </g>
 </g>
</svg>
