<svg height="3.765197mm" viewBox="0 0 7.3982792 3.765197" width="7.398279mm" xmlns="http://www.w3.org/2000/svg" xmlns:xlink="http://www.w3.org/1999/xlink"><clipPath id="a"><path d="m208.777 198.457h20.977v11.003h-20.977z"/></clipPath><g transform="translate(-55.265146 -89.498353)"><path d="m58.911316 92.835631 3.753555.427919-.416277-3.765197h-3.337278z" fill="#ec1c24"/><g fill="#fff"><path d="m55.880531 91.718983v-.473428h-.148872v-.192616h.148872v-.44697h.657225v.19297h-.446969v.254h.35948v.192616h-.35948v.473428z" fill-rule="evenodd"/><path d="m56.6341 90.597079h.227894v1.121834h-.227894z" fill-rule="evenodd"/><path d="m57.73833 91.718983h-.779992v-1.121833h.219075v.929216h.376767v-.149225l.18415-.0088z" fill-rule="evenodd"/><path d="m58.754965 91.718983h-.18415v-.727428l-.280458.245534-.280459-.245534.0088.727428h-.19297v-1.121833l.464609.412044.464608-.412044z" fill-rule="evenodd"/><path d="m61.637335 91.324789-.221897.392642h-.244828l.357364-.563034-.347486-.547158h.244475l.212372.386292.215547-.386292h.244475l-.344311.547158.354189.563034h-.244828z" fill-rule="evenodd"/><g clip-path="url(#a)" transform="matrix(.35277777 0 0 -.35277777 -18.388679 163.3328)"><g transform="translate(221.058 204.3863)"><path d="m0 0h-.52v-.839h.52v-.557h-1.103v1.396h-.43l.001.501h.429l-.001 1.277h1.104v-.556h-.52v-.721h.52zm.018 0h-.018v.501h.018c.201 0 .383.183.383.365 0 .21-.191.356-.383.356h-.018v.556h.018c.775 0 .976-.62.976-.903 0-.146-.055-.41-.328-.583.292-.082.502-.374.502-.739 0-.219-.192-.949-1.141-.949h-.027v.557h.018c.311 0 .502.2.502.41 0 .201-.146.429-.502.429" fill="#fff" fill-rule="evenodd"/></g><g transform="translate(224.1059 203.5561)"><path d="m0 0c-.566 0-1.021.456-1.021 1.022 0 .565.455 1.021 1.021 1.021v.62h-.018c-.903 0-1.642-.729-1.642-1.641 0-.903.739-1.642 1.642-1.642h.018zm0 0v-.62c.903.009 1.632.739 1.632 1.642 0 .902-.729 1.632-1.632 1.641v-.62c.566 0 1.022-.456 1.022-1.021 0-.566-.456-1.022-1.022-1.022" fill="#fff" fill-rule="evenodd"/></g><g transform="translate(226.7592 200.2455)"><path d="m0 0h-.512v.6h-.436v-.6h-.512v1.684h.512v-.597h.436v.597h.512z" fill="#fff"/></g><g transform="translate(227.4728 200.733)"><path d="m0 0h .233c.165 0 .342.109.342.348 0 .237-.172.361-.342.361h-.233zm.233-.487h-.745v1.684h.745c.496 0 .869-.365.869-.849s-.365-.835-.869-.835" fill="#fff"/></g><g transform="translate(210.2565 200.4167)"><path d="m0 0v-.176h-1.474v2.239h1.455v-.176h-1.273v-.78h1.027v-.17h-1.027v-.937z" fill="#fff"/></g><g transform="translate(211.5071 201.2674)"><path d="m0 0c-.003 0-.08-.118-.144-.208l-.63-.819h-.227l.886 1.168-.812 1.071h.227l.556-.732c.032-.051.141-.208.144-.208h.003c.003 0 .109.157.144.208l.553.732h.228l-.81-1.071.886-1.168h-.227l-.63.819c-.067.09-.141.208-.144.208z" fill="#fff"/></g><g transform="translate(214.3663 202.4796)"><path d="m0 0v-.176h-.768v-2.063h-.185v2.063h-.764v.176z" fill="#fff"/></g><g transform="translate(215.409 201.2674)"><path d="m0 0c .406 0 .624.214.624.521 0 .33-.24.515-.624.515h-.464v-1.036zm.675-1.027-.534.873c-.048-.006-.099-.009-.151-.009h-.454v-.864h-.182v2.239h.636c.512 0 .822-.265.822-.691 0-.326-.179-.55-.486-.639l.557-.909z" fill="#fff"/></g><g transform="translate(218.1115 201.0564)"><path d="m0 0-.413.943c-.048.116-.099.26-.102.26h-.003c-.003 0-.054-.144-.102-.26l-.413-.943zm.074-.163h-1.181l-.284-.653h-.202l.995 2.239h.163l.995-2.239h-.202z" fill="#fff"/></g></g></g></g></svg>