<svg height="3.460009mm" viewBox="0 0 8.3999205 3.4600091" width="8.399921mm" xmlns="http://www.w3.org/2000/svg"><g transform="translate(-59.30004 -112.32952)"><path d="m59.7166 113.13558v.30974h-.416631v.70026h.416631v1.64395h.744714v-1.64395h.699911v-.70026h-.699911v-.41593h.699911v-.70026h-.638175c-.444853 0-.80645.36195-.80645.80645m1.861256-.10619h.744713v-.70026h-.744713zm0 2.76014h.744713v-2.34421h-.744713zm1.344436 0h .744713v-3.4604h-.744713zm4.777669-1.46297v1.46297h-.744714v-1.36349c0-.28152-.199672-.3362-.299861-.3362-.09948 0-.299156.0547-.299156.3362v1.36349h-.744713v-1.36349c0-.28152-.200378-.3362-.300214-.3362-.09984 0-.299509.0547-.299509.3362v1.36349h-.745066v-2.34421h.726369v.19967c.149931-.14993.372533-.22719.567972-.22719.240595 0 .436386.0773.594784.25929.213783-.18626.409222-.25929.690739-.25929.231422 0 .454024.0773.585611.2092.208844.20884.267758.44027.267758.69956" fill="#fff"/><path d="m61.161331 113.02915h-.699911v.41663h.699911v.69991h.416631v-.69991h.744713v-.41663h-.744713v-.69991h-.416631z" fill="#43b4c5"/></g></svg>