<svg height="3.033889mm" viewBox="0 0 6.0779005 3.0338888" width="6.0779mm" xmlns="http://www.w3.org/2000/svg" xmlns:xlink="http://www.w3.org/1999/xlink"><clipPath id="a"><path d="m153.106 78.613h18.106v8.6h-18.106z"/></clipPath><g transform="translate(-69.153864 -133.24249)"><path d="m0 0v-7.623l8.574-.977-.951 8.6z" fill="#e2001a" transform="matrix(.35277777 0 0 -.35277777 72.207048 133.24249)"/><g fill="#fff"><path d="m0 0v1.081h-.34v.44h.34v1.021h1.501v-.44h-1.021v-.581h.821v-.44h-.821v-1.081z" fill-rule="evenodd" transform="matrix(.35277777 0 0 -.35277777 69.764875 135.03196)"/><path d="m70.372322 135.03199h.183445v-.90382h-.183445z"/><path d="m0 0h-1.781v2.562h.5v-2.122h.86v.341l.421.02z" fill-rule="evenodd" transform="matrix(.35277777 0 0 -.35277777 71.26185 135.03196)"/><path d="m0 0h-.421v1.661l-.64-.56-.641.56.02-1.661h-.44v2.562l1.061-.941 1.061.941z" fill-rule="evenodd" transform="matrix(.35277777 0 0 -.35277777 72.081037 135.03196)"/><path d="m0 0-.507-.897h-.559l.816 1.287-.794 1.249h.559l.485-.882.492.882h.559l-.786-1.249.808-1.287h-.559z" fill-rule="evenodd" transform="matrix(.35277777 0 0 -.35277777 74.403618 134.71431)"/><g clip-path="url(#a)" transform="matrix(.35277777 0 0 -.35277777 14.986566 164.00951)"><g transform="translate(163.7629 83.2584)"><path d="m0 0h-.419v-.676h.419v-.448h-.889v1.124h-.347l.001.404h.346v1.029h.889v-.448h-.419v-.581h.419zm.015 0h-.015v.404h.015c.161 0 .309.147.309.294 0 .169-.155.287-.309.287h-.015v.448h.015c.624 0 .786-.5.786-.728 0-.117-.044-.33-.265-.47.236-.066.405-.301.405-.595 0-.177-.155-.764-.919-.764h-.022v.448h.015c.25 0 .404.161.404.33 0 .162-.118.346-.404.346" fill="#fff" fill-rule="evenodd"/></g><g transform="translate(166.2189 82.5894)"><path d="m0 0c-.456 0-.823.368-.823.823 0 .456.367.823.823.823v.5h-.015c-.727 0-1.322-.588-1.322-1.323 0-.727.595-1.323 1.322-1.323h.015zm0 0v-.5c.728.008 1.315.596 1.315 1.323 0 .728-.587 1.316-1.315 1.323v-.5c.456 0 .823-.367.823-.823 0-.455-.367-.823-.823-.823" fill="#fff" fill-rule="evenodd"/></g><g transform="translate(153.6921 81.5802)"><path d="m0 0v-.68h.801v-.137h-.801v-.845h-.147v1.804h1.147v-.142z" fill="#fff"/></g><g transform="translate(155.8647 80.5751)"><path d="m0 0-.332.76c-.039.093-.08.209-.083.209h-.002c-.003 0-.044-.116-.083-.209l-.332-.76zm.059-.131h-.951l-.229-.526h-.162l.801 1.804h.132l.801-1.804h-.162z" fill="#fff"/></g><g transform="translate(158.2331 81.7219)"><path d="m0 0v-1.804h-.147v.915c0 .237.013.634.01.634h-.002c-.003 0-.08-.139-.155-.273l-.479-.833h-.08l-.479.833c-.075.134-.152.273-.155.273h-.003c-.002 0 .011-.397.011-.634v-.915h-.147v1.804h.139l.477-.822c.162-.276.193-.356.196-.356h.002c.003 0 .034.08.196.356l.477.822z" fill="#fff"/></g><path d="m158.738 81.722h.147v-1.804h-.147z"/><g transform="translate(160.537 80.0597)"><path d="m0 0v-.142h-1.147v1.804h.147v-1.662z" fill="#fff"/></g><g transform="translate(161.8643 81.7219)"><path d="m0 0-.701-.894v-.91h-.147v.91l-.701.894h.173l.487-.619c.044-.056.113-.146.116-.146h.002c.003 0 .07.09.114.146l.484.619z" fill="#fff"/></g></g></g></g></svg>