<svg width="7.3983mm" height="3.7652mm" version="1.1" viewBox="0 0 7.3983 3.7652" xmlns="http://www.w3.org/2000/svg">
 <defs>
  <clipPath id="a">
   <path d="m208.78 198.46h20.977v11.003h-20.977z"/>
  </clipPath>
  <clipPath id="b">
   <path d="m208.78 197.72h20.977v12.479h-20.977z"/>
  </clipPath>
 </defs>
 <g transform="translate(-55.265 -89.498)">
  <g transform="matrix(.35278 0 0 -.35278 -18.389 163.33)">
   <g clip-path="url(#b)">
    <g transform="translate(219.12 199.83)">
     <path d="M 0,0 10.64,-1.213 9.46,9.46 H 0 Z" fill="#ec1c24"/>
    </g>
    <g transform="translate(210.53 203)">
     <path d="m0 0v1.342h-0.422v0.546h0.422v1.267h1.863v-0.547h-1.267v-0.72h1.019v-0.546h-1.019v-1.342z" fill="#151515" fill-rule="evenodd"/>
    </g>
    <path d="m212.66 206.18h0.646v-3.18h-0.646z" fill="#151515" fill-rule="evenodd"/>
    <g transform="translate(215.79 203)">
     <path d="m0 0h-2.211v3.18h0.621v-2.634h1.068v0.423l0.522 0.025z" fill="#151515" fill-rule="evenodd"/>
    </g>
    <g transform="translate(218.67 203)">
     <path d="m0 0h-0.522v2.062l-0.795-0.696-0.795 0.696 0.025-2.062h-0.547v3.18l1.317-1.168 1.317 1.168z" fill="#151515" fill-rule="evenodd"/>
    </g>
    <g transform="translate(226.85 204.12)">
     <path d="m0 0-0.629-1.113h-0.694l1.013 1.596-0.985 1.551h0.693l0.602-1.095 0.611 1.095h0.693l-0.976-1.551 1.004-1.596h-0.694z" fill="#fff" fill-rule="evenodd"/>
    </g>
   </g>
  </g>
  <g transform="matrix(.35278 0 0 -.35278 -18.389 163.33)">
   <g clip-path="url(#a)">
    <g transform="translate(221.06 204.39)">
     <path d="m0 0h-0.52v-0.839h0.52v-0.557h-1.103v1.396h-0.43l1e-3 0.501h0.429l-1e-3 1.277h1.104v-0.556h-0.52v-0.721h0.52zm0.018 0h-0.018v0.501h0.018c0.201 0 0.383 0.183 0.383 0.365 0 0.21-0.191 0.356-0.383 0.356h-0.018v0.556h0.018c0.775 0 0.976-0.62 0.976-0.903 0-0.146-0.055-0.41-0.328-0.583 0.292-0.082 0.502-0.374 0.502-0.739 0-0.219-0.192-0.949-1.141-0.949h-0.027v0.557h0.018c0.311 0 0.502 0.2 0.502 0.41 0 0.201-0.146 0.429-0.502 0.429" fill="#fff" fill-rule="evenodd"/>
    </g>
    <g transform="translate(224.11 203.56)">
     <path d="m0 0c-0.566 0-1.021 0.456-1.021 1.022 0 0.565 0.455 1.021 1.021 1.021v0.62h-0.018c-0.903 0-1.642-0.729-1.642-1.641 0-0.903 0.739-1.642 1.642-1.642h0.018zv-0.62c0.903 9e-3 1.632 0.739 1.632 1.642 0 0.902-0.729 1.632-1.632 1.641v-0.62c0.566 0 1.022-0.456 1.022-1.021 0-0.566-0.456-1.022-1.022-1.022" fill="#fff" fill-rule="evenodd"/>
    </g>
    <g transform="translate(226.76 200.25)">
     <path d="m0 0h-0.512v0.6h-0.436v-0.6h-0.512v1.684h0.512v-0.597h0.436v0.597h0.512z" fill="#fff"/>
    </g>
    <g transform="translate(227.47 200.73)">
     <path d="m0 0h0.233c0.165 0 0.342 0.109 0.342 0.348 0 0.237-0.172 0.361-0.342 0.361h-0.233zm0.233-0.487h-0.745v1.684h0.745c0.496 0 0.869-0.365 0.869-0.849s-0.365-0.835-0.869-0.835" fill="#fff"/>
    </g>
    <g transform="translate(210.26 200.42)">
     <path d="m0 0v-0.176h-1.474v2.239h1.455v-0.176h-1.273v-0.78h1.027v-0.17h-1.027v-0.937z" fill="#151515"/>
    </g>
    <g transform="translate(211.51 201.27)">
     <path d="m0 0c-3e-3 0-0.08-0.118-0.144-0.208l-0.63-0.819h-0.227l0.886 1.168-0.812 1.071h0.227l0.556-0.732c0.032-0.051 0.141-0.208 0.144-0.208h3e-3c3e-3 0 0.109 0.157 0.144 0.208l0.553 0.732h0.228l-0.81-1.071 0.886-1.168h-0.227l-0.63 0.819c-0.067 0.09-0.141 0.208-0.144 0.208z" fill="#151515"/>
    </g>
    <g transform="translate(214.37 202.48)">
     <path d="m0 0v-0.176h-0.768v-2.063h-0.185v2.063h-0.764v0.176z" fill="#151515"/>
    </g>
    <g transform="translate(215.41 201.27)">
     <path d="m0 0c0.406 0 0.624 0.214 0.624 0.521 0 0.33-0.24 0.515-0.624 0.515h-0.464v-1.036zm0.675-1.027-0.534 0.873c-0.048-6e-3 -0.099-9e-3 -0.151-9e-3h-0.454v-0.864h-0.182v2.239h0.636c0.512 0 0.822-0.265 0.822-0.691 0-0.326-0.179-0.55-0.486-0.639l0.557-0.909z" fill="#151515"/>
    </g>
    <g transform="translate(218.11 201.06)">
     <path d="m0 0-0.413 0.943c-0.048 0.116-0.099 0.26-0.102 0.26h-3e-3c-3e-3 0-0.054-0.144-0.102-0.26l-0.413-0.943zm0.074-0.163h-1.181l-0.284-0.653h-0.202l0.995 2.239h0.163l0.995-2.239h-0.202z" fill="#151515"/>
    </g>
   </g>
  </g>
 </g>
</svg>
