<?xml version="1.0" encoding="UTF-8" standalone="no"?>
<!-- Created with Inkscape (http://www.inkscape.org/) -->

<svg
   xmlns:dc="http://purl.org/dc/elements/1.1/"
   xmlns:cc="http://creativecommons.org/ns#"
   xmlns:rdf="http://www.w3.org/1999/02/22-rdf-syntax-ns#"
   xmlns:svg="http://www.w3.org/2000/svg"
   xmlns="http://www.w3.org/2000/svg"
   xmlns:sodipodi="http://sodipodi.sourceforge.net/DTD/sodipodi-0.dtd"
   xmlns:inkscape="http://www.inkscape.org/namespaces/inkscape"
   width="7.3994431mm"
   height="2.9606874mm"
   viewBox="0 0 7.3994431 2.9606874"
   version="1.1"
   id="svg93637"
   sodipodi:docname="Film Europe.svg"
   inkscape:version="0.92.0 r15299">
  <defs
     id="defs93631">
    <clipPath
       clipPathUnits="userSpaceOnUse"
       id="clipPath86434">
      <path
         d="m 208.757,392.387 h 20.975 v 8.393 h -20.975 z"
         id="path86432"
         inkscape:connector-curvature="0" />
    </clipPath>
  </defs>
  <sodipodi:namedview
     id="base"
     pagecolor="#ffffff"
     bordercolor="#666666"
     borderopacity="1.0"
     inkscape:pageopacity="0.0"
     inkscape:pageshadow="2"
     inkscape:zoom="22.4"
     inkscape:cx="10.623069"
     inkscape:cy="5.8859395"
     inkscape:document-units="mm"
     inkscape:current-layer="layer1"
     showgrid="false"
     inkscape:window-width="1920"
     inkscape:window-height="1017"
     inkscape:window-x="-8"
     inkscape:window-y="-8"
     inkscape:window-maximized="1"
     fit-margin-top="0"
     fit-margin-left="0"
     fit-margin-right="0"
     fit-margin-bottom="0" />
  <metadata
     id="metadata93634">
    <rdf:RDF>
      <cc:Work
         rdf:about="">
        <dc:format>image/svg+xml</dc:format>
        <dc:type
           rdf:resource="http://purl.org/dc/dcmitype/StillImage" />
        <dc:title></dc:title>
      </cc:Work>
    </rdf:RDF>
  </metadata>
  <g
     inkscape:label="Layer 1"
     inkscape:groupmode="layer"
     id="layer1"
     transform="translate(180.59258,-5.9898953)">
    <g
       transform="matrix(0.35277777,0,0,-0.35277777,-254.23748,147.37617)"
       id="g86428"
       style="fill:#ffffff;fill-opacity:1">
      <g
         id="g86430"
         clip-path="url(#clipPath86434)"
         style="fill:#ffffff;fill-opacity:1">
        <g
           id="g86436"
           transform="translate(228.8925,394.5615)"
           style="fill:#ffffff;fill-opacity:1">
          <path
             d="m 0,0 c -0.17,-0.033 -0.301,-0.108 -0.392,-0.224 -0.092,-0.116 -0.137,-0.275 -0.137,-0.477 0,-0.201 0.045,-0.36 0.137,-0.476 0.091,-0.117 0.222,-0.191 0.392,-0.225 -0.1,0.1 -0.169,0.203 -0.209,0.309 -0.039,0.106 -0.059,0.231 -0.059,0.377 0,0.145 0.02,0.27 0.059,0.377 C -0.169,-0.234 -0.1,-0.12 0,0 M 0.704,-0.224 C 0.613,-0.108 0.482,-0.033 0.312,0 0.411,-0.121 0.481,-0.234 0.52,-0.339 0.56,-0.446 0.58,-0.571 0.58,-0.716 h 0.261 c 0,0.211 -0.046,0.376 -0.137,0.492 m -2.651,-1.794 v 2.055 l -0.417,-0.155 c 0.012,0.002 0.024,0.003 0.036,0.003 0.078,-0.001 0.117,-0.04 0.117,-0.115 v -1.788 c 0,-0.104 -0.052,-0.156 -0.156,-0.156 h 0.576 c -0.104,0 -0.156,0.052 -0.156,0.156 M -1.517,0 c 0.116,-0.021 0.19,-0.109 0.221,-0.265 0.031,-0.155 0.047,-0.306 0.047,-0.451 0,-0.146 -0.016,-0.296 -0.047,-0.452 -0.031,-0.156 -0.105,-0.244 -0.221,-0.265 0.166,0 0.296,0.072 0.39,0.215 0.093,0.143 0.14,0.316 0.14,0.517 0,0.202 -0.047,0.369 -0.14,0.502 C -1.221,-0.066 -1.351,0 -1.517,0 m -1.828,0 c 0.1,-0.12 0.169,-0.234 0.208,-0.339 0.04,-0.107 0.059,-0.232 0.059,-0.377 0,-0.146 -0.019,-0.271 -0.059,-0.377 -0.039,-0.106 -0.108,-0.209 -0.208,-0.309 0.17,0.034 0.301,0.108 0.392,0.225 0.091,0.116 0.137,0.275 0.137,0.476 0,0.202 -0.046,0.361 -0.137,0.477 -0.091,0.116 -0.222,0.191 -0.392,0.224 m -0.312,0 c -0.17,-0.033 -0.301,-0.108 -0.392,-0.224 -0.092,-0.116 -0.138,-0.275 -0.138,-0.477 0,-0.201 0.046,-0.36 0.138,-0.476 0.091,-0.117 0.222,-0.191 0.392,-0.225 -0.099,0.1 -0.169,0.203 -0.208,0.309 -0.04,0.106 -0.06,0.231 -0.06,0.377 0,0.145 0.02,0.27 0.06,0.377 0.039,0.105 0.109,0.219 0.208,0.339 m -1.598,-1.277 v 1.308 l -0.417,-0.155 c 0.012,0.002 0.024,0.002 0.036,0.002 0.078,0 0.116,-0.039 0.116,-0.115 v -1.04 c 0,-0.104 -0.052,-0.156 -0.155,-0.156 h 0.576 c -0.104,0 -0.156,0.052 -0.156,0.156 m 0.53,1.29 c -0.104,0 -0.189,-0.017 -0.256,-0.05 0.112,0 0.175,-0.008 0.187,-0.022 0.013,-0.014 0.019,-0.034 0.019,-0.056 0,-0.023 0.013,-0.051 0.04,-0.085 0.027,-0.033 0.063,-0.049 0.106,-0.049 0.044,0 0.077,0.012 0.1,0.037 0.023,0.025 0.034,0.056 0.034,0.094 0,0.037 -0.012,0.068 -0.037,0.093 C -4.557,0 -4.621,0.013 -4.725,0.013 m -2.324,-1.312 c -0.071,0.044 -0.108,0.109 -0.112,0.196 V 0 h -0.417 c 0.103,0 0.155,-0.052 0.155,-0.156 v -0.947 c 0,-0.103 0.029,-0.184 0.087,-0.243 0.059,-0.058 0.141,-0.087 0.246,-0.087 0.106,0 0.216,0.031 0.328,0.094 -0.034,-0.004 -0.065,-0.007 -0.094,-0.007 -0.078,0 -0.142,0.016 -0.193,0.047 m 0.791,0.022 V 0 h -0.417 c 0.104,0 0.156,-0.052 0.156,-0.156 v -1.277 h 0.417 c -0.104,0 -0.156,0.052 -0.156,0.156 M -8.551,0 c 0.1,-0.12 0.17,-0.234 0.209,-0.339 0.033,-0.09 0.052,-0.194 0.057,-0.312 h -0.843 c 0.006,0.118 0.024,0.222 0.057,0.312 0.04,0.105 0.109,0.219 0.209,0.339 -0.17,-0.033 -0.301,-0.108 -0.392,-0.224 -0.084,-0.107 -0.129,-0.249 -0.136,-0.427 h -10.745 v -0.065 h 10.744 c 0.002,-0.194 0.048,-0.348 0.137,-0.461 0.091,-0.117 0.222,-0.191 0.392,-0.225 -0.1,0.1 -0.169,0.203 -0.209,0.309 -0.039,0.106 -0.059,0.231 -0.059,0.377 h 0.847 0.243 0.019 c 0,0.211 -0.046,0.376 -0.137,0.492 C -8.249,-0.108 -8.38,-0.033 -8.551,0 m 6.565,5.696 C -1.882,5.683 -1.821,5.636 -1.803,5.556 -1.786,5.475 -1.777,5.391 -1.777,5.304 -1.782,4.568 -1.783,3.808 -1.781,3.023 -1.778,2.239 -1.777,1.481 -1.777,0.75 h 0.261 0.268 v 2.159 2.166 c 0,0.249 -0.023,0.462 -0.069,0.641 -0.045,0.178 -0.182,0.331 -0.408,0.457 -0.07,0.031 -0.161,0.046 -0.274,0.046 -0.11,0 -0.194,-0.015 -0.255,-0.046 C -2.337,6.13 -2.409,6.079 -2.47,6.023 -2.527,6.075 -2.596,6.125 -2.679,6.173 -2.749,6.204 -2.842,6.219 -2.96,6.219 -3.073,6.219 -3.156,6.204 -3.208,6.173 -3.444,6.047 -3.583,5.894 -3.627,5.716 -3.67,5.537 -3.692,5.324 -3.692,5.075 c 0,-0.714 0.001,-1.436 0.003,-2.166 0.002,-0.73 0.004,-1.45 0.004,-2.159 h 0.261 0.268 v 2.273 2.281 c 0,0.087 0.008,0.17 0.023,0.248 0.015,0.079 0.077,0.127 0.186,0.144 0.109,-0.013 0.172,-0.06 0.19,-0.14 C -2.74,5.475 -2.731,5.391 -2.731,5.304 -2.736,4.568 -2.738,3.808 -2.738,3.023 V 0.75 h 0.271 0.271 c 0,0.731 -10e-4,1.489 -0.003,2.273 -0.002,0.785 -0.003,1.545 -0.003,2.281 0,0.087 0.009,0.17 0.026,0.248 0.017,0.079 0.081,0.127 0.19,0.144 M -5.28,1.024 v 0.281 h -0.34 c -0.161,0 -0.254,0.041 -0.281,0.124 -0.026,0.083 -0.039,0.174 -0.039,0.274 0,0.737 0.001,1.477 0.003,2.222 0.003,0.745 0.004,1.486 0.004,2.222 H -6.204 -6.469 V 4 1.867 c 0,-0.248 0.022,-0.463 0.065,-0.644 0.044,-0.181 0.181,-0.332 0.412,-0.454 0.065,-0.031 0.168,-0.042 0.307,-0.036 0.139,0.007 0.274,0.012 0.405,0.016 z M -8.632,0.749 h 0.549 v 5.398 h -0.549 z m -3.045,0 c -0.005,0.493 -0.007,0.985 -0.007,1.477 V 3.71 4.34 4.997 c 0,0.213 0.022,0.439 0.066,0.676 0.043,0.238 0.18,0.383 0.411,0.435 0.131,0.039 0.295,0.055 0.494,0.049 0.198,-0.007 0.369,-0.01 0.513,-0.01 V 5.899 5.65 h -0.634 c -0.161,0 -0.255,-0.049 -0.281,-0.147 -0.026,-0.098 -0.039,-0.197 -0.039,-0.297 0,-0.235 10e-4,-0.47 0.003,-0.706 0.002,-0.235 0.003,-0.47 0.003,-0.705 h 0.432 V 3.285 C -10.813,3.28 -10.885,3.278 -10.935,3.278 h -0.213 V 3.213 c -0.009,-0.828 -0.009,-1.649 0,-2.464 z"
             style="fill:#ffffff;fill-opacity:1;fill-rule:nonzero;stroke:none"
             id="path86438"
             inkscape:connector-curvature="0" />
        </g>
        <g
           id="g86440"
           transform="translate(214.4462,398.4728)"
           style="fill:#ffffff;fill-opacity:1" />
      </g>
    </g>
  </g>
</svg>
