<?xml version="1.0" encoding="UTF-8" standalone="no"?>
<!-- Created with Inkscape (http://www.inkscape.org/) -->

<svg
   xmlns:dc="http://purl.org/dc/elements/1.1/"
   xmlns:cc="http://creativecommons.org/ns#"
   xmlns:rdf="http://www.w3.org/1999/02/22-rdf-syntax-ns#"
   xmlns:svg="http://www.w3.org/2000/svg"
   xmlns="http://www.w3.org/2000/svg"
   xmlns:sodipodi="http://sodipodi.sourceforge.net/DTD/sodipodi-0.dtd"
   xmlns:inkscape="http://www.inkscape.org/namespaces/inkscape"
   width="8.3999205mm"
   height="3.4600091mm"
   viewBox="0 0 8.3999205 3.4600091"
   version="1.1"
   id="svg51244"
   inkscape:version="0.92.0 r15299"
   sodipodi:docname="FilmPlus - Dark.svg">
  <defs
     id="defs51238">
    <clipPath
       clipPathUnits="userSpaceOnUse"
       id="clipPath4966">
      <path
         d="m 610.299,337.945 h 23.811 v 9.809 h -23.811 z"
         id="path4964"
         inkscape:connector-curvature="0" />
    </clipPath>
  </defs>
  <sodipodi:namedview
     id="base"
     pagecolor="#ffffff"
     bordercolor="#666666"
     borderopacity="1.0"
     inkscape:pageopacity="0.0"
     inkscape:pageshadow="2"
     inkscape:zoom="22.4"
     inkscape:cx="17.960952"
     inkscape:cy="0.7534489"
     inkscape:document-units="mm"
     inkscape:current-layer="layer1"
     showgrid="false"
     fit-margin-top="0"
     fit-margin-left="0"
     fit-margin-right="0"
     fit-margin-bottom="0"
     inkscape:window-width="1920"
     inkscape:window-height="1017"
     inkscape:window-x="-8"
     inkscape:window-y="-8"
     inkscape:window-maximized="1" />
  <metadata
     id="metadata51241">
    <rdf:RDF>
      <cc:Work
         rdf:about="">
        <dc:format>image/svg+xml</dc:format>
        <dc:type
           rdf:resource="http://purl.org/dc/dcmitype/StillImage" />
        <dc:title></dc:title>
      </cc:Work>
    </rdf:RDF>
  </metadata>
  <g
     inkscape:label="Layer 1"
     inkscape:groupmode="layer"
     id="layer1"
     transform="translate(-59.30004,-112.32952)">
    <g
       transform="matrix(0.35277777,0,0,-0.35277777,-155.99988,235.0094)"
       id="g4960">
      <g
         id="g4962"
         clip-path="url(#clipPath4966)">
        <g
           id="g4968"
           transform="translate(611.4798,345.4691)">
          <path
             d="M 0,0 V -0.878 H -1.181 V -2.863 H 0 v -4.66 h 2.111 v 4.66 h 1.984 v 1.985 H 2.111 V 0.301 H 4.095 V 2.286 H 2.286 C 1.025,2.286 0,1.26 0,0 M 5.276,0.301 H 7.387 V 2.286 H 5.276 Z m 0,-7.824 h 2.111 v 6.645 H 5.276 Z m 3.811,0 h 2.111 V 2.286 H 9.087 Z m 13.543,4.147 v -4.147 h -2.111 v 3.865 c 0,0.798 -0.566,0.953 -0.85,0.953 -0.282,0 -0.848,-0.155 -0.848,-0.953 V -7.523 H 16.71 v 3.865 c 0,0.798 -0.568,0.953 -0.851,0.953 -0.283,0 -0.849,-0.155 -0.849,-0.953 v -3.865 h -2.112 v 6.645 h 2.059 v -0.566 c 0.425,0.425 1.056,0.644 1.61,0.644 0.682,0 1.237,-0.219 1.686,-0.735 0.606,0.528 1.16,0.735 1.958,0.735 0.656,0 1.287,-0.219 1.66,-0.593 0.592,-0.592 0.759,-1.248 0.759,-1.983"
             style="fill:#261c44;fill-opacity:1;fill-rule:nonzero;stroke:none"
             id="path4970"
             inkscape:connector-curvature="0" />
        </g>
        <g
           id="g4972"
           transform="translate(615.5751,345.7708)">
          <path
             d="M 0,0 H -1.984 V -1.181 H 0 v -1.984 h 1.181 v 1.984 H 3.292 V 0 H 1.181 V 1.984 H 0 Z"
             style="fill:#43b4c5;fill-opacity:1;fill-rule:nonzero;stroke:none"
             id="path4974"
             inkscape:connector-curvature="0" />
        </g>
      </g>
    </g>
  </g>
</svg>
