<?xml version="1.0" encoding="UTF-8" standalone="no"?>
<!-- Created with Inkscape (http://www.inkscape.org/) -->

<svg
   xmlns:dc="http://purl.org/dc/elements/1.1/"
   xmlns:cc="http://creativecommons.org/ns#"
   xmlns:rdf="http://www.w3.org/1999/02/22-rdf-syntax-ns#"
   xmlns:svg="http://www.w3.org/2000/svg"
   xmlns="http://www.w3.org/2000/svg"
   xmlns:sodipodi="http://sodipodi.sourceforge.net/DTD/sodipodi-0.dtd"
   xmlns:inkscape="http://www.inkscape.org/namespaces/inkscape"
   width="8.3999205mm"
   height="3.4600091mm"
   viewBox="0 0 8.3999205 3.4600091"
   version="1.1"
   id="svg51244"
   inkscape:version="0.92.0 r15299"
   sodipodi:docname="Film Plus.svg">
  <defs
     id="defs51238">
    <clipPath
       clipPathUnits="userSpaceOnUse"
       id="clipPath4966">
      <path
         d="m 610.299,337.945 h 23.811 v 9.809 h -23.811 z"
         id="path4964"
         inkscape:connector-curvature="0" />
    </clipPath>
  </defs>
  <sodipodi:namedview
     id="base"
     pagecolor="#ffffff"
     bordercolor="#666666"
     borderopacity="1.0"
     inkscape:pageopacity="0.0"
     inkscape:pageshadow="2"
     inkscape:zoom="22.4"
     inkscape:cx="17.960952"
     inkscape:cy="0.7534489"
     inkscape:document-units="mm"
     inkscape:current-layer="layer1"
     showgrid="false"
     fit-margin-top="0"
     fit-margin-left="0"
     fit-margin-right="0"
     fit-margin-bottom="0"
     inkscape:window-width="1920"
     inkscape:window-height="1017"
     inkscape:window-x="-8"
     inkscape:window-y="-8"
     inkscape:window-maximized="1" />
  <metadata
     id="metadata51241">
    <rdf:RDF>
      <cc:Work
         rdf:about="">
        <dc:format>image/svg+xml</dc:format>
        <dc:type
           rdf:resource="http://purl.org/dc/dcmitype/StillImage" />
        <dc:title></dc:title>
      </cc:Work>
    </rdf:RDF>
  </metadata>
  <g
     inkscape:label="Layer 1"
     inkscape:groupmode="layer"
     id="layer1"
     transform="translate(-59.30004,-112.32952)">
    <path
       inkscape:connector-curvature="0"
       id="path4970"
       style="fill:#ffffff;fill-opacity:1;fill-rule:nonzero;stroke:none;stroke-width:0.35277778"
       d="m 59.7166,113.13558 v 0.30974 h -0.416631 v 0.70026 H 59.7166 v 1.64395 h 0.744714 v -1.64395 h 0.699911 v -0.70026 h -0.699911 v -0.41593 h 0.699911 v -0.70026 H 60.52305 c -0.444853,0 -0.80645,0.36195 -0.80645,0.80645 m 1.861256,-0.10619 h 0.744713 v -0.70026 h -0.744713 z m 0,2.76014 h 0.744713 v -2.34421 h -0.744713 z m 1.344436,0 h 0.744713 v -3.4604 h -0.744713 z m 4.777669,-1.46297 v 1.46297 h -0.744714 v -1.36349 c 0,-0.28152 -0.199672,-0.3362 -0.299861,-0.3362 -0.09948,0 -0.299156,0.0547 -0.299156,0.3362 v 1.36349 h -0.744713 v -1.36349 c 0,-0.28152 -0.200378,-0.3362 -0.300214,-0.3362 -0.09984,0 -0.299509,0.0547 -0.299509,0.3362 v 1.36349 h -0.745066 v -2.34421 h 0.726369 v 0.19967 c 0.149931,-0.14993 0.372533,-0.22719 0.567972,-0.22719 0.240595,0 0.436386,0.0773 0.594784,0.25929 0.213783,-0.18626 0.409222,-0.25929 0.690739,-0.25929 0.231422,0 0.454024,0.0773 0.585611,0.2092 0.208844,0.20884 0.267758,0.44027 0.267758,0.69956" />
    <path
       inkscape:connector-curvature="0"
       id="path4974"
       style="fill:#43b4c5;fill-opacity:1;fill-rule:nonzero;stroke:none;stroke-width:0.35277778"
       d="M 61.161331,113.02915 H 60.46142 v 0.41663 h 0.699911 v 0.69991 h 0.416631 v -0.69991 h 0.744713 v -0.41663 h -0.744713 v -0.69991 h -0.416631 z" />
  </g>
</svg>
