<?xml version="1.0" encoding="UTF-8" standalone="no"?>
<!-- Created with Inkscape (http://www.inkscape.org/) -->

<svg
   xmlns:dc="http://purl.org/dc/elements/1.1/"
   xmlns:cc="http://creativecommons.org/ns#"
   xmlns:rdf="http://www.w3.org/1999/02/22-rdf-syntax-ns#"
   xmlns:svg="http://www.w3.org/2000/svg"
   xmlns="http://www.w3.org/2000/svg"
   xmlns:sodipodi="http://sodipodi.sourceforge.net/DTD/sodipodi-0.dtd"
   xmlns:inkscape="http://www.inkscape.org/namespaces/inkscape"
   width="6.0779004mm"
   height="3.0338888mm"
   viewBox="0 0 6.0779005 3.0338888"
   version="1.1"
   id="svg60673"
   inkscape:version="0.92.0 r15299"
   sodipodi:docname="FilmBox Family.svg">
  <defs
     id="defs60667">
    <clipPath
       clipPathUnits="userSpaceOnUse"
       id="clipPath31910">
      <path
         d="m 80.539,62.456 h 18.106 v 8.6 H 80.539 Z"
         id="path31908"
         inkscape:connector-curvature="0" />
    </clipPath>
    <clipPath
       clipPathUnits="userSpaceOnUse"
       id="clipPath49018">
      <path
         d="m 80.539,46.298 h 18.106 v 8.601 H 80.539 Z"
         id="path49016"
         inkscape:connector-curvature="0" />
    </clipPath>
    <clipPath
       clipPathUnits="userSpaceOnUse"
       id="clipPath25906">
      <path
         d="m 153.106,127.085 h 18.106 v 8.601 h -18.106 z"
         id="path25904"
         inkscape:connector-curvature="0" />
    </clipPath>
    <clipPath
       clipPathUnits="userSpaceOnUse"
       id="clipPath27752">
      <path
         d="m 153.106,110.929 h 18.106 v 8.6 h -18.106 z"
         id="path27750"
         inkscape:connector-curvature="0" />
    </clipPath>
    <clipPath
       clipPathUnits="userSpaceOnUse"
       id="clipPath29016">
      <path
         d="m 153.106,94.771 h 18.106 v 8.6 h -18.106 z"
         id="path29014"
         inkscape:connector-curvature="0" />
    </clipPath>
    <clipPath
       clipPathUnits="userSpaceOnUse"
       id="clipPath30264">
      <path
         d="m 153.106,78.613 h 18.106 v 8.6 h -18.106 z"
         id="path30262"
         inkscape:connector-curvature="0" />
    </clipPath>
  </defs>
  <sodipodi:namedview
     id="base"
     pagecolor="#ffffff"
     bordercolor="#666666"
     borderopacity="1.0"
     inkscape:pageopacity="0.0"
     inkscape:pageshadow="2"
     inkscape:zoom="31.678384"
     inkscape:cx="12.746231"
     inkscape:cy="5.4059449"
     inkscape:document-units="mm"
     inkscape:current-layer="layer1"
     showgrid="false"
     fit-margin-top="0"
     fit-margin-left="0"
     fit-margin-right="0"
     fit-margin-bottom="0"
     inkscape:window-width="1920"
     inkscape:window-height="1017"
     inkscape:window-x="-8"
     inkscape:window-y="-8"
     inkscape:window-maximized="1" />
  <metadata
     id="metadata60670">
    <rdf:RDF>
      <cc:Work
         rdf:about="">
        <dc:format>image/svg+xml</dc:format>
        <dc:type
           rdf:resource="http://purl.org/dc/dcmitype/StillImage" />
        <dc:title></dc:title>
      </cc:Work>
    </rdf:RDF>
  </metadata>
  <g
     inkscape:label="Layer 1"
     inkscape:groupmode="layer"
     id="layer1"
     transform="translate(-69.153864,-133.24249)">
    <g
       id="g30236"
       transform="matrix(0.35277777,0,0,-0.35277777,72.207048,133.24249)">
      <path
         d="M 0,0 V -7.623 L 8.574,-8.6 7.623,0 Z"
         style="fill:#e2001a;fill-opacity:1;fill-rule:nonzero;stroke:none"
         id="path30238"
         inkscape:connector-curvature="0" />
    </g>
    <g
       id="g30240"
       transform="matrix(0.35277777,0,0,-0.35277777,69.764875,135.03196)"
       style="fill:#ffffff;fill-opacity:1">
      <path
         d="m 0,0 v 1.081 h -0.34 v 0.44 H 0 V 2.542 H 1.501 V 2.102 H 0.48 V 1.521 H 1.301 V 1.081 H 0.48 V 0 Z"
         style="fill:#ffffff;fill-opacity:1;fill-rule:evenodd;stroke:none"
         id="path30242"
         inkscape:connector-curvature="0" />
    </g>
    <path
       d="m 70.372322,135.03199 h 0.183445 v -0.90382 h -0.183445 z"
       style="fill:#ffffff;fill-opacity:1;fill-rule:nonzero;stroke:none;stroke-width:0.35277775"
       id="path30244"
       inkscape:connector-curvature="0" />
    <g
       id="g30246"
       transform="matrix(0.35277777,0,0,-0.35277777,71.26185,135.03196)"
       style="fill:#ffffff;fill-opacity:1">
      <path
         d="m 0,0 h -1.781 v 2.562 h 0.5 V 0.44 h 0.86 V 0.781 L 0,0.801 Z"
         style="fill:#ffffff;fill-opacity:1;fill-rule:evenodd;stroke:none"
         id="path30248"
         inkscape:connector-curvature="0" />
    </g>
    <g
       id="g30250"
       transform="matrix(0.35277777,0,0,-0.35277777,72.081037,135.03196)"
       style="fill:#ffffff;fill-opacity:1">
      <path
         d="M 0,0 H -0.421 V 1.661 L -1.061,1.101 -1.702,1.661 -1.682,0 h -0.44 V 2.562 L -1.061,1.621 0,2.562 Z"
         style="fill:#ffffff;fill-opacity:1;fill-rule:evenodd;stroke:none"
         id="path30252"
         inkscape:connector-curvature="0" />
    </g>
    <g
       id="g30254"
       transform="matrix(0.35277777,0,0,-0.35277777,74.403618,134.71431)">
      <path
         d="M 0,0 -0.507,-0.897 H -1.066 L -0.25,0.39 -1.044,1.639 h 0.559 L 0,0.757 0.492,1.639 H 1.051 L 0.265,0.39 1.073,-0.897 H 0.514 Z"
         style="fill:#ffffff;fill-opacity:1;fill-rule:evenodd;stroke:none"
         id="path30256"
         inkscape:connector-curvature="0" />
    </g>
    <g
       transform="matrix(0.35277777,0,0,-0.35277777,14.986566,164.00951)"
       id="g30258"
       style="fill:#ffffff;fill-opacity:1">
      <g
         id="g30260"
         clip-path="url(#clipPath30264)"
         style="fill:#ffffff;fill-opacity:1">
        <g
           id="g30266"
           transform="translate(163.7629,83.2584)"
           style="fill:#ffffff;fill-opacity:1">
          <path
             d="M 0,0 H -0.419 V -0.676 H 0 V -1.124 H -0.889 V 0 h -0.347 l 10e-4,0.404 h 0.346 V 1.433 H 0 V 0.985 H -0.419 V 0.404 H 0 Z M 0.015,0 H 0 v 0.404 h 0.015 c 0.161,0 0.309,0.147 0.309,0.294 0,0.169 -0.155,0.287 -0.309,0.287 H 0 v 0.448 h 0.015 c 0.624,0 0.786,-0.5 0.786,-0.728 0,-0.117 -0.044,-0.33 -0.265,-0.47 0.236,-0.066 0.405,-0.301 0.405,-0.595 0,-0.177 -0.155,-0.764 -0.919,-0.764 H 0 v 0.448 h 0.015 c 0.25,0 0.404,0.161 0.404,0.33 C 0.419,-0.184 0.301,0 0.015,0"
             style="fill:#ffffff;fill-opacity:1;fill-rule:evenodd;stroke:none"
             id="path30268"
             inkscape:connector-curvature="0" />
        </g>
        <g
           id="g30270"
           transform="translate(166.2189,82.5894)"
           style="fill:#ffffff;fill-opacity:1">
          <path
             d="m 0,0 c -0.456,0 -0.823,0.368 -0.823,0.823 0,0.456 0.367,0.823 0.823,0.823 v 0.5 h -0.015 c -0.727,0 -1.322,-0.588 -1.322,-1.323 0,-0.727 0.595,-1.323 1.322,-1.323 H 0 Z M 0,0 V 0 -0.5 C 0.728,-0.492 1.315,0.096 1.315,0.823 1.315,1.551 0.728,2.139 0,2.146 v -0.5 C 0.456,1.646 0.823,1.279 0.823,0.823 0.823,0.368 0.456,0 0,0"
             style="fill:#ffffff;fill-opacity:1;fill-rule:evenodd;stroke:none"
             id="path30272"
             inkscape:connector-curvature="0" />
        </g>
        <g
           id="g30274"
           transform="translate(153.6921,81.5802)"
           style="fill:#ffffff;fill-opacity:1">
          <path
             d="M 0,0 V -0.68 H 0.801 V -0.817 H 0 V -1.662 H -0.147 V 0.142 H 1 V 0 Z"
             style="fill:#ffffff;fill-opacity:1;fill-rule:nonzero;stroke:none"
             id="path30276"
             inkscape:connector-curvature="0" />
        </g>
        <g
           id="g30278"
           transform="translate(155.8647,80.5751)"
           style="fill:#ffffff;fill-opacity:1">
          <path
             d="m 0,0 -0.332,0.76 c -0.039,0.093 -0.08,0.209 -0.083,0.209 H -0.417 C -0.42,0.969 -0.461,0.853 -0.5,0.76 L -0.832,0 Z m 0.059,-0.131 h -0.951 l -0.229,-0.526 h -0.162 l 0.801,1.804 H -0.35 L 0.451,-0.657 H 0.289 Z"
             style="fill:#ffffff;fill-opacity:1;fill-rule:nonzero;stroke:none"
             id="path30280"
             inkscape:connector-curvature="0" />
        </g>
        <g
           id="g30282"
           transform="translate(158.2331,81.7219)"
           style="fill:#ffffff;fill-opacity:1">
          <path
             d="m 0,0 v -1.804 h -0.147 v 0.915 c 0,0.237 0.013,0.634 0.01,0.634 h -0.002 c -0.003,0 -0.08,-0.139 -0.155,-0.273 l -0.479,-0.833 h -0.08 l -0.479,0.833 c -0.075,0.134 -0.152,0.273 -0.155,0.273 H -1.49 c -0.002,0 0.011,-0.397 0.011,-0.634 V -1.804 H -1.626 V 0 h 0.139 l 0.477,-0.822 c 0.162,-0.276 0.193,-0.356 0.196,-0.356 h 0.002 c 0.003,0 0.034,0.08 0.196,0.356 L -0.139,0 Z"
             style="fill:#ffffff;fill-opacity:1;fill-rule:nonzero;stroke:none"
             id="path30284"
             inkscape:connector-curvature="0" />
        </g>
        <path
           d="m 158.738,81.722 h 0.147 v -1.804 h -0.147 z"
           style="fill:#ffffff;fill-opacity:1;fill-rule:nonzero;stroke:none"
           id="path30286"
           inkscape:connector-curvature="0" />
        <g
           id="g30288"
           transform="translate(160.537,80.0597)"
           style="fill:#ffffff;fill-opacity:1">
          <path
             d="M 0,0 V -0.142 H -1.147 V 1.662 H -1 V 0 Z"
             style="fill:#ffffff;fill-opacity:1;fill-rule:nonzero;stroke:none"
             id="path30290"
             inkscape:connector-curvature="0" />
        </g>
        <g
           id="g30292"
           transform="translate(161.8643,81.7219)"
           style="fill:#ffffff;fill-opacity:1">
          <path
             d="m 0,0 -0.701,-0.894 v -0.91 h -0.147 v 0.91 L -1.549,0 h 0.173 l 0.487,-0.619 c 0.044,-0.056 0.113,-0.146 0.116,-0.146 h 0.002 c 0.003,0 0.07,0.09 0.114,0.146 L -0.173,0 Z"
             style="fill:#ffffff;fill-opacity:1;fill-rule:nonzero;stroke:none"
             id="path30294"
             inkscape:connector-curvature="0" />
        </g>
      </g>
    </g>
  </g>
</svg>
