<svg height="2.960687mm" viewBox="0 0 7.3994431 2.9606874" width="7.399443mm" xmlns="http://www.w3.org/2000/svg" xmlns:xlink="http://www.w3.org/1999/xlink"><clipPath id="a"><path d="m208.757 392.387h20.975v8.393h-20.975z"/></clipPath><g clip-path="url(#a)" fill="#fff" transform="matrix(.35277777 0 0 -.35277777 -73.6449 141.386275)"><g fill="#fff" transform="translate(228.8925 394.5615)"><path d="m0 0c-.17-.033-.301-.108-.392-.224-.092-.116-.137-.275-.137-.477 0-.201.045-.36.137-.476.091-.117.222-.191.392-.225-.1.1-.169.203-.209.309-.039.106-.059.231-.059.377 0 .145.02.27.059.377.04.105.109.219.209.339m.704-.224c-.091.116-.222.191-.392.224.099-.121.169-.234.208-.339.04-.107.06-.232.06-.377h.261c0 .211-.046.376-.137.492m-2.651-1.794v2.055l-.417-.155c.012.002.024.003.036.003.078-.001.117-.04.117-.115v-1.788c0-.104-.052-.156-.156-.156h.576c-.104 0-.156.052-.156.156m.43 2.018c.116-.021.19-.109.221-.265.031-.155.047-.306.047-.451 0-.146-.016-.296-.047-.452s-.105-.244-.221-.265c.166 0 .296.072.39.215.093.143.14.316.14.517 0 .202-.047.369-.14.502-.094.133-.224.199-.39.199m-1.828 0c .1-.12.169-.234.208-.339.04-.107.059-.232.059-.377 0-.146-.019-.271-.059-.377-.039-.106-.108-.209-.208-.309.17.034.301.108.392.225.091.116.137.275.137.476 0 .202-.046.361-.137.477s-.222.191-.392.224m-.312 0c-.17-.033-.301-.108-.392-.224-.092-.116-.138-.275-.138-.477 0-.201.046-.36.138-.476.091-.117.222-.191.392-.225-.099.1-.169.203-.208.309-.04.106-.06.231-.06.377 0 .145.02.27.06.377.039.105.109.219.208.339m-1.598-1.277v1.308l-.417-.155c.012.002.024.002.036.002.078 0 .116-.039.116-.115v-1.04c0-.104-.052-.156-.155-.156h.576c-.104 0-.156.052-.156.156m.53 1.29c-.104 0-.189-.017-.256-.05.112 0 .175-.008.187-.022.013-.014.019-.034.019-.056 0-.023.013-.051.04-.085.027-.033.063-.049.106-.049.044 0 .077.012.1.037s.034.056.034.094c0 .037-.012.068-.037.093-.025.025-.089.038-.193.038m-2.324-1.312c-.071.044-.108.109-.112.196v1.103h-.417c.103 0 .155-.052.155-.156v-.947c0-.103.029-.184.087-.243.059-.058.141-.087.246-.087.106 0 .216.031.328.094-.034-.004-.065-.007-.094-.007-.078 0-.142.016-.193.047m.791.022v1.277h-.417c.104 0 .156-.052.156-.156v-1.277h.417c-.104 0-.156.052-.156.156m-2.293 1.277c.1-.12.17-.234.209-.339.033-.09.052-.194.057-.312h-.843c.006.118.024.222.057.312.04.105.109.219.209.339-.17-.033-.301-.108-.392-.224-.084-.107-.129-.249-.136-.427h-10.745v-.065h10.744c.002-.194.048-.348.137-.461.091-.117.222-.191.392-.225-.1.1-.169.203-.209.309-.039.106-.059.231-.059.377h.847.243.019c0 .211-.046.376-.137.492-.091.116-.222.191-.393.224m6.565 5.696c.104-.013.165-.06.183-.14.017-.081.026-.165.026-.252-.005-.736-.006-1.496-.004-2.281.003-.784.004-1.542.004-2.273h.261.268v2.159 2.166c0 .249-.023.462-.069.641-.045.178-.182.331-.408.457-.07.031-.161.046-.274.046-.11 0-.194-.015-.255-.046-.083-.043-.155-.094-.216-.15-.057.052-.126.102-.209.15-.07.031-.163.046-.281.046-.113 0-.196-.015-.248-.046-.236-.126-.375-.279-.419-.457-.043-.179-.065-.392-.065-.641 0-.714.001-1.436.003-2.166s.004-1.45.004-2.159h.261.268v2.273 2.281c0 .087.008.17.023.248.015.079.077.127.186.144.109-.013.172-.06.19-.14.017-.081.026-.165.026-.252-.005-.736-.007-1.496-.007-2.281v-2.273h.271.271c0 .731-.001 1.489-.003 2.273-.002.785-.003 1.545-.003 2.281 0 .087.009.17.026.248.017.079.081.127.19.144m-3.294-4.672v.281h-.34c-.161 0-.254.041-.281.124-.026.083-.039.174-.039.274 0 .737.001 1.477.003 2.222.003.745.004 1.486.004 2.222h-.271-.265v-2.147-2.133c0-.248.022-.463.065-.644.044-.181.181-.332.412-.454.065-.031.168-.042.307-.036.139.007.274.012.405.016zm-3.352-.275h.549v5.398h-.549zm-3.045 0c-.005.493-.007.985-.007 1.477v1.484.63.657c0 .213.022.439.066.676.043.238.18.383.411.435.131.039.295.055.494.049.198-.007.369-.01.513-.01v-.248-.249h-.634c-.161 0-.255-.049-.281-.147s-.039-.197-.039-.297c0-.235.001-.47.003-.706.002-.235.003-.47.003-.705h.432v-.51c-.097-.005-.169-.007-.219-.007h-.213v-.065c-.009-.828-.009-1.649 0-2.464z" fill="#fff"/></g><g fill="#fff" transform="translate(214.4462 398.4728)"><path d="m0 0c-.006-.062-.018-.124-.028-.186-.024-.137-.048-.274-.072-.412-.024-.133-.06-.266-.121-.388-.051-.103-.125-.197-.219-.266-.09-.066-.195-.108-.304-.133-.081-.018-.163-.028-.246-.033-.07-.004-.139-.002-.209-.003-.394 0-.788 0-1.182 0 .078.469.156.938.234 1.406h.631c-.05-.302-.099-.604-.15-.906.172-.001.343 0 .514 0 .027 0 .054-.001.081.002.059.005.117.022.166.055.048.031.084.076.11.125.028.054.045.113.057.172.021.129.041.258.062.388.011.074.028.148.024.223-.002.045-.014.094-.047.127-.033.035-.082.048-.128.054s-.093.006-.14.006c-.379 0-.759 0-1.138 0 .028.166.056.332.084.498h1.173c.144.001.289-.006.429-.04.101-.026.2-.068.276-.14.041-.039.075-.086.098-.138.027-.059.042-.124.048-.189.007-.074.005-.148-.003-.222m-3.318-1.421c.05.293.1.585.15.877-.274 0-.548 0-.822 0-.049-.292-.099-.584-.15-.877-.21 0-.421 0-.631.001.122.716.244 1.433.367 2.15.21-.001.42-.001.631 0-.042-.249-.084-.497-.126-.745h.822c.039.248.08.496.12.745.21-.001.42 0 .631-.001-.122-.716-.245-1.433-.366-2.15-.209 0-.417 0-.626 0m3.589 2.866h-5.305c-.361 0-.655-.294-.655-.655v-2.272c0-.36.294-.654.655-.654h5.305c.36 0 .655.294.655.654v2.272c0 .361-.295.655-.655.655" fill="#fff"/></g></g></svg>