<svg height="3.460009mm" viewBox="0 0 8.3999205 3.4600091" width="8.399921mm" xmlns="http://www.w3.org/2000/svg" xmlns:xlink="http://www.w3.org/1999/xlink"><clipPath id="a"><path d="m610.299 337.945h23.811v9.809h-23.811z"/></clipPath><g clip-path="url(#a)" transform="matrix(.35277777 0 0 -.35277777 -215.29992 122.67988)"><g transform="translate(611.4798 345.4691)"><path d="m0 0v-.878h-1.181v-1.985h1.181v-4.66h2.111v4.66h1.984v1.985h-1.984v1.179h1.984v1.985h-1.809c-1.261 0-2.286-1.026-2.286-2.286m5.276.301h2.111v1.985h-2.111zm0-7.824h2.111v6.645h-2.111zm3.811 0h2.111v9.809h-2.111zm13.543 4.147v-4.147h-2.111v3.865c0 .798-.566.953-.85.953-.282 0-.848-.155-.848-.953v-3.865h-2.111v3.865c0 .798-.568.953-.851.953s-.849-.155-.849-.953v-3.865h-2.112v6.645h2.059v-.566c.425.425 1.056.644 1.61.644.682 0 1.237-.219 1.686-.735.606.528 1.16.735 1.958.735.656 0 1.287-.219 1.66-.593.592-.592.759-1.248.759-1.983" fill="#261c44"/></g><g transform="translate(615.5751 345.7708)"><path d="m0 0h-1.984v-1.181h1.984v-1.984h1.181v1.984h2.111v1.181h-2.111v1.984h-1.181z" fill="#43b4c5"/></g></g></svg>