<?xml version="1.0" encoding="UTF-8" standalone="no"?>
<svg
   xmlns:dc="http://purl.org/dc/elements/1.1/"
   xmlns:cc="http://creativecommons.org/ns#"
   xmlns:rdf="http://www.w3.org/1999/02/22-rdf-syntax-ns#"
   xmlns:svg="http://www.w3.org/2000/svg"
   xmlns="http://www.w3.org/2000/svg"
   xmlns:sodipodi="http://sodipodi.sourceforge.net/DTD/sodipodi-0.dtd"
   xmlns:inkscape="http://www.inkscape.org/namespaces/inkscape"
   width="994.34521pt"
   height="378.64075pt"
   viewBox="0 0 994.34521 378.64075"
   version="1.1"
   id="svg36"
   sodipodi:docname="Fine Living HD.svg"
   inkscape:version="0.92.0 r15299">
  <metadata
     id="metadata42">
    <rdf:RDF>
      <cc:Work
         rdf:about="">
        <dc:format>image/svg+xml</dc:format>
        <dc:type
           rdf:resource="http://purl.org/dc/dcmitype/StillImage" />
        <dc:title></dc:title>
      </cc:Work>
    </rdf:RDF>
  </metadata>
  <defs
     id="defs40">
    <clipPath
       clipPathUnits="userSpaceOnUse"
       id="clipPath82366">
      <path
         d="m 898.018,504.813 h 23.81 v 10.563 h -23.81 z"
         id="path82364"
         inkscape:connector-curvature="0" />
    </clipPath>
  </defs>
  <sodipodi:namedview
     pagecolor="#ffffff"
     bordercolor="#666666"
     borderopacity="1"
     objecttolerance="10"
     gridtolerance="10"
     guidetolerance="10"
     inkscape:pageopacity="0"
     inkscape:pageshadow="2"
     inkscape:window-width="1920"
     inkscape:window-height="1017"
     id="namedview38"
     showgrid="false"
     fit-margin-top="0"
     fit-margin-left="0"
     fit-margin-right="0"
     fit-margin-bottom="0"
     inkscape:zoom="0.568"
     inkscape:cx="996.8439"
     inkscape:cy="494.02905"
     inkscape:window-x="-8"
     inkscape:window-y="-8"
     inkscape:window-maximized="1"
     inkscape:current-layer="svg36" />
  <path
     inkscape:connector-curvature="0"
     id="path82370"
     style="fill:#fbbe17;fill-opacity:1;fill-rule:nonzero;stroke:none;stroke-width:35.84594727"
     d="m 802.26816,334.26346 h -97.68021 c -19.35681,0 -33.98196,-6.91827 -43.58867,-23.12064 -6.41643,-10.86132 -7.27673,-20.71895 -7.27673,-42.72837 0,-24.66201 2.04322,-34.37626 7.74273,-43.23021 9.10487,-14.1233 22.76217,-22.58295 42.76421,-22.58295 h 93.41457 v 27.27877 h -92.55427 c -18.4965,0 -21.07741,18.31728 -21.07741,37.85332 0,24.30355 4.26567,39.71731 22.61879,39.71731 h 66.09989 v -24.69786 h -63.91329 v -26.02416 h 93.45039 z M 635.08266,174.46222 H 585.00587 L 501.34143,69.899595 h -2.32999 l 0.0358,104.562625 H 468.72161 V 42.835905 h 48.53542 l 85.09828,104.562625 h 2.43752 V 42.835905 h 30.28983 z m 0,160.08801 H 585.00587 L 502.27342,229.95175 h -3.26198 l 0.0358,104.59848 H 468.72161 V 202.49376 h 48.53542 l 84.16628,104.95693 h 3.36952 V 202.49376 h 30.28983 z M 445.78021,174.46222 H 415.49038 V 42.800065 h 30.28983 z m 0,159.6937 H 415.49038 V 202.49376 h 30.28983 z m -97.3576,0.39431 H 303.04164 L 248.30488,202.49376 h 31.86705 l 31.86705,76.53109 11.64993,28.96353 h 3.29783 l 11.68577,-28.96353 31.83121,-76.53109 h 31.86704 z M 235.07772,334.15592 H 204.7879 V 202.49376 h 30.28982 z m -47.81849,0 H 53.87646 V 202.49376 h 30.28982 v 104.3834 H 187.25923 Z M 252.28378,42.835905 h 143.59887 v 26.992 h -113.2732 v 25.52232 H 387.20793 V 121.6253 H 282.60945 v 52.83692 h -30.32567 z m 404.87998,0 h 143.5989 v 27.24292 H 687.45359 v 24.59032 H 792.08796 V 120.90838 H 687.45359 v 26.31092 h 113.30907 v 27.24292 H 657.16376 Z M 0,378.64074 H 853.52786 V 0 H 0 Z" />
  <path
     style="opacity:1;fill:#fbbe17;fill-opacity:1"
     inkscape:connector-curvature="0"
     id="path11"
     d="m 879.55876,1.281054 12.29998,1e-6 v 22.5 l 23.49002,-0.11 -2e-5,-22.39 12.34002,-1e-6 v 56.949751 l -12.34002,-5e-5 3.2e-4,-22.85975 -23.49032,-0.03 v 22.88975 l -12.29968,5e-5 z"
     sodipodi:nodetypes="ccccccccccccc" />
  <path
     style="opacity:1;fill:#fbbe17;fill-opacity:1"
     inkscape:connector-curvature="0"
     id="path13"
     d="m 941.58876,1.351055 24.04,-0.01 c 9.28,0.09 18.73,4.49 23.96,12.31 7.57,11.14 6.03,27.75 -4.09,36.85 -5.8145,5.39579 -13.8297,7.83917 -21.6668,7.7785 h -22.243 v -56.9285 m 12.57,45.8075 h 7.9282 c 4.2539,0 8.4526,-0.42902 12.0616,-2.9375 9.69,-6.35 9.58,-22.69 -0.13,-28.95 -3.6671,-2.549356 -7.9413,-2.905751 -12.2583,-2.905751 h -7.6015 z"
     sodipodi:nodetypes="ccccccccsccscc" />
</svg>
