<?xml version="1.0" encoding="UTF-8"?>
<svg id="svg36" width="994.35pt" height="378.64pt" version="1.1" viewBox="0 0 994.35 378.64" xmlns="http://www.w3.org/2000/svg" xmlns:cc="http://creativecommons.org/ns#" xmlns:dc="http://purl.org/dc/elements/1.1/" xmlns:rdf="http://www.w3.org/1999/02/22-rdf-syntax-ns#">
 <metadata id="metadata42">
  <rdf:RDF>
   <cc:Work rdf:about="">
    <dc:format>image/svg+xml</dc:format>
    <dc:type rdf:resource="http://purl.org/dc/dcmitype/StillImage"/>
    <dc:title/>
   </cc:Work>
  </rdf:RDF>
 </metadata>
 <path id="path82370" d="m802.27 334.26h-97.68c-19.357 0-33.982-6.9183-43.589-23.121-6.4164-10.861-7.2767-20.719-7.2767-42.728 0-24.662 2.0432-34.376 7.7427-43.23 9.1049-14.123 22.762-22.583 42.764-22.583h93.415v27.279h-92.554c-18.496 0-21.077 18.317-21.077 37.853 0 24.304 4.2657 39.717 22.619 39.717h66.1v-24.698h-63.913v-26.024h93.45zm-167.19-159.8h-50.077l-83.664-104.56h-2.33l0.0358 104.56h-30.326v-131.63h48.535l85.098 104.56h2.4375v-104.56h30.29zm0 160.09h-50.077l-82.732-104.6h-3.262l0.0358 104.6h-30.326v-132.06h48.535l84.166 104.96h3.3695v-104.96h30.29zm-189.3-160.09h-30.29v-131.66h30.29zm0 159.69h-30.29v-131.66h30.29zm-97.358 0.39431h-45.381l-54.737-132.06h31.867l31.867 76.531 11.65 28.964h3.2978l11.686-28.964 31.831-76.531h31.867zm-113.34-0.39431h-30.29v-131.66h30.29zm-47.818 0h-133.38v-131.66h30.29v104.38h103.09zm65.025-291.32h143.6v26.992h-113.27v25.522h104.6v26.275h-104.6v52.837h-30.326zm404.88 0h143.6v27.243h-113.31v24.59h104.63v26.239h-104.63v26.311h113.31v27.243h-143.6zm-657.16 335.8h853.53v-378.64h-853.53z" fill="#fbbe17"/>
 <path id="path11" d="m879.56 1.2811 12.3 1e-6v22.5l23.49-0.11-2e-5 -22.39 12.34-1e-6v56.95l-12.34-5e-5 3.2e-4 -22.86-23.49-0.03v22.89l-12.3 5e-5z" fill="#fbbe17"/>
 <path id="path13" d="m941.59 1.3511 24.04-0.01c9.28 0.09 18.73 4.49 23.96 12.31 7.57 11.14 6.03 27.75-4.09 36.85-5.8145 5.3958-13.83 7.8392-21.667 7.7785h-22.243v-56.928m12.57 45.808h7.9282c4.2539 0 8.4526-0.42902 12.062-2.9375 9.69-6.35 9.58-22.69-0.13-28.95-3.6671-2.5494-7.9413-2.9058-12.258-2.9058h-7.6015z" fill="#fbbe17"/>
</svg>
