<svg height="3.726286mm" viewBox="0 0 8.3996391 3.7262858" width="8.399639mm" xmlns="http://www.w3.org/2000/svg" xmlns:xlink="http://www.w3.org/1999/xlink"><clipPath id="a"><path d="m898.018 504.813h23.81v10.563h-23.81z"/></clipPath><g clip-path="url(#a)" transform="matrix(.35277777 0 0 -.35277777 -316.800787 181.813196)"><g transform="translate(920.3981 506.0513)"><path d="m0 0h-2.725c-.54 0-.948.193-1.216.645-.179.303-.203.578-.203 1.192 0 .688.057.959.216 1.206.254.394.635.63 1.193.63h2.606v-.761h-2.582c-.516 0-.588-.511-.588-1.056 0-.678.119-1.108.631-1.108h1.844v.689h-1.783v.726h2.607zm-4.664 4.458h-1.397l-2.334 2.917h-.065l.001-2.917h-.846v3.672h1.354l2.374-2.917h.068v2.917h.845zm0-4.466h-1.397l-2.308 2.918h-.091l.001-2.918h-.846v3.684h1.354l2.348-2.928h.094v2.928h.845zm-5.281 4.466h-.845v3.673h.845zm0-4.455h-.845v3.673h.845zm-2.716-.011h-1.266l-1.527 3.684h.889l.889-2.135.325-.808h.092l.326.808.888 2.135h.889zm-3.162.011h-.845v3.673h.845zm-1.334 0h-3.721v3.673h.845v-2.912h2.876zm1.814 8.127h4.006v-.753h-3.16v-.712h2.918v-.733h-2.918v-1.474h-.846zm11.295 0h4.006v-.76h-3.161v-.686h2.919v-.732h-2.919v-.734h3.161v-.76h-4.006zm-18.333-9.368h23.811v10.563h-23.811z" fill="#fbbe17"/></g></g></svg>