<?xml version="1.0" encoding="UTF-8" standalone="no"?>
<!-- Created with Inkscape (http://www.inkscape.org/) -->

<svg
   xmlns:dc="http://purl.org/dc/elements/1.1/"
   xmlns:cc="http://creativecommons.org/ns#"
   xmlns:rdf="http://www.w3.org/1999/02/22-rdf-syntax-ns#"
   xmlns:svg="http://www.w3.org/2000/svg"
   xmlns="http://www.w3.org/2000/svg"
   xmlns:sodipodi="http://sodipodi.sourceforge.net/DTD/sodipodi-0.dtd"
   xmlns:inkscape="http://www.inkscape.org/namespaces/inkscape"
   width="8.3996391mm"
   height="3.7262857mm"
   viewBox="0 0 8.3996391 3.7262858"
   version="1.1"
   id="svg50694"
   inkscape:version="0.92.0 r15299"
   sodipodi:docname="Fine Living.svg">
  <defs
     id="defs50688">
    <clipPath
       clipPathUnits="userSpaceOnUse"
       id="clipPath86686">
      <path
         d="m 289.404,357.119 h 20.976 v 4.912 h -20.976 z"
         id="path86684"
         inkscape:connector-curvature="0" />
    </clipPath>
    <clipPath
       clipPathUnits="userSpaceOnUse"
       id="clipPath86586">
      <path
         d="m 289.404,385.512 h 20.976 v 15.023 h -20.976 z"
         id="path86584"
         inkscape:connector-curvature="0" />
    </clipPath>
    <clipPath
       clipPathUnits="userSpaceOnUse"
       id="clipPath82366">
      <path
         d="m 898.018,504.813 h 23.81 v 10.563 h -23.81 z"
         id="path82364"
         inkscape:connector-curvature="0" />
    </clipPath>
  </defs>
  <sodipodi:namedview
     id="base"
     pagecolor="#ffffff"
     bordercolor="#666666"
     borderopacity="1.0"
     inkscape:pageopacity="0.0"
     inkscape:pageshadow="2"
     inkscape:zoom="31.678384"
     inkscape:cx="12.007861"
     inkscape:cy="7.1413725"
     inkscape:document-units="mm"
     inkscape:current-layer="layer1"
     showgrid="false"
     fit-margin-top="0"
     fit-margin-left="0"
     fit-margin-right="0"
     fit-margin-bottom="0"
     inkscape:window-width="1920"
     inkscape:window-height="1017"
     inkscape:window-x="-8"
     inkscape:window-y="-8"
     inkscape:window-maximized="1" />
  <metadata
     id="metadata50691">
    <rdf:RDF>
      <cc:Work
         rdf:about="">
        <dc:format>image/svg+xml</dc:format>
        <dc:type
           rdf:resource="http://purl.org/dc/dcmitype/StillImage" />
        <dc:title></dc:title>
      </cc:Work>
    </rdf:RDF>
  </metadata>
  <g
     inkscape:label="Layer 1"
     inkscape:groupmode="layer"
     id="layer1"
     transform="translate(-75.521067,-95.049664)">
    <g
       transform="matrix(0.35277777,0,0,-0.35277777,-241.27972,276.86286)"
       id="g82360">
      <g
         id="g82362"
         clip-path="url(#clipPath82366)">
        <g
           id="g82368"
           transform="translate(920.3981,506.0513)">
          <path
             d="m 0,0 h -2.725 c -0.54,0 -0.948,0.193 -1.216,0.645 -0.179,0.303 -0.203,0.578 -0.203,1.192 0,0.688 0.057,0.959 0.216,1.206 0.254,0.394 0.635,0.63 1.193,0.63 h 2.606 V 2.912 h -2.582 c -0.516,0 -0.588,-0.511 -0.588,-1.056 0,-0.678 0.119,-1.108 0.631,-1.108 h 1.844 V 1.437 H -2.607 V 2.163 H 0 Z M -4.664,4.458 H -6.061 L -8.395,7.375 H -8.46 L -8.459,4.458 H -9.305 V 8.13 h 1.354 l 2.374,-2.917 h 0.068 V 8.13 h 0.845 z m 0,-4.466 H -6.061 L -8.369,2.91 H -8.46 l 0.001,-2.918 h -0.846 v 3.684 h 1.354 l 2.348,-2.928 h 0.094 v 2.928 h 0.845 z m -5.281,4.466 h -0.845 v 3.673 h 0.845 z m 0,-4.455 h -0.845 v 3.673 h 0.845 z m -2.716,-0.011 h -1.266 l -1.527,3.684 h 0.889 l 0.889,-2.135 0.325,-0.808 h 0.092 l 0.326,0.808 0.888,2.135 h 0.889 z m -3.162,0.011 h -0.845 v 3.673 h 0.845 z m -1.334,0 h -3.721 v 3.673 h 0.845 V 0.764 h 2.876 z m 1.814,8.127 h 4.006 V 7.377 h -3.16 V 6.665 h 2.918 V 5.932 h -2.918 V 4.458 h -0.846 z m 11.295,0 h 4.006 V 7.37 H -3.203 V 6.684 h 2.919 V 5.952 H -3.203 V 5.218 h 3.161 V 4.458 H -4.048 Z M -22.381,-1.238 H 1.43 V 9.325 h -23.811 z"
             style="fill:#fbbe17;fill-opacity:1;fill-rule:nonzero;stroke:none"
             id="path82370"
             inkscape:connector-curvature="0" />
        </g>
      </g>
    </g>
  </g>
</svg>
