<?xml version="1.0" encoding="UTF-8"?>
<!-- Created with Inkscape (http://www.inkscape.org/) -->
<svg id="svg81665" width="800" height="800" version="1.1" viewBox="0 0 211.67 211.67" xmlns="http://www.w3.org/2000/svg" xmlns:cc="http://creativecommons.org/ns#" xmlns:dc="http://purl.org/dc/elements/1.1/" xmlns:rdf="http://www.w3.org/1999/02/22-rdf-syntax-ns#">
 <defs id="defs81659">
  <clipPath id="clipPath80376">
   <path id="path80374" d="m0 0h595.28v841.89h-595.28z"/>
  </clipPath>
 </defs>
 <metadata id="metadata81662">
  <rdf:RDF>
   <cc:Work rdf:about="">
    <dc:format>image/svg+xml</dc:format>
    <dc:type rdf:resource="http://purl.org/dc/dcmitype/StillImage"/>
    <dc:title/>
   </cc:Work>
  </rdf:RDF>
 </metadata>
 <g id="layer1" transform="translate(20.529 59.313)">
  <g id="g80370" transform="matrix(10.606 0 0 -10.606 -5265.6 7227)">
   <g id="g80372" clip-path="url(#clipPath80376)">
    <g id="g80378" transform="translate(514.51 677.05)">
     <path id="path80380" d="m0 0c0-5.511-4.468-9.979-9.979-9.979s-9.979 4.468-9.979 9.979 4.468 9.979 9.979 9.979 9.979-4.468 9.979-9.979" fill="#97ceb5"/>
    </g>
    <g id="g80382" transform="translate(505.52 677.43)">
     <path id="path80384" d="m0 0 0.139 0.139h0.674l0.121-0.121-0.121-0.122h-0.533v-0.323h0.445l0.118-0.117-0.118-0.119h-0.445v-0.346l-0.141-0.141-0.139 0.141z" fill="#ffedad"/>
    </g>
    <g id="g80386" transform="translate(507.03 677.26)">
     <path id="path80388" d="m0 0c0.293 0 0.507-0.211 0.507-0.487 0-0.277-0.223-0.497-0.516-0.497s-0.508 0.211-0.508 0.488c0 0.276 0.224 0.496 0.517 0.496m-4e-3 -0.74c0.141 0 0.246 0.11 0.246 0.247 0 0.139-0.105 0.248-0.246 0.248-0.143 0-0.247-0.109-0.247-0.248 0-0.137 0.104-0.247 0.247-0.247" fill="#ffedad"/>
    </g>
    <g id="g80390" transform="translate(507.99 677.45)">
     <path id="path80392" d="m0 0v-1.031l-0.134-0.136-0.135 0.136v1.031l0.135 0.134z" fill="#ffedad"/>
    </g>
    <g id="g80394" transform="translate(508.22 677.45)">
     <path id="path80396" d="m0 0 0.134 0.132 0.132-0.132v-0.626l0.375 0.379 0.095 0.044 0.114-0.116-0.037-0.089-0.271-0.242 0.291-0.308 0.033-0.088-0.122-0.123-0.108 0.057-0.37 0.423v-0.346l-0.132-0.134-0.134 0.134z" fill="#ffedad"/>
    </g>
    <g id="g80398" transform="translate(509.5 677.45)">
     <path id="path80400" d="m0 0v-1.031l-0.134-0.136-0.135 0.136v1.031l0.135 0.134z" fill="#ffedad"/>
    </g>
    <g id="g80402" transform="translate(510.2 677.26)">
     <path id="path80404" d="m0 0c0.293 0 0.507-0.211 0.507-0.487 0-0.277-0.223-0.497-0.516-0.497s-0.508 0.211-0.508 0.488c0 0.276 0.224 0.496 0.517 0.496m-4e-3 -0.74c0.141 0 0.246 0.11 0.246 0.247 0 0.139-0.105 0.248-0.246 0.248-0.143 0-0.247-0.109-0.247-0.248 0-0.137 0.104-0.247 0.247-0.247" fill="#ffedad"/>
    </g>
    <g id="g80406" transform="translate(510.89 677.13)">
     <path id="path80408" d="m0 0 0.117 0.117 0.119-0.117 2e-3 -0.077c0.057 0.13 0.148 0.203 0.266 0.203l0.137-0.135-0.137-0.138c-0.143 0-0.238-0.087-0.238-0.274v-0.293l-0.132-0.134-0.134 0.134z" fill="#ffedad"/>
    </g>
    <g id="g80410" transform="translate(511.63 677.5)">
     <path id="path80412" d="m0 0c0 0.088 0.066 0.154 0.161 0.154 0.094 0 0.16-0.066 0.16-0.154 0-0.09-0.066-0.154-0.16-0.154-0.095 0-0.161 0.064-0.161 0.154m0.295-0.387v-0.694l-0.134-0.135-0.135 0.135v0.694l0.135 0.136z" fill="#ffedad"/>
    </g>
    <g id="g80414" transform="translate(512.15 677.45)">
     <path id="path80416" d="m0 0 0.134 0.132 0.132-0.132v-0.626l0.375 0.379 0.095 0.044 0.114-0.116-0.037-0.089-0.271-0.242 0.291-0.308 0.033-0.088-0.122-0.123-0.108 0.057-0.37 0.423v-0.346l-0.132-0.134-0.134 0.134z" fill="#ffedad"/>
    </g>
    <g id="g80418" transform="translate(513.97 676.83)">
     <path id="path80420" d="m0 0v-0.425l-0.121-0.121-0.113 0.084c-0.072-0.062-0.173-0.093-0.283-0.093-0.227 0-0.364 0.121-0.364 0.288 0 0.166 0.145 0.296 0.372 0.296 0.099 0 0.181-0.025 0.242-0.067v0.04c0 0.132-0.09 0.203-0.215 0.203l-0.166-0.044-0.063-0.014-0.102 0.1 0.062 0.099c0.039 0.026 0.134 0.083 0.322 0.083 0.264 0 0.429-0.16 0.429-0.429m-0.258-0.256c0 0.071-0.068 0.13-0.182 0.13-0.106 0-0.174-0.059-0.174-0.13 0-0.072 0.068-0.13 0.174-0.13 0.114 0 0.182 0.058 0.182 0.13" fill="#ffedad"/>
    </g>
    <g id="g80422" transform="translate(505.05 677.05)">
     <path id="path80424" d="m0 0c0-2.754-2.233-4.986-4.986-4.986-2.754 0-4.987 2.232-4.987 4.986s2.233 4.986 4.987 4.986c2.753 0 4.986-2.232 4.986-4.986" fill="#ffedad"/>
    </g>
    <g id="g80426" transform="translate(499.75 676.25)">
     <path id="path80428" d="m0 0v-1.249c0-0.272-0.077-0.479-0.231-0.619-0.153-0.141-0.378-0.212-0.672-0.212-0.29 0-0.515 0.076-0.675 0.227s-0.24 0.363-0.24 0.634v3.841c0 0.392 0.08 0.665 0.242 0.819 0.161 0.153 0.446 0.23 0.853 0.23h2.384c0.264 0 0.462-0.062 0.596-0.186 0.133-0.124 0.2-0.307 0.2-0.548 0-0.225-0.066-0.397-0.196-0.515-0.131-0.118-0.322-0.177-0.573-0.177h-1.688v-0.876h1.215c0.256 0 0.446-0.057 0.569-0.171 0.123-0.115 0.184-0.291 0.184-0.529 0-0.226-0.065-0.394-0.196-0.504-0.13-0.11-0.333-0.165-0.607-0.165z" fill="#eb6e6a"/>
    </g>
   </g>
  </g>
 </g>
</svg>
