<?xml version="1.0" encoding="UTF-8" standalone="no"?>
<!-- Created with Inkscape (http://www.inkscape.org/) -->

<svg
   xmlns:dc="http://purl.org/dc/elements/1.1/"
   xmlns:cc="http://creativecommons.org/ns#"
   xmlns:rdf="http://www.w3.org/1999/02/22-rdf-syntax-ns#"
   xmlns:svg="http://www.w3.org/2000/svg"
   xmlns="http://www.w3.org/2000/svg"
   xmlns:sodipodi="http://sodipodi.sourceforge.net/DTD/sodipodi-0.dtd"
   xmlns:inkscape="http://www.inkscape.org/namespaces/inkscape"
   height="549.63202"
   width="640"
   version="1.1"
   id="svg2"
   inkscape:version="0.92.0 r15299"
   sodipodi:docname="Food Network HD.svg"
   viewBox="0 0 600 515.28003">
  <defs
     id="defs44" />
  <sodipodi:namedview
     pagecolor="#ffffff"
     bordercolor="#666666"
     borderopacity="1"
     objecttolerance="10"
     gridtolerance="10"
     guidetolerance="10"
     inkscape:pageopacity="0"
     inkscape:pageshadow="2"
     inkscape:window-width="1920"
     inkscape:window-height="1017"
     id="namedview42"
     showgrid="false"
     inkscape:zoom="1.2954292"
     inkscape:cx="243.47378"
     inkscape:cy="285.91141"
     inkscape:window-x="-8"
     inkscape:window-y="-8"
     inkscape:window-maximized="1"
     inkscape:current-layer="svg2" />
  <metadata
     id="metadata4">
    <rdf:RDF>
      <cc:Work
         rdf:about="">
        <dc:format>image/svg+xml</dc:format>
        <dc:type
           rdf:resource="http://purl.org/dc/dcmitype/StillImage" />
        <dc:title />
      </cc:Work>
    </rdf:RDF>
  </metadata>
  <path
     style="fill:#b30034;fill-rule:nonzero;fill-opacity:1"
     inkscape:connector-curvature="0"
     id="path8"
     d="m 411.97032,429.38569 c 0,-52.688 39.934,-96.057 91.162,-101.51 6.5269,-22.63 10.091,-46.504 10.091,-71.195 0,-141.75 -114.91,-256.65 -256.61,-256.65 -141.75,0 -256.61,114.91 -256.61,256.65 0,141.7 114.87,256.57 256.61,256.57 60.245,0 115.6,-20.783 159.35,-55.565 -2.5764,-8.9745 -3.9934,-18.464 -3.9934,-28.298" />
  <path
     style="fill:#ffffff;fill-rule:nonzero"
     inkscape:connector-curvature="0"
     id="path10"
     d="m 88.72732,333.91569 c 4.4658,-21.084 9.0175,-67.889 14.857,-124.1 l 19.924,-0.0429 1.417,-8.8028 -20.225,0.0859 c 1.8035,-17.391 5.1528,-54.921 21.47,-61.662 4.3799,7.6434 8.5451,13.569 17.906,13.698 6.0116,0.12882 11.379,-2.5764 11.508,-9.1033 0.17176,-9.361 -14.127,-13.14 -21.47,-13.269 -13.612,-0.25765 -52.301,4.8093 -61.834,56.896 l -2.4476,13.44 -15.716,0.0859 -1.417,8.8028 15.802,0.0859 c -4.5087,40.793 -13.569,123.28 -16.017,134.57 -5.4534,24.862 -7.3857,30.788 -19.753,37.53 1.5029,2.6623 3.0058,5.2816 4.6376,7.901 21.17,-6.5269 45.044,-25.85 51.357,-56.123" />
  <path
     style="fill:#ffffff;fill-rule:nonzero"
     inkscape:connector-curvature="0"
     id="path12"
     d="m 122.65932,274.31569 c 0,-39.977 26.151,-74.63 69.52,-74.63 26.666,0 42.425,11.894 42.425,37.83 0,39.977 -26.151,74.587 -69.563,74.587 -26.623,0 -42.382,-11.852 -42.382,-37.787 m 76.82,-30.273 c 0,-10.434 -0.72998,-35.125 -16.06,-35.125 -22.501,0 -25.635,43.327 -25.635,59.086 0,10.177 0.72998,34.91 16.017,34.91 22.501,0 25.678,-43.37 25.678,-58.871" />
  <path
     style="fill:#ffffff;fill-rule:nonzero"
     inkscape:connector-curvature="0"
     id="path14"
     d="m 243.78032,274.31569 c 0,-39.977 26.151,-74.63 69.563,-74.63 26.623,0 42.382,11.894 42.382,37.83 0,39.977 -26.151,74.587 -69.52,74.587 -26.666,0 -42.425,-11.852 -42.425,-37.787 m 76.82,-30.273 c 0,-10.434 -0.72998,-35.125 -15.974,-35.125 -22.544,0 -25.721,43.327 -25.721,59.086 0,10.177 0.72998,34.91 16.017,34.91 22.544,0 25.678,-43.37 25.678,-58.871" />
  <path
     style="fill:#ffffff;fill-rule:nonzero"
     inkscape:connector-curvature="0"
     id="path16"
     d="m 487.53032,298.76569 c -15.244,7.2998 -33.923,13.354 -46.762,13.354 -6.5269,0 -6.3122,-10.434 -6.3122,-14.771 0,-5.1099 0.51529,-12.152 1.6747,-25.721 l -0.47235,-0.47234 c -8.7169,17.434 -25.635,40.965 -47.492,40.965 -17.434,0 -24.691,-18.207 -24.691,-33.236 0,-38.045 30.015,-77.507 71.968,-77.507 h 8.7169 c 3.3923,-26.408 3.607,-37.573 3.607,-45.56 0,-2.6623 0,-5.067 -2.9199,-5.067 -2.147,0 -5.5393,0.68705 -14.084,3.3493 l -2.147,-6.9993 c 17.219,-6.0546 35.898,-9.9192 52.602,-10.392 2.19,0 2.9199,0 2.9199,3.607 0,22.286 -16.747,137.41 -16.747,149 0,3.1346 0,7.2998 3.1776,7.2998 1.7176,0 7.2569,-1.9753 14.771,-4.5946 l 2.19,6.7416 m -55.522,-36.07 c 5.7969,-15.029 7.7722,-28.813 10.907,-51.357 -1.1594,-0.47234 -2.6623,-0.72998 -3.8217,-0.72998 -26.666,0 -39.29,38.775 -39.29,60.331 0,5.3246 1.2453,18.164 8.9745,18.164 10.649,0 20.096,-18.164 23.231,-26.408" />
  <path
     style="fill:#ffffff;fill-rule:nonzero"
     inkscape:connector-curvature="0"
     id="path18"
     d="m 158.99932,371.75569 v -31.003 h 6.7846 v 3.3493 c 2.7482,-1.9323 5.8828,-3.9505 9.5327,-3.9505 6.1834,0 9.1892,4.0793 9.1892,10.349 v 21.255 h -7.3857 v -20.182 c 0,-4.1652 -1.3311,-5.4534 -3.8217,-5.4534 -3.2205,0 -5.6681,1.8464 -6.9134,3.2635 v 22.372 h -7.3857 z" />
  <path
     style="fill:#ffffff;fill-rule:nonzero"
     inkscape:connector-curvature="0"
     id="path20"
     d="m 204.29232,357.45569 c 0.12882,6.441 3.0058,8.9316 6.441,8.9316 3.4782,0 5.067,-1.5888 6.8704,-3.6929 l 5.4534,3.3493 c -2.877,4.3799 -7.0422,6.3122 -13.054,6.3122 -8.0298,0 -13.097,-6.2693 -13.097,-16.146 0,-9.7904 5.067,-16.06 13.483,-16.06 8.0728,-0.0859 12.667,6.8275 12.667,14.256 v 3.0488 h -18.765 m 11.937,-5.024 c -0.12882,-4.294 -2.4047,-6.7846 -5.9687,-6.7846 -3.564,0 -5.8399,2.4905 -5.9687,6.7846 h 11.937 z" />
  <path
     style="fill:#ffffff;fill-rule:nonzero"
     inkscape:connector-curvature="0"
     id="path22"
     d="m 237.46032,340.74569 v -10.22 h 7.3857 v 10.22 h 6.0975 v 6.0116 h -6.0975 v 17.52 c 0,1.6317 0.8588,2.1041 2.6623,2.1041 1.1594,0 2.3188,-0.34353 3.4352,-0.60117 v 6.0975 c -2.0611,0.25764 -3.8217,0.47234 -5.8399,0.47234 -5.4964,0 -7.6434,-2.7482 -7.6434,-7.171 v -18.421 h -4.294 v -6.0116 h 4.294 z" />
  <path
     style="fill:#ffffff;fill-rule:nonzero"
     inkscape:connector-curvature="0"
     id="path24"
     d="m 260.05032,340.74569 h 7.0422 l 4.2082,19.323 h 0.12882 l 4.4658,-19.323 h 6.8704 l 4.2511,19.323 h 0.17176 l 4.3799,-19.323 h 6.9993 l -7.944,31.003 h -6.6987 l -4.5946,-19.323 h -0.12882 l -4.5087,19.323 h -6.6557 l -7.9869,-31.003 z" />
  <path
     style="fill:#ffffff;fill-rule:nonzero"
     inkscape:connector-curvature="0"
     id="path26"
     d="m 321.25032,340.15569 c 8.4163,0 13.483,6.2693 13.483,16.06 0,9.8763 -5.067,16.146 -13.483,16.146 -8.4163,0 -13.483,-6.2693 -13.483,-16.146 0,-9.7904 5.067,-16.06 13.483,-16.06 m 0,5.9687 c -4.1223,0 -6.0546,3.2205 -6.0546,10.091 0,6.9563 1.9323,10.177 6.0546,10.177 4.1652,0 6.0546,-3.2205 6.0546,-10.177 0,-6.8704 -1.8894,-10.091 -6.0546,-10.091" />
  <path
     style="fill:#ffffff;fill-rule:nonzero"
     inkscape:connector-curvature="0"
     id="path28"
     d="m 346.67032,371.75569 v -31.003 h 6.7846 v 5.3246 h 0.12882 c 1.7606,-3.7358 4.294,-5.7969 8.6739,-5.9258 v 7.8151 c -0.38647,-0.0429 -0.77293,-0.0429 -1.2882,-0.0429 -3.6929,0 -6.9134,4.2082 -6.9134,4.9811 v 18.851 h -7.3857 z" />
  <path
     style="fill:#ffffff;fill-rule:nonzero"
     inkscape:connector-curvature="0"
     id="path30"
     d="m 374.11032,371.75569 v -43.026 h 7.3857 v 24.004 h 0.25764 l 9.1463,-11.98 h 8.4592 l -9.1463,11.551 9.7904,19.452 h -7.8581 l -6.8704,-13.87 -3.7787,4.337 v 9.5327 h -7.3857 z" />
  <path
     style="fill:#b30034;fill-rule:nonzero;fill-opacity:1"
     inkscape:connector-curvature="0"
     id="path32"
     d="m 428.15032,429.38569 c 0,47.449 38.474,85.924 85.923,85.924 47.449,0 85.923,-38.474 85.923,-85.924 0,-47.449 -38.474,-85.923 -85.923,-85.923 -47.449,0 -85.923,38.474 -85.923,85.923" />
  <path
     style="fill:#ffffff;fill-rule:nonzero"
     inkscape:connector-curvature="0"
     id="path34"
     d="m 495.93032,422.34569 h -26.838 l 2.0611,-19.753 h -16.317 l -5.9258,56.381 h 16.317 l 2.2758,-21.427 h 26.838 l -2.2758,21.427 h 16.317 l 5.9258,-56.381 h -16.317 z" />
  <path
     style="fill:#ffffff;fill-rule:nonzero"
     inkscape:connector-curvature="0"
     id="path36"
     d="m 538.34032,417.52569 h 6.9134 c 8.7169,0 13.913,1.2453 16.274,3.8646 1.0306,1.1594 2.3617,3.3064 1.7606,8.8887 -0.90174,8.5021 -4.8093,13.784 -21.513,13.784 h -6.2263 l 2.7911,-26.537 z m 35.941,-6.5269 c -4.9381,-5.4964 -13.183,-8.3734 -23.746,-8.3734 h -26.924 l -5.9258,56.338 h 27.997 c 19.366,0 32.033,-10.52 33.88,-28.126 0.85881,-8.2875 -0.90174,-14.986 -5.2816,-19.838" />
</svg>
