<svg height="549.63202" viewBox="0 0 600 515.28003" width="640" xmlns="http://www.w3.org/2000/svg"><path d="m411.97032 429.38569c0-52.688 39.934-96.057 91.162-101.51 6.5269-22.63 10.091-46.504 10.091-71.195 0-141.75-114.91-256.65-256.61-256.65-141.75 0-256.61 114.91-256.61 256.65 0 141.7 114.87 256.57 256.61 256.57 60.245 0 115.6-20.783 159.35-55.565-2.5764-8.9745-3.9934-18.464-3.9934-28.298" fill="#b30034"/><g fill="#fff"><path d="m88.72732 333.91569c4.4658-21.084 9.0175-67.889 14.857-124.1l19.924-.0429 1.417-8.8028-20.225.0859c1.8035-17.391 5.1528-54.921 21.47-61.662 4.3799 7.6434 8.5451 13.569 17.906 13.698 6.0116.12882 11.379-2.5764 11.508-9.1033.17176-9.361-14.127-13.14-21.47-13.269-13.612-.25765-52.301 4.8093-61.834 56.896l-2.4476 13.44-15.716.0859-1.417 8.8028 15.802.0859c-4.5087 40.793-13.569 123.28-16.017 134.57-5.4534 24.862-7.3857 30.788-19.753 37.53 1.5029 2.6623 3.0058 5.2816 4.6376 7.901 21.17-6.5269 45.044-25.85 51.357-56.123"/><path d="m122.65932 274.31569c0-39.977 26.151-74.63 69.52-74.63 26.666 0 42.425 11.894 42.425 37.83 0 39.977-26.151 74.587-69.563 74.587-26.623 0-42.382-11.852-42.382-37.787m76.82-30.273c0-10.434-.72998-35.125-16.06-35.125-22.501 0-25.635 43.327-25.635 59.086 0 10.177.72998 34.91 16.017 34.91 22.501 0 25.678-43.37 25.678-58.871"/><path d="m243.78032 274.31569c0-39.977 26.151-74.63 69.563-74.63 26.623 0 42.382 11.894 42.382 37.83 0 39.977-26.151 74.587-69.52 74.587-26.666 0-42.425-11.852-42.425-37.787m76.82-30.273c0-10.434-.72998-35.125-15.974-35.125-22.544 0-25.721 43.327-25.721 59.086 0 10.177.72998 34.91 16.017 34.91 22.544 0 25.678-43.37 25.678-58.871"/><path d="m487.53032 298.76569c-15.244 7.2998-33.923 13.354-46.762 13.354-6.5269 0-6.3122-10.434-6.3122-14.771 0-5.1099.51529-12.152 1.6747-25.721l-.47235-.47234c-8.7169 17.434-25.635 40.965-47.492 40.965-17.434 0-24.691-18.207-24.691-33.236 0-38.045 30.015-77.507 71.968-77.507h8.7169c3.3923-26.408 3.607-37.573 3.607-45.56 0-2.6623 0-5.067-2.9199-5.067-2.147 0-5.5393.68705-14.084 3.3493l-2.147-6.9993c17.219-6.0546 35.898-9.9192 52.602-10.392 2.19 0 2.9199 0 2.9199 3.607 0 22.286-16.747 137.41-16.747 149 0 3.1346 0 7.2998 3.1776 7.2998 1.7176 0 7.2569-1.9753 14.771-4.5946l2.19 6.7416m-55.522-36.07c5.7969-15.029 7.7722-28.813 10.907-51.357-1.1594-.47234-2.6623-.72998-3.8217-.72998-26.666 0-39.29 38.775-39.29 60.331 0 5.3246 1.2453 18.164 8.9745 18.164 10.649 0 20.096-18.164 23.231-26.408"/><path d="m158.99932 371.75569v-31.003h6.7846v3.3493c2.7482-1.9323 5.8828-3.9505 9.5327-3.9505 6.1834 0 9.1892 4.0793 9.1892 10.349v21.255h-7.3857v-20.182c0-4.1652-1.3311-5.4534-3.8217-5.4534-3.2205 0-5.6681 1.8464-6.9134 3.2635v22.372h-7.3857z"/><path d="m204.29232 357.45569c.12882 6.441 3.0058 8.9316 6.441 8.9316 3.4782 0 5.067-1.5888 6.8704-3.6929l5.4534 3.3493c-2.877 4.3799-7.0422 6.3122-13.054 6.3122-8.0298 0-13.097-6.2693-13.097-16.146 0-9.7904 5.067-16.06 13.483-16.06 8.0728-.0859 12.667 6.8275 12.667 14.256v3.0488h-18.765m11.937-5.024c-.12882-4.294-2.4047-6.7846-5.9687-6.7846s-5.8399 2.4905-5.9687 6.7846h11.937z"/><path d="m237.46032 340.74569v-10.22h7.3857v10.22h6.0975v6.0116h-6.0975v17.52c0 1.6317.8588 2.1041 2.6623 2.1041 1.1594 0 2.3188-.34353 3.4352-.60117v6.0975c-2.0611.25764-3.8217.47234-5.8399.47234-5.4964 0-7.6434-2.7482-7.6434-7.171v-18.421h-4.294v-6.0116h4.294z"/><path d="m260.05032 340.74569h7.0422l4.2082 19.323h.12882l4.4658-19.323h6.8704l4.2511 19.323h.17176l4.3799-19.323h6.9993l-7.944 31.003h-6.6987l-4.5946-19.323h-.12882l-4.5087 19.323h-6.6557l-7.9869-31.003z"/><path d="m321.25032 340.15569c8.4163 0 13.483 6.2693 13.483 16.06 0 9.8763-5.067 16.146-13.483 16.146-8.4163 0-13.483-6.2693-13.483-16.146 0-9.7904 5.067-16.06 13.483-16.06m0 5.9687c-4.1223 0-6.0546 3.2205-6.0546 10.091 0 6.9563 1.9323 10.177 6.0546 10.177 4.1652 0 6.0546-3.2205 6.0546-10.177 0-6.8704-1.8894-10.091-6.0546-10.091"/><path d="m346.67032 371.75569v-31.003h6.7846v5.3246h.12882c1.7606-3.7358 4.294-5.7969 8.6739-5.9258v7.8151c-.38647-.0429-.77293-.0429-1.2882-.0429-3.6929 0-6.9134 4.2082-6.9134 4.9811v18.851h-7.3857z"/><path d="m374.11032 371.75569v-43.026h7.3857v24.004h.25764l9.1463-11.98h8.4592l-9.1463 11.551 9.7904 19.452h-7.8581l-6.8704-13.87-3.7787 4.337v9.5327h-7.3857z"/></g><path d="m428.15032 429.38569c0 47.449 38.474 85.924 85.923 85.924s85.923-38.474 85.923-85.924c0-47.449-38.474-85.923-85.923-85.923s-85.923 38.474-85.923 85.923" fill="#b30034"/><path d="m495.93032 422.34569h-26.838l2.0611-19.753h-16.317l-5.9258 56.381h16.317l2.2758-21.427h26.838l-2.2758 21.427h16.317l5.9258-56.381h-16.317z" fill="#fff"/><path d="m538.34032 417.52569h6.9134c8.7169 0 13.913 1.2453 16.274 3.8646 1.0306 1.1594 2.3617 3.3064 1.7606 8.8887-.90174 8.5021-4.8093 13.784-21.513 13.784h-6.2263l2.7911-26.537zm35.941-6.5269c-4.9381-5.4964-13.183-8.3734-23.746-8.3734h-26.924l-5.9258 56.338h27.997c19.366 0 32.033-10.52 33.88-28.126.85881-8.2875-.90174-14.986-5.2816-19.838" fill="#fff"/></svg>