<svg enable-background="new 0 0 841.89 595.28" height="166.38" viewBox="0 0 318.57199 166.38" width="318.57199" xmlns="http://www.w3.org/2000/svg" xmlns:xlink="http://www.w3.org/1999/xlink"><clipPath id="a"><path d="m0 0h841.89001v595.28003h-841.89001z" height="100%" transform="" width="100%"/></clipPath><clipPath id="b"><path d="m577.979 378.672-17.949-162.335h-143.891v143.889z" height="100%" transform="" width="100%"/></clipPath><linearGradient id="c" gradientTransform="matrix(0 162.3347 -162.3347 0 97131.656 216.2803)" gradientUnits="userSpaceOnUse" x1=".000488" x2="1.0005" y1="595.28027" y2="595.28027"><stop offset="0" stop-color="#fccb2b"/><stop offset=".2401" stop-color="#fff2b4"/><stop offset=".3396" stop-color="#ffcd2a"/><stop offset=".373" stop-color="#fbc827"/><stop offset=".4214" stop-color="#f2b71f"/><stop offset=".4787" stop-color="#e29c15"/><stop offset=".5161" stop-color="#d7870e"/><stop offset=".5591" stop-color="#dd9627"/><stop offset=".6485" stop-color="#ecbc61"/><stop offset=".7623" stop-color="#fff2b4"/><stop offset=".913" stop-color="#f6b815"/><stop offset=".96" stop-color="#f7ca33"/><stop offset="1" stop-color="#f8da4c"/></linearGradient><clipPath id="d"><path d="m418.143 358.438v-140.104h140.096l17.478 158.069zm-4.001-144.102v147.672l164.119 18.708h1.955l-18.394-166.38z" height="100%" transform="" width="100%"/></clipPath><linearGradient id="e" gradientTransform="matrix(0 143.901 -143.901 0 86158.531 231.5303)" gradientUnits="userSpaceOnUse" x1="0" x2="1" y1="595.27832" y2="595.27832"><stop offset="0" stop-color="#fccb2b"/><stop offset=".1034" stop-color="#fccb2b"/><stop offset=".2134" stop-color="#e09815"/><stop offset=".2501" stop-color="#d7870e"/><stop offset=".3025" stop-color="#dd9627"/><stop offset=".4117" stop-color="#ecbc61"/><stop offset=".5505" stop-color="#fff2b4"/><stop offset=".9672" stop-color="#f6b815"/><stop offset="1" stop-color="#f6b815"/></linearGradient><clipPath id="f"><path d="m560.676 338.245-7.626-81h-121.999v66z" height="100%" transform="" width="100%"/></clipPath><linearGradient id="g" gradientUnits="userSpaceOnUse" x1="465.875" x2="560.6547" y1="297.723406518999" y2="297.723406518999"><stop offset="0" stop-color="#9e5e18"/><stop offset=".2688" stop-color="#9e5e18"/><stop offset=".3541" stop-color="#a1631d"/><stop offset=".4825" stop-color="#ab712b"/><stop offset=".6383" stop-color="#bd8a48"/><stop offset=".8153" stop-color="#d6b176"/><stop offset="1" stop-color="#f8e3b5"/></linearGradient><clipPath id="h"><path d="m465.669 272.23v23.783c0 6.095-2.903 9.144-8.709 9.144-2.99 0-5.203-.735-6.65-2.212-1.441-1.478-2.163-3.771-2.163-6.884v-23.831h-6.183v24.271c0 4.328 1.296 7.733 3.889 10.204 2.594 2.475 6.229 3.712 10.901 3.712 3.141 0 5.841-.562 8.104-1.69 2.258-1.126 3.983-2.729 5.179-4.816 1.19-2.084 1.791-4.523 1.791-7.305v-24.376z" height="100%" transform="" width="100%"/></clipPath><linearGradient id="i"><stop offset="0" stop-color="#fccb2b"/><stop offset=".1613" stop-color="#fff2b4"/><stop offset=".2903" stop-color="#ffcd2a"/><stop offset=".3452" stop-color="#fbc827"/><stop offset=".4247" stop-color="#f2b71f"/><stop offset=".5187" stop-color="#e29c15"/><stop offset=".5802" stop-color="#d7870e"/><stop offset=".6676" stop-color="#e39b10"/><stop offset=".775" stop-color="#f6b815"/><stop offset=".8806" stop-color="#f7ca33"/><stop offset=".9704" stop-color="#f8da4c"/><stop offset="1" stop-color="#f8da4c"/></linearGradient><linearGradient id="j" gradientTransform="matrix(0 37.0573 -37.0573 0 22516.373 272.2178)" gradientUnits="userSpaceOnUse" x1="-.000488" x2=".9995" xlink:href="#i" y1="595.28027" y2="595.28027"/><clipPath id="k"><path d="m483.666 287.638v-15.408h-6.158v37.671h6.158v-16.983h17.366v16.983h6.183v-37.671h-6.183v15.408z" height="100%" transform="" width="100%"/></clipPath><linearGradient id="l" gradientTransform="matrix(0 36.5574 -36.5574 0 22254.271 272.2178)" gradientUnits="userSpaceOnUse" x1=".000488" x2="1.0005" xlink:href="#i" y1="595.28131" y2="595.28131"/><clipPath id="m"><path d="m519.336 277.385h5.332c8.434 0 12.654 4.506 12.654 13.525 0 9.208-4.537 13.812-13.606 13.812h-4.38zm-6.159-5.155v37.671h10.539c6.493 0 11.463-1.646 14.916-4.937 3.454-3.288 5.179-8.042 5.179-14.26 0-5.858-1.664-10.4-4.996-13.631-3.332-3.23-7.995-4.844-13.993-4.844h-11.645z" height="100%" transform="" width="100%"/></clipPath><linearGradient id="n" gradientTransform="matrix(0 36.5574 -36.5574 0 22290.396 272.2178)" gradientUnits="userSpaceOnUse" x1=".000488" x2="1.0005" xlink:href="#i" y1="595.28131" y2="595.28131"/><path clip-path="url(#b)" d="m416.13901 216.33701h161.839v162.334h-161.839z" fill="url(#c)" transform="translate(-261.644 -214.336)"/><path clip-path="url(#d)" d="m414.142 214.336h166.074v166.381h-166.074z" fill="url(#e)" transform="translate(-261.644 -214.336)"/><path clip-path="url(#f)" d="m431.05099 257.245h129.625v81h-129.625z" fill="url(#g)" transform="translate(-261.644 -214.336)"/><path d="m171.644 107.154v-62.052h117.369l7.626 77.052z" fill="#12110c"/><path d="m .203 21.865v50.642h12.155v-18.377h18.732v-11.285h-18.732v-9.695h24.089v-11.285z"/><path clip-path="url(#a)" d="m348.441 264.271c0 15.265-8.824 23.583-22.064 23.583-13.309 0-22.064-8.318-22.064-23.583v-28.069h12.299v27.707c0 8.681 3.328 12.441 9.908 12.441 6.513 0 9.911-3.76 9.911-12.441v-27.707h12.01z" transform="translate(-261.644 -214.336)"/><path clip-path="url(#a)" d="m368.337 256.602h-.216l.143 30.237h-12.153v-50.639h12.299l21.555 29.662h.22l-.073-29.662h12.152v50.639h-12.368z" transform="translate(-261.644 -214.336)"/><path clip-path="url(#a)" d="m281.304 333.173c3.987 0 6.12-2.27 6.12-5.496 0-3.44-2.339-5.5-6.12-5.5h-8.11v10.996zm-1.098-19.521c3.161 0 5.224-1.928 5.224-4.742 0-2.685-1.993-4.744-5.294-4.744h-6.942v9.486zm10.654 3.437c4.673 1.373 8.729 5.224 8.729 11.616 0 7.426-5.294 14.023-17.255 14.023h-20.69v-48.118h20.76c8.661 0 14.641 5.845 14.641 12.512 0 5.359-3.576 8.729-6.186 9.691v.276z" transform="translate(-261.644 -214.336)"/><path clip-path="url(#a)" d="m328.529 332.762c7.974 0 13.749-5.499 13.749-14.09 0-8.664-5.775-14.164-13.749-14.164s-13.749 5.5-13.749 14.164c0 8.591 5.775 14.09 13.749 14.09m0-39.114c14.711 0 25.364 10.309 25.364 25.023 0 14.707-10.653 25.019-25.364 25.019-14.71 0-25.364-10.312-25.364-25.019 0-14.714 10.654-25.023 25.364-25.023" transform="translate(-261.644 -214.336)"/><path clip-path="url(#a)" d="m377.953 327.536h-.066l-10.449 15.191h-13.954l17.871-24.744-17.049-23.371h14.024l10.313 14.707h.066l9.626-14.707h13.815l-16.84 23.371 17.46 24.744h-14.505z" transform="translate(-261.644 -214.336)"/><path clip-path="url(#h)" d="m441.96399 272.23001h29.863v38.187h-29.863z" fill="url(#j)" transform="translate(-261.644 -214.336)"/><path clip-path="url(#k)" d="m477.508 272.23001h29.707v37.671h-29.707z" fill="url(#l)" transform="translate(-261.644 -214.336)"/><path clip-path="url(#m)" d="m513.177 272.23001h30.634v37.671h-30.634z" fill="url(#n)" transform="translate(-261.644 -214.336)"/></svg>