<svg width="211.67mm" height="99.837mm" version="1.1" viewBox="0 0 211.67 99.837" xmlns="http://www.w3.org/2000/svg">
 <defs>
  <linearGradient id="a" x2="1" gradientTransform="matrix(0 -4.064 -4.064 0 78.139 499.12)" gradientUnits="userSpaceOnUse">
   <stop stop-color="#f9c525" offset="0"/>
   <stop stop-color="#fcf29d" offset=".16129"/>
   <stop stop-color="#fbc824" offset=".37407"/>
   <stop stop-color="#fbc824" offset=".40545"/>
   <stop stop-color="#fcf29d" offset=".47656"/>
   <stop stop-color="#f3b01b" offset=".578"/>
   <stop stop-color="#f3b01b" offset=".59262"/>
   <stop stop-color="#f1d93b" offset=".75862"/>
   <stop stop-color="#f3b01b" offset=".95238"/>
   <stop stop-color="#f3b01b" offset=".9559"/>
   <stop stop-color="#f3b01b" offset="1"/>
  </linearGradient>
  <linearGradient id="b" x2="1" gradientTransform="matrix(0 -3.9506 -3.9506 0 78.041 499.03)" gradientUnits="userSpaceOnUse">
   <stop stop-color="#f9c525" offset="0"/>
   <stop stop-color="#fcf29d" offset=".16129"/>
   <stop stop-color="#fbc824" offset=".29032"/>
   <stop stop-color="#fbc824" offset=".37908"/>
   <stop stop-color="#d37e1a" offset=".58017"/>
   <stop stop-color="#d37e1a" offset=".6052"/>
   <stop stop-color="#f3b01b" offset=".77504"/>
   <stop stop-color="#f3b01b" offset=".79086"/>
   <stop stop-color="#f1d93b" offset=".97044"/>
   <stop stop-color="#f1d93b" offset=".97263"/>
   <stop stop-color="#f1d93b" offset="1"/>
  </linearGradient>
  <linearGradient id="c" x2="1" gradientTransform="matrix(0 -4.064 -4.064 0 74.184 499.12)" gradientUnits="userSpaceOnUse">
   <stop stop-color="#f9c525" offset="0"/>
   <stop stop-color="#fcf29d" offset=".16129"/>
   <stop stop-color="#fbc824" offset=".37407"/>
   <stop stop-color="#fbc824" offset=".40545"/>
   <stop stop-color="#fcf29d" offset=".47656"/>
   <stop stop-color="#f3b01b" offset=".578"/>
   <stop stop-color="#f3b01b" offset=".59262"/>
   <stop stop-color="#f1d93b" offset=".75862"/>
   <stop stop-color="#f3b01b" offset=".95238"/>
   <stop stop-color="#f3b01b" offset=".9559"/>
   <stop stop-color="#f3b01b" offset="1"/>
  </linearGradient>
  <linearGradient id="d" x2="1" gradientTransform="matrix(0 -3.9506 -3.9506 0 74.086 499.03)" gradientUnits="userSpaceOnUse">
   <stop stop-color="#f9c525" offset="0"/>
   <stop stop-color="#fcf29d" offset=".16129"/>
   <stop stop-color="#fbc824" offset=".29032"/>
   <stop stop-color="#fbc824" offset=".37908"/>
   <stop stop-color="#d37e1a" offset=".58017"/>
   <stop stop-color="#d37e1a" offset=".6052"/>
   <stop stop-color="#f3b01b" offset=".77504"/>
   <stop stop-color="#f3b01b" offset=".79086"/>
   <stop stop-color="#f1d93b" offset=".97044"/>
   <stop stop-color="#f1d93b" offset=".97263"/>
   <stop stop-color="#f1d93b" offset="1"/>
  </linearGradient>
  <linearGradient id="e" x2="1" gradientTransform="matrix(0 -4.117 -4.117 0 70.36 499.12)" gradientUnits="userSpaceOnUse">
   <stop stop-color="#f9c525" offset="0"/>
   <stop stop-color="#fcf29d" offset=".16129"/>
   <stop stop-color="#fbc824" offset=".37407"/>
   <stop stop-color="#fbc824" offset=".40545"/>
   <stop stop-color="#fcf29d" offset=".47656"/>
   <stop stop-color="#f3b01b" offset=".578"/>
   <stop stop-color="#f3b01b" offset=".59262"/>
   <stop stop-color="#f1d93b" offset=".75862"/>
   <stop stop-color="#f3b01b" offset=".95238"/>
   <stop stop-color="#f3b01b" offset=".9559"/>
   <stop stop-color="#f3b01b" offset="1"/>
  </linearGradient>
  <linearGradient id="f" x2="1" gradientTransform="matrix(0 -4.0047 -4.0047 0 70.261 499.03)" gradientUnits="userSpaceOnUse">
   <stop stop-color="#f9c525" offset="0"/>
   <stop stop-color="#fcf29d" offset=".16129"/>
   <stop stop-color="#fbc824" offset=".29032"/>
   <stop stop-color="#fbc824" offset=".37908"/>
   <stop stop-color="#d37e1a" offset=".58017"/>
   <stop stop-color="#d37e1a" offset=".6052"/>
   <stop stop-color="#f3b01b" offset=".77504"/>
   <stop stop-color="#f3b01b" offset=".79086"/>
   <stop stop-color="#f1d93b" offset=".97044"/>
   <stop stop-color="#f1d93b" offset=".97263"/>
   <stop stop-color="#f1d93b" offset="1"/>
  </linearGradient>
  <linearGradient id="g" x2="1" gradientTransform="matrix(10.243 0 0 -10.243 69.405 500.86)" gradientUnits="userSpaceOnUse">
   <stop stop-color="#92541c" offset="0"/>
   <stop stop-color="#92541c" offset=".082319"/>
   <stop stop-color="#92541c" offset=".26882"/>
   <stop stop-color="#92541c" offset=".49272"/>
   <stop stop-color="#f3dda0" offset="1"/>
  </linearGradient>
  <linearGradient id="h" x2="1" gradientTransform="matrix(0 -15.551 -15.551 0 81.978 503.42)" gradientUnits="userSpaceOnUse">
   <stop stop-color="#f9c525" offset="0"/>
   <stop stop-color="#f9c525" offset=".10345"/>
   <stop stop-color="#d37e1a" offset=".25012"/>
   <stop stop-color="#d37e1a" offset=".2887"/>
   <stop stop-color="#fcf29d" offset=".55045"/>
   <stop stop-color="#f3b01b" offset=".96716"/>
   <stop stop-color="#f3b01b" offset=".96959"/>
   <stop stop-color="#f3b01b" offset="1"/>
  </linearGradient>
  <linearGradient id="i" x2="1" gradientTransform="matrix(0 -17.543 -17.543 0 81.733 505.07)" gradientUnits="userSpaceOnUse">
   <stop stop-color="#f9c525" offset="0"/>
   <stop stop-color="#fcf29d" offset=".24011"/>
   <stop stop-color="#fbc824" offset=".33958"/>
   <stop stop-color="#fbc824" offset=".39365"/>
   <stop stop-color="#d37e1a" offset=".51613"/>
   <stop stop-color="#d37e1a" offset=".54775"/>
   <stop stop-color="#fcf29d" offset=".76228"/>
   <stop stop-color="#f3b01b" offset=".91297"/>
   <stop stop-color="#f3b01b" offset=".92002"/>
   <stop stop-color="#f1d93b" offset="1"/>
  </linearGradient>
 </defs>
 <g transform="translate(23.714 -52.159)">
  <g transform="matrix(5.5681 0 0 -5.5681 -267.11 2865.6)">
   <path d="m64.028 505.07v-15.55l17.489-1.993-1.94 17.543z" fill="url(#i)"/>
  </g>
  <g transform="matrix(5.5681 0 0 -5.5681 -267.11 2865.6)">
   <path d="m63.812 505.28v-15.959l17.294-1.971h0.62v0.243l-1.955 17.687zm0.432-15.573v15.14h15.14l1.889-17.082z" fill="url(#h)"/>
  </g>
  <g transform="matrix(5.5681 0 0 -5.5681 -267.11 2865.6)">
   <path d="m65.639 500.65v-7.133l14.008-1.621-0.824 8.754z" fill="url(#g)"/>
  </g>
  <g transform="matrix(5.5681 0 0 -5.5681 99.723 116.64)">
   <path d="m0 0v6.706h12.684l0.824-8.327z" fill="#100f0d"/>
  </g>
  <g fill="#fff">
   <path d="m-14.671 64.179v7.0938h13.714v8.2575h-13.714v13.447h-8.8923v-37.056h26.521v8.2576z"/>
   <g transform="matrix(5.5681 0 0 -5.5681 39.808 76.462)">
    <path d="m0 0c0-2.006-1.16-3.1-2.9-3.1-1.749 0-2.9 1.094-2.9 3.1v3.689h1.617v-3.641c0-1.141 0.437-1.636 1.302-1.636 0.856 0 1.303 0.495 1.303 1.636v3.641h1.578z" fill="#fff"/>
   </g>
   <g transform="matrix(5.5681 0 0 -5.5681 54.369 70.85)">
    <path d="m0 0h-0.028c0-0.01 0.019-0.827 0.019-1.692v-2.282h-1.598v6.655h1.617l2.833-3.898h0.028c0 0.01-9e-3 0.865-9e-3 1.588v2.31h1.597v-6.655h-1.626z" fill="#fff"/>
   </g>
   <g transform="matrix(5.5681 0 0 -5.5681 -2.3325 115.12)">
    <path d="m0 0c0.614-0.181 1.147-0.687 1.147-1.527 0-0.976-0.695-1.843-2.267-1.843h-2.72v6.324h2.729c1.138 0 1.924-0.768 1.924-1.644 0-0.705-0.47-1.147-0.813-1.274zm-1.4 0.452c0.415 0 0.686 0.253 0.686 0.623 0 0.353-0.262 0.624-0.695 0.624h-0.913v-1.247zm0.144-2.566c0.524 0 0.804 0.298 0.804 0.723 0 0.451-0.307 0.722-0.804 0.722h-1.066v-1.445z" fill="#fff"/>
   </g>
   <g transform="matrix(5.5681 0 0 -5.5681 25.235 97.962)">
    <path d="m0 0c1.933 0 3.334-1.355 3.334-3.289 0-1.933-1.401-3.288-3.334-3.288s-3.334 1.355-3.334 3.288c0 1.934 1.401 3.289 3.334 3.289m0-5.141c1.048 0 1.807 0.723 1.807 1.852 0 1.139-0.759 1.862-1.807 1.862s-1.807-0.723-1.807-1.862c0-1.129 0.759-1.852 1.807-1.852" fill="#fff"/>
   </g>
   <g transform="matrix(5.5681 0 0 -5.5681 64.777 127.74)">
    <path d="m0 0c-0.352 0.524-0.596 0.895-0.605 0.895h-9e-3c-9e-3 0-0.262-0.371-0.633-0.904l-0.741-1.093h-1.834l2.349 3.252-2.24 3.072h1.843l0.723-1.048c0.334-0.47 0.623-0.885 0.632-0.885h9e-3c0.018 0 0.289 0.424 0.587 0.885l0.678 1.048h1.816l-2.214-3.072 2.295-3.252h-1.906z" fill="#fff"/>
   </g>
  </g>
  <g transform="matrix(5.5681 0 0 -5.5681 -267.11 2865.6)">
   <path d="m69.38 499.03v-2.57c0-0.659-0.314-0.989-0.941-0.989-0.323 0-0.563 0.08-0.718 0.239-0.157 0.161-0.235 0.408-0.235 0.745v2.575h-0.668v-2.623c0-0.468 0.14-0.835 0.42-1.102 0.281-0.268 0.673-0.402 1.178-0.402 0.34 0 0.632 0.061 0.876 0.183 0.244 0.121 0.431 0.295 0.56 0.52 0.128 0.226 0.193 0.489 0.193 0.789v2.635z" fill="url(#f)"/>
  </g>
  <g transform="matrix(5.5681 0 0 -5.5681 -267.11 2865.6)">
   <path d="m69.282 499.12v-2.668c0-0.607-0.268-0.891-0.843-0.891-0.295 0-0.512 0.071-0.648 0.211-0.137 0.139-0.206 0.366-0.206 0.675v2.673h-0.865v-2.721c0-0.493 0.152-0.888 0.451-1.174 0.298-0.284 0.717-0.428 1.245-0.428 0.354 0 0.663 0.065 0.92 0.193 0.26 0.129 0.463 0.318 0.601 0.559 0.137 0.241 0.206 0.523 0.206 0.838v2.733zm0.196-2.668v2.472h0.469v-2.537c0-0.281-0.06-0.531-0.18-0.739-0.119-0.208-0.293-0.37-0.518-0.483-0.23-0.113-0.51-0.172-0.833-0.172-0.476 0-0.849 0.126-1.109 0.375-0.26 0.246-0.391 0.593-0.391 1.031v2.525h0.472v-2.477c0-0.362 0.089-0.635 0.262-0.813 0.174-0.178 0.44-0.269 0.789-0.269 0.679 0 1.039 0.376 1.039 1.087" fill="url(#e)"/>
  </g>
  <g transform="matrix(5.5681 0 0 -5.5681 -267.11 2865.6)">
   <path d="m73.202 499.03v-1.665h-1.877v1.665h-0.666v-4.071h0.666v1.835h1.877v-1.835h0.667v4.071z" fill="url(#d)"/>
  </g>
  <g transform="matrix(5.5681 0 0 -5.5681 -267.11 2865.6)">
   <path d="m73.103 499.12v-1.665h-1.68v1.665h-0.862v-4.267h0.862v1.835h1.68v-1.835h0.864v4.267zm0.197-1.861v1.665h0.471v-3.875h-0.471v1.835h-2.073v-1.835h-0.47v3.875h0.47v-1.665z" fill="url(#c)"/>
  </g>
  <g transform="matrix(5.5681 0 0 -5.5681 -267.11 2865.6)">
   <path d="m74.514 499.03v-4.071h1.139c0.701 0 1.238 0.178 1.612 0.534 0.374 0.355 0.56 0.868 0.56 1.541 0 0.632-0.18 1.124-0.54 1.473-0.361 0.349-0.865 0.523-1.512 0.523zm0.666-0.557h0.576c0.911 0 1.367-0.487 1.367-1.462 0-0.995-0.49-1.492-1.47-1.492h-0.473z" fill="url(#b)"/>
  </g>
  <g transform="matrix(5.5681 0 0 -5.5681 -267.11 2865.6)">
   <path d="m74.416 499.12v-4.267h1.237c0.724 0 1.289 0.189 1.68 0.561s0.59 0.915 0.59 1.612c0 0.657-0.192 1.177-0.571 1.543-0.377 0.365-0.909 0.551-1.579 0.551zm0.196-0.196h1.161c0.618 0 1.103-0.167 1.443-0.496 0.339-0.328 0.511-0.799 0.511-1.402 0-0.641-0.178-1.136-0.53-1.471-0.352-0.336-0.872-0.506-1.544-0.506h-1.041zm0.47-0.36v-3.151h0.571c1.04 0 1.568 0.535 1.568 1.59 0 1.035-0.493 1.561-1.465 1.561zm0.196-0.197h0.478c0.854 0 1.269-0.446 1.269-1.364 0-0.938-0.448-1.394-1.372-1.394h-0.375z" fill="url(#a)"/>
  </g>
 </g>
</svg>
