<?xml version="1.0" encoding="UTF-8"?>
<!-- Generator: Adobe Illustrator 16.0.0, SVG Export Plug-In . SVG Version: 6.00 Build 0)  -->
<svg id="Layer_1" width="318.57" height="166.38" enable-background="new 0 0 841.89 595.28" version="1.1" viewBox="0 0 318.57 166.38" xml:space="preserve" xmlns="http://www.w3.org/2000/svg" xmlns:cc="http://creativecommons.org/ns#" xmlns:dc="http://purl.org/dc/elements/1.1/" xmlns:rdf="http://www.w3.org/1999/02/22-rdf-syntax-ns#" xmlns:xlink="http://www.w3.org/1999/xlink"><metadata id="metadata225"><rdf:RDF><cc:Work rdf:about=""><dc:format>image/svg+xml</dc:format><dc:type rdf:resource="http://purl.org/dc/dcmitype/StillImage"/><dc:title/></cc:Work></rdf:RDF></metadata><defs id="defs223"><clipPath id="SVGID_11_"><use id="use100" width="100%" height="100%" overflow="visible" xlink:href="#SVGID_10_"/></clipPath></defs><g id="g37" transform="translate(-261.64 -214.34)"><defs id="defs3"><polygon id="SVGID_1_" points="577.98 378.67 560.03 216.34 416.14 216.34 416.14 360.23"/></defs><clipPath id="SVGID_2_"><use id="use5" width="100%" height="100%" overflow="visible" xlink:href="#SVGID_1_"/></clipPath><linearGradient id="SVGID_3_" x1=".00048828" x2="1.0005" y1="595.28" y2="595.28" gradientTransform="matrix(0 162.33 -162.33 0 97132 216.28)" gradientUnits="userSpaceOnUse"><stop id="stop8" stop-color="#FCCB2B" offset="0"/><stop id="stop10" stop-color="#FFF2B4" offset=".2401"/><stop id="stop12" stop-color="#FFCD2A" offset=".3396"/><stop id="stop14" stop-color="#FBC827" offset=".373"/><stop id="stop16" stop-color="#F2B71F" offset=".4214"/><stop id="stop18" stop-color="#E29C15" offset=".4787"/><stop id="stop20" stop-color="#D7870E" offset=".5161"/><stop id="stop22" stop-color="#DD9627" offset=".5591"/><stop id="stop24" stop-color="#ECBC61" offset=".6485"/><stop id="stop26" stop-color="#FFF2B4" offset=".7623"/><stop id="stop28" stop-color="#F6B815" offset=".913"/><stop id="stop30" stop-color="#F7CA33" offset=".96"/><stop id="stop32" stop-color="#F8DA4C" offset="1"/></linearGradient><path id="rect35" d="m416.14 216.34h161.84v162.33h-161.84z" clip-path="url(#SVGID_2_)" fill="url(#SVGID_3_)"/></g><g id="g66" transform="translate(-261.64 -214.34)"><defs id="defs40"><path id="SVGID_4_" d="m418.14 358.44v-140.1h140.1l17.478 158.07zm-4.001-144.1v147.67l164.12 18.708h1.955l-18.394-166.38z"/></defs><clipPath id="SVGID_5_"><use id="use42" width="100%" height="100%" overflow="visible" xlink:href="#SVGID_4_"/></clipPath><linearGradient id="SVGID_6_" x2="1" y1="595.28" y2="595.28" gradientTransform="matrix(0 143.9 -143.9 0 86159 231.53)" gradientUnits="userSpaceOnUse"><stop id="stop45" stop-color="#FCCB2B" offset="0"/><stop id="stop47" stop-color="#FCCB2B" offset=".1034"/><stop id="stop49" stop-color="#E09815" offset=".2134"/><stop id="stop51" stop-color="#D7870E" offset=".2501"/><stop id="stop53" stop-color="#DD9627" offset=".3025"/><stop id="stop55" stop-color="#ECBC61" offset=".4117"/><stop id="stop57" stop-color="#FFF2B4" offset=".5505"/><stop id="stop59" stop-color="#F6B815" offset=".9672"/><stop id="stop61" stop-color="#F6B815" offset="1"/></linearGradient><path id="rect64" d="m414.14 214.34h166.07v166.38h-166.07z" clip-path="url(#SVGID_5_)" fill="url(#SVGID_6_)"/></g><g id="g91" transform="translate(-261.64 -214.34)"><defs id="defs69"><polygon id="SVGID_7_" points="560.68 338.24 553.05 257.24 431.05 257.24 431.05 323.24"/></defs><clipPath id="SVGID_8_"><use id="use71" width="100%" height="100%" overflow="visible" xlink:href="#SVGID_7_"/></clipPath><linearGradient id="SVGID_9_" x2="1" y1="595.28" y2="595.28" gradientTransform="matrix(94.78 0 0 94.78 465.88 -56123)" gradientUnits="userSpaceOnUse"><stop id="stop74" stop-color="#9E5E18" offset="0"/><stop id="stop76" stop-color="#9E5E18" offset=".2688"/><stop id="stop78" stop-color="#A1631D" offset=".3541"/><stop id="stop80" stop-color="#AB712B" offset=".4825"/><stop id="stop82" stop-color="#BD8A48" offset=".6383"/><stop id="stop84" stop-color="#D6B176" offset=".8153"/><stop id="stop86" stop-color="#F8E3B5" offset="1"/></linearGradient><path id="rect89" d="m431.05 257.24h129.62v81h-129.62z" clip-path="url(#SVGID_8_)" fill="url(#SVGID_9_)"/></g><path id="polygon93" d="m171.64 107.15v-62.052h117.37l7.626 77.052z" fill="#12110c"/><g id="g4726" fill="#fff"><path id="polygon95" d="m0.203 21.865v50.642h12.155v-18.377h18.732v-11.285h-18.732v-9.695h24.089v-11.285z"/><path id="path103" transform="translate(-261.64 -214.34)" d="m348.44 264.27c0 15.265-8.824 23.583-22.064 23.583-13.309 0-22.064-8.318-22.064-23.583v-28.069h12.299v27.707c0 8.681 3.328 12.441 9.908 12.441 6.513 0 9.911-3.76 9.911-12.441v-27.707h12.01z" clip-path="url(#SVGID_11_)"/><path id="path105" transform="translate(-261.64 -214.34)" d="m368.34 256.6h-0.216l0.143 30.237h-12.153v-50.639h12.299l21.555 29.662h0.22l-0.073-29.662h12.152v50.639h-12.368z" clip-path="url(#SVGID_11_)"/><path id="path107" transform="translate(-261.64 -214.34)" d="m281.3 333.17c3.987 0 6.12-2.27 6.12-5.496 0-3.44-2.339-5.5-6.12-5.5h-8.11v10.996zm-1.098-19.521c3.161 0 5.224-1.928 5.224-4.742 0-2.685-1.993-4.744-5.294-4.744h-6.942v9.486zm10.654 3.437c4.673 1.373 8.729 5.224 8.729 11.616 0 7.426-5.294 14.023-17.255 14.023h-20.69v-48.118h20.76c8.661 0 14.641 5.845 14.641 12.512 0 5.359-3.576 8.729-6.186 9.691v0.276z" clip-path="url(#SVGID_11_)"/><path id="path109" transform="translate(-261.64 -214.34)" d="m328.53 332.76c7.974 0 13.749-5.499 13.749-14.09 0-8.664-5.775-14.164-13.749-14.164s-13.749 5.5-13.749 14.164c0 8.591 5.775 14.09 13.749 14.09m0-39.114c14.711 0 25.364 10.309 25.364 25.023 0 14.707-10.653 25.019-25.364 25.019-14.71 0-25.364-10.312-25.364-25.019 0-14.714 10.654-25.023 25.364-25.023" clip-path="url(#SVGID_11_)"/><path id="path111" transform="translate(-261.64 -214.34)" d="m377.95 327.54h-0.066l-10.449 15.191h-13.954l17.871-24.744-17.049-23.371h14.024l10.313 14.707h0.066l9.626-14.707h13.815l-16.84 23.371 17.46 24.744h-14.505z" clip-path="url(#SVGID_11_)"/></g><g id="g148" transform="translate(-261.64 -214.34)"><defs id="defs116"><path id="SVGID_12_" d="m465.67 272.23v23.783c0 6.095-2.903 9.144-8.709 9.144-2.99 0-5.203-0.735-6.65-2.212-1.441-1.478-2.163-3.771-2.163-6.884v-23.831h-6.183v24.271c0 4.328 1.296 7.733 3.889 10.204 2.594 2.475 6.229 3.712 10.901 3.712 3.141 0 5.841-0.562 8.104-1.69 2.258-1.126 3.983-2.729 5.179-4.816 1.19-2.084 1.791-4.523 1.791-7.305v-24.376z"/></defs><clipPath id="SVGID_13_"><use id="use118" width="100%" height="100%" overflow="visible" xlink:href="#SVGID_12_"/></clipPath><linearGradient id="SVGID_14_" x1="-.00048828" x2=".9995" y1="595.28" y2="595.28" gradientTransform="matrix(0 37.057 -37.057 0 22516 272.22)" gradientUnits="userSpaceOnUse"><stop id="stop121" stop-color="#FCCB2B" offset="0"/><stop id="stop123" stop-color="#FFF2B4" offset=".1613"/><stop id="stop125" stop-color="#FFCD2A" offset=".2903"/><stop id="stop127" stop-color="#FBC827" offset=".3452"/><stop id="stop129" stop-color="#F2B71F" offset=".4247"/><stop id="stop131" stop-color="#E29C15" offset=".5187"/><stop id="stop133" stop-color="#D7870E" offset=".5802"/><stop id="stop135" stop-color="#E39B10" offset=".6676"/><stop id="stop137" stop-color="#F6B815" offset=".775"/><stop id="stop139" stop-color="#F7CA33" offset=".8806"/><stop id="stop141" stop-color="#F8DA4C" offset=".9704"/><stop id="stop143" stop-color="#F8DA4C" offset="1"/></linearGradient><path id="rect146" d="m441.96 272.23h29.863v38.187h-29.863z" clip-path="url(#SVGID_13_)" fill="url(#SVGID_14_)"/></g><g id="g183" transform="translate(-261.64 -214.34)"><defs id="defs151"><polygon id="SVGID_15_" points="483.67 287.64 483.67 272.23 477.51 272.23 477.51 309.9 483.67 309.9 483.67 292.92 501.03 292.92 501.03 309.9 507.22 309.9 507.22 272.23 501.03 272.23 501.03 287.64"/></defs><clipPath id="SVGID_16_"><use id="use153" width="100%" height="100%" overflow="visible" xlink:href="#SVGID_15_"/></clipPath><linearGradient id="SVGID_17_" x1=".00048828" x2="1.0005" y1="595.28" y2="595.28" gradientTransform="matrix(0 36.557 -36.557 0 22254 272.22)" gradientUnits="userSpaceOnUse"><stop id="stop156" stop-color="#FCCB2B" offset="0"/><stop id="stop158" stop-color="#FFF2B4" offset=".1613"/><stop id="stop160" stop-color="#FFCD2A" offset=".2903"/><stop id="stop162" stop-color="#FBC827" offset=".3452"/><stop id="stop164" stop-color="#F2B71F" offset=".4247"/><stop id="stop166" stop-color="#E29C15" offset=".5187"/><stop id="stop168" stop-color="#D7870E" offset=".5802"/><stop id="stop170" stop-color="#E39B10" offset=".6676"/><stop id="stop172" stop-color="#F6B815" offset=".775"/><stop id="stop174" stop-color="#F7CA33" offset=".8806"/><stop id="stop176" stop-color="#F8DA4C" offset=".9704"/><stop id="stop178" stop-color="#F8DA4C" offset="1"/></linearGradient><path id="rect181" d="m477.51 272.23h29.707v37.671h-29.707z" clip-path="url(#SVGID_16_)" fill="url(#SVGID_17_)"/></g><g id="g218" transform="translate(-261.64 -214.34)"><defs id="defs186"><path id="SVGID_18_" d="m519.34 277.38h5.332c8.434 0 12.654 4.506 12.654 13.525 0 9.208-4.537 13.812-13.606 13.812h-4.38zm-6.159-5.155v37.671h10.539c6.493 0 11.463-1.646 14.916-4.937 3.454-3.288 5.179-8.042 5.179-14.26 0-5.858-1.664-10.4-4.996-13.631-3.332-3.23-7.995-4.844-13.993-4.844h-11.645z"/></defs><clipPath id="SVGID_19_"><use id="use188" width="100%" height="100%" overflow="visible" xlink:href="#SVGID_18_"/></clipPath><linearGradient id="SVGID_20_" x1=".00048828" x2="1.0005" y1="595.28" y2="595.28" gradientTransform="matrix(0 36.557 -36.557 0 22290 272.22)" gradientUnits="userSpaceOnUse"><stop id="stop191" stop-color="#FCCB2B" offset="0"/><stop id="stop193" stop-color="#FFF2B4" offset=".1613"/><stop id="stop195" stop-color="#FFCD2A" offset=".2903"/><stop id="stop197" stop-color="#FBC827" offset=".3452"/><stop id="stop199" stop-color="#F2B71F" offset=".4247"/><stop id="stop201" stop-color="#E29C15" offset=".5187"/><stop id="stop203" stop-color="#D7870E" offset=".5802"/><stop id="stop205" stop-color="#E39B10" offset=".6676"/><stop id="stop207" stop-color="#F6B815" offset=".775"/><stop id="stop209" stop-color="#F7CA33" offset=".8806"/><stop id="stop211" stop-color="#F8DA4C" offset=".9704"/><stop id="stop213" stop-color="#F8DA4C" offset="1"/></linearGradient><path id="rect216" d="m513.18 272.23h30.634v37.671h-30.634z" clip-path="url(#SVGID_19_)" fill="url(#SVGID_20_)"/></g></svg>
