<?xml version="1.0" encoding="UTF-8" standalone="no"?>
<!-- Generator: Adobe Illustrator 16.0.0, SVG Export Plug-In . SVG Version: 6.00 Build 0)  -->

<svg
   xmlns:dc="http://purl.org/dc/elements/1.1/"
   xmlns:cc="http://creativecommons.org/ns#"
   xmlns:rdf="http://www.w3.org/1999/02/22-rdf-syntax-ns#"
   xmlns:svg="http://www.w3.org/2000/svg"
   xmlns="http://www.w3.org/2000/svg"
   xmlns:xlink="http://www.w3.org/1999/xlink"
   xmlns:sodipodi="http://sodipodi.sourceforge.net/DTD/sodipodi-0.dtd"
   xmlns:inkscape="http://www.inkscape.org/namespaces/inkscape"
   version="1.1"
   id="Layer_1"
   x="0px"
   y="0px"
   width="318.57199"
   height="166.38"
   viewBox="0 0 318.57199 166.38"
   enable-background="new 0 0 841.89 595.28"
   xml:space="preserve"
   sodipodi:docname="FunBox UHD - Dark.svg"
   inkscape:version="0.92.1 r15371"><metadata
     id="metadata225"><rdf:RDF><cc:Work
         rdf:about=""><dc:format>image/svg+xml</dc:format><dc:type
           rdf:resource="http://purl.org/dc/dcmitype/StillImage" /><dc:title></dc:title></cc:Work></rdf:RDF></metadata><defs
     id="defs223"><defs
       id="defs98"><rect
         y="0"
         x="0"
         height="595.28003"
         width="841.89001"
         id="SVGID_10_" /></defs><clipPath
       id="SVGID_11_"><use
         height="100%"
         width="100%"
         y="0"
         x="0"
         style="overflow:visible"
         id="use100"
         overflow="visible"
         xlink:href="#SVGID_10_" /></clipPath></defs><sodipodi:namedview
     pagecolor="#ffffff"
     bordercolor="#666666"
     borderopacity="1"
     objecttolerance="10"
     gridtolerance="10"
     guidetolerance="10"
     inkscape:pageopacity="0"
     inkscape:pageshadow="2"
     inkscape:window-width="1920"
     inkscape:window-height="1017"
     id="namedview221"
     showgrid="false"
     fit-margin-top="0"
     fit-margin-left="0"
     fit-margin-right="0"
     fit-margin-bottom="0"
     inkscape:zoom="3.8165237"
     inkscape:cx="145.59731"
     inkscape:cy="78.234484"
     inkscape:window-x="-8"
     inkscape:window-y="-8"
     inkscape:window-maximized="1"
     inkscape:current-layer="Layer_1" /><g
     id="g37"
     transform="translate(-261.644,-214.336)"><defs
       id="defs3"><polygon
         id="SVGID_1_"
         points="577.979,378.672 560.03,216.337 416.139,216.337 416.139,360.226 " /></defs><clipPath
       id="SVGID_2_"><use
         xlink:href="#SVGID_1_"
         overflow="visible"
         id="use5"
         style="overflow:visible"
         x="0"
         y="0"
         width="100%"
         height="100%" /></clipPath><linearGradient
       id="SVGID_3_"
       gradientUnits="userSpaceOnUse"
       x1="0.00048828131"
       y1="595.28027"
       x2="1.0005"
       y2="595.28027"
       gradientTransform="matrix(0,162.3347,-162.3347,0,97131.656,216.2803)"><stop
         offset="0"
         style="stop-color:#FCCB2B"
         id="stop8" /><stop
         offset="0.2401"
         style="stop-color:#FFF2B4"
         id="stop10" /><stop
         offset="0.3396"
         style="stop-color:#FFCD2A"
         id="stop12" /><stop
         offset="0.373"
         style="stop-color:#FBC827"
         id="stop14" /><stop
         offset="0.4214"
         style="stop-color:#F2B71F"
         id="stop16" /><stop
         offset="0.4787"
         style="stop-color:#E29C15"
         id="stop18" /><stop
         offset="0.5161"
         style="stop-color:#D7870E"
         id="stop20" /><stop
         offset="0.5591"
         style="stop-color:#DD9627"
         id="stop22" /><stop
         offset="0.6485"
         style="stop-color:#ECBC61"
         id="stop24" /><stop
         offset="0.7623"
         style="stop-color:#FFF2B4"
         id="stop26" /><stop
         offset="0.913"
         style="stop-color:#F6B815"
         id="stop28" /><stop
         offset="0.96"
         style="stop-color:#F7CA33"
         id="stop30" /><stop
         offset="1"
         style="stop-color:#F8DA4C"
         id="stop32" /></linearGradient><path
       style="fill:url(#SVGID_3_)"
       clip-path="url(#SVGID_2_)"
       d="m 416.13901,216.33701 h 161.839 v 162.334 h -161.839 z"
       id="rect35"
       inkscape:connector-curvature="0" /></g><g
     id="g66"
     transform="translate(-261.644,-214.336)"><defs
       id="defs40"><path
         id="SVGID_4_"
         d="M 418.143,358.438 V 218.334 h 140.096 l 17.478,158.069 z m -4.001,-144.102 v 147.672 l 164.119,18.708 h 1.955 l -18.394,-166.38 z"
         inkscape:connector-curvature="0" /></defs><clipPath
       id="SVGID_5_"><use
         xlink:href="#SVGID_4_"
         overflow="visible"
         id="use42"
         style="overflow:visible"
         x="0"
         y="0"
         width="100%"
         height="100%" /></clipPath><linearGradient
       id="SVGID_6_"
       gradientUnits="userSpaceOnUse"
       x1="0"
       y1="595.27832"
       x2="1"
       y2="595.27832"
       gradientTransform="matrix(0,143.901,-143.901,0,86158.531,231.5303)"><stop
         offset="0"
         style="stop-color:#FCCB2B"
         id="stop45" /><stop
         offset="0.1034"
         style="stop-color:#FCCB2B"
         id="stop47" /><stop
         offset="0.2134"
         style="stop-color:#E09815"
         id="stop49" /><stop
         offset="0.2501"
         style="stop-color:#D7870E"
         id="stop51" /><stop
         offset="0.3025"
         style="stop-color:#DD9627"
         id="stop53" /><stop
         offset="0.4117"
         style="stop-color:#ECBC61"
         id="stop55" /><stop
         offset="0.5505"
         style="stop-color:#FFF2B4"
         id="stop57" /><stop
         offset="0.9672"
         style="stop-color:#F6B815"
         id="stop59" /><stop
         offset="1"
         style="stop-color:#F6B815"
         id="stop61" /></linearGradient><path
       style="fill:url(#SVGID_6_)"
       clip-path="url(#SVGID_5_)"
       d="M 414.142,214.336 H 580.216 V 380.717 H 414.142 Z"
       id="rect64"
       inkscape:connector-curvature="0" /></g><g
     id="g91"
     transform="translate(-261.644,-214.336)"><defs
       id="defs69"><polygon
         id="SVGID_7_"
         points="560.676,338.245 553.05,257.245 431.051,257.245 431.051,323.245 " /></defs><clipPath
       id="SVGID_8_"><use
         xlink:href="#SVGID_7_"
         overflow="visible"
         id="use71"
         style="overflow:visible"
         x="0"
         y="0"
         width="100%"
         height="100%" /></clipPath><linearGradient
       id="SVGID_9_"
       gradientUnits="userSpaceOnUse"
       x1="0"
       y1="595.28027"
       x2="1"
       y2="595.28027"
       gradientTransform="matrix(94.7797,0,0,94.7797,465.875,-56122.762)"><stop
         offset="0"
         style="stop-color:#9E5E18"
         id="stop74" /><stop
         offset="0.2688"
         style="stop-color:#9E5E18"
         id="stop76" /><stop
         offset="0.3541"
         style="stop-color:#A1631D"
         id="stop78" /><stop
         offset="0.4825"
         style="stop-color:#AB712B"
         id="stop80" /><stop
         offset="0.6383"
         style="stop-color:#BD8A48"
         id="stop82" /><stop
         offset="0.8153"
         style="stop-color:#D6B176"
         id="stop84" /><stop
         offset="1"
         style="stop-color:#F8E3B5"
         id="stop86" /></linearGradient><path
       style="fill:url(#SVGID_9_)"
       clip-path="url(#SVGID_8_)"
       d="m 431.05099,257.245 h 129.625 v 81 h -129.625 z"
       id="rect89"
       inkscape:connector-curvature="0" /></g><path
     style="fill:#12110c"
     d="M 171.644,107.154 V 45.102 h 117.369 l 7.626,77.052 z"
     id="polygon93"
     inkscape:connector-curvature="0" /><g
     id="g4726"><path
       inkscape:connector-curvature="0"
       id="polygon95"
       d="M 0.203,21.865 V 72.507 H 12.358 V 54.13 H 31.09 V 42.845 H 12.358 V 33.15 H 36.447 V 21.865 Z" /><path
       transform="translate(-261.644,-214.336)"
       clip-path="url(#SVGID_11_)"
       d="m 348.441,264.271 c 0,15.265 -8.824,23.583 -22.064,23.583 -13.309,0 -22.064,-8.318 -22.064,-23.583 v -28.069 h 12.299 v 27.707 c 0,8.681 3.328,12.441 9.908,12.441 6.513,0 9.911,-3.76 9.911,-12.441 v -27.707 h 12.01 z"
       id="path103"
       inkscape:connector-curvature="0" /><path
       sodipodi:nodetypes="ccccccccccccc"
       transform="translate(-261.644,-214.336)"
       clip-path="url(#SVGID_11_)"
       d="m 368.337,256.602 h -0.216 l 0.143,30.237 H 356.111 V 236.2 h 12.299 l 21.555,29.662 h 0.22 L 390.112,236.2 h 12.152 v 50.639 h -12.368 z"
       id="path105"
       inkscape:connector-curvature="0" /><path
       transform="translate(-261.644,-214.336)"
       clip-path="url(#SVGID_11_)"
       d="m 281.304,333.173 c 3.987,0 6.12,-2.27 6.12,-5.496 0,-3.44 -2.339,-5.5 -6.12,-5.5 h -8.11 v 10.996 z m -1.098,-19.521 c 3.161,0 5.224,-1.928 5.224,-4.742 0,-2.685 -1.993,-4.744 -5.294,-4.744 h -6.942 v 9.486 z m 10.654,3.437 c 4.673,1.373 8.729,5.224 8.729,11.616 0,7.426 -5.294,14.023 -17.255,14.023 h -20.69 V 294.61 h 20.76 c 8.661,0 14.641,5.845 14.641,12.512 0,5.359 -3.576,8.729 -6.186,9.691 v 0.276 z"
       id="path107"
       inkscape:connector-curvature="0" /><path
       transform="translate(-261.644,-214.336)"
       clip-path="url(#SVGID_11_)"
       d="m 328.529,332.762 c 7.974,0 13.749,-5.499 13.749,-14.09 0,-8.664 -5.775,-14.164 -13.749,-14.164 -7.974,0 -13.749,5.5 -13.749,14.164 0,8.591 5.775,14.09 13.749,14.09 m 0,-39.114 c 14.711,0 25.364,10.309 25.364,25.023 0,14.707 -10.653,25.019 -25.364,25.019 -14.71,0 -25.364,-10.312 -25.364,-25.019 0,-14.714 10.654,-25.023 25.364,-25.023"
       id="path109"
       inkscape:connector-curvature="0" /><path
       sodipodi:nodetypes="ccccccccccccccc"
       transform="translate(-261.644,-214.336)"
       clip-path="url(#SVGID_11_)"
       d="m 377.953,327.536 h -0.066 l -10.449,15.191 h -13.954 l 17.871,-24.744 -17.049,-23.371 h 14.024 l 10.313,14.707 h 0.066 l 9.626,-14.707 h 13.815 l -16.84,23.371 17.46,24.744 h -14.505 z"
       id="path111"
       inkscape:connector-curvature="0" /></g><g
     id="g148"
     transform="translate(-261.644,-214.336)"><defs
       id="defs116"><path
         id="SVGID_12_"
         d="m 465.669,272.23 v 23.783 c 0,6.095 -2.903,9.144 -8.709,9.144 -2.99,0 -5.203,-0.735 -6.65,-2.212 -1.441,-1.478 -2.163,-3.771 -2.163,-6.884 V 272.23 h -6.183 v 24.271 c 0,4.328 1.296,7.733 3.889,10.204 2.594,2.475 6.229,3.712 10.901,3.712 3.141,0 5.841,-0.562 8.104,-1.69 2.258,-1.126 3.983,-2.729 5.179,-4.816 1.19,-2.084 1.791,-4.523 1.791,-7.305 V 272.23 Z"
         inkscape:connector-curvature="0" /></defs><clipPath
       id="SVGID_13_"><use
         xlink:href="#SVGID_12_"
         overflow="visible"
         id="use118"
         style="overflow:visible"
         x="0"
         y="0"
         width="100%"
         height="100%" /></clipPath><linearGradient
       id="SVGID_14_"
       gradientUnits="userSpaceOnUse"
       x1="-0.00048828131"
       y1="595.28027"
       x2="0.99949998"
       y2="595.28027"
       gradientTransform="matrix(0,37.0573,-37.0573,0,22516.373,272.2178)"><stop
         offset="0"
         style="stop-color:#FCCB2B"
         id="stop121" /><stop
         offset="0.1613"
         style="stop-color:#FFF2B4"
         id="stop123" /><stop
         offset="0.2903"
         style="stop-color:#FFCD2A"
         id="stop125" /><stop
         offset="0.3452"
         style="stop-color:#FBC827"
         id="stop127" /><stop
         offset="0.4247"
         style="stop-color:#F2B71F"
         id="stop129" /><stop
         offset="0.5187"
         style="stop-color:#E29C15"
         id="stop131" /><stop
         offset="0.5802"
         style="stop-color:#D7870E"
         id="stop133" /><stop
         offset="0.6676"
         style="stop-color:#E39B10"
         id="stop135" /><stop
         offset="0.775"
         style="stop-color:#F6B815"
         id="stop137" /><stop
         offset="0.8806"
         style="stop-color:#F7CA33"
         id="stop139" /><stop
         offset="0.9704"
         style="stop-color:#F8DA4C"
         id="stop141" /><stop
         offset="1"
         style="stop-color:#F8DA4C"
         id="stop143" /></linearGradient><path
       style="fill:url(#SVGID_14_)"
       clip-path="url(#SVGID_13_)"
       d="m 441.96399,272.23001 h 29.863 v 38.187 h -29.863 z"
       id="rect146"
       inkscape:connector-curvature="0" /></g><g
     id="g183"
     transform="translate(-261.644,-214.336)"><defs
       id="defs151"><polygon
         id="SVGID_15_"
         points="483.666,287.638 483.666,272.23 477.508,272.23 477.508,309.901 483.666,309.901 483.666,292.918 501.032,292.918 501.032,309.901 507.215,309.901 507.215,272.23 501.032,272.23 501.032,287.638 " /></defs><clipPath
       id="SVGID_16_"><use
         xlink:href="#SVGID_15_"
         overflow="visible"
         id="use153"
         style="overflow:visible"
         x="0"
         y="0"
         width="100%"
         height="100%" /></clipPath><linearGradient
       id="SVGID_17_"
       gradientUnits="userSpaceOnUse"
       x1="0.00048828131"
       y1="595.28131"
       x2="1.0005"
       y2="595.28131"
       gradientTransform="matrix(0,36.5574,-36.5574,0,22254.271,272.2178)"><stop
         offset="0"
         style="stop-color:#FCCB2B"
         id="stop156" /><stop
         offset="0.1613"
         style="stop-color:#FFF2B4"
         id="stop158" /><stop
         offset="0.2903"
         style="stop-color:#FFCD2A"
         id="stop160" /><stop
         offset="0.3452"
         style="stop-color:#FBC827"
         id="stop162" /><stop
         offset="0.4247"
         style="stop-color:#F2B71F"
         id="stop164" /><stop
         offset="0.5187"
         style="stop-color:#E29C15"
         id="stop166" /><stop
         offset="0.5802"
         style="stop-color:#D7870E"
         id="stop168" /><stop
         offset="0.6676"
         style="stop-color:#E39B10"
         id="stop170" /><stop
         offset="0.775"
         style="stop-color:#F6B815"
         id="stop172" /><stop
         offset="0.8806"
         style="stop-color:#F7CA33"
         id="stop174" /><stop
         offset="0.9704"
         style="stop-color:#F8DA4C"
         id="stop176" /><stop
         offset="1"
         style="stop-color:#F8DA4C"
         id="stop178" /></linearGradient><path
       style="fill:url(#SVGID_17_)"
       clip-path="url(#SVGID_16_)"
       d="m 477.508,272.23001 h 29.707 v 37.671 h -29.707 z"
       id="rect181"
       inkscape:connector-curvature="0" /></g><g
     id="g218"
     transform="translate(-261.644,-214.336)"><defs
       id="defs186"><path
         id="SVGID_18_"
         d="m 519.336,277.385 h 5.332 c 8.434,0 12.654,4.506 12.654,13.525 0,9.208 -4.537,13.812 -13.606,13.812 h -4.38 z m -6.159,-5.155 v 37.671 h 10.539 c 6.493,0 11.463,-1.646 14.916,-4.937 3.454,-3.288 5.179,-8.042 5.179,-14.26 0,-5.858 -1.664,-10.4 -4.996,-13.631 -3.332,-3.23 -7.995,-4.844 -13.993,-4.844 h -11.645 z"
         inkscape:connector-curvature="0" /></defs><clipPath
       id="SVGID_19_"><use
         xlink:href="#SVGID_18_"
         overflow="visible"
         id="use188"
         style="overflow:visible"
         x="0"
         y="0"
         width="100%"
         height="100%" /></clipPath><linearGradient
       id="SVGID_20_"
       gradientUnits="userSpaceOnUse"
       x1="0.00048828131"
       y1="595.28131"
       x2="1.0005"
       y2="595.28131"
       gradientTransform="matrix(0,36.5574,-36.5574,0,22290.396,272.2178)"><stop
         offset="0"
         style="stop-color:#FCCB2B"
         id="stop191" /><stop
         offset="0.1613"
         style="stop-color:#FFF2B4"
         id="stop193" /><stop
         offset="0.2903"
         style="stop-color:#FFCD2A"
         id="stop195" /><stop
         offset="0.3452"
         style="stop-color:#FBC827"
         id="stop197" /><stop
         offset="0.4247"
         style="stop-color:#F2B71F"
         id="stop199" /><stop
         offset="0.5187"
         style="stop-color:#E29C15"
         id="stop201" /><stop
         offset="0.5802"
         style="stop-color:#D7870E"
         id="stop203" /><stop
         offset="0.6676"
         style="stop-color:#E39B10"
         id="stop205" /><stop
         offset="0.775"
         style="stop-color:#F6B815"
         id="stop207" /><stop
         offset="0.8806"
         style="stop-color:#F7CA33"
         id="stop209" /><stop
         offset="0.9704"
         style="stop-color:#F8DA4C"
         id="stop211" /><stop
         offset="1"
         style="stop-color:#F8DA4C"
         id="stop213" /></linearGradient><path
       style="fill:url(#SVGID_20_)"
       clip-path="url(#SVGID_19_)"
       d="m 513.177,272.23001 h 30.634 v 37.671 h -30.634 z"
       id="rect216"
       inkscape:connector-curvature="0" /></g></svg>