<?xml version="1.0" encoding="UTF-8"?>
<svg id="svg27" width="601pt" height="162pt" version="1.1" viewBox="0 0 601 162" xmlns="http://www.w3.org/2000/svg" xmlns:cc="http://creativecommons.org/ns#" xmlns:dc="http://purl.org/dc/elements/1.1/" xmlns:rdf="http://www.w3.org/1999/02/22-rdf-syntax-ns#">
 <metadata id="metadata33">
  <rdf:RDF>
   <cc:Work rdf:about="">
    <dc:format>image/svg+xml</dc:format>
    <dc:type rdf:resource="http://purl.org/dc/dcmitype/StillImage"/>
   </cc:Work>
  </rdf:RDF>
 </metadata>
 <defs id="defs31">
  <linearGradient id="linearGradient914" x2="601" y1="81" y2="81" gradientUnits="userSpaceOnUse">
   <stop id="stop908" stop-color="#c09874" offset="0"/>
   <stop id="stop916" stop-color="#f7d1ba" offset=".3"/>
   <stop id="stop918" stop-color="#f7d1ba" offset=".7"/>
   <stop id="stop910" stop-color="#c09874" offset="1"/>
  </linearGradient>
 </defs>
 <g id="#e6bfa7ff" transform="translate(.15013 -.62)">
  <path id="path2" d="m0 0h601v162h-601v-162" fill="url(#linearGradient914)"/>
  <path id="path4" d="m497.94 51.96c10.59-0.25 21.25-0.67 31.82 0.2 0.01 0.64 0.04 1.92 0.06 2.55-9.78 1.09-19.63-0.38-29.41 0.58-0.1 8.13-0.12 16.27 0.02 24.41 9.11 0.64 18.26-0.45 27.35 0.48 0.01 0.64 0.03 1.91 0.03 2.55-9.12 0.66-18.3-0.49-27.4 0.49-0.09 9.1-0.12 18.2 0.03 27.3 9.98 0.23 19.98-0.5 29.94 0.26-0.03 0.6-0.1 1.8-0.13 2.41-4.72 0.67-9.5 0.29-14.25 0.34-6.02-0.11-12.07 0.39-18.07-0.33-0.73-8.72-0.07-17.47-0.29-26.2 0.22-11.68-0.43-23.38 0.3-35.04z" fill="#e6bfa7"/>
 </g>
 <g id="#fef6f7ff">
  <path id="path7" d="m594.71 5.79v149.18h-588.12v-149.18" fill="#fff"/>
 </g>
 <g id="g838" fill="#413090">
  <path id="path14" d="m100.17 49.629c11.118 0 19.215 5.8218 25.062 12.472l-12.095 9.2785c-4.3349-3.035-7.9473-5.073-12.967-5.1122-10.413 0-15.948 7.9349-15.735 17.032 0 9.1152 6.2265 15.279 16.014 15.279 6.3246 0 11.328-2.195 11.328-9.049h-15.27l0.08-14h30.16v22.53c0 5.8297-9.7982 15.501-26.298 15.501-20.185 0-33.331-8.914-33.331-30.261 0-19.706 17.271-33.556 33.052-33.671z"/>
  <path id="path16" d="m244.78 52.435h11.815v49.03h23.43v11.905h-35.245z"/>
  <path id="path18" transform="scale(.75)" d="m236.05 70.053-31.879 81h20.025l5.2812-12.873h31.492l5.2812 12.873h20.025l-31.879-81zm9.1738 26.07 9.0938 25.891h-18.188z" stroke-width="1.3333"/>
  <path id="path20" d="m311.52 52.54 34.91-0.16v7.05h-26.635l-2.5e-4 17.02h24.675v8.05h-24.675l2.5e-4 21.465h26.86v7.3502l-35.135-2.5e-4z"/>
  <path id="path22" d="m381.53 52.52 21.29 0.0083c3.3962 0 5.7 0.80705 7.7702 2.2368 5.1127 3.1621 7.85 7.6083 8.0462 14.584 0 8.5291-5.5768 13.721-10.516 17.571l13.969 26.395h-6.039l-14.16-25.69h-14.995v25.69h-5.435l0.07-60.795m5.365 4.18v25.805h16.392c4.784 0 10.251-6.4395 10.055-13.156-0.0858-6.4539-4.2996-12.649-10.523-12.649z"/>
  <path id="path24" d="m455.55 51.81h3.035v61.35h-3.035z"/>
  <g id="#fef6f7ff-2">
   <path id="path7-5" d="m497.64 52.16v61.369h32.675v-3.0098h-29.875l-0.0302-27.3h27.385v-3.5198h-27.365l-0.02-24.41h29.38v-3.1298h-32.15" fill="#413090"/>
  </g>
 </g>
</svg>
