<?xml version="1.0" encoding="utf-8"?>
<!-- Generator: Adobe Illustrator 16.0.0, SVG Export Plug-In . SVG Version: 6.00 Build 0)  -->
<!DOCTYPE svg PUBLIC "-//W3C//DTD SVG 1.1//EN" "http://www.w3.org/Graphics/SVG/1.1/DTD/svg11.dtd">
<svg version="1.1" id="Layer_1" xmlns="http://www.w3.org/2000/svg" xmlns:xlink="http://www.w3.org/1999/xlink" x="0px" y="0px"
	 width="1000px" height="206.845px" viewBox="-194 292.577 1000 206.845" enable-background="new -194 292.577 1000 206.845"
	 xml:space="preserve">
<g>
	
		<linearGradient id="SVGID_1_" gradientUnits="userSpaceOnUse" x1="341.2383" y1="771.9121" x2="343.791" y2="625.7133" gradientTransform="matrix(1.4279 0 0 -1.4279 -0.214 1392.5355)">
		<stop  offset="0.097" style="stop-color:#D8E3EA"/>
		<stop  offset="0.49" style="stop-color:#A0A8AE"/>
		<stop  offset="0.672" style="stop-color:#878E93"/>
		<stop  offset="0.842" style="stop-color:#70787C"/>
	</linearGradient>
	<path fill="url(#SVGID_1_)" d="M450.413,497.733c-32.305,0-61.717-14.705-81.244-40.259c8.197-21.457,6.75-39.296,6.75-40.02
		l-2.41-0.241c-10.366,46.528-52.073,80.52-99.564,80.52c-56.171,0-101.976-45.804-101.976-102.216
		c0-56.894,45.563-101.493,103.903-101.493c34.475,0,58.823,17.357,68.467,25.554l-13.983,24.349
		c-0.481,0.723-2.892,3.134-6.026,3.134c-1.205,0-2.41-0.482-3.615-1.206c-14.707-10.366-31.341-16.393-45.564-16.393
		c-35.92,0-64.127,29.17-64.127,66.295c0,37.126,27.725,66.297,63.162,66.297c32.546,0,53.761-22.902,60.511-45.563l0.482-1.446
		h-61.956l12.535-28.447c0.724-1.206,2.652-4.34,6.991-4.34h56.411l0.243-0.964c5.785-42.188,42.91-87.029,100.769-87.029
		c46.287,0,85.824,29.894,98.359,74.734l2.41-0.482c-0.481-6.509-2.169-23.384-11.089-41.947v-30.376h27.242
		c6.509,0,11.812,5.303,11.812,11.813v151.396h73.771c3.856,0,6.509,2.411,7.232,4.581l10.848,25.072l2.412-0.482V319.337
		c0-12.295,9.883-22.903,22.179-22.903h108.726l-13.5,31.099c-1.447,2.894-4.582,4.822-7.716,4.822h-70.635V382.5H792.5
		l-12.295,27.723c-1.446,2.894-4.58,4.581-7.715,4.581h-60.269v68.465c0,6.51-5.304,11.813-11.813,11.813H562.272
		c-12.296,0-22.421-10.126-22.421-22.42V445.18l-2.17,3.615C530.45,460.126,503.45,497.733,450.413,497.733L450.413,497.733z
		 M450.413,329.462c-34.474,0-62.681,29.652-62.681,66.295c0,36.645,28.207,66.297,62.681,66.297s62.679-29.652,62.679-66.297
		C512.852,359.114,484.887,329.462,450.413,329.462z"/>
	
		<linearGradient id="SVGID_2_" gradientUnits="userSpaceOnUse" x1="285.126" y1="663.5713" x2="345.9338" y2="732.5441" gradientTransform="matrix(1.4279 0 0 -1.4279 -0.214 1392.5355)">
		<stop  offset="0.128" style="stop-color:#FFFFFF"/>
		<stop  offset="0.4" style="stop-color:#545E60"/>
		<stop  offset="0.6" style="stop-color:#545E60"/>
		<stop  offset="1" style="stop-color:#D5D9D7"/>
	</linearGradient>
	<path fill="url(#SVGID_2_)" d="M450.413,328.498c-34.957,0-63.646,30.135-63.646,67.26c0,37.126,28.447,67.261,63.646,67.261
		c34.955,0,63.402-30.135,63.402-67.261C513.815,358.633,485.368,328.498,450.413,328.498z M450.413,460.85
		c-33.752,0-61.476-29.171-61.476-65.092c0-35.919,27.483-65.09,61.476-65.09c33.99,0,61.474,29.171,61.474,65.09
		C511.646,431.679,484.163,460.85,450.413,460.85z"/>
	
		<linearGradient id="SVGID_3_" gradientUnits="userSpaceOnUse" x1="438.5801" y1="685.2383" x2="438.5801" y2="627.4971" gradientTransform="matrix(1.4279 0 0 -1.4279 -0.214 1392.5355)">
		<stop  offset="0" style="stop-color:#657173"/>
		<stop  offset="1" style="stop-color:#545E60"/>
	</linearGradient>
	<path fill="url(#SVGID_3_)" d="M538.646,449.277v23.626c0,13.018,10.607,23.625,23.626,23.625h138.136
		c7.233,0,13.019-5.785,13.019-13.018V416.25l-2.169-2.17v69.431c0,6.026-5.063,11.089-11.09,11.089H562.272
		c-11.813,0-21.457-9.644-21.457-21.696v-31.099L538.646,449.277z"/>
	
		<linearGradient id="SVGID_4_" gradientUnits="userSpaceOnUse" x1="190.2095" y1="684.4775" x2="235.7029" y2="684.4775" gradientTransform="matrix(1.4279 0 0 -1.4279 -0.214 1392.5355)">
		<stop  offset="0" style="stop-color:#79868B"/>
		<stop  offset="1" style="stop-color:#545E60"/>
	</linearGradient>
	<path fill="url(#SVGID_4_)" d="M336.384,414.08h-61.717l-3.375,2.17h62.198L336.384,414.08"/>
	
		<linearGradient id="SVGID_5_" gradientUnits="userSpaceOnUse" x1="239.1724" y1="716.9805" x2="188.9652" y2="685.8496" gradientTransform="matrix(1.4279 0 0 -1.4279 -0.214 1392.5355)">
		<stop  offset="0.2" style="stop-color:#FFFFFF"/>
		<stop  offset="1" style="stop-color:#545E60"/>
	</linearGradient>
	<path fill="url(#SVGID_5_)" d="M274.667,414.08l11.813-27.242c0.724-1.446,2.411-3.857,6.268-3.857h57.376l-1.929-2.169h-55.447
		c-5.063,0-7.474,3.616-8.196,5.063l-13.26,30.375L274.667,414.08z"/>
	
		<linearGradient id="SVGID_6_" gradientUnits="userSpaceOnUse" x1="244.1563" y1="749.7227" x2="159.657" y2="665.2234" gradientTransform="matrix(1.4279 0 0 -1.4279 -0.214 1392.5355)">
		<stop  offset="0" style="stop-color:#FFFFFF"/>
		<stop  offset="0.253" style="stop-color:#545E60"/>
		<stop  offset="0.6" style="stop-color:#545E60"/>
		<stop  offset="1" style="stop-color:#D5D9D7"/>
	</linearGradient>
	<path fill="url(#SVGID_6_)" d="M335.659,416.732c-6.75,23.143-28.205,46.286-61.232,46.286c-35.921,0-64.127-29.652-64.127-67.261
		c0-37.607,28.447-67.26,64.609-67.26c14.705,0,31.34,6.027,46.286,16.634c0.964,0.723,2.17,0.964,3.134,0.964
		c2.651,0,4.821-2.17,5.305-2.893l13.5-23.626l2.65-0.482l-14.464,25.072c-0.965,1.688-6.026,6.269-11.571,2.412
		c-14.465-10.367-30.857-16.394-45.082-16.394c-35.196,0-62.68,28.688-62.68,65.091c0,36.644,27.242,65.091,61.957,65.091
		c31.821,0,52.796-22.18,59.305-44.841l2.894-2.169"/>
	
		<linearGradient id="SVGID_7_" gradientUnits="userSpaceOnUse" x1="318.1172" y1="665.7529" x2="318.1172" y2="625.8712" gradientTransform="matrix(1.4279 0 0 -1.4279 -0.214 1392.5355)">
		<stop  offset="0" style="stop-color:#79868B"/>
		<stop  offset="0.527" style="stop-color:#657173"/>
		<stop  offset="1" style="stop-color:#545E60"/>
	</linearGradient>
	<path fill="url(#SVGID_7_)" d="M540.575,441.805l-3.858,6.268c-6.99,11.33-33.75,48.456-86.546,48.456
		c-31.821,0-60.993-14.465-80.278-39.536l-2.41,0.24c19.769,26.278,49.662,41.225,82.688,41.225
		c42.188,0,72.806-24.349,88.234-49.42L540.575,441.805z"/>
	
		<linearGradient id="SVGID_8_" gradientUnits="userSpaceOnUse" x1="405.5469" y1="766.8291" x2="378.7075" y2="659.1842" gradientTransform="matrix(1.4279 0 0 -1.4279 -0.214 1392.5355)">
		<stop  offset="0" style="stop-color:#EFEAE7"/>
		<stop  offset="0.068" style="stop-color:#F5F3F0"/>
		<stop  offset="0.193" style="stop-color:#FCFCFB"/>
		<stop  offset="0.54" style="stop-color:#FFFFFF"/>
		<stop  offset="0.626" style="stop-color:#D0D0D1"/>
		<stop  offset="0.747" style="stop-color:#A3A7AA"/>
		<stop  offset="0.854" style="stop-color:#878D91"/>
		<stop  offset="0.942" style="stop-color:#777F83"/>
		<stop  offset="1" style="stop-color:#717A7E"/>
	</linearGradient>
	<path fill="url(#SVGID_8_)" d="M540.575,297.158h26.277c6.026,0,11.09,4.821,11.09,11.09v152.359l1.928-2.169V308.006
		c0-7.232-5.786-13.018-13.018-13.018h-28.447L540.575,297.158z"/>
	
		<linearGradient id="SVGID_9_" gradientUnits="userSpaceOnUse" x1="498.2344" y1="725.167" x2="499.7034" y2="725.167" gradientTransform="matrix(1.4279 0 0 -1.4279 -0.214 1392.5355)">
		<stop  offset="0" style="stop-color:#E8E7E7"/>
		<stop  offset="0.278" style="stop-color:#F1F0F0"/>
		<stop  offset="0.71" style="stop-color:#FFFFFF"/>
		<stop  offset="0.758" style="stop-color:#D4D5D7"/>
		<stop  offset="0.838" style="stop-color:#A5A8AD"/>
		<stop  offset="0.907" style="stop-color:#878D93"/>
		<stop  offset="0.964" style="stop-color:#767F85"/>
		<stop  offset="1" style="stop-color:#707A80"/>
	</linearGradient>
	<path fill="url(#SVGID_9_)" d="M713.427,381.053V333.32l-2.169-2.17v51.831L713.427,381.053z"/>
	
		<linearGradient id="SVGID_10_" gradientUnits="userSpaceOnUse" x1="498.2344" y1="755.1338" x2="564.584" y2="755.1338" gradientTransform="matrix(1.4279 0 0 -1.4279 -0.214 1392.5355)">
		<stop  offset="0" style="stop-color:#778086"/>
		<stop  offset="1" style="stop-color:#5D6064"/>
	</linearGradient>
	<path fill="url(#SVGID_10_)" d="M802.625,297.158l-13.018,29.652c-1.447,2.652-4.099,4.339-6.992,4.339h-71.599l2.17,2.17h69.429
		c3.617,0,7.233-2.17,8.92-5.304l14.224-32.786L802.625,297.158z"/>
	
		<linearGradient id="SVGID_11_" gradientUnits="userSpaceOnUse" x1="507.5068" y1="693.8652" x2="547.1318" y2="721.7128" gradientTransform="matrix(1.4279 0 0 -1.4279 -0.214 1392.5355)">
		<stop  offset="0" style="stop-color:#BCBCBE"/>
		<stop  offset="0.009" style="stop-color:#BEBEC0"/>
		<stop  offset="0.124" style="stop-color:#D3D2D4"/>
		<stop  offset="0.253" style="stop-color:#E5E4E4"/>
		<stop  offset="0.405" style="stop-color:#F2F1F1"/>
		<stop  offset="0.602" style="stop-color:#FBFBFB"/>
		<stop  offset="1" style="stop-color:#FFFFFF"/>
	</linearGradient>
	<path fill="url(#SVGID_11_)" d="M711.258,382.981h79.796l3.375-1.928h-81.002L711.258,382.981z"/>
	
		<linearGradient id="SVGID_12_" gradientUnits="userSpaceOnUse" x1="498.2344" y1="695.874" x2="556.4824" y2="695.874" gradientTransform="matrix(1.4279 0 0 -1.4279 -0.214 1392.5355)">
		<stop  offset="0" style="stop-color:#657173"/>
		<stop  offset="1" style="stop-color:#545E60"/>
	</linearGradient>
	<path fill="url(#SVGID_12_)" d="M791.054,382.981l-11.813,27.001c-1.205,2.41-4.097,4.339-6.99,4.339h-61.233l2.17,2.17h59.063
		c3.615,0,7.232-2.17,8.92-5.304l13.019-29.894L791.054,382.981L791.054,382.981z"/>
	
		<linearGradient id="SVGID_13_" gradientUnits="userSpaceOnUse" x1="222.6011" y1="764.0156" x2="161.3519" y2="632.6665" gradientTransform="matrix(1.4279 0 0 -1.4279 -0.214 1392.5355)">
		<stop  offset="0" style="stop-color:#EAEAEE"/>
		<stop  offset="0.107" style="stop-color:#E6E5E9"/>
		<stop  offset="0.201" style="stop-color:#D8D8DC"/>
		<stop  offset="0.29" style="stop-color:#C4C5C9"/>
		<stop  offset="0.376" style="stop-color:#ACAEB2"/>
		<stop  offset="0.459" style="stop-color:#8E9397"/>
		<stop  offset="0.54" style="stop-color:#6F787A"/>
		<stop  offset="0.562" style="stop-color:#657173"/>
		<stop  offset="1" style="stop-color:#545E60"/>
	</linearGradient>
	<path fill="url(#SVGID_13_)" d="M373.268,413.357l-0.724,3.615c-10.366,46.287-51.83,79.797-98.842,79.797
		c-55.688,0-101.01-45.322-101.01-101.252c0-56.412,45.322-100.77,103.18-100.77c33.51,0,57.377,16.634,67.262,25.072l2.65-0.481
		c-10.606-9.402-35.679-26.519-69.912-26.519c-59.063,0-105.108,45.081-105.108,102.698c0,56.895,46.286,103.422,103.181,103.422
		c47.975,0,90.403-34.233,100.77-81.484c0,0-0.241-3.375-0.481-4.58C373.268,412.875,373.268,413.357,373.268,413.357
		L373.268,413.357z"/>
	
		<linearGradient id="SVGID_14_" gradientUnits="userSpaceOnUse" x1="257.647" y1="670.5488" x2="263.9993" y2="670.5488" gradientTransform="matrix(1.4279 0 0 -1.4279 -0.214 1392.5355)">
		<stop  offset="0" style="stop-color:#79868B"/>
		<stop  offset="1" style="stop-color:#545E60"/>
	</linearGradient>
	<path fill="url(#SVGID_14_)" d="M376.643,417.214l-0.24-3.616c0,0-0.483-0.964-1.688-0.964h-0.723
		c0.241,1.446,0.481,4.58,0.481,4.58s1.688,18.321-6.75,40.261l2.411-0.242C378.089,435.777,376.643,417.938,376.643,417.214
		L376.643,417.214z"/>
	<g>
		
			<linearGradient id="SVGID_15_" gradientUnits="userSpaceOnUse" x1="325.334" y1="769.5879" x2="312.1997" y2="695.0914" gradientTransform="matrix(1.4279 0 0 -1.4279 -0.214 1392.5355)">
			<stop  offset="0.199" style="stop-color:#FFFFFF"/>
			<stop  offset="0.382" style="stop-color:#FFFFFF"/>
			<stop  offset="1" style="stop-color:#545E60"/>
		</linearGradient>
		<path fill="url(#SVGID_15_)" d="M450.413,292.819c-55.931,0-95.949,42.188-101.976,88.234l1.928,2.17l0.242-1.929
			c3.133-22.661,14.222-44.117,31.82-60.028c18.805-17.117,42.431-26.277,68.226-26.277c22.903,0,44.358,7.473,62.198,21.214
			c16.875,13.259,29.412,32.063,35.197,52.795l0.481,2.17c0,0,0.241,1.205,0.965,1.447c0.724,0.241,1.205,0.241,1.445,0.241
			c-0.24-1.688-0.964-4.339-0.964-4.339C537.682,325.364,498.868,292.819,450.413,292.819L450.413,292.819z"/>
		
			<linearGradient id="SVGID_16_" gradientUnits="userSpaceOnUse" x1="382.0205" y1="768.6406" x2="382.0205" y2="714.2219" gradientTransform="matrix(1.4279 0 0 -1.4279 -0.214 1392.5355)">
			<stop  offset="0.014" style="stop-color:#FFFFFF"/>
			<stop  offset="0.034" style="stop-color:#F5F5F5"/>
			<stop  offset="0.093" style="stop-color:#E7E7E7"/>
			<stop  offset="0.164" style="stop-color:#DEDFE0"/>
			<stop  offset="0.285" style="stop-color:#DCDDDE"/>
			<stop  offset="0.376" style="stop-color:#B6B6B7"/>
			<stop  offset="0.499" style="stop-color:#929395"/>
			<stop  offset="0.624" style="stop-color:#797B7D"/>
			<stop  offset="0.748" style="stop-color:#696C6E"/>
			<stop  offset="0.874" style="stop-color:#5F6466"/>
			<stop  offset="1" style="stop-color:#5C6163"/>
		</linearGradient>
		<path fill="url(#SVGID_16_)" d="M551.905,368.276c-0.481-6.509-2.17-23.626-11.09-41.948v-29.17l-2.169-2.169v31.581
			c9.16,18.563,10.849,35.679,11.089,41.706c0,0,0.724,2.893,0.965,4.339c0.24,0,1.205-0.242,1.205-0.964V368.276z"/>
	</g>
	<g>
		
			<linearGradient id="SVGID_17_" gradientUnits="userSpaceOnUse" x1="465.5781" y1="650.7256" x2="410.6208" y2="633.8189" gradientTransform="matrix(1.4279 0 0 -1.4279 -0.214 1392.5355)">
			<stop  offset="0.2" style="stop-color:#FFFFFF"/>
			<stop  offset="1" style="stop-color:#545E60"/>
		</linearGradient>
		<path fill="url(#SVGID_17_)" d="M672.203,491.707h0.965l-1.207-2.894l-11.09-25.071c-1.205-2.411-3.856-5.304-8.437-5.304H579.87
			l-2.17,2.17h73.529c3.375,0,6.026,1.205,7.474,3.616l11.812,26.519C670.515,490.743,670.998,491.707,672.203,491.707
			L672.203,491.707z"/>
		
			<linearGradient id="SVGID_18_" gradientUnits="userSpaceOnUse" x1="532.5732" y1="787.7158" x2="447.1394" y2="644.9654" gradientTransform="matrix(1.4279 0 0 -1.4279 -0.214 1392.5355)">
			<stop  offset="0.153" style="stop-color:#FFFFFF"/>
			<stop  offset="0.241" style="stop-color:#D8D8D8"/>
			<stop  offset="0.519" style="stop-color:#8A8C8E"/>
			<stop  offset="0.718" style="stop-color:#62696B"/>
			<stop  offset="0.816" style="stop-color:#545E60"/>
		</linearGradient>
		<path fill="url(#SVGID_18_)" d="M695.347,294.989c-13.501,0-23.386,11.33-23.386,23.143v170.682l1.207,2.894
			c0.24,0,0.722-0.241,0.722-0.964V319.096c0-11.813,9.403-21.938,21.215-21.938h107.521l3.134-2.169H695.347z"/>
	</g>
	<g>
		<path fill="#4D5757" d="M713.427,333.078h69.43c3.617,0,7.233-2.169,8.921-5.303L806,294.989H695.588
			c-13.019,0-23.627,10.607-23.627,23.625v170.2l-11.09-25.071c-1.205-2.411-4.097-5.304-8.437-5.304h-72.322V308.006
			c0-7.232-5.787-13.018-13.019-13.018h-28.447v31.581c9.162,18.563,10.849,35.679,11.089,41.706
			c-12.054-42.912-50.867-75.457-99.322-75.457c-55.931,0-95.949,42.188-101.976,88.234h-55.448c-5.063,0-7.473,3.616-8.196,5.063
			l-13.501,30.135h62.198c-6.51,22.66-27.483,44.84-59.306,44.84c-34.714,0-61.955-28.688-61.955-65.09
			c0-36.644,27.481-65.091,62.68-65.091c14.223,0,30.616,6.027,45.081,16.394c1.445,0.965,3.134,1.447,4.339,1.447
			c3.616,0,6.51-2.652,6.991-3.857l14.464-25.073c-10.606-9.402-35.679-26.518-69.912-26.518
			c-59.063,0-105.108,45.081-105.108,102.698c0,56.895,46.286,103.422,103.181,103.422c47.975,0,90.403-34.233,100.77-81.484
			c0,0,1.688,18.322-6.75,40.26c19.769,26.277,49.662,41.225,82.689,41.225c42.188,0,72.806-24.349,88.233-49.422v22.903
			c0,13.018,10.608,23.625,23.627,23.625h138.136c7.233,0,13.019-5.785,13.019-13.018V416.25h59.063c3.617,0,7.233-2.17,8.92-5.304
			l13.019-29.894h-81.002v-47.975H713.427z M793.465,381.535l-12.776,28.929c-1.688,3.134-4.823,5.063-8.198,5.063h-59.545v67.742
			c0,6.992-5.546,12.537-12.537,12.537H562.272c-12.777,0-22.902-10.367-22.902-23.144v-25.795l-1.206,1.928
			c-6.99,11.572-34.232,49.18-87.751,49.18c-32.547,0-62.44-14.946-81.967-40.742c8.196-21.697,6.75-40.019,6.75-40.019l-0.24-1.688
			c0,0-0.242-0.241-0.483-0.241h-0.24c-0.241,0-0.241,0.241-0.241,0.241l-0.24,1.688c-10.367,47.011-52.556,81.002-100.289,81.002
			c-56.652,0-102.457-46.046-102.457-102.699c0-57.376,46.045-102.216,104.627-102.216c35.197,0,60.027,18.08,69.188,26.036
			l-14.223,24.83c-0.482,0.965-3.134,3.617-6.509,3.617c-1.448,0-2.653-0.482-4.099-1.447
			c-14.465-10.366-31.099-16.393-45.323-16.393c-35.438,0-63.162,28.929-63.162,65.813c0,36.885,27.483,65.814,62.68,65.814
			c32.306,0,53.279-22.662,59.788-45.081l0.241-0.724h-61.957l12.777-29.411c0.723-1.447,2.893-4.581,7.714-4.581h55.93v-0.482
			c3.135-23.143,14.465-44.839,32.063-60.992c19.045-17.357,42.912-26.759,69.188-26.759c23.144,0,45.082,7.474,63.162,21.697
			c17.117,13.5,29.894,32.545,35.68,53.519l0.482,1.446c0,0,0,0.241,0.241,0.241h0.24c0,0,0.242,0,0.242-0.241v-1.928
			c-0.482-6.509-2.169-23.384-11.091-41.706v-30.858h27.726c6.99,0,12.535,5.545,12.535,12.537V458.92h72.804
			c4.1,0,6.993,2.411,7.957,5.063l11.09,25.072c0,0,0.241,0.24,0.481,0.24h0.241c0,0,0.242,0,0.242-0.24V318.614
			c0-12.536,10.365-22.902,22.901-22.902h109.449l-13.983,31.822c-1.687,3.134-4.821,5.063-8.196,5.063h-69.912v48.698h81.243
			V381.535z"/>
		<path fill="#4D5757" d="M450.413,329.945c-34.233,0-61.957,29.411-61.957,65.813c0,36.162,27.724,65.814,61.957,65.814
			c33.99,0,61.957-29.652,61.957-65.814C512.37,359.597,484.403,329.945,450.413,329.945z M450.413,460.85
			c-33.752,0-61.476-29.171-61.476-65.092c0-35.919,27.483-65.09,61.476-65.09c33.75,0,61.474,29.171,61.474,65.09
			C511.646,431.679,484.163,460.85,450.413,460.85z"/>
	</g>
	<g>
		
			<linearGradient id="SVGID_19_" gradientUnits="userSpaceOnUse" x1="-24.3076" y1="678.1973" x2="-114.7506" y2="702.4313" gradientTransform="matrix(1.4279 0 0 -1.4279 -0.214 1392.5355)">
			<stop  offset="0" style="stop-color:#F7914F"/>
			<stop  offset="0.454" style="stop-color:#E95E34"/>
			<stop  offset="0.719" style="stop-color:#C6482D"/>
			<stop  offset="1" style="stop-color:#A93D28"/>
		</linearGradient>
		<path fill="url(#SVGID_19_)" d="M-126.243,346.579c-8.197,0-16.394,3.133-23.144,8.678c-7.473,6.509-11.572,17.358-10.848,27.724
			c0.482,7.474,3.857,18.082,16.875,26.278l95.226,65.572l-46.528-105.108C-100.447,355.257-112.261,346.579-126.243,346.579z"/>
		<path fill="#6E3319" d="M-158.307,385.151c-0.723-10.848,3.617-22.179,11.09-29.17c6.991-6.027,15.429-9.161,23.866-9.161
			c1.688,0,3.375,0.241,5.063,0.482c-3.375-1.205-6.99-1.928-10.848-1.928c-8.197,0-16.394,3.134-23.144,8.678
			c-7.473,6.509-11.572,17.357-10.849,27.724c0.482,6.991,3.376,16.634,14.224,24.59
			C-155.654,399.134-157.824,391.178-158.307,385.151z"/>
		
			<linearGradient id="SVGID_20_" gradientUnits="userSpaceOnUse" x1="-32.8613" y1="659.3818" x2="-47.0942" y2="763.2802" gradientTransform="matrix(1.4279 0 0 -1.4279 -0.214 1392.5355)">
			<stop  offset="0" style="stop-color:#E93527"/>
			<stop  offset="0.413" style="stop-color:#CB243C"/>
			<stop  offset="1" style="stop-color:#851E24"/>
		</linearGradient>
		<path fill="url(#SVGID_20_)" d="M-34.151,318.614c3.375,6.509,5.545,13.741,4.098,21.697c0,0-18.322,110.895-18.563,110.895
			l-46.046-105.35c-4.098-12.535-0.241-25.313,8.679-34.232c8.92-9.162,24.107-11.813,35.68-6.751
			C-43.794,307.524-38.009,312.586-34.151,318.614L-34.151,318.614z"/>
		
			<linearGradient id="SVGID_21_" gradientUnits="userSpaceOnUse" x1="31.7466" y1="636.9531" x2="48.8121" y2="733.7325" gradientTransform="matrix(1.4279 0 0 -1.4279 -0.214 1392.5355)">
			<stop  offset="0" style="stop-color:#5EA1D6"/>
			<stop  offset="0.582" style="stop-color:#3763AF"/>
			<stop  offset="0.714" style="stop-color:#2856A6"/>
			<stop  offset="1" style="stop-color:#273D82"/>
		</linearGradient>
		<path fill="url(#SVGID_21_)" d="M76.503,346.579c8.196,0,16.393,3.133,23.143,8.678c7.474,6.509,11.572,17.358,10.849,27.724
			c-0.482,7.474-3.857,18.082-16.875,26.278l-94.985,65.572l46.047-105.108C50.466,355.257,62.278,346.579,76.503,346.579z"/>
		
			<linearGradient id="SVGID_22_" gradientUnits="userSpaceOnUse" x1="94.3711" y1="655.8623" x2="-3.6777" y2="655.8623" gradientTransform="matrix(1.4279 0 0 -1.4279 -0.214 1392.5355)">
			<stop  offset="0" style="stop-color:#225E2F"/>
			<stop  offset="0.357" style="stop-color:#2A8240"/>
			<stop  offset="1" style="stop-color:#60BC60"/>
		</linearGradient>
		<path fill="url(#SVGID_22_)" d="M102.298,422.759c14.946,0,27.241,10.849,30.616,22.179c3.376,11.09,1.446,22.421-5.304,31.1
			c-6.509,8.438-16.393,13.259-27.241,13.259H-5.464l87.27-60.27C88.315,424.929,95.548,422.759,102.298,422.759z"/>
		
			<linearGradient id="SVGID_23_" gradientUnits="userSpaceOnUse" x1="-39.6123" y1="617.6934" x2="-126.1751" y2="667.6714" gradientTransform="matrix(1.4279 0 0 -1.4279 -0.214 1392.5355)">
			<stop  offset="0" style="stop-color:#FCDBAC"/>
			<stop  offset="0.602" style="stop-color:#FAAC23"/>
			<stop  offset="0.893" style="stop-color:#D58F2A"/>
		</linearGradient>
		<path fill="url(#SVGID_23_)" d="M-152.279,422.759c-14.947,0-27.242,10.849-30.617,22.179c-3.375,11.09-1.447,22.421,5.303,31.1
			c6.509,8.438,16.394,13.259,27.242,13.259h105.832l-87.27-60.27C-138.297,424.929-145.288,422.759-152.279,422.759z"/>
		<path opacity="0.7" fill="#815020" enable-background="new    " d="M-175.664,476.519c-6.75-8.919-8.438-20.731-4.822-32.063
			c3.375-11.089,15.429-21.455,29.653-22.179c-2.17-0.481-4.581-0.723-6.751-0.723c-15.428-0.241-28.447,10.849-32.063,22.419
			c-3.617,11.332-1.688,23.145,5.063,32.306c6.508,8.678,16.634,13.982,27.964,13.982l8.92,0.24
			C-159.029,490.261-169.154,485.198-175.664,476.519z"/>
		
			<linearGradient id="SVGID_24_" gradientUnits="userSpaceOnUse" x1="-2.0352" y1="659.4102" x2="12.5603" y2="763.2537" gradientTransform="matrix(1.4279 0 0 -1.4279 -0.214 1392.5355)">
			<stop  offset="0" style="stop-color:#857CBA"/>
			<stop  offset="0.699" style="stop-color:#514A7A"/>
			<stop  offset="1" style="stop-color:#393258"/>
		</linearGradient>
		<path fill="url(#SVGID_24_)" d="M-5.946,336.212c1.205,0,2.893,0.964,2.893,1.928c-5.785,3.617-15.428,7.714-14.464,16.394
			l1.446,9.402c5.545,32.304,14.705,87.269,14.705,87.269l46.047-105.35c4.098-12.535,0.24-25.313-8.679-34.232
			c-8.92-9.162-24.108-11.813-35.681-6.751c-6.268,2.652-12.294,7.714-15.91,13.742c-2.893,5.304-4.58,11.089-4.58,17.358h14.223
			V336.212z"/>
		<path opacity="0.8" fill="#383753" enable-background="new    " d="M-13.419,363.695l-1.447-9.402
			c-1.205-8.438,7.715-12.054,13.5-15.911c-0.24-0.965-2.169-2.411-3.133-2.411H-9.08c1.206,0,2.894,0.964,2.894,1.928
			c-5.786,3.617-15.43,7.714-14.465,16.394l1.446,9.402c5.304,32.545,16.151,97.154,16.394,97.154l4.098-9.402
			C-1.606,434.33-9.321,388.043-13.419,363.695z"/>
		
			<linearGradient id="SVGID_25_" gradientUnits="userSpaceOnUse" x1="2.063" y1="622.7705" x2="67.402" y2="688.1095" gradientTransform="matrix(1.4279 0 0 -1.4279 -0.214 1392.5355)">
			<stop  offset="0" style="stop-color:#207039"/>
			<stop  offset="0.142" style="stop-color:#226C37"/>
			<stop  offset="0.366" style="stop-color:#245F32"/>
			<stop  offset="0.643" style="stop-color:#214A2B"/>
			<stop  offset="0.962" style="stop-color:#182F1D"/>
			<stop  offset="0.995" style="stop-color:#172C1B"/>
		</linearGradient>
		<path opacity="0.8" fill="url(#SVGID_25_)" enable-background="new    " d="M-3.294,489.537L84.94,429.75
			c6.991-4.099,13.018-6.509,20.009-6.509c1.688,0,3.134,0.241,4.821,0.481c-2.893-0.723-5.785-1.205-8.678-1.205
			c-7.474,0-16.875,2.411-22.902,6.75l-89.199,60.27H-3.294z"/>
		
			<linearGradient id="SVGID_26_" gradientUnits="userSpaceOnUse" x1="-0.9614" y1="681.5" x2="58.9103" y2="681.5" gradientTransform="matrix(1.4278 -0.016 -0.0157 -1.4039 6.9761 1369.9612)">
			<stop  offset="0.005" style="stop-color:#254D84"/>
			<stop  offset="0.215" style="stop-color:#244B80"/>
			<stop  offset="0.456" style="stop-color:#224477"/>
			<stop  offset="0.711" style="stop-color:#1E3A67"/>
			<stop  offset="0.974" style="stop-color:#162B53"/>
			<stop  offset="1" style="stop-color:#152A51"/>
		</linearGradient>
		<path fill="url(#SVGID_26_)" d="M48.056,367.07c4.58-11.331,18.563-20.491,30.857-20.491h0.723
			c-1.445-0.242-3.133-0.482-4.82-0.482c-12.295,0.241-24.35,7.955-29.412,20.25L-4.259,479.412l6.027-6.027L48.056,367.07z"/>
		<path fill="#383753" d="M-18,336.695c0-18.804,14.465-34.474,34.233-34.956h-1.205c-20.251,0-36.885,16.152-36.885,35.438
			L-18,336.695L-18,336.695z"/>
		
			<linearGradient id="SVGID_27_" gradientUnits="userSpaceOnUse" x1="-74.4282" y1="732.6211" x2="-36.9561" y2="732.6211" gradientTransform="matrix(1.4278 0.0273 0.027 -1.4151 -12.1375 1415.8441)">
			<stop  offset="0" style="stop-color:#5D171C"/>
			<stop  offset="0.747" style="stop-color:#872C33"/>
			<stop  offset="1" style="stop-color:#97333B"/>
		</linearGradient>
		<path opacity="0.8" fill="url(#SVGID_27_)" enable-background="new    " d="M-90.563,350.677
			c-1.929-4.58-3.616-9.402-3.375-14.464c0.241-17.357,12.295-31.822,29.41-34.715c-18.321,1.929-33.026,16.876-33.268,35.198
			c0,5.063,0.965,9.884,2.893,14.464l0.241,0.482l45.806,102.698l2.41-3.857L-90.563,350.677z"/>
		
			<linearGradient id="SVGID_28_" gradientUnits="userSpaceOnUse" x1="-77.4253" y1="671.2148" x2="-49.3229" y2="711.3505" gradientTransform="matrix(1.4279 0 0 -1.4279 -0.214 1392.5355)">
			<stop  offset="0" style="stop-color:#FFFFFF"/>
			<stop  offset="0.6" style="stop-color:#D8E3EA"/>
			<stop  offset="1" style="stop-color:#757F82"/>
		</linearGradient>
		<path fill="url(#SVGID_28_)" d="M-126.243,346.579c13.982,0,25.796,8.678,31.581,23.144l46.046,105.108l-94.984-65.331
			c-12.777-8.438-16.152-19.045-16.875-26.277c-0.723-10.125,3.617-20.974,10.849-27.724
			C-142.637,349.712-134.44,346.579-126.243,346.579 M-126.243,345.132c-8.679,0-16.875,3.134-24.107,9.161
			c-7.714,6.75-12.054,18.08-11.331,28.688c0.482,7.714,4.098,18.804,17.357,27.483l94.985,65.573l3.857,2.651l-1.93-4.339
			L-93.456,369.24C-99.242,354.293-111.537,345.132-126.243,345.132z"/>
		
			<linearGradient id="SVGID_29_" gradientUnits="userSpaceOnUse" x1="-68.2515" y1="710.1406" x2="-19.6648" y2="710.1406" gradientTransform="matrix(1.4279 0 0 -1.4279 -0.214 1392.5355)">
			<stop  offset="0" style="stop-color:#FFFFFF"/>
			<stop  offset="0.362" style="stop-color:#D8E3EA"/>
			<stop  offset="1" style="stop-color:#757F82"/>
		</linearGradient>
		<path fill="url(#SVGID_29_)" d="M-62.841,302.221c4.34,0,8.68,0.723,12.777,2.651c6.27,2.652,12.296,7.714,15.912,13.983
			c3.375,6.509,5.545,13.741,4.098,21.697c0,0-18.322,110.896-18.563,110.896l0.723,4.822l0.965-5.787
			c0.241-0.723,0.241-1.928,0.723-3.615c0.482-3.135,1.206-7.475,2.17-12.537c1.447-9.16,3.617-21.938,6.269-38.09l9.161-55.448
			c1.205-7.473-0.241-14.947-4.34-22.661c-3.857-6.268-9.884-11.571-16.635-14.464c-4.098-1.688-8.678-2.651-13.26-2.651V302.221
			v-1.447c-9.16,0-18.08,3.617-24.106,9.643c-9.644,9.644-13.019,23.144-9.161,35.68l46.045,105.351l1.93,4.34l-0.723-4.822
			l-45.806-105.11c-4.098-12.535-0.241-25.313,8.679-34.232C-79.956,305.354-71.519,302.221-62.841,302.221"/>
		
			<linearGradient id="SVGID_30_" gradientUnits="userSpaceOnUse" x1="43.0552" y1="669.9004" x2="15.0706" y2="712.9924" gradientTransform="matrix(1.4279 0 0 -1.4279 -0.214 1392.5355)">
			<stop  offset="0" style="stop-color:#FFFFFF"/>
			<stop  offset="0.6" style="stop-color:#D8E3EA"/>
			<stop  offset="1" style="stop-color:#757F82"/>
		</linearGradient>
		<path fill="url(#SVGID_30_)" d="M76.503,346.579c8.196,0,16.393,3.133,23.143,8.678c7.474,6.509,11.572,17.358,10.849,27.724
			c-0.482,7.474-3.857,18.082-16.875,26.278l-94.985,65.572l-3.133,3.857l3.857-2.651l94.984-65.573
			c13.259-8.679,16.875-19.769,17.356-27.483c0.724-10.607-3.616-21.938-11.33-28.688c-7.232-6.027-15.429-9.161-24.108-9.161
			c-14.705,0-27,8.919-33.027,23.866L-2.571,474.35l-1.928,4.339l3.133-3.857l46.047-105.108
			C50.466,355.257,62.278,346.579,76.503,346.579"/>
		
			<linearGradient id="SVGID_31_" gradientUnits="userSpaceOnUse" x1="76.2544" y1="623.7422" x2="22.3033" y2="667.4299" gradientTransform="matrix(1.4279 0 0 -1.4279 -0.214 1392.5355)">
			<stop  offset="0" style="stop-color:#FFFFFF"/>
			<stop  offset="1" style="stop-color:#97A2A7"/>
		</linearGradient>
		<path fill="url(#SVGID_31_)" d="M102.298,422.759c14.946,0,27.241,10.849,30.616,22.179c3.376,11.09,1.446,22.421-5.304,31.1
			c-6.509,8.438-16.393,13.259-27.241,13.259H-5.464l-4.34,1.447h110.173c11.33,0,21.696-5.063,28.446-13.742
			c6.992-8.92,8.92-20.731,5.545-32.304c-1.688-6.027-6.027-11.813-11.571-16.152c-6.027-4.581-13.259-7.232-20.491-7.232
			s-14.465,2.17-21.215,6.509l-87.27,60.27l-3.617,2.41l4.34-1.445l87.27-60.271C88.315,424.929,95.548,422.759,102.298,422.759"/>
		
			<linearGradient id="SVGID_32_" gradientUnits="userSpaceOnUse" x1="-79.0366" y1="631.6426" x2="-79.0366" y2="680.1495" gradientTransform="matrix(1.4279 0 0 -1.4279 -0.214 1392.5355)">
			<stop  offset="0" style="stop-color:#C1C6CA"/>
			<stop  offset="0.102" style="stop-color:#FFFFFF"/>
			<stop  offset="0.847" style="stop-color:#A9B3B7"/>
			<stop  offset="1" style="stop-color:#97A2A7"/>
		</linearGradient>
		<path fill="url(#SVGID_32_)" d="M-152.279,422.759c6.991,0,13.982,2.17,20.491,6.268l87.27,60.27h-105.832
			c-10.849,0-20.733-4.821-27.242-13.259c-6.75-8.679-8.438-20.01-5.303-31.1C-179.521,433.607-167.226,422.759-152.279,422.759
			 M-152.279,421.313c-7.232,0-14.465,2.651-20.492,7.232c-5.545,4.339-9.643,10.125-11.572,16.152
			c-3.375,11.572-1.446,23.384,5.545,32.304c6.75,8.68,17.116,13.742,28.447,13.742h110.172l-3.615-2.411l-87.271-60.27
			C-137.815,423.482-145.047,421.313-152.279,421.313z"/>
		<path fill="#EC2227" d="M-5.946,336.212"/>
		
			<linearGradient id="SVGID_33_" gradientUnits="userSpaceOnUse" x1="23.2544" y1="704.4707" x2="-22.9247" y2="719.4749" gradientTransform="matrix(1.4279 0 0 -1.4279 -0.214 1392.5355)">
			<stop  offset="0" style="stop-color:#FFFFFF"/>
			<stop  offset="0.362" style="stop-color:#D8E3EA"/>
			<stop  offset="1" style="stop-color:#757F82"/>
		</linearGradient>
		<path fill="url(#SVGID_33_)" d="M-20.169,336.212h14.223c1.205,0,2.893,0.964,2.893,1.928c-0.964,0.482-1.688,1.206-2.893,1.688
			c-5.785,3.375-12.535,7.473-11.571,14.705l1.446,9.402c5.545,32.304,14.705,87.269,14.705,87.269l-0.723,4.822l-0.965-5.063
			c0-0.482-0.24-0.965-0.24-1.928c-0.241-1.688-0.724-3.857-1.205-6.752c-0.965-5.303-2.17-12.776-3.857-22.419
			c-3.135-18.081-6.75-40.26-9.402-55.93l-1.446-9.402c-1.205-8.197,6.509-12.777,12.295-15.911l1.688-1.206
			c-0.241-0.723-1.206-1.205-1.929-1.205h-14.946c0-6.027,1.446-12.054,4.821-18.081c3.857-6.268,9.884-11.571,16.635-14.464
			c4.098-1.688,8.678-2.651,13.26-2.651c9.16,0,18.08,3.616,24.106,9.643c9.644,9.643,13.019,23.144,9.161,35.679L-0.16,451.688
			l-1.688,4.34l0.724-4.822l46.045-105.35c4.099-12.535,0.241-25.313-8.678-34.232c-6.027-6.027-14.465-9.402-23.145-9.402
			c-4.338,0-8.678,0.723-12.777,2.651c-6.268,2.652-12.294,7.714-15.91,13.742C-18.481,323.917-20.41,329.703-20.169,336.212"/>
		
			<linearGradient id="SVGID_34_" gradientUnits="userSpaceOnUse" x1="-65.9756" y1="692.9189" x2="-33.4267" y2="692.9189" gradientTransform="matrix(1.4279 0 0 -1.4279 -0.214 1392.5355)">
			<stop  offset="0" style="stop-color:#FFFFFF"/>
			<stop  offset="0.362" style="stop-color:#D8E3EA"/>
			<stop  offset="1" style="stop-color:#757F82"/>
		</linearGradient>
		<path fill="url(#SVGID_34_)" d="M-94.421,349.954l44.6,101.976l1.928,4.34l-0.723-4.822l-44.358-101.493H-94.421z"/>
		
			<linearGradient id="SVGID_35_" gradientUnits="userSpaceOnUse" x1="-31.6094" y1="677.4727" x2="-65.0977" y2="677.4727" gradientTransform="matrix(1.4279 0 0 -1.4279 -0.214 1392.5355)">
			<stop  offset="0" style="stop-color:#C8DADB"/>
			<stop  offset="1" style="stop-color:#949FA1"/>
		</linearGradient>
		<path fill="url(#SVGID_35_)" d="M-93.216,373.098l44.6,101.976l3.135,3.856l-1.93-4.339l-45.081-103.182L-93.216,373.098z"/>
		
			<linearGradient id="SVGID_36_" gradientUnits="userSpaceOnUse" x1="-27.9897" y1="653.1602" x2="-91.1031" y2="653.1602" gradientTransform="matrix(1.4279 0 0 -1.4279 -0.214 1392.5355)">
			<stop  offset="0" style="stop-color:#FFFFFF"/>
			<stop  offset="1" style="stop-color:#A2ABB0"/>
		</linearGradient>
		<path fill="url(#SVGID_36_)" d="M-130.101,430.232l85.582,59.063l4.34,1.447l-3.615-2.411l-85.583-59.306L-130.101,430.232z"/>
		
			<linearGradient id="SVGID_37_" gradientUnits="userSpaceOnUse" x1="-13.0615" y1="697.3936" x2="-0.7745" y2="697.3936" gradientTransform="matrix(1.4279 0 0 -1.4279 -0.214 1392.5355)">
			<stop  offset="0" style="stop-color:#FFFFFF"/>
			<stop  offset="0.055" style="stop-color:#D8E3EA"/>
			<stop  offset="1" style="stop-color:#97A2A7"/>
		</linearGradient>
		<path fill="url(#SVGID_37_)" d="M-3.054,338.141c-0.964,0.482-1.688,1.206-2.893,1.688c-5.785,3.375-12.535,7.473-11.571,14.705
			l1.446,9.402c5.545,32.304,14.705,87.269,14.705,87.269l-0.723,4.822l-0.965-5.063c0-0.482-0.24-0.965-0.24-1.928
			c-0.241-1.688-0.724-3.857-1.205-6.752c-0.965-5.303-2.17-12.776-3.857-22.419c-3.135-18.081-6.75-40.26-9.402-55.93l-1.446-9.402
			c-1.205-8.197,6.509-12.777,12.295-15.911l1.688-1.206L-3.054,338.141z"/>
		
			<linearGradient id="SVGID_38_" gradientUnits="userSpaceOnUse" x1="-3.001" y1="677.5557" x2="30.485" y2="677.5557" gradientTransform="matrix(1.4279 0 0 -1.4279 -0.214 1392.5355)">
			<stop  offset="0" style="stop-color:#C8DADB"/>
			<stop  offset="1" style="stop-color:#909CA1"/>
		</linearGradient>
		<path fill="url(#SVGID_38_)" d="M42.511,371.409L-2.571,474.35l-1.928,4.339l3.133-3.857l44.6-101.975L42.511,371.409
			L42.511,371.409z"/>
		
			<linearGradient id="SVGID_39_" gradientUnits="userSpaceOnUse" x1="-6.7163" y1="653.2441" x2="56.4282" y2="653.2441" gradientTransform="matrix(1.4279 0 0 -1.4279 -0.214 1392.5355)">
			<stop  offset="0" style="stop-color:#FFFFFF"/>
			<stop  offset="1" style="stop-color:#AABABC"/>
		</linearGradient>
		<path fill="url(#SVGID_39_)" d="M79.636,429.026l-85.822,59.064l-3.617,2.41l4.34-1.445l85.824-59.064L79.636,429.026z"/>
		
			<radialGradient id="SVGID_40_" cx="-17.418" cy="733.5352" r="97.0079" gradientTransform="matrix(1.4279 0 0 -7.061 -0.214 5575.1157)" gradientUnits="userSpaceOnUse">
			<stop  offset="0" style="stop-color:#FFFFFF"/>
			<stop  offset="0.5" style="stop-color:#D8E3EA"/>
			<stop  offset="1" style="stop-color:#ABB2B5"/>
		</radialGradient>
		<path fill="url(#SVGID_40_)" d="M-175.423,422.276c-6.75,5.063-12.295,12.295-15.188,20.491
			c-3.857,13.742-1.447,27.242,6.509,38.091c7.955,10.366,20.25,16.394,33.509,16.394h250.961c13.5,0,25.554-6.027,33.509-16.394
			l0.242-0.24c3.375-4.34,5.785-9.402,6.99-14.947c1.207-5.304,1.447-10.607,0.725-15.911c-0.725-5.545-2.652-10.607-5.305-15.188
			c-2.893-4.821-6.51-8.92-11.09-12.295c-6.268-4.339-13.5-6.991-20.973-7.473l-4.099-0.241l3.134-2.652
			c8.92-7.473,14.224-17.598,14.946-28.447c0.965-12.777-4.339-25.795-13.5-34.232c-8.196-6.992-18.321-10.608-28.688-10.608
			c-6.99,0-13.982,1.929-20.009,5.304l-2.894,1.688l0.482-3.375c0.965-6.509,0.482-13.259-1.446-19.527
			c-2.17-6.269-5.786-12.295-10.607-17.117c-7.231-7.474-17.599-11.572-28.688-11.572c-7.232,0-14.946,2.17-21.455,6.027
			c-6.75,4.098-12.054,9.643-15.188,16.152l-1.447,2.893l-1.446-2.893c-3.134-6.509-8.438-12.054-15.188-16.152
			c-6.509-3.857-13.983-6.027-21.456-6.027c-11.09,0-21.456,4.34-28.688,11.572c-4.822,4.822-8.438,10.607-10.607,17.117
			c-2.17,6.268-2.652,13.018-1.447,19.527l0.482,3.375l-2.893-1.688c-6.027-3.616-13.018-5.304-20.01-5.304
			c-10.366,0-20.491,3.857-28.688,10.608c-9.402,8.196-14.464,21.455-13.5,34.232c0.723,10.849,6.027,20.974,14.947,28.447
			l3.133,2.652l-4.098,0.241C-161.922,415.285-169.154,417.696-175.423,422.276L-175.423,422.276z M102.298,421.313
			c7.232,0,14.464,2.651,20.491,7.232c5.544,4.339,9.644,10.125,11.571,16.152c3.375,11.572,1.447,23.384-5.545,32.304
			c-6.75,8.68-17.116,13.742-28.446,13.742H-9.804l3.617-2.412l87.27-60.269C87.833,423.482,95.307,421.313,102.298,421.313
			L102.298,421.313z M76.503,345.132c8.678,0,16.875,3.134,24.107,9.161c7.714,6.75,12.054,18.08,11.33,28.688
			c-0.482,7.714-4.098,18.804-17.357,27.483l-95.225,65.573l-3.857,2.651l1.928-4.339L43.475,369.24
			C49.502,354.293,61.796,345.132,76.503,345.132z M-17.035,318.131c3.856-6.268,9.884-11.571,16.634-14.464
			c4.098-1.688,8.68-2.651,13.26-2.651c9.16,0,18.081,3.616,24.107,9.643c9.643,9.643,13.018,23.144,9.161,35.679L-0.16,451.688
			l-1.688,4.34l-0.964-5.063c0-0.482-0.242-0.965-0.242-1.928c-0.24-1.688-0.723-3.857-1.205-6.752
			c-0.964-5.303-2.17-12.776-3.857-22.419c-3.134-18.081-6.75-40.26-9.401-55.93l-1.446-9.402
			c-1.205-8.197,6.509-12.777,12.295-15.911l1.688-1.206c-0.241-0.723-1.205-1.205-1.929-1.205h-14.946
			C-21.616,330.186-20.169,324.158-17.035,318.131L-17.035,318.131z M-86.947,310.658c6.026-6.268,14.705-9.643,24.106-9.643
			c4.582,0,9.162,0.964,13.26,2.651c6.751,2.894,12.777,8.197,16.635,14.464c4.099,7.474,5.545,15.188,4.34,22.661l-9.161,55.448
			c-2.651,16.152-4.821,28.93-6.269,38.09c-0.964,5.305-1.688,9.643-2.17,12.537c-0.24,1.445-0.481,2.65-0.723,3.615l-0.965,5.545
			l-1.928-4.34l-46.046-105.35C-99.966,333.802-96.591,320.061-86.947,310.658z M-161.682,383.223
			c-0.723-10.607,3.617-21.938,11.331-28.688c7.232-6.027,15.429-9.161,24.107-9.161c14.706,0,27.001,8.92,33.027,23.867
			l46.047,105.109l1.928,4.339l-4.098-2.651l-94.985-65.573C-157.583,401.785-161.199,390.937-161.682,383.223L-161.682,383.223z
			 M-131.065,427.821l87.271,60.27l3.615,2.41h-110.172c-11.331,0-21.697-5.063-28.447-13.74c-6.991-8.921-8.92-20.733-5.545-32.306
			c1.688-6.026,6.027-11.813,11.572-16.151c6.027-4.581,13.259-7.232,20.492-7.232
			C-145.047,421.313-137.815,423.482-131.065,427.821z"/>
		<path opacity="0.7" fill="#FFFFFF" enable-background="new    " d="M-126.002,338.864c-10.366,0-20.492,3.857-28.688,10.607
			c-7.232,6.509-12.054,15.911-13.259,26.036c2.17,0.965,4.34,1.928,6.268,2.652c0.723-9.162,4.822-18.081,11.331-23.867
			c7.232-6.027,15.429-9.161,24.107-9.161c14.706,0,27.001,8.919,33.027,23.866l14.465,32.787c2.651,0.482,5.304,0.724,7.955,1.206
			l-25.071-56.654c-4.099-12.536-0.482-26.036,9.161-35.679c6.026-6.268,14.705-9.643,24.107-9.643c4.58,0,9.16,0.964,13.26,2.651
			c6.75,2.894,12.776,8.197,16.634,14.464c4.099,7.474,5.545,15.188,4.339,22.661l-9.16,55.448
			c-0.482,3.375-1.205,6.751-1.688,9.885c4.821,0.241,9.643,0.241,14.464,0.241s9.644-0.241,14.465-0.241
			c-2.411-14.706-5.063-30.376-6.991-41.948l-1.446-9.402c-1.206-8.196,6.509-12.777,12.294-15.911l1.688-1.205
			c-0.24-0.724-1.205-1.206-1.928-1.206h-14.947c0-6.026,1.447-12.053,4.822-18.08c3.856-6.268,9.884-11.572,16.634-14.465
			c4.099-1.688,8.679-2.652,13.259-2.652c9.162,0,18.082,3.616,24.108,9.643c9.643,9.644,13.018,23.144,9.161,35.68l-25.072,56.653
			c2.652-0.241,5.304-0.724,7.956-1.206l14.464-32.786c6.027-14.947,18.322-23.867,33.027-23.867c8.68,0,16.876,3.134,24.108,9.161
			c6.509,5.786,10.606,14.706,11.33,23.867c2.17-0.965,4.339-1.928,6.268-2.652c-1.205-9.883-6.026-19.527-13.259-26.036
			c-8.196-6.991-18.321-10.607-28.688-10.607c-6.992,0-13.982,1.929-20.01,5.304l-2.894,1.688l0.482-3.375
			c0.964-6.509,0.482-13.259-1.446-19.527c-2.17-6.269-5.786-12.296-10.607-17.117c-7.232-7.474-17.598-11.572-28.688-11.572
			c-7.232,0-14.947,2.17-21.457,6.027c-6.75,4.098-12.053,9.643-15.188,16.152l-1.446,2.893l-1.446-2.893
			c-3.134-6.509-8.438-12.054-15.188-16.152c-6.51-3.857-13.982-6.027-21.457-6.027c-11.089,0-21.455,4.339-28.688,11.572
			c-4.821,4.821-8.438,10.607-10.607,17.117c-2.169,6.268-2.651,13.018-1.445,19.527l0.481,3.375l-2.893-1.688
			C-112.019,340.552-119.011,338.864-126.002,338.864z"/>
		<g opacity="0.15">
			<path opacity="0.55" fill="#FFFFFF" enable-background="new    " d="M13.099,300.774c-4.58,0-9.16,0.965-13.259,2.652
				c-6.75,2.893-12.777,8.197-16.634,14.464c-3.135,6.027-4.822,12.054-4.822,18.081h14.947c0.723,0,1.928,0.482,1.928,1.205
				l-1.688,1.206c-5.544,3.375-13.259,7.955-12.294,15.911l1.446,9.402c1.929,11.813,4.58,27.242,6.991,41.947h2.411
				c9.883-0.482,19.527-1.446,29.17-2.651l24.831-56.654c4.098-12.536,0.481-26.036-9.161-35.679
				C30.939,304.391,22.261,300.774,13.099,300.774z M-32.946,318.131c-3.857-6.268-9.884-11.571-16.635-14.464
				c-4.098-1.688-8.678-2.651-13.26-2.651c-9.16,0-18.08,3.616-24.106,9.643c-9.644,9.643-13.019,23.144-9.161,35.679l25.072,56.895
				c9.643,1.205,19.527,2.169,29.411,2.651h2.17c0.481-3.134,0.964-6.509,1.688-9.884l9.161-55.448
				C-27.401,333.32-28.848,325.605-32.946,318.131L-32.946,318.131z M-93.456,369.24c-6.027-14.947-18.322-23.867-33.028-23.867
				c-8.679,0-16.875,3.134-24.108,9.161c-6.509,5.786-10.607,14.706-11.33,23.867c23.143,9.884,47.251,17.357,72.081,21.938h0.241
				c3.375,0.724,6.509,1.206,9.884,1.688h0.482L-93.456,369.24z M100.61,354.293c-7.232-6.027-15.43-9.161-24.107-9.161
				c-14.707,0-27.001,8.919-33.028,23.866l-14.464,32.787c0.241,0,0.482,0,0.723-0.24c3.375-0.482,6.51-1.206,9.644-1.688h0.241
				c24.83-4.822,48.938-12.055,72.081-21.939C111.218,368.999,107.119,360.079,100.61,354.293z"/>
		</g>
		
			<linearGradient id="SVGID_41_" gradientUnits="userSpaceOnUse" x1="76.438" y1="687.1309" x2="53.326" y2="741.5789" gradientTransform="matrix(1.4279 0 0 -1.4279 -0.214 1392.5355)">
			<stop  offset="0" style="stop-color:#525B5E"/>
			<stop  offset="0.11" style="stop-color:#FFFFFF"/>
			<stop  offset="0.85" style="stop-color:#D8E3EA"/>
			<stop  offset="1" style="stop-color:#6C7579"/>
		</linearGradient>
		<path fill="url(#SVGID_41_)" d="M104.468,413.116c8.678-7.474,14.705-17.84,15.428-29.412c0.965-13.259-4.339-27-13.981-35.438
			c-8.438-7.232-19.046-11.09-29.894-11.09c-7.232,0-14.225,1.688-20.733,5.545l-2.169,3.133l2.893-1.688
			c6.027-3.616,13.018-5.303,20.01-5.303c10.366,0,20.491,3.857,28.688,10.607c9.402,8.197,14.465,21.456,13.5,34.233
			c-0.723,10.848-6.026,20.973-14.946,28.447l-3.134,2.652L104.468,413.116z"/>
		
			<linearGradient id="SVGID_42_" gradientUnits="userSpaceOnUse" x1="-17.3491" y1="753.0215" x2="39.6879" y2="751.0303" gradientTransform="matrix(1.4279 0 0 -1.4279 -0.214 1392.5355)">
			<stop  offset="0" style="stop-color:#858E95"/>
			<stop  offset="0.15" style="stop-color:#FFFFFF"/>
			<stop  offset="0.9" style="stop-color:#D8E3EA"/>
			<stop  offset="1" style="stop-color:#89969B"/>
		</linearGradient>
		<path fill="url(#SVGID_42_)" d="M13.099,294.265c11.09,0,21.457,4.34,28.688,11.572c4.821,4.822,8.438,10.607,10.607,17.117
			c2.17,6.268,2.651,13.019,1.446,19.527l-0.482,3.375l2.17-3.133c2.17-13.742-2.17-27.724-12.535-37.85
			c-7.474-7.714-18.322-12.053-29.895-12.053c-15.428,0-31.099,9.161-37.849,23.143v3.617l1.446-2.893
			c3.135-6.509,8.438-12.054,15.188-16.152C-1.848,296.435,5.626,294.265,13.099,294.265"/>
		
			<linearGradient id="SVGID_43_" gradientUnits="userSpaceOnUse" x1="-18.6709" y1="760.4551" x2="-76.3079" y2="748.2031" gradientTransform="matrix(1.4279 0 0 -1.4279 -0.214 1392.5355)">
			<stop  offset="0" style="stop-color:#858E95"/>
			<stop  offset="0.15" style="stop-color:#FFFFFF"/>
			<stop  offset="0.9" style="stop-color:#D8E3EA"/>
			<stop  offset="1" style="stop-color:#89969B"/>
		</linearGradient>
		<path fill="url(#SVGID_43_)" d="M-24.991,315.721c-6.99-13.982-22.42-23.144-37.85-23.144c-11.33,0-22.178,4.34-29.893,12.054
			c-10.366,10.125-14.705,24.349-12.535,37.849l2.169,3.134l-0.481-3.375c-0.965-6.509-0.482-13.259,1.445-19.527
			c2.17-6.269,5.786-12.295,10.607-17.117c7.232-7.474,17.599-11.572,28.688-11.572c7.232,0,14.947,2.17,21.457,6.027
			c6.75,4.098,12.054,9.643,15.188,16.152l1.446,2.893v-3.375H-24.991z"/>
		
			<linearGradient id="SVGID_44_" gradientUnits="userSpaceOnUse" x1="-117.939" y1="692.5322" x2="-84.2716" y2="742.4448" gradientTransform="matrix(1.4279 0 0 -1.4279 -0.214 1392.5355)">
			<stop  offset="0" style="stop-color:#525B5E"/>
			<stop  offset="0.11" style="stop-color:#FFFFFF"/>
			<stop  offset="0.85" style="stop-color:#D8E3EA"/>
			<stop  offset="1" style="stop-color:#6C7579"/>
		</linearGradient>
		<path fill="url(#SVGID_44_)" d="M-105.269,342.722c-6.51-3.857-13.742-5.545-20.734-5.545c-10.607,0-21.455,4.098-29.893,11.09
			c-9.644,8.678-15.188,22.179-13.983,35.438c0.965,11.572,6.75,21.938,15.429,29.412l4.099,1.446l-3.134-2.652
			c-8.92-7.473-14.224-17.598-14.947-28.447c-0.964-12.777,4.34-25.795,13.5-34.233c8.197-6.991,18.322-10.607,28.688-10.607
			c6.992,0,13.982,1.929,20.01,5.304l2.893,1.688L-105.269,342.722z"/>
		
			<linearGradient id="SVGID_45_" gradientUnits="userSpaceOnUse" x1="-17.3081" y1="625.9766" x2="-17.3081" y2="685.8209" gradientTransform="matrix(1.4279 0 0 -1.4279 -0.214 1392.5355)">
			<stop  offset="0" style="stop-color:#232626"/>
			<stop  offset="0.104" style="stop-color:#97A2A7"/>
			<stop  offset="0.423" style="stop-color:#F3F7F7"/>
			<stop  offset="0.736" style="stop-color:#F3F7F7"/>
			<stop  offset="1" style="stop-color:#97A2A7"/>
		</linearGradient>
		<path fill="url(#SVGID_45_)" d="M100.369,414.563l4.099,0.241c7.714,0.481,14.946,2.893,20.973,7.473
			c4.58,3.375,8.197,7.474,11.09,12.295c2.652,4.581,4.58,9.884,5.305,15.188c0.723,5.303,0.482,10.848-0.725,15.911
			c-1.205,5.545-3.615,10.366-6.99,14.947l-0.242,0.24c-7.955,10.366-20.25,16.394-33.509,16.394h-250.72
			c-13.5,0-25.555-6.027-33.51-16.394c-8.197-10.607-10.607-24.108-6.509-38.091c2.894-8.196,8.438-15.67,15.188-20.491
			c6.268-4.58,13.5-6.991,20.974-7.473l4.098-0.241l-4.098-1.446c-7.956,0.481-15.429,3.134-21.938,7.714
			c-7.232,5.304-12.777,13.018-15.911,21.455c-4.098,14.465-1.688,28.448,6.991,39.538c7.956,10.607,21.215,16.875,34.715,16.875
			H100.61c13.982,0,26.518-6.027,34.715-16.875l0.24-0.242c14.465-19.044,10.127-46.769-9.16-60.751
			c-6.51-4.58-13.982-7.232-21.938-7.714L100.369,414.563z"/>
		
			<linearGradient id="SVGID_46_" gradientUnits="userSpaceOnUse" x1="-17.3081" y1="625.9766" x2="-17.3081" y2="770.1602" gradientTransform="matrix(1.4279 0 0 -1.4279 -0.214 1392.5355)">
			<stop  offset="0" style="stop-color:#FFFFFF"/>
			<stop  offset="0.449" style="stop-color:#4D5757"/>
		</linearGradient>
		<path fill="url(#SVGID_46_)" d="M13.099,293.301c11.332,0,21.938,4.339,29.412,11.813c4.821,4.822,8.679,10.848,10.848,17.357
			c2.17,6.509,2.652,13.259,1.447,20.009l-0.241,1.447l1.205-0.723c6.026-3.617,13.259-5.545,20.491-5.545
			c10.607,0,20.975,3.857,29.412,10.848c9.643,8.438,14.946,21.938,13.982,34.956c-0.724,11.089-6.269,21.457-15.188,29.17
			l-1.206,0.964h1.688c7.715,0.482,15.188,3.135,21.456,7.715c4.58,3.375,8.438,7.714,11.33,12.535
			c2.893,4.822,4.58,10.125,5.545,15.67c0.725,5.546,0.482,11.09-0.723,16.395c-1.447,5.544-3.857,10.606-7.232,15.188l-0.242,0.241
			c-8.195,10.607-20.731,16.634-34.231,16.634h-251.202c-13.741,0-26.278-6.026-34.233-16.634
			c-8.438-10.849-10.849-24.591-6.992-38.813c3.134-8.438,8.438-15.911,15.67-20.974c6.269-4.581,13.742-7.232,21.456-7.715h1.688
			l-1.205-1.205c-8.92-7.714-14.465-18.081-15.188-29.17c-1.206-12.777,4.098-26.277,13.741-34.715
			c8.438-6.991,18.804-10.849,29.411-10.849c7.232,0,14.224,1.929,20.492,5.545l1.206,0.723l-0.241-1.446
			c-1.205-6.509-0.482-13.501,1.446-20.009c2.17-6.509,5.786-12.536,10.849-17.358c7.473-7.473,18.08-11.813,29.41-11.813
			c7.475,0,15.189,2.169,21.939,6.268c6.75,4.099,12.295,9.884,15.429,16.634l0.481,1.206l0.482-1.206
			c3.375-6.75,8.679-12.295,15.429-16.634C-2.089,295.471,5.626,293.301,13.099,293.301 M13.099,292.819
			c-15.428,0-31.099,9.161-37.849,23.143c-6.991-13.982-22.419-23.143-37.849-23.143c-11.331,0-22.18,4.339-29.894,12.053
			c-10.366,10.126-14.706,24.349-12.536,37.85c-6.509-3.857-13.742-5.545-20.732-5.545c-10.607,0-21.456,4.098-29.894,11.09
			c-9.643,8.678-15.188,22.179-13.982,35.438c0.964,11.572,6.75,21.938,15.429,29.412c-7.956,0.481-15.429,3.134-21.938,7.714
			c-7.232,5.304-12.777,13.018-15.911,21.455c-4.098,14.465-1.688,28.448,6.991,39.538c8.197,10.848,20.974,16.875,34.715,16.875
			H100.61c13.982,0,26.518-6.268,34.715-16.875l0.24-0.242c14.465-19.044,10.127-46.769-9.16-60.751
			c-6.51-4.58-13.982-7.232-21.938-7.714c8.678-7.474,14.705-17.84,15.428-29.412c0.965-13.259-4.339-27-13.981-35.438
			c-8.438-7.232-19.046-11.09-29.894-11.09c-7.232,0-14.225,1.688-20.733,5.545c2.17-13.742-2.169-27.724-12.535-37.85
			C35.278,297.158,24.431,292.819,13.099,292.819L13.099,292.819z"/>
	</g>
</g>
</svg>
