<svg enable-background="new -194 292.577 1000 206.845" height="206.845" viewBox="-194 292.577 1000 206.845" width="1000" xmlns="http://www.w3.org/2000/svg" xmlns:xlink="http://www.w3.org/1999/xlink"><linearGradient id="a" gradientTransform="matrix(1.4279 0 0 -1.4279 -.214 1392.5355)" gradientUnits="userSpaceOnUse" x1="341.2383" x2="343.791" y1="771.9121" y2="625.7133"><stop offset=".097" stop-color="#d8e3ea"/><stop offset=".49" stop-color="#a0a8ae"/><stop offset=".672" stop-color="#878e93"/><stop offset=".842" stop-color="#70787c"/></linearGradient><linearGradient id="b" gradientTransform="matrix(1.4279 0 0 -1.4279 -.214 1392.5355)" gradientUnits="userSpaceOnUse" x1="285.126" x2="345.9338" y1="663.5713" y2="732.5441"><stop offset=".128" stop-color="#fff"/><stop offset=".4" stop-color="#545e60"/><stop offset=".6" stop-color="#545e60"/><stop offset="1" stop-color="#d5d9d7"/></linearGradient><linearGradient id="c"><stop offset="0" stop-color="#657173"/><stop offset="1" stop-color="#545e60"/></linearGradient><linearGradient id="d" gradientTransform="matrix(1.4279 0 0 -1.4279 -.214 1392.5355)" gradientUnits="userSpaceOnUse" x1="438.5801" x2="438.5801" xlink:href="#c" y1="685.2383" y2="627.4971"/><linearGradient id="e"><stop offset="0" stop-color="#79868b"/><stop offset="1" stop-color="#545e60"/></linearGradient><linearGradient id="f" gradientTransform="matrix(1.4279 0 0 -1.4279 -.214 1392.5355)" gradientUnits="userSpaceOnUse" x1="190.2095" x2="235.7029" xlink:href="#e" y1="684.4775" y2="684.4775"/><linearGradient id="g"><stop offset=".2" stop-color="#fff"/><stop offset="1" stop-color="#545e60"/></linearGradient><linearGradient id="h" gradientTransform="matrix(1.4279 0 0 -1.4279 -.214 1392.5355)" gradientUnits="userSpaceOnUse" x1="239.1724" x2="188.9652" xlink:href="#g" y1="716.9805" y2="685.8496"/><linearGradient id="i" gradientTransform="matrix(1.4279 0 0 -1.4279 -.214 1392.5355)" gradientUnits="userSpaceOnUse" x1="244.1563" x2="159.657" y1="749.7227" y2="665.2234"><stop offset="0" stop-color="#fff"/><stop offset=".253" stop-color="#545e60"/><stop offset=".6" stop-color="#545e60"/><stop offset="1" stop-color="#d5d9d7"/></linearGradient><linearGradient id="j" gradientTransform="matrix(1.4279 0 0 -1.4279 -.214 1392.5355)" gradientUnits="userSpaceOnUse" x1="318.1172" x2="318.1172" y1="665.7529" y2="625.8712"><stop offset="0" stop-color="#79868b"/><stop offset=".527" stop-color="#657173"/><stop offset="1" stop-color="#545e60"/></linearGradient><linearGradient id="k" gradientTransform="matrix(1.4279 0 0 -1.4279 -.214 1392.5355)" gradientUnits="userSpaceOnUse" x1="405.5469" x2="378.7075" y1="766.8291" y2="659.1842"><stop offset="0" stop-color="#efeae7"/><stop offset=".068" stop-color="#f5f3f0"/><stop offset=".193" stop-color="#fcfcfb"/><stop offset=".54" stop-color="#fff"/><stop offset=".626" stop-color="#d0d0d1"/><stop offset=".747" stop-color="#a3a7aa"/><stop offset=".854" stop-color="#878d91"/><stop offset=".942" stop-color="#777f83"/><stop offset="1" stop-color="#717a7e"/></linearGradient><linearGradient id="l" gradientTransform="matrix(1.4279 0 0 -1.4279 -.214 1392.5355)" gradientUnits="userSpaceOnUse" x1="498.2344" x2="499.7034" y1="725.167" y2="725.167"><stop offset="0" stop-color="#e8e7e7"/><stop offset=".278" stop-color="#f1f0f0"/><stop offset=".71" stop-color="#fff"/><stop offset=".758" stop-color="#d4d5d7"/><stop offset=".838" stop-color="#a5a8ad"/><stop offset=".907" stop-color="#878d93"/><stop offset=".964" stop-color="#767f85"/><stop offset="1" stop-color="#707a80"/></linearGradient><linearGradient id="m" gradientTransform="matrix(1.4279 0 0 -1.4279 -.214 1392.5355)" gradientUnits="userSpaceOnUse" x1="498.2344" x2="564.584" y1="755.1338" y2="755.1338"><stop offset="0" stop-color="#778086"/><stop offset="1" stop-color="#5d6064"/></linearGradient><linearGradient id="n" gradientTransform="matrix(1.4279 0 0 -1.4279 -.214 1392.5355)" gradientUnits="userSpaceOnUse" x1="507.5068" x2="547.1318" y1="693.8652" y2="721.7128"><stop offset="0" stop-color="#bcbcbe"/><stop offset=".009" stop-color="#bebec0"/><stop offset=".124" stop-color="#d3d2d4"/><stop offset=".253" stop-color="#e5e4e4"/><stop offset=".405" stop-color="#f2f1f1"/><stop offset=".602" stop-color="#fbfbfb"/><stop offset="1" stop-color="#fff"/></linearGradient><linearGradient id="o" gradientTransform="matrix(1.4279 0 0 -1.4279 -.214 1392.5355)" gradientUnits="userSpaceOnUse" x1="498.2344" x2="556.4824" xlink:href="#c" y1="695.874" y2="695.874"/><linearGradient id="p" gradientTransform="matrix(1.4279 0 0 -1.4279 -.214 1392.5355)" gradientUnits="userSpaceOnUse" x1="222.6011" x2="161.3519" y1="764.0156" y2="632.6665"><stop offset="0" stop-color="#eaeaee"/><stop offset=".107" stop-color="#e6e5e9"/><stop offset=".201" stop-color="#d8d8dc"/><stop offset=".29" stop-color="#c4c5c9"/><stop offset=".376" stop-color="#acaeb2"/><stop offset=".459" stop-color="#8e9397"/><stop offset=".54" stop-color="#6f787a"/><stop offset=".562" stop-color="#657173"/><stop offset="1" stop-color="#545e60"/></linearGradient><linearGradient id="q" gradientTransform="matrix(1.4279 0 0 -1.4279 -.214 1392.5355)" gradientUnits="userSpaceOnUse" x1="257.647" x2="263.9993" xlink:href="#e" y1="670.5488" y2="670.5488"/><linearGradient id="r" gradientTransform="matrix(1.4279 0 0 -1.4279 -.214 1392.5355)" gradientUnits="userSpaceOnUse" x1="325.334" x2="312.1997" y1="769.5879" y2="695.0914"><stop offset=".199" stop-color="#fff"/><stop offset=".382" stop-color="#fff"/><stop offset="1" stop-color="#545e60"/></linearGradient><linearGradient id="s" gradientTransform="matrix(1.4279 0 0 -1.4279 -.214 1392.5355)" gradientUnits="userSpaceOnUse" x1="382.0205" x2="382.0205" y1="768.6406" y2="714.2219"><stop offset=".014" stop-color="#fff"/><stop offset=".034" stop-color="#f5f5f5"/><stop offset=".093" stop-color="#e7e7e7"/><stop offset=".164" stop-color="#dedfe0"/><stop offset=".285" stop-color="#dcddde"/><stop offset=".376" stop-color="#b6b6b7"/><stop offset=".499" stop-color="#929395"/><stop offset=".624" stop-color="#797b7d"/><stop offset=".748" stop-color="#696c6e"/><stop offset=".874" stop-color="#5f6466"/><stop offset="1" stop-color="#5c6163"/></linearGradient><linearGradient id="t" gradientTransform="matrix(1.4279 0 0 -1.4279 -.214 1392.5355)" gradientUnits="userSpaceOnUse" x1="465.5781" x2="410.6208" xlink:href="#g" y1="650.7256" y2="633.8189"/><linearGradient id="u" gradientTransform="matrix(1.4279 0 0 -1.4279 -.214 1392.5355)" gradientUnits="userSpaceOnUse" x1="532.5732" x2="447.1394" y1="787.7158" y2="644.9654"><stop offset=".153" stop-color="#fff"/><stop offset=".241" stop-color="#d8d8d8"/><stop offset=".519" stop-color="#8a8c8e"/><stop offset=".718" stop-color="#62696b"/><stop offset=".816" stop-color="#545e60"/></linearGradient><linearGradient id="v" gradientTransform="matrix(1.4279 0 0 -1.4279 -.214 1392.5355)" gradientUnits="userSpaceOnUse" x1="-24.3076" x2="-114.7506" y1="678.1973" y2="702.4313"><stop offset="0" stop-color="#f7914f"/><stop offset=".454" stop-color="#e95e34"/><stop offset=".719" stop-color="#c6482d"/><stop offset="1" stop-color="#a93d28"/></linearGradient><linearGradient id="w" gradientTransform="matrix(1.4279 0 0 -1.4279 -.214 1392.5355)" gradientUnits="userSpaceOnUse" x1="-32.8613" x2="-47.0942" y1="659.3818" y2="763.2802"><stop offset="0" stop-color="#e93527"/><stop offset=".413" stop-color="#cb243c"/><stop offset="1" stop-color="#851e24"/></linearGradient><linearGradient id="x" gradientTransform="matrix(1.4279 0 0 -1.4279 -.214 1392.5355)" gradientUnits="userSpaceOnUse" x1="31.7466" x2="48.8121" y1="636.9531" y2="733.7325"><stop offset="0" stop-color="#5ea1d6"/><stop offset=".582" stop-color="#3763af"/><stop offset=".714" stop-color="#2856a6"/><stop offset="1" stop-color="#273d82"/></linearGradient><linearGradient id="y" gradientTransform="matrix(1.4279 0 0 -1.4279 -.214 1392.5355)" gradientUnits="userSpaceOnUse" x1="94.3711" x2="-3.6777" y1="655.8623" y2="655.8623"><stop offset="0" stop-color="#225e2f"/><stop offset=".357" stop-color="#2a8240"/><stop offset="1" stop-color="#60bc60"/></linearGradient><linearGradient id="z" gradientTransform="matrix(1.4279 0 0 -1.4279 -.214 1392.5355)" gradientUnits="userSpaceOnUse" x1="-39.6123" x2="-126.1751" y1="617.6934" y2="667.6714"><stop offset="0" stop-color="#fcdbac"/><stop offset=".602" stop-color="#faac23"/><stop offset=".893" stop-color="#d58f2a"/></linearGradient><linearGradient id="A" gradientTransform="matrix(1.4279 0 0 -1.4279 -.214 1392.5355)" gradientUnits="userSpaceOnUse" x1="-2.0352" x2="12.5603" y1="659.4102" y2="763.2537"><stop offset="0" stop-color="#857cba"/><stop offset=".699" stop-color="#514a7a"/><stop offset="1" stop-color="#393258"/></linearGradient><linearGradient id="B" gradientTransform="matrix(1.4279 0 0 -1.4279 -.214 1392.5355)" gradientUnits="userSpaceOnUse" x1="2.063" x2="67.402" y1="622.7705" y2="688.1095"><stop offset="0" stop-color="#207039"/><stop offset=".142" stop-color="#226c37"/><stop offset=".366" stop-color="#245f32"/><stop offset=".643" stop-color="#214a2b"/><stop offset=".962" stop-color="#182f1d"/><stop offset=".995" stop-color="#172c1b"/></linearGradient><linearGradient id="C" gradientTransform="matrix(1.4278 -.016 -.0157 -1.4039 6.9761 1369.9612)" gradientUnits="userSpaceOnUse" x1="-.9614" x2="58.9103" y1="681.5" y2="681.5"><stop offset=".005" stop-color="#254d84"/><stop offset=".215" stop-color="#244b80"/><stop offset=".456" stop-color="#247"/><stop offset=".711" stop-color="#1e3a67"/><stop offset=".974" stop-color="#162b53"/><stop offset="1" stop-color="#152a51"/></linearGradient><linearGradient id="D" gradientTransform="matrix(1.4278 .0273 .027 -1.4151 -12.1375 1415.8441)" gradientUnits="userSpaceOnUse" x1="-74.4282" x2="-36.9561" y1="732.6211" y2="732.6211"><stop offset="0" stop-color="#5d171c"/><stop offset=".747" stop-color="#872c33"/><stop offset="1" stop-color="#97333b"/></linearGradient><linearGradient id="E"><stop offset="0" stop-color="#fff"/><stop offset=".6" stop-color="#d8e3ea"/><stop offset="1" stop-color="#757f82"/></linearGradient><linearGradient id="F" gradientTransform="matrix(1.4279 0 0 -1.4279 -.214 1392.5355)" gradientUnits="userSpaceOnUse" x1="-77.4253" x2="-49.3229" xlink:href="#E" y1="671.2148" y2="711.3505"/><linearGradient id="G"><stop offset="0" stop-color="#fff"/><stop offset=".362" stop-color="#d8e3ea"/><stop offset="1" stop-color="#757f82"/></linearGradient><linearGradient id="H" gradientTransform="matrix(1.4279 0 0 -1.4279 -.214 1392.5355)" gradientUnits="userSpaceOnUse" x1="-68.2515" x2="-19.6648" xlink:href="#G" y1="710.1406" y2="710.1406"/><linearGradient id="I" gradientTransform="matrix(1.4279 0 0 -1.4279 -.214 1392.5355)" gradientUnits="userSpaceOnUse" x1="43.0552" x2="15.0706" xlink:href="#E" y1="669.9004" y2="712.9924"/><linearGradient id="J" gradientTransform="matrix(1.4279 0 0 -1.4279 -.214 1392.5355)" gradientUnits="userSpaceOnUse" x1="76.2544" x2="22.3033" y1="623.7422" y2="667.4299"><stop offset="0" stop-color="#fff"/><stop offset="1" stop-color="#97a2a7"/></linearGradient><linearGradient id="K" gradientTransform="matrix(1.4279 0 0 -1.4279 -.214 1392.5355)" gradientUnits="userSpaceOnUse" x1="-79.0366" x2="-79.0366" y1="631.6426" y2="680.1495"><stop offset="0" stop-color="#c1c6ca"/><stop offset=".102" stop-color="#fff"/><stop offset=".847" stop-color="#a9b3b7"/><stop offset="1" stop-color="#97a2a7"/></linearGradient><linearGradient id="L" gradientTransform="matrix(1.4279 0 0 -1.4279 -.214 1392.5355)" gradientUnits="userSpaceOnUse" x1="23.2544" x2="-22.9247" xlink:href="#G" y1="704.4707" y2="719.4749"/><linearGradient id="M" gradientTransform="matrix(1.4279 0 0 -1.4279 -.214 1392.5355)" gradientUnits="userSpaceOnUse" x1="-65.9756" x2="-33.4267" xlink:href="#G" y1="692.9189" y2="692.9189"/><linearGradient id="N" gradientTransform="matrix(1.4279 0 0 -1.4279 -.214 1392.5355)" gradientUnits="userSpaceOnUse" x1="-31.6094" x2="-65.0977" y1="677.4727" y2="677.4727"><stop offset="0" stop-color="#c8dadb"/><stop offset="1" stop-color="#949fa1"/></linearGradient><linearGradient id="O" gradientTransform="matrix(1.4279 0 0 -1.4279 -.214 1392.5355)" gradientUnits="userSpaceOnUse" x1="-27.9897" x2="-91.1031" y1="653.1602" y2="653.1602"><stop offset="0" stop-color="#fff"/><stop offset="1" stop-color="#a2abb0"/></linearGradient><linearGradient id="P" gradientTransform="matrix(1.4279 0 0 -1.4279 -.214 1392.5355)" gradientUnits="userSpaceOnUse" x1="-13.0615" x2="-.7745" y1="697.3936" y2="697.3936"><stop offset="0" stop-color="#fff"/><stop offset=".055" stop-color="#d8e3ea"/><stop offset="1" stop-color="#97a2a7"/></linearGradient><linearGradient id="Q" gradientTransform="matrix(1.4279 0 0 -1.4279 -.214 1392.5355)" gradientUnits="userSpaceOnUse" x1="-3.001" x2="30.485" y1="677.5557" y2="677.5557"><stop offset="0" stop-color="#c8dadb"/><stop offset="1" stop-color="#909ca1"/></linearGradient><linearGradient id="R" gradientTransform="matrix(1.4279 0 0 -1.4279 -.214 1392.5355)" gradientUnits="userSpaceOnUse" x1="-6.7163" x2="56.4282" y1="653.2441" y2="653.2441"><stop offset="0" stop-color="#fff"/><stop offset="1" stop-color="#aababc"/></linearGradient><radialGradient id="S" cx="-17.418" cy="733.5352" gradientTransform="matrix(1.4279 0 0 -7.061 -.214 5575.1157)" gradientUnits="userSpaceOnUse" r="97.0079"><stop offset="0" stop-color="#fff"/><stop offset=".5" stop-color="#d8e3ea"/><stop offset="1" stop-color="#abb2b5"/></radialGradient><linearGradient id="T"><stop offset="0" stop-color="#525b5e"/><stop offset=".11" stop-color="#fff"/><stop offset=".85" stop-color="#d8e3ea"/><stop offset="1" stop-color="#6c7579"/></linearGradient><linearGradient id="U" gradientTransform="matrix(1.4279 0 0 -1.4279 -.214 1392.5355)" gradientUnits="userSpaceOnUse" x1="76.438" x2="53.326" xlink:href="#T" y1="687.1309" y2="741.5789"/><linearGradient id="V"><stop offset="0" stop-color="#858e95"/><stop offset=".15" stop-color="#fff"/><stop offset=".9" stop-color="#d8e3ea"/><stop offset="1" stop-color="#89969b"/></linearGradient><linearGradient id="W" gradientTransform="matrix(1.4279 0 0 -1.4279 -.214 1392.5355)" gradientUnits="userSpaceOnUse" x1="-17.3491" x2="39.6879" xlink:href="#V" y1="753.0215" y2="751.0303"/><linearGradient id="X" gradientTransform="matrix(1.4279 0 0 -1.4279 -.214 1392.5355)" gradientUnits="userSpaceOnUse" x1="-18.6709" x2="-76.3079" xlink:href="#V" y1="760.4551" y2="748.2031"/><linearGradient id="Y" gradientTransform="matrix(1.4279 0 0 -1.4279 -.214 1392.5355)" gradientUnits="userSpaceOnUse" x1="-117.939" x2="-84.2716" xlink:href="#T" y1="692.5322" y2="742.4448"/><linearGradient id="Z" gradientTransform="matrix(1.4279 0 0 -1.4279 -.214 1392.5355)" gradientUnits="userSpaceOnUse" x1="-17.3081" x2="-17.3081" y1="625.9766" y2="685.8209"><stop offset="0" stop-color="#232626"/><stop offset=".104" stop-color="#97a2a7"/><stop offset=".423" stop-color="#f3f7f7"/><stop offset=".736" stop-color="#f3f7f7"/><stop offset="1" stop-color="#97a2a7"/></linearGradient><linearGradient id="aa" gradientTransform="matrix(1.4279 0 0 -1.4279 -.214 1392.5355)" gradientUnits="userSpaceOnUse" x1="-17.3081" x2="-17.3081" y1="625.9766" y2="770.1602"><stop offset="0" stop-color="#fff"/><stop offset=".449" stop-color="#4d5757"/></linearGradient><path d="m450.413 497.733c-32.305 0-61.717-14.705-81.244-40.259 8.197-21.457 6.75-39.296 6.75-40.02l-2.41-.241c-10.366 46.528-52.073 80.52-99.564 80.52-56.171 0-101.976-45.804-101.976-102.216 0-56.894 45.563-101.493 103.903-101.493 34.475 0 58.823 17.357 68.467 25.554l-13.983 24.349c-.481.723-2.892 3.134-6.026 3.134-1.205 0-2.41-.482-3.615-1.206-14.707-10.366-31.341-16.393-45.564-16.393-35.92 0-64.127 29.17-64.127 66.295 0 37.126 27.725 66.297 63.162 66.297 32.546 0 53.761-22.902 60.511-45.563l.482-1.446h-61.956l12.535-28.447c.724-1.206 2.652-4.34 6.991-4.34h56.411l.243-.964c5.785-42.188 42.91-87.029 100.769-87.029 46.287 0 85.824 29.894 98.359 74.734l2.41-.482c-.481-6.509-2.169-23.384-11.089-41.947v-30.376h27.242c6.509 0 11.812 5.303 11.812 11.813v151.396h73.771c3.856 0 6.509 2.411 7.232 4.581l10.848 25.072 2.412-.482v-169.237c0-12.295 9.883-22.903 22.179-22.903h108.726l-13.5 31.099c-1.447 2.894-4.582 4.822-7.716 4.822h-70.635v50.145h80.277l-12.295 27.723c-1.446 2.894-4.58 4.581-7.715 4.581h-60.269v68.465c0 6.51-5.304 11.813-11.813 11.813h-138.136c-12.296 0-22.421-10.126-22.421-22.42v-27.482l-2.17 3.615c-7.231 11.331-34.231 48.938-87.268 48.938zm0-168.271c-34.474 0-62.681 29.652-62.681 66.295 0 36.645 28.207 66.297 62.681 66.297s62.679-29.652 62.679-66.297c-.24-36.643-28.205-66.295-62.679-66.295z" fill="url(#a)"/><path d="m450.413 328.498c-34.957 0-63.646 30.135-63.646 67.26 0 37.126 28.447 67.261 63.646 67.261 34.955 0 63.402-30.135 63.402-67.261 0-37.125-28.447-67.26-63.402-67.26zm0 132.352c-33.752 0-61.476-29.171-61.476-65.092 0-35.919 27.483-65.09 61.476-65.09 33.99 0 61.474 29.171 61.474 65.09-.241 35.921-27.724 65.092-61.474 65.092z" fill="url(#b)"/><path d="m538.646 449.277v23.626c0 13.018 10.607 23.625 23.626 23.625h138.136c7.233 0 13.019-5.785 13.019-13.018v-67.26l-2.169-2.17v69.431c0 6.026-5.063 11.089-11.09 11.089h-137.896c-11.813 0-21.457-9.644-21.457-21.696v-31.099z" fill="url(#d)"/><path d="m336.384 414.08h-61.717l-3.375 2.17h62.198z" fill="url(#f)"/><path d="m274.667 414.08 11.813-27.242c.724-1.446 2.411-3.857 6.268-3.857h57.376l-1.929-2.169h-55.447c-5.063 0-7.474 3.616-8.196 5.063l-13.26 30.375z" fill="url(#h)"/><path d="m335.659 416.732c-6.75 23.143-28.205 46.286-61.232 46.286-35.921 0-64.127-29.652-64.127-67.261 0-37.607 28.447-67.26 64.609-67.26 14.705 0 31.34 6.027 46.286 16.634.964.723 2.17.964 3.134.964 2.651 0 4.821-2.17 5.305-2.893l13.5-23.626 2.65-.482-14.464 25.072c-.965 1.688-6.026 6.269-11.571 2.412-14.465-10.367-30.857-16.394-45.082-16.394-35.196 0-62.68 28.688-62.68 65.091 0 36.644 27.242 65.091 61.957 65.091 31.821 0 52.796-22.18 59.305-44.841l2.894-2.169" fill="url(#i)"/><path d="m540.575 441.805-3.858 6.268c-6.99 11.33-33.75 48.456-86.546 48.456-31.821 0-60.993-14.465-80.278-39.536l-2.41.24c19.769 26.278 49.662 41.225 82.688 41.225 42.188 0 72.806-24.349 88.234-49.42z" fill="url(#j)"/><path d="m540.575 297.158h26.277c6.026 0 11.09 4.821 11.09 11.09v152.359l1.928-2.169v-150.432c0-7.232-5.786-13.018-13.018-13.018h-28.447z" fill="url(#k)"/><path d="m713.427 381.053v-47.733l-2.169-2.17v51.831z" fill="url(#l)"/><path d="m802.625 297.158-13.018 29.652c-1.447 2.652-4.099 4.339-6.992 4.339h-71.599l2.17 2.17h69.429c3.617 0 7.233-2.17 8.92-5.304l14.224-32.786z" fill="url(#m)"/><path d="m711.258 382.981h79.796l3.375-1.928h-81.002z" fill="url(#n)"/><path d="m791.054 382.981-11.813 27.001c-1.205 2.41-4.097 4.339-6.99 4.339h-61.233l2.17 2.17h59.063c3.615 0 7.232-2.17 8.92-5.304l13.019-29.894z" fill="url(#o)"/><path d="m373.268 413.357-.724 3.615c-10.366 46.287-51.83 79.797-98.842 79.797-55.688 0-101.01-45.322-101.01-101.252 0-56.412 45.322-100.77 103.18-100.77 33.51 0 57.377 16.634 67.262 25.072l2.65-.481c-10.606-9.402-35.679-26.519-69.912-26.519-59.063 0-105.108 45.081-105.108 102.698 0 56.895 46.286 103.422 103.181 103.422 47.975 0 90.403-34.233 100.77-81.484 0 0-.241-3.375-.481-4.58-.966 0-.966.482-.966.482z" fill="url(#p)"/><path d="m376.643 417.214-.24-3.616s-.483-.964-1.688-.964h-.723c.241 1.446.481 4.58.481 4.58s1.688 18.321-6.75 40.261l2.411-.242c7.955-21.456 6.509-39.295 6.509-40.019z" fill="url(#q)"/><path d="m450.413 292.819c-55.931 0-95.949 42.188-101.976 88.234l1.928 2.17.242-1.929c3.133-22.661 14.222-44.117 31.82-60.028 18.805-17.117 42.431-26.277 68.226-26.277 22.903 0 44.358 7.473 62.198 21.214 16.875 13.259 29.412 32.063 35.197 52.795l.481 2.17s.241 1.205.965 1.447c.724.241 1.205.241 1.445.241-.24-1.688-.964-4.339-.964-4.339-12.293-43.153-51.107-75.698-99.562-75.698z" fill="url(#r)"/><path d="m551.905 368.276c-.481-6.509-2.17-23.626-11.09-41.948v-29.17l-2.169-2.169v31.581c9.16 18.563 10.849 35.679 11.089 41.706 0 0 .724 2.893.965 4.339.24 0 1.205-.242 1.205-.964z" fill="url(#s)"/><path d="m672.203 491.707h.965l-1.207-2.894-11.09-25.071c-1.205-2.411-3.856-5.304-8.437-5.304h-72.564l-2.17 2.17h73.529c3.375 0 6.026 1.205 7.474 3.616l11.812 26.519s.483.964 1.688.964z" fill="url(#t)"/><path d="m695.347 294.989c-13.501 0-23.386 11.33-23.386 23.143v170.682l1.207 2.894c.24 0 .722-.241.722-.964v-171.648c0-11.813 9.403-21.938 21.215-21.938h107.521l3.134-2.169z" fill="url(#u)"/><path d="m713.427 333.078h69.43c3.617 0 7.233-2.169 8.921-5.303l14.222-32.786h-110.412c-13.019 0-23.627 10.607-23.627 23.625v170.2l-11.09-25.071c-1.205-2.411-4.097-5.304-8.437-5.304h-72.322v-150.433c0-7.232-5.787-13.018-13.019-13.018h-28.447v31.581c9.162 18.563 10.849 35.679 11.089 41.706-12.054-42.912-50.867-75.457-99.322-75.457-55.931 0-95.949 42.188-101.976 88.234h-55.448c-5.063 0-7.473 3.616-8.196 5.063l-13.501 30.135h62.198c-6.51 22.66-27.483 44.84-59.306 44.84-34.714 0-61.955-28.688-61.955-65.09 0-36.644 27.481-65.091 62.68-65.091 14.223 0 30.616 6.027 45.081 16.394 1.445.965 3.134 1.447 4.339 1.447 3.616 0 6.51-2.652 6.991-3.857l14.464-25.073c-10.606-9.402-35.679-26.518-69.912-26.518-59.063 0-105.108 45.081-105.108 102.698 0 56.895 46.286 103.422 103.181 103.422 47.975 0 90.403-34.233 100.77-81.484 0 0 1.688 18.322-6.75 40.26 19.769 26.277 49.662 41.225 82.689 41.225 42.188 0 72.806-24.349 88.233-49.422v22.903c0 13.018 10.608 23.625 23.627 23.625h138.136c7.233 0 13.019-5.785 13.019-13.018v-67.261h59.063c3.617 0 7.233-2.17 8.92-5.304l13.019-29.894h-81.002v-47.975h-.242zm80.038 48.457-12.776 28.929c-1.688 3.134-4.823 5.063-8.198 5.063h-59.545v67.742c0 6.992-5.546 12.537-12.537 12.537h-138.137c-12.777 0-22.902-10.367-22.902-23.144v-25.795l-1.206 1.928c-6.99 11.572-34.232 49.18-87.751 49.18-32.547 0-62.44-14.946-81.967-40.742 8.196-21.697 6.75-40.019 6.75-40.019l-.24-1.688s-.242-.241-.483-.241h-.24c-.241 0-.241.241-.241.241l-.24 1.688c-10.367 47.011-52.556 81.002-100.289 81.002-56.652 0-102.457-46.046-102.457-102.699 0-57.376 46.045-102.216 104.627-102.216 35.197 0 60.027 18.08 69.188 26.036l-14.223 24.83c-.482.965-3.134 3.617-6.509 3.617-1.448 0-2.653-.482-4.099-1.447-14.465-10.366-31.099-16.393-45.323-16.393-35.438 0-63.162 28.929-63.162 65.813 0 36.885 27.483 65.814 62.68 65.814 32.306 0 53.279-22.662 59.788-45.081l.241-.724h-61.957l12.777-29.411c.723-1.447 2.893-4.581 7.714-4.581h55.93v-.482c3.135-23.143 14.465-44.839 32.063-60.992 19.045-17.357 42.912-26.759 69.188-26.759 23.144 0 45.082 7.474 63.162 21.697 17.117 13.5 29.894 32.545 35.68 53.519l.482 1.446s0 .241.241.241h.24s.242 0 .242-.241v-1.928c-.482-6.509-2.169-23.384-11.091-41.706v-30.858h27.726c6.99 0 12.535 5.545 12.535 12.537v150.672h72.804c4.1 0 6.993 2.411 7.957 5.063l11.09 25.072s.241.24.481.24h.241s.242 0 .242-.24v-170.441c0-12.536 10.365-22.902 22.901-22.902h109.449l-13.983 31.822c-1.687 3.134-4.821 5.063-8.196 5.063h-69.912v48.698h81.243v.24z" fill="#4d5757"/><path d="m450.413 329.945c-34.233 0-61.957 29.411-61.957 65.813 0 36.162 27.724 65.814 61.957 65.814 33.99 0 61.957-29.652 61.957-65.814 0-36.161-27.967-65.813-61.957-65.813zm0 130.905c-33.752 0-61.476-29.171-61.476-65.092 0-35.919 27.483-65.09 61.476-65.09 33.75 0 61.474 29.171 61.474 65.09-.241 35.921-27.724 65.092-61.474 65.092z" fill="#4d5757"/><path d="m-126.243 346.579c-8.197 0-16.394 3.133-23.144 8.678-7.473 6.509-11.572 17.358-10.848 27.724.482 7.474 3.857 18.082 16.875 26.278l95.226 65.572-46.528-105.108c-5.785-14.466-17.599-23.144-31.581-23.144z" fill="url(#v)"/><path d="m-158.307 385.151c-.723-10.848 3.617-22.179 11.09-29.17 6.991-6.027 15.429-9.161 23.866-9.161 1.688 0 3.375.241 5.063.482-3.375-1.205-6.99-1.928-10.848-1.928-8.197 0-16.394 3.134-23.144 8.678-7.473 6.509-11.572 17.357-10.849 27.724.482 6.991 3.376 16.634 14.224 24.59-6.749-7.232-8.919-15.188-9.402-21.215z" fill="#6e3319"/><path d="m-34.151 318.614c3.375 6.509 5.545 13.741 4.098 21.697 0 0-18.322 110.895-18.563 110.895l-46.046-105.35c-4.098-12.535-.241-25.313 8.679-34.232 8.92-9.162 24.107-11.813 35.68-6.751 6.509 2.651 12.294 7.713 16.152 13.741z" fill="url(#w)"/><path d="m76.503 346.579c8.196 0 16.393 3.133 23.143 8.678 7.474 6.509 11.572 17.358 10.849 27.724-.482 7.474-3.857 18.082-16.875 26.278l-94.985 65.572 46.047-105.108c5.784-14.466 17.596-23.144 31.821-23.144z" fill="url(#x)"/><path d="m102.298 422.759c14.946 0 27.241 10.849 30.616 22.179 3.376 11.09 1.446 22.421-5.304 31.1-6.509 8.438-16.393 13.259-27.241 13.259h-105.833l87.27-60.27c6.509-4.098 13.742-6.268 20.492-6.268z" fill="url(#y)"/><path d="m-152.279 422.759c-14.947 0-27.242 10.849-30.617 22.179-3.375 11.09-1.447 22.421 5.303 31.1 6.509 8.438 16.394 13.259 27.242 13.259h105.832l-87.27-60.27c-6.508-4.098-13.499-6.268-20.49-6.268z" fill="url(#z)"/><path d="m-175.664 476.519c-6.75-8.919-8.438-20.731-4.822-32.063 3.375-11.089 15.429-21.455 29.653-22.179-2.17-.481-4.581-.723-6.751-.723-15.428-.241-28.447 10.849-32.063 22.419-3.617 11.332-1.688 23.145 5.063 32.306 6.508 8.678 16.634 13.982 27.964 13.982l8.92.24c-11.329-.24-21.454-5.303-27.964-13.982z" fill="#815020" opacity=".7"/><path d="m-5.946 336.212c1.205 0 2.893.964 2.893 1.928-5.785 3.617-15.428 7.714-14.464 16.394l1.446 9.402c5.545 32.304 14.705 87.269 14.705 87.269l46.047-105.35c4.098-12.535.24-25.313-8.679-34.232-8.92-9.162-24.108-11.813-35.681-6.751-6.268 2.652-12.294 7.714-15.91 13.742-2.893 5.304-4.58 11.089-4.58 17.358h14.223z" fill="url(#A)"/><path d="m-13.419 363.695-1.447-9.402c-1.205-8.438 7.715-12.054 13.5-15.911-.24-.965-2.169-2.411-3.133-2.411h-4.581c1.206 0 2.894.964 2.894 1.928-5.786 3.617-15.43 7.714-14.465 16.394l1.446 9.402c5.304 32.545 16.151 97.154 16.394 97.154l4.098-9.402c-2.893-17.117-10.608-63.404-14.706-87.752z" fill="#383753" opacity=".8"/><path d="m-3.294 489.537 88.234-59.787c6.991-4.099 13.018-6.509 20.009-6.509 1.688 0 3.134.241 4.821.481-2.893-.723-5.785-1.205-8.678-1.205-7.474 0-16.875 2.411-22.902 6.75l-89.199 60.27z" fill="url(#B)" opacity=".8"/><path d="m48.056 367.07c4.58-11.331 18.563-20.491 30.857-20.491h.723c-1.445-.242-3.133-.482-4.82-.482-12.295.241-24.35 7.955-29.412 20.25l-49.663 113.065 6.027-6.027z" fill="url(#C)"/><path d="m-18 336.695c0-18.804 14.465-34.474 34.233-34.956h-1.205c-20.251 0-36.885 16.152-36.885 35.438z" fill="#383753"/><path d="m-90.563 350.677c-1.929-4.58-3.616-9.402-3.375-14.464.241-17.357 12.295-31.822 29.41-34.715-18.321 1.929-33.026 16.876-33.268 35.198 0 5.063.965 9.884 2.893 14.464l.241.482 45.806 102.698 2.41-3.857z" fill="url(#D)" opacity=".8"/><path d="m-126.243 346.579c13.982 0 25.796 8.678 31.581 23.144l46.046 105.108-94.984-65.331c-12.777-8.438-16.152-19.045-16.875-26.277-.723-10.125 3.617-20.974 10.849-27.724 6.989-5.787 15.186-8.92 23.383-8.92m0-1.447c-8.679 0-16.875 3.134-24.107 9.161-7.714 6.75-12.054 18.08-11.331 28.688.482 7.714 4.098 18.804 17.357 27.483l94.985 65.573 3.857 2.651-1.93-4.339-46.044-105.109c-5.786-14.947-18.081-24.108-32.787-24.108z" fill="url(#F)"/><path d="m-62.841 302.221c4.34 0 8.68.723 12.777 2.651 6.27 2.652 12.296 7.714 15.912 13.983 3.375 6.509 5.545 13.741 4.098 21.697 0 0-18.322 110.896-18.563 110.896l.723 4.822.965-5.787c.241-.723.241-1.928.723-3.615.482-3.135 1.206-7.475 2.17-12.537 1.447-9.16 3.617-21.938 6.269-38.09l9.161-55.448c1.205-7.473-.241-14.947-4.34-22.661-3.857-6.268-9.884-11.571-16.635-14.464-4.098-1.688-8.678-2.651-13.26-2.651v1.204-1.447c-9.16 0-18.08 3.617-24.106 9.643-9.644 9.644-13.019 23.144-9.161 35.68l46.045 105.351 1.93 4.34-.723-4.822-45.806-105.11c-4.098-12.535-.241-25.313 8.679-34.232 6.027-6.27 14.464-9.403 23.142-9.403" fill="url(#H)"/><path d="m76.503 346.579c8.196 0 16.393 3.133 23.143 8.678 7.474 6.509 11.572 17.358 10.849 27.724-.482 7.474-3.857 18.082-16.875 26.278l-94.985 65.572-3.133 3.857 3.857-2.651 94.984-65.573c13.259-8.679 16.875-19.769 17.356-27.483.724-10.607-3.616-21.938-11.33-28.688-7.232-6.027-15.429-9.161-24.108-9.161-14.705 0-27 8.919-33.027 23.866l-45.805 105.352-1.928 4.339 3.133-3.857 46.047-105.108c5.785-14.467 17.597-23.145 31.822-23.145" fill="url(#I)"/><path d="m102.298 422.759c14.946 0 27.241 10.849 30.616 22.179 3.376 11.09 1.446 22.421-5.304 31.1-6.509 8.438-16.393 13.259-27.241 13.259h-105.833l-4.34 1.447h110.173c11.33 0 21.696-5.063 28.446-13.742 6.992-8.92 8.92-20.731 5.545-32.304-1.688-6.027-6.027-11.813-11.571-16.152-6.027-4.581-13.259-7.232-20.491-7.232s-14.465 2.17-21.215 6.509l-87.27 60.27-3.617 2.41 4.34-1.445 87.27-60.271c6.509-3.858 13.742-6.028 20.492-6.028" fill="url(#J)"/><path d="m-152.279 422.759c6.991 0 13.982 2.17 20.491 6.268l87.27 60.27h-105.832c-10.849 0-20.733-4.821-27.242-13.259-6.75-8.679-8.438-20.01-5.303-31.1 3.374-11.331 15.669-22.179 30.616-22.179m0-1.446c-7.232 0-14.465 2.651-20.492 7.232-5.545 4.339-9.643 10.125-11.572 16.152-3.375 11.572-1.446 23.384 5.545 32.304 6.75 8.68 17.116 13.742 28.447 13.742h110.172l-3.615-2.411-87.271-60.27c-6.75-4.58-13.982-6.749-21.214-6.749z" fill="url(#K)"/><path d="m-20.169 336.212h14.223c1.205 0 2.893.964 2.893 1.928-.964.482-1.688 1.206-2.893 1.688-5.785 3.375-12.535 7.473-11.571 14.705l1.446 9.402c5.545 32.304 14.705 87.269 14.705 87.269l-.723 4.822-.965-5.063c0-.482-.24-.965-.24-1.928-.241-1.688-.724-3.857-1.205-6.752-.965-5.303-2.17-12.776-3.857-22.419-3.135-18.081-6.75-40.26-9.402-55.93l-1.446-9.402c-1.205-8.197 6.509-12.777 12.295-15.911l1.688-1.206c-.241-.723-1.206-1.205-1.929-1.205h-14.946c0-6.027 1.446-12.054 4.821-18.081 3.857-6.268 9.884-11.571 16.635-14.464 4.098-1.688 8.678-2.651 13.26-2.651 9.16 0 18.08 3.616 24.106 9.643 9.644 9.643 13.019 23.144 9.161 35.679l-46.047 105.352-1.688 4.34.724-4.822 46.045-105.35c4.099-12.535.241-25.313-8.678-34.232-6.027-6.027-14.465-9.402-23.145-9.402-4.338 0-8.678.723-12.777 2.651-6.268 2.652-12.294 7.714-15.91 13.742-2.892 5.302-4.821 11.088-4.58 17.597" fill="url(#L)"/><path d="m-94.421 349.954 44.6 101.976 1.928 4.34-.723-4.822-44.358-101.493h-1.447z" fill="url(#M)"/><path d="m-93.216 373.098 44.6 101.976 3.135 3.856-1.93-4.339-45.081-103.182z" fill="url(#N)"/><path d="m-130.101 430.232 85.582 59.063 4.34 1.447-3.615-2.411-85.583-59.306z" fill="url(#O)"/><path d="m-3.054 338.141c-.964.482-1.688 1.206-2.893 1.688-5.785 3.375-12.535 7.473-11.571 14.705l1.446 9.402c5.545 32.304 14.705 87.269 14.705 87.269l-.723 4.822-.965-5.063c0-.482-.24-.965-.24-1.928-.241-1.688-.724-3.857-1.205-6.752-.965-5.303-2.17-12.776-3.857-22.419-3.135-18.081-6.75-40.26-9.402-55.93l-1.446-9.402c-1.205-8.197 6.509-12.777 12.295-15.911l1.688-1.206z" fill="url(#P)"/><path d="m42.511 371.409-45.082 102.941-1.928 4.339 3.133-3.857 44.6-101.975z" fill="url(#Q)"/><path d="m79.636 429.026-85.822 59.064-3.617 2.41 4.34-1.445 85.824-59.064z" fill="url(#R)"/><path d="m-175.423 422.276c-6.75 5.063-12.295 12.295-15.188 20.491-3.857 13.742-1.447 27.242 6.509 38.091 7.955 10.366 20.25 16.394 33.509 16.394h250.961c13.5 0 25.554-6.027 33.509-16.394l.242-.24c3.375-4.34 5.785-9.402 6.99-14.947 1.207-5.304 1.447-10.607.725-15.911-.725-5.545-2.652-10.607-5.305-15.188-2.893-4.821-6.51-8.92-11.09-12.295-6.268-4.339-13.5-6.991-20.973-7.473l-4.099-.241 3.134-2.652c8.92-7.473 14.224-17.598 14.946-28.447.965-12.777-4.339-25.795-13.5-34.232-8.196-6.992-18.321-10.608-28.688-10.608-6.99 0-13.982 1.929-20.009 5.304l-2.894 1.688.482-3.375c.965-6.509.482-13.259-1.446-19.527-2.17-6.269-5.786-12.295-10.607-17.117-7.231-7.474-17.599-11.572-28.688-11.572-7.232 0-14.946 2.17-21.455 6.027-6.75 4.098-12.054 9.643-15.188 16.152l-1.447 2.893-1.446-2.893c-3.134-6.509-8.438-12.054-15.188-16.152-6.509-3.857-13.983-6.027-21.456-6.027-11.09 0-21.456 4.34-28.688 11.572-4.822 4.822-8.438 10.607-10.607 17.117-2.17 6.268-2.652 13.018-1.447 19.527l.482 3.375-2.893-1.688c-6.027-3.616-13.018-5.304-20.01-5.304-10.366 0-20.491 3.857-28.688 10.608-9.402 8.196-14.464 21.455-13.5 34.232.723 10.849 6.027 20.974 14.947 28.447l3.133 2.652-4.098.241c-7.47.481-14.702 2.892-20.971 7.472zm277.721-.963c7.232 0 14.464 2.651 20.491 7.232 5.544 4.339 9.644 10.125 11.571 16.152 3.375 11.572 1.447 23.384-5.545 32.304-6.75 8.68-17.116 13.742-28.446 13.742h-110.173l3.617-2.412 87.27-60.269c6.75-4.58 14.224-6.749 21.215-6.749zm-25.795-76.181c8.678 0 16.875 3.134 24.107 9.161 7.714 6.75 12.054 18.08 11.33 28.688-.482 7.714-4.098 18.804-17.357 27.483l-95.225 65.573-3.857 2.651 1.928-4.339 46.046-105.109c6.027-14.947 18.321-24.108 33.028-24.108zm-93.538-27.001c3.856-6.268 9.884-11.571 16.634-14.464 4.098-1.688 8.68-2.651 13.26-2.651 9.16 0 18.081 3.616 24.107 9.643 9.643 9.643 13.018 23.144 9.161 35.679l-46.287 105.35-1.688 4.34-.964-5.063c0-.482-.242-.965-.242-1.928-.24-1.688-.723-3.857-1.205-6.752-.964-5.303-2.17-12.776-3.857-22.419-3.134-18.081-6.75-40.26-9.401-55.93l-1.446-9.402c-1.205-8.197 6.509-12.777 12.295-15.911l1.688-1.206c-.241-.723-1.205-1.205-1.929-1.205h-14.946c.239-6.026 1.686-12.054 4.82-18.081zm-69.912-7.473c6.026-6.268 14.705-9.643 24.106-9.643 4.582 0 9.162.964 13.26 2.651 6.751 2.894 12.777 8.197 16.635 14.464 4.099 7.474 5.545 15.188 4.34 22.661l-9.161 55.448c-2.651 16.152-4.821 28.93-6.269 38.09-.964 5.305-1.688 9.643-2.17 12.537-.24 1.445-.481 2.65-.723 3.615l-.965 5.545-1.928-4.34-46.046-105.35c-4.098-12.534-.723-26.275 8.921-35.678zm-74.735 72.565c-.723-10.607 3.617-21.938 11.331-28.688 7.232-6.027 15.429-9.161 24.107-9.161 14.706 0 27.001 8.92 33.027 23.867l46.047 105.109 1.928 4.339-4.098-2.651-94.985-65.573c-13.258-8.68-16.874-19.528-17.357-27.242zm30.617 44.598 87.271 60.27 3.615 2.41h-110.172c-11.331 0-21.697-5.063-28.447-13.74-6.991-8.921-8.92-20.733-5.545-32.306 1.688-6.026 6.027-11.813 11.572-16.151 6.027-4.581 13.259-7.232 20.492-7.232 7.232.241 14.464 2.41 21.214 6.749z" fill="url(#S)"/><path d="m-126.002 338.864c-10.366 0-20.492 3.857-28.688 10.607-7.232 6.509-12.054 15.911-13.259 26.036 2.17.965 4.34 1.928 6.268 2.652.723-9.162 4.822-18.081 11.331-23.867 7.232-6.027 15.429-9.161 24.107-9.161 14.706 0 27.001 8.919 33.027 23.866l14.465 32.787c2.651.482 5.304.724 7.955 1.206l-25.071-56.654c-4.099-12.536-.482-26.036 9.161-35.679 6.026-6.268 14.705-9.643 24.107-9.643 4.58 0 9.16.964 13.26 2.651 6.75 2.894 12.776 8.197 16.634 14.464 4.099 7.474 5.545 15.188 4.339 22.661l-9.16 55.448c-.482 3.375-1.205 6.751-1.688 9.885 4.821.241 9.643.241 14.464.241s9.644-.241 14.465-.241c-2.411-14.706-5.063-30.376-6.991-41.948l-1.446-9.402c-1.206-8.196 6.509-12.777 12.294-15.911l1.688-1.205c-.24-.724-1.205-1.206-1.928-1.206h-14.947c0-6.026 1.447-12.053 4.822-18.08 3.856-6.268 9.884-11.572 16.634-14.465 4.099-1.688 8.679-2.652 13.259-2.652 9.162 0 18.082 3.616 24.108 9.643 9.643 9.644 13.018 23.144 9.161 35.68l-25.072 56.653c2.652-.241 5.304-.724 7.956-1.206l14.464-32.786c6.027-14.947 18.322-23.867 33.027-23.867 8.68 0 16.876 3.134 24.108 9.161 6.509 5.786 10.606 14.706 11.33 23.867 2.17-.965 4.339-1.928 6.268-2.652-1.205-9.883-6.026-19.527-13.259-26.036-8.196-6.991-18.321-10.607-28.688-10.607-6.992 0-13.982 1.929-20.01 5.304l-2.894 1.688.482-3.375c.964-6.509.482-13.259-1.446-19.527-2.17-6.269-5.786-12.296-10.607-17.117-7.232-7.474-17.598-11.572-28.688-11.572-7.232 0-14.947 2.17-21.457 6.027-6.75 4.098-12.053 9.643-15.188 16.152l-1.446 2.893-1.446-2.893c-3.134-6.509-8.438-12.054-15.188-16.152-6.51-3.857-13.982-6.027-21.457-6.027-11.089 0-21.455 4.339-28.688 11.572-4.821 4.821-8.438 10.607-10.607 17.117-2.169 6.268-2.651 13.018-1.445 19.527l.481 3.375-2.893-1.688c-6.025-3.856-13.017-5.544-20.008-5.544z" fill="#fff" opacity=".7"/><path d="m13.099 300.774c-4.58 0-9.16.965-13.259 2.652-6.75 2.893-12.777 8.197-16.634 14.464-3.135 6.027-4.822 12.054-4.822 18.081h14.947c.723 0 1.928.482 1.928 1.205l-1.688 1.206c-5.544 3.375-13.259 7.955-12.294 15.911l1.446 9.402c1.929 11.813 4.58 27.242 6.991 41.947h2.411c9.883-.482 19.527-1.446 29.17-2.651l24.831-56.654c4.098-12.536.481-26.036-9.161-35.679-6.026-6.267-14.704-9.884-23.866-9.884zm-46.045 17.357c-3.857-6.268-9.884-11.571-16.635-14.464-4.098-1.688-8.678-2.651-13.26-2.651-9.16 0-18.08 3.616-24.106 9.643-9.644 9.643-13.019 23.144-9.161 35.679l25.072 56.895c9.643 1.205 19.527 2.169 29.411 2.651h2.17c.481-3.134.964-6.509 1.688-9.884l9.161-55.448c1.205-7.232-.242-14.947-4.34-22.421zm-60.51 51.109c-6.027-14.947-18.322-23.867-33.028-23.867-8.679 0-16.875 3.134-24.108 9.161-6.509 5.786-10.607 14.706-11.33 23.867 23.143 9.884 47.251 17.357 72.081 21.938h.241c3.375.724 6.509 1.206 9.884 1.688h.482zm194.066-14.947c-7.232-6.027-15.43-9.161-24.107-9.161-14.707 0-27.001 8.919-33.028 23.866l-14.464 32.787c.241 0 .482 0 .723-.24 3.375-.482 6.51-1.206 9.644-1.688h.241c24.83-4.822 48.938-12.055 72.081-21.939-.482-8.919-4.581-17.839-11.09-23.625z" fill="#fff" opacity=".0825"/><path d="m104.468 413.116c8.678-7.474 14.705-17.84 15.428-29.412.965-13.259-4.339-27-13.981-35.438-8.438-7.232-19.046-11.09-29.894-11.09-7.232 0-14.225 1.688-20.733 5.545l-2.169 3.133 2.893-1.688c6.027-3.616 13.018-5.303 20.01-5.303 10.366 0 20.491 3.857 28.688 10.607 9.402 8.197 14.465 21.456 13.5 34.233-.723 10.848-6.026 20.973-14.946 28.447l-3.134 2.652z" fill="url(#U)"/><path d="m13.099 294.265c11.09 0 21.457 4.34 28.688 11.572 4.821 4.822 8.438 10.607 10.607 17.117 2.17 6.268 2.651 13.019 1.446 19.527l-.482 3.375 2.17-3.133c2.17-13.742-2.17-27.724-12.535-37.85-7.474-7.714-18.322-12.053-29.895-12.053-15.428 0-31.099 9.161-37.849 23.143v3.617l1.446-2.893c3.135-6.509 8.438-12.054 15.188-16.152 6.269-4.1 13.743-6.27 21.216-6.27" fill="url(#W)"/><path d="m-24.991 315.721c-6.99-13.982-22.42-23.144-37.85-23.144-11.33 0-22.178 4.34-29.893 12.054-10.366 10.125-14.705 24.349-12.535 37.849l2.169 3.134-.481-3.375c-.965-6.509-.482-13.259 1.445-19.527 2.17-6.269 5.786-12.295 10.607-17.117 7.232-7.474 17.599-11.572 28.688-11.572 7.232 0 14.947 2.17 21.457 6.027 6.75 4.098 12.054 9.643 15.188 16.152l1.446 2.893v-3.375h-.241z" fill="url(#X)"/><path d="m-105.269 342.722c-6.51-3.857-13.742-5.545-20.734-5.545-10.607 0-21.455 4.098-29.893 11.09-9.644 8.678-15.188 22.179-13.983 35.438.965 11.572 6.75 21.938 15.429 29.412l4.099 1.446-3.134-2.652c-8.92-7.473-14.224-17.598-14.947-28.447-.964-12.777 4.34-25.795 13.5-34.233 8.197-6.991 18.322-10.607 28.688-10.607 6.992 0 13.982 1.929 20.01 5.304l2.893 1.688z" fill="url(#Y)"/><path d="m100.369 414.563 4.099.241c7.714.481 14.946 2.893 20.973 7.473 4.58 3.375 8.197 7.474 11.09 12.295 2.652 4.581 4.58 9.884 5.305 15.188.723 5.303.482 10.848-.725 15.911-1.205 5.545-3.615 10.366-6.99 14.947l-.242.24c-7.955 10.366-20.25 16.394-33.509 16.394h-250.72c-13.5 0-25.555-6.027-33.51-16.394-8.197-10.607-10.607-24.108-6.509-38.091 2.894-8.196 8.438-15.67 15.188-20.491 6.268-4.58 13.5-6.991 20.974-7.473l4.098-.241-4.098-1.446c-7.956.481-15.429 3.134-21.938 7.714-7.232 5.304-12.777 13.018-15.911 21.455-4.098 14.465-1.688 28.448 6.991 39.538 7.956 10.607 21.215 16.875 34.715 16.875h250.96c13.982 0 26.518-6.027 34.715-16.875l.24-.242c14.465-19.044 10.127-46.769-9.16-60.751-6.51-4.58-13.982-7.232-21.938-7.714z" fill="url(#Z)"/><path d="m13.099 293.301c11.332 0 21.938 4.339 29.412 11.813 4.821 4.822 8.679 10.848 10.848 17.357 2.17 6.509 2.652 13.259 1.447 20.009l-.241 1.447 1.205-.723c6.026-3.617 13.259-5.545 20.491-5.545 10.607 0 20.975 3.857 29.412 10.848 9.643 8.438 14.946 21.938 13.982 34.956-.724 11.089-6.269 21.457-15.188 29.17l-1.206.964h1.688c7.715.482 15.188 3.135 21.456 7.715 4.58 3.375 8.438 7.714 11.33 12.535 2.893 4.822 4.58 10.125 5.545 15.67.725 5.546.482 11.09-.723 16.395-1.447 5.544-3.857 10.606-7.232 15.188l-.242.241c-8.195 10.607-20.731 16.634-34.231 16.634h-251.202c-13.741 0-26.278-6.026-34.233-16.634-8.438-10.849-10.849-24.591-6.992-38.813 3.134-8.438 8.438-15.911 15.67-20.974 6.269-4.581 13.742-7.232 21.456-7.715h1.688l-1.205-1.205c-8.92-7.714-14.465-18.081-15.188-29.17-1.206-12.777 4.098-26.277 13.741-34.715 8.438-6.991 18.804-10.849 29.411-10.849 7.232 0 14.224 1.929 20.492 5.545l1.206.723-.241-1.446c-1.205-6.509-.482-13.501 1.446-20.009 2.17-6.509 5.786-12.536 10.849-17.358 7.473-7.473 18.08-11.813 29.41-11.813 7.475 0 15.189 2.169 21.939 6.268s12.295 9.884 15.429 16.634l.481 1.206.482-1.206c3.375-6.75 8.679-12.295 15.429-16.634 6.991-4.339 14.706-6.509 22.179-6.509m0-.482c-15.428 0-31.099 9.161-37.849 23.143-6.991-13.982-22.419-23.143-37.849-23.143-11.331 0-22.18 4.339-29.894 12.053-10.366 10.126-14.706 24.349-12.536 37.85-6.509-3.857-13.742-5.545-20.732-5.545-10.607 0-21.456 4.098-29.894 11.09-9.643 8.678-15.188 22.179-13.982 35.438.964 11.572 6.75 21.938 15.429 29.412-7.956.481-15.429 3.134-21.938 7.714-7.232 5.304-12.777 13.018-15.911 21.455-4.098 14.465-1.688 28.448 6.991 39.538 8.197 10.848 20.974 16.875 34.715 16.875h250.961c13.982 0 26.518-6.268 34.715-16.875l.24-.242c14.465-19.044 10.127-46.769-9.16-60.751-6.51-4.58-13.982-7.232-21.938-7.714 8.678-7.474 14.705-17.84 15.428-29.412.965-13.259-4.339-27-13.981-35.438-8.438-7.232-19.046-11.09-29.894-11.09-7.232 0-14.225 1.688-20.733 5.545 2.17-13.742-2.169-27.724-12.535-37.85-7.474-7.714-18.321-12.053-29.653-12.053z" fill="url(#aa)"/></svg>