<svg id="bo" width="6.1475mm" height="1.429mm" version="1.1" viewBox="0 0 6.1475 1.429" xmlns="http://www.w3.org/2000/svg">
 <defs id="bp">
  <clipPath id="aa">
   <path id="bq" d="m226.01 113.2h17.426v4.051h-17.426z"/>
  </clipPath>
  <clipPath id="ab">
   <path id="br" d="m239.36 115.15 2.735-2.5415 2.5221 2.7141-2.735 2.5415z"/>
  </clipPath>
  <linearGradient id="a" x2="1" gradientTransform="matrix(2.5137 -2.3358 2.3358 2.5137 240.64 116.47)" gradientUnits="userSpaceOnUse">
   <stop id="bs" stop-color="#00a8e2" offset="0"/>
   <stop id="bt" stop-color="#00577e" offset=".87496"/>
   <stop id="bu" stop-color="#00577e" offset="1"/>
  </linearGradient>
  <clipPath id="ac">
   <path id="bv" d="m243.39 114.1v2.2655h-2.8149v-2.2655z"/>
  </clipPath>
  <linearGradient id="b" x2="1" gradientTransform="matrix(0 2.266 -2.266 0 241.98 114.1)" gradientUnits="userSpaceOnUse">
   <stop id="bw" stop-color="#007abf" offset="0"/>
   <stop id="bx" stop-color="#00608f" offset="1"/>
  </linearGradient>
  <clipPath id="ad">
   <path id="by" d="m226.01 113.2h17.426v4.051h-17.426z"/>
  </clipPath>
  <clipPath id="ae">
   <path id="bz" d="m239.93 115.17 2.1552-2.0028 1.9882 2.1396-2.1552 2.0028z"/>
  </clipPath>
  <linearGradient id="c" x2="1" gradientTransform="matrix(1.9894 -1.8486 1.8486 1.9894 240.91 116.23)" gradientUnits="userSpaceOnUse">
   <stop id="ca" stop-color="#00577e" offset="0"/>
   <stop id="cb" stop-color="#00577e" offset=".25402"/>
   <stop id="cc" stop-color="#00a8e2" offset="1"/>
  </linearGradient>
  <clipPath id="af">
   <path id="cd" d="m226.01 113.2h17.426v4.051h-17.426z"/>
  </clipPath>
  <clipPath id="ag">
   <path id="ce" d="m240.03 114.1v2.254h-2.586v-2.254z"/>
  </clipPath>
  <linearGradient id="d" x2="1" gradientTransform="matrix(0 2.2546 -2.2546 0 238.74 114.1)" gradientUnits="userSpaceOnUse">
   <stop id="cf" stop-color="#007abf" offset="0"/>
   <stop id="cg" stop-color="#00608f" offset="1"/>
  </linearGradient>
  <clipPath id="ah">
   <path id="ch" d="m226.01 113.2h17.426v4.051h-17.426z"/>
  </clipPath>
  <clipPath id="ai">
   <path id="ci" d="m237.69 115.35h2.0889v0.0459h-2.0889z"/>
  </clipPath>
  <linearGradient id="e" x2="1" gradientTransform="matrix(2.0897 0 0 2.0897 237.7 115.4)" gradientUnits="userSpaceOnUse">
   <stop id="cj" stop-color="#00b9e9" offset="0"/>
   <stop id="ck" stop-color="#007abf" offset="1"/>
  </linearGradient>
  <clipPath id="aj">
   <path id="cl" d="m239.22 114.74 0.53502-0.70486 0.54734 0.41545-0.53502 0.70487z"/>
  </clipPath>
  <linearGradient id="f" x2="1" gradientTransform="matrix(.5009 -.65991 .65991 .5009 239.44 115.01)" gradientUnits="userSpaceOnUse">
   <stop id="cm" stop-color="#00577e" offset="0"/>
   <stop id="cn" stop-color="#00577e" offset=".0041494"/>
   <stop id="co" stop-color="#00a8e2" offset="1"/>
  </linearGradient>
  <clipPath id="ak">
   <path id="cp" d="m226.01 113.2h17.426v4.051h-17.426z"/>
  </clipPath>
  <clipPath id="al">
   <path id="cq" d="m236.58 113.25v3.959h-0.0706v-3.959z"/>
  </clipPath>
  <linearGradient id="g" x2="1" gradientTransform="matrix(0 3.9477 -3.9477 0 236.58 113.24)" gradientUnits="userSpaceOnUse">
   <stop id="cr" stop-color="#dedfdc" offset="0"/>
   <stop id="cs" stop-color="#3f4040" offset="1"/>
  </linearGradient>
  <clipPath id="am">
   <path id="ct" d="m226.01 113.2h17.426v4.051h-17.426z"/>
  </clipPath>
  <clipPath id="an">
   <path id="cu" d="m236.51 113.2v4.0505h-0.0459v-4.0505z"/>
  </clipPath>
  <linearGradient id="h" x2="1" gradientTransform="matrix(0 4.0514 -4.0514 0 236.47 113.2)" gradientUnits="userSpaceOnUse">
   <stop id="cv" stop-color="#8c8c8a" offset="0"/>
   <stop id="cw" stop-color="#f7f6f5" offset="1"/>
  </linearGradient>
  <clipPath id="ao">
   <path id="cx" d="m226.01 113.2h17.426v4.051h-17.426z"/>
  </clipPath>
  <clipPath id="ap">
   <path id="cy" d="m227.16 116.78 0.65738-1.1578 0.68093 0.38662-0.65739 1.1578z"/>
  </clipPath>
  <linearGradient id="i" x2="1" gradientTransform="matrix(1.1512 -2.0274 2.0274 1.1512 228.16 115.83)" gradientUnits="userSpaceOnUse">
   <stop id="cz" stop-color="#d8d8d6" offset="0"/>
   <stop id="da" stop-color="#3f4040" offset="1"/>
  </linearGradient>
  <clipPath id="aq">
   <path id="db" d="m228.89 117.11-0.19163 0.43273-0.90795-0.40209 0.19164-0.43273z"/>
  </clipPath>
  <linearGradient id="j" x2="1" gradientTransform="matrix(-.53162 1.2004 -1.2004 -.53162 228.82 116.01)" gradientUnits="userSpaceOnUse">
   <stop id="dc" stop-color="#3f4040" offset="0"/>
   <stop id="dd" stop-color="#fff" offset="1"/>
  </linearGradient>
  <clipPath id="ar">
   <path id="de" d="m226.01 113.2h17.426v4.051h-17.426z"/>
  </clipPath>
  <clipPath id="as">
   <path id="df" d="m226.06 113.23v3.9231h-0.0496v-3.9231z"/>
  </clipPath>
  <linearGradient id="k" x2="1" gradientTransform="matrix(0 3.9241 -3.9241 0 226.02 113.24)" gradientUnits="userSpaceOnUse">
   <stop id="dg" stop-color="#8c8c8a" offset="0"/>
   <stop id="dh" stop-color="#f7f6f5" offset="1"/>
  </linearGradient>
  <clipPath id="at">
   <path id="di" d="m226.01 113.2h17.426v4.051h-17.426z"/>
  </clipPath>
  <clipPath id="au">
   <path id="dj" d="m227.13 117.11-0.19687 0.44456-0.93466-0.41392 0.19688-0.44456z"/>
  </clipPath>
  <linearGradient id="l" x2="1" gradientTransform="matrix(-.53017 1.1972 -1.1972 -.53017 227.34 115.36)" gradientUnits="userSpaceOnUse">
   <stop id="dk" stop-color="#3f4040" offset="0"/>
   <stop id="dl" stop-color="#fff" offset="1"/>
  </linearGradient>
  <clipPath id="av">
   <path id="dm" d="m227.05 115.68 0.21064-0.37098 0.61203 0.34751-0.21064 0.37098z"/>
  </clipPath>
  <linearGradient id="m" x2="1" gradientTransform="matrix(1.1596 -2.0423 2.0423 1.1596 227.55 115.5)" gradientUnits="userSpaceOnUse">
   <stop id="dn" stop-color="#eeeeec" offset="0"/>
   <stop id="do" stop-color="#3f4040" offset="1"/>
  </linearGradient>
  <clipPath id="aw">
   <path id="dp" d="m227.8 114.8v-1.568h0.0459v1.568z"/>
  </clipPath>
  <linearGradient id="n" x2="1" gradientTransform="matrix(0 -1.5422 1.5422 0 227.83 114.78)" gradientUnits="userSpaceOnUse">
   <stop id="dq" stop-color="#eaeae8" offset="0"/>
   <stop id="dr" stop-color="#dfdfdd" offset="1"/>
  </linearGradient>
  <clipPath id="ax">
   <path id="ds" d="m226.01 113.2h17.426v4.051h-17.426z"/>
  </clipPath>
  <clipPath id="ay">
   <path id="dt" d="m227.11 117.15-0.18 0.40645-0.91778-0.40645 0.17999-0.40645z"/>
  </clipPath>
  <linearGradient id="o" x2="1" gradientTransform="matrix(-.53227 1.2019 -1.2019 -.53227 227.36 115.35)" gradientUnits="userSpaceOnUse">
   <stop id="du" stop-color="#3f4040" offset="0"/>
   <stop id="dv" stop-color="#fff" offset="1"/>
  </linearGradient>
  <clipPath id="az">
   <path id="dw" d="m228.87 117.15-0.17477 0.39464-0.89113-0.39464 0.17477-0.39464z"/>
  </clipPath>
  <linearGradient id="p" x2="1" gradientTransform="matrix(-.53314 1.2039 -1.2039 -.53314 228.84 116)" gradientUnits="userSpaceOnUse">
   <stop id="dx" stop-color="#3f4040" offset="0"/>
   <stop id="dy" stop-color="#fff" offset="1"/>
  </linearGradient>
  <clipPath id="ba">
   <path id="dz" d="m237.48 114.21-2.6945 4.6671-4.6127-2.6631 2.6945-4.6671z"/>
  </clipPath>
  <linearGradient id="q" x2="1" gradientTransform="matrix(-2.001 3.4659 -3.4659 -2.001 234.8 113.54)" gradientUnits="userSpaceOnUse">
   <stop id="ea" stop-color="#3f4040" offset="0"/>
   <stop id="eb" stop-color="#fff" offset="1"/>
  </linearGradient>
  <clipPath id="bb">
   <path id="ec" d="m232.52 116.18-1.2768 2.2115-2.7096-1.5644 1.2768-2.2115z"/>
  </clipPath>
  <linearGradient id="r" x2="1" gradientTransform="matrix(-1.265 2.1911 -2.1911 -1.265 231.53 114.77)" gradientUnits="userSpaceOnUse">
   <stop id="ed" stop-color="#3f4040" offset="0"/>
   <stop id="ee" stop-color="#fff" offset="1"/>
  </linearGradient>
  <clipPath id="bc">
   <path id="ef" d="m229.14 113.23v3.9223h-0.0458v-3.9223z"/>
  </clipPath>
  <linearGradient id="s" x2="1" gradientTransform="matrix(0 3.9231 -3.9231 0 229.1 113.24)" gradientUnits="userSpaceOnUse">
   <stop id="eg" stop-color="#8c8c8a" offset="0"/>
   <stop id="eh" stop-color="#f7f6f5" offset="1"/>
  </linearGradient>
  <clipPath id="bd">
   <path id="ei" d="m229.73 116.13 0.57123-0.95744 1.0042 0.59911-0.57123 0.95744z"/>
  </clipPath>
  <linearGradient id="t" x2="1" gradientTransform="matrix(.21191 -.35518 .35518 .21191 230.42 116.12)" gradientUnits="userSpaceOnUse">
   <stop id="ej" stop-color="#3f4040" offset="0"/>
   <stop id="ek" stop-color="#626361" offset=".21162"/>
   <stop id="el" stop-color="#d8d8d6" offset="1"/>
  </linearGradient>
  <clipPath id="be">
   <path id="em" d="m226.01 113.2h17.426v4.051h-17.426z"/>
  </clipPath>
  <clipPath id="bf">
   <path id="en" d="m232.71 116.27v-2.0886h2.0884v2.0886z"/>
  </clipPath>
  <linearGradient id="u" x2="1" gradientTransform="matrix(0 -.99683 .99683 0 233.75 115.21)" gradientUnits="userSpaceOnUse">
   <stop id="eo" stop-color="#3f4040" offset="0"/>
   <stop id="ep" stop-color="#f7f6f5" offset="1"/>
  </linearGradient>
  <clipPath id="bg">
   <path id="eq" d="m235.22 114.83-1.0721 1.8569-1.8568-1.072 1.0721-1.8569z"/>
  </clipPath>
  <linearGradient id="v" x2="1" gradientTransform="matrix(-.78543 1.3604 -1.3604 -.78543 234.14 114.54)" gradientUnits="userSpaceOnUse">
   <stop id="er" stop-color="#3f4040" offset="0"/>
   <stop id="es" stop-color="#dedfdc" offset="1"/>
  </linearGradient>
  <clipPath id="bh">
   <path id="et" d="m226.01 113.2h17.426v4.051h-17.426z"/>
  </clipPath>
  <clipPath id="bi">
   <path id="eu" d="m231.48 115.33 0.28649-0.42972 0.31161 0.20774-0.28648 0.42973z"/>
  </clipPath>
  <linearGradient id="w" x2="1" gradientTransform="matrix(.24177 -.36266 .36266 .24177 231.61 115.47)" gradientUnits="userSpaceOnUse">
   <stop id="ev" stop-color="#3f4040" offset="0"/>
   <stop id="ew" stop-color="#dedfdc" offset="1"/>
  </linearGradient>
  <clipPath id="bj">
   <path id="ex" d="m231.17 115.13 0.29222-0.43834 0.48475 0.32317-0.29222 0.43833z"/>
  </clipPath>
  <linearGradient id="x" x2="1" gradientTransform="matrix(.2413 -.36195 .36195 .2413 231.36 115.37)" gradientUnits="userSpaceOnUse">
   <stop id="ey" stop-color="#3f4040" offset="0"/>
   <stop id="ez" stop-color="#dedfdc" offset="1"/>
  </linearGradient>
  <clipPath id="bk">
   <path id="fa" d="m226.01 113.2h17.426v4.051h-17.426z"/>
  </clipPath>
  <clipPath id="bl">
   <path id="fb" d="m229.7 114.6 0.65196-0.93556 0.96766 0.67433-0.65196 0.93556z"/>
  </clipPath>
  <linearGradient id="y" x2="1" gradientTransform="matrix(.30796 -.44191 .44191 .30796 230.41 114.62)" gradientUnits="userSpaceOnUse">
   <stop id="fc" stop-color="#3f4040" offset="0"/>
   <stop id="fd" stop-color="#626361" offset=".21162"/>
   <stop id="fe" stop-color="#eeeeec" offset="1"/>
  </linearGradient>
  <clipPath id="bm">
   <path id="ff" d="m226.01 113.2h17.426v4.051h-17.426z"/>
  </clipPath>
  <clipPath id="bn">
   <path id="fg" d="m235.74 113.21v4.0082h-9.7314v-4.0082z"/>
  </clipPath>
  <linearGradient id="z" x2="1" gradientTransform="matrix(0 4.0082 -4.0082 0 230.87 113.2)" gradientUnits="userSpaceOnUse">
   <stop id="fh" stop-color="#dedfdc" offset="0"/>
   <stop id="fi" stop-color="#3f4040" offset="1"/>
  </linearGradient>
 </defs>
 <g id="fj" transform="translate(-110.32 -117.12)">
  <g id="fk" transform="matrix(.35278 0 0 -.35278 30.587 158.49)">
   <g id="fl">
    <g id="fm">
     <g id="fn">
      <g id="fo" clip-path="url(#bn)">
       <path id="fp" d="m233.75 117.22c-1.096 0-1.657-0.807-1.796-1.133 2e-3 0.489-0.48 1.067-1.046 1.068h-1.818v-3.923h1.696c0.683 0 1.17 0.592 1.171 1.1 0.156-0.32 0.697-1.12 1.795-1.12 1.098 1e-3 1.993 0.914 1.992 2.013 0 1.123-0.894 1.994-1.992 1.995zm-3.643-0.939h0.539c0.157 0 0.28-0.155 0.28-0.331s-0.123-0.331-0.28-0.331h-0.539zm2.646-1.056c0 0.55 0.448 0.998 1 0.998 0.551 0 0.998-0.448 0.998-0.998 0-0.552-0.447-0.999-0.998-0.999-0.552 0-1 0.447-1 0.999m-1.389 0c0.123 0.015 0.339 0.145 0.411 0.235-0.025-0.111-5e-3 -0.391 0.024-0.503-0.082 0.128-0.31 0.251-0.435 0.268m-1.259-0.416h0.539c0.156 0 0.281-0.155 0.281-0.332s-0.125-0.331-0.281-0.331h-0.539zm-2.302 2.345v-1.459h-0.692v1.459h-1.098l4e-3 -3.923h1.094v1.522h0.692v-1.522h1.066v3.923zm5.165-1.929c0-0.434 0.351-0.785 0.785-0.785 0.432 0 0.784 0.351 0.784 0.785 0 0.432-0.352 0.784-0.784 0.784-0.434 0-0.785-0.352-0.785-0.784" fill="url(#z)"/>
      </g>
     </g>
    </g>
   </g>
  </g>
  <g id="fq" transform="matrix(.35278 0 0 -.35278 30.587 158.49)">
   <g id="fr" clip-path="url(#bm)">
    <g id="fs" transform="translate(231.91 114.53)">
     <path id="ft" d="m0 0c-1e-3 -0.682-0.469-1.252-1.125-1.252l-1.65 1e-3c-0.025-0.026-0.046-0.046-0.046-0.046l1.696-1e-3c0.683 0 1.17 0.592 1.171 1.101 0 0-0.021 0.088-0.046 0.197" fill="#3f4040"/>
    </g>
   </g>
  </g>
  <g id="fu" transform="matrix(.35278 0 0 -.35278 30.587 158.49)">
   <g id="fv">
    <g id="fw">
     <g id="fx">
      <g id="fy" clip-path="url(#bl)">
       <path id="fz" d="m230.64 114.81c0.156 0 0.281-0.155 0.281-0.332s-0.125-0.331-0.281-0.331h-0.539l-0.046-0.046h0.585c0.185 1e-3 0.327 0.179 0.327 0.377 0 0.199-0.142 0.377-0.327 0.378z" fill="url(#y)"/>
      </g>
     </g>
    </g>
   </g>
  </g>
  <g id="ga" transform="matrix(.35278 0 0 -.35278 30.587 158.49)">
   <g id="gb" clip-path="url(#bk)">
    <g id="gc" transform="translate(230.06 114.85)">
     <path id="gd" d="m0 0 0.046-0.046h0.539v0.046z" fill="#3f4040"/>
    </g>
    <g id="ge" transform="translate(230.06 114.85)">
     <path id="gf" d="m0 0v-0.755l0.046 0.046v0.663l-0.046 0.046" fill="#3f4040"/>
    </g>
   </g>
  </g>
  <g id="gg" transform="matrix(.35278 0 0 -.35278 30.587 158.49)">
   <g id="gh">
    <g id="gi">
     <g id="gj">
      <g id="gk" clip-path="url(#bj)">
       <path id="gl" d="m231.31 115.23c0.202-0.076 0.333-0.122 0.5-0.3-0.031 0.07-0.056 0.126-0.056 0.126-0.087 0.093-0.226 0.141-0.308 0.171 0 0-0.061 1e-3 -0.135 3e-3z" fill="url(#x)"/>
      </g>
     </g>
    </g>
   </g>
  </g>
  <g id="gm" transform="matrix(.35278 0 0 -.35278 30.587 158.49)">
   <g id="gn">
    <g id="go">
     <g id="gp">
      <g id="gq" clip-path="url(#bi)">
       <path id="gr" d="m231.75 115.39c-2e-3 -0.107-5e-3 -0.228 4e-3 -0.341 0 0 0.025-0.056 0.056-0.126-0.019 0.241-0.016 0.36-0.012 0.577-0.026-0.061-0.048-0.11-0.048-0.11" fill="url(#w)"/>
      </g>
     </g>
    </g>
   </g>
  </g>
  <g id="gs" transform="matrix(.35278 0 0 -.35278 30.587 158.49)">
   <g id="gt" clip-path="url(#bh)">
    <g id="gu" transform="translate(231.31 115.23)">
     <path id="gv" d="m0 0c0.075-1e-3 0.136-2e-3 0.136-2e-3 0.124 0.042 0.218 0.084 0.304 0.169 0 0 0.022 0.049 0.048 0.111-0.159-0.157-0.247-0.196-0.488-0.278" fill="#3f4040"/>
    </g>
   </g>
  </g>
  <g id="gw" transform="matrix(.35278 0 0 -.35278 30.587 158.49)">
   <g id="gx">
    <g id="gy">
     <g id="gz">
      <g id="ha" clip-path="url(#bg)">
       <path id="hb" d="m232.97 115.22c0-0.434 0.351-0.785 0.785-0.785 0.432 0 0.784 0.351 0.784 0.785 0 0.432-0.352 0.784-0.784 0.784-0.434 0-0.785-0.352-0.785-0.784m0.046 0c0 0.407 0.33 0.739 0.739 0.739 0.407 0 0.738-0.332 0.738-0.739 0-0.409-0.331-0.74-0.738-0.739-0.409 0-0.739 0.33-0.739 0.739" fill="url(#v)"/>
      </g>
     </g>
    </g>
   </g>
  </g>
  <g id="hc" transform="matrix(.35278 0 0 -.35278 30.587 158.49)">
   <g id="hd">
    <g id="he">
     <g id="hf">
      <g id="hg" clip-path="url(#bf)">
       <path id="hh" d="m232.71 115.22c0-0.577 0.468-1.045 1.045-1.045 0.576 0 1.043 0.468 1.043 1.045 0 0.576-0.467 1.044-1.043 1.044-0.577 0-1.045-0.468-1.045-1.044m0.046 0c0 0.55 0.447 0.998 0.999 0.998 0.551 0 0.998-0.448 0.998-0.998 0-0.552-0.447-0.999-0.998-0.999-0.552 0-0.999 0.447-0.999 0.999" fill="url(#u)"/>
      </g>
     </g>
    </g>
   </g>
  </g>
  <g id="hi" transform="matrix(.35278 0 0 -.35278 30.587 158.49)">
   <g id="hj" clip-path="url(#be)">
    <g id="hk" transform="translate(230.06 115.57)">
     <path id="hl" d="m0 0v0.754l0.046-0.045v-0.663l-0.046-0.046" fill="#3f4040"/>
    </g>
    <g id="hm" transform="translate(230.06 116.32)">
     <path id="hn" d="m0 0 0.046-0.046h0.539v0.046z" fill="#3f4040"/>
    </g>
   </g>
  </g>
  <g id="ho" transform="matrix(.35278 0 0 -.35278 30.587 158.49)">
   <g id="hp">
    <g id="hq">
     <g id="hr">
      <g id="hs" clip-path="url(#bd)">
       <path id="ht" d="m230.65 116.28c0.157 0 0.28-0.155 0.28-0.331s-0.123-0.331-0.28-0.331h-0.539l-0.046-0.046h0.585c0.186 0 0.326 0.178 0.326 0.377 0 0.198-0.14 0.376-0.326 0.377z" fill="url(#t)"/>
      </g>
     </g>
    </g>
   </g>
  </g>
  <g id="hu" transform="matrix(.35278 0 0 -.35278 30.587 158.49)">
   <g id="hv">
    <g id="hw">
     <g id="hx">
      <g id="hy" clip-path="url(#bc)">
       <path id="hz" d="m229.09 113.23 0.046 0.046v3.831l-0.046 0.046z" fill="url(#s)"/>
      </g>
     </g>
    </g>
   </g>
  </g>
  <g id="ia" transform="matrix(.35278 0 0 -.35278 30.587 158.49)">
   <g id="ib">
    <g id="ic">
     <g id="id">
      <g id="ie" clip-path="url(#bb)">
       <path id="if" d="m229.09 117.15 0.045-0.046h1.772c0.538 0 1.002-0.556 1-1.249 0.026 0.125 0.046 0.227 0.046 0.227 2e-3 0.489-0.481 1.067-1.046 1.068z" fill="url(#r)"/>
      </g>
     </g>
    </g>
   </g>
  </g>
  <g id="ig" transform="matrix(.35278 0 0 -.35278 30.587 158.49)">
   <g id="ih">
    <g id="ii">
     <g id="ij">
      <g id="ik" clip-path="url(#ba)">
       <path id="il" d="m231.95 116.08s-0.02-0.102-0.046-0.227c0.223 0.526 0.771 1.314 1.842 1.314 0.538 0 1.025-0.213 1.378-0.563 0.352-0.35 0.57-0.837 0.57-1.385 1e-3 -0.538-0.218-1.029-0.57-1.386-0.353-0.359-0.84-0.582-1.376-0.582-1.072 0-1.602 0.782-1.841 1.272 0.025-0.109 0.046-0.198 0.046-0.198 0.156-0.32 0.697-1.12 1.795-1.12 0.549 0 1.047 0.229 1.408 0.595s0.584 0.869 0.584 1.419c0 0.56-0.223 1.059-0.584 1.417s-0.859 0.577-1.41 0.577c-1.096 0-1.657-0.807-1.796-1.133" fill="url(#q)"/>
      </g>
     </g>
    </g>
   </g>
  </g>
  <g id="im" transform="matrix(.35278 0 0 -.35278 30.587 158.49)">
   <g id="in">
    <g id="io">
     <g id="ip">
      <g id="iq" clip-path="url(#az)">
       <path id="ir" d="m227.8 117.15h1.066z" fill="url(#p)"/>
      </g>
     </g>
    </g>
   </g>
  </g>
  <g id="is" transform="matrix(.35278 0 0 -.35278 30.587 158.49)">
   <g id="it">
    <g id="iu">
     <g id="iv">
      <g id="iw" clip-path="url(#ay)">
       <path id="ix" d="m226.01 117.15h1.098z" fill="url(#o)"/>
      </g>
     </g>
    </g>
   </g>
  </g>
  <g id="iy" transform="matrix(.35278 0 0 -.35278 30.587 158.49)">
   <g id="iz" clip-path="url(#ax)">
    <g id="ja" transform="translate(227.07 113.27)">
     <path id="jb" d="m0 0h-1.002c-0.026-0.025-0.046-0.046-0.046-0.046h1.094l-0.046 0.046" fill="#3f4040"/>
    </g>
    <g id="jc" transform="translate(228.82 113.27)">
     <path id="jd" d="m0 0h-0.974l-0.046-0.046h1.066z" fill="#3f4040"/>
    </g>
    <g id="je" transform="translate(227.07 114.8)">
     <path id="jf" d="m0 0v-1.522l0.046-0.046v1.522l-0.046 0.046" fill="#3f4040"/>
    </g>
    <g id="jg" transform="translate(227.07 114.8)">
     <path id="jh" d="m0 0 0.046-0.046h0.691l0.046 0.046z" fill="#3f4040"/>
    </g>
   </g>
  </g>
  <g id="ji" transform="matrix(.35278 0 0 -.35278 30.587 158.49)">
   <g id="jj">
    <g id="jk">
     <g id="jl">
      <g id="jm" clip-path="url(#aw)">
       <path id="jn" d="m227.8 114.75v-1.522l0.045 0.045v1.523z" fill="url(#n)"/>
      </g>
     </g>
    </g>
   </g>
  </g>
  <g id="jo" transform="matrix(.35278 0 0 -.35278 30.587 158.49)">
   <g id="jp">
    <g id="jq">
     <g id="jr">
      <g id="js" clip-path="url(#av)">
       <path id="jt" d="m227.11 115.69-0.046-0.046h0.783c-0.025 0.026-0.045 0.046-0.045 0.046z" fill="url(#m)"/>
      </g>
     </g>
    </g>
   </g>
  </g>
  <g id="ju" transform="matrix(.35278 0 0 -.35278 30.587 158.49)">
   <g id="jv">
    <g id="jw">
     <g id="jx">
      <g id="jy" clip-path="url(#au)">
       <path id="jz" d="m226.01 117.15 0.046-0.046h1.006l0.046 0.046z" fill="url(#l)"/>
      </g>
     </g>
    </g>
   </g>
  </g>
  <g id="ka" transform="matrix(.35278 0 0 -.35278 30.587 158.49)">
   <g id="kb" clip-path="url(#at)">
    <g id="kc" transform="translate(227.07 115.65)">
     <path id="kd" d="M 0,0 V 1.459 C 0.025,1.485 0.046,1.505 0.046,1.505 V 0.046 L 0,0" fill="#6b6d6b"/>
    </g>
   </g>
  </g>
  <g id="ke" transform="matrix(.35278 0 0 -.35278 30.587 158.49)">
   <g id="kf">
    <g id="kg">
     <g id="kh">
      <g id="ki" clip-path="url(#as)">
       <path id="kj" d="m226.01 117.15 4e-3 -3.923s0.021 0.021 0.046 0.045l-4e-3 3.832z" fill="url(#k)"/>
      </g>
     </g>
    </g>
   </g>
  </g>
  <g id="kk" transform="matrix(.35278 0 0 -.35278 30.587 158.49)">
   <g id="kl" clip-path="url(#ar)">
    <g id="km" transform="translate(228.82 113.27)">
     <path id="kn" d="m0 0v3.832l0.046 0.046v-3.924l-0.046 0.046" fill="#6b6d6b"/>
    </g>
   </g>
  </g>
  <g id="ko" transform="matrix(.35278 0 0 -.35278 30.587 158.49)">
   <g id="kp">
    <g id="kq">
     <g id="kr">
      <g id="ks" clip-path="url(#aq)">
       <path id="kt" d="m227.8 117.15s0.02-0.02 0.045-0.046h0.975l0.045 0.046z" fill="url(#j)"/>
      </g>
     </g>
    </g>
   </g>
  </g>
  <g id="ku" transform="matrix(.35278 0 0 -.35278 30.587 158.49)">
   <g id="kv">
    <g id="kw">
     <g id="kx">
      <g id="ky" clip-path="url(#ap)">
       <path id="kz" d="m227.8 117.15v-1.459s0.02-0.02 0.045-0.046v1.459c-0.024 0.025-0.044 0.045-0.045 0.046z" fill="url(#i)"/>
      </g>
     </g>
    </g>
   </g>
  </g>
  <g id="la" transform="matrix(.35278 0 0 -.35278 30.587 158.49)">
   <g id="lb" clip-path="url(#ao)">
    <g id="lc" transform="translate(236.62 113.21)">
     <path id="ld" d="m0 0-0.026 0.026s0 1e-3 -1e-3 1e-3l-1e-3 1e-3c0 1e-3 -1e-3 1e-3 -1e-3 1e-3l-6e-3 6e-3s0 1e-3 -1e-3 1e-3c0 1e-3 -1e-3 1e-3 -1e-3 1e-3 -1e-3 0-1e-3 1e-3 -1e-3 1e-3h-0.07v-1e-3c-1e-3 0-1e-3 0-2e-3 -1e-3l-6e-3 -6e-3s0-1e-3 -1e-3 -1e-3c0 0-1e-3 0-1e-3 -1e-3l-6e-3 -6e-3c-1e-3 -1e-3 -2e-3 -2e-3 -2e-3 -3e-3 -2e-3 -1e-3 -3e-3 -2e-3 -4e-3 -3e-3 -2e-3 -3e-3 -4e-3 -4e-3 -6e-3 -6e-3l-0.018-0.018h0.162l-8e-3 8e-3" fill="#3f4040"/>
    </g>
   </g>
  </g>
  <g id="le" transform="matrix(.35278 0 0 -.35278 30.587 158.49)">
   <g id="lf">
    <g id="lg">
     <g id="lh">
      <g id="li" clip-path="url(#an)">
       <path id="lj" d="m236.47 113.2c1e-3 1e-3 9e-3 0.01 0.022 0.022 0 1e-3 1e-3 1e-3 2e-3 2e-3l4e-3 4e-3c0 1e-3 1e-3 1e-3 1e-3 1e-3l1e-3 1e-3c0 1e-3 0 1e-3 1e-3 1e-3 0 0 0 1e-3 1e-3 1e-3l8e-3 8e-3c0 1e-3 0 1e-3 1e-3 1e-3v1e-3h1e-3v1e-3h1e-3v1e-3h1e-3v1e-3h1e-3v1e-3h1e-3v3.959l-1e-3 1e-3v1e-3h-1e-3c0 1e-3 0 1e-3 -1e-3 1e-3h-1e-3v1e-3h-1e-3l-1e-3 1e-3v1e-3l-7e-3 7e-3h-1e-3c-1e-3 0-1e-3 1e-3 -1e-3 1e-3 -1e-3 1e-3 -1e-3 1e-3 -1e-3 2e-3 0 0 0 1e-3 -1e-3 1e-3l-5e-3 5e-3c-1e-3 0-2e-3 1e-3 -2e-3 1e-3 -1e-3 1e-3 -1e-3 2e-3 -1e-3 2e-3l-5e-3 5e-3 -2e-3 1e-3c-1e-3 1e-3 -2e-3 2e-3 -2e-3 3e-3 -1e-3 1e-3 -3e-3 2e-3 -3e-3 3e-3 -2e-3 2e-3 -2e-3 2e-3 -4e-3 3e-3 0 1e-3 -1e-3 2e-3 -2e-3 3e-3l-3e-3 3e-3z" fill="url(#h)"/>
      </g>
     </g>
    </g>
   </g>
  </g>
  <g id="lk" transform="matrix(.35278 0 0 -.35278 30.587 158.49)">
   <g id="ll" clip-path="url(#am)">
    <g id="lm" transform="translate(236.47 117.25)">
     <path id="ln" d="m0 0h1e-3c0-1e-3 1e-3 -2e-3 2e-3 -3e-3l3e-3 -3e-3c1e-3 -1e-3 2e-3 -2e-3 4e-3 -3e-3 1e-3 -2e-3 2e-3 -3e-3 3e-3 -4e-3l8e-3 -8e-3s1e-3 -1e-3 2e-3 -1e-3l1e-3 -2e-3 0.013-0.013c1e-3 0 1e-3 -1e-3 2e-3 -2e-3l1e-3 -1e-3c1e-3 0 1e-3 -1e-3 1e-3 -1e-3 1e-3 0 1e-3 -1e-3 1e-3 -1e-3s1e-3 0 1e-3 -1e-3h1e-3v-1e-3l1e-3 -1e-3s1e-3 0 1e-3 -1e-3h0.071v1e-3h1e-3v1e-3h1e-3v1e-3h1e-3v1e-3c1e-3 0 1e-3 1e-3 1e-3 1e-3l1e-3 1e-3h1e-3v1e-3h1e-3c0 1e-3 1e-3 2e-3 1e-3 2e-3 1e-3 1e-3 2e-3 2e-3 3e-3 2e-3 0 1e-3 1e-3 1e-3 1e-3 2e-3 0 0 1e-3 0 1e-3 1e-3 1e-3 0 1e-3 1e-3 1e-3 1e-3 1e-3 0 1e-3 1e-3 2e-3 1e-3 0 1e-3 0 1e-3 1e-3 2e-3l1e-3 1e-3c1e-3 1e-3 1e-3 1e-3 2e-3 1e-3l1e-3 2e-3c1e-3 0 1e-3 1e-3 2e-3 2e-3 0 0 1e-3 1e-3 2e-3 1e-3 0 1e-3 1e-3 2e-3 2e-3 3e-3l2e-3 2e-3c1e-3 1e-3 3e-3 2e-3 3e-3 3e-3 2e-3 1e-3 3e-3 2e-3 4e-3 4e-3l3e-3 3e-3 4e-3 3e-3c1e-3 1e-3 2e-3 2e-3 2e-3 3e-3z" fill="#f3f2f0"/>
    </g>
    <g id="lo" transform="translate(236.59 117.21)">
     <path id="lp" d="m0 0-3e-3 -3e-3v-3.959l0.046-0.046v4.051l-0.043-0.043" fill="#6b6d6b"/>
    </g>
   </g>
  </g>
  <g id="lq" transform="matrix(.35278 0 0 -.35278 30.587 158.49)">
   <g id="lr">
    <g id="ls">
     <g id="lt">
      <g id="lu" clip-path="url(#al)">
       <path id="lv" d="m236.51 113.25h0.07v3.959h-0.07z" fill="url(#g)"/>
      </g>
     </g>
    </g>
   </g>
  </g>
  <g id="lw" transform="matrix(.35278 0 0 -.35278 30.587 158.49)">
   <g id="lx" clip-path="url(#ak)">
    <g id="ly" transform="translate(237.73 114.06)">
     <path id="lz" d="m0 0-0.024 0.024c-1e-3 0-1e-3 1e-3 -2e-3 2e-3 0 0-1e-3 0-1e-3 1e-3l-3e-3 3e-3c-2e-3 1e-3 -3e-3 3e-3 -5e-3 5e-3 0 0-1e-3 0-1e-3 1e-3l-1e-3 1e-3c-1e-3 0-1e-3 1e-3 -1e-3 1e-3h-0.248v-1e-3c-1e-3 0-1e-3 -1e-3 -2e-3 -1e-3 0-1e-3 0-1e-3 -1e-3 -1e-3 -2e-3 -2e-3 -3e-3 -4e-3 -5e-3 -5e-3 0 0 0-1e-3 -1e-3 -1e-3 0 0 0-1e-3 -1e-3 -1e-3 0 0 0-1e-3 -1e-3 -1e-3l-3e-3 -3e-3c0-1e-3 -1e-3 -1e-3 -2e-3 -2e-3l-2e-3 -3e-3 -4e-3 -3e-3c-2e-3 -3e-3 -4e-3 -4e-3 -6e-3 -6e-3l-0.018-0.018h0.34l-8e-3 8e-3" fill="#00577e"/>
    </g>
    <g id="ma" transform="translate(240.07 114.06)">
     <path id="mb" d="m0 0-0.026 0.026s-1e-3 0-1e-3 1e-3l-3e-3 3e-3c-2e-3 1e-3 -3e-3 3e-3 -5e-3 5e-3 0 0-1e-3 0-1e-3 1e-3l-2e-3 2e-3h-0.248v-1e-3l-2e-3 -1e-3c0-1e-3 0-1e-3 -1e-3 -1e-3 -2e-3 -2e-3 -3e-3 -4e-3 -5e-3 -5e-3 0 0 0-1e-3 -1e-3 -1e-3 0 0 0-1e-3 -1e-3 -1e-3 0 0 0-1e-3 -1e-3 -1e-3 0-1e-3 0-1e-3 -1e-3 -1e-3 0-1e-3 -1e-3 -2e-3 -2e-3 -2e-3 0-1e-3 -1e-3 -1e-3 -2e-3 -2e-3s-1e-3 -2e-3 -2e-3 -3e-3 -3e-3 -2e-3 -4e-3 -3e-3c-2e-3 -3e-3 -4e-3 -4e-3 -6e-3 -6e-3l-0.018-0.018h0.34l-8e-3 8e-3" fill="#00577e"/>
    </g>
    <g id="mc" transform="translate(237.69 114.1)">
     <path id="md" d="m0 0v1.031l0.046-0.046v-1.031l-0.043 0.043" fill="#00577e"/>
    </g>
    <g id="me" transform="translate(237.69 115.13)">
     <path id="mf" d="m0 0 2e-3 -2e-3c2e-3 -2e-3 4e-3 -4e-3 7e-3 -6e-3 0-1e-3 0-1e-3 1e-3 -2e-3l2e-3 -2e-3 2e-3 -1e-3c0-1e-3 1e-3 -2e-3 2e-3 -3e-3l0.03-0.03h1.998s0.012 0.013 0.03 0.03c0 1e-3 1e-3 2e-3 2e-3 3e-3l1e-3 1e-3c4e-3 3e-3 7e-3 7e-3 0.011 0.01l1e-3 2e-3z" fill="#00577e"/>
    </g>
   </g>
  </g>
  <g id="mg" transform="matrix(.35278 0 0 -.35278 30.587 158.49)">
   <g id="mh">
    <g id="mi">
     <g id="mj">
      <g id="mk" clip-path="url(#aj)">
       <path id="ml" d="m239.78 115.13v-1e-3h-1e-3v-1e-3h-1e-3v-1e-3h-1e-3v-1e-3h-1e-3v-1e-3h-1e-3v-1e-3h-1e-3c0-1e-3 0-1e-3 -1e-3 -1e-3v-1e-3c-2e-3 0-2e-3 -1e-3 -4e-3 -3e-3 0 0 0-1e-3 -1e-3 -1e-3l-1e-3 -1e-3c-1e-3 -1e-3 -1e-3 -1e-3 -1e-3 -2e-3l-2e-3 -1e-3 -1e-3 -1e-3s-1e-3 0-1e-3 -1e-3l-2e-3 -2e-3c0-1e-3 -1e-3 -1e-3 -1e-3 -2e-3l-2e-3 -2e-3 -2e-3 -1e-3 -7e-3 -7e-3c0-1e-3 -1e-3 -2e-3 -2e-3 -3e-3l-2e-3 -2e-3c-2e-3 -1e-3 -2e-3 -2e-3 -3e-3 -3e-3 -2e-3 -1e-3 -3e-3 -2e-3 -3e-3 -3e-3 -1e-3 -1e-3 -2e-3 -1e-3 -2e-3 -1e-3 0-1e-3 -1e-3 -1e-3 -1e-3 -1e-3v-1.031l0.022 0.022 2e-3 1e-3 3e-3 4e-3c0 1e-3 1e-3 1e-3 1e-3 2e-3l1e-3 1e-3c1e-3 0 1e-3 1e-3 2e-3 1e-3 0 1e-3 0 1e-3 1e-3 1e-3l6e-3 7e-3c1e-3 0 1e-3 0 1e-3 1e-3h1e-3v1e-3h1e-3v1e-3h2e-3v1e-3h1e-3v1e-3h1e-3v1e-3h1e-3v1.031z" fill="url(#f)"/>
      </g>
     </g>
    </g>
   </g>
  </g>
  <g id="mm" transform="matrix(.35278 0 0 -.35278 30.587 158.49)">
   <g id="mn">
    <g id="mo">
     <g id="mp">
      <g id="mq" clip-path="url(#ai)">
       <path id="mr" d="m237.74 115.4v-1e-3l-0.013-0.013c-1e-3 -1e-3 -2e-3 -2e-3 -3e-3 -2e-3l-2e-3 -3e-3c-1e-3 -1e-3 -2e-3 -1e-3 -2e-3 -2e-3 -1e-3 -1e-3 -2e-3 -2e-3 -3e-3 -2e-3 -1e-3 -2e-3 -3e-3 -3e-3 -4e-3 -4e-3l-1e-3 -2e-3c-1e-3 0-1e-3 -1e-3 -2e-3 -1e-3l-1e-3 -2e-3 -1e-3 -1e-3c-1e-3 0-1e-3 -1e-3 -2e-3 -1e-3 0 0-1e-3 0-1e-3 -1e-3l-2e-3 -2e-3c0-1e-3 -1e-3 -2e-3 -2e-3 -2e-3v-1e-3c-1e-3 0-1e-3 -1e-3 -2e-3 -1e-3v-1e-3h-1e-3v-1e-3h-1e-3v-1e-3h-1e-3v-1e-3h-1e-3v-1e-3h2.089l-1e-3 1e-3c-1e-3 0-1e-3 0-1e-3 1e-3h-1e-3c-1e-3 0-1e-3 0-1e-3 1e-3 -1e-3 0-1e-3 0-1e-3 1e-3h-1e-3v1e-3c-1e-3 0-1e-3 1e-3 -2e-3 1e-3v1e-3c-1e-3 0-2e-3 1e-3 -2e-3 2e-3s-1e-3 1e-3 -2e-3 2e-3c0 1e-3 0 1e-3 -1e-3 1e-3s-1e-3 1e-3 -1e-3 1e-3c-1e-3 0-1e-3 1e-3 -2e-3 1e-3 0 1e-3 -1e-3 1e-3 -1e-3 2e-3 -1e-3 0-1e-3 1e-3 -1e-3 1e-3 -1e-3 0-1e-3 1e-3 -1e-3 2e-3 -2e-3 1e-3 -3e-3 2e-3 -5e-3 4e-3l-2e-3 2e-3c-1e-3 1e-3 -2e-3 1e-3 -2e-3 2e-3l-3e-3 3e-3c-1e-3 0-2e-3 1e-3 -3e-3 2e-3l-0.012 0.013v1e-3z" fill="url(#e)"/>
      </g>
     </g>
    </g>
   </g>
  </g>
  <g id="ms" transform="matrix(.35278 0 0 -.35278 30.587 158.49)">
   <g id="mt" clip-path="url(#ah)">
    <g id="mu" transform="translate(237.74 116.4)">
     <path id="mv" d="m0 0-0.041-0.041s-1e-3 0-1e-3 -1e-3v-1.001c0 1e-3 1e-3 1e-3 1e-3 1e-3l2e-3 2e-3c0.023 0.024 0.043 0.043 0.043 0.043v1.001s-2e-3 -1e-3 -4e-3 -4e-3" fill="#00577e"/>
    </g>
    <g id="mw" transform="translate(237.4 116.4)">
     <path id="mx" d="m0 0 0.016-0.016c1e-3 -1e-3 2e-3 -1e-3 2e-3 -2e-3l3e-3 -3e-3s1e-3 -1e-3 1e-3 -2e-3l2e-3 -1e-3 3e-3 -3e-3c1e-3 0 1e-3 -1e-3 1e-3 -1e-3 1e-3 -1e-3 2e-3 -2e-3 4e-3 -3e-3v-1e-3c1e-3 0 1e-3 -1e-3 1e-3 -1e-3l9e-3 -9e-3c0-1e-3 1e-3 -1e-3 1e-3 -1e-3h1e-3v-1e-3h1e-3v-1e-3h1e-3v-1e-3h0.249v1e-3l1e-3 1e-3v1e-3h2e-3v1e-3c1e-3 0 1e-3 1e-3 2e-3 2e-3l3e-3 3e-3h1e-3c0 1e-3 1e-3 2e-3 1e-3 2e-3l2e-3 2e-3s0 1e-3 1e-3 1e-3l9e-3 9e-3c1e-3 1e-3 2e-3 2e-3 3e-3 2e-3 0 1e-3 1e-3 2e-3 2e-3 3e-3l5e-3 5e-3c1e-3 1e-3 2e-3 2e-3 4e-3 3e-3 1e-3 2e-3 2e-3 3e-3 3e-3 4e-3l3e-3 3e-3c1e-3 1e-3 2e-3 2e-3 2e-3 3e-3h1e-3z" fill="#00b9e9"/>
    </g>
    <g id="my" transform="translate(239.78 116.36)">
     <path id="mz" d="m0 0v1e-3h-1e-3v1e-3h-1e-3v1e-3h-1e-3v1e-3h-1e-3v1e-3h-1e-3s0 1e-3 -1e-3 1e-3v1e-3h-1e-3c-1e-3 1e-3 -1e-3 2e-3 -2e-3 2e-3 -2e-3 2e-3 -3e-3 4e-3 -5e-3 5e-3l-2e-3 2e-3c-0.011 0.012-0.021 0.021-0.026 0.026v1e-3l-3e-3 3e-3h-1e-3v-1.001c1e-3 -1e-3 1e-3 -1e-3 2e-3 -1e-3l2e-3 -3e-3 0.013-0.013c1e-3 0 2e-3 -1e-3 2e-3 -2e-3l2e-3 -2e-3c1e-3 0 1e-3 -1e-3 2e-3 -2e-3l3e-3 -3e-3s1e-3 0 1e-3 -1e-3l1e-3 -1e-3c1e-3 0 1e-3 -1e-3 1e-3 -1e-3l1e-3 -1e-3c1e-3 -1e-3 1e-3 -1e-3 2e-3 -1e-3 0-1e-3 0-1e-3 1e-3 -1e-3 0-1e-3 1e-3 -1e-3 1e-3 -2e-3l1e-3 -1e-3c1e-3 -1e-3 3e-3 -2e-3 4e-3 -4e-3h1e-3v-1e-3c1e-3 0 1e-3 0 1e-3 -1e-3h1e-3v-1e-3h1e-3v-1e-3h1e-3v-1e-3h1e-3v-1e-3h1e-3v-1e-3 1.001" fill="#00a8e2"/>
    </g>
    <g id="na" transform="translate(239.74 116.4)">
     <path id="nb" d="m0 0 6e-3 -6e-3c1e-3 -1e-3 2e-3 -2e-3 3e-3 -4e-3 2e-3 -1e-3 3e-3 -2e-3 4e-3 -3e-3l8e-3 -8e-3 1e-3 -2e-3c1e-3 0 2e-3 -1e-3 2e-3 -1e-3l8e-3 -8e-3c1e-3 0 1e-3 -1e-3 1e-3 -1e-3l2e-3 -2e-3s1e-3 -1e-3 1e-3 -2e-3h1e-3l3e-3 -3e-3c1e-3 -1e-3 1e-3 -2e-3 2e-3 -2e-3v-1e-3h2e-3v-1e-3l1e-3 -1e-3s0-1e-3 1e-3 -1e-3h0.248v1e-3h1e-3v1e-3h1e-3v1e-3h1e-3v1e-3h1e-3s1e-3 1e-3 1e-3 2e-3h1e-3l7e-3 7e-3s0 1e-3 1e-3 1e-3v1e-3l3e-3 3e-3c1e-3 0 1e-3 1e-3 2e-3 1e-3l1e-3 1e-3c0 1e-3 1e-3 1e-3 2e-3 2e-3l3e-3 3e-3c1e-3 1e-3 2e-3 2e-3 2e-3 3e-3 1e-3 1e-3 2e-3 1e-3 3e-3 2e-3l0.01 0.01c1e-3 1e-3 1e-3 2e-3 2e-3 2e-3l1e-3 1e-3c1e-3 1e-3 2e-3 2e-3 2e-3 3e-3h1e-3z" fill="#00a8e2"/>
    </g>
    <g id="nc" transform="translate(240.07 116.4)">
     <path id="nd" d="m0 0-0.039-0.039c-1e-3 -1e-3 -1e-3 -1e-3 -1e-3 -2e-3 -1e-3 0-1e-3 0-2e-3 -1e-3v-2.254l0.046-0.046v2.346s-2e-3 -1e-3 -4e-3 -4e-3" fill="#00577e"/>
    </g>
    <g id="ne" transform="translate(237.44 116.36)">
     <path id="nf" d="m0 0v1e-3h-1e-3v1e-3h-1e-3c0 1e-3 0 1e-3 -1e-3 1e-3h-1e-3v1e-3l-2e-3 2e-3v1e-3h-1e-3l-2e-3 2e-3c-2e-3 2e-3 -3e-3 4e-3 -5e-3 5e-3l-0.029 0.029s-1e-3 1e-3 -1e-3 2e-3l-2e-3 1e-3v-2.346l0.023 0.022c0 1e-3 1e-3 2e-3 1e-3 2e-3l4e-3 4e-3s1e-3 0 1e-3 1e-3c1e-3 0 1e-3 1e-3 1e-3 1e-3 1e-3 1e-3 1e-3 1e-3 2e-3 1e-3 0 1e-3 0 1e-3 1e-3 1e-3l7e-3 7e-3v1e-3l2e-3 2e-3v1e-3h2e-3v1e-3l1e-3 1e-3h1e-3v2.255" fill="#00a8e2"/>
    </g>
   </g>
  </g>
  <g id="ng" transform="matrix(.35278 0 0 -.35278 30.587 158.49)">
   <g id="nh">
    <g id="ni">
     <g id="nj">
      <g id="nk" clip-path="url(#ag)">
       <path id="nl" d="m239.78 116.36v-1.001h-2.09v1.001h-0.249v-2.255h0.249v1.031h2.09v-1.031h0.248v2.255z" fill="url(#d)"/>
      </g>
     </g>
    </g>
   </g>
  </g>
  <g id="nm" transform="matrix(.35278 0 0 -.35278 30.587 158.49)">
   <g id="nn" clip-path="url(#af)">
    <g id="no" transform="translate(240.88 116.15)">
     <path id="np" d="m0 0-0.015 0.015c0 1e-3 -1e-3 1e-3 -1e-3 1e-3l-1e-3 1e-3c0 1e-3 -1e-3 1e-3 -1e-3 1e-3v-1.868s1e-3 0 1e-3 1e-3l2e-3 2e-3c2e-3 2e-3 4e-3 4e-3 7e-3 6e-3 3e-3 4e-3 7e-3 8e-3 0.01 0.011l0.026 0.026v1.776l-0.028 0.028" fill="#00577e"/>
    </g>
   </g>
  </g>
  <g id="nq" transform="matrix(.35278 0 0 -.35278 30.587 158.49)">
   <g id="nr">
    <g id="ns">
     <g id="nt">
      <g id="nu" clip-path="url(#ae)">
       <path id="nv" d="m242.54 116.17h-1.677c6e-3 -7e-3 0.012-0.012 0.018-0.018 1e-3 -1e-3 2e-3 -2e-3 3e-3 -4e-3 3e-3 -2e-3 5e-3 -5e-3 7e-3 -6e-3l0.014-0.014c2e-3 -3e-3 4e-3 -4e-3 4e-3 -4e-3h1.674c2e-3 -1e-3 6e-3 -1e-3 9e-3 -1e-3 0.01-1e-3 0.019-1e-3 0.027-2e-3 4e-3 -1e-3 9e-3 -1e-3 0.012-1e-3h1e-3c0.01-2e-3 0.02-3e-3 0.03-4e-3 3e-3 0 8e-3 -1e-3 0.011-2e-3 9e-3 -1e-3 0.018-3e-3 0.026-5e-3 2e-3 0 4e-3 -1e-3 7e-3 -1e-3 2e-3 -1e-3 4e-3 -1e-3 6e-3 -1e-3 8e-3 -2e-3 0.016-4e-3 0.024-7e-3 3e-3 -1e-3 8e-3 -2e-3 0.01-2e-3 9e-3 -3e-3 0.018-6e-3 0.026-9e-3h2e-3c3e-3 -1e-3 6e-3 -2e-3 8e-3 -3e-3 9e-3 -4e-3 0.018-7e-3 0.026-0.011 2e-3 -1e-3 4e-3 -2e-3 7e-3 -3e-3 7e-3 -3e-3 0.014-7e-3 0.021-0.01 5e-3 -3e-3 0.01-6e-3 0.016-9e-3 1e-3 0 2e-3 -1e-3 2e-3 -2e-3 0.029-0.017 0.055-0.037 0.079-0.061 1e-3 -1e-3 1e-3 -2e-3 2e-3 -3e-3 4e-3 -5e-3 8e-3 -9e-3 0.013-0.015l9e-3 -9e-3c3e-3 -4e-3 5e-3 -8e-3 8e-3 -0.01 3e-3 -5e-3 6e-3 -8e-3 8e-3 -0.012 3e-3 -4e-3 6e-3 -7e-3 7e-3 -0.011 3e-3 -4e-3 6e-3 -8e-3 8e-3 -0.012 2e-3 -2e-3 4e-3 -5e-3 6e-3 -8e-3 1e-3 -2e-3 3e-3 -5e-3 4e-3 -8e-3 1e-3 -2e-3 3e-3 -5e-3 5e-3 -8e-3 1e-3 -3e-3 3e-3 -6e-3 4e-3 -9e-3 1e-3 -2e-3 3e-3 -4e-3 4e-3 -6e-3 2e-3 -3e-3 3e-3 -7e-3 5e-3 -0.01 0-3e-3 2e-3 -6e-3 3e-3 -9e-3 2e-3 -2e-3 3e-3 -5e-3 4e-3 -6e-3 1e-3 -4e-3 2e-3 -8e-3 4e-3 -0.012 1e-3 -3e-3 3e-3 -5e-3 4e-3 -8e-3 1e-3 -2e-3 2e-3 -5e-3 2e-3 -7e-3 2e-3 -4e-3 3e-3 -9e-3 5e-3 -0.013 1e-3 -4e-3 3e-3 -6e-3 4e-3 -9e-3v-4e-3c1e-3 -1e-3 1e-3 -2e-3 2e-3 -3e-3 0-3e-3 1e-3 -5e-3 2e-3 -6e-3 2e-3 -8e-3 4e-3 -0.015 6e-3 -0.022v-2e-3c2e-3 -4e-3 3e-3 -8e-3 4e-3 -0.012 2e-3 -7e-3 4e-3 -0.014 5e-3 -0.021l3e-3 -0.015v-1e-3c2e-3 -6e-3 3e-3 -0.013 4e-3 -0.02 0 0 1e-3 0 1e-3 -1e-3 1e-3 -4e-3 1e-3 -8e-3 1e-3 -0.012 0-1e-3 1e-3 -2e-3 1e-3 -3e-3 1e-3 -8e-3 2e-3 -0.015 4e-3 -0.022v-4e-3c1e-3 -7e-3 2e-3 -0.014 3e-3 -0.022 0-5e-3 0-9e-3 1e-3 -0.014 0-4e-3 1e-3 -0.01 1e-3 -0.014 1e-3 -5e-3 2e-3 -0.012 2e-3 -0.017v-4e-3c1e-3 -3e-3 1e-3 -6e-3 1e-3 -9e-3v-3e-3c1e-3 -2e-3 1e-3 -4e-3 1e-3 -7e-3 0-9e-3 1e-3 -0.018 1e-3 -0.027 0-1e-3 1e-3 -2e-3 1e-3 -3e-3v-0.016c1e-3 -0.015 1e-3 -0.03 1e-3 -0.046v-0.477c-5e-3 -6e-3 -1e-3 -0.017 0-0.025-1e-3 -5e-3 -1e-3 -0.01-1e-3 -0.015v-0.014c0-7e-3 -1e-3 -0.015-1e-3 -0.021v-4e-3c0-4e-3 -1e-3 -7e-3 -1e-3 -9e-3v-9e-3c-1e-3 -6e-3 -1e-3 -0.012-2e-3 -0.018 0-3e-3 0-7e-3 -1e-3 -9e-3v-7e-3c-1e-3 -1e-3 -1e-3 -2e-3 -1e-3 -4e-3 0-6e-3 -1e-3 -0.011-2e-3 -0.016v-0.015c-1e-3 -2e-3 -1e-3 -4e-3 -1e-3 -6e-3 -1e-3 -5e-3 -2e-3 -9e-3 -2e-3 -0.014-1e-3 -1e-3 -1e-3 -3e-3 -1e-3 -5e-3 0-1e-3 -1e-3 -2e-3 -1e-3 -3e-3 -2e-3 -0.011-3e-3 -0.02-5e-3 -0.031 0-3e-3 0-5e-3 -1e-3 -7e-3 0-2e-3 -1e-3 -5e-3 -1e-3 -7e-3 -3e-3 -9e-3 -5e-3 -0.019-6e-3 -0.028-1e-3 -1e-3 -1e-3 -2e-3 -1e-3 -4e-3 -2e-3 -5e-3 -3e-3 -0.01-4e-3 -0.015-2e-3 -7e-3 -4e-3 -0.013-6e-3 -0.019 0-3e-3 -1e-3 -6e-3 -2e-3 -8e-3s-1e-3 -4e-3 -2e-3 -5e-3c-3e-3 -9e-3 -5e-3 -0.017-8e-3 -0.025-1e-3 -2e-3 -2e-3 -5e-3 -3e-3 -7e-3s-1e-3 -3e-3 -1e-3 -5e-3c-3e-3 -7e-3 -6e-3 -0.013-9e-3 -0.02-2e-3 -6e-3 -5e-3 -0.012-8e-3 -0.018 0-1e-3 -1e-3 -3e-3 -2e-3 -5e-3 -0.023-0.045-0.05-0.084-0.081-0.116-2e-3 -2e-3 -3e-3 -4e-3 -4e-3 -5e-3 -4e-3 -4e-3 -9e-3 -8e-3 -0.013-0.011-4e-3 -4e-3 -8e-3 -8e-3 -0.012-0.011-5e-3 -4e-3 -8e-3 -7e-3 -0.013-0.01-4e-3 -4e-3 -9e-3 -7e-3 -0.013-0.01-5e-3 -4e-3 -9e-3 -6e-3 -0.014-9e-3 -5e-3 -4e-3 -0.01-7e-3 -0.015-0.01-1e-3 0-2e-3 -1e-3 -3e-3 -2e-3 -2e-3 -1e-3 -5e-3 -1e-3 -7e-3 -3e-3 -6e-3 -4e-3 -0.013-7e-3 -0.019-0.01-3e-3 -1e-3 -4e-3 -2e-3 -7e-3 -3e-3 -2e-3 -1e-3 -3e-3 -2e-3 -4e-3 -3e-3 -7e-3 -2e-3 -0.014-5e-3 -0.021-8e-3 -3e-3 -1e-3 -6e-3 -2e-3 -8e-3 -3e-3 -1e-3 0-1e-3 0-2e-3 -1e-3 -8e-3 -3e-3 -0.015-6e-3 -0.024-8e-3 -2e-3 0-3e-3 -1e-3 -5e-3 -1e-3 -1e-3 -1e-3 -2e-3 -1e-3 -3e-3 -1e-3 -2e-3 -1e-3 -6e-3 -2e-3 -0.01-3e-3 -1e-3 -1e-3 -4e-3 -2e-3 -7e-3 -2e-3 -2e-3 0-3e-3 0-4e-3 -1e-3 -3e-3 0-5e-3 -1e-3 -7e-3 -1e-3 -3e-3 -1e-3 -6e-3 -2e-3 -9e-3 -3e-3 -3e-3 0-6e-3 -1e-3 -8e-3 -2e-3h-2e-3c-3e-3 -1e-3 -6e-3 -2e-3 -9e-3 -2e-3 -4e-3 0-7e-3 0-0.01-1e-3s-6e-3 -2e-3 -8e-3 -2e-3c-4e-3 0-8e-3 -1e-3 -0.011-2e-3 -4e-3 0-7e-3 -1e-3 -0.011-1e-3 -3e-3 -1e-3 -5e-3 -1e-3 -7e-3 -1e-3 -5e-3 -1e-3 -8e-3 -1e-3 -0.013-2e-3h-0.011c-5e-3 0-8e-3 -1e-3 -0.013-1e-3 -7e-3 -1e-3 -0.014-1e-3 -0.022-2e-3h-0.01c-0.011-1e-3 -0.022-1e-3 -0.034-1e-3h-1.631s-3e-3 -3e-3 -9e-3 -7e-3c0-1e-3 0-2e-3 -1e-3 -2e-3 -1e-3 -2e-3 -2e-3 -3e-3 -3e-3 -4e-3s-3e-3 -2e-3 -4e-3 -2e-3c-1e-3 -1e-3 -1e-3 -2e-3 -2e-3 -3e-3 0-1e-3 -1e-3 -2e-3 -2e-3 -2e-3 -1e-3 -1e-3 -2e-3 -2e-3 -2e-3 -3e-3 -1e-3 0-2e-3 0-2e-3 -1e-3 -1e-3 0-1e-3 -1e-3 -2e-3 -1e-3v-2e-3c-1e-3 0-1e-3 -1e-3 -2e-3 -1e-3 -1e-3 -1e-3 -2e-3 -2e-3 -3e-3 -4e-3h-1e-3s-1e-3 0-1e-3 -1e-3h-1e-3c-2e-3 -3e-3 -5e-3 -6e-3 -8e-3 -9e-3 -1e-3 0-1e-3 -1e-3 -1e-3 -2e-3h-1e-3v-1e-3h1.676c0.13-1e-3 0.238 0.022 0.324 0.07 3e-3 2e-3 5e-3 3e-3 7e-3 4e-3 4e-3 1e-3 8e-3 4e-3 0.011 6e-3 7e-3 4e-3 0.013 8e-3 0.019 0.013 1e-3 0 2e-3 1e-3 2e-3 1e-3 7e-3 5e-3 0.014 0.01 0.022 0.015v1e-3c0.014 0.011 0.028 0.022 0.04 0.036l2e-3 2e-3c5e-3 5e-3 0.01 9e-3 0.014 0.015 0.042 0.047 0.074 0.102 0.098 0.17 1e-3 3e-3 2e-3 5e-3 3e-3 8e-3 2e-3 4e-3 4e-3 7e-3 5e-3 0.012 0.056 0.166 0.046 0.333 0.045 0.341v0.478c0 0.03 0 0.059-1e-3 0.087-1e-3 0.014-2e-3 0.027-4e-3 0.041-1e-3 0.013-2e-3 0.027-3e-3 0.039-9e-3 0.069-0.022 0.131-0.042 0.187-2e-3 6e-3 -4e-3 0.011-5e-3 0.017-1e-3 1e-3 -2e-3 3e-3 -2e-3 4e-3 -0.02 0.051-0.046 0.099-0.079 0.141-0.061 0.079-0.129 0.116-0.185 0.133-0.023 0.01-0.047 0.018-0.075 0.025-7e-3 2e-3 -0.015 3e-3 -0.023 4e-3 -2e-3 1e-3 -3e-3 1e-3 -4e-3 2e-3 -8e-3 1e-3 -0.017 3e-3 -0.025 4e-3 -0.044 8e-3 -0.091 0.011-0.141 0.011zm-1.677-1.867h1e-3z" fill="url(#c)"/>
      </g>
     </g>
    </g>
   </g>
  </g>
  <g id="nw" transform="matrix(.35278 0 0 -.35278 30.587 158.49)">
   <g id="nx" clip-path="url(#ad)">
    <g id="ny" transform="translate(240.58 116.37)">
     <path id="nz" d="m0 0-3e-3 3e-3c0 1e-3 -1e-3 1e-3 -1e-3 1e-3s-1e-3 0-1e-3 1e-3l-1e-3 1e-3v1e-3h-1e-3l-2e-3 2e-3c-1e-3 0-1e-3 1e-3 -2e-3 2e-3l-1e-3 1e-3c0 1e-3 -1e-3 1e-3 -1e-3 1e-3s0 1e-3 -1e-3 1e-3l-3e-3 3e-3v1e-3c-1e-3 0-1e-3 1e-3 -2e-3 1e-3l-8e-3 8e-3c0 1e-3 -1e-3 1e-3 -2e-3 2e-3s-2e-3 2e-3 -2e-3 3e-3h-1e-3l-8e-3 8e-3c-2e-3 2e-3 -3e-3 4e-3 -4e-3 4e-3l-1e-3 1e-3h-1e-3v-2.357h1e-3c0 1e-3 0 1e-3 1e-3 2e-3 1e-3 0 2e-3 2e-3 4e-3 3e-3v1e-3l6e-3 6e-3c1e-3 1e-3 2e-3 2e-3 3e-3 2e-3 0 1e-3 1e-3 2e-3 2e-3 3e-3 1e-3 0 2e-3 1e-3 2e-3 2e-3l8e-3 8e-3c1e-3 0 1e-3 1e-3 2e-3 1e-3v1e-3l3e-3 3e-3c1e-3 0 1e-3 1e-3 1e-3 1e-3l6e-3 6e-3h1e-3v1e-3h1e-3v1e-3h1e-3v1e-3s1e-3 0 1e-3 1e-3c0 0 1e-3 0 1e-3 1e-3h1e-3v1e-3c0 1e-3 1e-3 1e-3 1e-3 1e-3v2.266" fill="#00a8e2"/>
    </g>
   </g>
  </g>
  <g id="oa" transform="matrix(.35278 0 0 -.35278 30.587 158.49)">
   <g id="ob">
    <g id="oc">
     <g id="od">
      <g id="oe" clip-path="url(#ac)">
       <path id="of" d="m240.58 116.37v-2.266h1.993c0.658 2e-3 0.821 0.409 0.821 0.724v0.819c0 0.315-0.163 0.722-0.821 0.723zm0.282-0.199h1.677c0.396 0 0.594-0.216 0.592-0.695v-0.477c2e-3 -0.479-0.196-0.697-0.592-0.695h-1.677z" fill="url(#b)"/>
      </g>
     </g>
    </g>
   </g>
  </g>
  <g id="og" transform="matrix(.35278 0 0 -.35278 30.587 158.49)">
   <g id="oh">
    <g id="oi">
     <g id="oj">
      <g id="ok" clip-path="url(#ab)">
       <path id="ol" d="m242.62 116.41h-2.089c1e-3 -1e-3 2e-3 -1e-3 3e-3 -2e-3l1e-3 -1e-3c1e-3 -2e-3 4e-3 -4e-3 7e-3 -7e-3l4e-3 -4e-3c2e-3 -2e-3 3e-3 -4e-3 6e-3 -5e-3 0-1e-3 1e-3 -2e-3 2e-3 -3e-3 1e-3 -2e-3 3e-3 -4e-3 5e-3 -6e-3h1e-3c0-1e-3 0-1e-3 1e-3 -1e-3 0 0 1e-3 0 1e-3 -1e-3h1e-3c0-1e-3 0-2e-3 1e-3 -3e-3 1e-3 0 1e-3 -1e-3 1e-3 -1e-3 1e-3 -1e-3 2e-3 -2e-3 3e-3 -2e-3 0-1e-3 1e-3 -2e-3 2e-3 -2e-3h1e-3v-1e-3l1e-3 -1e-3v-1e-3h1e-3v-1e-3h1e-3v-2e-3h2e-3v-1e-3h2.001c0.146-3e-3 0.259-0.022 0.352-0.052 0.017-6e-3 0.034-0.012 0.053-0.02v-1e-3c0.062-0.027 0.116-0.064 0.178-0.107 0.015-0.012 0.031-0.026 0.045-0.039 0.035-0.037 0.065-0.076 0.089-0.117 0.052-0.092 0.095-0.216 0.097-0.386v-0.839c-2e-3 -0.069-0.011-0.141-0.03-0.21-2e-3 -4e-3 -3e-3 -7e-3 -4e-3 -0.011l-3e-3 -9e-3c-2e-3 -9e-3 -5e-3 -0.018-9e-3 -0.026 0-1e-3 0-2e-3 -1e-3 -2e-3 -0.018-0.05-0.04-0.094-0.065-0.134-1e-3 -1e-3 -2e-3 -2e-3 -3e-3 -4e-3 -3e-3 -6e-3 -8e-3 -0.011-0.012-0.016-0.054-0.078-0.131-0.147-0.239-0.199-0.114-0.055-0.262-0.089-0.453-0.094h-1.996l-8e-3 -8e-3s0-1e-3 -1e-3 -1e-3c-1e-3 -1e-3 -2e-3 -2e-3 -4e-3 -3e-3v-1e-3c0-1e-3 -1e-3 -1e-3 -2e-3 -2e-3 -0.012-0.012-0.022-0.022-0.026-0.027-3e-3 -2e-3 -4e-3 -3e-3 -4e-3 -3e-3h2.093s1e-3 0 2e-3 1e-3h0.018c2e-3 0 4e-3 1e-3 6e-3 1e-3h0.012c1e-3 1e-3 2e-3 1e-3 3e-3 1e-3h0.01c1e-3 0 3e-3 1e-3 4e-3 1e-3h7e-3c1e-3 0 3e-3 1e-3 5e-3 1e-3h8e-3c2e-3 1e-3 3e-3 1e-3 4e-3 1e-3h5e-3 -2e-3 8e-3c1e-3 0 2e-3 0 3e-3 1e-3h6e-3c2e-3 0 4e-3 0 5e-3 1e-3h4e-3c1e-3 0 2e-3 0 3e-3 1e-3h6e-3s1e-3 1e-3 3e-3 1e-3h5e-3c1e-3 1e-3 2e-3 1e-3 3e-3 1e-3h2e-3c2e-3 0 3e-3 0 5e-3 1e-3h1e-3c2e-3 0 5e-3 1e-3 7e-3 1e-3h1e-3c1e-3 0 1e-3 0 2e-3 1e-3h0.01c1e-3 0 1e-3 0 2e-3 1e-3h2e-3c2e-3 0 3e-3 1e-3 6e-3 1e-3 2e-3 0 5e-3 1e-3 6e-3 1e-3h1e-3c2e-3 1e-3 3e-3 1e-3 4e-3 1e-3 2e-3 0 3e-3 1e-3 4e-3 1e-3h3e-3c2e-3 1e-3 3e-3 1e-3 4e-3 1e-3l1e-3 1e-3h6e-3c1e-3 1e-3 2e-3 1e-3 3e-3 1e-3 0 0 1e-3 1e-3 2e-3 1e-3h4e-3c3e-3 0 5e-3 1e-3 7e-3 1e-3h2e-3c0 1e-3 0 1e-3 1e-3 1e-3s2e-3 0 3e-3 1e-3c2e-3 0 4e-3 0 6e-3 1e-3h2e-3l1e-3 1e-3c2e-3 0 3e-3 1e-3 4e-3 1e-3h2e-3c1e-3 0 1e-3 0 1e-3 1e-3h1e-3c2e-3 0 5e-3 1e-3 7e-3 2e-3h2e-3c2e-3 1e-3 3e-3 1e-3 5e-3 1e-3h3e-3c1e-3 0 1e-3 1e-3 2e-3 1e-3h2e-3l2e-3 1e-3c3e-3 1e-3 5e-3 1e-3 8e-3 2e-3 2e-3 0 4e-3 1e-3 5e-3 2e-3h2e-3l1e-3 1e-3h2e-3c1e-3 0 1e-3 1e-3 2e-3 1e-3s3e-3 0 3e-3 1e-3h6e-3c0 1e-3 1e-3 1e-3 2e-3 1e-3s2e-3 1e-3 3e-3 1e-3c3e-3 1e-3 6e-3 2e-3 9e-3 3e-3 1e-3 1e-3 3e-3 1e-3 4e-3 2e-3h3e-3c1e-3 1e-3 1e-3 1e-3 2e-3 1e-3s1e-3 1e-3 2e-3 1e-3h4e-3c2e-3 1e-3 5e-3 2e-3 8e-3 3e-3 1e-3 1e-3 2e-3 1e-3 3e-3 2e-3 2e-3 0 4e-3 1e-3 6e-3 1e-3 1e-3 1e-3 1e-3 1e-3 2e-3 1e-3 0 1e-3 1e-3 1e-3 3e-3 1e-3 0 1e-3 1e-3 1e-3 1e-3 1e-3h3e-3c2e-3 1e-3 3e-3 1e-3 4e-3 2e-3 2e-3 1e-3 3e-3 1e-3 5e-3 2e-3 1e-3 0 3e-3 1e-3 4e-3 2e-3 2e-3 0 3e-3 1e-3 4e-3 1e-3s1e-3 1e-3 2e-3 1e-3h2e-3c1e-3 1e-3 3e-3 1e-3 4e-3 2e-3h2e-3l2e-3 2e-3c3e-3 1e-3 5e-3 2e-3 7e-3 3e-3 2e-3 0 3e-3 1e-3 5e-3 2e-3 2e-3 0 4e-3 0 5e-3 1e-3s3e-3 2e-3 4e-3 2e-3c1e-3 1e-3 1e-3 1e-3 2e-3 1e-3s2e-3 1e-3 3e-3 1e-3v1e-3h2e-3c1e-3 1e-3 2e-3 1e-3 3e-3 2e-3 0 0 1e-3 0 1e-3 1e-3v-1e-3 1e-3h1e-3 -1e-3c4e-3 1e-3 9e-3 3e-3 0.013 5e-3 1e-3 1e-3 1e-3 1e-3 2e-3 1e-3 1e-3 1e-3 2e-3 1e-3 3e-3 2e-3h1e-3c1e-3 1e-3 1e-3 1e-3 2e-3 1e-3 0 1e-3 0 1e-3 1e-3 1e-3s3e-3 1e-3 4e-3 1e-3c3e-3 2e-3 5e-3 3e-3 9e-3 5e-3h1e-3v1e-3 -1e-3 1e-3c1e-3 0 1e-3 1e-3 2e-3 1e-3 1e-3 1e-3 2e-3 1e-3 4e-3 1e-3l6e-3 3e-3v1e-3c1e-3 1e-3 2e-3 1e-3 2e-3 1e-3l1e-3 1e-3c6e-3 3e-3 0.013 7e-3 0.02 0.011 1e-3 0 2e-3 1e-3 4e-3 1e-3 1e-3 1e-3 1e-3 2e-3 2e-3 3e-3h1e-3c1e-3 1e-3 2e-3 2e-3 3e-3 2e-3 4e-3 3e-3 9e-3 5e-3 0.013 8e-3 2e-3 2e-3 5e-3 3e-3 7e-3 5e-3 -1e-3 -1e-3 -2e-3 -1e-3 -3e-3 -2e-3 1e-3 1e-3 2e-3 1e-3 3e-3 2e-3h1e-3 -1e-3 1e-3l2e-3 2e-3h1e-3c1e-3 1e-3 1e-3 1e-3 2e-3 1e-3 0 0 1e-3 1e-3 2e-3 1e-3 5e-3 5e-3 0.011 9e-3 0.017 0.013 2e-3 1e-3 3e-3 1e-3 4e-3 2e-3 0 0-1e-3 -1e-3 -2e-3 -1e-3 2e-3 1e-3 2e-3 2e-3 3e-3 3e-3 2e-3 1e-3 3e-3 2e-3 5e-3 3e-3 8e-3 5e-3 0.015 0.011 0.022 0.018 1e-3 0 1e-3 1e-3 2e-3 1e-3 -1e-3 0-1e-3 -1e-3 -2e-3 -1e-3 0.192 0.157 0.253 0.39 0.253 0.586v0.819c0 0.188-0.056 0.408-0.228 0.565-2e-3 1e-3 -3e-3 3e-3 -4e-3 4e-3 -2e-3 0-3e-3 1e-3 -3e-3 1e-3 -4e-3 5e-3 -0.01 9e-3 -0.014 0.013l-3e-3 3e-3c-2e-3 0-3e-3 2e-3 -6e-3 4e-3 0 1e-3 -1e-3 1e-3 -2e-3 2e-3 -3e-3 2e-3 -5e-3 4e-3 -7e-3 5e-3l-1e-3 1e-3s-1e-3 1e-3 -2e-3 1e-3c0 0 0 1e-3 -1e-3 1e-3l-3e-3 3e-3c-2e-3 1e-3 -3e-3 2e-3 -4e-3 2e-3 -2e-3 2e-3 -4e-3 3e-3 -6e-3 5e-3 -1e-3 1e-3 -2e-3 2e-3 -3e-3 2e-3 -1e-3 1e-3 -2e-3 2e-3 -4e-3 2e-3v1e-3c-1e-3 0-1e-3 1e-3 -2e-3 1e-3 -2e-3 2e-3 -4e-3 3e-3 -6e-3 4e-3 -1e-3 1e-3 -1e-3 2e-3 -2e-3 2e-3 -1e-3 1e-3 -2e-3 1e-3 -3e-3 1e-3 -3e-3 3e-3 -5e-3 5e-3 -8e-3 7e-3 -2e-3 1e-3 -3e-3 1e-3 -4e-3 1e-3l-1e-3 1e-3v1e-3c-1e-3 0-2e-3 1e-3 -3e-3 1e-3 0 0-1e-3 1e-3 -2e-3 1e-3v1e-3c-3e-3 2e-3 -4e-3 3e-3 -7e-3 4e-3l-6e-3 3e-3c-2e-3 2e-3 -4e-3 3e-3 -7e-3 5e-3l-1e-3 1e-3c-1e-3 0-2e-3 0-2e-3 1e-3 0 0-2e-3 0-3e-3 1e-3s-2e-3 1e-3 -3e-3 2e-3h-1e-3c-1e-3 1e-3 -2e-3 1e-3 -2e-3 2e-3 -3e-3 1e-3 -5e-3 3e-3 -8e-3 4e-3 -1e-3 0-1e-3 1e-3 -3e-3 1e-3 -2e-3 1e-3 -3e-3 2e-3 -6e-3 3e-3 0 1e-3 -1e-3 1e-3 -2e-3 2e-3s-2e-3 2e-3 -4e-3 2e-3c-1e-3 1e-3 -1e-3 1e-3 -2e-3 1e-3h-1e-3c0 1e-3 -2e-3 1e-3 -3e-3 2e-3 -2e-3 1e-3 -5e-3 2e-3 -7e-3 3e-3 0 1e-3 -1e-3 1e-3 -2e-3 2e-3h-2e-3c0 1e-3 -1e-3 1e-3 -1e-3 1e-3h-2e-3c-1e-3 1e-3 -2e-3 1e-3 -2e-3 2e-3h-1e-3l-6e-3 3e-3c-1e-3 0-2e-3 1e-3 -2e-3 1e-3 -2e-3 1e-3 -3e-3 2e-3 -5e-3 2e-3 0 1e-3 -1e-3 1e-3 -1e-3 1e-3h-3e-3c-1e-3 1e-3 -3e-3 2e-3 -5e-3 3e-3 -2e-3 0-3e-3 1e-3 -3e-3 2e-3 -1e-3 0-2e-3 0-3e-3 1e-3 0 0-1e-3 0-1e-3 1e-3h-1e-3c-1e-3 0-2e-3 0-3e-3 1e-3 -1e-3 0-1e-3 1e-3 -2e-3 1e-3s-2e-3 1e-3 -2e-3 1e-3h-2e-3c-1e-3 0-2e-3 0-3e-3 1e-3h-1e-3c-1e-3 1e-3 -3e-3 2e-3 -4e-3 2e-3 -2e-3 1e-3 -3e-3 2e-3 -5e-3 2e-3l-2e-3 2e-3h-2e-3c-1e-3 0-2e-3 1e-3 -3e-3 2e-3h-5e-3v1e-3c-2e-3 1e-3 -5e-3 1e-3 -6e-3 2e-3 -1e-3 0-1e-3 1e-3 -2e-3 1e-3h-1e-3c-2e-3 1e-3 -5e-3 2e-3 -6e-3 3e-3h-2e-3c0 1e-3 -1e-3 1e-3 -2e-3 1e-3 0 0-1e-3 0-1e-3 1e-3h-4e-3c-2e-3 1e-3 -4e-3 1e-3 -6e-3 2e-3s-4e-3 1e-3 -5e-3 2e-3c-1e-3 0-2e-3 1e-3 -3e-3 1e-3 0 0-1e-3 1e-3 -3e-3 1e-3 -1e-3 1e-3 -2e-3 1e-3 -4e-3 2e-3 -2e-3 0-4e-3 1e-3 -5e-3 1e-3h-2e-3l-3e-3 1e-3c-1e-3 0-2e-3 0-3e-3 1e-3 -1e-3 0-2e-3 1e-3 -4e-3 1e-3h-1e-3c0 1e-3 -1e-3 1e-3 -1e-3 1e-3 -1e-3 0-2e-3 0-3e-3 1e-3 -2e-3 0-2e-3 0-3e-3 1e-3h-3e-3c-1e-3 1e-3 -3e-3 2e-3 -5e-3 2e-3h-1e-3c-1e-3 0-2e-3 0-4e-3 1e-3h-3e-3s-1e-3 0-1e-3 1e-3h-2e-3c-3e-3 1e-3 -5e-3 2e-3 -7e-3 2e-3 -1e-3 0-2e-3 1e-3 -3e-3 1e-3h-2e-3c0 1e-3 0 1e-3 -1e-3 1e-3s-2e-3 0-4e-3 1e-3l-3e-3 1e-3h-1e-3c-1e-3 0-2e-3 1e-3 -2e-3 1e-3h-7e-3c-2e-3 1e-3 -4e-3 1e-3 -6e-3 2e-3 -3e-3 0-5e-3 1e-3 -8e-3 1e-3 -1e-3 1e-3 -3e-3 1e-3 -4e-3 2e-3h-2e-3c-1e-3 0-2e-3 0-3e-3 1e-3h-3e-3c-1e-3 1e-3 -2e-3 1e-3 -3e-3 1e-3 -2e-3 0-3e-3 1e-3 -5e-3 1e-3s-4e-3 1e-3 -6e-3 1e-3c-1e-3 0-1e-3 1e-3 -2e-3 1e-3h-7e-3c-2e-3 1e-3 -3e-3 1e-3 -5e-3 1e-3 -1e-3 0-3e-3 1e-3 -4e-3 1e-3h-2e-3c-2e-3 1e-3 -5e-3 1e-3 -7e-3 1e-3 -1e-3 1e-3 -3e-3 1e-3 -5e-3 2e-3h-6e-3c-1e-3 1e-3 -3e-3 1e-3 -5e-3 1e-3s-3e-3 1e-3 -5e-3 1e-3 -3e-3 0-5e-3 1e-3h-3e-3c-2e-3 0-3e-3 1e-3 -4e-3 1e-3h-8e-3c-2e-3 0-4e-3 0-5e-3 1e-3h-6e-3c-2e-3 0-3e-3 1e-3 -4e-3 1e-3s-2e-3 0-4e-3 1e-3h-9e-3c-2e-3 1e-3 -4e-3 1e-3 -4e-3 1e-3h-5e-3c-1e-3 1e-3 -2e-3 1e-3 -2e-3 1e-3h-9e-3c-1e-3 0-1e-3 1e-3 -2e-3 1e-3h-7e-3c-2e-3 0-4e-3 1e-3 -5e-3 1e-3h-9e-3c-1e-3 1e-3 -3e-3 1e-3 -4e-3 1e-3h-8e-3c-1e-3 0-2e-3 0-3e-3 1e-3h-0.036s-1e-3 1e-3 -2e-3 1e-3zm0.406-2.27m-0.218-0.067h-1e-3 1e-3m0.348 0.141 1e-3 1e-3zm-0.092-0.056c-1e-3 -1e-3 -1e-3 -1e-3 -2e-3 -1e-3 1e-3 0 1e-3 0 2e-3 1e-3m-0.039-0.019h1e-3z" fill="url(#a)"/>
      </g>
     </g>
    </g>
   </g>
  </g>
  <g id="om" transform="matrix(.35278 0 0 -.35278 30.587 158.49)">
   <g id="on" clip-path="url(#aa)">
    <g id="oo" transform="translate(243.3 114.35)">
     <path id="op" d="m0 0-0.037 0.029c-0.054-0.073-0.129-0.138-0.232-0.188-0.114-0.055-0.262-0.089-0.453-0.093h-1.995l-1e-3 -1e-3s0-1e-3 -1e-3 -1e-3c0-1e-3 -1e-3 -1e-3 -1e-3 -2e-3 -2e-3 -1e-3 -3e-3 -3e-3 -5e-3 -4e-3l-1e-3 -1e-3v-1e-3c-2e-3 -1e-3 -3e-3 -2e-3 -4e-3 -3e-3 0 0 0-1e-3 -1e-3 -1e-3l-2e-3 -2e-3c-0.012-0.012-0.022-0.022-0.026-0.027-3e-3 -2e-3 -4e-3 -3e-3 -4e-3 -3e-3h2.084c1e-3 1e-3 2e-3 1e-3 3e-3 1e-3h0.022c2e-3 0 3e-3 0 4e-3 1e-3h0.019c1e-3 1e-3 1e-3 1e-3 2e-3 1e-3h0.01c1e-3 0 3e-3 0 4e-3 1e-3h7e-3c2e-3 0 4e-3 0 6e-3 1e-3h8e-3c1e-3 0 2e-3 0 3e-3 1e-3h5e-3 -1e-3 2e-3c2e-3 0 3e-3 0 5e-3 1e-3h8e-3c1e-3 0 1e-3 1e-3 1e-3 1e-3h5e-3c2e-3 0 4e-3 0 5e-3 1e-3h7e-3c1e-3 1e-3 3e-3 1e-3 4e-3 1e-3h5e-3c1e-3 1e-3 2e-3 1e-3 3e-3 1e-3h2e-3c2e-3 0 3e-3 0 4e-3 1e-3h2e-3c2e-3 0 5e-3 0 7e-3 1e-3h3e-3c1e-3 1e-3 2e-3 1e-3 3e-3 1e-3h3e-3c1e-3 0 3e-3 1e-3 4e-3 1e-3h4e-3c2e-3 1e-3 4e-3 1e-3 6e-3 1e-3 2e-3 1e-3 5e-3 1e-3 7e-3 1e-3 0 1e-3 0 1e-3 1e-3 1e-3h3e-3c2e-3 1e-3 3e-3 1e-3 4e-3 1e-3h2e-3c1e-3 0 1e-3 0 1e-3 1e-3v-1e-3c0 1e-3 0 1e-3 1e-3 1e-3h5e-3c0 1e-3 1e-3 1e-3 1e-3 1e-3h4e-3c1e-3 1e-3 2e-3 1e-3 3e-3 1e-3s2e-3 0 2e-3 1e-3h4e-3c3e-3 1e-3 5e-3 1e-3 8e-3 2e-3h2e-3c1e-3 0 2e-3 1e-3 4e-3 1e-3 1e-3 0 3e-3 1e-3 5e-3 1e-3h1e-3l1e-3 1e-3h2e-3c1e-3 0 2e-3 1e-3 3e-3 1e-3h2e-3c1e-3 0 1e-3 0 1e-3 1e-3h1e-3c2e-3 0 5e-3 1e-3 7e-3 2e-3h3e-3c1e-3 0 3e-3 1e-3 4e-3 1e-3s2e-3 0 3e-3 1e-3h2e-3c1e-3 0 2e-3 1e-3 2e-3 1e-3h1e-3 -1e-3 2e-3c3e-3 1e-3 6e-3 2e-3 8e-3 2e-3 2e-3 1e-3 4e-3 1e-3 5e-3 2e-3h3e-3c1e-3 1e-3 2e-3 1e-3 2e-3 1e-3h2e-3c1e-3 1e-3 2e-3 1e-3 4e-3 1e-3 0 1e-3 1e-3 1e-3 2e-3 1e-3h1e-3s1e-3 1e-3 2e-3 1e-3h1e-3c2e-3 1e-3 3e-3 1e-3 5e-3 2e-3 2e-3 0 5e-3 1e-3 8e-3 2e-3 1e-3 1e-3 3e-3 1e-3 4e-3 1e-3 1e-3 1e-3 2e-3 1e-3 3e-3 1e-3 1e-3 1e-3 2e-3 1e-3 2e-3 1e-3h2e-3l1e-3 1e-3h1e-3s1e-3 0 2e-3 1e-3c2e-3 1e-3 5e-3 1e-3 8e-3 2e-3 1e-3 1e-3 2e-3 1e-3 4e-3 2e-3 1e-3 0 3e-3 1e-3 4e-3 1e-3 1e-3 1e-3 2e-3 1e-3 3e-3 1e-3 1e-3 1e-3 2e-3 1e-3 3e-3 1e-3 0 0 1e-3 0 1e-3 1e-3h2e-3s1e-3 0 1e-3 1e-3c1e-3 0 3e-3 1e-3 5e-3 1e-3 1e-3 1e-3 2e-3 1e-3 4e-3 2e-3 1e-3 0 3e-3 1e-3 4e-3 2e-3 2e-3 0 3e-3 0 4e-3 1e-3 1e-3 0 1e-3 0 2e-3 1e-3h1e-3 -1e-3 2e-3c1e-3 1e-3 3e-3 1e-3 4e-3 2e-3 1e-3 0 1e-3 0 2e-3 1e-3 1e-3 0 2e-3 0 3e-3 1e-3 2e-3 1e-3 4e-3 2e-3 6e-3 2e-3l6e-3 3e-3c1e-3 0 2e-3 1e-3 4e-3 2e-3 1e-3 0 3e-3 1e-3 5e-3 1e-3 0 1e-3 0 1e-3 1e-3 1e-3 1e-3 1e-3 2e-3 1e-3 3e-3 1e-3v1e-3h2e-3c1e-3 1e-3 3e-3 2e-3 5e-3 2e-3 -2e-3 0-3e-3 -1e-3 -4e-3 -1e-3 6e-3 2e-3 0.011 5e-3 0.017 7e-3 0 1e-3 1e-3 1e-3 1e-3 1e-3 1e-3 1e-3 2e-3 1e-3 3e-3 2e-3h1e-3c1e-3 0 1e-3 1e-3 2e-3 1e-3 0 0 1e-3 0 1e-3 1e-3 2e-3 0 3e-3 1e-3 5e-3 2e-3s5e-3 3e-3 8e-3 4e-3c1e-3 0 2e-3 1e-3 3e-3 1e-3 -1e-3 0-2e-3 0-3e-3 -1e-3 3e-3 1e-3 5e-3 3e-3 7e-3 4e-3s4e-3 2e-3 5e-3 2e-3c1e-3 1e-3 2e-3 1e-3 2e-3 1e-3l1e-3 1e-3c1e-3 0 1e-3 0 1e-3 1e-3 7e-3 3e-3 0.013 7e-3 0.02 0.011 1e-3 0 2e-3 1e-3 3e-3 2e-3 2e-3 1e-3 3e-3 1e-3 4e-3 2e-3h1e-3c1e-3 1e-3 2e-3 2e-3 3e-3 2e-3 4e-3 3e-3 8e-3 5e-3 0.012 8e-3 3e-3 2e-3 6e-3 4e-3 8e-3 5e-3 -1e-3 -1e-3 -2e-3 -1e-3 -4e-3 -2e-3 3e-3 1e-3 4e-3 2e-3 7e-3 4e-3l1e-3 1e-3h1e-3c0 1e-3 1e-3 1e-3 2e-3 1e-3 5e-3 5e-3 0.012 9e-3 0.017 0.013 2e-3 1e-3 3e-3 2e-3 5e-3 3e-3 -1e-3 0-2e-3 -1e-3 -3e-3 -1e-3 1e-3 0 3e-3 1e-3 4e-3 2e-3s2e-3 2e-3 4e-3 3e-3c8e-3 6e-3 0.015 0.012 0.022 0.018 1e-3 0 2e-3 0 2e-3 1e-3l-1e-3 -1e-3c0.042 0.035 0.079 0.074 0.109 0.115" fill="#00577e"/>
    </g>
   </g>
  </g>
 </g>
</svg>
