<svg height="1.199797mm" viewBox="0 0 3.8055501 1.1997972" width="3.80555mm" xmlns="http://www.w3.org/2000/svg" xmlns:xlink="http://www.w3.org/1999/xlink"><clipPath id="a"><path d="m233.06597 99.205602 2.69133-2.22081 2.24209 2.717115-2.69132 2.220813z"/></clipPath><linearGradient id="b" gradientTransform="matrix(1.3521145 -1.1157305 1.1157305 1.3521145 234.70878 100.13706)" gradientUnits="userSpaceOnUse" spreadMethod="pad" x1="0" x2="1" y1="0" y2="0"><stop offset="0" stop-color="#5cb373"/><stop offset="1" stop-color="#007030"/></linearGradient><clipPath id="c"><path d="m236.76143 97.398822v3.323498h-2.4757v-3.323498z"/></clipPath><linearGradient id="d" gradientTransform="matrix(0 3.3224512 -3.3224512 0 235.53326 97.407889)" gradientUnits="userSpaceOnUse" spreadMethod="pad" x1="0" x2="1" y1="0" y2="0"><stop offset="0" stop-color="#009634"/><stop offset="1" stop-color="#007030"/></linearGradient><clipPath id="e"><path d="m232.9429 98.326949 2.33285-1.78395 1.88922 2.470509-2.33286 1.783952z"/></clipPath><linearGradient id="f" gradientTransform="matrix(.160746 -.1229235 .1229235 .160746 234.97311 98.732398)" gradientUnits="userSpaceOnUse" spreadMethod="pad" x1="0" x2="1" y1="0" y2="0"><stop offset="0" stop-color="#007030"/><stop offset="1" stop-color="#5cb373"/></linearGradient><clipPath id="g"><path d="m226.97929 100.38494.55528-.977965.575.326484-.55528.977961z"/></clipPath><linearGradient id="h" gradientTransform="matrix(.9696257 -1.7076979 1.7076979 .9696257 227.80759 99.581687)" gradientUnits="userSpaceOnUse" spreadMethod="pad" x1="0" x2="1" y1="0" y2="0"><stop offset="0" stop-color="#d8d8d6"/><stop offset="1" stop-color="#3f4040"/></linearGradient><clipPath id="i"><path d="m228.43955 100.66253-.16189.36557-.76674-.33955.1619-.36557z"/></clipPath><linearGradient id="j"><stop offset="0" stop-color="#3f4040"/><stop offset="1" stop-color="#fff"/></linearGradient><linearGradient id="k" gradientTransform="matrix(-.4502013 1.0165836 -1.0165836 -.4502013 228.38778 99.728643)" gradientUnits="userSpaceOnUse" spreadMethod="pad" x1="0" x2="1" xlink:href="#j" y1="0" y2="0"/><clipPath id="l"><path d="m226.05536 97.380928v3.313972h-.042v-3.313972z"/></clipPath><linearGradient id="m"><stop offset="0" stop-color="#8c8c8a"/><stop offset="1" stop-color="#f7f6f5"/></linearGradient><linearGradient id="n" gradientTransform="matrix(0 3.3128828 -3.3128828 0 226.03649 97.392621)" gradientUnits="userSpaceOnUse" spreadMethod="pad" x1="0" x2="1" xlink:href="#m" y1="0" y2="0"/><clipPath id="o"><path d="m226.013 97.36h17.426v3.421h-17.426z"/></clipPath><clipPath id="p"><path d="m226.95512 100.66253-.16639.37571-.78961-.34968.16639-.37572z"/></clipPath><linearGradient id="q" gradientTransform="matrix(-.4495618 1.0151395 -1.0151395 -.4495618 227.13579 99.175173)" gradientUnits="userSpaceOnUse" spreadMethod="pad" x1="0" x2="1" xlink:href="#j" y1="0" y2="0"/><clipPath id="r"><path d="m226.88542 99.452822.17794-.313397.51696.293526-.17795.313398z"/></clipPath><linearGradient id="s" gradientTransform="matrix(.9656292 -1.7006593 1.7006593 .9656292 227.31901 99.291593)" gradientUnits="userSpaceOnUse" spreadMethod="pad" x1="0" x2="1" y1="0" y2="0"><stop offset="0" stop-color="#eeeeec"/><stop offset="1" stop-color="#3f4040"/></linearGradient><clipPath id="t"><path d="m227.52519 98.705345v-1.324412h.0385v1.324412z"/></clipPath><linearGradient id="u" gradientTransform="matrix(0 -1.3060171 1.3060171 0 227.55567 98.690411)" gradientUnits="userSpaceOnUse" spreadMethod="pad" x1="0" x2="1" y1="0" y2="0"><stop offset="0" stop-color="#eaeae8"/><stop offset="1" stop-color="#dfdfdd"/></linearGradient><clipPath id="v"><path d="m226.013 97.36h17.426v3.421h-17.426z"/></clipPath><clipPath id="w"><path d="m226.94079 100.6949-.15206.34337-.77533-.34336.15207-.34337z"/></clipPath><linearGradient id="x" gradientTransform="matrix(-.4507511 1.017825 -1.017825 -.4507511 227.14343 99.169448)" gradientUnits="userSpaceOnUse" spreadMethod="pad" x1="0" x2="1" xlink:href="#j" y1="0" y2="0"/><clipPath id="y"><path d="m228.42528 100.6949-.14758.33325-.75251-.33325.14759-.33325z"/></clipPath><linearGradient id="z" gradientTransform="matrix(-.4472678 1.0099595 -1.0099595 -.4472678 228.38778 99.740094)" gradientUnits="userSpaceOnUse" spreadMethod="pad" x1="0" x2="1" xlink:href="#j" y1="0" y2="0"/><clipPath id="A"><path d="m235.69909 98.211665-2.27579 3.941795-3.89611-2.249422 2.27579-3.941794z"/></clipPath><linearGradient id="B" gradientTransform="matrix(-1.6906621 2.9283132 -2.9283132 -1.6906621 233.47206 97.621643)" gradientUnits="userSpaceOnUse" spreadMethod="pad" x1="0" x2="1" xlink:href="#j" y1="0" y2="0"/><clipPath id="C"><path d="m231.50648 99.875296-1.07849 1.867994-2.2888-1.32143 1.07849-1.868002z"/></clipPath><linearGradient id="D" gradientTransform="matrix(-1.0680169 1.8498596 -1.8498596 -1.0680169 230.66273 98.67896)" gradientUnits="userSpaceOnUse" spreadMethod="pad" x1="0" x2="1" xlink:href="#j" y1="0" y2="0"/><clipPath id="E"><path d="m228.65131 97.382088v3.313062h-.0388v-3.313062z"/></clipPath><linearGradient id="F" gradientTransform="matrix(0 3.3120005 -3.3120005 0 228.63207 97.377353)" gradientUnits="userSpaceOnUse" spreadMethod="pad" x1="0" x2="1" xlink:href="#m" y1="0" y2="0"/><clipPath id="G"><path d="m229.15189 99.828814.48256-.80882.84832.506126-.48256.80882z"/></clipPath><linearGradient id="H" gradientTransform="matrix(.1788393 -.2997529 .2997529 .1788393 229.73137 99.819297)" gradientUnits="userSpaceOnUse" spreadMethod="pad" x1="0" x2="1" y1="0" y2="0"><stop offset="0" stop-color="#3f4040"/><stop offset=".211618" stop-color="#626361"/><stop offset="1" stop-color="#d8d8d6"/></linearGradient><clipPath id="I"><path d="m226.013 97.36h17.426v3.421h-17.426z"/></clipPath><clipPath id="J"><path d="m231.66853 99.946763v-1.764138h1.76408v1.764138z"/></clipPath><linearGradient id="K" gradientTransform="matrix(0 -.8416809 .8416809 0 232.55216 99.056845)" gradientUnits="userSpaceOnUse" spreadMethod="pad" x1="0" x2="1" y1="0" y2="0"><stop offset="0" stop-color="#3f4040"/><stop offset="1" stop-color="#f7f6f5"/></linearGradient><clipPath id="L"><path d="m233.78775 98.733148-.90571 1.568732-1.56871-.905695.90571-1.568731z"/></clipPath><linearGradient id="M"><stop offset="0" stop-color="#3f4040"/><stop offset="1" stop-color="#dedfdc"/></linearGradient><linearGradient id="N" gradientTransform="matrix(-.6621373 1.1468553 -1.1468553 -.6621373 232.88424 98.490017)" gradientUnits="userSpaceOnUse" spreadMethod="pad" x1="0" x2="1" xlink:href="#M" y1="0" y2="0"/><clipPath id="O"><path d="m226.013 97.36h17.426v3.421h-17.426z"/></clipPath><clipPath id="P"><path d="m230.62902 99.152968.24202-.363024.26322.175485-.24201.363024z"/></clipPath><linearGradient id="Q" gradientTransform="matrix(.2042967 -.3064446 .3064446 .2042967 230.73716 99.272746)" gradientUnits="userSpaceOnUse" spreadMethod="pad" x1="0" x2="1" xlink:href="#M" y1="0" y2="0"/><clipPath id="R"><path d="m230.36975 98.990543.24678-.37017.40935.2729-.24678.370171z"/></clipPath><linearGradient id="S" gradientTransform="matrix(.2044241 -.3066356 .3066356 .2044241 230.53104 99.186863)" gradientUnits="userSpaceOnUse" spreadMethod="pad" x1="0" x2="1" xlink:href="#M" y1="0" y2="0"/><clipPath id="T"><path d="m226.013 97.36h17.426v3.421h-17.426z"/></clipPath><clipPath id="U"><path d="m229.13169 98.543909.55067-.790201.81727.569526-.55067.790202z"/></clipPath><linearGradient id="V" gradientTransform="matrix(.2599723 -.3730593 .3730593 .2599723 229.72947 98.554906)" gradientUnits="userSpaceOnUse" spreadMethod="pad" x1="0" x2="1" y1="0" y2="0"><stop offset="0" stop-color="#3f4040"/><stop offset=".211618" stop-color="#626361"/><stop offset="1" stop-color="#eeeeec"/></linearGradient><clipPath id="W"><path d="m226.013 97.36h17.426v3.421h-17.426z"/></clipPath><clipPath id="X"><path d="m234.23363 97.364866v3.385364h-8.22021v-3.385364z"/></clipPath><linearGradient id="Y" gradientTransform="matrix(0 3.3838482 -3.3838482 0 230.12835 97.362085)" gradientUnits="userSpaceOnUse" spreadMethod="pad" x1="0" x2="1" y1="0" y2="0"><stop offset="0" stop-color="#dedfdc"/><stop offset="1" stop-color="#3f4040"/></linearGradient><g clip-path="url(#X)" transform="matrix(.35277777 0 0 -.35277777 -79.732364 35.54624)"><path d="m232.548 100.751c-.926 0-1.399-.683-1.516-.958.001.413-.406.902-.883.902h-1.536v-3.313h1.431c.578 0 .989.5.99.929.132-.27.589-.946 1.516-.945.928 0 1.684.771 1.683 1.7 0 .947-.755 1.684-1.683 1.685zm-3.077-.793h.456c.132 0 .236-.131.236-.28 0-.15-.104-.28-.236-.28h-.456zm2.236-.893c0 .465.378.843.843.843.466 0 .844-.378.844-.843 0-.466-.378-.844-.844-.844-.465 0-.843.378-.843.844m-1.174 0c .105.012.286.122.348.199-.022-.095-.006-.331.019-.425-.069.108-.261.212-.367.226m-1.064-.351h.456c.132 0 .236-.132.236-.281 0-.148-.104-.279-.236-.279h-.456zm-1.944 1.981v-1.232h-.585v1.232h-.927l.004-3.314h.923v1.286h.585v-1.286h.9v3.314zm4.363-1.63c0-.366.297-.663.662-.663.366 0 .663.297.663.663 0 .366-.297.663-.663.663-.365 0-.662-.297-.662-.663" fill="url(#Y)"/></g><g clip-path="url(#W)" transform="matrix(.35277777 0 0 -.35277777 -79.732364 35.54624)"><g transform="translate(230.9954 98.4779)"><path d="m0 0c0-.576-.396-1.058-.951-1.058l-1.393.001c-.021-.021-.039-.039-.039-.039h1.432c.578 0 .989.5.989.929 0 0-.017.075-.038.167" fill="#3f4040"/></g></g><g clip-path="url(#U)" transform="matrix(.35277777 0 0 -.35277777 -79.732364 35.54624)"><path d="m229.925 98.714c.132 0 .236-.132.236-.281 0-.148-.104-.279-.236-.279h-.456l-.038-.039h.494c.156 0 .275.151.275.318 0 .168-.119.319-.275.32z" fill="url(#V)"/></g><g clip-path="url(#T)" transform="matrix(.35277777 0 0 -.35277777 -79.732364 35.54624)"><g transform="translate(229.4306 98.7522)"><path d="m0 0c .021-.021.039-.039.039-.039h.455v.039z" fill="#3f4040"/></g><g transform="translate(229.4306 98.7522)"><path d="m0 0v-.637l.039.038v.56s-.018.018-.039.039" fill="#3f4040"/></g></g><g clip-path="url(#R)" transform="matrix(.35277777 0 0 -.35277777 -79.732364 35.54624)"><path d="m230.487 99.068c.17-.064.28-.102.422-.252-.026.058-.047.106-.047.106-.074.078-.191.118-.26.145s-.052.001-.115.001z" fill="url(#S)"/></g><g clip-path="url(#P)" transform="matrix(.35277777 0 0 -.35277777 -79.732364 35.54624)"><path d="m230.858 99.209c-.002-.089-.004-.192.004-.287s.021-.048.047-.106c-.017.202-.014.303-.01.487-.023-.052-.041-.094-.041-.094" fill="url(#Q)"/></g><g clip-path="url(#O)" transform="matrix(.35277777 0 0 -.35277777 -79.732364 35.54624)"><g transform="translate(230.4865 99.0684)"><path d="m0 0c .063-.001.115-.002.115-.002.105.036.184.071.257.143 0 0 .018.042.04.094-.134-.132-.208-.166-.412-.235" fill="#3f4040"/></g></g><g clip-path="url(#L)" transform="matrix(.35277777 0 0 -.35277777 -79.732364 35.54624)"><path d="m231.888 99.065c0-.366.297-.663.662-.663.366 0 .663.297.663.663 0 .365-.297.663-.663.663-.365 0-.662-.298-.662-.663m.038 0c0 .345.279.624.624.624.345 0 .625-.279.625-.624 0-.345-.28-.625-.625-.625-.345 0-.624.28-.624.625" fill="url(#N)"/></g><g clip-path="url(#J)" transform="matrix(.35277777 0 0 -.35277777 -79.732364 35.54624)"><path d="m231.668 99.065c0-.487.395-.882.882-.882.488 0 .883.395.883.882 0 .487-.395.882-.883.882-.487 0-.882-.395-.882-.882m.039 0c0 .465.378.843.843.843.466 0 .844-.378.844-.843 0-.466-.378-.844-.844-.844-.465 0-.843.378-.843.844" fill="url(#K)"/></g><g clip-path="url(#I)" transform="matrix(.35277777 0 0 -.35277777 -79.732364 35.54624)"><g transform="translate(229.4323 99.3588)"><path d="m0 0v .637c.021-.021.039-.038.039-.038v-.56z" fill="#3f4040"/></g><g transform="translate(229.4323 99.9962)"><path d="m0 0 .039-.039h.455v.039z" fill="#3f4040"/></g></g><g clip-path="url(#G)" transform="matrix(.35277777 0 0 -.35277777 -79.732364 35.54624)"><path d="m229.927 99.958c.132 0 .236-.131.236-.28 0-.15-.104-.28-.236-.28h-.456l-.039-.039h.495c.156 0 .275.151.275.319 0 .167-.119.317-.275.318z" fill="url(#H)"/></g><g clip-path="url(#E)" transform="matrix(.35277777 0 0 -.35277777 -79.732364 35.54624)"><path d="m228.613 97.382s.017.018.038.039v3.236c-.021.021-.038.038-.038.038z" fill="url(#F)"/></g><g clip-path="url(#C)" transform="matrix(.35277777 0 0 -.35277777 -79.732364 35.54624)"><path d="m228.613 100.695.038-.038h1.498c.453 0 .846-.47.844-1.055.022.105.039.191.039.191.001.414-.407.902-.883.902z" fill="url(#D)"/></g><g clip-path="url(#A)" transform="matrix(.35277777 0 0 -.35277777 -79.732364 35.54624)"><path d="m231.032 99.793s-.017-.086-.039-.191c.188.444.651 1.11 1.555 1.11.455 0 .866-.181 1.164-.476.298-.296.482-.708.482-1.17 0-.454-.184-.87-.482-1.172-.298-.302-.709-.49-1.162-.49-.905-.001-1.353.66-1.554 1.074.02-.093.038-.167.038-.167.131-.27.589-.945 1.516-.945.464 0 .885.192 1.19.502.305.308.493.733.493 1.198 0 .473-.189.894-.493 1.197-.305.303-.726.488-1.192.488-.926 0-1.399-.683-1.516-.958" fill="url(#B)"/></g><g clip-path="url(#y)" transform="matrix(.35277777 0 0 -.35277777 -79.732364 35.54624)"><path d="m227.525 100.695h.9z" fill="url(#z)"/></g><g clip-path="url(#w)" transform="matrix(.35277777 0 0 -.35277777 -79.732364 35.54624)"><path d="m226.013 100.695h.927z" fill="url(#x)"/></g><g clip-path="url(#v)" transform="matrix(.35277777 0 0 -.35277777 -79.732364 35.54624)"><g transform="translate(226.902 97.4195)"><path d="m0 0h-.847c-.021-.021-.038-.039-.038-.039h.924s-.018.018-.039.039" fill="#3f4040"/></g><g transform="translate(228.3865 97.4195)"><path d="m0 0h-.823c-.021-.021-.038-.039-.038-.039h.9z" fill="#3f4040"/></g><g transform="translate(226.902 98.7053)"><path d="m0 0v-1.286c.021-.021.039-.038.039-.038v1.285s-.018.018-.039.039" fill="#3f4040"/></g><g transform="translate(226.902 98.7053)"><path d="m0 0c .021-.021.039-.039.039-.039h.584s.017.018.039.039z" fill="#3f4040"/></g></g><g clip-path="url(#t)" transform="matrix(.35277777 0 0 -.35277777 -79.732364 35.54624)"><path d="m227.525 98.667v-1.286s.017.017.039.039v1.286c-.022-.022-.039-.039-.039-.039" fill="url(#u)"/></g><g clip-path="url(#r)" transform="matrix(.35277777 0 0 -.35277777 -79.732364 35.54624)"><path d="m226.94 99.463s-.017-.018-.038-.039h.662c-.022.021-.039.039-.039.039z" fill="url(#s)"/></g><g clip-path="url(#p)" transform="matrix(.35277777 0 0 -.35277777 -79.732364 35.54624)"><path d="m226.013 100.695.039-.039h.85l.038.039z" fill="url(#q)"/></g><g clip-path="url(#o)" transform="matrix(.35277777 0 0 -.35277777 -79.732364 35.54624)"><g transform="translate(226.902 99.4235)"><path d="m0 0v1.233l.039.038v-1.232s-.018-.018-.039-.039" fill="#6b6d6b"/></g></g><g clip-path="url(#l)" transform="matrix(.35277777 0 0 -.35277777 -79.732364 35.54624)"><path d="m226.013 100.695.004-3.314s.017.017.039.039l-.004 3.236z" fill="url(#n)"/></g><path d="m0 0v-3.236l.039-.039v3.314z" fill="#6b6d6b" transform="matrix(.35277777 0 0 -.35277777 .83739 .03704)"/><g clip-path="url(#i)" transform="matrix(.35277777 0 0 -.35277777 -79.732364 35.54624)"><path d="m227.525 100.695.039-.039h.823l.038.039z" fill="url(#k)"/></g><g clip-path="url(#g)" transform="matrix(.35277777 0 0 -.35277777 -79.732364 35.54624)"><path d="m227.525 99.463s.017-.018.039-.039v1.232c-.022.022-.039.039-.039.039z" fill="url(#h)"/></g><path d="m0 0c-.001.001-.002.002-.004.004-.001.001-.002.002-.003.004l-.006.005c-.001.001-.002.002-.003.003 0 0-.001.001-.002.002s-.001.001-.001.002l-.002.001s-.001.001-.001.001l-.001.001s-.001.001-.001.002h-.001l-.001.001s0 0-.001.001l-.001.001s-.001.001-.001.001v.001c-.001 0-.001 0-.001 0 0 .001-.001.001-.001.001v.001h-.001c0 .001-.001.001-.001.001h-.001v.001s-.001.001-.001.001v.001h-.001-.744c0-.001-.001-.001-.001-.001v-.001h-.001c-.001 0-.001 0-.001-.001s0 0-.001-.001 0 0-.001 0v-.001s0 0 0-.001h-.001l-.001-.001-.001-.001s-.001 0-.001-.001c-.001-.001-.001-.001-.001-.001s0 0 0-.001c-.001 0-.001 0-.001 0-.001-.001-.002-.002-.002-.002l-.001-.001s-.001-.001-.001-.001l-.001-.001c-.001-.001-.001-.001-.002-.002s-.001-.002-.002-.002c-.001-.001-.002-.002-.003-.003-.002-.002-.004-.004-.005-.005-.002-.002-.003-.003-.004-.004-.002-.002-.003-.003-.004-.004-.002-.002-.003-.003-.003-.003h.822z" fill="#007030" transform="matrix(.35277777 0 0 -.35277777 3.22975 .40382)"/><path d="m0 0c-.001-.001-.002-.002-.004-.004-.004-.004-.011-.011-.019-.019s-.001 0-.001-.001-.001 0-.001-.001l-.002-.002s0 0-.001 0c0-.001 0-.001 0-.001-.001 0-.001-.001-.001-.001s-.001 0-.001-.001h-.001v-.001l-.001-.001h-.001v-.001h-.001v-.001h-.001v-.001s-.001 0-.001-.001v-.748h-2.476-.001v-.001h-.001-.001v-.001h-.001-.001c0-.001 0-.001 0-.001h-.001c-.001 0-.001-.001-.001-.001s0 0-.001 0c-.001 0-.001-.001-.002-.001 0 0 0 0-.001 0v-.001c-.001 0-.001 0-.001 0-.001 0-.001 0-.001 0s-.001-.001-.001-.001c-.001 0-.001 0-.001 0s0 0-.001-.001h-.001s0 0 0-.001c-.001 0-.001 0-.001 0s0 0-.001 0c0 0 0 0-.001-.001h-.001s-.001-.001-.001-.001c-.001 0-.001 0-.001 0-.001 0-.001-.001-.001-.001-.001 0-.001 0-.002-.001-.001 0-.001 0-.002-.001-.001 0-.001 0-.002-.001-.002-.001-.004-.001-.005-.002 0 0-.001 0-.001-.001-.002 0-.003-.001-.004-.002-.003-.001-.006-.003-.009-.004s-.006-.003-.008-.004c-.001 0-.001-.001-.002-.001-.003-.002-.006-.003-.009-.005 0 0 0 0-.001 0s-.001 0-.002-.001-.002-.001-.003-.002c-.001 0-.002 0-.003-.001h-.001 2.593v.825z" fill="#007030" transform="matrix(.35277777 0 0 -.35277777 3.80449 .90967)"/><path d="m0 0h-.903s0 0-.001 0l-.003-.002c-.002-.001-.004-.002-.007-.003-.001-.001-.002-.001-.003-.002-.007-.003-.015-.007-.025-.012-.002-.001-.003-.001-.004-.002h-.001c-.003-.002-.006-.003-.009-.005-.001 0-.001 0-.002-.001h-.001c-.001 0-.001 0-.001-.001-.002 0-.003-.001-.004-.001 0-.001 0-.001-.001-.001s0 0-.001 0-.001-.001-.001-.001c-.001 0-.001 0-.001-.001h-.001l-.002-.001s0 0-.001 0c-.001-.001-.002-.001-.003-.001 0-.001-.001-.001-.002-.001 0-.001 0-.001-.001-.001l-.001-.001s0 0-.001 0h-.001v-.001h-.001-.001s0-.001-.001-.001h.945l.001.001h.001v.001s.001 0 .001.001c.001.001.001.001.001.001v.001h.001.001v.001l.001.001s.001.001.001.002h.001l.001.001.001.001s.001.001.001.001.001.001.002.002c.001.001.001.001.001.001l.002.002.001.001.002.002.004.004c.002.001.003.003.005.005.001.001.003.002.004.004l.003.003z" fill="#5cb373" transform="matrix(.35277777 0 0 -.35277777 3.80541 .90872)"/><g clip-path="url(#e)" transform="matrix(.35277777 0 0 -.35277777 -79.732364 35.54624)"><path d="m235.531 99.98c-.005 0-.009 0-.013 0-.103 0-.205-.038-.279-.104 0-.001-.001-.002-.001-.003-.064-.055-.106-.129-.106-.221h.001c0-.001 0-.001 0-.001h.001v-.001h.001c.001-.001.001-.002.002-.003h.001c.001-.001.001-.002.002-.003h.001c0-.001.001-.001.001-.001.001-.001.001-.001.002-.002l.003-.003v-.001l.001-.001v-.001h.001.001l.001-.001.002-.002.001-.001v-.001h.001c.001-.001.001-.001.001-.001l.001-.002.002-.001c0-.001.001-.001.001-.001v-.001c.001 0 .001 0 .001-.001.001 0 .001-.001.002-.001 0-.001.001-.001.002-.002 0-.001 0-.001 0-.001 0-.001.001-.001.001-.001l.001-.001h.001l.001-.001c0-.001.001-.001.001-.001l.001-.001c0 .219.194.327.362.327.14 0 .328-.112.328-.327 0-.128-.093-.221-.098-.225l-1.556-2.029.004.001c.001.001.001.002.003.003.002.001.003.001.005.002.001 0 .002.001.003.001l.006.003h.001c.002.002.006.004.009.006.003 0 .005.001.007.002.001.001.002.001.003.002.001.001.002.001.003.002s.001 0 .002.001c.001 0 .002.001.003.001s.001 0 .001.001h.002c.001.001.002.001.002.001.001 0 .001.001.001.001h.002c0 .001 0 .001.001.001.001 0 .001.001.001.001.001 0 .001.001.001.001h.001c.001.001.002.001.003.002h.001c.001 0 .001.001.002.001.001 0 .001.001.001.001h.001c.001 0 .002.001.003.001.001.001.002.001.002.001h.001v.001h.001s0 .001.001.001h.001v.001l1.509 1.966s.002.003.006.007c.006.006.013.012.018.02.003.002.004.006.007.008 0 .001.001.001.001.002.03.039.05.082.062.126.007.023.01.045.011.069v.001c.001.004.001.009.001.013.001.013 0 .026-.001.04-.002.04-.013.079-.032.117-.008.018-.018.035-.03.051-.001.002-.002.003-.002.004-.003.002-.004.005-.006.008-.003.002-.006.006-.008.01-.001.001-.002.001-.003.003-.004.004-.006.007-.01.011-.001.001-.001.002-.002.002 0 .001-.001.001-.001.002-.002.002-.005.005-.007.007-.002.002-.003.003-.005.005-.002.002-.005.004-.007.007-.001.001-.003.002-.005.004-.073.065-.167.098-.248.098s-.001 0-.002 0m .263-.615h-.001z" fill="url(#f)"/></g><g clip-path="url(#c)" transform="matrix(.35277777 0 0 -.35277777 -79.732364 35.54624)"><path d="m234.388 99.652h.744c0 .209.217.328.401.328.157 0 .366-.125.367-.366-.001-.144-.104-.247-.106-.249-.519-.676-1.037-1.352-1.509-1.966h2.476v.748h-.945c.06.074.241.297.464.604.164.23.267.388.325.517.056.127.073.227.073.345 0 .581-.48 1.11-1.128 1.11-.587 0-1.162-.439-1.162-1.071" fill="url(#d)"/></g><g clip-path="url(#a)" transform="matrix(.35277777 0 0 -.35277777 -79.732364 35.54624)"><path d="m234.349 99.614h.001v.001h.001v.001c.001 0 .001 0 .001.001h.001c.001 0 .001 0 .001.001h.001v.001.001h.001c0 .001 0 .001.001.001.001.001.002.002.003.003l.001.001c0 .001.001.001.002.001.001.001.002.002.002.003v.001h.001v.001c.001 0 .001.001.002.001 0 .001.001.001.001.002.001 0 .001 0 .001.001h.001.001c0 .001 0 .001.001.001v.001h.001c0 .001.001.002.002.003v.001c.001 0 .001.001.002.001v.001h.001v.001h.001.001c0 .001.001.001.001.002l.001.001c0 .001.001.001.001.001v.001h.001v.001h.001v.001h.001v.001h.001v.001c.001.011.001.023.002.034 0 .004.001.008.001.012v.019c.001.008.002.016.003.024v.006c.008.07.022.137.042.2 0 .002 0 .003.001.006.001.003.002.006.003.01.083.251.254.438.449.563.066.042.135.076.203.104.131.051.271.082.411.09.016-.003.037-.008.047.002.002 0 .003-.001.006-.001.051 0 .101-.004.149-.01.021-.004.043-.007.063-.011.001 0 .002 0 .003-.001l.018-.003c.056-.012.109-.027.16-.046.13-.049.247-.121.348-.209.001-.001.001-.001.001-.001.003-.004.007-.006.011-.009.109-.101.195-.219.254-.338.003-.004.005-.009.007-.012 0-.001 0-.002 0-.003.05-.103.083-.215.099-.33.001-.022.004-.043.006-.062.002-.025.003-.05.003-.074v-.009c-.007-.109-.039-.262-.148-.479-.06-.102-.141-.222-.25-.374-.223-.307-.404-.53-.463-.604h.001c.001.001.001.001.001.001h.001v.001c.005.001.01.004.014.006h.001c.001.001.002.002.004.002l.001.001c0 .001.002.001.003.001.001 0 .002.001.002.001h.001c.001.001.002.001.004.002 0 .001 0 .001.001.001.001 0 .001.001.002.001.001.001.002.001.003.002.002 0 .003.001.004.001.001.001.003.001.004.002.001 0 .002.001.003.001 0 .001.002.001.003.002.001.001.001.001.001.001.001 0 .002 0 .002.001h.001s.001.001.002.001 0 .001.001.001c.001 0 .003 0 .005.001.001.001.001.001.001.001h.001c.001.001.002.002.003.002s.001 0 .001.001h.001v.001h.002.001l.002.002h.001v.001h.001.001v.001c.01.011.19.234.414.542.168.232.27.392.329.525.059.132.076.237.076.36 0 .009 0 .019-.001.028-.015.59-.506 1.12-1.165 1.12-.606 0-1.201-.452-1.201-1.147m1.467-1.467h.001z" fill="url(#b)"/></g></svg>