<svg height="1.429032mm" viewBox="0 0 6.1475053 1.4290322" width="6.147505mm" xmlns="http://www.w3.org/2000/svg" xmlns:xlink="http://www.w3.org/1999/xlink"><clipPath id="a"><path d="m226.013 113.203h17.426v4.051h-17.426z"/></clipPath><clipPath id="b"><path d="m239.35757 115.1478 2.73499-2.54152 2.52212 2.71413-2.73499 2.54151z"/></clipPath><linearGradient id="c" gradientTransform="matrix(2.5136722 -2.3358488 2.3358488 2.5136722 240.63864 116.4691)" gradientUnits="userSpaceOnUse" spreadMethod="pad" x1="0" x2="1" y1="0" y2="0"><stop offset="0" stop-color="#00a8e2"/><stop offset=".874964" stop-color="#00577e"/><stop offset="1" stop-color="#00577e"/></linearGradient><clipPath id="d"><path d="m243.39354 114.10146v2.26552h-2.81491v-2.26552z"/></clipPath><linearGradient id="e"><stop offset="0" stop-color="#007abf"/><stop offset="1" stop-color="#00608f"/></linearGradient><linearGradient id="f" gradientTransform="matrix(0 2.2660204 -2.2660204 0 241.98183 114.10048)" gradientUnits="userSpaceOnUse" spreadMethod="pad" x1="0" x2="1" xlink:href="#e" y1="0" y2="0"/><clipPath id="g"><path d="m226.013 113.203h17.426v4.051h-17.426z"/></clipPath><clipPath id="h"><path d="m239.9292 115.16573 2.15522-2.00275 1.9882 2.13955-2.15522 2.00276z"/></clipPath><linearGradient id="i" gradientTransform="matrix(1.9893527 -1.8486199 1.8486199 1.9893527 240.90908 116.23246)" gradientUnits="userSpaceOnUse" spreadMethod="pad" x1="0" x2="1" y1="0" y2="0"><stop offset="0" stop-color="#00577e"/><stop offset=".254019" stop-color="#00577e"/><stop offset="1" stop-color="#00a8e2"/></linearGradient><clipPath id="j"><path d="m226.013 113.203h17.426v4.051h-17.426z"/></clipPath><clipPath id="k"><path d="m240.03076 114.10146v2.25404h-2.58601v-2.25404z"/></clipPath><linearGradient id="l" gradientTransform="matrix(0 2.2545874 -2.2545874 0 238.73653 114.10048)" gradientUnits="userSpaceOnUse" spreadMethod="pad" x1="0" x2="1" xlink:href="#e" y1="0" y2="0"/><clipPath id="m"><path d="m226.013 113.203h17.426v4.051h-17.426z"/></clipPath><clipPath id="n"><path d="m237.69319 115.35457h2.0889v.0459h-2.0889z"/></clipPath><linearGradient id="o" gradientUnits="userSpaceOnUse" spreadMethod="pad" x1="237.69983" x2="239.7894907" y1="115.3986" y2="115.3986"><stop offset="0" stop-color="#00b9e9"/><stop offset="1" stop-color="#007abf"/></linearGradient><clipPath id="p"><path d="m239.2183 114.73847.53502-.70486.54734.41545-.53502.70487z"/></clipPath><linearGradient id="q" gradientTransform="matrix(.5008975 -.6599076 .6599076 .5008975 239.44418 115.00674)" gradientUnits="userSpaceOnUse" spreadMethod="pad" x1="0" x2="1" y1="0" y2="0"><stop offset="0" stop-color="#00577e"/><stop offset=".00414938" stop-color="#00577e"/><stop offset="1" stop-color="#00a8e2"/></linearGradient><clipPath id="r"><path d="m226.013 113.203h17.426v4.051h-17.426z"/></clipPath><clipPath id="s"><path d="m236.5833 113.24895v3.95897h-.0706v-3.95897z"/></clipPath><linearGradient id="t"><stop offset="0" stop-color="#dedfdc"/><stop offset="1" stop-color="#3f4040"/></linearGradient><linearGradient id="u" gradientTransform="matrix(0 3.9476777 -3.9476777 0 236.582 113.23506)" gradientUnits="userSpaceOnUse" spreadMethod="pad" x1="0" x2="1" xlink:href="#t" y1="0" y2="0"/><clipPath id="v"><path d="m226.013 113.203h17.426v4.051h-17.426z"/></clipPath><clipPath id="w"><path d="m236.5127 113.20322v4.05052h-.0459v-4.05052z"/></clipPath><linearGradient id="x"><stop offset="0" stop-color="#8c8c8a"/><stop offset="1" stop-color="#f7f6f5"/></linearGradient><linearGradient id="y" gradientTransform="matrix(0 4.0514179 -4.0514179 0 236.47383 113.199)" gradientUnits="userSpaceOnUse" spreadMethod="pad" x1="0" x2="1" xlink:href="#x" y1="0" y2="0"/><clipPath id="z"><path d="m226.013 113.203h17.426v4.051h-17.426z"/></clipPath><clipPath id="A"><path d="m227.15662 116.78428.65738-1.15778.68093.38662-.65739 1.15778z"/></clipPath><linearGradient id="B" gradientTransform="matrix(1.151179 -2.0274483 2.0274483 1.151179 228.16224 115.83131)" gradientUnits="userSpaceOnUse" spreadMethod="pad" x1="0" x2="1" y1="0" y2="0"><stop offset="0" stop-color="#d8d8d6"/><stop offset="1" stop-color="#3f4040"/></linearGradient><clipPath id="C"><path d="m228.88551 117.11306-.19163.43273-.90795-.40209.19164-.43273z"/></clipPath><linearGradient id="D"><stop offset="0" stop-color="#3f4040"/><stop offset="1" stop-color="#fff"/></linearGradient><linearGradient id="E" gradientTransform="matrix(-.5316237 1.2004405 -1.2004405 -.5316237 228.82032 116.00709)" gradientUnits="userSpaceOnUse" spreadMethod="pad" x1="0" x2="1" xlink:href="#D" y1="0" y2="0"/><clipPath id="F"><path d="m226.013 113.203h17.426v4.051h-17.426z"/></clipPath><clipPath id="G"><path d="m226.06296 113.22803v3.92314h-.0496v-3.92314z"/></clipPath><linearGradient id="H" gradientTransform="matrix(0 3.9241172 -3.9241172 0 226.01673 113.23506)" gradientUnits="userSpaceOnUse" spreadMethod="pad" x1="0" x2="1" xlink:href="#x" y1="0" y2="0"/><clipPath id="I"><path d="m226.013 113.203h17.426v4.051h-17.426z"/></clipPath><clipPath id="J"><path d="m227.12807 117.11306-.19687.44456-.93466-.41392.19688-.44456z"/></clipPath><linearGradient id="K" gradientTransform="matrix(-.530169 1.1971559 -1.1971559 -.530169 227.3419 115.35803)" gradientUnits="userSpaceOnUse" spreadMethod="pad" x1="0" x2="1" xlink:href="#D" y1="0" y2="0"/><clipPath id="L"><path d="m227.04574 115.68085.21064-.37098.61203.34751-.21064.37098z"/></clipPath><linearGradient id="M" gradientTransform="matrix(1.1595973 -2.0422746 2.0422746 1.1595973 227.54924 115.49776)" gradientUnits="userSpaceOnUse" spreadMethod="pad" x1="0" x2="1" y1="0" y2="0"><stop offset="0" stop-color="#eeeeec"/><stop offset="1" stop-color="#3f4040"/></linearGradient><clipPath id="N"><path d="m227.80281 114.79602v-1.56798h.0459v1.56798z"/></clipPath><linearGradient id="O" gradientTransform="matrix(0 -1.5422203 1.5422203 0 227.8287 114.77658)" gradientUnits="userSpaceOnUse" spreadMethod="pad" x1="0" x2="1" y1="0" y2="0"><stop offset="0" stop-color="#eaeae8"/><stop offset="1" stop-color="#dfdfdd"/></linearGradient><clipPath id="P"><path d="m226.013 113.203h17.426v4.051h-17.426z"/></clipPath><clipPath id="Q"><path d="m227.1112 117.15117-.18.40645-.91778-.40645.17999-.40645z"/></clipPath><linearGradient id="R" gradientTransform="matrix(-.5322729 1.2019064 -1.2019064 -.5322729 227.35993 115.35352)" gradientUnits="userSpaceOnUse" spreadMethod="pad" x1="0" x2="1" xlink:href="#D" y1="0" y2="0"/><clipPath id="S"><path d="m228.86871 117.15117-.17477.39464-.89113-.39464.17477-.39464z"/></clipPath><linearGradient id="T" gradientTransform="matrix(-.5331422 1.2038695 -1.2038695 -.5331422 228.83835 116.00484)" gradientUnits="userSpaceOnUse" spreadMethod="pad" x1="0" x2="1" xlink:href="#D" y1="0" y2="0"/><clipPath id="U"><path d="m237.48011 114.2111-2.69454 4.66709-4.6127-2.66314 2.69454-4.66709z"/></clipPath><linearGradient id="V" gradientTransform="matrix(-2.0010102 3.4658518 -3.4658518 -2.0010102 234.79709 113.54156)" gradientUnits="userSpaceOnUse" spreadMethod="pad" x1="0" x2="1" xlink:href="#D" y1="0" y2="0"/><clipPath id="W"><path d="m232.51652 116.18095-1.27683 2.21154-2.7096-1.56439 1.27683-2.21154z"/></clipPath><linearGradient id="X" gradientTransform="matrix(-1.2650325 2.1911009 -2.1911009 -1.2650325 231.53375 114.77207)" gradientUnits="userSpaceOnUse" spreadMethod="pad" x1="0" x2="1" xlink:href="#D" y1="0" y2="0"/><clipPath id="Y"><path d="m229.13633 113.2294v3.92227h-.0458v-3.92227z"/></clipPath><linearGradient id="Z" gradientTransform="matrix(0 3.9230721 -3.9230721 0 229.09977 113.23506)" gradientUnits="userSpaceOnUse" spreadMethod="pad" x1="0" x2="1" xlink:href="#x" y1="0" y2="0"/><clipPath id="aa"><path d="m229.72895 116.12593.57123-.95744 1.00416.59911-.57123.95744z"/></clipPath><linearGradient id="ab" gradientTransform="matrix(.2119086 -.3551805 .3551805 .2119086 230.41593 116.11555)" gradientUnits="userSpaceOnUse" spreadMethod="pad" x1="0" x2="1" y1="0" y2="0"><stop offset="0" stop-color="#3f4040"/><stop offset=".211618" stop-color="#626361"/><stop offset="1" stop-color="#d8d8d6"/></linearGradient><clipPath id="ac"><path d="m226.013 113.203h17.426v4.051h-17.426z"/></clipPath><clipPath id="ad"><path d="m232.7082 116.26571v-2.0886h2.08838v2.0886z"/></clipPath><linearGradient id="ae" gradientTransform="matrix(0 -.9968285 .9968285 0 233.75138 115.2138)" gradientUnits="userSpaceOnUse" spreadMethod="pad" x1="0" x2="1" y1="0" y2="0"><stop offset="0" stop-color="#3f4040"/><stop offset="1" stop-color="#f7f6f5"/></linearGradient><clipPath id="af"><path d="m235.21681 114.82886-1.07208 1.8569-1.85684-1.07204 1.07208-1.8569z"/></clipPath><linearGradient id="ag"><stop offset="0" stop-color="#3f4040"/><stop offset="1" stop-color="#dedfdc"/></linearGradient><linearGradient id="ah" gradientTransform="matrix(-.7854279 1.3604008 -1.3604008 -.7854279 234.13901 114.53994)" gradientUnits="userSpaceOnUse" spreadMethod="pad" x1="0" x2="1" xlink:href="#ag" y1="0" y2="0"/><clipPath id="ai"><path d="m226.013 113.203h17.426v4.051h-17.426z"/></clipPath><clipPath id="aj"><path d="m231.47759 115.3259.28649-.42972.31161.20774-.28648.42973z"/></clipPath><linearGradient id="ak" gradientTransform="matrix(.2417739 -.3626602 .3626602 .2417739 231.60812 115.47015)" gradientUnits="userSpaceOnUse" spreadMethod="pad" x1="0" x2="1" xlink:href="#ag" y1="0" y2="0"/><clipPath id="al"><path d="m231.17055 115.13364.29222-.43834.48475.32317-.29222.43833z"/></clipPath><linearGradient id="am" gradientTransform="matrix(.2412982 -.3619468 .3619468 .2412982 231.36473 115.36761)" gradientUnits="userSpaceOnUse" spreadMethod="pad" x1="0" x2="1" xlink:href="#ag" y1="0" y2="0"/><clipPath id="an"><path d="m226.013 113.203h17.426v4.051h-17.426z"/></clipPath><clipPath id="ao"><path d="m229.70481 114.60484.65196-.93556.96766.67433-.65196.93556z"/></clipPath><linearGradient id="ap" gradientTransform="matrix(.3079551 -.4419145 .4419145 .3079551 230.41142 114.61685)" gradientUnits="userSpaceOnUse" spreadMethod="pad" x1="0" x2="1" y1="0" y2="0"><stop offset="0" stop-color="#3f4040"/><stop offset=".211618" stop-color="#626361"/><stop offset="1" stop-color="#eeeeec"/></linearGradient><clipPath id="aq"><path d="m226.013 113.203h17.426v4.051h-17.426z"/></clipPath><clipPath id="ar"><path d="m235.74477 113.20885v4.00815h-9.73137v-4.00815z"/></clipPath><linearGradient id="as" gradientTransform="matrix(0 4.0081759 -4.0081759 0 230.86666 113.199)" gradientUnits="userSpaceOnUse" spreadMethod="pad" x1="0" x2="1" xlink:href="#t" y1="0" y2="0"/><g clip-path="url(#ar)" transform="matrix(.35277777 0 0 -.35277777 -79.732358 41.36453)"><path d="m233.75 117.217c-1.096 0-1.657-.807-1.796-1.133.002.489-.48 1.067-1.046 1.068h-1.818v-3.923h1.696c.683 0 1.17.592 1.171 1.1.156-.32.697-1.12 1.795-1.12 1.098.001 1.993.914 1.992 2.013 0 1.123-.894 1.994-1.992 1.995zm-3.643-.939h.539c.157 0 .28-.155.28-.331 0-.176-.123-.331-.28-.331h-.539zm2.646-1.056c0 .55.448.998 1 .998.551 0 .998-.448.998-.998 0-.552-.447-.999-.998-.999-.552 0-1 .447-1 .999m-1.389 0c .123.015.339.145.411.235-.025-.111-.005-.391.024-.503-.082.128-.31.251-.435.268m-1.259-.416h.539c.156 0 .281-.155.281-.332 0-.177-.125-.331-.281-.331h-.539zm-2.302 2.345v-1.459h-.692v1.459h-1.098l.004-3.923h1.094v1.522h.692v-1.522h1.066v3.923zm5.165-1.929c0-.434.351-.785.785-.785.432 0 .784.351.784.785 0 .432-.352.784-.784.784-.434 0-.785-.352-.785-.784" fill="url(#as)"/></g><g clip-path="url(#aq)" transform="matrix(.35277777 0 0 -.35277777 -79.732358 41.36453)"><g transform="translate(231.9113 114.5266)"><path d="m0 0c-.001-.682-.469-1.252-1.125-1.252l-1.65.001c-.025-.026-.046-.046-.046-.046l1.696-.001c.683 0 1.17.592 1.171 1.101 0 0-.021.088-.046.197" fill="#3f4040"/></g></g><g clip-path="url(#ao)" transform="matrix(.35277777 0 0 -.35277777 -79.732358 41.36453)"><path d="m230.644 114.806c.156 0 .281-.155.281-.332 0-.177-.125-.331-.281-.331h-.539l-.046-.046h.585c.185.001.327.179.327.377 0 .199-.142.377-.327.378z" fill="url(#ap)"/></g><g clip-path="url(#an)" transform="matrix(.35277777 0 0 -.35277777 -79.732358 41.36453)"><g transform="translate(230.0588 114.8515)"><path d="m0 0c .025-.025.046-.046.046-.046h.539v.046z" fill="#3f4040"/></g><g transform="translate(230.0588 114.8515)"><path d="m0 0v-.755l.046.046v.663s-.021.021-.046.046" fill="#3f4040"/></g></g><g clip-path="url(#al)" transform="matrix(.35277777 0 0 -.35277777 -79.732358 41.36453)"><path d="m231.309 115.226c.202-.076.333-.122.5-.3-.031.07-.056.126-.056.126-.087.093-.226.141-.308.171s-.061.001-.135.003z" fill="url(#am)"/></g><g clip-path="url(#aj)" transform="matrix(.35277777 0 0 -.35277777 -79.732358 41.36453)"><path d="m231.749 115.393c-.002-.107-.005-.228.004-.341s.025-.056.056-.126c-.019.241-.016.36-.012.577-.026-.061-.048-.11-.048-.11" fill="url(#ak)"/></g><g clip-path="url(#ai)" transform="matrix(.35277777 0 0 -.35277777 -79.732358 41.36453)"><g transform="translate(231.3087 115.2257)"><path d="m0 0c .075-.001.136-.002.136-.002.124.042.218.084.304.169 0 0 .022.049.048.111-.159-.157-.247-.196-.488-.278" fill="#3f4040"/></g></g><g clip-path="url(#af)" transform="matrix(.35277777 0 0 -.35277777 -79.732358 41.36453)"><path d="m232.968 115.222c0-.434.351-.785.785-.785.432 0 .784.351.784.785 0 .432-.352.784-.784.784-.434 0-.785-.352-.785-.784m.046 0c0 .407.33.739.739.739.407 0 .738-.332.738-.739 0-.409-.331-.74-.738-.739-.409 0-.739.33-.739.739" fill="url(#ah)"/></g><g clip-path="url(#ad)" transform="matrix(.35277777 0 0 -.35277777 -79.732358 41.36453)"><path d="m232.708 115.222c0-.577.468-1.045 1.045-1.045.576 0 1.043.468 1.043 1.045 0 .576-.467 1.044-1.043 1.044-.577 0-1.045-.468-1.045-1.044m.046 0c0 .55.447.998.999.998.551 0 .998-.448.998-.998 0-.552-.447-.999-.998-.999-.552 0-.999.447-.999.999" fill="url(#ae)"/></g><g clip-path="url(#ac)" transform="matrix(.35277777 0 0 -.35277777 -79.732358 41.36453)"><g transform="translate(230.0609 115.5696)"><path d="m0 0v .754l.046-.045v-.663s-.021-.021-.046-.046" fill="#3f4040"/></g><g transform="translate(230.0609 116.324)"><path d="m0 0 .046-.046h.539v.046z" fill="#3f4040"/></g></g><g clip-path="url(#aa)" transform="matrix(.35277777 0 0 -.35277777 -79.732358 41.36453)"><path d="m230.646 116.278c.157 0 .28-.155.28-.331 0-.176-.123-.331-.28-.331h-.539l-.046-.046h.585c.186 0 .326.178.326.377 0 .198-.14.376-.326.377z" fill="url(#ab)"/></g><g clip-path="url(#Y)" transform="matrix(.35277777 0 0 -.35277777 -79.732358 41.36453)"><path d="m229.09 113.229s.021.021.046.046v3.831c-.025.025-.046.046-.046.046z" fill="url(#Z)"/></g><g clip-path="url(#W)" transform="matrix(.35277777 0 0 -.35277777 -79.732358 41.36453)"><path d="m229.091 117.152.045-.046h1.772c.538 0 1.002-.556 1-1.249.026.125.046.227.046.227.002.489-.481 1.067-1.046 1.068z" fill="url(#X)"/></g><g clip-path="url(#U)" transform="matrix(.35277777 0 0 -.35277777 -79.732358 41.36453)"><path d="m231.954 116.084s-.02-.102-.046-.227c.223.526.771 1.314 1.842 1.314.538 0 1.025-.213 1.378-.563.352-.35.57-.837.57-1.385.001-.538-.218-1.029-.57-1.386-.353-.359-.84-.582-1.376-.582-1.072 0-1.602.782-1.841 1.272.025-.109.046-.198.046-.198.156-.32.697-1.12 1.795-1.12.549 0 1.047.229 1.408.595.361.366.584.869.584 1.419 0 .56-.223 1.059-.584 1.417-.361.358-.859.577-1.41.577-1.096 0-1.657-.807-1.796-1.133" fill="url(#V)"/></g><g clip-path="url(#S)" transform="matrix(.35277777 0 0 -.35277777 -79.732358 41.36453)"><path d="m227.803 117.151h1.066z" fill="url(#T)"/></g><g clip-path="url(#Q)" transform="matrix(.35277777 0 0 -.35277777 -79.732358 41.36453)"><path d="m226.013 117.151h1.098z" fill="url(#R)"/></g><g clip-path="url(#P)" transform="matrix(.35277777 0 0 -.35277777 -79.732358 41.36453)"><g transform="translate(227.0654 113.2735)"><path d="m0 0h-1.002c-.026-.025-.046-.046-.046-.046h1.094s-.021.021-.046.046" fill="#3f4040"/></g><g transform="translate(228.8229 113.2735)"><path d="m0 0h-.974c-.025-.025-.046-.046-.046-.046h1.066z" fill="#3f4040"/></g><g transform="translate(227.0654 114.796)"><path d="m0 0v-1.522c.025-.025.046-.046.046-.046v1.522z" fill="#3f4040"/></g><g transform="translate(227.0654 114.796)"><path d="m0 0 .046-.046h.691s.021.021.046.046z" fill="#3f4040"/></g></g><g clip-path="url(#N)" transform="matrix(.35277777 0 0 -.35277777 -79.732358 41.36453)"><path d="m227.803 114.75v-1.522l.045.045v1.523z" fill="url(#O)"/></g><g clip-path="url(#L)" transform="matrix(.35277777 0 0 -.35277777 -79.732358 41.36453)"><path d="m227.111 115.692-.046-.046h.783c-.025.026-.045.046-.045.046z" fill="url(#M)"/></g><g clip-path="url(#J)" transform="matrix(.35277777 0 0 -.35277777 -79.732358 41.36453)"><path d="m226.013 117.151.046-.046h1.006c.025.025.045.045.046.046z" fill="url(#K)"/></g><g clip-path="url(#I)" transform="matrix(.35277777 0 0 -.35277777 -79.732358 41.36453)"><g transform="translate(227.0654 115.6462)"><path d="m0 0v1.459c.025.026.046.046.046.046v-1.459z" fill="#6b6d6b"/></g></g><g clip-path="url(#G)" transform="matrix(.35277777 0 0 -.35277777 -79.732358 41.36453)"><path d="m226.013 117.151.004-3.923s.021.021.046.045l-.004 3.832z" fill="url(#H)"/></g><g clip-path="url(#F)" transform="matrix(.35277777 0 0 -.35277777 -79.732358 41.36453)"><g transform="translate(228.8229 113.2735)"><path d="m0 0v3.832l.046.046v-3.924s-.021.021-.046.046" fill="#6b6d6b"/></g></g><g clip-path="url(#C)" transform="matrix(.35277777 0 0 -.35277777 -79.732358 41.36453)"><path d="m227.803 117.151s.02-.02.045-.046h.975l.045.046z" fill="url(#E)"/></g><g clip-path="url(#A)" transform="matrix(.35277777 0 0 -.35277777 -79.732358 41.36453)"><path d="m227.803 117.151v-1.459s.02-.02.045-.046v1.459c-.024.025-.044.045-.045.046z" fill="url(#B)"/></g><g clip-path="url(#z)" transform="matrix(.35277777 0 0 -.35277777 -79.732358 41.36453)"><g transform="translate(236.6209 113.2113)"><path d="m0 0c-.003.003-.006.006-.01.01-.002.002-.003.003-.006.006-.001.001-.002.002-.003.003s-.002.002-.003.003-.001.001-.002.002-.001.001-.002.002c0 0 0 .001-.001.001 0 0-.001.001-.001.001 0 .001-.001.001-.001.001s-.001.001-.001.001c-.002.002-.003.003-.005.005 0 0 0 .001-.001.001 0 .001-.001.001-.001.001-.001 0-.001.001-.001.001h-.07v-.001c-.001 0-.001 0-.002-.001 0 0-.001-.001-.001-.001-.002-.002-.003-.003-.005-.005 0 0 0-.001-.001-.001 0 0-.001 0-.001-.001l-.001-.001s-.001-.001-.001-.001c-.001-.001-.001-.001-.002-.002s-.001-.001-.002-.002-.002-.002-.002-.003c-.002-.001-.003-.002-.004-.003-.002-.003-.004-.004-.006-.006-.004-.004-.007-.007-.01-.01-.005-.005-.008-.008-.008-.008h.162s-.003.003-.008.008" fill="#3f4040"/></g></g><g clip-path="url(#w)" transform="matrix(.35277777 0 0 -.35277777 -79.732358 41.36453)"><path d="m236.467 113.203c.001.001.009.01.022.022 0 .001.001.001.002.002l.004.004c0 .001.001.001.001.001.001.001.001.001.001.001 0 .001 0 .001.001.001s0 .001.001.001l.008.008c0 .001 0 .001.001.001v.001h.001v.001h.001v.001h.001v.001h.001v.001h.001v3.959c-.001.001-.001.001-.001.001v.001h-.001c0 .001 0 .001-.001.001s0 0-.001 0v .001s0 0-.001 0l-.001.001v.001c-.001.001-.001.001-.001.001-.002.002-.003.003-.004.004-.001.001-.001.001-.002.002h-.001c-.001 0-.001.001-.001.001-.001.001-.001.001-.001.002s0 .001-.001.001l-.001.001c-.001.001-.001.001-.002.002l-.001.001-.001.001c-.001 0-.002.001-.002.001-.001.001-.001.002-.001.002l-.002.002c-.001.001-.002.002-.003.003l-.002.001c-.001.001-.002.002-.002.003-.001.001-.003.002-.003.003-.002.002-.002.002-.004.003 0 .001-.001.002-.002.003s-.001.001-.002.002l-.001.001z" fill="url(#y)"/></g><g clip-path="url(#v)" transform="matrix(.35277777 0 0 -.35277777 -79.732358 41.36453)"><g transform="translate(236.4668 117.2538)"><path d="m0 0h .001c0-.001.001-.002.002-.003l.003-.003c.001-.001.002-.002.004-.003.001-.002.002-.003.003-.004l.003-.003.002-.002.003-.003s.001-.001.002-.001l.001-.002.002-.002.001-.001.001-.001.002-.002s.001-.001.001-.001l.001-.001c.001-.001.001-.001.001-.001l.002-.002s.001-.001.002-.002c.001 0 .001-.001.002-.002s.001-.001.001-.001c.001 0 .001-.001.001-.001.001 0 .001-.001.001-.001s.001 0 .001-.001h.001v-.001l.001-.001s.001 0 .001-.001h.07.001v.001h.001v.001h.001v.001h.001v.001c.001 0 .001.001.001.001l.001.001h.001v.001h.001c0 .001.001.002.001.002.001.001.002.002.003.002 0 .001.001.001.001.002 0 0 .001 0 .001.001.001 0 .001.001.001.001.001 0 .001.001.002.001 0 .001 0 .001.001.002l.001.001c.001.001.001.001.002.001l.001.002c.001 0 .001.001.002.002 0 0 .001.001.002.001 0 .001.001.002.002.003l.002.002c.001.001.003.002.003.003.002.001.003.002.004.004.001.001.002.002.003.003l.004.003c.001.001.002.002.002.003z" fill="#f3f2f0"/></g><g transform="translate(236.5861 117.2108)"><path d="m0 0-.001-.001c-.001-.001-.001-.001-.002-.002v-3.959l.003-.003c.024-.024.043-.043.043-.043v4.051z" fill="#6b6d6b"/></g></g><g clip-path="url(#s)" transform="matrix(.35277777 0 0 -.35277777 -79.732358 41.36453)"><path d="m236.513 113.249h.07v3.959h-.07z" fill="url(#u)"/></g><g clip-path="url(#r)" transform="matrix(.35277777 0 0 -.35277777 -79.732358 41.36453)"><g transform="translate(237.7307 114.0639)"><path d="m0 0c-.003.003-.006.006-.01.01-.002.002-.003.003-.006.006-.001.001-.002.002-.003.003s-.002.002-.003.003-.001.001-.002.002c-.001 0-.001.001-.002.002 0 0-.001 0-.001.001 0 0-.001.001-.001.001s-.001.001-.001.001-.001.001-.001.001c-.002.001-.003.003-.005.005 0 0-.001 0-.001.001 0 0-.001.001-.001.001-.001 0-.001.001-.001.001h-.248v-.001c-.001 0-.001-.001-.002-.001 0-.001 0-.001-.001-.001-.002-.002-.003-.004-.005-.005 0 0 0-.001-.001-.001 0 0 0-.001-.001-.001 0 0 0-.001-.001-.001l-.001-.001-.002-.002c0-.001-.001-.001-.002-.002l-.002-.003-.004-.003c-.002-.003-.004-.004-.006-.006-.004-.004-.007-.007-.01-.01-.005-.005-.008-.008-.008-.008h.34s-.003.003-.008.008" fill="#00577e"/></g><g transform="translate(240.0683 114.0639)"><path d="m0 0c-.003.003-.006.006-.01.01-.002.002-.003.003-.006.006l-.003.003c-.001.001-.002.002-.003.003s-.001.001-.002.002l-.002.002s-.001 0-.001.001c0 0-.001.001-.001.001s-.001.001-.001.001-.001.001-.001.001c-.002.001-.003.003-.005.005 0 0-.001 0-.001.001 0 0-.001.001-.001.001l-.001.001h-.248v-.001l-.002-.001c0-.001 0-.001-.001-.001-.002-.002-.003-.004-.005-.005 0 0 0-.001-.001-.001 0 0 0-.001-.001-.001 0 0 0-.001-.001-.001 0-.001 0-.001-.001-.001 0-.001-.001-.002-.002-.002 0-.001-.001-.001-.002-.002s-.001-.002-.002-.003-.003-.002-.004-.003c-.002-.003-.004-.004-.006-.006-.004-.004-.007-.007-.01-.01l-.008-.008h.34s-.003.003-.008.008" fill="#00577e"/></g><g transform="translate(237.6931 114.1015)"><path d="m0 0v1.031l.046-.046v-1.031l-.043.043" fill="#00577e"/></g><g transform="translate(237.6931 115.1319)"><path d="m0 0 .002-.002c.002-.002.004-.004.007-.006 0-.001 0-.001.001-.002 0 0 .001-.001.002-.002l.002-.001c0-.001.001-.002.002-.003l.006-.006.006-.006.018-.018h1.998s.012.013.03.03c0 .001.001.002.002.003 0 0 .001.001.001.001.004.003.007.007.011.01l.001.002z" fill="#00577e"/></g></g><g clip-path="url(#p)" transform="matrix(.35277777 0 0 -.35277777 -79.732358 41.36453)"><path d="m239.782 115.132v-.001h-.001s0 0 0-.001h-.001s0 0 0-.001h-.001c0-.001 0-.001 0-.001h-.001s0 0 0-.001c-.001 0-.001 0-.001 0v-.001h-.001c0-.001 0-.001-.001-.001v-.001c-.002 0-.002-.001-.004-.003s0-.001-.001-.001l-.001-.001c-.001-.001-.001-.001-.001-.002l-.002-.001-.001-.001s-.001 0-.001-.001 0 0-.001-.001l-.001-.001c0-.001-.001-.001-.001-.002l-.002-.002-.002-.001c-.001-.001-.002-.002-.002-.002s-.001-.001-.002-.002c-.001-.001-.002-.002-.003-.003 0-.001-.001-.002-.002-.003-.001-.001-.001-.001-.002-.002-.002-.001-.002-.002-.003-.003-.002-.001-.003-.002-.003-.003-.001-.001-.002-.001-.002-.001 0-.001-.001-.001-.001-.001v-1.031s.009.009.022.022l.002.001.003.004c0 .001.001.001.001.002l.001.001c.001 0 .001.001.002.001 0 .001 0 .001.001.001l.006.007c.001 0 .001 0 .001.001h.001v.001h.001v.001h.001.001v.001h.001v.001h.001v.001h.001v1.031z" fill="url(#q)"/></g><g clip-path="url(#n)" transform="matrix(.35277777 0 0 -.35277777 -79.732358 41.36453)"><path d="m237.739 115.401v-.001l-.013-.013c-.001-.001-.002-.002-.003-.002l-.002-.003c-.001-.001-.002-.001-.002-.002-.001-.001-.002-.002-.003-.002-.001-.002-.003-.003-.004-.004l-.001-.002c-.001 0-.001-.001-.002-.001l-.001-.002-.001-.001c-.001 0-.001-.001-.002-.001s-.001 0-.001-.001c-.001-.001-.001-.001-.002-.002 0-.001-.001-.002-.002-.002 0-.001 0-.001 0-.001-.001 0-.001-.001-.002-.001v-.001s0 0-.001 0v-.001c-.001 0-.001 0-.001 0 0-.001 0-.001 0-.001h-.001c0-.001 0-.001 0-.001s0 0-.001 0v-.001h2.089l-.001.001c-.001 0-.001 0-.001.001h-.001c-.001 0-.001 0-.001.001-.001 0-.001 0-.001.001h-.001v.001c-.001 0-.001.001-.002.001v.001c-.001 0-.002.001-.002.002 0 .001-.001.001-.002.002 0 .001 0 .001-.001.001-.001 0-.001.001-.001.001-.001 0-.001.001-.002.001 0 .001-.001.001-.001.002-.001 0-.001.001-.001.001-.001 0-.001.001-.001.002-.002.001-.003.002-.005.004l-.002.002c-.001.001-.002.001-.002.002l-.003.003c-.001 0-.002.001-.003.002l-.012.013v.001z" fill="url(#o)"/></g><g clip-path="url(#m)" transform="matrix(.35277777 0 0 -.35277777 -79.732358 41.36453)"><g transform="translate(237.7353 116.3977)"><path d="m0 0c-.006-.006-.018-.018-.033-.033-.002-.002-.004-.004-.006-.006-.001-.001-.001-.001-.002-.002 0 0-.001 0-.001-.001v-1.001c0 .001.001.001.001.001l.002.002c.023.024.043.043.043.043v1.001s-.002-.001-.004-.004" fill="#00577e"/></g><g transform="translate(237.3988 116.4013)"><path d="m0 0 .003-.003.001-.001.002-.002.004-.004.003-.003.003-.003c.001-.001.002-.001.002-.002l.003-.003s.001-.001.001-.002l.002-.001.002-.002s.001-.001.001-.001c.001 0 .001-.001.001-.001.001-.001.002-.002.004-.003 0-.001 0-.001 0-.001.001 0 .001-.001.001-.001l.002-.002s.001-.001.002-.002l.003-.003c.001-.001.002-.002.002-.002 0-.001.001-.001.001-.001h.001c0-.001 0-.001 0-.001h.001c0-.001 0-.001 0-.001h.001v-.001h.248.001v.001l.001.001v.001h.001.001v.001c.001 0 .001.001.002.002.001.001.002.002.003.003h.001c0 .001.001.002.001.002l.002.002s0 .001.001.001l.001.001c.001.001.002.002.003.003 0 0 .001.001.001.001s.001.001.001.001c.001.001.001.001.002.002 0 0 .001.001.001.001.001.001.002.002.003.002 0 .001.001.002.002.003s.001.001.002.002.002.002.003.003.002.002.004.003c.001.002.002.003.003.004s.002.002.002.002l.001.001c.001.001.002.002.002.003h.001z" fill="#00b9e9"/></g><g transform="translate(239.7821 116.3555)"><path d="m0 0v .001h-.001v.001h-.001v.001c-.001 0-.001 0-.001 0v .001h-.001v.001c-.001 0-.001 0-.001 0s0 .001-.001.001v.001h-.001c-.001.001-.001.002-.002.002-.002.002-.003.004-.005.005-.001.001-.001.001-.002.002-.011.012-.021.021-.026.026v.001l-.002.002-.001.001h-.001v-1.001c.001-.001.001-.001.002-.001l.002-.003s.001-.001.002-.002l.003-.003.003-.003c.001-.001.002-.002.002-.002l.003-.003c.001 0 .002-.001.002-.002l.002-.002c.001 0 .001-.001.002-.002 0 0 .001-.001.001-.001l.002-.002s.001 0 .001-.001c0 0 .001-.001.001-.001.001 0 .001-.001.001-.001.001-.001.001-.001.001-.001.001-.001.001-.001.002-.001 0-.001 0-.001.001-.001 0-.001.001-.001.001-.002 0 0 .001-.001.001-.001.001-.001.003-.002.004-.004h.001c0-.001 0-.001 0-.001.001 0 .001 0 .001-.001h.001v-.001h.001v-.001h.001c0-.001 0-.001 0-.001h.001c0-.001 0-.001 0-.001h.001v-.001z" fill="#00a8e2"/></g><g transform="translate(239.7366 116.4013)"><path d="m0 0 .003-.003.001-.001s.001-.001.002-.002.002-.002.003-.004c.002-.001.003-.002.004-.003l.003-.003.002-.002.003-.003.001-.002c.001 0 .002-.001.002-.001l.002-.002s.001-.001.001-.001l.001-.001.003-.003.001-.001c.001 0 .001-.001.001-.001l.002-.002s.001-.001.001-.002h.001l.003-.003c.001-.001.001-.002.002-.002v-.001h.001.001c0-.001 0-.001 0-.001.001-.001.001-.001.001-.001s0-.001.001-.001h.248v.001h.001v.001h.001v.001h.001v.001h.001s.001.001.001.002h.001c.001.001.002.002.003.003.001.001.002.002.002.002.001.001.001.001.002.002 0 0 0 .001.001.001v.001c.001.001.002.002.003.003.001 0 .001.001.002.001 0 0 .001.001.001.001 0 .001.001.001.002.002 0 0 .001.001.001.001.001.001.002.002.002.002.001.001.002.002.002.003.001.001.002.001.003.002s.002.002.003.003l.003.003c.002.002.003.003.004.004s.001.002.002.002c.001.001.001.001.001.001.001.001.002.002.002.003h.001z" fill="#00a8e2"/></g><g transform="translate(240.0727 116.3977)"><path d="m0 0c-.006-.006-.018-.018-.033-.033-.002-.002-.004-.004-.006-.006-.001-.001-.001-.001-.001-.002-.001 0-.001 0-.002-.001v-2.254l.003-.003c.024-.024.043-.043.043-.043v2.346s-.002-.001-.004-.004" fill="#00577e"/></g><g transform="translate(237.4446 116.3555)"><path d="m0 0v .001h-.001v.001h-.001c0 .001 0 .001-.001.001h-.001v.001l-.001.001s-.001.001-.001.001v.001c-.001 0-.001 0-.001 0-.001.001-.002.002-.002.002-.002.002-.003.004-.005.005-.001.001-.001.001-.002.002-.012.012-.021.021-.026.026l-.001.001s-.001.001-.001.002l-.002.001v-2.346l.023.022c0 .001.001.002.001.002l.004.004s.001 0 .001.001c.001 0 .001.001.001.001.001.001.001.001.002.001 0 .001 0 .001.001.001l.007.007v.001s0 0 .001.001c.001.001.001.001.001.001v.001h.001.001v.001l.001.001h.001v.001z" fill="#00a8e2"/></g></g><g clip-path="url(#k)" transform="matrix(.35277777 0 0 -.35277777 -79.732358 41.36453)"><path d="m239.783 116.356v-1.001h-2.09v1.001h-.249v-2.255h.249v1.031h2.09v-1.031h.248v2.255z" fill="url(#l)"/></g><g clip-path="url(#j)" transform="matrix(.35277777 0 0 -.35277777 -79.732358 41.36453)"><g transform="translate(240.8784 116.1502)"><path d="m0 0c-.005.005-.01.01-.015.015 0 .001-.001.001-.001.001l-.001.001c0 .001-.001.001-.001.001v-1.868s.001 0 .001.001c0 0 0 0 .001.001 0 0 .001.001.001.001.002.002.004.004.007.006.003.004.007.008.01.011l.007.007c.012.012.019.019.019.019v1.776z" fill="#00577e"/></g></g><g clip-path="url(#h)" transform="matrix(.35277777 0 0 -.35277777 -79.732358 41.36453)"><path d="m242.538 116.168h-1.677c.006-.007.012-.012.018-.018.001-.001.002-.002.003-.004.003-.002.005-.005.007-.006.003-.003.007-.007.009-.009.002-.002.004-.004.005-.005.002-.003.004-.004.004-.004h1.631.036.007c.002-.001.006-.001.009-.001.01-.001.019-.001.027-.002.004-.001.009-.001.012-.001h.001c.01-.002.02-.003.03-.004.003 0 .008-.001.011-.002.009-.001.018-.003.026-.005.002 0 .004-.001.007-.001.002-.001.004-.001.006-.001.008-.002.016-.004.024-.007.003-.001.008-.002.01-.002.009-.003.018-.006.026-.009h.002c.003-.001.006-.002.008-.003.009-.004.018-.007.026-.011.002-.001.004-.002.007-.003.007-.003.014-.007.021-.01.005-.003.01-.006.016-.009.001 0 .002-.001.002-.002.029-.017.055-.037.079-.061.001-.001.001-.002.002-.003.004-.005.008-.009.013-.015.003-.003.006-.006.009-.009.003-.004.005-.008.008-.01.003-.005.006-.008.008-.012.003-.004.006-.007.007-.011.003-.004.006-.008.008-.012.002-.002.004-.005.006-.008.001-.002.003-.005.004-.008.001-.002.003-.005.005-.008.001-.003.003-.006.004-.009.001-.002.003-.004.004-.006.002-.003.003-.007.005-.01 0-.003.002-.006.003-.009.002-.002.003-.005.004-.006.001-.004.002-.008.004-.012.001-.003.003-.005.004-.008.001-.002.002-.005.002-.007.002-.004.003-.009.005-.013.001-.004.003-.006.004-.009 0-.001 0-.003 0-.004.001-.001.001-.002.002-.003 0-.003.001-.005.002-.006.002-.008.004-.015.006-.022 0-.001 0-.001 0-.002.002-.004.003-.008.004-.012.002-.007.004-.014.005-.021.001-.005.002-.01.003-.015s0 0 0-.001c.002-.006.003-.013.004-.02s.001 0 .001-.001c.001-.004.001-.008.001-.012 0-.001.001-.002.001-.003.001-.008.002-.015.004-.022 0-.001 0-.003 0-.004.001-.007.002-.014.003-.022 0-.005 0-.009.001-.014 0-.004.001-.01.001-.014.001-.005.002-.012.002-.017 0-.002 0-.003 0-.004.001-.003.001-.006.001-.009 0-.001 0-.002 0-.003.001-.002.001-.004.001-.007 0-.009.001-.018.001-.027 0-.001.001-.002.001-.003 0-.002 0-.003 0-.004v-.002c0-.001 0-.002 0-.004 0-.003 0-.004 0-.005v-.001c.001-.015.001-.03.001-.046v-.477c-.005-.006-.001-.017 0-.025-.001-.005-.001-.01-.001-.015 0-.004 0-.007 0-.011 0-.001 0-.002 0-.002v-.001c0-.007-.001-.015-.001-.021 0-.002 0-.004 0-.004 0-.004-.001-.007-.001-.009 0-.002 0-.004 0-.005 0-.001 0-.003 0-.004-.001-.006-.001-.012-.002-.018 0-.003 0-.007-.001-.009 0-.002 0-.005 0-.007-.001-.001-.001-.002-.001-.004 0-.006-.001-.011-.002-.016 0-.002 0-.005 0-.008 0-.002 0-.004 0-.007-.001-.002-.001-.004-.001-.006-.001-.005-.002-.009-.002-.014-.001-.001-.001-.003-.001-.005 0-.001-.001-.002-.001-.003-.002-.011-.003-.02-.005-.031 0-.003 0-.005-.001-.007 0-.002-.001-.005-.001-.007-.003-.009-.005-.019-.006-.028-.001-.001-.001-.002-.001-.004-.002-.005-.003-.01-.004-.015-.002-.007-.004-.013-.006-.019 0-.003-.001-.006-.002-.008-.001-.002-.001-.004-.002-.005-.003-.009-.005-.017-.008-.025-.001-.002-.002-.005-.003-.007-.001-.002-.001-.003-.001-.005-.003-.007-.006-.013-.009-.02-.002-.006-.005-.012-.008-.018 0-.001-.001-.003-.002-.005-.023-.045-.05-.084-.081-.116-.002-.002-.003-.004-.004-.005-.004-.004-.009-.008-.013-.011-.004-.004-.008-.008-.012-.011-.005-.004-.008-.007-.013-.01-.004-.004-.009-.007-.013-.01-.005-.004-.009-.006-.014-.009-.005-.004-.01-.007-.015-.01-.001 0-.002-.001-.003-.002-.002-.001-.005-.001-.007-.003-.006-.004-.013-.007-.019-.01-.003-.001-.004-.002-.007-.003-.002-.001-.003-.002-.004-.003-.007-.002-.014-.005-.021-.008-.003-.001-.006-.002-.008-.003-.001 0-.001 0-.002-.001-.008-.003-.015-.006-.024-.008-.002 0-.003-.001-.005-.001-.001-.001-.002-.001-.003-.001-.002-.001-.006-.002-.01-.003-.001-.001-.004-.002-.007-.002-.002 0-.003 0-.004-.001-.003 0-.005-.001-.007-.001-.003-.001-.006-.002-.009-.003-.003 0-.006-.001-.008-.002s-.001 0-.002 0c-.003-.001-.006-.002-.009-.002-.004 0-.007 0-.01-.001-.003-.001-.006-.002-.008-.002-.004 0-.008-.001-.011-.002-.004 0-.007-.001-.011-.001-.003-.001-.005-.001-.007-.001-.005-.001-.008-.001-.013-.002-.003 0-.008 0-.011 0-.005 0-.008-.001-.013-.001-.007-.001-.014-.001-.022-.002-.003 0-.007 0-.01 0-.011-.001-.022-.001-.034-.001h-1.631s-.003-.003-.009-.007c0-.001 0-.002-.001-.002-.001-.002-.002-.003-.003-.004-.001-.001-.003-.002-.004-.002-.001-.001-.001-.002-.002-.003 0-.001-.001-.002-.002-.002-.001-.001-.002-.002-.002-.003-.001 0-.002 0-.002-.001-.001 0-.001-.001-.002-.001 0-.001 0-.001 0-.002-.001 0-.001-.001-.002-.001-.001-.001-.002-.002-.003-.004h-.001s-.001 0-.001-.001h-.001c-.002-.003-.005-.006-.008-.009-.001 0-.001-.001-.001-.002h-.001v-.001h1.676c.13-.001.238.022.324.07.003.002.005.003.007.004.004.001.008.004.011.006.007.004.013.008.019.013.001 0 .002.001.002.001.007.005.014.01.022.015v.001c.014.011.028.022.04.036l.002.002c.005.005.01.009.014.015.042.047.074.102.098.17.001.003.002.005.003.008.002.004.004.007.005.012.056.166.046.333.045.341v.001.477c0 .03 0 .059-.001.087-.001.014-.002.027-.004.041-.001.013-.002.027-.003.039-.009.069-.022.131-.042.187-.002.006-.004.011-.005.017-.001.001-.002.003-.002.004-.02.051-.046.099-.079.141-.061.079-.129.116-.185.133-.023.01-.047.018-.075.025-.007.002-.015.003-.023.004-.002.001-.003.001-.004.002-.008.001-.017.003-.025.004-.044.008-.091.011-.141.011zm-1.677-1.867h.001z" fill="url(#i)"/></g><g clip-path="url(#g)" transform="matrix(.35277777 0 0 -.35277777 -79.732358 41.36453)"><g transform="translate(240.5784 116.3672)"><path d="m0 0-.001.001s-.001.001-.001.001-.001.001-.001.001c0 .001-.001.001-.001.001s-.001 0-.001.001-.001.001-.001.001v.001h-.001l-.002.002c-.001 0-.001.001-.002.002 0 0-.001.001-.001.001 0 .001-.001.001-.001.001s0 .001-.001.001c0 0-.001.001-.002.002 0 0 0 0-.001.001v.001c-.001 0-.001.001-.002.001 0 0-.001.001-.001.001-.001.001-.001.001-.002.002 0 0-.001.001-.001.001-.001.001-.001.001-.002.002l-.002.002c0 .001-.001.001-.002.002s-.002.002-.002.003h-.001c-.001.001-.002.002-.003.003s-.001.001-.002.002-.002.002-.003.003c-.002.002-.003.004-.004.004-.001.001-.001.001-.001.001h-.001v-2.357h.001c0 .001 0 .001.001.002.001 0 .002.002.004.003v.001l.003.003.003.003c.001.001.002.002.003.002 0 .001.001.002.002.003.001 0 .002.001.002.002l.002.002.002.002s.001.001.001.001l.002.002s.001.001.001.001c.001 0 .001.001.002.001v.001c.001.001.001.001.001.001.001.001.002.002.002.002.001 0 .001.001.001.001s.001.001.001.001.001.001.001.001l.002.002.002.002h.001v.001h.001v.001h.001v.001s.001 0 .001.001.001 0 .001.001h.001v.001c0 .001.001.001.001.001z" fill="#00a8e2"/></g></g><g clip-path="url(#d)" transform="matrix(.35277777 0 0 -.35277777 -79.732358 41.36453)"><path d="m240.579 116.367v-2.266h1.993c.658.002.821.409.821.724v.819c0 .315-.163.722-.821.723zm.282-.199h1.677c.396 0 .594-.216.592-.695v-.477c.002-.479-.196-.697-.592-.695h-1.677z" fill="url(#f)"/></g><g clip-path="url(#b)" transform="matrix(.35277777 0 0 -.35277777 -79.732358 41.36453)"><path d="m242.622 116.412h-.002c-.001 0-.002 0-.002 0h-.002c-.001 0-.002 0-.003 0h-.002-.003-.003c-.011 0-.022 0-.033 0h-2.039c.001-.001.002-.001.003-.002s0 0 .001-.001c.001-.002.004-.004.007-.007l.002-.002c.001-.001.002-.002.002-.002.002-.002.003-.004.006-.005 0-.001.001-.002.002-.003.001-.002.003-.004.005-.006h.001c0-.001 0-.001.001-.001s.001 0 .001-.001h.001c0-.001 0-.002.001-.003.001 0 .001-.001.001-.001.001-.001.002-.002.003-.002 0-.001.001-.002.002-.002h.001v-.001c.001-.001.001-.001.001-.001s0 0 0-.001h.001v-.001h.001v-.001-.001h.001.001v-.001h.001 1.993.007c.146-.003.259-.022.352-.052.017-.006.034-.012.053-.02s0 0 0-.001c.062-.027.116-.064.178-.107.015-.012.031-.026.045-.039.035-.037.065-.076.089-.117.052-.092.095-.216.097-.386v-.001-.819c0-.007 0-.013 0-.019-.002-.069-.011-.141-.03-.21-.002-.004-.003-.007-.004-.011-.001-.003-.002-.006-.003-.009-.002-.009-.005-.018-.009-.026 0-.001 0-.002-.001-.002-.018-.05-.04-.094-.065-.134-.001-.001-.002-.002-.003-.004-.003-.006-.008-.011-.012-.016-.054-.078-.131-.147-.239-.199-.114-.055-.262-.089-.453-.094h-.002-1.993c-.001 0-.001 0-.001 0l-.001-.001c-.001-.001-.001-.001-.002-.002-.001-.001-.002-.002-.004-.004l-.001-.001s0-.001-.001-.001c-.001-.001-.002-.002-.004-.003s0 0 0-.001c0-.001-.001-.001-.002-.002-.012-.012-.022-.022-.026-.027-.003-.002-.004-.003-.004-.003h2.039.032.001.001.002.001.004.003.001.003.003.003s.001 0 .002.001h.007.001.003.003.004c.002 0 .004.001.006.001h.005.003.002.002c.001.001.002.001.003.001h.001.003.004.002c.001 0 .003.001.004.001h.007c.001 0 .003.001.005.001h.002.002.001.003c.002.001.003.001.004.001h.003.002-.002.003.005c.001 0 .002 0 .003.001h.001.003.001.001c.002 0 .004 0 .005.001h.004c.001 0 .002 0 .003.001h.006s.001.001.003.001h.005c.001.001.002.001.003.001h.002c.002 0 .003 0 .005.001h.001c.002 0 .005.001.007.001h.001c.001 0 .001 0 .002.001h.003.003.004c.001 0 .001 0 .002.001h.002c.002 0 .003.001.006.001.002 0 .005.001.006.001h.001c.002.001.003.001.004.001.002 0 .003.001.004.001h.002.001c.002.001.003.001.004.001s.001.001.001.001h.002.004c.001.001.002.001.003.001s.001.001.002.001h.004c.003 0 .005.001.007.001h.002c0 .001 0 .001.001.001.001 0 .002 0 .003.001.002 0 .004 0 .006.001h.001.001c.001.001.001.001.001.001.002 0 .003.001.004.001h.002c.001 0 .001 0 .001.001h.001c.002 0 .005.001.007.002h.002c.002.001.003.001.005.001h.003c.001 0 .001.001.002.001h.002l.002.001c.003.001.005.001.008.002.002 0 .004.001.005.002h.001.001l.001.001h.002c.001 0 .001.001.002.001.001 0 .003 0 .003.001h.003.003c0 .001.001.001.002.001.001 0 .002.001.003.001.003.001.006.002.009.003.001.001.003.001.004.002h.003c.001.001.001.001.002.001.001 0 .001.001.002.001h.001.001.002c.002.001.005.002.008.003.001.001.002.001.003.002.002 0 .004.001.006.001.001.001.001.001.002.001 0 .001.001.001.003.001 0 .001.001.001.001.001h.002.001c.002.001.003.001.004.002.002.001.003.001.005.002.001 0 .003.001.004.002.002 0 .003.001.004.001.001 0 .001.001.002.001h.002c.001.001.003.001.004.002h.002c.001.001.001.001.002.002.003.001.005.002.007.003.002 0 .003.001.005.002.002 0 .004 0 .005.001.001.001.003.002.004.002.001.001.001.001.002.001.001 0 .002.001.003.001v.001h.002c.001.001.002.001.003.002s.001 0 .001.001c0-.001 0-.001 0-.001v.001h.001-.001c.004.001.009.003.013.005.001.001.001.001.002.001.001.001.002.001.003.002h.001c.001.001.001.001.002.001 0 .001 0 .001.001.001.001 0 .003.001.004.001.003.002.005.003.009.005h.001v.001s0 0 0-.001v.001c.001 0 .001.001.002.001.001.001.002.001.004.001l.006.003v.001c.001.001.002.001.002.001s0 0 .001.001c.006.003.013.007.02.011.001 0 .002.001.004.001.001.001.001.002.002.003h.001c.001.001.002.002.003.002.004.003.009.005.013.008.002.002.005.003.007.005-.001-.001-.002-.001-.003-.002.001.001.002.001.003.002h.001c-.001 0-.001 0-.001 0h .001s.001.001.002.002h.001c.001.001.001.001.002.001s.001.001.002.001c.005.005.011.009.017.013.002.001.003.001.004.002s-.001-.001-.002-.001c.002.001.002.002.003.003.002.001.003.002.005.003.008.005.015.011.022.018.001 0 .001.001.002.001-.001 0-.001-.001-.002-.001.192.157.253.39.253.586v.819c0 .188-.056.408-.228.565-.002.001-.003.003-.004.004-.002 0-.003.001-.003.001-.004.005-.01.009-.014.013l-.001.001-.002.002c-.002 0-.003.002-.006.004 0 .001-.001.001-.002.002-.003.002-.005.004-.007.005-.001.001-.001.001-.001.001s-.001.001-.002.001 0 .001-.001.001c-.001.001-.002.002-.003.003-.002.001-.003.002-.004.002-.002.002-.004.003-.006.005-.001.001-.002.002-.003.002-.001.001-.002.002-.004.002v.001c-.001 0-.001.001-.002.001-.002.002-.004.003-.006.004-.001.001-.001.002-.002.002-.001.001-.002.001-.003.001-.003.003-.005.005-.008.007-.002.001-.003.001-.004.001-.001.001-.001.001-.001.001v.001c-.001 0-.002.001-.003.001s-.001.001-.002.001v.001c-.003.002-.004.003-.007.004-.002.001-.004.002-.006.003-.002.002-.004.003-.007.005l-.001.001c-.001 0-.002 0-.002.001s-.002 0-.003.001c-.001.001-.002.001-.003.002h-.001c-.001.001-.002.001-.002.002-.003.001-.005.003-.008.004-.001 0-.001.001-.003.001-.002.001-.003.002-.006.003 0 .001-.001.001-.002.002-.001.001-.002.002-.004.002-.001.001-.001.001-.002.001s0 0-.001 0c0 .001-.002.001-.003.002-.002.001-.005.002-.007.003 0 .001-.001.001-.002.002-.001 0-.001 0-.002 0 0 .001-.001.001-.001.001-.001 0-.002 0-.002 0-.001.001-.002.001-.002.002-.001 0-.001 0-.001 0-.002.001-.004.002-.006.003-.001 0-.002.001-.002.001-.002.001-.003.002-.005.002 0 .001-.001.001-.001.001-.001 0-.003 0-.003 0-.001.001-.003.002-.005.003-.002 0-.003.001-.003.002-.001 0-.002 0-.003.001s-.001 0-.001.001c-.001 0-.001 0-.001 0-.001 0-.002 0-.003.001-.001 0-.001.001-.002.001-.001 0-.002.001-.002.001-.001 0-.002 0-.002 0-.001 0-.002 0-.003.001h-.001c-.001.001-.003.002-.004.002-.002.001-.003.002-.005.002s0 0-.001.001 0 0-.001.001-.001 0-.002 0c-.001 0-.002.001-.003.002-.001 0-.003 0-.003 0s-.001 0-.002 0v .001c-.002.001-.005.001-.006.002-.001 0-.001.001-.002.001s0 0-.001 0c-.002.001-.005.002-.006.003-.001 0-.001 0-.002 0 0 .001-.001.001-.002.001s-.001 0-.001.001c-.001 0-.002 0-.003 0-.001 0-.001 0-.001 0-.002.001-.004.001-.006.002-.002.001-.004.001-.005.002-.001 0-.002.001-.003.001s-.001.001-.003.001c-.001.001-.002.001-.004.002-.002 0-.004.001-.005.001h-.001c-.001 0-.001 0-.001 0l-.003.001c-.001 0-.002 0-.003.001-.001 0-.002.001-.004.001h-.001c0 .001-.001.001-.001.001-.001 0-.002 0-.003.001-.002 0-.002 0-.003.001-.001 0-.002 0-.003 0-.001.001-.003.002-.005.002h-.001c-.001 0-.002 0-.004.001-.001 0-.002 0-.003 0s-.001 0-.001.001c-.001 0-.001 0-.001 0h-.001c-.003.001-.005.002-.007.002-.001 0-.002.001-.003.001-.001 0-.002 0-.002 0 0 .001 0 .001-.001.001-.001 0-.002 0-.004.001l-.003.001h-.001c-.001 0-.002.001-.002.001-.001 0-.001 0-.002 0s-.001 0-.002 0c-.001 0-.002 0-.003 0-.002.001-.004.001-.006.002-.003 0-.005.001-.008.001-.001.001-.003.001-.004.002h-.001-.001c-.001 0-.002 0-.003.001h-.001-.001-.001c-.001.001-.002.001-.003.001-.002 0-.003.001-.005.001-.002 0-.004.001-.006.001-.001 0-.001.001-.002.001-.002 0-.003 0-.005 0h-.001-.001c-.002.001-.003.001-.005.001-.001 0-.003.001-.004.001-.001 0-.002 0-.002 0-.002.001-.005.001-.007.001-.001.001-.003.001-.005.002h-.001c-.001 0-.001 0-.001 0-.001 0-.001 0-.002 0h-.001s0 0-.001 0c-.001.001-.003.001-.005.001-.002 0-.003.001-.005.001-.002 0-.003 0-.005.001h-.001s-.001 0-.002 0c-.002 0-.003.001-.004.001h-.001-.001-.001c-.001 0-.002 0-.003 0-.001 0-.001 0-.002 0-.002 0-.004 0-.005.001-.001 0-.004 0-.006 0-.002 0-.003.001-.004.001-.001 0-.002 0-.004.001s-.001 0-.002 0h-.001-.001c-.001 0-.001 0-.002 0-.001 0-.002 0-.003 0-.002.001-.004.001-.004.001-.001 0-.002 0-.003 0h-.001-.001c-.001.001-.002.001-.002.001-.001 0-.003 0-.004 0-.002 0-.004 0-.005 0-.001 0-.001.001-.002.001-.001 0-.001 0-.001 0-.001 0-.003 0-.004 0-.001 0-.002 0-.002 0-.002 0-.004.001-.005.001-.001 0-.003 0-.004 0h-.001c-.001 0-.001 0-.001 0-.001 0-.002 0-.003 0-.001.001-.003.001-.004.001-.001 0-.002 0-.003 0-.001 0-.001 0-.002 0h-.001-.001-.001c-.001 0-.002 0-.003.001-.002 0-.003 0-.005 0-.002 0-.003 0-.004 0-.001 0-.003 0-.004 0-.003 0-.005 0-.008 0-.002 0-.003 0-.005 0-.001 0-.003 0-.005 0-.001 0-.002 0-.002 0h-.002-.001s-.001.001-.002.001zm.188-2.337s0 0-.001 0zm .348.141.001.001zm-.092-.056c-.001-.001-.001-.001-.002-.001.001 0 .001 0 .002.001zm-.039-.019h.001z" fill="url(#c)"/></g><g clip-path="url(#a)" transform="matrix(.35277777 0 0 -.35277777 -79.732358 41.36453)"><g transform="translate(243.2959 114.3539)"><path d="m0 0-.037.029c-.054-.073-.129-.138-.232-.188-.114-.055-.262-.089-.453-.093h-.001-1.994s-.001-.001-.001-.001 0-.001-.001-.001c0-.001-.001-.001-.001-.002-.002-.001-.003-.003-.005-.004l-.001-.001v-.001c-.002-.001-.003-.002-.004-.003 0 0 0-.001-.001-.001-.001-.001-.001-.001-.002-.002-.012-.012-.022-.022-.026-.027-.003-.002-.004-.003-.004-.003h2.04.031.001.001.002.002.003.002.002c.001.001.002.001.003.001h.003.002.003.007.001.003.003c.002 0 .003 0 .004.001h.006.005.003.002.003c.001.001.001.001.002.001h.001.002.001.004.001.001c.001 0 .003 0 .004.001h.007c.002 0 .004 0 .006.001h.001.002.001.003.001c.001 0 .002 0 .003.001h.004.001-.001.002c.002 0 .003 0 .005.001h.003.001.003.001c.001 0 .001.001.001.001h.001.004c.002 0 .004 0 .005.001h.002.001.004c.001.001.003.001.004.001h.005c.001.001.002.001.003.001h.001.001c.002 0 .003 0 .004.001h.002c.002 0 .005 0 .007.001h.001.001.001c.001.001.002.001.003.001h.003c.001 0 .003.001.004.001h.002.002c.002.001.004.001.006.001.002.001.005.001.007.001 0 .001 0 .001.001.001h.003c.002.001.003.001.004.001h.002c.001 0 .001 0 .001.001v-.001c0 .001 0 .001.001.001h.003.002c0 .001.001.001.001.001h.004c.001.001.002.001.003.001s.002 0 .002.001h.004c.003.001.005.001.008.002h.001.001c.001 0 .002.001.004.001.001 0 .003.001.005.001h.001s0 0 .001.001h.002c.001 0 .002.001.003.001h.002c.001 0 .001 0 .001.001h.001c.002 0 .005.001.007.002h.003c.001 0 .003.001.004.001s.002 0 .003.001h.002c.001 0 .002.001.002.001h.001-.001.002c.003.001.006.002.008.002.002.001.004.001.005.002h.002.001c.001.001.002.001.002.001h.002c.001.001.002.001.004.001 0 .001.001.001.002.001h.001s.001.001.002.001h.001c.002.001.003.001.005.002.002 0 .005.001.008.002.001.001.003.001.004.001.001.001.002.001.003.001.001.001.002.001.002.001h.002s0 0 .001.001h.001s.001 0 .002.001c.002.001.005.001.008.002.001.001.002.001.004.002.001 0 .003.001.004.001.001.001.002.001.003.001.001.001.002.001.003.001 0 0 .001 0 .001.001h.002s.001 0 .001.001c.001 0 .003.001.005.001.001.001.002.001.004.002.001 0 .003.001.004.002.002 0 .003 0 .004.001.001 0 .001 0 .002.001h.001-.001.002c.001.001.003.001.004.002.001 0 .001 0 .002.001.001 0 .002 0 .003.001.002.001.004.002.006.002l.006.003c.001 0 .002.001.004.002.001 0 .003.001.005.001 0 .001 0 .001.001.001.001.001.002.001.003.001v.001h.002c.001.001.003.002.005.002-.002 0-.003-.001-.004-.001.006.002.011.005.017.007 0 .001.001.001.001.001.001.001.002.001.003.002h.001c.001 0 .001.001.002.001 0 0 .001 0 .001.001.002 0 .003.001.005.002s.005.003.008.004c.001 0 .002.001.003.001-.001 0-.002 0-.003-.001.003.001.005.003.007.004s.004.002.005.002c.001.001.002.001.002.001.001.001.001.001.001.001.001 0 .001 0 .001.001.007.003.013.007.02.011.001 0 .002.001.003.002.002.001.003.001.004.002h.001c.001.001.002.002.003.002.004.003.008.005.012.008.003.002.006.004.008.005-.001-.001-.002-.001-.004-.002.003.001.004.002.007.004 0 0 0 0 .001.001h.001c0 .001.001.001.002.001.005.005.012.009.017.013.002.001.003.002.005.003-.001 0-.002-.001-.003-.001.001 0 .003.001.004.002s.002.002.004.003c.008.006.015.012.022.018.001 0 .002 0 .002.001 0 0-.001-.001-.001-.001.042.035.079.074.109.115" fill="#00577e"/></g></g></svg>