<?xml version="1.0" encoding="UTF-8" standalone="no"?>
<svg
   xmlns:dc="http://purl.org/dc/elements/1.1/"
   xmlns:cc="http://creativecommons.org/ns#"
   xmlns:rdf="http://www.w3.org/1999/02/22-rdf-syntax-ns#"
   xmlns:svg="http://www.w3.org/2000/svg"
   xmlns="http://www.w3.org/2000/svg"
   xmlns:sodipodi="http://sodipodi.sourceforge.net/DTD/sodipodi-0.dtd"
   xmlns:inkscape="http://www.inkscape.org/namespaces/inkscape"
   width="324.26868pt"
   height="110.03856pt"
   viewBox="0 0 324.26868 110.03856"
   version="1.1"
   id="svg21"
   sodipodi:docname="Hir TV - Dark.svg"
   inkscape:version="0.92.0 r15299">
  <metadata
     id="metadata27">
    <rdf:RDF>
      <cc:Work
         rdf:about="">
        <dc:format>image/svg+xml</dc:format>
        <dc:type
           rdf:resource="http://purl.org/dc/dcmitype/StillImage" />
        <dc:title></dc:title>
      </cc:Work>
    </rdf:RDF>
  </metadata>
  <defs
     id="defs25" />
  <sodipodi:namedview
     pagecolor="#ffffff"
     bordercolor="#666666"
     borderopacity="1"
     objecttolerance="10"
     gridtolerance="10"
     guidetolerance="10"
     inkscape:pageopacity="0"
     inkscape:pageshadow="2"
     inkscape:window-width="1920"
     inkscape:window-height="1017"
     id="namedview23"
     showgrid="false"
     fit-margin-top="0"
     fit-margin-left="0"
     fit-margin-right="0"
     fit-margin-bottom="0"
     inkscape:zoom="2.5636382"
     inkscape:cx="218.2436"
     inkscape:cy="97.906687"
     inkscape:window-x="-8"
     inkscape:window-y="-8"
     inkscape:window-maximized="1"
     inkscape:current-layer="svg21" />
  <g
     id="#ffffffff"
     transform="translate(-74.36,-61.73144)" />
  <g
     id="#15326cff"
     transform="translate(-74.36,-61.73144)">
    <path
       d="m 166.26,62.27 c 4.14,-1.42 9.35,-0.01 11.51,3.97 2.66,4.45 1.34,10.07 -1.37,14.16 -2.95,4.47 -6.08,9.58 -11.46,11.34 -4.2,1.57 -9.57,-0.02 -11.64,-4.15 -2.59,-4.39 -1.22,-9.85 1.4,-13.89 2.93,-4.55 6.12,-9.67 11.56,-11.43 z"
       id="path3"
       inkscape:connector-curvature="0"
       style="opacity:1;fill:#15326c" />
    <path
       d="m 74.36,73.91 c 0.07,-5.3 4.29,-10.15 9.54,-10.92 6.54,-1.32 13.3,4.32 13.16,11 0.03,7.9 0.05,15.8 -0.05,23.7 9.11,-2.06 19.17,-0.34 26.52,5.59 7.19,5.63 11.67,14.6 11.68,23.75 l 0.08,44.59 -22.9,0.09 -0.03,-44.67 c 0.27,-4.73 -4.85,-8.52 -9.31,-7.33 -3.33,0.72 -5.92,3.87 -5.94,7.29 l -0.16,44.77 -22.59,-0.07 z"
       id="path5"
       inkscape:connector-curvature="0"
       style="opacity:1;fill:#15326c"
       sodipodi:nodetypes="cccccccccccccc" />
    <path
       d="m 194.74,97.69 c 3.19,-1 6.55,0.07 9.32,1.71 8.66,-3.69 19.05,-3.47 27.28,1.27 4.6,2.57 9.52,6.52 9.6,12.27 0.52,6.83 -6.16,12.87 -12.91,11.68 -4.43,-0.08 -6.74,-4.85 -11.06,-5.12 -4.14,-0.27 -8.25,3.29 -8.11,7.54 l -0.07,44.66 -22.63,0.01 -0.01,-62.74 c -0.3,-5.22 3.55,-10.1 8.59,-11.28 z"
       id="path7"
       inkscape:connector-curvature="0"
       style="opacity:1;fill:#15326c"
       sodipodi:nodetypes="ccccccccccc" />
    <path
       d="m 149.21,109 c 0,-6.78 7.13,-12.32 13.7,-10.61 5.29,1.01 9.3,6.18 8.95,11.57 l -0.04,61.75 h -22.63 z"
       id="path9"
       inkscape:connector-curvature="0"
       style="opacity:1;fill:#15326c"
       sodipodi:nodetypes="cccccc" />
  </g>
  <g
     id="#a7111cff"
     transform="translate(-74.36,-61.73144)">
    <path
       d="m 244.86,68 c 2.31,-3.76 6.9,-5.29 11.12,-5.18 l 130.09,0.01 c 5.5,-0.26 11.21,3.34 12.25,8.96 0.61,4.75 0.09,9.59 0.3,14.37 -1.38,-2.15 -2.76,-4.46 -5.06,-5.73 -5.18,-3.21 -12.81,-1.12 -15.51,4.38 l -24.94,50.97 -20,-40.76 c -2.96,-6.45 -8.34,-11.75 -14.93,-14.41 -4.77,-2.12 -10.05,-2.54 -15.19,-2.71 -20.07,-0.13 -40.15,0.14 -60.21,-0.1 0.12,-3.33 -0.02,-7 2.08,-9.8 z"
       id="path12"
       inkscape:connector-curvature="0"
       style="opacity:1;fill:#a7111c"
       sodipodi:nodetypes="ccccccccccccc" />
    <path
       d="m 363.25,166.36 35.37,-72.44 -0.04,66.11 c 0.27,5.86 -4.86,11.3 -10.71,11.42 -9.95,0.07 -19.89,0.05 -29.84,0.04 2.03,-1.37 4.11,-2.87 5.22,-5.13 z"
       id="path14"
       inkscape:connector-curvature="0"
       style="opacity:1;fill:#a7111c"
       sodipodi:nodetypes="cccccc" />
    <path
       d="m 242.88,100.29 21.05,0.02 0.02,60.69 c -0.14,4.65 3.15,8.46 7.06,10.54 -5.87,-0.12 -11.74,0.07 -17.61,-0.1 -5.8,-0.25 -10.61,-5.59 -10.49,-11.35 z"
       id="path16"
       inkscape:connector-curvature="0"
       style="opacity:1;fill:#a7111c"
       sodipodi:nodetypes="ccccccc" />
    <path
       d="m 286.42,100.26 17.68,0.05 c 3.23,0.04 7.04,0.78 8.55,4.03 l 30.54,61.54 c 1.03,2.45 3.22,4.01 5.21,5.62 l -68.59,-0.01 c 1.69,-1.53 3.79,-2.72 4.94,-4.76 1.87,-2.88 1.69,-6.46 1.68,-9.75 z"
       id="path18"
       inkscape:connector-curvature="0"
       style="opacity:1;fill:#a7111c"
       sodipodi:nodetypes="ccccccccc" />
  </g>
</svg>
