<svg height="110.03856pt" viewBox="0 0 324.26868 110.03856" width="324.26868pt" xmlns="http://www.w3.org/2000/svg"><g fill="#15326c" transform="translate(-74.36 -61.73144)"><path d="m166.26 62.27c4.14-1.42 9.35-.01 11.51 3.97 2.66 4.45 1.34 10.07-1.37 14.16-2.95 4.47-6.08 9.58-11.46 11.34-4.2 1.57-9.57-.02-11.64-4.15-2.59-4.39-1.22-9.85 1.4-13.89 2.93-4.55 6.12-9.67 11.56-11.43z"/><path d="m74.36 73.91c.07-5.3 4.29-10.15 9.54-10.92 6.54-1.32 13.3 4.32 13.16 11 .03 7.9.05 15.8-.05 23.7 9.11-2.06 19.17-.34 26.52 5.59 7.19 5.63 11.67 14.6 11.68 23.75l.08 44.59-22.9.09-.03-44.67c.27-4.73-4.85-8.52-9.31-7.33-3.33.72-5.92 3.87-5.94 7.29l-.16 44.77-22.59-.07z"/><path d="m194.74 97.69c3.19-1 6.55.07 9.32 1.71 8.66-3.69 19.05-3.47 27.28 1.27 4.6 2.57 9.52 6.52 9.6 12.27.52 6.83-6.16 12.87-12.91 11.68-4.43-.08-6.74-4.85-11.06-5.12-4.14-.27-8.25 3.29-8.11 7.54l-.07 44.66-22.63.01-.01-62.74c-.3-5.22 3.55-10.1 8.59-11.28z"/><path d="m149.21 109c0-6.78 7.13-12.32 13.7-10.61 5.29 1.01 9.3 6.18 8.95 11.57l-.04 61.75h-22.63z"/></g><g fill="#a7111c" transform="translate(-74.36 -61.73144)"><path d="m244.86 68c2.31-3.76 6.9-5.29 11.12-5.18l130.09.01c5.5-.26 11.21 3.34 12.25 8.96.61 4.75.09 9.59.3 14.37-1.38-2.15-2.76-4.46-5.06-5.73-5.18-3.21-12.81-1.12-15.51 4.38l-24.94 50.97-20-40.76c-2.96-6.45-8.34-11.75-14.93-14.41-4.77-2.12-10.05-2.54-15.19-2.71-20.07-.13-40.15.14-60.21-.1.12-3.33-.02-7 2.08-9.8z"/><path d="m363.25 166.36 35.37-72.44-.04 66.11c.27 5.86-4.86 11.3-10.71 11.42-9.95.07-19.89.05-29.84.04 2.03-1.37 4.11-2.87 5.22-5.13z"/><path d="m242.88 100.29 21.05.02.02 60.69c-.14 4.65 3.15 8.46 7.06 10.54-5.87-.12-11.74.07-17.61-.1-5.8-.25-10.61-5.59-10.49-11.35z"/><path d="m286.42 100.26 17.68.05c3.23.04 7.04.78 8.55 4.03l30.54 61.54c1.03 2.45 3.22 4.01 5.21 5.62l-68.59-.01c1.69-1.53 3.79-2.72 4.94-4.76 1.87-2.88 1.69-6.46 1.68-9.75z"/></g></svg>