<svg id="b" width="4.4676mm" height="2.8593mm" version="1.1" viewBox="0 0 4.4676 2.8593" xmlns="http://www.w3.org/2000/svg">
 <defs id="c">
  <clipPath id="a">
   <path id="d" d="m228.4 305.86h12.664v8.227h-12.664z"/>
  </clipPath>
 </defs>
 <g id="e" transform="translate(-81.441 -87.665)">
  <g id="f" transform="matrix(.35278 0 0 -.35278 81.95 87.68)">
   <path id="g" d="m0 0v-1.455h-0.738v1.455h-0.706v-3.632h0.706v1.52h0.738v-1.52h0.706v3.632z"/>
  </g>
  <g id="h" transform="matrix(.35278 0 0 -.35278 .86843 198.47)">
   <g id="i" clip-path="url(#a)">
    <g id="j" transform="translate(233.31 312.29)">
     <path id="k" d="m0 0c0-1.369-0.485-1.924-1.175-1.924-0.824 0-1.148 0.873-1.148 1.87 0 0.992 0.394 1.848 1.202 1.848 0.873 0 1.121-0.964 1.121-1.794m-1.59-0.065c0-0.824 0.157-1.244 0.442-1.244 0.302 0 0.415 0.538 0.415 1.277 0 0.636-0.097 1.212-0.42 1.212-0.28 0-0.437-0.463-0.437-1.245"/>
    </g>
    <g id="l" transform="translate(233.76 313.98)">
     <path id="m" d="m0 0c0.221 0.043 0.501 0.07 0.771 0.07 0.388 0 0.738-0.059 0.969-0.269 0.222-0.2 0.292-0.442 0.292-0.755 0-0.388-0.194-0.738-0.561-0.905v-0.011c0.248-0.102 0.372-0.328 0.442-0.722 0.07-0.404 0.167-0.851 0.232-0.986h-0.739c-0.048 0.102-0.129 0.469-0.183 0.873-0.064 0.447-0.177 0.576-0.409 0.576h-0.108v-1.449h-0.706zm0.706-1.584h0.129c0.307 0 0.48 0.248 0.48 0.566 0 0.312-0.124 0.528-0.436 0.538-0.065 0-0.135-5e-3 -0.173-0.021z"/>
    </g>
    <g id="n" transform="translate(238.84 313.98)">
     <path id="o" d="m0 0c0.221 0.043 0.501 0.07 0.771 0.07 0.388 0 0.738-0.059 0.97-0.269 0.221-0.2 0.291-0.442 0.291-0.755 0-0.388-0.194-0.738-0.561-0.905v-0.011c0.248-0.102 0.372-0.328 0.442-0.722 0.07-0.404 0.167-0.851 0.232-0.986h-0.738c-0.049 0.102-0.13 0.469-0.184 0.873-0.064 0.447-0.177 0.576-0.409 0.576h-0.108v-1.449h-0.706zm0.706-1.584h0.129c0.308 0 0.48 0.248 0.48 0.566 0 0.312-0.124 0.528-0.436 0.538-0.065 0-0.135-5e-3 -0.173-0.021z"/>
    </g>
    <g id="p" transform="translate(228.45 309.88)">
     <path id="q" d="m0 0h0.697v-0.271h-0.385v-0.412h0.362v-0.26h-0.362v-0.662h-0.312z"/>
    </g>
    <path id="r" d="m232.15 309.88h0.312v-1.605h-0.312z"/>
    <g id="s" transform="translate(235.82 309.88)">
     <path id="t" d="m0 0h0.312v-1.34h0.41v-0.265h-0.722z"/>
    </g>
    <g id="u" transform="translate(240.75 308.84)">
     <path id="v" d="m0 0c-0.01 0.152-0.019 0.359-0.017 0.531h-4e-3c-0.029-0.172-0.072-0.369-0.103-0.493l-0.141-0.574h-0.218l-0.134 0.565c-0.031 0.128-0.074 0.328-0.1 0.502h-5e-3c-4e-3 -0.174-0.016-0.376-0.023-0.536l-0.029-0.557h-0.267l0.115 1.605h0.331l0.128-0.581c0.043-0.203 0.084-0.381 0.112-0.562h7e-3c0.024 0.179 0.06 0.359 0.1 0.562l0.129 0.581h0.328l0.098-1.605h-0.278z"/>
    </g>
    <g id="w" transform="translate(238.17 310.9)">
     <path id="x" d="m0 0c0.173 0.31 0.273 0.763 0.273 1.383 0 0.83-0.248 1.795-1.121 1.795-0.808 0-1.202-0.857-1.202-1.849 0-0.517 0.087-1 0.286-1.346 0.113-0.511-0.069-0.933 0.256-0.925 0.255 5e-3 0.145 0.279 0.227 0.475 0.046-0.02 0.095-0.036 0.146-0.048 0.026-0.188 0.055-0.452 0.07-0.745 0.029-0.579-0.115-1.88-0.173-2.545-0.058-0.666 0.347-1.244 0.723-1.1 0.376 0.145 0.145 0.723 0.029 1.244-0.103 0.465-0.161 2.08-0.192 3.142 0.079 0.016 0.155 0.041 0.227 0.075 0.128-0.781-0.095-1.284 0.306-1.241 0.388 0.041-2e-3 0.987 0.145 1.685m-0.875 0.074c-0.285 0-0.442 0.42-0.442 1.245 0 0.781 0.157 1.245 0.437 1.245 0.323 0 0.42-0.577 0.42-1.213 0-0.738-0.113-1.277-0.415-1.277" fill="#d4021d"/>
    </g>
   </g>
  </g>
 </g>
</svg>
