<svg height="2.859304mm" viewBox="0 0 4.4676128 2.8593042" width="4.467613mm" xmlns="http://www.w3.org/2000/svg"><g transform="translate(-81.440895 -87.664862)"><g fill="#fff"><path d="m0 0v-1.455h-.738v1.455h-.706v-3.632h.706v1.52h.738v-1.52h.706v3.632z" transform="matrix(.35277777 0 0 -.35277777 81.950306 87.680098)"/><path d="m0 0c0-1.369-.485-1.924-1.175-1.924-.824 0-1.148.873-1.148 1.87 0 .992.394 1.848 1.202 1.848.873 0 1.121-.964 1.121-1.794m-1.59-.065c0-.824.157-1.244.442-1.244.302 0 .415.538.415 1.277 0 .636-.097 1.212-.42 1.212-.28 0-.437-.463-.437-1.245" transform="matrix(.35277777 0 0 -.35277777 83.176632 88.297957)"/><path d="m0 0c .221.043.501.07.771.07.388 0 .738-.059.969-.269.222-.2.292-.442.292-.755 0-.388-.194-.738-.561-.905v-.011c.248-.102.372-.328.442-.722.07-.404.167-.851.232-.986h-.739c-.048.102-.129.469-.183.873-.064.447-.177.576-.409.576h-.108v-1.449h-.706zm.706-1.584h.129c.307 0 .48.248.48.566 0 .312-.124.528-.436.538-.065 0-.135-.005-.173-.021z" transform="matrix(.35277777 0 0 -.35277777 83.334394 87.699152)"/><path d="m0 0c .221.043.501.07.771.07.388 0 .738-.059.97-.269.221-.2.291-.442.291-.755 0-.388-.194-.738-.561-.905v-.011c.248-.102.372-.328.442-.722.07-.404.167-.851.232-.986h-.738c-.049.102-.13.469-.184.873-.064.447-.177.576-.409.576h-.108v-1.449h-.706zm.706-1.584h.129c.308 0 .48.248.48.566 0 .312-.124.528-.436.538-.065 0-.135-.005-.173-.021z" transform="matrix(.35277777 0 0 -.35277777 85.126435 87.699152)"/><path d="m0 0h .697v-.271h-.385v-.412h.362v-.26h-.362v-.662h-.312z" transform="matrix(.35277777 0 0 -.35277777 81.459098 89.147023)"/><path d="m82.767198 89.146882h.110067v.566208h-.110067z"/><path d="m0 0h .312v-1.34h.41v-.265h-.722z" transform="matrix(.35277777 0 0 -.35277777 84.06221 89.147023)"/><path d="m0 0c-.01.152-.019.359-.017.531h-.004c-.029-.172-.072-.369-.103-.493l-.141-.574h-.218l-.134.565c-.031.128-.074.328-.1.502h-.005c-.004-.174-.016-.376-.023-.536l-.029-.557h-.267l.115 1.605h.331l.128-.581c.043-.203.084-.381.112-.562h.007c.024.179.06.359.1.562l.129.581h.328l.098-1.605h-.278z" transform="matrix(.35277777 0 0 -.35277777 85.800205 89.514935)"/></g><path d="m0 0c .173.31.273.763.273 1.383 0 .83-.248 1.795-1.121 1.795-.808 0-1.202-.857-1.202-1.849 0-.517.087-1 .286-1.346.113-.511-.069-.933.256-.925.255.005.145.279.227.475.046-.02.095-.036.146-.048.026-.188.055-.452.07-.745.029-.579-.115-1.88-.173-2.545-.058-.666.347-1.244.723-1.1.376.145.145.723.029 1.244-.103.465-.161 2.08-.192 3.142.079.016.155.041.227.075.128-.781-.095-1.284.306-1.241.388.041-.002.987.145 1.685m-.875.074c-.285 0-.442.42-.442 1.245 0 .781.157 1.245.437 1.245.323 0 .42-.577.42-1.213 0-.738-.113-1.277-.415-1.277" fill="#d4021d" transform="matrix(.35277777 0 0 -.35277777 84.888274 88.785955)"/></g></svg>