<?xml version="1.0" encoding="UTF-8" standalone="no"?>
<!-- Created with Inkscape (http://www.inkscape.org/) -->

<svg
   xmlns:dc="http://purl.org/dc/elements/1.1/"
   xmlns:cc="http://creativecommons.org/ns#"
   xmlns:rdf="http://www.w3.org/1999/02/22-rdf-syntax-ns#"
   xmlns:svg="http://www.w3.org/2000/svg"
   xmlns="http://www.w3.org/2000/svg"
   xmlns:sodipodi="http://sodipodi.sourceforge.net/DTD/sodipodi-0.dtd"
   xmlns:inkscape="http://www.inkscape.org/namespaces/inkscape"
   width="4.4676127mm"
   height="2.8593042mm"
   viewBox="0 0 4.4676128 2.8593042"
   version="1.1"
   id="svg59614"
   inkscape:version="0.92.0 r15299"
   sodipodi:docname="Horror Film - Dark.svg">
  <defs
     id="defs59608">
    <clipPath
       clipPathUnits="userSpaceOnUse"
       id="clipPath1358">
      <path
         d="m 226.808,337.983 h 15.836 v 8.6 h -15.836 z"
         id="path1356"
         inkscape:connector-curvature="0" />
    </clipPath>
    <clipPath
       clipPathUnits="userSpaceOnUse"
       id="clipPath17110">
      <path
         d="m 228.395,305.855 h 12.664 v 8.227 h -12.664 z"
         id="path17108"
         inkscape:connector-curvature="0" />
    </clipPath>
  </defs>
  <sodipodi:namedview
     id="base"
     pagecolor="#ffffff"
     bordercolor="#666666"
     borderopacity="1.0"
     inkscape:pageopacity="0.0"
     inkscape:pageshadow="2"
     inkscape:zoom="44.8"
     inkscape:cx="7.3449609"
     inkscape:cy="5.0520294"
     inkscape:document-units="mm"
     inkscape:current-layer="layer1"
     showgrid="false"
     fit-margin-top="0"
     fit-margin-left="0"
     fit-margin-right="0"
     fit-margin-bottom="0"
     inkscape:window-width="1920"
     inkscape:window-height="1017"
     inkscape:window-x="-8"
     inkscape:window-y="-8"
     inkscape:window-maximized="1" />
  <metadata
     id="metadata59611">
    <rdf:RDF>
      <cc:Work
         rdf:about="">
        <dc:format>image/svg+xml</dc:format>
        <dc:type
           rdf:resource="http://purl.org/dc/dcmitype/StillImage" />
        <dc:title></dc:title>
      </cc:Work>
    </rdf:RDF>
  </metadata>
  <g
     inkscape:label="Layer 1"
     inkscape:groupmode="layer"
     id="layer1"
     transform="translate(-81.440895,-87.664862)">
    <g
       id="g17100"
       transform="matrix(0.35277777,0,0,-0.35277777,81.950306,87.680098)">
      <path
         d="M 0,0 V -1.455 H -0.738 V 0 h -0.706 v -3.632 h 0.706 v 1.52 H 0 v -1.52 H 0.706 V 0 Z"
         style="fill:#000000;fill-opacity:1;fill-rule:nonzero;stroke:none"
         id="path17102"
         inkscape:connector-curvature="0" />
    </g>
    <g
       transform="matrix(0.35277777,0,0,-0.35277777,0.86842763,198.46601)"
       id="g17104">
      <g
         id="g17106"
         clip-path="url(#clipPath17110)">
        <g
           id="g17112"
           transform="translate(233.3146,312.2874)">
          <path
             d="m 0,0 c 0,-1.369 -0.485,-1.924 -1.175,-1.924 -0.824,0 -1.148,0.873 -1.148,1.87 0,0.992 0.394,1.848 1.202,1.848 C -0.248,1.794 0,0.83 0,0 m -1.59,-0.065 c 0,-0.824 0.157,-1.244 0.442,-1.244 0.302,0 0.415,0.538 0.415,1.277 0,0.636 -0.097,1.212 -0.42,1.212 -0.28,0 -0.437,-0.463 -0.437,-1.245"
             style="fill:#000000;fill-opacity:1;fill-rule:nonzero;stroke:none"
             id="path17114"
             inkscape:connector-curvature="0" />
        </g>
        <g
           id="g17116"
           transform="translate(233.7618,313.9848)">
          <path
             d="m 0,0 c 0.221,0.043 0.501,0.07 0.771,0.07 0.388,0 0.738,-0.059 0.969,-0.269 0.222,-0.2 0.292,-0.442 0.292,-0.755 0,-0.388 -0.194,-0.738 -0.561,-0.905 V -1.87 C 1.719,-1.972 1.843,-2.198 1.913,-2.592 1.983,-2.996 2.08,-3.443 2.145,-3.578 H 1.406 C 1.358,-3.476 1.277,-3.109 1.223,-2.705 1.159,-2.258 1.046,-2.129 0.814,-2.129 H 0.706 V -3.578 H 0 Z m 0.706,-1.584 h 0.129 c 0.307,0 0.48,0.248 0.48,0.566 0,0.312 -0.124,0.528 -0.436,0.538 -0.065,0 -0.135,-0.005 -0.173,-0.021 z"
             style="fill:#000000;fill-opacity:1;fill-rule:nonzero;stroke:none"
             id="path17118"
             inkscape:connector-curvature="0" />
        </g>
        <g
           id="g17120"
           transform="translate(238.8416,313.9848)">
          <path
             d="m 0,0 c 0.221,0.043 0.501,0.07 0.771,0.07 0.388,0 0.738,-0.059 0.97,-0.269 0.221,-0.2 0.291,-0.442 0.291,-0.755 0,-0.388 -0.194,-0.738 -0.561,-0.905 V -1.87 C 1.719,-1.972 1.843,-2.198 1.913,-2.592 1.983,-2.996 2.08,-3.443 2.145,-3.578 H 1.407 c -0.049,0.102 -0.13,0.469 -0.184,0.873 -0.064,0.447 -0.177,0.576 -0.409,0.576 H 0.706 V -3.578 H 0 Z m 0.706,-1.584 h 0.129 c 0.308,0 0.48,0.248 0.48,0.566 0,0.312 -0.124,0.528 -0.436,0.538 -0.065,0 -0.135,-0.005 -0.173,-0.021 z"
             style="fill:#000000;fill-opacity:1;fill-rule:nonzero;stroke:none"
             id="path17122"
             inkscape:connector-curvature="0" />
        </g>
        <g
           id="g17124"
           transform="translate(228.446,309.8806)">
          <path
             d="M 0,0 H 0.697 V -0.271 H 0.312 v -0.412 h 0.362 v -0.26 H 0.312 V -1.605 H 0 Z"
             style="fill:#000000;fill-opacity:1;fill-rule:nonzero;stroke:none"
             id="path17126"
             inkscape:connector-curvature="0" />
        </g>
        <path
           d="m 232.154,309.881 h 0.312 v -1.605 h -0.312 z"
           style="fill:#000000;fill-opacity:1;fill-rule:nonzero;stroke:none"
           id="path17128"
           inkscape:connector-curvature="0" />
        <g
           id="g17130"
           transform="translate(235.8249,309.8806)">
          <path
             d="m 0,0 h 0.312 v -1.34 h 0.41 V -1.605 H 0 Z"
             style="fill:#000000;fill-opacity:1;fill-rule:nonzero;stroke:none"
             id="path17132"
             inkscape:connector-curvature="0" />
        </g>
        <g
           id="g17134"
           transform="translate(240.7515,308.8377)">
          <path
             d="M 0,0 C -0.01,0.152 -0.019,0.359 -0.017,0.531 H -0.021 C -0.05,0.359 -0.093,0.162 -0.124,0.038 l -0.141,-0.574 h -0.218 l -0.134,0.565 c -0.031,0.128 -0.074,0.328 -0.1,0.502 H -0.722 C -0.726,0.357 -0.738,0.155 -0.745,-0.005 l -0.029,-0.557 h -0.267 l 0.115,1.605 h 0.331 L -0.467,0.462 C -0.424,0.259 -0.383,0.081 -0.355,-0.1 h 0.007 c 0.024,0.179 0.06,0.359 0.1,0.562 l 0.129,0.581 H 0.209 L 0.307,-0.562 H 0.029 Z"
             style="fill:#000000;fill-opacity:1;fill-rule:nonzero;stroke:none"
             id="path17136"
             inkscape:connector-curvature="0" />
        </g>
        <g
           id="g17138"
           transform="translate(238.1665,310.9041)">
          <path
             d="m 0,0 c 0.173,0.31 0.273,0.763 0.273,1.383 0,0.83 -0.248,1.795 -1.121,1.795 -0.808,0 -1.202,-0.857 -1.202,-1.849 0,-0.517 0.087,-1 0.286,-1.346 0.113,-0.511 -0.069,-0.933 0.256,-0.925 0.255,0.005 0.145,0.279 0.227,0.475 0.046,-0.02 0.095,-0.036 0.146,-0.048 0.026,-0.188 0.055,-0.452 0.07,-0.745 0.029,-0.579 -0.115,-1.88 -0.173,-2.545 -0.058,-0.666 0.347,-1.244 0.723,-1.1 0.376,0.145 0.145,0.723 0.029,1.244 -0.103,0.465 -0.161,2.08 -0.192,3.142 0.079,0.016 0.155,0.041 0.227,0.075 0.128,-0.781 -0.095,-1.284 0.306,-1.241 C 0.243,-1.644 -0.147,-0.698 0,0 m -0.875,0.074 c -0.285,0 -0.442,0.42 -0.442,1.245 0,0.781 0.157,1.245 0.437,1.245 0.323,0 0.42,-0.577 0.42,-1.213 0,-0.738 -0.113,-1.277 -0.415,-1.277"
             style="fill:#d4021d;fill-opacity:1;fill-rule:nonzero;stroke:none"
             id="path17140"
             inkscape:connector-curvature="0" />
        </g>
      </g>
    </g>
  </g>
</svg>
