<svg id="a" width="693.92pt" height="225pt" version="1.1" viewBox="0 0 693.92 225" xmlns="http://www.w3.org/2000/svg">
 <path id="b" d="m2.9835e-7 225h23.133v-224.93h-23.133z" fill="#fff"/>
 <path id="c" d="m455.7 158.58h-65.676v65.676h65.676z" fill="#e53427"/>
 <path id="d" d="m15.132 224.93v-224.93h65.734v80.98h55.837v-80.98h65.743v224.93h-65.743v-87.524h-55.837v87.524z" fill="#a8a6a6"/>
 <path id="e" d="m200.09 98.51h9.0371c10.489 0 18.16-1.8055 23.003-5.4165 4.8338-3.611 7.2602-9.2759 7.2602-16.995 0-9.0275-2.2545-15.457-6.773-19.268-4.509-3.8212-12.104-5.7318-22.765-5.7318h-9.7631zm-57.423 126.42v-224.93h64.005c25.057 0 42.53 1.1559 52.407 3.4486 9.8777 2.3118 18.389 6.1807 25.554 11.607 8.0818 6.1521 14.301 13.985 18.647 23.51 4.3561 9.5243 6.5342 20.023 6.5342 31.496 0 17.415-4.2797 31.572-12.83 42.482-8.5499 10.919-21.007 18.151-37.39 21.742l61.272 90.648h-69.259l-51.519-88.002v88.002z" fill="#a8a6a6"/>
 <path id="f" d="m324.34 94.279v-36.971h-50.325v-57.308h166.39v57.308h-50.334v37.824z" fill="#a8a6a6"/>
 <path id="g" d="m136.77 80.99h15.925v-80.703h-15.925z" fill="#fff"/>
 <path id="h" d="m259.31 57.117h15.925v-57.06h-15.925z" fill="#fff"/>
 <path id="i" d="m390 92.864h-65.676v65.686h65.676z" fill="#e53427"/>
 <path id="j" d="m609.81 1.3133c17.795-2.5055 36.792-0.93442 52.903 7.5165 16.08 8.3995 28.361 24.47 30.374 42.717 3.0702 16.686-2.7622 33.403-10.648 47.902-18.339 33.054-46.362 59.002-71.827 86.419-6.5512 7.3932-13.862 14.109-20.177 21.697 34.183 0.26698 68.387 0.041 102.58 0.11296 0.0206 5.7503 0.0206 11.501 0 17.251-47.994 0-95.989-0.0103-143.98 0.0103 13.944-14.838 27.622-29.922 41.505-44.801 24.778-27.047 50.839-53.457 70.061-84.93 6.6128-11.788 13.554-24.983 11.08-38.958-1.2938-11.788-8.1223-22.601-17.764-29.388-11.213-7.9477-25.65-10.299-39.082-8.6357-11.911 1.2527-23.443 7.2598-30.641 16.933-7.7937 10.001-10.813 23.032-10.515 35.539-6.7669-0.11295-13.544-0.10268-20.321-0.01027 0.0206-15.783 3.2243-32.284 13.061-45.047 10.186-13.811 26.585-22.087 43.394-24.326z" fill="#fff" stroke-width="1.0268"/>
</svg>
