<svg height="225pt" viewBox="0 0 641.02856 225" width="641.02856pt" xmlns="http://www.w3.org/2000/svg"><path d="m590.70083 4.716113 50.31745.030801.0103 220.150416-19.1578.0616-.041-202.460764-40.64617-.06161 9.51731-17.7204501z" fill="#fff" stroke-width="1.026677"/><path d="m .0000003 224.99999h23.1330067v-224.93312379h-23.1330067z" fill="#fff"/><path d="m455.70303 158.57851h-65.67635v65.67635h65.67635z" fill="#e53427"/><g fill="#a8a6a6"><path d="m15.131827 224.93312v-224.93312379h65.733669v80.98012879h55.836774v-80.98012879h65.74321v224.93312379h-65.74321v-87.52389h-55.836774v87.52389z"/><path d="m200.08591 98.509734h9.03707c10.48911 0 18.1601-1.8055 23.00344-5.41651 4.83378-3.611 7.26022-9.275879 7.26022-16.994649 0-9.02751-2.25449-15.45663-6.77302-19.26824-4.50898-3.82117-12.10356-5.73176-22.76462-5.73176h-9.76309zm-57.42262 126.423386v-224.93312379h64.00459c25.05731 0 42.52961 1.15589999 52.40733 3.44859989 9.87773 2.31181 18.38938 6.1807399 25.55407 11.6067999 8.08178 6.15209 14.30073 13.98548 18.64731 23.509749 4.35613 9.52426 6.5342 20.02292 6.5342 31.49599 0 17.414969-4.27971 31.572405-12.82958 42.481845-8.54986 10.91899-21.00688 18.15055-37.39014 21.74245l61.27245 90.64769h-69.25869l-51.51892-88.00153v88.00153z"/><path d="m324.34078 94.279124v-36.971149h-50.3248v-57.30797879h166.39282v57.30797879h-50.33435v37.824129z"/></g><path d="m136.76914 80.989675h15.92472v-80.70309879h-15.92472z" fill="#fff"/><path d="m259.31404 57.116915h15.92472v-57.05960879h-15.92472z" fill="#fff"/><path d="m389.99803 92.863954h-65.67635v65.685896h65.67635z" fill="#e53427"/></svg>