<svg height="225pt" viewBox="0 0 693.92102 225" width="693.92102pt" xmlns="http://www.w3.org/2000/svg"><path d="m .0000003 224.99999h23.1330067v-224.93312379h-23.1330067z" fill="#08124c"/><path d="m455.70303 158.57851h-65.67635v65.67635h65.67635z" fill="#e53427"/><g fill="#a8a6a6"><path d="m15.131827 224.93312v-224.93312379h65.733669v80.98012879h55.836774v-80.98012879h65.74321v224.93312379h-65.74321v-87.52389h-55.836774v87.52389z"/><path d="m200.08591 98.509734h9.03707c10.48911 0 18.1601-1.8055 23.00344-5.41651 4.83378-3.611 7.26022-9.275879 7.26022-16.994649 0-9.02751-2.25449-15.45663-6.77302-19.26824-4.50898-3.82117-12.10356-5.73176-22.76462-5.73176h-9.76309zm-57.42262 126.423386v-224.93312379h64.00459c25.05731 0 42.52961 1.15589999 52.40733 3.44859989 9.87773 2.31181 18.38938 6.1807399 25.55407 11.6067999 8.08178 6.15209 14.30073 13.98548 18.64731 23.509749 4.35613 9.52426 6.5342 20.02292 6.5342 31.49599 0 17.414969-4.27971 31.572405-12.82958 42.481845-8.54986 10.91899-21.00688 18.15055-37.39014 21.74245l61.27245 90.64769h-69.25869l-51.51892-88.00153v88.00153z"/><path d="m324.34078 94.279124v-36.971149h-50.3248v-57.30797879h166.39282v57.30797879h-50.33435v37.824129z"/></g><path d="m136.76914 80.989675h15.92472v-80.70309879h-15.92472z" fill="#08124c"/><path d="m259.31404 57.116915h15.92472v-57.05960879h-15.92472z" fill="#08124c"/><path d="m389.99803 92.863954h-65.67635v65.685896h65.67635z" fill="#e53427"/><path d="m609.81107 1.3133236c17.79512-2.5054879 36.79165-.93442384 52.90276 7.5164642 16.08031 8.3995462 28.3613 24.4695802 30.37391 42.7165142 3.07024 16.686139-2.7622 33.403084-10.64833 47.902054-18.33935 33.053954-46.36179 59.002184-71.8274 86.418784-6.55124 7.39325-13.86233 14.10878-20.1774 21.69712 34.18348.26698 68.38749.041 102.58125.11296.0206 5.7503.0206 11.5006 0 17.2509-47.99447 0-95.98894-.0103-143.98341.0103 13.94448-14.83783 27.62198-29.92209 41.50484-44.801 24.77763-27.04694 50.83882-53.45725 70.06125-84.92987 6.61285-11.788116 13.55428-24.983 11.07959-38.958283-1.29381-11.788115-8.12229-22.600734-17.76431-29.388141-11.21309-7.947736-25.65045-10.299199-39.08151-8.635719-11.91133 1.252744-23.44274 7.259754-30.64088 16.93258-7.79371 10.001415-10.81262 23.032006-10.51483 35.538909-6.76688-.112952-13.54401-.102684-20.32116-.01027.0206-15.78252 3.22428-32.283828 13.0614-45.04744 10.18624-13.811004 26.58487-22.0873288 43.39423-24.3258384z" fill="#08124c" stroke-width="1.026839"/></svg>