<?xml version="1.0" encoding="UTF-8" standalone="no"?>
<svg
   xmlns:dc="http://purl.org/dc/elements/1.1/"
   xmlns:cc="http://creativecommons.org/ns#"
   xmlns:rdf="http://www.w3.org/1999/02/22-rdf-syntax-ns#"
   xmlns:svg="http://www.w3.org/2000/svg"
   xmlns="http://www.w3.org/2000/svg"
   xmlns:sodipodi="http://sodipodi.sourceforge.net/DTD/sodipodi-0.dtd"
   xmlns:inkscape="http://www.inkscape.org/namespaces/inkscape"
   width="693.92102pt"
   height="225pt"
   viewBox="0 0 693.92102 225"
   version="1.1"
   id="svg24"
   sodipodi:docname="HRT 2 - Dark.svg"
   inkscape:version="0.92.0 r15299">
  <metadata
     id="metadata30">
    <rdf:RDF>
      <cc:Work
         rdf:about="">
        <dc:format>image/svg+xml</dc:format>
        <dc:type
           rdf:resource="http://purl.org/dc/dcmitype/StillImage" />
        <dc:title></dc:title>
      </cc:Work>
    </rdf:RDF>
  </metadata>
  <defs
     id="defs28" />
  <sodipodi:namedview
     pagecolor="#ffffff"
     bordercolor="#666666"
     borderopacity="1"
     objecttolerance="10"
     gridtolerance="10"
     guidetolerance="10"
     inkscape:pageopacity="0"
     inkscape:pageshadow="2"
     inkscape:window-width="1920"
     inkscape:window-height="1017"
     id="namedview26"
     showgrid="false"
     fit-margin-top="0"
     fit-margin-left="0"
     fit-margin-right="0"
     fit-margin-bottom="0"
     inkscape:zoom="0.85942222"
     inkscape:cx="375.53867"
     inkscape:cy="-6.367535"
     inkscape:window-x="-8"
     inkscape:window-y="-8"
     inkscape:window-maximized="1"
     inkscape:current-layer="svg24" />
  <path
     id="path6234"
     style="fill:#08124c;fill-opacity:1;fill-rule:nonzero;stroke:none;stroke-width:9.5529232"
     d="M 2.9835114e-7,224.99999 H 23.133007 V 0.06686621 H 2.9835114e-7 Z"
     inkscape:connector-curvature="0" />
  <path
     id="path6226"
     style="fill:#e53427;fill-opacity:1;fill-rule:nonzero;stroke:none;stroke-width:9.5529232"
     d="m 455.70303,158.57851 h -65.67635 v 65.67635 h 65.67635 z"
     inkscape:connector-curvature="0" />
  <path
     id="path6228"
     style="fill:#a8a6a6;fill-opacity:1;fill-rule:nonzero;stroke:none;stroke-width:9.5529232"
     d="M 15.131827,224.93312 V -3.7862713e-6 H 80.865496 V 80.980125 H 136.70227 V -3.7862715e-6 h 65.74321 V 224.93312 H 136.70227 V 137.40923 H 80.865496 v 87.52389 z"
     inkscape:connector-curvature="0" />
  <path
     id="path6230"
     style="fill:#a8a6a6;fill-opacity:1;fill-rule:nonzero;stroke:none;stroke-width:9.5529232"
     d="m 200.08591,98.509734 h 9.03707 c 10.48911,0 18.1601,-1.8055 23.00344,-5.41651 4.83378,-3.611 7.26022,-9.275879 7.26022,-16.994649 0,-9.02751 -2.25449,-15.45663 -6.77302,-19.26824 -4.50898,-3.82117 -12.10356,-5.73176 -22.76462,-5.73176 h -9.76309 z M 142.66329,224.93312 V -3.7862713e-6 h 64.00459 c 25.05731,0 42.52961,1.1558999862713 52.40733,3.4485998862713 9.87773,2.31181 18.38938,6.1807399 25.55407,11.6067999 8.08178,6.15209 14.30073,13.98548 18.64731,23.509749 4.35613,9.52426 6.5342,20.02292 6.5342,31.49599 0,17.414969 -4.27971,31.572405 -12.82958,42.481845 -8.54986,10.91899 -21.00688,18.15055 -37.39014,21.74245 l 61.27245,90.64769 h -69.25869 l -51.51892,-88.00153 v 88.00153 z"
     inkscape:connector-curvature="0" />
  <path
     sodipodi:nodetypes="ccccccccc"
     id="path6232"
     style="fill:#a8a6a6;fill-opacity:1;fill-rule:nonzero;stroke:none;stroke-width:9.5529232"
     d="M 324.34078,94.279124 V 57.307975 h -50.3248 V -3.7862713e-6 H 440.4088 V 57.307975 h -50.33435 v 37.824129 z"
     inkscape:connector-curvature="0" />
  <path
     id="path6236"
     style="fill:#08124c;fill-opacity:1;fill-rule:nonzero;stroke:none;stroke-width:9.5529232"
     d="m 136.76914,80.989675 h 15.92472 V 0.28657621 h -15.92472 z"
     inkscape:connector-curvature="0" />
  <path
     id="path6238"
     style="fill:#08124c;fill-opacity:1;fill-rule:nonzero;stroke:none;stroke-width:9.5529232"
     d="m 259.31404,57.116915 h 15.92472 V 0.05730621 h -15.92472 z"
     inkscape:connector-curvature="0" />
  <path
     id="path6224"
     style="fill:#e53427;fill-opacity:1;fill-rule:nonzero;stroke:none;stroke-width:9.5529232"
     d="m 389.99803,92.863954 h -65.67635 v 65.685896 h 65.67635 z"
     inkscape:connector-curvature="0" />
  <path
     style="opacity:1;fill:#08124c;stroke-width:1.02683926"
     inkscape:connector-curvature="0"
     id="path13"
     d="m 609.81107,1.3133236 c 17.79512,-2.5054879 36.79165,-0.93442384 52.90276,7.5164642 16.08031,8.3995462 28.3613,24.4695802 30.37391,42.7165142 3.07024,16.686139 -2.7622,33.403084 -10.64833,47.902054 -18.33935,33.053954 -46.36179,59.002184 -71.8274,86.418784 -6.55124,7.39325 -13.86233,14.10878 -20.1774,21.69712 34.18348,0.26698 68.38749,0.041 102.58125,0.11296 0.0206,5.7503 0.0206,11.5006 0,17.2509 -47.99447,0 -95.98894,-0.0103 -143.98341,0.0103 13.94448,-14.83783 27.62198,-29.92209 41.50484,-44.801 24.77763,-27.04694 50.83882,-53.45725 70.06125,-84.92987 6.61285,-11.788116 13.55428,-24.983 11.07959,-38.958283 -1.29381,-11.788115 -8.12229,-22.600734 -17.76431,-29.388141 -11.21309,-7.947736 -25.65045,-10.299199 -39.08151,-8.635719 -11.91133,1.252744 -23.44274,7.259754 -30.64088,16.93258 -7.79371,10.001415 -10.81262,23.032006 -10.51483,35.538909 -6.76688,-0.112952 -13.54401,-0.102684 -20.32116,-0.01027 0.0206,-15.78252 3.22428,-32.283828 13.0614,-45.04744 10.18624,-13.811004 26.58487,-22.0873288 43.39423,-24.3258384 z" />
</svg>
