<?xml version="1.0" encoding="UTF-8" standalone="no"?>
<!-- Created with Inkscape (http://www.inkscape.org/) -->

<svg
   xmlns:dc="http://purl.org/dc/elements/1.1/"
   xmlns:cc="http://creativecommons.org/ns#"
   xmlns:rdf="http://www.w3.org/1999/02/22-rdf-syntax-ns#"
   xmlns:svg="http://www.w3.org/2000/svg"
   xmlns="http://www.w3.org/2000/svg"
   xmlns:sodipodi="http://sodipodi.sourceforge.net/DTD/sodipodi-0.dtd"
   xmlns:inkscape="http://www.inkscape.org/namespaces/inkscape"
   version="1.1"
   width="599.99652"
   height="124.84616"
   id="svg3732"
   sodipodi:docname="Hustler TV.svg"
   inkscape:version="0.92.0 r15299">
  <sodipodi:namedview
     pagecolor="#ffffff"
     bordercolor="#666666"
     borderopacity="1"
     objecttolerance="10"
     gridtolerance="10"
     guidetolerance="10"
     inkscape:pageopacity="0"
     inkscape:pageshadow="2"
     inkscape:window-width="1920"
     inkscape:window-height="1017"
     id="namedview15"
     showgrid="false"
     inkscape:zoom="1.8933443"
     inkscape:cx="241.85566"
     inkscape:cy="97.446759"
     inkscape:window-x="-8"
     inkscape:window-y="-8"
     inkscape:window-maximized="1"
     inkscape:current-layer="svg3732" />
  <defs
     id="defs3734" />
  <metadata
     id="metadata3737">
    <rdf:RDF>
      <cc:Work
         rdf:about="">
        <dc:format>image/svg+xml</dc:format>
        <dc:type
           rdf:resource="http://purl.org/dc/dcmitype/StillImage" />
        <dc:title></dc:title>
      </cc:Work>
    </rdf:RDF>
  </metadata>
  <path
     d="m 183.06045,12.059104 c -14.76131,-1.058239 -29.66563,7.577115 -35.66848,21.107842 -0.0235,-5.91328 -0.0149,-11.826597 0,-17.739878 -8.37636,0 -16.75272,0 -25.12908,0 -0.53788,25.89456 1.0358,51.881406 -1.17588,77.709958 -2.19292,7.897504 -13.13682,10.198494 -19.06093,5.168082 -4.368216,-3.406586 -2.956579,-9.499887 -3.563268,-14.313367 -0.661333,-21.724719 -0.54967,-43.46551 -0.999458,-65.195929 1.173812,-3.961291 -3.014936,-2.663997 -5.567848,-2.964964 -8.486135,-0.257068 -16.882734,-0.674026 -25.145947,-0.40378 -5.419713,0 -10.839422,0 -16.259136,0 C 50.306807,28.976159 50.142157,42.52551 49.982325,56.074907 41.702621,56.19765 33.423046,56.328252 25.143593,56.466868 25.018244,42.698697 24.771258,28.932073 24.519358,15.165761 16.345863,15.202204 8.1727063,15.293598 7.5187501e-7,15.412551 c 0,35.136187 0,70.27237 0,105.408559 8.39087534812499,0 16.78175024812499,0 25.17262624812499,0 0,-13.37024 0,-26.740474 0,-40.110709 8.405392,0 16.810784,0 25.216177,0 0,13.370235 0,26.740469 0,40.110709 8.07634,0 16.152675,0 24.229015,0 0,-6.8811 0,-13.7622 0,-20.6433 4.172015,13.89567 17.580938,24.53823 32.256961,24.51936 14.00129,1.24726 29.01313,-5.38406 35.58138,-18.10281 1.06965,-1.88651 1.86637,-3.89304 2.55501,-5.952 9.25398,19.42507 34.85057,29.49173 54.61327,20.44006 13.28218,-5.67844 22.35331,-20.28661 20.32392,-34.84101 -1.2761,-11.914522 -10.02137,-22.192767 -21.09332,-26.290441 -8.95479,-3.803105 -19.95347,-4.619532 -26.88565,-12.063698 -3.1185,-5.58158 2.80705,-12.512069 8.75381,-11.991113 7.38576,-0.204168 13.86807,4.544879 18.55283,9.857101 5.72096,-1.914768 8.73884,-7.584845 13.02183,-11.366877 1.00561,-1.579185 0.44068,1.622299 0.36292,2.322733 -0.90365,2.415927 0.84054,5.290045 3.55669,4.993878 7.52372,-0.424782 15.1007,-0.07458 22.64665,-0.188723 0,26.750148 0,53.5003 0,80.25045 8.38604,0 16.77208,0 25.15811,0 0,-26.75015 0,-53.500302 0,-80.25045 7.786,0 15.57199,0 23.35799,0 0,26.779182 0,53.558369 0,80.33755 47.73074,-0.35195 146.04968,-0.51066 146.04968,-0.51066 0,0 -0.19181,-2.97348 0.0102,-5.68695 0.1934,-8.68193 0.39538,-17.363661 0.62069,-26.044836 8.21002,10.573576 16.41959,21.147776 24.65001,31.705316 8.30735,-0.0832 29.61281,-0.25269 29.61281,-0.25269 0,0 -4.08588,-6.98897 -6.10963,-9.0818 -8.07721,-11.58792 -17.09778,-22.470518 -24.95489,-34.20225 10.47715,-3.745455 19.41252,-12.660697 21.20795,-23.930716 2.07871,-10.695757 -0.21764,-23.229859 -9.07167,-30.261564 -9.42129,-8.018186 -22.50269,-8.603783 -34.37636,-8.883601 -9.12296,0.0048 -18.36428,-0.03817 -27.40835,0.492726 -3.46088,0.775935 -7.14733,-0.187395 -10.68458,0.232273 -16.29783,0 -32.59571,0 -48.89354,0 0,27.229212 0,54.458428 0,81.687639 -11.83126,-0.176119 -23.66268,-0.341233 -35.49428,-0.493581 0,-27.064687 0,-54.12937 0,-81.194058 -33.26831,0 -66.53664,0 -99.80496,0 -0.0441,3.2324 0.0833,6.833994 -0.0581,9.857101 -7.98839,-7.490779 -18.28753,-13.726556 -29.6148,-13.225065 z m 224.01316,28.526073 c 0.23451,5.242173 -0.0801,10.661594 0,15.968794 -11.46845,-0.165513 -22.93695,-0.325359 -34.40554,-0.479064 -0.12096,-5.163242 -0.24193,-10.326488 -0.3629,-15.48973 11.58947,0 23.17893,0 34.76844,0 z m 31.47304,0 c 4.99899,-0.01524 11.69678,-0.132791 14.44448,4.863224 2.08772,4.51656 -2.77971,9.083194 -7.09888,9.523208 -3.93029,0.945598 -8.0282,0.512827 -12.04913,0.508098 -5e-5,-4.964844 0,-9.929687 0,-14.89453 1.56784,0 3.13569,0 4.70353,0 z M 147.56617,56.887864 c 5.66531,11.897553 18.23295,18.074036 30.17986,22.114584 5.02717,2.122189 10.64803,3.448126 14.77956,7.15186 3.21813,3.321955 2.09714,8.867421 -1.6114,11.323326 -5.35288,4.246066 -13.31783,3.148746 -18.26249,-1.262986 -4.54747,-3.433679 -8.24591,-7.812561 -12.41211,-11.65722 -4.7662,4.666298 -10.11484,8.749538 -14.54612,13.675095 2.38444,-9.469507 1.05697,-19.346778 1.61236,-29.005048 0.0585,-4.234 0.0829,-8.468218 0.10066,-12.702538 z m 259.39131,28.424453 c 0.005,3.929368 0.0181,7.858686 0.0581,11.787873 -11.5797,-0.166159 -22.92435,-0.327682 -34.50425,-0.479064 0.13063,-5.477781 0.026,-10.955558 0.15678,-16.43334 11.42971,-0.168394 22.85947,-0.327933 34.28941,-0.479064 0,1.867863 -5e-5,3.735731 0,5.603595 z"
     id="path3622"
     style="fill:#b7b7b7;fill-opacity:1;stroke:none;stroke-width:0.46454674"
     inkscape:connector-curvature="0" />
  <path
     d="M 98.262453,119.55098 C 88.760833,116.45428 81.617312,109.33341 78.506712,99.857874 76.588464,94.014499 76.500056,92.100213 76.500056,56.408164 V 19.071149 l 8.630618,0.268271 8.630624,0.268271 0.466521,37.321601 c 0.417516,33.401244 0.640075,37.639211 2.118755,40.345196 4.201556,7.688852 16.457916,9.864042 23.272186,4.130212 6.18081,-5.200802 6.28919,-5.992552 6.31193,-46.108225 l 0.0205,-36.155295 h 8.86387 8.86388 v 35.328161 c 0,19.430494 -0.4031,37.453731 -0.89578,40.051639 -2.05019,10.81063 -8.24658,19.01712 -17.62697,23.34516 -4.2922,1.98039 -6.91405,2.88231 -14.13365,3.0954 -5.63413,0.16628 -10.28354,-0.60342 -12.760081,-1.41056 h -2.3e-5 z m 75.740287,-0.0231 c -9.12589,-2.26128 -18.44776,-8.80824 -22.97764,-16.13774 l -1.99657,-3.23052 4.99091,-5.053697 c 4.98117,-4.13349 6.18023,-5.368167 6.18023,-5.368167 0,0 10.43454,10.754444 14.98887,12.458434 5.95498,2.22804 9.3964,2.32828 13.99333,0.40755 7.08683,-2.961068 10.2559,-8.504202 8.49923,-14.866327 -1.23636,-4.477729 -5.54282,-7.470576 -16.26259,-11.301972 -15.38474,-5.186617 -32.06058,-13.755047 -32.83631,-31.635646 0.006,-6.7887 1.55754,-9.112316 3.17241,-12.129519 2.97793,-5.563937 8.41946,-10.688863 14.25516,-13.425791 4.65575,-2.183512 6.30551,-3.441743 15.92381,-3.441743 9.66889,0 11.25359,1.251323 16.0251,3.488123 2.91233,1.365247 7.23679,4.272014 9.60992,6.45949 l 4.31479,3.97724 -5.81013,5.862227 -5.81011,5.862222 -3.42324,-3.092683 c -7.59905,-6.865294 -19.60382,-8.222477 -25.21125,-2.850231 -1.5396,1.475043 -3.26973,4.252089 -3.84472,6.17122 -2.46461,8.226166 4.31289,14.161572 21.61396,18.928449 18.87707,5.201098 27.99826,16.10898 26.84967,32.109089 -1.38709,19.322552 -21.34521,31.988632 -42.24483,26.809992 z M 242.58117,77.922726 V 37.802003 h -13.06255 -13.06256 v -9.330398 -9.330393 h 34.52247 34.52249 v 9.330393 9.330398 h -12.59604 -12.59604 v 40.120723 40.120724 h -8.86387 -8.8639 z m 48.51809,-9.316304 v -49.46521 h 8.86388 8.86388 v 40.56751 40.567518 l 18.42754,0.25298 18.42758,0.25299 v 8.39736 8.39736 l -27.29146,0.24734 -27.29142,0.24737 z m 60.64758,2.14e-4 V 19.141212 h 27.05818 27.05817 v 8.863872 8.863882 h -18.6895 -18.4544 l 0.28881,22.85948 17.961,0.253406 17.96105,0.253406 v 7.890549 7.890544 l -17.96105,0.253406 -17.961,0.25341 0.18345,23.752883 17.74982,0.25308 18.45528,0.25308 v 8.39736 8.39736 l -26.82488,0.24757 -26.82493,0.24756 z m 59.04612,49.068724 c 0,0 -0.17411,-23.797652 -0.0409,-50.482591 l 0.24263,-48.518082 13.98978,-0.259501 c 24.85478,-0.461053 36.03675,1.911447 43.31564,9.190356 5.08609,5.08608 7.04806,10.400346 7.03672,19.060343 -0.0116,9.276059 -2.53865,15.528143 -8.49363,21.017264 -3.91929,3.612683 -11.79573,7.499248 -15.58508,8.381051 0,0 14.2581,19.507106 15.25251,20.84265 8.21072,10.94303 14.92863,20.18922 14.92863,20.54706 0,0.35786 -4.70726,0.53193 -10.46067,0.38683 l -10.46066,-0.26381 -14.96472,-19.224596 -14.96468,-19.224588 -0.4665,19.224588 -0.46654,19.224596 -9.11339,0.26723 c -6.76705,-0.0955 -9.74935,-0.1688 -9.74935,-0.1688 z M 450.6815,57.162583 c 6.53617,-3.298537 8.51909,-10.00938 4.47618,-15.149134 -3.05411,-3.882626 -7.12777,-5.144483 -16.60815,-5.144483 h -8.42729 v 11.196477 11.196482 h 8.19962 c 6.64878,0 8.98656,-0.39708 12.35964,-2.099342 z M 3.7229386,68.090803 V 19.071191 l 8.5130464,-0.08445 8.630619,-0.08445 0.369091,21.021018 0.251515,20.315572 16.076685,-0.255213 16.07668,-0.255212 0.251455,-20.293622 0.251464,-20.293613 h 8.379159 8.379164 v 48.984595 48.984604 h -8.39736 -8.397361 V 97.050056 76.989693 H 37.778897 21.450692 V 97.050056 117.11042 H 12.586815 3.7229386 Z"
     id="path2830"
     style="fill:#000000;stroke:none;stroke-width:0.46454674"
     inkscape:connector-curvature="0" />
  <g
     transform="matrix(0.46454673,0,0,0.46454673,-137.08793,167.61468)"
     id="g3678">
    <path
       d="m 1411.1562,-360.25 c -50.8758,0.64328 -101.9555,-1.1878 -152.6562,3.53125 -6.2053,1.45035 -12.3339,1.23777 -15.3125,6.92544 -1.0103,0.77016 -4.6196,-1.64518 -9.7045,-0.35154 -10.6464,2.70849 -26.0489,9.68651 -25.5941,12.08395 0.7966,4.19969 35.77,9.58064 40.2361,10.3734 2.0913,0.5523 8.5774,-1.89201 7.6418,1.16493 2.5138,3.69241 14.7419,6.80086 24.6455,7.40964 24.9621,1.53444 47.5322,0.6124 72.1415,4.38579 -20.9345,42.99221 -43.7066,89.0941 -50.6788,136.85214 -0.8952,8.66614 -1.4153,17.50844 1.0467,25.96256 2.4737,6.42398 7.6683,10.3189 15.0123,14.12191 3.915,9.00375 14.4772,10.25143 17.0332,1.20664 3.0833,-6.38057 6.1047,-12.77804 6.4703,-20.13486 6.9181,-38.03268 17.6956,-75.73238 35.6875,-110.09375 6.2285,-11.27366 12.8439,-22.84975 21.9062,-31.875 -8.4952,41.34584 -18.2913,82.90405 -18.7812,125.28125 0.4586,11.49897 1.8088,24.91519 11.3438,32.59375 7.1255,5.5846 18.459,4.14326 23.2768,-3.78957 19.2792,-23.29428 35.3159,-49.28017 56.3169,-71.33543 29.3689,-33.36559 62.1083,-63.6032 96.8437,-91.5 1.9855,-1.64584 17.2159,-10.36068 18.0571,-12.81711 1.0485,-3.06167 -7.0014,-2.47243 -9.2365,-5.25089 0.5179,-3.84044 2.4373,-6.06451 3.948,-9.99416 3.1532,-8.2019 -8.1871,0.86774 -8.3806,-0.23225 -0.6891,-3.91785 -0.8671,-6.95358 -4.69,-5.96629 -6.3699,0.53191 -19.1849,4.69193 -24.8915,6.09664 -6.7751,-0.97246 -14.6743,10.45075 -20.8693,12.55903 -3.1816,1.24812 -1.7848,-7.73989 -5.0431,-5.34723 -5.7703,4.23721 -16.2003,20.46369 -21.5815,23.29601 -23.3583,23.67286 -44.5299,49.3903 -65.625,75.15625 5.5557,-24.4944 10.927,-49.46638 23.1874,-71.59375 1.8959,-4.02399 1.7902,-9.16619 -0.4374,-12.8125 9.387,-0.9069 19.6568,-9.63533 20.2896,-18.47164 0.01,-1.42201 5.934,-3.57939 6.1377,-5.02388 0.4593,-3.25792 -6.5908,-6.53099 -8.3649,-9.62948 -4.6031,-11.03452 -17.971,-13.19314 -28.6247,-12.61444 -10.2479,-0.26376 -20.5,-0.26541 -30.7503,-0.16681 z"
       id="path3648"
       style="fill:#b7b7b7;fill-opacity:1;stroke:#b7b7b7;stroke-opacity:1"
       inkscape:connector-curvature="0" />
    <path
       d="m 1324.2702,-149.20298 c -0.3592,-8.29197 -0.4892,-8.4817 -2.34,-3.41438 -0.9519,2.60615 -2.2911,4.2715 -3.6495,4.9217 -1.2494,0.59806 -2.3359,7.04843 -3.3309,5.87095 -0.4859,-0.5751 -1.0863,-8.08003 -1.4098,-9.09922 -1.0125,-3.1901 -1.3738,-6.2595 -1.349,-12.44152 0,-0.28631 -1.3811,8.38212 -1.4519,7.53322 -0.5162,-6.18894 0.6281,-11.29708 0.6465,-11.57774 0.685,-10.33365 2.3956,-22.9135 4.8925,-32.52095 6.5808,-25.32037 22.4723,-66.32919 37.1269,-95.8072 l 13.1959,-26.54407 -21.6893,-1.24987 c -11.9291,-0.68743 -35.737,-1.28056 -52.9064,-1.31807 -28.6196,-0.0625 -38.7642,-2.10547 -21.3625,-4.05471 2.6032,-0.2916 8.864,-0.30463 12.5704,-0.59964 25.2718,-2.01151 24.0879,-5.02733 -2.0364,-5.1877 -12.2869,-0.0754 -24.0958,-0.8917 -26.2419,-1.81394 -2.1462,-0.92225 -6.2258,-1.73852 -4.9182,-1.81395 1.3077,-0.0754 5.3259,-1.29771 4.7815,-2.71621 -0.2816,-0.73404 -2.6477,-4.38238 -1.4574,-4.4707 2.1519,-0.15966 4.2003,-2.2381 6.2665,-2.86336 4.7812,-1.44682 22.4548,-3.45368 100.1113,-3.92297 93.1583,-0.56296 95.106,2.03429 98.9728,5.90106 4.581,4.58098 3.614,8.90211 -2.4431,10.91709 l -4.2549,1.41549 6.6895,0.46361 c 2.4144,0.47495 2.7101,2.52759 2.0903,3.74122 -2.2996,4.50255 -10.0181,7.00624 -35.0285,7.00624 -15.9902,0 -28.7379,0.24946 -30.5433,1.38858 -0.845,0.53319 6.9663,-0.2631 7.2486,0.81654 0.6569,2.51191 -2.549,7.35802 -8.5543,12.63266 -22.2109,19.5084 -45.6635,71.30127 -58.7648,129.77664 -2.7938,12.46975 -5.0797,24.54203 -5.0797,26.82728 0,2.28524 -0.8136,4.15499 -1.808,4.15499 -0.9944,0 -3.7281,12.26974 -4.2189,14.14764 -0.4907,1.87792 -1.5695,-8.99196 0.246,-16.09871 z m -5.9255,-12.79714 c 0,-9.45422 -3.0402,-8.39229 -3.6098,1.26088 -0.304,5.15175 0.2516,7.52818 1.5696,6.71363 1.1221,-0.69349 2.0402,-4.28203 2.0402,-7.97451 z M 1273.47,-342.35935 c 0,-1.07309 -2.1432,-1.95107 -4.7626,-1.95107 -2.6194,0 -5.3051,0.87798 -5.9683,1.95107 -0.7035,1.13831 1.2804,1.95108 4.7625,1.95108 3.2826,0 5.9684,-0.87798 5.9684,-1.95108 z m 125.3154,193.8016 c -5.2243,-2.10201 -8.251,-12.15068 -8.2455,-27.37562 0.01,-21.30238 2.8026,-41.7999 12.4505,-91.30961 7.9817,-40.95964 8.6032,-43.04056 13.5836,-45.47891 5.7635,-2.82173 20.4477,-1.51538 25.582,2.27584 2.7002,1.99388 2.6204,2.95492 -0.7522,9.05926 -6.6448,12.02717 -8.1434,16.11958 -15.0041,40.97256 -7.0412,25.50684 -13.6846,61.85257 -11.6732,63.86392 0.6445,0.64455 1.4295,0.80607 1.7444,0.35895 17.8377,-25.32802 84.5229,-103.24435 88.3625,-103.24435 0.867,0 4.1527,-2.41445 7.3015,-5.36546 l 5.7251,-5.36545 -2.3363,4.87769 c -1.8468,3.85581 -0.8725,3.34488 4.6511,-2.43884 6.6426,-6.95563 10.5174,-9.58382 7.9103,-5.36546 -0.6632,1.07309 -0.3278,1.95107 0.7453,1.95107 1.0731,0 5.2695,-3.63917 5.9038,-4.6654 0.6342,-1.02622 -1.4003,2.81155 0.1224,3.39588 1.5228,0.58434 6.6649,-2.46084 10.205,-5.05625 6.0893,-4.46437 15.2163,-6.73029 15.2163,-3.77767 0,0.74828 -1.756,2.45712 -3.9022,3.79743 -2.1462,1.34031 -3.9021,3.35726 -3.9021,4.48211 0,1.1286 1.9433,0.68399 4.3363,-0.99207 2.3849,-1.67049 5.064,-3.03725 5.9535,-3.03725 0.8894,0 -7.3599,7.15175 -18.3319,15.89277 -40.5608,32.31346 -91.9851,86.83838 -120.2601,127.5112 -11.0814,15.94025 -19.8433,26.46099 -21.8078,26.18546 -0.6041,-0.0847 -2.2142,-0.60301 -3.5782,-1.1518 z m 151.7371,-169.11783 c 0,-1.07309 -2.195,0.11098 -4.8777,2.63128 -2.6827,2.52029 -4.8777,5.46033 -4.8777,6.53342 0,1.07309 2.195,-0.11098 4.8777,-2.63128 2.6827,-2.52028 4.8777,-5.46033 4.8777,-6.53342 z"
       id="path3646"
       style="fill:#cf0712;fill-opacity:1"
       inkscape:connector-curvature="0" />
  </g>
</svg>
