<svg height="124.84616" width="599.99652" xmlns="http://www.w3.org/2000/svg"><path d="m183.06045 12.059104c-14.76131-1.058239-29.66563 7.577115-35.66848 21.107842-.0235-5.91328-.0149-11.826597 0-17.739878-8.37636 0-16.75272 0-25.12908 0-.53788 25.89456 1.0358 51.881406-1.17588 77.709958-2.19292 7.897504-13.13682 10.198494-19.06093 5.168082-4.368216-3.406586-2.956579-9.499887-3.563268-14.313367-.661333-21.724719-.54967-43.46551-.999458-65.195929 1.173812-3.961291-3.014936-2.663997-5.567848-2.964964-8.486135-.257068-16.882734-.674026-25.145947-.40378-5.419713 0-10.839422 0-16.259136 0-.183616 13.549091-.348266 27.098442-.508098 40.647839-8.279704.122743-16.559279.253345-24.838732.391961-.125349-13.768171-.372335-27.534795-.624235-41.301107-8.173495.036443-16.3466517.127837-24.51935725.24679v105.408559h25.17262625c0-13.37024 0-26.740474 0-40.110709h25.216177v40.110709h24.229015c0-6.8811 0-13.7622 0-20.6433 4.172015 13.89567 17.580938 24.53823 32.256961 24.51936 14.00129 1.24726 29.01313-5.38406 35.58138-18.10281 1.06965-1.88651 1.86637-3.89304 2.55501-5.952 9.25398 19.42507 34.85057 29.49173 54.61327 20.44006 13.28218-5.67844 22.35331-20.28661 20.32392-34.84101-1.2761-11.914522-10.02137-22.192767-21.09332-26.290441-8.95479-3.803105-19.95347-4.619532-26.88565-12.063698-3.1185-5.58158 2.80705-12.512069 8.75381-11.991113 7.38576-.204168 13.86807 4.544879 18.55283 9.857101 5.72096-1.914768 8.73884-7.584845 13.02183-11.366877 1.00561-1.579185.44068 1.622299.36292 2.322733-.90365 2.415927.84054 5.290045 3.55669 4.993878 7.52372-.424782 15.1007-.07458 22.64665-.188723v80.25045h25.15811c0-26.75015 0-53.500302 0-80.25045h23.35799v80.33755c47.73074-.35195 146.04968-.51066 146.04968-.51066s-.19181-2.97348.0102-5.68695c.1934-8.68193.39538-17.363661.62069-26.044836 8.21002 10.573576 16.41959 21.147776 24.65001 31.705316 8.30735-.0832 29.61281-.25269 29.61281-.25269s-4.08588-6.98897-6.10963-9.0818c-8.07721-11.58792-17.09778-22.470518-24.95489-34.20225 10.47715-3.745455 19.41252-12.660697 21.20795-23.930716 2.07871-10.695757-.21764-23.229859-9.07167-30.261564-9.42129-8.018186-22.50269-8.603783-34.37636-8.883601-9.12296.0048-18.36428-.03817-27.40835.492726-3.46088.775935-7.14733-.187395-10.68458.232273-16.29783 0-32.59571 0-48.89354 0v81.687639c-11.83126-.176119-23.66268-.341233-35.49428-.493581 0-27.064687 0-54.12937 0-81.194058-33.26831 0-66.53664 0-99.80496 0-.0441 3.2324.0833 6.833994-.0581 9.857101-7.98839-7.490779-18.28753-13.726556-29.6148-13.225065zm224.01316 28.526073c.23451 5.242173-.0801 10.661594 0 15.968794-11.46845-.165513-22.93695-.325359-34.40554-.479064-.12096-5.163242-.24193-10.326488-.3629-15.48973zm31.47304 0c4.99899-.01524 11.69678-.132791 14.44448 4.863224 2.08772 4.51656-2.77971 9.083194-7.09888 9.523208-3.93029.945598-8.0282.512827-12.04913.508098-.00005-4.964844 0-9.929687 0-14.89453zm-290.98048 16.302687c5.66531 11.897553 18.23295 18.074036 30.17986 22.114584 5.02717 2.122189 10.64803 3.448126 14.77956 7.15186 3.21813 3.321955 2.09714 8.867421-1.6114 11.323326-5.35288 4.246066-13.31783 3.148746-18.26249-1.262986-4.54747-3.433679-8.24591-7.812561-12.41211-11.65722-4.7662 4.666298-10.11484 8.749538-14.54612 13.675095 2.38444-9.469507 1.05697-19.346778 1.61236-29.005048.0585-4.234.0829-8.468218.10066-12.702538zm259.39131 28.424453c.005 3.929368.0181 7.858686.0581 11.787873-11.5797-.166159-22.92435-.327682-34.50425-.479064.13063-5.477781.026-10.955558.15678-16.43334 11.42971-.168394 22.85947-.327933 34.28941-.479064 0 1.867863-.00005 3.735731 0 5.603595z" fill="#b7b7b7"/><path d="m98.262453 119.55098c-9.50162-3.0967-16.645141-10.21757-19.755741-19.693106-1.918248-5.843375-2.006656-7.757661-2.006656-43.44971v-37.337015l8.630618.268271 8.630624.268271.466521 37.321601c.417516 33.401244.640075 37.639211 2.118755 40.345196 4.201556 7.688852 16.457916 9.864042 23.272186 4.130212 6.18081-5.200802 6.28919-5.992552 6.31193-46.108225l.0205-36.155295h8.86387 8.86388v35.328161c0 19.430494-.4031 37.453731-.89578 40.051639-2.05019 10.81063-8.24658 19.01712-17.62697 23.34516-4.2922 1.98039-6.91405 2.88231-14.13365 3.0954-5.63413.16628-10.28354-.60342-12.760081-1.41056h-.000023zm75.740287-.0231c-9.12589-2.26128-18.44776-8.80824-22.97764-16.13774l-1.99657-3.23052 4.99091-5.053697c4.98117-4.13349 6.18023-5.368167 6.18023-5.368167s10.43454 10.754444 14.98887 12.458434c5.95498 2.22804 9.3964 2.32828 13.99333.40755 7.08683-2.961068 10.2559-8.504202 8.49923-14.866327-1.23636-4.477729-5.54282-7.470576-16.26259-11.301972-15.38474-5.186617-32.06058-13.755047-32.83631-31.635646.006-6.7887 1.55754-9.112316 3.17241-12.129519 2.97793-5.563937 8.41946-10.688863 14.25516-13.425791 4.65575-2.183512 6.30551-3.441743 15.92381-3.441743 9.66889 0 11.25359 1.251323 16.0251 3.488123 2.91233 1.365247 7.23679 4.272014 9.60992 6.45949l4.31479 3.97724-5.81013 5.862227-5.81011 5.862222-3.42324-3.092683c-7.59905-6.865294-19.60382-8.222477-25.21125-2.850231-1.5396 1.475043-3.26973 4.252089-3.84472 6.17122-2.46461 8.226166 4.31289 14.161572 21.61396 18.928449 18.87707 5.201098 27.99826 16.10898 26.84967 32.109089-1.38709 19.322552-21.34521 31.988632-42.24483 26.809992zm68.57843-41.605154v-40.120723h-13.06255-13.06256v-9.330398-9.330393h34.52247 34.52249v9.330393 9.330398h-12.59604-12.59604v40.120723 40.120724h-8.86387-8.8639zm48.51809-9.316304v-49.46521h8.86388 8.86388v40.56751 40.567518l18.42754.25298 18.42758.25299v8.39736 8.39736l-27.29146.24734-27.29142.24737zm60.64758.000214v-49.465424h27.05818 27.05817v8.863872 8.863882h-18.6895-18.4544l.28881 22.85948 17.961.253406 17.96105.253406v7.890549 7.890544l-17.96105.253406-17.961.25341.18345 23.752883 17.74982.25308 18.45528.25308v8.39736 8.39736l-26.82488.24757-26.82493.24756zm59.04612 49.068724s-.17411-23.797652-.0409-50.482591l.24263-48.518082 13.98978-.259501c24.85478-.461053 36.03675 1.911447 43.31564 9.190356 5.08609 5.08608 7.04806 10.400346 7.03672 19.060343-.0116 9.276059-2.53865 15.528143-8.49363 21.017264-3.91929 3.612683-11.79573 7.499248-15.58508 8.381051 0 0 14.2581 19.507106 15.25251 20.84265 8.21072 10.94303 14.92863 20.18922 14.92863 20.54706 0 .35786-4.70726.53193-10.46067.38683l-10.46066-.26381-14.96472-19.224596-14.96468-19.224588-.4665 19.224588-.46654 19.224596-9.11339.26723c-6.76705-.0955-9.74935-.1688-9.74935-.1688zm39.88854-60.512777c6.53617-3.298537 8.51909-10.00938 4.47618-15.149134-3.05411-3.882626-7.12777-5.144483-16.60815-5.144483h-8.42729v11.196477 11.196482h8.19962c6.64878 0 8.98656-.39708 12.35964-2.099342zm-446.9585614 10.92822v-49.019612l8.5130464-.08445 8.630619-.08445.369091 21.021018.251515 20.315572 16.076685-.255213 16.07668-.255212.251455-20.293622.251464-20.293613h8.379159 8.379164v48.984595 48.984604h-8.39736-8.397361v-20.060364-20.060363h-16.328199-16.328205v20.060363 20.060364h-8.863877-8.8638764z"/><g transform="matrix(.46454673 0 0 .46454673 -137.08793 167.61468)"><path d="m1411.1562-360.25c-50.8758.64328-101.9555-1.1878-152.6562 3.53125-6.2053 1.45035-12.3339 1.23777-15.3125 6.92544-1.0103.77016-4.6196-1.64518-9.7045-.35154-10.6464 2.70849-26.0489 9.68651-25.5941 12.08395.7966 4.19969 35.77 9.58064 40.2361 10.3734 2.0913.5523 8.5774-1.89201 7.6418 1.16493 2.5138 3.69241 14.7419 6.80086 24.6455 7.40964 24.9621 1.53444 47.5322.6124 72.1415 4.38579-20.9345 42.99221-43.7066 89.0941-50.6788 136.85214-.8952 8.66614-1.4153 17.50844 1.0467 25.96256 2.4737 6.42398 7.6683 10.3189 15.0123 14.12191 3.915 9.00375 14.4772 10.25143 17.0332 1.20664 3.0833-6.38057 6.1047-12.77804 6.4703-20.13486 6.9181-38.03268 17.6956-75.73238 35.6875-110.09375 6.2285-11.27366 12.8439-22.84975 21.9062-31.875-8.4952 41.34584-18.2913 82.90405-18.7812 125.28125.4586 11.49897 1.8088 24.91519 11.3438 32.59375 7.1255 5.5846 18.459 4.14326 23.2768-3.78957 19.2792-23.29428 35.3159-49.28017 56.3169-71.33543 29.3689-33.36559 62.1083-63.6032 96.8437-91.5 1.9855-1.64584 17.2159-10.36068 18.0571-12.81711 1.0485-3.06167-7.0014-2.47243-9.2365-5.25089.5179-3.84044 2.4373-6.06451 3.948-9.99416 3.1532-8.2019-8.1871.86774-8.3806-.23225-.6891-3.91785-.8671-6.95358-4.69-5.96629-6.3699.53191-19.1849 4.69193-24.8915 6.09664-6.7751-.97246-14.6743 10.45075-20.8693 12.55903-3.1816 1.24812-1.7848-7.73989-5.0431-5.34723-5.7703 4.23721-16.2003 20.46369-21.5815 23.29601-23.3583 23.67286-44.5299 49.3903-65.625 75.15625 5.5557-24.4944 10.927-49.46638 23.1874-71.59375 1.8959-4.02399 1.7902-9.16619-.4374-12.8125 9.387-.9069 19.6568-9.63533 20.2896-18.47164.01-1.42201 5.934-3.57939 6.1377-5.02388.4593-3.25792-6.5908-6.53099-8.3649-9.62948-4.6031-11.03452-17.971-13.19314-28.6247-12.61444-10.2479-.26376-20.5-.26541-30.7503-.16681z" fill="#b7b7b7" stroke="#b7b7b7"/><path d="m1324.2702-149.20298c-.3592-8.29197-.4892-8.4817-2.34-3.41438-.9519 2.60615-2.2911 4.2715-3.6495 4.9217-1.2494.59806-2.3359 7.04843-3.3309 5.87095-.4859-.5751-1.0863-8.08003-1.4098-9.09922-1.0125-3.1901-1.3738-6.2595-1.349-12.44152 0-.28631-1.3811 8.38212-1.4519 7.53322-.5162-6.18894.6281-11.29708.6465-11.57774.685-10.33365 2.3956-22.9135 4.8925-32.52095 6.5808-25.32037 22.4723-66.32919 37.1269-95.8072l13.1959-26.54407-21.6893-1.24987c-11.9291-.68743-35.737-1.28056-52.9064-1.31807-28.6196-.0625-38.7642-2.10547-21.3625-4.05471 2.6032-.2916 8.864-.30463 12.5704-.59964 25.2718-2.01151 24.0879-5.02733-2.0364-5.1877-12.2869-.0754-24.0958-.8917-26.2419-1.81394-2.1462-.92225-6.2258-1.73852-4.9182-1.81395 1.3077-.0754 5.3259-1.29771 4.7815-2.71621-.2816-.73404-2.6477-4.38238-1.4574-4.4707 2.1519-.15966 4.2003-2.2381 6.2665-2.86336 4.7812-1.44682 22.4548-3.45368 100.1113-3.92297 93.1583-.56296 95.106 2.03429 98.9728 5.90106 4.581 4.58098 3.614 8.90211-2.4431 10.91709l-4.2549 1.41549 6.6895.46361c2.4144.47495 2.7101 2.52759 2.0903 3.74122-2.2996 4.50255-10.0181 7.00624-35.0285 7.00624-15.9902 0-28.7379.24946-30.5433 1.38858-.845.53319 6.9663-.2631 7.2486.81654.6569 2.51191-2.549 7.35802-8.5543 12.63266-22.2109 19.5084-45.6635 71.30127-58.7648 129.77664-2.7938 12.46975-5.0797 24.54203-5.0797 26.82728 0 2.28524-.8136 4.15499-1.808 4.15499s-3.7281 12.26974-4.2189 14.14764c-.4907 1.87792-1.5695-8.99196.246-16.09871zm-5.9255-12.79714c0-9.45422-3.0402-8.39229-3.6098 1.26088-.304 5.15175.2516 7.52818 1.5696 6.71363 1.1221-.69349 2.0402-4.28203 2.0402-7.97451zm-44.8747-180.35923c0-1.07309-2.1432-1.95107-4.7626-1.95107s-5.3051.87798-5.9683 1.95107c-.7035 1.13831 1.2804 1.95108 4.7625 1.95108 3.2826 0 5.9684-.87798 5.9684-1.95108zm125.3154 193.8016c-5.2243-2.10201-8.251-12.15068-8.2455-27.37562.01-21.30238 2.8026-41.7999 12.4505-91.30961 7.9817-40.95964 8.6032-43.04056 13.5836-45.47891 5.7635-2.82173 20.4477-1.51538 25.582 2.27584 2.7002 1.99388 2.6204 2.95492-.7522 9.05926-6.6448 12.02717-8.1434 16.11958-15.0041 40.97256-7.0412 25.50684-13.6846 61.85257-11.6732 63.86392.6445.64455 1.4295.80607 1.7444.35895 17.8377-25.32802 84.5229-103.24435 88.3625-103.24435.867 0 4.1527-2.41445 7.3015-5.36546l5.7251-5.36545-2.3363 4.87769c-1.8468 3.85581-.8725 3.34488 4.6511-2.43884 6.6426-6.95563 10.5174-9.58382 7.9103-5.36546-.6632 1.07309-.3278 1.95107.7453 1.95107s5.2695-3.63917 5.9038-4.6654c.6342-1.02622-1.4003 2.81155.1224 3.39588 1.5228.58434 6.6649-2.46084 10.205-5.05625 6.0893-4.46437 15.2163-6.73029 15.2163-3.77767 0 .74828-1.756 2.45712-3.9022 3.79743s-3.9021 3.35726-3.9021 4.48211c0 1.1286 1.9433.68399 4.3363-.99207 2.3849-1.67049 5.064-3.03725 5.9535-3.03725.8894 0-7.3599 7.15175-18.3319 15.89277-40.5608 32.31346-91.9851 86.83838-120.2601 127.5112-11.0814 15.94025-19.8433 26.46099-21.8078 26.18546-.6041-.0847-2.2142-.60301-3.5782-1.1518zm151.7371-169.11783c0-1.07309-2.195.11098-4.8777 2.63128-2.6827 2.52029-4.8777 5.46033-4.8777 6.53342s2.195-.11098 4.8777-2.63128c2.6827-2.52028 4.8777-5.46033 4.8777-6.53342z" fill="#cf0712"/></g></svg>