<svg id="b" width="211.67mm" height="154.02mm" version="1.1" viewBox="0 0 211.67 154.02" xmlns="http://www.w3.org/2000/svg">
 <defs id="c">
  <clipPath id="a">
   <path id="d" d="m0 0h13.343v9.04h-13.343z"/>
  </clipPath>
 </defs>
 <g id="e" transform="translate(122.84 -71.822)">
  <g id="f" transform="matrix(23.085 0 0 -23.085 -167.13 253.18)" clip-path="url(#a)">
   <g id="g" transform="translate(10.055 7.8562)">
    <path id="h" d="m0 0-1.977-1.066 0.313-0.791c0.06-0.193 0.24-0.334 0.453-0.334 0.074 0 0.143 0.018 0.205 0.048l0.458 0.186v-4.715h1.106c0.262 0 0.475 0.213 0.475 0.475v6.197z" fill="#e30059"/>
   </g>
   <g id="i" transform="translate(6.3539,6.6189)">
    <path id="j" d="m0 0c-0.496 0-0.9-0.407-0.9-0.908s0.404-0.909 0.9-0.909 0.9 0.408 0.9 0.909-0.404 0.908-0.9 0.908" fill="#e30059"/>
   </g>
   <g id="k" transform="translate(6.3539,3.8699)">
    <path id="l" d="m0 0c-0.496 0-0.9-0.407-0.9-0.908s0.404-0.909 0.9-0.909 0.9 0.408 0.9 0.909-0.404 0.908-0.9 0.908" fill="#e30059"/>
   </g>
   <g id="m" transform="translate(2.8134,7.1092)">
    <path id="n" d="m0 0h-0.676v-0.562h-0.219v1.309h0.219v-0.558h0.676v0.558h0.219v-1.309h-0.219z" fill="#e30059"/>
   </g>
   <g id="o" transform="translate(3.9183,6.7283)">
    <path id="p" d="m0 0c0.232 0 0.38 0.115 0.38 0.475 0 0.346-0.131 0.471-0.361 0.471h-0.298v-0.946zm-0.498-0.183v1.311h0.519c0.391 0 0.578-0.196 0.578-0.648 0-0.446-0.195-0.663-0.586-0.663z" fill="#e30059"/>
   </g>
  </g>
 </g>
</svg>
