<svg height="12.053333" viewBox="0 0 3.4014831 3.1890947" width="12.855999" xmlns="http://www.w3.org/2000/svg"><path d="m0 3.1888416h3.401483v-3.18911097h-3.401483z" fill="#e3004f"/><g fill="#fff"><path d="m0 0-1.613-.869.256-.646c.049-.157.196-.272.37-.272.06 0 .116.014.167.039l.373.152v-3.845h.902c.214 0 .387.173.387.387v5.054z" transform="matrix(.35277777 0 0 -.35277777 2.214033 .634554)"/><path d="m0 0c-.405 0-.734-.332-.734-.741 0-.408.329-.741.734-.741s.734.333.734.741c0 .409-.329.741-.734.741" transform="matrix(.35277777 0 0 -.35277777 1.14935 .990683)"/><path d="m0 0c-.405 0-.734-.332-.734-.741 0-.408.329-.741.734-.741s.734.333.734.741c0 .409-.329.741-.734.741" transform="matrix(.35277777 0 0 -.35277777 1.14935 1.781646)"/></g></svg>