<?xml version="1.0" encoding="UTF-8" standalone="no"?>
<!-- Created with Inkscape (http://www.inkscape.org/) -->

<svg
   xmlns:dc="http://purl.org/dc/elements/1.1/"
   xmlns:cc="http://creativecommons.org/ns#"
   xmlns:rdf="http://www.w3.org/1999/02/22-rdf-syntax-ns#"
   xmlns:svg="http://www.w3.org/2000/svg"
   xmlns="http://www.w3.org/2000/svg"
   xmlns:sodipodi="http://sodipodi.sourceforge.net/DTD/sodipodi-0.dtd"
   xmlns:inkscape="http://www.inkscape.org/namespaces/inkscape"
   width="5.8071928mm"
   height="2.5722036mm"
   viewBox="0 0 5.8071929 2.5722036"
   version="1.1"
   id="svg59614"
   inkscape:version="0.92.0 r15299"
   sodipodi:docname="JimJam.svg">
  <defs
     id="defs59608">
    <clipPath
       clipPathUnits="userSpaceOnUse"
       id="clipPath1358">
      <path
         d="m 226.808,337.983 h 15.836 v 8.6 h -15.836 z"
         id="path1356"
         inkscape:connector-curvature="0" />
    </clipPath>
    <clipPath
       clipPathUnits="userSpaceOnUse"
       id="clipPath17110">
      <path
         d="m 228.395,305.855 h 12.664 v 8.227 h -12.664 z"
         id="path17108"
         inkscape:connector-curvature="0" />
    </clipPath>
    <clipPath
       clipPathUnits="userSpaceOnUse"
       id="clipPath960">
      <path
         d="m 298.948,354.709 h 16.69 v 7.464 h -16.69 z"
         id="path958"
         inkscape:connector-curvature="0" />
    </clipPath>
  </defs>
  <sodipodi:namedview
     id="base"
     pagecolor="#ffffff"
     bordercolor="#666666"
     borderopacity="1.0"
     inkscape:pageopacity="0.0"
     inkscape:pageshadow="2"
     inkscape:zoom="44.8"
     inkscape:cx="11.064718"
     inkscape:cy="2.5467986"
     inkscape:document-units="mm"
     inkscape:current-layer="layer1"
     showgrid="false"
     fit-margin-top="0"
     fit-margin-left="0"
     fit-margin-right="0"
     fit-margin-bottom="0"
     inkscape:window-width="1920"
     inkscape:window-height="1017"
     inkscape:window-x="-8"
     inkscape:window-y="-8"
     inkscape:window-maximized="1" />
  <metadata
     id="metadata59611">
    <rdf:RDF>
      <cc:Work
         rdf:about="">
        <dc:format>image/svg+xml</dc:format>
        <dc:type
           rdf:resource="http://purl.org/dc/dcmitype/StillImage" />
        <dc:title></dc:title>
      </cc:Work>
    </rdf:RDF>
  </metadata>
  <g
     inkscape:label="Layer 1"
     inkscape:groupmode="layer"
     id="layer1"
     transform="translate(-80.456709,-87.28912)">
    <g
       transform="matrix(0.35277777,0,0,-0.35277777,-25.056647,215.02833)"
       id="g954">
      <g
         id="g956"
         clip-path="url(#clipPath960)">
        <g
           id="g962"
           transform="translate(302.2456,359.3025)">
          <path
             d="m 0,0 c -0.119,0.043 -0.211,0.056 -0.6,0.039 -0.389,-0.018 -1.026,-0.159 -1.416,-0.301 -0.389,-0.142 -0.847,-0.395 -0.907,-0.567 -0.119,-0.345 0.11,-0.871 0.252,-0.902 0.101,-0.021 0.385,-0.034 0.839,0.202 0.143,0.075 0.435,-0.511 0.499,-0.64 0.064,-0.129 0.168,-0.47 0.082,-0.738 -0.087,-0.275 -0.242,-0.451 -0.458,-0.529 -0.169,-0.06 -0.503,-0.117 -0.655,0.155 -0.165,0.296 -0.009,0.498 0.06,0.558 0.084,0.074 0.146,0.065 0.188,0.03 0.041,-0.034 -0.055,-0.12 -0.042,-0.21 0.014,-0.09 0.294,-0.168 0.422,0.026 0.087,0.131 0.055,0.244 0.004,0.348 -0.052,0.108 -0.206,0.21 -0.361,0.227 -0.156,0.017 -0.358,-0.069 -0.495,-0.266 -0.138,-0.198 -0.302,-0.64 -0.037,-1.087 0.279,-0.468 0.806,-0.516 1.246,-0.468 0.234,0.026 0.454,0.099 0.683,0.224 0.169,0.092 0.32,0.219 0.467,0.528 0.165,0.347 0.11,0.816 0.069,1.116 -0.007,0.047 -0.046,0.207 -0.115,0.456 -0.069,0.249 -0.233,0.498 -0.229,0.511 0.005,0.013 0.009,0.081 0.179,0.098 0.141,0.015 0.591,0.164 0.641,0.43 0.017,0.089 -0.023,0.369 -0.082,0.498 C 0.174,-0.133 0.108,-0.039 0,0"
             style="fill:#492254;fill-opacity:1;fill-rule:nonzero;stroke:none"
             id="path964"
             inkscape:connector-curvature="0" />
        </g>
        <g
           id="g966"
           transform="translate(302.2456,359.3025)">
          <path
             d="m 0,0 c -0.119,0.043 -0.211,0.056 -0.6,0.039 -0.389,-0.018 -1.026,-0.159 -1.416,-0.301 -0.389,-0.142 -0.847,-0.395 -0.907,-0.567 -0.119,-0.345 0.11,-0.871 0.252,-0.902 0.101,-0.021 0.385,-0.034 0.839,0.202 0.143,0.075 0.435,-0.511 0.499,-0.64 0.064,-0.129 0.168,-0.47 0.082,-0.738 -0.087,-0.275 -0.242,-0.451 -0.458,-0.529 -0.169,-0.06 -0.503,-0.117 -0.655,0.155 -0.165,0.296 -0.009,0.498 0.06,0.558 0.084,0.074 0.146,0.065 0.188,0.03 0.041,-0.034 -0.055,-0.12 -0.042,-0.21 0.014,-0.09 0.294,-0.168 0.422,0.026 0.087,0.131 0.055,0.244 0.004,0.348 -0.052,0.108 -0.206,0.21 -0.361,0.227 -0.156,0.017 -0.358,-0.069 -0.495,-0.266 -0.138,-0.198 -0.302,-0.64 -0.037,-1.087 0.279,-0.468 0.806,-0.516 1.246,-0.468 0.234,0.026 0.454,0.099 0.683,0.224 0.169,0.092 0.32,0.219 0.467,0.528 0.165,0.347 0.11,0.816 0.069,1.116 -0.007,0.047 -0.046,0.207 -0.115,0.456 -0.069,0.249 -0.233,0.498 -0.229,0.511 0.005,0.013 0.009,0.081 0.179,0.098 0.141,0.015 0.591,0.164 0.641,0.43 0.017,0.089 -0.023,0.369 -0.082,0.498 C 0.174,-0.133 0.108,-0.039 0,0 Z"
             style="fill:none;stroke:#492254;stroke-width:0.389;stroke-linecap:butt;stroke-linejoin:miter;stroke-miterlimit:4;stroke-dasharray:none;stroke-opacity:1"
             id="path968"
             inkscape:connector-curvature="0" />
        </g>
        <g
           id="g970"
           transform="translate(302.2197,359.3074)">
          <path
             d="m 0,0 c -0.119,0.043 -0.211,0.056 -0.601,0.039 -0.39,-0.018 -1.027,-0.159 -1.417,-0.301 -0.39,-0.142 -0.848,-0.396 -0.908,-0.568 -0.12,-0.346 0.109,-0.872 0.252,-0.903 0.101,-0.021 0.385,-0.034 0.84,0.202 0.143,0.075 0.435,-0.511 0.499,-0.64 0.065,-0.129 0.168,-0.471 0.083,-0.74 -0.087,-0.275 -0.243,-0.451 -0.459,-0.529 -0.17,-0.061 -0.504,-0.117 -0.655,0.155 -0.166,0.297 -0.01,0.499 0.059,0.559 0.084,0.074 0.147,0.065 0.188,0.03 0.041,-0.034 -0.055,-0.12 -0.041,-0.211 0.014,-0.09 0.293,-0.167 0.422,0.026 0.087,0.132 0.055,0.245 0.004,0.349 -0.052,0.108 -0.206,0.21 -0.362,0.227 -0.156,0.018 -0.358,-0.068 -0.495,-0.266 -0.138,-0.198 -0.303,-0.641 -0.037,-1.088 0.279,-0.469 0.807,-0.517 1.248,-0.469 0.233,0.026 0.454,0.099 0.683,0.224 0.17,0.092 0.321,0.219 0.468,0.529 0.165,0.348 0.11,0.817 0.068,1.118 -0.006,0.047 -0.045,0.206 -0.114,0.456 -0.069,0.249 -0.234,0.498 -0.229,0.511 0.004,0.013 0.009,0.082 0.178,0.099 0.142,0.014 0.592,0.163 0.642,0.43 0.017,0.09 -0.022,0.37 -0.082,0.499 C 0.174,-0.133 0.109,-0.039 0,0"
             style="fill:#9e6d99;fill-opacity:1;fill-rule:nonzero;stroke:none"
             id="path972"
             inkscape:connector-curvature="0" />
        </g>
        <g
           id="g974"
           transform="translate(303.0339,357.8509)">
          <path
             d="m 0,0 c -0.146,0.013 -0.345,0 -0.444,0 -0.099,0 -0.151,-0.028 -0.189,-0.075 -0.057,-0.071 -0.09,-0.2 -0.09,-0.2 0,0 -0.174,-0.58 -0.25,-0.832 -0.076,-0.252 -0.217,-1.058 -0.222,-1.191 -0.005,-0.133 0.118,-0.239 0.25,-0.288 0.133,-0.049 0.506,-0.057 0.723,-0.035 0.217,0.022 0.372,0.059 0.43,0.168 0.075,0.142 0.038,0.199 -0.038,0.731 -0.076,0.531 0.066,1.35 0.076,1.421 0.009,0.071 0.033,0.164 -0.015,0.23 C 0.184,-0.004 0.064,-0.006 0,0"
             style="fill:#9e6d99;fill-opacity:1;fill-rule:nonzero;stroke:none"
             id="path976"
             inkscape:connector-curvature="0" />
        </g>
        <g
           id="g978"
           transform="translate(303.0339,357.8509)">
          <path
             d="m 0,0 c -0.146,0.013 -0.345,0 -0.444,0 -0.099,0 -0.151,-0.028 -0.189,-0.075 -0.057,-0.071 -0.09,-0.2 -0.09,-0.2 0,0 -0.174,-0.58 -0.25,-0.832 -0.076,-0.252 -0.217,-1.058 -0.222,-1.191 -0.005,-0.133 0.118,-0.239 0.25,-0.288 0.133,-0.049 0.506,-0.057 0.723,-0.035 0.217,0.022 0.372,0.059 0.43,0.168 0.075,0.142 0.038,0.199 -0.038,0.731 -0.076,0.531 0.066,1.35 0.076,1.421 0.009,0.071 0.033,0.164 -0.015,0.23 C 0.184,-0.004 0.064,-0.006 0,0 Z"
             style="fill:none;stroke:#492254;stroke-width:0.389;stroke-linecap:butt;stroke-linejoin:miter;stroke-miterlimit:4;stroke-dasharray:none;stroke-opacity:1"
             id="path980"
             inkscape:connector-curvature="0" />
        </g>
        <g
           id="g982"
           transform="translate(303.0339,357.8509)">
          <path
             d="m 0,0 c -0.146,0.013 -0.345,0 -0.444,0 -0.099,0 -0.151,-0.028 -0.189,-0.075 -0.057,-0.071 -0.09,-0.2 -0.09,-0.2 0,0 -0.174,-0.58 -0.25,-0.832 -0.076,-0.252 -0.217,-1.058 -0.222,-1.191 -0.005,-0.133 0.118,-0.239 0.25,-0.288 0.133,-0.049 0.506,-0.057 0.723,-0.035 0.217,0.022 0.372,0.059 0.43,0.168 0.075,0.142 0.038,0.199 -0.038,0.731 -0.076,0.531 0.066,1.35 0.076,1.421 0.009,0.071 0.033,0.164 -0.015,0.23 C 0.184,-0.004 0.064,-0.006 0,0"
             style="fill:#9e6d99;fill-opacity:1;fill-rule:nonzero;stroke:none"
             id="path984"
             inkscape:connector-curvature="0" />
        </g>
        <g
           id="g986"
           transform="translate(304.0494,357.9349)">
          <path
             d="m 0,0 c -0.34,0.026 -0.478,-0.051 -0.546,-0.12 -0.103,-0.107 -0.14,-0.199 -0.167,-0.347 -0.086,-0.474 -0.108,-1.852 0.005,-2.106 0.083,-0.189 0.298,-0.186 0.41,-0.195 0.201,-0.016 0.324,0.046 0.42,0.181 0.049,0.069 0.076,0.342 0.094,0.625 0.018,0.282 -0.027,0.37 0.068,0.425 0.058,0.034 0.176,-0.143 0.289,-0.287 0.112,-0.143 0.293,-0.43 0.455,-0.425 0.176,0.004 0.42,0.384 0.519,0.555 0.033,0.057 0.147,0.011 0.135,-0.102 -0.013,-0.129 -0.031,-0.547 0.005,-0.796 0.027,-0.19 0.039,-0.281 0.207,-0.324 0.217,-0.055 0.553,0.009 0.681,0.162 0.086,0.102 0.063,0.315 0.041,0.514 -0.022,0.193 -0.217,1.309 -0.253,1.523 -0.045,0.268 -0.126,0.394 -0.41,0.435 C 1.759,-0.255 1.524,-0.268 1.33,-0.38 1.132,-0.493 1.064,-0.713 0.938,-0.704 0.844,-0.697 0.785,-0.504 0.645,-0.324 0.501,-0.139 0.302,-0.023 0,0"
             style="fill:#9e6d99;fill-opacity:1;fill-rule:nonzero;stroke:none"
             id="path988"
             inkscape:connector-curvature="0" />
        </g>
        <g
           id="g990"
           transform="translate(304.0494,357.9349)">
          <path
             d="m 0,0 c -0.34,0.026 -0.478,-0.051 -0.546,-0.12 -0.103,-0.107 -0.14,-0.199 -0.167,-0.347 -0.086,-0.474 -0.108,-1.852 0.005,-2.106 0.083,-0.189 0.298,-0.186 0.41,-0.195 0.201,-0.016 0.324,0.046 0.42,0.181 0.049,0.069 0.076,0.342 0.094,0.625 0.018,0.282 -0.027,0.37 0.068,0.425 0.058,0.034 0.176,-0.143 0.289,-0.287 0.112,-0.143 0.293,-0.43 0.455,-0.425 0.176,0.004 0.42,0.384 0.519,0.555 0.033,0.057 0.147,0.011 0.135,-0.102 -0.013,-0.129 -0.031,-0.547 0.005,-0.796 0.027,-0.19 0.039,-0.281 0.207,-0.324 0.217,-0.055 0.553,0.009 0.681,0.162 0.086,0.102 0.063,0.315 0.041,0.514 -0.022,0.193 -0.217,1.309 -0.253,1.523 -0.045,0.268 -0.126,0.394 -0.41,0.435 C 1.759,-0.255 1.524,-0.268 1.33,-0.38 1.132,-0.493 1.064,-0.713 0.938,-0.704 0.844,-0.697 0.785,-0.504 0.645,-0.324 0.501,-0.139 0.302,-0.023 0,0 Z"
             style="fill:none;stroke:#492254;stroke-width:0.389;stroke-linecap:butt;stroke-linejoin:miter;stroke-miterlimit:4;stroke-dasharray:none;stroke-opacity:1"
             id="path992"
             inkscape:connector-curvature="0" />
        </g>
        <g
           id="g994"
           transform="translate(304.0494,357.9349)">
          <path
             d="m 0,0 c -0.34,0.026 -0.478,-0.051 -0.546,-0.12 -0.103,-0.107 -0.14,-0.199 -0.167,-0.347 -0.086,-0.474 -0.108,-1.852 0.005,-2.106 0.083,-0.189 0.298,-0.186 0.41,-0.195 0.201,-0.016 0.324,0.046 0.42,0.181 0.049,0.069 0.076,0.342 0.094,0.625 0.018,0.282 -0.027,0.37 0.068,0.425 0.058,0.034 0.176,-0.143 0.289,-0.287 0.112,-0.143 0.293,-0.43 0.455,-0.425 0.176,0.004 0.42,0.384 0.519,0.555 0.033,0.057 0.147,0.011 0.135,-0.102 -0.013,-0.129 -0.031,-0.547 0.005,-0.796 0.027,-0.19 0.039,-0.281 0.207,-0.324 0.217,-0.055 0.553,0.009 0.681,0.162 0.086,0.102 0.063,0.315 0.041,0.514 -0.022,0.193 -0.217,1.309 -0.253,1.523 -0.045,0.268 -0.126,0.394 -0.41,0.435 C 1.759,-0.255 1.524,-0.268 1.33,-0.38 1.132,-0.493 1.064,-0.713 0.938,-0.704 0.844,-0.697 0.785,-0.504 0.645,-0.324 0.501,-0.139 0.302,-0.023 0,0"
             style="fill:#9e6d99;fill-opacity:1;fill-rule:nonzero;stroke:none"
             id="path996"
             inkscape:connector-curvature="0" />
        </g>
        <g
           id="g998"
           transform="translate(310.5111,356.2619)">
          <path
             d="m 0,0 c -0.303,-0.001 -0.515,0.226 -0.515,0.511 0,0.285 0.235,0.515 0.475,0.515 0.241,0 0.511,-0.209 0.511,-0.494 C 0.471,0.248 0.304,0.001 0,0 M 1.399,1.667 C 1.248,1.724 0.818,1.777 0.653,1.733 0.584,1.714 0.557,1.623 0.562,1.566 0.566,1.509 0.498,1.4 0.406,1.443 0.315,1.487 0.196,1.698 -0.39,1.693 -0.923,1.689 -1.2,1.351 -1.3,1.15 -1.401,0.948 -1.47,-0.197 -1.47,-0.197 c 0,0 0.19,-0.37 0.412,-0.509 0.33,-0.206 0.781,-0.14 1.043,-0.017 0.179,0.083 0.215,0.263 0.302,0.294 0.065,0.022 0.11,-0.022 0.105,-0.092 -0.004,-0.071 -0.055,-0.13 0.01,-0.233 0.055,-0.088 0.297,-0.123 0.471,-0.131 0.174,-0.009 0.393,-0.022 0.494,0.131 0.107,0.163 0.081,0.89 0.064,1.127 -0.023,0.325 0.078,1.018 0.101,1.092 0.023,0.075 0.031,0.14 -0.133,0.202"
             style="fill:#adc300;fill-opacity:1;fill-rule:nonzero;stroke:none"
             id="path1000"
             inkscape:connector-curvature="0" />
        </g>
        <g
           id="g1002"
           transform="translate(310.5111,356.2619)">
          <path
             d="m 0,0 c -0.303,-0.001 -0.515,0.226 -0.515,0.511 0,0.285 0.235,0.515 0.475,0.515 0.241,0 0.511,-0.209 0.511,-0.494 C 0.471,0.248 0.304,0.001 0,0 Z M 1.399,1.667 C 1.248,1.724 0.818,1.777 0.653,1.733 0.584,1.714 0.557,1.623 0.562,1.566 0.566,1.509 0.498,1.4 0.406,1.443 0.315,1.487 0.196,1.698 -0.39,1.693 -0.923,1.689 -1.2,1.351 -1.3,1.15 -1.401,0.948 -1.47,-0.197 -1.47,-0.197 c 0,0 0.19,-0.37 0.412,-0.509 0.33,-0.206 0.781,-0.14 1.043,-0.017 0.179,0.083 0.215,0.263 0.302,0.294 0.065,0.022 0.11,-0.022 0.105,-0.092 -0.004,-0.071 -0.055,-0.13 0.01,-0.233 0.055,-0.088 0.297,-0.123 0.471,-0.131 0.174,-0.009 0.393,-0.022 0.494,0.131 0.107,0.163 0.081,0.89 0.064,1.127 -0.023,0.325 0.078,1.018 0.101,1.092 0.023,0.075 0.031,0.14 -0.133,0.202 z"
             style="fill:none;stroke:#45882b;stroke-width:0.389;stroke-linecap:butt;stroke-linejoin:miter;stroke-miterlimit:4;stroke-dasharray:none;stroke-opacity:1"
             id="path1004"
             inkscape:connector-curvature="0" />
        </g>
        <g
           id="g1006"
           transform="translate(310.5122,356.2469)">
          <path
             d="m 0,0 c -0.315,-0.001 -0.535,0.235 -0.535,0.531 0,0.296 0.244,0.536 0.494,0.536 0.25,0 0.53,-0.218 0.53,-0.514 C 0.489,0.257 0.316,0.001 0,0 M 1.398,1.682 C 1.247,1.739 0.817,1.792 0.652,1.748 0.582,1.729 0.556,1.638 0.561,1.581 0.565,1.524 0.497,1.415 0.405,1.458 0.314,1.502 0.195,1.713 -0.391,1.708 -0.924,1.704 -1.201,1.366 -1.301,1.165 c -0.101,-0.202 -0.17,-1.347 -0.17,-1.347 0,0 0.19,-0.37 0.412,-0.509 0.329,-0.206 0.781,-0.14 1.043,-0.017 0.179,0.083 0.215,0.263 0.302,0.294 0.065,0.022 0.11,-0.022 0.105,-0.092 -0.004,-0.071 -0.055,-0.13 0.01,-0.233 0.054,-0.088 0.297,-0.123 0.471,-0.131 0.174,-0.009 0.393,-0.022 0.494,0.131 0.107,0.163 0.081,0.89 0.064,1.127 C 1.407,0.713 1.508,1.406 1.531,1.48 1.554,1.555 1.562,1.62 1.398,1.682"
             style="fill:#adc300;fill-opacity:1;fill-rule:nonzero;stroke:none"
             id="path1008"
             inkscape:connector-curvature="0" />
        </g>
        <g
           id="g1010"
           transform="translate(312.8344,357.93)">
          <path
             d="m 0,0 c -0.325,0.025 -0.458,-0.049 -0.523,-0.116 -0.099,-0.103 -0.134,-0.193 -0.16,-0.336 -0.082,-0.458 -0.103,-1.792 0.005,-2.038 0.079,-0.182 0.285,-0.18 0.393,-0.188 0.192,-0.016 0.309,0.044 0.402,0.174 0.047,0.067 0.073,0.332 0.09,0.605 0.018,0.273 -0.026,0.358 0.065,0.412 0.056,0.033 0.169,-0.139 0.277,-0.278 0.108,-0.139 0.28,-0.416 0.436,-0.412 0.168,0.005 0.402,0.372 0.497,0.538 0.031,0.055 0.141,0.01 0.129,-0.099 -0.013,-0.125 -0.029,-0.529 0.005,-0.77 0.026,-0.184 0.038,-0.272 0.198,-0.314 0.208,-0.054 0.53,0.009 0.653,0.157 0.082,0.099 0.06,0.305 0.039,0.497 -0.021,0.187 -0.208,1.267 -0.242,1.474 -0.043,0.26 -0.121,0.381 -0.393,0.421 C 1.685,-0.246 1.46,-0.26 1.274,-0.367 1.084,-0.477 1.02,-0.69 0.899,-0.681 0.808,-0.674 0.752,-0.488 0.618,-0.314 0.48,-0.134 0.289,-0.022 0,0"
             style="fill:#adc300;fill-opacity:1;fill-rule:nonzero;stroke:none"
             id="path1012"
             inkscape:connector-curvature="0" />
        </g>
        <g
           id="g1014"
           transform="translate(312.8344,357.93)">
          <path
             d="m 0,0 c -0.325,0.025 -0.458,-0.049 -0.523,-0.116 -0.099,-0.103 -0.134,-0.193 -0.16,-0.336 -0.082,-0.458 -0.103,-1.792 0.005,-2.038 0.079,-0.182 0.285,-0.18 0.393,-0.188 0.192,-0.016 0.309,0.044 0.402,0.174 0.047,0.067 0.073,0.332 0.09,0.605 0.018,0.273 -0.026,0.358 0.065,0.412 0.056,0.033 0.169,-0.139 0.277,-0.278 0.108,-0.139 0.28,-0.416 0.436,-0.412 0.168,0.005 0.402,0.372 0.497,0.538 0.031,0.055 0.141,0.01 0.129,-0.099 -0.013,-0.125 -0.029,-0.529 0.005,-0.77 0.026,-0.184 0.038,-0.272 0.198,-0.314 0.208,-0.054 0.53,0.009 0.653,0.157 0.082,0.099 0.06,0.305 0.039,0.497 -0.021,0.187 -0.208,1.267 -0.242,1.474 -0.043,0.26 -0.121,0.381 -0.393,0.421 C 1.685,-0.246 1.46,-0.26 1.274,-0.367 1.084,-0.477 1.02,-0.69 0.899,-0.681 0.808,-0.674 0.752,-0.488 0.618,-0.314 0.48,-0.134 0.289,-0.022 0,0 Z"
             style="fill:none;stroke:#45882b;stroke-width:0.389;stroke-linecap:butt;stroke-linejoin:miter;stroke-miterlimit:4;stroke-dasharray:none;stroke-opacity:1"
             id="path1016"
             inkscape:connector-curvature="0" />
        </g>
        <g
           id="g1018"
           transform="translate(312.8344,357.93)">
          <path
             d="m 0,0 c -0.325,0.025 -0.458,-0.049 -0.523,-0.116 -0.099,-0.103 -0.134,-0.193 -0.16,-0.336 -0.082,-0.458 -0.103,-1.792 0.005,-2.038 0.079,-0.182 0.285,-0.18 0.393,-0.188 0.192,-0.016 0.309,0.044 0.402,0.174 0.047,0.067 0.073,0.332 0.09,0.605 0.018,0.273 -0.026,0.358 0.065,0.412 0.056,0.033 0.169,-0.139 0.277,-0.278 0.108,-0.139 0.28,-0.416 0.436,-0.412 0.168,0.005 0.402,0.372 0.497,0.538 0.031,0.055 0.141,0.01 0.129,-0.099 -0.013,-0.125 -0.029,-0.529 0.005,-0.77 0.026,-0.184 0.038,-0.272 0.198,-0.314 0.208,-0.054 0.53,0.009 0.653,0.157 0.082,0.099 0.06,0.305 0.039,0.497 -0.021,0.187 -0.208,1.267 -0.242,1.474 -0.043,0.26 -0.121,0.381 -0.393,0.421 C 1.685,-0.246 1.46,-0.26 1.274,-0.367 1.084,-0.477 1.02,-0.69 0.899,-0.681 0.808,-0.674 0.752,-0.488 0.618,-0.314 0.48,-0.134 0.289,-0.022 0,0"
             style="fill:#adc300;fill-opacity:1;fill-rule:nonzero;stroke:none"
             id="path1020"
             inkscape:connector-curvature="0" />
        </g>
        <g
           id="g1022"
           transform="translate(309.3709,359.4421)">
          <path
             d="m 0,0 c -0.122,0.044 -0.215,0.057 -0.614,0.04 -0.398,-0.018 -1.049,-0.163 -1.448,-0.308 -0.398,-0.145 -0.866,-0.404 -0.927,-0.58 -0.123,-0.353 0.111,-0.891 0.257,-0.922 0.103,-0.022 0.394,-0.035 0.858,0.206 0.146,0.076 0.445,-0.523 0.511,-0.654 0.065,-0.132 0.171,-0.481 0.084,-0.756 -0.089,-0.281 -0.249,-0.461 -0.469,-0.54 -0.173,-0.063 -0.515,-0.12 -0.67,0.158 -0.168,0.303 -0.009,0.51 0.061,0.571 0.086,0.075 0.15,0.066 0.192,0.031 0.042,-0.035 -0.056,-0.123 -0.042,-0.215 0.014,-0.093 0.3,-0.172 0.431,0.026 0.089,0.134 0.056,0.25 0.005,0.356 -0.054,0.11 -0.211,0.215 -0.37,0.232 -0.16,0.018 -0.366,-0.07 -0.506,-0.272 -0.141,-0.202 -0.31,-0.654 -0.038,-1.111 0.285,-0.48 0.825,-0.529 1.275,-0.479 0.239,0.026 0.464,0.101 0.698,0.228 0.173,0.095 0.328,0.224 0.478,0.541 0.168,0.355 0.112,0.834 0.07,1.142 -0.007,0.048 -0.047,0.211 -0.117,0.465 -0.07,0.255 -0.239,0.51 -0.234,0.523 0.004,0.013 0.009,0.084 0.182,0.101 0.145,0.015 0.605,0.167 0.656,0.44 C 0.341,-0.686 0.3,-0.4 0.239,-0.268 0.178,-0.136 0.111,-0.04 0,0"
             style="fill:#adc300;fill-opacity:1;fill-rule:nonzero;stroke:none"
             id="path1024"
             inkscape:connector-curvature="0" />
        </g>
        <g
           id="g1026"
           transform="translate(309.3709,359.4421)">
          <path
             d="m 0,0 c -0.122,0.044 -0.215,0.057 -0.614,0.04 -0.398,-0.018 -1.049,-0.163 -1.448,-0.308 -0.398,-0.145 -0.866,-0.404 -0.927,-0.58 -0.123,-0.353 0.111,-0.891 0.257,-0.922 0.103,-0.022 0.394,-0.035 0.858,0.206 0.146,0.076 0.445,-0.523 0.511,-0.654 0.065,-0.132 0.171,-0.481 0.084,-0.756 -0.089,-0.281 -0.249,-0.461 -0.469,-0.54 -0.173,-0.063 -0.515,-0.12 -0.67,0.158 -0.168,0.303 -0.009,0.51 0.061,0.571 0.086,0.075 0.15,0.066 0.192,0.031 0.042,-0.035 -0.056,-0.123 -0.042,-0.215 0.014,-0.093 0.3,-0.172 0.431,0.026 0.089,0.134 0.056,0.25 0.005,0.356 -0.054,0.11 -0.211,0.215 -0.37,0.232 -0.16,0.018 -0.366,-0.07 -0.506,-0.272 -0.141,-0.202 -0.31,-0.654 -0.038,-1.111 0.285,-0.48 0.825,-0.529 1.275,-0.479 0.239,0.026 0.464,0.101 0.698,0.228 0.173,0.095 0.328,0.224 0.478,0.541 0.168,0.355 0.112,0.834 0.07,1.142 -0.007,0.048 -0.047,0.211 -0.117,0.465 -0.07,0.255 -0.239,0.51 -0.234,0.523 0.004,0.013 0.009,0.084 0.182,0.101 0.145,0.015 0.605,0.167 0.656,0.44 C 0.341,-0.686 0.3,-0.4 0.239,-0.268 0.178,-0.136 0.111,-0.04 0,0 Z"
             style="fill:none;stroke:#45882b;stroke-width:0.389;stroke-linecap:butt;stroke-linejoin:miter;stroke-miterlimit:4;stroke-dasharray:none;stroke-opacity:1"
             id="path1028"
             inkscape:connector-curvature="0" />
        </g>
        <g
           id="g1030"
           transform="translate(309.3709,359.4421)">
          <path
             d="m 0,0 c -0.122,0.044 -0.215,0.057 -0.614,0.04 -0.398,-0.018 -1.049,-0.163 -1.448,-0.308 -0.398,-0.145 -0.866,-0.404 -0.927,-0.58 -0.123,-0.353 0.111,-0.891 0.257,-0.922 0.103,-0.022 0.394,-0.035 0.858,0.206 0.146,0.076 0.445,-0.523 0.511,-0.654 0.065,-0.132 0.171,-0.481 0.084,-0.756 -0.089,-0.281 -0.249,-0.461 -0.469,-0.54 -0.173,-0.063 -0.515,-0.12 -0.67,0.158 -0.168,0.303 -0.009,0.51 0.061,0.571 0.086,0.075 0.15,0.066 0.192,0.031 0.042,-0.035 -0.056,-0.123 -0.042,-0.215 0.014,-0.093 0.3,-0.172 0.431,0.026 0.089,0.134 0.056,0.25 0.005,0.356 -0.054,0.11 -0.211,0.215 -0.37,0.232 -0.16,0.018 -0.366,-0.07 -0.506,-0.272 -0.141,-0.202 -0.31,-0.654 -0.038,-1.111 0.285,-0.48 0.825,-0.529 1.275,-0.479 0.239,0.026 0.464,0.101 0.698,0.228 0.173,0.095 0.328,0.224 0.478,0.541 0.168,0.355 0.112,0.834 0.07,1.142 -0.007,0.048 -0.047,0.211 -0.117,0.465 -0.07,0.255 -0.239,0.51 -0.234,0.523 0.004,0.013 0.009,0.084 0.182,0.101 0.145,0.015 0.605,0.167 0.656,0.44 C 0.341,-0.686 0.3,-0.4 0.239,-0.268 0.178,-0.136 0.111,-0.04 0,0"
             style="fill:#adc300;fill-opacity:1;fill-rule:nonzero;stroke:none"
             id="path1032"
             inkscape:connector-curvature="0" />
        </g>
        <g
           id="g1034"
           transform="translate(303.5148,360.3389)">
          <path
             d="m 0,0 c -0.142,0.04 -0.651,-0.438 -0.651,-0.438 0,0 -0.741,0.159 -0.855,0.018 -0.095,-0.119 0.288,-0.646 0.288,-0.646 0,0 -0.542,-0.553 -0.448,-0.726 0.108,-0.198 1.019,0.049 1.024,0.035 0.005,-0.013 0.529,-0.677 0.713,-0.65 0.177,0.026 0.245,0.77 0.245,0.77 0,0 0.638,0.375 0.633,0.54 C 0.944,-0.942 0.236,-0.748 0.236,-0.743 0.236,-0.739 0.183,-0.052 0,0"
             style="fill:#e45e1a;fill-opacity:1;fill-rule:nonzero;stroke:none"
             id="path1036"
             inkscape:connector-curvature="0" />
        </g>
        <g
           id="g1038"
           transform="translate(303.5148,360.3389)">
          <path
             d="m 0,0 c -0.142,0.04 -0.651,-0.438 -0.651,-0.438 0,0 -0.741,0.159 -0.855,0.018 -0.095,-0.119 0.288,-0.646 0.288,-0.646 0,0 -0.542,-0.553 -0.448,-0.726 0.108,-0.198 1.019,0.049 1.024,0.035 0.005,-0.013 0.529,-0.677 0.713,-0.65 0.177,0.026 0.245,0.77 0.245,0.77 0,0 0.638,0.375 0.633,0.54 C 0.944,-0.942 0.236,-0.748 0.236,-0.743 0.236,-0.739 0.183,-0.052 0,0 Z"
             style="fill:none;stroke:#e45e1a;stroke-width:0.29899999;stroke-linecap:butt;stroke-linejoin:miter;stroke-miterlimit:4;stroke-dasharray:none;stroke-opacity:1"
             id="path1040"
             inkscape:connector-curvature="0" />
        </g>
        <g
           id="g1042"
           transform="translate(303.4926,360.294)">
          <path
             d="m 0,0 c -0.137,0.039 -0.631,-0.424 -0.631,-0.424 0,0 -0.718,0.154 -0.828,0.017 -0.092,-0.116 0.279,-0.626 0.279,-0.626 0,0 -0.526,-0.536 -0.434,-0.703 0.104,-0.192 0.988,0.047 0.992,0.034 0.005,-0.013 0.512,-0.656 0.691,-0.63 0.172,0.025 0.237,0.746 0.237,0.746 0,0 0.618,0.364 0.613,0.523 -0.004,0.15 -0.69,0.338 -0.69,0.343 C 0.229,-0.716 0.177,-0.05 0,0"
             style="fill:#eedd00;fill-opacity:1;fill-rule:nonzero;stroke:none"
             id="path1044"
             inkscape:connector-curvature="0" />
        </g>
        <g
           id="g1046"
           transform="translate(305.6366,361.846)">
          <path
             d="m 0,0 c -0.1,-0.002 -0.351,-0.386 -0.351,-0.386 0,0 -0.512,-0.043 -0.562,-0.149 -0.042,-0.09 0.3,-0.336 0.3,-0.336 0,0 -0.26,-0.435 -0.168,-0.522 0.105,-0.099 0.659,0.22 0.664,0.213 0.005,-0.007 0.463,-0.309 0.579,-0.258 0.112,0.048 0.027,0.51 0.027,0.51 0,0 0.353,0.346 0.321,0.444 -0.03,0.092 -0.526,0.077 -0.527,0.08 C 0.282,-0.401 0.129,0.003 0,0"
             style="fill:#e45e1a;fill-opacity:1;fill-rule:nonzero;stroke:none"
             id="path1048"
             inkscape:connector-curvature="0" />
        </g>
        <g
           id="g1050"
           transform="translate(305.6366,361.846)">
          <path
             d="m 0,0 c -0.1,-0.002 -0.351,-0.386 -0.351,-0.386 0,0 -0.512,-0.043 -0.562,-0.149 -0.042,-0.09 0.3,-0.336 0.3,-0.336 0,0 -0.26,-0.435 -0.168,-0.522 0.105,-0.099 0.659,0.22 0.664,0.213 0.005,-0.007 0.463,-0.309 0.579,-0.258 0.112,0.048 0.027,0.51 0.027,0.51 0,0 0.353,0.346 0.321,0.444 -0.03,0.092 -0.526,0.077 -0.527,0.08 C 0.282,-0.401 0.129,0.003 0,0 Z"
             style="fill:none;stroke:#e45e1a;stroke-width:0.26899999;stroke-linecap:butt;stroke-linejoin:miter;stroke-miterlimit:4;stroke-dasharray:none;stroke-opacity:1"
             id="path1052"
             inkscape:connector-curvature="0" />
        </g>
        <g
           id="g1054"
           transform="translate(305.6299,361.8148)">
          <path
             d="m 0,0 c -0.096,-0.002 -0.34,-0.374 -0.34,-0.374 0,0 -0.496,-0.042 -0.544,-0.145 -0.041,-0.087 0.29,-0.325 0.29,-0.325 0,0 -0.252,-0.422 -0.163,-0.505 0.102,-0.096 0.638,0.213 0.644,0.206 0.005,-0.007 0.448,-0.3 0.56,-0.251 0.109,0.047 0.027,0.495 0.027,0.495 0,0 0.342,0.335 0.311,0.43 C 0.756,-0.38 0.275,-0.394 0.274,-0.392 0.273,-0.389 0.125,0.003 0,0"
             style="fill:#eedd00;fill-opacity:1;fill-rule:nonzero;stroke:none"
             id="path1056"
             inkscape:connector-curvature="0" />
        </g>
        <g
           id="g1058"
           transform="translate(308.2568,361.9732)">
          <path
             d="m 0,0 c -0.063,-0.016 -0.169,-0.295 -0.169,-0.295 0,0 -0.321,-0.1 -0.337,-0.174 -0.014,-0.063 0.238,-0.172 0.238,-0.172 0,0 -0.104,-0.314 -0.034,-0.356 0.081,-0.048 0.389,0.233 0.393,0.229 0.005,-0.004 0.339,-0.132 0.405,-0.083 0.065,0.046 -0.054,0.329 -0.054,0.329 0,0 0.176,0.269 0.142,0.327 C 0.552,-0.14 0.238,-0.219 0.237,-0.218 0.236,-0.216 0.082,0.02 0,0"
             style="fill:#e45e1a;fill-opacity:1;fill-rule:nonzero;stroke:none"
             id="path1060"
             inkscape:connector-curvature="0" />
        </g>
        <g
           id="g1062"
           transform="translate(308.2568,361.9732)">
          <path
             d="m 0,0 c -0.063,-0.016 -0.169,-0.295 -0.169,-0.295 0,0 -0.321,-0.1 -0.337,-0.174 -0.014,-0.063 0.238,-0.172 0.238,-0.172 0,0 -0.104,-0.314 -0.034,-0.356 0.081,-0.048 0.389,0.233 0.393,0.229 0.005,-0.004 0.339,-0.132 0.405,-0.083 0.065,0.046 -0.054,0.329 -0.054,0.329 0,0 0.176,0.269 0.142,0.327 C 0.552,-0.14 0.238,-0.219 0.237,-0.218 0.236,-0.216 0.082,0.02 0,0 Z"
             style="fill:none;stroke:#e45e1a;stroke-width:0.23999999;stroke-linecap:butt;stroke-linejoin:miter;stroke-miterlimit:4;stroke-dasharray:none;stroke-opacity:1"
             id="path1064"
             inkscape:connector-curvature="0" />
        </g>
        <g
           id="g1066"
           transform="translate(308.2569,361.9524)">
          <path
             d="m 0,0 c -0.061,-0.015 -0.164,-0.286 -0.164,-0.286 0,0 -0.31,-0.096 -0.327,-0.169 -0.013,-0.061 0.231,-0.166 0.231,-0.166 0,0 -0.101,-0.304 -0.032,-0.345 0.078,-0.047 0.376,0.226 0.381,0.222 0.004,-0.004 0.327,-0.128 0.392,-0.081 0.062,0.045 -0.052,0.319 -0.052,0.319 0,0 0.17,0.261 0.137,0.318 C 0.535,-0.135 0.23,-0.212 0.23,-0.211 0.229,-0.209 0.079,0.02 0,0"
             style="fill:#eedd00;fill-opacity:1;fill-rule:nonzero;stroke:none"
             id="path1068"
             inkscape:connector-curvature="0" />
        </g>
        <g
           id="g1070"
           transform="translate(310.4643,361.2514)">
          <path
             d="m 0,0 c -0.056,-0.033 -0.077,-0.331 -0.077,-0.331 0,0 -0.278,-0.188 -0.273,-0.264 0.005,-0.065 0.278,-0.096 0.278,-0.096 0,0 -0.01,-0.331 0.07,-0.351 0.091,-0.023 0.305,0.335 0.311,0.333 0.005,-0.002 0.362,-0.029 0.411,0.037 0.049,0.063 -0.146,0.299 -0.146,0.299 0,0 0.091,0.309 0.041,0.355 C 0.569,0.025 0.291,-0.141 0.29,-0.14 0.288,-0.139 0.072,0.043 0,0"
             style="fill:#e45e1a;fill-opacity:1;fill-rule:nonzero;stroke:none"
             id="path1072"
             inkscape:connector-curvature="0" />
        </g>
        <g
           id="g1074"
           transform="translate(310.4643,361.2514)">
          <path
             d="m 0,0 c -0.056,-0.033 -0.077,-0.331 -0.077,-0.331 0,0 -0.278,-0.188 -0.273,-0.264 0.005,-0.065 0.278,-0.096 0.278,-0.096 0,0 -0.01,-0.331 0.07,-0.351 0.091,-0.023 0.305,0.335 0.311,0.333 0.005,-0.002 0.362,-0.029 0.411,0.037 0.049,0.063 -0.146,0.299 -0.146,0.299 0,0 0.091,0.309 0.041,0.355 C 0.569,0.025 0.291,-0.141 0.29,-0.14 0.288,-0.139 0.072,0.043 0,0 Z"
             style="fill:none;stroke:#e45e1a;stroke-width:0.20999999;stroke-linecap:butt;stroke-linejoin:miter;stroke-miterlimit:4;stroke-dasharray:none;stroke-opacity:1"
             id="path1076"
             inkscape:connector-curvature="0" />
        </g>
        <g
           id="g1078"
           transform="translate(310.4704,361.2315)">
          <path
             d="m 0,0 c -0.054,-0.032 -0.075,-0.321 -0.075,-0.321 0,0 -0.269,-0.182 -0.264,-0.256 0.005,-0.062 0.269,-0.093 0.269,-0.093 0,0 -0.009,-0.32 0.068,-0.339 0.088,-0.023 0.296,0.324 0.301,0.322 0.005,-0.002 0.351,-0.028 0.399,0.035 0.047,0.062 -0.142,0.291 -0.142,0.291 0,0 0.088,0.299 0.04,0.344 C 0.551,0.024 0.282,-0.137 0.281,-0.136 0.279,-0.135 0.07,0.041 0,0"
             style="fill:#eedd00;fill-opacity:1;fill-rule:nonzero;stroke:none"
             id="path1080"
             inkscape:connector-curvature="0" />
        </g>
        <g
           id="g1082"
           transform="translate(312.1503,360.1278)">
          <path
             d="m 0,0 c -0.033,-0.036 0.018,-0.258 0.018,-0.258 0,0 -0.161,-0.198 -0.14,-0.252 0.018,-0.046 0.223,-0.008 0.223,-0.008 0,0 0.066,-0.243 0.128,-0.239 0.072,0.003 0.148,0.311 0.152,0.31 0.005,0 0.27,0.059 0.292,0.118 0.021,0.057 -0.173,0.185 -0.173,0.185 0,0 -0.003,0.245 -0.049,0.267 C 0.408,0.144 0.243,-0.038 0.242,-0.038 0.24,-0.037 0.043,0.047 0,0"
             style="fill:#e45e1a;fill-opacity:1;fill-rule:nonzero;stroke:none"
             id="path1084"
             inkscape:connector-curvature="0" />
        </g>
        <g
           id="g1086"
           transform="translate(312.1503,360.1278)">
          <path
             d="m 0,0 c -0.033,-0.036 0.018,-0.258 0.018,-0.258 0,0 -0.161,-0.198 -0.14,-0.252 0.018,-0.046 0.223,-0.008 0.223,-0.008 0,0 0.066,-0.243 0.128,-0.239 0.072,0.003 0.148,0.311 0.152,0.31 0.005,0 0.27,0.059 0.292,0.118 0.021,0.057 -0.173,0.185 -0.173,0.185 0,0 -0.003,0.245 -0.049,0.267 C 0.408,0.144 0.243,-0.038 0.242,-0.038 0.24,-0.037 0.043,0.047 0,0 Z"
             style="fill:none;stroke:#e45e1a;stroke-width:0.18000001;stroke-linecap:butt;stroke-linejoin:miter;stroke-miterlimit:4;stroke-dasharray:none;stroke-opacity:1"
             id="path1088"
             inkscape:connector-curvature="0" />
        </g>
        <g
           id="g1090"
           transform="translate(312.1591,360.1147)">
          <path
             d="m 0,0 c -0.032,-0.035 0.017,-0.25 0.017,-0.25 0,0 -0.156,-0.192 -0.135,-0.244 0.017,-0.045 0.216,-0.008 0.216,-0.008 0,0 0.064,-0.235 0.124,-0.232 0.069,0.003 0.143,0.302 0.148,0.301 0.004,-0.001 0.261,0.057 0.282,0.114 0.02,0.055 -0.168,0.18 -0.168,0.18 0,0 -0.002,0.237 -0.047,0.258 C 0.395,0.14 0.235,-0.037 0.234,-0.037 0.233,-0.036 0.042,0.046 0,0"
             style="fill:#eedd00;fill-opacity:1;fill-rule:nonzero;stroke:none"
             id="path1092"
             inkscape:connector-curvature="0" />
        </g>
        <g
           id="g1094"
           transform="translate(313.3464,358.9844)">
          <path
             d="m 0,0 c -0.024,-0.036 0.051,-0.221 0.051,-0.221 0,0 -0.111,-0.193 -0.085,-0.238 0.021,-0.037 0.194,0.025 0.194,0.025 0,0 0.091,-0.201 0.145,-0.19 0.061,0.013 0.084,0.29 0.088,0.291 0.004,0 0.225,0.088 0.235,0.142 0.01,0.052 -0.175,0.136 -0.175,0.136 0,0 -0.037,0.212 -0.08,0.225 C 0.333,0.182 0.215,0.001 0.214,0.001 0.213,0.002 0.031,0.047 0,0"
             style="fill:#e45e1a;fill-opacity:1;fill-rule:nonzero;stroke:none"
             id="path1096"
             inkscape:connector-curvature="0" />
        </g>
        <g
           id="g1098"
           transform="translate(313.3464,358.9844)">
          <path
             d="m 0,0 c -0.024,-0.036 0.051,-0.221 0.051,-0.221 0,0 -0.111,-0.193 -0.085,-0.238 0.021,-0.037 0.194,0.025 0.194,0.025 0,0 0.091,-0.201 0.145,-0.19 0.061,0.013 0.084,0.29 0.088,0.291 0.004,0 0.225,0.088 0.235,0.142 0.01,0.052 -0.175,0.136 -0.175,0.136 0,0 -0.037,0.212 -0.08,0.225 C 0.333,0.182 0.215,0.001 0.214,0.001 0.213,0.002 0.031,0.047 0,0 Z"
             style="fill:none;stroke:#e45e1a;stroke-width:0.15000001;stroke-linecap:butt;stroke-linejoin:miter;stroke-miterlimit:4;stroke-dasharray:none;stroke-opacity:1"
             id="path1100"
             inkscape:connector-curvature="0" />
        </g>
        <g
           id="g1102"
           transform="translate(313.3559,358.9743)">
          <path
             d="m 0,0 c -0.023,-0.035 0.05,-0.214 0.05,-0.214 0,0 -0.108,-0.188 -0.083,-0.23 0.021,-0.036 0.188,0.023 0.188,0.023 0,0 0.088,-0.194 0.14,-0.183 0.059,0.012 0.082,0.281 0.085,0.281 0.004,0 0.218,0.086 0.229,0.138 0.01,0.051 -0.17,0.132 -0.17,0.132 0,0 -0.036,0.205 -0.077,0.218 C 0.323,0.176 0.209,0.001 0.208,0.001 0.207,0.001 0.03,0.045 0,0"
             style="fill:#eedd00;fill-opacity:1;fill-rule:nonzero;stroke:none"
             id="path1104"
             inkscape:connector-curvature="0" />
        </g>
      </g>
    </g>
  </g>
</svg>
