<svg height="87.883" viewBox="0 0 648.59253 87.882912" width="648.59" xmlns="http://www.w3.org/2000/svg"><g transform="matrix(3.7795 0 0 3.7795 41.02 -457.1)"><g fill="#bdbcbc"><path d="m47.237 123.38c1.1866.23928 1.6896 1.0694 1.4845 2.2854l-.18068 1.0401c-.1758 1.1866-.85945 1.7824-2.0461 1.7531-1.3673-.0293-2.6125-.0293-4.5414-.0293-2.1096 0-2.7346.56158-3.3548 5.4009-.53716 4.0384-.50786 4.9272 1.6896 4.9272 1.9631 0 3.3548-.0293 4.6342-.0879 1.2452-.0586 1.9582.53227 2.0168 1.8117l.0586 1.0108c.06348 1.1866-.44438 1.9582-1.5724 2.1975-1.6017.35158-3.2034.50297-5.4302.50297-6.8317 0-9.2342-2.7639-8.1062-10.836 1.1573-8.2527 3.5599-10.362 10.392-10.362 2.134 0 3.5892.1172 4.9565.38578"/><path d="m56.379 125.4-2.344 16.657c-.18068 1.1866-.86434 1.7824-2.051 1.7824h-2.554c-1.3038 0-1.9582-.77644-1.7775-2.0803l2.344-16.628c.1465-1.1866.85945-1.7775 2.0461-1.7775h2.5246c1.338 0 1.9875.74226 1.8117 2.0461"/><path d="m55.102 141.76 2.2561-15.944c.20998-1.631 1.1866-2.4612 2.8225-2.4612h.77155c1.4845 0 2.4612.59087 3.1448 1.8996l3.472 6.7682c.47856.91805.86434 1.9875 1.2208 3.3841.0293.0879.0879.1465.1465.1465.0879 0 .1172-.0586.1172-.17581-.1172-1.2452-.0879-2.1975.06348-3.2962l1.006-6.944c.15138-1.1915.86434-1.7824 2.051-1.7824h2.0168c1.338 0 1.9924.74225 1.7824 2.0461l-2.2268 15.944c-.23928 1.6603-1.1866 2.4953-2.8518 2.4953h-.8c-1.5138 0-2.4612-.62506-3.1448-1.9631l-3.5355-7.0661c-.44438-.91805-.74226-2.0461-1.006-3.262 0-.0928-.06348-.12209-.12208-.12209-.0879 0-.1172.0586-.1172.15138.0293 1.2159 0 2.3733-.18068 3.6527l-1.006 6.8268c-.18068 1.1866-.86434 1.7824-2.051 1.7824h-2.047c-1.3087 0-1.9582-.77155-1.7824-2.0803"/><path d="m82.74 129.35-.1758 1.2159c-.06348.41507.1465.65435.56157.65435h4.6928c1.3038 0 1.9582.74225 1.8068 2.0461l-.05859.41995c-.1465 1.1866-.83015 1.8068-2.0461 1.8068h-5.079c-.35648 0-.59087.18068-.62017.53716l-.26858 1.841c-.12208.77156.2344 1.1573 1.0987 1.1573h5.1665c1.2745 0 1.9582.68365 1.9289 1.9582l-.0293.80086c-.0293 1.1915-.65436 1.9045-1.841 1.9924-2.4953.20509-5.4644.17579-7.9597.17579-3.5892 0-5.3423-2.344-4.8979-5.5816l1.4845-10.597c.41508-2.7639 2.3488-4.5414 5.5523-4.5414 2.7297 0 5.6695 0 8.0769.2051 1.2745.0879 1.8703.89364 1.6603 2.1682l-.1172.77155c-.20998 1.1866-.89364 1.7824-2.0803 1.7824h-5.342c-1.0108 0-1.3966.29788-1.5138 1.1866"/><path d="m90.368 141.73 2.7883-15.558c.32718-1.8996 1.4552-2.8176 3.3548-2.8176h3.682c1.9924 0 3.0911 1.0352 3.179 3.0276l.29788 7.2126c.0586.92293.0293 1.841-.0293 2.8225-.0342.1465.0293.2344.1172.2344.1172 0 .1758-.0586.2051-.2051.20998-1.0401.41996-1.8703.68365-2.7932l2.2854-7.6862c.50787-1.7824 1.6359-2.6125 3.5062-2.6125h4.0678c2.0754 0 3.1448 1.1866 2.9397 3.262l-1.56 15.39c-.15138 1.2159-.83504 1.841-2.051 1.841h-1.8996c-1.3087 0-1.9582-.74226-1.841-2.0217l1.3673-13.448c.0293-.1465-.0293-.2051-.18068-.2051h-.0293c-.1172 0-.1758.0586-.23928.14649l-3.1448 9.6786c-.56646 1.7531-1.6945 2.554-3.5013 2.554h-1.7238c-1.9875 0-3.0862-1.0401-3.179-3.0276l-.50297-9.1463c-.0293-.1465-.0879-.2051-.23928-.2051h-.0586c-.1465 0-.2051.0586-.2344.17579l-2.3781 13.746c-.1758 1.1573-.88876 1.7531-2.0754 1.7531h-1.881c-1.338 0-1.9924-.77156-1.7531-2.1096"/><path d="m129.82 142-.14649-1.9289c-.0293-.35647-.26858-.56645-.62506-.56645h-4.5121c-.35647 0-.56646.15138-.68366.47856l-.85945 2.3147c-.38578 1.0694-1.0987 1.5431-2.1975 1.5431h-2.6126c-1.4552 0-2.051-.88875-1.4845-2.2561l6.5924-15.827c.67877-1.631 1.8361-2.4026 3.6185-2.4026h3.7113c1.9289 0 3.0569.98153 3.3255 2.8811l2.1682 15.553c.1758 1.3087-.47367 2.051-1.7824 2.051h-2.5246c-1.2159 0-1.8996-.62505-1.9875-1.841m-3.2962-7.1833h2.1096c.41507 0 .59087-.20998.56157-.62506l-.293-3.7992c-.0928-.65436-.0635-1.3087-.0342-1.9289 0-.23927-.11719-.35647-.35159-.35647h-.15138c-.2051 0-.35648.1172-.38578.32717-.1172.56158-.29788 1.2159-.53227 1.8996l-1.3966 3.7992c-.18068.41507.0293.68365.47367.68365"/><path d="m141.57 120.94h-.98154c-.26369 0-.35647.0928-.35647.37113v1.8947h-1.6701v-1.8947c0-.27835-.083-.37113-.36136-.37113h-.96c-.27835 0-.37113.0928-.37113.37113v5.3765c0 .26369.0928.36136.37113.36136h.96688c.27835 0 .36136-.0977.36136-.36136v-1.9777h1.6701v1.9777c0 .26369.0928.36136.35647.36136h.98154c.26858 0 .36136-.0977.36136-.36136v-5.3765c0-.27835-.0928-.37113-.36136-.37113m3.6868.01h-2.0998c-.27345 0-.36624.0928-.36624.36136v5.3765c0 .26369.0928.36136.36624.36136h2.0998c1.6896 0 2.637-.92782 2.637-2.4074v-1.2892c0-1.4845-.94735-2.4026-2.637-2.4026m.93271 2.4319v1.2355c0 .61041-.29788.92782-.99619.92782h-.70318v-3.0911h.70318c.69831 0 .99619.31741.99619.92782"/></g><path d="m21.92 122.73s-2.3781-.12208-3.0765-.12696h-15.832c-.84969.0293-2.0754.10255-3.2083.12696-.93759.0196-1.7922.044-2.5735.13185l-.42973.0733-.2344.0196c-4.4047.72272-6.1969 3.3499-7.1491 10.138-1.1329 8.072 1.2745 10.836 8.1013 10.836 1.1671 0 2.1633.21487 3.0765.12697h15.831c.91317.0879 1.9387-.12697 3.2083-.12697 6.8268 0 9.2342-2.1096 10.392-10.362 1.128-8.0769-1.2794-10.836-8.1062-10.836" fill="#e91052"/><g fill="#f7f7f7"><path d="m2.3318 127.58v7.7204c0 3.0032-1.7189 4.7954-5.0346 4.7954-2.5246 0-4.0433-1.1329-4.7563-3.0911-.20021-.53227-.053718-.7862.47856-.98641l1.8996-.67878c.55181-.20021.80574-.10743 1.0255.43949.31253.73249.69831 1.1183 1.4259 1.1183.89852 0 1.338-.51274 1.338-1.5773v-7.74c0-.56645.18068-.76667.76667-.76667h2.1046c.57134 0 .75202.20022.75202.76667"/><path d="m9.2299 126.55c3.6038 0 5.6206 1.9582 5.6206 5.1225v3.2962c0 3.1644-2.0168 5.1225-5.6206 5.1225-3.6234 0-5.6353-1.9582-5.6353-5.1225v-3.2962c0-3.1644 2.0119-5.1225 5.6353-5.1225m0 3.2034c-1.2794 0-2.0119.60064-2.0119 1.758v3.6234c0 1.1525.73249 1.7531 2.0119 1.7531 1.2648 0 1.9973-.60063 1.9973-1.7531v-3.6234c0-1.1573-.73249-1.758-1.9973-1.758"/><path d="m25.186 127.58v7.7204c0 3.0032-1.7189 4.7954-5.0346 4.7954-2.5246 0-4.0433-1.1329-4.7563-3.0911-.20021-.53227-.05372-.7862.47856-.98641l1.8996-.67878c.55181-.20021.80574-.10743 1.0255.43949.31253.73249.69342 1.1183 1.4259 1.1183.89852 0 1.338-.51274 1.338-1.5773v-7.74c0-.56645.18068-.76667.76667-.76667h2.1047c.56646 0 .75202.20022.75202.76667"/></g></g><g fill="#e91052" transform="matrix(.6025 0 0 .6025 -94.59 -542.98)"><path d="m1129 997.1 2.3701-15.011h24.175l3.9501-24.807h15.801l-3.9502 24.807h24.649l-2.3701 15.011h-24.649l-3.9501 24.649h-15.801l3.9502-24.649z" fill="#e91052"/><path d="m1159.7 997.82-4.9501 94.452-14.947-.7834 3.9911-76.155q-4.211 2.6865-9.0223 4.5018-4.7435 1.7541-10.816 2.9864l.6685-12.757q3.801-1.0283 7.3511-2.1989 3.5501-1.1707 6.9881-2.6703 3.5025-1.4962 7.0253-3.3789 3.5872-1.8794 7.3981-4.3285z" fill="#e91052" transform="scale(1.0637 .94013)"/></g></svg>