<svg height="250.91051pt" viewBox="0 0 387.5809 250.91051" width="387.5809pt" xmlns="http://www.w3.org/2000/svg"><g fill="#a8ce4b"><g transform="matrix(.86129726 0 0 .86129726 22.990826 390.22962)"><path d="m117.48569-453.07194 35.81973 10.73993v168.11875h-35.81973z"/><path d="m62.76609-419.11219c-23.159832 0-45.659666 2.99998-67.0795077 8.51994l-22.3798353-6.71995v168.11876l35.7597373 10.73992v-39.41971c17.3398717 3.53997 35.2797387 5.45996 53.6396057 5.45996h.06c19.739847-.06 35.759727-16.07989 35.759727-35.75974v-75.11944c0-19.79985-16.01988-35.81974-35.759727-35.81974zm0 35.81974-.06 75.11944c-18.419866 0-36.419733-2.21998-53.6396057-6.35995v-62.45954c17.2798717-4.13997 35.2197397-6.29995 53.6996057-6.29995z"/><path d="m261.72462-308.17301h-53.6996v-109.13919h-35.69974v109.13919c0 19.73985 16.01989 35.75974 35.69974 35.75974h53.6996v-.06c19.73986 0 35.75974-16.01989 35.75974-35.69974v-98.39927l-35.75974-10.73992z"/><path d="m394.74365-355.57265-44.33968-14.5199v-.12c-1.79999-.53999-3.11997-2.15998-3.11997-4.19997v-8.87993c22.19983 0 44.03967 1.55999 65.51951 4.43997l10.43993-34.79975c-24.83982-3.47997-50.15964-5.45996-75.95944-5.45996-19.79986 0-35.75974 16.01989-35.75974 35.81974v8.87993c0 17.09988 10.67992 31.73977 25.73981 37.55972l47.09965 15.53989c1.79999.53999 3.17998 2.21999 3.17998 4.19997v8.93993c-22.25984 0-44.09968-1.61999-65.57952-4.43997l-10.37992 34.73975c24.77981 3.53997 50.15962 5.45996 75.95944 5.45996 19.73985 0 35.75974-16.01989 35.75974-35.75974v-8.93993c0-18.11987-11.99992-33.47975-28.55979-38.45971z"/></g><path d="m39.989049 188.74025 14.8995 4.24026v19.92h16.080001v-19.92l14.330251-.00026v57.93l-14.330251.00026v-23.84025h-16.080001v23.84025h-14.8995z"/><path d="m95.008797 192.98025 20.570083.00025c3.88651.00005 7.63264.16127 10.89992 1.59975 4.84794 2.1344 7.39497 5.4526 9.33 9.79 2.29653 5.1477 3.45444 10.88715 3.45 16.51-.006 7.05079-1.05477 14.42331-4.9 20.58-1.86231 3.28884-4.74967 5.49381-7.92932 6.81812-3.68609 1.52412-7.26177 2.47163-11.07467 2.47163h-20.346303v-57.7695m15.000003 12.97975v31.05c4.12 0 9.46731.74504 11.83029-3.33 2.93387-5.05955 2.53464-11.86661 2.07-16.8-.35075-3.72417-1.47053-8.04159-5.28-9.7-2.8025-1.22004-5.84183-1.17433-8.62029-1.22z"/></g></svg>