<svg height="88.152" viewBox="0 0 158.75 23.323611" width="600" xmlns="http://www.w3.org/2000/svg"><g transform="translate(16.729 -121.74)"><g fill="#bdbcbc"><path d="m46.005 122.58c1.2815.25842 1.8247 1.1549 1.6032 2.4681l-.19513 1.1233c-.18985 1.2815-.92817 1.9249-2.2097 1.8933-1.4766-.0316-2.8214-.0316-4.9046-.0316-2.2782 0-2.9533.60649-3.623 5.8327-.58011 4.3614-.54846 5.3212 1.8247 5.3212 2.12 0 3.623-.0316 5.0048-.0949 1.3448-.0633 2.1148.57483 2.178 1.9565l.06329 1.0916c.06856 1.2815-.47991 2.1148-1.6981 2.3732-1.7298.37969-3.4596.54318-5.8644.54318-7.3779 0-9.9726-2.9849-8.7544-11.702 1.2499-8.9126 3.8445-11.191 11.222-11.191 2.3046 0 3.8762.12657 5.3528.41662"/><path d="m55.878 124.76-2.5314 17.989c-.19513 1.2815-.93345 1.9249-2.215 1.9249h-2.759c-1.4081 0-2.1148-.83852-1.9196-2.2466l2.5314-17.957c.15821-1.2815.92817-1.9196 2.2097-1.9196h2.7265c1.445 0 2.1464.80161 1.9565 2.2097"/><path d="m54.499 142.43 2.4365-17.219c.22677-1.7614 1.2815-2.658 3.0482-2.658h.83325c1.6032 0 2.658.63811 3.3963 2.0515l3.7496 7.3094c.51682.99145.93345 2.1464 1.3184 3.6547.03164.0949.09493.15822.15821.15822.09493 0 .12657-.0633.12657-.18987-.12657-1.3448-.09493-2.3732.06856-3.5598l1.0864-7.4992c.16349-1.2868.93345-1.9249 2.215-1.9249h2.178c1.445 0 2.1517.8016 1.9249 2.2097l-2.405 17.22c-.25841 1.7931-1.2815 2.6949-3.0798 2.6949h-.86489c-1.6348 0-2.658-.67504-3.3963-2.12l-3.8182-7.6311c-.47991-.99146-.80161-2.2097-1.0864-3.5228 0-.10022-.06856-.13185-.13184-.13185-.09493 0-.12657.0633-.12657.16348.03164 1.3132 0 2.563-.19513 3.9448l-1.0864 7.3726c-.19513 1.2815-.93345 1.9249-2.215 1.9249h-2.2097c-1.4134 0-2.1148-.83324-1.9249-2.2466"/><path d="m84.347 129.03-.18985 1.3132c-.06856.44826.15821.70667.60648.70667h5.068c1.4081 0 2.1148.8016 1.9513 2.2097l-.06328.45352c-.15821 1.2815-.89653 1.9513-2.2097 1.9513h-5.4847c-.38498 0-.63812.19513-.66976.58011l-.29005 1.9882c-.13184.83326.25314 1.2499 1.1866 1.2499h5.5796c1.3764 0 2.1148.73832 2.0831 2.1148l-.03164.8649c-.03164 1.2868-.70668 2.0568-1.9882 2.1517-2.6949.22148-5.9013.18984-8.5962.18984-3.8762 0-5.7694-2.5314-5.2895-6.0278l1.6032-11.444c.44827-2.9849 2.5367-4.9046 5.9962-4.9046 2.948 0 6.1228 0 8.7227.2215 1.3764.0949 2.0198.96509 1.7931 2.3415l-.12657.83324c-.22677 1.2815-.96509 1.9249-2.2466 1.9249h-5.7694c-1.0917 0-1.5083.3217-1.6349 1.2815"/><path d="m92.585 142.4 3.0113-16.802c.35334-2.0515 1.5716-3.0429 3.623-3.0429h3.9764c2.1517 0 3.3383 1.118 3.4332 3.2697l.3217 7.7893c.0633.99673.0316 1.9882-.0316 3.0482-.0369.15821.0316.25314.12657.25314.12658 0 .18986-.0633.2215-.2215.22677-1.1233.45354-2.0198.73832-3.0166l2.4681-8.3008c.54848-1.9249 1.7667-2.8214 3.7865-2.8214h4.393c2.2413 0 3.3963 1.2815 3.1748 3.5228l-1.6665 16.612c-.16349 1.3131-.90181 1.9882-2.215 1.9882h-2.0515c-1.4134 0-2.1148-.80161-1.9882-2.1833l1.4766-14.524c.0317-.15822-.0316-.2215-.19512-.2215h-.0316c-.12657 0-.18985.0633-.25841.1582l-3.3963 10.452c-.61175 1.8933-1.83 2.7582-3.7812 2.7582h-1.8616c-2.1464 0-3.333-1.1233-3.4332-3.2697l-.54319-9.8776c-.0316-.15822-.0949-.2215-.25841-.2215h-.0633c-.15821 0-.2215.0633-.25314.18984l-2.5683 14.846c-.18986 1.2499-.95982 1.8933-2.2413 1.8933h-2.0198c-1.445 0-2.1517-.83325-1.8933-2.2782"/><path d="m135.19 142.69-.1582-2.0831c-.0316-.38497-.29006-.61174-.67504-.61174h-4.8729c-.38497 0-.61175.16348-.73832.51682l-.92817 2.4997c-.41663 1.1549-1.1866 1.6665-2.3732 1.6665h-2.8214c-1.5716 0-2.215-.95981-1.6032-2.4364l7.1195-17.092c.73305-1.7614 1.9829-2.5947 3.9078-2.5947h4.008c2.0831 0 3.3013 1.06 3.5914 3.1115l2.3415 16.797c.18986 1.4134-.51154 2.215-1.9249 2.215h-2.7265c-1.3132 0-2.0515-.67503-2.1464-1.9882m-3.5597-7.7576h2.2782c.44826 0 .63812-.22677.60647-.67504l-.31642-4.1029c-.10022-.70668-.0686-1.4134-.0369-2.0831 0-.2584-.12656-.38498-.3797-.38498h-.16348c-.2215 0-.38499.12658-.41663.35333-.12657.60649-.3217 1.3132-.57483 2.0515l-1.5083 4.103c-.19513.44825.0316.73831.51154.73831"/></g><path d="m18.663 121.87s-2.5683-.13184-3.3224-.13711h-17.098c-.91763.0316-2.2413.11074-3.4648.13711-1.0126.0212-1.9355.0475-2.7792.14239l-.46409.0792-.25314.0212c-4.7569.7805-6.6923 3.6178-7.7207 10.948-1.2235 8.7174 1.3764 11.702 8.7491 11.702 1.2604 0 2.3363.23205 3.3224.13713h17.097c.98618.0949 2.0937-.13713 3.4648-.13713 7.3727 0 9.9726-2.2782 11.222-11.191 1.2182-8.7227-1.3817-11.702-8.7544-11.702" fill="#e91052"/><g fill="#f7f7f7"><path d="m-2.4908 127.11v8.3378c0 3.2433-1.8563 5.1788-5.4372 5.1788-2.7265 0-4.3666-1.2235-5.1366-3.3383-.21622-.57483-.05801-.84906.51682-1.0653l2.0515-.73305c.59593-.21622.87016-.11602 1.1075.47463.33752.79106.75414 1.2077 1.5399 1.2077.97036 0 1.445-.55374 1.445-1.7034v-8.3588c0-.61174.19513-.82797.82797-.82797h2.273c.61702 0 .81215.21623.81215.82797"/><path d="m4.9588 126.01c3.892 0 6.07 2.1148 6.07 5.5321v3.5598c0 3.4174-2.178 5.5321-6.07 5.5321-3.9131 0-6.0859-2.1148-6.0859-5.5321v-3.5598c0-3.4174 2.1728-5.5321 6.0859-5.5321m0 3.4596c-1.3817 0-2.1728.64867-2.1728 1.8985v3.9131c0 1.2446.79106 1.8933 2.1728 1.8933 1.3659 0 2.1569-.64866 2.1569-1.8933v-3.9131c0-1.2499-.79106-1.8985-2.1569-1.8985"/><path d="m22.191 127.11v8.3378c0 3.2433-1.8563 5.1788-5.4372 5.1788-2.7265 0-4.3666-1.2235-5.1366-3.3383-.21622-.57483-.05802-.84906.51682-1.0653l2.0515-.73305c.59593-.21622.87016-.11602 1.1075.47463.33752.79106.74887 1.2077 1.5399 1.2077.97036 0 1.445-.55374 1.445-1.7034v-8.3588c0-.61174.19513-.82797.82797-.82797h2.273c.61175 0 .81215.21623.81215.82797"/></g></g></svg>