<?xml version="1.0" encoding="UTF-8" standalone="no"?>
<!-- Created with Inkscape (http://www.inkscape.org/) -->

<svg
   xmlns:dc="http://purl.org/dc/elements/1.1/"
   xmlns:cc="http://creativecommons.org/ns#"
   xmlns:rdf="http://www.w3.org/1999/02/22-rdf-syntax-ns#"
   xmlns:svg="http://www.w3.org/2000/svg"
   xmlns="http://www.w3.org/2000/svg"
   xmlns:sodipodi="http://sodipodi.sourceforge.net/DTD/sodipodi-0.dtd"
   xmlns:inkscape="http://www.inkscape.org/namespaces/inkscape"
   width="8.4003525mm"
   height="2.4240029mm"
   viewBox="0 0 8.4003524 2.4240029"
   version="1.1"
   id="svg52564"
   inkscape:version="0.92.0 r15299"
   sodipodi:docname="Joj Family.svg">
  <defs
     id="defs52558">
    <linearGradient
       x1="0"
       y1="0"
       x2="1"
       y2="0"
       gradientUnits="userSpaceOnUse"
       gradientTransform="matrix(1.2567849,0,0,-1.2567849,632.85345,713.54602)"
       spreadMethod="pad"
       id="linearGradient2324">
      <stop
         style="stop-opacity:1;stop-color:#ee252d"
         offset="0"
         id="stop2320" />
      <stop
         style="stop-opacity:1;stop-color:#ca2231"
         offset="1"
         id="stop2322" />
    </linearGradient>
    <linearGradient
       x1="0"
       y1="0"
       x2="1"
       y2="0"
       gradientUnits="userSpaceOnUse"
       gradientTransform="matrix(1.2374606,0,0,-1.2374606,631.32587,713.54602)"
       spreadMethod="pad"
       id="linearGradient2304">
      <stop
         style="stop-opacity:1;stop-color:#ee252d"
         offset="0"
         id="stop2300" />
      <stop
         style="stop-opacity:1;stop-color:#ca2231"
         offset="1"
         id="stop2302" />
    </linearGradient>
    <clipPath
       clipPathUnits="userSpaceOnUse"
       id="clipPath2282">
      <path
         d="m 610.299,707.352 h 23.811 v 6.871 h -23.811 z"
         id="path2280"
         inkscape:connector-curvature="0" />
    </clipPath>
    <clipPath
       clipPathUnits="userSpaceOnUse"
       id="clipPath2268">
      <path
         d="m 616.421,712.196 c 0,-0.461 -0.12,-0.895 -0.33,-1.273 v 0 c -0.032,-1.072 -0.8,-1.96 -1.817,-2.174 v 0 c -10e-4,-10e-4 -0.002,-10e-4 -0.004,-10e-4 v 0 c -0.007,-0.002 -0.013,-0.003 -0.02,-0.004 v 0 c -0.004,-10e-4 -0.007,-0.002 -0.011,-0.003 v 0 c -0.005,0 -0.009,-10e-4 -0.013,-0.002 v 0 c -0.006,-10e-4 -0.011,-0.002 -0.017,-0.003 v 0 c -0.003,-10e-4 -0.006,-10e-4 -0.008,-0.002 v 0 c -0.008,-0.001 -0.015,-0.002 -0.022,-0.003 v 0 c -10e-4,-10e-4 -0.002,-10e-4 -0.003,-10e-4 v 0 c -0.085,-0.014 -0.172,-0.024 -0.261,-0.028 v 0 c 0.52,0.017 1.012,0.148 1.451,0.368 v 0 c 10e-4,10e-4 0.003,10e-4 0.004,0.002 v 0 c 0.008,0.004 0.016,0.008 0.024,0.012 v 0 c 0.003,0.002 0.006,0.003 0.01,0.005 v 0 c 0.006,0.003 0.013,0.007 0.019,0.01 v 0 c 0.005,0.003 0.009,0.005 0.014,0.008 v 0 c 0.005,0.002 0.01,0.005 0.015,0.008 v 0 c 0.006,0.003 0.012,0.006 0.018,0.009 v 0 c 0.004,0.002 0.007,0.004 0.011,0.007 v 0 c 0.008,0.004 0.015,0.008 0.022,0.012 v 0 c 0.002,10e-4 0.004,0.002 0.007,0.003 v 0 c 0.008,0.005 0.017,0.01 0.026,0.015 v 0 c 0.001,0.001 0.001,0.001 0.002,0.001 v 0 c 0.855,0.492 1.482,1.334 1.686,2.33 v 0 c -0.136,0.576 -0.461,1.077 -0.907,1.436 v 0 c 0.067,-0.232 0.104,-0.477 0.104,-0.732"
         id="path2266"
         inkscape:connector-curvature="0" />
    </clipPath>
    <clipPath
       clipPathUnits="userSpaceOnUse"
       id="clipPath2254">
      <path
         d="m 614.274,708.749 c 1.017,0.214 1.785,1.102 1.817,2.174 v 0 c -0.032,-1.072 -0.8,-1.959 -1.817,-2.174 m -0.024,-0.005 c 0.007,10e-4 0.013,0.002 0.02,0.004 v 0 c -0.007,-0.002 -0.013,-0.003 -0.02,-0.004 m -0.024,-0.005 c 0.004,10e-4 0.008,0.002 0.013,0.002 v 0 c -0.005,0 -0.009,-10e-4 -0.013,-0.002 m -0.025,-0.005 c 0.002,10e-4 0.005,10e-4 0.008,0.002 v 0 c -0.003,-10e-4 -0.006,-10e-4 -0.008,-0.002 m -0.025,-0.004 c 10e-4,0 0.002,0 0.003,10e-4 v 0 c -10e-4,-10e-4 -0.002,-10e-4 -0.003,-10e-4"
         id="path2252"
         inkscape:connector-curvature="0" />
    </clipPath>
    <linearGradient
       x1="0"
       y1="0"
       x2="1"
       y2="0"
       gradientUnits="userSpaceOnUse"
       gradientTransform="matrix(6.0593047,-3.4983416,-3.4983416,-6.0593047,610.65802,712.44489)"
       spreadMethod="pad"
       id="linearGradient2244">
      <stop
         style="stop-opacity:1;stop-color:#ee232e"
         offset="0"
         id="stop2240" />
      <stop
         style="stop-opacity:1;stop-color:#ca2230"
         offset="1"
         id="stop2242" />
    </linearGradient>
    <clipPath
       clipPathUnits="userSpaceOnUse"
       id="clipPath19482">
      <path
         d="m 92.62,481.622 c 0,-0.555 -0.144,-1.076 -0.396,-1.529 v 0 c -0.044,-1.46 -1.223,-2.635 -2.685,-2.672 v 0 c 1.999,0.033 3.659,1.463 4.046,3.355 v 0 c -0.164,0.691 -0.555,1.294 -1.09,1.725 v 0 c 0.081,-0.279 0.125,-0.574 0.125,-0.879"
         id="path19480"
         inkscape:connector-curvature="0" />
    </clipPath>
    <mask
       maskUnits="userSpaceOnUse"
       x="0"
       y="0"
       width="1"
       height="1"
       id="mask19512">
      <g
         id="g19538">
        <g
           clip-path="url(#clipPath19490)"
           id="g19536">
          <path
             d="m 89.539,482.501 h 4.046 v -5.08 h -4.046 z"
             style="fill:#000000;fill-opacity:1;fill-rule:nonzero;stroke:none"
             id="path19514"
             inkscape:connector-curvature="0" />
          <g
             id="g19534">
            <g
               id="g19516" />
            <g
               id="g19532">
              <g
                 clip-path="url(#clipPath19494)"
                 id="g19530">
                <g
                   id="g19528">
                  <g
                     id="g19526">
                    <g
                       id="g19524">
                      <g
                         id="g19522">
                        <g
                           clip-path="url(#clipPath19502)"
                           id="g19520">
                          <path
                             d="m 89.539,477.421 h 4.046 v 5.08 h -4.046 z"
                             style="fill:url(#radialGradient19510);stroke:none"
                             id="path19518"
                             inkscape:connector-curvature="0" />
                        </g>
                      </g>
                    </g>
                  </g>
                </g>
              </g>
            </g>
          </g>
        </g>
      </g>
    </mask>
    <clipPath
       clipPathUnits="userSpaceOnUse"
       id="clipPath19490">
      <path
         d="m 89.5392,482.501 h 4.0456 v -5.08 h -4.0456 z"
         id="path19488"
         inkscape:connector-curvature="0" />
    </clipPath>
    <clipPath
       clipPathUnits="userSpaceOnUse"
       id="clipPath19494">
      <path
         d="m 89.5392,482.501 h 4.0457 v -5.08 h -4.0457 z"
         id="path19492"
         inkscape:connector-curvature="0" />
    </clipPath>
    <clipPath
       clipPathUnits="userSpaceOnUse"
       id="clipPath19502">
      <path
         d="m 89.539231,477.4211 h 4.045615 v 5.07961 h -4.045615 z"
         id="path19500"
         inkscape:connector-curvature="0" />
    </clipPath>
    <radialGradient
       fx="0"
       fy="0"
       cx="0"
       cy="0"
       r="1"
       gradientUnits="userSpaceOnUse"
       gradientTransform="matrix(4.2123418,0,0,4.2123418,89.48906,481.62742)"
       spreadMethod="pad"
       id="radialGradient19510">
      <stop
         style="stop-opacity:1;stop-color:#000000"
         offset="0"
         id="stop19504" />
      <stop
         style="stop-opacity:1;stop-color:#000000"
         offset="0.8"
         id="stop19506" />
      <stop
         style="stop-opacity:1;stop-color:#b1b3b4"
         offset="1"
         id="stop19508" />
    </radialGradient>
    <clipPath
       clipPathUnits="userSpaceOnUse"
       id="clipPath19546">
      <path
         d="m 89.5392,482.501 h 4.0456 v -5.08 h -4.0456 z"
         id="path19544"
         inkscape:connector-curvature="0" />
    </clipPath>
    <clipPath
       clipPathUnits="userSpaceOnUse"
       id="clipPath19554">
      <path
         d="m 89.539231,477.4211 h 4.045615 v 5.07961 h -4.045615 z"
         id="path19552"
         inkscape:connector-curvature="0" />
    </clipPath>
    <radialGradient
       fx="0"
       fy="0"
       cx="0"
       cy="0"
       r="1"
       gradientUnits="userSpaceOnUse"
       gradientTransform="matrix(4.2123418,0,0,4.2123418,89.48906,481.62742)"
       spreadMethod="pad"
       id="radialGradient19562">
      <stop
         style="stop-opacity:1;stop-color:#e42224"
         offset="0"
         id="stop19556" />
      <stop
         style="stop-opacity:1;stop-color:#e42224"
         offset="0.8"
         id="stop19558" />
      <stop
         style="stop-opacity:1;stop-color:#571117"
         offset="1"
         id="stop19560" />
    </radialGradient>
    <clipPath
       clipPathUnits="userSpaceOnUse"
       id="clipPath19466">
      <path
         d="m 81.710433,477.89738 9.858549,-5.69183 5.656651,9.7976 -9.858549,5.69184 z"
         id="path19464"
         inkscape:connector-curvature="0" />
    </clipPath>
    <linearGradient
       x1="0"
       y1="0"
       x2="1"
       y2="0"
       gradientUnits="userSpaceOnUse"
       gradientTransform="matrix(7.2791468,-4.2026173,4.2026173,7.2791468,85.780859,482.066)"
       spreadMethod="pad"
       id="linearGradient19472">
      <stop
         style="stop-opacity:1;stop-color:#e42224"
         offset="0"
         id="stop19468" />
      <stop
         style="stop-opacity:1;stop-color:#c8081d"
         offset="1"
         id="stop19470" />
    </linearGradient>
  </defs>
  <sodipodi:namedview
     id="base"
     pagecolor="#ffffff"
     bordercolor="#666666"
     borderopacity="1.0"
     inkscape:pageopacity="0.0"
     inkscape:pageshadow="2"
     inkscape:zoom="22.4"
     inkscape:cx="16.324531"
     inkscape:cy="9.9579476"
     inkscape:document-units="mm"
     inkscape:current-layer="layer1"
     showgrid="false"
     fit-margin-top="0"
     fit-margin-left="0"
     fit-margin-right="0"
     fit-margin-bottom="0"
     inkscape:window-width="1920"
     inkscape:window-height="1017"
     inkscape:window-x="-8"
     inkscape:window-y="-8"
     inkscape:window-maximized="1" />
  <metadata
     id="metadata52561">
    <rdf:RDF>
      <cc:Work
         rdf:about="">
        <dc:format>image/svg+xml</dc:format>
        <dc:type
           rdf:resource="http://purl.org/dc/dcmitype/StillImage" />
        <dc:title></dc:title>
      </cc:Work>
    </rdf:RDF>
  </metadata>
  <g
     inkscape:label="Layer 1"
     inkscape:groupmode="layer"
     id="layer1"
     transform="translate(-66.10322,-121.91892)">
    <g
       transform="matrix(0.35277777,0,0,-0.35277777,-149.19634,373.88098)"
       id="g2276"
       style="fill:#ffffff;fill-opacity:1">
      <g
         id="g2278"
         clip-path="url(#clipPath2282)"
         style="fill:#ffffff;fill-opacity:1">
        <g
           id="g2284"
           transform="translate(633.2404,711.6719)"
           style="fill:#ffffff;fill-opacity:1">
          <path
             d="m 0,0 v -1.505 c 0,-0.412 -0.22,-0.598 -0.539,-0.598 -0.279,0 -0.505,0.168 -0.505,0.528 V 0 h -0.87 v -1.703 c 0,-0.783 0.499,-1.2 1.085,-1.2 0.382,0 0.672,0.139 0.829,0.354 v -0.424 c 0,-0.326 -0.266,-0.477 -0.592,-0.477 -0.24,0 -0.447,0.082 -0.54,0.255 l -0.782,-0.381 c 0.234,-0.462 0.738,-0.744 1.322,-0.744 0.807,0 1.462,0.54 1.462,1.347 L 0.87,0 Z m -4.767,0 h 0.87 v -2.973 h -0.87 z m 1.441,1.137 h 0.87 v -4.11 h -0.87 z m -1.986,-2.269 v -1.841 h -0.87 v 1.766 c 0,0.29 -0.139,0.475 -0.417,0.475 -0.29,0 -0.453,-0.202 -0.453,-0.545 v -1.696 h -0.87 v 1.766 c 0,0.29 -0.139,0.475 -0.417,0.475 -0.29,0 -0.453,-0.202 -0.453,-0.545 V -2.973 H -9.661 V 0 h 0.869 v -0.279 c 0.134,0.197 0.389,0.348 0.778,0.348 0.342,0 0.597,-0.139 0.759,-0.383 0.163,0.232 0.429,0.383 0.841,0.383 0.667,0 1.102,-0.476 1.102,-1.201 m -5.795,-0.355 c 0,0.435 -0.29,0.732 -0.69,0.732 -0.4,0 -0.69,-0.297 -0.69,-0.732 0,-0.435 0.29,-0.733 0.69,-0.733 0.4,0 0.69,0.298 0.69,0.733 M -10.237,0 v -2.973 h -0.87 v 0.284 c -0.191,-0.221 -0.475,-0.354 -0.864,-0.354 -0.76,0 -1.386,0.692 -1.386,1.556 0,0.864 0.626,1.556 1.386,1.556 0.389,0 0.673,-0.134 0.864,-0.354 V 0 Z m -3.794,0 h 0.539 v -0.835 h -0.539 v -2.138 h -0.87 v 2.138 H -15.29 V 0 h 0.389 c 0,0.812 0.446,1.405 1.409,1.347 V 0.512 C -13.817,0.541 -14.031,0.336 -14.031,0"
             style="fill:#ffffff;fill-opacity:1;fill-rule:nonzero;stroke:none"
             id="path2286"
             inkscape:connector-curvature="0" />
        </g>
      </g>
    </g>
    <g
       id="g53362"
       transform="matrix(0.83258226,0,0,0.83258226,11.466284,23.041377)">
      <g
         id="g19450"
         transform="matrix(0.35277777,0,0,-0.35277777,35.543519,289.52428)">
        <g
           id="g19452">
          <g
             id="g19458">
            <g
               id="g19460">
              <g
                 clip-path="url(#clipPath19466)"
                 id="g19462">
                <path
                   inkscape:connector-curvature="0"
                   id="path19474"
                   style="fill:url(#linearGradient19472);stroke:none"
                   d="m 88.201,484.054 c -1.701,-0.537 -2.935,-2.128 -2.935,-4.007 v 0 c 0,-2.322 1.881,-4.203 4.202,-4.203 v 0 c 2.32,0 4.202,1.881 4.202,4.203 v 0 c 0,1.74 -1.411,3.151 -3.152,3.151 v 0 c -1.508,0 -2.731,-1.223 -2.731,-2.731 v 0 c 0,-0.987 0.8,-1.786 1.786,-1.786 v 0 c 0.159,0 0.314,0.021 0.46,0.06 v 0 c 0.023,0.006 0.039,0.026 0.039,0.051 v 0 c 0,0.027 -0.02,0.049 -0.047,0.052 v 0 c -0.724,0.063 -1.292,0.672 -1.292,1.412 v 0 c 0,0.943 0.764,1.708 1.707,1.708 v 0 c 0.986,0 1.786,-0.8 1.786,-1.786 v 0 c 0,-1.523 -1.235,-2.758 -2.758,-2.758 v 0 c -1.74,0 -3.152,1.411 -3.152,3.151 v 0 c 0,1.441 0.774,2.701 1.928,3.388 v 0 c 0.014,0.01 0.024,0.026 0.024,0.045 v 0 c 0,0.029 -0.023,0.052 -0.052,0.052 v 0 c -0.005,0 -0.011,-10e-4 -0.015,-0.002" />
              </g>
            </g>
          </g>
        </g>
      </g>
      <g
         id="g19476"
         transform="matrix(0.35277777,0,0,-0.35277777,35.543519,289.52428)">
        <g
           clip-path="url(#clipPath19482)"
           id="g19478">
          <g
             id="g19484">
            <g
               id="g19486" />
            <g
               mask="url(#mask19512)"
               id="g19540">
              <g
                 id="g19542" />
              <g
                 id="g19578">
                <g
                   id="g19576"
                   clip-path="url(#clipPath19546)">
                  <g
                     id="g19574">
                    <g
                       id="g19572">
                      <g
                         id="g19570">
                        <g
                           id="g19568">
                          <g
                             id="g19566"
                             clip-path="url(#clipPath19554)">
                            <path
                               inkscape:connector-curvature="0"
                               id="path19564"
                               style="fill:url(#radialGradient19562);stroke:none"
                               d="m 89.539,477.421 h 4.046 v 5.08 h -4.046 z" />
                          </g>
                        </g>
                      </g>
                    </g>
                  </g>
                </g>
              </g>
            </g>
          </g>
        </g>
      </g>
    </g>
  </g>
</svg>
