<?xml version="1.0" encoding="UTF-8" standalone="no"?>
<svg
   xmlns:dc="http://purl.org/dc/elements/1.1/"
   xmlns:cc="http://creativecommons.org/ns#"
   xmlns:rdf="http://www.w3.org/1999/02/22-rdf-syntax-ns#"
   xmlns:svg="http://www.w3.org/2000/svg"
   xmlns="http://www.w3.org/2000/svg"
   xmlns:sodipodi="http://sodipodi.sourceforge.net/DTD/sodipodi-0.dtd"
   xmlns:inkscape="http://www.inkscape.org/namespaces/inkscape"
   width="387.5809pt"
   height="250.91051pt"
   viewBox="0 0 387.5809 250.91051"
   version="1.1"
   id="svg15"
   sodipodi:docname="Joj Plus HD.svg"
   inkscape:version="0.92.0 r15299">
  <metadata
     id="metadata21">
    <rdf:RDF>
      <cc:Work
         rdf:about="">
        <dc:format>image/svg+xml</dc:format>
        <dc:type
           rdf:resource="http://purl.org/dc/dcmitype/StillImage" />
        <dc:title></dc:title>
      </cc:Work>
    </rdf:RDF>
  </metadata>
  <defs
     id="defs19">
    <pattern
       y="0"
       x="0"
       height="6"
       width="6"
       patternUnits="userSpaceOnUse"
       id="EMFhbasepattern" />
    <linearGradient
       id="a"
       gradientUnits="userSpaceOnUse"
       gradientTransform="matrix(44.31345,0,0,53.727568,200.00592,244.12864)"
       x1="0"
       x2="1"
       y1="0"
       y2="0">
      <stop
         stop-color="#ee252e"
         offset="0"
         id="stop14" />
      <stop
         stop-color="#ca1f2f"
         offset=".84189"
         id="stop16" />
      <stop
         stop-color="#ca1f2f"
         offset="1"
         id="stop18" />
    </linearGradient>
  </defs>
  <sodipodi:namedview
     pagecolor="#ffffff"
     bordercolor="#666666"
     borderopacity="1"
     objecttolerance="10"
     gridtolerance="10"
     guidetolerance="10"
     inkscape:pageopacity="0"
     inkscape:pageshadow="2"
     inkscape:window-width="1920"
     inkscape:window-height="1017"
     id="namedview17"
     showgrid="false"
     fit-margin-top="0"
     fit-margin-left="0"
     fit-margin-right="0"
     fit-margin-bottom="0"
     inkscape:zoom="1.77"
     inkscape:cx="177.69999"
     inkscape:cy="219.4303"
     inkscape:window-x="-8"
     inkscape:window-y="-8"
     inkscape:window-maximized="1"
     inkscape:current-layer="svg15" />
  <g
     id="g4542"
     transform="matrix(0.86129726,0,0,0.86129726,22.990826,390.22962)">
    <path
       inkscape:connector-curvature="0"
       style="fill:#a8ce4b;fill-opacity:1;fill-rule:nonzero;stroke:none;stroke-width:0.75"
       d="m 117.48569,-453.07194 35.81973,10.73993 v 168.11875 h -35.81973 z"
       id="path4503" />
    <path
       inkscape:connector-curvature="0"
       style="fill:#a8ce4b;fill-opacity:1;fill-rule:nonzero;stroke:none;stroke-width:0.75"
       d="m 62.76609,-419.11219 c -23.159832,0 -45.659666,2.99998 -67.0795077,8.51994 l -22.3798353,-6.71995 v 168.11876 l 35.7597373,10.73992 v -39.41971 c 17.3398717,3.53997 35.2797387,5.45996 53.6396057,5.45996 h 0.06 c 19.739847,-0.06 35.759727,-16.07989 35.759727,-35.75974 v -75.11944 c 0,-19.79985 -16.01988,-35.81974 -35.759727,-35.81974 z m 0,35.81974 -0.06,75.11944 c -18.419866,0 -36.419733,-2.21998 -53.6396057,-6.35995 v -62.45954 c 17.2798717,-4.13997 35.2197397,-6.29995 53.6996057,-6.29995 z"
       id="path4505" />
    <path
       inkscape:connector-curvature="0"
       style="fill:#a8ce4b;fill-opacity:1;fill-rule:nonzero;stroke:none;stroke-width:0.75"
       d="m 261.72462,-308.17301 h -53.6996 V -417.3122 h -35.69974 v 109.13919 c 0,19.73985 16.01989,35.75974 35.69974,35.75974 h 53.6996 v -0.06 c 19.73986,0 35.75974,-16.01989 35.75974,-35.69974 v -98.39927 l -35.75974,-10.73992 z"
       id="path4507" />
    <path
       inkscape:connector-curvature="0"
       style="fill:#a8ce4b;fill-opacity:1;fill-rule:nonzero;stroke:none;stroke-width:0.75"
       d="m 394.74365,-355.57265 -44.33968,-14.5199 v -0.12 c -1.79999,-0.53999 -3.11997,-2.15998 -3.11997,-4.19997 v -8.87993 c 22.19983,0 44.03967,1.55999 65.51951,4.43997 l 10.43993,-34.79975 c -24.83982,-3.47997 -50.15964,-5.45996 -75.95944,-5.45996 -19.79986,0 -35.75974,16.01989 -35.75974,35.81974 v 8.87993 c 0,17.09988 10.67992,31.73977 25.73981,37.55972 l 47.09965,15.53989 c 1.79999,0.53999 3.17998,2.21999 3.17998,4.19997 v 8.93993 c -22.25984,0 -44.09968,-1.61999 -65.57952,-4.43997 l -10.37992,34.73975 c 24.77981,3.53997 50.15962,5.45996 75.95944,5.45996 19.73985,0 35.75974,-16.01989 35.75974,-35.75974 v -8.93993 c 0,-18.11987 -11.99992,-33.47975 -28.55979,-38.45971 z"
       id="path4509" />
  </g>
  <path
     sodipodi:nodetypes="ccccccccccccc"
     inkscape:connector-curvature="0"
     style="opacity:1;fill:#a8ce4b;fill-opacity:1"
     id="path10"
     d="m 39.989049,188.74025 14.8995,4.24026 v 19.92 H 70.96855 v -19.92 l 14.330251,-2.6e-4 v 57.93 l -14.330251,2.6e-4 V 227.07026 H 54.888549 v 23.84025 h -14.8995 z" />
  <path
     sodipodi:nodetypes="cssssccsccccsssc"
     inkscape:connector-curvature="0"
     style="opacity:1;fill:#a8ce4b;fill-opacity:1"
     id="path12"
     d="m 95.008797,192.98025 20.570083,2.5e-4 c 3.88651,5e-5 7.63264,0.16127 10.89992,1.59975 4.84794,2.1344 7.39497,5.4526 9.33,9.79 2.29653,5.1477 3.45444,10.88715 3.45,16.51 -0.006,7.05079 -1.05477,14.42331 -4.9,20.58 -1.86231,3.28884 -4.74967,5.49381 -7.92932,6.81812 -3.68609,1.52412 -7.26177,2.47163 -11.07467,2.47163 H 95.008507 v -57.7695 m 15.000003,12.97975 v 31.05 c 4.12,0 9.46731,0.74504 11.83029,-3.33 2.93387,-5.05955 2.53464,-11.86661 2.07,-16.8 -0.35075,-3.72417 -1.47053,-8.04159 -5.28,-9.7 -2.8025,-1.22004 -5.84183,-1.17433 -8.62029,-1.22 z" />
</svg>
