<?xml version="1.0" encoding="UTF-8" standalone="no"?>
<svg
   xmlns:dc="http://purl.org/dc/elements/1.1/"
   xmlns:cc="http://creativecommons.org/ns#"
   xmlns:rdf="http://www.w3.org/1999/02/22-rdf-syntax-ns#"
   xmlns:svg="http://www.w3.org/2000/svg"
   xmlns="http://www.w3.org/2000/svg"
   xmlns:sodipodi="http://sodipodi.sourceforge.net/DTD/sodipodi-0.dtd"
   xmlns:inkscape="http://www.inkscape.org/namespaces/inkscape"
   height="286.17"
   width="600"
   version="1.1"
   viewBox="0 0 158.75 75.714672"
   id="svg12"
   sodipodi:docname="Joj Plus.svg"
   inkscape:version="0.92.0 r15299">
  <metadata
     id="metadata18">
    <rdf:RDF>
      <cc:Work
         rdf:about="">
        <dc:format>image/svg+xml</dc:format>
        <dc:type
           rdf:resource="http://purl.org/dc/dcmitype/StillImage" />
      </cc:Work>
    </rdf:RDF>
  </metadata>
  <defs
     id="defs16" />
  <sodipodi:namedview
     pagecolor="#ffffff"
     bordercolor="#666666"
     borderopacity="1"
     objecttolerance="10"
     gridtolerance="10"
     guidetolerance="10"
     inkscape:pageopacity="0"
     inkscape:pageshadow="2"
     inkscape:window-width="1920"
     inkscape:window-height="1017"
     id="namedview14"
     showgrid="false"
     inkscape:zoom="0.47333333"
     inkscape:cx="300"
     inkscape:cy="143.08501"
     inkscape:window-x="-8"
     inkscape:window-y="-8"
     inkscape:window-maximized="1"
     inkscape:current-layer="svg12" />
  <g
     transform="translate(58.117 -235.11)"
     fill="#80cc28"
     id="g10"
     style="fill:#a8ce4b;fill-opacity:1">
    <path
       d="m-7.2447 235.11 12.625 3.79v59.3h-12.625z"
       id="path2"
       style="fill:#a8ce4b;fill-opacity:1" />
    <path
       d="m-26.56 247.09c-8.174 0-16.1 1.05-23.655 3.01l-7.902-2.37v59.31l12.625 3.78v-13.91c6.109 1.25 12.441 1.93 18.92 1.93h0.012c6.962-0.01 12.613-5.66 12.613-12.62v-26.5c0-6.97-5.651-12.62-12.613-12.62zm0 12.63-0.012 26.5c-6.504 0-12.848-0.78-18.92-2.24v-22.04c6.084-1.45 12.415-2.22 18.932-2.22z"
       id="path4"
       style="fill:#a8ce4b;fill-opacity:1" />
    <path
       d="m43.627 286.22h-18.931v-38.49h-12.613v38.49c0 6.97 5.651 12.62 12.613 12.62h18.931v-0.01c6.962 0 12.613-5.65 12.613-12.61v-34.7l-12.613-3.79z"
       id="path6"
       style="fill:#a8ce4b;fill-opacity:1" />
    <path
       d="m90.567 269.5-15.642-5.12v-0.03c-0.643-0.19-1.113-0.78-1.113-1.48v-3.15c7.84 0 15.543 0.56 23.124 1.57l3.684-12.27c-8.767-1.24-17.707-1.92-26.808-1.92-6.974 0-12.613 5.65-12.613 12.62v3.15c0 6.03 3.771 11.18 9.076 13.23l16.62 5.49c0.643 0.2 1.113 0.78 1.113 1.48v3.16c-7.84 0-15.544-0.57-23.124-1.56l-3.673 12.25c8.755 1.24 17.696 1.92 26.797 1.92 6.974 0 12.622-5.64 12.622-12.61v-3.16c0-6.39-4.238-11.8-10.063-13.57"
       id="path8"
       style="fill:#a8ce4b;fill-opacity:1" />
  </g>
</svg>
