<svg width="600pt" height="190.97pt" version="1.1" viewBox="0 0 600 190.97" xmlns="http://www.w3.org/2000/svg">
 <g transform="matrix(1.4805 0 0 1.4805 505.19 -265.53)" fill="#fff" aria-label="kežmarská televízia">
  <path d="m-338.32 281.43v15.28h1.72l11.2-7.12h4.64l-12.92 8.44 14.8 10.08h-4.88l-13.04-8.8h-1.52v8.8h-2.92v-26.68z"/>
  <path d="m-297.37 296.99q0-1.52-0.4-2.48-0.4-1-1.44-1.56-1-0.6-2.76-0.8-1.76-0.24-4.44-0.24-2.4 0-3.96 0.24-1.52 0.2-2.48 0.76-0.92 0.56-1.32 1.56-0.4 0.96-0.52 2.52zm3.2 5.4q-0.04 1.68-0.6 2.84-0.56 1.12-1.76 1.84-1.2 0.68-3.16 1-1.92 0.28-4.72 0.28-2.4 0-4.16-0.08t-3.08-0.28q-1.28-0.24-2.16-0.56t-1.48-0.8q-2.64-2.04-2.64-7.72 0-3.4 0.84-5.4 0.84-2.04 2.64-3.04 0.56-0.32 1.28-0.52 0.72-0.24 1.68-0.36t2.2-0.16q1.28-0.08 2.96-0.08 2.4 0 4.08 0.12t2.84 0.4q1.16 0.24 1.96 0.72t1.44 1.2q0.52 0.6 0.88 1.28t0.56 1.56 0.28 2.08q0.12 1.16 0.16 2.8h-20.64q0.08 1.8 0.36 2.96 0.32 1.12 1 1.8 0.4 0.44 1.04 0.72t1.64 0.48q1 0.16 2.44 0.24 1.48 0.08 3.56 0.08 1.56 0 2.68-0.04 1.16-0.08 1.92-0.24 0.8-0.16 1.32-0.44t0.88-0.68q0.36-0.36 0.48-0.72t0.2-1.28z"/>
  <path d="m-274.4 282.39-7.88 4.72-7.88-4.72 1.12-2.08 6.76 3.32 6.76-3.32zm2.48 7.2v2.64l-16.48 13.36h16.6v2.52h-20.8v-2.88l16.32-13.12h-15.64v-2.52z"/>
  <path d="m-266.84 289.59v2.44q0.68-0.84 1.32-1.36t1.48-0.8q0.84-0.32 1.96-0.4 1.16-0.12 2.84-0.12 2.28 0 3.84 0.16t2.64 0.52q1.12 0.36 1.84 1 0.72 0.6 1.28 1.56 0.44-0.92 1.08-1.52 0.68-0.64 1.68-1 1.04-0.4 2.44-0.56 1.44-0.16 3.44-0.16 1.88 0 3.24 0.12 1.4 0.12 2.4 0.4 1.04 0.24 1.76 0.68 0.72 0.4 1.32 1.04 0.44 0.52 0.72 1.04 0.28 0.48 0.44 1.24 0.16 0.72 0.2 1.8 0.08 1.08 0.08 2.68v9.76h-2.92v-10.4q0-1.84-0.28-2.96t-1.08-1.76q-0.76-0.64-2.2-0.84-1.44-0.24-3.72-0.24-2.8 0-4.28 0.36-1.44 0.36-2.2 1.28-0.4 0.44-0.68 1-0.24 0.56-0.4 1.4-0.12 0.84-0.2 2.04-0.04 1.16-0.04 2.84v7.28h-2.92v-10.4q0-2-0.24-2.92-0.2-0.96-0.76-1.52-0.8-0.72-2.24-1.04t-4.08-0.32q-2.8 0-4.32 0.4-1.52 0.36-2.32 1.28-0.36 0.4-0.6 0.92-0.2 0.52-0.32 1.36t-0.2 2.04q-0.04 1.2-0.04 2.92v7.28h-2.92v-18.52z"/>
  <path d="m-217.05 299.67q-1.84 0-3.08 0.04-1.24 0-2.04 0.08t-1.28 0.2q-0.44 0.12-0.76 0.32-1.08 0.72-1.08 2.48 0 1.04 0.32 1.64 0.32 0.56 1.12 0.88 0.64 0.28 2.28 0.4 1.68 0.08 5.12 0.08 2.32 0 3.8-0.12 1.52-0.16 2.36-0.48 0.88-0.36 1.2-0.96t0.32-1.52q0-0.88-0.4-1.48-0.36-0.6-1.32-0.92-0.92-0.36-2.52-0.48-1.6-0.16-4.04-0.16zm-10.56-4.52v-0.8q0-1.44 0.48-2.4 0.52-1 1.72-1.56t3.2-0.8 5-0.24q2.36 0 4 0.12 1.64 0.08 2.76 0.32 1.16 0.24 1.88 0.64 0.76 0.4 1.36 1 0.48 0.48 0.76 1 0.32 0.52 0.48 1.28 0.2 0.76 0.24 1.88 0.08 1.12 0.08 2.76v9.76h-2.92l0.04-2.16h-0.12q-0.52 0.76-1.12 1.24-0.56 0.44-1.48 0.72-0.92 0.24-2.32 0.32-1.36 0.12-3.48 0.12-2.48 0-4.16-0.08-1.64-0.04-2.72-0.16-1.08-0.16-1.72-0.4t-1.16-0.64q-0.92-0.72-1.28-1.68-0.32-0.96-0.32-2.64 0-2.2 0.6-3.36t2.04-1.72q0.4-0.16 0.96-0.28 0.6-0.12 1.4-0.16 0.8-0.08 1.88-0.12t2.56-0.04q2.84 0 4.6 0.08 1.76 0.04 2.84 0.28 1.08 0.2 1.64 0.6 0.6 0.4 1.08 1.04h0.24v-2q0-1.44-0.2-2.16-0.16-0.76-0.68-1.36-0.4-0.48-0.96-0.8-0.52-0.32-1.4-0.48-0.88-0.2-2.16-0.28-1.24-0.08-3.04-0.08-2.4 0-3.88 0.12-1.44 0.08-2.28 0.44-0.8 0.32-1.08 0.92-0.28 0.56-0.28 1.52v0.24z"/>
  <path d="m-199.61 289.59v2.48h0.2q0.68-1.28 2.2-2 0.84-0.44 2.2-0.56 1.36-0.16 4-0.16 1.36 0 2.36 0.08 1 0.04 1.72 0.2t1.24 0.44q0.56 0.28 1.04 0.68 1.88 1.64 1.88 5.24v1.92h-3v-1.32q0-1.44-0.24-2.36-0.2-0.92-0.84-1.4-0.6-0.52-1.68-0.72t-2.8-0.2q-2.64 0-4.28 0.28-1.6 0.28-2.52 1.12-0.88 0.8-1.2 2.32-0.28 1.48-0.28 3.92v8.56h-2.92v-18.52z"/>
  <path d="m-178.45 301.67 0.04 0.52q0 1.28 0.2 2 0.24 0.72 1.12 1.08 0.92 0.36 2.68 0.44 1.8 0.08 4.92 0.08 1.92 0 3.2-0.04t2.12-0.12q0.84-0.12 1.32-0.28t0.8-0.44q0.8-0.64 0.8-2 0-1.64-1.08-2.28-1.04-0.64-3.84-0.6-0.32 0-0.68 0t-1.2 0-2.4 0q-1.56-0.04-4.2-0.08-1.84-0.04-3.12-0.32-1.24-0.28-2.04-0.88-0.76-0.6-1.12-1.56-0.32-0.96-0.32-2.36 0-2.96 1.96-4.28 1-0.64 3.2-0.92 2.24-0.28 6.32-0.28 2.32 0 4 0.12 1.72 0.12 2.88 0.4 1.2 0.24 1.96 0.72 0.76 0.44 1.28 1.08 0.24 0.32 0.4 0.64 0.2 0.28 0.28 0.68t0.12 0.96q0.04 0.52 0.04 1.36h-3.12q0-1.04-0.12-1.48t-0.44-0.76q-0.6-0.64-2.36-0.88-1.72-0.28-5.04-0.28-6.2 0-7.4 0.92-0.84 0.6-0.84 2.04 0 0.76 0.24 1.28 0.24 0.48 0.84 0.76 0.64 0.24 1.68 0.36 1.08 0.08 2.76 0.04 0.48 0 1.6 0t2.4 0.04q1.32 0.04 2.56 0.08 1.24 0 1.96 0.04 3.2 0.12 4.56 1.4 1.4 1.24 1.4 4 0 1.72-0.52 2.8-0.52 1.04-1.68 1.68-1 0.56-3.16 0.76-2.16 0.24-6.12 0.24-2.36 0-4.08-0.08-1.68-0.04-2.88-0.2t-2-0.4q-0.76-0.28-1.28-0.68-0.96-0.68-1.36-1.64-0.36-1-0.36-2.72v-0.96z"/>
  <path d="m-152.46 281.43v15.28h1.72l11.2-7.12h4.64l-12.92 8.44 14.8 10.08h-4.88l-13.04-8.8h-1.52v8.8h-2.92v-26.68z"/>
  <path d="m-116.23 282.31-5.04 5.28-2-1.68 4.16-6.08zm-4.72 17.36q-1.84 0-3.08 0.04-1.24 0-2.04 0.08t-1.28 0.2q-0.44 0.12-0.76 0.32-1.08 0.72-1.08 2.48 0 1.04 0.32 1.64 0.32 0.56 1.12 0.88 0.64 0.28 2.28 0.4 1.68 0.08 5.12 0.08 2.32 0 3.8-0.12 1.52-0.16 2.36-0.48 0.88-0.36 1.2-0.96t0.32-1.52q0-0.88-0.4-1.48-0.36-0.6-1.32-0.92-0.92-0.36-2.52-0.48-1.6-0.16-4.04-0.16zm-10.56-4.52v-0.8q0-1.44 0.48-2.4 0.52-1 1.72-1.56t3.2-0.8 5-0.24q2.36 0 4 0.12 1.64 0.08 2.76 0.32 1.16 0.24 1.88 0.64 0.76 0.4 1.36 1 0.48 0.48 0.76 1 0.32 0.52 0.48 1.28 0.2 0.76 0.24 1.88 0.08 1.12 0.08 2.76v9.76h-2.92l0.04-2.16h-0.12q-0.52 0.76-1.12 1.24-0.56 0.44-1.48 0.72-0.92 0.24-2.32 0.32-1.36 0.12-3.48 0.12-2.48 0-4.16-0.08-1.64-0.04-2.72-0.16-1.08-0.16-1.72-0.4t-1.16-0.64q-0.92-0.72-1.28-1.68-0.32-0.96-0.32-2.64 0-2.2 0.6-3.36t2.04-1.72q0.4-0.16 0.96-0.28 0.6-0.12 1.4-0.16 0.8-0.08 1.88-0.12t2.56-0.04q2.84 0 4.6 0.08 1.76 0.04 2.84 0.28 1.08 0.2 1.64 0.6 0.6 0.4 1.08 1.04h0.24v-2q0-1.44-0.2-2.16-0.16-0.76-0.68-1.36-0.4-0.48-0.96-0.8-0.52-0.32-1.4-0.48-0.88-0.2-2.16-0.28-1.24-0.08-3.04-0.08-2.4 0-3.88 0.12-1.44 0.08-2.28 0.44-0.8 0.32-1.08 0.92-0.28 0.56-0.28 1.52v0.24z"/>
  <path d="m-90.677 284.99v4.6h12.96v2.52h-12.96v8q0.04 1.32 0.04 2.08 0.04 0.72 0.08 1.16 0.08 0.4 0.2 0.64t0.36 0.52q0.56 0.68 1.64 1 1.12 0.28 3.24 0.28 1.96 0 2.84-0.24 0.92-0.28 1.4-1.04 0.32-0.52 0.44-1.2 0.12-0.72 0.12-2.44v-1.16h2.92v1.16q0 2.16-0.24 3.28-0.2 1.08-0.76 1.92-0.8 1.24-2.44 1.76-1.6 0.52-4.56 0.52-3 0-4.68-0.48t-2.48-1.6q-0.32-0.4-0.52-0.84-0.2-0.48-0.32-1.08t-0.16-1.4-0.04-1.88v-8.96h-4.56v-2.52h4.56v-4.6z"/>
  <path d="m-55.105 296.99q0-1.52-0.4-2.48-0.4-1-1.44-1.56-1-0.6-2.76-0.8-1.76-0.24-4.44-0.24-2.4 0-3.96 0.24-1.52 0.2-2.48 0.76-0.92 0.56-1.32 1.56-0.4 0.96-0.52 2.52zm3.2 5.4q-0.04 1.68-0.6 2.84-0.56 1.12-1.76 1.84-1.2 0.68-3.16 1-1.92 0.28-4.72 0.28-2.4 0-4.16-0.08t-3.08-0.28q-1.28-0.24-2.16-0.56t-1.48-0.8q-2.64-2.04-2.64-7.72 0-3.4 0.84-5.4 0.84-2.04 2.64-3.04 0.56-0.32 1.28-0.52 0.72-0.24 1.68-0.36t2.2-0.16q1.28-0.08 2.96-0.08 2.4 0 4.08 0.12t2.84 0.4q1.16 0.24 1.96 0.72t1.44 1.2q0.52 0.6 0.88 1.28t0.56 1.56 0.28 2.08q0.12 1.16 0.16 2.8h-20.64q0.08 1.8 0.36 2.96 0.32 1.12 1 1.8 0.4 0.44 1.04 0.72t1.64 0.48q1 0.16 2.44 0.24 1.48 0.08 3.56 0.08 1.56 0 2.68-0.04 1.16-0.08 1.92-0.24 0.8-0.16 1.32-0.44t0.88-0.68q0.36-0.36 0.48-0.72t0.2-1.28z"/>
  <path d="m-46.21 281.43v26.68h-2.92v-26.68z"/>
  <path d="m-22.683 296.99q0-1.52-0.4-2.48-0.4-1-1.44-1.56-1-0.6-2.76-0.8-1.76-0.24-4.44-0.24-2.4 0-3.96 0.24-1.52 0.2-2.48 0.76-0.92 0.56-1.32 1.56-0.4 0.96-0.52 2.52zm3.2 5.4q-0.04 1.68-0.6 2.84-0.56 1.12-1.76 1.84-1.2 0.68-3.16 1-1.92 0.28-4.72 0.28-2.4 0-4.16-0.08t-3.08-0.28q-1.28-0.24-2.16-0.56t-1.48-0.8q-2.64-2.04-2.64-7.72 0-3.4 0.84-5.4 0.84-2.04 2.64-3.04 0.56-0.32 1.28-0.52 0.72-0.24 1.68-0.36t2.2-0.16q1.28-0.08 2.96-0.08 2.4 0 4.08 0.12t2.84 0.4q1.16 0.24 1.96 0.72t1.44 1.2q0.52 0.6 0.88 1.28t0.56 1.56 0.28 2.08q0.12 1.16 0.16 2.8h-20.64q0.08 1.8 0.36 2.96 0.32 1.12 1 1.8 0.4 0.44 1.04 0.72t1.64 0.48q1 0.16 2.44 0.24 1.48 0.08 3.56 0.08 1.56 0 2.68-0.04 1.16-0.08 1.92-0.24 0.8-0.16 1.32-0.44t0.88-0.68q0.36-0.36 0.48-0.72t0.2-1.28z"/>
  <path d="m-15.508 289.59 8.96 15.8h0.32l9-15.8h3.56l-10.8 18.52h-3.8l-10.68-18.52z"/>
  <path d="m13.151 281.71-4.08 6.08-2.24-1.28 3.04-6.72zm-2.72 7.88v18.52h-2.92v-18.52z"/>
  <path d="m33.397 289.59v2.64l-16.48 13.36h16.6v2.52h-20.8v-2.88l16.32-13.12h-15.64v-2.52z"/>
  <path d="m38.556 281.43v3.48h-2.92v-3.48zm0 8.16v18.52h-2.92v-18.52z"/>
  <path d="m52.642 299.67q-1.84 0-3.08 0.04-1.24 0-2.04 0.08t-1.28 0.2q-0.44 0.12-0.76 0.32-1.08 0.72-1.08 2.48 0 1.04 0.32 1.64 0.32 0.56 1.12 0.88 0.64 0.28 2.28 0.4 1.68 0.08 5.12 0.08 2.32 0 3.8-0.12 1.52-0.16 2.36-0.48 0.88-0.36 1.2-0.96t0.32-1.52q0-0.88-0.4-1.48-0.36-0.6-1.32-0.92-0.92-0.36-2.52-0.48-1.6-0.16-4.04-0.16zm-10.56-4.52v-0.8q0-1.44 0.48-2.4 0.52-1 1.72-1.56t3.2-0.8 5-0.24q2.36 0 4 0.12 1.64 0.08 2.76 0.32 1.16 0.24 1.88 0.64 0.76 0.4 1.36 1 0.48 0.48 0.76 1 0.32 0.52 0.48 1.28 0.2 0.76 0.24 1.88 0.08 1.12 0.08 2.76v9.76h-2.92l0.04-2.16h-0.12q-0.52 0.76-1.12 1.24-0.56 0.44-1.48 0.72-0.92 0.24-2.32 0.32-1.36 0.12-3.48 0.12-2.48 0-4.16-0.08-1.64-0.04-2.72-0.16-1.08-0.16-1.72-0.4t-1.16-0.64q-0.92-0.72-1.28-1.68-0.32-0.96-0.32-2.64 0-2.2 0.6-3.36t2.04-1.72q0.4-0.16 0.96-0.28 0.6-0.12 1.4-0.16 0.8-0.08 1.88-0.12t2.56-0.04q2.84 0 4.6 0.08 1.76 0.04 2.84 0.28 1.08 0.2 1.64 0.6 0.6 0.4 1.08 1.04h0.24v-2q0-1.44-0.2-2.16-0.16-0.76-0.68-1.36-0.4-0.48-0.96-0.8-0.52-0.32-1.4-0.48-0.88-0.2-2.16-0.28-1.24-0.08-3.04-0.08-2.4 0-3.88 0.12-1.44 0.08-2.28 0.44-0.8 0.32-1.08 0.92-0.28 0.56-0.28 1.52v0.24z"/>
 </g>
 <g transform="matrix(1.2828 0 0 1.2828 -37.177 -258.4)">
  <path d="m129.21 201.44h71.98l-52.96 54.415 53 54.385h-72.02l-46.215-46.28v24.9c0 10.392-10.537 21.38-21.075 21.38h-32.935c-0.03644-27.674 0.24791-52.834 0-78.26 0-15.289 8.1112-30.527 21.985-30.54h32.025v46.5z" fill="#f89921"/>
 </g>
 <g transform="matrix(1.2828 0 0 1.2828 -37.177 -258.4)" fill="#fff">
  <path d="m234.04 201.44h70.59v108.8h-54.385v-53.83h-53.585v-24.43c0-19.644 18.62-30.243 37.38-30.54z"/>
  <path d="m314.68 201.44h31.38c13.678 0 23.42 13.473 23.42 25.55v27.95l52.68-53.5h74.554l-108.44 108.8h-73.59z"/>
 </g>
</svg>
