<svg height="2.785039mm" viewBox="0 0 5.6673751 2.7850394" width="5.667375mm" xmlns="http://www.w3.org/2000/svg"><g transform="translate(-65.202027 -135.34558)"><path d="m0 0h .037c.088 0 .161-.104.161-.145v-.65c0-.034-.07-.145-.161-.145h-.037c-.085 0-.159.065-.159.145v.65c0 .082.077.145.159.145m-9.749.027h.008c.09 0 .159-.079.159-.163v-.659c0-.084-.066-.163-.159-.163h-.008c-.09 0-.169.077-.169.163v.659c0 .086.079.163.169.163m6.937.223c-.017 0-.029-.011-.029-.027v-.052-1.102-.052c0-.109.104-.225.199-.225h.052.038.052c.101 0 .148.116.223.14.034-.012.049-.046.063-.077.012-.032.022-.036.04-.036h.052.118.052c.02 0 .04.02.04.036v.052 1.316c0 .016-.02.027-.04.027h-.052-.17c-.017 0-.04-.011-.04-.027v-.052-.913c0-.092-.101-.166-.185-.178-.098.013-.151.086-.151.17v.973c0 .016-.013.027-.03.027h-.052zm-8.463 0c-.028 0-.045-.011-.04-.036l.006-.026c-.006-.006-.008-.015-.006-.026l.319-1.316c.005-.013.025-.027.03-.027h.052.166.053c.005 0 .017.011.02.027l.349 1.316c.002.014.001.024-.006.03l.006.022c.004.025-.003.036-.03.036h-.052-.16c-.01 0-.028-.009-.03-.018l-.199-.839c-.008-.03-.017-.05-.027-.061-.013.013-.025.035-.031.061l-.169.839c-.002.009-.02.018-.03.018h-.052zm4.508.01c.015-.013.027-.037.034-.071l.118-.602v-.001c-.011-.038-.045-.065-.088-.066h-.129c-.041.005-.068.034-.077.067l.108.602c.006.034.018.058.034.071m5.759.017c-.132 0-.26-.108-.334-.139-.008.009-.013.024-.013.049v.036c0 .018-.012.027-.03.027h-.052-.179c-.017 0-.039-.009-.039-.027v-.052-1.264-.052c0-.018.022-.036.039-.036h.052.127.052c.018 0 .03.018.03.036v.052.939c0 .077.107.149.19.172.013.004.026.006.039.007.06-.009.108-.052.108-.152l.01-1.018c-.001-.018.012-.036.03-.036h.052.127.052c.017 0 .03.018.03.036v.052 1.136c0 .14-.094.234-.239.234-.009 0-.017-.001-.025-.001-.009 0-.018.001-.027.001zm-7.447 0c-.131 0-.255-.106-.326-.137-.007.008-.011.023-.011.047v.036c0 .018-.022.028-.04.027h-.052-.18c-.017 0-.03-.009-.03-.027v-.052-1.264-.052c0-.018.013-.036.03-.036h.052.128.052c.018 0 .04.018.04.036v.052.939c0 .077.106.149.189.172.012.004.026.006.039.007.06-.009.109-.052.109-.152v-.966-.052c0-.018.022-.036.039-.036h.053.126.052c.018 0 .03.018.03.036v.052 1.136c0 .14-.103.234-.248.234-.009 0-.018-.001-.026-.001-.009 0-.017.001-.026.001zm-1.375 0c-.206 0-.379-.15-.379-.342v-.052-.688-.052c0-.195.173-.351.379-.351h.052.057.052c.205 0 .369.156.369.351v.052.73c0 .193-.164.352-.369.352h-.052zm12.756.129h.027c.17 0 .309-.135.309-.298v-.724c0-.16-.139-.288-.309-.288h-.027c-.055 0-.11.045-.109.099v1.112c0 .054.054.099.109.099m-7.206 0h .027c.171-.001.309-.135.309-.298v-.724c0-.161-.138-.288-.309-.288h-.027c-.055 0-.11.045-.11.099v1.112c0 .054.055.099.11.099m-1.316 0h .147c.131 0 .24-.093.24-.217v-.101c0-.125-.109-.216-.24-.216h-.136c-.048 0-.1.044-.1.099v.336c0 .047.032.099.089.099m9.436.277c-.02 0-.04-.021-.04-.037v-.052-1.687-.052c0-.018.02-.036.04-.036h.052.147.052c.018 0 .04.016.04.036v.052.651c0 .052.045.099.1.099h.317.052c.02 0 .039.018.04.036v.052.153c0 .016-.023.037-.04.037h-.052-.307c-.052 0-.11.04-.11.098v.265c.001.056.06.098.11.098h.426.052c.02 0 .03.018.03.037v.052.161c0 .018-.01.037-.03.037h-.052zm-1.315 0c-.02 0-.039-.016-.039-.037v-.052-1.687-.052c0-.02.022-.036.039-.036h.053.445.052c.288 0 .518.215.518.487v.052.829c0 .272-.23.496-.518.496h-.052zm-1.205 0c-.02 0-.04-.014-.04-.028v-.052-.109-.053c0-.013.017-.026.04-.026h.052.486c.014 0 .052-.013.069-.038 0 0 0 0 0-.001l-.687-1.289c-.005-.012-.01-.022-.01-.054v-.052-.083c0-.002 0-.004 0-.006v-.046c0-.018.014-.027.029-.027h.052.915.052c.018 0 .03.012.03.027v.052.18c0 .011-.007.028-.03.028h-.052-.555c-.022 0-.048.01-.06.028l.687 1.281c.012.022.01.037.01.062v.052.126c.001.014-.02.028-.04.028h-.052zm-6.001 0c-.02 0-.04-.016-.04-.037v-.052-1.687-.052c0-.02.022-.036.04-.036h.052.446.052c.288 0 .528.215.528.487v.052.829c0 .272-.24.496-.528.496h-.052zm-1.285 0c-.02 0-.03-.012-.03-.028v-.052-1.705-.052c0-.018.012-.027.03-.027h.052.147.052c.017 0 .03.014.03.027v.052.615c0 .052.04.099.1.099h.057c.042 0 .067-.036.079-.072l.26-.685c.012-.034.02-.037.03-.036h.052.167.052c.017 0 .025.011.02.017l-.013.036c.012.003.017.011.013.016l-.29.776v.001c.005.007.012.014.021.02.14.081.229.214.229.396v.052.09c0 .274-.221.46-.498.46h-.052zm-.997 0c-.014 0-.034-.01-.039-.037l-.369-1.748c-.001-.008.002-.015.007-.019l-.007-.033c-.003-.018.015-.027.03-.027h.052.167.052c.015 0 .035.009.04.036l.05.279c.01.048.049.09.109.09h.257c.066 0 .089-.049.099-.09l.061-.27c.007-.034.02-.045.03-.045h.052.166.052c.018-.001.036.011.031.027l-.008.032c.007.005.01.012.008.02l-.399 1.739c-.007.03-.018.046-.03.046h-.052zm7.19.027c-.017 0-.03-.02-.029-.036v-.052-.408c0-.027-.004-.044-.009-.055-.055.031-.145.11-.259.109h-.052-.08c-.14.001-.248-.112-.248-.244v-.052-.876-.052c0-.134.108-.252.248-.252h.052.028.052c.113 0 .143.029.2.081.017.016.033.026.048.033.012-.009.019-.026.02-.051 0-.018.011-.036.029-.036h.052.128.052c.017 0 .039.018.039.036v1.767.052c0 .016-.022.036-.039.036h-.052z" fill="#feeb23" transform="matrix(.35277777 0 0 -.35277777 69.193919 137.70446)"/><path d="m0 0v-2.298l-1.408 1.146zm6.52.002v-2.303l-1.434 1.149zm2.06.085h.756v-.704h-.756zm-12.701 1.565c-.322 0-.547-.315-.547-.574v-4.433c0-.367.261-.6.6-.6h1.486v1.147l1.2-1.043c.087-.075.167-.104.313-.104h.699c.209 0 .384.093.491.228.101-.136.265-.228.479-.228h.469c.114 0 .246.059.365.156l.418.34v-.496h1.486c.374 0 .6.28.6.6v.547l1.148-.991c.101-.088.205-.156.365-.156h.699c.201 0 .37.092.478.23.099-.139.269-.23.518-.23h1.434v1.643h.757v-1.643h1.46c.368 0 .6.232.6.6v4.433c0 .32-.221.574-.574.574h-2.738l-1.33-1.06v.486c0 .275-.245.574-.574.574h-.73c-.165 0-.246-.054-.365-.156l-1.148-.992v.574c0 .276-.25.574-.574.574h-2.79c-.196 0-.358-.086-.459-.221-.104.135-.267.221-.454.221h-.73c-.124 0-.232-.034-.313-.104l-1.2-1.044v1.148z" fill="#025b63" transform="matrix(.35277777 0 0 -.35277777 66.848829 135.92837)"/><path d="m66.922419 135.89761v1.21461c0 .0808.03845.13794.137936.13794h.165806c.02046 0 .03916-.006.05503-.0183l.230011-.18415v-1.0213c0-.0765-.05398-.12876-.128764-.12876zm2.879725-.0737h.414161v.39546h-.414161zm-.0829-.40464-.496711.40323v1.28975c0 .0811.05327.13794.147108.13794h.432506v-.57961h.414161v.57961h.441325c.09313 0 .138289-.0526.138289-.13794v-1.56421c0-.0716-.05786-.12877-.128764-.12877zm-2.143478 0v1.83092h.45085c.09525 0 .137937-.0593.137937-.13794v-.35912l.552097.47872c.01376.012.03281.0183.05503.0183h.246592c.08255 0 .1397-.0466.1397-.13794v-.26881l-.634647-.50871.634647-.51082v-.27587c0-.0825-.06385-.12877-.128764-.12877h-.257528c-.02646 0-.04057.006-.05503.0183l-.552097.47836v-.36794c0-.0706-.04375-.12877-.128764-.12877zm-.52458 0c-.07479 0-.128764.0522-.128764.12877v.27587h.588786v-.40464zm-1.655939 0c-.06033 0-.119592.0635-.119592.12877v1.56421c0 .0903.04763.13794.137936.13794h.45085v-.49706l.552098.47872c.01376.012.03281.0183.05503.0183h.246592c.08255 0 .1397-.0466.1397-.13794v-.26881l-.634648-.50871.634648-.51082v-.27587c0-.085-.05644-.12877-.128764-.12877h-.257528c-.02646 0-.04057.006-.05503.0183l-.552098.47836v-.49671z" fill="#feeb23"/></g></svg>