<?xml version="1.0" encoding="UTF-8" standalone="no"?>
<!-- Created with Inkscape (http://www.inkscape.org/) -->

<svg
   xmlns:dc="http://purl.org/dc/elements/1.1/"
   xmlns:cc="http://creativecommons.org/ns#"
   xmlns:rdf="http://www.w3.org/1999/02/22-rdf-syntax-ns#"
   xmlns:svg="http://www.w3.org/2000/svg"
   xmlns="http://www.w3.org/2000/svg"
   xmlns:sodipodi="http://sodipodi.sourceforge.net/DTD/sodipodi-0.dtd"
   xmlns:inkscape="http://www.inkscape.org/namespaces/inkscape"
   width="5.6673751mm"
   height="2.7850394mm"
   viewBox="0 0 5.6673751 2.7850394"
   version="1.1"
   id="svg70878"
   inkscape:version="0.92.0 r15299"
   sodipodi:docname="KiKa - Dark.svg">
  <defs
     id="defs70872">
    <clipPath
       clipPathUnits="userSpaceOnUse"
       id="clipPath26010">
      <path
         d="m 299.261,127.438 h 16.065 v 7.896 h -16.065 z"
         id="path26008"
         inkscape:connector-curvature="0" />
    </clipPath>
  </defs>
  <sodipodi:namedview
     id="base"
     pagecolor="#ffffff"
     bordercolor="#666666"
     borderopacity="1.0"
     inkscape:pageopacity="0.0"
     inkscape:pageshadow="2"
     inkscape:zoom="22.4"
     inkscape:cx="6.7965212"
     inkscape:cy="3.4053374"
     inkscape:document-units="mm"
     inkscape:current-layer="layer1"
     showgrid="false"
     fit-margin-top="0"
     fit-margin-left="0"
     fit-margin-right="0"
     fit-margin-bottom="0"
     inkscape:window-width="1920"
     inkscape:window-height="1017"
     inkscape:window-x="-8"
     inkscape:window-y="-8"
     inkscape:window-maximized="1" />
  <metadata
     id="metadata70875">
    <rdf:RDF>
      <cc:Work
         rdf:about="">
        <dc:format>image/svg+xml</dc:format>
        <dc:type
           rdf:resource="http://purl.org/dc/dcmitype/StillImage" />
        <dc:title></dc:title>
      </cc:Work>
    </rdf:RDF>
  </metadata>
  <g
     inkscape:label="Layer 1"
     inkscape:groupmode="layer"
     id="layer1"
     transform="translate(-65.202027,-135.34558)">
    <g
       transform="matrix(0.35277777,0,0,-0.35277777,-40.370601,183.08823)"
       id="g26004">
      <g
         id="g26006"
         clip-path="url(#clipPath26010)">
        <g
           id="g26012"
           transform="translate(310.5766,128.6469)">
          <path
             d="m 0,0 h 0.037 c 0.088,0 0.161,-0.104 0.161,-0.145 v -0.65 c 0,-0.034 -0.07,-0.145 -0.161,-0.145 L 0,-0.94 c -0.085,0 -0.159,0.065 -0.159,0.145 v 0.65 C -0.159,-0.063 -0.082,0 0,0 m -9.749,0.027 h 0.008 c 0.09,0 0.159,-0.079 0.159,-0.163 v -0.659 c 0,-0.084 -0.066,-0.163 -0.159,-0.163 h -0.008 c -0.09,0 -0.169,0.077 -0.169,0.163 v 0.659 c 0,0.086 0.079,0.163 0.169,0.163 m 6.937,0.223 c -0.017,0 -0.029,-0.011 -0.029,-0.027 V 0.171 -0.931 -0.983 c 0,-0.109 0.104,-0.225 0.199,-0.225 h 0.052 0.038 0.052 c 0.101,0 0.148,0.116 0.223,0.14 0.034,-0.012 0.049,-0.046 0.063,-0.077 0.012,-0.032 0.022,-0.036 0.04,-0.036 h 0.052 0.118 0.052 c 0.02,0 0.04,0.02 0.04,0.036 v 0.052 1.316 c 0,0.016 -0.02,0.027 -0.04,0.027 h -0.052 -0.17 c -0.017,0 -0.04,-0.011 -0.04,-0.027 V 0.171 -0.742 c 0,-0.092 -0.101,-0.166 -0.185,-0.178 -0.098,0.013 -0.151,0.086 -0.151,0.17 v 0.973 c 0,0.016 -0.013,0.027 -0.03,0.027 h -0.052 z m -8.463,0 c -0.028,0 -0.045,-0.011 -0.04,-0.036 l 0.006,-0.026 c -0.006,-0.006 -0.008,-0.015 -0.006,-0.026 l 0.319,-1.316 c 0.005,-0.013 0.025,-0.027 0.03,-0.027 h 0.052 0.166 0.053 c 0.005,0 0.017,0.011 0.02,0.027 l 0.349,1.316 c 0.002,0.014 0.001,0.024 -0.006,0.03 l 0.006,0.022 c 0.004,0.025 -0.003,0.036 -0.03,0.036 h -0.052 -0.16 c -0.01,0 -0.028,-0.009 -0.03,-0.018 l -0.199,-0.839 c -0.008,-0.03 -0.017,-0.05 -0.027,-0.061 -0.013,0.013 -0.025,0.035 -0.031,0.061 l -0.169,0.839 c -0.002,0.009 -0.02,0.018 -0.03,0.018 h -0.052 z m 4.508,0.01 C -6.752,0.247 -6.74,0.223 -6.733,0.189 l 0.118,-0.602 V -0.414 C -6.626,-0.452 -6.66,-0.479 -6.703,-0.48 h -0.129 c -0.041,0.005 -0.068,0.034 -0.077,0.067 l 0.108,0.602 c 0.006,0.034 0.018,0.058 0.034,0.071 m 5.759,0.017 c -0.132,0 -0.26,-0.108 -0.334,-0.139 -0.008,0.009 -0.013,0.024 -0.013,0.049 v 0.036 c 0,0.018 -0.012,0.027 -0.03,0.027 h -0.052 -0.179 c -0.017,0 -0.039,-0.009 -0.039,-0.027 V 0.171 -1.093 -1.145 c 0,-0.018 0.022,-0.036 0.039,-0.036 h 0.052 0.127 0.052 c 0.018,0 0.03,0.018 0.03,0.036 v 0.052 0.939 c 0,0.077 0.107,0.149 0.19,0.172 0.013,0.004 0.026,0.006 0.039,0.007 0.06,-0.009 0.108,-0.052 0.108,-0.152 l 0.01,-1.018 c -10e-4,-0.018 0.012,-0.036 0.03,-0.036 h 0.052 0.127 0.052 c 0.017,0 0.03,0.018 0.03,0.036 v 0.052 1.136 c 0,0.14 -0.094,0.234 -0.239,0.234 -0.009,0 -0.017,-0.001 -0.025,-0.001 -0.009,0 -0.018,0.001 -0.027,0.001 z m -7.447,0 c -0.131,0 -0.255,-0.106 -0.326,-0.137 -0.007,0.008 -0.011,0.023 -0.011,0.047 v 0.036 c 0,0.018 -0.022,0.028 -0.04,0.027 h -0.052 -0.18 c -0.017,0 -0.03,-0.009 -0.03,-0.027 V 0.171 -1.093 -1.145 c 0,-0.018 0.013,-0.036 0.03,-0.036 h 0.052 0.128 0.052 c 0.018,0 0.04,0.018 0.04,0.036 v 0.052 0.939 c 0,0.077 0.106,0.149 0.189,0.172 0.012,0.004 0.026,0.006 0.039,0.007 0.06,-0.009 0.109,-0.052 0.109,-0.152 v -0.966 -0.052 c 0,-0.018 0.022,-0.036 0.039,-0.036 h 0.053 0.126 0.052 c 0.018,0 0.03,0.018 0.03,0.036 v 0.052 1.136 c 0,0.14 -0.103,0.234 -0.248,0.234 -0.009,0 -0.018,-0.001 -0.026,-0.001 -0.009,0 -0.017,0.001 -0.026,0.001 z m -1.375,0 c -0.206,0 -0.379,-0.15 -0.379,-0.342 v -0.052 -0.688 -0.052 c 0,-0.195 0.173,-0.351 0.379,-0.351 h 0.052 0.057 0.052 c 0.205,0 0.369,0.156 0.369,0.351 v 0.052 0.73 c 0,0.193 -0.164,0.352 -0.369,0.352 H -9.721 Z M 2.926,0.406 h 0.027 c 0.17,0 0.309,-0.135 0.309,-0.298 v -0.724 c 0,-0.16 -0.139,-0.288 -0.309,-0.288 H 2.926 c -0.055,0 -0.11,0.045 -0.109,0.099 v 1.112 c 0,0.054 0.054,0.099 0.109,0.099 m -7.206,0 h 0.027 c 0.171,-0.001 0.309,-0.135 0.309,-0.298 v -0.724 c 0,-0.161 -0.138,-0.288 -0.309,-0.288 H -4.28 c -0.055,0 -0.11,0.045 -0.11,0.099 v 1.112 c 0,0.054 0.055,0.099 0.11,0.099 m -1.316,0 h 0.147 c 0.131,0 0.24,-0.093 0.24,-0.217 V 0.088 c 0,-0.125 -0.109,-0.216 -0.24,-0.216 h -0.136 c -0.048,0 -0.1,0.044 -0.1,0.099 v 0.336 c 0,0.047 0.032,0.099 0.089,0.099 M 3.84,0.683 C 3.82,0.683 3.8,0.662 3.8,0.646 V 0.594 -1.093 -1.145 c 0,-0.018 0.02,-0.036 0.04,-0.036 h 0.052 0.147 0.052 c 0.018,0 0.04,0.016 0.04,0.036 v 0.052 0.651 c 0,0.052 0.045,0.099 0.1,0.099 H 4.548 4.6 c 0.02,0 0.039,0.018 0.04,0.036 v 0.052 0.153 c 0,0.016 -0.023,0.037 -0.04,0.037 H 4.548 4.241 c -0.052,0 -0.11,0.04 -0.11,0.098 v 0.265 c 10e-4,0.056 0.06,0.098 0.11,0.098 h 0.426 0.052 c 0.02,0 0.03,0.018 0.03,0.037 v 0.052 0.161 c 0,0.018 -0.01,0.037 -0.03,0.037 H 4.667 Z m -1.315,0 C 2.505,0.683 2.486,0.667 2.486,0.646 V 0.594 -1.093 -1.145 c 0,-0.02 0.022,-0.036 0.039,-0.036 h 0.053 0.445 0.052 c 0.288,0 0.518,0.215 0.518,0.487 v 0.052 0.829 c 0,0.272 -0.23,0.496 -0.518,0.496 H 3.023 Z m -1.205,0 C 1.3,0.683 1.28,0.669 1.28,0.655 V 0.603 0.494 0.441 c 0,-0.013 0.017,-0.026 0.04,-0.026 h 0.052 0.486 c 0.014,0 0.052,-0.013 0.069,-0.038 0,0 0,0 0,-0.001 L 1.24,-0.913 C 1.235,-0.925 1.23,-0.935 1.23,-0.967 v -0.052 -0.083 c 0,-0.002 0,-0.004 0,-0.006 v -0.046 c 0,-0.018 0.014,-0.027 0.029,-0.027 h 0.052 0.915 0.052 c 0.018,0 0.03,0.012 0.03,0.027 v 0.052 0.18 c 0,0.011 -0.007,0.028 -0.03,0.028 H 2.226 1.671 c -0.022,0 -0.048,0.01 -0.06,0.028 l 0.687,1.281 c 0.012,0.022 0.01,0.037 0.01,0.062 V 0.529 0.655 C 2.309,0.669 2.288,0.683 2.268,0.683 H 2.216 Z m -6.001,0 c -0.02,0 -0.04,-0.016 -0.04,-0.037 V 0.594 -1.093 -1.145 c 0,-0.02 0.022,-0.036 0.04,-0.036 h 0.052 0.446 0.052 c 0.288,0 0.528,0.215 0.528,0.487 v 0.052 0.829 c 0,0.272 -0.24,0.496 -0.528,0.496 h -0.052 z m -1.285,0 c -0.02,0 -0.03,-0.012 -0.03,-0.028 V 0.603 -1.102 -1.154 c 0,-0.018 0.012,-0.027 0.03,-0.027 h 0.052 0.147 0.052 c 0.017,0 0.03,0.014 0.03,0.027 v 0.052 0.615 c 0,0.052 0.04,0.099 0.1,0.099 h 0.057 c 0.042,0 0.067,-0.036 0.079,-0.072 l 0.26,-0.685 c 0.012,-0.034 0.02,-0.037 0.03,-0.036 h 0.052 0.167 0.052 c 0.017,0 0.025,0.011 0.02,0.017 l -0.013,0.036 c 0.012,0.003 0.017,0.011 0.013,0.016 l -0.29,0.776 c 0,0.001 0,0.001 0,0.001 0.005,0.007 0.012,0.014 0.021,0.02 0.14,0.081 0.229,0.214 0.229,0.396 v 0.052 0.09 c 0,0.274 -0.221,0.46 -0.498,0.46 h -0.052 z m -0.997,0 c -0.014,0 -0.034,-0.01 -0.039,-0.037 l -0.369,-1.748 c -10e-4,-0.008 0.002,-0.015 0.007,-0.019 l -0.007,-0.033 c -0.003,-0.018 0.015,-0.027 0.03,-0.027 h 0.052 0.167 0.052 c 0.015,0 0.035,0.009 0.04,0.036 l 0.05,0.279 c 0.01,0.048 0.049,0.09 0.109,0.09 h 0.257 c 0.066,0 0.089,-0.049 0.099,-0.09 l 0.061,-0.27 c 0.007,-0.034 0.02,-0.045 0.03,-0.045 h 0.052 0.166 0.052 c 0.018,-10e-4 0.036,0.011 0.031,0.027 l -0.008,0.032 c 0.007,0.005 0.01,0.012 0.008,0.02 l -0.399,1.739 c -0.007,0.03 -0.018,0.046 -0.03,0.046 H -6.604 Z M 0.227,0.71 C 0.21,0.71 0.197,0.69 0.198,0.674 V 0.622 0.214 C 0.198,0.187 0.194,0.17 0.189,0.159 0.134,0.19 0.044,0.269 -0.07,0.268 h -0.052 -0.08 C -0.342,0.269 -0.45,0.156 -0.45,0.024 v -0.052 -0.876 -0.052 c 0,-0.134 0.108,-0.252 0.248,-0.252 h 0.052 0.028 0.052 c 0.113,0 0.143,0.029 0.2,0.081 0.017,0.016 0.033,0.026 0.048,0.033 0.012,-0.009 0.019,-0.026 0.02,-0.051 0,-0.018 0.011,-0.036 0.029,-0.036 h 0.052 0.128 0.052 c 0.017,0 0.039,0.018 0.039,0.036 V 0.622 0.674 C 0.498,0.69 0.476,0.71 0.459,0.71 H 0.407 Z"
             style="fill:#025b63;fill-opacity:1;fill-rule:nonzero;stroke:none"
             id="path26014"
             inkscape:connector-curvature="0" />
        </g>
        <g
           id="g26016"
           transform="translate(303.9291,133.6815)">
          <path
             d="m 0,0 v -2.298 l -1.408,1.146 z M 6.52,0.002 V -2.301 L 5.086,-1.152 Z M 8.58,0.087 H 9.336 V -0.617 H 8.58 Z M -4.121,1.652 c -0.322,0 -0.547,-0.315 -0.547,-0.574 v -4.433 c 0,-0.367 0.261,-0.6 0.6,-0.6 h 1.486 v 1.147 l 1.2,-1.043 c 0.087,-0.075 0.167,-0.104 0.313,-0.104 h 0.699 c 0.209,0 0.384,0.093 0.491,0.228 0.101,-0.136 0.265,-0.228 0.479,-0.228 h 0.469 c 0.114,0 0.246,0.059 0.365,0.156 l 0.418,0.34 v -0.496 h 1.486 c 0.374,0 0.6,0.28 0.6,0.6 v 0.547 L 5.086,-3.799 C 5.187,-3.887 5.291,-3.955 5.451,-3.955 H 6.15 c 0.201,0 0.37,0.092 0.478,0.23 0.099,-0.139 0.269,-0.23 0.518,-0.23 H 8.58 v 1.643 h 0.757 v -1.643 h 1.46 c 0.368,0 0.6,0.232 0.6,0.6 v 4.433 c 0,0.32 -0.221,0.574 -0.574,0.574 H 8.085 l -1.33,-1.06 v 0.486 c 0,0.275 -0.245,0.574 -0.574,0.574 H 5.451 C 5.286,1.652 5.205,1.598 5.086,1.496 L 3.938,0.504 v 0.574 c 0,0.276 -0.25,0.574 -0.574,0.574 H 0.574 C 0.378,1.652 0.216,1.566 0.115,1.431 0.011,1.566 -0.152,1.652 -0.339,1.652 h -0.73 c -0.124,0 -0.232,-0.034 -0.313,-0.104 l -1.2,-1.044 v 1.148 z"
             style="fill:#025b63;fill-opacity:1;fill-rule:nonzero;stroke:none"
             id="path26018"
             inkscape:connector-curvature="0" />
        </g>
        <g
           id="g26020"
           transform="translate(304.1377,133.7687)">
          <path
             d="m 0,0 v -3.443 c 0,-0.229 0.109,-0.391 0.391,-0.391 h 0.47 c 0.058,0 0.111,0.017 0.156,0.052 l 0.652,0.522 v 2.895 C 1.669,-0.148 1.516,0 1.304,0 Z M 8.163,0.209 H 9.337 V -0.912 H 8.163 Z M 7.928,1.356 6.52,0.213 v -3.656 c 0,-0.23 0.151,-0.391 0.417,-0.391 h 1.226 v 1.643 h 1.174 v -1.643 h 1.251 c 0.264,0 0.392,0.149 0.392,0.391 v 4.434 c 0,0.203 -0.164,0.365 -0.365,0.365 z m -6.076,0 v -5.19 H 3.13 c 0.27,0 0.391,0.168 0.391,0.391 v 1.018 l 1.565,-1.357 c 0.039,-0.034 0.093,-0.052 0.156,-0.052 h 0.699 c 0.234,0 0.396,0.132 0.396,0.391 v 0.762 l -1.799,1.442 1.799,1.448 v 0.782 c 0,0.234 -0.181,0.365 -0.365,0.365 H 5.242 C 5.167,1.356 5.127,1.34 5.086,1.304 L 3.521,-0.052 v 1.043 c 0,0.2 -0.124,0.365 -0.365,0.365 z m -1.487,0 C 0.153,1.356 0,1.208 0,0.991 V 0.209 h 1.669 v 1.147 z m -4.694,0 c -0.171,0 -0.339,-0.18 -0.339,-0.365 v -4.434 c 0,-0.256 0.135,-0.391 0.391,-0.391 h 1.278 v 1.409 l 1.565,-1.357 c 0.039,-0.034 0.093,-0.052 0.156,-0.052 h 0.699 c 0.234,0 0.396,0.132 0.396,0.391 v 0.762 l -1.799,1.442 1.799,1.448 v 0.782 c 0,0.241 -0.16,0.365 -0.365,0.365 h -0.73 c -0.075,0 -0.115,-0.016 -0.156,-0.052 l -1.565,-1.356 v 1.408 z"
             style="fill:#feeb23;fill-opacity:1;fill-rule:nonzero;stroke:none"
             id="path26022"
             inkscape:connector-curvature="0" />
        </g>
      </g>
    </g>
  </g>
</svg>
