<?xml version="1.0" encoding="UTF-8"?>
<!-- Created with Inkscape (http://www.inkscape.org/) -->
<svg id="svg70878" width="5.6674mm" height="2.785mm" version="1.1" viewBox="0 0 5.6674 2.785" xmlns="http://www.w3.org/2000/svg" xmlns:cc="http://creativecommons.org/ns#" xmlns:dc="http://purl.org/dc/elements/1.1/" xmlns:rdf="http://www.w3.org/1999/02/22-rdf-syntax-ns#">
 <defs id="defs70872">
  <clipPath id="clipPath26010">
   <path id="path26008" d="m299.26 127.44h16.065v7.896h-16.065z"/>
  </clipPath>
 </defs>
 <metadata id="metadata70875">
  <rdf:RDF>
   <cc:Work rdf:about="">
    <dc:format>image/svg+xml</dc:format>
    <dc:type rdf:resource="http://purl.org/dc/dcmitype/StillImage"/>
    <dc:title/>
   </cc:Work>
  </rdf:RDF>
 </metadata>
 <g id="layer1" transform="translate(-65.202 -135.35)">
  <g id="g26004" transform="matrix(.35278 0 0 -.35278 -40.371 183.09)">
   <g id="g26006" clip-path="url(#clipPath26010)">
    <g id="g26012" transform="translate(310.58 128.65)">
     <path id="path26014" d="m0 0h0.037c0.088 0 0.161-0.104 0.161-0.145v-0.65c0-0.034-0.07-0.145-0.161-0.145h-0.037c-0.085 0-0.159 0.065-0.159 0.145v0.65c0 0.082 0.077 0.145 0.159 0.145m-9.749 0.027h8e-3c0.09 0 0.159-0.079 0.159-0.163v-0.659c0-0.084-0.066-0.163-0.159-0.163h-8e-3c-0.09 0-0.169 0.077-0.169 0.163v0.659c0 0.086 0.079 0.163 0.169 0.163m6.937 0.223c-0.017 0-0.029-0.011-0.029-0.027v-1.206c0-0.109 0.104-0.225 0.199-0.225h0.142c0.101 0 0.148 0.116 0.223 0.14 0.034-0.012 0.049-0.046 0.063-0.077 0.012-0.032 0.022-0.036 0.04-0.036h0.222c0.02 0 0.04 0.02 0.04 0.036v1.368c0 0.016-0.02 0.027-0.04 0.027h-0.222c-0.017 0-0.04-0.011-0.04-0.027v-0.965c0-0.092-0.101-0.166-0.185-0.178-0.098 0.013-0.151 0.086-0.151 0.17v0.973c0 0.016-0.013 0.027-0.03 0.027h-0.052zm-8.463 0c-0.028 0-0.045-0.011-0.04-0.036l6e-3 -0.026c-6e-3 -6e-3 -8e-3 -0.015-6e-3 -0.026l0.319-1.316c5e-3 -0.013 0.025-0.027 0.03-0.027h0.271c5e-3 0 0.017 0.011 0.02 0.027l0.349 1.316c2e-3 0.014 1e-3 0.024-6e-3 0.03l6e-3 0.022c4e-3 0.025-3e-3 0.036-0.03 0.036h-0.212c-0.01 0-0.028-9e-3 -0.03-0.018l-0.199-0.839c-8e-3 -0.03-0.017-0.05-0.027-0.061-0.013 0.013-0.025 0.035-0.031 0.061l-0.169 0.839c-2e-3 9e-3 -0.02 0.018-0.03 0.018h-0.052zm4.508 0.01c0.015-0.013 0.027-0.037 0.034-0.071l0.118-0.602v-1e-3c-0.011-0.038-0.045-0.065-0.088-0.066h-0.129c-0.041 5e-3 -0.068 0.034-0.077 0.067l0.108 0.602c6e-3 0.034 0.018 0.058 0.034 0.071m5.759 0.017c-0.132 0-0.26-0.108-0.334-0.139-8e-3 9e-3 -0.013 0.024-0.013 0.049v0.036c0 0.018-0.012 0.027-0.03 0.027h-0.231c-0.017 0-0.039-9e-3 -0.039-0.027v-1.368c0-0.018 0.022-0.036 0.039-0.036h0.231c0.018 0 0.03 0.018 0.03 0.036v0.991c0 0.077 0.107 0.149 0.19 0.172 0.013 4e-3 0.026 6e-3 0.039 7e-3 0.06-9e-3 0.108-0.052 0.108-0.152l0.01-1.018c-1e-3 -0.018 0.012-0.036 0.03-0.036h0.231c0.017 0 0.03 0.018 0.03 0.036v1.188c0 0.14-0.094 0.234-0.239 0.234-9e-3 0-0.017-1e-3 -0.025-1e-3 -9e-3 0-0.018 1e-3 -0.027 1e-3zm-7.447 0c-0.131 0-0.255-0.106-0.326-0.137-7e-3 8e-3 -0.011 0.023-0.011 0.047v0.036c0 0.018-0.022 0.028-0.04 0.027h-0.232c-0.017 0-0.03-9e-3 -0.03-0.027v-1.368c0-0.018 0.013-0.036 0.03-0.036h0.232c0.018 0 0.04 0.018 0.04 0.036v0.991c0 0.077 0.106 0.149 0.189 0.172 0.012 4e-3 0.026 6e-3 0.039 7e-3 0.06-9e-3 0.109-0.052 0.109-0.152v-1.018c0-0.018 0.022-0.036 0.039-0.036h0.231c0.018 0 0.03 0.018 0.03 0.036v1.188c0 0.14-0.103 0.234-0.248 0.234-9e-3 0-0.018-1e-3 -0.026-1e-3 -9e-3 0-0.017 1e-3 -0.026 1e-3zm-1.375 0c-0.206 0-0.379-0.15-0.379-0.342v-0.792c0-0.195 0.173-0.351 0.379-0.351h0.161c0.205 0 0.369 0.156 0.369 0.351v0.782c0 0.193-0.164 0.352-0.369 0.352h-0.052zm12.756 0.129h0.027c0.17 0 0.309-0.135 0.309-0.298v-0.724c0-0.16-0.139-0.288-0.309-0.288h-0.027c-0.055 0-0.11 0.045-0.109 0.099v1.112c0 0.054 0.054 0.099 0.109 0.099m-7.206 0h0.027c0.171-1e-3 0.309-0.135 0.309-0.298v-0.724c0-0.161-0.138-0.288-0.309-0.288h-0.027c-0.055 0-0.11 0.045-0.11 0.099v1.112c0 0.054 0.055 0.099 0.11 0.099m-1.316 0h0.147c0.131 0 0.24-0.093 0.24-0.217v-0.101c0-0.125-0.109-0.216-0.24-0.216h-0.136c-0.048 0-0.1 0.044-0.1 0.099v0.336c0 0.047 0.032 0.099 0.089 0.099m9.436 0.277c-0.02 0-0.04-0.021-0.04-0.037v-1.791c0-0.018 0.02-0.036 0.04-0.036h0.251c0.018 0 0.04 0.016 0.04 0.036v0.703c0 0.052 0.045 0.099 0.1 0.099h0.369c0.02 0 0.039 0.018 0.04 0.036v0.205c0 0.016-0.023 0.037-0.04 0.037h-0.359c-0.052 0-0.11 0.04-0.11 0.098v0.265c1e-3 0.056 0.06 0.098 0.11 0.098h0.478c0.02 0 0.03 0.018 0.03 0.037v0.213c0 0.018-0.01 0.037-0.03 0.037h-0.052zm-1.315 0c-0.02 0-0.039-0.016-0.039-0.037v-1.791c0-0.02 0.022-0.036 0.039-0.036h0.55c0.288 0 0.518 0.215 0.518 0.487v0.881c0 0.272-0.23 0.496-0.518 0.496h-0.052zm-1.205 0c-0.02 0-0.04-0.014-0.04-0.028v-0.214c0-0.013 0.017-0.026 0.04-0.026h0.538c0.014 0 0.052-0.013 0.069-0.038v-1e-3l-0.687-1.289c-5e-3 -0.012-0.01-0.022-0.01-0.054v-0.135-6e-3 -0.046c0-0.018 0.014-0.027 0.029-0.027h1.019c0.018 0 0.03 0.012 0.03 0.027v0.232c0 0.011-7e-3 0.028-0.03 0.028h-0.607c-0.022 0-0.048 0.01-0.06 0.028l0.687 1.281c0.012 0.022 0.01 0.037 0.01 0.062v0.178c1e-3 0.014-0.02 0.028-0.04 0.028h-0.052zm-6.001 0c-0.02 0-0.04-0.016-0.04-0.037v-1.791c0-0.02 0.022-0.036 0.04-0.036h0.55c0.288 0 0.528 0.215 0.528 0.487v0.881c0 0.272-0.24 0.496-0.528 0.496h-0.052zm-1.285 0c-0.02 0-0.03-0.012-0.03-0.028v-1.809c0-0.018 0.012-0.027 0.03-0.027h0.251c0.017 0 0.03 0.014 0.03 0.027v0.667c0 0.052 0.04 0.099 0.1 0.099h0.057c0.042 0 0.067-0.036 0.079-0.072l0.26-0.685c0.012-0.034 0.02-0.037 0.03-0.036h0.271c0.017 0 0.025 0.011 0.02 0.017l-0.013 0.036c0.012 3e-3 0.017 0.011 0.013 0.016l-0.29 0.776v1e-3c5e-3 7e-3 0.012 0.014 0.021 0.02 0.14 0.081 0.229 0.214 0.229 0.396v0.142c0 0.274-0.221 0.46-0.498 0.46h-0.052zm-0.997 0c-0.014 0-0.034-0.01-0.039-0.037l-0.369-1.748c-1e-3 -8e-3 2e-3 -0.015 7e-3 -0.019l-7e-3 -0.033c-3e-3 -0.018 0.015-0.027 0.03-0.027h0.271c0.015 0 0.035 9e-3 0.04 0.036l0.05 0.279c0.01 0.048 0.049 0.09 0.109 0.09h0.257c0.066 0 0.089-0.049 0.099-0.09l0.061-0.27c7e-3 -0.034 0.02-0.045 0.03-0.045h0.27c0.018-1e-3 0.036 0.011 0.031 0.027l-8e-3 0.032c7e-3 5e-3 0.01 0.012 8e-3 0.02l-0.399 1.739c-7e-3 0.03-0.018 0.046-0.03 0.046h-0.052zm7.19 0.027c-0.017 0-0.03-0.02-0.029-0.036v-0.46c0-0.027-4e-3 -0.044-9e-3 -0.055-0.055 0.031-0.145 0.11-0.259 0.109h-0.132c-0.14 1e-3 -0.248-0.112-0.248-0.244v-0.98c0-0.134 0.108-0.252 0.248-0.252h0.132c0.113 0 0.143 0.029 0.2 0.081 0.017 0.016 0.033 0.026 0.048 0.033 0.012-9e-3 0.019-0.026 0.02-0.051 0-0.018 0.011-0.036 0.029-0.036h0.232c0.017 0 0.039 0.018 0.039 0.036v1.819c0 0.016-0.022 0.036-0.039 0.036h-0.052z" fill="#025b63"/>
    </g>
    <g id="g26016" transform="translate(303.93 133.68)">
     <path id="path26018" d="m0 0v-2.298l-1.408 1.146zm6.52 2e-3v-2.303l-1.434 1.149zm2.06 0.085h0.756v-0.704h-0.756zm-12.701 1.565c-0.322 0-0.547-0.315-0.547-0.574v-4.433c0-0.367 0.261-0.6 0.6-0.6h1.486v1.147l1.2-1.043c0.087-0.075 0.167-0.104 0.313-0.104h0.699c0.209 0 0.384 0.093 0.491 0.228 0.101-0.136 0.265-0.228 0.479-0.228h0.469c0.114 0 0.246 0.059 0.365 0.156l0.418 0.34v-0.496h1.486c0.374 0 0.6 0.28 0.6 0.6v0.547l1.148-0.991c0.101-0.088 0.205-0.156 0.365-0.156h0.699c0.201 0 0.37 0.092 0.478 0.23 0.099-0.139 0.269-0.23 0.518-0.23h1.434v1.643h0.757v-1.643h1.46c0.368 0 0.6 0.232 0.6 0.6v4.433c0 0.32-0.221 0.574-0.574 0.574h-2.738l-1.33-1.06v0.486c0 0.275-0.245 0.574-0.574 0.574h-0.73c-0.165 0-0.246-0.054-0.365-0.156l-1.148-0.992v0.574c0 0.276-0.25 0.574-0.574 0.574h-2.79c-0.196 0-0.358-0.086-0.459-0.221-0.104 0.135-0.267 0.221-0.454 0.221h-0.73c-0.124 0-0.232-0.034-0.313-0.104l-1.2-1.044v1.148z" fill="#025b63"/>
    </g>
    <g id="g26020" transform="translate(304.14 133.77)">
     <path id="path26022" d="m0 0v-3.443c0-0.229 0.109-0.391 0.391-0.391h0.47c0.058 0 0.111 0.017 0.156 0.052l0.652 0.522v2.895c0 0.217-0.153 0.365-0.365 0.365zm8.163 0.209h1.174v-1.121h-1.174zm-0.235 1.147-1.408-1.143v-3.656c0-0.23 0.151-0.391 0.417-0.391h1.226v1.643h1.174v-1.643h1.251c0.264 0 0.392 0.149 0.392 0.391v4.434c0 0.203-0.164 0.365-0.365 0.365zm-6.076 0v-5.19h1.278c0.27 0 0.391 0.168 0.391 0.391v1.018l1.565-1.357c0.039-0.034 0.093-0.052 0.156-0.052h0.699c0.234 0 0.396 0.132 0.396 0.391v0.762l-1.799 1.442 1.799 1.448v0.782c0 0.234-0.181 0.365-0.365 0.365h-0.73c-0.075 0-0.115-0.016-0.156-0.052l-1.565-1.356v1.043c0 0.2-0.124 0.365-0.365 0.365zm-1.487 0c-0.212 0-0.365-0.148-0.365-0.365v-0.782h1.669v1.147zm-4.694 0c-0.171 0-0.339-0.18-0.339-0.365v-4.434c0-0.256 0.135-0.391 0.391-0.391h1.278v1.409l1.565-1.357c0.039-0.034 0.093-0.052 0.156-0.052h0.699c0.234 0 0.396 0.132 0.396 0.391v0.762l-1.799 1.442 1.799 1.448v0.782c0 0.241-0.16 0.365-0.365 0.365h-0.73c-0.075 0-0.115-0.016-0.156-0.052l-1.565-1.356v1.408z" fill="#feeb23"/>
    </g>
   </g>
  </g>
 </g>
</svg>
