<svg id="a" version="1.1" viewBox="0 0 27.968 5.9027" xmlns="http://www.w3.org/2000/svg">
 <path id="b" d="m9.7009 5.9027h5.5653v-5.5653h-5.5653z" fill="#fbfbfb"/>
 <g id="c" transform="matrix(1.3333 0 0 -1.3333 14.803 3.1204)">
  <path id="d" d="m0 0c0-0.961-0.779-1.739-1.739-1.739-0.961 0-1.74 0.778-1.74 1.739s0.779 1.739 1.74 1.739c0.96 0 1.739-0.778 1.739-1.739" fill="#00adef"/>
 </g>
 <g id="e" transform="matrix(1.3333 0 0 -1.3333 3.5319e-7 .8612)" fill="#fbfbfb">
  <path id="f" d="m0 0h0.646v-1.157l0.91 1.157h0.767l-1.172-1.497 1.286-1.858h-0.757l-1.034 1.49v-1.49h-0.646z" fill="#fbfbfb"/>
 </g>
 <path id="g" d="m3.5129 0.86134h0.84533v4.4733h-0.84533z" fill="#fbfbfb"/>
 <g id="h" transform="matrix(1.3333 0 0 -1.3333 5.3196 .8612)" fill="#fbfbfb">
  <path id="i" d="m0 0h0.613l1.435-2.208v2.208h0.639v-3.355h-0.615l-1.433 2.201v-2.201h-0.639z" fill="#fbfbfb"/>
 </g>
 <g id="j" transform="matrix(1.3333 0 0 -1.3333 18.292 1.4696)" fill="#fbfbfb">
  <path id="k" d="m0 0-0.473-0.418c-0.166 0.232-0.335 0.347-0.507 0.347-0.084 0-0.152-0.022-0.206-0.067-0.053-0.045-0.08-0.096-0.08-0.152s0.019-0.109 0.057-0.159c0.052-0.067 0.208-0.211 0.469-0.431 0.243-0.204 0.391-0.333 0.443-0.386 0.129-0.131 0.221-0.256 0.275-0.375 0.054-0.12 0.081-0.25 0.081-0.391 0-0.276-0.095-0.503-0.285-0.682-0.19-0.18-0.439-0.269-0.744-0.269-0.239 0-0.448 0.058-0.625 0.175-0.178 0.117-0.329 0.301-0.456 0.552l0.538 0.324c0.161-0.296 0.346-0.445 0.557-0.445 0.109 0 0.202 0.032 0.276 0.096 0.075 0.064 0.112 0.138 0.112 0.221 0 0.076-0.028 0.152-0.084 0.228-0.057 0.076-0.181 0.193-0.373 0.349-0.365 0.298-0.602 0.529-0.708 0.69-0.107 0.162-0.16 0.324-0.16 0.485 0 0.233 0.089 0.432 0.266 0.599 0.177 0.166 0.396 0.25 0.657 0.25 0.167 0 0.327-0.039 0.478-0.117 0.151-0.077 0.315-0.219 0.492-0.424" fill="#fbfbfb"/>
 </g>
 <g id="l" transform="matrix(1.3333 0 0 -1.3333 18.444 .8612)" fill="#fbfbfb">
  <path id="m" d="m0 0h0.657l0.844-2.384 0.856 2.384h0.656l-1.209-3.355h-0.616z" fill="#fbfbfb"/>
 </g>
 <g id="n" transform="matrix(1.3333 0 0 -1.3333 22.768 -.00052961)" fill="#fbfbfb">
  <path id="o" d="m0 0h0.684l0.254-0.301 0.246 0.301h0.679l-0.679-0.646h-0.5zm-0.05-0.646h1.831v-0.625h-1.197v-0.607h1.197v-0.614h-1.197v-0.882h1.197v-0.628h-1.831z" fill="#fbfbfb"/>
 </g>
 <g id="p" transform="matrix(1.3333 0 0 -1.3333 25.496 .8612)" fill="#fbfbfb">
  <path id="q" d="m0 0h1.855v-0.63h-0.612v-2.725h-0.647v2.725h-0.596z" fill="#fbfbfb"/>
 </g>
</svg>
