<svg height="5.902667" width="27.9676" xmlns="http://www.w3.org/2000/svg"><path d="m9.7009334 5.9026702h5.5653336v-5.56533315h-5.5653336z" fill="#fbfbfb"/><path d="m0 0c0-.961-.779-1.739-1.739-1.739-.961 0-1.74.778-1.74 1.739s.779 1.739 1.74 1.739c.96 0 1.739-.778 1.739-1.739" fill="#00adef" transform="matrix(1.3333333 0 0 -1.3333333 14.803467 3.120404)"/><g fill="#fbfbfb"><path d="m0 0h .646v-1.157l.91 1.157h.767l-1.172-1.497 1.286-1.858h-.757l-1.034 1.49v-1.49h-.646z" transform="matrix(1.3333333 0 0 -1.3333333 0 .861204)"/><path d="m3.5129336.86133703h.8453333v4.47333327h-.8453333z"/><path d="m0 0h .613l1.435-2.208v2.208h.639v-3.355h-.615l-1.433 2.201v-2.201h-.639z" transform="matrix(1.3333333 0 0 -1.3333333 5.3196 .861204)"/><path d="m0 0-.473-.418c-.166.232-.335.347-.507.347-.084 0-.152-.022-.206-.067-.053-.045-.08-.096-.08-.152s.019-.109.057-.159c.052-.067.208-.211.469-.431.243-.204.391-.333.443-.386.129-.131.221-.256.275-.375.054-.12.081-.25.081-.391 0-.276-.095-.503-.285-.682-.19-.18-.439-.269-.744-.269-.239 0-.448.058-.625.175-.178.117-.329.301-.456.552l.538.324c.161-.296.346-.445.557-.445.109 0 .202.032.276.096.075.064.112.138.112.221 0 .076-.028.152-.084.228-.057.076-.181.193-.373.349-.365.298-.602.529-.708.69-.107.162-.16.324-.16.485 0 .233.089.432.266.599.177.166.396.25.657.25.167 0 .327-.039.478-.117.151-.077.315-.219.492-.424" transform="matrix(1.3333333 0 0 -1.3333333 18.292267 1.469604)"/><path d="m0 0h .657l.844-2.384.856 2.384h.656l-1.209-3.355h-.616z" transform="matrix(1.3333333 0 0 -1.3333333 18.4444 .861204)"/><path d="m0 0h .684l.254-.301.246.301h.679l-.679-.646h-.5zm-.05-.646h1.831v-.625h-1.197v-.607h1.197v-.614h-1.197v-.882h1.197v-.628h-1.831z" transform="matrix(1.3333333 0 0 -1.3333333 22.767866 -.00053)"/><path d="m0 0h1.855v-.63h-.612v-2.725h-.647v2.725h-.596z" transform="matrix(1.3333333 0 0 -1.3333333 25.495733 .861204)"/></g></svg>