<svg height=".850441mm" viewBox="0 0 5.9873457 .8504414" width="5.987346mm" xmlns="http://www.w3.org/2000/svg" xmlns:xlink="http://www.w3.org/1999/xlink"><clipPath id="a"><path d="m226.24 494.999h16.972v2.411h-16.972z"/></clipPath><g transform="translate(-49.167041 -104.56288)"><g fill="#f8af1e"><path d="m0 0-.681-.85v-.053l.613-.888h.504l-.7.977.703.814zm-1.118-1.791h.433v1.791h-.433z" transform="matrix(.35277777 0 0 -.35277777 49.561447 104.7697)"/><path d="m51.012422 105.40167h.152753v-.63183h-.152753z"/><path d="m0 0h1.21v-.329h-.777v-.396h.636v-.313h-.636v-.424h.799v-.329h-1.232z" transform="matrix(.35277777 0 0 -.35277777 51.925975 104.76967)"/><path d="m0 0h .363l.875-1.09h.009v1.09h.39v-1.791h-.368l-.87 1.115h-.009v-1.115h-.39z" transform="matrix(.35277777 0 0 -.35277777 53.453857 104.76967)"/><path d="m0 0h1.21v-.329h-.777v-.396h.636v-.313h-.636v-.424h.799v-.329h-1.232z" transform="matrix(.35277777 0 0 -.35277777 54.180966 104.76967)"/><path d="m52.488444 105.02843h.1397v-.1397h-.1397z"/><path d="m52.488444 105.28384h.1397v-.1397h-.1397z"/></g><g clip-path="url(#a)" transform="matrix(.35277777 0 0 -.35277777 -30.6454 280.03796)"><g transform="translate(227.8287 495.8836)"><path d="m0 0c0 .565.347.974.925.974.568 0 .869-.369.869-.866 0-.526-.323-.993-.925-.993-.559 0-.869.369-.869.885m1.336.043c0 .378-.144.608-.436.608-.298 0-.445-.23-.445-.59 0-.359.138-.62.439-.62.31 0 .442.252.442.602" fill="#f8af1e"/></g><g transform="translate(229.8801 495.4627)"><path d="m0 0c .141-.074.396-.135.593-.135.166 0 .282.071.282.187 0 .145-.215.181-.451.264-.246.083-.442.203-.442.519 0 .354.307.56.66.56.233 0 .442-.053.562-.114v-.36c-.117.074-.332.132-.522.132-.151 0-.298-.055-.298-.168 0-.117.101-.166.316-.234.264-.083.572-.193.572-.556 0-.39-.329-.559-.719-.559-.191 0-.375.04-.553.111zm.467 1.49-.347.457h.378l.138-.227h.012l.148.224h.365l-.372-.454z" fill="#f8af1e"/></g><g transform="translate(232.235 495.899)"><path d="m0 0c0 .577.356.958.961.958.271 0 .427-.055.544-.101v-.381c-.178.114-.35.144-.537.144-.289 0-.517-.187-.517-.571 0-.415.219-.611.547-.611.191 0 .323.031.507.138v-.353c-.098-.062-.325-.123-.562-.123-.565 0-.943.295-.943.9" fill="#f8af1e"/></g><g transform="translate(236.4048 496.8235)"><path d="m0 0h .62c.563-.003 1.036-.19 1.036-.857 0-.611-.44-.924-1.026-.934h-.63zm.433-.329v-1.133h.144c.4 0 .621.206.621.565 0 .421-.233.568-.636.568z" fill="#f8af1e"/></g><g transform="translate(241.9409 495.4628)"><path d="m0 0c .141-.074.396-.135.593-.135.166 0 .282.071.282.187 0 .145-.215.181-.451.264-.246.083-.442.203-.442.519 0 .354.307.56.66.56.233 0 .442-.053.562-.114v-.36c-.117.074-.332.132-.522.132-.151 0-.298-.055-.298-.168 0-.117.101-.166.316-.234.265-.083.572-.193.572-.556 0-.39-.329-.559-.719-.559-.191 0-.375.04-.553.111z" fill="#f8af1e"/></g></g></g></svg>