<?xml version="1.0" encoding="UTF-8" standalone="no"?>
<!-- Created with Inkscape (http://www.inkscape.org/) -->

<svg
   xmlns:dc="http://purl.org/dc/elements/1.1/"
   xmlns:cc="http://creativecommons.org/ns#"
   xmlns:rdf="http://www.w3.org/1999/02/22-rdf-syntax-ns#"
   xmlns:svg="http://www.w3.org/2000/svg"
   xmlns="http://www.w3.org/2000/svg"
   xmlns:sodipodi="http://sodipodi.sourceforge.net/DTD/sodipodi-0.dtd"
   xmlns:inkscape="http://www.inkscape.org/namespaces/inkscape"
   width="5.9873457mm"
   height="0.8504414mm"
   viewBox="0 0 5.9873457 0.8504414"
   version="1.1"
   id="svg48783"
   inkscape:version="0.92.0 r15299"
   sodipodi:docname="Kosice Dnes.svg">
  <defs
     id="defs48777">
    <clipPath
       clipPathUnits="userSpaceOnUse"
       id="clipPath19204">
      <path
         d="m 226.24,494.999 h 16.972 v 2.411 H 226.24 Z"
         id="path19202"
         inkscape:connector-curvature="0" />
    </clipPath>
  </defs>
  <sodipodi:namedview
     id="base"
     pagecolor="#ffffff"
     bordercolor="#666666"
     borderopacity="1.0"
     inkscape:pageopacity="0.0"
     inkscape:pageshadow="2"
     inkscape:zoom="22.4"
     inkscape:cx="16.580748"
     inkscape:cy="-3.8585916"
     inkscape:document-units="mm"
     inkscape:current-layer="layer1"
     showgrid="false"
     fit-margin-top="0"
     fit-margin-left="0"
     fit-margin-right="0"
     fit-margin-bottom="0"
     inkscape:window-width="1920"
     inkscape:window-height="1017"
     inkscape:window-x="-8"
     inkscape:window-y="-8"
     inkscape:window-maximized="1" />
  <metadata
     id="metadata48780">
    <rdf:RDF>
      <cc:Work
         rdf:about="">
        <dc:format>image/svg+xml</dc:format>
        <dc:type
           rdf:resource="http://purl.org/dc/dcmitype/StillImage" />
        <dc:title></dc:title>
      </cc:Work>
    </rdf:RDF>
  </metadata>
  <g
     inkscape:label="Layer 1"
     inkscape:groupmode="layer"
     id="layer1"
     transform="translate(-49.167041,-104.56288)">
    <g
       id="g19176"
       transform="matrix(0.35277777,0,0,-0.35277777,49.561447,104.7697)">
      <path
         d="m 0,0 -0.681,-0.85 v -0.053 l 0.613,-0.888 h 0.504 l -0.7,0.977 L 0.439,0 Z m -1.118,-1.791 h 0.433 V 0 h -0.433 z"
         style="fill:#f8af1e;fill-opacity:1;fill-rule:nonzero;stroke:none"
         id="path19178"
         inkscape:connector-curvature="0" />
    </g>
    <path
       d="m 51.012422,105.40167 h 0.152753 v -0.63183 h -0.152753 z"
       style="fill:#f8af1e;fill-opacity:1;fill-rule:nonzero;stroke:none;stroke-width:0.35277775"
       id="path19180"
       inkscape:connector-curvature="0" />
    <g
       id="g19182"
       transform="matrix(0.35277777,0,0,-0.35277777,51.925975,104.76967)">
      <path
         d="M 0,0 H 1.21 V -0.329 H 0.433 V -0.725 H 1.069 V -1.038 H 0.433 V -1.462 H 1.232 V -1.791 H 0 Z"
         style="fill:#f8af1e;fill-opacity:1;fill-rule:nonzero;stroke:none"
         id="path19184"
         inkscape:connector-curvature="0" />
    </g>
    <g
       id="g19186"
       transform="matrix(0.35277777,0,0,-0.35277777,53.453857,104.76967)">
      <path
         d="M 0,0 H 0.363 L 1.238,-1.09 H 1.247 V 0 h 0.39 V -1.791 H 1.269 l -0.87,1.115 H 0.39 V -1.791 H 0 Z"
         style="fill:#f8af1e;fill-opacity:1;fill-rule:nonzero;stroke:none"
         id="path19188"
         inkscape:connector-curvature="0" />
    </g>
    <g
       id="g19190"
       transform="matrix(0.35277777,0,0,-0.35277777,54.180966,104.76967)">
      <path
         d="M 0,0 H 1.21 V -0.329 H 0.433 V -0.725 H 1.069 V -1.038 H 0.433 V -1.462 H 1.232 V -1.791 H 0 Z"
         style="fill:#f8af1e;fill-opacity:1;fill-rule:nonzero;stroke:none"
         id="path19192"
         inkscape:connector-curvature="0" />
    </g>
    <path
       d="m 52.488444,105.02843 h 0.1397 v -0.1397 h -0.1397 z"
       style="fill:#f8af1e;fill-opacity:1;fill-rule:nonzero;stroke:none;stroke-width:0.35277775"
       id="path19194"
       inkscape:connector-curvature="0" />
    <path
       d="m 52.488444,105.28384 h 0.1397 v -0.1397 h -0.1397 z"
       style="fill:#f8af1e;fill-opacity:1;fill-rule:nonzero;stroke:none;stroke-width:0.35277775"
       id="path19196"
       inkscape:connector-curvature="0" />
    <g
       transform="matrix(0.35277777,0,0,-0.35277777,-30.6454,280.03796)"
       id="g19198">
      <g
         id="g19200"
         clip-path="url(#clipPath19204)">
        <g
           id="g19206"
           transform="translate(227.8287,495.8836)">
          <path
             d="m 0,0 c 0,0.565 0.347,0.974 0.925,0.974 0.568,0 0.869,-0.369 0.869,-0.866 0,-0.526 -0.323,-0.993 -0.925,-0.993 C 0.31,-0.885 0,-0.516 0,0 m 1.336,0.043 c 0,0.378 -0.144,0.608 -0.436,0.608 -0.298,0 -0.445,-0.23 -0.445,-0.59 0,-0.359 0.138,-0.62 0.439,-0.62 0.31,0 0.442,0.252 0.442,0.602"
             style="fill:#f8af1e;fill-opacity:1;fill-rule:nonzero;stroke:none"
             id="path19208"
             inkscape:connector-curvature="0" />
        </g>
        <g
           id="g19210"
           transform="translate(229.8801,495.4627)">
          <path
             d="m 0,0 c 0.141,-0.074 0.396,-0.135 0.593,-0.135 0.166,0 0.282,0.071 0.282,0.187 0,0.145 -0.215,0.181 -0.451,0.264 -0.246,0.083 -0.442,0.203 -0.442,0.519 0,0.354 0.307,0.56 0.66,0.56 0.233,0 0.442,-0.053 0.562,-0.114 V 0.921 C 1.087,0.995 0.872,1.053 0.682,1.053 0.531,1.053 0.384,0.998 0.384,0.885 0.384,0.768 0.485,0.719 0.7,0.651 0.964,0.568 1.272,0.458 1.272,0.095 c 0,-0.39 -0.329,-0.559 -0.719,-0.559 -0.191,0 -0.375,0.04 -0.553,0.111 z M 0.467,1.49 0.12,1.947 H 0.498 L 0.636,1.72 H 0.648 L 0.796,1.944 H 1.161 L 0.789,1.49 Z"
             style="fill:#f8af1e;fill-opacity:1;fill-rule:nonzero;stroke:none"
             id="path19212"
             inkscape:connector-curvature="0" />
        </g>
        <g
           id="g19214"
           transform="translate(232.235,495.899)">
          <path
             d="m 0,0 c 0,0.577 0.356,0.958 0.961,0.958 0.271,0 0.427,-0.055 0.544,-0.101 V 0.476 C 1.327,0.59 1.155,0.62 0.968,0.62 0.679,0.62 0.451,0.433 0.451,0.049 c 0,-0.415 0.219,-0.611 0.547,-0.611 0.191,0 0.323,0.031 0.507,0.138 V -0.777 C 1.407,-0.839 1.18,-0.9 0.943,-0.9 0.378,-0.9 0,-0.605 0,0"
             style="fill:#f8af1e;fill-opacity:1;fill-rule:nonzero;stroke:none"
             id="path19216"
             inkscape:connector-curvature="0" />
        </g>
        <g
           id="g19218"
           transform="translate(236.4048,496.8235)">
          <path
             d="m 0,0 h 0.62 c 0.563,-0.003 1.036,-0.19 1.036,-0.857 0,-0.611 -0.44,-0.924 -1.026,-0.934 H 0 Z m 0.433,-0.329 v -1.133 h 0.144 c 0.4,0 0.621,0.206 0.621,0.565 0,0.421 -0.233,0.568 -0.636,0.568 z"
             style="fill:#f8af1e;fill-opacity:1;fill-rule:nonzero;stroke:none"
             id="path19220"
             inkscape:connector-curvature="0" />
        </g>
        <g
           id="g19222"
           transform="translate(241.9409,495.4628)">
          <path
             d="m 0,0 c 0.141,-0.074 0.396,-0.135 0.593,-0.135 0.166,0 0.282,0.071 0.282,0.187 0,0.145 -0.215,0.181 -0.451,0.264 -0.246,0.083 -0.442,0.203 -0.442,0.519 0,0.354 0.307,0.56 0.66,0.56 0.233,0 0.442,-0.053 0.562,-0.114 V 0.921 C 1.087,0.995 0.872,1.053 0.682,1.053 0.531,1.053 0.384,0.998 0.384,0.885 0.384,0.768 0.485,0.719 0.7,0.651 0.965,0.568 1.272,0.458 1.272,0.095 c 0,-0.39 -0.329,-0.559 -0.719,-0.559 -0.191,0 -0.375,0.04 -0.553,0.111 z"
             style="fill:#f8af1e;fill-opacity:1;fill-rule:nonzero;stroke:none"
             id="path19224"
             inkscape:connector-curvature="0" />
        </g>
      </g>
    </g>
  </g>
</svg>
