<svg height="409.87854pt" viewBox="0 0 409.43079 409.87854" width="409.43079pt" xmlns="http://www.w3.org/2000/svg"><g fill="#fff" transform="translate(-45.06796 -45.553966)"><path d="m226.51 46.86c36.07-4.11 73.22 1.52 106.37 16.33 29.37 13.11 55.67 33.16 75.82 58.23 3.49 4.1-3.49 9.94-6.91 5.76-18.12-21.94-40.7-40.29-66.37-52.69-31.88-15.65-68.14-22.2-103.48-18.92-37.19 3.29-73.3 17.59-102.61 40.72-31.96 24.95-55.84 60.06-67.21 98.98-9.53 32.55-10.46 67.57-2.6 100.56 7.74 32.9 24.3 63.67 47.41 88.33 22.23 23.87 50.51 42.09 81.52 52.26 46.62 15.5 99.08 12.57 143.58-8.3 35.96-16.6 66.54-44.51 86.5-78.71 21.92-37.16 30.91-81.76 25.07-124.5-.87-6.71-2.16-13.36-3.56-19.97-1.02-3.64 3.6-7.01 6.77-4.9 2.86 1.9 2.55 5.78 3.4 8.72 8.99 42.97 3.77 88.8-14.94 128.54-15.68 33.62-40.72 62.81-71.56 83.43-33.89 22.91-74.82 35.15-115.71 34.69-30.79-.22-61.52-7.53-89.07-21.27-30.45-15.06-56.99-37.89-76.53-65.66-19.98-28.19-32.54-61.57-36.16-95.93-3.98-37.15 2.2-75.37 18.18-109.18 15.84-33.76 41.1-63.03 72.19-83.63 26.78-17.92 57.9-29.21 89.9-32.89z"/><path d="m403.92 142.89c1.33-2.45 5.04-2.89 6.83-.72 1.74 2.46 1.3 5.66 1.39 8.5 2.22.39 5.04 1.59 4.7 4.35.12 2.73-2.69 3.88-4.9 4.37.03 4.34-.31 8.69-.01 13.03.08 2.9 2.53 4.9 3.28 7.58-.15 2.76-3.32 5.38-5.97 3.82-3.44-1.58-6.45-4.92-6.42-8.88-.24-5.11-.15-10.22-.03-15.33-2.42.26-5.81-.63-5.77-3.61-.48-3.34 3.09-4.77 5.84-4.61 0-2.85-.31-5.9 1.06-8.5z"/><path d="m419.07 154.19c.94-2.96 5.32-4.12 7.37-1.63 4.01 4.88 6.64 10.69 9.99 16.02 2.23-4.76 3.94-9.87 7.03-14.15 3.19-3.35 9.18 1.04 6.95 5.09-3.44 6.97-6.7 14.03-9.3 21.36-1.25 3.93-7.75 4.05-9.17.21-2.93-7.36-6.52-14.47-11.01-21.01-1.1-1.74-2.82-3.68-1.86-5.89z"/><path d="m115.75 205.98c.25-1.3-.67-4.19 1.37-4.23 6.64-.23 13.29-.08 19.93-.07 1.96-.34 1.7 2.03 1.73 3.25-.06 20.16-.03 40.32-.02 60.48 5.72-7.21 11.27-14.56 16.92-21.82 1.21-1.7 3.17-2.9 5.32-2.6 6.19.38 12.47-.41 18.59.42.06.27.18.81.24 1.08-8.89 11.62-18.06 23.03-27.17 34.48 9.49 9.44 19.02 18.85 28.26 28.52-.03.31-.09.92-.12 1.23-4.87.87-9.88.15-14.81.39-3.41-.17-7.46.85-10.17-1.84-5.79-5.71-11.18-11.84-16.96-17.57-.09 5.75-.08 11.51-.14 17.26.11 1.35-1.46 2.37-2.7 2.22-5.71.03-11.43 0-17.14.01-1.81.26-3.54-1.27-3.1-3.14-.03-32.69.04-65.38-.03-98.07z"/><path d="m274.19 203.96c-.18-1.4 1.47-2.47 2.74-2.28 5.7-.03 11.4-.04 17.1 0 1.37-.23 2.97.78 2.83 2.29-.01 15.14.07 30.28-.05 45.42 3.02.71 7.45-1.37 9.37 1.61-.07 5.59.55 11.36-.32 16.85-2.52 1.75-6.09.41-9 .81.35 5.5-.88 11.27 1.03 16.57 2.33 4.3 8.07 3.02 12.1 3.22 2.02.33 5.28-1.02 6.17 1.58.14 5.28.15 10.59-.02 15.87-.3.34-.91 1.02-1.22 1.36-10.06-.34-21.01 2.01-30.32-2.87-7.43-3.74-10.47-12.51-10.4-20.38-.04-26.68-.03-53.37-.01-80.05z"/><path d="m366.27 202.18c4.71-1.25 9.89-.16 14.78-.55 2.12.16 5.94-.83 6.25 2.26.15 33.05-.02 66.11.08 99.16.02 1.49.08 3.26-1.47 4.06-5.95.28-11.93.08-17.9.11-1.26.15-2.73-.97-2.65-2.28-.08-33 .03-66.01-.06-99.01.09-1.27-.3-2.91.97-3.75z"/><path d="m329.25 220.37c6.55-.3 13.13-.09 19.68-.11 3.11-.16 2.03 3.76 2.23 5.71-.52 3.72 1.05 8.05-.92 11.38-6.07.55-12.22.02-18.32.24-1.28-.02-3.52.25-3.64-1.56-.11-4.92-.14-9.86.02-14.78.24-.22.71-.66.95-.88z"/><path d="m329.15 249.87c5.16-.99 10.6-.1 15.88-.43 2.09.04 5.87-.65 6.06 2.38.12 17.41 0 34.82.05 52.24.43 1.86-1.13 3.82-3.09 3.48-5.7 0-11.41.03-17.11-.01-1.46.22-2.91-1.02-2.72-2.52.03-17.96-.08-35.92.05-53.87.22-.32.66-.95.88-1.27z"/><path d="m239.69 253.68c2.6-2.76 6.06.74 8.12 2.55 7.49 7.86 14.09 18.45 12.46 29.77-.82 6.84-5.16 12.63-10.21 17.05-7.08 6.55-15.48 12.47-19.38 21.62-3.58 9.29-5.38 19.12-7.34 28.84-2.8 0-5.6-.01-8.4-.02 1.86-7.82 3.7-15.64 5.58-23.45 1.17-3.96-.45-9.14-4.61-10.53-4.42-.77-10.2.97-11.41 5.82-2.33 9.34-4.47 18.73-6.62 28.12-2.88.06-5.76.06-8.64.04 2.94-10.69 5.52-21.49 7.78-32.35.64-3.61 1.63-7.57-.15-11.03-3.67-7.73-9.71-14.43-11.49-23-1.77-7.23 1.59-14.4 5.37-20.39 3.27-4.9 7.11-9.82 12.49-12.49 1.76-1.14 4.91-.71 5.13 1.75.44 7.31-.67 14.7.46 21.98.42 3.02 2.4 5.88 5.43 6.73 4.79 1.45 9.91.94 14.83.73 3.79-.18 8.37-1.58 9.42-5.73 2.01-8.52.13-17.44 1.18-26.01z"/></g></svg>