<svg width="800" height="336.72" version="1.1" viewBox="0 0 800 336.72" xmlns="http://www.w3.org/2000/svg" xmlns:xlink="http://www.w3.org/1999/xlink">
 <defs>
  <linearGradient id="a">
   <stop stop-color="#ffe359" offset="0"/>
   <stop stop-color="#f49d1d" offset="1"/>
  </linearGradient>
  <clipPath id="g">
   <path d="m0 0h595.28v841.89h-595.28z"/>
  </clipPath>
  <clipPath id="f">
   <path d="m0 0h595.28v841.89h-595.28z"/>
  </clipPath>
  <linearGradient id="e" x1=".023858" x2="-4.2479" y1="-5.3813" y2="-.71332" gradientUnits="userSpaceOnUse">
   <stop stop-color="#f39806" offset="0"/>
   <stop stop-color="#ffeb84" offset="1"/>
  </linearGradient>
  <linearGradient id="d" x1="7.6428" x2="165.91" y1="55.353" y2="253.5" gradientTransform="translate(.082638 -.15563)" gradientUnits="userSpaceOnUse" xlink:href="#a"/>
  <linearGradient id="c" x1="224.37" x2="397.18" y1="55.353" y2="253.5" gradientTransform="translate(.082638 -.15563)" gradientUnits="userSpaceOnUse" xlink:href="#a"/>
  <linearGradient id="b" x1="494.98" x2="637.67" y1="84.257" y2="232.07" gradientTransform="translate(.082638 -.15563)" gradientUnits="userSpaceOnUse" xlink:href="#a"/>
 </defs>
 <g transform="matrix(27.601 0 0 -27.601 -7869.1 22355)">
  <g clip-path="url(#g)">
   <g transform="translate(291.11,800.47)">
    <path d="m0 0h-6.011v1.393l0.25 0.025c0.329 0.032 0.514 0.081 0.564 0.15 0.06 0.084 0.06 0.338 0.06 0.607v3.384c0 0.293 0 0.524-0.056 0.602-0.073 0.101-0.448 0.142-0.571 0.155l-0.247 0.026v1.391h4.264v-1.4l-0.257-0.018c-0.452-0.032-0.61-0.098-0.663-0.147-0.061-0.059-0.054-0.382-0.051-0.488l2e-3 -0.121v-3.511l-1e-3 -0.156c-2e-3 -0.131-4e-3 -0.293 0.017-0.332l-6e-3 7e-3c6e-3 -4e-3 0.066-0.042 0.355-0.042 1.377 0 2.19 1.239 2.475 1.772l0.13 0.241 0.243-0.127 0.728-0.379 0.229-0.12-0.104-0.237-1.096-2.509-0.072-0.166z" fill="#010305"/>
   </g>
   <g transform="translate(298.09,802.7)">
    <path d="m0 0h-1.071l-0.027 0.248c-0.035 0.325-0.114 0.588-0.229 0.761-0.088 0.132-0.553 0.091-0.553 0.091v-0.863c-4e-3 -0.626 0.014-0.824 0.029-0.88v2e-3l-3e-3 0.011-2e-3 2e-3c0.019-0.024 0.107-0.082 0.52-0.082 1.416 0 2.169 0.672 2.925 1.757l0.135 0.195 0.214-0.104 0.737-0.359 0.245-0.118-0.115-0.248-1.159-2.487-0.075-0.161h-6.715v1.375l0.229 0.04 0.179 0.032c0.423 0.076 0.435 0.096 0.435 0.728v3.384l1e-3 0.159c7e-3 0.465 7e-3 0.493-0.371 0.558l-0.243 0.042-0.23 0.04v1.375h6.534l0.076-0.158 1.043-2.181 0.119-0.249-0.248-0.121-0.717-0.347-0.216-0.106-0.135 0.2c-0.652 0.967-1.446 1.438-2.426 1.438-0.494 0-0.696-0.069-0.731-0.096l0.013 0.015 1e-3 2e-3c-0.059-0.095-0.053-0.495-0.051-0.627l2e-3 -0.113 1e-3 -0.482h0.027l0.109-1e-3c0.254-4e-3 0.44 1e-3 0.517 0.107l-6e-3 -8e-3 0.042 0.063c0.091 0.133 0.091 0.133 0.091 0.295v0.277h1.376v-3.406z" fill="#010305"/>
   </g>
   <g transform="translate(306.99,802.76)">
    <path d="m0 0c0.264 0.539 0.32 1.205 0.32 1.67 0 0.851-0.233 1.593-0.623 1.982-0.231 0.231-0.512 0.344-0.86 0.344-1.585 0-1.631-2.221-1.631-2.474 0-0.869 0.236-1.623 0.631-2.018 0.242-0.243 0.542-0.361 0.915-0.361 0.665 0 1.047 0.469 1.248 0.857m-4.153-1.414c-0.816 0.74-1.23 1.717-1.23 2.904 0 1.146 0.412 2.189 1.161 2.938 0.765 0.765 1.836 1.187 3.016 1.187 1.189 0 2.266-0.422 3.033-1.189 0.708-0.708 1.082-1.639 1.082-2.693 0-2.439-1.788-4.209-4.251-4.209-1.112 0-2.031 0.347-2.811 1.062" fill="#010305"/>
   </g>
  </g>
 </g>
 <path d="m7.7255 55.198v23.875c24.124 2.6221 24.124 7.5629 24.124 28.485v93.404c0 20.949-0.27602 26.194-24.124 28.512v23.875h158.27l30.251-69.281-20.066-10.461c-15.126 28.236-41.32 52.941-75.049 52.941-19.818 0-17.748-5.4928-17.748-22.109v-96.883c0-6.4036-1.1593-17.72 3.7815-22.385 4.6371-4.3887 14.822-5.548 22.964-6.1v-23.875z" fill="url(#d)"/>
 <path d="m224.46 55.198v23.875l6.6797 1.1593c18.631 3.2019 16.588 11.344 16.588 27.325v93.404c0 18.051-0.57963 24.427-18.327 27.657l-4.9408 0.85566v23.875h172.81l32.018-68.673-20.37-9.8815c-22.716 32.598-45.985 51.754-87.001 51.754-6.1276 0-18.907 0-21.529-7.2593-1.4905-4.6647-1.1869-23.848-1.1869-28.788v-30.555h4.6647c8.4461 0 19.404-0.57964 24.648 7.2593 4.6647 6.9833 6.7073 16.312 7.5905 24.455h22.688v-78.72h-22.688c0 7.5629-0.88326 8.0321-4.9684 14.132-5.2444 7.2869-15.622 6.0724-23.489 6.0724h-8.4461v-20.922c0-6.1-0.82807-20.066 2.9534-25.035 3.7538-4.9408 20.342-5.2168 25.863-5.2168 32.597 0 55.866 17.168 73.31 43.059l19.79-9.6054-28.788-60.227z" fill="url(#c)"/>
 <path d="m463.32 156.47c0 29.368 9.6055 54.679 31.41 74.47 20.977 19.211 44.522 27.353 72.455 27.353 62.546 0 109.66-44.826 109.66-108.53 0-60.531-48.304-99.505-105.91-99.505-61.387 0-107.62 43.363-107.62 106.21m56.17-0.91088c0-33.426 13.055-75.933 52.637-75.933 37.539 0 48.58 41.348 48.58 71.903 0 16.285-2.3186 34.613-9.5778 49.435-8.4462 16.312-22.109 27.933-41.348 27.933-38.974 0-50.291-41.32-50.291-73.338" fill="url(#b)"/>
 <g transform="matrix(27.601 0 0 -27.601 -7869.1 22355)">
  <g clip-path="url(#f)">
   <g transform="translate(310.59,809.91)">
    <path d="m0 0c0.105-0.015 0.299-0.09 0.328-0.09l0.254 0.03c0.493 0 0.821-0.328 0.821-0.776 0-0.045-0.015-0.209-0.029-0.343 0.567 0.642 0.761 1.015 1.328 1.015 0.448 0 0.791-0.314 0.791-0.762 0-0.582-0.641-1.03-1.104-1.687-0.15-0.194-0.329-0.403-0.478-0.612-0.299-0.388-0.582-0.836-0.881-1.224-0.358-0.463-0.507-1.149-1.12-1.418l-0.238-0.06c-0.482-0.011-0.792 0.299-0.836 0.358-0.075 0.09-0.113 0.182-0.165 0.284-0.06 0.119-0.104 0.478-0.104 0.627 0 0.896 0.418 2.18 0.687 2.971l-0.135 0.015c-0.045 0-0.403 0.075-0.537-0.045-0.239-0.179-0.373-0.493-0.538-0.731-0.433-0.642-0.806-1.299-1.134-1.926-0.374-0.717-0.314-1.418-1.105-1.418-0.314 0-0.687 0.209-0.836 0.582l-0.045 0.179v0.298c0.224 0.866 0.791 1.762 1.359 2.628-0.612-0.03-0.941 0.358-0.941 0.821 0 0.299 0.12 0.612 0.538 0.776 0.238 0.105 0.507 0.135 0.761 0.194 0.717 0.165 1.478 0.254 2.224 0.314l0.627 0.015c0.045 0 0.344 0.015 0.508-0.015" fill="#0a0a0a"/>
   </g>
   <g transform="translate(310.59,809.73)">
    <path d="m0 0c0.12-0.015 0.299-0.105 0.343-0.105l0.284 0.045c0.329 0 0.612-0.209 0.612-0.552 0-0.239-0.209-0.627-0.298-0.836-0.135-0.284-0.254-0.612-0.374-0.926l0.015-0.045c0.478 0.702 0.971 1.449 1.702 2.105 0.149 0.15 0.299 0.165 0.463 0.165 0.313 0 0.567-0.239 0.567-0.553 0-0.134-0.015-0.239-0.119-0.388-0.314-0.433-0.702-0.866-1.045-1.314-0.493-0.597-0.956-1.284-1.389-1.911-0.283-0.403-0.436-0.961-0.955-1.164-0.22-0.086-0.567 0.075-0.582 0.09-0.344 0.238-0.418 0.671-0.418 0.955 0 0.926 0.507 2.419 0.806 3.21h-0.134c-0.314-0.03-0.642-0.045-0.971-0.06-0.866-1.149-1.627-2.314-2.045-3.493l-0.105-0.284c-0.089-0.209-0.358-0.314-0.507-0.314l-0.135 0.016c-0.217 0.066-0.537 0.358-0.537 0.522v0.343c0.299 0.941 0.955 1.956 1.582 2.882l-0.044 0.015-0.508-0.09c-0.328 0-0.627 0.239-0.627 0.597 0 0.194 0.06 0.433 0.343 0.567 0.284 0.15 0.657 0.195 0.956 0.254 0.612 0.12 1.314 0.239 1.941 0.269z" fill="url(#e)"/>
   </g>
   <g transform="translate(310.44,809.45)">
    <path d="m0 0c0.164 0 0.358-0.075 0.388-0.269 0.105 0.209 0.239 0.194 0.344 0.194 0.149 0 0.298-0.029 0.298-0.238l-0.075-0.269c-0.388-0.836-0.746-1.717-0.94-2.583-0.045-0.179-0.075-0.403-0.105-0.597l0.015-0.075c0.792 1.195 1.508 2.404 2.673 3.583 0.086109 0.0812 0.15403 0.09 0.253 0.09 0.135 0 0.269-0.09 0.269-0.224 0-0.224-0.284-0.478-0.463-0.717-0.164-0.209-0.343-0.403-0.507-0.627-0.15-0.164-0.299-0.373-0.433-0.552-0.299-0.358-0.567-0.732-0.821-1.12-0.179-0.239-0.329-0.507-0.493-0.761-0.149-0.224-0.328-0.717-0.657-0.717-0.433 0-0.507 0.478-0.507 0.732 0 0.045 0.029 0.433 0.059 0.642 0.165 0.925 0.463 1.926 0.881 2.836l0.045 0.15c-0.328-0.075-0.627-0.06-0.941-0.105l-0.91-0.045-0.015-0.074c-0.209-0.374-0.553-0.807-0.806-1.195-0.463-0.701-0.866-1.433-1.18-2.15-0.104-0.223-0.104-0.656-0.403-0.656-0.284 0-0.358 0.238-0.358 0.403 0 0.209 0.074 0.373 0.179 0.597 0.418 0.955 1.12 1.911 1.732 2.866l0.03 0.075-1.225-0.254c-0.194-0.015-0.313 0.12-0.313 0.284 0 0.074 0.03 0.239 0.179 0.283 0.985 0.314 1.986 0.448 3.001 0.493z"/>
   </g>
  </g>
 </g>
 <g transform="matrix(3.1373 0 0 3.1373 .25894 -438.21)" fill="#f5a221">
  <path d="m-0.082515 246.68v-18.343h3.7474v15.187h13.74v3.1557z"/>
  <path d="m19.792 246.68v-18.343h18.573v3.1228h-14.792v4.2076h12.228v3.1557h-12.228v4.7007h14.792v3.1557z"/>
  <path d="m66.662 237.51q0 2.1367-0.95329 3.8789-0.92042 1.7422-2.6626 2.9914-1.7093 1.2491-4.1747 1.9394-2.4325 0.69031-5.4896 0.69031-2.9913 0-5.4239-0.69031t-4.1747-1.9394q-1.7422-1.2491-2.6955-2.9914-0.95329-1.7422-0.95329-3.8789 0-2.1038 0.95329-3.846 0.95329-1.7751 2.6955-3.0242 1.7422-1.2491 4.1747-1.9394 2.4654-0.69031 5.4239-0.69031t5.391 0.69031q2.4654 0.69031 4.2076 1.9394 1.7751 1.2491 2.7284 2.9914 0.95329 1.7422 0.95329 3.8789zm-3.9775 0q0-1.4792-0.72318-2.6626-0.69031-1.1834-1.9394-1.9723-1.2491-0.8218-2.9585-1.2491-1.7093-0.42734-3.6817-0.42734-2.0052 0-3.7145 0.42734-1.6765 0.42733-2.9256 1.2491-1.2163 0.78893-1.9394 1.9723-0.69031 1.1834-0.69031 2.6626 0 1.5121 0.69031 2.6955 0.72318 1.1834 1.9394 2.0052 1.2491 0.78893 2.9585 1.2163 1.7093 0.42734 3.6817 0.42734 2.0052 0 3.6817-0.42734 1.7093-0.42733 2.9585-1.2163 1.2491-0.8218 1.9394-2.0052 0.72318-1.1834 0.72318-2.6955z"/>
  <path d="m81.795 246.68v-15.187h-8.218v-3.1557h20.216v3.1557h-8.2509v15.187z"/>
  <path d="m93.794 228.34h4.3391l7.7253 12.853 7.7574-12.853h4.3062l-10.564 18.671h-3z"/>
  <path d="m139.54 240.07v-3.1557h10.157q0.0986 0.5917 0.0986 1.2491-0.0657 2.0052-1.019 3.6488-0.95329 1.6107-2.5969 2.7941-1.6107 1.1505-3.8132 1.7751-2.1696 0.62457-4.7007 0.62457-2.9585 0-5.391-0.69031-2.3997-0.72319-4.109-1.9723-1.7093-1.282-2.6626-3.0242-0.92041-1.7751-0.92041-3.8789t0.95328-3.846q0.95329-1.7422 2.6626-2.9585 1.7093-1.2491 4.0761-1.9394 2.3996-0.69031 5.2924-0.69031 2.4983 0 4.9637 0.39446 2.4654 0.39447 4.5363 1.3478v3.3858q-0.69031-0.32872-1.5778-0.69031-0.85467-0.3616-1.9723-0.62457-1.0848-0.26298-2.4654-0.42734-1.3478-0.19723-3.0242-0.19723-1.9723 0-3.7145 0.39446-1.7093 0.39447-2.9914 1.1834-1.282 0.75605-2.0381 1.9394-0.72319 1.1505-0.72319 2.7284 0 1.4464 0.69032 2.6298 0.69031 1.1834 1.8737 2.0381 1.2163 0.82179 2.8599 1.282 1.6765 0.42734 3.6488 0.42734 1.4792 0 2.7941-0.23011 1.3478-0.2301 2.3996-0.69031 1.0519-0.4602 1.7751-1.1505 0.72318-0.72318 1.019-1.6765z"/>
  <path d="m177.33 237.51q0 2.1367-0.95328 3.8789-0.92042 1.7422-2.6626 2.9914-1.7094 1.2491-4.1747 1.9394-2.4325 0.69031-5.4896 0.69031-2.9914 0-5.4239-0.69031t-4.1747-1.9394q-1.7422-1.2491-2.6955-2.9914-0.95329-1.7422-0.95329-3.8789 0-2.1038 0.95329-3.846 0.95329-1.7751 2.6955-3.0242 1.7422-1.2491 4.1747-1.9394 2.4654-0.69031 5.4239-0.69031t5.391 0.69031q2.4654 0.69031 4.2076 1.9394 1.7751 1.2491 2.7284 2.9914 0.95328 1.7422 0.95328 3.8789zm-3.9775 0q0-1.4792-0.72318-2.6626-0.69031-1.1834-1.9394-1.9723-1.2491-0.8218-2.9585-1.2491-1.7093-0.42734-3.6817-0.42734-2.0052 0-3.7145 0.42734-1.6765 0.42733-2.9256 1.2491-1.2163 0.78893-1.9394 1.9723-0.69031 1.1834-0.69031 2.6626 0 1.5121 0.69031 2.6955 0.72319 1.1834 1.9394 2.0052 1.2491 0.78893 2.9585 1.2163 1.7093 0.42734 3.6817 0.42734 2.0052 0 3.6817-0.42734 1.7093-0.42733 2.9585-1.2163 1.2491-0.8218 1.9394-2.0052 0.72318-1.1834 0.72318-2.6955z"/>
  <path d="m179.83 246.68v-18.343h3.7474v15.187h13.74v3.1557z"/>
  <path d="m199.3 246.68v-18.343h11.242q2.7284 0 4.9637 0.52595 2.2682 0.52595 3.8789 1.6436 1.6436 1.0848 2.5311 2.827 0.88754 1.7422 0.88754 4.1747 0 2.4654-0.88754 4.2076-0.88754 1.7093-2.5311 2.827-1.6107 1.1176-3.8789 1.6436-2.2353 0.49308-4.9637 0.49308zm11.275-3.1557q1.5779 0 3.0571-0.26298 1.4792-0.29584 2.6298-0.98615 1.1834-0.69032 1.8737-1.8408 0.69032-1.1505 0.69032-2.9256 0-1.7422-0.69032-2.8927-0.69031-1.1834-1.8737-1.8737-1.1505-0.69031-2.6298-0.95328-1.4792-0.29585-3.0571-0.29585h-7.5277v12.031z"/>
 </g>
</svg>
