<svg version="1.1" viewBox="0 0 800 266.08" xmlns="http://www.w3.org/2000/svg" xmlns:xlink="http://www.w3.org/1999/xlink">
 <defs>
  <linearGradient id="a">
   <stop stop-color="#ffe359" offset="0"/>
   <stop stop-color="#f49d1d" offset="1"/>
  </linearGradient>
  <clipPath id="g">
   <path d="m0 0h595.28v841.89h-595.28z"/>
  </clipPath>
  <clipPath id="f">
   <path d="m0 0h595.28v841.89h-595.28z"/>
  </clipPath>
  <linearGradient id="e" x1=".023858" x2="-4.2479" y1="-5.3813" y2="-.71332" gradientUnits="userSpaceOnUse">
   <stop stop-color="#f39806" offset="0"/>
   <stop stop-color="#ffeb84" offset="1"/>
  </linearGradient>
  <linearGradient id="d" x1="7.6428" x2="165.91" y1="55.353" y2="253.5" gradientTransform="translate(2.4226e-5 .00046733)" gradientUnits="userSpaceOnUse" xlink:href="#a"/>
  <linearGradient id="c" x1="224.37" x2="397.18" y1="55.353" y2="253.5" gradientTransform="translate(2.4226e-5 .00046733)" gradientUnits="userSpaceOnUse" xlink:href="#a"/>
  <linearGradient id="b" x1="494.98" x2="637.67" y1="84.257" y2="232.07" gradientTransform="translate(2.4226e-5 .00046733)" gradientUnits="userSpaceOnUse" xlink:href="#a"/>
 </defs>
 <g transform="matrix(27.601 0 0 -27.601 -7869.1 22355)">
  <g clip-path="url(#g)">
   <g transform="translate(291.11 800.47)">
    <path d="m0 0h-6.011v1.393l0.25 0.025c0.329 0.032 0.514 0.081 0.564 0.15 0.06 0.084 0.06 0.338 0.06 0.607v3.384c0 0.293 0 0.524-0.056 0.602-0.073 0.101-0.448 0.142-0.571 0.155l-0.247 0.026v1.391h4.264v-1.4l-0.257-0.018c-0.452-0.032-0.61-0.098-0.663-0.147-0.061-0.059-0.054-0.382-0.051-0.488l2e-3 -0.121v-3.511l-1e-3 -0.156c-2e-3 -0.131-4e-3 -0.293 0.017-0.332l-6e-3 7e-3c6e-3 -4e-3 0.066-0.042 0.355-0.042 1.377 0 2.19 1.239 2.475 1.772l0.13 0.241 0.243-0.127 0.728-0.379 0.229-0.12-0.104-0.237-1.096-2.509-0.072-0.166z" fill="#010305"/>
   </g>
   <g transform="translate(298.09 802.7)">
    <path d="m0 0h-1.071l-0.027 0.248c-0.035 0.325-0.114 0.588-0.229 0.761-0.088 0.132-0.553 0.091-0.553 0.091v-0.863c-4e-3 -0.626 0.014-0.824 0.029-0.88v2e-3l-3e-3 0.011-2e-3 2e-3c0.019-0.024 0.107-0.082 0.52-0.082 1.416 0 2.169 0.672 2.925 1.757l0.135 0.195 0.214-0.104 0.737-0.359 0.245-0.118-0.115-0.248-1.159-2.487-0.075-0.161h-6.715v1.375l0.229 0.04 0.179 0.032c0.423 0.076 0.435 0.096 0.435 0.728v3.384l1e-3 0.159c7e-3 0.465 7e-3 0.493-0.371 0.558l-0.243 0.042-0.23 0.04v1.375h6.534l0.076-0.158 1.043-2.181 0.119-0.249-0.248-0.121-0.717-0.347-0.216-0.106-0.135 0.2c-0.652 0.967-1.446 1.438-2.426 1.438-0.494 0-0.696-0.069-0.731-0.096l0.013 0.015 1e-3 2e-3c-0.059-0.095-0.053-0.495-0.051-0.627l2e-3 -0.113 1e-3 -0.482h0.027l0.109-1e-3c0.254-4e-3 0.44 1e-3 0.517 0.107l-6e-3 -8e-3 0.042 0.063c0.091 0.133 0.091 0.133 0.091 0.295v0.277h1.376v-3.406z" fill="#010305"/>
   </g>
   <g transform="translate(306.99 802.76)">
    <path d="m0 0c0.264 0.539 0.32 1.205 0.32 1.67 0 0.851-0.233 1.593-0.623 1.982-0.231 0.231-0.512 0.344-0.86 0.344-1.585 0-1.631-2.221-1.631-2.474 0-0.869 0.236-1.623 0.631-2.018 0.242-0.243 0.542-0.361 0.915-0.361 0.665 0 1.047 0.469 1.248 0.857m-4.153-1.414c-0.816 0.74-1.23 1.717-1.23 2.904 0 1.146 0.412 2.189 1.161 2.938 0.765 0.765 1.836 1.187 3.016 1.187 1.189 0 2.266-0.422 3.033-1.189 0.708-0.708 1.082-1.639 1.082-2.693 0-2.439-1.788-4.209-4.251-4.209-1.112 0-2.031 0.347-2.811 1.062" fill="#010305"/>
   </g>
  </g>
 </g>
 <path d="m7.6428 55.353v23.875c24.124 2.6221 24.124 7.5628 24.124 28.485v93.403c0 20.949-0.27601 26.194-24.124 28.512v23.875h158.27l30.251-69.28-20.066-10.461c-15.126 28.236-41.319 52.94-75.048 52.94-19.818 0-17.748-5.4927-17.748-22.109v-96.881c0-6.4035-1.1593-17.72 3.7814-22.385 4.637-4.3886 14.822-5.5479 22.964-6.0999v-23.875z" fill="url(#d)"/>
 <path d="m224.37 55.353v23.875l6.6796 1.1593c18.631 3.2018 16.588 11.344 16.588 27.325v93.403c0 18.051-0.57963 24.427-18.327 27.657l-4.9407 0.85564v23.875h172.81l32.018-68.672-20.37-9.8813c-22.716 32.597-45.984 51.753-87 51.753-6.1275 0-18.907 0-21.529-7.2592-1.4905-4.6646-1.1869-23.848-1.1869-28.788v-30.555h4.6646c8.446 0 19.404-0.57963 24.648 7.2592 4.6646 6.9832 6.7072 16.312 7.5904 24.455h22.688v-78.719h-22.688c0 7.5628-0.88325 8.032-4.9683 14.132-5.2443 7.2868-15.622 6.0723-23.489 6.0723h-8.446v-20.922c0-6.0999-0.82805-20.066 2.9534-25.035 3.7538-4.9407 20.342-5.2167 25.863-5.2167 32.597 0 55.865 17.168 73.309 43.058l19.79-9.6053-28.788-60.226z" fill="url(#c)"/>
 <path d="m463.23 156.62c0 29.368 9.6053 54.678 31.41 74.469 20.977 19.211 44.521 27.353 72.454 27.353 62.545 0 109.66-44.825 109.66-108.53 0-60.53-48.303-99.503-105.91-99.503-61.386 0-107.62 43.362-107.62 106.21m56.169-0.91085c0-33.425 13.055-75.932 52.636-75.932 37.538 0 48.579 41.347 48.579 71.902 0 16.285-2.3185 34.612-9.5777 49.434-8.446 16.312-22.109 27.933-41.347 27.933-38.973 0-50.29-41.319-50.29-73.337" fill="url(#b)"/>
 <g transform="matrix(27.601 0 0 -27.601 -7869.1 22355)">
  <g clip-path="url(#f)">
   <g transform="translate(310.59 809.91)">
    <path d="m0 0c0.105-0.015 0.299-0.09 0.328-0.09l0.254 0.03c0.493 0 0.821-0.328 0.821-0.776 0-0.045-0.015-0.209-0.029-0.343 0.567 0.642 0.761 1.015 1.328 1.015 0.448 0 0.791-0.314 0.791-0.762 0-0.582-0.641-1.03-1.104-1.687-0.15-0.194-0.329-0.403-0.478-0.612-0.299-0.388-0.582-0.836-0.881-1.224-0.358-0.463-0.507-1.149-1.12-1.418l-0.238-0.06c-0.482-0.011-0.792 0.299-0.836 0.358-0.075 0.09-0.113 0.182-0.165 0.284-0.06 0.119-0.104 0.478-0.104 0.627 0 0.896 0.418 2.18 0.687 2.971l-0.135 0.015c-0.045 0-0.403 0.075-0.537-0.045-0.239-0.179-0.373-0.493-0.538-0.731-0.433-0.642-0.806-1.299-1.134-1.926-0.374-0.717-0.314-1.418-1.105-1.418-0.314 0-0.687 0.209-0.836 0.582l-0.045 0.179v0.298c0.224 0.866 0.791 1.762 1.359 2.628-0.612-0.03-0.941 0.358-0.941 0.821 0 0.299 0.12 0.612 0.538 0.776 0.238 0.105 0.507 0.135 0.761 0.194 0.717 0.165 1.478 0.254 2.224 0.314l0.627 0.015c0.045 0 0.344 0.015 0.508-0.015" fill="#fff"/>
   </g>
   <g transform="translate(310.59 809.73)">
    <path d="m0 0c0.12-0.015 0.299-0.105 0.343-0.105l0.284 0.045c0.329 0 0.612-0.209 0.612-0.552 0-0.239-0.209-0.627-0.298-0.836-0.135-0.284-0.254-0.612-0.374-0.926l0.015-0.045c0.478 0.702 0.971 1.449 1.702 2.105 0.149 0.15 0.299 0.165 0.463 0.165 0.313 0 0.567-0.239 0.567-0.553 0-0.134-0.015-0.239-0.119-0.388-0.314-0.433-0.702-0.866-1.045-1.314-0.493-0.597-0.956-1.284-1.389-1.911-0.283-0.403-0.436-0.961-0.955-1.164-0.22-0.086-0.567 0.075-0.582 0.09-0.344 0.238-0.418 0.671-0.418 0.955 0 0.926 0.507 2.419 0.806 3.21h-0.134c-0.314-0.03-0.642-0.045-0.971-0.06-0.866-1.149-1.627-2.314-2.045-3.493l-0.105-0.284c-0.089-0.209-0.358-0.314-0.507-0.314l-0.135 0.016c-0.217 0.066-0.537 0.358-0.537 0.522v0.343c0.299 0.941 0.955 1.956 1.582 2.882l-0.044 0.015-0.508-0.09c-0.328 0-0.627 0.239-0.627 0.597 0 0.194 0.06 0.433 0.343 0.567 0.284 0.15 0.657 0.195 0.956 0.254 0.612 0.12 1.314 0.239 1.941 0.269z" fill="url(#e)"/>
   </g>
   <g transform="translate(310.44 809.45)">
    <path d="m0 0c0.164 0 0.358-0.075 0.388-0.269 0.105 0.209 0.239 0.194 0.344 0.194 0.149 0 0.298-0.029 0.298-0.238l-0.075-0.269c-0.388-0.836-0.746-1.717-0.94-2.583-0.045-0.179-0.075-0.403-0.105-0.597l0.015-0.075c0.792 1.195 1.508 2.404 2.673 3.583l0.253 0.09c0.135 0 0.269-0.09 0.269-0.224 0-0.224-0.284-0.478-0.463-0.717-0.164-0.209-0.343-0.403-0.507-0.627-0.15-0.164-0.299-0.373-0.433-0.552-0.299-0.358-0.567-0.732-0.821-1.12-0.179-0.239-0.329-0.507-0.493-0.761-0.149-0.224-0.328-0.717-0.657-0.717-0.433 0-0.507 0.478-0.507 0.732 0 0.045 0.029 0.433 0.059 0.642 0.165 0.925 0.463 1.926 0.881 2.836l0.045 0.15c-0.328-0.075-0.627-0.06-0.941-0.105l-0.91-0.045-0.015-0.074c-0.209-0.374-0.553-0.807-0.806-1.195-0.463-0.701-0.866-1.433-1.18-2.15-0.104-0.223-0.104-0.656-0.403-0.656-0.284 0-0.358 0.238-0.358 0.403 0 0.209 0.074 0.373 0.179 0.597 0.418 0.955 1.12 1.911 1.732 2.866l0.03 0.075-1.225-0.254c-0.194-0.015-0.313 0.12-0.313 0.284 0 0.074 0.03 0.239 0.179 0.283 0.985 0.314 1.986 0.448 3.001 0.493z"/>
   </g>
  </g>
 </g>
</svg>
