<?xml version="1.0" encoding="UTF-8" standalone="no"?>
<!-- Created with Inkscape (http://www.inkscape.org/) -->

<svg
   xmlns:dc="http://purl.org/dc/elements/1.1/"
   xmlns:cc="http://creativecommons.org/ns#"
   xmlns:rdf="http://www.w3.org/1999/02/22-rdf-syntax-ns#"
   xmlns:svg="http://www.w3.org/2000/svg"
   xmlns="http://www.w3.org/2000/svg"
   xmlns:sodipodi="http://sodipodi.sourceforge.net/DTD/sodipodi-0.dtd"
   xmlns:inkscape="http://www.inkscape.org/namespaces/inkscape"
   width="5.9522014mm"
   height="2.5502305mm"
   viewBox="0 0 5.9522014 2.5502305"
   version="1.1"
   id="svg49412"
   inkscape:version="0.92.0 r15299"
   sodipodi:docname="Life TV HD - Dark.svg">
  <defs
     id="defs49406">
    <clipPath
       clipPathUnits="userSpaceOnUse"
       id="clipPath19630">
      <path
         d="m 226.254,476.433 h 16.945 v 7.229 h -16.945 z"
         id="path19628"
         inkscape:connector-curvature="0" />
    </clipPath>
  </defs>
  <sodipodi:namedview
     id="base"
     pagecolor="#ffffff"
     bordercolor="#666666"
     borderopacity="1.0"
     inkscape:pageopacity="0.0"
     inkscape:pageshadow="2"
     inkscape:zoom="22.4"
     inkscape:cx="12.798979"
     inkscape:cy="3.1808313"
     inkscape:document-units="mm"
     inkscape:current-layer="layer1"
     showgrid="false"
     fit-margin-top="0"
     fit-margin-left="0"
     fit-margin-right="0"
     fit-margin-bottom="0"
     inkscape:window-width="1920"
     inkscape:window-height="1017"
     inkscape:window-x="-8"
     inkscape:window-y="-8"
     inkscape:window-maximized="1" />
  <metadata
     id="metadata49409">
    <rdf:RDF>
      <cc:Work
         rdf:about="">
        <dc:format>image/svg+xml</dc:format>
        <dc:type
           rdf:resource="http://purl.org/dc/dcmitype/StillImage" />
        <dc:title></dc:title>
      </cc:Work>
    </rdf:RDF>
  </metadata>
  <g
     inkscape:label="Layer 1"
     inkscape:groupmode="layer"
     id="layer1"
     transform="translate(-62.791756,-99.177268)">
    <g
       transform="matrix(0.35277777,0,0,-0.35277777,-17.051243,269.80247)"
       id="g19624">
      <g
         id="g19626"
         clip-path="url(#clipPath19630)">
        <g
           id="g19632"
           transform="translate(235.0052,481.143)">
          <path
             d="M 0,0 C 0.176,-0.075 0.202,-0.305 0.06,-0.553 -0.006,-0.668 -0.322,-0.982 -0.547,-1.16 l -0.121,-0.095 -0.017,0.089 c -0.055,0.274 0.017,0.694 0.158,0.941 C -0.389,0.017 -0.216,0.089 0,0 m -1.235,1.952 c -0.003,-0.228 -0.282,-0.78 -0.8,-1.575 -0.141,-0.219 -0.262,-0.391 -0.271,-0.386 -0.006,0.006 0.04,0.213 0.104,0.455 0.21,0.818 0.408,1.293 0.636,1.529 0.118,0.124 0.15,0.141 0.233,0.132 0.098,-0.008 0.098,-0.008 0.098,-0.155 m 6.52,0.432 C 3.881,2.303 3.394,2.283 2.536,2.266 1.543,2.248 0.938,2.274 0.512,2.346 0.412,2.363 0.322,2.369 0.314,2.361 0.279,2.326 0.576,2.053 0.751,1.955 1.065,1.776 1.532,1.704 2.588,1.664 2.867,1.652 3.098,1.632 3.098,1.621 3.098,1.609 2.982,0.959 2.838,0.178 2.594,-1.18 2.349,-2.548 2.349,-2.579 c 0,-0.015 -5.098,-0.006 -5.113,0.008 -0.008,0.009 0.291,1.799 0.334,1.995 0.023,0.113 0.049,0.156 0.104,0.182 0.118,0.051 0.181,0.037 0.4,-0.095 0.351,-0.213 0.481,-0.219 0.639,-0.023 0.072,0.083 0.089,0.054 0.023,-0.035 -0.023,-0.029 -0.069,-0.138 -0.103,-0.242 -0.167,-0.504 0.06,-1.042 0.495,-1.169 0.253,-0.074 0.478,-0.046 0.869,0.113 0.343,0.138 0.97,0.567 0.97,0.662 0,0.075 -0.066,0.049 -0.23,-0.087 -0.276,-0.227 -0.685,-0.417 -0.898,-0.417 -0.144,0.003 -0.331,0.098 -0.398,0.207 l -0.057,0.095 0.21,0.187 c 0.455,0.406 0.639,0.642 0.688,0.873 C 0.357,0.032 0.081,0.236 -0.369,0.153 -0.573,0.115 -0.7,0.058 -0.898,-0.101 -0.979,-0.167 -1.054,-0.204 -1.062,-0.19 c -0.012,0.02 -0.038,0.02 -0.072,0 -0.043,-0.023 -0.101,-0.006 -0.259,0.075 C -1.506,-0.06 -1.667,0 -1.75,0.017 -1.886,0.046 -1.917,0.043 -2.024,-0.009 -2.087,-0.04 -2.142,-0.063 -2.142,-0.055 c 0,0.006 0.089,0.144 0.196,0.305 0.57,0.853 0.898,1.512 0.898,1.803 0,0.175 -0.075,0.244 -0.256,0.239 -0.443,-0.009 -0.91,-0.484 -1.261,-1.279 -0.294,-0.668 -0.472,-1.252 -0.714,-2.346 -0.017,-0.075 -0.25,-0.222 -0.426,-0.27 -0.302,-0.084 -0.334,0.094 -0.179,1.016 0.11,0.63 0.095,0.771 -0.077,0.771 -0.19,0 -0.351,-0.167 -0.815,-0.849 -0.141,-0.204 -0.305,-0.435 -0.368,-0.51 -0.11,-0.132 -0.13,-0.241 -0.038,-0.207 0.023,0.009 0.176,0.196 0.337,0.418 0.161,0.221 0.299,0.394 0.305,0.388 0.009,-0.006 -0.009,-0.115 -0.034,-0.239 -0.026,-0.123 -0.055,-0.357 -0.064,-0.515 -0.014,-0.265 -0.011,-0.308 0.049,-0.429 0.089,-0.184 0.17,-0.23 0.403,-0.227 0.213,0 0.446,0.095 0.703,0.279 0.08,0.057 0.146,0.101 0.149,0.098 0.006,-0.003 -0.003,-0.058 -0.017,-0.121 -0.014,-0.063 -0.046,-0.279 -0.075,-0.478 l -0.049,-0.363 -1.312,-0.017 c -0.72,-0.009 -1.316,-0.014 -1.319,-0.012 -0.009,0.009 0.337,2.626 0.452,3.418 0.049,0.339 0.121,0.765 0.158,0.947 0.041,0.181 0.064,0.337 0.058,0.345 C -5.461,2.133 -5.599,1.989 -5.671,1.865 -5.945,1.402 -6.189,0.311 -6.503,-1.831 -6.561,-2.22 -6.613,-2.562 -6.618,-2.594 -6.63,-2.648 -6.664,-2.657 -7.116,-2.689 -7.764,-2.738 -8.3,-2.818 -8.438,-2.887 c -0.221,-0.116 -0.314,-0.389 -0.175,-0.522 0.158,-0.143 0.316,-0.152 1.214,-0.048 0.349,0.037 0.64,0.063 0.648,0.057 0.006,-0.009 -0.029,-0.296 -0.078,-0.639 -0.097,-0.662 -0.097,-0.671 0.044,-0.671 0.144,0 0.305,0.349 0.454,0.979 0.044,0.181 0.081,0.346 0.087,0.36 0.011,0.046 1.779,0.184 2.378,0.187 0.325,0 0.337,-0.003 0.354,-0.066 0.008,-0.035 0.017,-0.092 0.017,-0.13 0,-0.075 0.086,-0.118 0.193,-0.098 0.072,0.015 0.222,0.144 0.296,0.257 l 0.044,0.063 1.468,0.029 c 0.809,0.017 1.986,0.04 2.617,0.049 l 1.148,0.02 -0.02,-0.112 C 2.185,-3.564 2.168,-3.846 2.202,-3.958 c 0.035,-0.121 0.087,-0.15 0.144,-0.078 0.02,0.023 0.055,0.181 0.078,0.354 0.043,0.337 0.092,0.616 0.109,0.633 0.006,0.009 1.086,0.015 2.401,0.018 1.316,0.002 2.384,0.014 2.378,0.026 -0.017,0.028 -0.348,0.132 -0.579,0.181 -0.5,0.104 -1.571,0.173 -3.137,0.204 -0.893,0.018 -0.988,0.026 -0.988,0.069 0,0.049 0.225,1.362 0.533,3.115 0.103,0.582 0.187,1.062 0.187,1.068 0,0.003 0.406,0.009 0.901,0.012 C 5.093,1.65 5.7,1.684 5.841,1.736 5.939,1.773 6.086,1.937 6.106,2.03 6.163,2.294 5.878,2.415 5.285,2.384"
             style="fill:#000000;fill-opacity:1;fill-rule:evenodd;stroke:none"
             id="path19634"
             inkscape:connector-curvature="0" />
        </g>
        <g
           id="g19636"
           transform="translate(230.9921,482.3377)">
          <path
             d="m 0,0 c -0.141,-0.075 -0.23,-0.216 -0.23,-0.366 0,-0.429 0.639,-0.374 0.711,0.061 0.023,0.138 -0.035,0.262 -0.15,0.314 C 0.207,0.069 0.121,0.066 0,0"
             style="fill:#000000;fill-opacity:1;fill-rule:evenodd;stroke:none"
             id="path19638"
             inkscape:connector-curvature="0" />
        </g>
        <g
           id="g19640"
           transform="translate(239.7868,481.3704)">
          <path
             d="m 0,0 c -0.003,-0.118 -0.026,-0.184 -0.115,-0.34 -0.104,-0.178 -0.115,-0.19 -0.141,-0.129 -0.015,0.037 -0.026,0.164 -0.029,0.285 -0.003,0.262 0.049,0.351 0.196,0.337 C -0.003,0.144 0,0.141 0,0 m -0.273,0.248 c -0.222,-0.07 -0.337,-0.176 -0.444,-0.406 -0.161,-0.354 -0.144,-1.132 0.032,-1.483 0.115,-0.23 0.325,-0.34 0.507,-0.262 0.273,0.112 0.831,0.901 1.301,1.831 0.115,0.23 0.121,0.259 0.046,0.259 -0.041,0 -0.107,-0.086 -0.233,-0.308 -0.616,-1.065 -0.732,-1.235 -0.815,-1.203 -0.058,0.023 -0.268,0.434 -0.297,0.575 -0.014,0.078 0,0.121 0.072,0.228 0.199,0.288 0.306,0.599 0.239,0.697 -0.057,0.089 -0.244,0.121 -0.408,0.072"
             style="fill:#000000;fill-opacity:1;fill-rule:evenodd;stroke:none"
             id="path19642"
             inkscape:connector-curvature="0" />
        </g>
        <g
           id="g19644"
           transform="translate(236.528,480.406)">
          <path
             d="m 0,0 c -0.109,-0.066 -0.173,-0.158 -0.199,-0.276 -0.026,-0.13 0.101,-0.271 0.242,-0.271 0.133,0 0.277,0.086 0.337,0.199 C 0.521,-0.072 0.265,0.164 0,0"
             style="fill:#000000;fill-opacity:1;fill-rule:evenodd;stroke:none"
             id="path19646"
             inkscape:connector-curvature="0" />
        </g>
        <g
           id="g19648"
           transform="translate(241.7042,483.6551)">
          <path
             d="M 0,0 V -0.327 H 0.288 V 0 H 0.524 V -0.885 H 0.288 v 0.35 H 0 v -0.35 H -0.238 V 0 Z"
             style="fill:#000000;fill-opacity:1;fill-rule:nonzero;stroke:none"
             id="path19650"
             inkscape:connector-curvature="0" />
        </g>
        <g
           id="g19652"
           transform="translate(242.6303,482.947)">
          <path
             d="M 0,0 C 0.012,-0.003 0.034,-0.003 0.05,-0.003 0.204,-0.005 0.317,0.08 0.317,0.28 0.317,0.452 0.214,0.533 0.072,0.533 0.034,0.533 0.012,0.531 0,0.528 Z m -0.238,0.696 c 0.076,0.012 0.178,0.019 0.283,0.019 0.169,0 0.276,-0.028 0.364,-0.088 0.097,-0.067 0.16,-0.178 0.16,-0.341 0,-0.18 -0.068,-0.297 -0.155,-0.364 -0.097,-0.076 -0.242,-0.11 -0.415,-0.11 -0.115,0 -0.191,0.008 -0.237,0.016 z"
             style="fill:#000000;fill-opacity:1;fill-rule:nonzero;stroke:none"
             id="path19654"
             inkscape:connector-curvature="0" />
        </g>
      </g>
    </g>
  </g>
</svg>
