<svg id="a" width="5.6411mm" height="2.5043mm" version="1.1" viewBox="0 0 5.6411 2.5043" xmlns="http://www.w3.org/2000/svg">
 <g id="b" transform="translate(-62.792 -99.223)">
  <g id="c" transform="matrix(.35278 0 0 -.35278 65.853 100.07)">
   <path id="d" d="m0 0c0.176-0.075 0.202-0.305 0.06-0.553-0.066-0.115-0.382-0.429-0.607-0.607l-0.121-0.095-0.017 0.089c-0.055 0.274 0.017 0.694 0.158 0.941 0.138 0.242 0.311 0.314 0.527 0.225m-1.235 1.952c-3e-3 -0.228-0.282-0.78-0.8-1.575-0.141-0.219-0.262-0.391-0.271-0.386-6e-3 6e-3 0.04 0.213 0.104 0.455 0.21 0.818 0.408 1.293 0.636 1.529 0.118 0.124 0.15 0.141 0.233 0.132 0.098-8e-3 0.098-8e-3 0.098-0.155m6.52 0.432c-1.404-0.081-1.891-0.101-2.749-0.118-0.993-0.018-1.598 8e-3 -2.024 0.08-0.1 0.017-0.19 0.023-0.198 0.015-0.035-0.035 0.262-0.308 0.437-0.406 0.314-0.179 0.781-0.251 1.837-0.291 0.279-0.012 0.51-0.032 0.51-0.043 0-0.012-0.116-0.662-0.26-1.443-0.244-1.358-0.489-2.726-0.489-2.757 0-0.015-5.098-6e-3 -5.113 8e-3 -8e-3 9e-3 0.291 1.799 0.334 1.995 0.023 0.113 0.049 0.156 0.104 0.182 0.118 0.051 0.181 0.037 0.4-0.095 0.351-0.213 0.481-0.219 0.639-0.023 0.072 0.083 0.089 0.054 0.023-0.035-0.023-0.029-0.069-0.138-0.103-0.242-0.167-0.504 0.06-1.042 0.495-1.169 0.253-0.074 0.478-0.046 0.869 0.113 0.343 0.138 0.97 0.567 0.97 0.662 0 0.075-0.066 0.049-0.23-0.087-0.276-0.227-0.685-0.417-0.898-0.417-0.144 3e-3 -0.331 0.098-0.398 0.207l-0.057 0.095 0.21 0.187c0.455 0.406 0.639 0.642 0.688 0.873 0.075 0.357-0.201 0.561-0.651 0.478-0.204-0.038-0.331-0.095-0.529-0.254-0.081-0.066-0.156-0.103-0.164-0.089-0.012 0.02-0.038 0.02-0.072 0-0.043-0.023-0.101-6e-3 -0.259 0.075-0.113 0.055-0.274 0.115-0.357 0.132-0.136 0.029-0.167 0.026-0.274-0.026-0.063-0.031-0.118-0.054-0.118-0.046 0 6e-3 0.089 0.144 0.196 0.305 0.57 0.853 0.898 1.512 0.898 1.803 0 0.175-0.075 0.244-0.256 0.239-0.443-9e-3 -0.91-0.484-1.261-1.279-0.294-0.668-0.472-1.252-0.714-2.346-0.017-0.075-0.25-0.222-0.426-0.27-0.302-0.084-0.334 0.094-0.179 1.016 0.11 0.63 0.095 0.771-0.077 0.771-0.19 0-0.351-0.167-0.815-0.849-0.141-0.204-0.305-0.435-0.368-0.51-0.11-0.132-0.13-0.241-0.038-0.207 0.023 9e-3 0.176 0.196 0.337 0.418 0.161 0.221 0.299 0.394 0.305 0.388 9e-3 -6e-3 -9e-3 -0.115-0.034-0.239-0.026-0.123-0.055-0.357-0.064-0.515-0.014-0.265-0.011-0.308 0.049-0.429 0.089-0.184 0.17-0.23 0.403-0.227 0.213 0 0.446 0.095 0.703 0.279 0.08 0.057 0.146 0.101 0.149 0.098 6e-3 -3e-3 -3e-3 -0.058-0.017-0.121s-0.046-0.279-0.075-0.478l-0.049-0.363-1.312-0.017c-0.72-9e-3 -1.316-0.014-1.319-0.012-9e-3 9e-3 0.337 2.626 0.452 3.418 0.049 0.339 0.121 0.765 0.158 0.947 0.041 0.181 0.064 0.337 0.058 0.345-0.023 0.023-0.161-0.121-0.233-0.245-0.274-0.463-0.518-1.554-0.832-3.696-0.058-0.389-0.11-0.731-0.115-0.763-0.012-0.054-0.046-0.063-0.498-0.095-0.648-0.049-1.184-0.129-1.322-0.198-0.221-0.116-0.314-0.389-0.175-0.522 0.158-0.143 0.316-0.152 1.214-0.048 0.349 0.037 0.64 0.063 0.648 0.057 6e-3 -9e-3 -0.029-0.296-0.078-0.639-0.097-0.662-0.097-0.671 0.044-0.671 0.144 0 0.305 0.349 0.454 0.979 0.044 0.181 0.081 0.346 0.087 0.36 0.011 0.046 1.779 0.184 2.378 0.187 0.325 0 0.337-3e-3 0.354-0.066 8e-3 -0.035 0.017-0.092 0.017-0.13 0-0.075 0.086-0.118 0.193-0.098 0.072 0.015 0.222 0.144 0.296 0.257l0.044 0.063 1.468 0.029c0.809 0.017 1.986 0.04 2.617 0.049l1.148 0.02-0.02-0.112c-0.066-0.392-0.083-0.674-0.049-0.786 0.035-0.121 0.087-0.15 0.144-0.078 0.02 0.023 0.055 0.181 0.078 0.354 0.043 0.337 0.092 0.616 0.109 0.633 6e-3 9e-3 1.086 0.015 2.401 0.018 1.316 2e-3 2.384 0.014 2.378 0.026-0.017 0.028-0.348 0.132-0.579 0.181-0.5 0.104-1.571 0.173-3.137 0.204-0.893 0.018-0.988 0.026-0.988 0.069 0 0.049 0.225 1.362 0.533 3.115 0.103 0.582 0.187 1.062 0.187 1.068 0 3e-3 0.406 9e-3 0.901 0.012 0.864 6e-3 1.471 0.04 1.612 0.092 0.098 0.037 0.245 0.201 0.265 0.294 0.057 0.264-0.228 0.385-0.821 0.354" fill-rule="evenodd"/>
  </g>
  <g id="e" transform="matrix(.35278 0 0 -.35278 64.438 99.644)">
   <path id="f" d="m0 0c-0.141-0.075-0.23-0.216-0.23-0.366 0-0.429 0.639-0.374 0.711 0.061 0.023 0.138-0.035 0.262-0.15 0.314-0.124 0.06-0.21 0.057-0.331-9e-3" fill-rule="evenodd"/>
  </g>
  <g id="g" transform="matrix(.35278 0 0 -.35278 67.54 99.986)">
   <path id="h" d="m0 0c-3e-3 -0.118-0.026-0.184-0.115-0.34-0.104-0.178-0.115-0.19-0.141-0.129-0.015 0.037-0.026 0.164-0.029 0.285-3e-3 0.262 0.049 0.351 0.196 0.337 0.086-9e-3 0.089-0.012 0.089-0.153m-0.273 0.248c-0.222-0.07-0.337-0.176-0.444-0.406-0.161-0.354-0.144-1.132 0.032-1.483 0.115-0.23 0.325-0.34 0.507-0.262 0.273 0.112 0.831 0.901 1.301 1.831 0.115 0.23 0.121 0.259 0.046 0.259-0.041 0-0.107-0.086-0.233-0.308-0.616-1.065-0.732-1.235-0.815-1.203-0.058 0.023-0.268 0.434-0.297 0.575-0.014 0.078 0 0.121 0.072 0.228 0.199 0.288 0.306 0.599 0.239 0.697-0.057 0.089-0.244 0.121-0.408 0.072" fill-rule="evenodd"/>
  </g>
  <g id="i" transform="matrix(.35278 0 0 -.35278 66.391 100.33)">
   <path id="j" d="m0 0c-0.109-0.066-0.173-0.158-0.199-0.276-0.026-0.13 0.101-0.271 0.242-0.271 0.133 0 0.277 0.086 0.337 0.199 0.141 0.276-0.115 0.512-0.38 0.348" fill-rule="evenodd"/>
  </g>
 </g>
</svg>
