<svg height="87.989" width="600" xmlns="http://www.w3.org/2000/svg"><g transform="translate(227.29678 -571.2569)"><path d="m372.7 659.25h-600v-87.989h600z" fill="#fff"/><path d="m225.35 656.84h-450.29v-83.225h450.29z"/><path d="m241.45 646.47v-62.581h12.989v25.366h26.14v-25.366h12.989v62.581h-12.989v-28.664h-26.14v28.664z" fill="#939598"/><path d="m309.51 646.47v-62.581h26.954c9.6906 0 17.101 2.5652 22.272 7.7362 5.171 5.1303 7.7362 12.541 7.7362 22.231 0 10.342-2.728 18.363-8.184 24.064-5.4967 5.7003-13.151 8.5505-22.964 8.5505h-25.814zm12.989-8.9169h9.7313c6.8404 0 11.93-1.9137 15.309-5.7003 3.3795-3.7866 5.0489-9.5277 5.0489-17.264 0-5.9854-1.3437-10.953-4.0717-14.943-1.8322-2.728-4.0716-4.601-6.7182-5.6596-2.6059-1.0179-6.4332-1.5472-11.441-1.5472h-7.8583v45.114" fill="#939598"/><g fill="#fff"><path d="m-159.81 626.74c.40717 0 .69218-.12215.89577-.40717.20358-.28501.36644-.85504.44788-1.7101h.93648v12.989h-.93648c-.0815-.81433-.2443-1.3029-.44788-1.4658-.20359-.16287-.4886-.28501-.89577-.28501h-39.373v-.89578c.97721-.0815 1.5472-.24429 1.7915-.4886.20359-.24429.32573-.5293.32573-.85504v-35.22c0-.32574-.12214-.65147-.32573-.85505-.2443-.2443-.81433-.40717-1.7915-.4886v-.89577h15.554v.89577c-.97719.0815-1.5472.2443-1.7915.4886-.20358.2443-.32573.52931-.32573.85505v28.339h25.936"/><path d="m-101.43 597.54c-.24431-.24431-.81434-.40717-1.7915-.4886v-.89577h15.554v.89577c-.9772.0815-1.5472.24429-1.7915.4886-.20358.20358-.32573.52931-.32573.85505v20.277c0 3.3388-.52932 6.1482-1.6287 8.3876-1.0586 2.2801-2.5651 4.1124-4.4381 5.456-1.873 1.3844-4.1124 2.3208-6.6368 2.8502-2.5244.52932-5.2524.77361-8.1026.77361s-5.5782-.24429-8.1026-.77361-4.7638-1.4658-6.6368-2.8502c-1.873-1.3436-3.3795-3.1759-4.4381-5.456-1.0993-2.2394-1.6287-5.0489-1.6287-8.3876v-20.277c0-.32574-.12215-.65147-.32574-.85505-.24429-.24431-.81433-.40717-1.7915-.4886v-.89577h15.554v.89577c-.97719.0815-1.5472.24429-1.7915.4886-.20358.2443-.32573.52931-.32573.85505v20.318c0 2.9316.81433 5.0081 2.4837 6.2704 1.6694 1.2622 3.9902 1.9137 7.0033 1.9137 3.013 0 5.3746-.65147 7.0032-1.9137 1.6694-1.2622 2.4837-3.3388 2.4837-6.2704v-20.318c0-.32574-.0815-.61075-.32573-.85505"/><path d="m-62.663 634.97c.44788 0 1.0179-.44789 1.7508-1.3029l15.065-17.956-14.007-17.671c-.36645-.40717-.69218-.65146-.9772-.81433-.2443-.12215-.52932-.16286-.77362-.16286v-.93649h17.63v.93649c-.61075.0407-1.0586.12215-1.3436.20358-.32573.12215-.44788.36644-.44788.77361 0 .0815.32573.57004.9772 1.3844.65146.81434 1.3844 1.7508 2.1987 2.728.85505.9772 1.6287 1.9137 2.3616 2.7687.7329.89577 1.1808 1.4658 1.3844 1.7101.32573-.36645.85505-.9772 1.5879-1.8322.77362-.89577 1.5065-1.8322 2.2801-2.7687.81433-.97721 1.5065-1.8322 2.1173-2.6059.65147-.77361.9772-1.2622.9772-1.3844 0-.40717-.20358-.69218-.57003-.81433-.40717-.12215-.7329-.16286-1.0179-.16286v-.93649h17.264v.93649c-.81433.0407-1.4251.32573-1.9137.89576l-13.844 17.223 15.309 19.422c.12215.20359.32573.32573.57003.32573.28502.0407.52932.0407.77362.0407v.89576h-17.63v-.89576c.93648 0 1.4251-.12215 1.4251-.36645 0-.20358-.2443-.65147-.7329-1.3844-.4886-.69218-1.0586-1.5472-1.7915-2.5244-.7329-.97719-1.5472-2.0358-2.4023-3.1352-.89576-1.1401-1.7508-2.2394-2.5651-3.298-.12215.2443-.44788.65147-.93648 1.2215-.44788.52932-.9772 1.1401-1.5879 1.7915-.57003.65147-1.1808 1.3436-1.8322 2.0766-.65147.73289-1.2622 1.4251-1.7915 2.0765-.57003.65147-1.0179 1.2215-1.3844 1.7101-.32573.44789-.52932.81433-.52932 1.0179 0 .40716.2443.61075.69218.69218.44788.0815.81433.12215 1.1401.12215v.89576h-17.427v-.89576"/><path d="m39.173 621.37c-.12215-.48859-.32573-.93648-.65146-1.2622-.32573-.32573-.85505-.4886-1.6287-.4886h-14.007v7.1254h24.186c.40717 0 .7329-.12215.93648-.40717.20358-.28501.32573-.89576.44788-1.873h.89577v12.866h-.89577c-.12215-.65147-.2443-1.0586-.44788-1.2215-.20358-.16287-.52932-.24431-.93648-.24431h-37.622v-.89576c.9772-.0815 1.5472-.24429 1.7915-.4886.20358-.20358.32573-.52932.32573-.85505v-35.057c0-.36645-.12215-.65146-.32573-.89576-.2443-.20359-.81433-.36645-1.7915-.4886v-.89577h37.622c.40717 0 .7329-.12215.93648-.40716.20358-.28502.32573-.89577.44788-1.7508h.89577v13.111h-.89577c-.12215-.85505-.2443-1.4251-.44788-1.7101-.20358-.2443-.52932-.40717-.93648-.40717h-24.186v6.2296h14.007c.77362 0 1.3029-.16286 1.6287-.48859.32573-.32574.52932-.73291.65146-1.2215h.89576v11.726h-.89576"/><path d="m84.523 626.2c1.1808 1.1808 1.7508 2.6059 1.7508 4.1938 0 1.6287-.57003 2.9723-1.7508 4.1124-1.1808 1.0994-2.5651 1.6694-4.1938 1.6694-1.5879 0-2.9723-.57003-4.1531-1.6694-1.1808-1.1401-1.7915-2.4837-1.7915-4.1124 0-1.5879.61075-3.013 1.7915-4.1938s2.5651-1.7915 4.1531-1.7915c1.6287 0 3.013.61075 4.1938 1.7915"/><path d="m144.6 602.38c.28501-.20358.44789-.61075.44789-1.3029h.89576v10.953h-.89576c0-.73289-.16288-1.1808-.44789-1.3844-.28502-.20358-.61075-.28501-.89577-.28501h-10.79v23.249c0 .57004.20359.89576.57003 1.0586.36646.16287.77362.2443 1.1808.28502v.93648h-13.64v-.93648c.40717-.0407.81434-.12215 1.1808-.28502.36645-.16287.57003-.48859.57003-1.0586v-23.249h-10.79c-.32573 0-.61075.0815-.89577.28501-.32573.20358-.44787.65147-.44787 1.3844h-.93649v-10.953h.93649c0 .69218.12214 1.0994.44787 1.3029.28502.20358.57004.28501.89577.28501h31.718c.28502 0 .61075-.0815.89577-.28501"/><path d="m179.82 602.67v.89577c-.28501 0-.69218.0407-1.1808.0815-.44789.0407-.69219.28501-.69219.69218 0 .0815.12215.61075.44788 1.5065.28502.89577.69218 1.9951 1.1808 3.298.44789 1.3436.97721 2.728 1.5472 4.2752.52931 1.5472 1.0586 3.013 1.5472 4.3974.52931 1.3844.9772 2.6059 1.3436 3.6645.36646 1.0586.61075 1.7508.69219 2.0766h.16286c.65147-1.5879 1.4251-3.4609 2.3616-5.6189.89577-2.1173 1.7508-4.1938 2.5244-6.1482.81434-1.9544 1.5065-3.6645 2.0766-5.0896.61075-1.4251.89576-2.1987.89576-2.3616 0-.40717-.2443-.65146-.69218-.69218-.44789-.0407-.81433-.0815-1.0586-.0815v-.89577h12.581v.89577c-.40716.0407-.7329.16287-1.0179.28501-.24431.12215-.44789.36646-.57004.77362-.12214.57003-.52931 1.6287-1.1401 3.2573-.65147 1.588-1.3844 3.4609-2.2801 5.5782-.85504 2.1173-1.7915 4.3567-2.728 6.6775-.9772 2.3616-1.873 4.5195-2.6873 6.5146-.85506 1.9544-1.5065 3.6238-2.0358 4.9674-.52931 1.3436-.81433 2.0358-.81433 2.158 0 .40716.20358.69218.52932.93647.36645.20359.7329.32574 1.0586.24431v.93648h-15.879v-.93648c.32574.0815.69218-.0407 1.0586-.24431.32574-.24429.48861-.52931.48861-.93647 0-.0815-.20359-.81434-.69219-2.2801s-1.0994-3.2573-1.8322-5.4153c-.69219-2.158-1.5065-4.5195-2.4023-7.0847-.85504-2.5244-1.7101-4.886-2.5244-7.0847-.81432-2.1987-1.5065-4.031-2.0765-5.5375-.57003-1.5065-.9772-2.3208-1.1401-2.443-.32573-.16286-.57003-.28501-.73289-.32572-.16288 0-.36646-.0407-.57004-.0407v-.89577h14.251"/></g></g></svg>