<svg height="1084" viewBox="0 0 334.72902 286.80916" width="1265.1176" xmlns="http://www.w3.org/2000/svg"><path d="m100.22441 56.620999v173.831751h15.72294v-173.831751z" stroke-width="1.776056"/><path d="m277.51362 125.22236v36.11349h6.63868v-26.50908l8.80595 26.50908h6.57024l8.80594-26.50908v26.50908h6.63868v-36.11349h-10.266l-8.41812 25.64218-8.50937-25.64218zm44.69131 0v7.61965h5.70334v28.49384h6.82118v-36.11349z" stroke-width="2.281333"/><path d="m100.22441 0v32.27926h15.72294v-32.27926z" stroke-width="2.281332"/><path d="m100.22441 254.5299v32.27926h15.72294v-32.27926z" stroke-width="2.281332"/><path d="m109.38123 33.866765c-60.327922 0-109.3996586 49.0788-109.38174861 109.405525-.01439999 60.32792 49.05263561 109.40553 109.38174861 109.40553 60.32912 0 109.38726-49.07761 109.36936-109.40553.0178-60.327921-49.0474-109.405525-109.36936-109.405525zm-.001 18.653179c50.03731 0 90.73717 40.710082 90.72237 90.752346.0148 50.04226-40.67912 90.75235-90.72237 90.75235-50.043263 0-90.744654-40.71009-90.732714-90.75235-.014906-50.041272 40.690388-90.752346 90.732664-90.752346z" stroke-width=".596833"/></svg>