<?xml version="1.0" encoding="UTF-8" standalone="no"?>
<svg
   xmlns:dc="http://purl.org/dc/elements/1.1/"
   xmlns:cc="http://creativecommons.org/ns#"
   xmlns:rdf="http://www.w3.org/1999/02/22-rdf-syntax-ns#"
   xmlns:svg="http://www.w3.org/2000/svg"
   xmlns="http://www.w3.org/2000/svg"
   xmlns:sodipodi="http://sodipodi.sourceforge.net/DTD/sodipodi-0.dtd"
   xmlns:inkscape="http://www.inkscape.org/namespaces/inkscape"
   height="510.34"
   width="600"
   version="1.1"
   viewBox="0 0 158.75 135.02625"
   id="svg10"
   sodipodi:docname="M1 - Dark.svg"
   inkscape:version="0.92.0 r15299">
  <metadata
     id="metadata16">
    <rdf:RDF>
      <cc:Work
         rdf:about="">
        <dc:format>image/svg+xml</dc:format>
        <dc:type
           rdf:resource="http://purl.org/dc/dcmitype/StillImage" />
      </cc:Work>
    </rdf:RDF>
  </metadata>
  <defs
     id="defs14" />
  <sodipodi:namedview
     pagecolor="#ffffff"
     bordercolor="#666666"
     borderopacity="1"
     objecttolerance="10"
     gridtolerance="10"
     guidetolerance="10"
     inkscape:pageopacity="0"
     inkscape:pageshadow="2"
     inkscape:window-width="1920"
     inkscape:window-height="1017"
     id="namedview12"
     showgrid="false"
     inkscape:zoom="0.46243681"
     inkscape:cx="300"
     inkscape:cy="255.17"
     inkscape:window-x="-8"
     inkscape:window-y="-8"
     inkscape:window-maximized="1"
     inkscape:current-layer="svg10" />
  <g
     transform="translate(-20.99 -106.27)"
     id="g8"
     style="fill:#000000;fill-opacity:1">
    <path
       style="color-rendering:auto;text-decoration-color:#000000;color:#000000;font-variant-numeric:normal;shape-rendering:auto;solid-color:#000000;text-decoration-line:none;font-variant-position:normal;mix-blend-mode:normal;block-progression:tb;font-feature-settings:normal;shape-padding:0;font-variant-alternates:normal;text-indent:0;font-variant-caps:normal;image-rendering:auto;white-space:normal;text-decoration-style:solid;font-variant-ligatures:normal;isolation:auto;text-transform:none;fill:#000000;fill-opacity:1"
       d="m69.339 106.27v135.02h7.402v-135.02z"
       id="path2" />
    <path
       style="color-rendering:auto;text-decoration-color:#000000;color:#000000;font-variant-numeric:normal;shape-rendering:auto;solid-color:#000000;text-decoration-line:none;font-variant-position:normal;mix-blend-mode:normal;block-progression:tb;font-feature-settings:normal;shape-padding:0;font-variant-alternates:normal;text-indent:0;font-variant-caps:normal;image-rendering:auto;white-space:normal;text-decoration-style:solid;font-variant-ligatures:normal;isolation:auto;text-transform:none;fill:#000000;fill-opacity:1"
       d="m73.066 121.61c-28.723 0-52.085 23.37-52.076 52.09-0.008 28.72 23.354 52.09 52.076 52.09 28.724 0 52.084-23.37 52.074-52.09 0.01-28.72-23.35-52.09-52.074-52.09zm0 7.4c24.722 0 44.684 19.97 44.674 44.69 0.01 24.72-19.952 44.69-44.674 44.69-24.721 0-44.681-19.97-44.674-44.69-0.007-24.72 19.953-44.69 44.674-44.69z"
       id="path4" />
    <path
       d="m152.8 165.22v17h3.13v-12.47l4.15 12.47h3.09l4.14-12.47v12.47h3.13v-17h-4.83l-3.97 12.07-4-12.07zm21.05 0v3.59h2.68v13.41h3.21v-17z"
       id="path6"
       style="fill:#000000;fill-opacity:1" />
  </g>
</svg>
