<svg height="1084" viewBox="0 0 362.1651 286.80916" width="1368.813" xmlns="http://www.w3.org/2000/svg"><g fill="#fff"><path d="m102.70281 56.620999v173.831751h15.72294v-173.831751z" stroke-width="1.776056"/><path d="m279.99202 125.22236v36.11349h6.63868v-26.50908l8.80595 26.50908h6.57024l8.80594-26.50908v26.50908h6.63868v-36.11349h-10.266l-8.41812 25.64218-8.50937-25.64218zm44.69131 0v7.61965h5.70334v28.49384h6.82118v-36.11349z" stroke-width="2.281333"/><path d="m279.9464 183.64729v53.65695h82.21923v-53.65695z" stroke-width="2.281333"/></g><g><path d="m285.83224 192.11103h8.92001v14.50928h12.86671v-14.50928h8.8972v36.43289h-8.8972v-15.21649h-12.86671v15.21649h-8.92001z" stroke-width="2.281333"/><path d="m323.46606 192.11826v36.42696h12.92902c10.87073 0 20.07557-5.05812 19.94277-18.29496-.11475-11.47434-6.4645-18.132-21.00512-18.132zm8.7642 6.80252h4.08634c8.26322 0 11.2329 5.82469 11.25706 11.48641.0301 8.01574-4.53903 11.48038-11.33553 11.48038h-4.00787z" stroke-width=".603595"/></g><path d="m102.70281 0v32.27926h15.72294v-32.27926z" fill="#fff" stroke-width="2.281332"/><path d="m102.70281 254.5299v32.27926h15.72294v-32.27926z" fill="#fff" stroke-width="2.281332"/><path d="m422.77734 128c-228.0104 0-413.4778436 185.49414-413.4101525 413.5-.054425 228.01038 185.3952525 413.5 413.4101525 413.5 228.01488 0 413.43094-185.48962 413.36328-413.5.06728-228.01038-185.37546-413.5-413.36328-413.5zm-.0039 70.5c189.11684 0 342.94265 153.86443 342.88672 343 .05608 189.13556-153.74743 343-342.88672 343-189.13933 0-342.970911-153.86444-342.925784-343-.056148-189.13182 153.790184-343 342.925784-343z" fill="#fff" stroke-width="2.255742" transform="matrix(.2645841 0 0 .2645841 -.000524 0)"/></svg>