<?xml version="1.0" encoding="UTF-8"?>
<svg id="svg16" width="1368.8" height="1084" version="1.1" viewBox="0 0 362.17 286.81" xmlns="http://www.w3.org/2000/svg" xmlns:cc="http://creativecommons.org/ns#" xmlns:dc="http://purl.org/dc/elements/1.1/" xmlns:rdf="http://www.w3.org/1999/02/22-rdf-syntax-ns#">
 <metadata id="metadata22">
  <rdf:RDF>
   <cc:Work rdf:about="">
    <dc:format>image/svg+xml</dc:format>
    <dc:type rdf:resource="http://purl.org/dc/dcmitype/StillImage"/>
    <dc:title/>
   </cc:Work>
  </rdf:RDF>
 </metadata>
 <path id="path2" d="m102.7 56.621v173.83h15.723v-173.83z" color="#000000" color-rendering="auto" image-rendering="auto" shape-rendering="auto" solid-color="#000000" stroke-width="1.7761" style="font-feature-settings:normal;font-variant-alternates:normal;font-variant-caps:normal;font-variant-ligatures:normal;font-variant-numeric:normal;font-variant-position:normal;isolation:auto;mix-blend-mode:normal;shape-padding:0;text-decoration-color:#000000;text-decoration-line:none;text-decoration-style:solid;text-indent:0;text-transform:none;white-space:normal"/>
 <path id="path6" d="m279.99 125.22v36.113h6.6387v-26.509l8.806 26.509h6.5702l8.8059-26.509v26.509h6.6387v-36.113h-10.266l-8.4181 25.642-8.5094-25.642zm44.691 0v7.6196h5.7033v28.494h6.8212v-36.113z" stroke-width="2.2813"/>
 <path id="path8" d="m279.95 183.65v53.657h82.219v-53.657z" stroke-width="2.2813"/>
 <g id="g4576" fill="#fff">
  <path id="path10" d="m285.83 192.11h8.92v14.509h12.867v-14.509h8.8972v36.433h-8.8972v-15.216h-12.867v15.216h-8.92z" stroke-width="2.2813"/>
  <path id="path12" d="m323.47 192.12v36.427h12.929c10.871 0 20.076-5.0581 19.943-18.295-0.11475-11.474-6.4645-18.132-21.005-18.132zm8.7642 6.8025h4.0863c8.2632 0 11.233 5.8247 11.257 11.486 0.0301 8.0157-4.539 11.48-11.336 11.48h-4.0079z" stroke-width=".6036"/>
 </g>
 <path id="path2-7-9" d="m102.7 0v32.279h15.723v-32.279z" color="#000000" color-rendering="auto" image-rendering="auto" shape-rendering="auto" solid-color="#000000" stroke-width="2.2813" style="font-feature-settings:normal;font-variant-alternates:normal;font-variant-caps:normal;font-variant-ligatures:normal;font-variant-numeric:normal;font-variant-position:normal;isolation:auto;mix-blend-mode:normal;shape-padding:0;text-decoration-color:#000000;text-decoration-line:none;text-decoration-style:solid;text-indent:0;text-transform:none;white-space:normal"/>
 <path id="path2-7-9-6" d="m102.7 254.53v32.279h15.723v-32.279z" color="#000000" color-rendering="auto" image-rendering="auto" shape-rendering="auto" solid-color="#000000" stroke-width="2.2813" style="font-feature-settings:normal;font-variant-alternates:normal;font-variant-caps:normal;font-variant-ligatures:normal;font-variant-numeric:normal;font-variant-position:normal;isolation:auto;mix-blend-mode:normal;shape-padding:0;text-decoration-color:#000000;text-decoration-line:none;text-decoration-style:solid;text-indent:0;text-transform:none;white-space:normal"/>
 <path id="path4-6" transform="matrix(.26458 0 0 .26458 -.00052351 0)" d="m422.78 128c-228.01 0-413.48 185.49-413.41 413.5-0.054425 228.01 185.4 413.5 413.41 413.5 228.01 0 413.43-185.49 413.36-413.5 0.06728-228.01-185.38-413.5-413.36-413.5zm-0.0039 70.5c189.12 0 342.94 153.86 342.89 343 0.05608 189.14-153.75 343-342.89 343-189.14 0-342.97-153.86-342.93-343-0.056148-189.13 153.79-343 342.93-343z" color="#000000" color-rendering="auto" image-rendering="auto" shape-rendering="auto" solid-color="#000000" stroke-width="2.2557" style="font-feature-settings:normal;font-variant-alternates:normal;font-variant-caps:normal;font-variant-ligatures:normal;font-variant-numeric:normal;font-variant-position:normal;isolation:auto;mix-blend-mode:normal;shape-padding:0;text-decoration-color:#000000;text-decoration-line:none;text-decoration-style:solid;text-indent:0;text-transform:none;white-space:normal"/>
</svg>
