<svg id="a" width="1265.1" height="1084" version="1.1" viewBox="0 0 334.73 286.81" xmlns="http://www.w3.org/2000/svg">
 <path id="b" d="m100.22 56.621v173.83h15.723v-173.83z" color="#000000" color-rendering="auto" fill="#fff" image-rendering="auto" shape-rendering="auto" solid-color="#000000" stroke-width="1.7761" style="font-feature-settings:normal;font-variant-alternates:normal;font-variant-caps:normal;font-variant-ligatures:normal;font-variant-numeric:normal;font-variant-position:normal;isolation:auto;mix-blend-mode:normal;shape-padding:0;text-decoration-color:#000000;text-decoration-line:none;text-decoration-style:solid;text-indent:0;text-transform:none;white-space:normal"/>
 <path id="c" d="m277.51 125.22v36.113h6.6387v-26.509l8.806 26.509h6.5702l8.8059-26.509v26.509h6.6387v-36.113h-10.266l-8.4181 25.642-8.5094-25.642zm44.691 0v7.6196h5.7033v28.494h6.8212v-36.113z" fill="#fff" stroke-width="2.2813"/>
 <path id="d" d="m100.22 0v32.279h15.723v-32.279z" color="#000000" color-rendering="auto" fill="#fff" image-rendering="auto" shape-rendering="auto" solid-color="#000000" stroke-width="2.2813" style="font-feature-settings:normal;font-variant-alternates:normal;font-variant-caps:normal;font-variant-ligatures:normal;font-variant-numeric:normal;font-variant-position:normal;isolation:auto;mix-blend-mode:normal;shape-padding:0;text-decoration-color:#000000;text-decoration-line:none;text-decoration-style:solid;text-indent:0;text-transform:none;white-space:normal"/>
 <path id="e" d="m100.22 254.53v32.279h15.723v-32.279z" color="#000000" color-rendering="auto" fill="#fff" image-rendering="auto" shape-rendering="auto" solid-color="#000000" stroke-width="2.2813" style="font-feature-settings:normal;font-variant-alternates:normal;font-variant-caps:normal;font-variant-ligatures:normal;font-variant-numeric:normal;font-variant-position:normal;isolation:auto;mix-blend-mode:normal;shape-padding:0;text-decoration-color:#000000;text-decoration-line:none;text-decoration-style:solid;text-indent:0;text-transform:none;white-space:normal"/>
 <path id="f" d="m109.38 33.867c-60.328 0-109.4 49.079-109.38 109.41-0.0144 60.328 49.053 109.41 109.38 109.41 60.329 0 109.39-49.078 109.37-109.41 0.0178-60.328-49.047-109.41-109.37-109.41zm-1e-3 18.653c50.037 0 90.737 40.71 90.722 90.752 0.0148 50.042-40.679 90.752-90.722 90.752s-90.745-40.71-90.733-90.752c-0.014906-50.041 40.69-90.752 90.733-90.752z" color="#000000" color-rendering="auto" fill="#fff" image-rendering="auto" shape-rendering="auto" solid-color="#000000" stroke-width=".59683" style="font-feature-settings:normal;font-variant-alternates:normal;font-variant-caps:normal;font-variant-ligatures:normal;font-variant-numeric:normal;font-variant-position:normal;isolation:auto;mix-blend-mode:normal;shape-padding:0;text-decoration-color:#000000;text-decoration-line:none;text-decoration-style:solid;text-indent:0;text-transform:none;white-space:normal"/>
</svg>
