<?xml version="1.0" encoding="UTF-8" standalone="no"?>
<svg
   xmlns:dc="http://purl.org/dc/elements/1.1/"
   xmlns:cc="http://creativecommons.org/ns#"
   xmlns:rdf="http://www.w3.org/1999/02/22-rdf-syntax-ns#"
   xmlns:svg="http://www.w3.org/2000/svg"
   xmlns="http://www.w3.org/2000/svg"
   xmlns:sodipodi="http://sodipodi.sourceforge.net/DTD/sodipodi-0.dtd"
   xmlns:inkscape="http://www.inkscape.org/namespaces/inkscape"
   height="493.44"
   width="600"
   version="1.1"
   viewBox="0 0 158.75 130.55645"
   id="svg12"
   sodipodi:docname="M2 - Dark.svg"
   inkscape:version="0.92.0 r15299">
  <metadata
     id="metadata18">
    <rdf:RDF>
      <cc:Work
         rdf:about="">
        <dc:format>image/svg+xml</dc:format>
        <dc:type
           rdf:resource="http://purl.org/dc/dcmitype/StillImage" />
      </cc:Work>
    </rdf:RDF>
  </metadata>
  <defs
     id="defs16" />
  <sodipodi:namedview
     pagecolor="#ffffff"
     bordercolor="#666666"
     borderopacity="1"
     objecttolerance="10"
     gridtolerance="10"
     guidetolerance="10"
     inkscape:pageopacity="0"
     inkscape:pageshadow="2"
     inkscape:window-width="1920"
     inkscape:window-height="1017"
     id="namedview14"
     showgrid="false"
     inkscape:zoom="0.47333333"
     inkscape:cx="300"
     inkscape:cy="246.72"
     inkscape:window-x="-8"
     inkscape:window-y="-8"
     inkscape:window-maximized="1"
     inkscape:current-layer="svg12" />
  <path
     style="stroke-width:1.03849995"
     inkscape:connector-curvature="0"
     id="path2"
     d="m 153.37,56.657 c -1.9109,0 -3.6557,0.92431 -4.5904,2.4406 -0.62314,0.97624 -0.87239,1.9629 -0.87239,3.5415 h 2.9287 c 0,-1.9629 1.0178,-3.2611 2.5652,-3.2611 1.3605,0 2.3887,1.1216 2.3887,2.5964 0,1.0697 -0.70623,2.1186 -1.9006,3.3026 -1.6305,1.5994 -3.4688,2.2329 -6.1275,5.0266 V 73.44 h 10.926 v -2.7937 h -7.0206 c 2.0563,-1.994 4.6216,-3.1987 6.1067,-5.4628 0.64391,-0.9347 0.97625,-2.0563 0.97625,-3.1676 0,-3.0326 -2.316,-5.3589 -5.3797,-5.3589 z m -25.912,0.35311 v 16.43 h 3.0222 v -12.057 l 4.0088,12.058 h 2.991 l 4.0088,-12.058 v 12.058 h 3.0222 v -16.431 h -4.6735 l -3.8323,11.663 -3.8738,-11.663 z" />
  <path
     inkscape:connector-curvature="0"
     id="path4"
     d="m 53.912,0 v 130.56 h 7.1577 V 0 Z"
     style="color:#000000;font-variant-ligatures:normal;font-variant-position:normal;font-variant-caps:normal;font-variant-numeric:normal;font-variant-alternates:normal;font-feature-settings:normal;text-indent:0;text-decoration:none;text-decoration-line:none;text-decoration-style:solid;text-decoration-color:#000000;text-transform:none;white-space:normal;shape-padding:0;isolation:auto;mix-blend-mode:normal;solid-color:#000000;fill:#cb1192;stroke-width:1.03849995;color-rendering:auto;image-rendering:auto;shape-rendering:auto;fill-opacity:1" />
  <path
     inkscape:connector-curvature="0"
     id="path6"
     d="m 39.596,0 v 130.56 h 7.1577 V 0 Z"
     style="color:#000000;font-variant-ligatures:normal;font-variant-position:normal;font-variant-caps:normal;font-variant-numeric:normal;font-variant-alternates:normal;font-feature-settings:normal;text-indent:0;text-decoration:none;text-decoration-line:none;text-decoration-style:solid;text-decoration-color:#000000;text-transform:none;white-space:normal;shape-padding:0;isolation:auto;mix-blend-mode:normal;solid-color:#000000;fill:#cb1192;stroke-width:1.03849995;color-rendering:auto;image-rendering:auto;shape-rendering:auto;fill-opacity:1" />
  <path
     inkscape:connector-curvature="0"
     id="path8"
     style="color:#000000;font-variant-ligatures:normal;font-variant-position:normal;font-variant-caps:normal;font-variant-numeric:normal;font-variant-alternates:normal;font-feature-settings:normal;text-indent:0;text-decoration:none;text-decoration-line:none;text-decoration-style:solid;text-decoration-color:#000000;text-transform:none;white-space:normal;shape-padding:0;isolation:auto;mix-blend-mode:normal;solid-color:#000000;stroke-width:1.03849995;color-rendering:auto;image-rendering:auto;shape-rendering:auto"
     d="m 50.357,14.829 c -27.778,0 -50.37,22.604 -50.357,50.375 -0.012997,27.782 22.579,50.376 50.357,50.376 27.775,0 50.37,-22.609 50.349,-50.38 0.02,-27.766 -22.578,-50.371 -50.353,-50.371 z m 0,7.1556 c 23.912,0 43.204,19.302 43.193,43.219 0.011,23.908 -19.282,43.226 -43.193,43.226 -23.91,0 -43.21,-19.318 -43.198,-43.226 -0.0122,-23.917 19.288,-43.219 43.198,-43.219 z" />
</svg>
