<?xml version="1.0" encoding="UTF-8" standalone="no"?>
<svg
   xmlns:dc="http://purl.org/dc/elements/1.1/"
   xmlns:cc="http://creativecommons.org/ns#"
   xmlns:rdf="http://www.w3.org/1999/02/22-rdf-syntax-ns#"
   xmlns:svg="http://www.w3.org/2000/svg"
   xmlns="http://www.w3.org/2000/svg"
   xmlns:sodipodi="http://sodipodi.sourceforge.net/DTD/sodipodi-0.dtd"
   xmlns:inkscape="http://www.inkscape.org/namespaces/inkscape"
   height="475.13"
   width="600"
   version="1.1"
   viewBox="0 0 158.75 125.71244"
   id="svg18"
   sodipodi:docname="M2 HD.svg"
   inkscape:version="0.92.0 r15299">
  <metadata
     id="metadata24">
    <rdf:RDF>
      <cc:Work
         rdf:about="">
        <dc:format>image/svg+xml</dc:format>
        <dc:type
           rdf:resource="http://purl.org/dc/dcmitype/StillImage" />
      </cc:Work>
    </rdf:RDF>
  </metadata>
  <defs
     id="defs22" />
  <sodipodi:namedview
     pagecolor="#ffffff"
     bordercolor="#666666"
     borderopacity="1"
     objecttolerance="10"
     gridtolerance="10"
     guidetolerance="10"
     inkscape:pageopacity="0"
     inkscape:pageshadow="2"
     inkscape:window-width="1920"
     inkscape:window-height="1017"
     id="namedview20"
     showgrid="false"
     inkscape:zoom="0.94666667"
     inkscape:cx="-28.980553"
     inkscape:cy="238.9283"
     inkscape:window-x="-8"
     inkscape:window-y="-8"
     inkscape:window-maximized="1"
     inkscape:current-layer="svg18" />
  <path
     style="fill:#ffffff"
     inkscape:connector-curvature="0"
     id="path2"
     d="m 147.68,54.555 c -1.84,0 -3.5201,0.89002 -4.4201,2.35 -0.60002,0.94002 -0.84002,1.89 -0.84002,3.4101 h 2.82 c 0,-1.89 0.98002,-3.1401 2.47,-3.1401 1.31,0 2.3,1.08 2.3,2.5 0,1.03 -0.68002,2.04 -1.83,3.1801 -1.57,1.54 -3.3401,2.15 -5.9001,4.8401 v 3.0201 h 10.52 v -2.6901 h -6.7601 c 1.98,-1.92 4.4501,-3.0801 5.8801,-5.2601 0.62001,-0.90002 0.94002,-1.98 0.94002,-3.0501 0,-2.9201 -2.23,-5.1601 -5.1801,-5.1601 z m -24.95,0.34001 v 15.82 h 2.91 v -11.61 l 3.8601,11.61 h 2.88 l 3.8601,-11.61 v 11.61 h 2.9101 v -15.82 h -4.5001 l -3.6901,11.23 -3.7301,-11.23 z" />
  <path
     inkscape:connector-curvature="0"
     id="path4"
     d="m 51.911,0 v 125.71 h 6.8921 V 0 Z"
     style="color:#000000;font-variant-ligatures:normal;font-variant-position:normal;font-variant-caps:normal;font-variant-numeric:normal;font-variant-alternates:normal;font-feature-settings:normal;text-indent:0;text-decoration:none;text-decoration-line:none;text-decoration-style:solid;text-decoration-color:#000000;text-transform:none;white-space:normal;shape-padding:0;isolation:auto;mix-blend-mode:normal;solid-color:#000000;fill:#cb1192;color-rendering:auto;image-rendering:auto;shape-rendering:auto;fill-opacity:1" />
  <path
     inkscape:connector-curvature="0"
     id="path6"
     d="m 38.127,0 v 125.71 h 6.892 V 0 Z"
     style="color:#000000;font-variant-ligatures:normal;font-variant-position:normal;font-variant-caps:normal;font-variant-numeric:normal;font-variant-alternates:normal;font-feature-settings:normal;text-indent:0;text-decoration:none;text-decoration-line:none;text-decoration-style:solid;text-decoration-color:#000000;text-transform:none;white-space:normal;shape-padding:0;isolation:auto;mix-blend-mode:normal;solid-color:#000000;fill:#cb1192;color-rendering:auto;image-rendering:auto;shape-rendering:auto;fill-opacity:1" />
  <path
     inkscape:connector-curvature="0"
     id="path8"
     d="M 48.488,14.279 C 21.74,14.279 -0.013,36.044 -0.001,62.785 -0.012532,89.536 21.741,111.3 48.488,111.3 75.233,111.3 96.989,89.53 96.969,62.789 96.989,36.048 75.233,14.283 48.488,14.283 Z m 0,6.8901 c 23.024,0 41.601,18.585 41.591,41.616 0.01,23.02 -18.566,41.621 -41.591,41.621 -23.022,0 -41.607,-18.6 -41.595,-41.621 -0.0114,-23.03 18.573,-41.616 41.595,-41.616 z"
     style="color:#000000;font-variant-ligatures:normal;font-variant-position:normal;font-variant-caps:normal;font-variant-numeric:normal;font-variant-alternates:normal;font-feature-settings:normal;text-indent:0;text-decoration:none;text-decoration-line:none;text-decoration-style:solid;text-decoration-color:#000000;text-transform:none;white-space:normal;shape-padding:0;isolation:auto;mix-blend-mode:normal;solid-color:#000000;fill:#ffffff;color-rendering:auto;image-rendering:auto;shape-rendering:auto" />
  <path
     style="fill:#cb1192;fill-opacity:1"
     inkscape:connector-curvature="0"
     id="path10"
     d="m 122.71,80.506 v 23.52 h 36.041 V 80.502 Z" />
  <path
     style="fill:#ffffff"
     inkscape:connector-curvature="0"
     id="path12"
     d="m 125.29,84.216 h 3.9101 v 6.3501 h 5.6401 V 84.216 h 3.9001 v 15.96 h -3.9001 v -6.6701 h -5.6401 v 6.6701 H 125.29 Z" />
  <path
     style="fill:#ffffff"
     inkscape:connector-curvature="0"
     id="path14"
     d="m 141.79,84.216 v 15.96 h 5.6601 c 4.7701,0 8.8002,-2.21 8.7502,-8.0102 -0.05,-5.0401 -2.8401,-7.9502 -9.2102,-7.9502 z m 3.8401,2.9801 h 1.79 c 3.6201,0 4.9201,2.55 4.9301,5.0301 0.02,3.5201 -1.98,5.0401 -4.9601,5.0401 h -1.76 z" />
</svg>
