<svg height="370.08975pt" viewBox="0 0 447.60062 370.08975" width="447.60062pt" xmlns="http://www.w3.org/2000/svg"><path d="m361.47008 162.2791v46.16719h8.49217v-33.87936l11.26446 33.88217h8.40452l11.26446-33.88217v33.88217h8.49218v-46.17h-13.13223l-10.7685 32.77224-10.88512-32.77224z" stroke-width="2.918115"/><path d="m420.52143 165.57337c3.30071-3.44861 8.33581-4.53764 12.95411-4.18135 4.01329.28906 8.22153 1.92261 10.5811 5.3376 3.79145 5.32417 2.45369 13.67342-3.0587 17.33714 3.7175 1.55961 6.55437 5.23005 6.51403 9.3509.56469 5.0956-1.58649 10.45337-5.92246 13.31712-4.08723 2.90409-9.35761 3.0856-14.13054 2.34613-3.43516-.78652-6.94426-2.43352-8.83327-5.53928-1.88228-2.71586-2.36629-6.07052-2.43351-9.29728h8.57109c0 .73028.4504 4.31596 1.97639 5.89573 2.78309 3.45533 8.91394 2.48058 10.78278-1.4386 1.18987-2.66208 1.32431-6.27202-.96131-8.39631-2.26546-1.96967-5.45188-1.98983-8.28875-1.97639v-7.59634c1.17426 0 4.40991.0672 6.28547-1.16298 3.90573-2.23857 3.38138-9.13578-.89409-10.66177-2.17806-.49074-4.88048-.49746-6.49386 1.29743-1.51927 1.48565-1.94951 4.74159-1.94951 5.88868h-8.30219c.0538-3.75112.91425-7.73735 3.60322-10.52043z" stroke-width=".672243"/><g fill="#55c2ed" stroke-width="2.943769"><path d="m95.834946-.00031674v370.09006674h20.289474v-370.09006674z"/><path d="m167.54188-.00031674v370.09006674h20.28947v-370.09006674z"/><path d="m131.18028-.00031674v370.09006674h20.28947v-370.09006674z"/></g><path d="m142.46568 42.694924c-78.58711 0-142.50244193 63.949286-142.46566372 142.516596-.0367283 78.59842 63.87855372 142.5194 142.46566372 142.5194 78.57862 0 142.50244-63.96342 142.44302-142.53072.0566-78.55316-63.87572-142.505276-142.45433-142.505276zm0 20.24401c67.64976 0 122.22901 54.607546 122.19788 122.271446.0311 67.63843-54.55096 122.29124-122.19788 122.29124-67.644102 0-122.245985-54.65281-122.212041-122.29124-.034532-67.6639 54.567939-122.271446 122.212041-122.271446z" stroke-width="2.938034"/></svg>