<?xml version="1.0" encoding="UTF-8"?>
<!-- Created with Inkscape (http://www.inkscape.org/) -->
<svg id="svg2985" width="1417.9" height="976.28" version="1.1" viewBox="0 0 1417.9 976.28" xmlns="http://www.w3.org/2000/svg" xmlns:cc="http://creativecommons.org/ns#" xmlns:dc="http://purl.org/dc/elements/1.1/" xmlns:rdf="http://www.w3.org/1999/02/22-rdf-syntax-ns#">
 <metadata id="metadata2991">
  <rdf:RDF>
   <cc:Work rdf:about="">
    <dc:format>image/svg+xml</dc:format>
    <dc:type rdf:resource="http://purl.org/dc/dcmitype/StillImage"/>
    <dc:title/>
   </cc:Work>
  </rdf:RDF>
 </metadata>
 <flowRoot id="flowRoot3161" transform="translate(0 -73.719)" fill="#000000" font-family="Andalus" font-size="40px" font-weight="bold" letter-spacing="0px" stroke-width="1px" word-spacing="0px" style="line-height:125%" xml:space="preserve"><flowRegion id="flowRegion3163"><rect id="rect3165" x="766.84" y="-445.74" width="368.52" height="119.23"/></flowRegion><flowPara id="flowPara3167"/></flowRoot>
 <flowRoot id="flowRoot3169" transform="translate(0 -73.719)" fill="#000000" font-family="Andalus" font-size="40px" font-weight="bold" letter-spacing="0px" stroke-width="1px" word-spacing="0px" style="line-height:125%" xml:space="preserve"><flowRegion id="flowRegion3171"><rect id="rect3173" x="677.42" y="-462" width="604.26" height="241.16"/></flowRegion><flowPara id="flowPara3175"/></flowRoot>
 <path id="rect3002" d="m394.91 94.858-221.66 384.13 47.625 27.469 234.84-406.94c-19.792-3.0535-40.071-4.6563-60.719-4.6563h-0.0937z" color="#000000" fill="#c00"/>
 <path id="rect3010" d="m565.59 462.14-240.41 416.56c19.553 3.4879 39.595 5.5342 60.031 6.0312l228-395.09z" color="#000000" fill="#c00"/>
 <path id="path2995" d="m395 94.858c-218.15 1e-4 -395 176.85-395 395 0 218.15 176.85 395 395 395s395-176.85 395-395-176.85-395-395-395zm0 53.344c188.69 0 341.66 152.97 341.66 341.66s-152.97 341.66-341.66 341.66-341.66-152.97-341.66-341.66c0-188.69 152.97-341.66 341.66-341.66z" color="#000000" fill="#fff"/>
 <path id="rect3014" d="m575.99 0-422.28 731.72c13.205 13.173 27.48 25.274 42.688 36.156l427.22-740.38z" color="#000000" fill="#c00"/>
 <path id="rect3012" d="m585.11 205.94-428.69 742.84 47.625 27.5 424.56-735.72c-13.518-12.675-28.058-24.264-43.5-34.625z" color="#000000" fill="#c00"/>
 <path id="rect2996" d="m989.95 356.25v128.02h26.995v-90.101l36.302 90.101h12.211l36.488-90.101v90.101h27.015v-128.02h-38.147l-31.496 77.516-31.374-77.516z" color="#000000" fill="#fff"/>
 <path id="rect4410" d="m1198 356.27-51.312 80.094v21.5h61.812v26.375h27v-26.375h16.531v-23.906h-16.531v-77.688zm10.5 23.375v54.312h-35.094z" color="#000000" fill="#fff"/>
 <path id="path4431" d="m1198 521.75c-26.263 1e-5 -47.563 21.3-47.563 47.562 0 26.263 21.3 47.531 47.563 47.531 26.263 0 47.562-21.268 47.562-47.531s-21.3-47.562-47.562-47.562zm0 19.531c15.474 0 28 12.557 28 28.031s-12.526 28-28 28c-15.475 0-28.031-12.525-28.031-28s12.557-28.031 28.031-28.031z" color="#000000" fill="#fff"/>
 <path id="rect4438" d="m1339.4 523.56v17.094h29.25v74.375h20.062v-74.375h29.219v-17.094z" color="#000000" fill="#fff"/>
 <path id="rect4443" d="m1072.9 523.53v91.531h20.469v-33.25l24.52-0.125c12.209-0.54885 27.761-6.5442 27.761-29.25 0-22.706-15.928-28.617-27.636-28.891-0.4373 1e-3 -45.114-0.0157-45.114-0.0157zm30.187 15.219c5.1382 9e-3 10.844 0.0692 13.063 0.3125 4.4362 0.48659 10.813 4.9955 10.5 13.688-0.3132 8.692-5.761 12.336-10.188 13.094-4.4263 0.75735-23.094 0.4375-23.094 0.4375v-27.469s4.5808-0.0716 9.7187-0.0625z" color="#000000" fill="#fff"/>
 <path id="path3026" d="m1255.9 523.53v91.531h20.469v-33.25l9.4687-0.0625 23.469 33.312h22.719l-23.969-34.375c10.376-2.4433 21.344-10.216 21.344-28.25 0-21.206-16.667-28.601-28.375-28.875-0.4374 1e-3 -45.125-0.0312-45.125-0.0312zm30.187 15.219c5.1383 9e-3 10.844 0.0692 13.063 0.3125 4.4362 0.4866 10.813 4.9955 10.5 13.688-0.3133 8.692-5.7609 12.336-10.188 13.094-4.4263 0.75735-23.094 0.4375-23.094 0.4375v-27.469s4.5809-0.0716 9.7187-0.0625z" color="#000000" fill="#fff"/>
 <path id="path3804" d="m985.92 585.03 18.142 0.0198c0.8533 6.7087 2.9755 10.078 5.7774 12.486s9.8351 4.4322 15.698 4.5571c7.099 0.0646 17.757-3.1584 17.663-10.561-0.1075-2.9717-1.0252-6.6765-4.4243-9.1405s-8.1992-4.0644-18.968-6.536c-10.828-2.501-18.614-4.1164-23.954-9.5805s-7.2744-10.924-7.2744-18.551 5.1556-15.336 10.967-19.309c5.8112-3.9722 12.927-7.057 23.494-6.8334 12.416 0.26279 21.138 2.8058 27.251 8.6254 7.594 7.23 8.3584 12.543 8.4465 20.636l-18.6-0.0226c-0.7101-7.4199-5.0543-13.857-16.612-14.014s-14.883 4.7083-16.008 10.042c-0.3125 5.0209 2.4352 7.2318 5.7168 8.614 3.2815 1.3822 5.0329 1.9507 10.841 3.4362 7.9445 1.7949 13.93 3.0528 18.197 4.7006s10.864 4.3697 14.06 7.9667 5.9466 7.8742 6.0091 15.711c0.062 9.6934-3.138 15.909-10.122 22.045s-17.528 7.7087-26.09 7.7087c-12.034 0-26.954-2.2806-34.258-12.478-4.6869-6.5434-5.7464-11.285-5.9524-19.523z" fill="#fff"/>
</svg>
