<svg height="661.21161" viewBox="0 0 204.9995 174.94601" width="774.80127" xmlns="http://www.w3.org/2000/svg" xmlns:xlink="http://www.w3.org/1999/xlink"><linearGradient id="a"><stop offset="0" stop-color="#fec910"/><stop offset="1" stop-color="#faab18"/></linearGradient><linearGradient id="b" gradientUnits="userSpaceOnUse" x1="39.394366" x2="107.945685" xlink:href="#a" y1="76.562559" y2="133.174266"/><linearGradient id="c" gradientUnits="userSpaceOnUse" x1="-.000198" x2="56.686802" xlink:href="#a" y1="28.343" y2="28.343"/><g fill-rule="evenodd"><path d="m158.7518 97.606c0 42.71-34.64 77.34-77.349998 77.34-42.733 0-77.3659999-34.63-77.3659999-77.34 0-42.72 34.6329999-77.351 77.3659999-77.351 42.709998 0 77.349998 34.631 77.349998 77.351" fill="#085ba6"/><path d="m56.686802 28.344c0 15.662-12.683 28.342-28.343 28.342-15.661 0-28.34399985-12.68-28.34399985-28.342 0-15.661 12.68299985-28.344 28.34399985-28.344 15.66 0 28.343 12.683 28.343 28.344" fill="url(#c)"/><path d="m128.78194 97.393816c0 27.410004-22.22 49.610004-49.609995 49.610004-27.406 0-49.606-22.2-49.606-49.610004 0-27.4 22.2-49.6 49.606-49.6 27.389995 0 49.609995 22.2 49.609995 49.6" fill="url(#b)"/><path d="m124.4218 112.896c-10.89-13.02-20.82-13.71-26.889998-12.16-6.87 1.72-11.05 6.04-15.24 10.16-.67.08-6.41-14.62-13.77-30.01-1.68-3.54-4.04-5.73-6.555-6.04-3.582-.44-6.331 3.12-8.622 6.83-5.227 8.48-12.85 21.24-16.515 27.01-.437.71-.771-.31-.854-.81-4.977-29.95 19.576-55.48 49.686-52.06 28.309998 3.37 46.339998 31.32 38.759998 57.08m5.81 6.81c14.93-36.09-11.37-70.37-43.049998-73.79-31.609-3.58-59.328 20.41-59.349 53.07 0 10.33 3.041 16.18 6.102 17.91 4.561 2.56 8.289-3.4 10.58-6.42 5.373-7.08 11.787-16.76 14.161-20.12.667-.95 1.375-.7 1.854.03 1.957 2.89 10.182 21.63 16.032 31.73 1.42 2.44 3.84 4.11 6.69 1.65 2.87-2.48 8.97-9.52 14.93-11.39 7.789998-2.46 15.949998 3.89 21.079998 10.43-7.83 12.95-21.639998 20.95-37.969998 21.41-37.902 1.08-48.898-28.95-74.3259999-35.03-2.103-.5-3.832 2.13-.167 3.35 11.2879999 3.79 19.7639999 12.6 29.2399999 20.93 11.37 10 25.574 18.54 45.043 18.64 17.5.09 33.719998-8.22 44.109998-23.09 9.06 8.22 23.7 4.06 29.22-4.52.37-.58.17-1.36-.81-.73-13.06 8.52-22.39-2.81-23.37-4.06" fill="#fff"/></g><path d="m28.438802 18.137v3.041l-1.457.146v14.953l1.457.145v3.041h-6.914v-3.041l1.458-.145v-6.227h-9.351v6.227l1.458.145v3.041h-6.9559999v-3.041l1.479-.145v-14.953l-1.479-.146v-3.041h6.9559999v3.041l-1.458.146v5.31h9.351v-5.31l-1.458-.146v-3.041z" fill="#fff"/><path d="m45.236802 27.409c0-4.644-1.874-6.019-5.935-6.019h-2.686v14.828h2.686c4.061 0 5.935-1.458 5.935-6.102zm-5.893 12.225c-2.604 0-5.54-.084-8.143-.188v-3.02l1.499-.229v-14.807l-1.499-.25v-2.998c2.603-.125 5.373-.188 8.143-.188 6.935 0 9.892 3.228 9.892 9.455v2.707c0 6.29-2.791 9.518-9.892 9.518" fill="#fff"/><path d="m166.17895 10.07256 12.45771-.00012v13.042667h13.01515v12.454498h-13.01515l-.0274 12.983136h-12.4303v-12.983136h-13.01354v-12.454498h13.01356l.00003-13.042784z" fill="#fbbc13" stroke-width=".161538"/><path d="m191.65176 10.072338 13.34805.000102v38.480277l-13.348.000024v-25.437634h-13.01515l13.0152-13.042565z" fill="#085ba6" stroke-width=".161538"/></svg>