<?xml version="1.0" encoding="UTF-8" standalone="no"?>
<svg
   xmlns:dc="http://purl.org/dc/elements/1.1/"
   xmlns:cc="http://creativecommons.org/ns#"
   xmlns:rdf="http://www.w3.org/1999/02/22-rdf-syntax-ns#"
   xmlns:svg="http://www.w3.org/2000/svg"
   xmlns="http://www.w3.org/2000/svg"
   xmlns:xlink="http://www.w3.org/1999/xlink"
   xmlns:sodipodi="http://sodipodi.sourceforge.net/DTD/sodipodi-0.dtd"
   xmlns:inkscape="http://www.inkscape.org/namespaces/inkscape"
   height="661.21161"
   width="774.80127"
   version="1.1"
   viewBox="0 0 204.9995 174.94601"
   id="svg20"
   sodipodi:docname="Markiza Plus 1 HD.svg"
   inkscape:version="0.92.1 r15371">
  <metadata
     id="metadata26">
    <rdf:RDF>
      <cc:Work
         rdf:about="">
        <dc:format>image/svg+xml</dc:format>
        <dc:type
           rdf:resource="http://purl.org/dc/dcmitype/StillImage" />
        <dc:title />
      </cc:Work>
    </rdf:RDF>
  </metadata>
  <defs
     id="defs24">
    <linearGradient
       inkscape:collect="always"
       id="linearGradient4521">
      <stop
         style="stop-color:#fec910;stop-opacity:1"
         offset="0"
         id="stop4517" />
      <stop
         style="stop-color:#faab18;stop-opacity:1"
         offset="1"
         id="stop4519" />
    </linearGradient>
    <linearGradient
       inkscape:collect="always"
       xlink:href="#linearGradient4521"
       id="linearGradient4523"
       x1="39.394421"
       y1="76.564743"
       x2="107.94574"
       y2="133.17645"
       gradientUnits="userSpaceOnUse"
       gradientTransform="translate(-5.4915266e-5,-0.0021842)" />
    <linearGradient
       inkscape:collect="always"
       xlink:href="#linearGradient4521"
       id="linearGradient4531"
       x1="0"
       y1="28.343"
       x2="56.687"
       y2="28.343"
       gradientUnits="userSpaceOnUse"
       gradientTransform="translate(-1.9785464e-4)" />
  </defs>
  <sodipodi:namedview
     pagecolor="#ffffff"
     bordercolor="#666666"
     borderopacity="1"
     objecttolerance="10"
     gridtolerance="10"
     guidetolerance="10"
     inkscape:pageopacity="0"
     inkscape:pageshadow="2"
     inkscape:window-width="1920"
     inkscape:window-height="1017"
     id="namedview22"
     showgrid="false"
     fit-margin-top="0"
     fit-margin-left="0"
     fit-margin-right="0"
     fit-margin-bottom="0"
     inkscape:zoom="1.009511"
     inkscape:cx="194.65105"
     inkscape:cy="330.1235"
     inkscape:window-x="-8"
     inkscape:window-y="-8"
     inkscape:window-maximized="1"
     inkscape:current-layer="svg20" />
  <path
     d="m 158.7518,97.606 c 0,42.71 -34.64,77.34 -77.349998,77.34 -42.733,0 -77.3659999,-34.63 -77.3659999,-77.34 0,-42.72 34.6329999,-77.351 77.3659999,-77.351 42.709998,0 77.349998,34.631 77.349998,77.351"
     id="path2"
     inkscape:connector-curvature="0"
     style="fill:#085ba6;fill-opacity:1;fill-rule:evenodd" />
  <path
     d="m 56.686802,28.344 c 0,15.662 -12.683,28.342 -28.343,28.342 -15.661,0 -28.34399985464,-12.68 -28.34399985464,-28.342 C -1.9785464e-4,12.683 12.682802,0 28.343802,0 c 15.66,0 28.343,12.683 28.343,28.344"
     id="path4"
     inkscape:connector-curvature="0"
     style="fill:url(#linearGradient4531);fill-opacity:1;fill-rule:evenodd" />
  <path
     d="m 128.78194,97.393816 c 0,27.410004 -22.22,49.610004 -49.609995,49.610004 -27.406,0 -49.606,-22.2 -49.606,-49.610004 0,-27.4 22.2,-49.6 49.606,-49.6 27.389995,0 49.609995,22.2 49.609995,49.6"
     id="path6"
     inkscape:connector-curvature="0"
     style="fill:url(#linearGradient4523);fill-opacity:1;fill-rule:evenodd" />
  <path
     d="m 124.4218,112.896 c -10.89,-13.02 -20.82,-13.71 -26.889998,-12.16 -6.87,1.72 -11.05,6.04 -15.24,10.16 -0.67,0.08 -6.41,-14.62 -13.77,-30.01 -1.68,-3.54 -4.04,-5.73 -6.555,-6.04 -3.582,-0.44 -6.331,3.12 -8.622,6.83 -5.227,8.48 -12.85,21.24 -16.515,27.01 -0.437,0.71 -0.771,-0.31 -0.854,-0.81 -4.977,-29.95 19.576,-55.48 49.686,-52.06 28.309998,3.37 46.339998,31.32 38.759998,57.08 m 5.81,6.81 c 14.93,-36.09 -11.37,-70.37 -43.049998,-73.79 -31.609,-3.58 -59.328,20.41 -59.349,53.07 0,10.33 3.041,16.18 6.102,17.91 4.561,2.56 8.289,-3.4 10.58,-6.42 5.373,-7.08 11.787,-16.76 14.161,-20.12 0.667,-0.95 1.375,-0.7 1.854,0.03 1.957,2.89 10.182,21.63 16.032,31.73 1.42,2.44 3.84,4.11 6.69,1.65 2.87,-2.48 8.97,-9.52 14.93,-11.39 7.789998,-2.46 15.949998,3.89 21.079998,10.43 -7.83,12.95 -21.639998,20.95 -37.969998,21.41 -37.902,1.08 -48.898,-28.95 -74.3259999,-35.03 -2.103,-0.5 -3.832,2.13 -0.167,3.35 11.2879999,3.79 19.7639999,12.6 29.2399999,20.93 11.37,10 25.574,18.54 45.043,18.64 17.5,0.09 33.719998,-8.22 44.109998,-23.09 9.06,8.22 23.7,4.06 29.22,-4.52 0.37,-0.58 0.17,-1.36 -0.81,-0.73 -13.06,8.52 -22.39,-2.81 -23.37,-4.06"
     id="path10"
     inkscape:connector-curvature="0"
     style="fill:#ffffff;fill-rule:evenodd" />
  <path
     style="fill:#ffffff"
     d="m 28.438802,18.137 v 3.041 l -1.457,0.146 v 14.953 l 1.457,0.145 v 3.041 h -6.914 v -3.041 l 1.458,-0.145 V 30.05 h -9.351 v 6.227 l 1.458,0.145 v 3.041 H 8.1338021 v -3.041 l 1.479,-0.145 V 21.324 l -1.479,-0.146 v -3.041 h 6.9559999 v 3.041 l -1.458,0.146 v 5.31 h 9.351 v -5.31 l -1.458,-0.146 v -3.041 z"
     id="path12"
     inkscape:connector-curvature="0" />
  <path
     style="fill:#ffffff"
     d="m 45.236802,27.409 c 0,-4.644 -1.874,-6.019 -5.935,-6.019 h -2.686 v 14.828 h 2.686 c 4.061,0 5.935,-1.458 5.935,-6.102 z m -5.893,12.225 c -2.604,0 -5.54,-0.084 -8.143,-0.188 v -3.02 l 1.499,-0.229 V 21.39 l -1.499,-0.25 v -2.998 c 2.603,-0.125 5.373,-0.188 8.143,-0.188 6.935,0 9.892,3.228 9.892,9.455 v 2.707 c 0,6.29 -2.791,9.518 -9.892,9.518"
     id="path14"
     inkscape:connector-curvature="0" />
  <path
     sodipodi:nodetypes="cccccccccccccc"
     style="opacity:1;fill:#fbbc13;fill-opacity:1;stroke-width:0.16153842"
     inkscape:connector-curvature="0"
     id="path4-1"
     d="m 166.17895,10.07256 12.45771,-1.2e-4 v 13.042667 h 13.01515 v 12.454498 h -13.01515 l -0.0274,12.983136 h -12.4303 V 35.569605 H 153.16542 V 23.115107 h 13.01356 l 3e-5,-13.042784 z" />
  <path
     sodipodi:nodetypes="cccccccc"
     style="opacity:1;fill:#085ba6;fill-opacity:1;stroke-width:0.16153842"
     inkscape:connector-curvature="0"
     id="path13"
     d="m 191.65176,10.072338 13.34805,1.02e-4 v 38.480277 l -13.348,2.4e-5 V 23.115107 h -13.01515 l 13.0152,-13.042565 z" />
</svg>
