<svg height="418.01" viewBox="0 0 158.75 110.59787" width="600" xmlns="http://www.w3.org/2000/svg"><g transform="translate(-37.798 -155.52)"><g fill="#2755ac"><path d="m43.082 265.8v-2.4174l-.88076-.0937v-8.9013l.88076-.0937v-2.4174h-5.284v2.4174l.88076.0937v8.9013l-.88076.0937v2.4174z"/><path d="m53.071 251.88v2.4174l.88076.0937v3.9166c0 .7121.03747 1.7053.0937 2.4549h-.03747c-.28109-.59966-.67462-1.3118-1.0119-1.8927l-4.1227-6.9899h-4.4225v2.4174l.86202.0937v8.9013l-.86202.0937v2.4174h4.9285v-2.4174l-.88076-.0937v-4.0852c0-.74958-.03747-1.5929-.11244-2.3237h.05622c.29984.59967.67462 1.2556.9932 1.799l4.0852 7.121h3.6355v-11.412l.88076-.0937v-2.4174z"/><path d="m70.898 255.46v-3.5793h-11.581v3.5793h2.0426l.18739-.95572h1.8177v8.8076l-.8995.0937v2.3987h5.2846v-2.3987l-.88076-.0937v-8.8076h1.8177l.1874.95572z"/><path d="m82.505 265.8v-3.5043h-2.1176l-.16865.8995h-3.6917v-3.2794h5.5844v-2.4924h-5.5844v-2.9421h3.6917l.16865.86202h2.1176v-3.4668h-10.344v2.4174l.86202.0937v8.9013l-.86202.0937v2.4174z"/><path d="m89.035 265.8v-2.4174l-.88076-.0937v-2.4174h1.293c.28109 0 .65588 0 .91824-.0187l2.8484 4.9472h3.3544v-2.4174l-1.0119-.0937-1.9114-3.1108c1.3867-.67463 2.2113-1.799 2.2113-3.8416v-.11244c0-3.8416-2.9609-4.5162-6.4464-4.5162-1.9864 0-3.8791.075-5.5094.16866v2.4174l.88076.0937v8.9013l-.88076.0937v2.4174zm3.4293-9.4073c0 1.4992-.84328 1.9864-2.9046 1.9864-.48723 0-.93698 0-1.4055-.0187v-3.9728h1.3492c2.0614 0 2.9609.33731 2.9609 1.8927z"/><path d="m106.42 251.88v2.4174l.88076.0937v3.9166c0 .7121.0375 1.7053.0937 2.4549h-.0375c-.28109-.59966-.67462-1.3118-1.0119-1.8927l-4.1227-6.9899h-4.4225v2.4174l.86202.0937v8.9013l-.86202.0937v2.4174h4.9285v-2.4174l-.88076-.0937v-4.0852c0-.74958-.0375-1.5929-.11244-2.3237h.0562c.29983.59967.67462 1.2556.99319 1.799l4.0852 7.121h3.6355v-11.412l.88076-.0937v-2.4174z"/><path d="m117.38 265.8v-2.4174l-.74959-.075.26236-.95571h3.954l.26236.95571-.74958.075v2.4174h5.4532v-2.4174l-.93698-.0937-3.2982-11.412h-6.9899v2.4174l.91824.11244-2.661 8.8826-.8995.0937v2.4174zm2.9983-5.9967h-2.9983l.99319-3.673c.1874-.69336.31857-1.4992.43101-2.1363h.13118c.13118.63715.24361 1.4617.43101 2.1363z"/><path d="m136.52 255.46v-3.5793h-11.581v3.5793h2.0426l.18739-.95572h1.8177v8.8076l-.8995.0937v2.3987h5.2846v-2.3987l-.88076-.0937v-8.8076h1.8177l.18739.95572z"/><path d="m143.11 265.8v-2.4174l-.88075-.0937v-8.9013l.88075-.0937v-2.4174h-5.2846v2.4174l.88076.0937v8.9013l-.88076.0937v2.4174z"/><path d="m156.4 259.52v-1.368c0-4.891-2.4736-6.5963-6.0529-6.5963-3.598 0-6.0716 1.7053-6.0716 6.5963v1.368c0 4.8723 2.4549 6.5963 6.0716 6.5963 3.598 0 6.0529-1.724 6.0529-6.5963zm-3.4481 0c0 2.9234-.97446 3.8041-2.6048 3.8041-1.6491 0-2.6235-.88076-2.6235-3.8041v-1.368c0-2.8672.95572-3.8041 2.6235-3.8041s2.6048.93698 2.6048 3.8041z"/><path d="m166.09 251.88v2.4174l.88076.0937v3.9166c0 .7121.0375 1.7053.0937 2.4549h-.0375c-.2811-.59966-.67462-1.3118-1.0119-1.8927l-4.1227-6.9899h-4.4225v2.4174l.86202.0937v8.9013l-.86202.0937v2.4174h4.9285v-2.4174l-.88076-.0937v-4.0852c0-.74958-.0375-1.5929-.11244-2.3237h.0562c.29984.59967.67463 1.2556.9932 1.799l4.0852 7.121h3.6355v-11.412l.88076-.0937v-2.4174z"/><path d="m177.04 265.8v-2.4174l-.74958-.075.26236-.95571h3.954l.26236.95571-.74959.075v2.4174h5.4532v-2.4174l-.93697-.0937-3.2982-11.412h-6.9898v2.4174l.91824.11244-2.661 8.8826-.8995.0937v2.4174zm2.9983-5.9967h-2.9983l.9932-3.673c.18739-.69336.31857-1.4992.431-2.1363h.13118c.13117.63715.24361 1.4617.43101 2.1363z"/><path d="m196.55 265.8v-3.8041h-2.1363l-.1874 1.1056h-3.1482v-8.7139l.88076-.0937v-2.4174h-5.2471v2.4174l.86202.0937v8.9013l-.86202.0937v2.4174z"/><path d="m161.3 200.16c0 24.645-19.989 44.628-44.634 44.628-24.659 0-44.643-19.983-44.643-44.628 0-24.651 19.985-44.635 44.643-44.635 24.645 0 44.634 19.984 44.634 44.635" fill-rule="evenodd" stroke-width=".57704"/></g><path d="m144.01 200.04c0 15.817-12.822 28.627-28.627 28.627-15.814 0-28.625-12.81-28.625-28.627 0-15.811 12.81-28.621 28.625-28.621 15.805 0 28.627 12.81 28.627 28.621" fill="#facf0b" fill-rule="evenodd" stroke-width=".57704"/><path d="m141.49 208.98c-6.284-7.5131-12.014-7.9112-15.517-7.0168-3.9643.99251-6.3763 3.4853-8.7941 5.8627-.38661.0462-3.6988-8.4364-7.9459-17.317-.96943-2.0427-2.3312-3.3064-3.7825-3.4853-2.067-.2539-3.6533 1.8004-4.9753 3.9412-3.0162 4.8933-7.415 12.256-9.5298 15.586-.25217.4097-.4449-.17888-.49279-.4674-2.8719-17.282 11.296-32.014 28.671-30.041 16.336 1.9446 26.74 18.073 22.366 32.938m3.3526 3.9296c8.6152-20.825-6.561-40.606-24.842-42.58-18.24-2.0658-34.235 11.777-34.247 30.624 0 5.9608 1.7548 9.3365 3.5211 10.335 2.6319 1.4772 4.7831-1.9619 6.1051-3.7046 3.1004-4.0855 6.8016-9.6712 8.1715-11.61.38489-.54819.79343-.40393 1.0698.0173 1.1293 1.6676 5.8754 12.481 9.2511 18.31.8194 1.408 2.2158 2.3716 3.8604.95212 1.6561-1.4311 5.1761-5.4934 8.6152-6.5725 4.4952-1.4195 9.2038 2.2447 12.164 6.0185-4.5182 7.4727-12.487 12.089-21.91 12.354-21.871.6232-28.216-16.705-42.889-20.214-1.2135-.28852-2.2112 1.2291-.09637 1.9331 6.5136 2.187 11.405 7.2707 16.873 12.077 6.561 5.7704 14.757 10.698 25.992 10.756 10.098.0519 19.458-4.7433 25.453-13.324 5.228 4.7433 13.676 2.3428 16.861-2.6082.2135-.33468.0981-.78477-.46741-.42124-7.5362 4.9164-12.92-1.6215-13.485-2.3428" fill="#fff" fill-rule="evenodd" stroke-width=".57704"/></g></svg>