<?xml version="1.0" encoding="UTF-8" standalone="no"?>
<!-- Created with Inkscape (http://www.inkscape.org/) -->

<svg
   xmlns:dc="http://purl.org/dc/elements/1.1/"
   xmlns:cc="http://creativecommons.org/ns#"
   xmlns:rdf="http://www.w3.org/1999/02/22-rdf-syntax-ns#"
   xmlns:svg="http://www.w3.org/2000/svg"
   xmlns="http://www.w3.org/2000/svg"
   xmlns:sodipodi="http://sodipodi.sourceforge.net/DTD/sodipodi-0.dtd"
   xmlns:inkscape="http://www.inkscape.org/namespaces/inkscape"
   width="5.7433987mm"
   height="1.9258138mm"
   viewBox="0 0 5.7433987 1.9258138"
   version="1.1"
   id="svg50098"
   inkscape:version="0.92.0 r15299"
   sodipodi:docname="Mestska Televizia Trnava - Dark.svg">
  <defs
     id="defs50092">
    <clipPath
       clipPathUnits="userSpaceOnUse"
       id="clipPath21996">
      <path
         d="m 226.467,444.938 h 16.519 v 5.588 h -16.519 z"
         id="path21994"
         inkscape:connector-curvature="0" />
    </clipPath>
  </defs>
  <sodipodi:namedview
     id="base"
     pagecolor="#ffffff"
     bordercolor="#666666"
     borderopacity="1.0"
     inkscape:pageopacity="0.0"
     inkscape:pageshadow="2"
     inkscape:zoom="44.8"
     inkscape:cx="13.202697"
     inkscape:cy="4.6838288"
     inkscape:document-units="mm"
     inkscape:current-layer="layer1"
     showgrid="false"
     fit-margin-top="0"
     fit-margin-left="0"
     fit-margin-right="0"
     fit-margin-bottom="0"
     inkscape:window-width="1920"
     inkscape:window-height="1017"
     inkscape:window-x="-8"
     inkscape:window-y="-8"
     inkscape:window-maximized="1" />
  <metadata
     id="metadata50095">
    <rdf:RDF>
      <cc:Work
         rdf:about="">
        <dc:format>image/svg+xml</dc:format>
        <dc:type
           rdf:resource="http://purl.org/dc/dcmitype/StillImage" />
        <dc:title></dc:title>
      </cc:Work>
    </rdf:RDF>
  </metadata>
  <g
     inkscape:label="Layer 1"
     inkscape:groupmode="layer"
     id="layer1"
     transform="translate(200.17527,-15.578763)">
    <g
       id="g21998"
       transform="matrix(0.35277777,0,0,-0.35277777,-200.04594,15.587054)">
      <path
         d="m 0,0 h 4.343 c 0.178,0 0.324,-0.124 0.324,-0.275 v -3.432 c 0,-0.152 -0.146,-0.275 -0.324,-0.275 H 0 c -0.179,0 -0.325,0.123 -0.325,0.275 v 3.432 C -0.325,-0.124 -0.179,0 0,0"
         style="fill:#162983;fill-opacity:1;fill-rule:evenodd;stroke:none"
         id="path22000"
         inkscape:connector-curvature="0" />
    </g>
    <g
       id="g22002"
       transform="matrix(0.35277777,0,0,-0.35277777,-200.04594,15.587054)">
      <path
         d="m 0,0 h 4.343 c 0.178,0 0.324,-0.124 0.324,-0.275 v -3.432 c 0,-0.152 -0.146,-0.275 -0.324,-0.275 H 0 c -0.179,0 -0.325,0.123 -0.325,0.275 v 3.432 C -0.325,-0.124 -0.179,0 0,0 Z"
         style="fill:none;stroke:#000000;stroke-width:0.047;stroke-linecap:butt;stroke-linejoin:miter;stroke-miterlimit:2.41400003;stroke-dasharray:none;stroke-opacity:1"
         id="path22004"
         inkscape:connector-curvature="0" />
    </g>
    <g
       id="g22006"
       transform="matrix(0.35277777,0,0,-0.35277777,-199.77779,15.862114)">
      <path
         d="M 0,0 H 1.022 L 1.415,-1.53 1.807,0 H 2.828 V -2.514 H 2.191 v 1.917 L 1.701,-2.514 H 1.125 L 0.636,-0.597 V -2.514 H 0 Z"
         style="fill:#ffffff;fill-opacity:1;fill-rule:nonzero;stroke:none"
         id="path22008"
         inkscape:connector-curvature="0" />
    </g>
    <g
       id="g22010"
       transform="matrix(0.35277777,0,0,-0.35277777,-198.06248,15.587054)">
      <path
         d="m 0,0 h 4.346 c 0.178,0 0.323,-0.123 0.323,-0.274 v -3.434 c 0,-0.151 -0.145,-0.274 -0.323,-0.274 H 0 c -0.178,0 -0.323,0.123 -0.323,0.274 v 3.434 C -0.323,-0.123 -0.178,0 0,0"
         style="fill:#fdc800;fill-opacity:1;fill-rule:evenodd;stroke:none"
         id="path22012"
         inkscape:connector-curvature="0" />
    </g>
    <g
       id="g22014"
       transform="matrix(0.35277777,0,0,-0.35277777,-198.06248,15.587054)">
      <path
         d="m 0,0 h 4.346 c 0.178,0 0.323,-0.123 0.323,-0.274 v -3.434 c 0,-0.151 -0.145,-0.274 -0.323,-0.274 H 0 c -0.178,0 -0.323,0.123 -0.323,0.274 v 3.434 C -0.323,-0.123 -0.178,0 0,0 Z"
         style="fill:none;stroke:#000000;stroke-width:0.047;stroke-linecap:butt;stroke-linejoin:miter;stroke-miterlimit:2.41400003;stroke-dasharray:none;stroke-opacity:1"
         id="path22016"
         inkscape:connector-curvature="0" />
    </g>
    <g
       id="g22018"
       transform="matrix(0.35277777,0,0,-0.35277777,-197.6921,15.851425)">
      <path
         d="M 0,0 H 2.366 V -0.622 H 1.572 V -2.519 H 0.794 v 1.897 H 0 Z"
         style="fill:#000000;fill-opacity:1;fill-rule:nonzero;stroke:none"
         id="path22020"
         inkscape:connector-curvature="0" />
    </g>
    <g
       id="g22022"
       transform="matrix(0.35277777,0,0,-0.35277777,-196.08728,15.587054)">
      <path
         d="m 0,0 h 4.346 c 0.178,0 0.323,-0.123 0.323,-0.274 v -3.434 c 0,-0.151 -0.145,-0.274 -0.323,-0.274 H 0 c -0.178,0 -0.323,0.123 -0.323,0.274 v 3.434 C -0.323,-0.123 -0.178,0 0,0"
         style="fill:#162983;fill-opacity:1;fill-rule:evenodd;stroke:none"
         id="path22024"
         inkscape:connector-curvature="0" />
    </g>
    <g
       id="g22026"
       transform="matrix(0.35277777,0,0,-0.35277777,-196.08728,15.587054)">
      <path
         d="m 0,0 h 4.346 c 0.178,0 0.323,-0.123 0.323,-0.274 v -3.434 c 0,-0.151 -0.145,-0.274 -0.323,-0.274 H 0 c -0.178,0 -0.323,0.123 -0.323,0.274 v 3.434 C -0.323,-0.123 -0.178,0 0,0 Z"
         style="fill:none;stroke:#000000;stroke-width:0.047;stroke-linecap:butt;stroke-linejoin:miter;stroke-miterlimit:2.41400003;stroke-dasharray:none;stroke-opacity:1"
         id="path22028"
         inkscape:connector-curvature="0" />
    </g>
    <g
       id="g22030"
       transform="matrix(0.35277777,0,0,-0.35277777,-195.73485,15.851425)">
      <path
         d="M 0,0 H 2.366 V -0.622 H 1.572 V -2.519 H 0.794 v 1.897 H 0 Z"
         style="fill:#ffffff;fill-opacity:1;fill-rule:nonzero;stroke:none"
         id="path22032"
         inkscape:connector-curvature="0" />
    </g>
    <g
       id="g22034"
       transform="matrix(0.35277777,0,0,-0.35277777,-200.07861,17.185348)">
      <path
         d="M 0,0 H 0.214 L 0.313,-0.471 0.562,0 H 0.778 L 0.773,-0.882 H 0.556 l 0.015,0.508 H 0.568 L 0.292,-0.882 H 0.206 L 0.09,-0.374 H 0.088 l -0.146,-0.508 h -0.216 z"
         style="fill:#000000;fill-opacity:1;fill-rule:nonzero;stroke:none"
         id="path22036"
         inkscape:connector-curvature="0" />
    </g>
    <g
       id="g22038"
       transform="matrix(0.35277777,0,0,-0.35277777,-199.66085,17.253823)">
      <path
         d="M 0,0 -0.022,-0.147 H 0.223 L 0.194,-0.341 H -0.051 L -0.074,-0.493 H 0.184 L 0.155,-0.687 H -0.32 l 0.132,0.881 H 0.287 L 0.258,0 Z"
         style="fill:#000000;fill-opacity:1;fill-rule:nonzero;stroke:none"
         id="path22040"
         inkscape:connector-curvature="0" />
    </g>
    <g
       id="g22042"
       transform="matrix(0.35277777,0,0,-0.35277777,-199.36264,17.265394)">
      <path
         d="m 0,0 c -0.035,0.035 -0.082,0.059 -0.135,0.059 -0.04,0 -0.097,-0.025 -0.104,-0.074 -0.008,-0.052 0.048,-0.071 0.083,-0.084 l 0.053,-0.018 c 0.111,-0.036 0.191,-0.098 0.17,-0.241 -0.013,-0.087 -0.046,-0.177 -0.122,-0.237 -0.074,-0.059 -0.165,-0.083 -0.249,-0.083 -0.105,0 -0.203,0.037 -0.278,0.1 l 0.12,0.185 c 0.047,-0.05 0.105,-0.091 0.179,-0.091 0.051,0 0.109,0.027 0.119,0.089 0.009,0.064 -0.073,0.086 -0.117,0.1 -0.13,0.041 -0.214,0.079 -0.189,0.249 0.027,0.179 0.165,0.296 0.332,0.296 0.085,0 0.183,-0.028 0.251,-0.072 z"
         style="fill:#000000;fill-opacity:1;fill-rule:nonzero;stroke:none"
         id="path22044"
         inkscape:connector-curvature="0" />
    </g>
    <g
       id="g22046"
       transform="matrix(0.35277777,0,0,-0.35277777,-199.20114,17.496393)">
      <path
         d="m 0,0 h -0.217 l 0.103,0.688 h -0.18 l 0.03,0.194 H 0.311 L 0.282,0.688 H 0.103 Z"
         style="fill:#000000;fill-opacity:1;fill-rule:nonzero;stroke:none"
         id="path22048"
         inkscape:connector-curvature="0" />
    </g>
    <g
       id="g22050"
       transform="matrix(0.35277777,0,0,-0.35277777,-198.91391,17.265394)">
      <path
         d="m 0,0 c -0.035,0.035 -0.082,0.059 -0.135,0.059 -0.04,0 -0.097,-0.025 -0.104,-0.074 -0.008,-0.052 0.048,-0.071 0.083,-0.084 l 0.053,-0.018 c 0.111,-0.036 0.191,-0.098 0.17,-0.241 -0.013,-0.087 -0.046,-0.177 -0.122,-0.237 -0.074,-0.059 -0.165,-0.083 -0.249,-0.083 -0.105,0 -0.203,0.037 -0.278,0.1 l 0.12,0.185 c 0.047,-0.05 0.105,-0.091 0.179,-0.091 0.051,0 0.109,0.027 0.119,0.089 0.009,0.064 -0.073,0.086 -0.117,0.1 -0.13,0.041 -0.214,0.079 -0.189,0.249 0.027,0.179 0.165,0.296 0.332,0.296 0.085,0 0.183,-0.028 0.251,-0.072 z"
         style="fill:#000000;fill-opacity:1;fill-rule:nonzero;stroke:none"
         id="path22052"
         inkscape:connector-curvature="0" />
    </g>
    <g
       id="g22054"
       transform="matrix(0.35277777,0,0,-0.35277777,-198.65321,17.185348)">
      <path
         d="m 0,0 h 0.269 l -0.395,-0.417 0.293,-0.465 h -0.281 l -0.223,0.383 H -0.339 L -0.397,-0.882 H -0.614 L -0.482,0 h 0.217 l -0.054,-0.364 h 0.002 z"
         style="fill:#000000;fill-opacity:1;fill-rule:nonzero;stroke:none"
         id="path22056"
         inkscape:connector-curvature="0" />
    </g>
    <g
       id="g22058"
       transform="matrix(0.35277777,0,0,-0.35277777,-198.41505,17.170108)">
      <path
         d="M 0,0 -0.062,0.081 0.14,0.242 0.229,0.14 Z M 0.006,-0.316 H 0.004 l -0.132,-0.28 h 0.181 z m -0.22,-0.456 -0.08,-0.153 h -0.231 l 0.453,0.882 H 0.165 L 0.348,-0.925 H 0.116 l -0.031,0.153 z"
         style="fill:#000000;fill-opacity:1;fill-rule:nonzero;stroke:none"
         id="path22060"
         inkscape:connector-curvature="0" />
    </g>
    <g
       id="g22062"
       transform="matrix(0.35277777,0,0,-0.35277777,-198.01747,17.496393)">
      <path
         d="m 0,0 h -0.217 l 0.103,0.688 h -0.18 l 0.03,0.194 H 0.311 L 0.282,0.688 H 0.103 Z"
         style="fill:#000000;fill-opacity:1;fill-rule:nonzero;stroke:none"
         id="path22064"
         inkscape:connector-curvature="0" />
    </g>
    <g
       id="g22066"
       transform="matrix(0.35277777,0,0,-0.35277777,-197.81367,17.253823)">
      <path
         d="M 0,0 -0.022,-0.147 H 0.223 L 0.194,-0.341 H -0.051 L -0.074,-0.493 H 0.184 L 0.155,-0.687 H -0.32 l 0.132,0.881 H 0.287 L 0.258,0 Z"
         style="fill:#000000;fill-opacity:1;fill-rule:nonzero;stroke:none"
         id="path22068"
         inkscape:connector-curvature="0" />
    </g>
    <g
       id="g22070"
       transform="matrix(0.35277777,0,0,-0.35277777,-197.62493,17.427918)">
      <path
         d="M 0,0 H 0.26 L 0.231,-0.194 h -0.477 l 0.132,0.881 h 0.217 z"
         style="fill:#000000;fill-opacity:1;fill-rule:nonzero;stroke:none"
         id="path22072"
         inkscape:connector-curvature="0" />
    </g>
    <g
       id="g22074"
       transform="matrix(0.35277777,0,0,-0.35277777,-197.40557,17.253823)">
      <path
         d="M 0,0 -0.022,-0.147 H 0.223 L 0.194,-0.341 H -0.051 L -0.074,-0.493 H 0.184 L 0.155,-0.687 H -0.32 l 0.132,0.881 H 0.287 L 0.258,0 Z"
         style="fill:#000000;fill-opacity:1;fill-rule:nonzero;stroke:none"
         id="path22076"
         inkscape:connector-curvature="0" />
    </g>
    <g
       id="g22078"
       transform="matrix(0.35277777,0,0,-0.35277777,-197.16194,17.374296)">
      <path
         d="M 0,0 0.283,0.536 H 0.519 L 0.03,-0.346 h -0.168 l -0.219,0.882 h 0.236 z"
         style="fill:#000000;fill-opacity:1;fill-rule:nonzero;stroke:none"
         id="path22080"
         inkscape:connector-curvature="0" />
    </g>
    <g
       id="g22082"
       transform="matrix(0.35277777,0,0,-0.35277777,-196.93539,17.170108)">
      <path
         d="M 0,0 -0.062,0.081 0.14,0.242 0.229,0.14 Z m 0.016,-0.925 h -0.217 l 0.131,0.882 h 0.217 z"
         style="fill:#000000;fill-opacity:1;fill-rule:nonzero;stroke:none"
         id="path22084"
         inkscape:connector-curvature="0" />
    </g>
    <g
       id="g22086"
       transform="matrix(0.35277777,0,0,-0.35277777,-196.63803,17.427918)">
      <path
         d="m 0,0 -0.029,-0.194 h -0.715 l 0.498,0.687 h -0.328 l 0.029,0.194 H 0.146 L -0.35,0 Z"
         style="fill:#000000;fill-opacity:1;fill-rule:nonzero;stroke:none"
         id="path22088"
         inkscape:connector-curvature="0" />
    </g>
    <g
       id="g22090"
       transform="matrix(0.35277777,0,0,-0.35277777,-196.52726,17.496393)">
      <path
         d="m 0,0 h -0.217 l 0.132,0.882 h 0.217 z"
         style="fill:#000000;fill-opacity:1;fill-rule:nonzero;stroke:none"
         id="path22092"
         inkscape:connector-curvature="0" />
    </g>
    <g
       id="g22094"
       transform="matrix(0.35277777,0,0,-0.35277777,-196.31665,17.281445)">
      <path
         d="M 0,0 H -0.002 L -0.134,-0.281 H 0.047 Z M -0.22,-0.456 -0.3,-0.609 h -0.231 l 0.453,0.881 H 0.159 L 0.342,-0.609 H 0.11 l -0.031,0.153 z"
         style="fill:#000000;fill-opacity:1;fill-rule:nonzero;stroke:none"
         id="path22096"
         inkscape:connector-curvature="0" />
    </g>
    <g
       id="g22098"
       transform="matrix(0.35277777,0,0,-0.35277777,-195.92115,17.496393)">
      <path
         d="m 0,0 h -0.217 l 0.103,0.688 h -0.18 l 0.029,0.194 H 0.311 L 0.282,0.688 H 0.103 Z"
         style="fill:#000000;fill-opacity:1;fill-rule:nonzero;stroke:none"
         id="path22100"
         inkscape:connector-curvature="0" />
    </g>
    <g
       id="g22102"
       transform="matrix(0.35277777,0,0,-0.35277777,-195.72801,17.324766)">
      <path
         d="M 0,0 H 0.021 C 0.092,0 0.174,0.014 0.188,0.11 0.202,0.206 0.125,0.22 0.054,0.22 H 0.033 Z M 0.404,-0.486 H 0.134 L -0.02,-0.147 H -0.022 L -0.073,-0.486 H -0.29 l 0.132,0.881 H 0.167 C 0.332,0.395 0.444,0.312 0.416,0.124 0.398,0.002 0.318,-0.103 0.196,-0.125 Z"
         style="fill:#000000;fill-opacity:1;fill-rule:nonzero;stroke:none"
         id="path22104"
         inkscape:connector-curvature="0" />
    </g>
    <g
       id="g22106"
       transform="matrix(0.35277777,0,0,-0.35277777,-195.51811,17.185348)">
      <path
         d="M 0,0 H 0.217 L 0.534,-0.539 H 0.536 L 0.617,0 H 0.834 L 0.702,-0.882 H 0.485 L 0.168,-0.341 H 0.166 L 0.085,-0.882 h -0.217 z"
         style="fill:#000000;fill-opacity:1;fill-rule:nonzero;stroke:none"
         id="path22108"
         inkscape:connector-curvature="0" />
    </g>
    <g
       id="g22110"
       transform="matrix(0.35277777,0,0,-0.35277777,-195.05995,17.281445)">
      <path
         d="M 0,0 H -0.002 L -0.134,-0.281 H 0.047 Z M -0.22,-0.456 -0.3,-0.609 h -0.231 l 0.453,0.881 H 0.159 L 0.342,-0.609 H 0.11 l -0.031,0.153 z"
         style="fill:#000000;fill-opacity:1;fill-rule:nonzero;stroke:none"
         id="path22112"
         inkscape:connector-curvature="0" />
    </g>
    <g
       id="g22114"
       transform="matrix(0.35277777,0,0,-0.35277777,-194.82857,17.374296)">
      <path
         d="M 0,0 0.283,0.536 H 0.519 L 0.03,-0.346 h -0.168 l -0.219,0.882 h 0.236 z"
         style="fill:#000000;fill-opacity:1;fill-rule:nonzero;stroke:none"
         id="path22116"
         inkscape:connector-curvature="0" />
    </g>
    <g
       id="g22118"
       transform="matrix(0.35277777,0,0,-0.35277777,-194.55919,17.281445)">
      <path
         d="M 0,0 H -0.002 L -0.134,-0.281 H 0.047 Z M -0.22,-0.456 -0.3,-0.609 h -0.231 l 0.453,0.881 H 0.159 L 0.342,-0.609 H 0.11 l -0.031,0.153 z"
         style="fill:#000000;fill-opacity:1;fill-rule:nonzero;stroke:none"
         id="path22120"
         inkscape:connector-curvature="0" />
    </g>
  </g>
</svg>
