<svg width="5.7434mm" height="1.9258mm" version="1.1" viewBox="0 0 5.7434 1.9258" xmlns="http://www.w3.org/2000/svg">
 <g transform="translate(200.18 -15.579)">
  <g transform="matrix(.35278 0 0 -.35278 -200.05 15.587)">
   <path d="m0 0h4.343c0.178 0 0.324-0.124 0.324-0.275v-3.432c0-0.152-0.146-0.275-0.324-0.275h-4.343c-0.179 0-0.325 0.123-0.325 0.275v3.432c0 0.151 0.146 0.275 0.325 0.275" fill="#162983" fill-rule="evenodd"/>
  </g>
  <g transform="matrix(.35278 0 0 -.35278 -200.05 15.587)">
   <path d="m0 0h4.343c0.178 0 0.324-0.124 0.324-0.275v-3.432c0-0.152-0.146-0.275-0.324-0.275h-4.343c-0.179 0-0.325 0.123-0.325 0.275v3.432c0 0.151 0.146 0.275 0.325 0.275z" fill="none" stroke="#000" stroke-miterlimit="2.414" stroke-width=".047"/>
  </g>
  <g transform="matrix(.35278 0 0 -.35278 -199.78 15.862)">
   <path d="m0 0h1.022l0.393-1.53 0.392 1.53h1.021v-2.514h-0.637v1.917l-0.49-1.917h-0.576l-0.489 1.917v-1.917h-0.636z" fill="#fff"/>
  </g>
  <g transform="matrix(.35278 0 0 -.35278 -198.06 15.587)">
   <path d="m0 0h4.346c0.178 0 0.323-0.123 0.323-0.274v-3.434c0-0.151-0.145-0.274-0.323-0.274h-4.346c-0.178 0-0.323 0.123-0.323 0.274v3.434c0 0.151 0.145 0.274 0.323 0.274" fill="#fdc800" fill-rule="evenodd"/>
  </g>
  <g transform="matrix(.35278 0 0 -.35278 -198.06 15.587)">
   <path d="m0 0h4.346c0.178 0 0.323-0.123 0.323-0.274v-3.434c0-0.151-0.145-0.274-0.323-0.274h-4.346c-0.178 0-0.323 0.123-0.323 0.274v3.434c0 0.151 0.145 0.274 0.323 0.274z" fill="none" stroke="#000" stroke-miterlimit="2.414" stroke-width=".047"/>
  </g>
  <g transform="matrix(.35278 0 0 -.35278 -197.69 15.851)">
   <path d="m0 0h2.366v-0.622h-0.794v-1.897h-0.778v1.897h-0.794z"/>
  </g>
  <g transform="matrix(.35278 0 0 -.35278 -196.09 15.587)">
   <path d="m0 0h4.346c0.178 0 0.323-0.123 0.323-0.274v-3.434c0-0.151-0.145-0.274-0.323-0.274h-4.346c-0.178 0-0.323 0.123-0.323 0.274v3.434c0 0.151 0.145 0.274 0.323 0.274" fill="#162983" fill-rule="evenodd"/>
  </g>
  <g transform="matrix(.35278 0 0 -.35278 -196.09 15.587)">
   <path d="m0 0h4.346c0.178 0 0.323-0.123 0.323-0.274v-3.434c0-0.151-0.145-0.274-0.323-0.274h-4.346c-0.178 0-0.323 0.123-0.323 0.274v3.434c0 0.151 0.145 0.274 0.323 0.274z" fill="none" stroke="#000" stroke-miterlimit="2.414" stroke-width=".047"/>
  </g>
  <g transform="matrix(.35278 0 0 -.35278 -195.73 15.851)">
   <path d="m0 0h2.366v-0.622h-0.794v-1.897h-0.778v1.897h-0.794z" fill="#fff"/>
  </g>
  <g transform="matrix(.35278 0 0 -.35278 -200.08 17.185)">
   <path d="m0 0h0.214l0.099-0.471 0.249 0.471h0.216l-5e-3 -0.882h-0.217l0.015 0.508h-3e-3l-0.276-0.508h-0.086l-0.116 0.508h-2e-3l-0.146-0.508h-0.216z"/>
  </g>
  <g transform="matrix(.35278 0 0 -.35278 -199.66 17.254)">
   <path d="m0 0-0.022-0.147h0.245l-0.029-0.194h-0.245l-0.023-0.152h0.258l-0.029-0.194h-0.475l0.132 0.881h0.475l-0.029-0.194z"/>
  </g>
  <g transform="matrix(.35278 0 0 -.35278 -199.36 17.265)">
   <path d="m0 0c-0.035 0.035-0.082 0.059-0.135 0.059-0.04 0-0.097-0.025-0.104-0.074-8e-3 -0.052 0.048-0.071 0.083-0.084l0.053-0.018c0.111-0.036 0.191-0.098 0.17-0.241-0.013-0.087-0.046-0.177-0.122-0.237-0.074-0.059-0.165-0.083-0.249-0.083-0.105 0-0.203 0.037-0.278 0.1l0.12 0.185c0.047-0.05 0.105-0.091 0.179-0.091 0.051 0 0.109 0.027 0.119 0.089 9e-3 0.064-0.073 0.086-0.117 0.1-0.13 0.041-0.214 0.079-0.189 0.249 0.027 0.179 0.165 0.296 0.332 0.296 0.085 0 0.183-0.028 0.251-0.072z"/>
  </g>
  <g transform="matrix(.35278 0 0 -.35278 -199.2 17.496)">
   <path d="m0 0h-0.217l0.103 0.688h-0.18l0.03 0.194h0.575l-0.029-0.194h-0.179z"/>
  </g>
  <g transform="matrix(.35278 0 0 -.35278 -198.91 17.265)">
   <path d="m0 0c-0.035 0.035-0.082 0.059-0.135 0.059-0.04 0-0.097-0.025-0.104-0.074-8e-3 -0.052 0.048-0.071 0.083-0.084l0.053-0.018c0.111-0.036 0.191-0.098 0.17-0.241-0.013-0.087-0.046-0.177-0.122-0.237-0.074-0.059-0.165-0.083-0.249-0.083-0.105 0-0.203 0.037-0.278 0.1l0.12 0.185c0.047-0.05 0.105-0.091 0.179-0.091 0.051 0 0.109 0.027 0.119 0.089 9e-3 0.064-0.073 0.086-0.117 0.1-0.13 0.041-0.214 0.079-0.189 0.249 0.027 0.179 0.165 0.296 0.332 0.296 0.085 0 0.183-0.028 0.251-0.072z"/>
  </g>
  <g transform="matrix(.35278 0 0 -.35278 -198.65 17.185)">
   <path d="m0 0h0.269l-0.395-0.417 0.293-0.465h-0.281l-0.223 0.383h-2e-3l-0.058-0.383h-0.217l0.132 0.882h0.217l-0.054-0.364h2e-3z"/>
  </g>
  <g transform="matrix(.35278 0 0 -.35278 -198.42 17.17)">
   <path d="m0 0-0.062 0.081 0.202 0.161 0.089-0.102zm6e-3 -0.316h-2e-3l-0.132-0.28h0.181zm-0.22-0.456-0.08-0.153h-0.231l0.453 0.882h0.237l0.183-0.882h-0.232l-0.031 0.153z"/>
  </g>
  <g transform="matrix(.35278 0 0 -.35278 -198.02 17.496)">
   <path d="m0 0h-0.217l0.103 0.688h-0.18l0.03 0.194h0.575l-0.029-0.194h-0.179z"/>
  </g>
  <g transform="matrix(.35278 0 0 -.35278 -197.81 17.254)">
   <path d="m0 0-0.022-0.147h0.245l-0.029-0.194h-0.245l-0.023-0.152h0.258l-0.029-0.194h-0.475l0.132 0.881h0.475l-0.029-0.194z"/>
  </g>
  <g transform="matrix(.35278 0 0 -.35278 -197.62 17.428)">
   <path d="m0 0h0.26l-0.029-0.194h-0.477l0.132 0.881h0.217z"/>
  </g>
  <g transform="matrix(.35278 0 0 -.35278 -197.41 17.254)">
   <path d="m0 0-0.022-0.147h0.245l-0.029-0.194h-0.245l-0.023-0.152h0.258l-0.029-0.194h-0.475l0.132 0.881h0.475l-0.029-0.194z"/>
  </g>
  <g transform="matrix(.35278 0 0 -.35278 -197.16 17.374)">
   <path d="m0 0 0.283 0.536h0.236l-0.489-0.882h-0.168l-0.219 0.882h0.236z"/>
  </g>
  <g transform="matrix(.35278 0 0 -.35278 -196.94 17.17)">
   <path d="m0 0-0.062 0.081 0.202 0.161 0.089-0.102zm0.016-0.925h-0.217l0.131 0.882h0.217z"/>
  </g>
  <g transform="matrix(.35278 0 0 -.35278 -196.64 17.428)">
   <path d="m0 0-0.029-0.194h-0.715l0.498 0.687h-0.328l0.029 0.194h0.691l-0.496-0.687z"/>
  </g>
  <g transform="matrix(.35278 0 0 -.35278 -196.53 17.496)">
   <path d="m0 0h-0.217l0.132 0.882h0.217z"/>
  </g>
  <g transform="matrix(.35278 0 0 -.35278 -196.32 17.281)">
   <path d="m0 0h-2e-3l-0.132-0.281h0.181zm-0.22-0.456-0.08-0.153h-0.231l0.453 0.881h0.237l0.183-0.881h-0.232l-0.031 0.153z"/>
  </g>
  <g transform="matrix(.35278 0 0 -.35278 -195.92 17.496)">
   <path d="m0 0h-0.217l0.103 0.688h-0.18l0.029 0.194h0.576l-0.029-0.194h-0.179z"/>
  </g>
  <g transform="matrix(.35278 0 0 -.35278 -195.73 17.325)">
   <path d="m0 0h0.021c0.071 0 0.153 0.014 0.167 0.11s-0.063 0.11-0.134 0.11h-0.021zm0.404-0.486h-0.27l-0.154 0.339h-2e-3l-0.051-0.339h-0.217l0.132 0.881h0.325c0.165 0 0.277-0.083 0.249-0.271-0.018-0.122-0.098-0.227-0.22-0.249z"/>
  </g>
  <g transform="matrix(.35278 0 0 -.35278 -195.52 17.185)">
   <path d="m0 0h0.217l0.317-0.539h2e-3l0.081 0.539h0.217l-0.132-0.882h-0.217l-0.317 0.541h-2e-3l-0.081-0.541h-0.217z"/>
  </g>
  <g transform="matrix(.35278 0 0 -.35278 -195.06 17.281)">
   <path d="m0 0h-2e-3l-0.132-0.281h0.181zm-0.22-0.456-0.08-0.153h-0.231l0.453 0.881h0.237l0.183-0.881h-0.232l-0.031 0.153z"/>
  </g>
  <g transform="matrix(.35278 0 0 -.35278 -194.83 17.374)">
   <path d="m0 0 0.283 0.536h0.236l-0.489-0.882h-0.168l-0.219 0.882h0.236z"/>
  </g>
  <g transform="matrix(.35278 0 0 -.35278 -194.56 17.281)">
   <path d="m0 0h-2e-3l-0.132-0.281h0.181zm-0.22-0.456-0.08-0.153h-0.231l0.453 0.881h0.237l0.183-0.881h-0.232l-0.031 0.153z"/>
  </g>
 </g>
</svg>
