<svg height="117" width="620" xmlns="http://www.w3.org/2000/svg"><g fill="#f03120" transform="translate(-14.1488 -208.871)"><path d="m294.4015 254.63538c.33692-2.37828.51529-4.57819.51529-6.59973v-6.3619c0-5.76733-.55493-10.50408-1.66479-14.24987-1.09005-3.72597-2.61611-6.67901-4.5782-8.89873-1.94226-2.19991-4.32054-3.76562-7.11502-4.69711s-5.80697-1.40715-9.01765-1.40715c-5.76733 0-10.52389 1.1495-14.24986 3.44851-3.72598 2.27918-6.69883 5.37095-8.89874 9.27529-2.19991 3.90435-3.86471 8.38344-4.95475 13.47693-1.10987 5.09348-1.82335 10.4248-2.16027 16.01376zm-52.38164 3.56742c0 1.68462-.0396 3.42869-.11891 5.2124-.0991 1.78371-.13874 4.02326-.13874 6.73846 0 5.58896.33693 11.43557 1.01077 17.53982.69367 6.10426 2.18009 11.61394 4.45928 16.52906 2.27918 4.91511 5.66823 8.97801 10.16715 12.20851 4.49891 3.23049 10.46444 4.81601 17.9362 4.81601 7.45195 0 13.59584-1.09004 18.43168-3.28995s8.64109-4.87548 11.43557-8.00688 4.87547-6.32226 6.24298-9.55276c1.3477-3.21068 2.35847-5.82679 3.05213-7.86815l3.80525.75312c-.51529 1.88281-1.48642 4.53856-2.91339 8.00688-1.44679 3.48815-3.72598 6.95647-6.8772 10.44462-3.15122 3.46833-7.37267 6.52045-12.7238 9.13656-5.33131 2.63593-12.22833 3.94399-20.71087 3.94399-8.48253 0-16.31104-1.3477-23.52516-4.0629-7.21412-2.71521-13.43729-6.61955-18.68932-11.69322-5.25204-5.09348-9.31494-11.1581-12.20851-18.19385-2.87376-7.03574-4.32054-14.86425-4.32054-23.50534 0-7.47176 1.48642-14.7057 4.45927-21.74145s7.01593-13.25892 12.18869-18.68932c5.17276-5.43041 11.23738-9.79059 18.19385-13.10037 6.93665-3.30977 14.40842-4.95475 22.37566-4.95475 4.73674 0 9.83023.8324 15.26064 2.53683 5.43041 1.68462 10.46443 4.45928 15.1219 8.26453 4.65747 3.82507 8.56181 8.85909 11.69322 15.1219 3.15122 6.28263 4.71692 14.09132 4.71692 23.40625z"/><path d="m333.19324 212.16721h80.60391l-63.32173 105.53622h35.85258c4.91512 0 8.93838-.97114 12.0896-2.93322 3.1314-1.94226 5.66823-4.39982 7.63032-7.37267 1.94226-2.95303 3.46832-6.14389 4.57819-9.53294 1.09004-3.38905 2.16027-6.61955 3.17104-9.65186h2.04136l-3.30978 33.03829h-88.49187l63.30191-105.5164h-21.86036c-4.24127 0-7.92761.11891-11.05901.37656s-5.96552 1.1495-8.50235 2.67557c-2.55666 1.52606-4.93494 3.98362-7.13485 7.37267s-4.57819 8.22489-7.11502 14.48769h-2.04136z"/><path d="m429.44029 212.16721h80.60391l-63.30192 105.53622h35.85259c4.8953 0 8.93837-.97114 12.06978-2.93322 3.1314-1.94226 5.66823-4.39982 7.63031-7.37267 1.94227-2.95303 3.46833-6.14389 4.57819-9.53294 1.09005-3.38905 2.16028-6.61955 3.17105-9.65186h2.04135l-3.30977 33.03829h-88.49187l63.32173-105.5164h-21.88019c-4.24126 0-7.90778.11891-11.059.37656-3.13141.25765-5.96552 1.1495-8.52218 2.67557-2.53683 1.52606-4.91511 3.98362-7.11502 7.37267s-4.57819 8.22489-7.11502 14.48769h-2.04136z"/><path d="m541.07878 266.84191c0 12.03013.93149 21.62253 2.79448 28.73756 1.86299 7.11502 4.32054 12.58507 7.37267 16.41014 3.05213 3.80525 6.61955 6.30244 10.68245 7.49158 4.06289 1.18914 8.38344 1.76389 12.96163 1.76389s8.89873-.57475 12.98145-1.76389c4.0629-1.18914 7.63032-3.68633 10.68244-7.49158 3.05213-3.82507 5.48987-9.29512 7.37267-16.41014 1.84317-7.11503 2.79449-16.70743 2.79449-28.73756 0-10.16716-.67385-18.68933-2.04136-25.54671-1.3477-6.87719-3.42869-12.46615-6.22317-16.7867-2.79448-4.32054-6.32226-7.4123-10.56353-9.27529-4.24127-1.88281-9.23566-2.8143-15.00299-2.8143s-10.76172.93149-15.00299 2.8143c-4.24127 1.86299-7.74923 4.95475-10.54371 9.27529-2.79448 4.32055-4.87548 9.90951-6.22317 16.7867-1.36751 6.85738-2.04136 15.37955-2.04136 25.54671m-25.42779 0c0-8.30417 1.82335-16.01376 5.47005-23.12879 3.6467-7.13484 8.30416-13.27873 13.99222-18.45149 5.66824-5.15295 12.01032-9.1762 19.06589-12.06978 7.03574-2.87376 13.93276-4.32054 20.71086-4.32054s13.69493 1.44678 20.73068 4.32054c7.03575 2.89358 13.39765 6.91683 19.06589 12.06978 5.68805 5.17276 10.34552 11.31665 13.99222 18.45149 3.64669 7.11503 5.47004 14.82462 5.47004 23.12879 0 7.96724-1.70443 15.47864-5.09348 22.51439-3.38905 7.01593-7.84833 13.17964-13.3382 18.43168-5.5295 5.25203-11.83194 9.39421-18.94697 12.46615-7.11502 3.03231-14.40842 4.55837-21.88018 4.55837-7.45195 0-14.74534-1.52606-21.86037-4.55837-7.11502-3.07194-13.43728-7.21412-18.94697-12.46615-5.50968-5.25204-9.94914-11.41575-13.33819-18.43168-3.40887-7.03575-5.09349-14.54715-5.09349-22.51439"/><path d="m55.610198 261.24898c0-8.81946 1.228778-16.2714 3.686335-22.37566 2.457557-6.10425 5.509685-11.05901 9.156382-14.86425 3.646698-3.82507 7.59068-6.61955 11.831948-8.40326 4.221449-1.78371 8.125793-2.65575 11.693215-2.65575 5.073666 0 9.136562 1.76389 12.188692 5.33131 3.05212 3.5476 4.59801 9.05729 4.59801 16.52905v84.29025c-21.959464 6.32226-39.974942 3.11158-53.154582-2.35847zm75.014942-8.38344c0-6.7781 1.05041-12.7238 3.17104-17.79747 2.12064-5.09348 4.87548-9.25548 8.26453-12.46615 3.38905-3.2305 7.21412-5.6286 11.45539-7.25376 4.22145-1.60534 8.46271-2.3981 12.70398-2.3981 5.43041 0 9.71132 1.60534 12.84272 4.81602 3.1314 3.2305 4.6971 7.70959 4.6971 13.47692v66.19549c-16.11285-.27747-34.16797 3.25032-53.13476 12.70398zm-96.875308 50.55829c10.424798 10.26625 44.771139 37.5372 95.151058 11.51484 27.90516-14.3886 55.25539-12.76344 76.7392-6.75828v-60.92363c0-25.24941-12.38688-37.87412-37.14082-37.87412-5.25204 0-9.94914.67384-14.11114 2.02154-4.14217 1.36751-7.74923 3.19086-10.80136 5.47004-3.0323 2.29901-5.58896 4.87548-7.63031 7.74923-2.02154 2.89358-3.6467 5.84661-4.83584 8.91856h-.49548c-2.04135-8.66091-6.32226-14.84444-12.84271-18.57041-6.52046-3.72598-14.03186-5.58896-22.514397-5.58896-9.493305 0-17.57946 2.35846-24.278285 7.11502s-11.812129 12.20851-15.37955 22.37566h-.515294v-26.6962h-40.946071v3.5476h19.600999z"/></g></svg>