<svg width="4.0601mm" height="4.0601mm" version="1.1" viewBox="0 0 4.0601 4.0601" xmlns="http://www.w3.org/2000/svg">
 <g transform="translate(-76.973 -93.454)">
  <g transform="matrix(.35278 0 0 -.35278 78.196 95.28)" fill="#f57649">
   <path d="m0 0c-0.401-0.02-0.714-0.739-0.714-0.739-0.063 0.542-0.257 0.674-0.441 0.656h-1e-3c-6e-3 -1e-3 -0.011-1e-3 -0.017-2e-3 -0.311-0.04-0.475-0.304-0.74-0.773 0 0-0.028 0.11-0.061 0.301-0.021 0.126-0.141 0.135-0.224 0.094-0.119-0.047-0.103-0.132-0.062-0.437 8e-3 -0.065 0.019-0.146 0.032-0.25 0.042-0.332 0.292-0.281 0.384-0.141 0.092 0.141 0.223 0.595 0.42 0.835 0.422 0.512 0.298-0.664 0.34-1.146 0.022-0.252 0.118-0.307 0.206-0.276 0.098 0.037 0.145 0.17 0.175 0.338 0.039 0.263 0.112 0.477 0.285 0.887 0.051 0.105 0.107 0.205 0.171 0.282 0.422 0.513 0.297-0.663 0.34-1.145 0.042-0.483 0.354-0.244 0.368-0.061 0.108 1.365-0.194 1.62-0.461 1.577" fill="#f57649"/>
  </g>
  <g transform="matrix(.35278 0 0 -.35278 78.831 95.29)" fill="#f57649">
   <path d="m0 0c-0.302-0.027-0.513-0.365-0.705-0.728 0 0-0.026 0.104-0.056 0.283-0.019 0.108-0.114 0.125-0.189 0.098-0.138-0.046-0.122-0.084-0.087-0.366 8e-3 -0.068 0.02-0.16 0.037-0.289 0.039-0.311 0.274-0.264 0.36-0.132 0.087 0.132 0.21 0.558 0.395 0.784 0.396 0.481 0.28-0.623 0.319-1.076 0.04-0.454 0.333-0.229 0.347-0.057 0.099 1.26-0.174 1.513-0.421 1.483" fill="#f57649"/>
  </g>
  <g transform="matrix(.35278 0 0 -.35278 78.797 95.115)">
   <path d="m0 0c-0.089-0.025-0.288-0.127-0.39-0.211-0.044-0.034-0.045-0.099-0.046-0.105s-0.011-8e-3 -0.012 0c-3e-3 0.046-0.016 0.069-0.025 0.079-0.102 0.096-0.323 0.241-0.455 0.277-0.151 0.042-0.215 0.049-0.032-0.099 0.157-0.127 0.328-0.276 0.412-0.341 0.021-0.016 0.046-0.043 0.093-0.043s0.075 0.023 0.099 0.038c0.088 0.058 0.275 0.188 0.383 0.304 0.128 0.137 0.088 0.133-0.027 0.101" fill="#f4f586"/>
  </g>
  <g transform="matrix(.35278 0 0 -.35278 80.445 95.253)" fill="#f57649">
   <path d="m0 0c-0.377-0.019-0.67-0.698-0.67-0.698-0.059 0.512-0.242 0.637-0.414 0.62h-1e-3c-5e-3 -1e-3 -0.01-2e-3 -0.015-2e-3 -0.292-0.038-0.446-0.287-0.695-0.731 0 0-0.026 0.105-0.057 0.285-0.02 0.119-0.133 0.127-0.21 0.089-0.112-0.045-0.097-0.125-0.058-0.413 7e-3 -0.061 0.017-0.138 0.03-0.236 0.039-0.313 0.273-0.266 0.36-0.133 0.086 0.133 0.209 0.561 0.394 0.788 0.396 0.484 0.279-0.626 0.319-1.082 0.021-0.238 0.111-0.29 0.194-0.26 0.091 0.035 0.135 0.16 0.164 0.318 0.035 0.25 0.105 0.451 0.266 0.838 0.048 0.099 0.102 0.194 0.162 0.267 0.395 0.484 0.278-0.626 0.318-1.082 0.04-0.455 0.332-0.23 0.346-0.057 0.101 1.289-0.183 1.53-0.433 1.489" fill="#f57649"/>
  </g>
  <g transform="matrix(.35278 0 0 -.35278 79.439 95.629)" fill="#f57649">
   <path d="m0 0c-0.08-0.158-0.199-0.324-0.303-0.451-0.266-0.323-0.301 0.067-0.307 0.495 5e-3 0.618 0.326 0.982 0.586 0.468 3e-3 -5e-3 5e-3 -0.01 7e-3 -0.015 1e-3 -1e-3 1e-3 -2e-3 2e-3 -3e-3 0.095-0.202 0.062-0.39 0.015-0.494m0.502-0.191c-0.013 0.144-0.038 0.321-0.07 0.447v1e-3c-0.04 0.184-0.104 0.38-0.209 0.528-0.435 0.562-1.269 0.221-1.211-0.683 0 0-1e-3 0-1e-3 -1e-3 0.026-1.274 0.619-0.87 0.763-0.713 0.34 0.372 0.383 0.538 0.383 0.538s0.017-0.279 0.084-0.348c0.05-0.063 0.15-0.05 0.21-6e-3 0.04 0.029 0.061 0.057 0.058 0.15 0 0-3e-3 0.056-7e-3 0.087" fill="#f57649"/>
  </g>
  <path d="m80.542 94.231-0.0014-0.0018c-0.36371-0.4452-0.91722-0.72919-1.5374-0.72919-1.0961 0-1.9844 0.8883-1.9844 1.9844s0.8883 1.9847 1.9844 1.9847 1.9847-0.88865 1.9847-1.9847c0-0.14922-0.01729-0.29457-0.04763-0.43498-0.0018-0.0071-0.0032-0.01411-0.0049-0.02117-3.53e-4 -0.0014-7.05e-4 -0.0025-0.0011-0.0039" fill="none" stroke="#f57649" stroke-linecap="round" stroke-miterlimit="10" stroke-width=".091017"/>
  <g transform="matrix(.35278 0 0 -.35278 80.68 94.543)" fill="#f57649">
   <path d="m0 0c0-0.033 9e-3 -0.058 0.027-0.08 0.156-0.234 0.238-0.381 0.344-0.65 0.043-0.087 0.198-0.092 0.246-2e-3 6e-3 0.011 0.01 0.025 0.015 0.037 1e-3 5e-3 3e-3 8e-3 4e-3 0.013 0.021 0.058 0.054 0.144 0.079 0.202l0.032 0.074c3e-3 8e-3 6e-3 0.016 0.01 0.024 7e-3 0.016 0.014 0.032 0.022 0.048l0.016 0.036c3e-3 4e-3 4e-3 8e-3 6e-3 0.012l6e-3 0.012 0.058 0.117c9e-3 0.018 0.023 0.041 0.028 0.06 2e-3 9e-3 4e-3 0.017 5e-3 0.026v0.018c-3e-3 0.036-0.022 0.069-0.053 0.092-5e-3 4e-3 -0.013 9e-3 -0.019 0.011-0.018 8e-3 -0.033 0.012-0.056 0.012-0.013 0-0.028-3e-3 -0.037-7e-3 -0.021-7e-3 -0.039-0.019-0.054-0.035-7e-3 -8e-3 -0.012-0.018-0.018-0.027-5e-3 -0.01-9e-3 -0.02-0.014-0.029-8e-3 -0.014-0.041-0.08-0.048-0.097-2e-3 -2e-3 -3e-3 -4e-3 -4e-3 -7e-3 -3e-3 -5e-3 -5e-3 -0.01-7e-3 -0.015-5e-3 -0.01-0.01-0.02-0.015-0.031-6e-3 -0.015-0.014-0.029-0.021-0.045-1e-3 -3e-3 -2e-3 -5e-3 -3e-3 -8e-3l-0.017-0.038c-9e-3 -0.021-0.019-0.042-0.028-0.062-4e-3 -0.01-0.01-0.021-0.013-0.032h-2e-3c-1e-3 7e-3 -0.031 0.065-0.035 0.072-0.054 0.088-0.105 0.18-0.16 0.269-0.014 0.021-0.028 0.043-0.043 0.064-0.015 0.02-0.028 0.042-0.048 0.059-0.035 0.03-0.086 0.036-0.129 0.018-0.043-0.019-0.074-0.063-0.074-0.111" fill="#f57649" fill-rule="evenodd"/>
  </g>
  <g transform="matrix(.35278 0 0 -.35278 80.463 94.544)" fill="#f57649">
   <path d="m0 0c0-0.03 8e-3 -0.057 0.028-0.077 6e-3 -8e-3 7e-3 -9e-3 0.016-0.016 0.014-0.01 0.039-0.02 0.057-0.019l0.043 1e-3c7e-3 0 0.011 1e-3 0.018 2e-3 1e-3 -0.045-1e-3 -0.089-1e-3 -0.133 1e-3 -9e-3 0-0.205 1e-3 -0.216 2e-3 -0.014 0-0.031 2e-3 -0.046v-0.023l4e-3 -0.044c3e-3 -0.023 4e-3 -0.036 0.012-0.058 0.049-0.112 0.221-0.259 0.31-0.12 0.058 0.092-0.043 0.164-0.057 0.21-0.023 0.077-0.012 0.237-0.012 0.299 0 6e-3 1e-3 0.01 1e-3 0.017v0.046c0 4e-3 1e-3 4e-3 1e-3 9e-3 0 0.011-1e-3 0.024-1e-3 0.036s1e-3 0.023 1e-3 0.036c0.028 1e-3 0.046-1e-3 0.072 0.011 0.021 0.01 0.044 0.035 0.053 0.057 0.017 0.041 0.012 0.087-0.017 0.12-5e-3 6e-3 -2e-3 4e-3 -9e-3 0.01-2e-3 1e-3 -3e-3 2e-3 -4e-3 3e-3 -0.018 0.015-0.045 0.024-0.069 0.023l-0.023-1e-3v0.056c-1e-3 0.108-4e-3 0.234-0.131 0.231-0.128-3e-3 -0.129-0.148-0.13-0.247l1e-3 -0.032c-3e-3 -0.027 0.01-0.021-0.042-0.023-0.042-1e-3 -0.077-0.01-0.103-0.047-0.012-0.019-0.021-0.041-0.021-0.065" fill="#f57649" fill-rule="evenodd"/>
  </g>
 </g>
</svg>
