<svg height="4.06012mm" viewBox="0 0 4.0601196 4.0601197" width="4.06012mm" xmlns="http://www.w3.org/2000/svg"><g transform="translate(-76.97302 -93.454044)"><path d="m0 0c-.401-.02-.714-.739-.714-.739-.063.542-.257.674-.441.656-.001 0-.001 0-.001 0-.006-.001-.011-.001-.017-.002-.311-.04-.475-.304-.74-.773 0 0-.028.11-.061.301-.021.126-.141.135-.224.094-.119-.047-.103-.132-.062-.437.008-.065.019-.146.032-.25.042-.332.292-.281.384-.141.092.141.223.595.42.835.422.512.298-.664.34-1.146.022-.252.118-.307.206-.276.098.037.145.17.175.338.039.263.112.477.285.887.051.105.107.205.171.282.422.513.297-.663.34-1.145.042-.483.354-.244.368-.061.108 1.365-.194 1.62-.461 1.577" fill="#f57649" transform="matrix(.35277777 0 0 -.35277777 78.195525 95.280446)"/><path d="m0 0c-.302-.027-.513-.365-.705-.728 0 0-.026.104-.056.283-.019.108-.114.125-.189.098-.138-.046-.122-.084-.087-.366.008-.068.02-.16.037-.289.039-.311.274-.264.36-.132.087.132.21.558.395.784.396.481.28-.623.319-1.076.04-.454.333-.229.347-.057.099 1.26-.174 1.513-.421 1.483" fill="#f57649" transform="matrix(.35277777 0 0 -.35277777 78.831195 95.29043)"/><path d="m0 0c-.089-.025-.288-.127-.39-.211-.044-.034-.045-.099-.046-.105s-.011-.008-.012 0c-.003.046-.016.069-.025.079-.102.096-.323.241-.455.277-.151.042-.215.049-.032-.099.157-.127.328-.276.412-.341.021-.016.046-.043.093-.043s.075.023.099.038c.088.058.275.188.383.304.128.137.088.133-.027.101" fill="#f4f586" transform="matrix(.35277777 0 0 -.35277777 78.796693 95.115135)"/><path d="m0 0c-.377-.019-.67-.698-.67-.698-.059.512-.242.637-.414.62h-.001c-.005-.001-.01-.002-.015-.002-.292-.038-.446-.287-.695-.731 0 0-.026.105-.057.285-.02.119-.133.127-.21.089-.112-.045-.097-.125-.058-.413.007-.061.017-.138.03-.236.039-.313.273-.266.36-.133.086.133.209.561.394.788.396.484.279-.626.319-1.082.021-.238.111-.29.194-.26.091.035.135.16.164.318.035.25.105.451.266.838.048.099.102.194.162.267.395.484.278-.626.318-1.082.04-.455.332-.23.346-.057.101 1.289-.183 1.53-.433 1.489" fill="#f57649" transform="matrix(.35277777 0 0 -.35277777 80.445294 95.252753)"/><path d="m0 0c-.08-.158-.199-.324-.303-.451-.266-.323-.301.067-.307.495.005.618.326.982.586.468.003-.005.005-.01.007-.015.001-.001.001-.002.002-.003.095-.202.062-.39.015-.494m.502-.191c-.013.144-.038.321-.07.447v.001c-.04.184-.104.38-.209.528-.435.562-1.269.221-1.211-.683 0 0-.001 0-.001-.001.026-1.274.619-.87.763-.713.34.372.383.538.383.538s.017-.279.084-.348c.05-.063.15-.05.21-.006.04.029.061.057.058.15 0 0-.003.056-.007.087" fill="#f57649" transform="matrix(.35277777 0 0 -.35277777 79.438819 95.628814)"/><path d="m80.541709 94.230544-.0014-.0018c-.363714-.445205-.917222-.729192-1.537406-.729192-1.09608 0-1.984375.888295-1.984375 1.984375 0 1.096081.888295 1.984728 1.984375 1.984728 1.096081 0 1.984728-.888647 1.984728-1.984728 0-.149225-.01729-.294569-.04763-.434975-.0018-.0071-.0032-.01411-.0049-.02117-.000353-.0014-.000705-.0025-.0011-.0039" fill="none" stroke="#f57649" stroke-linecap="round" stroke-miterlimit="10" stroke-width=".091017"/><path d="m0 0c0-.033.009-.058.027-.08.156-.234.238-.381.344-.65.043-.087.198-.092.246-.002.006.011.01.025.015.037.001.005.003.008.004.013.021.058.054.144.079.202l.032.074c.003.008.006.016.01.024.007.016.014.032.022.048l.016.036c.003.004.004.008.006.012s.004.008.006.012l.058.117c.009.018.023.041.028.06.002.009.004.017.005.026v.018c-.003.036-.022.069-.053.092-.005.004-.013.009-.019.011-.018.008-.033.012-.056.012-.013 0-.028-.003-.037-.007-.021-.007-.039-.019-.054-.035-.007-.008-.012-.018-.018-.027-.005-.01-.009-.02-.014-.029-.008-.014-.041-.08-.048-.097-.002-.002-.003-.004-.004-.007-.003-.005-.005-.01-.007-.015-.005-.01-.01-.02-.015-.031-.006-.015-.014-.029-.021-.045-.001-.003-.002-.005-.003-.008l-.017-.038c-.009-.021-.019-.042-.028-.062-.004-.01-.01-.021-.013-.032h-.002c-.001.007-.031.065-.035.072-.054.088-.105.18-.16.269-.014.021-.028.043-.043.064-.015.02-.028.042-.048.059-.035.03-.086.036-.129.018-.043-.019-.074-.063-.074-.111" fill="#f57649" fill-rule="evenodd" transform="matrix(.35277777 0 0 -.35277777 80.679927 94.543247)"/><path d="m0 0c0-.03.008-.057.028-.077.006-.008.007-.009.016-.016.014-.01.039-.02.057-.019l.043.001c.007 0 .011.001.018.002.001-.045-.001-.089-.001-.133.001-.009 0-.205.001-.216.002-.014 0-.031.002-.046 0-.008 0-.015 0-.023l.004-.044c.003-.023.004-.036.012-.058.049-.112.221-.259.31-.12.058.092-.043.164-.057.21-.023.077-.012.237-.012.299 0 .006.001.01.001.017v.046c0 .004.001.004.001.009 0 .011-.001.024-.001.036s.001.023.001.036c.028.001.046-.001.072.011.021.01.044.035.053.057.017.041.012.087-.017.12-.005.006-.002.004-.009.01-.002.001-.003.002-.004.003-.018.015-.045.024-.069.023l-.023-.001v.056c-.001.108-.004.234-.131.231-.128-.003-.129-.148-.13-.247l.001-.032c-.003-.027.01-.021-.042-.023-.042-.001-.077-.01-.103-.047-.012-.019-.021-.041-.021-.065" fill="#f57649" fill-rule="evenodd" transform="matrix(.35277777 0 0 -.35277777 80.462686 94.543846)"/></g></svg>