<?xml version="1.0" encoding="UTF-8" standalone="no"?>
<svg
   xmlns:dc="http://purl.org/dc/elements/1.1/"
   xmlns:cc="http://creativecommons.org/ns#"
   xmlns:rdf="http://www.w3.org/1999/02/22-rdf-syntax-ns#"
   xmlns:svg="http://www.w3.org/2000/svg"
   xmlns="http://www.w3.org/2000/svg"
   xmlns:sodipodi="http://sodipodi.sourceforge.net/DTD/sodipodi-0.dtd"
   xmlns:inkscape="http://www.inkscape.org/namespaces/inkscape"
   width="597.14008pt"
   height="602.70673pt"
   viewBox="0 0 597.14008 602.70673"
   version="1.1"
   id="svg26"
   sodipodi:docname="Mnau TV.svg"
   inkscape:version="0.92.0 r15299">
  <metadata
     id="metadata32">
    <rdf:RDF>
      <cc:Work
         rdf:about="">
        <dc:format>image/svg+xml</dc:format>
        <dc:type
           rdf:resource="http://purl.org/dc/dcmitype/StillImage" />
        <dc:title></dc:title>
      </cc:Work>
    </rdf:RDF>
  </metadata>
  <defs
     id="defs30">
    <clipPath
       clipPathUnits="userSpaceOnUse"
       id="clipPath78980">
      <path
         d="M 0,0 H 1190.552 V 841.89 H 0 Z"
         id="path78982"
         inkscape:connector-curvature="0" />
    </clipPath>
  </defs>
  <sodipodi:namedview
     pagecolor="#ffffff"
     bordercolor="#666666"
     borderopacity="1"
     objecttolerance="10"
     gridtolerance="10"
     guidetolerance="10"
     inkscape:pageopacity="0"
     inkscape:pageshadow="2"
     inkscape:window-width="1920"
     inkscape:window-height="1017"
     id="namedview28"
     showgrid="false"
     fit-margin-top="0"
     fit-margin-left="0"
     fit-margin-right="0"
     fit-margin-bottom="0"
     inkscape:zoom="0.49166667"
     inkscape:cx="785.04777"
     inkscape:cy="427.83989"
     inkscape:window-x="-8"
     inkscape:window-y="-8"
     inkscape:window-maximized="1"
     inkscape:current-layer="svg26" />
  <path
     inkscape:connector-curvature="0"
     id="path78986"
     style="fill:#f87698;fill-opacity:1;fill-rule:nonzero;stroke:none;stroke-width:38.90548325"
     d="m 206.73118,276.21379 c -20.65881,1.05045 -36.72678,38.04956 -36.72678,38.04956 -3.22915,-27.93413 -13.26677,-34.70369 -22.7208,-33.76996 v 0 c 0,0 0,0 -0.0389,0 -0.27233,0.0389 -0.54467,0.0389 -0.85592,0.0778 -15.99015,2.1009 -24.43264,15.64001 -38.08847,39.80032 0,0 -1.40059,-5.68021 -3.11244,-15.52329 -1.08935,-6.45831 -7.275322,-6.92518 -11.516022,-4.78538 -6.14707,2.37324 -5.33005,6.76956 -3.19025,22.48737 0.42796,3.30697 0.97264,7.50876 1.63403,12.83881 2.17871,17.04061 15.017522,14.47284 19.763992,7.23642 4.70756,-7.23642 11.47712,-30.57971 21.63145,-42.91275 21.67035,-26.37792 15.28985,34.12011 17.42965,58.90291 1.16717,12.99443 6.10817,15.83453 10.66011,14.2005 4.9799,-1.90637 7.43095,-8.71483 8.98716,-17.35185 1.94528,-13.57801 5.75802,-24.58826 14.62847,-45.67504 2.60666,-5.36895 5.52458,-10.50448 8.83154,-14.51174 21.67036,-26.33902 15.28986,34.12011 17.46856,58.94181 2.13981,24.8217 18.20777,12.52756 18.94698,3.11244 5.52457,-70.1855 -9.99871,-83.33555 -23.73235,-81.11794" />
  <path
     inkscape:connector-curvature="0"
     id="path78990"
     style="fill:#f87698;fill-opacity:1;fill-rule:nonzero;stroke:none;stroke-width:38.90548325"
     d="m 299.43517,277.66885 c -15.56219,1.4006 -26.41682,18.79135 -36.25991,37.42708 0,0 -1.32279,-5.33005 -2.91791,-14.55065 -0.97264,-5.56349 -5.83583,-6.3805 -9.72637,-5.01881 -7.0808,2.37323 -6.26379,4.31851 -4.43523,18.83025 0.42796,3.5015 1.01154,8.24797 1.86746,14.82299 2.06199,16.02906 14.12269,13.61692 18.55792,6.80846 4.47413,-6.80846 10.77682,-28.71225 20.34757,-40.30608 20.34757,-24.78279 14.35612,32.05812 16.37921,55.3625 2.06199,23.30439 17.11841,11.74946 17.81871,2.91792 5.09662,-64.81654 -8.90936,-77.84988 -21.63145,-76.29366" />
  <path
     inkscape:connector-curvature="0"
     id="path78994"
     style="fill:#f87698;fill-opacity:1;fill-rule:nonzero;stroke:none;stroke-width:38.90548325"
     d="m 455.23996,370.31448 c 15.36767,-1.4006 27.50618,-23.61563 29.72379,-44.11882 0,0 3.65712,12.02179 6.45831,21.24239 1.67294,5.56349 6.65284,6.3805 10.34886,5.01881 6.80846,-2.37323 5.71911,-4.31851 1.98418,-18.83025 -0.89483,-3.5015 -5.99144,-28.05086 -7.70329,-34.62588 -4.16288,-16.02906 -15.91234,-13.61692 -19.45274,-6.80846 -3.5404,6.80846 -3.11244,48.51514 -11.12697,60.10897 -17.15732,24.78279 -18.59682,-32.05812 -23.69344,-55.3625 -5.09662,-23.30439 -18.67463,-11.74946 -18.20776,-2.91792 3.42368,64.81654 19.14149,77.84988 31.66906,76.29366" />
  <path
     inkscape:connector-curvature="0"
     id="path78998"
     style="fill:#f87698;fill-opacity:1;fill-rule:nonzero;stroke:none;stroke-width:38.90548325"
     d="m 388.03463,327.01268 c -4.12398,8.13125 -10.23214,16.69045 -15.6011,23.22657 -13.65582,16.57374 -15.44548,-3.46258 -15.75672,-25.48309 v 0 c 0.23343,-31.78578 16.76826,-50.53822 30.11284,-24.08249 0.15563,0.27234 0.27234,0.54467 0.38906,0.77811 0.0389,0.0389 0.0389,0.0778 0.0778,0.15562 4.90209,10.38776 3.19025,20.03632 0.77811,25.40528 m 25.83324,9.80418 c -0.66139,-7.39204 -1.94527,-16.53483 -3.5793,-22.99314 0,0 -0.0389,0 -0.0389,-0.0389 -2.06199,-9.41513 -5.33005,-19.53056 -10.77682,-27.15603 -22.33175,-28.90678 -65.2445,-11.39931 -62.28768,35.13165 0,0 0,0.0389 0,0.0389 1.32279,65.55574 31.82469,44.78021 39.21673,36.68787 17.46856,-19.1026 19.68618,-27.70071 19.68618,-27.70071 0,0 0.89482,14.35613 4.35741,17.93543 2.56776,3.26806 7.74219,2.60667 10.81572,0.31124 2.062,-1.51731 3.11244,-2.95681 2.95682,-7.74219 0,0 -0.15562,-2.8401 -0.35015,-4.47413" />
  <path
     inkscape:connector-curvature="0"
     id="path79002"
     style="fill:#eae319;fill-opacity:1;fill-rule:nonzero;stroke:none;stroke-width:38.90548325"
     d="m 299.85535,252.10406 c -4.59085,1.28388 -14.82299,6.49722 -20.07523,10.81572 -2.25652,1.78966 -3.81274,1.90637 -4.2796,1.3617 -5.25224,-4.90209 -16.57374,-12.37195 -23.3822,-14.23941 -7.7811,-2.17871 -11.04916,-2.52886 -1.67294,5.09662 8.09234,6.57502 16.92389,14.23941 21.20349,17.50747 1.08936,0.85592 2.37324,2.21761 4.82428,2.21761 2.41214,0 3.81274,-1.12826 5.05772,-1.94528 4.55194,-2.95681 14.16159,-9.64856 19.72508,-15.64 6.57502,-7.00299 4.51303,-6.84737 -1.4006,-5.17443" />
  <path
     style="opacity:1;fill:#f87698;fill-opacity:1"
     inkscape:connector-curvature="0"
     id="path7"
     d="m 27.418538,7.3358571 c 1.17,-4.03 4.81,-7.88999997 9.32,-7.26999997 15.07,1.86999997 28.97,9.32999997 40.41,19.09999987 15.97,13.7 27.970002,31.45 37.250002,50.21 29.25,-23.13 62.98,-40.56 98.71,-51.23 70.22,-21.0999999 148.23,-15.1799999 214.28,16.78 16.22,7.77 31.7,17.05 46.29,27.57 8.57,-15.93 19.36,-30.85 33.04,-42.78 11.34,-9.8299999 25.08,-17.3899999 40.07,-19.53999987 3.33,-0.65 6.97,0.78 8.69,3.75999997 2.76,4.77 3.35,10.3999999 4.18,15.7499999 2.15,17.9 1.79,36.03 0.02,53.95 -1.82,17.33 -5.14,34.570003 -10.88,51.040003 -0.99,3.67 -5.32,6.1 -8.91,4.6 -3.38,-1.14 -5.5,-5.19 -4.16,-8.58 8.4,-24.720003 11.78,-50.970003 11.66,-77.020003 -0.15,-9.79 -0.45,-19.69 -2.62,-29.28 -13.78,3.36 -25.78,11.71 -35.54,21.78 -11.26,11.61 -20,25.43 -27.13,39.89 -1.91,3.99 -7.53,4.85 -10.7,1.86 -37.71,-28.89 -82.73,-48.18 -129.73,-55.25 -40.59,-6.18 -82.51,-3.54 -121.98,7.83 -37.77,10.83 -73.15,29.71 -103.34,54.84 -3.27,3.16 -9.22,1.82 -10.85,-2.4 -7.480002,-17.08 -17.240002,-33.37 -30.280002,-46.81 -9.76,-10.09 -21.82,-18.48 -35.65,-21.75 -2.2,9.92 -2.81,20.11 -3.12,30.24 -0.43,31.35 3.87,63.210003 16.02,92.280003 1.54,4 3.84,7.67 5.25,11.72 0.76,2.3 -0.61,4.49 -1.72,6.41 -21.12,34.09 -34.83,72.74 -39.94,112.52 -7.8000001,59.96 3.84,122.36 33.47,175.14 30.67,55.31 80.270002,99.85 138.630002,124.26 44.76,18.91 94.42,25.88 142.67,20.38 39.46,-4.39 77.94,-17.27 112.13,-37.44 51.81,-30.42 93.56,-77.63 117.28,-132.85 23.22,-53.56 29.17,-114.36 17.09,-171.45 -0.58,-3.05 -1.95,-6.53 0.11,-9.33 2.2,-3.58 7.74,-4.12 10.62,-1.04 1.93,1.97 2.07,4.92 2.72,7.46 10.45,49.85 8.02,102.37 -7.25,150.97 -18.63,59.87 -56.85,113.35 -107.26,150.59 -46.57,34.69 -103.51,55.27 -161.53,58.16 -21.35,0.75 -42.82,0.26 -63.92,-3.34 -66.75,-10.53 -129.33,-44.86 -174.350002,-95.23 -23.45,-26.04 -42.27,-56.25 -55.26,-88.8 -27.0500001,-67.23 -28.2700001,-144.39 -3.4,-212.45 6.69,-18.42 15.21,-36.17 25.38,-52.93 -16.57,-34.94 -21.7,-74.350003 -20.16,-112.710003 0.63,-9.95 1.31,-20.07 4.39,-29.6099999 z" />
  <path
     style="opacity:1;fill:#f87698;fill-opacity:1"
     inkscape:connector-curvature="0"
     id="path18"
     d="m 522.82854,151.81586 c 1.89,-4.13 8.83,-4.27 10.77,-0.11 1.61,3.59 1.27,7.66 1.28,11.51 3.52,-0.01 7.41,2.41 6.75,6.39 0.08,3.78 -3.72,5.61 -6.99,5.78 0.16,6.79 -0.57,13.61 0.15,20.37 0.14,3.46 3.17,5.72 4.2,8.85 1.14,4.36 -3.89,8.92 -8.08,6.83 -5.05,-2.18 -9.46,-7.12 -9.53,-12.84 -0.37,-7.54 -0.19,-15.1 -0.15,-22.65 -2.22,-0.1 -4.79,0.37 -6.54,-1.33 -3.01,-2.52 -2.27,-7.98 1.27,-9.65 1.71,-0.71 3.6,-0.62 5.41,-0.82 0.07,-4.12 -0.36,-8.51 1.46,-12.33 z" />
  <path
     style="opacity:1;fill:#f87698;fill-opacity:1"
     inkscape:connector-curvature="0"
     id="path20"
     d="m 546.65854,165.59586 c 2.52,-2.61 7.38,-2.41 9.52,0.59 5.5,7.06 9.24,15.29 14.17,22.74 2.63,-6.13 5.38,-12.21 8.49,-18.1 1.19,-2.58 3.97,-4.44 6.88,-3.92 4.31,0.43 7.09,5.76 4.75,9.5 -5.08,9.94 -9.63,20.16 -13.37,30.68 -1.93,5.93 -11.89,5.71 -13.59,-0.3 -4.34,-11.33 -10.17,-22.04 -17.06,-32.01 -2.12,-2.6 -2.42,-6.82 0.21,-9.18 z" />
</svg>
