<svg height="602.70673pt" viewBox="0 0 597.14008 602.70673" width="597.14008pt" xmlns="http://www.w3.org/2000/svg"><g fill="#f87698"><path d="m206.73118 276.21379c-20.65881 1.05045-36.72678 38.04956-36.72678 38.04956-3.22915-27.93413-13.26677-34.70369-22.7208-33.76996s0 0-.0389 0c-.27233.0389-.54467.0389-.85592.0778-15.99015 2.1009-24.43264 15.64001-38.08847 39.80032 0 0-1.40059-5.68021-3.11244-15.52329-1.08935-6.45831-7.275322-6.92518-11.516022-4.78538-6.14707 2.37324-5.33005 6.76956-3.19025 22.48737.42796 3.30697.97264 7.50876 1.63403 12.83881 2.17871 17.04061 15.017522 14.47284 19.763992 7.23642 4.70756-7.23642 11.47712-30.57971 21.63145-42.91275 21.67035-26.37792 15.28985 34.12011 17.42965 58.90291 1.16717 12.99443 6.10817 15.83453 10.66011 14.2005 4.9799-1.90637 7.43095-8.71483 8.98716-17.35185 1.94528-13.57801 5.75802-24.58826 14.62847-45.67504 2.60666-5.36895 5.52458-10.50448 8.83154-14.51174 21.67036-26.33902 15.28986 34.12011 17.46856 58.94181 2.13981 24.8217 18.20777 12.52756 18.94698 3.11244 5.52457-70.1855-9.99871-83.33555-23.73235-81.11794"/><path d="m299.43517 277.66885c-15.56219 1.4006-26.41682 18.79135-36.25991 37.42708 0 0-1.32279-5.33005-2.91791-14.55065-.97264-5.56349-5.83583-6.3805-9.72637-5.01881-7.0808 2.37323-6.26379 4.31851-4.43523 18.83025.42796 3.5015 1.01154 8.24797 1.86746 14.82299 2.06199 16.02906 14.12269 13.61692 18.55792 6.80846 4.47413-6.80846 10.77682-28.71225 20.34757-40.30608 20.34757-24.78279 14.35612 32.05812 16.37921 55.3625 2.06199 23.30439 17.11841 11.74946 17.81871 2.91792 5.09662-64.81654-8.90936-77.84988-21.63145-76.29366"/><path d="m455.23996 370.31448c15.36767-1.4006 27.50618-23.61563 29.72379-44.11882 0 0 3.65712 12.02179 6.45831 21.24239 1.67294 5.56349 6.65284 6.3805 10.34886 5.01881 6.80846-2.37323 5.71911-4.31851 1.98418-18.83025-.89483-3.5015-5.99144-28.05086-7.70329-34.62588-4.16288-16.02906-15.91234-13.61692-19.45274-6.80846s-3.11244 48.51514-11.12697 60.10897c-17.15732 24.78279-18.59682-32.05812-23.69344-55.3625-5.09662-23.30439-18.67463-11.74946-18.20776-2.91792 3.42368 64.81654 19.14149 77.84988 31.66906 76.29366"/><path d="m388.03463 327.01268c-4.12398 8.13125-10.23214 16.69045-15.6011 23.22657-13.65582 16.57374-15.44548-3.46258-15.75672-25.48309.23343-31.78578 16.76826-50.53822 30.11284-24.08249.15563.27234.27234.54467.38906.77811.0389.0389.0389.0778.0778.15562 4.90209 10.38776 3.19025 20.03632.77811 25.40528m25.83324 9.80418c-.66139-7.39204-1.94527-16.53483-3.5793-22.99314 0 0-.0389 0-.0389-.0389-2.06199-9.41513-5.33005-19.53056-10.77682-27.15603-22.33175-28.90678-65.2445-11.39931-62.28768 35.13165v.0389c1.32279 65.55574 31.82469 44.78021 39.21673 36.68787 17.46856-19.1026 19.68618-27.70071 19.68618-27.70071s.89482 14.35613 4.35741 17.93543c2.56776 3.26806 7.74219 2.60667 10.81572.31124 2.062-1.51731 3.11244-2.95681 2.95682-7.74219 0 0-.15562-2.8401-.35015-4.47413"/></g><path d="m299.85535 252.10406c-4.59085 1.28388-14.82299 6.49722-20.07523 10.81572-2.25652 1.78966-3.81274 1.90637-4.2796 1.3617-5.25224-4.90209-16.57374-12.37195-23.3822-14.23941-7.7811-2.17871-11.04916-2.52886-1.67294 5.09662 8.09234 6.57502 16.92389 14.23941 21.20349 17.50747 1.08936.85592 2.37324 2.21761 4.82428 2.21761 2.41214 0 3.81274-1.12826 5.05772-1.94528 4.55194-2.95681 14.16159-9.64856 19.72508-15.64 6.57502-7.00299 4.51303-6.84737-1.4006-5.17443" fill="#eae319"/><path d="m27.418538 7.3358571c1.17-4.03 4.81-7.88999997 9.32-7.26999997 15.07 1.86999997 28.97 9.32999997 40.41 19.09999987 15.97 13.7 27.970002 31.45 37.250002 50.21 29.25-23.13 62.98-40.56 98.71-51.23 70.22-21.0999999 148.23-15.1799999 214.28 16.78 16.22 7.77 31.7 17.05 46.29 27.57 8.57-15.93 19.36-30.85 33.04-42.78 11.34-9.8299999 25.08-17.3899999 40.07-19.53999987 3.33-.65 6.97.78 8.69 3.75999997 2.76 4.77 3.35 10.3999999 4.18 15.7499999 2.15 17.9 1.79 36.03.02 53.95-1.82 17.33-5.14 34.570003-10.88 51.040003-.99 3.67-5.32 6.1-8.91 4.6-3.38-1.14-5.5-5.19-4.16-8.58 8.4-24.720003 11.78-50.970003 11.66-77.020003-.15-9.79-.45-19.69-2.62-29.28-13.78 3.36-25.78 11.71-35.54 21.78-11.26 11.61-20 25.43-27.13 39.89-1.91 3.99-7.53 4.85-10.7 1.86-37.71-28.89-82.73-48.18-129.73-55.25-40.59-6.18-82.51-3.54-121.98 7.83-37.77 10.83-73.15 29.71-103.34 54.84-3.27 3.16-9.22 1.82-10.85-2.4-7.480002-17.08-17.240002-33.37-30.280002-46.81-9.76-10.09-21.82-18.48-35.65-21.75-2.2 9.92-2.81 20.11-3.12 30.24-.43 31.35 3.87 63.210003 16.02 92.280003 1.54 4 3.84 7.67 5.25 11.72.76 2.3-.61 4.49-1.72 6.41-21.12 34.09-34.83 72.74-39.94 112.52-7.8000001 59.96 3.84 122.36 33.47 175.14 30.67 55.31 80.270002 99.85 138.630002 124.26 44.76 18.91 94.42 25.88 142.67 20.38 39.46-4.39 77.94-17.27 112.13-37.44 51.81-30.42 93.56-77.63 117.28-132.85 23.22-53.56 29.17-114.36 17.09-171.45-.58-3.05-1.95-6.53.11-9.33 2.2-3.58 7.74-4.12 10.62-1.04 1.93 1.97 2.07 4.92 2.72 7.46 10.45 49.85 8.02 102.37-7.25 150.97-18.63 59.87-56.85 113.35-107.26 150.59-46.57 34.69-103.51 55.27-161.53 58.16-21.35.75-42.82.26-63.92-3.34-66.75-10.53-129.33-44.86-174.350002-95.23-23.45-26.04-42.27-56.25-55.26-88.8-27.0500001-67.23-28.2700001-144.39-3.4-212.45 6.69-18.42 15.21-36.17 25.38-52.93-16.57-34.94-21.7-74.350003-20.16-112.710003.63-9.95 1.31-20.07 4.39-29.6099999z" fill="#f87698"/><path d="m522.82854 151.81586c1.89-4.13 8.83-4.27 10.77-.11 1.61 3.59 1.27 7.66 1.28 11.51 3.52-.01 7.41 2.41 6.75 6.39.08 3.78-3.72 5.61-6.99 5.78.16 6.79-.57 13.61.15 20.37.14 3.46 3.17 5.72 4.2 8.85 1.14 4.36-3.89 8.92-8.08 6.83-5.05-2.18-9.46-7.12-9.53-12.84-.37-7.54-.19-15.1-.15-22.65-2.22-.1-4.79.37-6.54-1.33-3.01-2.52-2.27-7.98 1.27-9.65 1.71-.71 3.6-.62 5.41-.82.07-4.12-.36-8.51 1.46-12.33z" fill="#f87698"/><path d="m546.65854 165.59586c2.52-2.61 7.38-2.41 9.52.59 5.5 7.06 9.24 15.29 14.17 22.74 2.63-6.13 5.38-12.21 8.49-18.1 1.19-2.58 3.97-4.44 6.88-3.92 4.31.43 7.09 5.76 4.75 9.5-5.08 9.94-9.63 20.16-13.37 30.68-1.93 5.93-11.89 5.71-13.59-.3-4.34-11.33-10.17-22.04-17.06-32.01-2.12-2.6-2.42-6.82.21-9.18z" fill="#f87698"/></svg>