<?xml version="1.0" encoding="UTF-8" standalone="no"?>
<!-- Created with Inkscape (http://www.inkscape.org/) -->

<svg
   xmlns:dc="http://purl.org/dc/elements/1.1/"
   xmlns:cc="http://creativecommons.org/ns#"
   xmlns:rdf="http://www.w3.org/1999/02/22-rdf-syntax-ns#"
   xmlns:svg="http://www.w3.org/2000/svg"
   xmlns="http://www.w3.org/2000/svg"
   xmlns:xlink="http://www.w3.org/1999/xlink"
   xmlns:sodipodi="http://sodipodi.sourceforge.net/DTD/sodipodi-0.dtd"
   xmlns:inkscape="http://www.inkscape.org/namespaces/inkscape"
   width="11.435897mm"
   height="3.8932524mm"
   viewBox="0 0 11.435897 3.8932524"
   version="1.1"
   id="svg122703"
   inkscape:version="0.92.0 r15299"
   sodipodi:docname="Mooz Dance HD.svg">
  <defs
     id="defs122697">
    <linearGradient
       inkscape:collect="always"
       id="linearGradient4626">
      <stop
         style="stop-color:#faba0d;stop-opacity:1;"
         offset="0"
         id="stop4622" />
      <stop
         id="stop4632"
         offset="0.44466075"
         style="stop-color:#feeec2;stop-opacity:1" />
      <stop
         id="stop4630"
         offset="0.55582595"
         style="stop-color:#feebb9;stop-opacity:1" />
      <stop
         style="stop-color:#faba0d;stop-opacity:1"
         offset="1"
         id="stop4624" />
    </linearGradient>
    <clipPath
       clipPathUnits="userSpaceOnUse"
       id="clipPath107672">
      <path
         d="M 0,0 H 595.275 V 841.89 H 0 Z"
         id="path107670"
         inkscape:connector-curvature="0" />
    </clipPath>
    <clipPath
       clipPathUnits="userSpaceOnUse"
       id="clipPath107658">
      <path
         d="m 503.545,505.665 c -0.392,-0.019 -0.747,-0.127 -1.065,-0.323 v 0 c -0.318,-0.195 -0.578,-0.466 -0.78,-0.814 v 0 c -0.191,-0.328 -0.293,-0.7 -0.303,-1.115 v 0 -0.136 c 0.008,-0.295 0.068,-0.576 0.178,-0.838 v 0 c 0.118,-0.283 0.278,-0.528 0.476,-0.737 v 0 c 0.199,-0.209 0.431,-0.374 0.694,-0.496 v 0 c 0.263,-0.122 0.536,-0.182 0.819,-0.182 v 0 c 0.327,0 0.633,0.06 0.919,0.182 v 0 c 0.287,0.122 0.535,0.287 0.746,0.496 v 0 c 0.213,0.209 0.379,0.454 0.502,0.737 v 0 c 0.121,0.282 0.182,0.584 0.182,0.905 v 0 c 0,0.27 -0.045,0.528 -0.135,0.776 v 0 c -0.09,0.246 -0.215,0.473 -0.375,0.678 v 0 l -0.086,-0.01 -0.578,-0.52 c -0.096,-0.076 -0.119,-0.17 -0.068,-0.279 v 0 c 0.052,-0.09 0.095,-0.191 0.13,-0.303 v 0 c 0.035,-0.113 0.053,-0.226 0.053,-0.342 v 0 c 0,-0.179 -0.033,-0.345 -0.101,-0.496 v 0 c -0.067,-0.151 -0.159,-0.283 -0.274,-0.395 v 0 c -0.116,-0.112 -0.252,-0.199 -0.41,-0.26 v 0 c -0.157,-0.06 -0.326,-0.091 -0.505,-0.091 v 0 c -0.321,0 -0.586,0.117 -0.795,0.351 v 0 c -0.208,0.235 -0.313,0.532 -0.313,0.891 v 0 c 0,0.174 0.027,0.337 0.082,0.491 v 0 c 0.054,0.154 0.132,0.287 0.231,0.4 v 0 c 0.1,0.112 0.217,0.201 0.352,0.265 v 0 c 0.135,0.064 0.282,0.096 0.443,0.096 v 0 c 0.198,0 0.376,-0.032 0.53,-0.096 v 0 l 0.158,-0.015 0.131,0.111 0.365,0.665 -0.048,0.125 c -0.346,0.188 -0.699,0.282 -1.056,0.282 v 0 c -0.033,0 -0.066,-0.001 -0.099,-0.003"
         id="path107656"
         inkscape:connector-curvature="0" />
    </clipPath>
    <clipPath
       clipPathUnits="userSpaceOnUse"
       id="clipPath107644">
      <path
         d="m 503.545,505.665 c -0.392,-0.019 -0.747,-0.127 -1.065,-0.323 v 0 c -0.318,-0.195 -0.578,-0.466 -0.78,-0.814 v 0 c -0.191,-0.328 -0.293,-0.7 -0.303,-1.115 v 0 -0.136 c 0.008,-0.295 0.068,-0.576 0.178,-0.838 v 0 c 0.118,-0.283 0.278,-0.528 0.476,-0.737 v 0 c 0.199,-0.209 0.431,-0.374 0.694,-0.496 v 0 c 0.263,-0.122 0.536,-0.182 0.819,-0.182 v 0 c 0.327,0 0.633,0.06 0.919,0.182 v 0 c 0.287,0.122 0.535,0.287 0.746,0.496 v 0 c 0.213,0.209 0.379,0.454 0.502,0.737 v 0 c 0.121,0.282 0.182,0.584 0.182,0.905 v 0 c 0,0.27 -0.045,0.528 -0.135,0.776 v 0 c -0.09,0.246 -0.215,0.473 -0.375,0.678 v 0 l -0.086,-0.01 -0.578,-0.52 c -0.096,-0.076 -0.119,-0.17 -0.068,-0.279 v 0 c 0.052,-0.09 0.095,-0.191 0.13,-0.303 v 0 c 0.035,-0.113 0.053,-0.226 0.053,-0.342 v 0 c 0,-0.179 -0.033,-0.345 -0.101,-0.496 v 0 c -0.067,-0.151 -0.159,-0.283 -0.274,-0.395 v 0 c -0.116,-0.112 -0.252,-0.199 -0.41,-0.26 v 0 c -0.157,-0.06 -0.326,-0.091 -0.505,-0.091 v 0 c -0.321,0 -0.586,0.117 -0.795,0.351 v 0 c -0.208,0.235 -0.313,0.532 -0.313,0.891 v 0 c 0,0.174 0.027,0.337 0.082,0.491 v 0 c 0.054,0.154 0.132,0.287 0.231,0.4 v 0 c 0.1,0.112 0.217,0.201 0.352,0.265 v 0 c 0.135,0.064 0.282,0.096 0.443,0.096 v 0 c 0.198,0 0.376,-0.032 0.53,-0.096 v 0 l 0.158,-0.015 0.131,0.111 0.365,0.665 -0.048,0.125 c -0.346,0.188 -0.699,0.282 -1.056,0.282 v 0 c -0.033,0 -0.066,-0.001 -0.099,-0.003"
         id="path107642"
         inkscape:connector-curvature="0" />
    </clipPath>
    <clipPath
       clipPathUnits="userSpaceOnUse"
       id="clipPath107630">
      <path
         d="m 506.59,503.348 c 0,-1.281 1.007,-2.32 2.249,-2.32 v 0 c 1.241,0 2.248,1.039 2.248,2.32 v 0 c 0,1.28 -1.007,2.319 -2.248,2.319 v 0 c -1.242,0 -2.249,-1.039 -2.249,-2.319 m 1.077,-0.008 c 0,0.682 0.537,1.235 1.198,1.235 v 0 c 0.663,0 1.2,-0.553 1.2,-1.235 v 0 c 0,-0.681 -0.537,-1.235 -1.2,-1.235 v 0 c -0.661,0 -1.198,0.554 -1.198,1.235"
         id="path107628"
         inkscape:connector-curvature="0" />
    </clipPath>
    <clipPath
       clipPathUnits="userSpaceOnUse"
       id="clipPath107616">
      <path
         d="m 506.59,503.348 c 0,-1.281 1.007,-2.32 2.249,-2.32 v 0 c 1.241,0 2.248,1.039 2.248,2.32 v 0 c 0,1.28 -1.007,2.319 -2.248,2.319 v 0 c -1.242,0 -2.249,-1.039 -2.249,-2.319 m 1.077,-0.008 c 0,0.682 0.537,1.235 1.198,1.235 v 0 c 0.663,0 1.2,-0.553 1.2,-1.235 v 0 c 0,-0.681 -0.537,-1.235 -1.2,-1.235 v 0 c -0.661,0 -1.198,0.554 -1.198,1.235"
         id="path107614"
         inkscape:connector-curvature="0" />
    </clipPath>
    <clipPath
       clipPathUnits="userSpaceOnUse"
       id="clipPath107606">
      <path
         d="M 0,0 H 595.275 V 841.89 H 0 Z"
         id="path107604"
         inkscape:connector-curvature="0" />
    </clipPath>
    <clipPath
       clipPathUnits="userSpaceOnUse"
       id="clipPath107592">
      <path
         d="m 512.019,505.652 -0.125,-0.135 v -0.809 l 0.039,-0.091 0.086,-0.044 1.578,-0.009 0.096,-0.057 v -0.116 l -1.924,-3.024 -0.019,-0.059 v -0.067 l 0.043,-0.091 0.091,-0.044 h 3.309 l 0.106,0.044 0.038,0.091 v 0.847 c 0,0.078 -0.048,0.123 -0.144,0.135 v 0 l -1.52,-0.009 -0.096,0.048 v 0.115 l 1.943,3.064 v 0.009 0.14 l -0.125,0.062 z"
         id="path107590"
         inkscape:connector-curvature="0" />
    </clipPath>
    <clipPath
       clipPathUnits="userSpaceOnUse"
       id="clipPath107578">
      <path
         d="m 512.019,505.652 -0.125,-0.135 v -0.809 l 0.039,-0.091 0.086,-0.044 1.578,-0.009 0.096,-0.057 v -0.116 l -1.924,-3.024 -0.019,-0.059 v -0.067 l 0.043,-0.091 0.091,-0.044 h 3.309 l 0.106,0.044 0.038,0.091 v 0.847 c 0,0.078 -0.048,0.123 -0.144,0.135 v 0 l -1.52,-0.009 -0.096,0.048 v 0.115 l 1.943,3.064 v 0.009 0.14 l -0.125,0.062 z"
         id="path107576"
         inkscape:connector-curvature="0" />
    </clipPath>
    <clipPath
       clipPathUnits="userSpaceOnUse"
       id="clipPath107564">
      <path
         d="m 495.136,505.226 -0.033,-0.053 -0.082,0.004 -0.043,0.025 -0.025,0.062 v 0.058 l -0.063,0.149 -0.167,0.063 h -0.597 l -0.164,-0.063 -0.067,-0.149 v -3.998 l 0.067,-0.164 0.162,-0.066 h 0.658 l 0.151,0.066 0.068,0.164 v 2.293 c 0,0.141 0.021,0.271 0.063,0.39 v 0 c 0.041,0.119 0.098,0.22 0.168,0.303 v 0 l 0.236,0.198 c 0.086,0.048 0.178,0.072 0.274,0.072 v 0 c 0.161,0 0.293,-0.027 0.399,-0.082 v 0 c 0.105,-0.054 0.189,-0.122 0.25,-0.202 v 0 c 0.061,-0.08 0.104,-0.167 0.13,-0.26 v 0 c 0.025,-0.094 0.039,-0.178 0.039,-0.256 v 0 -2.456 l 0.062,-0.164 0.147,-0.066 h 0.678 l 0.147,0.057 0.062,0.145 v 0.028 2.264 c 0,0.321 0.086,0.565 0.26,0.732 v 0 c 0.173,0.167 0.382,0.251 0.625,0.251 v 0 c 0.16,0 0.292,-0.028 0.395,-0.082 v 0 c 0.101,-0.055 0.183,-0.121 0.245,-0.198 v 0 c 0.061,-0.077 0.104,-0.162 0.129,-0.255 v 0 c 0.026,-0.094 0.039,-0.178 0.039,-0.256 v 0 -2.456 l 0.067,-0.164 0.171,-0.066 h 0.649 l 0.171,0.066 0.068,0.164 v 2.418 c 0,0.282 -0.041,0.541 -0.121,0.775 v 0 c -0.08,0.234 -0.194,0.437 -0.342,0.607 v 0 c -0.147,0.17 -0.323,0.302 -0.528,0.395 v 0 c -0.205,0.093 -0.437,0.14 -0.693,0.14 v 0 c -0.128,0 -0.271,-0.025 -0.428,-0.072 v 0 c -0.157,-0.049 -0.299,-0.127 -0.428,-0.236 v 0 c -0.109,-0.071 -0.24,-0.193 -0.394,-0.366 v 0 -0.01 c -0.071,-0.097 -0.138,-0.093 -0.203,0.01 v 0 c -0.14,0.205 -0.325,0.374 -0.552,0.505 v 0 c -0.228,0.132 -0.489,0.198 -0.784,0.198 v 0 c -0.321,0 -0.61,-0.154 -0.866,-0.462"
         id="path107562"
         inkscape:connector-curvature="0" />
    </clipPath>
    <clipPath
       clipPathUnits="userSpaceOnUse"
       id="clipPath107550">
      <path
         d="m 495.128,505.226 -0.034,-0.053 -0.082,0.004 -0.043,0.025 -0.024,0.062 v 0.058 l -0.063,0.149 -0.168,0.063 h -0.596 l -0.164,-0.063 -0.067,-0.149 v -3.998 l 0.067,-0.164 0.162,-0.066 h 0.657 l 0.152,0.066 0.068,0.164 v 2.293 c 0,0.141 0.02,0.271 0.062,0.39 v 0 c 0.042,0.119 0.098,0.22 0.168,0.303 v 0 l 0.236,0.198 c 0.087,0.048 0.178,0.072 0.274,0.072 v 0 c 0.161,0 0.294,-0.027 0.399,-0.082 v 0 c 0.106,-0.054 0.19,-0.122 0.25,-0.202 v 0 c 0.062,-0.08 0.105,-0.167 0.13,-0.26 v 0 c 0.026,-0.094 0.039,-0.178 0.039,-0.256 v 0 -2.456 l 0.063,-0.164 0.146,-0.066 h 0.679 l 0.146,0.057 0.063,0.145 v 0.028 2.264 c 0,0.321 0.086,0.565 0.259,0.732 v 0 c 0.173,0.167 0.382,0.251 0.626,0.251 v 0 c 0.16,0 0.291,-0.028 0.394,-0.082 v 0 c 0.102,-0.055 0.184,-0.121 0.245,-0.198 v 0 c 0.061,-0.077 0.104,-0.162 0.13,-0.255 v 0 c 0.025,-0.094 0.039,-0.178 0.039,-0.256 v 0 -2.456 l 0.066,-0.164 0.172,-0.066 h 0.649 l 0.17,0.066 0.068,0.164 v 2.418 c 0,0.282 -0.041,0.541 -0.121,0.775 v 0 c -0.08,0.234 -0.193,0.437 -0.341,0.607 v 0 c -0.148,0.17 -0.324,0.302 -0.529,0.395 v 0 c -0.205,0.093 -0.436,0.14 -0.692,0.14 v 0 c -0.129,0 -0.271,-0.025 -0.429,-0.072 v 0 c -0.156,-0.049 -0.299,-0.127 -0.427,-0.236 v 0 c -0.11,-0.071 -0.241,-0.193 -0.395,-0.366 v 0 -0.01 c -0.071,-0.097 -0.138,-0.093 -0.202,0.01 v 0 c -0.141,0.205 -0.326,0.374 -0.553,0.505 v 0 c -0.228,0.132 -0.489,0.198 -0.784,0.198 v 0 c -0.321,0 -0.609,-0.154 -0.865,-0.462"
         id="path107548"
         inkscape:connector-curvature="0" />
    </clipPath>
    <linearGradient
       inkscape:collect="always"
       xlink:href="#linearGradient4626"
       id="linearGradient4628"
       x1="223.7507"
       y1="179.80852"
       x2="223.7507"
       y2="79.200836"
       gradientUnits="userSpaceOnUse" />
    <linearGradient
       inkscape:collect="always"
       xlink:href="#linearGradient4626"
       id="linearGradient4646"
       gradientUnits="userSpaceOnUse"
       x1="223.7507"
       y1="179.80852"
       x2="223.7507"
       y2="79.200836" />
    <linearGradient
       inkscape:collect="always"
       xlink:href="#linearGradient4626"
       id="linearGradient4648"
       gradientUnits="userSpaceOnUse"
       x1="223.7507"
       y1="179.80852"
       x2="223.7507"
       y2="79.200836" />
    <linearGradient
       inkscape:collect="always"
       xlink:href="#linearGradient4626"
       id="linearGradient4650"
       gradientUnits="userSpaceOnUse"
       x1="223.7507"
       y1="179.80852"
       x2="223.7507"
       y2="79.200836" />
    <linearGradient
       inkscape:collect="always"
       xlink:href="#linearGradient4626"
       id="linearGradient4652"
       gradientUnits="userSpaceOnUse"
       x1="223.7507"
       y1="179.80852"
       x2="223.7507"
       y2="79.200836" />
  </defs>
  <sodipodi:namedview
     id="base"
     pagecolor="#ffffff"
     bordercolor="#666666"
     borderopacity="1.0"
     inkscape:pageopacity="0.0"
     inkscape:pageshadow="2"
     inkscape:zoom="22.4"
     inkscape:cx="17.347118"
     inkscape:cy="12.864286"
     inkscape:document-units="mm"
     inkscape:current-layer="layer1"
     showgrid="false"
     fit-margin-top="0"
     fit-margin-left="0"
     fit-margin-right="0"
     fit-margin-bottom="0"
     inkscape:window-width="1920"
     inkscape:window-height="1017"
     inkscape:window-x="-8"
     inkscape:window-y="-8"
     inkscape:window-maximized="1" />
  <metadata
     id="metadata122700">
    <rdf:RDF>
      <cc:Work
         rdf:about="">
        <dc:format>image/svg+xml</dc:format>
        <dc:type
           rdf:resource="http://purl.org/dc/dcmitype/StillImage" />
        <dc:title></dc:title>
      </cc:Work>
    </rdf:RDF>
  </metadata>
  <g
     inkscape:label="Layer 1"
     inkscape:groupmode="layer"
     id="layer1"
     transform="translate(80.557236,-98.505901)">
    <g
       transform="matrix(0.01607054,0,0,0.01607054,-80.733527,97.253792)"
       id="#ffc938ff"
       style="fill:url(#linearGradient4628);fill-opacity:1">
      <path
         style="opacity:1;fill:url(#linearGradient4646);fill-opacity:1"
         inkscape:connector-curvature="0"
         d="m 37.03,89.16 c 4.82,-6.05 11.73,-11.7 19.93,-11.19 11.57,-0.73 22.82,5.66 29.27,15.09 0.67,1.01 2.04,2.78 3.35,1.62 4.27,-5.09 9.13,-9.83 15.02,-12.99 10.51,-5.13 23.64,-4.02 33.38,2.33 10.82,7.13 16.35,20.28 16.71,32.92 0.16,19.03 0.39,38.05 0.32,57.08 0.14,3.04 -3.17,5.01 -5.93,4.81 -4.68,-0.03 -9.37,0.14 -14.04,-0.09 -2.91,-0.22 -5.15,-2.9 -4.95,-5.8 0.1,-17.63 0.39,-35.26 0.41,-52.89 0.29,-6.62 -3.49,-13.3 -9.6,-16.04 -8.11,-3.44 -18.53,-1.23 -23.82,6.05 -2.77,3.68 -3.85,8.37 -3.79,12.91 -0.07,16.99 0.25,33.99 0.18,50.98 0.22,2.97 -2.62,5.03 -5.38,4.88 -4.71,0 -9.42,0.09 -14.12,-0.05 -2.96,-0.02 -5.13,-2.96 -4.93,-5.8 0.1,-17.65 0.41,-35.31 0.42,-52.96 0.12,-5.77 -2.53,-11.83 -7.51,-14.96 -3.91,-2.68 -8.95,-3.24 -13.53,-2.45 -5.91,1.65 -10.18,6.85 -12.11,12.49 -1.66,5.46 -1.91,11.25 -1.21,16.91 0.22,13.64 0.2,27.3 0.22,40.95 0.42,3.06 -2.23,5.87 -5.26,5.85 -4.72,0.04 -9.44,0.1 -14.16,-0.03 -2.45,-0.1 -5.05,-2.17 -4.91,-4.77 0.01,-13 -0.03,-26.01 0.17,-39.01 0.28,-16.95 -0.2,-33.9 -0.19,-50.85 2.89,-4.47 8.59,-2.83 13.02,-3.1 3.25,0.1 7.53,-0.79 9.64,2.41 1.02,1.97 -0.13,6.26 3.4,5.7 z"
         id="path7" />
      <path
         style="opacity:1;fill:url(#linearGradient4648);fill-opacity:1"
         inkscape:connector-curvature="0"
         d="m 219.38,78.56 c 9.65,-1.22 19.58,1.23 28.05,5.87 1.24,0.49 2.26,1.81 1.2,3.04 -2.64,4.72 -5.31,9.43 -8.01,14.13 -1.1,1.98 -3.57,3.82 -5.88,2.64 -7.07,-2.83 -15.45,-3.5 -22.39,0.06 -7.45,3.67 -12.4,11.33 -13.73,19.4 -0.53,5.47 -0.53,11.16 1.45,16.37 2.66,7.5 8.92,13.98 16.84,15.73 8.61,1.69 18.1,-0.35 24.76,-6.21 8.61,-7.47 11.99,-20.67 6.91,-31.07 -1.25,-2.64 -3.82,-6.31 -0.83,-8.76 4.75,-4.24 9.15,-9.07 14.34,-12.7 14.6,16.62 15.65,43.63 2.65,61.6 -11.23,16.25 -32.47,24.78 -51.8,20.53 -14.39,-3.49 -26.62,-14.12 -32.76,-27.51 -5.33,-11 -6.06,-23.85 -3.24,-35.64 4.48,-19.68 22.05,-36.01 42.44,-37.48 z"
         id="path9" />
      <path
         style="opacity:1;fill:url(#linearGradient4650);fill-opacity:1"
         inkscape:connector-curvature="0"
         d="m 332.52,78.62 c 12.56,-1.59 25.71,2.32 35.51,10.31 11.88,9.58 18.99,24.77 18.76,40.02 0.65,15.12 -6.32,30.21 -17.89,39.89 -15.16,13.23 -38.87,15.06 -55.9,4.38 -12.86,-7.76 -21.77,-21.59 -23.65,-36.48 -0.33,-3.89 -0.1,-7.8 -0.09,-11.71 0.91,-23.08 20,-44.33 43.26,-46.41 m -0.4,24.55 c -11.43,2.8 -20.24,14.01 -19.87,25.84 -0.52,12.98 9.75,25.5 22.74,27.05 9.09,1.34 18.6,-2.68 24.09,-10.02 6.31,-8.02 7.59,-19.78 2.93,-28.89 -5.12,-10.87 -18.22,-17.16 -29.89,-13.98 z"
         id="path11" />
      <path
         style="opacity:1;fill:url(#linearGradient4652);fill-opacity:1"
         inkscape:connector-curvature="0"
         d="m 405,81.95 c -0.34,-1.73 1.19,-3.28 2.93,-2.95 24.72,0.02 49.45,-0.02 74.17,0.02 2.73,-0.07 3.9,3.46 2.19,5.4 -13.22,20.44 -26.5,40.85 -39.25,61.59 -1.28,2.48 -4.14,4.84 -2.93,7.91 11.9,0.88 23.91,-0.18 35.85,0.3 1.35,0.16 2.7,1.31 2.59,2.79 0.16,6.29 0.24,12.6 0.12,18.89 -0.16,2.31 -2.58,3.32 -4.61,3.08 -23.68,-0.06 -47.38,0.07 -71.06,-0.07 -3.1,-0.19 -3.91,-4.03 -2.58,-6.36 13.86,-21.83 28.22,-43.33 41.81,-65.33 1.35,-1.69 0.13,-4.53 -2.18,-4.28 -11.34,-0.21 -22.7,-0.04 -34.04,-0.23 -1.49,0.12 -2.88,-1.22 -2.8,-2.71 -0.31,-6.01 -0.2,-12.03 -0.21,-18.05 z"
         id="path13" />
    </g>
    <g
       transform="matrix(0.35277777,0,0,-0.35277777,-254.78959,276.90103)"
       id="g107600">
      <g
         id="g107602"
         clip-path="url(#clipPath107606)">
        <path
           d="m 493.887,499.322 h 21.755 v -4.671 h -21.755 z m 3.025,-2.064 v 0 c -0.095,0 -0.184,-0.017 -0.265,-0.053 l -0.214,-0.151 -0.145,-0.221 c -0.035,-0.083 -0.053,-0.174 -0.053,-0.273 0,-0.098 0.018,-0.19 0.053,-0.275 l 0.148,-0.224 0.219,-0.151 c 0.083,-0.035 0.172,-0.053 0.267,-0.053 0.091,0 0.177,0.018 0.254,0.053 l 0.206,0.151 0.141,0.224 c 0.034,0.085 0.051,0.177 0.051,0.275 0,0.099 -0.017,0.191 -0.051,0.275 l -0.141,0.222 -0.211,0.148 c -0.081,0.036 -0.168,0.053 -0.259,0.053 m 0.641,-1.87 v 0 -0.218 h 0.812 v 3.723 h -0.812 v -1.178 c -0.118,0.109 -0.238,0.186 -0.358,0.231 -0.12,0.046 -0.257,0.069 -0.409,0.069 -0.194,0 -0.375,-0.038 -0.547,-0.114 -0.171,-0.077 -0.319,-0.18 -0.445,-0.31 -0.125,-0.13 -0.224,-0.284 -0.297,-0.46 -0.073,-0.175 -0.109,-0.365 -0.109,-0.568 0,-0.207 0.036,-0.398 0.109,-0.574 0.073,-0.176 0.173,-0.329 0.3,-0.459 0.128,-0.131 0.277,-0.233 0.45,-0.307 0.173,-0.075 0.359,-0.112 0.559,-0.112 0.166,0 0.305,0.021 0.417,0.063 0.111,0.042 0.222,0.114 0.33,0.214 m 3.455,1.896 v 0 c -0.092,0 -0.176,-0.018 -0.256,-0.054 l -0.204,-0.149 -0.136,-0.226 c -0.034,-0.087 -0.051,-0.179 -0.051,-0.277 0,-0.095 0.018,-0.184 0.053,-0.269 l 0.141,-0.221 0.21,-0.147 c 0.081,-0.036 0.166,-0.053 0.258,-0.053 0.091,0 0.177,0.018 0.258,0.056 l 0.212,0.149 0.143,0.224 c 0.036,0.086 0.054,0.176 0.054,0.271 0,0.098 -0.018,0.189 -0.054,0.272 l -0.146,0.221 -0.217,0.149 c -0.083,0.036 -0.171,0.054 -0.265,0.054 m 0.692,-1.894 v 0 -0.218 h 0.801 V 498 H 501.7 v -0.219 c -0.108,0.102 -0.222,0.176 -0.342,0.224 -0.12,0.047 -0.257,0.071 -0.412,0.071 -0.199,0 -0.386,-0.038 -0.559,-0.115 -0.174,-0.076 -0.325,-0.181 -0.453,-0.317 -0.128,-0.135 -0.23,-0.293 -0.303,-0.472 -0.074,-0.179 -0.112,-0.374 -0.112,-0.584 0,-0.213 0.037,-0.41 0.109,-0.591 0.073,-0.181 0.174,-0.339 0.304,-0.472 0.13,-0.134 0.282,-0.239 0.458,-0.315 0.175,-0.076 0.364,-0.114 0.566,-0.114 0.162,0 0.298,0.022 0.41,0.066 0.112,0.044 0.222,0.12 0.334,0.228 m 2.006,2.61 v 0 -2.828 h 0.812 v 1.584 c 0,0.166 0.043,0.298 0.128,0.398 0.086,0.1 0.2,0.15 0.343,0.15 0.137,0 0.246,-0.041 0.328,-0.122 0.082,-0.081 0.124,-0.191 0.124,-0.33 v -1.68 h 0.811 v 1.802 c 0,0.322 -0.046,0.55 -0.137,0.685 -0.092,0.136 -0.207,0.239 -0.346,0.31 -0.139,0.071 -0.292,0.107 -0.458,0.107 -0.159,0 -0.301,-0.027 -0.427,-0.082 -0.125,-0.054 -0.248,-0.14 -0.366,-0.258 V 498 Z m 6.535,-1.752 v 0 h -0.821 c -0.115,-0.237 -0.298,-0.355 -0.548,-0.355 -0.094,0 -0.182,0.017 -0.263,0.051 l -0.211,0.137 -0.137,0.21 c -0.032,0.083 -0.048,0.172 -0.048,0.267 0,0.098 0.017,0.189 0.051,0.274 l 0.137,0.218 0.21,0.142 c 0.083,0.034 0.172,0.051 0.266,0.051 0.254,0 0.425,-0.115 0.513,-0.345 h 0.867 c -0.01,0.152 -0.056,0.299 -0.137,0.441 -0.081,0.141 -0.186,0.265 -0.315,0.371 -0.128,0.106 -0.273,0.191 -0.436,0.255 -0.162,0.063 -0.331,0.095 -0.507,0.095 -0.203,0 -0.394,-0.038 -0.572,-0.116 -0.179,-0.078 -0.334,-0.184 -0.465,-0.318 -0.131,-0.133 -0.234,-0.291 -0.31,-0.472 -0.075,-0.181 -0.113,-0.374 -0.113,-0.581 0,-0.206 0.038,-0.401 0.113,-0.584 0.076,-0.183 0.178,-0.342 0.308,-0.477 0.129,-0.135 0.281,-0.242 0.457,-0.32 0.175,-0.078 0.362,-0.117 0.562,-0.117 0.179,0 0.349,0.031 0.51,0.093 0.16,0.061 0.304,0.144 0.431,0.249 0.126,0.106 0.23,0.23 0.311,0.373 0.082,0.143 0.131,0.296 0.147,0.458 m 3.128,0.65 v 0 c -0.068,0.145 -0.151,0.252 -0.249,0.32 -0.098,0.067 -0.221,0.101 -0.37,0.101 -0.152,0 -0.282,-0.037 -0.39,-0.111 -0.109,-0.075 -0.186,-0.178 -0.234,-0.31 z m 0.72,-0.873 v 0 h -0.837 l -0.231,-0.173 c -0.072,-0.03 -0.168,-0.046 -0.286,-0.046 -0.365,0 -0.585,0.168 -0.659,0.503 h 2.099 c 0,0.142 -0.004,0.268 -0.013,0.378 -0.008,0.11 -0.022,0.208 -0.04,0.295 l -0.071,0.236 -0.109,0.203 c -0.139,0.206 -0.311,0.365 -0.518,0.477 -0.206,0.112 -0.432,0.168 -0.679,0.168 -0.203,0 -0.393,-0.039 -0.57,-0.115 -0.178,-0.076 -0.332,-0.181 -0.462,-0.314 -0.13,-0.134 -0.232,-0.292 -0.307,-0.475 -0.074,-0.183 -0.111,-0.379 -0.111,-0.589 0,-0.213 0.037,-0.41 0.111,-0.591 0.075,-0.181 0.178,-0.338 0.31,-0.47 0.132,-0.132 0.287,-0.235 0.466,-0.31 0.179,-0.074 0.375,-0.111 0.588,-0.111 0.159,0 0.309,0.022 0.449,0.066 0.14,0.044 0.268,0.106 0.383,0.188 0.115,0.081 0.214,0.179 0.297,0.294 0.083,0.115 0.146,0.244 0.19,0.386"
           style="fill:#faba0d;fill-opacity:1;fill-rule:nonzero;stroke:none"
           id="path107608"
           inkscape:connector-curvature="0" />
      </g>
    </g>
    <g
       id="g4620">
      <path
         d="m -70.52928,100.75129 v 0 1.64571 h 0.707319 c 0.09878,0 0.190853,-0.0208 0.276225,-0.0628 0.08537,-0.042 0.159456,-0.0991 0.22225,-0.1718 0.0628,-0.0727 0.112184,-0.15875 0.148167,-0.25823 0.03598,-0.0995 0.05398,-0.20602 0.05398,-0.31997 0,-0.12418 -0.0187,-0.23742 -0.05609,-0.34008 -0.03739,-0.10266 -0.08996,-0.19015 -0.157338,-0.26282 -0.06738,-0.0723 -0.148167,-0.12912 -0.242359,-0.16933 -0.09454,-0.0406 -0.198614,-0.0607 -0.312208,-0.0607 z m 0.651228,1.27317 h -0.240242 v -0.90028 h 0.199672 c 0.122767,0 0.219781,0.0413 0.290689,0.12453 0.07126,0.0829 0.106892,0.1972 0.106892,0.34219 0,0.13476 -0.03175,0.24095 -0.0956,0.31785 -0.0635,0.0773 -0.150636,0.11571 -0.261408,0.11571"
         style="fill:#faba0d;fill-opacity:1;fill-rule:nonzero;stroke:none;stroke-width:0.35277778"
         id="path107676"
         inkscape:connector-curvature="0" />
      <path
         d="m -72.380658,100.75129 v 0 1.64571 h 0.404283 v -0.62865 h 0.540809 v 0.62865 h 0.404283 v -1.64571 h -0.404283 v 0.62865 h -0.540809 v -0.62865 z"
         style="fill:#faba0d;fill-opacity:1;fill-rule:nonzero;stroke:none;stroke-width:0.35277778"
         id="path107680"
         inkscape:connector-curvature="0" />
    </g>
  </g>
</svg>
