<svg height="3.893252mm" viewBox="0 0 11.435897 3.8932524" width="11.435897mm" xmlns="http://www.w3.org/2000/svg" xmlns:xlink="http://www.w3.org/1999/xlink"><clipPath id="a"><path d="m0 0h595.275v841.89h-595.275z"/></clipPath><linearGradient id="b" gradientUnits="userSpaceOnUse" x1="223.7507" x2="223.7507" y1="179.80852" y2="79.200836"><stop offset="0" stop-color="#faba0d"/><stop offset=".44466075" stop-color="#feeec2"/><stop offset=".55582595" stop-color="#feebb9"/><stop offset="1" stop-color="#faba0d"/></linearGradient><g transform="translate(80.557236 -98.505901)"><g fill="url(#b)" transform="matrix(.01607054 0 0 .01607054 -80.733527 97.253792)"><path d="m37.03 89.16c4.82-6.05 11.73-11.7 19.93-11.19 11.57-.73 22.82 5.66 29.27 15.09.67 1.01 2.04 2.78 3.35 1.62 4.27-5.09 9.13-9.83 15.02-12.99 10.51-5.13 23.64-4.02 33.38 2.33 10.82 7.13 16.35 20.28 16.71 32.92.16 19.03.39 38.05.32 57.08.14 3.04-3.17 5.01-5.93 4.81-4.68-.03-9.37.14-14.04-.09-2.91-.22-5.15-2.9-4.95-5.8.1-17.63.39-35.26.41-52.89.29-6.62-3.49-13.3-9.6-16.04-8.11-3.44-18.53-1.23-23.82 6.05-2.77 3.68-3.85 8.37-3.79 12.91-.07 16.99.25 33.99.18 50.98.22 2.97-2.62 5.03-5.38 4.88-4.71 0-9.42.09-14.12-.05-2.96-.02-5.13-2.96-4.93-5.8.1-17.65.41-35.31.42-52.96.12-5.77-2.53-11.83-7.51-14.96-3.91-2.68-8.95-3.24-13.53-2.45-5.91 1.65-10.18 6.85-12.11 12.49-1.66 5.46-1.91 11.25-1.21 16.91.22 13.64.2 27.3.22 40.95.42 3.06-2.23 5.87-5.26 5.85-4.72.04-9.44.1-14.16-.03-2.45-.1-5.05-2.17-4.91-4.77.01-13-.03-26.01.17-39.01.28-16.95-.2-33.9-.19-50.85 2.89-4.47 8.59-2.83 13.02-3.1 3.25.1 7.53-.79 9.64 2.41 1.02 1.97-.13 6.26 3.4 5.7z"/><path d="m219.38 78.56c9.65-1.22 19.58 1.23 28.05 5.87 1.24.49 2.26 1.81 1.2 3.04-2.64 4.72-5.31 9.43-8.01 14.13-1.1 1.98-3.57 3.82-5.88 2.64-7.07-2.83-15.45-3.5-22.39.06-7.45 3.67-12.4 11.33-13.73 19.4-.53 5.47-.53 11.16 1.45 16.37 2.66 7.5 8.92 13.98 16.84 15.73 8.61 1.69 18.1-.35 24.76-6.21 8.61-7.47 11.99-20.67 6.91-31.07-1.25-2.64-3.82-6.31-.83-8.76 4.75-4.24 9.15-9.07 14.34-12.7 14.6 16.62 15.65 43.63 2.65 61.6-11.23 16.25-32.47 24.78-51.8 20.53-14.39-3.49-26.62-14.12-32.76-27.51-5.33-11-6.06-23.85-3.24-35.64 4.48-19.68 22.05-36.01 42.44-37.48z"/><path d="m332.52 78.62c12.56-1.59 25.71 2.32 35.51 10.31 11.88 9.58 18.99 24.77 18.76 40.02.65 15.12-6.32 30.21-17.89 39.89-15.16 13.23-38.87 15.06-55.9 4.38-12.86-7.76-21.77-21.59-23.65-36.48-.33-3.89-.1-7.8-.09-11.71.91-23.08 20-44.33 43.26-46.41m-.4 24.55c-11.43 2.8-20.24 14.01-19.87 25.84-.52 12.98 9.75 25.5 22.74 27.05 9.09 1.34 18.6-2.68 24.09-10.02 6.31-8.02 7.59-19.78 2.93-28.89-5.12-10.87-18.22-17.16-29.89-13.98z"/><path d="m405 81.95c-.34-1.73 1.19-3.28 2.93-2.95 24.72.02 49.45-.02 74.17.02 2.73-.07 3.9 3.46 2.19 5.4-13.22 20.44-26.5 40.85-39.25 61.59-1.28 2.48-4.14 4.84-2.93 7.91 11.9.88 23.91-.18 35.85.3 1.35.16 2.7 1.31 2.59 2.79.16 6.29.24 12.6.12 18.89-.16 2.31-2.58 3.32-4.61 3.08-23.68-.06-47.38.07-71.06-.07-3.1-.19-3.91-4.03-2.58-6.36 13.86-21.83 28.22-43.33 41.81-65.33 1.35-1.69.13-4.53-2.18-4.28-11.34-.21-22.7-.04-34.04-.23-1.49.12-2.88-1.22-2.8-2.71-.31-6.01-.2-12.03-.21-18.05z"/></g><g clip-path="url(#a)" transform="matrix(.35277777 0 0 -.35277777 -254.78959 276.90103)"><path d="m493.887 499.322h21.755v-4.671h-21.755zm3.025-2.064c-.095 0-.184-.017-.265-.053l-.214-.151-.145-.221c-.035-.083-.053-.174-.053-.273 0-.098.018-.19.053-.275l.148-.224.219-.151c.083-.035.172-.053.267-.053.091 0 .177.018.254.053l.206.151.141.224c.034.085.051.177.051.275 0 .099-.017.191-.051.275l-.141.222-.211.148c-.081.036-.168.053-.259.053m.641-1.87v-.218h.812v3.723h-.812v-1.178c-.118.109-.238.186-.358.231-.12.046-.257.069-.409.069-.194 0-.375-.038-.547-.114-.171-.077-.319-.18-.445-.31-.125-.13-.224-.284-.297-.46-.073-.175-.109-.365-.109-.568 0-.207.036-.398.109-.574s.173-.329.3-.459c.128-.131.277-.233.45-.307.173-.075.359-.112.559-.112.166 0 .305.021.417.063.111.042.222.114.33.214m3.455 1.896c-.092 0-.176-.018-.256-.054l-.204-.149-.136-.226c-.034-.087-.051-.179-.051-.277 0-.095.018-.184.053-.269l.141-.221.21-.147c.081-.036.166-.053.258-.053.091 0 .177.018.258.056l.212.149.143.224c.036.086.054.176.054.271 0 .098-.018.189-.054.272l-.146.221-.217.149c-.083.036-.171.054-.265.054m.692-1.894v-.218h.801v2.828h-.801v-.219c-.108.102-.222.176-.342.224-.12.047-.257.071-.412.071-.199 0-.386-.038-.559-.115-.174-.076-.325-.181-.453-.317-.128-.135-.23-.293-.303-.472-.074-.179-.112-.374-.112-.584 0-.213.037-.41.109-.591.073-.181.174-.339.304-.472.13-.134.282-.239.458-.315.175-.076.364-.114.566-.114.162 0 .298.022.41.066s.222.12.334.228m2.006 2.61v-2.828h.812v1.584c0 .166.043.298.128.398.086.1.2.15.343.15.137 0 .246-.041.328-.122s.124-.191.124-.33v-1.68h.811v1.802c0 .322-.046.55-.137.685-.092.136-.207.239-.346.31s-.292.107-.458.107c-.159 0-.301-.027-.427-.082-.125-.054-.248-.14-.366-.258v.264zm6.535-1.752h-.821c-.115-.237-.298-.355-.548-.355-.094 0-.182.017-.263.051l-.211.137-.137.21c-.032.083-.048.172-.048.267 0 .098.017.189.051.274l.137.218.21.142c.083.034.172.051.266.051.254 0 .425-.115.513-.345h.867c-.01.152-.056.299-.137.441-.081.141-.186.265-.315.371-.128.106-.273.191-.436.255-.162.063-.331.095-.507.095-.203 0-.394-.038-.572-.116-.179-.078-.334-.184-.465-.318-.131-.133-.234-.291-.31-.472-.075-.181-.113-.374-.113-.581 0-.206.038-.401.113-.584.076-.183.178-.342.308-.477.129-.135.281-.242.457-.32.175-.078.362-.117.562-.117.179 0 .349.031.51.093.16.061.304.144.431.249.126.106.23.23.311.373.082.143.131.296.147.458m3.128.65c-.068.145-.151.252-.249.32-.098.067-.221.101-.37.101-.152 0-.282-.037-.39-.111-.109-.075-.186-.178-.234-.31zm.72-.873h-.837l-.231-.173c-.072-.03-.168-.046-.286-.046-.365 0-.585.168-.659.503h2.099c0 .142-.004.268-.013.378-.008.11-.022.208-.04.295l-.071.236-.109.203c-.139.206-.311.365-.518.477-.206.112-.432.168-.679.168-.203 0-.393-.039-.57-.115-.178-.076-.332-.181-.462-.314-.13-.134-.232-.292-.307-.475-.074-.183-.111-.379-.111-.589 0-.213.037-.41.111-.591.075-.181.178-.338.31-.47s.287-.235.466-.31c.179-.074.375-.111.588-.111.159 0 .309.022.449.066s.268.106.383.188c.115.081.214.179.297.294s.146.244.19.386" fill="#faba0d"/></g><path d="m-70.52928 100.75129v1.64571h.707319c.09878 0 .190853-.0208.276225-.0628.08537-.042.159456-.0991.22225-.1718.0628-.0727.112184-.15875.148167-.25823.03598-.0995.05398-.20602.05398-.31997 0-.12418-.0187-.23742-.05609-.34008s-.08996-.19015-.157338-.26282c-.06738-.0723-.148167-.12912-.242359-.16933-.09454-.0406-.198614-.0607-.312208-.0607zm.651228 1.27317h-.240242v-.90028h.199672c.122767 0 .219781.0413.290689.12453.07126.0829.106892.1972.106892.34219 0 .13476-.03175.24095-.0956.31785-.0635.0773-.150636.11571-.261408.11571" fill="#faba0d"/><path d="m-72.380658 100.75129v1.64571h.404283v-.62865h.540809v.62865h.404283v-1.64571h-.404283v.62865h-.540809v-.62865z" fill="#faba0d"/></g></svg>