<?xml version="1.0" encoding="UTF-8"?>
<svg id="svg29" width="1806.5pt" height="632.57pt" version="1.1" viewBox="0 0 1806.5 632.57" xmlns="http://www.w3.org/2000/svg" xmlns:cc="http://creativecommons.org/ns#" xmlns:dc="http://purl.org/dc/elements/1.1/" xmlns:rdf="http://www.w3.org/1999/02/22-rdf-syntax-ns#">
 <metadata id="metadata35">
  <rdf:RDF>
   <cc:Work rdf:about="">
    <dc:format>image/svg+xml</dc:format>
    <dc:type rdf:resource="http://purl.org/dc/dcmitype/StillImage"/>
    <dc:title/>
   </cc:Work>
  </rdf:RDF>
 </metadata>
 <path id="path4" d="m798.2 598.97v-565.37l381.88 282.68zm171.38-192.79v-57.898h60.214v-62.531h-60.214v-60.214h-62.53v60.214h-60.214v62.53h60.214v57.898z" fill="#29b473" stroke-width="1.8527"/>
 <g id="g1041" transform="translate(-55.768,-20.732)" fill="#436d63">
  <path id="path13" transform="scale(.75)" d="m1766.2 269.21v360.11h51.906v-156.55h202.35v156.55h51.906v-360.11h-51.906v155.58h-202.35v-155.58z" stroke-width="1.3333"/>
  <path id="path15" d="m1613.8 201.91h98.597c13.955 0.45954 28.362 1.6961 41.485 4.0914 14.31 2.6524 28.279 6.9172 41.098 13.959 26 13.88 45.99 37.68 57.09 64.81 15.68 37.97 13.28 83.26-7.6 118.81-8.93 15.7-21.31 29.34-35.69 40.21-15.05 11.29-32.58 18.97-50.72 23.74-13.75 3.68-31.543 4.0405-45.663 4.4605h-98.597v-270.08m38.81 34.501v200.9l57.777-0.14074c10.686-0.26744 21.343-0.99501 31.893-2.8993 12.17-2.58 24.32-6.35 34.89-13.06 22.65-14.06 38.43-38.22 43.06-64.39 3.94-22.4 2.18-46.35-8.02-66.93-8.9287-17.967-23.955-32.222-41.66-41.377-11.385-5.8866-23.878-9.6641-36.57-10.963-8.6921-0.64838-14.887-1.1398-23.593-1.1398z"/>
 </g>
 <path id="path2-5" d="m0 0v497.93h187.58v-257.38l72.661 257.38h220.62l72.661-257.38v257.38h187.58v-497.93h-280.04l-90.504 366.67-90.504-366.67z" fill="#436e64" stroke-width="1.8527"/>
 <g id="g868" transform="translate(1.159)" fill="#29b473">
  <path id="path877" d="m292.68 550.18a42.58 41.197 0 0 0-42.58 41.197 42.58 41.197 0 0 0 42.58 41.196 42.58 41.197 0 0 0 42.58-41.196 42.58 41.197 0 0 0-42.58-41.197zm0 22.32a19.51 18.877 0 0 1 19.51 18.877 19.51 18.877 0 0 1-19.51 18.876 19.51 18.877 0 0 1-19.51-18.876 19.51 18.877 0 0 1 19.51-18.877z" style="paint-order:stroke fill markers"/>
  <path id="path4-5" d="m0 552.55v78.737h26.634v-44.004l23.159 30.046 23.159-30.047v44.005h26.632v-78.737h-25.547l-24.245 32.335-24.246-32.335z" stroke-width="1.8527"/>
  <path id="path4-9" d="m713.31 631.29v-78.742h25.475v78.742z" stroke-width="1.8527"/>
  <path id="path4-0" d="m483.21 631.29 40.577-62.531h-42.226v-16.212h83.609l-41.85 62.53h41.768v16.212z" stroke-width="1.8527"/>
 </g>
</svg>
