<?xml version="1.0" encoding="UTF-8"?>
<svg id="svg2" width="532.55pt" height="110.62pt" version="1.1" viewBox="0 0 532.55 110.62" xmlns="http://www.w3.org/2000/svg">
 <g id="#1b1c1fff" transform="translate(-.6 -.57732)">
  <path id="path5" d="m81.01 1.69c6.54 0.01 13.08-0.05 19.62 0.04 4.69 5.19 9.44 10.32 14.19 15.46 4.77-5.16 9.47-10.38 14.28-15.51 6.46 0.02 12.92-0.01 19.38 0.02 0.05 20.76 0 41.52 0.03 62.28-5.65 0.04-11.3 0.02-16.95 0.01-0.02-15.32 0.05-30.65-0.03-45.98-5.62 6.03-11.14 12.15-16.73 18.2-5.6-6.06-11.17-12.15-16.77-18.2-0.07 15.33-0.01 30.66-0.03 45.99h-17c0-20.77-0.01-41.54 0.01-62.31z" fill="#7b90c9"/>
  <path id="path7" d="m155.12 1.7c6.34-0.02 12.68-0.01 19.01-0.01 4.43 9.75 8.57 19.62 13.04 29.35 4.19-9.78 8.34-19.57 12.52-29.35 6.28 0 12.56-0.01 18.84 0-10.61 20.79-21.37 41.5-31.98 62.29-6.13 0.05-12.26 0.01-18.39 0.02 3.5-5.79 6.96-11.6 10.46-17.39-7.78-15-15.69-29.93-23.5-44.91z" fill="#bd91c3"/>
  <path id="path9" d="m225.88 2.86c11.1-2.49 23.48-3.91 34.15 0.96 7.69 3.33 10.72 13.64 6.62 20.79-2.08 3.67-6.05 5.63-9.95 6.79 3.58 0.84 7.21 2.32 9.59 5.25 3.65 4.29 3.79 10.57 2.04 15.69-2.1 5.91-7.9 9.56-13.72 11.11-10.22 2.76-21.1 1.59-31.22-1.02-0.02-4.66 0-9.32-0.02-13.98 6.06 3.03 12.9 4.74 19.7 4.15 2.66-0.33 5.47-1.11 7.41-3.08 2.93-2.91 2.4-8.73-1.47-10.58-4.49-2.09-9.6-1.15-14.38-1.38-0.01-3.54-0.01-7.07 0.01-10.61 4.94-0.24 10.68 0.99 14.84-2.41 3.55-3.01 2.09-9.57-2.49-10.67-6.95-2.03-14.48-0.43-21.13 2 0.03-4.34 0.02-8.68 0.02-13.01z" fill="#6bc6ef"/>
  <path id="path11" d="m279.43 63.99c0.02-20.77-0.03-41.54 0.02-62.3 5.7 0 11.4-0.01 17.1 0 0.05 7.16-0.01 14.32 0.03 21.48 7.78 0.02 16.35-0.66 23.08 4.04 8.24 5.67 9.34 17.52 5.82 26.2-3.06 7.11-11.2 9.83-18.36 10.33-9.22 0.53-18.46 0.16-27.69 0.25m17.01-28.87c0 5.67-0.01 11.34 0 17 3.16-0.03 6.49 0.23 9.46-1.1 5.92-2.45 5.83-12.46-0.1-14.85-2.94-1.28-6.23-1.02-9.36-1.05z" fill="#c59bc7"/>
  <path id="path13" d="m333.06 1.7c5.69-0.03 11.37-0.02 17.05 0 0.02 20.76 0.01 41.53 0 62.29-5.68 0.02-11.37 0.01-17.05 0 0-20.76-0.02-41.52 0-62.29z" fill="#c59bc7"/>
  <path id="path15" d="m361.76 1.7c5.68-0.02 11.36-0.02 17.05 0 0.04 9.72-0.05 19.45 0.05 29.18 7.13-9.69 14.13-19.48 21.22-29.19 6.78 0 13.56-0.01 20.34 0-7.54 9.69-15.18 19.3-22.71 28.99 8.23 11.08 16.4 22.2 24.58 33.32-7.18 0.01-14.37-0.01-21.55 0.01-7.33-10.78-14.56-21.63-21.89-32.41-0.08 10.8-0.01 21.59-0.03 32.39-5.69 0.02-11.38 0.01-17.06 0-0.01-20.76-0.02-41.53 0-62.29z" fill="#917eb9"/>
  <path id="path17" d="m446.07 1.69c7.18 0 14.38-0.02 21.57 0.01 7.85 20.78 15.8 41.53 23.67 62.3-6.23-0.01-12.46 0.02-18.69-0.02-1.49-4.46-3.03-8.91-4.55-13.36-7.73 0-15.45-0.01-23.18 0-1.59 4.46-3.14 8.93-4.75 13.38h-17.26c7.74-20.77 15.43-41.55 23.19-62.31m10.69 12.38c-2.81 8.18-5.38 16.45-8.07 24.68 5.19 0.01 10.38 0.01 15.58-0.01-2.51-8.22-4.88-16.49-7.51-24.67z" fill="#b081b9"/>
 </g>
 <g id="#a382b8ff" transform="translate(-.6 -.57732)">
  <path id="path20" d="m18.11 1.67c12.71 0.05 25.43-0.01 38.15 0.03-0.51 1.78-1 3.57-1.47 5.36-14.08 5.33-28.32 10.26-42.48 15.37 1.87-6.94 3.96-13.81 5.8-20.76z" fill="#a382b8"/>
 </g>
 <g id="#9161a6ff" transform="translate(-.6 -.57732)">
  <path id="path23" d="m25.77 19.86c9.4-3.44 18.84-6.82 28.24-10.27-5.05 18.17-10.16 36.33-15.3 54.47-8.42 0-16.84 0.01-25.27 0 4.08-14.74 8.27-29.45 12.33-44.2z" fill="#9161a6"/>
 </g>
 <g id="#df9fc4ff" transform="translate(-.6 -.57732)">
  <path id="path26" d="m11.77 24.88c3.86-1.5 7.79-2.84 11.7-4.2-4.14 14.44-8.11 28.92-12.23 43.36-3.55 0.02-7.09 0.02-10.64 0.01 3.7-13.06 7.48-26.11 11.17-39.17z" fill="#df9fc4"/>
 </g>
 <g id="#000000ff" transform="translate(-.6 -.57732)">
  <path id="path29" d="m509.34 70.44c5.72-0.75 11.99-0.07 16.71 3.51 4.67 3.48 6.83 9.4 7.05 15.06 0.37 6.41-1.37 13.42-6.41 17.74-5.23 4.49-12.69 5.15-19.22 3.86-5.37-1.09-10.22-4.77-12.27-9.92-2.46-6.21-2.47-13.41-0.08-19.64 2.24-5.89 8.06-9.88 14.22-10.61m1.03 8.14c-5.22 2.55-4.99 9.42-4.91 14.39-0.01 4.15 1.58 9.68 6.5 10.11 4.48 1.01 8.25-2.92 8.56-7.17 0.61-4.71 0.87-9.84-1.17-14.26-1.53-3.31-5.77-4.36-8.98-3.07z" fill="#7dcfe1"/>
  <path id="path31" d="m261.82 70.95c11.94-0.01 23.87-0.02 35.81 0 0.01 13.21 0 26.41 0 39.62-3.83-0.01-7.67-0.01-11.5 0-0.03-10.56 0.01-21.12-0.02-31.68-4.28-0.02-8.57-0.02-12.86-0.01-0.01 10.56 0 21.11 0 31.67-3.81 0.02-7.62 0.02-11.43 0-0.01-13.2-0.02-26.4 0-39.6z" fill="#4bc2c8"/>
  <path id="path33" d="m306.01 70.95c9.93-0.02 19.87 0 29.8-0.01 0.01 2.58 0.01 5.17 0 7.75-6.1 0.01-12.2-0.01-18.3 0.01-0.02 2.48-0.02 4.95 0 7.42 5.09 0.01 10.19-0.02 15.3 0.02 0.01 2.53 0.01 5.06 0 7.6-5.11 0.03-10.2 0-15.3 0.02-0.02 2.95-0.02 5.9-0.01 8.85 6.35 0.04 12.7 0.01 19.05 0.01 0.02 2.65 0.02 5.3 0.01 7.94-10.18 0.01-20.36 0-30.54 0.01-0.04-13.21-0.02-26.41-0.01-39.62z" fill="#71cbd7"/>
  <path id="path35" d="m342.76 70.95c6.1 0.03 12.21-0.11 18.32 0.07 4.28 0.17 9.03 1.68 11.33 5.58 3.12 5.53 2 13.59-3.5 17.21-4.29 3.02-9.77 2.29-14.7 2.39-0.04 4.78-0.01 9.57-0.03 14.35-3.81 0.02-7.62 0.02-11.43 0 0-13.2-0.01-26.4 0.01-39.6m11.44 7.72c0 3.38-0.12 6.76 0.13 10.13 2.55-0.26 5.95 0.44 7.58-2.13 0.88-1.98 0.91-4.49-0.31-6.34-1.83-2.14-4.92-1.54-7.4-1.66z" fill="#7dcfe1"/>
  <path id="path37" d="m435.26 70.26c5.64-0.45 11.78 0.52 16.14 4.41 4.87 4.23 6.46 11.05 6.19 17.26-0.2 5.8-2.43 11.88-7.2 15.45-5.56 4.14-13.12 4.58-19.65 2.91-5.81-1.46-10.44-6.27-11.92-12.05-1.58-6.19-1.41-13.11 1.55-18.88 2.82-5.48 8.85-8.74 14.89-9.1m0.05 8.15c-3.61 1.11-4.85 5.13-5.2 8.5-0.38 4.22-0.54 8.75 1.29 12.68 2.11 4.46 9.36 4.86 11.97 0.7 1.94-3.03 2.02-6.8 2.05-10.28-0.16-3.37-0.31-7.11-2.61-9.81-1.81-2.15-4.93-2.53-7.5-1.79z" fill="#45c2d0"/>
  <path id="path39" d="m378.95 70.95c6.34-0.01 12.69-0.02 19.03-0.01 3.53 0 7.35 0.51 10.1 2.94 4.79 4.08 4.41 13.29-1.84 15.8 6.49 1.99 8.03 10.75 4.24 15.82-2.58 3.62-7.21 5.05-11.48 5.05-6.69 0.04-13.37 0-20.05 0.01-0.01-13.2-0.02-26.41 0-39.61m11.37 7.82c0 2.66 0.01 5.32 0.01 7.97 2.35-0.04 4.77 0.25 7.07-0.37 3.32-1.08 2.91-6.72-0.46-7.41-2.2-0.36-4.42-0.19-6.62-0.19m0.01 23.85c2.41-0.01 4.84 0.16 7.23-0.17 3.93-0.74 4.16-7.17 0.4-8.35-2.49-0.58-5.08-0.3-7.61-0.36-0.03 2.96-0.04 5.92-0.02 8.88z" fill="#5fc9e3"/>
  <path id="path41" d="m464.37 70.95c10-0.02 19.99-0.02 29.99 0 0.01 2.6 0.01 5.2 0.01 7.8-6.18 0.01-12.36-0.01-18.54 0.01-0.03 10.6 0.01 21.2-0.02 31.8-3.82 0.01-7.63 0-11.44 0.01v-39.62z" fill="#5fc9e3"/>
 </g>
</svg>
