<svg width="800" height="210.42" version="1.1" viewBox="0 0 800 210.42" xml:space="preserve" xmlns="http://www.w3.org/2000/svg"><g transform="matrix(1.3333 0 0 -1.3333 -84.263 345.48)"><g transform="matrix(.20948 0 0 .20948 49.959 80.078)"><path d="m784.33 599.27h-1.419l-88.004-96.389-88.506 96.389h-1.398v-245.23h-90.362v333.27h103.94l76.324-83.309 76.253 83.309h103.49v-333.27h-90.318z" fill="#4a53a1"/><path d="m980.09 354.03 55.688 93.113-125.46 240.17h101.13l68.831-156.38h1.376l66.472 156.38h100.21l-170.86-333.28z" fill="#844696"/><g transform="translate(1274.6 362.46)"><path d="m0 0v74.381c24.322-12.619 55.186-22.901 92.194-22.901 25.308 0 62.259 8.428 62.259 43.073 0 34.603-34.613 38.394-55.229 38.394h-39.303v56.619h39.303c21.073 0 50.558 8.909 50.558 37.452 0 30.881-29.942 37.91-56.145 37.91-26.249 0-57.631-5.63-80.537-15.935v69.325c23.407 7.5 62.722 12.172 95.49 12.172 63.661 0 131.53-19.211 131.53-90.84 0-38.404-24.329-63.16-61.798-73.071v-1.376c40.284-7.927 66.954-34.574 66.954-76.762 0-80.517-79.122-102.5-144.63-102.5-32.775 0-70.684 5.15-100.64 14.058" fill="#b04595"/></g><path d="m1859.9 687.32h90.819v-333.28h-90.819zm-195.69-178.8v-91.3h19.2c29.959 0 54.782 11.223 54.782 45.399 0 34.638-24.389 45.901-54.302 45.901zm-90.339-154.48v333.28h90.819v-115.19h42.605c80.996 0 121.72-43.529 121.72-108.56 0-73.499-39.827-109.54-137.19-109.54z" fill="#844696"/><g transform="translate(2105.3 526.28)"><path d="m0 0h-1.396v-172.25h-90.823v333.28h90.823v-155.42h1.396l112.35 155.42h108.14l-121.24-154.92 131.08-178.36h-114.71z" fill="#b04595"/></g><g transform="translate(2518.8 619.44)"><path d="m0 0-42.15-130.62h83.809l-39.346 130.62zm61.778-193.8h-124.01l-25.332-71.61h-91.738l123.57 333.28h114.69l126.4-333.28h-99.237z" fill="#c64393"/></g><g transform="translate(1609.6 104.67)"><path d="m0 0v169.65h-69.332l0.307-169.65h-60.744v211.68h190.82v-211.68z" fill="#c64393"/></g><g transform="translate(1715.4 104.67)"><path d="m0 0v211.68h158.91v-41.112h-97.861v-40.186h81.906v-40.496h-81.906v-47.862h101.85v-42.026z" fill="#b04595"/></g><g transform="translate(1972.5 275.24)"><path d="m0 0v-53.687h19.94c6.946 0 12.834 2.045 17.644 6.135 4.799 4.09 7.207 10.836 7.207 20.246 0 10.02-2.513 17.076-7.517 21.172-5.011 4.089-11.303 6.134-18.864 6.134zm106.15-26.074c0-8.597-1.489-16.931-4.452-25.006-2.967-8.085-7.467-15.292-13.497-21.632-6.03-6.336-13.647-11.397-22.852-15.178-9.205-3.79-20.146-5.676-32.831-5.676h-32.516v-77.004h-60.742v211.68h88.963c13.91 0 25.822-1.687 35.744-5.068 9.914-3.369 17.989-8.027 24.234-13.957 6.236-5.936 10.782-12.991 13.648-21.171 2.866-8.176 4.301-17.176 4.301-26.989" fill="#844696"/></g><g transform="translate(2165.1 194.56)"><path d="m0 0v-47.861h29.761c9 0 15.535 2.232 19.631 6.709 4.089 4.469 6.134 10.264 6.134 17.374 0 6.703-2.098 12.346-6.282 16.917-4.201 4.57-10.698 6.861-19.483 6.861zm0 80.376v-42.951h26.381c7.775 0 13.705 1.793 17.795 5.368 4.09 3.574 6.14 8.747 6.14 15.494 0 6.75-1.896 12.117-5.676 16.106-3.787 3.985-9.874 5.983-18.259 5.983zm85.593-59.82c7.153-2.257 12.885-5.368 17.179-9.364 4.295-3.985 7.618-8.334 9.968-13.032 2.355-4.712 3.885-9.363 4.605-13.964 0.717-4.601 1.073-8.431 1.073-11.502 0-9.615-1.739-18.249-5.21-25.923-3.484-7.666-8.391-14.216-14.73-19.631-6.34-5.425-14.011-9.616-23.011-12.576-9-2.969-19.016-4.452-30.061-4.452h-105.84v211.68h104.92c11.456 0 21.424-1.437 29.913-4.302 8.485-2.865 15.541-6.85 21.17-11.96 5.621-5.115 9.811-11.249 12.576-18.406 2.761-7.16 4.143-15.03 4.143-23.619 0-2.661-0.363-5.89-1.073-9.67-0.72-3.783-2.102-7.617-4.143-11.502-2.045-3.884-4.753-7.617-8.132-11.192-3.371-3.585-7.823-6.498-13.342-8.748z" fill="#b04595"/></g><g transform="translate(2459.7 210.97)"><path d="m0 0c0 9.013-0.568 17.626-1.688 25.829-1.13 8.192-3.222 15.369-6.293 21.518-3.064 6.151-7.261 11.068-12.575 14.76-5.32 3.697-12.172 5.537-20.555 5.537-8.59 0-15.646-1.84-21.165-5.537-5.526-3.692-9.821-8.704-12.891-15.067-3.061-6.356-5.21-13.624-6.44-21.826-1.225-8.203-1.84-16.712-1.84-25.524 0-10.46 0.662-19.836 1.998-28.132 1.325-8.304 3.622-15.276 6.897-20.91 3.27-5.636 7.618-9.995 13.043-13.065 5.414-3.078 12.218-4.618 20.398-4.618 7.775 0 14.262 1.641 19.482 4.927 5.217 3.276 9.458 7.837 12.733 13.678 3.266 5.842 5.566 12.914 6.898 21.218 1.325 8.308 1.998 17.367 1.998 27.212m64.73 0.158c0-15.757-2.25-30.329-6.749-43.719-4.5-13.401-11.145-25.004-19.94-34.818-8.795-9.82-19.836-17.492-33.131-23.011-13.302-5.526-28.64-8.28-46.021-8.28-18 0-33.646 2.66-46.937 7.974-13.295 5.31-24.336 12.834-33.131 22.544-8.795 9.715-15.34 21.275-19.633 34.671-4.292 13.395-6.442 28.172-6.442 44.33 0 15.538 2.093 30.012 6.283 43.408 4.194 13.389 10.692 25.002 19.483 34.822 8.795 9.811 19.84 17.532 33.131 23.159 13.294 5.619 29.041 8.438 47.246 8.438s33.951-2.819 47.246-8.438c13.291-5.627 24.281-13.348 32.978-23.159 8.691-9.82 15.135-21.433 19.325-34.822 4.191-13.396 6.292-27.763 6.292-43.099" fill="#b04595"/></g><g transform="translate(2560.9 104.67)"><path d="m0 0v211.68h159.53v-41.417h-99.092v-170.26z" fill="#8b4696"/></g><g transform="translate(2862.8 210.97)"><path d="m0 0c0 9.013-0.568 17.626-1.688 25.829-1.13 8.192-3.223 15.369-6.293 21.518-3.064 6.151-7.261 11.068-12.576 14.76-5.32 3.697-12.171 5.537-20.555 5.537-8.589 0-15.646-1.84-21.164-5.537-5.526-3.692-9.821-8.704-12.892-15.067-3.06-6.356-5.209-13.624-6.439-21.826-1.225-8.203-1.84-16.712-1.84-25.524 0-10.46 0.662-19.836 1.997-28.132 1.325-8.304 3.622-15.276 6.898-20.91 3.269-5.636 7.621-9.995 13.042-13.065 5.415-3.078 12.219-4.618 20.398-4.618 7.776 0 14.263 1.641 19.483 4.927 5.216 3.276 9.457 7.837 12.733 13.678 3.265 5.842 5.566 12.914 6.898 21.218 1.328 8.308 1.998 17.367 1.998 27.212m64.73 0.158c0-15.757-2.25-30.329-6.75-43.719-4.5-13.401-11.145-25.004-19.94-34.818-8.794-9.82-19.836-17.492-33.13-23.011-13.302-5.526-28.641-8.28-46.022-8.28-17.999 0-33.645 2.66-46.937 7.974-13.294 5.31-24.336 12.834-33.13 22.544-8.795 9.715-15.34 21.275-19.634 34.671-4.291 13.395-6.441 28.172-6.441 44.33 0 15.538 2.092 30.012 6.286 43.408 4.191 13.389 10.689 25.002 19.48 34.822 8.794 9.811 19.839 17.532 33.131 23.159 13.294 5.619 29.041 8.438 47.245 8.438 18.205 0 33.951-2.819 47.246-8.438 13.291-5.627 24.282-13.348 32.979-23.159 8.691-9.82 15.134-21.433 19.325-34.822 4.191-13.396 6.292-27.763 6.292-43.099" fill="#b04595"/></g><g transform="translate(612.07 852.19)"><path d="m0 0v-15.803h-34.086v-93.456h-19.641v93.456h-34.086v15.803z" fill="#4a53a1"/></g><g transform="translate(695.82 808.17)"><path d="m0 0c0.226 12.642-5.193 32.28-27.541 32.28-20.092 0-28.894-18.511-30.474-32.28zm-58.244-14.223c0.454-26.861 17.61-37.923 37.476-37.923 14.223 0 22.799 2.482 30.248 5.644l3.387-14.223c-6.999-3.162-18.962-6.774-36.346-6.774-33.634 0-53.726 22.123-53.726 55.082s19.415 58.92 51.244 58.92c35.667 0 45.148-31.378 45.148-51.47 0-4.063-0.451-7.224-0.676-9.256z" fill="#4a53a1"/></g><g transform="translate(822.69 852.19)"><path d="m0 0v-109.26h-19.642v93.684h-37.472v-28.446c0-30.699-2.936-51.244-17.156-60.5-5.418-4.288-11.511-6.77-21.671-6.77l-2.032 15.575c3.837 0.679 8.125 2.257 10.836 4.517 10.157 7.449 11.286 22.799 11.286 47.178v44.021z" fill="#4a53a1"/></g><g transform="translate(924.5 808.17)"><path d="m0 0c0.225 12.642-5.193 32.28-27.541 32.28-20.092 0-28.894-18.511-30.474-32.28zm-58.244-14.223c0.454-26.861 17.61-37.923 37.476-37.923 14.223 0 22.799 2.482 30.248 5.644l3.387-14.223c-6.999-3.162-18.962-6.774-36.346-6.774-33.635 0-53.726 22.123-53.726 55.082s19.415 58.92 51.244 58.92c35.667 0 45.148-31.378 45.148-51.47 0-4.063-0.451-7.224-0.676-9.256z" fill="#4a53a1"/></g><g transform="translate(987.93 852.19)"><path d="m0 0v-47.407h4.742l41.084 47.407h24.154l-47.632-49.438c17.61-1.807 28.217-13.544 36.797-33.185 2.932-7.224 6.773-17.832 11.737-26.636h-20.768c-2.935 4.738-6.773 13.318-10.156 22.348-7.45 17.61-17.61 25.735-36.121 25.735h-3.837v-48.083h-19.642v109.26z" fill="#4a53a1"/></g><g transform="translate(1136.2 798.69)"><path d="m0 0c-21.673 0.451-46.277-3.387-46.277-24.605 0-12.867 8.579-18.965 18.735-18.965 14.224 0 23.254 9.03 26.411 18.286 0.68 2.031 1.131 4.291 1.131 6.323zm2.936-55.758-1.582 13.769h-0.675c-6.098-8.576-17.835-16.254-33.413-16.254-22.123 0-33.411 15.578-33.411 31.378 0 26.414 23.479 40.863 65.694 40.634v2.26c0 9.03-2.483 25.281-24.83 25.281-10.16 0-20.772-3.158-28.447-8.125l-4.512 13.092c9.026 5.869 22.119 9.706 35.891 9.706 33.41 0 41.538-22.798 41.538-44.696v-40.859c0-9.481 0.452-18.737 1.803-26.186z" fill="#4a53a1"/></g><g transform="translate(1206.7 852.19)"><path d="m0 0v-44.021h51.921v44.021h19.641v-109.26h-19.641v49.438h-51.921v-49.438h-19.641v109.26z" fill="#4a53a1"/></g><g transform="translate(1368.3 798.69)"><path d="m0 0c-21.673 0.451-46.277-3.387-46.277-24.605 0-12.867 8.579-18.965 18.736-18.965 14.223 0 23.253 9.03 26.411 18.286 0.679 2.031 1.13 4.291 1.13 6.323zm2.936-55.758-1.581 13.769h-0.679c-6.094-8.576-17.831-16.254-33.41-16.254-22.122 0-33.41 15.578-33.41 31.378 0 26.414 23.479 40.863 65.693 40.634v2.26c0 9.03-2.482 25.281-24.83 25.281-10.16 0-20.771-3.158-28.446-8.125l-4.513 13.092c9.026 5.869 22.119 9.706 35.891 9.706 33.411 0 41.539-22.798 41.539-44.696v-40.859c0-9.481 0.451-18.737 1.803-26.186z" fill="#4a53a1"/></g><g transform="translate(1502.8 852.19)"><path d="m0 0v-109.26h-19.642v93.684h-37.472v-28.446c0-30.699-2.936-51.244-17.156-60.5-5.418-4.288-11.515-6.77-21.671-6.77l-2.032 15.575c3.837 0.679 8.125 2.257 10.836 4.517 10.157 7.449 11.287 22.799 11.287 47.178v44.021z" fill="#4a53a1"/></g><g transform="translate(276.17 489.35)"><path d="m0 0h-66.246l8.627 62.655h66.458zm147.04 62.655 10.165 68.621h-68.965l15.966 110.39h-70.114l-15.573-110.39h-66.692l15.199 110.39h-70.113l-14.809-110.39h-70.479l-8.959-68.621h70.233l-8.404-62.655h-68.504l-8.964-68.622h68.264l-14.809-110.39h68.622l15.2 110.39h66.012l-15.574-110.39h68.622l15.966 110.39h69.764l10.17 68.622h-70.009l9.061 62.655z" fill="#98589e"/></g></g></g></svg>
