<?xml version="1.0" encoding="UTF-8" standalone="no"?>
<svg
   xmlns:dc="http://purl.org/dc/elements/1.1/"
   xmlns:cc="http://creativecommons.org/ns#"
   xmlns:rdf="http://www.w3.org/1999/02/22-rdf-syntax-ns#"
   xmlns:svg="http://www.w3.org/2000/svg"
   xmlns="http://www.w3.org/2000/svg"
   xmlns:sodipodi="http://sodipodi.sourceforge.net/DTD/sodipodi-0.dtd"
   xmlns:inkscape="http://www.inkscape.org/namespaces/inkscape"
   height="599.99622"
   width="600"
   version="1.1"
   viewBox="0 0 158.75 158.749"
   id="svg78"
   sodipodi:docname="My Zen TV.svg"
   inkscape:version="0.92.0 r15299">
  <metadata
     id="metadata82">
    <rdf:RDF>
      <cc:Work
         rdf:about="">
        <dc:format>image/svg+xml</dc:format>
        <dc:type
           rdf:resource="http://purl.org/dc/dcmitype/StillImage" />
        <dc:title></dc:title>
      </cc:Work>
    </rdf:RDF>
  </metadata>
  <sodipodi:namedview
     pagecolor="#ffffff"
     bordercolor="#666666"
     borderopacity="1"
     objecttolerance="10"
     gridtolerance="10"
     guidetolerance="10"
     inkscape:pageopacity="0"
     inkscape:pageshadow="2"
     inkscape:window-width="1920"
     inkscape:window-height="1017"
     id="namedview80"
     showgrid="false"
     fit-margin-top="0"
     fit-margin-left="0"
     fit-margin-right="0"
     fit-margin-bottom="0"
     inkscape:zoom="0.39333333"
     inkscape:cx="300.00378"
     inkscape:cy="299.99622"
     inkscape:window-x="-8"
     inkscape:window-y="-8"
     inkscape:window-maximized="1"
     inkscape:current-layer="svg78" />
  <defs
     id="defs58">
    <linearGradient
       id="h"
       gradientUnits="userSpaceOnUse"
       gradientTransform="matrix(193.29,-204.08,-204.13,-193.25,376.11,529.12)"
       x1="0"
       x2="1"
       y1="0"
       y2="0">
      <stop
         stop-color="#7d3693"
         offset="0"
         id="stop2" />
      <stop
         stop-color="#3ea6d8"
         offset=".47895"
         id="stop4" />
      <stop
         stop-color="#3ea6d8"
         offset="1"
         id="stop6" />
    </linearGradient>
    <linearGradient
       id="g"
       gradientUnits="userSpaceOnUse"
       gradientTransform="matrix(193.29,-204.08,-204.13,-193.25,393.36,545.45)"
       x1="0"
       x2="1"
       y1="0"
       y2="0">
      <stop
         stop-color="#7d3693"
         offset="0"
         id="stop9" />
      <stop
         stop-color="#3ea6d8"
         offset=".47895"
         id="stop11" />
      <stop
         stop-color="#3ea6d8"
         offset="1"
         id="stop13" />
    </linearGradient>
    <linearGradient
       id="f"
       gradientUnits="userSpaceOnUse"
       gradientTransform="matrix(193.29,-204.08,-204.13,-193.25,358.07,512.04)"
       x1="0"
       x2="1"
       y1="0"
       y2="0">
      <stop
         stop-color="#7d3693"
         offset="0"
         id="stop16" />
      <stop
         stop-color="#3ea6d8"
         offset=".47895"
         id="stop18" />
      <stop
         stop-color="#3ea6d8"
         offset="1"
         id="stop20" />
    </linearGradient>
    <linearGradient
       id="e"
       gradientUnits="userSpaceOnUse"
       gradientTransform="matrix(193.29,-204.08,-204.13,-193.25,336.83,491.94)"
       x1="0"
       x2="1"
       y1="0"
       y2="0">
      <stop
         stop-color="#7d3693"
         offset="0"
         id="stop23" />
      <stop
         stop-color="#3ea6d8"
         offset=".47895"
         id="stop25" />
      <stop
         stop-color="#3ea6d8"
         offset="1"
         id="stop27" />
    </linearGradient>
    <linearGradient
       id="d"
       gradientUnits="userSpaceOnUse"
       gradientTransform="matrix(193.29,-204.08,-204.13,-193.25,347.05,501.61)"
       x1="0"
       x2="1"
       y1="0"
       y2="0">
      <stop
         stop-color="#7d3693"
         offset="0"
         id="stop30" />
      <stop
         stop-color="#3ea6d8"
         offset=".47895"
         id="stop32" />
      <stop
         stop-color="#3ea6d8"
         offset="1"
         id="stop34" />
    </linearGradient>
    <linearGradient
       id="c"
       gradientUnits="userSpaceOnUse"
       gradientTransform="matrix(193.29,-204.08,-204.13,-193.25,364.8,518.41)"
       x1="0"
       x2="1"
       y1="0"
       y2="0">
      <stop
         stop-color="#7d3693"
         offset="0"
         id="stop37" />
      <stop
         stop-color="#3ea6d8"
         offset=".47895"
         id="stop39" />
      <stop
         stop-color="#3ea6d8"
         offset="1"
         id="stop41" />
    </linearGradient>
    <linearGradient
       id="b"
       gradientUnits="userSpaceOnUse"
       gradientTransform="matrix(193.29,-204.08,-204.13,-193.25,382.8,535.45)"
       x1="0"
       x2="1"
       y1="0"
       y2="0">
      <stop
         stop-color="#7d3693"
         offset="0"
         id="stop44" />
      <stop
         stop-color="#3ea6d8"
         offset=".47895"
         id="stop46" />
      <stop
         stop-color="#3ea6d8"
         offset="1"
         id="stop48" />
    </linearGradient>
    <linearGradient
       id="a"
       gradientUnits="userSpaceOnUse"
       gradientTransform="matrix(193.29,-204.08,-204.13,-193.25,365.11,518.71)"
       x1="0"
       x2="1"
       y1="0"
       y2="0">
      <stop
         stop-color="#7d3693"
         offset="0"
         id="stop51" />
      <stop
         stop-color="#3ea6d8"
         offset=".47895"
         id="stop53" />
      <stop
         stop-color="#3ea6d8"
         offset="1"
         id="stop55" />
    </linearGradient>
  </defs>
  <g
     transform="translate(-366.629,-353.93)"
     id="g76">
    <path
       d="m 418.11,456.95 c -1.7379,0 -3.1566,1.3829 -3.1566,3.1027 0,1.8261 1.3832,3.2622 3.1566,3.2622 h 6.8274 v 23.899 c 0,1.9325 1.5783,3.4927 3.4935,3.4927 1.9862,0 3.5999,-1.5602 3.5999,-3.4927 v -23.899 h 6.8274 c 1.7556,0 3.1566,-1.4184 3.1566,-3.1558 0,-1.773 -1.401,-3.209 -3.1566,-3.209 z"
       id="path60"
       inkscape:connector-curvature="0"
       style="fill:url(#h)" />
    <path
       d="m 469.93,459.2 -8.7426,22.623 -8.8313,-22.694 c -0.53201,-1.3652 -1.8266,-2.1807 -3.3516,-2.1807 -2.1812,0 -3.6708,1.773 -3.6708,3.5459 0,0.40778 0.0532,0.88647 0.26601,1.2942 l 10.392,25.513 c 0.83347,2.0566 2.8728,3.4041 5.1427,3.4041 h 0.12414 c 2.2699,0 4.2383,-1.3474 5.1427,-3.4041 l 10.392,-25.513 c 0.19507,-0.40778 0.26601,-0.88647 0.26601,-1.2233 0,-1.9148 -1.5074,-3.6168 -3.7772,-3.6168 -1.4364,0 -2.7842,0.81556 -3.3516,2.2516"
       id="path62"
       inkscape:connector-curvature="0"
       style="fill:url(#g)" />
    <path
       d="m 478.58,377.4 -7.4835,11.772 -7.5722,-11.79 c -0.62067,-0.93967 -1.7024,-1.5247 -2.8374,-1.5247 -2.1103,0 -3.4048,1.6843 -3.4048,3.2622 0,0.65599 0.19507,1.2942 0.532,1.7552 l 9.8244,14.804 v 10.496 c 0,1.9148 1.5428,3.4573 3.458,3.4573 1.933,0 3.5112,-1.5425 3.5112,-3.4573 v -10.496 l 9.7179,-14.769 c 0.3192,-0.4787 0.49653,-1.0992 0.49653,-1.7907 0,-1.7552 -1.5428,-3.2622 -3.3694,-3.2622 -1.135,0 -2.199,0.56734 -2.8728,1.5425"
       id="path64"
       inkscape:connector-curvature="0"
       style="fill:url(#f)" />
    <path
       d="m 433.87,381.85 c -1.0817,-3.5636 -4.0432,-5.9926 -8.9022,-5.9926 -4.9122,0 -8.4057,3.5104 -10.587,5.2479 -1.7379,1.3829 -7.1998,4.5742 -7.1998,7.3755 v 17.375 c 0,1.968 1.5428,3.5636 3.5644,3.5636 2.0216,0 3.6354,-1.5956 3.6354,-3.5636 v -19.29 c 1.4187,-2.0744 4.327,-4.2905 7.4303,-4.2905 3.7595,0 5.32,2.3403 5.32,5.7798 v 18.013 c 0,1.9325 1.5428,3.5636 3.5644,3.5636 2.0216,0 3.6354,-1.6311 3.6354,-3.5636 v -19.556 c 1.4187,-2.0212 4.327,-4.2374 7.4835,-4.2374 3.795,0 5.2668,2.3403 5.2668,5.7798 v 18.013 c 0,1.9325 1.6137,3.5636 3.5822,3.5636 2.0926,0 3.7063,-1.6311 3.7063,-3.5636 v -20.371 c 0,-6.5954 -3.4403,-9.8399 -9.3633,-9.8399 -4.9476,0 -9.2569,3.0317 -11.137,5.9926"
       id="path66"
       inkscape:connector-curvature="0"
       style="fill:url(#e)" />
    <path
       d="m 401.37,416.42 c -1.7024,0 -3.1388,1.4716 -3.1388,3.209 0,1.8971 1.4364,3.3509 3.1388,3.3509 h 13.371 l -15.676,20.974 c -0.49654,0.70918 -0.83347,1.5425 -0.83347,2.3758 0,2.2516 1.6315,3.8473 3.5467,3.8473 h 20.411 c 1.6315,0 3.0679,-1.4716 3.0679,-3.3509 0,-1.7552 -1.4364,-3.1381 -3.0679,-3.1381 h -13.921 l 15.889,-21.258 c 0.47881,-0.63826 0.74481,-1.4716 0.74481,-2.3758 0,-2.1098 -1.7024,-3.6346 -3.4048,-3.6346 z"
       id="path68"
       inkscape:connector-curvature="0"
       style="fill:url(#d)" />
    <path
       d="m 428.62,433.14 c 0,10.602 7.5722,17.605 17.733,17.605 4.3447,0 13.034,-1.7375 13.034,-5.5493 0,-1.7907 -1.6137,-3.0495 -3.1566,-3.0495 -0.47881,0 -1.0463,0.14184 -1.5251,0.42551 -2.3231,1.4538 -5.125,2.2162 -7.5899,2.2162 -6.2954,0 -10.144,-4.2374 -10.64,-9.2194 h 22.273 c 2.0571,0 3.6708,-1.6666 3.6708,-3.6168 0,-2.1453 -2.1635,-16.329 -16.616,-16.329 -10.037,0 -17.184,7.8187 -17.184,17.517 m 17.184,-11.577 c 6.5791,0 9.2569,4.9997 9.381,8.8825 h -18.78 c 0.35467,-4.0246 3.2275,-8.8825 9.3987,-8.8825"
       id="path70"
       inkscape:connector-curvature="0"
       style="fill:url(#c)" />
    <path
       d="m 473.03,421.09 c -1.8266,1.4361 -7.5013,4.7515 -7.5013,7.6591 v 18.066 c 0,2.0389 1.6138,3.7232 3.724,3.7232 2.0926,0 3.7772,-1.6843 3.7772,-3.7232 v -20.052 c 1.4719,-2.163 4.4866,-4.4856 7.7141,-4.4856 3.9191,0 5.5328,2.4644 5.5328,6.028 v 18.722 c 0,2.0212 1.6137,3.7232 3.724,3.7232 2.0926,0 3.7772,-1.702 3.7772,-3.7232 v -23.545 c 0,-0.65599 -0.37241,-1.6311 -0.37241,-1.6311 -1.1172,-3.7232 -4.3447,-6.2231 -9.381,-6.2231 -5.1072,0 -8.7426,3.6523 -10.995,5.4607"
       id="path72"
       inkscape:connector-curvature="0"
       style="fill:url(#b)" />
    <path
       d="m 389.86,377.19 c -14.985,14.981 -23.231,34.909 -23.231,56.114 0,21.204 8.2461,41.132 23.231,56.114 15.003,14.999 34.935,23.261 56.144,23.261 21.191,0 41.142,-8.262 56.144,-23.261 14.985,-14.981 23.231,-34.909 23.231,-56.114 0,-21.204 -8.2461,-41.132 -23.231,-56.114 -14.99,-15 -34.94,-23.26 -56.14,-23.26 -21.209,0 -41.142,8.262 -56.144,23.261 m 4.788,107.46 c -13.73,-13.73 -21.28,-31.95 -21.28,-51.35 0,-19.396 7.5545,-37.622 21.28,-51.345 13.708,-13.705 31.956,-21.275 51.356,-21.275 19.4,0 37.63,7.5705 51.356,21.275 13.726,13.723 21.262,31.949 21.262,51.345 0,19.396 -7.5367,37.622 -21.262,51.345 -13.726,13.705 -31.956,21.275 -51.356,21.275 -19.4,0 -37.648,-7.5705 -51.356,-21.275"
       id="path74"
       inkscape:connector-curvature="0"
       style="fill:url(#a)" />
  </g>
</svg>
