<svg height="176.36482" width="600.00006" xmlns="http://www.w3.org/2000/svg"><g transform="matrix(1.348813620194 0 0 1.348813620194 -256.158671237428 -341.631479589334)"><path d="m189.91406 253.28334h145.15401v130.75512h-145.15401z" fill="#f57709"/><path d="m320.42345 253.28294v130.75552h33.32984v-71.78735c3.89703 6.1532 8.86012 12.86019 14.35747 19.99791 13.57806 17.65968 28.12029 34.80677 42.55964 51.78944h28.20217v-130.75552h-33.84261v69.73627c-9.31184-15.25993-21.45448-30.29442-32.81707-44.09794-7.05567-8.57346-14.41916-17.12657-21.5362-25.63833zm176.90453 19.48513c-16.28547.26664-31.58627 4.51235-43.58517 15.89577l11.79363 17.43407c6.87108-4.82001 15.93646-10.5835 24.61281-10.7681 3.40477.12306 5.90674 1.1486 7.6915 3.0766 1.86647 2.01005 2.52314 3.91737 2.56383 6.1532-.20511 11.07576-10.33738 23.58711-17.43407 31.27877-5.29175 5.7635-11.03474 11.7116-17.43407 17.43407l-15.383 13.84471.51277 16.9213h88.19588v-25.12557h-39.99581l12.81917-12.81917c11.19882-11.56802 26.47895-27.1768 26.1511-44.61071-.45123-21.5362-22.21305-28.79682-40.50857-28.71494zm89.73418 1.5383-48.71284 61.01925v15.89577h49.22561v32.81707h34.35537v-32.81707h12.81917v-20.51067h-12.81917v-56.40435zm.51277 27.17664v29.22771h-22.04897z" fill="#0d3a59"/></g></svg>