<svg height="300.90848" viewBox="0 0 999.00002 282.10171" width="1065.6" xmlns="http://www.w3.org/2000/svg"><g transform="translate(42 -378.26047)"><g fill="#fff"><path d="m294.42969 6.4785156v294.4296844h73.60742v-172.14648l134.1543 172.14648h72.41992v-294.4296844h-74.79297v172.1464844l-134.15625-172.1464844z" transform="matrix(.93750004 0 0 .93750004 -42 378.26047)"/><path d="m532.31544 660.36218v-51.19866l89.04115-87.92814c17.77545-17.25322 26.34204-27.94808 26.34204-46.72253 0-21.28978-15.72048-34.2641-35.59827-34.2641-34.37774 0-55.91415 30.26156-55.91415 30.26156l-38.20598-43.96719s34.23257-48.28265 101.18072-48.28265c62.2398 0 95.18588 39.16939 95.18588 89.09633 0 35.56705-16.14812 58.35326-40.67856 82.81695l-47.85962 47.85962h85.70211v62.32881z"/><path d="m922.49655 660.36218h-63.44182v-44.52058h-121.31857v-48.12361l89.55573-183.38338h70.09048l-84.98847 170.2912h46.66083v-30.05139l21.14728-43.40756h42.29454v72.34594h34.50345v62.3288h-34.50345z"/></g><path d="m-42 660.36218v-276.02756h276.02756v276.02756z" fill="#f18825" fill-rule="evenodd"/></g></svg>