<svg height="3.165616mm" viewBox="0 0 27.62125 11.21675" width="7.795331mm" xmlns="http://www.w3.org/2000/svg" xmlns:xlink="http://www.w3.org/1999/xlink"><clipPath id="a"><path d="m0 0h595.276v595.276h-595.276z"/></clipPath><linearGradient id="b" gradientTransform="matrix(22.141464 0 0 -22.141464 326.40205 311.14618)" gradientUnits="userSpaceOnUse" spreadMethod="pad" x1="0" x2="1" y1="0" y2="0"><stop offset="0" stop-color="#300609"/><stop offset="1" stop-color="#88070b"/></linearGradient><clipPath id="c"><path d="m0 0h595.276v595.276h-595.276z"/></clipPath><clipPath id="d"><path d="m0 0h595.276v595.276h-595.276z"/></clipPath><clipPath id="e"><path d="m0 0h595.276v595.276h-595.276z"/></clipPath><clipPath id="f"><path d="m0 0h595.276v595.276h-595.276z"/></clipPath><path d="m9.58601.72830975c-.27122 1.29045005-.52196 2.58575995-.81896 3.87019995l-1.02752.32593-2.96653.86731.46956-2.81185.83969-2.17655995.21856-.10238 2.01563-.16406 1.20312.13672z" fill-rule="evenodd"/><g clip-path="url(#f)" transform="matrix(1.25 0 0 -1.25 -408.002496 393.53675)"><g transform="translate(335.0037 311.4138)"><path d="m0 0c0 .01.001.019.002.027.002.013.005.029.008.043l.204.87c.008.036.014.072.02.108.007.042.011.087.011.136 0 .198-.068.348-.202.444-.121.086-.28.13-.474.13-.212-.003-.394-.055-.541-.154-.153-.104-.258-.274-.311-.504l-.038-.163h.339l.026.1c.032.126.089.221.176.289.082.065.195.097.337.097h.013c.06 0 .115-.005.164-.014.039-.008.072-.021.098-.04.024-.016.042-.037.056-.065.014-.027.022-.069.022-.12 0-.08-.012-.125-.022-.148-.012-.029-.029-.05-.05-.066-.025-.018-.053-.03-.086-.037-.045-.009-.094-.013-.147-.013-.043 0-.086-.001-.13-.002-.043-.001-.088-.003-.129-.005-.105 0-.209-.008-.307-.024-.108-.018-.206-.051-.291-.101-.091-.053-.165-.127-.22-.222-.056-.095-.084-.215-.084-.358 0-.1.02-.187.058-.262.039-.073.091-.134.157-.181.061-.044.132-.076.211-.096.074-.019.152-.029.231-.029.195 0 .361.039.495.114.035.02.07.043.102.069.048-.098.147-.155.279-.155.05 0 .097.004.142.013l.108.02v.359l-.172-.053c-.006-.002-.022-.006-.055-.007m-.899-.028c-.05 0-.097.006-.141.017-.04.011-.075.027-.105.048-.025.018-.044.04-.058.067s-.021.061-.021.104c0 .081.014.144.042.188.03.046.067.08.113.104.054.028.116.047.185.057.078.012.158.02.237.025.051 0 .107 0 .168.002.066.001.131.005.194.013.025.003.05.006.074.01l-.016-.069c-.023-.086-.054-.165-.093-.237-.037-.068-.084-.126-.139-.174-.054-.048-.118-.087-.191-.114-.071-.027-.155-.041-.249-.041"/></g><g transform="translate(337.4361 311.4131)"><path d="m0 0c-.024 0-.049 0-.076.002-.011 0-.02.001-.028.003-.001.003-.001.006-.001.01.002.027.006.054.011.081.007.034.014.067.021.099l.253 1.188h.388l.066.334h-.384l.117.559h-.344l-.117-.559h-.221-.115-.233l-.195-.923c-.021-.103-.052-.209-.091-.313-.036-.099-.084-.188-.143-.264-.055-.073-.124-.134-.204-.18-.074-.043-.166-.065-.273-.065-.1 0-.178.024-.238.074-.053.043-.079.112-.081.207 0 .035.004.07.011.104l.285 1.36h-.344l-.243-1.158c-.009-.047-.018-.093-.027-.14-.011-.056-.017-.111-.017-.166 0-.199.065-.354.193-.46.121-.101.276-.152.461-.152.194 0 .36.047.493.14l-.021-.102h.342l.368 1.704h.223l-.245-1.154-.002-.01c-.004-.031-.009-.062-.016-.092-.008-.042-.013-.085-.013-.129 0-.064.014-.121.04-.167.027-.048.065-.086.112-.112.039-.021.083-.035.131-.042.038-.005.078-.008.119-.008.036 0 .07.001.105.004l.195.013.074.372-.201-.048c-.02-.004-.059-.01-.135-.01"/></g></g><path d="m0 0-.138-.625h.349l.137.625z" transform="matrix(1.25 0 0 -1.25 14.95925 1.26163)"/><path d="m0 0-.432-2.039h.344l.436 2.039z" transform="matrix(1.25 0 0 -1.25 14.786 2.12338)"/><g clip-path="url(#e)" transform="matrix(1.25 0 0 -1.25 -408.002496 393.53675)"><g transform="translate(339.8589 311.9269)"><path d="m0 0-.032-.088c-.057-.159-.134-.275-.231-.344-.098-.07-.212-.106-.343-.109-.165 0-.282.041-.359.126-.08.09-.119.211-.119.372 0 .116.016.235.049.353.031.115.079.219.141.309.061.088.137.159.227.214.086.052.186.077.305.077.141 0 .247-.032.325-.097.07-.061.105-.151.105-.277v-.133h.334v.133c0 .225-.072.403-.214.528-.137.12-.322.181-.55.181-.172 0-.327-.039-.462-.116-.131-.075-.243-.176-.332-.3-.087-.121-.153-.259-.197-.411-.044-.149-.066-.304-.066-.461 0-.25.071-.452.21-.601.142-.152.345-.229.603-.229.103 0 .204.017.299.049.096.032.184.08.263.141.079.062.148.137.205.223.057.087.101.185.13.293l.045.167z"/></g><g transform="translate(341.7836 313.0417)"><path d="m0 0c-.12.086-.279.13-.474.13-.212-.003-.394-.054-.54-.154-.153-.104-.258-.274-.312-.504l-.038-.163h.34l.025.1c.032.126.09.221.176.289.082.065.195.098.337.098l.014-.001c.059 0 .115-.005.163-.014.04-.008.073-.021.099-.039.023-.017.041-.038.056-.066.014-.027.021-.069.021-.12 0-.08-.012-.124-.022-.147-.012-.03-.029-.051-.05-.067-.024-.018-.052-.03-.086-.037-.044-.008-.094-.013-.147-.013-.042 0-.085-.001-.129-.002s-.089-.003-.129-.005c-.106 0-.209-.008-.308-.024-.108-.017-.205-.051-.29-.101-.091-.053-.166-.127-.221-.222s-.083-.215-.083-.358c0-.099.019-.187.058-.261.038-.074.091-.135.156-.182.062-.044.133-.076.212-.096.073-.019.151-.028.231-.028.194 0 .361.038.494.113.036.02.07.043.103.069.048-.098.146-.155.279-.155.049 0 .097.004.141.013l.109.02v.359l-.172-.053c-.006-.002-.022-.005-.056-.007.001.01.001.019.002.027.002.013.005.028.008.044l.205.87c.007.035.014.071.02.107.006.042.01.088.01.136 0 .198-.068.348-.202.444m-.941-1.656c-.051 0-.098.006-.141.018-.04.01-.076.026-.105.047-.026.018-.045.04-.059.067s-.021.062-.021.104c0 .081.014.145.042.188.03.046.067.08.114.104.053.028.115.047.184.058.079.011.158.02.238.024.05 0 .106.001.167.002.066.001.132.005.194.013.026.003.051.006.075.01l-.017-.069c-.022-.086-.054-.165-.093-.237-.037-.067-.084-.126-.138-.174-.055-.048-.119-.086-.191-.114-.072-.027-.156-.041-.249-.041"/></g></g><path d="m0 0-.569-2.728h.344l.573 2.728z" transform="matrix(1.25 0 0 -1.25 20.22987 1.26163)"/><g clip-path="url(#d)" transform="matrix(1.25 0 0 -1.25 -408.002496 393.53675)"><g transform="translate(328.7903 309.4414)"><path d="m0 0s2.12.946 3.861 1.459l-.758 1.652-.447-1.875-.96-.335.826 3.862h.714l.782-1.652.357 1.696h.915l.089.581c-2.143 0-3.511-.669-4.687-2.188-.536-.692-.871-1.959-.692-3.2" fill="#6b0307"/></g><g transform="translate(334.1067 312.9078)"><path d="m0 0c .125.085.281.129.467.131.166 0 .297-.035.395-.105s.147-.182.147-.336c0-.042-.003-.08-.009-.114-.006-.035-.012-.069-.019-.104l-.203-.865c-.005-.021-.008-.04-.011-.057-.002-.017-.003-.039-.003-.064 0-.048.011-.079.033-.093.021-.014.046-.021.074-.021.05 0 .09.005.12.014v-.069c-.036-.007-.075-.01-.117-.01-.119 0-.179.06-.179.179 0 .046.004.082.012.109.008.026.015.054.022.084h-.007c-.082-.138-.181-.239-.294-.303-.114-.065-.257-.097-.43-.097-.069 0-.135.008-.198.024s-.119.042-.167.076c-.049.035-.087.08-.116.135s-.043.122-.043.2c0 .119.022.216.066.291.043.075.101.133.172.174.071.042.153.07.245.085s.187.022.286.022c.046.002.09.004.133.005.042.001.084.002.126.002.062 0 .119.005.172.016.053.01.1.03.14.06s.071.07.093.121c.022.05.033.117.033.2 0 .073-.012.134-.037.181-.024.047-.056.085-.098.113-.041.029-.091.049-.148.061-.058.011-.121.017-.19.017-.179.002-.323-.04-.433-.126-.109-.086-.183-.206-.222-.36h-.069c.046.198.132.339.257.424m.864-.676c-.023-.025-.059-.045-.107-.058-.048-.014-.102-.025-.16-.032-.059-.006-.119-.01-.182-.012-.062-.001-.118-.001-.168-.001-.086-.005-.17-.014-.254-.026-.084-.013-.159-.036-.226-.071-.066-.034-.121-.084-.164-.15-.042-.065-.063-.152-.063-.26 0-.065.012-.12.036-.166s.057-.084.1-.114c.042-.03.091-.052.146-.067.056-.015.114-.022.176-.022.111 0 .209.016.297.05.087.033.164.079.231.138.067.058.122.128.167.21s.08.171.105.267l.073.307z" fill="#6b0307"/></g><g transform="translate(336.5015 311.225)"><path d="m0 0 .045.221.045.2-.007.007c-.081-.145-.177-.259-.29-.342-.112-.083-.255-.124-.427-.124-.154 0-.28.04-.376.121-.097.08-.145.2-.145.358 0 .046.004.093.014.14.009.047.018.094.027.14l.221 1.051h.072l-.224-1.069c-.009-.043-.018-.087-.027-.131-.01-.043-.014-.087-.014-.131.002-.138.045-.241.129-.31s.192-.103.323-.103.244.027.339.082c.096.056.177.127.243.214.067.087.121.187.162.298.042.112.074.223.097.333l.172.817h.076l-.383-1.772z" fill="#6b0307"/></g><g transform="translate(337.6395 313.5562)"><path d="m0 0-.117-.559h.386l-.014-.069h-.386l-.276-1.293c-.007-.032-.014-.065-.021-.1-.006-.034-.011-.069-.013-.103 0-.042.007-.073.022-.093.015-.021.034-.035.057-.043.023-.009.049-.013.078-.014.028-.001.055-.002.081-.002.071 0 .126.005.165.014l-.014-.069c-.032-.002-.063-.005-.095-.007-.031-.002-.062-.003-.094-.003-.035 0-.068.002-.1.006-.033.005-.061.014-.087.028-.025.014-.045.034-.06.06-.015.027-.022.061-.022.102 0 .035.003.068.01.102.007.033.013.067.017.102l.28 1.313h-.335l.014.069h.334l.118.559z" fill="#6b0307"/></g></g><path d="m0 0-.079-.358h.075l.08.358zm-.138-.689-.376-1.772h.073l.379 1.772z" fill="#6b0307" transform="matrix(1.25 0 0 -1.25 15.09312 1.42813)"/><g clip-path="url(#c)" transform="matrix(1.25 0 0 -1.25 -408.002496 393.53675)"><g transform="translate(339.9077 312.8406)"><path d="m0 0c-.101.086-.238.129-.41.129-.143 0-.268-.032-.375-.096-.106-.065-.196-.149-.267-.252s-.125-.22-.16-.35c-.036-.13-.054-.259-.054-.388 0-.193.052-.347.154-.46.102-.114.254-.171.457-.171.161.005.301.049.421.134.119.086.212.221.279.407h.069c-.026-.094-.063-.178-.112-.253-.05-.075-.108-.139-.176-.191-.068-.053-.143-.094-.224-.121-.082-.028-.168-.042-.257-.042-.221 0-.389.063-.505.187-.117.124-.175.294-.175.51 0 .145.021.286.061.424s.099.262.177.371.175.196.29.262c.115.065.247.098.397.098.195 0 .349-.049.462-.148.112-.099.169-.241.169-.428h-.069c0 .166-.051.292-.152.378" fill="#6b0307"/></g><g transform="translate(340.844 312.9078)"><path d="m0 0c .125.085.281.129.467.131.166 0 .297-.035.395-.105s.147-.182.147-.336c0-.042-.003-.08-.009-.114-.006-.035-.012-.069-.019-.104l-.203-.865c-.005-.021-.008-.04-.011-.057-.002-.017-.003-.039-.003-.064 0-.048.011-.079.033-.093.021-.014.046-.021.074-.021.05 0 .091.005.12.014v-.069c-.036-.007-.075-.01-.117-.01-.119 0-.179.06-.179.179 0 .046.004.082.012.109.008.026.015.054.022.084h-.007c-.082-.138-.181-.239-.294-.303-.114-.065-.257-.097-.43-.097-.069 0-.135.008-.198.024s-.119.042-.167.076c-.048.035-.087.08-.116.135-.028.055-.043.122-.043.2 0 .119.022.216.066.291.043.075.101.133.172.174.071.042.153.07.245.085s.187.022.286.022c.046.002.09.004.133.005.042.001.084.002.126.002.062 0 .119.005.172.016.053.01.1.03.14.06s.071.07.093.121c.022.05.033.117.033.2 0 .073-.012.134-.036.181-.025.047-.057.085-.099.113-.041.029-.091.049-.148.061-.058.011-.121.017-.19.017-.179.002-.323-.04-.432-.126-.11-.086-.184-.206-.223-.36h-.069c.046.198.132.339.257.424m.864-.676c-.023-.025-.059-.045-.107-.058-.048-.014-.102-.025-.16-.032-.059-.006-.119-.01-.181-.012-.062-.001-.119-.001-.169-.001-.085-.005-.17-.014-.254-.026-.084-.013-.159-.036-.226-.071-.066-.034-.121-.084-.164-.15-.042-.065-.063-.152-.063-.26 0-.065.012-.12.036-.166s.057-.084.1-.114c.042-.03.091-.052.146-.067.056-.015.114-.022.176-.022.111 0 .209.016.297.05.087.033.164.079.231.138.067.058.122.128.167.21s.08.171.105.267l.073.307z" fill="#6b0307"/></g></g><path d="m0 0-.514-2.461h.073l.518 2.461z" fill="#6b0307" transform="matrix(1.25 0 0 -1.25 20.36487 1.42813)"/><path d="m326.402 307.798c1.291.645 4.602 2.067 8.537 2.256 0-.004 0-.008 0-.011 0-.075.013-.146.04-.213.027-.065.066-.125.116-.174.051-.05.113-.089.185-.118.071-.029.152-.043.242-.043.072 0 .14.01.201.03.062.021.116.051.161.088.047.038.085.085.112.137.028.053.044.112.049.176l.003.049h-.283l-.005-.041c-.003-.03-.011-.058-.023-.084-.011-.024-.026-.047-.046-.065-.019-.018-.043-.033-.07-.044-.028-.011-.061-.016-.099-.016-.053 0-.098.009-.135.026-.036.018-.067.041-.089.069-.023.03-.041.064-.053.102-.011.039-.017.079-.017.121 0 .007.001.014.002.021.188.007.377.011.569.011.11 0 .217-.003.326-.004v-.554h.29v.432h.414v-.432h.276.014.292l.105.254h.384l.105-.254h.293.021.259v.39c.06-.007.119-.015.178-.024l.265-.366h.278v.288c.043-.007.087-.013.131-.021v-.267h.28v.218c.11-.02.221-.041.331-.063l.111-.155h.278v.075c.046-.01.092-.022.138-.032v-.043h.187c3.263-.772 5.702-2.234 7.711-3.661h.033v3.698c-1.092.373-4.2 1.458-9.218 1.458-8.772 0-12.879-3.214-12.879-3.214m10.717 2.238c.071-.003.143-.007.214-.011l-.214-.475zm1.001-.078c.06-.006.119-.012.178-.019v-.376z" fill="url(#b)" transform="matrix(1.25 0 0 -1.25 -408.002496 393.53675)"/><g clip-path="url(#a)" transform="matrix(1.25 0 0 -1.25 -408.002496 393.53675)"><g transform="translate(335.7942 310.3065)"><path d="m0 0c-.02.027-.044.05-.072.068-.029.018-.06.032-.094.042-.034.009-.07.014-.108.014-.068 0-.127-.011-.176-.034-.049-.022-.089-.052-.121-.089-.031-.037-.054-.078-.069-.125-.015-.046-.022-.094-.022-.143 0-.048.007-.096.022-.143s.038-.089.069-.126c.032-.036.072-.066.121-.089.049-.022.108-.033.176-.033.048 0 .092.007.13.022.039.015.072.036.1.061.028.026.05.056.068.091.017.034.028.071.033.111h.098c-.006-.055-.021-.104-.044-.148-.024-.044-.053-.082-.09-.112-.037-.031-.08-.055-.129-.071-.05-.017-.105-.025-.166-.025-.081 0-.152.012-.213.038-.061.025-.112.059-.152.101-.041.043-.071.092-.091.147-.021.056-.031.114-.031.176 0 .061.01.12.031.175.02.056.05.105.091.148.04.043.091.077.152.102.061.026.132.038.213.038.049 0 .097-.006.144-.018.047-.013.089-.031.127-.056.038-.024.07-.055.095-.09.026-.036.042-.077.049-.124h-.098c-.009.035-.023.065-.043.092" fill="#fff"/></g></g><g fill="#fff"><path d="m0 0v-.386h-.612v.386h-.099v-.889h.099v.431h.612v-.431h.098v.889z" transform="matrix(1.25 0 0 -1.25 13.16037 5.432)"/><path d="m0 0-.415-.889h.105l.124.276h.47l.125-.276h.106l-.405.889zm.05-.085.2-.455h-.406l.206.455z" transform="matrix(1.25 0 0 -1.25 14.0705 5.432)"/><path d="m0 0v-.752h-.004l-.6.752h-.11v-.889h.098v.752h.003l.601-.752h.11v.889z" transform="matrix(1.25 0 0 -1.25 15.87163 5.432)"/><path d="m0 0v-.752h-.003l-.601.752h-.11v-.889h.098v.752h.003l.601-.752h.11v.889z" transform="matrix(1.25 0 0 -1.25 17.2925 5.432)"/><path d="m0 0v-.889h.719v.072h-.621v.352h.575v.072h-.575v.321h.614v.072z" transform="matrix(1.25 0 0 -1.25 17.8235 5.432)"/><path d="m0 0v-.889h.676v.072h-.578l0 .817z" transform="matrix(1.25 0 0 -1.25 19.04412 5.432)"/></g></svg>