<?xml version="1.0" encoding="UTF-8" standalone="no"?>
<!-- Created with Inkscape (http://www.inkscape.org/) -->

<svg
   xmlns:dc="http://purl.org/dc/elements/1.1/"
   xmlns:cc="http://creativecommons.org/ns#"
   xmlns:rdf="http://www.w3.org/1999/02/22-rdf-syntax-ns#"
   xmlns:svg="http://www.w3.org/2000/svg"
   xmlns="http://www.w3.org/2000/svg"
   xmlns:sodipodi="http://sodipodi.sourceforge.net/DTD/sodipodi-0.dtd"
   xmlns:inkscape="http://www.inkscape.org/namespaces/inkscape"
   width="7.7953305mm"
   height="3.165616mm"
   viewBox="0 0 27.62125 11.21675"
   id="svg27428"
   version="1.1"
   inkscape:version="0.91 r13725"
   sodipodi:docname="Nautical Channel.svg"
   inkscape:export-filename="C:\Users\Jasmeet\Downloads\Nautical Channel.png"
   inkscape:export-xdpi="1629.1804"
   inkscape:export-ydpi="1629.1804">
  <defs
     id="defs27430">
    <clipPath
       clipPathUnits="userSpaceOnUse"
       id="clipPath13526">
      <path
         d="m 0,0 595.276,0 0,595.276 L 0,595.276 0,0 Z"
         id="path13528"
         inkscape:connector-curvature="0" />
    </clipPath>
    <linearGradient
       x1="0"
       y1="0"
       x2="1"
       y2="0"
       gradientUnits="userSpaceOnUse"
       gradientTransform="matrix(22.141464,0,0,-22.141464,326.40205,311.14618)"
       spreadMethod="pad"
       id="linearGradient13514">
      <stop
         style="stop-opacity:1;stop-color:#300609"
         offset="0"
         id="stop13516" />
      <stop
         style="stop-opacity:1;stop-color:#88070b"
         offset="1"
         id="stop13518" />
    </linearGradient>
    <clipPath
       clipPathUnits="userSpaceOnUse"
       id="clipPath13486">
      <path
         d="m 0,0 595.276,0 0,595.276 L 0,595.276 0,0 Z"
         id="path13488"
         inkscape:connector-curvature="0" />
    </clipPath>
    <clipPath
       clipPathUnits="userSpaceOnUse"
       id="clipPath13458">
      <path
         d="m 0,0 595.276,0 0,595.276 L 0,595.276 0,0 Z"
         id="path13460"
         inkscape:connector-curvature="0" />
    </clipPath>
    <clipPath
       clipPathUnits="userSpaceOnUse"
       id="clipPath13438">
      <path
         d="m 0,0 595.276,0 0,595.276 L 0,595.276 0,0 Z"
         id="path13440"
         inkscape:connector-curvature="0" />
    </clipPath>
    <clipPath
       clipPathUnits="userSpaceOnUse"
       id="clipPath13414">
      <path
         d="m 0,0 595.276,0 0,595.276 L 0,595.276 0,0 Z"
         id="path13416"
         inkscape:connector-curvature="0" />
    </clipPath>
    <clipPath
       clipPathUnits="userSpaceOnUse"
       id="clipPath13394">
      <path
         d="m 0,0 595.276,0 0,595.276 L 0,595.276 0,0 Z"
         id="path13396"
         inkscape:connector-curvature="0" />
    </clipPath>
    <clipPath
       clipPathUnits="userSpaceOnUse"
       id="clipPath13366">
      <path
         d="m 0,0 595.276,0 0,595.276 L 0,595.276 0,0 Z"
         id="path13368"
         inkscape:connector-curvature="0" />
    </clipPath>
  </defs>
  <sodipodi:namedview
     id="base"
     pagecolor="#ffffff"
     bordercolor="#666666"
     borderopacity="1.0"
     inkscape:pageopacity="0.0"
     inkscape:pageshadow="2"
     inkscape:zoom="32"
     inkscape:cx="9.9677488"
     inkscape:cy="13.424654"
     inkscape:document-units="px"
     inkscape:current-layer="layer1"
     showgrid="false"
     fit-margin-top="0"
     fit-margin-left="0"
     fit-margin-right="0"
     fit-margin-bottom="0"
     inkscape:window-width="1920"
     inkscape:window-height="1017"
     inkscape:window-x="-8"
     inkscape:window-y="-8"
     inkscape:window-maximized="1" />
  <metadata
     id="metadata27433">
    <rdf:RDF>
      <cc:Work
         rdf:about="">
        <dc:format>image/svg+xml</dc:format>
        <dc:type
           rdf:resource="http://purl.org/dc/dcmitype/StillImage" />
        <dc:title></dc:title>
      </cc:Work>
    </rdf:RDF>
  </metadata>
  <g
     inkscape:groupmode="layer"
     id="layer2"
     inkscape:label="Layer 2"
     style="display:inline">
    <path
       style="fill:#ffffff;fill-opacity:1;fill-rule:evenodd;stroke:none;stroke-width:1px;stroke-linecap:butt;stroke-linejoin:miter;stroke-opacity:1"
       d="M 9.58601,0.72830975 C 9.31479,2.0187598 9.06405,3.3140697 8.76705,4.5985097 l -1.02752,0.32593 -2.96653,0.86731 0.46956,-2.81185 0.83969,-2.17655995 0.21856,-0.10238 2.01563,-0.16406 1.20312,0.13672 z"
       id="path4263-4"
       inkscape:connector-curvature="0"
       sodipodi:nodetypes="cccccccccc" />
  </g>
  <g
     inkscape:label="Layer 1"
     inkscape:groupmode="layer"
     id="layer1"
     transform="translate(-354.7608,-355.32526)">
    <g
       transform="matrix(1.25,0,0,-1.25,-53.241696,748.86201)"
       id="g13410">
      <g
         id="g13412"
         clip-path="url(#clipPath13414)">
        <g
           id="g13418"
           transform="translate(335.0037,311.4138)">
          <path
             d="M 0,0 C 0,0.01 0.001,0.019 0.002,0.027 0.004,0.04 0.007,0.056 0.01,0.07 l 0.204,0.87 c 0.008,0.036 0.014,0.072 0.02,0.108 0.007,0.042 0.011,0.087 0.011,0.136 0,0.198 -0.068,0.348 -0.202,0.444 -0.121,0.086 -0.28,0.13 -0.474,0.13 C -0.643,1.755 -0.825,1.703 -0.972,1.604 -1.125,1.5 -1.23,1.33 -1.283,1.1 l -0.038,-0.163 0.339,0 0.026,0.1 c 0.032,0.126 0.089,0.221 0.176,0.289 0.082,0.065 0.195,0.097 0.337,0.097 l 0.013,0 c 0.06,0 0.115,-0.005 0.164,-0.014 0.039,-0.008 0.072,-0.021 0.098,-0.04 0.024,-0.016 0.042,-0.037 0.056,-0.065 0.014,-0.027 0.022,-0.069 0.022,-0.12 0,-0.08 -0.012,-0.125 -0.022,-0.148 C -0.124,1.007 -0.141,0.986 -0.162,0.97 -0.187,0.952 -0.215,0.94 -0.248,0.933 -0.293,0.924 -0.342,0.92 -0.395,0.92 -0.438,0.92 -0.481,0.919 -0.525,0.918 -0.568,0.917 -0.613,0.915 -0.654,0.913 -0.759,0.913 -0.863,0.905 -0.961,0.889 -1.069,0.871 -1.167,0.838 -1.252,0.788 -1.343,0.735 -1.417,0.661 -1.472,0.566 -1.528,0.471 -1.556,0.351 -1.556,0.208 c 0,-0.1 0.02,-0.187 0.058,-0.262 0.039,-0.073 0.091,-0.134 0.157,-0.181 0.061,-0.044 0.132,-0.076 0.211,-0.096 0.074,-0.019 0.152,-0.029 0.231,-0.029 0.195,0 0.361,0.039 0.495,0.114 0.035,0.02 0.07,0.043 0.102,0.069 0.048,-0.098 0.147,-0.155 0.279,-0.155 0.05,0 0.097,0.004 0.142,0.013 l 0.108,0.02 0,0.359 L 0.055,0.007 C 0.049,0.005 0.033,0.001 0,0 m -0.899,-0.028 c -0.05,0 -0.097,0.006 -0.141,0.017 -0.04,0.011 -0.075,0.027 -0.105,0.048 -0.025,0.018 -0.044,0.04 -0.058,0.067 -0.014,0.027 -0.021,0.061 -0.021,0.104 0,0.081 0.014,0.144 0.042,0.188 0.03,0.046 0.067,0.08 0.113,0.104 0.054,0.028 0.116,0.047 0.185,0.057 0.078,0.012 0.158,0.02 0.237,0.025 0.051,0 0.107,0 0.168,0.002 0.066,0.001 0.131,0.005 0.194,0.013 0.025,0.003 0.05,0.006 0.074,0.01 L -0.227,0.538 C -0.25,0.452 -0.281,0.373 -0.32,0.301 -0.357,0.233 -0.404,0.175 -0.459,0.127 -0.513,0.079 -0.577,0.04 -0.65,0.013 -0.721,-0.014 -0.805,-0.028 -0.899,-0.028"
             style="fill:#ffffff;fill-opacity:1;fill-rule:nonzero;stroke:none"
             id="path13420"
             inkscape:connector-curvature="0" />
        </g>
        <g
           id="g13422"
           transform="translate(337.4361,311.4131)">
          <path
             d="m 0,0 c -0.024,0 -0.049,0 -0.076,0.002 -0.011,0 -0.02,0.001 -0.028,0.003 -0.001,0.003 -0.001,0.006 -0.001,0.01 0.002,0.027 0.006,0.054 0.011,0.081 0.007,0.034 0.014,0.067 0.021,0.099 l 0.253,1.188 0.388,0 0.066,0.334 -0.384,0 0.117,0.559 -0.344,0 -0.117,-0.559 -0.221,0 -0.115,0 -0.233,0 -0.195,-0.923 C -0.879,0.691 -0.91,0.585 -0.949,0.481 -0.985,0.382 -1.033,0.293 -1.092,0.217 -1.147,0.144 -1.216,0.083 -1.296,0.037 -1.37,-0.006 -1.462,-0.028 -1.569,-0.028 c -0.1,0 -0.178,0.024 -0.238,0.074 -0.053,0.043 -0.079,0.112 -0.081,0.207 0,0.035 0.004,0.07 0.011,0.104 l 0.285,1.36 -0.344,0 -0.243,-1.158 C -2.188,0.512 -2.197,0.466 -2.206,0.419 -2.217,0.363 -2.223,0.308 -2.223,0.253 c 0,-0.199 0.065,-0.354 0.193,-0.46 0.121,-0.101 0.276,-0.152 0.461,-0.152 0.194,0 0.36,0.047 0.493,0.14 l -0.021,-0.102 0.342,0 0.368,1.704 0.223,0 -0.245,-1.154 -0.002,-0.01 C -0.415,0.188 -0.42,0.157 -0.427,0.127 -0.435,0.085 -0.44,0.042 -0.44,-0.002 c 0,-0.064 0.014,-0.121 0.04,-0.167 0.027,-0.048 0.065,-0.086 0.112,-0.112 0.039,-0.021 0.083,-0.035 0.131,-0.042 0.038,-0.005 0.078,-0.008 0.119,-0.008 0.036,0 0.07,0.001 0.105,0.004 L 0.262,-0.314 0.336,0.058 0.135,0.01 C 0.115,0.006 0.076,0 0,0"
             style="fill:#ffffff;fill-opacity:1;fill-rule:nonzero;stroke:none"
             id="path13424"
             inkscape:connector-curvature="0" />
        </g>
      </g>
    </g>
    <g
       id="g13426"
       transform="matrix(1.25,0,0,-1.25,369.72005,356.58689)">
      <path
         d="m 0,0 -0.138,-0.625 0.349,0 L 0.348,0 0,0 Z"
         style="fill:#ffffff;fill-opacity:1;fill-rule:nonzero;stroke:none"
         id="path13428"
         inkscape:connector-curvature="0" />
    </g>
    <g
       id="g13430"
       transform="matrix(1.25,0,0,-1.25,369.5468,357.44864)">
      <path
         d="m 0,0 -0.432,-2.039 0.344,0 L 0.348,0 0,0 Z"
         style="fill:#ffffff;fill-opacity:1;fill-rule:nonzero;stroke:none"
         id="path13432"
         inkscape:connector-curvature="0" />
    </g>
    <g
       transform="matrix(1.25,0,0,-1.25,-53.241696,748.86201)"
       id="g13434">
      <g
         id="g13436"
         clip-path="url(#clipPath13438)">
        <g
           id="g13442"
           transform="translate(339.8589,311.9269)">
          <path
             d="m 0,0 -0.032,-0.088 c -0.057,-0.159 -0.134,-0.275 -0.231,-0.344 -0.098,-0.07 -0.212,-0.106 -0.343,-0.109 -0.165,0 -0.282,0.041 -0.359,0.126 -0.08,0.09 -0.119,0.211 -0.119,0.372 0,0.116 0.016,0.235 0.049,0.353 0.031,0.115 0.079,0.219 0.141,0.309 0.061,0.088 0.137,0.159 0.227,0.214 0.086,0.052 0.186,0.077 0.305,0.077 0.141,0 0.247,-0.032 0.325,-0.097 0.07,-0.061 0.105,-0.151 0.105,-0.277 l 0,-0.133 0.334,0 0,0.133 c 0,0.225 -0.072,0.403 -0.214,0.528 -0.137,0.12 -0.322,0.181 -0.55,0.181 -0.172,0 -0.327,-0.039 -0.462,-0.116 C -0.955,1.054 -1.067,0.953 -1.156,0.829 -1.243,0.708 -1.309,0.57 -1.353,0.418 -1.397,0.269 -1.419,0.114 -1.419,-0.043 c 0,-0.25 0.071,-0.452 0.21,-0.601 0.142,-0.152 0.345,-0.229 0.603,-0.229 0.103,0 0.204,0.017 0.299,0.049 0.096,0.032 0.184,0.08 0.263,0.141 0.079,0.062 0.148,0.137 0.205,0.223 0.057,0.087 0.101,0.185 0.13,0.293 L 0.336,0 0,0 Z"
             style="fill:#ffffff;fill-opacity:1;fill-rule:nonzero;stroke:none"
             id="path13444"
             inkscape:connector-curvature="0" />
        </g>
        <g
           id="g13446"
           transform="translate(341.7836,313.0417)">
          <path
             d="M 0,0 C -0.12,0.086 -0.279,0.13 -0.474,0.13 -0.686,0.127 -0.868,0.076 -1.014,-0.024 -1.167,-0.128 -1.272,-0.298 -1.326,-0.528 l -0.038,-0.163 0.34,0 0.025,0.1 c 0.032,0.126 0.09,0.221 0.176,0.289 0.082,0.065 0.195,0.098 0.337,0.098 l 0.014,-0.001 c 0.059,0 0.115,-0.005 0.163,-0.014 0.04,-0.008 0.073,-0.021 0.099,-0.039 0.023,-0.017 0.041,-0.038 0.056,-0.066 0.014,-0.027 0.021,-0.069 0.021,-0.12 0,-0.08 -0.012,-0.124 -0.022,-0.147 -0.012,-0.03 -0.029,-0.051 -0.05,-0.067 -0.024,-0.018 -0.052,-0.03 -0.086,-0.037 -0.044,-0.008 -0.094,-0.013 -0.147,-0.013 -0.042,0 -0.085,-0.001 -0.129,-0.002 -0.044,-0.001 -0.089,-0.003 -0.129,-0.005 -0.106,0 -0.209,-0.008 -0.308,-0.024 -0.108,-0.017 -0.205,-0.051 -0.29,-0.101 -0.091,-0.053 -0.166,-0.127 -0.221,-0.222 -0.055,-0.095 -0.083,-0.215 -0.083,-0.358 0,-0.099 0.019,-0.187 0.058,-0.261 0.038,-0.074 0.091,-0.135 0.156,-0.182 0.062,-0.044 0.133,-0.076 0.212,-0.096 0.073,-0.019 0.151,-0.028 0.231,-0.028 0.194,0 0.361,0.038 0.494,0.113 0.036,0.02 0.07,0.043 0.103,0.069 0.048,-0.098 0.146,-0.155 0.279,-0.155 0.049,0 0.097,0.004 0.141,0.013 l 0.109,0.02 0,0.359 -0.172,-0.053 c -0.006,-0.002 -0.022,-0.005 -0.056,-0.007 10e-4,0.01 10e-4,0.019 0.002,0.027 0.002,0.013 0.005,0.028 0.008,0.044 l 0.205,0.87 c 0.007,0.035 0.014,0.071 0.02,0.107 0.006,0.042 0.01,0.088 0.01,0.136 C 0.202,-0.246 0.134,-0.096 0,0 m -0.941,-1.656 c -0.051,0 -0.098,0.006 -0.141,0.018 -0.04,0.01 -0.076,0.026 -0.105,0.047 -0.026,0.018 -0.045,0.04 -0.059,0.067 -0.014,0.027 -0.021,0.062 -0.021,0.104 0,0.081 0.014,0.145 0.042,0.188 0.03,0.046 0.067,0.08 0.114,0.104 0.053,0.028 0.115,0.047 0.184,0.058 0.079,0.011 0.158,0.02 0.238,0.024 0.05,0 0.106,0.001 0.167,0.002 0.066,0.001 0.132,0.005 0.194,0.013 0.026,0.003 0.051,0.006 0.075,0.01 L -0.27,-1.09 C -0.292,-1.176 -0.324,-1.255 -0.363,-1.327 -0.4,-1.394 -0.447,-1.453 -0.501,-1.501 -0.556,-1.549 -0.62,-1.587 -0.692,-1.615 -0.764,-1.642 -0.848,-1.656 -0.941,-1.656"
             style="fill:#ffffff;fill-opacity:1;fill-rule:nonzero;stroke:none"
             id="path13448"
             inkscape:connector-curvature="0" />
        </g>
      </g>
    </g>
    <g
       id="g13450"
       transform="matrix(1.25,0,0,-1.25,374.99067,356.58689)">
      <path
         d="m 0,0 -0.569,-2.728 0.344,0 L 0.348,0 0,0 Z"
         style="fill:#ffffff;fill-opacity:1;fill-rule:nonzero;stroke:none"
         id="path13452"
         inkscape:connector-curvature="0" />
    </g>
    <g
       transform="matrix(1.25,0,0,-1.25,-53.241696,748.86201)"
       id="g13454">
      <g
         id="g13456"
         clip-path="url(#clipPath13458)">
        <g
           id="g13462"
           transform="translate(328.7903,309.4414)">
          <path
             d="M 0,0 C 0,0 2.12,0.946 3.861,1.459 L 3.103,3.111 2.656,1.236 1.696,0.901 l 0.826,3.862 0.714,0 0.782,-1.652 0.357,1.696 0.915,0 0.089,0.581 C 3.236,5.388 1.868,4.719 0.692,3.2 0.156,2.508 -0.179,1.241 0,0"
             style="fill:#6b0307;fill-opacity:1;fill-rule:nonzero;stroke:none"
             id="path13464"
             inkscape:connector-curvature="0" />
        </g>
        <g
           id="g13466"
           transform="translate(334.1067,312.9078)">
          <path
             d="M 0,0 C 0.125,0.085 0.281,0.129 0.467,0.131 0.633,0.131 0.764,0.096 0.862,0.026 0.96,-0.044 1.009,-0.156 1.009,-0.31 1.009,-0.352 1.006,-0.39 1,-0.424 0.994,-0.459 0.988,-0.493 0.981,-0.528 L 0.778,-1.393 C 0.773,-1.414 0.77,-1.433 0.767,-1.45 0.765,-1.467 0.764,-1.489 0.764,-1.514 c 0,-0.048 0.011,-0.079 0.033,-0.093 0.021,-0.014 0.046,-0.021 0.074,-0.021 0.05,0 0.09,0.005 0.12,0.014 l 0,-0.069 c -0.036,-0.007 -0.075,-0.01 -0.117,-0.01 -0.119,0 -0.179,0.06 -0.179,0.179 0,0.046 0.004,0.082 0.012,0.109 0.008,0.026 0.015,0.054 0.022,0.084 l -0.007,0 C 0.64,-1.459 0.541,-1.56 0.428,-1.624 0.314,-1.689 0.171,-1.721 -0.002,-1.721 c -0.069,0 -0.135,0.008 -0.198,0.024 -0.063,0.016 -0.119,0.042 -0.167,0.076 -0.049,0.035 -0.087,0.08 -0.116,0.135 -0.029,0.055 -0.043,0.122 -0.043,0.2 0,0.119 0.022,0.216 0.066,0.291 0.043,0.075 0.101,0.133 0.172,0.174 0.071,0.042 0.153,0.07 0.245,0.085 0.092,0.015 0.187,0.022 0.286,0.022 0.046,0.002 0.09,0.004 0.133,0.005 0.042,0.001 0.084,0.002 0.126,0.002 0.062,0 0.119,0.005 0.172,0.016 0.053,0.01 0.1,0.03 0.14,0.06 0.04,0.03 0.071,0.07 0.093,0.121 0.022,0.05 0.033,0.117 0.033,0.2 0,0.073 -0.012,0.134 -0.037,0.181 C 0.879,-0.082 0.847,-0.044 0.805,-0.016 0.764,0.013 0.714,0.033 0.657,0.045 0.599,0.056 0.536,0.062 0.467,0.062 0.288,0.064 0.144,0.022 0.034,-0.064 -0.075,-0.15 -0.149,-0.27 -0.188,-0.424 l -0.069,0 C -0.211,-0.226 -0.125,-0.085 0,0 M 0.864,-0.676 C 0.841,-0.701 0.805,-0.721 0.757,-0.734 0.709,-0.748 0.655,-0.759 0.597,-0.766 0.538,-0.772 0.478,-0.776 0.415,-0.778 0.353,-0.779 0.297,-0.779 0.247,-0.779 0.161,-0.784 0.077,-0.793 -0.007,-0.805 -0.091,-0.818 -0.166,-0.841 -0.233,-0.876 -0.299,-0.91 -0.354,-0.96 -0.397,-1.026 -0.439,-1.091 -0.46,-1.178 -0.46,-1.286 c 0,-0.065 0.012,-0.12 0.036,-0.166 0.024,-0.046 0.057,-0.084 0.1,-0.114 0.042,-0.03 0.091,-0.052 0.146,-0.067 0.056,-0.015 0.114,-0.022 0.176,-0.022 0.111,0 0.209,0.016 0.297,0.05 0.087,0.033 0.164,0.079 0.231,0.138 0.067,0.058 0.122,0.128 0.167,0.21 0.045,0.082 0.08,0.171 0.105,0.267 l 0.073,0.307 -0.007,0.007 z"
             style="fill:#6b0307;fill-opacity:1;fill-rule:nonzero;stroke:none"
             id="path13468"
             inkscape:connector-curvature="0" />
        </g>
        <g
           id="g13470"
           transform="translate(336.5015,311.225)">
          <path
             d="M 0,0 0.045,0.221 0.09,0.421 0.083,0.428 C 0.002,0.283 -0.094,0.169 -0.207,0.086 -0.319,0.003 -0.462,-0.038 -0.634,-0.038 c -0.154,0 -0.28,0.04 -0.376,0.121 -0.097,0.08 -0.145,0.2 -0.145,0.358 0,0.046 0.004,0.093 0.014,0.14 0.009,0.047 0.018,0.094 0.027,0.14 l 0.221,1.051 0.072,0 -0.224,-1.069 C -1.054,0.66 -1.063,0.616 -1.072,0.572 -1.082,0.529 -1.086,0.485 -1.086,0.441 -1.084,0.303 -1.041,0.2 -0.957,0.131 c 0.084,-0.069 0.192,-0.103 0.323,-0.103 0.131,0 0.244,0.027 0.339,0.082 0.096,0.056 0.177,0.127 0.243,0.214 0.067,0.087 0.121,0.187 0.162,0.298 0.042,0.112 0.074,0.223 0.097,0.333 l 0.172,0.817 0.076,0 L 0.072,0 0,0 Z"
             style="fill:#6b0307;fill-opacity:1;fill-rule:nonzero;stroke:none"
             id="path13472"
             inkscape:connector-curvature="0" />
        </g>
        <g
           id="g13474"
           transform="translate(337.6395,313.5562)">
          <path
             d="m 0,0 -0.117,-0.559 0.386,0 -0.014,-0.069 -0.386,0 -0.276,-1.293 c -0.007,-0.032 -0.014,-0.065 -0.021,-0.1 -0.006,-0.034 -0.011,-0.069 -0.013,-0.103 0,-0.042 0.007,-0.073 0.022,-0.093 0.015,-0.021 0.034,-0.035 0.057,-0.043 0.023,-0.009 0.049,-0.013 0.078,-0.014 0.028,-10e-4 0.055,-0.002 0.081,-0.002 0.071,0 0.126,0.005 0.165,0.014 l -0.014,-0.069 c -0.032,-0.002 -0.063,-0.005 -0.095,-0.007 -0.031,-0.002 -0.062,-0.003 -0.094,-0.003 -0.035,0 -0.068,0.002 -0.1,0.006 -0.033,0.005 -0.061,0.014 -0.087,0.028 -0.025,0.014 -0.045,0.034 -0.06,0.06 -0.015,0.027 -0.022,0.061 -0.022,0.102 0,0.035 0.003,0.068 0.01,0.102 0.007,0.033 0.013,0.067 0.017,0.102 l 0.28,1.313 -0.335,0 0.014,0.069 0.334,0 L -0.072,0 0,0 Z"
             style="fill:#6b0307;fill-opacity:1;fill-rule:nonzero;stroke:none"
             id="path13476"
             inkscape:connector-curvature="0" />
        </g>
      </g>
    </g>
    <g
       id="g13478"
       transform="matrix(1.25,0,0,-1.25,369.85392,356.75339)">
      <path
         d="m 0,0 -0.079,-0.358 0.075,0 L 0.076,0 0,0 Z m -0.138,-0.689 -0.376,-1.772 0.073,0 0.379,1.772 -0.076,0 z"
         style="fill:#6b0307;fill-opacity:1;fill-rule:nonzero;stroke:none"
         id="path13480"
         inkscape:connector-curvature="0" />
    </g>
    <g
       transform="matrix(1.25,0,0,-1.25,-53.241696,748.86201)"
       id="g13482">
      <g
         id="g13484"
         clip-path="url(#clipPath13486)">
        <g
           id="g13490"
           transform="translate(339.9077,312.8406)">
          <path
             d="m 0,0 c -0.101,0.086 -0.238,0.129 -0.41,0.129 -0.143,0 -0.268,-0.032 -0.375,-0.096 -0.106,-0.065 -0.196,-0.149 -0.267,-0.252 -0.071,-0.103 -0.125,-0.22 -0.16,-0.35 -0.036,-0.13 -0.054,-0.259 -0.054,-0.388 0,-0.193 0.052,-0.347 0.154,-0.46 0.102,-0.114 0.254,-0.171 0.457,-0.171 0.161,0.005 0.301,0.049 0.421,0.134 0.119,0.086 0.212,0.221 0.279,0.407 l 0.069,0 C 0.088,-1.141 0.051,-1.225 0.002,-1.3 -0.048,-1.375 -0.106,-1.439 -0.174,-1.491 -0.242,-1.544 -0.317,-1.585 -0.398,-1.612 -0.48,-1.64 -0.566,-1.654 -0.655,-1.654 c -0.221,0 -0.389,0.063 -0.505,0.187 -0.117,0.124 -0.175,0.294 -0.175,0.51 0,0.145 0.021,0.286 0.061,0.424 0.04,0.138 0.099,0.262 0.177,0.371 0.078,0.109 0.175,0.196 0.29,0.262 0.115,0.065 0.247,0.098 0.397,0.098 0.195,0 0.349,-0.049 0.462,-0.148 0.112,-0.099 0.169,-0.241 0.169,-0.428 l -0.069,0 C 0.152,-0.212 0.101,-0.086 0,0"
             style="fill:#6b0307;fill-opacity:1;fill-rule:nonzero;stroke:none"
             id="path13492"
             inkscape:connector-curvature="0" />
        </g>
        <g
           id="g13494"
           transform="translate(340.844,312.9078)">
          <path
             d="M 0,0 C 0.125,0.085 0.281,0.129 0.467,0.131 0.633,0.131 0.764,0.096 0.862,0.026 0.96,-0.044 1.009,-0.156 1.009,-0.31 1.009,-0.352 1.006,-0.39 1,-0.424 0.994,-0.459 0.988,-0.493 0.981,-0.528 L 0.778,-1.393 C 0.773,-1.414 0.77,-1.433 0.767,-1.45 0.765,-1.467 0.764,-1.489 0.764,-1.514 c 0,-0.048 0.011,-0.079 0.033,-0.093 0.021,-0.014 0.046,-0.021 0.074,-0.021 0.05,0 0.091,0.005 0.12,0.014 l 0,-0.069 c -0.036,-0.007 -0.075,-0.01 -0.117,-0.01 -0.119,0 -0.179,0.06 -0.179,0.179 0,0.046 0.004,0.082 0.012,0.109 0.008,0.026 0.015,0.054 0.022,0.084 l -0.007,0 C 0.64,-1.459 0.541,-1.56 0.428,-1.624 0.314,-1.689 0.171,-1.721 -0.002,-1.721 c -0.069,0 -0.135,0.008 -0.198,0.024 -0.063,0.016 -0.119,0.042 -0.167,0.076 -0.048,0.035 -0.087,0.08 -0.116,0.135 -0.028,0.055 -0.043,0.122 -0.043,0.2 0,0.119 0.022,0.216 0.066,0.291 0.043,0.075 0.101,0.133 0.172,0.174 0.071,0.042 0.153,0.07 0.245,0.085 0.092,0.015 0.187,0.022 0.286,0.022 0.046,0.002 0.09,0.004 0.133,0.005 0.042,0.001 0.084,0.002 0.126,0.002 0.062,0 0.119,0.005 0.172,0.016 0.053,0.01 0.1,0.03 0.14,0.06 0.04,0.03 0.071,0.07 0.093,0.121 0.022,0.05 0.033,0.117 0.033,0.2 0,0.073 -0.012,0.134 -0.036,0.181 C 0.879,-0.082 0.847,-0.044 0.805,-0.016 0.764,0.013 0.714,0.033 0.657,0.045 0.599,0.056 0.536,0.062 0.467,0.062 0.288,0.064 0.144,0.022 0.035,-0.064 -0.075,-0.15 -0.149,-0.27 -0.188,-0.424 l -0.069,0 C -0.211,-0.226 -0.125,-0.085 0,0 M 0.864,-0.676 C 0.841,-0.701 0.805,-0.721 0.757,-0.734 0.709,-0.748 0.655,-0.759 0.597,-0.766 0.538,-0.772 0.478,-0.776 0.416,-0.778 0.354,-0.779 0.297,-0.779 0.247,-0.779 0.162,-0.784 0.077,-0.793 -0.007,-0.805 -0.091,-0.818 -0.166,-0.841 -0.233,-0.876 -0.299,-0.91 -0.354,-0.96 -0.397,-1.026 -0.439,-1.091 -0.46,-1.178 -0.46,-1.286 c 0,-0.065 0.012,-0.12 0.036,-0.166 0.024,-0.046 0.057,-0.084 0.1,-0.114 0.042,-0.03 0.091,-0.052 0.146,-0.067 0.056,-0.015 0.114,-0.022 0.176,-0.022 0.111,0 0.209,0.016 0.297,0.05 0.087,0.033 0.164,0.079 0.231,0.138 0.067,0.058 0.122,0.128 0.167,0.21 0.045,0.082 0.08,0.171 0.105,0.267 l 0.073,0.307 -0.007,0.007 z"
             style="fill:#6b0307;fill-opacity:1;fill-rule:nonzero;stroke:none"
             id="path13496"
             inkscape:connector-curvature="0" />
        </g>
      </g>
    </g>
    <g
       id="g13498"
       transform="matrix(1.25,0,0,-1.25,375.12567,356.75339)">
      <path
         d="m 0,0 -0.514,-2.461 0.073,0 L 0.077,0 0,0 Z"
         style="fill:#6b0307;fill-opacity:1;fill-rule:nonzero;stroke:none"
         id="path13500"
         inkscape:connector-curvature="0" />
    </g>
    <g
       transform="matrix(1.25,0,0,-1.25,-53.241696,748.86201)"
       id="g13502">
      <g
         id="g13504">
        <g
           id="g13510">
          <g
             id="g13512">
            <path
               d="m 326.402,307.798 c 1.291,0.645 4.602,2.067 8.537,2.256 l 0,0 c 0,-0.004 0,-0.008 0,-0.011 l 0,0 c 0,-0.075 0.013,-0.146 0.04,-0.213 l 0,0 c 0.027,-0.065 0.066,-0.125 0.116,-0.174 l 0,0 c 0.051,-0.05 0.113,-0.089 0.185,-0.118 l 0,0 c 0.071,-0.029 0.152,-0.043 0.242,-0.043 l 0,0 c 0.072,0 0.14,0.01 0.201,0.03 l 0,0 c 0.062,0.021 0.116,0.051 0.161,0.088 l 0,0 c 0.047,0.038 0.085,0.085 0.112,0.137 l 0,0 c 0.028,0.053 0.044,0.112 0.049,0.176 l 0,0 0.003,0.049 -0.283,0 -0.005,-0.041 c -0.003,-0.03 -0.011,-0.058 -0.023,-0.084 l 0,0 c -0.011,-0.024 -0.026,-0.047 -0.046,-0.065 l 0,0 c -0.019,-0.018 -0.043,-0.033 -0.07,-0.044 l 0,0 c -0.028,-0.011 -0.061,-0.016 -0.099,-0.016 l 0,0 c -0.053,0 -0.098,0.009 -0.135,0.026 l 0,0 c -0.036,0.018 -0.067,0.041 -0.089,0.069 l 0,0 c -0.023,0.03 -0.041,0.064 -0.053,0.102 l 0,0 c -0.011,0.039 -0.017,0.079 -0.017,0.121 l 0,0 c 0,0.007 10e-4,0.014 0.002,0.021 l 0,0 c 0.188,0.007 0.377,0.011 0.569,0.011 l 0,0 c 0.11,0 0.217,-0.003 0.326,-0.004 l 0,0 0,-0.554 0.29,0 0,0.432 0.414,0 0,-0.432 0.276,0 0.014,0 0.292,0 0.105,0.254 0.384,0 0.105,-0.254 0.293,0 0.021,0 0.259,0 0,0.39 c 0.06,-0.007 0.119,-0.015 0.178,-0.024 l 0,0 0.265,-0.366 0.278,0 0,0.288 c 0.043,-0.007 0.087,-0.013 0.131,-0.021 l 0,0 0,-0.267 0.28,0 0,0.218 c 0.11,-0.02 0.221,-0.041 0.331,-0.063 l 0,0 0.111,-0.155 0.278,0 0,0.075 c 0.046,-0.01 0.092,-0.022 0.138,-0.032 l 0,0 0,-0.043 0.187,0 c 3.263,-0.772 5.702,-2.234 7.711,-3.661 l 0,0 0.033,0 0,3.698 c -1.092,0.373 -4.2,1.458 -9.218,1.458 l 0,0 c -8.772,0 -12.879,-3.214 -12.879,-3.214 m 10.717,2.238 c 0.071,-0.003 0.143,-0.007 0.214,-0.011 l 0,0 -0.214,-0.475 0,0.486 z m 1.001,-0.078 c 0.06,-0.006 0.119,-0.012 0.178,-0.019 l 0,0 0,-0.376 -0.178,0.395 z"
               style="fill:url(#linearGradient13514);stroke:none"
               id="path13520"
               inkscape:connector-curvature="0" />
          </g>
        </g>
      </g>
    </g>
    <g
       transform="matrix(1.25,0,0,-1.25,-53.241696,748.86201)"
       id="g13522">
      <g
         id="g13524"
         clip-path="url(#clipPath13526)">
        <g
           id="g13530"
           transform="translate(335.7942,310.3065)">
          <path
             d="M 0,0 C -0.02,0.027 -0.044,0.05 -0.072,0.068 -0.101,0.086 -0.132,0.1 -0.166,0.11 -0.2,0.119 -0.236,0.124 -0.274,0.124 -0.342,0.124 -0.401,0.113 -0.45,0.09 -0.499,0.068 -0.539,0.038 -0.571,0.001 -0.602,-0.036 -0.625,-0.077 -0.64,-0.124 -0.655,-0.17 -0.662,-0.218 -0.662,-0.267 c 0,-0.048 0.007,-0.096 0.022,-0.143 0.015,-0.047 0.038,-0.089 0.069,-0.126 0.032,-0.036 0.072,-0.066 0.121,-0.089 0.049,-0.022 0.108,-0.033 0.176,-0.033 0.048,0 0.092,0.007 0.13,0.022 0.039,0.015 0.072,0.036 0.1,0.061 0.028,0.026 0.05,0.056 0.068,0.091 0.017,0.034 0.028,0.071 0.033,0.111 l 0.098,0 C 0.149,-0.428 0.134,-0.477 0.111,-0.521 0.087,-0.565 0.058,-0.603 0.021,-0.633 c -0.037,-0.031 -0.08,-0.055 -0.129,-0.071 -0.05,-0.017 -0.105,-0.025 -0.166,-0.025 -0.081,0 -0.152,0.012 -0.213,0.038 -0.061,0.025 -0.112,0.059 -0.152,0.101 -0.041,0.043 -0.071,0.092 -0.091,0.147 -0.021,0.056 -0.031,0.114 -0.031,0.176 0,0.061 0.01,0.12 0.031,0.175 0.02,0.056 0.05,0.105 0.091,0.148 0.04,0.043 0.091,0.077 0.152,0.102 0.061,0.026 0.132,0.038 0.213,0.038 0.049,0 0.097,-0.006 0.144,-0.018 0.047,-0.013 0.089,-0.031 0.127,-0.056 0.038,-0.024 0.07,-0.055 0.095,-0.09 0.026,-0.036 0.042,-0.077 0.049,-0.124 l -0.098,0 C 0.034,-0.057 0.02,-0.027 0,0"
             style="fill:#ffffff;fill-opacity:1;fill-rule:nonzero;stroke:none"
             id="path13532"
             inkscape:connector-curvature="0" />
        </g>
      </g>
    </g>
    <g
       id="g13534"
       transform="matrix(1.25,0,0,-1.25,367.92117,360.75726)">
      <path
         d="m 0,0 0,-0.386 -0.612,0 0,0.386 -0.099,0 0,-0.889 0.099,0 0,0.431 0.612,0 0,-0.431 0.098,0 L 0.098,0 0,0 Z"
         style="fill:#ffffff;fill-opacity:1;fill-rule:nonzero;stroke:none"
         id="path13536"
         inkscape:connector-curvature="0" />
    </g>
    <g
       id="g13538"
       transform="matrix(1.25,0,0,-1.25,368.8313,360.75726)">
      <path
         d="m 0,0 -0.415,-0.889 0.105,0 0.124,0.276 0.47,0 0.125,-0.276 0.106,0 L 0.11,0 0,0 Z m 0.05,-0.085 0.2,-0.455 -0.406,0 0.206,0.455 z"
         style="fill:#ffffff;fill-opacity:1;fill-rule:nonzero;stroke:none"
         id="path13540"
         inkscape:connector-curvature="0" />
    </g>
    <g
       id="g13542"
       transform="matrix(1.25,0,0,-1.25,370.63243,360.75726)">
      <path
         d="m 0,0 0,-0.752 -0.004,0 -0.6,0.752 -0.11,0 0,-0.889 0.098,0 0,0.752 0.003,0 0.601,-0.752 0.11,0 L 0.098,0 0,0 Z"
         style="fill:#ffffff;fill-opacity:1;fill-rule:nonzero;stroke:none"
         id="path13544"
         inkscape:connector-curvature="0" />
    </g>
    <g
       id="g13546"
       transform="matrix(1.25,0,0,-1.25,372.0533,360.75726)">
      <path
         d="m 0,0 0,-0.752 -0.003,0 -0.601,0.752 -0.11,0 0,-0.889 0.098,0 0,0.752 0.003,0 0.601,-0.752 0.11,0 L 0.098,0 0,0 Z"
         style="fill:#ffffff;fill-opacity:1;fill-rule:nonzero;stroke:none"
         id="path13548"
         inkscape:connector-curvature="0" />
    </g>
    <g
       id="g13550"
       transform="matrix(1.25,0,0,-1.25,372.5843,360.75726)">
      <path
         d="m 0,0 0,-0.889 0.719,0 0,0.072 -0.621,0 0,0.352 0.575,0 0,0.072 -0.575,0 0,0.321 0.614,0 L 0.712,0 0,0 Z"
         style="fill:#ffffff;fill-opacity:1;fill-rule:nonzero;stroke:none"
         id="path13552"
         inkscape:connector-curvature="0" />
    </g>
    <g
       id="g13554"
       transform="matrix(1.25,0,0,-1.25,373.80492,360.75726)">
      <path
         d="m 0,0 0,-0.889 0.676,0 0,0.072 -0.578,0 L 0.098,0 0,0 Z"
         style="fill:#ffffff;fill-opacity:1;fill-rule:nonzero;stroke:none"
         id="path13556"
         inkscape:connector-curvature="0" />
    </g>
  </g>
</svg>
