<?xml version="1.0" encoding="UTF-8"?>
<!-- Created with Inkscape (http://www.inkscape.org/) -->
<svg id="svg27428" width="7.7953mm" height="3.1656mm" version="1.1" viewBox="0 0 27.621 11.217" xmlns="http://www.w3.org/2000/svg" xmlns:cc="http://creativecommons.org/ns#" xmlns:dc="http://purl.org/dc/elements/1.1/" xmlns:rdf="http://www.w3.org/1999/02/22-rdf-syntax-ns#">
 <defs id="defs27430">
  <clipPath id="clipPath13526">
   <path id="path13528" d="m0 0h595.28v595.28h-595.28v-595.28z"/>
  </clipPath>
  <linearGradient id="linearGradient13514" x2="1" gradientTransform="matrix(22.141 0 0 -22.141 326.4 311.15)" gradientUnits="userSpaceOnUse">
   <stop id="stop13516" stop-color="#300609" offset="0"/>
   <stop id="stop13518" stop-color="#88070b" offset="1"/>
  </linearGradient>
  <clipPath id="clipPath13486">
   <path id="path13488" d="m0 0h595.28v595.28h-595.28v-595.28z"/>
  </clipPath>
  <clipPath id="clipPath13458">
   <path id="path13460" d="m0 0h595.28v595.28h-595.28v-595.28z"/>
  </clipPath>
  <clipPath id="clipPath13438">
   <path id="path13440" d="m0 0h595.28v595.28h-595.28v-595.28z"/>
  </clipPath>
  <clipPath id="clipPath13414">
   <path id="path13416" d="m0 0h595.28v595.28h-595.28v-595.28z"/>
  </clipPath>
 </defs>
 <metadata id="metadata27433">
  <rdf:RDF>
   <cc:Work rdf:about="">
    <dc:format>image/svg+xml</dc:format>
    <dc:type rdf:resource="http://purl.org/dc/dcmitype/StillImage"/>
    <dc:title/>
   </cc:Work>
  </rdf:RDF>
 </metadata>
 <g id="layer2">
  <path id="path4263-4" d="m9.586 0.72831c-0.27122 1.2905-0.52196 2.5858-0.81896 3.8702l-1.0275 0.32593-2.9665 0.86731 0.46956-2.8118 0.83969-2.1766 0.21856-0.10238 2.0156-0.16406 1.2031 0.13672z" fill="#fff" fill-rule="evenodd"/>
 </g>
 <g id="layer1" transform="translate(-354.76 -355.33)">
  <g id="g13410" transform="matrix(1.25 0 0 -1.25 -53.242 748.86)">
   <g id="g13412" clip-path="url(#clipPath13414)">
    <g id="g13418" transform="translate(335 311.41)">
     <path id="path13420" d="m0 0c0 0.01 1e-3 0.019 2e-3 0.027 2e-3 0.013 5e-3 0.029 8e-3 0.043l0.204 0.87c8e-3 0.036 0.014 0.072 0.02 0.108 7e-3 0.042 0.011 0.087 0.011 0.136 0 0.198-0.068 0.348-0.202 0.444-0.121 0.086-0.28 0.13-0.474 0.13-0.212-3e-3 -0.394-0.055-0.541-0.154-0.153-0.104-0.258-0.274-0.311-0.504l-0.038-0.163h0.339l0.026 0.1c0.032 0.126 0.089 0.221 0.176 0.289 0.082 0.065 0.195 0.097 0.337 0.097h0.013c0.06 0 0.115-5e-3 0.164-0.014 0.039-8e-3 0.072-0.021 0.098-0.04 0.024-0.016 0.042-0.037 0.056-0.065 0.014-0.027 0.022-0.069 0.022-0.12 0-0.08-0.012-0.125-0.022-0.148-0.012-0.029-0.029-0.05-0.05-0.066-0.025-0.018-0.053-0.03-0.086-0.037-0.045-9e-3 -0.094-0.013-0.147-0.013-0.043 0-0.086-1e-3 -0.13-2e-3 -0.043-1e-3 -0.088-3e-3 -0.129-5e-3 -0.105 0-0.209-8e-3 -0.307-0.024-0.108-0.018-0.206-0.051-0.291-0.101-0.091-0.053-0.165-0.127-0.22-0.222-0.056-0.095-0.084-0.215-0.084-0.358 0-0.1 0.02-0.187 0.058-0.262 0.039-0.073 0.091-0.134 0.157-0.181 0.061-0.044 0.132-0.076 0.211-0.096 0.074-0.019 0.152-0.029 0.231-0.029 0.195 0 0.361 0.039 0.495 0.114 0.035 0.02 0.07 0.043 0.102 0.069 0.048-0.098 0.147-0.155 0.279-0.155 0.05 0 0.097 4e-3 0.142 0.013l0.108 0.02v0.359l-0.172-0.053c-6e-3 -2e-3 -0.022-6e-3 -0.055-7e-3m-0.899-0.028c-0.05 0-0.097 6e-3 -0.141 0.017-0.04 0.011-0.075 0.027-0.105 0.048-0.025 0.018-0.044 0.04-0.058 0.067s-0.021 0.061-0.021 0.104c0 0.081 0.014 0.144 0.042 0.188 0.03 0.046 0.067 0.08 0.113 0.104 0.054 0.028 0.116 0.047 0.185 0.057 0.078 0.012 0.158 0.02 0.237 0.025 0.051 0 0.107 0 0.168 2e-3 0.066 1e-3 0.131 5e-3 0.194 0.013 0.025 3e-3 0.05 6e-3 0.074 0.01l-0.016-0.069c-0.023-0.086-0.054-0.165-0.093-0.237-0.037-0.068-0.084-0.126-0.139-0.174-0.054-0.048-0.118-0.087-0.191-0.114-0.071-0.027-0.155-0.041-0.249-0.041" fill="#fff"/>
    </g>
    <g id="g13422" transform="translate(337.44 311.41)">
     <path id="path13424" d="m0 0c-0.024 0-0.049 0-0.076 2e-3 -0.011 0-0.02 1e-3 -0.028 3e-3 -1e-3 3e-3 -1e-3 6e-3 -1e-3 0.01 2e-3 0.027 6e-3 0.054 0.011 0.081 7e-3 0.034 0.014 0.067 0.021 0.099l0.253 1.188h0.388l0.066 0.334h-0.384l0.117 0.559h-0.344l-0.117-0.559h-0.221-0.115-0.233l-0.195-0.923c-0.021-0.103-0.052-0.209-0.091-0.313-0.036-0.099-0.084-0.188-0.143-0.264-0.055-0.073-0.124-0.134-0.204-0.18-0.074-0.043-0.166-0.065-0.273-0.065-0.1 0-0.178 0.024-0.238 0.074-0.053 0.043-0.079 0.112-0.081 0.207 0 0.035 4e-3 0.07 0.011 0.104l0.285 1.36h-0.344l-0.243-1.158c-9e-3 -0.047-0.018-0.093-0.027-0.14-0.011-0.056-0.017-0.111-0.017-0.166 0-0.199 0.065-0.354 0.193-0.46 0.121-0.101 0.276-0.152 0.461-0.152 0.194 0 0.36 0.047 0.493 0.14l-0.021-0.102h0.342l0.368 1.704h0.223l-0.245-1.154-2e-3 -0.01c-4e-3 -0.031-9e-3 -0.062-0.016-0.092-8e-3 -0.042-0.013-0.085-0.013-0.129 0-0.064 0.014-0.121 0.04-0.167 0.027-0.048 0.065-0.086 0.112-0.112 0.039-0.021 0.083-0.035 0.131-0.042 0.038-5e-3 0.078-8e-3 0.119-8e-3 0.036 0 0.07 1e-3 0.105 4e-3l0.195 0.013 0.074 0.372-0.201-0.048c-0.02-4e-3 -0.059-0.01-0.135-0.01" fill="#fff"/>
    </g>
   </g>
  </g>
  <g id="g13426" transform="matrix(1.25 0 0 -1.25 369.72 356.59)">
   <path id="path13428" d="m0 0-0.138-0.625h0.349l0.137 0.625h-0.348z" fill="#fff"/>
  </g>
  <g id="g13430" transform="matrix(1.25 0 0 -1.25 369.55 357.45)">
   <path id="path13432" d="m0 0-0.432-2.039h0.344l0.436 2.039h-0.348z" fill="#fff"/>
  </g>
  <g id="g13434" transform="matrix(1.25 0 0 -1.25 -53.242 748.86)">
   <g id="g13436" clip-path="url(#clipPath13438)">
    <g id="g13442" transform="translate(339.86 311.93)">
     <path id="path13444" d="m0 0-0.032-0.088c-0.057-0.159-0.134-0.275-0.231-0.344-0.098-0.07-0.212-0.106-0.343-0.109-0.165 0-0.282 0.041-0.359 0.126-0.08 0.09-0.119 0.211-0.119 0.372 0 0.116 0.016 0.235 0.049 0.353 0.031 0.115 0.079 0.219 0.141 0.309 0.061 0.088 0.137 0.159 0.227 0.214 0.086 0.052 0.186 0.077 0.305 0.077 0.141 0 0.247-0.032 0.325-0.097 0.07-0.061 0.105-0.151 0.105-0.277v-0.133h0.334v0.133c0 0.225-0.072 0.403-0.214 0.528-0.137 0.12-0.322 0.181-0.55 0.181-0.172 0-0.327-0.039-0.462-0.116-0.131-0.075-0.243-0.176-0.332-0.3-0.087-0.121-0.153-0.259-0.197-0.411-0.044-0.149-0.066-0.304-0.066-0.461 0-0.25 0.071-0.452 0.21-0.601 0.142-0.152 0.345-0.229 0.603-0.229 0.103 0 0.204 0.017 0.299 0.049 0.096 0.032 0.184 0.08 0.263 0.141 0.079 0.062 0.148 0.137 0.205 0.223 0.057 0.087 0.101 0.185 0.13 0.293l0.045 0.167h-0.336z" fill="#fff"/>
    </g>
    <g id="g13446" transform="translate(341.78 313.04)">
     <path id="path13448" d="m0 0c-0.12 0.086-0.279 0.13-0.474 0.13-0.212-3e-3 -0.394-0.054-0.54-0.154-0.153-0.104-0.258-0.274-0.312-0.504l-0.038-0.163h0.34l0.025 0.1c0.032 0.126 0.09 0.221 0.176 0.289 0.082 0.065 0.195 0.098 0.337 0.098l0.014-1e-3c0.059 0 0.115-5e-3 0.163-0.014 0.04-8e-3 0.073-0.021 0.099-0.039 0.023-0.017 0.041-0.038 0.056-0.066 0.014-0.027 0.021-0.069 0.021-0.12 0-0.08-0.012-0.124-0.022-0.147-0.012-0.03-0.029-0.051-0.05-0.067-0.024-0.018-0.052-0.03-0.086-0.037-0.044-8e-3 -0.094-0.013-0.147-0.013-0.042 0-0.085-1e-3 -0.129-2e-3s-0.089-3e-3 -0.129-5e-3c-0.106 0-0.209-8e-3 -0.308-0.024-0.108-0.017-0.205-0.051-0.29-0.101-0.091-0.053-0.166-0.127-0.221-0.222s-0.083-0.215-0.083-0.358c0-0.099 0.019-0.187 0.058-0.261 0.038-0.074 0.091-0.135 0.156-0.182 0.062-0.044 0.133-0.076 0.212-0.096 0.073-0.019 0.151-0.028 0.231-0.028 0.194 0 0.361 0.038 0.494 0.113 0.036 0.02 0.07 0.043 0.103 0.069 0.048-0.098 0.146-0.155 0.279-0.155 0.049 0 0.097 4e-3 0.141 0.013l0.109 0.02v0.359l-0.172-0.053c-6e-3 -2e-3 -0.022-5e-3 -0.056-7e-3 1e-3 0.01 1e-3 0.019 2e-3 0.027 2e-3 0.013 5e-3 0.028 8e-3 0.044l0.205 0.87c7e-3 0.035 0.014 0.071 0.02 0.107 6e-3 0.042 0.01 0.088 0.01 0.136 0 0.198-0.068 0.348-0.202 0.444m-0.941-1.656c-0.051 0-0.098 6e-3 -0.141 0.018-0.04 0.01-0.076 0.026-0.105 0.047-0.026 0.018-0.045 0.04-0.059 0.067s-0.021 0.062-0.021 0.104c0 0.081 0.014 0.145 0.042 0.188 0.03 0.046 0.067 0.08 0.114 0.104 0.053 0.028 0.115 0.047 0.184 0.058 0.079 0.011 0.158 0.02 0.238 0.024 0.05 0 0.106 1e-3 0.167 2e-3 0.066 1e-3 0.132 5e-3 0.194 0.013 0.026 3e-3 0.051 6e-3 0.075 0.01l-0.017-0.069c-0.022-0.086-0.054-0.165-0.093-0.237-0.037-0.067-0.084-0.126-0.138-0.174-0.055-0.048-0.119-0.086-0.191-0.114-0.072-0.027-0.156-0.041-0.249-0.041" fill="#fff"/>
    </g>
   </g>
  </g>
  <g id="g13450" transform="matrix(1.25 0 0 -1.25 374.99 356.59)">
   <path id="path13452" d="m0 0-0.569-2.728h0.344l0.573 2.728h-0.348z" fill="#fff"/>
  </g>
  <g id="g13454" transform="matrix(1.25 0 0 -1.25 -53.242 748.86)">
   <g id="g13456" clip-path="url(#clipPath13458)">
    <g id="g13462" transform="translate(328.79 309.44)">
     <path id="path13464" d="m0 0s2.12 0.946 3.861 1.459l-0.758 1.652-0.447-1.875-0.96-0.335 0.826 3.862h0.714l0.782-1.652 0.357 1.696h0.915l0.089 0.581c-2.143 0-3.511-0.669-4.687-2.188-0.536-0.692-0.871-1.959-0.692-3.2" fill="#6b0307"/>
    </g>
    <g id="g13466" transform="translate(334.11 312.91)">
     <path id="path13468" d="m0 0c0.125 0.085 0.281 0.129 0.467 0.131 0.166 0 0.297-0.035 0.395-0.105s0.147-0.182 0.147-0.336c0-0.042-3e-3 -0.08-9e-3 -0.114-6e-3 -0.035-0.012-0.069-0.019-0.104l-0.203-0.865c-5e-3 -0.021-8e-3 -0.04-0.011-0.057-2e-3 -0.017-3e-3 -0.039-3e-3 -0.064 0-0.048 0.011-0.079 0.033-0.093 0.021-0.014 0.046-0.021 0.074-0.021 0.05 0 0.09 5e-3 0.12 0.014v-0.069c-0.036-7e-3 -0.075-0.01-0.117-0.01-0.119 0-0.179 0.06-0.179 0.179 0 0.046 4e-3 0.082 0.012 0.109 8e-3 0.026 0.015 0.054 0.022 0.084h-7e-3c-0.082-0.138-0.181-0.239-0.294-0.303-0.114-0.065-0.257-0.097-0.43-0.097-0.069 0-0.135 8e-3 -0.198 0.024s-0.119 0.042-0.167 0.076c-0.049 0.035-0.087 0.08-0.116 0.135s-0.043 0.122-0.043 0.2c0 0.119 0.022 0.216 0.066 0.291 0.043 0.075 0.101 0.133 0.172 0.174 0.071 0.042 0.153 0.07 0.245 0.085s0.187 0.022 0.286 0.022c0.046 2e-3 0.09 4e-3 0.133 5e-3 0.042 1e-3 0.084 2e-3 0.126 2e-3 0.062 0 0.119 5e-3 0.172 0.016 0.053 0.01 0.1 0.03 0.14 0.06s0.071 0.07 0.093 0.121c0.022 0.05 0.033 0.117 0.033 0.2 0 0.073-0.012 0.134-0.037 0.181-0.024 0.047-0.056 0.085-0.098 0.113-0.041 0.029-0.091 0.049-0.148 0.061-0.058 0.011-0.121 0.017-0.19 0.017-0.179 2e-3 -0.323-0.04-0.433-0.126-0.109-0.086-0.183-0.206-0.222-0.36h-0.069c0.046 0.198 0.132 0.339 0.257 0.424m0.864-0.676c-0.023-0.025-0.059-0.045-0.107-0.058-0.048-0.014-0.102-0.025-0.16-0.032-0.059-6e-3 -0.119-0.01-0.182-0.012-0.062-1e-3 -0.118-1e-3 -0.168-1e-3 -0.086-5e-3 -0.17-0.014-0.254-0.026-0.084-0.013-0.159-0.036-0.226-0.071-0.066-0.034-0.121-0.084-0.164-0.15-0.042-0.065-0.063-0.152-0.063-0.26 0-0.065 0.012-0.12 0.036-0.166s0.057-0.084 0.1-0.114c0.042-0.03 0.091-0.052 0.146-0.067 0.056-0.015 0.114-0.022 0.176-0.022 0.111 0 0.209 0.016 0.297 0.05 0.087 0.033 0.164 0.079 0.231 0.138 0.067 0.058 0.122 0.128 0.167 0.21s0.08 0.171 0.105 0.267l0.073 0.307-7e-3 7e-3z" fill="#6b0307"/>
    </g>
    <g id="g13470" transform="translate(336.5 311.22)">
     <path id="path13472" d="m0 0 0.045 0.221 0.045 0.2-7e-3 7e-3c-0.081-0.145-0.177-0.259-0.29-0.342-0.112-0.083-0.255-0.124-0.427-0.124-0.154 0-0.28 0.04-0.376 0.121-0.097 0.08-0.145 0.2-0.145 0.358 0 0.046 4e-3 0.093 0.014 0.14 9e-3 0.047 0.018 0.094 0.027 0.14l0.221 1.051h0.072l-0.224-1.069c-9e-3 -0.043-0.018-0.087-0.027-0.131-0.01-0.043-0.014-0.087-0.014-0.131 2e-3 -0.138 0.045-0.241 0.129-0.31s0.192-0.103 0.323-0.103 0.244 0.027 0.339 0.082c0.096 0.056 0.177 0.127 0.243 0.214 0.067 0.087 0.121 0.187 0.162 0.298 0.042 0.112 0.074 0.223 0.097 0.333l0.172 0.817h0.076l-0.383-1.772h-0.072z" fill="#6b0307"/>
    </g>
    <g id="g13474" transform="translate(337.64 313.56)">
     <path id="path13476" d="m0 0-0.117-0.559h0.386l-0.014-0.069h-0.386l-0.276-1.293c-7e-3 -0.032-0.014-0.065-0.021-0.1-6e-3 -0.034-0.011-0.069-0.013-0.103 0-0.042 7e-3 -0.073 0.022-0.093 0.015-0.021 0.034-0.035 0.057-0.043 0.023-9e-3 0.049-0.013 0.078-0.014 0.028-1e-3 0.055-2e-3 0.081-2e-3 0.071 0 0.126 5e-3 0.165 0.014l-0.014-0.069c-0.032-2e-3 -0.063-5e-3 -0.095-7e-3 -0.031-2e-3 -0.062-3e-3 -0.094-3e-3 -0.035 0-0.068 2e-3 -0.1 6e-3 -0.033 5e-3 -0.061 0.014-0.087 0.028-0.025 0.014-0.045 0.034-0.06 0.06-0.015 0.027-0.022 0.061-0.022 0.102 0 0.035 3e-3 0.068 0.01 0.102 7e-3 0.033 0.013 0.067 0.017 0.102l0.28 1.313h-0.335l0.014 0.069h0.334l0.118 0.559h0.072z" fill="#6b0307"/>
    </g>
   </g>
  </g>
  <g id="g13478" transform="matrix(1.25 0 0 -1.25 369.85 356.75)">
   <path id="path13480" d="m0 0-0.079-0.358h0.075l0.08 0.358h-0.076zm-0.138-0.689-0.376-1.772h0.073l0.379 1.772h-0.076z" fill="#6b0307"/>
  </g>
  <g id="g13482" transform="matrix(1.25 0 0 -1.25 -53.242 748.86)">
   <g id="g13484" clip-path="url(#clipPath13486)">
    <g id="g13490" transform="translate(339.91 312.84)">
     <path id="path13492" d="m0 0c-0.101 0.086-0.238 0.129-0.41 0.129-0.143 0-0.268-0.032-0.375-0.096-0.106-0.065-0.196-0.149-0.267-0.252s-0.125-0.22-0.16-0.35c-0.036-0.13-0.054-0.259-0.054-0.388 0-0.193 0.052-0.347 0.154-0.46 0.102-0.114 0.254-0.171 0.457-0.171 0.161 5e-3 0.301 0.049 0.421 0.134 0.119 0.086 0.212 0.221 0.279 0.407h0.069c-0.026-0.094-0.063-0.178-0.112-0.253-0.05-0.075-0.108-0.139-0.176-0.191-0.068-0.053-0.143-0.094-0.224-0.121-0.082-0.028-0.168-0.042-0.257-0.042-0.221 0-0.389 0.063-0.505 0.187-0.117 0.124-0.175 0.294-0.175 0.51 0 0.145 0.021 0.286 0.061 0.424s0.099 0.262 0.177 0.371 0.175 0.196 0.29 0.262c0.115 0.065 0.247 0.098 0.397 0.098 0.195 0 0.349-0.049 0.462-0.148 0.112-0.099 0.169-0.241 0.169-0.428h-0.069c0 0.166-0.051 0.292-0.152 0.378" fill="#6b0307"/>
    </g>
    <g id="g13494" transform="translate(340.84 312.91)">
     <path id="path13496" d="m0 0c0.125 0.085 0.281 0.129 0.467 0.131 0.166 0 0.297-0.035 0.395-0.105s0.147-0.182 0.147-0.336c0-0.042-3e-3 -0.08-9e-3 -0.114-6e-3 -0.035-0.012-0.069-0.019-0.104l-0.203-0.865c-5e-3 -0.021-8e-3 -0.04-0.011-0.057-2e-3 -0.017-3e-3 -0.039-3e-3 -0.064 0-0.048 0.011-0.079 0.033-0.093 0.021-0.014 0.046-0.021 0.074-0.021 0.05 0 0.091 5e-3 0.12 0.014v-0.069c-0.036-7e-3 -0.075-0.01-0.117-0.01-0.119 0-0.179 0.06-0.179 0.179 0 0.046 4e-3 0.082 0.012 0.109 8e-3 0.026 0.015 0.054 0.022 0.084h-7e-3c-0.082-0.138-0.181-0.239-0.294-0.303-0.114-0.065-0.257-0.097-0.43-0.097-0.069 0-0.135 8e-3 -0.198 0.024s-0.119 0.042-0.167 0.076c-0.048 0.035-0.087 0.08-0.116 0.135-0.028 0.055-0.043 0.122-0.043 0.2 0 0.119 0.022 0.216 0.066 0.291 0.043 0.075 0.101 0.133 0.172 0.174 0.071 0.042 0.153 0.07 0.245 0.085s0.187 0.022 0.286 0.022c0.046 2e-3 0.09 4e-3 0.133 5e-3 0.042 1e-3 0.084 2e-3 0.126 2e-3 0.062 0 0.119 5e-3 0.172 0.016 0.053 0.01 0.1 0.03 0.14 0.06s0.071 0.07 0.093 0.121c0.022 0.05 0.033 0.117 0.033 0.2 0 0.073-0.012 0.134-0.036 0.181-0.025 0.047-0.057 0.085-0.099 0.113-0.041 0.029-0.091 0.049-0.148 0.061-0.058 0.011-0.121 0.017-0.19 0.017-0.179 2e-3 -0.323-0.04-0.432-0.126-0.11-0.086-0.184-0.206-0.223-0.36h-0.069c0.046 0.198 0.132 0.339 0.257 0.424m0.864-0.676c-0.023-0.025-0.059-0.045-0.107-0.058-0.048-0.014-0.102-0.025-0.16-0.032-0.059-6e-3 -0.119-0.01-0.181-0.012-0.062-1e-3 -0.119-1e-3 -0.169-1e-3 -0.085-5e-3 -0.17-0.014-0.254-0.026-0.084-0.013-0.159-0.036-0.226-0.071-0.066-0.034-0.121-0.084-0.164-0.15-0.042-0.065-0.063-0.152-0.063-0.26 0-0.065 0.012-0.12 0.036-0.166s0.057-0.084 0.1-0.114c0.042-0.03 0.091-0.052 0.146-0.067 0.056-0.015 0.114-0.022 0.176-0.022 0.111 0 0.209 0.016 0.297 0.05 0.087 0.033 0.164 0.079 0.231 0.138 0.067 0.058 0.122 0.128 0.167 0.21s0.08 0.171 0.105 0.267l0.073 0.307-7e-3 7e-3z" fill="#6b0307"/>
    </g>
   </g>
  </g>
  <g id="g13498" transform="matrix(1.25 0 0 -1.25 375.13 356.75)">
   <path id="path13500" d="m0 0-0.514-2.461h0.073l0.518 2.461h-0.077z" fill="#6b0307"/>
  </g>
  <g id="g13502" transform="matrix(1.25 0 0 -1.25 -53.242 748.86)">
   <g id="g13504">
    <g id="g13510">
     <g id="g13512">
      <path id="path13520" d="m326.4 307.8c1.291 0.645 4.602 2.067 8.537 2.256v-0.011c0-0.075 0.013-0.146 0.04-0.213 0.027-0.065 0.066-0.125 0.116-0.174 0.051-0.05 0.113-0.089 0.185-0.118 0.071-0.029 0.152-0.043 0.242-0.043 0.072 0 0.14 0.01 0.201 0.03 0.062 0.021 0.116 0.051 0.161 0.088 0.047 0.038 0.085 0.085 0.112 0.137 0.028 0.053 0.044 0.112 0.049 0.176l3e-3 0.049h-0.283l-5e-3 -0.041c-3e-3 -0.03-0.011-0.058-0.023-0.084-0.011-0.024-0.026-0.047-0.046-0.065-0.019-0.018-0.043-0.033-0.07-0.044-0.028-0.011-0.061-0.016-0.099-0.016-0.053 0-0.098 9e-3 -0.135 0.026-0.036 0.018-0.067 0.041-0.089 0.069-0.023 0.03-0.041 0.064-0.053 0.102-0.011 0.039-0.017 0.079-0.017 0.121 0 7e-3 1e-3 0.014 2e-3 0.021 0.188 7e-3 0.377 0.011 0.569 0.011 0.11 0 0.217-3e-3 0.326-4e-3v-0.554h0.29v0.432h0.414v-0.432h0.276 0.014 0.292l0.105 0.254h0.384l0.105-0.254h0.293 0.021 0.259v0.39c0.06-7e-3 0.119-0.015 0.178-0.024l0.265-0.366h0.278v0.288c0.043-7e-3 0.087-0.013 0.131-0.021v-0.267h0.28v0.218c0.11-0.02 0.221-0.041 0.331-0.063l0.111-0.155h0.278v0.075c0.046-0.01 0.092-0.022 0.138-0.032v-0.043h0.187c3.263-0.772 5.702-2.234 7.711-3.661h0.033v3.698c-1.092 0.373-4.2 1.458-9.218 1.458-8.772 0-12.879-3.214-12.879-3.214m10.717 2.238c0.071-3e-3 0.143-7e-3 0.214-0.011l-0.214-0.475v0.486zm1.001-0.078c0.06-6e-3 0.119-0.012 0.178-0.019v-0.376l-0.178 0.395z" fill="url(#linearGradient13514)"/>
     </g>
    </g>
   </g>
  </g>
  <g id="g13522" transform="matrix(1.25 0 0 -1.25 -53.242 748.86)">
   <g id="g13524" clip-path="url(#clipPath13526)">
    <g id="g13530" transform="translate(335.79 310.31)">
     <path id="path13532" d="m0 0c-0.02 0.027-0.044 0.05-0.072 0.068-0.029 0.018-0.06 0.032-0.094 0.042-0.034 9e-3 -0.07 0.014-0.108 0.014-0.068 0-0.127-0.011-0.176-0.034-0.049-0.022-0.089-0.052-0.121-0.089-0.031-0.037-0.054-0.078-0.069-0.125-0.015-0.046-0.022-0.094-0.022-0.143 0-0.048 7e-3 -0.096 0.022-0.143s0.038-0.089 0.069-0.126c0.032-0.036 0.072-0.066 0.121-0.089 0.049-0.022 0.108-0.033 0.176-0.033 0.048 0 0.092 7e-3 0.13 0.022 0.039 0.015 0.072 0.036 0.1 0.061 0.028 0.026 0.05 0.056 0.068 0.091 0.017 0.034 0.028 0.071 0.033 0.111h0.098c-6e-3 -0.055-0.021-0.104-0.044-0.148-0.024-0.044-0.053-0.082-0.09-0.112-0.037-0.031-0.08-0.055-0.129-0.071-0.05-0.017-0.105-0.025-0.166-0.025-0.081 0-0.152 0.012-0.213 0.038-0.061 0.025-0.112 0.059-0.152 0.101-0.041 0.043-0.071 0.092-0.091 0.147-0.021 0.056-0.031 0.114-0.031 0.176 0 0.061 0.01 0.12 0.031 0.175 0.02 0.056 0.05 0.105 0.091 0.148 0.04 0.043 0.091 0.077 0.152 0.102 0.061 0.026 0.132 0.038 0.213 0.038 0.049 0 0.097-6e-3 0.144-0.018 0.047-0.013 0.089-0.031 0.127-0.056 0.038-0.024 0.07-0.055 0.095-0.09 0.026-0.036 0.042-0.077 0.049-0.124h-0.098c-9e-3 0.035-0.023 0.065-0.043 0.092" fill="#fff"/>
    </g>
   </g>
  </g>
  <g id="g13534" transform="matrix(1.25 0 0 -1.25 367.92 360.76)">
   <path id="path13536" d="m0 0v-0.386h-0.612v0.386h-0.099v-0.889h0.099v0.431h0.612v-0.431h0.098v0.889h-0.098z" fill="#fff"/>
  </g>
  <g id="g13538" transform="matrix(1.25 0 0 -1.25 368.83 360.76)">
   <path id="path13540" d="m0 0-0.415-0.889h0.105l0.124 0.276h0.47l0.125-0.276h0.106l-0.405 0.889h-0.11zm0.05-0.085 0.2-0.455h-0.406l0.206 0.455z" fill="#fff"/>
  </g>
  <g id="g13542" transform="matrix(1.25 0 0 -1.25 370.63 360.76)">
   <path id="path13544" d="m0 0v-0.752h-4e-3l-0.6 0.752h-0.11v-0.889h0.098v0.752h3e-3l0.601-0.752h0.11v0.889h-0.098z" fill="#fff"/>
  </g>
  <g id="g13546" transform="matrix(1.25 0 0 -1.25 372.05 360.76)">
   <path id="path13548" d="m0 0v-0.752h-3e-3l-0.601 0.752h-0.11v-0.889h0.098v0.752h3e-3l0.601-0.752h0.11v0.889h-0.098z" fill="#fff"/>
  </g>
  <g id="g13550" transform="matrix(1.25 0 0 -1.25 372.58 360.76)">
   <path id="path13552" d="m0 0v-0.889h0.719v0.072h-0.621v0.352h0.575v0.072h-0.575v0.321h0.614v0.072h-0.712z" fill="#fff"/>
  </g>
  <g id="g13554" transform="matrix(1.25 0 0 -1.25 373.8 360.76)">
   <path id="path13556" d="m0 0v-0.889h0.676v0.072h-0.578v0.817h-0.098z" fill="#fff"/>
  </g>
 </g>
</svg>
