<?xml version="1.0" encoding="UTF-8"?>
<!-- Created with Inkscape (http://www.inkscape.org/) -->
<svg id="svg49965" width="8.4mm" height="3.7768mm" version="1.1" viewBox="0 0 8.4 3.7768" xmlns="http://www.w3.org/2000/svg" xmlns:cc="http://creativecommons.org/ns#" xmlns:dc="http://purl.org/dc/elements/1.1/" xmlns:rdf="http://www.w3.org/1999/02/22-rdf-syntax-ns#">
 <defs id="defs49959">
  <clipPath id="clipPath2570">
   <path id="path2568" d="m610.3 638.54h23.811v10.705h-23.811z"/>
  </clipPath>
  <clipPath id="clipPath2560">
   <path id="path2558" d="m610.3 636.38h23.811v15.024h-23.811z"/>
  </clipPath>
 </defs>
 <metadata id="metadata49962">
  <rdf:RDF>
   <cc:Work rdf:about="">
    <dc:format>image/svg+xml</dc:format>
    <dc:type rdf:resource="http://purl.org/dc/dcmitype/StillImage"/>
    <dc:title/>
   </cc:Work>
  </rdf:RDF>
 </metadata>
 <g id="layer1" transform="translate(-75.175 -84.957)">
  <g id="g2554" transform="matrix(.35278 0 0 -.35278 -140.12 314)">
   <g id="g2556" clip-path="url(#clipPath2560)">
    <path id="path2562" d="m610.3 638.54h23.811v10.706h-23.811z" fill="#181818"/>
   </g>
  </g>
  <g id="g2564" transform="matrix(.35278 0 0 -.35278 -140.12 314)">
   <g id="g2566" clip-path="url(#clipPath2570)">
    <g id="g2572" transform="translate(612.51 647.05)">
     <path id="path2574" d="m0 0h0.48v-0.251c0.133 0.177 0.344 0.288 0.599 0.288 0.458 0 0.772-0.332 0.772-0.787v-1.152h-0.481v1.067c0 0.255-0.184 0.436-0.443 0.436-0.258 0-0.447-0.181-0.447-0.436v-1.067h-0.48z" fill="#fff"/>
    </g>
    <g id="g2576" transform="translate(615.65 645.55)">
     <path id="path2578" d="m0 0c0.295 0 0.521 0.236 0.521 0.55 0 0.311-0.226 0.547-0.521 0.547s-0.517-0.236-0.517-0.547c0-0.314 0.222-0.55 0.517-0.55m0 1.537c0.576 0 1.016-0.429 1.016-0.987 0-0.561-0.44-0.99-1.016-0.99s-1.016 0.429-1.016 0.99c0 0.558 0.44 0.987 1.016 0.987" fill="#fff"/>
    </g>
    <g id="g2580" transform="translate(616.64 647.05)">
     <path id="path2582" d="m0 0h0.517l0.525-1.4 0.528 1.4h0.484l-0.757-1.902h-0.54z" fill="#fff"/>
    </g>
    <g id="g2584" transform="translate(619.71 645.55)">
     <path id="path2586" d="m0 0c0.295 0 0.521 0.236 0.521 0.55 0 0.311-0.226 0.547-0.521 0.547s-0.517-0.236-0.517-0.547c0-0.314 0.222-0.55 0.517-0.55m0.521-0.166c-0.151-0.17-0.362-0.274-0.617-0.274-0.521 0-0.92 0.429-0.92 0.99 0 0.558 0.399 0.987 0.92 0.987 0.255 0 0.466-0.104 0.617-0.277v0.24h0.48v-1.903h-0.48z" fill="#fff"/>
    </g>
    <g id="g2588" transform="translate(631.33 641.51)">
     <path id="path2590" d="m0 0v2.867l-1.561-0.498v-0.768l0.691 0.152v-1.753h-0.691v-0.768h2.136v0.768z" fill="#d81f41"/>
    </g>
    <g id="g2592" transform="translate(613.27 641.88)">
     <path id="path2594" d="m0 0c0.056-0.256 0.22-0.389 0.532-0.389 0.267 0 0.436 0.102 0.436 0.282 0 0.614-1.772 0.199-1.772 1.505 0 0.63 0.579 1.1 1.311 1.1 0.747 0 1.249-0.404 1.336-1.008l-0.88-0.179c-0.057 0.266-0.21 0.389-0.487 0.389-0.235 0-0.379-0.103-0.379-0.277 0-0.563 1.772-0.153 1.772-1.505 0-0.63-0.594-1.106-1.362-1.106-0.773 0-1.311 0.42-1.388 1.014z" fill="#fff"/>
    </g>
    <g id="g2596" transform="translate(617.28 642.61)">
     <path id="path2598" d="m0 0c0.297 0 0.486 0.2 0.486 0.471 0 0.277-0.189 0.476-0.486 0.476h-0.712v-0.947zm-1.582 1.715h1.582c0.85 0 1.387-0.532 1.387-1.254s-0.537-1.229-1.387-1.229h-0.712v-1.101h-0.87z" fill="#fff"/>
    </g>
    <g id="g2600" transform="translate(620.89 641.49)">
     <path id="path2602" d="m0 0c0.563 0 0.993 0.456 0.993 1.045 0 0.588-0.43 1.044-0.993 1.044s-0.993-0.456-0.993-1.044c0-0.589 0.43-1.045 0.993-1.045m0 2.888c1.07 0 1.894-0.804 1.894-1.843 0-1.04-0.824-1.844-1.894-1.844s-1.894 0.804-1.894 1.844c0 1.039 0.824 1.843 1.894 1.843" fill="#fff"/>
    </g>
    <g id="g2604" transform="translate(624.89 642.71)">
     <path id="path2606" d="m0 0c0.261 0 0.43 0.179 0.43 0.42 0 0.246-0.169 0.425-0.43 0.425h-0.717v-0.845zm-0.363-0.794h-0.354v-1.177h-0.87v3.584h1.587c0.814 0 1.331-0.512 1.331-1.203 0-0.502-0.276-0.907-0.732-1.096l0.835-1.285h-1.035z" fill="#fff"/>
    </g>
    <g id="g2608" transform="translate(627.48 643.56)">
     <path id="path2610" d="m0 0h-1.049v0.768h2.969v-0.768h-1.05v-2.816h-0.87z" fill="#fff"/>
    </g>
   </g>
  </g>
 </g>
</svg>
