<?xml version="1.0" encoding="UTF-8" standalone="no"?>
<svg
   xmlns:dc="http://purl.org/dc/elements/1.1/"
   xmlns:cc="http://creativecommons.org/ns#"
   xmlns:rdf="http://www.w3.org/1999/02/22-rdf-syntax-ns#"
   xmlns:svg="http://www.w3.org/2000/svg"
   xmlns="http://www.w3.org/2000/svg"
   xmlns:sodipodi="http://sodipodi.sourceforge.net/DTD/sodipodi-0.dtd"
   xmlns:inkscape="http://www.inkscape.org/namespaces/inkscape"
   width="126.0181mm"
   height="55.278133mm"
   version="1.1"
   viewBox="0 0 126.0181 55.277933"
   id="svg54"
   sodipodi:docname="Nova Gold - Dark.svg"
   inkscape:version="0.92.0 r15299">
  <metadata
     id="metadata58">
    <rdf:RDF>
      <cc:Work
         rdf:about="">
        <dc:format>image/svg+xml</dc:format>
        <dc:type
           rdf:resource="http://purl.org/dc/dcmitype/StillImage" />
        <dc:title></dc:title>
      </cc:Work>
    </rdf:RDF>
  </metadata>
  <sodipodi:namedview
     pagecolor="#ffffff"
     bordercolor="#666666"
     borderopacity="1"
     objecttolerance="10"
     gridtolerance="10"
     guidetolerance="10"
     inkscape:pageopacity="0"
     inkscape:pageshadow="2"
     inkscape:window-width="1920"
     inkscape:window-height="1017"
     id="namedview56"
     showgrid="false"
     fit-margin-top="0"
     fit-margin-left="0"
     fit-margin-right="0"
     fit-margin-bottom="0"
     inkscape:zoom="0.47333333"
     inkscape:cx="238.28424"
     inkscape:cy="104.29964"
     inkscape:window-x="-8"
     inkscape:window-y="-8"
     inkscape:window-maximized="1"
     inkscape:current-layer="svg54" />
  <defs
     id="defs8">
    <clipPath
       id="clipPath87719">
      <path
         d="m 289.4,570.88 h 20.976 v 12.214 H 289.4 Z"
         id="path2"
         inkscape:connector-curvature="0" />
    </clipPath>
    <clipPath
       id="clipPath87709">
      <path
         d="m 289.4,569.48 h 20.976 v 15.025 H 289.4 Z"
         id="path5"
         inkscape:connector-curvature="0" />
    </clipPath>
  </defs>
  <g
     id="g50"
     transform="matrix(7.5682,0,0,-7.5682,-2206.592,4394.4222)"
     style="fill:#8b621f;fill-opacity:1">
    <g
       id="g48"
       clip-path="url(#clipPath87719)"
       style="fill:#8b621f;fill-opacity:1">
      <g
         id="g18"
         transform="translate(291.92,580.6)"
         style="fill:#8b621f;fill-opacity:1">
        <path
           style="fill:#8b621f;fill-opacity:1"
           inkscape:connector-curvature="0"
           id="path16"
           d="m 0,0 h 0.548 v -0.287 c 0.151,0.203 0.392,0.329 0.683,0.329 0.522,0 0.88,-0.379 0.88,-0.898 V -2.17 H 1.563 v 1.218 c 0,0.29 -0.21,0.497 -0.505,0.497 -0.295,0 -0.51,-0.207 -0.51,-0.497 V -2.17 H 0 Z" />
      </g>
      <g
         id="g22"
         transform="translate(295.5,578.89)"
         style="fill:#8b621f;fill-opacity:1">
        <path
           style="fill:#8b621f;fill-opacity:1"
           inkscape:connector-curvature="0"
           id="path20"
           d="M 0,0 C 0.337,0 0.594,0.27 0.594,0.628 0.594,0.982 0.337,1.252 0,1.252 -0.337,1.252 -0.59,0.982 -0.59,0.628 -0.59,0.27 -0.337,0 0,0 m 0,1.753 c 0.657,0 1.159,-0.489 1.159,-1.125 0,-0.641 -0.502,-1.13 -1.159,-1.13 -0.657,0 -1.159,0.489 -1.159,1.13 0,0.636 0.502,1.125 1.159,1.125" />
      </g>
      <g
         id="g26"
         transform="translate(296.64,580.6)"
         style="fill:#8b621f;fill-opacity:1">
        <path
           style="fill:#8b621f;fill-opacity:1"
           inkscape:connector-curvature="0"
           id="path24"
           d="M 0,0 H 0.59 L 1.189,-1.597 1.791,0 H 2.343 L 1.479,-2.17 H 0.864 Z" />
      </g>
      <g
         id="g30"
         transform="translate(300.13,578.89)"
         style="fill:#8b621f;fill-opacity:1">
        <path
           style="fill:#8b621f;fill-opacity:1"
           inkscape:connector-curvature="0"
           id="path28"
           d="M 0,0 C 0.337,0 0.594,0.27 0.594,0.628 0.594,0.982 0.337,1.252 0,1.252 -0.337,1.252 -0.59,0.982 -0.59,0.628 -0.59,0.27 -0.337,0 0,0 M 0.594,-0.19 C 0.422,-0.384 0.181,-0.502 -0.11,-0.502 c -0.594,0 -1.049,0.489 -1.049,1.13 0,0.636 0.455,1.125 1.049,1.125 0.291,0 0.532,-0.118 0.704,-0.316 v 0.274 h 0.548 v -2.17 H 0.594 Z" />
      </g>
      <g
         id="g34"
         transform="translate(293.72,577.54)"
         style="fill:#8b621f;fill-opacity:1">
        <path
           style="fill:#8b621f;fill-opacity:1"
           inkscape:connector-curvature="0"
           id="path32"
           d="M 0,0 C 0.969,0 1.651,-0.584 1.925,-1.184 L 1.004,-1.534 C 0.834,-1.19 0.473,-0.91 0,-0.91 c -0.642,0 -1.132,-0.52 -1.132,-1.191 0,-0.67 0.49,-1.19 1.132,-1.19 0.531,0 0.881,0.304 0.992,0.607 h -1.336 v 0.875 h 2.45 C 2.264,-3.285 1.173,-4.201 0,-4.201 c -1.22,0 -2.159,0.916 -2.159,2.1 C -2.159,-0.916 -1.22,0 0,0" />
      </g>
      <g
         id="g38"
         transform="translate(298.44,574.25)"
         style="fill:#8b621f;fill-opacity:1">
        <path
           style="fill:#8b621f;fill-opacity:1"
           inkscape:connector-curvature="0"
           id="path36"
           d="M 0,0 C 0.642,0 1.132,0.519 1.132,1.19 1.132,1.861 0.642,2.38 0,2.38 -0.642,2.38 -1.132,1.861 -1.132,1.19 -1.132,0.519 -0.642,0 0,0 m 0,3.291 c 1.22,0 2.159,-0.916 2.159,-2.101 0,-1.184 -0.939,-2.1 -2.159,-2.1 -1.22,0 -2.159,0.916 -2.159,2.1 0,1.185 0.939,2.101 2.159,2.101" />
      </g>
      <g
         id="g42"
         transform="translate(301.19,577.49)"
         style="fill:#8b621f;fill-opacity:1">
        <path
           style="fill:#8b621f;fill-opacity:1"
           inkscape:connector-curvature="0"
           id="path40"
           d="M 0,0 H 0.992 V -3.209 H 2.801 V -4.084 H 0 Z" />
      </g>
      <g
         id="g46"
         transform="translate(306.03,574.28)"
         style="fill:#8b621f;fill-opacity:1">
        <path
           style="fill:#8b621f;fill-opacity:1"
           inkscape:connector-curvature="0"
           id="path44"
           d="M 0,0 C 0.694,0 1.155,0.49 1.155,1.167 1.155,1.85 0.694,2.334 0,2.334 H -0.618 V 0 Z m -1.61,3.209 h 1.697 c 1.214,0 2.095,-0.887 2.095,-2.042 0,-1.155 -0.881,-2.042 -2.095,-2.042 H -1.61 Z" />
      </g>
    </g>
  </g>
</svg>
