<svg height="55.278133mm" viewBox="0 0 126.0181 55.277933" width="126.0181mm" xmlns="http://www.w3.org/2000/svg" xmlns:xlink="http://www.w3.org/1999/xlink"><clipPath id="a"><path d="m289.4 570.88h20.976v12.214h-20.976z"/></clipPath><g clip-path="url(#a)" fill="#8b621f" transform="matrix(7.5682 0 0 -7.5682 -2206.592 4394.4222)"><g transform="translate(291.92 580.6)"><path d="m0 0h .548v-.287c.151.203.392.329.683.329.522 0 .88-.379.88-.898v-1.314h-.548v1.218c0 .29-.21.497-.505.497s-.51-.207-.51-.497v-1.218h-.548z" fill="#8b621f"/></g><g transform="translate(295.5 578.89)"><path d="m0 0c .337 0 .594.27.594.628 0 .354-.257.624-.594.624s-.59-.27-.59-.624c0-.358.253-.628.59-.628m0 1.753c.657 0 1.159-.489 1.159-1.125 0-.641-.502-1.13-1.159-1.13s-1.159.489-1.159 1.13c0 .636.502 1.125 1.159 1.125" fill="#8b621f"/></g><g transform="translate(296.64 580.6)"><path d="m0 0h .59l.599-1.597.602 1.597h.552l-.864-2.17h-.615z" fill="#8b621f"/></g><g transform="translate(300.13 578.89)"><path d="m0 0c .337 0 .594.27.594.628 0 .354-.257.624-.594.624s-.59-.27-.59-.624c0-.358.253-.628.59-.628m.594-.19c-.172-.194-.413-.312-.704-.312-.594 0-1.049.489-1.049 1.13 0 .636.455 1.125 1.049 1.125.291 0 .532-.118.704-.316v.274h.548v-2.17h-.548z" fill="#8b621f"/></g><g transform="translate(293.72 577.54)"><path d="m0 0c .969 0 1.651-.584 1.925-1.184l-.921-.35c-.17.344-.531.624-1.004.624-.642 0-1.132-.52-1.132-1.191 0-.67.49-1.19 1.132-1.19.531 0 .881.304.992.607h-1.336v.875h2.45c.158-1.476-.933-2.392-2.106-2.392-1.22 0-2.159.916-2.159 2.1 0 1.185.939 2.101 2.159 2.101" fill="#8b621f"/></g><g transform="translate(298.44 574.25)"><path d="m0 0c .642 0 1.132.519 1.132 1.19s-.49 1.19-1.132 1.19-1.132-.519-1.132-1.19.49-1.19 1.132-1.19m0 3.291c1.22 0 2.159-.916 2.159-2.101 0-1.184-.939-2.1-2.159-2.1s-2.159.916-2.159 2.1c0 1.185.939 2.101 2.159 2.101" fill="#8b621f"/></g><g transform="translate(301.19 577.49)"><path d="m0 0h .992v-3.209h1.809v-.875h-2.801z" fill="#8b621f"/></g><g transform="translate(306.03 574.28)"><path d="m0 0c .694 0 1.155.49 1.155 1.167 0 .683-.461 1.167-1.155 1.167h-.618v-2.334zm-1.61 3.209h1.697c1.214 0 2.095-.887 2.095-2.042 0-1.155-.881-2.042-2.095-2.042h-1.697z" fill="#8b621f"/></g></g></svg>