<?xml version="1.0" encoding="UTF-8" standalone="no"?>
<svg
   xmlns:dc="http://purl.org/dc/elements/1.1/"
   xmlns:cc="http://creativecommons.org/ns#"
   xmlns:rdf="http://www.w3.org/1999/02/22-rdf-syntax-ns#"
   xmlns:svg="http://www.w3.org/2000/svg"
   xmlns="http://www.w3.org/2000/svg"
   xmlns:sodipodi="http://sodipodi.sourceforge.net/DTD/sodipodi-0.dtd"
   xmlns:inkscape="http://www.inkscape.org/namespaces/inkscape"
   width="154.53645mm"
   height="24.112095mm"
   version="1.1"
   viewBox="0 0 154.53645 24.112286"
   id="svg42"
   sodipodi:docname="Nova 2 HD.svg"
   inkscape:version="0.92.0 r15299">
  <metadata
     id="metadata46">
    <rdf:RDF>
      <cc:Work
         rdf:about="">
        <dc:format>image/svg+xml</dc:format>
        <dc:type
           rdf:resource="http://purl.org/dc/dcmitype/StillImage" />
        <dc:title></dc:title>
      </cc:Work>
    </rdf:RDF>
  </metadata>
  <sodipodi:namedview
     pagecolor="#ffffff"
     bordercolor="#666666"
     borderopacity="1"
     objecttolerance="10"
     gridtolerance="10"
     guidetolerance="10"
     inkscape:pageopacity="0"
     inkscape:pageshadow="2"
     inkscape:window-width="1920"
     inkscape:window-height="1017"
     id="namedview44"
     showgrid="false"
     fit-margin-top="0"
     fit-margin-left="0"
     fit-margin-right="0"
     fit-margin-bottom="0"
     inkscape:zoom="1.3387888"
     inkscape:cx="353.79054"
     inkscape:cy="-40.277158"
     inkscape:window-x="-8"
     inkscape:window-y="-8"
     inkscape:window-maximized="1"
     inkscape:current-layer="svg42" />
  <defs
     id="defs8">
    <clipPath
       id="clipPath87613">
      <path
         d="m 289.4,589.58 h 20.976 v 8.273 H 289.4 Z"
         id="path2"
         inkscape:connector-curvature="0" />
    </clipPath>
    <clipPath
       id="clipPath87603">
      <path
         d="m 289.4,586.2 h 20.976 v 15.025 H 289.4 Z"
         id="path5"
         inkscape:connector-curvature="0" />
    </clipPath>
  </defs>
  <path
     d="M -6.9723121e-4,0.529774 H 5.8419528 V 3.587327 C 7.4615478,1.43039 10.0196,0.08325 13.122562,0.08325 c 5.570195,0 9.384568,4.041419 9.384568,9.566205 V 23.67333 H 16.672048 V 10.686298 c 0,-3.102962 -2.247756,-5.305308 -5.396127,-5.305308 -3.1408032,0 -5.4339682,2.202346 -5.4339682,5.305308 V 23.67333 H -6.9723121e-4 Z"
     id="path16"
     inkscape:connector-curvature="0"
     style="fill:#2e3e96;stroke-width:7.56820011;fill-opacity:1" />
  <path
     d="m 38.218713,18.769136 c 3.594895,0 6.334583,-2.875916 6.334583,-6.697857 0,-3.768964 -2.739688,-6.64488 -6.334583,-6.64488 -3.594895,0 -6.289174,2.875916 -6.289174,6.64488 0,3.821941 2.694279,6.697857 6.289174,6.697857 m 0,-18.693454 c 7.008153,0 12.358871,5.21449 12.358871,11.995597 0,6.834085 -5.350718,12.041006 -12.358871,12.041006 -7.008153,0 -12.358871,-5.206921 -12.358871,-12.041006 0,-6.781107 5.350718,-11.995597 12.358871,-11.995597"
     id="path20"
     inkscape:connector-curvature="0"
     style="fill:#2e3e96;stroke-width:7.56820011;fill-opacity:1" />
  <path
     d="m 50.403515,0.529774 h 6.289174 l 6.379993,17.02845 6.425402,-17.02845 h 5.888059 L 66.175644,23.67333 h -6.56163 z"
     id="path24"
     inkscape:connector-curvature="0"
     style="fill:#2e3e96;stroke-width:7.56820011;fill-opacity:1" />
  <path
     d="m 87.639063,18.769136 c 3.59489,0 6.33458,-2.875916 6.33458,-6.697857 0,-3.768964 -2.73969,-6.64488 -6.33458,-6.64488 -3.59489,0 -6.289178,2.875916 -6.289178,6.64488 0,3.821941 2.694288,6.697857 6.289178,6.697857 m 6.33458,2.020709 c -1.83907,2.066119 -4.40469,3.32244 -7.50008,3.32244 -6.33459,0 -11.193375,-5.206921 -11.193375,-12.041006 0,-6.781107 4.858785,-11.995597 11.193375,-11.995597 3.09539,0 5.66101,1.263889 7.50008,3.375417 V 0.529774 h 5.84265 v 23.135987 h -5.84265 z"
     id="path28"
     inkscape:connector-curvature="0"
     style="fill:#2e3e96;stroke-width:7.56820011;fill-opacity:1" />
  <path
     d="m 109.43548,18.617772 9.67216,-8.044997 c 0.87034,-0.734115 1.59689,-1.695276 1.59689,-3.02728 0,-1.263889 -0.82493,-2.361278 -2.79267,-2.361278 -1.62716,0 -2.79266,0.961161 -2.79266,3.057553 L 109.26898,7.575768 C 109.60198,2.595893 112.89415,0 117.91186,0 c 5.08583,0 8.65046,2.754825 8.65046,7.378995 0,3.02728 -1.76339,5.517218 -3.89006,7.182222 l -5.05556,4.056555 h 9.10455 v 4.987444 h -17.28577 z"
     id="path32"
     inkscape:connector-curvature="0"
     style="fill:#50c5d5;stroke-width:7.56820011" />
  <g
     id="g4586"
     transform="translate(10.941226,-19.206859)"
     style="fill:#2e3e96;fill-opacity:1">
    <path
       style="fill:#2e3e96;fill-opacity:1;stroke-width:0.84745371"
       inkscape:connector-curvature="0"
       id="path116"
       d="m 121.93705,20.009886 h 2.5542 v 4.135537 h 4.51774 v -4.135537 h 2.55421 v 10.533452 h -2.55421 v -4.14404 h -4.51774 v 4.14404 h -2.5542 z" />
    <path
       style="fill:#2e3e96;fill-opacity:1;stroke-width:0.84745371"
       inkscape:connector-curvature="0"
       id="path118"
       d="m 137.97041,28.285168 c 1.79321,0 2.97796,-1.262682 2.97796,-3.008468 0,-1.762706 -1.18475,-3.008469 -2.97796,-3.008469 h -1.59317 v 6.016937 z m -4.15509,-8.271162 h 4.37792 c 3.13216,0 5.40252,2.288151 5.40252,5.262694 0,2.974543 -2.27036,5.262693 -5.40252,5.262693 h -4.37792 z" />
  </g>
</svg>
