<?xml version="1.0" encoding="UTF-8"?>
<!-- Created with Inkscape (http://www.inkscape.org/) -->
<svg id="svg50578" width="8.4mm" height="3.7045mm" version="1.1" viewBox="0 0 8.4 3.7045" xmlns="http://www.w3.org/2000/svg" xmlns:cc="http://creativecommons.org/ns#" xmlns:dc="http://purl.org/dc/elements/1.1/" xmlns:rdf="http://www.w3.org/1999/02/22-rdf-syntax-ns#">
 <defs id="defs50572">
  <clipPath id="clipPath2698">
   <path id="path2696" d="m610.3 621.91h23.811v10.501h-23.811z"/>
  </clipPath>
  <clipPath id="clipPath2688">
   <path id="path2686" d="m610.3 619.65h23.811v15.024h-23.811z"/>
  </clipPath>
 </defs>
 <metadata id="metadata50575">
  <rdf:RDF>
   <cc:Work rdf:about="">
    <dc:format>image/svg+xml</dc:format>
    <dc:type rdf:resource="http://purl.org/dc/dcmitype/StillImage"/>
    <dc:title/>
   </cc:Work>
  </rdf:RDF>
 </metadata>
 <g id="layer1" transform="translate(-70.639 -146.23)">
  <g id="g2682" transform="matrix(.35278 0 0 -.35278 -144.66 369.33)">
   <g id="g2684" clip-path="url(#clipPath2688)">
    <path id="path2690" d="m610.3 621.92h23.811v10.501h-23.811z" fill="#181818"/>
   </g>
  </g>
  <g id="g2692" transform="matrix(.35278 0 0 -.35278 -144.66 369.33)">
   <g id="g2694" clip-path="url(#clipPath2698)">
    <g id="g2700" transform="translate(612.46 630.27)">
     <path id="path2702" d="m0 0h0.471v-0.246c0.13 0.174 0.337 0.282 0.587 0.282 0.449 0 0.757-0.326 0.757-0.772v-1.13h-0.471v1.047c0 0.25-0.181 0.428-0.435 0.428-0.253 0-0.438-0.178-0.438-0.428v-1.047h-0.471z" fill="#fff"/>
    </g>
    <g id="g2704" transform="translate(615.54 628.8)">
     <path id="path2706" d="m0 0c0.29 0 0.511 0.232 0.511 0.54 0 0.304-0.221 0.536-0.511 0.536s-0.507-0.232-0.507-0.536c0-0.308 0.217-0.54 0.507-0.54m0 1.507c0.565 0 0.996-0.42 0.996-0.967 0-0.551-0.431-0.971-0.996-0.971s-0.996 0.42-0.996 0.971c0 0.547 0.431 0.967 0.996 0.967" fill="#fff"/>
    </g>
    <g id="g2708" transform="translate(616.52 630.27)">
     <path id="path2710" d="m0 0h0.507l0.515-1.373 0.518 1.373h0.474l-0.742-1.866h-0.529z" fill="#fff"/>
    </g>
    <g id="g2712" transform="translate(619.53 628.8)">
     <path id="path2714" d="m0 0c0.29 0 0.511 0.232 0.511 0.54 0 0.304-0.221 0.536-0.511 0.536s-0.507-0.232-0.507-0.536c0-0.308 0.217-0.54 0.507-0.54m0.511-0.163c-0.149-0.167-0.355-0.268-0.605-0.268-0.511 0-0.902 0.42-0.902 0.971 0 0.547 0.391 0.967 0.902 0.967 0.25 0 0.456-0.101 0.605-0.272v0.236h0.471v-1.866h-0.471z" fill="#fff"/>
    </g>
    <g id="g2716" transform="translate(629.33 624.83)">
     <path id="path2718" d="m0 0 1.462 1.215c0.13 0.111 0.24 0.256 0.24 0.457 0 0.191-0.125 0.357-0.421 0.357-0.246 0-0.422-0.146-0.422-0.462l-0.884 0.1c0.05 0.754 0.547 1.145 1.306 1.145 0.768 0 1.305-0.416 1.305-1.115 0-0.456-0.266-0.833-0.587-1.084l-0.764-0.613h1.376v-0.753h-2.611z" fill="#4fc5d4"/>
    </g>
    <g id="g2720" transform="translate(613.21 625.19)">
     <path id="path2722" d="m0 0c0.055-0.251 0.216-0.382 0.522-0.382 0.262 0 0.427 0.101 0.427 0.277 0 0.602-1.738 0.195-1.738 1.476 0 0.618 0.568 1.08 1.286 1.08 0.733 0 1.226-0.397 1.311-0.989l-0.864-0.176c-0.055 0.261-0.206 0.381-0.477 0.381-0.231 0-0.371-0.1-0.371-0.271 0-0.552 1.737-0.15 1.737-1.476 0-0.618-0.583-1.085-1.336-1.085-0.758 0-1.286 0.412-1.361 0.994z" fill="#fff"/>
    </g>
    <g id="g2724" transform="translate(617.15 625.91)">
     <path id="path2726" d="m0 0c0.291 0 0.477 0.196 0.477 0.462 0 0.271-0.186 0.467-0.477 0.467h-0.698v-0.929zm-1.552 1.682h1.552c0.834 0 1.361-0.522 1.361-1.23s-0.527-1.205-1.361-1.205h-0.698v-1.08h-0.854z" fill="#fff"/>
    </g>
    <g id="g2728" transform="translate(620.69 624.81)">
     <path id="path2730" d="m0 0c0.553 0 0.974 0.447 0.974 1.025 0 0.577-0.421 1.024-0.974 1.024s-0.974-0.447-0.974-1.024c0-0.578 0.421-1.025 0.974-1.025m0 2.832c1.05 0 1.858-0.788 1.858-1.807 0-1.02-0.808-1.809-1.858-1.809s-1.858 0.789-1.858 1.809c0 1.019 0.808 1.807 1.858 1.807" fill="#fff"/>
    </g>
    <g id="g2732" transform="translate(624.61 626.01)">
     <path id="path2734" d="m0 0c0.256 0 0.422 0.176 0.422 0.412 0 0.241-0.166 0.417-0.422 0.417h-0.703v-0.829zm-0.357-0.778h-0.346v-1.155h-0.854v3.515h1.557c0.799 0 1.306-0.502 1.306-1.18 0-0.492-0.271-0.889-0.718-1.075l0.818-1.26h-1.014z" fill="#fff"/>
    </g>
    <g id="g2736" transform="translate(627.15 626.84)">
     <path id="path2738" d="m0 0h-1.029v0.753h2.912v-0.753h-1.029v-2.762h-0.854z" fill="#fff"/>
    </g>
   </g>
  </g>
 </g>
</svg>
