<svg height="2.28741mm" viewBox="0 0 6.1545248 2.28741" width="6.154525mm" xmlns="http://www.w3.org/2000/svg" xmlns:xlink="http://www.w3.org/1999/xlink"><clipPath id="a"><path d="m226.003 201.278h17.446v6.484h-17.446z"/></clipPath><g transform="translate(-78.565595 -165.07653)"><path d="m78.565595 167.36394h5.087055v-2.28741h-5.087055z"/><g clip-path="url(#a)" transform="matrix(.35277777 0 0 -.35277777 -1.16324 238.37035)"><g transform="translate(227.3396 206.4351)"><path d="m0 0h .291v-.152c.08.107.208.174.362.174.278 0 .468-.201.468-.476v-.698h-.291v.646c0 .155-.112.264-.269.264-.156 0-.27-.109-.27-.264v-.646h-.291z" fill="#fff"/></g><g transform="translate(229.2415 205.5269)"><path d="m0 0c .179 0 .315.143.315.333 0 .188-.136.331-.315.331s-.313-.143-.313-.331c0-.19.134-.333.313-.333m0 .931c.349 0 .615-.26.615-.598 0-.34-.266-.599-.615-.599s-.615.259-.615.599c0 .338.266.598.615.598" fill="#fff"/></g><g transform="translate(229.8455 206.4351)"><path d="m0 0h .313l.318-.848.32.848h.293l-.459-1.152h-.326z" fill="#fff"/></g><g transform="translate(231.6997 205.5269)"><path d="m0 0c .179 0 .315.143.315.333 0 .188-.136.331-.315.331s-.313-.143-.313-.331c0-.19.134-.333.313-.333m.315-.101c-.091-.103-.219-.165-.373-.165-.316 0-.557.259-.557.599 0 .338.241.598.557.598.154 0 .282-.063.373-.168v.145h.291v-1.152h-.291z" fill="#fff"/></g><g transform="translate(238.738 203.0794)"><path d="m0 0v1.736l-.946-.301v-.465l.419.092v-1.062h-.419v-.465h1.295v.465z" fill="#d11b39"/></g><g transform="translate(227.7995 203.3011)"><path d="m0 0c .034-.155.133-.236.322-.236.162 0 .264.062.264.171 0 .372-1.073.121-1.073.911 0 .382.351.667.794.667.453 0 .756-.245.809-.611l-.533-.108c-.034.161-.127.235-.295.235-.142 0-.229-.062-.229-.167 0-.341 1.073-.093 1.073-.912 0-.381-.36-.669-.825-.669-.468 0-.794.254-.84.614z" fill="#fff"/></g><g transform="translate(230.2302 203.7445)"><path d="m0 0c .18 0 .295.121.295.285 0 .168-.115.289-.295.289h-.431v-.574zm-.958 1.039h.958c.515 0 .84-.323.84-.76s-.325-.744-.84-.744h-.431v-.667h-.527z" fill="#fff"/></g><g transform="translate(232.419 203.0655)"><path d="m0 0c .341 0 .601.276.601.632 0 .357-.26.633-.601.633s-.602-.276-.602-.633c0-.356.261-.632.602-.632m0 1.749c.648 0 1.147-.487 1.147-1.117 0-.629-.499-1.116-1.147-1.116s-1.147.487-1.147 1.116c0 .63.499 1.117 1.147 1.117" fill="#fff"/></g><g transform="translate(234.8372 203.8065)"><path d="m0 0c .158 0 .26.109.26.254 0 .149-.102.258-.26.258h-.434v-.512zm-.22-.481h-.214v-.713h-.527v2.171h.961c.493 0 .806-.31.806-.729 0-.304-.167-.549-.443-.663l.505-.779h-.626z" fill="#fff"/></g><g transform="translate(236.406 204.3181)"><path d="m0 0h-.636v.465h1.799v-.465h-.636v-1.705h-.527z" fill="#fff"/></g><g transform="translate(241.0006 207.7612)"><path d="m0 0h .289v-.467h.509v.467h.289v-1.189h-.289v.467h-.509v-.467h-.289z"/></g><g transform="translate(242.8139 206.8267)"><path d="m0 0c .202 0 .336.143.336.34 0 .199-.134.34-.336.34h-.18v-.68zm-.469.934h.494c.354 0 .61-.258.61-.594 0-.337-.256-.595-.61-.595h-.494z"/></g></g></g></svg>