<svg height="3.704519mm" viewBox="0 0 8.399991 3.7045193" width="8.399991mm" xmlns="http://www.w3.org/2000/svg" xmlns:xlink="http://www.w3.org/1999/xlink"><clipPath id="a"><path d="m610.299 621.914h23.811v10.501h-23.811z"/></clipPath><clipPath id="b"><path d="m610.299 619.654h23.811v15.024h-23.811z"/></clipPath><g clip-path="url(#b)" transform="matrix(.35277777 0 0 -.35277777 -215.29992 223.10231)"><path d="m610.299 621.915h23.811v10.501h-23.811z" fill="#181818"/></g><g clip-path="url(#a)" transform="matrix(.35277777 0 0 -.35277777 -215.29992 223.10231)"><g transform="translate(612.4639 630.268)"><path d="m0 0h .471v-.246c.13.174.337.282.587.282.449 0 .757-.326.757-.772v-1.13h-.471v1.047c0 .25-.181.428-.435.428-.253 0-.438-.178-.438-.428v-1.047h-.471z" fill="#fff"/></g><g transform="translate(615.5446 628.7969)"><path d="m0 0c .29 0 .511.232.511.54 0 .304-.221.536-.511.536s-.507-.232-.507-.536c0-.308.217-.54.507-.54m0 1.507c.565 0 .996-.42.996-.967 0-.551-.431-.971-.996-.971s-.996.42-.996.971c0 .547.431.967.996.967" fill="#fff"/></g><g transform="translate(616.5229 630.268)"><path d="m0 0h .507l.515-1.373.518 1.373h.474l-.742-1.866h-.529z" fill="#fff"/></g><g transform="translate(619.5264 628.7969)"><path d="m0 0c .29 0 .511.232.511.54 0 .304-.221.536-.511.536s-.507-.232-.507-.536c0-.308.217-.54.507-.54m.511-.163c-.149-.167-.355-.268-.605-.268-.511 0-.902.42-.902.971 0 .547.391.967.902.967.25 0 .456-.101.605-.272v.236h.471v-1.866h-.471z" fill="#fff"/></g><g transform="translate(629.3342 624.83)"><path d="m0 0 1.462 1.215c.13.111.24.256.24.457 0 .191-.125.357-.421.357-.246 0-.422-.146-.422-.462l-.884.1c.05.754.547 1.145 1.306 1.145.768 0 1.305-.416 1.305-1.115 0-.456-.266-.833-.587-1.084l-.764-.613h1.376v-.753h-2.611z" fill="#4fc5d4"/></g><g transform="translate(613.2087 625.1916)"><path d="m0 0c .055-.251.216-.382.522-.382.262 0 .427.101.427.277 0 .602-1.738.195-1.738 1.476 0 .618.568 1.08 1.286 1.08.733 0 1.226-.397 1.311-.989l-.864-.176c-.055.261-.206.381-.477.381-.231 0-.371-.1-.371-.271 0-.552 1.737-.15 1.737-1.476 0-.618-.583-1.085-1.336-1.085-.758 0-1.286.412-1.361.994z" fill="#fff"/></g><g transform="translate(617.1459 625.9097)"><path d="m0 0c .291 0 .477.196.477.462 0 .271-.186.467-.477.467h-.698v-.929zm-1.552 1.682h1.552c.834 0 1.361-.522 1.361-1.23s-.527-1.205-1.361-1.205h-.698v-1.08h-.854z" fill="#fff"/></g><g transform="translate(620.6915 624.8099)"><path d="m0 0c .553 0 .974.447.974 1.025 0 .577-.421 1.024-.974 1.024s-.974-.447-.974-1.024c0-.578.421-1.025.974-1.025m0 2.832c1.05 0 1.858-.788 1.858-1.807 0-1.02-.808-1.809-1.858-1.809s-1.858.789-1.858 1.809c0 1.019.808 1.807 1.858 1.807" fill="#fff"/></g><g transform="translate(624.6085 626.0103)"><path d="m0 0c .256 0 .422.176.422.412 0 .241-.166.417-.422.417h-.703v-.829zm-.357-.778h-.346v-1.155h-.854v3.515h1.557c.799 0 1.306-.502 1.306-1.18 0-.492-.271-.889-.718-1.075l.818-1.26h-1.014z" fill="#fff"/></g><g transform="translate(627.1496 626.8389)"><path d="m0 0h-1.029v.753h2.912v-.753h-1.029v-2.762h-.854z" fill="#fff"/></g></g></svg>