<svg width="191.99mm" height="92.438mm" version="1.1" viewBox="0 0 191.99 92.438" xmlns="http://www.w3.org/2000/svg">
 <path d="m0 92.438h191.99v-92.438h-191.99z" fill="#8b621f" stroke-width="8.3228"/>
 <g transform="matrix(7.5682 0 0 -7.5682 19.072 18.875)">
  <path d="m0 0h0.548v-0.287c0.151 0.203 0.392 0.329 0.683 0.329 0.522 0 0.88-0.379 0.88-0.898v-1.314h-0.548v1.218c0 0.29-0.21 0.497-0.505 0.497s-0.51-0.207-0.51-0.497v-1.218h-0.548z" fill="#fff"/>
 </g>
 <g transform="matrix(7.5682 0 0 -7.5682 46.166 31.817)">
  <path d="m0 0c0.337 0 0.594 0.27 0.594 0.628 0 0.354-0.257 0.624-0.594 0.624s-0.59-0.27-0.59-0.624c0-0.358 0.253-0.628 0.59-0.628m0 1.753c0.657 0 1.159-0.489 1.159-1.125 0-0.641-0.502-1.13-1.159-1.13s-1.159 0.489-1.159 1.13c0 0.636 0.502 1.125 1.159 1.125" fill="#fff"/>
 </g>
 <g transform="matrix(7.5682 0 0 -7.5682 54.794 18.875)">
  <path d="m0 0h0.59l0.599-1.597 0.602 1.597h0.552l-0.864-2.17h-0.615z" fill="#fff"/>
 </g>
 <g transform="matrix(7.5682 0 0 -7.5682 81.207 31.817)">
  <path d="m0 0c0.337 0 0.594 0.27 0.594 0.628 0 0.354-0.257 0.624-0.594 0.624s-0.59-0.27-0.59-0.624c0-0.358 0.253-0.628 0.59-0.628m0.594-0.19c-0.172-0.194-0.413-0.312-0.704-0.312-0.594 0-1.049 0.489-1.049 1.13 0 0.636 0.455 1.125 1.049 1.125 0.291 0 0.532-0.118 0.704-0.316v0.274h0.548v-2.17h-0.548z" fill="#fff"/>
 </g>
 <g transform="matrix(7.5682 0 0 -7.5682 32.695 42.034)">
  <path d="m0 0c0.969 0 1.651-0.584 1.925-1.184l-0.921-0.35c-0.17 0.344-0.531 0.624-1.004 0.624-0.642 0-1.132-0.52-1.132-1.191 0-0.67 0.49-1.19 1.132-1.19 0.531 0 0.881 0.304 0.992 0.607h-1.336v0.875h2.45c0.158-1.476-0.933-2.392-2.106-2.392-1.22 0-2.159 0.916-2.159 2.1 0 1.185 0.939 2.101 2.159 2.101" fill="#fff"/>
 </g>
 <g transform="matrix(7.5682 0 0 -7.5682 68.417 66.933)">
  <path d="m0 0c0.642 0 1.132 0.519 1.132 1.19s-0.49 1.19-1.132 1.19-1.132-0.519-1.132-1.19 0.49-1.19 1.132-1.19m0 3.291c1.22 0 2.159-0.916 2.159-2.101 0-1.184-0.939-2.1-2.159-2.1s-2.159 0.916-2.159 2.1c0 1.185 0.939 2.101 2.159 2.101" fill="#fff"/>
 </g>
 <g transform="matrix(7.5682 0 0 -7.5682 89.229 42.412)">
  <path d="m0 0h0.992v-3.209h1.809v-0.875h-2.801z" fill="#fff"/>
 </g>
 <g transform="matrix(7.5682 0 0 -7.5682 125.86 66.706)">
  <path d="m0 0c0.694 0 1.155 0.49 1.155 1.167 0 0.683-0.461 1.167-1.155 1.167h-0.618v-2.334zm-1.61 3.209h1.697c1.214 0 2.095-0.887 2.095-2.042s-0.881-2.042-2.095-2.042h-1.697z" fill="#fff"/>
 </g>
 <g transform="translate(24.869 .012842)" fill="#fff" stroke-width="1.2975">
  <path d="m125.73 42.474h3.9106v6.3315h6.9167v-6.3315h3.9106v16.127h-3.9106v-6.3445h-6.9167v6.3445h-3.9106z"/>
  <path d="m150.28 55.138c2.7455 0 4.5592-1.9332 4.5592-4.606 0-2.6986-1.8139-4.606-4.5592-4.606h-2.4392v9.2119zm-6.3614-12.663h6.7027c4.7954 0 8.2713 3.5031 8.2713 8.0571 0 4.5541-3.4759 8.0571-8.2713 8.0571h-6.7027z"/>
 </g>
</svg>
