<?xml version="1.0" encoding="UTF-8" standalone="no"?>
<svg
   xmlns:dc="http://purl.org/dc/elements/1.1/"
   xmlns:cc="http://creativecommons.org/ns#"
   xmlns:rdf="http://www.w3.org/1999/02/22-rdf-syntax-ns#"
   xmlns:svg="http://www.w3.org/2000/svg"
   xmlns="http://www.w3.org/2000/svg"
   xmlns:sodipodi="http://sodipodi.sourceforge.net/DTD/sodipodi-0.dtd"
   xmlns:inkscape="http://www.inkscape.org/namespaces/inkscape"
   width="161.37224mm"
   height="41.004555mm"
   version="1.1"
   viewBox="0 0 161.36925 41.004508"
   id="svg64"
   sodipodi:docname="Nova Cinema HD - Dark.svg"
   inkscape:version="0.92.0 r15299">
  <metadata
     id="metadata68">
    <rdf:RDF>
      <cc:Work
         rdf:about="">
        <dc:format>image/svg+xml</dc:format>
        <dc:type
           rdf:resource="http://purl.org/dc/dcmitype/StillImage" />
        <dc:title></dc:title>
      </cc:Work>
    </rdf:RDF>
  </metadata>
  <sodipodi:namedview
     pagecolor="#ffffff"
     bordercolor="#666666"
     borderopacity="1"
     objecttolerance="10"
     gridtolerance="10"
     guidetolerance="10"
     inkscape:pageopacity="0"
     inkscape:pageshadow="2"
     inkscape:window-width="1920"
     inkscape:window-height="1017"
     id="namedview66"
     showgrid="false"
     fit-margin-top="0"
     fit-margin-left="0"
     fit-margin-right="0"
     fit-margin-bottom="0"
     inkscape:zoom="0.41763933"
     inkscape:cx="304.99157"
     inkscape:cy="77.343756"
     inkscape:window-x="-8"
     inkscape:window-y="-8"
     inkscape:window-maximized="1"
     inkscape:current-layer="svg64" />
  <defs
     id="defs8">
    <clipPath
       id="clipPath87361">
      <path
         d="m 289.4,622.63 h 20.976 v 9.064 H 289.4 Z"
         id="path2"
         inkscape:connector-curvature="0" />
    </clipPath>
    <clipPath
       id="clipPath87351">
      <path
         d="m 289.4,619.65 h 20.976 v 15.024 H 289.4 Z"
         id="path5"
         inkscape:connector-curvature="0" />
    </clipPath>
  </defs>
  <g
     clip-path="url(#clipPath87361)"
     id="g54"
     transform="matrix(7.5682,0,0,-7.5682,-2202.4083,4766.9897)"
     style="fill:#5b3699;fill-opacity:1">
    <g
       transform="translate(291.27,629.84)"
       id="g18"
       style="fill:#5b3699;fill-opacity:1">
      <path
         d="m 0,0 h 0.407 v -0.213 c 0.112,0.151 0.29,0.244 0.506,0.244 0.388,0 0.654,-0.281 0.654,-0.666 V -1.611 H 1.16 v 0.904 c 0,0.216 -0.156,0.369 -0.375,0.369 -0.219,0 -0.378,-0.153 -0.378,-0.369 V -1.611 H 0 Z"
         id="path16"
         inkscape:connector-curvature="0"
         style="fill:#5b3699;fill-opacity:1" />
    </g>
    <g
       transform="translate(293.93,628.57)"
       id="g22"
       style="fill:#5b3699;fill-opacity:1">
      <path
         d="M 0,0 C 0.25,0 0.441,0.2 0.441,0.466 0.441,0.729 0.25,0.929 0,0.929 -0.25,0.929 -0.438,0.729 -0.438,0.466 -0.438,0.2 -0.25,0 0,0 m 0,1.301 c 0.488,0 0.86,-0.363 0.86,-0.835 0,-0.475 -0.372,-0.838 -0.86,-0.838 -0.488,0 -0.86,0.363 -0.86,0.838 0,0.472 0.372,0.835 0.86,0.835"
         id="path20"
         inkscape:connector-curvature="0"
         style="fill:#5b3699;fill-opacity:1" />
    </g>
    <g
       transform="translate(294.78,629.84)"
       id="g26"
       style="fill:#5b3699;fill-opacity:1">
      <path
         d="M 0,0 H 0.438 L 0.882,-1.185 1.329,0 h 0.41 L 1.098,-1.611 H 0.641 Z"
         id="path24"
         inkscape:connector-curvature="0"
         style="fill:#5b3699;fill-opacity:1" />
    </g>
    <g
       transform="translate(297.37,628.57)"
       id="g30"
       style="fill:#5b3699;fill-opacity:1">
      <path
         d="M 0,0 C 0.25,0 0.441,0.2 0.441,0.466 0.441,0.729 0.25,0.929 0,0.929 -0.25,0.929 -0.438,0.729 -0.438,0.466 -0.438,0.2 -0.25,0 0,0 m 0.441,-0.141 c -0.128,-0.144 -0.307,-0.231 -0.522,-0.231 -0.441,0 -0.779,0.363 -0.779,0.838 0,0.472 0.338,0.835 0.779,0.835 0.215,0 0.394,-0.088 0.522,-0.235 V 1.27 H 0.847 V -0.341 H 0.441 Z"
         id="path28"
         inkscape:connector-curvature="0"
         style="fill:#5b3699;fill-opacity:1" />
    </g>
    <g
       transform="translate(292.61,627.57)"
       id="g34"
       style="fill:#5b3699;fill-opacity:1">
      <path
         d="M 0,0 C 0.719,0 1.225,-0.433 1.429,-0.879 L 0.745,-1.139 C 0.619,-0.883 0.351,-0.675 0,-0.675 c -0.476,0 -0.84,-0.386 -0.84,-0.884 0,-0.498 0.364,-0.883 0.84,-0.883 0.351,0 0.619,0.208 0.745,0.463 L 1.429,-2.238 C 1.225,-2.684 0.719,-3.117 0,-3.117 c -0.905,0 -1.602,0.679 -1.602,1.558 C -1.602,-0.68 -0.905,0 0,0"
         id="path32"
         inkscape:connector-curvature="0"
         style="fill:#5b3699;fill-opacity:1" />
    </g>
    <path
       d="m 294.46,627.53 h 0.736 v -3.031 h -0.736 z"
       id="path36"
       inkscape:connector-curvature="0"
       style="fill:#5b3699;fill-opacity:1" />
    <g
       transform="translate(295.76,627.53)"
       id="g40"
       style="fill:#5b3699;fill-opacity:1">
      <path
         d="M 0,0 H 0.714 L 2.035,-1.793 V 0 H 2.771 V -3.031 H 2.057 L 0.736,-1.238 V -3.031 H 0 Z"
         id="path38"
         inkscape:connector-curvature="0"
         style="fill:#5b3699;fill-opacity:1" />
    </g>
    <g
       transform="translate(299.11,627.53)"
       id="g44"
       style="fill:#5b3699;fill-opacity:1">
      <path
         d="M 0,0 H 2.078 V -0.65 H 0.736 V -1.191 H 2.035 V -1.84 H 0.736 v -0.541 h 1.342 v -0.65 H 0 Z"
         id="path42"
         inkscape:connector-curvature="0"
         style="fill:#5b3699;fill-opacity:1" />
    </g>
    <g
       transform="translate(301.73,627.53)"
       id="g48"
       style="fill:#5b3699;fill-opacity:1">
      <path
         d="M 0,0 H 1.005 L 1.797,-2.091 2.589,0 H 3.55 V -3.031 H 2.836 v 1.853 L 2.1,-3.031 H 1.446 L 0.714,-1.182 V -3.031 H 0 Z"
         id="path46"
         inkscape:connector-curvature="0"
         style="fill:#5b3699;fill-opacity:1" />
    </g>
    <g
       transform="translate(306.78,625.75)"
       id="g52"
       style="fill:#5b3699;fill-opacity:1">
      <path
         d="M 0,0 H 0.727 L 0.364,0.966 Z M -0.022,1.784 H 0.801 L 1.992,-1.247 H 1.204 l -0.23,0.598 h -1.216 l -0.226,-0.598 h -0.744 z"
         id="path50"
         inkscape:connector-curvature="0"
         style="fill:#5b3699;fill-opacity:1" />
    </g>
  </g>
  <path
     style="fill:#5b3699;stroke-width:0.95191002;fill-opacity:1"
     inkscape:connector-curvature="0"
     id="path58"
     d="m 137.0417,18.110702 h 2.8691 v 4.6453 h 5.0746 v -4.6453 h 2.869 v 11.832 h -2.869 v -4.6548 h -5.0746 v 4.6548 h -2.8691 z" />
  <path
     style="fill:#5b3699;stroke-width:0.95191002;fill-opacity:1"
     inkscape:connector-curvature="0"
     id="path60"
     d="m 155.0517,27.400702 c 2.0142,0 3.345,-1.4183 3.345,-3.3793 0,-1.98 -1.3308,-3.3793 -3.345,-3.3793 h -1.7896 v 6.7586 z m -4.6672,-9.2906 h 4.9176 c 3.5182,0 6.0684,2.5702 6.0684,5.9114 0,3.3412 -2.5502,5.9114 -6.0684,5.9114 h -4.9176 z" />
</svg>
