<svg height="70.513mm" viewBox="0 0 179.91667 70.512672" width="179.92mm" xmlns="http://www.w3.org/2000/svg" xmlns:xlink="http://www.w3.org/1999/xlink"><clipPath id="a"><path d="m289.4 605.78h20.976v9.317h-20.976z"/></clipPath><clipPath id="b"><path d="m289.4 602.93h20.976v15.024h-20.976z"/></clipPath><g transform="translate(-55.865 31.161)"><g clip-path="url(#b)" transform="matrix(8.5773 0 0 -7.5682 -2426.4 4624)"><path d="m289.4 605.78h20.976v9.317h-20.976z" fill="#f59b2d"/></g><g clip-path="url(#a)" transform="matrix(7.5682 0 0 -7.5682 -2138.8 4624)"><g transform="translate(291.32 613.19)"><path d="m0 0h .418v-.219c.116.155.299.251.521.251.398 0 .672-.289.672-.685v-1.003h-.418v.929c0 .222-.161.38-.386.38s-.389-.158-.389-.38v-.929h-.418z" fill="#fff"/></g><g transform="translate(294.06 611.89)"><path d="m0 0c .257 0 .453.206.453.479 0 .27-.196.476-.453.476s-.45-.206-.45-.476c0-.273.193-.479.45-.479m0 1.337c.501 0 .884-.373.884-.858 0-.489-.383-.862-.884-.862s-.884.373-.884.862c0 .485.383.858.884.858" fill="#fff"/></g><g transform="translate(294.93 613.19)"><path d="m0 0h .45l.457-1.218.459 1.218h.421l-.659-1.656h-.469z" fill="#fff"/></g><g transform="translate(297.59 611.89)"><path d="m0 0c .257 0 .453.206.453.479 0 .27-.196.476-.453.476s-.45-.206-.45-.476c0-.273.193-.479.45-.479m.453-.145c-.131-.148-.315-.238-.537-.238-.453 0-.8.373-.8.862 0 .485.347.858.8.858.222 0 .406-.09.537-.241v.209h.418v-1.655h-.418z" fill="#fff"/></g><g transform="translate(292.36 608.98)"><path d="m0 0h .748l-.374.992zm-.022 1.834h.845l1.224-3.116h-.81l-.236.614h-1.25l-.232-.614h-.765z" fill="#fff"/></g><g transform="translate(296.06 610.86)"><path d="m0 0c .739 0 1.26-.445 1.469-.903l-.703-.267c-.129.262-.406.476-.766.476-.49 0-.863-.397-.863-.908 0-.512.373-.908.863-.908.36 0 .637.213.766.476l.703-.267c-.209-.459-.73-.904-1.469-.904-.93 0-1.647.699-1.647 1.603 0 .903.717 1.602 1.647 1.602" fill="#fff"/></g><g transform="translate(298.68 610.15)"><path d="m0 0h-.912v.668h2.581v-.668h-.912v-2.448h-.757z" fill="#fff"/></g><path d="m300.66 610.82h.757v-3.116h-.757z" fill="#fff"/><g transform="translate(303.51 608.35)"><path d="m0 0c .49 0 .863.396.863.908s-.373.908-.863.908-.863-.396-.863-.908.373-.908.863-.908m0 2.51c.93 0 1.647-.698 1.647-1.602 0-.903-.717-1.602-1.647-1.602s-1.647.699-1.647 1.602c0 .904.717 1.602 1.647 1.602" fill="#fff"/></g><g transform="translate(305.61 610.82)"><path d="m0 0h .734l1.358-1.843v1.843h.757v-3.116h-.735l-1.357 1.843v-1.843h-.757z" fill="#fff"/></g></g><path d="m201.95 1.2407h2.9825v4.8289h5.2752v-4.8289h2.9825v12.3h-2.9825v-4.8388h-5.2752v4.8388h-2.9825z" fill="#fff" stroke-width=".98954"/><path d="m220.68 10.899c2.0939 0 3.4772-1.4744 3.4772-3.5129 0-2.0582-1.3834-3.5129-3.4772-3.5129h-1.8603v7.0257zm-4.8517-9.6579h5.112c3.6573 0 6.3083 2.6717 6.3083 6.145s-2.651 6.145-6.3083 6.145h-5.112z" fill="#fff" stroke-width=".98954"/></g></svg>