<?xml version="1.0" encoding="UTF-8"?>
<svg id="svg172" width="441.31" height="202.36" version="1.1" viewBox="0 0 441.31 202.36" xml:space="preserve" xmlns="http://www.w3.org/2000/svg" xmlns:cc="http://creativecommons.org/ns#" xmlns:dc="http://purl.org/dc/elements/1.1/" xmlns:rdf="http://www.w3.org/1999/02/22-rdf-syntax-ns#"><metadata id="metadata176"><rdf:RDF><cc:Work rdf:about=""><dc:format>image/svg+xml</dc:format><dc:type rdf:resource="http://purl.org/dc/dcmitype/StillImage"/><dc:title/></cc:Work></rdf:RDF></metadata><defs id="defs64"><clipPath id="clipPath36"><path id="path5" d="m280.44 436.06h20.324v-20.585h-20.324z"/></clipPath><clipPath id="clipPath40"><path id="path8" d="m298.45 430.7c-1.023 0.463-2.716 1.713-3.085 1.992-1.459 1.1-4.38 3.363-4.38 3.363s5.179-5.191 6.936-7.336c0.393-0.481 0.757-0.938 1.088-1.368 0.417-0.189 0.963-0.415 1.275-0.46 0.286-0.04 0.405 0.025 0.463 0.138 0.079 0.17 0.011 0.977-2.297 3.671"/></clipPath><linearGradient id="linearGradient52" x2="1" gradientTransform="matrix(14.733,-12.771,-12.771,-14.733,288.35,438.02)" gradientUnits="userSpaceOnUse"><stop id="stop11" stop-color="#7c7b7c" offset="0"/><stop id="stop13" stop-color="#bcbcbb" offset=".16096"/><stop id="stop15" stop-color="#bcbcbb" offset=".5"/><stop id="stop17" stop-color="#bcbcbb" offset=".83904"/><stop id="stop19" stop-color="#7c7b7c" offset="1"/></linearGradient><clipPath id="clipPath56"><path id="path22" d="m299.14 422.36c-0.5 0.843-1.34 1.957-2.274 3.104-0.827 0.447-1.948 1.124-3.301 2.098-4.051 2.916-8.9 6.795-8.9 6.795s2.926-2.994 7.297-7.584c1.953-2.052 3.373-3.833 4.328-5.17 0.626-0.326 3.012-1.512 3.39-0.849 0.076 0.142 0.077 0.565-0.54 1.606"/></clipPath><linearGradient id="linearGradient68" x2="1" gradientTransform="matrix(14.733,-12.771,-12.771,-14.733,284.71,433.82)" gradientUnits="userSpaceOnUse"><stop id="stop25" stop-color="#7c7b7c" offset="0"/><stop id="stop27" stop-color="#bcbcbb" offset=".16096"/><stop id="stop29" stop-color="#bcbcbb" offset=".5"/><stop id="stop31" stop-color="#bcbcbb" offset=".83904"/><stop id="stop33" stop-color="#7c7b7c" offset="1"/></linearGradient><clipPath id="clipPath72"><path id="path36" d="m294.19 418.26c-0.389 0.584-0.908 1.3-1.499 2.068-0.409 0.261-0.908 0.581-1.524 0.979-3.166 2.047-10.577 7.903-10.577 7.903l9e-3 -8e-3c0.191-0.186 3.944-3.832 7.104-7.372 1.565-1.753 2.684-3.168 3.398-4.21 1.265-0.822 3.086-1.788 3.72-1.431 0.136 0.104 0.397 0.533-0.631 2.071"/></clipPath><linearGradient id="linearGradient84" x2="1" gradientTransform="matrix(14.725,-12.765,-12.765,-14.725,280.44,428.9)" gradientUnits="userSpaceOnUse"><stop id="stop39" stop-color="#7c7b7c" offset="0"/><stop id="stop41" stop-color="#bcbcbb" offset=".16096"/><stop id="stop43" stop-color="#bcbcbb" offset=".5"/><stop id="stop45" stop-color="#bcbcbb" offset=".83904"/><stop id="stop47" stop-color="#7c7b7c" offset="1"/></linearGradient><clipPath id="clipPath88"><path id="path50" d="m287.54 417.38c-3e-3 4e-3 -6e-3 8e-3 -0.01 0.013-0.675 0.456-1.304 0.875-2.234 1.555-2.351 1.72-4.598 3.99-4.838 3.793-0.01-8e-3 -0.015-0.022-0.017-0.042 0-0.01 1e-3 -0.02 2e-3 -0.031 1e-3 -3e-3 1e-3 -6e-3 1e-3 -8e-3 0.036-0.224 0.385-0.881 2.355-2.847 1.381-1.377 2.501-2.515 2.812-3.003 0.719-0.515 1.878-1.172 2.57-1.335 0.051-0.01 0.089-5e-3 0.13-2e-3 0.476 0.067-0.248 1.202-0.771 1.907"/></clipPath><linearGradient id="linearGradient100" x2="1" gradientTransform="matrix(14.683,-12.729,-12.729,-14.683,277.24,425.19)" gradientUnits="userSpaceOnUse"><stop id="stop53" stop-color="#7c7b7c" offset="0"/><stop id="stop55" stop-color="#bcbcbb" offset=".16096"/><stop id="stop57" stop-color="#bcbcbb" offset=".5"/><stop id="stop59" stop-color="#bcbcbb" offset=".83904"/><stop id="stop61" stop-color="#7c7b7c" offset="1"/></linearGradient></defs><g id="g84" transform="matrix(6.5145 0 0 -6.5145 -1720.5 2840.9)" clip-path="url(#clipPath36)"><g id="g70" clip-path="url(#clipPath40)"><path id="path68" d="m298.45 430.7c-1.023 0.463-2.716 1.713-3.085 1.992-1.459 1.1-4.38 3.363-4.38 3.363s5.179-5.191 6.936-7.336c0.393-0.481 0.757-0.938 1.088-1.368 0.417-0.189 0.963-0.415 1.275-0.46 0.286-0.04 0.405 0.025 0.463 0.138 0.079 0.17 0.011 0.977-2.297 3.671" fill="url(#linearGradient52)"/></g><g id="g74" clip-path="url(#clipPath56)"><path id="path72" d="m299.14 422.36c-0.5 0.843-1.34 1.957-2.274 3.104-0.827 0.447-1.948 1.124-3.301 2.098-4.051 2.916-8.9 6.795-8.9 6.795s2.926-2.994 7.297-7.584c1.953-2.052 3.373-3.833 4.328-5.17 0.626-0.326 3.012-1.512 3.39-0.849 0.076 0.142 0.077 0.565-0.54 1.606" fill="url(#linearGradient68)"/></g><g id="g78" clip-path="url(#clipPath72)"><path id="path76" d="m294.19 418.26c-0.389 0.584-0.908 1.3-1.499 2.068-0.409 0.261-0.908 0.581-1.524 0.979-3.166 2.047-10.577 7.903-10.577 7.903l9e-3 -8e-3c0.191-0.186 3.944-3.832 7.104-7.372 1.565-1.753 2.684-3.168 3.398-4.21 1.265-0.822 3.086-1.788 3.72-1.431 0.136 0.104 0.397 0.533-0.631 2.071" fill="url(#linearGradient84)"/></g><g id="g82" clip-path="url(#clipPath88)"><path id="path80" d="m287.54 417.38c-3e-3 4e-3 -6e-3 8e-3 -0.01 0.013-0.675 0.456-1.304 0.875-2.234 1.555-2.351 1.72-4.598 3.99-4.838 3.793-0.01-8e-3 -0.015-0.022-0.017-0.042 0-0.01 1e-3 -0.02 2e-3 -0.031 1e-3 -3e-3 1e-3 -6e-3 1e-3 -8e-3 0.036-0.224 0.385-0.881 2.355-2.847 1.381-1.377 2.501-2.515 2.812-3.003 0.719-0.515 1.878-1.172 2.57-1.335 0.051-0.01 0.089-5e-3 0.13-2e-3 0.476 0.067-0.248 1.202-0.771 1.907" fill="url(#linearGradient100)"/></g></g><g id="g88" transform="matrix(6.5145 0 0 -6.5145 107.16 90.453)" fill="#d0343a"><path id="path86" d="m0 0c-0.063 0.181-0.126 0.42-0.118 0.505-1e-3 -0.179 0.252-0.786 2.359-2.887 1.763-1.758 3.107-3.132 2.875-3.254-0.233-0.12-1.295 0.492-2.275 1.379-1.269 1.148-2.266 2.621-2.841 4.257" fill="#d0343a"/></g><g id="g92" transform="matrix(6.5145 0 0 -6.5145 179.02 135.4)" fill="#d0343a"><path id="path90" d="m0 0c-1.13-0.125-2.294-0.063-3.404 0.178 0.721-0.114-0.077 1.145-0.641 1.905-0.821 1.106-2.067 2.55-3.207 3.782-1.896 2.051-4.367 4.443-4.367 4.443-8e-3 1.266 0.211 2.48 0.619 3.605 0 0 3.871-3.746 7.114-7.38 2.095-2.348 3.392-4.087 3.988-5.141 0.334-0.592 0.538-1.294-0.102-1.392" fill="#d0343a"/></g><g id="g96" transform="matrix(6.5145 0 0 -6.5145 218.76 29.477)" fill="#d0343a"><path id="path94" d="m0 0c-1.896 2.105-3.813 3.949-3.813 3.949 3.587-1.245 6.276-4.345 6.885-8.171 0.03-0.192-2e-3 -0.277-0.02-0.312 0.088 0.188 5e-3 1.138-3.052 4.534" fill="#d0343a"/></g><g id="g100" transform="matrix(6.5145 0 0 -6.5145 239.02 77.684)" fill="#d0343a"><path id="path98" d="m0 0c-0.16-1.218-0.605-2.475-1.121-3.407 0.076 0.142 0.077 0.565-0.54 1.606-1.182 1.994-4.257 5.503-6.026 7.38-2.518 2.671-5.767 5.882-5.767 5.882s0.844 0.267 1.692 0.372c1.332 0.165 1.95 0.058 1.95 0.058s5.179-5.191 6.936-7.336c1.757-2.147 2.969-3.853 2.876-4.555" fill="#d0343a"/></g><g id="g104" transform="matrix(6.5145 0 0 -6.5145 218.5 117.16)" fill="#d0343a"><path id="path102" d="m0 0c-0.83-0.785-1.843-1.466-2.829-1.915 0.136 0.104 0.397 0.533-0.631 2.071-1.061 1.59-3.076 4.16-4.923 6.124-2.199 2.337-7.264 7.451-7.264 7.451s0.507 0.719 1.277 1.434c0.736 0.683 1.382 1.09 1.382 1.09s2.926-2.994 7.297-7.584c2.832-2.976 4.542-5.379 5.34-6.689 0.428-0.704 0.788-1.567 0.351-1.982" fill="#d0343a"/></g><g id="g108" transform="matrix(6.5145 0 0 -6.5145 0 20.031)" fill="#d0343a"><path id="path106" d="m0 0h3.69v-1.93c1.023 1.362 2.641 2.214 4.6 2.214 3.52 0 5.933-2.555 5.933-6.047v-8.857h-3.69v8.204c0 1.959-1.42 3.35-3.408 3.35-1.986 0-3.435-1.391-3.435-3.35v-8.204h-3.69z" fill="#d0343a"/></g><g id="g112" transform="matrix(6.5145 0 0 -6.5145 237.84 20.031)" fill="#d0343a"><path id="path110" d="m0 0h3.975l4.031-10.76 4.059 10.76h3.72l-5.82-14.62h-4.145z" fill="#d0343a"/></g><g id="g116" transform="matrix(6.5145 0 0 -6.5145 391.2 95.143)" fill="#d0343a"><path id="path114" d="m0 0c2.271 0 4.002 1.817 4.002 4.23 0 2.385-1.731 4.202-4.002 4.202s-3.975-1.817-3.975-4.202c0-2.413 1.704-4.23 3.975-4.23m4.002-1.278c-1.163-1.305-2.781-2.1-4.74-2.1-4.003 0-7.07 3.293-7.07 7.608 0 4.287 3.067 7.58 7.07 7.58 1.959 0 3.577-0.795 4.74-2.129v1.845h3.691v-14.62h-3.691z" fill="#d0343a"/></g><path id="path118" d="m0 165.3h7.205v36.553h-7.205z" fill="#d0343a" stroke-width="6.5145"/><g id="g122" transform="matrix(6.5145 0 0 -6.5145 16.091 165.3)" fill="#d0343a"><path id="path120" d="m0 0h1.074l2.814-3.76v3.76h1.107v-5.611h-1.075l-2.814 3.759v-3.759h-1.106z" fill="#d0343a"/></g><g id="g126" transform="matrix(6.5145 0 0 -6.5145 66.448 171.69)" fill="#d0343a"><path id="path124" d="m0 0h-1.732v0.978h4.57v-0.978h-1.732v-4.634h-1.106z" fill="#d0343a"/></g><g id="g130" transform="matrix(6.5145 0 0 -6.5145 91.464 165.3)" fill="#d0343a"><path id="path128" d="m0 0h3.712v-0.978h-2.606v-1.338h2.526v-0.979h-2.526v-1.339h2.606v-0.977h-3.712z" fill="#d0343a"/></g><g id="g134" transform="matrix(6.5145 0 0 -6.5145 139.21 181.98)" fill="#d0343a"><path id="path132" d="m0 0c0.489 0 0.818 0.345 0.818 0.786 0 0.457-0.329 0.794-0.818 0.794h-1.25v-1.58zm-0.561-1.01h-0.689v-2.044h-1.107v5.612h2.357c1.179 0 1.956-0.762 1.956-1.78 0-0.801-0.489-1.451-1.267-1.692l1.428-2.14h-1.315z" fill="#d0343a"/></g><g id="g138" transform="matrix(6.5145 0 0 -6.5145 160.32 165.3)" fill="#d0343a"><path id="path136" d="m0 0h1.074l2.814-3.76v3.76h1.107v-5.611h-1.075l-2.814 3.759v-3.759h-1.106z" fill="#d0343a"/></g><g id="g142" transform="matrix(6.5145 0 0 -6.5145 212.18 187.39)" fill="#d0343a"><path id="path140" d="m0 0h1.716l-0.858 2.148zm0.281 3.391h1.226l2.285-5.612h-1.186l-0.498 1.242h-2.501l-0.489-1.242h-1.122z" fill="#d0343a"/></g><g id="g146" transform="matrix(6.5145 0 0 -6.5145 248.01 171.69)" fill="#d0343a"><path id="path144" d="m0 0h-1.731v0.978h4.569v-0.978h-1.732v-4.634h-1.106z" fill="#d0343a"/></g><path id="path148" d="m273.02 165.3h7.205v36.553h-7.205z" fill="#d0343a" stroke-width="6.5145"/><g id="g152" transform="matrix(6.5145 0 0 -6.5145 307.29 195.73)" fill="#d0343a"><path id="path150" d="m0 0c1.019 0 1.804 0.81 1.804 1.868 0 1.059-0.785 1.876-1.804 1.876-1.026 0-1.812-0.817-1.812-1.876 0-1.058 0.786-1.868 1.812-1.868m0 4.754c1.659 0 2.942-1.259 2.942-2.886 0-1.628-1.283-2.886-2.942-2.886-1.668 0-2.95 1.258-2.95 2.886 0 1.627 1.282 2.886 2.95 2.886" fill="#d0343a"/></g><g id="g156" transform="matrix(6.5145 0 0 -6.5145 334.26 165.3)" fill="#d0343a"><path id="path154" d="m0 0h1.074l2.815-3.76v3.76h1.106v-5.611h-1.074l-2.815 3.759v-3.759h-1.106z" fill="#d0343a"/></g><g id="g160" transform="matrix(6.5145 0 0 -6.5145 386.11 187.39)" fill="#d0343a"><path id="path158" d="m0 0h1.716l-0.859 2.148zm0.28 3.391h1.228l2.284-5.612h-1.187l-0.497 1.242h-2.501l-0.489-1.242h-1.122z" fill="#d0343a"/></g><g id="g164" transform="matrix(6.5145 0 0 -6.5145 417.12 165.3)" fill="#d0343a"><path id="path162" d="m0 0h1.106v-4.634h2.606v-0.977h-3.712z" fill="#d0343a"/></g></svg>
