<?xml version="1.0" encoding="UTF-8" standalone="no"?>
<svg
   xmlns:dc="http://purl.org/dc/elements/1.1/"
   xmlns:cc="http://creativecommons.org/ns#"
   xmlns:rdf="http://www.w3.org/1999/02/22-rdf-syntax-ns#"
   xmlns:svg="http://www.w3.org/2000/svg"
   xmlns="http://www.w3.org/2000/svg"
   xmlns:sodipodi="http://sodipodi.sourceforge.net/DTD/sodipodi-0.dtd"
   xmlns:inkscape="http://www.inkscape.org/namespaces/inkscape"
   width="228.16028mm"
   height="71.362663mm"
   version="1.1"
   viewBox="0 0 228.1592 71.36245"
   id="svg124"
   sodipodi:docname="Nova Plus 1 HD - Original.svg"
   inkscape:version="0.92.1 r15371">
  <metadata
     id="metadata128">
    <rdf:RDF>
      <cc:Work
         rdf:about="">
        <dc:format>image/svg+xml</dc:format>
        <dc:type
           rdf:resource="http://purl.org/dc/dcmitype/StillImage" />
        <dc:title></dc:title>
      </cc:Work>
    </rdf:RDF>
  </metadata>
  <sodipodi:namedview
     pagecolor="#ffffff"
     bordercolor="#666666"
     borderopacity="1"
     objecttolerance="10"
     gridtolerance="10"
     guidetolerance="10"
     inkscape:pageopacity="0"
     inkscape:pageshadow="2"
     inkscape:window-width="1920"
     inkscape:window-height="1017"
     id="namedview126"
     showgrid="false"
     fit-margin-top="0"
     fit-margin-left="0"
     fit-margin-right="0"
     fit-margin-bottom="0"
     inkscape:zoom="1.2357991"
     inkscape:cx="423.62318"
     inkscape:cy="154.39793"
     inkscape:window-x="-8"
     inkscape:window-y="-8"
     inkscape:window-maximized="1"
     inkscape:current-layer="svg124" />
  <defs
     id="defs48">
    <clipPath
       id="clipPath87241">
      <path
         d="m 289.4,639.18 h 20.976 v 9.429 H 289.4 Z"
         id="path2"
         inkscape:connector-curvature="0" />
    </clipPath>
    <clipPath
       id="clipPath87219">
      <path
         d="m 295.71,643.19 -0.004,-0.011 10e-4,-0.007 v -0.002 c 0.008,-0.054 0.092,-0.21 0.562,-0.678 0.33,-0.33 0.596,-0.602 0.67,-0.718 0.172,-0.122 0.449,-0.28 0.613,-0.317 l 0.032,-10e-4 c 0.026,0.004 0.037,0.022 0.037,0.049 -0.002,0.089 -0.126,0.277 -0.221,0.405 l -0.003,0.003 c -0.161,0.11 -0.31,0.21 -0.532,0.371 -0.538,0.392 -1.052,0.907 -1.146,0.909 -0.004,0 -0.006,-10e-4 -0.009,-0.003"
         id="path5"
         inkscape:connector-curvature="0" />
    </clipPath>
    <linearGradient
       id="linearGradient87231"
       x2="1"
       gradientTransform="matrix(3.5022,-3.036,-3.036,-3.5022,294.95,643.78)"
       gradientUnits="userSpaceOnUse">
      <stop
         stop-color="#67212c"
         offset="0"
         id="stop8" />
      <stop
         stop-color="#9d2837"
         offset=".5"
         id="stop10" />
      <stop
         stop-color="#67212c"
         offset="1"
         id="stop12" />
    </linearGradient>
    <clipPath
       id="clipPath87197">
      <path
         d="m 295.74,644.74 c 0.046,-0.045 0.942,-0.915 1.696,-1.759 0.373,-0.418 0.64,-0.755 0.81,-1.004 0.035,-0.023 0.072,-0.046 0.109,-0.069 0.289,-0.176 0.645,-0.347 0.778,-0.271 0.013,0.009 0.031,0.032 0.032,0.08 0,0.071 -0.037,0.195 -0.182,0.412 -0.093,0.139 -0.217,0.311 -0.358,0.494 -0.097,0.062 -0.216,0.138 -0.363,0.234 -0.755,0.488 -2.522,1.884 -2.522,1.884 z"
         id="path15"
         inkscape:connector-curvature="0" />
    </clipPath>
    <linearGradient
       id="linearGradient87209"
       x2="1"
       gradientTransform="matrix(3.5121,-3.0446,-3.0446,-3.5121,295.71,644.66)"
       gradientUnits="userSpaceOnUse">
      <stop
         stop-color="#67212c"
         offset="0"
         id="stop18" />
      <stop
         stop-color="#9d2837"
         offset=".5"
         id="stop20" />
      <stop
         stop-color="#67212c"
         offset="1"
         id="stop22" />
    </linearGradient>
    <clipPath
       id="clipPath87175">
      <path
         d="m 298.46,644.16 c 0.467,-0.49 0.806,-0.915 1.033,-1.234 0.117,-0.06 0.496,-0.249 0.695,-0.249 0.053,0 0.094,0.013 0.114,0.047 0.004,0.008 0.008,0.021 0.008,0.039 10e-4,0.055 -0.027,0.158 -0.137,0.344 -0.12,0.201 -0.32,0.467 -0.543,0.74 -0.197,0.107 -0.464,0.269 -0.786,0.5 -0.967,0.696 -2.123,1.621 -2.123,1.621 0,0 0.697,-0.713 1.739,-1.808"
         id="path25"
         inkscape:connector-curvature="0" />
    </clipPath>
    <linearGradient
       id="linearGradient87187"
       x2="1"
       gradientTransform="matrix(3.514,-3.0462,-3.0462,-3.514,296.73,645.84)"
       gradientUnits="userSpaceOnUse">
      <stop
         stop-color="#67212c"
         offset="0"
         id="stop28" />
      <stop
         stop-color="#9d2837"
         offset=".5"
         id="stop30" />
      <stop
         stop-color="#67212c"
         offset="1"
         id="stop32" />
    </linearGradient>
    <clipPath
       id="clipPath87153">
      <path
         d="m 298.55,646.04 c 0.397,-0.405 1.044,-1.073 1.324,-1.416 0.095,-0.114 0.181,-0.224 0.259,-0.326 0.1,-0.045 0.23,-0.099 0.305,-0.111 l 0.11,0.034 c 10e-4,0.002 0.002,0.005 0.003,0.008 v 0.002 c 0.001,0 0.001,0 0.001,10e-4 0,0.004 10e-4,0.009 10e-4,0.015 v 0.004 c 0,10e-4 0,0.002 -10e-4,0.004 -0.005,0.083 -0.093,0.306 -0.551,0.841 -0.245,0.112 -0.649,0.409 -0.736,0.476 -0.332,0.25 -0.981,0.752 -1.041,0.798 0.023,-0.023 0.15,-0.151 0.326,-0.33"
         id="path35"
         inkscape:connector-curvature="0" />
    </clipPath>
    <linearGradient
       id="linearGradient87165"
       x2="1"
       gradientTransform="matrix(3.514,-3.0462,-3.0462,-3.514,297.6,646.84)"
       gradientUnits="userSpaceOnUse">
      <stop
         stop-color="#67212c"
         offset="0"
         id="stop38" />
      <stop
         stop-color="#9d2837"
         offset=".5"
         id="stop40" />
      <stop
         stop-color="#67212c"
         offset="1"
         id="stop42" />
    </linearGradient>
    <clipPath
       id="clipPath87143">
      <path
         d="m 289.4,639.18 h 20.976 v 9.429 H 289.4 Z"
         id="path45"
         inkscape:connector-curvature="0" />
    </clipPath>
    <pattern
       y="0"
       x="0"
       height="6"
       width="6"
       patternUnits="userSpaceOnUse"
       id="EMFhbasepattern" />
  </defs>
  <g
     id="g54"
     transform="matrix(10.877173,0,0,-7.5684,-3147.854,4908.9324)">
    <g
       id="g52"
       clip-path="url(#clipPath87143)">
      <path
         style="fill:#d4293d"
         inkscape:connector-curvature="0"
         id="path50"
         d="m 289.4,639.18 h 20.976 v 9.429 H 289.4 Z" />
    </g>
  </g>
  <g
     id="g4713"
     transform="translate(0.05825642,0.0722668)">
    <g
       id="g60"
       transform="matrix(7.5682,0,0,-7.5682,-2199.543,4908.76)">
      <g
         id="g58"
         clip-path="url(#clipPath87153)">
        <path
           inkscape:connector-curvature="0"
           style="fill:url(#linearGradient87165)"
           id="path56"
           d="m 298.55,646.04 c 0.397,-0.405 1.044,-1.073 1.324,-1.416 0.095,-0.114 0.181,-0.224 0.259,-0.326 0.1,-0.045 0.23,-0.099 0.305,-0.111 l 0.11,0.034 c 10e-4,0.002 0.002,0.005 0.003,0.008 v 0.002 c 0.001,0 0.001,0 0.001,10e-4 0,0.004 10e-4,0.009 10e-4,0.015 v 0.004 c 0,10e-4 0,0.002 -10e-4,0.004 -0.005,0.083 -0.093,0.306 -0.551,0.841 -0.245,0.112 -0.649,0.409 -0.736,0.476 -0.332,0.25 -0.981,0.752 -1.041,0.798 0.023,-0.023 0.15,-0.151 0.326,-0.33" />
      </g>
    </g>
    <g
       id="g66"
       transform="matrix(7.5682,0,0,-7.5682,-2199.543,4908.76)">
      <g
         id="g64"
         clip-path="url(#clipPath87175)">
        <path
           inkscape:connector-curvature="0"
           style="fill:url(#linearGradient87187)"
           id="path62"
           d="m 298.46,644.16 c 0.467,-0.49 0.806,-0.915 1.033,-1.234 0.117,-0.06 0.496,-0.249 0.695,-0.249 0.053,0 0.094,0.013 0.114,0.047 0.004,0.008 0.008,0.021 0.008,0.039 10e-4,0.055 -0.027,0.158 -0.137,0.344 -0.12,0.201 -0.32,0.467 -0.543,0.74 -0.197,0.107 -0.464,0.269 -0.786,0.5 -0.967,0.696 -2.123,1.621 -2.123,1.621 0,0 0.697,-0.713 1.739,-1.808" />
      </g>
    </g>
    <g
       id="g72"
       transform="matrix(7.5682,0,0,-7.5682,-2199.543,4908.76)">
      <g
         id="g70"
         clip-path="url(#clipPath87197)">
        <path
           inkscape:connector-curvature="0"
           style="fill:url(#linearGradient87209)"
           id="path68"
           d="m 295.74,644.74 c 0.046,-0.045 0.942,-0.915 1.696,-1.759 0.373,-0.418 0.64,-0.755 0.81,-1.004 0.035,-0.023 0.072,-0.046 0.109,-0.069 0.289,-0.176 0.645,-0.347 0.778,-0.271 0.013,0.009 0.031,0.032 0.032,0.08 0,0.071 -0.037,0.195 -0.182,0.412 -0.093,0.139 -0.217,0.311 -0.358,0.494 -0.097,0.062 -0.216,0.138 -0.363,0.234 -0.755,0.488 -2.522,1.884 -2.522,1.884 z" />
      </g>
    </g>
    <g
       id="g78"
       transform="matrix(7.5682,0,0,-7.5682,-2199.543,4908.76)">
      <g
         id="g76"
         clip-path="url(#clipPath87219)">
        <path
           inkscape:connector-curvature="0"
           style="fill:url(#linearGradient87231)"
           id="path74"
           d="m 295.71,643.19 -0.004,-0.011 10e-4,-0.007 v -0.002 c 0.008,-0.054 0.092,-0.21 0.562,-0.678 0.33,-0.33 0.596,-0.602 0.67,-0.718 0.172,-0.122 0.449,-0.28 0.613,-0.317 l 0.032,-10e-4 c 0.026,0.004 0.037,0.022 0.037,0.049 -0.002,0.089 -0.126,0.277 -0.221,0.405 l -0.003,0.003 c -0.161,0.11 -0.31,0.21 -0.532,0.371 -0.538,0.392 -1.052,0.907 -1.146,0.909 -0.004,0 -0.006,-10e-4 -0.009,-0.003" />
      </g>
    </g>
    <g
       id="g114"
       transform="matrix(7.5682,0,0,-7.5682,-2199.543,4908.76)">
      <g
         id="g112"
         clip-path="url(#clipPath87241)">
        <g
           id="g82"
           transform="translate(295.74,643.06)">
          <path
             style="fill:#ffffff"
             inkscape:connector-curvature="0"
             id="path80"
             d="m 0,0 -0.028,0.12 c 0,-0.042 0.06,-0.187 0.562,-0.688 C 0.955,-0.987 1.276,-1.315 1.22,-1.344 1.165,-1.373 0.911,-1.227 0.678,-1.015 0.375,-0.741 0.137,-0.39 0,0" />
        </g>
        <g
           id="g86"
           transform="translate(298.37,641.42)">
          <path
             style="fill:#ffffff"
             inkscape:connector-curvature="0"
             id="path84"
             d="M 0,0 C -0.27,-0.03 -0.547,-0.015 -0.812,0.042 -0.64,0.015 -0.83,0.316 -0.965,0.497 -1.161,0.761 -1.458,1.105 -1.73,1.399 c -0.452,0.489 -1.041,1.06 -1.041,1.06 -0.002,0.301 0.05,0.591 0.147,0.859 0,0 0.924,-0.893 1.697,-1.76 0.5,-0.56 0.809,-0.974 0.951,-1.226 C 0.104,0.191 0.153,0.023 0,0" />
        </g>
        <g
           id="g90"
           transform="translate(299.82,645.3)">
          <path
             style="fill:#ffffff"
             inkscape:connector-curvature="0"
             id="path88"
             d="M 0,0 C -0.452,0.502 -0.909,0.942 -0.909,0.942 -0.054,0.645 0.588,-0.094 0.733,-1.007 L 0.728,-1.081 C 0.749,-1.036 0.729,-0.81 0,0" />
        </g>
        <g
           id="g94"
           transform="translate(300.56,643.53)">
          <path
             style="fill:#ffffff"
             inkscape:connector-curvature="0"
             id="path92"
             d="m 0,0 c -0.038,-0.291 -0.144,-0.59 -0.267,-0.813 0.018,0.034 0.018,0.135 -0.129,0.383 -0.282,0.476 -1.016,1.313 -1.437,1.761 -0.601,0.637 -1.376,1.403 -1.376,1.403 0,0 0.201,0.063 0.404,0.088 0.318,0.04 0.465,0.014 0.465,0.014 0,0 1.235,-1.238 1.654,-1.75 C -0.267,0.574 0.022,0.167 0,0" />
        </g>
        <g
           id="g98"
           transform="translate(299.81,642.09)">
          <path
             style="fill:#ffffff"
             inkscape:connector-curvature="0"
             id="path96"
             d="m 0,0 c -0.198,-0.187 -0.44,-0.35 -0.675,-0.457 0.033,0.025 0.095,0.127 -0.15,0.494 -0.253,0.379 -0.734,0.992 -1.175,1.461 -0.524,0.557 -1.732,1.777 -1.732,1.777 0,0 0.121,0.171 0.305,0.342 0.175,0.163 0.329,0.26 0.329,0.26 0,0 0.698,-0.714 1.74,-1.809 0.676,-0.71 1.084,-1.283 1.274,-1.595 C 0.018,0.305 0.104,0.099 0,0" />
        </g>
        <g
           id="g102"
           transform="translate(291.81,645.64)">
          <path
             style="fill:#ffffff"
             inkscape:connector-curvature="0"
             id="path100"
             d="M -1.8291068e-6,0 H 0.88 v -0.46 c 0.244,0.325 0.63,0.528 1.097,0.528 0.84,0 1.415,-0.61 1.415,-1.443 v -2.112 h -0.88 v 1.957 c 0,0.467 -0.338,0.799 -0.812,0.799 -0.474,0 -0.82,-0.332 -0.82,-0.799 V -3.487 H 0 Z"
             sodipodi:nodetypes="cccssccsssccc" />
        </g>
        <g
           id="g106"
           transform="translate(300.52,645.64)">
          <path
             style="fill:#ffffff"
             inkscape:connector-curvature="0"
             id="path104"
             d="M 0,0 H 0.948 L 1.909,-2.566 2.878,0 H 3.765 L 2.377,-3.487 H 1.388 Z" />
        </g>
        <g
           id="g110"
           transform="translate(306.14,642.89)">
          <path
             style="fill:#ffffff"
             inkscape:connector-curvature="0"
             id="path108"
             d="M 0,0 C 0.542,0 0.955,0.433 0.955,1.009 0.955,1.578 0.542,2.011 0,2.011 -0.542,2.011 -0.948,1.578 -0.948,1.009 -0.948,0.433 -0.542,0 0,0 m 0.955,-0.305 c -0.278,-0.311 -0.664,-0.501 -1.131,-0.501 -0.955,0 -1.686,0.786 -1.686,1.815 0,1.022 0.731,1.808 1.686,1.808 0.467,0 0.853,-0.19 1.131,-0.508 v 0.44 h 0.88 v -3.487 h -0.88 z" />
        </g>
      </g>
    </g>
  </g>
  <g
     id="g4733"
     transform="translate(-38.113553,41.549931)">
    <path
       inkscape:connector-curvature="0"
       style="fill:#fdfdfd;fill-opacity:1;fill-rule:nonzero;stroke:none;stroke-width:0.26458254"
       d="M 206.49014,-16.692134 219.825,-19.9941 V 0.96068222 h 5.79959 l 4e-5,6.30760198 H 206.49014 V 0.96068222 h 6.70976 V -12.564677 l -6.70976,1.735649 z"
       id="path4718"
       sodipodi:nodetypes="ccccccccccc" />
    <path
       inkscape:connector-curvature="0"
       style="fill:#fdfdfd;fill-opacity:1;fill-rule:nonzero;stroke:none;stroke-width:0.26458254"
       d="m 188.3505,-19.147442 h 6.79443 v 10.0540622 h 9.5884 v 6.455766 h -9.5884 v 9.905898 h -6.79443 v -9.905898 h -9.75774 v -6.455766 h 9.75774 z"
       id="path4720" />
  </g>
  <g
     transform="translate(56.23764,0.007549)"
     id="g4677">
    <path
       style="fill:#ffffff;stroke-width:0.96673"
       inkscape:connector-curvature="0"
       id="path116"
       d="m 138.297,22.75 h 2.9137 v 4.7176 h 5.1536 V 22.75 h 2.9137 v 12.016 h -2.9137 v -4.7273 h -5.1536 v 4.7273 h -2.9137 z" />
    <path
       style="fill:#ffffff;stroke-width:0.96673"
       inkscape:connector-curvature="0"
       id="path118"
       d="m 156.587,32.19 c 2.0456,0 3.3971,-1.4404 3.3971,-3.4319 0,-2.0108 -1.3515,-3.4319 -3.3971,-3.4319 h -1.8174 V 32.19 Z m -4.7399,-9.4353 h 4.9941 c 3.573,0 6.16278,2.6102 6.16278,6.0034 0,3.3932 -2.58978,6.0034 -6.16278,6.0034 h -4.9941 z"
       sodipodi:nodetypes="sssccscssscc" />
  </g>
</svg>
