<svg height="68.598mm" viewBox="0 0 179.91667 68.597922" width="179.92mm" xmlns="http://www.w3.org/2000/svg" xmlns:xlink="http://www.w3.org/1999/xlink"><clipPath id="a"><path d="m289.4 622.63h20.976v9.064h-20.976z"/></clipPath><clipPath id="b"><path d="m289.4 619.65h20.976v15.024h-20.976z"/></clipPath><g transform="translate(-58.744 -39.352)"><g clip-path="url(#b)" transform="matrix(8.5773 0 0 -7.5682 -2423.5 4820.1)"><path d="m289.4 622.63h20.976v9.064h-20.976z" fill="#5b3699"/></g><g clip-path="url(#a)" transform="matrix(7.5682 0 0 -7.5682 -2134.4 4820.1)"><g transform="translate(291.27 629.84)"><path d="m0 0h .407v-.213c.112.151.29.244.506.244.388 0 .654-.281.654-.666v-.976h-.407v.904c0 .216-.156.369-.375.369s-.378-.153-.378-.369v-.904h-.407z" fill="#fff"/></g><g transform="translate(293.93 628.57)"><path d="m0 0c .25 0 .441.2.441.466 0 .263-.191.463-.441.463s-.438-.2-.438-.463c0-.266.188-.466.438-.466m0 1.301c.488 0 .86-.363.86-.835 0-.475-.372-.838-.86-.838s-.86.363-.86.838c0 .472.372.835.86.835" fill="#fff"/></g><g transform="translate(294.78 629.84)"><path d="m0 0h .438l.444-1.185.447 1.185h.41l-.641-1.611h-.457z" fill="#fff"/></g><g transform="translate(297.37 628.57)"><path d="m0 0c .25 0 .441.2.441.466 0 .263-.191.463-.441.463s-.438-.2-.438-.463c0-.266.188-.466.438-.466m.441-.141c-.128-.144-.307-.231-.522-.231-.441 0-.779.363-.779.838 0 .472.338.835.779.835.215 0 .394-.088.522-.235v.204h.406v-1.611h-.406z" fill="#fff"/></g><g transform="translate(292.61 627.57)"><path d="m0 0c .719 0 1.225-.433 1.429-.879l-.684-.26c-.126.256-.394.464-.745.464-.476 0-.84-.386-.84-.884s.364-.883.84-.883c.351 0 .619.208.745.463l.684-.259c-.204-.446-.71-.879-1.429-.879-.905 0-1.602.679-1.602 1.558s.697 1.559 1.602 1.559" fill="#fff"/></g><path d="m294.46 627.53h.736v-3.031h-.736z" fill="#fff"/><g transform="translate(295.76 627.53)"><path d="m0 0h .714l1.321-1.793v1.793h.736v-3.031h-.714l-1.321 1.793v-1.793h-.736z" fill="#fff"/></g><g transform="translate(299.11 627.53)"><path d="m0 0h2.078v-.65h-1.342v-.541h1.299v-.649h-1.299v-.541h1.342v-.65h-2.078z" fill="#fff"/></g><g transform="translate(301.73 627.53)"><path d="m0 0h1.005l.792-2.091.792 2.091h.961v-3.031h-.714v1.853l-.736-1.853h-.654l-.732 1.849v-1.849h-.714z" fill="#fff"/></g><g transform="translate(306.78 625.75)"><path d="m0 0h .727l-.363.966zm-.022 1.784h.823l1.191-3.031h-.788l-.23.598h-1.216l-.226-.598h-.744z" fill="#fff"/></g></g><path d="m205.05 71.221h2.8691v4.6453h5.0746v-4.6453h2.869v11.832h-2.869v-4.6548h-5.0746v4.6548h-2.8691z" fill="#fff" stroke-width=".95191"/><path d="m223.06 80.511c2.0142 0 3.345-1.4183 3.345-3.3793 0-1.98-1.3308-3.3793-3.345-3.3793h-1.7896v6.7586zm-4.6672-9.2906h4.9176c3.5182 0 6.0684 2.5702 6.0684 5.9114s-2.5502 5.9114-6.0684 5.9114h-4.9176z" fill="#fff" stroke-width=".95191"/></g></svg>