<?xml version="1.0" encoding="UTF-8"?>
<svg id="svg42" width="126.72mm" height="24.112mm" version="1.1" viewBox="0 0 126.72 24.112" xmlns="http://www.w3.org/2000/svg" xmlns:cc="http://creativecommons.org/ns#" xmlns:dc="http://purl.org/dc/elements/1.1/" xmlns:rdf="http://www.w3.org/1999/02/22-rdf-syntax-ns#">
 <metadata id="metadata46">
  <rdf:RDF>
   <cc:Work rdf:about="">
    <dc:format>image/svg+xml</dc:format>
    <dc:type rdf:resource="http://purl.org/dc/dcmitype/StillImage"/>
    <dc:title/>
   </cc:Work>
  </rdf:RDF>
 </metadata>
 <g id="g18" transform="matrix(7.5682 0 0 -7.5682 -.00063028 .52977)" fill="#2e3e96">
  <path id="path16" d="m0 0h0.772v-0.404c0.214 0.285 0.552 0.463 0.962 0.463 0.736 0 1.24-0.534 1.24-1.264v-1.853h-0.771v1.716c0 0.41-0.297 0.701-0.713 0.701-0.415 0-0.718-0.291-0.718-0.701v-1.716h-0.772z" fill="#2e3e96"/>
 </g>
 <g id="g22" transform="matrix(7.5682 0 0 -7.5682 38.219 18.769)" fill="#2e3e96">
  <path id="path20" d="m0 0c0.475 0 0.837 0.38 0.837 0.885 0 0.498-0.362 0.878-0.837 0.878s-0.831-0.38-0.831-0.878c0-0.505 0.356-0.885 0.831-0.885m0 2.47c0.926 0 1.633-0.689 1.633-1.585 0-0.903-0.707-1.591-1.633-1.591s-1.633 0.688-1.633 1.591c0 0.896 0.707 1.585 1.633 1.585" fill="#2e3e96"/>
 </g>
 <g id="g26" transform="matrix(7.5682 0 0 -7.5682 50.404 .52977)" fill="#2e3e96">
  <path id="path24" d="m0 0h0.831l0.843-2.25 0.849 2.25h0.778l-1.217-3.058h-0.867z" fill="#2e3e96"/>
 </g>
 <g id="g30" transform="matrix(7.5682 0 0 -7.5682 87.639 18.769)" fill="#2e3e96">
  <path id="path28" d="m0 0c0.475 0 0.837 0.38 0.837 0.885 0 0.498-0.362 0.878-0.837 0.878s-0.831-0.38-0.831-0.878c0-0.505 0.356-0.885 0.831-0.885m0.837-0.267c-0.243-0.273-0.582-0.439-0.991-0.439-0.837 0-1.479 0.688-1.479 1.591 0 0.896 0.642 1.585 1.479 1.585 0.409 0 0.748-0.167 0.991-0.446v0.386h0.772v-3.057h-0.772z" fill="#2e3e96"/>
 </g>
 <g id="g34" transform="matrix(7.5682 0 0 -7.5682 109.44 18.618)">
  <path id="path32" d="m0 0 1.278 1.063c0.115 0.097 0.211 0.224 0.211 0.4 0 0.167-0.109 0.312-0.369 0.312-0.215 0-0.369-0.127-0.369-0.404l-0.773 0.088c0.044 0.658 0.479 1.001 1.142 1.001 0.672 0 1.143-0.364 1.143-0.975 0-0.4-0.233-0.729-0.514-0.949l-0.668-0.536h1.203v-0.659h-2.284z" fill="#50c5d5"/>
 </g>
</svg>
