<svg height="37.609669mm" viewBox="0 0 122.33974 37.609556" width="122.34032mm" xmlns="http://www.w3.org/2000/svg" xmlns:xlink="http://www.w3.org/1999/xlink"><clipPath id="a"><path d="m295.71 643.19-.004-.011.001-.007v-.002c.008-.054.092-.21.562-.678.33-.33.596-.602.67-.718.172-.122.449-.28.613-.317l.032-.001c.026.004.037.022.037.049-.002.089-.126.277-.221.405l-.003.003c-.161.11-.31.21-.532.371-.538.392-1.052.907-1.146.909-.004 0-.006-.001-.009-.003"/></clipPath><linearGradient id="b"><stop offset="0" stop-color="#67212c"/><stop offset=".5" stop-color="#9d2837"/><stop offset="1" stop-color="#67212c"/></linearGradient><linearGradient id="c" gradientTransform="matrix(3.5022 -3.036 -3.036 -3.5022 294.95 643.78)" gradientUnits="userSpaceOnUse" x2="1" xlink:href="#b"/><clipPath id="d"><path d="m295.74 644.74c.046-.045.942-.915 1.696-1.759.373-.418.64-.755.81-1.004.035-.023.072-.046.109-.069.289-.176.645-.347.778-.271.013.009.031.032.032.08 0 .071-.037.195-.182.412-.093.139-.217.311-.358.494-.097.062-.216.138-.363.234-.755.488-2.522 1.884-2.522 1.884z"/></clipPath><linearGradient id="e" gradientTransform="matrix(3.5121 -3.0446 -3.0446 -3.5121 295.71 644.66)" gradientUnits="userSpaceOnUse" x2="1" xlink:href="#b"/><clipPath id="f"><path d="m298.46 644.16c.467-.49.806-.915 1.033-1.234.117-.06.496-.249.695-.249.053 0 .094.013.114.047.004.008.008.021.008.039.001.055-.027.158-.137.344-.12.201-.32.467-.543.74-.197.107-.464.269-.786.5-.967.696-2.123 1.621-2.123 1.621s.697-.713 1.739-1.808"/></clipPath><linearGradient id="g" gradientTransform="matrix(3.514 -3.0462 -3.0462 -3.514 296.73 645.84)" gradientUnits="userSpaceOnUse" x2="1" xlink:href="#b"/><clipPath id="h"><path d="m298.55 646.04c.397-.405 1.044-1.073 1.324-1.416.095-.114.181-.224.259-.326.1-.045.23-.099.305-.111l.11.034c.001.002.002.005.003.008v.002c.001 0 .001 0 .001.001 0 .004.001.009.001.015v.004c0 .001 0 .002-.001.004-.005.083-.093.306-.551.841-.245.112-.649.409-.736.476-.332.25-.981.752-1.041.798.023-.023.15-.151.326-.33"/></clipPath><linearGradient id="i" gradientTransform="matrix(3.514 -3.0462 -3.0462 -3.514 297.6 646.84)" gradientUnits="userSpaceOnUse" x2="1" xlink:href="#b"/><g clip-path="url(#h)" transform="matrix(7.5682 0 0 -7.5682 -2208.4766 4891.89)"><path d="m298.55 646.04c.397-.405 1.044-1.073 1.324-1.416.095-.114.181-.224.259-.326.1-.045.23-.099.305-.111l.11.034c.001.002.002.005.003.008v.002c.001 0 .001 0 .001.001 0 .004.001.009.001.015v.004c0 .001 0 .002-.001.004-.005.083-.093.306-.551.841-.245.112-.649.409-.736.476-.332.25-.981.752-1.041.798.023-.023.15-.151.326-.33" fill="url(#i)"/></g><g clip-path="url(#f)" transform="matrix(7.5682 0 0 -7.5682 -2208.4766 4891.89)"><path d="m298.46 644.16c.467-.49.806-.915 1.033-1.234.117-.06.496-.249.695-.249.053 0 .094.013.114.047.004.008.008.021.008.039.001.055-.027.158-.137.344-.12.201-.32.467-.543.74-.197.107-.464.269-.786.5-.967.696-2.123 1.621-2.123 1.621s.697-.713 1.739-1.808" fill="url(#g)"/></g><g clip-path="url(#d)" transform="matrix(7.5682 0 0 -7.5682 -2208.4766 4891.89)"><path d="m295.74 644.74c.046-.045.942-.915 1.696-1.759.373-.418.64-.755.81-1.004.035-.023.072-.046.109-.069.289-.176.645-.347.778-.271.013.009.031.032.032.08 0 .071-.037.195-.182.412-.093.139-.217.311-.358.494-.097.062-.216.138-.363.234-.755.488-2.522 1.884-2.522 1.884z" fill="url(#e)"/></g><g clip-path="url(#a)" transform="matrix(7.5682 0 0 -7.5682 -2208.4766 4891.89)"><path d="m295.71 643.19-.004-.011.001-.007v-.002c.008-.054.092-.21.562-.678.33-.33.596-.602.67-.718.172-.122.449-.28.613-.317l.032-.001c.026.004.037.022.037.049-.002.089-.126.277-.221.405l-.003.003c-.161.11-.31.21-.532.371-.538.392-1.052.907-1.146.909-.004 0-.006-.001-.009-.003" fill="url(#c)"/></g><g fill="#d4293d" stroke-width="7.5682"><path d="m29.74289 25.083332-.21191-.908184c0 .317864.454092 1.415253 4.253329 5.206922 3.186212 3.171075 5.615604 5.653445 5.191785 5.872923-.416251.219478-2.338574-.88548-4.101964-2.489938-2.293165-2.073687-4.094397-4.730125-5.13124-7.681723"/><path d="m49.647256 37.49518c-2.043414.227046-4.139805.113523-6.145378-.317864 1.30173.204341-.136228-2.073687-1.157935-3.443531-1.483367-1.998005-3.731123-4.601466-5.789673-6.826517-3.420826-3.70085-7.878496-8.022292-7.878496-8.022292-.01514-2.278028.37841-4.472806 1.112525-6.501084 0 0 6.993017 6.758403 12.843236 13.320032 3.7841 4.238192 6.122673 7.371427 7.197358 9.278614.605456 1.067116.976298 2.338573-.181637 2.512642"/><path d="m60.621146 8.1305645c-3.420826-3.7992364-6.879494-7.1292444-6.879494-7.1292444 6.470811 2.2477554 11.329596 7.8406552 12.426985 14.7504209l-.03784.560047c.158932-.340569.0076-2.050982-5.50965-8.1812235"/><path d="m66.221614 21.526278c-.287592 2.202346-1.089821 4.465238-2.020709 6.152947.136227-.257319.136227-1.021707-.976298-2.898621-2.134233-3.602463-7.689291-9.937047-10.875504-13.3276-4.548488-4.8209431-10.413843-10.61818433-10.413843-10.61818433s1.521208-.4767966 3.057553-.6660016c2.406688-.302728 3.519213-.1059548 3.519213-.1059548s9.346727 9.36943163 12.517803 13.24434973c3.171076 3.874918 5.358285 6.955176 5.191785 8.219065"/><path d="m60.545464 32.424486c-1.498504 1.415253-3.330008 2.64887-5.108535 3.458667.249751-.189205.718979-.961161-1.13523-3.73869-1.914755-2.868348-5.555059-7.507655-8.892635-11.057141-3.965737-4.215487-13.108122-13.4486905-13.108122-13.4486905s.915752-1.2941622 2.308301-2.5883244c1.324435-1.2336166 2.489937-1.967732 2.489937-1.967732s5.282604 5.4036948 13.168668 13.6908729c5.116104 5.373422 8.203929 9.710001 9.641887 12.071279.771957 1.271458 1.422822 2.830507.635729 3.579759"/><path d="m-.00013628 5.5573765h6.66001598v3.481372c1.8466408-2.459665 4.7679663-3.9960096 8.3023153-3.9960096 6.357288 0 10.709003 4.616602 10.709003 10.9209121v15.984038h-6.660016v-14.810967c0-3.534349-2.558051-6.046992-6.145378-6.046992-3.5873271 0-6.2059243 2.512643-6.2059243 6.046992v14.810967h-6.66001598z"/><path d="m65.918886 5.5573765h7.174654l7.27304 19.4200005 7.333586-19.4200005h6.712993l-10.504662 26.3903125h-7.484949z"/><path d="m108.45217 26.369926c4.10196 0 7.22763-3.277031 7.22763-7.636314 0-4.306306-3.12567-7.583336-7.22763-7.583336s-7.17465 3.27703-7.17465 7.583336c0 4.359283 3.07269 7.636314 7.17465 7.636314m7.22763 2.308301c-2.10396 2.35371-5.02528 3.791668-8.55963 3.791668-7.227632 0-12.759986-5.948605-12.759986-13.736283 0-7.7347 5.532354-13.6833049 12.759986-13.6833049 3.53435 0 6.45567 1.437958 8.55963 3.8446456v-3.330008h6.66002v26.3903133h-6.66002z"/></g></svg>