<svg height="62.611mm" viewBox="0 0 158.75 62.611497" width="158.75mm" xmlns="http://www.w3.org/2000/svg" xmlns:xlink="http://www.w3.org/1999/xlink"><clipPath id="a"><path d="m289.4 589.58h20.976v8.273h-20.976z"/></clipPath><clipPath id="b"><path d="m289.4 586.2h20.976v15.025h-20.976z"/></clipPath><g clip-path="url(#b)" transform="matrix(7.5682 0 0 -7.5682 -2190.31 4524.632)"><path d="m289.4 589.58h20.976v8.273h-20.976z" fill="#2e3e96"/></g><g clip-path="url(#a)" transform="matrix(7.5682 0 0 -7.5682 -2190.31 4524.632)"><g transform="translate(291.52 595.24)"><path d="m0 0h .772v-.404c.214.285.552.463.962.463.736 0 1.24-.534 1.24-1.264v-1.853h-.771v1.716c0 .41-.297.701-.713.701-.415 0-.718-.291-.718-.701v-1.716h-.772z" fill="#fff"/></g><g transform="translate(296.57 592.83)"><path d="m0 0c .475 0 .837.38.837.885 0 .498-.362.878-.837.878s-.831-.38-.831-.878c0-.505.356-.885.831-.885m0 2.47c.926 0 1.633-.689 1.633-1.585 0-.903-.707-1.591-1.633-1.591s-1.633.688-1.633 1.591c0 .896.707 1.585 1.633 1.585" fill="#fff"/></g><g transform="translate(298.18 595.24)"><path d="m0 0h .831l.843-2.25.849 2.25h.778l-1.217-3.058h-.867z" fill="#fff"/></g><g transform="translate(303.1 592.83)"><path d="m0 0c .475 0 .837.38.837.885 0 .498-.362.878-.837.878s-.831-.38-.831-.878c0-.505.356-.885.831-.885m.837-.267c-.243-.273-.582-.439-.991-.439-.837 0-1.479.688-1.479 1.591 0 .896.642 1.585 1.479 1.585.409 0 .748-.167.991-.446v.386h.772v-3.057h-.772z" fill="#fff"/></g><g transform="translate(305.98 592.85)"><path d="m0 0 1.278 1.063c.115.097.211.224.211.4 0 .167-.109.312-.369.312-.215 0-.369-.127-.369-.404l-.773.088c.044.658.479 1.001 1.142 1.001.672 0 1.143-.364 1.143-.975 0-.4-.233-.729-.514-.949l-.668-.536h1.203v-.659h-2.284z" fill="#50c5d5"/></g></g></svg>