<?xml version="1.0" encoding="UTF-8"?>
<svg id="svg124" width="154.07mm" height="37.61mm" version="1.1" viewBox="0 0 154.07 37.61" xmlns="http://www.w3.org/2000/svg" xmlns:cc="http://creativecommons.org/ns#" xmlns:dc="http://purl.org/dc/elements/1.1/" xmlns:rdf="http://www.w3.org/1999/02/22-rdf-syntax-ns#">
 <metadata id="metadata128">
  <rdf:RDF>
   <cc:Work rdf:about="">
    <dc:format>image/svg+xml</dc:format>
    <dc:type rdf:resource="http://purl.org/dc/dcmitype/StillImage"/>
    <dc:title/>
   </cc:Work>
  </rdf:RDF>
 </metadata>
 <defs id="defs48">
  <clipPath id="clipPath87219">
   <path id="path5" d="m295.71 643.19-4e-3 -0.011 1e-3 -7e-3v-2e-3c8e-3 -0.054 0.092-0.21 0.562-0.678 0.33-0.33 0.596-0.602 0.67-0.718 0.172-0.122 0.449-0.28 0.613-0.317l0.032-1e-3c0.026 4e-3 0.037 0.022 0.037 0.049-2e-3 0.089-0.126 0.277-0.221 0.405l-3e-3 3e-3c-0.161 0.11-0.31 0.21-0.532 0.371-0.538 0.392-1.052 0.907-1.146 0.909-4e-3 0-6e-3 -1e-3 -9e-3 -3e-3"/>
  </clipPath>
  <linearGradient id="linearGradient87231" x2="1" gradientTransform="matrix(3.5022,-3.036,-3.036,-3.5022,294.95,643.78)" gradientUnits="userSpaceOnUse">
   <stop id="stop8" stop-color="#67212c" offset="0"/>
   <stop id="stop10" stop-color="#9d2837" offset=".5"/>
   <stop id="stop12" stop-color="#67212c" offset="1"/>
  </linearGradient>
  <clipPath id="clipPath87197">
   <path id="path15" d="m295.74 644.74c0.046-0.045 0.942-0.915 1.696-1.759 0.373-0.418 0.64-0.755 0.81-1.004 0.035-0.023 0.072-0.046 0.109-0.069 0.289-0.176 0.645-0.347 0.778-0.271 0.013 9e-3 0.031 0.032 0.032 0.08 0 0.071-0.037 0.195-0.182 0.412-0.093 0.139-0.217 0.311-0.358 0.494-0.097 0.062-0.216 0.138-0.363 0.234-0.755 0.488-2.522 1.884-2.522 1.884z"/>
  </clipPath>
  <linearGradient id="linearGradient87209" x2="1" gradientTransform="matrix(3.5121,-3.0446,-3.0446,-3.5121,295.71,644.66)" gradientUnits="userSpaceOnUse">
   <stop id="stop18" stop-color="#67212c" offset="0"/>
   <stop id="stop20" stop-color="#9d2837" offset=".5"/>
   <stop id="stop22" stop-color="#67212c" offset="1"/>
  </linearGradient>
  <clipPath id="clipPath87175">
   <path id="path25" d="m298.46 644.16c0.467-0.49 0.806-0.915 1.033-1.234 0.117-0.06 0.496-0.249 0.695-0.249 0.053 0 0.094 0.013 0.114 0.047 4e-3 8e-3 8e-3 0.021 8e-3 0.039 1e-3 0.055-0.027 0.158-0.137 0.344-0.12 0.201-0.32 0.467-0.543 0.74-0.197 0.107-0.464 0.269-0.786 0.5-0.967 0.696-2.123 1.621-2.123 1.621s0.697-0.713 1.739-1.808"/>
  </clipPath>
  <linearGradient id="linearGradient87187" x2="1" gradientTransform="matrix(3.514,-3.0462,-3.0462,-3.514,296.73,645.84)" gradientUnits="userSpaceOnUse">
   <stop id="stop28" stop-color="#67212c" offset="0"/>
   <stop id="stop30" stop-color="#9d2837" offset=".5"/>
   <stop id="stop32" stop-color="#67212c" offset="1"/>
  </linearGradient>
  <clipPath id="clipPath87153">
   <path id="path35" d="m298.55 646.04c0.397-0.405 1.044-1.073 1.324-1.416 0.095-0.114 0.181-0.224 0.259-0.326 0.1-0.045 0.23-0.099 0.305-0.111l0.11 0.034c1e-3 2e-3 2e-3 5e-3 3e-3 8e-3v2e-3c1e-3 0 1e-3 0 1e-3 1e-3 0 4e-3 1e-3 9e-3 1e-3 0.015v4e-3c0 1e-3 0 2e-3 -1e-3 4e-3 -5e-3 0.083-0.093 0.306-0.551 0.841-0.245 0.112-0.649 0.409-0.736 0.476-0.332 0.25-0.981 0.752-1.041 0.798 0.023-0.023 0.15-0.151 0.326-0.33"/>
  </clipPath>
  <linearGradient id="linearGradient87165" x2="1" gradientTransform="matrix(3.514,-3.0462,-3.0462,-3.514,297.6,646.84)" gradientUnits="userSpaceOnUse">
   <stop id="stop38" stop-color="#67212c" offset="0"/>
   <stop id="stop40" stop-color="#9d2837" offset=".5"/>
   <stop id="stop42" stop-color="#67212c" offset="1"/>
  </linearGradient>
 </defs>
 <g id="g60" transform="matrix(7.5682 0 0 -7.5682 -2208.5 4891.9)">
  <g id="g58" clip-path="url(#clipPath87153)">
   <path id="path56" d="m298.55 646.04c0.397-0.405 1.044-1.073 1.324-1.416 0.095-0.114 0.181-0.224 0.259-0.326 0.1-0.045 0.23-0.099 0.305-0.111l0.11 0.034c1e-3 2e-3 2e-3 5e-3 3e-3 8e-3v2e-3c1e-3 0 1e-3 0 1e-3 1e-3 0 4e-3 1e-3 9e-3 1e-3 0.015v4e-3c0 1e-3 0 2e-3 -1e-3 4e-3 -5e-3 0.083-0.093 0.306-0.551 0.841-0.245 0.112-0.649 0.409-0.736 0.476-0.332 0.25-0.981 0.752-1.041 0.798 0.023-0.023 0.15-0.151 0.326-0.33" fill="url(#linearGradient87165)"/>
  </g>
 </g>
 <g id="g66" transform="matrix(7.5682 0 0 -7.5682 -2208.5 4891.9)">
  <g id="g64" clip-path="url(#clipPath87175)">
   <path id="path62" d="m298.46 644.16c0.467-0.49 0.806-0.915 1.033-1.234 0.117-0.06 0.496-0.249 0.695-0.249 0.053 0 0.094 0.013 0.114 0.047 4e-3 8e-3 8e-3 0.021 8e-3 0.039 1e-3 0.055-0.027 0.158-0.137 0.344-0.12 0.201-0.32 0.467-0.543 0.74-0.197 0.107-0.464 0.269-0.786 0.5-0.967 0.696-2.123 1.621-2.123 1.621s0.697-0.713 1.739-1.808" fill="url(#linearGradient87187)"/>
  </g>
 </g>
 <g id="g72" transform="matrix(7.5682 0 0 -7.5682 -2208.5 4891.9)">
  <g id="g70" clip-path="url(#clipPath87197)">
   <path id="path68" d="m295.74 644.74c0.046-0.045 0.942-0.915 1.696-1.759 0.373-0.418 0.64-0.755 0.81-1.004 0.035-0.023 0.072-0.046 0.109-0.069 0.289-0.176 0.645-0.347 0.778-0.271 0.013 9e-3 0.031 0.032 0.032 0.08 0 0.071-0.037 0.195-0.182 0.412-0.093 0.139-0.217 0.311-0.358 0.494-0.097 0.062-0.216 0.138-0.363 0.234-0.755 0.488-2.522 1.884-2.522 1.884z" fill="url(#linearGradient87209)"/>
  </g>
 </g>
 <g id="g78" transform="matrix(7.5682 0 0 -7.5682 -2208.5 4891.9)">
  <g id="g76" clip-path="url(#clipPath87219)">
   <path id="path74" d="m295.71 643.19-4e-3 -0.011 1e-3 -7e-3v-2e-3c8e-3 -0.054 0.092-0.21 0.562-0.678 0.33-0.33 0.596-0.602 0.67-0.718 0.172-0.122 0.449-0.28 0.613-0.317l0.032-1e-3c0.026 4e-3 0.037 0.022 0.037 0.049-2e-3 0.089-0.126 0.277-0.221 0.405l-3e-3 3e-3c-0.161 0.11-0.31 0.21-0.532 0.371-0.538 0.392-1.052 0.907-1.146 0.909-4e-3 0-6e-3 -1e-3 -9e-3 -3e-3" fill="url(#linearGradient87231)"/>
  </g>
 </g>
 <path id="path80" d="m29.743 25.083-0.21191-0.90818c0 0.31786 0.45409 1.4153 4.2533 5.2069 3.1862 3.1711 5.6156 5.6534 5.1918 5.8729-0.41625 0.21948-2.3386-0.88548-4.102-2.4899-2.2932-2.0737-4.0944-4.7301-5.1312-7.6817" fill="#d4293d" stroke-width="7.5682"/>
 <path id="path84" d="m49.647 37.495c-2.0434 0.22705-4.1398 0.11352-6.1454-0.31786 1.3017 0.20434-0.13623-2.0737-1.1579-3.4435-1.4834-1.998-3.7311-4.6015-5.7897-6.8265-3.4208-3.7008-7.8785-8.0223-7.8785-8.0223-0.01514-2.278 0.37841-4.4728 1.1125-6.5011 0 0 6.993 6.7584 12.843 13.32 3.7841 4.2382 6.1227 7.3714 7.1974 9.2786 0.60546 1.0671 0.9763 2.3386-0.18164 2.5126" fill="#d4293d" stroke-width="7.5682"/>
 <path id="path88" d="m60.621 8.1305c-3.4208-3.7992-6.8795-7.1292-6.8795-7.1292 6.4708 2.2478 11.33 7.8407 12.427 14.75l-0.03784 0.56005c0.15893-0.34057 0.0076-2.051-5.5096-8.1812" fill="#d4293d" stroke-width="7.5682"/>
 <path id="path92" d="m66.222 21.526c-0.28759 2.2023-1.0898 4.4652-2.0207 6.1529 0.13623-0.25732 0.13623-1.0217-0.9763-2.8986-2.1342-3.6025-7.6893-9.937-10.876-13.328-4.5485-4.8209-10.414-10.618-10.414-10.618s1.5212-0.4768 3.0576-0.666c2.4067-0.30273 3.5192-0.10595 3.5192-0.10595s9.3467 9.3694 12.518 13.244c3.1711 3.8749 5.3583 6.9552 5.1918 8.2191" fill="#d4293d" stroke-width="7.5682"/>
 <path id="path96" d="m60.545 32.424c-1.4985 1.4153-3.33 2.6489-5.1085 3.4587 0.24975-0.1892 0.71898-0.96116-1.1352-3.7387-1.9148-2.8683-5.5551-7.5077-8.8926-11.057-3.9657-4.2155-13.108-13.449-13.108-13.449s0.91575-1.2942 2.3083-2.5883c1.3244-1.2336 2.4899-1.9677 2.4899-1.9677s5.2826 5.4037 13.169 13.691c5.1161 5.3734 8.2039 9.71 9.6419 12.071 0.77196 1.2715 1.4228 2.8305 0.63573 3.5798" fill="#d4293d" stroke-width="7.5682"/>
 <path id="path100" d="m-1.58e-4 5.5574h6.66v3.4814c1.8466-2.4597 4.768-3.996 8.3023-3.996 6.3573 0 10.709 4.6166 10.709 10.921v15.984h-6.66v-14.811c0-3.5343-2.5581-6.047-6.1454-6.047-3.5873 0-6.2059 2.5126-6.2059 6.047v14.811h-6.66z" fill="#d4293d" stroke-width="7.5682"/>
 <path id="path104" d="m65.919 5.5574h7.1747l7.273 19.42 7.3336-19.42h6.713l-10.505 26.39h-7.4849z" fill="#d4293d" stroke-width="7.5682"/>
 <path id="path108" d="m108.45 26.37c4.102 0 7.2276-3.277 7.2276-7.6363 0-4.3063-3.1257-7.5833-7.2276-7.5833s-7.1746 3.277-7.1746 7.5833c0 4.3593 3.0727 7.6363 7.1746 7.6363m7.2276 2.3083c-2.104 2.3537-5.0253 3.7917-8.5596 3.7917-7.2276 0-12.76-5.9486-12.76-13.736 0-7.7347 5.5324-13.683 12.76-13.683 3.5344 0 6.4557 1.438 8.5596 3.8446v-3.33h6.66v26.39h-6.66z" fill="#d4293d" stroke-width="7.5682"/>
 <path id="path116" d="m129.36 5.88h2.9137v4.7176h5.1536v-4.7176h2.9137v12.016h-2.9137v-4.7273h-5.1536v4.7273h-2.9137z" fill="#d4293d" stroke-width=".96673"/>
 <path id="path118" d="m147.65 15.32c2.0456 0 3.3971-1.4404 3.3971-3.4319 0-2.0108-1.3515-3.4319-3.3971-3.4319h-1.8174v6.8638zm-4.7399-9.4353h4.9941c3.573 0 6.1629 2.6102 6.1629 6.0034s-2.5899 6.0034-6.1629 6.0034h-4.9941z" fill="#d4293d" stroke-width=".96673"/>
</svg>
