<?xml version="1.0" encoding="UTF-8" standalone="no"?>
<svg
   xmlns:dc="http://purl.org/dc/elements/1.1/"
   xmlns:cc="http://creativecommons.org/ns#"
   xmlns:rdf="http://www.w3.org/1999/02/22-rdf-syntax-ns#"
   xmlns:svg="http://www.w3.org/2000/svg"
   xmlns="http://www.w3.org/2000/svg"
   xmlns:sodipodi="http://sodipodi.sourceforge.net/DTD/sodipodi-0.dtd"
   xmlns:inkscape="http://www.inkscape.org/namespaces/inkscape"
   width="154.07112mm"
   height="37.609673mm"
   version="1.1"
   viewBox="0 0 154.07039 37.60956"
   id="svg124"
   sodipodi:docname="Nova HD - Dark.svg"
   inkscape:version="0.92.0 r15299">
  <metadata
     id="metadata128">
    <rdf:RDF>
      <cc:Work
         rdf:about="">
        <dc:format>image/svg+xml</dc:format>
        <dc:type
           rdf:resource="http://purl.org/dc/dcmitype/StillImage" />
        <dc:title></dc:title>
      </cc:Work>
    </rdf:RDF>
  </metadata>
  <sodipodi:namedview
     pagecolor="#ffffff"
     bordercolor="#666666"
     borderopacity="1"
     objecttolerance="10"
     gridtolerance="10"
     guidetolerance="10"
     inkscape:pageopacity="0"
     inkscape:pageshadow="2"
     inkscape:window-width="1920"
     inkscape:window-height="1017"
     id="namedview126"
     showgrid="false"
     fit-margin-top="0"
     fit-margin-left="0"
     fit-margin-right="0"
     fit-margin-bottom="0"
     inkscape:zoom="1.7476839"
     inkscape:cx="260.54259"
     inkscape:cy="77.012177"
     inkscape:window-x="-8"
     inkscape:window-y="-8"
     inkscape:window-maximized="1"
     inkscape:current-layer="svg124" />
  <defs
     id="defs48">
    <clipPath
       id="clipPath87241">
      <path
         d="m 289.4,639.18 h 20.976 v 9.429 H 289.4 Z"
         id="path2"
         inkscape:connector-curvature="0" />
    </clipPath>
    <clipPath
       id="clipPath87219">
      <path
         d="m 295.71,643.19 -0.004,-0.011 10e-4,-0.007 v -0.002 c 0.008,-0.054 0.092,-0.21 0.562,-0.678 0.33,-0.33 0.596,-0.602 0.67,-0.718 0.172,-0.122 0.449,-0.28 0.613,-0.317 l 0.032,-10e-4 c 0.026,0.004 0.037,0.022 0.037,0.049 -0.002,0.089 -0.126,0.277 -0.221,0.405 l -0.003,0.003 c -0.161,0.11 -0.31,0.21 -0.532,0.371 -0.538,0.392 -1.052,0.907 -1.146,0.909 -0.004,0 -0.006,-10e-4 -0.009,-0.003"
         id="path5"
         inkscape:connector-curvature="0" />
    </clipPath>
    <linearGradient
       id="linearGradient87231"
       x2="1"
       gradientTransform="matrix(3.5022,-3.036,-3.036,-3.5022,294.95,643.78)"
       gradientUnits="userSpaceOnUse">
      <stop
         stop-color="#67212c"
         offset="0"
         id="stop8" />
      <stop
         stop-color="#9d2837"
         offset=".5"
         id="stop10" />
      <stop
         stop-color="#67212c"
         offset="1"
         id="stop12" />
    </linearGradient>
    <clipPath
       id="clipPath87197">
      <path
         d="m 295.74,644.74 c 0.046,-0.045 0.942,-0.915 1.696,-1.759 0.373,-0.418 0.64,-0.755 0.81,-1.004 0.035,-0.023 0.072,-0.046 0.109,-0.069 0.289,-0.176 0.645,-0.347 0.778,-0.271 0.013,0.009 0.031,0.032 0.032,0.08 0,0.071 -0.037,0.195 -0.182,0.412 -0.093,0.139 -0.217,0.311 -0.358,0.494 -0.097,0.062 -0.216,0.138 -0.363,0.234 -0.755,0.488 -2.522,1.884 -2.522,1.884 z"
         id="path15"
         inkscape:connector-curvature="0" />
    </clipPath>
    <linearGradient
       id="linearGradient87209"
       x2="1"
       gradientTransform="matrix(3.5121,-3.0446,-3.0446,-3.5121,295.71,644.66)"
       gradientUnits="userSpaceOnUse">
      <stop
         stop-color="#67212c"
         offset="0"
         id="stop18" />
      <stop
         stop-color="#9d2837"
         offset=".5"
         id="stop20" />
      <stop
         stop-color="#67212c"
         offset="1"
         id="stop22" />
    </linearGradient>
    <clipPath
       id="clipPath87175">
      <path
         d="m 298.46,644.16 c 0.467,-0.49 0.806,-0.915 1.033,-1.234 0.117,-0.06 0.496,-0.249 0.695,-0.249 0.053,0 0.094,0.013 0.114,0.047 0.004,0.008 0.008,0.021 0.008,0.039 10e-4,0.055 -0.027,0.158 -0.137,0.344 -0.12,0.201 -0.32,0.467 -0.543,0.74 -0.197,0.107 -0.464,0.269 -0.786,0.5 -0.967,0.696 -2.123,1.621 -2.123,1.621 0,0 0.697,-0.713 1.739,-1.808"
         id="path25"
         inkscape:connector-curvature="0" />
    </clipPath>
    <linearGradient
       id="linearGradient87187"
       x2="1"
       gradientTransform="matrix(3.514,-3.0462,-3.0462,-3.514,296.73,645.84)"
       gradientUnits="userSpaceOnUse">
      <stop
         stop-color="#67212c"
         offset="0"
         id="stop28" />
      <stop
         stop-color="#9d2837"
         offset=".5"
         id="stop30" />
      <stop
         stop-color="#67212c"
         offset="1"
         id="stop32" />
    </linearGradient>
    <clipPath
       id="clipPath87153">
      <path
         d="m 298.55,646.04 c 0.397,-0.405 1.044,-1.073 1.324,-1.416 0.095,-0.114 0.181,-0.224 0.259,-0.326 0.1,-0.045 0.23,-0.099 0.305,-0.111 l 0.11,0.034 c 10e-4,0.002 0.002,0.005 0.003,0.008 v 0.002 c 0.001,0 0.001,0 0.001,10e-4 0,0.004 10e-4,0.009 10e-4,0.015 v 0.004 c 0,10e-4 0,0.002 -10e-4,0.004 -0.005,0.083 -0.093,0.306 -0.551,0.841 -0.245,0.112 -0.649,0.409 -0.736,0.476 -0.332,0.25 -0.981,0.752 -1.041,0.798 0.023,-0.023 0.15,-0.151 0.326,-0.33"
         id="path35"
         inkscape:connector-curvature="0" />
    </clipPath>
    <linearGradient
       id="linearGradient87165"
       x2="1"
       gradientTransform="matrix(3.514,-3.0462,-3.0462,-3.514,297.6,646.84)"
       gradientUnits="userSpaceOnUse">
      <stop
         stop-color="#67212c"
         offset="0"
         id="stop38" />
      <stop
         stop-color="#9d2837"
         offset=".5"
         id="stop40" />
      <stop
         stop-color="#67212c"
         offset="1"
         id="stop42" />
    </linearGradient>
    <clipPath
       id="clipPath87143">
      <path
         d="m 289.4,639.18 h 20.976 v 9.429 H 289.4 Z"
         id="path45"
         inkscape:connector-curvature="0" />
    </clipPath>
  </defs>
  <g
     transform="matrix(7.5682,0,0,-7.5682,-2208.4766,4891.89)"
     id="g60">
    <g
       clip-path="url(#clipPath87153)"
       id="g58">
      <path
         d="m 298.55,646.04 c 0.397,-0.405 1.044,-1.073 1.324,-1.416 0.095,-0.114 0.181,-0.224 0.259,-0.326 0.1,-0.045 0.23,-0.099 0.305,-0.111 l 0.11,0.034 c 10e-4,0.002 0.002,0.005 0.003,0.008 v 0.002 c 0.001,0 0.001,0 0.001,10e-4 0,0.004 10e-4,0.009 10e-4,0.015 v 0.004 c 0,10e-4 0,0.002 -10e-4,0.004 -0.005,0.083 -0.093,0.306 -0.551,0.841 -0.245,0.112 -0.649,0.409 -0.736,0.476 -0.332,0.25 -0.981,0.752 -1.041,0.798 0.023,-0.023 0.15,-0.151 0.326,-0.33"
         id="path56"
         style="fill:url(#linearGradient87165)"
         inkscape:connector-curvature="0" />
    </g>
  </g>
  <g
     transform="matrix(7.5682,0,0,-7.5682,-2208.4766,4891.89)"
     id="g66">
    <g
       clip-path="url(#clipPath87175)"
       id="g64">
      <path
         d="m 298.46,644.16 c 0.467,-0.49 0.806,-0.915 1.033,-1.234 0.117,-0.06 0.496,-0.249 0.695,-0.249 0.053,0 0.094,0.013 0.114,0.047 0.004,0.008 0.008,0.021 0.008,0.039 10e-4,0.055 -0.027,0.158 -0.137,0.344 -0.12,0.201 -0.32,0.467 -0.543,0.74 -0.197,0.107 -0.464,0.269 -0.786,0.5 -0.967,0.696 -2.123,1.621 -2.123,1.621 0,0 0.697,-0.713 1.739,-1.808"
         id="path62"
         style="fill:url(#linearGradient87187)"
         inkscape:connector-curvature="0" />
    </g>
  </g>
  <g
     transform="matrix(7.5682,0,0,-7.5682,-2208.4766,4891.89)"
     id="g72">
    <g
       clip-path="url(#clipPath87197)"
       id="g70">
      <path
         d="m 295.74,644.74 c 0.046,-0.045 0.942,-0.915 1.696,-1.759 0.373,-0.418 0.64,-0.755 0.81,-1.004 0.035,-0.023 0.072,-0.046 0.109,-0.069 0.289,-0.176 0.645,-0.347 0.778,-0.271 0.013,0.009 0.031,0.032 0.032,0.08 0,0.071 -0.037,0.195 -0.182,0.412 -0.093,0.139 -0.217,0.311 -0.358,0.494 -0.097,0.062 -0.216,0.138 -0.363,0.234 -0.755,0.488 -2.522,1.884 -2.522,1.884 z"
         id="path68"
         style="fill:url(#linearGradient87209)"
         inkscape:connector-curvature="0" />
    </g>
  </g>
  <g
     transform="matrix(7.5682,0,0,-7.5682,-2208.4766,4891.89)"
     id="g78">
    <g
       clip-path="url(#clipPath87219)"
       id="g76">
      <path
         d="m 295.71,643.19 -0.004,-0.011 10e-4,-0.007 v -0.002 c 0.008,-0.054 0.092,-0.21 0.562,-0.678 0.33,-0.33 0.596,-0.602 0.67,-0.718 0.172,-0.122 0.449,-0.28 0.613,-0.317 l 0.032,-10e-4 c 0.026,0.004 0.037,0.022 0.037,0.049 -0.002,0.089 -0.126,0.277 -0.221,0.405 l -0.003,0.003 c -0.161,0.11 -0.31,0.21 -0.532,0.371 -0.538,0.392 -1.052,0.907 -1.146,0.909 -0.004,0 -0.006,-10e-4 -0.009,-0.003"
         id="path74"
         style="fill:url(#linearGradient87231)"
         inkscape:connector-curvature="0" />
    </g>
  </g>
  <path
     style="fill:#d4293d;stroke-width:7.56820011;fill-opacity:1"
     inkscape:connector-curvature="0"
     id="path80"
     d="m 29.742868,25.083308 -0.21191,-0.908184 c 0,0.317864 0.454092,1.415253 4.253329,5.206922 3.186212,3.171075 5.615604,5.653445 5.191785,5.872923 -0.416251,0.219478 -2.338574,-0.88548 -4.101964,-2.489938 -2.293165,-2.073687 -4.094397,-4.730125 -5.13124,-7.681723" />
  <path
     style="fill:#d4293d;stroke-width:7.56820011;fill-opacity:1"
     inkscape:connector-curvature="0"
     id="path84"
     d="m 49.647234,37.495156 c -2.043414,0.227046 -4.139805,0.113523 -6.145378,-0.317864 1.30173,0.204341 -0.136228,-2.073687 -1.157935,-3.443531 -1.483367,-1.998005 -3.731123,-4.601466 -5.789673,-6.826517 -3.420826,-3.70085 -7.878496,-8.022292 -7.878496,-8.022292 -0.01514,-2.278028 0.37841,-4.472806 1.112525,-6.501084 0,0 6.993017,6.758403 12.843236,13.320032 3.7841,4.238192 6.122673,7.371427 7.197358,9.278614 0.605456,1.067116 0.976298,2.338573 -0.181637,2.512642" />
  <path
     style="fill:#d4293d;stroke-width:7.56820011;fill-opacity:1"
     inkscape:connector-curvature="0"
     id="path88"
     d="M 60.621124,8.13054 C 57.200298,4.3313036 53.74163,1.0012956 53.74163,1.0012956 60.212441,3.249051 65.071226,8.8419508 66.168615,15.751717 l -0.03784,0.560047 c 0.158932,-0.340569 0.0076,-2.050982 -5.50965,-8.181224" />
  <path
     style="fill:#d4293d;stroke-width:7.56820011;fill-opacity:1"
     inkscape:connector-curvature="0"
     id="path92"
     d="M 66.221592,21.526254 C 65.934,23.7286 65.131771,25.991492 64.200883,27.679201 64.33711,27.421882 64.33711,26.657494 63.224585,24.78058 61.090352,21.178117 55.535294,14.843533 52.349081,11.45298 47.800593,6.6320364 41.935238,0.8347952 41.935238,0.8347952 c 0,0 1.521208,-0.4767966 3.057553,-0.6660016 2.406688,-0.302728 3.519213,-0.1059548 3.519213,-0.1059548 0,0 9.346727,9.3694316 12.517803,13.2443502 3.171076,3.874918 5.358285,6.955176 5.191785,8.219065" />
  <path
     style="fill:#d4293d;stroke-width:7.56820011;fill-opacity:1"
     inkscape:connector-curvature="0"
     id="path96"
     d="m 60.545442,32.424462 c -1.498504,1.415253 -3.330008,2.64887 -5.108535,3.458667 0.249751,-0.189205 0.718979,-0.961161 -1.13523,-3.73869 C 52.386922,29.276091 48.746618,24.636784 45.409042,21.087298 41.443305,16.871811 32.30092,7.638607 32.30092,7.638607 c 0,0 0.915752,-1.2941622 2.308301,-2.5883244 1.324435,-1.2336166 2.489937,-1.967732 2.489937,-1.967732 0,0 5.282604,5.4036948 13.168668,13.6908734 5.116104,5.373422 8.203929,9.710001 9.641887,12.071279 0.771957,1.271458 1.422822,2.830507 0.635729,3.579759" />
  <path
     style="fill:#d4293d;stroke-width:7.56820011;fill-opacity:1"
     inkscape:connector-curvature="0"
     id="path100"
     d="m -1.58e-4,5.557352 h 6.660016 v 3.481372 c 1.8466408,-2.459665 4.767966,-3.9960096 8.302315,-3.9960096 6.357288,0 10.709003,4.616602 10.709003,10.9209126 V 31.947665 H 19.01116 V 17.136698 c 0,-3.534349 -2.558051,-6.046992 -6.145378,-6.046992 -3.5873268,0 -6.205924,2.512643 -6.205924,6.046992 V 31.947665 H -1.58e-4 Z" />
  <path
     style="fill:#d4293d;stroke-width:7.56820011;fill-opacity:1"
     inkscape:connector-curvature="0"
     id="path104"
     d="m 65.918864,5.557352 h 7.174654 l 7.27304,19.420001 7.333586,-19.420001 h 6.712993 L 83.908475,31.947665 h -7.484949 z" />
  <path
     style="fill:#d4293d;stroke-width:7.56820011;fill-opacity:1"
     inkscape:connector-curvature="0"
     id="path108"
     d="m 108.45215,26.369902 c 4.10196,0 7.22763,-3.277031 7.22763,-7.636314 0,-4.306306 -3.12567,-7.583336 -7.22763,-7.583336 -4.10196,0 -7.17465,3.27703 -7.17465,7.583336 0,4.359283 3.07269,7.636314 7.17465,7.636314 m 7.22763,2.308301 c -2.10396,2.35371 -5.02528,3.791668 -8.55963,3.791668 -7.227634,0 -12.759988,-5.948605 -12.759988,-13.736283 0,-7.7347 5.532354,-13.6833054 12.759988,-13.6833054 3.53435,0 6.45567,1.437958 8.55963,3.8446456 v -3.330008 h 6.66002 V 31.955234 h -6.66002 z" />
  <path
     d="m 129.36341,5.88002 h 2.9137 v 4.7176 h 5.1536 v -4.7176 h 2.9137 v 12.016 h -2.9137 v -4.7273 h -5.1536 v 4.7273 h -2.9137 z"
     id="path116"
     inkscape:connector-curvature="0"
     style="fill:#d4293d;stroke-width:0.96673;fill-opacity:1" />
  <path
     d="m 147.65341,15.32002 c 2.0456,0 3.3971,-1.4404 3.3971,-3.4319 0,-2.0108 -1.3515,-3.4319 -3.3971,-3.4319 h -1.8174 v 6.8638 z m -4.7399,-9.4353 h 4.9941 c 3.573,0 6.1629,2.6102 6.1629,6.0034 0,3.3932 -2.5899,6.0034 -6.1629,6.0034 h -4.9941 z"
     id="path118"
     inkscape:connector-curvature="0"
     style="fill:#d4293d;stroke-width:0.96673;fill-opacity:1" />
</svg>
