<svg height="92.437988mm" viewBox="0 0 191.98748 92.437652" width="191.98749mm" xmlns="http://www.w3.org/2000/svg"><path d="m0 92.437826h191.98749v-92.43799457h-191.98749z" fill="#8b621f" stroke-width="8.322838"/><g fill="#fff"><path d="m0 0h .548v-.287c.151.203.392.329.683.329.522 0 .88-.379.88-.898v-1.314h-.548v1.218c0 .29-.21.497-.505.497s-.51-.207-.51-.497v-1.218h-.548z" transform="matrix(7.5682 0 0 -7.5682 19.071864 18.874922)"/><path d="m0 0c .337 0 .594.27.594.628 0 .354-.257.624-.594.624s-.59-.27-.59-.624c0-.358.253-.628.59-.628m0 1.753c.657 0 1.159-.489 1.159-1.125 0-.641-.502-1.13-1.159-1.13s-1.159.489-1.159 1.13c0 .636.502 1.125 1.159 1.125" transform="matrix(7.5682 0 0 -7.5682 46.16602 31.816544)"/><path d="m0 0h .59l.599-1.597.602 1.597h.552l-.864-2.17h-.615z" transform="matrix(7.5682 0 0 -7.5682 54.793768 18.874922)"/><path d="m0 0c .337 0 .594.27.594.628 0 .354-.257.624-.594.624s-.59-.27-.59-.624c0-.358.253-.628.59-.628m.594-.19c-.172-.194-.413-.312-.704-.312-.594 0-1.049.489-1.049 1.13 0 .636.455 1.125 1.049 1.125.291 0 .532-.118.704-.316v.274h.548v-2.17h-.548z" transform="matrix(7.5682 0 0 -7.5682 81.206786 31.816544)"/><path d="m0 0c .969 0 1.651-.584 1.925-1.184l-.921-.35c-.17.344-.531.624-1.004.624-.642 0-1.132-.52-1.132-1.191 0-.67.49-1.19 1.132-1.19.531 0 .881.304.992.607h-1.336v.875h2.45c.158-1.476-.933-2.392-2.106-2.392-1.22 0-2.159.916-2.159 2.1 0 1.185.939 2.101 2.159 2.101" transform="matrix(7.5682 0 0 -7.5682 32.694624 42.033614)"/><path d="m0 0c .642 0 1.132.519 1.132 1.19s-.49 1.19-1.132 1.19-1.132-.519-1.132-1.19.49-1.19 1.132-1.19m0 3.291c1.22 0 2.159-.916 2.159-2.101 0-1.184-.939-2.1-2.159-2.1s-2.159.916-2.159 2.1c0 1.185.939 2.101 2.159 2.101" transform="matrix(7.5682 0 0 -7.5682 68.416528 66.932992)"/><path d="m0 0h .992v-3.209h1.809v-.875h-2.801z" transform="matrix(7.5682 0 0 -7.5682 89.229078 42.412024)"/><path d="m0 0c .694 0 1.155.49 1.155 1.167 0 .683-.461 1.167-1.155 1.167h-.618v-2.334zm-1.61 3.209h1.697c1.214 0 2.095-.887 2.095-2.042 0-1.155-.881-2.042-2.095-2.042h-1.697z" transform="matrix(7.5682 0 0 -7.5682 125.85917 66.705946)"/><g transform="translate(24.868659 .012842)"><path d="m125.72608 42.473886h3.91057v6.331508h6.91668v-6.331508h3.91057v16.12739h-3.91057v-6.344489h-6.91668v6.344489h-3.91057z" fill="#fff" stroke-width="1.297455"/><path d="m150.2843 55.137558c2.74546 0 4.5592-1.933189 4.5592-4.606009 0-2.698649-1.81388-4.606008-4.5592-4.606008h-2.43917v9.211886zm-6.36141-12.663148h6.7027c4.79535 0 8.27126 3.503053 8.27126 8.057139 0 4.554087-3.47591 8.05714-8.27126 8.05714h-6.7027z" fill="#fff" stroke-width="1.297455"/></g></g></svg>