<svg enable-background="new 0 0 511.735 80" height="252" viewBox="0 0 1478.6731 252" width="1478.6731" xmlns="http://www.w3.org/2000/svg"><path clip-rule="evenodd" d="m655.39845.0252-52.5546 251.84565h823.28105l52.5482-251.84565z" fill="#23be96" fill-rule="evenodd" stroke-width="3.15"/><path clip-rule="evenodd" d="m52.51365 0-52.51365 252 602.84385-.12915 52.57665-251.87085z" fill="#fff" fill-rule="evenodd" stroke-width="3.15"/><g transform="scale(3.15)"><path d="m149.651 61.141h9.487l12.962-38.503h-7.668l-9.762 30.229h-.111l-9.873-30.229h-8.273zm-34.194 0h7.722v-32.436h11.032v-6.067h-29.787v6.067h11.033z"/><path d="m58.708 54.386c-9.884 0-14.242-8.904-14.242-17.004 0-8.639 5.251-17.003 14.242-17.003 8.903 0 14.155 8.364 14.155 17.003.001 8.099-4.359 17.004-14.155 17.004m0-40.776c-13.885 0-23.147 9.972-23.147 23.772 0 12.992 9.44 23.771 23.147 23.771 13.62 0 23.06-10.778 23.06-23.771.001-13.8-9.261-23.772-23.06-23.772m27.301 54.557c3.283-3.23 7.577-7.142 7.577-11.41 0-3.942-2.475-5.872-6.307-5.872-2.045 0-4.151.518-5.964 1.438l.319 3.343c1.326-.861 2.938-1.613 4.635-1.613 1.644 0 3.283.861 3.283 2.705 0 3.684-6.824 9.39-8.695 11.209v3.367h13.365v-3.166h-8.213z"/></g><g fill="#fff" transform="matrix(1.0404067 0 0 1.0404067 739.33437 18.09878)"><path d="m444.87 29.559752h99.83l-5.12 26.03025h-62.7l-5.85 29.750246h58.45l-5.27 27.129752h-59.38l-6.63 32.08 64.42.1-6.32 26.77h-100.99z"/><path d="m185.57 29.59c23.83.28 47.72-.91 71.49 1.12 10.71 1.68 21.89 6.13 28.18 15.42 2.12618 2.929155 3.22593 6.299579 3.92668 9.785804 1.10677 5.197305 1.44089 10.310086.74201 15.192315-.95864 6.542238-3.50462 12.896862-8.35869 17.471881-7.95 8.73-20.12 11.66-31.38 13.17 9.11 3.98 12.92 13.81 14.91 22.85 3.46 15.61 7.64 31.19025 10.49 46.93025h-37.12c-2.28-9.06-3.81-18.34025-5.76-27.50025-1.68-7.21-2.47-14.67-5.14-21.62-.87-2.38-2.78-4.11-4.59-5.77-5.92-1.74-12.13-1.23-18.21-1.17l-11.38 56.06025h-37.7zm31.18 26.81-6.34 32.06 12.43365.06048c7.69996.03745 15.36228-.6655 22.19635-4.510477 9.12-4.4 10.24-19.24 1.86-24.86-4.98736-2.382262-10.3466-2.958606-15.77664-2.901407z"/><path d="m320.87 29.58975h99.83l-5.12 26.03025h-62.7l-5.85 29.75025h58.45l-5.27 27.12975h-59.38l-6.63 32.08 64.42.1-6.32 26.77h-100.99z"/><path d="m70.75 29.52 94.1.07-5.08 26.96-57.17-.02-7.25 30.83975 55.35.00025-5.33 27-54.53.05-12.41 57.02-37.17.03z"/></g></svg>