<svg width="211.67mm" height="36.841mm" version="1.1" viewBox="0 0 211.67 36.841" xmlns="http://www.w3.org/2000/svg">
 <defs>
  <clipPath id="a">
   <path d="m904.24 485.06h26.068v7.457h-26.068z"/>
  </clipPath>
 </defs>
 <g transform="translate(122.84 -130.41)">
  <path d="m-107.9 130.41-3.0683 5.6128h6.5108l3.3209-5.6128z" fill="#f89c0e" stroke-width="9.3546"/>
  <g transform="matrix(9.3546 0 0 -9.3546 -8597.5 4726)" clip-path="url(#a)">
   <g transform="translate(907.59 488.03)">
    <path d="m0 0c-0.523 0-0.855 0.405-0.855 0.923 0 0.514 0.296 0.923 0.85 0.923 0.542 0 0.86-0.409 0.86-0.923s-0.3-0.923-0.855-0.923m-0.018 2.556c-0.969 0-1.633-0.723-1.633-1.637 0-0.924 0.628-1.628 1.656-1.628 1.009 0 1.646 0.723 1.646 1.641 0 0.919-0.641 1.624-1.669 1.624" fill="#f89c0e"/>
   </g>
   <g transform="translate(911.41 490.66)">
    <path d="m0 0 0.45 0.6h-0.655l-0.177-0.2-0.177 0.2h-0.655l0.45-0.6z" fill="#f89c0e"/>
   </g>
   <g transform="translate(911.09 489.88)">
    <path d="m0 0c0.282 0 0.491-0.132 0.605-0.236l0.45 0.573c-0.25 0.218-0.587 0.372-1.064 0.372-1.005 0-1.66-0.727-1.66-1.637 0-0.918 0.627-1.628 1.674-1.628 0.441 0 0.777 0.155 1.045 0.41l-0.445 0.536c-0.137-0.118-0.337-0.236-0.6-0.236-0.528 0-0.878 0.404-0.878 0.923 0 0.514 0.314 0.923 0.873 0.923" fill="#f89c0e"/>
   </g>
   <g transform="translate(914.88 490.53)">
    <path d="m0 0h-0.878l-0.859-1.232v1.232h-0.76v-3.147h0.76v1.287l0.846-1.287h0.886l-1.1 1.642z" fill="#f89c0e"/>
   </g>
   <g transform="translate(916.47 488.03)">
    <path d="m0 0c-0.523 0-0.855 0.405-0.855 0.923 0 0.514 0.296 0.923 0.85 0.923 0.542 0 0.86-0.409 0.86-0.923s-0.3-0.923-0.855-0.923m-0.018 2.556c-0.969 0-1.633-0.723-1.633-1.637 0-0.924 0.628-1.628 1.656-1.628 1.009 0 1.646 0.723 1.646 1.641 0 0.919-0.641 1.624-1.669 1.624" fill="#f89c0e"/>
   </g>
   <g transform="translate(920.46 489.24)">
    <path d="m0 0-0.396 0.155c-0.213 0.082-0.286 0.172-0.286 0.304s0.086 0.237 0.259 0.237c0.177 0 0.278-0.137 0.273-0.332h0.7c0.032 0.559-0.236 0.982-0.978 0.982-0.613 0-1.014-0.382-1.014-0.932 0-0.382 0.169-0.691 0.487-0.855 0.173-0.086 0.332-0.146 0.491-0.209 0.205-0.078 0.332-0.164 0.332-0.341 0-0.182-0.127-0.278-0.3-0.278-0.25 0-0.328 0.196-0.318 0.396h-0.719c-0.027-0.459 0.136-1.046 1.037-1.046 0.632 0 1.082 0.373 1.082 1.009 0 0.469-0.241 0.742-0.65 0.91" fill="#f89c0e"/>
   </g>
   <g transform="translate(923.08 490.53)">
    <path d="m0 0h-1.81v-0.709h0.528v-2.438h0.759v2.438h0.523z" fill="#f89c0e"/>
   </g>
   <g transform="translate(924.16 488.77)">
    <path d="m0 0 0.277 0.796 0.278-0.796zm-0.123 1.76-1.1-3.147h0.746l0.259 0.75h0.991l0.264-0.75h0.805l-1.164 3.147z" fill="#f89c0e"/>
   </g>
   <g transform="translate(927.19 489.29)">
    <path d="m0 0h-0.264v0.582h0.264c0.168 0 0.273-0.114 0.273-0.286 0-0.178-0.1-0.296-0.273-0.296m0.655-0.473c0.255 0.155 0.4 0.423 0.4 0.773 0 0.596-0.332 0.937-0.991 0.937h-1.083v-3.147h0.755v1.292h0.205l0.618-1.292h0.814z" fill="#f89c0e"/>
   </g>
  </g>
 </g>
</svg>
