<svg id="a" width="683.33pt" height="108.36pt" version="1.1" viewBox="0 0 683.33 108.36" xmlns="http://www.w3.org/2000/svg">
 <g id="b" transform="translate(-58.081)" fill="#e4e4e4">
  <g id="c" transform="matrix(1.001 0 0 1.001 -.41654 -.052882)" fill="#e4e4e4">
   <path id="d" d="m423.23 20.342h30.45l14.8 25.033-14.303 14.901 13.059 21.307-23.769 25.112h-35.187l2-13.34h15.45l-11.52-19.89 2.58-16.805h12.76l-9.46-16.475 3.14-19.843m11.32 13.278 9.9311 17.043 4.9489-6.0583-6.86-10.985m-12.14 36.025 10.927 19.103 6.9735-7.2425-6.85-11.86z"/>
   <path id="e" d="m484.65 20.457h15.03l-7.28 43.073 17.47 30.12-2.15 13.045h-38.26l2.32-13.145h19.99l-15.25-26.07z"/>
   <path id="f" d="m512.21 106.69 54.56-86.463 25.14 86.463h-79.7m43.293-43.745 9.1669 30.43h8.2l-11.26-39.105m-24.94 39.105h14.19l-4.4911-15.185z"/>
   <path id="g" d="m628.68 20.422h30.031l10.62 12.694-11.16 9.5286-7.42-8.485h-6.06l-8.81 59.01h5.46l10.48-8.665 7.84 9.59-14.98 12.6h-29.81l-21.055-25.283 5.5215-35.713zm-16.653 30.679-3.6962 24.574 13.86 16.1 8.35-56.18z"/>
   <path id="h" d="m679.73 20.413h15.04l-4.46 25.423 30.157-25.423h20.623l-30.81 27.003 22.042 26.545-3.2724 18.675-30.13-35.78-7.15 6.72 34.82 43.12h-18.462l-23.378-28.26-5.16 28.26h-14.79z"/>
  </g>
 </g>
 <g id="i" transform="translate(-58.081)" fill="#e4e4e4" stroke-width="4.7581">
  <g id="j" transform="translate(-227.8,-132.97)">
   <path id="k" d="m436.18 149.5 12.409-16.511h-18.043l-4.8723 5.5194-4.9104-5.5194h-18.005l12.371 16.511z"/>
   <path id="l" d="m444.06 215.3c-3.7304 3.2831-9.2498 6.5186-16.52 6.5186-14.503 0-24.171-11.134-24.171-25.408 0-14.132 8.6408-25.408 24.057-25.408 7.7653 0 13.513 3.6162 16.634 6.5186l12.409-15.749c-6.8898-5.9952-16.14-10.278-29.31-10.278-27.673 0-45.678 20.032-45.678 45.06 0 25.266 17.282 44.774 46.059 44.774 12.143 0 21.393-4.2347 28.815-11.229z"/>
  </g>
  <path id="m" d="m255.22 20.2h-20.898v86.551h20.898v-35.401l23.296 35.401h24.4l-30.3-45.202 30.414-41.348h-24.171l-23.638 33.878z"/>
  <path id="n" d="m102.01 0-8.9838 16.511h19.147l9.7475-16.511zm1.0273 18.509c-26.685 0-44.956 19.889-44.956 45.06 0 25.408 17.282 44.774 45.566 44.774 27.827 0 45.337-19.841 45.337-45.155 0-25.266-17.662-44.679-45.947-44.679zm0.38018 19.508c14.882 0 23.642 11.277 23.642 25.408s-8.2601 25.408-23.527 25.408c-14.39 0-23.525-11.134-23.525-25.408 0-14.132 8.1454-25.408 23.41-25.408z"/>
  <path id="o" d="m341.55 18.523c-26.684 0-44.955 19.889-44.955 45.06 0 25.408 17.282 44.774 45.607 44.774 27.788 0 45.297-19.841 45.297-45.155 0-25.266-17.662-44.679-45.949-44.679zm0.38066 19.508c14.888 0 23.643 11.277 23.643 25.408s-8.2601 25.408-23.524 25.408c-14.393 0-23.529-11.134-23.529-25.408 0-14.132 8.1459-25.408 23.41-25.408z"/>
 </g>
</svg>
