<svg height="36.840969mm" viewBox="0 0 211.66667 36.840969" width="211.66667mm" xmlns="http://www.w3.org/2000/svg" xmlns:xlink="http://www.w3.org/1999/xlink"><clipPath id="a"><path d="m904.244 485.064h26.068v7.457h-26.068z"/></clipPath><path d="m0 0-.328-.6h.696l.355.6z" fill="#f89c0e" transform="matrix(9.3546059 0 0 -9.3546059 14.937319 0)"/><g clip-path="url(#a)" transform="matrix(9.3546059 0 0 -9.3546059 -8474.667702 4595.539679)"><g transform="translate(907.5863 488.0308)"><path d="m0 0c-.523 0-.855.405-.855.923 0 .514.296.923.85.923.542 0 .86-.409.86-.923s-.3-.923-.855-.923m-.018 2.556c-.969 0-1.633-.723-1.633-1.637 0-.924.628-1.628 1.656-1.628 1.009 0 1.646.723 1.646 1.641 0 .919-.641 1.624-1.669 1.624" fill="#f89c0e"/></g><g transform="translate(911.4061 490.6594)"><path d="m0 0 .45.6h-.655l-.177-.2-.177.2h-.655l.45-.6z" fill="#f89c0e"/></g><g transform="translate(911.0878 489.8773)"><path d="m0 0c .282 0 .491-.132.605-.236l.45.573c-.25.218-.587.372-1.064.372-1.005 0-1.66-.727-1.66-1.637 0-.918.627-1.628 1.674-1.628.441 0 .777.155 1.045.41l-.445.536c-.137-.118-.337-.236-.6-.236-.528 0-.878.404-.878.923 0 .514.314.923.873.923" fill="#f89c0e"/></g><g transform="translate(914.8755 490.5275)"><path d="m0 0h-.878l-.859-1.232v1.232h-.76v-3.147h.76v1.287l.846-1.287h.886l-1.1 1.642z" fill="#f89c0e"/></g><g transform="translate(916.467 488.0308)"><path d="m0 0c-.523 0-.855.405-.855.923 0 .514.296.923.85.923.542 0 .86-.409.86-.923s-.3-.923-.855-.923m-.018 2.556c-.969 0-1.633-.723-1.633-1.637 0-.924.628-1.628 1.656-1.628 1.009 0 1.646.723 1.646 1.641 0 .919-.641 1.624-1.669 1.624" fill="#f89c0e"/></g><g transform="translate(920.4551 489.2405)"><path d="m0 0-.396.155c-.213.082-.286.172-.286.304s.086.237.259.237c.177 0 .278-.137.273-.332h.7c.032.559-.236.982-.978.982-.613 0-1.014-.382-1.014-.932 0-.382.169-.691.487-.855.173-.086.332-.146.491-.209.205-.078.332-.164.332-.341 0-.182-.127-.278-.3-.278-.25 0-.328.196-.318.396h-.719c-.027-.459.136-1.046 1.037-1.046.632 0 1.082.373 1.082 1.009 0 .469-.241.742-.65.91" fill="#f89c0e"/></g><g transform="translate(923.0834 490.5275)"><path d="m0 0h-1.81v-.709h.528v-2.438h.759v2.438h.523z" fill="#f89c0e"/></g><g transform="translate(924.161 488.7677)"><path d="m0 0 .277.796.278-.796zm-.123 1.76-1.1-3.147h.746l.259.75h.991l.264-.75h.805l-1.164 3.147z" fill="#f89c0e"/></g><g transform="translate(927.1893 489.2906)"><path d="m0 0h-.264v.582h.264c.168 0 .273-.114.273-.286 0-.178-.1-.296-.273-.296m.655-.473c.255.155.4.423.4.773 0 .596-.332.937-.991.937h-1.083v-3.147h.755v1.292h.205l.618-1.292h.814z" fill="#f89c0e"/></g></g></svg>