<?xml version="1.0" encoding="UTF-8" standalone="no"?>
<svg
   xmlns:dc="http://purl.org/dc/elements/1.1/"
   xmlns:cc="http://creativecommons.org/ns#"
   xmlns:rdf="http://www.w3.org/1999/02/22-rdf-syntax-ns#"
   xmlns:svg="http://www.w3.org/2000/svg"
   xmlns="http://www.w3.org/2000/svg"
   xmlns:sodipodi="http://sodipodi.sourceforge.net/DTD/sodipodi-0.dtd"
   xmlns:inkscape="http://www.inkscape.org/namespaces/inkscape"
   width="456.25308pt"
   height="79.492935pt"
   viewBox="0 0 456.25308 79.492935"
   version="1.1"
   id="svg34"
   sodipodi:docname="Ocko Star.svg"
   inkscape:version="0.92.1 r15371">
  <metadata
     id="metadata40">
    <rdf:RDF>
      <cc:Work
         rdf:about="">
        <dc:format>image/svg+xml</dc:format>
        <dc:type
           rdf:resource="http://purl.org/dc/dcmitype/StillImage" />
        <dc:title></dc:title>
      </cc:Work>
    </rdf:RDF>
  </metadata>
  <defs
     id="defs38" />
  <sodipodi:namedview
     pagecolor="#ffffff"
     bordercolor="#666666"
     borderopacity="1"
     objecttolerance="10"
     gridtolerance="10"
     guidetolerance="10"
     inkscape:pageopacity="0"
     inkscape:pageshadow="2"
     inkscape:window-width="1920"
     inkscape:window-height="1017"
     id="namedview36"
     showgrid="false"
     fit-margin-top="0"
     fit-margin-left="0"
     fit-margin-right="0"
     fit-margin-bottom="0"
     inkscape:zoom="0.67619048"
     inkscape:cx="570.16027"
     inkscape:cy="-105.23714"
     inkscape:window-x="-8"
     inkscape:window-y="-8"
     inkscape:window-maximized="1"
     inkscape:current-layer="svg34" />
  <g
     id="g4610"
     style="fill:#f4a502;fill-opacity:1"
     transform="translate(-84.597419,-170.30948)">
    <g
       transform="translate(42.944013,117.23491)"
       id="g4588"
       style="fill:#f4a502;fill-opacity:1">
      <path
         style="fill:#f4a502;fill-opacity:1;stroke-width:0.41447195"
         inkscape:connector-curvature="0"
         d="m 88.470188,53.074566 -7.14899,12.120016 H 67.271142 L 73.87721,53.074566 Z"
         id="path10" />
      <path
         style="fill:#f4a502;fill-opacity:1;stroke-width:0.41447195"
         inkscape:connector-curvature="0"
         d="m 74.602152,66.660157 c -19.548313,0 -32.948746,14.602392 -32.948746,33.049171 0,18.641352 12.675491,32.857732 33.416349,32.857732 20.383094,0 33.234325,-14.59297 33.234325,-33.140177 0,-18.544065 -12.948518,-32.766726 -33.69879,-32.766726 z m 0.285583,14.326224 c 10.930611,0 17.345244,8.241109 17.345244,18.628798 0,10.387691 -6.047455,18.641351 -17.241681,18.641351 -10.554018,0 -17.263649,-8.1909 -17.263649,-18.641351 0,-10.387689 5.972137,-18.628798 17.160086,-18.628798 z"
         id="path12" />
    </g>
    <g
       transform="translate(40.56076,117.23535)"
       id="g4592"
       style="fill:#f4a502;fill-opacity:1">
      <path
         style="fill:#f4a502;fill-opacity:1;stroke-width:0.41447195"
         inkscape:connector-curvature="0"
         d="m 138.95561,65.194582 -9.08216,-12.120016 h 13.21841 l 3.58391,4.035821 3.57857,-4.035821 h 13.21214 l -9.07997,12.120016 z"
         id="path14" />
      <path
         style="fill:#f4a502;fill-opacity:1;stroke-width:0.41447195"
         inkscape:connector-curvature="0"
         d="m 169.15743,124.3134 c -5.41321,5.11539 -12.2035,8.25366 -21.11683,8.25366 -21.10772,0 -33.77725,-14.31053 -33.77725,-32.857732 0,-18.365184 13.22469,-33.055448 33.50422,-33.055448 9.64235,0 16.43264,3.122583 21.48181,7.519306 l -9.08437,11.570819 c -2.30286,-2.102644 -6.5138,-4.767039 -12.20757,-4.767039 -11.2868,0 -17.62612,8.250524 -17.62612,18.638213 0,10.450451 7.06739,18.641351 17.7096,18.641351 5.32973,0 9.36963,-2.41647 12.12409,-4.77018 z"
         id="path16" />
    </g>
    <path
       id="path18"
       d="m 229.78908,209.9422 17.3487,-24.88652 h 17.71242 l -22.30498,30.3785 22.21711,33.14018 h -17.90072 l -17.07222,-25.98492 v 25.98492 h -15.3311 v -63.51868 h 15.3311 v 24.88652 z"
       inkscape:connector-curvature="0"
       style="fill:#f4a502;fill-opacity:1;stroke-width:0.41447195" />
    <path
       id="path20"
       d="m 296.57677,183.82541 c -19.55773,0 -32.9613,14.60239 -32.9613,33.04917 0,18.64135 12.66922,32.85773 33.41635,32.85773 20.37996,0 33.23433,-14.59297 33.23433,-33.10879 0,-18.56604 -12.94852,-32.79811 -33.68624,-32.79811 z m 0.27303,14.32622 c 10.93061,0 17.34524,8.24111 17.34524,18.6288 0,10.35631 -6.06,18.64135 -17.26678,18.64135 -10.55402,0 -17.2511,-8.1909 -17.2511,-18.64135 0,-10.38769 5.969,-18.6288 17.17264,-18.6288 z"
       inkscape:connector-curvature="0"
       style="fill:#f4a502;fill-opacity:1;stroke-width:0.41447195" />
  </g>
  <path
     style="opacity:1;fill:#f4a502;fill-opacity:1;stroke-width:1.00000107"
     inkscape:connector-curvature="0"
     id="path23"
     d="m 268.42288,19.660464 c 4.29,-4.60001 10.85001,-6.34001 16.97001,-6.11001 4.78001,0.27 9.84002,1.35 13.46002,4.71 4.1,3.81001 5.49001,9.80002 4.91,15.21002 l -13.88001,-0.07 c -0.0945,-2.6297 -1.36437,-5.88395 -4.03477,-6.51058 -1.03608,-0.24312 -2.11332,-0.25137 -3.08562,-0.0734 -1.86772,0.34187 -3.45411,1.85565 -3.7459,3.74926 -0.11651,0.93814 0.007,1.90458 0.23886,2.73676 0.55385,1.42379 1.87794,2.53552 3.20742,3.248 6.00001,3.00001 13.10002,4.19001 18.06002,9.02001 6.28001,5.87001 6.74001,16.00002 3.11,23.42003 -3.17,6.42001 -10.31001,9.98001 -17.25001,10.34001 -6.21001,0.38 -13.03002,-0.44 -17.84002,-4.75 -4.48001,-4.06001 -5.74001,-10.44001 -5.50001,-16.24002 h 14.49002 c -0.21012,3.15178 1.24491,6.97378 4.42177,7.76999 1.25904,0.31555 2.69288,0.41523 3.86988,0.10828 2.98359,-0.77808 5.1656,-3.99375 4.06836,-7.15827 -1.37,-4.01 -6.06001,-4.86001 -9.48001,-6.39001 -5.39001,-2.07 -11.29001,-4.5 -14.16002,-9.89001 -3.94,-7.15001 -3.55,-17.01002 2.17001,-23.12002 z"
     sodipodi:nodetypes="cccccsscccccccccssccccc" />
  <path
     style="opacity:1;fill:#f4a502;fill-opacity:1;stroke-width:1.00000107"
     inkscape:connector-curvature="0"
     id="path27"
     d="m 309.19292,14.840454 36.53004,-0.02 0.01,14.29002 -10.59001,-0.01 0.05,49.14005 -15.34002,0.02 0.04,-49.16005 -10.70001,-0.01 z"
     sodipodi:nodetypes="ccccccccc" />
  <path
     style="opacity:1;fill:#f4a502;fill-opacity:1;stroke-width:1.00000107"
     inkscape:connector-curvature="0"
     id="path29"
     d="m 364.92298,14.870454 16.24002,0.01 23.49003,63.36007 -16.16002,0.08 -5.48001,-15.22002 -19.96002,0.01 -5.24001,15.16002 -15.08001,-0.04 22.19002,-63.36007 m 2.48,35.36004 11.28002,0.04 -5.49001,-16.01002 z"
     sodipodi:nodetypes="ccccccccccccc" />
  <path
     style="opacity:1;fill:#f4a502;fill-opacity:1;stroke-width:1.00000107"
     inkscape:connector-curvature="0"
     id="path31"
     d="m 407.99303,14.810454 c 8.15001,0.13 16.30002,-0.1 24.46003,0.11 5.78,0.19 11.81001,2.78 14.79001,7.97001 4.67001,8.58001 3.19001,21.08002 -5.56,26.51003 l 14.57001,28.83003 -16.46002,0.03 -12.46001,-26.02003 -4.15,-0.03 0.04,26.03003 -15.27002,0.01 0.04,-63.44007 m 15.18002,13.17457 0.03,11.83387 h 4.2137 c 1.25436,0 2.49282,-0.19142 3.6763,-0.64878 4.05001,-2.06 3.93001,-9.10001 -0.37,-10.82001 -0.9847,-0.24718 -1.98657,-0.36554 -2.9945,-0.36546 z"
     sodipodi:nodetypes="cccccccccccccsccsc" />
</svg>
