<svg id="a" width="646.14" height="86.06" version="1.1" viewBox="0 0 170.96 22.77" xmlns="http://www.w3.org/2000/svg">
 <g id="b" transform="translate(12.207)" fill="#808080">
  <path id="c" d="m9.2324 0-1.8881 3.47h4.024l2.0486-3.47zm0.2159 3.89c-5.6082 0-9.4483 4.18-9.4483 9.47 0 5.34 3.6322 9.41 9.5765 9.41 5.8484 0 9.5284-4.17 9.5284-9.49 0-5.31-3.712-9.39-9.6566-9.39zm0.0799 4.1c3.1277 0 4.9687 2.37 4.9687 5.34s-1.736 5.34-4.9445 5.34c-3.0242 0-4.9442-2.34-4.9442-5.34 0-2.97 1.7119-5.34 4.92-5.34z"/>
  <path id="d" d="m32.313 3.47 2.608-3.47h-3.792l-1.024 1.16-1.032-1.16h-3.784l2.6 3.47z"/>
  <path id="e" d="m33.969 17.3c-0.784 0.69-1.944 1.37-3.472 1.37-3.048 0-5.08-2.34-5.08-5.34 0-2.97 1.816-5.34 5.056-5.34 1.632 0 2.84 0.76 3.496 1.37l2.608-3.31c-1.448-1.26-3.392-2.16-6.16-2.16-5.816 0-9.6 4.21-9.6 9.47 0 5.31 3.632 9.41 9.68 9.41 2.552 0 4.496-0.89 6.056-2.36z"/>
  <path id="f" d="m42.866 4.24h-4.392v18.19h4.392v-7.44l4.896 7.44h5.128l-6.368-9.5 6.392-8.69h-5.08l-4.968 7.12z"/>
  <path id="g" d="m61.626 3.89c-5.608 0-9.448 4.18-9.448 9.47 0 5.34 3.632 9.41 9.585 9.41 5.84 0 9.52-4.17 9.52-9.49 0-5.31-3.712-9.39-9.657-9.39zm0.08 4.1c3.129 0 4.969 2.37 4.969 5.34s-1.736 5.34-4.944 5.34c-3.025 0-4.945-2.34-4.945-5.34 0-2.97 1.712-5.34 4.92-5.34z"/>
 </g>
 <g id="h" transform="translate(12.207)" fill="#808080">
  <path id="i" d="m86.835 22.43v-4.1h-4.32v-3.13h4.112v-4.05h-4.112v-2.81h4.24v-4.1h-8.632v18.19z"/>
  <path id="j" d="m88.067 22.43h4.921c0.528-0.81 1.712-2.76 3.584-5.55l3.6 5.55h5.08l-5.92-9.26 5.71-8.93h-5.158l-3.08 4.99-3.184-4.99h-5.337l5.761 8.8z"/>
  <path id="k" d="m106.75 4.24v18.19h4.36v-7.26h1.92c3.51 0 5.72-2.16 5.72-5.52 0-3.45-1.92-5.41-5.74-5.41zm4.36 3.78h1.53c0.98 0 1.59 0.65 1.59 1.66 0 1.02-0.59 1.7-1.59 1.7h-1.53z"/>
  <path id="l" d="m120.64 4.24v18.19h4.37v-7.46h1.18l3.58 7.46h4.71l-4.16-8.31c1.48-0.89 2.32-2.45 2.32-4.47 0-3.45-1.92-5.41-5.73-5.41zm4.37 3.78h1.53c0.97 0 1.57 0.65 1.57 1.66 0 1.02-0.57 1.7-1.57 1.7h-1.53z"/>
  <path id="m" d="m144.48 22.43v-4.1h-4.32v-3.13h4.12v-4.05h-4.12v-2.81h4.24v-4.1h-8.63v18.19z"/>
  <path id="n" d="m151.04 9.02c0-0.76 0.49-1.37 1.49-1.37 1.03 0 1.61 0.79 1.59 1.92h4.04c0.19-3.23-1.36-5.68-5.65-5.68-3.55 0-5.87 2.21-5.87 5.39 0 2.21 0.97 4 2.81 4.95 1.01 0.5 1.93 0.84 2.85 1.21 1.18 0.44 1.92 0.94 1.92 1.96 0 1.06-0.74 1.61-1.74 1.61-1.44 0-1.89-1.13-1.84-2.29h-4.16c-0.16 2.66 0.79 6.05 6 6.05 3.66 0 6.27-2.15 6.27-5.84 0-2.7-1.4-4.28-3.77-5.26l-2.29-0.89c-1.23-0.47-1.65-1-1.65-1.76"/>
 </g>
 <g id="o" transform="matrix(.21017 0 0 .21017 0 -4.9608e-5)" fill="#808080">
  <path id="p" d="m0 19.81h8.645v13.55h11.345v-13.55h8.9752c4.9877 0 9.0493 1.1341 12.955 4.465 7.45 6.61 7.39 19.8 0.48 26.77-3.7874 3.6473-8.3616 4.9802-13.435 4.9802h-8.9752v-14.295h-11.345v14.295l-8.635-2.5e-4 -0.01-36.215m28.965 7.675v20.96h1.8594c4.8563 0 7.5516-3.738 7.5516-10.9 0-5.7898-2.5471-10.06-7.5516-10.06z" fill="#808080"/>
 </g>
</svg>
