<?xml version="1.0" encoding="UTF-8" standalone="no"?>
<svg
   xmlns:dc="http://purl.org/dc/elements/1.1/"
   xmlns:cc="http://creativecommons.org/ns#"
   xmlns:rdf="http://www.w3.org/1999/02/22-rdf-syntax-ns#"
   xmlns:svg="http://www.w3.org/2000/svg"
   xmlns="http://www.w3.org/2000/svg"
   xmlns:sodipodi="http://sodipodi.sourceforge.net/DTD/sodipodi-0.dtd"
   xmlns:inkscape="http://www.inkscape.org/namespaces/inkscape"
   width="178.95714pt"
   height="159.28029pt"
   viewBox="0 0 178.95714 159.28029"
   version="1.1"
   id="svg17"
   sodipodi:docname="Oik TV - Dark.svg"
   inkscape:version="0.92.0 r15299">
  <metadata
     id="metadata23">
    <rdf:RDF>
      <cc:Work
         rdf:about="">
        <dc:format>image/svg+xml</dc:format>
        <dc:type
           rdf:resource="http://purl.org/dc/dcmitype/StillImage" />
        <dc:title></dc:title>
      </cc:Work>
    </rdf:RDF>
  </metadata>
  <defs
     id="defs21" />
  <sodipodi:namedview
     pagecolor="#ffffff"
     bordercolor="#666666"
     borderopacity="1"
     objecttolerance="10"
     gridtolerance="10"
     guidetolerance="10"
     inkscape:pageopacity="0"
     inkscape:pageshadow="2"
     inkscape:window-width="1920"
     inkscape:window-height="1017"
     id="namedview19"
     showgrid="false"
     fit-margin-top="0"
     fit-margin-left="0"
     fit-margin-right="0"
     fit-margin-bottom="0"
     inkscape:zoom="1.251579"
     inkscape:cx="48.355892"
     inkscape:cy="296.35421"
     inkscape:window-x="-8"
     inkscape:window-y="-8"
     inkscape:window-maximized="1"
     inkscape:current-layer="svg17" />
  <g
     id="#ffffffff"
     transform="translate(-10.592282,-20.49)" />
  <g
     id="#2c256dff"
     transform="translate(-10.592282,-20.49)">
    <path
       d="m 21.03,30.03 c 9.74,-9.56 25.56,-11.86 37.69,-5.72 7.98,3.83 13.92,11.07 16.96,19.29 -6.43,0.75 -12.94,0.95 -19.4,0.39 -3.52,-3.94 -8.84,-6.33 -14.16,-5.62 -8.78,0.85 -15.78,9.87 -13.98,18.62 1.27,8.53 10.36,14.87 18.8,13.04 C 54.09,68.7 59.9,62.15 59.97,54.8 65.76,54.29 71.58,53.94 77.28,52.72 78.21,67.37 68.21,81.8 54.17,86.09 45.45,88.85 35.59,87.95 27.62,83.41 19.03,78.61 12.78,69.82 11.12,60.11 9.1,49.25 12.98,37.57 21.03,30.03 Z"
       id="path3"
       inkscape:connector-curvature="0"
       style="opacity:1;fill:#2c256d" />
    <path
       d="m 132.17,20.49 c 0.06,8.04 0.25,16.09 -0.13,24.12 10.09,-3.78 20.73,-12.049749 21,-23.779749 6.16,-0.03 12.32,0.06 18.48,0 -0.02,13.9 -9.85,25.479749 -20.69,33.059749 4.03188,6.983416 8.21,11.98 13.63,16.87 7.967,7.789175 16.17025,11.780288 25.08943,17.000253 H 155.37 C 148.91,79.530253 142.61,71.1 136.18,62.85 c -0.8,-1.69 -4.52,-0.92 -4,1.1 0.18,7.85 -0.1,15.970253 0.17,23.810253 h -18.6 C 113.48,71.180253 113.72,54.58 113.63,37.99 c 7.28229,-2.906062 15.04008,-14.000083 18.54,-17.5 z"
       id="path5"
       inkscape:connector-curvature="0"
       style="opacity:1;fill:#2c256d"
       sodipodi:nodetypes="cccccccccccccc" />
    <path
       d="m 85.110003,50.97 c 6.42,-1.71 12.559751,-4.26 18.579747,-7.03 V 87.680003 H 85.110003 Z"
       id="path7"
       inkscape:connector-curvature="0"
       style="opacity:1;fill:#2c256d"
       sodipodi:nodetypes="ccccc" />
    <path
       d="m 89.57,156.73 c 8.32,-11.81 22.97,-19.22 37.5,-18.16 9.52,0.45 18.19,5.22 25.39,11.17 l 36.69,30.01 -178.18,0.0203 c 1.19,-1.66 3.29,-2.08026 5,-3.02026 6.21,-3.21 12.26,-6.75 18.15,-10.53 9.25,3.17 19.11,4.04 28.83,4.19 -9.305462,-2.56827 -15.298847,-2.029 -24.402999,-7.40837 4.061783,-2.04158 8.307245,-4.48997 11.749857,-6.53696 3.933312,-2.3314 7.954382,-4.39543 12.673142,-4.61467 7.57,-0.22 13.33,5.36 19.78,8.43 16.31,8.47 36.18229,9.84559 53.02,10.39 -16.80006,-4.70739 -33.53019,-6.3204 -46.2,-13.94 z"
       id="path9"
       inkscape:connector-curvature="0"
       style="opacity:1;fill:#2c256d"
       sodipodi:nodetypes="ccccccccccccccc" />
  </g>
  <g
     id="#e3158fff"
     transform="translate(-10.592282,-20.49)">
    <path
       d="m 85.16,22.090251 h 18.49 V 37.48 c -6.009996,2.28 -12.19,4.25 -18.48,5.57 0.01,-6.99 0.02,-13.979749 -0.01,-20.959749 z"
       id="path12"
       inkscape:connector-curvature="0"
       style="opacity:1;fill:#e3158f"
       sodipodi:nodetypes="ccccc" />
    <path
       d="m 11.24,102.28 40.6,0.01 7.007797,16.9 6.642203,-16.81 11.33,-0.04 -14.72,37.83 -6.12,-0.01 -11.06,-27.43 -11.69,0.09 0.08,27.13 -10.38,-0.06 0.05,-27.16 H 11.2 Z"
       id="path14"
       inkscape:connector-curvature="0"
       style="opacity:1;fill:#e3158f"
       sodipodi:nodetypes="cccccccccccccc" />
  </g>
</svg>
