<?xml version="1.0" encoding="UTF-8"?>
<svg id="svg17" width="178.96pt" height="159.28pt" version="1.1" viewBox="0 0 178.96 159.28" xmlns="http://www.w3.org/2000/svg" xmlns:cc="http://creativecommons.org/ns#" xmlns:dc="http://purl.org/dc/elements/1.1/" xmlns:rdf="http://www.w3.org/1999/02/22-rdf-syntax-ns#">
 <metadata id="metadata23">
  <rdf:RDF>
   <cc:Work rdf:about="">
    <dc:format>image/svg+xml</dc:format>
    <dc:type rdf:resource="http://purl.org/dc/dcmitype/StillImage"/>
    <dc:title/>
   </cc:Work>
  </rdf:RDF>
 </metadata>
 <path id="path3" d="m10.438 9.54c9.74-9.56 25.56-11.86 37.69-5.72 7.98 3.83 13.92 11.07 16.96 19.29-6.43 0.75-12.94 0.95-19.4 0.39-3.52-3.94-8.84-6.33-14.16-5.62-8.78 0.85-15.78 9.87-13.98 18.62 1.27 8.53 10.36 14.87 18.8 13.04 7.15-1.33 12.96-7.88 13.03-15.23 5.79-0.51 11.61-0.86 17.31-2.08 0.93 14.65-9.07 29.08-23.11 33.37-8.72 2.76-18.58 1.86-26.55-2.68-8.59-4.8-14.84-13.59-16.5-23.3-2.02-10.86 1.86-22.54 9.91-30.08z" fill="#fff"/>
 <path id="path5" d="m121.58 0c0.06 8.04 0.25 16.09-0.13 24.12 10.09-3.78 20.73-12.05 21-23.78 6.16-0.03 12.32 0.06 18.48 0-0.02 13.9-9.85 25.48-20.69 33.06 4.0319 6.9834 8.21 11.98 13.63 16.87 7.967 7.7892 16.17 11.78 25.089 17h-34.179c-6.46-8.23-12.76-16.66-19.19-24.91-0.8-1.69-4.52-0.92-4 1.1 0.18 7.85-0.1 15.97 0.17 23.81h-18.6c-0.27-16.58-0.03-33.18-0.12-49.77 7.2823-2.9061 15.04-14 18.54-17.5z" fill="#fff"/>
 <path id="path7" d="m74.518 30.48c6.42-1.71 12.56-4.26 18.58-7.03v43.74h-18.58z" fill="#fff"/>
 <path id="path9" d="m78.978 136.24c8.32-11.81 22.97-19.22 37.5-18.16 9.52 0.45 18.19 5.22 25.39 11.17l36.69 30.01-178.18 0.0203c1.19-1.66 3.29-2.0803 5-3.0203 6.21-3.21 12.26-6.75 18.15-10.53 9.25 3.17 19.11 4.04 28.83 4.19-9.3055-2.5683-15.299-2.029-24.403-7.4084 4.0618-2.0416 8.3072-4.49 11.75-6.537 3.9333-2.3314 7.9544-4.3954 12.673-4.6147 7.57-0.22 13.33 5.36 19.78 8.43 16.31 8.47 36.182 9.8456 53.02 10.39-16.8-4.7074-33.53-6.3204-46.2-13.94z" fill="#fff"/>
 <g id="#e3158fff" transform="translate(-10.592 -20.49)" fill="#e3158f">
  <path id="path12" d="m85.16 22.09h18.49v15.39c-6.01 2.28-12.19 4.25-18.48 5.57 0.01-6.99 0.02-13.98-0.01-20.96z"/>
  <path id="path14" d="m11.24 102.28 40.6 0.01 7.0078 16.9 6.6422-16.81 11.33-0.04-14.72 37.83-6.12-0.01-11.06-27.43-11.69 0.09 0.08 27.13-10.38-0.06 0.05-27.16h-11.78z"/>
 </g>
</svg>
