<svg height="159.28029pt" viewBox="0 0 178.95714 159.28029" width="178.95714pt" xmlns="http://www.w3.org/2000/svg"><g fill="#fff"><path d="m10.437718 9.54c9.74-9.56 25.56-11.86 37.69-5.72 7.98 3.83 13.92 11.07 16.96 19.29-6.43.75-12.94.95-19.4.39-3.52-3.94-8.84-6.33-14.16-5.62-8.78.85-15.78 9.87-13.98 18.62 1.27 8.53 10.36 14.87 18.8 13.04 7.15-1.33 12.96-7.88 13.03-15.23 5.79-.51 11.61-.86 17.31-2.08.93 14.65-9.07 29.08-23.11 33.37-8.72 2.76-18.58 1.86-26.55-2.68-8.59-4.8-14.84-13.59-16.5-23.3-2.02-10.86 1.86-22.54 9.91-30.08z"/><path d="m121.57772 0c .06 8.04.25 16.09-.13 24.12 10.09-3.78 20.73-12.049749 21-23.779749 6.16-.03 12.32.06 18.48 0-.02 13.9-9.85 25.479749-20.69 33.059749 4.03188 6.983416 8.21 11.98 13.63 16.87 7.967 7.789175 16.17025 11.780288 25.08943 17.000253h-34.17943c-6.46-8.23-12.76-16.660253-19.19-24.910253-.8-1.69-4.52-.92-4 1.1.18 7.85-.1 15.970253.17 23.810253h-18.6c-.27-16.58-.03-33.180253-.12-49.770253 7.28229-2.906062 15.04008-14.000083 18.54-17.5z"/><path d="m74.517721 30.48c6.42-1.71 12.559751-4.26 18.579747-7.03v43.740003h-18.579747z"/><path d="m78.977718 136.24c8.32-11.81 22.970002-19.22 37.500002-18.16 9.52.45 18.19 5.22 25.39 11.17l36.69 30.01-178.180002.0203c1.19-1.66 3.29-2.08026 5-3.02026 6.21-3.21 12.26-6.75 18.15-10.53 9.25 3.17 19.11 4.04 28.83 4.19-9.305462-2.56827-15.298847-2.029-24.402999-7.40837 4.061783-2.04158 8.307245-4.48997 11.749857-6.53696 3.933312-2.3314 7.954382-4.39543 12.673142-4.61467 7.57-.22 13.33 5.36 19.78 8.43 16.31 8.47 36.182292 9.84559 53.020002 10.39-16.80006-4.70739-33.530192-6.3204-46.200002-13.94z"/></g><g transform="translate(-10.592282 -20.49)"><path d="m85.16 22.090251h18.49v15.389749c-6.009996 2.28-12.19 4.25-18.48 5.57.01-6.99.02-13.979749-.01-20.959749z" fill="#e3158f"/><path d="m11.24 102.28 40.6.01 7.007797 16.9 6.642203-16.81 11.33-.04-14.72 37.83-6.12-.01-11.06-27.43-11.69.09.08 27.13-10.38-.06.05-27.16h-11.78z" fill="#e3158f"/></g></svg>