<svg height="277.81332" viewBox="0 0 565.12 277.81332" width="565.12" xmlns="http://www.w3.org/2000/svg"><path d="m109.286 127.37733 127.37266-127.37199305 95.06 94.97733105-94.91733-47.218666z" fill="#6db62f"/><g fill="#231f20"><path d="m243.55466 167.93733v-21.51986h-11.26933l.001-19.26814h-26.952l-.001 19.26814h-9.86v21.51986h9.86v32.94534c0 10.84426 10.824 21.62546 21.648 21.62546h16.57066v-21.676h-6.33466c-2.72534 0-4.93334-2.2084-4.93334-4.9324l.001-27.9624h11.26933"/><path d="m312.64266 259.85453v-.1c0-9.8772 7.50533-18.05733 17.95067-18.05733 6.44133 0 10.29466 2.24426 13.84399 5.53586l-2.73733 2.8948c-2.992-2.7948-6.33867-4.78906-11.15733-4.78906-7.86 0-13.74267 6.28493-13.74267 14.31573v.1c0 8.08016 5.93334 14.41609 13.74267 14.41609 4.86933 0 8.06533-1.84688 11.46133-5.03854l2.63733 2.54374c-3.70266 3.69324-7.75866 6.13751-14.19999 6.13751-10.24267 0-17.79867-7.93177-17.79867-17.9588"/><path d="m351.10532 242.29613h4.00667v15.51307h20.48667v-15.51307h4.00533v34.9172h-4.00533v-15.712h-20.48667v15.712h-4.00667z"/><path d="m412.13466 264.444-8.064-17.80774-8.11334 17.80774zm-9.88934-22.39734h3.75334l16.176 35.16667h-4.30934l-4.16-9.22917h-19.32l-4.20933 9.22917h-4.108z"/><path d="m428.63999 242.29613h3.752l22.364 27.98231v-27.98231h3.904v34.9172h-3.19467l-22.92133-28.63333v28.63333h-3.904z"/><path d="m468.16799 242.29613h3.752l22.364 27.98231v-27.98231h3.904v34.9172h-3.19467l-22.92133-28.63333v28.63333h-3.904z"/><path d="m507.69599 242.29613h25.65866v3.59067h-21.65333v11.9224h19.37333v3.59213h-19.37333v12.22137h21.90667v3.59063h-25.912z"/><path d="m541.13732 242.29613h4.00667v31.27449h19.97866v3.64271h-23.98533z"/><path d="m393.56532 184.81493v-.2844c.003-9.27973-6.80666-17.15573-16.31066-17.15573-9.78667 0-16.028 7.73587-16.02934 16.87707v.27866c0 9.2844 6.808 17.16147 16.312 17.16147 9.78667 0 16.028-7.736 16.028-16.87707m-58.58266 0v-.2844c.003-21.6584 17.87733-39.80106 42.556-39.80106 24.54 0 42.27066 17.86253 42.26933 39.5224v.27866c0 21.664-17.87333 39.8068-42.55467 39.8068-24.54 0-42.27066-17.86413-42.27066-39.5224"/><path d="m481.50132 184.81493v-.2844c.001-9.27973-6.80667-17.15573-16.31066-17.15573-9.78667 0-16.02934 7.73587-16.02934 16.87707v.27866c0 9.2844 6.808 17.16147 16.312 17.16147 9.78533 0 16.028-7.736 16.028-16.87707m-58.58266 0v-.2844c.003-21.6584 17.876-39.80106 42.556-39.80106 24.53999 0 42.27066 17.86253 42.26933 39.5224v.27866c0 21.664-17.87334 39.8068-42.55467 39.8068-24.54 0-42.27066-17.86413-42.27066-39.5224"/><path d="m564.61599 145.31173c-8.87334 0-17.24 3.28707-23.77867 9.6016v-8.49586l-31.96267.001v21.12974h5.01334l-.001 33.83013h-5.012v21.12973h37.02534v-21.12967h-5.064v-7.19573h.001v-.35894c0-13.7104 11.30267-20.49426 24.25733-20.53693v-27.97507h-.47866"/><path d="m287.67733 201.83053c-8.652 0-15.74534-7.17346-15.74534-17.3v-.27973c.003-10.12707 7.09467-17.1604 15.748-17.1604 8.58134 0 15.47734 7.05893 15.58934 16.91613v.77187c-.11334 9.99373-7.01067 17.05213-15.592 17.05213zm42.54133-.45213.003-81.5424-31.94934-.001v21.129h4.99867v11.4572c-6.284-4.89067-14.02933-7.69173-22.204-7.69173-19.80133 0-36.03333 16.08653-36.03733 39.25053v.6412c0 23.164 16.232 39.71346 36.03333 39.71346 8.176 0 15.92267-2.82653 22.20667-7.7692v5.94267h32.01733v-21.12973h-5.068"/><path d="m78.775065 173.70813c0 13.7812-9.411067 25.44534-24.164133 25.44534-14.3292 0-24.592666-11.87614-24.592666-25.87187v-.42133c.0015-13.78187 9.411466-25.44534 24.165599-25.44534 14.3292 0 24.593733 11.8744 24.5912 25.86667zm-24.193866-51.4748c-31.654133 0-54.578074 23.26907-54.581199 51.04827v.3624c0 27.77973 22.740666 50.69066 54.214532 50.69066 31.655733 0 54.579198-23.26919 54.579198-51.05306v-.35787c.002-27.7812-22.739599-50.6904-54.212531-50.6904"/><path d="m191.6 201.3784.001-54.95987h-12.95467v-.001h-18.99433v21.1292h5l-.001 20.4708-.003.001v.19747c0 7.1468-4.904 12.21093-11.012 12.21093-6.10667 0-11.112-5.06413-11.112-12.21093l-.003-41.79747h-12.95307v-.001h-18.99393v21.1292h4.99733l-.00053 28.65986c0 17.3 9.788 28.12813 26.09986 28.12813l.76-.002c8.18134 0 15.93334-2.9452 22.22-7.86666v6.04173h12.216 19.656v-21.12939z"/></g></svg>