<svg id="j" width="1022pt" height="740.83pt" version="1.1" viewBox="0 0 1022 740.83" xmlns="http://www.w3.org/2000/svg" xmlns:xlink="http://www.w3.org/1999/xlink">
 <defs id="k">
  <linearGradient id="a">
   <stop id="l" stop-color="#44b449" offset="0"/>
   <stop id="m" stop-color="#288a43" offset="1"/>
  </linearGradient>
  <linearGradient id="i" x1="203.81" x2="827.18" y1="370.42" y2="370.42" gradientUnits="userSpaceOnUse" xlink:href="#a"/>
  <linearGradient id="h" x1="217.44" x2="284.87" y1="315.68" y2="315.68" gradientUnits="userSpaceOnUse" xlink:href="#a"/>
  <linearGradient id="g" x1="104.08" x2="200.74" y1="343" y2="343" gradientUnits="userSpaceOnUse" xlink:href="#a"/>
  <linearGradient id="f" x1="-2.0174e-8" x2="96.653" y1="343.27" y2="343.27" gradientUnits="userSpaceOnUse" xlink:href="#a"/>
  <linearGradient id="e" x1="741.15" x2="813.61" y1="315.21" y2="315.21" gradientUnits="userSpaceOnUse" xlink:href="#a"/>
  <linearGradient id="d" x1="830.29" x2="923.99" y1="342.98" y2="342.98" gradientUnits="userSpaceOnUse" xlink:href="#a"/>
  <linearGradient id="c" x1="930.07" x2="1022" y1="299.87" y2="299.87" gradientUnits="userSpaceOnUse" xlink:href="#a"/>
  <linearGradient id="b" x1="931.32" x2="1007.5" y1="389.35" y2="389.35" gradientUnits="userSpaceOnUse" xlink:href="#a"/>
 </defs>
 <path id="n" d="m515.45 0 311.73 428.99-311.41 311.84-311.96-311.84c104.51-143.36 217.95-299.85 311.64-428.99m-56.56 264.97c-13.28 5.04-25.24 14.1-32.6 26.37-9.77 16-12.29 35.25-12.06 53.68 0.17 15.73 2.54 31.85 9.9 45.93 6.14 11.97 16.41 21.61 28.52 27.38 17.75 8.63 37.82 10.28 57.26 10.97-3.57-1.11-7.39-1.53-10.65-3.51-6.16-3.4-9.21-10.29-10.65-16.87-3.18-14.78-3.15-29.98-3.72-45.01-0.21-23.95-0.52-47.97 1.95-71.81 1.23-8.94 2.26-18.4 7.23-26.17 3.64-5.71 10.53-7.77 16.78-9.1-17.54 0.07-35.45 1.84-51.96 8.14m62.33-7.91c9.19 0.98 17.16 7.99 19.65 16.84 3.76 12.29 4.22 25.27 4.87 38.01 0.87 26.32 1.07 52.73-1.21 78.98-0.86 8.04-1.9 16.21-4.84 23.8-2.06 5.38-5.97 10.32-11.41 12.54-2.27 1.1-4.81 1.3-7.18 2.08 18.23-0.65 36.9-2.25 53.83-9.59 12.81-5.43 24.03-14.84 30.87-27.04 8.88-15.6 11.27-33.97 11.05-51.67-0.13-14.98-2.4-30.26-9.04-43.83-6.17-12.82-16.89-23.25-29.7-29.38-17.34-8.55-36.98-10.42-56.02-11.14-0.22 0.1-0.65 0.3-0.87 0.4m-180.94-0.25-125.13 172.39 59.62-0.18 125.43-172.3-59.92 0.09m290.61-0.04 125.46 172.37 59.58 0.14-125.09-172.49-59.95-0.02m2.74 172.45c23.66-0.11 47.34 0.12 70.99-0.08 0-0.07 0.01-0.22 0.01-0.3-10.76-0.56-20.9-5.45-29.08-12.27-12.89-10.79-21.71-25.6-28.17-40.92-5.7214-13.896-9.776-28.514-11.829-43.405-0.48265-3.3523-1.0822-7.3546-1.981-18.225l0.06 115.2m-238.01-97.602c-1.8968 14.129-5.6112 28.016-10.8 41.292-6.1 15.24-14.4 29.98-26.51 41.25-8.72 8.18-19.94 14.13-31.98 15.02h71.05l0.2-114.24c-0.60612 6.4415-1.305 11.742-1.9603 16.678z" fill="url(#i)"/>
 <path id="o" d="m104.23 256.73c19.42 0.26 39.46 2.3 57.21 10.77 13.07 6.12 24.05 16.7 30.29 29.76 8.35 17.21 9.72 36.85 8.72 55.69-1.14 17.71-5.89 36.04-17.81 49.67-10.38 12.12-25.45 19.18-40.8 22.63-12.37 2.82-25.1 3.82-37.76 4.01 4.6-0.92 9.51-1.82 13.03-5.21 5.88-5.05 7.94-12.94 9.42-20.23 2.53-13.78 3.03-27.84 3.35-41.82 0.55-18.37 0.24-36.75-0.53-55.1-0.76-11.28-1.34-22.77-4.87-33.59-2.46-7.91-9.35-14.39-17.58-15.83-0.88-0.27-1.92-0.15-2.67-0.75z" fill="url(#g)"/>
 <path id="p" d="m741.15 256.57c24.11 0.27 48.26 0.11 72.39 0.15-0.01 39.04-0.08 78.11 0.07 117.13-1.02-7.93-1.1-15.95-2.48-23.83-3.63-21.13-10.42-41.98-21.91-60.19-8.45-13.27-20.12-25.42-35.34-30.55-4.11-1.55-8.53-1.64-12.73-2.71z" fill="url(#e)"/>
 <path id="q" d="m885.99 260.89c12.4-3.07 25.23-3.95 37.96-4.25-6.39 1.31-13.08 3.72-17.07 9.2-4.6 6.58-5.91 14.75-7.15 22.51-2.91 22.41-2.55 45.06-2.49 67.61 0.29 16.32 0.5 32.77 3.47 48.87 1.42 7.41 4.07 15.41 10.75 19.71 3.64 2.8 8.19 3.66 12.53 4.77-18.99-0.53-38.63-2-56-10.39-12.37-5.88-22.64-16.01-28.53-28.38-8.26-17.11-9.72-36.59-9.01-55.31 0.83-18.08 4.97-36.91 16.58-51.28 9.65-12.14 24.09-19.5 38.96-23.06z" fill="url(#d)"/>
 <path id="r" d="m930.07 256.7c18.19 0.26 36.89 2.55 53.38 10.72 11.62 5.69 21.54 14.87 27.77 26.24 7.91 14.15 10.44 30.57 10.81 46.58v2.7902h-90.66c7.03-0.75 15.24-1.8102 20.03-7.7102 4.35-5.46 3.33-12.83 3.3-19.32-0.56-15.14-1.7-30.76-7.92-44.78-3.03-7.05-8.89-13.2-16.71-14.52z" fill="url(#c)"/>
 <path id="s" d="m217.48 262c0-1.8-0.15-3.6 0.19-5.37 22.29 0.05 44.6 0.33 66.88-0.12 0.08 0.22 0.24 0.67 0.32 0.89-14.89 2.24-27.51 11.96-36.65 23.5-12.62 16-20.38 35.32-25.31 54.96-3.45 12.73-4.33 25.91-5.47 38.99 0.05-37.59 0.05-75.23 0.04-112.85z" fill="url(#h)"/>
 <path id="t" d="m1005.8 364.52c0.88-5.12 1.2755-9.7647 1.6802-15.44v80.55h-76.14c3.4716-0.67015 6.6406-1.0219 9.8253-1.4588 13.592-1.6449 26.799-6.949 37.455-15.591 14.77-11.81 23.89-29.63 27.18-48.06z" fill="url(#b)"/>
 <path id="u" d="m96.503 429.54c-19.42-0.26-39.46-2.3-57.21-10.77-13.07-6.12-24.05-16.7-30.29-29.76-8.35-17.21-9.72-36.85-8.72-55.69 1.14-17.71 5.89-36.04 17.81-49.67 10.38-12.12 25.45-19.18 40.8-22.63 12.37-2.82 25.1-3.82 37.76-4.01-4.6 0.92-9.51 1.82-13.03 5.21-5.88 5.05-7.94 12.94-9.42 20.23-2.53 13.78-3.03 27.84-3.35 41.82-0.55 18.37-0.24 36.75 0.53 55.1 0.76 11.28 1.34 22.77 4.87 33.59 2.46 7.91 9.35 14.39 17.58 15.83 0.88 0.27 1.92 0.15 2.67 0.75z" fill="url(#f)"/>
</svg>
