<?xml version="1.0" encoding="UTF-8" standalone="no"?>
<svg
   xmlns:dc="http://purl.org/dc/elements/1.1/"
   xmlns:cc="http://creativecommons.org/ns#"
   xmlns:rdf="http://www.w3.org/1999/02/22-rdf-syntax-ns#"
   xmlns:svg="http://www.w3.org/2000/svg"
   xmlns="http://www.w3.org/2000/svg"
   xmlns:xlink="http://www.w3.org/1999/xlink"
   xmlns:sodipodi="http://sodipodi.sourceforge.net/DTD/sodipodi-0.dtd"
   xmlns:inkscape="http://www.inkscape.org/namespaces/inkscape"
   width="1022.0328pt"
   height="740.83002pt"
   viewBox="0 0 1022.0328 740.83002"
   version="1.1"
   id="svg19"
   sodipodi:docname="OzoneTV.svg"
   inkscape:version="0.92.0 r15299">
  <metadata
     id="metadata25">
    <rdf:RDF>
      <cc:Work
         rdf:about="">
        <dc:format>image/svg+xml</dc:format>
        <dc:type
           rdf:resource="http://purl.org/dc/dcmitype/StillImage" />
        <dc:title />
      </cc:Work>
    </rdf:RDF>
  </metadata>
  <defs
     id="defs23">
    <linearGradient
       inkscape:collect="always"
       id="linearGradient4547">
      <stop
         style="stop-color:#44b449;stop-opacity:1"
         offset="0"
         id="stop4543" />
      <stop
         style="stop-color:#288a43;stop-opacity:1"
         offset="1"
         id="stop4545" />
    </linearGradient>
    <linearGradient
       inkscape:collect="always"
       xlink:href="#linearGradient4547"
       id="linearGradient4549"
       x1="203.81275"
       y1="370.415"
       x2="827.18275"
       y2="370.415"
       gradientUnits="userSpaceOnUse" />
    <linearGradient
       inkscape:collect="always"
       xlink:href="#linearGradient4547"
       id="linearGradient4557"
       x1="217.44275"
       y1="315.67999"
       x2="284.87274"
       y2="315.67999"
       gradientUnits="userSpaceOnUse" />
    <linearGradient
       inkscape:collect="always"
       xlink:href="#linearGradient4547"
       id="linearGradient4565"
       x1="104.08275"
       y1="342.995"
       x2="200.7355"
       y2="342.995"
       gradientUnits="userSpaceOnUse" />
    <linearGradient
       inkscape:collect="always"
       xlink:href="#linearGradient4547"
       id="linearGradient4573"
       x1="-2.0174355e-008"
       y1="343.27499"
       x2="96.652756"
       y2="343.27499"
       gradientUnits="userSpaceOnUse" />
    <linearGradient
       inkscape:collect="always"
       xlink:href="#linearGradient4547"
       id="linearGradient4581"
       x1="741.15277"
       y1="315.20999"
       x2="813.61273"
       y2="315.20999"
       gradientUnits="userSpaceOnUse" />
    <linearGradient
       inkscape:collect="always"
       xlink:href="#linearGradient4547"
       id="linearGradient4597"
       x1="830.2948"
       y1="342.97501"
       x2="923.99274"
       y2="342.97501"
       gradientUnits="userSpaceOnUse" />
    <linearGradient
       inkscape:collect="always"
       xlink:href="#linearGradient4547"
       id="linearGradient4605"
       x1="930.07275"
       y1="299.86511"
       x2="1022.0328"
       y2="299.86511"
       gradientUnits="userSpaceOnUse" />
    <linearGradient
       inkscape:collect="always"
       xlink:href="#linearGradient4547"
       id="linearGradient4613"
       x1="931.32275"
       y1="389.35486"
       x2="1007.463"
       y2="389.35486"
       gradientUnits="userSpaceOnUse" />
  </defs>
  <sodipodi:namedview
     pagecolor="#ffffff"
     bordercolor="#666666"
     borderopacity="1"
     objecttolerance="10"
     gridtolerance="10"
     guidetolerance="10"
     inkscape:pageopacity="0"
     inkscape:pageshadow="2"
     inkscape:window-width="1920"
     inkscape:window-height="1017"
     id="namedview21"
     showgrid="false"
     fit-margin-top="0"
     fit-margin-left="0"
     fit-margin-right="0"
     fit-margin-bottom="0"
     inkscape:zoom="0.69140625"
     inkscape:cx="807.09458"
     inkscape:cy="511.92559"
     inkscape:window-x="-8"
     inkscape:window-y="-8"
     inkscape:window-maximized="1"
     inkscape:current-layer="svg19" />
  <path
     sodipodi:nodetypes="ccccccccccccccccccccccccccccccccccccccccccccccccccccccccc"
     style="opacity:1;fill:url(#linearGradient4549);fill-opacity:1"
     inkscape:connector-curvature="0"
     id="path2"
     d="m 515.45275,0 311.73,428.99 -311.41,311.84 -311.96,-311.84 C 308.3207,285.63282 421.76083,129.13714 515.45275,0 m -56.56,264.97 c -13.28,5.04 -25.24,14.1 -32.6,26.37 -9.77,16 -12.29,35.25 -12.06,53.68 0.17,15.73 2.54,31.85 9.9,45.93 6.14,11.97 16.41,21.61 28.52,27.38 17.75,8.63 37.82,10.28 57.26,10.97 -3.57,-1.11 -7.39,-1.53 -10.65,-3.51 -6.16,-3.4 -9.21,-10.29 -10.65,-16.87 -3.18,-14.78 -3.15,-29.98 -3.72,-45.01 -0.21,-23.95 -0.52,-47.97 1.95,-71.81 1.23,-8.94 2.26,-18.4 7.23,-26.17 3.64,-5.71 10.53,-7.77 16.78,-9.1 -17.54,0.07 -35.45,1.84 -51.96,8.14 m 62.33,-7.91 c 9.19,0.98 17.16,7.99 19.65,16.84 3.76,12.29 4.22,25.27 4.87,38.01 0.87,26.32 1.07,52.73 -1.21,78.98 -0.86,8.04 -1.9,16.21 -4.84,23.8 -2.06,5.38 -5.97,10.32 -11.41,12.54 -2.27,1.1 -4.81,1.3 -7.18,2.08 18.23,-0.65 36.9,-2.25 53.83,-9.59 12.81,-5.43 24.03,-14.84 30.87,-27.04 8.88,-15.6 11.27,-33.97 11.05,-51.67 -0.13,-14.98 -2.4,-30.26 -9.04,-43.83 -6.17,-12.82 -16.89,-23.25 -29.7,-29.38 -17.34,-8.55 -36.98,-10.42 -56.02,-11.14 -0.22,0.1 -0.65,0.3 -0.87,0.4 m -180.94,-0.25 -125.13,172.39 59.62,-0.18 125.43,-172.3 -59.92,0.09 m 290.61,-0.04 125.46,172.37 59.58,0.14 -125.09,-172.49 -59.95,-0.02 m 2.74,172.45 c 23.66,-0.11 47.34,0.12 70.99,-0.08 0,-0.07 0.01,-0.22 0.01,-0.3 -10.76,-0.56 -20.9,-5.45 -29.08,-12.27 -12.89,-10.79 -21.71,-25.6 -28.17,-40.92 -5.72143,-13.89597 -9.77598,-28.5135 -11.829,-43.40497 -0.48265,-3.35226 -1.08224,-7.35461 -1.981,-18.22503 l 0.06,115.2 M 395.62241,331.61795 c -1.89681,14.12877 -5.61125,28.0165 -10.79966,41.29205 -6.1,15.24 -14.4,29.98 -26.51,41.25 -8.72,8.18 -19.94,14.12973 -31.98,15.01973 h 71.05 l 0.2,-114.23973 c -0.60612,6.44149 -1.30499,11.74176 -1.96034,16.67795 z" />
  <path
     style="opacity:1;fill:url(#linearGradient4565);fill-opacity:1.0"
     inkscape:connector-curvature="0"
     id="path6"
     d="m 104.23275,256.73 c 19.42,0.26 39.46,2.3 57.21,10.77 13.07,6.12 24.05,16.7 30.29,29.76 8.35,17.21 9.72,36.85 8.72,55.69 -1.14,17.71 -5.89,36.04 -17.81,49.67 -10.38,12.12 -25.45,19.18 -40.8,22.63 -12.37,2.82 -25.1,3.82 -37.76,4.01 4.6,-0.92 9.51,-1.82 13.03,-5.21 5.88,-5.05 7.94,-12.94 9.42,-20.23 2.53,-13.78 3.03,-27.84 3.35,-41.82 0.55,-18.37 0.24,-36.75 -0.53,-55.1 -0.76,-11.28 -1.34,-22.77 -4.87,-33.59 -2.46,-7.91 -9.35,-14.39 -17.58,-15.83 -0.88,-0.27 -1.92,-0.15 -2.67,-0.75 z" />
  <path
     style="opacity:1;fill:url(#linearGradient4581);fill-opacity:1.0"
     inkscape:connector-curvature="0"
     id="path8"
     d="m 741.15275,256.57 c 24.11,0.27 48.26,0.11 72.39,0.15 -0.01,39.04 -0.08,78.11 0.07,117.13 -1.02,-7.93 -1.1,-15.95 -2.48,-23.83 -3.63,-21.13 -10.42,-41.98 -21.91,-60.19 -8.45,-13.27 -20.12,-25.42 -35.34,-30.55 -4.11,-1.55 -8.53,-1.64 -12.73,-2.71 z" />
  <path
     style="opacity:1;fill:url(#linearGradient4597);fill-opacity:1.0"
     inkscape:connector-curvature="0"
     id="path10"
     d="m 885.99275,260.89 c 12.4,-3.07 25.23,-3.95 37.96,-4.25 -6.39,1.31 -13.08,3.72 -17.07,9.2 -4.6,6.58 -5.91,14.75 -7.15,22.51 -2.91,22.41 -2.55,45.06 -2.49,67.61 0.29,16.32 0.5,32.77 3.47,48.87 1.42,7.41 4.07,15.41 10.75,19.71 3.64,2.8 8.19,3.66 12.53,4.77 -18.99,-0.53 -38.63,-2 -56,-10.39 -12.37,-5.88 -22.64,-16.01 -28.53,-28.38 -8.26,-17.11 -9.72,-36.59 -9.01,-55.31 0.83,-18.08 4.97,-36.91 16.58,-51.28 9.65,-12.14 24.09,-19.5 38.96,-23.06 z" />
  <path
     sodipodi:nodetypes="cccccccccc"
     style="opacity:1;fill:url(#linearGradient4605);fill-opacity:1.0"
     inkscape:connector-curvature="0"
     id="path12"
     d="m 930.07275,256.7 c 18.19,0.26 36.89,2.55 53.38,10.72 11.62,5.69 21.54005,14.87 27.77005,26.24 7.91,14.15 10.44,30.57 10.81,46.58 v 2.79024 h -90.66005 c 7.03,-0.75 15.24,-1.81024 20.03,-7.71024 4.35,-5.46 3.33,-12.83 3.3,-19.32 -0.56,-15.14 -1.7,-30.76 -7.92,-44.78 -3.03,-7.05 -8.89,-13.2 -16.71,-14.52 z" />
  <path
     style="opacity:1;fill:url(#linearGradient4557);fill-opacity:1.0"
     inkscape:connector-curvature="0"
     id="path14"
     d="m 217.48275,262 c 0,-1.8 -0.15,-3.6 0.19,-5.37 22.29,0.05 44.6,0.33 66.88,-0.12 0.08,0.22 0.24,0.67 0.32,0.89 -14.89,2.24 -27.51,11.96 -36.65,23.5 -12.62,16 -20.38,35.32 -25.31,54.96 -3.45,12.73 -4.33,25.91 -5.47,38.99 0.05,-37.59 0.05,-75.23 0.04,-112.85 z" />
  <path
     sodipodi:nodetypes="ccccccc"
     style="opacity:1;fill:url(#linearGradient4613);fill-opacity:1.0"
     inkscape:connector-curvature="0"
     id="path16"
     d="m 1005.7828,364.52 c 0.88,-5.12 1.2755,-9.76473 1.6802,-15.44 v 80.54973 h -76.14025 c 3.47162,-0.67015 6.64058,-1.02191 9.82534,-1.45885 13.59199,-1.64489 26.79864,-6.94895 37.45466,-15.59088 14.77,-11.81 23.89005,-29.63 27.18005,-48.06 z" />
  <path
     style="opacity:1;fill:url(#linearGradient4573);stroke-width:1;fill-opacity:1.0"
     inkscape:connector-curvature="0"
     id="path6-3"
     d="m 96.502754,429.54 c -19.420002,-0.26 -39.460002,-2.3 -57.210002,-10.77 -13.07,-6.12 -24.049998,-16.7 -30.2899981,-29.76 -8.3500054,-17.21 -9.7200004,-36.85 -8.7200024,-55.69 1.14,-17.71 5.889997,-36.04001 17.8100015,-49.67 10.379999,-12.12 25.449999,-19.18 40.799999,-22.63 12.370001,-2.82 25.100002,-3.82 37.760002,-4.01 -4.600001,0.92 -9.510001,1.82 -13.03,5.21 -5.880002,5.05 -7.940001,12.94 -9.420002,20.23 -2.529999,13.77999 -3.029999,27.84 -3.35,41.82 -0.549999,18.37 -0.24,36.75 0.530001,55.1 0.759999,11.28 1.34,22.77 4.87,33.59 2.46,7.91 9.350001,14.39 17.580001,15.83 0.88,0.27 1.92,0.15 2.67,0.75 z" />
</svg>
