<svg height="72.945747pt" viewBox="0 0 695.26965 72.945747" width="695.26965pt" xmlns="http://www.w3.org/2000/svg"><g fill="#fff"><path d="m677.16987 34.968675c4.74-.98 9.09978-3.520252 12.19978-7.270252 1.88-.04 4.00997.07 5.89997 0v44.060249l-10.52025.000003v-31.179752h-7.5795z"/><g transform="translate(-60.610353 -23.991325)"><path d="m568.28023 24.820249h25.20975v24.829499h27.41025v-24.829499h25.7295v70.909498h-25.7295v-28.279499h-27.41025v28.279499h-25.20975z" fill="#fff"/><path d="m654.23 24.92c15.61.05 31.26-.61 46.84.6 10.61.88 20.74 7.21 25.21 17.02 3.67 8.95 4.27 18.97 2.66 28.44-1.42 9.12-7.95 16.94-16.09 20.97-6.23 2.71-13.1 3.67-19.84 3.81-12.92.06-25.85977-.140253-38.77977-.03025l.00977-43.71975-.01-27.189751m25.35 15.919751v38.98c4.9086 0 10.28617.124541 15.20086-.842184 1.19286-.162407 2.18099-.542338 3.14502-1.087064 3.14195-1.943356 4.92152-5.391731 5.59382-9.016014.45513-3.778852.46999-7.860319.40733-11.334764-.0998-4.785945-.89868-9.504955-4.63703-12.819974-5.51-4.35-12.69896-3.88-19.71-3.88z" fill="#fff"/></g><g transform="matrix(8.9186633 0 0 -8.9186633 -2806.4608 1194.0271)"><path d="m348.9106 127.0746c.868 0 1.967.541 1.967 2.715 0 2.175-1.099 2.716-1.967 2.716-.867 0-1.918-.566-1.918-2.74 0-2.175 1.051-2.691 1.918-2.691m0 6.805c1.018 0 3.573-.444 3.573-4.09s-2.555-4.089-3.573-4.089c-1.017 0-3.524.419-3.524 4.065 0 3.645 2.507 4.114 3.524 4.114"/><path d="m359.064 128.6583c0-2.045-1.221-2.921-3.16-2.921-.706 0-1.756.173-2.441.941-.418.477-.579 1.104-.6 1.883v5.149h1.639v-5.041c0-1.082.621-1.558 1.371-1.558 1.103 0 1.552.541 1.552 1.482v5.117h1.639z"/><path d="m361.0179 128.3707c.011-.433.176-1.222 1.458-1.206.76.01 1.477.172 1.582.957.091.689-.554.768-1.368.963l-.825.195c-1.096.341-2.247.548-2.247 2.258 0 .865.534 2.292 3.029 2.292 2.356 0 3.158-1.484 3.047-2.51h-1.542c-.043.347-.269 1.119-1.672 1.119-.513 0-1.143-.276-1.192-.782-.058-.603.273-.687.449-.787l1.874-.465c1.049-.26 2.087-.717 2.087-2.113 0-2.336-2.43-2.527-3.105-2.517-2.7.038-3.166 1.357-3.117 2.596z"/><path d="m370.9448 132.3366h-3.204v-1.634h2.97v-1.374h-2.97v-2.012h3.167v-1.374h-4.815v7.768h4.852z"/><path d="m340.5045 125.8691h-1.643v7.843h1.643v-3.036h2.848v3.036h1.631v-7.843h-1.643v3.43h-2.824z"/><path d="m338.4166 132.1378v1.561h-5.927v-1.561h2.142v-6.282h1.546v6.282z"/><path d="m332.0646 125.8559v7.843h-1.631v-4.61l-2.836 4.61h-1.545v-7.843h1.631v4.61l2.86-4.61z"/><path d="m325.5999 132.3233h-3.204v-1.634h2.969v-1.373h-2.969v-2.013h3.24v-1.447h-4.888v7.841h4.852z"/><path d="m317.7678 129.8764c.984 0 1.005.906 1.005 1.285 0 .672-.284 1.071-1.219 1.071h-1.36v-2.356zm-1.562-4.02h-1.533v7.841h3.513c1.488 0 2.217-1.123 2.193-2.611-.011-.703-.191-2.477-2.258-2.477h-1.915z"/></g></g><g fill="#dedcdc" transform="translate(-60.61047 -23.991081)"><path d="m676.89258-54.109375v49.7597656h33.61328v-37.7050786h36.54687v37.7050786h34.30665v-49.7597656z" fill="#dedcdc" stroke-width="1.333333" transform="matrix(.75000001 0 0 .75000001 60.61047 98.991227)"/><path d="m791.50391-54.109375-.0117 49.7597656c17.22666-.1466706 34.48036.1210156 51.70703.041016 8.98667-.1866666 18.14646-1.4667448 26.45312-5.0800781 10.85334-5.3733331 19.5598-15.7989841 21.45313-27.9589841.93634-5.50755 1.31131-11.154378 1.03125-16.761719h-34.36914c.0557 4.340676-.002 9.233311-.55469 13.820313-.8964 4.832377-3.26972 9.430343-7.45898 12.021484-1.28538.726301-2.60288 1.232676-4.19336 1.449219-6.55292 1.288966-13.72278 1.123047-20.26758 1.123047v-28.414063z" fill="#dedcdc" stroke-width="1.333333" transform="matrix(.75000001 0 0 .75000001 60.61047 98.991227)"/></g></svg>