<?xml version="1.0" encoding="UTF-8" standalone="no"?>
<svg
   xmlns:dc="http://purl.org/dc/elements/1.1/"
   xmlns:cc="http://creativecommons.org/ns#"
   xmlns:rdf="http://www.w3.org/1999/02/22-rdf-syntax-ns#"
   xmlns:svg="http://www.w3.org/2000/svg"
   xmlns="http://www.w3.org/2000/svg"
   xmlns:sodipodi="http://sodipodi.sourceforge.net/DTD/sodipodi-0.dtd"
   xmlns:inkscape="http://www.inkscape.org/namespaces/inkscape"
   width="695.26965pt"
   height="72.945747pt"
   viewBox="0 0 695.26965 72.945747"
   version="1.1"
   id="svg37"
   sodipodi:docname="Penthouse HD 1.svg"
   inkscape:version="0.92.0 r15299">
  <metadata
     id="metadata43">
    <rdf:RDF>
      <cc:Work
         rdf:about="">
        <dc:format>image/svg+xml</dc:format>
        <dc:type
           rdf:resource="http://purl.org/dc/dcmitype/StillImage" />
        <dc:title></dc:title>
      </cc:Work>
    </rdf:RDF>
  </metadata>
  <defs
     id="defs41" />
  <sodipodi:namedview
     pagecolor="#ffffff"
     bordercolor="#666666"
     borderopacity="1"
     objecttolerance="10"
     gridtolerance="10"
     guidetolerance="10"
     inkscape:pageopacity="0"
     inkscape:pageshadow="2"
     inkscape:window-width="1920"
     inkscape:window-height="1017"
     id="namedview39"
     showgrid="false"
     fit-margin-top="0"
     fit-margin-left="0"
     fit-margin-right="0"
     fit-margin-bottom="0"
     inkscape:zoom="1.0867347"
     inkscape:cx="496.00163"
     inkscape:cy="-18.885755"
     inkscape:window-x="-8"
     inkscape:window-y="-8"
     inkscape:window-maximized="1"
     inkscape:current-layer="svg37" />
  <path
     style="opacity:1;fill:#ffffff;fill-opacity:1"
     inkscape:connector-curvature="0"
     id="path29"
     d="m 677.16987,34.968675 c 4.74,-0.98 9.09978,-3.520252 12.19978,-7.270252 1.88,-0.04 4.00997,0.07 5.89997,0 v 44.060249 l -10.52025,3e-6 V 40.578923 h -7.5795 z"
     sodipodi:nodetypes="cccccccc" />
  <g
     id="#878585ff"
     transform="translate(-60.610353,-23.991325)"
     style="fill:#ffffff;fill-opacity:1">
    <path
       d="m 568.28023,24.820249 h 25.20975 v 24.829499 h 27.41025 V 24.820249 h 25.7295 v 70.909498 h -25.7295 V 67.450248 h -27.41025 v 28.279499 h -25.20975 z"
       id="path32"
       inkscape:connector-curvature="0"
       style="opacity:1;fill:#ffffff;fill-opacity:1"
       sodipodi:nodetypes="ccccccccccccc" />
    <path
       d="m 654.23,24.92 c 15.61,0.05 31.26,-0.61 46.84,0.6 10.61,0.88 20.74,7.21 25.21,17.02 3.67,8.95 4.27,18.97 2.66,28.44 -1.42,9.12 -7.95,16.94 -16.09,20.97 -6.23,2.71 -13.1,3.67 -19.84,3.81 -12.92,0.06 -25.85977,-0.140253 -38.77977,-0.03025 L 654.24,52.01 654.23,24.820249 M 679.58,40.74 v 38.98 c 4.9086,0 10.28617,0.124541 15.20086,-0.842184 1.19286,-0.162407 2.18099,-0.542338 3.14502,-1.087064 3.14195,-1.943356 4.92152,-5.391731 5.59382,-9.016014 0.45513,-3.778852 0.46999,-7.860319 0.40733,-11.334764 C 703.82723,52.654029 703.02835,47.935019 699.29,44.62 693.78,40.27 686.59104,40.74 679.58,40.74 Z"
       id="path34"
       inkscape:connector-curvature="0"
       style="opacity:1;fill:#ffffff;fill-opacity:1"
       sodipodi:nodetypes="ccccccccccccccccc" />
  </g>
  <g
     transform="matrix(8.9186633,0,0,-8.9186633,-2806.4608,1194.0271)"
     id="g836"
     style="fill:#ffffff;fill-opacity:1">
    <path
       d="m 348.9106,127.0746 c 0.868,0 1.967,0.541 1.967,2.715 0,2.175 -1.099,2.716 -1.967,2.716 -0.867,0 -1.918,-0.566 -1.918,-2.74 0,-2.175 1.051,-2.691 1.918,-2.691 m 0,6.805 c 1.018,0 3.573,-0.444 3.573,-4.09 0,-3.646 -2.555,-4.089 -3.573,-4.089 -1.017,0 -3.524,0.419 -3.524,4.065 0,3.645 2.507,4.114 3.524,4.114"
       style="fill:#ffffff;fill-opacity:1;fill-rule:nonzero;stroke:none"
       id="path134318"
       inkscape:connector-curvature="0" />
    <path
       d="m 359.064,128.6583 c 0,-2.045 -1.221,-2.921 -3.16,-2.921 -0.706,0 -1.756,0.173 -2.441,0.941 -0.418,0.477 -0.579,1.104 -0.6,1.883 v 5.149 h 1.639 v -5.041 c 0,-1.082 0.621,-1.558 1.371,-1.558 1.103,0 1.552,0.541 1.552,1.482 v 5.117 h 1.639 z"
       style="fill:#ffffff;fill-opacity:1;fill-rule:nonzero;stroke:none"
       id="path134320"
       inkscape:connector-curvature="0" />
    <path
       d="m 361.0179,128.3707 c 0.011,-0.433 0.176,-1.222 1.458,-1.206 0.76,0.01 1.477,0.172 1.582,0.957 0.091,0.689 -0.554,0.768 -1.368,0.963 l -0.825,0.195 c -1.096,0.341 -2.247,0.548 -2.247,2.258 0,0.865 0.534,2.292 3.029,2.292 2.356,0 3.158,-1.484 3.047,-2.51 h -1.542 c -0.043,0.347 -0.269,1.119 -1.672,1.119 -0.513,0 -1.143,-0.276 -1.192,-0.782 -0.058,-0.603 0.273,-0.687 0.449,-0.787 l 1.874,-0.465 c 1.049,-0.26 2.087,-0.717 2.087,-2.113 0,-2.336 -2.43,-2.527 -3.105,-2.517 -2.7,0.038 -3.166,1.357 -3.117,2.596 z"
       style="fill:#ffffff;fill-opacity:1;fill-rule:nonzero;stroke:none"
       id="path134322"
       inkscape:connector-curvature="0" />
    <path
       d="m 370.9448,132.3366 h -3.204 v -1.634 h 2.97 v -1.374 h -2.97 v -2.012 h 3.167 v -1.374 h -4.815 v 7.768 h 4.852 z"
       style="fill:#ffffff;fill-opacity:1;fill-rule:nonzero;stroke:none"
       id="path134324"
       inkscape:connector-curvature="0" />
    <path
       d="m 340.5045,125.8691 h -1.643 v 7.843 h 1.643 v -3.036 h 2.848 v 3.036 h 1.631 v -7.843 h -1.643 v 3.43 h -2.824 z"
       style="fill:#ffffff;fill-opacity:1;fill-rule:nonzero;stroke:none"
       id="path134326"
       inkscape:connector-curvature="0" />
    <path
       d="m 338.4166,132.1378 v 1.561 h -5.927 v -1.561 h 2.142 v -6.282 h 1.546 v 6.282 z"
       style="fill:#ffffff;fill-opacity:1;fill-rule:nonzero;stroke:none"
       id="path134328"
       inkscape:connector-curvature="0" />
    <path
       d="m 332.0646,125.8559 v 7.843 h -1.631 v -4.61 l -2.836,4.61 h -1.545 v -7.843 h 1.631 v 4.61 l 2.86,-4.61 z"
       style="fill:#ffffff;fill-opacity:1;fill-rule:nonzero;stroke:none"
       id="path134330"
       inkscape:connector-curvature="0" />
    <path
       d="m 325.5999,132.3233 h -3.204 v -1.634 h 2.969 v -1.373 h -2.969 v -2.013 h 3.24 v -1.447 h -4.888 v 7.841 h 4.852 z"
       style="fill:#ffffff;fill-opacity:1;fill-rule:nonzero;stroke:none"
       id="path134332"
       inkscape:connector-curvature="0" />
    <path
       d="m 317.7678,129.8764 c 0.984,0 1.005,0.906 1.005,1.285 0,0.672 -0.284,1.071 -1.219,1.071 h -1.36 v -2.356 z m -1.562,-4.02 h -1.533 v 7.841 h 3.513 c 1.488,0 2.217,-1.123 2.193,-2.611 -0.011,-0.703 -0.191,-2.477 -2.258,-2.477 h -1.915 z"
       style="fill:#ffffff;fill-opacity:1;fill-rule:nonzero;stroke:none"
       id="path134334"
       inkscape:connector-curvature="0" />
  </g>
  <g
     id="#878585ff-8"
     transform="translate(-60.61047,-23.991081)"
     style="fill:#dedcdc;fill-opacity:1">
    <path
       style="opacity:1;fill:#dedcdc;fill-opacity:1;stroke-width:1.33333325"
       d="m 676.89258,-54.109375 v 49.7597656 h 33.61328 V -42.054688 h 36.54687 v 37.7050786 h 34.30665 V -54.109375 Z"
       transform="matrix(0.75000001,0,0,0.75000001,60.61047,98.991227)"
       id="path32-2"
       inkscape:connector-curvature="0" />
    <path
       style="opacity:1;fill:#dedcdc;fill-opacity:1;stroke-width:1.33333325"
       d="m 791.50391,-54.109375 -0.0117,49.7597656 c 17.22666,-0.1466706 34.48036,0.1210156 51.70703,0.041016 8.98667,-0.1866666 18.14646,-1.4667448 26.45312,-5.0800781 10.85334,-5.3733331 19.5598,-15.7989841 21.45313,-27.9589841 0.93634,-5.50755 1.31131,-11.154378 1.03125,-16.761719 h -34.36914 c 0.0557,4.340676 -0.002,9.233311 -0.55469,13.820313 -0.8964,4.832377 -3.26972,9.430343 -7.45898,12.021484 -1.28538,0.726301 -2.60288,1.232676 -4.19336,1.449219 -6.55292,1.288966 -13.72278,1.123047 -20.26758,1.123047 v -28.414063 z"
       transform="matrix(0.75000001,0,0,0.75000001,60.61047,98.991227)"
       id="path34-9"
       inkscape:connector-curvature="0" />
  </g>
</svg>
