<?xml version="1.0" encoding="UTF-8"?>
<svg id="svg16" width="600pt" height="83.211pt" version="1.1" viewBox="0 0 600 83.211" xmlns="http://www.w3.org/2000/svg" xmlns:cc="http://creativecommons.org/ns#" xmlns:dc="http://purl.org/dc/elements/1.1/" xmlns:rdf="http://www.w3.org/1999/02/22-rdf-syntax-ns#">
 <metadata id="metadata22">
  <rdf:RDF>
   <cc:Work rdf:about="">
    <dc:format>image/svg+xml</dc:format>
    <dc:type rdf:resource="http://purl.org/dc/dcmitype/StillImage"/>
    <dc:title/>
   </cc:Work>
  </rdf:RDF>
 </metadata>
 <g id="g939" transform="matrix(1.3374 0 0 1.3374 -33.515 -24.593)" fill="#47ffac">
  <path id="path2" d="m42.98 18.39c-9.32 0.09-17.789 8.2404-17.919 17.61v44.61l305.96-1.53e-4c17.81-0.06997 34.69-12.209 40.78-28.889 4.24-10.61 2.5106-22.201 2.9106-33.331zm59.887 8.3115c0.0996 0.0042 0.19925 0.0091 0.29883 0.01465 0.32539 0.0084 0.64988 0.02569 0.97412 0.04981 8.7176 0.5157 16.289 6.1841 19.247 14.41 0.12652 0.34642 0.24304 0.69755 0.3501 1.0518 0.11588 0.38908 0.2209 0.78133 0.31494 1.1763 0.0397 0.16945 0.0791 0.33882 0.11426 0.50976 0.32127 1.4474 0.49453 2.9237 0.51709 4.4062 5.6e-4 0.02 7.5e-4 0.04006 2e-3 0.06006l6e-3 0.16992c-3e-3 0.04737-5e-3 0.09474-8e-3 0.14209 0.018 2.0786-0.30122 4.1315-0.91113 6.0967-0.092 0.29256-0.19019 0.58316-0.29444 0.87158-0.0551 0.1538-0.10983 0.30742-0.16845 0.45996-1.7435 4.7136-5.0571 8.6812-9.3823 11.234-0.31463 0.19156-0.6342 0.37423-0.95801 0.54932-0.09 0.04996-0.18031 0.09927-0.27099 0.14795-2.4158 1.2613-5.0697 2.0543-7.8398 2.2368-0.66158 0.06647-1.3258 0.10264-1.9907 0.1084-0.0415-0.0018-0.083-0.0037-0.12451-0.0058-11.259 0.23017-21.669-9.6208-21.669-20.966-0.01608-0.29127-0.02633-0.58283-0.03075-0.87451 0.0027-0.05812 0.0056-0.11622 0.0088-0.17432-0.07425-3.5069 0.84998-6.9139 2.4932-9.9492 0.19259-0.36159 0.39531-0.71769 0.6079-1.0679 0.04005-0.06502 0.0794-0.1302 0.12012-0.19482 2.9968-4.902 7.8024-8.4245 13.375-9.8042 0.47494-0.12805 0.9511-0.23244 1.4297-0.32227 0.05953-0.01001 0.1191-0.01978 0.17871-0.0293 1.1422-0.20308 2.291-0.3029 3.4365-0.30029 0.0581-0.0022 0.1162-0.0041 0.17431-0.0058zm-53.476 0.0835h14.377c3.1437 0.05244 6.2286 0.45225 8.9912 2.146 8.76 4.76 8.13 19.909-1.27 23.609-3.0274 1.1179-6.1593 1.5601-9.3384 1.5601h-15.946v16.235h-10.9c0.08-10.12-0.04-20.244 0-30.354-0.07-4.81 2.7742-9.4294 7.0342-11.629 2.1907-1.2346 4.5989-1.531 7.0518-1.5659zm78.394 0.04102h10.884v27.434l10.951-10.919 10.869 10.919v-27.434h10.92v43.509h-10.17l-11.619-11.714-11.83 11.714h-10.005zm46.685 0h43.649v10.879h-32.729v5.54h12.234v10.83h-12.234v5.4697h32.729v10.79h-43.649zm46.77 0h29.741c5.16 0.02 10.629 2.725 12.709 7.645 2.3 5.49 1.3408 12.589-3.4292 16.479 3.92 5.64 5.0199 12.654 4.6099 19.384h-10.931c0.27-4.52 0.70095-9.9547-3.019-13.285-2.7625-2.6041-6.2478-2.9502-9.8555-2.9502h-8.9107c0.02 5.41-0.01 10.815 0 16.235h-10.914c0.08-14.5-0.03-29.009 0-43.509zm58.515 1.9292h40.436v9.9258h-15.3v30.185h-9.8994v-30.185h-15.236zm43.135 0h10.225v30.145c7.44 0.09 14.226-4.6394 17.606-11.109 3.1088-5.0864 2.4902-12.761 2.4902-19.036 3.37-0.01 6.7389-0.01 10.109 0 0 4.7785 0.25687 10.124-0.50977 14.325-2.04 12.49-12.549 22.98-24.939 25.32-1.7552 0.2943-3.5214 0.45996-5.2939 0.45996h-9.687z"/>
  <path id="path4" d="m46.205 37.73h19.855c2.83 0.37 2.73 5.0005 0.03 5.5005h-19.885z"/>
  <path id="path843" d="m113.84 48.594a11.01 10.958 0 0 1-11.01 10.957 11.01 10.958 0 0 1-11.01-10.957 11.01 10.958 0 0 1 11.01-10.958 11.01 10.958 0 0 1 11.01 10.958z" style="paint-order:stroke fill markers"/>
  <path id="path4-3" d="m232.15 37.726h19.855c2.83 0.37 2.73 5.0005 0.03 5.5005h-19.885z"/>
 </g>
 <g id="g851" transform="matrix(1.3362 0 0 1.3362 -33.246 -24.529)" fill="#b473d4">
  <path id="path5" d="m382.39 18.358h91.54v22.722c0 4.3165-1.0409 6.8189-2.1932 10.035-5.9909 16.719-22.755 29.402-40.737 29.52h-76.47c11.91-5.58 21.52-16.104 25.52-28.694 1.68-4.8341 2.3398-9.8309 2.3398-14.884v-18.698m9.4852 15.972v30.56h7.74v-11.435h15.45v11.435h7.63v-30.56h-7.63v11.475h-15.45v-11.475h-7.74m33.01 0v30.56c5.055 0.01623 10.11 0.0074 15.165 0 4.84-0.09 9.91-1.9902 12.88-5.9602 5.05-7.13 3.26-18.98-5.12-22.78-3.3694-1.5183-6.9441-1.82-10.575-1.82h-12.35z"/>
  <path id="path13" d="m432.6 41.89h5.4568c2.5855 0 5.132 0.24363 7.3182 1.74 3.98 3.07 3.56 10.4-1.07 12.67-1.9263 0.93413-3.996 1.07-6.0931 1.07h-5.6119z"/>
 </g>
</svg>
