<?xml version="1.0" encoding="UTF-8"?>
<svg id="svg29" width="1969.5pt" height="356.82pt" version="1.1" viewBox="0 0 1969.5 356.82" xmlns="http://www.w3.org/2000/svg" xmlns:cc="http://creativecommons.org/ns#" xmlns:dc="http://purl.org/dc/elements/1.1/" xmlns:rdf="http://www.w3.org/1999/02/22-rdf-syntax-ns#">
 <metadata id="metadata35">
  <rdf:RDF>
   <cc:Work rdf:about="">
    <dc:format>image/svg+xml</dc:format>
    <dc:type rdf:resource="http://purl.org/dc/dcmitype/StillImage"/>
    <dc:title/>
   </cc:Work>
  </rdf:RDF>
 </metadata>
 <path id="path13-5" d="m1118.2 342.59 159.48-342.58 153.63 342.61h-53.37l-33.77-78.02-137.38 0.02-36.15 77.99-52.44-0.02m158.43-232.66-49.43 108.48h97z" fill="#fff"/>
 <path id="path13" d="m527.72 342.58 159.48-342.58 153.63 342.61h-53.37l-33.77-78.02-137.38 0.02-36.15 77.99-52.44-0.02m158.43-232.66-49.43 108.48h97z" fill="#fff"/>
 <path id="path17" d="m864.48 19.88h49c0.03 42.18-0.02 84.37 0.02 126.55 46.09-0.06 92.17 0.02 138.26-0.04-0.03-42.17 0.01-84.34-0.02-126.51h48.96c0.01 107.58 0.01 215.15 0 322.73-16.32 0-32.63-0.03-48.94 0.02-0.02-50.01-0.01-100.01-0.01-150.02-46.1-0.01-92.19-0.02-138.29 0.01 0.04 49.99 0.04 99.99 0 149.98-16.32 0.01-32.64 0-48.96 0.01-0.04-107.58-0.01-215.15-0.02-322.73z" fill="#fff"/>
 <path id="path19" d="m0.04 20.42c35.82-0.02 71.64-0.01 107.45-0.01 19.71 0.37 39.63 0.14 58.99 4.39 16.76 3.65 32.59 12.15 44.29 24.78 13.76 14.82 22.3 34.19 24.85 54.18 2.99 22.68-2.36 46.33-14.71 65.56-10.69 16.47-27.15 28.96-45.71 35.27-16.87 5.96-34.93 7.57-52.71 7.29-24.51 0.01-49.03-0.03-73.54 0.02l0.02 130.67-48.97 0.02 0.04-322.17m48.9 146.43c27.18-0.07 54.37 0.3 81.55-0.23 14.69-0.58 30.42-2.89 42.1-12.59 21.42-18.33 22.73-55.77 1.48-74.76-13.38-11.37-31.8-13.17-48.66-13.62-25.48-0.1-50.97 0-76.45-0.05z" fill="#fff"/>
 <path id="path21" d="m263.49 20.42c37.33 0 74.66-0.07 112 0.03 25.09 0.32 51.27 1.09 74.31 12.23 15.62 7.34 28.83 19.56 37.33 34.58 19.35 32.79 16.93 77.45-7.19 107.18-8.77 10.82-20.12 19.45-32.81 25.17 21.36 47.67 42.74 95.33 64.13 142.98-17.8 0.04-35.61-0.01-53.41 0.02-19.11-44.09-38.06-88.26-57.23-132.32-6.7 0.58-13.42 0.84-20.13 0.61-22.67-0.05-45.34 0-68.02-0.02v131.73h-48.98v-322.19m49 46.17-0.01 101.59c25.65-0.09 51.3 0.02 76.96-0.05 12.01-0.43 24.31-1.8 35.39-6.79 24.56-10.91 34.81-44 22.45-67.46-5.46-11.26-16.14-19.26-27.9-23.03-12.2-3.97-25.21-4.35-37.94-4.24-22.98-0.01-45.97 0.03-68.95-0.02z" fill="#fff"/>
 <g id="#e31c33ff" transform="translate(-72.52,-32.12)" fill="#e31c33">
  <path id="path24" d="m1464.5 52.45h341.04l81.33 188.97 88.72-188.97 66.44 0.07025-155.16 336.42-126.96-282.53-118.4 0.02-0.47 269.23-61.49-0.14-0.18-269.74-114.87 0.03z"/>
  <path id="path26" d="m1464.7 53.44c1.41 8.44 0.42 17.03 0.69 25.55-0.28 8.82 0.71 17.72-0.65 26.49-0.65-10.14-0.13-20.3-0.28-30.45 0.09-7.2-0.27-14.41 0.24-21.59z"/>
 </g>
</svg>
