<?xml version="1.0" encoding="UTF-8" standalone="no"?>
<svg
   xmlns:dc="http://purl.org/dc/elements/1.1/"
   xmlns:cc="http://creativecommons.org/ns#"
   xmlns:rdf="http://www.w3.org/1999/02/22-rdf-syntax-ns#"
   xmlns:svg="http://www.w3.org/2000/svg"
   xmlns="http://www.w3.org/2000/svg"
   xmlns:sodipodi="http://sodipodi.sourceforge.net/DTD/sodipodi-0.dtd"
   xmlns:inkscape="http://www.inkscape.org/namespaces/inkscape"
   width="1969.52pt"
   height="356.82001pt"
   viewBox="0 0 1969.52 356.82001"
   version="1.1"
   id="svg29"
   sodipodi:docname="Praha TV.svg"
   inkscape:version="0.92.0 r15299">
  <metadata
     id="metadata35">
    <rdf:RDF>
      <cc:Work
         rdf:about="">
        <dc:format>image/svg+xml</dc:format>
        <dc:type
           rdf:resource="http://purl.org/dc/dcmitype/StillImage" />
        <dc:title></dc:title>
      </cc:Work>
    </rdf:RDF>
  </metadata>
  <defs
     id="defs33" />
  <sodipodi:namedview
     pagecolor="#ffffff"
     bordercolor="#666666"
     borderopacity="1"
     objecttolerance="10"
     gridtolerance="10"
     guidetolerance="10"
     inkscape:pageopacity="0"
     inkscape:pageshadow="2"
     inkscape:window-width="1920"
     inkscape:window-height="1017"
     id="namedview31"
     showgrid="false"
     fit-margin-top="0"
     fit-margin-left="0"
     fit-margin-right="0"
     fit-margin-bottom="0"
     inkscape:zoom="0.28484869"
     inkscape:cx="1860.9738"
     inkscape:cy="245.85085"
     inkscape:window-x="-8"
     inkscape:window-y="-8"
     inkscape:window-maximized="1"
     inkscape:current-layer="svg29" />
  <path
     sodipodi:nodetypes="cccccccccccc"
     inkscape:connector-curvature="0"
     style="opacity:1;fill:#ffffff;fill-opacity:1;stroke-width:0.99999994"
     id="path13-5"
     d="M 1118.16,342.59 1277.64,0.01001 1431.27,342.62 h -53.37 l -33.77,-78.02 -137.38,0.02 -36.15,77.99 -52.44,-0.02 M 1276.59,109.93001 1227.16,218.41 h 97 z" />
  <path
     sodipodi:nodetypes="cccccccccccc"
     inkscape:connector-curvature="0"
     style="opacity:1;fill:#ffffff;fill-opacity:1"
     id="path13"
     d="M 527.72,342.58 687.2,0 840.83,342.61 h -53.37 l -33.77,-78.02 -137.38,0.02 -36.15,77.99 -52.44,-0.02 M 686.15,109.92 636.72,218.4 h 97 z" />
  <path
     inkscape:connector-curvature="0"
     style="opacity:1;fill:#ffffff;fill-opacity:1"
     id="path17"
     d="m 864.48,19.88 c 16.33,0 32.66,0 49,0 0.03,42.18 -0.02,84.37 0.02,126.55 46.09,-0.06 92.17,0.02 138.26,-0.04 -0.03,-42.17 0.01,-84.34 -0.02,-126.51 16.32,0 32.64,0 48.96,0 0.01,107.58 0.01,215.15 0,322.73 -16.32,0 -32.63,-0.03 -48.94,0.02 -0.02,-50.01 -0.01,-100.01 -0.01,-150.02 -46.1,-0.01 -92.19,-0.02 -138.29,0.01 0.04,49.99 0.04,99.99 0,149.98 -16.32,0.01 -32.64,0 -48.96,0.01 -0.04,-107.58 -0.01,-215.15 -0.02,-322.73 z" />
  <path
     inkscape:connector-curvature="0"
     style="opacity:1;fill:#ffffff;fill-opacity:1"
     id="path19"
     d="m 0.04,20.42 c 35.82,-0.02 71.64,-0.01 107.45,-0.01 19.71,0.37 39.63,0.14 58.99,4.39 16.76,3.65 32.59,12.15 44.29,24.78 13.76,14.82 22.3,34.19 24.85,54.18 2.99,22.68 -2.36,46.33 -14.71,65.56 -10.69,16.47 -27.15,28.96 -45.71,35.27 -16.87,5.96 -34.93,7.57 -52.71,7.29 -24.51,0.01 -49.03,-0.03 -73.54,0.02 L 48.97,342.57 0,342.59 0.04,20.42 m 48.9,146.43 c 27.18,-0.07 54.37,0.3 81.55,-0.23 14.69,-0.58 30.42,-2.89 42.1,-12.59 21.42,-18.33 22.73,-55.77 1.48,-74.76 C 160.69,67.9 142.27,66.1 125.41,65.65 99.93,65.55 74.44,65.65 48.96,65.6 Z"
     sodipodi:nodetypes="ccccccccccccccccccc" />
  <path
     inkscape:connector-curvature="0"
     style="opacity:1;fill:#ffffff;fill-opacity:1"
     id="path21"
     d="m 263.49,20.42 c 37.33,0 74.66,-0.07 112,0.03 25.09,0.32 51.27,1.09 74.31,12.23 15.62,7.34 28.83,19.56 37.33,34.58 19.35,32.79 16.93,77.45 -7.19,107.18 -8.77,10.82 -20.12,19.45 -32.81,25.17 21.36,47.67 42.74,95.33 64.13,142.98 -17.8,0.04 -35.61,-0.01 -53.41,0.02 -19.11,-44.09 -38.06,-88.26 -57.23,-132.32 -6.7,0.58 -13.42,0.84 -20.13,0.61 -22.67,-0.05 -45.34,0 -68.02,-0.02 V 342.61 H 263.49 V 20.42 m 49,46.17 -0.01,101.59 c 25.65,-0.09 51.3,0.02 76.96,-0.05 12.01,-0.43 24.31,-1.8 35.39,-6.79 24.56,-10.91 34.81,-44 22.45,-67.46 -5.46,-11.26 -16.14,-19.26 -27.9,-23.03 -12.2,-3.97 -25.21,-4.35 -37.94,-4.24 -22.98,-0.01 -45.97,0.03 -68.95,-0.02 z"
     sodipodi:nodetypes="cccccccccccccccccccccc" />
  <g
     id="#e31c33ff"
     transform="translate(-72.52,-32.12)">
    <path
       d="m 1464.51,52.44975 h 341.04 L 1886.88,241.42 1975.6,52.44975 2042.04,52.52 1886.88,388.94 1759.92,106.41 l -118.4,0.02 -0.47,269.23 -61.49,-0.14 -0.18,-269.74 -114.87,0.03 z"
       id="path24"
       inkscape:connector-curvature="0"
       style="opacity:1;fill:#e31c33"
       sodipodi:nodetypes="ccccccccccccc" />
    <path
       d="m 1464.71,53.44 c 1.41,8.44 0.42,17.03 0.69,25.55 -0.28,8.82 0.71,17.72 -0.65,26.49 -0.65,-10.14 -0.13,-20.3 -0.28,-30.45 0.09,-7.2 -0.27,-14.41 0.24,-21.59 z"
       id="path26"
       inkscape:connector-curvature="0"
       style="opacity:1;fill:#e31c33" />
  </g>
</svg>
