<svg height="356.82001pt" viewBox="0 0 1969.52 356.82001" width="1969.52pt" xmlns="http://www.w3.org/2000/svg"><g fill="#6e6e70"><path d="m1118.16 342.59 159.48-342.57999 153.63 342.60999h-53.37l-33.77-78.02-137.38.02-36.15 77.99zm158.43-232.65999-49.43 108.47999h97z"/><path d="m527.72 342.58 159.48-342.58 153.63 342.61h-53.37l-33.77-78.02-137.38.02-36.15 77.99zm158.43-232.66-49.43 108.48h97z"/><path d="m864.48 19.88h49c .03 42.18-.02 84.37.02 126.55 46.09-.06 92.17.02 138.26-.04-.03-42.17.01-84.34-.02-126.51h48.96c.01 107.58.01 215.15 0 322.73-16.32 0-32.63-.03-48.94.02-.02-50.01-.01-100.01-.01-150.02-46.1-.01-92.19-.02-138.29.01.04 49.99.04 99.99 0 149.98-16.32.01-32.64 0-48.96.01-.04-107.58-.01-215.15-.02-322.73z"/><path d="m .04 20.42c35.82-.02 71.64-.01 107.45-.01 19.71.37 39.63.14 58.99 4.39 16.76 3.65 32.59 12.15 44.29 24.78 13.76 14.82 22.3 34.19 24.85 54.18 2.99 22.68-2.36 46.33-14.71 65.56-10.69 16.47-27.15 28.96-45.71 35.27-16.87 5.96-34.93 7.57-52.71 7.29-24.51.01-49.03-.03-73.54.02l.02 130.67-48.97.02zm48.9 146.43c27.18-.07 54.37.3 81.55-.23 14.69-.58 30.42-2.89 42.1-12.59 21.42-18.33 22.73-55.77 1.48-74.76-13.38-11.37-31.8-13.17-48.66-13.62-25.48-.1-50.97 0-76.45-.05z"/><path d="m263.49 20.42c37.33 0 74.66-.07 112 .03 25.09.32 51.27 1.09 74.31 12.23 15.62 7.34 28.83 19.56 37.33 34.58 19.35 32.79 16.93 77.45-7.19 107.18-8.77 10.82-20.12 19.45-32.81 25.17 21.36 47.67 42.74 95.33 64.13 142.98-17.8.04-35.61-.01-53.41.02-19.11-44.09-38.06-88.26-57.23-132.32-6.7.58-13.42.84-20.13.61-22.67-.05-45.34 0-68.02-.02v131.73h-48.98zm49 46.17-.01 101.59c25.65-.09 51.3.02 76.96-.05 12.01-.43 24.31-1.8 35.39-6.79 24.56-10.91 34.81-44 22.45-67.46-5.46-11.26-16.14-19.26-27.9-23.03-12.2-3.97-25.21-4.35-37.94-4.24-22.98-.01-45.97.03-68.95-.02z"/></g><g transform="translate(-72.52 -32.12)"><path d="m1464.51 52.44975h341.04l81.33 188.97025 88.72-188.97025 66.44.07025-155.16 336.42-126.96-282.53-118.4.02-.47 269.23-61.49-.14-.18-269.74-114.87.03z" fill="#e31c33"/><path d="m1464.71 53.44c1.41 8.44.42 17.03.69 25.55-.28 8.82.71 17.72-.65 26.49-.65-10.14-.13-20.3-.28-30.45.09-7.2-.27-14.41.24-21.59z" fill="#e31c33"/></g></svg>