<svg width="600pt" height="109.05pt" version="1.1" viewBox="0 0 600 109.05" xmlns="http://www.w3.org/2000/svg" xmlns:xlink="http://www.w3.org/1999/xlink">
 <defs>
  <linearGradient id="linearGradient1314" x1="50.335" x2="872.68" y1="224.75" y2="224.75" gradientTransform="matrix(.4186 0 0 .4186 -11.634 -39.558)" gradientUnits="userSpaceOnUse">
   <stop stop-color="#101e39" offset="0"/>
   <stop stop-color="#1a2b56" offset="1"/>
  </linearGradient>
  <linearGradient id="linearGradient1330" x1="833.2" x2="1438.6" y1="224.75" y2="224.75" gradientTransform="matrix(.4186 0 0 .4186 -11.634 -39.558)" gradientUnits="userSpaceOnUse">
   <stop stop-color="#9d2236" offset="0"/>
   <stop stop-color="#542629" offset="1"/>
  </linearGradient>
  <linearGradient id="linearGradient1117" x1="-194.01" x2="-136.95" y1="213.89" y2="213.89" gradientUnits="userSpaceOnUse">
   <stop stop-color="#cdccca" offset="0"/>
   <stop stop-color="#fff" offset="1"/>
  </linearGradient>
 </defs>
 <path d="m35.435 7.7266e-4c-11.42 0-20.934 8.5011-22.877 19.442l6e-3 -0.0356-12.063 65.631-0.0399 0.15759-0.0276 0.21829c-0.619 3.4462-1.0183 8.8741 1.9683 14.225 3.3062 5.9236 10.25 9.4062 18.412 9.4062h543.76c11.419 0 20.934-8.5008 22.878-19.442l12.188-66.306v-0.20235c0.56628-3.4585 0.82014-8.5774-2.0321-13.688-3.3062-5.9239-10.25-9.4063-18.412-9.4063z" color="#000000" color-rendering="auto" dominant-baseline="auto" fill="#1b2e59" image-rendering="auto" shape-rendering="auto" solid-color="#000000" style="font-feature-settings:normal;font-variant-alternates:normal;font-variant-caps:normal;font-variant-ligatures:normal;font-variant-numeric:normal;font-variant-position:normal;isolation:auto;mix-blend-mode:normal;paint-order:markers stroke fill;shape-padding:0;text-decoration-color:#000000;text-decoration-line:none;text-decoration-style:solid;text-indent:0;text-orientation:mixed;text-transform:none;white-space:normal"/>
 <g transform="matrix(.4186 0 0 .4186 -11.628 -39.558)" fill="#fff" stroke="#a668d5" stroke-width="16.875">
  <path transform="matrix(.75 0 0 .75 757.46 -447.2)" d="m-860.04 741.02h1732c20.929 0 35.655 8.49 42.273 20.35 6.6169 11.856 5.765 24.412 4.0957 33.391v0.01l-38.531 209.63c-4.6121 25.971-27.581 46.457-54.41 46.457h-1732c-20.929 0-35.654-8.4904-42.273-20.35-6.6137-11.85-5.7652-24.395-4.0977-33.373l2e-3 -0.0156 2e-3 -0.01 38.531-209.63c4.612-25.97 27.579-46.457 54.408-46.457z" color="#000000" color-rendering="auto" dominant-baseline="auto" fill="#fff" image-rendering="auto" shape-rendering="auto" solid-color="#000000" stroke="none" style="font-feature-settings:normal;font-variant-alternates:normal;font-variant-caps:normal;font-variant-ligatures:normal;font-variant-numeric:normal;font-variant-position:normal;isolation:auto;mix-blend-mode:normal;paint-order:markers stroke fill;shape-padding:0;text-decoration-color:#000000;text-decoration-line:none;text-decoration-style:solid;text-indent:0;text-orientation:mixed;text-transform:none;white-space:normal"/>
 </g>
 <path d="m353.67 9.4185v45.104l-16.526 45.104h-316.33c-11.51 0-11.962-7.9759-11.085-12.696l12.102-65.841c1.1344-6.3878 7.0912-11.671 13.604-11.671" fill="url(#linearGradient1314)" stroke-width=".4186"/>
 <path d="m337.14 99.627 16.526-90.208h225.52c11.51 0 11.962 7.9759 11.085 12.696l-12.102 65.841c-1.1344 6.3878-7.0912 11.671-13.604 11.671" fill="url(#linearGradient1330)" stroke-width=".4186"/>
 <g transform="rotate(-90 -10.203 -100.08)" fill="url(#linearGradient1117)" stroke-width=".4186">
  <path d="m-136.95-18.6c0 7.6235-5.0977 11.128-11.719 9.9627l-15.354-2.7962c-5.1613-1.013-9.4269-5.6218-9.6738-10.938v-18.82l-20.084-3.4451v-11.503l56.829 9.9459zm-10.796-18-15.072-2.6079v13.91c-8e-3 1.4023 1.1135 2.5898 2.4572 2.9469l9.3662 1.698c2.5163 0.44363 3.2485-0.2959 3.2485-2.5645z"/>
  <path d="m-136.95 24.039c0 6.2522-4.3601 11.296-10.337 10.21l-13.538-2.2856c-6.9174-1.4668-9.7429-3.4011-11.47-9.5943l-21.487 5.4753v-12.106l21.148-5.2702v-8.5227l-21.148-3.7674v-11.583l56.829 9.9041zm-10.81-17.87-14.163-2.4697v12.399c0 3.1773 0.68114 4.1693 3.7316 4.7653l7.0727 1.2039c2.6651 0.44392 3.3591-0.72397 3.3591-3.0222z"/>
  <path d="m-136.95 81.902v12.286l-33.084 8.1292 33.084 19.825v13.106l-56.829-9.9166v-10.909l36.929 6.59-27.954-16.448v-7.9953l27.862-7.1497-36.837-6.6055v-10.875z"/>
  <path d="m-136.95 141.7v11.545l-56.829-9.9418v-11.503z"/>
  <path d="m-136.95 159.61v36.623l-10.806-1.8628v-25.124l-11.528-2.0386v20.373l-10.867-2.0051v-20.256l-12.753-2.1516v25.041l-10.877-1.9v-36.682z"/>
  <path d="m-136.95 227.71c0 6.2522-4.3601 11.296-10.337 10.21l-13.538-2.2856c-6.9174-1.4668-9.7429-3.4011-11.47-9.5943l-21.487 5.4753v-12.106l21.148-5.2702v-8.5227l-21.148-3.7674v-11.583l56.833 9.9041zm-10.81-17.87-14.163-2.4697v12.399c0 3.1773 0.68115 4.1693 3.7316 4.7653l7.0727 1.2038c2.6651 0.44393 3.3591-0.72397 3.3591-3.0222z"/>
  <path d="m-136.95 41.294v36.623l-10.806-1.8628v-25.124l-11.528-2.0386v20.373l-10.867-2.0051v-20.256l-12.753-2.1516v25.041l-10.877-1.9v-36.682z"/>
  <path d="m-136.95 283.58v18.021c0 6.5779-5.1371 9.1652-10.584 8.4381l-7.1099-1.1839v-11.281l5.5456 0.80899c1.1755 0.18655 1.5645-0.22973 1.5645-1.494l-0.0252-11.211c0-1.4243-0.94603-2.633-2.273-2.9218-2.0585-0.4852-4.1524-0.79287-6.2392-1.1271-1.1341-0.24833-1.7781 0.37624-2.0949 1.5248l-2.9135 12.709c-1.5235 6.5113-4.5602 11.961-11.378 10.783l-11.198-1.9901c-6.1011-1.4172-10.347-6.0772-10.347-12.001l-8e-3 -18.27c0-6.791 5.7407-9.9978 11.068-8.9873l7.5432 1.2642v11.097l-5.1057-0.96333c-1.5622-0.29474-2.63-0.025-2.63 1.6219v12.405c0 1.6361 1.077 2.5711 2.63 2.8683l5.8826 0.9617c2.5802 0.38135 2.7719-1.453 3.2669-3.49l2.5576-11.26c1.5997-6.4829 5.0621-11.09 11.913-9.9752l9.6194 1.6912c6.6411 1.379 10.323 4.9223 10.316 11.964z"/>
  <path d="m-193.78 365.35v-7.102c0-5.4468 7.1011-7.6742 11.021-6.9236l35.697 6.2183c5.6599 1.0354 10.115 4.3061 10.115 10.372v7.4293c-3.6042-0.54837-6.9655-1.2684-10.57-1.8167v-1.88c0-1.5744-0.95922-2.688-2.2511-2.9744l-31.074-5.5494c-1.5785-0.24881-2.2982 0.11587-2.3232 1.6795v2.444z"/>
  <path d="m-136.95 443.71v40.215l-10.8-1.779v-14.362l-46.013-8.0999-0.0335-11.595 46.046 8.1166v-14.396z"/>
  <path d="m-136.95 344.33c0 7.6235-5.0977 11.128-11.719 9.9627l-15.354-2.7962c-5.1613-1.013-9.4269-5.6218-9.6738-10.938v-18.82l-20.084-3.4451v-11.503l56.829 9.9459zm-10.796-18-15.072-2.6079v13.91c-8e-3 1.4023 1.1135 2.5898 2.4572 2.9469l9.3662 1.698c2.5163 0.44363 3.2485-0.29591 3.2485-2.5645z"/>
  <path d="m-136.95 431.4c0 6.2522-4.3601 11.296-10.337 10.21l-13.538-2.2856c-6.9174-1.4668-9.7429-3.4011-11.47-9.5943l-21.487 5.4753v-12.106l21.148-5.2702v-8.5227l-21.148-3.7674v-11.583l56.829 9.9041zm-10.81-17.87-14.163-2.4697v12.399c0 3.1773 0.68115 4.1693 3.7316 4.7653l7.0727 1.2039c2.6651 0.44389 3.3591-0.72396 3.3591-3.0222z"/>
  <path d="m-136.95 383.98v7.102c0 5.4468-7.1011 7.6742-11.021 6.9236l-35.697-6.2183c-5.6599-1.0354-10.115-4.3061-10.115-10.372v-7.4293c3.6041 0.54837 6.9655 1.2684 10.57 1.8167v1.88c0 1.5744 0.95922 2.688 2.2511 2.9744l31.074 5.5494c1.5784 0.24881 2.2982-0.11587 2.3231-1.6795v-2.444z"/>
 </g>
</svg>
