<?xml version="1.0" encoding="UTF-8" standalone="no"?>
<!-- Created with Inkscape (http://www.inkscape.org/) -->

<svg
   xmlns:dc="http://purl.org/dc/elements/1.1/"
   xmlns:cc="http://creativecommons.org/ns#"
   xmlns:rdf="http://www.w3.org/1999/02/22-rdf-syntax-ns#"
   xmlns:svg="http://www.w3.org/2000/svg"
   xmlns="http://www.w3.org/2000/svg"
   xmlns:sodipodi="http://sodipodi.sourceforge.net/DTD/sodipodi-0.dtd"
   xmlns:inkscape="http://www.inkscape.org/namespaces/inkscape"
   height="106.00002"
   width="232.09039"
   version="1.1"
   id="svg24"
   sodipodi:docname="Prima Zoom HD - Dark.svg"
   inkscape:version="0.92.0 r15299">
  <defs
     id="defs28" />
  <sodipodi:namedview
     pagecolor="#ffffff"
     bordercolor="#666666"
     borderopacity="1"
     objecttolerance="10"
     gridtolerance="10"
     guidetolerance="10"
     inkscape:pageopacity="0"
     inkscape:pageshadow="2"
     inkscape:window-width="1920"
     inkscape:window-height="1017"
     id="namedview26"
     showgrid="false"
     fit-margin-top="0"
     fit-margin-left="0"
     fit-margin-right="0"
     fit-margin-bottom="0"
     inkscape:zoom="2.6775777"
     inkscape:cx="219.02367"
     inkscape:cy="75.664475"
     inkscape:window-x="-8"
     inkscape:window-y="-8"
     inkscape:window-maximized="1"
     inkscape:current-layer="svg24" />
  <metadata
     id="metadata2">
    <rdf:RDF>
      <cc:Work
         rdf:about="">
        <dc:format>image/svg+xml</dc:format>
        <dc:type
           rdf:resource="http://purl.org/dc/dcmitype/StillImage" />
        <dc:title></dc:title>
      </cc:Work>
    </rdf:RDF>
  </metadata>
  <g
     transform="matrix(0.28572441,0,0,0.28572441,1.8572087e-4,-194.68676)"
     id="g22"
     style="fill-rule:nonzero">
    <path
       d="m 168.97,783.93 h -41.409 c -8.1404,0 -12.97,3.9001 -12.97,10.195 0,10.483 8.1666,11.543 20.403,11.543 h 33.975 V 783.93 Z"
       id="path4"
       inkscape:connector-curvature="0"
       style="fill:#4e91d4" />
    <path
       d="m 150.35,732.35 c 6.0988,0 8.6116,-4.7639 8.6116,-10.195 0,-11.661 -6.7008,-15.535 -22.327,-14.972 2.1464,3.4551 2.5913,9.7502 4.0833,15.077 1.3218,5.4837 3.6383,10.09 9.6324,10.09"
       id="path6"
       inkscape:connector-curvature="0"
       style="fill:#4e91d4" />
    <path
       d="m 87.21,984.25 -2.0155,15.98 h 28.308 l 1.4004,-15.98 c 0.58894,-7.2112 -2.5128,-12.315 -12.185,-12.315 -9.9465,0 -14.619,5.1827 -15.509,12.315"
       id="path8"
       inkscape:connector-curvature="0"
       style="fill:#4e91d4" />
    <path
       d="m 114.59,838.19 c 0,8.7817 5.1303,12.538 20.6,12.538 h 33.779 v -21.699 h -39.93 c -8.9126,0 -14.449,2.6175 -14.449,9.1613"
       id="path10"
       inkscape:connector-curvature="0"
       style="fill:#4e91d4" />
    <path
       d="m 70.673,881.34 h 19.003 l -2.5652,17.446 H 67.5578 L 70.6726,881.34 Z M 0,1048.6 h 168.99 l -0.0131,-23.126 h -110.93 l 7.1458,-44.759 c 2.5782,-16.058 13.676,-30.507 37.941,-30.507 25.455,0 34.774,11.609 33.766,30.507 l -1.047,19.514 h 33.125 V 945.51 h -82.216 l 2.7222,-20.443 h 14.527 l 0.0262,-0.26175 c -10.137,-3 -13.448,-10.35 -12.322,-18.69 0.18322,-1.4789 0.54967,-3.9786 0.54967,-3.9786 h 23.23 l -0.51042,5.2874 c -0.61511,6.8055 0.65438,16.922 16.242,16.922 h 37.744 v -25.678 h -75.044 l 2.395,-17.642 h 72.649 v -7.0149 h -72.623 v -22.628 h 10.339 v -0.3141 c -7.5515,-4.4236 -12.525,-12.342 -12.525,-21.424 0,-9.3314 3.0887,-16.608 12.224,-20.626 -7.9965,-5.9025 -12.224,-13.232 -12.224,-23.296 0,-23.715 18.231,-25.246 32.653,-25.246 h 42.155 v -11.569 c -3.743,4.8031 -9.5932,7.774 -17.616,7.774 -24.657,0 -22.746,-26.437 -26.267,-43.385 -0.88995,-4.1749 -2.3427,-6.4914 -7.0149,-6.4914 -5.68,0 -7.8656,6.7663 -7.8656,11.805 0,6.7794 3.0494,11.02 9.5016,12.211 v 22.851 c -9.9596,-0.44497 -16.386,-5.0387 -20.325,-11.674 -3.8085,-6.583 -5.2219,-15.221 -5.2219,-23.662 0,-15.574 3.0887,-30.769 18.519,-34.106 h -72.204 v 196.97 l -40.45,157.52995 -0.0262,9.8 z"
       id="path12"
       inkscape:connector-curvature="0"
       style="fill:#4e91d4" />
    <path
       d="m 240.96,828.27 v -0.66746 c 0,-4.7115 1.7799,-8.9388 5.1041,-12.734 l 98.471,-106.52 h -88.864 c -6.4914,0 -12.093,-5.3136 -12.093,-12.041 0,-6.6354 5.6015,-12.263 12.093,-12.263 h 113.67 c 6.7139,0 12.315,5.6276 12.315,12.041 v 0.69364 c 0,4.6722 -1.4789,9.0697 -4.9078,12.721 l -98.667,106.48 h 91.233 c 6.6223,0 12.25,5.5622 12.25,12.289 0,6.6877 -5.6276,12.067 -12.25,12.067 h -116.11 c -6.4522,0 -12.237,-5.6276 -12.237,-12.067"
       id="path14"
       inkscape:connector-curvature="0"
       style="fill:#231f20" />
    <path
       d="m 571.22,762.64 v -0.47115 c 0,-30.337 -22.131,-55.544 -53.162,-55.544 -31.017,0 -52.717,24.735 -52.717,55.125 v 0.4188 c 0,30.376 22.157,55.36 53.175,55.36 31.044,0 52.704,-24.539 52.704,-54.889 m -134.63,0 v -0.47115 c 0,-43.961 33.949,-80.789 81.928,-80.789 47.992,0 81.483,36.41 81.483,80.371 v 0.4188 c 0,43.974 -33.949,80.842 -81.941,80.842 -47.979,0 -81.47,-36.423 -81.47,-80.371"
       id="path16"
       inkscape:connector-curvature="0"
       style="fill:#231f20" />
    <path
       d="m 361.87,971.97 v -0.4188 c 0,-30.324 -22.131,-55.596 -53.149,-55.596 -31.004,0 -52.651,24.762 -52.651,55.151 v 0.44498 c 0,30.33702 22.092,55.37302 53.07,55.37302 31.083,0 52.73,-24.592 52.73,-54.95502 m -134.62,0 v -0.4188 c 0,-43.987 33.936,-80.829 81.889,-80.829 48.018,0 81.483,36.396 81.483,80.384 v 0.44498 c 0,43.94804 -33.923,80.81604 -81.902,80.81604 -47.979,0 -81.47,-36.436 -81.47,-80.39704"
       id="path18"
       inkscape:connector-curvature="0"
       style="fill:#231f20" />
    <path
       d="m 444.24,906.22 c 0,-7.6039 6.0464,-13.834 13.886,-13.834 h 2.8924 c 6.0203,0 10.012,3.1018 12.734,7.3683 l 44.563,69.979 44.786,-70.175 c 2.9316,-4.7115 6.9364,-7.172 12.512,-7.172 h 2.8793 c 7.8264,0 13.834,6.2297 13.834,13.834 v 130.81 c 0,7.6039 -6.0072,13.624 -13.834,13.624 -7.3421,0 -13.598,-6.2296 -13.598,-13.624 v -93.72 l -35.402,53.201 c -2.9316,4.4498 -6.4914,7.185 -11.648,7.185 -4.9078,0 -8.4676,-2.7353 -11.373,-7.185 l -35.232,-52.782 v 93.497 c 0,7.617 -6.0334,13.428 -13.598,13.428 -7.5777,0 -13.402,-5.8108 -13.402,-13.428 v -131.01 z"
       id="path20"
       inkscape:connector-curvature="0"
       style="fill:#231f20" />
  </g>
  <g
     transform="matrix(2.090149,0,0,2.090149,187.00525,-50.301563)"
     id="g4501"
     style="fill:#231f20;fill-opacity:1">
    <path
       d="m 6.634,24.542 v 4.0115 H 2.8647 v -4.0111 h -2.8669 v 11.003 h 2.8669 v -4.5258 h 3.7694 v 4.5258 h 2.8665 v -11.004 z"
       id="path4-2"
       inkscape:connector-curvature="0"
       style="fill:#231f20;fill-opacity:1" />
    <path
       d="m 11.443,24.542 v 11.003 h 4.7307 c 3.341,0 5.3966,-1.9412 5.3966,-5.5466 0,-3.4098 -2.0232,-5.4561 -5.3966,-5.4561 z m 2.8669,2.4663 h 1.358 c 1.9559,0 3.0355,0.9706 3.0355,2.9713 0,2.2065 -0.8654,3.0541 -3.0355,3.0997 h -1.358 z"
       id="path6-5"
       inkscape:connector-curvature="0"
       style="fill:#231f20;fill-opacity:1" />
  </g>
</svg>
