<?xml version="1.0" encoding="UTF-8" standalone="no"?>
<svg
   xmlns:dc="http://purl.org/dc/elements/1.1/"
   xmlns:cc="http://creativecommons.org/ns#"
   xmlns:rdf="http://www.w3.org/1999/02/22-rdf-syntax-ns#"
   xmlns:svg="http://www.w3.org/2000/svg"
   xmlns="http://www.w3.org/2000/svg"
   xmlns:sodipodi="http://sodipodi.sourceforge.net/DTD/sodipodi-0.dtd"
   xmlns:inkscape="http://www.inkscape.org/namespaces/inkscape"
   width="634.72644pt"
   height="248.30327pt"
   viewBox="0 0 634.72644 248.30327"
   version="1.1"
   id="svg28"
   sodipodi:docname="Prima Plus.svg"
   inkscape:version="0.92.0 r15299">
  <metadata
     id="metadata34">
    <rdf:RDF>
      <cc:Work
         rdf:about="">
        <dc:format>image/svg+xml</dc:format>
        <dc:type
           rdf:resource="http://purl.org/dc/dcmitype/StillImage" />
        <dc:title></dc:title>
      </cc:Work>
    </rdf:RDF>
  </metadata>
  <defs
     id="defs32" />
  <sodipodi:namedview
     pagecolor="#ffffff"
     bordercolor="#666666"
     borderopacity="1"
     objecttolerance="10"
     gridtolerance="10"
     guidetolerance="10"
     inkscape:pageopacity="0"
     inkscape:pageshadow="2"
     inkscape:window-width="1920"
     inkscape:window-height="1017"
     id="namedview30"
     showgrid="false"
     fit-margin-top="0"
     fit-margin-left="0"
     fit-margin-right="0"
     fit-margin-bottom="0"
     inkscape:zoom="0.5325"
     inkscape:cx="131.69014"
     inkscape:cy="322.56565"
     inkscape:window-x="-8"
     inkscape:window-y="-8"
     inkscape:window-maximized="1"
     inkscape:current-layer="svg28" />
  <g
     transform="matrix(0.99994584,0,0,0.99994584,-40.184774,-79.239514)"
     id="#fafafaff"
     style="fill:#f36917;fill-opacity:1">
    <path
       style="opacity:1;fill:#f36917;fill-opacity:1"
       inkscape:connector-curvature="0"
       d="m 76.63,82.66 c 4.24,-4.3 10.67,-3.46 16.14,-3.11 7.08,1.16 12.43,7.27 14.6,13.86 3.15,10.17 3.33,21.65 -1.29,31.42 -3.19,7.6 -11.529827,12.69 -19.779827,11.94 v -16.31 c 2.240953,0 5.477655,-1.41041 7.289827,-3.82 3.650669,-4.85419 3.76,-12.03 1.05,-17.29 -0.931951,-1.937127 -2.733815,-2.778142 -4.677253,-3.028006 -2.498579,-0.321237 -3.828612,0.789064 -5.06325,2.633092 C 82.27976,102.86787 81.652155,107.93202 80.42,112.42 c -2.06,7.14 -4.04,15.23 -10.52,19.72 -4.31,3.34 -10.14,3.06 -15.22,2.21 -8.94,-3.04 -13.19,-12.61 -14.36,-21.31 -0.21628,-5.12663 -0.342727,-10.4201 1.059837,-15.371543 0.791097,-2.338332 1.583757,-4.597733 2.723995,-6.599339 2.83124,-4.931605 7.875439,-8.513314 13.456127,-9.615671 0.963563,-0.190333 2.853444,-0.306754 3.840365,-0.343447 v 16.2 c -3.526328,0 -6.190324,2.79 -7.090324,6.16 -1.201269,3.80402 -1.533973,8.50911 0.527386,12.08055 0.731938,1.26813 1.634393,1.84298 2.908487,2.1202 2.353802,0.51214 4.990039,-0.41757 5.844127,-2.90075 4.51,-10.55 3.91,-23.92 13.04,-32.11 z"
       id="path7"
       sodipodi:nodetypes="ccccccscssccccccscccsscc" />
    <path
       style="opacity:1;fill:#f36917;fill-opacity:1"
       inkscape:connector-curvature="0"
       d="m 41.350238,147.67971 c 13.6,0.29 28.079762,-0.04 41.679762,0 7.33,0.28 15.18,2.30029 20.2,8.01029 5.51,5.96 6.47,14.57 6.36,22.33 -0.08,7.52 -1.79,15.76 -7.54,21.07 -5.37,4.88 -12.91,6.64035 -20.01,6.56035 -13.3,0.02 -27.399762,0.14 -40.689762,0 V 188.54 c 12.98,0.04 29.589762,-0.02 42.569762,-0.03 3.54,0.17 7.16,-1.43 9.29,-4.3 2.15,-3.3 1.5,-7.5 1.33,-11.22 -0.4,-5.13 -5.8,-8.04 -10.47,-8.26 -14.23,-0.14 -28.489762,0.18 -42.719762,-0.17 z"
       id="path9-6"
       sodipodi:nodetypes="cccccccccccccc" />
    <path
       style="opacity:1;fill:#f36917;fill-opacity:1"
       inkscape:connector-curvature="0"
       d="m 93.610069,211.83969 h 14.480281 v 48.61013 H 41.350238 v -17.40994 h 52.259831 z"
       id="path11"
       sodipodi:nodetypes="ccccccc" />
    <path
       style="opacity:1;fill:#f36917;fill-opacity:1"
       inkscape:connector-curvature="0"
       d="m 52.278836,273.70192 c 2.360594,-1.39674 5.041371,-2.00406 7.76938,-2.2507 2.639529,-0.23864 5.344924,-0.10235 7.931784,0.12878 6.28,0.84 12.58,4.44 15.36,10.31 3.95,8.68 1.88,18.59024 2.48,27.79024 h 22.27035 V 327.4 H 41.52 c 0,-11.15 0.01,-22.29 -0.01,-33.44 0.193084,-6.70276 2.307417,-14.0806 7.797979,-18.27166 0.996864,-0.76093 1.587058,-1.16764 2.970857,-1.98642 z M 55.64,294.42 55.58,309.68024 h 16.87 l -0.114211,-14.98709 c -0.0016,-0.20591 -0.04883,-0.40895 -0.07579,-0.61315 -1.8,-7.9 -14.95,-7.33 -16.619999,0.34 z"
       id="path13-5"
       sodipodi:nodetypes="sscccccccsscccscc" />
  </g>
  <g
     transform="matrix(3.4246863,0,0,3.4246863,-9.9022524,-346.70172)"
     id="g4">
    <path
       style="fill:#f36917"
       inkscape:connector-curvature="0"
       d="m 102.37,117.73 -72.871,-16.49 -0.016,72.5 h 10.016 v -48.36 l 19.529,3.12 c 7.008,1.13 13.296,5.95 13.296,16.55 0,11.08 -5.056,15.14 -13.296,14.69 l -8.505,-0.45 v 14.45 H 74.356 V 137.9 l 8.921,1.2 v 6.31 l 0.104,0.01 c 1.304,-4.41 4.496,-5.85 8.128,-5.36 0.64,0.09 1.744,0.24 1.744,0.24 v 10.12 l -2.312,-0.21 c -2.968,-0.29 -7.4,0.27 -7.4,7.07 v 16.46 h 11.216 v -32.71 l 7.693,1.03 v 31.68 h 3.05 v -31.66 h 9.87 v 4.52 h 0.12 c 1.96,-3.31 5.4,-5.47 9.35,-5.47 4.07,0 7.25,1.33 9,5.34 2.57,-3.5 5.76,-5.34 10.14,-5.34 10.35,0 11.01,7.95 11.01,14.24 v 18.37 h 5.05 c -2.1,-1.64 -3.39,-4.18 -3.39,-7.68 0,-10.75 11.53,-9.92 18.91,-11.45 1.82,-0.38 2.82,-1.02 2.82,-3.04 0,-2.49 -2.94,-3.44 -5.13,-3.44 -2.95,0 -4.82,1.33 -5.32,4.13 h -9.97 c 0.19,-4.32 2.2,-7.13 5.08,-8.84 2.88,-1.65 6.63,-2.29 10.33,-2.29 6.8,0 13.4,1.34 14.86,8.08 v -31.48 z m -0.02,21.43 -7.617,-1.11 v -8.52 l 7.617,1.36 z m 69.33,22.26 c -2.38,0.58 -4.38,1.59 -4.38,4.2 0,2.67 2.06,3.75 4.44,3.75 5.08,0 6.76,-2.92 6.52,-9.73 -1.51,0.95 -4.26,1.13 -6.58,1.78 M 62.86,144.85 c 0,-4.33 -2.28,-6.37 -5.352,-6.76 l -6.985,-0.88 v 12.36 l 6.985,0.6 c 3.128,0.27 5.352,-1.1 5.352,-5.32 m 77.49,5.18 c -4.58,0 -5.02,3.56 -5.02,8.9 v 14.81 h 9.47 v -18.05 c 0,-3.56 -1.7,-5.66 -4.45,-5.66 m -19.21,0 c -3.82,0 -5.45,2.23 -5.45,8.98 v 14.73 h 9.46 v -17.41 c 0,-3.88 -1.13,-6.3 -4.01,-6.3"
       id="path2" />
  </g>
</svg>
