<?xml version="1.0" encoding="UTF-8" standalone="no"?>
<!-- Created with Inkscape (http://www.inkscape.org/) -->

<svg
   xmlns:dc="http://purl.org/dc/elements/1.1/"
   xmlns:cc="http://creativecommons.org/ns#"
   xmlns:rdf="http://www.w3.org/1999/02/22-rdf-syntax-ns#"
   xmlns:svg="http://www.w3.org/2000/svg"
   xmlns="http://www.w3.org/2000/svg"
   xmlns:sodipodi="http://sodipodi.sourceforge.net/DTD/sodipodi-0.dtd"
   xmlns:inkscape="http://www.inkscape.org/namespaces/inkscape"
   width="8.2793064mm"
   height="3.781425mm"
   viewBox="0 0 8.2793061 3.781425"
   version="1.1"
   id="svg111608"
   inkscape:version="0.92.0 r15299"
   sodipodi:docname="Prima.svg">
  <defs
     id="defs111602" />
  <sodipodi:namedview
     id="base"
     pagecolor="#ffffff"
     bordercolor="#666666"
     borderopacity="1.0"
     inkscape:pageopacity="0.0"
     inkscape:pageshadow="2"
     inkscape:zoom="15.839192"
     inkscape:cx="18.235535"
     inkscape:cy="8.2872838"
     inkscape:document-units="mm"
     inkscape:current-layer="layer1"
     showgrid="false"
     fit-margin-top="0"
     fit-margin-left="0"
     fit-margin-right="0"
     fit-margin-bottom="0"
     inkscape:window-width="1920"
     inkscape:window-height="1017"
     inkscape:window-x="-8"
     inkscape:window-y="-8"
     inkscape:window-maximized="1" />
  <metadata
     id="metadata111605">
    <rdf:RDF>
      <cc:Work
         rdf:about="">
        <dc:format>image/svg+xml</dc:format>
        <dc:type
           rdf:resource="http://purl.org/dc/dcmitype/StillImage" />
        <dc:title />
      </cc:Work>
    </rdf:RDF>
  </metadata>
  <g
     inkscape:label="Layer 1"
     inkscape:groupmode="layer"
     id="layer1"
     transform="translate(-43.147901,-72.859281)">
    <path
       inkscape:connector-curvature="0"
       id="path105234"
       style="fill:#f36917;fill-opacity:1;fill-rule:nonzero;stroke:none;stroke-width:0.35277775"
       d="m 47.928354,75.403874 c -0.19932,0 -0.284692,0.116064 -0.284692,0.468136 v 0.76835 h 0.493889 v -0.907697 c 0,-0.202495 -0.05891,-0.328789 -0.209197,-0.328789 m 1.001889,0 c -0.238478,0 -0.261762,0.185561 -0.261762,0.464255 v 0.772231 h 0.493537 v -0.941211 c 0,-0.185561 -0.08819,-0.295275 -0.231775,-0.295275 M 44.88882,75.133999 c 0,-0.226131 -0.118886,-0.33267 -0.2794,-0.352778 l -0.364066,-0.04586 v 0.644525 l 0.364066,0.03104 c 0.163336,0.01411 0.2794,-0.05715 0.2794,-0.276931 m 5.675136,0.864306 c -0.123825,0.02963 -0.2286,0.08255 -0.2286,0.218369 0,0.139347 0.10795,0.195792 0.232128,0.195792 0.264584,0 0.352778,-0.1524 0.340078,-0.507295 -0.07867,0.04939 -0.222603,0.05927 -0.343606,0.09313 m -3.615972,-1.161344 -0.396875,-0.0575 V 74.3346 l 0.396875,0.07091 z m 0.0011,-1.1176 -3.800476,-0.860072 -7.07e-4,3.781425 0.522464,-3.44e-4 v -2.522018 l 1.01847,0.162984 c 0.365477,0.05856 0.693561,0.310091 0.693561,0.862541 0,0.578556 -0.263878,0.78987 -0.693561,0.766587 l -0.443441,-0.02328 v 0.753181 H 45.48823 V 74.77134 l 0.465314,0.06244 v 0.329494 l 0.0056,3.52e-4 c 0.06773,-0.230011 0.233892,-0.305152 0.423686,-0.2794 0.03351,0.0042 0.09102,0.01199 0.09102,0.01199 v 0.528109 l -0.12065,-0.01129 c -0.154513,-0.01482 -0.385936,0.01411 -0.385936,0.369005 v 0.858309 h 0.585259 v -1.70568 l 0.401108,0.05362 v 1.652059 h 0.15875 v -1.651 h 0.515408 v 0.235655 h 0.006 c 0.101953,-0.172861 0.281517,-0.28575 0.487187,-0.28575 0.212372,0 0.378177,0.0702 0.469547,0.279047 0.134055,-0.182386 0.300566,-0.279047 0.529166,-0.279047 0.539398,0 0.574323,0.414867 0.574323,0.743303 v 0.957792 h 0.26317 c -0.109361,-0.08537 -0.176742,-0.218017 -0.176742,-0.400403 0,-0.560564 0.600781,-0.517172 0.986367,-0.5969 0.09454,-0.02011 0.147108,-0.05362 0.147108,-0.159103 0,-0.129822 -0.153458,-0.179211 -0.268111,-0.179211 -0.153458,0 -0.251178,0.0695 -0.277636,0.215195 h -0.519642 c 0.0099,-0.225073 0.114653,-0.371476 0.264584,-0.461081 0.150283,-0.08572 0.346427,-0.119592 0.539044,-0.119592 0.354894,0 0.698853,0.0702 0.775053,0.42157 V 73.71936 Z" />
  </g>
</svg>
