<?xml version="1.0" encoding="UTF-8" standalone="no"?>
<!-- Created with Inkscape (http://www.inkscape.org/) -->

<svg
   xmlns:dc="http://purl.org/dc/elements/1.1/"
   xmlns:cc="http://creativecommons.org/ns#"
   xmlns:rdf="http://www.w3.org/1999/02/22-rdf-syntax-ns#"
   xmlns:svg="http://www.w3.org/2000/svg"
   xmlns="http://www.w3.org/2000/svg"
   xmlns:sodipodi="http://sodipodi.sourceforge.net/DTD/sodipodi-0.dtd"
   xmlns:inkscape="http://www.inkscape.org/namespaces/inkscape"
   width="215.211mm"
   height="53mm"
   viewBox="0 0 215.21099 53.000001"
   version="1.1"
   id="svg96496"
   inkscape:version="0.92.0 r15299"
   sodipodi:docname="Prima Love HD.svg">
  <defs
     id="defs96490">
    <clipPath
       clipPathUnits="userSpaceOnUse"
       id="clipPath85916">
      <path
         d="m 289.404,506.824 h 20.976 v 6.541 h -20.976 z"
         id="path85914"
         inkscape:connector-curvature="0" />
    </clipPath>
  </defs>
  <sodipodi:namedview
     id="base"
     pagecolor="#ffffff"
     bordercolor="#666666"
     borderopacity="1.0"
     inkscape:pageopacity="0.0"
     inkscape:pageshadow="2"
     inkscape:zoom="1.4"
     inkscape:cx="256.03779"
     inkscape:cy="0.37253089"
     inkscape:document-units="mm"
     inkscape:current-layer="layer1"
     showgrid="false"
     fit-margin-top="0"
     fit-margin-left="0"
     fit-margin-right="0"
     fit-margin-bottom="0"
     inkscape:window-width="1920"
     inkscape:window-height="1017"
     inkscape:window-x="-8"
     inkscape:window-y="-8"
     inkscape:window-maximized="1" />
  <metadata
     id="metadata96493">
    <rdf:RDF>
      <cc:Work
         rdf:about="">
        <dc:format>image/svg+xml</dc:format>
        <dc:type
           rdf:resource="http://purl.org/dc/dcmitype/StillImage" />
        <dc:title></dc:title>
      </cc:Work>
    </rdf:RDF>
  </metadata>
  <g
     inkscape:label="Layer 1"
     inkscape:groupmode="layer"
     id="layer1"
     transform="translate(-12.17512,-19.123969)">
    <g
       id="g4533"
       transform="matrix(22.968395,0,0,22.968395,-267.46783,-1584.4476)"
       style="fill:#7837f5;fill-opacity:1">
      <g
         transform="matrix(0.35277777,0,0,-0.35277777,12.875736,70.779876)"
         id="g85918"
         style="fill:#7837f5;fill-opacity:1">
        <path
           inkscape:connector-curvature="0"
           id="path85920"
           style="fill:#7837f5;fill-opacity:1;fill-rule:nonzero;stroke:none"
           d="m 0,0 c 0,-0.156 0.091,-0.222 0.365,-0.222 h 0.6 V 0.163 H 0.257 C 0.099,0.163 0,0.117 0,0 M 0,0.782 C 0,0.596 0.145,0.578 0.362,0.578 H 0.965 V 0.963 H 0.23 C 0.086,0.963 0,0.894 0,0.782 m -0.211,-3.154 c -0.176,0 -0.259,-0.093 -0.275,-0.218 l -0.036,-0.285 h 0.503 l 0.025,0.285 c 0.011,0.127 -0.045,0.218 -0.217,0.218 M 0.464,2.057 C 0.487,1.96 0.528,1.879 0.634,1.879 c 0.109,0 0.153,0.084 0.153,0.181 0,0.206 -0.119,0.275 -0.396,0.265 C 0.43,2.264 0.437,2.152 0.464,2.057 m -0.906,-2.822 -0.045,-0.31 h -0.347 l 0.055,0.31 z m -0.873,0.001 -0.671,-2.967 h 2.951 v 0.408 h -1.968 l 0.127,0.795 c 0.045,0.285 0.242,0.541 0.673,0.541 0.452,0 0.617,-0.206 0.598,-0.541 L 0.377,-2.875 h 0.588 v 0.971 h -1.459 l 0.049,0.363 h 0.257 l 0.001,0.004 c -0.18,0.053 -0.239,0.183 -0.219,0.331 0.004,0.026 0.01,0.071 0.01,0.071 H 0.016 L 0.007,-1.229 C -0.004,-1.35 0.018,-1.531 0.295,-1.531 h 0.67 v 0.457 h -1.331 l 0.042,0.313 h 1.289 v 0.124 h -1.289 v 0.402 h 0.184 v 0.005 c -0.134,0.08 -0.223,0.22 -0.223,0.38 0,0.166 0.055,0.295 0.218,0.367 -0.142,0.104 -0.218,0.234 -0.218,0.413 0,0.421 0.324,0.448 0.581,0.448 H 0.965 V 1.583 C 0.898,1.498 0.795,1.445 0.653,1.445 0.215,1.445 0.249,1.914 0.187,2.215 0.171,2.289 0.145,2.33 0.062,2.33 c -0.101,0 -0.14,-0.12 -0.14,-0.209 0,-0.12 0.055,-0.196 0.169,-0.217 V 1.499 c -0.176,0.007 -0.29,0.089 -0.36,0.206 -0.067,0.118 -0.094,0.27 -0.094,0.421 0,0.277 0.055,0.545 0.329,0.605 h -1.281 z" />
      </g>
      <path
         inkscape:connector-curvature="0"
         id="path85922"
         style="fill:#7837f5;fill-opacity:1;fill-rule:nonzero;stroke:none;stroke-width:0.35277778"
         d="m 13.435136,69.81651 h 0.607483 v 2.278944 h -0.607483 z" />
      <g
         transform="matrix(0.35277777,0,0,-0.35277777,15.164876,71.608903)"
         id="g85924"
         style="fill:#7837f5;fill-opacity:1">
        <path
           inkscape:connector-curvature="0"
           id="path85926"
           style="fill:#7837f5;fill-opacity:1;fill-rule:nonzero;stroke:none"
           d="M 0,0 C 0.156,0 0.297,0.028 0.424,0.085 0.55,0.141 0.656,0.219 0.744,0.317 0.831,0.416 0.898,0.53 0.946,0.661 0.994,0.793 1.018,0.93 1.018,1.073 V 1.091 C 1.018,1.24 0.993,1.38 0.942,1.511 0.891,1.642 0.819,1.757 0.726,1.855 0.632,1.953 0.523,2.032 0.397,2.092 0.27,2.151 0.132,2.181 -0.018,2.181 -0.174,2.181 -0.315,2.153 -0.442,2.096 -0.568,2.04 -0.675,1.962 -0.762,1.864 -0.849,1.765 -0.916,1.651 -0.964,1.52 -1.013,1.388 -1.037,1.251 -1.037,1.108 V 1.091 c 0,-0.149 0.026,-0.29 0.077,-0.421 C -0.909,0.539 -0.837,0.425 -0.744,0.326 -0.651,0.228 -0.541,0.149 -0.415,0.089 -0.288,0.03 -0.15,0 0,0 m -0.018,-1.46 c -0.391,0 -0.75,0.066 -1.077,0.198 -0.328,0.132 -0.612,0.314 -0.852,0.545 -0.24,0.232 -0.427,0.501 -0.559,0.807 -0.132,0.307 -0.198,0.634 -0.198,0.983 v 0.018 c 0,0.348 0.068,0.677 0.203,0.987 0.135,0.309 0.323,0.579 0.563,0.811 0.24,0.231 0.526,0.414 0.856,0.55 C -0.751,3.574 -0.391,3.641 0,3.641 0.39,3.641 0.749,3.574 1.077,3.439 1.405,3.303 1.688,3.122 1.929,2.893 2.169,2.665 2.355,2.398 2.488,2.091 2.62,1.785 2.686,1.457 2.686,1.109 V 1.091 C 2.686,0.742 2.618,0.413 2.483,0.104 2.348,-0.206 2.16,-0.476 1.92,-0.708 1.679,-0.939 1.394,-1.122 1.064,-1.257 0.733,-1.393 0.372,-1.46 -0.018,-1.46" />
      </g>
      <g
         transform="matrix(0.35277777,0,0,-0.35277777,16.013836,70.362469)"
         id="g85928"
         style="fill:#7837f5;fill-opacity:1">
        <path
           inkscape:connector-curvature="0"
           id="path85930"
           style="fill:#7837f5;fill-opacity:1;fill-rule:nonzero;stroke:none"
           d="M 0,0 H 1.803 L 2.74,-2.848 3.677,0 H 5.453 L 3.506,-4.912 H 1.947 Z" />
      </g>
      <g
         transform="matrix(0.35277777,0,0,-0.35277777,19.009131,71.081077)"
         id="g85932"
         style="fill:#7837f5;fill-opacity:1">
        <path
           inkscape:connector-curvature="0"
           id="path85934"
           style="fill:#7837f5;fill-opacity:1;fill-rule:nonzero;stroke:none"
           d="m 0,0 c -0.03,0.27 -0.12,0.485 -0.27,0.644 -0.151,0.16 -0.343,0.239 -0.577,0.239 -0.229,0 -0.415,-0.079 -0.559,-0.239 C -1.55,0.485 -1.647,0.27 -1.695,0 Z m -0.703,-2.956 c -0.385,0 -0.736,0.061 -1.055,0.184 -0.318,0.124 -0.593,0.295 -0.824,0.514 -0.232,0.219 -0.412,0.485 -0.541,0.798 -0.129,0.312 -0.194,0.658 -0.194,1.036 v 0.018 c 0,0.355 0.06,0.687 0.18,0.996 0.12,0.31 0.29,0.58 0.51,0.812 0.219,0.231 0.479,0.413 0.779,0.545 0.301,0.132 0.631,0.198 0.992,0.198 0.42,0 0.785,-0.072 1.095,-0.216 C 0.548,1.785 0.804,1.591 1.005,1.348 1.206,1.104 1.357,0.822 1.456,0.5 1.555,0.179 1.604,-0.162 1.604,-0.523 v -0.171 c 0,-0.06 -0.003,-0.12 -0.009,-0.18 h -3.262 c 0.066,-0.271 0.19,-0.472 0.374,-0.604 0.183,-0.132 0.41,-0.198 0.68,-0.198 0.204,0 0.392,0.039 0.563,0.117 0.172,0.078 0.344,0.204 0.519,0.378 l 0.946,-0.784 c -0.234,-0.3 -0.524,-0.541 -0.87,-0.721 -0.345,-0.18 -0.761,-0.27 -1.248,-0.27" />
      </g>
    </g>
    <g
       transform="matrix(1.7266427,0,0,1.7266449,190.14192,-23.250314)"
       id="g4501"
       style="fill:#7837f5;fill-opacity:1">
      <path
         d="m 6.634,24.542 v 4.0115 H 2.8647 v -4.0111 h -2.8669 v 11.003 h 2.8669 v -4.5258 h 3.7694 v 4.5258 h 2.8665 v -11.004 z"
         id="path4-2"
         inkscape:connector-curvature="0"
         style="fill:#7837f5;fill-opacity:1" />
      <path
         d="m 11.443,24.542 v 11.003 h 4.7307 c 3.341,0 5.3966,-1.9412 5.3966,-5.5466 0,-3.4098 -2.0232,-5.4561 -5.3966,-5.4561 z m 2.8669,2.4663 h 1.358 c 1.9559,0 3.0355,0.9706 3.0355,2.9713 0,2.2065 -0.8654,3.0541 -3.0355,3.0997 h -1.358 z"
         id="path6-5"
         inkscape:connector-curvature="0"
         style="fill:#7837f5;fill-opacity:1" />
    </g>
  </g>
</svg>
