<svg width="800" height="291.71" version="1.1" viewBox="0 0 211.67 77.182" xmlns="http://www.w3.org/2000/svg">
 <path d="m8.0263 41.751-8.0267 35.431h35.269v-4.8517h-23.522l1.5113-9.5175c0.55581-3.4018 2.9017-6.469 8.0416-6.469 5.4019 0 7.378 2.4723 7.1623 6.469l-0.21563 4.1453h7.0229v-11.6h-17.442l0.58741-4.3126h3.0709v-0.07435c-2.1303-0.63202-2.8404-2.1749-2.5932-3.9409 0.03161-0.31601 0.10781-0.85509 0.10781-0.85509h4.9242l-0.10781 1.1339c-0.13942 1.4313 0.13757 3.5877 3.4408 3.5877h8.0118v-5.4466h-15.914l0.50934-3.755h15.405v-1.4871h-15.405v-4.7959h2.2084v-0.05577c-1.621-0.94804-2.6712-2.621-2.6712-4.5357 0-1.9704 0.64875-3.5133 2.5932-4.387-1.6972-1.2455-2.5932-2.7883-2.5932-4.9261 0-5.0376 3.8739-5.3536 6.93-5.3536h8.9376v-2.4537c-0.80304 1.0224-2.0373 1.6544-3.7364 1.6544-5.2309 0-4.8313-5.6139-5.5711-9.2015-0.18589-0.89227-0.49447-1.3756-1.4815-1.3756-1.2046 0-1.6674 1.4128-1.6674 2.5095 0 1.4128 0.64876 2.3236 2.0057 2.5653v4.8517c-2.0987-0.09295-3.4724-1.0596-4.3052-2.4723-0.80304-1.3942-1.1116-3.2159-1.1116-5.019 0-3.2902 0.64875-6.5061 3.9353-7.2125h-15.31zm10.417 0-0.53908 3.6992h-4.1379l0.64875-3.6992zm10.835-33.72c0.27883 1.1711 0.77144 2.1377 2.0373 2.1377 1.2975 0 1.8217-1.0038 1.8217-2.1563 0-2.4723-1.4202-3.2902-4.7383-3.1787 0.46286 0.72497 0.55581 2.082 0.87926 3.1973m-8.0564 52.923c-2.1154 0-3.1025 1.0967-3.3033 2.6025l-0.41639 3.4018h6.0042l0.29184-3.4018c0.12454-1.5057-0.53908-2.6025-2.5764-2.6025m2.5151-37.68c0 2.2121 1.7288 2.4352 4.3219 2.4352h7.2088v-4.5915h-8.7833c-1.7288 0-2.7474 0.81791-2.7474 2.1563m0 9.3316c0 1.8775 1.08 2.6582 4.3535 2.6582h7.1772v-4.5915h-8.4747c-1.8831 0-3.056 0.53908-3.056 1.9333" fill="#f8ba0f" stroke-width="1.8589"/>
 <g transform="matrix(1.1502 0 0 1.1502 198.97 -165.55)" fill="#f8ba0f" fill-rule="evenodd">
  <path d="m-19.447 180.66-8.6523 29.982h6.2373l0.90579-3.822h8.0493l0.80562 3.822h6.3375l-8.7528-29.982zm2.5155 8.1495c0 0.40285 0.08436 1.0063 0.25139 1.812 0.16901 0.80374 0.31846 1.5426 0.45405 2.2127l2.0123 8.7524h-5.5338l2.1125-8.7524c0.13363-0.67011 0.28471-1.4089 0.45174-2.2127 0.169-0.80569 0.25178-1.4091 0.25178-1.812z"/>
  <path d="m-48.322 180.56v30.082h6.037v-9.5584h2.6153l4.0246 9.5584h5.9368l-4.2273-10.765c1.2754-0.87251 2.3151-2.0633 3.1208-3.5725 0.80374-1.5092 1.2067-3.2368 1.2067-5.1803v-0.70544c0-2.816-0.85493-5.1643-2.5665-7.0429-1.7096-1.8787-3.9065-2.816-6.5889-2.816zm6.037 5.634h2.9181c1.0729 0 1.9789 0.35198 2.7158 1.0555 0.73692 0.70548 1.1061 1.7939 1.1061 3.2697v0.20265c0 1.6762-0.36923 2.8847-1.1061 3.6216-0.73692 0.73692-1.6429 1.1062-2.7158 1.1062h-2.9181z"/>
  <path d="m-32.224 144.34v30.082h9.6586c1.5426 0 2.9673-0.30059 4.276-0.90388 1.3088-0.60526 2.3976-1.4422 3.2701-2.5151 0.87251-1.0749 1.5603-2.4329 2.0634-4.0757 0.50307-1.6428 0.75457-3.4037 0.75457-5.2824v-5.4336c0-1.6762-0.2515-3.252-0.75457-4.7278s-1.1909-2.7514-2.0634-3.8243c-0.87251-1.073-1.9613-1.8942-3.2701-2.4641-1.3088-0.56989-2.7334-0.85514-4.276-0.85514zm6.037 5.634h2.9181c0.87055 0 1.6094 0.13378 2.2127 0.403 0.60329 0.26725 1.1063 0.67023 1.5091 1.2067 0.46966 0.60329 0.80591 1.3088 1.0064 2.1125 0.20044 0.8057 0.30244 1.7116 0.30244 2.7178v4.828c0 1.2754-0.10201 2.3975-0.30244 3.3702-0.20044 0.97274-0.53669 1.7943-1.0064 2.4664-0.40284 0.53648-0.90586 0.9728-1.5091 1.3069-0.60329 0.33604-1.3421 0.50279-2.2127 0.50279h-2.9181z"/>
  <path d="m-100.34 143.94c-1.407 0-2.6312 0.18444-3.6708 0.55192-1.0395 0.36944-1.9965 0.85711-2.869 1.4604-1.2734 1.1398-2.2794 2.6488-3.0183 4.5274-0.73692 1.8786-1.1065 4.225-1.1065 7.0429v3.6216c0 2.8848 0.3696 5.3002 1.1065 7.2437 0.73889 1.9455 1.7449 3.4211 3.0183 4.4273 0.87251 0.67207 1.8294 1.1908 2.869 1.5602 1.0396 0.36943 2.2638 0.5523 3.6708 0.5523 1.2754 0 2.4328-0.18287 3.4723-0.5523 1.0395-0.36945 1.9949-0.88813 2.8675-1.5602 1.3422-1.0061 2.3482-2.4818 3.0183-4.4273 0.67011-1.9435 1.006-4.3255 1.006-7.1435v-3.7218c0-2.818-0.33586-5.1643-1.006-7.0429-0.6701-1.8786-1.6761-3.3877-3.0183-4.5274-0.87251-0.60329-1.8279-1.091-2.8675-1.4604-1.0395-0.36748-2.197-0.55192-3.4723-0.55192zm0 5.634c0.60526 0 1.142 0.10004 1.6116 0.30244 0.46967 0.20045 0.87067 0.503 1.2067 0.90388 0.46966 0.53647 0.83889 1.36 1.1061 2.4664 0.26922 1.1064 0.403 2.5977 0.403 4.4764v3.4213c0 1.8787-0.13378 3.3547-0.403 4.4276-0.26725 1.073-0.63648 1.8785-1.1061 2.4149-0.33604 0.46967-0.75468 0.82163-1.2578 1.0555-0.50307 0.23581-1.0241 0.35158-1.5606 0.35158-0.6701 0-1.2732-0.11577-1.8097-0.35158-0.53647-0.23385-0.97275-0.58581-1.3088-1.0555-0.46966-0.53647-0.83731-1.342-1.1065-2.4149-0.26922-1.0729-0.40262-2.549-0.40262-4.4276v-3.4213c0-1.8786 0.1334-3.37 0.40262-4.4764s0.63687-1.9299 1.1065-2.4664c0.33604-0.40088 0.77232-0.70343 1.3088-0.90388 0.53648-0.2024 1.1396-0.30244 1.8097-0.30244z"/>
  <path d="m-3.7516 180.56v30.082h14.791v-5.5338h-8.7546v-24.548z"/>
  <path d="m-63.114 186.19v24.448h5.9366v-24.448h5.634v-5.634h-17.205v5.634z"/>
  <path d="m-90.68 180.56v30.082h5.4316v-17.405l8.1513 17.405h5.3313v-30.082h-5.5338v17.607l-8.1493-17.607z"/>
  <path d="m-110.4 180.56v30.082h15.294v-5.5338h-9.2577v-6.9408h7.8487v-5.6359h-7.8487v-6.3375h9.2577v-5.634z"/>
  <path d="m-126.1 187.1c0.33603-0.46966 0.7546-0.78801 1.2577-0.95702 0.50306-0.16703 1.0572-0.25153 1.6605-0.25153 0.80569 0 1.5937 0.20241 2.364 0.60329 0.7723 0.40285 1.3913 1.2085 1.861 2.4151l5.3333-2.2127c-0.87251-2.2815-2.1636-3.9577-3.8732-5.0307-1.7116-1.073-3.606-1.6094-5.6851-1.6094-1.2754 0-2.4643 0.20045-3.5726 0.60329-1.1064 0.40285-2.0614 0.93932-2.8671 1.6094-1.2734 1.073-2.2638 2.5488-2.9673 4.4274-0.70547 1.8787-1.0572 4.225-1.0572 7.043v3.7219c0 2.8848 0.35176 5.2665 1.0572 7.1432 0.70351 1.8787 1.6939 3.3544 2.9673 4.4274 0.80569 0.67206 1.7607 1.1751 2.8671 1.5092 1.1083 0.33602 2.2972 0.50306 3.5726 0.50306 2.2127 0 4.1424-0.51879 5.7853-1.5583 1.6428-1.0396 2.9005-2.5998 3.773-4.6789l-5.3333-2.4151c-0.46967 1.2066-1.073 2.0123-1.8099 2.4151-0.73889 0.40285-1.5426 0.6033-2.4151 0.6033-0.60329 0-1.1575-0.0845-1.6605-0.25154-0.50308-0.16703-0.92165-0.48538-1.2577-0.95505-0.46966-0.46966-0.83714-1.2577-1.1064-2.366-0.26922-1.1064-0.40285-2.5979-0.40285-4.4765v-3.321c0-2.0123 0.13363-3.5549 0.40285-4.6278 0.26922-1.073 0.6367-1.8433 1.1064-2.3129z"/>
  <path d="m-74.785 174.42h4.9305l4.4274-16.399 1.9121 16.399h5.5338l-3.4213-30.082h-5.634l-5.2331 18.914-5.2311-18.914h-5.7362l-3.5215 30.082h5.6359l1.8099-16.399z"/>
  <path d="m-53.253 144.34v30.082h15.898v-5.5338h-9.9612v-6.9408h8.7526v-5.7362h-8.7526v-6.2373h9.9612v-5.634z"/>
  <path d="m-3.7516 159.93v14.487h6.0368v-14.487l8.4519-15.595h-6.5399l-5.0307 9.4561-4.8283-9.4561h-6.5399z"/>
  <path d="m-126.1 150.78c0.33603-0.40088 0.7546-0.70351 1.2577-0.90395 0.50306-0.20241 1.0572-0.30263 1.6605-0.30263 0.80569 0 1.5937 0.21813 2.364 0.65439 0.7723 0.43625 1.3913 1.2911 1.861 2.5645l5.3333-2.4132c-0.87251-2.2815-2.1636-3.9243-3.8732-4.9305-1.7116-1.0061-3.606-1.5092-5.6851-1.5092-1.2754 0-2.4643 0.18472-3.5726 0.5522-1.1064 0.36944-2.0614 0.85678-2.8671 1.4601-1.2734 1.1398-2.2638 2.649-2.9673 4.5276-0.70547 1.8786-1.0572 4.225-1.0572 7.043v3.6217c0 2.8848 0.35176 5.2999 1.0572 7.2434 0.70351 1.9455 1.6939 3.4213 2.9673 4.4274 0.80569 0.67206 1.7607 1.1909 2.8671 1.5603 1.1083 0.36944 2.2972 0.55219 3.5726 0.55219 2.2127 0 4.1424-0.51878 5.7853-1.5583 1.6428-1.0395 2.9005-2.6332 3.773-4.7792l-5.3333-2.3149c-0.46967 1.1398-1.073 1.9455-1.8099 2.4151-0.73889 0.46967-1.5426 0.70351-2.4151 0.70351-0.60329 0-1.1575-0.11593-1.6605-0.35175-0.50308-0.23385-0.92165-0.5856-1.2577-1.0553-0.46966-0.53647-0.83714-1.3422-1.1064-2.4151s-0.40285-2.5488-0.40285-4.4274v-3.4213c0-1.8786 0.13363-3.3702 0.40285-4.4765s0.6367-1.9297 1.1064-2.4662z"/>
 </g>
</svg>
