<svg height="3.781425mm" viewBox="0 0 8.2793061 3.781425" width="8.279306mm" xmlns="http://www.w3.org/2000/svg"><path d="m47.928354 75.403874c-.19932 0-.284692.116064-.284692.468136v.76835h.493889v-.907697c0-.202495-.05891-.328789-.209197-.328789m1.001889 0c-.238478 0-.261762.185561-.261762.464255v.772231h.493537v-.941211c0-.185561-.08819-.295275-.231775-.295275m-4.041423-.269875c0-.226131-.118886-.33267-.2794-.352778l-.364066-.04586v.644525l.364066.03104c.163336.01411.2794-.05715.2794-.276931m5.675136.864306c-.123825.02963-.2286.08255-.2286.218369 0 .139347.10795.195792.232128.195792.264584 0 .352778-.1524.340078-.507295-.07867.04939-.222603.05927-.343606.09313m-3.615972-1.161344-.396875-.0575v-.444853l.396875.07091zm.0011-1.1176-3.800476-.860072-.000707 3.781425.522464-.000344v-2.522018l1.01847.162984c.365477.05856.693561.310091.693561.862541 0 .578556-.263878.78987-.693561.766587l-.443441-.02328v.753181h1.242836v-1.869017l.465314.06244v.329494l.0056.000352c.06773-.230011.233892-.305152.423686-.2794.03351.0042.09102.01199.09102.01199v.528109l-.12065-.01129c-.154513-.01482-.385936.01411-.385936.369005v.858309h.585259v-1.70568l.401108.05362v1.652059h.15875v-1.651h.515408v.235655h.006c.101953-.172861.281517-.28575.487187-.28575.212372 0 .378177.0702.469547.279047.134055-.182386.300566-.279047.529166-.279047.539398 0 .574323.414867.574323.743303v.957792h.26317c-.109361-.08537-.176742-.218017-.176742-.400403 0-.560564.600781-.517172.986367-.5969.09454-.02011.147108-.05362.147108-.159103 0-.129822-.153458-.179211-.268111-.179211-.153458 0-.251178.0695-.277636.215195h-.519642c.0099-.225073.114653-.371476.264584-.461081.150283-.08572.346427-.119592.539044-.119592.354894 0 .698853.0702.775053.42157v-1.641463z" fill="#f36917" transform="translate(-43.147901 -72.859281)"/></svg>