<svg height="3.781425mm" viewBox="0 0 9.66749 3.781425" width="9.66749mm" xmlns="http://www.w3.org/2000/svg"><g transform="translate(-41.759717 -72.859281)"><path d="m47.928354 75.403874c-.19932 0-.284692.116064-.284692.468136v.76835h.493889v-.907697c0-.202495-.05891-.328789-.209197-.328789m1.001889 0c-.238478 0-.261762.185561-.261762.464255v.772231h.493537v-.941211c0-.185561-.08819-.295275-.231775-.295275m-4.041423-.269875c0-.226131-.118886-.33267-.2794-.352778l-.364066-.04586v.644525l.364066.03104c.163336.01411.2794-.05715.2794-.276931m5.675136.864306c-.123825.02963-.2286.08255-.2286.218369 0 .139347.10795.195792.232128.195792.264584 0 .352778-.1524.340078-.507295-.07867.04939-.222603.05927-.343606.09313m-3.615972-1.161344-.396875-.0575v-.444853l.396875.07091zm.0011-1.1176-3.800476-.860072-.000707 3.781425.522464-.000344v-2.522018l1.01847.162984c.365477.05856.693561.310091.693561.862541 0 .578556-.263878.78987-.693561.766587l-.443441-.02328v.753181h1.242836v-1.869017l.465314.06244v.329494l.0056.000352c.06773-.230011.233892-.305152.423686-.2794.03351.0042.09102.01199.09102.01199v.528109l-.12065-.01129c-.154513-.01482-.385936.01411-.385936.369005v.858309h.585259v-1.70568l.401108.05362v1.652059h.15875v-1.651h.515408v.235655h.006c.101953-.172861.281517-.28575.487187-.28575.212372 0 .378177.0702.469547.279047.134055-.182386.300566-.279047.529166-.279047.539398 0 .574323.414867.574323.743303v.957792h.26317c-.109361-.08537-.176742-.218017-.176742-.400403 0-.560564.600781-.517172.986367-.5969.09454-.02011.147108-.05362.147108-.159103 0-.129822-.153458-.179211-.268111-.179211-.153458 0-.251178.0695-.277636.215195h-.519642c.0099-.225073.114653-.371476.264584-.461081.150283-.08572.346427-.119592.539044-.119592.354894 0 .698853.0702.775053.42157v-1.641463z" fill="#f36917"/><g fill="#f36917"><path d="m41.781025 76.639972v-.484717c0-.190147.08714-.369006.328789-.369006.253294 0 .352072.144286.352072.369006v.218722h.340078v.265995zm.474839-.265995v-.178858c0-.08431-.03422-.142875-.127353-.142875-.09737 0-.134408.06138-.134408.142875v.178858z"/><path d="m41.781025 75.624395v-.265994h.792339v-.47625h.2286v.742244z"/><path d="m42.380218 73.904039c.29598 0 .443441.135819.443441.444853 0 .30868-.147461.4445-.443441.4445h-.599017v-.265995h.614892c.131586 0 .198614-.04692.198614-.178505 0-.131586-.06703-.178859-.198614-.178859h-.614892v-.265994z"/><path d="m42.458923 73.481411c.120297-.0056.15875-.07867.15875-.192969 0-.08008-.02858-.162984-.104423-.162984-.09137 0-.107244.145698-.148872.293159-.04127.144286-.105833.298802-.294569.298802-.222956 0-.310092-.224719-.310092-.416277 0-.201436.09984-.40887.328789-.40887v.265995c-.09137-.0042-.12312.08431-.12312.164394 0 .05715.02011.128764.08749.128764.08008 0 .09278-.147461.134409-.295981.04127-.147461.110066-.29598.294569-.29598.258939 0 .341842.220133.341842.4445 0 .233186-.103011.443442-.364772.443442z"/></g></g></svg>