<svg height="54" viewBox="0 0 240.71583 53.999508" width="240.71584" xmlns="http://www.w3.org/2000/svg"><g fill="#1de11c"><g stroke-width=".322579"><path d="m16.252824 23.529899c0 1.245155.7229 1.775153 2.916115 1.775153h4.803525v-3.076437h-5.67094c-1.261284 0-2.0487.361289-2.0487 1.301284"/><path d="m16.252824 17.278316c0 1.486122 1.156769 1.630638 2.899986 1.630638h4.819654v-3.076437h-5.880294c-1.156768 0-1.839668.546126-1.839668 1.445799"/><path d="m19.381841 4.9364404c.313225.4899976.369353 1.3896707.578385 2.1448283.184838.770964.514191 1.4296705 1.365477 1.4296705.867738 0 1.220962-.6745129 1.220962-1.453864 0-1.6467662-.947738-2.200957-3.164824-2.1206348"/><path d="m12.365746 44.248186-.289353 2.274182h4.024497l.192902-2.274182c.08839-1.01935-.353547-1.745153-1.727088-1.745153-1.4058 0-2.072571.738706-2.200958 1.745153"/><path d="m21.472154 11.971891c-3.502241 0-3.229339-3.751273-3.727401-6.1531968l-.996125-.9238665c-.803221 0-1.116446.9561244-1.116446 1.6709596 0 .9638663.433547 1.5745085 1.341284 1.7351529v3.2454688c-1.4058-.064194-2.313537-.715158-2.875792-1.6548314-.538062-.9319309-.747094-2.1609572-.747094-3.3577256 0-2.217086.441934-4.3619143 2.627084-4.8438475l-9.0531815.0000323h-1.1890265v27.9547032l-5.735456 22.355053v1.367735h23.970529v-3.261274h-15.7447625l1.0203177-6.354808c.3612885-2.280634 1.9357968-4.329011 5.3822318-4.329011 3.614821 0 4.931912 1.645153 4.787719 4.329011l-.152903 2.761277h4.707397v-7.751575h-11.663815l.385805-2.906438h2.056442v-.03226c-1.429993-.419353-1.903862-1.461283-1.743218-2.641922l.08032-.570965h3.293532l-.07226.754835c-.08839.964511.08839 2.409665 2.305473 2.409665h5.358038v-3.655786h-10.643814l.329353-2.498053h10.314466v-.996124h-10.306401v-3.21321h1.469993v-.04032c-1.076447-.634513-1.783217-1.759023-1.783217-3.044501 0-1.325155.44161-2.353537 1.742894-2.931921-1.140639-.83548-1.742894-1.871604-1.742894-3.301597 0-3.36579 2.594503-3.582563 4.643203-3.582563h5.976422v-1.638702c-.538384.6829-1.365799 1.10064-2.498375 1.10064m-9.117375 20.154738h-2.779341l.441611-2.482246h2.699341z"/><path d="m65.399683 43.296577.499997.667739c0 .441933-.30645 1.212897-.916124 2.322569-.603223 1.099995-1.63225 2.377408-3.067727 3.816111-2.483859 2.538697-6.048358 3.81611-10.699948 3.81611h-4.064497c-2.322569 0-4.435462-.348385-6.348356-1.038704-1.903217-.69032-3.532241-1.687089-4.890299-2.987083-1.351606-1.299993-2.393537-2.851599-3.109662-4.641913-.715158-1.799991-1.076769-3.799981-1.076769-6.019325v-24.547946c0-2.209344.369675-4.217398 1.115478-6.016745.748384-1.7916042 1.783862-3.3257903 3.109662-4.6028809 1.332252-1.2692841 2.948373-2.2653438 4.85159-2.9883403 1.912894-.71493201 4.025787-1.07641413 6.34513-1.07641413h4.067723c1.87741.00001227 3.596756.22493439 5.148362.6667387 1.541928.44180433 2.954824 1.13267193 4.225786 2.07250603.825802.6103519 1.574186 1.2690584 2.238698 1.9919581l1.654831 2.0725706 1.038705 1.8235395.377417 1.1648331-.499997.6587073-7.212869 3.566756-.416127.08032-.580642-.369676-.577416-1.036124c-.722578-1.269346-1.493542-2.257405-2.329021-2.9480476-.829029-.6909644-1.848379-1.0364466-3.067727-1.0364466h-4.067723c-1.65483 0-3.067727.5864488-4.22256 1.7432182-1.16451 1.164833-1.745153 2.570632-1.745153 4.233527v24.547946c0 1.664508.580643 3.070953 1.745153 4.235463 1.154833 1.154833 2.56773 1.735476 4.22256 1.735476h4.067723c1.219348 0 2.222569-.329031 3.025791-.990318.803222-.664513 1.567735-1.661282 2.28386-2.987082.496772-1.051608.916125-1.574186 1.245155-1.574186l.416127.08064 7.212869 3.567725z"/><path d="m81.573798 13.271884v27.456964c0 1.551605.370966 2.625793 1.116123 3.229016.748384.609675 1.480638.916125 2.203215.916125l.416127.08064.409676.745157v7.470932l-.496772.738706-1.158059.09032c-1.606444-.058057-3.154823-.435475-4.641913-1.125794-1.493541-.690319-2.829018-1.638702-3.983851-2.858051-1.164511-1.212897-2.090313-2.61289-2.780632-4.187076s-1.035479-3.277403-1.035479-5.099975v-27.456964c0-1.823539.34516-3.5264347 1.035479-5.1009432s1.616121-2.9722436 2.780632-4.185141c1.154833-1.2208973 2.49031-2.1767959 3.983851-2.8676312 1.48709-.69083536 3.035469-1.06031744 4.641913-1.11657523l1.158059.08035768.496772.74706089v7.46254446l-.409676.7470931-.416127.088064c-.722577 0-1.454831.3054824-2.203215.9077385-.745157.610642-1.116123 1.687088-1.116123 3.237403"/><path d="m98.16404 13.271884c0-1.550315-.36774-2.626761-1.116124-3.237403-.745157-.6025786-1.483864-.9077384-2.199989-.9077384l-.419353-.0883866-.409675-.7470932v-7.46254441l.499997-.74693186 1.154833-.08031896c1.551606.0562223 3.070953.42573987 4.564491 1.11657523 1.49354.6908353 2.81934 1.6467339 3.98385 2.8677603 1.15806 1.2128973 2.09677 2.6106324 2.81935 4.1851409.71612 1.5745085 1.07741 3.277404 1.07741 5.100943v27.456964c0 1.822572-.36129 3.525789-1.07741 5.099975-.72258 1.574186-1.66129 2.974179-2.81935 4.187077-1.16451 1.219349-2.49031 2.167731-3.98385 2.85805-1.493538.69032-3.012885 1.067737-4.564491 1.125801l-1.154833-.09032-.499997-.738706v-7.470931l.409675-.745158.419353-.08065c.716125 0 1.454832-.30645 2.199989-.916124.748384-.603223 1.116124-1.677412 1.116124-3.229017v-27.457283z"/><path d="m126.3639 13.271884v27.456964c0 1.551605.37097 2.625793 1.11613 3.229016.74838.609675 1.48063.916125 2.20321.916125l.41613.08064.40967.745157v7.470932l-.49677.738706-1.15806.09032c-1.60644-.05806-3.15482-.435482-4.64191-1.125801-1.49354-.690319-2.82902-1.638702-3.98385-2.858051-1.16451-1.212897-2.09031-2.61289-2.78063-4.187076s-1.03548-3.277403-1.03548-5.099975v-27.456957c0-1.823539.34516-3.5264347 1.03548-5.1009432s1.61612-2.9722436 2.78063-4.185141c1.15483-1.2208973 2.49031-2.1767959 3.98385-2.8676312 1.48709-.69083536 3.03547-1.06031744 4.64191-1.11657523l1.15806.08035768.49677.74706089v7.46254446l-.40967.7470931-.41613.088064c-.72258 0-1.45483.3054824-2.20321.9077385-.74516.610642-1.11613 1.687088-1.11613 3.237403"/><path d="m142.95415 13.271884c0-1.550315-.37097-2.626761-1.11935-3.237403-.74516-.6025786-1.48387-.9077384-2.19999-.9077384l-.41613-.0883866-.40968-.7470932v-7.46254441l.49678-.74693186 1.15805-.08031896c1.54838.0562223 3.06773.42573987 4.56127 1.11657523 1.49354.6908353 2.81934 1.6467339 3.98385 2.8677603 1.15806 1.2128973 2.09677 2.6106324 2.81935 4.1851409.71612 1.5745085 1.07741 3.277404 1.07741 5.100943v27.456964c0 1.822572-.36129 3.525789-1.07741 5.099975-.72258 1.574186-1.66129 2.974179-2.81935 4.187077-1.16451 1.219349-2.49031 2.167731-3.98385 2.85805-1.49354.69032-3.01289 1.067737-4.56127 1.125801l-1.15805-.09032-.49678-.738706v-7.470931l.40968-.745158.41613-.08065c.71612 0 1.45483-.30645 2.19999-.916124.74838-.603223 1.11935-1.677412 1.11935-3.229017v-27.457283z"/><path d="m193.54745 52.254598-.8258.829029h-29.28051l-.82903-.829029v-50.5997546l.82903-.82602823h7.88061l.8258.82738303v41.8901198l.82903.829028h19.74184l.82903.825803v7.054804z"/></g><g transform="matrix(1.9083945 0 0 1.9083969 199.55119 -45.144727)"><path d="m6.634 24.542v4.0115h-3.7693v-4.0111h-2.8669v11.003h2.8669v-4.5258h3.7694v4.5258h2.8665v-11.004z" fill="#1de11c"/><path d="m11.443 24.542v11.003h4.7307c3.341 0 5.3966-1.9412 5.3966-5.5466 0-3.4098-2.0232-5.4561-5.3966-5.4561zm2.8669 2.4663h1.358c1.9559 0 3.0355.9706 3.0355 2.9713 0 2.2065-.8654 3.0541-3.0355 3.0997h-1.358z" fill="#1de11c"/></g></g></svg>