<?xml version="1.0" encoding="UTF-8"?>
<!-- Created with Inkscape (http://www.inkscape.org/) -->
<svg id="svg77850" width="211.67mm" height="51.677mm" version="1.1" viewBox="0 0 211.67 51.677" xmlns="http://www.w3.org/2000/svg" xmlns:cc="http://creativecommons.org/ns#" xmlns:dc="http://purl.org/dc/elements/1.1/" xmlns:rdf="http://www.w3.org/1999/02/22-rdf-syntax-ns#">
 <defs id="defs77844">
  <clipPath id="clipPath1912">
   <path id="path1910" d="m36.311 374.51h24.507v7.457h-24.507z"/>
  </clipPath>
 </defs>
 <metadata id="metadata77847">
  <rdf:RDF>
   <cc:Work rdf:about="">
    <dc:format>image/svg+xml</dc:format>
    <dc:type rdf:resource="http://purl.org/dc/dcmitype/StillImage"/>
    <dc:title/>
   </cc:Work>
  </rdf:RDF>
 </metadata>
 <g id="layer1" transform="translate(21.016 -98.135)">
  <g id="g1906" transform="matrix(9.3175 0 0 -9.3175 -367.68 3648.2)">
   <g id="g1908" clip-path="url(#clipPath1912)">
    <g id="g1914" transform="translate(38.888 378.69)">
     <path id="path1916" d="m0 0c0-0.132 0.077-0.188 0.31-0.188h0.508v0.326h-0.601c-0.133 0-0.217-0.039-0.217-0.138m0 0.662c0-0.157 0.123-0.172 0.307-0.172h0.511v0.326h-0.623c-0.122 0-0.195-0.059-0.195-0.154m-0.178-2.672c-0.15 0-0.22-0.079-0.234-0.185l-0.03-0.241h0.426l0.021 0.241c9e-3 0.108-0.038 0.185-0.183 0.185m0.571 3.753c0.02-0.082 0.055-0.151 0.145-0.151 0.092 0 0.129 0.071 0.129 0.153 0 0.175-0.101 0.233-0.336 0.225 0.033-0.052 0.04-0.147 0.062-0.227m-0.768-2.391-0.038-0.263h-0.294l0.047 0.263zm-0.739 0-0.569-2.513h2.501v0.345h-1.668l0.108 0.674c0.038 0.241 0.205 0.458 0.57 0.458 0.383 0 0.522-0.174 0.507-0.458l-0.015-0.294h0.498v0.822h-1.236l0.041 0.308h0.218v4e-3c-0.152 0.044-0.202 0.155-0.185 0.28 3e-3 0.022 8e-3 0.06 8e-3 0.06h0.349l-7e-3 -0.08c-0.01-0.102 9e-3 -0.255 0.244-0.255h0.568v0.387h-1.128l0.035 0.265h1.093v0.106h-1.092v0.34h0.156v4e-3c-0.115 0.067-0.189 0.186-0.189 0.322 0 0.141 0.046 0.25 0.184 0.311-0.12 0.088-0.184 0.198-0.184 0.35 0 0.356 0.274 0.379 0.491 0.379h0.634v0.174c-0.057-0.072-0.144-0.116-0.265-0.116-0.371 0-0.342 0.397-0.395 0.652-0.013 0.063-0.035 0.097-0.105 0.097-0.086 0-0.119-0.101-0.119-0.177 0-0.101 0.046-0.166 0.143-0.184v-0.343c-0.149 6e-3 -0.246 0.076-0.305 0.175-0.057 0.099-0.079 0.229-0.079 0.356 0 0.235 0.046 0.462 0.278 0.513h-1.085z" fill="#ef279d"/>
    </g>
    <path id="path1918" d="m40.232 381.01h1.459v-5.473h-1.459z" fill="#ef279d"/>
    <g id="g1920" transform="translate(44.386 376.7)">
     <path id="path1922" d="m0 0c0.132 0 0.252 0.024 0.359 0.072s0.197 0.114 0.271 0.197 0.131 0.18 0.172 0.291c0.041 0.112 0.061 0.228 0.061 0.349v0.015c0 0.126-0.022 0.245-0.065 0.356s-0.104 0.208-0.183 0.292c-0.079 0.083-0.172 0.15-0.279 0.2-0.107 0.051-0.224 0.076-0.351 0.076-0.133 0-0.252-0.024-0.359-0.072s-0.198-0.114-0.271-0.197c-0.074-0.083-0.131-0.18-0.172-0.292-0.041-0.111-0.061-0.227-0.061-0.348v-0.015c0-0.126 0.021-0.245 0.065-0.356 0.043-0.111 0.104-0.208 0.183-0.292 0.079-0.083 0.172-0.15 0.279-0.2 0.107-0.051 0.224-0.076 0.351-0.076m-0.015-1.237c-0.331 0-0.635 0.056-0.913 0.168-0.277 0.112-0.518 0.266-0.722 0.462-0.203 0.196-0.361 0.424-0.473 0.683-0.112 0.26-0.168 0.537-0.168 0.833v0.015c0 0.295 0.057 0.574 0.172 0.836 0.114 0.262 0.273 0.491 0.477 0.687s0.446 0.352 0.726 0.466c0.28 0.115 0.585 0.172 0.916 0.172s0.635-0.057 0.913-0.172c0.277-0.114 0.518-0.268 0.721-0.462 0.204-0.193 0.362-0.42 0.474-0.679 0.112-0.26 0.168-0.538 0.168-0.833v-0.015c0-0.295-0.058-0.574-0.172-0.836-0.115-0.262-0.274-0.492-0.477-0.688-0.204-0.196-0.446-0.351-0.726-0.465-0.28-0.115-0.585-0.172-0.916-0.172" fill="#ef279d"/>
    </g>
    <g id="g1924" transform="translate(46.425 379.7)">
     <path id="path1926" d="m0 0h1.527l0.794-2.413 0.795 2.413h1.504l-1.649-4.162h-1.321z" fill="#ef279d"/>
    </g>
    <g id="g1928" transform="translate(53.619 377.97)">
     <path id="path1930" d="m0 0c-0.026 0.229-0.102 0.411-0.229 0.546s-0.29 0.202-0.489 0.202c-0.193 0-0.351-0.067-0.473-0.202s-0.204-0.317-0.245-0.546zm-0.596-2.505c-0.326 0-0.623 0.052-0.893 0.157-0.27 0.104-0.503 0.249-0.699 0.435s-0.349 0.411-0.458 0.676c-0.11 0.265-0.164 0.557-0.164 0.878v0.015c0 0.301 0.051 0.582 0.152 0.844 0.102 0.262 0.246 0.491 0.432 0.688 0.186 0.195 0.406 0.35 0.66 0.462 0.255 0.111 0.535 0.168 0.84 0.168 0.357 0 0.666-0.062 0.928-0.184s0.479-0.286 0.649-0.492c0.171-0.206 0.298-0.446 0.382-0.718s0.126-0.561 0.126-0.867v-0.145c0-0.051-2e-3 -0.102-7e-3 -0.153h-2.765c0.056-0.229 0.162-0.399 0.317-0.511s0.348-0.168 0.577-0.168c0.173 0 0.332 0.033 0.477 0.099s0.291 0.173 0.439 0.321l0.802-0.665c-0.199-0.254-0.444-0.458-0.737-0.611-0.293-0.152-0.645-0.229-1.058-0.229" fill="#ef279d"/>
    </g>
    <g id="g1932" transform="translate(55.902 381.01)">
     <path id="path1934" d="m0 0h0.547v-0.739h0.702v0.739h0.547v-1.973h-0.547v0.75h-0.702v-0.75h-0.547z" fill="#ef279d"/>
    </g>
    <g id="g1936" transform="translate(58.595 380.53)">
     <path id="path1938" d="m0 0v-1.006h0.223c0.329 0 0.547 0.18 0.547 0.499v5e-3c0 0.316-0.218 0.502-0.547 0.502zm-0.547 0.482h0.764c0.702 0 1.111-0.406 1.111-0.975v-6e-3c0-0.569-0.415-0.992-1.122-0.992h-0.753z" fill="#ef279d"/>
    </g>
   </g>
  </g>
 </g>
</svg>
