<svg height="53mm" viewBox="0 0 215.21099 53.000001" width="215.211mm" xmlns="http://www.w3.org/2000/svg"><g fill="#4a41a1" transform="matrix(22.968395 0 0 22.968395 -279.64295 -1603.571569)"><path d="m0 0c0-.156.091-.222.365-.222h.6v.385h-.708c-.158 0-.257-.046-.257-.163m0 .782c0-.186.145-.204.362-.204h.603v.385h-.735c-.144 0-.23-.069-.23-.181m-.211-3.154c-.176 0-.259-.093-.275-.218l-.036-.285h.503l.025.285c.011.127-.045.218-.217.218m.675 4.429c.023-.097.064-.178.17-.178.109 0 .153.084.153.181 0 .206-.119.275-.396.265.039-.061.046-.173.073-.268m-.906-2.822-.045-.31h-.347l.055.31zm-.873.001-.671-2.967h2.951v.408h-1.968l.127.795c.045.285.242.541.673.541.452 0 .617-.206.598-.541l-.018-.347h.588v.971h-1.459l.049.363h.257l.001.004c-.18.053-.239.183-.219.331.004.026.01.071.01.071h.412l-.009-.094c-.011-.121.011-.302.288-.302h.67v.457h-1.331l.042.313h1.289v.124h-1.289v.402h.184v.005c-.134.08-.223.22-.223.38 0 .166.055.295.218.367-.142.104-.218.234-.218.413 0 .421.324.448.581.448h.747v.205c-.067-.085-.17-.138-.312-.138-.438 0-.404.469-.466.77-.016.074-.042.115-.125.115-.101 0-.14-.12-.14-.209 0-.12.055-.196.169-.217v-.405c-.176.007-.29.089-.36.206-.067.118-.094.27-.094.421 0 .277.055.545.329.605h-1.281z" transform="matrix(.35277777 0 0 -.35277777 12.875736 70.779876)"/><path d="m13.435136 69.81651h.607483v2.278944h-.607483z"/><path d="m0 0c .156 0 .297.028.424.085.126.056.232.134.32.232.087.099.154.213.202.344.048.132.072.269.072.412v.018c0 .149-.025.289-.076.42s-.123.246-.216.344c-.094.098-.203.177-.329.237-.127.059-.265.089-.415.089-.156 0-.297-.028-.424-.085-.126-.056-.233-.134-.32-.232-.087-.099-.154-.213-.202-.344-.049-.132-.073-.269-.073-.412v-.017c0-.149.026-.29.077-.421s.123-.245.216-.344c.093-.098.203-.177.329-.237.127-.059.265-.089.415-.089m-.018-1.46c-.391 0-.75.066-1.077.198-.328.132-.612.314-.852.545-.24.232-.427.501-.559.807-.132.307-.198.634-.198.983v.018c0 .348.068.677.203.987.135.309.323.579.563.811.24.231.526.414.856.55.331.135.691.202 1.082.202.39 0 .749-.067 1.077-.202.328-.136.611-.317.852-.546.24-.228.426-.495.559-.802.132-.306.198-.634.198-.982v-.018c0-.349-.068-.678-.203-.987-.135-.31-.323-.58-.563-.812-.241-.231-.526-.414-.856-.549-.331-.136-.692-.203-1.082-.203" transform="matrix(.35277777 0 0 -.35277777 15.164876 71.608903)"/><path d="m0 0h1.803l.937-2.848.937 2.848h1.776l-1.947-4.912h-1.559z" transform="matrix(.35277777 0 0 -.35277777 16.013836 70.362469)"/><path d="m0 0c-.03.27-.12.485-.27.644-.151.16-.343.239-.577.239-.229 0-.415-.079-.559-.239-.144-.159-.241-.374-.289-.644zm-.703-2.956c-.385 0-.736.061-1.055.184-.318.124-.593.295-.824.514-.232.219-.412.485-.541.798-.129.312-.194.658-.194 1.036v.018c0 .355.06.687.18.996.12.31.29.58.51.812.219.231.479.413.779.545.301.132.631.198.992.198.42 0 .785-.072 1.095-.216.309-.144.565-.338.766-.581.201-.244.352-.526.451-.848.099-.321.148-.662.148-1.023v-.171c0-.06-.003-.12-.009-.18h-3.262c.066-.271.19-.472.374-.604.183-.132.41-.198.68-.198.204 0 .392.039.563.117.172.078.344.204.519.378l.946-.784c-.234-.3-.524-.541-.87-.721-.345-.18-.761-.27-1.248-.27" transform="matrix(.35277777 0 0 -.35277777 19.009131 71.081077)"/></g><g fill="#4a41a1" transform="matrix(1.7266427 0 0 1.7266449 177.9668 -42.374283)"><path d="m6.634 24.542v4.0115h-3.7693v-4.0111h-2.8669v11.003h2.8669v-4.5258h3.7694v4.5258h2.8665v-11.004z" fill="#4a41a1"/><path d="m11.443 24.542v11.003h4.7307c3.341 0 5.3966-1.9412 5.3966-5.5466 0-3.4098-2.0232-5.4561-5.3966-5.4561zm2.8669 2.4663h1.358c1.9559 0 3.0355.9706 3.0355 2.9713 0 2.2065-.8654 3.0541-3.0355 3.0997h-1.358z" fill="#4a41a1"/></g></svg>