<svg version="1.1" viewBox="0 0 800 192.13" xml:space="preserve" xmlns="http://www.w3.org/2000/svg"><g transform="matrix(1.3333 0 0 -1.3333 -264.91 442)"><g transform="matrix(3.3548 0 0 3.3548 242.94 270.6)"><path d="m0 0c0-1.035 0.603-1.477 2.427-1.477h3.986v2.561h-4.708c-1.05 0-1.705-0.305-1.705-1.084m0 5.197c0-1.237 0.963-1.357 2.408-1.357h4.005v2.561h-4.882c-0.962 0-1.531-0.458-1.531-1.204m-1.399-20.966c-1.173 0-1.725-0.617-1.83-1.45l-0.238-1.888h3.342l0.162 1.888c0.073 0.848-0.297 1.45-1.436 1.45m4.481 29.443c0.154-0.643 0.428-1.187 1.133-1.187 0.722 0 1.014 0.56 1.014 1.205 0 1.373-0.79 1.83-2.63 1.764 0.257-0.409 0.308-1.155 0.483-1.782m-6.021-18.759-0.299-2.06h-2.306l0.367 2.06zm-5.795 4e-3 -4.46-19.717 19.607-3e-3v2.71h-13.078l0.843 5.284c0.304 1.896 1.608 3.598 4.473 3.598 3 0 4.097-1.37 3.976-3.598l-0.121-2.3h3.907v6.448h-9.694l0.325 2.413h1.708l2e-3 0.029c-1.192 0.351-1.582 1.215-1.449 2.199 0.022 0.173 0.063 0.471 0.063 0.471h2.737l-0.057-0.624c-0.078-0.804 0.074-2.003 1.913-2.003h4.452v3.036h-8.845l0.278 2.08h8.567v0.825h-8.563v2.673h1.222v0.032c-0.895 0.528-1.481 1.459-1.481 2.528 0 1.102 0.363 1.961 1.446 2.435-0.944 0.695-1.446 1.559-1.446 2.746 0 2.798 2.152 2.979 3.855 2.979h4.967v1.365c-0.445-0.567-1.131-0.917-2.076-0.917-2.909 0-2.683 3.117-3.097 5.117-0.104 0.492-0.277 0.764-0.825 0.764-0.672 0-0.93-0.796-0.93-1.39 0-0.796 0.361-1.304 1.118-1.441v-2.696c-1.169 0.051-1.927 0.595-2.391 1.374-0.447 0.779-0.621 1.796-0.621 2.796 0 1.84 0.364 3.625 2.185 4.02h-8.51z" fill="#231f20"/></g><g transform="matrix(3.3548 0 0 3.3548 798.15 331.5)"><path d="m0 0h-9.856c0.328-0.722 0.512-1.522 0.512-2.367 0-3.163-2.563-5.728-5.725-5.728s-5.725 2.565-5.725 5.728c0 0.845 0.184 1.645 0.512 2.367h-44.569c0.328-0.722 0.512-1.522 0.512-2.367 0-3.163-2.563-5.728-5.725-5.728s-5.725 2.565-5.725 5.728c0 0.845 0.184 1.645 0.512 2.367h-78.743v-42.953h154.18zm-124.07-32.438-9.748 9.252v-9.252h-9.924v21.923h9.924v-8.162l10.308 8.162h12.193l-12.9-9.901 13.106-12.022zm46.354 0h-10.191c-0.147 0.147-0.206 0.442-0.206 0.884v2.622c0 2.358-1.118 3.743-4.329 3.743h-7.038v-7.249h-9.926v21.923h22.295c5.507 0 8.894-1.561 8.894-5.569v-0.295c0-3.3-2.945-4.538-4.771-5.009 3.092-0.619 4.859-2.534 4.859-5.363v-3.3c0-1.297 0.177-1.827 0.413-2.21zm12.705 0h-9.895v21.923h9.895zm41.364 0h-9.866v12.11l-6.685-12.11h-4.86l-6.656 12.11v-12.11h-9.777v21.923h13.282l5.861-10.873 6.007 10.873h12.694zm13.53 0h-9.895v21.923h9.895zm-80.558 16.236h-8.805v-3.212h8.805c1.649 0 2.239 0.678 2.239 1.591v0.03c0 0.913-0.59 1.591-2.239 1.591" fill="#231f20"/></g></g></svg>
