<svg height="63" viewBox="0 0 65.097484 16.668553" width="246.03773" xmlns="http://www.w3.org/2000/svg"><g fill="#d91e25"><g stroke-width=".334449"><path d="m1.3036937 7.07356-1.3036937 5.759263h5.7304995v-.789641h-3.8214478l.244986-1.544834c.088697-.5551903.4708415-1.0501792 1.3085432-1.0501792.8759297 0 1.197338.3979978 1.1618861 1.0501792l-.035452.672249h1.1414845v-1.8832996h-2.8323062l.093647-.7056936h.4991695l.00201-.00635c-.3493053-.1040191-.4631193-.3578681-.4250587-.6421523.00759-.053512.020167-.1404698.020167-.1404698h.7971997l-.01505.1839486c-.022743.2341163.020402.5852909.5592037.5852909h1.301018v-.8896422h-2.586785l.083713-.605358h2.503072v-.2408054h-2.5030717v-.779273h.3568936v-.0100336c-.2609728-.1538479-.4326135-.424754-.4326135-.7391388 0-.3210738.1058206-.5719128.4222455-.7123826-.2757221-.2010056-.4222455-.4548546-.4222455-.7993401 0-.8194073.6299402-.8695751 1.1259324-.8695751h1.4528592v-.4013089c-.1314396.1671926-.3314418.2675281-.6073647.2675281-.8505113 0-.7846242-.9096758-.9060303-1.4916556-.0304351-.1437809-.0789306-.2240828-.2404709-.2240828-.1949855 0-.2712406.2308053-.2712406.4047203 0 .2340829.1066902.3812752.3267596.4214094v.7859286c-.3414754-.0133446-.5642204-.1705705-.6985029-.3979978-.1317072-.2274273-.1819418-.5284006-.1819418-.8194072 0-.53508971.1058206-1.05683473.6376326-1.17389291h-2.4856468zm1.6934639 0-.088697.6016791h-.6733517l.1088641-.6016791zm1.7590834-5.4779883c.045485.1872931.1260884.34783.3314419.34783.2100358 0 .2963244-.163848.2963244-.3511745 0-.4046869-.2304374-.5350897-.7695739-.5184005.075921.1204027.090971.3377964.1418076.521745m-1.3087104 8.5984253c-.3441845 0-.5036512.180604-.5341198.42442l-.070803.55218h.9771682l.047827-.55218c.020401-.24716-.08863-.42442-.4200724-.42442m.4073625-6.1241498c0 .364887.2832808.3983322.7036868.3983322h1.1719196v-.7491723h-1.4274408c-.2809397 0-.4481656.1337807-.4481656.3508401m0 1.5220907c0 .3010068.1772595.4280985.7113792.4280985h1.1642272v-.7458278h-1.377273c-.3060236 0-.4983334.086958-.4983334.3177293"/><path d="m20.336016.28757028-3.480307 6.15057122-3.434822-6.05692468-.0505-.0936131h-2.761571v12.55198128h2.376615v-8.4014327l2.964248 5.2104268h1.708046l3.065586-5.2104268v8.4014327h2.396683v-12.55198128z"/><path d="m53.094245.29425597h-1.725772l-4.558579 4.56159003-4.55858-4.56159003h-1.719083v1.62195813l4.612092 4.6087478-4.612092 4.6084141v1.699015h1.672259l4.622126-4.6254703 4.62547 4.6254703h1.642159v-1.695671l-4.598714-4.5950355 4.598714-4.5990487z"/><path d="m28.649822 10.461224 3.311409-5.712105 3.306726 5.712105zm3.311409-10.46132252-7.449917 12.83626552h14.893814z"/><path d="m30.769913 16.668652h2.374943v-2.377619h-2.374943z"/></g><g transform="matrix(.3847081 0 0 .38470859 56.799215 -9.153724)"><path d="m6.634 24.542v4.0115h-3.7693v-4.0111h-2.8669v11.003h2.8669v-4.5258h3.7694v4.5258h2.8665v-11.004z" fill="#d91e25"/><path d="m11.443 24.542v11.003h4.7307c3.341 0 5.3966-1.9412 5.3966-5.5466 0-3.4098-2.0232-5.4561-5.3966-5.4561zm2.8669 2.4663h1.358c1.9559 0 3.0355.9706 3.0355 2.9713 0 2.2065-.8654 3.0541-3.0355 3.0997h-1.358z" fill="#d91e25"/></g></g></svg>