<?xml version="1.0" encoding="UTF-8"?>
<!-- Created with Inkscape (http://www.inkscape.org/) -->
<svg id="svg24" width="232.09" height="106" version="1.1" xmlns="http://www.w3.org/2000/svg" xmlns:cc="http://creativecommons.org/ns#" xmlns:dc="http://purl.org/dc/elements/1.1/" xmlns:rdf="http://www.w3.org/1999/02/22-rdf-syntax-ns#">
 <metadata id="metadata2">
  <rdf:RDF>
   <cc:Work rdf:about="">
    <dc:format>image/svg+xml</dc:format>
    <dc:type rdf:resource="http://purl.org/dc/dcmitype/StillImage"/>
    <dc:title/>
   </cc:Work>
  </rdf:RDF>
 </metadata>
 <path id="path4" d="m48.279 29.301h-11.832c-2.3259 0-3.7058 1.1144-3.7058 2.913 0 2.9952 2.3334 3.2981 5.8296 3.2981h9.7075v-6.2111z" fill="#4e91d4" stroke-width=".28572"/>
 <path id="path6" d="m42.959 14.564c1.7426 0 2.4605-1.3612 2.4605-2.913 0-3.3318-1.9146-4.4387-6.3794-4.2779 0.61328 0.98721 0.7404 2.7859 1.1667 4.3079 0.37767 1.5668 1.0396 2.883 2.7522 2.883" fill="#4e91d4" stroke-width=".28572"/>
 <path id="path8" d="m24.918 86.537-0.57588 4.5659h8.0883l0.40013-4.5659c0.16828-2.0604-0.71797-3.5187-3.4816-3.5187-2.842 0-4.177 1.4808-4.4313 3.5187" fill="#4e91d4" stroke-width=".28572"/>
 <path id="path10" d="m32.741 44.805c0 2.5091 1.4659 3.5824 5.8859 3.5824h9.6515v-6.1999h-11.409c-2.5465 0-4.1284 0.74788-4.1284 2.6176" fill="#4e91d4" stroke-width=".28572"/>
 <path id="path12" d="m20.193 57.134h5.4296l-0.73294 4.9847h-5.5868l0.88998-4.9847zm-20.193 47.79h48.285l-0.0037-6.6077h-31.695l2.0417-12.789c0.73666-4.5882 3.9076-8.7166 10.841-8.7166 7.2731 0 9.9358 3.317 9.6478 8.7166l-0.29915 5.5756h9.4646v-15.635h-23.491l0.7778-5.8411h4.1507l0.0075-0.07479c-2.8964-0.85717-3.8424-2.9572-3.5207-5.3402 0.05235-0.42256 0.15705-1.1368 0.15705-1.1368h6.6374l-0.14584 1.5107c-0.17575 1.9445 0.18697 4.835 4.6407 4.835h10.784v-7.3368h-21.442l0.68431-5.0408h20.758v-2.0043h-20.75v-6.4654h2.9541v-0.08975c-2.1576-1.2639-3.5787-3.5264-3.5787-6.1214 0-2.6662 0.88252-4.7453 3.4927-5.8934-2.2848-1.6865-3.4927-3.7807-3.4927-6.6562 0-6.776 5.209-7.2134 9.3298-7.2134h12.045v-3.3055c-1.0695 1.3724-2.741 2.2212-5.0333 2.2212-7.0451 0-6.4991-7.5537-7.5051-12.396-0.25428-1.1929-0.66937-1.8548-2.0043-1.8548-1.6229 0-2.2474 1.9333-2.2474 3.373 0 1.937 0.87129 3.1487 2.7148 3.489v6.5291c-2.8457-0.12714-4.6819-1.4397-5.8073-3.3355-1.0882-1.8809-1.492-4.349-1.492-6.7608 0-4.4499 0.88252-8.7915 5.2913-9.7449h-20.63v56.279l-11.558 45.01-0.007486 2.8001z" fill="#4e91d4" stroke-width=".28572"/>
 <path id="path14" d="m68.848 41.97v-0.19071c0-1.3462 0.50856-2.554 1.4584-3.6384l28.136-30.435h-25.391c-1.8548 0-3.4553-1.5182-3.4553-3.4404 0-1.8959 1.6005-3.5038 3.4553-3.5038h32.478c1.9183 0 3.5187 1.6079 3.5187 3.4404v0.19819c0 1.335-0.42256 2.5914-1.4023 3.6347l-28.192 30.424h26.067c1.8922 0 3.5001 1.5893 3.5001 3.5113 0 1.9108-1.6079 3.4478-3.5001 3.4478h-33.175c-1.8436 0-3.4964-1.6079-3.4964-3.4478" fill="#fff" stroke-width=".28572"/>
 <path id="path16" d="m163.21 23.218v-0.13462c0-8.668-6.3234-15.87-15.19-15.87-8.8623 0-15.063 7.0674-15.063 15.751v0.11966c0 8.6792 6.3308 15.818 15.193 15.818 8.87 0 15.059-7.0114 15.059-15.683m-38.467 0v-0.13462c0-12.561 9.7-23.083 23.409-23.083 13.712 0 23.282 10.403 23.282 22.964v0.11966c0 12.564-9.7001 23.099-23.413 23.099-13.709 0-23.278-10.407-23.278-22.964" fill="#fff" stroke-width=".28572"/>
 <path id="path18" d="m103.4 83.029v-0.11966c0-8.6643-6.3234-15.885-15.186-15.885-8.8586 0-15.044 7.0751-15.044 15.758v0.12714c0 8.668 6.3122 15.821 15.163 15.821 8.8812 0 15.066-7.0265 15.066-15.702m-38.464 0v-0.11966c0-12.568 9.6963-23.095 23.398-23.095 13.72 0 23.282 10.399 23.282 22.968v0.12714c0 12.557-9.6926 23.091-23.401 23.091-13.709 0-23.278-10.411-23.278-22.971" fill="#fff" stroke-width=".28572"/>
 <path id="path20" d="m126.93 64.242c0-2.1726 1.7276-3.9527 3.9676-3.9527h0.82643c1.7201 0 2.8607 0.88626 3.6384 2.1053l12.733 19.995 12.796-20.051c0.83763-1.3462 1.9819-2.0492 3.575-2.0492h0.82269c2.2362 0 3.9527 1.78 3.9527 3.9527v37.376c0 2.1726-1.7164 3.8927-3.9527 3.8927-2.0978 0-3.8853-1.78-3.8853-3.8927v-26.778l-10.115 15.201c-0.83763 1.2714-1.8548 2.0529-3.3281 2.0529-1.4023 0-2.4194-0.78154-3.2496-2.0529l-10.067-15.081v26.714c0 2.1764-1.7239 3.8367-3.8853 3.8367-2.1651 0-3.8293-1.6603-3.8293-3.8367v-37.433z" fill="#fff" stroke-width=".28572"/>
 <g id="g4501" transform="matrix(2.0901 0 0 2.0901 187.01 -50.481)" fill="#fff">
  <path id="path4-2" d="m6.634 24.542v4.0115h-3.7693v-4.0111h-2.8669v11.003h2.8669v-4.5258h3.7694v4.5258h2.8665v-11.004z"/>
  <path id="path6-5" d="m11.443 24.542v11.003h4.7307c3.341 0 5.3966-1.9412 5.3966-5.5466 0-3.4098-2.0232-5.4561-5.3966-5.4561zm2.8669 2.4663h1.358c1.9559 0 3.0355 0.9706 3.0355 2.9713 0 2.2065-0.8654 3.0541-3.0355 3.0997h-1.358z"/>
 </g>
</svg>
