<svg height="188.37" viewBox="0 0 158.75 49.838971" width="600" xmlns="http://www.w3.org/2000/svg"><g fill="#d91e25" stroke-width=".99999"><path d="m3.898 21.15-3.898 17.22h17.134v-2.361h-11.426l.7325-4.619c.2652-1.66 1.4078-3.14 3.9125-3.14 2.619 0 3.58 1.19 3.474 3.14l-.106 2.01h3.413v-5.631h-8.4685l.28-2.11h1.4925l.006-.019c-1.0444-.311-1.3847-1.07-1.2709-1.92.0227-.16.0603-.42.0603-.42h2.3836l-.045.55c-.068.7.061 1.75 1.672 1.75h3.89v-2.66h-7.7344l.2503-1.81h7.4841v-.72h-7.4841v-2.33h1.0671v-.03c-.7803-.46-1.2935-1.27-1.2935-2.21 0-.96.3164-1.71 1.2625-2.13-.8244-.601-1.2625-1.36-1.2625-2.39 0-2.45 1.8835-2.6 3.3665-2.6h4.344v-1.1999c-.393.4999-.991.7999-1.816.7999-2.543 0-2.346-2.7199-2.709-4.46-.091-.4299-.236-.67-.719-.67-.583 0-.811.6901-.811 1.2101 0 .6999.319 1.14.977 1.26v2.3499c-1.021-.0399-1.687-.51-2.0885-1.19-.3938-.68-.544-1.5799-.544-2.45 0-1.5999.3164-3.1599 1.9065-3.5099h-7.432zm5.0634 0-.2652 1.799h-2.0133l.3255-1.799zm5.2596-16.379c.136.56.377 1.04.991 1.04.628 0 .886-.4899.886-1.05 0-1.21-.689-1.5999-2.301-1.55.227.36.272 1.01.424 1.56m-3.913 25.709c-1.0291 0-1.5059.54-1.597 1.269l-.2117 1.651h2.9217l.143-1.651c.061-.739-.265-1.269-1.256-1.269m1.218-18.311c0 1.091.847 1.191 2.104 1.191h3.504v-2.24h-4.268c-.84 0-1.34.4-1.34 1.049m0 4.551c0 .9.53 1.28 2.127 1.28h3.481v-2.23h-4.118c-.915 0-1.49.26-1.49.95"/><path d="m60.804.86012-10.406 18.39-10.27-18.11-.151-.2799h-8.257v37.53h7.106v-25.12l8.863 15.579h5.107l9.166-15.579v25.12h7.166v-37.53z"/><path d="m158.75.88011h-5.16l-13.63 13.639-13.63-13.639h-5.14v4.8496l13.79 13.78-13.79 13.779v5.08h5l13.82-13.83 13.83 13.83h4.91v-5.07l-13.75-13.739 13.75-13.751z"/><path d="m85.662 31.279 9.901-17.079 9.887 17.079zm9.901-31.279-22.275 38.38h44.532z"/><path d="m92.001 49.839h7.101v-7.109h-7.101z"/></g></svg>