<?xml version="1.0" encoding="UTF-8" standalone="no"?>
<!-- Created with Inkscape (http://www.inkscape.org/) -->

<svg
   xmlns:dc="http://purl.org/dc/elements/1.1/"
   xmlns:cc="http://creativecommons.org/ns#"
   xmlns:rdf="http://www.w3.org/1999/02/22-rdf-syntax-ns#"
   xmlns:svg="http://www.w3.org/2000/svg"
   xmlns="http://www.w3.org/2000/svg"
   xmlns:sodipodi="http://sodipodi.sourceforge.net/DTD/sodipodi-0.dtd"
   xmlns:inkscape="http://www.inkscape.org/namespaces/inkscape"
   height="106.00002"
   width="232.09039"
   version="1.1"
   id="svg24"
   sodipodi:docname="Prima Zoom HD - Dark.svg"
   inkscape:version="0.92.0 r15299">
  <defs
     id="defs28" />
  <sodipodi:namedview
     pagecolor="#ffffff"
     bordercolor="#666666"
     borderopacity="1"
     objecttolerance="10"
     gridtolerance="10"
     guidetolerance="10"
     inkscape:pageopacity="0"
     inkscape:pageshadow="2"
     inkscape:window-width="1920"
     inkscape:window-height="1017"
     id="namedview26"
     showgrid="false"
     fit-margin-top="0"
     fit-margin-left="0"
     fit-margin-right="0"
     fit-margin-bottom="0"
     inkscape:zoom="2.6775777"
     inkscape:cx="158.33449"
     inkscape:cy="75.664475"
     inkscape:window-x="-8"
     inkscape:window-y="-8"
     inkscape:window-maximized="1"
     inkscape:current-layer="svg24" />
  <metadata
     id="metadata2">
    <rdf:RDF>
      <cc:Work
         rdf:about="">
        <dc:format>image/svg+xml</dc:format>
        <dc:type
           rdf:resource="http://purl.org/dc/dcmitype/StillImage" />
        <dc:title />
      </cc:Work>
    </rdf:RDF>
  </metadata>
  <path
     style="fill:#4e91d4;fill-rule:nonzero;stroke-width:0.2857244"
     inkscape:connector-curvature="0"
     id="path4"
     d="M 48.279039,29.301177 H 36.447477 c -2.325911,0 -3.705845,1.114354 -3.705845,2.91296 0,2.995249 2.333397,3.298117 5.829635,3.298117 h 9.707487 v -6.211077 z" />
  <path
     style="fill:#4e91d4;fill-rule:nonzero;stroke-width:0.2857244"
     inkscape:connector-curvature="0"
     id="path6"
     d="m 42.958851,14.563512 c 1.742576,0 2.460544,-1.361163 2.460544,-2.912961 0,-3.331832 -1.914582,-4.4387284 -6.379369,-4.2778656 0.613279,0.9872064 0.740398,2.7858706 1.166699,4.3078666 0.37767,1.566827 1.039551,2.88296 2.752211,2.88296" />
  <path
     style="fill:#4e91d4;fill-rule:nonzero;stroke-width:0.2857244"
     inkscape:connector-curvature="0"
     id="path8"
     d="m 24.918212,86.537491 -0.575878,4.565876 h 8.088287 l 0.400128,-4.565876 c 0.168275,-2.060416 -0.717968,-3.518697 -3.481552,-3.518697 -2.841958,0 -4.177005,1.480824 -4.4313,3.518697" />
  <path
     style="fill:#4e91d4;fill-rule:nonzero;stroke-width:0.2857244"
     inkscape:connector-curvature="0"
     id="path10"
     d="m 32.741346,44.804583 c 0,2.509146 1.465852,3.582413 5.885923,3.582413 h 9.651485 V 42.187062 H 36.869778 c -2.546548,0 -4.128432,0.747884 -4.128432,2.617607" />
  <path
     style="fill:#4e91d4;fill-rule:nonzero;stroke-width:0.2857244"
     inkscape:connector-curvature="0"
     id="path12"
     d="m 20.193187,57.133592 h 5.429621 l -0.73294,4.984748 h -5.58677 l 0.889975,-4.984748 z M 1.8572087e-4,104.92386 H 48.284754 l -0.0037,-6.607666 H 16.585602 l 2.041729,-12.788739 c 0.736655,-4.588163 3.907567,-8.716595 10.84067,-8.716595 7.273115,0 9.935781,3.316975 9.647771,8.716595 l -0.299154,5.575626 h 9.464621 V 75.468527 H 24.790121 l 0.777799,-5.841064 h 4.150719 l 0.0075,-0.07479 C 26.82975,68.6955 25.883717,66.595426 26.205443,64.212484 c 0.05235,-0.422558 0.157054,-1.136783 0.157054,-1.136783 h 6.637378 l -0.14584,1.510739 c -0.175752,1.944498 0.186973,4.835029 4.640736,4.835029 H 48.279139 V 62.084638 H 26.837237 l 0.68431,-5.04075 H 48.279139 V 55.03956 H 27.528975 v -6.465372 h 2.954105 v -0.08975 c -2.157648,-1.26393 -3.578698,-3.52641 -3.578698,-6.12136 0,-2.666208 0.882517,-4.745311 3.492695,-5.893351 -2.284795,-1.686489 -3.492695,-3.780706 -3.492695,-6.656236 0,-6.775954 5.209042,-7.213399 9.329759,-7.213399 h 12.044713 v -3.305545 c -1.069467,1.372363 -2.741012,2.221221 -5.033322,2.221221 -7.045106,0 -6.499087,-7.553696 -7.505123,-12.3961532 -0.25428,-1.1928709 -0.669366,-1.8547515 -2.004328,-1.8547515 -1.622915,0 -2.247394,1.9332971 -2.247394,3.3729767 0,1.93704 0.871288,3.148683 2.714839,3.488981 v 6.529088 c -2.845701,-0.127139 -4.68188,-1.439679 -5.807348,-3.335547 -1.088182,-1.880923 -1.492025,-4.349011 -1.492025,-6.76081 0,-4.4498725 0.882517,-8.7914549 5.291331,-9.74491722 H 11.565038 V 57.093776 L 0.00748598,102.10393 0,104.90403 Z" />
  <path
     style="fill:#231f20;fill-rule:nonzero;stroke-width:0.2857244"
     inkscape:connector-curvature="0"
     id="path14"
     d="m 68.84834,41.970197 v -0.19071 c 0,-1.34619 0.50856,-2.554033 1.458366,-3.638414 L 98.442274,7.7057087 H 73.05166 c -1.854752,0 -3.455265,-1.5182253 -3.455265,-3.4404077 0,-1.8958957 1.600485,-3.50383839 3.455265,-3.50383839 h 32.47829 c 1.91833,0 3.5187,1.60794269 3.5187,3.44040759 v 0.1981899 c 0,1.3349616 -0.42256,2.5914347 -1.40228,3.6347002 L 79.454801,38.458696 H 105.5223 c 1.89215,0 3.50012,1.589256 3.50012,3.511267 0,1.910839 -1.60794,3.447836 -3.50012,3.447836 H 72.346835 c -1.843551,0 -3.49641,-1.607942 -3.49641,-3.447836" />
  <path
     style="fill:#231f20;fill-rule:nonzero;stroke-width:0.2857244"
     inkscape:connector-curvature="0"
     id="path16"
     d="m 163.21168,23.218104 v -0.134619 c 0,-8.668021 -6.32336,-15.8702766 -15.18968,-15.8702766 -8.86231,0 -15.06253,7.0673936 -15.06253,15.7505576 v 0.119662 c 0,8.679165 6.33079,15.817703 15.19339,15.817703 8.87003,0 15.05882,-7.011391 15.05882,-15.683127 m -38.46707,0 v -0.134619 c 0,-12.560731 9.70005,-23.083389376405 23.40883,-23.083389376405 13.71248,0 23.28168,10.403225376405 23.28168,22.963956376405 v 0.119662 c 0,12.564445 -9.70006,23.098532 -23.41255,23.098532 -13.70877,0 -23.27796,-10.40694 -23.27796,-22.963956" />
  <path
     style="fill:#231f20;fill-rule:nonzero;stroke-width:0.2857244"
     inkscape:connector-curvature="0"
     id="path18"
     d="m 103.39528,83.028795 v -0.119662 c 0,-8.664307 -6.323369,-15.885134 -15.185969,-15.885134 -8.858599,0 -15.043676,7.075108 -15.043676,15.757987 v 0.127142 c 0,8.668027 6.312224,15.821423 15.163395,15.821423 8.881172,0 15.06625,-7.026535 15.06625,-15.701991 m -38.464222,0 v -0.119661 c 0,-12.56816 9.696343,-23.094818 23.397686,-23.094818 13.719916,0 23.281686,10.399225 23.281686,22.967671 v 0.127141 c 0,12.557028 -9.69263,23.091117 -23.401404,23.091117 -13.708772,0 -23.277968,-10.410656 -23.277968,-22.971398" />
  <path
     style="fill:#231f20;fill-rule:nonzero;stroke-width:0.2857244"
     inkscape:connector-curvature="0"
     id="path20"
     d="m 126.9304,64.242415 c 0,-2.17262 1.7276,-3.952712 3.96757,-3.952712 h 0.82643 c 1.72014,0 2.86067,0.88626 3.63841,2.105304 l 12.73274,19.994708 12.79645,-20.05071 c 0.83763,-1.346191 1.9819,-2.049216 3.57498,-2.049216 h 0.82269 c 2.23619,0 3.95271,1.779977 3.95271,3.952712 v 37.375609 c 0,2.17262 -1.7164,3.89271 -3.95271,3.89271 -2.09782,0 -3.88528,-1.77995 -3.88528,-3.89271 V 74.840019 l -10.11521,15.200824 c -0.83763,1.271417 -1.85476,2.05293 -3.32812,2.05293 -1.40228,0 -2.4194,-0.781542 -3.24955,-2.05293 L 134.64487,74.959737 v 26.714373 c 0,2.17637 -1.72389,3.83671 -3.88528,3.83671 -2.16513,0 -3.82928,-1.66029 -3.82928,-3.83671 V 64.241358 Z" />
  <g
     transform="matrix(2.090149,0,0,2.090149,187.00525,-50.480548)"
     id="g4501"
     style="fill:#231f20;fill-opacity:1">
    <path
       d="m 6.634,24.542 v 4.0115 H 2.8647 v -4.0111 h -2.8669 v 11.003 h 2.8669 v -4.5258 h 3.7694 v 4.5258 h 2.8665 v -11.004 z"
       id="path4-2"
       inkscape:connector-curvature="0"
       style="fill:#231f20;fill-opacity:1" />
    <path
       d="m 11.443,24.542 v 11.003 h 4.7307 c 3.341,0 5.3966,-1.9412 5.3966,-5.5466 0,-3.4098 -2.0232,-5.4561 -5.3966,-5.4561 z m 2.8669,2.4663 h 1.358 c 1.9559,0 3.0355,0.9706 3.0355,2.9713 0,2.2065 -0.8654,3.0541 -3.0355,3.0997 h -1.358 z"
       id="path6-5"
       inkscape:connector-curvature="0"
       style="fill:#231f20;fill-opacity:1" />
  </g>
</svg>
