<svg height="182.09" viewBox="0 0 158.75 48.178751" width="600" xmlns="http://www.w3.org/2000/svg"><g fill="#aaa" transform="translate(-26.458 -215.46)"><path d="m26.458 215.46v48.179h48.179v-48.179zm40.952 13.369c.72268 0 1.3244.12018 1.9267.72222.48179.48178.84454 1.0859.84454 1.929 0 .84313-.24232 1.3244-.84454 1.9267-.48179.48178-1.204.72218-1.9267.72218-.60223 0-1.3249-.24036-1.8067-.72218-.48179-.60227-.84218-1.0836-.84218-1.9267 0-.84309.36041-1.4472.84218-1.929.48179-.60222 1.2045-.72222 1.8067-.72222zm-36.374 1.4468h7.5867c2.0476 0 3.493.48086 4.8179 1.4444 1.3249.96359 1.9267 2.4099 1.9267 4.578 0 1.3249-.47991 2.648-1.0821 3.4911-.84313.84314-1.9286 1.6881-3.2535 1.929l6.1423 7.949h-6.3823l-4.6979-7.3468v7.4668h-5.0578zm5.0578 3.9734v4.6979h.36227c2.4089 0 3.6134-.7236 3.6134-2.169 0-1.6863-1.2045-2.5289-3.6134-2.5289zm17.225 1.9267c1.6863 0 3.2521.60269 4.2156 1.6867v-1.3244h4.8179v13.249h-4.8179v-1.4444h-.12232c-.36132.60223-.96169 1.0831-1.6844 1.4444-.48179.24082-1.2049.48227-2.289.48227-1.8067 0-3.493-.84404-4.8179-2.169-1.3249-1.2044-1.9267-2.8898-1.9267-5.0578-.12045-1.8067.48179-3.493 1.8067-4.8179 1.3249-1.3249 2.7703-2.049 4.8179-2.049zm11.802.36237h4.6979v13.249h-4.6979zm-10.598 3.4934c-.96357 0-1.4468.2399-2.049.84218-.48179.48181-.84219 1.3264-.84219 2.049 0 1.084.36041 1.6844.84219 2.2866.60223.60223 1.0854.84455 2.049.84455.96358 0 1.5639-.24219 2.2866-.84455.60224-.48177.72457-1.2026.72457-2.2866 0-.60227-.12232-1.4468-.72457-2.049-.60223-.48178-1.2026-.84218-2.2866-.84218z"/><path d="m79.335 250.15v-19.271h5.0588l7.2268 9.8766c.12064.24082.36146.60223.72268 1.2045.36145.60222.72268 1.3249 1.084 2.168-.12064-.84314-.24082-1.4454-.24082-2.168 0-.60223-.12064-1.2045-.12064-1.6862v-9.5153h5.0588v19.272h-5.0588l-7.2268-9.8766c-.12064-.24081-.36145-.60222-.72268-1.2045-.36146-.60223-.72268-1.3249-1.084-2.168.12064.84314.24082 1.5658.24082 2.168 0 .60227.12064 1.2045.12064 1.6863v9.5153z"/><path d="m108.36 236.66c-2.168 0-3.8548.72409-5.3001 2.049-1.325 1.4454-2.0467 3.1302-2.0467 5.1778s.60132 3.7353 2.0467 5.0602c1.3249 1.3249 3.2516 1.9267 5.5401 1.9267 1.5658 0 2.8916-.24218 3.9757-.8445 1.084-.60228 1.9276-1.4454 2.289-2.409l-3.4935-1.4444c-.24081.48182-.60268.96359-1.0844 1.2045-.48182.24082-1.084.36237-1.8067.36237-.96359 0-1.6849-.24219-2.1666-.84455-.60223-.60223-.84455-1.4454-.84455-2.409h9.998v-.12018c0-2.409-.60178-4.3351-1.9267-5.6601-1.2044-1.3249-3.0121-2.049-5.1801-2.049zm0 2.6513c.72268 0 1.3249.24037 1.8067.72219.48177.48181.72173 1.084.84218 1.8067h-5.2978c.12064-.84313.36055-1.5654.84218-1.9267.48177-.36145 1.084-.60223 1.8067-.60223z"/><path d="m128.84 236.9 1.9272 5.9019v.12064c.24082.84313.48177 1.4454.60222 1.9271 0-.24081.12064-.60222.24082-.84313.12064-.36146.24082-.72268.36146-1.2045l2.0476-5.9019h4.8179l-5.5405 13.249h-3.2521l-1.9271-6.0224c-.12064-.36145-.24082-.72268-.24082-1.084-.12063-.36145-.12063-.72268-.24082-1.084-.12063.48182-.24081 1.2045-.48177 1.9272v.12064l-1.9272 6.0224h-3.6134l-5.5405-13.249h4.8179l1.9272 5.9019c.12064.48182.24082.84313.36146 1.084.12063.36146.12063.60223.24081.96355.12064-.48178.24082-1.084.48178-1.8067 0-.12064.12063-.24082.12063-.24082l1.9271-5.9019h2.8907z"/><path d="m138.71 249.06.96355-3.6134c.72268.60227 1.4454 1.084 2.2885 1.325.84313.36146 1.6863.48178 2.5294.48178.60222 0 1.084-.12064 1.3249-.24082.36145-.24082.48177-.48177.48177-.84314 0-.60223-.60223-.96354-1.8067-1.3249-.36146-.12063-.72268-.12063-.96359-.24081-1.4454-.36146-2.409-.84314-3.0112-1.5658-.60223-.60223-.96359-1.4454-.96359-2.409 0-1.3249.48181-2.2885 1.4454-3.1316.96359-.72268 2.2885-1.2045 3.9748-1.2045.84314 0 1.6863.12064 2.6498.24082.84313.24082 1.8067.48178 2.6499.96355l-.96359 3.2521c-.60223-.36146-1.2045-.72268-1.9271-.96359-.72268-.24082-1.325-.36146-1.9272-.36146-.48177 0-.96354.12064-1.2044.24082-.24082.12064-.36146.36145-.36146.72268 0 .48182.60223.84314 1.8067 1.2045.24082.12064.48182.12064.60228.12064 1.5658.48177 2.7703.96354 3.3725 1.6862.60222.60223.96359 1.4454.96359 2.5294 0 1.3249-.48182 2.4089-1.5658 3.252-1.084.84313-2.409 1.2045-4.0952 1.2045-1.2044 0-2.2884-.12064-3.252-.36146s-2.168-.36145-3.0112-.96359z"/><path d="m167.5 250.15h-14.695l8.6722-10.238c.48177-.60223.96359-1.2045 1.2045-1.6863.24081-.48177.36145-.96354.36145-1.4454 0-.72268-.24082-1.2044-.60223-1.6862-.36145-.48181-.96354-.60222-1.6862-.60222-.84314 0-1.4454.24081-1.9272.84309-.48177.48182-.60222 1.325-.60222 2.2885v.24081h-4.577v-.12063c0-2.168.60227-3.8543 1.9272-5.1792 1.3249-1.2044 3.0112-1.9271 5.1792-1.9271s3.8543.60222 5.1792 1.6863c1.325 1.084 1.9272 2.6498 1.9272 4.4565 0 .84313-.24082 1.8067-.60223 2.6499-.36145.84314-1.084 1.8067-2.0476 2.7703l-3.493 3.8543h5.9019v4.0952z"/><path d="m177.02 231.12-7.2268 10.96v3.7334h8.7936v4.4577h4.4556v-4.3356h2.169v-3.7357h-2.169v-11.08zm1.6867 3.2511c-.12063.24081-.12018.48323-.12018.84454v6.8646h-4.6979l3.4934-5.4201c.24082-.36145.48132-.84314.72223-1.2044.24082-.36146.48177-.72314.60223-1.0845z"/></g></svg>