<svg height="182.83" viewBox="0 0 158.75 48.372538" width="600" xmlns="http://www.w3.org/2000/svg"><g fill="#595959" transform="translate(-42.281 -261.36)"><path d="m159.94 281.55c1.8719-.22224 3.7967.0559 5.5397.76993-.52254.99946-1.055 1.9936-1.5742 2.9934-.91614-.45972-1.9546-.76498-2.9864-.62706-.3208.0473-.67467.18354-.83012.4898-.12571.25863-.14883.60456.0529.83475.16204.19016.39688.31221.63499.38464.76396.22456 1.5643.31518 2.3184.57678.68459.22852 1.3526.5695 1.8422 1.1122.51593.55264.82352 1.2816.89962 2.0297.0959.969-.0661 1.982-.56887 2.8284-.59198 1.0054-1.5875 1.7363-2.6789 2.1266-.89627.3208-1.852.4498-2.798.46303-1.9248.0496-3.8265-.53248-5.4668-1.5074.56223-1.0924 1.1277-2.1845 1.69-3.2762.90949.59365 1.9149 1.0861 2.9997 1.2574.44647.0652.90284.0863 1.3493-.004.30428-.0632.61846-.22158.75076-.5166.13228-.30459.12234-.68956-.0893-.95613-.17528-.2239-.44647-.34297-.71105-.42697-.75405-.23879-1.5379-.36115-2.3019-.57315-.76729-.19149-1.5048-.5824-2.0075-1.2009-.46302-.56322-.65152-1.302-.66806-2.0191-.0331-.8589.17198-1.733.63168-2.4656.38364-.62442.91939-1.1615 1.5577-1.5316.73422-.43194 1.571-.66212 2.4143-.76265z"/><path d="m42.281 261.36v48.373h47.975v-48.372c-15.993-.00089-31.984-.00066-47.975-.00066zm41.228 13.474c.48756.0104.97132.16108 1.3756.43667.62176.4134 1.0486 1.1019 1.1412 1.8418.0959.71007-.12297 1.4538-.58267 2.0025-.46302.5639-1.1739.92345-1.9047.94233-.65153.0258-1.306-.21775-1.7889-.65233-.55231-.48452-.88272-1.2084-.88272-1.9422-.0066-.70311.28692-1.3995.78962-1.8893.37041-.36513.85364-.61625 1.3663-.70322.1604-.0277.32371-.0398.48623-.0362zm-36.565 1.4841h6.7711c.56025.0009 1.1198-.004 1.6784.0495 1.4605.13032 2.9534.59963 4.0345 1.6288.90787.84995 1.4206 2.0604 1.5625 3.2831.13692 1.1185.04974 2.2766-.36367 3.3313-.36313.93925-1.0034 1.7865-1.8438 2.3481-.57546.39193-1.2368.6379-1.9181.76887 1.9986 2.6438 4.0086 5.2707 6.0109 7.9103-2.0667.004-4.1347 0-6.2011 0-1.5455-2.4434-3.0934-4.8856-4.6373-7.3316-.02877-.0456-.06416-.0851-.10783-.11586-.01063 2.4825.0034 4.9671 0 7.4482-1.6599.004-3.3259.004-4.9855 0zm4.9855 3.845v4.8201c.67997.004 1.3663.0104 2.0333-.14064.46798-.10614.938-.29189 1.2899-.62887.35817-.33307.54876-.80906.5954-1.2892.05688-.57679-.01455-1.205-.34692-1.6951-.28939-.43126-.75994-.698-1.2491-.84319-.75273-.22588-1.5445-.22666-2.3227-.22302zm17.798 1.8974c.36138.009.72171.0491 1.0769.11781 1.0868.2173 2.1398.7378 2.8605 1.596v-1.2819c1.5409-.001 3.0813.00091 4.6225 0v13.146h-4.6225c-.004-.4928.000256-.98898-.008-1.4801-.1098.0725-.15807.19947-.23976.29604-.57414.74743-1.4365 1.2237-2.3401 1.4486-1.7304.42002-3.6364.0526-5.0847-.98585-1.2244-.86384-2.1138-2.1671-2.5544-3.5945-.62176-1.9992-.4006-4.2571.66103-6.0685.67237-1.1543 1.7004-2.1148 2.9268-2.6542.73454-.32873 1.5354-.50804 2.3401-.53713.12063-.004.24119-.005.36166-.001zm11.411.43533c1.5411-.00068 3.082-.00068 4.6199 0v13.142c-1.5379.004-3.0786.004-4.6199 0zm-10.408 3.6186c-.10054.003-.19782.005-.29736.0161-.8417.082-1.6545.54487-2.1003 1.2732-.47525.7537-.56818 1.7085-.34692 2.5631.16669.6459.56695 1.2281 1.1325 1.5873.68592.44218 1.5446.54595 2.3401.42193.66575-.10653 1.3053-.43429 1.7279-.96777.54371-.672.71545-1.5874.59473-2.4305-.10187-.72794-.46915-1.4288-1.0575-1.8773-.56124-.43523-1.288-.60751-1.9925-.58602z"/><path d="m174.33 275.34c1.1179-.26459 2.2853-.31617 3.4263-.16967 1.0186.13526 2.0141.47725 2.8839 1.0316 1.2567.804 2.2853 1.9972 2.788 3.4091.39356 1.0983.48285 2.2919.34725 3.4465-.11249.91516-.40679 1.8084-.87312 2.6034-.46632.81456-1.0946 1.524-1.766 2.1735-1.141 1.0574-2.282 2.117-3.4197 3.1753 2.1067-.001 4.2101-.00067 6.3168-.00067v4.2756c-5.1229 0-10.245 0-15.369-.004.006-.0761-.0198-.17198.0496-.22488 1.5677-1.6328 3.132-3.2636 4.6995-4.8951.65815-.70806 1.3428-1.394 1.9579-2.1404 1.0517-1.2746 2.0836-2.5962 2.7616-4.1152.35718-.81195.62176-1.7195.43655-2.6095-.12234-.58308-.46632-1.1106-.92934-1.4797-.85328-.68626-2.282-.52453-2.9038.39356-.4663.67831-.506 1.5677-.34395 2.3511-1.8487.00068-3.6975 0-5.5495 0-.006-1.4542.30426-2.9441 1.098-4.1797.98885-1.5399 2.616-2.6253 4.3887-3.0417z"/><path d="m192.3 275.07v.00068c-2.3911 4.1608-4.7656 8.3332-7.1535 12.497v.00067c-.0463.0863-.1191.1691-.10588.27593v3.2797c3.0493.0009 6.0984-.00039 9.148.00067v4.1457c1.5147.004 3.0322-.00012 4.5469.003v-4.149c.76398-.00052 1.5319.00067 2.2959 0v-4.0271c-.76399-.00066-1.5319.00015-2.2959-.001v-12.021c-2.1464-.003-4.2892.005-6.4355-.004zm1.888 4.2676v7.7582c-1.4773.0009-2.9544.00016-4.435.00068 1.4783-2.5869 2.9566-5.1734 4.435-7.7589z"/><path d="m93.11 275.78c1.7429.00065 3.4859-.001 5.2287.0009 3.2014 4.059 6.4062 8.1159 9.6109 12.174v-12.174c1.7429-.00067 3.4826-.00067 5.2255 0v19.905c-1.7429 0-3.4826-.004-5.2255 0-3.2047-4.064-6.4094-8.1275-9.6145-12.191v12.191c-1.7429 0-3.4825-.004-5.2255 0z"/><path d="m121.86 281.25c-.39071-.006-.78193.009-1.1714.0395-1.1543.10148-2.3116.41027-3.3072 1.0314-1.4221.88602-2.4374 2.376-2.831 4.0124-.29435 1.2276-.3272 2.5228-.0924 3.7639.30096 1.5716 1.1872 3.0189 2.4506 3.9843.64162.49244 1.3759.85281 2.1432 1.0843 1.0682.32741 2.1926.42621 3.3038.39313 1.1178-.0396 2.2422-.25137 3.2509-.75077.64824-.32079 1.2472-.75343 1.7433-1.2866.66144-.72496 1.0845-1.6416 1.3656-2.5798-1.5081 0-3.02-.001-4.5281 0-.26458.42828-.63129.80372-1.0876 1.0214-.53909.26491-1.1573.28776-1.7427.21699-.45308-.0542-.91015-.19122-1.2872-.45944-.32742-.22886-.57801-.55844-.74007-.92692-.21827-.5007-.28133-1.0553-.28464-1.5987 3.2841-.00053 6.5713 0 9.8552-.00067.0104-.78944-.006-1.5843-.15872-2.3608-.29104-1.5679-1.0682-3.0746-2.2985-4.0934-.76397-.63368-1.687-1.0508-2.6461-1.2678-.63664-.1455-1.2856-.21253-1.9369-.22234zm.13796 3.0038c.62348.0188 1.2394.20364 1.7038.63424.44649.41472.69422 1.0012.82981 1.59-1.7859.00065-3.5713.00065-5.3572 0 .0695-.40977.20123-.81438.43935-1.158.33073-.48881.85698-.82951 1.4225-.97045h-.003c.22551-.0509.46019-.0833.6972-.0937.0888-.004.17839-.005.26723-.003z"/><path d="m128.73 281.44c1.7495-.00066 3.4991-.00066 5.2486 0 1.0649 2.4748 2.1166 4.9569 3.1915 7.4278 1.1112-2.4762 2.2258-4.9522 3.337-7.4278.98886.001 1.9744-.004 2.96.003 1.1046 2.5502 2.2158 5.0978 3.3238 7.6466 1.1145-2.5489 2.2324-5.0958 3.3404-7.6456 1.7463-.009 3.4924-.001 5.2419-.004-2.3216 4.7032-4.6533 9.3987-6.9651 14.104-1.0484.0166-2.1001.004-3.1518.0104-1.108-2.5806-2.2158-5.161-3.3271-7.7409-1.0649 2.5794-2.1233 5.1613-3.1882 7.7409-1.055-.004-2.1134 0-3.1683-.004-2.282-4.7036-4.564-9.4069-6.8427-14.112z"/></g></svg>