<svg height="307.14532pt" viewBox="0 0 1364.35 307.14532" width="1364.35pt" xmlns="http://www.w3.org/2000/svg"><g fill="#c4c4c4" transform="translate(-53.983072 -149.93258)"><path d="m585.32 150.38c6.99-1.43 15.42.5 19.52 6.77 5.32 8.07 3.27 20.44-5.37 25.37-8.82 5.5-22.07 1.91-26.14-7.88-4.37-9.56 1.38-22.3 11.99-24.26z"/><path d="m1020.94 216.84c5.56-2.68 12.59-2.66 18.05.29 3.49 1.97 6.21 5.66 6 9.81.04 30.69-.02 61.39.02 92.08-.05 8.64 1.68 17.77 7.43 24.52 6.67 8.03 17.44 11.44 27.61 11.47 17.74-.02 35.47.01 53.21-.03.02-42.68.01-85.36 0-128.04-.34-5.24 3.76-9.81 8.64-11.16 4.94-1.35 10.55-1.27 15.16 1.15 3.61 1.91 6.18 5.82 5.94 9.99.01 56.69-.02 113.39.01 170.08-.04 14.83-4.75 30.06-15.03 41.02-11 11.8-27.1 17.57-42.88 18.92-20.39.15-40.78 0-61.17.08-3.95.33-7.26-2.52-9.22-5.67-2.51-4.5-2.81-10.1-1.26-14.97 1.41-4.42 5.9-7.48 10.52-7.36 16.35-.06 32.7-.01 49.04-.01 7.77.04 15.83-.56 22.88-4.11 6.81-3.22 12.23-9.16 14.83-16.23 3.02-7.84 2.53-16.41 2.54-24.66-17.1-.02-34.2-.02-51.3.01-15.32.3-31.3-2.92-43.87-12.09-15.55-10.94-22.87-30.45-22.83-48.98-.01-31.31.06-62.63-.03-93.94-.45-4.71 1.2-9.96 5.71-12.17z"/><path d="m837.36 224.35c2.53-4.43 7.56-7.07 12.62-7.06 22.68-.06 45.36.02 68.04-.04 9.37-.15 18.8 1.12 27.69 4.14 10.78 3.62 20.52 10.56 26.91 20.04 7.27 10.68 10.2 23.78 10.39 36.56 0 30.34-.04 60.68.02 91.02-.1 4.25.7 9.16-2.38 12.63-4.28 4.79-11.47 4.92-17.35 3.98-5.17-.76-9.87-5.2-9.53-10.68-.05-30.97.04-61.95-.03-92.92.04-8.8-1.89-18.11-8.01-24.77-7.39-8.32-18.98-11.16-29.72-11.2-17.09-.11-34.18-.03-51.27-.04-.03 43 .01 85.99-.02 128.99.16 4.08-2.57 7.86-6.23 9.49-3.87 1.73-8.27 1.81-12.41 1.32-4.6-.63-9.3-3.49-10.7-8.11-.73-3.86-.32-7.81-.38-11.71-.01-42.01.01-84.01-.01-126.02.03-5.25-.64-10.98 2.37-15.62z"/><path d="m55.41 228.33c1.67-6.38 8.09-10.88 14.65-10.57 15.64-.03 31.29.05 46.93-.02 17.52-.32 35.42 7.03 46.7 20.62 4.57 5.59 8.23 12.83 6.77 20.23-1.97 7.42-10 12.38-17.48 11.8-5.87-1.07-8.9-6.77-12.4-10.97-6.1-8.22-16.53-12.13-26.52-12.35-10.11-.17-20.21-.03-30.32-.05-.01 40.64-.03 81.29.01 121.93-.1 4.19.78 9.09-2.37 12.45-4.34 4.98-11.73 5.34-17.77 4.08-4.93-1.02-9.84-4.99-9.6-10.43-.04-42.35.01-84.7-.02-127.05 0-6.57-.19-13.25 1.42-19.67z"/><path d="m240 218.79c8.6-1.59 17.37-.86 26.05-1.05 15.63-.3 31.6 4.47 43.7 14.54 10.88 8.86 17.85 21.97 20.19 35.71 1.65 8.57.88 17.32 1.08 25.99 0 4.94.47 10.34-2.4 14.68-2.72 4.7-8.27 7.03-13.56 6.83-32.68-.04-65.36 0-98.05-.02-.15 7.97-.12 16.38 3.85 23.56 3.77 7.13 10.57 12.44 18.19 14.93 7.05 2.4 14.59 2.34 21.94 2.32 14.34-.01 28.68-.01 43.02-.01 4.61-.3 9.35 2.44 10.84 6.92 2.04 6.02 1.32 13.69-3.69 18.07-2.19 2.04-5.2 2.86-8.14 2.76-18-.04-36-.02-54-.01-16.54-.1-33.62-5.68-45.39-17.68-11.07-11.05-16.37-26.91-16.37-42.36.02-14.65.02-29.31 0-43.96.01-14.56 4.69-29.36 14.28-40.47 9.65-11.42 23.85-18.36 38.46-20.75m-17.81 43.37c-5.52 8.53-5.32 19.07-5.19 28.83 28.09.01 56.18.02 84.26 0 .04-8.94.37-18.35-3.67-26.58-3.54-7.61-10.71-13.12-18.69-15.42-9.05-2.66-18.62-1.98-27.93-1.89-11.2.23-22.79 5.27-28.78 15.06z"/><path d="m387.44 227.48c11.57-6.83 25.19-9.67 38.53-9.5 23.03.06 46.07-.02 69.1.03 7.99-.23 14.13 7.46 14.33 15.03.36 26.33-.33 52.66-.16 79-.11 28.65.25 57.31-.25 85.96-.14 14.95-5.34 30.24-16.04 40.94-10.94 11.24-26.59 16.74-41.95 18.01-20.01.15-40.02-.04-60.03.09-7.94.68-13.37-7.92-12.7-15.13-.22-6.46 4.9-12.97 11.64-12.89 17.38-.09 34.77.04 52.15-.04 8.27-.05 16.9-1.35 23.88-6.08 6.53-4.19 10.8-11.3 12.29-18.83 1.29-6.6 1.04-13.37 1.03-20.06-13.76-.03-27.52 0-41.28-.01-10.36-.13-20.88.7-31.06-1.72-14.78-3.02-28.77-11.42-36.95-24.3-6.85-10.63-9.86-23.43-9.72-36 .03-14.33.03-28.66 0-42.99-.1-8.56 1.37-17.17 4.54-25.13 4.31-11.01 12.48-20.38 22.65-26.38m27.64 19.81c-8.55 1.9-16.6 7.1-20.73 14.97-3.96 6.87-4.42 15-4.36 22.74.11 12.34-.17 24.69.14 37.03.27 9.25 3.41 19 10.84 24.97 8.01 6.73 18.94 8 29.03 7.78 16.42-.04 32.83.01 49.25-.03.04-36.24.02-72.49.01-108.74-13.41-.03-26.83 0-40.24-.01-7.98.1-16.09-.49-23.94 1.29z"/><path d="m538.52 221.39c2.65-2.83 6.69-3.56 10.41-3.43 15.38.13 30.76-.08 46.14.1 6.41.04 13.08 5.06 12.91 11.88.05 48.03 0 96.07.03 144.1.5 5.96-4.75 10.75-10.29 11.62-5.3.8-11.29.71-15.74-2.65-2.81-2.07-4.18-5.58-4-9 .04-42.67.02-85.34.01-128-10.33-.06-20.66.05-30.98-.02-5.28.27-10-3.71-11.36-8.67-1.36-5.32-1.05-11.73 2.87-15.93z"/><path d="m705.31 218.46c10.16-1.61 20.47-.69 30.7-.95 17.33-.27 35.54 4.91 48.04 17.4 11.32 11.22 16.49 27.4 16.68 43.08 0 15.32-.01 30.65.01 45.97-.04 16.38-6.3 33.1-18.68 44.13-12.45 11.3-29.58 16.05-46.11 16.11-13.39-.07-27.09.95-40.1-2.89-14.38-3.94-27.41-13.35-34.71-26.48-5.42-9.65-7.94-20.81-7.89-31.84.03-14.66.02-29.31.01-43.97.04-14.58 4.39-29.54 14.04-40.7 9.52-11.22 23.66-17.67 38.01-19.86m6.12 27.12c-7.44 1.08-14.82 4.2-19.85 9.94-6.31 6.82-8.45 16.39-8.53 25.44-.13 12.68-.01 25.37-.06 38.05-.04 7.87.85 16.13 5.14 22.94 3.63 6.07 9.74 10.34 16.42 12.46 9.17 3.02 18.94 1.9 28.42 2.13 9.86.2 20.35-1.98 27.84-8.8 7.19-6.42 10.14-16.31 10.14-25.72.09-13.69.09-27.38 0-41.08-.06-9.71-2.63-20.09-9.99-26.9-7.38-7.09-18.03-9.19-27.94-9.04-7.2.08-14.43-.35-21.59.58z"/></g><path d="m1305.38 211.44c6.39-4.71 14.94-5.12 22.52-3.89 6.06.81 12.16 4 14.96 9.66 2.89 5.47 2.28 11.79 2.3 17.75-.01 13.57-.01 27.14 0 40.71 16.28-.02 32.56.03 48.84-.03 6.29-.27 12.93 1.34 17.68 5.67 4.97 4.37 6.89 11.25 6.63 17.69-.04 6.03-2.31 12.35-7.17 16.15-4.56 3.49-10.44 4.83-16.1 4.86-16.63-.02-33.26-.01-49.89-.01.02 15.33-.02 30.66.03 45.99.1 4.94-1.24 10-4.27 13.96-3.16 4.22-8.22 6.48-13.23 7.63-6.82 1-14.27.85-20.24-3.02-6.42-3.73-9.47-11.37-9.44-18.54-.01-15.34 0-30.68 0-46.02-16.66.01-33.32-.01-49.98.02-7.05 0-14.62-2.29-19.13-8-3.42-4.17-4.52-9.73-4.27-15.01-.05-5.85 2.22-11.85 6.71-15.72 4.26-3.82 10.04-5.64 15.71-5.64 16.99.03 33.97.01 50.96.02 0-15.55.01-31.1-.02-46.64-.09-6.52 2.02-13.53 7.4-17.59z" fill="#ffba00" transform="translate(-53.983072 -149.93258)"/></svg>