<?xml version="1.0" encoding="UTF-8" standalone="no"?>
<!-- Created with Inkscape (http://www.inkscape.org/) -->

<svg
   xmlns:dc="http://purl.org/dc/elements/1.1/"
   xmlns:cc="http://creativecommons.org/ns#"
   xmlns:rdf="http://www.w3.org/1999/02/22-rdf-syntax-ns#"
   xmlns:svg="http://www.w3.org/2000/svg"
   xmlns="http://www.w3.org/2000/svg"
   xmlns:sodipodi="http://sodipodi.sourceforge.net/DTD/sodipodi-0.dtd"
   xmlns:inkscape="http://www.inkscape.org/namespaces/inkscape"
   width="7.399796mm"
   height="1.7328444mm"
   viewBox="0 0 7.399796 1.7328444"
   version="1.1"
   id="svg50694"
   inkscape:version="0.92.0 r15299"
   sodipodi:docname="Relax.svg">
  <defs
     id="defs50688">
    <clipPath
       clipPathUnits="userSpaceOnUse"
       id="clipPath86686">
      <path
         d="m 289.404,357.119 h 20.976 v 4.912 h -20.976 z"
         id="path86684"
         inkscape:connector-curvature="0" />
    </clipPath>
  </defs>
  <sodipodi:namedview
     id="base"
     pagecolor="#ffffff"
     bordercolor="#666666"
     borderopacity="1.0"
     inkscape:pageopacity="0.0"
     inkscape:pageshadow="2"
     inkscape:zoom="31.678384"
     inkscape:cx="12.84786"
     inkscape:cy="1.8029166"
     inkscape:document-units="mm"
     inkscape:current-layer="layer1"
     showgrid="false"
     fit-margin-top="0"
     fit-margin-left="0"
     fit-margin-right="0"
     fit-margin-bottom="0"
     inkscape:window-width="1920"
     inkscape:window-height="1017"
     inkscape:window-x="-8"
     inkscape:window-y="-8"
     inkscape:window-maximized="1" />
  <metadata
     id="metadata50691">
    <rdf:RDF>
      <cc:Work
         rdf:about="">
        <dc:format>image/svg+xml</dc:format>
        <dc:type
           rdf:resource="http://purl.org/dc/dcmitype/StillImage" />
        <dc:title></dc:title>
      </cc:Work>
    </rdf:RDF>
  </metadata>
  <g
     inkscape:label="Layer 1"
     inkscape:groupmode="layer"
     id="layer1"
     transform="translate(-75.675102,-94.294291)">
    <g
       transform="matrix(0.35277777,0,0,-0.35277777,-26.420266,222.01078)"
       id="g86680">
      <g
         id="g86682"
         clip-path="url(#clipPath86686)">
        <g
           id="g86688"
           transform="translate(296.0492,359.574)">
          <path
             d="m 0,0 c 0,0.377 -0.306,0.683 -0.683,0.683 -0.378,0 -0.684,-0.306 -0.684,-0.683 0,-0.377 0.306,-0.683 0.684,-0.683 C -0.306,-0.683 0,-0.377 0,0 m 12.928,0.07 v 0.07 l 1.333,1.544 v 0.701 l -0.07,0.071 H 13.7 L 13.56,2.385 12.297,0.842 h -0.07 l -1.263,1.543 -0.14,0.071 H 10.333 L 10.262,2.385 V 1.684 L 11.595,0.14 V 0.07 l -1.403,-1.754 v -0.701 l 0.07,-0.07 h 0.491 l 0.141,0.07 1.333,1.754 h 0.07 l 1.333,-1.754 0.14,-0.07 h 0.491 l 0.07,0.07 v 0.701 z M 8.439,-0.561 H 7.246 l -0.07,0.07 0.631,1.684 h 0.07 L 8.509,-0.491 Z M 8.298,2.456 H 7.386 L 7.316,2.385 5.702,-1.684 v -0.701 l 0.071,-0.07 h 0.631 l 0.07,0.07 0.351,0.912 0.14,0.07 h 1.754 l 0.14,-0.07 0.351,-0.912 0.07,-0.07 h 0.632 l 0.07,0.07 v 0.701 L 8.368,2.385 Z m -4.981,-4.069 -0.07,0.07 V 2.385 L 3.177,2.456 H 2.335 L 2.265,2.385 v -4.77 l 0.07,-0.07 h 3.157 l 0.07,0.07 v 0.701 l -0.07,0.071 z M -4.26,0.351 h -1.333 l -0.07,0.07 v 1.123 l 0.07,0.07 h 1.333 c 0.422,0 0.702,-0.14 0.702,-0.632 0,-0.491 -0.28,-0.631 -0.702,-0.631 m 1.684,0.631 c 0,0.983 -0.701,1.474 -1.684,1.474 h -2.315 l -0.07,-0.071 v -4.77 l 0.07,-0.07 h 0.842 l 0.07,0.07 v 1.824 l 0.07,0.07 h 0.702 l 0.14,-0.07 1.404,-1.824 0.14,-0.07 h 0.421 l 0.07,0.07 v 0.701 l -0.912,1.193 v 0.07 c 0.561,0.141 1.052,0.632 1.052,1.403 m 0.685,1.475 -0.071,-0.07 V 1.685 L -1.896,1.616 0.44,1.615 0.508,1.548 V 1.049 l 0.07,-0.07 h 0.841 l 0.07,0.07 v 1.338 l -0.071,0.07 z m 2.468,-3.435 -0.07,-0.07 v -0.498 l -0.069,-0.067 -2.335,-0.001 -0.066,-0.07 v -0.701 l 0.07,-0.07 h 3.31 l 0.07,0.07 v 1.337 l -0.07,0.07 z"
             style="fill:#b1db25;fill-opacity:1;fill-rule:nonzero;stroke:none"
             id="path86690"
             inkscape:connector-curvature="0" />
        </g>
      </g>
    </g>
  </g>
</svg>
