<svg height="24.750002pt" viewBox="0 0 120.92406 24.750002" width="120.92406pt" xmlns="http://www.w3.org/2000/svg" xmlns:xlink="http://www.w3.org/1999/xlink"><clipPath id="a"><path d="m0 6.5599514h27.999793v-6.5599514h-27.999793z"/></clipPath><clipPath id="b"><path d="m0 6.5599514h27.999793v-6.5599514h-27.999793z"/></clipPath><clipPath id="c"><path d="m0 6.5599514h27.999793v-6.5599514h-27.999793z"/></clipPath><clipPath id="d"><path d="m0 6.5599514h27.999793v-6.5599514h-27.999793z"/></clipPath><clipPath id="e"><path d="m0 6.5599514h27.999793v-6.5599514h-27.999793z"/></clipPath><clipPath id="f"><path d="m0 6.5599514h27.999793v-6.5599514h-27.999793z"/></clipPath><clipPath id="g"><path d="m0 6.5599514h27.999793v-6.5599514h-27.999793z"/></clipPath><clipPath id="h"><path d="m0 6.5599514h27.999793v-6.5599514h-27.999793z"/></clipPath><g fill="#c9e400"><path clip-path="url(#a)" d="m13.279902 5.4399597-.08-.079999v-5.27996129l-.079999-.07999941h-1.119992l-.159999.07999941v6.39995259l.159999.079999h4.159969l.08-.079999v-.9599929l-.08-.079999z" transform="matrix(3.6021992 0 0 3.6021992 -1.169617 .637733)"/><path clip-path="url(#b)" d="m20.079851 3.9999704h-1.519988l-.159999-.0799994.879993-2.2399834h.08l.879993 2.2399834zm-.159999-3.9999704h-1.199991l-.08.07999941-2.159984 5.43995969v.9599929l.08.079999h.799994l.159999-.079999.399997-1.2799905.239998-.079999h2.319983l.159999.079999.479997 1.2799905.08.079999h.879993l.08-.079999v-.9599929l-2.159985-5.43995969z" transform="matrix(3.6032282 0 0 3.6032282 -.912719 .638346)"/><path d="m106.55029 0s-.0539.006-.14209.006c-.04.005-.1067.009-.16406.0132-.0667.009-.13669.0262-.2168.0395-.1549.0267-.32458.10696-.49951.19776-.1736.0935-.34409.22211-.49366.36767-.14554.1509-.27325.32007-.37207.49365-.0934.17493-.16143.34902-.19482.50391-.0267.0801-.0263.14564-.0395.2124-.01.0668-.0132.12-.0132.16407-.005.0935-.004.14502-.004.14502v6.53027 5.68067.004s-.0006.0543.004.14648c0 .0534.009.0934.0132.16554.009.0668.0129.13628.0395.2124.0267.15489.10701.32363.19776.5039.0934.16959.22211.33983.36767.49072.15089.1509.32005.27325.49366.37208.17359.0935.34911.15997.50536.19336.0801.0267.14564.0276.21241.041.0667.0134.12006.0132.16406.0132.0936.005.14502.004.14502.004h7.88672 4.32422.004s.0402.0006.10693-.004c.0267 0 .08.00061.12012-.004.04-.009.0934-.0145.15088-.0278.22568-.0401.51877-.14044.77783-.30468.25372-.16024.4708-.38593.59766-.57422.13353-.18427.19482-.32519.19482-.32519s.10676-.21176.15088-.44678c.0267-.10682.0393-.23082.0527-.31494.005-.0935.004-.14649.004-.14649v-.004-.0132-11.2456-.94629-.004-.0937c-.005-.0668-.0131-.15112-.0264-.25927-.04-.21232-.12042-.491-.27393-.73536-.14556-.24437-.34444-.45667-.51269-.58887-.0801-.0668-.15925-.11964-.21533-.14502-.0534-.0267-.0806-.0527-.0806-.0527v-.006s-.0804-.0535-.24462-.10693c-.16425-.0668-.42927-.15088-.79248-.15088h-12.22413zm-1.01367 4.63184h1.75488v2.84179h3.104v-2.84179h1.75489v7.23779h-1.75489v-2.84765h-3.104v2.84765h-1.75488zm7.54248.006h3.00732c2.15212 0 3.71191 1.57141 3.71191 3.61524 0 2.04381-1.55979 3.61669-3.71191 3.61669h-3.00732zm1.75927 1.54834v4.13525h1.09571c1.23211 0 2.04492-.86883 2.04492-2.06835 0-1.21116-.81281-2.0669-2.04492-2.0669z"/><path clip-path="url(#d)" d="m3.1999763 2.7999793h-1.759987l-.1599988-.0799994v-1.5199888l.1599988-.079999h1.759987c.5599958 0 .8799935.1599988.8799935.8799935 0 .6399952-.3199977.7999941-.8799935.7999937zm2.2399834-.7999941c0-1.35998994-.9599929-1.9999852-2.2399834-1.9999852h-3.11997689l-.07999941.07999941v6.39995259l.07999941.079999h1.11999169l.0799994-.079999v-2.4799816l.1599988-.0799994h.8799935l.2399982.0799994 1.8399864 2.4799816.1599988.0799994h.5599959l.0799994-.0799994v-.9599929l-1.1999911-1.5999881v-.0799994c.799994-.1599989 1.4399893-.8799935 1.4399893-1.8399864" transform="matrix(3.6026563 0 0 3.6026563 -.009537 .639906)"/><path clip-path="url(#f)" d="m8.8799342 3.2799757c0-.4799964-.399997-.8799935-.9599929-.8799935-.4799964 0-.8799934.3999971-.8799934.8799935s.399997.8799935.8799934.8799935c.5599959 0 .9599929-.3999971.9599929-.8799935z" transform="matrix(3.701874 0 0 3.701874 61.441126 .232944)"/><path clip-path="url(#c)" d="m8.8799342 3.2799757c0-.4799964-.399997-.8799935-.9599929-.8799935-.4799964 0-.8799934.3999971-.8799934.8799935s.399997.8799935.8799934.8799935c.5599959 0 .9599929-.3999971.9599929-.8799935z" transform="matrix(3.701874 0 0 3.701874 54.808501 9.35032)"/><path clip-path="url(#e)" d="m8.8799342 3.2799757c0-.4799964-.399997-.8799935-.9599929-.8799935-.4799964 0-.8799934.3999971-.8799934.8799935s.399997.8799935.8799934.8799935c.5599959 0 .9599929-.3999971.9599929-.8799935z" transform="matrix(3.701874 0 0 3.701874 68.073751 9.35032)"/><path clip-path="url(#g)" d="m8.8799342 3.2799757c0-.4799964-.399997-.8799935-.9599929-.8799935-.4799964 0-.8799934.3999971-.8799934.8799935s.399997.8799935.8799934.8799935c.5599959 0 .9599929-.3999971.9599929-.8799935z" transform="matrix(3.701874 0 0 3.701874 54.808501 -8.884432)"/><path clip-path="url(#h)" d="m8.8799342 3.2799757c0-.4799964-.399997-.8799935-.9599929-.8799935-.4799964 0-.8799934.3999971-.8799934.8799935s.399997.8799935.8799934.8799935c.5599959 0 .9599929-.3999971.9599929-.8799935z" transform="matrix(3.701874 0 0 3.701874 68.073751 -8.884432)"/><path d="m22.783732.64275634-.577148.287109v23.05371166l.577148.288574h4.034179 11.655763l.287109-.288574v-3.457031l-.287109-.288575h-11.080079l-.287109-.288574v-5.519532l.282715-.284179h10.394531l.287109-.288574v-3.457032l-.287109-.288574h-10.394531l-.282715-.2841787v-4.863281l.287109-.28711h11.080079l.287109-.288574v-3.45849696l-.287109-.287109h-11.655763z"/></g></svg>