<svg id="i" width="100.96pt" height="24.75pt" version="1.1" viewBox="0 0 100.96 24.75" xmlns="http://www.w3.org/2000/svg">
 <defs id="j">
  <clipPath id="h">
   <path id="k" d="m0 6.56h28v-6.56h-28z"/>
  </clipPath>
  <clipPath id="g">
   <path id="l" d="m0 6.56h28v-6.56h-28z"/>
  </clipPath>
  <clipPath id="f">
   <path id="m" d="m0 6.56h28v-6.56h-28z"/>
  </clipPath>
  <clipPath id="a">
   <path id="n" d="m0 6.56h28v-6.56h-28z"/>
  </clipPath>
  <clipPath id="d">
   <path id="o" d="m0 6.56h28v-6.56h-28z"/>
  </clipPath>
  <clipPath id="e">
   <path id="p" d="m0 6.56h28v-6.56h-28z"/>
  </clipPath>
  <clipPath id="c">
   <path id="q" d="m0 6.56h28v-6.56h-28z"/>
  </clipPath>
  <clipPath id="b">
   <path id="r" d="m0 6.56h28v-6.56h-28z"/>
  </clipPath>
 </defs>
 <path id="s" transform="matrix(3.6022 0 0 3.6022 -1.1601 .63773)" d="m13.28 5.44-0.08-0.079999v-5.28l-0.079999-0.079999h-1.12l-0.16 0.079999v6.4l0.16 0.079999h4.16l0.08-0.079999v-0.95999l-0.08-0.079999z" clip-path="url(#h)" fill="#c9e400"/>
 <path id="t" transform="matrix(3.6032 0 0 3.6032 -.90318 .63835)" d="m20.08 4h-1.52l-0.16-0.079999 0.87999-2.24h0.08l0.87999 2.24zm-0.16-4h-1.2l-0.08 0.079999-2.16 5.44v0.95999l0.08 0.079999h0.79999l0.16-0.079999 0.4-1.28 0.24-0.079999h2.32l0.16 0.079999 0.48 1.28 0.08 0.079999h0.87999l0.08-0.079999v-0.95999l-2.16-5.44z" clip-path="url(#g)" fill="#c9e400"/>
 <path id="u" transform="matrix(3.6027 0 0 3.6027 0 .63991)" d="m3.2 2.8h-1.76l-0.16-0.079999v-1.52l0.16-0.079999h1.76c0.56 0 0.87999 0.16 0.87999 0.87999 0 0.64-0.32 0.79999-0.87999 0.79999zm2.24-0.79999c0-1.36-0.95999-2-2.24-2h-3.12l-0.079999 0.079999v6.4l0.079999 0.079999h1.12l0.079999-0.079999v-2.48l0.16-0.079999h0.87999l0.24 0.079999 1.84 2.48 0.16 0.079999h0.56l0.079999-0.079999v-0.95999l-1.2-1.6v-0.079999c0.79999-0.16 1.44-0.87999 1.44-1.84" clip-path="url(#a)" fill="#c9e400"/>
 <g id="v" transform="translate(.0095365)" fill="#c9e400">
  <path id="w" transform="matrix(3.7019 0 0 3.7019 61.441 .23294)" d="m8.8799 3.28c0-0.48-0.4-0.87999-0.95999-0.87999-0.48 0-0.87999 0.4-0.87999 0.87999s0.4 0.87999 0.87999 0.87999c0.56 0 0.95999-0.4 0.95999-0.87999z" clip-path="url(#e)"/>
  <g id="x">
   <path id="y" transform="matrix(3.7019 0 0 3.7019 54.809 9.3503)" d="m8.8799 3.28c0-0.48-0.4-0.87999-0.95999-0.87999-0.48 0-0.87999 0.4-0.87999 0.87999s0.4 0.87999 0.87999 0.87999c0.56 0 0.95999-0.4 0.95999-0.87999z" clip-path="url(#f)"/>
   <path id="z" transform="matrix(3.7019 0 0 3.7019 68.074 9.3503)" d="m8.8799 3.28c0-0.48-0.4-0.87999-0.95999-0.87999-0.48 0-0.87999 0.4-0.87999 0.87999s0.4 0.87999 0.87999 0.87999c0.56 0 0.95999-0.4 0.95999-0.87999z" clip-path="url(#d)"/>
   <path id="aa" transform="matrix(3.7019 0 0 3.7019 54.809 -8.8844)" d="m8.8799 3.28c0-0.48-0.4-0.87999-0.95999-0.87999-0.48 0-0.87999 0.4-0.87999 0.87999s0.4 0.87999 0.87999 0.87999c0.56 0 0.95999-0.4 0.95999-0.87999z" clip-path="url(#c)"/>
   <path id="ab" transform="matrix(3.7019 0 0 3.7019 68.074 -8.8844)" d="m8.8799 3.28c0-0.48-0.4-0.87999-0.95999-0.87999-0.48 0-0.87999 0.4-0.87999 0.87999s0.4 0.87999 0.87999 0.87999c0.56 0 0.95999-0.4 0.95999-0.87999z" clip-path="url(#b)"/>
  </g>
 </g>
 <path id="ac" d="m22.793 0.64276-0.57715 0.28711v23.054l0.57715 0.28857h15.69l0.28711-0.28857v-3.457l-0.28711-0.28858h-11.08l-0.28711-0.28857v-5.5195l0.28272-0.28418h10.395l0.28711-0.28857v-3.457l-0.28711-0.28857h-10.395l-0.28272-0.28418v-4.8633l0.28711-0.28711h11.08l0.28711-0.28857v-3.4585l-0.28711-0.28711h-11.656z" fill="#c9e400"/>
</svg>
