<?xml version="1.0" encoding="UTF-8"?>
<svg id="svg22" width="120.92pt" height="24.75pt" version="1.1" viewBox="0 0 120.92 24.75" xmlns="http://www.w3.org/2000/svg" xmlns:cc="http://creativecommons.org/ns#" xmlns:dc="http://purl.org/dc/elements/1.1/" xmlns:rdf="http://www.w3.org/1999/02/22-rdf-syntax-ns#">
 <metadata id="metadata28">
  <rdf:RDF>
   <cc:Work rdf:about="">
    <dc:format>image/svg+xml</dc:format>
    <dc:type rdf:resource="http://purl.org/dc/dcmitype/StillImage"/>
    <dc:title/>
   </cc:Work>
  </rdf:RDF>
 </metadata>
 <defs id="defs26">
  <clipPath id="clipEmfPath1">
   <path id="path4530" d="m0 6.56h28v-6.56h-28z"/>
  </clipPath>
  <clipPath id="clipEmfPath1-1">
   <path id="path4530-8" d="m0 6.56h28v-6.56h-28z"/>
  </clipPath>
  <clipPath id="clipEmfPath1-4">
   <path id="path4530-7" d="m0 6.56h28v-6.56h-28z"/>
  </clipPath>
  <clipPath id="clipEmfPath1-6">
   <path id="path4530-4" d="m0 6.56h28v-6.56h-28z"/>
  </clipPath>
  <clipPath id="clipEmfPath1-4-4">
   <path id="path4530-7-0" d="m0 6.56h28v-6.56h-28z"/>
  </clipPath>
  <clipPath id="clipEmfPath1-4-2">
   <path id="path4530-7-05" d="m0 6.56h28v-6.56h-28z"/>
  </clipPath>
  <clipPath id="clipEmfPath1-4-5">
   <path id="path4530-7-2" d="m0 6.56h28v-6.56h-28z"/>
  </clipPath>
  <clipPath id="clipEmfPath1-4-9">
   <path id="path4530-7-8" d="m0 6.56h28v-6.56h-28z"/>
  </clipPath>
 </defs>
 <path id="path4536" transform="matrix(3.6022 0 0 3.6022 -1.1696 .63773)" d="m13.28 5.44-0.08-0.079999v-5.28l-0.079999-0.079999h-1.12l-0.16 0.079999v6.4l0.16 0.079999h4.16l0.08-0.079999v-0.95999l-0.08-0.079999z" clip-path="url(#clipEmfPath1)" fill="#c9e400"/>
 <path id="path4536-8" transform="matrix(3.6032 0 0 3.6032 -.91272 .63835)" d="m20.08 4h-1.52l-0.16-0.079999 0.87999-2.24h0.08l0.87999 2.24zm-0.16-4h-1.2l-0.08 0.079999-2.16 5.44v0.95999l0.08 0.079999h0.79999l0.16-0.079999 0.4-1.28 0.24-0.079999h2.32l0.16 0.079999 0.48 1.28 0.08 0.079999h0.87999l0.08-0.079999v-0.95999l-2.16-5.44z" clip-path="url(#clipEmfPath1-1)" fill="#c9e400"/>
 <path id="path22838" d="m106.55 0s-0.0539 6e-3 -0.14209 6e-3c-0.04 5e-3 -0.1067 9e-3 -0.16406 0.0132-0.0667 9e-3 -0.13669 0.0262-0.2168 0.0395-0.1549 0.0267-0.32458 0.10696-0.49951 0.19776-0.1736 0.0935-0.34409 0.22211-0.49366 0.36767-0.14554 0.1509-0.27325 0.32007-0.37207 0.49365-0.0934 0.17493-0.16143 0.34902-0.19482 0.50391-0.0267 0.0801-0.0263 0.14564-0.0395 0.2124-0.01 0.0668-0.0132 0.12-0.0132 0.16407-5e-3 0.0935-4e-3 0.14502-4e-3 0.14502v12.215s-6e-4 0.0543 4e-3 0.14648c0 0.0534 9e-3 0.0934 0.0132 0.16554 9e-3 0.0668 0.0129 0.13628 0.0395 0.2124 0.0267 0.15489 0.10701 0.32363 0.19776 0.5039 0.0934 0.16959 0.22211 0.33983 0.36767 0.49072 0.15089 0.1509 0.32005 0.27325 0.49366 0.37208 0.17359 0.0935 0.34911 0.15997 0.50536 0.19336 0.0801 0.0267 0.14564 0.0276 0.21241 0.041 0.0667 0.0134 0.12006 0.0132 0.16406 0.0132 0.0936 5e-3 0.14502 4e-3 0.14502 4e-3h12.215s0.0402 6e-4 0.10693-4e-3c0.0267 0 0.08 6.1e-4 0.12012-4e-3 0.04-9e-3 0.0934-0.0145 0.15088-0.0278 0.22568-0.0401 0.51877-0.14044 0.77783-0.30468 0.25372-0.16024 0.4708-0.38593 0.59766-0.57422 0.13353-0.18427 0.19482-0.32519 0.19482-0.32519s0.10676-0.21176 0.15088-0.44678c0.0267-0.10682 0.0393-0.23082 0.0527-0.31494 5e-3 -0.0935 4e-3 -0.14649 4e-3 -0.14649v-12.307c-5e-3 -0.0668-0.0131-0.15112-0.0264-0.25927-0.04-0.21232-0.12042-0.491-0.27393-0.73536-0.14556-0.24437-0.34444-0.45667-0.51269-0.58887-0.0801-0.0668-0.15925-0.11964-0.21533-0.14502-0.0534-0.0267-0.0806-0.0527-0.0806-0.0527v-6e-3s-0.0804-0.0535-0.24462-0.10693c-0.16425-0.0668-0.42927-0.15088-0.79248-0.15088h-12.224zm-1.0137 4.6318h1.7549v2.8418h3.104v-2.8418h1.7549v7.2378h-1.7549v-2.8476h-3.104v2.8476h-1.7549zm7.5425 6e-3h3.0073c2.1521 0 3.7119 1.5714 3.7119 3.6152 0 2.0438-1.5598 3.6167-3.7119 3.6167h-3.0073zm1.7593 1.5483v4.1352h1.0957c1.2321 0 2.0449-0.86883 2.0449-2.0684 0-1.2112-0.81281-2.0669-2.0449-2.0669z" fill="#c9e400"/>
 <path id="path4536-7" transform="matrix(3.6027 0 0 3.6027 -.0095365 .63991)" d="m3.2 2.8h-1.76l-0.16-0.079999v-1.52l0.16-0.079999h1.76c0.56 0 0.87999 0.16 0.87999 0.87999 0 0.64-0.32 0.79999-0.87999 0.79999zm2.24-0.79999c0-1.36-0.95999-2-2.24-2h-3.12l-0.079999 0.079999v6.4l0.079999 0.079999h1.12l0.079999-0.079999v-2.48l0.16-0.079999h0.87999l0.24 0.079999 1.84 2.48 0.16 0.079999h0.56l0.079999-0.079999v-0.95999l-1.2-1.6v-0.079999c0.79999-0.16 1.44-0.87999 1.44-1.84" clip-path="url(#clipEmfPath1-6)" fill="#c9e400"/>
 <g id="g4652" fill="#c9e400">
  <path id="path4536-6-8" transform="matrix(3.7019 0 0 3.7019 61.441 .23294)" d="m8.8799 3.28c0-0.48-0.4-0.87999-0.95999-0.87999-0.48 0-0.87999 0.4-0.87999 0.87999s0.4 0.87999 0.87999 0.87999c0.56 0 0.95999-0.4 0.95999-0.87999z" clip-path="url(#clipEmfPath1-4-2)"/>
  <g id="g4644">
   <path id="path4536-6" transform="matrix(3.7019 0 0 3.7019 54.809 9.3503)" d="m8.8799 3.28c0-0.48-0.4-0.87999-0.95999-0.87999-0.48 0-0.87999 0.4-0.87999 0.87999s0.4 0.87999 0.87999 0.87999c0.56 0 0.95999-0.4 0.95999-0.87999z" clip-path="url(#clipEmfPath1-4)"/>
   <path id="path4536-6-5" transform="matrix(3.7019 0 0 3.7019 68.074 9.3503)" d="m8.8799 3.28c0-0.48-0.4-0.87999-0.95999-0.87999-0.48 0-0.87999 0.4-0.87999 0.87999s0.4 0.87999 0.87999 0.87999c0.56 0 0.95999-0.4 0.95999-0.87999z" clip-path="url(#clipEmfPath1-4-4)"/>
   <path id="path4536-6-2" transform="matrix(3.7019 0 0 3.7019 54.809 -8.8844)" d="m8.8799 3.28c0-0.48-0.4-0.87999-0.95999-0.87999-0.48 0-0.87999 0.4-0.87999 0.87999s0.4 0.87999 0.87999 0.87999c0.56 0 0.95999-0.4 0.95999-0.87999z" clip-path="url(#clipEmfPath1-4-5)"/>
   <path id="path4536-6-9" transform="matrix(3.7019 0 0 3.7019 68.074 -8.8844)" d="m8.8799 3.28c0-0.48-0.4-0.87999-0.95999-0.87999-0.48 0-0.87999 0.4-0.87999 0.87999s0.4 0.87999 0.87999 0.87999c0.56 0 0.95999-0.4 0.95999-0.87999z" clip-path="url(#clipEmfPath1-4-9)"/>
  </g>
 </g>
 <path id="path4536-81-26" d="m22.784 0.64276-0.57715 0.28711v23.054l0.57715 0.28857h15.69l0.28711-0.28857v-3.457l-0.28711-0.28858h-11.08l-0.28711-0.28857v-5.5195l0.28272-0.28418h10.395l0.28711-0.28857v-3.457l-0.28711-0.28857h-10.395l-0.28272-0.28418v-4.8633l0.28711-0.28711h11.08l0.28711-0.28857v-3.4585l-0.28711-0.28711h-11.656z" fill="#c9e400"/>
</svg>
