<svg id="a" version="1.1" viewBox="0 0 346.52 114.88" xml:space="preserve" xmlns="http://www.w3.org/2000/svg"><rect id="b" x="77.447" y="97.417" width="4.615" height="17.084" fill="#fff"/><polygon id="c" transform="translate(-14.18,-14.177)" points="136.21 121.91 136.21 111.59 140.69 111.59 140.69 128.68 136.21 128.68 127.46 118.8 127.46 128.68 122.98 128.68 122.98 111.59 127.46 111.59" fill="#fff"/><polygon id="d" transform="translate(-14.18,-14.177)" points="161.26 115.7 167.95 115.7 167.95 111.6 150.22 111.6 150.22 115.7 156.78 115.7 156.78 128.68 161.26 128.68" fill="#fff"/><polygon id="e" transform="translate(-14.18,-14.177)" points="217.52 124.73 217.97 124.73 223.22 111.6 228.24 111.6 220.66 128.68 214.82 128.68 207.24 111.6 212.25 111.6" fill="#fff"/><polygon id="f" transform="translate(-14.18,-14.177)" points="253.75 124.63 265.08 124.63 265.08 128.68 249.14 128.68 249.14 111.6 253.75 111.6" fill="#fff"/><polygon id="g" transform="translate(-14.18,-14.177)" points="245.74 115.73 234.94 115.73 234.94 118.12 244.72 118.12 244.72 122.03 234.94 122.03 234.94 124.55 246.22 124.55 246.22 128.68 230.46 128.68 230.46 111.6 245.74 111.6" fill="#fff"/><rect id="h" x="301.44" y="97.417" width="4.613" height="17.084" fill="#fff"/><path id="i" d="m319.06 114.5c4.736-0.225 8.569-4.066 8.569-8.643 0-4.58-3.804-8.146-8.569-8.434h-9.47v17.076h9.47zm0-4.037h-5.07v-9.008h5.07c2.388-8e-3 4.266 2.176 4.266 4.426 0 2.254-1.835 4.515-4.266 4.582z" fill="#fff"/><path id="j" d="m277.83 104.34h-8.6v3.77h4.289v1.535c-0.198 0.113-0.42 0.244-0.656 0.377-0.661 0.363-2.106 0.857-4.003 0.857-3.128 0-5.273-1.785-5.273-5.004 0-3.191 2.469-4.947 5.469-4.947 1.817 0 3.907 0.895 5.028 2.586l3.504-2.107c-2.503-3.576-5.083-4.518-9.271-4.477-5.057 0.045-8.922 3.668-9.113 8.725-0.226 5.982 4.254 9.09 9.78 9.221 3.646 0.084 5.568-1.588 5.568-1.588l0.6 1.213h2.678z" fill="#fff"/><path id="k" d="m100.08 112.06 1.025 2.443h4.777l-7.15-17.084h-6.651l-7.105 17.084h4.776l1.023-2.443zm-4.934-10.554h0.524l2.843 6.818h-6.172z" fill="#fff"/><path id="l" d="m0 114.5h4.449v-3.598h5.375l1.992 3.598h4.857l-2.592-4.604s1.85-1.297 2.419-2.428c0.571-1.131 0.827-2.572 0.612-4.564-0.211-1.992-2.22-4.547-4.598-5.09-1.58-0.354-2.49-0.398-2.824-0.398h-9.69zm4.449-7.803v-5.109h5.662c1.501 0 2.623 0.973 2.578 2.641-0.041 1.58-1.278 2.406-2.574 2.469h-5.666z" fill="#fff"/><path id="m" d="m156.69 114.5h4.448v-3.598h5.373l1.993 3.598h4.854l-2.586-4.604s1.847-1.295 2.421-2.428c0.568-1.129 0.822-2.57 0.613-4.564-0.218-1.99-2.223-4.547-4.601-5.084-1.581-0.355-2.129-0.404-2.827-0.404h-9.688zm4.448-7.803v-5.105h5.665c1.502 0 2.622 0.969 2.574 2.637-0.043 1.58-1.28 2.406-2.57 2.469h-5.669z" fill="#fff"/><path id="n" d="m190.29 112.06 1.021 2.441h4.775l-7.146-17.08h-6.652l-7.105 17.08h4.774l1.027-2.441zm-4.936-10.554h0.522l2.845 6.816h-6.174z" fill="#fff"/><path id="o" d="m289.35 114.88c-4.26-0.031-8.236-2.848-8.604-7.412v-10.041h4.614v10.152c0.088 2.016 1.771 3.463 3.96 3.48 2.188-0.018 3.874-1.465 3.961-3.48v-10.152h4.617v10.041c-0.37 4.564-4.292 7.38-8.548 7.412z" fill="#fff"/><polygon id="p" transform="translate(-14.18,-14.177)" points="359.99 115.73 349.19 115.73 349.19 118.12 358.98 118.12 358.98 122.03 349.19 122.03 349.19 124.55 360.48 124.55 360.48 128.68 344.72 128.68 344.72 111.6 359.99 111.6" fill="#fff"/><path id="q" d="m28.71 114.88c-4.258-0.031-8.235-2.848-8.603-7.412v-10.041h4.611v10.152c0.092 2.016 1.773 3.463 3.966 3.48 2.188-0.018 3.87-1.465 3.96-3.48v-10.152h4.615v10.041c-0.368 4.564-4.291 7.38-8.549 7.412z" fill="#fff"/><path id="r" d="m55.883 99.667-2.01 3.309s-2.145-2.02-6.027-2.02c-2.797 0-3.293 0.883-3.293 1.4 0 0.484 0.38 0.854 1.309 0.947 1.527 0.148 6.258 0.623 7.602 1.313 1.347 0.684 2.771 1.953 2.771 4.496 0 2.615-1.464 5.766-8.191 5.766-5.441 0-8.174-2.902-8.174-2.902l1.95-3.534s2.943 2.564 6.518 2.564c3.564 0 3.898-1.273 3.898-1.961 0-0.863-1.931-0.992-3.93-1.15-1.64-0.129-3.332-0.322-3.99-0.527-3.146-0.973-3.784-2.84-3.784-4.797 0-2.334 1.21-5.641 7.392-5.641 5.529 0 7.959 2.737 7.959 2.737z" fill="#fff"/><path id="s" d="m74.177 99.667-2.01 3.309s-2.146-2.02-6.025-2.02c-2.8 0-3.296 0.883-3.296 1.4 0 0.484 0.379 0.854 1.309 0.947 1.526 0.148 6.256 0.623 7.605 1.313 1.345 0.684 2.768 1.953 2.768 4.496 0 2.615-1.462 5.766-8.192 5.766-5.442 0-8.17-2.902-8.17-2.902l1.951-3.533s2.943 2.564 6.514 2.564c3.568 0 3.898-1.273 3.898-1.961 0-0.863-1.931-0.992-3.932-1.15-1.639-0.129-3.324-0.322-3.988-0.527-3.145-0.973-3.781-2.84-3.781-4.797 0-2.334 1.209-5.641 7.389-5.641 5.533-1e-3 7.96 2.736 7.96 2.736z" fill="#fff"/><polygon id="t" transform="translate(-14.18,-14.177)" points="112.74 96.913 112.74 37.436 91.782 37.436 91.782 16.479 157.73 16.479 157.73 37.436 136.77 37.436 136.77 96.913" fill="#fff"/><path id="u" d="m232.22 41.748v40.988h-12.943v-10.52c-7.771 7.911-18.627 12.822-30.629 12.822-23.643 0-42.812-19.034-42.812-42.519 0-23.48 19.169-42.519 42.812-42.519 13.741 0 25.967 6.43 33.798 16.427l-18.354 14.087c-3.588-4.549-9.175-7.256-15.444-7.256-10.837 0-19.618 8.503-19.618 19.261 0 10.76 8.781 19.259 19.618 19.259 6.229 0 11.633-2.66 15.223-7.087h-10.477v-12.943z" fill="#fff"/><g id="v" transform="translate(-14.18,-14.177)"><path id="w" d="m14.18 16.543h38.002c12.283 0 20.784 3.212 26.177 8.609 4.708 4.706 7.12 10.907 7.12 19.059 0 11.203-5.44 20.275-13.975 25.007 0.752 1.253 16.617 27.695 16.617 27.695h-25.72l-12.542-20.958h-13.406v20.958h-22.273zm37.564 39.369c7.272 0 11.461-3.526 11.461-9.368 0-6.06-4.407-9.146-11.568-9.146h-15.184v18.514z" fill="#fff"/></g><path id="x" d="m245.67 2.489v80.166h100.85v-80.166zm70.474 67.882h-13.017l-14.096-36.851h-11.04v17.119c0 6.602 3.229 9.166 9.051 8.796v11.003c-13.573 1.467-21.333-6.967-21.333-19.89v-17.028h-7.757v-10.343h7.757v-8.405h12.282v8.405h19.911l11.735 35.198 11.825-35.198h12.466z" fill="#3cbfef"/></svg>
