<svg height="114.88007" viewBox="0 0 346.52302 114.88007" width="346.52301" xmlns="http://www.w3.org/2000/svg"><g fill="#fff"><path d="m77.446999 97.417h4.615v17.084h-4.615z"/><path d="m136.207 121.908v-10.314h4.481v17.084h-4.481l-8.742-9.879v9.879h-4.481v-17.084h4.481z" transform="translate(-14.18 -14.177)"/><path d="m161.258 115.701h6.695v-4.099h-17.73v4.099h6.559v12.977h4.476z" transform="translate(-14.18 -14.177)"/><path d="m217.516 124.729h.455l5.253-13.127h5.011l-7.57 17.076h-5.847l-7.583-17.076h5.011z" transform="translate(-14.18 -14.177)"/><path d="m253.75 124.627h11.327v4.051h-15.938v-17.076h4.611z" transform="translate(-14.18 -14.177)"/><path d="m245.735 115.73h-10.799v2.395h9.786v3.902h-9.786v2.522h11.283v4.129h-15.759v-17.076h15.275z" transform="translate(-14.18 -14.177)"/><path d="m301.436 97.417h4.613v17.084h-4.613z"/><path d="m319.06 114.501c4.736-.225 8.569-4.066 8.569-8.643 0-4.58-3.804-8.146-8.569-8.434h-9.47v17.076h9.47zm0-4.037h-5.07v-9.008h5.07c2.388-.008 4.266 2.176 4.266 4.426 0 2.254-1.835 4.515-4.266 4.582z"/><path d="m277.83 104.341h-8.6v3.77h4.289v1.535c-.198.113-.42.244-.656.377-.661.363-2.106.857-4.003.857-3.128 0-5.273-1.785-5.273-5.004 0-3.191 2.469-4.947 5.469-4.947 1.817 0 3.907.895 5.028 2.586l3.504-2.107c-2.503-3.576-5.083-4.518-9.271-4.477-5.057.045-8.922 3.668-9.113 8.725-.226 5.982 4.254 9.09 9.78 9.221 3.646.084 5.568-1.588 5.568-1.588l.6 1.213h2.678z"/><path d="m100.084 112.057 1.025 2.443h4.777l-7.15-17.084h-6.651l-7.105 17.084h4.776l1.023-2.443zm-4.934-10.554h.524l2.843 6.818h-6.172z"/><path d="m0 114.501h4.449v-3.598h5.375l1.992 3.598h4.857l-2.592-4.604s1.85-1.297 2.419-2.428c.571-1.131.827-2.572.612-4.564-.211-1.992-2.22-4.547-4.598-5.09-1.58-.354-2.49-.398-2.824-.398h-9.69zm4.449-7.803v-5.109h5.662c1.501 0 2.623.973 2.578 2.641-.041 1.58-1.278 2.406-2.574 2.469h-5.666z"/><path d="m156.693 114.501h4.448v-3.598h5.373l1.993 3.598h4.854l-2.586-4.604s1.847-1.295 2.421-2.428c.568-1.129.822-2.57.613-4.564-.218-1.99-2.223-4.547-4.601-5.084-1.581-.355-2.129-.404-2.827-.404h-9.688zm4.448-7.803v-5.105h5.665c1.502 0 2.622.969 2.574 2.637-.043 1.58-1.28 2.406-2.57 2.469h-5.669z"/><path d="m190.293 112.063 1.021 2.441h4.775l-7.146-17.08h-6.652l-7.105 17.08h4.774l1.027-2.441zm-4.936-10.554h.522l2.845 6.816h-6.174z"/><path d="m289.353 114.878c-4.26-.031-8.236-2.848-8.604-7.412v-10.041h4.614v10.152c.088 2.016 1.771 3.463 3.96 3.48 2.188-.018 3.874-1.465 3.961-3.48v-10.152h4.617v10.041c-.37 4.564-4.292 7.38-8.548 7.412z"/><path d="m359.988 115.73h-10.795v2.395h9.786v3.902h-9.786v2.522h11.283v4.129h-15.761v-17.076h15.273z" transform="translate(-14.18 -14.177)"/><path d="m28.71 114.878c-4.258-.031-8.235-2.848-8.603-7.412v-10.041h4.611v10.152c.092 2.016 1.773 3.463 3.966 3.48 2.188-.018 3.87-1.465 3.96-3.48v-10.152h4.615v10.041c-.368 4.564-4.291 7.38-8.549 7.412z"/><path d="m55.883 99.667-2.01 3.309s-2.145-2.02-6.027-2.02c-2.797 0-3.293.883-3.293 1.4 0 .484.38.854 1.309.947 1.527.148 6.258.623 7.602 1.313 1.347.684 2.771 1.953 2.771 4.496 0 2.615-1.464 5.766-8.191 5.766-5.441 0-8.174-2.902-8.174-2.902l1.95-3.534s2.943 2.564 6.518 2.564c3.564 0 3.898-1.273 3.898-1.961 0-.863-1.931-.992-3.93-1.15-1.64-.129-3.332-.322-3.99-.527-3.146-.973-3.784-2.84-3.784-4.797 0-2.334 1.21-5.641 7.392-5.641 5.529 0 7.959 2.737 7.959 2.737z"/><path d="m74.177 99.667-2.01 3.309s-2.146-2.02-6.025-2.02c-2.8 0-3.296.883-3.296 1.4 0 .484.379.854 1.309.947 1.526.148 6.256.623 7.605 1.313 1.345.684 2.768 1.953 2.768 4.496 0 2.615-1.462 5.766-8.192 5.766-5.442 0-8.17-2.902-8.17-2.902l1.951-3.533s2.943 2.564 6.514 2.564c3.568 0 3.898-1.273 3.898-1.961 0-.863-1.931-.992-3.932-1.15-1.639-.129-3.324-.322-3.988-.527-3.145-.973-3.781-2.84-3.781-4.797 0-2.334 1.209-5.641 7.389-5.641 5.533-.001 7.96 2.736 7.96 2.736z"/><path d="m112.739 96.913v-59.477h-20.957v-20.957h65.952v20.957h-20.964v59.477z" transform="translate(-14.18 -14.177)"/><path d="m232.225 41.748v40.988h-12.943v-10.52c-7.771 7.911-18.627 12.822-30.629 12.822-23.643 0-42.812-19.034-42.812-42.519 0-23.48 19.169-42.519 42.812-42.519 13.741 0 25.967 6.43 33.798 16.427l-18.354 14.087c-3.588-4.549-9.175-7.256-15.444-7.256-10.837 0-19.618 8.503-19.618 19.261 0 10.76 8.781 19.259 19.618 19.259 6.229 0 11.633-2.66 15.223-7.087h-10.477v-12.943z"/><path d="m14.18 16.543h38.002c12.283 0 20.784 3.212 26.177 8.609 4.708 4.706 7.12 10.907 7.12 19.059 0 11.203-5.44 20.275-13.975 25.007.752 1.253 16.617 27.695 16.617 27.695h-25.72l-12.542-20.958h-13.406v20.958h-22.273zm37.564 39.369c7.272 0 11.461-3.526 11.461-9.368 0-6.06-4.407-9.146-11.568-9.146h-15.184v18.514z" transform="translate(-14.18 -14.177)"/></g><path d="m245.669 2.489v80.166h100.854v-80.166zm70.474 67.882h-13.017l-14.096-36.851h-11.04v17.119c0 6.602 3.229 9.166 9.051 8.796v11.003c-13.573 1.467-21.333-6.967-21.333-19.89v-17.028h-7.757v-10.343h7.757v-8.405h12.282v8.405h19.911l11.735 35.198 11.825-35.198h12.466z" fill="#3cbfef"/></svg>