<?xml version="1.0" encoding="UTF-8" standalone="no"?>
<!-- Generator: Adobe Illustrator 16.0.3, SVG Export Plug-In . SVG Version: 6.00 Build 0)  -->

<svg
   xmlns:dc="http://purl.org/dc/elements/1.1/"
   xmlns:cc="http://creativecommons.org/ns#"
   xmlns:rdf="http://www.w3.org/1999/02/22-rdf-syntax-ns#"
   xmlns:svg="http://www.w3.org/2000/svg"
   xmlns="http://www.w3.org/2000/svg"
   xmlns:sodipodi="http://sodipodi.sourceforge.net/DTD/sodipodi-0.dtd"
   xmlns:inkscape="http://www.inkscape.org/namespaces/inkscape"
   version="1.1"
   id="Layer_1"
   x="0px"
   y="0px"
   width="346.52301"
   height="114.88007"
   viewBox="0 0 346.52302 114.88007"
   xml:space="preserve"
   sodipodi:docname="RTG TV.svg"
   inkscape:version="0.92.0 r15299"><metadata
     id="metadata53"><rdf:RDF><cc:Work
         rdf:about=""><dc:format>image/svg+xml</dc:format><dc:type
           rdf:resource="http://purl.org/dc/dcmitype/StillImage" /><dc:title></dc:title></cc:Work></rdf:RDF></metadata><defs
     id="defs51" /><sodipodi:namedview
     pagecolor="#ffffff"
     bordercolor="#666666"
     borderopacity="1"
     objecttolerance="10"
     gridtolerance="10"
     guidetolerance="10"
     inkscape:pageopacity="0"
     inkscape:pageshadow="2"
     inkscape:window-width="1920"
     inkscape:window-height="1017"
     id="namedview49"
     showgrid="false"
     fit-margin-top="0"
     fit-margin-left="0"
     fit-margin-right="0"
     fit-margin-bottom="0"
     inkscape:zoom="0.75757174"
     inkscape:cx="173.26099"
     inkscape:cy="57.440066"
     inkscape:window-x="-8"
     inkscape:window-y="-8"
     inkscape:window-maximized="1"
     inkscape:current-layer="Layer_1" /><rect
     x="77.446999"
     y="97.417"
     width="4.6149998"
     height="17.084"
     id="rect2"
     style="fill:#ffffff" /><polygon
     points="136.207,121.908 136.207,111.594 140.688,111.594 140.688,128.678 136.207,128.678 127.465,118.799 127.465,128.678 122.984,128.678 122.984,111.594 127.465,111.594 "
     id="polygon4"
     style="fill:#ffffff"
     transform="translate(-14.18,-14.177)" /><polygon
     points="161.258,115.701 167.953,115.701 167.953,111.602 150.223,111.602 150.223,115.701 156.782,115.701 156.782,128.678 161.258,128.678 "
     id="polygon6"
     style="fill:#ffffff"
     transform="translate(-14.18,-14.177)" /><polygon
     points="217.516,124.729 217.971,124.729 223.224,111.602 228.235,111.602 220.665,128.678 214.818,128.678 207.235,111.602 212.246,111.602 "
     id="polygon8"
     style="fill:#ffffff"
     transform="translate(-14.18,-14.177)" /><polygon
     points="253.75,124.627 265.077,124.627 265.077,128.678 249.139,128.678 249.139,111.602 253.75,111.602 "
     id="polygon10"
     style="fill:#ffffff"
     transform="translate(-14.18,-14.177)" /><polygon
     points="245.735,115.73 234.936,115.73 234.936,118.125 244.722,118.125 244.722,122.027 234.936,122.027 234.936,124.549 246.219,124.549 246.219,128.678 230.46,128.678 230.46,111.602 245.735,111.602 "
     id="polygon12"
     style="fill:#ffffff"
     transform="translate(-14.18,-14.177)" /><rect
     x="301.436"
     y="97.417"
     width="4.6129999"
     height="17.084"
     id="rect14"
     style="fill:#ffffff" /><path
     d="m 319.06,114.501 c 4.736,-0.225 8.569,-4.066 8.569,-8.643 0,-4.58 -3.804,-8.146 -8.569,-8.434 h -9.47 V 114.5 h 9.47 z m 0,-4.037 h -5.07 v -9.008 h 5.07 c 2.388,-0.008 4.266,2.176 4.266,4.426 0,2.254 -1.835,4.515 -4.266,4.582 z"
     id="path16"
     inkscape:connector-curvature="0"
     style="fill:#ffffff" /><path
     d="m 277.83,104.341 h -8.6 v 3.77 h 4.289 v 1.535 c -0.198,0.113 -0.42,0.244 -0.656,0.377 -0.661,0.363 -2.106,0.857 -4.003,0.857 -3.128,0 -5.273,-1.785 -5.273,-5.004 0,-3.191 2.469,-4.947 5.469,-4.947 1.817,0 3.907,0.895 5.028,2.586 l 3.504,-2.107 c -2.503,-3.576 -5.083,-4.518 -9.271,-4.477 -5.057,0.045 -8.922,3.668 -9.113,8.725 -0.226,5.982 4.254,9.09 9.78,9.221 3.646,0.084 5.568,-1.588 5.568,-1.588 l 0.6,1.213 h 2.678 z"
     id="path18"
     inkscape:connector-curvature="0"
     style="fill:#ffffff" /><path
     d="m 100.084,112.057 1.025,2.443 h 4.777 L 98.736,97.416 H 92.085 L 84.98,114.5 h 4.776 l 1.023,-2.443 z M 95.15,101.503 h 0.524 l 2.843,6.818 h -6.172 z"
     id="path20"
     inkscape:connector-curvature="0"
     style="fill:#ffffff" /><path
     d="m 0,114.501 h 4.449 v -3.598 h 5.375 l 1.992,3.598 h 4.857 l -2.592,-4.604 c 0,0 1.85,-1.297 2.419,-2.428 0.571,-1.131 0.827,-2.572 0.612,-4.564 -0.211,-1.992 -2.22,-4.547 -4.598,-5.09 -1.58,-0.354 -2.49,-0.398 -2.824,-0.398 H 0 Z m 4.449,-7.803 v -5.109 c 0,0 4.166,0 5.662,0 1.501,0 2.623,0.973 2.578,2.641 -0.041,1.58 -1.278,2.406 -2.574,2.469 H 4.449 Z"
     id="path22"
     inkscape:connector-curvature="0"
     style="fill:#ffffff" /><path
     d="m 156.693,114.501 h 4.448 v -3.598 h 5.373 l 1.993,3.598 h 4.854 l -2.586,-4.604 c 0,0 1.847,-1.295 2.421,-2.428 0.568,-1.129 0.822,-2.57 0.613,-4.564 -0.218,-1.99 -2.223,-4.547 -4.601,-5.084 -1.581,-0.355 -2.129,-0.404 -2.827,-0.404 h -9.688 z m 4.448,-7.803 v -5.105 c 0,0 4.167,0 5.665,0 1.502,0 2.622,0.969 2.574,2.637 -0.043,1.58 -1.28,2.406 -2.57,2.469 h -5.669 z"
     id="path24"
     inkscape:connector-curvature="0"
     style="fill:#ffffff" /><path
     d="m 190.293,112.063 1.021,2.441 h 4.775 l -7.146,-17.08 h -6.652 l -7.105,17.08 h 4.774 l 1.027,-2.441 z m -4.936,-10.554 h 0.522 l 2.845,6.816 h -6.174 z"
     id="path26"
     inkscape:connector-curvature="0"
     style="fill:#ffffff" /><path
     d="m 289.353,114.878 c -4.26,-0.031 -8.236,-2.848 -8.604,-7.412 V 97.425 h 4.614 v 10.152 c 0.088,2.016 1.771,3.463 3.96,3.48 2.188,-0.018 3.874,-1.465 3.961,-3.48 V 97.425 h 4.617 v 10.041 c -0.37,4.564 -4.292,7.38 -8.548,7.412 z"
     id="path28"
     inkscape:connector-curvature="0"
     style="fill:#ffffff" /><polygon
     points="359.988,115.73 349.193,115.73 349.193,118.125 358.979,118.125 358.979,122.027 349.193,122.027 349.193,124.549 360.476,124.549 360.476,128.678 344.715,128.678 344.715,111.602 359.988,111.602 "
     id="polygon30"
     style="fill:#ffffff"
     transform="translate(-14.18,-14.177)" /><path
     d="m 28.71,114.878 c -4.258,-0.031 -8.235,-2.848 -8.603,-7.412 V 97.425 h 4.611 v 10.152 c 0.092,2.016 1.773,3.463 3.966,3.48 2.188,-0.018 3.87,-1.465 3.96,-3.48 V 97.425 h 4.615 v 10.041 c -0.368,4.564 -4.291,7.38 -8.549,7.412 z"
     id="path32"
     inkscape:connector-curvature="0"
     style="fill:#ffffff" /><path
     d="m 55.883,99.667 -2.01,3.309 c 0,0 -2.145,-2.02 -6.027,-2.02 -2.797,0 -3.293,0.883 -3.293,1.4 0,0.484 0.38,0.854 1.309,0.947 1.527,0.148 6.258,0.623 7.602,1.313 1.347,0.684 2.771,1.953 2.771,4.496 0,2.615 -1.464,5.766 -8.191,5.766 -5.441,0 -8.174,-2.902 -8.174,-2.902 l 1.95,-3.534 c 0,0 2.943,2.564 6.518,2.564 3.564,0 3.898,-1.273 3.898,-1.961 0,-0.863 -1.931,-0.992 -3.93,-1.15 -1.64,-0.129 -3.332,-0.322 -3.99,-0.527 -3.146,-0.973 -3.784,-2.84 -3.784,-4.797 0,-2.334 1.21,-5.641 7.392,-5.641 5.529,0 7.959,2.737 7.959,2.737 z"
     id="path34"
     inkscape:connector-curvature="0"
     style="fill:#ffffff" /><path
     d="m 74.177,99.667 -2.01,3.309 c 0,0 -2.146,-2.02 -6.025,-2.02 -2.8,0 -3.296,0.883 -3.296,1.4 0,0.484 0.379,0.854 1.309,0.947 1.526,0.148 6.256,0.623 7.605,1.313 1.345,0.684 2.768,1.953 2.768,4.496 0,2.615 -1.462,5.766 -8.192,5.766 -5.442,0 -8.17,-2.902 -8.17,-2.902 l 1.951,-3.533 c 0,0 2.943,2.564 6.514,2.564 3.568,0 3.898,-1.273 3.898,-1.961 0,-0.863 -1.931,-0.992 -3.932,-1.15 -1.639,-0.129 -3.324,-0.322 -3.988,-0.527 -3.145,-0.973 -3.781,-2.84 -3.781,-4.797 0,-2.334 1.209,-5.641 7.389,-5.641 5.533,-10e-4 7.96,2.736 7.96,2.736 z"
     id="path36"
     inkscape:connector-curvature="0"
     style="fill:#ffffff" /><polygon
     points="112.739,96.913 112.739,37.436 91.782,37.436 91.782,16.479 157.734,16.479 157.734,37.436 136.77,37.436 136.77,96.913 "
     id="polygon38"
     style="fill:#ffffff"
     transform="translate(-14.18,-14.177)" /><path
     d="m 232.225,41.748 v 40.988 h -12.943 v -10.52 c -7.771,7.911 -18.627,12.822 -30.629,12.822 -23.643,0 -42.812,-19.034 -42.812,-42.519 C 145.841,19.039 165.01,0 188.653,0 c 13.741,0 25.967,6.43 33.798,16.427 l -18.354,14.087 c -3.588,-4.549 -9.175,-7.256 -15.444,-7.256 -10.837,0 -19.618,8.503 -19.618,19.261 0,10.76 8.781,19.259 19.618,19.259 6.229,0 11.633,-2.66 15.223,-7.087 H 193.399 V 41.748 Z"
     id="path40"
     inkscape:connector-curvature="0"
     style="fill:#ffffff" /><g
     id="g44"
     transform="translate(-14.18,-14.177)"><path
       d="m 14.18,16.543 h 38.002 c 12.283,0 20.784,3.212 26.177,8.609 4.708,4.706 7.12,10.907 7.12,19.059 0,11.203 -5.44,20.275 -13.975,25.007 0.752,1.253 16.617,27.695 16.617,27.695 H 62.401 L 49.859,75.955 H 36.453 V 96.913 H 14.18 Z m 37.564,39.369 c 7.272,0 11.461,-3.526 11.461,-9.368 0,-6.06 -4.407,-9.146 -11.568,-9.146 H 36.453 v 18.514 z"
       id="path42"
       inkscape:connector-curvature="0"
       style="fill:#ffffff" /></g><path
     d="M 245.669,2.489 V 82.655 H 346.523 V 2.489 Z m 70.474,67.882 H 303.126 L 289.03,33.52 h -11.04 v 17.119 c 0,6.602 3.229,9.166 9.051,8.796 v 11.003 c -13.573,1.467 -21.333,-6.967 -21.333,-19.89 V 33.52 h -7.757 V 23.177 h 7.757 v -8.405 h 12.282 v 8.405 h 19.911 l 11.735,35.198 11.825,-35.198 h 12.466 z"
     id="path46"
     inkscape:connector-curvature="0"
     style="fill:#3cbfef" /></svg>