<svg width="800" height="410.84" space="preserve" version="1.1" viewBox="0 0 800 410.84" xmlns="http://www.w3.org/2000/svg">
 <link href="" rel="stylesheet" type="text/css"/>
 <style type="text/css"/>
 <radialGradient id="SVGID_1_" cx="199.56" cy="19.578" r="216.76" gradientTransform="scale(2.1047)" gradientUnits="userSpaceOnUse">
  <stop stop-color="#fff" offset="0"/>
  <stop stop-color="#fff" offset=".6129"/>
  <stop stop-color="#c8c8c8" offset=".8226"/>
  <stop stop-color="#969696" offset="1"/>
 </radialGradient>
 <path d="m147.96 113.65h503.66c6.9455 0 12.628-5.6827 12.628-12.628v-88.398c0-6.9455-5.6827-12.628-12.628-12.628h-503.66c-6.9455 0-12.628 5.6827-12.628 12.628v88.608c0 6.9455 5.6827 12.418 12.628 12.418zm344.96-96.185h68.824v61.878h88.819v15.154h-157.64zm-178.27 0h160.17v15.154h-45.251v61.878h-65.456v-61.878h-49.461zm-166.06 0h132.18c4.6304 1.0524 7.9979 2.9466 10.103 4.6304 6.7351 5.0513 10.103 13.049 10.103 22.099 0 8.8398-4.2094 15.575-12.628 19.995-2.5256 1.2628-6.7351 2.3152-12.418 3.578l31.992 26.73h-57.459l-26.73-27.151h-14.733v27.151h-60.405zm95.133 31.781c1.8942-2.3152 2.7361-4.6304 2.7361-7.3665s-0.84189-5.2618-2.5256-7.156c-0.63142-0.63141-1.2628-1.2628-2.9466-1.8942h-32.413v19.153h32.413c1.2628-1.0524 2.1047-2.1047 2.7361-2.7361zm115.13 304.55c43.147 0 78.295-35.149 78.295-78.295s-35.149-78.295-78.295-78.295-78.295 35.149-78.295 78.295c0.21047 43.147 35.149 78.295 78.295 78.295zm0-137.86c32.833 0 59.353 26.73 59.353 59.353 0 32.833-26.73 59.353-59.353 59.353s-59.353-26.73-59.353-59.353 26.73-59.353 59.353-59.353zm305.81-75.77h-55.775c-5.2618 0-9.4712 4.2094-9.4712 9.4712v185.21h-77.874v-191.53c0-5.2618-4.2094-9.4712-9.4712-9.4712s-9.4712 4.2094-9.4712 9.4712v201c0 5.2618 4.2094 9.4712 9.4712 9.4712h152.38c43.147 0 78.295-35.149 78.295-78.295s-35.149-78.295-78.295-78.295c-5.2618 0-9.4712 4.2094-9.4712 9.4712v128.18h-8.6293v-147.75h18.1c48.619 0 88.398 39.569 88.398 88.398 0 48.619-39.358 88.187-87.977 88.398h-170.9v-220.57c0-5.2618-4.2094-9.4712-9.4712-9.4712s-9.4712 4.2094-9.4712 9.4712v132.18c0 27.361-9.4712 52.618-25.467 72.612-0.42094 0.42095-0.84188 1.0524-1.2628 1.6838-21.468 25.677-53.67 42.305-89.661 42.305-42.094 0-80.4-22.52-101.24-58.932 1.6838-3.578 3.3675-7.3665 4.6304-11.155 17.259 35.78 54.091 60.616 96.606 60.616 59.142 0 107.13-48.198 107.13-107.13 0-59.142-47.987-107.13-107.13-107.13-23.573 0-45.883 7.3665-64.615 21.679-16.206 12.207-28.624 29.045-35.78 47.987h-9.8921c1.6838-5.2618 3.7885-10.103 6.3141-14.943 0.42095-0.63141 0.63142-1.2628 1.0524-1.8942 19.784-37.464 58.721-61.878 102.92-61.878 34.728 0 67.351 15.364 89.45 41.884 1.0524 1.6838 2.3152 2.9466 4.2094 3.7885 3.3675 1.4733 7.3665 1.0524 10.103-1.2628 2.7361-2.1047 3.7885-5.4722 3.3675-8.6293v-51.776c0-5.2618-4.2094-9.4712-9.4712-9.4712s-9.4712 4.2094-9.4712 9.4712v29.466c-24.415-21.047-55.354-32.623-88.187-32.623-30.729 0-61.037 10.734-84.82 29.887-10.313 8.4188-19.363 18.311-26.94 29.255-25.046-36.832-66.509-59.142-111.76-59.142-74.507 0-135.12 60.616-135.12 135.33s60.616 135.33 135.33 135.33c46.304 0 87.345-23.573 111.76-59.142 25.046 36.832 66.509 59.142 111.76 59.142 33.675 0 64.404-12.418 88.187-32.833v23.362c0 5.2618 4.2094 9.4712 9.4712 9.4712h208.16c74.507 0 135.33-60.616 135.33-135.33s-60.616-135.33-135.33-135.33zm9.4712 76.611c28.203 4.6304 49.882 29.045 49.882 58.721 0 29.466-21.678 54.091-49.882 58.721zm-399.89 33.254c11.155-37.253 46.093-62.931 84.609-62.931 48.619 0 88.398 39.569 88.398 88.398 0 48.619-39.569 88.398-88.398 88.398-48.619 0-88.187-39.569-88.398-88.187v-0.42094c0.21047-8.6293 1.4733-17.048 3.7885-25.257zm-22.52 25.677c-0.21047 63.983-52.407 116.18-116.39 116.18-64.194 0-116.39-52.197-116.39-116.39 0-64.194 52.197-116.39 116.39-116.39 42.094 0 80.4 22.52 101.24 58.932-1.6838 3.578-3.3675 7.3665-4.6304 11.155-7.3665-15.364-18.521-28.835-31.992-39.148-18.942-14.312-41.042-21.889-64.615-21.889-59.142 0-107.13 47.987-107.13 107.13s48.198 107.13 107.13 107.13c59.142 0 107.13-48.198 107.13-107.13 0-5.2618-4.2094-9.4712-9.4712-9.4712h-89.661c-5.2618 0-9.4712 4.2094-9.4712 9.4712s4.2094 9.4712 9.4712 9.4712h79.768c-4.6304 44.199-42.305 78.927-87.766 78.927-48.619 0-88.398-39.569-88.398-88.398 0-48.619 39.569-88.398 88.398-88.398 34.307 0 65.456 20.205 79.979 50.724h-11.365c-13.681-24.836-39.989-40.621-68.614-40.621-43.147 0-78.295 35.149-78.295 78.295s35.149 78.295 78.295 78.295c30.308 0 57.88-17.469 70.718-44.83 1.2628-1.6838 2.1047-3.7885 2.1047-5.8932 0-3.9989-2.5256-7.3665-5.8932-8.6293h-0.21047c-1.6838-0.84189-3.578-0.84189-5.2618-0.63142h-53.46c-5.2618 0-9.4712 4.2094-9.4712 9.4712s4.2094 9.4712 9.4712 9.4712h38.516c-11.155 13.891-27.993 22.52-46.514 22.52-32.833 0-59.353-26.73-59.353-59.353 0-32.833 26.73-59.353 59.353-59.353 17.89 0 34.728 8.2084 45.883 21.679h-37.885c-5.2618 0-9.4712 4.2094-9.4712 9.4712s4.2094 9.4712 9.4712 9.4712h109.87c-1.0524 6.1037-1.4798 12.418-1.4798 18.732v-1e-3zm412.94 116.18h-198.68v-33.886c3.3675-4.4199 6.5246-9.0502 9.4712-13.891v28.835c0 2.5256 0.84188 5.0513 2.7361 6.9455 1.8942 1.8942 4.2094 2.7361 6.7351 2.7361h179.95c59.142 0 107.13-48.198 107.13-107.13 0-59.142-48.198-107.13-107.13-107.13h-27.572c-5.2618 0-9.4712 4.2094-9.4712 9.4712v157.22h-9.4712v-176.16h46.304c64.194 0 116.39 52.197 116.39 116.39 0 64.404-52.197 116.6-116.39 116.6z" fill="url(#SVGID_1_)" stroke-width="2.1047"/>
</svg>
