<svg height="200.8" viewBox="0 0 158.75 53.127573" width="600" xmlns="http://www.w3.org/2000/svg"><g transform="translate(-50.189 -59.445)"><path d="m50.189 59.445h157.18v32.803h-157.18z"/><g fill="#fff"><path d="m93.783 64.824c-.68109-.0067-1.3829.02394-2.0267.02394l-35.347.0077s-.02934 17.186-.02934 22.504h17.474s-.0073-7.7006 0-7.7465c.0073-.05365 3.6079-.11498 4.1535-.07666.96752.0613 2.4297 2.1531 3.1644 2.927 1.4404 1.5248 3.0263 3.1876 4.5467 4.6051.0291.02299.06554.05368.08738.07666.03632.02298.05826.04591.09473.06889.04358.02299.09443.046.14543.07666.38555.1226.9384.0689 1.3676.0689.90204 0 15.888.03817 15.888.03817s-7.0272-5.5396-9.8207-7.708c.04358-.06896 1.6293-.11495 2.5168-.56702.98936-.49805 2.1171-1.0192 2.8446-1.977.48739-.63597.91667-1.3024 1.2222-2.0533.32734-.81986.45088-1.7471.45088-2.7355 0-.68194.007-1.3794-.10911-1.9847-.45829-2.4749-2.3863-4.7274-4.7214-5.3481-.56015-.14942-1.2203-.19352-1.9014-.20022zm-11.759 4.3848c.4883-.0049.9593.01828 1.2139.12939.93842.39844 1.5275 1.5171 1.5494 2.5822.01453 1.134-.42927 2.3215-1.3386 2.8655-.26916.1609-1.9131.14566-2.255.15332h-7.4563c0-1.3486-.03668-5.7162-.03668-5.7162l7.0054.02296c.32372 0 .82956-.03241 1.3179-.03719z"/><path d="m134.67 87.03c-.77835 0-1.4612-.01533-1.6889-.01533h-14.05v-17.853h-14.439v-4.3981h46.101v3.448c0 .39078-.0148 1.3715-.0148 1.3715s-2.4966-.0077-3.5466.0077h-6.4396c-.82976.01533-2.9298-.0077-2.9298-.0077s.0293 1.6091.0293 2.1684v15.209s-1.7329.06896-3.0179.06896"/><path d="m156.3 87.015v-22.512l19.768-.09194s-.0148 3.1109-.0148 4.4058v13.631h25.796c0 .60532-.0219 4.4671-.0219 4.4671z"/></g><path d="m200.09 98.34c-.70949.000225-1.422.0098-2.1238.0098h-8.4834v14.055h8.5678c2.861 0 5.8914.0849 8.1602-.93621.61528-.27656 1.2841-.58843 1.7609-1.0919 2.215-2.3118.30775-5.1059-2.6456-5.5597v-.0779c.40762 0 1.0076-.34052 1.323-.53198 2.238-1.397 1.7228-4.113-.65372-5.0916-1.6785-.69141-3.7769-.77639-5.9054-.77573zm-.41337 2.4063c.92508.006 1.8695.0464 2.6194.2911.53836.17727 1.0229.56731 1.0305 1.1488.007.39711-.17694.71631-.45382.98578-.73062.7233-2.2148.49637-2.4609.60983h-6.0607v-3.0349h4.4146c.2961 0 .6025-.003.91086-.00062zm.48291 5.4227c1.1587-.005 2.35.0469 3.1518.54152.46146.28365.69978.78717.71518 1.3048.0154.80842-.55364 1.2905-1.2997 1.5387-.25379.078-.50788.14911-.75398.21292-.23072.0283-.46916.0565-.6922.0848h-6.9295v-3.6733h4.6762c.36339 0 .74589-.008 1.1321-.009z"/><path d="m96.755 98.225h4.853v11.427h12.721v2.6402h-17.575v-14.065"/><path d="m50.269 98.241h4.853v5.6683c.10767 0 .1692.0496.1692-.085 2.1842-1.3392 4.3684-2.6783 6.5527-4.0245.64604-.39678 1.8074-1.2825 2.4765-1.4809.47684-.1488 1.2459-.07793 1.792-.07793h4.2454v.08502h-.0846c-2.861 1.7218-5.7144 3.4577-8.5677 5.1794-.13075.0779-.46914.29051-.44607.45347.04615.0709.0923.1488.13843.21965 3.1302 2.5437 6.2604 5.0803 9.3906 7.6168.12306.085.43838.26924.43838.40386h.0846v.0851c-1.4767 0-2.9456 0-4.4146-.007-.46915 0-1.1306.0637-1.5151-.0851-.54605-.21255-.99213-.80065-1.4613-1.1478-1.5843-1.3108-3.161-2.6216-4.7376-3.9395-.35378-.28343-1.0767-1.0558-1.4997-1.1408-.29225-.0567-.80755.31885-1.0383.46055-.39224.23383-1.1459.51017-1.4074.90694-.19227.28342-.11536.91403-.11536 1.2825v3.6702h-4.853v-14.049"/><path d="m142.19 98.225h4.9376v5.9052l.0385 3.1279c1.441 2.4589 7.4805 2.2408 9.0463.20585l.10585-3.5261v-5.6511s3.9993-.0068 4.8299-.0068c0 2.2083.007 4.3686.007 6.5838 0 1.0767.11533 2.3386-.12304 3.3125-.1692.68581-.53068 1.3168-1.0383 1.8311-3.5911 3.6248-14.535 3.3914-17.097-.5898-.91522-1.4265-.70756-3.4565-.70756-5.3219v-5.8705"/></g></svg>