<svg height="173" width="994" xmlns="http://www.w3.org/2000/svg" xmlns:xlink="http://www.w3.org/1999/xlink"><linearGradient id="a"><stop offset="0" stop-color="#353535"/><stop offset=".0059234" stop-color="#1d3253"/><stop offset=".125" stop-color="#1e3a5f"/><stop offset=".25" stop-color="#1d3d6c"/><stop offset=".375" stop-color="#1b4480"/><stop offset=".5" stop-color="#1a4588"/><stop offset=".625" stop-color="#1d4a8f"/><stop offset=".75" stop-color="#185494"/><stop offset=".875" stop-color="#22609c"/><stop offset=".99" stop-color="#5697c5"/><stop offset="1" stop-color="#5b9ac7"/></linearGradient><linearGradient id="b"><stop offset="0" stop-color="#263f5c"/><stop offset=".0029917" stop-color="#678cad"/><stop offset=".125" stop-color="#6c92b3"/><stop offset=".25" stop-color="#6f96b7"/><stop offset=".375" stop-color="#7097b7"/><stop offset=".5" stop-color="#7098b8"/><stop offset=".625" stop-color="#739ab9"/><stop offset=".75" stop-color="#749bbb"/><stop offset=".875" stop-color="#759dbc"/><stop offset=".99363" stop-color="#7197b8"/><stop offset="1" stop-color="#5b9ac7"/></linearGradient><linearGradient id="c"><stop offset="0" stop-color="#274362"/><stop offset=".0061653" stop-color="#284462"/><stop offset=".012331" stop-color="#294563"/><stop offset=".125" stop-color="#213048"/><stop offset=".25" stop-color="#1e273b"/><stop offset=".375" stop-color="#1d2636"/><stop offset=".5" stop-color="#1a202a"/><stop offset=".625" stop-color="#191d24"/><stop offset=".75" stop-color="#151719"/><stop offset=".875" stop-color="#141416"/><stop offset=".98637" stop-color="#141415"/><stop offset=".99122" stop-color="#06080b"/><stop offset="1" stop-color="#353535"/></linearGradient><linearGradient id="d"><stop offset="0" stop-color="#ede397"/><stop offset=".0070394" stop-color="#ffffa3"/><stop offset=".0625" stop-color="#ffff96"/><stop offset=".125" stop-color="#ffff60"/><stop offset=".1875" stop-color="#fff32d"/><stop offset=".25" stop-color="#ffe122"/><stop offset=".3125" stop-color="#ffda1d"/><stop offset=".375" stop-color="#ffd31d"/><stop offset=".4375" stop-color="#ffcc1c"/><stop offset=".5" stop-color="#ffc31a"/><stop offset=".5625" stop-color="#ffb51c"/><stop offset=".625" stop-color="#fba11f"/><stop offset=".6875" stop-color="#e98e23"/><stop offset=".75" stop-color="#d68323"/><stop offset=".8125" stop-color="#c67b25"/><stop offset=".875" stop-color="#b97128"/><stop offset=".9375" stop-color="#ad6929"/><stop offset=".99502" stop-color="#825124"/><stop offset="1" stop-color="#413d39"/></linearGradient><linearGradient id="e"><stop offset="0" stop-color="#353535"/><stop offset=".0071221" stop-color="#452c1f"/><stop offset=".125" stop-color="#554229"/><stop offset=".25" stop-color="#644a28"/><stop offset=".375" stop-color="#725024"/><stop offset=".5" stop-color="#97692a"/><stop offset=".625" stop-color="#a4752c"/><stop offset=".75" stop-color="#aa8f3f"/><stop offset=".875" stop-color="#bb9e49"/><stop offset=".99" stop-color="#d1c68c"/><stop offset="1" stop-color="#eee495"/></linearGradient><linearGradient id="f"><stop offset="0" stop-color="#c87f8b"/><stop offset=".01" stop-color="#d18a8a"/><stop offset=".060598" stop-color="#cf8181"/><stop offset=".16038" stop-color="#a73835"/><stop offset=".25" stop-color="#962b26"/><stop offset=".5" stop-color="#732522"/><stop offset=".75" stop-color="#6c2625"/><stop offset=".9932" stop-color="#471824"/><stop offset="1" stop-color="#353535"/></linearGradient><linearGradient id="g"><stop offset="0" stop-color="#cc8492"/><stop offset=".068331" stop-color="#c87d8d"/><stop offset=".25" stop-color="#7b404a"/><stop offset=".5" stop-color="#593d41"/><stop offset=".75" stop-color="#44393a"/><stop offset="1" stop-color="#313030"/></linearGradient><linearGradient id="h"><stop offset="0" stop-color="#5a1e1e"/><stop offset=".59079" stop-color="#b42238"/><stop offset=".79242" stop-color="#d81f3d"/><stop offset="1" stop-color="#d3233f"/></linearGradient><linearGradient id="i"><stop offset="0" stop-color="#fbd661"/><stop offset=".23476" stop-color="#fed617"/><stop offset=".43154" stop-color="#f5af15"/><stop offset=".7105" stop-color="#c67820"/><stop offset="1" stop-color="#714723"/></linearGradient><filter id="j" color-interpolation-filters="sRGB"><feFlood flood-opacity=".425" result="flood"/><feComposite in="flood" in2="SourceGraphic" operator="in" result="composite1"/><feGaussianBlur result="blur" stdDeviation="4"/><feOffset dx="1" dy="1" result="offset"/><feComposite in="SourceGraphic" in2="offset" result="composite2"/></filter><filter id="k" color-interpolation-filters="sRGB"><feFlood flood-opacity=".35" result="flood"/><feComposite in="flood" in2="SourceGraphic" operator="in" result="composite1"/><feGaussianBlur result="blur" stdDeviation="6"/><feOffset dx=".5" dy=".5" result="offset"/><feComposite in="SourceGraphic" in2="offset" result="composite2"/></filter><filter id="l" color-interpolation-filters="sRGB"><feFlood flood-color="#ba0202" flood-opacity=".39423" result="flood"/><feComposite in="flood" in2="SourceGraphic" operator="in" result="composite1"/><feGaussianBlur result="blur" stdDeviation="4.3"/><feOffset dx=".5" dy=".5" result="offset"/><feComposite in="SourceGraphic" in2="offset" result="composite2"/></filter><linearGradient id="m"><stop offset="0" stop-color="#313030"/><stop offset=".25" stop-color="#353535"/><stop offset=".5" stop-color="#353535"/><stop offset=".75" stop-color="#353535"/><stop offset="1" stop-color="#353535"/></linearGradient><linearGradient id="n"><stop offset="0" stop-color="#353535"/><stop offset=".25" stop-color="#353535"/><stop offset=".5" stop-color="#353535"/><stop offset=".75" stop-color="#353535"/><stop offset="1" stop-color="#353535"/></linearGradient><linearGradient id="o" gradientUnits="userSpaceOnUse" x1="119.34" x2="110.71" xlink:href="#h" y1="174.44" y2="8.6019"/><linearGradient id="p" gradientUnits="userSpaceOnUse" x1=".52225" x2="330.45" xlink:href="#m" y1="172.5" y2="172.5"/><linearGradient id="q" gradientUnits="userSpaceOnUse" x1="663.89" x2="991.65" xlink:href="#n" y1="168.36" y2="168.36"/><linearGradient id="r" gradientUnits="userSpaceOnUse" x1="330.45" x2="330.45" xlink:href="#f" y1="1.5152" y2="171.42"/><linearGradient id="s"><stop offset="0" stop-color="#413d39"/><stop offset=".25" stop-color="#52463d"/><stop offset=".5" stop-color="#393736"/><stop offset=".75" stop-color="#363535"/><stop offset="1" stop-color="#353535"/></linearGradient><clipPath id="t"><path d="m .5-28.5v-170c0-.4714.5285955-1 1-1h328.5c.4714 0 1 .5286 1 1v170c0 .4714-.5286 1-1 1h-328.5c-.1356328 0-.2550165-.008-.3595736-.0267-.47002567-.08222-.6404264-.36357-.6404264-.9733z"/><path d="m330.5-28.5c0 .0488-.0691.19411-.1875.3125-.11839.11839-.26369.1875-.3125.1875h-328.5c-.1159719 0-.2172953-.0198-.28125-.0312-.149761-.0262-.1373852-.0333-.15625-.0625-.0188648-.02924-.0625-.14801-.0625-.4063h-1c0 .35144.03490804.68428.21875.96875s.52348537.44398.84375.5c.1451595.026.2822063.0312.4375.0312h328.5c.42259 0 .76749-.20499 1.03125-.46875s.46875-.60866.46875-1.03125z"/><path d="m331.5-198.5c0-.42259-.20499-.76749-.46875-1.03125-.26376-.26377-.60866-.46875-1.03125-.46875h-328.5c-.42259 0-.76749.20498-1.03125.46875-.26376.26376-.46875.60866-.46875 1.03125v170c0 .35144.0349.68428.21875.96875.18384.28447.52349.44398.84375.5.14516.026.28221.0312.4375.0312v-1c-.11597 0-.21729-.0198-.28125-.0312-.14976-.0262-.13738-.0333-.15625-.0625-.0189-.02919-.0625-.14796-.0625-.40625v-170c0-.0488.0691-.19412.1875-.3125.11839-.11839.26369-.1875.3125-.1875h328.5c.0488 0 .19411.0691.3125.1875.11839.11838.1875.26368.1875.3125z"/><path d="m330-27c .42259 0 .76749-.205 1.03125-.4688.26376-.2637.46875-.6086.46875-1.0312v-170c0-.4226-.20499-.7675-.46875-1.0313-.26376-.2637-.60866-.4687-1.03125-.4687v1c .0488 0 .19411.069.3125.1875.11839.1184.1875.2637.1875.3125v170c0 .049-.0691.1941-.1875.3125-.11839.1184-.26369.1875-.3125.1875z"/></clipPath><linearGradient id="u" gradientUnits="userSpaceOnUse" x1="119.34" x2="110.71" xlink:href="#h" y1="-25.557" y2="-191.4"/><linearGradient id="v" gradientUnits="userSpaceOnUse" x1=".52225" x2="330.45" xlink:href="#m" y1="-27.495" y2="-27.495"/><radialGradient id="w" cx="1.0668" cy="-77.18" gradientTransform="matrix(0 1.0308 -29.112 0 -2245.8 -200.02)" gradientUnits="userSpaceOnUse" r="165.75" xlink:href="#g"/><linearGradient id="x" gradientUnits="userSpaceOnUse" x1="330.45" x2="330.45" xlink:href="#f" y1="-198.48" y2="-28.584"/><clipPath id="y"><path d="m333-199.5h328.5c.4714 0 1 .5286 1 1v170c0 .4714-.5286 1-1 1h-328.5c-.4714 0-1-.5286-1-1v-170c0-.4714.5286-1 1-1z"/><path d="m662-28.5c0 .0488-.0691.19411-.1875.3125-.11839.11839-.26369.1875-.3125.1875h-328.5c-.0488 0-.19411-.0691-.3125-.1875-.11839-.11839-.1875-.26369-.1875-.3125h-1c0 .42259.20499.76749.46875 1.03125s.60866.46875 1.03125.46875h328.5c.42259 0 .76749-.20499 1.03125-.46875s.46875-.60866.46875-1.03125z"/><path d="m661.5-27c .42259 0 .76749-.20499 1.03125-.46875s.46875-.60866.46875-1.03125v-170c0-.42259-.20499-.76749-.46875-1.03125s-.60866-.46875-1.03125-.46875h-328.5c-.42259 0-.76749.20499-1.03125.46875s-.46875.60866-.46875 1.03125h1c0-.0488.0691-.19411.1875-.3125.11839-.11839.26369-.1875.3125-.1875h328.5c.0488 0 .19411.0691.3125.1875.11839.11839.1875.26369.1875.3125v170c0 .0488-.0691.19411-.1875.3125-.11839.11839-.26369.1875-.3125.1875z"/><path d="m333-28c-.0488 0-.19411-.069-.3125-.1875-.11839-.1184-.1875-.2637-.1875-.3125v-170c0-.049.0691-.1941.1875-.3125.11839-.1184.26369-.1875.3125-.1875v-1c-.42259 0-.76749.205-1.03125.4687-.26376.2638-.46875.6087-.46875 1.0313v170c0 .4226.20499.7675.46875 1.0312.26376.2638.60866.4688 1.03125.4688z"/><path d="m330-27c .42259 0 .76749-.205 1.03125-.4688.26376-.2637.46875-.6086.46875-1.0312v-170c0-.4226-.20499-.7675-.46875-1.0313-.26376-.2637-.60866-.4687-1.03125-.4687v1c .0488 0 .19411.069.3125.1875.11839.1184.1875.2637.1875.3125v170c0 .049-.0691.1941-.1875.3125-.11839.1184-.26369.1875-.3125.1875z"/></clipPath><linearGradient id="z" gradientUnits="userSpaceOnUse" x1="437.11" x2="445.71" xlink:href="#i" y1="-192.13" y2="-16.778"/><linearGradient id="A" gradientUnits="userSpaceOnUse" x1="333.26" x2="662.51" xlink:href="#s" y1="-29.747" y2="-29.747"/><linearGradient id="B" gradientUnits="userSpaceOnUse" x1="662.02" x2="662.02" xlink:href="#e" y1="-28.456" y2="-198.63"/><linearGradient id="C" gradientUnits="userSpaceOnUse" x1="332.26" x2="332.26" xlink:href="#d" y1="-198.71" y2="-28.521"/><linearGradient id="D" gradientUnits="userSpaceOnUse" x1="992.98" x2="664.2" xlink:href="#b" y1=".86999" y2=".86999"/><radialGradient id="E" cx="1.0668" cy="-77.18" gradientTransform="matrix(0 1.0308 -29.112 0 -2245.8 -.01942)" gradientUnits="userSpaceOnUse" r="165.75" xlink:href="#g"/><linearGradient id="F" gradientUnits="userSpaceOnUse" x1="993.69" x2="993.69" xlink:href="#c" y1="1.6153" y2="171.98"/><linearGradient id="G" gradientUnits="userSpaceOnUse" x1="664.17" x2="664.17" xlink:href="#a" y1="171.94" y2="1.6128"/><linearGradient id="H" gradientUnits="userSpaceOnUse" x1="332.26" x2="332.26" xlink:href="#d" y1="1.2927" y2="171.48"/><linearGradient id="I" gradientUnits="userSpaceOnUse" x1="662.02" x2="662.02" xlink:href="#e" y1="171.54" y2="1.3731"/><linearGradient id="J" gradientUnits="userSpaceOnUse" x1="333.26" x2="662.51" xlink:href="#s" y1="170.25" y2="170.25"/><linearGradient id="K" gradientUnits="userSpaceOnUse" x1="729.59" x2="755.61" y1="1.6279" y2="181.66"><stop offset="0" stop-color="#2273e2"/><stop offset=".11921" stop-color="#3b6cb1"/><stop offset=".44173" stop-color="#28549f"/><stop offset=".75968" stop-color="#234074"/><stop offset="1" stop-color="#1c304e"/></linearGradient><linearGradient id="L" gradientUnits="userSpaceOnUse" x1="437.11" x2="445.71" xlink:href="#i" y1="7.8732" y2="183.22"/><linearGradient id="M" gradientUnits="userSpaceOnUse" x1="331.29" x2="331.29" y1="165.55" y2=".053349"><stop offset="0" stop-color="#643f26"/><stop offset=".1" stop-color="#8b4c24"/><stop offset=".2" stop-color="#a05524"/><stop offset=".3" stop-color="#af5e23"/><stop offset=".4" stop-color="#c67a1f"/><stop offset=".5" stop-color="#be7b1e"/><stop offset=".6" stop-color="#ca8920"/><stop offset=".7" stop-color="#c78222"/><stop offset=".8" stop-color="#d9a630"/><stop offset=".9" stop-color="#e2b775"/><stop offset="1" stop-color="#e5c396"/></linearGradient><linearGradient id="N" gradientUnits="userSpaceOnUse" x1="654.49" x2="654.49" y1="165.55" y2=".053349"><stop offset="0" stop-color="#2e2e39"/><stop offset=".1" stop-color="#383b3e"/><stop offset=".2" stop-color="#393f48"/><stop offset=".3" stop-color="#3e434e"/><stop offset=".4" stop-color="#404a5e"/><stop offset=".5" stop-color="#52565f"/><stop offset=".6" stop-color="#4d596c"/><stop offset=".7" stop-color="#686f62"/><stop offset=".8" stop-color="#5b7275"/><stop offset=".9" stop-color="#788c83"/><stop offset="1" stop-color="#86abb1"/></linearGradient><path d="m633.34 2h42.885v169h-42.885z" fill="url(#N)"/><path d="m310.13 2h42.885v169h-42.885z" fill="url(#M)"/><path d="m .5 171.5v-170c0-.4714.5286-1 1-1h328.5c.4714 0 1 .5286 1 1v170c0 .4714-.5286 1-1 1h-328.5c-.13563 0-.25502-.008-.35957-.0267-.47003-.08222-.64043-.36357-.64043-.9733z" fill="url(#o)"/><path d="m333 .5h328.5c.4714 0 1 .5285955 1 1v170c0 .4714-.5286 1-1 1h-328.5c-.4714 0-1-.5286-1-1v-170c0-.4714045.5286-1 1-1z" fill="url(#L)"/><path d="m664.5.5h328c .4714 0 1 .5285955 1 1v170c0 .4714-.5286 1-1 1h-328c-.4714 0-1-.5286-1-1v-170c0-.4714045.5286-1 1-1z" fill="url(#K)"/><path d="m662 171.5c0 .0488-.0691.19411-.1875.3125-.11839.11839-.26369.1875-.3125.1875h-328.5c-.0488 0-.19411-.0691-.3125-.1875-.11839-.11839-.1875-.26369-.1875-.3125h-1c0 .42259.20499.76749.46875 1.03125s.60866.46875 1.03125.46875h328.5c.42259 0 .76749-.20499 1.03125-.46875s.46875-.60866.46875-1.03125z" fill="url(#J)"/><path d="m330.5 171.5c0 .0488-.0691.19411-.1875.3125-.11839.11839-.26369.1875-.3125.1875h-328.5c-.1159719 0-.2172953-.0198-.28125-.0312-.149761-.0262-.1373852-.0333-.15625-.0625-.0188648-.02924-.0625-.14801-.0625-.4063h-1c0 .35144.03490804.68428.21875.96875s.52348537.44398.84375.5c.1451595.026.2822063.0312.4375.0312h328.5c.42259 0 .76749-.20499 1.03125-.46875s.46875-.60866.46875-1.03125z" fill="url(#p)"/><path d="m993 171.5c0 .0488-.0691.19411-.1875.3125-.11839.11839-.26369.1875-.3125.1875h-328c-.0488 0-.19411-.0691-.3125-.1875-.11839-.11839-.1875-.26369-.1875-.3125h-1c0 .42259.20499.76749.46875 1.03125s.60866.46875 1.03125.46875h328c .42259 0 .76749-.20499 1.03125-.46875s.46875-.60866.46875-1.03125z" fill="url(#q)"/><path d="m661.5 173c .42259 0 .76749-.20499 1.03125-.46875s.46875-.60866.46875-1.03125v-170c0-.42259-.20499-.76749-.46875-1.03125s-.60866-.46875-1.03125-.46875h-328.5c-.42259 0-.76749.20499-1.03125.46875s-.46875.60866-.46875 1.03125h1c0-.0488.0691-.19411.1875-.3125.11839-.11839.26369-.1875.3125-.1875h328.5c.0488 0 .19411.0691.3125.1875.11839.11839.1875.26369.1875.3125v170c0 .0488-.0691.19411-.1875.3125-.11839.11839-.26369.1875-.3125.1875z" fill="url(#I)"/><path d="m333 172c-.0488 0-.19411-.069-.3125-.1875-.11839-.1184-.1875-.2637-.1875-.3125v-170c0-.049.0691-.1941.1875-.3125.11839-.1184.26369-.1875.3125-.1875v-1c-.42259 0-.76749.205-1.03125.4687-.26376.2638-.46875.6087-.46875 1.0313v170c0 .4226.20499.7675.46875 1.0312.26376.2638.60866.4688 1.03125.4688z" fill="url(#H)"/><path d="m664.5 0c-.42259 0-.76749.20499-1.03125.46875s-.46875.60866-.46875 1.03125v170c0 .42259.20499.76749.46875 1.03125s.60866.46875 1.03125.46875v-1c-.0488 0-.19411-.0691-.3125-.1875-.11839-.11839-.1875-.26369-.1875-.3125v-170c0-.0488.0691-.19411.1875-.3125.11839-.11839.26369-.1875.3125-.1875z" fill="url(#G)"/><path d="m992.5 1c .0488 0 .19411.0691.3125.1875.11839.11839.1875.26369.1875.3125v170c0 .0488-.0691.19411-.1875.3125-.11839.11839-.26369.1875-.3125.1875v1c .42259 0 .76749-.20499 1.03125-.46875s.46875-.60866.46875-1.03125v-170c0-.42259-.20499-.76749-.46875-1.03125s-.60866-.46875-1.03125-.46875z" fill="url(#F)"/><path d="m331.5 1.5c0-.42259-.20499-.76749-.46875-1.03125-.26376-.26377-.60866-.46875-1.03125-.46875h-328.5c-.42259 0-.76749.20498-1.03125.46875-.26376.26376-.46875.60866-.46875 1.03125v170c0 .35144.0349.68428.21875.96875.18384.28447.52349.44398.84375.5.14516.026.28221.0312.4375.0312v-1c-.11597 0-.21729-.0198-.28125-.0312-.14976-.0262-.13738-.0333-.15625-.0625-.0189-.02919-.0625-.14796-.0625-.40625v-170c0-.0488.0691-.19412.1875-.3125.11839-.11839.26369-.1875.3125-.1875h328.5c.0488 0 .19411.0691.3125.1875.11839.11838.1875.26368.1875.3125z" fill="url(#E)"/><path d="m330 173c .42259 0 .76749-.205 1.03125-.4688.26376-.2637.46875-.6086.46875-1.0312v-170c0-.4226-.20499-.7675-.46875-1.0313-.26376-.2637-.60866-.4687-1.03125-.4687v1c .0488 0 .19411.069.3125.1875.11839.1184.1875.2637.1875.3125v170c0 .049-.0691.1941-.1875.3125-.11839.1184-.26369.1875-.3125.1875z" fill="url(#r)"/><path clip-path="url(#t)" d="m50-170v113l10.594 43.879c152.4-8.8959 286.73 48.522 288.45-17.919l-94.465-124.82-16.109-11.327c-5.0495-1.822-10.818-2.8108-17.223-2.8108z" fill="#1c0c0c" fill-rule="evenodd" opacity=".2" transform="translate(0 200)"/><path clip-path="url(#y)" d="m387.3-170v26.8l58.264 179.87 286.13-55.829-130.49-150.84z" fill="#1e180a" opacity=".14" transform="translate(0 200)"/><path d="m599.5 29.7h-210.6c-1.3009 0-2 .717-2 2v24c0 1.0413 1.3884 1.7 2 1.7h60.3v84.3c0 .94281 1.0572 1.9 2 1.9h86.95c1.2018 0 2.0507-1.6982 2.05-2.9v-83.5h59.3c1.3188 0 1.9-.50215 1.9-2v-23.5c0-1.5337-.19625-2-1.9-2z" visibility="hidden"/><path d="m387.3 30v26.8h62.75v86.2h88.9v-86.2h62.25v-26.8z" fill="#fff" filter="url(#l)"/><path d="m934.92 115.9-120.05-.1v-84.4c0-1.2042-1.4958-2.4-2.7-2.4h-92.974c-.89691 0-1.7984 1.1031-1.8 2l-.2 111c-.002.87496 1.025 2.2 1.9 2.2h215.92c.78669 0 1.9-.81331 1.9-1.6v-25.7c0-.74536-1.2546-.99938-2-1z" visibility="hidden"/><path d="m718.2 30v113h217.72v-26.5l-122.05-.1v-86.4z" fill="#fff" filter="url(#k)"/><path d="m135.72 142v-34.8h14.001l42.554 36.8 85.842-.024c1.5174-.00042 4.1118-.73393 4.1118-.73393s-1.9017-2.0195-3.1955-2.9377l-49.638-35.227c22.244-1.1658 34.003-19.109 34.003-37.577 0-21.679-16.454-38.1-42.151-38.1h-168.85c-.88207 0-2.3143.10582-2.7322.5314-.34864.35505-.26542.58653-.26781 1.4686l-.3 110.6c-.0033 1.2018 1.7982 2 3 2h80.722c.94281 0 2.9-1.0572 2.9-2zm-.3-85.4h35.717c2.0624 0 10.623 2.9262 10.661 11.586.0386 8.6598-5.9967 11.921-10.773 11.921-10.76 0-35.605.00001-35.605 0z" fill-rule="evenodd"/><path d="m50 30v113h83.322v-37h16.401l42.554 37h89.194l-55.321-39.199c25.142 0 36.151-18.743 36.151-36.301 0-21.679-15.43-37.5-41.051-37.5zm83.322 26h37.817c4.6224 0 11.823 4.5263 11.861 12.586.0385 8.06-6.8767 12.501-11.973 12.421-10.759-.1689-37.705.00001-37.705 0z" fill="#fff" fill-rule="evenodd" filter="url(#j)"/><path d="m664 1.5c0-.0488.0691-.19411.1875-.3125.11839-.11839.26369-.1875.3125-.1875h328c .0488 0 .19411.0691.3125.1875.11839.11839.1875.26369.1875.3125h1c0-.42259-.20499-.76749-.46875-1.03125s-.60866-.46875-1.03125-.46875h-328c-.42259 0-.76749.20499-1.03125.46875s-.46875.60866-.46875 1.03125z" fill="url(#D)"/></svg>