<svg height="112.5" width="600" xmlns="http://www.w3.org/2000/svg"><g fill-rule="evenodd"><path d="m112.49648 112.49262h-112.49v-112.49h112.49z"/><path d="m234.37648 112.49262h-112.49v-112.49h112.49z"/><path d="m356.24748 112.49262h-112.49v-112.49h112.49z"/><path d="m599.99648 112.49262h-112.49v-112.49h112.49z" fill="#e94e0f"/><path d="m478.12448 112.50262h-112.49v-112.49h112.49z" fill="#e94e0f"/></g><path d="m59.27648 52.50262h-13.486v-14.989h14.676c5.5817 0 7.065 4.5474 7.065 7.4553 0 4.3132-2.1859 7.5334-8.2555 7.5334m31.519-8.9971c0-17.702-15.242-26.25-23.264-26.25h-44.986v75.744h23.244v-21.741h7.4944l14.247 21.741h26.25l-17.233-26.25s14.247-5.5427 14.247-23.244m203.99 29.255v-55.505h-23.283v75.783h23.283v-.039h35.989v-20.239zm-150-35.266 21.761.0195v55.525h23.244v-55.525h21.741v-20.258h-66.747v20.239z" fill="#fff"/></svg>