<?xml version="1.0" encoding="UTF-8"?>
<!-- Created with Inkscape (http://www.inkscape.org/) -->
<svg id="svg20" width="600" height="112.5" version="1.1" xmlns="http://www.w3.org/2000/svg" xmlns:cc="http://creativecommons.org/ns#" xmlns:dc="http://purl.org/dc/elements/1.1/" xmlns:rdf="http://www.w3.org/1999/02/22-rdf-syntax-ns#">
 <metadata id="metadata4">
  <rdf:RDF>
   <cc:Work rdf:about="">
    <dc:format>image/svg+xml</dc:format>
    <dc:type rdf:resource="http://purl.org/dc/dcmitype/StillImage"/>
    <dc:title/>
   </cc:Work>
  </rdf:RDF>
 </metadata>
 <g id="g4512" fill-rule="evenodd">
  <path id="path8" d="m112.5 112.49h-112.49v-112.49h112.49z"/>
  <path id="path10" d="m234.38 112.49h-112.49v-112.49h112.49z"/>
  <path id="path12" d="m356.25 112.49h-112.49v-112.49h112.49z"/>
 </g>
 <g id="g4507" fill="#e94e0f" fill-rule="evenodd">
  <path id="path6" d="m600 112.49h-112.49v-112.49h112.49z"/>
  <path id="path14" d="m478.12 112.5h-112.49v-112.49h112.49z"/>
 </g>
 <path id="path16" d="m59.276 52.503h-13.486v-14.989h14.676c5.5817 0 7.065 4.5474 7.065 7.4553 0 4.3132-2.1859 7.5334-8.2555 7.5334m31.519-8.9971c0-17.702-15.242-26.25-23.264-26.25h-44.986v75.744h23.244v-21.741h7.4944l14.247 21.741h26.25l-17.233-26.25s14.247-5.5427 14.247-23.244m203.99 29.255v-55.505h-23.283v75.783h23.283v-0.039h35.989v-20.239zm-150-35.266 21.761 0.0195v55.525h23.244v-55.525h21.741v-20.258h-66.747v20.239z" fill="#fff"/>
</svg>
