<svg height="97.23246" viewBox="0 0 293.37668 91.155431" width="312.93512" xmlns="http://www.w3.org/2000/svg" xmlns:xlink="http://www.w3.org/1999/xlink"><linearGradient id="a" gradientUnits="userSpaceOnUse" x1="7.99329" x2="206.9832" y1="52.98749" y2="52.98749"><stop offset="0" stop-color="#fff"/><stop offset="1" stop-color="#f6f6f4"/></linearGradient><g transform="translate(-8.839782 -6.648089)"><path d="m211.81287 7.3426953v89.9035777h89.90358v-89.9035777z" fill="#2fa5b1" fill-rule="evenodd" stroke="#2fa5b1"/><path d="m206.4832 6.6480893v91.1554337h-197.6434176v-91.1554337z" fill="url(#a)" fill-rule="evenodd"/><g><g fill-rule="evenodd"><path d="m233.53115 45.475955h17.42513v-17.930211h12.62691v17.930211h18.18274v12.879452h-18.18274v17.9302h-12.62691v-17.9302h-17.42513z" fill="#fff"/><path d="m21.389217 27.538884v48.500003h17.4375v-17.1875h9.59375l9.59375 17.1875h18.9375c-.37882-1.11537-.80742-2.229-1.3125-3.28125-8.6509-14.21062-9.53773-18.31564-12.75-18.46875v-.71875c14.38292-2.76097 11.44082-23.214823-3.09375-26.031253zm62.375 0v12.125001h15.90625v36.375002h16.687503v-36.375002h15.15625v-12.125001zm58.843753 0v48.500003h43.1875v-14.65625h-26v-33.843753z" fill="#183f46"/><path d="m38.066627 47.437155c3.03046-.06312 8.65212.06179 12.12587 0 3.47374-.06179 4.79957-.8194 5.04673-3.9815-.08356-3.03504-1.47626-4.82004-5.04673-4.76675-3.67609.05487-8.09972-.03763-12.12587 0z" fill="#fefefe"/></g><text x="252.03307" y="443.49274"><tspan x="252.03307" y="478.88336"/></text></g><path d="m233.35219 45.081885h17.42513v-17.930211h12.62691v17.930211h18.18274v12.879452h-18.18274v17.9302h-12.62691v-17.9302h-17.42513z" fill="#fff" fill-rule="evenodd"/></g></svg>