<svg width="235.93pt" height="65.596pt" version="1.1" viewBox="0 0 235.93 65.596" xmlns="http://www.w3.org/2000/svg">
 <path d="m51.33 0.01 18.93-0.01-0.02 9.63h12.13l-0.01 15.04-12.03-0.07c-0.11 6.47-0.06 12.93-0.07 19.4-0.11 1.94 0.72 4.2 2.73 4.85 3.12 0.91 6.39 0 9.42-0.86l-0.06 15c-6.53 2.98-14.2 3.33-21.08 1.43-5.97-1.75-9.6-7.81-9.81-13.81-0.3-8.65-0.04-17.32-0.13-25.97l-6.78 0.02v-15.02l6.84-0.07z" fill="#82c805"/>
 <path d="m19.04 20.11c2.77-6.99 9.79-12 17.46-11.1l0.01 19.65c-4.04-0.01-8.39 0.4-11.69 2.98-3.98 3.09-5.57 8.33-5.68 13.2l-0.05 19.35-19.09 0.01 0.03-54.56 18.78-0.05z" fill="#82c805"/>
 <path d="m112.07 16.89c3.7-4.5 8.73-8.58 14.86-8.57 6.61-0.59 13.21 2.88 16.39 8.72 4.47-4.55 10.01-8.72 16.69-8.71 6.4-0.55 14.42 2.2 16.63 8.62l-6.52 47.26h-9.56v-31.38c0.16-4.04-3.59-7.76-7.64-7.48-3.85 0.02-7.23 3.61-7.14 7.45l0.03 31.4h-19l-0.02-31.37c0.12-3.1-1.96-6.03-4.87-7.05-4.53-1.89-10.17 2.13-9.79 7.04l-0.01 31.37-18.97 0.01 0.03-54.56 18.95 0.02z" fill="#82c805"/>
 <path d="m199.68 9.63 18.91-0.02 0.02 17.76 17.32-0.02-0.02 19.1-17.3-0.01-0.04 17.82-18.89-0.04 0.03-17.76-12.21-0.03 2.8-19.09 9.37 0.04z" fill="#09b8d7"/>
</svg>
