<?xml version="1.0" encoding="UTF-8"?>
<svg id="svg18" width="374.44" height="75.91" xmlns:cc="http://creativecommons.org/ns#" xmlns:dc="http://purl.org/dc/elements/1.1/" xmlns:rdf="http://www.w3.org/1999/02/22-rdf-syntax-ns#" version="1.1" viewBox="0 0 374.44 75.91" xmlns="http://www.w3.org/2000/svg">
 <metadata id="metadata24">
  <rdf:RDF>
   <cc:Work rdf:about="">
    <dc:format>image/svg+xml</dc:format>
    <dc:type rdf:resource="http://purl.org/dc/dcmitype/StillImage"/>
    <dc:title>seznam</dc:title>
   </cc:Work>
  </rdf:RDF>
 </metadata>
 <link id="dark-mode" href="" rel="stylesheet" type="text/css"/>
 <title id="title2">seznam</title>
 <path id="path8" d="m0 75.67c7.39-1.63 14.85-3 22.16-4.94 8.62-2.29 17.15-5 25.64-7.72a19.11 19.11 0 0 0 6.18-3.54c3.76-3.14 3.57-7.67-0.42-10.55a28.06 28.06 0 0 0-6.58-3.39c-4.93-1.84-10-3.36-14.93-5.16-7.13-2.59-14.14-5.5-20.45-9.84a23.2 23.2 0 0 1-5-4.7c-2-2.54-2.06-5.4-0.37-8.28a19.87 19.87 0 0 1 11.31-9.02c4.54-1.46 9.23-2.52 13.9-3.53 5.91-1.28 11.93-2.12 17.6-5 2.52 3 5 5.8 6.19 9.4 1.36 4 0.15 6.7-3.91 8.15a106.48 106.48 0 0 1-10.39 2.73c-2.17 0.53-4.36 0.95-6.54 1.44a12 12 0 0 0-2.07 0.57c-1.35 0.57-3.19 0.73-3.34 2.63-0.13 1.73 1.44 2.39 2.66 3.06a37 37 0 0 0 5.18 2.47c4.27 1.55 8.66 2.8 12.89 4.44a126.09 126.09 0 0 1 12 5.32 21.43 21.43 0 0 1 5.25 4.12c4.92 5 4.29 12.18-1.53 16.12a40.34 40.34 0 0 1-7.89 4c-11.28 4.43-23.07 6.9-35 8.63-6.79 1-13.6 1.85-20.41 2.76-0.71 0.04-1.41 0.03-2.1 0.07z" fill="#db1921"/>
 <g id="g4505">
  <path id="path6" d="m75.17 60.26c-1.72-3.12-2.58-6.12-1.93-9.62l2.87-0.75c1.37-1.66 1.55-13.33 0.23-17.58l-2-1.4a23.53 23.53 0 0 1-0.53-2.69c-0.25-2.88 0.52-4.29 3.37-4.93a122 122 0 0 1 15.26-2.76 123.36 123.36 0 0 1 15.8-0.07 12.58 12.58 0 0 1 5.41 1.62 4.29 4.29 0 0 1 1.63 3.13c0.08 1.44-1.31 2.1-2.63 2.33a35.76 35.76 0 0 1-3.58 0.29c-7.57 0.54-15.15 1-22.71 1.65-2.76 0.24-3.29 1.14-2.73 3.93a26.9 26.9 0 0 0 3.73 0.29c4.39-0.23 8.77-0.81 13.16-0.79a39.88 39.88 0 0 1 8.2 1.38c1.85 0.41 2.55 1.74 2.28 3.62-0.31 2.16-0.94 3-3.2 3.19-3.74 0.37-7.5 0.47-11.24 0.82s-7.31 0.83-10.95 1.33a11.6 11.6 0 0 0-2.22 0.78l-0.53 3.55c2.88 0 5.48 0.13 8.07 0 6.3-0.38 12.59-1 18.9-1.33a18.12 18.12 0 0 0 7.62-2.42c7-3.7 14.16-7 21.27-10.46 1-0.49 2.06-0.88 3-1.45a15.87 15.87 0 0 0 1.95-1.6l-0.06-0.68a9.83 9.83 0 0 0-2.76-0.59c-3.66 0.3-7.32 0.61-10.94 1.2-3.89 0.63-5-0.32-4.49-4.29s1.56-5.39 5.55-5.55c6-0.25 12.13-0.17 18.18 0.16a10.86 10.86 0 0 1 5.41 2.3c4.34 3.21 3.73 7.39-1.22 9.53-6.23 2.69-12.47 5.36-18.7 8.05-1.54 0.67-3.07 1.36-4.55 2.14a4.76 4.76 0 0 0-1.77 1.8c10.92 0.27 21.56-3 32.55-1.19a30.32 30.32 0 0 0 1.46-3c2.15-5.93 4.23-11.88 6.39-17.81a11.06 11.06 0 0 1 1.3-2.06 7.15 7.15 0 0 1 4 7.2 9.31 9.31 0 0 1-0.3 1.2c-1.45 5-0.84 6.32 3.94 8.53 1.59 0.74 3.22 1.42 4.87 2 3.62 1.32 4.74 0.77 5.76-2.9a47.71 47.71 0 0 0 2-14.43 17.18 17.18 0 0 1 0.53-3.4c2.09-0.64 3 0.32 3.33 1.62a35.33 35.33 0 0 1 1.3 6.54 66.14 66.14 0 0 1-1.93 20.69c-1.06 4.33-3.22 5.82-7.51 4.79-6.08-1.46-11.66-3.91-15.65-9.07a6.61 6.61 0 0 0-1.2-0.93c-1.92 3-1.14 7.16-4.52 9.46l-2.4-1.59c-15.4 3-31 5.86-46.83 5.11l-1.46-2.3a2.15 2.15 0 0 0-0.92 0.54c-1.11 2.64-3.39 3.1-5.87 3.39-9 1-17.94 2.14-26.91 3.17-1.53 0.21-3.14 0.21-5.08 0.31z"/>
  <path id="path10" d="m255.37 31.25c1-1.15 1.51-1.74 2-2.3a113.83 113.83 0 0 1 8.06-8.52c5-4.33 10.49-2.67 12 3.76 0.81 3.49 0.61 7.3 0.4 10.94-0.27 4.78-1 9.53 0.15 14.31a15 15 0 0 1 0.17 3.34c0 1.26-0.6 2.36-1.83 2.43a4.19 4.19 0 0 1-2.92-1 6.33 6.33 0 0 1-1.52-3.18c-1-5.56-1.94-11.15-2.89-16.73-0.22-1.28-0.42-2.56-0.64-3.83l-0.63-0.16a20.23 20.23 0 0 0-1.88 1.62c-2 2.18-3.92 4.43-5.93 6.6-2.21 2.38-3.65 2.22-5.53-0.46-1.26-1.79-2.56-3.55-4.15-5.74a21 21 0 0 0-1.33 2.35c-1.82 4.86-3.58 9.73-5.4 14.58-0.61 1.63-1.14 3.37-3 4a4.63 4.63 0 0 1-3.38-5.55c0.29-1.72 0.92-3.38 1.33-5.09 0.23-1 0.34-1.95 0.58-3.35a41 41 0 0 0-11.68 2.39c0.69 1.66 1.25 3 1.81 4.36a20.15 20.15 0 0 1 1.33 3.51c0.15 0.73-0.33 1.59-0.68 3a30.45 30.45 0 0 1-3.51-2.58c-1.52-1.53-2.92-3.18-4.29-4.85a4.7 4.7 0 0 0-4.68-1.7 67 67 0 0 1-8.11 0.72 8.68 8.68 0 0 0-7.7 4c-0.74 1.13-1.59 2.18-2.62 3.57l-2.63-4.14 2.13-4.02-1.91-1.41 0.93-5.5a4.12 4.12 0 0 1 1.25-0.6c3 0.21 4.27-1.84 5.45-4.12 1.87-3.61 4-7.12 5.8-10.75a41.85 41.85 0 0 0 1.81-5c1.63-0.62 2.31 0.65 3 1.68 2.53 4.07 5.11 8.12 7.42 12.31a4.42 4.42 0 0 0 4.61 2.6c4-0.2 8-0.25 12-0.36 2.28-0.06 3-0.52 3.41-2.82 0.48-2.83 0.69-5.7 1-8.55 0.12-1 0.35-2 0.51-2.84 3.13-0.38 5 0.49 6.27 2.91s2.21 4.78 3.39 7.13a32 32 0 0 0 2.03 3.04zm-38.71 2.95-2.72-6.79h-0.67l-3.79 6.47 0.24 0.65z"/>
  <path id="path12" d="m353.87 30.37a3.43 3.43 0 0 0-3.85-1.93c-3.34 0.31-6.66 0.79-10 1a17.56 17.56 0 0 1-3.48-0.38c-0.91-4 0.93-7.6 4.65-8 5.36-0.59 10.69-1.21 15.94 0.25a20.17 20.17 0 0 1 6.59 3.22c3.36 2.53 3 6.52-0.68 8.6a30.65 30.65 0 0 1-5.08 2.07c-5.65 2-11.34 3.82-16.95 5.89-1.47 0.54-3.18 1.17-3.63 3.15 1.16 1.49 2.87 1.54 4.39 1.51 4.79-0.1 9.57-0.4 14.35-0.66 3.67-0.2 7.33-0.7 11-0.64 2.31 0 4.6 0.89 7.32 1.47a11.83 11.83 0 0 1-5.24 4.12 43.8 43.8 0 0 1-15.76 3.78c-6.13 0.31-12.28 0.17-18.42 0.19-3.64 0-6.79-1-8.7-4.69-1 0.47-1.81 0.92-2.68 1.26a55.2 55.2 0 0 1-7.59 2.87c-8.94 2.08-16.74-4-17.31-13.12a16.78 16.78 0 0 1 6.77-15.06 23.21 23.21 0 0 1 16.35-5 7.25 7.25 0 0 1 1.87 0.35c1.91 0.65 3.38 2.29 3.3 3.71-0.11 1.87-1.67 2.37-3 3-0.5 0.24-1 0.39-1.73 0.65l-1.38-0.84a23 23 0 0 0-12.77 6.39 13.58 13.58 0 0 0-2.9 4c-1.48 3.27 0.19 5.84 3.79 5.79 4.07-0.06 8.14-0.54 12.21-0.62 3.83-0.07 7.16-1.37 10.6-3 6-2.77 12.28-4.95 18.42-7.44a36.25 36.25 0 0 0 3.6-1.89z"/>
  <path id="path14" d="m288.95 53.53c-2.64 0-4.2-1.71-4.14-4.48a4.56 4.56 0 0 1 4.73-4.64 4.63 4.63 0 0 1 4.33 4.56 4.84 4.84 0 0 1-4.92 4.56z"/>
 </g>
</svg>
