<?xml version="1.0" encoding="UTF-8" standalone="no"?>
<svg
   xmlns:dc="http://purl.org/dc/elements/1.1/"
   xmlns:cc="http://creativecommons.org/ns#"
   xmlns:rdf="http://www.w3.org/1999/02/22-rdf-syntax-ns#"
   xmlns:svg="http://www.w3.org/2000/svg"
   xmlns="http://www.w3.org/2000/svg"
   xmlns:sodipodi="http://sodipodi.sourceforge.net/DTD/sodipodi-0.dtd"
   xmlns:inkscape="http://www.inkscape.org/namespaces/inkscape"
   width="319.2254pt"
   height="93.431129pt"
   viewBox="0 0 319.2254 93.43113"
   version="1.1"
   id="svg42"
   sodipodi:docname="Shorts TV HD.svg"
   inkscape:version="0.92.0 r15299">
  <metadata
     id="metadata48">
    <rdf:RDF>
      <cc:Work
         rdf:about="">
        <dc:format>image/svg+xml</dc:format>
        <dc:type
           rdf:resource="http://purl.org/dc/dcmitype/StillImage" />
        <dc:title></dc:title>
      </cc:Work>
    </rdf:RDF>
  </metadata>
  <defs
     id="defs46" />
  <sodipodi:namedview
     pagecolor="#ffffff"
     bordercolor="#666666"
     borderopacity="1"
     objecttolerance="10"
     gridtolerance="10"
     guidetolerance="10"
     inkscape:pageopacity="0"
     inkscape:pageshadow="2"
     inkscape:window-width="1920"
     inkscape:window-height="1017"
     id="namedview44"
     showgrid="false"
     fit-margin-top="0"
     fit-margin-left="0"
     fit-margin-right="0"
     fit-margin-bottom="0"
     inkscape:zoom="1.8256211"
     inkscape:cx="191.79491"
     inkscape:cy="47.766573"
     inkscape:window-x="-8"
     inkscape:window-y="-8"
     inkscape:window-maximized="1"
     inkscape:current-layer="svg42" />
  <path
     style="opacity:1;fill:#ffffff;fill-opacity:1"
     inkscape:connector-curvature="0"
     id="path25"
     d="m 0.01270123,73.040882 c 41.11000077,0.17 82.33999977,0.15 123.44999877,0 0.03,0.47 -0.02,1.47025 0,1.94025 -41.099999,-0.07 -82.349998,-0.22 -123.44999877,0 -0.04,-0.48 0.03,-1.45025 0,-1.94025 z"
     sodipodi:nodetypes="ccccc" />
  <path
     style="opacity:1;fill:#ffffff;fill-opacity:1;stroke-width:0.99999994"
     inkscape:connector-curvature="0"
     id="path25-9"
     d="m 195.76555,73.040882 c 41.10999,0.17 82.33999,0.15 123.44999,0 0.03,0.47 -0.02,1.47025 0,1.94025 -41.1,-0.07 -82.35,-0.22 -123.44999,0 -0.04,-0.48 0.03,-1.45025 0,-1.94025 z"
     sodipodi:nodetypes="ccccc" />
  <path
     style="opacity:1;fill:#ffffff;fill-opacity:1"
     inkscape:connector-curvature="0"
     id="path37"
     d="m 130.39166,54.401132 c 19.52,0.12 39.04,0.13 58.56,0 -0.08,13.01 0.06,26.020001 0,39.030001 h -58.56 c -0.22,-13 -0.13,-26.020001 0,-39.030001"
     sodipodi:nodetypes="ccccc" />
  <g
     transform="matrix(1.2648475,0,0,1.2648475,-13.445002,-88.237697)"
     id="g4508"
     style="fill:#666666;fill-opacity:1">
    <path
       d="m 131.091,137.739 v -8.13 h -7.65 v 8.13 h -4.06 v -18.69 h 4.06 v 7.11 h 7.65 v -7.11 h 4.06 v 18.69 z"
       id="path12"
       inkscape:connector-curvature="0"
       style="fill:#666666;fill-opacity:1" />
    <path
       d="m 154.261,128.289 c 0,1.56 -0.21,2.94 -0.65,4.17 -0.45,1.22 -1.1,2.26 -1.98,3.12 -0.79,0.79 -1.66,1.34 -2.64,1.66 -0.97,0.33 -2.2,0.49 -3.69,0.49 h -7.63 v -18.68 h 7.54 c 1.4,0 2.6,0.16 3.59,0.47 0.99,0.32 1.88,0.83 2.66,1.54 1.87,1.7 2.8,4.11 2.8,7.23 m -4.12,-0.03 c 0,-1.9 -0.46,-3.34 -1.37,-4.31 -0.92,-0.97 -2.26,-1.46 -4.03,-1.46 h -3.01 v 11.8 h 3.14 c 1,0 1.78,-0.1 2.36,-0.31 l 1.51,-1.04 c 0.94,-1.08 1.4,-2.64 1.4,-4.68"
       id="path14"
       inkscape:connector-curvature="0"
       style="fill:#666666;fill-opacity:1" />
  </g>
  <polygon
     class="cls-1"
     points="1279.14,219.06 1307.81,219.06 1307.81,30.57 1379.8,30.57 1379.8,4.88 1207.15,4.88 1207.15,30.57 1279.13,30.57 "
     id="polygon8"
     style="fill:#e22027"
     transform="matrix(0.20005278,0,0,0.20005278,0.83139095,3.3316082e-6)" />
  <path
     class="cls-1"
     d="M 313.22781,0.97826118 C 309.7609,13.581586 305.87787,25.956851 300.50045,38.088052 295.3611,25.718788 291.5961,13.347525 287.89713,0.97826118 h -6.33367 C 286.04464,15.260029 290.8259,29.541797 297.16757,43.823565 h 6.40169 c 6.40169,-14.221752 11.17495,-28.50352 15.65613,-42.84530382 z"
     id="path10"
     inkscape:connector-curvature="0"
     style="fill:#e22027;stroke-width:0.20005278" />
  <path
     d="M 24.853729,20.399385 13.200654,17.530628 c -3.2868668,-0.83622 -5.2013719,-1.732457 -5.2013719,-5.437434 0,-6.453703 4.3031349,-6.9318292 9.3824749,-6.9318292 6.811798,0 10.278712,1.0162681 10.756838,8.1861602 h 5.737514 C 33.696062,6.8938219 31.127384,0.02200889 17.741852,0.02200889 6.2688255,0.02200889 2.2637689,5.101349 2.2637689,12.271241 c 0,6.333671 3.1068196,9.202427 9.1424121,10.696822 l 10.636806,2.568677 c 6.21564,1.494395 7.229908,2.988789 7.229908,6.453703 0,6.693766 -4.063072,7.648018 -10.516775,7.648018 -7.708034,0 -11.8911372,-1.434379 -12.1912164,-9.620538 H 0.83139095 C 1.0114385,41.49095 8.3013618,44.777817 18.279994,44.777817 c 9.32246,0 16.732415,-2.868757 16.732415,-12.84739 0,-6.511718 -3.226851,-9.858601 -10.15868,-11.531042 z"
     id="path12-5"
     inkscape:connector-curvature="0"
     style="stroke-width:0.20005278;fill:#ffffff;fill-opacity:1" />
  <polyline
     points="222.17 93.29 222.17 4.88 193.5 4.88 193.5 219.06 222.17 219.06 222.17 118.39 333.89 118.39 333.89 219.06 362.56 219.06 362.56 4.88 333.89 4.88 333.89 93.3"
     id="polyline14"
     transform="matrix(0.20005278,0,0,0.20005278,0.83139095,3.3316082e-6)"
     style="fill:#ffffff;fill-opacity:1" />
  <path
     d="m 162.19997,12.749367 c 0,-10.7568382 -7.82807,-11.77310635 -17.20454,-11.77310635 H 128.13698 V 43.823565 h 5.73751 V 25.418709 h 11.05492 l 12.72936,18.404856 h 7.11187 L 151.68119,25.054613 c 6.51772,-0.772203 10.51878,-3.580945 10.51878,-12.305246 z m -20.48541,7.648018 h -7.84007 V 5.9935844 h 13.32152 c 5.73751,0 9.08239,0.7161889 9.08239,6.8117976 0,6.573734 -2.74872,7.590002 -9.20242,7.590002 z"
     id="path16"
     inkscape:connector-curvature="0"
     style="stroke-width:0.20005278;fill:#ffffff;fill-opacity:1" />
  <polygon
     points="902.32,219.06 931,219.06 931,30.57 1002.99,30.57 1002.99,4.88 830.34,4.88 830.34,30.57 902.32,30.57 "
     id="polygon18"
     transform="matrix(0.20005278,0,0,0.20005278,0.83139095,3.3316082e-6)"
     style="fill:#ffffff;fill-opacity:1" />
  <path
     d="m 228.73352,20.399385 -11.65307,-2.868757 c -3.28687,-0.83622 -5.20138,-1.732457 -5.20138,-5.437434 0,-6.453703 4.30314,-6.9318292 9.38248,-6.9318292 6.8118,0 10.27871,1.0162681 10.75684,8.1861602 h 5.73751 C 237.57585,6.8938219 235.00718,0.02200889 221.62164,0.02200889 c -11.47302,0 -15.47808,5.07934011 -15.47808,12.24923211 0,6.333671 3.10682,9.202427 9.14241,10.696822 l 10.63681,2.568677 c 6.21564,1.494395 7.22991,2.988789 7.22991,6.453703 0,6.693766 -4.06307,7.648018 -10.51678,7.648018 -7.70803,0 -11.89113,-1.434379 -12.19121,-9.620538 h -5.73352 c 0.18005,11.473027 7.46997,14.759894 17.44861,14.759894 9.32246,0 16.73241,-2.868757 16.73241,-12.84739 0,-6.511718 -3.22685,-9.858601 -10.15868,-11.531042 z"
     id="path20"
     inkscape:connector-curvature="0"
     style="stroke-width:0.20005278;fill:#ffffff;fill-opacity:1" />
  <polygon
     class="cls-1"
     points="559.31,113.67 469.79,165.35 469.79,61.98 "
     id="polygon22"
     style="fill:#e22027"
     transform="matrix(0.20005278,0,0,0.20005278,0.83139095,3.3316082e-6)" />
  <circle
     class="cls-2"
     cx="100.81777"
     cy="22.74"
     r="20.039288"
     id="circle24"
     style="fill:#fef5f5;stroke:#ffffff;stroke-width:5.40142488px;stroke-miterlimit:10;fill-opacity:0;stroke-opacity:1" />
</svg>
