<svg height="93.431pt" viewBox="0 0 319.2254 93.43113" width="319.23pt" xmlns="http://www.w3.org/2000/svg"><g fill="#fff"><path d="m .012701 73.041c41.11.17 82.34.15 123.45 0 .03.47-.02 1.4702 0 1.9402-41.1-.07-82.35-.22-123.45 0-.04-.48.03-1.4502 0-1.9402z"/><path d="m195.77 73.041c41.11.17 82.34.15 123.45 0 .03.47-.02 1.4702 0 1.9402-41.1-.07-82.35-.22-123.45 0-.04-.48.03-1.4502 0-1.9402z"/><path d="m130.39 54.401c19.52.12 39.04.13 58.56 0-.08 13.01.06 26.02 0 39.03h-58.56c-.22-13-.13-26.02 0-39.03"/></g><g fill="#666" transform="matrix(1.2648 0 0 1.2648 -13.445 -88.238)"><path d="m131.09 137.74v-8.13h-7.65v8.13h-4.06v-18.69h4.06v7.11h7.65v-7.11h4.06v18.69z"/><path d="m154.261 128.289c0 1.56-.21 2.94-.65 4.17-.45 1.22-1.1 2.26-1.98 3.12-.79.79-1.66 1.34-2.64 1.66-.97.33-2.2.49-3.69.49h-7.63v-18.68h7.54c1.4 0 2.6.16 3.59.47.99.32 1.88.83 2.66 1.54 1.87 1.7 2.8 4.11 2.8 7.23m-4.12-.03c0-1.9-.46-3.34-1.37-4.31-.92-.97-2.26-1.46-4.03-1.46h-3.01v11.8h3.14c1 0 1.78-.1 2.36-.31l1.51-1.04c.94-1.08 1.4-2.64 1.4-4.68"/></g><path d="m1279.1 219.06h28.67v-188.49h71.99v-25.69h-172.65v25.69h71.98z" fill="#e22027" transform="matrix(.20005 0 0 .20005 .83139 .000003)"/><path d="m313.23.97826c-3.4669 12.603-7.3499 24.979-12.727 37.11-5.1394-12.369-8.9044-24.741-12.603-37.11h-6.3337c4.4812 14.282 9.2624 28.564 15.604 42.845h6.4017c6.4017-14.222 11.175-28.504 15.656-42.845z" fill="#e22027" stroke-width=".20005"/><g fill="#fff"><path d="m24.854 20.399-11.653-2.8688c-3.2869-.83622-5.2014-1.7325-5.2014-5.4374 0-6.4537 4.3031-6.9318 9.3825-6.9318 6.8118 0 10.279 1.0163 10.757 8.1862h5.7375c-.18005-6.4537-2.7487-13.326-16.134-13.326-11.473 0-15.478 5.0793-15.478 12.249 0 6.3337 3.1068 9.2024 9.1424 10.697l10.637 2.5687c6.2156 1.4944 7.2299 2.9888 7.2299 6.4537 0 6.6938-4.0631 7.648-10.517 7.648-7.708 0-11.891-1.4344-12.191-9.6205h-5.7335c.18005 11.473 7.47 14.76 17.449 14.76 9.3225 0 16.732-2.8688 16.732-12.847 0-6.5117-3.2269-9.8586-10.159-11.531z" stroke-width=".20005"/><path d="m222.17 93.29v-88.41h-28.67v214.18h28.67v-100.67h111.72v100.67h28.67v-214.18h-28.67v88.42" transform="matrix(.20005 0 0 .20005 .83139 .000003)"/><path d="m162.2 12.749c0-10.757-7.8281-11.773-17.205-11.773h-16.858v42.847h5.7375v-18.405h11.055l12.729 18.405h7.1119l-13.089-18.769c6.5177-.7722 10.519-3.5809 10.519-12.305zm-20.485 7.648h-7.8401v-14.404h13.322c5.7375 0 9.0824.71619 9.0824 6.8118 0 6.5737-2.7487 7.59-9.2024 7.59z" stroke-width=".20005"/><path d="m902.32 219.06h28.68v-188.49h71.99v-25.69h-172.65v25.69h71.98z" transform="matrix(.20005 0 0 .20005 .83139 .000003)"/><path d="m228.73 20.399-11.653-2.8688c-3.2869-.83622-5.2014-1.7325-5.2014-5.4374 0-6.4537 4.3031-6.9318 9.3825-6.9318 6.8118 0 10.279 1.0163 10.757 8.1862h5.7375c-.18005-6.4537-2.7487-13.326-16.134-13.326-11.473 0-15.478 5.0793-15.478 12.249 0 6.3337 3.1068 9.2024 9.1424 10.697l10.637 2.5687c6.2156 1.4944 7.2299 2.9888 7.2299 6.4537 0 6.6938-4.0631 7.648-10.517 7.648-7.708 0-11.891-1.4344-12.191-9.6205h-5.7335c.18005 11.473 7.47 14.76 17.449 14.76 9.3225 0 16.732-2.8688 16.732-12.847 0-6.5117-3.2268-9.8586-10.159-11.531z" stroke-width=".20005"/></g><path d="m559.31 113.67-89.52 51.68v-103.37z" fill="#e22027" transform="matrix(.20005 0 0 .20005 .83139 .000003)"/><circle cx="100.82" cy="22.74" fill="none" r="20.039" stroke="#fff" stroke-miterlimit="10" stroke-width="5.4014"/></svg>