<svg id="k" width="264.63mm" height="37.878mm" version="1.1" viewBox="0 0 264.63 37.878" xmlns="http://www.w3.org/2000/svg" xmlns:xlink="http://www.w3.org/1999/xlink">
 <defs id="l">
  <linearGradient id="d" x1="2.28" x2="58.95" y1="64.96" y2="64.96" gradientTransform="scale(.52805)" gradientUnits="userSpaceOnUse" xlink:href="#a"/>
  <linearGradient id="a" x1="2.28" x2="58.95" y1="64.96" y2="64.96" gradientUnits="userSpaceOnUse">
   <stop id="m" stop-color="red" offset="0"/>
   <stop id="n" stop-color="#ff4b00" offset="1"/>
  </linearGradient>
  <linearGradient id="c" x1="11.81" x2="11.81" y1="22.41" y2="71.55" gradientTransform="scale(.52805)" gradientUnits="userSpaceOnUse" xlink:href="#b"/>
  <linearGradient id="b" x1="11.81" x2="11.81" y1="22.41" y2="71.55" gradientUnits="userSpaceOnUse">
   <stop id="o" stop-color="#c80000" offset="0"/>
   <stop id="p" stop-color="red" offset="1"/>
  </linearGradient>
  <linearGradient id="j" x1="11.72" x2="70.43" y1="53.15" y2="53.15" xlink:href="#b"/>
  <linearGradient id="g" x1="-.19" x2="23.29" y1="35.43" y2="35.43" xlink:href="#a"/>
  <linearGradient id="i" x1="-.63" x2="47.19" y1="11.81" y2="11.81" xlink:href="#b"/>
  <linearGradient id="f" x1="23.93" x2="68.68" y1="11.81" y2="11.81" gradientTransform="scale(.52805)" xlink:href="#a"/>
  <linearGradient id="e" x1="71.59" x2="46.98" y1="35.43" y2="35.43" xlink:href="#a"/>
  <linearGradient id="h" x1="70.72" x2="47.19" y1="24.49" y2="24.49" gradientTransform="scale(.52805)" xlink:href="#b"/>
 </defs>
 <g id="q" transform="scale(1)">
  <path id="r" class="cls-1" d="m6.2363 31.181-5.3227 5.3227a3.1102 3.1102 0 0 0 2.202 0.91353h21.83l6.2363-6.2363z" fill="url(#d)" stroke-width=".52805"/>
  <path id="s" class="cls-2" d="m12.473 24.945-12.473-12.473v21.851a3.1102 3.1102 0 0 0 0.91353 2.202l5.3227-5.3439z" fill="url(#c)" stroke-width=".52805"/>
  <polygon id="t" class="cls-3" transform="scale(.52805)" points="23.62 47.24 11.81 59.05 59.05 59.05 70.86 47.24" fill="url(#j)"/>
  <polygon id="u" class="cls-4" transform="scale(.52805)" points="23.62 47.24 23.62 23.62 0 23.62" fill="url(#g)"/>
  <polygon id="v" class="cls-5" transform="scale(.52805)" points="0 23.62 47.24 23.62 23.62 0" fill="url(#i)"/>
  <path id="w" class="cls-6" d="m36.504 0.91353a3.1102 3.1102 0 0 0-2.1808-0.91353h-21.851l12.473 12.473z" fill="url(#f)" stroke-width=".52805"/>
  <polygon id="x" class="cls-7" transform="scale(.52805)" points="70.86 23.62 47.24 47.24 70.86 47.24" fill="url(#e)"/>
  <path id="y" class="cls-8" d="m37.418 3.1155a3.1102 3.1102 0 0 0-0.91353-2.202l-11.559 11.559v12.473l12.473-12.473z" fill="url(#h)" stroke-width=".52805"/>
 </g>
 <g id="z" transform="scale(1)" fill="#fff" stroke-width=".52805">
  <path id="aa" class="cls-9" d="m48.808 35.855 2.07-5.6871c2.8462 1.2304 4.9531 1.8587 6.8646 1.8587s2.9835-0.70231 2.9835-1.7901c0-1.4733-1.4046-1.8957-3.6964-2.6402-4.3934-1.3624-7.3927-3.0468-7.3927-7.963 0-5.0587 3.1683-7.6567 9.093-7.6567a17.515 17.515 0 0 1 8.1478 1.8587l-2.7617 5.1749c-2.3551-1.0191-3.7914-1.4046-5.4759-1.4046s-2.6667 0.58614-2.6667 1.5366c0 1.336 0.80792 1.7214 4.5307 3.0891 4.3194 1.5472 6.9544 3.6171 6.9544 7.7254 0 5.2805-3.4746 7.9208-9.7953 7.9208a19.707 19.707 0 0 1-8.8554-2.0224z"/>
  <path id="ab" class="cls-9" d="m85.359 37.402-8.3221-11.026v7.9472c0 2.1122-0.98217 3.0891-3.0891 3.0891h-3.5802v-24.94h6.6693v10.762l5.8666-8.2376a5.5762 5.5762 0 0 1 4.8792-2.5294h5.0218l-9.5049 11.939 10.033 12.99z"/>
  <path id="ac" class="cls-9" d="m118.36 12.473-8.9768 15.731v9.1986h-6.6006v-9.5049l2.7617-5.1907h-3.0521a4.9161 4.9161 0 0 1-4.6363-2.6667l-4.3194-7.5511h7.7254l4.7524 9.2673 4.9161-9.2673z"/>
  <path id="ad" class="cls-9" d="m137.96 31.535v5.8614h-17.626v-24.924h3.5802c2.1122 0 3.0891 0.98217 3.0891 3.0891v15.974z"/>
  <path id="ae" class="cls-9" d="m140.46 15.562c0-2.1122 0.98217-3.0891 3.0891-3.0891h3.5802v24.929h-6.6693z"/>
  <path id="af" class="cls-9" d="m173.35 12.473v24.929h-6.4844l-9.9115-14.574v14.574h-6.1782v-24.929h6.3894l10.033 14.711v-11.554c0-2.1122 0.98217-3.0891 3.0891-3.1261z"/>
  <path id="ag" class="cls-9" d="m192.03 37.402-8.3221-11.026v7.9472c0 2.1122-0.98217 3.0891-3.0891 3.0891h-3.5802v-24.94h6.6693v10.762l5.8614-8.2376a5.5762 5.5762 0 0 1 4.8792-2.5294h5.0218l-9.5049 11.939 10.033 12.99z"/>
 </g>
 <path id="ah" d="m229.57 17.635c0-0.5616-0.21061-1.1232-0.63181-1.6848l-2.7378-3.4749h-16.567v5.8618h12.882l-11.583 19.059h7.3711l10.846-18.322c0.2808-0.4914 0.42119-0.94771 0.42119-1.4391z" fill="#e30520"/>
 <g id="ai" transform="matrix(.49398 0 0 .49398 491.4 396.92)" fill="#e30520" stroke-width="1px" aria-label="7 HD">
  <path id="aj" d="m-490.49-778.26h-7.56v11h-10.2v-7.48c0-1.2-0.32-2.08-0.88-2.64s-1.44-0.88-2.64-0.88h-4.08v28.4h7.6v-10.64h10.2v10.64h7.56z"/>
  <path id="ak" d="m-485.15-778.26v28.4h10.52c2.96 0 5.64-0.6 8-1.8s4.2-2.92 5.56-5.08c1.32-2.16 2-4.6 2-7.32s-0.68001-5.16-2-7.32c-1.36-2.16-3.2-3.84-5.6-5.04s-5.08-1.84-8.12-1.84zm10.28 21.56h-2.68v-14.76h2.52c2.64 0 4.64 0.68 6.08 1.96 1.4 1.32 2.12 3.16 2.12 5.56 0 2.36-0.72001 4.16-2.08 5.4-1.36 1.24-3.36 1.84-5.96 1.84z"/>
 </g>
</svg>
