<?xml version="1.0" encoding="UTF-8"?>
<svg id="svg2088" width="800" height="186.55" version="1.1" viewBox="0 0 211.66 49.359" xmlns="http://www.w3.org/2000/svg" xmlns:cc="http://creativecommons.org/ns#" xmlns:dc="http://purl.org/dc/elements/1.1/" xmlns:rdf="http://www.w3.org/1999/02/22-rdf-syntax-ns#">
 <metadata id="metadata2092">
  <rdf:RDF>
   <cc:Work rdf:about="">
    <dc:format>image/svg+xml</dc:format>
    <dc:type rdf:resource="http://purl.org/dc/dcmitype/StillImage"/>
    <dc:title/>
   </cc:Work>
  </rdf:RDF>
 </metadata>
 <defs id="defs1992">
  <clipPath id="clipPath1068">
   <path id="path1066" d="m95.489 609.9h70.997v16.555h-70.997z"/>
  </clipPath>
  <linearGradient id="linearGradient1058" x2="1" gradientTransform="matrix(-2.9379 0 0 2.9379 104.32 623.4)" gradientUnits="userSpaceOnUse">
   <stop id="stop1054" stop-color="#009333" offset="0"/>
   <stop id="stop1056" stop-color="#83bb26" offset="1"/>
  </linearGradient>
  <linearGradient id="linearGradient1038" x2="1" gradientTransform="matrix(-3.0724 0 0 3.0724 104.43 622.03)" gradientUnits="userSpaceOnUse">
   <stop id="stop1034" stop-color="#7ccef4" offset="0"/>
   <stop id="stop1036" stop-color="#0bbbef" offset="1"/>
  </linearGradient>
  <linearGradient id="linearGradient1018" x2="1" gradientTransform="matrix(5.5883 0 0 -5.5883 98.477 624.98)" gradientUnits="userSpaceOnUse">
   <stop id="stop1014" stop-color="#dedc00" offset="0"/>
   <stop id="stop1016" stop-color="#70b62c" offset="1"/>
  </linearGradient>
  <linearGradient id="linearGradient998" x2="1" gradientTransform="matrix(5.9708 0 0 -5.9708 95.411 624.98)" gradientUnits="userSpaceOnUse">
   <stop id="stop994" stop-color="#fc0" offset="0"/>
   <stop id="stop996" stop-color="#f08300" offset="1"/>
  </linearGradient>
  <linearGradient id="linearGradient978" x2="1" gradientTransform="matrix(2.9322 0 0 -2.9322 95.465 622.03)" gradientUnits="userSpaceOnUse">
   <stop id="stop974-6" stop-color="#e94e24" offset="0"/>
   <stop id="stop976-1" stop-color="#f1872b" offset="1"/>
  </linearGradient>
  <linearGradient id="linearGradient958" x2="1" gradientTransform="matrix(7.3303 0 0 -7.3303 96.953 619.82)" gradientUnits="userSpaceOnUse">
   <stop id="stop954-8" stop-color="#1f3c90" offset="0"/>
   <stop id="stop956-9" stop-color="#009ada" offset="1"/>
  </linearGradient>
  <linearGradient id="linearGradient938" x2="1" gradientTransform="matrix(0 -6.1364 -6.1364 0 96.964 623.66)" gradientUnits="userSpaceOnUse">
   <stop id="stop934-2" stop-color="#c00d0d" offset="0"/>
   <stop id="stop936-6" stop-color="#e53012" offset="1"/>
  </linearGradient>
  <linearGradient id="linearGradient918" x2="1" gradientTransform="matrix(7.0763 0 0 -7.0763 95.774 618.35)" gradientUnits="userSpaceOnUse">
   <stop id="stop914-9" stop-color="#7c348b" offset="0"/>
   <stop id="stop916-4" stop-color="#f08fba" offset="1"/>
  </linearGradient>
  <clipPath id="clipPath896">
   <path id="path894" d="m95.489 609.9h70.997v16.555h-70.997z"/>
  </clipPath>
 </defs>
 <g id="g5778">
  <g id="g902" transform="matrix(2.9813 0 0 -2.9813 -284.69 1867.7)">
   <g id="g904">
    <g id="g910">
     <g id="g912">
      <path id="path920" d="m96.964 619.08-1.259-1.259c0.133-0.133 0.318-0.216 0.521-0.216h5.163l1.474 1.475z" fill="url(#linearGradient918)"/>
     </g>
    </g>
   </g>
  </g>
  <g id="g922" transform="matrix(2.9813 0 0 -2.9813 -284.69 1867.7)">
   <g id="g924">
    <g id="g930">
     <g id="g932">
      <path id="path940" d="m95.489 618.34c0-0.203 0.083-0.388 0.216-0.521l1.259 1.259 1.475 1.474-2.95 2.95z" fill="url(#linearGradient938)"/>
     </g>
    </g>
   </g>
  </g>
  <g id="g942" transform="matrix(2.9813 0 0 -2.9813 -284.69 1867.7)">
   <g id="g944">
    <g id="g950">
     <g id="g952">
      <path id="path960" d="m98.439 620.56-1.475-1.474h5.899l1.475 1.474z" fill="url(#linearGradient958)"/>
     </g>
    </g>
   </g>
  </g>
  <g id="g962" transform="matrix(2.9813 0 0 -2.9813 -284.69 1867.7)">
   <g id="g964">
    <g id="g970">
     <g id="g972">
      <path id="path980" d="m95.489 623.51 2.95-2.95v2.95z" fill="url(#linearGradient978)"/>
     </g>
    </g>
   </g>
  </g>
  <g id="g982" transform="matrix(2.9813 0 0 -2.9813 -284.69 1867.7)">
   <g id="g984">
    <g id="g990">
     <g id="g992">
      <path id="path1000" d="m95.489 623.51h5.9l-2.95 2.95z" fill="url(#linearGradient998)"/>
     </g>
    </g>
   </g>
  </g>
  <g id="g1002" transform="matrix(2.9813 0 0 -2.9813 -284.69 1867.7)">
   <g id="g1004">
    <g id="g1010">
     <g id="g1012">
      <path id="path1020" d="m98.439 626.46 2.95-2.95 2.733 2.734c-0.133 0.134-0.318 0.216-0.521 0.216z" fill="url(#linearGradient1018)"/>
     </g>
    </g>
   </g>
  </g>
  <g id="g1022" transform="matrix(2.9813 0 0 -2.9813 -284.69 1867.7)">
   <g id="g1024">
    <g id="g1030">
     <g id="g1032">
      <path id="path1040" d="m101.39 620.56h2.949v2.95z" fill="url(#linearGradient1038)"/>
     </g>
    </g>
   </g>
  </g>
  <g id="g1042" transform="matrix(2.9813 0 0 -2.9813 -284.69 1867.7)">
   <g id="g1044">
    <g id="g1050">
     <g id="g1052">
      <path id="path1060" d="m101.39 623.51v-2.95l2.949 2.95v2.213c0 0.203-0.082 0.387-0.216 0.521z" fill="url(#linearGradient1058)"/>
     </g>
    </g>
   </g>
  </g>
 </g>
 <g id="g5808" fill="#fff">
  <g id="g890" transform="matrix(2.9813 0 0 -2.9813 -284.69 1867.7)">
   <g id="g892" clip-path="url(#clipPath896)" fill="#fff">
    <g id="g898" transform="translate(111.31 623.18)" fill="#fff">
     <path id="path900" d="m0 0c-0.556 0.282-1.212 0.44-1.926 0.44-1.404 0-2.151-0.614-2.151-1.81 0-1.171 0.706-1.561 1.735-1.885 0.549-0.174 0.881-0.282 0.881-0.622 0-0.258-0.224-0.424-0.698-0.424-0.456 0-0.954 0.15-1.627 0.44l-0.49-1.345c0.672-0.324 1.337-0.482 2.092-0.482 1.495 0 2.317 0.631 2.317 1.877 0 0.971-0.631 1.453-1.644 1.827-0.88 0.315-1.071 0.415-1.071 0.73 0 0.216 0.224 0.366 0.631 0.366 0.398 0 0.739-0.1 1.287-0.332zm3.795-2.508 2.25 2.832h-1.188c-0.498 0-0.863-0.183-1.154-0.59l-1.394-1.959v2.549h-1.57v-5.895h0.839c0.498 0 0.731 0.232 0.731 0.73v1.877l1.967-2.607h1.976zm5.306 0.631-1.13 2.201h-1.834l1.386-2.416h1.461l-0.656-1.246v-2.233h1.553v2.167l2.117 3.728h-1.743zm4.982 1.47c0 0.498-0.233 0.731-0.731 0.731h-0.838v-5.895h4.159v1.386h-2.59zm4.799-5.164v5.895h-0.838c-0.499 0-0.731-0.233-0.731-0.731v-5.164zm4.667 2.424-2.375 3.471h-1.503v-5.895h1.453v3.446l2.35-3.446h1.528v5.895l-0.723-9e-3c-0.498 0-0.73-0.24-0.73-0.738zm5.206 0.639 2.25 2.832h-1.187c-0.499 0-0.864-0.183-1.155-0.59l-1.394-1.959v2.549h-1.57v-5.895h0.839c0.498 0 0.731 0.232 0.731 0.73v1.877l1.967-2.607h1.977z" fill="#fff"/>
    </g>
   </g>
  </g>
  <g id="g1062" transform="matrix(2.9813 0 0 -2.9813 -284.69 1867.7)">
   <g id="g1064" clip-path="url(#clipPath1068)" fill="#fff">
    <g id="g1070" transform="translate(145.62 612.14)">
     <path id="path1072" d="m0 0 0.639 1.984h0.025l0.681-1.984zm1.727 3.088c-0.175 0.465-0.49 0.68-0.988 0.68h-0.913l-2.225-5.893h1.71l0.631 1.942 0.805-1.087h1.004l0.332-0.855h1.677z" fill="#fff"/>
    </g>
    <g id="g1074" transform="translate(145.21 617.61)">
     <path id="path1076" d="m0 0c-0.498 0-0.73-0.232-0.73-0.73v-0.341h3.394v1.071z" fill="#fff"/>
    </g>
    <g id="g1078" transform="translate(162.73 612.14)">
     <path id="path1080" d="m0 0 0.639 1.984h0.025l0.681-1.984zm1.727 3.089c-0.174 0.464-0.49 0.68-0.988 0.68h-0.913l-2.226-5.894h1.711l0.631 1.942 0.805-1.087h1.005l0.332-0.855h1.677z" fill="#fff"/>
    </g>
    <g id="g1082" transform="translate(117.77 611.99)">
     <path id="path1084" d="m0 0c-0.357-0.398-0.789-0.598-1.27-0.598-0.864 0-1.478 0.656-1.478 1.553 0 0.913 0.639 1.586 1.486 1.586 0.473 0 0.889-0.208 1.287-0.648l1.104 0.971c-0.631 0.781-1.453 1.171-2.466 1.171-1.81 0-3.055-1.262-3.055-3.105 0-1.818 1.212-3.022 3.047-3.022 1.013 0 1.827 0.373 2.466 1.137z" fill="#fff"/>
    </g>
    <g id="g1086" transform="translate(109.73 611.37)">
     <path id="path1088" d="m0 0c-0.863 0-1.453 0.648-1.453 1.586s0.59 1.586 1.453 1.586c0.855 0 1.445-0.648 1.445-1.586s-0.59-1.586-1.445-1.586m-8e-3 4.641c-1.818 0-3.097-1.254-3.097-3.055 0-1.793 1.279-3.056 3.105-3.056 1.827 0 3.097 1.254 3.097 3.056 0 1.793-1.279 3.055-3.105 3.055" fill="#fff"/>
    </g>
    <g id="g1090" transform="translate(141.29 612.44)">
     <path id="path1092" d="m0 0-2.375 3.47h-1.502v-5.894h1.453v3.445l2.349-3.445h1.528v5.894l-0.722-8e-3c-0.499 0-0.731-0.241-0.731-0.739z" fill="#fff"/>
    </g>
    <g id="g1094" transform="translate(158.01 613.08)">
     <path id="path1096" d="m0 0 2.25 2.831h-1.187c-0.498 0-0.864-0.182-1.154-0.589l-1.395-1.96v2.549h-1.569v-5.894h0.838c0.498 0 0.731 0.232 0.731 0.73v1.876l1.968-2.606h1.976z" fill="#fff"/>
    </g>
    <g id="g1098" transform="translate(123.29 613.63)">
     <path id="path1100" d="m0 0h-2.125v1.553c0 0.497-0.233 0.73-0.731 0.73h-0.839v-5.895h1.57v2.209h2.125v-2.209h1.569v5.895h-1.569z" fill="#fff"/>
    </g>
    <g id="g1102" transform="translate(152.22 610.02)">
     <path id="path1104" d="m0 0 2.25 5.895h-1.021c-0.498 0-0.797-0.216-0.947-0.689l-1.021-3.18h-0.016l-1.287 3.869h-1.76l2.291-5.895z" fill="#fff"/>
    </g>
    <g id="g1106" transform="translate(130.97 610.02)">
     <path id="path1108" d="m0 0v5.895h-1.569v-4.475h-1.146c-0.581 0-0.872 0.357-0.872 1.071v2.673c0 0.498-0.232 0.731-0.73 0.731h-0.839v-3.653c0-1.412 0.789-2.242 2.126-2.242z" fill="#fff"/>
    </g>
    <g id="g1110" transform="translate(134.95 610.02)">
     <path id="path1112" d="m0 0v4.516h1.013c0.498 0 0.73 0.233 0.73 0.731v0.648h-5.006v-1.379h1.694v-4.516z" fill="#fff"/>
    </g>
   </g>
  </g>
 </g>
</svg>
