<?xml version="1.0" encoding="UTF-8" standalone="no"?>
<!-- Created with Inkscape (http://www.inkscape.org/) -->

<svg
   xmlns:dc="http://purl.org/dc/elements/1.1/"
   xmlns:cc="http://creativecommons.org/ns#"
   xmlns:rdf="http://www.w3.org/1999/02/22-rdf-syntax-ns#"
   xmlns:svg="http://www.w3.org/2000/svg"
   xmlns="http://www.w3.org/2000/svg"
   xmlns:xlink="http://www.w3.org/1999/xlink"
   xmlns:sodipodi="http://sodipodi.sourceforge.net/DTD/sodipodi-0.dtd"
   xmlns:inkscape="http://www.inkscape.org/namespaces/inkscape"
   width="5.5425601mm"
   height="6.4399319mm"
   viewBox="0 0 5.5425601 6.4399319"
   version="1.1"
   id="svg15047"
   inkscape:version="0.92.0 r15299"
   sodipodi:docname="Slager TV - Dark.svg">
  <defs
     id="defs15041">
    <linearGradient
       x1="0"
       y1="0"
       x2="1"
       y2="0"
       gradientUnits="userSpaceOnUse"
       gradientTransform="matrix(0,-9.8079681,-9.8079681,0,216.62775,565.48936)"
       spreadMethod="pad"
       id="linearGradient1344">
      <stop
         style="stop-opacity:1;stop-color:#df001a"
         offset="0"
         id="stop1340" />
      <stop
         style="stop-opacity:1;stop-color:#941114"
         offset="1"
         id="stop1342" />
    </linearGradient>
    <linearGradient
       x1="0"
       y1="0"
       x2="1"
       y2="0"
       gradientUnits="userSpaceOnUse"
       gradientTransform="matrix(0,-6.6511841,-6.6511841,0,214.88831,558.93521)"
       spreadMethod="pad"
       id="linearGradient1204">
      <stop
         style="stop-opacity:1;stop-color:#c40219"
         offset="0"
         id="stop1200" />
      <stop
         style="stop-opacity:1;stop-color:#a31016"
         offset="1"
         id="stop1202" />
    </linearGradient>
    <linearGradient
       x1="0"
       y1="0"
       x2="1"
       y2="0"
       gradientUnits="userSpaceOnUse"
       gradientTransform="matrix(0,-6.6511841,-6.6511841,0,204.30234,558.93521)"
       spreadMethod="pad"
       id="linearGradient1184">
      <stop
         style="stop-opacity:1;stop-color:#c40219"
         offset="0"
         id="stop1180" />
      <stop
         style="stop-opacity:1;stop-color:#a31016"
         offset="1"
         id="stop1182" />
    </linearGradient>
    <linearGradient
       x1="0"
       y1="0"
       x2="1"
       y2="0"
       gradientUnits="userSpaceOnUse"
       gradientTransform="matrix(0,-9.7284851,-9.7284851,0,209.65707,560.47386)"
       spreadMethod="pad"
       id="linearGradient1164">
      <stop
         style="stop-opacity:1;stop-color:#555658"
         offset="0"
         id="stop1160" />
      <stop
         style="stop-opacity:1;stop-color:#000000"
         offset="1"
         id="stop1162" />
    </linearGradient>
    <linearGradient
       x1="0"
       y1="0"
       x2="1"
       y2="0"
       gradientUnits="userSpaceOnUse"
       gradientTransform="matrix(0,-11.267181,-11.267181,0,206.99486,562.01257)"
       spreadMethod="pad"
       id="linearGradient1144">
      <stop
         style="stop-opacity:1;stop-color:#555658"
         offset="0"
         id="stop1140" />
      <stop
         style="stop-opacity:1;stop-color:#000000"
         offset="1"
         id="stop1142" />
    </linearGradient>
    <linearGradient
       x1="0"
       y1="0"
       x2="1"
       y2="0"
       gradientUnits="userSpaceOnUse"
       gradientTransform="matrix(0,-11.267181,-11.267181,0,212.33737,562.01257)"
       spreadMethod="pad"
       id="linearGradient1124">
      <stop
         style="stop-opacity:1;stop-color:#555658"
         offset="0"
         id="stop1120" />
      <stop
         style="stop-opacity:1;stop-color:#000000"
         offset="1"
         id="stop1122" />
    </linearGradient>
    <linearGradient
       inkscape:collect="always"
       xlink:href="#linearGradient1124"
       id="linearGradient4759"
       x1="62.040203"
       y1="122.62733"
       x2="62.040203"
       y2="123.45419"
       gradientUnits="userSpaceOnUse" />
    <linearGradient
       inkscape:collect="always"
       xlink:href="#linearGradient1124"
       id="linearGradient4793"
       gradientUnits="userSpaceOnUse"
       x1="62.040203"
       y1="122.62733"
       x2="62.040203"
       y2="123.45419" />
    <linearGradient
       inkscape:collect="always"
       xlink:href="#linearGradient1124"
       id="linearGradient4795"
       gradientUnits="userSpaceOnUse"
       x1="62.040203"
       y1="122.62733"
       x2="62.040203"
       y2="123.45419" />
    <linearGradient
       inkscape:collect="always"
       xlink:href="#linearGradient1124"
       id="linearGradient4797"
       gradientUnits="userSpaceOnUse"
       x1="62.040203"
       y1="122.62733"
       x2="62.040203"
       y2="123.45419" />
    <linearGradient
       inkscape:collect="always"
       xlink:href="#linearGradient1124"
       id="linearGradient4799"
       gradientUnits="userSpaceOnUse"
       x1="62.040203"
       y1="122.62733"
       x2="62.040203"
       y2="123.45419" />
    <linearGradient
       inkscape:collect="always"
       xlink:href="#linearGradient1124"
       id="linearGradient4801"
       gradientUnits="userSpaceOnUse"
       x1="62.040203"
       y1="122.62733"
       x2="62.040203"
       y2="123.45419" />
    <linearGradient
       inkscape:collect="always"
       xlink:href="#linearGradient1124"
       id="linearGradient4803"
       gradientUnits="userSpaceOnUse"
       x1="62.040203"
       y1="122.62733"
       x2="62.040203"
       y2="123.45419" />
    <linearGradient
       inkscape:collect="always"
       xlink:href="#linearGradient1124"
       id="linearGradient4805"
       gradientUnits="userSpaceOnUse"
       x1="62.040203"
       y1="122.62733"
       x2="62.040203"
       y2="123.45419" />
    <linearGradient
       inkscape:collect="always"
       xlink:href="#linearGradient1124"
       id="linearGradient4807"
       gradientUnits="userSpaceOnUse"
       x1="62.040203"
       y1="122.62733"
       x2="62.040203"
       y2="123.45419" />
    <linearGradient
       inkscape:collect="always"
       xlink:href="#linearGradient1124"
       id="linearGradient4809"
       gradientUnits="userSpaceOnUse"
       gradientTransform="matrix(0,-11.267181,-11.267181,0,212.33737,562.01257)"
       x1="0"
       y1="0"
       x2="1"
       y2="0"
       spreadMethod="pad" />
  </defs>
  <sodipodi:namedview
     id="base"
     pagecolor="#ffffff"
     bordercolor="#666666"
     borderopacity="1.0"
     inkscape:pageopacity="0.0"
     inkscape:pageshadow="2"
     inkscape:zoom="31.678384"
     inkscape:cx="10.081848"
     inkscape:cy="10.95648"
     inkscape:document-units="mm"
     inkscape:current-layer="layer1"
     showgrid="false"
     inkscape:window-width="1920"
     inkscape:window-height="1017"
     inkscape:window-x="-8"
     inkscape:window-y="-8"
     inkscape:window-maximized="1"
     fit-margin-top="0"
     fit-margin-left="0"
     fit-margin-right="0"
     fit-margin-bottom="0" />
  <metadata
     id="metadata15044">
    <rdf:RDF>
      <cc:Work
         rdf:about="">
        <dc:format>image/svg+xml</dc:format>
        <dc:type
           rdf:resource="http://purl.org/dc/dcmitype/StillImage" />
        <dc:title />
      </cc:Work>
    </rdf:RDF>
  </metadata>
  <g
     inkscape:label="Layer 1"
     inkscape:groupmode="layer"
     id="layer1"
     transform="translate(-59.972768,-115.37508)">
    <g
       transform="matrix(0.35277777,0,0,-0.35277777,-10.827898,314.86738)"
       id="g1108">
      <g
         id="g1110">
        <g
           id="g1116">
          <g
             id="g1118">
            <path
               d="m 210.166,560.995 v -9.232 c 0,-0.562 0.456,-1.018 1.018,-1.018 v 0 c 0.562,0 1.017,0.456 1.017,1.018 v 0 9.232 c 0,0.562 -0.455,1.017 -1.017,1.017 v 0 c -0.562,0 -1.018,-0.455 -1.018,-1.017"
               style="fill:url(#linearGradient4809);stroke:none"
               id="path1126"
               inkscape:connector-curvature="0" />
          </g>
        </g>
      </g>
    </g>
    <g
       transform="matrix(0.35277777,0,0,-0.35277777,-10.827898,314.86738)"
       id="g1128">
      <g
         id="g1130">
        <g
           id="g1136">
          <g
             id="g1138">
            <path
               d="m 204.824,560.995 v -9.232 c 0,-0.562 0.455,-1.018 1.018,-1.018 v 0 c 0.561,0 1.017,0.456 1.017,1.018 v 0 9.232 c 0,0.562 -0.456,1.017 -1.017,1.017 v 0 c -0.563,0 -1.018,-0.455 -1.018,-1.017"
               style="fill:url(#linearGradient1144);stroke:none"
               id="path1146"
               inkscape:connector-curvature="0" />
          </g>
        </g>
      </g>
    </g>
    <g
       transform="matrix(0.35277777,0,0,-0.35277777,-10.827898,314.86738)"
       id="g1148">
      <g
         id="g1150">
        <g
           id="g1156">
          <g
             id="g1158">
            <path
               d="m 207.486,559.456 v -7.693 c 0,-0.562 0.455,-1.018 1.018,-1.018 v 0 c 0.561,0 1.017,0.456 1.017,1.018 v 0 7.693 c 0,0.563 -0.456,1.018 -1.017,1.018 v 0 c -0.563,0 -1.018,-0.455 -1.018,-1.018"
               style="fill:url(#linearGradient1164);stroke:none"
               id="path1166"
               inkscape:connector-curvature="0" />
          </g>
        </g>
      </g>
    </g>
    <g
       transform="matrix(0.35277777,0,0,-0.35277777,-10.827898,314.86738)"
       id="g1168">
      <g
         id="g1170">
        <g
           id="g1176">
          <g
             id="g1178">
            <path
               d="m 202.33,558.017 v -4.815 c 0,-0.507 0.411,-0.918 0.918,-0.918 v 0 c 0.494,0 0.897,0.39 0.918,0.879 v 0 4.893 c -0.021,0.489 -0.424,0.879 -0.918,0.879 v 0 c -0.507,0 -0.918,-0.411 -0.918,-0.918"
               style="fill:url(#linearGradient1184);stroke:none"
               id="path1186"
               inkscape:connector-curvature="0" />
          </g>
        </g>
      </g>
    </g>
    <g
       transform="matrix(0.35277777,0,0,-0.35277777,-10.827898,314.86738)"
       id="g1188">
      <g
         id="g1190">
        <g
           id="g1196">
          <g
             id="g1198">
            <path
               d="m 212.916,558.017 v -4.815 c 0,-0.507 0.411,-0.918 0.918,-0.918 v 0 c 0.507,0 0.919,0.411 0.919,0.918 v 0 4.815 c 0,0.507 -0.412,0.918 -0.919,0.918 v 0 c -0.507,0 -0.918,-0.411 -0.918,-0.918"
               style="fill:url(#linearGradient1204);stroke:none"
               id="path1206"
               inkscape:connector-curvature="0" />
          </g>
        </g>
      </g>
    </g>
    <g
       transform="matrix(0.35277777,0,0,-0.35277777,-10.827898,314.86738)"
       id="g1328">
      <g
         id="g1330">
        <g
           id="g1336">
          <g
             id="g1338">
            <path
               d="m 208.033,565.475 c -0.593,-0.065 -1.181,-0.189 -1.739,-0.4 v 0 c -0.856,-0.314 -1.638,-0.81 -2.323,-1.41 v 0 c -1.311,-1.167 -2.232,-2.728 -2.756,-4.395 v 0 c -0.351,-1.161 -0.537,-2.373 -0.519,-3.588 v 0 c 0.131,10e-4 0.262,0 0.393,0 v 0 c 0.23,-10e-4 0.461,-0.002 0.691,0.006 v 0 c -0.031,1.222 0.184,2.448 0.608,3.593 v 0 c 0.532,1.422 1.421,2.73 2.637,3.65 v 0 c 0.774,0.591 1.689,1.006 2.653,1.162 v 0 c 0.451,0.09 0.913,0.058 1.37,0.056 v 0 c 1.545,-0.122 2.982,-0.926 4.02,-2.058 v 0 c 1.587,-1.715 2.362,-4.09 2.322,-6.407 v 0 c 0.23,-0.002 0.46,-0.002 0.689,-0.002 v 0 c 0.109,0 0.218,0 0.327,0 v 0 1.361 c -0.189,1.8 -0.789,3.562 -1.825,5.051 v 0 c -0.73,1.053 -1.684,1.961 -2.813,2.574 v 0 c -0.81,0.446 -1.713,0.711 -2.63,0.807 v 0 c -0.184,0.009 -0.368,0.015 -0.552,0.015 v 0 c -0.185,0 -0.369,-0.006 -0.553,-0.015"
               style="fill:url(#linearGradient1344);stroke:none"
               id="path1346"
               inkscape:connector-curvature="0" />
          </g>
        </g>
      </g>
    </g>
    <g
       id="g4751"
       style="fill:url(#linearGradient4759);fill-opacity:1"
       transform="translate(0.02897123,-1.66754)">
      <path
         d="m 60.279409,122.64086 c 0.11764,-0.0163 0.236758,10e-4 0.351383,0.0284 0.0194,0.003 0.04107,0.014 0.04369,0.0358 0.0073,0.0587 0.01365,0.11753 0.02014,0.17635 0.0024,0.0147 -0.0012,0.0318 -0.01587,0.0388 -0.01826,0.0106 -0.03641,-0.005 -0.05313,-0.0115 -0.07668,-0.0334 -0.15763,-0.0603 -0.241593,-0.0654 -0.02958,-0.001 -0.05973,1.1e-4 -0.08846,0.008 -0.01268,0.003 -0.02793,0.0138 -0.02383,0.0288 0.0079,0.0184 0.03026,0.0208 0.04687,0.0272 0.0797,0.0277 0.16531,0.0327 0.24404,0.0636 0.05324,0.0191 0.104669,0.0495 0.136582,0.0974 0.04136,0.0592 0.04744,0.13675 0.0318,0.2057 -0.01286,0.0586 -0.05012,0.11075 -0.100118,0.14363 -0.06633,0.0445 -0.147391,0.0595 -0.22578,0.0643 -0.112349,0.004 -0.224243,-0.0121 -0.333862,-0.0353 -0.01519,-0.002 -0.02702,-0.015 -0.02759,-0.0301 -0.0061,-0.0664 -0.01189,-0.13283 -0.01712,-0.19928 -0.0042,-0.0212 0.01985,-0.0399 0.03942,-0.0319 0.09284,0.0404 0.188121,0.0824 0.290401,0.0902 0.03857,0.001 0.0801,0.003 0.114909,-0.0165 0.01257,-0.007 0.02355,-0.0263 0.01206,-0.0386 -0.01633,-0.0192 -0.04312,-0.0233 -0.06587,-0.0307 -0.07077,-0.0176 -0.143465,-0.0282 -0.212069,-0.0537 -0.05347,-0.0189 -0.107059,-0.0457 -0.141987,-0.092 -0.04096,-0.0536 -0.04847,-0.12526 -0.03897,-0.19028 0.0073,-0.0532 0.03305,-0.10439 0.07452,-0.13903 0.05057,-0.0428 0.115592,-0.0646 0.180442,-0.0736 z"
         id="path4"
         inkscape:connector-curvature="0"
         style="opacity:1;fill:url(#linearGradient4793);fill-opacity:1;stroke-width:0.00568857" />
      <path
         d="m 62.893705,122.69979 c 0.06809,-0.0367 0.144547,-0.0555 0.221229,-0.0625 0.134193,-0.008 0.269808,0.003 0.399963,0.0375 0.01837,0.003 0.03692,0.0156 0.03857,0.0358 0.006,0.0473 0.01234,0.0946 0.01689,0.1421 0.0047,0.0219 -0.01877,0.0424 -0.03988,0.0347 -0.107173,-0.0291 -0.21793,-0.0544 -0.32971,-0.0468 -0.08049,0.005 -0.164741,0.0419 -0.20604,0.11446 -0.04471,0.0806 -0.03777,0.19472 0.03322,0.25831 0.04932,0.0453 0.118436,0.0597 0.183514,0.061 0.04966,-1.7e-4 0.09995,-0.003 0.147732,-0.0181 0.0012,-0.0175 9.67e-4,-0.0349 7.96e-4,-0.0523 -0.03777,-2.9e-4 -0.07549,3.4e-4 -0.113202,-2.3e-4 -0.01604,-2.3e-4 -0.03004,-0.0158 -0.02901,-0.0317 -2.85e-4,-0.0479 -4.55e-4,-0.0956 -1.71e-4,-0.14336 1.14e-4,-0.0168 0.01724,-0.0303 0.03368,-0.028 0.112178,2.8e-4 0.224357,0 0.336535,1.1e-4 0.0149,-5.1e-4 0.02941,0.013 0.02918,0.0282 3.41e-4,0.12145 -1.71e-4,0.24296 -5.7e-5,0.36447 0.0013,0.0154 -0.0081,0.031 -0.02298,0.0358 -0.136355,0.0418 -0.279821,0.0552 -0.421864,0.0525 -0.101541,-0.004 -0.205472,-0.0173 -0.297854,-0.0625 -0.04904,-0.0239 -0.0946,-0.0571 -0.127424,-0.1012 -0.05,-0.0662 -0.06963,-0.15052 -0.07014,-0.23227 -0.0023,-0.0836 0.01462,-0.16969 0.05956,-0.24114 0.03749,-0.0619 0.09415,-0.11064 0.15746,-0.14483 z"
         id="path6"
         inkscape:connector-curvature="0"
         style="opacity:1;fill:url(#linearGradient4795);fill-opacity:1;stroke:none;stroke-width:0.00568857" />
      <path
         d="m 60.782847,122.68176 c -6.25e-4,-0.0178 0.0161,-0.0336 0.03396,-0.0313 0.07401,5e-5 0.148017,1.7e-4 0.222025,-6e-5 0.01638,-0.002 0.03379,0.01 0.03607,0.0266 -7.97e-4,0.18329 -3.42e-4,0.36669 -6.83e-4,0.55003 0.130382,6e-5 0.260764,0 0.391089,6e-5 0.01968,-0.003 0.03811,0.0156 0.03561,0.0354 -10e-4,0.0587 0.0017,0.11758 -0.0017,0.17623 8.53e-4,0.0157 -0.012,0.0313 -0.02822,0.0308 -0.217986,0 -0.436029,-6e-5 -0.654015,5e-5 -0.0198,0.002 -0.03516,-0.0169 -0.03299,-0.0358 -0.0015,-0.25064 -0.0013,-0.50133 -0.0011,-0.75197 z"
         id="path8"
         inkscape:connector-curvature="0"
         style="opacity:1;fill:url(#linearGradient4797);fill-opacity:1;stroke-width:0.00568857" />
      <g
         style="fill:url(#linearGradient4803);fill-opacity:1"
         id="g4683">
        <path
           style="opacity:1;fill:url(#linearGradient4799);fill-opacity:1;stroke-width:0.00568857"
           inkscape:connector-curvature="0"
           id="path2"
           d="m 62.091787,122.37594 c 0.01832,-0.004 0.03737,-0.002 0.05609,-0.002 0.0512,5.1e-4 0.102565,-0.001 0.153762,6.8e-4 0.02133,0.001 0.03157,0.0302 0.01644,0.0449 -0.06274,0.0666 -0.12623,0.13248 -0.188804,0.19927 -0.01104,0.0123 -0.02833,0.0152 -0.04409,0.0145 -0.03976,-8.5e-4 -0.07958,9.7e-4 -0.11929,-8.5e-4 -0.02099,-4e-4 -0.03186,-0.0274 -0.01946,-0.0434 0.03937,-0.061 0.07896,-0.1218 0.118379,-0.18266 0.0074,-0.0111 0.01388,-0.0246 0.02696,-0.0299 z" />
        <path
           style="opacity:1;fill:url(#linearGradient4801);fill-opacity:1;stroke-width:0.00568857"
           inkscape:connector-curvature="0"
           id="path10"
           d="m 61.977276,122.67118 c 0.0065,-0.0122 0.01974,-0.0213 0.0339,-0.0205 0.05876,-6e-5 0.117583,-6e-5 0.176403,0 0.0161,-10e-4 0.031,0.008 0.03794,0.0226 0.133909,0.25093 0.268386,0.50168 0.401726,0.75294 0.01007,0.0177 -0.0027,0.0424 -0.02349,0.0429 -0.08186,7.9e-4 -0.163717,1.1e-4 -0.245576,3.4e-4 -0.01701,0.001 -0.03117,-0.0109 -0.03834,-0.0254 -0.01581,-0.031 -0.03328,-0.0612 -0.04761,-0.0929 -0.130837,-0.002 -0.261731,-2.8e-4 -0.392568,-9.7e-4 -0.01684,0.0315 -0.03299,0.0633 -0.04995,0.0947 -0.0075,0.015 -0.02293,0.0262 -0.04022,0.0246 -0.07196,-3.4e-4 -0.143978,4.6e-4 -0.215938,-3.9e-4 -0.02281,-7.4e-4 -0.03362,-0.0281 -0.02236,-0.0462 0.141646,-0.2508 0.284145,-0.5011 0.426074,-0.75174 m 0.0057,0.49491 c 0.06383,2.2e-4 0.127708,0 0.191534,1.1e-4 -0.02952,-0.0601 -0.06155,-0.11895 -0.09181,-0.17868 -0.03527,0.0583 -0.0669,0.11884 -0.09972,0.17857 z" />
      </g>
      <path
         d="m 63.66189,122.68244 c -0.0014,-0.0181 0.0157,-0.0338 0.0335,-0.032 0.202741,0 0.405425,0 0.608165,0 0.01741,-0.001 0.03214,0.0154 0.03186,0.0323 9.67e-4,0.0433 -2.27e-4,0.0866 3.42e-4,0.12993 -2.85e-4,0.0128 6.82e-4,0.0263 -0.0041,0.0385 -0.0068,0.0115 -0.0194,0.0184 -0.03265,0.0176 -0.115421,6.2e-4 -0.230899,-6.8e-4 -0.346263,6.8e-4 1.71e-4,0.0266 1.14e-4,0.0533 -5.7e-5,0.0799 0.100233,6.3e-4 0.200522,-3.9e-4 0.300755,5.2e-4 0.01746,4.5e-4 0.03157,0.0171 0.03066,0.0344 2.28e-4,0.049 1.14e-4,0.0981 -1.7e-4,0.14722 5.68e-4,0.017 -0.0128,0.0336 -0.03038,0.0338 -0.10029,6.9e-4 -0.200636,-7.4e-4 -0.300926,0.002 -5.7e-5,0.0283 3.42e-4,0.0567 -3.41e-4,0.0851 0.124921,10e-4 0.249899,2.3e-4 0.37482,5.7e-4 0.01826,-0.002 0.03743,0.013 0.0351,0.0324 -2.84e-4,0.0563 0.0015,0.11287 -0.0038,0.16895 -0.0063,0.008 -0.01451,0.0166 -0.02554,0.0153 -0.212525,0 -0.425106,0 -0.637631,0 -0.01684,10e-4 -0.03408,-0.0133 -0.03174,-0.0307 -9.1e-4,-0.25212 -0.0011,-0.50424 -0.0016,-0.7563 z"
         id="path12"
         inkscape:connector-curvature="0"
         style="opacity:1;fill:url(#linearGradient4805);fill-opacity:1;stroke-width:0.00568857" />
      <path
         d="m 64.407149,122.68222 c -9.67e-4,-0.0176 0.0157,-0.0334 0.03322,-0.0318 0.172592,-5e-5 0.345183,6e-5 0.517774,0 0.05694,-10e-4 0.114966,0.006 0.16787,0.0284 0.05046,0.021 0.09562,0.0578 0.121052,0.10677 0.02219,0.0434 0.02509,0.094 0.01826,0.14154 -0.0055,0.044 -0.02384,0.0881 -0.0578,0.11769 -0.02964,0.0251 -0.06491,0.0431 -0.101712,0.055 0.0388,0.0236 0.0768,0.0519 0.100233,0.0917 0.04556,0.0774 0.09159,0.15451 0.136867,0.23204 0.01343,0.0189 -0.0036,0.0477 -0.02645,0.046 -0.08726,-1.1e-4 -0.174582,-5e-5 -0.261845,-5e-5 -0.01519,6.2e-4 -0.0293,-0.008 -0.03595,-0.0217 -0.04323,-0.0787 -0.0855,-0.15797 -0.128277,-0.23693 -0.0085,-0.0144 -0.02213,-0.0284 -0.04005,-0.0279 -0.0483,-0.004 -0.09676,-5.6e-4 -0.145059,-0.002 -10e-4,0.084 -1.14e-4,0.1681 -9.1e-4,0.25212 5.69e-4,0.0172 -0.01166,0.0368 -0.03049,0.0362 -0.07782,0 -0.155639,0 -0.233459,5e-5 -0.01695,10e-4 -0.03373,-0.0135 -0.03168,-0.0309 -0.001,-0.25212 -0.0011,-0.50424 -0.0016,-0.75635 m 0.290402,0.30917 c 0.0471,0.002 0.09426,1.7e-4 0.141361,8.5e-4 0.03601,-7.9e-4 0.07367,-0.004 0.106148,-0.0208 0.03316,-0.0173 0.04084,-0.0638 0.0231,-0.0947 -0.01968,-0.0291 -0.05774,-0.0352 -0.09016,-0.0373 -0.05962,-0.002 -0.119289,5.1e-4 -0.178849,-0.001 -0.0027,0.0509 1.14e-4,0.10194 -0.0016,0.15291 z"
         id="path14"
         inkscape:connector-curvature="0"
         style="opacity:1;fill:url(#linearGradient4807);fill-opacity:1;stroke-width:0.00568857" />
    </g>
  </g>
</svg>
