<svg height="301.53pt" viewBox="0 0 851.9931 301.53" width="851.9931pt" xmlns="http://www.w3.org/2000/svg"><g fill="#bd0d0d" transform="translate(14.396573 -281.33)"><path d="m371.67 284.52 32.74-3.19c-10.87 15.54-23.15 30.12-36.75 43.33-2.42 1.9-4.38 4.95-7.66 5.27l-19.76 2.05c10.68-13.68 20.14-28.36 27.83-43.93.86-1.45 1.26528-3.21439 3.6-3.53z"/><path d="m382.25586 12.154297c-.23323.01272-.47122.04094-.71289.08594-25.74667 2.08-51.26659 6.319974-76.91992 9.306641l-17.47852 36.546875 25.66602-2.693359-87.62696 182.892576-44.83984 6.86719c11.2-23.10667 22.18714-46.30638 33.48047-69.37305 5.12-10.54667 10.34693-22.22622 7.93359-34.21289-.57333-4.04-3.84112-7.26667-7.81445-8-15.85333-3.29333-31.81362-6.16003-47.62695-9.69336-6.04956-1.30525-12.44683-1.88578-18.04883-4.5957-2.3018-1.12042-2.93285-1.92792-2.42969-4.22852.14104-.55744.3036-1.16135.44922-1.75195 2.19563-8.62102 6.87538-16.502049 11.57617-23.970703 3.55772-5.73796 9.7552-8.0186 16.17188-8.68164 6.04701-.59816 9.84438-.961061 8.67773 5.509765-.98832 6.174574-4.5947 11.738817-7.33008 17.343748l76.9336-9.558591c5.45333-11.76 10.89341-23.534063 16.08007-35.414063 3.56-8.88 6.38644-18.840651 3.75977-28.333984-.58667-2.64-2.9726-4.172552-5.58594-4.199219-6.61333-.346667-13.17403.839271-19.7207 1.585938-37.41333 5.026666-74.94563 9.12138-112.26563 14.748046-6.14666.88-12.78682.826719-18.16015 4.386719-7.76 4.946667-13.64024 12.266458-19.240236 19.453125-9.746667 12.506667-15.626302 27.359271-22.292969 41.585939-6.453333 13.69333-12.854349 27.41322-19.041016 41.22656-3.973333 8.52-8.612265 17.06789-9.572265 26.58789-1.12 8.32 5.946198 15.54627 13.519531 17.59961 14.96 4.05333 30.187318 6.90682 45.333985 10.16015 5.77333 1.26667 11.98581 1.67993 17.11914 4.91993 1.84 2.73333.0532 6.07856-.77344 8.86523-3.26666 8.18667-6.97291 16.46742-12.90625 23.10742-3.76 4.56-10.03919 5.26633-15.505857 5.98633-3.551901.0967-6.772633.0141-7.251953-4.07227-.205216-2.04831.805207-4.26166 3.011719-9.7207 2.417525-5.31233 4.050128-8.4796 6.412109-13.51367l-76.746094 9.48047c-.853333 1.8-1.73388 3.57338-2.560546 5.38672-30.360746 65.40856-20.3390644 67.99243 0 65.75976 197.946662-25.37333 395.920182-50.38557 593.853512-75.8789-6.64 14.72-13.74635 29.22583-20.67968 43.8125-3.24 6.17333-5.88003 13.22713-11.69336 17.48047-3.47302 1.50824-7.24019 2.13931-11.03321 2.26171-9.6167.2794-7.75701-2.21565-4.52734-9.48437l10.10742-21.57813-68.10547 8.84961-10.61523 21.24414c-4.36 9.68-9.63985 19.10594-11.83985 29.58594-.64 4.4-1.37255 9.29373.80079 13.40039 2.16 2.26667 5.38731 2.55948 8.33398 2.13282 35.4-4.36 70.73281-9.14553 106.13281-13.49219 6.18667-.93334 12.49388-1.19985 18.56055-2.83985 6.06667-1.65333 10.65273-6.20106 15.05273-10.42773 5.49334-5.73333 10.53256-12.01375 14.19922-19.09375 11.62667-23.17333 22.1336-46.94505 33.9336-70.01172 13.36-2.92 27.07961-4.24081 40.59961-6.49414 99.17333-14.02667 198.7875-24.70667 298.18753-37l17.2129-36.37305-36.87895 3.91211 30.34575-65.351557c2.0666-3.8 4.707-7.827917 9.0136-9.28125 5.354-1.71244 18.2075-4.675514 14.0137 4.755859l-13.3203 30.857418 68.4062-8.779293 25.6094-56.210937c1.5844-5.370508 2.3128-13.421615-3.5055-16.072933-1.1755-.628363-2.0712-.480821-3.3887-.323536l-56.0179 6.687484c-10.0128 1.279217-17.0479 8.102684-23.8496 15.298829l5.7187-13.158203c-31.3466 4.039999-62.69202 8.092213-94.02535 12.185546-2.22667.453334-4.80492.480157-5.98828 3.160157l-16.13281 34.173828 28.96093-3.320313-35.81445 74.947261-126.99023 16.27344c-1.71048.0567-2.87482-.30292-2.29493-1.82227l5.9336-16.71679 89.49804-11.98828c2.06667-.25334 4.2136-1.18698 4.9336-3.32032 8.10667-16.74666 16.14622-33.547312 24.21289-50.333978 17.56996-40.354827 18.40489-38.676815-22.93164-33.919922-32.81333 4.306667-65.69346 8.121042-98.4668 12.734375-4.4.56-8.70656 2.079505-12.22656 4.826172-12.69333 9.48-21.36089 23.280625-27.57422 37.640623-11.48 24.04-23.09406 48.01281-34.41406 72.13281-10.14667 1.58667-20.38492 2.54641-30.54492 4.06641 17.21333-37.46667 35.51916-74.42685 52.8125-111.853515-33.2 3.866667-66.3462 8.213307-99.51953 12.30664-13.6 1.813334-27.32112 2.893464-40.81446 5.466797-10.92 1.826667-18.82518 10.520365-25.47851 18.707028-5.61334 7.18667-9.86696 15.31961-13.62696 23.59961-11.56 24.05333-22.98687 48.18724-34.54687 72.25391l-33.91992 3.98632 36.71875-76.95898 14.91992-2.375c2.14666-.52 2.78771-2.79919 3.73437-4.50586l14.18555-30.240234-146.98633 18.933594c-7.36 1.22667-15.50661 1.25315-21.61328 6.14648-8.45333 6.64-15.72026 14.92099-20.93359 24.34766-6.01334 11.10667-10.99995 22.7324-16.61328 34.03906-8.41334 17-15.80019 34.5599-24.85352 51.22657l-46 6.05273 89.50781-187.919922c3.30667-7.253333 6.31974-15.238698 5.06641-23.332031-.4625-3.275-2.97622-6.59707-6.47461-6.40625zm470.18164 76.486328c-.33333 6.653333-3.51964 12.612525-6.29297 18.505855-7.89333.98667-15.76164 2.13336-23.68164 2.69336 2.90667-6.06666 5.5474-12.545699 10.41406-17.345699 5.53334-4.146667 13.01388-3.426849 19.56055-3.853516zm-188.86719 23.705075c-11.98666 24.90667-23.54669 50.02685-35.69336 74.85352l-16.26172 2.14258c-8.14454.55326-5.32724-2.22148-3.01757-7.9375l26.05273-55.11133c2.58667-4.64 5.39992-10.2525 10.91992-11.8125 5.88-1.44 11.96-1.81477 18-2.13477zm-195.10742 24.62696-35.79883 75.20117c-5.59458.79772-11.19685 1.6286-16.83398 2.01758-7.28916.49697-4.67889-2.93013-2.01953-8.80469 8.41333-17.78667 16.76065-35.60031 25.33398-53.32031 2.62667-5.02667 5.63998-10.79985 11.30664-12.83985z" stroke-width="1.333333" transform="matrix(.75 0 0 .75 -11.947839 281.33)"/><path d="m739.25 434.13-13.44 27.51-7.34114 1.13227-64.18886 98.78773-54.53 6.85 22.63-94.07-8.11.99-11.09 23.05-30.81 3.63 10.27-22.76-4.40585.67699-33.24887 69.78244 8.20472-1.14943-12.91943 27.03886-58.12057 7.26114c3.99-9.12 8.63-17.94 12.8-26.98l8.48-1.32 33.11472-69.91943-4.14472.55471-11.08 23.41472-33.07 3.89 23.58-49.74 156.97-20.08-17.61 68.62 26.02-43.92943-8.01 1.07943 13.21-27.24z"/></g></svg>