<?xml version="1.0" encoding="UTF-8" standalone="no"?>
<!-- Created with Inkscape (http://www.inkscape.org/) -->

<svg
   xmlns:dc="http://purl.org/dc/elements/1.1/"
   xmlns:cc="http://creativecommons.org/ns#"
   xmlns:rdf="http://www.w3.org/1999/02/22-rdf-syntax-ns#"
   xmlns:svg="http://www.w3.org/2000/svg"
   xmlns="http://www.w3.org/2000/svg"
   xmlns:sodipodi="http://sodipodi.sourceforge.net/DTD/sodipodi-0.dtd"
   xmlns:inkscape="http://www.inkscape.org/namespaces/inkscape"
   width="2.8958213mm"
   height="2.8837531mm"
   viewBox="0 0 2.8958213 2.8837531"
   version="1.1"
   id="svg88073"
   inkscape:version="0.92.0 r15299"
   sodipodi:docname="Slusnej Kanal TV.svg">
  <defs
     id="defs88067">
    <clipPath
       clipPathUnits="userSpaceOnUse"
       id="clipPath20106">
      <path
         d="m 303.172,476.113 h 8.242 v 8.186 h -8.242 z"
         id="path20104"
         inkscape:connector-curvature="0" />
    </clipPath>
  </defs>
  <sodipodi:namedview
     id="base"
     pagecolor="#ffffff"
     bordercolor="#666666"
     borderopacity="1.0"
     inkscape:pageopacity="0.0"
     inkscape:pageshadow="2"
     inkscape:zoom="44.8"
     inkscape:cx="5.0564742"
     inkscape:cy="5.1851939"
     inkscape:document-units="mm"
     inkscape:current-layer="layer1"
     showgrid="false"
     fit-margin-top="0"
     fit-margin-left="0"
     fit-margin-right="0"
     fit-margin-bottom="0"
     inkscape:window-width="1920"
     inkscape:window-height="1017"
     inkscape:window-x="-8"
     inkscape:window-y="-8"
     inkscape:window-maximized="1" />
  <metadata
     id="metadata88070">
    <rdf:RDF>
      <cc:Work
         rdf:about="">
        <dc:format>image/svg+xml</dc:format>
        <dc:type
           rdf:resource="http://purl.org/dc/dcmitype/StillImage" />
        <dc:title></dc:title>
      </cc:Work>
    </rdf:RDF>
  </metadata>
  <g
     inkscape:label="Layer 1"
     inkscape:groupmode="layer"
     id="layer1"
     transform="translate(-59.02828,-91.450984)">
    <g
       transform="matrix(0.35277777,0,0,-0.35277777,-47.93142,262.29896)"
       id="g20100">
      <g
         id="g20102"
         clip-path="url(#clipPath20106)">
        <g
           id="g20108"
           transform="translate(311.3749,480.2064)">
          <path
             d="m 0,0 c 0,-2.252 -1.826,-4.078 -4.078,-4.078 -2.252,0 -4.077,1.826 -4.077,4.078 0,2.252 1.825,4.078 4.077,4.078 C -1.826,4.078 0,2.252 0,0"
             style="fill:#ffffff;fill-opacity:1;fill-rule:evenodd;stroke:none"
             id="path20110"
             inkscape:connector-curvature="0" />
        </g>
        <g
           id="g20112"
           transform="translate(306.9651,484.1955)">
          <path
             d="m 0,0 c -0.84,-0.073 -1.486,-0.361 -2.017,-0.742 -0.39,-0.28 -0.721,-0.617 -0.989,-1.018 -0.269,-0.401 -0.482,-0.852 -0.599,-1.408 -0.059,-0.277 -0.096,-0.59 -0.083,-0.916 0.006,-0.165 0.015,-0.318 0.037,-0.465 0.107,-0.727 0.372,-1.299 0.724,-1.785 0.069,-0.096 0.144,-0.191 0.221,-0.28 0.078,-0.089 0.16,-0.177 0.245,-0.257 0.341,-0.322 0.736,-0.598 1.207,-0.8 0.231,-0.099 0.484,-0.182 0.765,-0.239 0.281,-0.056 0.589,-0.098 0.916,-0.083 0.082,0.004 0.16,0.007 0.236,0.013 0.234,0.019 0.444,0.055 0.647,0.106 0.533,0.132 0.986,0.357 1.371,0.636 0.391,0.284 0.715,0.616 0.989,1.018 0.271,0.399 0.483,0.856 0.599,1.408 0.058,0.278 0.094,0.586 0.083,0.916 -0.011,0.325 -0.051,0.614 -0.12,0.883 -0.07,0.267 -0.158,0.508 -0.266,0.739 C 3.86,-2.047 3.73,-1.84 3.591,-1.646 3.452,-1.453 3.294,-1.272 3.124,-1.109 2.786,-0.785 2.387,-0.51 1.918,-0.309 1.574,-0.162 1.169,-0.045 0.717,-0.004 0.563,0.01 0.401,0.02 0.236,0.012 0.155,0.009 0.077,0.007 0,0 M 0.238,0.095 C 0.407,0.103 0.573,0.094 0.73,0.079 1.5,0.003 2.111,-0.256 2.616,-0.595 2.72,-0.664 2.819,-0.734 2.913,-0.811 3.007,-0.887 3.095,-0.969 3.185,-1.051 3.273,-1.132 3.353,-1.224 3.433,-1.314 3.673,-1.584 3.878,-1.895 4.043,-2.241 4.21,-2.592 4.331,-2.972 4.397,-3.423 4.44,-3.711 4.449,-4.077 4.418,-4.389 4.372,-4.852 4.255,-5.256 4.103,-5.61 4.001,-5.849 3.875,-6.065 3.738,-6.27 3.601,-6.475 3.447,-6.665 3.28,-6.836 2.775,-7.352 2.141,-7.75 1.327,-7.955 1.121,-8.007 0.906,-8.044 0.668,-8.063 c -0.235,-0.019 -0.5,-0.018 -0.734,0.004 -0.462,0.044 -0.871,0.162 -1.224,0.313 -0.363,0.156 -0.672,0.348 -0.959,0.577 -0.282,0.224 -0.534,0.493 -0.749,0.787 -0.217,0.297 -0.396,0.629 -0.533,1.004 -0.114,0.313 -0.195,0.657 -0.228,1.053 -0.034,0.403 0,0.837 0.073,1.178 0.121,0.567 0.337,1.027 0.611,1.437 0.138,0.205 0.29,0.393 0.458,0.566 0.423,0.431 0.933,0.777 1.56,1.001 0.313,0.112 0.657,0.194 1.053,0.226 0.079,0.006 0.159,0.008 0.242,0.012"
             style="fill:#000000;fill-opacity:1;fill-rule:evenodd;stroke:none"
             id="path20114"
             inkscape:connector-curvature="0" />
        </g>
        <g
           id="g20116"
           transform="translate(310.9168,480.9425)">
          <path
             d="M 0,0 C -0.126,0.609 -0.379,1.098 -0.699,1.509 -0.827,1.674 -0.97,1.829 -1.124,1.97 -1.429,2.249 -1.781,2.484 -2.202,2.658 -2.511,2.785 -2.859,2.883 -3.261,2.923 -3.39,2.936 -3.547,2.951 -3.688,2.944 -3.759,2.941 -3.827,2.941 -3.894,2.934 -4.093,2.913 -4.278,2.885 -4.455,2.844 -5.159,2.682 -5.698,2.355 -6.151,1.938 -6.301,1.801 -6.437,1.648 -6.562,1.482 -6.934,0.988 -7.217,0.399 -7.296,-0.39 c -10e-4,-0.009 0.01,-0.009 0.015,-0.012 0.087,-0.065 0.169,-0.172 0.172,-0.32 0.003,-0.169 -0.074,-0.273 -0.172,-0.35 -0.007,-10e-4 -0.01,-0.005 -0.011,-0.006 -0.006,-0.006 -0.003,-0.002 -0.004,-0.011 -0.003,-0.023 0.006,-0.061 0.011,-0.097 0.012,-0.101 0.027,-0.199 0.045,-0.284 0.128,-0.605 0.371,-1.088 0.688,-1.499 0.129,-0.166 0.267,-0.318 0.417,-0.458 0.299,-0.281 0.653,-0.516 1.06,-0.691 0.409,-0.175 0.888,-0.296 1.455,-0.296 0.574,0 1.042,0.122 1.453,0.296 0.405,0.171 0.765,0.412 1.062,0.689 0.298,0.278 0.558,0.605 0.759,0.991 0.196,0.379 0.353,0.82 0.402,1.354 -0.001,0.007 -0.01,0.011 -0.015,0.014 -0.092,0.069 -0.172,0.173 -0.172,0.332 0,0.151 0.07,0.25 0.152,0.317 0.012,0.01 0.025,0.02 0.037,0.031 C 0.043,-0.261 0.026,-0.125 0,0 M 0.317,-0.574 C 0.316,-0.584 0.306,-0.573 0.299,-0.576 0.193,-0.566 0.109,-0.641 0.116,-0.749 0.122,-0.845 0.205,-0.914 0.317,-0.896 0.288,-1.499 0.144,-2.006 -0.068,-2.436 -0.282,-2.868 -0.55,-3.235 -0.879,-3.552 -1.205,-3.864 -1.581,-4.13 -2.03,-4.327 c -0.446,-0.196 -0.964,-0.334 -1.59,-0.334 -0.627,0 -1.144,0.14 -1.592,0.334 -0.111,0.048 -0.218,0.104 -0.322,0.162 -0.514,0.284 -0.94,0.666 -1.277,1.13 -0.067,0.093 -0.133,0.188 -0.193,0.288 -0.296,0.498 -0.518,1.09 -0.553,1.851 0.113,-0.019 0.201,0.053 0.201,0.16 0,0.104 -0.086,0.177 -0.201,0.158 0.024,0.589 0.171,1.08 0.369,1.505 0.198,0.423 0.461,0.789 0.773,1.101 0.311,0.311 0.674,0.572 1.099,0.775 0.211,0.1 0.437,0.188 0.684,0.253 0.248,0.065 0.518,0.113 0.809,0.126 0.083,0.004 0.167,0 0.249,0 0.082,0 0.163,0 0.24,-0.006 0.458,-0.035 0.85,-0.137 1.201,-0.28 0.467,-0.19 0.867,-0.453 1.204,-0.769 0.341,-0.319 0.624,-0.691 0.844,-1.13 0.22,-0.438 0.372,-0.953 0.402,-1.571"
             style="fill:#000000;fill-opacity:1;fill-rule:evenodd;stroke:none"
             id="path20118"
             inkscape:connector-curvature="0" />
        </g>
        <g
           id="g20120"
           transform="translate(310.666,480.2085)">
          <path
             d="M 0,0 C 0,0.161 0.066,0.28 0.147,0.363 0.161,0.377 0.183,0.39 0.182,0.402 0.182,0.429 0.175,0.468 0.17,0.502 0.166,0.532 0.161,0.564 0.155,0.593 0.082,1.012 -0.054,1.375 -0.224,1.688 -0.52,2.232 -0.934,2.671 -1.443,2.996 -1.786,3.214 -2.173,3.382 -2.641,3.481 -2.862,3.527 -3.15,3.564 -3.419,3.552 -3.488,3.548 -3.555,3.549 -3.62,3.545 -3.818,3.533 -3.992,3.506 -4.163,3.467 -4.839,3.312 -5.36,3.008 -5.799,2.608 -6.086,2.347 -6.328,2.034 -6.523,1.671 -6.706,1.328 -6.856,0.925 -6.914,0.454 -6.917,0.437 -6.922,0.417 -6.921,0.406 -6.92,0.395 -6.917,0.393 -6.908,0.384 -6.902,0.377 -6.895,0.37 -6.89,0.365 c 0.085,-0.085 0.152,-0.204 0.152,-0.367 0,-0.178 -0.076,-0.297 -0.168,-0.386 -0.013,-0.012 -0.015,-0.013 -0.013,-0.027 0.006,-0.031 0.007,-0.063 0.011,-0.093 0.029,-0.212 0.077,-0.41 0.139,-0.593 0.211,-0.63 0.54,-1.117 0.985,-1.526 0.288,-0.265 0.627,-0.487 1.02,-0.653 0.196,-0.083 0.406,-0.151 0.634,-0.201 0.115,-0.025 0.235,-0.046 0.361,-0.058 0.251,-0.024 0.553,-0.026 0.802,0 0.378,0.039 0.702,0.137 0.995,0.261 0.393,0.166 0.732,0.389 1.02,0.653 0.293,0.269 0.539,0.579 0.734,0.939 0.199,0.367 0.34,0.784 0.4,1.284 C 0.081,-0.305 0,-0.192 0,0 m -3.454,3.626 c 0.287,0.014 0.57,-0.019 0.806,-0.066 0.244,-0.049 0.464,-0.117 0.67,-0.201 0.41,-0.168 0.766,-0.4 1.068,-0.674 C -0.607,2.41 -0.348,2.081 -0.147,1.704 0.027,1.378 0.167,1.003 0.236,0.564 0.243,0.523 0.249,0.469 0.255,0.419 0.257,0.399 0.265,0.379 0.261,0.367 0.258,0.355 0.235,0.339 0.226,0.332 0.189,0.3 0.155,0.256 0.133,0.216 0.103,0.162 0.074,0.082 0.075,-0.004 0.075,-0.155 0.144,-0.266 0.228,-0.34 0.238,-0.348 0.259,-0.361 0.261,-0.375 0.263,-0.386 0.257,-0.409 0.255,-0.427 0.197,-0.925 0.05,-1.339 -0.141,-1.7 c -0.201,-0.381 -0.456,-0.696 -0.751,-0.97 -0.295,-0.276 -0.64,-0.501 -1.044,-0.676 -0.2,-0.087 -0.417,-0.156 -0.654,-0.208 -0.24,-0.052 -0.503,-0.083 -0.781,-0.078 -0.145,0.002 -0.282,0.004 -0.413,0.018 -0.384,0.042 -0.716,0.14 -1.02,0.27 -0.403,0.173 -0.743,0.399 -1.045,0.676 -0.293,0.268 -0.556,0.598 -0.75,0.97 -0.098,0.188 -0.181,0.38 -0.253,0.607 -0.064,0.201 -0.116,0.424 -0.143,0.666 -0.002,0.018 -0.006,0.038 -0.004,0.048 10e-4,0.011 0.004,0.012 0.014,0.02 0.017,0.016 0.041,0.037 0.054,0.052 0.065,0.074 0.118,0.173 0.118,0.301 0,0.151 -0.067,0.263 -0.153,0.338 -0.011,0.009 -0.031,0.021 -0.033,0.035 -0.002,0.01 0.002,0.031 0.004,0.05 0.042,0.366 0.135,0.684 0.253,0.968 0.165,0.399 0.39,0.745 0.659,1.041 0.336,0.369 0.743,0.671 1.234,0.891 0.196,0.089 0.407,0.159 0.636,0.214 0.228,0.054 0.474,0.093 0.755,0.093 0.001,0 0.003,0 0.004,0"
             style="fill:#000000;fill-opacity:1;fill-rule:evenodd;stroke:none"
             id="path20122"
             inkscape:connector-curvature="0" />
        </g>
        <g
           id="g20124"
           transform="translate(307.61,483.7041)">
          <path
             d="m 0,0 c 0.013,0 0.033,0.004 0.035,-0.01 0.002,-0.011 -0.03,-0.037 -0.033,-0.04 -0.029,-0.026 -0.049,-0.04 -0.077,-0.066 -0.019,-0.017 -0.027,-0.034 -0.056,-0.037 -0.023,-0.003 -0.056,-0.001 -0.087,-0.002 -0.036,-0.002 -0.077,-0.003 -0.097,0.004 -0.016,0.005 -0.03,0.019 -0.044,0.031 -0.029,0.023 -0.052,0.041 -0.083,0.066 -0.012,0.01 -0.035,0.027 -0.031,0.037 0.006,0.014 0.046,0.011 0.071,0.011 0.04,0 0.08,0.008 0.11,-0.004 0.012,-0.005 0.025,-0.018 0.037,-0.027 0.009,-0.007 0.022,-0.025 0.037,-0.025 0.012,0 0.03,0.018 0.04,0.027 0.012,0.011 0.024,0.024 0.035,0.029 C -0.109,0.007 -0.05,-0.001 0,0"
             style="fill:#000000;fill-opacity:1;fill-rule:evenodd;stroke:none"
             id="path20126"
             inkscape:connector-curvature="0" />
        </g>
        <g
           id="g20128"
           transform="translate(307.3777,483.5175)">
          <path
             d="M 0,0 C 0.058,0.004 0.164,0.006 0.23,-0.006 0.252,-0.01 0.276,-0.017 0.284,-0.029 0.299,-0.05 0.292,-0.104 0.29,-0.139 0.289,-0.175 0.296,-0.224 0.276,-0.243 0.264,-0.254 0.242,-0.255 0.207,-0.253 0.178,-0.251 0.139,-0.236 0.095,-0.232 0.049,-0.229 -0.004,-0.238 -0.006,-0.28 -0.009,-0.317 0.032,-0.344 0.054,-0.361 0.086,-0.385 0.112,-0.401 0.137,-0.419 0.221,-0.478 0.328,-0.538 0.338,-0.67 0.345,-0.767 0.316,-0.842 0.274,-0.889 0.173,-1.002 -0.1,-1.007 -0.286,-0.962 c -0.027,0.006 -0.055,0.013 -0.064,0.031 -0.01,0.019 -0.004,0.076 -0.004,0.108 0,0.036 -0.003,0.076 0.014,0.095 0.016,0.019 0.059,0.023 0.085,0.019 0.019,-0.003 0.039,-0.016 0.062,-0.023 0.052,-0.016 0.181,-0.034 0.193,0.027 0.009,0.046 -0.025,0.071 -0.052,0.091 -0.091,0.069 -0.205,0.123 -0.257,0.222 -0.052,0.1 -0.027,0.227 0.029,0.29 0.026,0.03 0.072,0.057 0.116,0.073 C -0.115,-0.011 -0.055,-0.004 0,0"
             style="fill:#000000;fill-opacity:1;fill-rule:evenodd;stroke:none"
             id="path20130"
             inkscape:connector-curvature="0" />
        </g>
        <g
           id="g20132"
           transform="translate(306.4904,483.4387)">
          <path
             d="M 0,0 C 0.007,0.001 0.02,0.002 0.029,-0.002 0.053,-0.011 0.068,-0.053 0.077,-0.077 0.09,-0.113 0.098,-0.137 0.108,-0.166 0.154,-0.295 0.191,-0.394 0.236,-0.52 0.257,-0.579 0.287,-0.641 0.292,-0.705 0.299,-0.787 0.271,-0.849 0.245,-0.885 0.182,-0.972 0.087,-1.018 -0.029,-1.059 -0.081,-1.078 -0.14,-1.1 -0.209,-1.103 c -0.104,-0.005 -0.184,0.024 -0.233,0.089 -0.038,0.052 -0.056,0.112 -0.078,0.174 -0.055,0.147 -0.114,0.306 -0.17,0.463 -0.011,0.027 -0.031,0.071 -0.023,0.101 0.005,0.021 0.028,0.032 0.052,0.042 0.044,0.017 0.091,0.031 0.136,0.047 0.017,0.007 0.049,0.022 0.075,0.013 0.024,-0.009 0.03,-0.039 0.044,-0.077 0.051,-0.145 0.105,-0.291 0.159,-0.439 0.008,-0.022 0.022,-0.058 0.033,-0.087 0.012,-0.03 0.029,-0.06 0.052,-0.067 0.057,-0.017 0.143,0.028 0.152,0.069 0.005,0.028 -0.011,0.064 -0.021,0.091 -0.059,0.163 -0.117,0.32 -0.178,0.489 -0.011,0.03 -0.026,0.059 -0.021,0.085 0.008,0.042 0.062,0.053 0.101,0.066 0.021,0.008 0.042,0.016 0.063,0.023 C -0.042,-0.012 -0.022,-0.002 0,0"
             style="fill:#000000;fill-opacity:1;fill-rule:evenodd;stroke:none"
             id="path20134"
             inkscape:connector-curvature="0" />
        </g>
        <g
           id="g20136"
           transform="translate(308.5471,482.7835)">
          <path
             d="M 0,0 C 0.011,-0.005 0.022,-0.01 0.033,-0.015 0.08,0.086 0.125,0.191 0.174,0.299 0.188,0.329 0.204,0.382 0.234,0.388 0.259,0.392 0.283,0.378 0.303,0.369 0.344,0.351 0.38,0.338 0.421,0.317 0.439,0.308 0.462,0.297 0.464,0.276 0.466,0.261 0.454,0.239 0.444,0.218 0.401,0.129 0.365,0.038 0.326,-0.052 0.31,-0.087 0.295,-0.125 0.278,-0.16 0.261,-0.192 0.241,-0.227 0.226,-0.263 0.195,-0.338 0.168,-0.408 0.135,-0.483 0.12,-0.517 0.101,-0.57 0.068,-0.576 0.04,-0.582 0.012,-0.567 -0.01,-0.558 c -0.046,0.02 -0.088,0.038 -0.133,0.058 -0.022,0.011 -0.047,0.022 -0.056,0.04 -0.013,0.025 -0.008,0.08 -0.006,0.12 0.005,0.123 0.005,0.241 0.01,0.363 -0.009,0.007 -0.023,0.01 -0.033,0.016 -0.05,-0.105 -0.09,-0.202 -0.137,-0.313 -0.012,-0.027 -0.033,-0.083 -0.06,-0.089 -0.023,-0.005 -0.05,0.008 -0.071,0.017 -0.04,0.016 -0.077,0.029 -0.12,0.052 -0.016,0.009 -0.039,0.026 -0.041,0.043 -0.004,0.027 0.026,0.082 0.039,0.112 0.092,0.21 0.183,0.419 0.276,0.632 0.013,0.031 0.032,0.082 0.052,0.098 0.034,0.028 0.083,0 0.116,-0.015 C -0.132,0.558 -0.095,0.541 -0.048,0.52 -0.024,0.51 -0.001,0.5 0.006,0.483 0.017,0.456 0.006,0.405 0.004,0.367 -0.001,0.248 -0.004,0.121 0,0"
             style="fill:#000000;fill-opacity:1;fill-rule:evenodd;stroke:none"
             id="path20138"
             inkscape:connector-curvature="0" />
        </g>
        <g
           id="g20140"
           transform="translate(305.2257,482.8084)">
          <path
             d="m 0,0 c 0.033,0.007 0.056,-0.034 0.075,-0.058 0.097,-0.128 0.183,-0.238 0.284,-0.363 0.016,-0.02 0.037,-0.044 0.06,-0.07 0.018,-0.022 0.041,-0.057 0.07,-0.058 0.033,-0.002 0.066,0.034 0.085,0.051 0.019,0.017 0.049,0.051 0.085,0.05 C 0.694,-0.449 0.712,-0.483 0.73,-0.506 0.751,-0.533 0.776,-0.551 0.777,-0.585 0.78,-0.636 0.731,-0.666 0.701,-0.688 0.628,-0.743 0.569,-0.789 0.498,-0.844 0.466,-0.868 0.429,-0.916 0.39,-0.914 c -0.038,0.001 -0.069,0.048 -0.091,0.076 -0.073,0.091 -0.15,0.195 -0.218,0.282 -0.085,0.11 -0.17,0.211 -0.257,0.326 -0.015,0.019 -0.028,0.036 -0.027,0.056 0.001,0.022 0.022,0.038 0.041,0.052 0.037,0.027 0.07,0.053 0.104,0.081 C -0.041,-0.027 -0.024,-0.005 0,0"
             style="fill:#000000;fill-opacity:1;fill-rule:evenodd;stroke:none"
             id="path20142"
             inkscape:connector-curvature="0" />
        </g>
        <g
           id="g20144"
           transform="translate(309.422,482.7524)">
          <path
             d="m 0,0 c 0.046,0.009 0.096,-0.053 0.126,-0.083 0.069,-0.065 0.14,-0.131 0.21,-0.201 0.022,-0.023 0.092,-0.07 0.091,-0.114 0,-0.031 -0.037,-0.057 -0.054,-0.075 -0.021,-0.023 -0.039,-0.057 -0.07,-0.058 -0.021,0 -0.047,0.019 -0.065,0.035 -0.035,0.034 -0.063,0.062 -0.099,0.098 -0.015,0.015 -0.035,0.04 -0.056,0.041 C 0.061,-0.356 0.045,-0.377 0.033,-0.39 0.019,-0.405 0,-0.417 0,-0.437 0,-0.457 0.023,-0.479 0.039,-0.493 0.076,-0.527 0.105,-0.548 0.139,-0.585 0.155,-0.602 0.174,-0.62 0.174,-0.643 0.175,-0.678 0.139,-0.701 0.12,-0.722 0.101,-0.743 0.07,-0.772 0.039,-0.771 c -0.046,0 -0.07,0.046 -0.101,0.079 -0.014,0.014 -0.028,0.028 -0.046,0.045 -0.014,0.014 -0.034,0.037 -0.052,0.037 -0.016,0.001 -0.023,-0.013 -0.033,-0.022 -0.01,-0.01 -0.019,-0.015 -0.029,-0.025 -0.015,-0.015 -0.047,-0.039 -0.048,-0.06 0,-0.021 0.026,-0.044 0.044,-0.06 0.043,-0.04 0.066,-0.06 0.106,-0.1 0.015,-0.015 0.041,-0.038 0.041,-0.06 0.001,-0.035 -0.037,-0.062 -0.056,-0.083 -0.015,-0.017 -0.048,-0.057 -0.081,-0.058 -0.027,-10e-4 -0.05,0.023 -0.068,0.039 -0.101,0.091 -0.171,0.178 -0.274,0.266 -0.021,0.018 -0.04,0.032 -0.058,0.049 -0.016,0.017 -0.038,0.048 -0.033,0.075 0.006,0.031 0.051,0.06 0.079,0.083 0.089,0.074 0.168,0.163 0.242,0.243 0.059,0.062 0.106,0.105 0.16,0.163 0.036,0.039 0.082,0.078 0.12,0.123 C -0.034,-0.022 -0.024,-0.005 0,0"
             style="fill:#000000;fill-opacity:1;fill-rule:evenodd;stroke:none"
             id="path20146"
             inkscape:connector-curvature="0" />
        </g>
        <g
           id="g20148"
           transform="translate(309.2063,481.0669)">
          <path
             d="M 0,0 C -0.162,0.347 -0.389,0.626 -0.692,0.84 -0.84,0.944 -1.008,1.035 -1.196,1.103 -1.384,1.171 -1.599,1.218 -1.839,1.225 -2.345,1.241 -2.737,1.089 -3.041,0.896 -3.357,0.695 -3.595,0.429 -3.773,0.097 c -0.029,0 -0.052,0.004 -0.081,0.003 0.174,0.351 0.426,0.63 0.746,0.843 0.232,0.155 0.52,0.28 0.863,0.332 0.232,0.035 0.507,0.034 0.732,-0.008 C -1.182,1.205 -0.908,1.079 -0.672,0.916 -0.376,0.713 -0.124,0.43 0.044,0.089 0.05,0.076 0.058,0.06 0.058,0.056 0.059,0.046 0.056,0.045 0.048,0.037 0.039,0.029 0.025,0.018 0.015,0.008 0.01,0.004 0.006,-0.007 0,0"
             style="fill:#000000;fill-opacity:1;fill-rule:evenodd;stroke:none"
             id="path20150"
             inkscape:connector-curvature="0" />
        </g>
        <g
           id="g20152"
           transform="translate(307.1331,482.0454)">
          <path
             d="M 0,0 C -0.001,-0.099 0.083,-0.172 0.178,-0.164 0.283,-0.155 0.366,-0.036 0.309,0.073 0.3,0.09 0.287,0.113 0.272,0.118 0.261,0.121 0.241,0.12 0.226,0.12 0.168,0.122 0.1,0.12 0.054,0.118 0.02,0.085 0,0.055 0,0 M 2.042,-1.012 C 2.032,-1.032 2.011,-1.047 1.994,-1.064 1.99,-1.068 1.986,-1.079 1.978,-1.076 1.85,-0.779 1.663,-0.536 1.433,-0.34 1.203,-0.145 0.917,0.003 0.57,0.079 0.567,0.061 0.573,0.045 0.574,0.027 0.582,-0.116 0.527,-0.221 0.454,-0.292 0.382,-0.363 0.266,-0.419 0.135,-0.408 c -0.13,0.01 -0.223,0.069 -0.29,0.149 -0.065,0.078 -0.11,0.195 -0.083,0.338 -0.317,-0.064 -0.575,-0.196 -0.792,-0.361 -0.219,-0.165 -0.397,-0.373 -0.535,-0.618 -0.029,0.004 -0.056,0.011 -0.087,0.013 0.248,0.454 0.618,0.791 1.134,0.974 0.132,0.047 0.268,0.082 0.427,0.102 0.053,0.006 0.112,0.012 0.168,0.014 C 0.34,0.216 0.576,0.173 0.78,0.11 0.984,0.047 1.161,-0.043 1.316,-0.147 1.476,-0.254 1.617,-0.383 1.735,-0.525 1.857,-0.669 1.959,-0.83 2.042,-1.012"
             style="fill:#000000;fill-opacity:1;fill-rule:evenodd;stroke:none"
             id="path20154"
             inkscape:connector-curvature="0" />
        </g>
        <g
           id="g20156"
           transform="translate(304.6369,482.2092)">
          <path
             d="M 0,0 C 0.035,0.006 0.074,-0.032 0.102,-0.05 0.129,-0.068 0.179,-0.088 0.182,-0.118 0.185,-0.141 0.166,-0.167 0.153,-0.182 0.123,-0.221 0.094,-0.24 0.068,-0.282 0.057,-0.301 0.043,-0.323 0.05,-0.35 c 0.013,-0.053 0.079,-0.03 0.124,-0.013 0.039,0.015 0.059,0.024 0.089,0.038 0.052,0.022 0.123,0.057 0.189,0.062 0.076,0.006 0.129,-0.022 0.172,-0.052 C 0.69,-0.362 0.753,-0.435 0.74,-0.554 0.735,-0.606 0.714,-0.657 0.695,-0.697 0.647,-0.793 0.579,-0.893 0.502,-0.97 0.485,-0.987 0.466,-1.007 0.446,-1.008 c -0.015,0 -0.033,0.011 -0.052,0.023 -0.016,0.01 -0.031,0.02 -0.046,0.029 -0.028,0.018 -0.074,0.041 -0.076,0.073 -0.002,0.018 0.008,0.041 0.016,0.054 0.022,0.037 0.065,0.053 0.096,0.087 0.012,0.014 0.025,0.034 0.037,0.054 0.012,0.019 0.027,0.041 0.025,0.066 C 0.443,-0.594 0.415,-0.579 0.402,-0.576 0.367,-0.568 0.325,-0.589 0.288,-0.605 0.253,-0.621 0.219,-0.638 0.187,-0.651 0.119,-0.679 0.022,-0.708 -0.066,-0.676 c -0.059,0.021 -0.123,0.072 -0.15,0.127 -0.053,0.108 -0.001,0.237 0.04,0.317 0.039,0.075 0.071,0.123 0.118,0.184 C -0.046,-0.032 -0.024,-0.004 0,0"
             style="fill:#000000;fill-opacity:1;fill-rule:evenodd;stroke:none"
             id="path20158"
             inkscape:connector-curvature="0" />
        </g>
        <g
           id="g20160"
           transform="translate(306.0177,481.3716)">
          <path
             d="M 0,0 C 0.051,-0.02 0.096,0.014 0.108,0.046 0.132,0.112 0.076,0.166 0.017,0.155 -0.067,0.141 -0.067,0.025 0,0 M 0.325,0.398 C 0.296,0.348 0.331,0.273 0.398,0.274 0.419,0.274 0.442,0.283 0.456,0.299 0.509,0.354 0.461,0.444 0.388,0.435 0.357,0.432 0.335,0.414 0.325,0.398 M 0.784,0.649 H 0.788 C 0.793,0.553 0.827,0.475 0.86,0.415 0.398,0.285 0.075,0.017 -0.145,-0.355 c -0.065,0.046 -0.136,0.084 -0.222,0.108 0.249,0.433 0.621,0.744 1.151,0.896"
             style="fill:#000000;fill-opacity:1;fill-rule:evenodd;stroke:none"
             id="path20162"
             inkscape:connector-curvature="0" />
        </g>
        <g
           id="g20164"
           transform="translate(310.1518,481.9211)">
          <path
             d="M 0,0 C 0.024,0 0.04,-0.026 0.054,-0.05 0.081,-0.096 0.104,-0.13 0.129,-0.174 0.139,-0.193 0.156,-0.225 0.151,-0.249 0.145,-0.28 0.088,-0.3 0.062,-0.313 c -0.1,-0.053 -0.194,-0.114 -0.288,-0.168 -0.066,-0.037 -0.128,-0.071 -0.195,-0.11 -0.028,-0.016 -0.062,-0.038 -0.097,-0.054 -0.054,-0.024 -0.123,-0.046 -0.181,-0.014 -0.063,0.035 -0.111,0.128 -0.147,0.201 -0.011,0.022 -0.032,0.058 -0.027,0.087 0.005,0.026 0.048,0.048 0.069,0.06 0.027,0.016 0.064,0.039 0.089,0.037 0.023,-0.002 0.031,-0.02 0.041,-0.035 0.01,-0.014 0.023,-0.035 0.04,-0.037 0.018,-0.002 0.06,0.023 0.085,0.037 0.156,0.088 0.304,0.176 0.462,0.268 C -0.062,-0.027 -0.033,0 0,0"
             style="fill:#000000;fill-opacity:1;fill-rule:evenodd;stroke:none"
             id="path20166"
             inkscape:connector-curvature="0" />
        </g>
        <g
           id="g20168"
           transform="translate(307.6514,481.7573)">
          <path
             d="M 0,0 C 0.394,-0.096 0.693,-0.299 0.908,-0.576 0.914,-0.584 0.923,-0.592 0.925,-0.603 0.897,-0.609 0.878,-0.623 0.856,-0.634 0.656,-0.375 0.39,-0.181 0.027,-0.085 0.014,-0.087 0.004,-0.104 -0.008,-0.114 -0.087,-0.182 -0.205,-0.24 -0.353,-0.24 c -0.171,0 -0.291,0.072 -0.381,0.157 -0.442,-0.122 -0.75,-0.378 -0.954,-0.738 -0.012,0 -0.019,0.017 -0.029,0.027 -0.01,0.01 -0.025,0.017 -0.027,0.027 0.164,0.285 0.395,0.502 0.695,0.649 0.05,0.024 0.103,0.047 0.157,0.066 0.055,0.019 0.113,0.031 0.173,0.05 0.002,0.001 0.006,0.003 0.008,0.002 0.012,-0.005 0.024,-0.02 0.035,-0.031 0.072,-0.072 0.176,-0.135 0.321,-0.135 0.162,0 0.266,0.073 0.355,0.166"
             style="fill:#000000;fill-opacity:1;fill-rule:evenodd;stroke:none"
             id="path20170"
             inkscape:connector-curvature="0" />
        </g>
        <g
           id="g20172"
           transform="translate(306.4924,480.7414)">
          <path
             d="m 0,0 c -0.157,-0.057 -0.273,-0.175 -0.334,-0.311 -0.023,-0.051 -0.039,-0.105 -0.047,-0.166 -0.029,-0.21 0.054,-0.374 0.153,-0.481 0.069,-0.075 0.16,-0.133 0.265,-0.164 0.12,-0.034 0.253,-0.029 0.369,0.015 0.143,0.054 0.267,0.174 0.33,0.315 0.022,0.05 0.041,0.11 0.046,0.17 0.016,0.214 -0.057,0.365 -0.154,0.471 C 0.535,-0.049 0.377,0.041 0.185,0.033 0.112,0.03 0.054,0.02 0,0 M 0.863,-0.222 C 0.956,-0.049 1.103,0.083 1.31,0.149 1.417,0.183 1.555,0.194 1.675,0.17 1.786,0.148 1.882,0.098 1.955,0.041 v -0.143 c 0,-0.015 0.004,-0.036 0,-0.045 -0.003,-0.008 -0.003,-0.005 -0.008,0 C 1.924,-0.128 1.895,-0.098 1.874,-0.083 1.785,-0.019 1.668,0.034 1.522,0.035 1.348,0.037 1.216,-0.04 1.126,-0.129 1.058,-0.195 0.998,-0.28 0.966,-0.39 0.956,-0.426 0.945,-0.468 0.943,-0.506 0.939,-0.655 0.971,-0.773 1.035,-0.871 c 0.059,-0.092 0.143,-0.168 0.242,-0.215 0.106,-0.05 0.238,-0.077 0.382,-0.04 0.12,0.031 0.211,0.09 0.292,0.166 0,0.003 0.006,0.007 0.004,0 v -0.143 c 0,-0.015 0.004,-0.034 0,-0.046 C 1.951,-1.162 1.912,-1.182 1.895,-1.192 1.788,-1.255 1.657,-1.299 1.484,-1.292 1.421,-1.289 1.36,-1.275 1.312,-1.261 1.102,-1.195 0.955,-1.062 0.865,-0.894 0.803,-1.005 0.728,-1.088 0.63,-1.157 0.534,-1.225 0.415,-1.277 0.265,-1.29 c -0.161,-0.013 -0.297,0.023 -0.412,0.081 -0.107,0.054 -0.202,0.137 -0.268,0.23 -0.071,0.101 -0.118,0.215 -0.13,0.367 -0.013,0.156 0.025,0.294 0.087,0.407 0.056,0.103 0.138,0.19 0.238,0.259 0.101,0.068 0.226,0.12 0.375,0.128 0.186,0.01 0.33,-0.043 0.442,-0.114 0.115,-0.072 0.203,-0.169 0.266,-0.29"
             style="fill:#000000;fill-opacity:1;fill-rule:evenodd;stroke:none"
             id="path20174"
             inkscape:connector-curvature="0" />
        </g>
        <g
           id="g20176"
           transform="translate(305.2672,480.7455)">
          <path
             d="M 0,0 V -0.506 C 0.215,-0.513 0.397,-0.474 0.411,-0.28 0.417,-0.187 0.392,-0.095 0.328,-0.05 0.253,0.004 0.134,0.006 0.002,0.006 0,0.006 0,0.003 0,0 M -0.17,0.153 C 0.03,0.154 0.215,0.163 0.352,0.108 0.486,0.054 0.572,-0.053 0.572,-0.238 0.573,-0.354 0.533,-0.45 0.473,-0.514 0.411,-0.58 0.328,-0.622 0.216,-0.632 0.231,-0.661 0.251,-0.687 0.27,-0.713 0.395,-0.891 0.53,-1.073 0.655,-1.254 0.659,-1.26 0.667,-1.265 0.666,-1.273 H 0.522 c -0.015,0 -0.034,-0.003 -0.045,0 -0.008,0.002 -0.021,0.022 -0.031,0.037 -0.128,0.187 -0.252,0.367 -0.382,0.554 -0.011,0.016 -0.02,0.032 -0.031,0.035 -0.011,0.003 -0.025,-0.002 -0.031,0 C -0.003,-0.851 0.001,-1.065 0,-1.273 c -0.057,10e-4 -0.119,-0.003 -0.172,0.002 v 1.418 c 0,0.003 0,0.006 0.002,0.006"
             style="fill:#000000;fill-opacity:1;fill-rule:evenodd;stroke:none"
             id="path20178"
             inkscape:connector-curvature="0" />
        </g>
        <g
           id="g20180"
           transform="translate(308.659,480.8989)">
          <path
             d="m 0,0 h 0.16 v -0.603 c 0.003,-0.008 0.007,0.003 0.008,0.004 0.048,0.043 0.095,0.095 0.143,0.143 0.139,0.139 0.278,0.278 0.421,0.421 0.012,0.012 0.03,0.032 0.039,0.035 0.025,0.007 0.075,0 0.104,0 h 0.104 c 0.008,0 0,-0.001 0,-0.004 -0.222,-0.22 -0.446,-0.438 -0.666,-0.659 0.2,-0.223 0.405,-0.446 0.608,-0.67 0.027,-0.031 0.059,-0.059 0.082,-0.093 H 0.844 c -0.018,0 -0.038,-0.004 -0.052,0 -0.014,0.003 -0.025,0.023 -0.039,0.039 -0.183,0.201 -0.375,0.414 -0.552,0.614 -0.013,-0.015 -0.036,-0.021 -0.041,-0.04 -0.006,-0.019 0,-0.049 0,-0.076 v -0.535 c -0.049,-0.004 -0.113,-0.004 -0.162,0 v 1.418 C -0.002,-0.003 -0.002,0 0,0"
             style="fill:#000000;fill-opacity:1;fill-rule:evenodd;stroke:none"
             id="path20182"
             inkscape:connector-curvature="0" />
        </g>
        <g
           id="g20184"
           transform="translate(307.5726,480.1982)">
          <path
             d="m 0,0 c -0.02,0.021 -0.038,0.042 -0.06,0.066 -0.008,0.009 -0.018,0.017 -0.019,0.023 -0.005,0.028 0.03,0.056 0.05,0.071 C 0.039,0.209 0.142,0.237 0.23,0.259 0.345,0.288 0.458,0.307 0.587,0.323 0.609,0.326 0.638,0.334 0.649,0.328 0.652,0.326 0.655,0.321 0.659,0.321 0.78,0.347 0.931,0.374 1.045,0.398 1.057,0.401 1.069,0.394 1.07,0.379 1.072,0.347 1.011,0.334 0.981,0.326 0.96,0.32 0.941,0.317 0.923,0.313 0.902,0.309 0.881,0.306 0.865,0.301 0.855,0.298 0.849,0.296 0.846,0.288 0.841,0.288 0.838,0.293 0.836,0.294 0.824,0.301 0.793,0.292 0.769,0.288 0.64,0.27 0.514,0.25 0.388,0.224 0.323,0.21 0.253,0.194 0.185,0.172 0.156,0.163 0.125,0.152 0.093,0.137 0.066,0.124 0.029,0.102 0.025,0.079 0.022,0.064 0.034,0.051 0.033,0.039 0.031,0.018 0.008,0.019 0,0"
             style="fill:#000000;fill-opacity:1;fill-rule:evenodd;stroke:none"
             id="path20186"
             inkscape:connector-curvature="0" />
        </g>
        <g
           id="g20188"
           transform="translate(310.0771,480.3951)">
          <path
             d="m 0,0 c 0.038,0.006 0.074,-0.007 0.093,-0.023 0.038,-0.032 0.06,-0.102 0.025,-0.155 -0.039,-0.06 -0.137,-0.072 -0.189,-0.015 -0.018,0.02 -0.028,0.05 -0.029,0.075 -0.001,0.035 0.014,0.062 0.023,0.074 C -0.06,-0.022 -0.035,-0.005 0,0"
             style="fill:#000000;fill-opacity:1;fill-rule:evenodd;stroke:none"
             id="path20190"
             inkscape:connector-curvature="0" />
        </g>
        <g
           id="g20192"
           transform="translate(304.4109,480.3868)">
          <path
             d="M 0,0 C 0.074,0.01 0.138,-0.043 0.135,-0.12 0.132,-0.192 0.071,-0.231 0.021,-0.232 -0.073,-0.235 -0.132,-0.129 -0.083,-0.052 -0.068,-0.028 -0.041,-0.006 0,0"
             style="fill:#000000;fill-opacity:1;fill-rule:evenodd;stroke:none"
             id="path20194"
             inkscape:connector-curvature="0" />
        </g>
        <g
           id="g20196"
           transform="translate(307.9417,480.3619)">
          <path
             d="M 0,0 C 0.004,0.001 0.031,0.006 0.043,0.002 0.058,-0.002 0.09,-0.034 0.091,-0.052 0.092,-0.063 0.082,-0.079 0.075,-0.097 0.045,-0.174 0.017,-0.246 -0.01,-0.321 c -0.012,-0.033 -0.026,-0.066 -0.029,-0.094 -0.003,-0.021 -0.004,-0.043 0,-0.062 0.004,-0.022 0.029,-0.026 0.024,-0.058 -0.002,-0.014 -0.03,-0.041 -0.049,-0.041 -0.019,-0.001 -0.053,0.032 -0.062,0.047 -0.011,0.018 -0.017,0.043 -0.015,0.065 10e-4,0.014 0.009,0.03 0.015,0.047 0.028,0.092 0.062,0.188 0.091,0.282 0.005,0.017 0.014,0.037 0.014,0.048 0.001,0.011 -0.008,0.021 -0.008,0.033 0,0.015 0.013,0.052 0.029,0.054"
             style="fill:#000000;fill-opacity:1;fill-rule:evenodd;stroke:none"
             id="path20198"
             inkscape:connector-curvature="0" />
        </g>
        <g
           id="g20200"
           transform="translate(308.3916,480.308)">
          <path
             d="m 0,0 c 0.002,0 0.001,-0.002 0,-0.002 -0.028,-0.092 -0.066,-0.192 -0.116,-0.29 -0.032,-0.063 -0.076,-0.124 -0.129,-0.177 -0.016,-0.016 -0.037,-0.039 -0.056,-0.043 -0.036,-0.008 -0.084,0.012 -0.089,0.039 -0.004,0.023 0.007,0.054 0.011,0.081 0.01,0.081 0.016,0.163 0.022,0.247 0.007,-0.001 0.01,0.001 0.017,0 0.003,-0.001 0.009,-0.006 0.01,-0.006 0.006,0 0.009,0.008 0.021,0.006 0.014,-0.003 0.019,-0.016 0.031,-0.027 -0.008,-0.078 -0.014,-0.157 -0.021,-0.236 0.008,-0.001 0.015,0.008 0.019,0.012 0.04,0.039 0.074,0.091 0.104,0.143 0.034,0.06 0.064,0.126 0.085,0.197 0.011,0.012 0.027,0.018 0.041,0.027 0.017,0.01 0.033,0.02 0.05,0.029"
             style="fill:#000000;fill-opacity:1;fill-rule:evenodd;stroke:none"
             id="path20202"
             inkscape:connector-curvature="0" />
        </g>
        <g
           id="g20204"
           transform="translate(307.413,478.4835)">
          <path
             d="m 0,0 c -0.03,0.029 -0.08,0.051 -0.135,0.046 -0.08,-0.009 -0.148,-0.081 -0.145,-0.168 0.001,-0.023 0.008,-0.052 0.017,-0.069 0.005,-0.011 0.026,-0.041 0.039,-0.045 0.013,-0.004 0.035,-0.002 0.052,-0.002 0.058,-0.002 0.113,0 0.166,0.002 C 0.064,-0.187 0.061,-0.059 0,0 m -1.949,0.8 c -0.002,0.012 0.012,0.018 0.019,0.027 0.007,0.01 0.012,0.022 0.018,0.031 0.013,-0.014 0.021,-0.029 0.034,-0.043 0.011,-0.014 0.027,-0.025 0.037,-0.04 0.021,-0.03 0.038,-0.064 0.058,-0.095 0.118,-0.186 0.26,-0.347 0.431,-0.485 0.225,-0.182 0.496,-0.319 0.832,-0.392 -0.024,0.142 0.019,0.259 0.085,0.338 0.066,0.08 0.158,0.139 0.288,0.149 C -0.013,0.301 0.097,0.246 0.172,0.174 0.255,0.095 0.315,-0.035 0.288,-0.197 0.64,-0.122 0.921,0.029 1.151,0.22 1.353,0.388 1.516,0.599 1.644,0.844 1.662,0.879 1.676,0.916 1.696,0.952 1.697,0.954 1.696,0.96 1.7,0.956 1.709,0.945 1.72,0.936 1.731,0.923 1.74,0.913 1.758,0.898 1.758,0.885 1.758,0.878 1.733,0.833 1.727,0.821 1.572,0.507 1.346,0.252 1.076,0.058 0.93,-0.047 0.767,-0.135 0.58,-0.201 0.394,-0.267 0.184,-0.315 -0.054,-0.321 -0.548,-0.335 -0.934,-0.187 -1.234,0.008 -1.542,0.209 -1.779,0.47 -1.949,0.8"
             style="fill:#000000;fill-opacity:1;fill-rule:evenodd;stroke:none"
             id="path20206"
             inkscape:connector-curvature="0" />
        </g>
        <g
           id="g20208"
           transform="translate(305.3625,479.2196)">
          <path
             d="m 0,0 c 0.009,0.009 0.022,0.012 0.033,0.019 0.011,0.006 0.022,0.014 0.033,0.018 0.177,-0.336 0.416,-0.601 0.728,-0.804 0.31,-0.201 0.697,-0.339 1.196,-0.334 0.242,0.003 0.458,0.053 0.647,0.12 0.376,0.133 0.673,0.352 0.904,0.627 0.088,0.104 0.166,0.214 0.234,0.34 0.023,0.04 0.04,0.085 0.065,0.126 0.001,0.002 0,0.009 0.004,0.004 C 3.853,0.107 3.861,0.096 3.871,0.085 3.879,0.075 3.894,0.067 3.894,0.054 3.724,-0.299 3.478,-0.581 3.168,-0.796 3.013,-0.904 2.837,-0.993 2.643,-1.059 2.544,-1.093 2.441,-1.12 2.33,-1.14 2.114,-1.18 1.838,-1.188 1.605,-1.153 1.268,-1.102 0.982,-0.98 0.748,-0.827 0.428,-0.617 0.181,-0.343 0,0"
             style="fill:#000000;fill-opacity:1;fill-rule:evenodd;stroke:none"
             id="path20210"
             inkscape:connector-curvature="0" />
        </g>
        <g
           id="g20212"
           transform="translate(306.1027,479.2631)">
          <path
             d="m 0,0 c 0.203,-0.243 0.459,-0.432 0.813,-0.525 0.013,0.003 0.023,0.019 0.035,0.03 0.078,0.068 0.196,0.126 0.344,0.126 0.171,0 0.292,-0.072 0.382,-0.158 C 1.925,-0.431 2.187,-0.247 2.386,0 2.408,-0.011 2.424,-0.029 2.451,-0.035 2.449,-0.045 2.44,-0.054 2.434,-0.062 2.278,-0.255 2.075,-0.411 1.829,-0.518 1.758,-0.549 1.675,-0.576 1.586,-0.599 1.572,-0.603 1.556,-0.61 1.551,-0.61 1.542,-0.608 1.526,-0.589 1.516,-0.578 1.441,-0.504 1.344,-0.444 1.194,-0.444 1.03,-0.444 0.927,-0.519 0.84,-0.61 0.457,-0.518 0.169,-0.322 -0.046,-0.06 -0.051,-0.053 -0.062,-0.046 -0.062,-0.035 -0.037,-0.028 -0.02,-0.013 0,0"
             style="fill:#000000;fill-opacity:1;fill-rule:evenodd;stroke:none"
             id="path20214"
             inkscape:connector-curvature="0" />
        </g>
        <g
           id="g20216"
           transform="translate(308.12,478.7407)">
          <path
             d="M 0,0 C -0.01,-0.01 -0.023,-0.03 -0.023,-0.058 -0.022,-0.149 0.103,-0.163 0.135,-0.091 0.161,-0.032 0.111,0.029 0.052,0.023 0.027,0.02 0.012,0.012 0,0 M 0.348,0.253 C 0.334,0.214 0.355,0.172 0.373,0.158 0.44,0.106 0.529,0.179 0.502,0.253 0.495,0.271 0.483,0.28 0.483,0.28 0.467,0.296 0.441,0.307 0.408,0.301 0.369,0.293 0.353,0.265 0.348,0.253 m 0.434,0.226 c 0.001,0 0.002,-0.001 0.002,-0.002 -0.253,-0.395 -0.609,-0.686 -1.116,-0.827 -0.006,0.096 -0.035,0.169 -0.072,0.234 0.385,0.105 0.668,0.313 0.885,0.587 C 0.54,0.464 0.636,0.46 0.711,0.464 0.738,0.466 0.763,0.472 0.782,0.479"
             style="fill:#000000;fill-opacity:1;fill-rule:evenodd;stroke:none"
             id="path20218"
             inkscape:connector-curvature="0" />
        </g>
        <g
           id="g20220"
           transform="translate(306.339,478.7178)">
          <path
             d="m 0,0 c -0.026,-0.059 0.022,-0.117 0.077,-0.116 0.037,0.001 0.081,0.029 0.081,0.083 C 0.157,0.017 0.114,0.05 0.068,0.046 0.029,0.042 0.008,0.017 0,0 M -0.367,0.276 C -0.381,0.237 -0.366,0.204 -0.348,0.187 -0.305,0.143 -0.231,0.168 -0.214,0.214 -0.2,0.25 -0.22,0.29 -0.232,0.303 -0.247,0.318 -0.273,0.33 -0.307,0.323 -0.343,0.317 -0.362,0.289 -0.367,0.276 m 0.019,0.217 C -0.317,0.463 -0.293,0.426 -0.263,0.394 -0.061,0.171 0.203,0 0.539,-0.093 0.502,-0.159 0.472,-0.231 0.466,-0.328 -0.036,-0.187 -0.392,0.1 -0.643,0.491 c 0.09,-0.006 0.209,-0.008 0.295,0.002"
             style="fill:#000000;fill-opacity:1;fill-rule:evenodd;stroke:none"
             id="path20222"
             inkscape:connector-curvature="0" />
        </g>
        <g
           id="g20224"
           transform="translate(309.9071,479.1823)">
          <path
             d="M 0,0 C 0.065,0.01 0.126,-0.034 0.135,-0.093 0.146,-0.171 0.085,-0.231 0.021,-0.232 -0.058,-0.234 -0.132,-0.148 -0.087,-0.06 -0.078,-0.042 -0.047,-0.007 0,0"
             style="fill:#000000;fill-opacity:1;fill-rule:evenodd;stroke:none"
             id="path20226"
             inkscape:connector-curvature="0" />
        </g>
        <g
           id="g20228"
           transform="translate(304.6223,479.0869)">
          <path
             d="M 0,0 C 0.077,0.012 0.143,-0.042 0.139,-0.12 0.136,-0.171 0.101,-0.216 0.052,-0.228 c -0.086,-0.021 -0.161,0.05 -0.147,0.137 0.003,0.024 0.012,0.035 0.016,0.041 C -0.063,-0.026 -0.033,-0.005 0,0"
             style="fill:#000000;fill-opacity:1;fill-rule:evenodd;stroke:none"
             id="path20230"
             inkscape:connector-curvature="0" />
        </g>
        <g
           id="g20232"
           transform="translate(305.5968,478.0668)">
          <path
             d="M 0,0 C 0.007,-0.004 0.014,-0.008 0.019,-0.015 0.102,0.038 0.183,0.098 0.272,0.153 0.285,0.162 0.299,0.171 0.311,0.172 0.339,0.174 0.363,0.151 0.384,0.137 0.425,0.107 0.46,0.079 0.506,0.046 0.52,0.035 0.558,0.013 0.558,-0.008 0.557,-0.025 0.538,-0.035 0.518,-0.044 0.422,-0.085 0.349,-0.115 0.257,-0.155 0.228,-0.168 0.173,-0.185 0.158,-0.205 0.148,-0.218 0.143,-0.252 0.137,-0.276 0.105,-0.404 0.083,-0.511 0.056,-0.645 0.05,-0.673 0.034,-0.771 0.01,-0.78 c -0.023,-0.008 -0.061,0.024 -0.072,0.034 -0.045,0.035 -0.08,0.057 -0.125,0.091 -0.018,0.014 -0.049,0.032 -0.054,0.054 -0.003,0.018 0.005,0.041 0.011,0.06 0.033,0.105 0.068,0.203 0.101,0.309 0.003,0.007 0.009,0.019 0.009,0.027 -0.001,0.009 -0.006,0.008 -0.013,0.016 -0.014,-0.006 -0.023,-0.024 -0.033,-0.037 -0.047,-0.065 -0.097,-0.128 -0.147,-0.197 -0.017,-0.023 -0.038,-0.066 -0.066,-0.07 -0.023,-0.004 -0.05,0.015 -0.067,0.027 -0.038,0.027 -0.065,0.047 -0.106,0.078 -0.017,0.014 -0.039,0.03 -0.041,0.05 -0.004,0.034 0.037,0.079 0.058,0.106 0.143,0.184 0.282,0.378 0.419,0.564 0.014,0.019 0.057,0.096 0.085,0.091 C 0.02,0.413 0.047,0.382 0.087,0.352 0.102,0.341 0.122,0.328 0.141,0.313 0.16,0.299 0.182,0.284 0.185,0.263 0.188,0.232 0.162,0.212 0.145,0.191 0.109,0.144 0.082,0.108 0.048,0.064 0.031,0.043 0.013,0.024 0,0"
             style="fill:#000000;fill-opacity:1;fill-rule:evenodd;stroke:none"
             id="path20234"
             inkscape:connector-curvature="0" />
        </g>
        <g
           id="g20236"
           transform="translate(308.9119,478.4255)">
          <path
             d="m 0,0 c 0.028,0.003 0.056,-0.037 0.075,-0.06 0.1,-0.122 0.196,-0.225 0.3,-0.344 0.018,-0.021 0.037,-0.044 0.06,-0.069 0.02,-0.019 0.05,-0.053 0.075,-0.054 0.032,0 0.066,0.039 0.083,0.056 0.025,0.025 0.051,0.055 0.083,0.054 0.034,0 0.053,-0.033 0.072,-0.056 C 0.77,-0.497 0.797,-0.514 0.8,-0.547 0.805,-0.598 0.759,-0.629 0.728,-0.655 0.657,-0.715 0.602,-0.761 0.533,-0.821 0.505,-0.845 0.467,-0.897 0.429,-0.898 c -0.039,0 -0.071,0.049 -0.093,0.075 -0.159,0.181 -0.308,0.357 -0.469,0.539 -0.01,0.012 -0.026,0.03 -0.039,0.046 -0.014,0.017 -0.03,0.033 -0.029,0.053 0,0.025 0.024,0.04 0.041,0.054 0.038,0.031 0.069,0.059 0.102,0.09 C -0.043,-0.028 -0.024,-0.003 0,0"
             style="fill:#000000;fill-opacity:1;fill-rule:evenodd;stroke:none"
             id="path20238"
             inkscape:connector-curvature="0" />
        </g>
        <g
           id="g20240"
           transform="translate(308.3377,478.2286)">
          <path
             d="m 0,0 c 0.026,0.005 0.031,-0.019 0.05,-0.048 0.015,-0.024 0.035,-0.041 0.033,-0.06 -0.003,-0.023 -0.05,-0.034 -0.071,-0.043 -0.07,-0.032 -0.123,-0.059 -0.194,-0.092 -0.014,-0.006 -0.033,-0.015 -0.042,-0.014 -0.015,0.001 -0.03,0.021 -0.029,0.041 0.001,0.025 0.029,0.039 0.056,0.06 0.064,0.052 0.132,0.107 0.191,0.156 0.001,0.001 0.005,0 0.006,0"
             style="fill:#000000;fill-opacity:1;fill-rule:evenodd;stroke:none"
             id="path20242"
             inkscape:connector-curvature="0" />
        </g>
        <g
           id="g20244"
           transform="translate(308.5201,477.4573)">
          <path
             d="M 0,0 C 0.021,0.009 0.049,0.019 0.052,0.041 0.055,0.065 0.027,0.097 0.012,0.118 -0.036,0.186 -0.092,0.261 -0.135,0.319 -0.135,0.324 -0.14,0.317 -0.143,0.317 -0.151,0.306 -0.142,0.292 -0.139,0.28 -0.129,0.236 -0.121,0.195 -0.112,0.153 -0.099,0.098 -0.088,0.041 -0.073,-0.01 -0.049,-0.02 -0.022,-0.01 0,0 M -0.104,0.593 C -0.071,0.598 -0.056,0.583 -0.033,0.558 0.008,0.512 0.045,0.464 0.083,0.419 0.141,0.349 0.183,0.31 0.236,0.234 0.303,0.14 0.375,0.037 0.458,-0.054 0.485,-0.083 0.526,-0.119 0.525,-0.156 0.523,-0.206 0.451,-0.225 0.411,-0.243 0.386,-0.254 0.37,-0.262 0.342,-0.274 0.317,-0.284 0.291,-0.297 0.263,-0.29 0.211,-0.277 0.213,-0.191 0.16,-0.18 0.128,-0.174 0.099,-0.19 0.071,-0.205 0.046,-0.219 0.016,-0.237 0.015,-0.261 0.012,-0.296 0.057,-0.327 0.048,-0.373 c -0.01,-0.044 -0.092,-0.066 -0.131,-0.083 -0.019,-0.009 -0.05,-0.023 -0.075,-0.033 -0.021,-0.01 -0.056,-0.027 -0.08,-0.017 -0.026,0.011 -0.028,0.057 -0.034,0.108 -0.004,0.045 -0.01,0.091 -0.014,0.126 -0.006,0.047 -0.009,0.09 -0.019,0.123 -0.011,0.038 -0.018,0.073 -0.025,0.116 -0.018,0.125 -0.037,0.238 -0.06,0.363 -0.006,0.034 -0.019,0.093 -0.008,0.122 0.008,0.02 0.034,0.034 0.062,0.046 0.027,0.011 0.055,0.021 0.077,0.031 0.058,0.025 0.095,0.045 0.149,0.064 0.002,0.001 0.004,0 0.006,0"
             style="fill:#000000;fill-opacity:1;fill-rule:evenodd;stroke:none"
             id="path20246"
             inkscape:connector-curvature="0" />
        </g>
        <g
           id="g20248"
           transform="translate(306.3722,477.4843)">
          <path
             d="m 0,0 c -0.008,-0.014 -0.039,-0.058 -0.037,-0.073 0.001,-0.019 0.032,-0.03 0.052,-0.037 0.024,-0.009 0.052,-0.022 0.074,-0.008 0.016,0.01 0.016,0.046 0.019,0.077 0.008,0.083 0.017,0.161 0.023,0.24 0,0.005 0.007,0.016 -0.002,0.019 C 0.128,0.221 0.124,0.22 0.12,0.22 0.081,0.158 0.039,0.071 0,0 M 0.031,0.491 C 0.059,0.497 0.1,0.48 0.124,0.473 0.173,0.458 0.233,0.439 0.288,0.421 0.311,0.414 0.35,0.402 0.359,0.384 0.37,0.36 0.365,0.306 0.365,0.263 0.365,0.142 0.366,0.013 0.355,-0.102 0.343,-0.219 0.33,-0.322 0.336,-0.456 0.338,-0.502 0.337,-0.562 0.313,-0.578 0.271,-0.607 0.194,-0.57 0.156,-0.558 0.13,-0.55 0.103,-0.543 0.079,-0.535 c -0.023,0.008 -0.048,0.021 -0.054,0.046 -0.007,0.029 0.022,0.079 0.006,0.124 -0.01,0.027 -0.036,0.036 -0.07,0.046 -0.03,0.008 -0.074,0.018 -0.096,0.002 -0.015,-0.012 -0.019,-0.047 -0.025,-0.065 -0.007,-0.021 -0.016,-0.045 -0.035,-0.051 -0.028,-0.01 -0.066,0.006 -0.085,0.012 -0.054,0.017 -0.098,0.028 -0.155,0.048 -0.023,0.008 -0.055,0.018 -0.058,0.041 -0.004,0.024 0.024,0.056 0.039,0.077 0.039,0.055 0.058,0.086 0.093,0.137 0.015,0.021 0.034,0.047 0.046,0.068 0.014,0.025 0.022,0.053 0.035,0.077 0.013,0.023 0.03,0.044 0.044,0.066 0.072,0.114 0.134,0.222 0.209,0.34 0.015,0.024 0.031,0.052 0.058,0.058"
             style="fill:#000000;fill-opacity:1;fill-rule:evenodd;stroke:none"
             id="path20250"
             inkscape:connector-curvature="0" />
        </g>
        <g
           id="g20252"
           transform="translate(307.3611,477.308)">
          <path
             d="m 0,0 c -0.012,-0.001 -0.026,0.002 -0.035,-0.002 0.004,-0.105 0.01,-0.217 0.016,-0.334 0.002,-0.035 0.01,-0.081 -0.004,-0.104 -0.015,-0.023 -0.07,-0.026 -0.118,-0.029 -0.042,-0.002 -0.111,-0.011 -0.137,0.007 -0.022,0.014 -0.021,0.061 -0.023,0.103 -0.011,0.238 -0.029,0.475 -0.041,0.716 -0.002,0.04 -0.007,0.091 0.006,0.114 0.02,0.035 0.085,0.032 0.137,0.035 0.026,0.001 0.054,0.002 0.083,0.004 0.025,0.002 0.058,0.007 0.079,-0.002 C -0.011,0.497 0.01,0.428 0.023,0.4 0.073,0.287 0.116,0.196 0.172,0.091 0.177,0.083 0.181,0.073 0.189,0.066 0.202,0.065 0.21,0.069 0.222,0.068 0.219,0.17 0.213,0.288 0.207,0.404 0.206,0.44 0.2,0.49 0.214,0.51 0.235,0.541 0.337,0.535 0.39,0.537 0.419,0.538 0.456,0.542 0.473,0.525 0.487,0.509 0.486,0.45 0.487,0.417 0.493,0.29 0.503,0.189 0.506,0.058 0.507,0.015 0.505,-0.025 0.508,-0.066 0.514,-0.145 0.519,-0.215 0.525,-0.301 0.527,-0.341 0.529,-0.391 0.514,-0.41 0.493,-0.439 0.425,-0.437 0.379,-0.44 0.355,-0.441 0.33,-0.442 0.303,-0.444 0.276,-0.445 0.244,-0.447 0.226,-0.44 0.197,-0.428 0.174,-0.368 0.16,-0.338 0.105,-0.222 0.055,-0.11 0,0"
             style="fill:#000000;fill-opacity:1;fill-rule:evenodd;stroke:none"
             id="path20254"
             inkscape:connector-curvature="0" />
        </g>
        <g
           id="g20256"
           transform="translate(308.4683,481.4172)">
          <path
             d="M 0,0 C 0.025,-0.068 0.129,-0.066 0.153,0 0.178,0.067 0.121,0.12 0.062,0.11 0.011,0.101 -0.019,0.051 0,0 m -0.346,0.251 c 0.06,-0.057 0.175,0.008 0.13,0.097 C -0.228,0.372 -0.261,0.394 -0.299,0.39 -0.365,0.382 -0.397,0.299 -0.346,0.251 m -0.407,0.118 c 0.037,0.066 0.067,0.138 0.073,0.234 0.528,-0.146 0.892,-0.456 1.146,-0.877 0,-0.003 -0.001,0.001 -0.004,0 -0.067,0.03 -0.163,0.029 -0.265,0.025 -0.014,0 -0.029,-0.005 -0.037,-0.002 -0.012,0.004 -0.032,0.038 -0.044,0.054 -0.097,0.124 -0.218,0.235 -0.346,0.323 -0.156,0.108 -0.315,0.188 -0.523,0.243"
             style="fill:#000000;fill-opacity:1;fill-rule:evenodd;stroke:none"
             id="path20258"
             inkscape:connector-curvature="0" />
        </g>
      </g>
    </g>
  </g>
</svg>
