<?xml version="1.0" encoding="UTF-8"?>
<svg id="svg22" width="1169.8pt" height="211.73pt" version="1.1" viewBox="0 0 1169.8 211.73" xmlns="http://www.w3.org/2000/svg" xmlns:cc="http://creativecommons.org/ns#" xmlns:dc="http://purl.org/dc/elements/1.1/" xmlns:rdf="http://www.w3.org/1999/02/22-rdf-syntax-ns#" xmlns:xlink="http://www.w3.org/1999/xlink">
 <metadata id="metadata28">
  <rdf:RDF>
   <cc:Work rdf:about="">
    <dc:format>image/svg+xml</dc:format>
    <dc:type rdf:resource="http://purl.org/dc/dcmitype/StillImage"/>
    <dc:title/>
   </cc:Work>
  </rdf:RDF>
 </metadata>
 <defs id="defs26">
  <radialGradient id="radialGradient1108" cx="1340.7" cy="160.94" r="52.966" gradientTransform="matrix(1.9762 -7.0181e-7 7.0336e-7 1.9806 -1585.6 -212.88)" gradientUnits="userSpaceOnUse">
   <stop id="stop1102" stop-color="#a5528b" offset="0"/>
   <stop id="stop1110" stop-color="#a5528b" offset=".35972"/>
   <stop id="stop1104" stop-color="#a50573" offset="1"/>
  </radialGradient>
  <radialGradient id="radialGradient1108-1" cx="1340.7" cy="160.94" r="52.966" gradientTransform="matrix(7.0181e-7 1.9762 -1.9806 7.0336e-7 1382.6 -2543.6)" gradientUnits="userSpaceOnUse">
   <stop id="stop1140" stop-color="#ce4b00" offset="0"/>
   <stop id="stop1142" stop-color="#ce4b00" offset=".35972"/>
   <stop id="stop1144" stop-color="#f25800" offset="1"/>
  </radialGradient>
  <radialGradient id="radialGradient1108-1-6" cx="1340.7" cy="160.94" r="52.966" gradientTransform="matrix(-7.0181e-7 1.9762 1.9806 7.0336e-7 744.98 -2543.6)" gradientUnits="userSpaceOnUse">
   <stop id="stop1196" stop-color="#b50462" offset="0"/>
   <stop id="stop1198" stop-color="#b50462" offset=".35972"/>
   <stop id="stop1200" stop-color="#d50573" offset="1"/>
  </radialGradient>
  <radialGradient id="radialGradient1108-7" cx="1340.7" cy="160.94" r="52.966" gradientTransform="matrix(-1.9762 -7.0181e-7 -7.0336e-7 1.9806 3713.2 -212.88)" gradientUnits="userSpaceOnUse">
   <stop id="stop1188" stop-color="#ffac5b" offset="0"/>
   <stop id="stop1190" stop-color="#ffac5b" offset=".35972"/>
   <stop id="stop1192" stop-color="#ff8105" offset="1"/>
  </radialGradient>
  <radialGradient id="radialGradient858" cx="1438.4" cy="166.68" r="141.24" gradientTransform="matrix(1 0 0 .99936 0 .10609)" gradientUnits="userSpaceOnUse">
   <stop id="stop852" stop-color="#fff" offset="0"/>
   <stop id="stop860" stop-color="#fff" offset=".23375"/>
   <stop id="stop862" stop-color="#c7c7c7" offset=".54025"/>
   <stop id="stop854" stop-color="#7d867f" offset="1"/>
  </radialGradient>
 </defs>
 <path id="path2-7" d="m1063.8 0h105.93v105.86h-105.93z" fill="url(#radialGradient1108)"/>
 <path id="path2-7-7" d="m1169.8 105.8v105.93h-105.86v-105.93z" fill="url(#radialGradient1108-1)"/>
 <path id="path2-7-9" d="m1063.8 0h-105.93v105.86h105.93z" fill="url(#radialGradient1108-7)"/>
 <path id="path2-7-7-2" d="m957.87 105.8v105.93h105.86v-105.93z" fill="url(#radialGradient1108-1-6)"/>
 <g id="#a1a1a1ff-9-9-5-8-5" transform="matrix(1 0 0 -1 -15.81 230.98)" fill-opacity=".99444">
  <path id="path19-4-6-1-0-1" transform="matrix(.75 0 0 -.75 .8598 250.12)" d="m1437.8 25.527c0.013 14.907-2.2524 31.48-4.1992 46.213-3.2666 22.76-8.8804 45.334-18.4 66.32-0.5481 1.1299-1.0748 2.3611-1.7871 3.4199-1.1317 0.84518-2.5102 1.436-3.7696 2.0469-20.987 9.52-43.56 15.134-66.32 18.4-14.733 1.9467-31.306 4.2122-46.213 4.1992v1.1074c14.907-0.0133 31.48 2.2525 46.213 4.1992 22.76 3.2666 45.334 8.8804 66.32 18.4 1.261 0.61161 2.641 1.2038 3.7735 2.0508 0.7111 1.058 1.2358 2.2874 1.7832 3.416 9.52 20.987 15.134 43.56 18.4 66.32 1.9467 14.733 4.2125 31.306 4.1992 46.213h1.1074c-0.013-14.907 2.2525-31.48 4.1992-46.213 3.2667-22.76 8.8804-45.334 18.4-66.32 0.5481-1.1299 1.0748-2.3611 1.7871-3.4199 1.1317-0.8452 2.5102-1.436 3.7696-2.0469 20.987-9.52 43.56-15.134 66.32-18.4 14.733-1.9467 31.306-4.2125 46.213-4.1992v-1.1074c-14.907 0.013-31.48-2.2525-46.213-4.1992-22.76-3.2667-45.334-8.8804-66.32-18.4-1.26-0.6111-2.6376-1.203-3.7696-2.0488-0.7119-1.0586-1.2392-2.2885-1.7871-3.418-9.52-20.987-15.134-43.56-18.4-66.32-1.9468-14.733-4.2125-31.306-4.1992-46.213z" fill="url(#radialGradient858)" fill-opacity="1" stroke-width="1.3333"/>
 </g>
 <g id="g1100" transform="translate(-14.95,-19.145)" fill="#d50573">
  <path id="path4" d="m61.12 51.02c15.72-3.36 31.93 0.01 46.79 5.39 6.86 2.38 13.31 5.74 19.95 8.67l-16.79 32.27c-8.29-5.01-17.27-8.88-26.58-11.53-6.18-1.55-12.96-2.39-19.11-0.28-4.42 1.46-5.07 8-1.86 10.95 2.61 2.4 6.04 3.6 9.32 4.78 13.53 4.32 27.61 7.68 39.95 14.97 8.77 5.15 15.84 13.72 17.61 23.92 2.05 12.13 0.97 25.63-6.46 35.87-5.47 8.1-14.28 13.35-23.46 16.25-11.17 3.34-23.02 4.1-34.58 2.79-17.78-2.02-35.34-7.2-50.95-16.03l16.62-34.12c11.6 6.76 23.99 12.68 37.33 14.93 5.68 0.69 11.76 1.46 17.21-0.71 3.74-1.58 4.21-7.02 1.39-9.69-3.44-3.3-8.21-4.6-12.63-6.07-12.41-3.74-25.16-7.14-36.36-13.88-8.26-4.83-14.9-12.87-16.54-22.47-1.87-10.85-0.68-22.56 4.75-32.27 6.78-12.92 20.42-20.93 34.4-23.74z"/>
  <path id="path8" d="m481.67 50.96c16.22-2.4 33.45 0.12 47.55 8.77 26.37 15.14 41.2 48.01 34.61 77.77-4.29 20.02-17.4 37.98-35.25 48.03-12.47 7.37-27.25 10.46-41.64 9.29-19.3-1-37.54-11.12-49.73-25.93-9.2-11.31-15.16-25.3-16.58-39.84-1.65-16.04 2.62-32.54 11.47-45.98 11-17.04 29.53-29.04 49.57-32.11m1.8 34.86c-9.97 2.61-17.71 10.93-20.93 20.55-3.9 11.73-3.57 25.07 1.71 36.33 3.76 8.1 11.1 14.56 19.81 16.76 9.05 2.16 19.27 1.2 26.99-4.32 6.1-4.09 10.17-10.63 12.37-17.53 2.91-9.49 3.09-19.85 0.37-29.4-2.21-7.46-6.75-14.42-13.42-18.58-7.81-5.25-17.94-5.99-26.9-3.81z"/>
  <path id="path10" d="m297.18 50.89h67.835c24.96 1.13 45.46 24.57 45.62 49.12 0.39 16.04-7.51 32.03-20.62 41.31 10.06 17.49 19.99 35.095 30.21 52.505-14.63 0.12-29.27 0-43.91 0-8.47-14.65-16.78-29.365-25.3-43.985-4.96 0.06-9.905 0-14.865 0 0.03 14.67-0.01 29.315 0 43.985-12.99 0-25.98 0.05-38.97 0 0.11-47.67 0.02-95.275 0-142.94m38.97 33.97v30.92h24.955c4.14-0.06 7.2-3.72 8.61-7.29 1.82-5.17 1.9-11.04-0.12-16.17-1.88-4.03-5.89-7.66-10.58-7.46z"/>
  <path id="path12" d="m572.18 50.83h109.08v28.93l-62.865 80.08h64.07v34h-113.3v-28.8l67.245-80.24h-64.22z"/>
  <path id="path14" transform="scale(.75)" d="m982.81 67.787-66.053 190.71h52.934l11.414-37.654h51.08l11.412 37.654h52.934l-66.053-190.71zm23.835 60.166 17.38 58.473h-34.76z" stroke-width="1.3333"/>
  <path id="path16" d="m805.42 84.815v-33.995h121.48v33.995h-41.11v109.02h-38.96v-109.02z"/>
  <path id="path8-0" d="m198.52 50.96c16.22-2.4 33.45 0.12 47.55 8.77 26.37 15.14 41.2 48.01 34.61 77.77-4.29 20.02-17.4 37.98-35.25 48.03-12.47 7.37-27.25 10.46-41.64 9.29-19.3-0.99999-37.54-11.12-49.73-25.93-9.2-11.31-15.16-25.3-16.58-39.84-1.65-16.04 2.62-32.54 11.47-45.98 11-17.04 29.53-29.04 49.57-32.11m1.8 34.86c-9.97 2.61-17.71 10.93-20.93 20.55-3.9 11.73-3.57 25.07 1.71 36.33 3.76 8.1 11.1 14.56 19.81 16.76 9.05 2.16 19.27 1.2 26.99-4.32 6.1-4.09 10.17-10.63 12.37-17.53 2.91-9.49 3.09-19.85 0.37-29.4-2.21-7.46-6.75-14.42-13.42-18.58-7.81-5.25-17.94-5.99-26.9-3.81z"/>
 </g>
</svg>
