<svg height="1.004994mm" viewBox="0 0 5.8257718 1.0049942" width="5.825772mm" xmlns="http://www.w3.org/2000/svg"><g fill-rule="evenodd"><g fill="#e2001a"><path d="m0 0c .004-.047-.002-.096-.006-.145-.025-.343-.049-.71-.062-1.068.155.211.303.454.456.677.241-.002.49-.006.726.003-.167-.253-.344-.495-.524-.734.097-.18.208-.361.3-.536-.245.022-.486.047-.728.071-.079.141-.161.278-.233.425-.009-.129-.009-.266-.014-.399-.218.018-.431.041-.646.062.029.535.051 1.077.051 1.641.227-.001.457-.007.68.003" transform="matrix(.35277777 0 0 -.35277777 3.800898 0)"/><path d="m0 0c .111-.007.235-.001.352-.003-.003-.164-.014-.319-.012-.487h-.354c-.01-.124-.015-.252-.02-.38-.222.02-.443.042-.663.065.004.106.014.206.02.312-.075.006-.162.001-.241.003.009.159.014.324.019.487h.258c.013.097.014.206.023.306.211.045.425.086.632.134-.001-.139-.012-.291-.014-.437" transform="matrix(.35277777 0 0 -.35277777 2.7039 .188984)"/><path d="m0 0c-.008-.142-.013-.288-.017-.434.333-.001.668-.006 1.003.003.085-.334.19-.647.25-1.006-.004.083.024.142.048.207.099.265.188.531.284.796.229-.002.463-.006.688.003-.228-.555-.48-1.086-.703-1.647-.236.005-.469.005-.705 0-.169.524-.342 1.044-.513 1.565-.009-.133-.012-.27-.012-.411h-.354c-.007-.142-.023-.311-.023-.459 0-.044.003-.101.02-.136.055-.112.259-.031.363-.017-.027-.169-.063-.329-.085-.502-.295-.076-.743-.11-.907.105-.09.117-.078.29-.068.479.009.175.029.354.037.527-.075.007-.162.001-.241.003.009.16.014.324.019.487h.258c.013.097.014.206.023.307.211.042.43.091.635.13" transform="matrix(.35277777 0 0 -.35277777 5.029905 .035984)"/><path d="m0 0c-.602.057-1.199.12-1.803.176.006.092.002.195.003.292.249.043.51.069.794.082.254.012.505-.024.671-.111.176-.091.274-.248.335-.439" transform="matrix(.35277777 0 0 -.35277777 1.208933 .349991)"/><path d="m0 0c .002-.098.011-.189.014-.286-.393.039-.787.078-1.182.116-.003.018.02.034.034.051.102.117.269.167.482.179.227.011.463-.026.652-.06" transform="matrix(.35277777 0 0 -.35277777 .479918 .177977)"/><path d="m0 0c-.296.031-.593.061-.893.088.075.032.209.027.213.122.002.06-.058.088-.114.093-.272.024-.54-.094-.737-.147.023.147.044.296.063.448.218.053.467.089.734.102.387.018.747-.08.748-.462 0-.077-.01-.153-.014-.244" transform="matrix(.35277777 0 0 -.35277777 1.862913 .414973)"/><path d="m0 0c-.215.023-.434.042-.649.065.003.03.004.062.006.094-.008.005-.015-.008-.02-.012-.026-.018-.063-.03-.102-.042-.025-.008-.052-.018-.071-.02-.03-.003-.068.005-.105.009-.23.02-.485.048-.706.07-.004.01.007.02.011.026.147.209.423.268.726.332.087.018.257.041.258.133.001.059-.058.086-.116.09-.274.022-.526-.09-.734-.147.023.147.043.297.062.448.233.055.462.089.734.102.314.015.627-.057.717-.278.023-.055.031-.12.032-.181.002-.227-.041-.441-.043-.689" transform="matrix(.35277777 0 0 -.35277777 3.447908 .570971)"/><path d="m0 0c0-.198.011-.386.02-.575-.078.013-.155.028-.238.022-.151-.01-.234-.104-.284-.212-.225.023-.453.043-.677.068.008.217.008.456.003.677.219-.005.438-.006.657 0-.005-.051-.003-.109-.008-.159.062.159.308.236.527.179" transform="matrix(.35277777 0 0 -.35277777 2.367914 .176989)"/><path d="m0 0c .227-.018.452-.038.68-.054.01-.008-.003-.024 0-.042.006-.03.069-.07.102-.094.179-.129.42-.25.451-.519.014-.119-.019-.223-.076-.303-.213-.294-.807-.282-1.228-.17-.011.177-.032.344-.045.519.168-.034.307-.132.53-.117.054.004.136.023.139.074.002.036-.043.066-.071.088-.087.066-.185.137-.264.204-.114.098-.223.208-.221.405 0 .005 0 .009.003.009" transform="matrix(.35277777 0 0 -.35277777 .040922 .320993)"/></g><path d="m0 0c-.345.034-.69.068-1.035.102-.109.186-.077.462.02.618.098.156.271.283.493.298.286.018.485-.143.587-.326.056-.101.089-.235.071-.375-.017-.13-.065-.234-.136-.317" transform="matrix(.35277777 0 0 -.35277777 4.594894 .683966)"/><path d="m0 0c .217-.016.431-.036.649-.051-.04-.265-.003-.533.213-.575.013-.003.046-.006.071-.003.215.022.288.302.226.535.23-.018.461-.034.686-.056.028-.372-.087-.675-.3-.845-.108-.086-.26-.146-.439-.139-.162.007-.334.051-.443.133-.022.017-.035.037-.054.063-.009-.293-.023-.579-.025-.879-.228.004-.463.003-.692 0 .05.588.086 1.19.105 1.808 0 .005 0 .009.003.009" fill="#e2001a" transform="matrix(.35277777 0 0 -.35277777 .57291 .363997)"/><path d="m0 0c-.019-.27-.029-.55-.037-.831-.221.007-.448.007-.669 0 .017.23.034.46.046.695-.011.002-.016-.009-.023-.014-.009-.006-.02-.013-.031-.017-.096-.038-.246-.057-.321-.116-.014-.012-.037-.037-.042-.054-.016-.052.008-.095.04-.114.081-.049.22.004.303.014-.038-.136-.077-.271-.114-.408-.35-.064-.675-.018-.81.204-.047.076-.083.165-.082.272.001.249.177.395.357.471.037.016.13-.001.187-.006.391-.031.803-.068 1.196-.096" fill="#e2001a" transform="matrix(.35277777 0 0 -.35277777 1.858926 .466972)"/><path d="m0 0c .217-.016.431-.036.649-.051-.026-.235-.028-.517-.017-.771-.227.007-.459.006-.686 0 .016.273.037.539.051.814 0 .004 0 .008.003.008" fill="#e2001a" transform="matrix(.35277777 0 0 -.35277777 1.950931 .47498)"/><path d="m0 0c .225-.014.441-.037.666-.051.006-.044.007-.082.023-.111.057-.105.258-.029.36-.014-.027-.168-.063-.329-.085-.501-.336-.086-.829-.117-.95.178-.052.127-.031.327-.017.493-.001.006.002.011.003.006" fill="#e2001a" transform="matrix(.35277777 0 0 -.35277777 2.455897 .515973)"/><path d="m0 0c .223-.019.446-.038.672-.054.008-.013-.012-.019-.017-.025-.031-.038-.03-.111.014-.142.081-.057.22.002.309.011-.038-.136-.077-.271-.113-.408-.233-.042-.514-.037-.675.062-.15.093-.262.304-.196.547 0 .005.002.008.006.009" fill="#e2001a" transform="matrix(.35277777 0 0 -.35277777 2.849915 .546982)"/><path d="m0 0c .216-.017.429-.036.646-.051-.009-.153-.011-.312-.017-.468-.222.007-.449.006-.672 0 .018.165.029.337.037.511 0 .004.002.007.006.008" fill="#e2001a" transform="matrix(.35277777 0 0 -.35277777 3.21892 .577004)"/><path d="m0 0c .217-.017.43-.036.649-.051-.004-.138-.006-.278-.006-.42-.224.005-.458.004-.683 0 .014.153.029.305.037.462 0 .005 0 .009.003.009" fill="#e2001a" transform="matrix(.35277777 0 0 -.35277777 3.541923 .603004)"/><path d="m0 0c .179-.011.427-.032.632-.048.032-.003.071-.001.088-.009.018-.008.039-.056.054-.082.051-.088.098-.175.142-.255-.234.004-.478.004-.712 0-.073.126-.131.268-.204.394" fill="#e2001a" transform="matrix(.35277777 0 0 -.35277777 3.86789 .629991)"/><path d="m0 0c .33-.018.667-.053 1.001-.077.008-.011-.01-.017-.015-.022-.1-.116-.282-.218-.51-.196-.224.022-.376.142-.47.289-.003.001-.002.006-.006.006" transform="matrix(.35277777 0 0 -.35277777 4.236931 .659977)"/></g></svg>