<?xml version="1.0" encoding="UTF-8" standalone="no"?>
<!-- Created with Inkscape (http://www.inkscape.org/) -->

<svg
   xmlns:dc="http://purl.org/dc/elements/1.1/"
   xmlns:cc="http://creativecommons.org/ns#"
   xmlns:rdf="http://www.w3.org/1999/02/22-rdf-syntax-ns#"
   xmlns:svg="http://www.w3.org/2000/svg"
   xmlns="http://www.w3.org/2000/svg"
   xmlns:sodipodi="http://sodipodi.sourceforge.net/DTD/sodipodi-0.dtd"
   xmlns:inkscape="http://www.inkscape.org/namespaces/inkscape"
   width="5.8257718mm"
   height="1.0049942mm"
   viewBox="0 0 5.8257718 1.0049942"
   version="1.1"
   id="svg51579"
   inkscape:version="0.92.0 r15299"
   sodipodi:docname="Spartak TV - Dark.svg">
  <defs
     id="defs51573">
    <clipPath
       clipPathUnits="userSpaceOnUse"
       id="clipPath19670">
      <path
         d="m 298.24,475.747 h 18.106 v 8.6 H 298.24 Z"
         id="path19668"
         inkscape:connector-curvature="0" />
    </clipPath>
  </defs>
  <sodipodi:namedview
     id="base"
     pagecolor="#ffffff"
     bordercolor="#666666"
     borderopacity="1.0"
     inkscape:pageopacity="0.0"
     inkscape:pageshadow="2"
     inkscape:zoom="31.678384"
     inkscape:cx="8.9317677"
     inkscape:cy="0.17892029"
     inkscape:document-units="mm"
     inkscape:current-layer="layer1"
     showgrid="false"
     fit-margin-top="0"
     fit-margin-left="0"
     fit-margin-right="0"
     fit-margin-bottom="0"
     inkscape:window-width="1920"
     inkscape:window-height="1017"
     inkscape:window-x="-8"
     inkscape:window-y="-8"
     inkscape:window-maximized="1" />
  <metadata
     id="metadata51576">
    <rdf:RDF>
      <cc:Work
         rdf:about="">
        <dc:format>image/svg+xml</dc:format>
        <dc:type
           rdf:resource="http://purl.org/dc/dcmitype/StillImage" />
        <dc:title></dc:title>
      </cc:Work>
    </rdf:RDF>
  </metadata>
  <g
     inkscape:label="Layer 1"
     inkscape:groupmode="layer"
     id="layer1"
     transform="translate(50.540743,-86.321943)">
    <g
       id="g19672"
       transform="matrix(0.35277777,0,0,-0.35277777,-46.739845,86.321943)">
      <path
         d="m 0,0 c 0.004,-0.047 -0.002,-0.096 -0.006,-0.145 -0.025,-0.343 -0.049,-0.71 -0.062,-1.068 0.155,0.211 0.303,0.454 0.456,0.677 0.241,-0.002 0.49,-0.006 0.726,0.003 C 0.947,-0.786 0.77,-1.028 0.59,-1.267 c 0.097,-0.18 0.208,-0.361 0.3,-0.536 -0.245,0.022 -0.486,0.047 -0.728,0.071 -0.079,0.141 -0.161,0.278 -0.233,0.425 -0.009,-0.129 -0.009,-0.266 -0.014,-0.399 -0.218,0.018 -0.431,0.041 -0.646,0.062 0.029,0.535 0.051,1.077 0.051,1.641 C -0.453,-0.004 -0.223,-0.01 0,0"
         style="fill:#e2001a;fill-opacity:1;fill-rule:evenodd;stroke:none"
         id="path19674"
         inkscape:connector-curvature="0" />
    </g>
    <g
       id="g19676"
       transform="matrix(0.35277777,0,0,-0.35277777,-47.836843,86.510927)">
      <path
         d="M 0,0 C 0.111,-0.007 0.235,-0.001 0.352,-0.003 0.349,-0.167 0.338,-0.322 0.34,-0.49 h -0.354 c -0.01,-0.124 -0.015,-0.252 -0.02,-0.38 -0.222,0.02 -0.443,0.042 -0.663,0.065 0.004,0.106 0.014,0.206 0.02,0.312 -0.075,0.006 -0.162,0.001 -0.241,0.003 0.009,0.159 0.014,0.324 0.019,0.487 h 0.258 c 0.013,0.097 0.014,0.206 0.023,0.306 0.211,0.045 0.425,0.086 0.632,0.134 C 0.013,0.298 0.002,0.146 0,0"
         style="fill:#e2001a;fill-opacity:1;fill-rule:evenodd;stroke:none"
         id="path19678"
         inkscape:connector-curvature="0" />
    </g>
    <g
       id="g19680"
       transform="matrix(0.35277777,0,0,-0.35277777,-45.510838,86.357927)">
      <path
         d="m 0,0 c -0.008,-0.142 -0.013,-0.288 -0.017,-0.434 0.333,-0.001 0.668,-0.006 1.003,0.003 0.085,-0.334 0.19,-0.647 0.25,-1.006 -0.004,0.083 0.024,0.142 0.048,0.207 0.099,0.265 0.188,0.531 0.284,0.796 0.229,-0.002 0.463,-0.006 0.688,0.003 -0.228,-0.555 -0.48,-1.086 -0.703,-1.647 -0.236,0.005 -0.469,0.005 -0.705,0 -0.169,0.524 -0.342,1.044 -0.513,1.565 -0.009,-0.133 -0.012,-0.27 -0.012,-0.411 h -0.354 c -0.007,-0.142 -0.023,-0.311 -0.023,-0.459 0,-0.044 0.003,-0.101 0.02,-0.136 0.055,-0.112 0.259,-0.031 0.363,-0.017 -0.027,-0.169 -0.063,-0.329 -0.085,-0.502 -0.295,-0.076 -0.743,-0.11 -0.907,0.105 -0.09,0.117 -0.078,0.29 -0.068,0.479 0.009,0.175 0.029,0.354 0.037,0.527 -0.075,0.007 -0.162,0.001 -0.241,0.003 0.009,0.16 0.014,0.324 0.019,0.487 h 0.258 c 0.013,0.097 0.014,0.206 0.023,0.307 0.211,0.042 0.43,0.091 0.635,0.13"
         style="fill:#e2001a;fill-opacity:1;fill-rule:evenodd;stroke:none"
         id="path19682"
         inkscape:connector-curvature="0" />
    </g>
    <g
       id="g19684"
       transform="matrix(0.35277777,0,0,-0.35277777,-49.33181,86.671934)">
      <path
         d="m 0,0 c -0.602,0.057 -1.199,0.12 -1.803,0.176 0.006,0.092 0.002,0.195 0.003,0.292 0.249,0.043 0.51,0.069 0.794,0.082 0.254,0.012 0.505,-0.024 0.671,-0.111 C -0.159,0.348 -0.061,0.191 0,0"
         style="fill:#e2001a;fill-opacity:1;fill-rule:evenodd;stroke:none"
         id="path19686"
         inkscape:connector-curvature="0" />
    </g>
    <g
       id="g19688"
       transform="matrix(0.35277777,0,0,-0.35277777,-50.060825,86.49992)">
      <path
         d="m 0,0 c 0.002,-0.098 0.011,-0.189 0.014,-0.286 -0.393,0.039 -0.787,0.078 -1.182,0.116 -0.003,0.018 0.02,0.034 0.034,0.051 0.102,0.117 0.269,0.167 0.482,0.179 C -0.425,0.071 -0.189,0.034 0,0"
         style="fill:#e2001a;fill-opacity:1;fill-rule:evenodd;stroke:none"
         id="path19690"
         inkscape:connector-curvature="0" />
    </g>
    <g
       id="g19692"
       transform="matrix(0.35277777,0,0,-0.35277777,-48.67783,86.736916)">
      <path
         d="m 0,0 c -0.296,0.031 -0.593,0.061 -0.893,0.088 0.075,0.032 0.209,0.027 0.213,0.122 0.002,0.06 -0.058,0.088 -0.114,0.093 -0.272,0.024 -0.54,-0.094 -0.737,-0.147 0.023,0.147 0.044,0.296 0.063,0.448 0.218,0.053 0.467,0.089 0.734,0.102 C -0.347,0.724 0.013,0.626 0.014,0.244 0.014,0.167 0.004,0.091 0,0"
         style="fill:#e2001a;fill-opacity:1;fill-rule:evenodd;stroke:none"
         id="path19694"
         inkscape:connector-curvature="0" />
    </g>
    <g
       id="g19696"
       transform="matrix(0.35277777,0,0,-0.35277777,-47.092835,86.892914)">
      <path
         d="m 0,0 c -0.215,0.023 -0.434,0.042 -0.649,0.065 0.003,0.03 0.004,0.062 0.006,0.094 C -0.651,0.164 -0.658,0.151 -0.663,0.147 -0.689,0.129 -0.726,0.117 -0.765,0.105 -0.79,0.097 -0.817,0.087 -0.836,0.085 -0.866,0.082 -0.904,0.09 -0.941,0.094 c -0.23,0.02 -0.485,0.048 -0.706,0.07 -0.004,0.01 0.007,0.02 0.011,0.026 0.147,0.209 0.423,0.268 0.726,0.332 0.087,0.018 0.257,0.041 0.258,0.133 0.001,0.059 -0.058,0.086 -0.116,0.09 -0.274,0.022 -0.526,-0.09 -0.734,-0.147 0.023,0.147 0.043,0.297 0.062,0.448 0.233,0.055 0.462,0.089 0.734,0.102 C -0.392,1.163 -0.079,1.091 0.011,0.87 0.034,0.815 0.042,0.75 0.043,0.689 0.045,0.462 0.002,0.248 0,0"
         style="fill:#e2001a;fill-opacity:1;fill-rule:evenodd;stroke:none"
         id="path19698"
         inkscape:connector-curvature="0" />
    </g>
    <g
       id="g19700"
       transform="matrix(0.35277777,0,0,-0.35277777,-48.172829,86.498932)">
      <path
         d="m 0,0 c 0,-0.198 0.011,-0.386 0.02,-0.575 -0.078,0.013 -0.155,0.028 -0.238,0.022 -0.151,-0.01 -0.234,-0.104 -0.284,-0.212 -0.225,0.023 -0.453,0.043 -0.677,0.068 0.008,0.217 0.008,0.456 0.003,0.677 0.219,-0.005 0.438,-0.006 0.657,0 C -0.524,-0.071 -0.522,-0.129 -0.527,-0.179 -0.465,-0.02 -0.219,0.057 0,0"
         style="fill:#e2001a;fill-opacity:1;fill-rule:evenodd;stroke:none"
         id="path19702"
         inkscape:connector-curvature="0" />
    </g>
    <g
       id="g19704"
       transform="matrix(0.35277777,0,0,-0.35277777,-50.499821,86.642936)">
      <path
         d="m 0,0 c 0.227,-0.018 0.452,-0.038 0.68,-0.054 0.01,-0.008 -0.003,-0.024 0,-0.042 0.006,-0.03 0.069,-0.07 0.102,-0.094 0.179,-0.129 0.42,-0.25 0.451,-0.519 0.014,-0.119 -0.019,-0.223 -0.076,-0.303 -0.213,-0.294 -0.807,-0.282 -1.228,-0.17 -0.011,0.177 -0.032,0.344 -0.045,0.519 0.168,-0.034 0.307,-0.132 0.53,-0.117 0.054,0.004 0.136,0.023 0.139,0.074 0.002,0.036 -0.043,0.066 -0.071,0.088 -0.087,0.066 -0.185,0.137 -0.264,0.204 -0.114,0.098 -0.223,0.208 -0.221,0.405 0,0.005 0,0.009 0.003,0.009"
         style="fill:#e2001a;fill-opacity:1;fill-rule:evenodd;stroke:none"
         id="path19706"
         inkscape:connector-curvature="0" />
    </g>
    <g
       id="g19708"
       transform="matrix(0.35277777,0,0,-0.35277777,-45.945849,87.005909)">
      <path
         d="m 0,0 c -0.345,0.034 -0.69,0.068 -1.035,0.102 -0.109,0.186 -0.077,0.462 0.02,0.618 0.098,0.156 0.271,0.283 0.493,0.298 C -0.236,1.036 -0.037,0.875 0.065,0.692 0.121,0.591 0.154,0.457 0.136,0.317 0.119,0.187 0.071,0.083 0,0"
         style="fill:#000000;fill-opacity:1;fill-rule:evenodd;stroke:none"
         id="path19710"
         inkscape:connector-curvature="0" />
    </g>
    <g
       id="g19712"
       transform="matrix(0.35277777,0,0,-0.35277777,-49.967833,86.68594)">
      <path
         d="M 0,0 C 0.217,-0.016 0.431,-0.036 0.649,-0.051 0.609,-0.316 0.646,-0.584 0.862,-0.626 0.875,-0.629 0.908,-0.632 0.933,-0.629 1.148,-0.607 1.221,-0.327 1.159,-0.094 1.389,-0.112 1.62,-0.128 1.845,-0.15 1.873,-0.522 1.758,-0.825 1.545,-0.995 1.437,-1.081 1.285,-1.141 1.106,-1.134 0.944,-1.127 0.772,-1.083 0.663,-1.001 0.641,-0.984 0.628,-0.964 0.609,-0.938 0.6,-1.231 0.586,-1.517 0.584,-1.817 c -0.228,0.004 -0.463,0.003 -0.692,0 0.05,0.588 0.086,1.19 0.105,1.808 0,0.005 0,0.009 0.003,0.009"
         style="fill:#e2001a;fill-opacity:1;fill-rule:evenodd;stroke:none"
         id="path19714"
         inkscape:connector-curvature="0" />
    </g>
    <g
       id="g19716"
       transform="matrix(0.35277777,0,0,-0.35277777,-48.681817,86.788915)">
      <path
         d="m 0,0 c -0.019,-0.27 -0.029,-0.55 -0.037,-0.831 -0.221,0.007 -0.448,0.007 -0.669,0 0.017,0.23 0.034,0.46 0.046,0.695 -0.011,0.002 -0.016,-0.009 -0.023,-0.014 -0.009,-0.006 -0.02,-0.013 -0.031,-0.017 -0.096,-0.038 -0.246,-0.057 -0.321,-0.116 -0.014,-0.012 -0.037,-0.037 -0.042,-0.054 -0.016,-0.052 0.008,-0.095 0.04,-0.114 0.081,-0.049 0.22,0.004 0.303,0.014 -0.038,-0.136 -0.077,-0.271 -0.114,-0.408 -0.35,-0.064 -0.675,-0.018 -0.81,0.204 -0.047,0.076 -0.083,0.165 -0.082,0.272 10e-4,0.249 0.177,0.395 0.357,0.471 0.037,0.016 0.13,-10e-4 0.187,-0.006 C -0.805,0.065 -0.393,0.028 0,0"
         style="fill:#e2001a;fill-opacity:1;fill-rule:evenodd;stroke:none"
         id="path19718"
         inkscape:connector-curvature="0" />
    </g>
    <g
       id="g19720"
       transform="matrix(0.35277777,0,0,-0.35277777,-48.589812,86.796923)">
      <path
         d="M 0,0 C 0.217,-0.016 0.431,-0.036 0.649,-0.051 0.623,-0.286 0.621,-0.568 0.632,-0.822 c -0.227,0.007 -0.459,0.006 -0.686,0 0.016,0.273 0.037,0.539 0.051,0.814 0,0.004 0,0.008 0.003,0.008"
         style="fill:#e2001a;fill-opacity:1;fill-rule:evenodd;stroke:none"
         id="path19722"
         inkscape:connector-curvature="0" />
    </g>
    <g
       id="g19724"
       transform="matrix(0.35277777,0,0,-0.35277777,-48.084846,86.837916)">
      <path
         d="M 0,0 C 0.225,-0.014 0.441,-0.037 0.666,-0.051 0.672,-0.095 0.673,-0.133 0.689,-0.162 0.746,-0.267 0.947,-0.191 1.049,-0.176 1.022,-0.344 0.986,-0.505 0.964,-0.677 0.628,-0.763 0.135,-0.794 0.014,-0.499 -0.038,-0.372 -0.017,-0.172 -0.003,-0.006 -0.004,0 -0.001,0.005 0,0"
         style="fill:#e2001a;fill-opacity:1;fill-rule:evenodd;stroke:none"
         id="path19726"
         inkscape:connector-curvature="0" />
    </g>
    <g
       id="g19728"
       transform="matrix(0.35277777,0,0,-0.35277777,-47.690828,86.868925)">
      <path
         d="M 0,0 C 0.223,-0.019 0.446,-0.038 0.672,-0.054 0.68,-0.067 0.66,-0.073 0.655,-0.079 0.624,-0.117 0.625,-0.19 0.669,-0.221 0.75,-0.278 0.889,-0.219 0.978,-0.21 0.94,-0.346 0.901,-0.481 0.865,-0.618 0.632,-0.66 0.351,-0.655 0.19,-0.556 c -0.15,0.093 -0.262,0.304 -0.196,0.547 0,0.005 0.002,0.008 0.006,0.009"
         style="fill:#e2001a;fill-opacity:1;fill-rule:evenodd;stroke:none"
         id="path19730"
         inkscape:connector-curvature="0" />
    </g>
    <g
       id="g19732"
       transform="matrix(0.35277777,0,0,-0.35277777,-47.321823,86.898947)">
      <path
         d="M 0,0 C 0.216,-0.017 0.429,-0.036 0.646,-0.051 0.637,-0.204 0.635,-0.363 0.629,-0.519 c -0.222,0.007 -0.449,0.006 -0.672,0 0.018,0.165 0.029,0.337 0.037,0.511 0,0.004 0.002,0.007 0.006,0.008"
         style="fill:#e2001a;fill-opacity:1;fill-rule:evenodd;stroke:none"
         id="path19734"
         inkscape:connector-curvature="0" />
    </g>
    <g
       id="g19736"
       transform="matrix(0.35277777,0,0,-0.35277777,-46.99882,86.924947)">
      <path
         d="m 0,0 c 0.217,-0.017 0.43,-0.036 0.649,-0.051 -0.004,-0.138 -0.006,-0.278 -0.006,-0.42 -0.224,0.005 -0.458,0.004 -0.683,0 0.014,0.153 0.029,0.305 0.037,0.462 0,0.005 0,0.009 0.003,0.009"
         style="fill:#e2001a;fill-opacity:1;fill-rule:evenodd;stroke:none"
         id="path19738"
         inkscape:connector-curvature="0" />
    </g>
    <g
       id="g19740"
       transform="matrix(0.35277777,0,0,-0.35277777,-46.672853,86.951934)">
      <path
         d="M 0,0 C 0.179,-0.011 0.427,-0.032 0.632,-0.048 0.664,-0.051 0.703,-0.049 0.72,-0.057 0.738,-0.065 0.759,-0.113 0.774,-0.139 0.825,-0.227 0.872,-0.314 0.916,-0.394 0.682,-0.39 0.438,-0.39 0.204,-0.394 0.131,-0.268 0.073,-0.126 0,0"
         style="fill:#e2001a;fill-opacity:1;fill-rule:evenodd;stroke:none"
         id="path19742"
         inkscape:connector-curvature="0" />
    </g>
    <g
       id="g19744"
       transform="matrix(0.35277777,0,0,-0.35277777,-46.303812,86.98192)">
      <path
         d="M 0,0 C 0.33,-0.018 0.667,-0.053 1.001,-0.077 1.009,-0.088 0.991,-0.094 0.986,-0.099 0.886,-0.215 0.704,-0.317 0.476,-0.295 0.252,-0.273 0.1,-0.153 0.006,-0.006 0.003,-0.005 0.004,0 0,0"
         style="fill:#000000;fill-opacity:1;fill-rule:evenodd;stroke:none"
         id="path19746"
         inkscape:connector-curvature="0" />
    </g>
  </g>
</svg>
