<svg height="721.36" width="600" xmlns="http://www.w3.org/2000/svg" xmlns:xlink="http://www.w3.org/1999/xlink"><clipPath id="a"><path d="m77.168 341.74c.006-.064-.012-.131-.063-.198-.299-.395-1.425-.385-1.969-.346-.639.047-1.665.322-1.726.618v-.006c.017-.304 1.076-.591 1.729-.638.544-.039 1.673-.052 1.969.346.055.074.072.15.06.224"/></clipPath><clipPath id="b"><path d="m77.108 341.52c.051.068.069.138.062.206-.034.006-.07.014-.101.024-.104.033-.352.141-.352.141s.098-.225.165-.311c.05-.064.099-.112.14-.147.033.026.062.055.086.087"/></clipPath><clipPath id="c"><path d="m76.066 341.58c-.033.151.02.352.047.44-.003 0-.005-.001-.008-.001-.015-.002-.032-.003-.05-.005-.057-.081-.179-.267-.225-.463-.037-.153-.03-.3-.017-.397.132.003.268.011.401.025-.045.081-.108.22-.148.401"/></clipPath><clipPath id="d"><path d="m76.439 341.7c-.098.135-.165.262-.206.347-.023-.004-.046-.008-.07-.012.019-.089.054-.245.094-.385.045-.16.118-.328.167-.434.16.027.309.066.431.121-.118.082-.322.233-.416.363"/></clipPath><clipPath id="e"><path d="m75.139 341.17c-.653.047-1.712.334-1.729.638-.015.272.593.321 1.063.318.302-.002.615-.048.981-.094.178-.022.5-.031.651-.013.281.034.535.125.359.329l.044.002c.371-.18.834-.519.6-.834-.296-.398-1.425-.385-1.969-.346"/></clipPath><clipPath id="f"><path d="m76.508 342.35-.044-.002v-.027c.037-.043.054-.078.057-.108-.013-.112-.207-.169-.416-.194-.151-.018-.473-.009-.651.013-.366.046-.679.092-.981.094-.47.003-1.078-.046-1.063-.318.017-.304 1.076-.591 1.729-.638.544-.039 1.673-.052 1.969.346.234.315-.229.654-.6.834"/></clipPath><clipPath id="g"><path d="m78.927 341.42c.056-.208.046-.428-.03-.653-.315-.925-1.337-1.259-1.939-1.279-.494-.016-.905.165-1.015.519.096-.373.516-.564 1.023-.548.603.02 1.625.354 1.939 1.279.08.236.087.466.022.682"/></clipPath><clipPath id="h"><path d="m77.514 340.84c-.052.42-.281.773-.393.923-.006-.015-.005-.012-.012-.027.115-.158.331-.508.381-.914.045-.369.053-.927.049-1.259.01.003.007.002.017.005.005.329.004.895-.042 1.272"/></clipPath><clipPath id="i"><path d="m78.915 341.46c-.179-.031-.5-.073-.831-.051-.244.016-.471.067-.652.12-.017-.006-.035-.012-.053-.016-.027-.007-.059-.013-.09-.017.096-.175.193-.406.225-.661.016-.136.027-.297.034-.462.141-.075.323-.142.552-.174.168-.023.355-.009.512.022.124.148.225.321.293.521.085.249.087.491.01.718"/></clipPath><clipPath id="j"><path d="m78.915 341.46c-.083.244-.259.47-.527.664-.057.042-.12.08-.187.115-.198-.012-.453-.025-.6-.024-.202.001-.425.034-.567.058.124-.157.148-.353.087-.515.03-.04.069-.096.111-.164.195-.07.507-.162.852-.185.331-.022.652.02.831.051"/></clipPath><clipPath id="k"><path d="m76.561 342.54.002-.018c.302-.058.477-.206.548-.375-.075.179-.253.337-.55.393"/></clipPath><clipPath id="l"><path d="m77.514 340.84c-.052.42-.281.773-.393.923-.01-.027-.023-.054-.039-.079-.131-.218-.44-.438-.552-.52-.442-.323-.608-.618-.608-.98 0-.484.466-.735 1.044-.716.172.006.377.037.59.1.005.329.004.895-.042 1.272"/></clipPath><clipPath id="m"><path d="m77.209 342.42c.096.019.176.048.236.074-.331.069-.651.092-.857.084l-.027-.042c.142-.027.257-.077.346-.142.08-.001.189.003.302.026"/></clipPath><clipPath id="n"><path d="m78.905 340.74c-.314-.925-1.336-1.259-1.939-1.279-.578-.019-1.044.232-1.044.716 0 .362.166.657.608.98.112.082.421.302.552.52.174.287.036.752-.521.857l.027.042c.419.016 1.309-.097 1.8-.454.516-.374.693-.865.517-1.382"/></clipPath><clipPath id="o"><path d="m78.388 342.12c-.491.357-1.381.47-1.8.454l-.027-.042.002-.018c.302-.058.477-.206.548-.375.066-.157.053-.33-.029-.464-.131-.218-.44-.438-.552-.52-.442-.323-.608-.618-.608-.98 0-.484.466-.735 1.044-.716.603.02 1.625.354 1.939 1.279.176.517-.001 1.008-.517 1.382"/></clipPath><clipPath id="p"><path d="m80.187 340.39c-.522-.464-1.372-.55-1.886.033-.234.264-.305.5-.307.811-.001-.32.069-.563.307-.832.514-.582 1.364-.497 1.886-.033.338.3.545.708.543 1.143-.003-.427-.21-.827-.543-1.122"/></clipPath><clipPath id="q"><path d="m76.682 342.9c-.019-.023-.044-.05-.066-.073-.02-.02-.06-.049-.093-.072.027.005.055.01.081.013.041.032.085.068.111.092.041.037.075.072.1.1-.046-.02-.09-.04-.133-.06"/></clipPath><clipPath id="r"><path d="m76.986 342.9c.059.069.085.122.102.164-.096-.034-.188-.069-.273-.106-.025-.028-.059-.063-.1-.1-.026-.024-.07-.06-.111-.092.095.013.185.019.271.018.036.035.078.077.111.116"/></clipPath><clipPath id="s"><path d="m77.088 343.06c-.017-.042-.043-.095-.102-.164-.033-.039-.075-.081-.111-.116.159-.001.304-.025.431-.065.122.064.305.17.412.277.091.092.163.196.21.273-.292-.04-.582-.115-.84-.205"/></clipPath><clipPath id="t"><path d="m78.127 342.03c.14.168.248.265.292.671.027.245-.046.469-.102.6-.128-.001-.259-.012-.389-.029-.047-.077-.119-.181-.21-.273-.107-.107-.29-.213-.412-.277.378-.119.612-.383.667-.651.009-.046.017-.093.022-.139.054.032.106.067.132.098"/></clipPath><clipPath id="u"><path d="m79.662 341.33c-.34.489-.858.755-1.397.871-.04-.06-.087-.112-.138-.173-.026-.031-.078-.066-.132-.098.023-.188.016-.375.007-.511-.029-.419.017-.702.299-1.021.431-.489 1.099-.507 1.612-.226.083.367.018.772-.251 1.158"/></clipPath><clipPath id="v"><path d="m76.48 342.75.022-.016c.333.065.616.048.842-.024-.233.082-.524.107-.864.04"/></clipPath><clipPath id="w"><path d="m80.445 342.36c-.484.696-1.328.94-2.079.945-.017 0-.033 0-.049-.001.056-.131.129-.355.102-.6-.028-.259-.082-.392-.154-.498.539-.116 1.057-.382 1.397-.871.269-.386.334-.791.251-1.158.098.053.19.118.274.193.554.492.758 1.273.258 1.99"/></clipPath><clipPath id="x"><path d="m80.445 342.36c-.484.696-1.328.94-2.079.945-.692.004-1.467-.264-1.887-.507l.001-.046.022-.016c.331.065.611.048.836-.022.359-.123.581-.38.635-.64.048-.232.041-.48.029-.65-.029-.419.017-.702.299-1.021.514-.582 1.364-.497 1.886-.033.554.492.758 1.273.258 1.99"/></clipPath><clipPath id="y"><path d="m75.395 342.65s.102-.013.157-.022c.071-.01.137-.033.137-.033l.085-.056s-.054.007-.104.005c-.041-.002-.079-.013-.079-.013z"/></clipPath><clipPath id="z"><path d="m76.091 342.25c-.253.046-.528.232-.744.367-.441.275-.995.713-1.452 1.106-.668.575-1.277 1.205-1.217 1.364l-.003-.003c-.147-.109.493-.779 1.199-1.386.457-.392 1.011-.83 1.452-1.106.216-.135.491-.321.744-.367.105-.018.144.016.162.046-.024-.02-.066-.034-.141-.021"/></clipPath><clipPath id="A"><path d="m81.039 347.38h-8.3853v-10.081h8.3853z"/></clipPath><clipPath id="B"><path d="m73.874 343.7c-.706.607-1.346 1.277-1.199 1.386.125.094.735-.378 1.27-.843.414-.36.746-.737.924-.907.279-.267.959-.875 1.33-.999l.043-.041c-.01-.029-.038-.093-.172-.069-.253.046-.528.232-.744.367-.441.276-.995.714-1.452 1.106"/></clipPath><clipPath id="C"><path d="m81.039 347.38h-8.3853v-10.081h8.3853z"/></clipPath><clipPath id="D"><path d="m76.919 343.44c-.003.076-.03.167-.052.23-.184-.179-.347-.368-.485-.558.006-.037.012-.074.015-.09.004-.015.01-.035.017-.054.163.12.333.207.5.266.005.053.01.127.005.206"/></clipPath><clipPath id="E"><path d="m79.024 343.38c.516-.031.969-.137 1.292-.361.017-.011.033-.023.049-.035-.026.021-.053.042-.08.06-.323.224-.777.33-1.292.361-.386.023-.876-.083-1.099-.137.017-.006.034-.013.05-.02.231.055.705.154 1.08.132"/></clipPath><clipPath id="F"><path d="m80.285 343.04c-.323.224-.777.33-1.292.361-.386.023-.876-.083-1.099-.137.094-.035.174-.081.232-.136.076-.072.215-.296.323-.431.336-.419.602-.547.95-.63.55-.131 1.07.051 1.372.452-.111.161-.287.384-.486.521"/></clipPath><clipPath id="G"><path d="m79.938 344.63c.947-.282 1.26-1.018 1.027-1.73-.214-.656-.866-.996-1.566-.829-.348.083-.614.211-.95.63-.108.135-.247.359-.323.431-.303.286-1.149.331-1.836-.261l-.044.043c.296.464.753.954 1.309 1.303.786.493 1.693.618 2.383.413"/></clipPath><clipPath id="H"><path d="m81.039 347.38h-8.3853v-10.081h8.3853z"/></clipPath><clipPath id="I"><path d="m77.327 344.42c-.172-.193-.338-.409-.422-.521.041.027.083.051.124.074.031.017.06.031.089.044.13.182.372.509.506.644.124.124.483.437.819.609-.249-.098-.8-.496-1.116-.85"/></clipPath><clipPath id="J"><path d="m79.107 344.71c.086.21.161.554-.182.663-.365.116-1.111-.522-1.301-.712-.134-.135-.376-.462-.506-.644.308.139.524.076.709-.001.208-.086.429-.146.634-.164.148.119.461.409.646.858"/></clipPath><clipPath id="K"><path d="m76.128 343.18c.022-.041.036-.081.045-.115.038.08.08.155.124.225-.049.026-.112.059-.14.073-.013.007-.035.023-.058.043-.009-.047-.016-.093-.023-.139.017-.027.037-.059.052-.087"/></clipPath><clipPath id="L"><path d="m76.157 343.36c.028-.014.091-.047.14-.073.146.232.322.409.509.545-.018.085-.057.205-.143.323-.077.105-.173.172-.257.214-.136-.295-.243-.626-.307-.966.023-.02.045-.036.058-.043"/></clipPath><clipPath id="M"><path d="m78.034 346.14c.57.25 1.098.27 1.435-.058-.336.344-.872.327-1.451.073-.494-.217-.99-.671-1.425-1.384-.318-.521-.555-1.237-.573-1.93l.016-.002c.021.689.256 1.399.573 1.917.435.713.93 1.167 1.425 1.384"/></clipPath><clipPath id="N"><path d="m78.018 346.15c.746.328 1.419.261 1.689-.464.203-.549-.1-1.518-.796-1.787-.285-.11-.707-.042-1.084.115-.202.085-.441.152-.798-.043-.377-.206-.743-.553-.951-1.142l-.058.007c.018.693.255 1.409.573 1.93.435.713.931 1.167 1.425 1.384"/></clipPath><clipPath id="O"><path d="m76.733 346.46c-.075-.091-.257-.431-.373-.916-.104-.433-.141-1.046-.153-1.29.016.03.033.061.053.094.006.25.032.761.135 1.187.123.509.258.861.453 1.05-.038-.036-.08-.082-.115-.125"/></clipPath><clipPath id="P"><path d="m76.605 344.68c.372.099.593.458.796.906.073.161.119.422.116.694-.026.106-.065.225-.121.293-.092.111-.257.228-.473.075-.236-.168-.39-.541-.528-1.113-.103-.426-.129-.937-.135-1.187.088.143.215.298.345.332"/></clipPath><clipPath id="Q"><path d="m75.95 346.45c.193.449.455.776.719.887-.271-.103-.541-.434-.74-.895-.258-.601-.376-1.276-.367-2.122.004-.41.092-1.132.349-1.679l.018-.011c-.257.547-.342 1.288-.346 1.699-.009.845.108 1.52.367 2.121"/></clipPath><clipPath id="R"><path d="m81.039 347.38h-8.3853v-10.081h8.3853z"/></clipPath><clipPath id="S"><path d="m75.859 342.72c-.021.04-.042.081-.063.124-.028.01-.068.024-.107.039-.038.015-.109.04-.17.062.044-.064.091-.128.139-.189.019-.004.038-.007.052-.01.03-.005.104-.018.149-.026"/></clipPath><clipPath id="T"><path d="m75.796 342.84c-.012.025-.024.051-.036.078-.056.04-.163.114-.233.152-.044.024-.095.051-.143.075.042-.066.087-.135.135-.204.061-.022.132-.047.17-.062.039-.015.079-.029.107-.039"/></clipPath><clipPath id="U"><path d="m75.76 342.92c-.035.077-.068.158-.1.239-.056.077-.154.201-.278.324-.105.105-.222.183-.31.233.072-.146.146-.286.223-.42.027-.047.057-.097.089-.149.048-.024.099-.051.143-.075.07-.038.177-.112.233-.152"/></clipPath><clipPath id="V"><path d="m75.66 343.16c-.005.015-.011.03-.016.044-.067.102-.207.301-.386.486-.065.066-.187.173-.298.267.037-.081.074-.161.112-.24.088-.05.205-.128.31-.233.124-.123.222-.247.278-.324"/></clipPath><clipPath id="W"><path d="m75.295 343.3c-.321.559-.594 1.219-.799 1.955-.277.993-.304 1.62-.151 1.766-.179-.102-.165-.741.126-1.785.205-.735.478-1.395.799-1.955.179-.311.483-.734.728-.885l.031-.006c-.245.151-.556.599-.734.91"/></clipPath><clipPath id="X"><path d="m75.258 343.69c.179-.185.319-.384.386-.486-.034.089-.065.179-.093.269-.09.153-.248.407-.424.639-.144.19-.328.42-.456.578.088-.256.185-.501.289-.733.111-.094.233-.201.298-.267"/></clipPath><clipPath id="Y"><path d="m74.496 345.25c-.317 1.137-.306 1.794-.074 1.798.236.004.501-.358.786-1.21.212-.629.184-1.06.166-1.421-.021-.421.284-1.468.651-1.97l.004-.062c-.245.151-.556.599-.734.91-.321.559-.594 1.219-.799 1.955"/></clipPath><clipPath id="Z"><path d="m76.025 342.45c-.367.502-.672 1.549-.651 1.97.018.361.046.792-.166 1.421-.285.852-.55 1.214-.786 1.21-.03 0-.056-.012-.078-.033l.001.001c-.179-.102-.165-.741.126-1.785.205-.735.478-1.395.799-1.955.179-.311.483-.734.728-.885l.031-.006z"/></clipPath><linearGradient id="aa"><stop offset="0" stop-color="#9ba1d9"/><stop offset=".7362" stop-color="#5c609f"/><stop offset="1" stop-color="#5c609f"/></linearGradient><linearGradient id="ab" gradientTransform="matrix(.87482 .20197 .20197 -.87482 74.612 344.577)" gradientUnits="userSpaceOnUse" x1="0" x2="1" xlink:href="#aa" y1="0" y2="0"/><linearGradient id="ac" gradientTransform="matrix(.84713 .19557 .19557 -.84713 74.639 344.584)" gradientUnits="userSpaceOnUse" x1="0" x2="1" xlink:href="#aa" y1="0" y2="0"/><linearGradient id="ad" gradientTransform="matrix(-.97292 0 0 .97292 75.644 343.946)" gradientUnits="userSpaceOnUse" x1="0" x2="1" y1="0" y2="0"><stop offset="0" stop-color="#7074b6"/><stop offset="1" stop-color="#a7aedf"/></linearGradient><linearGradient id="ae" gradientTransform="matrix(3.0095 -1.0954 -1.0954 -3.0095 73.664 345.253)" gradientUnits="userSpaceOnUse" x1="0" x2="1" y1="0" y2="0"><stop offset="0" stop-color="#9ba1d9"/><stop offset=".12883" stop-color="#edf4fc"/><stop offset=".7362" stop-color="#5c609f"/><stop offset="1" stop-color="#5c609f"/></linearGradient><linearGradient id="af" gradientTransform="matrix(.70023 0 0 -.70023 74.96 343.558)" gradientUnits="userSpaceOnUse" x1="0" x2="1" xlink:href="#aa" y1="0" y2="0"/><linearGradient id="ag"><stop offset="0" stop-color="#7074b6"/><stop offset="1" stop-color="#9ba1d9"/></linearGradient><linearGradient id="ah" gradientTransform="matrix(-.68764 0 0 .68764 75.76 343.318)" gradientUnits="userSpaceOnUse" x1="0" x2="1" xlink:href="#ag" y1="0" y2="0"/><linearGradient id="ai" gradientTransform="matrix(.41238 0 0 -.41238 75.384 342.995)" gradientUnits="userSpaceOnUse" x1="0" x2="1" y1="0" y2="0"><stop offset="0" stop-color="#858acd"/><stop offset=".7362" stop-color="#5c609f"/><stop offset="1" stop-color="#5c609f"/></linearGradient><linearGradient id="aj" gradientTransform="matrix(-.37246 .13556 .13556 .37246 75.869 342.747)" gradientUnits="userSpaceOnUse" x1="0" x2="1" xlink:href="#ag" y1="0" y2="0"/><linearGradient id="ak" gradientTransform="matrix(0 4.7066 4.7066 0 76.115 342.63)" gradientUnits="userSpaceOnUse" x1="0" x2="1" y1="0" y2="0"><stop offset="0" stop-color="#8095bb"/><stop offset=".7362" stop-color="#d8dbf1"/><stop offset=".90184" stop-color="#a3beda"/><stop offset="1" stop-color="#a3beda"/></linearGradient><linearGradient id="al" gradientTransform="matrix(.91063 -.76411 -.76411 -.91063 76.286 345.926)" gradientUnits="userSpaceOnUse" x1="0" x2="1" y1="0" y2="0"><stop offset="0" stop-color="#b3caec"/><stop offset=".98773" stop-color="#7684b3"/><stop offset="1" stop-color="#7684b3"/></linearGradient><linearGradient id="am" gradientTransform="matrix(0 2.3311 2.3311 0 76.528 344.259)" gradientUnits="userSpaceOnUse" x1="0" x2="1" y1="0" y2="0"><stop offset="0" stop-color="#d1e0f4"/><stop offset=".7546" stop-color="#b3d1ef"/><stop offset="1" stop-color="#b3d1ef"/></linearGradient><linearGradient id="an" gradientTransform="matrix(3.7486 0 0 -3.7486 76.02 344.588)" gradientUnits="userSpaceOnUse" x1="0" x2="1" y1="0" y2="0"><stop offset="0" stop-color="#beacdc"/><stop offset=".45454" stop-color="#dad0ec"/><stop offset=".86667" stop-color="#cbbce3"/><stop offset="1" stop-color="#cbbce3"/></linearGradient><linearGradient id="ao" gradientTransform="matrix(4.0869 1.4875 1.4875 -4.0869 75.605 343.982)" gradientUnits="userSpaceOnUse" x1="0" x2="1" y1="0" y2="0"><stop offset="0" stop-color="#68438e"/><stop offset=".67879" stop-color="#f1eef9"/><stop offset="1" stop-color="#e4d3ec"/></linearGradient><linearGradient id="ap" gradientTransform="matrix(-.1893 -1.0736 -1.0736 .1893 76.581 344.346)" gradientUnits="userSpaceOnUse" x1="0" x2="1" y1="0" y2="0"><stop offset="0" stop-color="#cbc1e6"/><stop offset="1" stop-color="#beaadb"/></linearGradient><linearGradient id="aq" gradientTransform="matrix(.23588 0 0 -.23588 76.061 343.234)" gradientUnits="userSpaceOnUse" x1="0" x2="1" y1="0" y2="0"><stop offset="0" stop-color="#dfd1ec"/><stop offset="1" stop-color="#b39bd4"/></linearGradient><linearGradient id="ar" gradientTransform="matrix(2.0619 0 0 -2.0619 77.118 344.622)" gradientUnits="userSpaceOnUse" x1="0" x2="1" y1="0" y2="0"><stop offset="0" stop-color="#beaadb"/><stop offset=".45454" stop-color="#e4dff2"/><stop offset="1" stop-color="#cbbce3"/></linearGradient><linearGradient id="as" gradientTransform="matrix(1.5374 0 0 -1.5374 76.905 344.587)" gradientUnits="userSpaceOnUse" x1="0" x2="1" y1="0" y2="0"><stop offset="0" stop-color="#beacdc"/><stop offset=".15152" stop-color="#dcd1ec"/><stop offset=".72727" stop-color="#f1eef9"/><stop offset="1" stop-color="#f1eef9"/></linearGradient><linearGradient id="at" gradientTransform="matrix(4.7927 0 0 -4.7927 76.246 343.375)" gradientUnits="userSpaceOnUse" x1="0" x2="1" y1="0" y2="0"><stop offset="0" stop-color="#7e5bb3"/><stop offset=".37576" stop-color="#be9dd5"/><stop offset=".92638" stop-color="#68438e"/><stop offset="1" stop-color="#68438e"/></linearGradient><linearGradient id="au" gradientTransform="matrix(.64343 -1.7678 -1.7678 -.64343 79.044 343.685)" gradientUnits="userSpaceOnUse" x1="0" x2="1" y1="0" y2="0"><stop offset="0" stop-color="#a784c9"/><stop offset=".75152" stop-color="#68438e"/><stop offset="1" stop-color="#52346d"/></linearGradient><linearGradient id="av" gradientTransform="matrix(-2.471 0 0 2.471 80.365 343.194)" gradientUnits="userSpaceOnUse" x1="0" x2="1" y1="0" y2="0"><stop offset="0" stop-color="#7e5bb3"/><stop offset=".6135" stop-color="#cdafdd"/><stop offset=".8957" stop-color="#be9dd5"/><stop offset="1" stop-color="#be9dd5"/></linearGradient><linearGradient id="aw" gradientTransform="matrix(-.61211 -.51362 -.51362 .61211 76.984 343.531)" gradientUnits="userSpaceOnUse" x1="0" x2="1" y1="0" y2="0"><stop offset="0" stop-color="#be9dd5"/><stop offset="1" stop-color="#68438e"/></linearGradient><linearGradient id="ax" gradientTransform="matrix(.29889 .3562 .3562 -.29889 74.223 343.401)" gradientUnits="userSpaceOnUse" x1="0" x2="1" y1="0" y2="0"><stop offset="0" stop-color="#746fad"/><stop offset=".84049" stop-color="#55528b"/><stop offset="1" stop-color="#55528b"/></linearGradient><linearGradient id="ay" gradientTransform="matrix(3.1879 -3.1879 -3.1879 -3.1879 72.801 345.208)" gradientUnits="userSpaceOnUse" x1="0" x2="1" y1="0" y2="0"><stop offset="0" stop-color="#7873b2"/><stop offset=".23926" stop-color="#a7aedf"/><stop offset=".84049" stop-color="#55528b"/><stop offset="1" stop-color="#55528b"/></linearGradient><linearGradient id="az" gradientTransform="matrix(.37911 0 0 -.37911 75.395 342.592)" gradientUnits="userSpaceOnUse" x1="0" x2="1" y1="0" y2="0"><stop offset="0" stop-color="#8681c8"/><stop offset=".92024" stop-color="#7873b2"/><stop offset="1" stop-color="#7873b2"/></linearGradient><linearGradient id="aA"><stop offset="0" stop-color="#2f275f"/><stop offset="1" stop-color="#9d79c3"/></linearGradient><linearGradient id="aB" gradientTransform="matrix(4.2504 0 0 -4.2504 76.479 341.644)" gradientUnits="userSpaceOnUse" x1="0" x2="1" xlink:href="#aA" y1="0" y2="0"/><linearGradient id="aC" gradientTransform="matrix(2.2183 -2.6436 -2.6436 -2.2183 78.41 343.378)" gradientUnits="userSpaceOnUse" x1="0" x2="1" y1="0" y2="0"><stop offset="0" stop-color="#4d346d"/><stop offset=".80982" stop-color="#795bb3"/><stop offset="1" stop-color="#795bb3"/></linearGradient><linearGradient id="aD" gradientTransform="matrix(.8634 0 0 -.8634 76.48 342.746)" gradientUnits="userSpaceOnUse" x1="0" x2="1" xlink:href="#aA" y1="0" y2="0"/><linearGradient id="aE" gradientTransform="matrix(1.5507 .7231 .7231 -1.5507 78.088 340.718)" gradientUnits="userSpaceOnUse" x1="0" x2="1" y1="0" y2="0"><stop offset="0" stop-color="#1f183e"/><stop offset=".44785" stop-color="#3d2668"/><stop offset=".92024" stop-color="#795bb3"/><stop offset="1" stop-color="#795bb3"/></linearGradient><linearGradient id="aF" gradientTransform="matrix(.82234 -.69003 -.69003 -.82234 77.606 343.076)" gradientUnits="userSpaceOnUse" x1="0" x2="1" y1="0" y2="0"><stop offset="0" stop-color="#342869"/><stop offset=".30303" stop-color="#4e3577"/><stop offset="1" stop-color="#68438e"/></linearGradient><linearGradient id="aG" gradientTransform="matrix(.77407 -.28174 -.28174 -.77407 77.014 343.168)" gradientUnits="userSpaceOnUse" x1="0" x2="1" y1="0" y2="0"><stop offset="0" stop-color="#391f6d"/><stop offset=".2" stop-color="#3c2971"/><stop offset="1" stop-color="#62468a"/></linearGradient><linearGradient id="aH" gradientTransform="matrix(.48335 0 0 -.48335 76.604 342.916)" gradientUnits="userSpaceOnUse" x1="0" x2="1" y1="0" y2="0"><stop offset="0" stop-color="#231d48"/><stop offset="1" stop-color="#3b215c"/></linearGradient><linearGradient id="aI" gradientTransform="matrix(-.29249 0 0 .29249 76.815 342.857)" gradientUnits="userSpaceOnUse" x1="0" x2="1" y1="0" y2="0"><stop offset="0" stop-color="#3b215c"/><stop offset=".70909" stop-color="#473783"/><stop offset="1" stop-color="#473783"/></linearGradient><linearGradient id="aJ" gradientTransform="matrix(2.7353 0 0 -2.7353 77.994 340.748)" gradientUnits="userSpaceOnUse" x1="0" x2="1" y1="0" y2="0"><stop offset="0" stop-color="#7e52ae"/><stop offset=".98773" stop-color="#3b215c"/><stop offset="1" stop-color="#3b215c"/></linearGradient><linearGradient id="aK"><stop offset="0" stop-color="#362466"/><stop offset="1" stop-color="#442583"/></linearGradient><linearGradient id="aL" gradientTransform="matrix(3.0489 0 0 -3.0489 75.922 341.022)" gradientUnits="userSpaceOnUse" x1="0" x2="1" xlink:href="#aK" y1="0" y2="0"/><linearGradient id="aM" gradientTransform="matrix(.88396 0 0 -.88396 76.561 342.488)" gradientUnits="userSpaceOnUse" x1="0" x2="1" y1="0" y2="0"><stop offset="0" stop-color="#31214d"/><stop offset=".24699" stop-color="#36255f"/><stop offset="1" stop-color="#3b2883"/></linearGradient><linearGradient id="aN" gradientTransform="matrix(0 -2.2959 -2.2959 0 76.74 341.759)" gradientUnits="userSpaceOnUse" x1="0" x2="1" y1="0" y2="0"><stop offset="0" stop-color="#30205a"/><stop offset="1" stop-color="#442583"/></linearGradient><linearGradient id="aO" gradientTransform="matrix(.54999 0 0 -.54999 76.561 342.34)" gradientUnits="userSpaceOnUse" x1="0" x2="1" xlink:href="#aA" y1="0" y2="0"/><linearGradient id="aP" gradientTransform="matrix(1.4886 .5418 .5418 -1.4886 77.186 341.58)" gradientUnits="userSpaceOnUse" x1="0" x2="1" y1="0" y2="0"><stop offset="0" stop-color="#30205a"/><stop offset=".24699" stop-color="#362466"/><stop offset="1" stop-color="#442583"/></linearGradient><linearGradient id="aQ" gradientTransform="matrix(-1.682 0 0 1.682 78.971 340.86)" gradientUnits="userSpaceOnUse" x1="0" x2="1" xlink:href="#aK" y1="0" y2="0"/><linearGradient id="aR" gradientTransform="matrix(.46795 0 0 -.46795 77.109 340.659)" gradientUnits="userSpaceOnUse" x1="0" x2="1" y1="0" y2="0"><stop offset="0" stop-color="#362466"/><stop offset="1" stop-color="#3d2174"/></linearGradient><linearGradient id="aS" gradientTransform="matrix(-3.0282 0 0 3.0282 78.971 340.444)" gradientUnits="userSpaceOnUse" x1="0" x2="1" y1="0" y2="0"><stop offset="0" stop-color="#30205a"/><stop offset=".5092" stop-color="#7264b8"/><stop offset="1" stop-color="#51369b"/></linearGradient><linearGradient id="aT" gradientTransform="matrix(1.1195 -1.939 -1.939 -1.1195 74.759 342.703)" gradientUnits="userSpaceOnUse" x1="0" x2="1" y1="0" y2="0"><stop offset="0" stop-color="#301a4a"/><stop offset=".54601" stop-color="#422568"/><stop offset="1" stop-color="#5e2590"/></linearGradient><linearGradient id="aU" gradientTransform="matrix(0 .83171 .83171 0 76.509 341.212)" gradientUnits="userSpaceOnUse" x1="0" x2="1" y1="0" y2="0"><stop offset="0" stop-color="#4c2c7a"/><stop offset=".74233" stop-color="#5e2590"/><stop offset="1" stop-color="#5e2590"/></linearGradient><linearGradient id="aV" gradientTransform="matrix(0 .86659 .86659 0 76.008 341.158)" gradientUnits="userSpaceOnUse" x1="0" x2="1" y1="0" y2="0"><stop offset="0" stop-color="#422568"/><stop offset="1" stop-color="#572285"/></linearGradient><linearGradient id="aW" gradientTransform="matrix(-.45484 0 0 .45484 77.171 341.662)" gradientUnits="userSpaceOnUse" x1="0" x2="1" y1="0" y2="0"><stop offset="0" stop-color="#4c2c7a"/><stop offset=".79755" stop-color="#53207e"/><stop offset="1" stop-color="#53207e"/></linearGradient><linearGradient id="aX" gradientTransform="matrix(3.7613 0 0 -3.7613 73.41 341.487)" gradientUnits="userSpaceOnUse" x1="0" x2="1" y1="0" y2="0"><stop offset="0" stop-color="#3b215c"/><stop offset=".53374" stop-color="#9d79c3"/><stop offset="1" stop-color="#5e2590"/></linearGradient><g transform="translate(421.09014 251.26133)"><g fill="#22174b"><path d="m-350.52 388.74c0 2.6476-2.0036 4.9374-4.7943 4.9374-5.009 0-6.6548-5.7961-17.818-5.7961-8.229 0-14.311 5.1521-14.311 12.809 0 19.893 42.862 10.376 42.862 40.859 0 14.955-10.877 28.551-30.555 28.551-11.95 0-25.188-4.5796-25.188-10.877 0-3.0769 1.5742-5.7245 4.7227-5.7245 3.7925 0 9.1592 6.941 20.608 6.941 11.521 0 18.533-8.3721 18.533-18.39 0-21.467-42.934-11.02-42.934-40.644 0-10.519 9.8748-23.184 26.619-23.184 11.234 0 22.254 4.6512 22.254 10.519"/><path d="m-320.18 425.88h16.53c11.02 0 18.533-8.229 18.533-18.533 0-8.873-5.0805-18.819-19.034-18.819h-16.029v37.353zm0 38.211c0 3.6494-2.1467 5.9392-5.5814 5.9392s-5.5814-2.2898-5.5814-5.9392v-79.07c0-3.4347 1.7889-6.0823 5.9392-6.0823h22.111c18.175 0 29.338 12.666 29.338 28.408s-12.451 28.193-28.98 28.193h-17.245v28.551"/><path d="m-251.13 458.94h26.905c3.22 0 5.4383 1.6458 5.4383 5.2236 0 3.5063-2.2183 5.1521-5.4383 5.1521h-32.129c-4.1503 0-5.9392-2.6476-5.9392-6.0823v-78.211c0-3.3632 1.7889-6.0823 5.9392-6.0823h32.129c3.22 0 5.4383 1.6458 5.4383 5.2236s-2.2183 5.2236-5.4383 5.2236h-26.905v29.553h24.472c3.22 0 5.5099 1.6458 5.5099 5.2236s-2.2898 5.2236-5.5099 5.2236h-24.472v29.553"/><path d="m-194.81 464.09c0 3.6494-2.1467 5.9392-5.5814 5.9392s-5.5814-2.2898-5.5814-5.9392v-80c0-3.6494 2.1467-5.9392 5.5814-5.9392s5.5814 2.2898 5.5814 5.9392v33.059l38.712-35.421c2.0751-1.932 3.7925-3.5778 6.0823-3.5778 2.7907 0 4.8659 1.932 4.8659 4.7943 0 2.9338-1.0018 3.9356-2.2898 5.0805l-37.066 33.417 40.501 39.07c1.7174 1.6458 2.2898 2.9338 2.2898 4.5796 0 2.6476-2.4329 4.9374-5.5099 4.9374-1.6458 0-3.1485-.21467-5.4383-2.3614l-42.147-41.431v37.853"/><path d="m-115.31 389.31h-16.887c-3.1485 0-5.4383-1.6458-5.4383-5.2236 0-3.5063 2.2898-5.1521 5.4383-5.1521h44.938c3.1485 0 5.4383 1.6458 5.4383 5.1521 0 3.5778-2.2898 5.2236-5.4383 5.2236h-16.887v74.777c0 3.6494-2.1467 5.9392-5.5814 5.9392s-5.5814-2.2898-5.5814-5.9392v-74.777"/><path d="m-60.5 420.73h15.242c11.664 0 16.744-4.9374 16.744-16.601 0-8.4437-6.5832-15.528-17.03-15.528h-14.955v32.129zm0 43.435c0 3.6494-2.1467 5.9392-5.5814 5.9392s-5.5814-2.2898-5.5814-5.9392v-79.142c0-3.3632 1.7889-6.0823 5.9392-6.0823h20.68c14.24 0 27.692 9.6602 27.692 24.401 0 18.247-11.163 25.116-24.615 25.617l-4.7943.14311 28.766 31.628c1.5742 1.6458 2.1467 3.0054 2.1467 5.0805 0 2.4329-2.2183 4.2934-5.009 4.2934-2.2898 0-3.8641-1.1449-5.0805-2.5045l-34.562-37.853v34.419"/><path d="m-4.5428 384.16c0-3.6494 2.1467-5.9392 5.5814-5.9392s5.5814 2.2898 5.5814 5.9392v53.668c0 14.24 9.6602 22.612 23.9 22.612 14.168 0 23.828-8.3721 23.828-22.612v-53.668c0-3.6494 2.1467-5.9392 5.5814-5.9392s5.5814 2.2898 5.5814 5.9392v49.374c0 30.483-19.535 36.565-34.991 36.565-15.528 0-35.063-6.0823-35.063-36.565v-49.374"/><path d="m87.765 465.24c-.5009 3.9356-3.0769 4.7943-5.9392 4.7943-3.4347 0-5.2236-2.2898-5.2236-5.653 0-1.288.21467-2.9338.64401-5.0805l12.308-72.63c1.1449-6.3685 4.6512-8.5152 8.7299-8.5152 4.4365 0 6.8694 1.6458 8.1575 5.8676l19.249 66.118h.28622l19.32-66.118c1.2165-4.2218 3.6494-5.8676 8.0859-5.8676 4.0787 0 7.6566 2.1467 8.8015 8.5152l12.308 72.63c.35778 2.1467.64401 3.7925.64401 5.0805 0 3.3632-1.7889 5.653-5.2236 5.653-2.9338 0-5.4383-.85868-6.0108-4.7943l-10.519-72.63h-.21467l-21.61 72.916c-1.1449 3.6494-3.1485 4.5081-5.7245 4.5081-2.5045 0-4.5796-.85868-5.7245-4.5081l-21.539-72.916h-.28623l-10.519 72.63"/></g><g clip-path="url(#Z)" transform="matrix(71.556684 0 0 -71.556684 -5619.9536 24606.028)"><path d="m76.025 342.45c-.367.502-.672 1.549-.651 1.97.018.361.046.792-.166 1.421-.285.852-.55 1.214-.786 1.21-.03 0-.056-.012-.078-.033l.001.001c-.179-.102-.165-.741.126-1.785.205-.735.478-1.395.799-1.955.179-.311.483-.734.728-.885l.031-.006z" fill="url(#ab)"/></g><g clip-path="url(#Y)" transform="matrix(71.556684 0 0 -71.556684 -5619.9536 24606.028)"><path d="m74.496 345.25c-.317 1.137-.306 1.794-.074 1.798.236.004.501-.358.786-1.21.212-.629.184-1.06.166-1.421-.021-.421.284-1.468.651-1.97l.004-.062c-.245.151-.556.599-.734.91-.321.559-.594 1.219-.799 1.955" fill="url(#ac)"/></g><g clip-path="url(#X)" transform="matrix(71.556684 0 0 -71.556684 -5619.9536 24606.028)"><path d="m75.258 343.69c.179-.185.319-.384.386-.486-.034.089-.065.179-.093.269-.09.153-.248.407-.424.639-.144.19-.328.42-.456.578.088-.256.185-.501.289-.733.111-.094.233-.201.298-.267" fill="url(#ad)"/></g><g clip-path="url(#W)" transform="matrix(71.556684 0 0 -71.556684 -5619.9536 24606.028)"><path d="m75.295 343.3c-.321.559-.594 1.219-.799 1.955-.277.993-.304 1.62-.151 1.766-.179-.102-.165-.741.126-1.785.205-.735.478-1.395.799-1.955.179-.311.483-.734.728-.885l.031-.006c-.245.151-.556.599-.734.91" fill="url(#ae)"/></g><g clip-path="url(#V)" transform="matrix(71.556684 0 0 -71.556684 -5619.9536 24606.028)"><path d="m75.66 343.16c-.005.015-.011.03-.016.044-.067.102-.207.301-.386.486-.065.066-.187.173-.298.267.037-.081.074-.161.112-.24.088-.05.205-.128.31-.233.124-.123.222-.247.278-.324" fill="url(#af)"/></g><g clip-path="url(#U)" transform="matrix(71.556684 0 0 -71.556684 -5619.9536 24606.028)"><path d="m75.76 342.92c-.035.077-.068.158-.1.239-.056.077-.154.201-.278.324-.105.105-.222.183-.31.233.072-.146.146-.286.223-.42.027-.047.057-.097.089-.149.048-.024.099-.051.143-.075.07-.038.177-.112.233-.152" fill="url(#ah)"/></g><g clip-path="url(#T)" transform="matrix(71.556684 0 0 -71.556684 -5619.9536 24606.028)"><path d="m75.796 342.84c-.012.025-.024.051-.036.078-.056.04-.163.114-.233.152-.044.024-.095.051-.143.075.042-.066.087-.135.135-.204.061-.022.132-.047.17-.062.039-.015.079-.029.107-.039" fill="url(#ai)"/></g><g clip-path="url(#S)" transform="matrix(71.556684 0 0 -71.556684 -5619.9536 24606.028)"><path d="m75.859 342.72c-.021.04-.042.081-.063.124-.028.01-.068.024-.107.039-.038.015-.109.04-.17.062.044-.064.091-.128.139-.189.019-.004.038-.007.052-.01.03-.005.104-.018.149-.026" fill="url(#aj)"/></g><g clip-path="url(#R)" transform="matrix(71.556684 0 0 -71.556684 -5619.9536 24606.028)"><g transform="translate(77.309 347.094)"><path d="m0 0c-.189.279-.418.34-.645.242.002 0 .003.001.005.002-.271-.103-.541-.435-.74-.896-.258-.601-.376-1.276-.367-2.121.004-.41.092-1.133.349-1.68l.018-.01.043.03c-.097.692.036 1.081.182 1.483.05.137.248.487.451.541.372.099.593.459.796.906.152.335.187 1.091-.092 1.503" fill="#b3caec"/></g><g transform="translate(75.95 346.45)"><path d="m0 0c .359.834.952 1.244 1.359.644.279-.412.244-1.169.092-1.503-.203-.448-.424-.807-.796-.906-.203-.054-.401-.405-.451-.541-.146-.402-.279-.792-.182-1.484l-.043-.029c-.257.547-.342 1.287-.346 1.698-.009.845.108 1.52.367 2.121" fill="#b3caec"/></g></g><g clip-path="url(#Q)" transform="matrix(71.556684 0 0 -71.556684 -5619.9536 24606.028)"><path d="m75.95 346.45c.193.449.455.776.719.887-.271-.103-.541-.434-.74-.895-.258-.601-.376-1.276-.367-2.122.004-.41.092-1.132.349-1.679l.018-.011c-.257.547-.342 1.288-.346 1.699-.009.845.108 1.52.367 2.121" fill="url(#ak)"/></g><g clip-path="url(#P)" transform="matrix(71.556684 0 0 -71.556684 -5619.9536 24606.028)"><path d="m76.605 344.68c.372.099.593.458.796.906.073.161.119.422.116.694-.026.106-.065.225-.121.293-.092.111-.257.228-.473.075-.236-.168-.39-.541-.528-1.113-.103-.426-.129-.937-.135-1.187.088.143.215.298.345.332" fill="url(#al)"/></g><g clip-path="url(#O)" transform="matrix(71.556684 0 0 -71.556684 -5619.9536 24606.028)"><path d="m76.733 346.46c-.075-.091-.257-.431-.373-.916-.104-.433-.141-1.046-.153-1.29.016.03.033.061.053.094.006.25.032.761.135 1.187.123.509.258.861.453 1.05-.038-.036-.08-.082-.115-.125" fill="url(#am)"/></g><path d="m-184.01 86.629c-.0716-1.4311-.14311-2.7907-.14311-4.1503-2.0036-16.029-2.2898-29.696-1.3596-41.932-2.2183-4.2218-5.2952-8.9446-9.2308-13.238-3.8641-4.1503-8.3006-7.2272-12.165-9.4455 3.721 23.614 10.161 49.231 20.179 70.626l2.7192-1.8605" fill="#b8d2f0"/><path d="m-207.69-101.35c-2.7907 21.038-4.0787 43.721-3.7925 68.337.0716 7.7997.57245 17.245 1.5742 27.692 4.1503 2.2183 9.1593 5.4383 13.381 10.089 6.6548 7.2272 10.734 15.599 12.88 20.966 2.7907-16.887 7.7997-31.056 13.023-45.51.21467-.5009.42934-1.0018.64401-1.5742-3.0054-10.089-8.5152-26.762-17.603-46.798-6.5832-14.526-14.097-25.617-20.107-33.202" fill="#bcd4f0"/><g clip-path="url(#N)" transform="matrix(71.556684 0 0 -71.556684 -5619.9536 24606.028)"><path d="m78.018 346.15c.746.328 1.419.261 1.689-.464.203-.549-.1-1.518-.796-1.787-.285-.11-.707-.042-1.084.115-.202.085-.441.152-.798-.043-.377-.206-.743-.553-.951-1.142l-.058.007c.018.693.255 1.409.573 1.93.435.713.931 1.167 1.425 1.384" fill="url(#an)"/></g><g clip-path="url(#M)" transform="matrix(71.556684 0 0 -71.556684 -5619.9536 24606.028)"><path d="m78.034 346.14c.57.25 1.098.27 1.435-.058-.336.344-.872.327-1.451.073-.494-.217-.99-.671-1.425-1.384-.318-.521-.555-1.237-.573-1.93l.016-.002c.021.689.256 1.399.573 1.917.435.713.93 1.167 1.425 1.384" fill="url(#ao)"/></g><g clip-path="url(#L)" transform="matrix(71.556684 0 0 -71.556684 -5619.9536 24606.028)"><path d="m76.157 343.36c.028-.014.091-.047.14-.073.146.232.322.409.509.545-.018.085-.057.205-.143.323-.077.105-.173.172-.257.214-.136-.295-.243-.626-.307-.966.023-.02.045-.036.058-.043" fill="url(#ap)"/></g><g clip-path="url(#K)" transform="matrix(71.556684 0 0 -71.556684 -5619.9536 24606.028)"><path d="m76.128 343.18c.022-.041.036-.081.045-.115.038.08.08.155.124.225-.049.026-.112.059-.14.073-.013.007-.035.023-.058.043-.009-.047-.016-.093-.023-.139.017-.027.037-.059.052-.087" fill="url(#aq)"/></g><path d="m-175.06 71.316c1.7889-4.7943 3.721-9.4455 5.7961-13.81-.64401-2.3614-1.6458-5.2952-3.22-8.229-1.0734-2.0036-2.5045-4.2934-3.721-6.2254-1.288 8.229-2.1467 16.458-2.576 24.687l3.721 3.5778" fill="#dfd1ec"/><g clip-path="url(#J)" transform="matrix(71.556684 0 0 -71.556684 -5619.9536 24606.028)"><path d="m79.107 344.71c.086.21.161.554-.182.663-.365.116-1.111-.522-1.301-.712-.134-.135-.376-.462-.506-.644.308.139.524.076.709-.001.208-.086.429-.146.634-.164.148.119.461.409.646.858" fill="url(#ar)"/></g><g clip-path="url(#I)" transform="matrix(71.556684 0 0 -71.556684 -5619.9536 24606.028)"><path d="m77.327 344.42c-.172-.193-.338-.409-.422-.521.041.027.083.051.124.074.031.017.06.031.089.044.13.182.372.509.506.644.124.124.483.437.819.609-.249-.098-.8-.496-1.116-.85" fill="url(#as)"/></g><g clip-path="url(#G)" transform="matrix(71.556684 0 0 -71.556684 -5619.9536 24606.028)"><g clip-path="url(#H)"><path d="m81.039 347.38h-8.3853v-10.081h8.3853z" fill="url(#at)"/></g></g><g clip-path="url(#F)" transform="matrix(71.556684 0 0 -71.556684 -5619.9536 24606.028)"><path d="m80.285 343.04c-.323.224-.777.33-1.292.361-.386.023-.876-.083-1.099-.137.094-.035.174-.081.232-.136.076-.072.215-.296.323-.431.336-.419.602-.547.95-.63.55-.131 1.07.051 1.372.452-.111.161-.287.384-.486.521" fill="url(#au)"/></g><g clip-path="url(#E)" transform="matrix(71.556684 0 0 -71.556684 -5619.9536 24606.028)"><path d="m79.024 343.38c.516-.031.969-.137 1.292-.361.017-.011.033-.023.049-.035-.026.021-.053.042-.08.06-.323.224-.777.33-1.292.361-.386.023-.876-.083-1.099-.137.017-.006.034-.013.05-.02.231.055.705.154 1.08.132" fill="url(#av)"/></g><g clip-path="url(#D)" transform="matrix(71.556684 0 0 -71.556684 -5619.9536 24606.028)"><path d="m76.919 343.44c-.003.076-.03.167-.052.23-.184-.179-.347-.368-.485-.558.006-.037.012-.074.015-.09.004-.015.01-.035.017-.054.163.12.333.207.5.266.005.053.01.127.005.206" fill="url(#aw)"/></g><path d="m-160.82 71.387c2.9338-2.5045 5.8676-4.8659 8.8015-7.0126-.50089-1.3596-.93023-2.8623-1.1449-3.8641-.28623-1.2165-.71557-3.8641-1.0734-6.4401-1.6458 2.2183-3.2916 4.5081-4.7943 6.7263 0 1.5027-.0716 3.2916-.35779 4.7227-.28622 1.5027-.93023 3.8641-1.4311 5.8676" fill="#68438e"/><path d="m-160.89 71.459s.0716-.07156.0716-.07156c.50089-2.0036 1.1449-4.365 1.4311-5.8676.28623-1.4311.35778-3.2201.35778-4.7227-1.7174 2.576-3.3632 5.0805-5.009 7.5135l3.1485 3.1485" fill="#8f6eb2"/><g clip-path="url(#B)" transform="matrix(71.556684 0 0 -71.556684 -5619.9536 24606.028)"><g clip-path="url(#C)"><path d="m81.039 347.38h-8.3853v-10.081h8.3853z" fill="url(#ax)"/></g></g><g clip-path="url(#z)" transform="matrix(71.556684 0 0 -71.556684 -5619.9536 24606.028)"><g clip-path="url(#A)"><path d="m81.039 347.38h-8.3853v-10.081h8.3853z" fill="url(#ay)"/></g></g><g clip-path="url(#y)" transform="matrix(71.556684 0 0 -71.556684 -5619.9536 24606.028)"><path d="m75.395 342.65s.102-.013.157-.022c.071-.01.137-.033.137-.033l.085-.056s-.054.007-.104.005c-.041-.002-.079-.013-.079-.013z" fill="url(#az)"/></g><g clip-path="url(#x)" transform="matrix(71.556684 0 0 -71.556684 -5619.9536 24606.028)"><path d="m80.445 342.36c-.484.696-1.328.94-2.079.945-.692.004-1.467-.264-1.887-.507l.001-.046.022-.016c.331.065.611.048.836-.022.359-.123.581-.38.635-.64.048-.232.041-.48.029-.65-.029-.419.017-.702.299-1.021.514-.582 1.364-.497 1.886-.033.554.492.758 1.273.258 1.99" fill="url(#aB)"/></g><g clip-path="url(#w)" transform="matrix(71.556684 0 0 -71.556684 -5619.9536 24606.028)"><path d="m80.445 342.36c-.484.696-1.328.94-2.079.945-.017 0-.033 0-.049-.001.056-.131.129-.355.102-.6-.028-.259-.082-.392-.154-.498.539-.116 1.057-.382 1.397-.871.269-.386.334-.791.251-1.158.098.053.19.118.274.193.554.492.758 1.273.258 1.99" fill="url(#aC)"/></g><g clip-path="url(#v)" transform="matrix(71.556684 0 0 -71.556684 -5619.9536 24606.028)"><path d="m76.48 342.75.022-.016c.333.065.616.048.842-.024-.233.082-.524.107-.864.04" fill="url(#aD)"/></g><g clip-path="url(#u)" transform="matrix(71.556684 0 0 -71.556684 -5619.9536 24606.028)"><path d="m79.662 341.33c-.34.489-.858.755-1.397.871-.04-.06-.087-.112-.138-.173-.026-.031-.078-.066-.132-.098.023-.188.016-.375.007-.511-.029-.419.017-.702.299-1.021.431-.489 1.099-.507 1.612-.226.083.367.018.772-.251 1.158" fill="url(#aE)"/></g><g clip-path="url(#t)" transform="matrix(71.556684 0 0 -71.556684 -5619.9536 24606.028)"><path d="m78.127 342.03c.14.168.248.265.292.671.027.245-.046.469-.102.6-.128-.001-.259-.012-.389-.029-.047-.077-.119-.181-.21-.273-.107-.107-.29-.213-.412-.277.378-.119.612-.383.667-.651.009-.046.017-.093.022-.139.054.032.106.067.132.098" fill="url(#aF)"/></g><g clip-path="url(#s)" transform="matrix(71.556684 0 0 -71.556684 -5619.9536 24606.028)"><path d="m77.088 343.06c-.017-.042-.043-.095-.102-.164-.033-.039-.075-.081-.111-.116.159-.001.304-.025.431-.065.122.064.305.17.412.277.091.092.163.196.21.273-.292-.04-.582-.115-.84-.205" fill="url(#aG)"/></g><g clip-path="url(#r)" transform="matrix(71.556684 0 0 -71.556684 -5619.9536 24606.028)"><path d="m76.986 342.9c.059.069.085.122.102.164-.096-.034-.188-.069-.273-.106-.025-.028-.059-.063-.1-.1-.026-.024-.07-.06-.111-.092.095.013.185.019.271.018.036.035.078.077.111.116" fill="url(#aH)"/></g><g clip-path="url(#q)" transform="matrix(71.556684 0 0 -71.556684 -5619.9536 24606.028)"><path d="m76.682 342.9c-.019-.023-.044-.05-.066-.073-.02-.02-.06-.049-.093-.072.027.005.055.01.081.013.041.032.085.068.111.092.041.037.075.072.1.1-.046-.02-.09-.04-.133-.06" fill="url(#aI)"/></g><g clip-path="url(#p)" transform="matrix(71.556684 0 0 -71.556684 -5619.9536 24606.028)"><path d="m80.187 340.39c-.522-.464-1.372-.55-1.886.033-.234.264-.305.5-.307.811-.001-.32.069-.563.307-.832.514-.582 1.364-.497 1.886-.033.338.3.545.708.543 1.143-.003-.427-.21-.827-.543-1.122" fill="url(#aJ)"/></g><g clip-path="url(#o)" transform="matrix(71.556684 0 0 -71.556684 -5619.9536 24606.028)"><path d="m78.388 342.12c-.491.357-1.381.47-1.8.454l-.027-.042.002-.018c.302-.058.477-.206.548-.375.066-.157.053-.33-.029-.464-.131-.218-.44-.438-.552-.52-.442-.323-.608-.618-.608-.98 0-.484.466-.735 1.044-.716.603.02 1.625.354 1.939 1.279.176.517-.001 1.008-.517 1.382" fill="url(#aL)"/></g><g clip-path="url(#n)" transform="matrix(71.556684 0 0 -71.556684 -5619.9536 24606.028)"><path d="m78.905 340.74c-.314-.925-1.336-1.259-1.939-1.279-.578-.019-1.044.232-1.044.716 0 .362.166.657.608.98.112.082.421.302.552.52.174.287.036.752-.521.857l.027.042c.419.016 1.309-.097 1.8-.454.516-.374.693-.865.517-1.382" fill="url(#aL)"/></g><g clip-path="url(#m)" transform="matrix(71.556684 0 0 -71.556684 -5619.9536 24606.028)"><path d="m77.209 342.42c.096.019.176.048.236.074-.331.069-.651.092-.857.084l-.027-.042c.142-.027.257-.077.346-.142.08-.001.189.003.302.026" fill="url(#aM)"/></g><g clip-path="url(#l)" transform="matrix(71.556684 0 0 -71.556684 -5619.9536 24606.028)"><path d="m77.514 340.84c-.052.42-.281.773-.393.923-.01-.027-.023-.054-.039-.079-.131-.218-.44-.438-.552-.52-.442-.323-.608-.618-.608-.98 0-.484.466-.735 1.044-.716.172.006.377.037.59.1.005.329.004.895-.042 1.272" fill="url(#aN)"/></g><g clip-path="url(#k)" transform="matrix(71.556684 0 0 -71.556684 -5619.9536 24606.028)"><path d="m76.561 342.54.002-.018c.302-.058.477-.206.548-.375-.075.179-.253.337-.55.393" fill="url(#aO)"/></g><path d="m-24.149 116.47c-16.029-8.4437-35.277-14.383-54.097-18.247-4.2934 1.8605-10.018 3.9356-16.887 5.2952-8.0859 1.6458-15.957 1.932-21.61 1.8605 3.5778 2.576 6.5832 5.5099 9.0161 8.6584 10.233 1.7889 26.19 4.0787 40.573 4.1503 10.59.0716 28.766-.85868 43.006-1.7174" fill="#442583"/><g clip-path="url(#j)" transform="matrix(71.556684 0 0 -71.556684 -5619.9536 24606.028)"><path d="m78.915 341.46c-.083.244-.259.47-.527.664-.057.042-.12.08-.187.115-.198-.012-.453-.025-.6-.024-.202.001-.425.034-.567.058.124-.157.148-.353.087-.515.03-.04.069-.096.111-.164.195-.07.507-.162.852-.185.331-.022.652.02.831.051" fill="url(#aP)"/></g><g clip-path="url(#i)" transform="matrix(71.556684 0 0 -71.556684 -5619.9536 24606.028)"><path d="m78.915 341.46c-.179-.031-.5-.073-.831-.051-.244.016-.471.067-.652.12-.017-.006-.035-.012-.053-.016-.027-.007-.059-.013-.09-.017.096-.175.193-.406.225-.661.016-.136.027-.297.034-.462.141-.075.323-.142.552-.174.168-.023.355-.009.512.022.124.148.225.321.293.521.085.249.087.491.01.718" fill="url(#aQ)"/></g><path d="m-79.176 167.27c-5.3668-1.5742-10.233-3.22-14.311-4.6512 1.3596 2.1467 2.7192 4.5081 4.0787 7.0126 2.2183-.28623 4.5081-.64401 6.5117-1.2165 1.288-.28623 2.5045-.71557 3.7209-1.1449" fill="#30205a"/><g clip-path="url(#h)" transform="matrix(71.556684 0 0 -71.556684 -5619.9536 24606.028)"><path d="m77.514 340.84c-.052.42-.281.773-.393.923-.006-.015-.005-.012-.012-.027.115-.158.331-.508.381-.914.045-.369.053-.927.049-1.259.01.003.007.002.017.005.005.329.004.895-.042 1.272" fill="url(#aR)"/></g><g clip-path="url(#g)" transform="matrix(71.556684 0 0 -71.556684 -5619.9536 24606.028)"><path d="m78.927 341.42c.056-.208.046-.428-.03-.653-.315-.925-1.337-1.259-1.939-1.279-.494-.016-.905.165-1.015.519.096-.373.516-.564 1.023-.548.603.02 1.625.354 1.939 1.279.08.236.087.466.022.682" fill="url(#aS)"/></g><g clip-path="url(#f)" transform="matrix(71.556684 0 0 -71.556684 -5619.9536 24606.028)"><path d="m76.508 342.35-.044-.002v-.027c.037-.043.054-.078.057-.108-.013-.112-.207-.169-.416-.194-.151-.018-.473-.009-.651.013-.366.046-.679.092-.981.094-.47.003-1.078-.046-1.063-.318.017-.304 1.076-.591 1.729-.638.544-.039 1.673-.052 1.969.346.234.315-.229.654-.6.834" fill="url(#aT)"/></g><g clip-path="url(#e)" transform="matrix(71.556684 0 0 -71.556684 -5619.9536 24606.028)"><path d="m75.139 341.17c-.653.047-1.712.334-1.729.638-.015.272.593.321 1.063.318.302-.002.615-.048.981-.094.178-.022.5-.031.651-.013.281.034.535.125.359.329l.044.002c.371-.18.834-.519.6-.834-.296-.398-1.425-.385-1.969-.346" fill="url(#aT)"/></g><path d="m-148.44 108.45v2.0036c2.6476 3.0054 3.9356 5.5814 4.0787 7.7281.35778-2.7907-.85868-6.0108-4.0787-9.7317" fill="#29163e"/><g clip-path="url(#d)" transform="matrix(71.556684 0 0 -71.556684 -5619.9536 24606.028)"><path d="m76.439 341.7c-.098.135-.165.262-.206.347-.023-.004-.046-.008-.07-.012.019-.089.054-.245.094-.385.045-.16.118-.328.167-.434.16.027.309.066.431.121-.118.082-.322.233-.416.363" fill="url(#aU)"/></g><g clip-path="url(#c)" transform="matrix(71.556684 0 0 -71.556684 -5619.9536 24606.028)"><path d="m76.066 341.58c-.033.151.02.352.047.44-.003 0-.005-.001-.008-.001-.015-.002-.032-.003-.05-.005-.057-.081-.179-.267-.225-.463-.037-.153-.03-.3-.017-.397.132.003.268.011.401.025-.045.081-.108.22-.148.401" fill="url(#aV)"/></g><g clip-path="url(#b)" transform="matrix(71.556684 0 0 -71.556684 -5619.9536 24606.028)"><path d="m77.108 341.52c.051.068.069.138.062.206-.034.006-.07.014-.101.024-.104.033-.352.141-.352.141s.098-.225.165-.311c.05-.064.099-.112.14-.147.033.026.062.055.086.087" fill="url(#aW)"/></g><g clip-path="url(#a)" transform="matrix(71.556684 0 0 -71.556684 -5619.9536 24606.028)"><path d="m77.168 341.74c.006-.064-.012-.131-.063-.198-.299-.395-1.425-.385-1.969-.346-.639.047-1.665.322-1.726.618v-.006c.017-.304 1.076-.591 1.729-.638.544-.039 1.673-.052 1.969.346.055.074.072.15.06.224" fill="url(#aX)"/></g></g></svg>