<svg height="1014.0022mm" viewBox="0 0 734 1014.0022" width="734mm" xmlns="http://www.w3.org/2000/svg" xmlns:xlink="http://www.w3.org/1999/xlink"><clipPath id="a"><path d="m371.516 127.884h16.69v7.006h-16.69z"/></clipPath><clipPath id="b"><path d="m374.859 130.353h.376v-.208h-.376z"/></clipPath><clipPath id="c"><path d="m375.30207 130.32885-.1111-.30525-.39925.14532.1111.30524z"/></clipPath><linearGradient id="d" gradientTransform="matrix(-.0483412 -.1328164 -.1328164 .0483412 375.06314 130.2924)" gradientUnits="userSpaceOnUse" spreadMethod="pad" x1="0" x2="1" y1="0" y2="0"><stop offset="0" stop-color="#af2a1c"/><stop offset=".209473" stop-color="#e04e15"/><stop offset=".563599" stop-color="#f39600"/><stop offset="1" stop-color="#f39600"/></linearGradient><clipPath id="e"><path d="m374.94109 130.54572h.74965v-.3484h-.74965z"/></clipPath><linearGradient id="f" gradientTransform="matrix(.7496395 0 0 -.7496395 374.94111 130.38301)" gradientUnits="userSpaceOnUse" spreadMethod="pad" x1="0" x2="1" y1="0" y2="0"><stop offset="0" stop-color="#e04e15"/><stop offset=".627182" stop-color="#f39600"/><stop offset="1" stop-color="#f39600"/></linearGradient><clipPath id="g"><path d="m371.516 127.884h16.69v7.006h-16.69z"/></clipPath><clipPath id="h"><path d="m375.066 130.923h.231v-.209h-.231z"/></clipPath><clipPath id="i"><path d="m375.066 130.714h.231v.209h-.231z"/></clipPath><clipPath id="j"><path d="m374.907 130.865h.245v-.171h-.245z"/></clipPath><clipPath id="k"><path d="m374.907 130.694h.246v.171h-.246z"/></clipPath><clipPath id="l"><path d="m375.087 133.845c-.063-.077-.218-.366-.316-.777-.088-.368-.121-.89-.131-1.097.014.026.029.053.045.08.006.213.027.647.115 1.009.105.432.219.73.385.891-.033-.031-.069-.07-.098-.106"/></clipPath><clipPath id="m"><path d="m371.516 127.884h16.69v7.006h-16.69z"/></clipPath><clipPath id="n"><path d="m372.28716 129.3075h3.17798v.52014h-3.17798z"/></clipPath><linearGradient id="o" gradientUnits="userSpaceOnUse" spreadMethod="pad" x1="372.27363" x2="375.4707737" y1="129.53727" y2="129.53727"><stop offset="0" stop-color="#e35014"/><stop offset=".533737" stop-color="#f39600"/><stop offset=".689529" stop-color="#ffd100"/><stop offset="1" stop-color="#e36210"/></linearGradient><clipPath id="p"><path d="m371.516 127.884h16.69v7.006h-16.69z"/></clipPath><clipPath id="q"><path d="m374.64633 129.33745v.73602h-.35725v-.73602z"/></clipPath><linearGradient id="r" gradientTransform="matrix(0 .7361987 -.7361987 0 374.46787 129.33737)" gradientUnits="userSpaceOnUse" spreadMethod="pad" x1="0" x2="1" y1="0" y2="0"><stop offset="0" stop-color="#f29300"/><stop offset="1" stop-color="#ef8300"/></linearGradient><clipPath id="s"><path d="m371.516 127.884h16.69v7.006h-16.69z"/></clipPath><clipPath id="t"><path d="m371.79952 130.0918 1.29082-2.23577 2.96683 1.7129-1.29082 2.23576z"/></clipPath><linearGradient id="u" gradientTransform="matrix(.9507836 -1.646804 1.6468046 .9507836 373.44542 130.66828)" gradientUnits="userSpaceOnUse" spreadMethod="pad" x1="0" x2="1" y1="0" y2="0"><stop offset="0" stop-color="#dc231a"/><stop offset=".663345" stop-color="#f08a00"/><stop offset=".950119" stop-color="#ef8300"/><stop offset="1" stop-color="#e04e15"/></linearGradient><clipPath id="v"><path d="m377.00554 129.56446h-2.5897v-1.67922h2.5897z"/></clipPath><linearGradient id="w" gradientTransform="matrix(-2.5722104 0 0 -2.5722104 376.99067 128.7262)" gradientUnits="userSpaceOnUse" spreadMethod="pad" x1="0" x2="1" y1="0" y2="0"><stop offset="0" stop-color="#ffd800"/><stop offset=".260605" stop-color="#e36210"/><stop offset="1" stop-color="#131513"/></linearGradient><clipPath id="x"><path d="m375.406 129.825c.097-.133.282-.431.324-.776.038-.313.045-.787.042-1.069.009.003.006.001.014.004.004.279.004.76-.036 1.08-.043.357-.238.657-.333.784-.005-.013-.004-.009-.011-.023"/></clipPath><clipPath id="y"><path d="m375.406 129.848h.384v-1.868h-.384z"/></clipPath><clipPath id="z"><path d="m375.4062 127.98001h.38384v1.86844h-.38384z"/></clipPath><linearGradient id="A" gradientUnits="userSpaceOnUse" spreadMethod="pad" x1="375.40645" x2="375.8036078" y1="128.91403" y2="128.91403"><stop offset="0" stop-color="#e36210"/><stop offset=".463852" stop-color="#f29300"/><stop offset="1" stop-color="#f29300"/></linearGradient><clipPath id="B"><path d="m371.516 127.884h16.69v7.006h-16.69z"/></clipPath><clipPath id="C"><path d="m375.636 129.64c-.024-.006-.051-.01-.077-.014.082-.149.165-.345.191-.562.014-.116.023-.252.029-.392.12-.064.274-.121.47-.148.142-.019.301-.008.434.019.105.126.191.272.249.442.072.212.074.418.009.61-.152-.027-.425-.062-.707-.043-.207.014-.399.057-.553.102-.015-.005-.03-.01-.045-.014"/></clipPath><clipPath id="D"><path d="m375.559 129.654h1.447v-1.149h-1.447z"/></clipPath><clipPath id="E"><path d="m377.00599 129.65398h-1.44678v-1.14922h1.44678z"/></clipPath><linearGradient id="F" gradientTransform="matrix(-1.4280103 0 0 -1.4280103 376.98723 129.08004)" gradientUnits="userSpaceOnUse" spreadMethod="pad" x1="0" x2="1" y1="0" y2="0"><stop offset="0" stop-color="#f29500"/><stop offset="1" stop-color="#fbbd00"/></linearGradient><clipPath id="G"><path d="m375.417 129.848c.025-.034.058-.082.094-.139.165-.06.431-.138.723-.157.282-.019.555.016.707.043-.071.207-.221.399-.448.564-.049.036-.102.068-.159.098-.169-.011-.385-.022-.51-.021-.171.001-.36.029-.482.05.106-.134.126-.3.075-.438"/></clipPath><clipPath id="H"><path d="m375.101 130.799h2.081v-1.779h-2.081z"/></clipPath><clipPath id="I"><path d="m375.34439 128.35097 2.40989.87713-.8154 2.24029-2.40989-.87714z"/></clipPath><linearGradient id="J" gradientTransform="matrix(1.2643346 .4601812 -.4601812 1.2643346 375.48228 129.67053)" gradientUnits="userSpaceOnUse" spreadMethod="pad" x1="0" x2="1" y1="0" y2="0"><stop offset="0" stop-color="#e36210"/><stop offset=".246994" stop-color="#f29300"/><stop offset="1" stop-color="#f29300"/></linearGradient><clipPath id="K"><path d="m371.516 127.884h16.69v7.006h-16.69z"/></clipPath><clipPath id="L"><path d="m373.54733 128.3746 1.89475-1.09393 1.19887 2.0765-1.89475 1.09393z"/></clipPath><linearGradient id="M" gradientTransform="matrix(1.8806468 -1.0857916 1.0857916 1.8806468 374.1439 129.41549)" gradientUnits="userSpaceOnUse" spreadMethod="pad" x1="0" x2="1" y1="0" y2="0"><stop offset="0" stop-color="#131513"/><stop offset=".187027" stop-color="#131513"/><stop offset=".414886" stop-color="#e04916"/><stop offset=".601059" stop-color="#ee7f02"/><stop offset="1" stop-color="#ee7f02"/></linearGradient><clipPath id="N"><path d="m374.964 130.544-.023-.035c.473-.089.59-.484.443-.728-.112-.185-.374-.372-.469-.441-.376-.275-.517-.526-.517-.833 0-.411.396-.623.888-.608.511.017 1.378.301 1.646 1.086.149.439-.001.856-.439 1.174-.391.284-1.08.387-1.459.387-.025 0-.048-.001-.07-.002"/></clipPath><clipPath id="O"><path d="m371.516 127.884h16.69v7.006h-16.69z"/></clipPath><clipPath id="P"><path d="m374.964 130.544-.023-.035.002-.015c.256-.049.405-.175.465-.319.056-.133.045-.28-.024-.394-.112-.185-.374-.372-.469-.441-.376-.275-.517-.526-.517-.833 0-.411.396-.623.888-.608.511.017 1.378.301 1.646 1.086.149.439-.001.856-.439 1.174-.391.284-1.08.387-1.459.387-.025 0-.048-.001-.07-.002"/></clipPath><clipPath id="Q"><path d="m376.15744 128.19776h2.32646v1.43703h-2.32646z"/></clipPath><linearGradient id="R" gradientUnits="userSpaceOnUse" spreadMethod="pad" x1="376.15663" x2="378.4789288" y1="128.91461" y2="128.91461"><stop offset="0" stop-color="#fbbd00"/><stop offset=".306747" stop-color="#f29300"/><stop offset=".987732" stop-color="#e36210"/><stop offset="1" stop-color="#e36210"/></linearGradient><clipPath id="S"><path d="m375.05759 130.71898.9398-.34206.25471.69983-.93979.34205z"/></clipPath><linearGradient id="T" gradientTransform="matrix(.6574772 -.2393013 .2393013 .6574772 375.3157 131.02154)" gradientUnits="userSpaceOnUse" spreadMethod="pad" x1="0" x2="1" y1="0" y2="0"><stop offset="0" stop-color="#ffd800"/><stop offset=".862839" stop-color="#fbbd00"/><stop offset="1" stop-color="#fbbd00"/></linearGradient><clipPath id="U"><path d="m375.00136 130.47394 1.14078-.95723.97272 1.15924-1.14079.95723z"/></clipPath><linearGradient id="V" gradientTransform="matrix(.6988167 -.5863761 .5863761 .6988167 375.72927 130.85123)" gradientUnits="userSpaceOnUse" spreadMethod="pad" x1="0" x2="1" y1="0" y2="0"><stop offset="0" stop-color="#fbbd00"/><stop offset=".117203" stop-color="#fbbd00"/><stop offset="1" stop-color="#ffd800"/></linearGradient><clipPath id="W"><path d="m376.271 130.076c-.022-.025-.067-.056-.112-.083.019-.16.014-.318.006-.434-.024-.355.014-.595.254-.867.366-.415.934-.43 1.369-.192.071.312.015.656-.213.984-.29.415-.729.641-1.186.74-.035-.052-.075-.096-.118-.148"/></clipPath><clipPath id="X"><path d="m375.389 130.882h3.221v-3.279h-3.221z"/></clipPath><clipPath id="Y"><path d="m375.96392 126.36933 3.90196 1.81952-1.83117 3.92695-3.90196-1.81951z"/></clipPath><linearGradient id="Z" gradientTransform="matrix(1.3174074 .6143174 -.6143174 1.3174074 376.26807 128.90312)" gradientUnits="userSpaceOnUse" spreadMethod="pad" x1="0" x2="1" y1="0" y2="0"><stop offset="0" stop-color="#ffd000"/><stop offset=".428925" stop-color="#ffd800"/><stop offset=".920242" stop-color="#ffe800"/><stop offset="1" stop-color="#ffee59"/></linearGradient><clipPath id="aa"><path d="m374.872 130.687.019-.013c.283.055.522.04.715-.02-.12.041-.257.066-.411.066-.101 0-.208-.01-.323-.033"/></clipPath><clipPath id="ab"><path d="m375.08042 130.05908 2.24846-2.67961 2.64363 2.21827-2.24846 2.67961z"/></clipPath><linearGradient id="ac" gradientTransform="matrix(1.8841706 -2.245466 2.245466 1.8841706 376.41397 131.14331)" gradientUnits="userSpaceOnUse" spreadMethod="pad" x1="0" x2="1" y1="0" y2="0"><stop offset="0" stop-color="#fbbd00"/><stop offset=".809814" stop-color="#ffd000"/><stop offset="1" stop-color="#ffe800"/></linearGradient><clipPath id="ad"><path d="m374.87158 128.19775h3.79272v2.95906h-3.79272z"/></clipPath><linearGradient id="ae" gradientUnits="userSpaceOnUse" spreadMethod="pad" x1="374.86996" x2="378.4804543" y1="129.67512" y2="129.67512"><stop offset="0" stop-color="#fbbd00"/><stop offset="1" stop-color="#ffd000"/></linearGradient><clipPath id="af"><path d="m374.117 130.505s.032.009.068.011c.041.002.087-.003.087-.003l-.072.047s-.056.019-.116.028c-.047.007-.133.018-.133.018z"/></clipPath><clipPath id="ag"><path d="m373.95 130.607h.322v-.101h-.322z"/></clipPath><clipPath id="ah"><path d="m373.95046 130.50576h.32204v.10087h-.32204z"/></clipPath><linearGradient id="ai" gradientUnits="userSpaceOnUse" spreadMethod="pad" x1="373.95033" x2="374.2724012" y1="130.55598" y2="130.55598"><stop offset="0" stop-color="#ffd000"/><stop offset=".920242" stop-color="#ffee59"/><stop offset="1" stop-color="#ffd800"/></linearGradient><clipPath id="aj"><path d="m370.29264 131.44887 2.79593-2.79593 2.79593 2.79593-2.79593 2.79592z"/></clipPath><linearGradient id="ak" gradientTransform="matrix(2.7057599 -2.7057599 2.7057599 2.7057599 371.75436 132.78296)" gradientUnits="userSpaceOnUse" spreadMethod="pad" x1="0" x2="1" y1="0" y2="0"><stop offset="0" stop-color="#e36210"/><stop offset=".330963" stop-color="#ffe800"/><stop offset=".840485" stop-color="#ffee59"/><stop offset="1" stop-color="#ffee59"/></linearGradient><clipPath id="al"><path d="m373.36682 128.66808 2.51405 2.99613-3.06181 2.56916-2.51405-2.99613z"/></clipPath><linearGradient id="am" gradientTransform="matrix(.2538506 .3025273 -.3025273 .2538506 372.93434 131.26049)" gradientUnits="userSpaceOnUse" spreadMethod="pad" x1="0" x2="1" y1="0" y2="0"><stop offset="0" stop-color="#ffd000"/><stop offset=".847885" stop-color="#ffd800"/><stop offset="1" stop-color="#ffd000"/></linearGradient><clipPath id="an"><path d="m371.516 127.884h16.69v7.006h-16.69z"/></clipPath><clipPath id="ao"><path d="m375.05912 131.69806-.56372-.47302.4839-.57669.56372.47302z"/></clipPath><linearGradient id="ap" gradientTransform="matrix(-.5199988 -.4363314 .4363314 -.5199988 375.27362 131.38571)" gradientUnits="userSpaceOnUse" spreadMethod="pad" x1="0" x2="1" y1="0" y2="0"><stop offset="0" stop-color="#ffee59"/><stop offset="1" stop-color="#ffd800"/></linearGradient><clipPath id="aq"><path d="m378.17194 131.24707h-2.09876v-.36042h2.09876z"/></clipPath><linearGradient id="ar" gradientTransform="matrix(-2.0992402 0 0 -2.0992402 378.17166 131.0629)" gradientUnits="userSpaceOnUse" spreadMethod="pad" x1="0" x2="1" y1="0" y2="0"><stop offset="0" stop-color="#ffe800"/><stop offset=".613495" stop-color="#ffee59"/><stop offset=".952621" stop-color="#fff49f"/><stop offset="1" stop-color="#fff49f"/></linearGradient><clipPath id="as"><path d="m376.073 131.128c.08-.03.148-.068.197-.116.065-.06.183-.251.275-.365.285-.356.511-.465.807-.536.466-.111.908.043 1.165.384-.095.136-.244.326-.413.443-.274.19-.659.28-1.098.306-.031.002-.064.003-.097.003-.309 0-.665-.077-.836-.119"/></clipPath><clipPath id="at"><path d="m375.673 132.032h3.244v-2.817h-3.244z"/></clipPath><clipPath id="au"><path d="m374.76722 131.70274 1.2849-3.53024 3.77031 1.37229-1.28491 3.53024z"/></clipPath><linearGradient id="av" gradientTransform="matrix(.5464059 -1.5012351 1.5012356 .5464059 376.99067 131.46154)" gradientUnits="userSpaceOnUse" spreadMethod="pad" x1="0" x2="1" y1="0" y2="0"><stop offset="0" stop-color="#fff49f"/><stop offset=".339401" stop-color="#ffee59"/><stop offset=".751511" stop-color="#ffe800"/><stop offset="1" stop-color="#ffd800"/></linearGradient><clipPath id="aw"><path d="m374.67365 129.97009h4.20569v2.39488h-4.20569z"/></clipPath><linearGradient id="ax" gradientUnits="userSpaceOnUse" spreadMethod="pad" x1="374.67236" x2="378.7415962" y1="131.16859" y2="131.16859"><stop offset="0" stop-color="#ffd800"/><stop offset=".375763" stop-color="#ffee59"/><stop offset="1" stop-color="#ffd800"/></linearGradient><clipPath id="ay"><path d="m374.67364 132.38628h4.20572v-2.39487h-4.20572z"/></clipPath><linearGradient id="az" gradientTransform="matrix(4.0705667 0 0 -4.0705667 374.67365 131.24175)" gradientUnits="userSpaceOnUse" spreadMethod="pad" x1="0" x2="1" y1="0" y2="0"><stop offset="0" stop-color="#e04e15"/><stop offset=".471329" stop-color="#f39600"/><stop offset=".849121" stop-color="#e04e15"/><stop offset="1" stop-color="#e04e15"/></linearGradient><clipPath id="aA"><path d="m375.23338 131.66788h1.30572v1.16396h-1.30572z"/></clipPath><linearGradient id="aB" gradientUnits="userSpaceOnUse" spreadMethod="pad" x1="375.23298" x2="376.5390591" y1="132.25192" y2="132.25192"><stop offset="0" stop-color="#ffd800"/><stop offset=".15152" stop-color="#ffee59"/><stop offset=".72728" stop-color="#fff49f"/><stop offset="1" stop-color="#ffe800"/></linearGradient><clipPath id="aC"><path d="m375.41375 131.62799h1.82616v1.3037h-1.82616z"/></clipPath><linearGradient id="aD" gradientUnits="userSpaceOnUse" spreadMethod="pad" x1="375.4145" x2="377.1656086" y1="132.28294" y2="132.28294"><stop offset="0" stop-color="#ffee59"/><stop offset=".00605774" stop-color="#ffee59"/><stop offset=".454544" stop-color="#ffee59"/><stop offset="1" stop-color="#fff49f"/></linearGradient><clipPath id="aE"><path d="m374.52877 130.95646h.18793v.28939h-.18793z"/></clipPath><linearGradient id="aF" gradientUnits="userSpaceOnUse" spreadMethod="pad" x1="374.51641" x2="374.7168288" y1="131.10109" y2="131.10109"><stop offset="0" stop-color="#fff49f"/><stop offset="1" stop-color="#ffd800"/></linearGradient><clipPath id="aG"><path d="m374.56682 132.16961-.17523-.99377.73904-.13031.17523.99377z"/></clipPath><linearGradient id="aH" gradientTransform="matrix(-.1607649 -.911744 .911744 -.1607649 374.9251 132.05088)" gradientUnits="userSpaceOnUse" spreadMethod="pad" x1="0" x2="1" y1="0" y2="0"><stop offset="0" stop-color="#fff49f"/><stop offset="1" stop-color="#ffee59"/></linearGradient><clipPath id="aI"><path d="m374.82449 129.82331 3.56122 1.29617-1.31745 3.61967-3.56122-1.29618z"/></clipPath><linearGradient id="aJ" gradientTransform="matrix(3.472105 1.2637422 -1.2637417 3.472105 374.16458 131.6465)" gradientUnits="userSpaceOnUse" spreadMethod="pad" x1="0" x2="1" y1="0" y2="0"><stop offset="0" stop-color="#f29300"/><stop offset=".678787" stop-color="#ffd800"/><stop offset="1" stop-color="#f29300"/></linearGradient><clipPath id="aK"><path d="m374.48185 130.76085h3.30398v2.98034h-3.30398z"/></clipPath><linearGradient id="aL" gradientUnits="userSpaceOnUse" spreadMethod="pad" x1="374.48395" x2="377.6686334" y1="132.25307" y2="132.25307"><stop offset="0" stop-color="#ffee59"/><stop offset=".454544" stop-color="#fff49f"/><stop offset=".866669" stop-color="#ffee59"/><stop offset="1" stop-color="#ffe800"/></linearGradient><clipPath id="aM"><path d="m371.516 127.884h16.69v7.006h-16.69z"/></clipPath><clipPath id="aN"><path d="m373.69283 132.88404 1.62085-1.36004 1.43497 1.71013-1.62084 1.36004z"/></clipPath><linearGradient id="aO" gradientTransform="matrix(.7734725 -.6490204 .6490204 .7734725 374.75967 133.44755)" gradientUnits="userSpaceOnUse" spreadMethod="pad" x1="0" x2="1" y1="0" y2="0"><stop offset="0" stop-color="#fff49f"/><stop offset=".314209" stop-color="#ffee59"/><stop offset="1" stop-color="#ffe800"/></linearGradient><clipPath id="aP"><path d="m375.03237 130.58844v3.99739h-.94714v-3.99739z"/></clipPath><linearGradient id="aQ" gradientTransform="matrix(0 3.9983987 -3.9983982 0 374.55748 130.58499)" gradientUnits="userSpaceOnUse" spreadMethod="pad" x1="0" x2="1" y1="0" y2="0"><stop offset="0" stop-color="#ffd000"/><stop offset=".736191" stop-color="#ffe800"/><stop offset=".90184" stop-color="#ffd000"/><stop offset="1" stop-color="#f29300"/></linearGradient><clipPath id="aR"><path d="m371.516 127.884h16.69v7.006h-16.69z"/></clipPath><clipPath id="aS"><path d="m374.40596 130.83145-.31631.11512-.0952-.26159.31631-.11512z"/></clipPath><linearGradient id="aT"><stop offset="0" stop-color="#ffd800"/><stop offset="1" stop-color="#ffe800"/></linearGradient><linearGradient id="aU" gradientTransform="matrix(-.316418 .1151656 -.1151656 -.316418 374.35873 130.70044)" gradientUnits="userSpaceOnUse" spreadMethod="pad" x1="0" x2="1" xlink:href="#aT" y1="0" y2="0"/><clipPath id="aV"><path d="m373.94145 130.76772h.35027v.25973h-.35027z"/></clipPath><linearGradient id="aW" gradientUnits="userSpaceOnUse" spreadMethod="pad" x1="373.94142" x2="374.2917522" y1="130.89804" y2="130.89804"><stop offset="0" stop-color="#ffe800"/><stop offset="1" stop-color="#ffd800"/></linearGradient><clipPath id="aX"><path d="m374.26074 131.51069h-.58405v-.67646h.58405z"/></clipPath><linearGradient id="aY" gradientTransform="matrix(-.5841784 0 0 -.5841784 374.26051 131.17146)" gradientUnits="userSpaceOnUse" spreadMethod="pad" x1="0" x2="1" xlink:href="#aT" y1="0" y2="0"/><clipPath id="aZ"><path d="m373.58126 131.0377h.5947v.6765h-.5947z"/></clipPath><linearGradient id="a0" gradientUnits="userSpaceOnUse" spreadMethod="pad" x1="373.58213" x2="374.1765041" y1="131.37652" y2="131.37652"><stop offset="0" stop-color="#ffee59"/><stop offset=".736191" stop-color="#ffe800"/><stop offset="1" stop-color="#ffd800"/></linearGradient><clipPath id="a1"><path d="m371.64254 130.84085 2.66124-.96861 1.44909 3.98132-2.66124.96861z"/></clipPath><linearGradient id="a2" gradientTransform="matrix(2.5565634 -.9305121 .9305121 2.5565634 372.46663 132.79761)" gradientUnits="userSpaceOnUse" spreadMethod="pad" x1="0" x2="1" y1="0" y2="0"><stop offset="0" stop-color="#e36210"/><stop offset=".0947571" stop-color="#ffd800"/><stop offset=".436417" stop-color="#ffee59"/><stop offset="1" stop-color="#ffee59"/></linearGradient><clipPath id="a3"><path d="m374.16184 132.3367h-.82631v-1.26179h.82631z"/></clipPath><linearGradient id="a4" gradientTransform="matrix(-.8265385 0 0 -.8265385 374.16228 131.70394)" gradientUnits="userSpaceOnUse" spreadMethod="pad" x1="0" x2="1" xlink:href="#aT" y1="0" y2="0"/><clipPath id="a5"><path d="m372.99721 130.03641 2.35982.54482-.94763 4.10461-2.35982-.54481z"/></clipPath><linearGradient id="a6" gradientTransform="matrix(.7195537 .1661231 -.1661231 .7195537 373.30354 132.26686)" gradientUnits="userSpaceOnUse" spreadMethod="pad" x1="0" x2="1" y1="0" y2="0"><stop offset="0" stop-color="#ffe800"/><stop offset=".736191" stop-color="#ffe800"/><stop offset="1" stop-color="#ffd800"/></linearGradient><g fill="#ee7f00"><path d="m0 0c0 .184-.128.259-.243.259-.114 0-.243-.075-.243-.259v-.573c0-.057-.033-.092-.087-.092-.053 0-.086.035-.086.092v1.351c0 .057.033.093.086.093.054 0 .087-.036.087-.093v-.504l.004-.004c.077.099.186.139.29.139.162 0 .366-.103.366-.399v-.583c0-.057-.034-.092-.087-.092s-.087.035-.087.092z" transform="matrix(125.659014812898 0 0 -125.659014812898 165.80924090714 930.399976448491)"/><path d="m0 0c .213 0 .288.209.288.387s-.075.387-.288.387-.288-.209-.288-.387.075-.387.288-.387m0 .924c.296 0 .462-.259.462-.537s-.166-.537-.462-.537-.462.259-.462.537.166.537.462.537" transform="matrix(125.659014812898 0 0 -125.659014812898 263.886440540899 995.153354482594)"/><path d="m0 0c0 .15-.083.243-.225.243-.14 0-.223-.093-.223-.243v-.588c0-.058-.034-.093-.087-.093s-.087.035-.087.093v.888c0 .057.034.093.087.093s.087-.036.087-.093v-.031l.004-.004c.041.053.106.128.264.128.103 0 .21-.043.289-.178.077.111.169.178.321.178.162 0 .366-.103.366-.399v-.582c0-.058-.034-.093-.087-.093s-.087.035-.087.093v.588c0 .15-.083.243-.225.243-.14 0-.223-.093-.223-.243v-.588c0-.058-.034-.093-.087-.093s-.087.035-.087.093z" transform="matrix(125.659014812898 0 0 -125.659014812898 420.608208960259 928.415949188187)"/><path d="m0 0c0 .15-.087.324-.278.324-.216.008-.293-.164-.299-.324zm-.577-.13c0-.18.115-.32.31-.32.231 0 .291.142.356.142.031 0 .063-.028.063-.077 0-.085-.215-.215-.421-.215-.335 0-.481.258-.481.537 0 .284.177.537.472.537.286 0 .452-.259.452-.512 0-.061-.022-.092-.097-.092z" transform="matrix(125.659014812898 0 0 -125.659014812898 633.135285610129 938.592548618486)"/><path d="m0 0c0-.041-.031-.075-.073-.075-.075 0-.1.089-.27.089-.125 0-.218-.08-.218-.195 0-.303.652-.158.652-.621 0-.227-.166-.434-.465-.434-.181 0-.382.07-.382.166 0 .046.023.087.072.087.057 0 .138-.106.312-.106.175 0 .281.127.281.279 0 .326-.651.168-.651.617 0 .16.15.353.405.353.169 0 .337-.071.337-.16" transform="matrix(57.105591074312 0 0 -57.105591074312 162.1718271466 785.414808762802)"/><path d="m0 0h .251c.167 0 .281.125.281.281 0 .135-.077.286-.289.286h-.243zm0-.58c0-.056-.033-.091-.085-.091s-.085.035-.085.091v1.201c0 .052.027.092.091.092h.335c.276 0 .446-.193.446-.432 0-.239-.189-.428-.44-.428h-.262z" transform="matrix(57.105591074312 0 0 -57.105591074312 188.48025662548 817.666608431598)"/><path d="m0 0h .409c.048 0 .083-.025.083-.079s-.035-.079-.083-.079h-.488c-.064 0-.091.04-.091.092v1.188c0 .052.027.093.091.093h.488c.048 0 .083-.025.083-.079s-.035-.08-.083-.08h-.409v-.449h.372c.048 0 .083-.025.083-.079s-.035-.079-.083-.079h-.372z" transform="matrix(57.105591074312 0 0 -57.105591074312 248.36121671824 846.294046553598)"/><path d="m0 0c0-.056-.033-.091-.085-.091s-.085.035-.085.091v1.215c0 .055.033.09.085.09s.085-.035.085-.09v-.502l.588.538c.031.029.058.054.093.054.042 0 .073-.029.073-.073 0-.045-.016-.06-.035-.077l-.563-.507.615-.594c.027-.025.035-.044.035-.069 0-.041-.037-.076-.083-.076-.025 0-.048.004-.083.037l-.64.629z" transform="matrix(57.105591074312 0 0 -57.105591074312 297.237974133401 850.805478278002)"/><path d="m0 0h-.256c-.049 0-.083.025-.083.079s.034.079.083.079h.682c.048 0 .083-.025.083-.079s-.035-.079-.083-.079h-.256v-1.136c0-.055-.033-.09-.085-.09s-.085.035-.085.09z" transform="matrix(57.105591074312 0 0 -57.105591074312 366.152966989241 785.961943288403)"/><path d="m0 0h .231c.178 0 .255.075.255.253 0 .127-.1.235-.259.235h-.227zm0-.659c0-.056-.033-.091-.085-.091s-.085.035-.085.091v1.201c0 .052.027.092.091.092h.314c.216 0 .42-.146.42-.37 0-.277-.169-.382-.374-.389l-.073-.002.438-.48c.023-.025.033-.047.033-.077 0-.037-.035-.066-.077-.066-.035 0-.058.017-.078.039l-.524.574z" transform="matrix(57.105591074312 0 0 -57.105591074312 413.7047847322 813.156795448402)"/><path d="m0 0c0 .056.033.091.085.091s.085-.035.085-.091v-.816c0-.216.146-.343.362-.343s.363.127.363.343v.816c0 .056.032.091.084.091s.085-.035.085-.091v-.75c0-.463-.297-.555-.532-.555s-.532.092-.532.555z" transform="matrix(57.105591074312 0 0 -57.105591074312 462.25018582372 781.445655340398)"/><path d="m0 0c-.008-.06-.046-.073-.091-.073-.052 0-.079.035-.079.087 0 .019.004.044.01.077l.187 1.102c.017.097.071.13.133.13.068 0 .104-.025.123-.089l.294-1.005h.003l.293 1.005c.02.064.056.089.124.089.061 0 .115-.033.133-.13l.187-1.102c.006-.033.009-.058.009-.077 0-.052-.027-.087-.079-.087-.044 0-.083.013-.09.073l-.16 1.103h-.004l-.328-1.107c-.017-.056-.048-.069-.087-.069-.038 0-.069.013-.086.069l-.328 1.107h-.004z" transform="matrix(57.105591074312 0 0 -57.105591074312 542.277998891681 851.799385374801)"/></g><g clip-path="url(#a5)" transform="matrix(103.071934783103 0 0 -103.071934783103 -38303.89351227999 13875.712890862196)"><path d="m373.125 134.341c-.197-.003-.207-.56.062-1.527.174-.625.407-1.185.679-1.661.151-.263.415-.644.623-.772l-.003.052c-.312.426-.571 1.316-.553 1.673.015.307.039.673-.141 1.208-.242.719-.465 1.027-.664 1.027-.002 0-.002 0-.003 0" fill="url(#a6)"/></g><g clip-path="url(#a3)" transform="matrix(103.071934783103 0 0 -103.071934783103 -38303.89351227999 13875.712890862196)"><path d="m373.335 132.337c.076-.218.158-.426.246-.623.095-.08.198-.171.253-.227.153-.156.271-.326.327-.412-.027.076-.054.152-.078.228-.076.129-.21.346-.36.543-.122.161-.279.357-.388.491z" fill="url(#a4)"/></g><g clip-path="url(#a1)" transform="matrix(103.071934783103 0 0 -103.071934783103 -38303.89351227999 13875.712890862196)"><path d="m373.166 132.799c.174-.626.406-1.186.679-1.662.151-.264.41-.623.617-.751l.027-.005c-.208.128-.472.509-.623.772-.272.476-.505 1.036-.679 1.661-.235.843-.258 1.376-.128 1.499-.152-.085-.14-.628.107-1.514" fill="url(#a2)"/></g><g clip-path="url(#aZ)" transform="matrix(103.071934783103 0 0 -103.071934783103 -38303.89351227999 13875.712890862196)"><path d="m373.581 131.714c.031-.069.063-.137.095-.203.075-.043.175-.109.264-.198.104-.105.188-.21.236-.276-.005.013-.009.025-.015.038-.056.086-.174.256-.327.412-.055.056-.158.147-.253.227z" fill="url(#a0)"/></g><g clip-path="url(#aX)" transform="matrix(103.071934783103 0 0 -103.071934783103 -38303.89351227999 13875.712890862196)"><path d="m373.676 131.511c.062-.125.125-.243.19-.358.023-.039.048-.081.076-.126.04-.02.084-.044.121-.063.059-.033.151-.096.197-.13-.029.066-.057.134-.084.203-.048.066-.132.171-.236.276-.089.089-.189.155-.264.198z" fill="url(#aY)"/></g><g clip-path="url(#aV)" transform="matrix(103.071934783103 0 0 -103.071934783103 -38303.89351227999 13875.712890862196)"><path d="m373.942 131.027c.035-.056.073-.115.114-.173.051-.018.112-.04.144-.053.033-.013.068-.025.092-.034-.011.023-.021.044-.032.067-.046.034-.138.097-.197.13-.037.019-.081.043-.121.063z" fill="url(#aW)"/></g><g clip-path="url(#aS)" transform="matrix(103.071934783103 0 0 -103.071934783103 -38303.89351227999 13875.712890862196)"><path d="m374.174 130.693c.016-.003.032-.006.044-.008.026-.004.088-.016.126-.022-.018.033-.035.068-.052.104-.024.009-.059.021-.092.034-.032.013-.093.035-.144.053.038-.054.078-.109.118-.161" fill="url(#aU)"/></g><g clip-path="url(#aR)" transform="matrix(103.071934783103 0 0 -103.071934783103 -38303.89351227999 13875.712890862196)"><g transform="translate(375.5763 134.379)"><path d="m0 0c-.16.237-.355.288-.548.205.002.001.003.001.004.002-.23-.087-.459-.369-.628-.761-.219-.51-.319-1.083-.312-1.801.004-.349.079-.962.297-1.427l.015-.009.037.026c-.083.587.03.918.154 1.26.043.116.21.414.383.459.316.084.504.39.676.77.129.284.159.926-.078 1.276" fill="#bbcfe9"/></g><g transform="translate(374.4221 133.8324)"><path d="m0 0c .305.708.809 1.057 1.154.547.237-.35.207-.993.078-1.277-.172-.38-.36-.685-.676-.769-.172-.046-.34-.344-.382-.46-.125-.341-.238-.672-.155-1.26l-.037-.025c-.218.465-.291 1.094-.294 1.442-.007.718.092 1.292.312 1.802" fill="#fff49f"/></g></g><g clip-path="url(#aP)" transform="matrix(103.071934783103 0 0 -103.071934783103 -38303.89351227999 13875.712890862196)"><path d="m374.404 133.826c-.219-.511-.319-1.084-.312-1.802.004-.349.079-.962.297-1.427l.015-.009c-.217.465-.29 1.095-.294 1.443-.007.717.092 1.291.312 1.802.164.381.387.659.611.753-.231-.087-.46-.369-.629-.76" fill="url(#aQ)"/></g><g clip-path="url(#aN)" transform="matrix(103.071934783103 0 0 -103.071934783103 -38303.89351227999 13875.712890862196)"><path d="m375.249 134.005c-.201-.143-.332-.459-.449-.945-.088-.362-.109-.795-.115-1.009h.001c.074.122.182.254.292.282.317.084.504.39.677.77.062.137.101.358.098.589-.022.09-.055.191-.103.25-.051.061-.129.125-.228.125-.053 0-.11-.017-.173-.062" fill="url(#aO)"/></g><g clip-path="url(#aM)" transform="matrix(103.071934783103 0 0 -103.071934783103 -38303.89351227999 13875.712890862196)"><g transform="translate(374.4365 130.6107)"><path d="m0 0c-.001.017-.001.033-.002.049-.024.19-.027.353-.016.498-.026.05-.062.106-.109.157-.046.05-.099.086-.145.112.045-.28.121-.584.24-.838z" fill="#ffee59"/></g><g transform="translate(374.1553 132.8417)"><path d="m0 0c-.033-.25-.048-.519-.045-.811.001-.093.007-.205.019-.329.049-.026.108-.065.159-.12.079-.085.127-.185.152-.248.033.2.093.368.155.54.002.005.005.012.008.018-.036.12-.102.318-.21.556-.078.172-.167.304-.238.394" fill="#ffee59"/></g></g><g clip-path="url(#aK)" transform="matrix(103.071934783103 0 0 -103.071934783103 -38303.89351227999 13875.712890862196)"><path d="m376.178 133.582c-.419-.185-.84-.571-1.209-1.176-.271-.444-.472-1.051-.487-1.64l.049-.005c.176.499.487.794.808.969.302.166.506.108.677.037.321-.134.679-.191.921-.098.591.229.849 1.052.676 1.518-.145.388-.425.554-.771.554-.203 0-.429-.057-.664-.159" fill="url(#aL)"/></g><g clip-path="url(#aI)" transform="matrix(103.071934783103 0 0 -103.071934783103 -38303.89351227999 13875.712890862196)"><path d="m376.178 133.582c-.419-.185-.84-.571-1.209-1.176-.271-.444-.472-1.051-.487-1.64l.013-.001c.018.585.218 1.188.486 1.628.37.605.791.991 1.211 1.175.484.213.932.23 1.218-.049-.149.154-.345.222-.568.222-.203 0-.429-.057-.664-.159" fill="url(#aJ)"/></g><g clip-path="url(#aG)" transform="matrix(103.071934783103 0 0 -103.071934783103 -38303.89351227999 13875.712890862196)"><path d="m374.548 131.246c.02-.017.038-.031.05-.037.024-.012.077-.039.119-.061.124.197.273.347.432.463-.016.072-.049.174-.122.274-.065.089-.146.146-.218.182-.115-.251-.206-.532-.261-.821" fill="url(#aH)"/></g><g clip-path="url(#aE)" transform="matrix(103.071934783103 0 0 -103.071934783103 -38303.89351227999 13875.712890862196)"><path d="m374.529 131.128c.015-.023.031-.049.044-.074.019-.035.03-.069.038-.098.033.069.068.133.106.192-.042.022-.095.049-.119.061-.012.006-.03.02-.05.037-.007-.04-.013-.079-.019-.118" fill="url(#aF)"/></g><g clip-path="url(#aC)" transform="matrix(103.071934783103 0 0 -103.071934783103 -38303.89351227999 13875.712890862196)"><path d="m375.844 132.314c-.115-.114-.319-.392-.431-.546.262.118.447.065.603-.001.177-.074.365-.124.539-.139.126.101.391.347.549.729.072.177.136.47-.155.563-.025.008-.053.012-.083.012-.328 0-.874-.469-1.022-.618" fill="url(#aD)"/></g><g clip-path="url(#aA)" transform="matrix(103.071934783103 0 0 -103.071934783103 -38303.89351227999 13875.712890862196)"><path d="m375.592 132.11c-.146-.165-.287-.347-.359-.442.035.022.071.043.106.062.026.015.05.026.074.038.112.154.316.432.431.546.105.106.41.372.695.518-.211-.083-.679-.421-.947-.722" fill="url(#aB)"/></g><g clip-path="url(#ay)" transform="matrix(103.071934783103 0 0 -103.071934783103 -38303.89351227999 13875.712890862196)"><path d="m375.786 131.955c-.473-.296-.861-.712-1.112-1.106l.036-.037c.585.503 1.303.465 1.56.222.065-.062.183-.251.275-.367.285-.354.511-.464.807-.534.594-.141 1.148.147 1.33.704.197.604-.069 1.23-.873 1.468-.16.049-.371.081-.581.081-.466 0-.979-.14-1.442-.431" fill="url(#az)"/></g><g clip-path="url(#aw)" transform="matrix(103.071934783103 0 0 -103.071934783103 -38303.89351227999 13875.712890862196)"><path d="m375.786 131.935c-.473-.297-.861-.713-1.112-1.107l.036-.037c.585.503 1.303.464 1.56.221.065-.06.183-.251.275-.365.285-.356.511-.465.807-.536.594-.141 1.148.148 1.33.704.197.606-.069 1.23-.873 1.47-.179.053-.375.08-.581.08-.466 0-.979-.14-1.442-.43" fill="url(#ax)"/></g><g clip-path="url(#as)" transform="matrix(103.071934783103 0 0 -103.071934783103 -38303.89351227999 13875.712890862196)"><g><g/><g><g clip-path="url(#at)" opacity=".5"><g><g><g><g><g clip-path="url(#au)"><path d="m375.673 131.101.686-1.885 2.558.93-.687 1.887z" fill="url(#av)"/></g></g></g></g></g></g></g></g></g><g clip-path="url(#aq)" transform="matrix(103.071934783103 0 0 -103.071934783103 -38303.89351227999 13875.712890862196)"><path d="m376.073 131.128c.014-.005.029-.011.043-.017.196.047.598.131.917.113.438-.027.823-.117 1.097-.307.015-.009.028-.02.042-.03-.023.018-.045.035-.068.051-.274.19-.659.28-1.098.306-.031.002-.064.003-.097.003-.309 0-.665-.077-.836-.119" fill="url(#ar)"/></g><g clip-path="url(#ao)" transform="matrix(103.071934783103 0 0 -103.071934783103 -38303.89351227999 13875.712890862196)"><path d="m374.79 130.998c.004-.032.009-.063.012-.077.003-.012.008-.03.014-.047.138.103.283.177.425.227.004.045.008.107.004.176-.003.064-.025.14-.044.195-.156-.152-.294-.313-.411-.474" fill="url(#ap)"/></g><g clip-path="url(#an)" transform="matrix(103.071934783103 0 0 -103.071934783103 -38303.89351227999 13875.712890862196)"><g transform="translate(374.7115 130.7915)"><path d="m0 0c .034.03.069.057.105.083-.006.017-.012.034-.014.046-.003.014-.008.046-.013.077-.02-.027-.039-.054-.057-.081 0-.017-.001-.038-.004-.055-.004-.018-.011-.046-.017-.07" fill="#fff49f"/></g><g transform="translate(374.7106 130.7908)"><path d="m0 0s .001 0 .001.001c.006.024.013.052.017.069.003.018.004.039.004.056-.02-.03-.04-.059-.059-.089z" fill="#ffe800"/></g></g><g clip-path="url(#al)" transform="matrix(103.071934783103 0 0 -103.071934783103 -38303.89351227999 13875.712890862196)"><path d="m371.641 132.67c-.125-.093.418-.662 1.018-1.177.388-.333.859-.706 1.233-.94.184-.114.417-.273.632-.311.114-.021.137.033.146.058l-.037.035c-.315.106-.892.621-1.129.848-.152.144-.433.464-.785.77-.415.361-.882.727-1.042.727-.015 0-.027-.003-.036-.01" fill="url(#am)"/></g><g clip-path="url(#aj)" transform="matrix(103.071934783103 0 0 -103.071934783103 -38303.89351227999 13875.712890862196)"><path d="m371.641 132.67c-.125-.093.418-.662 1.018-1.177.388-.333.859-.706 1.233-.94.184-.114.417-.273.632-.311.089-.017.123.013.137.038-.02-.017-.055-.028-.12-.017-.214.039-.448.197-.631.312-.375.234-.846.605-1.234.939-.567.488-1.084 1.023-1.033 1.158-.001 0-.002-.001-.002-.002" fill="url(#ak)"/></g><g clip-path="url(#af)" transform="matrix(103.071934783103 0 0 -103.071934783103 -38303.89351227999 13875.712890862196)"><g><g/><g><g clip-path="url(#ag)" opacity=".5"><g><g><g><g><g clip-path="url(#ah)"><path d="m373.951 130.505h.321v.101h-.321z" fill="url(#ai)"/></g></g></g></g></g></g></g></g></g><g clip-path="url(#ad)" transform="matrix(103.071934783103 0 0 -103.071934783103 -38303.89351227999 13875.712890862196)"><path d="m376.46 131.157c-.584 0-1.235-.225-1.588-.431v-.039l.019-.013c.281.055.519.04.711-.019.304-.105.493-.322.539-.544.04-.196.034-.408.024-.552-.024-.355.014-.595.254-.867.436-.494 1.158-.422 1.602-.028.47.418.643 1.082.219 1.69-.412.591-1.128.798-1.766.803-.005 0-.009 0-.014 0" fill="url(#ae)"/></g><g clip-path="url(#ab)" transform="matrix(103.071934783103 0 0 -103.071934783103 -38303.89351227999 13875.712890862196)"><path d="m376.463 131.157c-.01 0-.021 0-.031 0 .048-.112.11-.302.088-.51-.025-.22-.071-.333-.131-.423.457-.099.896-.325 1.186-.74.228-.328.284-.672.213-.984.083.046.162.101.233.164.47.418.643 1.082.219 1.69-.412.591-1.128.798-1.766.803-.004 0-.008 0-.011 0" fill="url(#ac)"/></g><g clip-path="url(#aa)" transform="matrix(103.071934783103 0 0 -103.071934783103 -38303.89351227999 13875.712890862196)"><path d="m374.872 130.729h.733v-.076h-.733z" fill="#e36210"/></g><g clip-path="url(#W)" transform="matrix(103.071934783103 0 0 -103.071934783103 -38303.89351227999 13875.712890862196)"><g><g/><g><g clip-path="url(#X)" opacity=".5"><g><g><g><g><g clip-path="url(#Y)"><path d="m375.388 129.874 1.059-2.271 2.163 1.009-1.058 2.27z" fill="url(#Z)"/></g></g></g></g></g></g></g></g></g><g clip-path="url(#U)" transform="matrix(103.071934783103 0 0 -103.071934783103 -38303.89351227999 13875.712890862196)"><path d="m376.102 131.132c-.04-.066-.101-.154-.178-.232-.091-.091-.246-.181-.35-.235.321-.102.519-.326.567-.554.007-.039.013-.078.018-.118.045.027.09.058.112.083.119.143.211.226.249.571.022.208-.04.398-.088.51-.109-.002-.219-.011-.33-.025" fill="url(#V)"/></g><g clip-path="url(#S)" transform="matrix(103.071934783103 0 0 -103.071934783103 -38303.89351227999 13875.712890862196)"><path d="m375.388 130.957c-.014-.036-.037-.081-.086-.139-.028-.034-.063-.069-.095-.098.136-.001.259-.021.367-.055.104.054.259.144.35.235.077.078.138.166.178.232-.248-.034-.494-.098-.714-.175" fill="url(#T)"/></g><g clip-path="url(#Q)" transform="matrix(103.071934783103 0 0 -103.071934783103 -38303.89351227999 13875.712890862196)"><path d="m378.021 128.682c-.444-.394-1.166-.467-1.602.028-.198.224-.26.426-.26.689-.001-.271.058-.478.26-.707.436-.494 1.158-.422 1.602-.028.287.255.463.601.461.971-.003-.363-.179-.702-.461-.953" fill="url(#R)"/></g><g clip-path="url(#P)" transform="matrix(103.071934783103 0 0 -103.071934783103 -38303.89351227999 13875.712890862196)"><path d="m374.398 130.546h2.683v-2.662h-2.683z" fill="#e36210"/></g><g clip-path="url(#O)" transform="matrix(103.071934783103 0 0 -103.071934783103 -38303.89351227999 13875.712890862196)"><g transform="translate(374.964 130.5444)"><path d="m0 0-.023-.035c.473-.09.591-.485.443-.729-.112-.184-.374-.371-.469-.441-.376-.274-.517-.525-.517-.833 0-.41.396-.623.887-.607.512.017 1.38.3 1.647 1.086.149.439-.001.856-.439 1.174-.391.284-1.081.386-1.458.386-.025 0-.049 0-.071-.001" fill="#f59f00"/></g></g><g clip-path="url(#N)" transform="matrix(103.071934783103 0 0 -103.071934783103 -38303.89351227999 13875.712890862196)"><path d="m374.398 130.546h2.683v-2.662h-2.683z" fill="#ef8600"/></g><g clip-path="url(#L)" transform="matrix(103.071934783103 0 0 -103.071934783103 -38303.89351227999 13875.712890862196)"><path d="m375.384 129.781c-.112-.185-.374-.372-.469-.441-.376-.275-.517-.526-.517-.833 0-.411.396-.623.888-.608.144.005.319.031.5.085.004.279.004.76-.036 1.08-.043.357-.238.657-.333.784-.009-.023-.02-.046-.033-.067" fill="url(#M)"/></g><g clip-path="url(#K)" transform="matrix(103.071934783103 0 0 -103.071934783103 -38303.89351227999 13875.712890862196)"><g transform="translate(376.3343 130.2568)"><path d="m0 0c-.19.1-.419.171-.642.217-.051-.023-.119-.047-.201-.063-.096-.02-.189-.023-.256-.022.043-.031.078-.066.107-.103.121-.021.311-.048.482-.05.125-.001.341.011.51.021" fill="#f59f00"/></g></g><g clip-path="url(#G)" transform="matrix(103.071934783103 0 0 -103.071934783103 -38303.89351227999 13875.712890862196)"><g><g/><g><g clip-path="url(#H)" opacity=".5"><g><g><g><g><g clip-path="url(#I)"><path d="m375.101 130.198.428-1.178 1.654.602-.43 1.178z" fill="url(#J)"/></g></g></g></g></g></g></g></g></g><g clip-path="url(#C)" transform="matrix(103.071934783103 0 0 -103.071934783103 -38303.89351227999 13875.712890862196)"><g><g/><g><g clip-path="url(#D)" opacity=".350006"><g><g><g><g><g clip-path="url(#E)"><path d="m375.559 128.505h1.447v1.149h-1.447z" fill="url(#F)"/></g></g></g></g></g></g></g></g></g><g clip-path="url(#B)" transform="matrix(103.071934783103 0 0 -103.071934783103 -38303.89351227999 13875.712890862196)"><g transform="translate(375.6804 129.654)"><path d="m0 0c-.064.019-.121.038-.17.055.016-.025.032-.053.049-.083.026.003.053.008.077.014.015.004.03.009.044.014" fill="#f59f00"/></g></g><g clip-path="url(#x)" transform="matrix(103.071934783103 0 0 -103.071934783103 -38303.89351227999 13875.712890862196)"><g><g/><g><g clip-path="url(#y)" opacity=".5"><g><g><g><g><g clip-path="url(#z)"><path d="m375.406 127.98h.383v1.868h-.383z" fill="url(#A)"/></g></g></g></g></g></g></g></g></g><g clip-path="url(#v)" transform="matrix(103.071934783103 0 0 -103.071934783103 -38303.89351227999 13875.712890862196)"><path d="m376.924 129.01c-.266-.786-1.134-1.07-1.646-1.086-.419-.014-.769.14-.862.44.081-.316.438-.479.87-.465.511.017 1.378.301 1.646 1.086.068.2.073.395.019.579.047-.176.039-.363-.027-.554" fill="url(#w)"/></g><g clip-path="url(#t)" transform="matrix(103.071934783103 0 0 -103.071934783103 -38303.89351227999 13875.712890862196)"><path d="m374.858 130.352c.15-.173-.066-.251-.304-.28-.129-.015-.402-.008-.554.011-.31.039-.577.079-.832.08-.4.003-.915-.038-.903-.27.014-.258.914-.502 1.468-.541.462-.034 1.421-.045 1.672.293.199.267-.193.555-.509.708z" fill="url(#u)"/></g><g clip-path="url(#s)" transform="matrix(103.071934783103 0 0 -103.071934783103 -38303.89351227999 13875.712890862196)"><g transform="translate(374.8584 130.3521)"><path d="m0 0v-.023c.031-.037.047-.067.049-.092.004.032-.011.071-.049.115" fill="#af2a1c"/></g><g transform="translate(374.6034 130.0793)"><path d="m0 0c .016-.075.045-.209.079-.327.039-.136.101-.279.142-.369.136.023.262.057.366.103-.1.07-.273.198-.353.309-.083.114-.14.222-.175.295-.019-.004-.039-.008-.059-.011" fill="#f29200"/></g></g><g clip-path="url(#q)" transform="matrix(103.071934783103 0 0 -103.071934783103 -38303.89351227999 13875.712890862196)"><path d="m374.554 130.072c-.013-.001-.027-.002-.042-.003-.05-.069-.153-.228-.192-.393-.031-.131-.025-.256-.015-.339.113.003.229.01.342.022-.038.069-.093.187-.126.341-.028.129.017.299.039.373-.002 0-.004-.001-.006-.001" fill="url(#r)"/></g><g clip-path="url(#p)" transform="matrix(103.071934783103 0 0 -103.071934783103 -38303.89351227999 13875.712890862196)"><g transform="translate(375.2138 129.6964)"><path d="m0 0c .042-.054.084-.096.119-.125.028.022.053.047.073.074.043.058.058.117.052.175-.029.005-.059.012-.086.02-.088.028-.299.12-.299.12s.084-.191.141-.264" fill="#f29200"/></g></g><g clip-path="url(#n)" transform="matrix(103.071934783103 0 0 -103.071934783103 -38303.89351227999 13875.712890862196)"><path d="m375.457 129.828c.003-.053-.013-.106-.053-.161-.254-.335-1.211-.326-1.673-.293-.491.035-1.253.23-1.431.454h-.013c.143-.233.938-.44 1.446-.476.462-.034 1.421-.045 1.672.293.045.06.06.122.052.183z" fill="url(#o)"/></g><g clip-path="url(#m)" transform="matrix(103.071934783103 0 0 -103.071934783103 -38303.89351227999 13875.712890862196)"><g transform="translate(375.0872 133.8453)"><path d="m0 0c-.063-.077-.218-.366-.317-.778-.088-.368-.12-.889-.13-1.096.013.026.028.052.045.08.006.213.027.647.115 1.009.105.432.219.73.385.891-.033-.031-.069-.07-.098-.106" fill="#ffee59"/></g></g><g clip-path="url(#l)" transform="matrix(103.071934783103 0 0 -103.071934783103 -38303.89351227999 13875.712890862196)"><path d="m374.64 133.952h.545v-1.98h-.545z" fill="#ffee59"/></g><g clip-path="url(#g)" transform="matrix(103.071934783103 0 0 -103.071934783103 -38303.89351227999 13875.712890862196)"><g transform="translate(374.5427 130.7928)"><path d="m0 0c .021.057.044.112.069.164-.008.028-.02.063-.039.097-.012.025-.029.051-.044.074-.015-.097-.025-.195-.03-.293z" fill="#fff49f"/></g><g><g/><g><g clip-path="url(#h)" opacity=".600006"><g><g clip-path="url(#i)"><g transform="translate(375.2971 130.9226)"><path d="m0 0-.125-.204s-.064.003-.106-.005c-.009-.001.196.197.196.197z" fill="#ffd800"/></g></g></g></g></g></g><g><g/><g><g clip-path="url(#j)" opacity=".600006"><g><g clip-path="url(#k)"><g transform="translate(375.0096 130.7096)"><path d="m0 0 .143.155-.044-.018-.202-.153z" fill="#ffd800"/></g></g></g></g></g></g></g><g clip-path="url(#e)" transform="matrix(103.071934783103 0 0 -103.071934783103 -38303.89351227999 13875.712890862196)"><path d="m374.964 130.544-.023-.035c.177-.033.305-.11.387-.205.021-.025.065-.106.055-.078-.088.269.308.248.308.248-.041.008-.081.016-.121.022-.202.035-.392.05-.536.05-.025 0-.048-.001-.07-.002" fill="url(#f)"/></g><g clip-path="url(#a)" transform="matrix(103.071934783103 0 0 -103.071934783103 -38303.89351227999 13875.712890862196)"><g><g/><g><g clip-path="url(#b)" opacity=".800003"><g><g><g><g><g clip-path="url(#c)"><path d="m374.859 130.352s.081-.087.036-.149l.34-.058c-.008.005-.191.134-.269.171-.05.025-.07.037-.07.037z" fill="url(#d)"/></g></g></g></g></g></g></g></g></g></svg>