<svg height="670.59" width="600" xmlns="http://www.w3.org/2000/svg" xmlns:xlink="http://www.w3.org/1999/xlink"><clipPath id="a"><path d="m76.025 342.45c-.367.502-.672 1.549-.651 1.97.018.361.046.792-.166 1.421-.285.852-.55 1.214-.786 1.21-.03 0-.056-.012-.078-.033l.001.001c-.179-.102-.165-.741.126-1.785.205-.735.478-1.395.799-1.955.179-.311.483-.734.728-.885l.031-.006z"/></clipPath><clipPath id="b"><path d="m74.496 345.25c-.317 1.137-.306 1.794-.074 1.798.236.004.501-.358.786-1.21.212-.629.184-1.06.166-1.421-.021-.421.284-1.468.651-1.97l.004-.062c-.245.151-.556.599-.734.91-.321.559-.594 1.219-.799 1.955"/></clipPath><clipPath id="c"><path d="m75.258 343.69c.179-.185.319-.384.386-.486-.034.089-.065.179-.093.269-.09.153-.248.407-.424.639-.144.19-.328.42-.456.578.088-.256.185-.501.289-.733.111-.094.233-.201.298-.267"/></clipPath><clipPath id="d"><path d="m75.295 343.3c-.321.559-.594 1.219-.799 1.955-.277.993-.304 1.62-.151 1.766-.179-.102-.165-.741.126-1.785.205-.735.478-1.395.799-1.955.179-.311.483-.734.728-.885l.031-.006c-.245.151-.556.599-.734.91"/></clipPath><clipPath id="e"><path d="m75.66 343.16c-.005.015-.011.03-.016.044-.067.102-.207.301-.386.486-.065.066-.187.173-.298.267.037-.081.074-.161.112-.24.088-.05.205-.128.31-.233.124-.123.222-.247.278-.324"/></clipPath><clipPath id="f"><path d="m75.76 342.92c-.035.077-.068.158-.1.239-.056.077-.154.201-.278.324-.105.105-.222.183-.31.233.072-.146.146-.286.223-.42.027-.047.057-.097.089-.149.048-.024.099-.051.143-.075.07-.038.177-.112.233-.152"/></clipPath><clipPath id="g"><path d="m75.796 342.84c-.012.025-.024.051-.036.078-.056.04-.163.114-.233.152-.044.024-.095.051-.143.075.042-.066.087-.135.135-.204.061-.022.132-.047.17-.062.039-.015.079-.029.107-.039"/></clipPath><clipPath id="h"><path d="m75.859 342.72c-.021.04-.042.081-.063.124-.028.01-.068.024-.107.039-.038.015-.109.04-.17.062.044-.064.091-.128.139-.189.019-.004.038-.007.052-.01.03-.005.104-.018.149-.026"/></clipPath><clipPath id="i"><path d="m81.039 347.38h-8.3853v-10.081h8.3853z"/></clipPath><clipPath id="j"><path d="m75.95 346.45c.193.449.455.776.719.887-.271-.103-.541-.434-.74-.895-.258-.601-.376-1.276-.367-2.122.004-.41.092-1.132.349-1.679l.018-.011c-.257.547-.342 1.288-.346 1.699-.009.845.108 1.52.367 2.121"/></clipPath><clipPath id="k"><path d="m76.605 344.68c.372.099.593.458.796.906.073.161.119.422.116.694-.026.106-.065.225-.121.293-.092.111-.257.228-.473.075-.236-.168-.39-.541-.528-1.113-.103-.426-.129-.937-.135-1.187.088.143.215.298.345.332"/></clipPath><clipPath id="l"><path d="m76.733 346.46c-.075-.091-.257-.431-.373-.916-.104-.433-.141-1.046-.153-1.29.016.03.033.061.053.094.006.25.032.761.135 1.187.123.509.258.861.453 1.05-.038-.036-.08-.082-.115-.125"/></clipPath><clipPath id="m"><path d="m78.018 346.15c.746.328 1.419.261 1.689-.464.203-.549-.1-1.518-.796-1.787-.285-.11-.707-.042-1.084.115-.202.085-.441.152-.798-.043-.377-.206-.743-.553-.951-1.142l-.058.007c.018.693.255 1.409.573 1.93.435.713.931 1.167 1.425 1.384"/></clipPath><clipPath id="n"><path d="m78.034 346.14c.57.25 1.098.27 1.435-.058-.336.344-.872.327-1.451.073-.494-.217-.99-.671-1.425-1.384-.318-.521-.555-1.237-.573-1.93l.016-.002c.021.689.256 1.399.573 1.917.435.713.93 1.167 1.425 1.384"/></clipPath><clipPath id="o"><path d="m76.157 343.36c.028-.014.091-.047.14-.073.146.232.322.409.509.545-.018.085-.057.205-.143.323-.077.105-.173.172-.257.214-.136-.295-.243-.626-.307-.966.023-.02.045-.036.058-.043"/></clipPath><clipPath id="p"><path d="m76.128 343.18c.022-.041.036-.081.045-.115.038.08.08.155.124.225-.049.026-.112.059-.14.073-.013.007-.035.023-.058.043-.009-.047-.016-.093-.023-.139.017-.027.037-.059.052-.087"/></clipPath><clipPath id="q"><path d="m79.107 344.71c.086.21.161.554-.182.663-.365.116-1.111-.522-1.301-.712-.134-.135-.376-.462-.506-.644.308.139.524.076.709-.001.208-.086.429-.146.634-.164.148.119.461.409.646.858"/></clipPath><clipPath id="r"><path d="m77.327 344.42c-.172-.193-.338-.409-.422-.521.041.027.083.051.124.074.031.017.06.031.089.044.13.182.372.509.506.644.124.124.483.437.819.609-.249-.098-.8-.496-1.116-.85"/></clipPath><clipPath id="s"><path d="m79.938 344.63c.947-.282 1.26-1.018 1.027-1.73-.214-.656-.866-.996-1.566-.829-.348.083-.614.211-.95.63-.108.135-.247.359-.323.431-.303.286-1.149.331-1.836-.261l-.044.043c.296.464.753.954 1.309 1.303.786.493 1.693.618 2.383.413"/></clipPath><clipPath id="t"><path d="m81.039 347.38h-8.3853v-10.081h8.3853z"/></clipPath><clipPath id="u"><path d="m80.285 343.04c-.323.224-.777.33-1.292.361-.386.023-.876-.083-1.099-.137.094-.035.174-.081.232-.136.076-.072.215-.296.323-.431.336-.419.602-.547.95-.63.55-.131 1.07.051 1.372.452-.111.161-.287.384-.486.521"/></clipPath><clipPath id="v"><path d="m79.024 343.38c.516-.031.969-.137 1.292-.361.017-.011.033-.023.049-.035-.026.021-.053.042-.08.06-.323.224-.777.33-1.292.361-.386.023-.876-.083-1.099-.137.017-.006.034-.013.05-.02.231.055.705.154 1.08.132"/></clipPath><clipPath id="w"><path d="m76.919 343.44c-.003.076-.03.167-.052.23-.184-.179-.347-.368-.485-.558.006-.037.012-.074.015-.09.004-.015.01-.035.017-.054.163.12.333.207.5.266.005.053.01.127.005.206"/></clipPath><clipPath id="x"><path d="m73.874 343.7c-.706.607-1.346 1.277-1.199 1.386.125.094.735-.378 1.27-.843.414-.36.746-.737.924-.907.279-.267.959-.875 1.33-.999l.043-.041c-.01-.029-.038-.093-.172-.069-.253.046-.528.232-.744.367-.441.276-.995.714-1.452 1.106"/></clipPath><clipPath id="y"><path d="m81.039 347.38h-8.3853v-10.081h8.3853z"/></clipPath><clipPath id="z"><path d="m76.091 342.25c-.253.046-.528.232-.744.367-.441.275-.995.713-1.452 1.106-.668.575-1.277 1.205-1.217 1.364l-.003-.003c-.147-.109.493-.779 1.199-1.386.457-.392 1.011-.83 1.452-1.106.216-.135.491-.321.744-.367.105-.018.144.016.162.046-.024-.02-.066-.034-.141-.021"/></clipPath><clipPath id="A"><path d="m81.039 347.38h-8.3853v-10.081h8.3853z"/></clipPath><clipPath id="B"><path d="m75.395 342.65s.102-.013.157-.022c.071-.01.137-.033.137-.033l.085-.056s-.054.007-.104.005c-.041-.002-.079-.013-.079-.013z"/></clipPath><clipPath id="C"><path d="m80.445 342.36c-.484.696-1.328.94-2.079.945-.692.004-1.467-.264-1.887-.507l.001-.046.022-.016c.331.065.611.048.836-.022.359-.123.581-.38.635-.64.048-.232.041-.48.029-.65-.029-.419.017-.702.299-1.021.514-.582 1.364-.497 1.886-.033.554.492.758 1.273.258 1.99"/></clipPath><clipPath id="D"><path d="m80.445 342.36c-.484.696-1.328.94-2.079.945-.017 0-.033 0-.049-.001.056-.131.129-.355.102-.6-.028-.259-.082-.392-.154-.498.539-.116 1.057-.382 1.397-.871.269-.386.334-.791.251-1.158.098.053.19.118.274.193.554.492.758 1.273.258 1.99"/></clipPath><clipPath id="E"><path d="m76.48 342.75.022-.016c.333.065.616.048.842-.024-.233.082-.524.107-.864.04"/></clipPath><clipPath id="F"><path d="m79.662 341.33c-.34.489-.858.755-1.397.871-.04-.06-.087-.112-.138-.173-.026-.031-.078-.066-.132-.098.023-.188.016-.375.007-.511-.029-.419.017-.702.299-1.021.431-.489 1.099-.507 1.612-.226.083.367.018.772-.251 1.158"/></clipPath><clipPath id="G"><path d="m78.127 342.03c.14.168.248.265.292.671.027.245-.046.469-.102.6-.128-.001-.259-.012-.389-.029-.047-.077-.119-.181-.21-.273-.107-.107-.29-.213-.412-.277.378-.119.612-.383.667-.651.009-.046.017-.093.022-.139.054.032.106.067.132.098"/></clipPath><clipPath id="H"><path d="m77.088 343.06c-.017-.042-.043-.095-.102-.164-.033-.039-.075-.081-.111-.116.159-.001.304-.025.431-.065.122.064.305.17.412.277.091.092.163.196.21.273-.292-.04-.582-.115-.84-.205"/></clipPath><clipPath id="I"><path d="m76.986 342.9c.059.069.085.122.102.164-.096-.034-.188-.069-.273-.106-.025-.028-.059-.063-.1-.1-.026-.024-.07-.06-.111-.092.095.013.185.019.271.018.036.035.078.077.111.116"/></clipPath><clipPath id="J"><path d="m76.682 342.9c-.019-.023-.044-.05-.066-.073-.02-.02-.06-.049-.093-.072.027.005.055.01.081.013.041.032.085.068.111.092.041.037.075.072.1.1-.046-.02-.09-.04-.133-.06"/></clipPath><clipPath id="K"><path d="m80.187 340.39c-.522-.464-1.372-.55-1.886.033-.234.264-.305.5-.307.811-.001-.32.069-.563.307-.832.514-.582 1.364-.497 1.886-.033.338.3.545.708.543 1.143-.003-.427-.21-.827-.543-1.122"/></clipPath><clipPath id="L"><path d="m78.388 342.12c-.491.357-1.381.47-1.8.454l-.027-.042.002-.018c.302-.058.477-.206.548-.375.066-.157.053-.33-.029-.464-.131-.218-.44-.438-.552-.52-.442-.323-.608-.618-.608-.98 0-.484.466-.735 1.044-.716.603.02 1.625.354 1.939 1.279.176.517-.001 1.008-.517 1.382"/></clipPath><clipPath id="M"><path d="m78.905 340.74c-.314-.925-1.336-1.259-1.939-1.279-.578-.019-1.044.232-1.044.716 0 .362.166.657.608.98.112.082.421.302.552.52.174.287.036.752-.521.857l.027.042c.419.016 1.309-.097 1.8-.454.516-.374.693-.865.517-1.382"/></clipPath><clipPath id="N"><path d="m77.209 342.42c.096.019.176.048.236.074-.331.069-.651.092-.857.084l-.027-.042c.142-.027.257-.077.346-.142.08-.001.189.003.302.026"/></clipPath><clipPath id="O"><path d="m77.514 340.84c-.052.42-.281.773-.393.923-.01-.027-.023-.054-.039-.079-.131-.218-.44-.438-.552-.52-.442-.323-.608-.618-.608-.98 0-.484.466-.735 1.044-.716.172.006.377.037.59.1.005.329.004.895-.042 1.272"/></clipPath><clipPath id="P"><path d="m76.561 342.54.002-.018c.302-.058.477-.206.548-.375-.075.179-.253.337-.55.393"/></clipPath><clipPath id="Q"><path d="m78.915 341.46c-.083.244-.259.47-.527.664-.057.042-.12.08-.187.115-.198-.012-.453-.025-.6-.024-.202.001-.425.034-.567.058.124-.157.148-.353.087-.515.03-.04.069-.096.111-.164.195-.07.507-.162.852-.185.331-.022.652.02.831.051"/></clipPath><clipPath id="R"><path d="m78.915 341.46c-.179-.031-.5-.073-.831-.051-.244.016-.471.067-.652.12-.017-.006-.035-.012-.053-.016-.027-.007-.059-.013-.09-.017.096-.175.193-.406.225-.661.016-.136.027-.297.034-.462.141-.075.323-.142.552-.174.168-.023.355-.009.512.022.124.148.225.321.293.521.085.249.087.491.01.718"/></clipPath><clipPath id="S"><path d="m77.514 340.84c-.052.42-.281.773-.393.923-.006-.015-.005-.012-.012-.027.115-.158.331-.508.381-.914.045-.369.053-.927.049-1.259.01.003.007.002.017.005.005.329.004.895-.042 1.272"/></clipPath><clipPath id="T"><path d="m78.927 341.42c.056-.208.046-.428-.03-.653-.315-.925-1.337-1.259-1.939-1.279-.494-.016-.905.165-1.015.519.096-.373.516-.564 1.023-.548.603.02 1.625.354 1.939 1.279.08.236.087.466.022.682"/></clipPath><clipPath id="U"><path d="m76.508 342.35-.044-.002v-.027c.037-.043.054-.078.057-.108-.013-.112-.207-.169-.416-.194-.151-.018-.473-.009-.651.013-.366.046-.679.092-.981.094-.47.003-1.078-.046-1.063-.318.017-.304 1.076-.591 1.729-.638.544-.039 1.673-.052 1.969.346.234.315-.229.654-.6.834"/></clipPath><clipPath id="V"><path d="m75.139 341.17c-.653.047-1.712.334-1.729.638-.015.272.593.321 1.063.318.302-.002.615-.048.981-.094.178-.022.5-.031.651-.013.281.034.535.125.359.329l.044.002c.371-.18.834-.519.6-.834-.296-.398-1.425-.385-1.969-.346"/></clipPath><clipPath id="W"><path d="m76.439 341.7c-.098.135-.165.262-.206.347-.023-.004-.046-.008-.07-.012.019-.089.054-.245.094-.385.045-.16.118-.328.167-.434.16.027.309.066.431.121-.118.082-.322.233-.416.363"/></clipPath><clipPath id="X"><path d="m76.066 341.58c-.033.151.02.352.047.44-.003 0-.005-.001-.008-.001-.015-.002-.032-.003-.05-.005-.057-.081-.179-.267-.225-.463-.037-.153-.03-.3-.017-.397.132.003.268.011.401.025-.045.081-.108.22-.148.401"/></clipPath><clipPath id="Y"><path d="m77.108 341.52c.051.068.069.138.062.206-.034.006-.07.014-.101.024-.104.033-.352.141-.352.141s.098-.225.165-.311c.05-.064.099-.112.14-.147.033.026.062.055.086.087"/></clipPath><clipPath id="Z"><path d="m77.168 341.74c.006-.064-.012-.131-.063-.198-.299-.395-1.425-.385-1.969-.346-.639.047-1.665.322-1.726.618v-.006c.017-.304 1.076-.591 1.729-.638.544-.039 1.673-.052 1.969.346.055.074.072.15.06.224"/></clipPath><linearGradient id="aa"><stop offset="0" stop-color="#9ba1d9"/><stop offset=".7362" stop-color="#5c609f"/><stop offset="1" stop-color="#5c609f"/></linearGradient><linearGradient id="ab" gradientTransform="matrix(.87482 .20197 .20197 -.87482 74.612 344.577)" gradientUnits="userSpaceOnUse" x1="0" x2="1" xlink:href="#aa" y1="0" y2="0"/><linearGradient id="ac" gradientTransform="matrix(.84713 .19557 .19557 -.84713 74.639 344.584)" gradientUnits="userSpaceOnUse" x1="0" x2="1" xlink:href="#aa" y1="0" y2="0"/><linearGradient id="ad" gradientTransform="matrix(-.97292 0 0 .97292 75.644 343.946)" gradientUnits="userSpaceOnUse" x1="0" x2="1" y1="0" y2="0"><stop offset="0" stop-color="#7074b6"/><stop offset="1" stop-color="#a7aedf"/></linearGradient><linearGradient id="ae" gradientTransform="matrix(3.0095 -1.0954 -1.0954 -3.0095 73.664 345.253)" gradientUnits="userSpaceOnUse" x1="0" x2="1" y1="0" y2="0"><stop offset="0" stop-color="#9ba1d9"/><stop offset=".12883" stop-color="#edf4fc"/><stop offset=".7362" stop-color="#5c609f"/><stop offset="1" stop-color="#5c609f"/></linearGradient><linearGradient id="af" gradientTransform="matrix(.70023 0 0 -.70023 74.96 343.558)" gradientUnits="userSpaceOnUse" x1="0" x2="1" xlink:href="#aa" y1="0" y2="0"/><linearGradient id="ag"><stop offset="0" stop-color="#7074b6"/><stop offset="1" stop-color="#9ba1d9"/></linearGradient><linearGradient id="ah" gradientTransform="matrix(-.68764 0 0 .68764 75.76 343.318)" gradientUnits="userSpaceOnUse" x1="0" x2="1" xlink:href="#ag" y1="0" y2="0"/><linearGradient id="ai" gradientTransform="matrix(.41238 0 0 -.41238 75.384 342.995)" gradientUnits="userSpaceOnUse" x1="0" x2="1" y1="0" y2="0"><stop offset="0" stop-color="#858acd"/><stop offset=".7362" stop-color="#5c609f"/><stop offset="1" stop-color="#5c609f"/></linearGradient><linearGradient id="aj" gradientTransform="matrix(-.37246 .13556 .13556 .37246 75.869 342.747)" gradientUnits="userSpaceOnUse" x1="0" x2="1" xlink:href="#ag" y1="0" y2="0"/><linearGradient id="ak" gradientTransform="matrix(0 4.7066 4.7066 0 76.115 342.63)" gradientUnits="userSpaceOnUse" x1="0" x2="1" y1="0" y2="0"><stop offset="0" stop-color="#8095bb"/><stop offset=".7362" stop-color="#d8dbf1"/><stop offset=".90184" stop-color="#a3beda"/><stop offset="1" stop-color="#a3beda"/></linearGradient><linearGradient id="al" gradientTransform="matrix(.91063 -.76411 -.76411 -.91063 76.286 345.926)" gradientUnits="userSpaceOnUse" x1="0" x2="1" y1="0" y2="0"><stop offset="0" stop-color="#b3caec"/><stop offset=".98773" stop-color="#7684b3"/><stop offset="1" stop-color="#7684b3"/></linearGradient><linearGradient id="am" gradientTransform="matrix(0 2.3311 2.3311 0 76.528 344.259)" gradientUnits="userSpaceOnUse" x1="0" x2="1" y1="0" y2="0"><stop offset="0" stop-color="#d1e0f4"/><stop offset=".7546" stop-color="#b3d1ef"/><stop offset="1" stop-color="#b3d1ef"/></linearGradient><linearGradient id="an" gradientTransform="matrix(3.7486 0 0 -3.7486 76.02 344.588)" gradientUnits="userSpaceOnUse" x1="0" x2="1" y1="0" y2="0"><stop offset="0" stop-color="#beacdc"/><stop offset=".45454" stop-color="#dad0ec"/><stop offset=".86667" stop-color="#cbbce3"/><stop offset="1" stop-color="#cbbce3"/></linearGradient><linearGradient id="ao" gradientTransform="matrix(4.0869 1.4875 1.4875 -4.0869 75.605 343.982)" gradientUnits="userSpaceOnUse" x1="0" x2="1" y1="0" y2="0"><stop offset="0" stop-color="#68438e"/><stop offset=".67879" stop-color="#f1eef9"/><stop offset="1" stop-color="#e4d3ec"/></linearGradient><linearGradient id="ap" gradientTransform="matrix(-.1893 -1.0736 -1.0736 .1893 76.581 344.346)" gradientUnits="userSpaceOnUse" x1="0" x2="1" y1="0" y2="0"><stop offset="0" stop-color="#cbc1e6"/><stop offset="1" stop-color="#beaadb"/></linearGradient><linearGradient id="aq" gradientTransform="matrix(.23588 0 0 -.23588 76.061 343.234)" gradientUnits="userSpaceOnUse" x1="0" x2="1" y1="0" y2="0"><stop offset="0" stop-color="#dfd1ec"/><stop offset="1" stop-color="#b39bd4"/></linearGradient><linearGradient id="ar" gradientTransform="matrix(2.0619 0 0 -2.0619 77.118 344.622)" gradientUnits="userSpaceOnUse" x1="0" x2="1" y1="0" y2="0"><stop offset="0" stop-color="#beaadb"/><stop offset=".45454" stop-color="#e4dff2"/><stop offset="1" stop-color="#cbbce3"/></linearGradient><linearGradient id="as" gradientTransform="matrix(1.5374 0 0 -1.5374 76.905 344.587)" gradientUnits="userSpaceOnUse" x1="0" x2="1" y1="0" y2="0"><stop offset="0" stop-color="#beacdc"/><stop offset=".15152" stop-color="#dcd1ec"/><stop offset=".72727" stop-color="#f1eef9"/><stop offset="1" stop-color="#f1eef9"/></linearGradient><linearGradient id="at" gradientTransform="matrix(4.7927 0 0 -4.7927 76.246 343.375)" gradientUnits="userSpaceOnUse" x1="0" x2="1" y1="0" y2="0"><stop offset="0" stop-color="#7e5bb3"/><stop offset=".37576" stop-color="#be9dd5"/><stop offset=".92638" stop-color="#68438e"/><stop offset="1" stop-color="#68438e"/></linearGradient><linearGradient id="au" gradientTransform="matrix(.64343 -1.7678 -1.7678 -.64343 79.044 343.685)" gradientUnits="userSpaceOnUse" x1="0" x2="1" y1="0" y2="0"><stop offset="0" stop-color="#a784c9"/><stop offset=".75152" stop-color="#68438e"/><stop offset="1" stop-color="#52346d"/></linearGradient><linearGradient id="av" gradientTransform="matrix(-2.471 0 0 2.471 80.365 343.194)" gradientUnits="userSpaceOnUse" x1="0" x2="1" y1="0" y2="0"><stop offset="0" stop-color="#7e5bb3"/><stop offset=".6135" stop-color="#cdafdd"/><stop offset=".8957" stop-color="#be9dd5"/><stop offset="1" stop-color="#be9dd5"/></linearGradient><linearGradient id="aw" gradientTransform="matrix(-.61211 -.51362 -.51362 .61211 76.984 343.531)" gradientUnits="userSpaceOnUse" x1="0" x2="1" y1="0" y2="0"><stop offset="0" stop-color="#be9dd5"/><stop offset="1" stop-color="#68438e"/></linearGradient><linearGradient id="ax" gradientTransform="matrix(.29889 .3562 .3562 -.29889 74.223 343.401)" gradientUnits="userSpaceOnUse" x1="0" x2="1" y1="0" y2="0"><stop offset="0" stop-color="#746fad"/><stop offset=".84049" stop-color="#55528b"/><stop offset="1" stop-color="#55528b"/></linearGradient><linearGradient id="ay" gradientTransform="matrix(3.1879 -3.1879 -3.1879 -3.1879 72.801 345.208)" gradientUnits="userSpaceOnUse" x1="0" x2="1" y1="0" y2="0"><stop offset="0" stop-color="#7873b2"/><stop offset=".23926" stop-color="#a7aedf"/><stop offset=".84049" stop-color="#55528b"/><stop offset="1" stop-color="#55528b"/></linearGradient><linearGradient id="az" gradientTransform="matrix(.37911 0 0 -.37911 75.395 342.592)" gradientUnits="userSpaceOnUse" x1="0" x2="1" y1="0" y2="0"><stop offset="0" stop-color="#8681c8"/><stop offset=".92024" stop-color="#7873b2"/><stop offset="1" stop-color="#7873b2"/></linearGradient><linearGradient id="aA"><stop offset="0" stop-color="#2f275f"/><stop offset="1" stop-color="#9d79c3"/></linearGradient><linearGradient id="aB" gradientTransform="matrix(4.2504 0 0 -4.2504 76.479 341.644)" gradientUnits="userSpaceOnUse" x1="0" x2="1" xlink:href="#aA" y1="0" y2="0"/><linearGradient id="aC" gradientTransform="matrix(2.2183 -2.6436 -2.6436 -2.2183 78.41 343.378)" gradientUnits="userSpaceOnUse" x1="0" x2="1" y1="0" y2="0"><stop offset="0" stop-color="#4d346d"/><stop offset=".80982" stop-color="#795bb3"/><stop offset="1" stop-color="#795bb3"/></linearGradient><linearGradient id="aD" gradientTransform="matrix(.8634 0 0 -.8634 76.48 342.746)" gradientUnits="userSpaceOnUse" x1="0" x2="1" xlink:href="#aA" y1="0" y2="0"/><linearGradient id="aE" gradientTransform="matrix(1.5507 .7231 .7231 -1.5507 78.088 340.718)" gradientUnits="userSpaceOnUse" x1="0" x2="1" y1="0" y2="0"><stop offset="0" stop-color="#1f183e"/><stop offset=".44785" stop-color="#3d2668"/><stop offset=".92024" stop-color="#795bb3"/><stop offset="1" stop-color="#795bb3"/></linearGradient><linearGradient id="aF" gradientTransform="matrix(.82234 -.69003 -.69003 -.82234 77.606 343.076)" gradientUnits="userSpaceOnUse" x1="0" x2="1" y1="0" y2="0"><stop offset="0" stop-color="#342869"/><stop offset=".30303" stop-color="#4e3577"/><stop offset="1" stop-color="#68438e"/></linearGradient><linearGradient id="aG" gradientTransform="matrix(.77407 -.28174 -.28174 -.77407 77.014 343.168)" gradientUnits="userSpaceOnUse" x1="0" x2="1" y1="0" y2="0"><stop offset="0" stop-color="#391f6d"/><stop offset=".2" stop-color="#3c2971"/><stop offset="1" stop-color="#62468a"/></linearGradient><linearGradient id="aH" gradientTransform="matrix(.48335 0 0 -.48335 76.604 342.916)" gradientUnits="userSpaceOnUse" x1="0" x2="1" y1="0" y2="0"><stop offset="0" stop-color="#231d48"/><stop offset="1" stop-color="#3b215c"/></linearGradient><linearGradient id="aI" gradientTransform="matrix(-.29249 0 0 .29249 76.815 342.857)" gradientUnits="userSpaceOnUse" x1="0" x2="1" y1="0" y2="0"><stop offset="0" stop-color="#3b215c"/><stop offset=".70909" stop-color="#473783"/><stop offset="1" stop-color="#473783"/></linearGradient><linearGradient id="aJ" gradientTransform="matrix(2.7353 0 0 -2.7353 77.994 340.748)" gradientUnits="userSpaceOnUse" x1="0" x2="1" y1="0" y2="0"><stop offset="0" stop-color="#7e52ae"/><stop offset=".98773" stop-color="#3b215c"/><stop offset="1" stop-color="#3b215c"/></linearGradient><linearGradient id="aK"><stop offset="0" stop-color="#362466"/><stop offset="1" stop-color="#442583"/></linearGradient><linearGradient id="aL" gradientTransform="matrix(3.0489 0 0 -3.0489 75.922 341.022)" gradientUnits="userSpaceOnUse" x1="0" x2="1" xlink:href="#aK" y1="0" y2="0"/><linearGradient id="aM" gradientTransform="matrix(.88396 0 0 -.88396 76.561 342.488)" gradientUnits="userSpaceOnUse" x1="0" x2="1" y1="0" y2="0"><stop offset="0" stop-color="#31214d"/><stop offset=".24699" stop-color="#36255f"/><stop offset="1" stop-color="#3b2883"/></linearGradient><linearGradient id="aN" gradientTransform="matrix(0 -2.2959 -2.2959 0 76.74 341.759)" gradientUnits="userSpaceOnUse" x1="0" x2="1" y1="0" y2="0"><stop offset="0" stop-color="#30205a"/><stop offset="1" stop-color="#442583"/></linearGradient><linearGradient id="aO" gradientTransform="matrix(.54999 0 0 -.54999 76.561 342.34)" gradientUnits="userSpaceOnUse" x1="0" x2="1" xlink:href="#aA" y1="0" y2="0"/><linearGradient id="aP" gradientTransform="matrix(1.4886 .5418 .5418 -1.4886 77.186 341.58)" gradientUnits="userSpaceOnUse" x1="0" x2="1" y1="0" y2="0"><stop offset="0" stop-color="#30205a"/><stop offset=".24699" stop-color="#362466"/><stop offset="1" stop-color="#442583"/></linearGradient><linearGradient id="aQ" gradientTransform="matrix(-1.682 0 0 1.682 78.971 340.86)" gradientUnits="userSpaceOnUse" x1="0" x2="1" xlink:href="#aK" y1="0" y2="0"/><linearGradient id="aR" gradientTransform="matrix(.46795 0 0 -.46795 77.109 340.659)" gradientUnits="userSpaceOnUse" x1="0" x2="1" y1="0" y2="0"><stop offset="0" stop-color="#362466"/><stop offset="1" stop-color="#3d2174"/></linearGradient><linearGradient id="aS" gradientTransform="matrix(-3.0282 0 0 3.0282 78.971 340.444)" gradientUnits="userSpaceOnUse" x1="0" x2="1" y1="0" y2="0"><stop offset="0" stop-color="#30205a"/><stop offset=".5092" stop-color="#7264b8"/><stop offset="1" stop-color="#51369b"/></linearGradient><linearGradient id="aT" gradientTransform="matrix(1.1195 -1.939 -1.939 -1.1195 74.759 342.703)" gradientUnits="userSpaceOnUse" x1="0" x2="1" y1="0" y2="0"><stop offset="0" stop-color="#301a4a"/><stop offset=".54601" stop-color="#422568"/><stop offset="1" stop-color="#5e2590"/></linearGradient><linearGradient id="aU" gradientTransform="matrix(0 .83171 .83171 0 76.509 341.212)" gradientUnits="userSpaceOnUse" x1="0" x2="1" y1="0" y2="0"><stop offset="0" stop-color="#4c2c7a"/><stop offset=".74233" stop-color="#5e2590"/><stop offset="1" stop-color="#5e2590"/></linearGradient><linearGradient id="aV" gradientTransform="matrix(0 .86659 .86659 0 76.008 341.158)" gradientUnits="userSpaceOnUse" x1="0" x2="1" y1="0" y2="0"><stop offset="0" stop-color="#422568"/><stop offset="1" stop-color="#572285"/></linearGradient><linearGradient id="aW" gradientTransform="matrix(-.45484 0 0 .45484 77.171 341.662)" gradientUnits="userSpaceOnUse" x1="0" x2="1" y1="0" y2="0"><stop offset="0" stop-color="#4c2c7a"/><stop offset=".79755" stop-color="#53207e"/><stop offset="1" stop-color="#53207e"/></linearGradient><linearGradient id="aX" gradientTransform="matrix(3.7613 0 0 -3.7613 73.41 341.487)" gradientUnits="userSpaceOnUse" x1="0" x2="1" y1="0" y2="0"><stop offset="0" stop-color="#3b215c"/><stop offset=".53374" stop-color="#9d79c3"/><stop offset="1" stop-color="#5e2590"/></linearGradient><g transform="translate(1538.955 682.19403)"><g clip-path="url(#a)" transform="matrix(68.176691 0 0 -68.176691 -6478.0787 23001.005)"><path d="m76.025 342.45c-.367.502-.672 1.549-.651 1.97.018.361.046.792-.166 1.421-.285.852-.55 1.214-.786 1.21-.03 0-.056-.012-.078-.033l.001.001c-.179-.102-.165-.741.126-1.785.205-.735.478-1.395.799-1.955.179-.311.483-.734.728-.885l.031-.006z" fill="url(#ab)"/></g><g clip-path="url(#b)" transform="matrix(68.176691 0 0 -68.176691 -6478.0787 23001.005)"><path d="m74.496 345.25c-.317 1.137-.306 1.794-.074 1.798.236.004.501-.358.786-1.21.212-.629.184-1.06.166-1.421-.021-.421.284-1.468.651-1.97l.004-.062c-.245.151-.556.599-.734.91-.321.559-.594 1.219-.799 1.955" fill="url(#ac)"/></g><g clip-path="url(#c)" transform="matrix(68.176691 0 0 -68.176691 -6478.0787 23001.005)"><path d="m75.258 343.69c.179-.185.319-.384.386-.486-.034.089-.065.179-.093.269-.09.153-.248.407-.424.639-.144.19-.328.42-.456.578.088-.256.185-.501.289-.733.111-.094.233-.201.298-.267" fill="url(#ad)"/></g><g clip-path="url(#d)" transform="matrix(68.176691 0 0 -68.176691 -6478.0787 23001.005)"><path d="m75.295 343.3c-.321.559-.594 1.219-.799 1.955-.277.993-.304 1.62-.151 1.766-.179-.102-.165-.741.126-1.785.205-.735.478-1.395.799-1.955.179-.311.483-.734.728-.885l.031-.006c-.245.151-.556.599-.734.91" fill="url(#ae)"/></g><g clip-path="url(#e)" transform="matrix(68.176691 0 0 -68.176691 -6478.0787 23001.005)"><path d="m75.66 343.16c-.005.015-.011.03-.016.044-.067.102-.207.301-.386.486-.065.066-.187.173-.298.267.037-.081.074-.161.112-.24.088-.05.205-.128.31-.233.124-.123.222-.247.278-.324" fill="url(#af)"/></g><g clip-path="url(#f)" transform="matrix(68.176691 0 0 -68.176691 -6478.0787 23001.005)"><path d="m75.76 342.92c-.035.077-.068.158-.1.239-.056.077-.154.201-.278.324-.105.105-.222.183-.31.233.072-.146.146-.286.223-.42.027-.047.057-.097.089-.149.048-.024.099-.051.143-.075.07-.038.177-.112.233-.152" fill="url(#ah)"/></g><g clip-path="url(#g)" transform="matrix(68.176691 0 0 -68.176691 -6478.0787 23001.005)"><path d="m75.796 342.84c-.012.025-.024.051-.036.078-.056.04-.163.114-.233.152-.044.024-.095.051-.143.075.042-.066.087-.135.135-.204.061-.022.132-.047.17-.062.039-.015.079-.029.107-.039" fill="url(#ai)"/></g><g clip-path="url(#h)" transform="matrix(68.176691 0 0 -68.176691 -6478.0787 23001.005)"><path d="m75.859 342.72c-.021.04-.042.081-.063.124-.028.01-.068.024-.107.039-.038.015-.109.04-.17.062.044-.064.091-.128.139-.189.019-.004.038-.007.052-.01.03-.005.104-.018.149-.026" fill="url(#aj)"/></g><g clip-path="url(#i)" transform="matrix(68.176691 0 0 -68.176691 -6478.0787 23001.005)"><g transform="translate(77.309 347.094)"><path d="m0 0c-.189.279-.418.34-.645.242.002 0 .003.001.005.002-.271-.103-.541-.435-.74-.896-.258-.601-.376-1.276-.367-2.121.004-.41.092-1.133.349-1.68l.018-.01.043.03c-.097.692.036 1.081.182 1.483.05.137.248.487.451.541.372.099.593.459.796.906.152.335.187 1.091-.092 1.503" fill="#b3caec"/></g><g transform="translate(75.95 346.45)"><path d="m0 0c .359.834.952 1.244 1.359.644.279-.412.244-1.169.092-1.503-.203-.448-.424-.807-.796-.906-.203-.054-.401-.405-.451-.541-.146-.402-.279-.792-.182-1.484l-.043-.029c-.257.547-.342 1.287-.346 1.698-.009.845.108 1.52.367 2.121" fill="#b3caec"/></g></g><g clip-path="url(#j)" transform="matrix(68.176691 0 0 -68.176691 -6478.0787 23001.005)"><path d="m75.95 346.45c.193.449.455.776.719.887-.271-.103-.541-.434-.74-.895-.258-.601-.376-1.276-.367-2.122.004-.41.092-1.132.349-1.679l.018-.011c-.257.547-.342 1.288-.346 1.699-.009.845.108 1.52.367 2.121" fill="url(#ak)"/></g><g clip-path="url(#k)" transform="matrix(68.176691 0 0 -68.176691 -6478.0787 23001.005)"><path d="m76.605 344.68c.372.099.593.458.796.906.073.161.119.422.116.694-.026.106-.065.225-.121.293-.092.111-.257.228-.473.075-.236-.168-.39-.541-.528-1.113-.103-.426-.129-.937-.135-1.187.088.143.215.298.345.332" fill="url(#al)"/></g><g clip-path="url(#l)" transform="matrix(68.176691 0 0 -68.176691 -6478.0787 23001.005)"><path d="m76.733 346.46c-.075-.091-.257-.431-.373-.916-.104-.433-.141-1.046-.153-1.29.016.03.033.061.053.094.006.25.032.761.135 1.187.123.509.258.861.453 1.05-.038-.036-.08-.082-.115-.125" fill="url(#am)"/></g><path d="m-1298.9-360.22c-.069-1.3635-.1363-2.6589-.1363-3.9543-1.909-15.272-2.1817-28.293-1.2954-39.951-2.1135-4.0224-5.0451-8.5221-8.7948-12.613-3.6816-3.9543-7.9085-6.8858-11.59-8.9993 3.5453 22.499 9.6811 46.906 19.226 67.29l2.5907-1.7726" fill="#b8d2f0"/><path d="m-1321.5-539.32c-2.6588 20.044-3.886 41.656-3.6133 65.109.069 7.4313.5453 16.43 1.4998 26.384 3.9543 2.1135 8.7267 5.1814 12.749 9.6124 6.3404 6.8858 10.227 14.862 12.272 19.976 2.6589-16.089 7.4313-29.589 12.408-43.36.2046-.47724.4091-.95448.6136-1.4998-2.8634-9.6124-8.113-25.498-16.772-44.587-6.2722-13.84-13.431-24.407-19.157-31.634" fill="#bcd4f0"/><g clip-path="url(#m)" transform="matrix(68.176691 0 0 -68.176691 -6478.0787 23001.005)"><path d="m78.018 346.15c.746.328 1.419.261 1.689-.464.203-.549-.1-1.518-.796-1.787-.285-.11-.707-.042-1.084.115-.202.085-.441.152-.798-.043-.377-.206-.743-.553-.951-1.142l-.058.007c.018.693.255 1.409.573 1.93.435.713.931 1.167 1.425 1.384" fill="url(#an)"/></g><g clip-path="url(#n)" transform="matrix(68.176691 0 0 -68.176691 -6478.0787 23001.005)"><path d="m78.034 346.14c.57.25 1.098.27 1.435-.058-.336.344-.872.327-1.451.073-.494-.217-.99-.671-1.425-1.384-.318-.521-.555-1.237-.573-1.93l.016-.002c.021.689.256 1.399.573 1.917.435.713.93 1.167 1.425 1.384" fill="url(#ao)"/></g><g clip-path="url(#o)" transform="matrix(68.176691 0 0 -68.176691 -6478.0787 23001.005)"><path d="m76.157 343.36c.028-.014.091-.047.14-.073.146.232.322.409.509.545-.018.085-.057.205-.143.323-.077.105-.173.172-.257.214-.136-.295-.243-.626-.307-.966.023-.02.045-.036.058-.043" fill="url(#ap)"/></g><g clip-path="url(#p)" transform="matrix(68.176691 0 0 -68.176691 -6478.0787 23001.005)"><path d="m76.128 343.18c.022-.041.036-.081.045-.115.038.08.08.155.124.225-.049.026-.112.059-.14.073-.013.007-.035.023-.058.043-.009-.047-.016-.093-.023-.139.017-.027.037-.059.052-.087" fill="url(#aq)"/></g><path d="m-1290.4-374.81c1.7044-4.5678 3.5452-8.9993 5.5223-13.158-.6136-2.2499-1.5681-5.0451-3.0679-7.8403-1.0227-1.909-2.3862-4.0906-3.5453-5.9314-1.2271 7.8403-2.0453 15.681-2.4543 23.521l3.5453 3.4088" fill="#dfd1ec"/><g clip-path="url(#q)" transform="matrix(68.176691 0 0 -68.176691 -6478.0787 23001.005)"><path d="m79.107 344.71c.086.21.161.554-.182.663-.365.116-1.111-.522-1.301-.712-.134-.135-.376-.462-.506-.644.308.139.524.076.709-.001.208-.086.429-.146.634-.164.148.119.461.409.646.858" fill="url(#ar)"/></g><g clip-path="url(#r)" transform="matrix(68.176691 0 0 -68.176691 -6478.0787 23001.005)"><path d="m77.327 344.42c-.172-.193-.338-.409-.422-.521.041.027.083.051.124.074.031.017.06.031.089.044.13.182.372.509.506.644.124.124.483.437.819.609-.249-.098-.8-.496-1.116-.85" fill="url(#as)"/></g><g clip-path="url(#s)" transform="matrix(68.176691 0 0 -68.176691 -6478.0787 23001.005)"><g clip-path="url(#t)"><path d="m81.039 347.38h-8.3853v-10.081h8.3853z" fill="url(#at)"/></g></g><g clip-path="url(#u)" transform="matrix(68.176691 0 0 -68.176691 -6478.0787 23001.005)"><path d="m80.285 343.04c-.323.224-.777.33-1.292.361-.386.023-.876-.083-1.099-.137.094-.035.174-.081.232-.136.076-.072.215-.296.323-.431.336-.419.602-.547.95-.63.55-.131 1.07.051 1.372.452-.111.161-.287.384-.486.521" fill="url(#au)"/></g><g clip-path="url(#v)" transform="matrix(68.176691 0 0 -68.176691 -6478.0787 23001.005)"><path d="m79.024 343.38c.516-.031.969-.137 1.292-.361.017-.011.033-.023.049-.035-.026.021-.053.042-.08.06-.323.224-.777.33-1.292.361-.386.023-.876-.083-1.099-.137.017-.006.034-.013.05-.02.231.055.705.154 1.08.132" fill="url(#av)"/></g><g clip-path="url(#w)" transform="matrix(68.176691 0 0 -68.176691 -6478.0787 23001.005)"><path d="m76.919 343.44c-.003.076-.03.167-.052.23-.184-.179-.347-.368-.485-.558.006-.037.012-.074.015-.09.004-.015.01-.035.017-.054.163.12.333.207.5.266.005.053.01.127.005.206" fill="url(#aw)"/></g><path d="m-1276.8-374.74c2.7953-2.3862 5.5905-4.636 8.3858-6.6814-.4773-1.2954-.8863-2.7271-1.0908-3.6816-.2727-1.159-.6818-3.6816-1.0227-6.1359-1.5681 2.1135-3.1361 4.2952-4.5679 6.4086 0 1.4317-.069 3.1361-.3409 4.4996-.2726 1.4317-.8862 3.6816-1.3635 5.5904" fill="#68438e"/><path d="m-1276.9-374.67s.069-.0682.069-.0682c.4773-1.909 1.0909-4.1588 1.3635-5.5904.2727-1.3635.3409-3.068.3409-4.4996-1.6362 2.4543-3.2043 4.8405-4.7724 7.1586l2.9998 2.9998" fill="#8f6eb2"/><g clip-path="url(#x)" transform="matrix(68.176691 0 0 -68.176691 -6478.0787 23001.005)"><g clip-path="url(#y)"><path d="m81.039 347.38h-8.3853v-10.081h8.3853z" fill="url(#ax)"/></g></g><g clip-path="url(#z)" transform="matrix(68.176691 0 0 -68.176691 -6478.0787 23001.005)"><g clip-path="url(#A)"><path d="m81.039 347.38h-8.3853v-10.081h8.3853z" fill="url(#ay)"/></g></g><g clip-path="url(#B)" transform="matrix(68.176691 0 0 -68.176691 -6478.0787 23001.005)"><path d="m75.395 342.65s.102-.013.157-.022c.071-.01.137-.033.137-.033l.085-.056s-.054.007-.104.005c-.041-.002-.079-.013-.079-.013z" fill="url(#az)"/></g><g clip-path="url(#C)" transform="matrix(68.176691 0 0 -68.176691 -6478.0787 23001.005)"><path d="m80.445 342.36c-.484.696-1.328.94-2.079.945-.692.004-1.467-.264-1.887-.507l.001-.046.022-.016c.331.065.611.048.836-.022.359-.123.581-.38.635-.64.048-.232.041-.48.029-.65-.029-.419.017-.702.299-1.021.514-.582 1.364-.497 1.886-.033.554.492.758 1.273.258 1.99" fill="url(#aB)"/></g><g clip-path="url(#D)" transform="matrix(68.176691 0 0 -68.176691 -6478.0787 23001.005)"><path d="m80.445 342.36c-.484.696-1.328.94-2.079.945-.017 0-.033 0-.049-.001.056-.131.129-.355.102-.6-.028-.259-.082-.392-.154-.498.539-.116 1.057-.382 1.397-.871.269-.386.334-.791.251-1.158.098.053.19.118.274.193.554.492.758 1.273.258 1.99" fill="url(#aC)"/></g><g clip-path="url(#E)" transform="matrix(68.176691 0 0 -68.176691 -6478.0787 23001.005)"><path d="m76.48 342.75.022-.016c.333.065.616.048.842-.024-.233.082-.524.107-.864.04" fill="url(#aD)"/></g><g clip-path="url(#F)" transform="matrix(68.176691 0 0 -68.176691 -6478.0787 23001.005)"><path d="m79.662 341.33c-.34.489-.858.755-1.397.871-.04-.06-.087-.112-.138-.173-.026-.031-.078-.066-.132-.098.023-.188.016-.375.007-.511-.029-.419.017-.702.299-1.021.431-.489 1.099-.507 1.612-.226.083.367.018.772-.251 1.158" fill="url(#aE)"/></g><g clip-path="url(#G)" transform="matrix(68.176691 0 0 -68.176691 -6478.0787 23001.005)"><path d="m78.127 342.03c.14.168.248.265.292.671.027.245-.046.469-.102.6-.128-.001-.259-.012-.389-.029-.047-.077-.119-.181-.21-.273-.107-.107-.29-.213-.412-.277.378-.119.612-.383.667-.651.009-.046.017-.093.022-.139.054.032.106.067.132.098" fill="url(#aF)"/></g><g clip-path="url(#H)" transform="matrix(68.176691 0 0 -68.176691 -6478.0787 23001.005)"><path d="m77.088 343.06c-.017-.042-.043-.095-.102-.164-.033-.039-.075-.081-.111-.116.159-.001.304-.025.431-.065.122.064.305.17.412.277.091.092.163.196.21.273-.292-.04-.582-.115-.84-.205" fill="url(#aG)"/></g><g clip-path="url(#I)" transform="matrix(68.176691 0 0 -68.176691 -6478.0787 23001.005)"><path d="m76.986 342.9c.059.069.085.122.102.164-.096-.034-.188-.069-.273-.106-.025-.028-.059-.063-.1-.1-.026-.024-.07-.06-.111-.092.095.013.185.019.271.018.036.035.078.077.111.116" fill="url(#aH)"/></g><g clip-path="url(#J)" transform="matrix(68.176691 0 0 -68.176691 -6478.0787 23001.005)"><path d="m76.682 342.9c-.019-.023-.044-.05-.066-.073-.02-.02-.06-.049-.093-.072.027.005.055.01.081.013.041.032.085.068.111.092.041.037.075.072.1.1-.046-.02-.09-.04-.133-.06" fill="url(#aI)"/></g><g clip-path="url(#K)" transform="matrix(68.176691 0 0 -68.176691 -6478.0787 23001.005)"><path d="m80.187 340.39c-.522-.464-1.372-.55-1.886.033-.234.264-.305.5-.307.811-.001-.32.069-.563.307-.832.514-.582 1.364-.497 1.886-.033.338.3.545.708.543 1.143-.003-.427-.21-.827-.543-1.122" fill="url(#aJ)"/></g><g clip-path="url(#L)" transform="matrix(68.176691 0 0 -68.176691 -6478.0787 23001.005)"><path d="m78.388 342.12c-.491.357-1.381.47-1.8.454l-.027-.042.002-.018c.302-.058.477-.206.548-.375.066-.157.053-.33-.029-.464-.131-.218-.44-.438-.552-.52-.442-.323-.608-.618-.608-.98 0-.484.466-.735 1.044-.716.603.02 1.625.354 1.939 1.279.176.517-.001 1.008-.517 1.382" fill="url(#aL)"/></g><g clip-path="url(#M)" transform="matrix(68.176691 0 0 -68.176691 -6478.0787 23001.005)"><path d="m78.905 340.74c-.314-.925-1.336-1.259-1.939-1.279-.578-.019-1.044.232-1.044.716 0 .362.166.657.608.98.112.082.421.302.552.52.174.287.036.752-.521.857l.027.042c.419.016 1.309-.097 1.8-.454.516-.374.693-.865.517-1.382" fill="url(#aL)"/></g><g clip-path="url(#N)" transform="matrix(68.176691 0 0 -68.176691 -6478.0787 23001.005)"><path d="m77.209 342.42c.096.019.176.048.236.074-.331.069-.651.092-.857.084l-.027-.042c.142-.027.257-.077.346-.142.08-.001.189.003.302.026" fill="url(#aM)"/></g><g clip-path="url(#O)" transform="matrix(68.176691 0 0 -68.176691 -6478.0787 23001.005)"><path d="m77.514 340.84c-.052.42-.281.773-.393.923-.01-.027-.023-.054-.039-.079-.131-.218-.44-.438-.552-.52-.442-.323-.608-.618-.608-.98 0-.484.466-.735 1.044-.716.172.006.377.037.59.1.005.329.004.895-.042 1.272" fill="url(#aN)"/></g><g clip-path="url(#P)" transform="matrix(68.176691 0 0 -68.176691 -6478.0787 23001.005)"><path d="m76.561 342.54.002-.018c.302-.058.477-.206.548-.375-.075.179-.253.337-.55.393" fill="url(#aO)"/></g><path d="m-1146.6-331.78c-15.272-8.0449-33.611-13.704-51.542-17.385-4.0906 1.7726-9.5448 3.7497-16.089 5.0451-7.704 1.5681-15.203 1.8407-20.589 1.7726 3.4088 2.4543 6.2723 5.2496 8.5903 8.2494 9.7496 1.7044 24.953 3.886 38.656 3.9542 10.09.0682 27.407-.81812 40.975-1.6363" fill="#442583"/><g clip-path="url(#Q)" transform="matrix(68.176691 0 0 -68.176691 -6478.0787 23001.005)"><path d="m78.915 341.46c-.083.244-.259.47-.527.664-.057.042-.12.08-.187.115-.198-.012-.453-.025-.6-.024-.202.001-.425.034-.567.058.124-.157.148-.353.087-.515.03-.04.069-.096.111-.164.195-.07.507-.162.852-.185.331-.022.652.02.831.051" fill="url(#aP)"/></g><g clip-path="url(#R)" transform="matrix(68.176691 0 0 -68.176691 -6478.0787 23001.005)"><path d="m78.915 341.46c-.179-.031-.5-.073-.831-.051-.244.016-.471.067-.652.12-.017-.006-.035-.012-.053-.016-.027-.007-.059-.013-.09-.017.096-.175.193-.406.225-.661.016-.136.027-.297.034-.462.141-.075.323-.142.552-.174.168-.023.355-.009.512.022.124.148.225.321.293.521.085.249.087.491.01.718" fill="url(#aQ)"/></g><path d="m-1199-283.38c-5.1133-1.4998-9.7497-3.0679-13.635-4.4315 1.2954 2.0453 2.5908 4.2952 3.8861 6.6814 2.1135-.27271 4.2951-.61359 6.2041-1.159 1.2272-.27271 2.3862-.68177 3.5451-1.0908" fill="#30205a"/><g clip-path="url(#S)" transform="matrix(68.176691 0 0 -68.176691 -6478.0787 23001.005)"><path d="m77.514 340.84c-.052.42-.281.773-.393.923-.006-.015-.005-.012-.012-.027.115-.158.331-.508.381-.914.045-.369.053-.927.049-1.259.01.003.007.002.017.005.005.329.004.895-.042 1.272" fill="url(#aR)"/></g><g clip-path="url(#T)" transform="matrix(68.176691 0 0 -68.176691 -6478.0787 23001.005)"><path d="m78.927 341.42c.056-.208.046-.428-.03-.653-.315-.925-1.337-1.259-1.939-1.279-.494-.016-.905.165-1.015.519.096-.373.516-.564 1.023-.548.603.02 1.625.354 1.939 1.279.08.236.087.466.022.682" fill="url(#aS)"/></g><g clip-path="url(#U)" transform="matrix(68.176691 0 0 -68.176691 -6478.0787 23001.005)"><path d="m76.508 342.35-.044-.002v-.027c.037-.043.054-.078.057-.108-.013-.112-.207-.169-.416-.194-.151-.018-.473-.009-.651.013-.366.046-.679.092-.981.094-.47.003-1.078-.046-1.063-.318.017-.304 1.076-.591 1.729-.638.544-.039 1.673-.052 1.969.346.234.315-.229.654-.6.834" fill="url(#aT)"/></g><g clip-path="url(#V)" transform="matrix(68.176691 0 0 -68.176691 -6478.0787 23001.005)"><path d="m75.139 341.17c-.653.047-1.712.334-1.729.638-.015.272.593.321 1.063.318.302-.002.615-.048.981-.094.178-.022.5-.031.651-.013.281.034.535.125.359.329l.044.002c.371-.18.834-.519.6-.834-.296-.398-1.425-.385-1.969-.346" fill="url(#aT)"/></g><path d="m-1265-339.43v1.909c2.5225 2.8634 3.7497 5.3178 3.886 7.3631.3409-2.6589-.8181-5.7269-3.886-9.272" fill="#29163e"/><g clip-path="url(#W)" transform="matrix(68.176691 0 0 -68.176691 -6478.0787 23001.005)"><path d="m76.439 341.7c-.098.135-.165.262-.206.347-.023-.004-.046-.008-.07-.012.019-.089.054-.245.094-.385.045-.16.118-.328.167-.434.16.027.309.066.431.121-.118.082-.322.233-.416.363" fill="url(#aU)"/></g><g clip-path="url(#X)" transform="matrix(68.176691 0 0 -68.176691 -6478.0787 23001.005)"><path d="m76.066 341.58c-.033.151.02.352.047.44-.003 0-.005-.001-.008-.001-.015-.002-.032-.003-.05-.005-.057-.081-.179-.267-.225-.463-.037-.153-.03-.3-.017-.397.132.003.268.011.401.025-.045.081-.108.22-.148.401" fill="url(#aV)"/></g><g clip-path="url(#Y)" transform="matrix(68.176691 0 0 -68.176691 -6478.0787 23001.005)"><path d="m77.108 341.52c.051.068.069.138.062.206-.034.006-.07.014-.101.024-.104.033-.352.141-.352.141s.098-.225.165-.311c.05-.064.099-.112.14-.147.033.026.062.055.086.087" fill="url(#aW)"/></g><g clip-path="url(#Z)" transform="matrix(68.176691 0 0 -68.176691 -6478.0787 23001.005)"><path d="m77.168 341.74c.006-.064-.012-.131-.063-.198-.299-.395-1.425-.385-1.969-.346-.639.047-1.665.322-1.726.618v-.006c.017-.304 1.076-.591 1.729-.638.544-.039 1.673-.052 1.969.346.055.074.072.15.06.224" fill="url(#aX)"/></g><g fill="#917ec6"><path d="m-1500.6-74.304c0 2.0403-1.544 3.8049-3.6946 3.8049-3.8601 0-5.1284-4.4666-13.731-4.4666-6.3415 0-11.028 3.9703-11.028 9.8709 0 15.33 33.031 7.996 33.031 31.487 0 11.525-8.3821 22.002-23.546 22.002-9.209 0-19.41-3.5292-19.41-8.3821 0-2.3711 1.2131-4.4114 3.6394-4.4114 2.9226 0 7.0584 5.3489 15.881 5.3489 8.8784 0 14.282-6.4518 14.282-14.172 0-16.543-33.086-8.4923-33.086-31.321 0-8.1062 7.6098-17.866 20.513-17.866 8.6573 0 17.15 3.5843 17.15 8.1062"/><path d="m-1477.2-45.683h12.738c8.4923 0 14.282-6.3415 14.282-14.282 0-6.8378-3.9151-14.502-14.668-14.502h-12.352v28.785zm0 29.446c0 2.8123-1.6543 4.5769-4.3012 4.5769s-4.3012-1.7646-4.3012-4.5769v-60.933c0-2.6469 1.3786-4.6872 4.5769-4.6872h17.039c14.006 0 22.609 9.7608 22.609 21.892s-9.5951 21.726-22.333 21.726h-13.289v22.002"/><path d="m-1424-20.206h20.734c2.4814 0 4.1909 1.2683 4.1909 4.0254 0 2.702-1.7095 3.9703-4.1909 3.9703h-24.759c-3.1984 0-4.5769-2.0403-4.5769-4.6872v-60.271c0-2.5918 1.3785-4.6872 4.5769-4.6872h24.759c2.4814 0 4.1909 1.2683 4.1909 4.0254s-1.7095 4.0254-4.1909 4.0254h-20.734v22.774h18.859c2.4814 0 4.246 1.2683 4.246 4.0254s-1.7645 4.0254-4.246 4.0254h-18.859v22.774"/><path d="m-1380.6-16.237c0 2.8123-1.6543 4.5769-4.3012 4.5769s-4.3012-1.7646-4.3012-4.5769v-61.65c0-2.8123 1.6543-4.5769 4.3012-4.5769s4.3012 1.7646 4.3012 4.5769v25.476l29.832-27.296c1.5992-1.4888 2.9226-2.7571 4.6872-2.7571 2.1506 0 3.7498 1.4888 3.7498 3.6946 0 2.2609-.772 3.0329-1.7646 3.9152l-28.564 25.752 31.211 30.108c1.3235 1.2683 1.7646 2.2609 1.7646 3.5292 0 2.0403-1.8748 3.8049-4.2461 3.8049-1.2683 0-2.4263-.16543-4.1909-1.8198l-32.48-31.928v29.171"/><path d="m-1319.3-73.865h-13.014c-2.4263 0-4.1909-1.2683-4.1909-4.0254 0-2.702 1.7646-3.9703 4.1909-3.9703h34.63c2.4263 0 4.1909 1.2683 4.1909 3.9703 0 2.7571-1.7646 4.0254-4.1909 4.0254h-13.014v57.625c0 2.8123-1.6543 4.5769-4.3012 4.5769-2.6468 0-4.3011-1.7646-4.3011-4.5769v-57.625"/><path d="m-1277.1-49.651h11.746c8.9886 0 12.903-3.8049 12.903-12.793 0-6.5069-5.0732-11.966-13.124-11.966h-11.525zm0 33.472c0 2.8123-1.6543 4.5769-4.3012 4.5769s-4.3012-1.7646-4.3012-4.5769v-60.989c0-2.5918 1.3786-4.6872 4.5769-4.6872h15.937c10.974 0 21.34 7.4444 21.34 18.804 0 14.062-8.6025 19.355-18.969 19.741l-3.6946.11028 22.168 24.373c1.2131 1.2683 1.6543 2.316 1.6543 3.9152 0 1.8749-1.7095 3.3086-3.8601 3.3086-1.7645 0-2.9777-.88229-3.9151-1.93l-26.634-29.171v26.524"/><path d="m-1234-77.833c0-2.8123 1.6543-4.5769 4.3012-4.5769s4.3012 1.7646 4.3012 4.5769v41.358c0 10.974 7.4444 17.425 18.418 17.425 10.918 0 18.362-6.4518 18.362-17.425v-41.358c0-2.8123 1.6543-4.5769 4.3012-4.5769s4.3012 1.7646 4.3012 4.5769v38.049c0 23.491-15.054 28.178-26.965 28.178-11.966 0-27.02-4.6872-27.02-28.178v-38.049"/><path d="m-1162.8-15.351c-.386 3.0329-2.3711 3.6946-4.5769 3.6946-2.6468 0-4.0254-1.7646-4.0254-4.3563 0-.99257.1654-2.2609.4963-3.9152l9.4848-55.971c.8823-4.9077 3.5844-6.562 6.7275-6.562 3.4189 0 5.2938 1.2683 6.2864 4.5217l14.834 50.952h.2206l14.888-50.952c.9374-3.2534 2.8123-4.5217 6.2312-4.5217 3.1431 0 5.9003 1.6543 6.7826 6.562l9.4849 55.971c.2757 1.6543.4963 2.9226.4963 3.9152 0 2.5918-1.3786 4.3563-4.0255 4.3563-2.2608 0-4.1909-.66172-4.632-3.6946l-8.1063-55.971h-.1654l-16.653 56.191c-.8823 2.8123-2.4263 3.4741-4.4115 3.4741-1.93 0-3.5291-.66172-4.4114-3.4741l-16.598-56.191h-.2206l-8.1062 55.971"/><path d="m-1068.5-74.787c0-4.8937 3.1283-7.6193 7.3406-7.6193s7.3406 2.7256 7.3406 7.6193v20.721h30.694v-20.721c0-4.8937 3.1283-7.6193 7.3406-7.6193 4.1814 0 7.3406 2.7256 7.3406 7.6193v55.534c0 4.8937-3.1592 7.6503-7.3406 7.6503-4.2123 0-7.3406-2.7566-7.3406-7.6503v-21.309h-30.694v21.309c0 4.8937-3.1283 7.6503-7.3406 7.6503s-7.3406-2.7566-7.3406-7.6503z"/><path d="m-982.47-25.696h9.8804c12.606 0 18.367-9.2919 18.367-21.031 0-12.513-5.8539-21.619-19.358-21.619h-8.8892v42.65zm-14.681-48.597c0-4.4911 3.1283-7.5264 7.5574-7.5264h16.23c21.898 0 34.411 14.062 34.411 35.774 0 20.535-13.287 33.853-33.451 33.853h-17.004c-3.2212 0-7.7432-1.7655-7.7432-7.3406v-54.76"/></g></g></svg>