<?xml version="1.0" encoding="UTF-8" standalone="no"?>
<svg
   xmlns:dc="http://purl.org/dc/elements/1.1/"
   xmlns:cc="http://creativecommons.org/ns#"
   xmlns:rdf="http://www.w3.org/1999/02/22-rdf-syntax-ns#"
   xmlns:svg="http://www.w3.org/2000/svg"
   xmlns="http://www.w3.org/2000/svg"
   xmlns:sodipodi="http://sodipodi.sourceforge.net/DTD/sodipodi-0.dtd"
   xmlns:inkscape="http://www.inkscape.org/namespaces/inkscape"
   width="118.1576pt"
   height="52.495415pt"
   viewBox="0 0 118.1576 52.495415"
   version="1.1"
   id="svg13"
   sodipodi:docname="Spice - Dark.svg"
   inkscape:version="0.92.0 r15299">
  <metadata
     id="metadata19">
    <rdf:RDF>
      <cc:Work
         rdf:about="">
        <dc:format>image/svg+xml</dc:format>
        <dc:type
           rdf:resource="http://purl.org/dc/dcmitype/StillImage" />
        <dc:title></dc:title>
      </cc:Work>
    </rdf:RDF>
  </metadata>
  <defs
     id="defs17" />
  <sodipodi:namedview
     pagecolor="#ffffff"
     bordercolor="#666666"
     borderopacity="1"
     objecttolerance="10"
     gridtolerance="10"
     guidetolerance="10"
     inkscape:pageopacity="0"
     inkscape:pageshadow="2"
     inkscape:window-width="1920"
     inkscape:window-height="1017"
     id="namedview15"
     showgrid="false"
     fit-margin-top="0"
     fit-margin-left="0"
     fit-margin-right="0"
     fit-margin-bottom="0"
     inkscape:zoom="4.8196398"
     inkscape:cx="63.937183"
     inkscape:cy="42.089462"
     inkscape:window-x="-8"
     inkscape:window-y="-8"
     inkscape:window-maximized="1"
     inkscape:current-layer="svg13" />
  <g
     id="#000000ff"
     transform="translate(-2.6710907,-22.329424)">
    <path
       d="m 62.37,22.43 c 1.88,-0.45 4.2,0.64 4.5,2.67 0.51,2.18 -1.3,3.88 -1.74,5.89 -1.94,12.01 -4,24.01 -6.2,35.98 -0.45,2.01 0.63,3.96 0.36,5.97 -0.89,2.36 -4.67,2.38 -5.65,0.08 -0.88,-2.26 1.55,-3.79 1.75,-5.91 C 56.8,55 58.3,42.9 59.91,30.81 c 0.2,-2.88 -1.61,-7.5 2.46,-8.38 z"
       id="path2"
       inkscape:connector-curvature="0"
       style="opacity:1;fill:#000000" />
    <path
       d="m 6.03,26.07 c 1.55,-2.13 4.52,-2.16 6.87,-1.73 3.69,0.78 5.49,4.62 8.95,5.9 2.82,1.21 1.06,5.93 -1.82,5.31 -2.49,0.12 -2.78,-2.69 -2.84,-4.51 -1.93,-1.94 -4.37,-3.45 -7.22,-2.85 1.17,3.73 4.21,6.32 6.74,9.13 C 22.08,43.14 28.61,49.5 28.59,58 28.5,66.3 20.34,71.91 12.75,72.79 9.64,73.01 5.73,73.2 3.59,70.49 1.72,68.04 3.06,64.87 4.46,62.55 c 2.55,-4.03 5.93,-7.6 9.99,-10.13 1.68,-0.97 4.14,-2 5.76,-0.37 1.44,3.87 -2.3,7.14 -2.08,11.02 0.17,3.62 -5.85,3.33 -5.78,-0.14 0.33,-3.16 4.61,-3.89 4.79,-7.37 C 12.88,58.94 9.07,63.67 8.61,69.28 16.2,70.15 25.19,63.6 23.53,55.37 20.16,46.21 10.89,41.11 6.14,32.82 5,30.8 4.57,28.05 6.03,26.07 Z"
       id="path4"
       inkscape:connector-curvature="0"
       style="opacity:1;fill:#000000" />
    <path
       d="m 35.48,32.45 c 2.11,-3.59 4.66,-8.32 9.49,-8.23 4.25,-0.46 7.35,3.87 6.82,7.82 -0.71,7.88 -6.64,13.98 -12.36,18.87 1.03,5.38 2.05,10.76 3.07,16.13 0.32,2.1 2.78,3.54 2.15,5.81 C 44.06,74.9 41.44,75.3 39.8,74.3 38.19,72.57 39.39,70.12 38.94,68.06 36.25,56.74 33.59,45.4 31.08,34.04 30.71,32.18 29.39,30.73 28.71,29 c -0.68,-3.11 3.48,-5.66 5.92,-3.57 2.29,1.55 1.34,4.81 0.85,7.02 m 6.39,-2.64 c -2.51,2.04 -3.98,5.19 -4.75,8.28 0.17,3.2 1.06,6.29 1.67,9.41 3.84,-4.39 7.67,-9.54 7.83,-15.61 0.26,-2.48 -3.05,-3.49 -4.75,-2.08 z"
       id="path6"
       inkscape:connector-curvature="0"
       style="opacity:1;fill:#000000" />
    <path
       d="m 75.4,26.37 c 2.53,-2.63 7,-2.83 9.87,-0.64 3.28,2.18 4.12,6.4 7.21,8.8 2.05,1.94 -0.55,4.46 -2.52,5.03 -2.5,-0.88 -3.25,-3.27 -2.41,-5.65 -1.36,-2.56 -3.81,-6 -7.17,-4.49 -3.42,2.64 -4.27,7.24 -4.91,11.26 -0.91,8.26 -0.32,17.25 4.42,24.35 1.66,2.28 4.08,4.96 7.22,4.34 1.93,-0.75 2.15,-2.96 2.68,-4.68 -2.51,-2.37 -0.42,-7.25 3.14,-5.57 3.42,1.72 0.3,5.3 -0.29,7.79 -0.61,2.78 -2.5,5.7 -5.6,5.95 -4.8,0.79 -8.92,-2.73 -11.36,-6.5 -5.05,-7.91 -6.05,-17.69 -5.41,-26.87 0.49,-4.67 1.59,-9.76 5.13,-13.12 z"
       id="path8"
       inkscape:connector-curvature="0"
       style="opacity:1;fill:#000000" />
    <path
       d="m 107.89,27.86 c 3.18,-2.65 8.48,-2.04 10.65,1.61 3.15,5.15 3.17,12.52 -0.7,17.31 -2.73,3.35 -7.32,3.36 -11.06,4.85 -2.89,1.11 -4.86,-3.6 -2.38,-5.11 1.57,-1.58 3.52,-0.03 5.07,0.69 3.05,-0.66 6.27,-2.26 7.2,-5.49 0.93,-3.32 1.04,-7.93 -2.03,-10.18 -2.5,-1.22 -4.66,1.33 -6.05,3.08 -4.55,6.49 -7.07,14.46 -7.16,22.38 0.13,4.04 0.97,8.85 4.68,11.16 2.35,0.88 3.7,-1.47 4.73,-3.12 -0.85,-2.03 -0.72,-5.41 2.19,-5.43 2.46,-0.47 3.58,2.32 3.15,4.32 -3.15,2.1 -3.98,6.88 -8.14,7.52 -3.93,0.78 -7.24,-2.46 -8.73,-5.77 -2.78,-6.31 -2.2,-13.51 -0.9,-20.1 1.5,-6.55 3.96,-13.48 9.48,-17.72 z"
       id="path10"
       inkscape:connector-curvature="0"
       style="opacity:1;fill:#000000" />
  </g>
</svg>
