<svg height="163.28" viewBox="0 0 158.75 43.201963" width="600" xmlns="http://www.w3.org/2000/svg" xmlns:xlink="http://www.w3.org/1999/xlink"><linearGradient id="a" gradientTransform="matrix(-.00000091 -21.558 21.558 -.00000091 10.198 223.58)" gradientUnits="userSpaceOnUse" x1="0" x2="1" y1="0" y2="0"><stop offset="0" stop-color="#e12228"/><stop offset=".495" stop-color="#931b1d"/><stop offset="1" stop-color="#742c29"/></linearGradient><linearGradient id="b" gradientTransform="matrix(-.00000536 27.589 -163.5 -.00000091 151.76 180.38)" gradientUnits="userSpaceOnUse" x1="0" x2="1" y1="0" y2="0"><stop offset="0" stop-color="#e11f38"/><stop offset=".495" stop-color="#941b1d"/><stop offset=".505" stop-color="#5f1514"/><stop offset="1" stop-color="#742b29"/></linearGradient><linearGradient id="c"><stop offset="0" stop-color="#fff"/><stop offset=".093994" stop-color="#fff"/><stop offset=".495" stop-color="#eff4ec"/><stop offset=".505" stop-color="#dcddde"/><stop offset="1" stop-color="#dcddde"/></linearGradient><linearGradient id="d" gradientTransform="matrix(-.00000091 23.295 -23.295 -.00000091 75.674 182.49)" gradientUnits="userSpaceOnUse" x1="0" x2="1" xlink:href="#c" y1="0" y2="0"/><linearGradient id="e" gradientTransform="matrix(0 27.831 27.831 0 -3.6506 180.17)" gradientUnits="userSpaceOnUse" x1="0" x2="1" y1="0" y2="0"><stop offset="0" stop-color="#181818"/><stop offset=".461" stop-color="#181818"/><stop offset=".4805" stop-color="#1d1d1d"/><stop offset=".50459" stop-color="#0f0f0f"/><stop offset=".696" stop-color="#0f0f0f"/><stop offset="1" stop-color="#0f0f0f"/></linearGradient><linearGradient id="f" gradientTransform="matrix(0 5.6822 5.6822 0 -53.578 191.41)" gradientUnits="userSpaceOnUse" x1="0" x2="1" y1="0" y2="0"><stop offset="0" stop-color="#db1f26"/><stop offset=".5" stop-color="#a01c21"/><stop offset=".53241" stop-color="#961b1e"/><stop offset="1" stop-color="#6c2d2a"/></linearGradient><linearGradient id="g" gradientTransform="matrix(0 23.376 23.376 0 -53.448 182.39)" gradientUnits="userSpaceOnUse" x1="0" x2="1" xlink:href="#c" y1="0" y2="0"/><linearGradient id="h" gradientTransform="matrix(0 23.389 23.389 0 -53.448 182.38)" gradientUnits="userSpaceOnUse" x1="0" x2="1" xlink:href="#c" y1="0" y2="0"/><linearGradient id="i" gradientTransform="matrix(0 23.388 23.388 0 -28.046 182.38)" gradientUnits="userSpaceOnUse" x1="0" x2="1" xlink:href="#c" y1="0" y2="0"/><linearGradient id="j" gradientTransform="matrix(0 23.391 23.391 0 -2.9255 182.37)" gradientUnits="userSpaceOnUse" x1="0" x2="1" xlink:href="#c" y1="0" y2="0"/><linearGradient id="k" gradientTransform="matrix(0 23.387 23.387 0 21.587 182.36)" gradientUnits="userSpaceOnUse" x1="0" x2="1" xlink:href="#c" y1="0" y2="0"/><linearGradient id="l" gradientTransform="matrix(0 23.389 23.389 0 46.01 182.37)" gradientUnits="userSpaceOnUse" x1="0" x2="1" xlink:href="#c" y1="0" y2="0"/><linearGradient id="m" gradientTransform="matrix(0 23.392 23.392 0 50.908 182.39)" gradientUnits="userSpaceOnUse" x1="0" x2="1" xlink:href="#c" y1="0" y2="0"/><g transform="translate(67.28 -180.38)"><path d="m-35.908 202.03c-2.0436 0-3.7088 1.6476-3.7088 3.7018v14.146c0 2.0472 1.6652 3.7018 3.7088 3.7018h92.216c2.0438 0 3.7092-1.6546 3.7092-3.7018v-14.146c0-2.0542-1.6654-3.7018-3.7092-3.7018" fill="url(#a)"/><path d="m-1.9096 210.02v11.273h2.5423v-4.6999h4.1981v4.6999h2.5424v-11.27h-2.5424v4.3487h-4.1981v-4.3487z" fill="#fff"/><path d="m11.27 221.24c.61885.0836 1.5722.16726 2.8936.16726 2.2078 0 4.0309-.46832 5.2184-1.4551 1.0704-.91991 1.8566-2.4085 1.8566-4.5661 0-2.0071-.73593-3.3786-1.9067-4.2483-1.0704-.80284-2.4754-1.2042-4.633-1.2042-1.2712 0-2.4921.0836-3.4288.25088zm2.5423-9.2494c.21744-.0502.60213-.10035 1.1541-.10035 2.2078 0 3.5793 1.2377 3.5793 3.5793 0 2.6929-1.522 3.964-3.8469 3.9473-.30106 0-.66903 0-.88646-.0502z" fill="#fff"/><path d="m58.481 180.38v27.589c8.5057.00053 17.682.007 25.126.0103 4.3455 0 7.8636-3.5214 7.8636-7.8667v-19.732c-10.996-.00008-21.993.00012-32.989-.00001z" fill="url(#b)"/><path d="m71.151 182.5c-3.1227 0-5.5303.20854-6.7785 1.188-1.3224 1.0218-1.9831 2.931-1.9831 5.7171 0 .22629.0181.57277.0353 1.0253h6.2472c.0353-1.0607.31499-1.8032.85987-2.2275.58652-.44188 1.584-.6611 2.9869-.66816l7.0862-.0107c2.0003 0 3.005.51628 3.005 1.5309l.0109.53394c0 .56923-.25524.97581-.7431 1.2197-.49873.23696-1.3043.39961-2.4357.50913l-11.657.91227c-1.6582.1555-2.9597.6611-3.9101 1.5202-.96215.86983-1.45 1.9376-1.45 3.1963l.0742 8.8532s15.784-.0388 20.864-.0388c2.6873 0 5.4307-2.832 5.4307-5.2929-2.2275 0-20.122.0283-20.122.0283v-.78139c0-1.492.65079-2.3053 1.9623-2.4431l13.072-1.0784c1.6718-.14147 2.9661-.6859 3.8821-1.637.90512-.93346 1.3686-2.1356 1.3686-3.6099v-3.1963c-.0109-1.9375-.61549-3.3588-1.8284-4.2356-1.2056-.88747-2.7896-1.0147-5.7421-1.0147" fill="url(#d)"/><path d="m-67.28 193.99v13.987h127.27v-27.59l-113.05-.0106c-7.4495 0-14.22 5.2575-14.22 13.612" fill="url(#e)"/><path d="m-56.372 194.13c0 1.5487 1.2516 2.7967 2.7966 2.7967 1.5415 0 2.7967-1.2481 2.7967-2.7967 0-1.545-1.2552-2.8037-2.7967-2.8037-1.545 0-2.7966 1.2587-2.7966 2.8037" fill="url(#f)"/><path d="m-49.393 191.84c.40658.68943.63286 1.4955.63286 2.3547 0 2.5952-2.1002 4.6953-4.6883 4.6953-.02471 0-.05304-.007-.07069-.007h-11.498v6.8768h11.569c6.3924 0 11.569-5.1762 11.569-11.565 0-.80611-.09196-1.5946-.25461-2.3547" fill="url(#g)"/><path d="m-53.448 182.62c-6.3889 0-11.569 5.1761-11.569 11.569 0 .60462.04598 1.2022.13785 1.7926.03539.2051.07078.41364.11667.61521h7.287c-.42423-.69649-.67178-1.5309-.67178-2.4078 0-2.5704 2.0825-4.6705 4.653-4.6883h11.615v-6.8803" fill="url(#h)"/><path d="m-39.599 194.15h-.01059v11.611h6.8626v-11.611h-.01059v-.0107h.01059c0-2.588 2.1002-4.6776 4.6883-4.6776 2.581 0 4.6883 2.0896 4.6883 4.6883 0 2.588-2.1072 4.6882-4.6883 4.6882-.85208 0-1.6547-.23687-2.3441-.63286v7.2658c.77071.1555 1.5486.24746 2.3617.24746 6.3889 0 11.558-5.1691 11.558-11.569 0-6.3818-5.1692-11.569-11.558-11.569s-11.558 5.1868-11.558 11.569" fill="url(#i)"/><path d="m-14.482 194.2c0 6.3818 5.1692 11.558 11.558 11.558 6.3818 0 11.558-5.1762 11.558-11.558s-5.1762-11.558-11.558-11.558c-6.3888 0-11.558 5.1762-11.558 11.558m6.8874-.007c0-2.581 2.1002-4.6811 4.6812-4.6811 2.5952 0 4.6883 2.1002 4.6883 4.6811 0 2.5952-2.0931 4.6883-4.6883 4.6883-2.581 0-4.6812-2.0931-4.6812-4.6883" fill="url(#j)"/><path d="m21.931 182.58c-6.2191.23687-11.187 5.36-11.198 11.65v11.53h6.9616v-11.53c0-2.6164 2.118-4.7237 4.7238-4.7237h10.02l.0109-6.9263" fill="url(#k)"/><path d="m34.829 182.62v11.477h.007c.01 6.4455 5.2325 11.657 11.667 11.657 4.7519 0 8.853-2.8498 10.67-6.9228h-10.687c-2.6167 0-4.7238-2.1178-4.7238-4.7342h-.0181.0181v-11.477" fill="url(#l)"/><path d="m44.114 189.46h13.577v-6.8344h-13.577z" fill="url(#m)"/></g></svg>