<svg height="184.09" viewBox="0 0 158.75 48.707339" width="600" xmlns="http://www.w3.org/2000/svg"><g transform="translate(-3.0238 -138.13)"><g fill="#fff"><path d="m96.921 141.38h2.951v8.2804h1.9696v-8.2804h2.9305v-1.8537h-7.8511z"/><path d="m106.82 149.66h2.0173v-10.134h-2.0173z"/><path d="m118.48 146.14-4.9546-6.6175h-1.9219v10.134h1.9764v-6.6039l4.9546 6.6039h1.9151v-10.134h-1.9696z"/><path d="m128.53 146.24h1.8878c-.32712 1.1313-1.2744 1.7788-2.617 1.7788-2.2626 0-3.2917-1.7651-3.2917-3.4008 0-1.6765 1.1109-3.4553 3.1759-3.4553 1.1586 0 2.1195.59292 2.3376 1.4448l.075.28624h1.9628l-.0682-.43617c-.27942-1.8265-2.0991-3.1486-4.3344-3.1486-3.3462 0-5.1455 2.7397-5.1455 5.3226 0 2.6034 1.7992 5.2409 5.2477 5.2409 2.433 0 4.239-1.3903 4.7365-3.6325h1.07v-1.8537h-5.0364z"/><path d="m159.59 139.52-2.0105 3.9937-2.5012-3.9937h-2.3172l3.7892 6.0519-2.0582 4.0823h2.1877l5.0978-10.134z"/><path d="m139.14 144.44h-1.9423v-3.0532h1.9287c.83145 0 1.513.68152 1.513 1.5266 0 .83145-.6747 1.5198-1.4993 1.5266m1.7038 1.3767c1.0223-.60656 1.6493-1.7106 1.6493-2.9033 0-1.8537-1.5062-3.3735-3.3531-3.3803h-3.9119v10.114h1.9696v-3.3462h1.6425l1.5334 3.3599h2.2286z"/><path d="m147.35 145.74 1.0632-3.2236 1.07 3.2236zm1.9696-6.1268-.0273-.0818h-1.75l-3.503 10.127h2.1468l.74967-2.2558h2.9646l.74967 2.2558h2.1468z"/><path d="m93.186 143.83-1.8265-.42254c-.74967-.1772-1.1245-.52477-1.1245-1.0972 0-.7156.63381-1.1722 1.5811-1.1722 1.0427 0 1.6152.52476 1.8401 1.1926h2.0786c-.32713-1.697-1.6493-2.9101-3.9392-2.9101-2.1059 0-3.5984 1.2744-3.5984 3.0873 0 1.6493 1.1041 2.4126 2.5421 2.7397l1.7924.40891c.87234.19764 1.2267.52477 1.2267 1.1245 0 .80419-.66789 1.2608-1.6833 1.2608-.97457 0-1.7106-.40891-1.9832-1.2881h-2.1604c.34076 1.9082 1.9287 3.0123 4.1641 3.0123 2.1195 0 3.7143-1.1722 3.7143-3.1145 0-1.513-.99502-2.4466-2.6238-2.8215"/><path d="m96.61 141.33h2.951v8.2804h1.9696v-8.2804h2.9305v-1.8537h-7.8511z"/><path d="m106.51 149.6h2.0173v-10.13h-2.0173z"/><path d="m118.17 146.09-4.9546-6.6175h-1.9219v10.134h1.9764v-6.6039l4.9546 6.6039h1.9151v-10.134h-1.9696z"/><path d="m128.22 146.19h1.8878c-.32712 1.1313-1.2744 1.7788-2.617 1.7788-2.2626 0-3.2917-1.7651-3.2917-3.4008 0-1.6765 1.1109-3.4553 3.169-3.4553 1.1654 0 2.1263.59292 2.3444 1.4448l.075.28624h1.9628l-.0682-.43617c-.27942-1.8265-2.0991-3.1486-4.3344-3.1486-3.3462 0-5.1455 2.7397-5.1455 5.3226 0 2.6034 1.7992 5.2409 5.2477 5.2409 2.433 0 4.239-1.3903 4.7365-3.6325h1.07v-1.8537h-5.0364z"/><path d="m159.28 139.47-2.0105 3.9937-2.5012-3.9937h-2.3103l3.7824 6.0519-2.0582 4.0823h2.1877l5.0978-10.134z"/><path d="m138.83 144.38h-1.9423v-3.0532h1.9287c.83145 0 1.513.68152 1.513 1.5266 0 .83145-.6747 1.5198-1.4993 1.5266m1.7038 1.3767c1.0223-.60656 1.6493-1.7106 1.6493-2.9033 0-1.8537-1.5062-3.3735-3.3531-3.3803h-3.9119v10.114h1.9696v-3.3462h1.6425l1.5334 3.3599h2.2286z"/><path d="m147.04 145.68 1.0632-3.2236 1.07 3.2236zm1.9696-6.1268-.0273-.0818h-1.7515l-3.503 10.127h2.1468l.74967-2.2558h2.9646l.74967 2.2558h2.1468z"/><path d="m92.876 143.78-1.8265-.42254c-.74967-.1772-1.1245-.52477-1.1245-1.0972 0-.7156.63381-1.1722 1.5811-1.1722 1.0427 0 1.6152.52476 1.8401 1.1926h2.0786c-.32713-1.697-1.6493-2.9101-3.9392-2.9101-2.1059 0-3.5984 1.2744-3.5984 3.0873 0 1.6493 1.1041 2.4126 2.5421 2.7397l1.7924.40891c.86553.19764 1.2267.52477 1.2267 1.1245 0 .80419-.66789 1.2608-1.6833 1.2608-.97457 0-1.7106-.40891-1.9832-1.2881h-2.1604c.34076 1.9082 1.9287 3.0123 4.1641 3.0123 2.1195 0 3.7143-1.1722 3.7143-3.1145 0-1.513-.99502-2.4466-2.6238-2.8215"/></g><g fill="#b39651"><path d="m28.86 179.73c-.14993 1.8946-.63381 3.2917-1.438 4.1436-.627.54521-1.4107.82463-2.3172.82463h-.136c-1.9423 0-3.7483-.37483-5.3567-1.104-1.6288-.73604-3.0873-1.7447-4.3413-3.0055-.45662-.4498-.6747-.96094-.6747-1.5607v-15.389c0-.59974.21809-1.1177.68152-1.5743 1.2472-1.2949 2.7261-2.3103 4.389-3.0259 1.6629-.70877 3.4485-1.07 5.3022-1.07h.1363c.94731 0 1.7242.29305 2.3035.87916.81782.811 1.3017 2.2013 1.4516 4.1164.15675 2.0105.21127 4.2867.17038 6.7879v3.1622c.04089 2.5352-.01363 4.832-.17038 6.8152m6.3926-18.864c-1.3562-1.3085-2.9373-2.358-4.6957-3.1145-1.7788-.75649-3.6598-1.145-5.5884-1.145-2.065 0-4.0482.40209-5.8883 1.179-1.697.72241-3.2031 1.7515-4.4844 3.0532v-22.708h-1.1381l-.1363.1772c-1.1245 1.513-2.5557 2.7874-4.2663 3.7824-1.7038.9882-3.5984 1.5811-5.6225 1.7515l-.40891.0341v1.3221h.84508c.29305 0 .42936.075.42936.49751v38.574c0 .33394-.088597.42935-.42936.42935h-.8466v1.3562h12.915v-1.3562h-.84508c-.42936 0-.49751-.1363-.49751-.42935l-.0068-2.4262c2.8692 2.7942 6.3586 4.2118 10.38 4.2118 2.0718 0 4.0278-.40891 5.827-1.2131 1.7856-.80419 3.3735-1.9014 4.7025-3.2508 1.3358-1.3562 2.3921-2.9578 3.1486-4.7434.7633-1.7992 1.1449-3.687 1.1449-5.6157 0-2.0309-.42254-3.9596-1.2472-5.7316-.82464-1.7651-1.9355-3.3258-3.2917-4.6343"/><path d="m66.63 160 .27942-.24535-.19082-.31349c-.35439-.59974-.80419-1.1109-1.3426-1.5266-1.2949-1.0086-3.0532-1.4516-5.2272-1.3017-.84508.0954-1.7106.34757-2.5557.74285-.81782.38847-1.5402.79738-2.1468 1.2131-.68152.45662-1.3085.92005-1.8469 1.3698-.35439.29306-.64744.55885-.88597.79056v-4.1164h-1.1381l-.12949.17719c-1.1245 1.513-2.5625 2.7806-4.2731 3.7756-1.7038.99502-3.5984 1.5879-5.6225 1.7583l-.40891.0341v1.3222h.84508c.29305 0 .42936.075.42936.4975v20.091c0 .33395-.0886.42936-.42936.42936h-.84508v1.3562h12.915v-1.3562h-.84508c-.42254 0-.49751-.1363-.49751-.42936v-20.63c0-.29305.07497-.57929.2249-.87915.15675-.32032.32031-.59292.47025-.77693.29987-.34076.72922-.74286 1.2608-1.1995.5384-.44981 1.145-.88598 1.7992-1.3017.66107-.42254 1.3358-.78375 1.9968-1.0836.10904-.0477.21809-.0954.32713-.1363-.23853.2249-.46343.47706-.66107.74285-.66107.87916-.99502 1.9014-.99502 3.0191 0 1.4176.50432 2.6443 1.5062 3.6393.81782.82464 1.806 1.3153 2.9305 1.4653l.3612.0409.11586-.34758c.14312-.44298.3135-.87916.49751-1.2881.79738-1.7856 1.8946-3.3871 3.2508-4.7706.25898-.25898.54522-.51795.83145-.7633"/><path d="m126.42 158.12h1.179v-1.3562h-4.5798v1.3562h1.4584c-.14993.36802-.41572.97457-.81782 1.8605-.44298.98139-1.1518 2.5284-2.1127 4.6343-.86553 1.8946-2.0718 4.5525-3.6734 8.1237l-4.25-9.04.0205-.0205h1.5743v-1.3562h-14.46v1.3562h1.1858c.27261 0 .45662.12268.60655.41573l10.427 22.735 12.826-28.283c.14994-.29987.33395-.42936.61337-.42936"/><path d="m134.53 162.96c.14312-1.9219.63381-3.3054 1.4516-4.1232.58611-.58611 1.3426-.87234 2.3035-.87234h.13631c1.8537 0 3.6393.35438 5.3022 1.07 1.6561.70878 3.135 1.731 4.3958 3.0259.40891.41572.60655.92686.60655 1.5743v15.382c0 .68833-.21127 1.179-.68151 1.5743-1.2063 1.254-2.6511 2.2626-4.2936 2.9987-1.6356.72922-3.428 1.1041-5.3295 1.1041h-.13631c-.91323 0-1.6902-.27942-2.2967-.80419-.81782-.85871-1.3085-2.2626-1.4584-4.1641-.15675-2.0037-.21127-4.2936-.17038-6.822v-3.1622c-.0409-2.4739.0136-4.757.17038-6.7811m25.836-.0477v-.49069l-.39528-.0409c-2.0786-.21127-3.9869-.81782-5.6702-1.7856-1.6902-.97457-3.135-2.2558-4.3004-3.8165l-.1363-.17719h-1.1381l.007 4.1436c-1.2881-1.2676-2.7738-2.2626-4.4299-2.9646-1.8401-.78375-3.8165-1.179-5.8815-1.179-2.0241 0-3.9596.39528-5.752 1.179-1.7924.78374-3.3803 1.8674-4.7093 3.2236-1.329 1.3494-2.3989 2.9169-3.1827 4.6616-.78374 1.7515-1.179 3.6257-1.179 5.5612 0 2.065.40891 4.0278 1.2131 5.827.79737 1.7856 1.8946 3.3667 3.2508 4.7025 1.3562 1.329 2.951 2.3921 4.7434 3.1486 1.7924.75648 3.687 1.145 5.6157 1.145 2.1127 0 4.1096-.42254 5.9292-1.254 1.6288-.73604 3.0941-1.7174 4.3753-2.9033v2.3649c0 .34076-.0886.43617-.42935.43617h-.84508v1.3562h12.915v-1.3562h-.84508c-.42935 0-.4975-.13631-.4975-.43617v-20.091c0-.29306.0682-.42936.4975-.42936h.84508v-.57247l1.0495-.12949z"/><path d="m73.808 162.96c.14993-1.9219.63381-3.3054 1.4516-4.1232.5861-.58611 1.3426-.87916 2.3035-.87916h.1363c1.8537 0 3.6393.3612 5.3022 1.0768 1.6561.70878 3.135 1.731 4.3958 3.0259.40891.41572.60655.92686.60655 1.5743v15.382c0 .68833-.21127 1.179-.68152 1.5743-1.2063 1.254-2.6511 2.2626-4.2936 2.9987-1.6356.72922-3.428 1.1041-5.3295 1.1041h-.1363c-.91323 0-1.6902-.27942-2.2967-.80419-.81782-.86553-1.3085-2.2626-1.4584-4.1641-.15675-1.99-.21127-4.2799-.17038-6.822v-3.1622c-.04089-2.4875.01363-4.7706.17038-6.7811m25.836-.5384-.39528-.0409c-2.0786-.21127-3.9869-.81782-5.6702-1.7856-1.6833-.97457-3.135-2.2558-4.3004-3.8165l-.1363-.17719h-1.1381l.0068 4.1368c-1.2881-1.2608-2.7738-2.2558-4.4299-2.9578-1.8333-.78375-3.8165-1.179-5.8815-1.179-2.0241 0-3.9596.39528-5.752 1.179-1.7924.77693-3.3735 1.8605-4.7093 3.2236-1.3358 1.3494-2.3989 2.9169-3.1827 4.6616-.78374 1.7515-1.179 3.6257-1.179 5.5612 0 2.065.40891 4.0278 1.2131 5.827.79738 1.7856 1.8946 3.3667 3.2508 4.7025 1.3562 1.329 2.951 2.3921 4.7434 3.1486 1.7924.75648 3.687 1.145 5.6157 1.145 2.1127 0 4.1096-.42254 5.9292-1.254 1.6288-.73604 3.0941-1.7174 4.3753-2.9033v2.3649c0 .34076-.0886.43617-.42936.43617h-.84508v1.3562h12.915v-1.3562h-.84508c-.42936 0-.49751-.12949-.49751-.43617v-20.091c0-.29306.06815-.42936.49751-.42936h.84508v-.57247l1.0563-.12949-1.0563-.12268z"/></g></g></svg>