<svg height="48.799999" viewBox="0 0 98.199997 48.799998" width="98.199997" xmlns="http://www.w3.org/2000/svg"><g fill="#fff"><path d="m58.6 7.5h1.4v-5.8h2v-1.3h-5.4v1.3h2z" transform="translate(-3.4 -.2)"/><path d="m60.099998.2h1.4v7h-1.4z"/><path d="m66.8.4v7.1h1.4v-4.6l3.4 4.6h1.3v-7.1h-1.3v4.6l-3.5-4.6z" transform="translate(-3.4 -.2)"/><path d="m75.1 4.9h1.3c-.2.8-.8 1.2-1.8 1.2-1.6 0-2.3-1.2-2.3-2.4s.8-2.4 2.2-2.4c.8 0 1.5.4 1.6 1l .1.2h1.4v-.3c-.2-1.3-1.5-2.2-3-2.2-2.3 0-3.6 1.9-3.6 3.7s1.3 3.6 3.6 3.6c1.7 0 2.9-1 3.3-2.5h.7v-1.2h-3.5z"/><path d="m97 .4h-1.6l2.6 4.2-1.4 2.9h1.5l3.5-7.1h-1.5l-1.4 2.8z" transform="translate(-3.4 -.2)"/><path d="m83.7 4.6c.7-.4 1.1-1.2 1.1-2 0-1.3-1-2.3-2.3-2.3h-2.7v7h1.4v-2.4h1.1l1.1 2.3h1.5zm-1.2-.9h-1.3v-2.2h1.3c.6 0 1.1.5 1.1 1.1-.1.6-.5 1.1-1.1 1.1"/><path d="m89.6.3-1.2-.1-2.4 7h1.5l.5-1.6h2.1l.5 1.6h1.5zm-1.4 4.3.7-2.2.7 2.2z"/><path d="m50.6 3.2-1.3-.3c-.5-.1-.7-.3-.7-.7 0-.5.4-.8 1.1-.8s1.1.4 1.3.8h1.4c-.2-1.2-1.1-2-2.7-2-1.5 0-2.5.9-2.5 2.1 0 1.1.8 1.7 1.8 1.9l1.2.3c.6.1.8.4.8.8 0 .6-.5.9-1.2.9s-1.2-.3-1.4-.9h-1.5c.2 1.3 1.3 2.1 2.9 2.1 1.5 0 2.6-.8 2.6-2.2 0-1.1-.7-1.7-1.8-2"/></g><g fill="#e21e27" transform="translate(-3.4 -.2)"><path d="m13 15.1 7.7-1.4v21.8h2v .6h-7.7v-2c-.4.5-.9 1.1-1.6 1.6s-1.5.8-2.4.8c-1.3 0-2.4-.2-3.3-.7s-1.7-1.1-2.4-1.9c-.6-.8-1.1-1.7-1.4-2.7s-.5-2.1-.5-3.1c0-1.1.2-2.1.5-3.1s.8-1.9 1.4-2.7 1.4-1.4 2.4-1.9c.9-.5 2.1-.7 3.3-.7 1.1 0 1.9.2 2.6.6s1.1.9 1.4 1.4v-6.2l-2 .4zm-3.1 14.8c0 1.2 0 2.2.1 2.9s.2 1.3.3 1.6c.1.4.3.6.6.8.3.1.6.2.9.2s.6-.1.9-.3.6-.4.9-.7.5-.6.8-.9l.6-.9v-9.8c-.4-.6-.8-1.2-1.3-1.7s-1.1-.8-1.8-.8c-.4 0-.7.1-.9.3s-.4.5-.6.9-.3 1-.3 1.7c-.2.8-.2 1.8-.2 2.9z"/><path d="m32 42.2c-.5 1.4-1.1 2.6-2 3.6s-2 1.8-3.2 2.3c-1.3.6-2.8.9-4.3.9-1.4 0-2.6-.3-3.6-1s-1.5-1.6-1.5-2.7c0-.9.3-1.6.9-2.1s1.2-.8 2-.8 1.5.2 2 .7.8 1.1.8 2c0 .4-.1.8-.3 1.1s-.4.6-.6.8c-.3.2-.5.4-.8.5s-.6.2-.8.2c.4.3.8.5 1.4.5.3 0 .6-.1 1-.2s.7-.3 1-.5.5-.5.7-.9.3-.9.3-1.5v-31.3l-2.8.4v-.8l10.6-1.7v25.7c-.1 1.8-.4 3.4-.8 4.8"/><path d="m50.2 13.5c1.4.3 2.5.7 3.4 1.3s1.5 1.4 1.9 2.4.6 2.2.6 3.7v10.9c0 .8.1 1.5.3 1.9.2.5.6.7 1.3.7.6 0 1-.2 1.2-.6s.4-.8.5-1.3c0-.3.2-.5.4-.5s.3.1.3.4c0 .4-.1.8-.2 1.2-.1.5-.4.9-.8 1.2-.4.4-1 .7-1.7 1s-1.7.4-3 .4c-1.8 0-3.1-.3-4-.8s-1.6-1.2-1.9-1.9c-.3.3-.6.6-1 .9s-.9.6-1.4.9-1.1.5-1.8.7-1.4.3-2.3.3c-1.3 0-2.5-.2-3.4-.5-1-.4-1.8-.9-2.5-1.5s-1.1-1.4-1.5-2.2c-.3-.8-.5-1.7-.5-2.7 0-.9.2-1.8.5-2.7s.9-1.7 1.6-2.4 1.6-1.3 2.6-1.7c1.1-.4 2.3-.6 3.7-.6h5.6v-4.1c0-1.2-.2-2.2-.6-2.9s-1.2-1-2.5-1c-1.4 0-2.4.1-2.9.3s-.8.4-.8.7c0 .2.1.4.4.5.7.4 1 1.1 1 1.9 0 .2 0 .5-.1.8s-.2.6-.4.9-.5.5-.9.7-.8.3-1.4.3c-.7 0-1.4-.2-1.9-.6-.6-.4-.9-1.1-.9-2.2 0-1.4.7-2.4 2.2-3.1s3.4-1 5.6-1c2.3-.1 4 0 5.3.3m-4 9.5c-1.4 0-2.4.6-3 1.8s-.9 2.7-.9 4.6.2 3.3.5 4.2c.4.8 1 1.3 1.8 1.3.2 0 .5-.1.9-.3l1.2-.6c.4-.3.8-.6 1.1-.9s.4-.6.4-1v-9.1z"/><path d="m80.1 14.7-11.4 20.2h4.9c2 0 3.5-.5 4.5-1.6s1.7-2.5 1.9-4.3h.5v6.8h-19.8v-1.1l11.7-20.3h-4.4c-1.4 0-2.7.4-3.8 1.3s-1.8 2.2-2 4h-.5v-6.2h18.4z"/><path d="m100.7 14.7-11.4 20.2h4.9c2 0 3.5-.5 4.5-1.6s1.7-2.5 1.9-4.3h.5v6.8h-19.7v-1.1l11.7-20.3h-4.5c-1.4 0-2.7.4-3.8 1.3s-1.8 2.2-2 4h-.5v-6.2h18.4z"/><path d="m30.7 8.9c-.6.6-1.4.9-2.3.9s-1.6-.3-2.3-.9c-.6-.6-.9-1.4-.9-2.3s.3-1.6.9-2.3c.6-.6 1.4-.9 2.3-.9s1.6.3 2.3.9c.6.6.9 1.4.9 2.3s-.3 1.7-.9 2.3"/></g></svg>