<?xml version="1.0" encoding="UTF-8" standalone="no"?>
<!-- Generator: Adobe Illustrator 19.2.1, SVG Export Plug-In . SVG Version: 6.00 Build 0)  -->

<svg
   xmlns:dc="http://purl.org/dc/elements/1.1/"
   xmlns:cc="http://creativecommons.org/ns#"
   xmlns:rdf="http://www.w3.org/1999/02/22-rdf-syntax-ns#"
   xmlns:svg="http://www.w3.org/2000/svg"
   xmlns="http://www.w3.org/2000/svg"
   xmlns:sodipodi="http://sodipodi.sourceforge.net/DTD/sodipodi-0.dtd"
   xmlns:inkscape="http://www.inkscape.org/namespaces/inkscape"
   version="1.1"
   id="Brava"
   x="0px"
   y="0px"
   viewBox="0 0 98.199997 48.799998"
   xml:space="preserve"
   sodipodi:docname="Stingray Djazz.svg"
   width="98.199997"
   height="48.799999"
   inkscape:version="0.92.1 r15371"><metadata
     id="metadata39"><rdf:RDF><cc:Work
         rdf:about=""><dc:format>image/svg+xml</dc:format><dc:type
           rdf:resource="http://purl.org/dc/dcmitype/StillImage" /><dc:title></dc:title></cc:Work></rdf:RDF></metadata><defs
     id="defs37" /><sodipodi:namedview
     pagecolor="#ffffff"
     bordercolor="#666666"
     borderopacity="1"
     objecttolerance="10"
     gridtolerance="10"
     guidetolerance="10"
     inkscape:pageopacity="0"
     inkscape:pageshadow="2"
     inkscape:window-width="1920"
     inkscape:window-height="1017"
     id="namedview35"
     showgrid="false"
     fit-margin-top="0"
     fit-margin-left="0"
     fit-margin-right="0"
     fit-margin-bottom="0"
     inkscape:zoom="2.7047619"
     inkscape:cx="49.1"
     inkscape:cy="24.4"
     inkscape:window-x="-8"
     inkscape:window-y="-8"
     inkscape:window-maximized="1"
     inkscape:current-layer="Brava" /><style
     type="text/css"
     id="style2">
	.st0{fill:#FFFFFF;}
	.st1{fill:#E21E27;}
</style><polygon
     class="st0"
     points="58.6,7.5 60,7.5 60,1.7 62,1.7 62,0.4 56.6,0.4 56.6,1.7 58.6,1.7 "
     id="polygon4"
     style="fill:#ffffff"
     transform="translate(-3.4,-0.2)" /><rect
     x="60.099998"
     y="0.2"
     class="st0"
     width="1.4"
     height="7"
     id="rect6"
     style="fill:#ffffff" /><polygon
     class="st0"
     points="66.8,0.4 66.8,7.5 68.2,7.5 68.2,2.9 71.6,7.5 72.9,7.5 72.9,0.4 71.6,0.4 71.6,5 68.1,0.4 "
     id="polygon8"
     style="fill:#ffffff"
     transform="translate(-3.4,-0.2)" /><path
     class="st0"
     d="m 75.1,4.9 h 1.3 c -0.2,0.8 -0.8,1.2 -1.8,1.2 -1.6,0 -2.3,-1.2 -2.3,-2.4 0,-1.2 0.8,-2.4 2.2,-2.4 0.8,0 1.5,0.4 1.6,1 l 0.1,0.2 h 1.4 V 2.2 C 77.4,0.9 76.1,0 74.6,0 72.3,0 71,1.9 71,3.7 c 0,1.8 1.3,3.6 3.6,3.6 1.7,0 2.9,-1 3.3,-2.5 h 0.7 V 3.6 h -3.5 z"
     id="path10"
     inkscape:connector-curvature="0"
     style="fill:#ffffff" /><polygon
     class="st0"
     points="97,0.4 95.4,0.4 98,4.6 96.6,7.5 98.1,7.5 101.6,0.4 100.1,0.4 98.7,3.2 "
     id="polygon12"
     style="fill:#ffffff"
     transform="translate(-3.4,-0.2)" /><path
     class="st0"
     d="m 83.7,4.6 c 0.7,-0.4 1.1,-1.2 1.1,-2 0,-1.3 -1,-2.3 -2.3,-2.3 h -2.7 v 7 h 1.4 V 4.9 h 1.1 l 1.1,2.3 h 1.5 z M 82.5,3.7 H 81.2 V 1.5 h 1.3 c 0.6,0 1.1,0.5 1.1,1.1 -0.1,0.6 -0.5,1.1 -1.1,1.1"
     id="path14"
     inkscape:connector-curvature="0"
     style="fill:#ffffff" /><path
     class="st0"
     d="m 89.6,0.3 v 0 L 88.4,0.2 86,7.2 h 1.5 L 88,5.6 h 2.1 l 0.5,1.6 h 1.5 z m -1.4,4.3 0.7,-2.2 0.7,2.2 z"
     id="path16"
     inkscape:connector-curvature="0"
     style="fill:#ffffff" /><path
     class="st0"
     d="M 50.6,3.2 49.3,2.9 C 48.8,2.8 48.6,2.6 48.6,2.2 c 0,-0.5 0.4,-0.8 1.1,-0.8 0.7,0 1.1,0.4 1.3,0.8 h 1.4 c -0.2,-1.2 -1.1,-2 -2.7,-2 -1.5,0 -2.5,0.9 -2.5,2.1 0,1.1 0.8,1.7 1.8,1.9 l 1.2,0.3 c 0.6,0.1 0.8,0.4 0.8,0.8 0,0.6 -0.5,0.9 -1.2,0.9 -0.7,0 -1.2,-0.3 -1.4,-0.9 h -1.5 c 0.2,1.3 1.3,2.1 2.9,2.1 1.5,0 2.6,-0.8 2.6,-2.2 0,-1.1 -0.7,-1.7 -1.8,-2"
     id="path18"
     inkscape:connector-curvature="0"
     style="fill:#ffffff" /><g
     id="g32"
     transform="translate(-3.4,-0.2)"><path
       class="st1"
       d="m 13,15.1 7.7,-1.4 v 21.8 h 2 v 0.6 H 15 v -2 c -0.4,0.5 -0.9,1.1 -1.6,1.6 -0.7,0.5 -1.5,0.8 -2.4,0.8 C 9.7,36.5 8.6,36.3 7.7,35.8 6.8,35.3 6,34.7 5.3,33.9 4.7,33.1 4.2,32.2 3.9,31.2 3.6,30.2 3.4,29.1 3.4,28.1 3.4,27 3.6,26 3.9,25 4.2,24 4.7,23.1 5.3,22.3 5.9,21.5 6.7,20.9 7.7,20.4 8.6,19.9 9.8,19.7 11,19.7 c 1.1,0 1.9,0.2 2.6,0.6 0.7,0.4 1.1,0.9 1.4,1.4 v -6.2 l -2,0.4 z M 9.9,29.9 c 0,1.2 0,2.2 0.1,2.9 0.1,0.7 0.2,1.3 0.3,1.6 0.1,0.4 0.3,0.6 0.6,0.8 0.3,0.1 0.6,0.2 0.9,0.2 0.3,0 0.6,-0.1 0.9,-0.3 0.3,-0.2 0.6,-0.4 0.9,-0.7 0.3,-0.3 0.5,-0.6 0.8,-0.9 0.2,-0.3 0.4,-0.6 0.6,-0.9 v -9.8 c -0.4,-0.6 -0.8,-1.2 -1.3,-1.7 -0.5,-0.5 -1.1,-0.8 -1.8,-0.8 -0.4,0 -0.7,0.1 -0.9,0.3 -0.2,0.2 -0.4,0.5 -0.6,0.9 -0.2,0.4 -0.3,1 -0.3,1.7 C 9.9,24 9.9,25 9.9,26.1 Z"
       id="path20"
       inkscape:connector-curvature="0"
       style="fill:#e21e27" /><path
       class="st1"
       d="m 32,42.2 c -0.5,1.4 -1.1,2.6 -2,3.6 -0.9,1 -2,1.8 -3.2,2.3 -1.3,0.6 -2.8,0.9 -4.3,0.9 -1.4,0 -2.6,-0.3 -3.6,-1 -1,-0.7 -1.5,-1.6 -1.5,-2.7 0,-0.9 0.3,-1.6 0.9,-2.1 0.6,-0.5 1.2,-0.8 2,-0.8 0.8,0 1.5,0.2 2,0.7 0.5,0.5 0.8,1.1 0.8,2 0,0.4 -0.1,0.8 -0.3,1.1 -0.2,0.3 -0.4,0.6 -0.6,0.8 -0.3,0.2 -0.5,0.4 -0.8,0.5 -0.3,0.1 -0.6,0.2 -0.8,0.2 0.4,0.3 0.8,0.5 1.4,0.5 0.3,0 0.6,-0.1 1,-0.2 0.4,-0.1 0.7,-0.3 1,-0.5 0.3,-0.2 0.5,-0.5 0.7,-0.9 0.2,-0.4 0.3,-0.9 0.3,-1.5 V 13.8 l -2.8,0.4 v -0.8 l 10.6,-1.7 v 25.7 c -0.1,1.8 -0.4,3.4 -0.8,4.8"
       id="path22"
       inkscape:connector-curvature="0"
       style="fill:#e21e27" /><path
       class="st1"
       d="m 50.2,13.5 c 1.4,0.3 2.5,0.7 3.4,1.3 0.9,0.6 1.5,1.4 1.9,2.4 0.4,1 0.6,2.2 0.6,3.7 v 10.9 c 0,0.8 0.1,1.5 0.3,1.9 0.2,0.5 0.6,0.7 1.3,0.7 0.6,0 1,-0.2 1.2,-0.6 0.2,-0.4 0.4,-0.8 0.5,-1.3 0,-0.3 0.2,-0.5 0.4,-0.5 0.2,0 0.3,0.1 0.3,0.4 0,0.4 -0.1,0.8 -0.2,1.2 -0.1,0.5 -0.4,0.9 -0.8,1.2 -0.4,0.4 -1,0.7 -1.7,1 -0.7,0.3 -1.7,0.4 -3,0.4 -1.8,0 -3.1,-0.3 -4,-0.8 -0.9,-0.5 -1.6,-1.2 -1.9,-1.9 -0.3,0.3 -0.6,0.6 -1,0.9 -0.4,0.3 -0.9,0.6 -1.4,0.9 -0.5,0.3 -1.1,0.5 -1.8,0.7 -0.7,0.2 -1.4,0.3 -2.3,0.3 -1.3,0 -2.5,-0.2 -3.4,-0.5 -1,-0.4 -1.8,-0.9 -2.5,-1.5 -0.7,-0.6 -1.1,-1.4 -1.5,-2.2 -0.3,-0.8 -0.5,-1.7 -0.5,-2.7 0,-0.9 0.2,-1.8 0.5,-2.7 0.3,-0.9 0.9,-1.7 1.6,-2.4 0.7,-0.7 1.6,-1.3 2.6,-1.7 1.1,-0.4 2.3,-0.6 3.7,-0.6 h 5.6 v -4.1 c 0,-1.2 -0.2,-2.2 -0.6,-2.9 -0.4,-0.7 -1.2,-1 -2.5,-1 -1.4,0 -2.4,0.1 -2.9,0.3 -0.5,0.2 -0.8,0.4 -0.8,0.7 0,0.2 0.1,0.4 0.4,0.5 0.7,0.4 1,1.1 1,1.9 0,0.2 0,0.5 -0.1,0.8 -0.1,0.3 -0.2,0.6 -0.4,0.9 -0.2,0.3 -0.5,0.5 -0.9,0.7 -0.4,0.2 -0.8,0.3 -1.4,0.3 -0.7,0 -1.4,-0.2 -1.9,-0.6 -0.6,-0.4 -0.9,-1.1 -0.9,-2.2 0,-1.4 0.7,-2.4 2.2,-3.1 1.5,-0.7 3.4,-1 5.6,-1 2.3,-0.1 4,0 5.3,0.3 m -4,9.5 c -1.4,0 -2.4,0.6 -3,1.8 -0.6,1.2 -0.9,2.7 -0.9,4.6 0,1.9 0.2,3.3 0.5,4.2 0.4,0.8 1,1.3 1.8,1.3 0.2,0 0.5,-0.1 0.9,-0.3 0.4,-0.2 0.8,-0.4 1.2,-0.6 0.4,-0.3 0.8,-0.6 1.1,-0.9 0.3,-0.3 0.4,-0.6 0.4,-1 V 23 Z"
       id="path24"
       inkscape:connector-curvature="0"
       style="fill:#e21e27" /><path
       class="st1"
       d="M 80.1,14.7 68.7,34.9 h 4.9 c 2,0 3.5,-0.5 4.5,-1.6 1,-1.1 1.7,-2.5 1.9,-4.3 h 0.5 v 6.8 H 60.7 V 34.7 L 72.4,14.4 H 68 c -1.4,0 -2.7,0.4 -3.8,1.3 -1.1,0.9 -1.8,2.2 -2,4 h -0.5 v -6.2 h 18.4 z"
       id="path26"
       inkscape:connector-curvature="0"
       style="fill:#e21e27" /><path
       class="st1"
       d="M 100.7,14.7 89.3,34.9 h 4.9 c 2,0 3.5,-0.5 4.5,-1.6 1,-1.1 1.7,-2.5 1.9,-4.3 h 0.5 v 6.8 H 81.4 V 34.7 L 93.1,14.4 h -4.5 c -1.4,0 -2.7,0.4 -3.8,1.3 -1.1,0.9 -1.8,2.2 -2,4 h -0.5 v -6.2 h 18.4 z"
       id="path28"
       inkscape:connector-curvature="0"
       style="fill:#e21e27" /><path
       class="st1"
       d="M 30.7,8.9 C 30.1,9.5 29.3,9.8 28.4,9.8 27.5,9.8 26.8,9.5 26.1,8.9 25.5,8.3 25.2,7.5 25.2,6.6 c 0,-0.9 0.3,-1.6 0.9,-2.3 0.6,-0.6 1.4,-0.9 2.3,-0.9 0.9,0 1.6,0.3 2.3,0.9 0.6,0.6 0.9,1.4 0.9,2.3 0,0.9 -0.3,1.7 -0.9,2.3"
       id="path30"
       inkscape:connector-curvature="0"
       style="fill:#e21e27" /></g></svg>