<svg height="600" width="600" xmlns="http://www.w3.org/2000/svg"><g transform="translate(246.60283 1177.3595)"><path d="m353.39-875.85c-.8059 165.66-135.84 299.29-301.51 298.49-165.71-.85628-299.29-135.84-298.49-301.51.85627-165.71 135.84-299.34 301.51-298.49 165.71.8562 299.34 135.84 298.49 301.51" fill="#f9b000"/><path d="m1.8244-1079.7h143.65 9.016c26.544.05 50.52 8.3612 50.671 38.482.1511 34.049-26.494 37.978-50.671 38.532-2.2162.05-9.016 0-9.016 0h-134.08-6.9509c-7.5553-.05-11.131 5.8428-12.038 11.081-.10074.50369-1.36 6.699-1.36 6.699-6.4976 39.993-13.549 89.858-13.6 90.261-3.3243 19.342-8.1597 39.942-35.308 38.18-28.458-1.7629-30.675-24.933-28.458-40.043 7.6057-52.031 21.155-145.26 21.507-146.67 5.2383-20.45 4.6339-36.769 38.28-36.517h28.358" fill="#fff"/><path d="m-61.237-1042.4c-.60442 3.2236-9.4693 64.069-16.622 113.08l-4.8354 33.294c-1.0074 6.6487-1.6118 18.939 5.0872 27.199 4.231 5.2384 10.93 8.1597 19.946 8.7138 1.0074.10073 1.9644.10073 2.871.10073 20.903 0 25.335-15.967 28.66-35.308l.20147-1.4103c4.8354-33.999 9.6204-65.53 13.398-88.8v-.1511s1.2592-5.9939 1.36-6.5983c1.1081-6.4976 5.8931-14.053 15.514-14.053h2.8206 4.231 134.08c.0504 0 6.699.05 8.9656 0 28.358-.6549 47.196-6.8502 47.044-34.906-.10074-23.371-15.463-34.754-46.994-34.855h-3.3243l-169.94.05c-4.1806 0-7.4546 0-7.7568-.05h-.75553c-26.192 0-28.509 10.124-32.337 26.847-.50369 2.2162-1.0074 4.4828-1.6118 6.8501m6.4472 189.69c-1.0577 0-2.2162-.0504-3.3243-.10074-11.131-.70516-19.593-4.5332-25.184-11.434-8.4116-10.376-7.7568-25.033-6.6487-32.84l4.8858-33.294c11.534-79.28 16.42-112.57 16.722-113.73.60442-2.317 1.1081-4.5332 1.6118-6.7494 4.0295-17.428 7.4546-32.488 39.439-32.488h.8059 7.7064 169.94 3.3747c44.677.1008 54.146 22.918 54.247 42.108.20148 40.95-36.517 41.806-54.197 42.209-2.2666.0504-9.1671 0-9.1671 0h-138.26-2.7199c-6.3465 0-8.0086 5.5909-8.4619 8.0086-.10074.55406-1.1081 5.5406-1.36 6.7494-3.7777 23.22-8.5123 54.65-13.348 88.548-.15111 1.0578-.25184 1.6118-.25184 1.6622-2.8206 16.471-7.0516 41.353-35.812 41.353" fill="#fff"/><path d="m14.235-936.22-11.081 70.667 53.139-.0504c26.292-.20148 50.067 5.5909 65.127 21.054 18.989 19.442 31.48 66.134 4.6339 97.615-17.78 20.903-42.562 30.523-75.352 29.566-33.092-.90663-65.228-21.709-82.806-33.294-17.176-11.283-40.698-30.977-62.911-4.5836-23.824 28.257 11.686 57.471 26.847 69.358 34.2 26.796 82.957 42.41 118.06 43.77 48.102 1.8636 86.332-16.017 109.45-35.762 24.127-20.55 53.089-58.025 55.506-114.84 1.8636-43.015-13.247-76.812-34.2-101.29-24.026-28.055-66.638-40.144-113.28-42.209-25.184-1.1081-53.139 0-53.139 0" fill="#fff"/><path d="m-70.545-764.73c-7.9079 0-14.96 3.8784-21.659 11.786-5.4902 6.4976-7.7568 13.197-7.0013 20.5 1.9644 19.14 24.731 36.971 33.294 43.67 35.711 28.005 83.965 41.806 115.95 43.015 2.2666.10073 4.4828.1511 6.699.1511 53.441 0 87.944-24.53 100.28-35.057 19.14-16.319 51.628-52.635 54.197-112.22 2.0148-47.095-17.025-79.683-33.344-98.773-26.494-30.926-74.798-39.338-110.61-40.899-7.4042-.35258-15.765-.50369-24.832-.50369-11.031 0-20.45.25185-25.084.40296l-9.973 63.465c11.887 0 44.576-.0504 48.908-.0504h1.2592c29.768 0 52.132 7.4546 66.487 22.162 10.527 10.779 18.385 28.559 20.5 46.39 2.5688 21.356-3.0221 41.252-15.665 56.111-18.586 21.759-44.123 31.833-78.273 30.876-34.654-.95701-68.451-23.22-84.72-33.898-1.4103-.95701-2.9214-1.9644-4.4324-2.9718-9.7715-6.6487-20.853-14.154-31.984-14.154m127.33 126.38h-.05037c-2.2666 0-4.6339 0-6.9509-.10075-33.193-1.3096-83.209-15.564-120.23-44.576-9.2175-7.2531-33.747-26.444-36.014-48.656-.95701-9.2175 1.9644-17.931 8.6634-25.94 8.059-9.5701 17.226-14.405 27.249-14.405 13.348 0 25.94 8.5627 36.064 15.413 1.5111 1.0074 2.9718 2.0148 4.3821 2.9214 15.665 10.326 48.304 31.783 80.892 32.689 31.732.957 55.456-8.3108 72.481-28.307 24.882-29.113 14.154-73.589-4.4324-92.678-12.945-13.247-33.546-19.996-61.299-19.996l-1.2088.0504c-5.2887 0-52.736.0504-53.189.0504-1.0577 0-2.0651-.45332-2.7703-1.2592-.70516-.8059-1.0074-1.914-.85627-2.9214l11.113-70.7c.25184-1.7125 1.7125-3.0221 3.4251-3.0725.15111 0 12.693-.50369 28.358-.50369 9.1671 0 17.629.1511 25.134.50369 53.441 2.3673 93.484 17.377 115.85 43.468 17.176 20.047 37.222 54.348 35.107 103.81-2.6695 62.356-36.719 100.38-56.766 117.46-27.401 23.371-65.681 36.769-104.97 36.769" fill="#fff"/><g fill="#f9b000"><path d="m-30.19-1029.4c2.871 0 6.699 2.9717 12.693 2.9717 4.5836 0 6.2457-2.317 6.2457-4.8857 0-3.8785-4.4828-4.6843-11.182-6.8502-6.0946-1.9643-12.391-4.5836-12.391-13.952 0-11.232 8.7642-16.571 18.586-16.571 9.419 0 14.657 3.274 14.657 7.8072 0 3.1732-2.1155 5.4902-5.2383 5.4902-3.7777 0-5.0369-1.9644-10.023-1.9644-3.1732 0-5.3895 1.6622-5.3895 4.231 0 2.9717 2.9214 3.3243 11.031 5.9938 6.3968 2.1156 12.592 5.3896 12.592 15.161 0 11.938-8.8145 17.276-19.745 17.276-6.9005 0-17.327-2.6695-17.327-8.4619 0-3.2236 1.914-6.2457 5.4902-6.2457"/><path d="m15.6-1056.6h-6.5983c-3.9288 0-6.0946-2.1659-6.0946-5.4399 0-3.4251 2.1659-5.4398 6.0946-5.4398h24.983c3.9288 0 6.0946 2.0147 6.0946 5.4398 0 3.274-2.1659 5.4399-6.0946 5.4399h-6.5983v35.006c0 4.1302-2.4681 6.2456-5.8931 6.2456-3.4251 0-5.8931-2.1154-5.8931-6.2456v-35.006z"/><path d="m51.684-1041.6c0 8.21 3.6769 16.118 12.794 16.118 9.0664 0 12.743-7.9079 12.743-16.118s-3.6769-16.118-12.743-16.118c-9.1167 0-12.794 7.9079-12.794 16.118m38.179 0c0 16.42-10.074 26.998-25.386 26.998s-25.436-10.577-25.436-26.998c0-16.42 10.124-26.998 25.436-26.998s25.386 10.578 25.386 26.998"/><path d="m108.32-1045.2h7.7568c3.828 0 6.0442-2.5184 6.0442-5.7924 0-3.5258-2.7199-5.5909-6.0442-5.5909h-7.7568v11.383zm-11.786-16.42c0-3.7777 2.871-5.8427 5.8931-5.8427h14.154c10.477 0 17.276 6.3464 17.276 16.017 0 7.6056-4.6339 13.146-12.038 14.506l10.225 11.031c1.6118 1.7629 2.4681 3.1229 2.4681 5.0873 0 1.6621-1.5111 5.4398-6.0442 5.4398-3.0221 0-4.1302-1.0578-5.5909-2.8711l-14.405-18.233h-.15111v14.859c0 4.1302-2.4681 6.2457-5.8932 6.2457s-5.8931-2.1155-5.8931-6.2457v-39.993z"/><path d="m150.98-1040-10.124-13.65c-3.7273-5.1377-4.8858-6.5984-4.8858-9.016 0-3.1229 2.7703-5.188 6.2457-5.188 3.1732 0 4.6843 2.2162 5.9435 3.9791l8.7138 12.391 8.7138-12.391c1.2088-1.7629 2.7199-3.9791 5.9435-3.9791 3.4754 0 6.2457 2.0651 6.2457 5.188 0 2.4176-1.1585 3.8783-4.8858 9.016l-10.124 13.65v18.435c0 4.1302-2.4681 6.2457-5.8932 6.2457s-5.8931-2.1155-5.8931-6.2457v-18.435z"/></g></g></svg>