<?xml version="1.0" encoding="UTF-8" standalone="no"?>
<svg
   xmlns:dc="http://purl.org/dc/elements/1.1/"
   xmlns:cc="http://creativecommons.org/ns#"
   xmlns:rdf="http://www.w3.org/1999/02/22-rdf-syntax-ns#"
   xmlns:svg="http://www.w3.org/2000/svg"
   xmlns="http://www.w3.org/2000/svg"
   xmlns:sodipodi="http://sodipodi.sourceforge.net/DTD/sodipodi-0.dtd"
   xmlns:inkscape="http://www.inkscape.org/namespaces/inkscape"
   height="97.644"
   viewBox="0 0 600 97.643554"
   width="600"
   version="1.1"
   id="svg36"
   sodipodi:docname="SundanceTV HD - Dark.svg"
   inkscape:version="0.92.0 r15299">
  <metadata
     id="metadata42">
    <rdf:RDF>
      <cc:Work
         rdf:about="">
        <dc:format>image/svg+xml</dc:format>
        <dc:type
           rdf:resource="http://purl.org/dc/dcmitype/StillImage" />
      </cc:Work>
    </rdf:RDF>
  </metadata>
  <defs
     id="defs40" />
  <sodipodi:namedview
     pagecolor="#ffffff"
     bordercolor="#666666"
     borderopacity="1"
     objecttolerance="10"
     gridtolerance="10"
     guidetolerance="10"
     inkscape:pageopacity="0"
     inkscape:pageshadow="2"
     inkscape:window-width="1920"
     inkscape:window-height="1017"
     id="namedview38"
     showgrid="false"
     inkscape:zoom="7.5733333"
     inkscape:cx="474.73131"
     inkscape:cy="-15.271012"
     inkscape:window-x="-8"
     inkscape:window-y="-8"
     inkscape:window-maximized="1"
     inkscape:current-layer="svg36" />
  <path
     inkscape:connector-curvature="0"
     id="path2"
     d="m 508.66,0.5718 v 96.5 h 3.3697 v -49.612 h 36.257 v 49.612 h 3.3674 v -96.5 h -3.3674 v 43.521 h -36.26 V 0.5718 Z" />
  <path
     inkscape:connector-curvature="0"
     id="path4"
     d="m 559.53,0.57389 v 96.498 h 17.391 c 17.21,0 23.08,-13.562 23.08,-48.249 0,-34.948 -5.61,-48.249 -23.08,-48.249 z m 3.3007,3.4777 h 14.554 c 14.623,0 19.317,12.342 19.317,44.771 0,32.187 -4.912,44.771 -19.317,44.771 h -14.554 z" />
  <g
     style="stroke-width:0.49557"
     id="g20">
    <path
       inkscape:connector-curvature="0"
       id="path6"
       d="M 22.249,0 C 8.788,0 1.54,9.0644 1.54,23.573 c 0,14.252 7.8825,22.655 15.008,30.692 6.4706,7.2407 12.3,12.685 12.3,20.831 0,5.8358 -2.067,8.551 -5.8294,8.551 -4.7817,0 -6.2075,-3.8773 -7.5113,-17.481 L -7e-4,67.329 v 0.41875 c 1.3167,17.399 4.6539,29.896 22.898,29.896 14.373,0 22.398,-8.16 22.398,-23.452 0,-15.279 -8.0242,-22.79 -15.414,-30.679 -6.208,-6.728 -11.773,-12.158 -11.773,-21.628 0,-4.3907 1.29,-7.376 4.3897,-7.376 3.4992,0 5.4443,1.5402 6.2213,15.279 l 15.677,-1.433 c -1.169,-18.25 -5.964,-28.355 -22.148,-28.355 z" />
    <path
       inkscape:connector-curvature="0"
       id="path8"
       d="m 77.541,0.91878 v 68.234 c 0,11.266 -1.0402,14.495 -5.316,14.495 -4.3972,0 -5.2956,-3.4987 -5.2956,-14.752 v -67.977 h -16.71 v 69.018 c 0,17.845 5.1742,27.707 21.493,27.707 16.313,0 21.749,-9.9832 21.749,-28.099 v -68.626 z" />
    <path
       inkscape:connector-curvature="0"
       id="path10"
       d="m 129.72,0.91878 v 29.517 c 0,6.5925 0.12141,16.954 0.76961,26.289 h -0.25026 c -1.56,-8.9296 -3.7618,-18.399 -5.6936,-26.545 l -7.39,-29.261 h -15.657 v 95.806 h 14.353 v -30.302 c 0,-5.0384 -0.12191,-19.804 -0.75673,-26.018 h 0.26315 c 1.5333,9.3216 4.2624,17.603 6.599,26.018 l 8.4093,30.301 h 13.718 v -95.805 z" />
    <path
       inkscape:connector-curvature="0"
       id="path12"
       d="m 169.09,15.536 h 2.3232 c 8.4232,0 9.4495,7.1332 9.4495,33.286 0,25.762 -1.0268,33.799 -9.3211,33.799 H 169.09 M 152.37,0.919 v 95.806 h 16.447 c 18.507,0 29.132,-7.376 29.132,-47.903 0,-40.798 -10.233,-47.903 -29.132,-47.903 z" />
    <path
       inkscape:connector-curvature="0"
       id="path14"
       d="m 220.75,37.947 c 0.5139,-3.6201 0.77705,-6.7407 1.1621,-10.618 h 0.14173 c 0.37168,3.7554 0.63482,6.9974 1.1482,10.618 l 3.1136,25.775 h -8.81 m -3.62,-63.209 -15.8,96.212 h 15.799 l 2.7222,-21.493 h 10.611 l 2.7222,21.493 h 16.961 l -15.65,-96.212 z" />
    <path
       inkscape:connector-curvature="0"
       id="path16"
       d="m 279.29,0.91878 v 29.517 c 0,6.5925 0.12092,16.954 0.77011,26.289 h -0.26364 c -1.56,-8.9296 -3.7624,-18.399 -5.6941,-26.545 l -7.39,-29.261 h -15.671 v 95.806 h 14.374 v -30.302 c 0,-5.0384 -0.14173,-19.804 -0.79043,-26.018 h 0.26315 c 1.5605,9.3216 4.2688,17.603 6.6133,26.018 l 8.4222,30.301 h 13.719 v -95.805 z" />
    <path
       inkscape:connector-curvature="0"
       id="path18"
       d="m 323.3,0 c -15.799,0 -23.31,12.806 -23.31,48.822 0,35.988 7.376,48.822 23.438,48.822 18.136,0 21.243,-16.332 22.148,-36.015 l -15.799,-0.6487 c -0.52678,17.887 -1.8172,21.641 -6.3497,21.641 -5.5652,0 -6.3497,-9.1858 -6.3497,-33.799 0,-23.952 0.64919,-33.408 6.2214,-33.408 4.1543,0 5.5791,4.7822 5.8427,22.006 l 15.78,-0.635 c -0.26,-28.355 -6.35,-36.785 -21.63,-36.785 z" />
  </g>
  <polygon
     id="polygon22"
     transform="matrix(0.49557,0,0,0.49557,-1e-5,0)"
     points="777.02,31.349 777.02,1.854 707.8,1.854 707.8,195.18 778.33,195.18 778.33,166.72 741.49,166.72 741.49,106.37 766.3,106.37 766.3,78.644 741.49,78.644 741.49,31.349 " />
  <polygon
     style="fill:#87a9a4"
     id="polygon26"
     points="886.21,31.349 886.21,1.854 801.83,1.854 801.83,31.349 827.18,31.349 827.18,195.18 861.15,195.18 861.15,31.349 "
     transform="matrix(0.49557,0,0,0.49557,-1e-5,0)" />
  <path
     style="fill:#87a9a4;stroke-width:0.49557"
     inkscape:connector-curvature="0"
     id="path28"
     d="m 472.73,0.91878 -5.1737,47.376 c -0.79043,7.3894 -1.567,16.062 -2.0873,24.221 h -0.26315 c -0.65,-8.16 -1.3,-16.832 -2.07,-24.221 l -5.3,-47.376 h -16.846 l 15.022,96.197 h 17.36 l 15.136,-96.197 z" />
</svg>
