<svg height="669.39978pt" viewBox="0 0 1338.6997 669.39978" width="1338.6997pt" xmlns="http://www.w3.org/2000/svg"><path d="m31.3 40.600356h390.76c-50 10.24-95.94 38.749644-129 77.489644-35.52 41.54-55.93 95.91985-55.78 150.61985h153.31c.43-3.7.83-7.40985 1.28-11.10985 2.59-16.12 10.04-31.55 21.5-43.23 11.73-12.47 27.61-20.97 44.48-23.83 17.75-3.15 36.53-.14 52.39 8.46 16.39 8.71 29.42 23.37 36.46 40.51 5.58 13.34 7.12 28.19 5.2 42.48-2.31 17.03-10.47 33.21-22.76 45.22-6.26 6.47-13.74 11.55-20.7 17.22-90.28 71.16-180.77 142.21-270.98 213.46v152.1101h-206.16z" fill="#f5931e" transform="translate(-31.3 -40.600356)"/><g fill="#ffc93f" transform="translate(-31.3 -40.525356)"><path d="m681.84 375.73c8.43-16.14 13.98-33.5599 18.6-51.1099h669.5597v233.63025h-880.7897c2.23-3.16 5.67-5.07035 8.54-7.56035 37.93-30.74 75.95-61.38 113.85-92.14 28.19-22.96 53.77-50.12 70.24-82.82"/><path d="m1009.29 400.3c7.23.12 14.47-.07 21.7.09 4.8.12 8.93 3.38 11.3 7.39 4.15 7.57.12 18.42-8.39 20.72-4.31.19-8.62 1.03-12.92.28-3.93-.62-7.93 1.2-11.75-.06.09-9.48-.03-18.95.06-28.42z"/><path d="m1254.58 400.65c7.1-.72 14.31-.14 21.46-.3 5.38-.19 10.19 3.48 12.44 8.2 3.73 7.71-.83 18.2-9.36 20.04-5.3952-.55393-21.4973 2.08579-24.56-.32.18-9.2.13-18.41.02-27.62z"/></g><g fill="#fff"><path d="m700.11 339.81465c12.61-11.01 30.48-13.87 46.66-11.96 12.7.8 25.54 4.91 35.24 13.41.92.97 3.57 2.15 2.16 3.74l-19.91 20.17c-2.34.35-3.63-2.05-5.46-3.03-8.09-5.1-17.96-4.75-27.13-4.2-6.59.87-12.94 6.54-12.33 13.58.59 6.11 6.81 9.67 12.42 10.2 8.4.75 16.75 2.1 25.03 3.74 9.22 2.24 18.5 6.77 23.92 14.86 6.1 8.73 6.98 19.87 6.57 30.2-.73 14.61-10.56 27.75-23.52 34.08-15.97 8.3-34.7 7.48-51.99 5.09-12.1-2.33-24.47-7.47-32.46-17.15l22.29-21.82c5.39 5.89 13.48 7.85 21.05 9.15 8.15.32 16.81 1.69 24.49-1.9 8.2-3.51 8.37-17.35.19-20.94-4.63-1.9-9.75-1.71-14.59-2.73-12.68-1.37-26.44-3.66-36.09-12.76-8.11-7.24-10.98-18.61-10.65-29.14-.62-12.28 4.77-24.61 14.11-32.59z"/><path d="m809.07 329.0745h35.1c-.26 30.79-.08 61.58015-.1 92.36015-.29 6.89 3.24 14.15 9.6 17.21 3.64 2.07 7.99 1.5 12 1.52 6.93-.02 12.91-5.41 15.06-11.78 1.74-6.5 1.12-13.26 1.22-19.9-.02-26.56.03-52.84015-.03-79.41015h34.43c-.1 32.57.12 64.87015-.11 97.44015-1.14 15.89-11.44 30.57-25.4 38.02-11.82 6.58-25.88 7.94-39.1 5.98-14.63-2.59-28.56-11.14-35.93-24.27-4.22-6.84-5.94-14.85-6.59-22.76-.13-31.46.17-62.95015-.15-94.41015z"/><path d="m943.09 328.82475c19.2-.05 38.39-.0201 57.59-.0201 16.76-.34 33.9 8.8 41.47 24.06 9.04 16.76 6.14 39.17-7.36 52.73-9.23 9.84-22.95 14.18-36.17 14.24-6.89-.05-13.77.01-20.66-.05l.04 50.31985h-34.90999v-141.27975m34.84024 30.95025v28.41975h24.66975c8.51-2.3 12.54-13.3701 8.39-20.9401-2.37-4.01-6.5-7.35965-11.3-7.47965z"/><path d="m1067.8897 328.82475h96.0503v30.11025h-61.62v25.02h52.95l-.05 30.09975h-52.9v24.99975h61.62v31.05h-96.0503z"/><path d="m1188.9397 328.82475h47.7503c7.01.22 14.17-.7101 21.03 1.1499 10.88 2.43 21.07 8.8 27.38 18.09 9.52 13.62 11.21 32.94 2.23 47.28-4.05 6.87-10.36 12.02-17.14 16.03l30.36 58.72985h-40.15l-24.64-52.26h-12.42l.01 52.26h-34.41v-141.27975m34.41 31.29975v27.62025h24.4703c8.53-1.84 13.09-12.0101 9.36-19.7201-2.25-4.72-7.06-8.09015-12.44-7.90015z"/></g></svg>