<?xml version="1.0" encoding="UTF-8" standalone="no"?>
<svg
   xmlns:dc="http://purl.org/dc/elements/1.1/"
   xmlns:cc="http://creativecommons.org/ns#"
   xmlns:rdf="http://www.w3.org/1999/02/22-rdf-syntax-ns#"
   xmlns:svg="http://www.w3.org/2000/svg"
   xmlns="http://www.w3.org/2000/svg"
   xmlns:xlink="http://www.w3.org/1999/xlink"
   xmlns:sodipodi="http://sodipodi.sourceforge.net/DTD/sodipodi-0.dtd"
   xmlns:inkscape="http://www.inkscape.org/namespaces/inkscape"
   width="1000pt"
   height="425pt"
   viewBox="0 0 1000 425"
   version="1.1"
   id="svg32"
   sodipodi:docname="TA3.svg"
   inkscape:version="0.92.0 r15299">
  <metadata
     id="metadata38">
    <rdf:RDF>
      <cc:Work
         rdf:about="">
        <dc:format>image/svg+xml</dc:format>
        <dc:type
           rdf:resource="http://purl.org/dc/dcmitype/StillImage" />
      </cc:Work>
    </rdf:RDF>
  </metadata>
  <defs
     id="defs36">
    <linearGradient
       inkscape:collect="always"
       id="linearGradient4593">
      <stop
         style="stop-color:#ef9cac;stop-opacity:1"
         offset="0"
         id="stop4589" />
      <stop
         style="stop-color:#d283a2;stop-opacity:1"
         offset="1"
         id="stop4591" />
    </linearGradient>
    <linearGradient
       id="linearGradient4587"
       inkscape:collect="always">
      <stop
         id="stop4583"
         offset="0"
         style="stop-color:#96a7d2;stop-opacity:1" />
      <stop
         id="stop4585"
         offset="1"
         style="stop-color:#0085c8;stop-opacity:1" />
    </linearGradient>
    <linearGradient
       id="linearGradient4573"
       inkscape:collect="always">
      <stop
         id="stop4569"
         offset="0"
         style="stop-color:#b90753;stop-opacity:1" />
      <stop
         id="stop4571"
         offset="1"
         style="stop-color:#e42a6b;stop-opacity:1" />
    </linearGradient>
    <linearGradient
       inkscape:collect="always"
       id="linearGradient4563">
      <stop
         style="stop-color:#d81f63;stop-opacity:1;"
         offset="0"
         id="stop4559" />
      <stop
         style="stop-color:#d81f63;stop-opacity:0;"
         offset="1"
         id="stop4561" />
    </linearGradient>
    <linearGradient
       inkscape:collect="always"
       id="linearGradient4555">
      <stop
         style="stop-color:#182a7e;stop-opacity:1"
         offset="0"
         id="stop4551" />
      <stop
         style="stop-color:#006bb1;stop-opacity:1"
         offset="1"
         id="stop4553" />
    </linearGradient>
    <linearGradient
       inkscape:collect="always"
       xlink:href="#linearGradient4555"
       id="linearGradient4557"
       x1="287.57333"
       y1="425.37885"
       x2="287.57333"
       y2="107.92773"
       gradientUnits="userSpaceOnUse" />
    <linearGradient
       inkscape:collect="always"
       xlink:href="#linearGradient4563"
       id="linearGradient4565"
       x1="791.70074"
       y1="420.79919"
       x2="791.70074"
       y2="104.19326"
       gradientUnits="userSpaceOnUse" />
    <linearGradient
       inkscape:collect="always"
       xlink:href="#linearGradient4573"
       id="linearGradient4567"
       gradientUnits="userSpaceOnUse"
       x1="1882.2386"
       y1="371.00293"
       x2="1882.2386"
       y2="-139.80838" />
    <linearGradient
       inkscape:collect="always"
       xlink:href="#linearGradient4587"
       id="linearGradient4581"
       x1="321.18582"
       y1="211.03879"
       x2="321.18582"
       y2="1.8945409"
       gradientUnits="userSpaceOnUse" />
    <linearGradient
       inkscape:collect="always"
       xlink:href="#linearGradient4593"
       id="linearGradient4595"
       x1="706.89441"
       y1="126.98163"
       x2="706.89441"
       y2="7.4706249"
       gradientUnits="userSpaceOnUse" />
  </defs>
  <sodipodi:namedview
     pagecolor="#ffffff"
     bordercolor="#666666"
     borderopacity="1"
     objecttolerance="10"
     gridtolerance="10"
     guidetolerance="10"
     inkscape:pageopacity="0"
     inkscape:pageshadow="2"
     inkscape:window-width="1920"
     inkscape:window-height="1017"
     id="namedview34"
     showgrid="false"
     inkscape:zoom="0.60245498"
     inkscape:cx="533.87857"
     inkscape:cy="383.1314"
     inkscape:window-x="-8"
     inkscape:window-y="-8"
     inkscape:window-maximized="1"
     inkscape:current-layer="svg32" />
  <rect
     style="opacity:1;fill:url(#linearGradient4557);fill-opacity:1;stroke-width:2.8726294"
     id="rect4520"
     width="999.99969"
     height="425.00024"
     x="0"
     y="-0.00025825499" />
  <g
     transform="translate(4.8919805e-4,-6.0147606e-4)"
     id="#f093a8ff-7"
     style="fill:url(#linearGradient4565);fill-opacity:1">
    <path
       style="opacity:1;fill:url(#linearGradient4567);fill-opacity:1;stroke-width:1.33333337"
       d="m 1660.293,-184.75195 c -39.8476,40.89848 -70.9038,90.229945 -90.8399,143.734372 -1.8173,4.877307 -3.5431,9.788982 -5.1738,14.732422 -1.3086,6.004613 -3.7891,12.436322 -5.166,19.1660154 -3.4184,13.7226804 -6.7981,27.4859826 -8.9942,41.4746096 l -0.014,0.09375 c -6.48,38.920001 -6.8926,78.786251 -1.8926,117.906251 10.8133,85.62667 49.9073,167.61388 110.0273,229.56055 h 382.2793 v -566.52149 -0.14648 z"
       transform="matrix(0.74999998,0,0,0.74999998,-530.38947,138.56358)"
       id="path5-1"
       inkscape:connector-curvature="0" />
  </g>
  <g
     id="#0991cbff"
     style="fill-opacity:1;fill:url(#linearGradient4581)">
    <path
       style="opacity:1;fill:url(#linearGradient4581);stroke-width:1.33333337;fill-opacity:1.0"
       d="m 0,0 v 31.359375 c 2.2133334,29.680001 7.1740633,59.57398 18.414062,87.333985 7.520004,17.73333 16.291979,35.33299 28.945313,49.98633 2.653333,2.70666 5.213802,5.50687 7.480469,8.54687 24.480001,28.01334 56.706426,48.22662 90.759766,62.61328 17.94667,7.45334 36.14711,14.98968 55.26758,18.49414 l 99.14648,18.17188 c 52.96014,9.7067 107.46724,7.52159 161.25391,6.29492 l 105.33203,-6.96094 c 13.97333,-1.53333 27.94651,-3.11929 41.83984,-5.27929 l 95.73438,-16.52149 c 46.77333,-9.44 92.93276,-21.58651 138.74609,-34.83984 l 0.0137,-0.0918 c 1.62186,-10.33125 23.25561,-18.77922 25.70739,-28.93931 L 922.65838,140.4947 C 942.32772,82.815388 910.58122,43.647719 953.10742,0 Z"
       transform="scale(0.74999998)"
       id="path2"
       inkscape:connector-curvature="0"
       sodipodi:nodetypes="ccccccsscccccccccc" />
  </g>
  <g
     id="#8ba6d3ff" />
  <g
     transform="translate(530.38947,-138.56358)"
     id="#d81f63ff-2" />
  <g
     id="#f093a8ff">
    <path
       d="M 714.83,0 H 1000 v 0.11 c -37.69,23.92 -77.09,45.04 -117,64.98 -2.82,1.44 -5.76,2.68 -8.33,4.53 l -155.69,66.02 c -28.61,10.49 -57.53,20.13 -86.78,28.69 1.64701,-10.49147 4.18242,-20.8134 6.74617,-31.10541 1.03267,-5.04727 2.8924,-9.87113 3.87383,-14.37459 1.22305,-3.70758 2.51673,-7.39156 3.87971,-11.04954 C 661.65177,67.672141 684.94429,30.673862 714.83,0 Z"
       id="path5"
       inkscape:connector-curvature="0"
       style="opacity:1;fill:url(#linearGradient4595);fill-opacity:1"
       sodipodi:nodetypes="cccccccccsc" />
  </g>
  <g
     id="#ffffffff">
    <path
       d="M 756.26,76.28 C 775.23,62.72 798.9,56.64 822.05,57 c 18.17,-0.2 36.75,3.5 52.62,12.62 7.71,4.14 14.59,9.82 20.31,16.42 11.53,13.23 17.67,30.58 18.59,47.99 0.77,14.02 -0.73,28.63 -7.07,41.35 -5.02,10.25 -13.32,18.49 -22.67,24.86 5.64,1.98 11.3,4.16 16.21,7.65 5.09,3.52 9,8.41 12.79,13.24 13.92,18.69 19.44,43.03 16.25,65.98 -2.24,18.2 -10.47,35.57 -23.07,48.88 -21.21,22.48 -52.63,32.91 -83,33.49 -25.71,1 -52.42,-4.69 -73.73,-19.69 -15.52,-10.8 -27.71,-25.95 -36.17,-42.78 -7.02,-13.11 -11.64,-27.78 -11.37,-42.76 l 75.69,-0.02 c 0.79,12.07 5.12,24.7 14.99,32.32 16.07,12.01 41.77,10.57 55,-5.08 9.71,-11.23 11.47,-28.36 4.79,-41.54 -3.82,-8.11 -10.7,-14.62 -18.83,-18.33 -9.02,-4.24 -19.55,-4.45 -28.92,-1.24 l -0.06,-51.1 c 4.67,-0.64 9.71,0.58 14.48,-0.35 8.85,-1.29 17.23,-6.53 21.48,-14.52 5.75,-10.51 6.09,-24.55 -1.11,-34.47 -9.99,-13.8 -32.58,-15.13 -44.52,-3.2 -6.36,6.57 -8.72,15.9 -9.17,24.79 l -69.07,0.04 c 0.67,-5.33 1.4,-10.65 2.49,-15.91 4.64,-23.38 17.64,-45.52 37.28,-59.36 z"
       id="path16"
       inkscape:connector-curvature="0"
       style="opacity:1;fill:#ffffff"
       sodipodi:nodetypes="cccccccccccccccccccccccccccccc" />
    <path
       d="m 69.999748,67.73 237.209992,0.04 v 63.63 l -82.19974,0.05 -0.05,225.28 -74.21,-0.01 -0.02,-225.25 -80.730252,-0.03 z"
       id="path18"
       inkscape:connector-curvature="0"
       style="opacity:1;fill:#ffffff"
       sodipodi:nodetypes="ccccccccc" />
    <path
       d="M 401.40152,67.67 482.13,67.72 589.63,356.72974 H 510.35 L 491.93,306.52 l -101.82,0.01 -19.7,50.19974 H 291.96 M 410.73974,248.99 471.65998,249 441.19986,157.94 Z"
       id="path20"
       inkscape:connector-curvature="0"
       style="opacity:1;fill:#ffffff"
       sodipodi:nodetypes="cccccccccccc" />
  </g>
</svg>
