<?xml version="1.0" encoding="UTF-8"?>
<svg id="svg32" width="1e3pt" height="425pt" version="1.1" viewBox="0 0 1e3 425" xmlns="http://www.w3.org/2000/svg" xmlns:cc="http://creativecommons.org/ns#" xmlns:dc="http://purl.org/dc/elements/1.1/" xmlns:rdf="http://www.w3.org/1999/02/22-rdf-syntax-ns#" xmlns:xlink="http://www.w3.org/1999/xlink">
 <metadata id="metadata38">
  <rdf:RDF>
   <cc:Work rdf:about="">
    <dc:format>image/svg+xml</dc:format>
    <dc:type rdf:resource="http://purl.org/dc/dcmitype/StillImage"/>
   </cc:Work>
  </rdf:RDF>
 </metadata>
 <defs id="defs36">
  <linearGradient id="linearGradient4557" x1="287.57" x2="287.57" y1="425.38" y2="107.93" gradientUnits="userSpaceOnUse">
   <stop id="stop4551" stop-color="#182a7e" offset="0"/>
   <stop id="stop4553" stop-color="#006bb1" offset="1"/>
  </linearGradient>
  <linearGradient id="linearGradient4565" x1="791.7" x2="791.7" y1="420.8" y2="104.19" gradientUnits="userSpaceOnUse">
   <stop id="stop4559" stop-color="#d81f63" offset="0"/>
   <stop id="stop4561" stop-color="#d81f63" stop-opacity="0" offset="1"/>
  </linearGradient>
  <linearGradient id="linearGradient4567" x1="1882.2" x2="1882.2" y1="371" y2="-139.81" gradientUnits="userSpaceOnUse">
   <stop id="stop4569" stop-color="#b90753" offset="0"/>
   <stop id="stop4571" stop-color="#e42a6b" offset="1"/>
  </linearGradient>
  <linearGradient id="linearGradient4581" x1="321.19" x2="321.19" y1="211.04" y2="1.8945" gradientUnits="userSpaceOnUse">
   <stop id="stop4583" stop-color="#96a7d2" offset="0"/>
   <stop id="stop4585" stop-color="#0085c8" offset="1"/>
  </linearGradient>
  <linearGradient id="linearGradient4595" x1="706.89" x2="706.89" y1="126.98" y2="7.4706" gradientUnits="userSpaceOnUse">
   <stop id="stop4589" stop-color="#ef9cac" offset="0"/>
   <stop id="stop4591" stop-color="#d283a2" offset="1"/>
  </linearGradient>
 </defs>
 <rect id="rect4520" y="-.00025825" width="1e3" height="425" fill="url(#linearGradient4557)" stroke-width="2.8726"/>
 <g id="#f093a8ff-7" transform="translate(.0004892 -.00060148)" fill="url(#linearGradient4565)">
  <path id="path5-1" transform="matrix(.75 0 0 .75 -530.39 138.56)" d="m1660.3-184.75c-39.848 40.898-70.904 90.23-90.84 143.73-1.8173 4.8773-3.5431 9.789-5.1738 14.732-1.3086 6.0046-3.7891 12.436-5.166 19.166-3.4184 13.723-6.7981 27.486-8.9942 41.475l-0.014 0.09375c-6.48 38.92-6.8926 78.786-1.8926 117.91 10.813 85.627 49.907 167.61 110.03 229.56h382.28v-566.67z" fill="url(#linearGradient4567)" stroke-width="1.3333"/>
 </g>
 <g id="#0991cbff" fill="url(#linearGradient4581)">
  <path id="path2" transform="scale(.75)" d="m0 0v31.359c2.2133 29.68 7.1741 59.574 18.414 87.334 7.52 17.733 16.292 35.333 28.945 49.986 2.6533 2.7067 5.2138 5.5069 7.4805 8.5469 24.48 28.013 56.706 48.227 90.76 62.613 17.947 7.4533 36.147 14.99 55.268 18.494l99.146 18.172c52.96 9.7067 107.47 7.5216 161.25 6.2949l105.33-6.9609c13.973-1.5333 27.947-3.1193 41.84-5.2793l95.734-16.521c46.773-9.44 92.933-21.587 138.75-34.84l0.0137-0.0918c1.6219-10.331 23.256-18.779 25.707-28.939l54.017-49.673c19.669-57.679-12.077-96.847 30.449-140.49z" fill="url(#linearGradient4581)" stroke-width="1.3333"/>
 </g>
 <g id="#f093a8ff">
  <path id="path5" d="m714.83 0h285.17v0.11c-37.69 23.92-77.09 45.04-117 64.98-2.82 1.44-5.76 2.68-8.33 4.53l-155.69 66.02c-28.61 10.49-57.53 20.13-86.78 28.69 1.647-10.491 4.1824-20.813 6.7462-31.105 1.0327-5.0473 2.8924-9.8711 3.8738-14.375 1.223-3.7076 2.5167-7.3916 3.8797-11.05 14.952-40.128 38.245-77.127 68.13-107.8z" fill="url(#linearGradient4595)"/>
 </g>
 <g id="#ffffffff" fill="#fff">
  <path id="path16" d="m756.26 76.28c18.97-13.56 42.64-19.64 65.79-19.28 18.17-0.2 36.75 3.5 52.62 12.62 7.71 4.14 14.59 9.82 20.31 16.42 11.53 13.23 17.67 30.58 18.59 47.99 0.77 14.02-0.73 28.63-7.07 41.35-5.02 10.25-13.32 18.49-22.67 24.86 5.64 1.98 11.3 4.16 16.21 7.65 5.09 3.52 9 8.41 12.79 13.24 13.92 18.69 19.44 43.03 16.25 65.98-2.24 18.2-10.47 35.57-23.07 48.88-21.21 22.48-52.63 32.91-83 33.49-25.71 1-52.42-4.69-73.73-19.69-15.52-10.8-27.71-25.95-36.17-42.78-7.02-13.11-11.64-27.78-11.37-42.76l75.69-0.02c0.79 12.07 5.12 24.7 14.99 32.32 16.07 12.01 41.77 10.57 55-5.08 9.71-11.23 11.47-28.36 4.79-41.54-3.82-8.11-10.7-14.62-18.83-18.33-9.02-4.24-19.55-4.45-28.92-1.24l-0.06-51.1c4.67-0.64 9.71 0.58 14.48-0.35 8.85-1.29 17.23-6.53 21.48-14.52 5.75-10.51 6.09-24.55-1.11-34.47-9.99-13.8-32.58-15.13-44.52-3.2-6.36 6.57-8.72 15.9-9.17 24.79l-69.07 0.04c0.67-5.33 1.4-10.65 2.49-15.91 4.64-23.38 17.64-45.52 37.28-59.36z"/>
  <path id="path18" d="m70 67.73 237.21 0.04v63.63l-82.2 0.05-0.05 225.28-74.21-0.01-0.02-225.25-80.73-0.03z"/>
  <path id="path20" d="m401.4 67.67 80.728 0.05 107.5 289.01h-79.28l-18.42-50.21-101.82 0.01-19.7 50.2h-78.45m118.78-107.74 60.92 0.01-30.46-91.06z"/>
 </g>
</svg>
