<svg width="600pt" height="538.35pt" version="1.1" viewBox="0 0 600 538.35" xmlns="http://www.w3.org/2000/svg">
 <g transform="matrix(1.1767 0 0 1.1767 -79.133 -93.336)" stroke="#fff" stroke-width="17.02">
  <path d="m454.22 161.33h89.307l-174.57 282.98h-40.333v-223.27h14.928v102.54z" fill="#095d3c" style="paint-order:stroke fill markers"/>
  <path d="m216.46 233.84v144.46l-37.838 66.009h-95.881z" fill="#095d3c" style="paint-order:stroke fill markers"/>
  <path d="m152.13 161.33h262.5l-34.289 51.343h-64.002v231.64h-87.634v-231.64h-109.43z" style="paint-order:stroke fill markers"/>
 </g>
 <g transform="matrix(2.6958 0 0 2.6958 -404.01 799.47)" fill="#fff">
  <path d="m152.49-124.65h6.1963l8.0859 11.88v-11.88h6.2549v21.475h-6.2549l-8.042-11.792v11.792h-6.2402z"/>
  <path d="m176.33-110.91q0-3.5596 2.4024-5.8594 2.4023-2.3145 6.4892-2.3145 4.6728 0 7.0606 2.71 1.919 2.1826 1.919 5.376 0 3.5889-2.3877 5.8887-2.373 2.2852-6.5772 2.2852-3.75 0-6.0644-1.9043-2.8418-2.3584-2.8418-6.1816zm5.9766-0.0146q0 2.0801 0.83496 3.0762 0.84962 0.99609 2.124 0.99609 1.2891 0 2.1094-0.98145 0.83496-0.98144 0.83496-3.1494 0-2.0215-0.83496-3.0029-0.83497-0.99609-2.0654-0.99609-1.3037 0-2.1533 1.0107-0.84962 0.99609-0.84962 3.0469z"/>
  <path d="m194.34-118.73h6.2109l3.0176 9.8584 3.1201-9.8584h6.0205l-6.6064 15.557h-5.2881z"/>
  <path d="m231.72-109.48h-11.953q0.16113 1.4355 0.77637 2.1387 0.86425 1.0107 2.2559 1.0107 0.8789 0 1.6699-0.43945 0.48339-0.27832 1.04-0.98145l5.874 0.542q-1.3476 2.3438-3.252 3.3691-1.9043 1.0108-5.4639 1.0108-3.0908 0-4.8633-0.86426-1.7725-0.87891-2.9443-2.7686-1.1572-1.9043-1.1572-4.4678 0-3.6475 2.3291-5.9033 2.3438-2.2559 6.46-2.2559 3.3398 0 5.2734 1.0108 1.9336 1.0107 2.9443 2.9297t1.0107 4.9951zm-6.0644-2.8564q-0.17578-1.7285-0.9375-2.4756-0.74707-0.74708-1.9775-0.74708-1.4209 0-2.2705 1.1279-0.54199 0.70312-0.68847 2.0947zm-3.1494-12.686h5.127l-4.7314 4.3799h-2.8564z"/>
  <path d="m244.36-124.65h18.779v4.292l-12.041 12.568h12.48v4.6143h-20.376v-4.4531l11.909-12.437h-10.752z"/>
  <path d="m271.62-113.69-5.6982-0.60059q0.32226-1.4941 0.92285-2.3438 0.61523-0.86425 1.7578-1.4941 0.82031-0.4541 2.2559-0.70313 1.4355-0.24902 3.1055-0.24902 2.6807 0 4.3066 0.30762 1.626 0.29297 2.71 1.2451 0.76172 0.65919 1.2012 1.875 0.43945 1.2012 0.43945 2.2998v6.8701q0 1.0986 0.13184 1.7285 0.14649 0.61524 0.61524 1.582h-5.5957q-0.33691-0.60059-0.43945-0.90821-0.10254-0.32227-0.20508-0.99609-1.1719 1.1279-2.3291 1.6113-1.582 0.64454-3.6768 0.64454-2.7832 0-4.2334-1.2891-1.4355-1.2891-1.4355-3.1787 0-1.7725 1.04-2.915t3.8379-1.6992q3.3545-0.67382 4.3506-0.9375 0.99609-0.27831 2.1094-0.71777 0-1.0986-0.4541-1.5381-0.45411-0.43946-1.5967-0.43946-1.4648 0-2.1973 0.46875-0.57129 0.36622-0.92286 1.377zm5.1709 3.1348q-1.2305 0.43946-2.5635 0.77637-1.8164 0.4834-2.2998 0.95215-0.49804 0.4834-0.49804 1.0986 0 0.70313 0.4834 1.1572 0.49804 0.43945 1.4502 0.43945 0.9961 0 1.8457-0.48339 0.86426-0.48341 1.2158-1.1719 0.36622-0.70312 0.36622-1.8164zm-2.5488-14.458h5.127l-4.7314 4.3799h-2.8564z"/>
  <path d="m286.27-118.73h5.5664v2.2705q1.2012-1.4209 2.417-2.0215 1.2305-0.60059 2.959-0.60059 1.8604 0 2.9443 0.65918 1.084 0.65918 1.7725 1.9629 1.4062-1.5234 2.5635-2.0654 1.1572-0.55664 2.8564-0.55664 2.5049 0 3.9111 1.4941 1.4062 1.4795 1.4062 4.6436v9.7705h-5.9766v-8.8623q0-1.0547-0.41016-1.5674-0.60059-0.80567-1.4941-0.80567-1.0547 0-1.6992 0.76173-0.64453 0.76171-0.64453 2.4463v8.0274h-5.9766v-8.5693q0-1.0254-0.11718-1.3916-0.19043-0.58594-0.65918-0.9375-0.46875-0.36621-1.0986-0.36621-1.0254 0-1.6846 0.77636-0.65919 0.77637-0.65919 2.5488v7.9395h-5.9766z"/>
  <path d="m316.23-124.65h6.0938v11.074l4.4531-5.1562h7.3389l-5.581 5.4492 5.9033 10.107h-6.7236l-3.1494-6.2402-2.2412 2.1973v4.043h-6.0938z"/>
  <path d="m335.07-118.73h6.2988l3.208 10.356 2.9736-10.356h5.874l-6.167 16.626q-1.0547 2.8418-2.1533 3.8379-1.5527 1.4062-4.7314 1.4062-1.2891 0-3.9844-0.35156l-0.46875-4.1602q1.2891 0.41016 2.8711 0.41016 1.0547 0 1.6992-0.4834 0.65918-0.48339 1.1133-1.7285z"/>
 </g>
 <g transform="matrix(2.0281 0 0 2.0281 160.82 446.64)" fill="#fff" aria-label="Televízia">
  <path d="m-77.99-219.74h26.895v7.0703h-9.0234v21.562h-8.8477v-21.562h-9.0234z"/>
  <path d="m-13.94-199.5h-15.938q0.21484 1.9141 1.0352 2.8516 1.1523 1.3477 3.0078 1.3477 1.1719 0 2.2266-0.58594 0.64453-0.37109 1.3867-1.3086l7.832 0.72266q-1.7969 3.125-4.3359 4.4922-2.5391 1.3477-7.2852 1.3477-4.1211 0-6.4844-1.1523-2.3633-1.1719-3.9258-3.6914-1.543-2.5391-1.543-5.957 0-4.8633 3.1055-7.8711 3.125-3.0078 8.6133-3.0078 4.4531 0 7.0312 1.3477 2.5781 1.3476 3.9258 3.9062t1.3477 6.6602zm-8.0859-3.8086q-0.23438-2.3047-1.25-3.3008-0.99609-0.9961-2.6367-0.9961-1.8945 0-3.0273 1.5039-0.72266 0.9375-0.91797 2.793z"/>
  <path d="m3.0794-219.74h7.9687v28.633h-7.9687z"/>
  <path d="m52.247-199.5h-15.938q0.21484 1.9141 1.0352 2.8516 1.1523 1.3477 3.0078 1.3477 1.1719 0 2.2266-0.58594 0.64453-0.37109 1.3867-1.3086l7.832 0.72266q-1.7969 3.125-4.3359 4.4922-2.5391 1.3477-7.2852 1.3477-4.1211 0-6.4844-1.1523-2.3633-1.1719-3.9258-3.6914-1.543-2.5391-1.543-5.957 0-4.8633 3.1055-7.8711 3.125-3.0078 8.6133-3.0078 4.4531 0 7.0312 1.3477 2.5781 1.3476 3.9258 3.9062t1.3477 6.6602zm-8.0859-3.8086q-0.23438-2.3047-1.25-3.3008-0.99609-0.9961-2.6367-0.9961-1.8945 0-3.0273 1.5039-0.72266 0.9375-0.91797 2.793z"/>
  <path d="m65.614-211.84h8.2812l4.0234 13.145 4.1602-13.145h8.0273l-8.8086 20.742h-7.0508z"/>
  <path d="m105.78-211.84h7.9492v20.742h-7.9492zm3.7695-8.3789h6.8359l-6.3086 5.8398h-3.8086z"/>
  <path d="m131-211.84h19.238v4.6484l-10.469 10.664h11.113v5.4297h-20.664v-5.1562l9.9219-10.156h-9.1406z"/>
  <path d="m167.51-219.74h7.9492v5.4102h-7.9492zm0 7.8906h7.9492v20.742h-7.9492z"/>
  <path d="m200.88-205.13-7.5976-0.80078q0.42968-1.9922 1.2305-3.125 0.82031-1.1523 2.3438-1.9922 1.0938-0.60547 3.0078-0.9375t4.1406-0.33203q3.5742 0 5.7422 0.41016 2.168 0.39062 3.6133 1.6602 1.0156 0.87891 1.6016 2.5 0.58594 1.6016 0.58594 3.0664v9.1602q0 1.4648 0.17578 2.3047 0.19532 0.82032 0.82032 2.1094h-7.4609q-0.44922-0.80078-0.58594-1.2109-0.13672-0.42969-0.27344-1.3281-1.5625 1.5039-3.1055 2.1484-2.1094 0.85938-4.9023 0.85938-3.7109 0-5.6445-1.7188-1.9141-1.7188-1.9141-4.2383 0-2.3633 1.3867-3.8867t5.1172-2.2656q4.4727-0.89843 5.8008-1.25 1.3281-0.37109 2.8125-0.95703 0-1.4648-0.60546-2.0508-0.60547-0.58594-2.1289-0.58594-1.9531 0-2.9297 0.625-0.76172 0.48829-1.2305 1.8359zm6.8945 4.1797q-1.6406 0.58594-3.418 1.0352-2.4219 0.64453-3.0664 1.2695-0.66406 0.64453-0.66406 1.4648 0 0.9375 0.64453 1.543 0.66406 0.58594 1.9336 0.58594 1.3281 0 2.4609-0.64453 1.1523-0.64454 1.6211-1.5625 0.48828-0.9375 0.48828-2.4219z"/>
 </g>
</svg>
