<svg width="800" height="545.3" version="1.1" viewBox="0 0 800 545.3" xml:space="preserve" xmlns="http://www.w3.org/2000/svg"><defs><clipPath id="clipPath56"><path d="m331.96 708.72h181.38v123.63h-181.38z"/></clipPath></defs><g transform="matrix(1.3333 0 0 -1.3333 -3.3699e-5 545.3)"><g transform="matrix(3.308 0 0 3.308 -1098.1 -2344.5)"><g clip-path="url(#clipPath56)"><g transform="translate(364.66 735.96)"><path d="m0 0c-4.864-0.946-8.512-1.216-13.377-1.216-11.753 0-19.32 4.594-19.32 13.781l-1e-3 67.517h12.97l1e-3 -12.392h19.727v-11.891h-19.727v-40.936c0-2.704 2.568-4.054 8.377-4.054 3.919 0 7.161 0.269 11.35 1.35z" fill="#e1173d"/></g><g transform="translate(393.71 736.1)"><path d="m0 0c-4.729 0-7.296 0.405-8.242 7.161l-12.024 60.393h13.24l10.134-53.098c0.135-2.296 0.405-3.512 1.351-3.512h1.756c0.811 0 1.216 1.216 1.351 3.512l10.133 53.098h13.24l-12.024-60.393c-0.946-6.756-3.512-7.161-8.241-7.161z" fill="#e1173d"/></g><g transform="translate(473.16 803.11)"><path d="m0 0v-11.213c-5.675 1.35-11.215 1.62-16.754 1.62-8.917 0-11.484-1.351-11.484-3.782v-9.594c0-2.567 2.027-4.053 9.458-4.053 15.807 0 19.861-4.998 19.861-13.916v-13.647c0-9.592-5.945-13.78-22.969-13.78-6.485 0-12.43 0.674-18.375 1.756v11.485c6.351-1.352 12.025-1.891 17.565-1.891 8.242 0 10.809 1.35 10.809 3.917v11.89c0 2.432-2.162 3.918-9.593 3.918-15.808 0-19.727 4.324-19.727 13.241v12.025c0 9.592 5.811 13.916 23.509 13.916 6.485 0 12.567-0.811 17.7-1.892" fill="#e1173d"/></g><g transform="translate(486.03 725.35)"><path d="m0 0c5.956 0.45 9.89 4.946 9.89 10.903v68.559c0 5.957-3.934 10.452-9.89 10.902l5.395 16.634c13.374-2.135 21.916-12.813 21.916-26.412v-70.807c0-13.599-8.542-24.277-21.916-26.412z" fill="#fad317"/></g></g></g></g></svg>
