<svg height="104.26958mm" viewBox="0 0 211.66666 104.26958" width="211.66666mm" xmlns="http://www.w3.org/2000/svg" xmlns:xlink="http://www.w3.org/1999/xlink"><linearGradient id="a" gradientUnits="userSpaceOnUse" x1="52.13266" x2="52.13266" y1="-.000537" y2="104.2592"><stop offset="0" stop-color="#ec972e"/><stop offset="1" stop-color="#e15b2e"/></linearGradient><g fill="url(#a)"><path d="m79.709562 64.821124v.21335h22.945818a52.484149 52.484149 0 0 0 -.43737-27.4155l-14.14512 17.804074a124.11648 124.11648 0 0 1 -8.363328 9.398076z" fill="url(#a)" stroke-width="1.066751"/><path d="m59.857326 77.675474v-9.088719l16.086605-20.161594c2.922897-3.445605 5.22708-5.95247 8.149977-9.088718v-.21335h-22.455108v-12.534325h35.938841a52.132121 52.132121 0 1 0 0 51.086706z" fill="url(#a)" stroke-width="1.066751"/></g><g fill="#fff" transform="matrix(1.066751 0 0 1.066751 -.000001 .000001)"><path d="m94.841806 81.015a8.14 8.14 0 0 1 1.5-.13 2.48 2.48 0 0 1 1.75.49 1.51 1.51 0 0 1  .48 1.15 1.59 1.59 0 0 1 -1.14 1.54 1.51 1.51 0 0 1  .89 1.22 9.64 9.64 0 0 0  .47 1.66h-.81a7.85 7.85 0 0 1 -.4-1.45c-.18-.84-.5-1.15-1.21-1.18h-.74v2.62h-.78zm.78 2.76h.8c.84 0 1.37-.46 1.37-1.15s-.57-1.12-1.39-1.13a3.21 3.21 0 0 0 -.77.07z"/><path d="m109.13181 84.135h-2.35v2.18h2.62v.66h-3.4v-6.04h3.27v.66h-2.49v1.91h2.35z"/><path d="m121.35181 86.715a5.64 5.64 0 0 1 -1.86.33 2.84 2.84 0 0 1 -3.11-3.05 3 3 0 0 1 3.28-3.13 3.74 3.74 0 0 1 1.51.28l-.19.64a3.14 3.14 0 0 0 -1.34-.26 2.26 2.26 0 0 0 -2.43 2.43 2.22 2.22 0 0 0 2.34 2.44 2.55 2.55 0 0 0 1-.16v-1.8h-1.23v-.63h2z"/><path d="m129.65181 80.935v6.05h-.78v-6.05z"/><path d="m142.47181 83.895c0 2.08-1.27 3.19-2.81 3.19a2.78 2.78 0 0 1 -2.72-3.07 2.88 2.88 0 0 1 2.81-3.18 2.76 2.76 0 0 1 2.72 3.06zm-4.7.1c0 1.29.7 2.45 1.93 2.45s1.94-1.14 1.94-2.52c0-1.2-.63-2.46-1.93-2.46s-1.89 1.2-1.89 2.53z"/><path d="m149.85181 86.985v-6.05h.85l1.94 3.06a17.15 17.15 0 0 1 1.09 2c-.07-.81-.09-1.54-.09-2.49v-2.57h.74v6.05h-.79l-1.92-3.07a19.23 19.23 0 0 1 -1.13-2c0 .76.06 1.49.06 2.5v2.59z"/><path d="m163.07181 85.085-.63 1.9h-.81l2.06-6.05h.94l2.07 6.05h-.84l-.65-1.9zm2-.61-.59-1.74c-.13-.4-.22-.75-.31-1.1-.09.36-.19.73-.31 1.1l-.59 1.75zm.43-4.91-1.14 1.05h-.65l.84-1.05z"/><path d="m173.91181 80.935h.78v5.4h2.59v.66h-3.37z"/><path d="m184.47181 86.985v-6.05h.85l1.94 3.06a17.15 17.15 0 0 1 1.09 2c-.07-.81-.09-1.54-.09-2.49v-2.57h.74v6.05h-.79l-1.92-3.07a19.23 19.23 0 0 1 -1.13-2c0 .76.06 1.49.06 2.5v2.59z"/><path d="m198.41181 79.555-1.15 1.05h-.64l.83-1.05zm-.94 1.38v6.05h-.78v-6.05z"/><path d="m121.56181 92.355h-1.84v-.66h4.48v.66h-1.85v5.39h-.79z"/><path d="m134.34181 94.905h-2.35v2.18h2.62v.66h-3.4v-6.05h3.26v.66h-2.49v1.91h2.35z"/><path d="m141.95181 91.685h.78v5.4h2.59v.66h-3.37z"/><path d="m155.65181 94.905h-2.35v2.18h2.62v.66h-3.45v-6.05h3.27v.66h-2.49v1.91h2.35z"/><path d="m164.67181 97.735-2-6.05h.84l.94 3c .26.82.49 1.55.65 2.26.17-.7.42-1.46.69-2.25l1-3h .84l-2.16 6.05z"/><path d="m175.47181 91.685v6.05h-.78v-6.05z"/><path d="m182.73181 97.285 3.36-4.91h-3.07v-.66h4.09v.42l-3.34 4.9h3.39v.66h-4.42z"/><path d="m197.57181 94.905h-2.35v2.18h2.62v.66h-3.37v-6.05h3.27v.66h-2.49v1.91h2.35z"/><path d="m132.26181 72.815-.88-4.8h-.29c-3.13 3.82-8 5.88-13.71 5.88-9.7 0-15.47-7.05-15.47-14.69 0-12.44 11.16-18.41 28.11-18.31v-.69c0-2.55-1.37-6.17-8.72-6.17a26.93 26.93 0 0 0 -13.22 3.62l-2.74-9.6c3.33-1.86 9.89-4.21 18.61-4.21 16 0 21.06 9.4 21.06 20.66v16.63a74.2 74.2 0 0 0  .69 11.65zm-1.79-22.63c-7.83-.1-13.91 1.76-13.91 7.54 0 3.82 2.55 5.68 5.88 5.68a8.13 8.13 0 0 0 7.74-5.48 10.68 10.68 0 0 0  .29-2.55z"/><path d="m164.72181 45.135h.2c1.08-2 2.25-3.92 3.43-5.78l9.7-14.4h17.92l-17.14 19.39 19.59 28.5h-18.32l-11.56-19.71-3.82 4.7v15h-14.88v-69.56h14.89z"/></g></svg>