<?xml version="1.0" encoding="UTF-8"?>
<svg id="svg29" width="180.42" height="28.323" xmlns:cc="http://creativecommons.org/ns#" xmlns:dc="http://purl.org/dc/elements/1.1/" xmlns:rdf="http://www.w3.org/1999/02/22-rdf-syntax-ns#" version="1.1" viewBox="0 0 180.42 28.323" xmlns:xlink="http://www.w3.org/1999/xlink" xmlns="http://www.w3.org/2000/svg">
 <metadata id="metadata33">
  <rdf:RDF>
   <cc:Work rdf:about="">
    <dc:format>image/svg+xml</dc:format>
    <dc:type rdf:resource="http://purl.org/dc/dcmitype/StillImage"/>
    <dc:title/>
   </cc:Work>
  </rdf:RDF>
 </metadata>
 <link id="dark-mode" href="" rel="stylesheet" type="text/css"/>
 <style id="dark-mode-custom-style" type="text/css"/>
 <polygon id="Fill-1" transform="translate(-9.7824 -11.986)" points="46.731 36.313 48.038 36.313 48.038 14.527 46.731 14.527" fill="#9d9d9d" fill-rule="evenodd"/>
 <path id="Fill-2" d="m13.793 1.5481c-1.461 0.23673-2.9234 0.46491-4.3586 0.83026-1.5829 0.40351-3.2101 0.94746-4.532 1.9359-1.3872 1.037-2.7214 2.9111-1.9798 4.6955 0.36918 0.88695 1.0971 1.5657 1.8583 2.1226 0.90124 0.6598 1.8735 1.22 2.8743 1.7131 2.0545 1.0132 4.1605 1.9007 6.336 2.619 1.1109 0.36631 2.2299 0.7121 3.3307 1.1085 0.99649 0.35864 2.0073 0.70778 2.9248 1.2461 0.86172 0.50643 1.6153 1.3228 1.6401 2.3751 0.02339 0.9818-0.72168 1.7606-1.4776 2.2851-0.87513 0.60734-1.9116 0.97078-2.9024 1.3404-1.0542 0.39345-2.125 0.73317-3.205 1.0485-2.2455 0.65645-4.5158 1.2457-6.8004 1.7483-2.2037 0.48495-4.4268 0.89884-6.6194 1.4334-0.0515 0.01182-0.89509 0.20623-0.88176 0.24335 0.036647 0.09956 1.299-0.08192 1.4028-0.09198 0.90651-0.08719 1.8116-0.19289 2.7158-0.30387 2.972-0.36439 5.9453-0.80934 8.8878-1.3676 2.7281-0.51784 5.3832-1.2176 8.0089-2.1184 0.89557-0.30675 1.7749-0.62587 2.6319-1.0294 0.92934-0.43729 1.8754-0.94459 2.5194-1.7692 0.77118-0.98754 1.0437-2.2965 0.67162-3.4988-0.41158-1.3295-1.5515-2.2989-2.6733-3.0462-2.4742-1.6497-5.4267-2.338-8.2071-3.2807-1.2833-0.43489-2.6495-0.92647-3.7627-1.7177-0.39681-0.282-0.78124-0.75601-0.38731-1.2171 0.37685-0.4416 1.1776-0.58922 1.7072-0.72647 1.4672-0.38012 2.9701-0.6388 4.4501-0.96607 1.0918-0.24104 2.58-0.51202 3.3012-1.4729 0.80886-1.078 0.12192-2.6351-0.51872-3.6046-0.42395-0.64168-0.87697-1.2633-1.3743-1.8501-0.18052-0.21341-0.36256-0.29916-0.61645-0.17341-0.25525 0.12623-0.49254 0.27345-0.7588 0.38299-0.72982 0.30012-1.5 0.50491-2.2655 0.69022-0.64256 0.15577-1.2905 0.29158-1.9397 0.41637" fill="#de0000" fill-rule="evenodd"/>
 <g id="g4609" transform="translate(-.78237 .013664)" fill="#fff" fill-rule="evenodd">
  <path id="Fill-4" transform="translate(-9,-12)" d="m62.516 31.756v-10.952h-4.1634v-1.7194h10.498v1.7194h-4.1634v10.952z"/>
  <path id="Fill-6" d="m62.766 12.026c-1.243 0-1.9729 0.73589-2.1901 2.2082h4.1816c-0.02467-0.6396-0.20232-1.1676-0.53405-1.584-0.33214-0.41637-0.8178-0.62427-1.4574-0.62427m0.07258-1.5026c0.7117 0 1.3244 0.13868 1.837 0.41637 0.51266 0.27776 0.9323 0.64894 1.2584 1.1132 0.32567 0.46475 0.56104 1.0015 0.70571 1.6109 0.14515 0.60934 0.19912 1.2523 0.16287 1.9277h-6.281c0.04838 0.90523 0.25357 1.5872 0.61541 2.0454 0.3624 0.45868 0.90483 0.68798 1.6291 0.68798 0.50659 0 0.93222-0.12647 1.276-0.37996 0.34419-0.25357 0.54611-0.61549 0.60663-1.0863h2.0092c-0.04798 0.45868-0.181 0.87505-0.39824 1.2491-0.21724 0.37397-0.4978 0.69677-0.84152 0.96854-0.34427 0.27114-0.74252 0.4828-1.1947 0.63353-0.45261 0.15074-0.93222 0.22611-1.4393 0.22611-0.65174 0-1.2402-0.11162-1.7649-0.33493-0.52479-0.22284-0.97134-0.53964-1.3398-0.95034-0.36798-0.4099-0.65126-0.9077-0.85038-1.4933-0.19912-0.58523-0.2986-1.2337-0.2986-1.9459 0-0.69956 0.09948-1.3364 0.2986-1.9095 0.19912-0.57309 0.4824-1.0648 0.85038-1.4751 0.36846-0.4103 0.8178-0.73038 1.3491-0.95968 0.53078-0.22882 1.1341-0.34379 1.8101-0.34379"/>
  <path id="Fill-8" transform="translate(-9,-12)" d="m77.758 31.756h2.0092v-12.671h-2.0092z"/>
  <path id="Fill-10" d="m76.957 12.026c-1.243 0-1.9733 0.73589-2.1901 2.2082h4.1811c-0.02419-0.6396-0.20184-1.1676-0.53397-1.584-0.33174-0.41637-0.8174-0.62427-1.457-0.62427m0.07258-1.5026c0.71178 0 1.3239 0.13868 1.8375 0.41637 0.51258 0.27776 0.93222 0.64894 1.2579 1.1132 0.32559 0.46475 0.56096 1.0015 0.70611 1.6109 0.14427 0.60934 0.19912 1.2523 0.16287 1.9277h-6.2815c0.04791 0.90523 0.25357 1.5872 0.61549 2.0454 0.36184 0.45868 0.90523 0.68798 1.6291 0.68798 0.50707 0 0.93222-0.12647 1.2765-0.37996 0.34379-0.25357 0.54563-0.61549 0.60615-1.0863h2.0092c-0.04838 0.45868-0.181 0.87505-0.39824 1.2491-0.21724 0.37397-0.49772 0.69677-0.84152 0.96854-0.34379 0.27114-0.74196 0.4828-1.195 0.63353-0.45222 0.15074-0.9323 0.22611-1.4389 0.22611-0.65174 0-1.2397-0.11162-1.7649-0.33493-0.52527-0.22284-0.97182-0.53964-1.3393-0.95034-0.36846-0.4099-0.65174-0.9077-0.85086-1.4933-0.19904-0.58523-0.29908-1.2337-0.29908-1.9459 0-0.69956 0.10004-1.3364 0.29908-1.9095 0.19912-0.57309 0.4824-1.0648 0.85086-1.4751 0.3675-0.4103 0.81733-0.73038 1.3481-0.95968 0.53126-0.22882 1.1341-0.34379 1.8105-0.34379"/>
  <path id="Fill-11" d="m83.745 10.705 1.9734 5.901c0.07249 0.21717 0.13581 0.46794 0.18978 0.75122 0.05437 0.28383 0.09349 0.52798 0.1176 0.73309 0.03633-0.20511 0.08423-0.44599 0.14475-0.72375 0.06044-0.27768 0.12703-0.53126 0.19904-0.76056l2.0459-5.901h1.9911l-3.2042 9.0508h-2.4255l-3.1494-9.0508z"/>
  <path id="Fill-12" d="m91.782 19.756h2.0096v-9.0508h-2.0096zm-0.0176-10.39h2.0454v-1.7924h-2.0454z"/>
  <path id="Fill-13" transform="translate(-9,-12)" d="m111.93 30.199v1.5566h-7.3309v-1.5566l4.8514-5.9553h-4.5979v-1.5389h6.9508v1.5389l-4.8509 5.9553z"/>
  <path id="Fill-14" d="m108.34 12.026c-1.243 0-1.9729 0.73589-2.1901 2.2082h4.1816c-0.0246-0.6396-0.20232-1.1676-0.53398-1.584-0.33165-0.41637-0.81732-0.62427-1.4575-0.62427m0.0726-1.5026c0.71178 0 1.3244 0.13868 1.8375 0.41637 0.51265 0.27776 0.93229 0.64894 1.2579 1.1132 0.32567 0.46475 0.56104 1.0015 0.70611 1.6109 0.14475 0.60934 0.1992 1.2523 0.16287 1.9277h-6.281c0.0478 0.90523 0.25301 1.5872 0.61493 2.0454 0.36239 0.45868 0.90531 0.68798 1.6291 0.68798 0.50714 0 0.93229-0.12647 1.2765-0.37996 0.34427-0.25357 0.54618-0.61549 0.60662-1.0863h2.0087c-0.0479 0.45868-0.18052 0.87505-0.39817 1.2491-0.21685 0.37397-0.4978 0.69677-0.84104 0.96854-0.34435 0.27114-0.74251 0.4828-1.1951 0.63353-0.45261 0.15074-0.93229 0.22611-1.4389 0.22611-0.65221 0-1.2402-0.11162-1.7649-0.33493-0.52519-0.22284-0.97182-0.53964-1.3397-0.95034-0.36854-0.4099-0.65134-0.9077-0.85046-1.4933-0.19904-0.58523-0.29908-1.2337-0.29908-1.9459 0-0.69956 0.10004-1.3364 0.29908-1.9095 0.19912-0.57309 0.48192-1.0648 0.85046-1.4751 0.3679-0.4103 0.8178-0.73038 1.3485-0.95968 0.53086-0.22882 1.1341-0.34379 1.8101-0.34379"/>
  <path id="Fill-15" d="m123.03 6.9032c0.74802 0 1.418 0.09397 2.0092 0.28104 0.59122 0.18699 1.0951 0.44327 1.5115 0.76886 0.41628 0.32615 0.74523 0.71505 0.98658 1.1677 0.24104 0.45262 0.38611 0.94435 0.43457 1.4756h-2.2628c-0.0362-0.28982-0.1089-0.55218-0.21725-0.78754-0.10882-0.23545-0.26882-0.44056-0.4796-0.61549-0.21165-0.17493-0.48287-0.31074-0.81453-0.4075-0.33213-0.09629-0.73972-0.14467-1.2221-0.14467-0.47074 0-0.86611 0.05166-1.1857 0.15401-0.3196 0.10236-0.57916 0.23816-0.77829 0.40703-0.19904 0.16934-0.34099 0.36232-0.42562 0.57916-0.0842 0.21725-0.12655 0.44703-0.12655 0.68798 0 0.32607 0.0605 0.5913 0.1814 0.79641 0.12 0.20559 0.29828 0.37725 0.53365 0.51593 0.23529 0.13908 0.52191 0.2475 0.86004 0.32607 0.3378 0.07864 0.71776 0.14188 1.1402 0.18978 0.71177 0.07258 1.3668 0.18754 1.9641 0.34427 0.59729 0.15673 1.1099 0.37725 1.5388 0.66052 0.42795 0.28383 0.76288 0.63641 1.0044 1.0588 0.24136 0.42283 0.36184 0.93541 0.36184 1.5388 0 0.57916-0.11162 1.1131-0.33445 1.6017-0.22371 0.48886-0.55218 0.91457-0.98667 1.2764-0.43441 0.36192-0.96854 0.64575-1.6021 0.85086-0.63362 0.20471-1.3607 0.30754-2.1813 0.30754-0.7485 0-1.424-0.09357-2.0272-0.28056-0.60343-0.18707-1.1161-0.44615-1.5384-0.77828-0.42291-0.33166-0.75729-0.72423-1.0048-1.1769-0.2475-0.45214-0.39545-0.94387-0.44375-1.4751h2.2626c0.0605 0.56758 0.30803 1.0411 0.74244 1.4212 0.43457 0.38012 1.1281 0.5699 2.0818 0.5699 0.47082 0 0.8717-0.05397 1.2039-0.1628 0.33165-0.10842 0.60614-0.25309 0.82339-0.43457 0.21724-0.18092 0.37405-0.39162 0.47082-0.63353 0.0963-0.24096 0.14459-0.49453 0.14459-0.76016 0-0.34986-0.0665-0.63968-0.19904-0.86898-0.1331-0.22882-0.32567-0.41629-0.57916-0.56096-0.25358-0.14467-0.56432-0.25916-0.9323-0.34387-0.36838-0.08407-0.78755-0.15673-1.2584-0.21716-0.72376-0.08423-1.3695-0.20838-1.9365-0.37126-0.56759-0.16279-1.0472-0.38004-1.4389-0.65174-0.39258-0.27114-0.69126-0.61541-0.89637-1.0318-0.20519-0.41637-0.30746-0.92567-0.30746-1.5295 0-0.50667 0.10227-0.98619 0.30746-1.4389 0.20511-0.45262 0.51593-0.85086 0.93221-1.1946 0.41637-0.34427 0.92903-0.61549 1.5388-0.81453 0.60894-0.1996 1.324-0.29916 2.145-0.29916"/>
  <path id="Fill-16" d="m133.85 12.026c-1.243 0-1.9728 0.73589-2.1901 2.2082h4.1811c-0.0241-0.6396-0.20183-1.1676-0.53349-1.584-0.33214-0.41637-0.81781-0.62427-1.4575-0.62427m0.0726-1.5026c0.7117 0 1.3239 0.13868 1.837 0.41637 0.51314 0.27776 0.93222 0.64894 1.2584 1.1132 0.32559 0.46475 0.56096 1.0015 0.70571 1.6109 0.14507 0.60934 0.19904 1.2523 0.16327 1.9277h-6.2815c0.0479 0.90523 0.25358 1.5872 0.61549 2.0454 0.36192 0.45868 0.90523 0.68798 1.6291 0.68798 0.50707 0 0.9323-0.12647 1.276-0.37996 0.34427-0.25357 0.54611-0.61549 0.60663-1.0863h2.0091c-0.0483 0.45868-0.18084 0.87505-0.39816 1.2491-0.21725 0.37397-0.49781 0.69677-0.84152 0.96854-0.34427 0.27114-0.74244 0.4828-1.1946 0.63353-0.4527 0.15074-0.9323 0.22611-1.4393 0.22611-0.65182 0-1.2398-0.11162-1.765-0.33493-0.52471-0.22284-0.97126-0.53964-1.3392-0.95034-0.36847-0.4099-0.65174-0.9077-0.85086-1.4933-0.19912-0.58523-0.2986-1.2337-0.2986-1.9459 0-0.69956 0.0995-1.3364 0.2986-1.9095 0.19912-0.57309 0.48239-1.0648 0.85086-1.4751 0.36798-0.4103 0.81732-0.73038 1.3486-0.95968 0.53078-0.22882 1.1341-0.34379 1.8101-0.34379"/>
  <path id="Fill-17" transform="translate(-9,-12)" d="m155.39 30.199v1.5566h-7.3313v-1.5566l4.8515-5.9553h-4.5979v-1.5389h6.9508v1.5389l-4.8509 5.9553z"/>
  <path id="Fill-18" d="m150.21 10.705v1.5388c0.24143-0.50707 0.58195-0.92008 1.0225-1.2402 0.44048-0.3196 1.0229-0.47968 1.7468-0.47968 0.92934 0 1.6444 0.28383 2.1454 0.85086 0.50051 0.5671 0.75081 1.364 0.75081 2.3892v5.9917h-2.0273v-5.5935c0-0.61549-0.10834-1.0862-0.32567-1.4119-0.21717-0.32559-0.61541-0.48886-1.1946-0.48886-0.28982 0-0.56152 0.05158-0.81453 0.15393-0.25357 0.10284-0.47729 0.25685-0.66986 0.46148-0.19306 0.20559-0.34707 0.47082-0.46148 0.79689-0.11489 0.32559-0.17213 0.71218-0.17213 1.1583v4.9236h-2.0092v-9.0508z"/>
  <path id="Fill-19" d="m162.78 15.538c-0.91736 0-1.6114 0.12048-2.0817 0.36192-0.47082 0.24144-0.70619 0.64567-0.70619 1.2128 0 0.39816 0.11768 0.70571 0.35305 0.92288 0.23537 0.21724 0.56376 0.32615 0.98667 0.32615 0.31353 0 0.60894-0.04838 0.88671-0.14515 0.27768-0.09629 0.51864-0.24096 0.72423-0.43409 0.20511-0.19305 0.36798-0.42236 0.48846-0.68798 0.12048-0.26515 0.18148-0.57309 0.18148-0.92335v-0.61541c-0.1331-0.01174-0.2689-0.01772-0.40759-0.01772zm-0.65173-5.0143c0.66339 0 1.2216 0.07258 1.6742 0.21725 0.45261 0.14467 0.81174 0.34707 1.0769 0.60615 0.26562 0.26004 0.4554 0.56431 0.57029 0.91409 0.1145 0.35026 0.17214 0.7303 0.17214 1.1407v6.3535h-2.0091v-1.5566c-0.25357 0.55497-0.61549 0.9774-1.0863 1.2667-0.47074 0.28982-1.0862 0.43449-1.8463 0.43449-0.85684 0-1.5295-0.22284-2.0184-0.66938-0.48846-0.44663-0.73317-1.0499-0.73317-1.8105 0-1.0253 0.37732-1.8161 1.1313-2.3711 0.75418-0.55497 1.9761-0.83266 3.6657-0.83266 0.14475 0 0.29549 0.0032 0.45262 0.0089 0.1568 0.0065 0.30147 0.01533 0.43457 0.02738v-0.85078c0-0.42244-0.11218-0.75736-0.33501-1.0049-0.22371-0.24703-0.6428-0.3707-1.2583-0.3707-0.61541 0-1.089 0.12655-1.4207 0.38004-0.33214 0.25301-0.50986 0.60942-0.53406 1.068h-1.8826c0.0726-0.92942 0.44335-1.6533 1.1132-2.1724 0.66986-0.51872 1.6137-0.77828 2.833-0.77828z"/>
  <path id="Fill-20" d="m170.21 10.705v1.5928c0.24136-0.54291 0.59122-0.97405 1.0499-1.2941 0.45828-0.3196 1.0318-0.47968 1.7194-0.47968 0.67593 0 1.2188 0.19305 1.6296 0.57924 0.40982 0.38659 0.68144 0.88711 0.81453 1.5025 0.31354-0.72431 0.73589-1.2518 1.2667-1.584 0.53118-0.33174 1.1104-0.4978 1.738-0.4978 0.8927 0 1.5774 0.28383 2.0543 0.85086 0.47681 0.5671 0.71497 1.364 0.71497 2.3892v5.9917h-2.0092v-5.5572c0-0.61541-0.11161-1.0917-0.33493-1.4299-0.22323-0.3378-0.60614-0.50707-1.1495-0.50707-0.25309 0-0.49772 0.04838-0.73261 0.14507-0.23545 0.09677-0.44711 0.24431-0.6337 0.44335-0.18746 0.19912-0.33812 0.46148-0.45261 0.78754-0.11481 0.32567-0.17812 0.71226-0.19026 1.1584v4.9598h-2.0092v-5.5572c0-0.61541-0.11162-1.0917-0.33485-1.4299-0.22331-0.3378-0.60064-0.50707-1.1314-0.50707-0.25349 0-0.50092 0.04838-0.74195 0.14507-0.24136 0.09677-0.45589 0.2503-0.64288 0.46148-0.18699 0.21126-0.33772 0.48287-0.45221 0.81453-0.11481 0.33222-0.17206 0.73317-0.17206 1.204v4.8691h-2.0092v-9.0508z"/>
 </g>
</svg>
