<svg width="600pt" height="248.08pt" version="1.1" viewBox="0 0 600 248.08" xmlns="http://www.w3.org/2000/svg">
 <g transform="matrix(1.3823 0 0 1.3823 -52.826 -229.21)">
  <path d="m38.215 165.84h125.98l41.195 94.335 41.195-94.335c17.8 0.54 35.98-1.585 53.42 3.025 37.778 11.089 65.37 38.313 65.37 86.825 0 57.046-42.599 89.58-96.115 89.58v-35.815c40.455 0 59.948-21.194 60.206-53.765 0-35.747-26.406-54.062-60.421-54.062l-63.655 143.64-63.345-143.64h-22.77v143.64h-35.995v-143.64h-45.07z" fill="#040605"/>
 </g>
 <g transform="matrix(1.3823 0 0 1.3823 -52.826 -229.21)">
  <path d="m369.24 260.22 54.73-94.375h41.64l-53.6 94.375 60.25 85.055h-43.92z" fill="#b71e23"/>
 </g>
</svg>
