<svg id="e" width="136.29mm" height="81.756mm" version="1.1" viewBox="0 0 136.29 81.756" xmlns="http://www.w3.org/2000/svg">
 <defs id="f">
  <linearGradient id="d" x1="123.69" x2="123.69" y1="230.16" y2=".058942" gradientTransform="matrix(.35278 0 0 .35278 -85.156 107.96)" gradientUnits="userSpaceOnUse">
   <stop id="g" stop-color="#ce1619" offset="0"/>
   <stop id="h" stop-color="#e72f3f" offset="1"/>
  </linearGradient>
  <linearGradient id="c" x1="346.19" x2="346.19" y1="230.09" y2="-.008654" gradientTransform="matrix(.35278 0 0 .35278 -85.156 107.96)" gradientUnits="userSpaceOnUse">
   <stop id="i" stop-color="#fecc00" offset="0"/>
   <stop id="j" stop-color="#ffde00" offset="1"/>
  </linearGradient>
 </defs>
 <g id="k" transform="translate(85.156 -107.96)">
  <path id="l" d="m-23.039 107.96h52.845c0 20.122 10.786 41.4 10.786 61.522l-10.786 20.234h-52.845z" fill="#fff" stroke-width=".26458"/>
  <path id="m" d="m-78.503 109.88c2.1837-1.3829 4.8013-1.8662 7.3519-1.9262l63.193-9e-5c-3.0586 3.3126-6.3782 6.4312-9.5074 9.6803-3.3126 3.5525-5.0906 8.4878-4.7978 13.339 0.28575 4.4697 2.2684 8.823 5.5033 11.931 5.147 4.6179 10.358 9.1616 15.501 13.78 1.4923 1.3264 3.0798 2.5753 4.3533 4.124 3.2879 4.0852 2.9069 10.619-0.84314 14.288-4.7131 4.6919-9.4121 9.4015-14.118 14.104l-0.48314 0.51153-59.22-9e-5c-1.586 0-3.1536-0.1645-4.644-0.77955-5.2317-1.8732-9.1158-7.1826-8.9359-12.792-0.01058-18.217 0.0035-36.438 0.02117-54.656-0.11289-4.7025 2.6211-9.2216 6.6252-11.603" fill="url(#d)" stroke-width=".35278"/>
  <path id="n" d="m27.82 108.6 0.61329-0.6492h8.5035c2.137-3e-5 4.2462 0.28151 6.2361 1.1643 4.5544 2.1272 8.0116 6.8545 7.9587 11.984 0.0106 18.574 4e-3 37.151 0 55.728 0.0494 3.6618-1.9438 7.0062-4.4838 9.5038-1.3547 1.1783-2.9774 2.0285-4.6426 2.6811-1.3885 0.52249-2.8362 0.69488-4.2981 0.69488h-13.635l1.3492-1.4862c0.64792-0.71372 1.349-1.3892 2.0076-2.0626 1.8168-1.8274 3.6512-3.6407 5.4751-5.4645 4.0393-4.0852 6.1877-10.121 5.1506-15.826-0.64558-4.1628-2.8822-7.9975-6.0149-10.784-5.909-5.1435-11.688-10.432-17.618-15.547-1.7392-1.5487-3.0021-3.6548-3.5031-5.9302-0.26811-2.3566-0.34925-4.8895 0.75847-7.0591 1.0478-2.219 3.0021-3.7747 4.6778-5.4963 3.8135-3.8241 7.6482-7.6306 11.465-11.451z" fill="url(#c)" stroke-width=".35278"/>
  <path id="o" d="m-73.434 136.44c1.4922-1.0125 3.3373-1.2841 5.1047-1.2982 9.1758 7e-3 18.351 7e-3 27.527 0 1.5558 0.0106 3.1715 0.30339 4.4591 1.2347 1.4288 1.0125 2.3213 2.6211 2.861 4.258 1.8627 6.1807 3.6865 12.372 5.6092 18.535 1.8168-5.3587 3.4008-10.799 5.1435-16.185 3.0692 3.7253 6.9391 6.6499 10.467 9.9131 0.28928 0.254 0.34572 0.55739 0.1658 0.91016-2.7446 7.3695-5.4046 14.771-8.1421 22.14-0.78669 2.3354-2.8504 4.1063-5.2917 4.4838-2.7093 0.35278-5.7573 0.41275-8.0786-1.2594-1.5311-1.1042-2.2225-2.9351-2.8152-4.6531-2.8892-8.1421-5.8067-16.277-8.6889-24.423-0.27517-0.79022-0.71967-1.6016-1.5064-1.972-1.4146-0.26458-2.8681-0.0811-4.2968-0.11641 0.01058 8.5549-0.0071 17.11-0.0035 25.665 0.0141 1.7145-0.59972 3.4325-1.7357 4.7202-2.7199 3.0092-8.128 3.0233-10.756-0.11642-0.93133-1.0795-1.5699-2.4624-1.584-3.9052-0.06703-8.7948 0.07408-17.593-0.08114-26.388-2.5647-7e-3 -5.3128 0.27517-7.6729-0.93486-2.0285-0.99836-3.4572-3.1997-3.2879-5.4892-0.14817-2.025 0.91722-4.0217 2.6035-5.1188z" fill="#fff" stroke-width=".35278"/>
 </g>
</svg>
