<svg height="572.16101pt" viewBox="0 0 786.79114 572.16101" width="786.79114pt" xmlns="http://www.w3.org/2000/svg"><g transform="translate(-105.90922 -63.885756)"><path d="m390.41 92.68c36.43-15.13 75.09-25.46 114.53-28.16 39.2-2.58 79.8 2.42 115.15 20.38 31.59 15.79 57.58 42.59 71.82 74.96 16.62 37.22 18.42 79.55 11.49 119.28-4.12 24.51-11.95 48.22-21.15 71.24-8.07 19.62-18.05 38.46-29.77 56.15-6.9 11.04-14.31 21.76-22.19 32.13l-7.95-7.93c12.22-18.36 23.22-37.59 31.9-57.89l.18-.22c3.72-6.76 5.92-14.29 8.68-21.49 14.15-40.88 19.77-85.56 10.64-128.17-7.23-34.39-25.36-66.62-52.06-89.62-23.95-21.01-54.29-33.95-85.57-39.09-30.59-5.15-62.04-3.42-92.36 2.73-30.73 6.32-60.42 17.24-88.37 31.41-4.67 2.45-9.45 4.73-13.81 7.7-61.53 35.03-115.14 84.71-152.58 144.98-27.27 44.39-46.08 95.47-45.79 148.07-.66 41.71 14.38 84 43.19 114.47 2.13 2.28 4.3 4.54 6.52 6.74 8.05 6.54 16.02 13.33 24.86 18.85 9.21 5.92 19.03 10.87 29.18 14.97l-20.26 30.33c-19.1-6.3-37.44-15.32-53.29-27.79-26.29-20.35-45.18-49.65-53.85-81.67-4.5-16.52-6.86-33.66-6.79-50.78.23-31.9 6.21-63.6 16.77-93.67 21.8-62.03 60.11-117.39 106.6-163.52 20.07-19.78 41.72-37.97 64.75-54.22 3.79-2.67 7.7-5.17 11.3-8.1 24.57-16.59 50.89-30.6 78.23-42.07z" fill="#f07d00"/><path d="m574.25 408.88c27.17 27.19 54.42 54.33 81.53 81.59-27.17.08-54.34 0-81.52.04-.03-27.21 0-54.42-.01-81.63z" fill="#f07d00"/></g><g fill="#dadada" transform="translate(-105.90922 -63.885756)"><path d="m443.75 96.98c30.32-6.15 61.77-7.88 92.36-2.73 31.28 5.14 61.62 18.08 85.57 39.09 26.7 23 44.83 55.23 52.06 89.62 9.13 42.61 3.51 87.29-10.64 128.17-2.76 7.2-4.96 14.73-8.68 21.49-.11.04-.32.14-.43.18 8.63-20.11 13.81-41.67 16.18-63.4 4.23-40.24-3.81-82.8-27.4-116.23-21.49-30.91-54.51-52.31-89.84-64.21-49.08-16.52-102.36-17.15-152.98-8.03-19.81 3.58-39.33 8.68-58.38 15.16 4.36-2.97 9.14-5.25 13.81-7.7 27.95-14.17 57.64-25.09 88.37-31.41z"/><path d="m199.83 213.84c32.96-32.09 71.15-58.7 112.35-79.09-3.6 2.93-7.51 5.43-11.3 8.1-23.03 16.25-44.68 34.44-64.75 54.22-46.49 46.13-84.8 101.49-106.6 163.52-10.56 30.07-16.54 61.77-16.77 93.67-5.33-17.2-7.29-35.31-6.77-53.27.99-35.31 12.14-69.7 28.45-100.8 16.92-32.1 39.58-60.95 65.39-86.35z"/><path d="m143.2 429.14c4.64 24.79 17.6 47.58 34.98 65.67 25.51 26.69 59.29 44.17 94.34 54.77 84.31 24.92 178.6 12.76 254.28-31.81 11.89-6.96 23.29-14.73 34.2-23.13l-.08 7.9c-31.19 23-65.38 42.03-101.7 55.63-40.91 15.4-84.43 24.23-128.19 24.69-43.32.49-87.29-7.27-126.42-26.36-3.57-1.68-6.92-3.82-10.63-5.15-.27-.25-.8-.75-1.07-1-2.22-2.2-4.39-4.46-6.52-6.74-28.81-30.47-43.85-72.76-43.19-114.47z"/></g><g fill="#312783"><path d="m157.47078 177.52424 84.97-5.06-9.83 37.41 67.35.01-8.69 33.23h-67.24l-20.12 78.05c-1.27 5.58-3.76 11.38-2.05 17.13 1.83 5.59 8.14 7.4 13.36 8.04 9.59 1.09 19.29.28 28.92.54 10.78.34 21.54-1.56 31.65-5.27l-9.88 38.51h-80.84c-12.03.07-24.18-.06-35.99-2.58-19.78-3.75-33.75-24.71-31.18-44.38.64-5.83 2.33-11.47 3.79-17.13l18.96-72.91h-35.06l8.56-33.26 34.99.01z"/><path d="m312.95078 209.87424h94.51c-6.97 14-5.17 30.16-3.2 45.11 3.91 30.61 7.76 61.23 11.72 91.84 25.12-37.86 50.3-75.69 75.29-113.64 4.35-7.04 7.12-15.05 7.83-23.31l50.84-.01c-5.52 5.22-10.31 11.15-14.63 17.4-34.29 50.99-68.71 101.9-103.06 152.85h-91.33c-6.53-45.84-13.04-91.68-19.56-137.52-1.64-11.15-3.77-22.38-8.41-32.72z"/><path d="m615.98078 209.87424 78.16-.01c-.64 9.31-.52 18.67-1.74 27.93 4.69-8.02 9.72-16.37 17.71-21.52 8.31-5.15 18.39-6.12 27.96-6.4 16.23-.01 32.46-.03 48.7.01l-14.5 55.97c-3.46-2.72-7.29-5.03-11.54-6.25-11.21-3.65-23.12-2.2-34.69-2.49-8.33.3-17.01-1.06-25 1.94-5.23 1.98-8.03 7.36-9.39 12.47-6.47 24.93-12.91 49.88-19.38 74.82-3 10.91-4.52 22.81-.87 33.77l-98.19-.01c6.09-8.91 11.13-18.6 14.06-29.04 4.41-15.16 8.03-30.53 12.1-45.79l16.65-64.26c2.47-10.16 3.62-21.11-.04-31.14z"/><path d="m385.06078 528.11424h10.51l-6.48 10.26-8.51-.02z"/><path d="m269.33078 530.11424c5.5 0 11.01-.01 16.51.01-.01 11.67.02 23.34-.02 35.02-.1 2.39.56 4.72 1.29 6.98-5.93-.02-11.86-.01-17.79-.01.7-2.29 1.36-4.63 1.29-7.05-.03-9.33-.03-18.66 0-27.99.05-2.39-.62-4.7-1.28-6.96z"/><path d="m441.59078 530.11424c5.08 0 10.17-.01 15.26 0-.01 2.75-.01 5.49-.01 8.24-5.08.01-10.17.01-15.25.01 0-2.76 0-5.51 0-8.25z"/><path d="m640.41078 530.09424c5.55.03 11.11.01 16.68.02v29c .04 4.35-.47 8.84 1.08 13.01-4.8-.02-9.6-.01-14.39-.01-.13-.55-.37-1.65-.5-2.21-3.04 2.83-7.4 2.1-11.19 2.24-3.74-.09-7.59.24-11.2-.87-2.86-1.04-4.6-4.13-4.52-7.1-.06-5.39-.1-10.78.02-16.17.02-3.51 3-6.71 6.54-6.82 4.74-.17 9.5-.1 14.25-.04 1.7-.13 3.07.96 4.51 1.71-.21-4.27.4-8.7-1.28-12.76m-7.17 17.23c-3.08 1.78-1.12 6.67-1.67 9.73.51 2.8-1.59 8.28 2.54 8.77 2.37-.22 6.24 1.24 7.36-1.68.19-5.33.32-10.69-.1-16-2.27-1.8-5.48-1-8.13-.82z"/><path d="m192.34078 534.65424 15.27-.54-.02 7h12.75v6h-12.75c.16 5.63-.52629 11.32236.24 16.92.0598.43695.55835 1.36298.98 1.46 4.35303 1.00166 9.25.87 13.39-1.07-.4 2.56-.8 5.12-1.18 7.69-7.28-.15-14.6.37-21.86-.42-3.39-.39-6.29-3.17-6.6-6.6-.51-5.98-.09-11.99-.22-17.97l-4.75-.01v-6h4.75z"/><path d="m227.42078 543.43424c2.57-2.49 6.38-2.4 9.71-2.35 7.02.15 14.04-.16 21.05.13 3.33.03 6.31 2.57 6.95 5.82.79 4.14.38 8.39.45 12.58-8.51-.02-17.02.04-25.52-.04.33 1.99-.58 5.35 1.98 6.1 3.01.39 6.06.14 9.09.19 4.66-.12 9.5.62 13.93-1.25-.41 2.49-.79 4.99-1.17 7.5-8.91-.02-17.82.02-26.74-.01-3.47-.17-7.7.08-10.1-2.96-2.78-3.74-2.1-8.7-2.24-13.07.12-4.26-.56-9.26 2.61-12.64m13.37 3.79c-1.07336 0-.84 4.12583-.84 6.38 3.48.01 6.96.01 10.44 0 0-1.93662.30603-6.38-1.31-6.38z"/><path d="m332.51078 541.10424c6.12.02 12.23 0 18.35.01.38171 2.01871.83805 4.0233 1.63848 5.90248l7.00152 16.43752c1.93976-5.67532 4.97039-11.03486 6.81229-16.73989.58894-1.82417 1.05636-3.68392 1.32771-5.60036 2.78 0 5.57.01 8.36 0-5.07 10.03-8.77 20.66025-13.15 31.00025h-16.66c-4.62-10.31-8.56-20.94-13.68-31.01z"/><path d="m377.01078 541.10424c5.44.02 10.88 0 16.33.01.01 7.65-.02 15.3-.01 22.95-.05 2.74.45 5.46 1.31 8.07-5.92-.03-11.83-.03-17.74-.01 1.97-5.1.97-10.64 1.19-15.95-.17-5.03.67-10.23-1.08-15.07z"/><path d="m398.13078 541.11424h39.87c-5.89 8.27-11.83 16.5-17.76 24.75 6.12-.32 12.57 1.02 18.36-1.54-.46 2.58-.85 5.19-1.23 7.79-13.65-.02-27.31.02-40.96-.02 6.05-8.38 12.28-16.61 18.34-24.97-5.93.15-12.1-.77-17.75 1.52.39-2.51.75-5.03 1.13-7.53z"/><path d="m440.45078 541.10424c5.46.02 10.93 0 16.39.01 0 6.66 0 13.31-.01 19.97 0 3.71.13 7.48 1.3 11.04-5.91-.02-11.82-.02-17.72.01.6-1.95 1.27-3.93 1.2-5.99-.01-6.35-.03-12.71 0-19.06.1-2.08-.55-4.05-1.16-5.98z"/><path d="m464.89078 541.11424c10.09.03 20.17-.06 30.26.03 3.65-.27 6.97 2.56 7.99 5.93 1.6 8.26-1.13 17 1.64 25.06-5.09-.15-10.2.22-15.27-.18-.18-.55-.53-1.66-.7-2.21-1.31 1.14-2.74 2.32-4.59 2.23-4.74.26-9.51.24-14.25-.01-3.37-.12-7.15-2.25-7.37-5.95-.33-3.85-.82-8.01.67-11.67 1.65-3.2 5.63-3.36 8.78-3.26 5.46-.22 11.07.72 16.42-.75-.22734-.98515-.57362-2.08583-1.25275-2.72959-.4859-.46059-1.09152-.47041-2.04725-.47041l-13.39475-.0842c-2.72598-.0171-5.41206.47936-8.01525 1.41423.38-2.45.75-4.9 1.13-7.35m13.49458 16.94317c-.22336.42225-.40716.90718-.54288 1.42429-.72004 2.74341-.0871 6.39254 3.1683 6.39254l4.60196.0416c.80468.007 1.52253-.45214 2.11804-1.06158.73-2.51.57-5.15.66-7.73l-7.38817.0252c-.95657 0-2.23947.25358-2.61725.90792z"/><path d="m537.44078 541.10424c5.05.02 10.1-.01 15.15.02-.04 1.26-.09 2.53-.13 3.8 1.37-1.38 2.58-3.28 4.66-3.59 3.72-.47 7.48-.15 11.22-.21 0 3.42-.02 6.83.02 10.26-3.73-1.95-8.21-2.4-12.22-1.17-2.39.95-2.38 3.77-2.32 5.94.19 5.33-.7 10.86 1.26 15.97-5.92-.02-11.84-.01-17.75-.01 1.88-5.14 1.14-10.65 1.26-16-.06-5.02.49-10.16-1.15-15.01z"/><path d="m661.91078 541.10424c5.47.02 10.95 0 16.43.01.15 7.57-.29 15.17.19 22.72.93 3.26 5.21 1.81 7.69 1.97 2.97.06 2.31-3.74 2.4-5.71-.46-6.32 1.01-12.9-1.17-18.99 5.46.02 10.93 0 16.39.02 0 7.33 0 14.66-.01 21.99-.05 3.05.39 6.09 1.31 9.01-4.72-.12-9.44.2-14.14-.14-.2-.43-.61-1.29-.82-1.71-1.51.95-3.14 1.84-4.98 1.77-5.08.11-10.18.26-15.24-.19-2.81-.18-5.67-1.98-6.4-4.8-1.58-8.57 1.03-17.56-1.65-25.95z"/><path d="m293.67078 543.43438c2.57-2.49 6.38-2.4 9.71-2.35 7.02.15 14.04-.16 21.05.13 3.33.03 6.31 2.57 6.95 5.82.79 4.14.38 8.39.45 12.58-8.51-.02-17.02.04-25.52-.04.33 1.99-.58 5.35 1.98 6.1 3.01.39 6.06.14 9.09.19 4.66-.12 9.5.62 13.93-1.25-.41 2.49-.79 4.99-1.17 7.5-8.91-.02-17.82.02-26.74-.01-3.47-.17-7.7.08-10.1-2.96-2.78-3.74-2.1-8.7-2.24-13.07.12-4.26-.56-9.26 2.61-12.64m13.37 3.79c-1.07336 0-.84 4.12583-.84 6.38 3.48.01 6.96.01 10.44 0 0-1.93662.30603-6.38-1.31-6.38z"/><path d="m573.91965 543.43438c2.57-2.49 6.38-2.4 9.71-2.35 7.02.15 14.04-.16 21.05.13 3.33.03 6.31 2.57 6.95 5.82.79 4.14.38 8.39.45 12.58-8.51-.02-17.02.04-25.52-.04.33 1.99-.58 5.35 1.98 6.1 3.01.39 6.06.14 9.09.19 4.66-.12 9.5.62 13.93-1.25-.41 2.49-.79 4.99-1.17 7.5-8.91-.02-17.82.02-26.74-.01-3.47-.17001-7.7.08-10.1-2.96001-2.78-3.73999-2.1-8.69999-2.24-13.06999.12-4.26-.56-9.26 2.61-12.64m13.37 3.79c-1.07336 0-.84 4.12583-.84 6.38 3.48.01 6.96.01 10.44 0 0-1.93662.30603-6.38-1.31-6.38z"/><path d="m746.90116 541.11457c10.09.03 20.17-.06 30.26.03 3.65-.27 6.97 2.56 7.99 5.93 1.6 8.26-1.13 17 1.64 25.06-5.09-.15-10.2.22-15.27-.18-.18-.55-.53-1.66-.7-2.21-1.31 1.14-2.74 2.32-4.59 2.23-4.74.26-9.51.24-14.25-.01-3.37-.12-7.15-2.25-7.37-5.95-.33-3.85-.82-8.01.67-11.67 1.65-3.2 5.63-3.36 8.78-3.26 5.46-.22 11.07.72 16.42-.75-.22734-.98515-.57362-2.08583-1.25275-2.72959-.4859-.46059-1.09152-.47041-2.04725-.47041l-13.39475-.0842c-2.72598-.0171-5.41206.47936-8.01525 1.41423.38-2.45.75-4.9 1.13-7.35m13.49458 16.94317c-.22336.42225-.40716.90718-.54288 1.42429-.72004 2.74341-.0871 6.39254 3.1683 6.39254l4.60196.0416c.80468.007 1.52253-.45214 2.11804-1.06158.73-2.51.57-5.15.66-7.73l-7.38817.0252c-.95657 0-2.23947.25358-2.61725.90792z"/><path d="m711.83328 534.65387 15.27-.54-.02 7h12.75v6h-12.75c.16 5.63-.52629 11.32236.24 16.92.0598.43695.55835 1.36298.98 1.46 4.35303 1.00166 9.25.87 13.39-1.07-.4 2.56-.8 5.12-1.18 7.69-7.28-.15-14.6.37-21.86-.42-3.39-.39-6.29-3.17-6.6-6.6-.51-5.98-.09-11.99-.22-17.97l-4.75-.01v-6h4.75z"/></g></svg>