<?xml version="1.0" encoding="UTF-8" standalone="no"?>
<!-- Created with Inkscape (http://www.inkscape.org/) -->

<svg
   xmlns:dc="http://purl.org/dc/elements/1.1/"
   xmlns:cc="http://creativecommons.org/ns#"
   xmlns:rdf="http://www.w3.org/1999/02/22-rdf-syntax-ns#"
   xmlns:svg="http://www.w3.org/2000/svg"
   xmlns="http://www.w3.org/2000/svg"
   xmlns:xlink="http://www.w3.org/1999/xlink"
   xmlns:sodipodi="http://sodipodi.sourceforge.net/DTD/sodipodi-0.dtd"
   xmlns:inkscape="http://www.inkscape.org/namespaces/inkscape"
   width="384.19659mm"
   height="196mm"
   viewBox="0 0 384.1966 196"
   version="1.1"
   id="svg43488"
   sodipodi:docname="Televizia Lux HD.svg"
   inkscape:version="0.92.0 r15299">
  <defs
     id="defs43482">
    <linearGradient
       inkscape:collect="always"
       id="linearGradient4703">
      <stop
         style="stop-color:#567b86;stop-opacity:1;"
         offset="0"
         id="stop4699" />
      <stop
         id="stop4711"
         offset="0.24881928"
         style="stop-color:#4e6769;stop-opacity:1" />
      <stop
         id="stop4709"
         offset="0.54569614"
         style="stop-color:#a5a8a8;stop-opacity:1" />
      <stop
         id="stop4707"
         offset="0.88939953"
         style="stop-color:#ffffff;stop-opacity:1" />
      <stop
         style="stop-color:#98aab0;stop-opacity:1"
         offset="1"
         id="stop4701" />
    </linearGradient>
    <linearGradient
       inkscape:collect="always"
       id="linearGradient4689">
      <stop
         style="stop-color:#61818b;stop-opacity:1;"
         offset="0"
         id="stop4685" />
      <stop
         id="stop4693"
         offset="0.23109166"
         style="stop-color:#5c7476;stop-opacity:1" />
      <stop
         style="stop-color:#c8cccf;stop-opacity:1"
         offset="0.80367231"
         id="stop4695" />
      <stop
         id="stop4697"
         offset="0.90044647"
         style="stop-color:#c8cccf;stop-opacity:1" />
      <stop
         style="stop-color:#718d96;stop-opacity:1"
         offset="1"
         id="stop4687" />
    </linearGradient>
    <clipPath
       clipPathUnits="userSpaceOnUse"
       id="clipPath22830">
      <path
         d="m 299.091,427.541 h 16.405 v 8.067 h -16.405 z"
         id="path22828"
         inkscape:connector-curvature="0" />
    </clipPath>
    <clipPath
       clipPathUnits="userSpaceOnUse"
       id="clipPath22678">
      <path
         d="m 299.091,427.541 h 16.405 v 8.067 h -16.405 z"
         id="path22676"
         inkscape:connector-curvature="0" />
    </clipPath>
    <linearGradient
       inkscape:collect="always"
       xlink:href="#linearGradient4689"
       id="linearGradient4691"
       x1="101.07409"
       y1="-24.697252"
       x2="101.07409"
       y2="-74.409386"
       gradientUnits="userSpaceOnUse" />
    <linearGradient
       inkscape:collect="always"
       xlink:href="#linearGradient4703"
       id="linearGradient4705"
       x1="100.27228"
       y1="-75.612114"
       x2="100.27228"
       y2="-23.093651"
       gradientUnits="userSpaceOnUse" />
  </defs>
  <sodipodi:namedview
     id="base"
     pagecolor="#ffffff"
     bordercolor="#666666"
     borderopacity="1.0"
     inkscape:pageopacity="0.0"
     inkscape:pageshadow="2"
     inkscape:zoom="0.35"
     inkscape:cx="58.766694"
     inkscape:cy="799.58905"
     inkscape:document-units="mm"
     inkscape:current-layer="layer1"
     showgrid="false"
     fit-margin-top="0"
     fit-margin-left="0"
     fit-margin-right="0"
     fit-margin-bottom="0"
     inkscape:window-width="1920"
     inkscape:window-height="1017"
     inkscape:window-x="-8"
     inkscape:window-y="-8"
     inkscape:window-maximized="1" />
  <metadata
     id="metadata43485">
    <rdf:RDF>
      <cc:Work
         rdf:about="">
        <dc:format>image/svg+xml</dc:format>
        <dc:type
           rdf:resource="http://purl.org/dc/dcmitype/StillImage" />
        <dc:title />
      </cc:Work>
    </rdf:RDF>
  </metadata>
  <g
     inkscape:label="Layer 1"
     inkscape:groupmode="layer"
     id="layer1"
     transform="translate(-74.213498,85.053451)">
    <path
       inkscape:connector-curvature="0"
       id="path22838-1"
       style="fill:url(#linearGradient4691);fill-opacity:1;fill-rule:nonzero;stroke:none;stroke-width:15.68739319"
       d="m 81.382618,-77.053267 h -0.0157 c 0,0 -0.17257,0.0157 -0.47063,0.0157 -0.15687,0.0157 -0.34512,0.0314 -0.54906,0.0627 -0.21962,0.0314 -0.45493,0.0784 -0.72162,0.14119 -0.51768,0.10981 -1.08243,0.36081 -1.66286,0.65887 -0.58043,0.31374 -1.14518,0.7373 -1.64718,1.22361 -0.4863,0.502 -0.90986,1.06674 -1.2393,1.64718 -0.29806,0.580431 -0.53337,1.160871 -0.64318,1.678551 -0.0784,0.251 -0.10981,0.48631 -0.14119,0.70593 -0.0314,0.20394 -0.0627,0.39219 -0.0627,0.54906 -0.0157,0.29806 -0.0157,0.48631 -0.0157,0.48631 v 0 21.74273 18.91899 0.0157 c 0,0 0,0.17256 0.0157,0.48631 0,0.15688 0.0314,0.32944 0.0627,0.54906 0.0314,0.20394 0.0628,0.45493 0.14119,0.70593 0.10981,0.51769 0.36081,1.08243 0.65887,1.67855 0.31375,0.56475 0.73731,1.1295 1.22361,1.63149 0.502,0.502 1.06675,0.90987 1.64718,1.23931 0.58043,0.29806 1.16087,0.53337 1.67855,0.64318 0.251,0.0784 0.48631,0.10981 0.70593,0.14119 0.20394,0.0471 0.39219,0.0627 0.54906,0.0627 0.29806,0.0157 0.48631,0.0157 0.48631,0.0157 v 0 h 26.260702 14.40103 0.0157 c 0,0 0.1255,0 0.34513,-0.0157 0.10981,0 0.25099,0 0.40786,-0.0157 0.14119,-0.0314 0.31376,-0.0471 0.502,-0.0784 0.753,-0.14119 1.72562,-0.47063 2.58842,-1.01968 0.84712,-0.53337 1.56874,-1.28637 1.9923,-1.91386 0.43924,-0.61181 0.64319,-1.08244 0.64319,-1.08244 0,0 0.34512,-0.70593 0.50199,-1.4903 0.0784,-0.3765 0.14119,-0.76868 0.15688,-1.05105 0.0157,-0.29806 0.0157,-0.48631 0.0157,-0.48631 v -0.0157 -0.0627 -37.44581 -3.15317 -0.0157 -0.32943 c -0.0157,-0.20394 -0.0471,-0.502 -0.0941,-0.86281 -0.1255,-0.70593 -0.40786,-1.63149 -0.90987,-2.447231 -0.48631,-0.81574 -1.14518,-1.52168 -1.70992,-1.96092 -0.28238,-0.21963 -0.53337,-0.39219 -0.72162,-0.48631 -0.17256,-0.10982 -0.28237,-0.17257 -0.28237,-0.17257 v -0.0157 c 0,0 -0.251,-0.15687 -0.81574,-0.37649 -0.54904,-0.21963 -1.42754,-0.502 -2.63546,-0.502 z"
       sodipodi:nodetypes="ccccccccccccccccccccccccccccccccccccccccccccccccccccsc" />
    <g
       id="g4638"
       transform="matrix(70.181359,0,0,70.181359,-5032.1945,-7671.7202)"
       style="fill:#ffffff;fill-opacity:1">
      <g
         id="g22672"
         transform="matrix(0.35277777,0,0,-0.35277777,-31.298994,261.7737)"
         style="fill:#ffffff;fill-opacity:1">
        <g
           clip-path="url(#clipPath22678)"
           id="g22674"
           style="fill:#ffffff;fill-opacity:1">
          <g
             transform="translate(302.166,435.2273)"
             id="g22680"
             style="fill:#ffffff;fill-opacity:1">
            <path
               inkscape:connector-curvature="0"
               id="path22682"
               style="fill:#ffffff;fill-opacity:1;fill-rule:nonzero;stroke:none"
               d="m 0,0 c 0.134,-0.03 -0.546,-1.378 -0.773,-2.166 -0.234,-0.813 -0.281,-1.453 0.042,-1.646 0.394,-0.235 0.991,-0.201 1.337,-0.185 0.238,0.011 0.441,0.018 0.597,0.025 0.096,0.004 0.187,0.013 0.242,0.014 0.043,0 0.075,0 0.096,-0.008 0.012,-0.003 0.023,-0.013 0.024,-0.025 0,-0.01 -0.003,-0.02 -0.008,-0.03 C 1.548,-4.035 1.531,-4.057 1.486,-4.085 1.25,-4.234 0.272,-4.581 -0.761,-4.674 -1.188,-4.713 -1.352,-4.719 -1.59,-4.695 c -0.357,0.035 -0.545,0.216 -0.565,0.517 -0.036,0.541 0.638,1.856 0.888,2.286 0.093,0.16 0.459,0.781 0.656,1.082 0.223,0.338 0.469,0.696 0.561,0.785 C -0.036,-0.012 -0.019,0.004 0,0" />
          </g>
          <g
             transform="translate(302.1157,435.202)"
             id="g22684"
             style="fill:#ffffff;fill-opacity:1">
            <path
               inkscape:connector-curvature="0"
               id="path22686"
               style="fill:#ffffff;fill-opacity:1;fill-rule:nonzero;stroke:none"
               d="m 0,0 c -0.092,-0.089 -0.337,-0.447 -0.56,-0.785 -0.198,-0.3 -0.563,-0.921 -0.657,-1.082 -0.25,-0.43 -0.924,-1.745 -0.888,-2.286 0.02,-0.301 0.208,-0.482 0.565,-0.517 0.238,-0.024 0.403,-0.017 0.829,0.021 1.034,0.093 2.012,0.44 2.248,0.589 0.045,0.028 0.061,0.05 0.07,0.065 0.006,0.009 0.008,0.019 0.008,0.029 0,0.012 -0.012,0.022 -0.024,0.026 C 1.57,-3.933 1.539,-3.933 1.496,-3.933 1.44,-3.933 1.35,-3.943 1.253,-3.947 1.097,-3.954 0.894,-3.961 0.657,-3.972 0.31,-3.987 -0.287,-4.021 -0.681,-3.787 -1.004,-3.594 -0.957,-2.954 -0.723,-2.14 -0.496,-1.352 0.184,-0.005 0.05,0.025 0.048,0.026 0.046,0.026 0.044,0.026 0.027,0.026 0.012,0.012 0,0" />
          </g>
          <g
             transform="translate(299.9595,435.6082)"
             id="g22688"
             style="fill:#ffffff;fill-opacity:1">
            <path
               inkscape:connector-curvature="0"
               id="path22690"
               style="fill:#ffffff;fill-opacity:1;fill-rule:nonzero;stroke:none"
               d="m 0,0 c -0.48,0 -0.869,-0.4 -0.869,-0.894 v -3.727 c 0,-0.494 0.389,-0.895 0.869,-0.895 h 3.666 c 0.48,0 0.869,0.401 0.869,0.895 v 3.727 C 4.535,-0.4 4.146,0 3.666,0 Z m -0.667,-4.474 v 3.422 c 0,0.504 0.327,0.861 0.834,0.861 H 3.52 c 0.507,0 0.825,-0.35 0.825,-0.854 v -3.476 c 0,-0.505 -0.365,-0.776 -0.872,-0.776 H 0.088 c -0.508,0 -0.755,0.319 -0.755,0.823" />
          </g>
          <g
             transform="translate(299.9595,435.6081)"
             id="g22692"
             style="fill:#ffffff;fill-opacity:1">
            <path
               inkscape:connector-curvature="0"
               id="path22694"
               style="fill:#ffffff;fill-opacity:1;fill-rule:nonzero;stroke:none"
               d="m 0,0 c -0.48,0 -0.869,-0.4 -0.869,-0.894 v -3.727 c 0,-0.494 0.389,-0.894 0.869,-0.894 h 3.666 c 0.48,0 0.869,0.4 0.869,0.894 v 3.727 C 4.535,-0.4 4.146,0 3.666,0 Z m -0.667,-4.474 v 3.422 c 0,0.504 0.327,0.861 0.834,0.861 H 3.52 c 0.507,0 0.825,-0.35 0.825,-0.854 v -3.476 c 0,-0.504 -0.365,-0.776 -0.872,-0.776 H 0.088 c -0.508,0 -0.755,0.319 -0.755,0.823" />
          </g>
          <g
             transform="translate(307.1881,434.7485)"
             id="g22696"
             style="fill:#ffffff;fill-opacity:1">
            <path
               inkscape:connector-curvature="0"
               id="path22698"
               style="fill:#ffffff;fill-opacity:1;fill-rule:nonzero;stroke:none"
               d="m 0,0 v -2.662 c 0,-0.591 -0.296,-0.844 -0.708,-0.844 -0.391,0 -0.717,0.233 -0.717,0.925 V 0 h -0.236 v -2.758 c 0,-0.535 0.457,-0.95 0.953,-0.95 0.402,0 0.944,0.288 0.944,1.006 V 0 Z" />
          </g>
          <g
             transform="translate(307.1881,434.7485)"
             id="g22700"
             style="fill:#ffffff;fill-opacity:1">
            <path
               inkscape:connector-curvature="0"
               id="path22702"
               style="fill:#ffffff;fill-opacity:1;fill-rule:nonzero;stroke:none"
               d="m 0,0 v -2.662 c 0,-0.591 -0.296,-0.844 -0.708,-0.844 -0.391,0 -0.717,0.233 -0.717,0.925 V 0 h -0.236 v -2.758 c 0,-0.535 0.456,-0.95 0.953,-0.95 0.402,0 0.944,0.288 0.944,1.006 V 0 Z" />
          </g>
          <g
             transform="translate(310.1692,434.7485)"
             id="g22704"
             style="fill:#ffffff;fill-opacity:1">
            <path
               inkscape:connector-curvature="0"
               id="path22706"
               style="fill:#ffffff;fill-opacity:1;fill-rule:nonzero;stroke:none"
               d="M 0,0 -0.677,-1.571 -1.355,0 h -0.281 l 0.848,-1.798 -0.873,-1.839 h 0.281 l 0.697,1.611 0.708,-1.611 H 0.306 L -0.557,-1.803 0.281,0 Z" />
          </g>
          <g
             transform="translate(310.1692,434.7485)"
             id="g22708"
             style="fill:#ffffff;fill-opacity:1">
            <path
               inkscape:connector-curvature="0"
               id="path22710"
               style="fill:#ffffff;fill-opacity:1;fill-rule:nonzero;stroke:none"
               d="M 0,0 -0.677,-1.571 -1.355,0 h -0.281 l 0.848,-1.798 -0.873,-1.839 h 0.281 l 0.697,1.611 0.708,-1.611 H 0.306 L -0.557,-1.803 0.281,0 Z" />
          </g>
          <g
             transform="translate(299.0905,429.2056)"
             id="g22712"
             style="fill:#ffffff;fill-opacity:1">
            <path
               inkscape:connector-curvature="0"
               id="path22714"
               style="fill:#ffffff;fill-opacity:1;fill-rule:nonzero;stroke:none"
               d="m 0,0 v -0.133 h 0.496 v -1.381 h 0.185 v 1.381 H 1.186 V 0 Z" />
          </g>
          <g
             transform="translate(299.0905,429.2056)"
             id="g22716"
             style="fill:#ffffff;fill-opacity:1">
            <path
               inkscape:connector-curvature="0"
               id="path22718"
               style="fill:#ffffff;fill-opacity:1;fill-rule:nonzero;stroke:none"
               d="m 0,0 v -0.133 h 0.496 v -1.381 h 0.185 v 1.381 H 1.186 V 0 Z" />
          </g>
        </g>
      </g>
      <g
         transform="matrix(0.35277777,0,0,-0.35277777,74.213554,110.35954)"
         id="g22720"
         style="fill:#ffffff;fill-opacity:1">
        <path
           inkscape:connector-curvature="0"
           id="path22722"
           style="fill:#ffffff;fill-opacity:1;fill-rule:nonzero;stroke:none"
           d="M 0,0 V -0.132 H 0.496 V -1.514 H 0.68 v 1.382 H 1.186 V 0 Z" />
      </g>
      <g
         transform="matrix(0.35277777,0,0,-0.35277777,74.800294,110.35954)"
         id="g22724"
         style="fill:#ffffff;fill-opacity:1">
        <path
           inkscape:connector-curvature="0"
           id="path22726"
           style="fill:#ffffff;fill-opacity:1;fill-rule:nonzero;stroke:none"
           d="m 0,0 v -1.514 h 0.94 v 0.133 H 0.185 v 0.578 h 0.53 v 0.132 h -0.53 v 0.539 H 0.922 V 0 Z" />
      </g>
      <g
         transform="matrix(0.35277777,0,0,-0.35277777,74.800294,110.35954)"
         id="g22728"
         style="fill:#ffffff;fill-opacity:1">
        <path
           inkscape:connector-curvature="0"
           id="path22730"
           style="fill:#ffffff;fill-opacity:1;fill-rule:nonzero;stroke:none"
           d="m 0,0 v -1.514 h 0.94 v 0.133 H 0.185 v 0.578 h 0.53 v 0.132 h -0.53 v 0.539 H 0.922 V 0 Z" />
      </g>
      <g
         transform="matrix(0.35277777,0,0,-0.35277777,74.800294,110.35954)"
         id="g22732"
         style="fill:#ffffff;fill-opacity:1">
        <path
           inkscape:connector-curvature="0"
           id="path22734"
           style="fill:#ffffff;fill-opacity:1;fill-rule:nonzero;stroke:none"
           d="m 0,0 v -1.514 h 0.94 v 0.133 H 0.185 v 0.578 h 0.53 v 0.132 h -0.53 v 0.539 H 0.922 V 0 Z" />
      </g>
      <g
         transform="matrix(0.35277777,0,0,-0.35277777,75.294641,110.35954)"
         id="g22736"
         style="fill:#ffffff;fill-opacity:1">
        <path
           inkscape:connector-curvature="0"
           id="path22738"
           style="fill:#ffffff;fill-opacity:1;fill-rule:nonzero;stroke:none"
           d="m 0,0 v -1.514 h 0.954 v 0.133 H 0.185 V 0 Z" />
      </g>
      <g
         transform="matrix(0.35277777,0,0,-0.35277777,75.294641,110.35954)"
         id="g22740"
         style="fill:#ffffff;fill-opacity:1">
        <path
           inkscape:connector-curvature="0"
           id="path22742"
           style="fill:#ffffff;fill-opacity:1;fill-rule:nonzero;stroke:none"
           d="m 0,0 v -1.514 h 0.954 v 0.133 H 0.185 V 0 Z" />
      </g>
      <g
         transform="matrix(0.35277777,0,0,-0.35277777,75.294641,110.35954)"
         id="g22744"
         style="fill:#ffffff;fill-opacity:1">
        <path
           inkscape:connector-curvature="0"
           id="path22746"
           style="fill:#ffffff;fill-opacity:1;fill-rule:nonzero;stroke:none"
           d="m 0,0 v -1.514 h 0.954 v 0.133 H 0.185 V 0 Z" />
      </g>
      <g
         transform="matrix(0.35277777,0,0,-0.35277777,75.799784,110.35954)"
         id="g22748"
         style="fill:#ffffff;fill-opacity:1">
        <path
           inkscape:connector-curvature="0"
           id="path22750"
           style="fill:#ffffff;fill-opacity:1;fill-rule:nonzero;stroke:none"
           d="m 0,0 v -1.514 h 0.94 v 0.133 H 0.185 v 0.578 h 0.53 v 0.132 h -0.53 v 0.539 H 0.922 V 0 Z" />
      </g>
      <g
         transform="matrix(0.35277777,0,0,-0.35277777,75.799784,110.35954)"
         id="g22752"
         style="fill:#ffffff;fill-opacity:1">
        <path
           inkscape:connector-curvature="0"
           id="path22754"
           style="fill:#ffffff;fill-opacity:1;fill-rule:nonzero;stroke:none"
           d="m 0,0 v -1.514 h 0.94 v 0.133 H 0.185 v 0.578 h 0.53 v 0.132 h -0.53 v 0.539 H 0.922 V 0 Z" />
      </g>
      <g
         transform="matrix(0.35277777,0,0,-0.35277777,75.799784,110.35954)"
         id="g22756"
         style="fill:#ffffff;fill-opacity:1">
        <path
           inkscape:connector-curvature="0"
           id="path22758"
           style="fill:#ffffff;fill-opacity:1;fill-rule:nonzero;stroke:none"
           d="m 0,0 v -1.514 h 0.94 v 0.133 H 0.185 v 0.578 h 0.53 v 0.132 h -0.53 v 0.539 H 0.922 V 0 Z" />
      </g>
      <g
         transform="matrix(0.35277777,0,0,-0.35277777,76.590041,110.35954)"
         id="g22760"
         style="fill:#ffffff;fill-opacity:1">
        <path
           inkscape:connector-curvature="0"
           id="path22762"
           style="fill:#ffffff;fill-opacity:1;fill-rule:nonzero;stroke:none"
           d="M 0,0 -0.319,-1.272 H -0.323 L -0.643,0 h -0.203 l 0.394,-1.514 h 0.255 L 0.204,0 Z" />
      </g>
      <g
         transform="matrix(0.35277777,0,0,-0.35277777,76.590041,110.35954)"
         id="g22764"
         style="fill:#ffffff;fill-opacity:1">
        <path
           inkscape:connector-curvature="0"
           id="path22766"
           style="fill:#ffffff;fill-opacity:1;fill-rule:nonzero;stroke:none"
           d="M 0,0 -0.319,-1.272 H -0.323 L -0.643,0 h -0.203 l 0.394,-1.514 h 0.255 L 0.204,0 Z" />
      </g>
      <g
         transform="matrix(0.35277777,0,0,-0.35277777,76.590041,110.35954)"
         id="g22768"
         style="fill:#ffffff;fill-opacity:1">
        <path
           inkscape:connector-curvature="0"
           id="path22770"
           style="fill:#ffffff;fill-opacity:1;fill-rule:nonzero;stroke:none"
           d="M 0,0 -0.319,-1.272 H -0.323 L -0.643,0 h -0.203 l 0.394,-1.514 h 0.255 L 0.204,0 Z" />
      </g>
      <g
         transform="matrix(0.35277777,0,0,-0.35277777,76.845946,110.29191)"
         id="g22772"
         style="fill:#ffffff;fill-opacity:1">
        <path
           inkscape:connector-curvature="0"
           id="path22774"
           style="fill:#ffffff;fill-opacity:1;fill-rule:nonzero;stroke:none"
           d="M 0,0 0.095,-0.103 0.571,0.168 0.437,0.299 Z" />
      </g>
      <g
         transform="matrix(0.35277777,0,0,-0.35277777,76.845946,110.29191)"
         id="g22776"
         style="fill:#ffffff;fill-opacity:1">
        <path
           inkscape:connector-curvature="0"
           id="path22778"
           style="fill:#ffffff;fill-opacity:1;fill-rule:nonzero;stroke:none"
           d="M 0,0 0.095,-0.103 0.571,0.168 0.437,0.299 Z" />
      </g>
      <g
         transform="matrix(0.35277777,0,0,-0.35277777,76.845946,110.29191)"
         id="g22780"
         style="fill:#ffffff;fill-opacity:1">
        <path
           inkscape:connector-curvature="0"
           id="path22782"
           style="fill:#ffffff;fill-opacity:1;fill-rule:nonzero;stroke:none"
           d="M 0,0 0.095,-0.103 0.571,0.168 0.437,0.299 Z" />
      </g>
      <g
         transform="matrix(0.35277777,0,0,-0.35277777,77.063116,110.35954)"
         id="g22784"
         style="fill:#ffffff;fill-opacity:1">
        <path
           inkscape:connector-curvature="0"
           id="path22786"
           style="fill:#ffffff;fill-opacity:1;fill-rule:nonzero;stroke:none"
           d="M 0,0 V -0.132 H 0.713 L -0.028,-1.4 v -0.114 h 1.012 v 0.133 h -0.79 l 0.73,1.269 V 0 Z" />
      </g>
      <g
         transform="matrix(0.35277777,0,0,-0.35277777,77.063116,110.35954)"
         id="g22788"
         style="fill:#ffffff;fill-opacity:1">
        <path
           inkscape:connector-curvature="0"
           id="path22790"
           style="fill:#ffffff;fill-opacity:1;fill-rule:nonzero;stroke:none"
           d="M 0,0 V -0.132 H 0.713 L -0.028,-1.4 v -0.114 h 1.012 v 0.133 h -0.79 l 0.73,1.269 V 0 Z" />
      </g>
      <g
         transform="matrix(0.35277777,0,0,-0.35277777,77.063116,110.35954)"
         id="g22792"
         style="fill:#ffffff;fill-opacity:1">
        <path
           inkscape:connector-curvature="0"
           id="path22794"
           style="fill:#ffffff;fill-opacity:1;fill-rule:nonzero;stroke:none"
           d="M 0,0 V -0.132 H 0.713 L -0.028,-1.4 v -0.114 h 1.012 v 0.133 h -0.79 l 0.73,1.269 V 0 Z" />
      </g>
      <g
         transform="matrix(0.35277777,0,0,-0.35277777,77.791779,110.89357)"
         id="g22796"
         style="fill:#ffffff;fill-opacity:1">
        <path
           inkscape:connector-curvature="0"
           id="path22798"
           style="fill:#ffffff;fill-opacity:1;fill-rule:nonzero;stroke:none"
           d="m 0,0 h 0.2 l 0.157,0.411 h 0.54 L 1.056,0 H 1.255 L 0.626,1.514 Z M 0.626,1.099 0.853,0.534 H 0.401 Z" />
      </g>
      <g
         transform="matrix(0.35277777,0,0,-0.35277777,77.791779,110.89357)"
         id="g22800"
         style="fill:#ffffff;fill-opacity:1">
        <path
           inkscape:connector-curvature="0"
           id="path22802"
           style="fill:#ffffff;fill-opacity:1;fill-rule:nonzero;stroke:none"
           d="m 0,0 h 0.2 l 0.157,0.411 h 0.54 L 1.056,0 H 1.255 L 0.626,1.514 Z M 0.626,1.099 0.853,0.534 H 0.401 Z" />
      </g>
      <g
         transform="matrix(0.35277777,0,0,-0.35277777,77.791779,110.89357)"
         id="g22804"
         style="fill:#ffffff;fill-opacity:1">
        <path
           inkscape:connector-curvature="0"
           id="path22806"
           style="fill:#ffffff;fill-opacity:1;fill-rule:nonzero;stroke:none"
           d="m 0,0 h 0.2 l 0.157,0.411 h 0.54 L 1.056,0 H 1.255 L 0.626,1.514 Z M 0.626,1.099 0.853,0.534 H 0.401 Z" />
      </g>
      <path
         inkscape:connector-curvature="0"
         id="path22808"
         style="fill:#ffffff;fill-opacity:1;fill-rule:nonzero;stroke:none;stroke-width:0.35277775"
         d="m 76.830212,110.89347 h 0.06526 v -0.53411 h -0.06526 z" />
      <path
         inkscape:connector-curvature="0"
         id="path22810"
         style="fill:#ffffff;fill-opacity:1;fill-rule:nonzero;stroke:none;stroke-width:0.35277775"
         d="m 76.830212,110.89347 h 0.06526 v -0.53411 h -0.06526 z" />
      <path
         inkscape:connector-curvature="0"
         id="path22812"
         style="fill:#ffffff;fill-opacity:1;fill-rule:nonzero;stroke:none;stroke-width:0.35277775"
         d="m 76.830212,110.89347 h 0.06526 v -0.53411 h -0.06526 z" />
      <path
         inkscape:connector-curvature="0"
         id="path22814"
         style="fill:#ffffff;fill-opacity:1;fill-rule:nonzero;stroke:none;stroke-width:0.35277775"
         d="m 77.557993,110.89347 h 0.06526 v -0.53411 h -0.06526 z" />
      <path
         inkscape:connector-curvature="0"
         id="path22816"
         style="fill:#ffffff;fill-opacity:1;fill-rule:nonzero;stroke:none;stroke-width:0.35277775"
         d="m 77.557993,110.89347 h 0.06526 v -0.53411 h -0.06526 z" />
      <path
         inkscape:connector-curvature="0"
         id="path22818"
         style="fill:#ffffff;fill-opacity:1;fill-rule:nonzero;stroke:none;stroke-width:0.35277775"
         d="m 77.557993,110.89347 h 0.06526 v -0.53411 h -0.06526 z" />
    </g>
    <path
       inkscape:connector-curvature="0"
       id="path22838"
       style="fill:url(#linearGradient4705);fill-opacity:1;fill-rule:nonzero;stroke:none;stroke-width:15.68739319"
       d="m 81.382643,-77.053334 h -0.01569 c 0,0 -0.172562,0.01569 -0.470622,0.01569 -0.156874,0.01569 -0.345123,0.03138 -0.549059,0.06275 -0.219623,0.03137 -0.454934,0.07844 -0.72162,0.141187 -0.517684,0.109811 -1.08243,0.36081 -1.662864,0.65887 -0.580433,0.313748 -1.145179,0.737307 -1.647176,1.223617 -0.486309,0.501996 -0.909869,1.066742 -1.239304,1.647176 -0.29806,0.580433 -0.533371,1.160867 -0.643183,1.678551 -0.07844,0.250998 -0.109812,0.486309 -0.141187,0.705933 -0.03137,0.203936 -0.06275,0.392184 -0.06275,0.549058 -0.01569,0.298061 -0.01569,0.48631 -0.01569,0.48631 v 0 21.742726 18.918996 0.01569 c 0,0 0,0.172561 0.01569,0.486309 0,0.156874 0.03137,0.329435 0.06275,0.549059 0.03138,0.203936 0.06275,0.454934 0.141187,0.705932 0.109812,0.517684 0.36081,1.08243 0.65887,1.678551 0.313748,0.564746 0.737308,1.129493 1.223617,1.631489 0.501997,0.501997 1.066743,0.909869 1.647176,1.239304 0.580434,0.298061 1.160867,0.533372 1.678551,0.643183 0.250999,0.07844 0.48631,0.109812 0.705933,0.141187 0.203936,0.04706 0.392185,0.06275 0.549059,0.06275 0.29806,0.01569 0.486309,0.01569 0.486309,0.01569 v 0 h 26.2607 14.40103 0.0157 c 0,0 0.1255,0 0.34513,-0.01569 0.10981,0 0.25099,0 0.40787,-0.01569 0.14118,-0.03138 0.31375,-0.04706 0.50199,-0.07844 0.753,-0.141186 1.72562,-0.470622 2.58842,-1.01968 0.84712,-0.533372 1.56874,-1.286367 1.9923,-1.913862 0.43925,-0.611809 0.64319,-1.082431 0.64319,-1.082431 0,0 0.34512,-0.705932 0.50199,-1.490302 0.0784,-0.376497 0.14119,-0.768682 0.15688,-1.051055 0.0157,-0.298061 0.0157,-0.486309 0.0157,-0.486309 v -0.01569 -0.06275 -37.445807 -3.153166 -0.01569 c 0,0 0,-0.109812 0,-0.329435 -0.0157,-0.203936 -0.0471,-0.501997 -0.0941,-0.862807 -0.1255,-0.705932 -0.40787,-1.631489 -0.90987,-2.447233 -0.48631,-0.815744 -1.14518,-1.521677 -1.70992,-1.960924 -0.28238,-0.219624 -0.53338,-0.392185 -0.72162,-0.486309 -0.17257,-0.109812 -0.28238,-0.172562 -0.28238,-0.172562 v -0.01569 c 0,0 -0.251,-0.156874 -0.81574,-0.376497 -0.54906,-0.219624 -1.42756,-0.501997 -2.63548,-0.501997 z m -0.01569,2.478608 h 0.01569 40.661727 c 0.80005,0 1.3648,0.172561 1.72561,0.313748 0.36081,0.156874 0.53337,0.250998 0.53337,0.250998 v 0.01569 c 0,0 0.28237,0.141186 0.65887,0.439247 0.36081,0.282373 0.80006,0.737307 1.12949,1.286366 0.31375,0.533371 0.51769,1.129492 0.58044,1.600114 0.0784,0.454934 0.0784,0.768682 0.0784,0.768682 v 0.01569 3.153166 37.445807 0.06275 0 c 0,0 -0.0157,0.141187 -0.0157,0.329436 0,0.188248 -0.0627,0.439247 -0.10982,0.690245 -0.0941,0.501996 -0.32943,0.972618 -0.32943,0.972618 0,0 -0.1255,0.298061 -0.40787,0.705933 -0.28238,0.423559 -0.753,0.909869 -1.31774,1.254991 -0.56475,0.376498 -1.20793,0.580434 -1.69424,0.674558 -0.1255,0.01569 -0.23531,0.03137 -0.32944,0.04706 -0.10981,0 -0.18825,0.01569 -0.26668,0.01569 -0.14119,0.01569 -0.21963,0.01569 -0.21963,0.01569 h -0.0157 -14.40103 -26.260697 v 0 c 0,0 -0.125499,-0.01569 -0.313748,-0.01569 -0.109812,0 -0.235311,-0.01569 -0.36081,-0.04706 -0.141186,-0.01569 -0.29806,-0.03137 -0.470622,-0.09412 -0.329435,-0.06275 -0.705932,-0.219623 -1.098117,-0.407872 -0.36081,-0.219623 -0.737308,-0.501997 -1.08243,-0.815744 -0.313748,-0.329436 -0.580434,-0.705933 -0.800057,-1.082431 -0.188249,-0.392184 -0.36081,-0.752994 -0.42356,-1.098117 -0.04706,-0.156874 -0.07844,-0.313748 -0.09412,-0.454934 -0.03137,-0.141187 -0.04706,-0.266686 -0.03137,-0.36081 -0.01569,-0.203937 -0.03138,-0.313748 -0.03138,-0.313748 v -0.01569 -18.918996 -21.742726 0 c 0,0 0.01569,-0.1255 0.03138,-0.313748 -0.01569,-0.109812 0,-0.235311 0.03137,-0.36081 0.01569,-0.141187 0.04706,-0.298061 0.09412,-0.470622 0.06275,-0.329435 0.235311,-0.705933 0.42356,-1.08243 0.203936,-0.376498 0.486309,-0.752995 0.800057,-1.08243 0.345122,-0.329436 0.705932,-0.596121 1.08243,-0.815745 0.392185,-0.188248 0.752995,-0.36081 1.098117,-0.423559 0.172562,-0.04706 0.329436,-0.07844 0.454935,-0.09413 0.141186,-0.01569 0.266685,-0.03137 0.36081,-0.03137 0.203936,-0.01569 0.313748,-0.01569 0.313748,-0.01569" />
    <g
       id="g4733"
       transform="translate(0.101306,-0.06440487)"
       style="fill:#959696;fill-opacity:1">
      <path
         d="m 85.132962,-62.339745 v 9.083 h 8.816315 v -9.083 H 99.283 v 23.65659 h -5.333723 v -9.89875 h -8.816315 v 9.89875 h -5.333714 v -23.65659 z"
         style="fill:#959696;fill-opacity:1;fill-rule:nonzero;stroke:none;stroke-width:15.68739319"
         id="path22822-8"
         inkscape:connector-curvature="0" />
      <path
         d="m 107.52672,-42.719215 c 0.45494,0.10981 1.22362,0.10981 1.8668,0.10981 4.87879,0.0314 8.06332,-2.63548 8.06332,-8.28294 0,-4.92584 -2.87079,-7.51426 -7.51425,-7.51426 -1.14518,0 -1.96093,0.10981 -2.41586,0.20393 z m -5.3337,-19.26412 c 1.96092,-0.31375 4.53364,-0.53337 7.2005,-0.53337 4.51797,0 7.4672,0.84712 9.7105,2.52567 2.46292,1.83543 4.00028,4.73759 4.00028,8.92613 0,4.51797 -1.64718,7.63976 -3.89046,9.56931 -2.4943,2.07073 -6.32202,3.05904 -10.9498,3.05904 -2.77667,0 -4.76897,-0.17256 -6.07102,-0.34512 z"
         style="fill:#959696;fill-opacity:1;fill-rule:nonzero;stroke:none;stroke-width:15.68739319"
         id="path22834-2"
         inkscape:connector-curvature="0" />
    </g>
    <g
       id="g4737">
      <path
         d="m 85.734318,-61.938842 v 9.083001 h 8.816315 v -9.083001 h 5.333713 v 23.656589 h -5.333713 v -9.898745 h -8.816315 v 9.898745 h -5.333714 v -23.656589 z"
         style="fill:#ffffff;fill-opacity:1;fill-rule:nonzero;stroke:none;stroke-width:15.68739319"
         id="path22822"
         inkscape:connector-curvature="0" />
      <path
         d="m 108.12808,-42.318309 c 0.45493,0.109812 1.22362,0.109812 1.8668,0.109812 4.87878,0.03138 8.06332,-2.635482 8.06332,-8.282944 0,-4.925841 -2.87079,-7.514261 -7.51426,-7.514261 -1.14518,0 -1.96093,0.109812 -2.41586,0.203936 z m -5.33371,-19.264119 c 1.96092,-0.313747 4.53365,-0.533371 7.20051,-0.533371 4.51797,0 7.4672,0.847119 9.7105,2.52567 2.46292,1.835425 4.00028,4.737593 4.00028,8.926127 0,4.517969 -1.64718,7.63976 -3.89047,9.56931 -2.4943,2.070736 -6.32202,3.059041 -10.9498,3.059041 -2.77667,0 -4.76897,-0.172561 -6.07102,-0.345122 z"
         style="fill:#ffffff;fill-opacity:1;fill-rule:nonzero;stroke:none;stroke-width:15.68739319"
         id="path22834"
         inkscape:connector-curvature="0" />
    </g>
  </g>
</svg>
