<svg height="999.99994" viewBox="0 0 264.58331 264.58217" width="999.99994" xmlns="http://www.w3.org/2000/svg" xmlns:xlink="http://www.w3.org/1999/xlink"><linearGradient id="a" gradientUnits="userSpaceOnUse" x1="125.584503" x2="125.584503" y1=".2109" y2="264.371411"><stop offset="0" stop-color="#0199da"/><stop offset="1" stop-color="#0d71a2"/></linearGradient><path d="m0-.00049947h264.58331v264.58331947h-264.58331z" fill="url(#a)"/><g fill="#fff" transform="matrix(.99594917 0 0 .99594917 55.462146 17.377981)"><path d="m153.694 104.18165c-.03-.14-.05-.28-.05-.4-.07-.02-.16-.02-.23-.02z"/><path d="m154.284 105.00165-.59-.82c.12.33.3.61.59.82"/><path d="m1.0470811 112.19159c4.3769999-3.27 8.9598519-6.21999 13.6818519-8.96999 20.264-11.760004 43.392266-19.110118 66.945268-19.300118 14.979997 0 29.789809 3.449952 43.719809 8.829953 9.07813 3.529272 17.84635 7.858545 26.13484 12.967165v-4.80694c-8.97-5.759999-17.94965-11.510263-26.89965-17.270263-.12-6.460001-2.67003-12.629671-5.95003-18.099669 3.92001-2.120001 6.72994-6.624273 5.66994-11.136273v-.01188h-.0103c-4.5.071-7.45959 3.833961-10.52959 6.57996h-.0104v.0031c-.26.370998-.63009.456866-1.02009.442867-.39-.015-.80959-.132948-1.18959-.167949-11.09-1.550001-22.190155-3.592645-33.450155-3.333647-7.769.211-15.586781.797629-23.358782.327628-2.442001-.211-4.906245-.493646-7.205244-1.314648-4.666001-1.712-8.114885-6.495992-7.856884-11.512992.280998-3.448.914728-6.965164 2.272728-10.131163 4.533001.394999 9.041077-1.27131 12.656074-3.924308l.02429-.01654-.02739-.01241c-3.961001-1.617001-8.19979-2.344632-12.36979-3.163631 1.520003-1.469001 3.270142-2.79903 5.229138-3.592028 2.200002-.773002 4.497059.210814 6.66006.610814 10.850999 2.889001 22.26674 3.781057 33.37574 2.067057 5.450001-.775999 10.850295-2.090962 15.930295-4.298963 4.7-2.090999 9.21-5.028321 12.33-9.211323 2.68-3.524 4.08967-8.0339194 3.71967-12.450919v-.00568l-.01-.075964-.0202.07183c0 .00201.00018.0042-.01.0062-1.8 5.2299997-5.43997 9.641674-9.73997 13.090674-5.88 4.663002-13.300199 7.753264-20.890201 7.298263 5.010002-3.831 9.10993-9.761372 9.229929-16.2563729v-.05271l-.02997.042891c-4.579591 6.5749999-9.909353 13.2651569-17.439354 16.5271569-4.697998 1.69-10.165125 1.92383-14.692125-.375171-.13-.071-.276942-.128704-.398941-.206706-.118002-.076-.206881-.173191-.24288-.314193 5.585-1.91 9.903013-7.11893 10.373008-13.0369302l.0026-.042891-.03101.031006c-3.451 3.4040002-7.207892 6.5977262-11.432891 9.0387252-5.701001 3.425-13.51411 2.954885-18.74511-1.221114-2.028-1.652-3.065653-3.989775-3.364653-6.4817752-.299001-2.4920001.141668-5.1391658 1.06867-7.4031657l.01498-.03669-.03669.017571c-2.658999 1.2-4.447976 3.8580171-4.730977 6.705017-.280998 2.2529999.09669 4.5539979.82269 6.6889979-.033.047-.07282.07433-.117822.08733-.046.013-.09693.0121-.151929.0031-.108-.017-.222877-.06348-.319878-.07648h-.0021c-3.637951-.914996-7.20496-2.487675-9.925959-5.091675-2.767002-2.5320002-3.868359-6.5189024-3.04736-10.15390219l.01603-.07234713-.04496.05994479c-2.068996 2.72799993-3.010712 6.39506053-2.210715 9.75806053.729002 2.87 2.799125 5.222001 5.244127 6.797001 3.870999 2.556999 8.441877 3.731236 12.942879 4.600236-1.150001 2.003999-3.156101 3.410177-4.935101 4.814176-.260998.155001-.506979.41285-.769977.611849-.262001.198001-.53793.335764-.86093.254764-8.643001-2.113999-17.734312-2.748682-26.5193116-1.31568l-.00982.0021-.00414.0098c-.4459999 1.619998-.8918517 3.215685-1.2438518 4.860684l-.00206.01241.010335.0047c5.0449994 3.050998 10.0899934 6.147142 15.1349934 9.221142-3.474 7.372001-5.960469 15.473214-5.655469 23.711215.423 5.219999 1.338069 10.429756 3.100069 15.389756 1.196 3.21 2.629281 6.380023 4.925282 8.940022-7.884999 5.89999-15.8631991 11.690129-23.7261992 17.590135m24.1432142-76.514254c.180001-.004.358817.01529.533818.05529.350001.08.686853.24302.981852.463021.59.439999 1.02144 1.111996 1.092439 1.833996.142001 1.372-1.015162 2.670715-2.363163 2.811714-1.561.142002-2.99991-1.39102-2.786909-2.92902v-.0021c.188999-1.016.989046-1.934708 2.005046-2.148708.177999-.053.357918-.08023.536917-.08423z"/><path d="m79.264 88.801654c-.46.01-.93.01-1.39.02-11.152.24-22.241 2.78-32.774 6.42-10.73 3.85-21.224 8.759996-30.407 15.549996h-.007l-.043.03h.053c9.341-.28 18.354 3.55 25.702 9.11l.016.01.008-.01c4.039-6.56 9.087-12.61 15.285-17.26 6.924-4.999996 15.702-6.949996 24.127-6.289996 8.34.61 16.55 4.289996 22.16 10.559996 1.71 2.39 2.44 5.51 1.76 8.39-.68 2.91-2.67 5.35-4.9 7.28-3.36 2.76-7.42 4.67-11.67 5.53-7.3 1.2-15.05.35-21.959 3.55-9.75 4.68-17.761 13.18-21.356 23.45l-.004.01h.01c7.54 5.71 16.772 10.2 26.453 9.52 9.226-.47 18.386-3.33 26.066-8.55 4.25.97 8.55 2.35 12.96 2.33 5.15-.03 10.51-3.06 12.21-8.09v-.02h-.02c-5.61-1.55-11.31-2.66-17.02-3.71-.03-.03-.08-.06-.12-.09s-.07-.05-.1-.07c3.4-3.09 6.64-6.3 9.67-9.73 5.21-5.47 7.8-12.78 10.05-19.8.13-.26.16-.63.25-.93.04-.15.1-.29.19-.39s.21-.16.39-.17h.01c2.42-.68 4.86-1.34 7.16-2.38 1.88-.87 3.49-2.54 3.91-4.61.42-2.24-.35-4.57-1.72-6.35l-.01-.01h-.01c-4.06 2.14-8.02 4.48-12.1 6.62-1.91-4.37-5.52-7.65-9.32-10.349996-7.1-4.79-15.3-7.87-23.75-8.98-3.25-.41-6.51-.6-9.76-.59zm-16.666 57.029996c1.709.08 3.419 1.35 3.564 3.13.141 1.02-.29 1.97-1 2.66-.71.68-1.699 1.11-2.678 1.07-1.77.1-3.631-1.25-3.796-3.04-.284-1.91 1.39-3.56 3.207-3.78.119-.02.24-.03.361-.04z"/><path d="m101.344 108.19165.01.07c.47 2.91-.14 6.12-2.15 8.35-3.76 4.13-9.69 5.04-15 5.18l-.01.01v.01c-.1 1.76-.5 3.43-.61 5.19l-.01.02h.02c4.23-.03 8.25-1.81 11.68-4.14 2.59-1.74 5.08-3.9 6.44-6.77 1.2-2.45 1.2-5.55-.33-7.86z"/><path d="m0 203.43165v11.46h.527 2.01v-5.17h4.227v-1.62h-4.227v-3.05h5.073v-1.62z"/><path d="m9.676 203.43165v11.47h2.539v-.53-10.94z"/><path d="m17.584 203.19165c-.931 0-1.773.3-2.449.87-.745.61-1.133 1.47-1.133 2.4 0 1.02.511 1.9 1.346 2.57l.01.01.007.01c.407.3 1.011.69 1.85 1.14.808.44 1.355.79 1.66 1.03l.01.01.012.01c.486.35.648.68.648 1.07 0 .37-.117.6-.426.84-.304.21-.642.32-1.111.32-.463 0-.886-.09-1.272-.31h-.005-.004c-.416-.22-.696-.49-.877-.85l-.006-.01-.008-.02c-.107-.18-.211-.63-.211-1.28v-.53h-1.529v.53c0 .98.202 1.82.656 2.48h.002c.387.57.817.99 1.303 1.23l.011.01h.012c.399.18.798.31 1.221.35.301.05.581.05.871.05.985 0 1.879-.28 2.611-.87l.006-.01h.004c.757-.65 1.172-1.54 1.172-2.54 0-.48-.115-.96-.338-1.41-.285-.57-.757-1.06-1.394-1.49-.279-.19-.801-.5-1.639-.92-1.16-.65-1.89-1.17-2.104-1.42-.151-.19-.209-.34-.209-.54 0-.29.095-.51.381-.73h.004.004c.269-.22.568-.33.914-.33h.024l.023-.01c.419-.03.835.07 1.299.35h.004.002c.306.19.653.73.828 1.75l.074.44h.916l.555.01-.026-.56c-.026-.62-.187-1.2-.418-1.74h-.002c-.196-.45-.515-.88-.978-1.23-.528-.43-1.273-.61-2.262-.68h-.019z"/><path d="m23.512 203.43165v.74l.023 10.73h2.514v-5.01h3.779v5.01h2.514v-.98-10.49h-2.514v.53 4.29h-3.779v-4.82z"/><path d="m34.969 203.43165v11.47h2.537v-.53-10.94z"/><path d="m40.172 203.43165v.53 10.94h1.74v-7.25l6.078 7.41h1.037v-11.63h-1.714v6.85l-5.584-6.85z"/><path d="m56.106 202.97165c-1.068 0-2.065.26-2.948.81-.906.52-1.613 1.28-2.121 2.22h-.002-.002c-.487.93-.742 1.98-.742 3.09 0 1.39.389 2.64 1.164 3.67.001.01 0 .01 0 .01 1.032 1.41 2.573 2.14 4.414 2.14.924 0 1.849-.21 2.819-.64.017 0 .032-.01.048-.02.384-.22.941-.54 1.709-.96l.276-.15v-4.98h-3.947v1.95h.529c.298 0 .506.04.619.09.114.04.131.07.152.11l.037.08.024.02v.09 2.04c-.737.37-1.385.63-1.678.63-.686 0-1.262-.17-1.793-.47-.526-.33-.906-.74-1.144-1.34l-.004-.01-.004-.01c-.269-.6-.424-1.35-.424-2.23 0-2.18.562-3.45 1.563-4.1.458-.28.991-.44 1.572-.44.593 0 1.083.14 1.556.39.388.21.93.74 1.543 1.56l.286.38 1.082-.65-.247-.44c-.551-1-1.225-1.74-2.011-2.24h-.006-.006c-.68-.41-1.465-.6-2.314-.6z"/><path d="m82.834 203.43165v.74l.02 10.73h2.52v-5.01h3.78v5.01h2.51v-.98-10.49h-2.51v.53 4.29h-3.78v-4.82z"/><path d="m94.034 203.42165v6.45c0 1.27.04 2.13.27 2.74.3.83.85 1.49 1.59 1.92.75.42 1.67.61 2.75.61 1.11 0 2.04-.22 2.77-.72.72-.49 1.25-1.18 1.5-2 .19-.59.26-1.35.26-2.34v-6.63h-1.74v6.56c0 1.07-.13 1.8-.27 2.15-.16.38-.46.68-.96.92h-.01c-.45.23-.92.35-1.48.35-.88 0-1.39-.27-1.74-.77-.22-.36-.4-1.15-.4-2.32v-6.92z"/><path d="m105.604 203.43165v.53 10.94h1.74v-7.25l6.08 7.41h1.04v-11.63h-1.72v6.84l-5.58-6.84z"/><path d="m115.704 203.44165v1.75l3.47-.03v9.72h2.54v-9.72h3.54v-1.72z"/><path d="m126.574 203.43165v11.47h2.54v-.53-10.94z"/><path d="m131.774 203.43165v.53 10.94h1.74v-7.25l6.08 7.41h1.04v-11.63h-1.72v6.84l-5.59-6.84z"/><path d="m147.704 202.97165c-1.07 0-2.06.26-2.95.81-.9.52-1.61 1.28-2.12 2.22-.49.93-.74 1.98-.74 3.09 0 1.39.38 2.64 1.16 3.67 1.03 1.42 2.57 2.15 4.42 2.15.92 0 1.85-.21 2.82-.64.6-.33 1.21-.68 1.75-.98l.28-.15-.03-4.98h-3.92v1.95h.53c.3 0 .51.04.62.09.11.04.13.07.15.11l.04.08.02.03v.08 2.04c-.74.37-1.38.63-1.68.63-.68 0-1.26-.17-1.79-.47-.53-.33-.91-.75-1.17-1.35-.25-.61-.4-1.36-.4-2.24 0-2.18.56-3.45 1.56-4.1.46-.28.99-.44 1.57-.44.59 0 1.08.14 1.56.39.38.21.92.74 1.54 1.56l.29.38 1.08-.65-.25-.45c-.57-.99-1.22-1.73-2.01-2.23h-.01c-.68-.41-1.47-.6-2.32-.6z"/><path d="m44.274 218.67165c-1.049 0-2.042.26-2.922.78-.931.54-1.662 1.33-2.172 2.3-.49.93-.719 1.96-.719 3.04 0 1.39.385 2.64 1.158 3.67h.002c1.032 1.42 2.576 2.14 4.442 2.14 2.025 0 3.679-1.04 4.757-2.94l.254-.45-1.088-.65-.287.38c-.519.7-.985 1.18-1.351 1.43h-.004-.004c-.463.33-1.025.49-1.715.49-.686 0-1.261-.16-1.793-.46-1.043-.65-1.551-1.75-1.551-3.59 0-1.1.136-1.97.426-2.65l.002-.01c.552-1.34 1.347-1.88 2.705-1.88.57 0 1.093.14 1.531.38.394.22.952.75 1.536 1.58l.304.43 1.072-.77-.247-.39c-.55-.97-1.217-1.73-2.01-2.23h-.002c-.664-.42-1.453-.6-2.324-.6z"/><path d="m50.121 219.14165v.74l.024 10.72h2.513v-5h3.78v5h2.513v-.98-10.48h-2.513v.53 4.28h-3.78v-4.81z"/><path d="m65.383 218.91165-.138.32-4.913 11.33 1.915.06 1.508-3.51h3.316l.497 1.18-.002-.01c.131.33.238.58.314.76.076.17.13.34.109.25l.007.03.466 1.27h3.138l-5.269-11.68zm.06 4.26.972 2.32h-1.97z"/><path d="m72.895 219.14165v.53 10.93h1.74v-7.25l6.079 7.41h1.04v-11.62h-1.72v6.84l-5.585-6.84z"/><path d="m84.234 219.14165v.53 10.93h1.74v-7.25l6.08 7.41h1.04v-11.62h-1.72v6.84l-5.58-6.84z"/><path d="m95.524 219.13165v11.47h7.61v-.53-1.1h-4.74c-.2 0-.31-.04-.3-.03-.01 0-.01.01-.01-.06v-.55-2.9h4.2v-1.62h-4.2v-3.05h5.05v-1.63z"/><path d="m107.684 219.13165-2.54.04v11.43h7.47l.12-.37.43-1.35h-4.41-.75c-.14-.02-.24-.05-.27-.06l-.02-.03c.06.09-.03-.15-.03-.58z"/><path d="m66.617 191.89165v1.49l2.067-.03v5.85h1.951v-5.85h2.137v-1.46z"/><path d="m73.067 191.89165v.64 6.66h1.951v-3h1.826v3h1.93v-.79-6.51h-1.93v.53 2.35h-1.826v-2.88z"/><path d="m79.894 191.88165v7.31h4.98v-.53-.86h-3.03v-.18-1.53h2.53v-1.39h-2.53v-1.41h3.03v-1.41z"/><path d="m71.282 203.20165c-.741 0-1.436.2-2.022.65-.793.54-1.184 1.43-1.184 2.42 0 .61.2 1.3.498 2.06-.89.52-1.629 1.07-2.14 1.67-.589.7-.918 1.49-.918 2.3 0 .86.384 1.63 1.081 2.14.618.48 1.379.69 2.196.69 1.127 0 2.247-.47 3.325-1.33.882.84 1.783 1.33 2.71 1.33.713 0 1.366-.22 1.866-.66s.83-1.07 1.02-1.85l.08-.34-1.18-.89-.205.75c-.084.3-.201.47-.332.57-.13.11-.295.17-.568.17-.438 0-.919-.29-1.456-.81.569-.71.978-1.47 1.11-2.29.148-.91.165-1.64-.044-2.27l-.121-.36h-1.42l.232.7c.06.17.07.64-.103 1.29h-.001-.001c-.115.45-.418.95-.812 1.47-.458-.66-.909-1.35-1.347-2.09.497-.28 1.005-.56 1.304-.82h.001.001c.654-.57 1.026-1.32 1.026-2.11 0-.7-.298-1.33-.82-1.77-.482-.42-1.111-.62-1.776-.62zm-.023 1.6c.205 0 .326.07.479.22.132.17.19.3.19.54 0 .35-.104.64-.354.94-.164.2-.427.4-.737.59-.239-.66-.387-1.19-.387-1.43 0-.27.064-.43.22-.59l.009-.01.007-.01c.167-.18.33-.25.573-.25zm-1.959 5.02c.454.83 1.019 1.72 1.711 2.69-.585.4-1.08.63-1.42.63-.446 0-.741-.12-1.023-.42-.279-.3-.396-.63-.396-1.12 0-.65.344-1.22 1.128-1.78z"/></g></svg>