<?xml version="1.0" encoding="UTF-8" standalone="no"?>
<svg
   xmlns:dc="http://purl.org/dc/elements/1.1/"
   xmlns:cc="http://creativecommons.org/ns#"
   xmlns:rdf="http://www.w3.org/1999/02/22-rdf-syntax-ns#"
   xmlns:svg="http://www.w3.org/2000/svg"
   xmlns="http://www.w3.org/2000/svg"
   xmlns:xlink="http://www.w3.org/1999/xlink"
   xmlns:sodipodi="http://sodipodi.sourceforge.net/DTD/sodipodi-0.dtd"
   xmlns:inkscape="http://www.inkscape.org/namespaces/inkscape"
   height="999.99994"
   width="999.99994"
   version="1.1"
   viewBox="0 0 264.58331 264.58217"
   id="svg90"
   sodipodi:docname="The Fishing and Hunting Channel - Original.svg"
   inkscape:version="0.92.0 r15299">
  <metadata
     id="metadata94">
    <rdf:RDF>
      <cc:Work
         rdf:about="">
        <dc:format>image/svg+xml</dc:format>
        <dc:type
           rdf:resource="http://purl.org/dc/dcmitype/StillImage" />
        <dc:title></dc:title>
      </cc:Work>
    </rdf:RDF>
  </metadata>
  <sodipodi:namedview
     pagecolor="#ffffff"
     bordercolor="#666666"
     borderopacity="1"
     objecttolerance="10"
     gridtolerance="10"
     guidetolerance="10"
     inkscape:pageopacity="0"
     inkscape:pageshadow="2"
     inkscape:window-width="1920"
     inkscape:window-height="1017"
     id="namedview92"
     showgrid="false"
     fit-margin-top="0"
     fit-margin-left="0"
     fit-margin-right="0"
     fit-margin-bottom="0"
     inkscape:zoom="0.25921532"
     inkscape:cx="494.20394"
     inkscape:cy="126.63642"
     inkscape:window-x="-8"
     inkscape:window-y="-8"
     inkscape:window-maximized="1"
     inkscape:current-layer="svg90" />
  <defs
     id="defs14">
    <linearGradient
       inkscape:collect="always"
       id="linearGradient4684">
      <stop
         style="stop-color:#0199da;stop-opacity:1"
         offset="0"
         id="stop4680" />
      <stop
         style="stop-color:#0d71a2;stop-opacity:1"
         offset="1"
         id="stop4682" />
    </linearGradient>
    <linearGradient
       inkscape:collect="always"
       xlink:href="#linearGradient4684"
       id="linearGradient4686"
       x1="26.70475"
       y1="-323.75375"
       x2="26.70475"
       y2="-59.593239"
       gradientUnits="userSpaceOnUse"
       gradientTransform="translate(98.879753,323.96465)" />
  </defs>
  <path
     style="opacity:1;fill:url(#linearGradient4686);fill-opacity:1;stroke:none;stroke-width:11.269804;stroke-miterlimit:4;stroke-dasharray:none;stroke-opacity:1"
     d="M 0,-4.9947232e-4 H 264.58331 V 264.58282 H 0 Z"
     id="rect4677"
     inkscape:connector-curvature="0" />
  <g
     id="g4718"
     transform="matrix(0.99594917,0,0,0.99594917,55.462146,17.377981)"
     style="fill:#ffffff;fill-opacity:1">
    <path
       d="m 153.694,104.18165 c -0.03,-0.14 -0.05,-0.28 -0.05,-0.4 -0.07,-0.02 -0.16,-0.02 -0.23,-0.02 z"
       id="path18"
       style="fill:#ffffff;fill-opacity:1"
       inkscape:connector-curvature="0" />
    <path
       d="m 154.284,105.00165 -0.59,-0.82 c 0.12,0.33 0.3,0.61 0.59,0.82"
       id="path20"
       style="fill:#ffffff;fill-opacity:1"
       inkscape:connector-curvature="0" />
    <path
       sodipodi:nodetypes="cccccccccccccccccccccccccccccccccccccccccccccccccscccccccccccccccccccccccccccccccscccccccc"
       inkscape:connector-curvature="0"
       id="path24"
       d="m 1.0470811,112.19159 c 4.3769999,-3.27 8.9598519,-6.21999 13.6818519,-8.96999 20.264,-11.760004 43.392266,-19.110118 66.945268,-19.300118 14.979997,0 29.789809,3.449952 43.719809,8.829953 9.07813,3.529272 17.84635,7.858545 26.13484,12.967165 v -4.80694 c -8.97,-5.759999 -17.94965,-11.510263 -26.89965,-17.270263 -0.12,-6.460001 -2.67003,-12.629671 -5.95003,-18.099669 3.92001,-2.120001 6.72994,-6.624273 5.66994,-11.136273 v -0.01188 h -0.0103 c -4.5,0.071 -7.45959,3.833961 -10.52959,6.57996 h -0.0104 v 0.0031 c -0.26,0.370998 -0.63009,0.456866 -1.02009,0.442867 -0.39,-0.015 -0.80959,-0.132948 -1.18959,-0.167949 -11.09,-1.550001 -22.190155,-3.592645 -33.450155,-3.333647 -7.769,0.211 -15.586781,0.797629 -23.358782,0.327628 -2.442001,-0.211 -4.906245,-0.493646 -7.205244,-1.314648 -4.666001,-1.712 -8.114885,-6.495992 -7.856884,-11.512992 0.280998,-3.448 0.914728,-6.965164 2.272728,-10.131163 4.533001,0.394999 9.041077,-1.27131 12.656074,-3.924308 l 0.02429,-0.01654 -0.02739,-0.01241 c -3.961001,-1.617001 -8.19979,-2.344632 -12.36979,-3.163631 1.520003,-1.469001 3.270142,-2.79903 5.229138,-3.592028 2.200002,-0.773002 4.497059,0.210814 6.66006,0.610814 10.850999,2.889001 22.26674,3.781057 33.37574,2.067057 5.450001,-0.775999 10.850295,-2.090962 15.930295,-4.298963 4.7,-2.090999 9.21,-5.028321 12.33,-9.211323 2.68,-3.524 4.08967,-8.0339194 3.71967,-12.450919 V 1.2888 l -0.01,-0.075964 -0.0202,0.07183 c 0,0.00201 1.8e-4,0.0042 -0.01,0.0062 -1.8,5.2299997 -5.43997,9.641674 -9.73997,13.090674 -5.88,4.663002 -13.300199,7.753264 -20.890201,7.298263 5.010002,-3.831 9.10993,-9.761372 9.229929,-16.2563729 v -0.05271 l -0.02997,0.042891 C 93.468887,11.988611 88.139125,18.678768 80.609124,21.940768 c -4.697998,1.69 -10.165125,1.92383 -14.692125,-0.375171 -0.13,-0.071 -0.276942,-0.128704 -0.398941,-0.206706 -0.118002,-0.076 -0.206881,-0.173191 -0.24288,-0.314193 5.585,-1.91 9.903013,-7.11893 10.373008,-13.0369302 l 0.0026,-0.042891 -0.03101,0.031006 c -3.451,3.4040002 -7.207892,6.5977262 -11.432891,9.0387252 -5.701001,3.425 -13.51411,2.954885 -18.74511,-1.221114 -2.028,-1.652 -3.065653,-3.989775 -3.364653,-6.4817752 -0.299001,-2.4920001 0.141668,-5.1391658 1.06867,-7.4031657 l 0.01498,-0.03669 -0.03669,0.017571 c -2.658999,1.2 -4.447976,3.8580171 -4.730977,6.705017 -0.280998,2.2529999 0.09669,4.5539979 0.82269,6.6889979 -0.033,0.047 -0.07282,0.07433 -0.117822,0.08733 -0.046,0.013 -0.09693,0.0121 -0.151929,0.0031 -0.108,-0.017 -0.222877,-0.06348 -0.319878,-0.07648 h -0.0021 C 34.986115,14.402403 31.419106,12.829724 28.698107,10.225724 25.931105,7.6937238 24.829748,3.7068216 25.650747,0.07182181 l 0.01603,-0.072347133 -0.04496,0.059944793 C 23.552821,2.7874194 22.611105,6.45448 23.411102,9.81748 c 0.729002,2.87 2.799125,5.222001 5.244127,6.797001 3.870999,2.556999 8.441877,3.731236 12.942879,4.600236 -1.150001,2.003999 -3.156101,3.410177 -4.935101,4.814176 -0.260998,0.155001 -0.506979,0.41285 -0.769977,0.611849 -0.262001,0.198001 -0.53793,0.335764 -0.86093,0.254764 -8.643001,-2.113999 -17.734312,-2.748682 -26.5193116,-1.31568 l -0.00982,0.0021 -0.00414,0.0098 C 8.0528285,27.211724 7.6069767,28.807411 7.2549766,30.45241 l -0.00206,0.01241 0.010335,0.0047 c 5.0449994,3.050998 10.0899934,6.147142 15.1349934,9.221142 -3.474,7.372001 -5.960469,15.473214 -5.655469,23.711215 0.423,5.219999 1.338069,10.429756 3.100069,15.389756 1.196,3.21 2.629281,6.380023 4.925282,8.940022 C 16.883128,93.631645 8.9049279,99.421784 1.0419278,105.32179 M 25.185142,28.807536 c 0.180001,-0.004 0.358817,0.01529 0.533818,0.05529 0.350001,0.08 0.686853,0.24302 0.981852,0.463021 0.59,0.439999 1.02144,1.111996 1.092439,1.833996 0.142001,1.372 -1.015162,2.670715 -2.363163,2.811714 -1.561,0.142002 -2.99991,-1.39102 -2.786909,-2.92902 v -0.0021 c 0.188999,-1.016 0.989046,-1.934708 2.005046,-2.148708 0.177999,-0.053 0.357918,-0.08023 0.536917,-0.08423 z"
       style="color:#000000;font-variant-ligatures:none;font-variant-position:normal;font-variant-caps:normal;font-variant-numeric:normal;font-variant-alternates:normal;font-feature-settings:normal;text-indent:0;text-decoration:none;text-decoration-line:none;text-decoration-style:solid;text-decoration-color:#000000;text-transform:none;white-space:normal;shape-padding:0;isolation:auto;mix-blend-mode:normal;solid-color:#000000;fill:#ffffff;fill-opacity:1;stroke-width:1;color-rendering:auto;image-rendering:auto;shape-rendering:auto" />
    <path
       style="color:#000000;font-variant-ligatures:none;font-variant-position:normal;font-variant-caps:normal;font-variant-numeric:normal;font-variant-alternates:normal;font-feature-settings:normal;text-indent:0;text-decoration:none;text-decoration-line:none;text-decoration-style:solid;text-decoration-color:#000000;text-transform:none;white-space:normal;shape-padding:0;isolation:auto;mix-blend-mode:normal;solid-color:#000000;fill:#ffffff;fill-opacity:1;color-rendering:auto;image-rendering:auto;shape-rendering:auto"
       d="m 79.264,88.801654 c -0.46,0.01 -0.93,0.01 -1.39,0.02 -11.152,0.24 -22.241,2.78 -32.774,6.42 -10.73,3.85 -21.224,8.759996 -30.407,15.549996 h -0.007 l -0.043,0.03 h 0.053 c 9.341,-0.28 18.354,3.55 25.702,9.11 l 0.016,0.01 0.008,-0.01 c 4.039,-6.56 9.087,-12.61 15.285,-17.26 6.924,-4.999996 15.702,-6.949996 24.127,-6.289996 8.34,0.61 16.55,4.289996 22.16,10.559996 1.71,2.39 2.44,5.51 1.76,8.39 -0.68,2.91 -2.67,5.35 -4.9,7.28 -3.36,2.76 -7.42,4.67 -11.67,5.53 -7.3,1.2 -15.05,0.35 -21.959,3.55 -9.75,4.68 -17.761,13.18 -21.356,23.45 l -0.004,0.01 h 0.01 c 7.54,5.71 16.772,10.2 26.453,9.52 9.226,-0.47 18.386,-3.33 26.066,-8.55 4.25,0.97 8.55,2.35 12.96,2.33 5.15,-0.03 10.51,-3.06 12.21,-8.09 v -0.02 h -0.02 c -5.61,-1.55 -11.31,-2.66 -17.02,-3.71 -0.03,-0.03 -0.08,-0.06 -0.12,-0.09 -0.04,-0.03 -0.07,-0.05 -0.1,-0.07 3.4,-3.09 6.64,-6.3 9.67,-9.73 5.21,-5.47 7.8,-12.78 10.05,-19.8 0.13,-0.26 0.16,-0.63 0.25,-0.93 0.04,-0.15 0.1,-0.29 0.19,-0.39 0.09,-0.1 0.21,-0.16 0.39,-0.17 h 0.01 c 2.42,-0.68 4.86,-1.34 7.16,-2.38 1.88,-0.87 3.49,-2.54 3.91,-4.61 0.42,-2.24 -0.35,-4.57 -1.72,-6.35 l -0.01,-0.01 h -0.01 c -4.06,2.14 -8.02,4.48 -12.1,6.62 -1.91,-4.37 -5.52,-7.65 -9.32,-10.349996 -7.1,-4.79 -15.3,-7.87 -23.75,-8.98 -3.25,-0.41 -6.51,-0.6 -9.76,-0.59 z M 62.598,145.83165 c 1.709,0.08 3.419,1.35 3.564,3.13 0.141,1.02 -0.29,1.97 -1,2.66 -0.71,0.68 -1.699,1.11 -2.678,1.07 -1.77,0.1 -3.631,-1.25 -3.796,-3.04 -0.284,-1.91 1.39,-3.56 3.207,-3.78 0.119,-0.02 0.24,-0.03 0.361,-0.04 z"
       id="path26"
       inkscape:connector-curvature="0" />
    <path
       style="color:#000000;font-variant-ligatures:none;font-variant-position:normal;font-variant-caps:normal;font-variant-numeric:normal;font-variant-alternates:normal;font-feature-settings:normal;text-indent:0;text-decoration:none;text-decoration-line:none;text-decoration-style:solid;text-decoration-color:#000000;text-transform:none;white-space:normal;shape-padding:0;isolation:auto;mix-blend-mode:normal;solid-color:#000000;fill:#ffffff;fill-opacity:1;color-rendering:auto;image-rendering:auto;shape-rendering:auto"
       d="m 101.344,108.19165 0.01,0.07 c 0.47,2.91 -0.14,6.12 -2.15,8.35 -3.76,4.13 -9.69,5.04 -15,5.18 l -0.01,0.01 v 0.01 c -0.1,1.76 -0.5,3.43 -0.61,5.19 l -0.01,0.02 h 0.02 c 4.23,-0.03 8.25,-1.81 11.68,-4.14 2.59,-1.74 5.08,-3.9 6.44,-6.77 1.2,-2.45 1.2,-5.55 -0.33,-7.86 z"
       id="path28"
       inkscape:connector-curvature="0" />
    <path
       style="color:#000000;font-variant-ligatures:none;font-variant-position:normal;font-variant-caps:normal;font-variant-numeric:normal;font-variant-alternates:normal;font-feature-settings:normal;text-indent:0;text-decoration:none;text-decoration-line:none;text-decoration-style:solid;text-decoration-color:#000000;text-transform:none;white-space:normal;shape-padding:0;isolation:auto;mix-blend-mode:normal;solid-color:#000000;fill:#ffffff;fill-opacity:1;color-rendering:auto;image-rendering:auto;shape-rendering:auto"
       d="m 0,203.43165 v 11.46 h 0.527 2.01 v -5.17 h 4.227 v -1.62 H 2.537 v -3.05 H 7.61 v -1.62 z"
       id="path34"
       inkscape:connector-curvature="0" />
    <path
       style="color:#000000;font-variant-ligatures:none;font-variant-position:normal;font-variant-caps:normal;font-variant-numeric:normal;font-variant-alternates:normal;font-feature-settings:normal;text-indent:0;text-decoration:none;text-decoration-line:none;text-decoration-style:solid;text-decoration-color:#000000;text-transform:none;white-space:normal;shape-padding:0;isolation:auto;mix-blend-mode:normal;solid-color:#000000;fill:#ffffff;fill-opacity:1;color-rendering:auto;image-rendering:auto;shape-rendering:auto"
       d="m 9.676,203.43165 v 11.47 h 2.539 v -0.53 -10.94 z"
       id="path36"
       inkscape:connector-curvature="0" />
    <path
       style="color:#000000;font-variant-ligatures:none;font-variant-position:normal;font-variant-caps:normal;font-variant-numeric:normal;font-variant-alternates:normal;font-feature-settings:normal;text-indent:0;text-decoration:none;text-decoration-line:none;text-decoration-style:solid;text-decoration-color:#000000;text-transform:none;white-space:normal;shape-padding:0;isolation:auto;mix-blend-mode:normal;solid-color:#000000;fill:#ffffff;fill-opacity:1;color-rendering:auto;image-rendering:auto;shape-rendering:auto"
       d="m 17.584,203.19165 c -0.931,0 -1.773,0.3 -2.449,0.87 -0.745,0.61 -1.133,1.47 -1.133,2.4 0,1.02 0.511,1.9 1.346,2.57 l 0.01,0.01 0.007,0.01 c 0.407,0.3 1.011,0.69 1.85,1.14 0.808,0.44 1.355,0.79 1.66,1.03 l 0.01,0.01 0.012,0.01 c 0.486,0.35 0.648,0.68 0.648,1.07 0,0.37 -0.117,0.6 -0.426,0.84 -0.304,0.21 -0.642,0.32 -1.111,0.32 -0.463,0 -0.886,-0.09 -1.272,-0.31 h -0.005 -0.004 c -0.416,-0.22 -0.696,-0.49 -0.877,-0.85 l -0.006,-0.01 -0.008,-0.02 c -0.107,-0.18 -0.211,-0.63 -0.211,-1.28 v -0.53 h -1.529 v 0.53 c 0,0.98 0.202,1.82 0.656,2.48 h 0.002 c 0.387,0.57 0.817,0.99 1.303,1.23 l 0.011,0.01 h 0.012 c 0.399,0.18 0.798,0.31 1.221,0.35 0.301,0.05 0.581,0.05 0.871,0.05 0.985,0 1.879,-0.28 2.611,-0.87 l 0.006,-0.01 h 0.004 c 0.757,-0.65 1.172,-1.54 1.172,-2.54 0,-0.48 -0.115,-0.96 -0.338,-1.41 -0.285,-0.57 -0.757,-1.06 -1.394,-1.49 -0.279,-0.19 -0.801,-0.5 -1.639,-0.92 -1.16,-0.65 -1.89,-1.17 -2.104,-1.42 -0.151,-0.19 -0.209,-0.34 -0.209,-0.54 0,-0.29 0.095,-0.51 0.381,-0.73 h 0.004 0.004 c 0.269,-0.22 0.568,-0.33 0.914,-0.33 h 0.024 l 0.023,-0.01 c 0.419,-0.03 0.835,0.07 1.299,0.35 h 0.004 0.002 c 0.306,0.19 0.653,0.73 0.828,1.75 l 0.074,0.44 h 0.916 l 0.555,0.01 -0.026,-0.56 c -0.026,-0.62 -0.187,-1.2 -0.418,-1.74 h -0.002 c -0.196,-0.45 -0.515,-0.88 -0.978,-1.23 -0.528,-0.43 -1.273,-0.61 -2.262,-0.68 h -0.019 z"
       id="path38"
       inkscape:connector-curvature="0" />
    <path
       style="color:#000000;font-variant-ligatures:none;font-variant-position:normal;font-variant-caps:normal;font-variant-numeric:normal;font-variant-alternates:normal;font-feature-settings:normal;text-indent:0;text-decoration:none;text-decoration-line:none;text-decoration-style:solid;text-decoration-color:#000000;text-transform:none;white-space:normal;shape-padding:0;isolation:auto;mix-blend-mode:normal;solid-color:#000000;fill:#ffffff;fill-opacity:1;color-rendering:auto;image-rendering:auto;shape-rendering:auto"
       d="m 23.512,203.43165 v 0.74 l 0.023,10.73 h 2.514 v -5.01 h 3.779 v 5.01 h 2.514 v -0.98 -10.49 h -2.514 v 0.53 4.29 h -3.779 v -4.82 z"
       id="path40"
       inkscape:connector-curvature="0" />
    <path
       style="color:#000000;font-variant-ligatures:none;font-variant-position:normal;font-variant-caps:normal;font-variant-numeric:normal;font-variant-alternates:normal;font-feature-settings:normal;text-indent:0;text-decoration:none;text-decoration-line:none;text-decoration-style:solid;text-decoration-color:#000000;text-transform:none;white-space:normal;shape-padding:0;isolation:auto;mix-blend-mode:normal;solid-color:#000000;fill:#ffffff;fill-opacity:1;color-rendering:auto;image-rendering:auto;shape-rendering:auto"
       d="m 34.969,203.43165 v 11.47 h 2.537 v -0.53 -10.94 z"
       id="path42"
       inkscape:connector-curvature="0" />
    <path
       style="color:#000000;font-variant-ligatures:none;font-variant-position:normal;font-variant-caps:normal;font-variant-numeric:normal;font-variant-alternates:normal;font-feature-settings:normal;text-indent:0;text-decoration:none;text-decoration-line:none;text-decoration-style:solid;text-decoration-color:#000000;text-transform:none;white-space:normal;shape-padding:0;isolation:auto;mix-blend-mode:normal;solid-color:#000000;fill:#ffffff;fill-opacity:1;color-rendering:auto;image-rendering:auto;shape-rendering:auto"
       d="m 40.172,203.43165 v 0.53 10.94 h 1.74 v -7.25 l 6.078,7.41 h 1.037 v -11.63 h -1.714 v 6.85 l -5.584,-6.85 z"
       id="path44"
       inkscape:connector-curvature="0" />
    <path
       style="color:#000000;font-variant-ligatures:none;font-variant-position:normal;font-variant-caps:normal;font-variant-numeric:normal;font-variant-alternates:normal;font-feature-settings:normal;text-indent:0;text-decoration:none;text-decoration-line:none;text-decoration-style:solid;text-decoration-color:#000000;text-transform:none;white-space:normal;shape-padding:0;isolation:auto;mix-blend-mode:normal;solid-color:#000000;fill:#ffffff;fill-opacity:1;color-rendering:auto;image-rendering:auto;shape-rendering:auto"
       d="m 56.106,202.97165 c -1.068,0 -2.065,0.26 -2.948,0.81 -0.906,0.52 -1.613,1.28 -2.121,2.22 h -0.002 -0.002 c -0.487,0.93 -0.742,1.98 -0.742,3.09 0,1.39 0.389,2.64 1.164,3.67 0.001,0.01 0,0.01 0,0.01 1.032,1.41 2.573,2.14 4.414,2.14 0.924,0 1.849,-0.21 2.819,-0.64 0.017,0 0.032,-0.01 0.048,-0.02 0.384,-0.22 0.941,-0.54 1.709,-0.96 l 0.276,-0.15 v -4.98 h -3.947 v 1.95 h 0.529 c 0.298,0 0.506,0.04 0.619,0.09 0.114,0.04 0.131,0.07 0.152,0.11 l 0.037,0.08 0.024,0.02 v 0.09 2.04 c -0.737,0.37 -1.385,0.63 -1.678,0.63 -0.686,0 -1.262,-0.17 -1.793,-0.47 -0.526,-0.33 -0.906,-0.74 -1.144,-1.34 l -0.004,-0.01 -0.004,-0.01 c -0.269,-0.6 -0.424,-1.35 -0.424,-2.23 0,-2.18 0.562,-3.45 1.563,-4.1 0.458,-0.28 0.991,-0.44 1.572,-0.44 0.593,0 1.083,0.14 1.556,0.39 0.388,0.21 0.93,0.74 1.543,1.56 l 0.286,0.38 1.082,-0.65 -0.247,-0.44 c -0.551,-1 -1.225,-1.74 -2.011,-2.24 H 58.426 58.42 c -0.68,-0.41 -1.465,-0.6 -2.314,-0.6 z"
       id="path46"
       inkscape:connector-curvature="0" />
    <path
       style="color:#000000;font-variant-ligatures:none;font-variant-position:normal;font-variant-caps:normal;font-variant-numeric:normal;font-variant-alternates:normal;font-feature-settings:normal;text-indent:0;text-decoration:none;text-decoration-line:none;text-decoration-style:solid;text-decoration-color:#000000;text-transform:none;white-space:normal;shape-padding:0;isolation:auto;mix-blend-mode:normal;solid-color:#000000;fill:#ffffff;fill-opacity:1;color-rendering:auto;image-rendering:auto;shape-rendering:auto"
       d="m 82.834,203.43165 v 0.74 l 0.02,10.73 h 2.52 v -5.01 h 3.78 v 5.01 h 2.51 v -0.98 -10.49 h -2.51 v 0.53 4.29 h -3.78 v -4.82 z"
       id="path48"
       inkscape:connector-curvature="0" />
    <path
       style="color:#000000;font-variant-ligatures:none;font-variant-position:normal;font-variant-caps:normal;font-variant-numeric:normal;font-variant-alternates:normal;font-feature-settings:normal;text-indent:0;text-decoration:none;text-decoration-line:none;text-decoration-style:solid;text-decoration-color:#000000;text-transform:none;white-space:normal;shape-padding:0;isolation:auto;mix-blend-mode:normal;solid-color:#000000;fill:#ffffff;fill-opacity:1;color-rendering:auto;image-rendering:auto;shape-rendering:auto"
       d="m 94.034,203.42165 v 6.45 c 0,1.27 0.04,2.13 0.27,2.74 0.3,0.83 0.85,1.49 1.59,1.92 0.75,0.42 1.67,0.61 2.75,0.61 1.11,0 2.04,-0.22 2.77,-0.72 0.72,-0.49 1.25,-1.18 1.5,-2 0.19,-0.59 0.26,-1.35 0.26,-2.34 v -6.63 h -1.74 v 6.56 c 0,1.07 -0.13,1.8 -0.27,2.15 -0.16,0.38 -0.46,0.68 -0.96,0.92 h -0.01 c -0.45,0.23 -0.92,0.35 -1.48,0.35 -0.88,0 -1.39,-0.27 -1.74,-0.77 -0.22,-0.36 -0.4,-1.15 -0.4,-2.32 v -6.92 z"
       id="path50"
       inkscape:connector-curvature="0" />
    <path
       style="color:#000000;font-variant-ligatures:none;font-variant-position:normal;font-variant-caps:normal;font-variant-numeric:normal;font-variant-alternates:normal;font-feature-settings:normal;text-indent:0;text-decoration:none;text-decoration-line:none;text-decoration-style:solid;text-decoration-color:#000000;text-transform:none;white-space:normal;shape-padding:0;isolation:auto;mix-blend-mode:normal;solid-color:#000000;fill:#ffffff;fill-opacity:1;color-rendering:auto;image-rendering:auto;shape-rendering:auto"
       d="m 105.604,203.43165 v 0.53 10.94 h 1.74 v -7.25 l 6.08,7.41 h 1.04 v -11.63 h -1.72 v 6.84 l -5.58,-6.84 z"
       id="path52"
       inkscape:connector-curvature="0" />
    <path
       style="color:#000000;font-variant-ligatures:none;font-variant-position:normal;font-variant-caps:normal;font-variant-numeric:normal;font-variant-alternates:normal;font-feature-settings:normal;text-indent:0;text-decoration:none;text-decoration-line:none;text-decoration-style:solid;text-decoration-color:#000000;text-transform:none;white-space:normal;shape-padding:0;isolation:auto;mix-blend-mode:normal;solid-color:#000000;fill:#ffffff;fill-opacity:1;color-rendering:auto;image-rendering:auto;shape-rendering:auto"
       d="m 115.704,203.44165 v 1.75 l 3.47,-0.03 v 9.72 h 2.54 v -9.72 h 3.54 v -1.72 z"
       id="path54"
       inkscape:connector-curvature="0" />
    <path
       style="color:#000000;font-variant-ligatures:none;font-variant-position:normal;font-variant-caps:normal;font-variant-numeric:normal;font-variant-alternates:normal;font-feature-settings:normal;text-indent:0;text-decoration:none;text-decoration-line:none;text-decoration-style:solid;text-decoration-color:#000000;text-transform:none;white-space:normal;shape-padding:0;isolation:auto;mix-blend-mode:normal;solid-color:#000000;fill:#ffffff;fill-opacity:1;color-rendering:auto;image-rendering:auto;shape-rendering:auto"
       d="m 126.574,203.43165 v 11.47 h 2.54 v -0.53 -10.94 z"
       id="path56"
       inkscape:connector-curvature="0" />
    <path
       style="color:#000000;font-variant-ligatures:none;font-variant-position:normal;font-variant-caps:normal;font-variant-numeric:normal;font-variant-alternates:normal;font-feature-settings:normal;text-indent:0;text-decoration:none;text-decoration-line:none;text-decoration-style:solid;text-decoration-color:#000000;text-transform:none;white-space:normal;shape-padding:0;isolation:auto;mix-blend-mode:normal;solid-color:#000000;fill:#ffffff;fill-opacity:1;color-rendering:auto;image-rendering:auto;shape-rendering:auto"
       d="m 131.774,203.43165 v 0.53 10.94 h 1.74 v -7.25 l 6.08,7.41 h 1.04 v -11.63 h -1.72 v 6.84 l -5.59,-6.84 z"
       id="path58"
       inkscape:connector-curvature="0" />
    <path
       style="color:#000000;font-variant-ligatures:none;font-variant-position:normal;font-variant-caps:normal;font-variant-numeric:normal;font-variant-alternates:normal;font-feature-settings:normal;text-indent:0;text-decoration:none;text-decoration-line:none;text-decoration-style:solid;text-decoration-color:#000000;text-transform:none;white-space:normal;shape-padding:0;isolation:auto;mix-blend-mode:normal;solid-color:#000000;fill:#ffffff;fill-opacity:1;color-rendering:auto;image-rendering:auto;shape-rendering:auto"
       d="m 147.704,202.97165 c -1.07,0 -2.06,0.26 -2.95,0.81 -0.9,0.52 -1.61,1.28 -2.12,2.22 -0.49,0.93 -0.74,1.98 -0.74,3.09 0,1.39 0.38,2.64 1.16,3.67 1.03,1.42 2.57,2.15 4.42,2.15 0.92,0 1.85,-0.21 2.82,-0.64 0.6,-0.33 1.21,-0.68 1.75,-0.98 l 0.28,-0.15 -0.03,-4.98 h -3.92 v 1.95 h 0.53 c 0.3,0 0.51,0.04 0.62,0.09 0.11,0.04 0.13,0.07 0.15,0.11 l 0.04,0.08 0.02,0.03 v 0.08 2.04 c -0.74,0.37 -1.38,0.63 -1.68,0.63 -0.68,0 -1.26,-0.17 -1.79,-0.47 -0.53,-0.33 -0.91,-0.75 -1.17,-1.35 -0.25,-0.61 -0.4,-1.36 -0.4,-2.24 0,-2.18 0.56,-3.45 1.56,-4.1 0.46,-0.28 0.99,-0.44 1.57,-0.44 0.59,0 1.08,0.14 1.56,0.39 0.38,0.21 0.92,0.74 1.54,1.56 l 0.29,0.38 1.08,-0.65 -0.25,-0.45 c -0.57,-0.99 -1.22,-1.73 -2.01,-2.23 h -0.01 c -0.68,-0.41 -1.47,-0.6 -2.32,-0.6 z"
       id="path60"
       inkscape:connector-curvature="0" />
    <path
       style="color:#000000;font-variant-ligatures:none;font-variant-position:normal;font-variant-caps:normal;font-variant-numeric:normal;font-variant-alternates:normal;font-feature-settings:normal;text-indent:0;text-decoration:none;text-decoration-line:none;text-decoration-style:solid;text-decoration-color:#000000;text-transform:none;white-space:normal;shape-padding:0;isolation:auto;mix-blend-mode:normal;solid-color:#000000;fill:#ffffff;fill-opacity:1;color-rendering:auto;image-rendering:auto;shape-rendering:auto"
       d="m 44.274,218.67165 c -1.049,0 -2.042,0.26 -2.922,0.78 -0.931,0.54 -1.662,1.33 -2.172,2.3 -0.49,0.93 -0.719,1.96 -0.719,3.04 0,1.39 0.385,2.64 1.158,3.67 h 0.002 c 1.032,1.42 2.576,2.14 4.442,2.14 2.025,0 3.679,-1.04 4.757,-2.94 l 0.254,-0.45 -1.088,-0.65 -0.287,0.38 c -0.519,0.7 -0.985,1.18 -1.351,1.43 H 46.344 46.34 c -0.463,0.33 -1.025,0.49 -1.715,0.49 -0.686,0 -1.261,-0.16 -1.793,-0.46 -1.043,-0.65 -1.551,-1.75 -1.551,-3.59 0,-1.1 0.136,-1.97 0.426,-2.65 l 0.002,-0.01 c 0.552,-1.34 1.347,-1.88 2.705,-1.88 0.57,0 1.093,0.14 1.531,0.38 0.394,0.22 0.952,0.75 1.536,1.58 l 0.304,0.43 1.072,-0.77 -0.247,-0.39 c -0.55,-0.97 -1.217,-1.73 -2.01,-2.23 h -0.002 c -0.664,-0.42 -1.453,-0.6 -2.324,-0.6 z"
       id="path62"
       inkscape:connector-curvature="0" />
    <path
       style="color:#000000;font-variant-ligatures:none;font-variant-position:normal;font-variant-caps:normal;font-variant-numeric:normal;font-variant-alternates:normal;font-feature-settings:normal;text-indent:0;text-decoration:none;text-decoration-line:none;text-decoration-style:solid;text-decoration-color:#000000;text-transform:none;white-space:normal;shape-padding:0;isolation:auto;mix-blend-mode:normal;solid-color:#000000;fill:#ffffff;fill-opacity:1;color-rendering:auto;image-rendering:auto;shape-rendering:auto"
       d="m 50.121,219.14165 v 0.74 l 0.024,10.72 h 2.513 v -5 h 3.78 v 5 h 2.513 v -0.98 -10.48 h -2.513 v 0.53 4.28 h -3.78 v -4.81 z"
       id="path64"
       inkscape:connector-curvature="0" />
    <path
       style="color:#000000;font-variant-ligatures:none;font-variant-position:normal;font-variant-caps:normal;font-variant-numeric:normal;font-variant-alternates:normal;font-feature-settings:normal;text-indent:0;text-decoration:none;text-decoration-line:none;text-decoration-style:solid;text-decoration-color:#000000;text-transform:none;white-space:normal;shape-padding:0;isolation:auto;mix-blend-mode:normal;solid-color:#000000;fill:#ffffff;fill-opacity:1;color-rendering:auto;image-rendering:auto;shape-rendering:auto"
       d="m 65.383,218.91165 -0.138,0.32 -4.913,11.33 1.915,0.06 1.508,-3.51 h 3.316 l 0.497,1.18 -0.002,-0.01 c 0.131,0.33 0.238,0.58 0.314,0.76 0.076,0.17 0.13,0.34 0.109,0.25 l 0.007,0.03 0.466,1.27 H 71.6 l -5.269,-11.68 z m 0.06,4.26 0.972,2.32 h -1.97 z"
       id="path66"
       inkscape:connector-curvature="0" />
    <path
       style="color:#000000;font-variant-ligatures:none;font-variant-position:normal;font-variant-caps:normal;font-variant-numeric:normal;font-variant-alternates:normal;font-feature-settings:normal;text-indent:0;text-decoration:none;text-decoration-line:none;text-decoration-style:solid;text-decoration-color:#000000;text-transform:none;white-space:normal;shape-padding:0;isolation:auto;mix-blend-mode:normal;solid-color:#000000;fill:#ffffff;fill-opacity:1;color-rendering:auto;image-rendering:auto;shape-rendering:auto"
       d="m 72.895,219.14165 v 0.53 10.93 h 1.74 v -7.25 l 6.079,7.41 h 1.04 v -11.62 h -1.72 v 6.84 l -5.585,-6.84 z"
       id="path68"
       inkscape:connector-curvature="0" />
    <path
       style="color:#000000;font-variant-ligatures:none;font-variant-position:normal;font-variant-caps:normal;font-variant-numeric:normal;font-variant-alternates:normal;font-feature-settings:normal;text-indent:0;text-decoration:none;text-decoration-line:none;text-decoration-style:solid;text-decoration-color:#000000;text-transform:none;white-space:normal;shape-padding:0;isolation:auto;mix-blend-mode:normal;solid-color:#000000;fill:#ffffff;fill-opacity:1;color-rendering:auto;image-rendering:auto;shape-rendering:auto"
       d="m 84.234,219.14165 v 0.53 10.93 h 1.74 v -7.25 l 6.08,7.41 h 1.04 v -11.62 h -1.72 v 6.84 l -5.58,-6.84 z"
       id="path70"
       inkscape:connector-curvature="0" />
    <path
       style="color:#000000;font-variant-ligatures:none;font-variant-position:normal;font-variant-caps:normal;font-variant-numeric:normal;font-variant-alternates:normal;font-feature-settings:normal;text-indent:0;text-decoration:none;text-decoration-line:none;text-decoration-style:solid;text-decoration-color:#000000;text-transform:none;white-space:normal;shape-padding:0;isolation:auto;mix-blend-mode:normal;solid-color:#000000;fill:#ffffff;fill-opacity:1;color-rendering:auto;image-rendering:auto;shape-rendering:auto"
       d="m 95.524,219.13165 v 11.47 h 7.61 v -0.53 -1.1 h -4.74 c -0.2,0 -0.31,-0.04 -0.3,-0.03 -0.01,0 -0.01,0.01 -0.01,-0.06 v -0.55 -2.9 h 4.2 v -1.62 h -4.2 v -3.05 h 5.05 v -1.63 z"
       id="path72"
       inkscape:connector-curvature="0" />
    <path
       style="color:#000000;font-variant-ligatures:none;font-variant-position:normal;font-variant-caps:normal;font-variant-numeric:normal;font-variant-alternates:normal;font-feature-settings:normal;text-indent:0;text-decoration:none;text-decoration-line:none;text-decoration-style:solid;text-decoration-color:#000000;text-transform:none;white-space:normal;shape-padding:0;isolation:auto;mix-blend-mode:normal;solid-color:#000000;fill:#ffffff;fill-opacity:1;color-rendering:auto;image-rendering:auto;shape-rendering:auto"
       d="m 107.684,219.13165 -2.54,0.04 v 11.43 h 7.47 l 0.12,-0.37 0.43,-1.35 h -4.41 -0.75 c -0.14,-0.02 -0.24,-0.05 -0.27,-0.06 l -0.02,-0.03 c 0.06,0.09 -0.03,-0.15 -0.03,-0.58 z"
       id="path74"
       inkscape:connector-curvature="0" />
    <path
       style="color:#000000;font-variant-ligatures:none;font-variant-position:normal;font-variant-caps:normal;font-variant-numeric:normal;font-variant-alternates:normal;font-feature-settings:normal;text-indent:0;text-decoration:none;text-decoration-line:none;text-decoration-style:solid;text-decoration-color:#000000;text-transform:none;white-space:normal;shape-padding:0;isolation:auto;mix-blend-mode:normal;solid-color:#000000;fill:#ffffff;fill-opacity:1;color-rendering:auto;image-rendering:auto;shape-rendering:auto"
       d="m 66.617,191.89165 v 1.49 l 2.067,-0.03 v 5.85 h 1.951 v -5.85 h 2.137 v -1.46 z"
       id="path76"
       inkscape:connector-curvature="0" />
    <path
       style="color:#000000;font-variant-ligatures:none;font-variant-position:normal;font-variant-caps:normal;font-variant-numeric:normal;font-variant-alternates:normal;font-feature-settings:normal;text-indent:0;text-decoration:none;text-decoration-line:none;text-decoration-style:solid;text-decoration-color:#000000;text-transform:none;white-space:normal;shape-padding:0;isolation:auto;mix-blend-mode:normal;solid-color:#000000;fill:#ffffff;fill-opacity:1;color-rendering:auto;image-rendering:auto;shape-rendering:auto"
       d="m 73.067,191.89165 v 0.64 6.66 h 1.951 v -3 h 1.826 v 3 h 1.93 v -0.79 -6.51 h -1.93 v 0.53 2.35 h -1.826 v -2.88 z"
       id="path78"
       inkscape:connector-curvature="0" />
    <path
       style="color:#000000;font-variant-ligatures:none;font-variant-position:normal;font-variant-caps:normal;font-variant-numeric:normal;font-variant-alternates:normal;font-feature-settings:normal;text-indent:0;text-decoration:none;text-decoration-line:none;text-decoration-style:solid;text-decoration-color:#000000;text-transform:none;white-space:normal;shape-padding:0;isolation:auto;mix-blend-mode:normal;solid-color:#000000;fill:#ffffff;fill-opacity:1;color-rendering:auto;image-rendering:auto;shape-rendering:auto"
       d="m 79.894,191.88165 v 7.31 h 4.98 v -0.53 -0.86 h -3.03 v -0.18 -1.53 h 2.53 v -1.39 h -2.53 v -1.41 h 3.03 v -1.41 z"
       id="path80"
       inkscape:connector-curvature="0" />
    <path
       style="color:#000000;font-variant-ligatures:none;font-variant-position:normal;font-variant-caps:normal;font-variant-numeric:normal;font-variant-alternates:normal;font-feature-settings:normal;text-indent:0;text-decoration:none;text-decoration-line:none;text-decoration-style:solid;text-decoration-color:#000000;text-transform:none;white-space:normal;shape-padding:0;isolation:auto;mix-blend-mode:normal;solid-color:#000000;fill:#ffffff;fill-opacity:1;color-rendering:auto;image-rendering:auto;shape-rendering:auto"
       d="m 71.282,203.20165 c -0.741,0 -1.436,0.2 -2.022,0.65 -0.793,0.54 -1.184,1.43 -1.184,2.42 0,0.61 0.2,1.3 0.498,2.06 -0.89,0.52 -1.629,1.07 -2.14,1.67 -0.589,0.7 -0.918,1.49 -0.918,2.3 0,0.86 0.384,1.63 1.081,2.14 0.618,0.48 1.379,0.69 2.196,0.69 1.127,0 2.247,-0.47 3.325,-1.33 0.882,0.84 1.783,1.33 2.71,1.33 0.713,0 1.366,-0.22 1.866,-0.66 0.5,-0.44 0.83,-1.07 1.02,-1.85 l 0.08,-0.34 -1.18,-0.89 -0.205,0.75 c -0.084,0.3 -0.201,0.47 -0.332,0.57 -0.13,0.11 -0.295,0.17 -0.568,0.17 -0.438,0 -0.919,-0.29 -1.456,-0.81 0.569,-0.71 0.978,-1.47 1.11,-2.29 0.148,-0.91 0.165,-1.64 -0.044,-2.27 l -0.121,-0.36 h -1.42 l 0.232,0.7 c 0.06,0.17 0.07,0.64 -0.103,1.29 h -10e-4 -0.001 c -0.115,0.45 -0.418,0.95 -0.812,1.47 -0.458,-0.66 -0.909,-1.35 -1.347,-2.09 0.497,-0.28 1.005,-0.56 1.304,-0.82 h 0.001 0.001 c 0.654,-0.57 1.026,-1.32 1.026,-2.11 0,-0.7 -0.298,-1.33 -0.82,-1.77 -0.482,-0.42 -1.111,-0.62 -1.776,-0.62 z m -0.023,1.6 c 0.205,0 0.326,0.07 0.479,0.22 0.132,0.17 0.19,0.3 0.19,0.54 0,0.35 -0.104,0.64 -0.354,0.94 -0.164,0.2 -0.427,0.4 -0.737,0.59 -0.239,-0.66 -0.387,-1.19 -0.387,-1.43 0,-0.27 0.064,-0.43 0.22,-0.59 l 0.009,-0.01 0.007,-0.01 c 0.167,-0.18 0.33,-0.25 0.573,-0.25 z m -1.959,5.02 c 0.454,0.83 1.019,1.72 1.711,2.69 -0.585,0.4 -1.08,0.63 -1.42,0.63 -0.446,0 -0.741,-0.12 -1.023,-0.42 -0.279,-0.3 -0.396,-0.63 -0.396,-1.12 0,-0.65 0.344,-1.22 1.128,-1.78 z"
       id="path82"
       inkscape:connector-curvature="0" />
  </g>
</svg>
