<svg height="551pt" viewBox="0 0 2734.1706 551" width="2734.1707pt" xmlns="http://www.w3.org/2000/svg"><g fill="#da243d"><path d="m1490.37.02 108.25-.02.02 437.99h-108.28z"/><path d="m44.7 62h108.3v74h69.62l.01 87.99-69.63.01v89.03c0 9.99-.35 20.14 2.07 29.92 2.78 8.66 10.51 14.85 18.55 18.47 14.55 5.94 31 3.76 45.42-1.46l13.4 71.28c-30.65 12.67-64.29 18.12-97.34 14.97-20.66-1.79-42.56-7.39-57.52-22.67-10.34-10.66-20.53-22.07-26.39-35.9-4.95-13.25-6.04-27.6-6.47-41.63l-.01-122-44.71-.01v-88l44.7-.01z"/><path d="m1239.42 135.44c21.25-7.11 43.94-9.35 66.24-8.2 22.55 1.19 45.09 6.37 65.18 16.86 32.01 16.66 57 45.81 69.68 79.5 8.53 22.72 12.1 47.15 11.6 71.37 0 6.34-.01 12.68 0 19.03l-216.22.01c1.95 16.84 9.41 33.49 22.54 44.54 16.78 14.51 42.17 17.4 62.14 8.12 15.81-7.32 29.03-20.16 36.81-35.76l86.45 31.25c-4.54 10.15-11.28 19.1-17.21 28.45-8.65 14.26-22.89 23.85-37.09 31.95-16.66 9.52-34.67 16.78-53.54 20.46-23.91 4.84-48.65 5.22-72.78 1.75-20.79-3.14-41.2-9.85-59.21-20.82-15.24-9.2-28.75-21.21-39.83-35.13-13.05-16.45-22.09-35.93-26.74-56.38-5.49-24.1-5.84-49.25-1.97-73.62 3.41-20.64 10.66-40.71 21.85-58.41 19.07-29.97 48.15-53.96 82.1-64.97m20.15 73.14c-14.32 10.99-21.75 28.86-23.67 46.41l113.79.02c-.51-7.03-.85-14.13-2.96-20.91-4.4-16.37-17.57-30.16-33.99-34.67-17.82-4.88-38.48-2.71-53.17 9.15z"/><path d="m384.84 143.85c17.09-12.11 38.62-16.01 59.2-15.85 8.55.65 17.11 1.1 25.65 1.85l-18.79 103.24c-17.56-5.33-36.53-6.92-54.46-2.51-8.59 2.09-16.94 6.34-22.49 13.38-6.8 8.61-13.38 17.99-15.58 28.95-1.87 9.23-2.35 18.69-2.35 28.09l-.02 137-108.33-.06-.02-301.87 108.35-.07.07 48.35c5.4-15.88 14.83-30.82 28.77-40.5z"/><path d="m536.15 148.21c27.53-19.24 63.32-24.34 95.78-17.24 17.19 3.89 33.46 12.62 45.36 25.74 3.96 4.79 6.84 10.33 10.06 15.62v-36.31l108.96-.02.01 302-108.96-.01v-37.34c-7.75 13.92-18.64 26.36-32.7 34.13-12.9 7.38-27.69 10.92-42.44 11.91-21.66 1.55-43.94-1.81-63.58-11.35-32.96-16.17-56.41-47.74-67.83-82.1-10.05-31.23-12.04-64.79-7.79-97.22 3.28-23.37 11-46.27 23.76-66.2 10.37-16.15 23.49-30.73 39.37-41.61m92.04 69.01c-10.6.96-20.98 4.93-29.13 11.82-14.02 11.47-21.73 29.19-23.48 46.97-1.61 17.37-.06 35.65 7.98 51.4 6.83 13.6 18.85 24.98 33.68 29.19 13.86 3.84 29.25 3.22 42.36-2.93 16.04-7.75 27.1-23.6 31.44-40.61 3.3-12.01 3.46-24.63 2.55-36.96-1.93-19.47-11.56-38.64-27.98-49.76-10.82-7.6-24.42-10.16-37.42-9.12z"/><path d="m2149.51 129.3c22.77-3.01 46.51-1.14 67.98 7.37 25.36 9.97 46.1 29.59 60.16 52.66 9.81 16.1 16.25 34.09 19.88 52.55 3.84 18.77 4.22 38 3.61 57.09-1.47 31.89-9.47 64.17-27.27 91.02-10.03 15.23-22.94 28.71-38.29 38.63-13.51 8.7-28.91 14.29-44.76 16.75-19.35 2.89-39.58 2.39-58.23-3.95-15.61-5.31-29.33-15.76-38.77-29.25-3.12-4.24-5.52-8.92-8.15-13.45l-.03 152.28-108.27-.01v-414.97l108.25-.02.08 40.12c4.14-9.1 9.18-18.01 16.48-24.99 12.42-12.83 29.92-19.44 47.33-21.83m-19.96 89.37c-16.37 2.1-31.03 12.27-39.8 26.1-11.63 18.05-13.33 40.75-10 61.5 2.68 16.91 11.47 33.32 25.85 43.03 14.85 9.99 34.24 11.95 51.31 7.38 18.73-5.07 32.56-21.54 37.98-39.7 4.75-16.28 5.01-33.78 1.29-50.29-3.91-16.9-13.99-32.87-29.17-41.73-11.25-6.48-24.76-8.01-37.46-6.29z"/><path d="m802.34032 135.99951.009.0205h-.009l124.18943 302.02002h85.59085l124.1895-302.02002h-.01l.01-.0205h-114.4907c-12.4001 36.91-25.1795 73.70079-37.70952 110.5708-3.77003 10.93-7.50968 21.9394-9.38963 33.3794-2.15092 11.66543-4.2882 23.34206-5.39505 35.15771-1.10685-11.81567-3.24412-23.49226-5.39505-35.15771-1.87995-11.44-5.6196-22.4494-9.38963-33.3794-12.53002-36.87-25.31092-73.6608-37.7109-110.5708z"/><path d="m1613.7905 135.99951 109.4092 142.8003-120.8994 159.18017 129.0103.0498.019-.0293h.7002c11.49-16.57 23.0498-33.09991 34.5498-49.66992 4.57-6.57999 9.4197-13.04113 12.6797-20.41113 4.087-8.42765 6.4119-17.50499 8.9004-26.48437 2.4885 8.97947 4.8133 18.05662 8.9004 26.48437 3.2599 7.37 8.1097 13.83114 12.6796 20.41113 11.5001 16.57001 23.0598 33.09993 34.5498 49.66993h.7017c.01.01.013.0196.019.0293l129.0102-.0498-120.9009-159.18017 109.4106-142.8003h-.1596-129.6504c-7.95 12.28-16.0095 24.49-23.9795 36.75-4.29 6.76-9.0901 13.22113-12.6401 20.41113-4.2569 8.57943-5.6049 18.1423-7.9409 27.34717-2.3361-9.20482-3.6827-18.76779-7.9395-27.34717-3.55-7.19-8.3502-13.65113-12.6402-20.41113-7.9699-12.26-16.0294-24.47-23.9794-36.75h-129.6504z"/><g transform="translate(.000073 749.99988)"><path d="m2406.4416-748.12447h45.4538v61.25446l58.224 1.01008v-62.26454h44.949v179.07378h-44.949v-76.33377l-58.224-.0721v76.40592h-45.4538z" fill="#da243d" stroke-width="7.214878"/><path d="m2582.7734-748.12447h36.9027c15.0066 0 30.0134-.0722 44.7277 1.89917 18.2598 2.23553 31.0685 7.47043 43.4763 19.71574 35.6506 35.59727 35.6614 103.1817-3.7524 136.75181-19.8558 17.61606-44.8023 20.70706-70.2818 20.70706h-51.0725zm45.309699999999 139.96878c4.2242-.0736 8.4437-.30158 12.6383-.71283 9.0058-1.44464 18.3207-1.75473 26.1368-5.54175 15.4778-7.6337 21.0625-25.92096 21.9733-42.9887.5412-12.96549-2.6935-25.76389-11.471-36.32489-11.9767-14.93479-32.3784-15.37505-49.2774-15.58413z" fill="#da243d" stroke-width="7.214878"/></g></g></svg>