<svg width="800" height="717.45" enable-background="new 0 0 600 600" space="preserve" version="1.1" viewBox="0 0 800 717.45" xmlns="http://www.w3.org/2000/svg">
 <path d="m95.5 125.04c52.605 0 95.498 43.298 95.498 96.712s-42.893 96.712-95.498 96.712-95.498-43.298-95.498-96.712c-0.40466-53.414 42.488-96.712 95.498-96.712m0 293.78c-52.605 0-95.498 43.298-95.498 96.712s42.893 96.712 95.498 96.712 95.498-43.298 95.498-96.712-42.893-96.712-95.498-96.712m553.97-142.03-11.735-2.4279 8.9023-8.093 146.89-132.73v-86.595c0-25.898-21.042-46.94-46.94-46.94h-430.55v79.312c0 38.037 30.754 68.791 68.791 68.791h199.9l-11.33 10.521-153.36 145.67 14.972 57.46c5.6651 22.256 25.898 37.633 48.963 37.633h35.609c72.837 0 116.54 29.944 116.54 79.716v2.0233c0 47.749-36.419 78.907-93.07 78.907-42.084 0-80.526-12.949-117.75-40.06-11.735-8.4977-25.088-12.949-39.656-12.949-18.614 0-36.419 7.6884-48.963 21.042l-65.149 68.791c70.409 80.121 164.69 120.59 280.02 120.59 139.2 0 248.46-101.97 248.46-232.27v-2.0232c0.40466-98.33-64.744-187.35-150.53-206.37z" fill="#c1531b" stroke-width="4.0465"/>
</svg>
