<svg width="800" height="800" enable-background="new 0 0 600 600" space="preserve" version="1.1" viewBox="0 0 800 800" xmlns="http://www.w3.org/2000/svg">
 <path d="m0 0h800v800h-800z" fill="#c25627" stroke-width="1.3333"/>
 <path d="m209.76 254c32.865 0 59.662 27.05 59.662 60.421s-26.798 60.421-59.662 60.421c-32.865 0-59.662-27.05-59.662-60.421-0.25282-33.37 26.545-60.421 59.662-60.421m0 183.54c-32.865 0-59.662 27.05-59.662 60.421s26.798 60.421 59.662 60.421c32.865 0 59.662-27.05 59.662-60.421s-26.798-60.421-59.662-60.421m346.09-88.735-7.3314-1.5168 5.5618-5.0562 91.769-82.921v-54.101c0-16.18-13.146-29.326-29.326-29.326h-268.99v49.55c0 23.764 19.213 42.977 42.977 42.977h124.89l-7.0786 6.573-95.814 91.01 9.3539 35.899c3.5393 13.904 16.18 23.511 30.59 23.511h22.247c45.505 0 72.808 18.708 72.808 49.803v1.264c0 29.831-22.753 49.297-58.146 49.297-26.292 0-50.309-8.0898-73.567-25.028-7.3314-5.309-15.674-8.0898-24.775-8.0898-11.629 0-22.753 4.8033-30.59 13.146l-40.702 42.977c43.988 50.056 102.89 75.336 174.94 75.336 86.966 0 155.22-63.707 155.22-145.11v-1.264c0.25282-61.432-40.449-117.05-94.044-128.93z" fill="#fff" stroke-width="2.5281"/>
</svg>
