<svg height="506.91" viewBox="0 0 158.75 134.11993" width="600" xmlns="http://www.w3.org/2000/svg"><g transform="translate(67.238 90.584)"><path d="m .77783-49.83c.49207-9.431.77257-35.937-25.558-40.472-24.395-4.203 3.3 40.075 3.3 40.075s-4.966-24.833-27.642-21.816c-20.713 2.753 13.314 27.397 13.314 27.397s-5.814-11.841-20.061-2.277c-12.483 8.382 21.06 17.068 22.733 14.116 1.669-2.955 33.914-17.023 33.914-17.023" fill="#e5007d"/><path d="m-32.277-47.599c-4.262 2.91-13.196 11.696-2.845 25.753 7.63 10.362 20.066 19.196 29.898 13.876 5.9928-3.245 17.853-13.852 9.164-22.822-9.5065-9.81-36.217-16.807-36.217-16.807" fill="#1f5ea9"/><path d="m .21967-35.668c2.8479 3.115 11.997 6.383 18.114-1.592 5.358-6.987-2.482-15.483-5.018-16.577-3.3236-1.428-11.834-1.806-14.703 5.744-2.2967 6.043-.2167 10.426 1.6067 12.425" fill="#fff"/><path d="m1.1972-42.167c.6751.853 2.836 1.944 4.4691-.057 2.1276-2.596-.1497-4.039-.7797-4.37-.8273-.423-3.0048-.672-3.8748 1.208-.69895 1.512-.24728 2.677.1854 3.219"/><path d="m .69535-45.974 2.4366 1.909-2.9929.261z" fill="#fff"/><path d="m-3.7296-47.553c.3209-1.053.7536-2.152 1.3431-3.283 4.512-8.665 14.684-7.015 18.478-4.828 1.768 1.02 6.33 4.15 7.203 9.109z" fill="#a0c7eb"/><path d="m10.964-29.152 6.519 11.081c-25.47 7.832-41.939-1.462-41.939-1.462l17.218-9.942z" fill="#ebb510"/><path d="m8.4282-29.398-3.2639.062.057.083 3.3329.06z" fill="#dddee0"/><path d="m5.1636-29.336-2.218.043 2.2774.04z" fill="#1f5ea9"/><path d="m2.9461-29.294-8.8219.166-11.674 8.537s4.386 2.339 12.794 2.339c4.771 0 10.838-.753 18.131-3.116l-4.8211-7.826-3.3328-.06z" fill="#ebb510"/><path d="m-.58407-39.697s5.3297-3.25 14.14-2.561c11.517.899 13.464 2.991 13.464 2.991s-6.511 12.449-21.913 17.765c-18.252 6.302-29.563 1.968-29.563 1.968l17.437-11.584c-.0002 0 3.5419 3.216 6.4349-8.579" fill="#fcea00"/><path d="m-26.069-24.95c5.125 3.385 18.649 5.446 23.924-8.194 6.8443-17.701-7.947-21.454-11.91-22.091-5.196-.835-17.339 1.664-18.701 13.329-1.089 9.335 3.404 14.788 6.687 16.956" fill="#fff"/><path d="m-28.565-34.166c1.034 1.134 4.186 2.46 6.295-.523 2.745-3.873-.614-5.689-1.539-6.086-1.205-.518-4.3-.656-5.341 2.09-.837 2.196-.081 3.794.585 4.519"/><path d="m-30.331-39.789 4.094 2.776-4.731.744z" fill="#fff"/><path d="m-35.762-38.261c-.002-1.443.114-2.97.416-4.622 2.302-12.554 15.647-14.406 21.229-13.129 2.598.589 9.504 2.743 12.499 8.603z" fill="#a0c7eb"/><path d="m-43.88-5.8072c1.243-2.6839 4.417-10.355-2.707-14.748-6.602-4.068-3.718 12.035-3.718 12.035 0 .0004 1.454-7.797-5.489-9.568-6.345-1.616.672 9.5185.672 9.5185s-.309-4.1195-5.565-3.0025c-4.607.979 4.129 7.4194 4.962 6.7561.829-.6632 11.845-.9913 11.845-.9913" fill="#e5007d"/><path d="m38.56-2.7258c1.196-.0571 2.211.8676 2.268 2.0634l1.555 35.387c.054 1.196-.868 2.211-2.064 2.27l-8.967.806c-1.195.057-2.21-.868-2.267-2.063l-1.555-35.388c-.055-1.1955.868-2.2105 2.063-2.27z" fill="#e5007d"/><path d="m-8.7075 2.5844-6.8745-.0761c-1.301-.0142-2.366 1.027-2.382 2.3273l-.2 18.005s-.09.832-.675 1.457c-.961 1.032-2.337 1.429-5.934 1.207-1.343-.083-2.498-.627-3.242-1.466-.473-.537-.293-1.555-.293-1.555l-.114-17.708c-.009-1.3002-1.069-2.3461-2.37-2.339l-6.875.0452c-1.3.0071-2.348 1.0673-2.341 2.37l.149 22.976c-.149 3.984 5.368 7.819 10.743 8.377 21.723 2.254 22.474-7.478 22.481-8.265l.2572-22.976c.0142-1.3004-1.027-2.3654-2.3297-2.3796" fill="#ebb510"/><path d="m-33.602-4.6704c-.017-1.3693-1.141-2.4676-2.513-2.4533l-28.669.7417c-1.372.0166-2.47 1.1387-2.454 2.5103l.554 10.291c.017 1.3717 1.141 2.4699 2.513 2.4557l7.702-.1997.183 25.175c.007 1.369 1.125 2.477 2.499 2.468l7.245-.048c1.372-.01 2.475-1.129 2.468-2.498l-.128-25.413 8.7-.2257c1.369-.0167 2.47-1.1411 2.453-2.5127z" fill="#1f5ea9"/><path d="m33.186 35.826-17.81-17.658 14.348-16.636c.987-1.1313.875-2.8453-.256-3.8318l-2.023-1.9208c-1.127-.989-2.843-.8725-3.832.2567l-12.352 14.323-.024-12.554c-.012-1.5003-1.234-2.7079-2.7339-2.6984l-8.8433.0262c-1.4976.0095-2.7052 1.2314-2.6981 2.7338l.0856 42.69c.0095 1.5 1.2314 2.707 2.7338 2.698l8.8408-.026c1.4981-.01 2.7081-1.234 2.6981-2.732l-.026-12.559 14.926 14.799c1.058 1.062 2.777 1.067 3.84.007l3.116-3.079c1.063-1.058 1.065-2.776.01-3.839" fill="#aac811"/><path d="m88.085 29.744c-4.5 6.134-19.338 14.343-31.329.764-15.563-17.638.013-28.358 4.348-30.802 5.686-3.2086 20.866-5.5213 27.468 7.4518 5.278 10.384 2.399 18.659-.487 22.586" fill="#fff"/><path d="m70.812 6.9509v20.201l-.382.382h-.62l-.355-.382v-9.6h-12.492v9.6l-.356.382h-.62l-.382-.382v-20.201l.382-.3822h.62l.356.3821v9.3291h12.492v-9.3291l.355-.3821h.62z" fill="#1f5ea9"/><path d="m88.265 14.363v5.376c0 4.816-3.07 7.794-8.565 7.794h-6.022l-.389-.382v-20.201l.389-.3819h6.022c5.495 0 8.565 2.9781 8.565 7.7949m-8.532-6.5233h-5.08v18.428h5.08c4.605 0 7.175-2.424 7.175-6.529v-5.376c0-4.105-2.543-6.5233-7.175-6.5233" fill="#1f5ea9"/></g></svg>