<?xml version="1.0" encoding="UTF-8" standalone="no"?>
<!-- Created with Inkscape (http://www.inkscape.org/) -->

<svg
   xmlns:dc="http://purl.org/dc/elements/1.1/"
   xmlns:cc="http://creativecommons.org/ns#"
   xmlns:rdf="http://www.w3.org/1999/02/22-rdf-syntax-ns#"
   xmlns:svg="http://www.w3.org/2000/svg"
   xmlns="http://www.w3.org/2000/svg"
   xmlns:sodipodi="http://sodipodi.sourceforge.net/DTD/sodipodi-0.dtd"
   xmlns:inkscape="http://www.inkscape.org/namespaces/inkscape"
   width="8.8089275mm"
   height="3.5930421mm"
   viewBox="0 0 8.8089275 3.5930421"
   version="1.1"
   id="svg14971"
   inkscape:version="0.92.0 r15299"
   sodipodi:docname="Tuki TV HD.svg">
  <defs
     id="defs14965">
    <clipPath
       clipPathUnits="userSpaceOnUse"
       id="clipPath4712">
      <path
         d="M 0,0 H 595.275 V 841.89 H 0 Z"
         id="path4710"
         inkscape:connector-curvature="0" />
    </clipPath>
  </defs>
  <sodipodi:namedview
     id="base"
     pagecolor="#ffffff"
     bordercolor="#666666"
     borderopacity="1.0"
     inkscape:pageopacity="0.0"
     inkscape:pageshadow="2"
     inkscape:zoom="22.4"
     inkscape:cx="10.879885"
     inkscape:cy="5.2861273"
     inkscape:document-units="mm"
     inkscape:current-layer="layer1"
     showgrid="false"
     fit-margin-top="0"
     fit-margin-left="0"
     fit-margin-right="0"
     fit-margin-bottom="0"
     inkscape:window-width="1920"
     inkscape:window-height="1017"
     inkscape:window-x="-8"
     inkscape:window-y="-8"
     inkscape:window-maximized="1" />
  <metadata
     id="metadata14968">
    <rdf:RDF>
      <cc:Work
         rdf:about="">
        <dc:format>image/svg+xml</dc:format>
        <dc:type
           rdf:resource="http://purl.org/dc/dcmitype/StillImage" />
        <dc:title></dc:title>
      </cc:Work>
    </rdf:RDF>
  </metadata>
  <g
     inkscape:label="Layer 1"
     inkscape:groupmode="layer"
     id="layer1"
     transform="translate(-58.339584,-125.87014)">
    <g
       id="g4706"
       transform="matrix(0.35277777,0,0,-0.35277777,46.629626,283.29597)">
      <g
         id="g4708"
         clip-path="url(#clipPath4712)">
        <g
           id="g4714"
           transform="translate(57.6247,438.2308)">
          <path
             d="m 0,0 c -0.708,-0.965 -3.041,-2.256 -4.928,-0.12 -2.448,2.774 0.002,4.46 0.684,4.845 0.894,0.504 3.282,0.868 4.32,-1.173 C 0.907,1.919 0.454,0.618 0,0"
             style="fill:#ffffff;fill-opacity:1;fill-rule:nonzero;stroke:none"
             id="path4716"
             inkscape:connector-curvature="0" />
        </g>
        <g
           id="g4718"
           transform="translate(54.9077,441.8159)">
          <path
             d="m 0,0 v -3.177 l -0.06,-0.061 h -0.098 l -0.056,0.061 v 1.509 h -1.965 v -1.509 l -0.055,-0.061 h -0.098 l -0.06,0.061 V 0 l 0.06,0.06 h 0.098 L -2.179,0 v -1.468 h 1.965 V 0 l 0.056,0.06 h 0.098 z"
             style="fill:#005fa7;fill-opacity:1;fill-rule:nonzero;stroke:none"
             id="path4720"
             inkscape:connector-curvature="0" />
        </g>
        <g
           id="g4722"
           transform="translate(57.653,440.6501)">
          <path
             d="m 0,0 v -0.846 c 0,-0.757 -0.483,-1.226 -1.347,-1.226 h -0.948 l -0.06,0.061 v 3.177 l 0.06,0.06 h 0.948 C -0.483,1.226 0,0.757 0,0 m -1.342,1.026 h -0.799 v -2.898 h 0.799 c 0.724,0 1.128,0.381 1.128,1.026 V 0 c 0,0.645 -0.399,1.026 -1.128,1.026"
             style="fill:#005fa7;fill-opacity:1;fill-rule:nonzero;stroke:none"
             id="path4724"
             inkscape:connector-curvature="0" />
        </g>
        <g
           id="g4726"
           transform="translate(36.868,443.8228)">
          <path
             d="M 0,0 C 0.196,0.422 0.695,1.629 -0.426,2.32 -1.464,2.96 -1.01,0.427 -1.01,0.427 c 0,0 0.228,1.226 -0.864,1.505 -0.998,0.254 0.106,-1.498 0.106,-1.498 0,0 -0.049,0.649 -0.876,0.473 -0.724,-0.154 0.65,-1.167 0.781,-1.063 C -1.733,-0.052 0,0 0,0"
             style="fill:#e2007a;fill-opacity:1;fill-rule:nonzero;stroke:none"
             id="path4728"
             inkscape:connector-curvature="0" />
        </g>
        <g
           id="g4730"
           transform="translate(49.8354,443.3381)">
          <path
             d="M 0,0 C 0.188,0.009 0.348,-0.136 0.357,-0.325 L 0.601,-5.891 C 0.61,-6.079 0.465,-6.238 0.277,-6.248 l -1.411,-0.127 c -0.188,-0.009 -0.348,0.137 -0.357,0.325 l -0.244,5.566 c -0.008,0.189 0.136,0.348 0.325,0.357 z"
             style="fill:#e2007a;fill-opacity:1;fill-rule:nonzero;stroke:none"
             id="path4732"
             inkscape:connector-curvature="0" />
        </g>
        <g
           id="g4734"
           transform="translate(42.4005,442.5029)">
          <path
             d="M 0,0 -1.081,0.012 C -1.286,0.014 -1.454,-0.15 -1.456,-0.354 l -0.031,-2.832 c 0,0 -0.015,-0.131 -0.107,-0.229 -0.151,-0.163 -0.367,-0.225 -0.933,-0.19 -0.211,0.013 -0.393,0.098 -0.51,0.23 l -0.046,0.245 -0.018,2.785 C -3.102,-0.14 -3.269,0.024 -3.474,0.023 L -4.555,0.016 C -4.76,0.015 -4.925,-0.152 -4.923,-0.357 L -4.9,-3.971 c -0.023,-0.626 0.844,-1.23 1.69,-1.317 3.417,-0.355 3.535,1.176 3.536,1.3 l 0.04,3.613 C 0.368,-0.17 0.205,-0.002 0,0"
             style="fill:#ebb607;fill-opacity:1;fill-rule:nonzero;stroke:none"
             id="path4736"
             inkscape:connector-curvature="0" />
        </g>
        <g
           id="g4738"
           transform="translate(38.4846,443.6442)">
          <path
             d="M 0,0 C -0.003,0.215 -0.179,0.388 -0.395,0.386 L -4.905,0.269 C -5.121,0.267 -5.293,0.09 -5.291,-0.126 l 0.088,-1.619 c 0.002,-0.215 0.179,-0.388 0.395,-0.386 l 1.211,0.032 0.029,-3.96 c 10e-4,-0.216 0.177,-0.39 0.393,-0.388 l 1.14,0.007 c 0.215,0.001 0.389,0.178 0.388,0.393 l -0.02,3.997 1.368,0.036 c 0.216,0.003 0.389,0.179 0.386,0.395 z"
             style="fill:#005fa7;fill-opacity:1;fill-rule:nonzero;stroke:none"
             id="path4740"
             inkscape:connector-curvature="0" />
        </g>
        <g
           id="g4742"
           transform="translate(48.99,437.2742)">
          <path
             d="m 0,0 -2.801,2.777 2.257,2.617 c 0.155,0.178 0.137,0.448 -0.041,0.603 L -0.903,6.299 C -1.08,6.454 -1.35,6.436 -1.506,6.259 L -3.449,4.006 -3.453,5.98 c -0.001,0.236 -0.193,0.427 -0.43,0.425 L -5.273,6.401 C -5.509,6.399 -5.699,6.207 -5.698,5.971 l 0.014,-6.715 c 0.001,-0.236 0.193,-0.426 0.43,-0.425 l 1.39,0.005 c 0.236,10e-4 0.426,0.193 0.425,0.429 l -0.004,1.976 2.347,-2.328 c 0.167,-0.167 0.437,-0.168 0.604,-0.001 l 0.491,0.484 C 0.166,-0.438 0.166,-0.167 0,0"
             style="fill:#acc600;fill-opacity:1;fill-rule:nonzero;stroke:none"
             id="path4744"
             inkscape:connector-curvature="0" />
        </g>
      </g>
    </g>
  </g>
</svg>
