<svg height="120.63345mm" viewBox="0 0 211.66666 120.63345" width="211.66666mm" xmlns="http://www.w3.org/2000/svg" xmlns:xlink="http://www.w3.org/1999/xlink"><linearGradient id="a"><stop offset="0" stop-color="#176fc0"/><stop offset=".296875" stop-color="#12a4e6"/><stop offset="1" stop-color="#12a4e6"/></linearGradient><linearGradient id="b" gradientUnits="userSpaceOnUse" spreadMethod="pad" x1="321.17566362645" x2="321.75910340645" xlink:href="#a" y1="93.118741145" y2="92.65411866855"/><clipPath id="c"><path d="m308.436 88.378h24.507v7.457h-24.507z"/></clipPath><linearGradient id="d"><stop offset="0" stop-color="#7fcd3c"/><stop offset=".5" stop-color="#c0df14"/><stop offset="1" stop-color="#c0df14"/></linearGradient><linearGradient id="e" gradientUnits="userSpaceOnUse" spreadMethod="pad" x1="319.66174749855" x2="318.99095135" xlink:href="#d" y1="91.43750040855" y2="91.92904431855"/><linearGradient id="f" gradientUnits="userSpaceOnUse" spreadMethod="pad" x1="320.61272271" x2="321.1269865821" xlink:href="#d" y1="92.625845115" y2="92.20784663355"/><linearGradient id="g" gradientUnits="userSpaceOnUse" spreadMethod="pad" x1="320.50054528145" x2="319.88380954645" xlink:href="#a" y1="92.48790448855" y2="92.99050705"/><path d="m0 0h-3.097l.632-.72h2.601l-.131.14-.004.58z" fill="#176fc0" transform="matrix(16.84236193334 0 0 -16.84236193334 65.136543773989 101.340494184033)"/><path d="m0 0h-8.166l.53-.565h8.164v5.246l-.528.561zm.528-.565h.001z" fill="#7fcd3c" transform="matrix(16.84236193334 0 0 -16.84236193334 202.757056560358 111.117509512046)"/><path d="m0 0h .505l-.51.581z" fill="#176fc0" transform="matrix(16.84236193334 0 0 -16.84236193334 137.607187795416 9.785412731987)"/><path d="m314.405 95.692v-5.247l.771-.77h3.096l4.303 5.435-.005.582z" fill="url(#g)" transform="matrix(16.84236193334 0 0 -16.84236193334 -5295.32279983844 1611.681194074134)"/><path d="m322.575 95.111-4.302-5.435.005-.581h8.165v5.246l-.77.77z" fill="url(#f)" transform="matrix(16.84236193334 0 0 -16.84236193334 -5295.32279983844 1611.681194074134)"/><path d="m319.287 93.186c-.076-.052-.115-.143-.115-.272v-.995c0-.344-.154-.515-.465-.515-.31 0-.465.171-.465.515v1.272c-.02.007-.066.021-.139.043-.073.02-.154.031-.243.031-.125 0-.226-.026-.301-.079-.077-.052-.115-.143-.115-.272v-1.144c0-.185.033-.345.098-.483.063-.137.152-.25.264-.341.113-.091.246-.159.402-.206.154-.046.321-.069.499-.069.135 0 .264.013.385.039l.878 1.108v1.373c-.02.007-.066.021-.139.043-.073.02-.153.031-.242.031-.126 0-.227-.026-.302-.079" fill="url(#e)" transform="matrix(16.84236193334 0 0 -16.84236193334 -5295.32279983844 1611.681194074134)"/><g clip-path="url(#c)" transform="matrix(16.84236193334 0 0 -16.84236193334 -5295.32279983844 1611.681194074134)"><g transform="translate(315.4527 93.6566)"><path d="m0 0c0 .129.038.22.114.272.076.053.176.08.302.08.089 0 .17-.011.243-.033.072-.021.118-.035.138-.042v-.668h.57c.148 0 .254-.03.317-.089.062-.06.094-.149.094-.268 0-.085-.014-.166-.04-.24s-.046-.123-.059-.146h-.882v-.781c0-.076.012-.137.035-.181.023-.045.052-.081.086-.107.035-.027.075-.044.119-.052.045-.009.09-.013.136-.013.093 0 .177.014.253.042s.13.052.163.072l.312-.541c-.029-.027-.072-.056-.128-.089s-.124-.064-.203-.094c-.08-.029-.169-.054-.268-.076-.099-.021-.203-.032-.312-.032-.31 0-.553.082-.728.245-.175.164-.262.382-.262.656z" fill="#bfdf14"/></g><g transform="translate(323.342 90.5034)"><path d="m0 0c .013-.007.042-.017.087-.032.044-.015.099-.03.166-.045.066-.015.141-.028.225-.039.084-.012.171-.018.26-.018.254 0 .437.055.549.164.113.109.169.289.169.539-.063-.076-.159-.136-.287-.18-.129-.045-.258-.067-.387-.067-.152 0-.293.019-.423.057s-.244.096-.342.176c-.097.079-.173.179-.227.299-.055.121-.082.263-.082.428v1.164c0 .129.038.22.114.272.076.053.176.08.302.08.089 0 .17-.011.242-.033.073-.021.119-.035.139-.042v-1.277c0-.159.037-.272.111-.342.075-.069.191-.104.35-.104.148 0 .264.043.346.129.083.086.124.218.124.396v.921c0 .129.038.22.114.272.076.053.176.08.302.08.089 0 .17-.011.242-.033.073-.021.119-.035.139-.042v-2.099c0-.251-.033-.465-.099-.641-.066-.177-.16-.321-.282-.431-.122-.111-.268-.192-.436-.243s-.356-.077-.564-.077c-.146 0-.279.009-.401.025-.123.017-.23.036-.322.057-.093.022-.167.042-.223.062s-.089.033-.099.04z" fill="#11a4e6" fill-rule="evenodd"/></g></g><path d="m321.027 93.162v-1.555c0-.273.088-.492.263-.656.175-.163.418-.245.728-.245.109 0 .213.011.312.033.099.021.188.046.267.075.079.03.148.062.203.094.056.033.099.062.129.089l-.312.541c-.033-.02-.088-.043-.163-.072-.077-.028-.16-.041-.253-.041-.046 0-.092.003-.136.011-.045.009-.085.027-.119.053-.035.026-.064.063-.086.107-.024.045-.035.105-.035.181v.782h.881c.013.022.033.071.059.145.027.074.04.154.04.241 0 .119-.031.208-.094.267-.063.059-.168.089-.317.089h-.569v.668c-.019.006-.062.02-.127.04z" fill="url(#b)" transform="matrix(16.84236193334 0 0 -16.84236193334 -5295.32279983844 1611.681194074134)"/></svg>