<svg height="322.52133" viewBox="0 0 565.87866 322.52133" width="565.87866" xmlns="http://www.w3.org/2000/svg" xmlns:xlink="http://www.w3.org/1999/xlink"><clipPath id="a"><path clip-rule="evenodd" d="m484.536 716.445.177-19.633-145.309-183.552h-104.599l-26.02 26.021v177.164z"/></clipPath><clipPath id="b"><path clip-rule="evenodd" d="m786.659 229.831h-731.339v731.339h731.339z"/></clipPath><linearGradient id="c"><stop offset="0" stop-color="#0e5995"/><stop offset="1" stop-color="#1386e6"/></linearGradient><linearGradient id="d" gradientUnits="userSpaceOnUse" spreadMethod="pad" x1="414.63529" x2="393.80741" xlink:href="#c" y1="608.24969" y2="625.2235"/><clipPath id="e"><path clip-rule="evenodd" d="m786.659 229.831h-731.339v731.339h731.339z"/></clipPath><clipPath id="f"><path d="m .029999.03h841.970001v1190.97h-841.970001z"/></clipPath><clipPath id="g"><path clip-rule="evenodd" d="m339.583 493.65-.177 19.633 145.309 183.551h104.598l26.02-26.02v-177.164z"/></clipPath><clipPath id="h"><path clip-rule="evenodd" d="m786.659 229.831h-731.339v731.339h731.339z"/></clipPath><linearGradient id="i"><stop offset="0" stop-color="#6d9916"/><stop offset="1" stop-color="#c7ff53"/></linearGradient><linearGradient id="j" gradientUnits="userSpaceOnUse" spreadMethod="pad" x1="418.42411" x2="435.79111" xlink:href="#i" y1="612.90811" y2="598.79159"/><clipPath id="k"><path clip-rule="evenodd" d="m338.357 589.025c0-11.595 5.24-17.391 15.719-17.391s15.719 5.796 15.719 17.391v33.611c0 4.348 1.282 7.413 3.846 9.197 2.564 1.783 5.964 2.675 10.2 2.675 3.01 0 5.742-.362 8.194-1.087 2.453-.724 4.013-1.198 4.682-1.421v-46.379l-29.647-37.395c-4.108-.894-8.439-1.341-12.994-1.341-6.02 0-11.649.78-16.889 2.341-5.239 1.561-9.755 3.874-13.545 6.94s-6.772 6.912-8.946 11.538c-2.174 4.627-3.261 10.061-3.261 16.304v38.628c0 4.348 1.282 7.413 3.846 9.197 2.564 1.783 5.964 2.675 10.201 2.675 3.009 0 5.741-.362 8.193-1.087 2.453-.724 4.014-1.198 4.682-1.421z"/></clipPath><clipPath id="l"><path clip-rule="evenodd" d="m786.659 229.831h-731.339v731.339h731.339z"/></clipPath><linearGradient id="m" gradientUnits="userSpaceOnUse" spreadMethod="pad" x1="386.30811" x2="363.6539" xlink:href="#i" y1="572.7763" y2="589.3757"/><clipPath id="n"><path clip-rule="evenodd" d="m786.659 229.831h-731.339v731.339h731.339z"/></clipPath><clipPath id="o"><path d="m .029999.03h841.970001v1190.97h-841.970001z"/></clipPath><clipPath id="p"><path clip-rule="evenodd" d="m455.061 659.591c2.231-.66 3.663-1.096 4.296-1.307v-22.575h19.23c5.017 0 8.584-1.003 10.702-3.01 2.118-2.006 3.177-5.016 3.177-9.03 0-2.898-.446-5.602-1.337-8.11-.892-2.508-1.561-4.153-2.007-4.933h-29.765v-26.365c0-2.592.39-4.626 1.17-6.131.781-1.505 1.756-2.732 2.927-3.624 1.171-.891 2.508-1.476 4.013-1.755s3.038-.418 4.599-.418c3.121 0 5.964.474 8.528 1.421 2.564.948 4.403 1.756 5.518 2.425l10.535-18.283c-1.003-.892-2.453-1.895-4.348-3.01-1.895-1.087-4.18-2.146-6.856-3.149-2.675-1.003-5.685-1.84-9.029-2.564-3.345-.725-6.857-1.087-10.535-1.087-10.48 0-18.673 2.759-24.582 8.278-5.908 5.518-8.863 12.903-8.863 22.156v52.489z"/></clipPath><clipPath id="q"><path clip-rule="evenodd" d="m786.659 229.831h-731.339v731.339h731.339z"/></clipPath><linearGradient id="r" gradientUnits="userSpaceOnUse" spreadMethod="pad" x1="437.43491" x2="457.1388" xlink:href="#c" y1="629.55401" y2="613.86279"/><g transform="matrix(1.3333333 0 0 -1.3333333 -278.37999 955.25998)"><path d="m341.904 516.439 18.837-27.491h-104.598l-21.34 24.315z" fill="#0f5a96" fill-rule="evenodd"/><path d="m484.534 716.445 21.341-24.315-23.611 1.608z" fill="#0f5a96" fill-rule="evenodd"/><g clip-path="url(#a)"><g clip-path="url(#b)"><g><g><path d="m .029999.03h841.970001v1190.97h-841.970001z" fill="url(#d)"/></g></g></g></g><g clip-path="url(#e)"><g clip-path="url(#f)"><path d="m633.191 474.559.003-.005h-275.75l-17.883 19.096 275.701 4.163-1.952 175.024 19.881-21.118z" fill="#a2d43e" fill-rule="evenodd"/></g></g><g clip-path="url(#g)"><g clip-path="url(#h)"><g><g><path d="m .029999.03h841.970001v1190.97h-841.970001z" fill="url(#j)"/></g></g></g></g><g clip-path="url(#k)"><g clip-path="url(#l)"><g><g><path d="m .029999.03h841.970001v1190.97h-841.970001z" fill="url(#m)"/></g></g></g></g><g clip-path="url(#n)"><g clip-path="url(#o)"><path d="m244.163 647.719c0 4.348 1.282 7.413 3.846 9.197s5.964 2.676 10.201 2.676c3.01 0 5.741-.362 8.193-1.087 2.453-.725 4.014-1.198 4.683-1.421v-22.575h19.23c5.016 0 8.584-1.003 10.702-3.01s3.177-5.017 3.177-9.03c0-2.899-.446-5.602-1.338-8.11s-1.561-4.153-2.006-4.933h-29.765v-26.365c0-2.592.39-4.627 1.17-6.132.78-1.504 1.756-2.731 2.926-3.623 1.171-.892 2.509-1.477 4.014-1.755 1.504-.279 3.037-.419 4.598-.419 3.121 0 5.965.474 8.528 1.422 2.564.947 4.404 1.756 5.518 2.424l10.536-18.282c-1.004-.892-2.453-1.895-4.348-3.01-1.895-1.087-4.181-2.146-6.857-3.149-2.675-1.004-5.685-1.84-9.029-2.564-3.344-.725-6.856-1.087-10.535-1.087-10.479 0-18.673 2.759-24.581 8.277-5.909 5.518-8.863 12.904-8.863 22.157z" fill="#c7ff53" fill-rule="evenodd"/><path d="m510.595 541.23c.446-.223 1.422-.585 2.926-1.087 1.505-.502 3.373-1.003 5.602-1.505s4.766-.947 7.609-1.338c2.842-.39 5.769-.585 8.779-.585 8.584 0 14.771 1.839 18.561 5.518s5.686 9.755 5.686 18.227c-2.119-2.564-5.352-4.598-9.699-6.103-4.348-1.505-8.696-2.258-13.043-2.258-5.129 0-9.894.641-14.298 1.923-4.403 1.282-8.249 3.261-11.538 5.936-3.288 2.676-5.853 6.048-7.692 10.117s-2.759 8.891-2.759 14.465v39.297c0 4.347 1.282 7.413 3.846 9.197 2.564 1.783 5.964 2.675 10.201 2.675 3.009 0 5.741-.362 8.193-1.087 2.453-.724 4.013-1.198 4.682-1.421v-43.143c0-5.351 1.254-9.197 3.763-11.538 2.508-2.341 6.438-3.512 11.789-3.512 5.016 0 8.918 1.45 11.705 4.348 2.787 2.899 4.181 7.358 4.181 13.378v31.103c0 4.347 1.282 7.413 3.846 9.197 2.564 1.783 5.964 2.675 10.2 2.675 3.01 0 5.742-.362 8.194-1.087 2.453-.724 4.013-1.198 4.682-1.421v-70.901c0-8.473-1.115-15.691-3.344-21.655-2.23-5.965-5.407-10.814-9.532-14.549-4.125-3.734-9.03-6.465-14.715-8.193-5.686-1.728-12.04-2.592-19.063-2.592-4.905 0-9.42.278-13.545.836s-7.748 1.198-10.869 1.923c-3.122.725-5.63 1.421-7.525 2.09s-3.01 1.115-3.345 1.338z" fill="#1487e6" fill-rule="evenodd"/></g></g><g clip-path="url(#p)"><g clip-path="url(#q)"><g><g><path d="m .029999.03h841.970001v1190.97h-841.970001z" fill="url(#r)"/></g></g></g></g></g></svg>