<?xml version="1.0" encoding="UTF-8"?>
<!-- Created with Inkscape (http://www.inkscape.org/) -->
<svg id="svg4586" width="211.67mm" height="120.63mm" version="1.1" viewBox="0 0 211.67 120.63" xmlns="http://www.w3.org/2000/svg" xmlns:cc="http://creativecommons.org/ns#" xmlns:dc="http://purl.org/dc/elements/1.1/" xmlns:rdf="http://www.w3.org/1999/02/22-rdf-syntax-ns#" xmlns:xlink="http://www.w3.org/1999/xlink">
 <defs id="defs4580">
  <linearGradient id="g" x1="320.5" x2="319.88" y1="92.488" y2="92.991" gradientTransform="matrix(16.842 0 0 -16.842 -5418.2 1700.2)" gradientUnits="userSpaceOnUse" xlink:href="#a"/>
  <linearGradient id="a">
   <stop id="stop2" stop-color="#176fc0" offset="0"/>
   <stop id="stop4" stop-color="#12a4e6" offset=".29688"/>
   <stop id="stop6" stop-color="#12a4e6" offset="1"/>
  </linearGradient>
  <linearGradient id="f" x1="320.61" x2="321.13" y1="92.626" y2="92.208" gradientTransform="matrix(16.842 0 0 -16.842 -5418.2 1700.2)" gradientUnits="userSpaceOnUse" xlink:href="#d"/>
  <linearGradient id="d">
   <stop id="stop13" stop-color="#7fcd3c" offset="0"/>
   <stop id="stop15" stop-color="#c0df14" offset=".5"/>
   <stop id="stop17" stop-color="#c0df14" offset="1"/>
  </linearGradient>
  <linearGradient id="e" x1="319.66" x2="318.99" y1="91.438" y2="91.929" gradientTransform="matrix(16.842 0 0 -16.842 -5418.2 1700.2)" gradientUnits="userSpaceOnUse" xlink:href="#d"/>
  <clipPath id="c">
   <path id="path10" d="m308.44 88.378h24.507v7.457h-24.507z"/>
  </clipPath>
  <linearGradient id="b" x1="321.18" x2="321.76" y1="93.119" y2="92.654" gradientTransform="matrix(16.842 0 0 -16.842 -5418.2 1700.2)" gradientUnits="userSpaceOnUse" xlink:href="#a"/>
 </defs>
 <metadata id="metadata4583">
  <rdf:RDF>
   <cc:Work rdf:about="">
    <dc:format>image/svg+xml</dc:format>
    <dc:type rdf:resource="http://purl.org/dc/dcmitype/StillImage"/>
    <dc:title/>
   </cc:Work>
  </rdf:RDF>
 </metadata>
 <g id="layer1" transform="translate(122.84 -88.517)">
  <path id="path23" d="m-57.706 189.86h-52.161l10.644 12.126h43.807l-2.2064-2.3579-0.06737-9.7686z" fill="#176fc0" stroke-width="16.842"/>
  <path id="path25" d="m79.915 199.63h-137.53l8.9265 9.5159h137.5v-88.355l-8.8928-9.4486zm8.8928 9.5159h0.0169z" fill="#7fcd3c" stroke-width="16.842"/>
  <path id="path27" d="m14.765 98.302h8.5054l-8.5896-9.7854z" fill="#176fc0" stroke-width="16.842"/>
  <path id="path29" d="m-122.84 88.519v88.372l12.985 12.969h52.144l72.473-91.538-0.08421-9.8023z" fill="url(#g)" stroke-width="16.842"/>
  <path id="path31" d="m14.76 98.304-72.456 91.538 0.08421 9.7854h137.52v-88.355l-12.969-12.969z" fill="url(#f)" stroke-width="16.842"/>
  <path id="path33" d="m-40.618 130.73c-1.28 0.87581-1.9369 2.4085-1.9369 4.5811v16.758c0 5.7938-2.5937 8.6738-7.8317 8.6738-5.2211 0-7.8317-2.88-7.8317-8.6738v-21.423c-0.33685-0.1179-1.1116-0.35369-2.3411-0.72422-1.2295-0.33685-2.5937-0.52211-4.0927-0.52211-2.1053 0-3.8064 0.4379-5.0696 1.3305-1.2969 0.87581-1.9369 2.4085-1.9369 4.5811v19.268c0 3.1158 0.5558 5.8106 1.6506 8.1349 1.0611 2.3074 2.56 4.2106 4.4464 5.7432 1.9032 1.5327 4.1432 2.6779 6.7706 3.4695 2.5937 0.77475 5.4064 1.1621 8.4043 1.1621 2.2737 0 4.4464-0.21895 6.4843-0.65685l14.788-18.661v-23.125c-0.33685-0.1179-1.1116-0.35369-2.3411-0.72422-1.2295-0.33685-2.5769-0.52211-4.0759-0.52211-2.1221 0-3.8232 0.4379-5.0864 1.3305" fill="url(#e)" stroke-width="16.842"/>
  <g id="g43" transform="matrix(16.842 0 0 -16.842 -5418.2 1700.2)" clip-path="url(#c)">
   <g id="g37" transform="translate(315.45 93.657)">
    <path id="path35" d="m0 0c0 0.129 0.038 0.22 0.114 0.272 0.076 0.053 0.176 0.08 0.302 0.08 0.089 0 0.17-0.011 0.243-0.033 0.072-0.021 0.118-0.035 0.138-0.042v-0.668h0.57c0.148 0 0.254-0.03 0.317-0.089 0.062-0.06 0.094-0.149 0.094-0.268 0-0.085-0.014-0.166-0.04-0.24s-0.046-0.123-0.059-0.146h-0.882v-0.781c0-0.076 0.012-0.137 0.035-0.181 0.023-0.045 0.052-0.081 0.086-0.107 0.035-0.027 0.075-0.044 0.119-0.052 0.045-9e-3 0.09-0.013 0.136-0.013 0.093 0 0.177 0.014 0.253 0.042s0.13 0.052 0.163 0.072l0.312-0.541c-0.029-0.027-0.072-0.056-0.128-0.089s-0.124-0.064-0.203-0.094c-0.08-0.029-0.169-0.054-0.268-0.076-0.099-0.021-0.203-0.032-0.312-0.032-0.31 0-0.553 0.082-0.728 0.245-0.175 0.164-0.262 0.382-0.262 0.656z" fill="#bfdf14"/>
   </g>
   <g id="g41" transform="translate(323.34 90.503)">
    <path id="path39" d="m0 0c0.013-7e-3 0.042-0.017 0.087-0.032 0.044-0.015 0.099-0.03 0.166-0.045 0.066-0.015 0.141-0.028 0.225-0.039 0.084-0.012 0.171-0.018 0.26-0.018 0.254 0 0.437 0.055 0.549 0.164 0.113 0.109 0.169 0.289 0.169 0.539-0.063-0.076-0.159-0.136-0.287-0.18-0.129-0.045-0.258-0.067-0.387-0.067-0.152 0-0.293 0.019-0.423 0.057s-0.244 0.096-0.342 0.176c-0.097 0.079-0.173 0.179-0.227 0.299-0.055 0.121-0.082 0.263-0.082 0.428v1.164c0 0.129 0.038 0.22 0.114 0.272 0.076 0.053 0.176 0.08 0.302 0.08 0.089 0 0.17-0.011 0.242-0.033 0.073-0.021 0.119-0.035 0.139-0.042v-1.277c0-0.159 0.037-0.272 0.111-0.342 0.075-0.069 0.191-0.104 0.35-0.104 0.148 0 0.264 0.043 0.346 0.129 0.083 0.086 0.124 0.218 0.124 0.396v0.921c0 0.129 0.038 0.22 0.114 0.272 0.076 0.053 0.176 0.08 0.302 0.08 0.089 0 0.17-0.011 0.242-0.033 0.073-0.021 0.119-0.035 0.139-0.042v-2.099c0-0.251-0.033-0.465-0.099-0.641-0.066-0.177-0.16-0.321-0.282-0.431-0.122-0.111-0.268-0.192-0.436-0.243s-0.356-0.077-0.564-0.077c-0.146 0-0.279 9e-3 -0.401 0.025-0.123 0.017-0.23 0.036-0.322 0.057-0.093 0.022-0.167 0.042-0.223 0.062s-0.089 0.033-0.099 0.04z" fill="#11a4e6" fill-rule="evenodd"/>
   </g>
  </g>
  <path id="path45" d="m-11.312 131.13v26.19c0 4.598 1.4821 8.2864 4.4295 11.049 2.9474 2.7453 7.0401 4.1264 12.261 4.1264 1.8358 0 3.5874-0.18527 5.2548-0.5558 1.6674-0.35369 3.1664-0.77475 4.4969-1.2632 1.3306-0.50528 2.4927-1.0442 3.419-1.5832 0.94317-0.55579 1.6674-1.0442 2.1727-1.499l-5.2548-9.1117c-0.5558 0.33684-1.4821 0.72422-2.7453 1.2126-1.2969 0.47159-2.6948 0.69054-4.2611 0.69054-0.77474 0-1.5495-0.0505-2.2906-0.18526-0.7579-0.15159-1.4316-0.45475-2.0042-0.89265-0.58948-0.4379-1.0779-1.0611-1.4484-1.8021-0.40422-0.75791-0.58948-1.7684-0.58948-3.0485v-13.171h14.838c0.21895-0.37053 0.55579-1.1958 0.9937-2.4421 0.45474-1.2463 0.67369-2.5937 0.67369-4.059 0-2.0042-0.52211-3.5032-1.5832-4.4969s-2.8295-1.499-5.339-1.499h-9.5833v-11.251c-0.32001-0.10105-1.0442-0.33684-2.139-0.67369z" fill="url(#b)" stroke-width="16.842"/>
 </g>
</svg>
