<?xml version="1.0" encoding="UTF-8" standalone="no"?>
<!-- Created with Inkscape (http://www.inkscape.org/) -->

<svg
   xmlns:dc="http://purl.org/dc/elements/1.1/"
   xmlns:cc="http://creativecommons.org/ns#"
   xmlns:rdf="http://www.w3.org/1999/02/22-rdf-syntax-ns#"
   xmlns:svg="http://www.w3.org/2000/svg"
   xmlns="http://www.w3.org/2000/svg"
   xmlns:sodipodi="http://sodipodi.sourceforge.net/DTD/sodipodi-0.dtd"
   xmlns:inkscape="http://www.inkscape.org/namespaces/inkscape"
   width="6.1866636mm"
   height="2.9153554mm"
   viewBox="0 0 6.1866636 2.9153554"
   version="1.1"
   id="svg87076"
   inkscape:version="0.92.0 r15299"
   sodipodi:docname="TV Bratislava.svg">
  <defs
     id="defs87070">
    <clipPath
       clipPathUnits="userSpaceOnUse"
       id="clipPath24808">
      <path
         d="m 307.47102,431.25957 h 2.30316 v -2.31948 h -2.30316 z"
         id="path24806"
         inkscape:connector-curvature="0" />
    </clipPath>
    <radialGradient
       fx="0"
       fy="0"
       cx="0"
       cy="0"
       r="1"
       gradientUnits="userSpaceOnUse"
       gradientTransform="matrix(2.6924899,0,0,-2.6924899,308.02426,429.5589)"
       spreadMethod="pad"
       id="radialGradient24814">
      <stop
         style="stop-opacity:1;stop-color:#cc222e"
         offset="0"
         id="stop24810" />
      <stop
         style="stop-opacity:1;stop-color:#a11621"
         offset="1"
         id="stop24812" />
    </radialGradient>
    <clipPath
       clipPathUnits="userSpaceOnUse"
       id="clipPath24782">
      <path
         d="m 304.63519,428.44008 h 2.36869 v -2.36863 h -2.36869 z"
         id="path24780"
         inkscape:connector-curvature="0" />
    </clipPath>
    <radialGradient
       fx="0"
       fy="0"
       cx="0"
       cy="0"
       r="1"
       gradientUnits="userSpaceOnUse"
       gradientTransform="matrix(2.5450385,0,0,-2.5450385,306.58177,427.97704)"
       spreadMethod="pad"
       id="radialGradient24788">
      <stop
         style="stop-opacity:1;stop-color:#4d5da3"
         offset="0"
         id="stop24784" />
      <stop
         style="stop-opacity:1;stop-color:#282e7e"
         offset="1"
         id="stop24786" />
    </radialGradient>
    <clipPath
       clipPathUnits="userSpaceOnUse"
       id="clipPath24756">
      <path
         d="m 307.49564,428.48932 h 1.86868 v -1.92611 h -1.86868 z"
         id="path24754"
         inkscape:connector-curvature="0" />
    </clipPath>
    <radialGradient
       fx="0.0571381"
       fy="0.03339"
       cx="0"
       cy="0"
       r="1"
       gradientUnits="userSpaceOnUse"
       gradientTransform="matrix(1.6304068,0,0,-1.6304068,308.06938,428.08359)"
       spreadMethod="pad"
       id="radialGradient24762">
      <stop
         style="stop-opacity:1;stop-color:#4d5da3"
         offset="0"
         id="stop24758" />
      <stop
         style="stop-opacity:1;stop-color:#282e7e"
         offset="1"
         id="stop24760" />
    </radialGradient>
    <clipPath
       clipPathUnits="userSpaceOnUse"
       id="clipPath24730">
      <path
         d="m 305.11877,430.80058 h 1.88512 v -1.88509 h -1.88512 z"
         id="path24728"
         inkscape:connector-curvature="0" />
    </clipPath>
    <radialGradient
       fx="0"
       fy="0"
       cx="0"
       cy="0"
       r="1"
       gradientUnits="userSpaceOnUse"
       gradientTransform="matrix(1.7818253,0,0,-1.7818253,306.41376,429.5138)"
       spreadMethod="pad"
       id="radialGradient24736">
      <stop
         style="stop-opacity:1;stop-color:#4d5da3"
         offset="0"
         id="stop24732" />
      <stop
         style="stop-opacity:1;stop-color:#282e7e"
         offset="1"
         id="stop24734" />
    </radialGradient>
    <clipPath
       clipPathUnits="userSpaceOnUse"
       id="clipPath24704">
      <path
         d="m 313.83554,423.29479 0.89727,2.11383 1.98713,-0.84349 -0.89726,-2.11383 z"
         id="path24702"
         inkscape:connector-curvature="0" />
    </clipPath>
    <linearGradient
       x1="0"
       y1="0"
       x2="1"
       y2="0"
       gradientUnits="userSpaceOnUse"
       gradientTransform="matrix(0.8038247,1.8936926,1.8936926,-0.8038247,315.099,422.75845)"
       spreadMethod="pad"
       id="linearGradient24710">
      <stop
         style="stop-opacity:1;stop-color:#4d5da3"
         offset="0"
         id="stop24706" />
      <stop
         style="stop-opacity:1;stop-color:#282e7e"
         offset="1"
         id="stop24708" />
    </linearGradient>
    <clipPath
       clipPathUnits="userSpaceOnUse"
       id="clipPath24678">
      <path
         d="m 312.43644,423.2948 0.89459,2.10751 1.97232,-0.83719 -0.89459,-2.10752 z"
         id="path24676"
         inkscape:connector-curvature="0" />
    </clipPath>
    <linearGradient
       x1="0"
       y1="0"
       x2="1"
       y2="0"
       gradientUnits="userSpaceOnUse"
       gradientTransform="matrix(0.8030616,1.8918946,1.8918946,-0.8030616,313.24846,423.20459)"
       spreadMethod="pad"
       id="linearGradient24684">
      <stop
         style="stop-opacity:1;stop-color:#4d5da3"
         offset="0"
         id="stop24680" />
      <stop
         style="stop-opacity:1;stop-color:#282e7e"
         offset="1"
         id="stop24682" />
    </linearGradient>
    <clipPath
       clipPathUnits="userSpaceOnUse"
       id="clipPath24652">
      <path
         d="m 311.02749,423.29479 0.89727,2.11382 1.98713,-0.84349 -0.89726,-2.11382 z"
         id="path24650"
         inkscape:connector-curvature="0" />
    </clipPath>
    <linearGradient
       x1="0"
       y1="0"
       x2="1"
       y2="0"
       gradientUnits="userSpaceOnUse"
       gradientTransform="matrix(0.8038188,1.8936787,1.8936787,-0.8038188,312.29096,422.75848)"
       spreadMethod="pad"
       id="linearGradient24658">
      <stop
         style="stop-opacity:1;stop-color:#4d5da3"
         offset="0"
         id="stop24654" />
      <stop
         style="stop-opacity:1;stop-color:#282e7e"
         offset="1"
         id="stop24656" />
    </linearGradient>
    <clipPath
       clipPathUnits="userSpaceOnUse"
       id="clipPath24626">
      <path
         d="m 309.73843,423.2948 0.82899,1.95296 1.60818,-0.68263 -0.82898,-1.95297 z"
         id="path24624"
         inkscape:connector-curvature="0" />
    </clipPath>
    <linearGradient
       x1="0"
       y1="0"
       x2="1"
       y2="0"
       gradientUnits="userSpaceOnUse"
       gradientTransform="matrix(0.6642877,1.5649638,1.5649638,-0.6642877,310.58019,423.04227)"
       spreadMethod="pad"
       id="linearGradient24632">
      <stop
         style="stop-opacity:1;stop-color:#4d5da3"
         offset="0"
         id="stop24628" />
      <stop
         style="stop-opacity:1;stop-color:#282e7e"
         offset="1"
         id="stop24630" />
    </linearGradient>
    <clipPath
       clipPathUnits="userSpaceOnUse"
       id="clipPath24600">
      <path
         d="m 308.22437,423.28011 0.8595,2.02487 1.72024,-0.7302 -0.8595,-2.02487 z"
         id="path24598"
         inkscape:connector-curvature="0" />
    </clipPath>
    <linearGradient
       x1="0"
       y1="0"
       x2="1"
       y2="0"
       gradientUnits="userSpaceOnUse"
       gradientTransform="matrix(0.7909981,1.863475,1.863475,-0.7909981,309.11789,422.99524)"
       spreadMethod="pad"
       id="linearGradient24606">
      <stop
         style="stop-opacity:1;stop-color:#4d5da3"
         offset="0"
         id="stop24602" />
      <stop
         style="stop-opacity:1;stop-color:#282e7e"
         offset="1"
         id="stop24604" />
    </linearGradient>
    <clipPath
       clipPathUnits="userSpaceOnUse"
       id="clipPath24574">
      <path
         d="m 307.68482,423.2948 0.70199,1.65378 0.90329,-0.38342 -0.70199,-1.65378 z"
         id="path24572"
         inkscape:connector-curvature="0" />
    </clipPath>
    <linearGradient
       x1="0"
       y1="0"
       x2="1"
       y2="0"
       gradientUnits="userSpaceOnUse"
       gradientTransform="matrix(0.7019807,1.6537631,1.6537631,-0.7019807,308.13649,423.10308)"
       spreadMethod="pad"
       id="linearGradient24580">
      <stop
         style="stop-opacity:1;stop-color:#4d5da3"
         offset="0"
         id="stop24576" />
      <stop
         style="stop-opacity:1;stop-color:#282e7e"
         offset="1"
         id="stop24578" />
    </linearGradient>
    <clipPath
       clipPathUnits="userSpaceOnUse"
       id="clipPath24548">
      <path
         d="m 306.13584,423.2948 0.85951,2.02487 1.77758,-0.75454 -0.85951,-2.02487 z"
         id="path24546"
         inkscape:connector-curvature="0" />
    </clipPath>
    <linearGradient
       x1="0"
       y1="0"
       x2="1"
       y2="0"
       gradientUnits="userSpaceOnUse"
       gradientTransform="matrix(0.7817035,1.8415783,1.8415783,-0.7817035,306.88124,423.19469)"
       spreadMethod="pad"
       id="linearGradient24554">
      <stop
         style="stop-opacity:1;stop-color:#4d5da3"
         offset="0"
         id="stop24550" />
      <stop
         style="stop-opacity:1;stop-color:#282e7e"
         offset="1"
         id="stop24552" />
    </linearGradient>
    <clipPath
       clipPathUnits="userSpaceOnUse"
       id="clipPath24522">
      <path
         d="m 304.66936,423.29479 0.89726,2.11383 1.98717,-0.8435 -0.89727,-2.11383 z"
         id="path24520"
         inkscape:connector-curvature="0" />
    </clipPath>
    <linearGradient
       x1="0"
       y1="0"
       x2="1"
       y2="0"
       gradientUnits="userSpaceOnUse"
       gradientTransform="matrix(0.8038247,1.8936926,1.8936926,-0.8038247,305.93282,422.75845)"
       spreadMethod="pad"
       id="linearGradient24528">
      <stop
         style="stop-opacity:1;stop-color:#4d5da3"
         offset="0"
         id="stop24524" />
      <stop
         style="stop-opacity:1;stop-color:#282e7e"
         offset="1"
         id="stop24526" />
    </linearGradient>
    <clipPath
       clipPathUnits="userSpaceOnUse"
       id="clipPath24496">
      <path
         d="m 303.20543,423.2948 0.85989,2.02575 1.77968,-0.75543 -0.85988,-2.02575 z"
         id="path24494"
         inkscape:connector-curvature="0" />
    </clipPath>
    <linearGradient
       x1="0"
       y1="0"
       x2="1"
       y2="0"
       gradientUnits="userSpaceOnUse"
       gradientTransform="matrix(0.7978019,1.8795037,1.8795037,-0.7978019,304.09527,422.91705)"
       spreadMethod="pad"
       id="linearGradient24502">
      <stop
         style="stop-opacity:1;stop-color:#4d5da3"
         offset="0"
         id="stop24498" />
      <stop
         style="stop-opacity:1;stop-color:#282e7e"
         offset="1"
         id="stop24500" />
    </linearGradient>
    <clipPath
       clipPathUnits="userSpaceOnUse"
       id="clipPath24470">
      <path
         d="m 301.73892,423.29479 0.84997,2.0024 1.72464,-0.73207 -0.84997,-2.00239 z"
         id="path24468"
         inkscape:connector-curvature="0" />
    </clipPath>
    <linearGradient
       x1="0"
       y1="0"
       x2="1"
       y2="0"
       gradientUnits="userSpaceOnUse"
       gradientTransform="matrix(0.791643,1.8649942,1.8649942,-0.791643,302.53497,422.9569)"
       spreadMethod="pad"
       id="linearGradient24476">
      <stop
         style="stop-opacity:1;stop-color:#4d5da3"
         offset="0"
         id="stop24472" />
      <stop
         style="stop-opacity:1;stop-color:#282e7e"
         offset="1"
         id="stop24474" />
    </linearGradient>
    <clipPath
       clipPathUnits="userSpaceOnUse"
       id="clipPath24444">
      <path
         d="m 299.34058,423.29477 0.8946,2.10755 1.97233,-0.8372 -0.8946,-2.10755 z"
         id="path24442"
         inkscape:connector-curvature="0" />
    </clipPath>
    <linearGradient
       x1="0"
       y1="0"
       x2="1"
       y2="0"
       gradientUnits="userSpaceOnUse"
       gradientTransform="matrix(0.8030616,1.8918946,1.8918946,-0.8030616,300.15262,423.20459)"
       spreadMethod="pad"
       id="linearGradient24450">
      <stop
         style="stop-opacity:1;stop-color:#4d5da3"
         offset="0"
         id="stop24446" />
      <stop
         style="stop-opacity:1;stop-color:#282e7e"
         offset="1"
         id="stop24448" />
    </linearGradient>
    <clipPath
       clipPathUnits="userSpaceOnUse"
       id="clipPath24418">
      <path
         d="m 297.86662,423.29477 0.85951,2.02487 1.77754,-0.75452 -0.8595,-2.02487 z"
         id="path24416"
         inkscape:connector-curvature="0" />
    </clipPath>
    <linearGradient
       x1="0"
       y1="0"
       x2="1"
       y2="0"
       gradientUnits="userSpaceOnUse"
       gradientTransform="matrix(0.7816976,1.8415643,1.8415643,-0.7816976,298.612,423.19472)"
       spreadMethod="pad"
       id="linearGradient24424">
      <stop
         style="stop-opacity:1;stop-color:#4d5da3"
         offset="0"
         id="stop24420" />
      <stop
         style="stop-opacity:1;stop-color:#282e7e"
         offset="1"
         id="stop24422" />
    </linearGradient>
  </defs>
  <sodipodi:namedview
     id="base"
     pagecolor="#ffffff"
     bordercolor="#666666"
     borderopacity="1.0"
     inkscape:pageopacity="0.0"
     inkscape:pageshadow="2"
     inkscape:zoom="44.8"
     inkscape:cx="9.9180022"
     inkscape:cy="6.7030406"
     inkscape:document-units="mm"
     inkscape:current-layer="layer1"
     showgrid="false"
     fit-margin-top="0"
     fit-margin-left="0"
     fit-margin-right="0"
     fit-margin-bottom="0"
     inkscape:window-width="1920"
     inkscape:window-height="1017"
     inkscape:window-x="-8"
     inkscape:window-y="-8"
     inkscape:window-maximized="1" />
  <metadata
     id="metadata87073">
    <rdf:RDF>
      <cc:Work
         rdf:about="">
        <dc:format>image/svg+xml</dc:format>
        <dc:type
           rdf:resource="http://purl.org/dc/dcmitype/StillImage" />
        <dc:title></dc:title>
      </cc:Work>
    </rdf:RDF>
  </metadata>
  <g
     inkscape:label="Layer 1"
     inkscape:groupmode="layer"
     id="layer1"
     transform="translate(41.646726,-105.79845)">
    <g
       transform="matrix(0.35277777,0,0,-0.35277777,-146.95971,257.93704)"
       id="g24402"
       style="fill:#ffffff;fill-opacity:1">
      <g
         id="g24404"
         style="fill:#ffffff;fill-opacity:1">
        <g
           id="g24410"
           style="fill:#ffffff;fill-opacity:1">
          <g
             id="g24412"
             style="fill:#ffffff;fill-opacity:1">
            <g
               id="g24414"
               clip-path="url(#clipPath24418)"
               style="fill:#ffffff;fill-opacity:1">
              <path
                 d="m 298.525,424.844 v -0.272 h 0.509 v -1.557 h 0.29 v 1.557 h 0.522 v 0.272 z"
                 style="fill:#ffffff;stroke:none;fill-opacity:1"
                 id="path24426"
                 inkscape:connector-curvature="0" />
            </g>
          </g>
        </g>
      </g>
    </g>
    <g
       transform="matrix(0.35277777,0,0,-0.35277777,-146.95971,257.93704)"
       id="g24428"
       style="fill:#ffffff;fill-opacity:1">
      <g
         id="g24430"
         style="fill:#ffffff;fill-opacity:1">
        <g
           id="g24436"
           style="fill:#ffffff;fill-opacity:1">
          <g
             id="g24438"
             style="fill:#ffffff;fill-opacity:1">
            <g
               id="g24440"
               clip-path="url(#clipPath24444)"
               style="fill:#ffffff;fill-opacity:1">
              <path
                 d="m 301.24,424.844 -0.477,-1.429 -0.455,1.429 h -0.309 l -0.001,-10e-4 0.6,-1.828 h 0.325 l 0.626,1.829 z"
                 style="fill:#ffffff;stroke:none;fill-opacity:1"
                 id="path24452"
                 inkscape:connector-curvature="0" />
            </g>
          </g>
        </g>
      </g>
    </g>
    <g
       transform="matrix(0.35277777,0,0,-0.35277777,-146.95971,257.93704)"
       id="g24454"
       style="fill:#ffffff;fill-opacity:1">
      <g
         id="g24456"
         style="fill:#ffffff;fill-opacity:1">
        <g
           id="g24462"
           style="fill:#ffffff;fill-opacity:1">
          <g
             id="g24464"
             style="fill:#ffffff;fill-opacity:1">
            <g
               id="g24466"
               clip-path="url(#clipPath24470)"
               style="fill:#ffffff;fill-opacity:1">
              <path
                 d="m 302.397,424.844 h -10e-4 v -1.828 l 0.002,-0.001 h 0.738 c 0.347,0 0.519,0.177 0.519,0.528 v 0 c 0,0.118 -0.025,0.214 -0.077,0.289 v 0 c -0.051,0.073 -0.114,0.118 -0.187,0.133 v 0 c 0.084,0.018 0.145,0.065 0.183,0.138 v 0 c 0.04,0.075 0.059,0.152 0.059,0.233 v 0 c 0,0.081 -0.009,0.148 -0.027,0.204 v 0 c -0.065,0.202 -0.223,0.304 -0.475,0.304 v 0 z m 0.289,-0.265 h 0.432 c 0.064,0 0.117,-0.017 0.162,-0.052 v 0 c 0.044,-0.035 0.066,-0.094 0.066,-0.177 v 0 c 0,-0.084 -0.019,-0.146 -0.058,-0.188 v 0 c -0.038,-0.042 -0.094,-0.062 -0.17,-0.062 v 0 h -0.432 z m 0,-0.734 h 0.443 c 0.079,0 0.139,-0.028 0.178,-0.083 v 0 c 0.04,-0.055 0.059,-0.124 0.059,-0.207 v 0 c 0,-0.183 -0.08,-0.274 -0.237,-0.274 v 0 h -0.443 z"
                 style="fill:#ffffff;stroke:none;fill-opacity:1"
                 id="path24478"
                 inkscape:connector-curvature="0" />
            </g>
          </g>
        </g>
      </g>
    </g>
    <g
       transform="matrix(0.35277777,0,0,-0.35277777,-146.95971,257.93704)"
       id="g24480"
       style="fill:#ffffff;fill-opacity:1">
      <g
         id="g24482"
         style="fill:#ffffff;fill-opacity:1">
        <g
           id="g24488"
           style="fill:#ffffff;fill-opacity:1">
          <g
             id="g24490"
             style="fill:#ffffff;fill-opacity:1">
            <g
               id="g24492"
               clip-path="url(#clipPath24496)"
               style="fill:#ffffff;fill-opacity:1">
              <path
                 d="m 303.863,424.844 v -1.828 l 10e-4,-0.001 h 0.289 v 0.747 l 0.377,-0.035 0.332,-0.712 h 0.325 v 0.001 l -0.36,0.732 c 0.029,0.008 0.051,0.015 0.067,0.021 v 0 c 0.015,0.006 0.041,0.021 0.075,0.046 v 0 c 0.106,0.075 0.158,0.231 0.158,0.468 v 0 c 0,0.374 -0.157,0.561 -0.47,0.561 v 0 z m 0.292,-0.265 h 0.48 c 0.064,0 0.112,-0.02 0.147,-0.062 v 0 c 0.035,-0.042 0.053,-0.123 0.053,-0.244 v 0 c 0,-0.12 -0.019,-0.198 -0.057,-0.234 v 0 c -0.021,-0.016 -0.041,-0.027 -0.061,-0.033 v 0 c -0.019,-0.006 -0.047,-0.009 -0.082,-0.009 v 0 h -0.48 z"
                 style="fill:#ffffff;stroke:none;fill-opacity:1"
                 id="path24504"
                 inkscape:connector-curvature="0" />
            </g>
          </g>
        </g>
      </g>
    </g>
    <g
       transform="matrix(0.35277777,0,0,-0.35277777,-146.95971,257.93704)"
       id="g24506"
       style="fill:#ffffff;fill-opacity:1">
      <g
         id="g24508"
         style="fill:#ffffff;fill-opacity:1">
        <g
           id="g24514"
           style="fill:#ffffff;fill-opacity:1">
          <g
             id="g24516"
             style="fill:#ffffff;fill-opacity:1">
            <g
               id="g24518"
               clip-path="url(#clipPath24522)"
               style="fill:#ffffff;fill-opacity:1">
              <path
                 d="m 305.964,424.844 -0.637,-1.828 10e-4,-0.001 h 0.321 l 0.143,0.443 h 0.647 l 0.14,-0.443 h 0.317 v 0.001 l -0.612,1.828 z m 0.16,-0.394 0.24,-0.727 h -0.49 z"
                 style="fill:#ffffff;stroke:none;fill-opacity:1"
                 id="path24530"
                 inkscape:connector-curvature="0" />
            </g>
          </g>
        </g>
      </g>
    </g>
    <g
       transform="matrix(0.35277777,0,0,-0.35277777,-146.95971,257.93704)"
       id="g24532"
       style="fill:#ffffff;fill-opacity:1">
      <g
         id="g24534"
         style="fill:#ffffff;fill-opacity:1">
        <g
           id="g24540"
           style="fill:#ffffff;fill-opacity:1">
          <g
             id="g24542"
             style="fill:#ffffff;fill-opacity:1">
            <g
               id="g24544"
               clip-path="url(#clipPath24548)"
               style="fill:#ffffff;fill-opacity:1">
              <path
                 d="m 306.794,424.844 v -0.272 h 0.509 v -1.557 h 0.29 v 1.557 h 0.522 v 0.272 z"
                 style="fill:#ffffff;stroke:none;fill-opacity:1"
                 id="path24556"
                 inkscape:connector-curvature="0" />
            </g>
          </g>
        </g>
      </g>
    </g>
    <g
       transform="matrix(0.35277777,0,0,-0.35277777,-146.95971,257.93704)"
       id="g24558"
       style="fill:#ffffff;fill-opacity:1">
      <g
         id="g24560"
         style="fill:#ffffff;fill-opacity:1">
        <g
           id="g24566"
           style="fill:#ffffff;fill-opacity:1">
          <g
             id="g24568"
             style="fill:#ffffff;fill-opacity:1">
            <g
               id="g24570"
               clip-path="url(#clipPath24574)"
               style="fill:#ffffff;fill-opacity:1">
              <path
                 d="m 308.343,424.844 v -1.828 l 10e-4,-0.001 h 0.288 l 10e-4,0.001 v 1.828 z"
                 style="fill:#ffffff;stroke:none;fill-opacity:1"
                 id="path24582"
                 inkscape:connector-curvature="0" />
            </g>
          </g>
        </g>
      </g>
    </g>
    <g
       transform="matrix(0.35277777,0,0,-0.35277777,-146.95971,257.93704)"
       id="g24584"
       style="fill:#ffffff;fill-opacity:1">
      <g
         id="g24586"
         style="fill:#ffffff;fill-opacity:1">
        <g
           id="g24592"
           style="fill:#ffffff;fill-opacity:1">
          <g
             id="g24594"
             style="fill:#ffffff;fill-opacity:1">
            <g
               id="g24596"
               clip-path="url(#clipPath24600)"
               style="fill:#ffffff;fill-opacity:1">
              <path
                 d="m 309.342,424.859 c -0.042,0 -0.091,-0.007 -0.148,-0.022 v 0 c -0.057,-0.015 -0.108,-0.04 -0.155,-0.073 v 0 c -0.096,-0.069 -0.145,-0.192 -0.145,-0.367 v 0 -0.16 c 0,-0.091 0.014,-0.171 0.041,-0.24 v 0 c 0.018,-0.045 0.043,-0.083 0.075,-0.113 v 0 c 0.031,-0.031 0.077,-0.057 0.135,-0.079 v 0 c 0.06,-0.022 0.13,-0.033 0.212,-0.033 v 0 h 0.307 c 0.066,0 0.113,-0.017 0.14,-0.05 v 0 c 0.026,-0.034 0.04,-0.084 0.04,-0.147 v 0 -0.125 c 0,-0.08 -0.031,-0.131 -0.093,-0.155 v 0 c -0.03,-0.011 -0.057,-0.019 -0.082,-0.022 v 0 c -0.025,-0.003 -0.105,-0.005 -0.24,-0.005 v 0 c -0.135,0 -0.293,0.009 -0.477,0.027 v 0 -0.229 c 0.176,-0.047 0.401,-0.071 0.675,-0.071 v 0 c 0.113,0 0.208,0.018 0.284,0.051 v 0 c 0.149,0.063 0.223,0.201 0.223,0.412 v 0 0.14 c 0,0.064 -0.008,0.125 -0.023,0.18 v 0 c -0.049,0.189 -0.182,0.284 -0.394,0.284 v 0 h -0.315 c -0.078,0 -0.134,0.014 -0.167,0.039 v 0 c -0.034,0.026 -0.051,0.08 -0.051,0.161 v 0 0.118 c 0,0.091 0.021,0.148 0.061,0.172 v 0 c 0.039,0.023 0.092,0.035 0.157,0.035 v 0 c 0.065,0 0.175,-0.002 0.332,-0.008 v 0 c 0.151,-0.006 0.262,-0.012 0.332,-0.017 v 0 0.23 c -0.068,0.016 -0.169,0.032 -0.302,0.046 v 0 c -0.133,0.014 -0.226,0.021 -0.28,0.021 v 0 z"
                 style="fill:#ffffff;stroke:none;fill-opacity:1"
                 id="path24608"
                 inkscape:connector-curvature="0" />
            </g>
          </g>
        </g>
      </g>
    </g>
    <g
       transform="matrix(0.35277777,0,0,-0.35277777,-146.95971,257.93704)"
       id="g24610"
       style="fill:#ffffff;fill-opacity:1">
      <g
         id="g24612"
         style="fill:#ffffff;fill-opacity:1">
        <g
           id="g24618"
           style="fill:#ffffff;fill-opacity:1">
          <g
             id="g24620"
             style="fill:#ffffff;fill-opacity:1">
            <g
               id="g24622"
               clip-path="url(#clipPath24626)"
               style="fill:#ffffff;fill-opacity:1">
              <path
                 d="m 310.396,424.844 v -1.489 c 0,-0.066 0.01,-0.123 0.03,-0.17 v 0 c 0.047,-0.113 0.159,-0.17 0.335,-0.17 v 0 h 0.757 v 0.273 h -0.677 c -0.044,0 -0.077,0.004 -0.103,0.015 v 0 c -0.035,0.013 -0.052,0.052 -0.052,0.115 v 0 1.426 z"
                 style="fill:#ffffff;stroke:none;fill-opacity:1"
                 id="path24634"
                 inkscape:connector-curvature="0" />
            </g>
          </g>
        </g>
      </g>
    </g>
    <g
       transform="matrix(0.35277777,0,0,-0.35277777,-146.95971,257.93704)"
       id="g24636"
       style="fill:#ffffff;fill-opacity:1">
      <g
         id="g24638"
         style="fill:#ffffff;fill-opacity:1">
        <g
           id="g24644"
           style="fill:#ffffff;fill-opacity:1">
          <g
             id="g24646"
             style="fill:#ffffff;fill-opacity:1">
            <g
               id="g24648"
               clip-path="url(#clipPath24652)"
               style="fill:#ffffff;fill-opacity:1">
              <path
                 d="m 312.322,424.844 -0.637,-1.828 10e-4,-0.001 h 0.322 l 0.142,0.443 h 0.647 l 0.14,-0.443 h 0.317 l -0.612,1.829 z m 0.16,-0.394 0.24,-0.727 h -0.49 z"
                 style="fill:#ffffff;stroke:none;fill-opacity:1"
                 id="path24660"
                 inkscape:connector-curvature="0" />
            </g>
          </g>
        </g>
      </g>
    </g>
    <g
       transform="matrix(0.35277777,0,0,-0.35277777,-146.95971,257.93704)"
       id="g24662"
       style="fill:#ffffff;fill-opacity:1">
      <g
         id="g24664"
         style="fill:#ffffff;fill-opacity:1">
        <g
           id="g24670"
           style="fill:#ffffff;fill-opacity:1">
          <g
             id="g24672"
             style="fill:#ffffff;fill-opacity:1">
            <g
               id="g24674"
               clip-path="url(#clipPath24678)"
               style="fill:#ffffff;fill-opacity:1">
              <path
                 d="m 314.336,424.844 -0.477,-1.429 -0.455,1.429 h -0.31 v -10e-4 l 0.6,-1.828 h 0.325 l 0.626,1.829 z"
                 style="fill:#ffffff;stroke:none;fill-opacity:1"
                 id="path24686"
                 inkscape:connector-curvature="0" />
            </g>
          </g>
        </g>
      </g>
    </g>
    <g
       transform="matrix(0.35277777,0,0,-0.35277777,-146.95971,257.93704)"
       id="g24688"
       style="fill:#ffffff;fill-opacity:1">
      <g
         id="g24690"
         style="fill:#ffffff;fill-opacity:1">
        <g
           id="g24696"
           style="fill:#ffffff;fill-opacity:1">
          <g
             id="g24698"
             style="fill:#ffffff;fill-opacity:1">
            <g
               id="g24700"
               clip-path="url(#clipPath24704)"
               style="fill:#ffffff;fill-opacity:1">
              <path
                 d="m 315.13,424.844 -0.637,-1.828 0.001,-0.001 h 0.321 l 0.143,0.443 h 0.647 l 0.14,-0.443 h 0.317 l -0.612,1.829 z m 0.16,-0.394 0.24,-0.727 h -0.49 z"
                 style="fill:#ffffff;stroke:none;fill-opacity:1"
                 id="path24712"
                 inkscape:connector-curvature="0" />
            </g>
          </g>
        </g>
      </g>
    </g>
    <g
       transform="matrix(0.35277777,0,0,-0.35277777,-146.95971,257.93704)"
       id="g24714">
      <g
         id="g24716">
        <g
           id="g24722">
          <g
             id="g24724">
            <g
               id="g24726"
               clip-path="url(#clipPath24730)">
              <path
                 d="m 305.119,428.916 h 1.885 v 1.885 h -1.885 z"
                 style="fill:url(#radialGradient24736);stroke:none"
                 id="path24738"
                 inkscape:connector-curvature="0" />
            </g>
          </g>
        </g>
      </g>
    </g>
    <g
       transform="matrix(0.35277777,0,0,-0.35277777,-146.95971,257.93704)"
       id="g24740">
      <g
         id="g24742">
        <g
           id="g24748">
          <g
             id="g24750">
            <g
               id="g24752"
               clip-path="url(#clipPath24756)">
              <path
                 d="m 307.496,426.563 h 1.868 v 1.926 h -1.868 z"
                 style="fill:url(#radialGradient24762);stroke:none"
                 id="path24764"
                 inkscape:connector-curvature="0" />
            </g>
          </g>
        </g>
      </g>
    </g>
    <g
       transform="matrix(0.35277777,0,0,-0.35277777,-146.95971,257.93704)"
       id="g24766">
      <g
         id="g24768">
        <g
           id="g24774">
          <g
             id="g24776">
            <g
               id="g24778"
               clip-path="url(#clipPath24782)">
              <path
                 d="m 304.636,426.072 h 2.368 v 2.369 h -2.368 z"
                 style="fill:url(#radialGradient24788);stroke:none"
                 id="path24790"
                 inkscape:connector-curvature="0" />
            </g>
          </g>
        </g>
      </g>
    </g>
    <g
       transform="matrix(0.35277777,0,0,-0.35277777,-146.95971,257.93704)"
       id="g24792">
      <g
         id="g24794">
        <g
           id="g24800">
          <g
             id="g24802">
            <g
               id="g24804"
               clip-path="url(#clipPath24808)">
              <path
                 d="m 307.471,428.94 h 2.304 v 2.319 h -2.304 z"
                 style="fill:url(#radialGradient24814);stroke:none"
                 id="path24816"
                 inkscape:connector-curvature="0" />
            </g>
          </g>
        </g>
      </g>
    </g>
  </g>
</svg>
