<svg height="2.915355mm" viewBox="0 0 6.1866636 2.9153554" width="6.186664mm" xmlns="http://www.w3.org/2000/svg" xmlns:xlink="http://www.w3.org/1999/xlink"><clipPath id="a"><path d="m307.47102 431.25957h2.30316v-2.31948h-2.30316z"/></clipPath><radialGradient id="b" cx="0" cy="0" gradientTransform="matrix(2.6924899 0 0 -2.6924899 308.02426 429.5589)" gradientUnits="userSpaceOnUse" r="1" spreadMethod="pad"><stop offset="0" stop-color="#cc222e"/><stop offset="1" stop-color="#a11621"/></radialGradient><clipPath id="c"><path d="m304.63519 428.44008h2.36869v-2.36863h-2.36869z"/></clipPath><linearGradient id="d"><stop offset="0" stop-color="#4d5da3"/><stop offset="1" stop-color="#282e7e"/></linearGradient><radialGradient id="e" cx="0" cy="0" gradientTransform="matrix(2.5450385 0 0 -2.5450385 306.58177 427.97704)" gradientUnits="userSpaceOnUse" r="1" spreadMethod="pad" xlink:href="#d"/><clipPath id="f"><path d="m307.49564 428.48932h1.86868v-1.92611h-1.86868z"/></clipPath><radialGradient id="g" cx="0" cy="0" fx=".057138" fy=".03339" gradientTransform="matrix(1.6304068 0 0 -1.6304068 308.06938 428.08359)" gradientUnits="userSpaceOnUse" r="1" spreadMethod="pad" xlink:href="#d"/><clipPath id="h"><path d="m305.11877 430.80058h1.88512v-1.88509h-1.88512z"/></clipPath><radialGradient id="i" cx="0" cy="0" gradientTransform="matrix(1.7818253 0 0 -1.7818253 306.41376 429.5138)" gradientUnits="userSpaceOnUse" r="1" spreadMethod="pad" xlink:href="#d"/><clipPath id="j"><path d="m313.83554 423.29479.89727 2.11383 1.98713-.84349-.89726-2.11383z"/></clipPath><clipPath id="k"><path d="m312.43644 423.2948.89459 2.10751 1.97232-.83719-.89459-2.10752z"/></clipPath><clipPath id="l"><path d="m311.02749 423.29479.89727 2.11382 1.98713-.84349-.89726-2.11382z"/></clipPath><clipPath id="m"><path d="m309.73843 423.2948.82899 1.95296 1.60818-.68263-.82898-1.95297z"/></clipPath><clipPath id="n"><path d="m308.22437 423.28011.8595 2.02487 1.72024-.7302-.8595-2.02487z"/></clipPath><clipPath id="o"><path d="m307.68482 423.2948.70199 1.65378.90329-.38342-.70199-1.65378z"/></clipPath><clipPath id="p"><path d="m306.13584 423.2948.85951 2.02487 1.77758-.75454-.85951-2.02487z"/></clipPath><clipPath id="q"><path d="m304.66936 423.29479.89726 2.11383 1.98717-.8435-.89727-2.11383z"/></clipPath><clipPath id="r"><path d="m303.20543 423.2948.85989 2.02575 1.77968-.75543-.85988-2.02575z"/></clipPath><clipPath id="s"><path d="m301.73892 423.29479.84997 2.0024 1.72464-.73207-.84997-2.00239z"/></clipPath><clipPath id="t"><path d="m299.34058 423.29477.8946 2.10755 1.97233-.8372-.8946-2.10755z"/></clipPath><clipPath id="u"><path d="m297.86662 423.29477.85951 2.02487 1.77754-.75452-.8595-2.02487z"/></clipPath><g fill="#fff"><g clip-path="url(#u)" transform="matrix(.35277777 0 0 -.35277777 -105.312984 152.13859)"><path d="m298.525 424.844v-.272h.509v-1.557h.29v1.557h.522v.272z" fill="#fff"/></g><g clip-path="url(#t)" transform="matrix(.35277777 0 0 -.35277777 -105.312984 152.13859)"><path d="m301.24 424.844-.477-1.429-.455 1.429h-.309l-.001-.001.6-1.828h.325l.626 1.829z" fill="#fff"/></g><g clip-path="url(#s)" transform="matrix(.35277777 0 0 -.35277777 -105.312984 152.13859)"><path d="m302.397 424.844h-.001v-1.828l.002-.001h.738c.347 0 .519.177.519.528 0 .118-.025.214-.077.289-.051.073-.114.118-.187.133.084.018.145.065.183.138.04.075.059.152.059.233 0 .081-.009.148-.027.204-.065.202-.223.304-.475.304zm.289-.265h.432c.064 0 .117-.017.162-.052.044-.035.066-.094.066-.177 0-.084-.019-.146-.058-.188-.038-.042-.094-.062-.17-.062h-.432zm0-.734h.443c.079 0 .139-.028.178-.083.04-.055.059-.124.059-.207 0-.183-.08-.274-.237-.274h-.443z" fill="#fff"/></g><g clip-path="url(#r)" transform="matrix(.35277777 0 0 -.35277777 -105.312984 152.13859)"><path d="m303.863 424.844v-1.828l.001-.001h.289v.747l.377-.035.332-.712h.325v.001l-.36.732c.029.008.051.015.067.021.015.006.041.021.075.046.106.075.158.231.158.468 0 .374-.157.561-.47.561zm.292-.265h.48c.064 0 .112-.02.147-.062.035-.042.053-.123.053-.244 0-.12-.019-.198-.057-.234-.021-.016-.041-.027-.061-.033-.019-.006-.047-.009-.082-.009h-.48z" fill="#fff"/></g><g clip-path="url(#q)" transform="matrix(.35277777 0 0 -.35277777 -105.312984 152.13859)"><path d="m305.964 424.844-.637-1.828.001-.001h.321l.143.443h.647l.14-.443h.317v.001l-.612 1.828zm.16-.394.24-.727h-.49z" fill="#fff"/></g><g clip-path="url(#p)" transform="matrix(.35277777 0 0 -.35277777 -105.312984 152.13859)"><path d="m306.794 424.844v-.272h.509v-1.557h.29v1.557h.522v.272z" fill="#fff"/></g><g clip-path="url(#o)" transform="matrix(.35277777 0 0 -.35277777 -105.312984 152.13859)"><path d="m308.343 424.844v-1.828l.001-.001h.288l.001.001v1.828z" fill="#fff"/></g><g clip-path="url(#n)" transform="matrix(.35277777 0 0 -.35277777 -105.312984 152.13859)"><path d="m309.342 424.859c-.042 0-.091-.007-.148-.022-.057-.015-.108-.04-.155-.073-.096-.069-.145-.192-.145-.367v-.16c0-.091.014-.171.041-.24.018-.045.043-.083.075-.113.031-.031.077-.057.135-.079.06-.022.13-.033.212-.033h.307c.066 0 .113-.017.14-.05.026-.034.04-.084.04-.147v-.125c0-.08-.031-.131-.093-.155-.03-.011-.057-.019-.082-.022-.025-.003-.105-.005-.24-.005-.135 0-.293.009-.477.027v-.229c.176-.047.401-.071.675-.071.113 0 .208.018.284.051.149.063.223.201.223.412v.14c0 .064-.008.125-.023.18-.049.189-.182.284-.394.284h-.315c-.078 0-.134.014-.167.039-.034.026-.051.08-.051.161v.118c0 .091.021.148.061.172.039.023.092.035.157.035.065 0 .175-.002.332-.008.151-.006.262-.012.332-.017v.23c-.068.016-.169.032-.302.046-.133.014-.226.021-.28.021z" fill="#fff"/></g><g clip-path="url(#m)" transform="matrix(.35277777 0 0 -.35277777 -105.312984 152.13859)"><path d="m310.396 424.844v-1.489c0-.066.01-.123.03-.17.047-.113.159-.17.335-.17h.757v.273h-.677c-.044 0-.077.004-.103.015-.035.013-.052.052-.052.115v1.426z" fill="#fff"/></g><g clip-path="url(#l)" transform="matrix(.35277777 0 0 -.35277777 -105.312984 152.13859)"><path d="m312.322 424.844-.637-1.828.001-.001h.322l.142.443h.647l.14-.443h.317l-.612 1.829zm.16-.394.24-.727h-.49z" fill="#fff"/></g><g clip-path="url(#k)" transform="matrix(.35277777 0 0 -.35277777 -105.312984 152.13859)"><path d="m314.336 424.844-.477-1.429-.455 1.429h-.31v-.001l.6-1.828h.325l.626 1.829z" fill="#fff"/></g><g clip-path="url(#j)" transform="matrix(.35277777 0 0 -.35277777 -105.312984 152.13859)"><path d="m315.13 424.844-.637-1.828.001-.001h.321l.143.443h.647l.14-.443h.317l-.612 1.829zm.16-.394.24-.727h-.49z" fill="#fff"/></g></g><g clip-path="url(#h)" transform="matrix(.35277777 0 0 -.35277777 -105.312984 152.13859)"><path d="m305.119 428.916h1.885v1.885h-1.885z" fill="url(#i)"/></g><g clip-path="url(#f)" transform="matrix(.35277777 0 0 -.35277777 -105.312984 152.13859)"><path d="m307.496 426.563h1.868v1.926h-1.868z" fill="url(#g)"/></g><g clip-path="url(#c)" transform="matrix(.35277777 0 0 -.35277777 -105.312984 152.13859)"><path d="m304.636 426.072h2.368v2.369h-2.368z" fill="url(#e)"/></g><g clip-path="url(#a)" transform="matrix(.35277777 0 0 -.35277777 -105.312984 152.13859)"><path d="m307.471 428.94h2.304v2.319h-2.304z" fill="url(#b)"/></g></svg>