<svg id="ag" width="6.1867mm" height="2.9154mm" version="1.1" viewBox="0 0 6.1867 2.9154" xmlns="http://www.w3.org/2000/svg">
 <defs id="ah">
  <clipPath id="q">
   <path id="ai" d="m307.47 431.26h2.3032v-2.3195h-2.3032z"/>
  </clipPath>
  <radialGradient id="a" cx="0" cy="0" r="1" gradientTransform="matrix(2.6925 0 0 -2.6925 308.02 429.56)" gradientUnits="userSpaceOnUse">
   <stop id="aj" stop-color="#cc222e" offset="0"/>
   <stop id="ak" stop-color="#a11621" offset="1"/>
  </radialGradient>
  <clipPath id="r">
   <path id="al" d="m304.64 428.44h2.3687v-2.3686h-2.3687z"/>
  </clipPath>
  <radialGradient id="b" cx="0" cy="0" r="1" gradientTransform="matrix(2.545 0 0 -2.545 306.58 427.98)" gradientUnits="userSpaceOnUse">
   <stop id="am" stop-color="#4d5da3" offset="0"/>
   <stop id="an" stop-color="#282e7e" offset="1"/>
  </radialGradient>
  <clipPath id="s">
   <path id="ao" d="m307.5 428.49h1.8687v-1.9261h-1.8687z"/>
  </clipPath>
  <radialGradient id="c" cx="0" cy="0" r="1" fx=".057138" fy=".03339" gradientTransform="matrix(1.6304 0 0 -1.6304 308.07 428.08)" gradientUnits="userSpaceOnUse">
   <stop id="ap" stop-color="#4d5da3" offset="0"/>
   <stop id="aq" stop-color="#282e7e" offset="1"/>
  </radialGradient>
  <clipPath id="t">
   <path id="ar" d="m305.12 430.8h1.8851v-1.8851h-1.8851z"/>
  </clipPath>
  <radialGradient id="d" cx="0" cy="0" r="1" gradientTransform="matrix(1.7818 0 0 -1.7818 306.41 429.51)" gradientUnits="userSpaceOnUse">
   <stop id="as" stop-color="#4d5da3" offset="0"/>
   <stop id="at" stop-color="#282e7e" offset="1"/>
  </radialGradient>
  <clipPath id="u">
   <path id="au" d="m313.84 423.29 0.89727 2.1138 1.9871-0.84349-0.89726-2.1138z"/>
  </clipPath>
  <linearGradient id="e" x2="1" gradientTransform="matrix(.80382 1.8937 1.8937 -.80382 315.1 422.76)" gradientUnits="userSpaceOnUse">
   <stop id="av" stop-color="#4d5da3" offset="0"/>
   <stop id="aw" stop-color="#282e7e" offset="1"/>
  </linearGradient>
  <clipPath id="v">
   <path id="ax" d="m312.44 423.29 0.89459 2.1075 1.9723-0.83719-0.89459-2.1075z"/>
  </clipPath>
  <linearGradient id="f" x2="1" gradientTransform="matrix(.80306 1.8919 1.8919 -.80306 313.25 423.2)" gradientUnits="userSpaceOnUse">
   <stop id="ay" stop-color="#4d5da3" offset="0"/>
   <stop id="az" stop-color="#282e7e" offset="1"/>
  </linearGradient>
  <clipPath id="w">
   <path id="ba" d="m311.03 423.29 0.89727 2.1138 1.9871-0.84349-0.89726-2.1138z"/>
  </clipPath>
  <linearGradient id="g" x2="1" gradientTransform="matrix(.80382 1.8937 1.8937 -.80382 312.29 422.76)" gradientUnits="userSpaceOnUse">
   <stop id="bb" stop-color="#4d5da3" offset="0"/>
   <stop id="bc" stop-color="#282e7e" offset="1"/>
  </linearGradient>
  <clipPath id="x">
   <path id="bd" d="m309.74 423.29 0.82899 1.953 1.6082-0.68263-0.82898-1.953z"/>
  </clipPath>
  <linearGradient id="h" x2="1" gradientTransform="matrix(.66429 1.565 1.565 -.66429 310.58 423.04)" gradientUnits="userSpaceOnUse">
   <stop id="be" stop-color="#4d5da3" offset="0"/>
   <stop id="bf" stop-color="#282e7e" offset="1"/>
  </linearGradient>
  <clipPath id="y">
   <path id="bg" d="m308.22 423.28 0.8595 2.0249 1.7202-0.7302-0.8595-2.0249z"/>
  </clipPath>
  <linearGradient id="i" x2="1" gradientTransform="matrix(.791 1.8635 1.8635 -.791 309.12 423)" gradientUnits="userSpaceOnUse">
   <stop id="bh" stop-color="#4d5da3" offset="0"/>
   <stop id="bi" stop-color="#282e7e" offset="1"/>
  </linearGradient>
  <clipPath id="z">
   <path id="bj" d="m307.68 423.29 0.70199 1.6538 0.90329-0.38342-0.70199-1.6538z"/>
  </clipPath>
  <linearGradient id="j" x2="1" gradientTransform="matrix(.70198 1.6538 1.6538 -.70198 308.14 423.1)" gradientUnits="userSpaceOnUse">
   <stop id="bk" stop-color="#4d5da3" offset="0"/>
   <stop id="bl" stop-color="#282e7e" offset="1"/>
  </linearGradient>
  <clipPath id="aa">
   <path id="bm" d="m306.14 423.29 0.85951 2.0249 1.7776-0.75454-0.85951-2.0249z"/>
  </clipPath>
  <linearGradient id="k" x2="1" gradientTransform="matrix(.7817 1.8416 1.8416 -.7817 306.88 423.19)" gradientUnits="userSpaceOnUse">
   <stop id="bn" stop-color="#4d5da3" offset="0"/>
   <stop id="bo" stop-color="#282e7e" offset="1"/>
  </linearGradient>
  <clipPath id="ab">
   <path id="bp" d="m304.67 423.29 0.89726 2.1138 1.9872-0.8435-0.89727-2.1138z"/>
  </clipPath>
  <linearGradient id="l" x2="1" gradientTransform="matrix(.80382 1.8937 1.8937 -.80382 305.93 422.76)" gradientUnits="userSpaceOnUse">
   <stop id="bq" stop-color="#4d5da3" offset="0"/>
   <stop id="br" stop-color="#282e7e" offset="1"/>
  </linearGradient>
  <clipPath id="ac">
   <path id="bs" d="m303.21 423.29 0.85989 2.0258 1.7797-0.75543-0.85988-2.0258z"/>
  </clipPath>
  <linearGradient id="m" x2="1" gradientTransform="matrix(.7978 1.8795 1.8795 -.7978 304.1 422.92)" gradientUnits="userSpaceOnUse">
   <stop id="bt" stop-color="#4d5da3" offset="0"/>
   <stop id="bu" stop-color="#282e7e" offset="1"/>
  </linearGradient>
  <clipPath id="ad">
   <path id="bv" d="m301.74 423.29 0.84997 2.0024 1.7246-0.73207-0.84997-2.0024z"/>
  </clipPath>
  <linearGradient id="n" x2="1" gradientTransform="matrix(.79164 1.865 1.865 -.79164 302.53 422.96)" gradientUnits="userSpaceOnUse">
   <stop id="bw" stop-color="#4d5da3" offset="0"/>
   <stop id="bx" stop-color="#282e7e" offset="1"/>
  </linearGradient>
  <clipPath id="ae">
   <path id="by" d="m299.34 423.29 0.8946 2.1076 1.9723-0.8372-0.8946-2.1076z"/>
  </clipPath>
  <linearGradient id="o" x2="1" gradientTransform="matrix(.80306 1.8919 1.8919 -.80306 300.15 423.2)" gradientUnits="userSpaceOnUse">
   <stop id="bz" stop-color="#4d5da3" offset="0"/>
   <stop id="ca" stop-color="#282e7e" offset="1"/>
  </linearGradient>
  <clipPath id="af">
   <path id="cb" d="m297.87 423.29 0.85951 2.0249 1.7775-0.75452-0.8595-2.0249z"/>
  </clipPath>
  <linearGradient id="p" x2="1" gradientTransform="matrix(.7817 1.8416 1.8416 -.7817 298.61 423.19)" gradientUnits="userSpaceOnUse">
   <stop id="cc" stop-color="#4d5da3" offset="0"/>
   <stop id="cd" stop-color="#282e7e" offset="1"/>
  </linearGradient>
 </defs>
 <g id="ce" transform="translate(41.647 -105.8)">
  <g id="cf" transform="matrix(.35278 0 0 -.35278 -146.96 257.94)">
   <g id="cg">
    <g id="ch">
     <g id="ci">
      <g id="cj" clip-path="url(#af)">
       <path id="ck" d="m298.52 424.84v-0.272h0.509v-1.557h0.29v1.557h0.522v0.272z" fill="url(#p)"/>
      </g>
     </g>
    </g>
   </g>
  </g>
  <g id="cl" transform="matrix(.35278 0 0 -.35278 -146.96 257.94)">
   <g id="cm">
    <g id="cn">
     <g id="co">
      <g id="cp" clip-path="url(#ae)">
       <path id="cq" d="m301.24 424.84-0.477-1.429-0.455 1.429h-0.309l-1e-3 -1e-3 0.6-1.828h0.325l0.626 1.829z" fill="url(#o)"/>
      </g>
     </g>
    </g>
   </g>
  </g>
  <g id="cr" transform="matrix(.35278 0 0 -.35278 -146.96 257.94)">
   <g id="cs">
    <g id="ct">
     <g id="cu">
      <g id="cv" clip-path="url(#ad)">
       <path id="cw" d="m302.4 424.84h-1e-3v-1.828l2e-3 -1e-3h0.738c0.347 0 0.519 0.177 0.519 0.528 0 0.118-0.025 0.214-0.077 0.289-0.051 0.073-0.114 0.118-0.187 0.133 0.084 0.018 0.145 0.065 0.183 0.138 0.04 0.075 0.059 0.152 0.059 0.233s-9e-3 0.148-0.027 0.204c-0.065 0.202-0.223 0.304-0.475 0.304zm0.289-0.265h0.432c0.064 0 0.117-0.017 0.162-0.052 0.044-0.035 0.066-0.094 0.066-0.177 0-0.084-0.019-0.146-0.058-0.188-0.038-0.042-0.094-0.062-0.17-0.062h-0.432zm0-0.734h0.443c0.079 0 0.139-0.028 0.178-0.083 0.04-0.055 0.059-0.124 0.059-0.207 0-0.183-0.08-0.274-0.237-0.274h-0.443z" fill="url(#n)"/>
      </g>
     </g>
    </g>
   </g>
  </g>
  <g id="cx" transform="matrix(.35278 0 0 -.35278 -146.96 257.94)">
   <g id="cy">
    <g id="cz">
     <g id="da">
      <g id="db" clip-path="url(#ac)">
       <path id="dc" d="m303.86 424.84v-1.828l1e-3 -1e-3h0.289v0.747l0.377-0.035 0.332-0.712h0.325v1e-3l-0.36 0.732c0.029 8e-3 0.051 0.015 0.067 0.021 0.015 6e-3 0.041 0.021 0.075 0.046 0.106 0.075 0.158 0.231 0.158 0.468 0 0.374-0.157 0.561-0.47 0.561zm0.292-0.265h0.48c0.064 0 0.112-0.02 0.147-0.062s0.053-0.123 0.053-0.244c0-0.12-0.019-0.198-0.057-0.234-0.021-0.016-0.041-0.027-0.061-0.033-0.019-6e-3 -0.047-9e-3 -0.082-9e-3h-0.48z" fill="url(#m)"/>
      </g>
     </g>
    </g>
   </g>
  </g>
  <g id="dd" transform="matrix(.35278 0 0 -.35278 -146.96 257.94)">
   <g id="de">
    <g id="df">
     <g id="dg">
      <g id="dh" clip-path="url(#ab)">
       <path id="di" d="m305.96 424.84-0.637-1.828 1e-3 -1e-3h0.321l0.143 0.443h0.647l0.14-0.443h0.317v1e-3l-0.612 1.828zm0.16-0.394 0.24-0.727h-0.49z" fill="url(#l)"/>
      </g>
     </g>
    </g>
   </g>
  </g>
  <g id="dj" transform="matrix(.35278 0 0 -.35278 -146.96 257.94)">
   <g id="dk">
    <g id="dl">
     <g id="dm">
      <g id="dn" clip-path="url(#aa)">
       <path id="do" d="m306.79 424.84v-0.272h0.509v-1.557h0.29v1.557h0.522v0.272z" fill="url(#k)"/>
      </g>
     </g>
    </g>
   </g>
  </g>
  <g id="dp" transform="matrix(.35278 0 0 -.35278 -146.96 257.94)">
   <g id="dq">
    <g id="dr">
     <g id="ds">
      <g id="dt" clip-path="url(#z)">
       <path id="du" d="m308.34 424.84v-1.828l1e-3 -1e-3h0.288l1e-3 1e-3v1.828z" fill="url(#j)"/>
      </g>
     </g>
    </g>
   </g>
  </g>
  <g id="dv" transform="matrix(.35278 0 0 -.35278 -146.96 257.94)">
   <g id="dw">
    <g id="dx">
     <g id="dy">
      <g id="dz" clip-path="url(#y)">
       <path id="ea" d="m309.34 424.86c-0.042 0-0.091-7e-3 -0.148-0.022s-0.108-0.04-0.155-0.073c-0.096-0.069-0.145-0.192-0.145-0.367v-0.16c0-0.091 0.014-0.171 0.041-0.24 0.018-0.045 0.043-0.083 0.075-0.113 0.031-0.031 0.077-0.057 0.135-0.079 0.06-0.022 0.13-0.033 0.212-0.033h0.307c0.066 0 0.113-0.017 0.14-0.05 0.026-0.034 0.04-0.084 0.04-0.147v-0.125c0-0.08-0.031-0.131-0.093-0.155-0.03-0.011-0.057-0.019-0.082-0.022s-0.105-5e-3 -0.24-5e-3 -0.293 9e-3 -0.477 0.027v-0.229c0.176-0.047 0.401-0.071 0.675-0.071 0.113 0 0.208 0.018 0.284 0.051 0.149 0.063 0.223 0.201 0.223 0.412v0.14c0 0.064-8e-3 0.125-0.023 0.18-0.049 0.189-0.182 0.284-0.394 0.284h-0.315c-0.078 0-0.134 0.014-0.167 0.039-0.034 0.026-0.051 0.08-0.051 0.161v0.118c0 0.091 0.021 0.148 0.061 0.172 0.039 0.023 0.092 0.035 0.157 0.035s0.175-2e-3 0.332-8e-3c0.151-6e-3 0.262-0.012 0.332-0.017v0.23c-0.068 0.016-0.169 0.032-0.302 0.046s-0.226 0.021-0.28 0.021z" fill="url(#i)"/>
      </g>
     </g>
    </g>
   </g>
  </g>
  <g id="eb" transform="matrix(.35278 0 0 -.35278 -146.96 257.94)">
   <g id="ec">
    <g id="ed">
     <g id="ee">
      <g id="ef" clip-path="url(#x)">
       <path id="eg" d="m310.4 424.84v-1.489c0-0.066 0.01-0.123 0.03-0.17 0.047-0.113 0.159-0.17 0.335-0.17h0.757v0.273h-0.677c-0.044 0-0.077 4e-3 -0.103 0.015-0.035 0.013-0.052 0.052-0.052 0.115v1.426z" fill="url(#h)"/>
      </g>
     </g>
    </g>
   </g>
  </g>
  <g id="eh" transform="matrix(.35278 0 0 -.35278 -146.96 257.94)">
   <g id="ei">
    <g id="ej">
     <g id="ek">
      <g id="el" clip-path="url(#w)">
       <path id="em" d="m312.32 424.84-0.637-1.828 1e-3 -1e-3h0.322l0.142 0.443h0.647l0.14-0.443h0.317l-0.612 1.829zm0.16-0.394 0.24-0.727h-0.49z" fill="url(#g)"/>
      </g>
     </g>
    </g>
   </g>
  </g>
  <g id="en" transform="matrix(.35278 0 0 -.35278 -146.96 257.94)">
   <g id="eo">
    <g id="ep">
     <g id="eq">
      <g id="er" clip-path="url(#v)">
       <path id="es" d="m314.34 424.84-0.477-1.429-0.455 1.429h-0.31v-1e-3l0.6-1.828h0.325l0.626 1.829z" fill="url(#f)"/>
      </g>
     </g>
    </g>
   </g>
  </g>
  <g id="et" transform="matrix(.35278 0 0 -.35278 -146.96 257.94)">
   <g id="eu">
    <g id="ev">
     <g id="ew">
      <g id="ex" clip-path="url(#u)">
       <path id="ey" d="m315.13 424.84-0.637-1.828 1e-3 -1e-3h0.321l0.143 0.443h0.647l0.14-0.443h0.317l-0.612 1.829zm0.16-0.394 0.24-0.727h-0.49z" fill="url(#e)"/>
      </g>
     </g>
    </g>
   </g>
  </g>
  <g id="ez" transform="matrix(.35278 0 0 -.35278 -146.96 257.94)">
   <g id="fa">
    <g id="fb">
     <g id="fc">
      <g id="fd" clip-path="url(#t)">
       <path id="fe" d="m305.12 428.92h1.885v1.885h-1.885z" fill="url(#d)"/>
      </g>
     </g>
    </g>
   </g>
  </g>
  <g id="ff" transform="matrix(.35278 0 0 -.35278 -146.96 257.94)">
   <g id="fg">
    <g id="fh">
     <g id="fi">
      <g id="fj" clip-path="url(#s)">
       <path id="fk" d="m307.5 426.56h1.868v1.926h-1.868z" fill="url(#c)"/>
      </g>
     </g>
    </g>
   </g>
  </g>
  <g id="fl" transform="matrix(.35278 0 0 -.35278 -146.96 257.94)">
   <g id="fm">
    <g id="fn">
     <g id="fo">
      <g id="fp" clip-path="url(#r)">
       <path id="fq" d="m304.64 426.07h2.368v2.369h-2.368z" fill="url(#b)"/>
      </g>
     </g>
    </g>
   </g>
  </g>
  <g id="fr" transform="matrix(.35278 0 0 -.35278 -146.96 257.94)">
   <g id="fs">
    <g id="ft">
     <g id="fu">
      <g id="fv" clip-path="url(#q)">
       <path id="fw" d="m307.47 428.94h2.304v2.319h-2.304z" fill="url(#a)"/>
      </g>
     </g>
    </g>
   </g>
  </g>
 </g>
</svg>
