<svg width="1622mm" height="226mm" version="1.1" viewBox="0 0 1622 226" xmlns="http://www.w3.org/2000/svg">
 <g transform="translate(0 -71)">
  <path d="m0 71h478v226h-478z" fill="#b0b0ae" style="paint-order:normal"/>
  <path d="m478 71h1020v226h-1020z" fill="#c10e1a" style="paint-order:normal"/>
  <g transform="translate(0 -4.4289e-6)">
   <path d="m1577 260v-121.69l-45 12.722v-30.422l45-12.611h45v152z" fill="#b0b0ae"/>
   <g transform="matrix(3.0079 0 0 2.9329 -144.11 -1531.8)" fill="#f7f7f6">
    <path d="m102.58 570.28v40.815h-14.086v-40.815h-22.135v-11.352h58.394v11.352z"/>
    <path d="m161.8 611.09h-16.402l-26.388-52.167h15.719l18.984 39.258 18.946-39.258h15.718z"/>
   </g>
   <g transform="matrix(2.4278 0 0 2.969 532.57 -353.2)" fill="#f7f7f6">
    <path d="m62.144 192.59q0 3.0374-0.7974 5.2775-0.79721 2.2401-2.24 3.8727-1.4049 1.5946-3.417 2.6198-1.9745 0.98715-4.4044 1.5946-2.3918 0.56952-5.1256 0.79732-2.7336 0.22781-5.657 0.22781h-37.854v-52.167h37.17q2.2402 0 4.4802 0.18992 2.2781 0.18973 4.3284 0.72137 2.0501 0.49359 3.7967 1.4048 1.7845 0.91122 3.0753 2.3919 1.3289 1.4807 2.0503 3.569 0.7593 2.0882 0.7593 4.9358 0 5.0876-2.5057 8.0871-2.5059 2.9615-7.8972 3.9486 3.7967 0.26578 6.4924 1.177 2.7338 0.87325 4.4423 2.4299 1.7085 1.5187 2.5057 3.7588 0.7974 2.2021 0.7974 5.1636zm-17.579-22.325q0-0.98715-0.30364-1.8604-0.30384-0.91122-1.101-1.5946-0.7974-0.68341-2.1642-1.101-1.3668-0.41766-3.4931-0.41766h-20.768v9.7956h20.768q2.1263 0 3.4931-0.37969 1.3668-0.37967 2.1642-1.0251 0.79721-0.64544 1.101-1.5187 0.30364-0.91122 0.30364-1.8984zm3.2652 20.692q0-1.7845-0.60748-2.8476-0.60748-1.1011-1.8984-1.6706-1.2908-0.60748-3.341-0.79732-2.0503-0.18973-4.8977-0.18973h-20.351v11.049h20.351q2.8475 0 4.8977-0.18973 2.0503-0.18992 3.341-0.79732 1.291-0.60748 1.8984-1.6706 0.60748-1.101 0.60748-2.8855z"/>
    <path d="m89.177 206.98h-14.086v-52.167h35.31q5.6951 0 9.6437 1.177 3.9866 1.177 6.4546 3.3411 2.5057 2.1641 3.6068 5.2395 1.1392 3.0374 1.1392 6.7962 0 3.3032-0.94922 5.771-0.91132 2.4679-2.5059 4.2524-1.5567 1.7465-3.6449 2.9615t-4.4042 2.0123l17.085 20.616h-16.478l-15.794-19.212h-15.377zm27.83-35.689q0-1.5187-0.41756-2.5818-0.37965-1.0631-1.3668-1.7086-0.98713-0.68341-2.6578-0.98715-1.6327-0.30373-4.1005-0.30373h-19.288v11.162h19.288q2.4678 0 4.1005-0.30374 1.6706-0.30374 2.6578-0.94921 0.98713-0.68341 1.3668-1.7465 0.41756-1.0631 0.41756-2.5818z"/>
    <path d="m208.05 189.4q0 3.9106-1.9364 7.3657-1.9364 3.455-5.8091 6.0368t-9.6818 4.1005q-5.771 1.4807-13.516 1.4807-7.7454 0-13.592-1.4807-5.8091-1.5187-9.6816-4.1005-3.8727-2.5818-5.8091-6.0368t-1.9364-7.3657v-34.588h14.048v29.539q0 2.6198 0.64558 4.9738 0.68329 2.316 2.5057 4.0625 1.8605 1.7465 5.1637 2.7716 3.341 1.0251 8.6565 1.0251 5.2776 0 8.5807-1.0251t5.1256-2.7716q1.8603-1.7465 2.5059-4.0625 0.64539-2.354 0.64539-4.9738v-29.539h14.086z"/>
    <path d="m273.36 206.98-35.196-35.841v35.841h-14.086v-52.167h15.301l35.234 35.993v-35.993h14.01v52.167z"/>
    <path d="m372.53 180.94q0 6.7202-2.468 11.884-2.4678 5.1256-7.0619 8.5806-4.5941 3.4551-11.162 5.2395-6.5305 1.7465-14.693 1.7465t-14.769-1.7465q-6.5684-1.7845-11.2-5.2395-4.6322-3.455-7.1379-8.5806-2.5059-5.1636-2.5059-11.884t2.5059-11.846q2.5057-5.1636 7.1379-8.6186 4.632-3.455 11.2-5.2016 6.6063-1.7845 14.769-1.7845t14.693 1.7845q6.5684 1.7465 11.162 5.2016 4.5941 3.455 7.0619 8.6186 2.468 5.1256 2.468 11.846zm-14.238 0q0-2.9235-0.94903-5.809-0.91131-2.9235-3.3033-5.2395-2.3539-2.316-6.4544-3.7588t-10.441-1.4428q-4.2524 0-7.4795 0.68343-3.2273 0.64544-5.5812 1.8224-2.3541 1.177-3.9487 2.7716-1.5946 1.5567-2.5438 3.3791-0.94903 1.7845-1.3668 3.7588-0.37965 1.9364-0.37965 3.8347 0 1.9363 0.37965 3.9106 0.41775 1.9743 1.3668 3.7967 0.94922 1.7845 2.5438 3.3411 1.5946 1.5567 3.9487 2.7337 2.3539 1.139 5.5812 1.8224 3.2271 0.64544 7.4795 0.64544 6.3405 0 10.441-1.4428t6.4544-3.7588q2.392-2.316 3.3033-5.2015 0.94903-2.9235 0.94903-5.847z"/>
   </g>
  </g>
 </g>
</svg>
