<svg height="468.40948pt" viewBox="0 0 919.81 468.40948" width="919.81pt" xmlns="http://www.w3.org/2000/svg"><g transform="translate(-52.23 -159.28025)"><path d="m972.04 159.28025-30.68 142.49999h-130.86l-2.23 9.48975h119.48l-31.4 144.12h-119.77l-37.54 172.29974h-162.59l61.8-283.33973-125.22 283.33973h-165.49l-.87-324.49949h-56.74l-70.79 324.49949h-161.66l70.59-324.49949h-75.84l31.05-143.90999h423.48l-5.32 129.76975 51.33-129.76975" fill="#ca0617"/><path d="m824.03 548.33c3.34.37-1.71 2.81 0 0z" fill="#ca0617"/></g><g fill="#f6d204" transform="translate(-52.23 -159.28025)"><path d="m702.65 190.24025h228.41l-16.92 80.82974h-131.55l-14.54 72.35025h119.56l-17.73 81.3195h-119.65l-37.67752 173.09999h-97.63248z"/><path d="m572.43 192.94025c32.15.15 64.32-1.04 96.46 0-60.47647 137.4772-120.04642 272.6347-177.85 404.75998-37.94-.07-75.89.25-113.83 0 .74286-143.10093-4.36806-275.69053-2.54-404.75998 32.18.16 64.36-.09 96.54 0-1.23955 96.81883-10.98045 194.21441-10.75 284.19975 36.8488-95.977 77.70404-196.28582 111.97-284.19975z"/><path d="m105.88 193.22976 251.57-.00001-17.39 81.26024h-78.15511l-70.82489 323.21001-97.05-.0898 70.49-323.12024h-76.55l17.91-81.26023z"/></g></svg>