<svg id="a" width="919.81pt" height="468.41pt" version="1.1" viewBox="0 0 919.81 468.41" xmlns="http://www.w3.org/2000/svg">
 <g id="b" transform="translate(-52.23 -159.28)" fill="#ca0617">
  <path id="c" d="m972.04 159.28-30.68 142.5h-130.86l-2.23 9.4898h119.48l-31.4 144.12h-119.77l-37.54 172.3h-162.59l61.8-283.34-125.22 283.34h-165.49l-0.87-324.5h-56.74l-70.79 324.5h-161.66l70.59-324.5h-75.84l31.05-143.91h423.48l-5.32 129.77 51.33-129.77"/>
  <path id="d" d="m824.03 548.33c3.34 0.37-1.71 2.81 0 0z"/>
 </g>
 <g id="e" transform="translate(-52.23 -159.28)" fill="#f6d204">
  <path id="f" d="m702.65 190.24h228.41l-16.92 80.83h-131.55l-14.54 72.35h119.56l-17.73 81.32h-119.65l-37.678 173.1h-97.632z"/>
  <path id="g" d="m572.43 192.94c32.15 0.15 64.32-1.04 96.46 0-60.476 137.48-120.05 272.63-177.85 404.76-37.94-0.07-75.89 0.25-113.83 0 0.74286-143.1-4.3681-275.69-2.54-404.76 32.18 0.16 64.36-0.09 96.54 0-1.2396 96.819-10.98 194.21-10.75 284.2 36.849-95.977 77.704-196.29 111.97-284.2z"/>
  <path id="h" d="m105.88 193.23 251.57-1e-5 -17.39 81.26h-78.155l-70.825 323.21-97.05-0.0898 70.49-323.12h-76.55l17.91-81.26z"/>
 </g>
</svg>
