<?xml version="1.0" encoding="UTF-8" standalone="no"?>
<svg
   xmlns:dc="http://purl.org/dc/elements/1.1/"
   xmlns:cc="http://creativecommons.org/ns#"
   xmlns:rdf="http://www.w3.org/1999/02/22-rdf-syntax-ns#"
   xmlns:svg="http://www.w3.org/2000/svg"
   xmlns="http://www.w3.org/2000/svg"
   xmlns:sodipodi="http://sodipodi.sourceforge.net/DTD/sodipodi-0.dtd"
   xmlns:inkscape="http://www.inkscape.org/namespaces/inkscape"
   width="639.99988pt"
   height="305.07028pt"
   viewBox="0 0 639.99988 305.07028"
   version="1.1"
   id="svg42"
   sodipodi:docname="TV Jecko.svg"
   inkscape:version="0.92.0 r15299">
  <metadata
     id="metadata48">
    <rdf:RDF>
      <cc:Work
         rdf:about="">
        <dc:format>image/svg+xml</dc:format>
        <dc:type
           rdf:resource="http://purl.org/dc/dcmitype/StillImage" />
        <dc:title></dc:title>
      </cc:Work>
    </rdf:RDF>
  </metadata>
  <defs
     id="defs46" />
  <sodipodi:namedview
     pagecolor="#ffffff"
     bordercolor="#666666"
     borderopacity="1"
     objecttolerance="10"
     gridtolerance="10"
     guidetolerance="10"
     inkscape:pageopacity="0"
     inkscape:pageshadow="2"
     inkscape:window-width="1920"
     inkscape:window-height="1017"
     id="namedview44"
     showgrid="false"
     inkscape:zoom="0.86064997"
     inkscape:cx="358.44662"
     inkscape:cy="248.50909"
     inkscape:window-x="-8"
     inkscape:window-y="-8"
     inkscape:window-maximized="1"
     inkscape:current-layer="svg42"
     fit-margin-top="0"
     fit-margin-left="0"
     fit-margin-right="0"
     fit-margin-bottom="0" />
  <path
     style="opacity:1;fill:#80b23e"
     inkscape:connector-curvature="0"
     id="path2"
     d="m 413.78,0 13.17,0.01 0.06,136.8 42.68,-42.76 18.89,0.01 -55.18,55.08 66.91,67.16 -18.93,0.02 -54.36,-54.52 -0.07,54.54 -13.16,0.01 z"
     sodipodi:nodetypes="cccccccccccc" />
  <path
     style="opacity:1;fill:#80b23e"
     inkscape:connector-curvature="0"
     id="path4"
     d="m 185,63.1 36.28,-36.16 9.28,9.55 -36.12,36.17 z"
     sodipodi:nodetypes="ccccc" />
  <path
     style="opacity:1;fill:#80b23e"
     inkscape:connector-curvature="0"
     id="path6"
     d="m 301.6,36.32 9.58,-9.32 26.77,26.71 26.58,-26.74 9.39,9.42 -36.28,36.22 z"
     sodipodi:nodetypes="ccccccc" />
  <path
     style="opacity:1;fill:#80b23e"
     inkscape:connector-curvature="0"
     id="path8"
     d="m 178.34,89.13 c 13.08,-3.09 27.07,-1.95 39.55,3.01 10.34,4.12 19.48,11.01 26.71,19.44 l -83.85,83.33 c 11.41,8.9 26.55,12.95 40.85,10.54 10.91,-1.7 21.12,-7.01 28.96,-14.76 l 9.53,9.27 c -11.67,11.9 -28.07,18.99 -44.73,19.36 -14.75,0.56 -29.64,-4.03 -41.45,-12.89 -12.6,-9.31 -21.69,-23.26 -25.03,-38.58 -3.79,-16.9 -0.7,-35.26 8.67,-49.87 9.09,-14.47 24.11,-25.1 40.79,-28.85 m -15.33,21.14 c -13.44,9.3 -22.1,25.2 -22.36,41.58 -0.47,12.01 3.48,24.06 10.76,33.6 l 74.09,-73.79 c -7.31,-5.44 -15.91,-9.3 -24.99,-10.42 -13.04,-1.96 -26.73,1.47 -37.5,9.03 z"
     sodipodi:nodetypes="cccccccccccccccccc" />
  <path
     style="opacity:1;fill:#80b23e"
     inkscape:connector-curvature="0"
     id="path10"
     d="m 324.45,88.53 c 21.06,-4.09 43.82,2.99 58.88,18.26 l -9.31,9.36 c -11,-10.65 -26.54,-16.78 -41.89,-15.22 -15.26,1.13 -29.77,9.45 -38.56,21.96 -6.57,9.21 -10.01,20.6 -9.69,31.91 0.33,15.55 7.99,30.79 20.37,40.24 12.57,9.87 29.81,13.55 45.28,9.42 9.06,-2.18 17.31,-7.07 24.02,-13.48 l 9.77,9.02 c -11.71,11.94 -28.19,19 -44.9,19.33 -14.55,0.5 -29.21,-4.03 -40.93,-12.66 -12.82,-9.34 -22.06,-23.5 -25.36,-39.02 -3.7,-16.76 -0.68,-34.97 8.56,-49.47 9.61,-15.4 25.88,-26.45 43.76,-29.65 z"
     sodipodi:nodetypes="ccccccccccccccc" />
  <path
     style="opacity:1;fill:#80b23e;stroke-width:0.99999994"
     d="m 574.39705,87.219419 c -12.63047,-0.05903 -25.2791,3.502207 -35.8916,10.387207 -16.22,10.290004 -27.6502,27.940534 -29.9502,47.040524 7.5e-4,0.0254 7.4e-4,0.0508 0.002,0.0762 -0.86586,6.50406 -0.7347,13.13169 0.34569,19.60108 0.2416,1.87757 0.61902,3.73712 1.17335,5.57519 1.89758,7.41431 5.06642,14.49902 9.43359,20.80079 8.6,12.46 21.49108,21.98962 36.10108,26.11963 15.88999,4.59999 33.54953,3.06993 48.26953,-4.56006 16.34,-8.2 28.85045,-23.54943 33.71045,-41.16944 0.85394,-2.49706 1.33526,-5.042 1.60547,-7.61279 1.17192,-7.49366 1.0747,-15.18702 -0.37061,-22.64063 -4.51999,-25.84999 -26.13037,-47.490329 -51.88037,-52.340331 -4.13,-0.834998 -8.33769,-1.257653 -12.54785,-1.27734 z m -1.11622,13.483881 c 9.67969,-0.18593 19.41249,2.49207 27.69873,7.49708 13.18001,7.78999 22.671,21.61025 25.021,36.76025 0.44069,2.52407 0.66753,5.07598 0.70899,7.63037 0.003,0.2544 0.007,0.50877 0.006,0.76319 3.9e-4,0.37945 -0.0109,0.75883 -0.019,1.13818 -0.0571,2.09261 -0.23509,4.18319 -0.56103,6.25488 -1.77001,13.3 -9.09088,25.70923 -19.65088,33.94922 -11.4,9.08001 -26.71008,13.05006 -41.08008,10.56006 -13.10001,-2.13999 -25.26979,-9.50059 -33.27979,-20.10059 -5.28242,-6.86107 -8.78073,-15.07643 -10.1748,-23.625 -0.0304,-0.20752 -0.0719,-0.41312 -0.0996,-0.62109 -0.0784,-0.49821 -0.1366,-0.99847 -0.19922,-1.49853 -0.041,-0.33841 -0.0887,-0.67602 -0.12305,-1.01514 -0.0321,-0.30916 -0.053,-0.61908 -0.0791,-0.92871 -0.0465,-0.55946 -0.0891,-1.11954 -0.11719,-1.68018 -0.0139,-0.27724 -0.023,-0.55461 -0.0323,-0.83203 -0.0187,-0.5515 -0.0286,-1.10343 -0.0293,-1.65527 -7e-5,-0.3306 0.002,-0.66117 0.009,-0.9917 0.009,-0.49591 0.0287,-0.9913 0.0527,-1.48682 0.017,-0.34874 0.0329,-0.69755 0.0571,-1.0459 0.0419,-0.60204 0.0984,-1.20277 0.1626,-1.80322 0.0215,-0.20544 0.0361,-0.41151 0.0601,-0.6167 0.10245,-0.85539 0.22513,-1.70909 0.37353,-2.55908 0.0352,-0.22668 0.0774,-0.45215 0.11573,-0.67823 1.1853,-6.54418 3.60372,-12.87439 7.11914,-18.51855 8.53,-13.79 23.70992,-23.34014 39.91992,-24.64014 1.37625,-0.145 2.7583,-0.22978 4.14111,-0.25635 z"
     id="path12"
     inkscape:connector-curvature="0" />
  <path
     style="opacity:1;fill:#80b23e"
     inkscape:connector-curvature="0"
     id="path14"
     d="m 40.22,103.98 c 4.24,2.34 8.74,4.15 13.41,5.42 -0.04,30.82 -0.01,61.64 -0.02,92.46 -0.07,8.69 0.61,17.59 -1.99,26.02 -4.32,15.65 -16.15,29.01 -31.23,35.08 -6.4,2.78 -13.4,3.72 -20.32,4.05 v -13.36 c 11.27,0.04 22.39,-4.95 29.88,-13.35 6.44,-7.19 10.42,-16.76 10.28,-26.47 -0.02,-36.62 0.01,-73.23 -0.01,-109.85 z"
     sodipodi:nodetypes="cccccccccc" />
  <path
     style="opacity:1;fill:#80b23e"
     inkscape:connector-curvature="0"
     id="path16"
     d="m 78.31,109.52 c 4.56,-1.56 9.18,-3.05 13.34,-5.54 -0.01,36.61 -0.02,73.21 0.01,109.82 -0.06,20.81 -7.46,41.49 -20.7,57.56 C 53.93,292.5 27.13,305.14 0,305.07 l 0.06,-13.34 c 17.9,-0.03 35.74,-6.31 49.52,-17.77 17.89,-14.43 28.77,-37.1 28.75,-60.1 0.06,-34.78 0.1,-69.56 -0.02,-104.34 z"
     sodipodi:nodetypes="ccccccccc" />
  <path
     style="opacity:1;fill:#80b23e"
     inkscape:connector-curvature="0"
     id="path18"
     d="m 59.25,110.49 13.47,-0.05 c -0.03,33.47 -0.01,66.94 -0.01,100.41 0.06,9.16 -1.16,18.41 -4.34,27.04 -6.18,17.37 -19.23,32.16 -35.74,40.37 -10.03,5.25 -21.33,7.42 -32.55,7.88 L 0.06,272.6 c 16.25,0.25 32.31,-6.94 43.33,-18.82 10,-10.73 16,-25.27 15.88,-39.99 -0.03,-34.43 0.03,-68.87 -0.02,-103.3 z"
     sodipodi:nodetypes="cccccccccc" />
  <path
     style="opacity:1;fill:#80b23e"
     inkscape:connector-curvature="0"
     id="path20"
     d="m 221.72,241.03 c 2.72,0.01 5.43,0 8.15,-0.04 0.13,13.96 0.02,27.92 0.05,41.88 -0.03,1.91 0.2,4.26 2.03,5.33 2.04,0.98 4.33,0.02 6.46,-0.12 0.34,2.16 0.64,4.32 0.85,6.5 -4.08,1.14 -8.57,2.38 -12.71,0.86 -3.04,-1.17 -4.97,-4.43 -4.82,-7.64 -0.03,-15.59 0.01,-31.18 -0.01,-46.77 z" />
  <path
     style="opacity:1;fill:#80b23e"
     inkscape:connector-curvature="0"
     id="path22"
     d="m 329.6,241.03 c 2.76,0 5.52,0 8.28,0 0,3.03 0,6.07 -0.01,9.11 -2.75,0 -5.51,-0.01 -8.26,0 -0.01,-3.04 -0.02,-6.07 -0.01,-9.11 z" />
  <path
     style="opacity:1;fill:#80b23e"
     inkscape:connector-curvature="0"
     id="path24"
     d="m 151.06,243.55 c 2.73,0.01 5.46,0.01 8.19,0.01 0.05,4.26 0.03,8.51 0.03,12.77 2.88,0.05 5.76,0.05 8.64,0.06 -0.02,2.21 -0.05,4.43 -0.09,6.66 -1.47,-0.08 -2.94,-0.15 -4.41,-0.22 -1.38,0.08 -2.76,0.18 -4.14,0.28 0.01,6.57 -0.01,13.13 -0.01,19.7 0.01,1.93 0.19,4.41 2.25,5.27 2.59,1.05 5.21,-0.38 7.68,-1.09 0.52,2.14 1.09,4.27 1.74,6.37 -4.9,2.47 -11.17,4.21 -16.25,1.27 -2.46,-1.28 -3.65,-4.16 -3.62,-6.82 -0.09,-8.28 -0.01,-16.56 -0.03,-24.83 -1.68,0 -3.37,0 -5.05,0.01 -0.05,-2.2 -0.08,-4.41 -0.1,-6.6 1.71,-0.02 3.43,-0.02 5.15,-0.02 0,-4.27 -0.02,-8.55 0.02,-12.82 z" />
  <path
     style="opacity:1;fill:#80b23e"
     inkscape:connector-curvature="0"
     id="path26"
     d="m 181.95,259.43 c 7.88,-5.65 19.93,-4.88 26.68,2.23 4.4,4.4 5.96,10.94 5.28,17 -10.46,-0.01 -20.93,-0.02 -31.39,0.01 0.6,4.37 3.04,8.76 7.31,10.46 5.31,2.45 12.07,0.08 14.81,-5.05 2.24,0.69 4.5,1.32 6.78,1.88 -0.95,3.87 -4.42,6.47 -7.78,8.23 -8.54,4.16 -20.22,2.2 -25.89,-5.76 -6.55,-8.7 -4.82,-22.63 4.2,-29 m 0.53,13.59 c 7.8,0.01 15.59,0.01 23.38,0 -0.47,-5.8 -5.39,-11.03 -11.34,-11.05 -6.22,-0.5 -11.91,4.86 -12.04,11.05 z" />
  <path
     style="opacity:1;fill:#80b23e"
     inkscape:connector-curvature="0"
     id="path28"
     d="m 247.42,261.87 c 6.79,-7.36 19.2,-8.14 27.14,-2.24 5.99,4.21 8.4,11.95 7.55,19.01 -10.46,0.03 -20.92,-0.01 -31.39,0.02 0.69,4.68 3.49,9.44 8.28,10.8 5.23,1.97 11.21,-0.67 13.98,-5.37 2.12,0.67 4.27,1.28 6.45,1.77 -0.22,3.12 -2.93,5.22 -5.23,6.97 -8.13,5.47 -20.33,4.52 -26.97,-2.91 -7.06,-7.57 -6.91,-20.55 0.19,-28.05 m 3.24,11.16 c 7.8,-0.01 15.59,0 23.39,0 -0.34,-6.37 -6.28,-11.76 -12.69,-11.04 -5.77,0.21 -10.42,5.4 -10.7,11.04 z" />
  <path
     style="opacity:1;fill:#80b23e"
     inkscape:connector-curvature="0"
     id="path30"
     d="m 388.29,259.63 c 8.5,-6.36 22.14,-4.9 28.49,3.84 3.24,4.28 4.26,9.85 3.83,15.11 -10.51,0.17 -21.02,0.01 -31.53,0.09 0.65,4.56 3.36,9.09 7.87,10.68 5.26,2.1 11.63,-0.34 14.33,-5.27 2.2,0.72 4.42,1.35 6.7,1.77 -0.1,1.92 -1.55,3.34 -2.73,4.71 -5.75,5.91 -15.22,7.16 -22.72,4.22 -5.89,-2.29 -10.26,-7.7 -11.6,-13.82 -2,-7.71 0.92,-16.57 7.36,-21.33 m 0.68,13.39 c 7.79,0.02 15.57,-0.01 23.35,0.02 -0.16,-6.14 -5.76,-11.44 -11.92,-11.08 -6.01,-0.09 -11.09,5.16 -11.43,11.06 z" />
  <path
     style="opacity:1;fill:#80b23e"
     inkscape:connector-curvature="0"
     id="path32"
     d="m 284.63,256.41 c 2.9,-0.06 5.8,-0.05 8.7,0.03 3.5,10.6 7.28,21.1 11,31.62 3.81,-10.51 7.42,-21.1 11.11,-31.66 2.65,-0.03 5.3,-0.03 7.96,0 -4.44,11.9 -9.11,23.71 -13.55,35.6 -0.52,1.12 -0.75,2.46 -1.58,3.41 -2.92,0.18 -5.85,0.02 -8.77,0.03 -4.92,-13.03 -9.96,-26.01 -14.87,-39.03 z" />
  <path
     style="opacity:1;fill:#80b23e"
     inkscape:connector-curvature="0"
     id="path34"
     d="m 329.56,256.4 c 2.78,-0.03 5.55,-0.03 8.33,-0.02 -0.02,13.02 -0.01,26.05 0,39.07 -2.77,0.01 -5.53,0.01 -8.29,0.01 -0.02,-13.02 0.05,-26.04 -0.04,-39.06 z" />
  <path
     style="opacity:1;fill:#80b23e"
     inkscape:connector-curvature="0"
     id="path36"
     d="m 345.55,256.4 c 10.42,-0.05 20.84,-0.01 31.27,-0.02 -0.02,1.81 -0.02,3.63 -0.02,5.46 -7.7,9.18 -15.33,18.42 -22.96,27.66 7.74,-0.05 15.48,0.01 23.22,-0.04 0.02,2 0.04,4 0.05,6 -10.8,0.01 -21.6,0 -32.4,0 0.24,-2.1 -0.65,-4.68 0.92,-6.39 7.44,-8.86 14.88,-17.72 22.23,-26.66 -7.42,-0.02 -14.83,-0.01 -22.24,0 -0.02,-2.01 -0.05,-4.01 -0.07,-6.01 z" />
  <g
     id="#007fc5ff"
     transform="translate(-30.56,-47.18)">
    <path
       d="m 88.56,67.83 c 9.9,-1.9 20.58,-0.21 29.05,5.39 8.9,5.7 15.33,15.19 17.16,25.62 1.9,9.69 -0.18,20.09 -5.58,28.35 -7.06,11.05 -20.07,18.16 -33.23,17.61 C 79.3,145.1 63.63,132.93 59.18,116.99 55.43,104.92 58.33,91.16 66.31,81.42 71.89,74.52 79.87,69.64 88.56,67.83 Z"
       id="path39"
       inkscape:connector-curvature="0"
       style="opacity:1;fill:#007fc5" />
  </g>
</svg>
