<svg height="599.8573pt" viewBox="0 0 623.09394 599.8573" width="623.09393pt" xmlns="http://www.w3.org/2000/svg" xmlns:xlink="http://www.w3.org/1999/xlink"><clipPath id="a"><path d="m81.710433 477.89738 9.858549-5.69183 5.656651 9.7976-9.858549 5.69184z"/></clipPath><clipPath id="b"><path d="m92.62 481.622c0-.555-.144-1.076-.396-1.529-.044-1.46-1.223-2.635-2.685-2.672 1.999.033 3.659 1.463 4.046 3.355-.164.691-.555 1.294-1.09 1.725.081-.279.125-.574.125-.879"/></clipPath><mask id="c" height="1" maskUnits="userSpaceOnUse" width="1" x="0" y="0"><g clip-path="url(#d)"><path d="m89.539 482.501h4.046v-5.08h-4.046z"/><g><g/><g><g clip-path="url(#e)"><g><g><g><g><g clip-path="url(#f)"><path d="m89.539 477.421h4.046v5.08h-4.046z" fill="url(#g)"/></g></g></g></g></g></g></g></g></g></mask><clipPath id="d"><path d="m89.5392 482.501h4.0456v-5.08h-4.0456z"/></clipPath><clipPath id="e"><path d="m89.5392 482.501h4.0457v-5.08h-4.0457z"/></clipPath><clipPath id="f"><path d="m89.539231 477.4211h4.045615v5.07961h-4.045615z"/></clipPath><radialGradient id="g" cx="89.48906" cy="481.62742" gradientUnits="userSpaceOnUse" r="4.2123418" spreadMethod="pad"><stop offset="0"/><stop offset=".8"/><stop offset="1" stop-color="#b1b3b4"/></radialGradient><clipPath id="h"><path d="m89.5392 482.501h4.0456v-5.08h-4.0456z"/></clipPath><clipPath id="i"><path d="m89.539231 477.4211h4.045615v5.07961h-4.045615z"/></clipPath><radialGradient id="j" cx="89.48906" cy="481.62742" gradientUnits="userSpaceOnUse" r="4.2123418" spreadMethod="pad"><stop offset="0" stop-color="#e42224"/><stop offset=".8" stop-color="#e42224"/><stop offset="1" stop-color="#571117"/></radialGradient><linearGradient id="k" gradientTransform="matrix(7.2791468 -4.2026173 4.2026173 7.2791468 85.780859 482.066)" gradientUnits="userSpaceOnUse" spreadMethod="pad" x1="0" x2="1" y1="0" y2="0"><stop offset="0" stop-color="#e42224"/><stop offset="1" stop-color="#c8081d"/></linearGradient><path d="m508.71896 0a114.37502 114.375 0 0 0 -114.375 114.375 114.37502 114.375 0 0 0 114.375 114.375 114.37502 114.375 0 0 0 114.375-114.375 114.37502 114.375 0 0 0 -114.375-114.375zm29.86816 64.229007h14.73048v97.319823h-21.71925l-.31054-63.648926-25.93067.03952-.0293-14.639647c5.97.249997 11.92984-.24 17.58984-2.25 5.68-2.180003 10.91953-5.84082 13.76953-11.340818.83001-1.760002 1.58991-3.549982 1.8999-5.47998zm-65.28954 30h16.01073l.0498 24.979983 24.94923.0205v16.00928l-24.99903-.009v24.99903h-16.00048v-24.99903l-25.00049.009v-16.00925h25.00049z" fill="#dc0000"/><g clip-path="url(#a)" transform="matrix(47.259864987927 0 0 -47.259864987927 -4029.659647778972 22951.625786703575)"><path d="m88.201 484.054c-1.701-.537-2.935-2.128-2.935-4.007 0-2.322 1.881-4.203 4.202-4.203 2.32 0 4.202 1.881 4.202 4.203 0 1.74-1.411 3.151-3.152 3.151-1.508 0-2.731-1.223-2.731-2.731 0-.987.8-1.786 1.786-1.786.159 0 .314.021.46.06.023.006.039.026.039.051 0 .027-.02.049-.047.052-.724.063-1.292.672-1.292 1.412 0 .943.764 1.708 1.707 1.708.986 0 1.786-.8 1.786-1.786 0-1.523-1.235-2.758-2.758-2.758-1.74 0-3.152 1.411-3.152 3.151 0 1.441.774 2.701 1.928 3.388.014.01.024.026.024.045 0 .029-.023.052-.052.052-.005 0-.011-.001-.015-.002" fill="url(#k)"/></g><g clip-path="url(#b)" transform="matrix(47.259864987927 0 0 -47.259864987927 -4029.659647778972 22951.625786703575)"><g><g/><g mask="url(#c)"><g/><g><g clip-path="url(#h)"><g><g><g><g><g clip-path="url(#i)"><path d="m89.539 477.421h4.046v5.08h-4.046z" fill="url(#j)"/></g></g></g></g></g></g></g></g></g></g><g fill="#df0000" transform="matrix(.99331219 0 0 .99331219 -74.534687676788 -8.54677383522)"><path d="m86.6 514.60976h68.06l-1.25 5.8305h-30.71l-15.76692 90.04951h-6.20308l15.76-90.04951h-30.9z"/><path d="m156.36 514.60976h6.195l18.125 87.64015 49.26-87.64015h6.5l-54.32 95.88001h-5.54l-20.22-95.8801z"/><g stroke-width="3.7795" transform="matrix(1.9539479 0 0 1.9539479 198.18054 471.05001)"><path d="m49.833038 25.08861v29.179252c0 11.350594-6.496582 18.124214-19.028271 18.124214-9.541725 0-15.281652-4.281795-17.976435-11.682812-.756694-2.011715-.203028-2.971443 1.808717-3.728137l7.179538-2.565449c2.085566-.756694 3.045295-.406032 3.875878 1.661052 1.181207 2.768446 2.639262 4.226615 5.389189 4.226615 3.395956 0 5.056971-1.9379 5.056971-5.961405v-29.25333c0-2.140898.68288-2.897629 2.897629-2.897629h7.954336c2.159379 0 2.842259.756731 2.842259 2.897629"/><path d="m75.904407 21.195725c13.620562 0 21.243058 7.401017 21.243058 19.360489v12.457988c0 11.959849-7.622496 19.360488-21.243058 19.360488-13.69464 0-21.298616-7.401017-21.298616-19.360488v-12.457988c0-11.95985 7.603976-19.360489 21.298616-19.360489m0 12.10725c-4.835492 0-7.603976 2.270119-7.603976 6.644361v13.694641c0 4.355873 2.768446 6.625841 7.603976 6.625841 4.780312 0 7.548795-2.270081 7.548795-6.625841v-13.694641c0-4.374015-2.768446-6.644361-7.548795-6.644361"/><path d="m136.21049 25.08861v29.179252c0 11.350594-6.49659 18.124214-19.02827 18.124214-9.54173 0-15.28166-4.281795-17.97644-11.682812-.756693-2.011715-.203034-2.971443 1.80872-3.728137l7.17954-2.565449c2.08556-.756694 3.04529-.406032 3.87587 1.661052 1.18121 2.768446 2.62078 4.226615 5.38919 4.226615 3.39596 0 5.05697-1.9379 5.05697-5.961405v-29.25333c0-2.140898.68288-2.897629 2.89763-2.897629h7.95472c2.14093 0 2.84226.756731 2.84226 2.897629"/></g></g></svg>