<svg height="305.07028pt" viewBox="0 0 639.99988 305.07028" width="639.99988pt" xmlns="http://www.w3.org/2000/svg"><g fill="#80b23e"><path d="m413.78 0 13.17.01.06 136.8 42.68-42.76 18.89.01-55.18 55.08 66.91 67.16-18.93.02-54.36-54.52-.07 54.54-13.16.01z"/><path d="m185 63.1 36.28-36.16 9.28 9.55-36.12 36.17z"/><path d="m301.6 36.32 9.58-9.32 26.77 26.71 26.58-26.74 9.39 9.42-36.28 36.22z"/><path d="m178.34 89.13c13.08-3.09 27.07-1.95 39.55 3.01 10.34 4.12 19.48 11.01 26.71 19.44l-83.85 83.33c11.41 8.9 26.55 12.95 40.85 10.54 10.91-1.7 21.12-7.01 28.96-14.76l9.53 9.27c-11.67 11.9-28.07 18.99-44.73 19.36-14.75.56-29.64-4.03-41.45-12.89-12.6-9.31-21.69-23.26-25.03-38.58-3.79-16.9-.7-35.26 8.67-49.87 9.09-14.47 24.11-25.1 40.79-28.85m-15.33 21.14c-13.44 9.3-22.1 25.2-22.36 41.58-.47 12.01 3.48 24.06 10.76 33.6l74.09-73.79c-7.31-5.44-15.91-9.3-24.99-10.42-13.04-1.96-26.73 1.47-37.5 9.03z"/><path d="m324.45 88.53c21.06-4.09 43.82 2.99 58.88 18.26l-9.31 9.36c-11-10.65-26.54-16.78-41.89-15.22-15.26 1.13-29.77 9.45-38.56 21.96-6.57 9.21-10.01 20.6-9.69 31.91.33 15.55 7.99 30.79 20.37 40.24 12.57 9.87 29.81 13.55 45.28 9.42 9.06-2.18 17.31-7.07 24.02-13.48l9.77 9.02c-11.71 11.94-28.19 19-44.9 19.33-14.55.5-29.21-4.03-40.93-12.66-12.82-9.34-22.06-23.5-25.36-39.02-3.7-16.76-.68-34.97 8.56-49.47 9.61-15.4 25.88-26.45 43.76-29.65z"/><path d="m574.39705 87.219419c-12.63047-.05903-25.2791 3.502207-35.8916 10.387207-16.22 10.290004-27.6502 27.940534-29.9502 47.040524.00075.0254.00074.0508.002.0762-.86586 6.50406-.7347 13.13169.34569 19.60108.2416 1.87757.61902 3.73712 1.17335 5.57519 1.89758 7.41431 5.06642 14.49902 9.43359 20.80079 8.6 12.46 21.49108 21.98962 36.10108 26.11963 15.88999 4.59999 33.54953 3.06993 48.26953-4.56006 16.34-8.2 28.85045-23.54943 33.71045-41.16944.85394-2.49706 1.33526-5.042 1.60547-7.61279 1.17192-7.49366 1.0747-15.18702-.37061-22.64063-4.51999-25.84999-26.13037-47.490329-51.88037-52.340331-4.13-.834998-8.33769-1.257653-12.54785-1.27734zm-1.11622 13.483881c9.67969-.18593 19.41249 2.49207 27.69873 7.49708 13.18001 7.78999 22.671 21.61025 25.021 36.76025.44069 2.52407.66753 5.07598.70899 7.63037.003.2544.007.50877.006.76319.00039.37945-.0109.75883-.019 1.13818-.0571 2.09261-.23509 4.18319-.56103 6.25488-1.77001 13.3-9.09088 25.70923-19.65088 33.94922-11.4 9.08001-26.71008 13.05006-41.08008 10.56006-13.10001-2.13999-25.26979-9.50059-33.27979-20.10059-5.28242-6.86107-8.78073-15.07643-10.1748-23.625-.0304-.20752-.0719-.41312-.0996-.62109-.0784-.49821-.1366-.99847-.19922-1.49853-.041-.33841-.0887-.67602-.12305-1.01514-.0321-.30916-.053-.61908-.0791-.92871-.0465-.55946-.0891-1.11954-.11719-1.68018-.0139-.27724-.023-.55461-.0323-.83203-.0187-.5515-.0286-1.10343-.0293-1.65527-.00007-.3306.002-.66117.009-.9917.009-.49591.0287-.9913.0527-1.48682.017-.34874.0329-.69755.0571-1.0459.0419-.60204.0984-1.20277.1626-1.80322.0215-.20544.0361-.41151.0601-.6167.10245-.85539.22513-1.70909.37353-2.55908.0352-.22668.0774-.45215.11573-.67823 1.1853-6.54418 3.60372-12.87439 7.11914-18.51855 8.53-13.79 23.70992-23.34014 39.91992-24.64014 1.37625-.145 2.7583-.22978 4.14111-.25635z"/><path d="m40.22 103.98c4.24 2.34 8.74 4.15 13.41 5.42-.04 30.82-.01 61.64-.02 92.46-.07 8.69.61 17.59-1.99 26.02-4.32 15.65-16.15 29.01-31.23 35.08-6.4 2.78-13.4 3.72-20.32 4.05v-13.36c11.27.04 22.39-4.95 29.88-13.35 6.44-7.19 10.42-16.76 10.28-26.47-.02-36.62.01-73.23-.01-109.85z"/><path d="m78.31 109.52c4.56-1.56 9.18-3.05 13.34-5.54-.01 36.61-.02 73.21.01 109.82-.06 20.81-7.46 41.49-20.7 57.56-17.03 21.14-43.83 33.78-70.96 33.71l.06-13.34c17.9-.03 35.74-6.31 49.52-17.77 17.89-14.43 28.77-37.1 28.75-60.1.06-34.78.1-69.56-.02-104.34z"/><path d="m59.25 110.49 13.47-.05c-.03 33.47-.01 66.94-.01 100.41.06 9.16-1.16 18.41-4.34 27.04-6.18 17.37-19.23 32.16-35.74 40.37-10.03 5.25-21.33 7.42-32.55 7.88l-.02-13.54c16.25.25 32.31-6.94 43.33-18.82 10-10.73 16-25.27 15.88-39.99-.03-34.43.03-68.87-.02-103.3z"/><path d="m221.72 241.03c2.72.01 5.43 0 8.15-.04.13 13.96.02 27.92.05 41.88-.03 1.91.2 4.26 2.03 5.33 2.04.98 4.33.02 6.46-.12.34 2.16.64 4.32.85 6.5-4.08 1.14-8.57 2.38-12.71.86-3.04-1.17-4.97-4.43-4.82-7.64-.03-15.59.01-31.18-.01-46.77z"/><path d="m329.6 241.03h8.28c0 3.03 0 6.07-.01 9.11-2.75 0-5.51-.01-8.26 0-.01-3.04-.02-6.07-.01-9.11z"/><path d="m151.06 243.55c2.73.01 5.46.01 8.19.01.05 4.26.03 8.51.03 12.77 2.88.05 5.76.05 8.64.06-.02 2.21-.05 4.43-.09 6.66-1.47-.08-2.94-.15-4.41-.22-1.38.08-2.76.18-4.14.28.01 6.57-.01 13.13-.01 19.7.01 1.93.19 4.41 2.25 5.27 2.59 1.05 5.21-.38 7.68-1.09.52 2.14 1.09 4.27 1.74 6.37-4.9 2.47-11.17 4.21-16.25 1.27-2.46-1.28-3.65-4.16-3.62-6.82-.09-8.28-.01-16.56-.03-24.83-1.68 0-3.37 0-5.05.01-.05-2.2-.08-4.41-.1-6.6 1.71-.02 3.43-.02 5.15-.02 0-4.27-.02-8.55.02-12.82z"/><path d="m181.95 259.43c7.88-5.65 19.93-4.88 26.68 2.23 4.4 4.4 5.96 10.94 5.28 17-10.46-.01-20.93-.02-31.39.01.6 4.37 3.04 8.76 7.31 10.46 5.31 2.45 12.07.08 14.81-5.05 2.24.69 4.5 1.32 6.78 1.88-.95 3.87-4.42 6.47-7.78 8.23-8.54 4.16-20.22 2.2-25.89-5.76-6.55-8.7-4.82-22.63 4.2-29m .53 13.59c7.8.01 15.59.01 23.38 0-.47-5.8-5.39-11.03-11.34-11.05-6.22-.5-11.91 4.86-12.04 11.05z"/><path d="m247.42 261.87c6.79-7.36 19.2-8.14 27.14-2.24 5.99 4.21 8.4 11.95 7.55 19.01-10.46.03-20.92-.01-31.39.02.69 4.68 3.49 9.44 8.28 10.8 5.23 1.97 11.21-.67 13.98-5.37 2.12.67 4.27 1.28 6.45 1.77-.22 3.12-2.93 5.22-5.23 6.97-8.13 5.47-20.33 4.52-26.97-2.91-7.06-7.57-6.91-20.55.19-28.05m3.24 11.16c7.8-.01 15.59 0 23.39 0-.34-6.37-6.28-11.76-12.69-11.04-5.77.21-10.42 5.4-10.7 11.04z"/><path d="m388.29 259.63c8.5-6.36 22.14-4.9 28.49 3.84 3.24 4.28 4.26 9.85 3.83 15.11-10.51.17-21.02.01-31.53.09.65 4.56 3.36 9.09 7.87 10.68 5.26 2.1 11.63-.34 14.33-5.27 2.2.72 4.42 1.35 6.7 1.77-.1 1.92-1.55 3.34-2.73 4.71-5.75 5.91-15.22 7.16-22.72 4.22-5.89-2.29-10.26-7.7-11.6-13.82-2-7.71.92-16.57 7.36-21.33m.68 13.39c7.79.02 15.57-.01 23.35.02-.16-6.14-5.76-11.44-11.92-11.08-6.01-.09-11.09 5.16-11.43 11.06z"/><path d="m284.63 256.41c2.9-.06 5.8-.05 8.7.03 3.5 10.6 7.28 21.1 11 31.62 3.81-10.51 7.42-21.1 11.11-31.66 2.65-.03 5.3-.03 7.96 0-4.44 11.9-9.11 23.71-13.55 35.6-.52 1.12-.75 2.46-1.58 3.41-2.92.18-5.85.02-8.77.03-4.92-13.03-9.96-26.01-14.87-39.03z"/><path d="m329.56 256.4c2.78-.03 5.55-.03 8.33-.02-.02 13.02-.01 26.05 0 39.07-2.77.01-5.53.01-8.29.01-.02-13.02.05-26.04-.04-39.06z"/><path d="m345.55 256.4c10.42-.05 20.84-.01 31.27-.02-.02 1.81-.02 3.63-.02 5.46-7.7 9.18-15.33 18.42-22.96 27.66 7.74-.05 15.48.01 23.22-.04.02 2 .04 4 .05 6-10.8.01-21.6 0-32.4 0 .24-2.1-.65-4.68.92-6.39 7.44-8.86 14.88-17.72 22.23-26.66-7.42-.02-14.83-.01-22.24 0-.02-2.01-.05-4.01-.07-6.01z"/></g><path d="m88.56 67.83c9.9-1.9 20.58-.21 29.05 5.39 8.9 5.7 15.33 15.19 17.16 25.62 1.9 9.69-.18 20.09-5.58 28.35-7.06 11.05-20.07 18.16-33.23 17.61-16.66.3-32.33-11.87-36.78-27.81-3.75-12.07-.85-25.83 7.13-35.57 5.58-6.9 13.56-11.78 22.25-13.59z" fill="#007fc5" transform="translate(-30.56 -47.18)"/></svg>