<svg width="640pt" height="305.07pt" version="1.1" viewBox="0 0 640 305.07" xmlns="http://www.w3.org/2000/svg">
 <path d="m413.78 0 13.17 0.01 0.06 136.8 42.68-42.76 18.89 0.01-55.18 55.08 66.91 67.16-18.93 0.02-54.36-54.52-0.07 54.54-13.16 0.01z" fill="#80b23e"/>
 <path d="m185 63.1 36.28-36.16 9.28 9.55-36.12 36.17z" fill="#80b23e"/>
 <path d="m301.6 36.32 9.58-9.32 26.77 26.71 26.58-26.74 9.39 9.42-36.28 36.22z" fill="#80b23e"/>
 <path d="m178.34 89.13c13.08-3.09 27.07-1.95 39.55 3.01 10.34 4.12 19.48 11.01 26.71 19.44l-83.85 83.33c11.41 8.9 26.55 12.95 40.85 10.54 10.91-1.7 21.12-7.01 28.96-14.76l9.53 9.27c-11.67 11.9-28.07 18.99-44.73 19.36-14.75 0.56-29.64-4.03-41.45-12.89-12.6-9.31-21.69-23.26-25.03-38.58-3.79-16.9-0.7-35.26 8.67-49.87 9.09-14.47 24.11-25.1 40.79-28.85m-15.33 21.14c-13.44 9.3-22.1 25.2-22.36 41.58-0.47 12.01 3.48 24.06 10.76 33.6l74.09-73.79c-7.31-5.44-15.91-9.3-24.99-10.42-13.04-1.96-26.73 1.47-37.5 9.03z" fill="#80b23e"/>
 <path d="m324.45 88.53c21.06-4.09 43.82 2.99 58.88 18.26l-9.31 9.36c-11-10.65-26.54-16.78-41.89-15.22-15.26 1.13-29.77 9.45-38.56 21.96-6.57 9.21-10.01 20.6-9.69 31.91 0.33 15.55 7.99 30.79 20.37 40.24 12.57 9.87 29.81 13.55 45.28 9.42 9.06-2.18 17.31-7.07 24.02-13.48l9.77 9.02c-11.71 11.94-28.19 19-44.9 19.33-14.55 0.5-29.21-4.03-40.93-12.66-12.82-9.34-22.06-23.5-25.36-39.02-3.7-16.76-0.68-34.97 8.56-49.47 9.61-15.4 25.88-26.45 43.76-29.65z" fill="#80b23e"/>
 <path d="m574.4 87.219c-12.63-0.05903-25.279 3.5022-35.892 10.387-16.22 10.29-27.65 27.941-29.95 47.041 7.5e-4 0.0254 7.4e-4 0.0508 2e-3 0.0762-0.86586 6.5041-0.7347 13.132 0.34569 19.601 0.2416 1.8776 0.61902 3.7371 1.1734 5.5752 1.8976 7.4143 5.0664 14.499 9.4336 20.801 8.6 12.46 21.491 21.99 36.101 26.12 15.89 4.6 33.55 3.0699 48.27-4.5601 16.34-8.2 28.85-23.549 33.71-41.169 0.85394-2.4971 1.3353-5.042 1.6055-7.6128 1.1719-7.4937 1.0747-15.187-0.37061-22.641-4.52-25.85-26.13-47.49-51.88-52.34-4.13-0.835-8.3377-1.2577-12.548-1.2773zm-1.1162 13.484c9.6797-0.18593 19.412 2.4921 27.699 7.4971 13.18 7.79 22.671 21.61 25.021 36.76 0.44069 2.5241 0.66753 5.076 0.70899 7.6304 3e-3 0.2544 7e-3 0.50877 6e-3 0.76319 3.9e-4 0.37945-0.0109 0.75883-0.019 1.1382-0.0571 2.0926-0.23509 4.1832-0.56103 6.2549-1.77 13.3-9.0909 25.709-19.651 33.949-11.4 9.08-26.71 13.05-41.08 10.56-13.1-2.14-25.27-9.5006-33.28-20.101-5.2824-6.8611-8.7807-15.076-10.175-23.625-0.0304-0.20752-0.0719-0.41312-0.0996-0.62109-0.0784-0.49821-0.1366-0.99847-0.19922-1.4985-0.041-0.33841-0.0887-0.67602-0.12305-1.0151-0.0321-0.30916-0.053-0.61908-0.0791-0.92871-0.0465-0.55946-0.0891-1.1195-0.11719-1.6802-0.0139-0.27724-0.023-0.55461-0.0323-0.83203-0.0187-0.5515-0.0286-1.1034-0.0293-1.6553-7e-5 -0.3306 2e-3 -0.66117 9e-3 -0.9917 9e-3 -0.49591 0.0287-0.9913 0.0527-1.4868 0.017-0.34874 0.0329-0.69755 0.0571-1.0459 0.0419-0.60204 0.0984-1.2028 0.1626-1.8032 0.0215-0.20544 0.0361-0.41151 0.0601-0.6167 0.10245-0.85539 0.22513-1.7091 0.37353-2.5591 0.0352-0.22668 0.0774-0.45215 0.11573-0.67823 1.1853-6.5442 3.6037-12.874 7.1191-18.519 8.53-13.79 23.71-23.34 39.92-24.64 1.3762-0.145 2.7583-0.22978 4.1411-0.25635z" fill="#80b23e"/>
 <path d="m40.22 103.98c4.24 2.34 8.74 4.15 13.41 5.42-0.04 30.82-0.01 61.64-0.02 92.46-0.07 8.69 0.61 17.59-1.99 26.02-4.32 15.65-16.15 29.01-31.23 35.08-6.4 2.78-13.4 3.72-20.32 4.05v-13.36c11.27 0.04 22.39-4.95 29.88-13.35 6.44-7.19 10.42-16.76 10.28-26.47-0.02-36.62 0.01-73.23-0.01-109.85z" fill="#80b23e"/>
 <path d="m78.31 109.52c4.56-1.56 9.18-3.05 13.34-5.54-0.01 36.61-0.02 73.21 0.01 109.82-0.06 20.81-7.46 41.49-20.7 57.56-17.03 21.14-43.83 33.78-70.96 33.71l0.06-13.34c17.9-0.03 35.74-6.31 49.52-17.77 17.89-14.43 28.77-37.1 28.75-60.1 0.06-34.78 0.1-69.56-0.02-104.34z" fill="#80b23e"/>
 <path d="m59.25 110.49 13.47-0.05c-0.03 33.47-0.01 66.94-0.01 100.41 0.06 9.16-1.16 18.41-4.34 27.04-6.18 17.37-19.23 32.16-35.74 40.37-10.03 5.25-21.33 7.42-32.55 7.88l-0.02-13.54c16.25 0.25 32.31-6.94 43.33-18.82 10-10.73 16-25.27 15.88-39.99-0.03-34.43 0.03-68.87-0.02-103.3z" fill="#80b23e"/>
 <path d="m221.72 241.03c2.72 0.01 5.43 0 8.15-0.04 0.13 13.96 0.02 27.92 0.05 41.88-0.03 1.91 0.2 4.26 2.03 5.33 2.04 0.98 4.33 0.02 6.46-0.12 0.34 2.16 0.64 4.32 0.85 6.5-4.08 1.14-8.57 2.38-12.71 0.86-3.04-1.17-4.97-4.43-4.82-7.64-0.03-15.59 0.01-31.18-0.01-46.77z" fill="#80b23e"/>
 <path d="m329.6 241.03h8.28c0 3.03 0 6.07-0.01 9.11-2.75 0-5.51-0.01-8.26 0-0.01-3.04-0.02-6.07-0.01-9.11z" fill="#80b23e"/>
 <path d="m151.06 243.55c2.73 0.01 5.46 0.01 8.19 0.01 0.05 4.26 0.03 8.51 0.03 12.77 2.88 0.05 5.76 0.05 8.64 0.06-0.02 2.21-0.05 4.43-0.09 6.66-1.47-0.08-2.94-0.15-4.41-0.22-1.38 0.08-2.76 0.18-4.14 0.28 0.01 6.57-0.01 13.13-0.01 19.7 0.01 1.93 0.19 4.41 2.25 5.27 2.59 1.05 5.21-0.38 7.68-1.09 0.52 2.14 1.09 4.27 1.74 6.37-4.9 2.47-11.17 4.21-16.25 1.27-2.46-1.28-3.65-4.16-3.62-6.82-0.09-8.28-0.01-16.56-0.03-24.83-1.68 0-3.37 0-5.05 0.01-0.05-2.2-0.08-4.41-0.1-6.6 1.71-0.02 3.43-0.02 5.15-0.02 0-4.27-0.02-8.55 0.02-12.82z" fill="#80b23e"/>
 <path d="m181.95 259.43c7.88-5.65 19.93-4.88 26.68 2.23 4.4 4.4 5.96 10.94 5.28 17-10.46-0.01-20.93-0.02-31.39 0.01 0.6 4.37 3.04 8.76 7.31 10.46 5.31 2.45 12.07 0.08 14.81-5.05 2.24 0.69 4.5 1.32 6.78 1.88-0.95 3.87-4.42 6.47-7.78 8.23-8.54 4.16-20.22 2.2-25.89-5.76-6.55-8.7-4.82-22.63 4.2-29m0.53 13.59c7.8 0.01 15.59 0.01 23.38 0-0.47-5.8-5.39-11.03-11.34-11.05-6.22-0.5-11.91 4.86-12.04 11.05z" fill="#80b23e"/>
 <path d="m247.42 261.87c6.79-7.36 19.2-8.14 27.14-2.24 5.99 4.21 8.4 11.95 7.55 19.01-10.46 0.03-20.92-0.01-31.39 0.02 0.69 4.68 3.49 9.44 8.28 10.8 5.23 1.97 11.21-0.67 13.98-5.37 2.12 0.67 4.27 1.28 6.45 1.77-0.22 3.12-2.93 5.22-5.23 6.97-8.13 5.47-20.33 4.52-26.97-2.91-7.06-7.57-6.91-20.55 0.19-28.05m3.24 11.16c7.8-0.01 15.59 0 23.39 0-0.34-6.37-6.28-11.76-12.69-11.04-5.77 0.21-10.42 5.4-10.7 11.04z" fill="#80b23e"/>
 <path d="m388.29 259.63c8.5-6.36 22.14-4.9 28.49 3.84 3.24 4.28 4.26 9.85 3.83 15.11-10.51 0.17-21.02 0.01-31.53 0.09 0.65 4.56 3.36 9.09 7.87 10.68 5.26 2.1 11.63-0.34 14.33-5.27 2.2 0.72 4.42 1.35 6.7 1.77-0.1 1.92-1.55 3.34-2.73 4.71-5.75 5.91-15.22 7.16-22.72 4.22-5.89-2.29-10.26-7.7-11.6-13.82-2-7.71 0.92-16.57 7.36-21.33m0.68 13.39c7.79 0.02 15.57-0.01 23.35 0.02-0.16-6.14-5.76-11.44-11.92-11.08-6.01-0.09-11.09 5.16-11.43 11.06z" fill="#80b23e"/>
 <path d="m284.63 256.41c2.9-0.06 5.8-0.05 8.7 0.03 3.5 10.6 7.28 21.1 11 31.62 3.81-10.51 7.42-21.1 11.11-31.66 2.65-0.03 5.3-0.03 7.96 0-4.44 11.9-9.11 23.71-13.55 35.6-0.52 1.12-0.75 2.46-1.58 3.41-2.92 0.18-5.85 0.02-8.77 0.03-4.92-13.03-9.96-26.01-14.87-39.03z" fill="#80b23e"/>
 <path d="m329.56 256.4c2.78-0.03 5.55-0.03 8.33-0.02-0.02 13.02-0.01 26.05 0 39.07-2.77 0.01-5.53 0.01-8.29 0.01-0.02-13.02 0.05-26.04-0.04-39.06z" fill="#80b23e"/>
 <path d="m345.55 256.4c10.42-0.05 20.84-0.01 31.27-0.02-0.02 1.81-0.02 3.63-0.02 5.46-7.7 9.18-15.33 18.42-22.96 27.66 7.74-0.05 15.48 0.01 23.22-0.04 0.02 2 0.04 4 0.05 6-10.8 0.01-21.6 0-32.4 0 0.24-2.1-0.65-4.68 0.92-6.39 7.44-8.86 14.88-17.72 22.23-26.66-7.42-0.02-14.83-0.01-22.24 0-0.02-2.01-0.05-4.01-0.07-6.01z" fill="#80b23e"/>
 <g transform="translate(-30.56,-47.18)">
  <path d="m88.56 67.83c9.9-1.9 20.58-0.21 29.05 5.39 8.9 5.7 15.33 15.19 17.16 25.62 1.9 9.69-0.18 20.09-5.58 28.35-7.06 11.05-20.07 18.16-33.23 17.61-16.66 0.3-32.33-11.87-36.78-27.81-3.75-12.07-0.85-25.83 7.13-35.57 5.58-6.9 13.56-11.78 22.25-13.59z" fill="#007fc5"/>
 </g>
</svg>
