<?xml version="1.0" encoding="UTF-8" standalone="no"?>
<svg
   xmlns:dc="http://purl.org/dc/elements/1.1/"
   xmlns:cc="http://creativecommons.org/ns#"
   xmlns:rdf="http://www.w3.org/1999/02/22-rdf-syntax-ns#"
   xmlns:svg="http://www.w3.org/2000/svg"
   xmlns="http://www.w3.org/2000/svg"
   xmlns:sodipodi="http://sodipodi.sourceforge.net/DTD/sodipodi-0.dtd"
   xmlns:inkscape="http://www.inkscape.org/namespaces/inkscape"
   width="1157.4792pt"
   height="529.16528pt"
   viewBox="0 0 1157.4792 529.16528"
   version="1.1"
   id="svg41"
   sodipodi:docname="TV Liptov.svg"
   inkscape:version="0.92.0 r15299">
  <metadata
     id="metadata47">
    <rdf:RDF>
      <cc:Work
         rdf:about="">
        <dc:format>image/svg+xml</dc:format>
        <dc:type
           rdf:resource="http://purl.org/dc/dcmitype/StillImage" />
        <dc:title></dc:title>
      </cc:Work>
    </rdf:RDF>
  </metadata>
  <defs
     id="defs45" />
  <sodipodi:namedview
     pagecolor="#ffffff"
     bordercolor="#666666"
     borderopacity="1"
     objecttolerance="10"
     gridtolerance="10"
     guidetolerance="10"
     inkscape:pageopacity="0"
     inkscape:pageshadow="2"
     inkscape:window-width="1920"
     inkscape:window-height="1017"
     id="namedview43"
     showgrid="false"
     fit-margin-top="0"
     fit-margin-left="0"
     fit-margin-right="0"
     fit-margin-bottom="0"
     inkscape:zoom="0.45675131"
     inkscape:cx="1205.9134"
     inkscape:cy="200.39862"
     inkscape:window-x="-8"
     inkscape:window-y="-8"
     inkscape:window-maximized="1"
     inkscape:current-layer="svg41" />
  <g
     id="#ffffffff"
     transform="translate(-95.160786,-76.64)" />
  <g
     id="#0053a5ff"
     transform="translate(-95.160786,-76.64)">
    <path
       d="m 958.14,76.64 2.85,3.43 -2.27,40.85 -3.93,3.44 -88.63,-1.69 4.04,353.69 -4.06,3.58 -56.8,1.11 -2.75,-4.79 0.54,-353.03 -91.97,2.27 -2.86,-3.41 1.71,-40.27 3.4,-3.47 z"
       id="path3"
       inkscape:connector-curvature="0"
       style="opacity:1;fill:#0053a5"
       sodipodi:nodetypes="ccccccccccccccc" />
    <path
       d="m 977.87,80.05 57.93,-3.39 3.4686,4.086927 78.2414,338.383073 79.05,-335.32 4.42,-4.89 48.84,-0.57 2.82,2.95 -105.8,393.75 -3.8,4.88 -60.76,1.11 -3.95,-3.42 L 975.58,82.9 Z"
       id="path5"
       inkscape:connector-curvature="0"
       style="opacity:1;fill:#0053a5"
       sodipodi:nodetypes="cccccccccccccc" />
    <path
       d="m 95.22,77.77 c 81.66,-0.13 163.31,-0.03 244.97,-0.05 0.01,63.58 0.06,127.17 -0.02,190.75 -10.23,-12.96 -23.83,-23.34 -39.34,-29.12 -21.76,-8.07 -46.77,-7.39 -67.82,2.54 -30.72,14.12 -51.77,47.03025 -51.54,80.89025 -28.73,0.25 -57.48,0.04 -86.21,0 C 95.16,241.11025 95.24,159.44 95.22,77.77 Z"
       id="path7"
       inkscape:connector-curvature="0"
       style="opacity:1;fill:#0053a5"
       sodipodi:nodetypes="cccccccc" />
    <path
       d="m 243.32,278.3 c 12.28,-7.65 27.87,-9.33 41.67,-5.21 13.82,4.07 25.56,14.36 31.61,27.41 3.39,6.85 4.62,14.72025 5.15,22.28025 -34.31,0.45 -68.65,-0.13 -102.98,0 -0.34,-17.74 9.38,-35.30025 24.55,-44.48025 z"
       id="path9"
       inkscape:connector-curvature="0"
       style="opacity:1;fill:#0053a5"
       sodipodi:nodetypes="cccccc" />
    <path
       d="m 1137.43,510.75 c 9.27,-1.61 19.5,-0.23 27.08,5.68 7.44,5.59 11.72,14.41 13.75,23.32 2.42,10.91 2.54,22.3 0.75,33.32 -1.59,8.69 -4.78,17.48 -11.17,23.8 -10.42,10.34 -27.86,11.47 -40.45,4.61 -10.85,-6.14 -16.05,-18.58 -17.9,-30.38 -2,-14.3 -1.52,-29.58 4.81,-42.81 4.28,-9.15 13.1,-16.01 23.13,-17.54 m 0.89,10.52 c -6.67,2.23 -10.6,8.84 -12.7,15.18 -3.72,11.93 -3.94,24.86 -1.32,37.05 1.45,6.15 3.63,12.49 8.27,17 6.27,6.39 17.77,6.62 24.13,0.24 4.28,-4.24 6.39,-10.12 7.72,-15.87 2.01,-9.63 2.14,-19.62 0.75,-29.34 -1.19,-7.46 -3.47,-15.26 -9.05,-20.67 -4.62,-4.48 -11.8,-5.59 -17.8,-3.59 z"
       id="path11"
       inkscape:connector-curvature="0"
       style="opacity:1;fill:#0053a5" />
    <path
       d="m 994.04,511.82 c 7,-0.35 14.01,-0.34 21.01,-0.51 7.25,-0.02 15.19,0.78 20.86,5.8 6.76,5.8 8.6,15.32 8.22,23.83 -0.33,8.73 -3.69,17.95 -11.14,23.05 -7.18,5.04 -16.37,4.87 -24.77,4.9 0.06,11.7 0.12,23.42 0.64,35.12 -4.6,0.17 -9.19,0.23 -13.78,0.35 l -0.61,-0.59 c 0.5,-30.64 0.29,-61.31 -0.43,-91.95 m 13.93,9.81 c -0.05,12.35 0.02,24.7 0.25,37.05 5.46,-0.17 11.64,0.38 16.13,-3.37 5.03,-4.14 6.21,-11.12 6.23,-17.28 -0.08,-5.29 -1.41,-11.37 -6.11,-14.47 -4.97,-2.94 -11,-2.13 -16.5,-1.93 z"
       id="path13"
       inkscape:connector-curvature="0"
       style="opacity:1;fill:#0053a5" />
    <path
       d="m 746.19,511.84 c 18.93,-0.22 37.88,-0.12 56.8,-0.28 -0.31,3.55 -0.48,7.11 -0.73,10.67 -7.05,-0.09 -14.09,-0.47 -21.14,-0.32 -0.03,27.39 0.25,54.79 0.75,82.17 -4.71,0.1 -9.43,-0.04 -14.11,0.44 -0.71,-3.8 -0.07,-7.67 -0.17,-11.49 0.03,-23.66 0.17,-47.33 -0.07,-70.99 -7.24,-0.07 -14.46,0.22 -21.69,0.5 -0.07,-3.58 0.14,-7.14 0.36,-10.7 z"
       id="path15"
       inkscape:connector-curvature="0"
       style="opacity:1;fill:#0053a5" />
    <path
       d="m 806.38,512.09 c 4.57,-0.04 9.13,-0.57 13.7,-0.68 1.4,0.6 1,2.49 1.48,3.71 4.88,25.21 11.56,50.03 17.44,75.02 4.68,-19 9.46,-37.98 14.03,-57.01 1.69,-6.89 2.66,-13.96 4.46,-20.82 4.04,-1.07 8.5,-0.27 12.71,-0.49 -5.64,20.03 -11.03,40.13 -16.37,60.25 -3.11,10.67 -5.28,21.61 -8.66,32.19 -4.77,-0.26 -9.53,0.15 -14.28,0.1 -0.26,-0.35 -0.78,-1.06 -1.05,-1.42 -7.69,-30.31 -15.96,-60.49 -23.46,-90.85 z"
       id="path17"
       inkscape:connector-curvature="0"
       style="opacity:1;fill:#0053a5" />
    <path
       d="m 906.64,511.77 c 4.94,0.02 9.88,-0.4 14.81,-0.09 -0.38,27.3 -0.38,54.6 0.12,81.89 9.93,0.05 19.87,-0.06 29.78,-0.79 0.01,3.8 -0.33,7.59 -0.47,11.39 -14.53,-0.06 -29.06,0.16 -43.58,-0.1 0.38,-30.77 -0.13,-61.54 -0.66,-92.3 z"
       id="path19"
       inkscape:connector-curvature="0"
       style="opacity:1;fill:#0053a5" />
    <path
       d="m 961.13,512.1 c 4.92,-0.16 9.84,-0.26 14.77,-0.29 -0.51,30.78 0.01,61.58 0.66,92.35 -4.94,-0.11 -9.87,0.14 -14.79,0.17 0.3,-30.74 0.37,-61.5 -0.64,-92.23 z"
       id="path21"
       inkscape:connector-curvature="0"
       style="opacity:1;fill:#0053a5" />
    <path
       d="m 1046.86,511.82 c 18.84,-0.36 37.69,0.25 56.52,-0.54 0.18,3.66 -0.17,7.32 -0.51,10.96 -7.03,-0.11 -14.04,-0.48 -21.07,-0.32 -0.06,27.41 0.33,54.83 0.7,82.23 -4.81,-0.11 -9.61,0.13 -14.4,0.15 0.35,-27.42 0.29,-54.84 0.09,-82.26 -7.28,-0.17 -14.54,0.43 -21.81,0.33 0.15,-3.52 0.28,-7.04 0.48,-10.55 z"
       id="path23"
       inkscape:connector-curvature="0"
       style="opacity:1;fill:#0053a5" />
    <path
       d="m 1184.69,512.14 c 4.79,-0.2 9.58,-0.54 14.38,-0.79 5.2,26.47 12.04,52.58 18.29,78.81 6.29,-26.06 13.32,-51.96 18.52,-78.26 4.21,-0.05 8.44,-0.2 12.66,-0.04 -8.62,30.51 -16.56,61.22 -24.76,91.83 -4.33,1.1 -9.2,0.26 -13.73,0.7 -1.86,0.38 -1.93,-1.91 -2.33,-3.07 -7.47,-29.78 -15.58,-59.4 -23.03,-89.18 z"
       id="path25"
       inkscape:connector-curvature="0"
       style="opacity:1;fill:#0053a5" />
  </g>
  <g
     id="#dcdddeff"
     transform="translate(-95.160786,-76.64)">
    <path
       d="m 377.21025,77.8 c 60.58,-0.31 121.16975,-0.05 181.75975,-0.13 21.07,0.05 42.14,-0.11 63.22,0.07 0.04,81.69 0.15,163.39 -0.06,245.07 -63.48,0.05 -126.96,0.1 -190.44,-0.02 9.57,-8.23 18.27,-17.65 24.16,-28.91 10.57,-19.63 13.09,-43.33 7.27,-64.82 -4.83,-17.77 -15.6,-33.78 -29.96,-45.27 -15.65,-12.73 -35.65,-19.79 -55.81,-20.01 -0.16,-28.66 -0.11975,-57.32 -0.13975,-85.98 z"
       id="path28"
       inkscape:connector-curvature="0"
       style="opacity:1;fill:#dcddde"
       sodipodi:nodetypes="cccccccccc" />
    <path
       d="m 377.37975,201.07 c 13.76,-0.04 27.44025,5.62 37.09025,15.44 9.28,9.27 14.83,22.33 14.58,35.49 0.42,14.18 -5.69,28.31 -16.05,37.94 -9.5,8.96 -22.52025,14.29 -35.62025,14.02 -0.03,-34.3 -0.11,-68.59 0,-102.89 z"
       id="path30"
       inkscape:connector-curvature="0"
       style="opacity:1;fill:#dcddde"
       sodipodi:nodetypes="cccccc" />
    <path
       d="m 95.25,359.18 c 63.57,-0.12 127.14,-0.14 190.7,0 -13.86,11.3 -25.01,26.24 -30.38,43.42 -6.06,19.39 -5.61,40.93 2.09,59.8 7.77,19.25 22.61,35.43 40.91,45.15 12.67,6.86 27.18,10.39 41.57,10.6 0.07,28.69 0.07,57.37 0,86.06 -81.64,0.06 -163.29,0.15 -244.93,-0.04 -0.02,-81.65 -0.12,-163.34 0.04,-244.99 z"
       id="path32"
       inkscape:connector-curvature="0"
       style="opacity:1;fill:#dcddde"
       sodipodi:nodetypes="ccccccccc" />
    <path
       d="m 396.04,359.18 c 34.29,-0.07 68.58,-0.1 102.87,0 0.03,13.77 -5.61,27.61 -15.45,37.26 -9.5,9.54 -22.99,15.03 -36.46,14.6 -13.84,0.09 -27.53,-5.97 -36.92,-16.1 -8.97,-9.51 -14.26,-22.65 -14.04,-35.76 z"
       id="path34"
       inkscape:connector-curvature="0"
       style="opacity:1;fill:#dcddde"
       sodipodi:nodetypes="cccccc" />
    <path
       d="m 536.2,359.18 c 28.64,-0.15 57.32,-0.04 85.97,0 0.17,81.69 0.05,163.39 0,245.08 -59.06,0.13 -118.11,0.02 -177.17,0.05 -22.59,-0.08 -45.19,0.17 -67.78,-0.12 -0.03,-63.5 -0.1,-127 0.03,-190.5 7.24,8.16 15.02,16.03 24.51,21.58 18.97,11.82 42.59,15.58 64.4,10.97 29.4,-6.06 54.31,-28.55 64.48,-56.63 3.63,-9.68 5.27,-20.12 5.56,-30.43 z"
       id="path36"
       inkscape:connector-curvature="0"
       style="opacity:1;fill:#dcddde"
       sodipodi:nodetypes="cccccccccc" />
    <path
       d="m 309.13,388.21 c 8.84,-6.57 19.98,-10.32 31.01,-10.27 0.07,34.36 0.14,68.72 0,103.08 -15.23,-0.28 -30.56,-7.14 -40.22,-19.01 -9.37,-11.25 -13.38,-26.71 -10.77,-41.1 2.03,-12.96 9.4,-24.97 19.98,-32.7 z"
       id="path38"
       inkscape:connector-curvature="0"
       style="opacity:1;fill:#dcddde"
       sodipodi:nodetypes="cccccc" />
  </g>
</svg>
