<?xml version="1.0" encoding="UTF-8" standalone="no"?>
<svg
   xmlns:dc="http://purl.org/dc/elements/1.1/"
   xmlns:cc="http://creativecommons.org/ns#"
   xmlns:rdf="http://www.w3.org/1999/02/22-rdf-syntax-ns#"
   xmlns:svg="http://www.w3.org/2000/svg"
   xmlns="http://www.w3.org/2000/svg"
   xmlns:sodipodi="http://sodipodi.sourceforge.net/DTD/sodipodi-0.dtd"
   xmlns:inkscape="http://www.inkscape.org/namespaces/inkscape"
   width="17.236834pt"
   height="4.1182518pt"
   viewBox="0 0 17.236834 4.1182518"
   version="1.1"
   id="svg77"
   sodipodi:docname="TV Nitricka - Dark.svg"
   inkscape:version="0.92.0 r15299">
  <metadata
     id="metadata83">
    <rdf:RDF>
      <cc:Work
         rdf:about="">
        <dc:format>image/svg+xml</dc:format>
        <dc:type
           rdf:resource="http://purl.org/dc/dcmitype/StillImage" />
        <dc:title />
      </cc:Work>
    </rdf:RDF>
  </metadata>
  <defs
     id="defs81">
    <clipPath
       clipPathUnits="userSpaceOnUse"
       id="clipPath25954">
      <path
         d="m 298.665,385.576 h 17.257 v 4.147 h -17.257 z"
         id="path25952"
         inkscape:connector-curvature="0" />
    </clipPath>
  </defs>
  <sodipodi:namedview
     pagecolor="#ffffff"
     bordercolor="#666666"
     borderopacity="1"
     objecttolerance="10"
     gridtolerance="10"
     guidetolerance="10"
     inkscape:pageopacity="0"
     inkscape:pageshadow="2"
     inkscape:window-width="1920"
     inkscape:window-height="1017"
     id="namedview79"
     showgrid="false"
     fit-margin-top="0"
     fit-margin-left="0"
     fit-margin-right="0"
     fit-margin-bottom="0"
     inkscape:zoom="54.664662"
     inkscape:cx="11.491222"
     inkscape:cy="4.8851724"
     inkscape:window-x="-8"
     inkscape:window-y="-8"
     inkscape:window-maximized="1"
     inkscape:current-layer="svg77" />
  <path
     inkscape:connector-curvature="0"
     id="path25958"
     style="fill:#e4282d;fill-opacity:1;fill-rule:nonzero;stroke:none"
     d="m 12.210331,0.00215169 c 0.144,-0.004 0.289,-0.001 0.433,-0.002 0.108,-9.9999997e-4 0.216,0.0559999999 0.274,0.14799999994 0.064,0.098 0.066,0.23199999 0.006,0.33299999 -0.055,0.095 -0.161,0.15699999 -0.271,0.15699999 -0.138,0.001 -0.275,0 -0.413,0.001 -0.069,0 -0.138,-0.023 -0.193,-0.065 -0.097,-0.072 -0.146,-0.20199999 -0.12,-0.31999999 0.027,-0.13399999 0.148,-0.24099999 0.284,-0.25199999" />
  <path
     inkscape:connector-curvature="0"
     id="path25962"
     style="fill:#34abdd;fill-opacity:1;fill-rule:nonzero;stroke:none"
     d="m 7.0917308,0.01665169 c 0.151,-0.045 0.325,0.043 0.38,0.18999999 0.056,0.133 0.005,0.299 -0.115,0.37899999 -0.108,0.078 -0.266,0.075 -0.372,-0.006 -0.106,-0.077 -0.154,-0.22399999 -0.114,-0.34999999 0.031,-0.10199999 0.118,-0.18499999 0.221,-0.21299999" />
  <path
     inkscape:connector-curvature="0"
     id="path25966"
     style="fill:#34abdd;fill-opacity:1;fill-rule:nonzero;stroke:none"
     d="m 8.0364308,0.30545168 c 0.006,-0.157 0.144,-0.29499999 0.302,-0.29999999 0.166,-0.012 0.325,0.127 0.334,0.29399999 0.003,0.152 0,0.30399999 10e-4,0.45599999 0.069,0.001 0.14,-0.007 0.205,0.02 0.134,0.048 0.223,0.19499999 0.203,0.33600003 -0.013,0.119 -0.1,0.2249999 -0.214,0.2619999 -0.062,0.022 -0.129,0.015 -0.193,0.018 0.001,0.313 0,0.626 0,0.939 0.004,0.102 -0.044,0.203 -0.126,0.264 -0.099,0.077 -0.247,0.085 -0.355,0.02 -0.092,-0.054 -0.153,-0.156 -0.156,-0.262 -10e-4,-0.321 0,-0.642 -10e-4,-0.962 -0.09,0.002 -0.187,0.003 -0.264,-0.051 -0.132,-0.079 -0.186,-0.2609999 -0.119,-0.39899994 0.046,-0.102 0.149,-0.17599999 0.261,-0.18399999 0.04,-0.002 0.081,0 0.121,-0.001 10e-4,-0.15 -10e-4,-0.29999999 10e-4,-0.44999999" />
  <path
     inkscape:connector-curvature="0"
     id="path25970"
     style="fill:#34abdd;fill-opacity:1;fill-rule:nonzero;stroke:none"
     d="m 10.896831,0.01445169 c 0.151,-0.041 0.322,0.05 0.374,0.19699999 0.052,0.133 0.001,0.297 -0.119,0.37599999 -0.103,0.072 -0.25,0.073 -0.354,0.003 -0.107,-0.067 -0.164,-0.20299999 -0.139,-0.32699999 0.022,-0.11999999 0.119,-0.22099999 0.238,-0.24899999" />
  <path
     inkscape:connector-curvature="0"
     id="path25974"
     style="fill:#34abdd;fill-opacity:1;fill-rule:nonzero;stroke:none"
     d="m 13.505831,0.01705169 c 0.105,-0.031 0.226,0 0.304,0.077 0.064,0.059 0.1,0.14599999 0.099,0.23299999 0.001,0.36399999 0,0.72900002 0.001,1.09299992 0.161,-0.1619999 0.324,-0.3229999 0.485,-0.48499994 0.036,-0.035 0.071,-0.072 0.108,-0.10599999 0.082,-0.069 0.2,-0.091 0.302,-0.056 0.115,0.037 0.203,0.14499999 0.216,0.26500003 0.013,0.098 -0.025,0.199 -0.096,0.268 -0.134,0.1339999 -0.268,0.2689999 -0.403,0.4029999 0.138,0.141 0.28,0.279 0.419,0.421 0.102,0.109 0.11,0.29 0.017,0.407 -0.056,0.074 -0.145,0.12 -0.237,0.125 -0.088,0.004 -0.178,-0.029 -0.24,-0.092 -0.191,-0.191 -0.381,-0.381 -0.571,-0.571 -0.002,0.121 10e-4,0.243 -0.001,0.364 -0.005,0.169 -0.165,0.311 -0.333,0.299 -0.161,-0.005 -0.303,-0.148 -0.303,-0.309 0,-0.679 0,-1.35799994 0,-2.03699992 10e-4,-0.13599999 0.101,-0.26399999 0.233,-0.29899999" />
  <path
     inkscape:connector-curvature="0"
     id="path25978"
     style="fill:#e4282d;fill-opacity:1;fill-rule:nonzero;stroke:none"
     d="m 0.03553104,0.20475168 c 0.052,-0.103 0.164,-0.17099999 0.27899999,-0.17099999 0.45899999,-0.002 0.91799997,-0.002 1.37799997,0 0.088,-0.001 0.175,0.03699999 0.234,0.10199999 0.077,0.08 0.104,0.203 0.07,0.30899999 -0.038,0.127 -0.161,0.22 -0.294,0.223 -0.116,0.001 -0.232,0 -0.348,0 0,0.55799993 0,1.11499993 0,1.67299993 0.001,0.072 -0.02,0.145 -0.064,0.203 -0.071,0.096 -0.201,0.147 -0.31799999,0.121 -0.14499999,-0.027 -0.25799999,-0.165 -0.25599999,-0.312 -0.002,-0.563 -0.001,-1.126 -0.001,-1.68899993 -0.138,-0.001 -0.27499999,0.008 -0.41299999,0.004 -0.097,-0.004 -0.18999999,-0.056 -0.24499999,-0.137 -0.067,-0.094 -0.077,-0.22399999 -0.022,-0.32599999" />
  <path
     inkscape:connector-curvature="0"
     id="path25982"
     style="fill:#e4282d;fill-opacity:1;fill-rule:nonzero;stroke:none"
     d="m 2.218731,0.25985168 c 0.036,-0.086 0.103,-0.166 0.196,-0.19199999 0.071,-0.021 0.148,-0.001 0.208,0.03899999 0.069,0.049 0.12,0.12 0.152,0.198 0.131,0.32399999 0.262,0.64899998 0.392,0.97299992 0.012,0.031 0.025,0.062 0.04,0.092 0.151,-0.3569999 0.3,-0.71399993 0.451,-1.07099992 0.04,-0.09 0.106,-0.173 0.198,-0.21099999 0.066,-0.029 0.1449999,-0.026 0.2069999,0.01 0.076,0.04 0.125,0.116 0.154,0.195 0.033,0.092 0.041,0.19299999 0.023,0.28999999 -0.012,0.084 -0.05,0.16 -0.082,0.23799999 -0.223,0.52899994 -0.4459999,1.05799994 -0.6679999,1.58799994 -0.029,0.085 -0.076,0.17 -0.156,0.217 -0.068,0.043 -0.157,0.045 -0.228,0.01 -0.093,-0.038 -0.151,-0.126 -0.189,-0.214 -0.231,-0.571 -0.462,-1.143 -0.693,-1.71399993 -0.058,-0.141 -0.064,-0.30599999 -0.005,-0.44799999" />
  <path
     inkscape:connector-curvature="0"
     id="path25986"
     style="fill:#34abdd;fill-opacity:1;fill-rule:nonzero;stroke:none"
     d="m 12.391531,0.75515167 c 0.14,-0.003 0.281,-0.001 0.421,-0.001 0.147,-0.001 0.282,0.118 0.305,0.26300003 0.022,0.118 -0.031,0.245 -0.129,0.314 -0.054,0.039 -0.121,0.059 -0.187,0.059 -0.124,0 -0.247,0 -0.371,0 -0.05,-0.001 -0.101,10e-4 -0.148,0.019 -0.121,0.044 -0.208,0.1669999 -0.207,0.2959999 -0.002,0.124 0.076,0.245 0.19,0.293 0.055,0.025 0.116,0.029 0.175,0.028 0.124,0 0.248,-10e-4 0.372,0 0.139,0 0.268,0.106 0.3,0.241 0.033,0.123 -0.019,0.263 -0.124,0.336 -0.06,0.043 -0.135,0.062 -0.208,0.059 -0.156,-0.003 -0.312,0.007 -0.468,-0.008 -0.248,-0.019 -0.486,-0.143 -0.646,-0.334 -0.192,-0.223 -0.268,-0.54 -0.2,-0.826 0.063,-0.2819999 0.264,-0.52899994 0.526,-0.64899993 0.125,-0.059 0.262,-0.085 0.399,-0.09" />
  <path
     inkscape:connector-curvature="0"
     id="path25990"
     d="m 16.044433,0.75292965 c -0.075,-0.002003 -0.149656,0.00597 -0.222656,0.0219727 -0.279999,0.0590002 -0.526855,0.25469525 -0.651855,0.51269535 -0.109,0.2199999 -0.127805,0.4837734 -0.04981,0.7177735 0.064,0.198 0.196676,0.3727227 0.367676,0.4907226 0.154,0.106 0.338879,0.1645274 0.525878,0.1655274 0.286001,9.974e-4 0.572399,4.648e-4 0.858399,0.00146 0.069,-0.002 0.141149,-0.010875 0.202149,-0.046875 0.101,-0.057 0.161598,-0.1706445 0.162597,-0.2856445 -0.009,-0.092 -0.04952,-0.1832344 -0.124512,-0.2402344 -0.055,-0.045 -0.126288,-0.065312 -0.196288,-0.070312 -1e-6,-0.321 5.35e-4,-0.6414024 -0.0015,-0.9624024 -0.003,-0.15700003 -0.138898,-0.2982227 -0.295898,-0.30322265 -0.192,-9.975e-4 -0.383219,-4.6485e-4 -0.574219,-0.001463 z m -0.03076,0.63720705 c 0.088,-9.975e-4 0.175672,0 0.263672,0 9.75e-4,0.211 0.0035,0.4237422 -0.0015,0.6357422 -0.084,0 -0.167954,9.975e-4 -0.251954,0 -0.09696,-9.975e-4 -0.19245,-0.046047 -0.250449,-0.1230468 -0.083,-0.1030001 -0.08911,-0.2601407 -0.01611,-0.3691407 0.055,-0.085 0.153348,-0.1415547 0.256347,-0.1435547 z"
     style="fill:#34abdd;fill-opacity:1;fill-rule:nonzero;stroke:none;stroke-width:0.99999994" />
  <path
     inkscape:connector-curvature="0"
     id="path25994"
     style="fill:#34abdd;fill-opacity:1;fill-rule:nonzero;stroke:none"
     d="m 4.9826309,0.76765167 c 0.101,-0.029 0.215,-0.002 0.294,0.067 0.013,0.018 0.033,0.007 0.049,0 0.21,-0.092 0.454,-0.105 0.672,-0.034 0.163,0.052 0.311,0.14899999 0.424,0.27800003 0.152,0.171 0.2369999,0.3989999 0.2359999,0.6269999 0.001,0.212 0,0.424 0,0.636 0.001,0.112 -0.063,0.223 -0.1629999,0.276 -0.114,0.066 -0.268,0.05 -0.366,-0.038 -0.068,-0.06 -0.109,-0.149 -0.107,-0.239 -0.001,-0.212 0,-0.424 -0.001,-0.636 0,-0.11 -0.061,-0.217 -0.157,-0.2719999 -0.116,-0.071 -0.277,-0.053 -0.376,0.041 -0.067,0.061 -0.105,0.151 -0.102,0.242 0,0.212 0,0.424 0,0.636 -0.003,0.128 -0.092,0.248 -0.213,0.289 -0.09,0.031 -0.193,0.021 -0.274,-0.03 -0.091,-0.056 -0.151,-0.161 -0.15,-0.269 0,-0.424 0,-0.849 0,-1.2729999 -0.001,-0.13800003 0.101,-0.26700003 0.234,-0.30100003" />
  <path
     inkscape:connector-curvature="0"
     id="path25998"
     style="fill:#34abdd;fill-opacity:1;fill-rule:nonzero;stroke:none"
     d="m 7.0818308,0.77025167 c 0.133,-0.043 0.289,0.015 0.363,0.134 0.033,0.052 0.05,0.11300003 0.049,0.17500003 v 1.1879999 c 0,0.05 0.004,0.1 -0.009,0.149 -0.02,0.082 -0.073,0.155 -0.146,0.197 -0.097,0.059 -0.226,0.06 -0.324,0.002 -0.095,-0.055 -0.159,-0.163 -0.157,-0.273 0,-0.425 0,-0.849 0,-1.2739999 -0.001,-0.13400003 0.096,-0.26000003 0.224,-0.29800003" />
  <path
     inkscape:connector-curvature="0"
     id="path26002"
     style="fill:#34abdd;fill-opacity:1;fill-rule:nonzero;stroke:none"
     d="m 9.4658308,0.76775167 c 0.107,-0.031 0.228,0.001 0.307,0.079 0.142,-0.061 0.2970002,-0.1 0.4520002,-0.088 0.124,0.013 0.234,0.107 0.268,0.22599999 0.033,0.10900004 0.002,0.23400004 -0.08,0.31400004 -0.061,0.064 -0.151,0.098 -0.24,0.095 -0.148,0 -0.2880002,0.1199999 -0.3030002,0.2689999 -0.002,0.229 0,0.459 -0.001,0.689 -0.003,0.109 -0.066,0.214 -0.162,0.266 -0.114,0.066 -0.269,0.05 -0.367,-0.038 -0.067,-0.059 -0.108,-0.148 -0.108,-0.238 0,-0.424 0,-0.849 0.001,-1.2729999 -0.001,-0.13800003 0.1,-0.26700003 0.233,-0.30100003" />
  <path
     inkscape:connector-curvature="0"
     id="path26006"
     style="fill:#34abdd;fill-opacity:1;fill-rule:nonzero;stroke:none"
     d="m 10.886331,0.76805167 c 0.131,-0.039 0.282,0.019 0.354,0.135 0.032,0.049 0.05,0.10800003 0.05,0.16600003 0,0.4239999 0,0.8489999 0,1.2729999 10e-4,0.112 -0.064,0.223 -0.163,0.276 -0.114,0.066 -0.269,0.049 -0.366,-0.039 -0.067,-0.059 -0.108,-0.148 -0.107,-0.237 -0.001,-0.407 0,-0.813 -0.001,-1.2199999 -10e-4,-0.058 0.001,-0.118 0.026,-0.17300004 0.037,-0.087 0.115,-0.15599999 0.207,-0.18099999" />
  <path
     inkscape:connector-curvature="0"
     id="path26014"
     style="fill:#141413;fill-opacity:1;fill-rule:nonzero;stroke:none"
     d="m 6.7963308,2.7934516 h 0.127 c 0.001,0.341 0.001,0.682 0,1.023 -0.042,0 -0.084,0 -0.127,0 -10e-4,-0.341 0,-0.682 0,-1.023" />
  <path
     inkscape:connector-curvature="0"
     id="path26018"
     style="fill:#141413;fill-opacity:1;fill-rule:nonzero;stroke:none"
     d="m 11.765331,2.7935516 c 0.043,0 0.085,0 0.128,0 0,0.341 0,0.682 -10e-4,1.023 -0.042,0 -0.084,0 -0.126,0 -0.003,-0.341 0,-0.682 -10e-4,-1.023" />
  <path
     inkscape:connector-curvature="0"
     id="path26022"
     style="fill:#141413;fill-opacity:1;fill-rule:nonzero;stroke:none"
     d="m 5.9922309,3.0235516 c 0.042,-0.069 0.084,-0.139 0.129,-0.207 0.046,0 0.093,0 0.139,0 -0.057,0.071 -0.117,0.138 -0.175,0.207 -0.031,0 -0.062,0 -0.093,0" />
  <path
     inkscape:connector-curvature="0"
     id="path26026"
     style="fill:#141413;fill-opacity:1;fill-rule:nonzero;stroke:none"
     d="m 14.456831,2.8210516 c 0.044,-0.01 0.093,-0.002 0.139,-0.004 -0.055,0.071 -0.116,0.138 -0.173,0.206 -0.031,10e-4 -0.062,10e-4 -0.093,0 0.043,-0.066 0.081,-0.137 0.127,-0.202" />
  <path
     inkscape:connector-curvature="0"
     id="path26030"
     style="fill:#141413;fill-opacity:1;fill-rule:nonzero;stroke:none"
     d="m 3.1139309,2.8486516 c 0.051,-0.023 0.116,0.019 0.11,0.076 0.005,0.062 -0.076,0.098 -0.124,0.065 -0.052,-0.031 -0.044,-0.121 0.014,-0.141" />
  <path
     inkscape:connector-curvature="0"
     id="path26034"
     style="fill:#141413;fill-opacity:1;fill-rule:nonzero;stroke:none"
     d="m 15.866731,2.8495516 c 0.051,-0.025 0.118,0.017 0.112,0.075 0.006,0.065 -0.083,0.101 -0.13,0.06 -0.045,-0.035 -0.034,-0.113 0.018,-0.135" />
  <path
     inkscape:connector-curvature="0"
     id="path26038"
     style="fill:#141413;fill-opacity:1;fill-rule:nonzero;stroke:none"
     d="m 10.057331,2.9506516 c 0.041,-0.012 0.082,-0.023 0.123,-0.034 10e-4,0.067 0,0.134 10e-4,0.201 0.061,0.001 0.122,-0.002 0.183,0.001 -0.003,0.032 -0.003,0.064 -0.002,0.096 -0.06,0.001 -0.121,0 -0.181,0.001 0,0.125 -10e-4,0.251 0,0.376 0.002,0.042 0.004,0.092 0.041,0.12 0.038,0.024 0.085,0.012 0.127,0.008 0.003,0.032 0.006,0.064 0.006,0.096 -0.074,0.019 -0.163,0.029 -0.23,-0.019 -0.053,-0.039 -0.067,-0.109 -0.067,-0.172 -0.002,-0.136 0,-0.273 -0.001,-0.409 -0.036,-0.001 -0.073,-0.001 -0.109,-0.001 0,-0.032 0,-0.064 0,-0.096 0.036,-0.001 0.072,-0.001 0.109,-0.001 0,-0.056 0,-0.111 0,-0.167" />
  <path
     inkscape:connector-curvature="0"
     id="path26042"
     style="fill:#141413;fill-opacity:1;fill-rule:nonzero;stroke:none"
     d="m 0.49153102,3.1344516 c 0.041,-0.027 0.095,-0.043 0.143,-0.026 -0.001,0.039 -0.001,0.078 0,0.117 -0.041,-0.003 -0.084,-0.006 -0.12,0.016 -0.069,0.036 -0.098,0.119 -0.1,0.193 -10e-4,0.127 0,0.255 -10e-4,0.382 -0.042,0 -0.084,0 -0.12499999,0 -0.003,-0.233 0.003,-0.466 -0.005,-0.698 0.037,-0.001 0.074,-0.001 0.10999999,0 0.002,0.046 0.003,0.093 0.004,0.14 0.022,-0.047 0.049,-0.095 0.094,-0.124" />
  <path
     style="fill:#141413;fill-opacity:1;fill-rule:nonzero;stroke:none;stroke-width:1.33333337"
     d="M 1.7265625 4.1347656 C 1.6493958 4.134599 1.5718594 4.1546927 1.5058594 4.1933594 C 1.3871927 4.2653594 1.3162552 4.3965833 1.2949219 4.53125 C 1.2762552 4.6659167 1.290474 4.8136875 1.3691406 4.9296875 C 1.438474 5.0323542 1.556401 5.0934687 1.6777344 5.1054688 C 1.8057344 5.1161354 1.937974 5.1001146 2.0566406 5.0507812 C 2.0473073 5.0107812 2.0372969 4.9710208 2.0292969 4.9296875 C 1.8919635 4.9736875 1.7329427 5.0068333 1.5996094 4.9375 C 1.4956094 4.8855 1.4498385 4.7649635 1.4511719 4.6542969 C 1.6698385 4.6529635 1.8868021 4.6536771 2.1054688 4.6523438 C 2.1254688 4.4896771 2.0833594 4.3005521 1.9433594 4.1992188 C 1.8793594 4.1558854 1.8037292 4.1349323 1.7265625 4.1347656 z M 1.7070312 4.2578125 C 1.7653646 4.2563125 1.8238542 4.2764062 1.8671875 4.3164062 C 1.9245208 4.3710729 1.9439792 4.4539167 1.9453125 4.53125 C 1.7813125 4.53125 1.6151719 4.5325833 1.4511719 4.53125 C 1.4631719 4.45525 1.4914948 4.3769323 1.5488281 4.3222656 C 1.5908281 4.281599 1.6486979 4.2593125 1.7070312 4.2578125 z "
     transform="scale(0.75)"
     id="path26046" />
  <path
     style="fill:#141413;fill-opacity:1;fill-rule:nonzero;stroke:none;stroke-width:1.33333337"
     d="M 2.953125 4.1445312 C 2.8877917 4.1593646 2.8253906 4.1909948 2.7753906 4.2363281 C 2.6633906 4.3349948 2.6145208 4.4874792 2.6171875 4.6328125 C 2.6158542 4.7741458 2.6724427 4.9211458 2.7871094 5.0078125 C 2.9431094 5.1318125 3.2038802 5.1037344 3.3105469 4.9277344 C 3.3092135 5.014401 3.3171563 5.1042135 3.2851562 5.1855469 C 3.2584896 5.2682135 3.1816563 5.3297031 3.0976562 5.3457031 C 2.9749896 5.3657031 2.846901 5.3439167 2.7402344 5.28125 C 2.7242344 5.32525 2.710599 5.3681094 2.6972656 5.4121094 C 2.790599 5.4654427 2.8991927 5.4862344 3.0058594 5.4902344 C 3.136526 5.4875677 3.278474 5.4528958 3.3691406 5.3515625 C 3.4571406 5.2528958 3.4738958 5.1143281 3.4765625 4.9863281 C 3.4792292 4.7103281 3.472375 4.4342031 3.484375 4.1582031 L 3.3359375 4.1582031 C 3.3346042 4.2035365 3.3288385 4.2502083 3.3261719 4.296875 C 3.2875052 4.2302083 3.2270104 4.1750104 3.1523438 4.1523438 C 3.0876771 4.1316771 3.0184583 4.1296979 2.953125 4.1445312 z M 3 4.2773438 C 3.064 4.2613437 3.1340729 4.2700208 3.1914062 4.3046875 C 3.2687396 4.3526875 3.3139271 4.4458229 3.3085938 4.5351562 C 3.3045937 4.6324896 3.3254375 4.740125 3.2734375 4.828125 C 3.2281042 4.9134583 3.1292031 4.9637917 3.0332031 4.953125 C 2.9465365 4.9477917 2.8693646 4.8898333 2.8320312 4.8125 C 2.7786979 4.7031667 2.7757865 4.5716979 2.8144531 4.4570312 C 2.8437865 4.3730312 2.912 4.2986771 3 4.2773438 z "
     transform="scale(0.75)"
     id="path26050" />
  <path
     style="fill:#141413;fill-opacity:1;fill-rule:nonzero;stroke:none;stroke-width:1.33333337"
     d="M 5.2617188 4.1386719 C 5.1283854 4.1520052 5.000974 4.2257969 4.9316406 4.3417969 C 4.860974 4.4577969 4.8425677 4.6010417 4.8652344 4.734375 C 4.883901 4.8490417 4.9450156 4.9593437 5.0410156 5.0273438 C 5.226349 5.1593438 5.5095833 5.1258385 5.65625 4.9511719 C 5.75225 4.8365052 5.7790521 4.6785365 5.7617188 4.5332031 C 5.7483854 4.4305365 5.7049063 4.3291927 5.6289062 4.2558594 C 5.5342396 4.1611927 5.3937188 4.1240052 5.2617188 4.1386719 z M 5.2773438 4.2675781 C 5.3586771 4.2555781 5.4466667 4.2830365 5.5 4.3457031 C 5.568 4.4243698 5.5938438 4.5301458 5.5898438 4.6328125 C 5.5911771 4.7394792 5.5533698 4.8512083 5.4707031 4.921875 C 5.3973698 4.9845417 5.2845521 4.997125 5.1992188 4.953125 C 5.1058854 4.905125 5.0531094 4.8050781 5.0371094 4.7050781 C 5.019776 4.5944115 5.0330365 4.475526 5.0957031 4.3808594 C 5.1357031 4.319526 5.2040104 4.2755781 5.2773438 4.2675781 z "
     transform="scale(0.75)"
     id="path26054" />
  <path
     inkscape:connector-curvature="0"
     id="path26058"
     style="fill:#141413;fill-opacity:1;fill-rule:nonzero;stroke:none"
     d="m 5.0416309,3.1085516 c 0.095,-0.024 0.206,0.012 0.26,0.097 0.058,0.089 0.049,0.2 0.049,0.302 -0.002,0.103 0.006,0.207 -0.004,0.31 -0.041,-10e-4 -0.081,-10e-4 -0.122,0 -0.01,-0.149 10e-4,-0.3 -0.006,-0.449 -0.004,-0.057 -0.03,-0.117 -0.083,-0.144 -0.081,-0.04 -0.186,-0.003 -0.227,0.076 -0.031,0.049 -0.024,0.109 -0.024,0.164 -0.001,0.114 10e-4,0.228 -0.001,0.342 -0.002,0.003 -0.005,0.007 -0.007,0.01 -0.039,10e-4 -0.078,-10e-4 -0.118,10e-4 -0.009,-0.05 -0.003,-0.101 -0.004,-0.151 -0.002,-0.183 0.004,-0.366 -0.005,-0.549 0.038,0 0.076,0 0.114,10e-4 0.002,0.038 0.004,0.076 0.007,0.115 0.037,-0.063 0.099,-0.111 0.171,-0.125" />
  <path
     style="fill:#141413;fill-opacity:1;fill-rule:nonzero;stroke:none;stroke-width:1.33333337"
     d="M 7.9628906 4.1445312 C 7.892224 4.1570313 7.8243385 4.1814167 7.7636719 4.21875 C 7.7770052 4.2560833 7.7900208 4.2946979 7.8046875 4.3320312 C 7.8780208 4.2853646 7.9641146 4.2617188 8.0507812 4.2617188 C 8.1067813 4.2630521 8.1703177 4.2769323 8.2089844 4.3222656 C 8.251651 4.3689323 8.2578125 4.4341406 8.2578125 4.4941406 C 8.1351458 4.4941406 8.0117708 4.5047344 7.8984375 4.5527344 C 7.8331042 4.5807344 7.7736615 4.6242135 7.7363281 4.6855469 C 7.6829948 4.7788802 7.681474 4.9048073 7.7441406 4.9941406 C 7.7948073 5.071474 7.8898021 5.1087552 7.9804688 5.1074219 C 8.0924688 5.1114219 8.2034844 5.0574635 8.2714844 4.9667969 C 8.2768177 5.0081302 8.281776 5.0498437 8.2871094 5.0898438 L 8.4414062 5.0898438 C 8.4200729 4.9431771 8.4271146 4.7951042 8.4257812 4.6484375 C 8.4244479 4.5364375 8.4380052 4.4178333 8.3886719 4.3125 C 8.3513385 4.2258333 8.2677813 4.1638177 8.1757812 4.1464844 C 8.1057812 4.1324844 8.0335573 4.1320312 7.9628906 4.1445312 z M 8.2597656 4.6132812 C 8.2584323 4.6772813 8.2638594 4.7406875 8.2558594 4.8046875 C 8.230526 4.9380208 8.0693125 5.0215573 7.9453125 4.9628906 C 7.8693125 4.924224 7.8534792 4.8227135 7.8828125 4.7480469 C 7.9041458 4.6973802 7.9512865 4.665151 8.0019531 4.6464844 C 8.0846198 4.6158177 8.173099 4.6132812 8.2597656 4.6132812 z "
     transform="scale(0.75)"
     id="path26062" />
  <path
     style="fill:#141413;fill-opacity:1;fill-rule:nonzero;stroke:none;stroke-width:1.33333337"
     d="M 11.539062 4.1386719 C 11.456729 4.1485052 11.376021 4.1755104 11.304688 4.2148438 C 11.315354 4.2535104 11.328464 4.2927448 11.341797 4.3300781 C 11.44713 4.2714115 11.579312 4.2365365 11.695312 4.2832031 C 11.776646 4.3178698 11.800255 4.4141406 11.794922 4.4941406 C 11.669589 4.4941406 11.538495 4.5052604 11.423828 4.5585938 C 11.354495 4.5905938 11.290432 4.6428437 11.259766 4.7148438 C 11.215766 4.8175104 11.22912 4.95125 11.314453 5.03125 C 11.394453 5.11125 11.52162 5.1230833 11.626953 5.09375 C 11.700286 5.0764167 11.7605 5.0273229 11.8125 4.9726562 C 11.815167 5.0126563 11.819411 5.0511771 11.830078 5.0898438 C 11.879411 5.0871771 11.927229 5.0898438 11.976562 5.0898438 C 11.952562 4.8818437 11.969557 4.6708906 11.962891 4.4628906 C 11.957557 4.3428906 11.900536 4.2146354 11.783203 4.1679688 C 11.705203 4.1373021 11.621396 4.1288385 11.539062 4.1386719 z M 11.800781 4.6132812 C 11.798115 4.6772813 11.804875 4.7387344 11.796875 4.8027344 C 11.771542 4.937401 11.606422 5.0228906 11.482422 4.9628906 C 11.379755 4.908224 11.383229 4.7423542 11.476562 4.6796875 C 11.569896 4.6143542 11.690115 4.6146146 11.800781 4.6132812 z "
     transform="scale(0.75)"
     id="path26066" />
  <path
     style="fill:#141413;fill-opacity:1;fill-rule:nonzero;stroke:none;stroke-width:1.33333337"
     d="M 16.910156 4.1367188 C 16.80849 4.1275521 16.70176 4.1548437 16.621094 4.2148438 C 16.49976 4.3041771 16.439547 4.4574687 16.435547 4.6054688 C 16.42888 4.7214688 16.454104 4.8428333 16.523438 4.9375 C 16.592771 5.0361667 16.708839 5.0934687 16.826172 5.1054688 C 16.954172 5.1161354 17.085792 5.1027813 17.203125 5.0507812 C 17.193792 5.0107812 17.183161 4.9696875 17.173828 4.9296875 C 17.039161 4.9776875 16.883333 5.0028333 16.75 4.9375 C 16.646 4.8855 16.59837 4.7649635 16.595703 4.6542969 C 16.815703 4.6529635 17.03524 4.6536771 17.253906 4.6523438 C 17.26724 4.5230104 17.247255 4.3840104 17.169922 4.2773438 C 17.109255 4.1913437 17.011823 4.1458854 16.910156 4.1367188 z M 16.851562 4.2578125 C 16.911229 4.2558125 16.971625 4.2750729 17.015625 4.3164062 C 17.071625 4.3724063 17.091083 4.4532969 17.09375 4.5292969 C 16.92975 4.5306302 16.764943 4.5306302 16.599609 4.5292969 C 16.608943 4.4546302 16.63674 4.3814583 16.691406 4.328125 C 16.73274 4.284125 16.791896 4.2598125 16.851562 4.2578125 z "
     transform="scale(0.75)"
     id="path26070" />
  <path
     inkscape:connector-curvature="0"
     id="path26074"
     style="fill:#141413;fill-opacity:1;fill-rule:nonzero;stroke:none"
     d="m 7.5252308,3.2330516 c 0.066,-0.123 0.238,-0.169 0.358,-0.097 0.084,0.048 0.119,0.151 0.12,0.244 0,0.145 10e-4,0.291 0,0.437 -0.042,-10e-4 -0.084,-10e-4 -0.127,0 -0.001,-0.139 0.001,-0.277 -0.001,-0.416 -0.002,-0.056 -0.014,-0.117 -0.056,-0.157 -0.064,-0.055 -0.169,-0.044 -0.226,0.016 -0.035,0.034 -0.055,0.083 -0.056,0.132 0,0.142 0.001,0.283 0,0.425 -0.042,-10e-4 -0.085,-10e-4 -0.127,0 -0.002,-0.143 0,-0.285 -0.001,-0.427 0,-0.09 0.003,-0.181 -0.007,-0.272 0.038,0 0.077,0 0.115,0 0.002,0.038 0.005,0.077 0.008,0.115" />
  <path
     style="fill:#141413;fill-opacity:1;fill-rule:nonzero;stroke:none;stroke-width:1.33333337"
     d="M 14.785156 4.1386719 C 14.693823 4.1263385 14.596911 4.1435 14.517578 4.1875 C 14.392245 4.2581667 14.316875 4.3951562 14.296875 4.5351562 C 14.276875 4.6778229 14.295339 4.837125 14.388672 4.953125 C 14.462005 5.045125 14.579312 5.0974687 14.695312 5.1054688 C 14.819313 5.1134688 14.943927 5.0987813 15.058594 5.0507812 L 15.03125 4.9316406 C 14.89525 4.9756406 14.736229 5.0035469 14.601562 4.9355469 C 14.498896 4.8822135 14.452411 4.7636302 14.455078 4.6542969 C 14.672411 4.6529635 14.888755 4.6536771 15.107422 4.6523438 C 15.122089 4.5203437 15.100865 4.3775313 15.019531 4.2695312 C 14.962865 4.1935312 14.87649 4.1510052 14.785156 4.1386719 z M 14.710938 4.2578125 C 14.769604 4.2564792 14.82776 4.2764062 14.871094 4.3164062 C 14.927094 4.3724063 14.945932 4.4539167 14.947266 4.53125 L 14.453125 4.53125 C 14.465125 4.4539167 14.493448 4.3769323 14.550781 4.3222656 C 14.592781 4.2809323 14.652271 4.2591458 14.710938 4.2578125 z "
     transform="scale(0.75)"
     id="path26078" />
  <path
     style="fill:#141413;fill-opacity:1;fill-rule:nonzero;stroke:none;stroke-width:1.33333337"
     d="M 22.132812 4.1425781 C 22.058979 4.1542448 21.987828 4.1800833 21.923828 4.21875 C 21.937161 4.2560833 21.950177 4.2946979 21.964844 4.3320312 C 22.03951 4.2866979 22.126224 4.2617188 22.212891 4.2617188 C 22.268891 4.2630521 22.330474 4.2782656 22.369141 4.3222656 C 22.410474 4.3689323 22.417969 4.4341406 22.417969 4.4941406 C 22.249969 4.495474 22.058927 4.5120052 21.933594 4.6386719 C 21.841594 4.7346719 21.830776 4.8972396 21.912109 5.0039062 C 21.968109 5.0785729 22.06425 5.1127552 22.15625 5.1074219 C 22.262917 5.1074219 22.366307 5.05275 22.431641 4.96875 L 22.447266 5.0878906 L 22.599609 5.0878906 C 22.578276 4.9518906 22.587271 4.8131146 22.585938 4.6757812 C 22.581937 4.5597812 22.598688 4.4407448 22.554688 4.3300781 C 22.524021 4.2420781 22.447469 4.1736771 22.355469 4.1523438 C 22.282802 4.1350104 22.206646 4.1309115 22.132812 4.1425781 z M 22.419922 4.6113281 C 22.414589 4.6966615 22.439245 4.7911875 22.392578 4.8671875 C 22.337911 4.9671875 22.200943 5.0123177 22.099609 4.9589844 C 22.000943 4.9003177 22.006896 4.7377344 22.101562 4.6777344 C 22.194896 4.616401 22.311922 4.6126615 22.419922 4.6113281 z "
     transform="scale(0.75)"
     id="path26082" />
  <path
     inkscape:connector-curvature="0"
     id="path26086"
     style="fill:#141413;fill-opacity:1;fill-rule:nonzero;stroke:none"
     d="m 3.0827309,3.1180516 c 0.043,0 0.085,-10e-4 0.128,0.001 -0.001,0.232 0,0.465 -0.001,0.697 -0.042,10e-4 -0.084,10e-4 -0.126,0 -0.002,-0.232 -10e-4,-0.465 -10e-4,-0.698" />
  <path
     inkscape:connector-curvature="0"
     id="path26090"
     style="fill:#141413;fill-opacity:1;fill-rule:nonzero;stroke:none"
     d="m 13.283731,3.1182516 c 0.046,-10e-4 0.091,0 0.137,0 0.065,0.19 0.137,0.379 0.195,0.572 0.06,-0.193 0.131,-0.381 0.195,-0.572 0.045,-10e-4 0.089,-10e-4 0.134,0 -0.09,0.233 -0.182,0.465 -0.274,0.698 -0.04,0 -0.08,0 -0.12,10e-4 -0.091,-0.233 -0.177,-0.467 -0.267,-0.699" />
  <path
     inkscape:connector-curvature="0"
     id="path26094"
     style="fill:#141413;fill-opacity:1;fill-rule:nonzero;stroke:none"
     d="m 14.339731,3.1181516 c 0.043,0 0.085,-10e-4 0.128,0 0,0.233 0,0.466 0,0.698 -0.043,0 -0.085,0 -0.127,0 -0.002,-0.232 -10e-4,-0.465 -10e-4,-0.698" />
  <path
     inkscape:connector-curvature="0"
     id="path26098"
     style="fill:#141413;fill-opacity:1;fill-rule:nonzero;stroke:none"
     d="m 14.896431,3.1181516 c 0.177,-10e-4 0.355,0 0.532,0 -0.003,0.035 0.01,0.077 -0.019,0.104 -0.129,0.163 -0.249,0.333 -0.383,0.491 0.136,0.002 0.272,0 0.408,10e-4 0,0.034 0,0.068 0,0.103 -0.188,0 -0.376,-10e-4 -0.563,0 -0.004,-0.031 -0.014,-0.068 0.01,-0.094 0.131,-0.167 0.255,-0.339 0.391,-0.502 -0.125,0.002 -0.25,0.001 -0.375,0.001 -10e-4,-0.035 -10e-4,-0.069 -10e-4,-0.104" />
  <path
     inkscape:connector-curvature="0"
     id="path26102"
     style="fill:#141413;fill-opacity:1;fill-rule:nonzero;stroke:none"
     d="m 15.837831,3.1179516 c 0.042,0 0.085,0 0.128,0 -10e-4,0.233 0,0.466 -10e-4,0.699 -0.042,0 -0.084,0 -0.127,0 -10e-4,-0.233 0,-0.466 0,-0.699" />
</svg>
