<svg height="4.118252pt" viewBox="0 0 17.236834 4.1182518" width="17.236834pt" xmlns="http://www.w3.org/2000/svg"><path d="m12.210331.00215169c.144-.004.289-.001.433-.002.108-.001.216.056.274.148.064.098.066.23199999.006.33299999-.055.095-.161.15699999-.271.15699999-.138.001-.275 0-.413.001-.069 0-.138-.023-.193-.065-.097-.072-.146-.20199999-.12-.31999999.027-.13399999.148-.24099999.284-.25199999" fill="#e4282d"/><path d="m7.0917308.01665169c.151-.045.325.043.38.18999999.056.133.005.299-.115.37899999-.108.078-.266.075-.372-.006-.106-.077-.154-.22399999-.114-.34999999.031-.10199999.118-.18499999.221-.21299999" fill="#34abdd"/><path d="m8.0364308.30545168c.006-.157.144-.29499999.302-.29999999.166-.012.325.127.334.29399999.003.152 0 .30399999.001.45599999.069.001.14-.007.205.02.134.048.223.19499999.203.33600003-.013.119-.1.2249999-.214.2619999-.062.022-.129.015-.193.018.001.313 0 .626 0 .939.004.102-.044.203-.126.264-.099.077-.247.085-.355.02-.092-.054-.153-.156-.156-.262-.001-.321 0-.642-.001-.962-.09.002-.187.003-.264-.051-.132-.079-.186-.2609999-.119-.39899994.046-.102.149-.17599999.261-.18399999.04-.002.081 0 .121-.001.001-.15-.001-.29999999.001-.44999999" fill="#34abdd"/><path d="m10.896831.01445169c.151-.041.322.05.374.19699999.052.133.001.297-.119.37599999-.103.072-.25.073-.354.003-.107-.067-.164-.20299999-.139-.32699999.022-.11999999.119-.22099999.238-.24899999" fill="#34abdd"/><path d="m13.505831.01705169c.105-.031.226 0 .304.077.064.059.1.14599999.099.23299999.001.36399999 0 .72900002.001 1.09299992.161-.1619999.324-.3229999.485-.48499994.036-.035.071-.072.108-.10599999.082-.069.2-.091.302-.056.115.037.203.14499999.216.26500003.013.098-.025.199-.096.268-.134.1339999-.268.2689999-.403.4029999.138.141.28.279.419.421.102.109.11.29.017.407-.056.074-.145.12-.237.125-.088.004-.178-.029-.24-.092-.191-.191-.381-.381-.571-.571-.002.121.001.243-.001.364-.005.169-.165.311-.333.299-.161-.005-.303-.148-.303-.309 0-.679 0-1.35799994 0-2.03699992.001-.13599999.101-.26399999.233-.29899999" fill="#34abdd"/><path d="m .03553104.20475168c.052-.103.164-.17099999.27899999-.17099999.45899999-.002.91799997-.002 1.37799997 0 .088-.001.175.03699999.234.10199999.077.08.104.203.07.30899999-.038.127-.161.22-.294.223-.116.001-.232 0-.348 0v1.67299993c.001.072-.02.145-.064.203-.071.096-.201.147-.31799999.121-.14499999-.027-.25799999-.165-.25599999-.312-.002-.563-.001-1.126-.001-1.68899993-.138-.001-.27499999.008-.41299999.004-.097-.004-.18999999-.056-.24499999-.137-.067-.094-.077-.22399999-.022-.32599999" fill="#e4282d"/><path d="m2.218731.25985168c.036-.086.103-.166.196-.19199999.071-.021.148-.001.208.03899999.069.049.12.12.152.198.131.32399999.262.64899998.392.97299992.012.031.025.062.04.092.151-.3569999.3-.71399993.451-1.07099992.04-.09.106-.173.198-.21099999.066-.029.1449999-.026.2069999.01.076.04.125.116.154.195.033.092.041.19299999.023.28999999-.012.084-.05.16-.082.23799999-.223.52899994-.4459999 1.05799994-.6679999 1.58799994-.029.085-.076.17-.156.217-.068.043-.157.045-.228.01-.093-.038-.151-.126-.189-.214-.231-.571-.462-1.143-.693-1.71399993-.058-.141-.064-.30599999-.005-.44799999" fill="#e4282d"/><path d="m12.391531.75515167c.14-.003.281-.001.421-.001.147-.001.282.118.305.26300003.022.118-.031.245-.129.314-.054.039-.121.059-.187.059-.124 0-.247 0-.371 0-.05-.001-.101.001-.148.019-.121.044-.208.1669999-.207.2959999-.002.124.076.245.19.293.055.025.116.029.175.028.124 0 .248-.001.372 0 .139 0 .268.106.3.241.033.123-.019.263-.124.336-.06.043-.135.062-.208.059-.156-.003-.312.007-.468-.008-.248-.019-.486-.143-.646-.334-.192-.223-.268-.54-.2-.826.063-.2819999.264-.52899994.526-.64899993.125-.059.262-.085.399-.09" fill="#34abdd"/><path d="m16.044433.75292965c-.075-.002003-.149656.00597-.222656.0219727-.279999.0590002-.526855.25469525-.651855.51269535-.109.2199999-.127805.4837734-.04981.7177735.064.198.196676.3727227.367676.4907226.154.106.338879.1645274.525878.1655274.286001.0009974.572399.0004648.858399.00146.069-.002.141149-.010875.202149-.046875.101-.057.161598-.1706445.162597-.2856445-.009-.092-.04952-.1832344-.124512-.2402344-.055-.045-.126288-.065312-.196288-.070312-.000001-.321.000535-.6414024-.0015-.9624024-.003-.15700003-.138898-.2982227-.295898-.30322265-.192-.0009975-.383219-.00046485-.574219-.001463zm-.03076.63720705c.088-.0009975.175672 0 .263672 0 .000975.211.0035.4237422-.0015.6357422-.084 0-.167954.0009975-.251954 0-.09696-.0009975-.19245-.046047-.250449-.1230468-.083-.1030001-.08911-.2601407-.01611-.3691407.055-.085.153348-.1415547.256347-.1435547z" fill="#34abdd"/><path d="m4.9826309.76765167c.101-.029.215-.002.294.067.013.018.033.007.049 0 .21-.092.454-.105.672-.034.163.052.311.14899999.424.27800003.152.171.2369999.3989999.2359999.6269999.001.212 0 .424 0 .636.001.112-.063.223-.1629999.276-.114.066-.268.05-.366-.038-.068-.06-.109-.149-.107-.239-.001-.212 0-.424-.001-.636 0-.11-.061-.217-.157-.2719999-.116-.071-.277-.053-.376.041-.067.061-.105.151-.102.242v.636c-.003.128-.092.248-.213.289-.09.031-.193.021-.274-.03-.091-.056-.151-.161-.15-.269 0-.424 0-.849 0-1.2729999-.001-.13800003.101-.26700003.234-.30100003" fill="#34abdd"/><path d="m7.0818308.77025167c.133-.043.289.015.363.134.033.052.05.11300003.049.17500003v1.1879999c0 .05.004.1-.009.149-.02.082-.073.155-.146.197-.097.059-.226.06-.324.002-.095-.055-.159-.163-.157-.273 0-.425 0-.849 0-1.2739999-.001-.13400003.096-.26000003.224-.29800003" fill="#34abdd"/><path d="m9.4658308.76775167c.107-.031.228.001.307.079.142-.061.2970002-.1.4520002-.088.124.013.234.107.268.22599999.033.10900004.002.23400004-.08.31400004-.061.064-.151.098-.24.095-.148 0-.2880002.1199999-.3030002.2689999-.002.229 0 .459-.001.689-.003.109-.066.214-.162.266-.114.066-.269.05-.367-.038-.067-.059-.108-.148-.108-.238 0-.424 0-.849.001-1.2729999-.001-.13800003.1-.26700003.233-.30100003" fill="#34abdd"/><path d="m10.886331.76805167c.131-.039.282.019.354.135.032.049.05.10800003.05.16600003v1.2729999c.001.112-.064.223-.163.276-.114.066-.269.049-.366-.039-.067-.059-.108-.148-.107-.237-.001-.407 0-.813-.001-1.2199999-.001-.058.001-.118.026-.17300004.037-.087.115-.15599999.207-.18099999" fill="#34abdd"/><g fill="#fff"><path d="m6.7963308 2.7934516h.127c.001.341.001.682 0 1.023-.042 0-.084 0-.127 0-.001-.341 0-.682 0-1.023"/><path d="m11.765331 2.7935516h.128c0 .341 0 .682-.001 1.023-.042 0-.084 0-.126 0-.003-.341 0-.682-.001-1.023"/><path d="m5.9922309 3.0235516c.042-.069.084-.139.129-.207h.139c-.057.071-.117.138-.175.207-.031 0-.062 0-.093 0"/><path d="m14.456831 2.8210516c.044-.01.093-.002.139-.004-.055.071-.116.138-.173.206-.031.001-.062.001-.093 0 .043-.066.081-.137.127-.202"/><path d="m3.1139309 2.8486516c.051-.023.116.019.11.076.005.062-.076.098-.124.065-.052-.031-.044-.121.014-.141"/><path d="m15.866731 2.8495516c.051-.025.118.017.112.075.006.065-.083.101-.13.06-.045-.035-.034-.113.018-.135"/><path d="m10.057331 2.9506516c.041-.012.082-.023.123-.034.001.067 0 .134.001.201.061.001.122-.002.183.001-.003.032-.003.064-.002.096-.06.001-.121 0-.181.001 0 .125-.001.251 0 .376.002.042.004.092.041.12.038.024.085.012.127.008.003.032.006.064.006.096-.074.019-.163.029-.23-.019-.053-.039-.067-.109-.067-.172-.002-.136 0-.273-.001-.409-.036-.001-.073-.001-.109-.001 0-.032 0-.064 0-.096.036-.001.072-.001.109-.001 0-.056 0-.111 0-.167"/><path d="m .49153102 3.1344516c.041-.027.095-.043.143-.026-.001.039-.001.078 0 .117-.041-.003-.084-.006-.12.016-.069.036-.098.119-.1.193-.001.127 0 .255-.001.382-.042 0-.084 0-.12499999 0-.003-.233.003-.466-.005-.698.037-.001.074-.001.10999999 0 .002.046.003.093.004.14.022-.047.049-.095.094-.124"/><path d="m1.7265625 4.1347656c-.0771667-.0001666-.1547031.0199271-.2207031.0585938-.1186667.072-.1896042.2032239-.2109375.3378906-.0186667.1346667-.0044479.2824375.0742187.3984375.0693334.1026667.1872604.1637812.3085938.1757813.128.0106666.2602396-.0053542.3789062-.0546876-.0093333-.04-.0193437-.0797604-.0273437-.1210937-.1373334.044-.2963542.0771458-.4296875.0078125-.104-.052-.1497709-.1725365-.1484375-.2832031.2186666-.0013334.4356302-.0006198.6542969-.0019531.02-.1626667-.0221094-.3517917-.1621094-.453125-.064-.0433334-.1396302-.0642865-.2167969-.0644532zm-.0195313.1230469c.0583334-.0015.116823.0185937.1601563.0585937.0573333.0546667.0767917.1375105.078125.2148438-.164 0-.3301406.0013333-.4941406 0 .012-.076.0403229-.1543177.0976562-.2089844.042-.0406666.0998698-.0629531.1582031-.0644531z" transform="scale(.75)"/><path d="m2.953125 4.1445312c-.0653333.0148334-.1277344.0464636-.1777344.0917969-.112.0986667-.1608698.2511511-.1582031.3964844-.0013333.1413333.0552552.2883333.1699219.375.156.124.4167708.0959219.5234375-.0800781-.0013334.0866666.0066094.1764791-.0253907.2578125-.0266666.0826666-.1034999.1441562-.1875.1601562-.1226666.02-.2507552-.0017864-.3574218-.0644531-.016.044-.0296354.0868594-.0429688.1308594.0933334.0533333.2019271.074125.3085938.078125.1306666-.0026667.2726146-.0373386.3632812-.1386719.088-.0986667.1047552-.2372344.1074219-.3652344.0026667-.276-.0041875-.552125.0078125-.828125h-.1484375c-.0013333.0453334-.007099.0920052-.0097656.1386719-.0386667-.0666667-.0991615-.1218646-.1738281-.1445312-.0646667-.0206667-.1338855-.0226459-.1992188-.0078126zm.046875.1328126c.064-.0160001.1340729-.007323.1914062.0273437.0773334.048.1225209.1411354.1171876.2304687-.0040001.0973334.0168437.2049688-.0351563.2929688-.0453333.0853333-.1442344.1356667-.2402344.125-.0866666-.0053333-.1638385-.0632917-.2011719-.140625-.0533333-.1093333-.0562447-.2408021-.0175781-.3554688.0293334-.084.0975469-.1583541.1855469-.1796874z" transform="scale(.75)"/><path d="m5.2617188 4.1386719c-.1333334.0133333-.2607448.087125-.3300782.203125-.0706666.116-.0890729.2592448-.0664062.3925781.0186666.1146667.0797812.2249687.1757812.2929688.1853334.132.4685677.0984947.6152344-.0761719.096-.1146667.1228021-.2726354.1054688-.4179688-.0133334-.1026666-.0568125-.2040104-.1328126-.2773437-.0946666-.0946667-.2351874-.1318542-.3671874-.1171875zm.015625.1289062c.0813333-.012.1693229.0154584.2226562.078125.068.0786667.0938438.1844427.0898438.2871094.0013333.1066667-.036474.2183958-.1191407.2890625-.0733333.0626667-.186151.07525-.2714843.03125-.0933334-.048-.1461094-.1480469-.1621094-.2480469-.0173334-.1106666-.0040729-.2295521.0585937-.3242187.04-.0613334.1083073-.1052813.1816407-.1132813z" transform="scale(.75)"/><path d="m5.0416309 3.1085516c.095-.024.206.012.26.097.058.089.049.2.049.302-.002.103.006.207-.004.31-.041-.001-.081-.001-.122 0-.01-.149.001-.3-.006-.449-.004-.057-.03-.117-.083-.144-.081-.04-.186-.003-.227.076-.031.049-.024.109-.024.164-.001.114.001.228-.001.342-.002.003-.005.007-.007.01-.039.001-.078-.001-.118.001-.009-.05-.003-.101-.004-.151-.002-.183.004-.366-.005-.549.038 0 .076 0 .114.001.002.038.004.076.007.115.037-.063.099-.111.171-.125"/><path d="m7.9628906 4.1445312c-.0706666.0125001-.1385521.0368855-.1992187.0742188.0133333.0373333.0263489.0759479.0410156.1132812.0733333-.0466666.1594271-.0703124.2460937-.0703124.0560001.0013333.1195365.0152135.1582032.0605468.0426666.0466667.0488281.111875.0488281.171875-.1226667 0-.2460417.0105938-.359375.0585938-.0653333.028-.124776.0714791-.1621094.1328125-.0533333.0933333-.0548541.2192604.0078125.3085937.0506667.0773334.1456615.1146146.2363282.1132813.112.004.2230156-.0499584.2910156-.140625.0053333.0413333.0102916.0830468.015625.1230469h.1542968c-.0213333-.1466667-.0142916-.2947396-.015625-.4414063-.0013333-.112.012224-.2306042-.0371093-.3359375-.0373334-.0866667-.1208906-.1486823-.2128907-.1660156-.07-.014-.1422239-.0144532-.2128906-.0019532zm.296875.46875c-.0013333.0640001.0040938.1274063-.0039062.1914063-.0253334.1333333-.1865469.2168698-.3105469.1582031-.076-.0386666-.0918333-.1401771-.0625-.2148437.0213333-.0506667.068474-.0828959.1191406-.1015625.0826667-.0306667.1711459-.0332032.2578125-.0332032z" transform="scale(.75)"/><path d="m11.539062 4.1386719c-.082333.0098333-.163041.0368385-.234374.0761719.010666.0386666.023776.077901.037109.1152343.105333-.0586666.237515-.0935416.353515-.046875.081334.0346667.104943.1309375.09961.2109375-.125333 0-.256427.0111198-.371094.0644532-.069333.032-.133396.0842499-.164062.15625-.044.1026666-.030646.2364062.054687.3164062.08.08.207167.0918333.3125.0625.073333-.0173333.133547-.0664271.185547-.1210938.002667.0400001.006911.0785209.017578.1171876.049333-.0026667.097151 0 .146484 0-.024-.2080001-.007005-.4189532-.013671-.6269532-.005334-.12-.062355-.2482552-.179688-.2949218-.078-.0306667-.161807-.0391303-.244141-.0292969zm.261719.4746093c-.002666.0640001.004094.1254532-.003906.1894532-.025333.1346666-.190453.2201562-.314453.1601562-.102667-.0546666-.099193-.2205364-.00586-.2832031.093334-.0653333.213553-.0650729.324219-.0664063z" transform="scale(.75)"/><path d="m16.910156 4.1367188c-.101666-.0091667-.208396.0181249-.289062.078125-.121334.0893333-.181547.2426249-.185547.390625-.006667.116.018557.2373645.087891.3320312.069333.0986667.185401.1559687.302734.1679688.128.0106666.25962-.0026875.376953-.0546876-.009333-.04-.019964-.0810937-.029297-.1210937-.134667.048-.290495.0731458-.423828.0078125-.104-.052-.15163-.1725365-.154297-.2832031.22-.0013334.439537-.0006198.658203-.0019531.013334-.1293334-.006651-.2683334-.083984-.375-.060667-.0860001-.158099-.1314584-.259766-.140625zm-.058594.1210937c.059667-.002.120063.0172604.164063.0585937.056.0560001.075458.1368907.078125.2128907-.164.0013333-.328807.0013333-.494141 0 .009334-.0746667.037131-.1478386.091797-.2011719.041334-.044.10049-.0683125.160156-.0703125z" transform="scale(.75)"/><path d="m7.5252308 3.2330516c.066-.123.238-.169.358-.097.084.048.119.151.12.244 0 .145.001.291 0 .437-.042-.001-.084-.001-.127 0-.001-.139.001-.277-.001-.416-.002-.056-.014-.117-.056-.157-.064-.055-.169-.044-.226.016-.035.034-.055.083-.056.132 0 .142.001.283 0 .425-.042-.001-.085-.001-.127 0-.002-.143 0-.285-.001-.427 0-.09.003-.181-.007-.272h.115c.002.038.005.077.008.115"/><path d="m14.785156 4.1386719c-.091333-.0123334-.188245.0048281-.267578.0488281-.125333.0706667-.200703.2076562-.220703.3476562-.02.1426667-.001536.3019688.091797.4179688.073333.092.19064.1443437.30664.1523438.124001.008.248615-.0066875.363282-.0546876l-.027344-.1191406c-.136.044-.295021.0719063-.429688.0039063-.102666-.0533334-.149151-.1719167-.146484-.28125.217333-.0013334.433677-.0006198.652344-.0019531.014667-.1320001-.006557-.2748125-.087891-.3828126-.056666-.076-.143041-.118526-.234375-.1308593zm-.074218.1191406c.058666-.0013333.116822.0185937.160156.0585937.056.0560001.074838.1375105.076172.2148438h-.494141c.012-.0773333.040323-.1543177.097656-.2089844.042-.0413333.10149-.0631198.160157-.0644531z" transform="scale(.75)"/><path d="m22.132812 4.1425781c-.073833.0116667-.144984.0375052-.208984.0761719.013333.0373333.026349.0759479.041016.1132812.074666-.0453333.16138-.0703124.248047-.0703124.056.0013333.117583.0165468.15625.0605468.041333.0466667.048828.111875.048828.171875-.168.0013334-.359042.0178646-.484375.1445313-.092.096-.102818.2585677-.021485.3652343.056.0746667.152141.108849.244141.1035157.106667 0 .210057-.0546719.275391-.1386719l.015625.1191406h.152343c-.021333-.136-.012338-.274776-.013671-.4121094-.004001-.116.01275-.2350364-.03125-.3457031-.030667-.088-.107219-.156401-.199219-.1777343-.072667-.0173334-.148823-.0214323-.222657-.0097657zm.28711.46875c-.005333.0853334.019323.1798594-.027344.2558594-.054667.1-.191635.1451302-.292969.0917969-.098666-.0586667-.092713-.22125.001953-.28125.093334-.0613334.21036-.0650729.31836-.0664063z" transform="scale(.75)"/><path d="m3.0827309 3.1180516c.043 0 .085-.001.128.001-.001.232 0 .465-.001.697-.042.001-.084.001-.126 0-.002-.232-.001-.465-.001-.698"/><path d="m13.283731 3.1182516c.046-.001.091 0 .137 0 .065.19.137.379.195.572.06-.193.131-.381.195-.572.045-.001.089-.001.134 0-.09.233-.182.465-.274.698-.04 0-.08 0-.12.001-.091-.233-.177-.467-.267-.699"/><path d="m14.339731 3.1181516c.043 0 .085-.001.128 0v .698c-.043 0-.085 0-.127 0-.002-.232-.001-.465-.001-.698"/><path d="m14.896431 3.1181516c.177-.001.355 0 .532 0-.003.035.01.077-.019.104-.129.163-.249.333-.383.491.136.002.272 0 .408.001v.103c-.188 0-.376-.001-.563 0-.004-.031-.014-.068.01-.094.131-.167.255-.339.391-.502-.125.002-.25.001-.375.001-.001-.035-.001-.069-.001-.104"/><path d="m15.837831 3.1179516h.128c-.001.233 0 .466-.001.699-.042 0-.084 0-.127 0-.001-.233 0-.466 0-.699"/></g></svg>