<?xml version="1.0" encoding="UTF-8" standalone="no"?>
<!-- Created with Inkscape (http://www.inkscape.org/) -->

<svg
   xmlns:dc="http://purl.org/dc/elements/1.1/"
   xmlns:cc="http://creativecommons.org/ns#"
   xmlns:rdf="http://www.w3.org/1999/02/22-rdf-syntax-ns#"
   xmlns:svg="http://www.w3.org/2000/svg"
   xmlns="http://www.w3.org/2000/svg"
   xmlns:sodipodi="http://sodipodi.sourceforge.net/DTD/sodipodi-0.dtd"
   xmlns:inkscape="http://www.inkscape.org/namespaces/inkscape"
   width="2.5516417mm"
   height="2.8916841mm"
   viewBox="0 0 2.5516417 2.8916841"
   version="1.1"
   id="svg53551"
   inkscape:version="0.92.0 r15299"
   sodipodi:docname="TV Puchov.svg">
  <defs
     id="defs53545">
    <clipPath
       clipPathUnits="userSpaceOnUse"
       id="clipPath19406">
      <path
         d="m 376.193,492.08 h 7.335 v 8.248 h -7.335 z"
         id="path19404"
         inkscape:connector-curvature="0" />
    </clipPath>
  </defs>
  <sodipodi:namedview
     id="base"
     pagecolor="#ffffff"
     bordercolor="#666666"
     borderopacity="1.0"
     inkscape:pageopacity="0.0"
     inkscape:pageshadow="2"
     inkscape:zoom="45.254834"
     inkscape:cx="3.3980025"
     inkscape:cy="7.328355"
     inkscape:document-units="mm"
     inkscape:current-layer="layer1"
     showgrid="false"
     fit-margin-top="0"
     fit-margin-left="0"
     fit-margin-right="0"
     fit-margin-bottom="0"
     inkscape:window-width="1920"
     inkscape:window-height="1017"
     inkscape:window-x="-8"
     inkscape:window-y="-8"
     inkscape:window-maximized="1" />
  <metadata
     id="metadata53548">
    <rdf:RDF>
      <cc:Work
         rdf:about="">
        <dc:format>image/svg+xml</dc:format>
        <dc:type
           rdf:resource="http://purl.org/dc/dcmitype/StillImage" />
        <dc:title></dc:title>
      </cc:Work>
    </rdf:RDF>
  </metadata>
  <g
     inkscape:label="Layer 1"
     inkscape:groupmode="layer"
     id="layer1"
     transform="translate(-96.242037,-58.185109)">
    <path
       inkscape:connector-curvature="0"
       id="path19410"
       style="fill:#009ee0;fill-opacity:1;fill-rule:evenodd;stroke:none;stroke-width:0.35277778"
       d="m 98.567371,58.186696 c 0.124178,0 0.224719,0.09419 0.224719,0.209903 v 2.128661 c 0,0.116064 -0.100541,0.209903 -0.224719,0.209903 h -2.098675 c -0.124178,0 -0.225072,-0.09384 -0.225072,-0.209903 v -2.128661 c 0,-0.115711 0.100894,-0.209903 0.225072,-0.209903 z" />
    <path
       inkscape:connector-curvature="0"
       id="path19414"
       style="fill:#009ee0;stroke:#009ee0;stroke-width:0.003175;stroke-linecap:butt;stroke-linejoin:miter;stroke-miterlimit:2.41400003;stroke-dasharray:none;stroke-opacity:1;fill-opacity:1"
       d="m 98.567371,58.186696 c 0.124178,0 0.224719,0.09419 0.224719,0.209903 v 2.128661 c 0,0.116064 -0.100541,0.209903 -0.224719,0.209903 h -2.098675 c -0.124178,0 -0.225072,-0.09384 -0.225072,-0.209903 v -2.128661 c 0,-0.115711 0.100894,-0.209903 0.225072,-0.209903 z" />
    <path
       inkscape:connector-curvature="0"
       id="path19418"
       style="fill:#ffffff;fill-opacity:1;fill-rule:evenodd;stroke:none;stroke-width:0.35277778"
       d="m 96.493532,58.217317 h 2.048933 c 0.12065,0 0.219075,0.09137 0.219075,0.202847 v 2.081742 c 0,0.111478 -0.09842,0.202847 -0.219075,0.202847 h -2.048933 c -0.12065,0 -0.219075,-0.09137 -0.219075,-0.202847 v -2.081742 c 0,-0.111478 0.09843,-0.202847 0.219075,-0.202847" />
    <path
       inkscape:connector-curvature="0"
       id="path19422"
       style="fill:#ffffff;stroke:#009ee0;stroke-width:0.003175;stroke-linecap:butt;stroke-linejoin:miter;stroke-miterlimit:2.41400003;stroke-dasharray:none;stroke-opacity:1;fill-opacity:1"
       d="m 96.493532,58.217317 h 2.048933 c 0.12065,0 0.219075,0.09137 0.219075,0.202847 v 2.081742 c 0,0.111478 -0.09842,0.202847 -0.219075,0.202847 h -2.048933 c -0.12065,0 -0.219075,-0.09137 -0.219075,-0.202847 v -2.081742 c 0,-0.111478 0.09843,-0.202847 0.219075,-0.202847 z" />
    <path
       d="m 96.857846,58.304947 h 1.120069 v 2.321631 h -1.120069 z"
       style="fill:#009ee0;fill-opacity:1;fill-rule:evenodd;stroke:none;stroke-width:0.35277778"
       id="path19424"
       inkscape:connector-curvature="0" />
    <path
       inkscape:connector-curvature="0"
       id="path19428"
       style="fill:#162983;fill-opacity:1;fill-rule:evenodd;stroke:none;stroke-width:0.35277778"
       d="m 96.354502,58.851859 2.236258,-0.283281 -0.05186,1.476728 c -0.149578,-0.202141 -0.300567,-0.287866 -0.561975,-0.351366 0.06703,0.472722 -0.517878,0.480483 -0.511528,0.09701 0,-0.02046 0.0021,-0.04057 0.0067,-0.05962 -0.06315,0.105833 -0.08502,0.248003 -0.03951,0.358422 0.05327,0.128764 0.184855,0.194381 0.337608,0.226131 -0.240241,0.02858 -0.46743,-0.07197 -0.543983,-0.256822 -0.04374,-0.105128 -0.04621,-0.209198 0.0099,-0.31115 -0.269875,0.08361 -0.352425,0.288572 -0.386998,0.468841 z" />
    <path
       inkscape:connector-curvature="0"
       id="path19432"
       style="fill:#ffffff;fill-opacity:1;fill-rule:evenodd;stroke:none;stroke-width:0.35277778"
       d="m 97.745787,59.617069 c 0.04233,0 0.07726,0.03457 0.07726,0.07726 0,0.04233 -0.03492,0.07691 -0.07726,0.07691 -0.04233,0 -0.07726,-0.03457 -0.07726,-0.07691 0,-0.04269 0.03492,-0.07726 0.07726,-0.07726" />
    <path
       inkscape:connector-curvature="0"
       id="path19436"
       style="fill:#ffffff;fill-opacity:1;fill-rule:evenodd;stroke:none;stroke-width:0.35277778"
       d="M 98.036688,59.445442 97.89981,59.003411 h -0.05045 v -0.06279 h 0.160867 v 0.06279 h -0.04727 l 0.10407,0.335492 0.101247,-0.335492 h -0.04762 v -0.06279 h 0.156633 v 0.06279 h -0.04974 l -0.134056,0.442031 z m -0.388761,-0.06773 v -0.374298 h -0.08431 v 0.127353 h -0.05045 V 58.94062 h 0.330553 v 0.190147 h -0.05045 v -0.127353 h -0.08361 v 0.374298 h 0.05292 v 0.06279 h -0.166864 v -0.06279 z m -0.352778,-0.330906 0.04127,-0.113947 h 0.08114 l -0.08467,0.113947 z m 0.205317,0.333022 v 0.06068 h -0.104775 v -0.03986 c -0.03246,0.03034 -0.06385,0.04551 -0.09384,0.04551 -0.01905,0 -0.03457,-0.0053 -0.04692,-0.01517 -0.01235,-0.01023 -0.02081,-0.02328 -0.02505,-0.03951 -0.0039,-0.01623 -0.006,-0.04233 -0.006,-0.07832 V 59.15335 h -0.04022 v -0.06068 h 0.09596 v 0.21202 c 0,0.02575 7.05e-4,0.04269 0.0018,0.0515 0.0011,0.0092 0.0046,0.01623 0.01023,0.02187 0.0056,0.006 0.0127,0.0088 0.02152,0.0088 0.02575,0 0.05327,-0.01517 0.08255,-0.04516 v -0.188383 h -0.05009 v -0.06068 h 0.105834 v 0.287161 z m -0.551392,-0.190852 h 0.03528 c 0.03986,0 0.06773,-0.0071 0.08325,-0.02117 0.01517,-0.01376 0.02293,-0.03845 0.02293,-0.07408 0,-0.02258 -0.0039,-0.04127 -0.01235,-0.05609 -0.0081,-0.01482 -0.01835,-0.02434 -0.03034,-0.02822 -0.01235,-0.0042 -0.03246,-0.006 -0.06068,-0.006 h -0.0381 z m -0.06174,0.188736 v -0.374298 h -0.05115 v -0.06279 h 0.145697 c 0.04269,0 0.07479,0.0039 0.09596,0.01129 0.02152,0.0074 0.03916,0.02399 0.05362,0.05045 0.01446,0.02611 0.02152,0.05715 0.02152,0.09278 0,0.02857 -0.0046,0.05398 -0.01411,0.0769 -0.0095,0.02258 -0.02117,0.03916 -0.03528,0.05009 -0.01376,0.01058 -0.02963,0.01799 -0.04727,0.02152 -0.01729,0.0039 -0.04375,0.0056 -0.07937,0.0056 h -0.02787 v 0.128411 h 0.05256 v 0.06279 h -0.165453 v -0.06279 z" />
    <path
       inkscape:connector-curvature="0"
       id="path19440"
       style="fill:#ffffff;fill-opacity:1;fill-rule:evenodd;stroke:none;stroke-width:0.35277778"
       d="m 98.719912,60.972018 -0.02011,-0.09066 h -0.0021 l -0.02081,0.09066 z m 0.0056,0.0254 h -0.05433 l -0.01199,0.04904 h 0.0187 v 0.02681 h -0.05997 v -0.02681 h 0.01834 l 0.04163,-0.1651 h -0.0187 v -0.02434 h 0.07761 v 0.02434 h -0.0187 l 0.04233,0.1651 h 0.01693 v 0.02681 h -0.05927 v -0.02681 h 0.0187 z m -0.152047,0.04904 V 60.88418 h -0.01658 v -0.02716 h 0.05574 v 0.02716 h -0.01658 v 0.162278 h 0.01658 v 0.02681 h -0.05574 v -0.02681 z m -0.143933,0.02681 v -0.02681 l 0.08149,-0.162278 h -0.05891 v 0.0381 h -0.0187 v -0.06526 h 0.106539 v 0.02399 l -0.08255,0.165453 h 0.06632 v -0.04198 h 0.0187 v 0.06879 z m -0.05609,-0.228953 0.01552,-0.04939 h 0.02999 l -0.0314,0.04939 z m 0.0042,0.202142 v -0.162278 h -0.01658 v -0.02716 h 0.05574 v 0.02716 h -0.01623 v 0.162278 h 0.01623 v 0.02681 h -0.05574 v -0.02681 z m -0.112537,0.02928 -0.0508,-0.191559 h -0.0187 v -0.02716 h 0.05962 v 0.02716 h -0.01729 l 0.03845,0.145345 0.03775,-0.145345 h -0.01764 v -0.02716 h 0.05821 v 0.02716 h -0.01834 l -0.05009,0.191559 z m -0.183091,-0.02928 v -0.162278 h -0.01976 v -0.02716 h 0.126295 v 0.06526 h -0.0187 v -0.0381 h -0.06491 v 0.06421 h 0.05645 v 0.02716 h -0.05645 v 0.07091 h 0.06491 v -0.03951 h 0.0187 v 0.06632 h -0.126295 v -0.02681 z m -0.119239,0 v -0.162278 h -0.01976 v -0.02716 h 0.06209 v 0.02716 h -0.0187 v 0.162278 h 0.04657 v -0.07373 h 0.02152 v 0.100541 h -0.111478 v -0.02681 z m -0.136878,0 v -0.162278 h -0.0194 v -0.02716 h 0.125942 v 0.06526 h -0.0187 v -0.0381 h -0.06491 v 0.06421 h 0.05644 v 0.02716 h -0.05644 v 0.07091 h 0.06491 v -0.03951 h 0.0187 v 0.06632 H 97.80657 v -0.02681 z m -0.100894,0 v -0.162278 h -0.0314 v 0.05503 h -0.0187 v -0.0822 h 0.122767 v 0.0822 h -0.0187 v -0.05503 h -0.03105 v 0.162278 h 0.01976 v 0.02681 h -0.06209 v -0.02681 z m -0.192264,-0.202142 0.01517,-0.04939 h 0.03034 l -0.03175,0.04939 z m 0.03669,0.127706 -0.02011,-0.09066 h -0.0021 l -0.02081,0.09066 z m 0.0056,0.0254 h -0.05433 l -0.01164,0.04904 h 0.01834 v 0.02681 h -0.05962 v -0.02681 h 0.01799 l 0.04163,-0.1651 h -0.01834 v -0.02434 h 0.07761 v 0.02434 h -0.01905 l 0.04233,0.1651 h 0.01729 v 0.02681 h -0.05962 v -0.02681 h 0.01905 z m -0.198614,-0.0381 0.04868,-0.07514 h -0.01729 v -0.02716 h 0.05927 v 0.02716 h -0.01587 l -0.04692,0.07514 0.04798,0.08714 h 0.01623 v 0.02681 h -0.06138 v -0.02681 h 0.01623 z m -0.02364,0.08714 v -0.162278 h -0.01905 v -0.02716 h 0.06138 v 0.02716 h -0.0194 v 0.162278 h 0.01729 v 0.02681 h -0.05927 v -0.02681 z m -0.134055,0.02681 v -0.07832 h 0.01905 v 0.01905 c 0.0092,0.02364 0.02117,0.03528 0.03563,0.03528 0.0078,0 0.01411,-0.0032 0.01905,-0.0099 0.0053,-0.0064 0.0078,-0.01482 0.0078,-0.0254 0,-0.01023 -0.0021,-0.01799 -0.0064,-0.02222 -0.0042,-0.0046 -0.01199,-0.0092 -0.02399,-0.01341 -0.0134,-0.0053 -0.02364,-0.01023 -0.02999,-0.01482 -0.0067,-0.0046 -0.01199,-0.01129 -0.01587,-0.01976 -0.0039,-0.0085 -0.0056,-0.0187 -0.0056,-0.03034 0,-0.01835 0.0042,-0.03281 0.0127,-0.04375 0.0085,-0.01058 0.01905,-0.01623 0.03175,-0.01623 0.01235,0 0.02364,0.0056 0.03387,0.01693 v -0.01446 h 0.0187 v 0.06562 h -0.0187 v -0.01517 c -0.0078,-0.01658 -0.01834,-0.02505 -0.0321,-0.02505 -0.0081,0 -0.01482,0.0028 -0.01905,0.0085 -0.0046,0.0053 -0.0067,0.01164 -0.0067,0.0194 0,0.0056 0.0011,0.01094 0.0035,0.01517 0.0021,0.0046 0.0049,0.0078 0.0085,0.0099 0.0035,0.0021 0.01023,0.0049 0.02046,0.0085 0.01341,0.0053 0.02328,0.0099 0.02928,0.01411 0.006,0.0042 0.01129,0.01164 0.01552,0.02152 0.0046,0.0099 0.0067,0.02152 0.0067,0.03457 0,0.0187 -0.0046,0.03387 -0.01376,0.04586 -0.0092,0.01199 -0.02046,0.01799 -0.03387,0.01799 -0.01376,0 -0.02611,-0.0071 -0.03739,-0.02117 v 0.01764 z m -0.09666,0.0025 -0.0508,-0.191559 h -0.0187 v -0.02716 h 0.05997 v 0.02716 h -0.01764 l 0.03845,0.145345 0.03775,-0.145345 h -0.01764 v -0.02716 h 0.05821 v 0.02716 h -0.01834 l -0.05009,0.191559 z m -0.196497,-0.111478 c 0,0.02399 0.0049,0.04374 0.01446,0.05997 0.0099,0.01588 0.02258,0.02399 0.03845,0.02399 0.01588,0 0.02858,-0.0081 0.0388,-0.02469 0.01023,-0.01658 0.01517,-0.03598 0.01517,-0.05891 0,-0.02293 -0.0053,-0.04233 -0.01552,-0.05821 -0.01023,-0.01623 -0.02328,-0.02399 -0.03881,-0.02399 -0.01552,0 -0.02822,0.0078 -0.03775,0.02364 -0.0099,0.01552 -0.01482,0.03492 -0.01482,0.05821 m -0.02505,0 c 0,-0.0314 0.0071,-0.05786 0.02152,-0.07902 0.01446,-0.02117 0.03316,-0.03175 0.05644,-0.03175 0.02328,0 0.04233,0.01058 0.05715,0.03175 0.01446,0.02117 0.02187,0.04762 0.02187,0.07973 0,0.03246 -0.0074,0.05927 -0.02258,0.08008 -0.01482,0.02117 -0.03387,0.03175 -0.0568,0.03175 -0.01482,0 -0.02822,-0.0049 -0.04057,-0.01482 -0.01235,-0.01023 -0.02152,-0.02399 -0.02787,-0.04198 -0.006,-0.01799 -0.0092,-0.03634 -0.0092,-0.05574 m -0.14605,0.0822 v -0.162278 h -0.01729 v -0.02716 h 0.05821 v 0.02716 h -0.01799 v 0.06174 h 0.06597 v -0.06174 h -0.01764 v -0.02716 h 0.05786 v 0.02716 h -0.01729 v 0.162278 h 0.01729 v 0.02681 h -0.05786 v -0.02681 h 0.01764 v -0.07338 h -0.06597 v 0.07338 h 0.01799 v 0.02681 h -0.05821 v -0.02681 z m -0.05362,-0.06103 0.01976,0.01552 c -0.0046,0.02434 -0.01341,0.04269 -0.02716,0.05609 -0.01341,0.01305 -0.02893,0.01976 -0.04621,0.01976 -0.02328,0 -0.04163,-0.01058 -0.05539,-0.03175 -0.01411,-0.02152 -0.02081,-0.04762 -0.02081,-0.07902 0,-0.03422 0.0067,-0.06174 0.02081,-0.08185 0.01411,-0.02046 0.0321,-0.03069 0.05468,-0.03069 0.01976,0 0.03669,0.0078 0.05009,0.02328 v -0.01976 h 0.01976 v 0.0695 h -0.01976 c -0.0042,-0.01411 -0.01094,-0.02505 -0.02011,-0.03281 -0.0092,-0.0078 -0.0187,-0.01164 -0.02893,-0.01164 -0.01482,0 -0.02752,0.0081 -0.03704,0.02364 -0.0099,0.01552 -0.01446,0.03493 -0.01446,0.05891 0,0.02434 0.0049,0.0441 0.01552,0.05962 0.01023,0.01552 0.02258,0.02328 0.03704,0.02328 0.01164,0 0.02223,-0.0053 0.03175,-0.01623 0.0095,-0.01058 0.01658,-0.02611 0.02046,-0.04586 m -0.227189,-0.141112 0.01517,-0.04939 h 0.03034 l -0.03175,0.04939 z m -0.0187,0.03986 v 0.108303 c 0,0.01658 3.52e-4,0.02822 0.0018,0.03457 0.0011,0.0067 0.0042,0.01199 0.0088,0.01658 0.0049,0.0046 0.01094,0.0067 0.0187,0.0067 0.0088,0 0.01588,-0.0018 0.02081,-0.0056 0.0046,-0.0039 0.0078,-0.0092 0.0095,-0.01588 0.0014,-0.0064 0.0021,-0.01834 0.0021,-0.03493 V 60.88424 h -0.01764 v -0.02716 h 0.05962 v 0.02716 h -0.01905 v 0.112889 c 0,0.01552 -3.52e-4,0.02646 -0.0014,0.03351 -0.0011,0.0067 -0.0035,0.01411 -0.0074,0.02152 -0.0039,0.0074 -0.0095,0.0134 -0.01693,0.01799 -0.0071,0.0046 -0.01587,0.0067 -0.02646,0.0067 -0.01164,0 -0.02117,-0.0021 -0.02858,-0.0064 -0.0078,-0.0042 -0.0134,-0.0099 -0.01729,-0.01693 -0.0039,-0.0071 -0.0063,-0.01446 -0.0078,-0.02223 -0.0014,-0.0081 -0.0018,-0.02046 -0.0018,-0.03739 v -0.109714 h -0.01905 v -0.02716 h 0.05997 v 0.02716 z m -0.126295,0.08043 h 0.01305 c 0.01482,0 0.0254,-0.0032 0.03104,-0.0092 0.0056,-0.006 0.0085,-0.01693 0.0085,-0.0321 0,-0.0099 -0.0014,-0.01799 -0.0046,-0.02434 -0.0028,-0.0063 -0.0067,-0.01058 -0.01129,-0.01235 -0.0046,-0.0018 -0.01199,-0.0025 -0.02258,-0.0025 h -0.01411 z m -0.02293,0.08184 v -0.162278 h -0.01905 v -0.02716 h 0.05433 c 0.01587,0 0.02787,0.0018 0.03563,0.0049 0.0081,0.0032 0.01446,0.01023 0.01976,0.02187 0.0056,0.01129 0.0081,0.02469 0.0081,0.04022 0,0.01235 -0.0018,0.02328 -0.0053,0.03316 -0.0035,0.0099 -0.0078,0.01693 -0.01305,0.02152 -0.0053,0.0049 -0.01094,0.0081 -0.01764,0.0095 -0.0063,0.0018 -0.01623,0.0025 -0.02928,0.0025 h -0.01058 v 0.05574 h 0.01976 v 0.02681 h -0.06174 v -0.02681 z" />
  </g>
</svg>
