<svg id="b" width="2.5516mm" height="2.8917mm" version="1.1" viewBox="0 0 2.5516 2.8917" xmlns="http://www.w3.org/2000/svg">
 <defs id="c">
  <clipPath id="a">
   <path id="d" d="m376.19 492.08h7.335v8.248h-7.335z"/>
  </clipPath>
 </defs>
 <g id="e" transform="translate(-92.809 -59.824)">
  <g id="f" transform="matrix(.35278 0 0 -.35278 -39.921 236.31)">
   <g id="g" clip-path="url(#a)">
    <g id="h" transform="translate(382.83 500.27)">
     <path id="i" d="m0 0c0.352 0 0.637-0.267 0.637-0.595v-6.034c0-0.329-0.285-0.595-0.637-0.595h-5.949c-0.352 0-0.638 0.266-0.638 0.595v6.034c0 0.328 0.286 0.595 0.638 0.595z" fill="#162983" fill-rule="evenodd"/>
    </g>
    <g id="j" transform="translate(382.83 500.27)">
     <path id="k" d="m0 0c0.352 0 0.637-0.267 0.637-0.595v-6.034c0-0.329-0.285-0.595-0.637-0.595h-5.949c-0.352 0-0.638 0.266-0.638 0.595v6.034c0 0.328 0.286 0.595 0.638 0.595z" fill="none" stroke="#162983" stroke-miterlimit="2.414" stroke-width=".009"/>
    </g>
    <g id="l" transform="translate(376.96 500.19)">
     <path id="m" d="m0 0h5.808c0.342 0 0.621-0.259 0.621-0.575v-5.901c0-0.316-0.279-0.575-0.621-0.575h-5.808c-0.342 0-0.621 0.259-0.621 0.575v5.901c0 0.316 0.279 0.575 0.621 0.575" fill="#fff" fill-rule="evenodd"/>
    </g>
    <g id="n" transform="translate(376.96 500.19)">
     <path id="o" d="m0 0h5.808c0.342 0 0.621-0.259 0.621-0.575v-5.901c0-0.316-0.279-0.575-0.621-0.575h-5.808c-0.342 0-0.621 0.259-0.621 0.575v5.901c0 0.316 0.279 0.575 0.621 0.575z" fill="none" stroke="#162983" stroke-miterlimit="2.414" stroke-width=".009"/>
    </g>
    <path id="p" d="m377.99 499.94h3.175v-6.581h-3.175z" fill="#009ee0" fill-rule="evenodd"/>
    <g id="q" transform="translate(376.56 498.39)">
     <path id="r" d="m0 0 6.339 0.803-0.147-4.186c-0.424 0.573-0.852 0.816-1.593 0.996 0.19-1.34-1.468-1.362-1.45-0.275 0 0.058 6e-3 0.115 0.019 0.169-0.179-0.3-0.241-0.703-0.112-1.016 0.151-0.365 0.524-0.551 0.957-0.641-0.681-0.081-1.325 0.204-1.542 0.728-0.124 0.298-0.131 0.593 0.028 0.882-0.765-0.237-0.999-0.818-1.097-1.329z" fill="#162983" fill-rule="evenodd"/>
    </g>
    <g id="s" transform="translate(380.51 496.22)">
     <path id="t" d="m0 0c0.12 0 0.219-0.098 0.219-0.219 0-0.12-0.099-0.218-0.219-0.218s-0.219 0.098-0.219 0.218c0 0.121 0.099 0.219 0.219 0.219" fill="#fff" fill-rule="evenodd"/>
    </g>
    <g id="u" transform="translate(381.33 496.71)">
     <path id="v" d="m0 0-0.388 1.253h-0.143v0.178h0.456v-0.178h-0.134l0.295-0.951 0.287 0.951h-0.135v0.178h0.444v-0.178h-0.141l-0.38-1.253zm-1.102 0.192v1.061h-0.239v-0.361h-0.143v0.539h0.937v-0.539h-0.143v0.361h-0.237v-1.061h0.15v-0.178h-0.473v0.178zm-1 0.938 0.117 0.323h0.23l-0.24-0.323zm0.582-0.944v-0.172h-0.297v0.113c-0.092-0.086-0.181-0.129-0.266-0.129-0.054 0-0.098 0.015-0.133 0.043-0.035 0.029-0.059 0.066-0.071 0.112-0.011 0.046-0.017 0.12-0.017 0.222v0.453h-0.114v0.172h0.272v-0.601c0-0.073 2e-3 -0.121 5e-3 -0.146 3e-3 -0.026 0.013-0.046 0.029-0.062 0.016-0.017 0.036-0.025 0.061-0.025 0.073 0 0.151 0.043 0.234 0.128v0.534h-0.142v0.172h0.3v-0.814zm-1.563 0.541h0.1c0.113 0 0.192 0.02 0.236 0.06 0.043 0.039 0.065 0.109 0.065 0.21 0 0.064-0.011 0.117-0.035 0.159-0.023 0.042-0.052 0.069-0.086 0.08-0.035 0.012-0.092 0.017-0.172 0.017h-0.108zm-0.175-0.535v1.061h-0.145v0.178h0.413c0.121 0 0.212-0.011 0.272-0.032 0.061-0.021 0.111-0.068 0.152-0.143 0.041-0.074 0.061-0.162 0.061-0.263 0-0.081-0.013-0.153-0.04-0.218-0.027-0.064-0.06-0.111-0.1-0.142-0.039-0.03-0.084-0.051-0.134-0.061-0.049-0.011-0.124-0.016-0.225-0.016h-0.079v-0.364h0.149v-0.178h-0.469v0.178z" fill="#fff" fill-rule="evenodd"/>
    </g>
    <g id="w" transform="translate(383.27 492.38)">
     <path id="x" d="m0 0-0.057 0.257h-6e-3l-0.059-0.257zm0.016-0.072h-0.154l-0.034-0.139h0.053v-0.076h-0.17v0.076h0.052l0.118 0.468h-0.053v0.069h0.22v-0.069h-0.053l0.12-0.468h0.048v-0.076h-0.168v0.076h0.053zm-0.431-0.139v0.46h-0.047v0.077h0.158v-0.077h-0.047v-0.46h0.047v-0.076h-0.158v0.076zm-0.408-0.076v0.076l0.231 0.46h-0.167v-0.108h-0.053v0.185h0.302v-0.068l-0.234-0.469h0.188v0.119h0.053v-0.195zm-0.159 0.649 0.044 0.14h0.085l-0.089-0.14zm0.012-0.573v0.46h-0.047v0.077h0.158v-0.077h-0.046v-0.46h0.046v-0.076h-0.158v0.076zm-0.319-0.083-0.144 0.543h-0.053v0.077h0.169v-0.077h-0.049l0.109-0.412 0.107 0.412h-0.05v0.077h0.165v-0.077h-0.052l-0.142-0.543zm-0.519 0.083v0.46h-0.056v0.077h0.358v-0.185h-0.053v0.108h-0.184v-0.182h0.16v-0.077h-0.16v-0.201h0.184v0.112h0.053v-0.188h-0.358v0.076zm-0.338 0v0.46h-0.056v0.077h0.176v-0.077h-0.053v-0.46h0.132v0.209h0.061v-0.285h-0.316v0.076zm-0.388 0v0.46h-0.055v0.077h0.357v-0.185h-0.053v0.108h-0.184v-0.182h0.16v-0.077h-0.16v-0.201h0.184v0.112h0.053v-0.188h-0.357v0.076zm-0.286 0v0.46h-0.089v-0.156h-0.053v0.233h0.348v-0.233h-0.053v0.156h-0.088v-0.46h0.056v-0.076h-0.176v0.076zm-0.545 0.573 0.043 0.14h0.086l-0.09-0.14zm0.104-0.362-0.057 0.257h-6e-3l-0.059-0.257zm0.016-0.072h-0.154l-0.033-0.139h0.052v-0.076h-0.169v0.076h0.051l0.118 0.468h-0.052v0.069h0.22v-0.069h-0.054l0.12-0.468h0.049v-0.076h-0.169v0.076h0.054zm-0.563 0.108 0.138 0.213h-0.049v0.077h0.168v-0.077h-0.045l-0.133-0.213 0.136-0.247h0.046v-0.076h-0.174v0.076h0.046zm-0.067-0.247v0.46h-0.054v0.077h0.174v-0.077h-0.055v-0.46h0.049v-0.076h-0.168v0.076zm-0.38-0.076v0.222h0.054v-0.054c0.026-0.067 0.06-0.1 0.101-0.1 0.022 0 0.04 9e-3 0.054 0.028 0.015 0.018 0.022 0.042 0.022 0.072 0 0.029-6e-3 0.051-0.018 0.063-0.012 0.013-0.034 0.026-0.068 0.038-0.038 0.015-0.067 0.029-0.085 0.042-0.019 0.013-0.034 0.032-0.045 0.056s-0.016 0.053-0.016 0.086c0 0.052 0.012 0.093 0.036 0.124 0.024 0.03 0.054 0.046 0.09 0.046 0.035 0 0.067-0.016 0.096-0.048v0.041h0.053v-0.186h-0.053v0.043c-0.022 0.047-0.052 0.071-0.091 0.071-0.023 0-0.042-8e-3 -0.054-0.024-0.013-0.015-0.019-0.033-0.019-0.055 0-0.016 3e-3 -0.031 0.01-0.043 6e-3 -0.013 0.014-0.022 0.024-0.028s0.029-0.014 0.058-0.024c0.038-0.015 0.066-0.028 0.083-0.04s0.032-0.033 0.044-0.061c0.013-0.028 0.019-0.061 0.019-0.098 0-0.053-0.013-0.096-0.039-0.13s-0.058-0.051-0.096-0.051c-0.039 0-0.074 0.02-0.106 0.06v-0.05zm-0.274-7e-3 -0.144 0.543h-0.053v0.077h0.17v-0.077h-0.05l0.109-0.412 0.107 0.412h-0.05v0.077h0.165v-0.077h-0.052l-0.142-0.543zm-0.557 0.316c0-0.068 0.014-0.124 0.041-0.17 0.028-0.045 0.064-0.068 0.109-0.068s0.081 0.023 0.11 0.07 0.043 0.102 0.043 0.167-0.015 0.12-0.044 0.165c-0.029 0.046-0.066 0.068-0.11 0.068s-0.08-0.022-0.107-0.067c-0.028-0.044-0.042-0.099-0.042-0.165m-0.071 0c0 0.089 0.02 0.164 0.061 0.224s0.094 0.09 0.16 0.09 0.12-0.03 0.162-0.09c0.041-0.06 0.062-0.135 0.062-0.226 0-0.092-0.021-0.168-0.064-0.227-0.042-0.06-0.096-0.09-0.161-0.09-0.042 0-0.08 0.014-0.115 0.042-0.035 0.029-0.061 0.068-0.079 0.119-0.017 0.051-0.026 0.103-0.026 0.158m-0.414-0.233v0.46h-0.049v0.077h0.165v-0.077h-0.051v-0.175h0.187v0.175h-0.05v0.077h0.164v-0.077h-0.049v-0.46h0.049v-0.076h-0.164v0.076h0.05v0.208h-0.187v-0.208h0.051v-0.076h-0.165v0.076zm-0.152 0.173 0.056-0.044c-0.013-0.069-0.038-0.121-0.077-0.159-0.038-0.037-0.082-0.056-0.131-0.056-0.066 0-0.118 0.03-0.157 0.09-0.04 0.061-0.059 0.135-0.059 0.224 0 0.097 0.019 0.175 0.059 0.232 0.04 0.058 0.091 0.087 0.155 0.087 0.056 0 0.104-0.022 0.142-0.066v0.056h0.056v-0.197h-0.056c-0.012 0.04-0.031 0.071-0.057 0.093s-0.053 0.033-0.082 0.033c-0.042 0-0.078-0.023-0.105-0.067-0.028-0.044-0.041-0.099-0.041-0.167 0-0.069 0.014-0.125 0.044-0.169 0.029-0.044 0.064-0.066 0.105-0.066 0.033 0 0.063 0.015 0.09 0.046 0.027 0.03 0.047 0.074 0.058 0.13m-0.644 0.4 0.043 0.14h0.086l-0.09-0.14zm-0.053-0.113v-0.307c0-0.047 1e-3 -0.08 5e-3 -0.098 3e-3 -0.019 0.012-0.034 0.025-0.047 0.014-0.013 0.031-0.019 0.053-0.019 0.025 0 0.045 5e-3 0.059 0.016 0.013 0.011 0.022 0.026 0.027 0.045 4e-3 0.018 6e-3 0.052 6e-3 0.099v0.311h-0.05v0.077h0.169v-0.077h-0.054v-0.32c0-0.044-1e-3 -0.075-4e-3 -0.095-3e-3 -0.019-0.01-0.04-0.021-0.061s-0.027-0.038-0.048-0.051c-0.02-0.013-0.045-0.019-0.075-0.019-0.033 0-0.06 6e-3 -0.081 0.018-0.022 0.012-0.038 0.028-0.049 0.048s-0.018 0.041-0.022 0.063c-4e-3 0.023-5e-3 0.058-5e-3 0.106v0.311h-0.054v0.077h0.17v-0.077zm-0.358-0.228h0.037c0.042 0 0.072 9e-3 0.088 0.026s0.024 0.048 0.024 0.091c0 0.028-4e-3 0.051-0.013 0.069-8e-3 0.018-0.019 0.03-0.032 0.035s-0.034 7e-3 -0.064 7e-3h-0.04zm-0.065-0.232v0.46h-0.054v0.077h0.154c0.045 0 0.079-5e-3 0.101-0.014 0.023-9e-3 0.041-0.029 0.056-0.062 0.016-0.032 0.023-0.07 0.023-0.114 0-0.035-5e-3 -0.066-0.015-0.094s-0.022-0.048-0.037-0.061c-0.015-0.014-0.031-0.023-0.05-0.027-0.018-5e-3 -0.046-7e-3 -0.083-7e-3h-0.03v-0.158h0.056v-0.076h-0.175v0.076z" fill="#162983" fill-rule="evenodd"/>
    </g>
   </g>
  </g>
 </g>
</svg>
