<svg height="2.792412mm" viewBox="0 0 3.7195694 2.792412" width="3.719569mm" xmlns="http://www.w3.org/2000/svg" xmlns:xlink="http://www.w3.org/1999/xlink"><clipPath id="a"><path d="m374.492 508.404h10.737v7.917h-10.737z"/></clipPath><g clip-path="url(#a)" transform="matrix(.35277777 0 0 -.35277777 -132.136967 182.14657)"><g transform="translate(383.1139 509.9508)"><path d="m0 0c-.054-.024-.094-.058-.104-.097-.019-.072.071-.13.201-.131.129 0 .25.058.268.13.028.108-.168.145-.238.152-.284.025-.684-.113-.901-.148-.127-.02-.383.03-.513.095-.118.06-.149.017-.077-.062.093-.102.393-.215.514-.195.285.047.54.218.85.256m-5.903-1.251c.009 0 .018 0 .028.001.147-.003.302.012.444.046.256.059.492.181.553.404.081.295-.221.495-.662.499-.008 0-.017 0-.027-.001-.147.003-.302-.012-.444-.047-.256-.058-.493-.181-.553-.403-.081-.296.221-.496.661-.499m-.016.732c.02.016.043.031.07.042.069.034.144.054.22.054.212-.001.344-.16.293-.355-.051-.196-.265-.354-.478-.354-.213.001-.344.16-.293.356.026.101.097.193.188.257m-2.322-.009c-.049-.152-.259-.744-.303-.904-.03-.11.025-.115.09-.113.445.018.318.297.504.293.235.005.475-.011.703.044.256.058.492.181.553.403.081.295-.237.521-.867.512-.143-.002-.39-.016-.494-.04-.129-.03-.156-.1-.186-.195m.621-.591c-.238.006-.299.136-.304.262-.013.344.329.413.435.405.112-.009.206-.046.258-.084.261-.238-.083-.59-.389-.583m8.631-.161c.143-.001.512.012.613.046.059.019.063.064.018.065-.262.006-.598.004-.756.119-.095.095.025.196.211.199.202.004.729-.028.795.023.059.045.076.071.091.125.09.332-.575.447-1.081.326-.255-.059-.492-.182-.553-.404-.081-.295.221-.495.662-.499m.183.517c-.16.002-.283.03-.255.134.03.107.183.163.336.162.144-.001.326-.033.293-.15-.028-.105-.205-.147-.374-.146m-.986.209c.057.198.098.223-.172.227-.201-.004-.176-.009-.247-.265l-.154-.579c-.021-.075.004-.098.143-.099l.058-.001c.1-.001.188.011.2.062.037.135.114.455.172.655m-4.461-.711c.088.011.425.292.526.383.068.062.258.251.326.311.348.294.213.301.042.183-.238-.164-.493-.392-.632-.493-.11-.079-.204-.118-.223-.066-.055.136-.066.322-.066.41-.001.127.02.214-.191.23-.153.012-.264.006-.24-.278.018-.205.063-.397.123-.57.026-.076.073-.108.218-.109.024 0 .092-.005.117-.001m2.992.284c.259.138.878.312.917.477.036.15-.169.18-.611.186-.079.001-.156.002-.235.002-.159-.001-.548-.061-.383-.093.232-.046.728-.021.703-.107-.023-.109-.45-.225-.757-.372-.054-.026-.238-.078-.277-.204-.054-.183.176-.169.618-.175.078-.001.258-.002.337-.002.159.001.548.061.383.093-.232.046-.79.032-.765.118.005.026.031.051.07.077m-1.262-.229c.064-.027.096-.054.216-.055.08-.001.211.017.229.084l.126.46c.078.285-.041.393-.483.399-.078.001-.156.002-.235.002-.159-.001-.548-.062-.383-.096.231-.046.701.021.649-.169l-.009-.033c-.054-.197-.976.093-1.093-.337-.046-.166.063-.272.33-.297.325-.031.48.044.653.042m.074.296c-.071-.293-.62-.243-.607-.078.008.1.183.175.351.189.16.013.273-.041.256-.111" fill="#009ee0" fill-rule="evenodd"/></g><g transform="translate(379.0027 510.0137)"><path d="m0 0c2.822 0 5.517 1.412 6.018 3.154.208.722.005 1.387-.505 1.919.257-.523-.013-1.251-.782-1.885-1.072-.884-2.709-1.247-3.656-.811-.509.234-.715.652-.63 1.126-.703-.817-1.094-1.657-1.371-2.499-.202-.611-.228-1.004.926-1.004" fill="#009ee0" fill-rule="evenodd"/></g><g transform="translate(383.7107 515.685)"><path d="m0 0c-.741.399-1.739.636-2.895.636-2.822 0-5.517-1.412-6.018-3.154-.306-1.064.278-2.005 1.423-2.576 1.223 2.033 2.842 4.321 5.69 5.064.578.151 1.214.199 1.8.03" fill="#f07c00" fill-rule="evenodd"/></g></g></svg>