<svg height="2.850374mm" viewBox="0 0 3.6163249 2.8503737" width="3.616325mm" xmlns="http://www.w3.org/2000/svg" xmlns:xlink="http://www.w3.org/1999/xlink"><clipPath id="a"><path d="m374.735 524.479h10.251v8.08h-10.251z"/></clipPath><g clip-path="url(#a)" transform="matrix(.35277777 0 0 -.35277777 -132.198179 187.87498)"><g transform="translate(377.3702 527.7847)"><path d="m0 0c-.236.001-.177 3.79-.717 3.79h-1.919v.985h1.947c.294 0 .481-2.448.554-3.243.074-.794.098-.824.135-.824.038 0 .049.023.127.826.079.803.266 3.241.593 3.241h1.469c1.238 0 1.869-3.733 2.441-3.733.571 0 1.198 3.733 2.3 3.733h.636v-.985h-.618c-1.101 0-1.662-3.733-2.318-3.733-.657 0-1.203 3.733-2.441 3.733h-1.469c-.539 0-.484-3.791-.72-3.79" fill="#e2001a" fill-rule="evenodd"/></g><g transform="translate(374.8979 524.4948)"><path d="m0 0h-.155v1.25h.868c.186 0 .312-.018.377-.053.076-.041.113-.122.113-.245v-.163c0-.122-.037-.204-.113-.244-.065-.034-.191-.052-.377-.052h-.713zm0 .634h.758c.115 0 .19.014.225.042.036.027.054.083.054.168v.06c0 .085-.018.141-.054.169-.035.027-.11.041-.225.041h-.758z" fill="#e20020" fill-rule="evenodd"/></g><g transform="translate(376.3368 524.4948)"><path d="m0 0v1.25h1.231v-.139h-1.08v-.392h1.035v-.14h-1.035v-.44h1.08v-.139z" fill="#e20020" fill-rule="evenodd"/></g><g transform="translate(377.7193 524.4948)"><path d="m0 0v .139l1.155.975h-1.112v.136h1.339v-.136l-1.155-.975h1.172v-.139z" fill="#e20020" fill-rule="evenodd"/></g><path d="m379.526 524.495h-.155v1.25h.155z" fill="#e20020" fill-rule="evenodd"/><g transform="translate(379.9986 524.4948)"><path d="m0 0h-.155v1.25h.244l1.13-1.107v1.107h.155v-1.25h-.227l-1.147 1.124z" fill="#e20020" fill-rule="evenodd"/></g><g transform="translate(382.2318 524.4792)"><path d="m0 0c-.119 0-.209.005-.268.016-.078.012-.139.036-.184.072-.085.067-.127.191-.127.371v.34c0 .196.041.328.125.394.049.039.121.065.215.077.053.007.132.011.237.011h.418c.105 0 .185-.004.237-.011.094-.012.166-.038.215-.077.084-.066.126-.192.126-.378v-.349c0-.186-.042-.312-.126-.378-.049-.04-.121-.066-.215-.078-.05-.007-.129-.01-.237-.01zm.49 1.143h-.566c-.146 0-.243-.03-.288-.091-.033-.042-.049-.124-.049-.244v-.328c0-.121.016-.202.049-.244.045-.061.142-.092.288-.092h.566c.147 0 .243.031.289.092.031.041.046.116.046.225v.366c0 .109-.015.184-.046.225-.046.061-.142.091-.289.091" fill="#e20020" fill-rule="evenodd"/></g><g transform="translate(383.662 524.4948)"><path d="m0 0h-.158v1.25h.158v-.531h.217l.778.531h.269l-.886-.6.946-.65h-.275l-.832.583h-.217z" fill="#e20020" fill-rule="evenodd"/></g><g transform="translate(377.3702 526.5657)"><path d="m0 0c-.236.001-.177 3.79-.717 3.79h-1.919v.985h1.947c.294 0 .481-2.448.554-3.243.074-.794.098-.824.135-.824.038 0 .049.023.127.826.079.803.266 3.241.593 3.241h1.469c1.238 0 1.869-3.733 2.441-3.733.571 0 1.198 3.733 2.3 3.733h.636v-.985h-.618c-1.101 0-1.662-3.733-2.318-3.733-.657 0-1.203 3.733-2.441 3.733h-1.469c-.539 0-.484-3.791-.72-3.79" fill="#89ba17" fill-rule="evenodd"/></g></g></svg>