<?xml version="1.0" encoding="UTF-8" standalone="no"?>
<!-- Created with Inkscape (http://www.inkscape.org/) -->

<svg
   xmlns:dc="http://purl.org/dc/elements/1.1/"
   xmlns:cc="http://creativecommons.org/ns#"
   xmlns:rdf="http://www.w3.org/1999/02/22-rdf-syntax-ns#"
   xmlns:svg="http://www.w3.org/2000/svg"
   xmlns="http://www.w3.org/2000/svg"
   xmlns:sodipodi="http://sodipodi.sourceforge.net/DTD/sodipodi-0.dtd"
   xmlns:inkscape="http://www.inkscape.org/namespaces/inkscape"
   width="3.7195694mm"
   height="2.792412mm"
   viewBox="0 0 3.7195694 2.792412"
   version="1.1"
   id="svg52947"
   inkscape:version="0.92.0 r15299"
   sodipodi:docname="TV Povazie.svg">
  <defs
     id="defs52941">
    <clipPath
       clipPathUnits="userSpaceOnUse"
       id="clipPath19028">
      <path
         d="m 374.492,508.404 h 10.737 v 7.917 h -10.737 z"
         id="path19026"
         inkscape:connector-curvature="0" />
    </clipPath>
  </defs>
  <sodipodi:namedview
     id="base"
     pagecolor="#ffffff"
     bordercolor="#666666"
     borderopacity="1.0"
     inkscape:pageopacity="0.0"
     inkscape:pageshadow="2"
     inkscape:zoom="31.678384"
     inkscape:cx="5.2567361"
     inkscape:cy="6.1985737"
     inkscape:document-units="mm"
     inkscape:current-layer="layer1"
     showgrid="false"
     fit-margin-top="0"
     fit-margin-left="0"
     fit-margin-right="0"
     fit-margin-bottom="0"
     inkscape:window-width="1920"
     inkscape:window-height="1017"
     inkscape:window-x="-8"
     inkscape:window-y="-8"
     inkscape:window-maximized="1" />
  <metadata
     id="metadata52944">
    <rdf:RDF>
      <cc:Work
         rdf:about="">
        <dc:format>image/svg+xml</dc:format>
        <dc:type
           rdf:resource="http://purl.org/dc/dcmitype/StillImage" />
        <dc:title></dc:title>
      </cc:Work>
    </rdf:RDF>
  </metadata>
  <g
     inkscape:label="Layer 1"
     inkscape:groupmode="layer"
     id="layer1"
     transform="translate(-72.223549,-108.1276)">
    <g
       transform="matrix(0.35277777,0,0,-0.35277777,-59.913418,290.27417)"
       id="g19022">
      <g
         id="g19024"
         clip-path="url(#clipPath19028)">
        <g
           id="g19030"
           transform="translate(383.1139,509.9508)">
          <path
             d="m 0,0 c -0.054,-0.024 -0.094,-0.058 -0.104,-0.097 -0.019,-0.072 0.071,-0.13 0.201,-0.131 0.129,0 0.25,0.058 0.268,0.13 0.028,0.108 -0.168,0.145 -0.238,0.152 -0.284,0.025 -0.684,-0.113 -0.901,-0.148 -0.127,-0.02 -0.383,0.03 -0.513,0.095 -0.118,0.06 -0.149,0.017 -0.077,-0.062 0.093,-0.102 0.393,-0.215 0.514,-0.195 C -0.565,-0.209 -0.31,-0.038 0,0 m -5.903,-1.251 c 0.009,0 0.018,0 0.028,10e-4 0.147,-0.003 0.302,0.012 0.444,0.046 0.256,0.059 0.492,0.181 0.553,0.404 0.081,0.295 -0.221,0.495 -0.662,0.499 -0.008,0 -0.017,0 -0.027,-0.001 -0.147,0.003 -0.302,-0.012 -0.444,-0.047 -0.256,-0.058 -0.493,-0.181 -0.553,-0.403 -0.081,-0.296 0.221,-0.496 0.661,-0.499 m -0.016,0.732 c 0.02,0.016 0.043,0.031 0.07,0.042 0.069,0.034 0.144,0.054 0.22,0.054 0.212,-0.001 0.344,-0.16 0.293,-0.355 -0.051,-0.196 -0.265,-0.354 -0.478,-0.354 -0.213,10e-4 -0.344,0.16 -0.293,0.356 0.026,0.101 0.097,0.193 0.188,0.257 M -8.241,-0.528 C -8.29,-0.68 -8.5,-1.272 -8.544,-1.432 c -0.03,-0.11 0.025,-0.115 0.09,-0.113 0.445,0.018 0.318,0.297 0.504,0.293 0.235,0.005 0.475,-0.011 0.703,0.044 0.256,0.058 0.492,0.181 0.553,0.403 0.081,0.295 -0.237,0.521 -0.867,0.512 -0.143,-0.002 -0.39,-0.016 -0.494,-0.04 -0.129,-0.03 -0.156,-0.1 -0.186,-0.195 m 0.621,-0.591 c -0.238,0.006 -0.299,0.136 -0.304,0.262 -0.013,0.344 0.329,0.413 0.435,0.405 0.112,-0.009 0.206,-0.046 0.258,-0.084 0.261,-0.238 -0.083,-0.59 -0.389,-0.583 M 1.011,-1.28 c 0.143,-10e-4 0.512,0.012 0.613,0.046 0.059,0.019 0.063,0.064 0.018,0.065 -0.262,0.006 -0.598,0.004 -0.756,0.119 -0.095,0.095 0.025,0.196 0.211,0.199 0.202,0.004 0.729,-0.028 0.795,0.023 0.059,0.045 0.076,0.071 0.091,0.125 0.09,0.332 -0.575,0.447 -1.081,0.326 C 0.647,-0.436 0.41,-0.559 0.349,-0.781 0.268,-1.076 0.57,-1.276 1.011,-1.28 m 0.183,0.517 c -0.16,0.002 -0.283,0.03 -0.255,0.134 0.03,0.107 0.183,0.163 0.336,0.162 C 1.419,-0.468 1.601,-0.5 1.568,-0.617 1.54,-0.722 1.363,-0.764 1.194,-0.763 m -0.986,0.209 c 0.057,0.198 0.098,0.223 -0.172,0.227 -0.201,-0.004 -0.176,-0.009 -0.247,-0.265 l -0.154,-0.579 c -0.021,-0.075 0.004,-0.098 0.143,-0.099 l 0.058,-10e-4 c 0.1,-0.001 0.188,0.011 0.2,0.062 0.037,0.135 0.114,0.455 0.172,0.655 m -4.461,-0.711 c 0.088,0.011 0.425,0.292 0.526,0.383 0.068,0.062 0.258,0.251 0.326,0.311 0.348,0.294 0.213,0.301 0.042,0.183 -0.238,-0.164 -0.493,-0.392 -0.632,-0.493 -0.11,-0.079 -0.204,-0.118 -0.223,-0.066 -0.055,0.136 -0.066,0.322 -0.066,0.41 -10e-4,0.127 0.02,0.214 -0.191,0.23 -0.153,0.012 -0.264,0.006 -0.24,-0.278 0.018,-0.205 0.063,-0.397 0.123,-0.57 0.026,-0.076 0.073,-0.108 0.218,-0.109 0.024,0 0.092,-0.005 0.117,-10e-4 m 2.992,0.284 c 0.259,0.138 0.878,0.312 0.917,0.477 0.036,0.15 -0.169,0.18 -0.611,0.186 -0.079,0.001 -0.156,0.002 -0.235,0.002 -0.159,-0.001 -0.548,-0.061 -0.383,-0.093 0.232,-0.046 0.728,-0.021 0.703,-0.107 -0.023,-0.109 -0.45,-0.225 -0.757,-0.372 -0.054,-0.026 -0.238,-0.078 -0.277,-0.204 -0.054,-0.183 0.176,-0.169 0.618,-0.175 0.078,-0.001 0.258,-0.002 0.337,-0.002 0.159,10e-4 0.548,0.061 0.383,0.093 -0.232,0.046 -0.79,0.032 -0.765,0.118 0.005,0.026 0.031,0.051 0.07,0.077 M -2.523,-1.21 c 0.064,-0.027 0.096,-0.054 0.216,-0.055 0.08,-0.001 0.211,0.017 0.229,0.084 l 0.126,0.46 c 0.078,0.285 -0.041,0.393 -0.483,0.399 -0.078,0.001 -0.156,0.002 -0.235,0.002 -0.159,-0.001 -0.548,-0.062 -0.383,-0.096 0.231,-0.046 0.701,0.021 0.649,-0.169 l -0.009,-0.033 c -0.054,-0.197 -0.976,0.093 -1.093,-0.337 -0.046,-0.166 0.063,-0.272 0.33,-0.297 0.325,-0.031 0.48,0.044 0.653,0.042 m 0.074,0.296 c -0.071,-0.293 -0.62,-0.243 -0.607,-0.078 0.008,0.1 0.183,0.175 0.351,0.189 0.16,0.013 0.273,-0.041 0.256,-0.111"
             style="fill:#009ee0;fill-opacity:1;fill-rule:evenodd;stroke:none"
             id="path19032"
             inkscape:connector-curvature="0" />
        </g>
        <g
           id="g19034"
           transform="translate(379.0027,510.0137)">
          <path
             d="M 0,0 C 2.822,0 5.517,1.412 6.018,3.154 6.226,3.876 6.023,4.541 5.513,5.073 5.77,4.55 5.5,3.822 4.731,3.188 3.659,2.304 2.022,1.941 1.075,2.377 0.566,2.611 0.36,3.029 0.445,3.503 -0.258,2.686 -0.649,1.846 -0.926,1.004 -1.128,0.393 -1.154,0 0,0"
             style="fill:#009ee0;fill-opacity:1;fill-rule:evenodd;stroke:none"
             id="path19036"
             inkscape:connector-curvature="0" />
        </g>
        <g
           id="g19038"
           transform="translate(383.7107,515.685)">
          <path
             d="m 0,0 c -0.741,0.399 -1.739,0.636 -2.895,0.636 -2.822,0 -5.517,-1.412 -6.018,-3.154 -0.306,-1.064 0.278,-2.005 1.423,-2.576 1.223,2.033 2.842,4.321 5.69,5.064 C -1.222,0.121 -0.586,0.169 0,0"
             style="fill:#f07c00;fill-opacity:1;fill-rule:evenodd;stroke:none"
             id="path19040"
             inkscape:connector-curvature="0" />
        </g>
      </g>
    </g>
  </g>
</svg>
