<svg height="2.705559mm" viewBox="0 0 5.4191003 2.7055585" width="5.4191mm" xmlns="http://www.w3.org/2000/svg" xmlns:xlink="http://www.w3.org/1999/xlink"><clipPath id="a"><path d="m372.123 460.03h15.475v7.72h-15.475z"/></clipPath><g clip-path="url(#a)" transform="matrix(.35277777 0 0 -.35277777 -131.293338 164.99526)"><g transform="translate(383.7881 465.5691)"><path d="m0 0c-.086-.145-.178-.305-.262-.451-.013-.022-.031-.043-.029-.06h.662c.074 0 .154-.011.223 0 .042.006.093.034.138.054s.087.04.128.064c.071.042.175.111.179.204.001.055-.027.087-.061.122-.029.03-.064.07-.096.077-.061.013-.144 0-.217 0h-.659c-.004-.001-.003-.007-.006-.01m-11.289 2.064h7.215c.232-.762.494-1.581.735-2.364.036-.118.058-.222.137-.298.14-.133.24.155.285.253.361.803.74 1.609 1.102 2.409h4.509c.329-.215.645-.479.834-.837.098-.186.165-.415.14-.684-.022-.243-.103-.442-.204-.626-.195-.354-.467-.639-.764-.898-.297-.26-.625-.492-.965-.693.228-.899.459-1.795.687-2.694h-2.438c-.17.862-.345 1.727-.518 2.598-.011.056-.047.124-.108.112-.076-.016-.093-.133-.122-.211-.3-.818-.628-1.675-.923-2.49-.003-.002-.005-.005-.007-.009-.953-.003-1.902-.01-2.859-.01-.473 1.446-.933 2.911-1.41 4.365-.03.093-.06.188-.147.237-.069-.001-.161-.006-.262-.01-.103-.004-.255.013-.262-.086-.002-.041.024-.097.039-.147.431-1.437.876-2.934 1.3-4.359-.866-.001-1.723.007-2.585.01-.439 1.455-.911 2.921-1.352 4.381-.027.092-.048.193-.118.262-.548-.008-1.138-.001-1.703-.003-.083.245-.167.489-.249.735-.083.245-.167.49-.246.738v.08c.029.137.131.201.259.239" fill="#d9dadb" fill-rule="evenodd"/></g><g transform="translate(383.7881 465.5691)"><path d="m0 0c-.086-.145-.178-.305-.262-.451-.013-.022-.031-.043-.029-.06h.662c.074 0 .154-.011.223 0 .042.006.093.034.138.054s.087.04.128.064c.071.042.175.111.179.204.001.055-.027.087-.061.122-.029.03-.064.07-.096.077-.061.013-.144 0-.217 0h-.659c-.004-.001-.003-.007-.006-.01zm-11.289 2.064h7.215c.232-.762.494-1.581.735-2.364.036-.118.058-.222.137-.298.14-.133.24.155.285.253.361.803.74 1.609 1.102 2.409h4.509c.329-.215.645-.479.834-.837.098-.186.165-.415.14-.684-.022-.243-.103-.442-.204-.626-.195-.354-.467-.639-.764-.898-.297-.26-.625-.492-.965-.693.228-.899.459-1.795.687-2.694h-2.438c-.17.862-.345 1.727-.518 2.598-.011.056-.047.124-.108.112-.076-.016-.093-.133-.122-.211-.3-.818-.628-1.675-.923-2.49-.003-.002-.005-.005-.007-.009-.953-.003-1.902-.01-2.859-.01-.473 1.446-.933 2.911-1.41 4.365-.03.093-.06.188-.147.237-.069-.001-.161-.006-.262-.01-.103-.004-.255.013-.262-.086-.002-.041.024-.097.039-.147.431-1.437.876-2.934 1.3-4.359-.866-.001-1.723.007-2.585.01-.439 1.455-.911 2.921-1.352 4.381-.027.092-.048.193-.118.262-.548-.008-1.138-.001-1.703-.003-.083.245-.167.489-.249.735-.083.245-.167.49-.246.738v.08c.029.137.131.201.259.239z" fill="none" stroke="#e2001a" stroke-miterlimit="10" stroke-width=".14"/></g><g transform="translate(386.0471 460.2837)"><path d="m0 0c .023.001.044-.006.035-.009.048.009.049-.001.055.016.03.008.063-.004.028-.011l.089.011-.053.003c.014.014.084-.005.101.012l-.096-.002.005.005c-.022-.005-.064-.003-.079-.001.003.003.001.006.018.007-.115.001-.031-.025-.127-.03.006.001.014 0 .024-.001" fill="#ffed00"/></g><g transform="translate(385.9492 460.3183)"><path d="m0 0-.04-.018-.068.005c0-.006-.05-.011-.016-.017.006.001.019.003.029.003-.007-.014-.089-.007-.069-.02.053.003.061 0 .094.011.049-.001.084-.004.107-.009.015.002.017.01.035.012l-.012-.001-.002.02c-.016-.004-.03-.002-.047-.003l.079.024c-.026.018-.103.007-.134.015.038-.017-.031-.008.044-.022" fill="#ffed00"/></g><g transform="translate(386.0215 460.2849)"><path d="m0 0h .002z" fill="#ffed00"/></g><g transform="translate(380.1205 460.1689)"><path d="m0 0c-.017 0-.022-.005-.024-.007h.189c-.006.005-.06.012-.024.015-.016.006-.066.001-.073-.006l.014.008c-.044-.011-.074.009-.045.015h-.004l-.12-.039c.044-.002.034.014.087.014" fill="#ffed00"/></g><g transform="translate(376.2375 460.1889)"><path d="m0 0c .025.002.027.004.025.006-.009-.002-.017-.003-.025-.006" fill="#ffed00"/></g><g transform="translate(380.0049 460.1456)"><path d="m0 0-.038-.012c.015.003.029.007.038.012" fill="#ffed00"/></g><g transform="translate(380.2667 460.3329)"><path d="m0 0c0 .001.001.001 0 .002l-.017-.006z" fill="#ffed00"/></g><g transform="translate(379.147 460.0994)"><path d="m0 0-.012-.001c.004 0 .008.001.012.001" fill="#ffed00"/></g><g transform="translate(380.7789 460.4033)"><path d="m0 0-.084-.012c.011.006-.029.004-.012.011-.006-.001-.036-.004-.028-.006h.017c-.044-.016-.017-.023-.091-.035.046-.01.066-.001.09.007.008.001.015.001.022.002l.07.023z" fill="#ffed00"/></g><g transform="translate(377.4088 460.2817)"><path d="m0 0 .001.001c-.001 0-.001-.001-.001-.001" fill="#ffed00"/></g><g transform="translate(377.4134 460.2882)"><path d="m0 0-.004-.005c.005.002.022.005.004.005" fill="#ffed00"/></g><g transform="translate(380.0187 460.1562)"><path d="m0 0c-.001-.003-.006-.007-.014-.011l.028.01c-.004 0-.009 0-.014.001" fill="#ffed00"/></g><g transform="translate(380.0829 460.1919)"><path d="m0 0 .071.002.026.009c-.027-.003-.059-.006-.097-.011" fill="#ffed00"/></g><g transform="translate(379.2588 460.0898)"><path d="m0 0c-.147-.003.036.019-.031.024-.041-.002-.055-.012-.081-.014.116.007-.016-.03.102-.026-.017-.016-.085-.018-.125-.013-.045.016.04.012.05.027-.047-.002-.039-.005-.059-.014-.074.003-.153-.02-.197.002-.054-.003-.05-.011-.081-.019-.006-.017.08-.009.1-.023-.004.002-.012.005-.01.007l.046-.003c-.044.005.006.017.03.018.017 0 .051.001.046-.004l-.026-.003c.033-.006.074.012.109.003.002-.004-.012-.006-.014-.008.04.011.078.011.136.019l-.034-.017c.047.019.152.013.225.004-.008.002-.022.004-.013.008.042.004.075-.008.055-.017.042.014.16-.011.217.007l.263.086c-.01-.003-.02-.004-.031-.005-.024.015-.037.013.005.027-.041-.008-.025-.02-.087-.02.024.007.03.024-.029.026-.148-.015-.246-.057-.384-.079-.005.012-.114.008-.167.011.02.012.06.016.1.018l-.102.002z" fill="#ffed00"/></g><g transform="translate(379.6025 460.1282)"><path d="m0 0c-.004.001-.008.002-.011.002.002-.001.005-.002.011-.002" fill="#ffed00"/></g><g transform="translate(379.3864 460.1119)"><path d="m0 0c .001 0 0 .001.001.001l-.013-.001z" fill="#ffed00"/></g><g transform="translate(379.9841 460.182)"><path d="m0 0c .009.003.015.004.024.007-.005-.001-.012-.002-.019-.003-.006-.001-.009-.003-.005-.004" fill="#ffed00"/></g><g transform="translate(380.0137 460.1619)"><path d="m0 0-.005-.005.01-.001c.001.003 0 .005-.005.006" fill="#ffed00"/></g><g transform="translate(378.6983 460.1931)"><path d="m0 0-.014-.002c.008 0 .012.001.014.002" fill="#ffed00"/></g><g transform="translate(379.0954 460.1092)"><path d="m0 0c .051.001.006.017.078.017l-.021.001c.052.007.143.004.204.005-.007-.007.038-.009.031-.019.042.002.083.005.105.016.026-.004.065.006.099.001-.014.007.047.022-.034.014.007.001.003.002.009.003-.052.009-.073-.006-.117-.006-.027.006.043.01.018.012-.056-.005-.175.008-.172-.016-.04-.001-.046.004-.058.008-.064-.025-.239.011-.238-.021.023.001.062 0 .096.007z" fill="#ffed00"/></g><g transform="translate(379.8984 460.1804)"><path d="m0 0c-.003 0-.007 0-.01 0z" fill="#ffed00"/></g><g transform="translate(380.4789 460.0827)"><path d="m0 0-.039.002c.009-.003.024-.003.039-.002m.063.004-.021-.021c-.122-.005-.166.001-.272 0-.008.003.005.005.012.006-.075-.003-.187.002-.241-.008-.024 0-.086.007-.063.013-.011-.002-.024-.004-.038-.003-.003.008.03.002.031.009-.011 0-.015.001-.017-.001.017.007-.019.026.064.025.032-.017-.057-.002-.038-.021.027 0 .024.007.026.01.035-.001.034-.006.032-.01.014.006.058-.003.076.007.068.001-.004-.015.041-.015l.025.02.074-.004c.107.007-.015.034.107.046-.016-.011.033-.028.09-.032-.034-.001-.097-.014-.141-.008.062-.016-.085-.002-.053-.02.031.009.082.01.121.005l-.013-.001c.043-.003.075.018.133.01.029.001.024-.005.019-.009.024.003.046.007.046.002" fill="#ffed00"/></g><g transform="translate(385.4063 460.3157)"><path d="m0 0 .012-.002c-.003.001-.007.002-.012.002" fill="#ffed00"/></g><g transform="translate(381.9613 460.3233)"><path d="m0 0 .022-.001c-.008.001-.015.001-.022.001" fill="#ffed00"/></g><g transform="translate(382.4659 460.3887)"><path d="m0 0 .033.005c-.013-.001-.023-.002-.033-.005" fill="#ffed00"/></g><g transform="translate(385.1382 460.3171)"><path d="m0 0h-.001l-.005-.001z" fill="#ffed00"/></g><g transform="translate(383.4779 460.3424)"><path d="m0 0c .005-.002.011-.003.018-.004-.001.002-.007.003-.018.004" fill="#ffed00"/></g><g transform="translate(382.4598 460.3878)"><path d="m0 0h .002l.004.001z" fill="#ffed00"/></g><g transform="translate(381.739 460.381)"><path d="m0 0-.014-.002c.006 0 .011.001.014.002" fill="#ffed00"/></g><g transform="translate(381.7707 460.325)"><path d="m0 0c-.005 0-.01-.001-.014-.002z" fill="#ffed00"/></g><g transform="translate(380.9933 460.3634)"><path d="m0 0-.03-.003c.015 0 .023.002.03.003" fill="#ffed00"/></g><g transform="translate(381.6906 460.3379)"><path d="m0 0c-.002-.001-.004-.002-.005-.003.004.001.006.002.005.003" fill="#ffed00"/></g><g transform="translate(385.5987 460.2567)"><path d="m0 0h-.002l-.001-.002z" fill="#ffed00"/></g><g transform="translate(385.6722 460.2856)"><path d="m0 0 .027.002c-.01 0-.02-.001-.027-.002" fill="#ffed00"/></g><g transform="translate(383.9175 460.3105)"><path d="m0 0c .008-.003.027-.006.018-.01.015.005.014.015-.018.01" fill="#ffed00"/></g><g transform="translate(385.4511 460.1328)"><path d="m0 0c .005.003.011.005.017.007-.011-.003-.021-.006-.017-.007" fill="#ffed00"/></g><g transform="translate(385.468 460.1396)"><path d="m0 0c .006.001.011.003.016.004-.005-.001-.011-.002-.016-.004" fill="#ffed00"/></g><g transform="translate(383.7137 460.1463)"><path d="m0 0c-.002.001-.005.002-.009.003.001-.003.004-.003.009-.003" fill="#ffed00"/></g><g transform="translate(385.7203 460.284)"><path d="m0 0c .005.005.12.015.023.017.004.015.063.007.088.011-.018.003.01.009.004.014-.013-.001-.028-.006-.049-.004-.01.006.022.011.047.008-.031.008.04.012-.004.018-.094-.005-.16-.011-.226-.032.053.003.113.008.157.002l-.019-.013c-.049.011-.08.003-.129.004l.11-.007c.051-.01.017-.013-.024-.015.01 0 .019-.001.022-.003" fill="#ffed00"/></g><g transform="translate(385.6465 460.1725)"><path d="m0 0h .002c.001 0 .003 0 .004.001z" fill="#ffed00"/></g><g transform="translate(380.9988 460.1063)"><path d="m0 0-.009-.005c.007.002.01.004.009.005" fill="#ffed00"/></g><g transform="translate(385.5811 460.2341)"><path d="m0 0c-.001 0-.001 0 0 0" fill="#ffed00"/></g><g transform="translate(381.2331 460.1053)"><path d="m0 0s-.001-.001-.001-.001c.001 0 .001.001.001.001" fill="#ffed00"/></g><g transform="translate(381.2957 460.3793)"><path d="m0 0c0 .001-.001.001-.002.002-.005-.001-.002-.002.002-.002" fill="#ffed00"/></g><g transform="translate(381.2333 460.1065)"><path d="m0 0v-.001z" fill="#ffed00"/></g><g transform="translate(382.3723 460.1532)"><path d="m0 0s-.004.002-.009.004c-.002-.001 0-.002.009-.004" fill="#ffed00"/></g><g transform="translate(382.1475 460.172)"><path d="m0 0-.004.001z" fill="#ffed00"/></g><g transform="translate(383.8643 460.3678)"><path d="m0 0c-.011 0-.019 0-.027-.001.009 0 .017 0 .027.001" fill="#ffed00"/></g><g transform="translate(381.2318 460.1042)"><path d="m0 0c-.002-.001-.006-.003-.011-.004.006.001.009.003.011.004" fill="#ffed00"/></g><g transform="translate(382.7151 460.2173)"><path d="m0 0-.007-.001.004-.001z" fill="#ffed00"/></g><g transform="translate(382.8325 460.208)"><path d="m0 0c-.004-.001-.006-.003-.008-.004.042.005.119-.001.128.013-.014-.001-.088.007-.076.015-.029-.003-.072.006-.088.004.048-.007.006-.011-.027-.016-.029.004.006.011-.02.014l-.068-.002.06-.002-.018-.013.006.002c.1.006.008-.019.111-.011" fill="#ffed00"/></g><g transform="translate(382.8244 460.2038)"><path d="m0 0c-.006-.001-.012-.002-.016-.003.009 0 .013.001.016.003" fill="#ffed00"/></g><g transform="translate(383.2343 460.1823)"><path d="m0 0c .005 0 .011.001.018.002z" fill="#ffed00"/></g><g transform="translate(380.2301 460.2006)"><path d="m0 0c .002-.004.06-.012.059-.002l-.052.003z" fill="#ffed00"/></g><g transform="translate(384.351 460.2404)"><path d="m0 0c-.007 0-.013 0-.02 0-.001 0-.002-.001-.003-.001.004-.002.016 0 .023.001" fill="#ffed00"/></g><g transform="translate(382.8951 460.237)"><path d="m0 0c-.011-.002-.016-.003-.018-.005.007.001.013.002.018.005" fill="#ffed00"/></g><g transform="translate(384.3547 460.2166)"><path d="m0 0c .008-.003.021-.007.022-.011.017 0 .029.005.046.007-.019-.001-.042 0-.068.004" fill="#ffed00"/></g><g transform="translate(384.4245 460.2128)"><path d="m0 0h-.001z" fill="#ffed00"/></g><g transform="translate(380.8064 460.3484)"><path d="m0 0h-.002zm1.198-.104-.066-.004h.007l-.065-.009c.04-.005.066-.017.01-.023.005.005-.012.011.008.013-.038.007-.12.014-.098-.003.072.016.017-.022.073-.01-.03-.011-.06-.006-.089-.011.03.009-.007.021-.052.025-.019-.002-.072 0-.104-.004.011-.011-.017-.017.036-.02-.019-.002-.049-.005-.083.001.013.002.037.003.035.007-.022.009-.047.009-.061.013l-.033-.002c.003 0 .006-.002.008-.003l-.037-.009c.049.005.023-.005.022-.011.001.012-.032.001-.049.001l.037-.013c-.018-.007-.063.009-.053-.004.078-.005.107-.003.178.001l-.029.01c.08.007.049-.017.138-.017.038.01.135.001.136.02-.011-.006.056-.017.086-.008.034.016.136.019.105.026-.027.001-.064-.009-.087.002l.054.004-.035.009c.018-.003.016.006.008.019m.222.014c.035-.026.073-.049.235-.044l-.012-.002c.082-.016.159.022.259.004-.048-.01-.046-.009-.099-.032l.052.008c-.015-.015.037-.007.075-.008l-.034-.017c-.022.005-.082.007-.08.003.013.002-.078.021-.128.016.006-.011.11-.007.063-.025.042.008.047-.004.09 0-.042-.008-.011-.015-.041-.024l.07.004c.002-.004-.102-.008-.045-.022.029.006.104-.002.105.01l.002-.003c.053-.003.023.017.088.01.001.006-.011.011-.035.009-.019-.002-.022-.011-.063-.013-.018.01.049-.001.021.015-.014.009-.107-.007-.077.012l.052-.003c.002.012.04.012.039.022.032.004.063-.01.096.001.013.008-.011.023.044.016.043-.018.168-.014.215-.012l.041.008c-.003.008-.078-.001-.052.009l.064.003-.005-.005c.021-.001.043.004.063.007-.02-.009-.067-.005-.057-.018.03-.003.034-.008.062-.005-.006-.001-.011-.002-.011-.004.061-.006.059.014.075.019.061.016-.062.015-.054.028l.179.007c-.016-.004-.031-.008-.025-.013.044-.006.001-.01.062-.01-.004.018.078.011.121.022.021-.008.025-.009-.019-.009.005-.012.064-.007.086-.008.012.002.033.004.046.007-.018.005-.01.012.029.017l.002.003c-.063.003-.162.015-.201.004l.011.005c-.073.01-.159-.02-.193.001.003.009-.015.002-.014.015l-.053-.01.011.006-.092-.003.003.002-.105-.028c0-.005.002-.007-.012-.011-.015-.002-.026-.003-.036-.002-.022.002-.037.009-.065.012l.085.002c.007.009 0 .018-.042.025.017 0 .025.007.003.008-.002-.002-.055-.006-.035-.013-.081-.003-.212.021-.335.003.088.011-.071.013.027.016-.068.015-.059-.014-.128-.012-.006.006.038 0 .054.01-.116.006-.196-.024-.308-.019l-.005.011zm1.883-.016c.007.001.009.004.009.004-.142-.027-.258-.035-.335-.034.015-.011.084-.019.116-.024l-.029-.012-.018.01-.05-.011c.014-.008.055-.007.082-.013.002.002.089.017.113.024l-.069.008c.018-.003.11 0 .146.003.001.006-.062.016-.069.002-.008.009.064.009.019.019.054.01.14.002.18-.003l.007-.015c.043-.006.029.018.081.01-.064-.003.011-.017-.04-.018.016-.006 0-.016.051-.015.043.02.054-.013.094.005.027-.006-.029-.012.024-.015.061.011.057.018.061.033-.057.004-.064-.019-.11-.016l.092.026c-.017.003-.029.004-.04.002.019.002.034.006.048.011.007.003.015.005.021.007-.052 0-.098.001-.107.007l.008.007c-.019.007-.049.001-.063-.004-.047 0-.093-.01-.104-.001l.018.006c-.057-.002-.064-.003-.136-.003m.729-.026c.001-.001.006-.004.013-.008l-.036-.008c-.063.004-.114.025-.171.007-.027.004-.041.014-.054.022.013-.001.025-.002.035-.003.16.027.083-.028.213-.01m-3.877-.038c.019.013.08.013.084.028.004.004-.009.005-.023.007l-.052.001c-.001-.002-.005-.004-.011-.006.019-.002.031-.006.023-.015-.046.02-.042-.014-.092-.009-.016-.01.056-.01.071-.006m-.291.035.01.011-.03.001c.003-.005.007-.009.02-.012m-.091.014.004.001-.032.001c.004-.001.013-.002.028-.002m.87-.007c-.005 0-.009 0-.012.001zm-.039-.015c.045-.003.035.003.042.009l-.047-.002c.005-.002.008-.004.005-.007m-.056.049-.234.008c.136-.029.233-.051.004-.051l-.015-.002c.03-.003.082-.004.13-.002.039.01.166.048.164.052-.014.008-.034-.001-.059.001zm-4.995-.046c.003.001.006.003.008.005-.002-.002 0-.004-.008-.005m3.836-.004-.016-.002.009.003-.041.003c-.005-.001-.01-.001-.016-.002l.006.003-.013.001c-.032-.01-.112-.018-.135-.024-.03-.004-.068-.007-.091-.006.022 0 .05.002.042.008-.044.006-.066.023-.141.008h.044l-.1-.022c-.035.009.05.011.064.019-.078-.011-.143.018-.179-.001-.005.012-.013.031-.064.029.037-.013-.031-.008-.001-.022-.017-.006-.057.004-.06-.004l.005.004c-.087.018-.115-.01-.153-.019-.104-.005-.152.003-.237.001-.003.007-.027.028-.061.028-.016-.011-.093-.016-.101-.029.062-.005.05.011.087.014.03-.013.003-.013.044-.022-.033.006-.151-.007-.188.006l.013.002c-.059.008-.07.041-.167.021l-.047-.008c.002.001.002.003.004.004-.077.001-.056.016-.14.004.006.001.002.003.009.004-.048.007-.096-.008-.133-.011-.022.011.006.011.019.019-.084.004-.175-.015-.228-.028l-.054.006c.032.005.072.016.062.023-.03-.002-.024-.007-.067-.005.007.007.025.013.045.022-.087.012-.019-.025-.081-.003-.027 0-.043-.01-.046-.019l-.05.011c-.006-.011-.067-.011-.107-.013-.005-.004.032-.011.047-.007-.003-.009-.046-.013-.073-.013-.01.023-.181-.003-.148.024-.124-.007-.298-.01-.38-.019-.027.006-.082.006-.049.017-.1 0-.151-.023-.25-.017-.008.003.045 0 .041.008-.065-.009-.118.009-.218.003.017.001.022.006.024.008.002-.004-.041-.008-.067-.012-.015.002.019.003.011.006-.194.011-.342-.02-.534-.019.055 0 .075.015.076.021h-.054c-.021-.007-.061-.007-.095-.013-.004.003-.021.006-.004.01-.107.015-.167-.028-.297-.02l.158.03-.039.011.069.014c-.041.008-.077-.011-.082 0 .009.004.03.003.03.009-.04.004-.043-.004-.073-.007.079.024.234.023.318.029.013.002-.012-.006-.014-.008.034.001.055-.006.097-.002.027.009-.02.007-.041.008.003.008.013.008.037.009.005-.011.129-.004.159-.018.126.004-.02.03.103.025l.036-.013c.072.01.164.019.244.016h-.017c-.011-.006.008-.009.016-.012.061-.006.115.01.152-.003.07.014.185.024.265.031.021-.017-.104-.014-.137-.025h.072c-.044 0-.062-.007-.089-.017.064-.003.085.012.145.017-.005-.005.003-.008.031-.008l.007.011c.001-.001.004-.001.013-.002l.106.007c-.022.005-.023.015-.051.015.01-.007-.014-.008-.041-.008.024.007-.027.006-.026.012.055 0 .123.002.159.005l.012-.011c.053-.002.108.003.144 0l-.011-.005c.063-.003.126.003.182-.007.056.012.127.022.173.035.025.013.166-.017.23.002.004-.002-.044-.01-.066-.016.043-.002.076.015.089.001-.095.005.006-.012-.037-.016.044.001.091.003.113.008-.072 0 .026.02-.047.014.056.012.133.017.201.012-.001-.006.007-.009.032-.012l.02.009c.032-.001-.06-.01.003-.013.065.015.196-.009.225.019.05-.011-.095-.011-.02-.025-.043-.01-.103.002-.118-.012.043.004.016-.012.043-.012l.048.008-.011.001c.08.013.207.007.309.009.087.014.146.035.25.033-.031-.008.086-.008.021-.023.048-.007.095.001.096.007-.042.003-.015.002-.05.005.024.008.079.008.102.003-.011 0-.007-.001-.009-.004.05-.005.024.008.061.011.011-.01.08-.003.113-.008l.049.015c-.027-.01.046-.004.053-.013.035.007.064.019.117.017-.022-.006.048-.008.049-.018.09-.009.149.027.235.013-.003-.002-.02-.009.005-.011.019.002.054.001.075.002h-.001.001c.011.001.017.002.017.005.036.009.055.019.126.028-.005.011-.065.007-.091.003l-.023-.011c-.021.017-.063-.003-.08.002.043.021.165.016.239.028-.045.016-.143.018-.228.016l.038-.006-.045-.001.043-.012c-.042.002-.078-.001-.116 0 .044 0 .062-.016.036-.013-.049.011-.051-.007-.089-.007.021-.001.048-.001.031-.007-.075.013-.096.004-.164.019.009-.019-.085-.002-.095-.017l.032-.002-.067-.012c-.062.016.054.016-.04.027-.087.002-.085-.018-.153-.019.023.011.077.021.132.02l-.033.006c.017.006.094.005.132.004-.063-.013.029-.004.058-.014.005.011-.036.009.012.018-.045 0-.051-.001-.108.003.123-.005.111.038.218.029-.05-.005.017-.016.023-.021.023.001.07.004.09.006l-.018.016c.063.007.084-.027.156-.01.01.009-.063.003-.05.005.099.01.134-.016.222-.028.005.005.004.015.034.023-.009-.009.013-.014-.021-.021.029-.004.064.003.09.007-.061.005.024.013.036.019.031-.002-.01-.009-.029-.012.025-.003.055-.017.069-.002.001-.01-.07-.027-.117-.029l.031-.002c-.021-.005-.026-.003-.057-.002.031-.008.028-.016.021-.023-.004.001.002.002-.002.004-.025.002-.045-.001-.039-.006-.023-.013.035-.008.052-.015l.039.003.132.043c.056.005.081-.006.123-.012l.012.011c.049-.001.095-.004.063-.019-.001.004-.008.003-.018.004-.002-.002-.004-.003-.007-.004-.001-.001-.002-.001-.003-.002l.088.007c-.089-.017-.004-.021-.019-.042l.09.007c-.055.006-.001.01.018.013.005-.012.072 0 .104-.002l-.002-.002c.029-.004.08-.003.116 0-.001.004.045.023.068.034-.063.004-.026.009-.031.016.007-.001.018-.001.02.001.009.003-.012.004-.014.008-.066-.006-.135-.007-.162-.023.021-.007.035.007.058.002-.033-.011-.075-.009-.131-.008l-.018.009-.055-.005c.023.005.009.015.067.017-.007.009-.057-.002-.093.001l-.018-.013c.007.007-.069.009-.015.018l.088.011-.025.009.075.002-.018-.007c.12.009.036-.025.156-.01.038.016.078.017.152.013-.053-.003-.005-.01-.025-.019.054-.007.072.006.101.012.014-.008.024-.015-.025-.014-.006-.017.064.003.068-.014.162 0 .13.056.318.034l-.007-.007c.12.009.189.001.3.006l.087-.018c-.019-.002-.072-.016-.047-.025-.043.019-.088.012-.134.022-.004-.005.014-.008.022-.011-.027 0-.041.008-.078.005.002-.004.042-.008.012-.01l-.05.011c-.066-.005-.032-.027-.11-.022.014.01.044.025.074.027-.036.002.047.006.015.012-.051-.015-.076-.003-.144-.012.008.002.01.005.027.006l-.099.006c.024-.009-.082-.01-.073-.023.105-.005.074.003.195-.004-.034-.003-.078-.016-.099-.028-.001 0-.003 0-.006.001-.019-.013 0-.016 0-.039.055.016.091.003.156.012.012.012-.038.016-.07.013l.057.008-.011-.006.145-.004c-.028-.001-.037-.008-.051-.013.018-.001.037-.004.057-.007-.004.011-.002.02.016.019.094-.002.145-.013.18-.026l.011.001c-.016.012.066.021.095.033-.002-.012.048-.007.074-.013.015.014-.004.033-.037.045-.063-.013-.035-.013-.065-.032l-.101-.012.022.011c-.05.005-.098-.009-.095.005.027.01.071.004.097.014l-.033.005c.059.015.03-.014.101-.004-.026.013.007.001.037.01-.024.008-.125-.004-.104.017.037.01.125-.025.174-.003l-.002-.003c.072-.003.097.01.124.017.031-.007.074.003.107.004l-.001-.006.047.002c-.022-.011-.055 0-.095-.001l.005-.012c-.047.014-.078-.007-.114-.017.053.01.148-.002.161.02l.032-.012.016.005c.024-.009-.001-.023-.048-.025-.008.003-.012.004-.009.006-.022-.005-.042-.014-.095-.011l.028.006c-.066.001-.125-.004-.148-.015.095-.005.188-.006.277-.005.027.026.058.04.071.064.06.005.141.008.193-.001l-.005-.004c.026-.003.049-.002.069.001.026-.006-.019-.013 0-.016l.086.008c-.006-.011-.078-.011-.112-.012.006.001.02.003.015.005-.039.004-.114-.014-.131.001-.019-.002.039.012-.026.013-.044.006-.059-.008-.063-.013-.001-.006.069-.009.045-.016.034.001.047.009.091.003-.034-.001-.08-.014-.098-.004-.067-.011-.057-.04-.026-.042-.007.009.123.011.035.023.039.012.111.012.163.019l-.002-.002.064.003c-.009-.004-.028-.006-.029-.012l.089.016c-.05-.011.031-.008.054-.013.009.01.044.017.01.022-.037.007-.021-.005-.055-.006l.048.015.004-.001.029.012c.066-.001-.029-.028.055-.016l-.011.016c.098-.002.223-.021.292-.013-.019-.01-.028-.025-.001-.034-.03.003-.09.002-.132.001-.009.003.053.019.099.016-.022.027-.116-.017-.122.011-.118.01-.088-.027-.188-.01-.001-.013-.028-.006-.033-.017.029-.02.133 0 .198-.007-.006-.001-.019-.002-.021-.005.046-.003.065-.001.098.004l-.004.001c.056.012.035-.009.068-.014.013.002.059-.002.052.007l.06-.012-.003.014c.034.001.042-.008.072 0l .002.013-.085.004c.043.004.012.012.059.014-.052-.013.038-.007.043-.018l.034.007-.008-.003c.027-.007.032.004.064.003-.038.006-.062.015-.11.006.035.007.104.015.12.015.037.006.062-.004.096-.005-.065-.005.023-.038-.108-.029.003.003.013.002.017.001-.017.015-.078-.001-.107-.007.008-.009-.022-.012.028-.017-.016.006.043.021.091.013l-.009-.019.07-.003h-.006c.026-.013.074.002.122-.005.035.007.168.001.111.021.043-.012.081.004.128.006l-.059.008c.07.014.05.005.105.027.006-.005.018-.01.007-.015.093-.001.226-.007.281.009.066-.001.076-.023.168-.014.02.002-.015.018.046.012.004-.001-.059-.014.009-.013.049.015.114-.008.177.005.033-.005.091-.003.079-.015-.053.002-.127 0-.139-.006.008.007-.037.007.002.013-.08.009-.052-.008-.123-.001-.005-.005.036-.014.052-.009 0-.016-.141-.008-.078-.027.077-.002.099.032.165.015-.026-.01-.068-.002-.101-.019l.054-.006.039.012-.002-.003c.096-.015.089.017.175.025-.05.011.011.028-.026.035.057.002.1 0 .1-.017-.108-.013-.006-.017-.106-.033.017-.005-.023-.023.036-.025.067.011-.02.013.047.019.004-.002.008-.003.005-.006.031.009.036-.003.073.007l-.009-.004c.046-.009.05.012.089.001-.015.012.027.01.051.017-.04.005-.061.022-.14.021-.009-.01-.004-.015-.036-.019l.051.001c-.011-.002-.019-.004-.029-.006l-.049.005c.062.007.033.017.06.026.057-.004.047.003.083 0-.004-.014.109-.024.175-.033-.01.001-.023.001-.03.001-.048-.009.032-.012.034-.015l.035.007c-.007-.001-.016-.005-.001-.007.047.003.044.017.091.019.004-.007-.036-.019-.007-.023.01-.007.042-.024.105-.018.004.003.02.005.039.006-.003 0-.006-.001-.007-.001l.041-.008c-.035-.013-.071.006-.107-.007l-.003-.013c-.027 0-.065-.005-.082-.012.042-.002.051.002.098.004.007-.008-.026-.013-.031-.014l.007.007c-.056.01-.084-.012-.154-.01-.01.001-.004.002-.002.004-.056-.012-.112.004-.167-.011l.018.006c-.037-.005-.11-.017-.183-.029l-.001-.005c.008-.003-.019-.003-.034-.001-.036-.006-.072-.011-.1-.015.009-.003.021-.005.034-.006.011.005.079.001.069.014.031-.008.081.003.104-.002-.041.008.029.012.036.019.014-.008.062.001.057-.01.008-.003-.021.007-.039.001-.043-.01.08-.009.026-.019.069.008.16.005.231.015l-.04.004c.032-.002.106.001.112-.004-.024-.002-.051-.002-.081-.004-.002-.012.072 0 .075-.007l.088.02-.039.001c.025.007.104-.002.164-.003-.034-.017-.09-.001-.152-.008-.045-.006.028-.016-.015-.02.011-.004.039-.003.053.001l.017-.003c-.038-.016-.124-.012-.181-.025.005.001.009.003.011.005-.044.006-.089.006-.131.001.022-.004.031-.001.044.001.002-.004-.039-.006-.054-.01.04-.004.008-.009.033-.011-.026-.004-.047-.003-.079-.001-.016.005.014.008.01.015-.032-.004-.047.014-.095.005.064-.003-.016-.017-.038-.022h.01c-.02-.009-.037-.009-.05-.001.025.003.05.001.043.01-.017-.001-.034-.001-.053-.004l.017.007-.085-.002c-.013-.008-.036-.019-.048-.031-.02.007-.049.001-.068-.002l.009.004c-.037.007-.121.001-.128-.006-.027.006.19.045 0 .038-.072 0-.045-.022-.086-.03 0 0 .002.002-.002.004-.031.001-.034-.007-.06-.011.018-.003.046-.004.055 0-.01-.01-.066.001-.09-.007.031.015-.061.006-.037.013-.063.01-.13-.002-.163-.013-.042.019-.074-.002-.143.006.01 0 .03.003.044.001.04.011-.071.006-.01.016-.013-.002-.001-.006.012-.004.023.001.045.006.039.012l-.056.01.02.003-.086.014c-.002-.003.006-.005.01-.007-.099.006-.212-.002-.299 0-.017-.032-.214-.014-.284-.034.019.01.029.026.017.033.016.001.048.014.083.012.006-.005.05-.011.022-.017.098.003-.014.014.015.026-.108-.003-.172-.022-.241-.03l-.001.004-.052-.007c.042-.003.04-.021-.014-.015l.006.001c-.031.008-.096-.001-.144 0l-.033-.011c-.049.002-.051.022-.067.034-.076.001-.12-.015-.174-.025-.025.009-.139.011-.078.021-.069-.007-.055-.054-.173-.028l.03.008c-.112-.002-.273-.018-.325-.009.041.03-.141.03-.161.06.005-.007-.037-.009-.043-.013-.01.004-.025.007-.041.001.044-.006-.031-.031.053-.019-.043-.02-.098-.036-.191-.035l.001.012.074-.003c-.007.009.031.008.046.012-.137.007.018.029-.122.027-.014-.008-.005-.004-.041-.007.017 0 .02.009-.008.009l-.026-.01c-.049.02.081.013.039.028.054.009.148.014.131.03-.089.006-.08-.029-.172-.022l-.01.007c-.033-.005-.038-.016-.056-.022-.002.003-.01.006-.031.007-.055-.015-.091-.019-.142-.036.135.013.116-.012.255 0-.022-.005-.12-.009-.126-.026l.001.012c-.045-.006-.09-.013-.147-.008l.035.006c-.076-.008-.126.019-.185-.001.021-.001.038-.001.051.001-.039-.006-.088-.005-.13-.002l-.087-.021c.001.006-.055.007-.028.017-.063.009-.092-.009-.129-.013-.064.014.056.006.062.023-.088.006-.182.001-.232-.01.018-.003.027-.005.026-.008-.003.004-.038.003-.058.003l-.014-.008c-.033.006-.029.01 0 .016-.032.002-.07-.014-.102-.002.054.01.123.001.151.007-.113-.008-.114.025-.257.014-.002.004.022.012-.005.012-.064-.003-.017-.017-.037-.026.049.005.072.001.101-.01l-.014-.006c-.002.003-.032.004-.042.007l-.008-.013c.004.014-.045.025-.084.02.039-.011.028-.01.039-.027-.055-.016-.062.016-.123-.001.005.005.058.008.012.012-.038 0-.033-.011-.059-.015.029.013.022.022.053.036.068.002.027 0 .094.005l-.056.011c.057.002.042.013.046.018-.098.013-.074-.018-.137-.015-.031-.009.059-.002.011-.011-.059.002-.013-.008-.08-.013l.012.006c-.021.007-.041-.002-.064-.003-.026-.004.029-.043-.077-.043.005.003.007.005.007.006l.103.103c-.107 0-.231.003-.356.01-.029.02.089.016.081.025l.057-.004c-.003-.009-.119-.003-.068-.018.101.006.146-.003.242.014-.03.02-.126-.003-.188.012.026-.001.048.001.07.004l-.187.008-.015-.005c.045-.002.075-.003.079-.004-.059.002-.109-.01-.113-.024l.011-.001-.021-.004z" fill="#ffed00"/></g><g transform="translate(385.6301 460.2551)"><path d="m0 0c .015.004.053.003.046.013.001-.01-.068-.002-.046-.013" fill="#ffed00"/></g><g transform="translate(385.6756 460.2454)"><path d="m0 0c .003.002.001.006.018.007l-.047-.003z" fill="#ffed00"/></g><g transform="translate(385.7233 460.1774)"><path d="m0 0c .024.007.04.012.078.011.014-.024-.063-.007-.08-.029.07-.003.091.018.149.02-.029.011-.145.016-.147-.002" fill="#ffed00"/></g><g transform="translate(385.6923 460.1467)"><path d="m0 0 .039.005-.004.002-.039-.006z" fill="#ffed00"/></g><g transform="translate(384.8522 460.3576)"><path d="m0 0c-.003.008-.028 0-.041-.002.011 0 .026-.002.041.002" fill="#ffed00"/></g><g transform="translate(377.2311 460.3655)"><path d="m0 0-.296-.007c.085.002.164.003.296.007" fill="#ffed00"/></g><g transform="translate(383.8705 460.308)"><path d="m0 0c .079.007.115.02.196.024-.107.015-.141-.024-.23-.009z" fill="#ffed00"/></g><g transform="translate(383.8985 460.3685)"><path d="m0 0c .013-.014-.061-.017-.05-.027.054.003.025.013.074.012z" fill="#ffed00"/></g><g transform="translate(384.2585 460.1323)"><path d="m0 0-.024-.007.019.002z" fill="#ffed00"/></g><g transform="translate(383.5364 460.3558)"><path d="m0 0 .009.003-.04.005z" fill="#ffed00"/></g><g transform="translate(383.554 460.3624)"><path d="m0 0-.009-.003z" fill="#ffed00"/></g><g transform="translate(384.2275 460.1017)"><path d="m0 0 .036-.003.018.006z" fill="#ffed00"/></g><g transform="translate(383.9115 460.1783)"><path d="m0 0 .032.005c-.006-.001-.05.005-.032-.005" fill="#ffed00"/></g><g transform="translate(383.2932 460.3619)"><path d="m0 0-.039-.005.004-.002.039.006z" fill="#ffed00"/></g><g transform="translate(383.6608 460.1389)"><path d="m0 0c .022-.011-.064-.003-.018-.013.04.002.024.008.018.013" fill="#ffed00"/></g><g transform="translate(383.1906 460.2134)"><path d="m0 0c-.005 0-.011 0-.016-.002.006.001.012.001.016.002" fill="#ffed00"/></g><g transform="translate(383.1906 460.2134)"><path d="m0 0c .017 0 .034-.004.046-.001-.022.005-.029.003-.046.001" fill="#ffed00"/></g><g transform="translate(382.9962 460.2109)"><path d="m0 0 .015-.001c-.015-.005-.008-.004.006 0 .016 0 .015.004.017.006l.01.004-.013-.004c-.025.001-.041 0-.035-.005" fill="#ffed00"/></g><g transform="translate(382.2739 460.396)"><path d="m0 0c .057-.004.072-.006.068-.015.054-.002.046.012.079.016-.061-.002-.074.002-.147-.001" fill="#ffed00"/></g><g transform="translate(382.4205 460.3967)"><path d="m0 0 .021.001c-.009 0-.015 0-.021-.001" fill="#ffed00"/></g><g transform="translate(383.2234 460.1176)"><path d="m0 0-.035-.013.013.002z" fill="#ffed00"/></g><g transform="translate(382.1896 460.4003)"><path d="m0 0c .011-.001.027 0 .036-.003.003.008-.047.003-.036.003" fill="#ffed00"/></g><g transform="translate(382.4088 460.2331)"><path d="m0 0c .006-.005.042-.002.057-.004-.021.001-.039.017-.057.004" fill="#ffed00"/></g><g transform="translate(382.0266 460.3651)"><path d="m0 0c .011-.001.027-.006.02-.013.015.004.036.019-.02.013" fill="#ffed00"/></g><g transform="translate(382.3049 460.2346)"><path d="m0 0 .008-.003.039.006z" fill="#ffed00"/></g><g transform="translate(382.4436 460.1087)"><path d="m0 0c .044.01-.069.025.006.033-.097.011.007-.014-.064-.013.042-.003.062-.016.058-.02" fill="#ffed00"/></g><g transform="translate(382.3854 460.1291)"><path d="m0 0c-.006.001-.013.001-.02.001z" fill="#ffed00"/></g><g transform="translate(381.7698 460.1935)"><path d="m0 0c .006.001.011.002.015.003-.005 0-.01-.001-.015-.003" fill="#ffed00"/></g><g transform="translate(382.1564 460.1207)"><path d="m0 0 .066.015c-.044-.01-.154-.009-.148-.024.036-.004.079 0 .097.007z" fill="#ffed00"/></g><g transform="translate(381.4039 460.3965)"><path d="m0 0 .028.006-.035.002c.01-.002-.008-.014.007-.008" fill="#ffed00"/></g><g transform="translate(381.39 460.4046)"><path d="m0 0h .007c-.002 0-.004 0-.007 0" fill="#ffed00"/></g><g transform="translate(381.8938 460.2009)"><path d="m0 0c .021-.001.038-.001.057.002-.008.003-.06.006-.057-.002" fill="#ffed00"/></g><g transform="translate(381.2045 460.3744)"><path d="m0 0 .047.003-.051-.002z" fill="#ffed00"/></g><g transform="translate(380.9863 460.4003)"><path d="m0 0-.008.003-.039-.006.008-.002z" fill="#ffed00"/></g><g transform="translate(381.2716 460.101)"><path d="m0 0c .032-.002.056.012.048.015l-.061-.001c.015-.012.017.001.052-.002z" fill="#ffed00"/></g><g transform="translate(379.3671 460.3779)"><path d="m0 0c .014.008.081.003.084-.004-.009-.004-.045-.007-.022-.012l.053.02c.071-.012-.054-.026-.089-.033.072-.002.094.011.17.011-.022.001-.036.006-.048.011-.003.013.068.007.119.008-.032.006-.013.011.01.017.005 0 .008.001.01.002l.008.002h-.007c.001.001 0 .003-.005.006-.043-.004-.075.007-.103.008.027-.023-.094-.006-.129-.013l-.04-.002h-.015c-.003.003.002.006.024.01-.019-.004-.082-.003-.076-.01h-.145c-.005.001-.009.002-.013.003-.005-.001-.006-.002-.005-.003l-.632-.002c.031-.001.058-.007.09-.009-.048-.015.053-.003.039-.017-.022-.005-.054-.003-.073 0-.007-.007.02-.013.017-.022.08-.009.092.025.17.02-.003-.008-.027-.016.024-.015l-.013-.002c.082.01.064-.019.115.004l-.001-.012c.037.009.109.009.149.011l-.002-.002c.114.014.064.003.192.009l-.059-.015c.044-.006.054.01.086.008-.002-.002.005-.011-.025-.013l.155.022c.037.009-.007.009-.013.014" fill="#ffed00"/></g><g transform="translate(379.5635 460.3596)"><path d="m0 0c .008-.001.018-.001.029 0-.011 0-.02 0-.029 0" fill="#ffed00"/></g><g transform="translate(378.4716 460.3971)"><path d="m0 0h .044c-.013.001-.028.001-.044 0" fill="#ffed00"/></g><g transform="translate(379.7861 460.3865)"><path d="m0 0c-.027.006.02.009.025.014l-.097-.001c.001-.004-.009-.01-.007-.014z" fill="#ffed00"/></g><g transform="translate(379.6866 460.4088)"><path d="m0 0c-.003-.003-.013-.006-.025-.009h.053c0 .004-.006.007-.028.009" fill="#ffed00"/></g><g transform="translate(379.6968 460.1557)"><path d="m0 0h-.017l-.026-.004z" fill="#ffed00"/></g><g transform="translate(379.4298 460.1765)"><path d="m0 0c .02-.007.059-.002.072 0-.045 0-.025.003-.072 0" fill="#ffed00"/></g><g transform="translate(379.4849 460.0994)"><path d="m0 0-.043-.004.004-.001z" fill="#ffed00"/></g><g transform="translate(378.1434 460.3486)"><path d="m0 0-.021-.001c.01 0 .016.001.021.001" fill="#ffed00"/></g><g transform="translate(378.5121 460.3604)"><path d="m0 0c-.103.014.067.011.035.029l-.056-.006.005.005-.068-.001c.014-.009.024-.009.021-.018-.091.004-.028.01-.095.021l-.101-.001.008.002c-.009 0-.013-.001-.016-.002l-.342-.006c-.062-.006.035-.015-.011-.028.072 0 .179-.009.185.008-.002-.002-.007-.007.008-.009l.042.014-.04.005c.042.014.177.011.202.002-.077-.005-.039-.022-.146-.012.005-.005.024-.012 0-.015.126.005.239-.003.369.012" fill="#ffed00"/></g><g transform="translate(377.2507 460.3521)"><path d="m0 0 .001.002c-.002-.001-.003-.002-.001-.002" fill="#ffed00"/></g><g transform="translate(377.2929 460.35)"><path d="m0 0 .061.017-.095-.002-.007-.011c.008.003.042.009.055.004z" fill="#ffed00"/></g><g transform="translate(377.4254 460.3768)"><path d="m0 0c-.049-.005-.047-.019-.02-.025-.045-.006-.024.015-.055 0 .001-.01.057-.004.07-.002z" fill="#ffed00"/></g><g transform="translate(377.7895 460.3696)"><path d="m0 0-.014-.006.034-.001z" fill="#ffed00"/></g><g transform="translate(377.7756 460.3638)"><path d="m0 0-.034.002c.002-.005.005-.009.01-.012z" fill="#ffed00"/></g><g transform="translate(377.6526 460.3694)"><path d="m0 0c-.014.001-.03.002-.05.002z" fill="#ffed00"/></g><g transform="translate(377.6914 460.3658)"><path d="m0 0-.001.002-.038.002z" fill="#ffed00"/></g><g transform="translate(377.7417 460.3654)"><path d="m0 0c-.006.01-.012.02-.061.017l.01-.015z" fill="#ffed00"/></g><g transform="translate(379.1724 460.114)"><path d="m0 0-.039-.005.004-.002.039.006z" fill="#ffed00"/></g><g transform="translate(378.9484 460.1228)"><path d="m0 0c-.01-.002-.017-.003-.023-.005.01.001.018.002.023.005" fill="#ffed00"/></g><g transform="translate(378.7819 460.0569)"><path d="m0 0c-.046.01.063.013-.022.017-.007.009.033.021.072.016-.003-.008-.038-.005-.014-.014.027.01.037.003.027.016.045.008.05.017.08.026-.054-.006-.167.007-.235-.009-.038-.016-.015-.037-.015-.059.006-.005.103-.008.107.007" fill="#ffed00"/></g><g transform="translate(378.8538 460.0347)"><path d="m0 0c .021-.001.028 0 .041.002-.004.007-.024-.002-.041-.002" fill="#ffed00"/></g><g transform="translate(378.3682 460.2022)"><path d="m0 0c-.004-.003-.042-.007-.034-.013l.058.004c-.014.001-.019.005-.024.009" fill="#ffed00"/></g><g transform="translate(378.4175 460.1954)"><path d="m0 0-.025-.002c.006 0 .014 0 .025.002" fill="#ffed00"/></g><g transform="translate(378.3654 460.2042)"><path d="m0 0 .003-.002c.001.001 0 .001-.003.002" fill="#ffed00"/></g><g transform="translate(377.512 460.3749)"><path d="m0 0c .001.006-.025.002-.038.001.011-.001.025-.003.038-.001" fill="#ffed00"/></g><g transform="translate(376.5398 460.3509)"><path d="m0 0-.023.005c.008-.003.012-.005.023-.005" fill="#ffed00"/></g><g transform="translate(376.1882 460.184)"><path d="m0 0c-.001-.001-.002-.002-.005-.003.003.001.004.002.005.003" fill="#ffed00"/></g><g transform="translate(376.1836 460.1809)"><path d="m0 0c-.016-.005-.064.003-.081-.005l.002.002-.032-.004c.03.001.094 0 .111.007" fill="#ffed00"/></g></g></svg>