<?xml version="1.0" encoding="UTF-8" standalone="no"?>
<!-- Created with Inkscape (http://www.inkscape.org/) -->

<svg
   xmlns:dc="http://purl.org/dc/elements/1.1/"
   xmlns:cc="http://creativecommons.org/ns#"
   xmlns:rdf="http://www.w3.org/1999/02/22-rdf-syntax-ns#"
   xmlns:svg="http://www.w3.org/2000/svg"
   xmlns="http://www.w3.org/2000/svg"
   xmlns:sodipodi="http://sodipodi.sourceforge.net/DTD/sodipodi-0.dtd"
   xmlns:inkscape="http://www.inkscape.org/namespaces/inkscape"
   width="5.4191003mm"
   height="2.7055585mm"
   viewBox="0 0 5.4191003 2.7055585"
   version="1.1"
   id="svg57359"
   inkscape:version="0.92.0 r15299"
   sodipodi:docname="TV Ruzinov.svg">
  <defs
     id="defs57353">
    <clipPath
       clipPathUnits="userSpaceOnUse"
       id="clipPath21416">
      <path
         d="m 372.123,460.03 h 15.475 v 7.72 h -15.475 z"
         id="path21414"
         inkscape:connector-curvature="0" />
    </clipPath>
  </defs>
  <sodipodi:namedview
     id="base"
     pagecolor="#ffffff"
     bordercolor="#666666"
     borderopacity="1.0"
     inkscape:pageopacity="0.0"
     inkscape:pageshadow="2"
     inkscape:zoom="31.678384"
     inkscape:cx="10.064975"
     inkscape:cy="6.8920568"
     inkscape:document-units="mm"
     inkscape:current-layer="layer1"
     showgrid="false"
     fit-margin-top="0"
     fit-margin-left="0"
     fit-margin-right="0"
     fit-margin-bottom="0"
     inkscape:window-width="1920"
     inkscape:window-height="1017"
     inkscape:window-x="-8"
     inkscape:window-y="-8"
     inkscape:window-maximized="1" />
  <metadata
     id="metadata57356">
    <rdf:RDF>
      <cc:Work
         rdf:about="">
        <dc:format>image/svg+xml</dc:format>
        <dc:type
           rdf:resource="http://purl.org/dc/dcmitype/StillImage" />
        <dc:title></dc:title>
      </cc:Work>
    </rdf:RDF>
  </metadata>
  <g
     inkscape:label="Layer 1"
     inkscape:groupmode="layer"
     id="layer1"
     transform="translate(19.718482,-147.48055)">
    <g
       transform="matrix(0.35277777,0,0,-0.35277777,-151.01182,312.47581)"
       id="g21410">
      <g
         id="g21412"
         clip-path="url(#clipPath21416)">
        <g
           id="g21418"
           transform="translate(383.7881,465.5691)">
          <path
             d="m 0,0 c -0.086,-0.145 -0.178,-0.305 -0.262,-0.451 -0.013,-0.022 -0.031,-0.043 -0.029,-0.06 h 0.662 c 0.074,0 0.154,-0.011 0.223,0 0.042,0.006 0.093,0.034 0.138,0.054 0.045,0.02 0.087,0.04 0.128,0.064 0.071,0.042 0.175,0.111 0.179,0.204 0.001,0.055 -0.027,0.087 -0.061,0.122 -0.029,0.03 -0.064,0.07 -0.096,0.077 -0.061,0.013 -0.144,0 -0.217,0 H 0.006 C 0.002,0.009 0.003,0.003 0,0 m -11.289,2.064 h 7.215 c 0.232,-0.762 0.494,-1.581 0.735,-2.364 0.036,-0.118 0.058,-0.222 0.137,-0.298 0.14,-0.133 0.24,0.155 0.285,0.253 0.361,0.803 0.74,1.609 1.102,2.409 H 2.694 C 3.023,1.849 3.339,1.585 3.528,1.227 3.626,1.041 3.693,0.812 3.668,0.543 3.646,0.3 3.565,0.101 3.464,-0.083 3.269,-0.437 2.997,-0.722 2.7,-0.981 2.403,-1.241 2.075,-1.473 1.735,-1.674 1.963,-2.573 2.194,-3.469 2.422,-4.368 h -2.438 c -0.17,0.862 -0.345,1.727 -0.518,2.598 -0.011,0.056 -0.047,0.124 -0.108,0.112 -0.076,-0.016 -0.093,-0.133 -0.122,-0.211 -0.3,-0.818 -0.628,-1.675 -0.923,-2.49 -0.003,-0.002 -0.005,-0.005 -0.007,-0.009 -0.953,-0.003 -1.902,-0.01 -2.859,-0.01 -0.473,1.446 -0.933,2.911 -1.41,4.365 C -5.993,0.08 -6.023,0.175 -6.11,0.224 -6.179,0.223 -6.271,0.218 -6.372,0.214 -6.475,0.21 -6.627,0.227 -6.634,0.128 -6.636,0.087 -6.61,0.031 -6.595,-0.019 c 0.431,-1.437 0.876,-2.934 1.3,-4.359 -0.866,-10e-4 -1.723,0.007 -2.585,0.01 -0.439,1.455 -0.911,2.921 -1.352,4.381 -0.027,0.092 -0.048,0.193 -0.118,0.262 -0.548,-0.008 -1.138,-0.001 -1.703,-0.003 -0.083,0.245 -0.167,0.489 -0.249,0.735 -0.083,0.245 -0.167,0.49 -0.246,0.738 v 0.08 c 0.029,0.137 0.131,0.201 0.259,0.239"
             style="fill:#d9dadb;fill-opacity:1;fill-rule:evenodd;stroke:none"
             id="path21420"
             inkscape:connector-curvature="0" />
        </g>
        <g
           id="g21422"
           transform="translate(383.7881,465.5691)">
          <path
             d="m 0,0 c -0.086,-0.145 -0.178,-0.305 -0.262,-0.451 -0.013,-0.022 -0.031,-0.043 -0.029,-0.06 h 0.662 c 0.074,0 0.154,-0.011 0.223,0 0.042,0.006 0.093,0.034 0.138,0.054 0.045,0.02 0.087,0.04 0.128,0.064 0.071,0.042 0.175,0.111 0.179,0.204 0.001,0.055 -0.027,0.087 -0.061,0.122 -0.029,0.03 -0.064,0.07 -0.096,0.077 -0.061,0.013 -0.144,0 -0.217,0 H 0.006 C 0.002,0.009 0.003,0.003 0,0 Z m -11.289,2.064 h 7.215 c 0.232,-0.762 0.494,-1.581 0.735,-2.364 0.036,-0.118 0.058,-0.222 0.137,-0.298 0.14,-0.133 0.24,0.155 0.285,0.253 0.361,0.803 0.74,1.609 1.102,2.409 H 2.694 C 3.023,1.849 3.339,1.585 3.528,1.227 3.626,1.041 3.693,0.812 3.668,0.543 3.646,0.3 3.565,0.101 3.464,-0.083 3.269,-0.437 2.997,-0.722 2.7,-0.981 2.403,-1.241 2.075,-1.473 1.735,-1.674 1.963,-2.573 2.194,-3.469 2.422,-4.368 h -2.438 c -0.17,0.862 -0.345,1.727 -0.518,2.598 -0.011,0.056 -0.047,0.124 -0.108,0.112 -0.076,-0.016 -0.093,-0.133 -0.122,-0.211 -0.3,-0.818 -0.628,-1.675 -0.923,-2.49 -0.003,-0.002 -0.005,-0.005 -0.007,-0.009 -0.953,-0.003 -1.902,-0.01 -2.859,-0.01 -0.473,1.446 -0.933,2.911 -1.41,4.365 C -5.993,0.08 -6.023,0.175 -6.11,0.224 -6.179,0.223 -6.271,0.218 -6.372,0.214 -6.475,0.21 -6.627,0.227 -6.634,0.128 -6.636,0.087 -6.61,0.031 -6.595,-0.019 c 0.431,-1.437 0.876,-2.934 1.3,-4.359 -0.866,-10e-4 -1.723,0.007 -2.585,0.01 -0.439,1.455 -0.911,2.921 -1.352,4.381 -0.027,0.092 -0.048,0.193 -0.118,0.262 -0.548,-0.008 -1.138,-0.001 -1.703,-0.003 -0.083,0.245 -0.167,0.489 -0.249,0.735 -0.083,0.245 -0.167,0.49 -0.246,0.738 v 0.08 c 0.029,0.137 0.131,0.201 0.259,0.239 z"
             style="fill:none;stroke:#e2001a;stroke-width:0.14;stroke-linecap:butt;stroke-linejoin:miter;stroke-miterlimit:10;stroke-dasharray:none;stroke-opacity:1"
             id="path21424"
             inkscape:connector-curvature="0" />
        </g>
        <g
           id="g21426"
           transform="translate(386.0471,460.2837)">
          <path
             d="M 0,0 C 0.023,0.001 0.044,-0.006 0.035,-0.009 0.083,0 0.084,-0.01 0.09,0.007 0.12,0.015 0.153,0.003 0.118,-0.004 L 0.207,0.007 0.154,0.01 C 0.168,0.024 0.238,0.005 0.255,0.022 L 0.159,0.02 0.164,0.025 C 0.142,0.02 0.1,0.022 0.085,0.024 0.088,0.027 0.086,0.03 0.103,0.031 -0.012,0.032 0.072,0.006 -0.024,0.001 -0.018,0.002 -0.01,0.001 0,0"
             style="fill:#ffed00;fill-opacity:1;fill-rule:nonzero;stroke:none"
             id="path21428"
             inkscape:connector-curvature="0" />
        </g>
        <g
           id="g21430"
           transform="translate(385.9492,460.3183)">
          <path
             d="m 0,0 -0.04,-0.018 -0.068,0.005 c 0,-0.006 -0.05,-0.011 -0.016,-0.017 0.006,10e-4 0.019,0.003 0.029,0.003 -0.007,-0.014 -0.089,-0.007 -0.069,-0.02 0.053,0.003 0.061,0 0.094,0.011 0.049,-0.001 0.084,-0.004 0.107,-0.009 0.015,0.002 0.017,0.01 0.035,0.012 L 0.06,-0.034 0.058,-0.014 C 0.042,-0.018 0.028,-0.016 0.011,-0.017 L 0.09,0.007 C 0.064,0.025 -0.013,0.014 -0.044,0.022 -0.006,0.005 -0.075,0.014 0,0"
             style="fill:#ffed00;fill-opacity:1;fill-rule:nonzero;stroke:none"
             id="path21432"
             inkscape:connector-curvature="0" />
        </g>
        <g
           id="g21434"
           transform="translate(386.0215,460.2849)">
          <path
             d="M 0,0 H 0.002 Z"
             style="fill:#ffed00;fill-opacity:1;fill-rule:nonzero;stroke:none"
             id="path21436"
             inkscape:connector-curvature="0" />
        </g>
        <g
           id="g21438"
           transform="translate(380.1205,460.1689)">
          <path
             d="M 0,0 C -0.017,0 -0.022,-0.005 -0.024,-0.007 H 0.165 C 0.159,-0.002 0.105,0.005 0.141,0.008 0.125,0.014 0.075,0.009 0.068,0.002 L 0.082,0.01 C 0.038,-0.001 0.008,0.019 0.037,0.025 H 0.033 l -0.12,-0.039 C -0.043,-0.016 -0.053,0 0,0"
             style="fill:#ffed00;fill-opacity:1;fill-rule:nonzero;stroke:none"
             id="path21440"
             inkscape:connector-curvature="0" />
        </g>
        <g
           id="g21442"
           transform="translate(376.2375,460.1889)">
          <path
             d="M 0,0 C 0.025,0.002 0.027,0.004 0.025,0.006 0.016,0.004 0.008,0.003 0,0"
             style="fill:#ffed00;fill-opacity:1;fill-rule:nonzero;stroke:none"
             id="path21444"
             inkscape:connector-curvature="0" />
        </g>
        <g
           id="g21446"
           transform="translate(380.0049,460.1456)">
          <path
             d="M 0,0 -0.038,-0.012 C -0.023,-0.009 -0.009,-0.005 0,0"
             style="fill:#ffed00;fill-opacity:1;fill-rule:nonzero;stroke:none"
             id="path21448"
             inkscape:connector-curvature="0" />
        </g>
        <g
           id="g21450"
           transform="translate(380.2667,460.3329)">
          <path
             d="m 0,0 c 0,0.001 0.001,0.001 0,0.002 l -0.017,-0.006 v 0 z"
             style="fill:#ffed00;fill-opacity:1;fill-rule:nonzero;stroke:none"
             id="path21452"
             inkscape:connector-curvature="0" />
        </g>
        <g
           id="g21454"
           transform="translate(379.147,460.0994)">
          <path
             d="M 0,0 -0.012,-0.001 C -0.008,-0.001 -0.004,0 0,0"
             style="fill:#ffed00;fill-opacity:1;fill-rule:nonzero;stroke:none"
             id="path21456"
             inkscape:connector-curvature="0" />
        </g>
        <g
           id="g21458"
           transform="translate(380.7789,460.4033)">
          <path
             d="m 0,0 -0.084,-0.012 c 0.011,0.006 -0.029,0.004 -0.012,0.011 -0.006,-0.001 -0.036,-0.004 -0.028,-0.006 h 0.017 c -0.044,-0.016 -0.017,-0.023 -0.091,-0.035 0.046,-0.01 0.066,-10e-4 0.09,0.007 0.008,0.001 0.015,0.001 0.022,0.002 l 0.07,0.023 z"
             style="fill:#ffed00;fill-opacity:1;fill-rule:nonzero;stroke:none"
             id="path21460"
             inkscape:connector-curvature="0" />
        </g>
        <g
           id="g21462"
           transform="translate(377.4088,460.2817)">
          <path
             d="M 0,0 0.001,0.001 C 0,0.001 0,0 0,0"
             style="fill:#ffed00;fill-opacity:1;fill-rule:nonzero;stroke:none"
             id="path21464"
             inkscape:connector-curvature="0" />
        </g>
        <g
           id="g21466"
           transform="translate(377.4134,460.2882)">
          <path
             d="M 0,0 -0.004,-0.005 C 0.001,-0.003 0.018,0 0,0"
             style="fill:#ffed00;fill-opacity:1;fill-rule:nonzero;stroke:none"
             id="path21468"
             inkscape:connector-curvature="0" />
        </g>
        <g
           id="g21470"
           transform="translate(380.0187,460.1562)">
          <path
             d="m 0,0 c -0.001,-0.003 -0.006,-0.007 -0.014,-0.011 l 0.028,0.01 C 0.01,-0.001 0.005,-0.001 0,0"
             style="fill:#ffed00;fill-opacity:1;fill-rule:nonzero;stroke:none"
             id="path21472"
             inkscape:connector-curvature="0" />
        </g>
        <g
           id="g21474"
           transform="translate(380.0829,460.1919)">
          <path
             d="M 0,0 0.071,0.002 0.097,0.011 C 0.07,0.008 0.038,0.005 0,0"
             style="fill:#ffed00;fill-opacity:1;fill-rule:nonzero;stroke:none"
             id="path21476"
             inkscape:connector-curvature="0" />
        </g>
        <g
           id="g21478"
           transform="translate(379.2588,460.0898)">
          <path
             d="M 0,0 C -0.147,-0.003 0.036,0.019 -0.031,0.024 -0.072,0.022 -0.086,0.012 -0.112,0.01 c 0.116,0.007 -0.016,-0.03 0.102,-0.026 -0.017,-0.016 -0.085,-0.018 -0.125,-0.013 -0.045,0.016 0.04,0.012 0.05,0.027 -0.047,-0.002 -0.039,-0.005 -0.059,-0.014 -0.074,0.003 -0.153,-0.02 -0.197,0.002 -0.054,-0.003 -0.05,-0.011 -0.081,-0.019 -0.006,-0.017 0.08,-0.009 0.1,-0.023 -0.004,0.002 -0.012,0.005 -0.01,0.007 l 0.046,-0.003 c -0.044,0.005 0.006,0.017 0.03,0.018 0.017,0 0.051,0.001 0.046,-0.004 l -0.026,-0.003 c 0.033,-0.006 0.074,0.012 0.109,0.003 0.002,-0.004 -0.012,-0.006 -0.014,-0.008 0.04,0.011 0.078,0.011 0.136,0.019 l -0.034,-0.017 c 0.047,0.019 0.152,0.013 0.225,0.004 -0.008,0.002 -0.022,0.004 -0.013,0.008 0.042,0.004 0.075,-0.008 0.055,-0.017 0.042,0.014 0.16,-0.011 0.217,0.007 L 0.708,0.044 C 0.698,0.041 0.688,0.04 0.677,0.039 0.653,0.054 0.64,0.052 0.682,0.066 0.641,0.058 0.657,0.046 0.595,0.046 0.619,0.053 0.625,0.07 0.566,0.072 0.418,0.057 0.32,0.015 0.182,-0.007 0.177,0.005 0.068,0.001 0.015,0.004 c 0.02,0.012 0.06,0.016 0.1,0.018 L 0.013,0.024 Z"
             style="fill:#ffed00;fill-opacity:1;fill-rule:nonzero;stroke:none"
             id="path21480"
             inkscape:connector-curvature="0" />
        </g>
        <g
           id="g21482"
           transform="translate(379.6025,460.1282)">
          <path
             d="M 0,0 C -0.004,0.001 -0.008,0.002 -0.011,0.002 -0.009,0.001 -0.006,0 0,0"
             style="fill:#ffed00;fill-opacity:1;fill-rule:nonzero;stroke:none"
             id="path21484"
             inkscape:connector-curvature="0" />
        </g>
        <g
           id="g21486"
           transform="translate(379.3864,460.1119)">
          <path
             d="M 0,0 C 0.001,0 0,0.001 0.001,0.001 L -0.012,0 Z"
             style="fill:#ffed00;fill-opacity:1;fill-rule:nonzero;stroke:none"
             id="path21488"
             inkscape:connector-curvature="0" />
        </g>
        <g
           id="g21490"
           transform="translate(379.9841,460.182)">
          <path
             d="M 0,0 C 0.009,0.003 0.015,0.004 0.024,0.007 0.019,0.006 0.012,0.005 0.005,0.004 -0.001,0.003 -0.004,0.001 0,0"
             style="fill:#ffed00;fill-opacity:1;fill-rule:nonzero;stroke:none"
             id="path21492"
             inkscape:connector-curvature="0" />
        </g>
        <g
           id="g21494"
           transform="translate(380.0137,460.1619)">
          <path
             d="m 0,0 -0.005,-0.005 0.01,-0.001 C 0.006,-0.003 0.005,-0.001 0,0"
             style="fill:#ffed00;fill-opacity:1;fill-rule:nonzero;stroke:none"
             id="path21496"
             inkscape:connector-curvature="0" />
        </g>
        <g
           id="g21498"
           transform="translate(378.6983,460.1931)">
          <path
             d="M 0,0 -0.014,-0.002 C -0.006,-0.002 -0.002,-0.001 0,0"
             style="fill:#ffed00;fill-opacity:1;fill-rule:nonzero;stroke:none"
             id="path21500"
             inkscape:connector-curvature="0" />
        </g>
        <g
           id="g21502"
           transform="translate(379.0954,460.1092)">
          <path
             d="M 0,0 C 0.051,0.001 0.006,0.017 0.078,0.017 L 0.057,0.018 C 0.109,0.025 0.2,0.022 0.261,0.023 0.254,0.016 0.299,0.014 0.292,0.004 0.334,0.006 0.375,0.009 0.397,0.02 0.423,0.016 0.462,0.026 0.496,0.021 0.482,0.028 0.543,0.043 0.462,0.035 0.469,0.036 0.465,0.037 0.471,0.038 0.419,0.047 0.398,0.032 0.354,0.032 0.327,0.038 0.397,0.042 0.372,0.044 0.316,0.039 0.197,0.052 0.2,0.028 0.16,0.027 0.154,0.032 0.142,0.036 0.078,0.011 -0.097,0.047 -0.096,0.015 c 0.023,0.001 0.062,0 0.096,0.007 z"
             style="fill:#ffed00;fill-opacity:1;fill-rule:nonzero;stroke:none"
             id="path21504"
             inkscape:connector-curvature="0" />
        </g>
        <g
           id="g21506"
           transform="translate(379.8984,460.1804)">
          <path
             d="M 0,0 C -0.003,0 -0.007,0 -0.01,0 Z"
             style="fill:#ffed00;fill-opacity:1;fill-rule:nonzero;stroke:none"
             id="path21508"
             inkscape:connector-curvature="0" />
        </g>
        <g
           id="g21510"
           transform="translate(380.4789,460.0827)">
          <path
             d="M 0,0 -0.039,0.002 C -0.03,-0.001 -0.015,-0.001 0,0 M 0.063,0.004 0.042,-0.017 c -0.122,-0.005 -0.166,0.001 -0.272,0 -0.008,0.003 0.005,0.005 0.012,0.006 -0.075,-0.003 -0.187,0.002 -0.241,-0.008 -0.024,0 -0.086,0.007 -0.063,0.013 C -0.533,-0.008 -0.546,-0.01 -0.56,-0.009 -0.563,-0.001 -0.53,-0.007 -0.529,0 -0.54,0 -0.544,0.001 -0.546,-0.001 -0.529,0.006 -0.565,0.025 -0.482,0.024 -0.45,0.007 -0.539,0.022 -0.52,0.003 c 0.027,0 0.024,0.007 0.026,0.01 0.035,-10e-4 0.034,-0.006 0.032,-0.01 0.014,0.006 0.058,-0.003 0.076,0.007 0.068,10e-4 -0.004,-0.015 0.041,-0.015 l 0.025,0.02 0.074,-0.004 c 0.107,0.007 -0.015,0.034 0.107,0.046 -0.016,-0.011 0.033,-0.028 0.09,-0.032 -0.034,-0.001 -0.097,-0.014 -0.141,-0.008 0.062,-0.016 -0.085,-0.002 -0.053,-0.02 0.031,0.009 0.082,0.01 0.121,0.005 L -0.135,0.001 c 0.043,-0.003 0.075,0.018 0.133,0.01 0.029,0.001 0.024,-0.005 0.019,-0.009 0.024,0.003 0.046,0.007 0.046,0.002"
             style="fill:#ffed00;fill-opacity:1;fill-rule:nonzero;stroke:none"
             id="path21512"
             inkscape:connector-curvature="0" />
        </g>
        <g
           id="g21514"
           transform="translate(385.4063,460.3157)">
          <path
             d="M 0,0 0.012,-0.002 C 0.009,-0.001 0.005,0 0,0"
             style="fill:#ffed00;fill-opacity:1;fill-rule:nonzero;stroke:none"
             id="path21516"
             inkscape:connector-curvature="0" />
        </g>
        <g
           id="g21518"
           transform="translate(381.9613,460.3233)">
          <path
             d="M 0,0 0.022,-0.001 C 0.014,0 0.007,0 0,0"
             style="fill:#ffed00;fill-opacity:1;fill-rule:nonzero;stroke:none"
             id="path21520"
             inkscape:connector-curvature="0" />
        </g>
        <g
           id="g21522"
           transform="translate(382.4659,460.3887)">
          <path
             d="M 0,0 0.033,0.005 C 0.02,0.004 0.01,0.003 0,0"
             style="fill:#ffed00;fill-opacity:1;fill-rule:nonzero;stroke:none"
             id="path21524"
             inkscape:connector-curvature="0" />
        </g>
        <g
           id="g21526"
           transform="translate(385.1382,460.3171)">
          <path
             d="M 0,0 H -0.001 L -0.006,-0.001 Z"
             style="fill:#ffed00;fill-opacity:1;fill-rule:nonzero;stroke:none"
             id="path21528"
             inkscape:connector-curvature="0" />
        </g>
        <g
           id="g21530"
           transform="translate(383.4779,460.3424)">
          <path
             d="M 0,0 C 0.005,-0.002 0.011,-0.003 0.018,-0.004 0.017,-0.002 0.011,-0.001 0,0"
             style="fill:#ffed00;fill-opacity:1;fill-rule:nonzero;stroke:none"
             id="path21532"
             inkscape:connector-curvature="0" />
        </g>
        <g
           id="g21534"
           transform="translate(382.4598,460.3878)">
          <path
             d="M 0,0 H 0.002 L 0.006,0.001 Z"
             style="fill:#ffed00;fill-opacity:1;fill-rule:nonzero;stroke:none"
             id="path21536"
             inkscape:connector-curvature="0" />
        </g>
        <g
           id="g21538"
           transform="translate(381.739,460.381)">
          <path
             d="M 0,0 -0.014,-0.002 C -0.008,-0.002 -0.003,-0.001 0,0"
             style="fill:#ffed00;fill-opacity:1;fill-rule:nonzero;stroke:none"
             id="path21540"
             inkscape:connector-curvature="0" />
        </g>
        <g
           id="g21542"
           transform="translate(381.7707,460.325)">
          <path
             d="M 0,0 C -0.005,0 -0.01,-0.001 -0.014,-0.002 Z"
             style="fill:#ffed00;fill-opacity:1;fill-rule:nonzero;stroke:none"
             id="path21544"
             inkscape:connector-curvature="0" />
        </g>
        <g
           id="g21546"
           transform="translate(380.9933,460.3634)">
          <path
             d="m 0,0 -0.03,-0.003 c 0.015,0 0.023,0.002 0.03,0.003"
             style="fill:#ffed00;fill-opacity:1;fill-rule:nonzero;stroke:none"
             id="path21548"
             inkscape:connector-curvature="0" />
        </g>
        <g
           id="g21550"
           transform="translate(381.6906,460.3379)">
          <path
             d="M 0,0 C -0.002,-0.001 -0.004,-0.002 -0.005,-0.003 -0.001,-0.002 0.001,-0.001 0,0"
             style="fill:#ffed00;fill-opacity:1;fill-rule:nonzero;stroke:none"
             id="path21552"
             inkscape:connector-curvature="0" />
        </g>
        <g
           id="g21554"
           transform="translate(385.5987,460.2567)">
          <path
             d="M 0,0 H -0.002 L -0.003,-0.002 Z"
             style="fill:#ffed00;fill-opacity:1;fill-rule:nonzero;stroke:none"
             id="path21556"
             inkscape:connector-curvature="0" />
        </g>
        <g
           id="g21558"
           transform="translate(385.6722,460.2856)">
          <path
             d="M 0,0 0.027,0.002 C 0.017,0.002 0.007,0.001 0,0"
             style="fill:#ffed00;fill-opacity:1;fill-rule:nonzero;stroke:none"
             id="path21560"
             inkscape:connector-curvature="0" />
        </g>
        <g
           id="g21562"
           transform="translate(383.9175,460.3105)">
          <path
             d="M 0,0 C 0.008,-0.003 0.027,-0.006 0.018,-0.01 0.033,-0.005 0.032,0.005 0,0"
             style="fill:#ffed00;fill-opacity:1;fill-rule:nonzero;stroke:none"
             id="path21564"
             inkscape:connector-curvature="0" />
        </g>
        <g
           id="g21566"
           transform="translate(385.4511,460.1328)">
          <path
             d="M 0,0 C 0.005,0.003 0.011,0.005 0.017,0.007 0.006,0.004 -0.004,0.001 0,0"
             style="fill:#ffed00;fill-opacity:1;fill-rule:nonzero;stroke:none"
             id="path21568"
             inkscape:connector-curvature="0" />
        </g>
        <g
           id="g21570"
           transform="translate(385.468,460.1396)">
          <path
             d="M 0,0 C 0.006,0.001 0.011,0.003 0.016,0.004 0.011,0.003 0.005,0.002 0,0"
             style="fill:#ffed00;fill-opacity:1;fill-rule:nonzero;stroke:none"
             id="path21572"
             inkscape:connector-curvature="0" />
        </g>
        <g
           id="g21574"
           transform="translate(383.7137,460.1463)">
          <path
             d="M 0,0 C -0.002,0.001 -0.005,0.002 -0.009,0.003 -0.008,0 -0.005,0 0,0"
             style="fill:#ffed00;fill-opacity:1;fill-rule:nonzero;stroke:none"
             id="path21576"
             inkscape:connector-curvature="0" />
        </g>
        <g
           id="g21578"
           transform="translate(385.7203,460.284)">
          <path
             d="M 0,0 C 0.005,0.005 0.12,0.015 0.023,0.017 0.027,0.032 0.086,0.024 0.111,0.028 0.093,0.031 0.121,0.037 0.115,0.042 0.102,0.041 0.087,0.036 0.066,0.038 0.056,0.044 0.088,0.049 0.113,0.046 0.082,0.054 0.153,0.058 0.109,0.064 0.015,0.059 -0.051,0.053 -0.117,0.032 -0.064,0.035 -0.004,0.04 0.04,0.034 L 0.021,0.021 c -0.049,0.011 -0.08,0.003 -0.129,0.004 L 0.002,0.018 C 0.053,0.008 0.019,0.005 -0.022,0.003 -0.012,0.003 -0.003,0.002 0,0"
             style="fill:#ffed00;fill-opacity:1;fill-rule:nonzero;stroke:none"
             id="path21580"
             inkscape:connector-curvature="0" />
        </g>
        <g
           id="g21582"
           transform="translate(385.6465,460.1725)">
          <path
             d="M 0,0 H 0.002 C 0.003,0 0.005,0 0.006,0.001 Z"
             style="fill:#ffed00;fill-opacity:1;fill-rule:nonzero;stroke:none"
             id="path21584"
             inkscape:connector-curvature="0" />
        </g>
        <g
           id="g21586"
           transform="translate(380.9988,460.1063)">
          <path
             d="M 0,0 -0.009,-0.005 C -0.002,-0.003 0.001,-0.001 0,0"
             style="fill:#ffed00;fill-opacity:1;fill-rule:nonzero;stroke:none"
             id="path21588"
             inkscape:connector-curvature="0" />
        </g>
        <g
           id="g21590"
           transform="translate(385.5811,460.2341)">
          <path
             d="M 0,0 V 0 C -0.001,0 -0.001,0 0,0"
             style="fill:#ffed00;fill-opacity:1;fill-rule:nonzero;stroke:none"
             id="path21592"
             inkscape:connector-curvature="0" />
        </g>
        <g
           id="g21594"
           transform="translate(381.2331,460.1053)">
          <path
             d="M 0,0 C 0,0 -0.001,-0.001 -0.001,-0.001 0,-0.001 0,0 0,0"
             style="fill:#ffed00;fill-opacity:1;fill-rule:nonzero;stroke:none"
             id="path21596"
             inkscape:connector-curvature="0" />
        </g>
        <g
           id="g21598"
           transform="translate(381.2957,460.3793)">
          <path
             d="M 0,0 C 0,0.001 -0.001,0.001 -0.002,0.002 -0.007,0.001 -0.004,0 0,0"
             style="fill:#ffed00;fill-opacity:1;fill-rule:nonzero;stroke:none"
             id="path21600"
             inkscape:connector-curvature="0" />
        </g>
        <g
           id="g21602"
           transform="translate(381.2333,460.1065)">
          <path
             d="M 0,0 C 0,0 0,-0.001 0,-0.001 0,-0.001 0,0 0,0"
             style="fill:#ffed00;fill-opacity:1;fill-rule:nonzero;stroke:none"
             id="path21604"
             inkscape:connector-curvature="0" />
        </g>
        <g
           id="g21606"
           transform="translate(382.3723,460.1532)">
          <path
             d="M 0,0 C 0,0 -0.004,0.002 -0.009,0.004 -0.011,0.003 -0.009,0.002 0,0"
             style="fill:#ffed00;fill-opacity:1;fill-rule:nonzero;stroke:none"
             id="path21608"
             inkscape:connector-curvature="0" />
        </g>
        <g
           id="g21610"
           transform="translate(382.1475,460.172)">
          <path
             d="M 0,0 -0.004,0.001 Z"
             style="fill:#ffed00;fill-opacity:1;fill-rule:nonzero;stroke:none"
             id="path21612"
             inkscape:connector-curvature="0" />
        </g>
        <g
           id="g21614"
           transform="translate(383.8643,460.3678)">
          <path
             d="m 0,0 c -0.011,0 -0.019,0 -0.027,-0.001 0.009,0 0.017,0 0.027,0.001"
             style="fill:#ffed00;fill-opacity:1;fill-rule:nonzero;stroke:none"
             id="path21616"
             inkscape:connector-curvature="0" />
        </g>
        <g
           id="g21618"
           transform="translate(381.2318,460.1042)">
          <path
             d="M 0,0 C -0.002,-0.001 -0.006,-0.003 -0.011,-0.004 -0.005,-0.003 -0.002,-0.001 0,0"
             style="fill:#ffed00;fill-opacity:1;fill-rule:nonzero;stroke:none"
             id="path21620"
             inkscape:connector-curvature="0" />
        </g>
        <g
           id="g21622"
           transform="translate(382.7151,460.2173)">
          <path
             d="m 0,0 -0.007,-0.001 0.004,-0.001 z"
             style="fill:#ffed00;fill-opacity:1;fill-rule:nonzero;stroke:none"
             id="path21624"
             inkscape:connector-curvature="0" />
        </g>
        <g
           id="g21626"
           transform="translate(382.8325,460.208)">
          <path
             d="M 0,0 C -0.004,-0.001 -0.006,-0.003 -0.008,-0.004 0.034,0.001 0.111,-0.005 0.12,0.009 0.106,0.008 0.032,0.016 0.044,0.024 0.015,0.021 -0.028,0.03 -0.044,0.028 0.004,0.021 -0.038,0.017 -0.071,0.012 -0.1,0.016 -0.065,0.023 -0.091,0.026 L -0.159,0.024 -0.099,0.022 -0.117,0.009 -0.111,0.011 C -0.011,0.017 -0.103,-0.008 0,0"
             style="fill:#ffed00;fill-opacity:1;fill-rule:nonzero;stroke:none"
             id="path21628"
             inkscape:connector-curvature="0" />
        </g>
        <g
           id="g21630"
           transform="translate(382.8244,460.2038)">
          <path
             d="M 0,0 C -0.006,-0.001 -0.012,-0.002 -0.016,-0.003 -0.007,-0.003 -0.003,-0.002 0,0"
             style="fill:#ffed00;fill-opacity:1;fill-rule:nonzero;stroke:none"
             id="path21632"
             inkscape:connector-curvature="0" />
        </g>
        <g
           id="g21634"
           transform="translate(383.2343,460.1823)">
          <path
             d="M 0,0 C 0.005,0 0.011,0.001 0.018,0.002 Z"
             style="fill:#ffed00;fill-opacity:1;fill-rule:nonzero;stroke:none"
             id="path21636"
             inkscape:connector-curvature="0" />
        </g>
        <g
           id="g21638"
           transform="translate(380.2301,460.2006)">
          <path
             d="M 0,0 C 0.002,-0.004 0.06,-0.012 0.059,-0.002 L 0.007,0.001 Z"
             style="fill:#ffed00;fill-opacity:1;fill-rule:nonzero;stroke:none"
             id="path21640"
             inkscape:connector-curvature="0" />
        </g>
        <g
           id="g21642"
           transform="translate(384.351,460.2404)">
          <path
             d="M 0,0 C -0.007,0 -0.013,0 -0.02,0 -0.021,0 -0.022,-0.001 -0.023,-0.001 -0.019,-0.003 -0.007,-0.001 0,0"
             style="fill:#ffed00;fill-opacity:1;fill-rule:nonzero;stroke:none"
             id="path21644"
             inkscape:connector-curvature="0" />
        </g>
        <g
           id="g21646"
           transform="translate(382.8951,460.237)">
          <path
             d="M 0,0 C -0.011,-0.002 -0.016,-0.003 -0.018,-0.005 -0.011,-0.004 -0.005,-0.003 0,0"
             style="fill:#ffed00;fill-opacity:1;fill-rule:nonzero;stroke:none"
             id="path21648"
             inkscape:connector-curvature="0" />
        </g>
        <g
           id="g21650"
           transform="translate(384.3547,460.2166)">
          <path
             d="m 0,0 c 0.008,-0.003 0.021,-0.007 0.022,-0.011 0.017,0 0.029,0.005 0.046,0.007 C 0.049,-0.005 0.026,-0.004 0,0"
             style="fill:#ffed00;fill-opacity:1;fill-rule:nonzero;stroke:none"
             id="path21652"
             inkscape:connector-curvature="0" />
        </g>
        <g
           id="g21654"
           transform="translate(384.4245,460.2128)">
          <path
             d="m 0,0 h -0.001 c 0,0 0,0 0.001,0"
             style="fill:#ffed00;fill-opacity:1;fill-rule:nonzero;stroke:none"
             id="path21656"
             inkscape:connector-curvature="0" />
        </g>
        <g
           id="g21658"
           transform="translate(380.8064,460.3484)">
          <path
             d="M 0,0 H -0.002 Z M 1.198,-0.104 1.132,-0.108 H 1.139 L 1.074,-0.117 c 0.04,-0.005 0.066,-0.017 0.01,-0.023 0.005,0.005 -0.012,0.011 0.008,0.013 -0.038,0.007 -0.12,0.014 -0.098,-0.003 0.072,0.016 0.017,-0.022 0.073,-0.01 -0.03,-0.011 -0.06,-0.006 -0.089,-0.011 0.03,0.009 -0.007,0.021 -0.052,0.025 -0.019,-0.002 -0.072,0 -0.104,-0.004 0.011,-0.011 -0.017,-0.017 0.036,-0.02 -0.019,-0.002 -0.049,-0.005 -0.083,0.001 0.013,0.002 0.037,0.003 0.035,0.007 -0.022,0.009 -0.047,0.009 -0.061,0.013 L 0.716,-0.131 c 0.003,0 0.006,-0.002 0.008,-0.003 L 0.687,-0.143 C 0.736,-0.138 0.71,-0.148 0.709,-0.154 0.71,-0.142 0.677,-0.153 0.66,-0.153 L 0.697,-0.166 C 0.679,-0.173 0.634,-0.157 0.644,-0.17 0.722,-0.175 0.751,-0.173 0.822,-0.169 l -0.029,0.01 c 0.08,0.007 0.049,-0.017 0.138,-0.017 0.038,0.01 0.135,0.001 0.136,0.02 -0.011,-0.006 0.056,-0.017 0.086,-0.008 0.034,0.016 0.136,0.019 0.105,0.026 -0.027,0.001 -0.064,-0.009 -0.087,0.002 l 0.054,0.004 -0.035,0.009 c 0.018,-0.003 0.016,0.006 0.008,0.019 M 1.42,-0.09 C 1.455,-0.116 1.493,-0.139 1.655,-0.134 L 1.643,-0.136 c 0.082,-0.016 0.159,0.022 0.259,0.004 -0.048,-0.01 -0.046,-0.009 -0.099,-0.032 l 0.052,0.008 C 1.84,-0.171 1.892,-0.163 1.93,-0.164 L 1.896,-0.181 c -0.022,0.005 -0.082,0.007 -0.08,0.003 0.013,0.002 -0.078,0.021 -0.128,0.016 0.006,-0.011 0.11,-0.007 0.063,-0.025 0.042,0.008 0.047,-0.004 0.09,0 C 1.799,-0.195 1.83,-0.202 1.8,-0.211 l 0.07,0.004 c 0.002,-0.004 -0.102,-0.008 -0.045,-0.022 0.029,0.006 0.104,-0.002 0.105,0.01 l 0.002,-0.003 c 0.053,-0.003 0.023,0.017 0.088,0.01 10e-4,0.006 -0.011,0.011 -0.035,0.009 -0.019,-0.002 -0.022,-0.011 -0.063,-0.013 -0.018,0.01 0.049,-0.001 0.021,0.015 -0.014,0.009 -0.107,-0.007 -0.077,0.012 l 0.052,-0.003 c 0.002,0.012 0.04,0.012 0.039,0.022 0.032,0.004 0.063,-0.01 0.096,0.001 0.013,0.008 -0.011,0.023 0.044,0.016 0.043,-0.018 0.168,-0.014 0.215,-0.012 l 0.041,0.008 C 2.35,-0.149 2.275,-0.158 2.301,-0.148 L 2.365,-0.145 2.36,-0.15 C 2.381,-0.151 2.403,-0.146 2.423,-0.143 2.403,-0.152 2.356,-0.148 2.366,-0.161 2.396,-0.164 2.4,-0.169 2.428,-0.166 2.422,-0.167 2.417,-0.168 2.417,-0.17 c 0.061,-0.006 0.059,0.014 0.075,0.019 0.061,0.016 -0.062,0.015 -0.054,0.028 l 0.179,0.007 C 2.601,-0.12 2.586,-0.124 2.592,-0.129 2.636,-0.135 2.593,-0.139 2.654,-0.139 2.65,-0.121 2.732,-0.128 2.775,-0.117 2.796,-0.125 2.8,-0.126 2.756,-0.126 2.761,-0.138 2.82,-0.133 2.842,-0.134 c 0.012,0.002 0.033,0.004 0.046,0.007 -0.018,0.005 -0.01,0.012 0.029,0.017 l 0.002,0.003 c -0.063,0.003 -0.162,0.015 -0.201,0.004 l 0.011,0.005 c -0.073,0.01 -0.159,-0.02 -0.193,0.001 0.003,0.009 -0.015,0.002 -0.014,0.015 L 2.469,-0.092 2.48,-0.086 2.388,-0.089 2.391,-0.087 2.286,-0.115 c 0,-0.005 0.002,-0.007 -0.012,-0.011 -0.015,-0.002 -0.026,-0.003 -0.036,-0.002 0,0 0,0 0,0 v 0 c -0.022,0.002 -0.037,0.009 -0.065,0.012 l 0.085,0.002 c 0.007,0.009 0,0.018 -0.042,0.025 0.017,0 0.025,0.007 0.003,0.008 C 2.217,-0.083 2.164,-0.087 2.184,-0.094 2.103,-0.097 1.972,-0.073 1.849,-0.091 1.937,-0.08 1.778,-0.078 1.876,-0.075 1.808,-0.06 1.817,-0.089 1.748,-0.087 c -0.006,0.006 0.038,0 0.054,0.01 C 1.686,-0.071 1.606,-0.101 1.494,-0.096 L 1.489,-0.085 Z M 3.303,-0.106 C 3.31,-0.105 3.312,-0.102 3.312,-0.102 3.17,-0.129 3.054,-0.137 2.977,-0.136 2.992,-0.147 3.061,-0.155 3.093,-0.16 l -0.029,-0.012 -0.018,0.01 -0.05,-0.011 c 0.014,-0.008 0.055,-0.007 0.082,-0.013 0.002,0.002 0.089,0.017 0.113,0.024 l -0.069,0.008 c 0.018,-0.003 0.11,0 0.146,0.003 0.001,0.006 -0.062,0.016 -0.069,0.002 -0.008,0.009 0.064,0.009 0.019,0.019 0.054,0.01 0.14,0.002 0.18,-0.003 l 0.007,-0.015 c 0.043,-0.006 0.029,0.018 0.081,0.01 -0.064,-0.003 0.011,-0.017 -0.04,-0.018 0.016,-0.006 0,-0.016 0.051,-0.015 0.043,0.02 0.054,-0.013 0.094,0.005 0.027,-0.006 -0.029,-0.012 0.024,-0.015 0.061,0.011 0.057,0.018 0.061,0.033 -0.057,0.004 -0.064,-0.019 -0.11,-0.016 l 0.092,0.026 c -0.017,0.003 -0.029,0.004 -0.04,0.002 0.019,0.002 0.034,0.006 0.048,0.011 0.007,0.003 0.015,0.005 0.021,0.007 -0.052,0 -0.098,10e-4 -0.107,0.007 l 0.008,0.007 c -0.019,0.007 -0.049,0.001 -0.063,-0.004 -0.047,0 -0.093,-0.01 -0.104,-0.001 l 0.018,0.006 C 3.382,-0.105 3.375,-0.106 3.303,-0.106 M 4.032,-0.132 C 4.033,-0.133 4.038,-0.136 4.045,-0.14 L 4.009,-0.148 c -0.063,0.004 -0.114,0.025 -0.171,0.007 -0.027,0.004 -0.041,0.014 -0.054,0.022 0.013,-0.001 0.025,-0.002 0.035,-0.003 0.16,0.027 0.083,-0.028 0.213,-0.01 M 0.155,-0.17 c 0.019,0.013 0.08,0.013 0.084,0.028 0.004,0.004 -0.009,0.005 -0.023,0.007 L 0.164,-0.134 C 0.163,-0.136 0.159,-0.138 0.153,-0.14 0.172,-0.142 0.184,-0.146 0.176,-0.155 0.13,-0.135 0.134,-0.169 0.084,-0.164 0.068,-0.174 0.14,-0.174 0.155,-0.17 m -0.291,0.035 0.01,0.011 -0.03,0.001 c 0.003,-0.005 0.007,-0.009 0.02,-0.012 m -0.091,0.014 0.004,0.001 -0.032,0.001 c 0.004,-0.001 0.013,-0.002 0.028,-0.002 m 0.87,-0.007 c -0.005,0 -0.009,0 -0.012,0.001 z M 0.604,-0.143 c 0.045,-0.003 0.035,0.003 0.042,0.009 L 0.599,-0.136 C 0.604,-0.138 0.607,-0.14 0.604,-0.143 M 0.548,-0.094 0.314,-0.086 C 0.45,-0.115 0.547,-0.137 0.318,-0.137 L 0.303,-0.139 c 0.03,-0.003 0.082,-0.004 0.13,-0.002 0.039,0.01 0.166,0.048 0.164,0.052 C 0.583,-0.081 0.563,-0.09 0.538,-0.088 Z M -4.447,-0.14 c 0.003,0.001 0.006,0.003 0.008,0.005 -0.002,-0.002 0,-0.004 -0.008,-0.005 m 3.836,-0.004 -0.016,-0.002 0.009,0.003 -0.041,0.003 c -0.005,-10e-4 -0.01,-10e-4 -0.016,-0.002 0.002,0.001 0.004,0.002 0.006,0.003 l -0.013,0.001 c -0.032,-0.01 -0.112,-0.018 -0.135,-0.024 -0.03,-0.004 -0.068,-0.007 -0.091,-0.006 0.022,0 0.05,0.002 0.042,0.008 -0.044,0.006 -0.066,0.023 -0.141,0.008 h 0.044 l -0.1,-0.022 c -0.035,0.009 0.05,0.011 0.064,0.019 -0.078,-0.011 -0.143,0.018 -0.179,-0.001 -0.005,0.012 -0.013,0.031 -0.064,0.029 0.037,-0.013 -0.031,-0.008 -0.001,-0.022 -0.017,-0.006 -0.057,0.004 -0.06,-0.004 l 0.005,0.004 c -0.087,0.018 -0.115,-0.01 -0.153,-0.019 -0.104,-0.005 -0.152,0.003 -0.237,0.001 -0.003,0.007 -0.027,0.028 -0.061,0.028 -0.016,-0.011 -0.093,-0.016 -0.101,-0.029 0.062,-0.005 0.05,0.011 0.087,0.014 0.03,-0.013 0.003,-0.013 0.044,-0.022 -0.033,0.006 -0.151,-0.007 -0.188,0.006 l 0.013,0.002 c -0.059,0.008 -0.07,0.041 -0.167,0.021 l -0.047,-0.008 c 0.002,0.001 0.002,0.003 0.004,0.004 -0.077,0.001 -0.056,0.016 -0.14,0.004 0.006,0.001 0.002,0.003 0.009,0.004 -0.048,0.007 -0.096,-0.008 -0.133,-0.011 -0.022,0.011 0.006,0.011 0.019,0.019 -0.084,0.004 -0.175,-0.015 -0.228,-0.028 l -0.054,0.006 c 0.032,0.005 0.072,0.016 0.062,0.023 -0.03,-0.002 -0.024,-0.007 -0.067,-0.005 0.007,0.007 0.025,0.013 0.045,0.022 -0.087,0.012 -0.019,-0.025 -0.081,-0.003 -0.027,0 -0.043,-0.01 -0.046,-0.019 l -0.05,0.011 c -0.006,-0.011 -0.067,-0.011 -0.107,-0.013 -0.005,-0.004 0.032,-0.011 0.047,-0.007 -0.003,-0.009 -0.046,-0.013 -0.073,-0.013 -0.01,0.023 -0.181,-0.003 -0.148,0.024 -0.124,-0.007 -0.298,-0.01 -0.38,-0.019 -0.027,0.006 -0.082,0.006 -0.049,0.017 -0.1,0 -0.151,-0.023 -0.25,-0.017 -0.008,0.003 0.045,0 0.041,0.008 -0.065,-0.009 -0.118,0.009 -0.218,0.003 0.017,0.001 0.022,0.006 0.024,0.008 0.002,-0.004 -0.041,-0.008 -0.067,-0.012 -0.015,0.002 0.019,0.003 0.011,0.006 -0.194,0.011 -0.342,-0.02 -0.534,-0.019 0.055,0 0.075,0.015 0.076,0.021 h -0.054 c -0.021,-0.007 -0.061,-0.007 -0.095,-0.013 -0.004,0.003 -0.021,0.006 -0.004,0.01 -0.107,0.015 -0.167,-0.028 -0.297,-0.02 l 0.158,0.03 -0.039,0.011 0.069,0.014 c -0.041,0.008 -0.077,-0.011 -0.082,0 0.009,0.004 0.03,0.003 0.03,0.009 -0.04,0.004 -0.043,-0.004 -0.073,-0.007 0.079,0.024 0.234,0.023 0.318,0.029 0.013,0.002 -0.012,-0.006 -0.014,-0.008 0.034,10e-4 0.055,-0.006 0.097,-0.002 0.027,0.009 -0.02,0.007 -0.041,0.008 0.003,0.008 0.013,0.008 0.037,0.009 0.005,-0.011 0.129,-0.004 0.159,-0.018 0.126,0.004 -0.02,0.03 0.103,0.025 l 0.036,-0.013 c 0.072,0.01 0.164,0.019 0.244,0.016 H -3.86 c -0.011,-0.006 0.008,-0.009 0.016,-0.012 0.061,-0.006 0.115,0.01 0.152,-0.003 0.07,0.014 0.185,0.024 0.265,0.031 0.021,-0.017 -0.104,-0.014 -0.137,-0.025 h 0.072 c -0.044,0 -0.062,-0.007 -0.089,-0.017 0.064,-0.003 0.085,0.012 0.145,0.017 -0.005,-0.005 0.003,-0.008 0.031,-0.008 l 0.007,0.011 c 0.001,-0.001 0.004,-0.001 0.013,-0.002 l 0.106,0.007 c -0.022,0.005 -0.023,0.015 -0.051,0.015 0.01,-0.007 -0.014,-0.008 -0.041,-0.008 0.024,0.007 -0.027,0.006 -0.026,0.012 0.055,0 0.123,0.002 0.159,0.005 l 0.012,-0.011 c 0.053,-0.002 0.108,0.003 0.144,0 l -0.011,-0.005 c 0.063,-0.003 0.126,0.003 0.182,-0.007 0.056,0.012 0.127,0.022 0.173,0.035 0.025,0.013 0.166,-0.017 0.23,0.002 0.004,-0.002 -0.044,-0.01 -0.066,-0.016 0.043,-0.002 0.076,0.015 0.089,0.001 -0.095,0.005 0.006,-0.012 -0.037,-0.016 0.044,0.001 0.091,0.003 0.113,0.008 -0.072,0 0.026,0.02 -0.047,0.014 0.056,0.012 0.133,0.017 0.201,0.012 -10e-4,-0.006 0.007,-0.009 0.032,-0.012 l 0.02,0.009 c 0.032,-0.001 -0.06,-0.01 0.003,-0.013 0.065,0.015 0.196,-0.009 0.225,0.019 0.05,-0.011 -0.095,-0.011 -0.02,-0.025 -0.043,-0.01 -0.103,0.002 -0.118,-0.012 0.043,0.004 0.016,-0.012 0.043,-0.012 l 0.048,0.008 -0.011,10e-4 c 0.08,0.013 0.207,0.007 0.309,0.009 0.087,0.014 0.146,0.035 0.25,0.033 -0.031,-0.008 0.086,-0.008 0.021,-0.023 0.048,-0.007 0.095,0.001 0.096,0.007 -0.042,0.003 -0.015,0.002 -0.05,0.005 0.024,0.008 0.079,0.008 0.102,0.003 -0.011,0 -0.007,-0.001 -0.009,-0.004 0.05,-0.005 0.024,0.008 0.061,0.011 0.011,-0.01 0.08,-0.003 0.113,-0.008 l 0.049,0.015 c -0.027,-0.01 0.046,-0.004 0.053,-0.013 0.035,0.007 0.064,0.019 0.117,0.017 -0.022,-0.006 0.048,-0.008 0.049,-0.018 0.09,-0.009 0.149,0.027 0.235,0.013 -0.003,-0.002 -0.02,-0.009 0.005,-0.011 0.019,0.002 0.054,10e-4 0.075,0.002 h -0.001 0.001 c 0.011,0.001 0.017,0.002 0.017,0.005 0.036,0.009 0.055,0.019 0.126,0.028 -0.005,0.011 -0.065,0.007 -0.091,0.003 L -0.528,0.005 c -0.021,0.017 -0.063,-0.003 -0.08,0.002 0.043,0.021 0.165,0.016 0.239,0.028 -0.045,0.016 -0.143,0.018 -0.228,0.016 L -0.559,0.045 -0.604,0.044 -0.561,0.032 c -0.042,0.002 -0.078,-0.001 -0.116,0 0.044,0 0.062,-0.016 0.036,-0.013 C -0.69,0.03 -0.692,0.012 -0.73,0.012 -0.709,0.011 -0.682,0.011 -0.699,0.005 -0.774,0.018 -0.795,0.009 -0.863,0.024 -0.854,0.005 -0.948,0.022 -0.958,0.007 l 0.032,-0.002 -0.067,-0.012 c -0.062,0.016 0.054,0.016 -0.04,0.027 -0.087,0.002 -0.085,-0.018 -0.153,-0.019 0.023,0.011 0.077,0.021 0.132,0.02 l -0.033,0.006 c 0.017,0.006 0.094,0.005 0.132,0.004 -0.063,-0.013 0.029,-0.004 0.058,-0.014 0.005,0.011 -0.036,0.009 0.012,0.018 -0.045,0 -0.051,-0.001 -0.108,0.003 0.123,-0.005 0.111,0.038 0.218,0.029 -0.05,-0.005 0.017,-0.016 0.023,-0.021 0.023,0.001 0.07,0.004 0.09,0.006 L -0.68,0.068 c 0.063,0.007 0.084,-0.027 0.156,-0.01 0.01,0.009 -0.063,0.003 -0.05,0.005 0.099,0.01 0.134,-0.016 0.222,-0.028 0.005,0.005 0.004,0.015 0.034,0.023 C -0.327,0.049 -0.305,0.044 -0.339,0.037 -0.31,0.033 -0.275,0.04 -0.249,0.044 -0.31,0.049 -0.225,0.057 -0.213,0.063 -0.182,0.061 -0.223,0.054 -0.242,0.051 -0.217,0.048 -0.187,0.034 -0.173,0.049 -0.172,0.039 -0.243,0.022 -0.29,0.02 L -0.259,0.018 C -0.28,0.013 -0.285,0.015 -0.316,0.016 -0.285,0.008 -0.288,0 -0.295,-0.007 c -0.004,0.001 0.002,0.002 -0.002,0.004 -0.025,0.002 -0.045,-0.001 -0.039,-0.006 -0.023,-0.013 0.035,-0.008 0.052,-0.015 l 0.039,0.003 0.132,0.043 C -0.057,0.027 -0.032,0.016 0.01,0.01 L 0.022,0.021 C 0.071,0.02 0.117,0.017 0.085,0.002 0.084,0.006 0.077,0.005 0.067,0.006 0.065,0.004 0.063,0.003 0.06,0.002 0.059,0.001 0.058,0.001 0.057,0 L 0.145,0.007 C 0.056,-0.01 0.141,-0.014 0.126,-0.035 l 0.09,0.007 c -0.055,0.006 -0.001,0.01 0.018,0.013 0.005,-0.012 0.072,0 0.104,-0.002 L 0.336,-0.019 c 0.029,-0.004 0.08,-0.003 0.116,0 C 0.451,-0.015 0.497,0.004 0.52,0.015 0.457,0.019 0.494,0.024 0.489,0.031 0.496,0.03 0.507,0.03 0.509,0.032 0.518,0.035 0.497,0.036 0.495,0.04 0.429,0.034 0.36,0.033 0.333,0.017 0.354,0.01 0.368,0.024 0.391,0.019 0.358,0.008 0.316,0.01 0.26,0.011 L 0.242,0.02 0.187,0.015 C 0.21,0.02 0.196,0.03 0.254,0.032 0.247,0.041 0.197,0.03 0.161,0.033 L 0.143,0.02 C 0.15,0.027 0.074,0.029 0.128,0.038 L 0.216,0.049 0.191,0.058 0.266,0.06 0.248,0.053 C 0.368,0.062 0.284,0.028 0.404,0.043 0.442,0.059 0.482,0.06 0.556,0.056 0.503,0.053 0.551,0.046 0.531,0.037 0.585,0.03 0.603,0.043 0.632,0.049 0.646,0.041 0.656,0.034 0.607,0.035 0.601,0.018 0.671,0.038 0.675,0.021 c 0.162,0 0.13,0.056 0.318,0.034 L 0.986,0.048 c 0.12,0.009 0.189,0.001 0.3,0.006 L 1.373,0.036 C 1.354,0.034 1.301,0.02 1.326,0.011 1.283,0.03 1.238,0.023 1.192,0.033 1.188,0.028 1.206,0.025 1.214,0.022 1.187,0.022 1.173,0.03 1.136,0.027 1.138,0.023 1.178,0.019 1.148,0.017 L 1.098,0.028 C 1.032,0.023 1.066,0.001 0.988,0.006 1.002,0.016 1.032,0.031 1.062,0.033 1.026,0.035 1.109,0.039 1.077,0.045 1.026,0.03 1.001,0.042 0.933,0.033 0.941,0.035 0.943,0.038 0.96,0.039 L 0.861,0.045 C 0.885,0.036 0.779,0.035 0.788,0.022 0.893,0.017 0.862,0.025 0.983,0.018 0.949,0.015 0.905,0.002 0.884,-0.01 c -0.001,0 -0.003,0 -0.006,0.001 -0.019,-0.013 0,-0.016 0,-0.039 0.055,0.016 0.091,0.003 0.156,0.012 0.012,0.012 -0.038,0.016 -0.07,0.013 L 1.021,-0.015 1.01,-0.021 1.155,-0.025 C 1.127,-0.026 1.118,-0.033 1.104,-0.038 c 0.018,-0.001 0.037,-0.004 0.057,-0.007 -0.004,0.011 -0.002,0.02 0.016,0.019 0.094,-0.002 0.145,-0.013 0.18,-0.026 l 0.011,0.001 C 1.352,-0.039 1.434,-0.03 1.463,-0.018 1.461,-0.03 1.511,-0.025 1.537,-0.031 1.552,-0.017 1.533,0.002 1.5,0.014 1.437,0.001 1.465,0.001 1.435,-0.018 L 1.334,-0.03 1.356,-0.019 C 1.306,-0.014 1.258,-0.028 1.261,-0.014 1.288,-0.004 1.332,-0.01 1.358,0 L 1.325,0.005 C 1.384,0.02 1.355,-0.009 1.426,0.001 1.4,0.014 1.433,0.002 1.463,0.011 1.439,0.019 1.338,0.007 1.359,0.028 1.396,0.038 1.484,0.003 1.533,0.025 L 1.531,0.022 C 1.603,0.019 1.628,0.032 1.655,0.039 1.686,0.032 1.729,0.042 1.762,0.043 L 1.761,0.037 1.808,0.039 C 1.786,0.028 1.753,0.039 1.713,0.038 L 1.718,0.026 C 1.671,0.04 1.64,0.019 1.604,0.009 1.657,0.019 1.752,0.007 1.765,0.029 L 1.797,0.017 1.813,0.022 C 1.837,0.013 1.812,-0.001 1.765,-0.003 1.757,0 1.753,0.001 1.756,0.003 1.734,-0.002 1.714,-0.011 1.661,-0.008 l 0.028,0.006 C 1.623,-0.001 1.564,-0.006 1.541,-0.017 1.636,-0.022 1.729,-0.023 1.818,-0.022 1.845,0.004 1.876,0.018 1.889,0.042 1.949,0.047 2.03,0.05 2.082,0.041 L 2.077,0.037 C 2.103,0.034 2.126,0.035 2.146,0.038 2.172,0.032 2.127,0.025 2.146,0.022 L 2.232,0.03 C 2.226,0.019 2.154,0.019 2.12,0.018 2.126,0.019 2.14,0.021 2.135,0.023 2.096,0.027 2.021,0.009 2.004,0.024 1.985,0.022 2.043,0.036 1.978,0.037 1.934,0.043 1.919,0.029 1.915,0.024 1.914,0.018 1.984,0.015 1.96,0.008 1.994,0.009 2.007,0.017 2.051,0.011 2.017,0.01 1.971,-0.003 1.953,0.007 1.886,-0.004 1.896,-0.033 1.927,-0.035 1.92,-0.026 2.05,-0.024 1.962,-0.012 2.001,0 2.073,0 2.125,0.007 L 2.123,0.005 2.187,0.008 C 2.178,0.004 2.159,0.002 2.158,-0.004 L 2.247,0.012 C 2.197,0.001 2.278,0.004 2.301,-0.001 2.31,0.009 2.345,0.016 2.311,0.021 2.274,0.028 2.29,0.016 2.256,0.015 L 2.304,0.03 2.308,0.029 2.337,0.041 C 2.403,0.04 2.308,0.013 2.392,0.025 L 2.381,0.041 C 2.479,0.039 2.604,0.02 2.673,0.028 2.654,0.018 2.645,0.003 2.672,-0.006 2.642,-0.003 2.582,-0.004 2.54,-0.005 2.531,-0.002 2.593,0.014 2.639,0.011 2.617,0.038 2.523,-0.006 2.517,0.022 2.399,0.032 2.429,-0.005 2.329,0.012 2.328,-0.001 2.301,0.006 2.296,-0.005 c 0.029,-0.02 0.133,0 0.198,-0.007 C 2.488,-0.013 2.475,-0.014 2.473,-0.017 2.519,-0.02 2.538,-0.018 2.571,-0.013 L 2.567,-0.012 C 2.623,0 2.602,-0.021 2.635,-0.026 c 0.013,0.002 0.059,-0.002 0.052,0.007 l 0.06,-0.012 -0.003,0.014 c 0.034,0.001 0.042,-0.008 0.072,0 L 2.818,-0.004 2.733,0 C 2.776,0.004 2.745,0.012 2.792,0.014 2.74,0.001 2.83,0.007 2.835,-0.004 L 2.869,0.003 2.861,0 C 2.888,-0.007 2.893,0.004 2.925,0.003 2.887,0.009 2.863,0.018 2.815,0.009 2.85,0.016 2.919,0.024 2.935,0.024 2.972,0.03 2.997,0.02 3.031,0.019 2.966,0.014 3.054,-0.019 2.923,-0.01 2.926,-0.007 2.936,-0.008 2.94,-0.009 2.923,0.006 2.862,-0.01 2.833,-0.016 2.841,-0.025 2.811,-0.028 2.861,-0.033 2.845,-0.027 2.904,-0.012 2.952,-0.02 L 2.943,-0.039 3.013,-0.042 H 3.007 c 0.026,-0.013 0.074,0.002 0.122,-0.005 0.035,0.007 0.168,0.001 0.111,0.021 0.043,-0.012 0.081,0.004 0.128,0.006 l -0.059,0.008 c 0.07,0.014 0.05,0.005 0.105,0.027 C 3.42,0.01 3.432,0.005 3.421,0 3.514,-0.001 3.647,-0.007 3.702,0.009 3.768,0.008 3.778,-0.014 3.87,-0.005 3.89,-0.003 3.855,0.013 3.916,0.007 3.92,0.006 3.857,-0.007 3.925,-0.006 c 0.049,0.015 0.114,-0.008 0.177,0.005 0.033,-0.005 0.091,-0.003 0.079,-0.015 -0.053,0.002 -0.127,0 -0.139,-0.006 0.008,0.007 -0.037,0.007 0.002,0.013 C 3.964,0 3.992,-0.017 3.921,-0.01 3.916,-0.015 3.957,-0.024 3.973,-0.019 3.973,-0.035 3.832,-0.027 3.895,-0.046 3.972,-0.048 3.994,-0.014 4.06,-0.031 4.034,-0.041 3.992,-0.033 3.959,-0.05 L 4.013,-0.056 4.052,-0.044 4.05,-0.047 c 0.096,-0.015 0.089,0.017 0.175,0.025 -0.05,0.011 0.011,0.028 -0.026,0.035 0.057,0.002 0.1,0 0.1,-0.017 C 4.191,-0.017 4.293,-0.021 4.193,-0.037 4.21,-0.042 4.17,-0.06 4.229,-0.062 c 0.067,0.011 -0.02,0.013 0.047,0.019 0.004,-0.002 0.008,-0.003 0.005,-0.006 0.031,0.009 0.036,-0.003 0.073,0.007 L 4.345,-0.046 c 0.046,-0.009 0.05,0.012 0.089,0.001 -0.015,0.012 0.027,0.01 0.051,0.017 -0.04,0.005 -0.061,0.022 -0.14,0.021 C 4.336,-0.017 4.341,-0.022 4.309,-0.026 L 4.36,-0.025 C 4.349,-0.027 4.341,-0.029 4.331,-0.031 L 4.282,-0.026 C 4.344,-0.019 4.315,-0.009 4.342,0 4.399,-0.004 4.389,0.003 4.425,0 4.421,-0.014 4.534,-0.024 4.6,-0.033 4.59,-0.032 4.577,-0.032 4.57,-0.032 4.522,-0.041 4.602,-0.044 4.604,-0.047 L 4.639,-0.04 C 4.632,-0.041 4.623,-0.045 4.638,-0.047 c 0.047,0.003 0.044,0.017 0.091,0.019 0.004,-0.007 -0.036,-0.019 -0.007,-0.023 0.01,-0.007 0.042,-0.024 0.105,-0.018 0.004,0.003 0.02,0.005 0.039,0.006 -0.003,0 -0.006,-0.001 -0.007,-0.001 L 4.9,-0.072 C 4.865,-0.085 4.829,-0.066 4.793,-0.079 L 4.79,-0.092 C 4.763,-0.092 4.725,-0.097 4.708,-0.104 4.75,-0.106 4.759,-0.102 4.806,-0.1 4.813,-0.108 4.78,-0.113 4.775,-0.114 l 0.007,0.007 C 4.726,-0.097 4.698,-0.119 4.628,-0.117 4.618,-0.116 4.624,-0.115 4.626,-0.113 4.57,-0.125 4.514,-0.109 4.459,-0.124 l 0.018,0.006 C 4.44,-0.123 4.367,-0.135 4.294,-0.147 L 4.293,-0.152 C 4.301,-0.155 4.274,-0.155 4.259,-0.153 v 0 c -0.036,-0.006 -0.072,-0.011 -0.1,-0.015 0.009,-0.003 0.021,-0.005 0.034,-0.006 0.011,0.005 0.079,0.001 0.069,0.014 0.031,-0.008 0.081,0.003 0.104,-0.002 -0.041,0.008 0.029,0.012 0.036,0.019 0.014,-0.008 0.062,0.001 0.057,-0.01 0.008,-0.003 -0.021,0.007 -0.039,0.001 -0.043,-0.01 0.08,-0.009 0.026,-0.019 0.069,0.008 0.16,0.005 0.231,0.015 l -0.04,0.004 C 4.669,-0.154 4.743,-0.151 4.749,-0.156 4.725,-0.158 4.698,-0.158 4.668,-0.16 c -0.002,-0.012 0.072,0 0.075,-0.007 l 0.088,0.02 -0.039,0.001 C 4.817,-0.139 4.896,-0.148 4.956,-0.149 4.922,-0.166 4.866,-0.15 4.804,-0.157 4.759,-0.163 4.832,-0.173 4.789,-0.177 4.8,-0.181 4.828,-0.18 4.842,-0.176 L 4.859,-0.179 C 4.821,-0.195 4.735,-0.191 4.678,-0.204 4.683,-0.203 4.687,-0.201 4.689,-0.199 4.645,-0.193 4.6,-0.193 4.558,-0.198 4.58,-0.202 4.589,-0.199 4.602,-0.197 4.604,-0.201 4.563,-0.203 4.548,-0.207 4.588,-0.211 4.556,-0.216 4.581,-0.218 4.555,-0.222 4.534,-0.221 4.502,-0.219 4.486,-0.214 4.516,-0.211 4.512,-0.204 4.48,-0.208 4.465,-0.19 4.417,-0.199 4.481,-0.202 4.401,-0.216 4.379,-0.221 h 0.01 C 4.369,-0.23 4.352,-0.23 4.339,-0.222 c 0.025,0.003 0.05,0.001 0.043,0.01 C 4.365,-0.213 4.348,-0.213 4.329,-0.216 L 4.346,-0.209 4.261,-0.211 C 4.248,-0.219 4.225,-0.23 4.213,-0.242 4.193,-0.235 4.164,-0.241 4.145,-0.244 l 0.009,0.004 c -0.037,0.007 -0.121,0.001 -0.128,-0.006 -0.027,0.006 0.19,0.045 0,0.038 -0.072,0 -0.045,-0.022 -0.086,-0.03 0,0 0.002,0.002 -0.002,0.004 -0.031,0.001 -0.034,-0.007 -0.06,-0.011 0.018,-0.003 0.046,-0.004 0.055,0 -0.01,-0.01 -0.066,0.001 -0.09,-0.007 0.031,0.015 -0.061,0.006 -0.037,0.013 -0.063,0.01 -0.13,-0.002 -0.163,-0.013 -0.042,0.019 -0.074,-0.002 -0.143,0.006 0.01,0 0.03,0.003 0.044,0.001 0.04,0.011 -0.071,0.006 -0.01,0.016 -0.013,-0.002 -10e-4,-0.006 0.012,-0.004 0.023,0.001 0.045,0.006 0.039,0.012 l -0.056,0.01 0.02,0.003 -0.086,0.014 c -0.002,-0.003 0.006,-0.005 0.01,-0.007 -0.099,0.006 -0.212,-0.002 -0.299,0 C 3.157,-0.233 2.96,-0.215 2.89,-0.235 c 0.019,0.01 0.029,0.026 0.017,0.033 0.016,0.001 0.048,0.014 0.083,0.012 0.006,-0.005 0.05,-0.011 0.022,-0.017 0.098,0.003 -0.014,0.014 0.015,0.026 C 2.919,-0.184 2.855,-0.203 2.786,-0.211 L 2.785,-0.207 2.733,-0.214 c 0.042,-0.003 0.04,-0.021 -0.014,-0.015 l 0.006,0.001 c -0.031,0.008 -0.096,-0.001 -0.144,0 L 2.548,-0.239 C 2.499,-0.237 2.497,-0.217 2.481,-0.205 2.405,-0.204 2.361,-0.22 2.307,-0.23 2.282,-0.221 2.168,-0.219 2.229,-0.209 2.16,-0.216 2.174,-0.263 2.056,-0.237 l 0.03,0.008 C 1.974,-0.231 1.813,-0.247 1.761,-0.238 1.802,-0.208 1.62,-0.208 1.6,-0.178 1.605,-0.185 1.563,-0.187 1.557,-0.191 1.547,-0.187 1.532,-0.184 1.516,-0.19 1.56,-0.196 1.485,-0.221 1.569,-0.209 1.526,-0.229 1.471,-0.245 1.378,-0.244 l 0.001,0.012 0.074,-0.003 c -0.007,0.009 0.031,0.008 0.046,0.012 -0.137,0.007 0.018,0.029 -0.122,0.027 C 1.363,-0.204 1.372,-0.2 1.336,-0.203 c 0.017,0 0.02,0.009 -0.008,0.009 l -0.026,-0.01 c -0.049,0.02 0.081,0.013 0.039,0.028 0.054,0.009 0.148,0.014 0.131,0.03 C 1.383,-0.14 1.392,-0.175 1.3,-0.168 L 1.29,-0.161 C 1.257,-0.166 1.252,-0.177 1.234,-0.183 1.232,-0.18 1.224,-0.177 1.203,-0.176 1.148,-0.191 1.112,-0.195 1.061,-0.212 c 0.135,0.013 0.116,-0.012 0.255,0 C 1.294,-0.217 1.196,-0.221 1.19,-0.238 l 0.001,0.012 C 1.146,-0.232 1.101,-0.239 1.044,-0.234 l 0.035,0.006 C 1.003,-0.236 0.953,-0.209 0.894,-0.229 0.915,-0.23 0.932,-0.23 0.945,-0.228 0.906,-0.234 0.857,-0.233 0.815,-0.23 L 0.728,-0.251 C 0.729,-0.245 0.673,-0.244 0.7,-0.234 0.637,-0.225 0.608,-0.243 0.571,-0.247 0.507,-0.233 0.627,-0.241 0.633,-0.224 0.545,-0.218 0.451,-0.223 0.401,-0.234 0.419,-0.237 0.428,-0.239 0.427,-0.242 0.424,-0.238 0.389,-0.239 0.369,-0.239 L 0.355,-0.247 c -0.033,0.006 -0.029,0.01 0,0.016 -0.032,0.002 -0.07,-0.014 -0.102,-0.002 0.054,0.01 0.123,0.001 0.151,0.007 C 0.291,-0.234 0.29,-0.201 0.147,-0.212 0.145,-0.208 0.169,-0.2 0.142,-0.2 0.078,-0.203 0.125,-0.217 0.105,-0.226 c 0.049,0.005 0.072,0.001 0.101,-0.01 L 0.192,-0.242 C 0.19,-0.239 0.16,-0.238 0.15,-0.235 L 0.142,-0.248 c 0.004,0.014 -0.045,0.025 -0.084,0.02 0.039,-0.011 0.028,-0.01 0.039,-0.027 -0.055,-0.016 -0.062,0.016 -0.123,-0.001 0.005,0.005 0.058,0.008 0.012,0.012 -0.038,0 -0.033,-0.011 -0.059,-0.015 0.029,0.013 0.022,0.022 0.053,0.036 0.068,0.002 0.027,0 0.094,0.005 l -0.056,0.011 c 0.057,0.002 0.042,0.013 0.046,0.018 -0.098,0.013 -0.074,-0.018 -0.137,-0.015 -0.031,-0.009 0.059,-0.002 0.011,-0.011 -0.059,0.002 -0.013,-0.008 -0.08,-0.013 l 0.012,0.006 c -0.021,0.007 -0.041,-0.002 -0.064,-0.003 -0.026,-0.004 0.029,-0.043 -0.077,-0.043 0.005,0.003 0.007,0.005 0.007,0.006 l 0.103,0.103 c -0.107,0 -0.231,0.003 -0.356,0.01 -0.029,0.02 0.089,0.016 0.081,0.025 l 0.057,-0.004 c -0.003,-0.009 -0.119,-0.003 -0.068,-0.018 0.101,0.006 0.146,-0.003 0.242,0.014 -0.03,0.02 -0.126,-0.003 -0.188,0.012 0.026,-0.001 0.048,0.001 0.07,0.004 l -0.187,0.008 -0.015,-0.005 c 0.045,-0.002 0.075,-0.003 0.079,-0.004 -0.059,0.002 -0.109,-0.01 -0.113,-0.024 l 0.011,-0.001 -0.021,-0.004 z"
             style="fill:#ffed00;fill-opacity:1;fill-rule:nonzero;stroke:none"
             id="path21660"
             inkscape:connector-curvature="0" />
        </g>
        <g
           id="g21662"
           transform="translate(385.6301,460.2551)">
          <path
             d="M 0,0 C 0.015,0.004 0.053,0.003 0.046,0.013 0.047,0.003 -0.022,0.011 0,0"
             style="fill:#ffed00;fill-opacity:1;fill-rule:nonzero;stroke:none"
             id="path21664"
             inkscape:connector-curvature="0" />
        </g>
        <g
           id="g21666"
           transform="translate(385.6756,460.2454)">
          <path
             d="M 0,0 C 0.003,0.002 0.001,0.006 0.018,0.007 L -0.029,0.004 Z"
             style="fill:#ffed00;fill-opacity:1;fill-rule:nonzero;stroke:none"
             id="path21668"
             inkscape:connector-curvature="0" />
        </g>
        <g
           id="g21670"
           transform="translate(385.7233,460.1774)">
          <path
             d="M 0,0 C 0.024,0.007 0.04,0.012 0.078,0.011 0.092,-0.013 0.015,0.004 -0.002,-0.018 0.068,-0.021 0.089,0 0.147,0.002 0.118,0.013 0.002,0.018 0,0"
             style="fill:#ffed00;fill-opacity:1;fill-rule:nonzero;stroke:none"
             id="path21672"
             inkscape:connector-curvature="0" />
        </g>
        <g
           id="g21674"
           transform="translate(385.6923,460.1467)">
          <path
             d="M 0,0 0.039,0.005 0.035,0.007 -0.004,0.001 Z"
             style="fill:#ffed00;fill-opacity:1;fill-rule:nonzero;stroke:none"
             id="path21676"
             inkscape:connector-curvature="0" />
        </g>
        <g
           id="g21678"
           transform="translate(384.8522,460.3576)">
          <path
             d="M 0,0 C -0.003,0.008 -0.028,0 -0.041,-0.002 -0.03,-0.002 -0.015,-0.004 0,0"
             style="fill:#ffed00;fill-opacity:1;fill-rule:nonzero;stroke:none"
             id="path21680"
             inkscape:connector-curvature="0" />
        </g>
        <g
           id="g21682"
           transform="translate(377.2311,460.3655)">
          <path
             d="M 0,0 -0.296,-0.007 C -0.211,-0.005 -0.132,-0.004 0,0"
             style="fill:#ffed00;fill-opacity:1;fill-rule:nonzero;stroke:none"
             id="path21684"
             inkscape:connector-curvature="0" />
        </g>
        <g
           id="g21686"
           transform="translate(383.8705,460.308)">
          <path
             d="M 0,0 C 0.079,0.007 0.115,0.02 0.196,0.024 0.089,0.039 0.055,0 -0.034,0.015 Z"
             style="fill:#ffed00;fill-opacity:1;fill-rule:nonzero;stroke:none"
             id="path21688"
             inkscape:connector-curvature="0" />
        </g>
        <g
           id="g21690"
           transform="translate(383.8985,460.3685)">
          <path
             d="m 0,0 c 0.013,-0.014 -0.061,-0.017 -0.05,-0.027 0.054,0.003 0.025,0.013 0.074,0.012 z"
             style="fill:#ffed00;fill-opacity:1;fill-rule:nonzero;stroke:none"
             id="path21692"
             inkscape:connector-curvature="0" />
        </g>
        <g
           id="g21694"
           transform="translate(384.2585,460.1323)">
          <path
             d="m 0,0 -0.024,-0.007 0.019,0.002 z"
             style="fill:#ffed00;fill-opacity:1;fill-rule:nonzero;stroke:none"
             id="path21696"
             inkscape:connector-curvature="0" />
        </g>
        <g
           id="g21698"
           transform="translate(383.5364,460.3558)">
          <path
             d="m 0,0 0.009,0.003 -0.04,0.005 z"
             style="fill:#ffed00;fill-opacity:1;fill-rule:nonzero;stroke:none"
             id="path21700"
             inkscape:connector-curvature="0" />
        </g>
        <g
           id="g21702"
           transform="translate(383.554,460.3624)">
          <path
             d="M 0,0 -0.009,-0.003 Z"
             style="fill:#ffed00;fill-opacity:1;fill-rule:nonzero;stroke:none"
             id="path21704"
             inkscape:connector-curvature="0" />
        </g>
        <g
           id="g21706"
           transform="translate(384.2275,460.1017)">
          <path
             d="M 0,0 0.036,-0.003 0.054,0.003 Z"
             style="fill:#ffed00;fill-opacity:1;fill-rule:nonzero;stroke:none"
             id="path21708"
             inkscape:connector-curvature="0" />
        </g>
        <g
           id="g21710"
           transform="translate(383.9115,460.1783)">
          <path
             d="M 0,0 0.032,0.005 C 0.026,0.004 -0.018,0.01 0,0"
             style="fill:#ffed00;fill-opacity:1;fill-rule:nonzero;stroke:none"
             id="path21712"
             inkscape:connector-curvature="0" />
        </g>
        <g
           id="g21714"
           transform="translate(383.2932,460.3619)">
          <path
             d="m 0,0 -0.039,-0.005 0.004,-0.002 0.039,0.006 z"
             style="fill:#ffed00;fill-opacity:1;fill-rule:nonzero;stroke:none"
             id="path21716"
             inkscape:connector-curvature="0" />
        </g>
        <g
           id="g21718"
           transform="translate(383.6608,460.1389)">
          <path
             d="M 0,0 C 0.022,-0.011 -0.064,-0.003 -0.018,-0.013 0.022,-0.011 0.006,-0.005 0,0"
             style="fill:#ffed00;fill-opacity:1;fill-rule:nonzero;stroke:none"
             id="path21720"
             inkscape:connector-curvature="0" />
        </g>
        <g
           id="g21722"
           transform="translate(383.1906,460.2134)">
          <path
             d="M 0,0 C -0.005,0 -0.011,0 -0.016,-0.002 -0.01,-0.001 -0.004,-0.001 0,0"
             style="fill:#ffed00;fill-opacity:1;fill-rule:nonzero;stroke:none"
             id="path21724"
             inkscape:connector-curvature="0" />
        </g>
        <g
           id="g21726"
           transform="translate(383.1906,460.2134)">
          <path
             d="M 0,0 C 0.017,0 0.034,-0.004 0.046,-0.001 0.024,0.004 0.017,0.002 0,0"
             style="fill:#ffed00;fill-opacity:1;fill-rule:nonzero;stroke:none"
             id="path21728"
             inkscape:connector-curvature="0" />
        </g>
        <g
           id="g21730"
           transform="translate(382.9962,460.2109)">
          <path
             d="m 0,0 0.015,-0.001 c -0.015,-0.005 -0.008,-0.004 0.006,0 0.016,0 0.015,0.004 0.017,0.006 L 0.048,0.009 0.035,0.005 C 0.01,0.006 -0.006,0.005 0,0"
             style="fill:#ffed00;fill-opacity:1;fill-rule:nonzero;stroke:none"
             id="path21732"
             inkscape:connector-curvature="0" />
        </g>
        <g
           id="g21734"
           transform="translate(382.2739,460.396)">
          <path
             d="M 0,0 C 0.057,-0.004 0.072,-0.006 0.068,-0.015 0.122,-0.017 0.114,-0.003 0.147,0.001 0.086,-0.001 0.073,0.003 0,0"
             style="fill:#ffed00;fill-opacity:1;fill-rule:nonzero;stroke:none"
             id="path21736"
             inkscape:connector-curvature="0" />
        </g>
        <g
           id="g21738"
           transform="translate(382.4205,460.3967)">
          <path
             d="M 0,0 0.021,0.001 C 0.012,0.001 0.006,0.001 0,0"
             style="fill:#ffed00;fill-opacity:1;fill-rule:nonzero;stroke:none"
             id="path21740"
             inkscape:connector-curvature="0" />
        </g>
        <g
           id="g21742"
           transform="translate(383.2234,460.1176)">
          <path
             d="m 0,0 -0.035,-0.013 0.013,0.002 z"
             style="fill:#ffed00;fill-opacity:1;fill-rule:nonzero;stroke:none"
             id="path21744"
             inkscape:connector-curvature="0" />
        </g>
        <g
           id="g21746"
           transform="translate(382.1896,460.4003)">
          <path
             d="M 0,0 C 0.011,-0.001 0.027,0 0.036,-0.003 0.039,0.005 -0.011,0 0,0"
             style="fill:#ffed00;fill-opacity:1;fill-rule:nonzero;stroke:none"
             id="path21748"
             inkscape:connector-curvature="0" />
        </g>
        <g
           id="g21750"
           transform="translate(382.4088,460.2331)">
          <path
             d="M 0,0 C 0.006,-0.005 0.042,-0.002 0.057,-0.004 0.036,-0.003 0.018,0.013 0,0"
             style="fill:#ffed00;fill-opacity:1;fill-rule:nonzero;stroke:none"
             id="path21752"
             inkscape:connector-curvature="0" />
        </g>
        <g
           id="g21754"
           transform="translate(382.0266,460.3651)">
          <path
             d="M 0,0 C 0.011,-0.001 0.027,-0.006 0.02,-0.013 0.035,-0.009 0.056,0.006 0,0"
             style="fill:#ffed00;fill-opacity:1;fill-rule:nonzero;stroke:none"
             id="path21756"
             inkscape:connector-curvature="0" />
        </g>
        <g
           id="g21758"
           transform="translate(382.3049,460.2346)">
          <path
             d="M 0,0 0.008,-0.003 0.047,0.003 Z"
             style="fill:#ffed00;fill-opacity:1;fill-rule:nonzero;stroke:none"
             id="path21760"
             inkscape:connector-curvature="0" />
        </g>
        <g
           id="g21762"
           transform="translate(382.4436,460.1087)">
          <path
             d="M 0,0 C 0.044,0.01 -0.069,0.025 0.006,0.033 -0.091,0.044 0.013,0.019 -0.058,0.02 -0.016,0.017 0.004,0.004 0,0"
             style="fill:#ffed00;fill-opacity:1;fill-rule:nonzero;stroke:none"
             id="path21764"
             inkscape:connector-curvature="0" />
        </g>
        <g
           id="g21766"
           transform="translate(382.3854,460.1291)">
          <path
             d="M 0,0 C -0.006,0.001 -0.013,0.001 -0.02,0.001 Z"
             style="fill:#ffed00;fill-opacity:1;fill-rule:nonzero;stroke:none"
             id="path21768"
             inkscape:connector-curvature="0" />
        </g>
        <g
           id="g21770"
           transform="translate(381.7698,460.1935)">
          <path
             d="M 0,0 C 0.006,0.001 0.011,0.002 0.015,0.003 0.01,0.003 0.005,0.002 0,0"
             style="fill:#ffed00;fill-opacity:1;fill-rule:nonzero;stroke:none"
             id="path21772"
             inkscape:connector-curvature="0" />
        </g>
        <g
           id="g21774"
           transform="translate(382.1564,460.1207)">
          <path
             d="m 0,0 0.066,0.015 c -0.044,-0.01 -0.154,-0.009 -0.148,-0.024 0.036,-0.004 0.079,0 0.097,0.007 z"
             style="fill:#ffed00;fill-opacity:1;fill-rule:nonzero;stroke:none"
             id="path21776"
             inkscape:connector-curvature="0" />
        </g>
        <g
           id="g21778"
           transform="translate(381.4039,460.3965)">
          <path
             d="M 0,0 0.028,0.006 -0.007,0.008 C 0.003,0.006 -0.015,-0.006 0,0"
             style="fill:#ffed00;fill-opacity:1;fill-rule:nonzero;stroke:none"
             id="path21780"
             inkscape:connector-curvature="0" />
        </g>
        <g
           id="g21782"
           transform="translate(381.39,460.4046)">
          <path
             d="M 0,0 H 0.007 C 0.005,0 0.003,0 0,0"
             style="fill:#ffed00;fill-opacity:1;fill-rule:nonzero;stroke:none"
             id="path21784"
             inkscape:connector-curvature="0" />
        </g>
        <g
           id="g21786"
           transform="translate(381.8938,460.2009)">
          <path
             d="M 0,0 C 0.021,-0.001 0.038,-0.001 0.057,0.002 0.049,0.005 -0.003,0.008 0,0"
             style="fill:#ffed00;fill-opacity:1;fill-rule:nonzero;stroke:none"
             id="path21788"
             inkscape:connector-curvature="0" />
        </g>
        <g
           id="g21790"
           transform="translate(381.2045,460.3744)">
          <path
             d="M 0,0 0.047,0.003 -0.004,0.001 Z"
             style="fill:#ffed00;fill-opacity:1;fill-rule:nonzero;stroke:none"
             id="path21792"
             inkscape:connector-curvature="0" />
        </g>
        <g
           id="g21794"
           transform="translate(380.9863,460.4003)">
          <path
             d="m 0,0 -0.008,0.003 -0.039,-0.006 0.008,-0.002 z"
             style="fill:#ffed00;fill-opacity:1;fill-rule:nonzero;stroke:none"
             id="path21796"
             inkscape:connector-curvature="0" />
        </g>
        <g
           id="g21798"
           transform="translate(381.2716,460.101)">
          <path
             d="M 0,0 C 0.032,-0.002 0.056,0.012 0.048,0.015 L -0.013,0.014 C 0.002,0.002 0.004,0.015 0.039,0.012 Z"
             style="fill:#ffed00;fill-opacity:1;fill-rule:nonzero;stroke:none"
             id="path21800"
             inkscape:connector-curvature="0" />
        </g>
        <g
           id="g21802"
           transform="translate(379.3671,460.3779)">
          <path
             d="M 0,0 C 0.014,0.008 0.081,0.003 0.084,-0.004 0.075,-0.008 0.039,-0.011 0.062,-0.016 l 0.053,0.02 C 0.186,-0.008 0.061,-0.022 0.026,-0.029 0.098,-0.031 0.12,-0.018 0.196,-0.018 0.174,-0.017 0.16,-0.012 0.148,-0.007 0.145,0.006 0.216,0 0.267,0.001 0.235,0.007 0.254,0.012 0.277,0.018 c 0.005,0 0.008,0.001 0.01,0.002 L 0.295,0.022 H 0.288 c 0.001,0.001 0,0.003 -0.005,0.006 C 0.24,0.024 0.208,0.035 0.18,0.036 0.207,0.013 0.086,0.03 0.051,0.023 L 0.011,0.021 H -0.004 C -0.007,0.024 -0.002,0.027 0.02,0.031 0.001,0.027 -0.062,0.028 -0.056,0.021 H -0.201 C -0.206,0.022 -0.21,0.023 -0.214,0.024 -0.219,0.023 -0.22,0.022 -0.219,0.021 L -0.851,0.019 c 0.031,-0.001 0.058,-0.007 0.09,-0.009 -0.048,-0.015 0.053,-0.003 0.039,-0.017 -0.022,-0.005 -0.054,-0.003 -0.073,0 -0.007,-0.007 0.02,-0.013 0.017,-0.022 0.08,-0.009 0.092,0.025 0.17,0.02 -0.003,-0.008 -0.027,-0.016 0.024,-0.015 l -0.013,-0.002 c 0.082,0.01 0.064,-0.019 0.115,0.004 l -0.001,-0.012 c 0.037,0.009 0.109,0.009 0.149,0.011 l -0.002,-0.002 c 0.114,0.014 0.064,0.003 0.192,0.009 l -0.059,-0.015 c 0.044,-0.006 0.054,0.01 0.086,0.008 -0.002,-0.002 0.005,-0.011 -0.025,-0.013 l 0.155,0.022 C 0.05,-0.005 0.006,-0.005 0,0"
             style="fill:#ffed00;fill-opacity:1;fill-rule:nonzero;stroke:none"
             id="path21804"
             inkscape:connector-curvature="0" />
        </g>
        <g
           id="g21806"
           transform="translate(379.5635,460.3596)">
          <path
             d="M 0,0 C 0.008,-0.001 0.018,-0.001 0.029,0 0.018,0 0.009,0 0,0"
             style="fill:#ffed00;fill-opacity:1;fill-rule:nonzero;stroke:none"
             id="path21808"
             inkscape:connector-curvature="0" />
        </g>
        <g
           id="g21810"
           transform="translate(378.4716,460.3971)">
          <path
             d="M 0,0 H 0.044 C 0.031,0.001 0.016,0.001 0,0"
             style="fill:#ffed00;fill-opacity:1;fill-rule:nonzero;stroke:none"
             id="path21812"
             inkscape:connector-curvature="0" />
        </g>
        <g
           id="g21814"
           transform="translate(379.7861,460.3865)">
          <path
             d="M 0,0 C -0.027,0.006 0.02,0.009 0.025,0.014 L -0.072,0.013 c 0.001,-0.004 -0.009,-0.01 -0.007,-0.014 z"
             style="fill:#ffed00;fill-opacity:1;fill-rule:nonzero;stroke:none"
             id="path21816"
             inkscape:connector-curvature="0" />
        </g>
        <g
           id="g21818"
           transform="translate(379.6866,460.4088)">
          <path
             d="M 0,0 C -0.003,-0.003 -0.013,-0.006 -0.025,-0.009 H 0.028 C 0.028,-0.005 0.022,-0.002 0,0"
             style="fill:#ffed00;fill-opacity:1;fill-rule:nonzero;stroke:none"
             id="path21820"
             inkscape:connector-curvature="0" />
        </g>
        <g
           id="g21822"
           transform="translate(379.6968,460.1557)">
          <path
             d="M 0,0 H -0.017 L -0.043,-0.004 Z"
             style="fill:#ffed00;fill-opacity:1;fill-rule:nonzero;stroke:none"
             id="path21824"
             inkscape:connector-curvature="0" />
        </g>
        <g
           id="g21826"
           transform="translate(379.4298,460.1765)">
          <path
             d="M 0,0 C 0.02,-0.007 0.059,-0.002 0.072,0 0.027,0 0.047,0.003 0,0"
             style="fill:#ffed00;fill-opacity:1;fill-rule:nonzero;stroke:none"
             id="path21828"
             inkscape:connector-curvature="0" />
        </g>
        <g
           id="g21830"
           transform="translate(379.4849,460.0994)">
          <path
             d="m 0,0 -0.043,-0.004 0.004,-0.001 z"
             style="fill:#ffed00;fill-opacity:1;fill-rule:nonzero;stroke:none"
             id="path21832"
             inkscape:connector-curvature="0" />
        </g>
        <g
           id="g21834"
           transform="translate(378.1434,460.3486)">
          <path
             d="M 0,0 -0.021,-0.001 C -0.011,-0.001 -0.005,0 0,0"
             style="fill:#ffed00;fill-opacity:1;fill-rule:nonzero;stroke:none"
             id="path21836"
             inkscape:connector-curvature="0" />
        </g>
        <g
           id="g21838"
           transform="translate(378.5121,460.3604)">
          <path
             d="M 0,0 C -0.103,0.014 0.067,0.011 0.035,0.029 L -0.021,0.023 -0.016,0.028 -0.084,0.027 C -0.07,0.018 -0.06,0.018 -0.063,0.009 -0.154,0.013 -0.091,0.019 -0.158,0.03 L -0.259,0.029 -0.251,0.031 C -0.26,0.031 -0.264,0.03 -0.267,0.029 L -0.609,0.023 c -0.062,-0.006 0.035,-0.015 -0.011,-0.028 0.072,0 0.179,-0.009 0.185,0.008 -0.002,-0.002 -0.007,-0.007 0.008,-0.009 l 0.042,0.014 -0.04,0.005 c 0.042,0.014 0.177,0.011 0.202,0.002 C -0.3,0.01 -0.262,-0.007 -0.369,0.003 c 0.005,-0.005 0.024,-0.012 0,-0.015 C -0.243,-0.007 -0.13,-0.015 0,0"
             style="fill:#ffed00;fill-opacity:1;fill-rule:nonzero;stroke:none"
             id="path21840"
             inkscape:connector-curvature="0" />
        </g>
        <g
           id="g21842"
           transform="translate(377.2507,460.3521)">
          <path
             d="M 0,0 0.001,0.002 C -0.001,0.001 -0.002,0 0,0"
             style="fill:#ffed00;fill-opacity:1;fill-rule:nonzero;stroke:none"
             id="path21844"
             inkscape:connector-curvature="0" />
        </g>
        <g
           id="g21846"
           transform="translate(377.2929,460.35)">
          <path
             d="M 0,0 0.061,0.017 -0.034,0.015 -0.041,0.004 c 0.008,0.003 0.042,0.009 0.055,0.004 z"
             style="fill:#ffed00;fill-opacity:1;fill-rule:nonzero;stroke:none"
             id="path21848"
             inkscape:connector-curvature="0" />
        </g>
        <g
           id="g21850"
           transform="translate(377.4254,460.3768)">
          <path
             d="m 0,0 c -0.049,-0.005 -0.047,-0.019 -0.02,-0.025 -0.045,-0.006 -0.024,0.015 -0.055,0 0.001,-0.01 0.057,-0.004 0.07,-0.002 z"
             style="fill:#ffed00;fill-opacity:1;fill-rule:nonzero;stroke:none"
             id="path21852"
             inkscape:connector-curvature="0" />
        </g>
        <g
           id="g21854"
           transform="translate(377.7895,460.3696)">
          <path
             d="M 0,0 -0.014,-0.006 0.02,-0.007 Z"
             style="fill:#ffed00;fill-opacity:1;fill-rule:nonzero;stroke:none"
             id="path21856"
             inkscape:connector-curvature="0" />
        </g>
        <g
           id="g21858"
           transform="translate(377.7756,460.3638)">
          <path
             d="m 0,0 -0.034,0.002 c 0.002,-0.005 0.005,-0.009 0.01,-0.012 z"
             style="fill:#ffed00;fill-opacity:1;fill-rule:nonzero;stroke:none"
             id="path21860"
             inkscape:connector-curvature="0" />
        </g>
        <g
           id="g21862"
           transform="translate(377.6526,460.3694)">
          <path
             d="M 0,0 C -0.014,0.001 -0.03,0.002 -0.05,0.002 Z"
             style="fill:#ffed00;fill-opacity:1;fill-rule:nonzero;stroke:none"
             id="path21864"
             inkscape:connector-curvature="0" />
        </g>
        <g
           id="g21866"
           transform="translate(377.6914,460.3658)">
          <path
             d="M 0,0 -0.001,0.002 -0.039,0.004 Z"
             style="fill:#ffed00;fill-opacity:1;fill-rule:nonzero;stroke:none"
             id="path21868"
             inkscape:connector-curvature="0" />
        </g>
        <g
           id="g21870"
           transform="translate(377.7417,460.3654)">
          <path
             d="m 0,0 c -0.006,0.01 -0.012,0.02 -0.061,0.017 l 0.01,-0.015 z"
             style="fill:#ffed00;fill-opacity:1;fill-rule:nonzero;stroke:none"
             id="path21872"
             inkscape:connector-curvature="0" />
        </g>
        <g
           id="g21874"
           transform="translate(379.1724,460.114)">
          <path
             d="m 0,0 -0.039,-0.005 0.004,-0.002 0.039,0.006 z"
             style="fill:#ffed00;fill-opacity:1;fill-rule:nonzero;stroke:none"
             id="path21876"
             inkscape:connector-curvature="0" />
        </g>
        <g
           id="g21878"
           transform="translate(378.9484,460.1228)">
          <path
             d="M 0,0 C -0.01,-0.002 -0.017,-0.003 -0.023,-0.005 -0.013,-0.004 -0.005,-0.003 0,0"
             style="fill:#ffed00;fill-opacity:1;fill-rule:nonzero;stroke:none"
             id="path21880"
             inkscape:connector-curvature="0" />
        </g>
        <g
           id="g21882"
           transform="translate(378.7819,460.0569)">
          <path
             d="M 0,0 C -0.046,0.01 0.063,0.013 -0.022,0.017 -0.029,0.026 0.011,0.038 0.05,0.033 0.047,0.025 0.012,0.028 0.036,0.019 0.063,0.029 0.073,0.022 0.063,0.035 0.108,0.043 0.113,0.052 0.143,0.061 0.089,0.055 -0.024,0.068 -0.092,0.052 -0.13,0.036 -0.107,0.015 -0.107,-0.007 -0.101,-0.012 -0.004,-0.015 0,0"
             style="fill:#ffed00;fill-opacity:1;fill-rule:nonzero;stroke:none"
             id="path21884"
             inkscape:connector-curvature="0" />
        </g>
        <g
           id="g21886"
           transform="translate(378.8538,460.0347)">
          <path
             d="M 0,0 C 0.021,-0.001 0.028,0 0.041,0.002 0.037,0.009 0.017,0 0,0"
             style="fill:#ffed00;fill-opacity:1;fill-rule:nonzero;stroke:none"
             id="path21888"
             inkscape:connector-curvature="0" />
        </g>
        <g
           id="g21890"
           transform="translate(378.3682,460.2022)">
          <path
             d="m 0,0 c -0.004,-0.003 -0.042,-0.007 -0.034,-0.013 l 0.058,0.004 C 0.01,-0.008 0.005,-0.004 0,0"
             style="fill:#ffed00;fill-opacity:1;fill-rule:nonzero;stroke:none"
             id="path21892"
             inkscape:connector-curvature="0" />
        </g>
        <g
           id="g21894"
           transform="translate(378.4175,460.1954)">
          <path
             d="m 0,0 -0.025,-0.002 c 0.006,0 0.014,0 0.025,0.002"
             style="fill:#ffed00;fill-opacity:1;fill-rule:nonzero;stroke:none"
             id="path21896"
             inkscape:connector-curvature="0" />
        </g>
        <g
           id="g21898"
           transform="translate(378.3654,460.2042)">
          <path
             d="M 0,0 0.003,-0.002 C 0.004,-0.001 0.003,-0.001 0,0"
             style="fill:#ffed00;fill-opacity:1;fill-rule:nonzero;stroke:none"
             id="path21900"
             inkscape:connector-curvature="0" />
        </g>
        <g
           id="g21902"
           transform="translate(377.512,460.3749)">
          <path
             d="M 0,0 C 0.001,0.006 -0.025,0.002 -0.038,0.001 -0.027,0 -0.013,-0.002 0,0"
             style="fill:#ffed00;fill-opacity:1;fill-rule:nonzero;stroke:none"
             id="path21904"
             inkscape:connector-curvature="0" />
        </g>
        <g
           id="g21906"
           transform="translate(376.5398,460.3509)">
          <path
             d="M 0,0 -0.023,0.005 C -0.015,0.002 -0.011,0 0,0"
             style="fill:#ffed00;fill-opacity:1;fill-rule:nonzero;stroke:none"
             id="path21908"
             inkscape:connector-curvature="0" />
        </g>
        <g
           id="g21910"
           transform="translate(376.1882,460.184)">
          <path
             d="M 0,0 C -0.001,-0.001 -0.002,-0.002 -0.005,-0.003 -0.002,-0.002 -0.001,-0.001 0,0"
             style="fill:#ffed00;fill-opacity:1;fill-rule:nonzero;stroke:none"
             id="path21912"
             inkscape:connector-curvature="0" />
        </g>
        <g
           id="g21914"
           transform="translate(376.1836,460.1809)">
          <path
             d="m 0,0 c -0.016,-0.005 -0.064,0.003 -0.081,-0.005 l 0.002,0.002 -0.032,-0.004 c 0.03,0.001 0.094,0 0.111,0.007"
             style="fill:#ffed00;fill-opacity:1;fill-rule:nonzero;stroke:none"
             id="path21916"
             inkscape:connector-curvature="0" />
        </g>
      </g>
    </g>
  </g>
</svg>
