<?xml version="1.0" encoding="UTF-8" standalone="no"?>
<!-- Generator: Adobe Illustrator 16.0.0, SVG Export Plug-In . SVG Version: 6.00 Build 0)  -->

<svg
   xmlns:dc="http://purl.org/dc/elements/1.1/"
   xmlns:cc="http://creativecommons.org/ns#"
   xmlns:rdf="http://www.w3.org/1999/02/22-rdf-syntax-ns#"
   xmlns:svg="http://www.w3.org/2000/svg"
   xmlns="http://www.w3.org/2000/svg"
   xmlns:sodipodi="http://sodipodi.sourceforge.net/DTD/sodipodi-0.dtd"
   xmlns:inkscape="http://www.inkscape.org/namespaces/inkscape"
   version="1.1"
   id="Vrstva_1"
   x="0px"
   y="0px"
   width="356.073px"
   height="175.053px"
   viewBox="119.846 286.351 356.073 175.053"
   enable-background="new 119.846 286.351 356.073 175.053"
   xml:space="preserve"
   sodipodi:docname="TV Raj HD.svg"
   inkscape:version="0.92.1 r15371"><metadata
     id="metadata17"><rdf:RDF><cc:Work
         rdf:about=""><dc:format>image/svg+xml</dc:format><dc:type
           rdf:resource="http://purl.org/dc/dcmitype/StillImage" /><dc:title></dc:title></cc:Work></rdf:RDF></metadata><defs
     id="defs15"><clipPath
       clipPathUnits="userSpaceOnUse"
       id="clipPath3766"><path
         d="m 370.807,508.912 h 18.106 v 8.6 h -18.106 z"
         id="path3764"
         inkscape:connector-curvature="0" /></clipPath></defs><sodipodi:namedview
     pagecolor="#ffffff"
     bordercolor="#666666"
     borderopacity="1"
     objecttolerance="10"
     gridtolerance="10"
     guidetolerance="10"
     inkscape:pageopacity="0"
     inkscape:pageshadow="2"
     inkscape:window-width="1920"
     inkscape:window-height="1017"
     id="namedview13"
     showgrid="false"
     inkscape:zoom="2.2559231"
     inkscape:cx="136.20642"
     inkscape:cy="61.241197"
     inkscape:window-x="-8"
     inkscape:window-y="-8"
     inkscape:window-maximized="1"
     inkscape:current-layer="Vrstva_1" /><g
     id="g4561"
     style="fill:#ffffff;fill-opacity:1"><path
       style="fill:#ffffff;fill-opacity:1"
       id="path2"
       d="M446.915,349.949h-9.087l-13.085,33.584l-13.012-33.584h-9.087l17.883,43.252h8.433L446.915,349.949z   M354.305,393.056h8.142v-35.692h13.666v-7.415h-35.475v7.415h13.667V393.056L354.305,393.056z"
       fill="#FFFFFF" /><g
       id="g4551"
       style="fill:#ffffff;fill-opacity:1"><path
         inkscape:connector-curvature="0"
         id="path3770"
         style="fill:#ffffff;fill-opacity:1;fill-rule:evenodd;stroke:none;stroke-width:23.26193619"
         d="m 192.25382,342.96196 c 13.95716,-10.28178 28.96111,-14.72481 45.47708,-7.72296 15.91117,6.74596 23.68066,19.58655 25.07637,36.45145 1.44224,17.26036 -2.81469,33.72981 -8.14168,49.82707 -2.81469,8.51387 -6.62965,16.88816 -11.21225,24.58786 -8.30451,13.98043 -17.14405,17.35341 -33.05521,14.21305 -1.90748,-0.37219 -3.88474,-0.55829 -5.72244,-1.1631 -8.25798,-2.69838 -16.32988,-1.74464 -24.63439,0.20936 -5.93179,1.41898 -12.2823,2.00052 -18.35366,1.6516 -8.90933,-0.51177 -15.37614,-6.02485 -20.70313,-12.84059 -5.90853,-7.56013 -9.88632,-16.19031 -12.91037,-25.26247 -5.58287,-16.74859 -8.88606,-33.89264 -8.11842,-51.61823 0.20936,-4.97806 1.02353,-10.07242 2.41924,-14.84112 4.34999,-14.86437 15.79486,-23.33172 31.45014,-24.28546 8.14168,-0.4885 15.3994,1.41898 22.09884,6.00158 3.39624,2.32619 6.9088,4.53608 10.58418,6.37377 8.04863,4.00105 16.67881,3.37298 25.28573,2.48903 1.11657,-0.11631 2.23314,-0.30241 3.51255,-0.11631 -4.04758,3.67539 -8.72323,6.25746 -13.98042,7.62991 -7.8858,2.07032 -15.46919,1.09332 -22.54082,-3.04731 -3.07058,-1.76791 -6.00158,-3.7917 -9.02563,-5.65265 -16.2601,-10.07242 -35.49772,-1.62834 -39.12658,17.19057 -2.72164,14.05021 -0.53502,27.84454 2.39598,41.54582 2.30293,10.90985 5.72244,21.4475 11.35183,31.17099 0.83743,1.48877 1.81443,2.90774 2.72164,4.37325 6.39703,9.97937 15.37614,13.56171 26.91406,10.84006 0.44198,-0.11631 0.90722,-0.1861 1.32593,-0.32567 12.39861,-4.46629 24.72744,-3.16362 37.12605,0.0931 2.51229,0.65133 5.21068,0.6746 7.83927,0.83743 4.4663,0.27914 7.90906,-1.69812 10.79354,-5.00132 5.58287,-6.39703 9.3513,-13.84085 12.18926,-21.74991 5.88527,-16.32988 10.42134,-33.00868 10.04915,-50.57145 -0.34893,-16.74859 -10.79353,-29.77527 -26.84427,-32.21778 -7.72296,-1.16309 -15.77159,-0.25588 -23.68065,-0.0698 -3.51255,0.0698 -7.04837,0.65133 -10.56092,1.00026" /><path
         inkscape:connector-curvature="0"
         id="path3774"
         style="fill:#ffffff;fill-opacity:1;fill-rule:evenodd;stroke:none;stroke-width:23.26193619"
         d="m 190.28819,329.77012 c -2.1401,-4.93153 -4.02431,-10.00263 -6.49008,-14.77133 -3.4195,-6.58313 -7.18794,-12.98016 -10.97963,-19.33067 -1.86096,-3.1171 -1.97727,-6.28072 0.23262,-8.07189 2.32619,-1.90748 5.74569,-1.74465 7.79274,1.32593 2.67513,4.04758 5.00132,8.46735 6.62966,13.04995 2.23314,6.30398 4.04757,12.84059 5.30372,19.44697 0.51176,2.58208 -0.95374,5.55961 -1.53529,8.3743 -0.32567,0 -0.62807,-0.0233 -0.95374,-0.0233" /></g><g
       id="g4547"
       style="fill:#ffffff;fill-opacity:1"><path
         inkscape:connector-curvature="0"
         id="path3778"
         style="fill:#ffffff;fill-opacity:1;fill-rule:nonzero;stroke:none;stroke-width:23.26193619"
         d="m 242.61359,301.33938 h -12.74754 v -11.3053 h -5.0711 v 28.61218 h 5.0711 v -12.4684 h 12.74754 v 12.4684 h 5.0711 v -28.61218 h -5.0711 z" /><path
         inkscape:connector-curvature="0"
         id="path3782"
         style="fill:#ffffff;fill-opacity:1;fill-rule:nonzero;stroke:none;stroke-width:23.26193619"
         d="m 257.76874,294.86558 h 4.86174 c 2.07032,0 3.76844,0.34893 5.04784,1.02353 1.30267,0.67459 2.30294,1.51202 3.02406,2.46576 0.72112,0.977 1.23288,2.02379 1.48876,3.09384 0.25588,1.09331 0.39545,2.07031 0.39545,2.88448 0,1.58181 -0.27914,2.97753 -0.83743,4.14062 -0.58154,1.18636 -1.34919,2.16336 -2.32619,2.95427 -0.977,0.7909 -2.1401,1.37245 -3.44277,1.76791 -1.32593,0.41871 -2.74491,0.60481 -4.23367,0.60481 h -3.97779 z m 19.84243,6.58313 c -0.18609,-1.04679 -0.4885,-2.09358 -0.93048,-3.14036 -0.41871,-1.04679 -1.02352,-2.09358 -1.74464,-3.07058 -0.74438,-1.02352 -1.69812,-1.90748 -2.8147,-2.67512 -1.11657,-0.79091 -2.46576,-1.39572 -3.97779,-1.86096 -1.51202,-0.44197 -3.27993,-0.67459 -5.25719,-0.67459 h -10.18873 v 28.61218 h 9.58392 c 2.51228,0 4.76869,-0.39545 6.69943,-1.18636 1.93074,-0.81417 3.58234,-1.88422 4.90827,-3.23341 1.32593,-1.32593 2.3262,-2.86122 3.00079,-4.5826 0.6746,-1.69812 1.00026,-3.48929 1.00026,-5.30372 0,-0.88396 -0.093,-1.86096 -0.27914,-2.88448" /></g><path
       d="m 475.847,393.129 h -18.392 v 7.56 h 10.322 v 17.083 c 0,6.542 -3.416,11.631 -10.831,11.631 -7.342,0 -10.903,-3.78 -10.903,-11.122 h -7.997 c 0,12.212 7.852,18.755 18.9,18.755 11.849,0 18.973,-8.142 18.973,-19.264 v -24.643 z m -76.836,33.656 h -15.993 l 7.996,-18.318 z m 6.833,15.702 h 8.868 l -23.843,-53.066 -23.698,53.066 h 8.796 l 3.707,-8.142 h 22.535 z m -78.945,-41.799 c 5.088,0 7.414,3.417 7.414,6.906 0,3.489 -2.181,6.905 -7.414,6.905 h -12.358 v -13.812 h 12.358 z m 17.664,34.966 -13.085,-14.685 c 8.215,-1.672 10.904,-7.633 10.904,-13.521 0,-7.415 -5.379,-14.248 -15.483,-14.248 -6.833,0 -13.666,-0.073 -20.5,-0.073 v 43.179 h 8.142 v -14.393 h 7.852 l 12.575,14.393 h 9.596 v -0.652 z"
       id="path8"
       style="fill:#ffffff;fill-opacity:1"
       inkscape:connector-curvature="0" /></g></svg>