<svg height="305.86166pt" viewBox="0 0 1181.6331 305.86166" width="1181.6331pt" xmlns="http://www.w3.org/2000/svg" xmlns:xlink="http://www.w3.org/1999/xlink"><linearGradient id="a"><stop offset="0" stop-color="#e83e2a"/><stop offset=".55003637" stop-color="#ea5824"/><stop offset="1" stop-color="#ee7117"/></linearGradient><linearGradient id="b" gradientUnits="userSpaceOnUse" x1="350.169499073925" x2="1204.400557684177" y1="103.448648825078" y2="-247.129629000545"><stop offset="0" stop-color="#29235c"/><stop offset=".05201294" stop-color="#4a2c71"/><stop offset=".26006472" stop-color="#83589a"/><stop offset=".52913833" stop-color="#a987bd"/><stop offset=".73991263" stop-color="#a987bd"/><stop offset="1" stop-color="#a987bd"/></linearGradient><linearGradient id="c" gradientTransform="matrix(1.330917 0 0 .91982406 -533.36198 36.347407)" gradientUnits="userSpaceOnUse" x1="825.55786" x2="1631.6246" y1="407.17194" y2="407.17194"><stop offset="0" stop-color="#29235c"/><stop offset=".49916649" stop-color="#552478"/><stop offset="1" stop-color="#662483"/></linearGradient><linearGradient gradientUnits="userSpaceOnUse" x1="109.63584" x2="389.37598" xlink:href="#a" y1="310.73096" y2="310.73096"/><linearGradient id="d" gradientUnits="userSpaceOnUse" x1="41.389140690996" x2="348.873484091205" y1="68.345124293125" y2="-104.242520655706"><stop offset="0" stop-color="#ec6320"/><stop offset=".17944299" stop-color="#ef7930"/><stop offset=".44860747" stop-color="#f49d4f"/><stop offset=".88344646" stop-color="#fcc887"/><stop offset="1" stop-color="#fcc888"/></linearGradient><linearGradient id="e" gradientUnits="userSpaceOnUse" x1="130.1021" x2="524.11218" xlink:href="#a" y1="443.76166" y2="443.76166"/><path d="m88.7534 0c-25.19427 0-36.39706 11.879751-39.58887 28.349035l-48.60058076 250.000485c-3.17043004 17.3359 7.40727096 27.69289 22.17919076 27.50976 83.35001-.05 166.69125-.02 250.03125 0 16.57963 0 29.63889-10.9293 33.35889-25.5293l48.16992-248.370108c3.92705-21.522481-8.52524-31.848139-23.60889-31.959872z" fill="url(#d)"/><path d="m1157.6133 31.589267-803.3101.370613-48.16992 248.37011 802.60112.009c17.6069 0 29.4291-9.9589 33.769-24.1289l38.6207-197.299799c1.6099-7.61-.6108-16.20021-6.4908-21.470216-4.53-4.280003-10.92-5.940585-17.02-5.850585z" fill="url(#b)"/><path d="m180.90039 170.6875-54.43359 280.00586c-4.22724 23.11454 9.87636 36.92386 29.57226 36.67969 111.13334-.0667 222.255-.0267 333.375 0 22.10617 0 39.51852-14.5724 44.47852-34.03907l22.79687-117.53906a631.41759 509.95096 0 0 0 -375.78906-165.10742z" fill="url(#e)" stroke-width="1.333333" transform="matrix(.74999999 0 0 .74999999 -94.28615 -59.670499)"/><path d="m684.34961 236.625a1200.5902 363.84872 0 0 0 -108.75977 1.71289l-41.69726 214.99609 1067.57222.0117c3.1975-.00005 6.2825-.13447 9.2617-.38281 19.777-2.28946 33.1071-14.75511 38.3242-31.78906l6.5391-33.40235a1200.5902 363.84872 0 0 0 -971.24019-151.14646z" fill="url(#c)" stroke-width="1.475253" transform="matrix(.749999998177 0 0 .749999996574 -94.2861517464 -59.670498614489)"/><g transform="translate(-94.28615 -59.670499)"><path d="m179.78 121.77c3.15-3.24 7.89-4.14 12.23-4.12 5.7.08 11.82-.63 17.01 2.24 4.36 2.28 5.96 7.56 6.08 12.17.08 9.05-.14 18.11-.08 27.17 8.68.02 17.37 0 26.06 0 4.27-.09 8.9 1.77 10.94 5.72 2.33 4.31 1.67 9.35 1.76 14.06.08 4.18-.98 8.7-4.2 11.6-2.84 2.57-6.85 3.14-10.54 3.15-8.01.02-16.02-.02-24.02 0-.01 20.75-.04 41.49 0 62.23-.02 5.86 2.66 12.81 8.99 14.21 6.94.97 14.08-.54 21 .89 3.37.63 6.42 3.02 7.61 6.28 1.7 4.34 1 9.08 1.15 13.62.16 4.82-1.6 10.42-6.44 12.37-6.15 2.42-12.91 1.02-19.33 1.39-13.65.34-28.66-1.91-38.89-11.76-10.31-9.62-13.16-24.51-13.12-38.06.02-20.39.01-40.78 0-61.17-6.14-.22-13.35 1.14-18.33-3.39-5.01-4.3-4.54-11.46-4.4-17.43-.02-4.52 1.72-9.37 5.75-11.8 5.14-3.04 11.33-1.55 16.98-1.9 0-8.41.02-16.82-.05-25.23-.05-4.32.72-9.02 3.84-12.24z" fill="#fff"/><path d="m264.65 162.57c2.99-3.64 8.14-3.44 12.41-3.39 4.99.21 10.22-.7 14.97 1.3 2.56 1.9 5.31 3.74 6.93 6.57 2.13 3.66 3.34 7.75 5.18 11.55 10.3 24.13 20.42 48.35 30.65 72.53.48.89 1 1.78 1.55 2.66 6.96-16.68 14.02-33.31 21.2-49.88 4.06-9.43 8.02-18.9 12.04-28.34 1.74-4.05 3.13-8.4 6.16-11.72 2.54-2.89 6.34-4.55 10.18-4.59 4.69-.07 9.4-.08 14.1.01 3.48.08 7.51 1.38 9.06 4.79 1.98 4.46 1.87 9.62-.04 14.09-6.09 14.56-12.34 29.07-18.37 43.66-9.99 23.96-20.17 47.85-30.19 71.8-1.58 3.96-4.17 7.7-7.98 9.77-5.08 2.64-10.98 1.33-16.44 1.62-5.64-.26-11.9 1.13-16.88-2.28-4.73-2.84-6.99-8.07-8.9-12.99-15.69-37.01-31.39-74.03-47.11-111.03-2.24-5.12-2.57-11.8 1.48-16.13z" fill="#fff"/></g><g fill="#fff" transform="translate(-94.28615 -59.670499)"><path d="m569.25 132.12c5.81-3.03 12.8-1.88 19.07-1.42 2.44.81 4.51 2.37 6.12 4.36 2.24 5.62 1.87 11.94 1.08 17.83-.54 4.51-4.53 8.03-8.98 8.46-5.04.55-10.34.83-15.2-.82-4.68-1.68-6.76-6.92-6.59-11.57.01-5.73-1.05-13.17 4.5-16.84z"/><path d="m838.08 183.98c11.02-11.46 27.8-13.92 42.97-13.75 14.75.19 30.73 1.57 42.84 10.91 9.46 7.26 13.47 19.49 13.73 31.05.28 17.61.03 35.22.13 52.83.05 4.33-.76 9.47-4.85 11.87-4.44 2.86-9.93 1.12-14.74 2.31-2.7 2.31-4.93 5.21-8.13 6.89-12 7.01-26.47 7.65-40 6.89-13.02-1.07-26.9-3.94-36.76-13.13-8.17-7.51-10.79-19.18-10.17-29.89.4-6.79 2.55-13.66 7.08-18.85 6.02-7.03 15.02-10.64 23.88-12.5 12.56-2.33 25.23-4.08 37.91-5.65 5-.64 10.07-1 14.98-2.26-.31-2.32-.75-4.64-1.73-6.77-2.97-5.41-9.46-6.95-15.13-7.5-7.76-.58-15.92-.81-23.23 2.24-4.85 1.68-8.28 6.09-9.23 11.07-6.88-.01-13.77.02-20.65 0-3.05.01-6.71-.86-8.05-3.91-1.21-3.72-.06-7.75 1.59-11.16 1.94-3.93 4.34-7.68 7.56-10.69m28.92 59.94c-3.31.54-6.67 1.63-9.12 3.98-4.02 4.02-3.48 11.69 1.6 14.61 6.18 3.54 13.61 3.4 20.53 3.51 8.27-.47 17.61-2.22 23.18-8.95 4.43-5.46 3.55-12.8 3.6-19.35-13.16 2.71-26.52 4.2-39.79 6.2z"/><path d="m1082.31 182.31c8.57-7.92 20.4-11.04 31.79-11.78 10.96-.65 22.08-.33 32.86 1.92 9.77 2.13 19.59 6.72 25.59 15.02 5.83 7.86 7.78 17.91 7.73 27.53-.03 16.71-.03 33.42 0 50.13.05 4.01-.52 8.62-4.01 11.18-4.33 3.47-10.16 1.85-15.16 2.77-2.8 1.79-4.67 4.78-7.62 6.43-11.38 7.13-25.36 8.17-38.45 7.62-12.43-.75-25.46-2.95-35.78-10.4-7.4-5.17-12.08-13.69-13.13-22.6-.88-8.35-.75-17.35 3.66-24.78 2.72-4.98 7.09-8.86 12.06-11.52 9.54-5.35 20.64-6.21 31.22-7.98 12.03-1.97 24.19-2.96 36.22-4.94-.04-3.97-1.33-8.21-4.66-10.63-4.77-3.46-10.93-3.86-16.6-4.07-7.37-.14-15.32 0-21.74 4.11-3.29 2.04-5.16 5.61-6.01 9.29-6.1.33-12.21.04-18.3.17-3.23-.01-6.96.13-9.43-2.31-2.29-2.43-1.73-6.15-.97-9.09 2.18-6.12 5.98-11.65 10.73-16.07m23.75 62.34c-4.13 1.29-8.23 4.64-8.09 9.34-.81 4.98 3.38 9.05 7.87 10.26 6.22 1.76 12.81 1.95 19.24 1.63 8.19-.84 17.4-3.24 22.01-10.72 2.72-5.4 2.44-11.59 2.38-17.47-14.33 3.15-29.01 4.27-43.41 6.96z"/><path d="m642.8 175.51c14.44-5.1 30.1-5.29 45.17-3.71 9.94 1.03 20.52 4.47 26.49 13.03 3.75-4.23 8.65-7.27 13.91-9.24 14.23-5.19 29.88-5.72 44.72-3.28 12.37 2.06 24.84 8.22 31.29 19.41 7.2 11.76 6.83 25.97 6.62 39.25-.07 16.39.13 32.78-.1 49.16 0 5.35-4.51 10.03-9.9 9.98-4.49.02-9.07.46-13.49-.44-4.69-1.24-7.29-6.11-7.2-10.71-.07-19.33.01-38.67-.05-58-.06-5.87-1.4-12.24-5.93-16.34-6.14-5.93-15.29-6.58-23.36-6.45-7.69.12-16.38 2.01-21.13 8.62-5.13 7.29-3.78 16.67-3.69 25.05.27 15.71-.07 31.44.2 47.15.27 5.45-3.64 10.85-9.31 11.12-5.31-.06-11.01 1.04-16.01-1.14-4.12-1.89-5.57-6.74-5.5-10.93.01-19.03-.02-38.05 0-57.08.01-5.52-1.33-11.29-5.06-15.52-4.64-5.09-11.79-6.76-18.41-7.15-7.58-.3-15.8.1-22.32 4.43-5.37 3.55-8.06 10.03-8.01 16.32-.02 19.33 0 38.66-.01 57.99-.09 3.85-.5 8.27-3.69 10.89-3.98 3.18-9.33 2.11-14.03 2.31-3.59.14-7.56-.37-10.2-3.04-2.57-2.71-2.98-6.67-3.01-10.22 0-26.66 0-53.32-.03-79.98 0-3.96.65-8.61 4.24-10.99 4.37-2.92 9.88-1.65 14.8-2.22 2.02-1.23 3.62-3.02 5.52-4.43 2.33-1.58 4.85-2.85 7.48-3.84z"/><path d="m506.41 175.12c7.83-1.01 15.75-1.42 23.64-1 2.02.16 3.79 1.22 5.55 2.14 3.17 4.96 2.63 11.24 2.03 16.82-.54 4.71-4.73 8.69-9.55 8.59-8.55-.1-17.74.2-25.1 5.12-4.13 2.63-6.74 7.33-6.77 12.22-.08 19.99-.03 39.98-.04 59.97.15 3.91-1.82 8.02-5.45 9.74-3.58 1.95-7.79 1.35-11.7 1.45-3.47-.04-7.34.35-10.25-1.95-3.11-2.37-3.53-6.6-3.48-10.22.05-27.36-.01-54.73.02-82.09.1-3.72 1.1-8.1 4.67-9.98 4.3-2.29 9.34-1.5 14.02-1.66 6.07-5.68 14.38-7.96 22.41-9.15z"/><path d="m552.6 177.83c2.13-2.33 5.1-3.88 8.31-3.81 8.04-.03 16.08-.06 24.12-.02 3.66 0 7.38 1.57 9.37 4.74 1.86 4.15 1.63 8.79 1.65 13.23-.04 27.99-.03 55.98-.04 83.98-.18 3.8-.11 8.16-2.91 11.12-2.54 2.78-6.54 3.26-10.09 3.14-4.49-.19-9.37.7-13.44-1.66-3.34-1.92-4.81-5.94-4.75-9.63-.02-25.88-.01-51.76-.04-77.64-2.93-.1-6.03.02-8.69-1.42-3.31-1.63-5.21-5.32-5.25-8.93-.11-4.39-.6-9.16 1.76-13.1z"/><path d="m945.03 180.03c1.12-3.32 4.29-5.91 7.87-5.95 4.07-.19 8.16-.21 12.24.01 4.74.35 8.74 3.87 10.49 8.17 5.35 12.55 10.61 25.13 15.91 37.7 4.25 9.79 8.03 19.8 12.66 29.42 3.75-8.7 7.43-17.42 11.12-26.14 5.76-13.59 11.52-27.17 17.32-40.73 1.61-3.94 4.8-7.69 9.23-8.31 3.7-.42 7.44-.18 11.17-.24 3.16-.05 6.97.24 8.88 3.19 2.29 3.91 1.83 8.78.01 12.78-5.56 13.22-11.11 26.44-16.7 39.65-7.39 17.5-14.72 35.02-22.11 52.52-1.69 4.15-5.43 7.74-10.07 8.06-5.35.18-10.71.03-16.06.08-3.75.15-7.33-1.77-9.64-4.64-2.19-2.74-3.21-6.15-4.61-9.3-9.11-21.42-18.13-42.88-27.3-64.27-3.11-7.37-6.22-14.74-9.37-22.08-1.41-3.09-1.79-6.62-1.04-9.92z"/></g></svg>