<svg id="h" width="416.85mm" height="107.9mm" version="1.1" viewBox="0 0 416.85 107.9" xmlns="http://www.w3.org/2000/svg">
 <defs id="i">
  <linearGradient id="e" x1="41.389" x2="348.87" y1="68.345" y2="-104.24" gradientTransform="matrix(.35278 0 0 .35278 -225.44 94.883)" gradientUnits="userSpaceOnUse">
   <stop id="j" stop-color="#ec6320" offset="0"/>
   <stop id="k" stop-color="#ef7930" offset=".17944"/>
   <stop id="l" stop-color="#f49d4f" offset=".44861"/>
   <stop id="m" stop-color="#fcc887" offset=".88345"/>
   <stop id="n" stop-color="#fcc888" offset="1"/>
  </linearGradient>
  <linearGradient id="g" x1="350.17" x2="1204.4" y1="103.45" y2="-247.13" gradientTransform="matrix(.35278 0 0 .35278 -225.44 94.883)" gradientUnits="userSpaceOnUse">
   <stop id="o" stop-color="#29235c" offset="0"/>
   <stop id="p" stop-color="#4a2c71" offset=".052013"/>
   <stop id="q" stop-color="#83589a" offset=".26006"/>
   <stop id="r" stop-color="#a987bd" offset=".52914"/>
   <stop id="s" stop-color="#a987bd" offset=".73991"/>
   <stop id="t" stop-color="#a987bd" offset="1"/>
  </linearGradient>
  <linearGradient id="a" x1="130.1" x2="524.11" y1="443.76" y2="443.76" gradientTransform="matrix(.26458 0 0 .26458 -258.7 73.832)" gradientUnits="userSpaceOnUse">
   <stop id="u" stop-color="#e83e2a" offset="0"/>
   <stop id="v" stop-color="#ea5824" offset=".55004"/>
   <stop id="w" stop-color="#ee7117" offset="1"/>
  </linearGradient>
  <linearGradient id="f" x1="825.56" x2="1631.6" y1="407.17" y2="407.17" gradientTransform="matrix(.35214 0 0 .24337 -399.82 83.449)" gradientUnits="userSpaceOnUse">
   <stop id="x" stop-color="#29235c" offset="0"/>
   <stop id="y" stop-color="#552478" offset=".49917"/>
   <stop id="z" stop-color="#662483" offset="1"/>
  </linearGradient>
 </defs>
 <g id="aa" transform="translate(225.44 -94.883)">
  <path id="ab" d="m-194.13 94.883c-8.888 0-12.84 4.1909-13.966 10.001l-17.145 88.195c-1.1185 6.1157 2.6131 9.7694 7.8243 9.7048 29.404-0.0176 58.805-7e-3 88.205 0 5.8489 0 10.456-3.8556 11.768-9.0062l16.993-87.619c1.3854-7.5926-3.0075-11.235-8.3287-11.275z" fill="url(#e)" stroke-width=".35278"/>
  <path id="ac" d="m182.94 106.03-283.39 0.13075-16.993 87.619 283.14 3e-3c6.2113 0 10.382-3.5133 11.913-8.5121l13.625-69.603c0.56792-2.6846-0.21548-5.7151-2.2898-7.5742-1.5981-1.5099-3.8523-2.0957-6.0043-2.064z" fill="url(#g)" stroke-width=".35278"/>
  <path id="ad" d="m-210.83 118.99-14.402 74.085c-1.1185 6.1157 2.6131 9.7694 7.8243 9.7048 29.404-0.0177 58.805-7e-3 88.205 0 5.8489 0 10.456-3.8556 11.768-9.0062l6.0317-31.099a167.06 134.92 0 0 0-99.428-43.685z" fill="url(#a)" stroke-width=".35278"/>
  <path id="ae" d="m-77.63 136.44a317.66 96.268 0 0 0-28.776 0.4532l-11.032 56.884 282.46 3e-3c0.846-1e-5 1.6622-0.0356 2.4505-0.10128 5.2327-0.60576 8.7596-3.904 10.14-8.4109l1.7301-8.8377a317.66 96.268 0 0 0-256.97-39.991z" fill="url(#f)" stroke-width=".39033"/>
  <g id="af" transform="matrix(.35278 0 0 .35278 -258.7 73.832)" fill="#fff">
   <path id="ag" d="m179.78 121.77c3.15-3.24 7.89-4.14 12.23-4.12 5.7 0.08 11.82-0.63 17.01 2.24 4.36 2.28 5.96 7.56 6.08 12.17 0.08 9.05-0.14 18.11-0.08 27.17 8.68 0.02 17.37 0 26.06 0 4.27-0.09 8.9 1.77 10.94 5.72 2.33 4.31 1.67 9.35 1.76 14.06 0.08 4.18-0.98 8.7-4.2 11.6-2.84 2.57-6.85 3.14-10.54 3.15-8.01 0.02-16.02-0.02-24.02 0-0.01 20.75-0.04 41.49 0 62.23-0.02 5.86 2.66 12.81 8.99 14.21 6.94 0.97 14.08-0.54 21 0.89 3.37 0.63 6.42 3.02 7.61 6.28 1.7 4.34 1 9.08 1.15 13.62 0.16 4.82-1.6 10.42-6.44 12.37-6.15 2.42-12.91 1.02-19.33 1.39-13.65 0.34-28.66-1.91-38.89-11.76-10.31-9.62-13.16-24.51-13.12-38.06 0.02-20.39 0.01-40.78 0-61.17-6.14-0.22-13.35 1.14-18.33-3.39-5.01-4.3-4.54-11.46-4.4-17.43-0.02-4.52 1.72-9.37 5.75-11.8 5.14-3.04 11.33-1.55 16.98-1.9 0-8.41 0.02-16.82-0.05-25.23-0.05-4.32 0.72-9.02 3.84-12.24z"/>
   <path id="ah" d="m264.65 162.57c2.99-3.64 8.14-3.44 12.41-3.39 4.99 0.21 10.22-0.7 14.97 1.3 2.56 1.9 5.31 3.74 6.93 6.57 2.13 3.66 3.34 7.75 5.18 11.55 10.3 24.13 20.42 48.35 30.65 72.53 0.48 0.89 1 1.78 1.55 2.66 6.96-16.68 14.02-33.31 21.2-49.88 4.06-9.43 8.02-18.9 12.04-28.34 1.74-4.05 3.13-8.4 6.16-11.72 2.54-2.89 6.34-4.55 10.18-4.59 4.69-0.07 9.4-0.08 14.1 0.01 3.48 0.08 7.51 1.38 9.06 4.79 1.98 4.46 1.87 9.62-0.04 14.09-6.09 14.56-12.34 29.07-18.37 43.66-9.99 23.96-20.17 47.85-30.19 71.8-1.58 3.96-4.17 7.7-7.98 9.77-5.08 2.64-10.98 1.33-16.44 1.62-5.64-0.26-11.9 1.13-16.88-2.28-4.73-2.84-6.99-8.07-8.9-12.99-15.69-37.01-31.39-74.03-47.11-111.03-2.24-5.12-2.57-11.8 1.48-16.13z"/>
  </g>
  <g id="ai" transform="matrix(.35278 0 0 .35278 -258.7 73.832)" fill="#fff">
   <path id="aj" d="m569.25 132.12c5.81-3.03 12.8-1.88 19.07-1.42 2.44 0.81 4.51 2.37 6.12 4.36 2.24 5.62 1.87 11.94 1.08 17.83-0.54 4.51-4.53 8.03-8.98 8.46-5.04 0.55-10.34 0.83-15.2-0.82-4.68-1.68-6.76-6.92-6.59-11.57 0.01-5.73-1.05-13.17 4.5-16.84z"/>
   <path id="ak" d="m838.08 183.98c11.02-11.46 27.8-13.92 42.97-13.75 14.75 0.19 30.73 1.57 42.84 10.91 9.46 7.26 13.47 19.49 13.73 31.05 0.28 17.61 0.03 35.22 0.13 52.83 0.05 4.33-0.76 9.47-4.85 11.87-4.44 2.86-9.93 1.12-14.74 2.31-2.7 2.31-4.93 5.21-8.13 6.89-12 7.01-26.47 7.65-40 6.89-13.02-1.07-26.9-3.94-36.76-13.13-8.17-7.51-10.79-19.18-10.17-29.89 0.4-6.79 2.55-13.66 7.08-18.85 6.02-7.03 15.02-10.64 23.88-12.5 12.56-2.33 25.23-4.08 37.91-5.65 5-0.64 10.07-1 14.98-2.26-0.31-2.32-0.75-4.64-1.73-6.77-2.97-5.41-9.46-6.95-15.13-7.5-7.76-0.58-15.92-0.81-23.23 2.24-4.85 1.68-8.28 6.09-9.23 11.07-6.88-0.01-13.77 0.02-20.65 0-3.05 0.01-6.71-0.86-8.05-3.91-1.21-3.72-0.06-7.75 1.59-11.16 1.94-3.93 4.34-7.68 7.56-10.69m28.92 59.94c-3.31 0.54-6.67 1.63-9.12 3.98-4.02 4.02-3.48 11.69 1.6 14.61 6.18 3.54 13.61 3.4 20.53 3.51 8.27-0.47 17.61-2.22 23.18-8.95 4.43-5.46 3.55-12.8 3.6-19.35-13.16 2.71-26.52 4.2-39.79 6.2z"/>
   <path id="al" d="m1082.3 182.31c8.57-7.92 20.4-11.04 31.79-11.78 10.96-0.65 22.08-0.33 32.86 1.92 9.77 2.13 19.59 6.72 25.59 15.02 5.83 7.86 7.78 17.91 7.73 27.53-0.03 16.71-0.03 33.42 0 50.13 0.05 4.01-0.52 8.62-4.01 11.18-4.33 3.47-10.16 1.85-15.16 2.77-2.8 1.79-4.67 4.78-7.62 6.43-11.38 7.13-25.36 8.17-38.45 7.62-12.43-0.75-25.46-2.95-35.78-10.4-7.4-5.17-12.08-13.69-13.13-22.6-0.88-8.35-0.75-17.35 3.66-24.78 2.72-4.98 7.09-8.86 12.06-11.52 9.54-5.35 20.64-6.21 31.22-7.98 12.03-1.97 24.19-2.96 36.22-4.94-0.04-3.97-1.33-8.21-4.66-10.63-4.77-3.46-10.93-3.86-16.6-4.07-7.37-0.14-15.32 0-21.74 4.11-3.29 2.04-5.16 5.61-6.01 9.29-6.1 0.33-12.21 0.04-18.3 0.17-3.23-0.01-6.96 0.13-9.43-2.31-2.29-2.43-1.73-6.15-0.97-9.09 2.18-6.12 5.98-11.65 10.73-16.07m23.75 62.34c-4.13 1.29-8.23 4.64-8.09 9.34-0.81 4.98 3.38 9.05 7.87 10.26 6.22 1.76 12.81 1.95 19.24 1.63 8.19-0.84 17.4-3.24 22.01-10.72 2.72-5.4 2.44-11.59 2.38-17.47-14.33 3.15-29.01 4.27-43.41 6.96z"/>
   <path id="am" d="m642.8 175.51c14.44-5.1 30.1-5.29 45.17-3.71 9.94 1.03 20.52 4.47 26.49 13.03 3.75-4.23 8.65-7.27 13.91-9.24 14.23-5.19 29.88-5.72 44.72-3.28 12.37 2.06 24.84 8.22 31.29 19.41 7.2 11.76 6.83 25.97 6.62 39.25-0.07 16.39 0.13 32.78-0.1 49.16 0 5.35-4.51 10.03-9.9 9.98-4.49 0.02-9.07 0.46-13.49-0.44-4.69-1.24-7.29-6.11-7.2-10.71-0.07-19.33 0.01-38.67-0.05-58-0.06-5.87-1.4-12.24-5.93-16.34-6.14-5.93-15.29-6.58-23.36-6.45-7.69 0.12-16.38 2.01-21.13 8.62-5.13 7.29-3.78 16.67-3.69 25.05 0.27 15.71-0.07 31.44 0.2 47.15 0.27 5.45-3.64 10.85-9.31 11.12-5.31-0.06-11.01 1.04-16.01-1.14-4.12-1.89-5.57-6.74-5.5-10.93 0.01-19.03-0.02-38.05 0-57.08 0.01-5.52-1.33-11.29-5.06-15.52-4.64-5.09-11.79-6.76-18.41-7.15-7.58-0.3-15.8 0.1-22.32 4.43-5.37 3.55-8.06 10.03-8.01 16.32-0.02 19.33 0 38.66-0.01 57.99-0.09 3.85-0.5 8.27-3.69 10.89-3.98 3.18-9.33 2.11-14.03 2.31-3.59 0.14-7.56-0.37-10.2-3.04-2.57-2.71-2.98-6.67-3.01-10.22 0-26.66 0-53.32-0.03-79.98 0-3.96 0.65-8.61 4.24-10.99 4.37-2.92 9.88-1.65 14.8-2.22 2.02-1.23 3.62-3.02 5.52-4.43 2.33-1.58 4.85-2.85 7.48-3.84z"/>
   <path id="an" d="m506.41 175.12c7.83-1.01 15.75-1.42 23.64-1 2.02 0.16 3.79 1.22 5.55 2.14 3.17 4.96 2.63 11.24 2.03 16.82-0.54 4.71-4.73 8.69-9.55 8.59-8.55-0.1-17.74 0.2-25.1 5.12-4.13 2.63-6.74 7.33-6.77 12.22-0.08 19.99-0.03 39.98-0.04 59.97 0.15 3.91-1.82 8.02-5.45 9.74-3.58 1.95-7.79 1.35-11.7 1.45-3.47-0.04-7.34 0.35-10.25-1.95-3.11-2.37-3.53-6.6-3.48-10.22 0.05-27.36-0.01-54.73 0.02-82.09 0.1-3.72 1.1-8.1 4.67-9.98 4.3-2.29 9.34-1.5 14.02-1.66 6.07-5.68 14.38-7.96 22.41-9.15z"/>
   <path id="ao" d="m552.6 177.83c2.13-2.33 5.1-3.88 8.31-3.81 8.04-0.03 16.08-0.06 24.12-0.02 3.66 0 7.38 1.57 9.37 4.74 1.86 4.15 1.63 8.79 1.65 13.23-0.04 27.99-0.03 55.98-0.04 83.98-0.18 3.8-0.11 8.16-2.91 11.12-2.54 2.78-6.54 3.26-10.09 3.14-4.49-0.19-9.37 0.7-13.44-1.66-3.34-1.92-4.81-5.94-4.75-9.63-0.02-25.88-0.01-51.76-0.04-77.64-2.93-0.1-6.03 0.02-8.69-1.42-3.31-1.63-5.21-5.32-5.25-8.93-0.11-4.39-0.6-9.16 1.76-13.1z"/>
   <path id="ap" d="m945.03 180.03c1.12-3.32 4.29-5.91 7.87-5.95 4.07-0.19 8.16-0.21 12.24 0.01 4.74 0.35 8.74 3.87 10.49 8.17 5.35 12.55 10.61 25.13 15.91 37.7 4.25 9.79 8.03 19.8 12.66 29.42 3.75-8.7 7.43-17.42 11.12-26.14 5.76-13.59 11.52-27.17 17.32-40.73 1.61-3.94 4.8-7.69 9.23-8.31 3.7-0.42 7.44-0.18 11.17-0.24 3.16-0.05 6.97 0.24 8.88 3.19 2.29 3.91 1.83 8.78 0.01 12.78-5.56 13.22-11.11 26.44-16.7 39.65-7.39 17.5-14.72 35.02-22.11 52.52-1.69 4.15-5.43 7.74-10.07 8.06-5.35 0.18-10.71 0.03-16.06 0.08-3.75 0.15-7.33-1.77-9.64-4.64-2.19-2.74-3.21-6.15-4.61-9.3-9.11-21.42-18.13-42.88-27.3-64.27-3.11-7.37-6.22-14.74-9.37-22.08-1.41-3.09-1.79-6.62-1.04-9.92z"/>
  </g>
 </g>
</svg>
