<svg width="356.07px" height="175.05px" enable-background="new 119.846 286.351 356.073 175.053" version="1.1" viewBox="119.85 286.35 356.07 175.05" xml:space="preserve" xmlns="http://www.w3.org/2000/svg"><g fill="#24509b"><path d="m446.92 349.95h-9.087l-13.085 33.584-13.012-33.584h-9.087l17.883 43.252h8.433l17.955-43.252zm-92.61 43.107h8.142v-35.692h13.666v-7.415h-35.475v7.415h13.667v35.692z"/><g fill-rule="evenodd"><path d="m192.25 342.96c13.957-10.282 28.961-14.725 45.477-7.723 15.911 6.746 23.681 19.587 25.076 36.451 1.4422 17.26-2.8147 33.73-8.1417 49.827-2.8147 8.5139-6.6296 16.888-11.212 24.588-8.3045 13.98-17.144 17.353-33.055 14.213-1.9075-0.37219-3.8847-0.55829-5.7224-1.1631-8.258-2.6984-16.33-1.7446-24.634 0.20936-5.9318 1.419-12.282 2.0005-18.354 1.6516-8.9093-0.51177-15.376-6.0248-20.703-12.841-5.9085-7.5601-9.8863-16.19-12.91-25.262-5.5829-16.749-8.8861-33.893-8.1184-51.618 0.20936-4.9781 1.0235-10.072 2.4192-14.841 4.35-14.864 15.795-23.332 31.45-24.285 8.1417-0.4885 15.399 1.419 22.099 6.0016 3.3962 2.3262 6.9088 4.5361 10.584 6.3738 8.0486 4.001 16.679 3.373 25.286 2.489 1.1166-0.11631 2.2331-0.30241 3.5126-0.11631-4.0476 3.6754-8.7232 6.2575-13.98 7.6299-7.8858 2.0703-15.469 1.0933-22.541-3.0473-3.0706-1.7679-6.0016-3.7917-9.0256-5.6526-16.26-10.072-35.498-1.6283-39.127 17.191-2.7216 14.05-0.53502 27.845 2.396 41.546 2.3029 10.91 5.7224 21.448 11.352 31.171 0.83743 1.4888 1.8144 2.9077 2.7216 4.3732 6.397 9.9794 15.376 13.562 26.914 10.84 0.44198-0.11631 0.90722-0.1861 1.3259-0.32567 12.399-4.4663 24.727-3.1636 37.126 0.0931 2.5123 0.65133 5.2107 0.6746 7.8393 0.83743 4.4663 0.27914 7.9091-1.6981 10.794-5.0013 5.5829-6.397 9.3513-13.841 12.189-21.75 5.8853-16.33 10.421-33.009 10.049-50.571-0.34893-16.749-10.794-29.775-26.844-32.218-7.723-1.1631-15.772-0.25588-23.681-0.0698-3.5126 0.0698-7.0484 0.65133-10.561 1.0003"/><path d="m190.29 329.77c-2.1401-4.9315-4.0243-10.003-6.4901-14.771-3.4195-6.5831-7.1879-12.98-10.98-19.331-1.861-3.1171-1.9773-6.2807 0.23262-8.0719 2.3262-1.9075 5.7457-1.7446 7.7927 1.3259 2.6751 4.0476 5.0013 8.4674 6.6297 13.05 2.2331 6.304 4.0476 12.841 5.3037 19.447 0.51176 2.5821-0.95374 5.5596-1.5353 8.3743-0.32567 0-0.62807-0.0233-0.95374-0.0233"/></g><path d="m242.61 301.34h-12.748v-11.305h-5.0711v28.612h5.0711v-12.468h12.748v12.468h5.0711v-28.612h-5.0711z"/><path d="m257.77 294.87h4.8617c2.0703 0 3.7684 0.34893 5.0478 1.0235 1.3027 0.67459 2.3029 1.512 3.0241 2.4658 0.72112 0.977 1.2329 2.0238 1.4888 3.0938 0.25588 1.0933 0.39545 2.0703 0.39545 2.8845 0 1.5818-0.27914 2.9775-0.83743 4.1406-0.58154 1.1864-1.3492 2.1634-2.3262 2.9543s-2.1401 1.3724-3.4428 1.7679c-1.3259 0.41871-2.7449 0.60481-4.2337 0.60481h-3.9778zm19.842 6.5831c-0.18609-1.0468-0.4885-2.0936-0.93048-3.1404-0.41871-1.0468-1.0235-2.0936-1.7446-3.0706-0.74438-1.0235-1.6981-1.9075-2.8147-2.6751-1.1166-0.79091-2.4658-1.3957-3.9778-1.861-1.512-0.44197-3.2799-0.67459-5.2572-0.67459h-10.189v28.612h9.5839c2.5123 0 4.7687-0.39545 6.6994-1.1864 1.9307-0.81417 3.5823-1.8842 4.9083-3.2334 1.3259-1.3259 2.3262-2.8612 3.0008-4.5826 0.6746-1.6981 1.0003-3.4893 1.0003-5.3037 0-0.88396-0.093-1.861-0.27914-2.8845"/><path d="m475.85 393.13h-18.392v7.56h10.322v17.083c0 6.542-3.416 11.631-10.831 11.631-7.342 0-10.903-3.78-10.903-11.122h-7.997c0 12.212 7.852 18.755 18.9 18.755 11.849 0 18.973-8.142 18.973-19.264v-24.643zm-76.836 33.656h-15.993l7.996-18.318zm6.833 15.702h8.868l-23.843-53.066-23.698 53.066h8.796l3.707-8.142h22.535zm-78.945-41.799c5.088 0 7.414 3.417 7.414 6.906s-2.181 6.905-7.414 6.905h-12.358v-13.812h12.358zm17.664 34.966-13.085-14.685c8.215-1.672 10.904-7.633 10.904-13.521 0-7.415-5.379-14.248-15.483-14.248-6.833 0-13.666-0.073-20.5-0.073v43.179h8.142v-14.393h7.852l12.575 14.393h9.596v-0.652z"/></g></svg>
