<svg id="b" width="5.4191mm" height="2.7056mm" version="1.1" viewBox="0 0 5.4191 2.7056" xmlns="http://www.w3.org/2000/svg">
 <defs id="c">
  <clipPath id="a">
   <path id="d" d="m372.12 460.03h15.475v7.72h-15.475z"/>
  </clipPath>
 </defs>
 <g id="e" transform="translate(19.718 -147.48)">
  <g id="f" transform="matrix(.35278 0 0 -.35278 -151.01 312.48)">
   <g id="g" clip-path="url(#a)">
    <g id="h" transform="translate(383.79 465.57)">
     <path id="i" d="m0 0c-0.086-0.145-0.178-0.305-0.262-0.451-0.013-0.022-0.031-0.043-0.029-0.06h0.662c0.074 0 0.154-0.011 0.223 0 0.042 6e-3 0.093 0.034 0.138 0.054s0.087 0.04 0.128 0.064c0.071 0.042 0.175 0.111 0.179 0.204 1e-3 0.055-0.027 0.087-0.061 0.122-0.029 0.03-0.064 0.07-0.096 0.077-0.061 0.013-0.144 0-0.217 0h-0.659c-4e-3 -1e-3 -3e-3 -7e-3 -6e-3 -0.01m-11.289 2.064h7.215c0.232-0.762 0.494-1.581 0.735-2.364 0.036-0.118 0.058-0.222 0.137-0.298 0.14-0.133 0.24 0.155 0.285 0.253 0.361 0.803 0.74 1.609 1.102 2.409h4.509c0.329-0.215 0.645-0.479 0.834-0.837 0.098-0.186 0.165-0.415 0.14-0.684-0.022-0.243-0.103-0.442-0.204-0.626-0.195-0.354-0.467-0.639-0.764-0.898-0.297-0.26-0.625-0.492-0.965-0.693 0.228-0.899 0.459-1.795 0.687-2.694h-2.438c-0.17 0.862-0.345 1.727-0.518 2.598-0.011 0.056-0.047 0.124-0.108 0.112-0.076-0.016-0.093-0.133-0.122-0.211-0.3-0.818-0.628-1.675-0.923-2.49-3e-3 -2e-3 -5e-3 -5e-3 -7e-3 -9e-3 -0.953-3e-3 -1.902-0.01-2.859-0.01-0.473 1.446-0.933 2.911-1.41 4.365-0.03 0.093-0.06 0.188-0.147 0.237-0.069-1e-3 -0.161-6e-3 -0.262-0.01-0.103-4e-3 -0.255 0.013-0.262-0.086-2e-3 -0.041 0.024-0.097 0.039-0.147 0.431-1.437 0.876-2.934 1.3-4.359-0.866-1e-3 -1.723 7e-3 -2.585 0.01-0.439 1.455-0.911 2.921-1.352 4.381-0.027 0.092-0.048 0.193-0.118 0.262-0.548-8e-3 -1.138-1e-3 -1.703-3e-3 -0.083 0.245-0.167 0.489-0.249 0.735-0.083 0.245-0.167 0.49-0.246 0.738v0.08c0.029 0.137 0.131 0.201 0.259 0.239" fill="#d9dadb" fill-rule="evenodd"/>
    </g>
    <g id="j" transform="translate(383.79 465.57)">
     <path id="k" d="m0 0c-0.086-0.145-0.178-0.305-0.262-0.451-0.013-0.022-0.031-0.043-0.029-0.06h0.662c0.074 0 0.154-0.011 0.223 0 0.042 6e-3 0.093 0.034 0.138 0.054s0.087 0.04 0.128 0.064c0.071 0.042 0.175 0.111 0.179 0.204 1e-3 0.055-0.027 0.087-0.061 0.122-0.029 0.03-0.064 0.07-0.096 0.077-0.061 0.013-0.144 0-0.217 0h-0.659c-4e-3 -1e-3 -3e-3 -7e-3 -6e-3 -0.01zm-11.289 2.064h7.215c0.232-0.762 0.494-1.581 0.735-2.364 0.036-0.118 0.058-0.222 0.137-0.298 0.14-0.133 0.24 0.155 0.285 0.253 0.361 0.803 0.74 1.609 1.102 2.409h4.509c0.329-0.215 0.645-0.479 0.834-0.837 0.098-0.186 0.165-0.415 0.14-0.684-0.022-0.243-0.103-0.442-0.204-0.626-0.195-0.354-0.467-0.639-0.764-0.898-0.297-0.26-0.625-0.492-0.965-0.693 0.228-0.899 0.459-1.795 0.687-2.694h-2.438c-0.17 0.862-0.345 1.727-0.518 2.598-0.011 0.056-0.047 0.124-0.108 0.112-0.076-0.016-0.093-0.133-0.122-0.211-0.3-0.818-0.628-1.675-0.923-2.49-3e-3 -2e-3 -5e-3 -5e-3 -7e-3 -9e-3 -0.953-3e-3 -1.902-0.01-2.859-0.01-0.473 1.446-0.933 2.911-1.41 4.365-0.03 0.093-0.06 0.188-0.147 0.237-0.069-1e-3 -0.161-6e-3 -0.262-0.01-0.103-4e-3 -0.255 0.013-0.262-0.086-2e-3 -0.041 0.024-0.097 0.039-0.147 0.431-1.437 0.876-2.934 1.3-4.359-0.866-1e-3 -1.723 7e-3 -2.585 0.01-0.439 1.455-0.911 2.921-1.352 4.381-0.027 0.092-0.048 0.193-0.118 0.262-0.548-8e-3 -1.138-1e-3 -1.703-3e-3 -0.083 0.245-0.167 0.489-0.249 0.735-0.083 0.245-0.167 0.49-0.246 0.738v0.08c0.029 0.137 0.131 0.201 0.259 0.239z" fill="none" stroke="#e2001a" stroke-miterlimit="10" stroke-width=".14"/>
    </g>
    <g id="l" transform="translate(386.05 460.28)">
     <path id="m" d="m0 0c0.023 1e-3 0.044-6e-3 0.035-9e-3 0.048 9e-3 0.049-1e-3 0.055 0.016 0.03 8e-3 0.063-4e-3 0.028-0.011l0.089 0.011-0.053 3e-3c0.014 0.014 0.084-5e-3 0.101 0.012l-0.096-2e-3 5e-3 5e-3c-0.022-5e-3 -0.064-3e-3 -0.079-1e-3 3e-3 3e-3 1e-3 6e-3 0.018 7e-3 -0.115 1e-3 -0.031-0.025-0.127-0.03 6e-3 1e-3 0.014 0 0.024-1e-3" fill="#ffed00"/>
    </g>
    <g id="n" transform="translate(385.95 460.32)">
     <path id="o" d="m0 0-0.04-0.018-0.068 5e-3c0-6e-3 -0.05-0.011-0.016-0.017 6e-3 1e-3 0.019 3e-3 0.029 3e-3 -7e-3 -0.014-0.089-7e-3 -0.069-0.02 0.053 3e-3 0.061 0 0.094 0.011 0.049-1e-3 0.084-4e-3 0.107-9e-3 0.015 2e-3 0.017 0.01 0.035 0.012l-0.012-1e-3 -2e-3 0.02c-0.016-4e-3 -0.03-2e-3 -0.047-3e-3l0.079 0.024c-0.026 0.018-0.103 7e-3 -0.134 0.015 0.038-0.017-0.031-8e-3 0.044-0.022" fill="#ffed00"/>
    </g>
    <g id="p" transform="translate(386.02 460.28)">
     <path id="q" d="m0 0h2e-3z" fill="#ffed00"/>
    </g>
    <g id="r" transform="translate(380.12 460.17)">
     <path id="s" d="m0 0c-0.017 0-0.022-5e-3 -0.024-7e-3h0.189c-6e-3 5e-3 -0.06 0.012-0.024 0.015-0.016 6e-3 -0.066 1e-3 -0.073-6e-3l0.014 8e-3c-0.044-0.011-0.074 9e-3 -0.045 0.015h-4e-3l-0.12-0.039c0.044-2e-3 0.034 0.014 0.087 0.014" fill="#ffed00"/>
    </g>
    <g id="t" transform="translate(376.24 460.19)">
     <path id="u" d="M 0,0 C 0.025,0.002 0.027,0.004 0.025,0.006 0.016,0.004 0.008,0.003 0,0" fill="#ffed00"/>
    </g>
    <g id="v" transform="translate(380 460.15)">
     <path id="w" d="m0 0-0.038-0.012c0.015 3e-3 0.029 7e-3 0.038 0.012" fill="#ffed00"/>
    </g>
    <g id="x" transform="translate(380.27 460.33)">
     <path id="y" d="m0 0c0 1e-3 1e-3 1e-3 0 2e-3l-0.017-6e-3z" fill="#ffed00"/>
    </g>
    <g id="z" transform="translate(379.15 460.1)">
     <path id="aa" d="m0 0-0.012-1e-3c4e-3 0 8e-3 1e-3 0.012 1e-3" fill="#ffed00"/>
    </g>
    <g id="ab" transform="translate(380.78 460.4)">
     <path id="ac" d="m0 0-0.084-0.012c0.011 6e-3 -0.029 4e-3 -0.012 0.011-6e-3 -1e-3 -0.036-4e-3 -0.028-6e-3h0.017c-0.044-0.016-0.017-0.023-0.091-0.035 0.046-0.01 0.066-1e-3 0.09 7e-3 8e-3 1e-3 0.015 1e-3 0.022 2e-3l0.07 0.023z" fill="#ffed00"/>
    </g>
    <g id="ad" transform="translate(377.41 460.28)">
     <path id="ae" d="M 0,0 0.001,0.001 C 0,0.001 0,0 0,0" fill="#ffed00"/>
    </g>
    <g id="af" transform="translate(377.41 460.29)">
     <path id="ag" d="m0 0-4e-3 -5e-3c5e-3 2e-3 0.022 5e-3 4e-3 5e-3" fill="#ffed00"/>
    </g>
    <g id="ah" transform="translate(380.02 460.16)">
     <path id="ai" d="m0 0c-1e-3 -3e-3 -6e-3 -7e-3 -0.014-0.011l0.028 0.01c-4e-3 0-9e-3 0-0.014 1e-3" fill="#ffed00"/>
    </g>
    <g id="aj" transform="translate(380.08 460.19)">
     <path id="ak" d="M 0,0 0.071,0.002 0.097,0.011 C 0.07,0.008 0.038,0.005 0,0" fill="#ffed00"/>
    </g>
    <g id="al" transform="translate(379.26 460.09)">
     <path id="am" d="m0 0c-0.147-3e-3 0.036 0.019-0.031 0.024-0.041-2e-3 -0.055-0.012-0.081-0.014 0.116 7e-3 -0.016-0.03 0.102-0.026-0.017-0.016-0.085-0.018-0.125-0.013-0.045 0.016 0.04 0.012 0.05 0.027-0.047-2e-3 -0.039-5e-3 -0.059-0.014-0.074 3e-3 -0.153-0.02-0.197 2e-3 -0.054-3e-3 -0.05-0.011-0.081-0.019-6e-3 -0.017 0.08-9e-3 0.1-0.023-4e-3 2e-3 -0.012 5e-3 -0.01 7e-3l0.046-3e-3c-0.044 5e-3 6e-3 0.017 0.03 0.018 0.017 0 0.051 1e-3 0.046-4e-3l-0.026-3e-3c0.033-6e-3 0.074 0.012 0.109 3e-3 2e-3 -4e-3 -0.012-6e-3 -0.014-8e-3 0.04 0.011 0.078 0.011 0.136 0.019l-0.034-0.017c0.047 0.019 0.152 0.013 0.225 4e-3 -8e-3 2e-3 -0.022 4e-3 -0.013 8e-3 0.042 4e-3 0.075-8e-3 0.055-0.017 0.042 0.014 0.16-0.011 0.217 7e-3l0.263 0.086c-0.01-3e-3 -0.02-4e-3 -0.031-5e-3 -0.024 0.015-0.037 0.013 5e-3 0.027-0.041-8e-3 -0.025-0.02-0.087-0.02 0.024 7e-3 0.03 0.024-0.029 0.026-0.148-0.015-0.246-0.057-0.384-0.079-5e-3 0.012-0.114 8e-3 -0.167 0.011 0.02 0.012 0.06 0.016 0.1 0.018l-0.102 2e-3z" fill="#ffed00"/>
    </g>
    <g id="an" transform="translate(379.6 460.13)">
     <path id="ao" d="m0 0c-4e-3 1e-3 -8e-3 2e-3 -0.011 2e-3 2e-3 -1e-3 5e-3 -2e-3 0.011-2e-3" fill="#ffed00"/>
    </g>
    <g id="ap" transform="translate(379.39 460.11)">
     <path id="aq" d="m0 0c1e-3 0 0 1e-3 1e-3 1e-3l-0.013-1e-3z" fill="#ffed00"/>
    </g>
    <g id="ar" transform="translate(379.98 460.18)">
     <path id="as" d="m0 0c9e-3 3e-3 0.015 4e-3 0.024 7e-3 -5e-3 -1e-3 -0.012-2e-3 -0.019-3e-3 -6e-3 -1e-3 -9e-3 -3e-3 -5e-3 -4e-3" fill="#ffed00"/>
    </g>
    <g id="at" transform="translate(380.01 460.16)">
     <path id="au" d="m0 0-5e-3 -5e-3 0.01-1e-3c1e-3 3e-3 0 5e-3 -5e-3 6e-3" fill="#ffed00"/>
    </g>
    <g id="av" transform="translate(378.7 460.19)">
     <path id="aw" d="m0 0-0.014-2e-3c8e-3 0 0.012 1e-3 0.014 2e-3" fill="#ffed00"/>
    </g>
    <g id="ax" transform="translate(379.1 460.11)">
     <path id="ay" d="m0 0c0.051 1e-3 6e-3 0.017 0.078 0.017l-0.021 1e-3c0.052 7e-3 0.143 4e-3 0.204 5e-3 -7e-3 -7e-3 0.038-9e-3 0.031-0.019 0.042 2e-3 0.083 5e-3 0.105 0.016 0.026-4e-3 0.065 6e-3 0.099 1e-3 -0.014 7e-3 0.047 0.022-0.034 0.014 7e-3 1e-3 3e-3 2e-3 9e-3 3e-3 -0.052 9e-3 -0.073-6e-3 -0.117-6e-3 -0.027 6e-3 0.043 0.01 0.018 0.012-0.056-5e-3 -0.175 8e-3 -0.172-0.016-0.04-1e-3 -0.046 4e-3 -0.058 8e-3 -0.064-0.025-0.239 0.011-0.238-0.021 0.023 1e-3 0.062 0 0.096 7e-3z" fill="#ffed00"/>
    </g>
    <g id="az" transform="translate(379.9 460.18)">
     <path id="ba" d="m0 0h-0.01z" fill="#ffed00"/>
    </g>
    <g id="bb" transform="translate(380.48 460.08)">
     <path id="bc" d="m0 0-0.039 2e-3c9e-3 -3e-3 0.024-3e-3 0.039-2e-3m0.063 4e-3 -0.021-0.021c-0.122-5e-3 -0.166 1e-3 -0.272 0-8e-3 3e-3 5e-3 5e-3 0.012 6e-3 -0.075-3e-3 -0.187 2e-3 -0.241-8e-3 -0.024 0-0.086 7e-3 -0.063 0.013-0.011-2e-3 -0.024-4e-3 -0.038-3e-3 -3e-3 8e-3 0.03 2e-3 0.031 9e-3 -0.011 0-0.015 1e-3 -0.017-1e-3 0.017 7e-3 -0.019 0.026 0.064 0.025 0.032-0.017-0.057-2e-3 -0.038-0.021 0.027 0 0.024 7e-3 0.026 0.01 0.035-1e-3 0.034-6e-3 0.032-0.01 0.014 6e-3 0.058-3e-3 0.076 7e-3 0.068 1e-3 -4e-3 -0.015 0.041-0.015l0.025 0.02 0.074-4e-3c0.107 7e-3 -0.015 0.034 0.107 0.046-0.016-0.011 0.033-0.028 0.09-0.032-0.034-1e-3 -0.097-0.014-0.141-8e-3 0.062-0.016-0.085-2e-3 -0.053-0.02 0.031 9e-3 0.082 0.01 0.121 5e-3l-0.013-1e-3c0.043-3e-3 0.075 0.018 0.133 0.01 0.029 1e-3 0.024-5e-3 0.019-9e-3 0.024 3e-3 0.046 7e-3 0.046 2e-3" fill="#ffed00"/>
    </g>
    <g id="bd" transform="translate(385.41 460.32)">
     <path id="be" d="M 0,0 0.012,-0.002 C 0.009,-0.001 0.005,0 0,0" fill="#ffed00"/>
    </g>
    <g id="bf" transform="translate(381.96 460.32)">
     <path id="bg" d="M 0,0 0.022,-0.001 C 0.014,0 0.007,0 0,0" fill="#ffed00"/>
    </g>
    <g id="bh" transform="translate(382.47 460.39)">
     <path id="bi" d="M 0,0 0.033,0.005 C 0.02,0.004 0.01,0.003 0,0" fill="#ffed00"/>
    </g>
    <g id="bj" transform="translate(385.14 460.32)">
     <path id="bk" d="m0 0h-1e-3l-5e-3 -1e-3z" fill="#ffed00"/>
    </g>
    <g id="bl" transform="translate(383.48 460.34)">
     <path id="bm" d="m0 0c5e-3 -2e-3 0.011-3e-3 0.018-4e-3 -1e-3 2e-3 -7e-3 3e-3 -0.018 4e-3" fill="#ffed00"/>
    </g>
    <g id="bn" transform="translate(382.46 460.39)">
     <path id="bo" d="m0 0h2e-3l4e-3 1e-3z" fill="#ffed00"/>
    </g>
    <g id="bp" transform="translate(381.74 460.38)">
     <path id="bq" d="m0 0-0.014-2e-3c6e-3 0 0.011 1e-3 0.014 2e-3" fill="#ffed00"/>
    </g>
    <g id="br" transform="translate(381.77 460.32)">
     <path id="bs" d="m0 0c-5e-3 0-0.01-1e-3 -0.014-2e-3z" fill="#ffed00"/>
    </g>
    <g id="bt" transform="translate(380.99 460.36)">
     <path id="bu" d="m0 0-0.03-3e-3c0.015 0 0.023 2e-3 0.03 3e-3" fill="#ffed00"/>
    </g>
    <g id="bv" transform="translate(381.69 460.34)">
     <path id="bw" d="m0 0c-2e-3 -1e-3 -4e-3 -2e-3 -5e-3 -3e-3 4e-3 1e-3 6e-3 2e-3 5e-3 3e-3" fill="#ffed00"/>
    </g>
    <g id="bx" transform="translate(385.6 460.26)">
     <path id="by" d="m0 0h-2e-3l-1e-3 -2e-3z" fill="#ffed00"/>
    </g>
    <g id="bz" transform="translate(385.67 460.29)">
     <path id="ca" d="m0 0 0.027 2e-3c-0.01 0-0.02-1e-3 -0.027-2e-3" fill="#ffed00"/>
    </g>
    <g id="cb" transform="translate(383.92 460.31)">
     <path id="cc" d="m0 0c8e-3 -3e-3 0.027-6e-3 0.018-0.01 0.015 5e-3 0.014 0.015-0.018 0.01" fill="#ffed00"/>
    </g>
    <g id="cd" transform="translate(385.45 460.13)">
     <path id="ce" d="m0 0c5e-3 3e-3 0.011 5e-3 0.017 7e-3 -0.011-3e-3 -0.021-6e-3 -0.017-7e-3" fill="#ffed00"/>
    </g>
    <g id="cf" transform="translate(385.47 460.14)">
     <path id="cg" d="M 0,0 C 0.006,0.001 0.011,0.003 0.016,0.004 0.011,0.003 0.005,0.002 0,0" fill="#ffed00"/>
    </g>
    <g id="ch" transform="translate(383.71 460.15)">
     <path id="ci" d="M 0,0 C -0.002,0.001 -0.005,0.002 -0.009,0.003 -0.008,0 -0.005,0 0,0" fill="#ffed00"/>
    </g>
    <g id="cj" transform="translate(385.72 460.28)">
     <path id="ck" d="m0 0c5e-3 5e-3 0.12 0.015 0.023 0.017 4e-3 0.015 0.063 7e-3 0.088 0.011-0.018 3e-3 0.01 9e-3 4e-3 0.014-0.013-1e-3 -0.028-6e-3 -0.049-4e-3 -0.01 6e-3 0.022 0.011 0.047 8e-3 -0.031 8e-3 0.04 0.012-4e-3 0.018-0.094-5e-3 -0.16-0.011-0.226-0.032 0.053 3e-3 0.113 8e-3 0.157 2e-3l-0.019-0.013c-0.049 0.011-0.08 3e-3 -0.129 4e-3l0.11-7e-3c0.051-0.01 0.017-0.013-0.024-0.015 0.01 0 0.019-1e-3 0.022-3e-3" fill="#ffed00"/>
    </g>
    <g id="cl" transform="translate(385.65 460.17)">
     <path id="cm" d="m0 0h2e-3c1e-3 0 3e-3 0 4e-3 1e-3z" fill="#ffed00"/>
    </g>
    <g id="cn" transform="translate(381 460.11)">
     <path id="co" d="m0 0-9e-3 -5e-3c7e-3 2e-3 0.01 4e-3 9e-3 5e-3" fill="#ffed00"/>
    </g>
    <g id="cp" transform="translate(385.58 460.23)">
     <path id="cq" d="m0 0c-1e-3 0-1e-3 0 0 0" fill="#ffed00"/>
    </g>
    <g id="cr" transform="translate(381.23 460.11)">
     <path id="cs" d="m0 0-1e-3 -1e-3c1e-3 0 1e-3 1e-3 1e-3 1e-3" fill="#ffed00"/>
    </g>
    <g id="ct" transform="translate(381.3 460.38)">
     <path id="cu" d="M 0,0 C 0,0.001 -0.001,0.001 -0.002,0.002 -0.007,0.001 -0.004,0 0,0" fill="#ffed00"/>
    </g>
    <g id="cv" transform="translate(381.23 460.11)">
     <path id="cw" d="m0 0v-1e-3 1e-3" fill="#ffed00"/>
    </g>
    <g id="cx" transform="translate(382.37 460.15)">
     <path id="cy" d="m0 0s-4e-3 2e-3 -9e-3 4e-3c-2e-3 -1e-3 0-2e-3 9e-3 -4e-3" fill="#ffed00"/>
    </g>
    <g id="cz" transform="translate(382.15 460.17)">
     <path id="da" d="m0 0-4e-3 1e-3z" fill="#ffed00"/>
    </g>
    <g id="db" transform="translate(383.86 460.37)">
     <path id="dc" d="m0 0c-0.011 0-0.019 0-0.027-1e-3 9e-3 0 0.017 0 0.027 1e-3" fill="#ffed00"/>
    </g>
    <g id="dd" transform="translate(381.23 460.1)">
     <path id="de" d="m0 0c-2e-3 -1e-3 -6e-3 -3e-3 -0.011-4e-3 6e-3 1e-3 9e-3 3e-3 0.011 4e-3" fill="#ffed00"/>
    </g>
    <g id="df" transform="translate(382.72 460.22)">
     <path id="dg" d="m0 0-7e-3 -1e-3 4e-3 -1e-3z" fill="#ffed00"/>
    </g>
    <g id="dh" transform="translate(382.83 460.21)">
     <path id="di" d="m0 0c-4e-3 -1e-3 -6e-3 -3e-3 -8e-3 -4e-3 0.042 5e-3 0.119-1e-3 0.128 0.013-0.014-1e-3 -0.088 7e-3 -0.076 0.015-0.029-3e-3 -0.072 6e-3 -0.088 4e-3 0.048-7e-3 6e-3 -0.011-0.027-0.016-0.029 4e-3 6e-3 0.011-0.02 0.014l-0.068-2e-3 0.06-2e-3 -0.018-0.013 6e-3 2e-3c0.1 6e-3 8e-3 -0.019 0.111-0.011" fill="#ffed00"/>
    </g>
    <g id="dj" transform="translate(382.82 460.2)">
     <path id="dk" d="m0 0c-6e-3 -1e-3 -0.012-2e-3 -0.016-3e-3 9e-3 0 0.013 1e-3 0.016 3e-3" fill="#ffed00"/>
    </g>
    <g id="dl" transform="translate(383.23 460.18)">
     <path id="dm" d="m0 0c5e-3 0 0.011 1e-3 0.018 2e-3z" fill="#ffed00"/>
    </g>
    <g id="dn" transform="translate(380.23 460.2)">
     <path id="do" d="m0 0c2e-3 -4e-3 0.06-0.012 0.059-2e-3l-0.052 3e-3z" fill="#ffed00"/>
    </g>
    <g id="dp" transform="translate(384.35 460.24)">
     <path id="dq" d="m0 0h-0.02c-1e-3 0-2e-3 -1e-3 -3e-3 -1e-3 4e-3 -2e-3 0.016 0 0.023 1e-3" fill="#ffed00"/>
    </g>
    <g id="dr" transform="translate(382.9 460.24)">
     <path id="ds" d="m0 0c-0.011-2e-3 -0.016-3e-3 -0.018-5e-3 7e-3 1e-3 0.013 2e-3 0.018 5e-3" fill="#ffed00"/>
    </g>
    <g id="dt" transform="translate(384.35 460.22)">
     <path id="du" d="m0 0c8e-3 -3e-3 0.021-7e-3 0.022-0.011 0.017 0 0.029 5e-3 0.046 7e-3 -0.019-1e-3 -0.042 0-0.068 4e-3" fill="#ffed00"/>
    </g>
    <g id="dv" transform="translate(384.42 460.21)">
     <path id="dw" d="m0 0h-1e-3 1e-3" fill="#ffed00"/>
    </g>
    <g id="dx" transform="translate(380.81 460.35)">
     <path id="dy" d="m0 0h-2e-3zm1.198-0.104-0.066-4e-3h7e-3l-0.065-9e-3c0.04-5e-3 0.066-0.017 0.01-0.023 5e-3 5e-3 -0.012 0.011 8e-3 0.013-0.038 7e-3 -0.12 0.014-0.098-3e-3 0.072 0.016 0.017-0.022 0.073-0.01-0.03-0.011-0.06-6e-3 -0.089-0.011 0.03 9e-3 -7e-3 0.021-0.052 0.025-0.019-2e-3 -0.072 0-0.104-4e-3 0.011-0.011-0.017-0.017 0.036-0.02-0.019-2e-3 -0.049-5e-3 -0.083 1e-3 0.013 2e-3 0.037 3e-3 0.035 7e-3 -0.022 9e-3 -0.047 9e-3 -0.061 0.013l-0.033-2e-3c3e-3 0 6e-3 -2e-3 8e-3 -3e-3l-0.037-9e-3c0.049 5e-3 0.023-5e-3 0.022-0.011 1e-3 0.012-0.032 1e-3 -0.049 1e-3l0.037-0.013c-0.018-7e-3 -0.063 9e-3 -0.053-4e-3 0.078-5e-3 0.107-3e-3 0.178 1e-3l-0.029 0.01c0.08 7e-3 0.049-0.017 0.138-0.017 0.038 0.01 0.135 1e-3 0.136 0.02-0.011-6e-3 0.056-0.017 0.086-8e-3 0.034 0.016 0.136 0.019 0.105 0.026-0.027 1e-3 -0.064-9e-3 -0.087 2e-3l0.054 4e-3 -0.035 9e-3c0.018-3e-3 0.016 6e-3 8e-3 0.019m0.222 0.014c0.035-0.026 0.073-0.049 0.235-0.044l-0.012-2e-3c0.082-0.016 0.159 0.022 0.259 4e-3 -0.048-0.01-0.046-9e-3 -0.099-0.032l0.052 8e-3c-0.015-0.015 0.037-7e-3 0.075-8e-3l-0.034-0.017c-0.022 5e-3 -0.082 7e-3 -0.08 3e-3 0.013 2e-3 -0.078 0.021-0.128 0.016 6e-3 -0.011 0.11-7e-3 0.063-0.025 0.042 8e-3 0.047-4e-3 0.09 0-0.042-8e-3 -0.011-0.015-0.041-0.024l0.07 4e-3c2e-3 -4e-3 -0.102-8e-3 -0.045-0.022 0.029 6e-3 0.104-2e-3 0.105 0.01l2e-3 -3e-3c0.053-3e-3 0.023 0.017 0.088 0.01 1e-3 6e-3 -0.011 0.011-0.035 9e-3 -0.019-2e-3 -0.022-0.011-0.063-0.013-0.018 0.01 0.049-1e-3 0.021 0.015-0.014 9e-3 -0.107-7e-3 -0.077 0.012l0.052-3e-3c2e-3 0.012 0.04 0.012 0.039 0.022 0.032 4e-3 0.063-0.01 0.096 1e-3 0.013 8e-3 -0.011 0.023 0.044 0.016 0.043-0.018 0.168-0.014 0.215-0.012l0.041 8e-3c-3e-3 8e-3 -0.078-1e-3 -0.052 9e-3l0.064 3e-3 -5e-3 -5e-3c0.021-1e-3 0.043 4e-3 0.063 7e-3 -0.02-9e-3 -0.067-5e-3 -0.057-0.018 0.03-3e-3 0.034-8e-3 0.062-5e-3 -6e-3 -1e-3 -0.011-2e-3 -0.011-4e-3 0.061-6e-3 0.059 0.014 0.075 0.019 0.061 0.016-0.062 0.015-0.054 0.028l0.179 7e-3c-0.016-4e-3 -0.031-8e-3 -0.025-0.013 0.044-6e-3 1e-3 -0.01 0.062-0.01-4e-3 0.018 0.078 0.011 0.121 0.022 0.021-8e-3 0.025-9e-3 -0.019-9e-3 5e-3 -0.012 0.064-7e-3 0.086-8e-3 0.012 2e-3 0.033 4e-3 0.046 7e-3 -0.018 5e-3 -0.01 0.012 0.029 0.017l2e-3 3e-3c-0.063 3e-3 -0.162 0.015-0.201 4e-3l0.011 5e-3c-0.073 0.01-0.159-0.02-0.193 1e-3 3e-3 9e-3 -0.015 2e-3 -0.014 0.015l-0.053-0.01 0.011 6e-3 -0.092-3e-3 3e-3 2e-3 -0.105-0.028c0-5e-3 2e-3 -7e-3 -0.012-0.011-0.015-2e-3 -0.026-3e-3 -0.036-2e-3 -0.022 2e-3 -0.037 9e-3 -0.065 0.012l0.085 2e-3c7e-3 9e-3 0 0.018-0.042 0.025 0.017 0 0.025 7e-3 3e-3 8e-3 -2e-3 -2e-3 -0.055-6e-3 -0.035-0.013-0.081-3e-3 -0.212 0.021-0.335 3e-3 0.088 0.011-0.071 0.013 0.027 0.016-0.068 0.015-0.059-0.014-0.128-0.012-6e-3 6e-3 0.038 0 0.054 0.01-0.116 6e-3 -0.196-0.024-0.308-0.019l-5e-3 0.011zm1.883-0.016c7e-3 1e-3 9e-3 4e-3 9e-3 4e-3 -0.142-0.027-0.258-0.035-0.335-0.034 0.015-0.011 0.084-0.019 0.116-0.024l-0.029-0.012-0.018 0.01-0.05-0.011c0.014-8e-3 0.055-7e-3 0.082-0.013 2e-3 2e-3 0.089 0.017 0.113 0.024l-0.069 8e-3c0.018-3e-3 0.11 0 0.146 3e-3 1e-3 6e-3 -0.062 0.016-0.069 2e-3 -8e-3 9e-3 0.064 9e-3 0.019 0.019 0.054 0.01 0.14 2e-3 0.18-3e-3l7e-3 -0.015c0.043-6e-3 0.029 0.018 0.081 0.01-0.064-3e-3 0.011-0.017-0.04-0.018 0.016-6e-3 0-0.016 0.051-0.015 0.043 0.02 0.054-0.013 0.094 5e-3 0.027-6e-3 -0.029-0.012 0.024-0.015 0.061 0.011 0.057 0.018 0.061 0.033-0.057 4e-3 -0.064-0.019-0.11-0.016l0.092 0.026c-0.017 3e-3 -0.029 4e-3 -0.04 2e-3 0.019 2e-3 0.034 6e-3 0.048 0.011 7e-3 3e-3 0.015 5e-3 0.021 7e-3 -0.052 0-0.098 1e-3 -0.107 7e-3l8e-3 7e-3c-0.019 7e-3 -0.049 1e-3 -0.063-4e-3 -0.047 0-0.093-0.01-0.104-1e-3l0.018 6e-3c-0.057-2e-3 -0.064-3e-3 -0.136-3e-3m0.729-0.026c1e-3 -1e-3 6e-3 -4e-3 0.013-8e-3l-0.036-8e-3c-0.063 4e-3 -0.114 0.025-0.171 7e-3 -0.027 4e-3 -0.041 0.014-0.054 0.022 0.013-1e-3 0.025-2e-3 0.035-3e-3 0.16 0.027 0.083-0.028 0.213-0.01m-3.877-0.038c0.019 0.013 0.08 0.013 0.084 0.028 4e-3 4e-3 -9e-3 5e-3 -0.023 7e-3l-0.052 1e-3c-1e-3 -2e-3 -5e-3 -4e-3 -0.011-6e-3 0.019-2e-3 0.031-6e-3 0.023-0.015-0.046 0.02-0.042-0.014-0.092-9e-3 -0.016-0.01 0.056-0.01 0.071-6e-3m-0.291 0.035 0.01 0.011-0.03 1e-3c3e-3 -5e-3 7e-3 -9e-3 0.02-0.012m-0.091 0.014 4e-3 1e-3 -0.032 1e-3c4e-3 -1e-3 0.013-2e-3 0.028-2e-3m0.87-7e-3c-5e-3 0-9e-3 0-0.012 1e-3zm-0.039-0.015c0.045-3e-3 0.035 3e-3 0.042 9e-3l-0.047-2e-3c5e-3 -2e-3 8e-3 -4e-3 5e-3 -7e-3m-0.056 0.049-0.234 8e-3c0.136-0.029 0.233-0.051 4e-3 -0.051l-0.015-2e-3c0.03-3e-3 0.082-4e-3 0.13-2e-3 0.039 0.01 0.166 0.048 0.164 0.052-0.014 8e-3 -0.034-1e-3 -0.059 1e-3zm-4.995-0.046c3e-3 1e-3 6e-3 3e-3 8e-3 5e-3 -2e-3 -2e-3 0-4e-3 -8e-3 -5e-3m3.836-4e-3 -0.016-2e-3 9e-3 3e-3 -0.041 3e-3c-5e-3 -1e-3 -0.01-1e-3 -0.016-2e-3l6e-3 3e-3 -0.013 1e-3c-0.032-0.01-0.112-0.018-0.135-0.024-0.03-4e-3 -0.068-7e-3 -0.091-6e-3 0.022 0 0.05 2e-3 0.042 8e-3 -0.044 6e-3 -0.066 0.023-0.141 8e-3h0.044l-0.1-0.022c-0.035 9e-3 0.05 0.011 0.064 0.019-0.078-0.011-0.143 0.018-0.179-1e-3 -5e-3 0.012-0.013 0.031-0.064 0.029 0.037-0.013-0.031-8e-3 -1e-3 -0.022-0.017-6e-3 -0.057 4e-3 -0.06-4e-3l5e-3 4e-3c-0.087 0.018-0.115-0.01-0.153-0.019-0.104-5e-3 -0.152 3e-3 -0.237 1e-3 -3e-3 7e-3 -0.027 0.028-0.061 0.028-0.016-0.011-0.093-0.016-0.101-0.029 0.062-5e-3 0.05 0.011 0.087 0.014 0.03-0.013 3e-3 -0.013 0.044-0.022-0.033 6e-3 -0.151-7e-3 -0.188 6e-3l0.013 2e-3c-0.059 8e-3 -0.07 0.041-0.167 0.021l-0.047-8e-3c2e-3 1e-3 2e-3 3e-3 4e-3 4e-3 -0.077 1e-3 -0.056 0.016-0.14 4e-3 6e-3 1e-3 2e-3 3e-3 9e-3 4e-3 -0.048 7e-3 -0.096-8e-3 -0.133-0.011-0.022 0.011 6e-3 0.011 0.019 0.019-0.084 4e-3 -0.175-0.015-0.228-0.028l-0.054 6e-3c0.032 5e-3 0.072 0.016 0.062 0.023-0.03-2e-3 -0.024-7e-3 -0.067-5e-3 7e-3 7e-3 0.025 0.013 0.045 0.022-0.087 0.012-0.019-0.025-0.081-3e-3 -0.027 0-0.043-0.01-0.046-0.019l-0.05 0.011c-6e-3 -0.011-0.067-0.011-0.107-0.013-5e-3 -4e-3 0.032-0.011 0.047-7e-3 -3e-3 -9e-3 -0.046-0.013-0.073-0.013-0.01 0.023-0.181-3e-3 -0.148 0.024-0.124-7e-3 -0.298-0.01-0.38-0.019-0.027 6e-3 -0.082 6e-3 -0.049 0.017-0.1 0-0.151-0.023-0.25-0.017-8e-3 3e-3 0.045 0 0.041 8e-3 -0.065-9e-3 -0.118 9e-3 -0.218 3e-3 0.017 1e-3 0.022 6e-3 0.024 8e-3 2e-3 -4e-3 -0.041-8e-3 -0.067-0.012-0.015 2e-3 0.019 3e-3 0.011 6e-3 -0.194 0.011-0.342-0.02-0.534-0.019 0.055 0 0.075 0.015 0.076 0.021h-0.054c-0.021-7e-3 -0.061-7e-3 -0.095-0.013-4e-3 3e-3 -0.021 6e-3 -4e-3 0.01-0.107 0.015-0.167-0.028-0.297-0.02l0.158 0.03-0.039 0.011 0.069 0.014c-0.041 8e-3 -0.077-0.011-0.082 0 9e-3 4e-3 0.03 3e-3 0.03 9e-3 -0.04 4e-3 -0.043-4e-3 -0.073-7e-3 0.079 0.024 0.234 0.023 0.318 0.029 0.013 2e-3 -0.012-6e-3 -0.014-8e-3 0.034 1e-3 0.055-6e-3 0.097-2e-3 0.027 9e-3 -0.02 7e-3 -0.041 8e-3 3e-3 8e-3 0.013 8e-3 0.037 9e-3 5e-3 -0.011 0.129-4e-3 0.159-0.018 0.126 4e-3 -0.02 0.03 0.103 0.025l0.036-0.013c0.072 0.01 0.164 0.019 0.244 0.016h-0.017c-0.011-6e-3 8e-3 -9e-3 0.016-0.012 0.061-6e-3 0.115 0.01 0.152-3e-3 0.07 0.014 0.185 0.024 0.265 0.031 0.021-0.017-0.104-0.014-0.137-0.025h0.072c-0.044 0-0.062-7e-3 -0.089-0.017 0.064-3e-3 0.085 0.012 0.145 0.017-5e-3 -5e-3 3e-3 -8e-3 0.031-8e-3l7e-3 0.011c1e-3 -1e-3 4e-3 -1e-3 0.013-2e-3l0.106 7e-3c-0.022 5e-3 -0.023 0.015-0.051 0.015 0.01-7e-3 -0.014-8e-3 -0.041-8e-3 0.024 7e-3 -0.027 6e-3 -0.026 0.012 0.055 0 0.123 2e-3 0.159 5e-3l0.012-0.011c0.053-2e-3 0.108 3e-3 0.144 0l-0.011-5e-3c0.063-3e-3 0.126 3e-3 0.182-7e-3 0.056 0.012 0.127 0.022 0.173 0.035 0.025 0.013 0.166-0.017 0.23 2e-3 4e-3 -2e-3 -0.044-0.01-0.066-0.016 0.043-2e-3 0.076 0.015 0.089 1e-3 -0.095 5e-3 6e-3 -0.012-0.037-0.016 0.044 1e-3 0.091 3e-3 0.113 8e-3 -0.072 0 0.026 0.02-0.047 0.014 0.056 0.012 0.133 0.017 0.201 0.012-1e-3 -6e-3 7e-3 -9e-3 0.032-0.012l0.02 9e-3c0.032-1e-3 -0.06-0.01 3e-3 -0.013 0.065 0.015 0.196-9e-3 0.225 0.019 0.05-0.011-0.095-0.011-0.02-0.025-0.043-0.01-0.103 2e-3 -0.118-0.012 0.043 4e-3 0.016-0.012 0.043-0.012l0.048 8e-3 -0.011 1e-3c0.08 0.013 0.207 7e-3 0.309 9e-3 0.087 0.014 0.146 0.035 0.25 0.033-0.031-8e-3 0.086-8e-3 0.021-0.023 0.048-7e-3 0.095 1e-3 0.096 7e-3 -0.042 3e-3 -0.015 2e-3 -0.05 5e-3 0.024 8e-3 0.079 8e-3 0.102 3e-3 -0.011 0-7e-3 -1e-3 -9e-3 -4e-3 0.05-5e-3 0.024 8e-3 0.061 0.011 0.011-0.01 0.08-3e-3 0.113-8e-3l0.049 0.015c-0.027-0.01 0.046-4e-3 0.053-0.013 0.035 7e-3 0.064 0.019 0.117 0.017-0.022-6e-3 0.048-8e-3 0.049-0.018 0.09-9e-3 0.149 0.027 0.235 0.013-3e-3 -2e-3 -0.02-9e-3 5e-3 -0.011 0.019 2e-3 0.054 1e-3 0.075 2e-3h-1e-3 1e-3c0.011 1e-3 0.017 2e-3 0.017 5e-3 0.036 9e-3 0.055 0.019 0.126 0.028-5e-3 0.011-0.065 7e-3 -0.091 3e-3l-0.023-0.011c-0.021 0.017-0.063-3e-3 -0.08 2e-3 0.043 0.021 0.165 0.016 0.239 0.028-0.045 0.016-0.143 0.018-0.228 0.016l0.038-6e-3 -0.045-1e-3 0.043-0.012c-0.042 2e-3 -0.078-1e-3 -0.116 0 0.044 0 0.062-0.016 0.036-0.013-0.049 0.011-0.051-7e-3 -0.089-7e-3 0.021-1e-3 0.048-1e-3 0.031-7e-3 -0.075 0.013-0.096 4e-3 -0.164 0.019 9e-3 -0.019-0.085-2e-3 -0.095-0.017l0.032-2e-3 -0.067-0.012c-0.062 0.016 0.054 0.016-0.04 0.027-0.087 2e-3 -0.085-0.018-0.153-0.019 0.023 0.011 0.077 0.021 0.132 0.02l-0.033 6e-3c0.017 6e-3 0.094 5e-3 0.132 4e-3 -0.063-0.013 0.029-4e-3 0.058-0.014 5e-3 0.011-0.036 9e-3 0.012 0.018-0.045 0-0.051-1e-3 -0.108 3e-3 0.123-5e-3 0.111 0.038 0.218 0.029-0.05-5e-3 0.017-0.016 0.023-0.021 0.023 1e-3 0.07 4e-3 0.09 6e-3l-0.018 0.016c0.063 7e-3 0.084-0.027 0.156-0.01 0.01 9e-3 -0.063 3e-3 -0.05 5e-3 0.099 0.01 0.134-0.016 0.222-0.028 5e-3 5e-3 4e-3 0.015 0.034 0.023-9e-3 -9e-3 0.013-0.014-0.021-0.021 0.029-4e-3 0.064 3e-3 0.09 7e-3 -0.061 5e-3 0.024 0.013 0.036 0.019 0.031-2e-3 -0.01-9e-3 -0.029-0.012 0.025-3e-3 0.055-0.017 0.069-2e-3 1e-3 -0.01-0.07-0.027-0.117-0.029l0.031-2e-3c-0.021-5e-3 -0.026-3e-3 -0.057-2e-3 0.031-8e-3 0.028-0.016 0.021-0.023-4e-3 1e-3 2e-3 2e-3 -2e-3 4e-3 -0.025 2e-3 -0.045-1e-3 -0.039-6e-3 -0.023-0.013 0.035-8e-3 0.052-0.015l0.039 3e-3 0.132 0.043c0.056 5e-3 0.081-6e-3 0.123-0.012l0.012 0.011c0.049-1e-3 0.095-4e-3 0.063-0.019-1e-3 4e-3 -8e-3 3e-3 -0.018 4e-3 -2e-3 -2e-3 -4e-3 -3e-3 -7e-3 -4e-3 -1e-3 -1e-3 -2e-3 -1e-3 -3e-3 -2e-3l0.088 7e-3c-0.089-0.017-4e-3 -0.021-0.019-0.042l0.09 7e-3c-0.055 6e-3 -1e-3 0.01 0.018 0.013 5e-3 -0.012 0.072 0 0.104-2e-3l-2e-3 -2e-3c0.029-4e-3 0.08-3e-3 0.116 0-1e-3 4e-3 0.045 0.023 0.068 0.034-0.063 4e-3 -0.026 9e-3 -0.031 0.016 7e-3 -1e-3 0.018-1e-3 0.02 1e-3 9e-3 3e-3 -0.012 4e-3 -0.014 8e-3 -0.066-6e-3 -0.135-7e-3 -0.162-0.023 0.021-7e-3 0.035 7e-3 0.058 2e-3 -0.033-0.011-0.075-9e-3 -0.131-8e-3l-0.018 9e-3 -0.055-5e-3c0.023 5e-3 9e-3 0.015 0.067 0.017-7e-3 9e-3 -0.057-2e-3 -0.093 1e-3l-0.018-0.013c7e-3 7e-3 -0.069 9e-3 -0.015 0.018l0.088 0.011-0.025 9e-3 0.075 2e-3 -0.018-7e-3c0.12 9e-3 0.036-0.025 0.156-0.01 0.038 0.016 0.078 0.017 0.152 0.013-0.053-3e-3 -5e-3 -0.01-0.025-0.019 0.054-7e-3 0.072 6e-3 0.101 0.012 0.014-8e-3 0.024-0.015-0.025-0.014-6e-3 -0.017 0.064 3e-3 0.068-0.014 0.162 0 0.13 0.056 0.318 0.034l-7e-3 -7e-3c0.12 9e-3 0.189 1e-3 0.3 6e-3l0.087-0.018c-0.019-2e-3 -0.072-0.016-0.047-0.025-0.043 0.019-0.088 0.012-0.134 0.022-4e-3 -5e-3 0.014-8e-3 0.022-0.011-0.027 0-0.041 8e-3 -0.078 5e-3 2e-3 -4e-3 0.042-8e-3 0.012-0.01l-0.05 0.011c-0.066-5e-3 -0.032-0.027-0.11-0.022 0.014 0.01 0.044 0.025 0.074 0.027-0.036 2e-3 0.047 6e-3 0.015 0.012-0.051-0.015-0.076-3e-3 -0.144-0.012 8e-3 2e-3 0.01 5e-3 0.027 6e-3l-0.099 6e-3c0.024-9e-3 -0.082-0.01-0.073-0.023 0.105-5e-3 0.074 3e-3 0.195-4e-3 -0.034-3e-3 -0.078-0.016-0.099-0.028-1e-3 0-3e-3 0-6e-3 1e-3 -0.019-0.013 0-0.016 0-0.039 0.055 0.016 0.091 3e-3 0.156 0.012 0.012 0.012-0.038 0.016-0.07 0.013l0.057 8e-3 -0.011-6e-3 0.145-4e-3c-0.028-1e-3 -0.037-8e-3 -0.051-0.013 0.018-1e-3 0.037-4e-3 0.057-7e-3 -4e-3 0.011-2e-3 0.02 0.016 0.019 0.094-2e-3 0.145-0.013 0.18-0.026l0.011 1e-3c-0.016 0.012 0.066 0.021 0.095 0.033-2e-3 -0.012 0.048-7e-3 0.074-0.013 0.015 0.014-4e-3 0.033-0.037 0.045-0.063-0.013-0.035-0.013-0.065-0.032l-0.101-0.012 0.022 0.011c-0.05 5e-3 -0.098-9e-3 -0.095 5e-3 0.027 0.01 0.071 4e-3 0.097 0.014l-0.033 5e-3c0.059 0.015 0.03-0.014 0.101-4e-3 -0.026 0.013 7e-3 1e-3 0.037 0.01-0.024 8e-3 -0.125-4e-3 -0.104 0.017 0.037 0.01 0.125-0.025 0.174-3e-3l-2e-3 -3e-3c0.072-3e-3 0.097 0.01 0.124 0.017 0.031-7e-3 0.074 3e-3 0.107 4e-3l-1e-3 -6e-3 0.047 2e-3c-0.022-0.011-0.055 0-0.095-1e-3l5e-3 -0.012c-0.047 0.014-0.078-7e-3 -0.114-0.017 0.053 0.01 0.148-2e-3 0.161 0.02l0.032-0.012 0.016 5e-3c0.024-9e-3 -1e-3 -0.023-0.048-0.025-8e-3 3e-3 -0.012 4e-3 -9e-3 6e-3 -0.022-5e-3 -0.042-0.014-0.095-0.011l0.028 6e-3c-0.066 1e-3 -0.125-4e-3 -0.148-0.015 0.095-5e-3 0.188-6e-3 0.277-5e-3 0.027 0.026 0.058 0.04 0.071 0.064 0.06 5e-3 0.141 8e-3 0.193-1e-3l-5e-3 -4e-3c0.026-3e-3 0.049-2e-3 0.069 1e-3 0.026-6e-3 -0.019-0.013 0-0.016l0.086 8e-3c-6e-3 -0.011-0.078-0.011-0.112-0.012 6e-3 1e-3 0.02 3e-3 0.015 5e-3 -0.039 4e-3 -0.114-0.014-0.131 1e-3 -0.019-2e-3 0.039 0.012-0.026 0.013-0.044 6e-3 -0.059-8e-3 -0.063-0.013-1e-3 -6e-3 0.069-9e-3 0.045-0.016 0.034 1e-3 0.047 9e-3 0.091 3e-3 -0.034-1e-3 -0.08-0.014-0.098-4e-3 -0.067-0.011-0.057-0.04-0.026-0.042-7e-3 9e-3 0.123 0.011 0.035 0.023 0.039 0.012 0.111 0.012 0.163 0.019l-2e-3 -2e-3 0.064 3e-3c-9e-3 -4e-3 -0.028-6e-3 -0.029-0.012l0.089 0.016c-0.05-0.011 0.031-8e-3 0.054-0.013 9e-3 0.01 0.044 0.017 0.01 0.022-0.037 7e-3 -0.021-5e-3 -0.055-6e-3l0.048 0.015 4e-3 -1e-3 0.029 0.012c0.066-1e-3 -0.029-0.028 0.055-0.016l-0.011 0.016c0.098-2e-3 0.223-0.021 0.292-0.013-0.019-0.01-0.028-0.025-1e-3 -0.034-0.03 3e-3 -0.09 2e-3 -0.132 1e-3 -9e-3 3e-3 0.053 0.019 0.099 0.016-0.022 0.027-0.116-0.017-0.122 0.011-0.118 0.01-0.088-0.027-0.188-0.01-1e-3 -0.013-0.028-6e-3 -0.033-0.017 0.029-0.02 0.133 0 0.198-7e-3 -6e-3 -1e-3 -0.019-2e-3 -0.021-5e-3 0.046-3e-3 0.065-1e-3 0.098 4e-3l-4e-3 1e-3c0.056 0.012 0.035-9e-3 0.068-0.014 0.013 2e-3 0.059-2e-3 0.052 7e-3l0.06-0.012-3e-3 0.014c0.034 1e-3 0.042-8e-3 0.072 0l2e-3 0.013-0.085 4e-3c0.043 4e-3 0.012 0.012 0.059 0.014-0.052-0.013 0.038-7e-3 0.043-0.018l0.034 7e-3 -8e-3 -3e-3c0.027-7e-3 0.032 4e-3 0.064 3e-3 -0.038 6e-3 -0.062 0.015-0.11 6e-3 0.035 7e-3 0.104 0.015 0.12 0.015 0.037 6e-3 0.062-4e-3 0.096-5e-3 -0.065-5e-3 0.023-0.038-0.108-0.029 3e-3 3e-3 0.013 2e-3 0.017 1e-3 -0.017 0.015-0.078-1e-3 -0.107-7e-3 8e-3 -9e-3 -0.022-0.012 0.028-0.017-0.016 6e-3 0.043 0.021 0.091 0.013l-9e-3 -0.019 0.07-3e-3h-6e-3c0.026-0.013 0.074 2e-3 0.122-5e-3 0.035 7e-3 0.168 1e-3 0.111 0.021 0.043-0.012 0.081 4e-3 0.128 6e-3l-0.059 8e-3c0.07 0.014 0.05 5e-3 0.105 0.027 6e-3 -5e-3 0.018-0.01 7e-3 -0.015 0.093-1e-3 0.226-7e-3 0.281 9e-3 0.066-1e-3 0.076-0.023 0.168-0.014 0.02 2e-3 -0.015 0.018 0.046 0.012 4e-3 -1e-3 -0.059-0.014 9e-3 -0.013 0.049 0.015 0.114-8e-3 0.177 5e-3 0.033-5e-3 0.091-3e-3 0.079-0.015-0.053 2e-3 -0.127 0-0.139-6e-3 8e-3 7e-3 -0.037 7e-3 2e-3 0.013-0.08 9e-3 -0.052-8e-3 -0.123-1e-3 -5e-3 -5e-3 0.036-0.014 0.052-9e-3 0-0.016-0.141-8e-3 -0.078-0.027 0.077-2e-3 0.099 0.032 0.165 0.015-0.026-0.01-0.068-2e-3 -0.101-0.019l0.054-6e-3 0.039 0.012-2e-3 -3e-3c0.096-0.015 0.089 0.017 0.175 0.025-0.05 0.011 0.011 0.028-0.026 0.035 0.057 2e-3 0.1 0 0.1-0.017-0.108-0.013-6e-3 -0.017-0.106-0.033 0.017-5e-3 -0.023-0.023 0.036-0.025 0.067 0.011-0.02 0.013 0.047 0.019 4e-3 -2e-3 8e-3 -3e-3 5e-3 -6e-3 0.031 9e-3 0.036-3e-3 0.073 7e-3l-9e-3 -4e-3c0.046-9e-3 0.05 0.012 0.089 1e-3 -0.015 0.012 0.027 0.01 0.051 0.017-0.04 5e-3 -0.061 0.022-0.14 0.021-9e-3 -0.01-4e-3 -0.015-0.036-0.019l0.051 1e-3c-0.011-2e-3 -0.019-4e-3 -0.029-6e-3l-0.049 5e-3c0.062 7e-3 0.033 0.017 0.06 0.026 0.057-4e-3 0.047 3e-3 0.083 0-4e-3 -0.014 0.109-0.024 0.175-0.033-0.01 1e-3 -0.023 1e-3 -0.03 1e-3 -0.048-9e-3 0.032-0.012 0.034-0.015l0.035 7e-3c-7e-3 -1e-3 -0.016-5e-3 -1e-3 -7e-3 0.047 3e-3 0.044 0.017 0.091 0.019 4e-3 -7e-3 -0.036-0.019-7e-3 -0.023 0.01-7e-3 0.042-0.024 0.105-0.018 4e-3 3e-3 0.02 5e-3 0.039 6e-3 -3e-3 0-6e-3 -1e-3 -7e-3 -1e-3l0.041-8e-3c-0.035-0.013-0.071 6e-3 -0.107-7e-3l-3e-3 -0.013c-0.027 0-0.065-5e-3 -0.082-0.012 0.042-2e-3 0.051 2e-3 0.098 4e-3 7e-3 -8e-3 -0.026-0.013-0.031-0.014l7e-3 7e-3c-0.056 0.01-0.084-0.012-0.154-0.01-0.01 1e-3 -4e-3 2e-3 -2e-3 4e-3 -0.056-0.012-0.112 4e-3 -0.167-0.011l0.018 6e-3c-0.037-5e-3 -0.11-0.017-0.183-0.029l-1e-3 -5e-3c8e-3 -3e-3 -0.019-3e-3 -0.034-1e-3 -0.036-6e-3 -0.072-0.011-0.1-0.015 9e-3 -3e-3 0.021-5e-3 0.034-6e-3 0.011 5e-3 0.079 1e-3 0.069 0.014 0.031-8e-3 0.081 3e-3 0.104-2e-3 -0.041 8e-3 0.029 0.012 0.036 0.019 0.014-8e-3 0.062 1e-3 0.057-0.01 8e-3 -3e-3 -0.021 7e-3 -0.039 1e-3 -0.043-0.01 0.08-9e-3 0.026-0.019 0.069 8e-3 0.16 5e-3 0.231 0.015l-0.04 4e-3c0.032-2e-3 0.106 1e-3 0.112-4e-3 -0.024-2e-3 -0.051-2e-3 -0.081-4e-3 -2e-3 -0.012 0.072 0 0.075-7e-3l0.088 0.02-0.039 1e-3c0.025 7e-3 0.104-2e-3 0.164-3e-3 -0.034-0.017-0.09-1e-3 -0.152-8e-3 -0.045-6e-3 0.028-0.016-0.015-0.02 0.011-4e-3 0.039-3e-3 0.053 1e-3l0.017-3e-3c-0.038-0.016-0.124-0.012-0.181-0.025 5e-3 1e-3 9e-3 3e-3 0.011 5e-3 -0.044 6e-3 -0.089 6e-3 -0.131 1e-3 0.022-4e-3 0.031-1e-3 0.044 1e-3 2e-3 -4e-3 -0.039-6e-3 -0.054-0.01 0.04-4e-3 8e-3 -9e-3 0.033-0.011-0.026-4e-3 -0.047-3e-3 -0.079-1e-3 -0.016 5e-3 0.014 8e-3 0.01 0.015-0.032-4e-3 -0.047 0.014-0.095 5e-3 0.064-3e-3 -0.016-0.017-0.038-0.022h0.01c-0.02-9e-3 -0.037-9e-3 -0.05-1e-3 0.025 3e-3 0.05 1e-3 0.043 0.01-0.017-1e-3 -0.034-1e-3 -0.053-4e-3l0.017 7e-3 -0.085-2e-3c-0.013-8e-3 -0.036-0.019-0.048-0.031-0.02 7e-3 -0.049 1e-3 -0.068-2e-3l9e-3 4e-3c-0.037 7e-3 -0.121 1e-3 -0.128-6e-3 -0.027 6e-3 0.19 0.045 0 0.038-0.072 0-0.045-0.022-0.086-0.03 0 0 2e-3 2e-3 -2e-3 4e-3 -0.031 1e-3 -0.034-7e-3 -0.06-0.011 0.018-3e-3 0.046-4e-3 0.055 0-0.01-0.01-0.066 1e-3 -0.09-7e-3 0.031 0.015-0.061 6e-3 -0.037 0.013-0.063 0.01-0.13-2e-3 -0.163-0.013-0.042 0.019-0.074-2e-3 -0.143 6e-3 0.01 0 0.03 3e-3 0.044 1e-3 0.04 0.011-0.071 6e-3 -0.01 0.016-0.013-2e-3 -1e-3 -6e-3 0.012-4e-3 0.023 1e-3 0.045 6e-3 0.039 0.012l-0.056 0.01 0.02 3e-3 -0.086 0.014c-2e-3 -3e-3 6e-3 -5e-3 0.01-7e-3 -0.099 6e-3 -0.212-2e-3 -0.299 0-0.017-0.032-0.214-0.014-0.284-0.034 0.019 0.01 0.029 0.026 0.017 0.033 0.016 1e-3 0.048 0.014 0.083 0.012 6e-3 -5e-3 0.05-0.011 0.022-0.017 0.098 3e-3 -0.014 0.014 0.015 0.026-0.108-3e-3 -0.172-0.022-0.241-0.03l-1e-3 4e-3 -0.052-7e-3c0.042-3e-3 0.04-0.021-0.014-0.015l6e-3 1e-3c-0.031 8e-3 -0.096-1e-3 -0.144 0l-0.033-0.011c-0.049 2e-3 -0.051 0.022-0.067 0.034-0.076 1e-3 -0.12-0.015-0.174-0.025-0.025 9e-3 -0.139 0.011-0.078 0.021-0.069-7e-3 -0.055-0.054-0.173-0.028l0.03 8e-3c-0.112-2e-3 -0.273-0.018-0.325-9e-3 0.041 0.03-0.141 0.03-0.161 0.06 5e-3 -7e-3 -0.037-9e-3 -0.043-0.013-0.01 4e-3 -0.025 7e-3 -0.041 1e-3 0.044-6e-3 -0.031-0.031 0.053-0.019-0.043-0.02-0.098-0.036-0.191-0.035l1e-3 0.012 0.074-3e-3c-7e-3 9e-3 0.031 8e-3 0.046 0.012-0.137 7e-3 0.018 0.029-0.122 0.027-0.014-8e-3 -5e-3 -4e-3 -0.041-7e-3 0.017 0 0.02 9e-3 -8e-3 9e-3l-0.026-0.01c-0.049 0.02 0.081 0.013 0.039 0.028 0.054 9e-3 0.148 0.014 0.131 0.03-0.089 6e-3 -0.08-0.029-0.172-0.022l-0.01 7e-3c-0.033-5e-3 -0.038-0.016-0.056-0.022-2e-3 3e-3 -0.01 6e-3 -0.031 7e-3 -0.055-0.015-0.091-0.019-0.142-0.036 0.135 0.013 0.116-0.012 0.255 0-0.022-5e-3 -0.12-9e-3 -0.126-0.026l1e-3 0.012c-0.045-6e-3 -0.09-0.013-0.147-8e-3l0.035 6e-3c-0.076-8e-3 -0.126 0.019-0.185-1e-3 0.021-1e-3 0.038-1e-3 0.051 1e-3 -0.039-6e-3 -0.088-5e-3 -0.13-2e-3l-0.087-0.021c1e-3 6e-3 -0.055 7e-3 -0.028 0.017-0.063 9e-3 -0.092-9e-3 -0.129-0.013-0.064 0.014 0.056 6e-3 0.062 0.023-0.088 6e-3 -0.182 1e-3 -0.232-0.01 0.018-3e-3 0.027-5e-3 0.026-8e-3 -3e-3 4e-3 -0.038 3e-3 -0.058 3e-3l-0.014-8e-3c-0.033 6e-3 -0.029 0.01 0 0.016-0.032 2e-3 -0.07-0.014-0.102-2e-3 0.054 0.01 0.123 1e-3 0.151 7e-3 -0.113-8e-3 -0.114 0.025-0.257 0.014-2e-3 4e-3 0.022 0.012-5e-3 0.012-0.064-3e-3 -0.017-0.017-0.037-0.026 0.049 5e-3 0.072 1e-3 0.101-0.01l-0.014-6e-3c-2e-3 3e-3 -0.032 4e-3 -0.042 7e-3l-8e-3 -0.013c4e-3 0.014-0.045 0.025-0.084 0.02 0.039-0.011 0.028-0.01 0.039-0.027-0.055-0.016-0.062 0.016-0.123-1e-3 5e-3 5e-3 0.058 8e-3 0.012 0.012-0.038 0-0.033-0.011-0.059-0.015 0.029 0.013 0.022 0.022 0.053 0.036 0.068 2e-3 0.027 0 0.094 5e-3l-0.056 0.011c0.057 2e-3 0.042 0.013 0.046 0.018-0.098 0.013-0.074-0.018-0.137-0.015-0.031-9e-3 0.059-2e-3 0.011-0.011-0.059 2e-3 -0.013-8e-3 -0.08-0.013l0.012 6e-3c-0.021 7e-3 -0.041-2e-3 -0.064-3e-3 -0.026-4e-3 0.029-0.043-0.077-0.043 5e-3 3e-3 7e-3 5e-3 7e-3 6e-3l0.103 0.103c-0.107 0-0.231 3e-3 -0.356 0.01-0.029 0.02 0.089 0.016 0.081 0.025l0.057-4e-3c-3e-3 -9e-3 -0.119-3e-3 -0.068-0.018 0.101 6e-3 0.146-3e-3 0.242 0.014-0.03 0.02-0.126-3e-3 -0.188 0.012 0.026-1e-3 0.048 1e-3 0.07 4e-3l-0.187 8e-3 -0.015-5e-3c0.045-2e-3 0.075-3e-3 0.079-4e-3 -0.059 2e-3 -0.109-0.01-0.113-0.024l0.011-1e-3 -0.021-4e-3z" fill="#ffed00"/>
    </g>
    <g id="dz" transform="translate(385.63 460.26)">
     <path id="ea" d="M 0,0 C 0.015,0.004 0.053,0.003 0.046,0.013 0.047,0.003 -0.022,0.011 0,0" fill="#ffed00"/>
    </g>
    <g id="eb" transform="translate(385.68 460.25)">
     <path id="ec" d="m0 0c3e-3 2e-3 1e-3 6e-3 0.018 7e-3l-0.047-3e-3z" fill="#ffed00"/>
    </g>
    <g id="ed" transform="translate(385.72 460.18)">
     <path id="ee" d="m0 0c0.024 7e-3 0.04 0.012 0.078 0.011 0.014-0.024-0.063-7e-3 -0.08-0.029 0.07-3e-3 0.091 0.018 0.149 0.02-0.029 0.011-0.145 0.016-0.147-2e-3" fill="#ffed00"/>
    </g>
    <g id="ef" transform="translate(385.69 460.15)">
     <path id="eg" d="m0 0 0.039 5e-3 -4e-3 2e-3 -0.039-6e-3z" fill="#ffed00"/>
    </g>
    <g id="eh" transform="translate(384.85 460.36)">
     <path id="ei" d="m0 0c-3e-3 8e-3 -0.028 0-0.041-2e-3 0.011 0 0.026-2e-3 0.041 2e-3" fill="#ffed00"/>
    </g>
    <g id="ej" transform="translate(377.23 460.37)">
     <path id="ek" d="m0 0-0.296-7e-3c0.085 2e-3 0.164 3e-3 0.296 7e-3" fill="#ffed00"/>
    </g>
    <g id="el" transform="translate(383.87 460.31)">
     <path id="em" d="m0 0c0.079 7e-3 0.115 0.02 0.196 0.024-0.107 0.015-0.141-0.024-0.23-9e-3z" fill="#ffed00"/>
    </g>
    <g id="en" transform="translate(383.9 460.37)">
     <path id="eo" d="m0 0c0.013-0.014-0.061-0.017-0.05-0.027 0.054 3e-3 0.025 0.013 0.074 0.012z" fill="#ffed00"/>
    </g>
    <g id="ep" transform="translate(384.26 460.13)">
     <path id="eq" d="m0 0-0.024-7e-3 0.019 2e-3z" fill="#ffed00"/>
    </g>
    <g id="er" transform="translate(383.54 460.36)">
     <path id="es" d="m0 0 9e-3 3e-3 -0.04 5e-3z" fill="#ffed00"/>
    </g>
    <g id="et" transform="translate(383.55 460.36)">
     <path id="eu" d="m0 0-9e-3 -3e-3z" fill="#ffed00"/>
    </g>
    <g id="ev" transform="translate(384.23 460.1)">
     <path id="ew" d="m0 0 0.036-3e-3 0.018 6e-3z" fill="#ffed00"/>
    </g>
    <g id="ex" transform="translate(383.91 460.18)">
     <path id="ey" d="M 0,0 0.032,0.005 C 0.026,0.004 -0.018,0.01 0,0" fill="#ffed00"/>
    </g>
    <g id="ez" transform="translate(383.29 460.36)">
     <path id="fa" d="m0 0-0.039-5e-3 4e-3 -2e-3 0.039 6e-3z" fill="#ffed00"/>
    </g>
    <g id="fb" transform="translate(383.66 460.14)">
     <path id="fc" d="m0 0c0.022-0.011-0.064-3e-3 -0.018-0.013 0.04 2e-3 0.024 8e-3 0.018 0.013" fill="#ffed00"/>
    </g>
    <g id="fd" transform="translate(383.19 460.21)">
     <path id="fe" d="m0 0c-5e-3 0-0.011 0-0.016-2e-3 6e-3 1e-3 0.012 1e-3 0.016 2e-3" fill="#ffed00"/>
    </g>
    <g id="ff" transform="translate(383.19 460.21)">
     <path id="fg" d="M 0,0 C 0.017,0 0.034,-0.004 0.046,-0.001 0.024,0.004 0.017,0.002 0,0" fill="#ffed00"/>
    </g>
    <g id="fh" transform="translate(383 460.21)">
     <path id="fi" d="m0 0 0.015-1e-3c-0.015-5e-3 -8e-3 -4e-3 6e-3 0 0.016 0 0.015 4e-3 0.017 6e-3l0.01 4e-3 -0.013-4e-3c-0.025 1e-3 -0.041 0-0.035-5e-3" fill="#ffed00"/>
    </g>
    <g id="fj" transform="translate(382.27 460.4)">
     <path id="fk" d="m0 0c0.057-4e-3 0.072-6e-3 0.068-0.015 0.054-2e-3 0.046 0.012 0.079 0.016-0.061-2e-3 -0.074 2e-3 -0.147-1e-3" fill="#ffed00"/>
    </g>
    <g id="fl" transform="translate(382.42 460.4)">
     <path id="fm" d="m0 0 0.021 1e-3c-9e-3 0-0.015 0-0.021-1e-3" fill="#ffed00"/>
    </g>
    <g id="fn" transform="translate(383.22 460.12)">
     <path id="fo" d="m0 0-0.035-0.013 0.013 2e-3z" fill="#ffed00"/>
    </g>
    <g id="fp" transform="translate(382.19 460.4)">
     <path id="fq" d="M 0,0 C 0.011,-0.001 0.027,0 0.036,-0.003 0.039,0.005 -0.011,0 0,0" fill="#ffed00"/>
    </g>
    <g id="fr" transform="translate(382.41 460.23)">
     <path id="fs" d="m0 0c6e-3 -5e-3 0.042-2e-3 0.057-4e-3 -0.021 1e-3 -0.039 0.017-0.057 4e-3" fill="#ffed00"/>
    </g>
    <g id="ft" transform="translate(382.03 460.37)">
     <path id="fu" d="m0 0c0.011-1e-3 0.027-6e-3 0.02-0.013 0.015 4e-3 0.036 0.019-0.02 0.013" fill="#ffed00"/>
    </g>
    <g id="fv" transform="translate(382.3 460.23)">
     <path id="fw" d="m0 0 8e-3 -3e-3 0.039 6e-3z" fill="#ffed00"/>
    </g>
    <g id="fx" transform="translate(382.44 460.11)">
     <path id="fy" d="m0 0c0.044 0.01-0.069 0.025 6e-3 0.033-0.097 0.011 7e-3 -0.014-0.064-0.013 0.042-3e-3 0.062-0.016 0.058-0.02" fill="#ffed00"/>
    </g>
    <g id="fz" transform="translate(382.39 460.13)">
     <path id="ga" d="m0 0c-6e-3 1e-3 -0.013 1e-3 -0.02 1e-3z" fill="#ffed00"/>
    </g>
    <g id="gb" transform="translate(381.77 460.19)">
     <path id="gc" d="m0 0c6e-3 1e-3 0.011 2e-3 0.015 3e-3 -5e-3 0-0.01-1e-3 -0.015-3e-3" fill="#ffed00"/>
    </g>
    <g id="gd" transform="translate(382.16 460.12)">
     <path id="ge" d="m0 0 0.066 0.015c-0.044-0.01-0.154-9e-3 -0.148-0.024 0.036-4e-3 0.079 0 0.097 7e-3z" fill="#ffed00"/>
    </g>
    <g id="gf" transform="translate(381.4 460.4)">
     <path id="gg" d="m0 0 0.028 6e-3 -0.035 2e-3c0.01-2e-3 -8e-3 -0.014 7e-3 -8e-3" fill="#ffed00"/>
    </g>
    <g id="gh" transform="translate(381.39 460.4)">
     <path id="gi" d="m0 0h7e-3 -7e-3" fill="#ffed00"/>
    </g>
    <g id="gj" transform="translate(381.89 460.2)">
     <path id="gk" d="m0 0c0.021-1e-3 0.038-1e-3 0.057 2e-3 -8e-3 3e-3 -0.06 6e-3 -0.057-2e-3" fill="#ffed00"/>
    </g>
    <g id="gl" transform="translate(381.2 460.37)">
     <path id="gm" d="m0 0 0.047 3e-3 -0.051-2e-3z" fill="#ffed00"/>
    </g>
    <g id="gn" transform="translate(380.99 460.4)">
     <path id="go" d="m0 0-8e-3 3e-3 -0.039-6e-3 8e-3 -2e-3z" fill="#ffed00"/>
    </g>
    <g id="gp" transform="translate(381.27 460.1)">
     <path id="gq" d="m0 0c0.032-2e-3 0.056 0.012 0.048 0.015l-0.061-1e-3c0.015-0.012 0.017 1e-3 0.052-2e-3z" fill="#ffed00"/>
    </g>
    <g id="gr" transform="translate(379.37 460.38)">
     <path id="gs" d="m0 0c0.014 8e-3 0.081 3e-3 0.084-4e-3 -9e-3 -4e-3 -0.045-7e-3 -0.022-0.012l0.053 0.02c0.071-0.012-0.054-0.026-0.089-0.033 0.072-2e-3 0.094 0.011 0.17 0.011-0.022 1e-3 -0.036 6e-3 -0.048 0.011-3e-3 0.013 0.068 7e-3 0.119 8e-3 -0.032 6e-3 -0.013 0.011 0.01 0.017 5e-3 0 8e-3 1e-3 0.01 2e-3l8e-3 2e-3h-7e-3c1e-3 1e-3 0 3e-3 -5e-3 6e-3 -0.043-4e-3 -0.075 7e-3 -0.103 8e-3 0.027-0.023-0.094-6e-3 -0.129-0.013l-0.04-2e-3h-0.015c-3e-3 3e-3 2e-3 6e-3 0.024 0.01-0.019-4e-3 -0.082-3e-3 -0.076-0.01h-0.145c-5e-3 1e-3 -9e-3 2e-3 -0.013 3e-3 -5e-3 -1e-3 -6e-3 -2e-3 -5e-3 -3e-3l-0.632-2e-3c0.031-1e-3 0.058-7e-3 0.09-9e-3 -0.048-0.015 0.053-3e-3 0.039-0.017-0.022-5e-3 -0.054-3e-3 -0.073 0-7e-3 -7e-3 0.02-0.013 0.017-0.022 0.08-9e-3 0.092 0.025 0.17 0.02-3e-3 -8e-3 -0.027-0.016 0.024-0.015l-0.013-2e-3c0.082 0.01 0.064-0.019 0.115 4e-3l-1e-3 -0.012c0.037 9e-3 0.109 9e-3 0.149 0.011l-2e-3 -2e-3c0.114 0.014 0.064 3e-3 0.192 9e-3l-0.059-0.015c0.044-6e-3 0.054 0.01 0.086 8e-3 -2e-3 -2e-3 5e-3 -0.011-0.025-0.013l0.155 0.022c0.037 9e-3 -7e-3 9e-3 -0.013 0.014" fill="#ffed00"/>
    </g>
    <g id="gt" transform="translate(379.56 460.36)">
     <path id="gu" d="m0 0c8e-3 -1e-3 0.018-1e-3 0.029 0h-0.029" fill="#ffed00"/>
    </g>
    <g id="gv" transform="translate(378.47 460.4)">
     <path id="gw" d="m0 0h0.044c-0.013 1e-3 -0.028 1e-3 -0.044 0" fill="#ffed00"/>
    </g>
    <g id="gx" transform="translate(379.79 460.39)">
     <path id="gy" d="m0 0c-0.027 6e-3 0.02 9e-3 0.025 0.014l-0.097-1e-3c1e-3 -4e-3 -9e-3 -0.01-7e-3 -0.014z" fill="#ffed00"/>
    </g>
    <g id="gz" transform="translate(379.69 460.41)">
     <path id="ha" d="m0 0c-3e-3 -3e-3 -0.013-6e-3 -0.025-9e-3h0.053c0 4e-3 -6e-3 7e-3 -0.028 9e-3" fill="#ffed00"/>
    </g>
    <g id="hb" transform="translate(379.7 460.16)">
     <path id="hc" d="m0 0h-0.017l-0.026-4e-3z" fill="#ffed00"/>
    </g>
    <g id="hd" transform="translate(379.43 460.18)">
     <path id="he" d="m0 0c0.02-7e-3 0.059-2e-3 0.072 0-0.045 0-0.025 3e-3 -0.072 0" fill="#ffed00"/>
    </g>
    <g id="hf" transform="translate(379.48 460.1)">
     <path id="hg" d="m0 0-0.043-4e-3 4e-3 -1e-3z" fill="#ffed00"/>
    </g>
    <g id="hh" transform="translate(378.14 460.35)">
     <path id="hi" d="m0 0-0.021-1e-3c0.01 0 0.016 1e-3 0.021 1e-3" fill="#ffed00"/>
    </g>
    <g id="hj" transform="translate(378.51 460.36)">
     <path id="hk" d="m0 0c-0.103 0.014 0.067 0.011 0.035 0.029l-0.056-6e-3 5e-3 5e-3 -0.068-1e-3c0.014-9e-3 0.024-9e-3 0.021-0.018-0.091 4e-3 -0.028 0.01-0.095 0.021l-0.101-1e-3 8e-3 2e-3c-9e-3 0-0.013-1e-3 -0.016-2e-3l-0.342-6e-3c-0.062-6e-3 0.035-0.015-0.011-0.028 0.072 0 0.179-9e-3 0.185 8e-3 -2e-3 -2e-3 -7e-3 -7e-3 8e-3 -9e-3l0.042 0.014-0.04 5e-3c0.042 0.014 0.177 0.011 0.202 2e-3 -0.077-5e-3 -0.039-0.022-0.146-0.012 5e-3 -5e-3 0.024-0.012 0-0.015 0.126 5e-3 0.239-3e-3 0.369 0.012" fill="#ffed00"/>
    </g>
    <g id="hl" transform="translate(377.25 460.35)">
     <path id="hm" d="M 0,0 0.001,0.002 C -0.001,0.001 -0.002,0 0,0" fill="#ffed00"/>
    </g>
    <g id="hn" transform="translate(377.29 460.35)">
     <path id="ho" d="m0 0 0.061 0.017-0.095-2e-3 -7e-3 -0.011c8e-3 3e-3 0.042 9e-3 0.055 4e-3z" fill="#ffed00"/>
    </g>
    <g id="hp" transform="translate(377.43 460.38)">
     <path id="hq" d="m0 0c-0.049-5e-3 -0.047-0.019-0.02-0.025-0.045-6e-3 -0.024 0.015-0.055 0 1e-3 -0.01 0.057-4e-3 0.07-2e-3z" fill="#ffed00"/>
    </g>
    <g id="hr" transform="translate(377.79 460.37)">
     <path id="hs" d="m0 0-0.014-6e-3 0.034-1e-3z" fill="#ffed00"/>
    </g>
    <g id="ht" transform="translate(377.78 460.36)">
     <path id="hu" d="m0 0-0.034 2e-3c2e-3 -5e-3 5e-3 -9e-3 0.01-0.012z" fill="#ffed00"/>
    </g>
    <g id="hv" transform="translate(377.65 460.37)">
     <path id="hw" d="m0 0c-0.014 1e-3 -0.03 2e-3 -0.05 2e-3z" fill="#ffed00"/>
    </g>
    <g id="hx" transform="translate(377.69 460.37)">
     <path id="hy" d="m0 0-1e-3 2e-3 -0.038 2e-3z" fill="#ffed00"/>
    </g>
    <g id="hz" transform="translate(377.74 460.37)">
     <path id="ia" d="m0 0c-6e-3 0.01-0.012 0.02-0.061 0.017l0.01-0.015z" fill="#ffed00"/>
    </g>
    <g id="ib" transform="translate(379.17 460.11)">
     <path id="ic" d="m0 0-0.039-5e-3 4e-3 -2e-3 0.039 6e-3z" fill="#ffed00"/>
    </g>
    <g id="id" transform="translate(378.95 460.12)">
     <path id="ie" d="m0 0c-0.01-2e-3 -0.017-3e-3 -0.023-5e-3 0.01 1e-3 0.018 2e-3 0.023 5e-3" fill="#ffed00"/>
    </g>
    <g id="if" transform="translate(378.78 460.06)">
     <path id="ig" d="m0 0c-0.046 0.01 0.063 0.013-0.022 0.017-7e-3 9e-3 0.033 0.021 0.072 0.016-3e-3 -8e-3 -0.038-5e-3 -0.014-0.014 0.027 0.01 0.037 3e-3 0.027 0.016 0.045 8e-3 0.05 0.017 0.08 0.026-0.054-6e-3 -0.167 7e-3 -0.235-9e-3 -0.038-0.016-0.015-0.037-0.015-0.059 6e-3 -5e-3 0.103-8e-3 0.107 7e-3" fill="#ffed00"/>
    </g>
    <g id="ih" transform="translate(378.85 460.03)">
     <path id="ii" d="M 0,0 C 0.021,-0.001 0.028,0 0.041,0.002 0.037,0.009 0.017,0 0,0" fill="#ffed00"/>
    </g>
    <g id="ij" transform="translate(378.37 460.2)">
     <path id="ik" d="m0 0c-4e-3 -3e-3 -0.042-7e-3 -0.034-0.013l0.058 4e-3c-0.014 1e-3 -0.019 5e-3 -0.024 9e-3" fill="#ffed00"/>
    </g>
    <g id="il" transform="translate(378.42 460.2)">
     <path id="im" d="m0 0-0.025-2e-3c6e-3 0 0.014 0 0.025 2e-3" fill="#ffed00"/>
    </g>
    <g id="in" transform="translate(378.37 460.2)">
     <path id="io" d="m0 0 3e-3 -2e-3c1e-3 1e-3 0 1e-3 -3e-3 2e-3" fill="#ffed00"/>
    </g>
    <g id="ip" transform="translate(377.51 460.37)">
     <path id="iq" d="m0 0c1e-3 6e-3 -0.025 2e-3 -0.038 1e-3 0.011-1e-3 0.025-3e-3 0.038-1e-3" fill="#ffed00"/>
    </g>
    <g id="ir" transform="translate(376.54 460.35)">
     <path id="is" d="M 0,0 -0.023,0.005 C -0.015,0.002 -0.011,0 0,0" fill="#ffed00"/>
    </g>
    <g id="it" transform="translate(376.19 460.18)">
     <path id="iu" d="m0 0c-1e-3 -1e-3 -2e-3 -2e-3 -5e-3 -3e-3 3e-3 1e-3 4e-3 2e-3 5e-3 3e-3" fill="#ffed00"/>
    </g>
    <g id="iv" transform="translate(376.18 460.18)">
     <path id="iw" d="m0 0c-0.016-5e-3 -0.064 3e-3 -0.081-5e-3l2e-3 2e-3 -0.032-4e-3c0.03 1e-3 0.094 0 0.111 7e-3" fill="#ffed00"/>
    </g>
   </g>
  </g>
 </g>
</svg>
