<svg height="83.083763pt" viewBox="0 0 272.26126 83.083763" width="272.26126pt" xmlns="http://www.w3.org/2000/svg"><path d="m130.92 109.17 18.47-.06c-1.89 10.07-4.95 19.88-7.26 29.85-3.59 14.2-7.15 28.41-10.76 42.6-1.34 3.46-2.32 8.23-6.47 9.3-5.51 1.55-11.33 1.08-16.99 1.03-3.38-.27-7.43-.25-9.9-2.95-2.52-3.51-3.44-7.84-4.57-11.93l-12.89-50.83975h-23.27025v65.2395h-19.41975v-65.2395h-22.04025c-.804083 0-.75.003-.75-.75v-15.50025c0-.80409-.0028-.75.75-.75h79.19025c5.6 21.88 10.9 43.84 16.51 65.73.25 1.78 2.45 2.23 2.72.07z" fill="#fff" transform="translate(-15.06899 -108.9117)"/><g fill="#4481c1"><path d="m157.53101 4.7082989c6.11-3.68 13.44-4.12000002 20.37-4.69000002 8.8118-.17822 17.6334.95714 26.22216 2.89167002.25596.0686.27792.0649.22776.40266l-1.87699 13.1833901c-.1433.53482-.14207.51203-.72697.51203h-27.71596c-2.78.1-6.02 1.22025-6.99 4.10025-1.45 2.93-.7 6.87 2.3 8.5 3.25 1.51 6.72 2.5 9.97 4.03 6.69 2.83 14.64 4.62 18.93 11.04 3.46 6.39 1.68 14 .08 20.67-2.1 8.13-9.44 13.92-17.41 15.76-13.85 3.19-28.21 1.43-42.06-.77-1.11484-.26124-1.70587-.56516-1.47-1.75.7-3.95 1.05-7.99 2.16-11.86.21017-.78436.78329-.83 2.27329-.83h30.17671c2.61.02 5.54-.58 7.08-2.91.58397-1.47817.88486-3.05624 1.27493-4.59748.33551-2.7735-1.60521-3.4248-3.91493-4.57252-7.05-3.1-14.39-5.5-21.44-8.62-3.39-1.45-6.29-4.2-7.52-7.73-1.89-5.41-.89-11.23-.11-16.75.93-6.41 4.31-12.8600001 10.17-16.0100001z"/><path d="m215.47126.40829888h56.79l-2.55 16.44975012h-56.79z"/><path d="m210.11101 32.910479h56.79l-1.82025 16.10025h-56.79z"/><path d="m205.22101 64.858049h56.79l-2.15025 16.86h-56.79z"/></g></svg>