<svg id="a" width="5.4914mm" height="1.4847mm" version="1.1" viewBox="0 0 5.4914 1.4847" xmlns="http://www.w3.org/2000/svg">
 <g id="b" transform="translate(19.306 -146.03)">
  <g id="c" transform="matrix(.35278 0 0 -.35278 -17.95 146.72)">
   <path id="d" d="m0 0-1.782 0.061 0.252 0.796 0.211-0.599h1.72v-0.224l-0.972-0.735 0.251-0.809s0.123-0.231-0.115-0.333l-0.395 1.203z" fill="#52a948"/>
  </g>
  <g id="e" transform="matrix(.35278 0 0 -.35278 -18.474 146.19)">
   <path id="f" d="m0 0-0.602-1.678-0.681 0.482 0.635 0.018 0.524 1.639 0.214-0.069 0.403-1.15 0.848-7e-3s0.257 0.046 0.282-0.212l-1.267-8e-3z" fill="#fcc318"/>
  </g>
  <g id="g" transform="matrix(.35278 0 0 -.35278 -19.03 147.26)">
   <path id="h" d="m0 0 1.495 0.972 0.25-0.796-0.516 0.369-1.409-0.987-0.129 0.184 0.375 1.159-0.67 0.519s-0.233 0.12-0.097 0.339l1.014-0.759z" fill="#52a948"/>
  </g>
  <g id="i" transform="matrix(.35278 0 0 -.35278 -18.291 147.38)">
   <path id="j" d="m0 0-0.47 1.72 0.835-4e-3 -0.51-0.379 0.511-1.644-0.215-0.066-0.989 0.711-0.699-0.48s-0.185-0.186-0.352 0.011l1.032 0.734z" fill="#fcc318"/>
  </g>
  <g id="k" transform="matrix(.35278 0 0 -.35278 -19.138 146.52)">
   <path id="l" d="m0 0 1.41-1.091-0.669-0.499 0.179 0.609-1.397 1.006 0.131 0.182 1.219 0.028 0.269 0.804s0.035 0.259 0.288 0.203l-0.383-1.208z"/>
  </g>
  <g id="m" transform="matrix(.35278 0 0 -.35278 -17.69 147.25)">
   <path id="n" d="m0 0c0.059-0.016 0.125-0.024 0.2-0.024 0.127 0 0.231 0.033 0.312 0.099 0.081 0.067 0.121 0.151 0.121 0.255 0 0.144-0.105 0.275-0.315 0.394l-0.089 0.051c-0.068 0.037-0.115 0.069-0.142 0.096-0.027 0.026-0.041 0.054-0.041 0.083 0 0.034 0.015 0.061 0.045 0.082s0.069 0.031 0.117 0.031c0.094 0 0.216-0.045 0.364-0.135v0.247c-0.13 0.07-0.257 0.104-0.38 0.104-0.119 0-0.216-0.03-0.291-0.091-0.076-0.062-0.113-0.141-0.113-0.238 0-0.074 0.024-0.144 0.074-0.207 0.05-0.064 0.155-0.14 0.316-0.23 0.08-0.045 0.133-0.08 0.157-0.105 0.024-0.024 0.036-0.054 0.036-0.091 0-0.035-0.018-0.066-0.056-0.091-0.037-0.026-0.082-0.039-0.134-0.039-0.05 0-0.112 0.015-0.186 0.046-0.073 0.031-0.145 0.071-0.216 0.12v-0.269c0.089-0.043 0.162-0.072 0.221-0.088m1.995 0.638c0 0.196-0.049 0.353-0.149 0.47s-0.233 0.175-0.4 0.175c-0.174 0-0.315-0.06-0.424-0.18s-0.163-0.276-0.163-0.468c0-0.128 0.026-0.24 0.078-0.338 0.051-0.097 0.12-0.174 0.206-0.232 0.086-0.057 0.198-0.086 0.337-0.086 0.101 0 0.19 0.011 0.265 0.033s0.151 0.058 0.228 0.109v0.244c-0.139-0.102-0.29-0.153-0.455-0.153-0.117 0-0.214 0.036-0.288 0.107-0.075 0.071-0.115 0.167-0.121 0.287h0.886zm-0.769 0.348c0.057 0.054 0.13 0.081 0.22 0.081 0.089 0 0.16-0.027 0.213-0.081 0.054-0.054 0.083-0.131 0.09-0.23h-0.635c0.017 0.099 0.055 0.176 0.112 0.23m1.442-0.503-0.341 0.776h-0.273l0.57-1.283h0.085l0.557 1.283h-0.271zm1.802 0.155c0 0.196-0.05 0.353-0.149 0.47-0.1 0.117-0.233 0.175-0.4 0.175-0.174 0-0.315-0.06-0.424-0.18-0.108-0.12-0.163-0.276-0.163-0.468 0-0.128 0.026-0.24 0.078-0.338 0.051-0.097 0.12-0.174 0.206-0.232 0.086-0.057 0.198-0.086 0.337-0.086 0.101 0 0.19 0.011 0.265 0.033s0.152 0.058 0.228 0.109v0.244c-0.139-0.102-0.29-0.153-0.455-0.153-0.118 0-0.214 0.036-0.288 0.107-0.075 0.071-0.115 0.167-0.121 0.287h0.886zm-0.769 0.348c0.057 0.054 0.13 0.081 0.22 0.081 0.089 0 0.161-0.027 0.213-0.081 0.053-0.054 0.083-0.131 0.09-0.23h-0.635c0.017 0.099 0.055 0.176 0.112 0.23m1.056 0.273v-1.261h0.25v0.659c0 0.105 0.03 0.196 0.089 0.273s0.128 0.115 0.209 0.115c0.074 0 0.154-0.041 0.241-0.123l0.132 0.219c-0.103 0.095-0.201 0.142-0.295 0.142-0.121 0-0.241-0.097-0.362-0.292l-0.014-0.021v0.289zm1.355-0.618 0.631-0.643h0.335l-0.648 0.644 0.538 0.617h-0.296zm-0.26-0.643h0.249v1.914h-0.249zm2.127 0.974c-6e-3 0.037-0.02 0.075-0.042 0.113s-0.046 0.069-0.074 0.092c-0.082 0.071-0.191 0.106-0.327 0.106-0.182 0-0.321-0.057-0.418-0.171v-0.273c0.129 0.141 0.261 0.212 0.397 0.212 0.152 0 0.228-0.077 0.228-0.228v-0.067l-0.32-0.11c-0.105-0.037-0.186-0.086-0.243-0.149-0.057-0.062-0.086-0.133-0.086-0.213 0-0.087 0.03-0.16 0.088-0.218 0.059-0.058 0.132-0.087 0.22-0.087 0.119 0 0.232 0.041 0.338 0.123 0.019-0.084 0.082-0.126 0.189-0.126 0.038 0 0.073 7e-3 0.108 0.02 0.034 0.013 0.079 0.038 0.136 0.075v0.152c-0.064-0.045-0.111-0.068-0.141-0.068-0.029 0-0.044 0.022-0.044 0.065v0.536c0 0.106-3e-3 0.178-9e-3 0.216m-0.457-0.822c-0.053 0-0.096 0.016-0.129 0.049-0.034 0.033-0.05 0.076-0.05 0.128 0 0.051 0.017 0.094 0.052 0.128 0.036 0.034 0.096 0.068 0.18 0.102l0.168 0.064v-0.373c-0.068-0.066-0.141-0.098-0.221-0.098m0.883 0.105c-0.032-0.031-0.048-0.071-0.048-0.117s0.016-0.084 0.048-0.115c0.031-0.031 0.071-0.047 0.118-0.047s0.087 0.016 0.119 0.047c0.033 0.031 0.049 0.069 0.049 0.115s-0.017 0.086-0.049 0.117c-0.033 0.033-0.073 0.049-0.119 0.049-0.047 0-0.087-0.016-0.118-0.049m0.427 0.779h0.22v-0.559c0-0.114 5e-3 -0.192 0.015-0.232 0.011-0.041 0.024-0.074 0.039-0.099 0.016-0.025 0.036-0.048 0.059-0.068 0.076-0.067 0.171-0.1 0.285-0.1 0.113 0 0.218 0.027 0.314 0.081v0.233c-0.099-0.06-0.194-0.089-0.283-0.089-0.12 0-0.18 0.072-0.18 0.216v0.617h0.399v0.225h-0.399v0.26l-0.469-0.46zm1.556-0.551-0.34 0.776h-0.273l0.57-1.283h0.084l0.557 1.283h-0.27z"/>
  </g>
 </g>
</svg>
