<svg width="445.33pt" height="144.28pt" version="1.1" viewBox="0 0 445.33 144.28" xmlns="http://www.w3.org/2000/svg">
 <path d="m292.81 7.8352v136.45h152.51v-136.45z" fill="#383431"/>
 <g transform="translate(-1.5332 -151.36)">
  <path d="m296.61 161.36 148-0.01-0.0199 132.13-147.99-0.07z" fill="#fff"/>
 </g>
 <path d="m0 8.0908h146.41l-1.5e-4 136.19h-146.4z" fill="#dd423d"/>
 <path d="m146.41 8.0908h146.41l1e-4 136.19-146.41-1.1e-4z" fill="#01923f"/>
 <path d="m22.154 8.0908h98.5v31.221h-31.495v104.97h-35.55v-104.97h-31.455z" fill="#fff" style="paint-order:markers stroke fill"/>
 <path d="m201.86 144.28h34.72l33.37-136.19h-34.7l-15.05 74.086-17.84-74.086h-35z" fill="#fff" style="paint-order:markers stroke fill"/>
 <g transform="matrix(4.1131 0 0 4.8024 -3467.9 -2211.6)" fill="#383431" aria-label="S">
  <path d="m923.24 480.43 3.5742-0.3125q0.25391 2.1484 1.1719 3.5352 0.9375 1.3672 2.8906 2.2266 1.9531 0.83984 4.3945 0.83984 2.168 0 3.8281-0.64453t2.4609-1.7578q0.82031-1.1328 0.82031-2.4609 0-1.3477-0.78125-2.3438-0.78125-1.0156-2.5781-1.6992-1.1523-0.44922-5.0976-1.3867-3.9453-0.95703-5.5274-1.7969-2.0508-1.0742-3.0664-2.6562-0.9961-1.6016-0.9961-3.5742 0-2.168 1.2305-4.043 1.2305-1.8945 3.5938-2.8711 2.3633-0.97657 5.2539-0.97657 3.1836 0 5.6055 1.0352 2.4414 1.0156 3.75 3.0078t1.4062 4.5117l-3.6328 0.27344q-0.29297-2.7148-1.9922-4.1016-1.6797-1.3867-4.9805-1.3867-3.4375 0-5.0195 1.2695-1.5625 1.25-1.5625 3.0273 0 1.543 1.1133 2.5391 1.0938 0.99609 5.7031 2.0508 4.6289 1.0352 6.3477 1.8164 2.5 1.1524 3.6914 2.9297 1.1914 1.7578 1.1914 4.0625 0 2.2852-1.3086 4.3164-1.3086 2.0117-3.7695 3.1445-2.4414 1.1133-5.5078 1.1133-3.8867 0-6.5234-1.1328-2.6172-1.1328-4.1211-3.3984-1.4844-2.2852-1.5625-5.1562z" fill="#383431"/>
 </g>
</svg>
