<?xml version="1.0" encoding="UTF-8" standalone="no"?>
<svg
   xmlns:dc="http://purl.org/dc/elements/1.1/"
   xmlns:cc="http://creativecommons.org/ns#"
   xmlns:rdf="http://www.w3.org/1999/02/22-rdf-syntax-ns#"
   xmlns:svg="http://www.w3.org/2000/svg"
   xmlns="http://www.w3.org/2000/svg"
   xmlns:sodipodi="http://sodipodi.sourceforge.net/DTD/sodipodi-0.dtd"
   xmlns:inkscape="http://www.inkscape.org/namespaces/inkscape"
   width="272.26126pt"
   height="83.083763pt"
   viewBox="0 0 272.26126 83.083763"
   version="1.1"
   id="svg17"
   sodipodi:docname="TV SudEst - Dark.svg"
   inkscape:version="0.92.0 r15299">
  <metadata
     id="metadata23">
    <rdf:RDF>
      <cc:Work
         rdf:about="">
        <dc:format>image/svg+xml</dc:format>
        <dc:type
           rdf:resource="http://purl.org/dc/dcmitype/StillImage" />
        <dc:title></dc:title>
      </cc:Work>
    </rdf:RDF>
  </metadata>
  <defs
     id="defs21" />
  <sodipodi:namedview
     pagecolor="#ffffff"
     bordercolor="#666666"
     borderopacity="1"
     objecttolerance="10"
     gridtolerance="10"
     guidetolerance="10"
     inkscape:pageopacity="0"
     inkscape:pageshadow="2"
     inkscape:window-width="1920"
     inkscape:window-height="1017"
     id="namedview19"
     showgrid="false"
     fit-margin-top="0"
     fit-margin-left="0"
     fit-margin-right="0"
     fit-margin-bottom="0"
     inkscape:zoom="1"
     inkscape:cx="163.20936"
     inkscape:cy="206.60632"
     inkscape:window-x="-8"
     inkscape:window-y="-8"
     inkscape:window-maximized="1"
     inkscape:current-layer="svg17" />
  <g
     id="#ffffffff"
     transform="translate(-15.06899,-108.9117)" />
  <g
     id="#2a3086ff"
     transform="translate(-15.06899,-108.9117)">
    <path
       d="m 130.92,109.17 18.47,-0.06 c -1.89,10.07 -4.95,19.88 -7.26,29.85 -3.59,14.2 -7.15,28.41 -10.76,42.6 -1.34,3.46 -2.32,8.23 -6.47,9.3 -5.51,1.55 -11.33,1.08 -16.99,1.03 -3.38,-0.27 -7.43,-0.25 -9.9,-2.95 -2.52,-3.51 -3.44,-7.84 -4.57,-11.93 L 80.55,126.17025 H 57.27975 v 65.2395 H 37.86 v -65.2395 H 15.81975 c -0.804083,0 -0.75,0.003 -0.75,-0.75 V 109.92 c 0,-0.80409 -0.0028,-0.75 0.75,-0.75 H 95.01 c 5.6,21.88 10.9,43.84 16.51,65.73 0.25,1.78 2.45,2.23 2.72,0.07 z"
       id="path5"
       inkscape:connector-curvature="0"
       style="opacity:1;fill:#2a3086"
       sodipodi:nodetypes="cccccccccccccsssscccc" />
  </g>
  <path
     style="opacity:1;fill:#4481c1"
     inkscape:connector-curvature="0"
     id="path8"
     d="m 157.53101,4.7082989 c 6.11,-3.68 13.44,-4.12000002 20.37,-4.69000002 8.8118,-0.17822 17.6334,0.95714 26.22216,2.89167002 0.25596,0.0686 0.27792,0.0649 0.22776,0.40266 l -1.87699,13.1833901 c -0.1433,0.53482 -0.14207,0.51203 -0.72697,0.51203 h -27.71596 c -2.78,0.1 -6.02,1.22025 -6.99,4.10025 -1.45,2.93 -0.7,6.87 2.3,8.5 3.25,1.51 6.72,2.5 9.97,4.03 6.69,2.83 14.64,4.62 18.93,11.04 3.46,6.39 1.68,14 0.08,20.67 -2.1,8.13 -9.44,13.92 -17.41,15.76 -13.85,3.19 -28.21,1.43 -42.06,-0.77 -1.11484,-0.26124 -1.70587,-0.56516 -1.47,-1.75 0.7,-3.95 1.05,-7.99 2.16,-11.86 0.21017,-0.78436 0.78329,-0.83 2.27329,-0.83 h 30.17671 c 2.61,0.02 5.54,-0.58 7.08,-2.91 0.58397,-1.47817 0.88486,-3.05624 1.27493,-4.59748 0.33551,-2.7735 -1.60521,-3.4248 -3.91493,-4.57252 -7.05,-3.1 -14.39,-5.5 -21.44,-8.62 -3.39,-1.45 -6.29,-4.2 -7.52,-7.73 -1.89,-5.41 -0.89,-11.23 -0.11,-16.75 0.93,-6.41 4.31,-12.8600001 10.17,-16.0100001 z"
     sodipodi:nodetypes="ccccccccccccccccccccccccc" />
  <path
     sodipodi:nodetypes="ccccc"
     style="opacity:1;fill:#4481c1"
     inkscape:connector-curvature="0"
     id="path10"
     d="m 215.47126,0.40829888 h 56.79 l -2.55,16.44975012 h -56.79 z" />
  <path
     sodipodi:nodetypes="ccccc"
     style="opacity:1;fill:#4481c1"
     inkscape:connector-curvature="0"
     id="path12"
     d="m 210.11101,32.910479 h 56.79 l -1.82025,16.10025 h -56.79 z" />
  <path
     sodipodi:nodetypes="ccccc"
     style="opacity:1;fill:#4481c1"
     inkscape:connector-curvature="0"
     id="path14"
     d="m 205.22101,64.858049 h 56.79 l -2.15025,16.86 h -56.79 z" />
</svg>
