<svg height="1.484707mm" viewBox="0 0 5.4914446 1.4847066" width="5.491445mm" xmlns="http://www.w3.org/2000/svg"><path d="m0 0-1.782.061.252.796.211-.599h1.72v-.224l-.972-.735.251-.809s.123-.231-.115-.333l-.395 1.203z" fill="#52a948" transform="matrix(.35277777 0 0 -.35277777 1.355795 .69353)"/><path d="m0 0-.602-1.678-.681.482.635.018.524 1.639.214-.069.403-1.15.848-.007s.257.046.282-.212l-1.267-.008z" fill="#fcc318" transform="matrix(.35277777 0 0 -.35277777 .831532 .16263)"/><path d="m0 0 1.495.972.25-.796-.516.369-1.409-.987-.129.184.375 1.159-.67.519s-.233.12-.097.339l1.014-.759z" fill="#52a948" transform="matrix(.35277777 0 0 -.35277777 .275837 1.22968)"/><path d="m0 0-.47 1.72.835-.004-.51-.379.511-1.644-.215-.066-.989.711-.699-.48s-.185-.186-.352.011l1.032.734z" fill="#fcc318" transform="matrix(.35277777 0 0 -.35277777 1.014589 1.35312)"/><path d="m0 0 1.41-1.091-.669-.499.179.609-1.397 1.006.131.182 1.219.028.269.804s.035.259.288.203l-.383-1.208z" transform="matrix(.35277777 0 0 -.35277777 .168275 .49368)"/><path d="m0 0c .059-.016.125-.024.2-.024.127 0 .231.033.312.099.081.067.121.151.121.255 0 .144-.105.275-.315.394l-.089.051c-.068.037-.115.069-.142.096-.027.026-.041.054-.041.083 0 .034.015.061.045.082s.069.031.117.031c.094 0 .216-.045.364-.135v.247c-.13.07-.257.104-.38.104-.119 0-.216-.03-.291-.091-.076-.062-.113-.141-.113-.238 0-.074.024-.144.074-.207.05-.064.155-.14.316-.23.08-.045.133-.08.157-.105.024-.024.036-.054.036-.091 0-.035-.018-.066-.056-.091-.037-.026-.082-.039-.134-.039-.05 0-.112.015-.186.046-.073.031-.145.071-.216.12v-.269c.089-.043.162-.072.221-.088m1.995.638c0 .196-.049.353-.149.47s-.233.175-.4.175c-.174 0-.315-.06-.424-.18s-.163-.276-.163-.468c0-.128.026-.24.078-.338.051-.097.12-.174.206-.232.086-.057.198-.086.337-.086.101 0 .19.011.265.033s.151.058.228.109v.244c-.139-.102-.29-.153-.455-.153-.117 0-.214.036-.288.107-.075.071-.115.167-.121.287h.886zm-.769.348c.057.054.13.081.22.081.089 0 .16-.027.213-.081.054-.054.083-.131.09-.23h-.635c.017.099.055.176.112.23m1.442-.503-.341.776h-.273l.57-1.283h.085l.557 1.283h-.271zm1.802.155c0 .196-.05.353-.149.47-.1.117-.233.175-.4.175-.174 0-.315-.06-.424-.18-.108-.12-.163-.276-.163-.468 0-.128.026-.24.078-.338.051-.097.12-.174.206-.232.086-.057.198-.086.337-.086.101 0 .19.011.265.033s.152.058.228.109v.244c-.139-.102-.29-.153-.455-.153-.118 0-.214.036-.288.107-.075.071-.115.167-.121.287h.886zm-.769.348c.057.054.13.081.22.081.089 0 .161-.027.213-.081.053-.054.083-.131.09-.23h-.635c.017.099.055.176.112.23m1.056.273v-1.261h.25v.659c0 .105.03.196.089.273s.128.115.209.115c.074 0 .154-.041.241-.123l.132.219c-.103.095-.201.142-.295.142-.121 0-.241-.097-.362-.292l-.014-.021v.289zm1.355-.618.631-.643h.335l-.648.644.538.617h-.296zm-.26-.643h.249v1.914h-.249zm2.127.974c-.006.037-.02.075-.042.113s-.046.069-.074.092c-.082.071-.191.106-.327.106-.182 0-.321-.057-.418-.171v-.273c.129.141.261.212.397.212.152 0 .228-.077.228-.228v-.067l-.32-.11c-.105-.037-.186-.086-.243-.149-.057-.062-.086-.133-.086-.213 0-.087.03-.16.088-.218.059-.058.132-.087.22-.087.119 0 .232.041.338.123.019-.084.082-.126.189-.126.038 0 .073.007.108.02.034.013.079.038.136.075v.152c-.064-.045-.111-.068-.141-.068-.029 0-.044.022-.044.065v.536c0 .106-.003.178-.009.216m-.457-.822c-.053 0-.096.016-.129.049-.034.033-.05.076-.05.128 0 .051.017.094.052.128.036.034.096.068.18.102l.168.064v-.373c-.068-.066-.141-.098-.221-.098m.883.105c-.032-.031-.048-.071-.048-.117s.016-.084.048-.115c.031-.031.071-.047.118-.047s.087.016.119.047c.033.031.049.069.049.115s-.017.086-.049.117c-.033.033-.073.049-.119.049-.047 0-.087-.016-.118-.049m.427.779h.22v-.559c0-.114.005-.192.015-.232.011-.041.024-.074.039-.099.016-.025.036-.048.059-.068.076-.067.171-.1.285-.1.113 0 .218.027.314.081v.233c-.099-.06-.194-.089-.283-.089-.12 0-.18.072-.18.216v.617h.399v.225h-.399v.26l-.469-.46zm1.556-.551-.34.776h-.273l.57-1.283h.084l.557 1.283h-.27z" transform="matrix(.35277777 0 0 -.35277777 1.615828 1.21765)"/></svg>