<?xml version="1.0" encoding="UTF-8" standalone="no"?>
<svg
   xmlns:dc="http://purl.org/dc/elements/1.1/"
   xmlns:cc="http://creativecommons.org/ns#"
   xmlns:rdf="http://www.w3.org/1999/02/22-rdf-syntax-ns#"
   xmlns:svg="http://www.w3.org/2000/svg"
   xmlns="http://www.w3.org/2000/svg"
   xmlns:xlink="http://www.w3.org/1999/xlink"
   xmlns:sodipodi="http://sodipodi.sourceforge.net/DTD/sodipodi-0.dtd"
   xmlns:inkscape="http://www.inkscape.org/namespaces/inkscape"
   width="386.34286pt"
   height="322.49026pt"
   viewBox="0 0 386.34286 322.49026"
   version="1.1"
   id="svg29"
   sodipodi:docname="TV Slovacko.svg"
   inkscape:version="0.92.0 r15299">
  <metadata
     id="metadata35">
    <rdf:RDF>
      <cc:Work
         rdf:about="">
        <dc:format>image/svg+xml</dc:format>
        <dc:type
           rdf:resource="http://purl.org/dc/dcmitype/StillImage" />
        <dc:title></dc:title>
      </cc:Work>
    </rdf:RDF>
  </metadata>
  <defs
     id="defs33">
    <linearGradient
       inkscape:collect="always"
       id="linearGradient4524">
      <stop
         style="stop-color:#fecc00;stop-opacity:1"
         offset="0"
         id="stop4520" />
      <stop
         style="stop-color:#ffde00;stop-opacity:1"
         offset="1"
         id="stop4522" />
    </linearGradient>
    <linearGradient
       inkscape:collect="always"
       id="linearGradient4516">
      <stop
         style="stop-color:#ce1619;stop-opacity:1"
         offset="0"
         id="stop4512" />
      <stop
         style="stop-color:#e72f3f;stop-opacity:1"
         offset="1"
         id="stop4514" />
    </linearGradient>
    <linearGradient
       inkscape:collect="always"
       xlink:href="#linearGradient4516"
       id="linearGradient4518"
       x1="343.98242"
       y1="313.90033"
       x2="343.98242"
       y2="83.798698"
       gradientUnits="userSpaceOnUse"
       gradientTransform="translate(-220.29298,-83.739756)" />
    <linearGradient
       inkscape:collect="always"
       xlink:href="#linearGradient4524"
       id="linearGradient4526"
       x1="566.48389"
       y1="313.83273"
       x2="566.48389"
       y2="83.731102"
       gradientUnits="userSpaceOnUse" />
    <linearGradient
       inkscape:collect="always"
       xlink:href="#linearGradient4524"
       id="linearGradient4531"
       gradientUnits="userSpaceOnUse"
       x1="566.48389"
       y1="313.83273"
       x2="566.48389"
       y2="83.731102" />
  </defs>
  <sodipodi:namedview
     pagecolor="#ffffff"
     bordercolor="#666666"
     borderopacity="1"
     objecttolerance="10"
     gridtolerance="10"
     guidetolerance="10"
     inkscape:pageopacity="0"
     inkscape:pageshadow="2"
     inkscape:window-width="1920"
     inkscape:window-height="1017"
     id="namedview31"
     showgrid="false"
     fit-margin-top="0"
     fit-margin-left="0"
     fit-margin-right="0"
     fit-margin-bottom="0"
     inkscape:zoom="0.70710678"
     inkscape:cx="347.98101"
     inkscape:cy="331.63866"
     inkscape:window-x="-8"
     inkscape:window-y="-8"
     inkscape:window-maximized="1"
     inkscape:current-layer="svg29" />
  <path
     style="opacity:1;fill:#ffffff;fill-opacity:1;stroke-width:0.75000006"
     d="M 176.07892,2.4639556e-4 H 325.87666 C 325.87666,57.039674 356.45237,117.35507 356.45237,174.3945 l -30.57571,57.35576 H 176.07892 Z"
     id="rect4528"
     inkscape:connector-curvature="0"
     sodipodi:nodetypes="cccccc" />
  <path
     sodipodi:nodetypes="cccccccccccccccc"
     style="opacity:1;fill:url(#linearGradient4518);fill-opacity:1"
     inkscape:connector-curvature="0"
     id="path5"
     d="m 18.857018,5.4602437 c 6.19,-3.92 13.61,-5.28999699 20.84,-5.45999699444 L 218.82702,9.5562366e-8 C 210.15702,9.3900001 200.74702,18.230244 191.87702,27.440244 c -9.39,10.07 -14.43,24.06 -13.6,37.81 0.81,12.67 6.43,25.01 15.6,33.82 14.59,13.090006 29.36,25.970006 43.94,39.060006 4.23,3.76 8.73,7.3 12.34,11.69 9.32,11.58 8.24,30.1 -2.39,40.5 -13.36,13.3 -26.68,26.65 -40.02,39.98 L 206.3775,231.75026 38.511186,231.75 c -4.495798,0 -8.939451,-0.4663 -13.164168,-2.20974 -14.83,-5.31 -25.83999995,-20.36 -25.32999995,-36.26 -0.03,-51.64 0.01,-103.290006 0.06,-154.930006 -0.32,-13.33 7.42999995,-26.140003 18.77999995,-32.8900033" />
  <path
     style="opacity:1;fill:#cd1719;fill-opacity:1"
     inkscape:connector-curvature="0"
     id="path7"
     d="m 213.25702,254.84025 c 3.68,-2.8 9.79,-0.38 9.92,4.42 0.52,4.05 -3.4,6.38 -6.27,8.32 -3.3,2.03 -6.69,5.33 -10.91,4.2 -4.13,-0.91 -5.28,-6.79 -2.27,-9.52 2.9,-2.79 6.18,-5.19 9.53,-7.42 z" />
  <path
     sodipodi:nodetypes="cccccccsscccccccccccccc"
     style="opacity:1;fill:#cd1719;fill-opacity:1"
     inkscape:connector-curvature="0"
     id="path9"
     d="m 7.697018,264.25025 c 5.27,-5.07 12.91,-6.79 20.03,-6.66 8.01,-0.08 16.46,2.6 21.95,8.64 2.26,2.39 2.96,5.85 2.3,9.02 -1.51,3.91 -6.37,5.57 -10.18,4.31 -3.95,-1.92 -5.89,-6.73 -10.34,-7.78 -3.04,-0.46 -6.24,-0.62 -9.23,0.17 -2.02453,0.76227 -3.03212,2.59895 -3.2744,4.59748 -0.0306,0.25201 -0.0526,0.46853 -0.0665,0.69865 -0.0591,0.97591 1.0998,1.29298 1.83086,1.66401 8.17507,4.13127 18.24259,3.11504 26.08005,8.20986 10.27,6.21 10.31,23.18 0.7,30.01 -5.6,4.33 -12.97,5.29 -19.84,5.36 -7.84,-0.44 -16.47,-2.12 -21.89,-8.32 -2.99,-3.38 -5.00999996,-8.9 -1.98,-12.88 1.95,-3 6.07,-3.2 9.17,-2.21 3.6,1.96 5.13,6.18 8.54,8.37 2.93,1.94 6.67,1.7 10.02,1.43 3.08,-0.49 5.98,-3.06792 5.98,-6.59 0.0535,-1.26392 -1.37,-2.5 -2.68,-3.03 -8.06,-2.81 -16.94,-3.36 -24.52,-7.49 -9.70999996,-5.28 -10.30999996,-20.26 -2.6,-27.52 z" />
  <path
     style="opacity:1;fill:#cd1719;fill-opacity:1"
     inkscape:connector-curvature="0"
     id="path11"
     d="m 67.297018,258.91025 c 3.44,-1.9 8.5,-1.55 10.97,1.75 1.46,1.85 1.13,4.36 1.24,6.56 -0.13,16.29 0.14,32.59 -0.13,48.88 -0.5,5.52 -7.42,7.23 -11.76,5.12 -2.29,-1.51 -3.7,-4.18 -3.46,-6.92 -0.02,-16.03 0.02,-32.05 -0.01,-48.07 -0.14,-2.73 0.61,-5.87 3.15,-7.32 z" />
  <path
     style="opacity:1;fill:#cd1719;fill-opacity:1"
     inkscape:connector-curvature="0"
     id="path13"
     d="m 290.48702,264.22025 c 0.33,-6.4 9.43,-8.52 13.49,-4.23 1.65,1.6 2.05,4.01 2.04,6.21 0.03,7.05 -0.09,14.1 0.02,21.14 4.18,-3.72 7.38,-8.42 11.65,-12.04 3.82,-3.19 10.28,-0.75 11.42,3.98 1.21,6.78 -6.42,10.04 -9.64,14.99 3.65,5.69 8.3,10.68 11.87,16.42 2.95,4.66 -0.91,11.92 -6.62,11.3 -2.64,0.27 -5.02,-1.08 -6.49,-3.21 -3.66,-4.58 -6.42,-9.86 -10.46,-14.13 -0.38,0.23 -1.13,0.68 -1.51,0.91 -0.91,4.48 0.92,9.54 -1.68,13.61 -2.15,3.37 -6.8,3.17 -10.21,2.3 -3.05,-1.43 -4.21,-5.02 -4.03,-8.17 0.12,-16.36 -0.17,-32.73 0.15,-49.08 z" />
  <path
     style="opacity:1;fill:#cd1719;fill-opacity:1"
     inkscape:connector-curvature="0"
     id="path15"
     d="m 104.12702,274.96025 c 7.55,-2.1 16.24,-1.43 22.79,3.12 6.62,4.76 9.65,13.27 9.21,21.22 -0.2,7.5 -3.34,15.47 -10.05,19.42 -5.4,3.59 -12.16,3.48 -18.38,3.09 -7.68,-0.53 -14.860002,-5.78 -17.470002,-13.06 -2.75,-7.66 -2.55,-16.51 1.24,-23.79 2.58,-4.91 7.35,-8.51 12.660002,-10 m 5.02,11.83 c -4.61,2.15 -5.57,7.96 -5.19,12.53 -0.03,4.58 2.57,10.25 7.76,10.47 4.43,0.52 8.06,-3.56 8.45,-7.72 0.33,-4.41 0.89,-9.5 -2.06,-13.2 -2.03,-2.77 -5.93,-2.95 -8.96,-2.08 z" />
  <path
     style="opacity:1;fill:#cd1719;fill-opacity:1"
     inkscape:connector-curvature="0"
     id="path17"
     d="m 140.04702,284.04025 c -1.3,-3.53 0.4,-7.97 3.88,-9.51 3.81,-1.84 9.16,-0.05 10.37,4.21 2.53,7.41 4.67,14.96 6.68,22.53 3.09,-7.54 4.42,-15.66 7.41,-23.23 2.2,-5.58 11.18,-5.55 13.58,-0.15 1.78,3.45 0.15,7.18 -1.02,10.54 -3.88,9.95 -7.06,20.16 -11.03,30.07 -1.23,3.37 -5.17,3.56 -8.19,3.5 -2.87,-0.17 -6.59,0.46 -8.49,-2.27 -2.15,-3.48 -3.11,-7.54 -4.57,-11.33 -2.69,-8.19 -6.08,-16.13 -8.62,-24.36 z" />
  <path
     style="opacity:1;fill:#cd1719;fill-opacity:1"
     inkscape:connector-curvature="0"
     id="path19"
     d="m 197.11702,276.79025 c 7.82,-3.74 17.11,-3.75 25.3,-1.23 4.77,1.38 9.01,5.5 9.22,10.67 0.77,9.01 -0.41,18.09 0.76,27.08 0.35,2.64 0.56,5.96 -2.12,7.5 -4.31,2.65 -10.3,0.96 -12.85,-3.39 -5.72,4.13 -13.08,5.62 -19.94,3.98 -5.69,-1.65 -10.49,-7 -10.26,-13.12 -0.23,-4.56 1.74,-9.38 5.77,-11.77 6.53,-4.45 14.77,-3.25 22.09,-5.05 1.95,-1.19 1.23,-4.07 -0.83,-4.66 -3.42,-0.75 -7.56,-0.88 -10.25,1.76 -2.25,1.63 -4.25,4.32 -7.3,4.18 -3.46,0.23 -7.02,-2.89 -6.71,-6.47 -0.02,-4.31 3.65,-7.53 7.12,-9.48 m 7.8,27.76 c -2.26,0.57 -2.93,4.25 -0.78,5.33 5.24,2.8 12.7,-1.12 12.45,-7.36 -3.92,0.43 -7.95,0.67 -11.67,2.03 z" />
  <path
     sodipodi:nodetypes="cccccccccccccccc"
     style="opacity:1;fill:#cd1719;fill-opacity:1"
     inkscape:connector-curvature="0"
     id="path21"
     d="m 256.13702,274.98025 c 6.83,-1.95 14.54,-1.51 20.79,2.03 3.49,2.2 7.04,5.73 6.53,10.23 0.44,5.61 -7.9,8.77 -11.47,4.68 -2.15,-2.04 -3.79,-5.49 -7.26,-5.16 -4.86,-0.66 -8.63,4.04 -8.72,8.56 -0.14,3.86 -0.71,8.39 2.14,11.48 1.44806,1.9145 3.80244,2.44769 6.11839,2.33178 2.27027,0.0445 3.65277,-0.9288 4.98265,-2.45954 0.90282,-1.04351 1.73437,-2.15765 2.70896,-3.13224 3.43,-3.79 11.43,-1.64 11.48,3.81 0.54,5.99 -4.57,10.7 -9.61,12.94 -4.7,2.1 -10.03,1.82 -15.05,1.46 -7.06,-0.76 -13.76,-5.28 -16.44,-11.96 -3.19,-7.85 -2.77,-17.15 1.12,-24.68 2.52,-5.01 7.32,-8.65 12.68,-10.13 z" />
  <path
     style="opacity:1;fill:#cd1719;fill-opacity:1"
     inkscape:connector-curvature="0"
     id="path23"
     d="m 352.08702,274.99025 c 7.56,-2.11 16.27,-1.47 22.87,3.05 6.44,4.46 9.41,12.6 9.19,20.22 0.11,7.79 -2.91,16.44 -10,20.48 -5.15,3.4 -11.56,3.45 -17.5,3.13 -7.7,-0.29 -15.24,-5.16 -18.07,-12.43 -2.93,-7.54 -2.91,-16.34 0.6,-23.69 2.49,-5.23 7.35,-9.19 12.91,-10.76 m 5.97,11.58 c -3.55,0.76 -5.41,4.46 -5.84,7.77 -0.4,4.37 -0.5,9.32 2.46,12.91 2.68,3.37 8.43,3.46 11.18,0.11 3.34,-3.78 2.73,-9.26 2.37,-13.9 -0.46,-4.8 -5.47,-8.51 -10.17,-6.89 z" />
  <g
     id="#ffd700ff"
     style="fill:url(#linearGradient4526);fill-opacity:1"
     transform="translate(-220.29298,-83.739756)">
    <path
       d="m 540.54,85.58 1.73847,-1.840244 h 24.1043 c 6.0576,-9.1e-5 12.0366,0.797969 17.67723,3.300244 12.91,6.03 22.71,19.43 22.56,33.97 0.03,52.65 0.01,105.31 0,157.97 0.14,10.38 -5.51,19.86 -12.71,26.94 -3.84,3.34 -8.44,5.75 -13.16,7.6 -3.9358,1.4811 -8.03963,1.96975 -12.18373,1.96975 h -38.65155 l 3.82459,-4.21299 c 1.83663,-2.02314 3.8239,-3.93782 5.69069,-5.84676 5.15,-5.18 10.35,-10.32 15.52,-15.49 11.45,-11.58 17.54,-28.69 14.6,-44.86 -1.83,-11.8 -8.17,-22.67 -17.05,-30.57 -16.75,-14.58 -33.13,-29.57 -49.94,-44.07 -4.93,-4.39 -8.51,-10.36 -9.93,-16.81 -0.76,-6.68 -0.99,-13.86 2.15,-20.01 2.97,-6.29 8.51,-10.7 13.26,-15.58 10.81,-10.84 21.68,-21.63 32.5,-32.46 z"
       id="path26"
       style="opacity:1;fill:url(#linearGradient4531);fill-opacity:1"
       inkscape:connector-curvature="0"
       sodipodi:nodetypes="ccccccccccsccccccccc" />
  </g>
  <g
     id="#ffffffff"
     transform="translate(-220.29298,-83.739756)">
    <path
       d="m 253.52,164.49 c 4.23,-2.87 9.46,-3.64 14.47,-3.68 26.01,0.02 52.02,0.02 78.03,0 4.41,0.03 8.99,0.86 12.64,3.5 4.05,2.87 6.58,7.43 8.11,12.07 5.28,17.52 10.45,35.07 15.9,52.54 5.15,-15.19 9.64,-30.61 14.58,-45.88 8.7,10.56 19.67,18.85 29.67,28.1 0.82,0.72 0.98,1.58 0.47,2.58 -7.78,20.89 -15.32,41.87 -23.08,62.76 -2.23,6.62 -8.08,11.64 -15,12.71 -7.68,1 -16.32,1.17 -22.9,-3.57 -4.34,-3.13 -6.3,-8.32 -7.98,-13.19 -8.19,-23.08 -16.46,-46.14 -24.63,-69.23 -0.78,-2.24 -2.04,-4.54 -4.27,-5.59 -4.01,-0.75 -8.13,-0.23 -12.18,-0.33 0.03,24.25 -0.02,48.5 -0.01,72.75 0.04,4.86 -1.7,9.73 -4.92,13.38 -7.71,8.53 -23.04,8.57 -30.49,-0.33 -2.64,-3.06 -4.45,-6.98 -4.49,-11.07 -0.19,-24.93 0.21,-49.87 -0.23,-74.8 -7.27,-0.02 -15.06,0.78 -21.75,-2.65 -5.75,-2.83 -9.8,-9.07 -9.32,-15.56 -0.42,-5.74 2.6,-11.4 7.38,-14.51 z"
       id="path2"
       inkscape:connector-curvature="0"
       style="opacity:1;fill:#ffffff" />
  </g>
</svg>
