<?xml version="1.0" encoding="UTF-8"?>
<!-- Created with Inkscape (http://www.inkscape.org/) -->
<svg id="svg4576" width="179.56mm" height="137.68mm" version="1.1" viewBox="0 0 179.56 137.68" xmlns="http://www.w3.org/2000/svg" xmlns:cc="http://creativecommons.org/ns#" xmlns:dc="http://purl.org/dc/elements/1.1/" xmlns:rdf="http://www.w3.org/1999/02/22-rdf-syntax-ns#">
 <defs id="defs4570">
  <clipPath id="a">
   <path id="path2" d="m111.53 421.89h370.93v-307.13h-370.93z"/>
  </clipPath>
 </defs>
 <metadata id="metadata4573">
  <rdf:RDF>
   <cc:Work rdf:about="">
    <dc:format>image/svg+xml</dc:format>
    <dc:type rdf:resource="http://purl.org/dc/dcmitype/StillImage"/>
    <dc:title/>
   </cc:Work>
  </rdf:RDF>
 </metadata>
 <g id="layer1" transform="translate(106.79 -79.992)">
  <g id="g51" transform="matrix(.35278 0 0 -.35278 -122.84 228.83)">
   <g id="g13" clip-path="url(#a)" opacity=".5">
    <g id="g7" transform="translate(456.9 421.39)">
     <path id="path5" d="m0 0h-297.97l-46.566-88.865h232.06l-65.782-113.95h95.708l65.776 113.95 15.919 27.549 18.065 34.494 0.275 0.515c0.953 2.258 1.475 4.748 1.475 7.338 0 10.487-8.481 18.969-18.961 18.969" stroke="#000" stroke-miterlimit="10"/>
    </g>
    <g id="g11" transform="translate(137.09 115.26)">
     <path id="path9" d="m0 0h297.99l46.559 88.879h-232.06l65.789 113.95h-95.708l-65.796-113.95-15.899-27.565-18.072-34.478-0.275-0.529c-0.946-2.258-1.475-4.735-1.475-7.332 0-10.471 8.489-18.975 18.954-18.975" stroke="#000" stroke-miterlimit="10"/>
    </g>
   </g>
   <path id="path15" d="m459.9 418.39h-297.97l-46.566-88.865h232.06l-65.782-113.95h95.708l65.776 113.95 15.919 27.549 18.065 34.494 0.275 0.515c0.953 2.258 1.475 4.748 1.475 7.338 0 10.487-8.481 18.969-18.961 18.969" fill="#ffc800" stroke="#ffc800" stroke-miterlimit="10"/>
   <path id="path17" d="m140.09 112.26h297.99l46.559 88.879h-232.06l65.789 113.95h-95.708l-65.796-113.95-15.899-27.565-18.072-34.478-0.275-0.529c-0.946-2.258-1.475-4.735-1.475-7.332 0-10.471 8.489-18.975 18.954-18.975" fill="#ffc800" stroke="#ffc800" stroke-miterlimit="10"/>
   <path id="path19" d="m62.064 76.385v-4.5h-6.18v-19.26c0-0.599 0.05-1.08 0.15-1.439 0.099-0.36 0.29-0.641 0.57-0.84 0.279-0.201 0.67-0.33 1.17-0.391 0.5-0.058 1.149-0.09 1.95-0.09h2.34v-4.5h-3.899c-1.321 0-2.452 0.09-3.391 0.27-0.94 0.182-1.7 0.512-2.28 0.99-0.58 0.481-1.01 1.16-1.289 2.041-0.282 0.879-0.421 2.039-0.421 3.481v19.738h-5.28v4.5h5.28v9.301h5.1v-9.301z"/>
   <path id="path21" d="m88.434 67.266c-0.46 1.08-1.079 2.01-1.859 2.791-0.781 0.779-1.702 1.398-2.76 1.859-1.061 0.459-2.231 0.69-3.511 0.69-1.319 0-2.511-0.231-3.569-0.69-1.061-0.461-1.971-1.089-2.731-1.89-0.759-0.801-1.36-1.731-1.799-2.789-0.441-1.061-0.701-2.192-0.781-3.391h17.821c-0.082 1.199-0.351 2.34-0.811 3.42m1.23-19.92c-2.32-1.76-5.24-2.641-8.759-2.641-2.481 0-4.631 0.401-6.45 1.202-1.821 0.798-3.351 1.92-4.59 3.359-1.241 1.439-2.171 3.16-2.79 5.16-0.621 2-0.971 4.18-1.05 6.539 0 2.362 0.359 4.522 1.08 6.481 0.72 1.959 1.729 3.66 3.029 5.099 1.3 1.442 2.84 2.561 4.62 3.362 1.78 0.798 3.73 1.199 5.851 1.199 2.76 0 5.049-0.57 6.869-1.709 1.82-1.141 3.279-2.592 4.381-4.352 1.1-1.759 1.859-3.679 2.279-5.759 0.42-2.081 0.59-4.061 0.51-5.94h-23.22c-0.04-1.359 0.12-2.65 0.481-3.869 0.359-1.221 0.939-2.301 1.739-3.24 0.8-0.942 1.82-1.692 3.061-2.25 1.239-0.561 2.7-0.84 4.379-0.84 2.161 0 3.93 0.498 5.31 1.5 1.381 0.998 2.29 2.519 2.73 4.558h5.04c-0.68-3.478-2.18-6.099-4.5-7.859"/>
   <path id="path23" d="m105.32 45.365h-5.1v42.84h5.1z"/>
   <path id="path25" d="m133.97 67.266c-0.46 1.08-1.079 2.01-1.859 2.791-0.781 0.779-1.702 1.398-2.76 1.859-1.061 0.459-2.231 0.69-3.511 0.69-1.319 0-2.511-0.231-3.569-0.69-1.061-0.461-1.971-1.089-2.731-1.89-0.759-0.801-1.36-1.731-1.799-2.789-0.441-1.061-0.701-2.192-0.781-3.391h17.821c-0.082 1.199-0.351 2.34-0.811 3.42m1.23-19.92c-2.32-1.76-5.24-2.641-8.759-2.641-2.481 0-4.631 0.401-6.45 1.202-1.821 0.798-3.351 1.92-4.59 3.359-1.241 1.439-2.171 3.16-2.79 5.16-0.621 2-0.971 4.18-1.05 6.539 0 2.362 0.359 4.522 1.08 6.481 0.72 1.959 1.729 3.66 3.029 5.099 1.3 1.442 2.84 2.561 4.62 3.362 1.78 0.798 3.73 1.199 5.851 1.199 2.76 0 5.049-0.57 6.869-1.709 1.82-1.141 3.279-2.592 4.381-4.352 1.1-1.759 1.859-3.679 2.279-5.759 0.42-2.081 0.59-4.061 0.51-5.94h-23.22c-0.04-1.359 0.12-2.65 0.481-3.869 0.359-1.221 0.939-2.301 1.739-3.24 0.8-0.942 1.82-1.692 3.061-2.25 1.239-0.561 2.7-0.84 4.379-0.84 2.161 0 3.93 0.498 5.31 1.5 1.381 0.998 2.29 2.519 2.73 4.558h5.04c-0.68-3.478-2.18-6.099-4.5-7.859"/>
   <path id="path27" d="m153.98 45.365-11.521 31.02h5.701l8.7-25.86h0.12l8.46 25.86h5.34l-11.34-31.02z"/>
   <path id="path29" d="m175.76 76.385h5.1v-31.02h-5.1zm10.559 12.842-7.86-8.581h-3.84l5.16 8.581z"/>
   <path id="path31" d="m204.98 71.885h-17.52v4.5h24.121v-3.479l-18.96-23.041h19.799v-4.5h-26.16v3.901z"/>
   <path id="path33" d="m222.98 45.365h-5.101v31.02h5.101zm-5.1 42.84h5.101v-6.24h-5.101z"/>
   <path id="path35" d="m247.58 60.336c-1.04-0.221-2.13-0.4-3.27-0.541s-2.291-0.299-3.45-0.479c-1.161-0.181-2.2-0.47-3.12-0.871-0.921-0.4-1.671-0.97-2.25-1.709-0.58-0.742-0.87-1.75-0.87-3.031 0-0.84 0.17-1.551 0.51-2.129 0.34-0.58 0.78-1.051 1.32-1.41s1.18-0.621 1.92-0.781 1.49-0.238 2.25-0.238c1.681 0 3.12 0.228 4.32 0.689 1.201 0.459 2.18 1.039 2.94 1.74 0.76 0.699 1.32 1.459 1.68 2.28 0.36 0.82 0.541 1.589 0.541 2.31v5.219c-0.641-0.479-1.481-0.83-2.521-1.049m7.141-15.631c-1.321 0-2.37 0.371-3.151 1.111-0.78 0.739-1.17 1.95-1.17 3.629-1.4-1.679-3.03-2.89-4.889-3.629-1.861-0.74-3.87-1.111-6.031-1.111-1.4 0-2.72 0.151-3.96 0.451-1.24 0.299-2.331 0.799-3.27 1.5-0.941 0.7-1.68 1.6-2.22 2.7-0.54 1.099-0.809 2.429-0.809 3.99 0 1.76 0.299 3.199 0.899 4.32 0.601 1.119 1.39 2.029 2.37 2.731 0.98 0.699 2.1 1.228 3.361 1.589 1.259 0.36 2.549 0.661 3.87 0.899 1.399 0.281 2.729 0.49 3.989 0.631 1.261 0.14 2.37 0.34 3.33 0.599 0.96 0.26 1.72 0.641 2.28 1.141s0.84 1.23 0.84 2.189c0 1.12-0.21 2.02-0.63 2.702-0.42 0.679-0.96 1.199-1.62 1.558-0.66 0.361-1.4 0.602-2.22 0.721s-1.631 0.18-2.429 0.18c-2.16 0-3.96-0.411-5.401-1.231-1.44-0.82-2.219-2.369-2.34-4.648h-5.1c0.08 1.92 0.48 3.539 1.2 4.859s1.681 2.389 2.88 3.209c1.2 0.82 2.58 1.41 4.141 1.771 1.559 0.36 3.199 0.54 4.919 0.54 1.4 0 2.791-0.1 4.17-0.299 1.38-0.201 2.63-0.612 3.75-1.231 1.12-0.621 2.02-1.49 2.701-2.611 0.679-1.119 1.019-2.58 1.019-4.379v-15.961c0-1.199 0.069-2.08 0.21-2.639 0.14-0.56 0.609-0.839 1.41-0.839 0.44 0 0.96 0.097 1.56 0.298v-3.959c-0.88-0.519-2.1-0.781-3.659-0.781"/>
   <path id="path37" d="m298.08 76.525h-18.925v8.133h33.136v-8.133l-20.443-23.027h21.887v-8.133h-36.099v8.133z"/>
   <path id="path39" d="m343.25 75.461c-1.292 1.418-3.256 2.129-5.89 2.129-1.722 0-3.154-0.293-4.294-0.875-1.139-0.582-2.051-1.305-2.736-2.166-0.684-0.861-1.166-1.774-1.443-2.734-0.28-0.963-0.445-1.825-0.494-2.584h17.555c-0.507 2.734-1.405 4.812-2.698 6.23m-12.197-20.672c1.621-1.57 3.952-2.355 6.992-2.355 2.178 0 4.053 0.545 5.624 1.634 1.569 1.088 2.532 2.243 2.888 3.457h9.5c-1.521-4.71-3.852-8.082-6.993-10.107-3.142-2.027-6.942-3.041-11.4-3.041-3.091 0-5.878 0.494-8.359 1.482-2.484 0.989-4.586 2.395-6.309 4.219s-3.053 4.002-3.989 6.535c-0.939 2.534-1.406 5.321-1.406 8.362 0 2.937 0.48 5.673 1.444 8.207 0.962 2.533 2.329 4.724 4.103 6.574s3.888 3.307 6.346 4.369c2.457 1.065 5.181 1.598 8.17 1.598 3.345 0 6.258-0.647 8.74-1.94 2.483-1.291 4.523-3.027 6.118-5.205 1.596-2.179 2.749-4.662 3.458-7.449s0.962-5.699 0.76-8.738h-28.347c0.152-3.496 1.038-6.032 2.66-7.602"/>
   <path id="path41" d="m373.62 84.658v-5.32h0.152c1.418 2.025 3.128 3.597 5.13 4.711 2.001 1.115 4.294 1.673 6.878 1.673 2.482 0 4.75-0.482 6.802-1.445 2.053-0.963 3.61-2.66 4.674-5.092 1.165 1.723 2.748 3.243 4.75 4.561 2.001 1.316 4.37 1.976 7.106 1.976 2.077 0 4.002-0.255 5.777-0.761 1.772-0.506 3.293-1.317 4.559-2.432s2.254-2.572 2.964-4.369c0.709-1.799 1.064-3.965 1.064-6.498v-26.297h-10.792v22.268c0 1.318-0.051 2.558-0.152 3.724s-0.38 2.178-0.836 3.041c-0.456 0.86-1.128 1.545-2.013 2.051-0.888 0.506-2.09 0.76-3.611 0.76-1.519 0-2.749-0.291-3.685-0.873-0.939-0.584-1.673-1.344-2.204-2.28-0.533-0.939-0.888-2.003-1.065-3.193-0.178-1.191-0.266-2.394-0.266-3.609v-21.889h-10.792v22.041c0 1.164-0.026 2.318-0.076 3.457-0.051 1.141-0.265 2.191-0.646 3.154-0.38 0.963-1.014 1.735-1.9 2.319-0.887 0.582-2.192 0.873-3.914 0.873-0.507 0-1.177-0.114-2.013-0.342-0.836-0.227-1.648-0.658-2.433-1.291-0.786-0.635-1.457-1.547-2.014-2.736-0.558-1.192-0.836-2.75-0.836-4.674v-22.801h-10.792v39.293z"/>
   <path id="path43" d="m456.27 53.498c1.19 0.709 2.153 1.633 2.889 2.773 0.733 1.141 1.254 2.471 1.557 3.991 0.304 1.519 0.456 3.064 0.456 4.636 0 1.569-0.165 3.116-0.494 4.635-0.33 1.522-0.874 2.875-1.634 4.067-0.759 1.189-1.736 2.152-2.925 2.888-1.192 0.733-2.649 1.102-4.37 1.102-1.775 0-3.257-0.369-4.447-1.102-1.191-0.736-2.154-1.685-2.887-2.849-0.736-1.168-1.254-2.51-1.559-4.03-0.304-1.519-0.456-3.09-0.456-4.711 0-1.572 0.164-3.117 0.494-4.636 0.329-1.52 0.861-2.85 1.597-3.991 0.733-1.14 1.71-2.064 2.925-2.773 1.216-0.711 2.685-1.064 4.409-1.064 1.772 0 3.255 0.353 4.445 1.064m-14.021 31.16v-5.015h0.151c1.317 2.126 2.989 3.671 5.016 4.634 2.026 0.963 4.256 1.446 6.688 1.446 3.09 0 5.75-0.584 7.98-1.748 2.229-1.168 4.079-2.713 5.548-4.637 1.469-1.926 2.558-4.168 3.268-6.727 0.709-2.558 1.064-5.232 1.064-8.017 0-2.635-0.355-5.168-1.064-7.6-0.71-2.432-1.785-4.586-3.23-6.461-1.444-1.875-3.243-3.369-5.396-4.484-2.153-1.114-4.674-1.672-7.562-1.672-2.431 0-4.673 0.494-6.726 1.482-2.052 0.989-3.737 2.444-5.054 4.371h-0.151v-18.621h-10.793v53.049z"/>
   <path id="path45" d="m489.52 45.365h-10.792v54.264h10.792z"/>
   <path id="path47" d="m509.12 45.365h-10.792v39.293h10.792zm-11.097 44.156 7.297 10.793h11.932l-11.704-10.793z"/>
   <path id="path49" d="m527.9 84.658v-5.473h0.228c1.368 2.28 3.141 3.94 5.32 4.979 2.178 1.037 4.408 1.558 6.687 1.558 2.889 0 5.256-0.394 7.107-1.179 1.848-0.785 3.305-1.875 4.37-3.268 1.063-1.394 1.81-3.09 2.242-5.092 0.43-2.002 0.646-4.218 0.646-6.65v-24.168h-10.792v22.193c0 3.241-0.507 5.661-1.52 7.258-1.015 1.596-2.812 2.393-5.396 2.393-2.939 0-5.068-0.873-6.384-2.621-1.319-1.748-1.976-4.625-1.976-8.627v-20.596h-10.793v39.293z"/>
  </g>
 </g>
</svg>
