<svg height="599.94" width="600" xmlns="http://www.w3.org/2000/svg"><path d="m258.37-1448.6-106.32 85.899h189.25v-208.66c-11.838 50.608-37.872 86.46-82.925 122.76m-165.74-377.82h-351.34v599.94h185.04v-136.23l252.14-198.56c15.093-11.333 25.472-26.258 29.119-45.278 7.6866-39.274-18.01-77.37-57.341-85.001-39.274-7.6305-77.37 18.01-85.001 57.34-.84159 4.2641-1.2904 8.5282-1.3466 12.736h-138.13c.11221-12.904 1.3465-25.977 3.9274-39.106 16.607-85.506 82.757-148.79 162.93-165.85" fill="#e30613" transform="translate(258.70898 1826.4652)"/></svg>