<?xml version="1.0" encoding="UTF-8"?>
<svg id="svg12" width="578.93pt" height="657.95pt" version="1.1" viewBox="0 0 578.93 657.95" xmlns="http://www.w3.org/2000/svg" xmlns:cc="http://creativecommons.org/ns#" xmlns:dc="http://purl.org/dc/elements/1.1/" xmlns:rdf="http://www.w3.org/1999/02/22-rdf-syntax-ns#">
 <metadata id="metadata18">
  <rdf:RDF>
   <cc:Work rdf:about="">
    <dc:format>image/svg+xml</dc:format>
    <dc:type rdf:resource="http://purl.org/dc/dcmitype/StillImage"/>
    <dc:title/>
   </cc:Work>
  </rdf:RDF>
 </metadata>
 <g id="#e40046ff" transform="translate(-10.037 -21.044)" fill="#e40046">
  <path id="path2" d="m292.75 34.77c20.99-11.75 45.66-14.06 69.29-13.69 25.41 0.29 51.35 8.26 70.63 25.23 19.15 16.49 30.44 40.73 33.8 65.52 1.74 11.29 1.32 22.74 1.38 34.12v233.76h-141.69v-176.66c0.29-4.01-1.17-8.3-4.69-10.51-4.91-3.57-12.35-1.34-14.93 4.03l-111.04 194.82c-3.84 6.58 2.06 15.52 9.56 14.96h292.97c17.76-0.09 36.1-0.71 53 5.68 13.72 4.82 25.81 14.83 31.8 28.24 5.73 12.33 6.77 26.26 5.84 39.67-1.07 15.26-7.05 30.76-18.94 40.82-14.19 12.17-33.49 16.02-51.7 16.45h-432.97c-17.51 0.14-35.75-2.89-50.52-12.82-14.08-9.33-23.6-25.38-24.42-42.31-0.78-15.71 4.06-31.09 10.7-45.14 5.02-10.63 11.27-20.61 17.76-30.38l215.93-334c9.75-15.17 22.32-28.98 38.24-37.79"/>
  <path id="path4" d="m326.11 563.72h141.79v28.267c0 12.727-0.58679 25.405-4.1183 37.733-4.17 15.31-13.07 29.79-26.6 38.49-15.62 10.23-35.22 12.25-53.38 9.89-14.73-2.06-29.06-8.75-38.94-20.04-12.77-14.3-17.8-33.84-18.59-52.6-0.0984-5.0675-0.16029-8.4043-0.16025-13.473l2.6e-4 -28.267z"/>
 </g>
 <path id="path7-8" d="m320.98 418.06c-1.9084-1.8e-4 -3.8416-0.0226-4.0708 1.9706-0.29 2.99-0.19936 6-0.0893 9 0.21075 2.0808 1.0959 2.6851 3.1992 2.6851h19.686l-1.3e-4 59.231c9e-3 1.7571 0.14777 3.4298 2.2486 3.6416 3.4115 0.29 6.8456 0.19932 10.269 0.0894 2.3741-0.21077 3.063-1.0959 3.063-3.1992v-59.763h19.676c2.1033 0 2.9885-0.6043 3.1992-2.6851 0.11001-3 0.20065-6.01-0.0894-9-0.23-2-2.1753-1.9706-4.0898-1.9706l-53.001 1e-5z" fill="#fff"/>
 <path id="path9" d="m391.01 418.01c-1.935-2e-3 -3.8699 0.0613-5.7949 0.19629-2.2 0.60999-1.4401 3.1009-0.87012 4.6509l22.69 68.06c0.45051 1.6254 1.3151 3.3272 3.252 3.6562 1.1229 0.1908 2.9161 0.22459 4.439 0.21831l6.0825-0.0125c1.3918-8e-3 2.8819-0.0546 3.834-0.20578 1.8456-0.29305 2.8015-2.0309 3.252-3.6562l22.69-68.06c0.57-1.55 1.3299-4.0409-0.87012-4.6509-3.85-0.27-7.7398-0.24879-11.59-9e-3 -1.8 0.21-2.5005 2.1894-3.0205 3.6694l-17.64 54.25-17.64-54.25c-0.51999-1.48-1.2205-3.4594-3.0205-3.6694-1.925-0.12-3.8599-0.18626-5.7949-0.1875z" fill="#fff"/>
</svg>
