<svg width="600pt" height="198.13pt" version="1.1" viewBox="0 0 800 264.18" xmlns="http://www.w3.org/2000/svg">
 <g transform="matrix(.46581 0 0 .46581 -19.246 -8.0923)">
  <g transform="translate(0 549.43)">
   <path d="m59.96-430.93c0 32.803 25.039 36.685 37.462 36.685 4.0761 0 6.7936-0.3882 6.7936-0.3882v-15.722s-1.7469 0.1941-4.4643 0.1941c-7.3759 0-20.963-2.5233-20.963-22.516v-46.002h23.486v-14.558h-23.486v-26.98h-18.44v26.98h-16.887v14.558h16.499z"/>
   <path d="m234.18-444.12c0 29.115 21.157 51.437 52.019 51.437 23.486 0 38.238-13.587 38.238-13.587l-7.7641-13.781s-12.228 11.064-29.309 11.064c-17.469 0-32.803-11.646-33.968-33.385h71.818s0.58231-4.6584 0.58231-7.1818c0-25.427-14.558-46.002-42.508-46.002s-49.108 20.187-49.108 51.437zm19.992-10.287c2.7174-16.499 14.364-26.204 28.727-26.204 12.423 0 22.904 8.9287 23.486 26.204z"/>
   <path d="m467.01-422.97c0 22.904 12.034 28.533 26.01 28.533 4.4643 0 8.3464-0.38821 8.3464-0.38821l0.1941-15.528s-2.1351 0.1941-5.2407 0.1941c-8.5405 0-10.481-5.629-10.481-13.975v-107.92h-35.132v14.558h16.305z"/>
   <path d="m631.07-444.12c0 29.115 21.157 51.437 52.019 51.437 23.486 0 38.238-13.587 38.238-13.587l-7.7641-13.781s-12.228 11.064-29.309 11.064c-17.469 0-32.803-11.646-33.968-33.385h71.818s0.5823-4.6584 0.5823-7.1818c0-25.427-14.558-46.002-42.508-46.002s-49.108 20.187-49.108 51.437zm19.992-10.287c2.7174-16.499 14.364-26.204 28.727-26.204 12.423 0 22.904 8.9287 23.486 26.204z"/>
   <path d="m849.16-478.67h12.423l31.639 83.658h21.157l31.833-83.658h12.228v-14.558h-43.867v14.558h12.617l-20.963 57.26c-1.5528 4.2702-2.1351 9.1228-2.1351 9.1228h-0.58231s-0.5823-4.8525-2.1351-9.1228l-20.769-57.26h12.617v-14.558h-44.061z"/>
   <path d="m1096.9-507.4h17.663l24.069-24.651h-21.545zm-11.84 112.38h47.361v-14.558h-14.169v-83.658h-33.58v14.558h14.752v69.1h-14.364z"/>
   <path d="m1265.1-407.44v12.422h83.658v-30.28h-16.499v15.722h-36.297c-3.882 0-7.7641 0.1941-7.7641 0.1941v-0.3882s2.5234-1.941 5.4349-5.4348l53.766-65.606v-12.422h-81.329v30.28h16.499v-15.722h34.162c3.882 0 7.9581-0.3882 7.9581-0.3882v0.3882s-2.5233 2.1351-5.4348 5.629z"/>
   <path d="m1498.6-512.84h19.798v-19.216h-19.798zm-14.946 117.82h49.69v-14.558h-15.528v-83.658h-35.132v14.558h16.305v69.1h-15.334z"/>
   <path d="m1662.3-422.39c0 20.187 16.305 29.698 32.609 29.698 23.874 0 32.415-20.769 32.415-20.769h0.3882s-0.7764 2.5233-0.7764 6.4054v1.3587c0 6.4054 3.4938 10.676 12.228 10.676h19.604v-14.558h-9.8992c-2.7174 0-4.2702-1.3587-4.2702-4.2702v-43.867c0-24.845-13.199-37.85-38.238-37.85-22.904 0-37.268 11.646-37.268 11.646l7.57 13.393s12.617-9.511 28.145-9.511c12.034 0 20.963 5.4348 20.963 20.963v3.6879h-6.2113c-16.304 0-57.26 2.1351-57.26 32.997zm19.022-1.5528c0-18.828 30.862-19.216 39.791-19.216h4.8525v4.0761c0 14.752-10.287 31.833-26.98 31.833-11.258 0-17.663-7.9582-17.663-16.693z"/>
  </g>
  <g transform="translate(0 -434.2)">
   <path d="m442.56 892.01h94.546v17.19q0 11.142 12.097 17.509 12.097 6.3668 36.927 6.3668 20.055 0 30.56-4.7751t10.505-14.644q0-7.9584-4.4567-12.734-4.1386-4.7751-12.415-8.5951-8.2768-3.82-20.692-7.3218-12.097-3.8201-28.332-9.2318-18.464-6.0484-37.564-14.007-18.782-8.2768-34.38-20.374-15.28-12.415-25.149-29.924-9.8686-17.827-9.8686-43.294 0-19.737 6.0486-34.699 6.3668-15.28 16.872-26.422 10.823-11.46 24.83-18.782 14.325-7.6401 30.242-12.097 16.235-4.7751 33.107-6.6851 16.872-2.2284 33.107-2.2284 12.734 0 27.377 1.5917t28.65 5.0934q14.325 3.5017 27.377 9.2318t22.92 14.007q10.187 7.9584 15.917 18.782 6.0482 10.505 6.0482 24.194v45.522h-94.546v-14.962q0-7.6401-7.9586-12.734-7.6401-5.4117-25.785-5.4117-14.007 0-23.239 3.5017-8.9134 3.5017-8.9134 13.37 0 7.6401 4.4567 13.052 4.7752 5.4117 12.734 9.5501 8.2768 4.1384 18.782 7.6401 10.823 3.1834 22.92 6.3668 19.1 5.0934 39.155 12.415 20.055 7.0034 36.609 18.782 16.872 11.46 27.377 29.287 10.823 17.827 10.823 43.931 0 28.332-12.734 48.706-12.733 20.374-34.062 33.744-21.328 13.052-49.024 19.419-27.377 6.3668-57.301 6.3668-14.962 0-31.515-2.2284-16.554-1.91-32.47-6.3667-15.917-4.4568-30.56-11.142-14.325-6.6851-25.149-15.599-10.823-9.2318-17.508-20.692-6.3668-11.46-6.3668-25.467z"/>
   <path d="m773.87 842.67q0-36.927 12.097-68.761 12.097-32.152 34.699-55.709 22.602-23.875 54.754-37.246 32.47-13.689 73.218-13.689 37.564 0 66.533 12.415 29.287 12.097 49.342 33.744t30.242 51.571q10.505 29.605 10.505 64.623 0 4.1384-0.6367 9.8685-0.3182 5.7301-0.9551 11.142-0.6366 6.0484-1.2733 12.734h-212.97q3.1834 16.235 10.505 28.014 7.6401 11.46 18.145 19.1 10.505 7.6401 23.239 11.46 12.734 3.5017 26.104 3.5017 18.782 0 35.654-4.7751 16.872-5.0934 30.242-11.142 15.28-7.0034 28.65-16.235l41.066 78.311q-16.554 13.052-38.519 23.557-18.782 8.9134-45.522 16.235-26.422 7.3218-60.484 7.3218-44.886 0-79.584-14.962-34.38-14.962-57.937-39.474-23.239-24.83-35.336-56.346-11.778-31.834-11.778-65.259zm214.56-41.066q0-9.8685-3.1834-18.782-3.1834-9.2318-8.9135-15.917-5.4117-7.0034-13.37-10.823-7.6401-4.1384-16.872-4.1384-12.415 0-21.647 4.1384-8.9134 4.1384-15.599 11.142-6.3668 6.6851-10.505 15.599-4.1384 8.9134-6.3668 18.782z"/>
   <path d="m1154.2 929.26h42.339v-159.17q0-13.689-14.325-13.689h-31.197v-81.494h106.32q22.92 0 34.699 10.505 12.097 10.187 12.097 27.377v11.142q0 1.2734-0.3181 2.5467 0 1.2734 0 2.5467-0.3182 1.2734-0.3182 2.5467h1.2734q6.3667-9.5501 15.598-20.692 9.5501-11.46 22.602-21.01 13.052-9.8685 29.924-16.235 16.872-6.3668 38.2-6.3668 13.689 0 26.74 3.5017 13.052 3.1834 24.512 10.505 11.46 7.3218 20.692 19.419 9.2319 12.097 15.28 29.605h1.2734q7.0034-13.37 17.827-24.83 11.142-11.46 25.149-20.055 14.325-8.5951 31.515-13.37 17.19-4.7751 36.609-4.7751 21.329 0 40.429 6.6851 19.419 6.6851 33.744 21.647 14.325 14.644 22.602 38.837 8.5951 23.875 8.5951 58.574v136.25h42.657v81.494h-155.35v-198.96q0-9.2318-1.2734-16.872-0.955-7.9584-3.82-13.37-2.8651-5.7301-7.9585-8.9134-5.0934-3.1834-13.052-3.1834-18.145 0-30.56 8.2768-12.415 7.9584-20.055 21.965-7.64 14.007-10.823 32.789-3.1833 18.464-3.1833 39.474v57.301h42.657v81.494h-155.35v-198.96q0-9.2318-1.2734-16.872-0.9549-7.9584-3.82-13.37-2.865-5.7301-7.9584-8.9134-5.0934-3.1834-13.052-3.1834-19.419 0-31.834 9.5501-12.415 9.2318-19.737 24.512-7.3218 15.28-10.187 35.017-2.8652 19.419-2.8652 39.792v50.934h42.657v81.494h-197.69z"/>
   <path d="m217.87 665.61a176.55 176.55 0 0 0-176.55 176.55 176.55 176.55 0 0 0 176.55 176.55 176.55 176.55 0 0 0 176.55-176.55 176.55 176.55 0 0 0-176.55-176.55zm0 94.714a81.836 81.836 0 0 1 81.836 81.835 81.836 81.836 0 0 1-81.836 81.836 81.836 81.836 0 0 1-81.836-81.836 81.836 81.836 0 0 1 81.836-81.835z" style="paint-order:markers stroke fill"/>
  </g>
 </g>
</svg>
