<svg height="8.996172mm" viewBox="0 0 106.13616 31.8762" width="29.953983mm" xmlns="http://www.w3.org/2000/svg"><g fill="#231f20" transform="translate(-243.29961 -340.98435)"><path d="m287.80488 359.33702c-.21975 0-.45138-.0297-.70082-.0772-.24351-.0534-.53453-.1366-.86119-.24351-2.85674-.58797-4.28215-1.31256-4.28215-2.17374 0-.64143.24351-1.12844.7424-1.44916.54641-.32071 1.36601-.48107 2.46476-.48107 1.1522 0 2.0609.24351 2.72015.72458.21975.21381.4395.42762.65925.64143.5464.91464 1.34225 1.37195 2.38755 1.37195h3.53975c-.11284-2.14998-.96215-3.89016-2.55385-5.23242-1.70454-1.23535-3.97925-1.85302-6.83006-1.85302-2.63699 0-4.7751.61767-6.42619 1.85302-1.5917 1.34226-2.38755 3.02899-2.38755 5.06613 0 1.60951.55234 2.89832 1.65109 3.8664.9859.96215 2.93396 1.79958 5.84416 2.49446.49295.16036 1.23534.32072 2.22125.48107 2.3044.48702 3.4566 1.2116 3.4566 2.17374 0 .64738-.32665 1.15814-.9859 1.53231-.7127.37417-1.56201.56423-2.55385.56423-1.37195 0-2.4707-.27321-3.29031-.80773-.77209-.53453-1.18189-1.34226-1.23535-2.41725h-5.60065v.24351c0 2.36379.79585 4.15742 2.38756 5.39277 1.53824 1.23535 3.87234 1.85303 6.99635 1.85303 3.29625 0 5.76695-.58798 7.4121-1.76988 1.758-1.2888 2.637-3.11213 2.637-5.47592 0-1.60952-.52265-2.89833-1.56794-3.86641-1.09875-.9087-3.0468-1.71049-5.84416-2.41131"/><path d="m346.66811 352.4155c-1.84115-1.23535-3.86047-1.85302-6.05797-1.85302-1.09281.0534-2.15592.23162-3.17746.52264-1.02154.29696-1.90648.79585-2.64887 1.49074-.89682-.80179-1.90054-1.34226-2.99335-1.60952-1.09875-.26726-2.22126-.40386-3.36158-.40386-2.14404.11284-4.10397.77803-5.87385 2.01338s-2.65482 3.67635-2.65482 7.32301v12.55543h5.23836v-13.68387c0-1.28287.34448-2.22126 1.0453-2.81518.69488-.58798 1.49667-.88494 2.39349-.88494s1.70455.29696 2.42913.88494c.71864.59392 1.08093 1.53231 1.08093 2.81518v1.12844 12.55543h5.16115v-12.55543-1.12844c0-1.28287.36229-2.22126 1.08093-2.81518.72458-.58798 1.53825-.88494 2.43506-.88494.89682 0 1.70455.29696 2.42913.88494.71864.59392 1.08093 1.53231 1.08093 2.81518v10.95185c0 .80179.23757 1.46104.7127 1.97181.4692.50483 1.08687.76021 1.82927.76021h2.61918v-12.55543c0-3.75356-.92651-6.24802-2.76766-7.48337"/><path d="m263.90798 367.88647c-3.40909 0-6.17675-2.76766-6.17675-6.17675s2.76766-6.17081 6.17675-6.17081 6.17675 2.76172 6.17675 6.17081-2.76766 6.17675-6.17675 6.17675m0-17.3246c-6.15893 0-11.14785 4.99486-11.14785 11.14785 0 6.15893 4.98892 11.14785 11.14785 11.14785 6.15299 0 11.14785-4.98892 11.14785-11.14785 0-6.15299-4.99486-11.14785-11.14785-11.14785"/><path d="m307.30856 355.53713c2.66075 0 4.92358 1.68673 5.7907 4.05052h-11.5814c.86118-2.36379 3.12401-4.05052 5.7907-4.05052m5.9867 7.66155h5.05424c.0713-.48702.10691-.97997.10691-1.4848 0-6.15893-4.99486-11.14785-11.14785-11.14785-6.15893 0-11.14785 4.98892-11.14785 11.14785 0 6.15299 4.98892 11.14191 11.14785 11.14191 4.68602 0 8.69496-2.89239 10.34012-6.99042 0 0-.0178 0-.0416.006h-4.81074c-.59391 0-1.05717.13066-1.38382.40386-.16036.13066-.28509.24945-.38011.35635 0 0-.006.006-.0119.006-1.02748.78397-2.31628 1.24723-3.71199 1.24723-2.89832 0-5.32151-1.99556-5.9867-4.68601h9.98377z"/><path d="m254.53357 346.93601c-.37417.0238-.77209.0178-1.21159-.0178-.43356-.0356-.64737-.30884-.64737-.82554v-4.9711h.60579c.14848 0 .27914.0534.39199.1663.11284.11284.1663.24944.1663.40386v.76616h.69488v.23162c0 .17224-.0534.30884-.1663.41575-.11284.1069-.24944.16036-.4098.16036h-.11878v2.50633c0 .19005.11284.28508.33853.28508h.35635z"/><path d="m264.39024 344.23071h1.72236c-.0178-.3029-.10096-.52859-.23163-.67707-.14847-.15442-.35635-.23756-.62955-.23756-.24944 0-.45138.0831-.6058.23756-.16035.16036-.2435.38605-.25538.67707m2.0312 1.3185h.84336c-.12472.47513-.36229.83148-.7127 1.08093-.34447.26132-.78397.39199-1.3185.39199-.64143 0-1.14032-.20788-1.50261-.62956-.36229-.40386-.54046-.9859-.54046-1.74018 0-.71864.17223-1.28286.52264-1.69267.36229-.41574.86118-.62361 1.50856-.62361.67112 0 1.19971.20193 1.56794.61174.36229.41574.54047.99778.54047 1.74018v.11878.0653c0 .0594-.006.095-.0178.11879h-2.92208c.0119.35041.095.61173.25538.77803.14255.17817.36229.2732.65925.2732.19006 0 .35636-.0416.48702-.11878.0356-.0119.0653-.0356.095-.0594.0297-.0297.0594-.0594.095-.095.0119-.0356.0534-.0772.12472-.1366.0713-.0535.17818-.0831.31478-.0831"/><path d="m276.22585 341.11976h.6058c.16035 0 .29696.0534.4098.16036.11284.1069.1663.23757.1663.39792v5.25618h-1.1819z"/><path d="m287.36775 344.23071h1.72236c-.0178-.3029-.10096-.52859-.23756-.67707-.14254-.15442-.35042-.23756-.62362-.23756-.24944 0-.45138.0831-.6058.23756-.16035.16036-.2435.38605-.25538.67707m2.0312 1.3185h.84336c-.12472.47513-.36229.83148-.7127 1.08093-.34447.26132-.78397.39199-1.3185.39199-.64143 0-1.14032-.20788-1.50261-.62956-.36229-.40386-.54046-.9859-.54046-1.74018 0-.71864.17223-1.28286.52264-1.69267.36229-.41574.86118-.62361 1.50262-.62361.67706 0 1.20565.20193 1.57388.61174.36229.41574.54047.99778.54047 1.74018v.11878.0653c0 .0594-.006.095-.0178.11879h-2.92208c.0119.35041.095.61173.25538.77803.14255.17817.36229.2732.65925.2732.19006 0 .35042-.0416.48702-.11878.0356-.0119.0653-.0356.095-.0594.0297-.0297.0594-.0594.095-.095.006-.0356.0534-.0772.12472-.1366.0713-.0535.17818-.0831.31478-.0831"/><path d="m301.92409 346.93601h-1.19971l-1.57389-4.49596h1.25317l.89682 3.15964.79585-2.75578c.0891-.26726.26726-.40386.54046-.40386h.879z"/><path d="m314.26631 340.98435-1.03342 1.05124h-.54046l.45731-.86713c.0238-.0297.0653-.0713.11879-.11878.0594-.0416.1366-.0653.23756-.0653zm-1.79363 1.4551h.61173c.15442 0 .29102.0534.40387.1663.11284.11284.17223.24944.17223.4098v3.91986h-1.18783z"/><path d="m322.5681 346.93601v-.89682l2.41725-2.67263h-1.70455c-.16036 0-.29696-.0534-.4098-.16036-.11285-.1069-.1663-.23756-.1663-.39792v-.36823h3.68229v.96215l-2.38161 2.55384h2.4707v.97997z"/><path d="m335.41693 342.43826h.6058c.16035 0 .29696.0534.4098.1663.11284.11284.1663.24944.1663.4098v3.91986h-1.1819zm0-1.3185h.6058c.16035 0 .29696.0534.4098.1663.11284.11284.1663.24944.1663.4098v.35635h-1.1819z"/><path d="m347.91119 344.66961c-.16036.0772-.38011.15442-.65925.21975l-.38605.0831c-.20787.0594-.35041.13066-.4395.21975-.0831.12472-.11878.24944-.11878.37417 0 .16629.0475.30289.14848.40386.10097.0891.24945.1366.4395.1366.31478 0 .56422-.0891.7424-.2732.18411-.17818.2732-.42762.2732-.7424zm.2732 2.07871c-.23756.12473-.49295.20194-.75427.23163-.26727.0238-.4989.0416-.70083.0416-.4098 0-.76021-.11285-1.06905-.3326-.3029-.21975-.45138-.58204-.45138-1.08687 0-.47513.1366-.81367.40981-1.0156.27914-.20193.62955-.33853 1.05717-.40386.0594 0 .12472-.0119.20193-.0297.0831-.0178.17224-.0297.2732-.0416.49296-.0653.7424-.21381.7424-.4395 0-.1663-.0891-.27914-.26132-.32666-.17224-.0534-.3326-.0772-.48108-.0772-.16035 0-.29695.0238-.42168.0653-.12472.0475-.21381.13067-.2732.25539h-1.13438c.0475-.35041.20787-.63549.47513-.86118.3029-.26133.73646-.39199 1.30068-.39199.63549 0 1.10469.10691 1.42541.32072.32665.22569.48701.54046.48701.95027v1.53824c0 .45138-.0831.80179-.24351 1.05718-.16629.24944-.36229.43356-.58204.5464"/></g><g transform="translate(-195.04212 -340.98435)"><path d="m198.4344 367.23467v2.05059h-1.92678v-2.05039h-1.4655v5.62449h1.4655v-2.31349h1.92683v2.31349h1.46529v-5.625z" fill="#231f20" stroke-width=".511178"/><path d="m200.89265 367.23467v5.62449h2.41823c1.70785 0 2.75862-.9923 2.75862-2.8353 0-1.74302-1.03421-2.78904-2.75862-2.78904zm1.4655 1.26072h.69418c.99981 0 1.55168.49614 1.55168 1.51886 0 1.12791-.44238 1.56119-1.55168 1.58449h-.69418z" fill="#231f20" stroke-width=".511178"/></g></svg>