<svg width="29.954mm" height="8.9962mm" version="1.1" viewBox="0 0 106.14 31.876" xmlns="http://www.w3.org/2000/svg">
 <g transform="translate(-252.67 -340.98)" fill="#fff">
  <g transform="translate(9.375)">
   <path d="m287.8 359.34c-0.21975 0-0.45138-0.0297-0.70082-0.0772-0.24351-0.0534-0.53453-0.1366-0.86119-0.24351-2.8567-0.58797-4.2822-1.3126-4.2822-2.1737 0-0.64143 0.24351-1.1284 0.7424-1.4492 0.54641-0.32071 1.366-0.48107 2.4648-0.48107 1.1522 0 2.0609 0.24351 2.7202 0.72458l0.65925 0.64143c0.5464 0.91464 1.3422 1.372 2.3876 1.372h3.5398c-0.11284-2.15-0.96215-3.8902-2.5538-5.2324-1.7045-1.2354-3.9792-1.853-6.8301-1.853-2.637 0-4.7751 0.61767-6.4262 1.853-1.5917 1.3423-2.3876 3.029-2.3876 5.0661 0 1.6095 0.55234 2.8983 1.6511 3.8664 0.9859 0.96215 2.934 1.7996 5.8442 2.4945 0.49295 0.16036 1.2353 0.32072 2.2212 0.48107 2.3044 0.48702 3.4566 1.2116 3.4566 2.1737 0 0.64738-0.32665 1.1581-0.9859 1.5323-0.7127 0.37417-1.562 0.56423-2.5538 0.56423-1.372 0-2.4707-0.27321-3.2903-0.80773-0.77209-0.53453-1.1819-1.3423-1.2354-2.4172h-5.6006v0.24351c0 2.3638 0.79585 4.1574 2.3876 5.3928 1.5382 1.2354 3.8723 1.853 6.9964 1.853 3.2962 0 5.767-0.58798 7.4121-1.7699 1.758-1.2888 2.637-3.1121 2.637-5.4759 0-1.6095-0.52265-2.8983-1.5679-3.8664-1.0988-0.9087-3.0468-1.7105-5.8442-2.4113"/>
   <path d="m346.67 352.42c-1.8412-1.2354-3.8605-1.853-6.058-1.853-1.0928 0.0534-2.1559 0.23162-3.1775 0.52264-1.0215 0.29696-1.9065 0.79585-2.6489 1.4907-0.89682-0.80179-1.9005-1.3423-2.9934-1.6095-1.0988-0.26726-2.2213-0.40386-3.3616-0.40386-2.144 0.11284-4.104 0.77803-5.8738 2.0134s-2.6548 3.6764-2.6548 7.323v12.555h5.2384v-13.684c0-1.2829 0.34448-2.2213 1.0453-2.8152 0.69488-0.58798 1.4967-0.88494 2.3935-0.88494s1.7046 0.29696 2.4291 0.88494c0.71864 0.59392 1.0809 1.5323 1.0809 2.8152v13.684h5.1612v-13.684c0-1.2829 0.36229-2.2213 1.0809-2.8152 0.72458-0.58798 1.5382-0.88494 2.4351-0.88494 0.89682 0 1.7046 0.29696 2.4291 0.88494 0.71864 0.59392 1.0809 1.5323 1.0809 2.8152v10.952c0 0.80179 0.23757 1.461 0.7127 1.9718 0.4692 0.50483 1.0869 0.76021 1.8293 0.76021h2.6192v-12.555c0-3.7536-0.92651-6.248-2.7677-7.4834"/>
   <path d="m263.91 367.89c-3.4091 0-6.1768-2.7677-6.1768-6.1768s2.7677-6.1708 6.1768-6.1708 6.1768 2.7617 6.1768 6.1708-2.7677 6.1768-6.1768 6.1768m0-17.325c-6.1589 0-11.148 4.9949-11.148 11.148 0 6.1589 4.9889 11.148 11.148 11.148 6.153 0 11.148-4.9889 11.148-11.148 0-6.153-4.9949-11.148-11.148-11.148"/>
   <path d="m307.31 355.54c2.6608 0 4.9236 1.6867 5.7907 4.0505h-11.581c0.86118-2.3638 3.124-4.0505 5.7907-4.0505m5.9867 7.6616h5.0542c0.0713-0.48702 0.10691-0.97997 0.10691-1.4848 0-6.1589-4.9949-11.148-11.148-11.148-6.1589 0-11.148 4.9889-11.148 11.148 0 6.153 4.9889 11.142 11.148 11.142 4.686 0 8.695-2.8924 10.34-6.9904 0 0-0.0178 0-0.0416 6e-3h-4.8107c-0.59391 0-1.0572 0.13066-1.3838 0.40386-0.16036 0.13066-0.28509 0.24945-0.38011 0.35635 0 0-6e-3 6e-3 -0.0119 6e-3 -1.0275 0.78397-2.3163 1.2472-3.712 1.2472-2.8983 0-5.3215-1.9956-5.9867-4.686h9.9838z"/>
   <path d="m254.53 346.94c-0.37417 0.0238-0.77209 0.0178-1.2116-0.0178-0.43356-0.0356-0.64737-0.30884-0.64737-0.82554v-4.9711h0.60579c0.14848 0 0.27914 0.0534 0.39199 0.1663 0.11284 0.11284 0.1663 0.24944 0.1663 0.40386v0.76616h0.69488v0.23162c0 0.17224-0.0534 0.30884-0.1663 0.41575-0.11284 0.1069-0.24944 0.16036-0.4098 0.16036h-0.11878v2.5063c0 0.19005 0.11284 0.28508 0.33853 0.28508h0.35635z"/>
   <path d="m264.39 344.23h1.7224c-0.0178-0.3029-0.10096-0.52859-0.23163-0.67707-0.14847-0.15442-0.35635-0.23756-0.62955-0.23756-0.24944 0-0.45138 0.0831-0.6058 0.23756-0.16035 0.16036-0.2435 0.38605-0.25538 0.67707m2.0312 1.3185h0.84336c-0.12472 0.47513-0.36229 0.83148-0.7127 1.0809-0.34447 0.26132-0.78397 0.39199-1.3185 0.39199-0.64143 0-1.1403-0.20788-1.5026-0.62956-0.36229-0.40386-0.54046-0.9859-0.54046-1.7402 0-0.71864 0.17223-1.2829 0.52264-1.6927 0.36229-0.41574 0.86118-0.62361 1.5086-0.62361 0.67112 0 1.1997 0.20193 1.5679 0.61174 0.36229 0.41574 0.54047 0.99778 0.54047 1.7402v0.18408c0 0.0594-6e-3 0.095-0.0178 0.11879h-2.9221c0.0119 0.35041 0.095 0.61173 0.25538 0.77803 0.14255 0.17817 0.36229 0.2732 0.65925 0.2732 0.19006 0 0.35636-0.0416 0.48702-0.11878 0.0356-0.0119 0.0653-0.0356 0.095-0.0594l0.095-0.095c0.0119-0.0356 0.0534-0.0772 0.12472-0.1366 0.0713-0.0535 0.17818-0.0831 0.31478-0.0831"/>
   <path d="m276.23 341.12h0.6058c0.16035 0 0.29696 0.0534 0.4098 0.16036 0.11284 0.1069 0.1663 0.23757 0.1663 0.39792v5.2562h-1.1819z"/>
   <path d="m287.37 344.23h1.7224c-0.0178-0.3029-0.10096-0.52859-0.23756-0.67707-0.14254-0.15442-0.35042-0.23756-0.62362-0.23756-0.24944 0-0.45138 0.0831-0.6058 0.23756-0.16035 0.16036-0.2435 0.38605-0.25538 0.67707m2.0312 1.3185h0.84336c-0.12472 0.47513-0.36229 0.83148-0.7127 1.0809-0.34447 0.26132-0.78397 0.39199-1.3185 0.39199-0.64143 0-1.1403-0.20788-1.5026-0.62956-0.36229-0.40386-0.54046-0.9859-0.54046-1.7402 0-0.71864 0.17223-1.2829 0.52264-1.6927 0.36229-0.41574 0.86118-0.62361 1.5026-0.62361 0.67706 0 1.2056 0.20193 1.5739 0.61174 0.36229 0.41574 0.54047 0.99778 0.54047 1.7402v0.18408c0 0.0594-6e-3 0.095-0.0178 0.11879h-2.9221c0.0119 0.35041 0.095 0.61173 0.25538 0.77803 0.14255 0.17817 0.36229 0.2732 0.65925 0.2732 0.19006 0 0.35042-0.0416 0.48702-0.11878 0.0356-0.0119 0.0653-0.0356 0.095-0.0594l0.095-0.095c6e-3 -0.0356 0.0534-0.0772 0.12472-0.1366 0.0713-0.0535 0.17818-0.0831 0.31478-0.0831"/>
   <path d="m301.92 346.94h-1.1997l-1.5739-4.496h1.2532l0.89682 3.1596 0.79585-2.7558c0.0891-0.26726 0.26726-0.40386 0.54046-0.40386h0.879z"/>
   <path d="m314.27 340.98-1.0334 1.0512h-0.54046l0.45731-0.86713c0.0238-0.0297 0.0653-0.0713 0.11879-0.11878 0.0594-0.0416 0.1366-0.0653 0.23756-0.0653zm-1.7936 1.4551h0.61173c0.15442 0 0.29102 0.0534 0.40387 0.1663 0.11284 0.11284 0.17223 0.24944 0.17223 0.4098v3.9199h-1.1878z"/>
   <path d="m322.57 346.94v-0.89682l2.4172-2.6726h-1.7046c-0.16036 0-0.29696-0.0534-0.4098-0.16036-0.11285-0.1069-0.1663-0.23756-0.1663-0.39792v-0.36823h3.6823v0.96215l-2.3816 2.5538h2.4707v0.97997z"/>
   <path d="m335.42 342.44h0.6058c0.16035 0 0.29696 0.0534 0.4098 0.1663 0.11284 0.11284 0.1663 0.24944 0.1663 0.4098v3.9199h-1.1819zm0-1.3185h0.6058c0.16035 0 0.29696 0.0534 0.4098 0.1663 0.11284 0.11284 0.1663 0.24944 0.1663 0.4098v0.35635h-1.1819z"/>
   <path d="m347.91 344.67c-0.16036 0.0772-0.38011 0.15442-0.65925 0.21975l-0.38605 0.0831c-0.20787 0.0594-0.35041 0.13066-0.4395 0.21975-0.0831 0.12472-0.11878 0.24944-0.11878 0.37417 0 0.16629 0.0475 0.30289 0.14848 0.40386 0.10097 0.0891 0.24945 0.1366 0.4395 0.1366 0.31478 0 0.56422-0.0891 0.7424-0.2732 0.18411-0.17818 0.2732-0.42762 0.2732-0.7424zm0.2732 2.0787c-0.23756 0.12473-0.49295 0.20194-0.75427 0.23163-0.26727 0.0238-0.4989 0.0416-0.70083 0.0416-0.4098 0-0.76021-0.11285-1.069-0.3326-0.3029-0.21975-0.45138-0.58204-0.45138-1.0869 0-0.47513 0.1366-0.81367 0.40981-1.0156 0.27914-0.20193 0.62955-0.33853 1.0572-0.40386 0.0594 0 0.12472-0.0119 0.20193-0.0297 0.0831-0.0178 0.17224-0.0297 0.2732-0.0416 0.49296-0.0653 0.7424-0.21381 0.7424-0.4395 0-0.1663-0.0891-0.27914-0.26132-0.32666-0.17224-0.0534-0.3326-0.0772-0.48108-0.0772-0.16035 0-0.29695 0.0238-0.42168 0.0653-0.12472 0.0475-0.21381 0.13067-0.2732 0.25539h-1.1344c0.0475-0.35041 0.20787-0.63549 0.47513-0.86118 0.3029-0.26133 0.73646-0.39199 1.3007-0.39199 0.63549 0 1.1047 0.10691 1.4254 0.32072 0.32665 0.22569 0.48701 0.54046 0.48701 0.95027v1.5382c0 0.45138-0.0831 0.80179-0.24351 1.0572-0.16629 0.24944-0.36229 0.43356-0.58204 0.5464"/>
  </g>
  <g transform="translate(57.633)" stroke-width=".51118">
   <path d="m198.43 367.23v2.0506h-1.9268v-2.0504h-1.4655v5.6245h1.4655v-2.3135h1.9268v2.3135h1.4653v-5.625z"/>
   <path d="m200.89 367.23v5.6245h2.4182c1.7078 0 2.7586-0.9923 2.7586-2.8353 0-1.743-1.0342-2.789-2.7586-2.789zm1.4655 1.2607h0.69418c0.99981 0 1.5517 0.49614 1.5517 1.5189 0 1.1279-0.44238 1.5612-1.5517 1.5845h-0.69418z"/>
  </g>
 </g>
</svg>
