<?xml version="1.0" encoding="UTF-8" standalone="no"?>
<!-- Created with Inkscape (http://www.inkscape.org/) -->

<svg
   xmlns:dc="http://purl.org/dc/elements/1.1/"
   xmlns:cc="http://creativecommons.org/ns#"
   xmlns:rdf="http://www.w3.org/1999/02/22-rdf-syntax-ns#"
   xmlns:svg="http://www.w3.org/2000/svg"
   xmlns="http://www.w3.org/2000/svg"
   xmlns:sodipodi="http://sodipodi.sourceforge.net/DTD/sodipodi-0.dtd"
   xmlns:inkscape="http://www.inkscape.org/namespaces/inkscape"
   width="5.7474556mm"
   height="1.8933231mm"
   viewBox="0 0 20.365 6.708625"
   id="svg71651"
   version="1.1"
   inkscape:version="0.91 r13725"
   sodipodi:docname="TV8.svg">
  <defs
     id="defs71653">
    <clipPath
       clipPathUnits="userSpaceOnUse"
       id="clipPath9956">
      <path
         d="m 716.605,466.369 16.293,0 0,5.367 -16.293,0 0,-5.367 z"
         id="path9958"
         inkscape:connector-curvature="0" />
    </clipPath>
  </defs>
  <sodipodi:namedview
     id="base"
     pagecolor="#ffffff"
     bordercolor="#666666"
     borderopacity="1.0"
     inkscape:pageopacity="0.0"
     inkscape:pageshadow="2"
     inkscape:zoom="3.959798"
     inkscape:cx="-103.51452"
     inkscape:cy="21.703079"
     inkscape:document-units="px"
     inkscape:current-layer="layer1"
     showgrid="false"
     fit-margin-top="0"
     fit-margin-left="0"
     fit-margin-right="0"
     fit-margin-bottom="0"
     inkscape:window-width="1920"
     inkscape:window-height="1017"
     inkscape:window-x="-8"
     inkscape:window-y="-8"
     inkscape:window-maximized="1" />
  <metadata
     id="metadata71656">
    <rdf:RDF>
      <cc:Work
         rdf:about="">
        <dc:format>image/svg+xml</dc:format>
        <dc:type
           rdf:resource="http://purl.org/dc/dcmitype/StillImage" />
        <dc:title></dc:title>
      </cc:Work>
    </rdf:RDF>
  </metadata>
  <g
     inkscape:label="Layer 1"
     inkscape:groupmode="layer"
     id="layer1"
     transform="translate(-252.67464,-366.15074)">
    <g
       transform="matrix(1.25,0,0,-1.25,-643.08236,955.82062)"
       id="g9952">
      <g
         id="g9954"
         clip-path="url(#clipPath9956)">
        <g
           id="g9960"
           transform="translate(722.5206,468.6458)">
          <path
             d="m 0,0 c -0.037,0 -0.076,0.005 -0.118,0.013 -0.041,0.009 -0.09,0.023 -0.145,0.041 -0.481,0.099 -0.721,0.221 -0.721,0.366 0,0.108 0.041,0.19 0.125,0.244 0.092,0.054 0.23,0.081 0.415,0.081 0.194,0 0.347,-0.041 0.458,-0.122 C 0.051,0.587 0.088,0.551 0.125,0.515 0.217,0.361 0.351,0.284 0.527,0.284 l 0.596,0 c -0.019,0.362 -0.162,0.655 -0.43,0.881 -0.287,0.208 -0.67,0.312 -1.15,0.312 -0.444,0 -0.804,-0.104 -1.082,-0.312 -0.268,-0.226 -0.402,-0.51 -0.402,-0.853 0,-0.271 0.093,-0.488 0.278,-0.651 0.166,-0.162 0.494,-0.303 0.984,-0.42 0.083,-0.027 0.208,-0.054 0.374,-0.081 0.388,-0.082 0.582,-0.204 0.582,-0.366 0,-0.109 -0.055,-0.195 -0.166,-0.258 -0.12,-0.063 -0.263,-0.095 -0.43,-0.095 -0.231,0 -0.416,0.046 -0.554,0.136 -0.13,0.09 -0.199,0.226 -0.208,0.407 l -0.943,0 0,-0.041 c 0,-0.398 0.134,-0.7 0.402,-0.908 0.259,-0.208 0.652,-0.312 1.178,-0.312 0.555,0 0.971,0.099 1.248,0.298 0.296,0.217 0.444,0.524 0.444,0.922 0,0.271 -0.088,0.488 -0.264,0.651 C 0.799,-0.253 0.471,-0.118 0,0"
             style="fill:#ffffff;fill-opacity:1;fill-rule:nonzero;stroke:none"
             id="path9962"
             inkscape:connector-curvature="0" />
        </g>
        <g
           id="g9964"
           transform="translate(732.4316,469.8112)">
          <path
             d="M 0,0 C -0.31,0.208 -0.65,0.312 -1.02,0.312 -1.204,0.303 -1.383,0.273 -1.555,0.224 -1.727,0.174 -1.876,0.09 -2.001,-0.027 -2.152,0.108 -2.321,0.199 -2.505,0.244 -2.69,0.289 -2.879,0.312 -3.071,0.312 -3.432,0.293 -3.762,0.181 -4.06,-0.027 -4.358,-0.235 -4.507,-0.646 -4.507,-1.26 l 0,-2.114 0.882,0 0,2.304 c 0,0.216 0.058,0.374 0.176,0.474 0.117,0.099 0.252,0.149 0.403,0.149 0.151,0 0.287,-0.05 0.409,-0.149 0.121,-0.1 0.182,-0.258 0.182,-0.474 l 0,-0.19 0,-2.114 0.869,0 0,2.114 0,0.19 c 0,0.216 0.061,0.374 0.182,0.474 0.122,0.099 0.259,0.149 0.41,0.149 0.151,0 0.287,-0.05 0.409,-0.149 0.121,-0.1 0.182,-0.258 0.182,-0.474 l 0,-1.844 c 0,-0.135 0.04,-0.246 0.12,-0.332 0.079,-0.085 0.183,-0.128 0.308,-0.128 l 0.441,0 0,2.114 C 0.466,-0.628 0.31,-0.208 0,0"
             style="fill:#ffffff;fill-opacity:1;fill-rule:nonzero;stroke:none"
             id="path9966"
             inkscape:connector-curvature="0" />
        </g>
        <g
           id="g9968"
           transform="translate(718.497,467.2063)">
          <path
             d="m 0,0 c -0.574,0 -1.04,0.466 -1.04,1.04 0,0.574 0.466,1.039 1.04,1.039 0.574,0 1.04,-0.465 1.04,-1.039 C 1.04,0.466 0.574,0 0,0 m 0,2.917 c -1.037,0 -1.877,-0.841 -1.877,-1.877 0,-1.037 0.84,-1.877 1.877,-1.877 1.036,0 1.877,0.84 1.877,1.877 0,1.036 -0.841,1.877 -1.877,1.877"
             style="fill:#ffffff;fill-opacity:1;fill-rule:nonzero;stroke:none"
             id="path9970"
             inkscape:connector-curvature="0" />
        </g>
        <g
           id="g9972"
           transform="translate(725.8045,469.2856)">
          <path
             d="m 0,0 c 0.448,0 0.829,-0.284 0.975,-0.682 l -1.95,0 C -0.83,-0.284 -0.449,0 0,0 m 1.008,-1.29 0.851,0 c 0.012,0.082 0.018,0.165 0.018,0.25 0,1.037 -0.841,1.877 -1.877,1.877 -1.037,0 -1.877,-0.84 -1.877,-1.877 0,-1.036 0.84,-1.876 1.877,-1.876 0.789,0 1.464,0.487 1.741,1.177 0,0 -0.003,0 -0.007,-10e-4 l -0.81,0 c -0.1,0 -0.178,-0.022 -0.233,-0.068 -0.027,-0.022 -0.048,-0.042 -0.064,-0.06 0,0 -0.001,-10e-4 -0.002,-10e-4 -0.173,-0.132 -0.39,-0.21 -0.625,-0.21 -0.488,0 -0.896,0.336 -1.008,0.789 l 1.681,0 0.335,0 z"
             style="fill:#ffffff;fill-opacity:1;fill-rule:nonzero;stroke:none"
             id="path9974"
             inkscape:connector-curvature="0" />
        </g>
        <g
           id="g9976"
           transform="translate(716.9186,470.7338)">
          <path
             d="m 0,0 c -0.063,-0.004 -0.13,-0.003 -0.204,0.003 -0.073,0.006 -0.109,0.052 -0.109,0.139 l 0,0.837 0.102,0 c 0.025,0 0.047,-0.009 0.066,-0.028 0.019,-0.019 0.028,-0.042 0.028,-0.068 l 0,-0.129 0.117,0 0,-0.039 C 0,0.686 -0.009,0.663 -0.028,0.645 -0.047,0.627 -0.07,0.618 -0.097,0.618 l -0.02,0 0,-0.422 c 0,-0.032 0.019,-0.048 0.057,-0.048 L 0,0.148 0,0 Z"
             style="fill:#ffffff;fill-opacity:1;fill-rule:nonzero;stroke:none"
             id="path9978"
             inkscape:connector-curvature="0" />
        </g>
        <g
           id="g9980"
           transform="translate(718.5782,471.1893)">
          <path
             d="M 0,0 0.29,0 C 0.287,0.051 0.273,0.089 0.251,0.114 0.226,0.14 0.191,0.154 0.145,0.154 0.103,0.154 0.069,0.14 0.043,0.114 0.016,0.087 0.002,0.049 0,0 m 0.342,-0.222 0.142,0 C 0.463,-0.302 0.423,-0.362 0.364,-0.404 0.306,-0.448 0.232,-0.47 0.142,-0.47 c -0.108,0 -0.192,0.035 -0.253,0.106 -0.061,0.068 -0.091,0.166 -0.091,0.293 0,0.121 0.029,0.216 0.088,0.285 0.061,0.07 0.145,0.105 0.254,0.105 0.113,0 0.202,-0.034 0.264,-0.103 0.061,-0.07 0.091,-0.168 0.091,-0.293 l 0,-0.02 0,-0.011 c 0,-0.01 -0.001,-0.016 -0.003,-0.02 l -0.492,0 c 0.002,-0.059 0.016,-0.103 0.043,-0.131 0.024,-0.03 0.061,-0.046 0.111,-0.046 0.032,0 0.06,0.007 0.082,0.02 0.006,0.002 0.011,0.006 0.016,0.01 0.005,0.005 0.01,0.01 0.016,0.016 0.002,0.006 0.009,0.013 0.021,0.023 0.012,0.009 0.03,0.014 0.053,0.014"
             style="fill:#ffffff;fill-opacity:1;fill-rule:nonzero;stroke:none"
             id="path9982"
             inkscape:connector-curvature="0" />
        </g>
        <g
           id="g9984"
           transform="translate(720.571,471.7131)">
          <path
             d="m 0,0 0.102,0 c 0.027,0 0.05,-0.009 0.069,-0.027 0.019,-0.018 0.028,-0.04 0.028,-0.067 l 0,-0.885 L 0,-0.979 0,0 Z"
             style="fill:#ffffff;fill-opacity:1;fill-rule:nonzero;stroke:none"
             id="path9986"
             inkscape:connector-curvature="0" />
        </g>
        <g
           id="g9988"
           transform="translate(722.447,471.1893)">
          <path
             d="M 0,0 0.29,0 C 0.287,0.051 0.273,0.089 0.25,0.114 0.226,0.14 0.191,0.154 0.145,0.154 0.103,0.154 0.069,0.14 0.043,0.114 0.016,0.087 0.002,0.049 0,0 m 0.342,-0.222 0.142,0 C 0.463,-0.302 0.423,-0.362 0.364,-0.404 0.306,-0.448 0.232,-0.47 0.142,-0.47 c -0.108,0 -0.192,0.035 -0.253,0.106 -0.061,0.068 -0.091,0.166 -0.091,0.293 0,0.121 0.029,0.216 0.088,0.285 0.061,0.07 0.145,0.105 0.253,0.105 0.114,0 0.203,-0.034 0.265,-0.103 0.061,-0.07 0.091,-0.168 0.091,-0.293 l 0,-0.02 0,-0.011 c 0,-0.01 -0.001,-0.016 -0.003,-0.02 l -0.492,0 c 0.002,-0.059 0.016,-0.103 0.043,-0.131 0.024,-0.03 0.061,-0.046 0.111,-0.046 0.032,0 0.059,0.007 0.082,0.02 0.006,0.002 0.011,0.006 0.016,0.01 0.005,0.005 0.01,0.01 0.016,0.016 0.001,0.006 0.009,0.013 0.021,0.023 0.012,0.009 0.03,0.014 0.053,0.014"
             style="fill:#ffffff;fill-opacity:1;fill-rule:nonzero;stroke:none"
             id="path9990"
             inkscape:connector-curvature="0" />
        </g>
        <g
           id="g9992"
           transform="translate(724.8979,470.7338)">
          <path
             d="m 0,0 -0.202,0 -0.265,0.757 0.211,0 0.151,-0.532 0.134,0.464 C 0.044,0.734 0.074,0.757 0.12,0.757 l 0.148,0 L 0,0 Z"
             style="fill:#ffffff;fill-opacity:1;fill-rule:nonzero;stroke:none"
             id="path9994"
             inkscape:connector-curvature="0" />
        </g>
        <g
           id="g9996"
           transform="translate(726.976,471.7359)">
          <path
             d="m 0,0 -0.174,-0.177 -0.091,0 0.077,0.146 c 0.004,0.005 0.011,0.012 0.02,0.02 C -0.158,-0.004 -0.145,0 -0.128,0 L 0,0 Z m -0.302,-0.245 0.103,0 c 0.026,0 0.049,-0.009 0.068,-0.028 0.019,-0.019 0.029,-0.042 0.029,-0.069 l 0,-0.66 -0.2,0 0,0.757 z"
             style="fill:#ffffff;fill-opacity:1;fill-rule:nonzero;stroke:none"
             id="path9998"
             inkscape:connector-curvature="0" />
        </g>
        <g
           id="g10000"
           transform="translate(728.3738,470.7338)">
          <path
             d="m 0,0 0,0.151 0.407,0.45 -0.287,0 C 0.093,0.601 0.07,0.61 0.051,0.628 0.032,0.646 0.023,0.668 0.023,0.695 l 0,0.062 0.62,0 0,-0.162 -0.401,-0.43 0.416,0 L 0.658,0 0,0 Z"
             style="fill:#ffffff;fill-opacity:1;fill-rule:nonzero;stroke:none"
             id="path10002"
             inkscape:connector-curvature="0" />
        </g>
        <g
           id="g10004"
           transform="translate(730.5372,471.4911)">
          <path
             d="M 0,0 0.102,0 C 0.129,0 0.152,-0.009 0.171,-0.028 0.19,-0.047 0.199,-0.07 0.199,-0.097 l 0,-0.66 L 0,-0.757 0,0 Z m 0,0.222 0.102,0 c 0.027,0 0.05,-0.009 0.069,-0.028 C 0.19,0.175 0.199,0.152 0.199,0.125 l 0,-0.06 -0.199,0 0,0.157 z"
             style="fill:#ffffff;fill-opacity:1;fill-rule:nonzero;stroke:none"
             id="path10006"
             inkscape:connector-curvature="0" />
        </g>
        <g
           id="g10008"
           transform="translate(732.6409,471.1154)">
          <path
             d="m 0,0 c -0.027,-0.013 -0.064,-0.026 -0.111,-0.037 l -0.065,-0.014 c -0.035,-0.01 -0.059,-0.022 -0.074,-0.037 -0.014,-0.021 -0.02,-0.042 -0.02,-0.063 0,-0.028 0.008,-0.051 0.025,-0.068 0.017,-0.015 0.042,-0.023 0.074,-0.023 0.053,0 0.095,0.015 0.125,0.046 C -0.015,-0.166 0,-0.124 0,-0.071 L 0,0 Z m 0.046,-0.35 c -0.04,-0.021 -0.083,-0.034 -0.127,-0.039 -0.045,-0.004 -0.084,-0.007 -0.118,-0.007 -0.069,0 -0.128,0.019 -0.18,0.056 -0.051,0.037 -0.076,0.098 -0.076,0.183 0,0.08 0.023,0.137 0.069,0.171 0.047,0.034 0.106,0.057 0.178,0.068 0.01,0 0.021,0.002 0.034,0.005 0.014,0.003 0.029,0.005 0.046,0.007 0.083,0.011 0.125,0.036 0.125,0.074 0,0.028 -0.015,0.047 -0.044,0.055 -0.029,0.009 -0.056,0.013 -0.081,0.013 -0.027,0 -0.05,-0.004 -0.071,-0.011 C -0.22,0.217 -0.235,0.203 -0.245,0.182 l -0.191,0 c 0.008,0.059 0.035,0.107 0.08,0.145 0.051,0.044 0.124,0.066 0.219,0.066 0.107,0 0.186,-0.018 0.24,-0.054 0.055,-0.038 0.082,-0.091 0.082,-0.16 l 0,-0.259 C 0.185,-0.156 0.171,-0.215 0.144,-0.258 0.116,-0.3 0.083,-0.331 0.046,-0.35"
             style="fill:#ffffff;fill-opacity:1;fill-rule:nonzero;stroke:none"
             id="path10010"
             inkscape:connector-curvature="0" />
        </g>
      </g>
    </g>
  </g>
</svg>
