<svg width="600pt" height="241.11pt" version="1.1" viewBox="0 0 600 241.11" xmlns="http://www.w3.org/2000/svg">
 <g transform="matrix(1.2049 0 0 1.2049 -8.5066 -54.811)" fill="#1a59a9">
  <path d="m14.64 45.625h190.6l23.63 130.77h1.49l49.53-55.585c19.703-23.258 9.4071-40.25-18.9-40.25h-46.57l7.61-34.935h73.04c27.149 0 42.907 15.669 42.614 43.147 0 20.177-13.515 36.768-23.704 49.178l-61.69 67.755h-63.68l-23.23-125.12h-55.83l-27.07 125.12h-43.36l26.85-125.12h-58.91z" fill="#1a59a9"/>
 </g>
 <g transform="matrix(1.2049 0 0 1.2049 -8.5066 -54.811)" fill="#ed1b24">
  <path d="m359.65 45.49h105.96c24.846 0 39.413 13.126 39.413 37.212 0 26.472-14.826 43.244-33.478 51.128 16.065 8.4187 23.356 22.203 21.791 38.984-5.9004 47.684-39.704 72.669-84.311 72.786h-377.99l6.87-35.155h370.05c21.195-0.0508 40.962-14.544 40.974-35.318 0-13.415-8.9665-19.547-19.704-19.547h-40.05l7.59-36.23h31.878c14.2 0 31.043-8.5121 31.043-23.57 0-10.124-8.0049-14.215-17.721-14.215h-46.43l-26.35 124.02-43.38 0.02z" fill="#ed1b24"/>
 </g>
</svg>
