<svg height="1662.4576" width="2127.5073" xmlns="http://www.w3.org/2000/svg" xmlns:xlink="http://www.w3.org/1999/xlink"><linearGradient id="a" gradientUnits="userSpaceOnUse" x1="481.43496" x2="909.20801" y1="1310.2107" y2="719.03372"><stop offset="0" stop-color="#2dc5fb"/><stop offset="1" stop-color="#0040c0"/></linearGradient><filter id="b" height="1.371867" width="1.268736" x="-.134368" y="-.185933"><feGaussianBlur stdDeviation="114.09461"/></filter><path d="m118.84999 1133.0762c-105.160007-129.8918-483.2236-1054.277516 1100.65431-966.30221 1074.9861 104.49451 992.5581 983.99801 341.0478 1276.34571-461.1192 198.4246-951.78801 410.1885-1441.70211-310.0435z" fill="url(#a)" filter="url(#b)" transform="matrix(.822848 0 0 .822848 222.65146 92.936165)"/><path d="m12.59375.5c-.81308 0-5.0625.04541-5.0625 3.03125l-.03125 7.03125c0 .64775-.35356 1-1 1 0 0-2.94225 0-2.96875 0-.98057 0-3.03125.97612-3.03125 5.09375 0 4.10201 2.01281 4.875 3 4.875h3c .50276.01783.997.56811 1 1.03125v4.21875s-.03125 13.1631-.03125 13.1875c0 3.06183 3.13141 13.5625 13.28125 13.5625h2.46875c4.65799 0 8.27425-4.39542 8.28125-6 .02114.02193.0625.02047.0625-.46875 0-.65229-.20383-2.45424-2.21875-3.28125-.13869-.0569-.58595-.34574-1.65625 0-1.06028.3425-2.32473.75-3.96875.75-.10117 0-2.2776-.03031-2.3125-.03125-1.68972-.04529-3.9073-2.52124-4-5.5625-.0013-.04151.125-16.40625.125-16.40625-.0025-.4781.28374-.98285 1-.96875h5.03125c.94049 0 3-1.00511 3-5 0-3.97926-2.06909-5.03125-3.0625-5.03125-.77509 0-5.03125.03125-5.03125.03125-.58033 0-1-.19823-1-1 0 0 0-6.53216 0-7.125 0-3.16878-4.03983-2.9375-4.875-2.9375zm71.9375 11.03125c-10.32121.0697-19 12.96876-19 25.5 0 .20778.00001 1.47174 0 1.59375 0 13.64336 7.32682 26.86207 23.1875 26.90625 1.15028.003 1.16483-.002.9375 0 8.25538-.18838 15.90625-4.48069 15.90625-9 0-2.5157-1.51901-3.78125-2.84375-3.78125-3.86004 0-4.97726 3.78125-11.71875 3.78125-7.98151 0-14.46876-6.49581-14.46875-11v-3c0-.54525.43781-.99999 1-1 0 0 21.80114-.03125 22-.03125 4.01901 0 6.96876-1.9586 6.96875-5.96875v-3.0625c0-8.46199-6.73933-20.9375-18.3125-20.9375-.20301 0-3.64674-.00007-3.65625 0zm-49.96875.03125c-3.64145 0-5.03125 1.58711-5.03125 3.625 0 2.41514 2.19051 7.56194 5 14.75 3.78853 9.69293 6.49179 18.44719 7.96875 20.4375 1.00861 1.66022 2.5113 3.09375 5.5 3.09375 3.11476 0 4.49488-1.49846 5.5-3.0625 1.58325-2.02752 13.03125-32.73772 13.03125-35.21875 0-1.61004-1.5595-3.625-5.03125-3.625-.62342 0-.86836 0-.9375 0-2.03193 0-3.6015 2.00781-4.03125 3.0625-.0504.10082-8.5 22.5-8.5 22.5l-.78125-2.03125-7.8125-20.4375c-.57836-1.61711-1.93513-3.09375-3.96875-3.09375-.26544 0-.49213 0-.90625 0zm53 7.96875c5.16162 0 8.09375 5.63137 7.9375 9.0625-.0299.77121 0 3.03125 0 3.03125 0 .48848-.42429.90625-1 .90625h-16.9375c-.52932 0-1.0625-.48826-1.0625-1v-1.0625c0-6.00122 4.74509-10.90625 9.09375-10.90625.76324 0 .91703-.03125 1.96875-.03125z" fill="#fff" fill-rule="evenodd" transform="matrix(10.136049 0 0 10.136049 506.555643245 466.65159223)"/></svg>