<svg width="600pt" height="259.33pt" version="1.1" viewBox="0 0 600 259.33" xmlns="http://www.w3.org/2000/svg">
 <g transform="matrix(1.1719 0 0 1.1719 0 -168.89)">
  <path d="m0 144.16c16.27 0.03 33.225-0.1 49.495 0-0.04 17.64-0.12 35.18 0 52.82h81.485l54.88 129.1 32.15-67.07c3.7816-9.2139-0.0276-13.335-10.98-13.335h-44.75v-48.7h54.72c18.584-0.31887 33.092 12.788 44.77 23.885v-23.885h188.29c34.32 0 61.94 23.434 61.94 52.685v115.75h-47.2v-104.94c0-7.99-7.6903-13.79-15.78-13.79h-36.25v118.72h-49.07v-104.94c0-7.7717-6.3999-13.79-14.66-13.79h-38.875c-0.07 39.48 0.14 79.245 0 118.72h-48.395v-76.03l-37.96 76.03h-74.43l-53.47-119.74h-46.415v58.325c0 7.3081 1.548 13.315 9.445 13.315h42.71c-0.04 16.24-0.07 31.855 0.01 48.095h-55.67c-24.547 0-45.799-23.499-45.99-44.36z" fill="#005ead"/>
 </g>
 <g transform="matrix(1.1719 0 0 1.1719 0 -168.89)">
  <path d="m65.26 144.16c146.18 0.05 292.4 0.05 438.58 0 0.09 13.19-0.02 26.535 0 39.735-146.2 0.07-292.38 0.07-438.58 0 0.04-13.2-0.02-26.545 0-39.735z" fill="#fff200"/>
 </g>
</svg>
