<!DOCTYPE svg  PUBLIC '-//W3C//DTD SVG 1.1//EN'  'http://www.w3.org/Graphics/SVG/1.1/DTD/svg11.dtd'>
<svg width="110mm" height="23.687mm" clip-rule="evenodd" fill-rule="evenodd" image-rendering="optimizeQuality" shape-rendering="geometricPrecision" text-rendering="geometricPrecision" viewBox="0 0 110 23.687" xml:space="preserve" xmlns="http://www.w3.org/2000/svg">
 <defs>
  <style type="text/css">
    .fil2 {fill:#BB1336}
    .fil0 {fill:white}
    .fil3 {fill:white;fill-rule:nonzero}
    .fil1 {fill:url(#a)}
  </style>
  <linearGradient id="a" x1="27.027" x2="27.027" y1="1e-4" y2="23.683" gradientUnits="userSpaceOnUse">
   <stop stop-color="#D2D2D2" offset="0"/>
   <stop stop-color="#737476" offset="1"/>
  </linearGradient>
 </defs>
   <rect class="fil0" y="-4.9852e-5" width="54.055" height="23.683"/>
    <path class="fil1" d="m-0 1e-4h54.055v23.683l-54.055 1e-4v-23.683zm1.1989 1.0654h16.42v21.551h-16.42v-21.551zm17.618 0h16.42v21.551h-16.42v-21.551zm17.619 0h16.42v21.551h-16.42v-21.551z"/>
     <polygon class="fil2" points="15.1 7.458 15.1 4.6167 3.7181 4.6167 3.7181 7.458 7.83 7.458 7.83 19.299 10.988 19.299 10.988 7.458"/>
     <polygon class="fil2" points="27.027 19.744 20.228 4.439 23.529 4.439 26.909 12.179 27.027 12.639 27.146 12.173 30.525 4.439 33.827 4.439"/>
     <path class="fil2" d="m39.987 4.6138v14.685h2.9736v-4.4834l0.6415 0.0208c4.0047 0 5.9716-2.5975 5.9716-5.1737-5e-4 -2.5345-1.9048-5.0489-5.6982-5.0489l-3.8885-1e-4zm2.969 2.842h1.0709c1.6989 0.0259 2.5466 0.601 2.668 2.2913-0.1052 1.7539-1.0988 2.312-2.8095 2.3412h-0.9294v-4.6325z"/>
   <rect class="fil2" x="54.055" y="5.0688e-5" width="55.945" height="23.687"/>
    <path class="fil3" d="m91.841 11.916c0-1.0896 0.1874-2.1168 0.5656-3.0745 0.3749-0.9612 0.93-1.808 1.6622-2.5472 0.6906-0.7113 1.4922-1.263 2.4083-1.6482s1.8738-0.5795 2.8767-0.5795c0.989 0 1.9468 0.1943 2.8732 0.5795 0.9231 0.3852 1.742 0.9403 2.4534 1.6622 0.7114 0.7218 1.2528 1.5649 1.6275 2.5263 0.3713 0.9646 0.5587 1.9918 0.5587 3.0814 0 0.9369-0.1284 1.8114-0.3852 2.6234-0.2602 0.812-0.642 1.5477-1.1485 2.207-0.7115 0.9543-1.5929 1.6969-2.6408 2.2244-1.0445 0.5309-2.1585 0.7946-3.3383 0.7946-0.9959 0-1.9502-0.1943-2.8628-0.5796-0.9092-0.3851-1.7178-0.9438-2.4222-1.6691-0.7252-0.7425-1.2804-1.5962-1.6587-2.5505-0.3782-0.9543-0.5691-1.971-0.5691-3.0502zm3.6194 0c0 1.2804 0.3747 2.3527 1.1278 3.2168 0.7529 0.864 1.676 1.2978 2.7656 1.2978 1.0965 0 2.0196-0.4302 2.7692-1.2909 0.7495-0.8605 1.1243-1.9363 1.1243-3.2237 0-1.3013-0.3714-2.384-1.1174-3.2446s-1.6726-1.2909-2.7761-1.2909-2.03 0.4338-2.7761 1.2979c-0.746 0.8641-1.1173 1.9432-1.1173 3.2376z"/>
    <polygon class="fil3" points="80.914 19.287 80.914 4.5459 90.075 4.5459 90.075 7.5442 84.412 7.5442 84.412 8.6164 84.412 10.483 84.412 11.231 89.381 11.231 89.381 14.208 84.412 14.208 84.412 17.021 84.412 19.287"/>
    <polygon class="fil3" points="64.969 19.287 64.969 4.0671 65.305 4.0671 74.484 12.67 74.484 4.5459 77.728 4.5459 77.728 19.846 77.423 19.846 68.213 11.247 68.213 19.287"/>
    <polygon class="fil3" points="58.201 19.287 58.201 4.5459 61.72 4.5459 61.72 19.287"/>
</svg>
