<svg clip-rule="evenodd" fill-rule="evenodd" height="59.8mm" image-rendering="optimizeQuality" shape-rendering="geometricPrecision" text-rendering="geometricPrecision" viewBox="0 0 110 59.8" width="110mm" xmlns="http://www.w3.org/2000/svg"><path d="m0 .000152h110v59.8h-110z" fill="#cd3301"/><g fill="#fff"><path d="m45.3488 8.1456h19.304v25.3357h-19.304zm20.7131 0h19.3039v25.3357h-19.3039zm4.1746 4.1713v17.264h3.4958v-5.2707l.7541.0245c4.7079 0 7.0203-3.0537 7.0203-6.0822-.0006-2.9795-2.2393-5.9354-6.6989-5.9354zm3.4904 3.3411h1.2589c1.9973.0304 2.9938.7065 3.1365 2.6935-.1236 2.062-1.2917 2.7181-3.3029 2.7524h-1.0925zm-18.726 14.4454-7.9932-17.992h3.8813l3.973 9.0991.1389.5411.1404-.5485 3.9715-9.0917h3.8817zm-14.0216-14.4428v-3.3402h-13.3805v3.3402h4.834v13.9203h3.7125v-13.9203zm-16.342-7.515h19.3039v25.3357h-19.3039zm-1.4095-1.2526h63.5466v27.8412l-63.5466.0002z"/><path d="m85.7502 52.7814 6.605-13.3625h.1983l6.4616 13.3625h-3.2369l-.8207-1.8854h-5.2565l-.839 1.8854zm4.8446-4.1186h3.4047l-1.6809-4.0607z" fill-rule="nonzero"/><path d="m79.8512 52.7814v-12.9598h3.0935v12.9598z" fill-rule="nonzero"/><path d="m64.3205 52.7814v-13.3809h.2959l8.0694 7.563v-7.1419h2.8526v13.4509h-.2685l-8.0969-7.5599v7.0688z" fill-rule="nonzero"/><path d="m47.9365 46.3015c0-.9579.1648-1.8611.4974-2.7031.3295-.845.8176-1.5894 1.4613-2.2393.6071-.6253 1.3118-1.1104 2.1173-1.4491.8054-.3386 1.6474-.5095 2.529-.5095.8696 0 1.7116.1709 2.5261.5095.8115.3387 1.5316.8268 2.1569 1.4613.6255.6347 1.1014 1.376 1.4309 2.221.3265.8481.4912 1.7513.4912 2.7092 0 .8237-.1129 1.5925-.3386 2.3064-.2289.7139-.5645 1.3606-1.0098 1.9403-.6255.839-1.4004 1.4919-2.3217 1.9556-.9183.4668-1.8977.6986-2.935.6986-.8755 0-1.7145-.1708-2.5168-.5095-.7994-.3387-1.5102-.8298-2.1295-1.4675-.6376-.6528-1.1257-1.4033-1.4583-2.2423-.3325-.8389-.5004-1.7328-.5004-2.6816zm3.182 0c0 1.1257.3295 2.0684.9916 2.8281.662.7597 1.4735 1.141 2.4314 1.141.9642 0 1.7757-.3783 2.4346-1.1349.659-.7566.9885-1.7023.9885-2.8342 0-1.1441-.3264-2.0959-.9824-2.8526-.6559-.7565-1.4704-1.1349-2.4407-1.1349-.9701 0-1.7846.3814-2.4405 1.141-.656.7598-.9825 1.7085-.9825 2.8465z" fill-rule="nonzero"/><path d="m38.3895 52.7814v-12.9598h3.0935v10.1805h5.0492v2.7793z" fill-rule="nonzero"/><path d="m22.0055 46.3015c0-.9579.1648-1.8611.4974-2.7031.3295-.845.8176-1.5894 1.4613-2.2393.6071-.6253 1.3118-1.1104 2.1173-1.4491.8054-.3386 1.6474-.5095 2.5291-.5095.8695 0 1.7115.1709 2.526.5095.8116.3387 1.5316.8268 2.1569 1.4613.6255.6347 1.1014 1.376 1.4309 2.221.3265.8481.4912 1.7513.4912 2.7092 0 .8237-.1129 1.5925-.3386 2.3064-.2289.7139-.5645 1.3606-1.0098 1.9403-.6255.839-1.4004 1.4919-2.3217 1.9556-.9183.4668-1.8976.6986-2.9349.6986-.8756 0-1.7146-.1708-2.5169-.5095-.7994-.3387-1.5102-.8298-2.1295-1.4675-.6376-.6528-1.1257-1.4033-1.4583-2.2423-.3325-.8389-.5004-1.7328-.5004-2.6816zm3.1821 0c0 1.1257.3294 2.0684.9915 2.8281.662.7597 1.4735 1.141 2.4315 1.141.9641 0 1.7756-.3783 2.4345-1.1349.659-.7566.9885-1.7023.9885-2.8342 0-1.1441-.3264-2.0959-.9824-2.8526-.6559-.7565-1.4704-1.1349-2.4406-1.1349s-1.7847.3814-2.4406 1.141c-.656.7598-.9824 1.7085-.9824 2.8465z" fill-rule="nonzero"/><path d="m10.9849 52.7814v-12.9598h3.3346c1.0311 0 1.8427.0731 2.4345.2196.5919.1434 1.1288.3936 1.6048.7444.4759.3508.8481.7871 1.1166 1.3149.2684.5247.4026 1.0861.4026 1.681 0 1.3027-.4667 2.3369-1.3972 3.1057-.9336.7719-2.1965 1.1563-3.7952 1.1563h-.3753c-.1007 0-.177 0-.2319 0v4.7379zm3.5146-10.5833h-.4211v3.4596h.5614c.781 0 1.376-.1495 1.7878-.4514.4119-.3021.6163-.7354.6163-1.2997 0-.5919-.2014-1.022-.6072-1.2966-.2013-.1312-.4637-.2319-.7871-.3051-.3203-.0702-.7047-.1068-1.1501-.1068z" fill-rule="nonzero"/></g></svg>