<svg clip-rule="evenodd" fill-rule="evenodd" height="23.687mm" image-rendering="optimizeQuality" shape-rendering="geometricPrecision" text-rendering="geometricPrecision" viewBox="0 0 110 23.687" width="110mm" xmlns="http://www.w3.org/2000/svg" xmlns:xlink="http://www.w3.org/1999/xlink"><linearGradient id="a" gradientUnits="userSpaceOnUse" x1="27.0272" x2="27.0272" y1=".0001" y2="23.6827"><stop offset="0" stop-color="#d2d2d2"/><stop offset="1" stop-color="#737476"/></linearGradient><path d="m0-.00005h54.0546v23.683h-54.0546z" fill="#fff"/><path d="m0 .0001h54.0546v23.6826l-54.0546.0001v-23.6827zm1.1989 1.0654h16.4205v21.5513h-16.4205v-21.5513zm17.6179 0h16.4205v21.5513h-16.4205zm17.6191 0h16.4205v21.5513h-16.4205z" fill="url(#a)"/><path d="m15.1 7.458v-2.8413h-11.3819v2.8413h4.1119v11.8411h3.1581v-11.8411z" fill="#bb1336"/><path d="m27.0272 19.7436-6.7993-15.3046h3.3015l3.3796 7.74.1182.4603.1193-.4666 3.3784-7.7337h3.3018z" fill="#bb1336"/><path d="m39.987 4.6138v14.6853h2.9736v-4.4834l.6415.0208c4.0047 0 5.9716-2.5975 5.9716-5.1737-.0005-2.5345-1.9048-5.0489-5.6982-5.0489zm2.969 2.842h1.0709c1.6989.0259 2.5466.601 2.668 2.2913-.1052 1.7539-1.0988 2.312-2.8095 2.3412h-.9294z" fill="#bb1336"/><path d="m54.0546.000051h55.9454v23.6869h-55.9454z" fill="#bb1336"/><g fill="#fff"><path d="m91.8407 11.9165c0-1.0896.1874-2.1168.5656-3.0745.3749-.9612.93-1.808 1.6622-2.5472.6906-.7113 1.4922-1.263 2.4083-1.6482s1.8738-.5795 2.8767-.5795c.989 0 1.9468.1943 2.8732.5795.9231.3852 1.742.9403 2.4534 1.6622.7114.7218 1.2528 1.5649 1.6275 2.5263.3713.9646.5587 1.9918.5587 3.0814 0 .9369-.1284 1.8114-.3852 2.6234-.2602.812-.642 1.5477-1.1485 2.207-.7115.9543-1.5929 1.6969-2.6408 2.2244-1.0445.5309-2.1585.7946-3.3383.7946-.9959 0-1.9502-.1943-2.8628-.5796-.9092-.3851-1.7178-.9438-2.4222-1.6691-.7252-.7425-1.2804-1.5962-1.6587-2.5505-.3782-.9543-.5691-1.971-.5691-3.0502zm3.6194 0c0 1.2804.3747 2.3527 1.1278 3.2168.7529.864 1.676 1.2978 2.7656 1.2978 1.0965 0 2.0196-.4302 2.7692-1.2909.7495-.8605 1.1243-1.9363 1.1243-3.2237 0-1.3013-.3714-2.384-1.1174-3.2446s-1.6726-1.2909-2.7761-1.2909-2.03.4338-2.7761 1.2979c-.746.8641-1.1173 1.9432-1.1173 3.2376z" fill-rule="nonzero"/><path d="m80.9142 19.287v-14.7411h9.1611v2.9983h-5.6632v1.0722 1.8669.7478h4.9693v2.9774h-4.9693v2.8129 2.2656z" fill-rule="nonzero"/><path d="m64.9686 19.287v-15.2199h.3366l9.1784 8.6024v-8.1236h3.2445v15.2998h-.3053l-9.2097-8.599v8.0403z" fill-rule="nonzero"/><path d="m58.2014 19.287v-14.7411h3.5187v14.7411z" fill-rule="nonzero"/></g></svg>