<?xml version="1.0" encoding="UTF-8" standalone="no"?>
<!-- Creator: CorelDRAW -->

<svg
   xmlns:dc="http://purl.org/dc/elements/1.1/"
   xmlns:cc="http://creativecommons.org/ns#"
   xmlns:rdf="http://www.w3.org/1999/02/22-rdf-syntax-ns#"
   xmlns:svg="http://www.w3.org/2000/svg"
   xmlns="http://www.w3.org/2000/svg"
   xmlns:sodipodi="http://sodipodi.sourceforge.net/DTD/sodipodi-0.dtd"
   xmlns:inkscape="http://www.inkscape.org/namespaces/inkscape"
   xml:space="preserve"
   width="88.030197mm"
   height="46.379498mm"
   style="clip-rule:evenodd;fill-rule:evenodd;image-rendering:optimizeQuality;shape-rendering:geometricPrecision;text-rendering:geometricPrecision"
   viewBox="0 0 88.030197 46.379498"
   version="1.1"
   id="svg20"
   sodipodi:docname="TVP Polonia - Dark.svg"
   inkscape:version="0.92.0 r15299"><metadata
     id="metadata24"><rdf:RDF><cc:Work
         rdf:about=""><dc:format>image/svg+xml</dc:format><dc:type
           rdf:resource="http://purl.org/dc/dcmitype/StillImage" /><dc:title></dc:title></cc:Work></rdf:RDF></metadata><sodipodi:namedview
     pagecolor="#ffffff"
     bordercolor="#666666"
     borderopacity="1"
     objecttolerance="10"
     gridtolerance="10"
     guidetolerance="10"
     inkscape:pageopacity="0"
     inkscape:pageshadow="2"
     inkscape:window-width="1920"
     inkscape:window-height="1017"
     id="namedview22"
     showgrid="false"
     inkscape:zoom="1.3662121"
     inkscape:cx="31.227819"
     inkscape:cy="291.02098"
     inkscape:window-x="-8"
     inkscape:window-y="-8"
     inkscape:window-maximized="1"
     inkscape:current-layer="svg20"
     fit-margin-top="0"
     fit-margin-left="0"
     fit-margin-right="0"
     fit-margin-bottom="0" /><defs
     id="defs4"><style
       type="text/css"
       id="style2"><![CDATA[
    .fil0 {fill:#CD3301}
    .fil1 {fill:white}
    .fil2 {fill:white;fill-rule:nonzero}
   ]]></style></defs><rect
     id="_144440928"
     class="fil0"
     y="0.82176077"
     width="62.108704"
     height="26.403444"
     x="13.064509"
     style="fill:#ffffff;stroke-width:0.49929774;fill-opacity:1" /><path
     id="path5"
     class="fil1"
     d="m 34.3639,1.2526 h 19.304 v 25.3357 h -19.304 z m 20.7131,0 H 74.3809 V 26.5883 H 55.077 Z m 4.1746,4.1713 v 17.264 h 3.4958 v -5.2707 l 0.7541,0.0245 c 4.7079,0 7.0203,-3.0537 7.0203,-6.0822 C 70.5212,8.38 68.2825,5.4241 63.8229,5.4241 Z M 62.742,8.765 h 1.2589 c 1.9973,0.0304 2.9938,0.7065 3.1365,2.6935 -0.1236,2.062 -1.2917,2.7181 -3.3029,2.7524 H 62.742 Z M 44.016,23.2104 36.0228,5.2184 h 3.8813 l 3.973,9.0991 0.1389,0.5411 0.1404,-0.5485 3.9715,-9.0917 h 3.8817 z M 29.9944,8.7676 V 5.4274 H 16.6139 v 3.3402 h 4.834 v 13.9203 h 3.7125 V 8.7676 Z M 13.6524,1.2526 H 32.9563 V 26.5883 H 13.6524 Z M 12.2429,0 h 63.5466 v 27.8412 l -63.5466,2e-4 V 0 Z"
     inkscape:connector-curvature="0"
     style="fill:#cd3301;fill-opacity:1" /><g
     id="g16"
     transform="translate(-10.9849,-6.893)"
     style="fill:#cd3301;fill-opacity:1"><path
       id="_144442200"
       class="fil2"
       d="m 85.7502,52.7814 6.605,-13.3625 h 0.1983 l 6.4616,13.3625 H 95.7782 L 94.9575,50.896 H 89.701 l -0.839,1.8854 z m 4.8446,-4.1186 h 3.4047 l -1.6809,-4.0607 z"
       inkscape:connector-curvature="0"
       style="fill:#cd3301;fill-rule:nonzero;fill-opacity:1" /><polygon
       id="_144439752"
       class="fil2"
       points="82.9447,39.8216 82.9447,52.7814 79.8512,52.7814 79.8512,39.8216 "
       style="fill:#cd3301;fill-rule:nonzero;fill-opacity:1" /><polygon
       id="_144443616"
       class="fil2"
       points="75.5384,53.2725 75.2699,53.2725 67.173,45.7126 67.173,52.7814 64.3205,52.7814 64.3205,39.4005 64.6164,39.4005 72.6858,46.9635 72.6858,39.8216 75.5384,39.8216 "
       style="fill:#cd3301;fill-rule:nonzero;fill-opacity:1" /><path
       id="_144444360"
       class="fil2"
       d="m 47.9365,46.3015 c 0,-0.9579 0.1648,-1.8611 0.4974,-2.7031 0.3295,-0.845 0.8176,-1.5894 1.4613,-2.2393 0.6071,-0.6253 1.3118,-1.1104 2.1173,-1.4491 0.8054,-0.3386 1.6474,-0.5095 2.529,-0.5095 0.8696,0 1.7116,0.1709 2.5261,0.5095 0.8115,0.3387 1.5316,0.8268 2.1569,1.4613 0.6255,0.6347 1.1014,1.376 1.4309,2.221 0.3265,0.8481 0.4912,1.7513 0.4912,2.7092 0,0.8237 -0.1129,1.5925 -0.3386,2.3064 -0.2289,0.7139 -0.5645,1.3606 -1.0098,1.9403 -0.6255,0.839 -1.4004,1.4919 -2.3217,1.9556 -0.9183,0.4668 -1.8977,0.6986 -2.935,0.6986 -0.8755,0 -1.7145,-0.1708 -2.5168,-0.5095 -0.7994,-0.3387 -1.5102,-0.8298 -2.1295,-1.4675 -0.6376,-0.6528 -1.1257,-1.4033 -1.4583,-2.2423 -0.3325,-0.8389 -0.5004,-1.7328 -0.5004,-2.6816 z m 3.182,0 c 0,1.1257 0.3295,2.0684 0.9916,2.8281 0.662,0.7597 1.4735,1.141 2.4314,1.141 0.9642,0 1.7757,-0.3783 2.4346,-1.1349 0.659,-0.7566 0.9885,-1.7023 0.9885,-2.8342 0,-1.1441 -0.3264,-2.0959 -0.9824,-2.8526 -0.6559,-0.7565 -1.4704,-1.1349 -2.4407,-1.1349 -0.9701,0 -1.7846,0.3814 -2.4405,1.141 -0.656,0.7598 -0.9825,1.7085 -0.9825,2.8465 z"
       inkscape:connector-curvature="0"
       style="fill:#cd3301;fill-rule:nonzero;fill-opacity:1" /><polygon
       id="_144447768"
       class="fil2"
       points="38.3895,52.7814 38.3895,39.8216 41.483,39.8216 41.483,50.0021 46.5322,50.0021 46.5322,52.7814 "
       style="fill:#cd3301;fill-rule:nonzero;fill-opacity:1" /><path
       id="_144444264"
       class="fil2"
       d="m 22.0055,46.3015 c 0,-0.9579 0.1648,-1.8611 0.4974,-2.7031 0.3295,-0.845 0.8176,-1.5894 1.4613,-2.2393 0.6071,-0.6253 1.3118,-1.1104 2.1173,-1.4491 0.8054,-0.3386 1.6474,-0.5095 2.5291,-0.5095 0.8695,0 1.7115,0.1709 2.526,0.5095 0.8116,0.3387 1.5316,0.8268 2.1569,1.4613 0.6255,0.6347 1.1014,1.376 1.4309,2.221 0.3265,0.8481 0.4912,1.7513 0.4912,2.7092 0,0.8237 -0.1129,1.5925 -0.3386,2.3064 -0.2289,0.7139 -0.5645,1.3606 -1.0098,1.9403 -0.6255,0.839 -1.4004,1.4919 -2.3217,1.9556 -0.9183,0.4668 -1.8976,0.6986 -2.9349,0.6986 -0.8756,0 -1.7146,-0.1708 -2.5169,-0.5095 -0.7994,-0.3387 -1.5102,-0.8298 -2.1295,-1.4675 -0.6376,-0.6528 -1.1257,-1.4033 -1.4583,-2.2423 -0.3325,-0.8389 -0.5004,-1.7328 -0.5004,-2.6816 z m 3.1821,0 c 0,1.1257 0.3294,2.0684 0.9915,2.8281 0.662,0.7597 1.4735,1.141 2.4315,1.141 0.9641,0 1.7756,-0.3783 2.4345,-1.1349 0.659,-0.7566 0.9885,-1.7023 0.9885,-2.8342 0,-1.1441 -0.3264,-2.0959 -0.9824,-2.8526 -0.6559,-0.7565 -1.4704,-1.1349 -2.4406,-1.1349 -0.9702,0 -1.7847,0.3814 -2.4406,1.141 -0.656,0.7598 -0.9824,1.7085 -0.9824,2.8465 z"
       inkscape:connector-curvature="0"
       style="fill:#cd3301;fill-rule:nonzero;fill-opacity:1" /><path
       id="_144444096"
       class="fil2"
       d="M 10.9849,52.7814 V 39.8216 h 3.3346 c 1.0311,0 1.8427,0.0731 2.4345,0.2196 0.5919,0.1434 1.1288,0.3936 1.6048,0.7444 0.4759,0.3508 0.8481,0.7871 1.1166,1.3149 0.2684,0.5247 0.4026,1.0861 0.4026,1.681 0,1.3027 -0.4667,2.3369 -1.3972,3.1057 -0.9336,0.7719 -2.1965,1.1563 -3.7952,1.1563 h -0.3753 c -0.1007,0 -0.177,0 -0.2319,0 v 4.7379 z m 3.5146,-10.5833 h -0.4211 v 3.4596 h 0.5614 c 0.781,0 1.376,-0.1495 1.7878,-0.4514 0.4119,-0.3021 0.6163,-0.7354 0.6163,-1.2997 0,-0.5919 -0.2014,-1.022 -0.6072,-1.2966 -0.2013,-0.1312 -0.4637,-0.2319 -0.7871,-0.3051 -0.3203,-0.0702 -0.7047,-0.1068 -1.1501,-0.1068 z"
       inkscape:connector-curvature="0"
       style="fill:#cd3301;fill-rule:nonzero;fill-opacity:1" /></g></svg>