<?xml version="1.0" encoding="UTF-8" standalone="no"?>
<!-- Created with Inkscape (http://www.inkscape.org/) -->

<svg
   xmlns:dc="http://purl.org/dc/elements/1.1/"
   xmlns:cc="http://creativecommons.org/ns#"
   xmlns:rdf="http://www.w3.org/1999/02/22-rdf-syntax-ns#"
   xmlns:svg="http://www.w3.org/2000/svg"
   xmlns="http://www.w3.org/2000/svg"
   xmlns:sodipodi="http://sodipodi.sourceforge.net/DTD/sodipodi-0.dtd"
   xmlns:inkscape="http://www.inkscape.org/namespaces/inkscape"
   version="1.0"
   width="744.09448"
   height="279.35434"
   viewBox="0 0 210 297"
   id="svg2"
   xml:space="preserve"
   style="fill-rule:evenodd"
   sodipodi:docname="TVP1 - Original.svg"
   inkscape:version="0.92.0 r15299"><sodipodi:namedview
     pagecolor="#ffffff"
     bordercolor="#666666"
     borderopacity="1"
     objecttolerance="10"
     gridtolerance="10"
     guidetolerance="10"
     inkscape:pageopacity="0"
     inkscape:pageshadow="2"
     inkscape:window-width="1920"
     inkscape:window-height="1017"
     id="namedview12"
     showgrid="false"
     inkscape:zoom="0.38167196"
     inkscape:cx="372.04724"
     inkscape:cy="139.67717"
     inkscape:window-x="-8"
     inkscape:window-y="-8"
     inkscape:window-maximized="1"
     inkscape:current-layer="svg2" /><metadata
     id="metadata15"><rdf:RDF><cc:Work
         rdf:about=""><dc:format>image/svg+xml</dc:format><dc:type
           rdf:resource="http://purl.org/dc/dcmitype/StillImage" /></cc:Work></rdf:RDF></metadata><defs
     id="defs4"><style
       type="text/css"
       id="style6" /></defs><polygon
     points="0,109.08 210,109.08 210,187.92 0,187.92 "
     id="_74801392"
     style="fill:#0099cb"
     transform="matrix(3.7666448,0,0,3.7666448,-290.54793,-410.82789)" /><path
     d="M -51.295172,57.200326 H 85.316515 V 236.73105 H -51.295172 Z m 146.656575,0 H 231.97309 V 236.73105 H 95.361403 Z M 124.9484,86.787321 V 208.9705 h 24.6557 v -37.25777 l 5.29666,0.18268 c 33.42219,0 49.85945,-21.55085 49.85945,-43.10209 0,-21.00281 -15.88921,-42.005999 -47.48534,-42.005999 z m 24.6557,23.742669 h 8.94917 c 14.06315,0.18268 21.18587,4.93091 22.09891,18.99406 -0.73035,14.61081 -9.13186,19.17674 -23.37731,19.54211 H 149.6041 Z M 17.010671,212.8057 -39.60652,85.32624 h 27.395561 l 28.308595,64.47027 0.913035,3.83557 0.913035,-3.83557 28.125913,-64.47027 H 73.627863 Z M -82.343249,110.52999 V 86.787321 h -94.787991 v 23.742669 h 34.3356 v 98.44051 h 26.29947 V 110.52999 Z M -197.95175,57.200326 H -61.340061 V 236.73105 H -197.95175 Z m -10.04489,-8.766489 H 242.01948 V 245.49754 h -450.01612 z"
     inkscape:connector-curvature="0"
     id="_74801320"
     style="fill:#ffffff;stroke-width:3.76664472" /><polygon
     points="159.185,130.705 159.185,144.912 169.076,138.803 168.406,174.384 181.732,174.392 181.732,118.971 "
     id="_74801176"
     style="fill:#ffffff"
     transform="matrix(3.7666448,0,0,3.7666448,-290.54793,-410.82789)" /></svg>