<svg fill-rule="evenodd" height="196.34869" viewBox="0 0 159.79531 208.75123" width="566.20386" xmlns="http://www.w3.org/2000/svg"><path d="m-211.04186 19.907183h429.92458v179.530717h-429.92458z" fill="#0099cb" fill-rule="evenodd" stroke-width="3.766645"/><path d="m-64.385178 19.906718h136.611685v179.530722h-136.611685zm146.656573 0h136.611685l-.00051 179.530722h-136.611175zm29.586995 29.586995v122.183177h24.6557v-37.25777l5.29666.18268c33.42219 0 49.85945-21.55085 49.85945-43.102088 0-21.00281-15.88921-42.005999-47.48534-42.005999zm24.6557 23.742669h8.94917c14.06315.18268 21.18587 4.93091 22.09891 18.99406-.73035 14.610808-9.13186 19.176738-23.37731 19.542108h-7.67077zm-132.593427 102.275708-56.617191-127.479458h27.395561l28.308595 64.470268.913035 3.83557.913035-3.83557 28.125913-64.470268h27.578244zm-99.353921-102.275708v-23.742669h-94.787992v23.742669h34.3356v98.440508h26.29947v-98.440508zm-115.608502-53.329664h136.611692v179.530722h-136.611692zm-10.04489-8.766489h450.01612v197.063701h-450.01612z" fill="#fff" stroke-width="3.766645"/><path d="m181.732 174.392v-55.421l-22.547 11.734v14.207l9.891-6.109-.67 35.581z" fill="#fff" transform="matrix(3.7666448 0 0 3.7666448 -303.63794 -448.1215)"/></svg>