<svg enable-background="new 70.701 -12.637 107.857 48.605" height="48.605" viewBox="70.701 -12.637 104.711 48.605" width="104.711" xmlns="http://www.w3.org/2000/svg" xmlns:xlink="http://www.w3.org/1999/xlink"><linearGradient id="a"><stop offset="0" stop-color="#fff"/><stop offset="1" stop-color="#bdbdbd"/></linearGradient><linearGradient id="b" gradientTransform="matrix(1 0 0 -1 -87.025 -60.685)" gradientUnits="userSpaceOnUse" x1="235.9884" x2="226.1236" xlink:href="#a" y1="-90.816803" y2="-63.043499"/><linearGradient id="c" gradientTransform="matrix(1 0 0 -1 -90.171 -60.685)" gradientUnits="userSpaceOnUse" x1="259.85101" x2="249.9861" xlink:href="#a" y1="-82.341003" y2="-54.567699"/><linearGradient id="d" gradientTransform="matrix(1 0 0 -1 -90.171 -60.685)" gradientUnits="userSpaceOnUse" x1="220.1516" x2="210.2867" xlink:href="#a" y1="-96.441803" y2="-68.668503"/><path d="m94.2 10.158v-10.514h-6.923v15.508c0 3.402-1.108 5.221-4.352 5.221-3.56 0-4.667-1.661-4.667-5.38v-15.35h-7.557v15.864c0 7.437 4.114 10.959 12.067 10.959 2.168 0 4.034-.35 5.603-1.022z" fill="#3155a6"/><path d="m100.233-.356h7.239l10.445 26.348h-8.229l-1.266-3.719h-9.376l-1.227 3.719h-7.636zm6.133 16.734-1.425-4.153c-.791-2.295-1.187-4.431-1.227-4.589h-.079c-.04.158-.474 2.334-1.227 4.589l-1.384 4.153z" fill="#f7c314"/><path d="m143.051 25.991h-7.556v-20.215h-7.082v-6.132h21.719v6.132h-7.081z" fill="url(#b)" transform="translate(-3.146)"/><path d="m148.311-.356h8.151l4.549 13.886c.634 1.978 1.147 4.074 1.188 4.233h.08c.039-.158.593-2.295 1.186-4.233l4.352-13.886h7.595l-9.811 26.348h-7.121z" fill="url(#c)"/><path d="m120.823-12.637h1.201v48.605h-1.201z" fill="url(#d)"/></svg>