<?xml version="1.0" encoding="UTF-8" standalone="no"?>
<!-- Generator: Adobe Illustrator 17.0.0, SVG Export Plug-In . SVG Version: 6.00 Build 0)  -->

<svg
   xmlns:dc="http://purl.org/dc/elements/1.1/"
   xmlns:cc="http://creativecommons.org/ns#"
   xmlns:rdf="http://www.w3.org/1999/02/22-rdf-syntax-ns#"
   xmlns:svg="http://www.w3.org/2000/svg"
   xmlns="http://www.w3.org/2000/svg"
   xmlns:sodipodi="http://sodipodi.sourceforge.net/DTD/sodipodi-0.dtd"
   xmlns:inkscape="http://www.inkscape.org/namespaces/inkscape"
   version="1.1"
   id="Layer_1"
   x="0px"
   y="0px"
   width="104.711"
   height="48.605"
   viewBox="70.701 -12.637 104.711 48.605"
   enable-background="new 70.701 -12.637 107.857 48.605"
   xml:space="preserve"
   sodipodi:docname="UATV - Dark.svg"
   inkscape:version="0.92.1 r15371"><metadata
     id="metadata34"><rdf:RDF><cc:Work
         rdf:about=""><dc:format>image/svg+xml</dc:format><dc:type
           rdf:resource="http://purl.org/dc/dcmitype/StillImage" /><dc:title></dc:title></cc:Work></rdf:RDF></metadata><defs
     id="defs32" /><sodipodi:namedview
     pagecolor="#ffffff"
     bordercolor="#666666"
     borderopacity="1"
     objecttolerance="10"
     gridtolerance="10"
     guidetolerance="10"
     inkscape:pageopacity="0"
     inkscape:pageshadow="2"
     inkscape:window-width="1920"
     inkscape:window-height="1017"
     id="namedview30"
     showgrid="false"
     fit-margin-top="0"
     fit-margin-left="0"
     fit-margin-right="0"
     fit-margin-bottom="0"
     inkscape:zoom="7.4475768"
     inkscape:cx="44.581955"
     inkscape:cy="34.25992"
     inkscape:window-x="-8"
     inkscape:window-y="-8"
     inkscape:window-maximized="1"
     inkscape:current-layer="Layer_1" /><g
     id="g27"
     transform="translate(-3.146)"><path
       d="M 97.346,10.158 V -0.356 h -6.923 v 15.508 c 0,3.402 -1.108,5.221 -4.352,5.221 -3.56,0 -4.667,-1.661 -4.667,-5.38 v -15.35 h -7.557 v 15.864 c 0,7.437 4.114,10.959 12.067,10.959 2.168,0 4.034,-0.35 5.603,-1.022 z"
       id="path2"
       inkscape:connector-curvature="0"
       style="fill:#3155a6" /><path
       d="m 103.379,-0.356 h 7.239 l 10.445,26.348 h -8.229 l -1.266,-3.719 h -9.376 l -1.227,3.719 h -7.636 z m 6.133,16.734 -1.425,-4.153 C 107.296,9.93 106.9,7.794 106.86,7.636 h -0.079 c -0.04,0.158 -0.474,2.334 -1.227,4.589 l -1.384,4.153 z"
       id="path4"
       inkscape:connector-curvature="0"
       style="fill:#f7c314" /><linearGradient
       id="SVGID_1_"
       gradientUnits="userSpaceOnUse"
       x1="235.9884"
       y1="-90.816803"
       x2="226.1236"
       y2="-63.043499"
       gradientTransform="matrix(1,0,0,-1,-87.025,-60.685)"><stop
         offset="0"
         style="stop-color:#BDBDBD"
         id="stop6" /><stop
         offset="1"
         style="stop-color:#595959"
         id="stop8" /></linearGradient><polygon
       points="128.413,-0.356 150.132,-0.356 150.132,5.776 143.051,5.776 143.051,25.991 135.495,25.991 135.495,5.776 128.413,5.776 "
       id="polygon11"
       style="fill:url(#SVGID_1_)" /><linearGradient
       id="SVGID_2_"
       gradientUnits="userSpaceOnUse"
       x1="259.85101"
       y1="-82.341003"
       x2="249.9861"
       y2="-54.567699"
       gradientTransform="matrix(1,0,0,-1,-87.025,-60.685)"><stop
         offset="0"
         style="stop-color:#BDBDBD"
         id="stop13" /><stop
         offset="1"
         style="stop-color:#595959"
         id="stop15" /></linearGradient><path
       d="m 151.457,-0.356 h 8.151 l 4.549,13.886 c 0.634,1.978 1.147,4.074 1.188,4.233 h 0.08 c 0.039,-0.158 0.593,-2.295 1.186,-4.233 l 4.352,-13.886 h 7.595 l -9.811,26.348 h -7.121 z"
       id="path18"
       inkscape:connector-curvature="0"
       style="fill:url(#SVGID_2_)" /><linearGradient
       id="SVGID_3_"
       gradientUnits="userSpaceOnUse"
       x1="220.1516"
       y1="-96.441803"
       x2="210.2867"
       y2="-68.668503"
       gradientTransform="matrix(1,0,0,-1,-87.025,-60.685)"><stop
         offset="0"
         style="stop-color:#BDBDBD"
         id="stop20" /><stop
         offset="1"
         style="stop-color:#595959"
         id="stop22" /></linearGradient><rect
       x="123.969"
       y="-12.637"
       width="1.201"
       height="48.605"
       id="rect25"
       style="fill:url(#SVGID_3_)" /></g></svg>