<svg width="5.1763mm" height="5.176mm" version="1.1" viewBox="0 0 5.1763 5.176" xmlns="http://www.w3.org/2000/svg">
 <g transform="translate(116.02 -65.358)">
  <path d="m-111.71 68.61c-0.12876 0.14958-0.32879 0.23883-0.53587 0.23883-0.13687 0-0.25647-0.03845-0.36512-0.11783v0.77929h-0.39123v-2.0994l0.43709 0.44168-5e-3 0.0063c-0.0639 0.07338-0.0991 0.16722-0.0991 0.26458 0 0.22225 0.18062 0.40287 0.40287 0.40287s0.40287-0.18062 0.40287-0.40287c0-0.21519-0.16792-0.39194-0.38276-0.40252l-3e-3 -3.44e-4 -0.27234-0.27446 0.0113-0.0053c0.0878-0.04127 0.18379-0.06209 0.28504-0.06209 0.38876 0 0.69321 0.3235 0.69321 0.7366 0 0.18627-0.0631 0.36195-0.17745 0.49459m-1.6852-1.6545-0.40569 0.40605v-0.64029h0.40569zm0 1.0291c-3e-3 0.28928-0.0889 0.50518-0.26176 0.66005-0.14957 0.13335-0.37182 0.20955-0.6096 0.20955-0.23812 0-0.46037-0.0762-0.60995-0.20955-0.17604-0.15769-0.26176-0.37924-0.26176-0.67663v-1.2467h0.40569v1.2756c0 0.16828 0.0413 0.2854 0.12983 0.3676 0.0847 0.08184 0.2039 0.127 0.33619 0.127 0.13194 0 0.25153-0.04516 0.3362-0.127 0.0885-0.0822 0.12947-0.19932 0.12947-0.3676v-0.18486l0.40569-0.4057zm-0.0325-2.6271c-1.4291 0-2.588 1.1589-2.588 2.588 0 1.4295 1.1589 2.588 2.588 2.588 1.4294 0 2.5883-1.1585 2.5883-2.588 0-1.4291-1.1589-2.588-2.5883-2.588" fill="#f4f0dc"/>
 </g>
</svg>
