<?xml version="1.0" encoding="UTF-8" standalone="no"?>
<svg
   xmlns:dc="http://purl.org/dc/elements/1.1/"
   xmlns:cc="http://creativecommons.org/ns#"
   xmlns:rdf="http://www.w3.org/1999/02/22-rdf-syntax-ns#"
   xmlns:svg="http://www.w3.org/2000/svg"
   xmlns="http://www.w3.org/2000/svg"
   xmlns:sodipodi="http://sodipodi.sourceforge.net/DTD/sodipodi-0.dtd"
   xmlns:inkscape="http://www.inkscape.org/namespaces/inkscape"
   width="666.14624pt"
   height="666.10797pt"
   viewBox="0 0 666.14624 666.10797"
   version="1.1"
   id="svg14"
   sodipodi:docname="Up Network.svg"
   inkscape:version="0.92.0 r15299">
  <metadata
     id="metadata20">
    <rdf:RDF>
      <cc:Work
         rdf:about="">
        <dc:format>image/svg+xml</dc:format>
        <dc:type
           rdf:resource="http://purl.org/dc/dcmitype/StillImage" />
        <dc:title></dc:title>
      </cc:Work>
    </rdf:RDF>
  </metadata>
  <defs
     id="defs18" />
  <sodipodi:namedview
     pagecolor="#ffffff"
     bordercolor="#666666"
     borderopacity="1"
     objecttolerance="10"
     gridtolerance="10"
     guidetolerance="10"
     inkscape:pageopacity="0"
     inkscape:pageshadow="2"
     inkscape:window-width="1920"
     inkscape:window-height="1017"
     id="namedview16"
     showgrid="false"
     fit-margin-top="0"
     fit-margin-left="0"
     fit-margin-right="0"
     fit-margin-bottom="0"
     inkscape:zoom="1.2225436"
     inkscape:cx="347.46487"
     inkscape:cy="373.53868"
     inkscape:window-x="-8"
     inkscape:window-y="-8"
     inkscape:window-maximized="1"
     inkscape:current-layer="svg14" />
  <path
     style="opacity:1;fill:#f4f6e0;fill-opacity:1;stroke:none;stroke-width:0.59111816;stroke-opacity:1"
     d="M 444.09766,0 C 326.31561,-4.243225e-5 213.35759,46.785999 130.07311,130.06572 46.788628,213.34543 -7.1612617e-5,326.29698 0,444.07227 -6.8960297e-5,561.84756 46.788632,674.7991 130.07311,758.07882 c 83.28448,83.27971 196.2425,130.06575 314.02455,130.06571 117.78205,4e-5 230.74007,-46.786 314.02454,-130.06572 C 841.40668,674.7991 888.19538,561.84756 888.19531,444.07227 888.19538,326.29698 841.40668,213.34544 758.12221,130.06572 674.83773,46.786003 561.87971,-3.9780236e-5 444.09766,0 Z m -293.49414,234.2207 69.54687,0.0254 c 0.0133,65.93334 3.4e-4,131.88112 0.0137,197.81446 0.08,20.28 -1.42729,41.35927 6.35938,60.58593 7.2,19.04 24.03924,33.23974 42.89258,40.06641 17.70666,6.14667 37.29338,6.66787 55.38671,1.89453 22.32,-6.01333 42.57461,-22.4007 49.97461,-44.7207 7.64,-22.08 4.7187,-45.77302 5.33204,-68.67969 l 69.40039,-69.26758 c 0.0533,32.92 6.7e-4,65.82805 0.0273,98.74805 -0.26667,28.73333 -5.54792,58.20023 -20.28125,83.24023 -13.65333,23.68 -35.59917,42.15987 -60.8125,52.53321 -24.6,10.49333 -51.67997,14.45281 -78.30664,13.13281 -28.12,-1.52 -56.32008,-9.21396 -80.08008,-24.64063 -21.42667,-13.81333 -38.1462,-34.59895 -47.51953,-58.26562 -9.02667,-22.14667 -11.85453,-46.29435 -11.89453,-70.04102 -0.08,-70.81333 -0.0257,-141.61244 -0.0391,-212.42578 z m 298.93348,0.0253 v 39.90832 l -69.428,69.57226 V 234.24598 Z m 200.92394,112.74816 c 7.97944,0.0312 15.95586,0.85846 23.75586,2.4668 25.17333,5.18666 48.30711,19.33367 64.78711,39.01367 34.13333,40.06667 39.5195,101.10596 14.82617,147.2793 -8.61334,16.34666 -21.06664,30.73289 -36.30664,41.21289 -24.10667,16.76 -54.33287,24.43929 -83.51953,21.27929 -17.98667,-1.81333 -35.36112,-8.78593 -49.81446,-19.58593 -0.10666,44.6 -0.0391,89.21445 -0.0391,133.81445 l -67.10742,0.0391 v -360 c 24.90667,25.22667 49.87976,50.39935 74.75976,75.66602 -13.14666,14.66666 -19.85229,35.02823 -17.26562,54.60156 1.76,16.34667 9.85333,31.83857 22,42.86523 13.24,12.32 31.54661,19.0011 49.61328,18.1211 22.09333,-0.65334 43.29255,-12.96149 55.19922,-31.52149 8.30667,-12.54666 12.08026,-27.90557 10.93359,-42.8789 -1.25333,-18.52 -10.44078,-36.33341 -24.80078,-48.08008 -11.50667,-9.68 -26.29229,-15.18685 -41.26562,-15.85352 -15.57334,-15.62666 -31.06729,-31.32026 -46.64063,-46.93359 15.7575,-7.79167 33.32999,-11.57447 50.88477,-11.50586 z"
     transform="scale(0.74999998)"
     id="path4497"
     inkscape:connector-curvature="0"
     sodipodi:nodetypes="sscssscssccccccccccccccccccccccsccccccccccccccccccs" />
</svg>
