<svg height="450pt" viewBox="0 0 834.96771 450" width="834.96771pt" xmlns="http://www.w3.org/2000/svg"><g transform="matrix(5.2185482 0 0 5.2185482 0 .620162)"><path d="m437.79883 0-437.79883 55.447266v217.927734l101.58984-13.15234v321.81054l841.99219-93.86328v111.83008l169.70897-21.58398v-122.39258l-48.0137 5.63672v-380.466801l-627.47847 70.066411zm-89.04883 52.78125c7.1992-.05068 14.38922 1.061502 21.2168 3.431641 7.70782 2.714678 12.62317 5.770503 10.01172 16.484375-2.24148 4.928237-6.98954 6.659937-14.31055 3.574218-10.05673-3.24649-20.43899-5.647472-30.93359-2.65625-38.68641 9.671599-50.65836 68.809886-20.25196 93.789066 15.67762 10.7989 32.6969 3.28758 48.4336-4.06055 5.88645-2.74765 12.56661-8.35626 17.17773-.80469 2.76276 4.92035 1.08704 10.93605-3.95117 14.33008-4.84666 3.0774-7.33983 4.42095-14.65625 7.88281-20.17126 9.21775-44.61484 11.47898-62.58789-3.36328-30.4064-26.16202-27.34293-77.29794-1.11133-105.408201 12.53308-14.685702 31.77218-23.064118 50.96289-23.199219zm-121.87109 16.001953c8.9845-.217433 17.71548 1.213642 25.19531 6.849609 18.92575 13.637657 16.13617 44.041558.13281 58.931638-12.31564 13.22018-31.52006 13.01563-48.08008 15.79883v45.77344c0 6.93721-.7926 8.19911-2.47265 9.60742-2.88968 2.23497-7.55195 3.40078-11.88868 2.37695-3.0039-.80233-5.25401-3.21269-5.1875-7.73437v-117.037111c.00001-9.32703 9.46292-10.644286 15.58594-11.548828 8.6725-1.30683 17.73035-2.800123 26.71485-3.017578zm-82.42383 10.638672c4.72261.141067 7.41992 3.221369 7.41992 5.505859v90.478516c-.97411 36.52945-50.09652 58.58953-78.554688 36.67187-14.681346-12.52435-13.082275-33.54008-13.291015-51.07421v-65.937504c0-7.568672 5.250871-9.842603 11.103515-9.427734 3.454066.244857 7.347657 1.425583 7.347657 4.787109v86.414059c0 17.32131 8.341658 23.49306 25.482421 24.48438 13.66948-.56937 28.05962-10.68764 28.56445-25.28516l.90821-87.390622c.0722-6.953263 2.69239-8.191638 8.87304-9.097657.75538-.11073 1.47183-.149058 2.14649-.128906zm83.9707 8.289063c-1.33569-.04042-2.71975.01723-4.13672.164062l-20.16211 2.087891v41.820309c7.6246-.94091 17.39192-1.74653 25.3086-5.04101 10.97701-4.56802 15.15456-8.69433 15.25976-21.6836.0974-12.03253-6.91972-17.064683-16.26953-17.347652zm777.83592 77.015622c13.7816.13886 26.6303 7.69929 26.5938 23.75977l-41.95706 185.43164c-6.77535 24.54488-27.97428 37.40663-49.06446 33.66992-15.31754-2.99356-16.60479-7.66495-23.17578-22.65039-9.95518-21.39141-14.27924-45.48758-21.625-67.79688-8.21052 27.62353-13.63735 56.36015-25.39648 82.80079-6.17528 15.31849-23.7782 23.22733-39.89453 21.5957-18.01359-2.30001-22.58472-6.72263-30.44727-28.89258-3.32624-9.31233-5.58028-19.11814-8.42383-28.4668l-31.45117-140.13671c-3.23244-15.7818 10.12257-28.59122 25.08985-32.60157 15.4437-3.83542 29.34068-1.82722 34.98632 24.88672l20.35938 92.25586 22.61523-98.17773c2.35371-14.04882 15.20262-24.11325 29.09766-27.0586 14.95463-2.77996 31.03512 2.03216 34.53516 16.94336l24.55273 87.90625 20.32031-95.40234c4.4899-16.98644 7.13428-25.74943 27.35744-27.67383 1.972-.2799 3.9589-.41241 5.9277-.39258zm-529.67381 64.98242c12.75773-.194 24.60613 6.26365 26.0625 21.19141 1.14305 58.36215.40206 116.72374.41406 175.08594.006 10.6786.56943 22.3994-7.92773 28.94726-5.78367 6.0242-13.95876 10.06037-22.24024 11.1875-11.42508 1.34627-29.40529-1.28377-29.53515-21.77539l-.75977-71.54101-54.82812 6.54101-.48828 73.19922c-1.12674 18.40323-21.86069 30.12206-38.94922 27.69922-11.12056-1.75507-19.6543-7.13586-19.6543-24.97852l-1.45703-180.19531c-.65557-14.857 11.59363-26.50543 25.46484-30.24414 22.81932-3.61806 36.06825 9.04285 35.24414 30.27344l-.0918 51.92187 54.62109-6.67968-.01-50.44336c0-21.94032 6.09957-40.18946 34.13477-40.18946zm-233.95703 27.125c17.71453.10601 35.32673 4.95537 49.67773 15.56641 16.14271 12.45495 8.55702 39.03436-8.49023 46.75781-21.75897 14.15959-48.24569-22.12526-66.78516-3.13086-7.31318 8.24739-7.95719 18.05574 8.16992 24.06055 23.86407 10.32256 52.37822 12.58296 69.05274 34.5957 23.93573 31.72878 11.82862 80.50494-19.13477 103.25782-32.03484 25.01524-81.97717 30.07391-115.20898 5.5664-4.51688-3.6527-9.35901-6.79339-12.11719-13.53515-6.59864-17.39811 10.34367-39.40008 28.60547-39.51368 7.29601.28554 14.20946 3.40991 21.00586 7.36914 7.18095 3.95299 14.39902 8.40222 22.01953 8.88282 8.14185.48465 14.80108-2.56816 20.74219-8.92774 7.08005-8.57882 8.59859-22.16678-3.10742-27.12695-28.3889-13.42907-67.77089-16.97727-81.26953-50.09766-17.74306-41.88754 14.82072-87.67201 55.52539-99.01367 10.01961-3.13113 20.68573-4.77454 31.31445-4.71094zm817.95504 233.73438c4.7443.0854 8.7747.98195 11.8633 3.09961 9.8388 5.64616 15.0633 17.52724 14.3496 29.35937-.3555 5.09858-1.4987 10.79375-4.2168 15.88282-3.6321 5.77965-6.1123 9.27063-12.1855 12.40625-4.99 2.68442-10.7317 3.21294-16.5274 3.89453l-11.164 1.3125c-2.3153.28029-3.5857.89509-3.6582-3.28711v-57.48633c.1223-.90809-.4453-2.37272 2.6699-2.87109 3.3521-.68555 6.5672-1.2667 9.6074-1.67579 3.3111-.44553 6.4152-.68602 9.2617-.63476zm-38.2539 5.08203c1.5681-.002 2.876.34247 3.0801 1.14063v61.71289c-.4878 1.82085-9.1855 2.95389-9.1855 1.30273v-26.42383l-22.05863 3.71094v24.9043c0 1.2644-9.2707 2.59813-9.66992 1.22851v-59.78906c.0908-1.61209 8.01095-3.67483 9.66992-1.7832v24.83789l22.05863-3.74414v-24.67383c.155-1.45088 3.492-2.41973 6.1054-2.42383zm36.8086 3.68555c-2.6889-.0602-5.596.25582-8.4863.82422-.656.17577-1.5879.16056-1.5879 1.82812v43.19531c0 .62467-.054 1.64316 1.3672 1.53516 6.6218-.58364 11.9553-1.60922 16.0781-4.39648 8.0479-5.44071 11.3657-14.33028 10.8574-22.95508-.4758-8.07339-3.8883-15.28697-11.0566-18.60352-2.0122-.93099-4.483-1.36754-7.1719-1.42773z" fill="#369b98" stroke-width="6.958064" transform="matrix(.14371813 0 0 .14371813 0 -.118838)"/><path d="m29.35 12.81c2-.18 5.96-.99 5.84 2.17.23 3.21-3.47 3.55-5.82 3.84-.01-2-.01-4-.02-6.01z" fill="#369b98"/></g><path d="m418.84873 276.92917c8.08035 4.6671 16.99655 7.03549 26.05209 7.03549 4.52777 0 9.1252-.6269 13.65297-1.81115 13.51364-3.62219 24.72856-12.25973 31.69438-24.31055 2.22905-3.76159.90553-8.56797-2.856-10.72736-3.76153-2.15938-8.56792-.90557-10.7273 2.85601-4.87606 8.42858-12.7474 14.48878-22.22089 16.9965-9.40383 2.50767-19.29527 1.25386-27.72391-3.62225-17.41445-10.10034-23.40503-32.46057-13.3743-49.87507 2.15938-3.76153.90557-8.56792-2.85596-10.7273-1.67181-.97524-3.55257-1.25386-5.294-.97524 16.16064-24.38028 43.81482-40.47125 75.23059-40.47125 49.80539 0 90.1373 40.33196 90.1373 90.0677 0 49.73579-40.33191 89.99809-90.1373 89.99809-49.73579 0-90.13743-40.2623-90.13743-89.99809 0-7.17477.90558-14.14054 2.50772-20.82769-.418 18.45936 8.98587 36.57038 26.05204 46.39216z" fill="#fdc400"/></svg>