<svg height="114.11056mm" viewBox="0 0 211.66667 114.11056" width="211.66667mm" xmlns="http://www.w3.org/2000/svg" xmlns:xlink="http://www.w3.org/1999/xlink"><clipPath id="a"><path d="m634.051 485.064h19.536v7.457h-19.536z"/></clipPath><g clip-path="url(#a)" transform="matrix(15.30268 0 0 -15.30268 -9746.350344999997 7536.889725999999)"><g transform="translate(650.7368 485.3239)"><path d="m0 0v1.537l-.6-.073v4.727l-7.789-.858v1.864l-5.443-.668v-2.724l1.253.154v-3.992l10.461 1.154v-1.381zm-1.603.87c0 .03.022.053.052.057.029.003.051-.014.051-.044l.001-.25.296.038-.001.249c0 .03.022.053.052.057.029.003.051-.014.051-.044l.002-.634c0-.029-.022-.054-.051-.057-.03-.004-.052.015-.052.044l-.001.285-.296-.037.001-.285c0-.029-.022-.054-.051-.058-.03-.003-.052.016-.052.045zm-10.338 4.253c0-.179-.078-.585-.571-.646-.492-.06-.568.327-.568.506v.999c0 .067.052.12.12.128.064.008.114-.032.114-.1v-.993c0-.124.054-.349.337-.314s.335.272.335.396v.994c0 .067.049.12.116.128.068.008.117-.032.117-.1zm.957-1.128c.262.032.532-.019.739-.155.096-.063.146-.15.146-.259 0-.189-.151-.357-.337-.38-.082-.01-.175.008-.245.052-.121.076-.205.111-.303.099-.125-.015-.218-.111-.218-.22 0-.346 1.171-.111 1.171-1.088 0-.539-.428-.967-1.035-1.041-.293-.036-.563.035-.795.193-.093.064-.152.159-.152.256 0 .178.145.362.343.386.107.013.2-.035.266-.077.107-.066.202-.132.338-.115.18.022.285.135.285.306 0 .352-1.171.151-1.171 1.088 0 .475.425.888.968.955m.438 1.945c0-.371-.268-.533-.506-.563l-.254-.031v-.588c0-.068-.05-.123-.117-.131-.067-.009-.117.034-.117.102v1.439c0 .068.05.123.117.131l.371.046c.285.035.506-.138.506-.405m1.459.426c0-.065-.06-.122-.114-.129-.026-.003-.049.002-.07.015-.034.022-.143.084-.35.058-.298-.036-.521-.339-.521-.691 0-.355.21-.6.497-.564.128.016.251.072.364.148.015.01.044.024.062.026.065.008.117-.045.117-.105 0-.041-.012-.075-.05-.099-.166-.106-.319-.174-.493-.196-.422-.052-.739.273-.739.76 0 .488.332.894.763.947.267.033.428-.038.485-.078.028-.02.049-.054.049-.092m1.495-4.584c0-.187-.161-.347-.368-.373-.207-.025-.371.096-.371.282v.882l-.695-.085v-.882c0-.187-.164-.348-.371-.373-.207-.026-.368.095-.368.282v2.282c0 .184.161.343.368.368.209.026.371-.093.371-.277v-.755l.695.085v.755c0 .184.162.343.371.368.207.026.368-.093.368-.277zm6.583 3.081c0-.073-.02-.137-.054-.313-.066-.35-.391-1.901-.534-2.164-.066-.122-.205-.221-.405-.245-.143-.018-.232.01-.302.072-.089.077-.221.457-.389 1.068-.168-.652-.286-1.056-.387-1.164-.077-.084-.17-.13-.304-.146-.18-.022-.332.032-.402.146-.173.281-.478 1.776-.528 2.011-.034.157-.061.265-.061.356 0 .17.163.318.368.343.189.023.318-.038.368-.23.012-.04.037-.175.046-.219.02-.102.111-.56.216-1.026.104.433.204.891.286 1.242.046.196.205.304.398.328.198.025.359-.044.402-.232.073-.323.18-.746.28-1.139.127.577.243 1.208.261 1.296.037.168.173.278.366.302.218.027.375-.097.375-.286m.658-4.156c.001-.212-.133-.382-.327-.406l-.194-.024c-.03-.004-.05.015-.05.045l-.002.633c0 .03.02.053.05.057l.194.024c.193.024.328-.114.329-.329m-.106-.013c0 .157-.086.26-.223.243l-.141-.018.001-.537.142.018c.136.017.222.139.221.294m-10.331 5.216c0 .135-.111.228-.264.209l-.254-.031v-.516l.254.031c.124.015.264.105.264.307" fill="#3ea095"/></g><g transform="translate(646.3499 488.3566)"><path d="m0 0c0-.821-.668-1.489-1.489-1.489-.825 0-1.493.668-1.493 1.489 0 .141.02.275.052.4 0-.086.011-.177.03-.264.047-.231.206-.42.411-.532.141-.077.284-.115.434-.115.305 0 .6.159.759.438.039.068.019.15-.047.189s-.148.016-.189-.052c-.168-.282-.532-.382-.816-.219-.139.08-.243.21-.282.364-.039.155-.023.312.059.455.039.068.014.145-.054.186-.023.014-.053.021-.078.021.273.375.712.622 1.214.622.821 0 1.489-.666 1.489-1.493" fill="#fabb1e"/></g></g></svg>