<svg height="601.75446" width="997.60449" xmlns="http://www.w3.org/2000/svg"><path d="m530.10815 212.53444c-1.46669.52869-2.93339.85273-4.38303.85273-4.50241.0171-6.75362-1.80779-6.75362-6.53191l.0341-8.18621-8.15209.0171-.0341 10.13043c0 3.18921-2.4047 4.50242-5.47453 4.50242-3.08688 0-5.44042-1.24499-5.38925-4.53652l.15349-24.14931c0-1.92717-3.22332-1.24499-3.22332-3.95667-.017-1.89306 1.17677-2.88223 2.91634-3.46208 1.44964-.52869 2.91633-.83568 4.38303-.83568 4.43419 0 6.78773 1.82485 6.80478 6.51486l-.0512 7.6234 8.15209-.0171.0341-9.55057c0-3.18921 2.30237-4.48536 5.3722-4.50242 3.08688 0 5.49158 1.24499 5.45747 4.48536l-.22171 24.18342c0 1.94422 3.29154 1.26204 3.29154 3.97372 0 1.89306-1.26204 2.88223-2.91634 3.44503m-37.28134-30.39129-9.10716 25.08731c-1.14266 3.24037-3.59852 6.42958-7.87922 6.44663-4.07605 0-6.90711-2.814-7.89628-6.41252l-6.36136-22.51207c-.5287-1.99539-3.49619-.88684-3.51325-4.38303 0-1.51786 1.21088-2.50703 2.76284-3.13805 1.62019-.57985 2.98456-.85273 4.12722-.85273 3.29153 0 6.32725 1.0915 7.0606 4.48536l4.94583 21.47174h.32404l6.75362-21.69345c.83568-2.72873 1.87601-3.92255 5.21871-3.93961 2.02949 0 5.23576.938 3.56441 5.44042m84.67607 79.62791c-.0171-9.0901-7.38464-16.47474-16.4918-16.44064h-4.43419c-9.15832-.44341-16.52591-7.36758-16.52591-16.49179h.0341l-.2387-128.77925c-.0341-9.124216-7.41875-16.508856-16.54296-16.491801l-30.39129.05116c-4.79234 0-10.5909 2.814008-13.59251 6.054381-14.29175 12.60335-24.69506 19.10115-43.72799 21.72756-9.12421.0171-17.63445 7.4017-17.60034 16.54296l.017 18.84533c.0171 16.50885 7.43581 16.49179 16.54296 16.47474l9.95989-.0171c4.57063 0 7.4358 3.6838 7.45286 8.23737l.0853 58.48021c0 9.10716-7.38464 15.53674-16.4918 15.53674l-9.22653.0171c-9.10716.017-16.4918 7.40169-16.47474 16.50884l.0512 30.91999c.0171 9.12421 7.41875 16.49179 16.5259 16.45768l134.62899-.1876c9.15831-.0171 16.50884-7.40169 16.49179-16.5259l-.0512-30.91998"/><path d="m17.924528 578.27025c-12.1258177-14.24059-17.89027114-30.25486-17.92438033-52.63049-.08527298-42.68765 36.76970833-84.18148 85.47763533-84.2497 18.777107 0 37.827097 1.14266 53.858417 11.69945 13.06382 8.47614 14.29175 18.47013 12.79094 28.14009-2.42175 16.91816-6.94122 22.10275-26.60517 23.63767-10.5909.92095-24.21752-2.67757-27.25324-14.51346-1.227931-4.21249-3.342701-6.94122-6.378419-6.94122-3.59852.0341-7.862169 1.53491-10.863778 4.87761-8.442025 9.70406-10.249812 28.14008-10.249812 38.73099.05116 9.10715 1.841896 16.35535 5.184597 21.50584 5.764453 8.13504 14.240588 9.92578 21.505846 9.92578 8.476136-.0341 16.355356-2.74579 26.025316-8.81723 9.94283-6.37842 19.95387-3.03572 26.02531 5.40631 5.45747 7.57224 3.95667 16.35536-2.69463 23.60356-8.16915 9.10715-28.70288 23.04076-63.221383 23.10898h-.255819c-31.295184 0-50.600986-6.94122-65.42143-23.48418"/><path d="m172.20048 566.2126-.22171-154.88984c-.0512-20.27792 15.07626-27.56023 34.12624-27.61139 18.76006-.0341 34.19447 7.23114 34.24563 27.492l.22171 136.43677c0 13.01265 18.77712 4.21248 18.77712 23.56945.0341 10.28393-6.90711 16.35536-19.32286 21.23297-9.97694 3.95667-18.45308 5.7474-32.35258 5.78151-17.85615.0512-35.43944-12.04055-35.47355-32.01147"/><path d="m350.36985 530.24446-14.20648 4.8776c-3.95668 1.19383-6.68541 4.84351-6.6513 7.86218v2.11477c0 5.76445 5.15049 8.74901 9.68701 8.74901 11.81884 0 17.22515-6.97534 17.22515-14.53052v-6.34431c-.0341-1.63725-1.50081-3.121-3.83729-3.121-.68219 0-1.41553.11939-2.21709.39227m-80.77057 22.80199c-.0512-25.71833 16.61117-34.50145 40.18063-40.87987l45.68925-11.87-.0341-7.58929c0-6.95828-4.26364-11.47774-11.22192-11.47774-7.55519.0341-9.05599 1.84189-11.47774 8.52729-4.51947 13.31964-15.38325 14.85455-28.08892 14.85455-16.04837 0-24.84855-6.03732-24.88266-23.27952 0-13.31964 1.19382-22.37563 26.91215-31.82388 13.28554-4.55357 31.1417-7.58929 42.03958-7.58929 49.90175-.0852 71.44171 21.35236 71.47582 61.31128l.0682 38.98679c0 6.99239 1.53491 9.10716 9.41414 11.4948 4.51946 1.21089 9.05598 6.05439 9.10715 14.24059 0 9.66996-5.42336 15.72434-17.51507 21.79578-8.4932 4.53652-19.64689 7.60635-30.56184 7.60635-15.4344.0341-25.71833-8.7149-29.36802-20.80661l-.61396-1.53491c-10.86378 17.58329-31.7386 23.33068-42.63649 23.36479-34.48439.0512-48.418-18.99881-48.48621-45.33111"/><path d="m453.63542 579.12292c-6.6854-8.1862-7.29937-19.66394-.97211-26.63928 8.49319-8.80017 20.58489-9.72111 29.64088-1.85895 6.68541 5.73035 13.96772 8.76606 22.4268 8.76606 6.36137-.0512 10.89789-1.85895 12.70567-4.57063 1.48375-2.42174.28993-5.76445-4.2807-9.41413-5.13344-3.9055-15.11037-6.60013-29.04397-14.15531-13.93361-7.52108-31.1758-19.61279-31.20991-42.61945-.0852-29.02692 31.97736-47.5482 68.59358-47.59937 34.16036-.0341 49.93585 11.13665 58.12206 21.38647 6.6854 8.16915 6.6854 16.04837 1.84189 23.91053-5.15048 7.87923-17.80499 10.91495-28.44706 3.95668-6.32725-4.22954-14.82044-6.60014-21.1818-6.60014-4.84351-.30697-8.45909 1.22793-9.68702 3.95667-1.48375 4.51947 1.53491 7.86217 11.52891 12.65451 9.39708 4.84351 19.37402 8.1521 28.78816 13.28553 13.01266 7.52108 24.21752 19.04998 24.25163 39.00386.0512 19.66395-19.57867 48.70793-69.51453 48.79321h-.34109c-35.78054 0-54.77936-12.04055-63.22139-22.25626"/><path d="m604.60271 578.88416c-6.66835-8.16915-7.28231-19.64689-.95507-26.63928 8.44203-8.80017 20.56785-9.70406 29.67501-1.8419 6.63423 5.71329 13.89949 8.74901 22.37563 8.71491 6.37841 0 10.91493-1.8078 12.70567-4.57064 1.50081-2.42175.30698-5.71329-4.26365-9.36297-5.13343-3.92256-15.11038-6.60013-29.06103-14.17237-13.9336-7.52108-31.19286-19.61278-31.24403-42.60238-.0341-29.06104 32.02854-47.56527 68.64475-47.59938 34.16036-.0853 49.93587 11.1196 58.12207 21.38647 6.63424 8.11798 6.66835 16.03131 1.8419 23.91054-5.15049 7.86217-17.82206 10.89788-28.44707 3.93961-6.34431-4.21248-14.82044-6.63424-21.19886-6.60013-4.82645-.28992-8.44203 1.22793-9.66996 3.95666-1.5008 4.53653 1.53492 7.84512 11.51185 12.67157 9.41414 4.84351 19.39108 8.13505 28.78816 13.28553 13.01266 7.52108 24.23458 18.99882 24.26869 39.00386.0341 19.6469-19.61278 48.70793-69.51453 48.79321h-.34109c-35.7976 0-54.77937-12.05761-63.23844-22.27331"/><path d="m753.47227 406.47925c0-19.64689 25.99121-25.75244 41.42561-25.75244 15.7414-.0341 32.69367 4.79234 32.69367 23.53535.0512 20.26085-22.34152 24.55861-38.06586 24.55861h-.32403c-15.09332 0-35.67822-2.77989-35.72939-22.34152m1.4667 149.79051-.11938-85.64817c-.0341-20.56785 15.9631-27.50907 34.12624-27.56023 17.85617-.0341 34.21152 6.89005 34.24563 27.4579l-.1876 78.07594c.0341 12.09171 19.98799 7.82806 20.03915 23.87643 0 11.20487-6.37842 16.93522-16.62823 20.31203-8.80017 2.72873-17.85616 4.26364-27.25324 4.26364-28.10598.0341-44.18846-11.44363-44.22257-40.77754"/><path d="m862.68991 576.95699c-12.12583-14.18942-17.89027-30.20369-17.92439-52.63048-.0852-42.63649 36.76971-84.13032 85.47764-84.2156 18.77711-.0341 37.81004 1.15972 53.85841 11.71651 13.06383 8.44203 14.25765 18.41896 12.75684 28.14008-2.38764 16.91816-6.92416 22.06865-26.57106 23.60356-10.5909.92096-24.21752-2.69462-27.25324-14.47935-1.22794-4.21249-3.3427-6.94122-6.37842-6.94122-3.59852 0-7.86217 1.53491-10.86378 4.87761-8.47613 9.66996-10.24981 28.14009-10.24981 38.73099.0512 9.056 1.84189 16.3042 5.1846 21.45469 5.76445 8.16914 14.24058 9.97694 21.50584 9.97694 8.47614-.0341 16.35536-2.76285 26.02532-8.81723 9.94283-6.37843 19.95388-3.08688 26.02531 5.4063 5.44042 7.57225 3.95667 16.32125-2.69462 23.60356-8.16915 9.10716-28.70289 23.04076-63.22139 23.07487h-.51164c-31.14169 0-50.39633-6.95827-65.16561-23.50123"/><path d="m347.607 206.78698c0 81.69152 66.20593 147.91451 147.89745 147.91451s147.94862-66.22299 147.94862-147.91451c0-81.69151-66.2571-147.897454-147.94862-147.897454s-147.89745 66.205944-147.89745 147.897454m-58.85541 0c0-114.197574 92.55529-206.78698 206.75286-206.78698 114.19758 0 206.80404 92.589406 206.80404 206.78698 0 114.21463-92.60646 206.80404-206.80404 206.80404-114.19757 0-206.75286-92.58941-206.75286-206.80404"/></svg>