<svg height="266.66666" viewBox="0 0 250 250" width="266.66666" xmlns="http://www.w3.org/2000/svg"><g transform="matrix(13.571467 0 0 -13.571467 -3645.730323 8404.76884)"><path d="m276.213 601.994.315-.052-.081.476zm6.408.677-.569.883-.413-.268-.226.324s.244.143.63.403c.385.261.618.465.618.465l.247-.366-.411-.268.569-.864zm-1.343-.712-.156.187-.522-.187v-.254l-.532-.153.084 1.511.606.237 1.022-1.11zm-2.641-.662c-.408-.036-.857-.02-.894.374l.637.057c.007-.045.026-.074.065-.09.041-.016.1-.02.183-.012.165.015.205.064.2.127-.003.041-.031.077-.103.082l-.612.035c-.263.016-.384.157-.401.345-.031.347.301.471.735.51.597.054.857-.08.901-.362l-.615-.055c-.004.055-.039.085-.091.1-.048.016-.109.019-.167.013-.157-.014-.208-.058-.203-.114.003-.037.022-.061.075-.064l.641-.037c.27-.016.446-.125.466-.351.029-.327-.223-.505-.817-.558m-2.024.051-.022.251-.547.091-.122-.218-.525.134.792 1.283.643-.131.338-1.47zm-1.836.462-.498.203.522 1.33.498-.196zm-2.188 1.189.262 1.635.481-.399-.249-.998.79.614.502-.306-1.326-.882zm9.661 15.172-1.319-1.807c2.314-1.144 3.911-3.528 3.911-6.279 0-3.862-3.141-7.003-7.002-7.003-3.86 0-7.001 3.141-7.001 7.003 0 2.625 1.454 4.917 3.598 6.114l2.202 3.017c-4.514-.591-8.012-4.459-8.012-9.131 0-5.081 4.133-9.213 9.213-9.213s9.213 4.132 9.213 9.213c0 3.483-1.944 6.521-4.803 8.086m-1.65-15.863.301.107-.303.376z" fill="#040403"/><path d="m277.87 612.581c1.409 0 2.555-1.146 2.555-2.555s-1.146-2.556-2.555-2.556-2.555 1.147-2.555 2.556 1.146 2.555 2.555 2.555m-4.341.341-.091-.137v-.011c-.513-.826-.786-1.771-.786-2.748 0-2.878 2.341-5.219 5.218-5.219 2.878 0 5.219 2.341 5.219 5.219 0 2.669-2.015 4.875-4.604 5.18l2.544 3.485c-.898.348-1.872.542-2.891.546l-4.379-6.001c-.079-.099-.158-.207-.23-.314" fill="#9f2d17"/></g></svg>