<svg width="266.67" height="266.67" version="1.0" viewBox="0 0 250 250" xmlns="http://www.w3.org/2000/svg">
 <g transform="translate(-84.569 -381.9)">
  <g transform="matrix(13.571 0 0 -13.571 -3561.2 8786.7)" clip-path="url(#id1317)">
   <g clip-path="url(#id1318)">
    <path d="m276.21 601.99 0.315-0.052-0.081 0.476zm6.408 0.677-0.569 0.883-0.413-0.268-0.226 0.324s0.244 0.143 0.63 0.403c0.385 0.261 0.618 0.465 0.618 0.465l0.247-0.366-0.411-0.268 0.569-0.864zm-1.343-0.712-0.156 0.187-0.522-0.187v-0.254l-0.532-0.153 0.084 1.511 0.606 0.237 1.022-1.11zm-2.641-0.662c-0.408-0.036-0.857-0.02-0.894 0.374l0.637 0.057c7e-3 -0.045 0.026-0.074 0.065-0.09 0.041-0.016 0.1-0.02 0.183-0.012 0.165 0.015 0.205 0.064 0.2 0.127-3e-3 0.041-0.031 0.077-0.103 0.082l-0.612 0.035c-0.263 0.016-0.384 0.157-0.401 0.345-0.031 0.347 0.301 0.471 0.735 0.51 0.597 0.054 0.857-0.08 0.901-0.362l-0.615-0.055c-4e-3 0.055-0.039 0.085-0.091 0.1-0.048 0.016-0.109 0.019-0.167 0.013-0.157-0.014-0.208-0.058-0.203-0.114 3e-3 -0.037 0.022-0.061 0.075-0.064l0.641-0.037c0.27-0.016 0.446-0.125 0.466-0.351 0.029-0.327-0.223-0.505-0.817-0.558m-2.024 0.051-0.022 0.251-0.547 0.091-0.122-0.218-0.525 0.134 0.792 1.283 0.643-0.131 0.338-1.47zm-1.836 0.462-0.498 0.203 0.522 1.33 0.498-0.196zm-2.188 1.189 0.262 1.635 0.481-0.399-0.249-0.998 0.79 0.614 0.502-0.306-1.326-0.882zm9.661 15.172-1.319-1.807c2.314-1.144 3.911-3.528 3.911-6.279 0-3.862-3.141-7.003-7.002-7.003-3.86 0-7.001 3.141-7.001 7.003 0 2.625 1.454 4.917 3.598 6.114l2.202 3.017c-4.514-0.591-8.012-4.459-8.012-9.131 0-5.081 4.133-9.213 9.213-9.213s9.213 4.132 9.213 9.213c0 3.483-1.944 6.521-4.803 8.086m-1.65-15.863 0.301 0.107-0.303 0.376z" fill="#040403"/>
    <path d="m277.87 612.58c1.409 0 2.555-1.146 2.555-2.555s-1.146-2.556-2.555-2.556-2.555 1.147-2.555 2.556 1.146 2.555 2.555 2.555m-4.341 0.341-0.091-0.137v-0.011c-0.513-0.826-0.786-1.771-0.786-2.748 0-2.878 2.341-5.219 5.218-5.219 2.878 0 5.219 2.341 5.219 5.219 0 2.669-2.015 4.875-4.604 5.18l2.544 3.485c-0.898 0.348-1.872 0.542-2.891 0.546l-4.379-6.001c-0.079-0.099-0.158-0.207-0.23-0.314" fill="#9f2d17"/>
   </g>
  </g>
 </g>
</svg>
