<?xml version="1.0" encoding="UTF-8" standalone="no"?>
<!-- Created with Inkscape (http://www.inkscape.org/) -->

<svg
   xmlns:dc="http://purl.org/dc/elements/1.1/"
   xmlns:cc="http://creativecommons.org/ns#"
   xmlns:rdf="http://www.w3.org/1999/02/22-rdf-syntax-ns#"
   xmlns:svg="http://www.w3.org/2000/svg"
   xmlns="http://www.w3.org/2000/svg"
   xmlns:sodipodi="http://sodipodi.sourceforge.net/DTD/sodipodi-0.dtd"
   xmlns:inkscape="http://www.inkscape.org/namespaces/inkscape"
   width="266.66666"
   height="266.66666"
   id="svg2"
   sodipodi:version="0.32"
   inkscape:version="0.92.0 r15299"
   version="1.0"
   inkscape:output_extension="org.inkscape.output.svg.inkscape"
   sodipodi:docname="Viasat6 - Dark.svg"
   viewBox="0 0 250 250">
  <metadata
     id="metadata12">
    <rdf:RDF>
      <cc:Work
         rdf:about="">
        <dc:format>image/svg+xml</dc:format>
        <dc:type
           rdf:resource="http://purl.org/dc/dcmitype/StillImage" />
        <dc:title></dc:title>
      </cc:Work>
    </rdf:RDF>
  </metadata>
  <defs
     id="defs10" />
  <sodipodi:namedview
     pagecolor="#ffffff"
     bordercolor="#666666"
     borderopacity="1"
     objecttolerance="10"
     gridtolerance="10"
     guidetolerance="10"
     inkscape:pageopacity="0"
     inkscape:pageshadow="2"
     inkscape:window-width="1920"
     inkscape:window-height="1017"
     id="namedview8"
     showgrid="false"
     inkscape:zoom="0.88500003"
     inkscape:cx="133.33333"
     inkscape:cy="133.33333"
     inkscape:window-x="-8"
     inkscape:window-y="-8"
     inkscape:window-maximized="1"
     inkscape:current-layer="layer1" />
  <g
     inkscape:label="Layer 1"
     inkscape:groupmode="layer"
     id="layer1"
     transform="translate(-84.569223,-381.89726)">
    <g
       id="g12551"
       clip-path="url(#id1317)"
       transform="matrix(13.571467,0,0,-13.571467,-3561.1611,8786.6661)">
      <g
         id="g12553"
         clip-path="url(#id1318)">
        <path
           id="path12555"
           d="m 276.213,601.994 0.315,-0.052 -0.081,0.476 z m 6.408,0.677 -0.569,0.883 -0.413,-0.268 -0.226,0.324 c 0,0 0.244,0.143 0.63,0.403 0.385,0.261 0.618,0.465 0.618,0.465 l 0.247,-0.366 -0.411,-0.268 0.569,-0.864 z m -1.343,-0.712 -0.156,0.187 -0.522,-0.187 v -0.254 l -0.532,-0.153 0.084,1.511 0.606,0.237 1.022,-1.11 z m -2.641,-0.662 c -0.408,-0.036 -0.857,-0.02 -0.894,0.374 l 0.637,0.057 c 0.007,-0.045 0.026,-0.074 0.065,-0.09 0.041,-0.016 0.1,-0.02 0.183,-0.012 0.165,0.015 0.205,0.064 0.2,0.127 -0.003,0.041 -0.031,0.077 -0.103,0.082 l -0.612,0.035 c -0.263,0.016 -0.384,0.157 -0.401,0.345 -0.031,0.347 0.301,0.471 0.735,0.51 0.597,0.054 0.857,-0.08 0.901,-0.362 l -0.615,-0.055 c -0.004,0.055 -0.039,0.085 -0.091,0.1 -0.048,0.016 -0.109,0.019 -0.167,0.013 -0.157,-0.014 -0.208,-0.058 -0.203,-0.114 0.003,-0.037 0.022,-0.061 0.075,-0.064 l 0.641,-0.037 c 0.27,-0.016 0.446,-0.125 0.466,-0.351 0.029,-0.327 -0.223,-0.505 -0.817,-0.558 m -2.024,0.051 -0.022,0.251 -0.547,0.091 -0.122,-0.218 -0.525,0.134 0.792,1.283 0.643,-0.131 0.338,-1.47 z m -1.836,0.462 -0.498,0.203 0.522,1.33 0.498,-0.196 z m -2.188,1.189 0.262,1.635 0.481,-0.399 -0.249,-0.998 0.79,0.614 0.502,-0.306 -1.326,-0.882 z m 9.661,15.172 -1.319,-1.807 c 2.314,-1.144 3.911,-3.528 3.911,-6.279 0,-3.862 -3.141,-7.003 -7.002,-7.003 -3.86,0 -7.001,3.141 -7.001,7.003 0,2.625 1.454,4.917 3.598,6.114 l 2.202,3.017 c -4.514,-0.591 -8.012,-4.459 -8.012,-9.131 0,-5.081 4.133,-9.213 9.213,-9.213 5.08,0 9.213,4.132 9.213,9.213 0,3.483 -1.944,6.521 -4.803,8.086 m -1.65,-15.863 0.301,0.107 -0.303,0.376 z"
           style="fill:#040403;fill-rule:nonzero;stroke:none"
           inkscape:connector-curvature="0" />
        <path
           id="path12557"
           d="m 277.87,612.581 c 1.409,0 2.555,-1.146 2.555,-2.555 0,-1.409 -1.146,-2.556 -2.555,-2.556 -1.409,0 -2.555,1.147 -2.555,2.556 0,1.409 1.146,2.555 2.555,2.555 m -4.341,0.341 -0.091,-0.137 v -0.011 c -0.513,-0.826 -0.786,-1.771 -0.786,-2.748 0,-2.878 2.341,-5.219 5.218,-5.219 2.878,0 5.219,2.341 5.219,5.219 0,2.669 -2.015,4.875 -4.604,5.18 l 2.544,3.485 c -0.898,0.348 -1.872,0.542 -2.891,0.546 l -4.379,-6.001 c -0.079,-0.099 -0.158,-0.207 -0.23,-0.314"
           style="fill:#9f2d17;fill-rule:nonzero;stroke:none"
           inkscape:connector-curvature="0" />
      </g>
    </g>
  </g>
</svg>
