<svg height="266.66666" viewBox="0 0 250 250" width="266.66666" xmlns="http://www.w3.org/2000/svg"><path d="m102.88531 234.82709 4.27502.70572-1.09929-6.46002zm86.96597-9.18788-7.72217-11.9836-5.60502 3.63715-3.06715-4.39716s3.31144-1.94072 8.55003-5.4693c5.22501-3.54215 8.38716-6.31073 8.38716-6.31073l3.35216 4.96716-5.57788 3.63715 7.72217 11.72575zm-18.22649 9.66289-2.11714-2.53787-7.08431 2.53787v3.44715l-7.22002 2.07643 1.14-20.50648 8.22431-3.21644 13.87004 15.06433zm-35.84224 8.98431c-5.53716.48857-11.63075.27143-12.13289-5.07573l8.64502-.77357c.095.61071.35286 1.00428.88215 1.22143.55643.21714 1.35715.27143 2.48358.16285 2.23929-.20357 2.78215-.86857 2.71429-1.72357-.0407-.55643-.42071-1.045-1.39786-1.11286l-8.30574-.475c-3.56929-.21715-5.21144-2.13072-5.44216-4.68216-.42071-4.7093 4.08502-6.39216 9.97503-6.92145 8.10217-.73286 11.63075 1.08572 12.22789 4.91287l-8.34645.74643c-.0543-.74643-.52929-1.15357-1.235-1.35714-.65143-.21715-1.47929-.25786-2.26644-.17643-2.13072.19-2.82286.78714-2.755 1.54715.0407.50214.29857.82786 1.01786.86857l8.69931.50214c3.66429.21715 6.05287 1.69644 6.3243 4.76359.39357 4.43787-3.02644 6.85359-11.08789 7.57288m-27.46865-.69215-.29857-3.40644-7.42359-1.235-1.655722 2.95858-7.125021-1.81858 10.748603-17.41219 8.72645 1.77786 4.58716 19.95006zm-24.917212-6.27002-6.758591-2.755 7.084306-18.05005 6.758591 2.66zm-29.69437-16.13647 3.555724-22.18935 6.527876 5.41502-3.379295 13.54432 10.721459-8.33288 6.812876 4.15287-17.995765 11.97003zm131.113942-205.906297-17.90076 24.523641c31.40437 15.525758 53.078 47.880136 53.078 85.215246 0 52.413-42.62797 95.04098-95.02741 95.04098-52.385861 0-95.013839-42.62798-95.013839-95.04098 0-35.625106 19.732913-66.730908 48.830138-82.975954l29.884371-40.9451159c-61.261603 8.020737-108.73459419 60.5151709-108.73459419 123.9210699 0 68.95662 56.09087319 125.03392 125.03392419 125.03392 68.94305 0 125.03393-56.0773 125.03393-125.03392 0-47.269424-26.38294-88.499541-65.18376-109.738887m-22.39292 215.284177 4.08501-1.45214-4.11215-5.10287z" fill="#fff" stroke-width="13.571467"/><path d="m125.37324 91.145974c19.12219 0 34.67509 15.552896 34.67509 34.675096s-15.5529 34.68867-34.67509 34.68867c-19.1222 0-34.675103-15.56647-34.675103-34.68867s15.552903-34.675096 34.675103-34.675096m-58.913743-4.627871-1.235003 1.859291v.149287c-6.962163 11.210031-10.667174 24.035069-10.667174 37.294389 0 39.05868 31.770805 70.82949 70.81592 70.82949 39.05868 0 70.82948-31.77081 70.82948-70.82949 0-36.222244-27.3465-66.1609-62.48303-70.300197l34.52581-47.2965627c-12.18718-4.7228705-25.40579-7.35573511-39.23511-7.41002098l-59.429456 81.44237368c-1.072145 1.343575-2.144291 2.809293-3.121437 4.26144" fill="#9f2d17" stroke-width="13.571467"/></svg>