<?xml version="1.0" encoding="UTF-8" standalone="no"?>
<svg
   xmlns:dc="http://purl.org/dc/elements/1.1/"
   xmlns:cc="http://creativecommons.org/ns#"
   xmlns:rdf="http://www.w3.org/1999/02/22-rdf-syntax-ns#"
   xmlns:svg="http://www.w3.org/2000/svg"
   xmlns="http://www.w3.org/2000/svg"
   xmlns:sodipodi="http://sodipodi.sourceforge.net/DTD/sodipodi-0.dtd"
   xmlns:inkscape="http://www.inkscape.org/namespaces/inkscape"
   width="597.34528"
   height="290.17776"
   version="1.1"
   viewBox="0 0 158.0476 76.775631"
   id="svg68"
   sodipodi:docname="Vivid TV Europe - Dark.svg"
   inkscape:version="0.92.0 r15299">
  <metadata
     id="metadata74">
    <rdf:RDF>
      <cc:Work
         rdf:about="">
        <dc:format>image/svg+xml</dc:format>
        <dc:type
           rdf:resource="http://purl.org/dc/dcmitype/StillImage" />
        <dc:title></dc:title>
      </cc:Work>
    </rdf:RDF>
  </metadata>
  <defs
     id="defs72" />
  <sodipodi:namedview
     pagecolor="#ffffff"
     bordercolor="#666666"
     borderopacity="1"
     objecttolerance="10"
     gridtolerance="10"
     guidetolerance="10"
     inkscape:pageopacity="0"
     inkscape:pageshadow="2"
     inkscape:window-width="1920"
     inkscape:window-height="1017"
     id="namedview70"
     showgrid="false"
     inkscape:zoom="1.8933333"
     inkscape:cx="301.45928"
     inkscape:cy="122.36843"
     inkscape:window-x="-8"
     inkscape:window-y="-8"
     inkscape:window-maximized="1"
     inkscape:current-layer="svg68"
     fit-margin-top="0"
     fit-margin-left="0"
     fit-margin-right="0"
     fit-margin-bottom="0" />
  <path
     style="fill:#346ebf"
     inkscape:connector-curvature="0"
     id="path2"
     d="m 0,60.013014 18.673,-8.4133 6.4386,11.674 26.416,-63.27399965631 z" />
  <path
     style="fill:#346ebf"
     inkscape:connector-curvature="0"
     id="path4"
     d="m 8.836,29.073014 9.8737,22.475 38.383,-15.844 z" />
  <path
     style="fill:#83a7dd"
     inkscape:connector-curvature="0"
     id="path6"
     d="m 32.17,36.233014 8.8726,-20.253 -16.478,19.187 -9.791,-1.3777 3.7199,8.4501 -9.2675,10.801 11.527,-5.1986 3.1688,7.2101 4.7853,-10.912 14.2,-6.4018 z" />
  <path
     style="fill:#233b73"
     inkscape:connector-curvature="0"
     id="path8"
     d="m 45.254,7.5430143 -1.3594,1.5155 -18.866,31.9449997 -7.4122,-10.627 -2.7646,0.25717 9.3961,25.258 22.374,-49.6719997 z" />
  <path
     style="fill:#ffffff"
     d="m 44.059,8.6630143 -0.22044,0.35821 -2.7922,4.6658997 -16.937,27.931 -6.5396,-11.343 -4.8955,-0.68886 12.051,27.61 3.5913,-12.785 17.91,-37.3919997 0.95522,-1.9839 z"
     id="path10"
     inkscape:connector-curvature="0" />
  <path
     style="fill:#243d78"
     inkscape:connector-curvature="0"
     id="path22"
     d="m 135.035,46.203014 h -17.653 l -0.88174,3.3433 h 5.4925 l -3.7199,14.319 h 6.7141 l 3.7199,-14.319 h 5.4558 z" />
  <g
     style="fill:#4788ce"
     id="g32"
     transform="translate(-24.075,-97.726986)">
    <path
       inkscape:connector-curvature="0"
       id="path24"
       d="m 65.355,161.59 -7.3295,-17.405 v -0.24798 h 7.4765 l 4.969,12.758 4.9874,-12.758 h 4.6475 v 0.24798 l -7.8255,17.405 z" />
    <path
       inkscape:connector-curvature="0"
       id="path26"
       d="m 81.175,143.93 h 6.7141 v 17.653 H 81.175 Z" />
    <path
       inkscape:connector-curvature="0"
       id="path28"
       d="m 112.04,143.93 h 6.7141 v 17.653 H 112.04 Z" />
    <path
       inkscape:connector-curvature="0"
       id="path30"
       d="m 96.415,161.59 -7.3295,-17.405 v -0.24798 h 7.4765 l 4.969,12.758 4.9966,-12.758 h 4.6384 v 0.24798 l -7.8255,17.405 z" />
  </g>
  <path
     style="fill:#243d78"
     inkscape:connector-curvature="0"
     id="path34"
     d="m 138.245,63.863014 -2.3513,-17.405 0.0735,-0.24798 h 7.4765 l 1.2308,11.545 8.4868,-11.545 h 4.8863 l -0.0735,0.24798 -12.804,17.405 z" />
  <path
     style="fill:#4788ce"
     inkscape:connector-curvature="0"
     id="path36"
     d="m 104.665,61.183014 c 3.0126,0 5.2262,-1.7543 5.2262,-6.76 0,-3.8025 -2.2135,-5.5293 -5.2262,-5.5293 h -0.9644 v 12.289 z m -7.7704,2.682 v -17.653 h 9.0287 c 5.4007,0 11.04,2.1952 11.04,8.2112 0,6.0253 -5.6395,9.442 -11.04,9.442 z" />
  <g
     style="fill:#4788ce"
     id="g64"
     transform="translate(-24.075,-97.726986)">
    <path
       inkscape:connector-curvature="0"
       id="path52"
       d="m 113.69,164.22 h 6.806 l -0.74397,2.039 h -4.6016 l -0.67967,1.8645 h 4.3444 l -0.75316,2.039 h -4.3444 l -0.74396,2.039 h 4.8496 l -0.74398,2.039 h -7.0632 z" />
    <path
       inkscape:connector-curvature="0"
       id="path54"
       d="m 128.72,170.38 c -0.22043,0.59702 -0.50516,1.1389 -0.87256,1.6441 -0.35821,0.49598 -0.7899,0.92767 -1.2767,1.3042 -0.4868,0.36739 -1.0379,0.65212 -1.6349,0.86337 -0.6062,0.20207 -1.2583,0.30311 -1.9472,0.30311 -0.69805,0 -1.2675,-0.10104 -1.7268,-0.30311 -0.45006,-0.21125 -0.78072,-0.49598 -1.0012,-0.86337 -0.22044,-0.37658 -0.33065,-0.80827 -0.32147,-1.3042 0,-0.50516 0.11021,-1.0471 0.33065,-1.6441 l 2.2595,-6.1538 h 2.2044 l -2.2227,6.0712 c -0.11941,0.31228 -0.17452,0.59701 -0.17452,0.86338 0.009,0.26636 0.0643,0.4868 0.17452,0.67968 0.10103,0.20206 0.26636,0.34902 0.47761,0.45923 0.20207,0.11022 0.45924,0.16533 0.75315,0.16533 0.29392,0 0.57865,-0.0551 0.86338,-0.16533 0.28474,-0.11021 0.5511,-0.25717 0.79908,-0.45923 0.25718,-0.19288 0.47762,-0.41332 0.6705,-0.67968 0.20207,-0.26637 0.35821,-0.5511 0.46843,-0.86338 l 2.2227,-6.0712 h 2.2136 z" />
    <path
       inkscape:connector-curvature="0"
       id="path56"
       d="m 133.7,168.37 h 1.3042 c 0.19288,0 0.40413,-0.009 0.63374,-0.0184 0.22963,-0.0184 0.44088,-0.0643 0.65213,-0.12859 0.20207,-0.0735 0.39495,-0.1837 0.56947,-0.33065 0.16532,-0.15615 0.3031,-0.3674 0.40413,-0.64295 0.0918,-0.25718 0.1194,-0.45924 0.0735,-0.60619 -0.0551,-0.14696 -0.13776,-0.26636 -0.27554,-0.34903 -0.12858,-0.0827 -0.29391,-0.12859 -0.4868,-0.16533 -0.20206,-0.0275 -0.39495,-0.0367 -0.59701,-0.0367 h -1.442 z m -0.68887,-4.1516 h 3.876 c 0.51435,0 0.97359,0.0551 1.3961,0.15615 0.4225,0.0918 0.76234,0.25718 1.0287,0.49598 0.25718,0.22962 0.41333,0.5419 0.47762,0.92767 0.0551,0.39495 -0.0184,0.88174 -0.23881,1.4696 -0.25717,0.70724 -0.6613,1.3042 -1.2124,1.8002 -0.5511,0.49599 -1.2032,0.80827 -1.9564,0.94605 l 1.0012,4.2342 h -2.6544 l -0.62457,-4.0138 h -1.093 l -1.4604,4.0138 h -2.2136 z" />
    <path
       inkscape:connector-curvature="0"
       id="path58"
       d="m 142.1,169.24 c -0.17451,0.46843 -0.25718,0.90012 -0.25718,1.2951 0.009,0.39495 0.0918,0.73479 0.25718,1.0195 0.16533,0.28473 0.41332,0.51434 0.73478,0.67048 0.33066,0.16533 0.72561,0.23881 1.194,0.23881 0.4776,0 0.92766,-0.0735 1.3685,-0.23881 0.44087,-0.15614 0.85419,-0.38575 1.2308,-0.67048 0.38576,-0.28474 0.71642,-0.62458 1.0103,-1.0195 0.28472,-0.39494 0.51434,-0.82663 0.68885,-1.2951 0.17452,-0.45925 0.25718,-0.89093 0.25718,-1.2859 0,-0.39497 -0.0918,-0.74397 -0.25718,-1.0287 -0.16533,-0.28472 -0.41332,-0.51434 -0.73478,-0.67048 -0.33066,-0.16533 -0.72561,-0.23881 -1.194,-0.23881 -0.4776,0 -0.92766,0.0735 -1.3685,0.23881 -0.44087,0.15614 -0.85418,0.38576 -1.2308,0.67048 -0.37658,0.28474 -0.71643,0.63376 -1.0103,1.0287 -0.28472,0.39495 -0.52353,0.82663 -0.68886,1.2859 m -2.2962,0 c 0.29392,-0.79909 0.69806,-1.5247 1.2032,-2.1768 0.50517,-0.65212 1.0838,-1.2124 1.7359,-1.6625 0.65213,-0.45923 1.3502,-0.80826 2.1033,-1.0562 0.74397,-0.24799 1.5155,-0.3674 2.2962,-0.3674 0.78071,0 1.4604,0.11941 2.0298,0.3674 0.5694,0.24799 1.0195,0.59702 1.3318,1.0562 0.31229,0.45006 0.4868,1.0103 0.51436,1.6625 0.0275,0.65213 -0.10103,1.3777 -0.39495,2.1768 -0.29392,0.7991 -0.69805,1.5247 -1.2032,2.1768 -0.50517,0.65212 -1.0838,1.2124 -1.7359,1.6625 -0.65213,0.45924 -1.3502,0.81745 -2.1033,1.0562 -0.74398,0.24799 -1.5155,0.3674 -2.2962,0.3674 -0.7807,0 -1.4604,-0.11941 -2.0298,-0.3674 -0.56945,-0.2388 -1.0103,-0.59701 -1.3318,-1.0562 -0.31229,-0.45006 -0.47762,-1.0103 -0.51436,-1.6625 -0.0275,-0.65213 0.10104,-1.3777 0.39495,-2.1768" />
    <path
       inkscape:connector-curvature="0"
       id="path60"
       d="m 154.62,168.47 h 1.4696 c 0.20207,0 0.39495,-0.0184 0.59701,-0.0551 0.19289,-0.0367 0.38577,-0.10102 0.56028,-0.19287 0.1837,-0.0919 0.34903,-0.21126 0.49599,-0.3674 0.14695,-0.15614 0.25717,-0.34902 0.34902,-0.58783 0.0918,-0.25718 0.11021,-0.45925 0.0459,-0.61538 -0.0643,-0.15614 -0.16533,-0.27555 -0.32147,-0.35821 -0.14696,-0.0918 -0.33985,-0.13778 -0.5511,-0.16533 -0.22044,-0.0275 -0.43169,-0.0367 -0.64294,-0.0367 h -1.1297 z m -0.65213,-4.2434 h 3.7199 c 0.52353,0 0.99196,0.0459 1.4236,0.13777 0.4225,0.0918 0.77153,0.25718 1.0287,0.4868 0.25717,0.22961 0.4225,0.5419 0.47761,0.93685 0.0643,0.39495 -0.0184,0.88175 -0.23881,1.4788 -0.21125,0.58783 -0.48679,1.0746 -0.81744,1.4696 -0.33984,0.39495 -0.70724,0.71642 -1.1298,0.95523 -0.41331,0.22962 -0.86337,0.40414 -1.3594,0.49598 -0.4868,0.10103 -0.99196,0.14696 -1.5247,0.14696 h -1.6165 l -1.4236,3.9127 h -2.2136 z" />
    <path
       inkscape:connector-curvature="0"
       id="path62"
       d="m 162.97,164.22 h 6.806 l -0.74398,2.039 h -4.6016 l -0.67968,1.8645 h 4.3444 l -0.75317,2.039 h -4.3444 l -0.74397,2.039 h 4.8496 l -0.74397,2.039 h -7.0632 z" />
  </g>
</svg>
