<svg height="290.17776" viewBox="0 0 158.0476 76.775631" width="597.34528" xmlns="http://www.w3.org/2000/svg"><path d="m0 60.013014 18.673-8.4133 6.4386 11.674 26.416-63.27399966z" fill="#346ebf"/><path d="m8.836 29.073014 9.8737 22.475 38.383-15.844z" fill="#346ebf"/><path d="m32.17 36.233014 8.8726-20.253-16.478 19.187-9.791-1.3777 3.7199 8.4501-9.2675 10.801 11.527-5.1986 3.1688 7.2101 4.7853-10.912 14.2-6.4018z" fill="#83a7dd"/><path d="m45.254 7.5430143-1.3594 1.5155-18.866 31.9449997-7.4122-10.627-2.7646.25717 9.3961 25.258 22.374-49.6719997z" fill="#233b73"/><path d="m44.059 8.6630143-.22044.35821-2.7922 4.6658997-16.937 27.931-6.5396-11.343-4.8955-.68886 12.051 27.61 3.5913-12.785 17.91-37.3919997.95522-1.9839z" fill="#fff"/><path d="m135.035 46.203014h-17.653l-.88174 3.3433h5.4925l-3.7199 14.319h6.7141l3.7199-14.319h5.4558z" fill="#243d78"/><g fill="#4788ce" transform="translate(-24.075 -97.726986)"><path d="m65.355 161.59-7.3295-17.405v-.24798h7.4765l4.969 12.758 4.9874-12.758h4.6475v.24798l-7.8255 17.405z"/><path d="m81.175 143.93h6.7141v17.653h-6.7141z"/><path d="m112.04 143.93h6.7141v17.653h-6.7141z"/><path d="m96.415 161.59-7.3295-17.405v-.24798h7.4765l4.969 12.758 4.9966-12.758h4.6384v.24798l-7.8255 17.405z"/></g><path d="m138.245 63.863014-2.3513-17.405.0735-.24798h7.4765l1.2308 11.545 8.4868-11.545h4.8863l-.0735.24798-12.804 17.405z" fill="#243d78"/><path d="m104.665 61.183014c3.0126 0 5.2262-1.7543 5.2262-6.76 0-3.8025-2.2135-5.5293-5.2262-5.5293h-.9644v12.289zm-7.7704 2.682v-17.653h9.0287c5.4007 0 11.04 2.1952 11.04 8.2112 0 6.0253-5.6395 9.442-11.04 9.442z" fill="#4788ce"/><g fill="#4788ce" transform="translate(-24.075 -97.726986)"><path d="m113.69 164.22h6.806l-.74397 2.039h-4.6016l-.67967 1.8645h4.3444l-.75316 2.039h-4.3444l-.74396 2.039h4.8496l-.74398 2.039h-7.0632z"/><path d="m128.72 170.38c-.22043.59702-.50516 1.1389-.87256 1.6441-.35821.49598-.7899.92767-1.2767 1.3042-.4868.36739-1.0379.65212-1.6349.86337-.6062.20207-1.2583.30311-1.9472.30311-.69805 0-1.2675-.10104-1.7268-.30311-.45006-.21125-.78072-.49598-1.0012-.86337-.22044-.37658-.33065-.80827-.32147-1.3042 0-.50516.11021-1.0471.33065-1.6441l2.2595-6.1538h2.2044l-2.2227 6.0712c-.11941.31228-.17452.59701-.17452.86338.009.26636.0643.4868.17452.67968.10103.20206.26636.34902.47761.45923.20207.11022.45924.16533.75315.16533.29392 0 .57865-.0551.86338-.16533.28474-.11021.5511-.25717.79908-.45923.25718-.19288.47762-.41332.6705-.67968.20207-.26637.35821-.5511.46843-.86338l2.2227-6.0712h2.2136z"/><path d="m133.7 168.37h1.3042c.19288 0 .40413-.009.63374-.0184.22963-.0184.44088-.0643.65213-.12859.20207-.0735.39495-.1837.56947-.33065.16532-.15615.3031-.3674.40413-.64295.0918-.25718.1194-.45924.0735-.60619-.0551-.14696-.13776-.26636-.27554-.34903-.12858-.0827-.29391-.12859-.4868-.16533-.20206-.0275-.39495-.0367-.59701-.0367h-1.442zm-.68887-4.1516h3.876c.51435 0 .97359.0551 1.3961.15615.4225.0918.76234.25718 1.0287.49598.25718.22962.41333.5419.47762.92767.0551.39495-.0184.88174-.23881 1.4696-.25717.70724-.6613 1.3042-1.2124 1.8002-.5511.49599-1.2032.80827-1.9564.94605l1.0012 4.2342h-2.6544l-.62457-4.0138h-1.093l-1.4604 4.0138h-2.2136z"/><path d="m142.1 169.24c-.17451.46843-.25718.90012-.25718 1.2951.009.39495.0918.73479.25718 1.0195.16533.28473.41332.51434.73478.67048.33066.16533.72561.23881 1.194.23881.4776 0 .92766-.0735 1.3685-.23881.44087-.15614.85419-.38575 1.2308-.67048.38576-.28474.71642-.62458 1.0103-1.0195.28472-.39494.51434-.82663.68885-1.2951.17452-.45925.25718-.89093.25718-1.2859s-.0918-.74397-.25718-1.0287c-.16533-.28472-.41332-.51434-.73478-.67048-.33066-.16533-.72561-.23881-1.194-.23881-.4776 0-.92766.0735-1.3685.23881-.44087.15614-.85418.38576-1.2308.67048-.37658.28474-.71643.63376-1.0103 1.0287-.28472.39495-.52353.82663-.68886 1.2859m-2.2962 0c .29392-.79909.69806-1.5247 1.2032-2.1768.50517-.65212 1.0838-1.2124 1.7359-1.6625.65213-.45923 1.3502-.80826 2.1033-1.0562.74397-.24799 1.5155-.3674 2.2962-.3674.78071 0 1.4604.11941 2.0298.3674s1.0195.59702 1.3318 1.0562c.31229.45006.4868 1.0103.51436 1.6625.0275.65213-.10103 1.3777-.39495 2.1768s-.69805 1.5247-1.2032 2.1768c-.50517.65212-1.0838 1.2124-1.7359 1.6625-.65213.45924-1.3502.81745-2.1033 1.0562-.74398.24799-1.5155.3674-2.2962.3674s-1.4604-.11941-2.0298-.3674c-.56945-.2388-1.0103-.59701-1.3318-1.0562-.31229-.45006-.47762-1.0103-.51436-1.6625-.0275-.65213.10104-1.3777.39495-2.1768"/><path d="m154.62 168.47h1.4696c.20207 0 .39495-.0184.59701-.0551.19289-.0367.38577-.10102.56028-.19287.1837-.0919.34903-.21126.49599-.3674.14695-.15614.25717-.34902.34902-.58783.0918-.25718.11021-.45925.0459-.61538-.0643-.15614-.16533-.27555-.32147-.35821-.14696-.0918-.33985-.13778-.5511-.16533-.22044-.0275-.43169-.0367-.64294-.0367h-1.1297zm-.65213-4.2434h3.7199c.52353 0 .99196.0459 1.4236.13777.4225.0918.77153.25718 1.0287.4868.25717.22961.4225.5419.47761.93685.0643.39495-.0184.88175-.23881 1.4788-.21125.58783-.48679 1.0746-.81744 1.4696-.33984.39495-.70724.71642-1.1298.95523-.41331.22962-.86337.40414-1.3594.49598-.4868.10103-.99196.14696-1.5247.14696h-1.6165l-1.4236 3.9127h-2.2136z"/><path d="m162.97 164.22h6.806l-.74398 2.039h-4.6016l-.67968 1.8645h4.3444l-.75317 2.039h-4.3444l-.74397 2.039h4.8496l-.74397 2.039h-7.0632z"/></g></svg>