<svg height="5.125pt" viewBox="0 0 30.919199 5.125" width="30.919199pt" xmlns="http://www.w3.org/2000/svg" xmlns:xlink="http://www.w3.org/1999/xlink"><clipPath id="a"><path d="m0 0h595.275v841.89h-595.275z"/></clipPath><g clip-path="url(#a)" transform="matrix(.99999999 0 0 -.99999999 -510.54719 222.7349)"><g transform="translate(511.6017 217.6099)"><path d="m0 0h2.067l1.252 4.469-2.307-.836z" fill="#0098da"/></g><g transform="translate(510.5472 217.6099)"><path d="m0 0h .867l1.001 3.561-.948-.338z" fill="#94d5f6"/></g><g transform="translate(514.9776 222.2834)"><path d="m0 0 .126.451h-3.12l-.477-1.701z" fill="#43c0f0"/></g><g transform="translate(518.5642 219.7939)"><path d="m0 0v-1.223h.402c.482 0 .856.086.856.597 0 .561-.389.626-.841.626zm0 1.999v-1.086h.381c.432 0 .754.108.754.554 0 .467-.294.532-.74.532zm-1.389-4.178v5.12h2.273c.95 0 1.646-.432 1.646-1.295 0-.639-.322-.999-.905-1.186v-.022c.69-.143 1.035-.539 1.035-1.15 0-1.172-1.006-1.467-1.956-1.467z" fill="#1d1d1b"/></g><g transform="translate(523.441 221.7569)"><path d="m0 0v-1.395h.302c.46 0 .835.173.835.705 0 .525-.382.69-.842.69zm.007-2.374v-1.768h-1.395v5.12h1.877c1.323 0 2.042-.525 2.042-1.683 0-1.042-.755-1.669-2.006-1.669z" fill="#1d1d1b"/></g><g transform="translate(526.6852 222.7349)"><path d="m0 0h3.488v-.985h-2.092v-1.036h1.89v-.985h-1.89v-1.13h2.171v-.984h-3.567z" fill="#1d1d1b"/></g><g transform="translate(535.1436 221.3824)"><path d="m0 0h-.021l-1.353-1.481-1.358 1.481h-.022v-3.767h-1.389v5.119h1.598l1.171-1.279 1.172 1.279h1.59v-5.119h-1.388z" fill="#1d1d1b"/></g><g transform="translate(539.5184 221.7714)"><path d="m0 0c-.411 0-.719-.31-.719-.676 0-.475.351-.684.719-.684h.56v1.36zm.552-2.315h-.394l-.942-1.841h-1.568l1.223 2.07c-.533.188-.978.683-.978 1.467 0 .871.726 1.582 1.646 1.582h2.409v-5.119h-1.396z" fill="#1d1d1b"/></g></g></svg>