<svg id="a" width="962.86pt" height="346.42pt" version="1.1" viewBox="0 0 962.86 346.42" xmlns="http://www.w3.org/2000/svg">
 <path id="b" d="m907.98 13.938c1.84-0.65 3.74-1.25 5.73-1.13h28.08c4.86-0.31 9.62 3.84 9.5 8.81l0.01 302.04c0.10999 5.35-5.43 9.42-10.48 9.25h-62.07c-5.63 0.33-11.02-4.62-10.85-10.3 0.04-50.65-0.03-101.3 0-151.96 0.36-3.49-2.6102-6.7602-6.0202-7.0802h-34.677c-2.4884 0.032-3.3053-2.6977-2.3107-4.5782l77.067-137.08c1.78-2.81 3.04-6.17 6.02-7.97z" fill="#fff" stroke="#fff" stroke-width="23.125"/>
 <path id="c" d="m907.94 13.938c1.84-0.65 3.74-1.25 5.73-1.13h28.08c4.86-0.31 9.62 3.84 9.5 8.81l0.01 302.04c0.11 5.35-5.43 9.42-10.48 9.25h-62.07c-5.63 0.33-11.02-4.62-10.85-10.3 0.04-50.65-0.03-101.3 0-151.96 0.36-3.49-2.6103-6.7602-6.0203-7.0802h-34.677c-2.4884 0.032-3.3053-2.6977-2.3107-4.5782l77.067-137.08c1.78-2.81 3.04-6.17 6.02-7.97z" fill="#dc0000"/>
 <path id="d" d="m18.743 0h120.4c10.276 0.21879 18.108 8.4015 22.703 16.876 15.833 27.961 31.732 55.886 47.448 83.913 0.95537 1.4732 1.6774 3.6902 3.6611 3.9455 3.2818-1.0137 3.61-5.054 5.1926-7.6284 9.8163-17.853 19.655-35.699 29.712-53.421 5.9729-10.721 11.953-21.449 18.437-31.878 5.6083-7.9348 15.658-11.516 25.073-11.807h54.384c14.557 0.75118 29.157 0.11669 43.729 0.45216 59.569 0.14586 119.14 0.43029 178.7 0.30631 8.6349 0.49592 18.48 1.3784 24.847 7.9202 20.231 30.616 40.636 61.152 60.16 92.234 0.58343 0.82411 1.3638 1.0502 2.341 0.67096 13.93-23.556 28.1-46.989 42.008-70.574 5.302-8.6568 9.8455-17.992 17.168-25.197 2.7859-2.6036 6.1553-5.3385 10.21-5.0905 10.458-0.10939 20.916-0.16044 31.382-0.19691 11.158-0.27713 22.353 0.18233 33.497-0.52509h52.714c6.5564 0.26984 14.119 1.4586 18.32 7.0888 4.3977 6.0386 3.7486 14.097 2.0931 20.982-0.91891 3.5736-2.042 7.1544-4.0476 10.283-50.161 87.713-100.22 175.5-150.61 263.08-5.3822 9.0579-10.13 18.59-16.92 26.714-6.921 8.2994-16.3 14.885-26.999 17.087-2.9099 0.72929-5.9146 0.91891-8.8901 1.1815h-3.6902c-11.093-0.30631-22.492-4.2883-30.098-12.617-2.4286-2.3775-4.0622-5.3749-5.6229-8.3432-14.732-26.809-29.537-53.574-44.378-80.325-14.601-26.204-29.062-52.487-44.101-78.443-1.6993-2.7859-3.1724-5.9802-6.2063-7.5555 0.59802 16.468 0.32818 32.957 0.61261 49.432 0.18232 33.322 0.4157 66.643 0.0729 99.965 0.0219 8.8464-1.0794 18.145-6.0605 25.693-4.5216 7.1763-12.719 11.567-21.091 12.194h-118.96c-3.5006-0.13857-6.9356-1.5534-9.3788-4.0768-3.785-3.8799-5.6375-9.1746-6.9575-14.316-1.5899-6.1407-1.393-12.515-1.4221-18.801-0.21879-38.893-0.54697-77.787-0.61989-116.68-0.0146-11.173-0.0948-22.346 0.13126-33.518 0.0219-2.6401 0.35737-5.4624-1.0502-7.8472-2.3629 0.90433-3.6975 3.1287-4.9228 5.1926-27.939 50.54-55.85 101.09-84.103 151.45-6.0459 11.29-14.112 21.828-24.927 28.924-8.5328 6.1334-19.027 9.2548-29.471 9.6705h-4.0768c-11.625-0.42299-22.893-5.7542-30.63-14.425-2.9974-3.26-5.3603-7.045-7.4024-10.961-55.098-96.114-110.28-192.18-165.3-288.35-3.0193-5.2291-5.5354-10.99-5.8125-17.102v-1.619c0.39382-3.1433 1.6482-6.2501 4.0038-8.4307 3.9601-3.7194 9.4954-4.9957 14.739-5.5281" fill="#fff" stroke-width=".7293"/>
 <path id="e" d="m290.52 9.8674c34.671-0.0584 69.342 0 104.01-0.0292 5.3968 0.0583 11.479-0.15315 15.921 3.435 3.3985 2.9026 3.0776 8.1244 1.2034 11.8-52.035 89.507-104.35 178.85-155.89 268.64-6.1771 10.764-11.085 22.776-20.902 30.878-7.5847 6.9575-18.364 10.356-28.545 8.5692-10.684-1.8232-19.494-9.5027-25.073-18.495-23.761-41.125-47.565-82.235-71.267-123.4-29.004-50.314-58.067-100.58-86.67-151.12-2.5963-4.9811-5.8708-9.7215-7.417-15.177-1.0283-3.734-0.47404-8.19 2.6255-10.808 3.5298-2.9536 8.2629-4.208 12.792-4.3174 32.826 0.0219 65.651-0.0146 98.47 0.0146 8.365-0.10939 16.818 3.9966 21.332 11.144 18.502 32.549 36.669 65.294 55.667 97.551 1.3711 2.3046 3.2818 4.7988 6.148 5.1342 3.7267-0.19691 6.0386-3.61 7.9639-6.3814 15.235-25.175 27.028-52.203 40.972-78.071 2.8443-5.6812 6.8627-10.648 9.6705-16.344 3.9674-6.8408 10.896-12.398 18.991-13.018z" fill="#dc0101" stroke-width=".7293"/>
 <g id="f" transform="scale(.7293)">
  <path id="g" d="m606.37 14.54c2.15-0.68 4.39-1.05 6.65-1.05 53.66 0.02 107.32 0 160.97 0.01 4.72 0.02 9.49-0.24 14.15 0.7 4.8 1.06 9.15 3.62 12.82 6.84 4.66 4.21 7.6 9.86 11.05 15.02 21.63 33.34 43.19 66.73 65.07 99.92 2.09 3.29 4.71 6.42 5.69 10.27 0.65 2.59-0.11 5.59-2.4 7.13-5.78 3.58-12.87 3.35-19.41 3.14-45.99-0.04-91.99-0.01-137.98-0.02-5.64 0.02-11.76-0.46-16.72 2.73-6.85 4.33-10.15 12.9-9.77 20.78 0 84.86 0.06 169.72-0.03 254.58 0.22 10.03-5.95 21.32-16.57 22.88-51.32 0.08-102.63 0-153.95 0.04-3.22 0.02-6.64-0.22-9.39-2.08-4.01-2.51-6.28-6.94-7.45-11.4-3.08-9.39-1.9-19.37-2.04-29.07 0.13-72.63 0.38-145.27-0.59-217.9 0.2-9.01-1.64-18.23 0.87-27.06 2.96-11.16 8.55-21.37 14.47-31.21 20.59-34.98 40.86-70.16 62.32-104.63 5.14-8.6 12.42-16.56 22.24-19.62z" fill="#24a401"/>
 </g>
 <g id="h" transform="scale(.7293)">
  <path id="i" d="m1002.3 14.27c3.11-1.1 6.45-0.72 9.69-0.77 38.33 0.01 76.66 0 114.99 0 9.15 0.15 18.82-0.75 27.4 3.1 4.99 2.06 8.78 6.84 9.32 12.26 0.85 7.92-2.64 15.49-6.73 22.04-70.74 124.36-141.71 248.59-211.89 373.26-6.32 11.15-15.17 21.25-26.62 27.31-8.37 4.42-17.99 6.34-27.42 5.85-10.63-1.19-19.55-8.27-26.39-16.06-6.64-7.4-11.08-16.33-16.09-24.83-41.76-71.91-83.42-143.89-125.3-215.73-2.29-3.99-4.99-7.78-6.64-12.09-1-3.16-1.17-7.26 1.58-9.62 4.54-3.97 11.01-4.34 16.77-4.05 46.32 0.31 92.64 0.36 138.97 0.57 4.33 0.01 8.73 0.01 12.97-1.03 9.9-2.38 18.43-9.11 24.03-17.49 23.17-40.45 46.99-80.56 69.33-121.49 5.21-8.8 11.98-17.82 22.03-21.23z" fill="#0000ac"/>
 </g>
</svg>
