<?xml version="1.0" encoding="UTF-8"?>
<svg id="svg17" width="1446.4pt" height="466.48pt" version="1.1" viewBox="0 0 1446.4 466.48" xmlns="http://www.w3.org/2000/svg" xmlns:cc="http://creativecommons.org/ns#" xmlns:dc="http://purl.org/dc/elements/1.1/" xmlns:rdf="http://www.w3.org/1999/02/22-rdf-syntax-ns#">
 <metadata id="metadata23">
  <rdf:RDF>
   <cc:Work rdf:about="">
    <dc:format>image/svg+xml</dc:format>
    <dc:type rdf:resource="http://purl.org/dc/dcmitype/StillImage"/>
    <dc:title/>
   </cc:Work>
  </rdf:RDF>
 </metadata>
 <path id="path2" d="m25.239 0h162.13c13.837 0.29462 24.385 11.313 30.572 22.725 21.321 37.653 42.73 75.256 63.893 113 1.2865 1.9838 2.2588 4.9693 4.93 5.313 4.4193-1.3651 4.8612-6.8057 6.9923-10.272 13.219-24.041 26.467-48.072 40.009-71.937 8.0431-14.436 16.096-28.883 24.827-42.926 7.5521-10.685 21.085-15.507 33.764-15.9h73.233c19.602 1.0115 39.263 0.15713 58.885 0.60888 80.215 0.19641 160.43 0.57942 240.64 0.41247 11.628 0.66781 24.886 1.8561 33.459 10.665 27.243 41.227 54.721 82.346 81.011 124.2 0.78566 1.1097 1.8365 1.4142 3.1524 0.9035 18.758-31.721 37.839-63.275 56.567-95.035 7.1396-11.657 13.258-24.228 23.118-33.93 3.7515-3.506 8.2887-7.1887 13.749-6.8548 14.083-0.14731 28.166-0.21606 42.258-0.26516 15.026-0.37319 30.1 0.24552 45.106-0.70709h70.984c8.8288 0.36337 19.013 1.9641 24.67 9.5457 5.9219 8.1315 5.0478 18.983 2.8185 28.254-1.2374 4.8121-2.7498 9.6341-5.4504 13.847-67.547 118.11-134.96 236.33-202.81 354.26-7.2477 12.197-13.641 25.033-22.784 35.973-9.3198 11.176-21.949 20.044-36.356 23.01-3.9185 0.98207-7.9646 1.2374-11.971 1.591h-4.9693c-14.937-0.41247-30.287-5.7746-40.53-16.99-3.2703-3.2016-5.4701-7.2378-7.5718-11.235-19.838-36.101-39.774-72.143-59.759-108.17-19.661-35.286-39.135-70.68-59.386-105.63-2.2882-3.7515-4.272-8.053-8.3574-10.174 0.8053 22.175 0.44194 44.38 0.82494 66.565 0.24552 44.871 0.55978 89.741 0.0982 134.61 0.0295 11.912-1.4535 24.434-8.161 34.598-6.0888 9.6636-17.127 15.576-28.401 16.42h-160.19c-4.7139-0.18659-9.3395-2.0918-12.629-5.4898-5.0969-5.2246-7.5914-12.354-9.3689-19.278-2.1409-8.269-1.8758-16.852-1.915-25.318-0.29462-52.374-0.73655-104.75-0.83476-157.12-0.0196-15.045-0.12767-30.091 0.17677-45.136 0.0295-3.5551 0.48122-7.3557-1.4142-10.567-3.1819 1.2178-4.9791 4.2131-6.629 6.9923-37.623 68.057-75.207 136.12-113.25 203.95-8.1414 15.202-19.003 29.393-33.567 38.949-11.49 8.2592-25.622 12.462-39.685 13.022h-5.4898c-15.654-0.5696-30.827-7.7485-41.247-19.425-4.0363-4.3898-7.2182-9.4868-9.968-14.76-74.195-129.43-148.51-258.79-222.59-388.29-4.0658-7.0414-7.4539-14.8-7.8271-23.03v-2.1802c0.53032-4.2327 2.2195-8.4163 5.3916-11.353 5.3326-5.0086 12.787-6.7272 19.848-7.4441" fill="#fff" stroke-width=".98207"/>
 <path id="path11-5" d="m391.22 13.287c46.688-0.0786 93.375 0 140.06-0.0393 7.2673 0.0786 15.458-0.20623 21.439 4.6256 4.5764 3.9086 4.1443 10.94 1.6204 15.89-70.071 120.53-140.51 240.84-209.93 361.75-8.3181 14.495-14.927 30.67-28.146 41.581-10.214 9.3689-24.728 13.945-38.438 11.539-14.387-2.4552-26.251-12.796-33.764-24.905-31.996-55.379-64.051-110.74-95.968-166.17-39.057-67.753-78.192-135.45-116.71-203.5-3.4962-6.7075-7.9057-13.091-9.9876-20.437-1.3847-5.0282-0.63834-11.029 3.5354-14.554 4.7532-3.9774 11.127-5.6665 17.225-5.8138 44.203 0.0295 88.406-0.0196 132.6 0.0197 11.264-0.14731 22.647 5.3817 28.726 15.006 24.915 43.83 49.378 87.925 74.961 131.36 1.8463 3.1033 4.4193 6.462 8.2788 6.9138 5.0184-0.26516 8.1315-4.8612 10.724-8.5931 20.515-33.901 36.395-70.297 55.173-105.13 3.8301-7.6503 9.2413-14.338 13.022-22.008 5.3425-9.2118 14.672-16.695 25.573-17.53z" fill="#dc0101" stroke-width=".98207"/>
 <g id="#24a401ff" transform="scale(.98207)">
  <path id="path14-6" d="m606.37 14.54c2.15-0.68 4.39-1.05 6.65-1.05 53.66 0.02 107.32 0 160.97 0.01 4.72 0.02 9.49-0.24 14.15 0.7 4.8 1.06 9.15 3.62 12.82 6.84 4.66 4.21 7.6 9.86 11.05 15.02 21.63 33.34 43.19 66.73 65.07 99.92 2.09 3.29 4.71 6.42 5.69 10.27 0.65 2.59-0.11 5.59-2.4 7.13-5.78 3.58-12.87 3.35-19.41 3.14-45.99-0.04-91.99-0.01-137.98-0.02-5.64 0.02-11.76-0.46-16.72 2.73-6.85 4.33-10.15 12.9-9.77 20.78 0 84.86 0.06 169.72-0.03 254.58 0.22 10.03-5.95 21.32-16.57 22.88-51.32 0.08-102.63 0-153.95 0.04-3.22 0.02-6.64-0.22-9.39-2.08-4.01-2.51-6.28-6.94-7.45-11.4-3.08-9.39-1.9-19.37-2.04-29.07 0.13-72.63 0.38-145.27-0.59-217.9 0.2-9.01-1.64-18.23 0.87-27.06 2.96-11.16 8.55-21.37 14.47-31.21 20.59-34.98 40.86-70.16 62.32-104.63 5.14-8.6 12.42-16.56 22.24-19.62z" fill="#24a401"/>
 </g>
 <g id="#0000acff" transform="scale(.98207)">
  <path id="path17" d="m1002.3 14.27c3.11-1.1 6.45-0.72 9.69-0.77 38.33 0.01 76.66 0 114.99 0 9.15 0.15 18.82-0.75 27.4 3.1 4.99 2.06 8.78 6.84 9.32 12.26 0.85 7.92-2.64 15.49-6.73 22.04-70.74 124.36-141.71 248.59-211.89 373.26-6.32 11.15-15.17 21.25-26.62 27.31-8.37 4.42-17.99 6.34-27.42 5.85-10.63-1.19-19.55-8.27-26.39-16.06-6.64-7.4-11.08-16.33-16.09-24.83-41.76-71.91-83.42-143.89-125.3-215.73-2.29-3.99-4.99-7.78-6.64-12.09-1-3.16-1.17-7.26 1.58-9.62 4.54-3.97 11.01-4.34 16.77-4.05 46.32 0.31 92.64 0.36 138.97 0.57 4.33 0.01 8.73 0.01 12.97-1.03 9.9-2.38 18.43-9.11 24.03-17.49 23.17-40.45 46.99-80.56 69.33-121.49 5.21-8.8 11.98-17.82 22.03-21.23z" fill="#0000ac"/>
 </g>
 <path id="path8" d="m1227.8 19.865c59.712-0.0348 119.42-0.018 179.13-0.0136 23.9 9.6e-4 23.9 9.6e-4 12.502 16.727-31.727 46.538-63.525 93.022-95.258 139.55-5.2179 6.6562-5.2827 6.6919 0.7489 10.508 11.331 6.6789 20.945 16.226 27.717 27.515 12.41 20.33 16.42 44.87 14.77 68.38-2.59 36.27-18.37 71.27-43.21 97.74-51.12 54.17-133.56 75.76-204.85 54.69-19.41-6.08-37.43-16.32-52.91-29.47-7.0061-5.8633-13.498-12.296-19.615-19.07-9.6052-11.24-9.6052-11.24-1.9731-23.973 17.346-28.958 34.645-57.948 52.059-86.872 8.4387-13.995 8.4387-13.995 12.016 1.0555 4.2058 13.566 10.928 26.35 19.943 37.359 9.91 12.28 23.14 22.49 38.62 26.43 19.27 4.75 40.77 1.8 57.2-9.65 14.9-10.27 24.62-26.87 28.71-44.29 3.81-16.18 1.26-34.02-8.22-47.85-8.8027-13.187-22.834-21.926-37.951-26.221-9.5694-2.1089-9.5694-2.1089-2.6113-11.714 17.49-24.047 35.305-47.869 52.939-71.813 5.9629-8.1122 5.9629-8.1122-5.5396-8.122-28.375-0.0179-56.754 7e-3 -85.129-9e-3 -13.593 0-13.596-0.0262-6.5565-11.313 16.921-27.131 33.918-54.207 50.826-81.342 5.122-8.2264 5.1418-8.2271 16.642-8.2338z" fill="#fff" stroke="#fff" stroke-width="39.375"/>
 <path id="path8-5" d="m1227.7 19.856c59.712-0.0348 119.42-0.018 179.13-0.0136 23.9 9.8e-4 23.9 9.8e-4 12.502 16.727-31.727 46.538-63.525 93.022-95.258 139.55-5.2179 6.6562-5.2827 6.6919 0.7489 10.508 11.331 6.6789 20.945 16.226 27.717 27.515 12.41 20.33 16.42 44.87 14.77 68.38-2.59 36.27-18.37 71.27-43.21 97.74-51.12 54.17-133.56 75.76-204.85 54.69-19.41-6.08-37.43-16.32-52.91-29.47-7.0061-5.8633-13.498-12.296-19.615-19.07-9.6052-11.24-9.6052-11.24-1.9731-23.973 17.346-28.958 34.645-57.948 52.059-86.872 8.4387-13.995 8.4387-13.995 12.016 1.0555 4.2058 13.566 10.928 26.35 19.943 37.359 9.91 12.28 23.14 22.49 38.62 26.43 19.27 4.75 40.77 1.8 57.2-9.65 14.9-10.27 24.62-26.87 28.71-44.29 3.81-16.18 1.26-34.02-8.22-47.85-8.8027-13.187-22.834-21.926-37.951-26.221-9.5694-2.1089-9.5694-2.1089-2.6113-11.714 17.49-24.047 35.305-47.869 52.939-71.813 5.9629-8.1122 5.9629-8.1122-5.5396-8.122-28.375-0.0179-56.754 7e-3 -85.129-9e-3 -13.593 0-13.596-0.0262-6.5565-11.313 16.921-27.131 33.918-54.207 50.826-81.342 5.122-8.2264 5.1418-8.2271 16.642-8.2338z" fill="#dc0000"/>
</svg>
