<svg height="466.48276pt" viewBox="0 0 1446.4467 466.48276" width="1446.4467pt" xmlns="http://www.w3.org/2000/svg"><path d="m25.239173 0h162.129767c13.83735.294621 24.38478 11.313436 30.57181 22.725076 21.32072 37.65252 42.72982 75.25595 63.89341 112.996864 1.28651 1.98378 2.25876 4.96927 4.92998 5.31299 4.41931-1.36508 4.86125-6.80574 6.99234-10.27244 13.21864-24.04105 26.46675-48.072284 40.00949-71.936554 8.04314-14.43642 16.09611-28.88265 24.8267-42.92624 7.55211-10.68491 21.08502-15.506868 33.76353-15.899696h73.23288c19.6021 1.011531 39.26312.157131 58.88486.608883 80.2154.196414 160.43079.57942 240.63636.412469 11.6277.667807 24.88563 1.85611 33.45909 10.665264 27.2426 41.22726 54.72089 82.34649 81.01087 124.202274.78566 1.10974 1.83647 1.41418 3.15244.9035 18.75752-31.72083 37.83912-63.274704 56.56718-95.034814 7.13964-11.65716 13.25793-24.22764 23.1179-33.93049 3.75151-3.505982 8.28866-7.188741 13.74897-6.854838 14.08287-.14731 28.16575-.216055 42.25845-.265158 15.0256-.373187 30.1004.245517 45.1064-.70709h70.9839c8.8288.363366 19.0129 1.964138 24.6696 9.545706 5.9219 8.13154 5.0478 18.9834 2.8185 28.25413-1.2374 4.81214-2.7498 9.6341-5.4504 13.84717-67.5467 118.113444-134.956 236.325084-202.80709 354.261744-7.24767 12.1973-13.64094 25.03294-22.784 35.97319-9.31983 11.17595-21.94924 20.04403-36.35619 23.00988-3.91846.98207-7.96458 1.2374-11.97142 1.59095h-4.96927c-14.93727-.41247-30.28701-5.77457-40.52999-16.98979-3.27029-3.20155-5.47012-7.23785-7.57175-11.23487-19.83779-36.10086-39.77379-72.14279-59.7589-108.16508-19.66102-35.28574-39.13545-70.6795-59.38571-105.63134-2.28822-3.7515-4.272-8.05297-8.35741-10.17423.8053 22.17511.44194 44.37969.82494 66.56463.24552 44.87073.55978 89.74146.0982 134.6122.0295 11.91249-1.45346 24.43387-8.16099 34.59829-6.08883 9.66355-17.12729 15.57561-28.40144 16.42019h-160.18526c-4.71393-.18659-9.33948-2.09181-12.62941-5.48977-5.09694-5.2246-7.59139-12.35442-9.36894-19.27801-2.14091-8.26902-1.87575-16.8523-1.91503-25.31774-.29462-52.37374-.73655-104.74748-.83476-157.12121-.0196-15.0453-.12767-30.0906.17677-45.13589.0295-3.55509.48122-7.3557-1.41418-10.56707-3.1819 1.21777-4.97909 4.21308-6.62896 6.99233-37.62306 68.05738-75.20684 136.12459-113.2522 203.94627-8.14135 15.20243-19.00303 29.39332-33.56711 38.94885-11.49021 8.2592-25.62218 12.46246-39.68541 13.02224h-5.48977c-15.65418-.5696-30.82714-7.74852-41.24689-19.42532-4.03631-4.38985-7.21821-9.48679-9.968-14.7605-74.19532-129.42687-148.508482-258.79482-222.58594-388.290444-4.065766-7.04143-7.453904-14.79977-7.82709-23.02951v-2.1802c.530317-4.23271 2.219476-8.41633 5.391559-11.35271 5.332634-5.008555 12.786538-6.727176 19.847614-7.444086" fill="#fff" stroke-width=".982069"/><path d="m391.217 13.287396c46.68756-.0786 93.37512 0 140.06268-.0393 7.26731.0786 15.45776-.20623 21.43856 4.62555 4.57645 3.90863 4.14434 10.94025 1.62042 15.88988-70.07062 120.529324-140.51443 240.842594-209.92707 361.745104-8.31812 14.49534-14.92745 30.67002-28.14609 41.5808-10.21352 9.36894-24.7285 13.94538-38.43818 11.53932-14.38731-2.45518-26.25071-12.79636-33.76354-24.90527-31.9958-55.37886-64.05053-110.73809-95.96778-166.16607-39.05688-67.75293-78.19233-135.44695-116.709075-203.504334-3.496166-6.70753-7.905656-13.09098-9.987642-20.43685-1.384717-5.0282-.638345-11.02864 3.535448-14.55427 4.753214-3.97738 11.126842-5.66654 17.22549-5.81385 44.202927.0295 88.405849-.0196 132.598959.0197 11.26433-.14731 22.64651 5.38173 28.72551 15.00601 24.91509 43.82974 49.37843 87.924644 74.96133 131.361554 1.84629 3.10333 4.41931 6.46201 8.27884 6.91376 5.01837-.26516 8.13153-4.86124 10.72419-8.5931 20.51543-33.90102 36.39548-70.296504 55.17264-105.130494 3.83007-7.65031 9.24127-14.3382 13.02223-22.00816 5.34246-9.21181 14.67212-16.69517 25.57308-17.52993z" fill="#dc0101" stroke-width=".982069"/><path d="m606.37 14.54c2.15-.68 4.39-1.05 6.65-1.05 53.66.02 107.32 0 160.97.01 4.72.02 9.49-.24 14.15.7 4.8 1.06 9.15 3.62 12.82 6.84 4.66 4.21 7.6 9.86 11.05 15.02 21.63 33.34 43.19 66.73 65.07 99.92 2.09 3.29 4.71 6.42 5.69 10.27.65 2.59-.11 5.59-2.4 7.13-5.78 3.58-12.87 3.35-19.41 3.14-45.99-.04-91.99-.01-137.98-.02-5.64.02-11.76-.46-16.72 2.73-6.85 4.33-10.15 12.9-9.77 20.78 0 84.86.06 169.72-.03 254.58.22 10.03-5.95 21.32-16.57 22.88-51.32.08-102.63 0-153.95.04-3.22.02-6.64-.22-9.39-2.08-4.01-2.51-6.28-6.94-7.45-11.4-3.08-9.39-1.9-19.37-2.04-29.07.13-72.63.38-145.27-.59-217.9.2-9.01-1.64-18.23.87-27.06 2.96-11.16 8.55-21.37 14.47-31.21 20.59-34.98 40.86-70.16 62.32-104.63 5.14-8.6 12.42-16.56 22.24-19.62z" fill="#24a401" transform="scale(.98206898)"/><path d="m1002.33 14.27c3.11-1.1 6.45-.72 9.69-.77 38.33.01 76.66 0 114.99 0 9.15.15 18.82-.75 27.4 3.1 4.99 2.06 8.78 6.84 9.32 12.26.85 7.92-2.64 15.49-6.73 22.04-70.74 124.36-141.71 248.59-211.89 373.26-6.32 11.15-15.17 21.25-26.62 27.31-8.37 4.42-17.99 6.34-27.42 5.85-10.63-1.19-19.55-8.27-26.39-16.06-6.64-7.4-11.08-16.33-16.09-24.83-41.76-71.91-83.42-143.89-125.3-215.73-2.29-3.99-4.99-7.78-6.64-12.09-1-3.16-1.17-7.26 1.58-9.62 4.54-3.97 11.01-4.34 16.77-4.05 46.32.31 92.64.36 138.97.57 4.33.01 8.73.01 12.97-1.03 9.9-2.38 18.43-9.11 24.03-17.49 23.17-40.45 46.99-80.56 69.33-121.49 5.21-8.8 11.98-17.82 22.03-21.23z" fill="#0000ac" transform="scale(.98206898)"/><path d="m1227.7999 19.865386c59.7125-.0348 119.4187-.018 179.1304-.0136 23.9001.00096 23.9001.00096 12.502 16.7271-31.7271 46.5376-63.525 93.021664-95.2575 139.551334-5.2179 6.65618-5.2827 6.69191.7489 10.50779 11.3306 6.67889 20.9453 16.22621 27.7167 27.51474 12.41 20.33 16.42 44.87 14.77 68.38-2.59 36.27-18.37 71.27-43.21 97.74-51.12 54.17-133.56 75.76-204.85 54.69-19.41-6.08-37.43-16.32-52.91-29.47-7.0061-5.86329-13.4978-12.29576-19.6148-19.07017-9.6052-11.23983-9.6052-11.23983-1.9731-23.9728 17.346-28.95772 34.6454-57.94779 52.0592-86.87188 8.4387-13.99515 8.4387-13.99515 12.0161 1.05547 4.2058 13.56552 10.9283 26.3501 19.9426 37.35938 9.91 12.28 23.14 22.49 38.62 26.43 19.27 4.75 40.77 1.8 57.2-9.65 14.9-10.27 24.62-26.87 28.71-44.29 3.81-16.18 1.26-34.02-8.22-47.85-8.8027-13.18744-22.8345-21.92593-37.9506-26.22113-9.5694-2.10887-9.5694-2.10887-2.6113-11.71376 17.4897-24.04668 35.3049-47.86883 52.939-71.81294 5.9629-8.11215 5.9629-8.11215-5.5396-8.12196-28.3748-.0179-56.7543.007-85.1293-.009-13.5931 0-13.5955-.0262-6.5565-11.31259 16.9213-27.131064 33.9176-54.206584 50.8263-81.342004 5.122-8.22644 5.1418-8.22708 16.6415-8.23382z" fill="#fff" stroke="#fff" stroke-width="39.375"/><path d="m1227.7392 19.856346c59.7125-.0348 119.4187-.018 179.1304-.0136 23.9001.00098 23.9001.00098 12.502 16.7271-31.7271 46.5376-63.525 93.021664-95.2575 139.551334-5.2179 6.65618-5.2827 6.69191.7489 10.50779 11.3306 6.67889 20.9453 16.22621 27.7167 27.51474 12.41 20.33 16.42 44.87 14.77 68.38-2.59 36.27-18.37 71.27-43.21 97.74-51.12 54.16999-133.56 75.76-204.85 54.68999-19.41-6.07999-37.43-16.31999-52.91-29.46999-7.0061-5.86329-13.4978-12.29576-19.6148-19.07017-9.6052-11.23983-9.6052-11.23983-1.9731-23.9728 17.346-28.95772 34.6454-57.94779 52.0592-86.87188 8.4387-13.99515 8.4387-13.99515 12.0161 1.05547 4.2058 13.56552 10.9283 26.3501 19.9426 37.35938 9.91 12.28 23.14 22.49 38.62 26.43 19.27 4.75 40.77 1.8 57.2-9.65 14.9-10.27001 24.62-26.87 28.71-44.29 3.81-16.18 1.26-34.02-8.22-47.85-8.8027-13.18744-22.8345-21.92593-37.9506-26.22113-9.5694-2.10887-9.5694-2.10887-2.6113-11.71375 17.4897-24.04668 35.3049-47.86884 52.939-71.81295 5.9629-8.11215 5.9629-8.11215-5.5396-8.12196-28.3748-.0179-56.7543.007-85.1293-.009-13.5931 0-13.5955-.0262-6.5565-11.31258 16.9213-27.131074 33.9176-54.206594 50.8263-81.342014 5.122-8.22644 5.1418-8.22707 16.6415-8.23382z" fill="#dc0000"/></svg>