<svg height="475pt" viewBox="0 0 1439 475" width="1439pt" xmlns="http://www.w3.org/2000/svg"><path d="m25.7 0h165.09c14.09.3 24.83 11.52 31.13 23.14 21.71 38.34 43.51 76.63 65.06 115.06 1.31 2.02 2.3 5.06 5.02 5.41 4.5-1.39 4.95-6.93 7.12-10.46 13.46-24.48 26.95-48.95 40.74-73.25 8.19-14.7 16.39-29.41 25.28-43.71 7.69-10.88 21.47-15.79 34.38-16.19h74.57c19.96 1.03 39.98.16 59.96.62 81.68.2 163.36.59 245.03.42 11.84.68 25.34 1.89 34.07 10.86 27.74 41.98 55.72 83.85 82.49 126.47.8 1.13 1.87 1.44 3.21.92 19.1-32.3 38.53-64.43 57.6-96.77 7.27-11.87 13.5-24.67 23.54-34.55 3.82-3.57 8.44-7.32 14-6.98 14.34-.15 28.68-.22 43.03-.27 15.3-.38 30.65.25 45.93-.72h72.28c8.99.37 19.36 2 25.12 9.72 6.03 8.28 5.14 19.33 2.87 28.77-1.26 4.9-2.8 9.81-5.55 14.1-68.78 120.27-137.42 240.64-206.51 360.73-7.38 12.42-13.89 25.49-23.2 36.63-9.49 11.38-22.35 20.41-37.02 23.43-3.99 1-8.11 1.26-12.19 1.62h-5.06c-15.21-.42-30.84-5.88-41.27-17.3-3.33-3.26-5.57-7.37-7.71-11.44-20.2-36.76-40.5-73.46-60.85-110.14-20.02-35.93-39.85-71.97-60.47-107.56-2.33-3.82-4.35-8.2-8.51-10.36.82 22.58.45 45.19.84 67.78.25 45.69.57 91.38.1 137.07.03 12.13-1.48 24.88-8.31 35.23-6.2 9.84-17.44 15.86-28.92 16.72h-163.11c-4.8-.19-9.51-2.13-12.86-5.59-5.19-5.32-7.73-12.58-9.54-19.63-2.18-8.42-1.91-17.16-1.95-25.78-.3-53.33-.75-106.66-.85-159.99-.02-15.32-.13-30.64.18-45.96.03-3.62.49-7.49-1.44-10.76-3.24 1.24-5.07 4.29-6.75 7.12-38.31 69.3-76.58 138.61-115.32 207.67-8.29 15.48-19.35 29.93-34.18 39.66-11.7 8.41-26.09 12.69-40.41 13.26h-5.59c-15.94-.58-31.39-7.89-42-19.78-4.11-4.47-7.35-9.66-10.15-15.03-75.55-131.79-151.22-263.52-226.65-395.38-4.14-7.17-7.59-15.07-7.97-23.45v-2.22c.54-4.31 2.26-8.57 5.49-11.56 5.43-5.1 13.02-6.85 20.21-7.58" fill="#fff"/><path d="m1658.6523 0c-12.08 1.3866666-22.4793 8.7859637-30.7461 17.279297-10.0266 9.946666-17.4534 22.106459-24.1601 34.453125-57.0533 100.519998-114.9053 200.586778-172.5586 300.773438-5.8133 9.78667-10.9205 20.02708-17.8672 29.09375-12.2 18.42667-10.1875 41.34766-9.8808 62.34766.9333 19.30666-.1197 39.37362 7.3203 57.62695 3.3333 9.94667 11.293 19.69302 22.373 20.67969 15.5733 1.08 31.2145.26541 46.8145.71875 47.1333.17333 94.2651-.2392 141.3984-.50586 9.0267-1.10667 15.6016 8.3062 15.6816 16.51953.36 17.2-.0407 34.42695.1993 51.62695.3466 10.64 2.8393 21.3607 7.9726 30.7207 3.96 6.74667 11.1068 11.76 19.0801 12h137.9082c10.4933-.93333 21.679-3.49356 29.3457-11.24023 4.1333-4.02667 5.9462-9.85354 5.8262-15.54687.08-27.08001.08-54.17391 0-81.25391-.52-3.18667 2.9079-4.99925 5.6679-4.89258 14.0934-.17333 28.1997-.01469 42.293-.05469 4.3333.2 7.9606-2.62567 11.5606-4.65234 10.64-6.53333 20.3586-17.21271 20.5586-30.35938.12-24.89333.0673-49.78635.0273-74.67968-1.0133-13.30667-7.5072-27.7068-20.2539-33.4668-10.44-4.54667-22.1198-2.52008-33.1465-3.08008-6.52-.45333-13.5332.53347-19.5332-2.5332-3.7867-1.86667-5.3324-6.22818-5.0391-10.21484.3334-107.12001.7461-214.23938 1.0528-321.35938-.3867-12.373333-5.7603-25.254037-15.9336-32.7207031-7.6134-5.6266665-17.3059-6.95929691-26.5059-7.2792969zm-23.5937 285.06445c.4603-.00877.8697.09894 1.2344.29883.7293.39979 1.2786 1.16654 1.6894 2.0957.4109.92917.6835 2.02081.8614 3.07227.1777 1.05146.259 2.06145.289 2.82813.0267 24.43999-.2135 48.87997-.5469 73.30664.0434 1.16666-.1005 2.40799-.4257 3.61132-.3253 1.20334-.8304 2.37006-1.5079 3.38672-.6775 1.01667-1.5274 1.88357-2.541 2.49024-.5067.30333-1.0549.54221-1.6425.70117-.5879.15896-1.2162.23794-1.8829.22461-12-.2-23.9996.04052-35.9863-.13281-1.4-.06-2.9972-.26646-4.3789-.82813-.6908-.28083-1.3275-.65039-1.8594-1.13476-.5318-.48439-.9585-1.08422-1.2285-1.82422-.43-.91667-.6295-1.85922-.664-2.8086-.0347-.94937.097-1.90601.332-2.85351.47-1.895 1.3531-3.75164 2.1465-5.43164 6.1-11.39334 12.0965-22.84657 18.2265-34.22657s12.3921-22.68711 19.0254-33.78711c1.0867-1.52 2.1065-3.1521 3.2598-4.66211.5767-.75499 1.1871-1.47882 1.8555-2.14257.6683-.66375 1.395-1.26792 2.205-1.78125.5667-.26834 1.0788-.39357 1.5391-.40235z" fill="#fff" stroke-width="1.333333" transform="scale(.75000002)"/><path d="m1242.3601 12.52c1.15-.49 2.37-.71 3.65-.65 34.66.01 69.32 0 103.99 0 4.62.01 9.8.51 13.26 3.96 4.1 3.39 5.6 8.98 5.52 14.12-.79 84.68-1.59 169.37-2.29 254.06.16 3.06-.27 7 2.49 9.08 14.63.86 29.32 1.09 43.99 1.35 3.82 0 7.43 2.4 9.07 5.83 2.76 5.13 2.7 11.1 2.59 16.76-.05 13.22.08 26.44-.06 39.65 0 9.88-10.79 15.55-19.62 14.86-10.58.5-21.17.7-31.75 1.1-2.85.06-5.72 2.31-5.57 5.32-.35 20.7-.3 41.41-.72 62.1.07 8.53-7.94 14.83-15.87 15.67-28.71.05-57.41-.01-86.12.03-3.08-.01-6.42.32-9.09-1.5-6.69-4.12-9.37-12.71-8.87-20.21.19-18.99.41-37.99.42-56.98.43-3.66-2.4-7.37-6.26-6.94-50.7.36-101.4.94-152.11 1.14-5.75.49-9.98-4.1-12.73-8.56-2.44-4.21-4.41-8.77-5.35-13.55-.12-13.37-.06-26.75-.03-40.12.19-11.41 6.33-21.47 12.48-30.65 41.95-72.83 83.92-145.65 125.21-218.86 4.78-8.62 9.76-17.14 14.17-25.97 4.55-8.48 10.49-17.05 19.6-21.04m1.03 145.69c-2.76 2.46-4.55 5.72-6.26 8.94-20.83 37.08-42.05 73.94-63.15 110.87-2.05 4.09-3.98 9.24-1.72 13.64 1.67 3.09 5.6 3.36 8.72 3.48 18.67.41 37.36.28 56.03-.1 3.63.05 7.19-2.01 8.88-5.25 2.09-3.89 1.74-8.45 1.92-12.72.71-37.55.76-75.11.65-112.66-.11-2.62-1.34-8.98-5.07-6.2z" fill="#dc0101"/><path d="m398.36 13.53c47.54-.08 95.08 0 142.62-.04 7.4.08 15.74-.21 21.83 4.71 4.66 3.98 4.22 11.14 1.65 16.18-71.35 122.73-143.08 245.24-213.76 368.35-8.47 14.76-15.2 31.23-28.66 42.34-10.4 9.54-25.18 14.2-39.14 11.75-14.65-2.5-26.73-13.03-34.38-25.36-32.58-56.39-65.22-112.76-97.72-169.2-39.77-68.99-79.62-137.92-118.84-207.22-3.56-6.83-8.05-13.33-10.17-20.81-1.41-5.12-.65-11.23 3.6-14.82 4.84-4.05 11.33-5.77 17.54-5.92 45.01.03 90.02-.02 135.02.02 11.47-.15 23.06 5.48 29.25 15.28 25.37 44.63 50.28 89.53 76.33 133.76 1.88 3.16 4.5 6.58 8.43 7.04 5.11-.27 8.28-4.95 10.92-8.75 20.89-34.52 37.06-71.58 56.18-107.05 3.9-7.79 9.41-14.6 13.26-22.41 5.44-9.38 14.94-17 26.04-17.85z" fill="#dc0101"/><path d="m606.37 14.54c2.15-.68 4.39-1.05 6.65-1.05 53.66.02 107.32 0 160.97.01 4.72.02 9.49-.24 14.15.7 4.8 1.06 9.15 3.62 12.82 6.84 4.66 4.21 7.6 9.86 11.05 15.02 21.63 33.34 43.19 66.73 65.07 99.92 2.09 3.29 4.71 6.42 5.69 10.27.65 2.59-.11 5.59-2.4 7.13-5.78 3.58-12.87 3.35-19.41 3.14-45.99-.04-91.99-.01-137.98-.02-5.64.02-11.76-.46-16.72 2.73-6.85 4.33-10.15 12.9-9.77 20.78 0 84.86.06 169.72-.03 254.58.22 10.03-5.95 21.32-16.57 22.88-51.32.08-102.63 0-153.95.04-3.22.02-6.64-.22-9.39-2.08-4.01-2.51-6.28-6.94-7.45-11.4-3.08-9.39-1.9-19.37-2.04-29.07.13-72.63.38-145.27-.59-217.9.2-9.01-1.64-18.23.87-27.06 2.96-11.16 8.55-21.37 14.47-31.21 20.59-34.98 40.86-70.16 62.32-104.63 5.14-8.6 12.42-16.56 22.24-19.62z" fill="#24a401"/><path d="m1002.33 14.27c3.11-1.1 6.45-.72 9.69-.77 38.33.01 76.66 0 114.99 0 9.15.15 18.82-.75 27.4 3.1 4.99 2.06 8.78 6.84 9.32 12.26.85 7.92-2.64 15.49-6.73 22.04-70.74 124.36-141.71 248.59-211.89 373.26-6.32 11.15-15.17 21.25-26.62 27.31-8.37 4.42-17.99 6.34-27.42 5.85-10.63-1.19-19.55-8.27-26.39-16.06-6.64-7.4-11.08-16.33-16.09-24.83-41.76-71.91-83.42-143.89-125.3-215.73-2.29-3.99-4.99-7.78-6.64-12.09-1-3.16-1.17-7.26 1.58-9.62 4.54-3.97 11.01-4.34 16.77-4.05 46.32.31 92.64.36 138.97.57 4.33.01 8.73.01 12.97-1.03 9.9-2.38 18.43-9.11 24.03-17.49 23.17-40.45 46.99-80.56 69.33-121.49 5.21-8.8 11.98-17.82 22.03-21.23z" fill="#0000ac"/></svg>