<svg height="80.466675mm" viewBox="0 0 211.66667 80.466675" width="211.66667mm" xmlns="http://www.w3.org/2000/svg"><g transform="translate(-64.886859 -7.575528)"><g fill="#fff"><path d="m183.30215 78.40892 1.47019-5.513203c.11856-.403116.17784-.545392.17784-.97222 0-.699525-.30826-1.126354-.94851-1.351624-.42682-.142277-.78251-.296409-.78251-.794376 0-.770663.90108-.770663 1.42276-.770663h2.75067c.54539 0 1.47019-.09485 1.47019.699525 0 .545392-.35569.628387-.77066.818088-.6521.296409-.87737.426829-1.26863 1.031503-.33198.521679-.53354 1.090784-.68767 1.659889l-2.08672 7.765909h-.0474zm-1.10264 9.247953h-3.59247l-4.77811-16.029785c-.20156-.723238-.13042-.806232-.80624-1.102641-.2964-.154132-.49796-.379403-.49796-.723237 0-.818088 1.04336-.794376 1.62432-.794376h5.45392c.58096 0 1.77845-.154132 1.77845.74695 0 .972221-1.10264.545393-1.10264 1.576895 0 .296409.0593.426829.13042.723237l3.09451 10.824848z"/><path d="m204.39579 63.965514-2.57283 3.888883h-2.80995l1.26863-3.888883zm-3.59247 18.851596h-3.6399l.34383-1.446474h3.04708l-2.51354-11.014549.32012-1.351624h5.5132l3.74661 15.768945c.14227.687669.16599 1.173779.86551 1.470188.35569.154132.62839.320121.62839.770662 0 .675812-.90109.6521-1.37534.6521h-6.21273c-.49796 0-1.2212-.04743-1.2212-.699525 0-.403116.15413-.521679.47425-.699525.6521-.379403.74695-.545392.52168-1.517612zm-2.66768-7.505069-2.34756 8.536572c-.39126 1.517613-.0474 1.944441.80623 2.323845.39126.165988.74695.320121.74695.818088 0 .699524-.80623.675812-1.3042.675812h-2.86923c-.49797 0-1.3872-.02371-1.3872-.74695 0-.604674.41498-.580962.97222-.853658.52168-.272696 1.1975-.8418 1.65989-2.620253l2.99966-10.943411h.0711z"/><path d="m223.91964 86.217512c2.01558-.272696 3.16565-2.01558 3.68732-4.339424.13042-.545392.42683-.699525.94851-.699525.58096 0 .62839.474254.62839.948508v5.536916h-5.26422zm-1.12635 1.446475h-6.58028c-.1067 0-.92479-.04743-.92479-.770663 0-.355691.22527-.580961.54539-.675812.87737-.272696.85366-.426829.85366-1.351624v-13.065698c0-.924795.0237-1.078927-.85366-1.351624-.32012-.09485-.54539-.320121-.54539-.663955 0-.735094.81809-.782519.92479-.782519h7.05453c.10671 0 .9248.04742.9248.782519 0 .343834-.22527.569105-.5454.663955-.87737.272697-.85365.426829-.85365 1.351624z"/><path d="m243.71974 86.217512c2.02744-.248983 3.56876-1.62432 4.24457-3.616187.16599-.379403.32012-.770662.77067-.770662.79437 0 .72323.74695.72323.8418v4.991524h-5.73847zm0-8.880406c1.04336-.272696 1.51761-1.244917 1.74288-2.193425.13042-.426828.28456-.829944.80624-.829944.77066 0 .64024.901082.64024 1.10264v5.394639c0 .201558.13042 1.090785-.64024 1.090785-.52168 0-.67582-.403116-.80624-.818089-.22527-.948508-.69952-1.920728-1.74288-2.205281zm0-8.335014h5.56063v5.062661c0 .13042-.0237.604674-.77066.604674-.42683 0-.5454-.248983-.67582-.628386-.6521-2.01558-1.92073-3.236784-4.11415-3.592475zm-7.70663 0h6.58028v18.661895h-6.58028c-.1067 0-.92479-.04743-.92479-.770663 0-.355691.22527-.580961.54539-.675812.87737-.272696.85366-.426829.85366-1.351624v-13.065698c0-.924795.0237-1.078927-.85366-1.351624-.32012-.09485-.54539-.320121-.54539-.663955 0-.735094.81809-.782519.92479-.782519"/><path d="m273.87163 84.94414c.22527.545392.29641.972221.87737 1.244917.36755.177845.59282.331978.59282.806232 0 .723237-.81809.663955-1.31606.663955h-6.27201c-.5691 0-1.31605 0-1.31605-.770663 0-.818088 1.01964-.675812 1.01964-1.221204 0-.201558-.11856-.569104-.20155-.74695l-1.54133-4.635833c-.15413-.474254-.32012-1.007789-.32012-1.529469 0-.521679.2727-.841801.5691-1.268629l2.89295-4.114154c.35569-.474254.6521-.97222.6521-1.576894 0-.663956-.35569-1.019646-.9485-1.26863-.40312-.177845-.77067-.272696-.77067-.770662 0-.770663.68767-.74695 1.22121-.74695h4.25643c.60467 0 1.32791.02371 1.32791.818088 0 .580961-.47426.74695-.9248.924795-1.71917.652099-2.28827 1.600607-3.34349 3.023369l-.47425.640243zm-9.40209-.07114c0 .924795-.0237 1.067071.84181 1.339767.32012.106708.54539.331978.54539.675812 0 .723238-.81809.770663-.91294.770663h-7.06639c-.0949 0-.91294-.04743-.91294-.770663 0-.343834.21342-.569104.5454-.675812.86551-.272696.8418-.414972.8418-1.339767v-13.077552c0-.912939.0237-1.067072-.8418-1.339768-.33198-.106707-.5454-.331977-.5454-.675812 0-.723237.81809-.770662.91294-.770662h7.06639c.0949 0 .91294.04742.91294.770662 0 .343835-.22527.569105-.54539.675812-.86552.272696-.84181.426829-.84181 1.339768z"/><path d="m90.976757 74.016142c0 .580961-.106707 1.197491-.829944 1.197491-.592818 0-.818089-.474254-.889227-.97222-.272696-1.849591-1.825878-3.746607-3.770319-4.161579v-1.446475c1.576895.02371 3.24864.972221 3.521336.972221.640243 0 .592817-.901083 1.244917-.901083.770662 0 .723237.853657.723237 1.043359zm-13.018272 8.062318c0-.521679.09485-1.221204.794375-1.221204.497967 0 .853657.391259.924795.818088.343835 1.991867 1.742884 4.469844 3.936309 4.920385v1.446475c-2.169712-.05928-2.643966-.924795-3.533193-.924795-.806231 0-.723237.818088-1.351624.818088-.770662 0-.770662-.924795-.770662-1.043359zm6.402429-11.998626c-.948508.320121-1.766596 1.019646-1.766596 2.039292 0 1.221204.675812 1.968154 3.639899 3.11822 4.422419 1.707314 5.418352 4.043015 5.418352 6.343147 0 3.86517-3.224927 6.378717-6.912252 6.461711v-1.446475c1.197491-.379403 2.217137-.924795 2.264563-2.300132.05928-1.565038-1.790309-2.217137-2.9878-2.738816-3.141933-1.327912-6.058595-2.750674-6.058595-6.663269 0-3.794032 2.738817-6.141589 6.402429-6.260153z"/><path d="m108.8585 78.40892 1.47019-5.513203c.11856-.403116.17784-.545392.17784-.97222 0-.699525-.30826-1.126354-.94851-1.351624-.42682-.142277-.78251-.296409-.78251-.794376 0-.770663.90108-.770663 1.42276-.770663h2.75067c.54539 0 1.47019-.09485 1.47019.699525 0 .545392-.35569.628387-.77066.818088-.6521.296409-.87737.426829-1.26863 1.031503-.33198.521679-.53354 1.090784-.67582 1.659889l-2.09857 7.765909h-.0474zm-1.10264 9.247953h-3.59247l-4.78997-16.029785c-.189702-.723238-.118563-.806232-.794375-1.102641-.296409-.154132-.497967-.379403-.497967-.723237 0-.818088 1.043359-.794376 1.62432-.794376h5.453922c.58096 0 1.77845-.154132 1.77845.74695 0 .972221-1.10264.545393-1.10264 1.576895 0 .296409.0593.426829.13042.723237l3.09451 10.824848z"/><path d="m128.63134 86.217512c2.02744-.248983 3.56876-1.62432 4.24457-3.616187.16599-.379403.32012-.770662.77067-.770662.79437 0 .72323.74695.72323.8418v4.991524h-5.73847zm0-8.880406c1.04336-.272696 1.51761-1.244917 1.74288-2.193425.13042-.426828.28456-.829944.80624-.829944.77066 0 .64024.901082.64024 1.10264v5.394639c0 .201558.13042 1.090785-.64024 1.090785-.52168 0-.67582-.403116-.80624-.818089-.22527-.948508-.69952-1.920728-1.74288-2.205281zm0-8.335014h5.56063v5.062661c0 .13042-.0237.604674-.77066.604674-.42683 0-.5454-.248983-.67582-.628386-.6521-2.01558-1.92073-3.236784-4.11415-3.592475zm-7.70663 0h6.58028v18.661895h-6.58028c-.1067 0-.92479-.04743-.92479-.770663 0-.355691.22527-.580961.54539-.675812.87737-.272696.85366-.426829.85366-1.351624v-13.065698c0-.924795.0237-1.078927-.85366-1.351624-.32012-.09485-.54539-.320121-.54539-.663955 0-.735094.81809-.782519.92479-.782519"/><path d="m156.56253 74.816446c0 .106707-.0711.723237-.81809.723237-.69952 0-.82994-.652099-.90108-1.197491-.22527-1.327911-.58096-2.964088-1.8733-3.888883v-1.446475h3.59247zm-10.82485-5.809612h6.10602v15.863797c0 .924795-.0237 1.067071.85366 1.351624.32012.09485.54539.320121.54539.663955 0 .723238-.81809.770663-.92479.770663h-7.05453c-.0949 0-.9248-.04743-.9248-.770663 0-.343834.22527-.569105.5454-.663955.87737-.284553.85365-.426829.85365-1.351624zm-4.71882 0h3.59247v1.446475c-1.29234.924796-1.64803 2.560972-1.8733 3.888883-.0711.545392-.18971 1.197491-.88923 1.197491-.74695 0-.82994-.61653-.82994-.723237z"/><path d="m127.16115 63.965514.8418 1.695458.85366-1.695458h3.3672l-2.66768 3.888883h-3.11822l-2.66768-3.888883z"/></g><path d="m275.34419 58.818673-6.6277-18.211354c4.73068-3.272352 7.83705-8.726273 7.83705-14.915288 0-10.006759-8.10975-18.1165027-18.11651-18.1165027h-22.21879l18.65003 51.2431447z" fill="#d9182c"/><path d="m246.67197 58.818673v-8.975257l-15.37769-42.2678877h-3.86517v51.2431447z" fill="#fff"/><path d="m201.73166 58.818673h20.47592l-18.65004-51.2431447h-8.34687l-6.07045 16.6581717 3.81774 10.481013h-7.62363l-7.0071 19.231h21.62598z" fill="#d9182c"/><path d="m171.64618 58.818673 18.65004-51.2431447h-20.48777l-18.63819 51.2431447z" fill="#fff"/><path d="m119.85053 58.818673h20.2625l18.6619-51.2431447h-20.47592l-8.3113 22.8234737-5.4065-14.856007-10.23203 28.135119z" fill="#d9182c"/><path d="m83.536897 58.818673h20.392923l18.63818-51.2431447h-20.47592l-8.370578 22.9894627-8.358727-22.9894627h-20.475917z" fill="#fff"/></g></svg>