<?xml version="1.0" encoding="UTF-8"?>
<!-- Created with Inkscape (http://www.inkscape.org/) -->
<svg id="svg4550" width="211.67mm" height="80.467mm" version="1.1" viewBox="0 0 211.67 80.467" xmlns="http://www.w3.org/2000/svg" xmlns:cc="http://creativecommons.org/ns#" xmlns:dc="http://purl.org/dc/elements/1.1/" xmlns:rdf="http://www.w3.org/1999/02/22-rdf-syntax-ns#">
 <metadata id="metadata4547">
  <rdf:RDF>
   <cc:Work rdf:about="">
    <dc:format>image/svg+xml</dc:format>
    <dc:type rdf:resource="http://purl.org/dc/dcmitype/StillImage"/>
    <dc:title/>
   </cc:Work>
  </rdf:RDF>
 </metadata>
 <g id="layer1" transform="translate(122.84 -108.6)">
  <g id="g34" transform="translate(-187.73 101.02)">
   <path id="path2" d="m183.3 78.409 1.4702-5.5132c0.11856-0.40312 0.17784-0.54539 0.17784-0.97222 0-0.69952-0.30826-1.1264-0.94851-1.3516-0.42682-0.14228-0.78251-0.29641-0.78251-0.79438 0-0.77066 0.90108-0.77066 1.4228-0.77066h2.7507c0.54539 0 1.4702-0.09485 1.4702 0.69952 0 0.54539-0.35569 0.62839-0.77066 0.81809-0.6521 0.29641-0.87737 0.42683-1.2686 1.0315-0.33198 0.52168-0.53354 1.0908-0.68767 1.6599l-2.0867 7.7659h-0.0474zm-1.1026 9.248h-3.5925l-4.7781-16.03c-0.20156-0.72324-0.13042-0.80623-0.80624-1.1026-0.2964-0.15413-0.49796-0.3794-0.49796-0.72324 0-0.81809 1.0434-0.79438 1.6243-0.79438h5.4539c0.58096 0 1.7784-0.15413 1.7784 0.74695 0 0.97222-1.1026 0.54539-1.1026 1.5769 0 0.29641 0.0593 0.42683 0.13042 0.72324l3.0945 10.825z"/>
   <path id="path4" d="m204.4 63.966-2.5728 3.8889h-2.81l1.2686-3.8889zm-3.5925 18.852h-3.6399l0.34383-1.4465h3.0471l-2.5135-11.015 0.32012-1.3516h5.5132l3.7466 15.769c0.14227 0.68767 0.16599 1.1738 0.86551 1.4702 0.35569 0.15413 0.62839 0.32012 0.62839 0.77066 0 0.67581-0.90109 0.6521-1.3753 0.6521h-6.2127c-0.49796 0-1.2212-0.04743-1.2212-0.69952 0-0.40312 0.15413-0.52168 0.47425-0.69952 0.6521-0.3794 0.74695-0.54539 0.52168-1.5176zm-2.6677-7.5051-2.3476 8.5366c-0.39126 1.5176-0.0474 1.9444 0.80623 2.3238 0.39126 0.16599 0.74695 0.32012 0.74695 0.81809 0 0.69952-0.80623 0.67581-1.3042 0.67581h-2.8692c-0.49797 0-1.3872-0.02371-1.3872-0.74695 0-0.60467 0.41498-0.58096 0.97222-0.85366 0.52168-0.2727 1.1975-0.8418 1.6599-2.6203l2.9997-10.943h0.0711z"/>
   <path id="path6" d="m223.92 86.218c2.0156-0.2727 3.1656-2.0156 3.6873-4.3394 0.13042-0.54539 0.42683-0.69952 0.94851-0.69952 0.58096 0 0.62839 0.47425 0.62839 0.94851v5.5369h-5.2642zm-1.1264 1.4465h-6.5803c-0.1067 0-0.92479-0.04743-0.92479-0.77066 0-0.35569 0.22527-0.58096 0.54539-0.67581 0.87737-0.2727 0.85366-0.42683 0.85366-1.3516v-13.066c0-0.9248 0.0237-1.0789-0.85366-1.3516-0.32012-0.09485-0.54539-0.32012-0.54539-0.66396 0-0.73509 0.81809-0.78252 0.92479-0.78252h7.0545c0.10671 0 0.9248 0.04742 0.9248 0.78252 0 0.34383-0.22527 0.5691-0.5454 0.66396-0.87737 0.2727-0.85365 0.42683-0.85365 1.3516z"/>
   <path id="path8" d="m243.72 86.218c2.0274-0.24898 3.5688-1.6243 4.2446-3.6162 0.16599-0.3794 0.32012-0.77066 0.77067-0.77066 0.79437 0 0.72323 0.74695 0.72323 0.8418v4.9915h-5.7385zm0-8.8804c1.0434-0.2727 1.5176-1.2449 1.7429-2.1934 0.13042-0.42683 0.28456-0.82994 0.80624-0.82994 0.77066 0 0.64024 0.90108 0.64024 1.1026v5.3946c0 0.20156 0.13042 1.0908-0.64024 1.0908-0.52168 0-0.67582-0.40312-0.80624-0.81809-0.22527-0.94851-0.69952-1.9207-1.7429-2.2053zm0-8.335h5.5606v5.0627c0 0.13042-0.0237 0.60467-0.77066 0.60467-0.42683 0-0.5454-0.24898-0.67582-0.62839-0.6521-2.0156-1.9207-3.2368-4.1142-3.5925zm-7.7066 0h6.5803v18.662h-6.5803c-0.1067 0-0.92479-0.04743-0.92479-0.77066 0-0.35569 0.22527-0.58096 0.54539-0.67581 0.87737-0.2727 0.85366-0.42683 0.85366-1.3516v-13.066c0-0.9248 0.0237-1.0789-0.85366-1.3516-0.32012-0.09485-0.54539-0.32012-0.54539-0.66396 0-0.73509 0.81809-0.78252 0.92479-0.78252"/>
   <path id="path10" d="m273.87 84.944c0.22527 0.54539 0.29641 0.97222 0.87737 1.2449 0.36755 0.17784 0.59282 0.33198 0.59282 0.80623 0 0.72324-0.81809 0.66396-1.3161 0.66396h-6.272c-0.5691 0-1.316 0-1.316-0.77066 0-0.81809 1.0196-0.67581 1.0196-1.2212 0-0.20156-0.11856-0.5691-0.20155-0.74695l-1.5413-4.6358c-0.15413-0.47425-0.32012-1.0078-0.32012-1.5295 0-0.52168 0.2727-0.8418 0.5691-1.2686l2.893-4.1142c0.35569-0.47425 0.6521-0.97222 0.6521-1.5769 0-0.66396-0.35569-1.0196-0.9485-1.2686-0.40312-0.17784-0.77067-0.2727-0.77067-0.77066 0-0.77066 0.68767-0.74695 1.2212-0.74695h4.2564c0.60467 0 1.3279 0.02371 1.3279 0.81809 0 0.58096-0.47426 0.74695-0.9248 0.9248-1.7192 0.6521-2.2883 1.6006-3.3435 3.0234l-0.47425 0.64024zm-9.4021-0.07114c0 0.9248-0.0237 1.0671 0.84181 1.3398 0.32012 0.10671 0.54539 0.33198 0.54539 0.67581 0 0.72324-0.81809 0.77066-0.91294 0.77066h-7.0664c-0.0949 0-0.91294-0.04743-0.91294-0.77066 0-0.34383 0.21342-0.5691 0.5454-0.67581 0.86551-0.2727 0.8418-0.41497 0.8418-1.3398v-13.078c0-0.91294 0.0237-1.0671-0.8418-1.3398-0.33198-0.10671-0.5454-0.33198-0.5454-0.67581 0-0.72324 0.81809-0.77066 0.91294-0.77066h7.0664c0.0949 0 0.91294 0.04742 0.91294 0.77066 0 0.34384-0.22527 0.5691-0.54539 0.67581-0.86552 0.2727-0.84181 0.42683-0.84181 1.3398z"/>
   <path id="path12" d="m90.977 74.016c0 0.58096-0.10671 1.1975-0.82994 1.1975-0.59282 0-0.81809-0.47425-0.88923-0.97222-0.2727-1.8496-1.8259-3.7466-3.7703-4.1616v-1.4465c1.5769 0.02371 3.2486 0.97222 3.5213 0.97222 0.64024 0 0.59282-0.90108 1.2449-0.90108 0.77066 0 0.72324 0.85366 0.72324 1.0434zm-13.018 8.0623c0-0.52168 0.09485-1.2212 0.79438-1.2212 0.49797 0 0.85366 0.39126 0.9248 0.81809 0.34384 1.9919 1.7429 4.4698 3.9363 4.9204v1.4465c-2.1697-0.05928-2.644-0.9248-3.5332-0.9248-0.80623 0-0.72324 0.81809-1.3516 0.81809-0.77066 0-0.77066-0.9248-0.77066-1.0434zm6.4024-11.999c-0.94851 0.32012-1.7666 1.0196-1.7666 2.0393 0 1.2212 0.67581 1.9682 3.6399 3.1182 4.4224 1.7073 5.4184 4.043 5.4184 6.3431 0 3.8652-3.2249 6.3787-6.9123 6.4617v-1.4465c1.1975-0.3794 2.2171-0.9248 2.2646-2.3001 0.05928-1.565-1.7903-2.2171-2.9878-2.7388-3.1419-1.3279-6.0586-2.7507-6.0586-6.6633 0-3.794 2.7388-6.1416 6.4024-6.2602z"/>
   <path id="path14" d="m108.86 78.409 1.4702-5.5132c0.11856-0.40312 0.17784-0.54539 0.17784-0.97222 0-0.69952-0.30826-1.1264-0.94851-1.3516-0.42682-0.14228-0.78251-0.29641-0.78251-0.79438 0-0.77066 0.90108-0.77066 1.4228-0.77066h2.7507c0.54539 0 1.4702-0.09485 1.4702 0.69952 0 0.54539-0.35569 0.62839-0.77066 0.81809-0.6521 0.29641-0.87737 0.42683-1.2686 1.0315-0.33198 0.52168-0.53354 1.0908-0.67582 1.6599l-2.0986 7.7659h-0.0474zm-1.1026 9.248h-3.5925l-4.79-16.03c-0.1897-0.72324-0.11856-0.80623-0.79438-1.1026-0.29641-0.15413-0.49797-0.3794-0.49797-0.72324 0-0.81809 1.0434-0.79438 1.6243-0.79438h5.4539c0.58096 0 1.7784-0.15413 1.7784 0.74695 0 0.97222-1.1026 0.54539-1.1026 1.5769 0 0.29641 0.0593 0.42683 0.13042 0.72324l3.0945 10.825z"/>
   <path id="path16" d="m128.63 86.218c2.0274-0.24898 3.5688-1.6243 4.2446-3.6162 0.16599-0.3794 0.32012-0.77066 0.77067-0.77066 0.79437 0 0.72323 0.74695 0.72323 0.8418v4.9915h-5.7385zm0-8.8804c1.0434-0.2727 1.5176-1.2449 1.7429-2.1934 0.13042-0.42683 0.28456-0.82994 0.80624-0.82994 0.77066 0 0.64024 0.90108 0.64024 1.1026v5.3946c0 0.20156 0.13042 1.0908-0.64024 1.0908-0.52168 0-0.67582-0.40312-0.80624-0.81809-0.22527-0.94851-0.69952-1.9207-1.7429-2.2053zm0-8.335h5.5606v5.0627c0 0.13042-0.0237 0.60467-0.77066 0.60467-0.42683 0-0.5454-0.24898-0.67582-0.62839-0.6521-2.0156-1.9207-3.2368-4.1142-3.5925zm-7.7066 0h6.5803v18.662h-6.5803c-0.1067 0-0.92479-0.04743-0.92479-0.77066 0-0.35569 0.22527-0.58096 0.54539-0.67581 0.87737-0.2727 0.85366-0.42683 0.85366-1.3516v-13.066c0-0.9248 0.0237-1.0789-0.85366-1.3516-0.32012-0.09485-0.54539-0.32012-0.54539-0.66396 0-0.73509 0.81809-0.78252 0.92479-0.78252"/>
   <path id="path18" d="m156.56 74.816c0 0.10671-0.0711 0.72324-0.81809 0.72324-0.69952 0-0.82994-0.6521-0.90108-1.1975-0.22527-1.3279-0.58096-2.9641-1.8733-3.8889v-1.4465h3.5925zm-10.825-5.8096h6.106v15.864c0 0.9248-0.0237 1.0671 0.85366 1.3516 0.32012 0.09485 0.54539 0.32012 0.54539 0.66396 0 0.72324-0.81809 0.77066-0.92479 0.77066h-7.0545c-0.0949 0-0.9248-0.04743-0.9248-0.77066 0-0.34383 0.22527-0.5691 0.5454-0.66396 0.87737-0.28455 0.85365-0.42683 0.85365-1.3516zm-4.7188 0h3.5925v1.4465c-1.2923 0.9248-1.648 2.561-1.8733 3.8889-0.0711 0.54539-0.18971 1.1975-0.88923 1.1975-0.74695 0-0.82994-0.61653-0.82994-0.72324z"/>
   <path id="path20" d="m127.16 63.966 0.8418 1.6955 0.85366-1.6955h3.3672l-2.6677 3.8889h-3.1182l-2.6677-3.8889z"/>
   <path id="path22" d="m275.34 58.819-6.6277-18.211c4.7307-3.2724 7.837-8.7263 7.837-14.915 0-10.007-8.1098-18.117-18.117-18.117h-22.219l18.65 51.243z" fill="#d9182c"/>
   <path id="path24" d="m246.67 58.819v-8.9753l-15.378-42.268h-3.8652v51.243z"/>
   <path id="path26" d="m201.73 58.819h20.476l-18.65-51.243h-8.3469l-6.0704 16.658 3.8177 10.481h-7.6236l-7.0071 19.231h21.626z" fill="#d9182c"/>
   <path id="path28" d="m171.65 58.819 18.65-51.243h-20.488l-18.638 51.243z"/>
   <path id="path30" d="m119.85 58.819h20.262l18.662-51.243h-20.476l-8.3113 22.823-5.4065-14.856-10.232 28.135z" fill="#d9182c"/>
   <path id="path32" d="m83.537 58.819h20.393l18.638-51.243h-20.476l-8.3706 22.989-8.3587-22.989h-20.476z"/>
  </g>
 </g>
</svg>
