<svg height="215.92" viewBox="0 0 158.75 57.129024" width="600" xmlns="http://www.w3.org/2000/svg"><g fill="#e5004b" stroke-width=".26458" transform="translate(91.94 -144.27)"><path d="m55.055 146.27-.078-.08h-1.45l-.128-.13v-1.66l.128-.13h5.417l.128.13v1.66l-.128.13h-1.44l-.078.08v6.83l-.128.13h-2.109l-.134-.13z"/><path d="m61.697 144.27.133.13 1.133 6.72.145.09.173-.09 1.093-6.72.184-.13h2.12l.132.13-1.923 8.7-.078.11-.145.02h-3.286l-.156-.13-1.847-8.7.134-.13h2.187z"/><path d="m49.11 151.1c0 5.23.179 26.48-.262 31.83-.775 9.39-7.006 17.02-17.154 18.23-4.619.56-9.126.2-13.349-1.87-5.812-2.86-9.0259-7.74-10.365-13.91-.3957-1.82-.5352-3.71-.5463-5.57-.0502-9.61-.0279-19.2-.0223-28.8 0-1.92.3235-2.25 2.2258-2.25 2.4988-.01 4.9978-.01 7.4978 0 1.813 0 2.159.36 2.159 2.21.005 9.6.005 19.2 0 28.79 0 2.11.446 4.1 1.428 5.96 1.645 3.11 4.211 4.72 7.759 4.65 3.487-.07 5.852-1.86 7.358-4.9.898-1.81 1.266-3.74 1.261-5.76-.011-9.53-.006-19.05-.006-28.57 0-2.07.307-2.38 2.354-2.38 2.46-.01 4.915-.01 7.375 0 1.958 0 2.287.34 2.287 2.34"/><path d="m-81.131 148.84c1.327-.03 2.158.52 2.683 1.77 3.442 8.19 7.112 16.77 10.588 24.94l.53.85c.156 0 .379-.43.591-.94 3.553-8.44 7.252-17.23 10.789-25.67.351-.83.753-1.54 1.796-1.55 1.104-.03 1.545.72 1.908 1.59 2.186 5.22 9.5 22.58 10.961 26.05l.419.53.401-.58c2.935-6.89 10.12-23.72 10.728-25.27.479-1.22 1.327-1.73 2.605-1.72 3.113.02 6.225 0 9.333.01 1.556.01 1.824.42 1.182 1.84-4.184 9.21-8.379 18.42-12.574 27.64-3.274 7.2-6.56 14.39-9.835 21.6-.312.69-.652 1.34-1.522 1.42-1.044.11-1.523-.54-1.897-1.38-2.081-4.72-4.178-9.44-6.27-14.15-1.585-3.58-3.158-7.17-4.753-10.75l-.619-.61-.642.59c-3.67 8.25-7.335 16.51-10.989 24.78-.363.83-.781 1.57-1.802 1.55-.971-.01-1.356-.76-1.707-1.53-7.436-16.29-14.872-32.6-22.308-48.9-.764-1.68-.508-2.1 1.305-2.1z"/><path d="m-18.565 190.73c-.681-.01-1.027.19-1.278.84-.993 2.61-2.047 5.2-3.079 7.79-.619 1.56-1.104 1.9-2.795 1.9h-9.204c-1.534-.01-1.858-.48-1.244-1.83 7.38-16.27 14.772-32.54 22.169-48.8l.848-1.36c.959-.93 2.415-.55 3.051.79l22.699 49.83c.301.82.039 1.35-.804 1.35l-10.61-.02c-.97028-.01-1.4835-.72-1.8182-1.57-1.0487-2.63-2.1254-5.24-3.1295-7.88-.2901-.78-.6694-1.07-1.5173-1.04z"/></g></svg>