<?xml version="1.0" encoding="UTF-8"?>
<!-- Created with Inkscape (http://www.inkscape.org/) -->
<svg id="svg41357" width="5.8593mm" height="1.9887mm" version="1.1" viewBox="0 0 5.8593 1.9887" xmlns="http://www.w3.org/2000/svg" xmlns:cc="http://creativecommons.org/ns#" xmlns:dc="http://purl.org/dc/elements/1.1/" xmlns:rdf="http://www.w3.org/1999/02/22-rdf-syntax-ns#">
 <defs id="defs41351">
  <clipPath id="clipPath22894">
   <path id="path22892" d="m81.288 412.6h16.61v5.638h-16.61z"/>
  </clipPath>
 </defs>
 <metadata id="metadata41354">
  <rdf:RDF>
   <cc:Work rdf:about="">
    <dc:format>image/svg+xml</dc:format>
    <dc:type rdf:resource="http://purl.org/dc/dcmitype/StillImage"/>
    <dc:title/>
   </cc:Work>
  </rdf:RDF>
 </metadata>
 <g id="layer1" transform="translate(-84.761 -97.19)">
  <g id="g22888" transform="matrix(.35278 0 0 -.35278 56.084 244.73)">
   <g id="g22890" clip-path="url(#clipPath22894)">
    <g id="g22896" transform="translate(97.897 418.05)">
     <path id="path22898" d="m0 0c0 0.103-0.085 0.188-0.188 0.188h-2.091c-0.448 0-0.979-0.171-0.979-0.929v-0.874c0-0.104 0.085-0.188 0.188-0.188h2.047c0.78 0 1.023 0.459 1.023 0.924z" fill="#a7a8aa" fill-rule="evenodd"/>
    </g>
    <g id="g22900" transform="translate(94.288 417.23)">
     <path id="path22902" d="m0 0c0-0.482 0.017-2.441-0.024-2.934-0.072-0.864-0.646-1.568-1.581-1.68-0.426-0.051-0.841-0.018-1.231 0.173-0.536 0.263-0.831 0.713-0.955 1.282-0.036 0.167-0.049 0.342-0.05 0.513-5e-3 0.885-3e-3 1.77-3e-3 2.655 0 0.177 0.03 0.207 0.206 0.207 0.23 0 0.46 1e-3 0.691 0 0.167-1e-3 0.199-0.033 0.199-0.204 0-0.884 1e-3 -1.769 0-2.654 0-0.194 0.041-0.378 0.132-0.549 0.151-0.287 0.388-0.435 0.715-0.428 0.321 6e-3 0.539 0.171 0.678 0.451 0.082 0.167 0.116 0.345 0.116 0.532-1e-3 0.877-1e-3 1.755-1e-3 2.632 0 0.191 0.029 0.22 0.217 0.22h0.68c0.181 0 0.211-0.032 0.211-0.216" fill="#e3004a"/>
    </g>
    <g id="g22904" transform="translate(82.284 417.44)">
     <path id="path22906" d="m0 0c0.122 3e-3 0.199-0.048 0.247-0.164 0.318-0.754 0.656-1.545 0.976-2.298 0.02-0.046 0.036-0.078 0.049-0.078 0.014 0 0.035 0.04 0.055 0.087 0.327 0.777 0.668 1.587 0.994 2.365 0.032 0.077 0.07 0.142 0.166 0.144 0.101 1e-3 0.142-0.067 0.175-0.147 0.202-0.481 0.876-2.082 1.011-2.401 9e-3 -0.023 0.027-0.049 0.039-0.049 9e-3 0 0.025 0.028 0.036 0.053 0.27 0.635 0.933 2.187 0.989 2.33 0.044 0.112 0.123 0.159 0.24 0.158 0.287-2e-3 0.574 0 0.861-1e-3 0.143 0 0.168-0.039 0.109-0.169-0.386-0.849-0.773-1.699-1.159-2.548-0.302-0.664-0.605-1.327-0.907-1.991-0.029-0.064-0.06-0.124-0.141-0.131-0.096-0.01-0.14 0.049-0.174 0.128-0.192 0.435-0.385 0.869-0.578 1.304-0.146 0.33-0.291 0.66-0.438 0.99-0.016 0.035-0.041 0.057-0.057 0.057-0.017-1e-3 -0.044-0.02-0.06-0.054-0.338-0.761-0.676-1.523-1.012-2.285-0.034-0.076-0.072-0.144-0.166-0.143-0.09 1e-3 -0.126 0.07-0.158 0.141-0.685 1.503-1.371 3.005-2.056 4.508-0.07 0.154-0.047 0.193 0.12 0.193z" fill="#e3004a"/>
    </g>
    <g id="g22908" transform="translate(88.051 413.58)">
     <path id="path22910" d="m0 0c-0.063 1e-3 -0.095-0.017-0.118-0.078-0.091-0.24-0.188-0.478-0.283-0.717-0.058-0.144-0.102-0.175-0.258-0.175h-0.849c-0.141 0-0.171 0.044-0.114 0.168 0.68 1.5 1.361 2.999 2.043 4.498 0.02 0.045 0.044 0.093 0.078 0.126 0.089 0.085 0.223 0.05 0.281-0.073l2.093-4.593c0.027-0.076 3e-3 -0.124-0.075-0.125l-0.977 2e-3c-0.09 1e-3 -0.137 0.067-0.168 0.145-0.096 0.242-0.196 0.483-0.288 0.727-0.027 0.071-0.062 0.098-0.14 0.096z" fill="#e3004a"/>
    </g>
    <g id="g22912" transform="translate(95.134 417.98)">
     <path id="path22914" d="m0 0h0.281v-0.581h0.495v0.581h0.281v-1.48h-0.281v0.582h-0.495v-0.582h-0.281z" fill="#fff"/>
    </g>
    <g id="g22916" transform="translate(96.895 416.81)">
     <path id="path22918" d="m0 0c0.197 0 0.327 0.178 0.327 0.423 0 0.247-0.13 0.423-0.327 0.423h-0.175v-0.846zm-0.456 1.163h0.481c0.343 0 0.593-0.322 0.593-0.74 0-0.419-0.25-0.74-0.593-0.74h-0.481z" fill="#fff"/>
    </g>
   </g>
  </g>
 </g>
</svg>
