<svg height="261" viewBox="0 0 1000 261" width="1000" xmlns="http://www.w3.org/2000/svg"><g fill="#fff"><path d="m927.99 62.515v193.08h-63.426v-193.08h-72.188v-56.521h207.62v56.521z"/><path d="m658.5 255.59v-249.6h63.425v193.07h104.83v56.53z"/><path d="m507.96.585c-74.062 0-123.82 52.633-123.82 130.97.001 77.426 51.084 129.45 127.11 129.45 43.149 0 75.767-11.496 102.65-36.177l.79-.727-38.865-42.569-.794.67c-17.423 14.682-38.168 22.436-59.983 22.436-33.313 0-54.783-17.022-62.083-49.236l-.294-1.434 172.86-.008c.054-.326.103-.564.16-.992.757-5.605 1.275-14.765 1.275-22.435-.258-77.723-48.087-129.94-119.01-129.94zm-55.082 106.03.304-1.422c6.774-31.51 25.033-47.482 54.272-47.482 27.589 0 45.743 16.414 52.497 47.475l.309 1.429z"/><path d="m110.82 181.3 47.637-175.31h67.828l47.641 175.66 45.362-175.66h64.574l-70.077 249.6h-75.69l-46.161-157.88-46.163 157.88h-75.691l-70.084-249.6h65.466z"/></g></svg>