<svg height="224pt" viewBox="0 0 269 224" width="269pt" xmlns="http://www.w3.org/2000/svg"><path d="m0 54.519142h269v169.480858h-269z" fill="#eb090a" transform="matrix(1 0 0 1.3216847 .0003 -72.057366)"/><path d="m0-.0002462h269.00024v107.3302462c0 7.79386-66.61235 14.31077-133.86174 14.40975-67.24939.099-135.1385-6.56641-135.1385-14.40975 0-7.843332 0-107.3302462 0-107.3302462z" fill="#ef3131"/><g fill="#fff"><path d="m121.99 68.54c8.2-1.08 17.29.07 23.69 5.73 7.24 6.1 9.71 16.18 8.76 25.3-.46 7.8-4.35 14.8-9.06 20.82-5 6.18-10.67 11.75025-16.18 17.47025h27.70975v17.8095h-56.6595l-.00025-12.37975c6.98-7.34 13.97-14.67 21.12-21.83 4.74-5.02 9.77-10.15 12.34-16.67 2.04-5.53.69-13.76-5.79-15.53-9.03-2.19-18.20025 2.02-25.07025 7.67v-20.72c5.3-4.4 12.39025-6.74 19.14025-7.67z"/><path d="m200.19976 69.719752c5.7.05 11.39025 0 17.09025 0v51.400498h10.53975l.00024 17.11975-10.53999.0102v17.58975h-19.71v-17.58975l-34.20975-.00025v-13.48368l13.72974-22.87632 13.13 10.91-5.31 8.3203h15.27976v-51.400548z"/><path d="m44.490001 105.83 51.699999-.16-23.68 37.7 20.799753-.06v12.37l-51.509753-.07 23.27-36.92-20.579999-.03z"/></g></svg>