<svg id="a" width="186.03pt" height="87.665pt" version="1.1" viewBox="0 0 186.03 87.665" xmlns="http://www.w3.org/2000/svg">
 <g id="b" transform="translate(-41.8 -68.175)" fill="#eb090a">
  <path id="c" d="m121.99 68.54c8.2-1.08 17.29 0.07 23.69 5.73 7.24 6.1 9.71 16.18 8.76 25.3-0.46 7.8-4.35 14.8-9.06 20.82-5 6.18-10.67 11.75-16.18 17.47h27.71v17.81h-56.66l-2.5e-4 -12.38c6.98-7.34 13.97-14.67 21.12-21.83 4.74-5.02 9.77-10.15 12.34-16.67 2.04-5.53 0.69-13.76-5.79-15.53-9.03-2.19-18.2 2.02-25.07 7.67v-20.72c5.3-4.4 12.39-6.74 19.14-7.67z"/>
  <path id="d" d="m200.2 69.72c5.7 0.05 11.39 0 17.09 0v51.4h10.54l2.4e-4 17.12-10.54 0.0102v17.59h-19.71v-17.59l-34.21-2.5e-4v-13.484l13.73-22.876 13.13 10.91-5.31 8.3203h15.28v-51.401z"/>
  <path id="e" d="m44.49 105.83 51.7-0.16-23.68 37.7 20.8-0.06v12.37l-51.51-0.07 23.27-36.92-20.58-0.03z"/>
 </g>
 <path id="f" d="m54.391 37.494-51.7 0.16113v11.895c3.3476 0.3342 6.8293 0.65198 10.433 0.95068l10.147 0.01462-0.45264 0.71924c7.0742 0.49441 14.481 0.92177 22.146 1.2686z" fill="#ef3131"/>
 <path id="g" d="m84.873 0.0074853c-1.5765 0.030675-3.1441 0.15492-4.6816 0.35742-6.75 0.93-13.841 3.2699-19.141 7.6699v20.72c6.87-5.65 16.041-9.8599 25.071-7.6699 6.48 1.77 7.8291 10 5.7891 15.53-2.57 6.52-7.5998 11.65-12.34 16.67-0.0651 0.06525-0.12972 0.13104-0.19482 0.19628 4.6445 0.05625 9.3032 0.0889 13.964 0.08203 3.0646-0.0045 6.1201-0.03668 9.1758-0.06735 0.35588-0.42641 0.71534-0.84963 1.0649-1.2817 4.71-6.02 8.6001-13.02 9.0601-20.82 0.95001-9.12-1.5198-19.199-8.7598-25.299-5.2-4.5988-12.176-6.2208-19.008-6.0879z" fill="#ef3131"/>
 <path id="h" d="m158.4 1.5441v49.925c5.9256-0.38278 11.685-0.79889 17.09-1.27v-48.655c-5.7 0-11.39 0.050003-17.09 0zm-23.101 32.171-11.621 19.362c6.7456-0.19868 13.394-0.44626 19.841-0.75879l4.9102-7.6934z" fill="#ef3131"/>
</svg>
