<?xml version="1.0" encoding="UTF-8" standalone="no"?>
<svg
   xmlns:dc="http://purl.org/dc/elements/1.1/"
   xmlns:cc="http://creativecommons.org/ns#"
   xmlns:rdf="http://www.w3.org/1999/02/22-rdf-syntax-ns#"
   xmlns:svg="http://www.w3.org/2000/svg"
   xmlns="http://www.w3.org/2000/svg"
   xmlns:sodipodi="http://sodipodi.sourceforge.net/DTD/sodipodi-0.dtd"
   xmlns:inkscape="http://www.inkscape.org/namespaces/inkscape"
   width="186.03pt"
   height="87.664871pt"
   viewBox="0 0 186.03 87.664871"
   version="1.1"
   id="svg17"
   sodipodi:docname="Z24.svg"
   inkscape:version="0.92.0 r15299">
  <metadata
     id="metadata23">
    <rdf:RDF>
      <cc:Work
         rdf:about="">
        <dc:format>image/svg+xml</dc:format>
        <dc:type
           rdf:resource="http://purl.org/dc/dcmitype/StillImage" />
        <dc:title></dc:title>
      </cc:Work>
    </rdf:RDF>
  </metadata>
  <defs
     id="defs21" />
  <sodipodi:namedview
     pagecolor="#ffffff"
     bordercolor="#666666"
     borderopacity="1"
     objecttolerance="10"
     gridtolerance="10"
     guidetolerance="10"
     inkscape:pageopacity="0"
     inkscape:pageshadow="2"
     inkscape:window-width="1920"
     inkscape:window-height="1017"
     id="namedview19"
     showgrid="false"
     inkscape:zoom="1.5803571"
     inkscape:cx="243.39815"
     inkscape:cy="90.770592"
     inkscape:window-x="-8"
     inkscape:window-y="-8"
     inkscape:window-maximized="1"
     inkscape:current-layer="svg17"
     fit-margin-top="0"
     fit-margin-left="0"
     fit-margin-right="0"
     fit-margin-bottom="0" />
  <g
     transform="translate(-41.8,-68.175079)"
     id="#ffffffff"
     style="fill:#eb090a;fill-opacity:1">
    <path
       d="m 121.99,68.54 c 8.2,-1.08 17.29,0.07 23.69,5.73 7.24,6.1 9.71,16.18 8.76,25.3 -0.46,7.8 -4.35,14.8 -9.06,20.82 -5,6.18 -10.67,11.75025 -16.18,17.47025 h 27.70975 v 17.8095 h -56.6595 L 100.25,143.29 c 6.98,-7.34 13.97,-14.67 21.12,-21.83 4.74,-5.02 9.77,-10.15 12.34,-16.67 2.04,-5.53 0.69,-13.76 -5.79,-15.53 -9.03,-2.19 -18.20025,2.02 -25.07025,7.67 V 76.21 c 5.3,-4.4 12.39025,-6.74 19.14025,-7.67 z"
       id="path5-7"
       inkscape:connector-curvature="0"
       style="opacity:1;fill:#eb090a;fill-opacity:1"
       sodipodi:nodetypes="ccccccccccccccc" />
    <path
       d="m 200.19976,69.719752 c 5.7,0.05 11.39025,0 17.09025,0 v 51.400498 h 10.53975 l 2.4e-4,17.11975 -10.53999,0.0102 v 17.58975 h -19.71 V 138.2502 l -34.20975,-2.5e-4 V 124.76627 L 177.1,101.88995 l 13.13,10.91 -5.31,8.3203 h 15.27976 V 69.719702 Z"
       id="path7-6"
       inkscape:connector-curvature="0"
       style="opacity:1;fill:#eb090a;fill-opacity:1"
       sodipodi:nodetypes="ccccccccccccccccc" />
    <path
       d="M 44.490001,105.83 96.19,105.67 l -23.68,37.7 20.799753,-0.06 v 12.37 L 41.8,155.61 65.07,118.69 44.490001,118.66 Z"
       id="path9"
       inkscape:connector-curvature="0"
       style="opacity:1;fill:#eb090a;fill-opacity:1"
       sodipodi:nodetypes="ccccccccc" />
  </g>
  <path
     style="opacity:1;fill:#ef3131;fill-opacity:1;stroke:none;stroke-width:1.18133533;stroke-opacity:1"
     d="M 54.390684,37.494304 2.6904839,37.655434 V 49.54997 c 3.3475988,0.3342 6.8293007,0.651982 10.4326181,0.950685 l 10.146973,0.01462 -0.452637,0.719235 c 7.074216,0.494407 14.481255,0.921772 22.145506,1.268557 z"
     id="rect4500"
     inkscape:connector-curvature="0" />
  <path
     style="opacity:1;fill:#ef3131;fill-opacity:1;stroke-width:0.99999994"
     d="m 84.872612,0.00748527 c -1.576477,0.030675 -3.144135,0.15492226 -4.681635,0.35742226 -6.75,0.93000007 -13.841115,3.26992207 -19.141118,7.66992097 V 28.755042 c 6.87,-5.649998 16.040805,-9.859921 25.070806,-7.669921 6.48,1.77 7.829062,10.000276 5.789062,15.530273 -2.570002,6.520005 -7.599847,11.649923 -12.339848,16.669928 -0.0651,0.06525 -0.12972,0.13104 -0.19482,0.196283 4.644458,0.05625 9.303218,0.0889 13.964356,0.08203 3.064612,-0.0045 6.120052,-0.03668 9.175775,-0.06735 0.35588,-0.426413 0.71534,-0.84963 1.06494,-1.281743 4.71,-6.020002 8.60007,-13.01982 9.06006,-20.81982 C 113.5902,22.274726 111.12043,12.195409 103.88043,6.0954064 98.680427,1.4966561 91.704025,-0.12540423 84.872612,0.00751527 Z"
     id="path5"
     inkscape:connector-curvature="0" />
  <path
     style="opacity:1;fill:#ef3131;fill-opacity:1;stroke-width:0.99999994"
     d="M 158.40045,1.5441063 V 51.468912 c 5.92562,-0.382785 11.6853,-0.798892 17.09033,-1.27002 V 1.5441063 c -5.7,0 -11.39033,0.050003 -17.09033,0 z M 135.29986,33.715009 123.67926,53.07731 c 6.74558,-0.198683 13.39356,-0.446265 19.84131,-0.75879 l 4.91015,-7.693358 z"
     id="path7"
     inkscape:connector-curvature="0" />
</svg>
