<?xml version="1.0" encoding="UTF-8" standalone="no"?>
<!-- Created with Inkscape (http://www.inkscape.org/) -->

<svg
   xmlns:dc="http://purl.org/dc/elements/1.1/"
   xmlns:cc="http://creativecommons.org/ns#"
   xmlns:rdf="http://www.w3.org/1999/02/22-rdf-syntax-ns#"
   xmlns:svg="http://www.w3.org/2000/svg"
   xmlns="http://www.w3.org/2000/svg"
   xmlns:sodipodi="http://sodipodi.sourceforge.net/DTD/sodipodi-0.dtd"
   xmlns:inkscape="http://www.inkscape.org/namespaces/inkscape"
   width="6.0733843mm"
   height="1.518mm"
   viewBox="0 0 6.0733843 1.518"
   version="1.1"
   id="svg57359"
   inkscape:version="0.92.0 r15299"
   sodipodi:docname="Zapadoslovenska Televizia.svg">
  <defs
     id="defs57353">
    <clipPath
       clipPathUnits="userSpaceOnUse"
       id="clipPath21416">
      <path
         d="m 372.123,460.03 h 15.475 v 7.72 h -15.475 z"
         id="path21414"
         inkscape:connector-curvature="0" />
    </clipPath>
    <clipPath
       clipPathUnits="userSpaceOnUse"
       id="clipPath22560">
      <path
         d="m 371.508,444.753 h 16.703 v 5.959 h -16.703 z"
         id="path22558"
         inkscape:connector-curvature="0" />
    </clipPath>
    <clipPath
       clipPathUnits="userSpaceOnUse"
       id="clipPath22854">
      <path
         d="m 374.889,427.436 h 9.943 v 8.277 h -9.943 z"
         id="path22852"
         inkscape:connector-curvature="0" />
    </clipPath>
    <clipPath
       clipPathUnits="userSpaceOnUse"
       id="clipPath23220">
      <path
         d="m 371.252,413.266 h 17.216 v 4.303 h -17.216 z"
         id="path23218"
         inkscape:connector-curvature="0" />
    </clipPath>
  </defs>
  <sodipodi:namedview
     id="base"
     pagecolor="#ffffff"
     bordercolor="#666666"
     borderopacity="1.0"
     inkscape:pageopacity="0.0"
     inkscape:pageshadow="2"
     inkscape:zoom="31.678384"
     inkscape:cx="13.601717"
     inkscape:cy="0.72411335"
     inkscape:document-units="mm"
     inkscape:current-layer="layer1"
     showgrid="false"
     fit-margin-top="0"
     fit-margin-left="0"
     fit-margin-right="0"
     fit-margin-bottom="0"
     inkscape:window-width="1920"
     inkscape:window-height="1017"
     inkscape:window-x="-8"
     inkscape:window-y="-8"
     inkscape:window-maximized="1" />
  <metadata
     id="metadata57356">
    <rdf:RDF>
      <cc:Work
         rdf:about="">
        <dc:format>image/svg+xml</dc:format>
        <dc:type
           rdf:resource="http://purl.org/dc/dcmitype/StillImage" />
        <dc:title></dc:title>
      </cc:Work>
    </rdf:RDF>
  </metadata>
  <g
     inkscape:label="Layer 1"
     inkscape:groupmode="layer"
     id="layer1"
     transform="translate(20.654245,-145.69983)">
    <path
       d="m -20.654245,147.21783 h 1.518356 v -1.518 h -1.518356 z m 0.322086,-1.23895 h 0.873831 v 0.19191 l -0.528109,0.56197 h 0.528109 v 0.20638 h -0.873831 v -0.19932 l 0.52317,-0.55598 h -0.52317 z"
       style="fill:#e53527;fill-opacity:1;fill-rule:nonzero;stroke:none;stroke-width:0.35277775"
       id="path23200"
       inkscape:connector-curvature="0" />
    <g
       id="g23202"
       transform="matrix(0.35277777,0,0,-0.35277777,-20.331947,146.18391)">
      <path
         d="M 0,0 H 1.482 L 0,-1.576 v -0.565 h 2.476 v 0.585 H 0.979 L 2.477,0.037 V 0.581 H 0 Z"
         style="fill:#ffffff;fill-opacity:1;fill-rule:nonzero;stroke:none"
         id="path23204"
         inkscape:connector-curvature="0" />
    </g>
    <g
       id="g23206"
       transform="matrix(0.35277777,0,0,-0.35277777,-18.887745,146.12228)"
       style="fill:#ffffff;fill-opacity:1">
      <path
         d="m 0,0 v -0.1 h 0.503 l -0.534,-0.678 v -0.11 h 0.7 v 0.1 h -0.57 l 0.544,0.694 V 0 Z"
         style="fill:#ffffff;fill-opacity:1;fill-rule:nonzero;stroke:none"
         id="path23208"
         inkscape:connector-curvature="0" />
    </g>
    <g
       id="g23210"
       transform="matrix(0.35277777,0,0,-0.35277777,-18.505157,146.03719)"
       style="fill:#ffffff;fill-opacity:1">
      <path
         d="M 0,0 -0.055,-0.156 H 0.009 L 0.122,0 Z M -0.08,-0.241 -0.407,-1.13 h 0.127 l 0.093,0.27 H 0.157 L 0.249,-1.13 H 0.376 L 0.05,-0.241 Z m 0.065,-0.114 0.141,-0.413 h -0.283 z"
         style="fill:#ffffff;fill-opacity:1;fill-rule:nonzero;stroke:none"
         id="path23212"
         inkscape:connector-curvature="0" />
    </g>
    <g
       transform="matrix(0.35277777,0,0,-0.35277777,-151.6237,293.00889)"
       id="g23214"
       style="fill:#ffffff;fill-opacity:1">
      <g
         id="g23216"
         clip-path="url(#clipPath23220)"
         style="fill:#ffffff;fill-opacity:1">
        <g
           id="g23222"
           transform="translate(378.1303,415.948)"
           style="fill:#ffffff;fill-opacity:1">
          <path
             d="M 0,0 C 0.071,0 0.109,0.005 0.141,0.02 0.196,0.045 0.225,0.096 0.225,0.164 0.225,0.233 0.193,0.285 0.137,0.309 0.111,0.319 0.072,0.324 0.003,0.324 H -0.206 V 0 Z M -0.206,-0.465 H -0.32 v 0.888 h 0.327 c 0.108,0 0.161,-0.008 0.205,-0.032 0.081,-0.044 0.126,-0.127 0.126,-0.23 0,-0.118 -0.06,-0.205 -0.163,-0.24 C 0.142,-0.089 0.08,-0.096 0.009,-0.096 h -0.215 z"
             style="fill:#ffffff;fill-opacity:1;fill-rule:nonzero;stroke:none"
             id="path23224"
             inkscape:connector-curvature="0" />
        </g>
        <g
           id="g23226"
           transform="translate(378.9786,415.8455)"
           style="fill:#ffffff;fill-opacity:1">
          <path
             d="M 0,0 -0.141,0.413 -0.282,0 Z m -0.406,-0.362 h -0.127 l 0.327,0.888 h 0.13 L 0.25,-0.362 H 0.124 l -0.093,0.269 h -0.344 z"
             style="fill:#ffffff;fill-opacity:1;fill-rule:nonzero;stroke:none"
             id="path23228"
             inkscape:connector-curvature="0" />
        </g>
        <g
           id="g23230"
           transform="translate(379.6257,415.5831)"
           style="fill:#ffffff;fill-opacity:1">
          <path
             d="m 0,0 c 0.079,0 0.137,0.012 0.177,0.037 0.08,0.05 0.119,0.153 0.119,0.315 0,0.155 -0.043,0.256 -0.13,0.304 -0.04,0.023 -0.093,0.032 -0.181,0.032 H -0.193 V 0 Z m -0.306,0.788 h 0.297 C 0.137,0.788 0.2,0.771 0.272,0.712 0.366,0.635 0.409,0.521 0.409,0.346 0.409,0.049 0.274,-0.1 0.007,-0.1 h -0.313 z"
             style="fill:#ffffff;fill-opacity:1;fill-rule:nonzero;stroke:none"
             id="path23232"
             inkscape:connector-curvature="0" />
        </g>
        <g
           id="g23234"
           transform="translate(380.2874,415.9267)"
           style="fill:#ffffff;fill-opacity:1">
          <path
             d="m 0,0 c 0,-0.224 0.12,-0.361 0.316,-0.361 0.195,0 0.315,0.137 0.315,0.361 0,0.222 -0.12,0.362 -0.31,0.362 C 0.119,0.362 0,0.228 0,0 m 0.744,0 c 0,-0.274 -0.173,-0.461 -0.428,-0.461 -0.256,0 -0.429,0.187 -0.429,0.461 0,0.278 0.172,0.462 0.434,0.462 0.25,0 0.423,-0.189 0.423,-0.462"
             style="fill:#ffffff;fill-opacity:1;fill-rule:nonzero;stroke:none"
             id="path23236"
             inkscape:connector-curvature="0" />
        </g>
        <g
           id="g23238"
           transform="translate(381.7269,416.1117)"
           style="fill:#ffffff;fill-opacity:1">
          <path
             d="m 0,0 c -0.016,0.123 -0.088,0.178 -0.229,0.178 -0.119,0 -0.195,-0.051 -0.195,-0.133 0,-0.046 0.027,-0.082 0.08,-0.106 0.03,-0.015 0.07,-0.026 0.164,-0.048 0.135,-0.032 0.192,-0.051 0.235,-0.08 0.062,-0.043 0.094,-0.105 0.094,-0.185 0,-0.167 -0.134,-0.272 -0.346,-0.272 -0.216,0 -0.354,0.116 -0.377,0.316 h 0.113 c 0.01,-0.068 0.028,-0.107 0.065,-0.143 0.048,-0.046 0.123,-0.073 0.207,-0.073 0.133,0 0.225,0.067 0.225,0.164 0,0.061 -0.032,0.102 -0.105,0.13 -0.036,0.016 -0.073,0.026 -0.16,0.047 -0.13,0.031 -0.172,0.045 -0.214,0.072 -0.064,0.043 -0.094,0.097 -0.094,0.172 0,0.144 0.124,0.239 0.313,0.239 0.203,0 0.315,-0.092 0.337,-0.278 z"
             style="fill:#ffffff;fill-opacity:1;fill-rule:nonzero;stroke:none"
             id="path23240"
             inkscape:connector-curvature="0" />
        </g>
        <g
           id="g23242"
           transform="translate(382.1463,415.5831)"
           style="fill:#ffffff;fill-opacity:1">
          <path
             d="m 0,0 h 0.477 v -0.1 h -0.59 V 0.788 H 0 Z"
             style="fill:#ffffff;fill-opacity:1;fill-rule:nonzero;stroke:none"
             id="path23244"
             inkscape:connector-curvature="0" />
        </g>
        <g
           id="g23246"
           transform="translate(382.7762,415.9267)"
           style="fill:#ffffff;fill-opacity:1">
          <path
             d="m 0,0 c 0,-0.224 0.12,-0.361 0.316,-0.361 0.195,0 0.315,0.137 0.315,0.361 0,0.222 -0.12,0.362 -0.31,0.362 C 0.118,0.362 0,0.228 0,0 m 0.744,0 c 0,-0.274 -0.173,-0.461 -0.428,-0.461 -0.256,0 -0.429,0.187 -0.429,0.461 0,0.278 0.172,0.462 0.434,0.462 0.25,0 0.423,-0.189 0.423,-0.462"
             style="fill:#ffffff;fill-opacity:1;fill-rule:nonzero;stroke:none"
             id="path23248"
             inkscape:connector-curvature="0" />
        </g>
        <g
           id="g23250"
           transform="translate(383.9425,415.6057)"
           style="fill:#ffffff;fill-opacity:1">
          <path
             d="M 0,0 0.253,0.766 H 0.378 L 0.067,-0.122 h -0.134 l -0.311,0.888 h 0.125 z"
             style="fill:#ffffff;fill-opacity:1;fill-rule:nonzero;stroke:none"
             id="path23252"
             inkscape:connector-curvature="0" />
        </g>
        <g
           id="g23254"
           transform="translate(384.5243,415.9893)"
           style="fill:#ffffff;fill-opacity:1">
          <path
             d="M 0,0 H 0.483 V -0.096 H 0 v -0.31 h 0.545 v -0.1 h -0.658 v 0.888 h 0.644 v -0.1 L 0,0.282 Z"
             style="fill:#ffffff;fill-opacity:1;fill-rule:nonzero;stroke:none"
             id="path23256"
             inkscape:connector-curvature="0" />
        </g>
        <g
           id="g23258"
           transform="translate(385.816,415.6564)"
           style="fill:#ffffff;fill-opacity:1">
          <path
             d="m 0,0 v 0.715 h 0.113 v -0.888 h -0.12 l -0.466,0.719 v -0.719 h -0.113 v 0.888 h 0.121 z"
             style="fill:#ffffff;fill-opacity:1;fill-rule:nonzero;stroke:none"
             id="path23260"
             inkscape:connector-curvature="0" />
        </g>
        <g
           id="g23262"
           transform="translate(386.6589,416.1117)"
           style="fill:#ffffff;fill-opacity:1">
          <path
             d="m 0,0 c -0.016,0.123 -0.088,0.178 -0.229,0.178 -0.119,0 -0.195,-0.051 -0.195,-0.133 0,-0.046 0.027,-0.082 0.08,-0.106 0.03,-0.015 0.07,-0.026 0.164,-0.048 0.135,-0.032 0.192,-0.051 0.234,-0.08 0.063,-0.043 0.095,-0.105 0.095,-0.185 0,-0.167 -0.134,-0.272 -0.346,-0.272 -0.216,0 -0.354,0.116 -0.377,0.316 h 0.113 c 0.01,-0.068 0.028,-0.107 0.065,-0.143 0.048,-0.046 0.123,-0.073 0.207,-0.073 0.133,0 0.225,0.067 0.225,0.164 0,0.061 -0.032,0.102 -0.105,0.13 -0.036,0.016 -0.074,0.026 -0.16,0.047 -0.131,0.031 -0.172,0.045 -0.214,0.072 -0.064,0.043 -0.094,0.097 -0.094,0.172 0,0.144 0.124,0.239 0.313,0.239 0.203,0 0.315,-0.092 0.337,-0.278 z"
             style="fill:#ffffff;fill-opacity:1;fill-rule:nonzero;stroke:none"
             id="path23264"
             inkscape:connector-curvature="0" />
        </g>
        <g
           id="g23266"
           transform="translate(387.0781,415.9267)"
           style="fill:#ffffff;fill-opacity:1">
          <path
             d="m 0,0 0.453,0.445 h 0.15 L 0.228,0.083 0.632,-0.444 H 0.491 L 0.15,0.009 0,-0.136 V -0.444 H -0.113 V 0.445 H 0 Z"
             style="fill:#ffffff;fill-opacity:1;fill-rule:nonzero;stroke:none"
             id="path23268"
             inkscape:connector-curvature="0" />
        </g>
        <g
           id="g23270"
           transform="translate(388.2139,416.6124)"
           style="fill:#ffffff;fill-opacity:1">
          <path
             d="M 0,0 -0.113,-0.156 H -0.177 L -0.123,0 Z m 0.004,-0.767 -0.141,0.413 -0.141,-0.413 z m -0.406,-0.362 h -0.127 l 0.327,0.888 h 0.13 L 0.254,-1.129 H 0.128 L 0.035,-0.86 h -0.344 z"
             style="fill:#ffffff;fill-opacity:1;fill-rule:nonzero;stroke:none"
             id="path23272"
             inkscape:connector-curvature="0" />
        </g>
        <g
           id="g23274"
           transform="translate(379.7926,414.0629)"
           style="fill:#ffffff;fill-opacity:1">
          <path
             d="m 0,0 h -0.114 v 0.788 h -0.292 v 0.1 h 0.692 v -0.1 H 0 Z"
             style="fill:#ffffff;fill-opacity:1;fill-rule:nonzero;stroke:none"
             id="path23276"
             inkscape:connector-curvature="0" />
        </g>
        <g
           id="g23278"
           transform="translate(380.2947,414.569)"
           style="fill:#ffffff;fill-opacity:1">
          <path
             d="M 0,0 H 0.483 V -0.096 H 0 v -0.31 h 0.545 v -0.1 h -0.658 v 0.888 h 0.644 v -0.1 L 0,0.282 Z"
             style="fill:#ffffff;fill-opacity:1;fill-rule:nonzero;stroke:none"
             id="path23280"
             inkscape:connector-curvature="0" />
        </g>
        <g
           id="g23282"
           transform="translate(381.1136,414.1628)"
           style="fill:#ffffff;fill-opacity:1">
          <path
             d="m 0,0 h 0.477 v -0.1 h -0.59 V 0.788 H 0 Z"
             style="fill:#ffffff;fill-opacity:1;fill-rule:nonzero;stroke:none"
             id="path23284"
             inkscape:connector-curvature="0" />
        </g>
        <g
           id="g23286"
           transform="translate(381.7928,414.569)"
           style="fill:#ffffff;fill-opacity:1">
          <path
             d="M 0,0 H 0.483 V -0.096 H 0 v -0.31 h 0.544 v -0.1 h -0.657 v 0.888 h 0.644 v -0.1 L 0,0.282 Z"
             style="fill:#ffffff;fill-opacity:1;fill-rule:nonzero;stroke:none"
             id="path23288"
             inkscape:connector-curvature="0" />
        </g>
        <g
           id="g23290"
           transform="translate(382.7567,414.1854)"
           style="fill:#ffffff;fill-opacity:1">
          <path
             d="M 0,0 0.253,0.766 H 0.378 L 0.067,-0.123 h -0.134 l -0.311,0.889 h 0.125 z"
             style="fill:#ffffff;fill-opacity:1;fill-rule:nonzero;stroke:none"
             id="path23292"
             inkscape:connector-curvature="0" />
        </g>
        <g
           id="g23294"
           transform="translate(383.4143,415.1921)"
           style="fill:#ffffff;fill-opacity:1">
          <path
             d="M 0,0 -0.113,-0.156 H -0.177 L -0.122,0 Z m -0.076,-1.129 h -0.113 v 0.888 h 0.113 z"
             style="fill:#ffffff;fill-opacity:1;fill-rule:nonzero;stroke:none"
             id="path23296"
             inkscape:connector-curvature="0" />
        </g>
        <g
           id="g23298"
           transform="translate(383.5982,414.1628)"
           style="fill:#ffffff;fill-opacity:1">
          <path
             d="m 0,0 h 0.57 v -0.1 h -0.699 v 0.111 l 0.534,0.677 h -0.503 v 0.1 H 0.545 V 0.695 Z"
             style="fill:#ffffff;fill-opacity:1;fill-rule:nonzero;stroke:none"
             id="path23300"
             inkscape:connector-curvature="0" />
        </g>
        <path
           d="m 384.41,414.063 h -0.113 v 0.888 h 0.113 z"
           style="fill:#ffffff;fill-opacity:1;fill-rule:nonzero;stroke:none"
           id="path23302"
           inkscape:connector-curvature="0" />
        <g
           id="g23304"
           transform="translate(385.0336,414.4251)"
           style="fill:#ffffff;fill-opacity:1">
          <path
             d="M 0,0 -0.141,0.413 -0.283,0 Z m -0.406,-0.362 h -0.127 l 0.326,0.888 h 0.131 L 0.25,-0.362 H 0.124 l -0.093,0.269 h -0.344 z"
             style="fill:#ffffff;fill-opacity:1;fill-rule:nonzero;stroke:none"
             id="path23306"
             inkscape:connector-curvature="0" />
        </g>
      </g>
    </g>
  </g>
</svg>
