<svg id="b" width="6.0734mm" height="1.518mm" version="1.1" viewBox="0 0 6.0734 1.518" xmlns="http://www.w3.org/2000/svg">
 <defs id="c">
  <clipPath id="a">
   <path id="d" d="m371.25 413.27h17.216v4.303h-17.216z"/>
  </clipPath>
 </defs>
 <g id="e" transform="translate(20.654 -145.7)">
  <path id="f" d="m-20.654 147.22h1.5184v-1.518h-1.5184zm0.32209-1.239h0.87383v0.19191l-0.52811 0.56197h0.52811v0.20638h-0.87383v-0.19932l0.52317-0.55598h-0.52317z" fill="#e53527"/>
  <g id="g" transform="matrix(.35278 0 0 -.35278 -20.332 146.18)">
   <path id="h" d="m0 0h1.482l-1.482-1.576v-0.565h2.476v0.585h-1.497l1.498 1.593v0.544h-2.477z" fill="#fff"/>
  </g>
  <g id="i" transform="matrix(.35278 0 0 -.35278 -18.888 146.12)">
   <path id="j" d="m0 0v-0.1h0.503l-0.534-0.678v-0.11h0.7v0.1h-0.57l0.544 0.694v0.094z"/>
  </g>
  <g id="k" transform="matrix(.35278 0 0 -.35278 -18.505 146.04)">
   <path id="l" d="m0 0-0.055-0.156h0.064l0.113 0.156zm-0.08-0.241-0.327-0.889h0.127l0.093 0.27h0.344l0.092-0.27h0.127l-0.326 0.889zm0.065-0.114 0.141-0.413h-0.283z"/>
  </g>
  <g id="m" transform="matrix(.35278 0 0 -.35278 -151.62 293.01)">
   <g id="n" clip-path="url(#a)">
    <g id="o" transform="translate(378.13 415.95)">
     <path id="p" d="m0 0c0.071 0 0.109 5e-3 0.141 0.02 0.055 0.025 0.084 0.076 0.084 0.144 0 0.069-0.032 0.121-0.088 0.145-0.026 0.01-0.065 0.015-0.134 0.015h-0.209v-0.324zm-0.206-0.465h-0.114v0.888h0.327c0.108 0 0.161-8e-3 0.205-0.032 0.081-0.044 0.126-0.127 0.126-0.23 0-0.118-0.06-0.205-0.163-0.24-0.033-0.01-0.095-0.017-0.166-0.017h-0.215z"/>
    </g>
    <g id="q" transform="translate(378.98 415.85)">
     <path id="r" d="m0 0-0.141 0.413-0.141-0.413zm-0.406-0.362h-0.127l0.327 0.888h0.13l0.326-0.888h-0.126l-0.093 0.269h-0.344z"/>
    </g>
    <g id="s" transform="translate(379.63 415.58)">
     <path id="t" d="m0 0c0.079 0 0.137 0.012 0.177 0.037 0.08 0.05 0.119 0.153 0.119 0.315 0 0.155-0.043 0.256-0.13 0.304-0.04 0.023-0.093 0.032-0.181 0.032h-0.178v-0.688zm-0.306 0.788h0.297c0.146 0 0.209-0.017 0.281-0.076 0.094-0.077 0.137-0.191 0.137-0.366 0-0.297-0.135-0.446-0.402-0.446h-0.313z"/>
    </g>
    <g id="u" transform="translate(380.29 415.93)">
     <path id="v" d="m0 0c0-0.224 0.12-0.361 0.316-0.361 0.195 0 0.315 0.137 0.315 0.361 0 0.222-0.12 0.362-0.31 0.362-0.202 0-0.321-0.134-0.321-0.362m0.744 0c0-0.274-0.173-0.461-0.428-0.461-0.256 0-0.429 0.187-0.429 0.461 0 0.278 0.172 0.462 0.434 0.462 0.25 0 0.423-0.189 0.423-0.462"/>
    </g>
    <g id="w" transform="translate(381.73 416.11)">
     <path id="x" d="m0 0c-0.016 0.123-0.088 0.178-0.229 0.178-0.119 0-0.195-0.051-0.195-0.133 0-0.046 0.027-0.082 0.08-0.106 0.03-0.015 0.07-0.026 0.164-0.048 0.135-0.032 0.192-0.051 0.235-0.08 0.062-0.043 0.094-0.105 0.094-0.185 0-0.167-0.134-0.272-0.346-0.272-0.216 0-0.354 0.116-0.377 0.316h0.113c0.01-0.068 0.028-0.107 0.065-0.143 0.048-0.046 0.123-0.073 0.207-0.073 0.133 0 0.225 0.067 0.225 0.164 0 0.061-0.032 0.102-0.105 0.13-0.036 0.016-0.073 0.026-0.16 0.047-0.13 0.031-0.172 0.045-0.214 0.072-0.064 0.043-0.094 0.097-0.094 0.172 0 0.144 0.124 0.239 0.313 0.239 0.203 0 0.315-0.092 0.337-0.278z"/>
    </g>
    <g id="y" transform="translate(382.15 415.58)">
     <path id="z" d="m0 0h0.477v-0.1h-0.59v0.888h0.113z"/>
    </g>
    <g id="aa" transform="translate(382.78 415.93)">
     <path id="ab" d="m0 0c0-0.224 0.12-0.361 0.316-0.361 0.195 0 0.315 0.137 0.315 0.361 0 0.222-0.12 0.362-0.31 0.362-0.203 0-0.321-0.134-0.321-0.362m0.744 0c0-0.274-0.173-0.461-0.428-0.461-0.256 0-0.429 0.187-0.429 0.461 0 0.278 0.172 0.462 0.434 0.462 0.25 0 0.423-0.189 0.423-0.462"/>
    </g>
    <g id="ac" transform="translate(383.94 415.61)">
     <path id="ad" d="m0 0 0.253 0.766h0.125l-0.311-0.888h-0.134l-0.311 0.888h0.125z"/>
    </g>
    <g id="ae" transform="translate(384.52 415.99)">
     <path id="af" d="m0 0h0.483v-0.096h-0.483v-0.31h0.545v-0.1h-0.658v0.888h0.644v-0.1h-0.531z"/>
    </g>
    <g id="ag" transform="translate(385.82 415.66)">
     <path id="ah" d="m0 0v0.715h0.113v-0.888h-0.12l-0.466 0.719v-0.719h-0.113v0.888h0.121z"/>
    </g>
    <g id="ai" transform="translate(386.66 416.11)">
     <path id="aj" d="m0 0c-0.016 0.123-0.088 0.178-0.229 0.178-0.119 0-0.195-0.051-0.195-0.133 0-0.046 0.027-0.082 0.08-0.106 0.03-0.015 0.07-0.026 0.164-0.048 0.135-0.032 0.192-0.051 0.234-0.08 0.063-0.043 0.095-0.105 0.095-0.185 0-0.167-0.134-0.272-0.346-0.272-0.216 0-0.354 0.116-0.377 0.316h0.113c0.01-0.068 0.028-0.107 0.065-0.143 0.048-0.046 0.123-0.073 0.207-0.073 0.133 0 0.225 0.067 0.225 0.164 0 0.061-0.032 0.102-0.105 0.13-0.036 0.016-0.074 0.026-0.16 0.047-0.131 0.031-0.172 0.045-0.214 0.072-0.064 0.043-0.094 0.097-0.094 0.172 0 0.144 0.124 0.239 0.313 0.239 0.203 0 0.315-0.092 0.337-0.278z"/>
    </g>
    <g id="ak" transform="translate(387.08 415.93)">
     <path id="al" d="m0 0 0.453 0.445h0.15l-0.375-0.362 0.404-0.527h-0.141l-0.341 0.453-0.15-0.145v-0.308h-0.113v0.889h0.113z"/>
    </g>
    <g id="am" transform="translate(388.21 416.61)">
     <path id="an" d="m0 0-0.113-0.156h-0.064l0.054 0.156zm4e-3 -0.767-0.141 0.413-0.141-0.413zm-0.406-0.362h-0.127l0.327 0.888h0.13l0.326-0.888h-0.126l-0.093 0.269h-0.344z"/>
    </g>
    <g id="ao" transform="translate(379.79 414.06)">
     <path id="ap" d="m0 0h-0.114v0.788h-0.292v0.1h0.692v-0.1h-0.286z"/>
    </g>
    <g id="aq" transform="translate(380.29 414.57)">
     <path id="ar" d="m0 0h0.483v-0.096h-0.483v-0.31h0.545v-0.1h-0.658v0.888h0.644v-0.1h-0.531z"/>
    </g>
    <g id="as" transform="translate(381.11 414.16)">
     <path id="at" d="m0 0h0.477v-0.1h-0.59v0.888h0.113z"/>
    </g>
    <g id="au" transform="translate(381.79 414.57)">
     <path id="av" d="m0 0h0.483v-0.096h-0.483v-0.31h0.544v-0.1h-0.657v0.888h0.644v-0.1h-0.531z"/>
    </g>
    <g id="aw" transform="translate(382.76 414.19)">
     <path id="ax" d="m0 0 0.253 0.766h0.125l-0.311-0.889h-0.134l-0.311 0.889h0.125z"/>
    </g>
    <g id="ay" transform="translate(383.41 415.19)">
     <path id="az" d="m0 0-0.113-0.156h-0.064l0.055 0.156zm-0.076-1.129h-0.113v0.888h0.113z"/>
    </g>
    <g id="ba" transform="translate(383.6 414.16)">
     <path id="bb" d="m0 0h0.57v-0.1h-0.699v0.111l0.534 0.677h-0.503v0.1h0.643v-0.093z"/>
    </g>
    <path id="bc" d="m384.41 414.06h-0.113v0.888h0.113z"/>
    <g id="bd" transform="translate(385.03 414.43)">
     <path id="be" d="m0 0-0.141 0.413-0.142-0.413zm-0.406-0.362h-0.127l0.326 0.888h0.131l0.326-0.888h-0.126l-0.093 0.269h-0.344z"/>
    </g>
   </g>
  </g>
 </g>
</svg>
