<svg height="613" viewBox="-7.3309881 -7.3309881 432.772 259.02825" width="1024" xmlns="http://www.w3.org/2000/svg"><path d="m280.90625 158.11627h-25.68625v-71.02252h25.68625c20.18375 0 27.4425 8.635 27.4425 35.50872 0 26.8675-7.25875 35.5138-27.4425 35.5138m96.42875-71.02252h40.77503v-19.34125h-49.11253c-26.415 0-37.26375 14.785-37.26375 37.95877l-.0175 2.2662c-4.4175-27.28747-20.62625-40.22497-50.3275-40.22497h-49.7775c-20.02875-40.1675-61.49375-67.7525-109.4175-67.7525-67.46 0-122.19375 54.71125-122.19375 122.21127 0 67.4837 54.73375 122.155 122.19375 122.155 47.64375 0 88.84875-27.2063 109.00375-66.915h50.77625c12.1575 0 23.05875-.7225 34.22375-9.6163 8.02625-6.385 13.075-15.3587 15.39875-27.1375v36.61h23.27625l.0337-43.0925h54.94125v-19.18h-54.975l.31625-7.7637c0-12.58127 3.78-20.17752 22.14625-20.17752" fill="#fa7d19"/><path d="m176.303 113.18137h15.17c12.07625 0 19.185-2.4212 19.185-12.645 0-10.50499-7.10875-13.44249-19.4775-13.44249h-51.45875v-19.34125h59.86375c30.37375 0 34.67125 21.2575 34.67125 33.11124 0 12.6163-5.1475 32.6275-34.71125 32.6275h-14.6875c-18.3775 0-22.33625 6.6438-22.33625 19.215v5.875h68.7225v18.7263h-92.2v-27.2175c0-23.1388 10.88375-36.9088 37.25875-36.9088" fill="#fff"/></svg>